<svg width="728" height="211" viewBox="0 0 728 211" fill="none" xmlns="http://www.w3.org/2000/svg">
<rect x="1" y="1" width="726" height="209" rx="7" fill="white"/>
<rect x="1" y="1" width="726" height="209" rx="7" stroke="#E6EBF0" stroke-width="2"/>
<rect x="325.473" y="40" width="79.3622" height="21" rx="4.18108" fill="#F0CCFF"/>
<path d="M333.906 45.5534C334.763 45.5534 335.47 45.6606 336.028 45.8749C336.59 46.0845 337.009 46.4061 337.285 46.8395C337.562 47.273 337.7 47.8256 337.7 48.4973C337.7 49.0499 337.6 49.5119 337.4 49.8835C337.2 50.2503 336.938 50.548 336.614 50.7767C336.29 51.0053 335.944 51.1816 335.578 51.3054L338.443 55.9999H337.028L334.47 51.6412H332.298V55.9999H331.083V45.5534H333.906ZM333.834 46.6037H332.298V50.6123H333.956C334.808 50.6123 335.435 50.4384 335.835 50.0907C336.24 49.743 336.442 49.2309 336.442 48.5544C336.442 47.8447 336.228 47.3421 335.799 47.0468C335.375 46.7514 334.72 46.6037 333.834 46.6037ZM342.952 48.0257C343.618 48.0257 344.19 48.1734 344.666 48.4687C345.143 48.764 345.507 49.1785 345.76 49.712C346.012 50.2408 346.138 50.86 346.138 51.5698V52.3058H340.729C340.744 53.2251 340.972 53.9254 341.415 54.4065C341.858 54.8876 342.482 55.1282 343.287 55.1282C343.783 55.1282 344.221 55.0829 344.602 54.9924C344.983 54.9019 345.379 54.7685 345.788 54.5923V55.6355C345.393 55.8118 345 55.9404 344.609 56.0214C344.223 56.1024 343.766 56.1428 343.237 56.1428C342.485 56.1428 341.827 55.9904 341.265 55.6855C340.708 55.3759 340.274 54.9234 339.965 54.3279C339.655 53.7325 339.5 53.0036 339.5 52.1414C339.5 51.2983 339.641 50.5694 339.922 49.9549C340.208 49.3357 340.608 48.8593 341.122 48.5259C341.642 48.1924 342.251 48.0257 342.952 48.0257ZM342.937 48.9975C342.304 48.9975 341.799 49.2047 341.422 49.6191C341.046 50.0335 340.822 50.6123 340.751 51.3554H344.895C344.89 50.8886 344.817 50.4789 344.674 50.1264C344.535 49.7692 344.323 49.4929 344.038 49.2976C343.752 49.0975 343.385 48.9975 342.937 48.9975ZM353.405 59.5012V56.1428C353.405 55.9571 353.41 55.7427 353.42 55.4998C353.429 55.2568 353.446 55.0472 353.47 54.871H353.391C353.172 55.233 352.86 55.5355 352.455 55.7784C352.05 56.0214 351.528 56.1428 350.89 56.1428C349.933 56.1428 349.163 55.8046 348.582 55.1282C348.001 54.4518 347.71 53.4419 347.71 52.0986C347.71 51.2173 347.844 50.4742 348.111 49.8692C348.377 49.2642 348.754 48.8069 349.24 48.4973C349.73 48.1829 350.302 48.0257 350.954 48.0257C351.578 48.0257 352.088 48.1495 352.484 48.3972C352.879 48.6402 353.189 48.9379 353.412 49.2904H353.47L353.648 48.1686H354.591V59.5012H353.405ZM351.112 55.1568C351.664 55.1568 352.107 55.0544 352.441 54.8495C352.774 54.6399 353.017 54.3255 353.169 53.9063C353.327 53.4871 353.41 52.9655 353.42 52.3415V52.0914C353.42 51.0815 353.248 50.317 352.905 49.7977C352.562 49.2737 351.964 49.0117 351.112 49.0117C350.378 49.0117 349.833 49.2928 349.475 49.8549C349.118 50.4122 348.939 51.1697 348.939 52.1271C348.939 53.0846 349.118 53.8301 349.475 54.3636C349.833 54.8924 350.378 55.1568 351.112 55.1568ZM363.58 48.1686V55.9999H362.609L362.437 54.8995H362.373C362.211 55.1711 362.001 55.3997 361.744 55.5855C361.487 55.7713 361.196 55.9094 360.872 55.9999C360.553 56.0952 360.212 56.1428 359.85 56.1428C359.231 56.1428 358.712 56.0428 358.293 55.8427C357.874 55.6427 357.557 55.333 357.342 54.9138C357.133 54.4946 357.028 53.9564 357.028 53.299V48.1686H358.228V53.2132C358.228 53.8658 358.376 54.3541 358.671 54.678C358.967 54.9972 359.417 55.1568 360.022 55.1568C360.603 55.1568 361.065 55.0472 361.408 54.8281C361.756 54.609 362.006 54.2874 362.158 53.8635C362.311 53.4347 362.387 52.9107 362.387 52.2915V48.1686H363.58ZM369.104 48.0257C369.771 48.0257 370.342 48.1734 370.819 48.4687C371.295 48.764 371.659 49.1785 371.912 49.712C372.164 50.2408 372.291 50.86 372.291 51.5698V52.3058H366.881C366.896 53.2251 367.124 53.9254 367.567 54.4065C368.01 54.8876 368.634 55.1282 369.44 55.1282C369.935 55.1282 370.373 55.0829 370.754 54.9924C371.135 54.9019 371.531 54.7685 371.94 54.5923V55.6355C371.545 55.8118 371.152 55.9404 370.761 56.0214C370.376 56.1024 369.918 56.1428 369.39 56.1428C368.637 56.1428 367.98 55.9904 367.417 55.6855C366.86 55.3759 366.427 54.9234 366.117 54.3279C365.807 53.7325 365.652 53.0036 365.652 52.1414C365.652 51.2983 365.793 50.5694 366.074 49.9549C366.36 49.3357 366.76 48.8593 367.274 48.5259C367.794 48.1924 368.403 48.0257 369.104 48.0257ZM369.089 48.9975C368.456 48.9975 367.951 49.2047 367.575 49.6191C367.198 50.0335 366.974 50.6123 366.903 51.3554H371.047C371.042 50.8886 370.969 50.4789 370.826 50.1264C370.688 49.7692 370.476 49.4929 370.19 49.2976C369.904 49.0975 369.537 48.9975 369.089 48.9975ZM377.864 48.0257C378.021 48.0257 378.186 48.0352 378.357 48.0543C378.528 48.0686 378.681 48.09 378.814 48.1186L378.664 49.219C378.536 49.1856 378.393 49.1594 378.236 49.1404C378.078 49.1213 377.931 49.1118 377.793 49.1118C377.478 49.1118 377.18 49.1761 376.899 49.3047C376.623 49.4286 376.38 49.6096 376.171 49.8478C375.961 50.0812 375.797 50.3646 375.677 50.6981C375.558 51.0267 375.499 51.3935 375.499 51.7984V55.9999H374.306V48.1686H375.292L375.42 49.612H375.47C375.632 49.3214 375.828 49.057 376.056 48.8188C376.285 48.5759 376.549 48.3829 376.849 48.24C377.154 48.0971 377.492 48.0257 377.864 48.0257ZM381.48 48.1686V55.9999H380.293V48.1686H381.48ZM380.901 45.239C381.096 45.239 381.263 45.3033 381.401 45.4319C381.544 45.5558 381.615 45.7511 381.615 46.0178C381.615 46.2798 381.544 46.4751 381.401 46.6037C381.263 46.7324 381.096 46.7967 380.901 46.7967C380.696 46.7967 380.524 46.7324 380.386 46.6037C380.253 46.4751 380.186 46.2798 380.186 46.0178C380.186 45.7511 380.253 45.5558 380.386 45.4319C380.524 45.3033 380.696 45.239 380.901 45.239ZM386.781 56.1428C385.791 56.1428 385.005 55.8046 384.423 55.1282C383.847 54.4518 383.559 53.4467 383.559 52.1128C383.559 50.7647 383.854 49.7477 384.445 49.0618C385.036 48.371 385.822 48.0257 386.803 48.0257C387.217 48.0257 387.579 48.0805 387.889 48.19C388.199 48.2996 388.465 48.4473 388.689 48.633C388.913 48.8141 389.101 49.0213 389.254 49.2547H389.339C389.32 49.107 389.301 48.9046 389.282 48.6473C389.263 48.3901 389.254 48.1805 389.254 48.0185V44.8817H390.44V55.9999H389.482L389.304 54.8853H389.254C389.106 55.1187 388.918 55.3307 388.689 55.5212C388.465 55.7117 388.196 55.8642 387.882 55.9785C387.572 56.0881 387.205 56.1428 386.781 56.1428ZM386.967 55.1568C387.806 55.1568 388.399 54.9186 388.746 54.4422C389.094 53.9659 389.268 53.2585 389.268 52.3201V52.1057C389.268 51.1101 389.101 50.3456 388.768 49.812C388.439 49.2785 387.839 49.0117 386.967 49.0117C386.238 49.0117 385.693 49.2928 385.331 49.8549C384.969 50.4122 384.788 51.1744 384.788 52.1414C384.788 53.1037 384.966 53.8468 385.324 54.3708C385.686 54.8948 386.234 55.1568 386.967 55.1568ZM399.707 52.07C399.707 52.7131 399.624 53.2871 399.457 53.792C399.291 54.297 399.05 54.7233 398.736 55.071C398.421 55.4188 398.04 55.6855 397.592 55.8713C397.149 56.0523 396.647 56.1428 396.085 56.1428C395.561 56.1428 395.08 56.0523 394.641 55.8713C394.208 55.6855 393.832 55.4188 393.512 55.071C393.198 54.7233 392.953 54.297 392.776 53.792C392.605 53.2871 392.519 52.7131 392.519 52.07C392.519 51.2125 392.664 50.4837 392.955 49.8835C393.246 49.2785 393.66 48.8188 394.198 48.5044C394.741 48.1853 395.387 48.0257 396.135 48.0257C396.849 48.0257 397.473 48.1853 398.007 48.5044C398.545 48.8236 398.962 49.2856 399.257 49.8906C399.557 50.4908 399.707 51.2173 399.707 52.07ZM393.748 52.07C393.748 52.6988 393.832 53.2442 393.998 53.7063C394.165 54.1683 394.422 54.5256 394.77 54.7781C395.118 55.0305 395.565 55.1568 396.113 55.1568C396.656 55.1568 397.102 55.0305 397.449 54.7781C397.802 54.5256 398.062 54.1683 398.228 53.7063C398.395 53.2442 398.478 52.6988 398.478 52.07C398.478 51.4459 398.395 50.9077 398.228 50.4551C398.062 49.9978 397.804 49.6453 397.457 49.3976C397.109 49.1499 396.659 49.026 396.106 49.026C395.292 49.026 394.694 49.2952 394.313 49.8335C393.936 50.3717 393.748 51.1173 393.748 52.07Z" fill="#101E37"/>
<g clip-path="url(#clip0_3496_1364)">
<rect x="140.473" y="69.3622" width="463.054" height="50.1729" rx="8.36215" fill="white"/>
<rect x="140.473" y="69.3622" width="160.811" height="50.1729" rx="8.36215" fill="#005E7A"/>
<path d="M164.106 100.449C163.693 100.449 163.373 100.342 163.147 100.129C162.934 99.903 162.827 99.5832 162.827 99.1693V88.4636C162.827 88.0497 162.934 87.7361 163.147 87.5229C163.373 87.2971 163.693 87.1842 164.106 87.1842H170.823C171.137 87.1842 171.375 87.2657 171.538 87.4288C171.714 87.5919 171.802 87.8239 171.802 88.1249C171.802 88.4385 171.714 88.6831 171.538 88.8587C171.375 89.0218 171.137 89.1033 170.823 89.1033H165.141V92.7534H170.409C170.736 92.7534 170.98 92.8349 171.143 92.998C171.306 93.1611 171.388 93.3994 171.388 93.713C171.388 94.0265 171.306 94.2649 171.143 94.4279C170.98 94.591 170.736 94.6725 170.409 94.6725H165.141V98.5296H170.823C171.137 98.5296 171.375 98.6111 171.538 98.7741C171.714 98.9372 171.802 99.1755 171.802 99.4891C171.802 99.8027 171.714 100.041 171.538 100.204C171.375 100.367 171.137 100.449 170.823 100.449H164.106ZM176.97 100.637C175.929 100.637 175.145 100.342 174.618 99.7525C174.091 99.1504 173.828 98.2724 173.828 97.1184V88.219C173.828 87.8302 173.928 87.5354 174.129 87.3347C174.329 87.134 174.618 87.0337 174.994 87.0337C175.371 87.0337 175.659 87.134 175.86 87.3347C176.073 87.5354 176.18 87.8302 176.18 88.219V97.0056C176.18 97.5825 176.299 98.009 176.537 98.285C176.788 98.5609 177.139 98.6989 177.591 98.6989C177.691 98.6989 177.785 98.6989 177.873 98.6989C177.961 98.6863 178.048 98.6738 178.136 98.6613C178.312 98.6362 178.431 98.6863 178.494 98.8118C178.556 98.9247 178.588 99.163 178.588 99.5267C178.588 99.8403 178.525 100.085 178.4 100.261C178.274 100.436 178.067 100.543 177.779 100.58C177.653 100.593 177.522 100.605 177.384 100.618C177.246 100.631 177.108 100.637 176.97 100.637ZM184.278 100.637C183.237 100.637 182.341 100.442 181.588 100.054C180.835 99.6647 180.252 99.1128 179.838 98.3979C179.437 97.6829 179.236 96.8362 179.236 95.8578C179.236 94.9046 179.431 94.0704 179.819 93.3555C180.221 92.6405 180.766 92.0823 181.456 91.681C182.159 91.267 182.955 91.0601 183.846 91.0601C184.498 91.0601 185.081 91.1667 185.595 91.3799C186.122 91.5931 186.568 91.9005 186.931 92.3018C187.308 92.7032 187.59 93.1924 187.778 93.7694C187.979 94.3338 188.079 94.9735 188.079 95.6885C188.079 95.9143 187.998 96.0899 187.834 96.2153C187.684 96.3282 187.464 96.3847 187.176 96.3847H181.136V95.03H186.423L186.122 95.3122C186.122 94.7352 186.035 94.2523 185.859 93.8635C185.696 93.4746 185.451 93.1799 185.125 92.9792C184.812 92.7659 184.416 92.6593 183.94 92.6593C183.413 92.6593 182.961 92.7848 182.585 93.0356C182.221 93.2739 181.939 93.6189 181.738 94.0704C181.55 94.5094 181.456 95.0363 181.456 95.6509V95.7826C181.456 96.8111 181.695 97.5825 182.171 98.0968C182.66 98.5985 183.375 98.8494 184.316 98.8494C184.642 98.8494 185.006 98.8118 185.407 98.7365C185.821 98.6487 186.21 98.5045 186.574 98.3038C186.837 98.1533 187.069 98.0905 187.27 98.1156C187.471 98.1282 187.628 98.1972 187.74 98.3226C187.866 98.448 187.941 98.6048 187.966 98.793C187.991 98.9686 187.954 99.1504 187.853 99.3386C187.765 99.5267 187.609 99.6898 187.383 99.8278C186.944 100.104 186.436 100.311 185.859 100.449C185.294 100.574 184.768 100.637 184.278 100.637ZM194.231 104.023C193.554 104.023 192.896 103.961 192.256 103.835C191.629 103.71 191.058 103.515 190.544 103.252C190.305 103.127 190.142 102.976 190.054 102.801C189.979 102.625 189.954 102.443 189.979 102.255C190.017 102.079 190.092 101.922 190.205 101.785C190.33 101.647 190.481 101.552 190.657 101.502C190.832 101.452 191.014 101.477 191.202 101.578C191.754 101.854 192.275 102.029 192.764 102.104C193.266 102.192 193.692 102.236 194.043 102.236C194.884 102.236 195.511 102.029 195.925 101.615C196.351 101.214 196.564 100.612 196.564 99.809V98.1156H196.734C196.546 98.7553 196.15 99.2696 195.548 99.6584C194.959 100.035 194.288 100.223 193.535 100.223C192.707 100.223 191.986 100.035 191.372 99.6584C190.757 99.2696 190.28 98.7302 189.942 98.0404C189.603 97.3505 189.434 96.5477 189.434 95.6321C189.434 94.9422 189.528 94.3213 189.716 93.7694C189.916 93.205 190.192 92.722 190.544 92.3207C190.907 91.9193 191.34 91.612 191.842 91.3987C192.356 91.173 192.921 91.0601 193.535 91.0601C194.313 91.0601 194.99 91.2545 195.567 91.6433C196.157 92.0196 196.539 92.5213 196.715 93.1485L196.527 93.6189V92.283C196.527 91.8942 196.627 91.5994 196.828 91.3987C197.041 91.198 197.33 91.0977 197.693 91.0977C198.07 91.0977 198.358 91.198 198.559 91.3987C198.759 91.5994 198.86 91.8942 198.86 92.283V99.5267C198.86 101.019 198.465 102.142 197.674 102.895C196.884 103.647 195.737 104.023 194.231 104.023ZM194.175 98.4355C194.664 98.4355 195.084 98.3226 195.436 98.0968C195.787 97.871 196.056 97.5512 196.245 97.1373C196.445 96.7108 196.546 96.2091 196.546 95.6321C196.546 94.7666 196.332 94.0893 195.906 93.6001C195.479 93.0983 194.902 92.8475 194.175 92.8475C193.686 92.8475 193.266 92.9604 192.914 93.1861C192.563 93.4119 192.287 93.7318 192.086 94.1457C191.898 94.5596 191.804 95.0551 191.804 95.6321C191.804 96.4976 192.017 97.1812 192.444 97.6829C192.87 98.1846 193.447 98.4355 194.175 98.4355ZM202.463 100.58C202.087 100.58 201.798 100.467 201.598 100.242C201.397 100.016 201.297 99.7023 201.297 99.301V92.3959C201.297 91.982 201.397 91.6684 201.598 91.4552C201.798 91.2294 202.087 91.1165 202.463 91.1165C202.839 91.1165 203.128 91.2294 203.329 91.4552C203.542 91.6684 203.648 91.982 203.648 92.3959V99.301C203.648 99.7023 203.548 100.016 203.347 100.242C203.147 100.467 202.852 100.58 202.463 100.58ZM202.463 89.3667C202.024 89.3667 201.679 89.2601 201.428 89.0469C201.19 88.8211 201.071 88.5138 201.071 88.1249C201.071 87.7236 201.19 87.4163 201.428 87.203C201.679 86.9898 202.024 86.8832 202.463 86.8832C202.915 86.8832 203.26 86.9898 203.498 87.203C203.736 87.4163 203.855 87.7236 203.855 88.1249C203.855 88.5138 203.736 88.8211 203.498 89.0469C203.26 89.2601 202.915 89.3667 202.463 89.3667ZM207.296 100.599C206.908 100.599 206.606 100.499 206.393 100.298C206.193 100.085 206.092 99.7839 206.092 99.395V92.283C206.092 91.8942 206.193 91.5994 206.393 91.3987C206.594 91.198 206.876 91.0977 207.24 91.0977C207.604 91.0977 207.886 91.198 208.087 91.3987C208.287 91.5994 208.388 91.8942 208.388 92.283V93.4684H208.199C208.375 92.7158 208.72 92.1451 209.234 91.7562C209.749 91.3674 210.432 91.1353 211.285 91.0601C211.549 91.035 211.755 91.104 211.906 91.267C212.069 91.4175 212.163 91.6559 212.188 91.982C212.213 92.2956 212.138 92.5527 211.962 92.7534C211.799 92.9415 211.549 93.0544 211.21 93.0921L210.796 93.1297C210.031 93.205 209.454 93.4433 209.065 93.8447C208.676 94.2335 208.482 94.7854 208.482 95.5004V99.395C208.482 99.7839 208.381 100.085 208.181 100.298C207.98 100.499 207.685 100.599 207.296 100.599ZM221.597 100.637C220.932 100.637 220.337 100.511 219.81 100.261C219.296 99.9971 218.888 99.6459 218.587 99.2069C218.298 98.7679 218.154 98.2724 218.154 97.7205C218.154 97.0432 218.33 96.5101 218.681 96.1213C219.032 95.7199 219.603 95.4314 220.393 95.2558C221.183 95.0802 222.243 94.9924 223.573 94.9924H224.514V96.347H223.592C222.814 96.347 222.193 96.3847 221.729 96.4599C221.265 96.5352 220.932 96.6669 220.732 96.855C220.544 97.0306 220.45 97.2815 220.45 97.6076C220.45 98.0216 220.594 98.3602 220.882 98.6236C221.171 98.887 221.572 99.0187 222.086 99.0187C222.5 99.0187 222.864 98.9247 223.178 98.7365C223.504 98.5358 223.761 98.2661 223.949 97.9275C224.137 97.5888 224.231 97.2 224.231 96.761V94.5973C224.231 93.9701 224.093 93.5185 223.817 93.2426C223.541 92.9666 223.077 92.8287 222.425 92.8287C222.061 92.8287 221.666 92.8726 221.24 92.9604C220.826 93.0482 220.387 93.1987 219.923 93.4119C219.684 93.5248 219.471 93.5562 219.283 93.506C219.107 93.4558 218.969 93.3555 218.869 93.205C218.769 93.0419 218.719 92.8663 218.719 92.6781C218.719 92.49 218.769 92.3081 218.869 92.1325C218.969 91.9444 219.139 91.8064 219.377 91.7186C219.954 91.4803 220.506 91.3109 221.033 91.2106C221.572 91.1102 222.061 91.0601 222.5 91.0601C223.403 91.0601 224.144 91.198 224.721 91.474C225.31 91.7499 225.749 92.1701 226.038 92.7346C226.326 93.2865 226.47 94.0014 226.47 94.8795V99.395C226.47 99.7839 226.376 100.085 226.188 100.298C226 100.499 225.73 100.599 225.379 100.599C225.028 100.599 224.752 100.499 224.551 100.298C224.363 100.085 224.269 99.7839 224.269 99.395V98.4919H224.419C224.332 98.9309 224.156 99.3135 223.893 99.6396C223.642 99.9532 223.322 100.198 222.933 100.373C222.544 100.549 222.099 100.637 221.597 100.637ZM230.062 100.599C229.673 100.599 229.372 100.499 229.158 100.298C228.958 100.085 228.857 99.7839 228.857 99.395V92.283C228.857 91.8942 228.958 91.5994 229.158 91.3987C229.359 91.198 229.641 91.0977 230.005 91.0977C230.369 91.0977 230.651 91.198 230.852 91.3987C231.053 91.5994 231.153 91.8942 231.153 92.283V93.4684H230.965C231.14 92.7158 231.485 92.1451 232 91.7562C232.514 91.3674 233.197 91.1353 234.05 91.0601C234.314 91.035 234.521 91.104 234.671 91.267C234.834 91.4175 234.928 91.6559 234.953 91.982C234.979 92.2956 234.903 92.5527 234.728 92.7534C234.565 92.9415 234.314 93.0544 233.975 93.0921L233.561 93.1297C232.796 93.205 232.219 93.4433 231.83 93.8447C231.441 94.2335 231.247 94.7854 231.247 95.5004V99.395C231.247 99.7839 231.147 100.085 230.946 100.298C230.745 100.499 230.45 100.599 230.062 100.599ZM240.331 100.637C239.365 100.637 238.524 100.442 237.809 100.054C237.094 99.6522 236.542 99.0877 236.154 98.3602C235.765 97.6327 235.57 96.7798 235.57 95.8014C235.57 95.0614 235.677 94.4028 235.89 93.8258C236.116 93.2363 236.436 92.7409 236.85 92.3395C237.264 91.9255 237.765 91.612 238.355 91.3987C238.945 91.173 239.603 91.0601 240.331 91.0601C240.744 91.0601 241.19 91.1165 241.666 91.2294C242.156 91.3423 242.613 91.5304 243.04 91.7938C243.241 91.9193 243.372 92.0698 243.435 92.2454C243.498 92.421 243.51 92.6029 243.473 92.791C243.435 92.9666 243.353 93.1234 243.228 93.2614C243.115 93.3868 242.971 93.4684 242.795 93.506C242.62 93.5311 242.425 93.4872 242.212 93.3743C241.936 93.2112 241.654 93.0921 241.365 93.0168C241.077 92.929 240.801 92.8851 240.537 92.8851C240.124 92.8851 239.76 92.9541 239.446 93.0921C239.133 93.2175 238.863 93.4056 238.637 93.6565C238.424 93.8948 238.261 94.1959 238.148 94.5596C238.035 94.9234 237.979 95.3436 237.979 95.8202C237.979 96.7484 238.198 97.4822 238.637 98.0216C239.089 98.5484 239.722 98.8118 240.537 98.8118C240.801 98.8118 241.071 98.7741 241.347 98.6989C241.635 98.6236 241.924 98.5045 242.212 98.3414C242.425 98.2285 242.613 98.1909 242.776 98.2285C242.952 98.2661 243.096 98.354 243.209 98.4919C243.322 98.6174 243.391 98.7741 243.416 98.9623C243.441 99.1379 243.416 99.3135 243.341 99.4891C243.278 99.6647 243.153 99.809 242.965 99.9219C242.551 100.173 242.112 100.355 241.648 100.467C241.183 100.58 240.744 100.637 240.331 100.637ZM246.119 100.599C245.743 100.599 245.455 100.499 245.254 100.298C245.053 100.085 244.953 99.7839 244.953 99.395V88.219C244.953 87.8302 245.053 87.5354 245.254 87.3347C245.455 87.134 245.743 87.0337 246.119 87.0337C246.496 87.0337 246.784 87.134 246.985 87.3347C247.198 87.5354 247.305 87.8302 247.305 88.219V93.0921H247.041C247.317 92.4273 247.744 91.9255 248.321 91.5869C248.91 91.2357 249.575 91.0601 250.315 91.0601C251.055 91.0601 251.664 91.198 252.14 91.474C252.617 91.7499 252.974 92.1701 253.213 92.7346C253.451 93.2865 253.57 93.9889 253.57 94.8418V99.395C253.57 99.7839 253.47 100.085 253.269 100.298C253.068 100.499 252.78 100.599 252.404 100.599C252.027 100.599 251.733 100.499 251.519 100.298C251.319 100.085 251.218 99.7839 251.218 99.395V94.9547C251.218 94.2398 251.08 93.7192 250.804 93.3931C250.541 93.067 250.127 92.9039 249.563 92.9039C248.873 92.9039 248.321 93.1234 247.907 93.5624C247.506 93.9889 247.305 94.5596 247.305 95.2746V99.395C247.305 100.198 246.91 100.599 246.119 100.599ZM257.125 100.58C256.749 100.58 256.461 100.467 256.26 100.242C256.059 100.016 255.959 99.7023 255.959 99.301V92.3959C255.959 91.982 256.059 91.6684 256.26 91.4552C256.461 91.2294 256.749 91.1165 257.125 91.1165C257.502 91.1165 257.79 91.2294 257.991 91.4552C258.204 91.6684 258.311 91.982 258.311 92.3959V99.301C258.311 99.7023 258.21 100.016 258.01 100.242C257.809 100.467 257.514 100.58 257.125 100.58ZM257.125 89.3667C256.686 89.3667 256.341 89.2601 256.091 89.0469C255.852 88.8211 255.733 88.5138 255.733 88.1249C255.733 87.7236 255.852 87.4163 256.091 87.203C256.341 86.9898 256.686 86.8832 257.125 86.8832C257.577 86.8832 257.922 86.9898 258.16 87.203C258.399 87.4163 258.518 87.7236 258.518 88.1249C258.518 88.5138 258.399 88.8211 258.16 89.0469C257.922 89.2601 257.577 89.3667 257.125 89.3667ZM264.48 100.599C264.166 100.599 263.89 100.518 263.652 100.355C263.426 100.192 263.238 99.9407 263.088 99.602L260.096 92.6593C259.983 92.3834 259.939 92.1262 259.964 91.8879C260.002 91.6496 260.115 91.4614 260.303 91.3235C260.504 91.173 260.773 91.0977 261.112 91.0977C261.4 91.0977 261.633 91.1667 261.808 91.3047C261.984 91.4301 262.141 91.6747 262.278 92.0384L264.818 98.379H264.254L266.869 92.0196C267.007 91.6684 267.164 91.4301 267.34 91.3047C267.528 91.1667 267.779 91.0977 268.092 91.0977C268.368 91.0977 268.588 91.173 268.751 91.3235C268.914 91.4614 269.014 91.6496 269.052 91.8879C269.089 92.1137 269.046 92.3646 268.92 92.6405L265.872 99.602C265.734 99.9407 265.546 100.192 265.308 100.355C265.082 100.518 264.806 100.599 264.48 100.599ZM274.688 100.637C273.735 100.637 272.907 100.442 272.205 100.054C271.502 99.6647 270.957 99.1128 270.568 98.3979C270.179 97.6703 269.985 96.8174 269.985 95.839C269.985 95.099 270.091 94.4405 270.304 93.8635C270.53 93.2739 270.85 92.7722 271.264 92.3583C271.678 91.9318 272.173 91.612 272.75 91.3987C273.327 91.173 273.973 91.0601 274.688 91.0601C275.642 91.0601 276.469 91.2545 277.172 91.6433C277.874 92.0322 278.42 92.5841 278.809 93.299C279.198 94.014 279.392 94.8607 279.392 95.839C279.392 96.5791 279.279 97.2439 279.053 97.8334C278.84 98.4229 278.527 98.9309 278.113 99.3574C277.699 99.7713 277.203 100.091 276.626 100.317C276.049 100.53 275.403 100.637 274.688 100.637ZM274.688 98.8494C275.152 98.8494 275.56 98.7365 275.911 98.5107C276.263 98.285 276.532 97.9526 276.72 97.5136C276.921 97.062 277.021 96.5038 277.021 95.839C277.021 94.8356 276.808 94.0893 276.382 93.6001C275.955 93.0983 275.391 92.8475 274.688 92.8475C274.224 92.8475 273.817 92.9604 273.465 93.1861C273.114 93.3994 272.838 93.7318 272.638 94.1833C272.449 94.6223 272.355 95.1742 272.355 95.839C272.355 96.8299 272.569 97.5825 272.995 98.0968C273.421 98.5985 273.986 98.8494 274.688 98.8494Z" fill="white"/>
<path d="M320.613 100.449H319.012L312.504 90.4206H312.439C312.455 90.6874 312.474 90.9923 312.496 91.3352C312.518 91.6728 312.534 92.0348 312.545 92.4213C312.561 92.8024 312.569 93.1917 312.569 93.5891V100.449H311.279V88.5097H312.871L319.355 98.5051H319.413C319.402 98.3146 319.388 98.0451 319.372 97.6967C319.355 97.3428 319.339 96.9644 319.323 96.5616C319.312 96.1533 319.306 95.7749 319.306 95.4265V88.5097H320.613V100.449ZM331.384 95.9573C331.384 96.6922 331.289 97.3482 331.098 97.9253C330.908 98.5024 330.633 98.9896 330.274 99.3871C329.914 99.7845 329.479 100.089 328.967 100.302C328.461 100.509 327.886 100.612 327.244 100.612C326.645 100.612 326.095 100.509 325.594 100.302C325.099 100.089 324.669 99.7845 324.304 99.3871C323.945 98.9896 323.664 98.5024 323.463 97.9253C323.267 97.3482 323.169 96.6922 323.169 95.9573C323.169 94.9773 323.335 94.1444 323.667 93.4584C323.999 92.767 324.473 92.2417 325.088 91.8824C325.709 91.5176 326.446 91.3352 327.301 91.3352C328.118 91.3352 328.831 91.5176 329.441 91.8824C330.056 92.2471 330.532 92.7752 330.87 93.4666C331.213 94.1526 331.384 94.9828 331.384 95.9573ZM324.574 95.9573C324.574 96.6759 324.669 97.2993 324.859 97.8273C325.05 98.3554 325.344 98.7637 325.741 99.0523C326.139 99.3408 326.65 99.4851 327.277 99.4851C327.897 99.4851 328.406 99.3408 328.804 99.0523C329.207 98.7637 329.503 98.3554 329.694 97.8273C329.884 97.2993 329.98 96.6759 329.98 95.9573C329.98 95.2441 329.884 94.6289 329.694 94.1117C329.503 93.5891 329.209 93.1862 328.812 92.9031C328.414 92.62 327.9 92.4785 327.268 92.4785C326.337 92.4785 325.654 92.7861 325.219 93.4013C324.789 94.0165 324.574 94.8685 324.574 95.9573ZM343.862 97.9988C343.862 98.5705 343.718 99.0523 343.429 99.4442C343.146 99.8308 342.738 100.122 342.204 100.318C341.676 100.514 341.045 100.612 340.31 100.612C339.684 100.612 339.142 100.563 338.685 100.465C338.227 100.367 337.827 100.228 337.484 100.049V98.7991C337.849 98.9788 338.285 99.1421 338.791 99.2891C339.297 99.4361 339.814 99.5096 340.342 99.5096C341.115 99.5096 341.676 99.3843 342.025 99.1339C342.373 98.8835 342.547 98.5432 342.547 98.1131C342.547 97.8682 342.477 97.6531 342.335 97.468C342.199 97.2775 341.967 97.0951 341.641 96.9209C341.314 96.7412 340.862 96.5452 340.285 96.3329C339.714 96.1152 339.218 95.9001 338.799 95.6878C338.385 95.47 338.064 95.206 337.835 94.8957C337.612 94.5854 337.501 94.1825 337.501 93.6871C337.501 92.9304 337.805 92.3506 338.415 91.9477C339.03 91.5394 339.836 91.3352 340.832 91.3352C341.371 91.3352 341.875 91.3897 342.343 91.4986C342.817 91.602 343.258 91.7435 343.666 91.9232L343.209 93.0093C342.839 92.8514 342.444 92.718 342.025 92.6092C341.605 92.5003 341.178 92.4458 340.743 92.4458C340.116 92.4458 339.635 92.5493 339.297 92.7561C338.965 92.963 338.799 93.2461 338.799 93.6054C338.799 93.8831 338.875 94.1117 339.028 94.2914C339.186 94.471 339.436 94.6398 339.779 94.7977C340.122 94.9556 340.574 95.1407 341.135 95.353C341.695 95.5599 342.18 95.7749 342.588 95.9981C342.996 96.2159 343.309 96.4826 343.527 96.7984C343.75 97.1087 343.862 97.5089 343.862 97.9988ZM349.489 91.3352C350.251 91.3352 350.904 91.504 351.448 91.8415C351.993 92.1791 352.409 92.6527 352.698 93.2624C352.986 93.8667 353.131 94.5745 353.131 95.3856V96.2268H346.949C346.965 97.2775 347.227 98.0778 347.733 98.6276C348.239 99.1775 348.952 99.4524 349.872 99.4524C350.439 99.4524 350.939 99.4007 351.375 99.2972C351.81 99.1938 352.262 99.0414 352.731 98.8399V100.032C352.279 100.234 351.83 100.381 351.383 100.473C350.942 100.566 350.419 100.612 349.815 100.612C348.955 100.612 348.204 100.438 347.561 100.089C346.924 99.7355 346.429 99.2183 346.075 98.5378C345.721 97.8573 345.544 97.0243 345.544 96.0389C345.544 95.0753 345.705 94.2424 346.026 93.5401C346.353 92.8324 346.81 92.2879 347.398 91.9069C347.991 91.5258 348.688 91.3352 349.489 91.3352ZM349.472 92.4458C348.748 92.4458 348.171 92.6826 347.741 93.1563C347.311 93.6299 347.055 94.2914 346.973 95.1407H351.71C351.704 94.6071 351.62 94.1389 351.457 93.7361C351.299 93.3278 351.056 93.012 350.73 92.7888C350.403 92.5602 349.984 92.4458 349.472 92.4458ZM363.224 91.3352C363.986 91.3352 364.639 91.504 365.184 91.8415C365.728 92.1791 366.145 92.6527 366.433 93.2624C366.722 93.8667 366.866 94.5745 366.866 95.3856V96.2268H360.684C360.701 97.2775 360.962 98.0778 361.468 98.6276C361.975 99.1775 362.688 99.4524 363.608 99.4524C364.174 99.4524 364.675 99.4007 365.11 99.2972C365.546 99.1938 365.998 99.0414 366.466 98.8399V100.032C366.014 100.234 365.565 100.381 365.119 100.473C364.678 100.566 364.155 100.612 363.551 100.612C362.691 100.612 361.939 100.438 361.297 100.089C360.66 99.7355 360.164 99.2183 359.811 98.5378C359.457 97.8573 359.28 97.0243 359.28 96.0389C359.28 95.0753 359.44 94.2424 359.762 93.5401C360.088 92.8324 360.546 92.2879 361.133 91.9069C361.727 91.5258 362.424 91.3352 363.224 91.3352ZM363.208 92.4458C362.484 92.4458 361.907 92.6826 361.476 93.1563C361.046 93.6299 360.791 94.2914 360.709 95.1407H365.445C365.44 94.6071 365.355 94.1389 365.192 93.7361C365.034 93.3278 364.792 93.012 364.465 92.7888C364.139 92.5602 363.719 92.4458 363.208 92.4458ZM370.533 100.449H369.169V87.7421H370.533V100.449ZM374.755 91.4986V100.449H373.399V91.4986H374.755ZM374.093 88.1504C374.316 88.1504 374.507 88.2239 374.665 88.3709C374.828 88.5125 374.91 88.7357 374.91 89.0405C374.91 89.34 374.828 89.5632 374.665 89.7102C374.507 89.8572 374.316 89.9306 374.093 89.9306C373.859 89.9306 373.663 89.8572 373.505 89.7102C373.353 89.5632 373.277 89.34 373.277 89.0405C373.277 88.7357 373.353 88.5125 373.505 88.3709C373.663 88.2239 373.859 88.1504 374.093 88.1504ZM380.128 104.466C378.952 104.466 378.046 104.246 377.409 103.805C376.772 103.369 376.453 102.757 376.453 101.968C376.453 101.407 376.63 100.928 376.984 100.53C377.343 100.133 377.839 99.8689 378.47 99.7382C378.236 99.6293 378.035 99.466 377.866 99.2482C377.703 99.0305 377.621 98.78 377.621 98.497C377.621 98.1703 377.711 97.8845 377.89 97.6395C378.076 97.3891 378.356 97.1495 378.732 96.9209C378.263 96.7303 377.882 96.4091 377.588 95.9573C377.3 95.5 377.155 94.9692 377.155 94.3649C377.155 93.7225 377.289 93.1753 377.556 92.7235C377.822 92.2662 378.209 91.9177 378.715 91.6782C379.222 91.4387 379.834 91.3189 380.553 91.3189C380.711 91.3189 380.868 91.3271 381.026 91.3434C381.19 91.3543 381.345 91.3733 381.492 91.4006C381.639 91.4223 381.767 91.4496 381.876 91.4822H384.946V92.356L383.296 92.5602C383.46 92.7725 383.596 93.0283 383.705 93.3278C383.814 93.6272 383.868 93.9593 383.868 94.324C383.868 95.2169 383.566 95.9273 382.962 96.4554C382.357 96.978 381.527 97.2394 380.471 97.2394C380.221 97.2394 379.965 97.2176 379.703 97.174C379.437 97.321 379.232 97.4844 379.091 97.664C378.955 97.8437 378.887 98.0505 378.887 98.2846C378.887 98.4588 378.938 98.5977 379.042 98.7011C379.151 98.8045 379.306 98.8808 379.507 98.9298C379.709 98.9733 379.951 98.9951 380.234 98.9951H381.81C382.785 98.9951 383.531 99.1992 384.048 99.6076C384.57 100.016 384.832 100.612 384.832 101.396C384.832 102.387 384.429 103.146 383.623 103.674C382.817 104.202 381.652 104.466 380.128 104.466ZM380.169 103.405C380.909 103.405 381.522 103.329 382.006 103.176C382.496 103.029 382.861 102.814 383.1 102.531C383.345 102.253 383.468 101.921 383.468 101.535C383.468 101.175 383.386 100.903 383.223 100.718C383.06 100.538 382.82 100.419 382.504 100.359C382.189 100.294 381.802 100.261 381.345 100.261H379.793C379.39 100.261 379.039 100.323 378.74 100.449C378.44 100.574 378.209 100.759 378.046 101.004C377.888 101.249 377.809 101.554 377.809 101.919C377.809 102.403 378.013 102.771 378.421 103.021C378.83 103.277 379.412 103.405 380.169 103.405ZM380.52 96.2513C381.168 96.2513 381.655 96.0879 381.982 95.7613C382.308 95.4346 382.472 94.9583 382.472 94.3322C382.472 93.6626 382.306 93.1617 381.974 92.8296C381.641 92.4921 381.151 92.3233 380.504 92.3233C379.883 92.3233 379.404 92.4975 379.066 92.846C378.734 93.1889 378.568 93.6925 378.568 94.3567C378.568 94.9665 378.737 95.4346 379.075 95.7613C379.412 96.0879 379.894 96.2513 380.52 96.2513ZM388.065 91.4986V100.449H386.71V91.4986H388.065ZM387.404 88.1504C387.627 88.1504 387.818 88.2239 387.976 88.3709C388.139 88.5125 388.221 88.7357 388.221 89.0405C388.221 89.34 388.139 89.5632 387.976 89.7102C387.818 89.8572 387.627 89.9306 387.404 89.9306C387.17 89.9306 386.974 89.8572 386.816 89.7102C386.664 89.5632 386.587 89.34 386.587 89.0405C386.587 88.7357 386.664 88.5125 386.816 88.3709C386.974 88.2239 387.17 88.1504 387.404 88.1504ZM398.657 95.9573C398.657 96.6922 398.562 97.3482 398.371 97.9253C398.181 98.5024 397.906 98.9896 397.546 99.3871C397.187 99.7845 396.752 100.089 396.24 100.302C395.734 100.509 395.159 100.612 394.517 100.612C393.918 100.612 393.368 100.509 392.867 100.302C392.372 100.089 391.942 99.7845 391.577 99.3871C391.218 98.9896 390.937 98.5024 390.736 97.9253C390.54 97.3482 390.442 96.6922 390.442 95.9573C390.442 94.9773 390.608 94.1444 390.94 93.4584C391.272 92.767 391.746 92.2417 392.361 91.8824C392.982 91.5176 393.719 91.3352 394.574 91.3352C395.391 91.3352 396.104 91.5176 396.713 91.8824C397.329 92.2471 397.805 92.7752 398.143 93.4666C398.486 94.1526 398.657 94.9828 398.657 95.9573ZM391.846 95.9573C391.846 96.6759 391.942 97.2993 392.132 97.8273C392.323 98.3554 392.617 98.7637 393.014 99.0523C393.412 99.3408 393.923 99.4851 394.549 99.4851C395.17 99.4851 395.679 99.3408 396.077 99.0523C396.479 98.7637 396.776 98.3554 396.967 97.8273C397.157 97.2993 397.252 96.6759 397.252 95.9573C397.252 95.2441 397.157 94.6289 396.967 94.1117C396.776 93.5891 396.482 93.1862 396.085 92.9031C395.687 92.62 395.173 92.4785 394.541 92.4785C393.61 92.4785 392.927 92.7861 392.492 93.4013C392.061 94.0165 391.846 94.8685 391.846 95.9573ZM396.918 87.636V87.7993C396.809 87.9572 396.659 88.1477 396.468 88.3709C396.283 88.5887 396.077 88.8201 395.848 89.065C395.619 89.3046 395.388 89.5332 395.154 89.751C394.925 89.9688 394.713 90.1566 394.517 90.3145H393.61V90.1185C393.785 89.9116 393.975 89.6639 394.182 89.3753C394.389 89.0814 394.59 88.7819 394.786 88.4771C394.982 88.1668 395.146 87.8864 395.276 87.636H396.918ZM409.583 91.3352C410.645 91.3352 411.448 91.5965 411.992 92.1192C412.537 92.6364 412.809 93.4693 412.809 94.618V100.449H411.47V94.7079C411.47 93.962 411.298 93.404 410.955 93.0338C410.618 92.6636 410.098 92.4785 409.396 92.4785C408.405 92.4785 407.708 92.7589 407.305 93.3196C406.902 93.8804 406.701 94.6942 406.701 95.7613V100.449H405.345V91.4986H406.439L406.644 92.7888H406.717C406.908 92.473 407.15 92.209 407.444 91.9967C407.738 91.7789 408.067 91.6156 408.432 91.5067C408.797 91.3924 409.18 91.3352 409.583 91.3352ZM416.957 91.4986V100.449H415.602V91.4986H416.957ZM416.296 88.1504C416.519 88.1504 416.71 88.2239 416.868 88.3709C417.031 88.5125 417.113 88.7357 417.113 89.0405C417.113 89.34 417.031 89.5632 416.868 89.7102C416.71 89.8572 416.519 89.9306 416.296 89.9306C416.062 89.9306 415.866 89.8572 415.708 89.7102C415.556 89.5632 415.479 89.34 415.479 89.0405C415.479 88.7357 415.556 88.5125 415.708 88.3709C415.866 88.2239 416.062 88.1504 416.296 88.1504ZM424.07 91.3352C425.132 91.3352 425.935 91.5965 426.479 92.1192C427.024 92.6364 427.296 93.4693 427.296 94.618V100.449H425.957V94.7079C425.957 93.962 425.785 93.404 425.442 93.0338C425.105 92.6636 424.585 92.4785 423.882 92.4785C422.891 92.4785 422.195 92.7589 421.792 93.3196C421.389 93.8804 421.187 94.6942 421.187 95.7613V100.449H419.832V91.4986H420.926L421.13 92.7888H421.204C421.394 92.473 421.637 92.209 421.931 91.9967C422.225 91.7789 422.554 91.6156 422.919 91.5067C423.283 91.3924 423.667 91.3352 424.07 91.3352ZM432.587 104.466C431.411 104.466 430.505 104.246 429.868 103.805C429.231 103.369 428.913 102.757 428.913 101.968C428.913 101.407 429.09 100.928 429.443 100.53C429.803 100.133 430.298 99.8689 430.93 99.7382C430.696 99.6293 430.494 99.466 430.325 99.2482C430.162 99.0305 430.08 98.78 430.08 98.497C430.08 98.1703 430.17 97.8845 430.35 97.6395C430.535 97.3891 430.815 97.1495 431.191 96.9209C430.723 96.7303 430.342 96.4091 430.048 95.9573C429.759 95.5 429.615 94.9692 429.615 94.3649C429.615 93.7225 429.748 93.1753 430.015 92.7235C430.282 92.2662 430.668 91.9177 431.175 91.6782C431.681 91.4387 432.293 91.3189 433.012 91.3189C433.17 91.3189 433.328 91.3271 433.486 91.3434C433.649 91.3543 433.804 91.3733 433.951 91.4006C434.098 91.4223 434.226 91.4496 434.335 91.4822H437.405V92.356L435.756 92.5602C435.919 92.7725 436.055 93.0283 436.164 93.3278C436.273 93.6272 436.328 93.9593 436.328 94.324C436.328 95.2169 436.025 95.9273 435.421 96.4554C434.817 96.978 433.987 97.2394 432.93 97.2394C432.68 97.2394 432.424 97.2176 432.163 97.174C431.896 97.321 431.692 97.4844 431.55 97.664C431.414 97.8437 431.346 98.0505 431.346 98.2846C431.346 98.4588 431.398 98.5977 431.501 98.7011C431.61 98.8045 431.765 98.8808 431.967 98.9298C432.168 98.9733 432.41 98.9951 432.694 98.9951H434.27C435.244 98.9951 435.99 99.1992 436.507 99.6076C437.03 100.016 437.291 100.612 437.291 101.396C437.291 102.387 436.888 103.146 436.083 103.674C435.277 104.202 434.112 104.466 432.587 104.466ZM432.628 103.405C433.369 103.405 433.981 103.329 434.466 103.176C434.956 103.029 435.32 102.814 435.56 102.531C435.805 102.253 435.927 101.921 435.927 101.535C435.927 101.175 435.846 100.903 435.682 100.718C435.519 100.538 435.28 100.419 434.964 100.359C434.648 100.294 434.261 100.261 433.804 100.261H432.253C431.85 100.261 431.499 100.323 431.199 100.449C430.9 100.574 430.668 100.759 430.505 101.004C430.347 101.249 430.268 101.554 430.268 101.919C430.268 102.403 430.472 102.771 430.881 103.021C431.289 103.277 431.872 103.405 432.628 103.405ZM432.979 96.2513C433.627 96.2513 434.114 96.0879 434.441 95.7613C434.768 95.4346 434.931 94.9583 434.931 94.3322C434.931 93.6626 434.765 93.1617 434.433 92.8296C434.101 92.4921 433.611 92.3233 432.963 92.3233C432.342 92.3233 431.863 92.4975 431.526 92.846C431.194 93.1889 431.028 93.6925 431.028 94.3567C431.028 94.9665 431.196 95.4346 431.534 95.7613C431.872 96.0879 432.353 96.2513 432.979 96.2513ZM446.56 91.4986V100.449H445.449L445.253 99.1911H445.18C444.995 99.5014 444.755 99.7627 444.461 99.975C444.167 100.187 443.835 100.345 443.465 100.449C443.1 100.558 442.711 100.612 442.297 100.612C441.589 100.612 440.996 100.498 440.517 100.269C440.038 100.04 439.676 99.6865 439.431 99.2074C439.191 98.7283 439.071 98.1131 439.071 97.3619V91.4986H440.443V97.2639C440.443 98.0097 440.612 98.5677 440.95 98.9379C441.287 99.3027 441.802 99.4851 442.493 99.4851C443.157 99.4851 443.685 99.3598 444.077 99.1094C444.475 98.859 444.76 98.4915 444.935 98.007C445.109 97.517 445.196 96.9182 445.196 96.2104V91.4986H446.56ZM453.664 91.3352C454.726 91.3352 455.529 91.5965 456.073 92.1192C456.618 92.6364 456.89 93.4693 456.89 94.618V100.449H455.551V94.7079C455.551 93.962 455.379 93.404 455.036 93.0338C454.699 92.6636 454.179 92.4785 453.476 92.4785C452.486 92.4785 451.789 92.7589 451.386 93.3196C450.983 93.8804 450.782 94.6942 450.782 95.7613V100.449H449.426V91.4986H450.52L450.724 92.7888H450.798C450.989 92.473 451.231 92.209 451.525 91.9967C451.819 91.7789 452.148 91.6156 452.513 91.5067C452.878 91.3924 453.261 91.3352 453.664 91.3352ZM467.375 91.3516C468.442 91.3516 469.234 91.5911 469.752 92.0702C470.269 92.5493 470.527 93.3142 470.527 94.3649V100.449H469.539L469.278 99.1258H469.213C468.962 99.4524 468.701 99.7273 468.429 99.9505C468.157 100.168 467.841 100.334 467.481 100.449C467.128 100.558 466.692 100.612 466.175 100.612C465.63 100.612 465.146 100.517 464.721 100.326C464.302 100.136 463.97 99.8471 463.725 99.4606C463.485 99.074 463.366 98.5841 463.366 97.9907C463.366 97.0978 463.72 96.4119 464.427 95.9328C465.135 95.4537 466.213 95.1924 467.661 95.1488L469.205 95.0835V94.5364C469.205 93.7633 469.038 93.2216 468.706 92.9113C468.374 92.601 467.906 92.4458 467.302 92.4458C466.834 92.4458 466.387 92.5139 465.963 92.65C465.538 92.7861 465.135 92.9467 464.754 93.1318L464.337 92.1028C464.74 91.896 465.203 91.719 465.726 91.572C466.248 91.4251 466.798 91.3516 467.375 91.3516ZM469.188 96.0389L467.824 96.0961C466.708 96.1397 465.922 96.322 465.464 96.6432C465.007 96.9644 464.778 97.419 464.778 98.007C464.778 98.5187 464.934 98.8971 465.244 99.1421C465.554 99.3871 465.965 99.5096 466.477 99.5096C467.272 99.5096 467.922 99.2891 468.429 98.8481C468.935 98.4071 469.188 97.7457 469.188 96.8637V96.0389ZM477.387 91.3352C477.567 91.3352 477.754 91.3461 477.95 91.3679C478.146 91.3842 478.321 91.4087 478.473 91.4414L478.302 92.699C478.155 92.6609 477.991 92.6309 477.812 92.6092C477.632 92.5874 477.463 92.5765 477.305 92.5765C476.946 92.5765 476.606 92.65 476.285 92.797C475.969 92.9385 475.691 93.1454 475.452 93.4176C475.212 93.6844 475.024 94.0083 474.888 94.3894C474.752 94.765 474.684 95.1842 474.684 95.647V100.449H473.32V91.4986H474.447L474.594 93.1481H474.651C474.836 92.816 475.06 92.5139 475.321 92.2417C475.582 91.964 475.884 91.7435 476.227 91.5802C476.576 91.4169 476.962 91.3352 477.387 91.3352ZM483.748 100.612C482.943 100.612 482.232 100.446 481.617 100.114C481.002 99.7818 480.523 99.2755 480.18 98.5949C479.837 97.9144 479.665 97.057 479.665 96.0226C479.665 94.9392 479.845 94.0546 480.204 93.3686C480.569 92.6772 481.07 92.1655 481.707 91.8334C482.344 91.5013 483.068 91.3352 483.879 91.3352C484.326 91.3352 484.756 91.3815 485.169 91.4741C485.589 91.5612 485.932 91.6728 486.198 91.8089L485.79 92.944C485.518 92.8351 485.202 92.7371 484.843 92.65C484.489 92.5629 484.157 92.5193 483.846 92.5193C483.226 92.5193 482.709 92.6527 482.295 92.9195C481.887 93.1862 481.579 93.5782 481.372 94.0954C481.171 94.6126 481.07 95.2495 481.07 96.0063C481.07 96.7303 481.168 97.3482 481.364 97.86C481.565 98.3717 481.862 98.7637 482.254 99.0359C482.651 99.3027 483.147 99.4361 483.74 99.4361C484.214 99.4361 484.641 99.3871 485.022 99.2891C485.403 99.1856 485.749 99.0659 486.059 98.9298V100.138C485.76 100.291 485.425 100.408 485.055 100.49C484.69 100.571 484.255 100.612 483.748 100.612ZM489.538 87.7421V91.5394C489.538 91.7571 489.533 91.9776 489.522 92.2008C489.511 92.4186 489.492 92.62 489.465 92.8051H489.555C489.74 92.4894 489.974 92.2253 490.257 92.013C490.545 91.7953 490.872 91.6319 491.237 91.5231C491.602 91.4087 491.988 91.3516 492.396 91.3516C493.115 91.3516 493.714 91.4659 494.193 91.6945C494.678 91.9232 495.04 92.2771 495.279 92.7561C495.524 93.2352 495.647 93.8559 495.647 94.618V100.449H494.307V94.7079C494.307 93.962 494.136 93.404 493.793 93.0338C493.455 92.6636 492.935 92.4785 492.233 92.4785C491.569 92.4785 491.038 92.6064 490.641 92.8623C490.249 93.1127 489.966 93.4829 489.791 93.9729C489.623 94.4629 489.538 95.0617 489.538 95.7695V100.449H488.183V87.7421H489.538ZM499.795 91.4986V100.449H498.439V91.4986H499.795ZM499.134 88.1504C499.357 88.1504 499.547 88.2239 499.705 88.3709C499.868 88.5125 499.95 88.7357 499.95 89.0405C499.95 89.34 499.868 89.5632 499.705 89.7102C499.547 89.8572 499.357 89.9306 499.134 89.9306C498.899 89.9306 498.703 89.8572 498.546 89.7102C498.393 89.5632 498.317 89.34 498.317 89.0405C498.317 88.7357 498.393 88.5125 498.546 88.3709C498.703 88.2239 498.899 88.1504 499.134 88.1504ZM504.637 100.449L501.24 91.4986H502.694L504.662 96.9127C504.798 97.2829 504.937 97.6912 505.078 98.1376C505.22 98.5841 505.318 98.9434 505.372 99.2156H505.43C505.495 98.9434 505.604 98.5841 505.756 98.1376C505.909 97.6858 506.048 97.2775 506.173 96.9127L508.141 91.4986H509.594L506.189 100.449H504.637ZM518.749 95.9573C518.749 96.6922 518.653 97.3482 518.463 97.9253C518.272 98.5024 517.997 98.9896 517.638 99.3871C517.279 99.7845 516.843 100.089 516.331 100.302C515.825 100.509 515.251 100.612 514.608 100.612C514.01 100.612 513.46 100.509 512.959 100.302C512.463 100.089 512.033 99.7845 511.669 99.3871C511.309 98.9896 511.029 98.5024 510.827 97.9253C510.631 97.3482 510.533 96.6922 510.533 95.9573C510.533 94.9773 510.7 94.1444 511.032 93.4584C511.364 92.767 511.837 92.2417 512.453 91.8824C513.073 91.5176 513.811 91.3352 514.666 91.3352C515.482 91.3352 516.195 91.5176 516.805 91.8824C517.42 92.2471 517.897 92.7752 518.234 93.4666C518.577 94.1526 518.749 94.9828 518.749 95.9573ZM511.938 95.9573C511.938 96.6759 512.033 97.2993 512.224 97.8273C512.414 98.3554 512.708 98.7637 513.106 99.0523C513.503 99.3408 514.015 99.4851 514.641 99.4851C515.262 99.4851 515.771 99.3408 516.168 99.0523C516.571 98.7637 516.868 98.3554 517.058 97.8273C517.249 97.2993 517.344 96.6759 517.344 95.9573C517.344 95.2441 517.249 94.6289 517.058 94.1117C516.868 93.5891 516.574 93.1862 516.176 92.9031C515.779 92.62 515.264 92.4785 514.633 92.4785C513.702 92.4785 513.019 92.7861 512.583 93.4013C512.153 94.0165 511.938 94.8685 511.938 95.9573Z" fill="#5C6A7A"/>
</g>
<rect x="141.518" y="70.4075" width="460.964" height="48.0824" rx="7.31688" stroke="#101E37" stroke-width="2.09054"/>
<rect x="141" y="41" width="168.835" height="18.2524" rx="4.56311" fill="#E6EBF0"/>
<rect x="141" y="128" width="463" height="18" rx="4.56311" fill="#E6EBF0"/>
<rect x="141" y="154" width="264" height="18" rx="4.56311" fill="#E6EBF0"/>
<defs>
<clipPath id="clip0_3496_1364">
<rect x="140.473" y="69.3622" width="463.054" height="50.1729" rx="8.36215" fill="white"/>
</clipPath>
</defs>
</svg>
