<svg width="728" height="232" viewBox="0 0 728 232" fill="none" xmlns="http://www.w3.org/2000/svg">
<rect x="1" y="1" width="726" height="230" rx="7" fill="#F3F6F9"/>
<rect x="1" y="1" width="726" height="230" rx="7" stroke="#E6EBF0" stroke-width="2"/>
<path d="M298.825 113.917H297.5V109.75C297.5 109.292 297.125 108.917 296.667 108.917H293.333C292.875 108.917 292.5 109.292 292.5 109.75V113.917H291.175C290.433 113.917 290.058 114.817 290.583 115.342L294.408 119.167C294.733 119.492 295.258 119.492 295.583 119.167L299.408 115.342C299.933 114.817 299.567 113.917 298.825 113.917ZM289.167 122.25C289.167 122.709 289.542 123.084 290 123.084H300C300.458 123.084 300.833 122.709 300.833 122.25C300.833 121.792 300.458 121.417 300 121.417H290C289.542 121.417 289.167 121.792 289.167 122.25Z" fill="#336ACC"/>
<path d="M312.07 122H310.734V111.75H307.141V110.578H315.648V111.75H312.07V122ZM320.477 113.281C321.206 113.281 321.831 113.443 322.352 113.766C322.872 114.089 323.271 114.542 323.547 115.125C323.823 115.703 323.961 116.38 323.961 117.156V117.961H318.047C318.062 118.966 318.312 119.732 318.797 120.258C319.281 120.784 319.964 121.047 320.844 121.047C321.385 121.047 321.865 120.997 322.281 120.898C322.698 120.799 323.13 120.654 323.578 120.461V121.602C323.146 121.794 322.716 121.935 322.289 122.023C321.867 122.112 321.367 122.156 320.789 122.156C319.966 122.156 319.247 121.99 318.633 121.656C318.023 121.318 317.549 120.823 317.211 120.172C316.872 119.521 316.703 118.724 316.703 117.781C316.703 116.859 316.857 116.062 317.164 115.391C317.477 114.714 317.914 114.193 318.477 113.828C319.044 113.464 319.711 113.281 320.477 113.281ZM320.461 114.344C319.768 114.344 319.216 114.57 318.805 115.023C318.393 115.477 318.148 116.109 318.07 116.922H322.602C322.596 116.411 322.516 115.964 322.359 115.578C322.208 115.188 321.977 114.885 321.664 114.672C321.352 114.453 320.951 114.344 320.461 114.344ZM328.203 117.617L325.242 113.438H326.727L328.984 116.734L331.234 113.438H332.703L329.742 117.617L332.867 122H331.383L328.984 118.508L326.57 122H325.102L328.203 117.617ZM337.305 121.094C337.518 121.094 337.737 121.076 337.961 121.039C338.185 121.003 338.367 120.958 338.508 120.906V121.914C338.357 121.982 338.146 122.039 337.875 122.086C337.609 122.133 337.349 122.156 337.094 122.156C336.641 122.156 336.229 122.078 335.859 121.922C335.49 121.76 335.193 121.49 334.969 121.109C334.75 120.729 334.641 120.203 334.641 119.531V114.453H333.422V113.82L334.648 113.312L335.164 111.453H335.945V113.438H338.453V114.453H335.945V119.492C335.945 120.029 336.068 120.43 336.312 120.695C336.562 120.961 336.893 121.094 337.305 121.094ZM347.625 117.703C347.625 118.406 347.534 119.034 347.352 119.586C347.169 120.138 346.906 120.604 346.562 120.984C346.219 121.365 345.802 121.656 345.312 121.859C344.828 122.057 344.279 122.156 343.664 122.156C343.091 122.156 342.565 122.057 342.086 121.859C341.612 121.656 341.201 121.365 340.852 120.984C340.508 120.604 340.24 120.138 340.047 119.586C339.859 119.034 339.766 118.406 339.766 117.703C339.766 116.766 339.924 115.969 340.242 115.312C340.56 114.651 341.013 114.148 341.602 113.805C342.195 113.456 342.901 113.281 343.719 113.281C344.5 113.281 345.182 113.456 345.766 113.805C346.354 114.154 346.81 114.659 347.133 115.32C347.461 115.977 347.625 116.771 347.625 117.703ZM341.109 117.703C341.109 118.391 341.201 118.987 341.383 119.492C341.565 119.997 341.846 120.388 342.227 120.664C342.607 120.94 343.096 121.078 343.695 121.078C344.289 121.078 344.776 120.94 345.156 120.664C345.542 120.388 345.826 119.997 346.008 119.492C346.19 118.987 346.281 118.391 346.281 117.703C346.281 117.021 346.19 116.432 346.008 115.938C345.826 115.438 345.544 115.052 345.164 114.781C344.784 114.51 344.292 114.375 343.688 114.375C342.797 114.375 342.143 114.669 341.727 115.258C341.315 115.846 341.109 116.661 341.109 117.703ZM357.07 122.156C355.987 122.156 355.128 121.786 354.492 121.047C353.862 120.307 353.547 119.208 353.547 117.75C353.547 116.276 353.87 115.164 354.516 114.414C355.161 113.659 356.021 113.281 357.094 113.281C357.547 113.281 357.943 113.341 358.281 113.461C358.62 113.581 358.911 113.742 359.156 113.945C359.401 114.143 359.607 114.37 359.773 114.625H359.867C359.846 114.464 359.826 114.242 359.805 113.961C359.784 113.68 359.773 113.451 359.773 113.273V109.844H361.07V122H360.023L359.828 120.781H359.773C359.612 121.036 359.406 121.268 359.156 121.477C358.911 121.685 358.617 121.852 358.273 121.977C357.935 122.096 357.534 122.156 357.07 122.156ZM357.273 121.078C358.19 121.078 358.839 120.818 359.219 120.297C359.599 119.776 359.789 119.003 359.789 117.977V117.742C359.789 116.654 359.607 115.818 359.242 115.234C358.883 114.651 358.227 114.359 357.273 114.359C356.477 114.359 355.88 114.667 355.484 115.281C355.089 115.891 354.891 116.724 354.891 117.781C354.891 118.833 355.086 119.646 355.477 120.219C355.872 120.792 356.471 121.078 357.273 121.078ZM367.117 113.281C367.846 113.281 368.471 113.443 368.992 113.766C369.513 114.089 369.911 114.542 370.188 115.125C370.464 115.703 370.602 116.38 370.602 117.156V117.961H364.688C364.703 118.966 364.953 119.732 365.438 120.258C365.922 120.784 366.604 121.047 367.484 121.047C368.026 121.047 368.505 120.997 368.922 120.898C369.339 120.799 369.771 120.654 370.219 120.461V121.602C369.786 121.794 369.357 121.935 368.93 122.023C368.508 122.112 368.008 122.156 367.43 122.156C366.607 122.156 365.888 121.99 365.273 121.656C364.664 121.318 364.19 120.823 363.852 120.172C363.513 119.521 363.344 118.724 363.344 117.781C363.344 116.859 363.497 116.062 363.805 115.391C364.117 114.714 364.555 114.193 365.117 113.828C365.685 113.464 366.352 113.281 367.117 113.281ZM367.102 114.344C366.409 114.344 365.857 114.57 365.445 115.023C365.034 115.477 364.789 116.109 364.711 116.922H369.242C369.237 116.411 369.156 115.964 369 115.578C368.849 115.188 368.617 114.885 368.305 114.672C367.992 114.453 367.591 114.344 367.102 114.344ZM374.109 122H372.805V109.844H374.109V122ZM384.305 113.281C385.034 113.281 385.659 113.443 386.18 113.766C386.701 114.089 387.099 114.542 387.375 115.125C387.651 115.703 387.789 116.38 387.789 117.156V117.961H381.875C381.891 118.966 382.141 119.732 382.625 120.258C383.109 120.784 383.792 121.047 384.672 121.047C385.214 121.047 385.693 120.997 386.109 120.898C386.526 120.799 386.958 120.654 387.406 120.461V121.602C386.974 121.794 386.544 121.935 386.117 122.023C385.695 122.112 385.195 122.156 384.617 122.156C383.794 122.156 383.076 121.99 382.461 121.656C381.852 121.318 381.378 120.823 381.039 120.172C380.701 119.521 380.531 118.724 380.531 117.781C380.531 116.859 380.685 116.062 380.992 115.391C381.305 114.714 381.742 114.193 382.305 113.828C382.872 113.464 383.539 113.281 384.305 113.281ZM384.289 114.344C383.596 114.344 383.044 114.57 382.633 115.023C382.221 115.477 381.977 116.109 381.898 116.922H386.43C386.424 116.411 386.344 115.964 386.188 115.578C386.036 115.188 385.805 114.885 385.492 114.672C385.18 114.453 384.779 114.344 384.289 114.344ZM394.047 113.281C395.062 113.281 395.831 113.531 396.352 114.031C396.872 114.526 397.133 115.323 397.133 116.422V122H395.852V116.508C395.852 115.794 395.688 115.26 395.359 114.906C395.036 114.552 394.539 114.375 393.867 114.375C392.919 114.375 392.253 114.643 391.867 115.18C391.482 115.716 391.289 116.495 391.289 117.516V122H389.992V113.438H391.039L391.234 114.672H391.305C391.487 114.37 391.719 114.117 392 113.914C392.281 113.706 392.596 113.549 392.945 113.445C393.294 113.336 393.661 113.281 394.047 113.281ZM401.109 122H399.805V109.844H401.109V122ZM407.055 113.297C408.076 113.297 408.833 113.526 409.328 113.984C409.823 114.443 410.07 115.174 410.07 116.18V122H409.125L408.875 120.734H408.812C408.573 121.047 408.323 121.31 408.062 121.523C407.802 121.732 407.5 121.891 407.156 122C406.818 122.104 406.401 122.156 405.906 122.156C405.385 122.156 404.922 122.065 404.516 121.883C404.115 121.701 403.797 121.424 403.562 121.055C403.333 120.685 403.219 120.216 403.219 119.648C403.219 118.794 403.557 118.138 404.234 117.68C404.911 117.221 405.943 116.971 407.328 116.93L408.805 116.867V116.344C408.805 115.604 408.646 115.086 408.328 114.789C408.01 114.492 407.562 114.344 406.984 114.344C406.536 114.344 406.109 114.409 405.703 114.539C405.297 114.669 404.911 114.823 404.547 115L404.148 114.016C404.534 113.818 404.977 113.648 405.477 113.508C405.977 113.367 406.503 113.297 407.055 113.297ZM408.789 117.781L407.484 117.836C406.417 117.878 405.664 118.052 405.227 118.359C404.789 118.667 404.57 119.102 404.57 119.664C404.57 120.154 404.719 120.516 405.016 120.75C405.312 120.984 405.706 121.102 406.195 121.102C406.956 121.102 407.578 120.891 408.062 120.469C408.547 120.047 408.789 119.414 408.789 118.57V117.781ZM416.172 122.156C415.401 122.156 414.721 121.997 414.133 121.68C413.544 121.362 413.086 120.878 412.758 120.227C412.43 119.576 412.266 118.755 412.266 117.766C412.266 116.729 412.438 115.883 412.781 115.227C413.13 114.565 413.609 114.076 414.219 113.758C414.828 113.44 415.521 113.281 416.297 113.281C416.724 113.281 417.135 113.326 417.531 113.414C417.932 113.497 418.26 113.604 418.516 113.734L418.125 114.82C417.865 114.716 417.562 114.622 417.219 114.539C416.88 114.456 416.562 114.414 416.266 114.414C415.672 114.414 415.177 114.542 414.781 114.797C414.391 115.052 414.096 115.427 413.898 115.922C413.706 116.417 413.609 117.026 413.609 117.75C413.609 118.443 413.703 119.034 413.891 119.523C414.083 120.013 414.367 120.388 414.742 120.648C415.122 120.904 415.596 121.031 416.164 121.031C416.617 121.031 417.026 120.984 417.391 120.891C417.755 120.792 418.086 120.677 418.383 120.547V121.703C418.096 121.849 417.776 121.961 417.422 122.039C417.073 122.117 416.656 122.156 416.172 122.156ZM423.711 113.281C424.44 113.281 425.065 113.443 425.586 113.766C426.107 114.089 426.505 114.542 426.781 115.125C427.057 115.703 427.195 116.38 427.195 117.156V117.961H421.281C421.297 118.966 421.547 119.732 422.031 120.258C422.516 120.784 423.198 121.047 424.078 121.047C424.62 121.047 425.099 120.997 425.516 120.898C425.932 120.799 426.365 120.654 426.812 120.461V121.602C426.38 121.794 425.951 121.935 425.523 122.023C425.102 122.112 424.602 122.156 424.023 122.156C423.201 122.156 422.482 121.99 421.867 121.656C421.258 121.318 420.784 120.823 420.445 120.172C420.107 119.521 419.938 118.724 419.938 117.781C419.938 116.859 420.091 116.062 420.398 115.391C420.711 114.714 421.148 114.193 421.711 113.828C422.279 113.464 422.945 113.281 423.711 113.281ZM423.695 114.344C423.003 114.344 422.451 114.57 422.039 115.023C421.628 115.477 421.383 116.109 421.305 116.922H425.836C425.831 116.411 425.75 115.964 425.594 115.578C425.443 115.188 425.211 114.885 424.898 114.672C424.586 114.453 424.185 114.344 423.695 114.344Z" fill="#336ACC"/>
<path d="M307 124.52H428.031V126.52H307V124.52Z" fill="#336ACC"/>
<path d="M446 121.833H436C435.542 121.833 435.167 121.458 435.167 121V111C435.167 110.542 435.542 110.167 436 110.167H440.167C440.625 110.167 441 109.792 441 109.333C441 108.875 440.625 108.5 440.167 108.5H435.167C434.242 108.5 433.5 109.25 433.5 110.167V121.833C433.5 122.75 434.25 123.5 435.167 123.5H446.833C447.75 123.5 448.5 122.75 448.5 121.833V116.833C448.5 116.375 448.125 116 447.667 116C447.208 116 446.833 116.375 446.833 116.833V121C446.833 121.458 446.458 121.833 446 121.833ZM442.667 109.333C442.667 109.792 443.042 110.167 443.5 110.167H445.658L438.05 117.775C437.725 118.1 437.725 118.625 438.05 118.95C438.375 119.275 438.9 119.275 439.225 118.95L446.833 111.342V113.5C446.833 113.958 447.208 114.333 447.667 114.333C448.125 114.333 448.5 113.958 448.5 113.5V109.333C448.5 108.875 448.125 108.5 447.667 108.5H443.5C443.042 108.5 442.667 108.875 442.667 109.333Z" fill="#336ACC"/>
<path d="M169.482 121V112.434H170.479V121H169.482ZM171.738 109.656V109.773C171.66 109.887 171.553 110.023 171.416 110.184C171.283 110.34 171.135 110.506 170.971 110.682C170.807 110.854 170.641 111.018 170.473 111.174C170.309 111.33 170.156 111.465 170.016 111.578H169.365V111.438C169.49 111.289 169.627 111.111 169.775 110.904C169.924 110.693 170.068 110.479 170.209 110.26C170.35 110.037 170.467 109.836 170.561 109.656H171.738ZM175.26 121.117C174.682 121.117 174.172 120.998 173.73 120.76C173.289 120.521 172.945 120.158 172.699 119.67C172.453 119.182 172.33 118.566 172.33 117.824C172.33 117.047 172.459 116.412 172.717 115.92C172.979 115.424 173.338 115.057 173.795 114.818C174.252 114.58 174.771 114.461 175.354 114.461C175.674 114.461 175.982 114.494 176.279 114.561C176.58 114.623 176.826 114.703 177.018 114.801L176.725 115.615C176.529 115.537 176.303 115.467 176.045 115.404C175.791 115.342 175.553 115.311 175.33 115.311C174.885 115.311 174.514 115.406 174.217 115.598C173.924 115.789 173.703 116.07 173.555 116.441C173.41 116.812 173.338 117.27 173.338 117.812C173.338 118.332 173.408 118.775 173.549 119.143C173.693 119.51 173.906 119.791 174.188 119.986C174.473 120.178 174.828 120.273 175.254 120.273C175.594 120.273 175.9 120.238 176.174 120.168C176.447 120.094 176.695 120.008 176.918 119.91V120.777C176.703 120.887 176.463 120.971 176.197 121.029C175.936 121.088 175.623 121.117 175.26 121.117ZM183.979 117.777C183.979 118.305 183.91 118.775 183.773 119.189C183.637 119.604 183.439 119.953 183.182 120.238C182.924 120.523 182.611 120.742 182.244 120.895C181.881 121.043 181.469 121.117 181.008 121.117C180.578 121.117 180.184 121.043 179.824 120.895C179.469 120.742 179.16 120.523 178.898 120.238C178.641 119.953 178.439 119.604 178.295 119.189C178.154 118.775 178.084 118.305 178.084 117.777C178.084 117.074 178.203 116.477 178.441 115.984C178.68 115.488 179.02 115.111 179.461 114.854C179.906 114.592 180.436 114.461 181.049 114.461C181.635 114.461 182.146 114.592 182.584 114.854C183.025 115.115 183.367 115.494 183.609 115.99C183.855 116.482 183.979 117.078 183.979 117.777ZM179.092 117.777C179.092 118.293 179.16 118.74 179.297 119.119C179.434 119.498 179.645 119.791 179.93 119.998C180.215 120.205 180.582 120.309 181.031 120.309C181.477 120.309 181.842 120.205 182.127 119.998C182.416 119.791 182.629 119.498 182.766 119.119C182.902 118.74 182.971 118.293 182.971 117.777C182.971 117.266 182.902 116.824 182.766 116.453C182.629 116.078 182.418 115.789 182.133 115.586C181.848 115.383 181.479 115.281 181.025 115.281C180.357 115.281 179.867 115.502 179.555 115.943C179.246 116.385 179.092 116.996 179.092 117.777ZM188.701 114.461C189.463 114.461 190.039 114.648 190.43 115.023C190.82 115.395 191.016 115.992 191.016 116.816V121H190.055V116.881C190.055 116.346 189.932 115.945 189.686 115.68C189.443 115.414 189.07 115.281 188.566 115.281C187.855 115.281 187.355 115.482 187.066 115.885C186.777 116.287 186.633 116.871 186.633 117.637V121H185.66V114.578H186.445L186.592 115.504H186.645C186.781 115.277 186.955 115.088 187.166 114.936C187.377 114.779 187.613 114.662 187.875 114.584C188.137 114.502 188.412 114.461 188.701 114.461ZM198.557 117.777C198.557 118.305 198.488 118.775 198.352 119.189C198.215 119.604 198.018 119.953 197.76 120.238C197.502 120.523 197.189 120.742 196.822 120.895C196.459 121.043 196.047 121.117 195.586 121.117C195.156 121.117 194.762 121.043 194.402 120.895C194.047 120.742 193.738 120.523 193.477 120.238C193.219 119.953 193.018 119.604 192.873 119.189C192.732 118.775 192.662 118.305 192.662 117.777C192.662 117.074 192.781 116.477 193.02 115.984C193.258 115.488 193.598 115.111 194.039 114.854C194.484 114.592 195.014 114.461 195.627 114.461C196.213 114.461 196.725 114.592 197.162 114.854C197.604 115.115 197.945 115.494 198.188 115.99C198.434 116.482 198.557 117.078 198.557 117.777ZM193.67 117.777C193.67 118.293 193.738 118.74 193.875 119.119C194.012 119.498 194.223 119.791 194.508 119.998C194.793 120.205 195.16 120.309 195.609 120.309C196.055 120.309 196.42 120.205 196.705 119.998C196.994 119.791 197.207 119.498 197.344 119.119C197.48 118.74 197.549 118.293 197.549 117.777C197.549 117.266 197.48 116.824 197.344 116.453C197.207 116.078 196.996 115.789 196.711 115.586C196.426 115.383 196.057 115.281 195.604 115.281C194.936 115.281 194.445 115.502 194.133 115.943C193.824 116.385 193.67 116.996 193.67 117.777ZM204.328 114.578V121H203.355V114.578H204.328ZM203.854 112.176C204.014 112.176 204.15 112.229 204.264 112.334C204.381 112.436 204.439 112.596 204.439 112.814C204.439 113.029 204.381 113.189 204.264 113.295C204.15 113.4 204.014 113.453 203.854 113.453C203.686 113.453 203.545 113.4 203.432 113.295C203.322 113.189 203.268 113.029 203.268 112.814C203.268 112.596 203.322 112.436 203.432 112.334C203.545 112.229 203.686 112.176 203.854 112.176ZM209.432 114.461C210.193 114.461 210.77 114.648 211.16 115.023C211.551 115.395 211.746 115.992 211.746 116.816V121H210.785V116.881C210.785 116.346 210.662 115.945 210.416 115.68C210.174 115.414 209.801 115.281 209.297 115.281C208.586 115.281 208.086 115.482 207.797 115.885C207.508 116.287 207.363 116.871 207.363 117.637V121H206.391V114.578H207.176L207.322 115.504H207.375C207.512 115.277 207.686 115.088 207.896 114.936C208.107 114.779 208.344 114.662 208.605 114.584C208.867 114.502 209.143 114.461 209.432 114.461ZM214.723 114.578V121H213.75V114.578H214.723ZM214.248 112.176C214.408 112.176 214.545 112.229 214.658 112.334C214.775 112.436 214.834 112.596 214.834 112.814C214.834 113.029 214.775 113.189 214.658 113.295C214.545 113.4 214.408 113.453 214.248 113.453C214.08 113.453 213.939 113.4 213.826 113.295C213.717 113.189 213.662 113.029 213.662 112.814C213.662 112.596 213.717 112.436 213.826 112.334C213.939 112.229 214.08 112.176 214.248 112.176ZM219.357 121.117C218.779 121.117 218.27 120.998 217.828 120.76C217.387 120.521 217.043 120.158 216.797 119.67C216.551 119.182 216.428 118.566 216.428 117.824C216.428 117.047 216.557 116.412 216.814 115.92C217.076 115.424 217.436 115.057 217.893 114.818C218.35 114.58 218.869 114.461 219.451 114.461C219.771 114.461 220.08 114.494 220.377 114.561C220.678 114.623 220.924 114.703 221.115 114.801L220.822 115.615C220.627 115.537 220.4 115.467 220.143 115.404C219.889 115.342 219.65 115.311 219.428 115.311C218.982 115.311 218.611 115.406 218.314 115.598C218.021 115.789 217.801 116.07 217.652 116.441C217.508 116.812 217.436 117.27 217.436 117.812C217.436 118.332 217.506 118.775 217.646 119.143C217.791 119.51 218.004 119.791 218.285 119.986C218.57 120.178 218.926 120.273 219.352 120.273C219.691 120.273 219.998 120.238 220.271 120.168C220.545 120.094 220.793 120.008 221.016 119.91V120.777C220.801 120.887 220.561 120.971 220.295 121.029C220.033 121.088 219.721 121.117 219.357 121.117ZM223.512 114.578V121H222.539V114.578H223.512ZM223.037 112.176C223.197 112.176 223.334 112.229 223.447 112.334C223.564 112.436 223.623 112.596 223.623 112.814C223.623 113.029 223.564 113.189 223.447 113.295C223.334 113.4 223.197 113.453 223.037 113.453C222.869 113.453 222.729 113.4 222.615 113.295C222.506 113.189 222.451 113.029 222.451 112.814C222.451 112.596 222.506 112.436 222.615 112.334C222.729 112.229 222.869 112.176 223.037 112.176ZM227.977 114.473C228.742 114.473 229.311 114.645 229.682 114.988C230.053 115.332 230.238 115.881 230.238 116.635V121H229.529L229.342 120.051H229.295C229.115 120.285 228.928 120.482 228.732 120.643C228.537 120.799 228.311 120.918 228.053 121C227.799 121.078 227.486 121.117 227.115 121.117C226.725 121.117 226.377 121.049 226.072 120.912C225.771 120.775 225.533 120.568 225.357 120.291C225.186 120.014 225.1 119.662 225.1 119.236C225.1 118.596 225.354 118.104 225.861 117.76C226.369 117.416 227.143 117.229 228.182 117.197L229.289 117.15V116.758C229.289 116.203 229.17 115.814 228.932 115.592C228.693 115.369 228.357 115.258 227.924 115.258C227.588 115.258 227.268 115.307 226.963 115.404C226.658 115.502 226.369 115.617 226.096 115.75L225.797 115.012C226.086 114.863 226.418 114.736 226.793 114.631C227.168 114.525 227.562 114.473 227.977 114.473ZM229.277 117.836L228.299 117.877C227.498 117.908 226.934 118.039 226.605 118.27C226.277 118.5 226.113 118.826 226.113 119.248C226.113 119.615 226.225 119.887 226.447 120.062C226.67 120.238 226.965 120.326 227.332 120.326C227.902 120.326 228.369 120.168 228.732 119.852C229.096 119.535 229.277 119.061 229.277 118.428V117.836ZM233.221 121H232.242V111.883H233.221V121Z" fill="#101E37"/>
<path d="M244.948 116C244.948 114.527 243.754 113.333 242.281 113.333C240.808 113.333 239.615 114.527 239.615 116C239.615 117.473 240.808 118.667 242.281 118.667C243.754 118.667 244.948 117.473 244.948 116ZM282.281 115.5H242.281V116.5H282.281V115.5Z" fill="#101E37"/>
<path d="M490.052 116C490.052 114.527 491.246 113.333 492.719 113.333C494.192 113.333 495.385 114.527 495.385 116C495.385 117.473 494.192 118.667 492.719 118.667C491.246 118.667 490.052 117.473 490.052 116ZM452.719 115.5H492.719V116.5H452.719V115.5Z" fill="#101E37"/>
<path d="M502.316 121V112.434H503.312V121H502.316ZM504.572 109.656V109.773C504.494 109.887 504.387 110.023 504.25 110.184C504.117 110.34 503.969 110.506 503.805 110.682C503.641 110.854 503.475 111.018 503.307 111.174C503.143 111.33 502.99 111.465 502.85 111.578H502.199V111.438C502.324 111.289 502.461 111.111 502.609 110.904C502.758 110.693 502.902 110.479 503.043 110.26C503.184 110.037 503.301 109.836 503.395 109.656H504.572ZM508.094 121.117C507.516 121.117 507.006 120.998 506.564 120.76C506.123 120.521 505.779 120.158 505.533 119.67C505.287 119.182 505.164 118.566 505.164 117.824C505.164 117.047 505.293 116.412 505.551 115.92C505.812 115.424 506.172 115.057 506.629 114.818C507.086 114.58 507.605 114.461 508.188 114.461C508.508 114.461 508.816 114.494 509.113 114.561C509.414 114.623 509.66 114.703 509.852 114.801L509.559 115.615C509.363 115.537 509.137 115.467 508.879 115.404C508.625 115.342 508.387 115.311 508.164 115.311C507.719 115.311 507.348 115.406 507.051 115.598C506.758 115.789 506.537 116.07 506.389 116.441C506.244 116.812 506.172 117.27 506.172 117.812C506.172 118.332 506.242 118.775 506.383 119.143C506.527 119.51 506.74 119.791 507.021 119.986C507.307 120.178 507.662 120.273 508.088 120.273C508.428 120.273 508.734 120.238 509.008 120.168C509.281 120.094 509.529 120.008 509.752 119.91V120.777C509.537 120.887 509.297 120.971 509.031 121.029C508.77 121.088 508.457 121.117 508.094 121.117ZM516.812 117.777C516.812 118.305 516.744 118.775 516.607 119.189C516.471 119.604 516.273 119.953 516.016 120.238C515.758 120.523 515.445 120.742 515.078 120.895C514.715 121.043 514.303 121.117 513.842 121.117C513.412 121.117 513.018 121.043 512.658 120.895C512.303 120.742 511.994 120.523 511.732 120.238C511.475 119.953 511.273 119.604 511.129 119.189C510.988 118.775 510.918 118.305 510.918 117.777C510.918 117.074 511.037 116.477 511.275 115.984C511.514 115.488 511.854 115.111 512.295 114.854C512.74 114.592 513.27 114.461 513.883 114.461C514.469 114.461 514.98 114.592 515.418 114.854C515.859 115.115 516.201 115.494 516.443 115.99C516.689 116.482 516.812 117.078 516.812 117.777ZM511.926 117.777C511.926 118.293 511.994 118.74 512.131 119.119C512.268 119.498 512.479 119.791 512.764 119.998C513.049 120.205 513.416 120.309 513.865 120.309C514.311 120.309 514.676 120.205 514.961 119.998C515.25 119.791 515.463 119.498 515.6 119.119C515.736 118.74 515.805 118.293 515.805 117.777C515.805 117.266 515.736 116.824 515.6 116.453C515.463 116.078 515.252 115.789 514.967 115.586C514.682 115.383 514.312 115.281 513.859 115.281C513.191 115.281 512.701 115.502 512.389 115.943C512.08 116.385 511.926 116.996 511.926 117.777ZM521.535 114.461C522.297 114.461 522.873 114.648 523.264 115.023C523.654 115.395 523.85 115.992 523.85 116.816V121H522.889V116.881C522.889 116.346 522.766 115.945 522.52 115.68C522.277 115.414 521.904 115.281 521.4 115.281C520.689 115.281 520.189 115.482 519.9 115.885C519.611 116.287 519.467 116.871 519.467 117.637V121H518.494V114.578H519.279L519.426 115.504H519.479C519.615 115.277 519.789 115.088 520 114.936C520.211 114.779 520.447 114.662 520.709 114.584C520.971 114.502 521.246 114.461 521.535 114.461ZM531.391 117.777C531.391 118.305 531.322 118.775 531.186 119.189C531.049 119.604 530.852 119.953 530.594 120.238C530.336 120.523 530.023 120.742 529.656 120.895C529.293 121.043 528.881 121.117 528.42 121.117C527.99 121.117 527.596 121.043 527.236 120.895C526.881 120.742 526.572 120.523 526.311 120.238C526.053 119.953 525.852 119.604 525.707 119.189C525.566 118.775 525.496 118.305 525.496 117.777C525.496 117.074 525.615 116.477 525.854 115.984C526.092 115.488 526.432 115.111 526.873 114.854C527.318 114.592 527.848 114.461 528.461 114.461C529.047 114.461 529.559 114.592 529.996 114.854C530.438 115.115 530.779 115.494 531.021 115.99C531.268 116.482 531.391 117.078 531.391 117.777ZM526.504 117.777C526.504 118.293 526.572 118.74 526.709 119.119C526.846 119.498 527.057 119.791 527.342 119.998C527.627 120.205 527.994 120.309 528.443 120.309C528.889 120.309 529.254 120.205 529.539 119.998C529.828 119.791 530.041 119.498 530.178 119.119C530.314 118.74 530.383 118.293 530.383 117.777C530.383 117.266 530.314 116.824 530.178 116.453C530.041 116.078 529.83 115.789 529.545 115.586C529.26 115.383 528.891 115.281 528.438 115.281C527.77 115.281 527.279 115.502 526.967 115.943C526.658 116.385 526.504 116.996 526.504 117.777ZM539.049 115.34H537.449V121H536.477V115.34H535.34V114.871L536.477 114.549V114.121C536.477 113.582 536.557 113.145 536.717 112.809C536.877 112.469 537.109 112.219 537.414 112.059C537.719 111.898 538.09 111.818 538.527 111.818C538.773 111.818 538.998 111.84 539.201 111.883C539.408 111.926 539.59 111.975 539.746 112.029L539.494 112.797C539.361 112.754 539.211 112.715 539.043 112.68C538.879 112.641 538.711 112.621 538.539 112.621C538.168 112.621 537.893 112.742 537.713 112.984C537.537 113.223 537.449 113.598 537.449 114.109V114.578H539.049V115.34ZM541.199 114.578V121H540.227V114.578H541.199ZM540.725 112.176C540.885 112.176 541.021 112.229 541.135 112.334C541.252 112.436 541.311 112.596 541.311 112.814C541.311 113.029 541.252 113.189 541.135 113.295C541.021 113.4 540.885 113.453 540.725 113.453C540.557 113.453 540.416 113.4 540.303 113.295C540.193 113.189 540.139 113.029 540.139 112.814C540.139 112.596 540.193 112.436 540.303 112.334C540.416 112.229 540.557 112.176 540.725 112.176ZM546.297 114.461C547.059 114.461 547.635 114.648 548.025 115.023C548.416 115.395 548.611 115.992 548.611 116.816V121H547.65V116.881C547.65 116.346 547.527 115.945 547.281 115.68C547.039 115.414 546.666 115.281 546.162 115.281C545.451 115.281 544.951 115.482 544.662 115.885C544.373 116.287 544.229 116.871 544.229 117.637V121H543.256V114.578H544.041L544.188 115.504H544.24C544.377 115.277 544.551 115.088 544.762 114.936C544.973 114.779 545.209 114.662 545.471 114.584C545.732 114.502 546.008 114.461 546.297 114.461ZM553.018 114.473C553.783 114.473 554.352 114.645 554.723 114.988C555.094 115.332 555.279 115.881 555.279 116.635V121H554.57L554.383 120.051H554.336C554.156 120.285 553.969 120.482 553.773 120.643C553.578 120.799 553.352 120.918 553.094 121C552.84 121.078 552.527 121.117 552.156 121.117C551.766 121.117 551.418 121.049 551.113 120.912C550.812 120.775 550.574 120.568 550.398 120.291C550.227 120.014 550.141 119.662 550.141 119.236C550.141 118.596 550.395 118.104 550.902 117.76C551.41 117.416 552.184 117.229 553.223 117.197L554.33 117.15V116.758C554.33 116.203 554.211 115.814 553.973 115.592C553.734 115.369 553.398 115.258 552.965 115.258C552.629 115.258 552.309 115.307 552.004 115.404C551.699 115.502 551.41 115.617 551.137 115.75L550.838 115.012C551.127 114.863 551.459 114.736 551.834 114.631C552.209 114.525 552.604 114.473 553.018 114.473ZM554.318 117.836L553.34 117.877C552.539 117.908 551.975 118.039 551.646 118.27C551.318 118.5 551.154 118.826 551.154 119.248C551.154 119.615 551.266 119.887 551.488 120.062C551.711 120.238 552.006 120.326 552.373 120.326C552.943 120.326 553.41 120.168 553.773 119.852C554.137 119.535 554.318 119.061 554.318 118.428V117.836ZM558.262 121H557.283V111.883H558.262V121Z" fill="#101E37"/>
<path d="M326.916 61H325.914V53.3125H323.219V52.4336H329.6V53.3125H326.916V61ZM333.221 54.4609C333.768 54.4609 334.236 54.582 334.627 54.8242C335.018 55.0664 335.316 55.4062 335.523 55.8438C335.73 56.2773 335.834 56.7852 335.834 57.3672V57.9707H331.398C331.41 58.7246 331.598 59.2988 331.961 59.6934C332.324 60.0879 332.836 60.2852 333.496 60.2852C333.902 60.2852 334.262 60.248 334.574 60.1738C334.887 60.0996 335.211 59.9902 335.547 59.8457V60.7012C335.223 60.8457 334.9 60.9512 334.58 61.0176C334.264 61.084 333.889 61.1172 333.455 61.1172C332.838 61.1172 332.299 60.9922 331.838 60.7422C331.381 60.4883 331.025 60.1172 330.771 59.6289C330.518 59.1406 330.391 58.543 330.391 57.8359C330.391 57.1445 330.506 56.5469 330.736 56.043C330.971 55.5352 331.299 55.1445 331.721 54.8711C332.146 54.5977 332.646 54.4609 333.221 54.4609ZM333.209 55.2578C332.689 55.2578 332.275 55.4277 331.967 55.7676C331.658 56.1074 331.475 56.582 331.416 57.1914H334.814C334.811 56.8086 334.75 56.4727 334.633 56.1836C334.52 55.8906 334.346 55.6641 334.111 55.5039C333.877 55.3398 333.576 55.2578 333.209 55.2578ZM339.016 57.7129L336.795 54.5781H337.908L339.602 57.0508L341.289 54.5781H342.391L340.17 57.7129L342.514 61H341.4L339.602 58.3809L337.791 61H336.689L339.016 57.7129ZM345.842 60.3203C346.002 60.3203 346.166 60.3066 346.334 60.2793C346.502 60.252 346.639 60.2188 346.744 60.1797V60.9355C346.631 60.9863 346.473 61.0293 346.27 61.0645C346.07 61.0996 345.875 61.1172 345.684 61.1172C345.344 61.1172 345.035 61.0586 344.758 60.9414C344.48 60.8203 344.258 60.6172 344.09 60.332C343.926 60.0469 343.844 59.6523 343.844 59.1484V55.3398H342.93V54.8652L343.85 54.4844L344.236 53.0898H344.822V54.5781H346.703V55.3398H344.822V59.1191C344.822 59.5215 344.914 59.8223 345.098 60.0215C345.285 60.2207 345.533 60.3203 345.842 60.3203ZM353.582 57.7773C353.582 58.3047 353.514 58.7754 353.377 59.1895C353.24 59.6035 353.043 59.9531 352.785 60.2383C352.527 60.5234 352.215 60.7422 351.848 60.8945C351.484 61.043 351.072 61.1172 350.611 61.1172C350.182 61.1172 349.787 61.043 349.428 60.8945C349.072 60.7422 348.764 60.5234 348.502 60.2383C348.244 59.9531 348.043 59.6035 347.898 59.1895C347.758 58.7754 347.688 58.3047 347.688 57.7773C347.688 57.0742 347.807 56.4766 348.045 55.9844C348.283 55.4883 348.623 55.1113 349.064 54.8535C349.51 54.5918 350.039 54.4609 350.652 54.4609C351.238 54.4609 351.75 54.5918 352.188 54.8535C352.629 55.1152 352.971 55.4941 353.213 55.9902C353.459 56.4824 353.582 57.0781 353.582 57.7773ZM348.695 57.7773C348.695 58.293 348.764 58.7402 348.9 59.1191C349.037 59.498 349.248 59.791 349.533 59.998C349.818 60.2051 350.186 60.3086 350.635 60.3086C351.08 60.3086 351.445 60.2051 351.73 59.998C352.02 59.791 352.232 59.498 352.369 59.1191C352.506 58.7402 352.574 58.293 352.574 57.7773C352.574 57.2656 352.506 56.8242 352.369 56.4531C352.232 56.0781 352.021 55.7891 351.736 55.5859C351.451 55.3828 351.082 55.2812 350.629 55.2812C349.961 55.2812 349.471 55.502 349.158 55.9434C348.85 56.3848 348.695 56.9961 348.695 57.7773ZM360.666 61.1172C359.854 61.1172 359.209 60.8398 358.732 60.2852C358.26 59.7305 358.023 58.9062 358.023 57.8125C358.023 56.707 358.266 55.873 358.75 55.3105C359.234 54.7441 359.879 54.4609 360.684 54.4609C361.023 54.4609 361.32 54.5059 361.574 54.5957C361.828 54.6855 362.047 54.8066 362.23 54.959C362.414 55.1074 362.568 55.2773 362.693 55.4688H362.764C362.748 55.3477 362.732 55.1816 362.717 54.9707C362.701 54.7598 362.693 54.5879 362.693 54.4551V51.8828H363.666V61H362.881L362.734 60.0859H362.693C362.572 60.2773 362.418 60.4512 362.23 60.6074C362.047 60.7637 361.826 60.8887 361.568 60.9824C361.314 61.0723 361.014 61.1172 360.666 61.1172ZM360.818 60.3086C361.506 60.3086 361.992 60.1133 362.277 59.7227C362.562 59.332 362.705 58.752 362.705 57.9824V57.8066C362.705 56.9902 362.568 56.3633 362.295 55.9258C362.025 55.4883 361.533 55.2695 360.818 55.2695C360.221 55.2695 359.773 55.5 359.477 55.9609C359.18 56.418 359.031 57.043 359.031 57.8359C359.031 58.625 359.178 59.2344 359.471 59.6641C359.768 60.0938 360.217 60.3086 360.818 60.3086ZM368.201 54.4609C368.748 54.4609 369.217 54.582 369.607 54.8242C369.998 55.0664 370.297 55.4062 370.504 55.8438C370.711 56.2773 370.814 56.7852 370.814 57.3672V57.9707H366.379C366.391 58.7246 366.578 59.2988 366.941 59.6934C367.305 60.0879 367.816 60.2852 368.477 60.2852C368.883 60.2852 369.242 60.248 369.555 60.1738C369.867 60.0996 370.191 59.9902 370.527 59.8457V60.7012C370.203 60.8457 369.881 60.9512 369.561 61.0176C369.244 61.084 368.869 61.1172 368.436 61.1172C367.818 61.1172 367.279 60.9922 366.818 60.7422C366.361 60.4883 366.006 60.1172 365.752 59.6289C365.498 59.1406 365.371 58.543 365.371 57.8359C365.371 57.1445 365.486 56.5469 365.717 56.043C365.951 55.5352 366.279 55.1445 366.701 54.8711C367.127 54.5977 367.627 54.4609 368.201 54.4609ZM368.189 55.2578C367.67 55.2578 367.256 55.4277 366.947 55.7676C366.639 56.1074 366.455 56.582 366.396 57.1914H369.795C369.791 56.8086 369.73 56.4727 369.613 56.1836C369.5 55.8906 369.326 55.6641 369.092 55.5039C368.857 55.3398 368.557 55.2578 368.189 55.2578ZM373.445 61H372.467V51.8828H373.445V61ZM381.092 54.4609C381.639 54.4609 382.107 54.582 382.498 54.8242C382.889 55.0664 383.188 55.4062 383.395 55.8438C383.602 56.2773 383.705 56.7852 383.705 57.3672V57.9707H379.27C379.281 58.7246 379.469 59.2988 379.832 59.6934C380.195 60.0879 380.707 60.2852 381.367 60.2852C381.773 60.2852 382.133 60.248 382.445 60.1738C382.758 60.0996 383.082 59.9902 383.418 59.8457V60.7012C383.094 60.8457 382.771 60.9512 382.451 61.0176C382.135 61.084 381.76 61.1172 381.326 61.1172C380.709 61.1172 380.17 60.9922 379.709 60.7422C379.252 60.4883 378.896 60.1172 378.643 59.6289C378.389 59.1406 378.262 58.543 378.262 57.8359C378.262 57.1445 378.377 56.5469 378.607 56.043C378.842 55.5352 379.17 55.1445 379.592 54.8711C380.018 54.5977 380.518 54.4609 381.092 54.4609ZM381.08 55.2578C380.561 55.2578 380.146 55.4277 379.838 55.7676C379.529 56.1074 379.346 56.582 379.287 57.1914H382.686C382.682 56.8086 382.621 56.4727 382.504 56.1836C382.391 55.8906 382.217 55.6641 381.982 55.5039C381.748 55.3398 381.447 55.2578 381.08 55.2578ZM388.398 54.4609C389.16 54.4609 389.736 54.6484 390.127 55.0234C390.518 55.3945 390.713 55.9922 390.713 56.8164V61H389.752V56.8809C389.752 56.3457 389.629 55.9453 389.383 55.6797C389.141 55.4141 388.768 55.2812 388.264 55.2812C387.553 55.2812 387.053 55.4824 386.764 55.8848C386.475 56.2871 386.33 56.8711 386.33 57.6367V61H385.357V54.5781H386.143L386.289 55.5039H386.342C386.479 55.2773 386.652 55.0879 386.863 54.9355C387.074 54.7793 387.311 54.6621 387.572 54.584C387.834 54.502 388.109 54.4609 388.398 54.4609ZM393.695 61H392.717V51.8828H393.695V61ZM398.154 54.4727C398.92 54.4727 399.488 54.6445 399.859 54.9883C400.23 55.332 400.416 55.8809 400.416 56.6348V61H399.707L399.52 60.0508H399.473C399.293 60.2852 399.105 60.4824 398.91 60.6426C398.715 60.7988 398.488 60.918 398.23 61C397.977 61.0781 397.664 61.1172 397.293 61.1172C396.902 61.1172 396.555 61.0488 396.25 60.9121C395.949 60.7754 395.711 60.5684 395.535 60.291C395.363 60.0137 395.277 59.6621 395.277 59.2363C395.277 58.5957 395.531 58.1035 396.039 57.7598C396.547 57.416 397.32 57.2285 398.359 57.1973L399.467 57.1504V56.7578C399.467 56.2031 399.348 55.8145 399.109 55.5918C398.871 55.3691 398.535 55.2578 398.102 55.2578C397.766 55.2578 397.445 55.3066 397.141 55.4043C396.836 55.502 396.547 55.6172 396.273 55.75L395.975 55.0117C396.264 54.8633 396.596 54.7363 396.971 54.6309C397.346 54.5254 397.74 54.4727 398.154 54.4727ZM399.455 57.8359L398.477 57.877C397.676 57.9082 397.111 58.0391 396.783 58.2695C396.455 58.5 396.291 58.8262 396.291 59.248C396.291 59.6152 396.402 59.8867 396.625 60.0625C396.848 60.2383 397.143 60.3262 397.51 60.3262C398.08 60.3262 398.547 60.168 398.91 59.8516C399.273 59.5352 399.455 59.0605 399.455 58.4277V57.8359ZM404.992 61.1172C404.414 61.1172 403.904 60.998 403.463 60.7598C403.021 60.5215 402.678 60.1582 402.432 59.6699C402.186 59.1816 402.062 58.5664 402.062 57.8242C402.062 57.0469 402.191 56.4121 402.449 55.9199C402.711 55.4238 403.07 55.0566 403.527 54.8184C403.984 54.5801 404.504 54.4609 405.086 54.4609C405.406 54.4609 405.715 54.4941 406.012 54.5605C406.312 54.623 406.559 54.7031 406.75 54.8008L406.457 55.6152C406.262 55.5371 406.035 55.4668 405.777 55.4043C405.523 55.3418 405.285 55.3105 405.062 55.3105C404.617 55.3105 404.246 55.4062 403.949 55.5977C403.656 55.7891 403.436 56.0703 403.287 56.4414C403.143 56.8125 403.07 57.2695 403.07 57.8125C403.07 58.332 403.141 58.7754 403.281 59.1426C403.426 59.5098 403.639 59.791 403.92 59.9863C404.205 60.1777 404.561 60.2734 404.986 60.2734C405.326 60.2734 405.633 60.2383 405.906 60.168C406.18 60.0938 406.428 60.0078 406.65 59.9102V60.7773C406.436 60.8867 406.195 60.9707 405.93 61.0293C405.668 61.0879 405.355 61.1172 404.992 61.1172ZM410.646 54.4609C411.193 54.4609 411.662 54.582 412.053 54.8242C412.443 55.0664 412.742 55.4062 412.949 55.8438C413.156 56.2773 413.26 56.7852 413.26 57.3672V57.9707H408.824C408.836 58.7246 409.023 59.2988 409.387 59.6934C409.75 60.0879 410.262 60.2852 410.922 60.2852C411.328 60.2852 411.688 60.248 412 60.1738C412.312 60.0996 412.637 59.9902 412.973 59.8457V60.7012C412.648 60.8457 412.326 60.9512 412.006 61.0176C411.689 61.084 411.314 61.1172 410.881 61.1172C410.264 61.1172 409.725 60.9922 409.264 60.7422C408.807 60.4883 408.451 60.1172 408.197 59.6289C407.943 59.1406 407.816 58.543 407.816 57.8359C407.816 57.1445 407.932 56.5469 408.162 56.043C408.396 55.5352 408.725 55.1445 409.146 54.8711C409.572 54.5977 410.072 54.4609 410.646 54.4609ZM410.635 55.2578C410.115 55.2578 409.701 55.4277 409.393 55.7676C409.084 56.1074 408.9 56.582 408.842 57.1914H412.24C412.236 56.8086 412.176 56.4727 412.059 56.1836C411.945 55.8906 411.771 55.6641 411.537 55.5039C411.303 55.3398 411.002 55.2578 410.635 55.2578Z" fill="#101E37"/>
<path d="M368.5 72.6667C369.973 72.6667 371.167 71.4728 371.167 70C371.167 68.5272 369.973 67.3333 368.5 67.3333C367.027 67.3333 365.833 68.5272 365.833 70C365.833 71.4728 367.027 72.6667 368.5 72.6667ZM369 102L369 70L368 70L368 102L369 102Z" fill="#101E37"/>
<path d="M368.5 159.333C369.973 159.333 371.167 160.527 371.167 162C371.167 163.473 369.973 164.667 368.5 164.667C367.027 164.667 365.833 163.473 365.833 162C365.833 160.527 367.027 159.333 368.5 159.333ZM369 130L369 162L368 162L368 130L369 130Z" fill="#101E37"/>
<path d="M344.447 178.721C344.447 179.229 344.32 179.662 344.066 180.021C343.816 180.377 343.465 180.648 343.012 180.836C342.559 181.023 342.025 181.117 341.412 181.117C341.088 181.117 340.781 181.102 340.492 181.07C340.203 181.039 339.938 180.994 339.695 180.936C339.453 180.877 339.24 180.805 339.057 180.719V179.764C339.35 179.885 339.707 179.998 340.129 180.104C340.551 180.205 340.992 180.256 341.453 180.256C341.883 180.256 342.246 180.199 342.543 180.086C342.84 179.969 343.064 179.803 343.217 179.588C343.373 179.369 343.451 179.107 343.451 178.803C343.451 178.51 343.387 178.266 343.258 178.07C343.129 177.871 342.914 177.691 342.613 177.531C342.316 177.367 341.91 177.193 341.395 177.01C341.031 176.881 340.711 176.74 340.434 176.588C340.156 176.432 339.924 176.256 339.736 176.061C339.549 175.865 339.406 175.639 339.309 175.381C339.215 175.123 339.168 174.828 339.168 174.496C339.168 174.039 339.283 173.648 339.514 173.324C339.748 172.996 340.07 172.746 340.48 172.574C340.895 172.398 341.369 172.311 341.904 172.311C342.361 172.311 342.783 172.354 343.17 172.439C343.561 172.525 343.918 172.641 344.242 172.785L343.932 173.641C343.623 173.512 343.295 173.404 342.947 173.318C342.604 173.232 342.248 173.189 341.881 173.189C341.514 173.189 341.203 173.244 340.949 173.354C340.699 173.459 340.508 173.609 340.375 173.805C340.242 174 340.176 174.232 340.176 174.502C340.176 174.803 340.238 175.053 340.363 175.252C340.492 175.451 340.695 175.629 340.973 175.785C341.254 175.938 341.625 176.098 342.086 176.266C342.59 176.449 343.018 176.645 343.369 176.852C343.721 177.055 343.988 177.305 344.172 177.602C344.355 177.895 344.447 178.268 344.447 178.721ZM351.355 174.578V181H350.559L350.418 180.098H350.365C350.232 180.32 350.061 180.508 349.85 180.66C349.639 180.812 349.4 180.926 349.135 181C348.873 181.078 348.594 181.117 348.297 181.117C347.789 181.117 347.363 181.035 347.02 180.871C346.676 180.707 346.416 180.453 346.24 180.109C346.068 179.766 345.982 179.324 345.982 178.785V174.578H346.967V178.715C346.967 179.25 347.088 179.65 347.33 179.916C347.572 180.178 347.941 180.309 348.438 180.309C348.914 180.309 349.293 180.219 349.574 180.039C349.859 179.859 350.064 179.596 350.189 179.248C350.314 178.896 350.377 178.467 350.377 177.959V174.578H351.355ZM354.385 171.883V174.162C354.385 174.424 354.377 174.678 354.361 174.924C354.35 175.17 354.34 175.361 354.332 175.498H354.385C354.561 175.209 354.814 174.965 355.146 174.766C355.479 174.566 355.902 174.467 356.418 174.467C357.223 174.467 357.863 174.746 358.34 175.305C358.82 175.859 359.061 176.686 359.061 177.783C359.061 178.506 358.951 179.115 358.732 179.611C358.514 180.107 358.205 180.482 357.807 180.736C357.408 180.99 356.938 181.117 356.395 181.117C355.887 181.117 355.469 181.023 355.141 180.836C354.816 180.645 354.566 180.412 354.391 180.139H354.314L354.115 181H353.412V171.883H354.385ZM356.26 175.281C355.795 175.281 355.426 175.373 355.152 175.557C354.879 175.736 354.682 176.01 354.561 176.377C354.443 176.74 354.385 177.201 354.385 177.76V177.812C354.385 178.621 354.52 179.24 354.789 179.67C355.059 180.096 355.549 180.309 356.26 180.309C356.857 180.309 357.305 180.09 357.602 179.652C357.902 179.215 358.053 178.59 358.053 177.777C358.053 176.949 357.904 176.326 357.607 175.908C357.314 175.49 356.865 175.281 356.26 175.281ZM363.678 174.461C363.807 174.461 363.941 174.469 364.082 174.484C364.223 174.496 364.348 174.514 364.457 174.537L364.334 175.439C364.229 175.412 364.111 175.391 363.982 175.375C363.854 175.359 363.732 175.352 363.619 175.352C363.361 175.352 363.117 175.404 362.887 175.51C362.66 175.611 362.461 175.76 362.289 175.955C362.117 176.146 361.982 176.379 361.885 176.652C361.787 176.922 361.738 177.223 361.738 177.555V181H360.76V174.578H361.568L361.674 175.762H361.715C361.848 175.523 362.008 175.307 362.195 175.111C362.383 174.912 362.6 174.754 362.846 174.637C363.096 174.52 363.373 174.461 363.678 174.461ZM368.072 174.473C368.838 174.473 369.406 174.645 369.777 174.988C370.148 175.332 370.334 175.881 370.334 176.635V181H369.625L369.438 180.051H369.391C369.211 180.285 369.023 180.482 368.828 180.643C368.633 180.799 368.406 180.918 368.148 181C367.895 181.078 367.582 181.117 367.211 181.117C366.82 181.117 366.473 181.049 366.168 180.912C365.867 180.775 365.629 180.568 365.453 180.291C365.281 180.014 365.195 179.662 365.195 179.236C365.195 178.596 365.449 178.104 365.957 177.76C366.465 177.416 367.238 177.229 368.277 177.197L369.385 177.15V176.758C369.385 176.203 369.266 175.814 369.027 175.592C368.789 175.369 368.453 175.258 368.02 175.258C367.684 175.258 367.363 175.307 367.059 175.404C366.754 175.502 366.465 175.617 366.191 175.75L365.893 175.012C366.182 174.863 366.514 174.736 366.889 174.631C367.264 174.525 367.658 174.473 368.072 174.473ZM369.373 177.836L368.395 177.877C367.594 177.908 367.029 178.039 366.701 178.27C366.373 178.5 366.209 178.826 366.209 179.248C366.209 179.615 366.32 179.887 366.543 180.062C366.766 180.238 367.061 180.326 367.428 180.326C367.998 180.326 368.465 180.168 368.828 179.852C369.191 179.535 369.373 179.061 369.373 178.428V177.836ZM371.324 174.578H372.367L373.785 178.305C373.867 178.523 373.943 178.734 374.014 178.938C374.084 179.137 374.146 179.328 374.201 179.512C374.256 179.695 374.299 179.873 374.33 180.045H374.371C374.426 179.85 374.504 179.594 374.605 179.277C374.707 178.957 374.816 178.631 374.934 178.299L376.275 174.578H377.324L374.529 181.943C374.381 182.338 374.207 182.682 374.008 182.975C373.812 183.268 373.574 183.492 373.293 183.648C373.012 183.809 372.672 183.889 372.273 183.889C372.09 183.889 371.928 183.877 371.787 183.854C371.646 183.834 371.525 183.811 371.424 183.783V183.004C371.51 183.023 371.613 183.041 371.734 183.057C371.859 183.072 371.988 183.08 372.121 183.08C372.363 183.08 372.572 183.033 372.748 182.939C372.928 182.85 373.082 182.717 373.211 182.541C373.34 182.365 373.451 182.156 373.545 181.914L373.896 181.012L371.324 174.578ZM380.752 174.473C381.518 174.473 382.086 174.645 382.457 174.988C382.828 175.332 383.014 175.881 383.014 176.635V181H382.305L382.117 180.051H382.07C381.891 180.285 381.703 180.482 381.508 180.643C381.312 180.799 381.086 180.918 380.828 181C380.574 181.078 380.262 181.117 379.891 181.117C379.5 181.117 379.152 181.049 378.848 180.912C378.547 180.775 378.309 180.568 378.133 180.291C377.961 180.014 377.875 179.662 377.875 179.236C377.875 178.596 378.129 178.104 378.637 177.76C379.145 177.416 379.918 177.229 380.957 177.197L382.064 177.15V176.758C382.064 176.203 381.945 175.814 381.707 175.592C381.469 175.369 381.133 175.258 380.699 175.258C380.363 175.258 380.043 175.307 379.738 175.404C379.434 175.502 379.145 175.617 378.871 175.75L378.572 175.012C378.861 174.863 379.193 174.736 379.568 174.631C379.943 174.525 380.338 174.473 380.752 174.473ZM382.053 177.836L381.074 177.877C380.273 177.908 379.709 178.039 379.381 178.27C379.053 178.5 378.889 178.826 378.889 179.248C378.889 179.615 379 179.887 379.223 180.062C379.445 180.238 379.74 180.326 380.107 180.326C380.678 180.326 381.145 180.168 381.508 179.852C381.871 179.535 382.053 179.061 382.053 178.428V177.836ZM387.303 181.117C386.49 181.117 385.846 180.84 385.369 180.285C384.896 179.73 384.66 178.906 384.66 177.812C384.66 176.707 384.902 175.873 385.387 175.311C385.871 174.744 386.516 174.461 387.32 174.461C387.66 174.461 387.957 174.506 388.211 174.596C388.465 174.686 388.684 174.807 388.867 174.959C389.051 175.107 389.205 175.277 389.33 175.469H389.4C389.385 175.348 389.369 175.182 389.354 174.971C389.338 174.76 389.33 174.588 389.33 174.455V171.883H390.303V181H389.518L389.371 180.086H389.33C389.209 180.277 389.055 180.451 388.867 180.607C388.684 180.764 388.463 180.889 388.205 180.982C387.951 181.072 387.65 181.117 387.303 181.117ZM387.455 180.309C388.143 180.309 388.629 180.113 388.914 179.723C389.199 179.332 389.342 178.752 389.342 177.982V177.807C389.342 176.99 389.205 176.363 388.932 175.926C388.662 175.488 388.17 175.27 387.455 175.27C386.857 175.27 386.41 175.5 386.113 175.961C385.816 176.418 385.668 177.043 385.668 177.836C385.668 178.625 385.814 179.234 386.107 179.664C386.404 180.094 386.854 180.309 387.455 180.309ZM397.902 177.777C397.902 178.305 397.834 178.775 397.697 179.189C397.561 179.604 397.363 179.953 397.105 180.238C396.848 180.523 396.535 180.742 396.168 180.895C395.805 181.043 395.393 181.117 394.932 181.117C394.502 181.117 394.107 181.043 393.748 180.895C393.393 180.742 393.084 180.523 392.822 180.238C392.564 179.953 392.363 179.604 392.219 179.189C392.078 178.775 392.008 178.305 392.008 177.777C392.008 177.074 392.127 176.477 392.365 175.984C392.604 175.488 392.943 175.111 393.385 174.854C393.83 174.592 394.359 174.461 394.973 174.461C395.559 174.461 396.07 174.592 396.508 174.854C396.949 175.115 397.291 175.494 397.533 175.99C397.779 176.482 397.902 177.078 397.902 177.777ZM393.016 177.777C393.016 178.293 393.084 178.74 393.221 179.119C393.357 179.498 393.568 179.791 393.854 179.998C394.139 180.205 394.506 180.309 394.955 180.309C395.4 180.309 395.766 180.205 396.051 179.998C396.34 179.791 396.553 179.498 396.689 179.119C396.826 178.74 396.895 178.293 396.895 177.777C396.895 177.266 396.826 176.824 396.689 176.453C396.553 176.078 396.342 175.789 396.057 175.586C395.771 175.383 395.402 175.281 394.949 175.281C394.281 175.281 393.791 175.502 393.479 175.943C393.17 176.385 393.016 176.996 393.016 177.777Z" fill="#101E37"/>
</svg>
