<svg width="348" height="120" viewBox="0 0 348 120" fill="none" xmlns="http://www.w3.org/2000/svg">
<rect width="348" height="120" rx="8" fill="#F3F6F9"/>
<path d="M115.422 66H109.062V54.5781H115.422V55.75H110.391V59.4453H115.133V60.6016H110.391V64.8281H115.422V66ZM121.812 57.2812C122.828 57.2812 123.596 57.5312 124.117 58.0312C124.638 58.526 124.898 59.3229 124.898 60.4219V66H123.617V60.5078C123.617 59.7943 123.453 59.2604 123.125 58.9062C122.802 58.5521 122.305 58.375 121.633 58.375C120.685 58.375 120.018 58.6432 119.633 59.1797C119.247 59.7161 119.055 60.4948 119.055 61.5156V66H117.758V57.4375H118.805L119 58.6719H119.07C119.253 58.3698 119.484 58.1172 119.766 57.9141C120.047 57.7057 120.362 57.5495 120.711 57.4453C121.06 57.3359 121.427 57.2812 121.812 57.2812ZM128.875 66H127.57V53.8438H128.875V66ZM134.82 57.2969C135.841 57.2969 136.599 57.526 137.094 57.9844C137.589 58.4427 137.836 59.1745 137.836 60.1797V66H136.891L136.641 64.7344H136.578C136.339 65.0469 136.089 65.3099 135.828 65.5234C135.568 65.7318 135.266 65.8906 134.922 66C134.583 66.1042 134.167 66.1562 133.672 66.1562C133.151 66.1562 132.688 66.0651 132.281 65.8828C131.88 65.7005 131.562 65.4245 131.328 65.0547C131.099 64.6849 130.984 64.2161 130.984 63.6484C130.984 62.7943 131.323 62.138 132 61.6797C132.677 61.2214 133.708 60.9714 135.094 60.9297L136.57 60.8672V60.3438C136.57 59.6042 136.411 59.0859 136.094 58.7891C135.776 58.4922 135.328 58.3438 134.75 58.3438C134.302 58.3438 133.875 58.4089 133.469 58.5391C133.062 58.6693 132.677 58.8229 132.312 59L131.914 58.0156C132.299 57.8177 132.742 57.6484 133.242 57.5078C133.742 57.3672 134.268 57.2969 134.82 57.2969ZM136.555 61.7812L135.25 61.8359C134.182 61.8776 133.43 62.0521 132.992 62.3594C132.555 62.6667 132.336 63.1016 132.336 63.6641C132.336 64.1536 132.484 64.5156 132.781 64.75C133.078 64.9844 133.471 65.1016 133.961 65.1016C134.721 65.1016 135.344 64.8906 135.828 64.4688C136.312 64.0469 136.555 63.4141 136.555 62.5703V61.7812ZM143.938 66.1562C143.167 66.1562 142.487 65.9974 141.898 65.6797C141.31 65.362 140.852 64.8776 140.523 64.2266C140.195 63.5755 140.031 62.7552 140.031 61.7656C140.031 60.7292 140.203 59.8828 140.547 59.2266C140.896 58.5651 141.375 58.0755 141.984 57.7578C142.594 57.4401 143.286 57.2812 144.062 57.2812C144.49 57.2812 144.901 57.3255 145.297 57.4141C145.698 57.4974 146.026 57.6042 146.281 57.7344L145.891 58.8203C145.63 58.7161 145.328 58.6224 144.984 58.5391C144.646 58.4557 144.328 58.4141 144.031 58.4141C143.438 58.4141 142.943 58.5417 142.547 58.7969C142.156 59.0521 141.862 59.4271 141.664 59.9219C141.471 60.4167 141.375 61.026 141.375 61.75C141.375 62.4427 141.469 63.0339 141.656 63.5234C141.849 64.013 142.133 64.388 142.508 64.6484C142.888 64.9036 143.362 65.0312 143.93 65.0312C144.383 65.0312 144.792 64.9844 145.156 64.8906C145.521 64.7917 145.852 64.6771 146.148 64.5469V65.7031C145.862 65.849 145.542 65.9609 145.188 66.0391C144.839 66.1172 144.422 66.1562 143.938 66.1562ZM151.477 57.2812C152.206 57.2812 152.831 57.4427 153.352 57.7656C153.872 58.0885 154.271 58.5417 154.547 59.125C154.823 59.7031 154.961 60.3802 154.961 61.1562V61.9609H149.047C149.062 62.9661 149.312 63.7318 149.797 64.2578C150.281 64.7839 150.964 65.0469 151.844 65.0469C152.385 65.0469 152.865 64.9974 153.281 64.8984C153.698 64.7995 154.13 64.6536 154.578 64.4609V65.6016C154.146 65.7943 153.716 65.9349 153.289 66.0234C152.867 66.112 152.367 66.1562 151.789 66.1562C150.966 66.1562 150.247 65.9896 149.633 65.6562C149.023 65.3177 148.549 64.8229 148.211 64.1719C147.872 63.5208 147.703 62.724 147.703 61.7812C147.703 60.8594 147.857 60.0625 148.164 59.3906C148.477 58.7135 148.914 58.1927 149.477 57.8281C150.044 57.4635 150.711 57.2812 151.477 57.2812ZM151.461 58.3438C150.768 58.3438 150.216 58.5703 149.805 59.0234C149.393 59.4766 149.148 60.1094 149.07 60.9219H153.602C153.596 60.4115 153.516 59.9635 153.359 59.5781C153.208 59.1875 152.977 58.8854 152.664 58.6719C152.352 58.4531 151.951 58.3438 151.461 58.3438ZM164.617 57.2812C165.346 57.2812 165.971 57.4427 166.492 57.7656C167.013 58.0885 167.411 58.5417 167.688 59.125C167.964 59.7031 168.102 60.3802 168.102 61.1562V61.9609H162.188C162.203 62.9661 162.453 63.7318 162.938 64.2578C163.422 64.7839 164.104 65.0469 164.984 65.0469C165.526 65.0469 166.005 64.9974 166.422 64.8984C166.839 64.7995 167.271 64.6536 167.719 64.4609V65.6016C167.286 65.7943 166.857 65.9349 166.43 66.0234C166.008 66.112 165.508 66.1562 164.93 66.1562C164.107 66.1562 163.388 65.9896 162.773 65.6562C162.164 65.3177 161.69 64.8229 161.352 64.1719C161.013 63.5208 160.844 62.724 160.844 61.7812C160.844 60.8594 160.997 60.0625 161.305 59.3906C161.617 58.7135 162.055 58.1927 162.617 57.8281C163.185 57.4635 163.852 57.2812 164.617 57.2812ZM164.602 58.3438C163.909 58.3438 163.357 58.5703 162.945 59.0234C162.534 59.4766 162.289 60.1094 162.211 60.9219H166.742C166.737 60.4115 166.656 59.9635 166.5 59.5781C166.349 59.1875 166.117 58.8854 165.805 58.6719C165.492 58.4531 165.091 58.3438 164.602 58.3438ZM172.344 61.6172L169.383 57.4375H170.867L173.125 60.7344L175.375 57.4375H176.844L173.883 61.6172L177.008 66H175.523L173.125 62.5078L170.711 66H169.242L172.344 61.6172ZM181.445 65.0938C181.659 65.0938 181.878 65.0755 182.102 65.0391C182.326 65.0026 182.508 64.9583 182.648 64.9062V65.9141C182.497 65.9818 182.286 66.0391 182.016 66.0859C181.75 66.1328 181.49 66.1562 181.234 66.1562C180.781 66.1562 180.37 66.0781 180 65.9219C179.63 65.7604 179.333 65.4896 179.109 65.1094C178.891 64.7292 178.781 64.2031 178.781 63.5312V58.4531H177.562V57.8203L178.789 57.3125L179.305 55.4531H180.086V57.4375H182.594V58.4531H180.086V63.4922C180.086 64.0286 180.208 64.4297 180.453 64.6953C180.703 64.9609 181.034 65.0938 181.445 65.0938ZM187.68 57.2812C188.409 57.2812 189.034 57.4427 189.555 57.7656C190.076 58.0885 190.474 58.5417 190.75 59.125C191.026 59.7031 191.164 60.3802 191.164 61.1562V61.9609H185.25C185.266 62.9661 185.516 63.7318 186 64.2578C186.484 64.7839 187.167 65.0469 188.047 65.0469C188.589 65.0469 189.068 64.9974 189.484 64.8984C189.901 64.7995 190.333 64.6536 190.781 64.4609V65.6016C190.349 65.7943 189.919 65.9349 189.492 66.0234C189.07 66.112 188.57 66.1562 187.992 66.1562C187.169 66.1562 186.451 65.9896 185.836 65.6562C185.227 65.3177 184.753 64.8229 184.414 64.1719C184.076 63.5208 183.906 62.724 183.906 61.7812C183.906 60.8594 184.06 60.0625 184.367 59.3906C184.68 58.7135 185.117 58.1927 185.68 57.8281C186.247 57.4635 186.914 57.2812 187.68 57.2812ZM187.664 58.3438C186.971 58.3438 186.419 58.5703 186.008 59.0234C185.596 59.4766 185.352 60.1094 185.273 60.9219H189.805C189.799 60.4115 189.719 59.9635 189.562 59.5781C189.411 59.1875 189.18 58.8854 188.867 58.6719C188.555 58.4531 188.154 58.3438 187.664 58.3438ZM197.258 57.2812C197.43 57.2812 197.609 57.2917 197.797 57.3125C197.984 57.3281 198.151 57.3516 198.297 57.3828L198.133 58.5859C197.992 58.5495 197.836 58.5208 197.664 58.5C197.492 58.4792 197.331 58.4688 197.18 58.4688C196.836 58.4688 196.51 58.5391 196.203 58.6797C195.901 58.8151 195.635 59.013 195.406 59.2734C195.177 59.5286 194.997 59.8385 194.867 60.2031C194.737 60.5625 194.672 60.9635 194.672 61.4062V66H193.367V57.4375H194.445L194.586 59.0156H194.641C194.818 58.6979 195.031 58.4089 195.281 58.1484C195.531 57.8828 195.82 57.6719 196.148 57.5156C196.482 57.3594 196.852 57.2812 197.258 57.2812ZM203.969 57.2812C204.984 57.2812 205.753 57.5312 206.273 58.0312C206.794 58.526 207.055 59.3229 207.055 60.4219V66H205.773V60.5078C205.773 59.7943 205.609 59.2604 205.281 58.9062C204.958 58.5521 204.461 58.375 203.789 58.375C202.841 58.375 202.174 58.6432 201.789 59.1797C201.404 59.7161 201.211 60.4948 201.211 61.5156V66H199.914V57.4375H200.961L201.156 58.6719H201.227C201.409 58.3698 201.641 58.1172 201.922 57.9141C202.203 57.7057 202.518 57.5495 202.867 57.4453C203.216 57.3359 203.583 57.2812 203.969 57.2812ZM217.109 61.7031C217.109 62.4062 217.018 63.0339 216.836 63.5859C216.654 64.138 216.391 64.6042 216.047 64.9844C215.703 65.3646 215.286 65.6562 214.797 65.8594C214.312 66.0573 213.763 66.1562 213.148 66.1562C212.576 66.1562 212.049 66.0573 211.57 65.8594C211.096 65.6562 210.685 65.3646 210.336 64.9844C209.992 64.6042 209.724 64.138 209.531 63.5859C209.344 63.0339 209.25 62.4062 209.25 61.7031C209.25 60.7656 209.409 59.9688 209.727 59.3125C210.044 58.651 210.497 58.1484 211.086 57.8047C211.68 57.4557 212.385 57.2812 213.203 57.2812C213.984 57.2812 214.667 57.4557 215.25 57.8047C215.839 58.1536 216.294 58.6589 216.617 59.3203C216.945 59.9766 217.109 60.7708 217.109 61.7031ZM210.594 61.7031C210.594 62.3906 210.685 62.987 210.867 63.4922C211.049 63.9974 211.331 64.388 211.711 64.6641C212.091 64.9401 212.581 65.0781 213.18 65.0781C213.773 65.0781 214.26 64.9401 214.641 64.6641C215.026 64.388 215.31 63.9974 215.492 63.4922C215.674 62.987 215.766 62.3906 215.766 61.7031C215.766 61.0208 215.674 60.4323 215.492 59.9375C215.31 59.4375 215.029 59.0521 214.648 58.7812C214.268 58.5104 213.776 58.375 213.172 58.375C212.281 58.375 211.628 58.6693 211.211 59.2578C210.799 59.8464 210.594 60.6615 210.594 61.7031Z" fill="#336ACC"/>
<path d="M107.5 68.52H217.984V70.52H107.5V68.52Z" fill="#336ACC"/>
<path d="M235.5 65.8333H225.5C225.042 65.8333 224.667 65.4583 224.667 65V55C224.667 54.5417 225.042 54.1667 225.5 54.1667H229.667C230.125 54.1667 230.5 53.7917 230.5 53.3333C230.5 52.875 230.125 52.5 229.667 52.5H224.667C223.742 52.5 223 53.25 223 54.1667V65.8333C223 66.75 223.75 67.5 224.667 67.5H236.333C237.25 67.5 238 66.75 238 65.8333V60.8333C238 60.375 237.625 60 237.167 60C236.708 60 236.333 60.375 236.333 60.8333V65C236.333 65.4583 235.958 65.8333 235.5 65.8333ZM232.167 53.3333C232.167 53.7917 232.542 54.1667 233 54.1667H235.158L227.55 61.775C227.225 62.1 227.225 62.625 227.55 62.95C227.875 63.275 228.4 63.275 228.725 62.95L236.333 55.3417V57.5C236.333 57.9583 236.708 58.3333 237.167 58.3333C237.625 58.3333 238 57.9583 238 57.5V53.3333C238 52.875 237.625 52.5 237.167 52.5H233C232.542 52.5 232.167 52.875 232.167 53.3333Z" fill="#336ACC"/>
</svg>
