<svg width="348" height="240" viewBox="0 0 348 240" fill="none" xmlns="http://www.w3.org/2000/svg">
<rect x="1" y="1" width="346" height="238" rx="7" fill="white"/>
<rect x="1" y="1" width="346" height="238" rx="7" stroke="#E6EBF0" stroke-width="2"/>
<path d="M36.5469 114.578C38.0208 114.578 39.0964 114.867 39.7734 115.445C40.4557 116.018 40.7969 116.841 40.7969 117.914C40.7969 118.398 40.7161 118.859 40.5547 119.297C40.3984 119.729 40.1432 120.112 39.7891 120.445C39.4349 120.773 38.9688 121.034 38.3906 121.227C37.8177 121.414 37.1146 121.508 36.2812 121.508H34.8906V126H33.5625V114.578H36.5469ZM36.4219 115.711H34.8906V120.367H36.1328C36.862 120.367 37.4688 120.289 37.9531 120.133C38.4427 119.977 38.8099 119.724 39.0547 119.375C39.2995 119.021 39.4219 118.552 39.4219 117.969C39.4219 117.208 39.1797 116.643 38.6953 116.273C38.2109 115.898 37.4531 115.711 36.4219 115.711ZM46.1953 117.297C47.2161 117.297 47.974 117.526 48.4688 117.984C48.9635 118.443 49.2109 119.174 49.2109 120.18V126H48.2656L48.0156 124.734H47.9531C47.7135 125.047 47.4635 125.31 47.2031 125.523C46.9427 125.732 46.6406 125.891 46.2969 126C45.9583 126.104 45.5417 126.156 45.0469 126.156C44.526 126.156 44.0625 126.065 43.6562 125.883C43.2552 125.701 42.9375 125.424 42.7031 125.055C42.474 124.685 42.3594 124.216 42.3594 123.648C42.3594 122.794 42.6979 122.138 43.375 121.68C44.0521 121.221 45.0833 120.971 46.4688 120.93L47.9453 120.867V120.344C47.9453 119.604 47.7865 119.086 47.4688 118.789C47.151 118.492 46.7031 118.344 46.125 118.344C45.6771 118.344 45.25 118.409 44.8438 118.539C44.4375 118.669 44.0521 118.823 43.6875 119L43.2891 118.016C43.6745 117.818 44.1172 117.648 44.6172 117.508C45.1172 117.367 45.6432 117.297 46.1953 117.297ZM47.9297 121.781L46.625 121.836C45.5573 121.878 44.8047 122.052 44.3672 122.359C43.9297 122.667 43.7109 123.102 43.7109 123.664C43.7109 124.154 43.8594 124.516 44.1562 124.75C44.4531 124.984 44.8464 125.102 45.3359 125.102C46.0964 125.102 46.7188 124.891 47.2031 124.469C47.6875 124.047 47.9297 123.414 47.9297 122.57V121.781ZM55.7734 117.281C55.9453 117.281 56.125 117.292 56.3125 117.312C56.5 117.328 56.6667 117.352 56.8125 117.383L56.6484 118.586C56.5078 118.549 56.3516 118.521 56.1797 118.5C56.0078 118.479 55.8464 118.469 55.6953 118.469C55.3516 118.469 55.026 118.539 54.7188 118.68C54.4167 118.815 54.151 119.013 53.9219 119.273C53.6927 119.529 53.513 119.839 53.3828 120.203C53.2526 120.562 53.1875 120.964 53.1875 121.406V126H51.8828V117.438H52.9609L53.1016 119.016H53.1562C53.3333 118.698 53.5469 118.409 53.7969 118.148C54.0469 117.883 54.3359 117.672 54.6641 117.516C54.9974 117.359 55.3672 117.281 55.7734 117.281ZM61.6328 117.297C62.6536 117.297 63.4115 117.526 63.9062 117.984C64.401 118.443 64.6484 119.174 64.6484 120.18V126H63.7031L63.4531 124.734H63.3906C63.151 125.047 62.901 125.31 62.6406 125.523C62.3802 125.732 62.0781 125.891 61.7344 126C61.3958 126.104 60.9792 126.156 60.4844 126.156C59.9635 126.156 59.5 126.065 59.0938 125.883C58.6927 125.701 58.375 125.424 58.1406 125.055C57.9115 124.685 57.7969 124.216 57.7969 123.648C57.7969 122.794 58.1354 122.138 58.8125 121.68C59.4896 121.221 60.5208 120.971 61.9062 120.93L63.3828 120.867V120.344C63.3828 119.604 63.224 119.086 62.9062 118.789C62.5885 118.492 62.1406 118.344 61.5625 118.344C61.1146 118.344 60.6875 118.409 60.2812 118.539C59.875 118.669 59.4896 118.823 59.125 119L58.7266 118.016C59.112 117.818 59.5547 117.648 60.0547 117.508C60.5547 117.367 61.0807 117.297 61.6328 117.297ZM63.3672 121.781L62.0625 121.836C60.9948 121.878 60.2422 122.052 59.8047 122.359C59.3672 122.667 59.1484 123.102 59.1484 123.664C59.1484 124.154 59.2969 124.516 59.5938 124.75C59.8906 124.984 60.2839 125.102 60.7734 125.102C61.5339 125.102 62.1562 124.891 62.6406 124.469C63.125 124.047 63.3672 123.414 63.3672 122.57V121.781ZM80.7734 117.281C81.7161 117.281 82.4271 117.529 82.9062 118.023C83.3854 118.513 83.625 119.302 83.625 120.391V126H82.3438V120.453C82.3438 119.76 82.1927 119.242 81.8906 118.898C81.5938 118.549 81.151 118.375 80.5625 118.375C79.7344 118.375 79.1328 118.615 78.7578 119.094C78.3828 119.573 78.1953 120.279 78.1953 121.211V126H76.9062V120.453C76.9062 119.99 76.8385 119.604 76.7031 119.297C76.5729 118.99 76.375 118.76 76.1094 118.609C75.849 118.453 75.5182 118.375 75.1172 118.375C74.5495 118.375 74.0938 118.492 73.75 118.727C73.4062 118.961 73.1562 119.31 73 119.773C72.849 120.232 72.7734 120.797 72.7734 121.469V126H71.4766V117.438H72.5234L72.7188 118.648H72.7891C72.9609 118.352 73.1771 118.102 73.4375 117.898C73.6979 117.695 73.9896 117.542 74.3125 117.438C74.6354 117.333 74.9792 117.281 75.3438 117.281C75.9948 117.281 76.5391 117.404 76.9766 117.648C77.4193 117.888 77.7396 118.255 77.9375 118.75H78.0078C78.2891 118.255 78.6745 117.888 79.1641 117.648C79.6536 117.404 80.1901 117.281 80.7734 117.281ZM89.4922 117.297C90.513 117.297 91.2708 117.526 91.7656 117.984C92.2604 118.443 92.5078 119.174 92.5078 120.18V126H91.5625L91.3125 124.734H91.25C91.0104 125.047 90.7604 125.31 90.5 125.523C90.2396 125.732 89.9375 125.891 89.5938 126C89.2552 126.104 88.8385 126.156 88.3438 126.156C87.8229 126.156 87.3594 126.065 86.9531 125.883C86.5521 125.701 86.2344 125.424 86 125.055C85.7708 124.685 85.6562 124.216 85.6562 123.648C85.6562 122.794 85.9948 122.138 86.6719 121.68C87.349 121.221 88.3802 120.971 89.7656 120.93L91.2422 120.867V120.344C91.2422 119.604 91.0833 119.086 90.7656 118.789C90.4479 118.492 90 118.344 89.4219 118.344C88.974 118.344 88.5469 118.409 88.1406 118.539C87.7344 118.669 87.349 118.823 86.9844 119L86.5859 118.016C86.9714 117.818 87.4141 117.648 87.9141 117.508C88.4141 117.367 88.9401 117.297 89.4922 117.297ZM91.2266 121.781L89.9219 121.836C88.8542 121.878 88.1016 122.052 87.6641 122.359C87.2266 122.667 87.0078 123.102 87.0078 123.664C87.0078 124.154 87.1562 124.516 87.4531 124.75C87.75 124.984 88.1432 125.102 88.6328 125.102C89.3932 125.102 90.0156 124.891 90.5 124.469C90.9844 124.047 91.2266 123.414 91.2266 122.57V121.781ZM100.719 123.656C100.719 124.203 100.581 124.664 100.305 125.039C100.034 125.409 99.6432 125.688 99.1328 125.875C98.6276 126.062 98.0234 126.156 97.3203 126.156C96.7214 126.156 96.2031 126.109 95.7656 126.016C95.3281 125.922 94.9453 125.789 94.6172 125.617V124.422C94.9661 124.594 95.3828 124.75 95.8672 124.891C96.3516 125.031 96.8464 125.102 97.3516 125.102C98.0911 125.102 98.6276 124.982 98.9609 124.742C99.2943 124.503 99.4609 124.177 99.4609 123.766C99.4609 123.531 99.3932 123.326 99.2578 123.148C99.1276 122.966 98.9062 122.792 98.5938 122.625C98.2812 122.453 97.849 122.266 97.2969 122.062C96.75 121.854 96.276 121.648 95.875 121.445C95.4792 121.237 95.1719 120.984 94.9531 120.688C94.7396 120.391 94.6328 120.005 94.6328 119.531C94.6328 118.807 94.9245 118.253 95.5078 117.867C96.0964 117.477 96.8672 117.281 97.8203 117.281C98.3359 117.281 98.8177 117.333 99.2656 117.438C99.7188 117.536 100.141 117.672 100.531 117.844L100.094 118.883C99.7396 118.732 99.362 118.604 98.9609 118.5C98.5599 118.396 98.151 118.344 97.7344 118.344C97.1354 118.344 96.6745 118.443 96.3516 118.641C96.0339 118.839 95.875 119.109 95.875 119.453C95.875 119.719 95.9479 119.938 96.0938 120.109C96.2448 120.281 96.4844 120.443 96.8125 120.594C97.1406 120.745 97.5729 120.922 98.1094 121.125C98.6458 121.323 99.1094 121.529 99.5 121.742C99.8906 121.951 100.19 122.206 100.398 122.508C100.612 122.805 100.719 123.188 100.719 123.656ZM108.258 117.438V126H106.961V117.438H108.258ZM107.625 114.234C107.839 114.234 108.021 114.305 108.172 114.445C108.328 114.581 108.406 114.794 108.406 115.086C108.406 115.372 108.328 115.586 108.172 115.727C108.021 115.867 107.839 115.938 107.625 115.938C107.401 115.938 107.214 115.867 107.062 115.727C106.917 115.586 106.844 115.372 106.844 115.086C106.844 114.794 106.917 114.581 107.062 114.445C107.214 114.305 107.401 114.234 107.625 114.234ZM115.062 117.281C116.078 117.281 116.846 117.531 117.367 118.031C117.888 118.526 118.148 119.323 118.148 120.422V126H116.867V120.508C116.867 119.794 116.703 119.26 116.375 118.906C116.052 118.552 115.555 118.375 114.883 118.375C113.935 118.375 113.268 118.643 112.883 119.18C112.497 119.716 112.305 120.495 112.305 121.516V126H111.008V117.438H112.055L112.25 118.672H112.32C112.503 118.37 112.734 118.117 113.016 117.914C113.297 117.706 113.612 117.549 113.961 117.445C114.31 117.336 114.677 117.281 115.062 117.281ZM124.633 118.453H122.5V126H121.203V118.453H119.688V117.828L121.203 117.398V116.828C121.203 116.109 121.31 115.526 121.523 115.078C121.737 114.625 122.047 114.292 122.453 114.078C122.859 113.865 123.354 113.758 123.938 113.758C124.266 113.758 124.565 113.786 124.836 113.844C125.112 113.901 125.354 113.966 125.562 114.039L125.227 115.062C125.049 115.005 124.849 114.953 124.625 114.906C124.406 114.854 124.182 114.828 123.953 114.828C123.458 114.828 123.091 114.99 122.852 115.312C122.617 115.63 122.5 116.13 122.5 116.812V117.438H124.633V118.453ZM133.594 121.703C133.594 122.406 133.503 123.034 133.32 123.586C133.138 124.138 132.875 124.604 132.531 124.984C132.188 125.365 131.771 125.656 131.281 125.859C130.797 126.057 130.247 126.156 129.633 126.156C129.06 126.156 128.534 126.057 128.055 125.859C127.581 125.656 127.169 125.365 126.82 124.984C126.477 124.604 126.208 124.138 126.016 123.586C125.828 123.034 125.734 122.406 125.734 121.703C125.734 120.766 125.893 119.969 126.211 119.312C126.529 118.651 126.982 118.148 127.57 117.805C128.164 117.456 128.87 117.281 129.688 117.281C130.469 117.281 131.151 117.456 131.734 117.805C132.323 118.154 132.779 118.659 133.102 119.32C133.43 119.977 133.594 120.771 133.594 121.703ZM127.078 121.703C127.078 122.391 127.169 122.987 127.352 123.492C127.534 123.997 127.815 124.388 128.195 124.664C128.576 124.94 129.065 125.078 129.664 125.078C130.258 125.078 130.745 124.94 131.125 124.664C131.51 124.388 131.794 123.997 131.977 123.492C132.159 122.987 132.25 122.391 132.25 121.703C132.25 121.021 132.159 120.432 131.977 119.938C131.794 119.438 131.513 119.052 131.133 118.781C130.753 118.51 130.26 118.375 129.656 118.375C128.766 118.375 128.112 118.669 127.695 119.258C127.284 119.846 127.078 120.661 127.078 121.703ZM139.727 117.281C139.898 117.281 140.078 117.292 140.266 117.312C140.453 117.328 140.62 117.352 140.766 117.383L140.602 118.586C140.461 118.549 140.305 118.521 140.133 118.5C139.961 118.479 139.799 118.469 139.648 118.469C139.305 118.469 138.979 118.539 138.672 118.68C138.37 118.815 138.104 119.013 137.875 119.273C137.646 119.529 137.466 119.839 137.336 120.203C137.206 120.562 137.141 120.964 137.141 121.406V126H135.836V117.438H136.914L137.055 119.016H137.109C137.286 118.698 137.5 118.409 137.75 118.148C138 117.883 138.289 117.672 138.617 117.516C138.951 117.359 139.32 117.281 139.727 117.281ZM151.68 117.281C152.622 117.281 153.333 117.529 153.812 118.023C154.292 118.513 154.531 119.302 154.531 120.391V126H153.25V120.453C153.25 119.76 153.099 119.242 152.797 118.898C152.5 118.549 152.057 118.375 151.469 118.375C150.641 118.375 150.039 118.615 149.664 119.094C149.289 119.573 149.102 120.279 149.102 121.211V126H147.812V120.453C147.812 119.99 147.745 119.604 147.609 119.297C147.479 118.99 147.281 118.76 147.016 118.609C146.755 118.453 146.424 118.375 146.023 118.375C145.456 118.375 145 118.492 144.656 118.727C144.312 118.961 144.062 119.31 143.906 119.773C143.755 120.232 143.68 120.797 143.68 121.469V126H142.383V117.438H143.43L143.625 118.648H143.695C143.867 118.352 144.083 118.102 144.344 117.898C144.604 117.695 144.896 117.542 145.219 117.438C145.542 117.333 145.885 117.281 146.25 117.281C146.901 117.281 147.445 117.404 147.883 117.648C148.326 117.888 148.646 118.255 148.844 118.75H148.914C149.195 118.255 149.581 117.888 150.07 117.648C150.56 117.404 151.096 117.281 151.68 117.281ZM160.398 117.297C161.419 117.297 162.177 117.526 162.672 117.984C163.167 118.443 163.414 119.174 163.414 120.18V126H162.469L162.219 124.734H162.156C161.917 125.047 161.667 125.31 161.406 125.523C161.146 125.732 160.844 125.891 160.5 126C160.161 126.104 159.745 126.156 159.25 126.156C158.729 126.156 158.266 126.065 157.859 125.883C157.458 125.701 157.141 125.424 156.906 125.055C156.677 124.685 156.562 124.216 156.562 123.648C156.562 122.794 156.901 122.138 157.578 121.68C158.255 121.221 159.286 120.971 160.672 120.93L162.148 120.867V120.344C162.148 119.604 161.99 119.086 161.672 118.789C161.354 118.492 160.906 118.344 160.328 118.344C159.88 118.344 159.453 118.409 159.047 118.539C158.641 118.669 158.255 118.823 157.891 119L157.492 118.016C157.878 117.818 158.32 117.648 158.82 117.508C159.32 117.367 159.846 117.297 160.398 117.297ZM162.133 121.781L160.828 121.836C159.76 121.878 159.008 122.052 158.57 122.359C158.133 122.667 157.914 123.102 157.914 123.664C157.914 124.154 158.062 124.516 158.359 124.75C158.656 124.984 159.049 125.102 159.539 125.102C160.299 125.102 160.922 124.891 161.406 124.469C161.891 124.047 162.133 123.414 162.133 122.57V121.781ZM169.516 126.156C168.745 126.156 168.065 125.997 167.477 125.68C166.888 125.362 166.43 124.878 166.102 124.227C165.773 123.576 165.609 122.755 165.609 121.766C165.609 120.729 165.781 119.883 166.125 119.227C166.474 118.565 166.953 118.076 167.562 117.758C168.172 117.44 168.865 117.281 169.641 117.281C170.068 117.281 170.479 117.326 170.875 117.414C171.276 117.497 171.604 117.604 171.859 117.734L171.469 118.82C171.208 118.716 170.906 118.622 170.562 118.539C170.224 118.456 169.906 118.414 169.609 118.414C169.016 118.414 168.521 118.542 168.125 118.797C167.734 119.052 167.44 119.427 167.242 119.922C167.049 120.417 166.953 121.026 166.953 121.75C166.953 122.443 167.047 123.034 167.234 123.523C167.427 124.013 167.711 124.388 168.086 124.648C168.466 124.904 168.94 125.031 169.508 125.031C169.961 125.031 170.37 124.984 170.734 124.891C171.099 124.792 171.43 124.677 171.727 124.547V125.703C171.44 125.849 171.12 125.961 170.766 126.039C170.417 126.117 170 126.156 169.516 126.156ZM175.055 117.438V126H173.758V117.438H175.055ZM174.422 114.234C174.635 114.234 174.818 114.305 174.969 114.445C175.125 114.581 175.203 114.794 175.203 115.086C175.203 115.372 175.125 115.586 174.969 115.727C174.818 115.867 174.635 115.938 174.422 115.938C174.198 115.938 174.01 115.867 173.859 115.727C173.714 115.586 173.641 115.372 173.641 115.086C173.641 114.794 173.714 114.581 173.859 114.445C174.01 114.305 174.198 114.234 174.422 114.234ZM185.188 121.703C185.188 122.406 185.096 123.034 184.914 123.586C184.732 124.138 184.469 124.604 184.125 124.984C183.781 125.365 183.365 125.656 182.875 125.859C182.391 126.057 181.841 126.156 181.227 126.156C180.654 126.156 180.128 126.057 179.648 125.859C179.174 125.656 178.763 125.365 178.414 124.984C178.07 124.604 177.802 124.138 177.609 123.586C177.422 123.034 177.328 122.406 177.328 121.703C177.328 120.766 177.487 119.969 177.805 119.312C178.122 118.651 178.576 118.148 179.164 117.805C179.758 117.456 180.464 117.281 181.281 117.281C182.062 117.281 182.745 117.456 183.328 117.805C183.917 118.154 184.372 118.659 184.695 119.32C185.023 119.977 185.188 120.771 185.188 121.703ZM178.672 121.703C178.672 122.391 178.763 122.987 178.945 123.492C179.128 123.997 179.409 124.388 179.789 124.664C180.169 124.94 180.659 125.078 181.258 125.078C181.852 125.078 182.339 124.94 182.719 124.664C183.104 124.388 183.388 123.997 183.57 123.492C183.753 122.987 183.844 122.391 183.844 121.703C183.844 121.021 183.753 120.432 183.57 119.938C183.388 119.438 183.107 119.052 182.727 118.781C182.346 118.51 181.854 118.375 181.25 118.375C180.359 118.375 179.706 118.669 179.289 119.258C178.878 119.846 178.672 120.661 178.672 121.703ZM183.523 113.742V113.898C183.419 114.049 183.276 114.232 183.094 114.445C182.917 114.654 182.719 114.875 182.5 115.109C182.281 115.339 182.06 115.557 181.836 115.766C181.617 115.974 181.414 116.154 181.227 116.305H180.359V116.117C180.526 115.919 180.708 115.682 180.906 115.406C181.104 115.125 181.297 114.839 181.484 114.547C181.672 114.25 181.828 113.982 181.953 113.742H183.523ZM191.484 117.281C192.5 117.281 193.268 117.531 193.789 118.031C194.31 118.526 194.57 119.323 194.57 120.422V126H193.289V120.508C193.289 119.794 193.125 119.26 192.797 118.906C192.474 118.552 191.977 118.375 191.305 118.375C190.357 118.375 189.69 118.643 189.305 119.18C188.919 119.716 188.727 120.495 188.727 121.516V126H187.43V117.438H188.477L188.672 118.672H188.742C188.924 118.37 189.156 118.117 189.438 117.914C189.719 117.706 190.034 117.549 190.383 117.445C190.732 117.336 191.099 117.281 191.484 117.281ZM202.695 117.438V126H201.398V117.438H202.695ZM202.062 114.234C202.276 114.234 202.458 114.305 202.609 114.445C202.766 114.581 202.844 114.794 202.844 115.086C202.844 115.372 202.766 115.586 202.609 115.727C202.458 115.867 202.276 115.938 202.062 115.938C201.839 115.938 201.651 115.867 201.5 115.727C201.354 115.586 201.281 115.372 201.281 115.086C201.281 114.794 201.354 114.581 201.5 114.445C201.651 114.305 201.839 114.234 202.062 114.234ZM209.5 117.281C210.516 117.281 211.284 117.531 211.805 118.031C212.326 118.526 212.586 119.323 212.586 120.422V126H211.305V120.508C211.305 119.794 211.141 119.26 210.812 118.906C210.49 118.552 209.992 118.375 209.32 118.375C208.372 118.375 207.706 118.643 207.32 119.18C206.935 119.716 206.742 120.495 206.742 121.516V126H205.445V117.438H206.492L206.688 118.672H206.758C206.94 118.37 207.172 118.117 207.453 117.914C207.734 117.706 208.049 117.549 208.398 117.445C208.747 117.336 209.115 117.281 209.5 117.281ZM217.648 129.844C216.523 129.844 215.656 129.633 215.047 129.211C214.438 128.794 214.133 128.208 214.133 127.453C214.133 126.917 214.302 126.458 214.641 126.078C214.984 125.698 215.458 125.445 216.062 125.32C215.839 125.216 215.646 125.06 215.484 124.852C215.328 124.643 215.25 124.404 215.25 124.133C215.25 123.82 215.336 123.547 215.508 123.312C215.685 123.073 215.953 122.844 216.312 122.625C215.865 122.443 215.5 122.135 215.219 121.703C214.943 121.266 214.805 120.758 214.805 120.18C214.805 119.565 214.932 119.042 215.188 118.609C215.443 118.172 215.812 117.839 216.297 117.609C216.781 117.38 217.367 117.266 218.055 117.266C218.206 117.266 218.357 117.273 218.508 117.289C218.664 117.299 218.812 117.318 218.953 117.344C219.094 117.365 219.216 117.391 219.32 117.422H222.258V118.258L220.68 118.453C220.836 118.656 220.966 118.901 221.07 119.188C221.174 119.474 221.227 119.792 221.227 120.141C221.227 120.995 220.938 121.674 220.359 122.18C219.781 122.68 218.987 122.93 217.977 122.93C217.737 122.93 217.492 122.909 217.242 122.867C216.987 123.008 216.792 123.164 216.656 123.336C216.526 123.508 216.461 123.706 216.461 123.93C216.461 124.096 216.51 124.229 216.609 124.328C216.714 124.427 216.862 124.5 217.055 124.547C217.247 124.589 217.479 124.609 217.75 124.609H219.258C220.19 124.609 220.904 124.805 221.398 125.195C221.898 125.586 222.148 126.156 222.148 126.906C222.148 127.854 221.763 128.581 220.992 129.086C220.221 129.591 219.107 129.844 217.648 129.844ZM217.688 128.828C218.396 128.828 218.982 128.755 219.445 128.609C219.914 128.469 220.263 128.263 220.492 127.992C220.727 127.727 220.844 127.409 220.844 127.039C220.844 126.695 220.766 126.435 220.609 126.258C220.453 126.086 220.224 125.971 219.922 125.914C219.62 125.852 219.25 125.82 218.812 125.82H217.328C216.943 125.82 216.607 125.88 216.32 126C216.034 126.12 215.812 126.297 215.656 126.531C215.505 126.766 215.43 127.057 215.43 127.406C215.43 127.87 215.625 128.221 216.016 128.461C216.406 128.706 216.964 128.828 217.688 128.828ZM218.023 121.984C218.643 121.984 219.109 121.828 219.422 121.516C219.734 121.203 219.891 120.747 219.891 120.148C219.891 119.508 219.732 119.029 219.414 118.711C219.096 118.388 218.628 118.227 218.008 118.227C217.414 118.227 216.956 118.393 216.633 118.727C216.315 119.055 216.156 119.536 216.156 120.172C216.156 120.755 216.318 121.203 216.641 121.516C216.964 121.828 217.424 121.984 218.023 121.984ZM227.836 117.281C228.008 117.281 228.188 117.292 228.375 117.312C228.562 117.328 228.729 117.352 228.875 117.383L228.711 118.586C228.57 118.549 228.414 118.521 228.242 118.5C228.07 118.479 227.909 118.469 227.758 118.469C227.414 118.469 227.089 118.539 226.781 118.68C226.479 118.815 226.214 119.013 225.984 119.273C225.755 119.529 225.576 119.839 225.445 120.203C225.315 120.562 225.25 120.964 225.25 121.406V126H223.945V117.438H225.023L225.164 119.016H225.219C225.396 118.698 225.609 118.409 225.859 118.148C226.109 117.883 226.398 117.672 226.727 117.516C227.06 117.359 227.43 117.281 227.836 117.281ZM233.789 117.281C234.518 117.281 235.143 117.443 235.664 117.766C236.185 118.089 236.583 118.542 236.859 119.125C237.135 119.703 237.273 120.38 237.273 121.156V121.961H231.359C231.375 122.966 231.625 123.732 232.109 124.258C232.594 124.784 233.276 125.047 234.156 125.047C234.698 125.047 235.177 124.997 235.594 124.898C236.01 124.799 236.443 124.654 236.891 124.461V125.602C236.458 125.794 236.029 125.935 235.602 126.023C235.18 126.112 234.68 126.156 234.102 126.156C233.279 126.156 232.56 125.99 231.945 125.656C231.336 125.318 230.862 124.823 230.523 124.172C230.185 123.521 230.016 122.724 230.016 121.781C230.016 120.859 230.169 120.062 230.477 119.391C230.789 118.714 231.227 118.193 231.789 117.828C232.357 117.464 233.023 117.281 233.789 117.281ZM233.773 118.344C233.081 118.344 232.529 118.57 232.117 119.023C231.706 119.477 231.461 120.109 231.383 120.922H235.914C235.909 120.411 235.828 119.964 235.672 119.578C235.521 119.188 235.289 118.885 234.977 118.672C234.664 118.453 234.263 118.344 233.773 118.344ZM245.016 123.656C245.016 124.203 244.878 124.664 244.602 125.039C244.331 125.409 243.94 125.688 243.43 125.875C242.924 126.062 242.32 126.156 241.617 126.156C241.018 126.156 240.5 126.109 240.062 126.016C239.625 125.922 239.242 125.789 238.914 125.617V124.422C239.263 124.594 239.68 124.75 240.164 124.891C240.648 125.031 241.143 125.102 241.648 125.102C242.388 125.102 242.924 124.982 243.258 124.742C243.591 124.503 243.758 124.177 243.758 123.766C243.758 123.531 243.69 123.326 243.555 123.148C243.424 122.966 243.203 122.792 242.891 122.625C242.578 122.453 242.146 122.266 241.594 122.062C241.047 121.854 240.573 121.648 240.172 121.445C239.776 121.237 239.469 120.984 239.25 120.688C239.036 120.391 238.93 120.005 238.93 119.531C238.93 118.807 239.221 118.253 239.805 117.867C240.393 117.477 241.164 117.281 242.117 117.281C242.633 117.281 243.115 117.333 243.562 117.438C244.016 117.536 244.438 117.672 244.828 117.844L244.391 118.883C244.036 118.732 243.659 118.604 243.258 118.5C242.857 118.396 242.448 118.344 242.031 118.344C241.432 118.344 240.971 118.443 240.648 118.641C240.331 118.839 240.172 119.109 240.172 119.453C240.172 119.719 240.245 119.938 240.391 120.109C240.542 120.281 240.781 120.443 241.109 120.594C241.438 120.745 241.87 120.922 242.406 121.125C242.943 121.323 243.406 121.529 243.797 121.742C244.188 121.951 244.487 122.206 244.695 122.508C244.909 122.805 245.016 123.188 245.016 123.656ZM250.305 117.297C251.326 117.297 252.083 117.526 252.578 117.984C253.073 118.443 253.32 119.174 253.32 120.18V126H252.375L252.125 124.734H252.062C251.823 125.047 251.573 125.31 251.312 125.523C251.052 125.732 250.75 125.891 250.406 126C250.068 126.104 249.651 126.156 249.156 126.156C248.635 126.156 248.172 126.065 247.766 125.883C247.365 125.701 247.047 125.424 246.812 125.055C246.583 124.685 246.469 124.216 246.469 123.648C246.469 122.794 246.807 122.138 247.484 121.68C248.161 121.221 249.193 120.971 250.578 120.93L252.055 120.867V120.344C252.055 119.604 251.896 119.086 251.578 118.789C251.26 118.492 250.812 118.344 250.234 118.344C249.786 118.344 249.359 118.409 248.953 118.539C248.547 118.669 248.161 118.823 247.797 119L247.398 118.016C247.784 117.818 248.227 117.648 248.727 117.508C249.227 117.367 249.753 117.297 250.305 117.297ZM252.039 121.781L250.734 121.836C249.667 121.878 248.914 122.052 248.477 122.359C248.039 122.667 247.82 123.102 247.82 123.664C247.82 124.154 247.969 124.516 248.266 124.75C248.562 124.984 248.956 125.102 249.445 125.102C250.206 125.102 250.828 124.891 251.312 124.469C251.797 124.047 252.039 123.414 252.039 122.57V121.781ZM252.445 113.742V113.898C252.341 114.049 252.198 114.232 252.016 114.445C251.839 114.654 251.641 114.875 251.422 115.109C251.203 115.339 250.982 115.557 250.758 115.766C250.539 115.974 250.336 116.154 250.148 116.305H249.281V116.117C249.448 115.919 249.63 115.682 249.828 115.406C250.026 115.125 250.219 114.839 250.406 114.547C250.594 114.25 250.75 113.982 250.875 113.742H252.445ZM285.406 125.188C285.406 124.823 285.495 124.565 285.672 124.414C285.849 124.258 286.065 124.18 286.32 124.18C286.586 124.18 286.81 124.258 286.992 124.414C287.174 124.565 287.266 124.823 287.266 125.188C287.266 125.547 287.174 125.81 286.992 125.977C286.81 126.138 286.586 126.219 286.32 126.219C286.065 126.219 285.849 126.138 285.672 125.977C285.495 125.81 285.406 125.547 285.406 125.188Z" fill="#101E37"/>
<path d="M263.352 117.297C264.372 117.297 265.13 117.526 265.625 117.984C266.12 118.443 266.367 119.174 266.367 120.18V126H265.422L265.172 124.734H265.109C264.87 125.047 264.62 125.31 264.359 125.523C264.099 125.732 263.797 125.891 263.453 126C263.115 126.104 262.698 126.156 262.203 126.156C261.682 126.156 261.219 126.065 260.812 125.883C260.411 125.701 260.094 125.424 259.859 125.055C259.63 124.685 259.516 124.216 259.516 123.648C259.516 122.794 259.854 122.138 260.531 121.68C261.208 121.221 262.24 120.971 263.625 120.93L265.102 120.867V120.344C265.102 119.604 264.943 119.086 264.625 118.789C264.307 118.492 263.859 118.344 263.281 118.344C262.833 118.344 262.406 118.409 262 118.539C261.594 118.669 261.208 118.823 260.844 119L260.445 118.016C260.831 117.818 261.273 117.648 261.773 117.508C262.273 117.367 262.799 117.297 263.352 117.297ZM265.086 121.781L263.781 121.836C262.714 121.878 261.961 122.052 261.523 122.359C261.086 122.667 260.867 123.102 260.867 123.664C260.867 124.154 261.016 124.516 261.312 124.75C261.609 124.984 262.003 125.102 262.492 125.102C263.253 125.102 263.875 124.891 264.359 124.469C264.844 124.047 265.086 123.414 265.086 122.57V121.781ZM272.469 126.156C271.698 126.156 271.018 125.997 270.43 125.68C269.841 125.362 269.383 124.878 269.055 124.227C268.727 123.576 268.562 122.755 268.562 121.766C268.562 120.729 268.734 119.883 269.078 119.227C269.427 118.565 269.906 118.076 270.516 117.758C271.125 117.44 271.818 117.281 272.594 117.281C273.021 117.281 273.432 117.326 273.828 117.414C274.229 117.497 274.557 117.604 274.812 117.734L274.422 118.82C274.161 118.716 273.859 118.622 273.516 118.539C273.177 118.456 272.859 118.414 272.562 118.414C271.969 118.414 271.474 118.542 271.078 118.797C270.688 119.052 270.393 119.427 270.195 119.922C270.003 120.417 269.906 121.026 269.906 121.75C269.906 122.443 270 123.034 270.188 123.523C270.38 124.013 270.664 124.388 271.039 124.648C271.419 124.904 271.893 125.031 272.461 125.031C272.914 125.031 273.323 124.984 273.688 124.891C274.052 124.792 274.383 124.677 274.68 124.547V125.703C274.393 125.849 274.073 125.961 273.719 126.039C273.37 126.117 272.953 126.156 272.469 126.156ZM279.914 117.297C280.935 117.297 281.693 117.526 282.188 117.984C282.682 118.443 282.93 119.174 282.93 120.18V126H281.984L281.734 124.734H281.672C281.432 125.047 281.182 125.31 280.922 125.523C280.661 125.732 280.359 125.891 280.016 126C279.677 126.104 279.26 126.156 278.766 126.156C278.245 126.156 277.781 126.065 277.375 125.883C276.974 125.701 276.656 125.424 276.422 125.055C276.193 124.685 276.078 124.216 276.078 123.648C276.078 122.794 276.417 122.138 277.094 121.68C277.771 121.221 278.802 120.971 280.188 120.93L281.664 120.867V120.344C281.664 119.604 281.505 119.086 281.188 118.789C280.87 118.492 280.422 118.344 279.844 118.344C279.396 118.344 278.969 118.409 278.562 118.539C278.156 118.669 277.771 118.823 277.406 119L277.008 118.016C277.393 117.818 277.836 117.648 278.336 117.508C278.836 117.367 279.362 117.297 279.914 117.297ZM281.648 121.781L280.344 121.836C279.276 121.878 278.523 122.052 278.086 122.359C277.648 122.667 277.43 123.102 277.43 123.664C277.43 124.154 277.578 124.516 277.875 124.75C278.172 124.984 278.565 125.102 279.055 125.102C279.815 125.102 280.438 124.891 280.922 124.469C281.406 124.047 281.648 123.414 281.648 122.57V121.781ZM282.055 113.742V113.898C281.951 114.049 281.807 114.232 281.625 114.445C281.448 114.654 281.25 114.875 281.031 115.109C280.812 115.339 280.591 115.557 280.367 115.766C280.148 115.974 279.945 116.154 279.758 116.305H278.891V116.117C279.057 115.919 279.24 115.682 279.438 115.406C279.635 115.125 279.828 114.839 280.016 114.547C280.203 114.25 280.359 113.982 280.484 113.742H282.055Z" fill="#336ACC"/>
<path d="M258.781 128.52H284.234V130.52H258.781V128.52Z" fill="#336ACC"/>
</svg>
