<svg width="728" height="164" viewBox="0 0 728 164" fill="none" xmlns="http://www.w3.org/2000/svg">
<rect x="1" y="1" width="726" height="161.256" rx="7" fill="#F3F6F9"/>
<rect x="1" y="1" width="726" height="161.256" rx="7" stroke="#E6EBF0" stroke-width="2"/>
<rect width="602" height="35.2562" transform="translate(63 64)" fill="white"/>
<line x1="63" y1="98.3749" x2="665" y2="98.3749" stroke="#FFCC00" stroke-width="1.76281"/>
<g clip-path="url(#clip0_169_15569)">
<path d="M123.491 86.4486L117.067 74.0357C116.513 72.9339 115.378 72.1797 114.06 72.1797H114.057C112.741 72.1797 111.604 72.9339 111.05 74.0357L106.528 82.773C106.023 81.8743 105.218 81.1694 104.247 80.7883C105.331 80.004 106.037 78.7259 106.037 77.2842C106.037 75.6124 105.088 74.1659 103.7 73.4483C102.478 72.8053 101.082 72.4417 99.6024 72.4417H92.8387C91.4478 72.4417 90.3237 73.5658 90.3237 74.9534V87.5409C90.3237 88.9286 91.4478 90.0527 92.8387 90.0527H100.153C101.563 90.0527 102.905 89.7606 104.123 89.2398L104.586 89.0159C104.612 89.0032 104.637 88.9905 104.662 88.9778C105.102 89.7066 105.898 90.1972 106.814 90.1972C107.832 90.1972 108.708 89.5939 109.103 88.7222C109.3 88.2618 109.745 87.9363 110.269 87.9109H117.847C118.373 87.9363 118.815 88.2618 119.012 88.7222C119.406 89.5939 120.284 90.1972 121.302 90.1972C122.691 90.1972 123.815 89.0699 123.815 87.687C123.815 87.2361 123.699 86.8138 123.49 86.4502" fill="#153244"/>
</g>
<rect x="135.275" y="70.8398" width="52.5769" height="21.5769" rx="3.52562" fill="white"/>
<path d="M141.563 84.1839C141.463 84.1839 141.386 84.1575 141.333 84.1046C141.28 84.0464 141.254 83.9645 141.254 83.8587V78.8135C141.254 78.7078 141.28 78.6258 141.333 78.5676C141.386 78.5095 141.455 78.4804 141.539 78.4804C141.624 78.4804 141.685 78.4962 141.722 78.528C141.764 78.5544 141.812 78.6046 141.864 78.6787L145.323 83.2876H145.133V78.7977C145.133 78.6972 145.159 78.6205 145.212 78.5676C145.265 78.5095 145.342 78.4804 145.442 78.4804C145.537 78.4804 145.609 78.5095 145.656 78.5676C145.709 78.6205 145.736 78.6972 145.736 78.7977V83.8666C145.736 83.9671 145.712 84.0464 145.664 84.1046C145.622 84.1575 145.558 84.1839 145.474 84.1839C145.394 84.1839 145.331 84.1681 145.283 84.1364C145.236 84.1046 145.186 84.0544 145.133 83.9856L141.682 79.3768H141.864V83.8587C141.864 83.9645 141.838 84.0464 141.785 84.1046C141.732 84.1575 141.658 84.1839 141.563 84.1839ZM148.252 84.1998C147.988 84.1998 147.75 84.1496 147.538 84.0491C147.332 83.9433 147.168 83.8005 147.046 83.6207C146.925 83.4409 146.864 83.24 146.864 83.0178C146.864 82.7323 146.935 82.5075 147.078 82.3436C147.226 82.1796 147.467 82.0633 147.8 81.9945C148.138 81.9258 148.598 81.8914 149.18 81.8914H149.537V82.3118H149.188C148.76 82.3118 148.421 82.333 148.173 82.3753C147.929 82.4123 147.758 82.4784 147.657 82.5736C147.562 82.6688 147.514 82.8037 147.514 82.9782C147.514 83.195 147.588 83.3722 147.736 83.5097C147.89 83.6472 148.096 83.7159 148.355 83.7159C148.567 83.7159 148.752 83.6657 148.91 83.5652C149.074 83.4647 149.201 83.3272 149.291 83.1527C149.386 82.9782 149.434 82.7772 149.434 82.5498V81.6455C149.434 81.3176 149.368 81.0823 149.236 80.9395C149.104 80.7914 148.887 80.7174 148.585 80.7174C148.4 80.7174 148.215 80.7412 148.03 80.7888C147.845 80.8364 147.649 80.9131 147.443 81.0188C147.369 81.0558 147.305 81.0691 147.253 81.0585C147.2 81.0426 147.157 81.0135 147.126 80.9712C147.094 80.9289 147.075 80.8813 147.07 80.8284C147.065 80.7703 147.075 80.7147 147.102 80.6618C147.134 80.609 147.181 80.5667 147.245 80.5349C147.477 80.4186 147.707 80.334 147.935 80.2811C148.162 80.2282 148.379 80.2018 148.585 80.2018C148.918 80.2018 149.193 80.2573 149.41 80.3683C149.627 80.4741 149.788 80.6381 149.894 80.8602C150 81.077 150.053 81.3573 150.053 81.701V83.8508C150.053 83.9565 150.026 84.0385 149.973 84.0967C149.926 84.1549 149.854 84.1839 149.759 84.1839C149.659 84.1839 149.582 84.1549 149.529 84.0967C149.476 84.0385 149.45 83.9565 149.45 83.8508V83.232H149.521C149.479 83.433 149.397 83.6049 149.275 83.7477C149.159 83.8904 149.014 84.0015 148.839 84.0808C148.665 84.1601 148.469 84.1998 148.252 84.1998ZM152.642 84.1839C152.552 84.1839 152.473 84.1601 152.404 84.1126C152.335 84.0597 152.277 83.9803 152.229 83.8746L150.857 80.6698C150.82 80.5905 150.807 80.5164 150.817 80.4477C150.828 80.3789 150.86 80.3234 150.913 80.2811C150.965 80.2388 151.04 80.2176 151.135 80.2176C151.219 80.2176 151.285 80.2361 151.333 80.2731C151.381 80.3102 151.423 80.3763 151.46 80.4715L152.761 83.6525H152.547L153.871 80.4715C153.909 80.3763 153.951 80.3102 153.998 80.2731C154.046 80.2361 154.115 80.2176 154.205 80.2176C154.289 80.2176 154.353 80.2388 154.395 80.2811C154.443 80.3234 154.469 80.3789 154.474 80.4477C154.485 80.5111 154.474 80.5825 154.443 80.6618L153.054 83.8746C153.017 83.9803 152.962 84.0597 152.888 84.1126C152.819 84.1601 152.737 84.1839 152.642 84.1839ZM156.972 84.1998C156.564 84.1998 156.213 84.1205 155.917 83.9618C155.626 83.7979 155.398 83.5678 155.234 83.2717C155.076 82.9755 154.996 82.6212 154.996 82.2087C154.996 81.8068 155.076 81.4578 155.234 81.1616C155.393 80.8602 155.61 80.6248 155.885 80.4556C156.165 80.2864 156.488 80.2018 156.853 80.2018C157.112 80.2018 157.345 80.2467 157.551 80.3366C157.757 80.4212 157.932 80.5455 158.074 80.7094C158.222 80.8734 158.333 81.0717 158.407 81.3044C158.487 81.5371 158.526 81.7989 158.526 82.0897C158.526 82.1743 158.503 82.2378 158.455 82.2801C158.407 82.3171 158.339 82.3356 158.249 82.3356H155.488V81.9152H158.098L157.971 82.0183C157.971 81.7328 157.929 81.4921 157.844 81.2965C157.76 81.0955 157.635 80.9421 157.471 80.8364C157.313 80.7306 157.112 80.6777 156.869 80.6777C156.599 80.6777 156.369 80.7412 156.178 80.8681C155.993 80.9897 155.853 81.1616 155.758 81.3837C155.663 81.6005 155.615 81.8544 155.615 82.1453V82.1929C155.615 82.6794 155.732 83.0496 155.964 83.3034C156.202 83.5573 156.538 83.6842 156.972 83.6842C157.151 83.6842 157.329 83.6604 157.503 83.6128C157.683 83.5652 157.857 83.4859 158.027 83.3748C158.101 83.3272 158.167 83.3061 158.225 83.3114C158.288 83.3114 158.339 83.3299 158.376 83.3669C158.413 83.3986 158.437 83.4409 158.447 83.4938C158.463 83.5414 158.458 83.5943 158.431 83.6525C158.41 83.7106 158.365 83.7609 158.296 83.8032C158.122 83.9301 157.916 84.0279 157.678 84.0967C157.44 84.1654 157.204 84.1998 156.972 84.1998ZM161.162 85.6277C160.882 85.6277 160.607 85.5933 160.337 85.5246C160.072 85.4611 159.832 85.358 159.615 85.2152C159.552 85.1782 159.509 85.1332 159.488 85.0803C159.472 85.0275 159.47 84.9746 159.48 84.9217C159.491 84.8741 159.515 84.8291 159.552 84.7868C159.589 84.7498 159.631 84.726 159.678 84.7154C159.731 84.7049 159.784 84.7128 159.837 84.7392C160.07 84.882 160.292 84.9799 160.503 85.0327C160.715 85.0856 160.924 85.1121 161.13 85.1121C161.506 85.1121 161.789 85.0116 161.979 84.8106C162.175 84.6097 162.272 84.3188 162.272 83.938V83.0416H162.352C162.272 83.3484 162.103 83.5916 161.844 83.7714C161.59 83.9513 161.291 84.0412 160.948 84.0412C160.593 84.0412 160.287 83.9618 160.028 83.8032C159.768 83.6392 159.567 83.4118 159.425 83.121C159.287 82.8301 159.218 82.4943 159.218 82.1135C159.218 81.8279 159.258 81.5688 159.337 81.3361C159.417 81.0981 159.53 80.8972 159.678 80.7332C159.832 80.564 160.014 80.4344 160.226 80.3445C160.443 80.2494 160.683 80.2018 160.948 80.2018C161.297 80.2018 161.598 80.2917 161.852 80.4715C162.106 80.646 162.27 80.884 162.344 81.1854L162.265 81.2806V80.5429C162.265 80.4371 162.291 80.3578 162.344 80.3049C162.402 80.2467 162.481 80.2176 162.582 80.2176C162.688 80.2176 162.767 80.2467 162.82 80.3049C162.873 80.3578 162.899 80.4371 162.899 80.5429V83.8508C162.899 84.4378 162.751 84.8794 162.455 85.1755C162.164 85.477 161.733 85.6277 161.162 85.6277ZM161.067 83.5176C161.315 83.5176 161.529 83.4621 161.709 83.351C161.889 83.2347 162.027 83.0707 162.122 82.8592C162.222 82.6477 162.272 82.3991 162.272 82.1135C162.272 81.6852 162.164 81.3467 161.947 81.0981C161.73 80.8443 161.437 80.7174 161.067 80.7174C160.823 80.7174 160.612 80.7756 160.432 80.8919C160.252 81.003 160.112 81.1643 160.012 81.3758C159.916 81.582 159.869 81.8279 159.869 82.1135C159.869 82.5419 159.977 82.883 160.194 83.1368C160.411 83.3907 160.702 83.5176 161.067 83.5176ZM165.318 84.1998C165.054 84.1998 164.816 84.1496 164.604 84.0491C164.398 83.9433 164.234 83.8005 164.112 83.6207C163.991 83.4409 163.93 83.24 163.93 83.0178C163.93 82.7323 164.001 82.5075 164.144 82.3436C164.292 82.1796 164.533 82.0633 164.866 81.9945C165.204 81.9258 165.665 81.8914 166.246 81.8914H166.603V82.3118H166.254C165.826 82.3118 165.487 82.333 165.239 82.3753C164.996 82.4123 164.824 82.4784 164.723 82.5736C164.628 82.6688 164.58 82.8037 164.58 82.9782C164.58 83.195 164.654 83.3722 164.802 83.5097C164.956 83.6472 165.162 83.7159 165.421 83.7159C165.633 83.7159 165.818 83.6657 165.977 83.5652C166.14 83.4647 166.267 83.3272 166.357 83.1527C166.452 82.9782 166.5 82.7772 166.5 82.5498V81.6455C166.5 81.3176 166.434 81.0823 166.302 80.9395C166.17 80.7914 165.953 80.7174 165.651 80.7174C165.466 80.7174 165.281 80.7412 165.096 80.7888C164.911 80.8364 164.715 80.9131 164.509 81.0188C164.435 81.0558 164.371 81.0691 164.319 81.0585C164.266 81.0426 164.223 81.0135 164.192 80.9712C164.16 80.9289 164.141 80.8813 164.136 80.8284C164.131 80.7703 164.141 80.7147 164.168 80.6618C164.2 80.609 164.247 80.5667 164.311 80.5349C164.543 80.4186 164.773 80.334 165.001 80.2811C165.228 80.2282 165.445 80.2018 165.651 80.2018C165.984 80.2018 166.259 80.2573 166.476 80.3683C166.693 80.4741 166.854 80.6381 166.96 80.8602C167.066 81.077 167.119 81.3573 167.119 81.701V83.8508C167.119 83.9565 167.092 84.0385 167.04 84.0967C166.992 84.1549 166.921 84.1839 166.825 84.1839C166.725 84.1839 166.648 84.1549 166.595 84.0967C166.542 84.0385 166.516 83.9565 166.516 83.8508V83.232H166.587C166.545 83.433 166.463 83.6049 166.341 83.7477C166.225 83.8904 166.08 84.0015 165.905 84.0808C165.731 84.1601 165.535 84.1998 165.318 84.1998ZM169.945 84.1998C169.559 84.1998 169.226 84.1152 168.946 83.946C168.665 83.7767 168.448 83.5414 168.295 83.24C168.147 82.9332 168.073 82.5789 168.073 82.177C168.073 81.8703 168.115 81.5953 168.2 81.352C168.284 81.1087 168.409 80.9025 168.573 80.7332C168.737 80.5587 168.932 80.4265 169.16 80.3366C169.392 80.2467 169.654 80.2018 169.945 80.2018C170.135 80.2018 170.334 80.2308 170.54 80.289C170.746 80.3472 170.934 80.4477 171.103 80.5905C171.156 80.6275 171.19 80.6724 171.206 80.7253C171.222 80.7782 171.222 80.8311 171.206 80.884C171.19 80.9316 171.164 80.9739 171.127 81.0109C171.09 81.0426 171.042 81.0611 170.984 81.0664C170.931 81.0717 170.876 81.0532 170.818 81.0109C170.68 80.9051 170.54 80.8311 170.397 80.7888C170.254 80.7465 170.117 80.7253 169.985 80.7253C169.778 80.7253 169.599 80.7597 169.445 80.8284C169.292 80.8919 169.162 80.9844 169.057 81.1061C168.951 81.2277 168.869 81.3784 168.811 81.5582C168.758 81.738 168.731 81.9469 168.731 82.1849C168.731 82.645 168.84 83.0099 169.057 83.2796C169.273 83.544 169.583 83.6763 169.985 83.6763C170.117 83.6763 170.252 83.6551 170.389 83.6128C170.532 83.5705 170.675 83.4965 170.818 83.3907C170.876 83.3484 170.931 83.3299 170.984 83.3352C171.037 83.3404 171.082 83.3616 171.119 83.3986C171.156 83.4303 171.18 83.4727 171.19 83.5255C171.206 83.5784 171.206 83.6313 171.19 83.6842C171.175 83.7318 171.14 83.7741 171.087 83.8111C170.918 83.9486 170.733 84.0491 170.532 84.1126C170.331 84.1707 170.135 84.1998 169.945 84.1998ZM172.3 84.1681C172.194 84.1681 172.115 84.139 172.062 84.0808C172.009 84.0174 171.983 83.9301 171.983 83.819V80.5746C171.983 80.4635 172.009 80.3789 172.062 80.3207C172.115 80.2626 172.194 80.2335 172.3 80.2335C172.401 80.2335 172.48 80.2626 172.538 80.3207C172.596 80.3789 172.625 80.4635 172.625 80.5746V83.819C172.625 83.9301 172.596 84.0174 172.538 84.0808C172.485 84.139 172.406 84.1681 172.3 84.1681ZM172.3 79.345C172.168 79.345 172.065 79.3107 171.991 79.2419C171.917 79.1679 171.88 79.07 171.88 78.9484C171.88 78.8215 171.917 78.7263 171.991 78.6628C172.065 78.5941 172.168 78.5597 172.3 78.5597C172.438 78.5597 172.541 78.5941 172.61 78.6628C172.684 78.7263 172.721 78.8215 172.721 78.9484C172.721 79.07 172.684 79.1679 172.61 79.2419C172.541 79.3107 172.438 79.345 172.3 79.345ZM175.429 84.1998C175.053 84.1998 174.728 84.1178 174.453 83.9539C174.178 83.79 173.964 83.5599 173.811 83.2638C173.663 82.9623 173.589 82.608 173.589 82.2008C173.589 81.8941 173.631 81.6191 173.716 81.3758C173.8 81.1272 173.924 80.9157 174.088 80.7412C174.252 80.5667 174.445 80.4344 174.667 80.3445C174.895 80.2494 175.149 80.2018 175.429 80.2018C175.804 80.2018 176.13 80.2837 176.405 80.4477C176.68 80.6116 176.891 80.8443 177.039 81.1457C177.193 81.4419 177.269 81.7936 177.269 82.2008C177.269 82.5075 177.227 82.7825 177.142 83.0258C177.058 83.269 176.934 83.4806 176.77 83.6604C176.606 83.8349 176.41 83.9698 176.183 84.065C175.96 84.1549 175.709 84.1998 175.429 84.1998ZM175.429 83.6842C175.667 83.6842 175.876 83.626 176.056 83.5097C176.235 83.3933 176.373 83.2241 176.468 83.002C176.569 82.7799 176.619 82.5128 176.619 82.2008C176.619 81.7195 176.51 81.352 176.294 81.0981C176.082 80.8443 175.794 80.7174 175.429 80.7174C175.186 80.7174 174.974 80.7756 174.794 80.8919C174.62 81.003 174.482 81.1695 174.382 81.3917C174.287 81.6085 174.239 81.8782 174.239 82.2008C174.239 82.6767 174.347 83.0443 174.564 83.3034C174.781 83.5573 175.069 83.6842 175.429 83.6842ZM175.691 79.7179C175.654 79.7707 175.609 79.8025 175.556 79.8131C175.503 79.8183 175.453 79.8104 175.405 79.7893C175.358 79.7628 175.323 79.7258 175.302 79.6782C175.281 79.6306 175.286 79.5751 175.318 79.5116L175.984 78.2186C176.021 78.1446 176.069 78.097 176.127 78.0758C176.185 78.0547 176.243 78.052 176.302 78.0679C176.365 78.0784 176.418 78.1049 176.46 78.1472C176.503 78.1895 176.526 78.2397 176.532 78.2979C176.542 78.3561 176.526 78.4169 176.484 78.4804L175.691 79.7179ZM178.552 84.1839C178.446 84.1839 178.367 84.1549 178.314 84.0967C178.261 84.0385 178.234 83.9565 178.234 83.8508V80.5429C178.234 80.4371 178.261 80.3578 178.314 80.3049C178.367 80.2467 178.443 80.2176 178.544 80.2176C178.644 80.2176 178.721 80.2467 178.774 80.3049C178.832 80.3578 178.861 80.4371 178.861 80.5429V81.2251L178.774 81.1299C178.885 80.8231 179.065 80.5931 179.313 80.4397C179.567 80.2811 179.858 80.2018 180.186 80.2018C180.493 80.2018 180.746 80.2573 180.947 80.3683C181.154 80.4794 181.307 80.6486 181.408 80.876C181.508 81.0981 181.558 81.3811 181.558 81.7248V83.8508C181.558 83.9565 181.529 84.0385 181.471 84.0967C181.418 84.1549 181.341 84.1839 181.241 84.1839C181.135 84.1839 181.053 84.1549 180.995 84.0967C180.942 84.0385 180.916 83.9565 180.916 83.8508V81.7645C180.916 81.4049 180.844 81.1431 180.702 80.9792C180.564 80.8099 180.342 80.7253 180.035 80.7253C179.681 80.7253 179.398 80.8364 179.186 81.0585C178.98 81.2753 178.877 81.5662 178.877 81.9311V83.8508C178.877 84.0729 178.769 84.1839 178.552 84.1839Z" fill="#101E37"/>
<rect x="196.667" y="70.8398" width="64.9165" height="21.5769" rx="3.52562" fill="white"/>
<path d="M202.955 84.1839C202.854 84.1839 202.777 84.1575 202.725 84.1046C202.672 84.0464 202.645 83.9645 202.645 83.8587V78.8135C202.645 78.7078 202.672 78.6258 202.725 78.5676C202.777 78.5095 202.846 78.4804 202.931 78.4804C203.015 78.4804 203.076 78.4962 203.113 78.528C203.156 78.5544 203.203 78.6046 203.256 78.6787L206.715 83.2876H206.524V78.7977C206.524 78.6972 206.551 78.6205 206.604 78.5676C206.656 78.5095 206.733 78.4804 206.834 78.4804C206.929 78.4804 207 78.5095 207.048 78.5676C207.101 78.6205 207.127 78.6972 207.127 78.7977V83.8666C207.127 83.9671 207.103 84.0464 207.056 84.1046C207.013 84.1575 206.95 84.1839 206.865 84.1839C206.786 84.1839 206.723 84.1681 206.675 84.1364C206.627 84.1046 206.577 84.0544 206.524 83.9856L203.074 79.3768H203.256V83.8587C203.256 83.9645 203.23 84.0464 203.177 84.1046C203.124 84.1575 203.05 84.1839 202.955 84.1839ZM209.644 84.1998C209.379 84.1998 209.141 84.1496 208.93 84.0491C208.723 83.9433 208.56 83.8005 208.438 83.6207C208.316 83.4409 208.255 83.24 208.255 83.0178C208.255 82.7323 208.327 82.5075 208.47 82.3436C208.618 82.1796 208.858 82.0633 209.192 81.9945C209.53 81.9258 209.99 81.8914 210.572 81.8914H210.929V82.3118H210.58C210.151 82.3118 209.813 82.333 209.564 82.3753C209.321 82.4123 209.149 82.4784 209.049 82.5736C208.954 82.6688 208.906 82.8037 208.906 82.9782C208.906 83.195 208.98 83.3722 209.128 83.5097C209.281 83.6472 209.488 83.7159 209.747 83.7159C209.958 83.7159 210.143 83.6657 210.302 83.5652C210.466 83.4647 210.593 83.3272 210.683 83.1527C210.778 82.9782 210.826 82.7772 210.826 82.5498V81.6455C210.826 81.3176 210.76 81.0823 210.627 80.9395C210.495 80.7914 210.278 80.7174 209.977 80.7174C209.792 80.7174 209.607 80.7412 209.422 80.7888C209.236 80.8364 209.041 80.9131 208.835 81.0188C208.761 81.0558 208.697 81.0691 208.644 81.0585C208.591 81.0426 208.549 81.0135 208.517 80.9712C208.486 80.9289 208.467 80.8813 208.462 80.8284C208.456 80.7703 208.467 80.7147 208.493 80.6618C208.525 80.609 208.573 80.5667 208.636 80.5349C208.869 80.4186 209.099 80.334 209.326 80.2811C209.554 80.2282 209.771 80.2018 209.977 80.2018C210.31 80.2018 210.585 80.2573 210.802 80.3683C211.019 80.4741 211.18 80.6381 211.286 80.8602C211.392 81.077 211.444 81.3573 211.444 81.701V83.8508C211.444 83.9565 211.418 84.0385 211.365 84.0967C211.317 84.1549 211.246 84.1839 211.151 84.1839C211.05 84.1839 210.974 84.1549 210.921 84.0967C210.868 84.0385 210.842 83.9565 210.842 83.8508V83.232H210.913C210.871 83.433 210.789 83.6049 210.667 83.7477C210.551 83.8904 210.405 84.0015 210.231 84.0808C210.056 84.1601 209.861 84.1998 209.644 84.1998ZM214.034 84.1839C213.944 84.1839 213.864 84.1601 213.796 84.1126C213.727 84.0597 213.669 83.9803 213.621 83.8746L212.249 80.6698C212.212 80.5905 212.198 80.5164 212.209 80.4477C212.22 80.3789 212.251 80.3234 212.304 80.2811C212.357 80.2388 212.431 80.2176 212.526 80.2176C212.611 80.2176 212.677 80.2361 212.725 80.2731C212.772 80.3102 212.815 80.3763 212.852 80.4715L214.153 83.6525H213.938L215.263 80.4715C215.3 80.3763 215.342 80.3102 215.39 80.2731C215.438 80.2361 215.506 80.2176 215.596 80.2176C215.681 80.2176 215.744 80.2388 215.787 80.2811C215.834 80.3234 215.861 80.3789 215.866 80.4477C215.877 80.5111 215.866 80.5825 215.834 80.6618L214.446 83.8746C214.409 83.9803 214.353 84.0597 214.279 84.1126C214.211 84.1601 214.129 84.1839 214.034 84.1839ZM218.363 84.1998C217.956 84.1998 217.604 84.1205 217.308 83.9618C217.017 83.7979 216.79 83.5678 216.626 83.2717C216.467 82.9755 216.388 82.6212 216.388 82.2087C216.388 81.8068 216.467 81.4578 216.626 81.1616C216.785 80.8602 217.001 80.6248 217.276 80.4556C217.557 80.2864 217.879 80.2018 218.244 80.2018C218.503 80.2018 218.736 80.2467 218.942 80.3366C219.149 80.4212 219.323 80.5455 219.466 80.7094C219.614 80.8734 219.725 81.0717 219.799 81.3044C219.878 81.5371 219.918 81.7989 219.918 82.0897C219.918 82.1743 219.894 82.2378 219.847 82.2801C219.799 82.3171 219.73 82.3356 219.64 82.3356H216.88V81.9152H219.49L219.363 82.0183C219.363 81.7328 219.32 81.4921 219.236 81.2965C219.151 81.0955 219.027 80.9421 218.863 80.8364C218.704 80.7306 218.503 80.6777 218.26 80.6777C217.99 80.6777 217.76 80.7412 217.57 80.8681C217.385 80.9897 217.245 81.1616 217.15 81.3837C217.054 81.6005 217.007 81.8544 217.007 82.1453V82.1929C217.007 82.6794 217.123 83.0496 217.356 83.3034C217.594 83.5573 217.93 83.6842 218.363 83.6842C218.543 83.6842 218.72 83.6604 218.895 83.6128C219.075 83.5652 219.249 83.4859 219.418 83.3748C219.492 83.3272 219.558 83.3061 219.617 83.3114C219.68 83.3114 219.73 83.3299 219.767 83.3669C219.804 83.3986 219.828 83.4409 219.839 83.4938C219.855 83.5414 219.849 83.5943 219.823 83.6525C219.802 83.7106 219.757 83.7609 219.688 83.8032C219.514 83.9301 219.307 84.0279 219.069 84.0967C218.831 84.1654 218.596 84.1998 218.363 84.1998ZM222.554 85.6277C222.273 85.6277 221.998 85.5933 221.729 85.5246C221.464 85.4611 221.223 85.358 221.007 85.2152C220.943 85.1782 220.901 85.1332 220.88 85.0803C220.864 85.0275 220.861 84.9746 220.872 84.9217C220.882 84.8741 220.906 84.8291 220.943 84.7868C220.98 84.7498 221.023 84.726 221.07 84.7154C221.123 84.7049 221.176 84.7128 221.229 84.7392C221.461 84.882 221.684 84.9799 221.895 85.0327C222.107 85.0856 222.316 85.1121 222.522 85.1121C222.897 85.1121 223.18 85.0116 223.371 84.8106C223.566 84.6097 223.664 84.3188 223.664 83.938V83.0416H223.743C223.664 83.3484 223.495 83.5916 223.236 83.7714C222.982 83.9513 222.683 84.0412 222.339 84.0412C221.985 84.0412 221.678 83.9618 221.419 83.8032C221.16 83.6392 220.959 83.4118 220.816 83.121C220.679 82.8301 220.61 82.4943 220.61 82.1135C220.61 81.8279 220.65 81.5688 220.729 81.3361C220.808 81.0981 220.922 80.8972 221.07 80.7332C221.223 80.564 221.406 80.4344 221.617 80.3445C221.834 80.2494 222.075 80.2018 222.339 80.2018C222.688 80.2018 222.99 80.2917 223.244 80.4715C223.497 80.646 223.661 80.884 223.735 81.1854L223.656 81.2806V80.5429C223.656 80.4371 223.683 80.3578 223.735 80.3049C223.794 80.2467 223.873 80.2176 223.973 80.2176C224.079 80.2176 224.159 80.2467 224.211 80.3049C224.264 80.3578 224.291 80.4371 224.291 80.5429V83.8508C224.291 84.4378 224.143 84.8794 223.847 85.1755C223.556 85.477 223.125 85.6277 222.554 85.6277ZM222.458 83.5176C222.707 83.5176 222.921 83.4621 223.101 83.351C223.281 83.2347 223.418 83.0707 223.513 82.8592C223.614 82.6477 223.664 82.3991 223.664 82.1135C223.664 81.6852 223.556 81.3467 223.339 81.0981C223.122 80.8443 222.829 80.7174 222.458 80.7174C222.215 80.7174 222.004 80.7756 221.824 80.8919C221.644 81.003 221.504 81.1643 221.403 81.3758C221.308 81.582 221.26 81.8279 221.26 82.1135C221.26 82.5419 221.369 82.883 221.586 83.1368C221.803 83.3907 222.093 83.5176 222.458 83.5176ZM226.71 84.1998C226.445 84.1998 226.207 84.1496 225.996 84.0491C225.79 83.9433 225.626 83.8005 225.504 83.6207C225.382 83.4409 225.322 83.24 225.322 83.0178C225.322 82.7323 225.393 82.5075 225.536 82.3436C225.684 82.1796 225.924 82.0633 226.258 81.9945C226.596 81.9258 227.056 81.8914 227.638 81.8914H227.995V82.3118H227.646C227.217 82.3118 226.879 82.333 226.63 82.3753C226.387 82.4123 226.215 82.4784 226.115 82.5736C226.02 82.6688 225.972 82.8037 225.972 82.9782C225.972 83.195 226.046 83.3722 226.194 83.5097C226.347 83.6472 226.554 83.7159 226.813 83.7159C227.024 83.7159 227.209 83.6657 227.368 83.5652C227.532 83.4647 227.659 83.3272 227.749 83.1527C227.844 82.9782 227.892 82.7772 227.892 82.5498V81.6455C227.892 81.3176 227.826 81.0823 227.693 80.9395C227.561 80.7914 227.344 80.7174 227.043 80.7174C226.858 80.7174 226.673 80.7412 226.488 80.7888C226.303 80.8364 226.107 80.9131 225.901 81.0188C225.827 81.0558 225.763 81.0691 225.71 81.0585C225.657 81.0426 225.615 81.0135 225.583 80.9712C225.552 80.9289 225.533 80.8813 225.528 80.8284C225.522 80.7703 225.533 80.7147 225.559 80.6618C225.591 80.609 225.639 80.5667 225.702 80.5349C225.935 80.4186 226.165 80.334 226.392 80.2811C226.62 80.2282 226.837 80.2018 227.043 80.2018C227.376 80.2018 227.651 80.2573 227.868 80.3683C228.085 80.4741 228.246 80.6381 228.352 80.8602C228.458 81.077 228.51 81.3573 228.51 81.701V83.8508C228.51 83.9565 228.484 84.0385 228.431 84.0967C228.384 84.1549 228.312 84.1839 228.217 84.1839C228.116 84.1839 228.04 84.1549 227.987 84.0967C227.934 84.0385 227.908 83.9565 227.908 83.8508V83.232H227.979C227.937 83.433 227.855 83.6049 227.733 83.7477C227.617 83.8904 227.471 84.0015 227.297 84.0808C227.122 84.1601 226.927 84.1998 226.71 84.1998ZM231.337 84.1998C230.951 84.1998 230.617 84.1152 230.337 83.946C230.057 83.7767 229.84 83.5414 229.687 83.24C229.539 82.9332 229.465 82.5789 229.465 82.177C229.465 81.8703 229.507 81.5953 229.591 81.352C229.676 81.1087 229.8 80.9025 229.964 80.7332C230.128 80.5587 230.324 80.4265 230.551 80.3366C230.784 80.2467 231.046 80.2018 231.337 80.2018C231.527 80.2018 231.725 80.2308 231.932 80.289C232.138 80.3472 232.326 80.4477 232.495 80.5905C232.548 80.6275 232.582 80.6724 232.598 80.7253C232.614 80.7782 232.614 80.8311 232.598 80.884C232.582 80.9316 232.556 80.9739 232.519 81.0109C232.482 81.0426 232.434 81.0611 232.376 81.0664C232.323 81.0717 232.267 81.0532 232.209 81.0109C232.072 80.9051 231.932 80.8311 231.789 80.7888C231.646 80.7465 231.508 80.7253 231.376 80.7253C231.17 80.7253 230.99 80.7597 230.837 80.8284C230.684 80.8919 230.554 80.9844 230.448 81.1061C230.342 81.2277 230.26 81.3784 230.202 81.5582C230.149 81.738 230.123 81.9469 230.123 82.1849C230.123 82.645 230.231 83.0099 230.448 83.2796C230.665 83.544 230.974 83.6763 231.376 83.6763C231.508 83.6763 231.643 83.6551 231.781 83.6128C231.924 83.5705 232.066 83.4965 232.209 83.3907C232.267 83.3484 232.323 83.3299 232.376 83.3352C232.429 83.3404 232.474 83.3616 232.511 83.3986C232.548 83.4303 232.571 83.4727 232.582 83.5255C232.598 83.5784 232.598 83.6313 232.582 83.6842C232.566 83.7318 232.532 83.7741 232.479 83.8111C232.31 83.9486 232.125 84.0491 231.924 84.1126C231.723 84.1707 231.527 84.1998 231.337 84.1998ZM233.692 84.1681C233.586 84.1681 233.507 84.139 233.454 84.0808C233.401 84.0174 233.374 83.9301 233.374 83.819V80.5746C233.374 80.4635 233.401 80.3789 233.454 80.3207C233.507 80.2626 233.586 80.2335 233.692 80.2335C233.792 80.2335 233.872 80.2626 233.93 80.3207C233.988 80.3789 234.017 80.4635 234.017 80.5746V83.819C234.017 83.9301 233.988 84.0174 233.93 84.0808C233.877 84.139 233.798 84.1681 233.692 84.1681ZM233.692 79.345C233.56 79.345 233.456 79.3107 233.382 79.2419C233.308 79.1679 233.271 79.07 233.271 78.9484C233.271 78.8215 233.308 78.7263 233.382 78.6628C233.456 78.5941 233.56 78.5597 233.692 78.5597C233.829 78.5597 233.932 78.5941 234.001 78.6628C234.075 78.7263 234.112 78.8215 234.112 78.9484C234.112 79.07 234.075 79.1679 234.001 79.2419C233.932 79.3107 233.829 79.345 233.692 79.345ZM236.821 84.1998C236.445 84.1998 236.12 84.1178 235.845 83.9539C235.57 83.79 235.356 83.5599 235.202 83.2638C235.054 82.9623 234.98 82.608 234.98 82.2008C234.98 81.8941 235.022 81.6191 235.107 81.3758C235.192 81.1272 235.316 80.9157 235.48 80.7412C235.644 80.5667 235.837 80.4344 236.059 80.3445C236.286 80.2494 236.54 80.2018 236.821 80.2018C237.196 80.2018 237.521 80.2837 237.796 80.4477C238.071 80.6116 238.283 80.8443 238.431 81.1457C238.584 81.4419 238.661 81.7936 238.661 82.2008C238.661 82.5075 238.619 82.7825 238.534 83.0258C238.449 83.269 238.325 83.4806 238.161 83.6604C237.997 83.8349 237.802 83.9698 237.574 84.065C237.352 84.1549 237.101 84.1998 236.821 84.1998ZM236.821 83.6842C237.059 83.6842 237.267 83.626 237.447 83.5097C237.627 83.3933 237.765 83.2241 237.86 83.002C237.96 82.7799 238.01 82.5128 238.01 82.2008C238.01 81.7195 237.902 81.352 237.685 81.0981C237.474 80.8443 237.185 80.7174 236.821 80.7174C236.577 80.7174 236.366 80.7756 236.186 80.8919C236.011 81.003 235.874 81.1695 235.773 81.3917C235.678 81.6085 235.631 81.8782 235.631 82.2008C235.631 82.6767 235.739 83.0443 235.956 83.3034C236.173 83.5573 236.461 83.6842 236.821 83.6842ZM237.082 79.7179C237.045 79.7707 237 79.8025 236.947 79.8131C236.895 79.8183 236.844 79.8104 236.797 79.7893C236.749 79.7628 236.715 79.7258 236.694 79.6782C236.672 79.6306 236.678 79.5751 236.71 79.5116L237.376 78.2186C237.413 78.1446 237.46 78.097 237.519 78.0758C237.577 78.0547 237.635 78.052 237.693 78.0679C237.757 78.0784 237.81 78.1049 237.852 78.1472C237.894 78.1895 237.918 78.2397 237.923 78.2979C237.934 78.3561 237.918 78.4169 237.876 78.4804L237.082 79.7179ZM239.943 84.1839C239.838 84.1839 239.758 84.1549 239.705 84.0967C239.653 84.0385 239.626 83.9565 239.626 83.8508V80.5429C239.626 80.4371 239.653 80.3578 239.705 80.3049C239.758 80.2467 239.835 80.2176 239.935 80.2176C240.036 80.2176 240.113 80.2467 240.165 80.3049C240.224 80.3578 240.253 80.4371 240.253 80.5429V81.2251L240.165 81.1299C240.277 80.8231 240.456 80.5931 240.705 80.4397C240.959 80.2811 241.25 80.2018 241.577 80.2018C241.884 80.2018 242.138 80.2573 242.339 80.3683C242.545 80.4794 242.699 80.6486 242.799 80.876C242.9 81.0981 242.95 81.3811 242.95 81.7248V83.8508C242.95 83.9565 242.921 84.0385 242.863 84.0967C242.81 84.1549 242.733 84.1839 242.633 84.1839C242.527 84.1839 242.445 84.1549 242.387 84.0967C242.334 84.0385 242.307 83.9565 242.307 83.8508V81.7645C242.307 81.4049 242.236 81.1431 242.093 80.9792C241.956 80.8099 241.734 80.7253 241.427 80.7253C241.072 80.7253 240.79 80.8364 240.578 81.0585C240.372 81.2753 240.269 81.5662 240.269 81.9311V83.8508C240.269 84.0729 240.16 84.1839 239.943 84.1839Z" fill="#101E37"/>
<path d="M252.714 80.3062L251.004 82.0161L249.294 80.3062C249.122 80.1343 248.844 80.1343 248.672 80.3062C248.5 80.478 248.5 80.7557 248.672 80.9275L250.695 82.9504C250.867 83.1222 251.145 83.1222 251.317 82.9504L253.339 80.9275C253.511 80.7557 253.511 80.478 253.339 80.3062C253.168 80.1387 252.885 80.1343 252.714 80.3062Z" fill="#101E37"/>
<rect x="270.397" y="70.8398" width="52.5769" height="21.5769" rx="3.52562" fill="white"/>
<path d="M276.685 84.1839C276.585 84.1839 276.508 84.1575 276.455 84.1046C276.402 84.0464 276.376 83.9645 276.376 83.8587V78.8135C276.376 78.7078 276.402 78.6258 276.455 78.5676C276.508 78.5095 276.577 78.4804 276.661 78.4804C276.746 78.4804 276.807 78.4962 276.844 78.528C276.886 78.5544 276.934 78.6046 276.987 78.6787L280.445 83.2876H280.255V78.7977C280.255 78.6972 280.281 78.6205 280.334 78.5676C280.387 78.5095 280.464 78.4804 280.564 78.4804C280.659 78.4804 280.731 78.5095 280.778 78.5676C280.831 78.6205 280.858 78.6972 280.858 78.7977V83.8666C280.858 83.9671 280.834 84.0464 280.786 84.1046C280.744 84.1575 280.68 84.1839 280.596 84.1839C280.517 84.1839 280.453 84.1681 280.405 84.1364C280.358 84.1046 280.308 84.0544 280.255 83.9856L276.804 79.3768H276.987V83.8587C276.987 83.9645 276.96 84.0464 276.907 84.1046C276.854 84.1575 276.78 84.1839 276.685 84.1839ZM283.374 84.1998C283.11 84.1998 282.872 84.1496 282.66 84.0491C282.454 83.9433 282.29 83.8005 282.168 83.6207C282.047 83.4409 281.986 83.24 281.986 83.0178C281.986 82.7323 282.057 82.5075 282.2 82.3436C282.348 82.1796 282.589 82.0633 282.922 81.9945C283.26 81.9258 283.721 81.8914 284.302 81.8914H284.659V82.3118H284.31C283.882 82.3118 283.543 82.333 283.295 82.3753C283.052 82.4123 282.88 82.4784 282.779 82.5736C282.684 82.6688 282.636 82.8037 282.636 82.9782C282.636 83.195 282.71 83.3722 282.859 83.5097C283.012 83.6472 283.218 83.7159 283.477 83.7159C283.689 83.7159 283.874 83.6657 284.033 83.5652C284.196 83.4647 284.323 83.3272 284.413 83.1527C284.509 82.9782 284.556 82.7772 284.556 82.5498V81.6455C284.556 81.3176 284.49 81.0823 284.358 80.9395C284.226 80.7914 284.009 80.7174 283.707 80.7174C283.522 80.7174 283.337 80.7412 283.152 80.7888C282.967 80.8364 282.771 80.9131 282.565 81.0188C282.491 81.0558 282.428 81.0691 282.375 81.0585C282.322 81.0426 282.279 81.0135 282.248 80.9712C282.216 80.9289 282.197 80.8813 282.192 80.8284C282.187 80.7703 282.197 80.7147 282.224 80.6618C282.256 80.609 282.303 80.5667 282.367 80.5349C282.599 80.4186 282.829 80.334 283.057 80.2811C283.284 80.2282 283.501 80.2018 283.707 80.2018C284.04 80.2018 284.315 80.2573 284.532 80.3683C284.749 80.4741 284.91 80.6381 285.016 80.8602C285.122 81.077 285.175 81.3573 285.175 81.701V83.8508C285.175 83.9565 285.148 84.0385 285.096 84.0967C285.048 84.1549 284.977 84.1839 284.881 84.1839C284.781 84.1839 284.704 84.1549 284.651 84.0967C284.598 84.0385 284.572 83.9565 284.572 83.8508V83.232H284.643C284.601 83.433 284.519 83.6049 284.397 83.7477C284.281 83.8904 284.136 84.0015 283.961 84.0808C283.787 84.1601 283.591 84.1998 283.374 84.1998ZM287.764 84.1839C287.674 84.1839 287.595 84.1601 287.526 84.1126C287.457 84.0597 287.399 83.9803 287.352 83.8746L285.979 80.6698C285.942 80.5905 285.929 80.5164 285.939 80.4477C285.95 80.3789 285.982 80.3234 286.035 80.2811C286.088 80.2388 286.162 80.2176 286.257 80.2176C286.341 80.2176 286.408 80.2361 286.455 80.2731C286.503 80.3102 286.545 80.3763 286.582 80.4715L287.883 83.6525H287.669L288.994 80.4715C289.031 80.3763 289.073 80.3102 289.12 80.2731C289.168 80.2361 289.237 80.2176 289.327 80.2176C289.411 80.2176 289.475 80.2388 289.517 80.2811C289.565 80.3234 289.591 80.3789 289.596 80.4477C289.607 80.5111 289.596 80.5825 289.565 80.6618L288.176 83.8746C288.139 83.9803 288.084 84.0597 288.01 84.1126C287.941 84.1601 287.859 84.1839 287.764 84.1839ZM292.094 84.1998C291.687 84.1998 291.335 84.1205 291.039 83.9618C290.748 83.7979 290.52 83.5678 290.356 83.2717C290.198 82.9755 290.119 82.6212 290.119 82.2087C290.119 81.8068 290.198 81.4578 290.356 81.1616C290.515 80.8602 290.732 80.6248 291.007 80.4556C291.287 80.2864 291.61 80.2018 291.975 80.2018C292.234 80.2018 292.467 80.2467 292.673 80.3366C292.879 80.4212 293.054 80.5455 293.196 80.7094C293.344 80.8734 293.456 81.0717 293.53 81.3044C293.609 81.5371 293.649 81.7989 293.649 82.0897C293.649 82.1743 293.625 82.2378 293.577 82.2801C293.53 82.3171 293.461 82.3356 293.371 82.3356H290.61V81.9152H293.22L293.093 82.0183C293.093 81.7328 293.051 81.4921 292.966 81.2965C292.882 81.0955 292.757 80.9421 292.593 80.8364C292.435 80.7306 292.234 80.6777 291.991 80.6777C291.721 80.6777 291.491 80.7412 291.3 80.8681C291.115 80.9897 290.975 81.1616 290.88 81.3837C290.785 81.6005 290.737 81.8544 290.737 82.1453V82.1929C290.737 82.6794 290.854 83.0496 291.086 83.3034C291.324 83.5573 291.66 83.6842 292.094 83.6842C292.274 83.6842 292.451 83.6604 292.625 83.6128C292.805 83.5652 292.98 83.4859 293.149 83.3748C293.223 83.3272 293.289 83.3061 293.347 83.3114C293.411 83.3114 293.461 83.3299 293.498 83.3669C293.535 83.3986 293.559 83.4409 293.569 83.4938C293.585 83.5414 293.58 83.5943 293.553 83.6525C293.532 83.7106 293.487 83.7609 293.418 83.8032C293.244 83.9301 293.038 84.0279 292.8 84.0967C292.562 84.1654 292.326 84.1998 292.094 84.1998ZM296.284 85.6277C296.004 85.6277 295.729 85.5933 295.459 85.5246C295.195 85.4611 294.954 85.358 294.737 85.2152C294.674 85.1782 294.631 85.1332 294.61 85.0803C294.594 85.0275 294.592 84.9746 294.602 84.9217C294.613 84.8741 294.637 84.8291 294.674 84.7868C294.711 84.7498 294.753 84.726 294.801 84.7154C294.853 84.7049 294.906 84.7128 294.959 84.7392C295.192 84.882 295.414 84.9799 295.626 85.0327C295.837 85.0856 296.046 85.1121 296.252 85.1121C296.628 85.1121 296.911 85.0116 297.101 84.8106C297.297 84.6097 297.395 84.3188 297.395 83.938V83.0416H297.474C297.395 83.3484 297.225 83.5916 296.966 83.7714C296.712 83.9513 296.414 84.0412 296.07 84.0412C295.715 84.0412 295.409 83.9618 295.15 83.8032C294.89 83.6392 294.69 83.4118 294.547 83.121C294.409 82.8301 294.34 82.4943 294.34 82.1135C294.34 81.8279 294.38 81.5688 294.459 81.3361C294.539 81.0981 294.652 80.8972 294.801 80.7332C294.954 80.564 295.136 80.4344 295.348 80.3445C295.565 80.2494 295.805 80.2018 296.07 80.2018C296.419 80.2018 296.72 80.2917 296.974 80.4715C297.228 80.646 297.392 80.884 297.466 81.1854L297.387 81.2806V80.5429C297.387 80.4371 297.413 80.3578 297.466 80.3049C297.524 80.2467 297.603 80.2176 297.704 80.2176C297.81 80.2176 297.889 80.2467 297.942 80.3049C297.995 80.3578 298.021 80.4371 298.021 80.5429V83.8508C298.021 84.4378 297.873 84.8794 297.577 85.1755C297.286 85.477 296.855 85.6277 296.284 85.6277ZM296.189 83.5176C296.437 83.5176 296.652 83.4621 296.831 83.351C297.011 83.2347 297.149 83.0707 297.244 82.8592C297.344 82.6477 297.395 82.3991 297.395 82.1135C297.395 81.6852 297.286 81.3467 297.069 81.0981C296.852 80.8443 296.559 80.7174 296.189 80.7174C295.946 80.7174 295.734 80.7756 295.554 80.8919C295.374 81.003 295.234 81.1643 295.134 81.3758C295.039 81.582 294.991 81.8279 294.991 82.1135C294.991 82.5419 295.099 82.883 295.316 83.1368C295.533 83.3907 295.824 83.5176 296.189 83.5176ZM300.44 84.1998C300.176 84.1998 299.938 84.1496 299.726 84.0491C299.52 83.9433 299.356 83.8005 299.234 83.6207C299.113 83.4409 299.052 83.24 299.052 83.0178C299.052 82.7323 299.123 82.5075 299.266 82.3436C299.414 82.1796 299.655 82.0633 299.988 81.9945C300.326 81.9258 300.787 81.8914 301.368 81.8914H301.725V82.3118H301.376C300.948 82.3118 300.609 82.333 300.361 82.3753C300.118 82.4123 299.946 82.4784 299.845 82.5736C299.75 82.6688 299.702 82.8037 299.702 82.9782C299.702 83.195 299.776 83.3722 299.925 83.5097C300.078 83.6472 300.284 83.7159 300.543 83.7159C300.755 83.7159 300.94 83.6657 301.099 83.5652C301.263 83.4647 301.389 83.3272 301.479 83.1527C301.575 82.9782 301.622 82.7772 301.622 82.5498V81.6455C301.622 81.3176 301.556 81.0823 301.424 80.9395C301.292 80.7914 301.075 80.7174 300.773 80.7174C300.588 80.7174 300.403 80.7412 300.218 80.7888C300.033 80.8364 299.837 80.9131 299.631 81.0188C299.557 81.0558 299.494 81.0691 299.441 81.0585C299.388 81.0426 299.345 81.0135 299.314 80.9712C299.282 80.9289 299.264 80.8813 299.258 80.8284C299.253 80.7703 299.264 80.7147 299.29 80.6618C299.322 80.609 299.369 80.5667 299.433 80.5349C299.665 80.4186 299.895 80.334 300.123 80.2811C300.35 80.2282 300.567 80.2018 300.773 80.2018C301.107 80.2018 301.382 80.2573 301.598 80.3683C301.815 80.4741 301.976 80.6381 302.082 80.8602C302.188 81.077 302.241 81.3573 302.241 81.701V83.8508C302.241 83.9565 302.214 84.0385 302.162 84.0967C302.114 84.1549 302.043 84.1839 301.947 84.1839C301.847 84.1839 301.77 84.1549 301.717 84.0967C301.664 84.0385 301.638 83.9565 301.638 83.8508V83.232H301.709C301.667 83.433 301.585 83.6049 301.464 83.7477C301.347 83.8904 301.202 84.0015 301.027 84.0808C300.853 84.1601 300.657 84.1998 300.44 84.1998ZM305.067 84.1998C304.681 84.1998 304.348 84.1152 304.068 83.946C303.787 83.7767 303.57 83.5414 303.417 83.24C303.269 82.9332 303.195 82.5789 303.195 82.177C303.195 81.8703 303.237 81.5953 303.322 81.352C303.407 81.1087 303.531 80.9025 303.695 80.7332C303.859 80.5587 304.054 80.4265 304.282 80.3366C304.514 80.2467 304.776 80.2018 305.067 80.2018C305.257 80.2018 305.456 80.2308 305.662 80.289C305.868 80.3472 306.056 80.4477 306.225 80.5905C306.278 80.6275 306.313 80.6724 306.328 80.7253C306.344 80.7782 306.344 80.8311 306.328 80.884C306.313 80.9316 306.286 80.9739 306.249 81.0109C306.212 81.0426 306.164 81.0611 306.106 81.0664C306.053 81.0717 305.998 81.0532 305.94 81.0109C305.802 80.9051 305.662 80.8311 305.519 80.7888C305.376 80.7465 305.239 80.7253 305.107 80.7253C304.901 80.7253 304.721 80.7597 304.567 80.8284C304.414 80.8919 304.284 80.9844 304.179 81.1061C304.073 81.2277 303.991 81.3784 303.933 81.5582C303.88 81.738 303.853 81.9469 303.853 82.1849C303.853 82.645 303.962 83.0099 304.179 83.2796C304.395 83.544 304.705 83.6763 305.107 83.6763C305.239 83.6763 305.374 83.6551 305.511 83.6128C305.654 83.5705 305.797 83.4965 305.94 83.3907C305.998 83.3484 306.053 83.3299 306.106 83.3352C306.159 83.3404 306.204 83.3616 306.241 83.3986C306.278 83.4303 306.302 83.4727 306.313 83.5255C306.328 83.5784 306.328 83.6313 306.313 83.6842C306.297 83.7318 306.262 83.7741 306.209 83.8111C306.04 83.9486 305.855 84.0491 305.654 84.1126C305.453 84.1707 305.257 84.1998 305.067 84.1998ZM307.422 84.1681C307.316 84.1681 307.237 84.139 307.184 84.0808C307.131 84.0174 307.105 83.9301 307.105 83.819V80.5746C307.105 80.4635 307.131 80.3789 307.184 80.3207C307.237 80.2626 307.316 80.2335 307.422 80.2335C307.523 80.2335 307.602 80.2626 307.66 80.3207C307.718 80.3789 307.747 80.4635 307.747 80.5746V83.819C307.747 83.9301 307.718 84.0174 307.66 84.0808C307.607 84.139 307.528 84.1681 307.422 84.1681ZM307.422 79.345C307.29 79.345 307.187 79.3107 307.113 79.2419C307.039 79.1679 307.002 79.07 307.002 78.9484C307.002 78.8215 307.039 78.7263 307.113 78.6628C307.187 78.5941 307.29 78.5597 307.422 78.5597C307.56 78.5597 307.663 78.5941 307.732 78.6628C307.806 78.7263 307.843 78.8215 307.843 78.9484C307.843 79.07 307.806 79.1679 307.732 79.2419C307.663 79.3107 307.56 79.345 307.422 79.345ZM310.551 84.1998C310.176 84.1998 309.85 84.1178 309.575 83.9539C309.3 83.79 309.086 83.5599 308.933 83.2638C308.785 82.9623 308.711 82.608 308.711 82.2008C308.711 81.8941 308.753 81.6191 308.838 81.3758C308.922 81.1272 309.046 80.9157 309.21 80.7412C309.374 80.5667 309.567 80.4344 309.789 80.3445C310.017 80.2494 310.271 80.2018 310.551 80.2018C310.927 80.2018 311.252 80.2837 311.527 80.4477C311.802 80.6116 312.013 80.8443 312.161 81.1457C312.315 81.4419 312.391 81.7936 312.391 82.2008C312.391 82.5075 312.349 82.7825 312.264 83.0258C312.18 83.269 312.056 83.4806 311.892 83.6604C311.728 83.8349 311.532 83.9698 311.305 84.065C311.083 84.1549 310.831 84.1998 310.551 84.1998ZM310.551 83.6842C310.789 83.6842 310.998 83.626 311.178 83.5097C311.358 83.3933 311.495 83.2241 311.59 83.002C311.691 82.7799 311.741 82.5128 311.741 82.2008C311.741 81.7195 311.633 81.352 311.416 81.0981C311.204 80.8443 310.916 80.7174 310.551 80.7174C310.308 80.7174 310.096 80.7756 309.916 80.8919C309.742 81.003 309.604 81.1695 309.504 81.3917C309.409 81.6085 309.361 81.8782 309.361 82.2008C309.361 82.6767 309.47 83.0443 309.686 83.3034C309.903 83.5573 310.191 83.6842 310.551 83.6842ZM310.813 79.7179C310.776 79.7707 310.731 79.8025 310.678 79.8131C310.625 79.8183 310.575 79.8104 310.527 79.7893C310.48 79.7628 310.445 79.7258 310.424 79.6782C310.403 79.6306 310.408 79.5751 310.44 79.5116L311.106 78.2186C311.143 78.1446 311.191 78.097 311.249 78.0758C311.307 78.0547 311.365 78.052 311.424 78.0679C311.487 78.0784 311.54 78.1049 311.582 78.1472C311.625 78.1895 311.648 78.2397 311.654 78.2979C311.664 78.3561 311.648 78.4169 311.606 78.4804L310.813 79.7179ZM313.674 84.1839C313.568 84.1839 313.489 84.1549 313.436 84.0967C313.383 84.0385 313.357 83.9565 313.357 83.8508V80.5429C313.357 80.4371 313.383 80.3578 313.436 80.3049C313.489 80.2467 313.565 80.2176 313.666 80.2176C313.766 80.2176 313.843 80.2467 313.896 80.3049C313.954 80.3578 313.983 80.4371 313.983 80.5429V81.2251L313.896 81.1299C314.007 80.8231 314.187 80.5931 314.435 80.4397C314.689 80.2811 314.98 80.2018 315.308 80.2018C315.615 80.2018 315.869 80.2573 316.069 80.3683C316.276 80.4794 316.429 80.6486 316.53 80.876C316.63 81.0981 316.68 81.3811 316.68 81.7248V83.8508C316.68 83.9565 316.651 84.0385 316.593 84.0967C316.54 84.1549 316.463 84.1839 316.363 84.1839C316.257 84.1839 316.175 84.1549 316.117 84.0967C316.064 84.0385 316.038 83.9565 316.038 83.8508V81.7645C316.038 81.4049 315.966 81.1431 315.824 80.9792C315.686 80.8099 315.464 80.7253 315.157 80.7253C314.803 80.7253 314.52 80.8364 314.308 81.0585C314.102 81.2753 313.999 81.5662 313.999 81.9311V83.8508C313.999 84.0729 313.891 84.1839 313.674 84.1839Z" fill="#101E37"/>
<rect x="418.496" y="70.6106" width="154.246" height="22.0351" rx="3.96633" fill="#F3F6F9"/>
<rect x="418.496" y="70.6106" width="154.246" height="22.0351" rx="3.96633" stroke="#E6EBF0" stroke-width="0.881406"/>
<path d="M433.029 82.7171H432.681L432.558 82.5982C433.086 81.9812 433.36 81.1394 433.21 80.2448C433.003 79.0197 431.98 78.0413 430.746 77.8915C428.882 77.6623 427.313 79.2312 427.542 81.0954C427.692 82.3293 428.671 83.3518 429.896 83.5589C430.79 83.7087 431.632 83.4355 432.249 82.9066L432.368 83.03V83.3782L434.241 85.2512C434.422 85.4319 434.717 85.4319 434.898 85.2512C435.078 85.0705 435.078 84.7752 434.898 84.5945L433.029 82.7171ZM430.385 82.7171C429.288 82.7171 428.402 81.8313 428.402 80.734C428.402 79.6366 429.288 78.7508 430.385 78.7508C431.482 78.7508 432.368 79.6366 432.368 80.734C432.368 81.8313 431.482 82.7171 430.385 82.7171Z" fill="#5C6A7A"/>
<path d="M441.661 79.3062H443.086C443.715 79.3062 444.188 79.4003 444.505 79.5885C444.821 79.7767 444.98 80.0969 444.98 80.5491C444.98 80.7442 444.942 80.9198 444.866 81.0759C444.793 81.2297 444.685 81.3571 444.543 81.4581C444.4 81.5591 444.225 81.6291 444.016 81.6681V81.7025C444.236 81.7369 444.431 81.8001 444.601 81.8919C444.771 81.9837 444.904 82.1122 445 82.2775C445.097 82.4428 445.145 82.6528 445.145 82.9076C445.145 83.2174 445.073 83.4791 444.928 83.6926C444.786 83.906 444.584 84.0678 444.322 84.178C444.061 84.2859 443.751 84.3398 443.393 84.3398H441.661V79.3062ZM442.246 81.4649H443.21C443.649 81.4649 443.952 81.3926 444.119 81.248C444.289 81.1034 444.374 80.8923 444.374 80.6145C444.374 80.3276 444.273 80.121 444.071 79.9948C443.871 79.8685 443.552 79.8054 443.114 79.8054H442.246V81.4649ZM442.246 81.9573V83.8406H443.293C443.74 83.8406 444.057 83.7534 444.243 83.5789C444.429 83.4022 444.522 83.1646 444.522 82.8662C444.522 82.6757 444.479 82.5128 444.395 82.3773C444.312 82.2419 444.176 82.1386 443.988 82.0675C443.802 81.994 443.553 81.9573 443.241 81.9573H442.246ZM449.249 80.5663V84.3398H448.781L448.698 83.8096H448.667C448.589 83.9405 448.488 84.0506 448.364 84.1402C448.24 84.2297 448.1 84.2962 447.944 84.3398C447.79 84.3858 447.626 84.4087 447.452 84.4087C447.153 84.4087 446.903 84.3605 446.701 84.2641C446.499 84.1677 446.347 84.0185 446.243 83.8165C446.142 83.6145 446.092 83.3551 446.092 83.0384V80.5663H446.67V82.9971C446.67 83.3115 446.741 83.5468 446.884 83.7029C447.026 83.8567 447.243 83.9336 447.535 83.9336C447.815 83.9336 448.037 83.8808 448.202 83.7752C448.37 83.6696 448.491 83.5147 448.564 83.3104C448.637 83.1038 448.674 82.8513 448.674 82.5529V80.5663H449.249ZM452.899 83.3069C452.899 83.548 452.838 83.7511 452.716 83.9164C452.597 84.0793 452.425 84.2021 452.2 84.2848C451.977 84.3674 451.711 84.4087 451.401 84.4087C451.137 84.4087 450.909 84.388 450.716 84.3467C450.523 84.3054 450.354 84.2469 450.21 84.1711V83.6444C450.363 83.7201 450.547 83.789 450.761 83.8509C450.974 83.9129 451.192 83.9439 451.415 83.9439C451.741 83.9439 451.977 83.8911 452.124 83.7855C452.271 83.6799 452.344 83.5365 452.344 83.3551C452.344 83.2519 452.315 83.1612 452.255 83.0832C452.197 83.0028 452.1 82.9259 451.962 82.8525C451.824 82.7767 451.634 82.6941 451.391 82.6046C451.15 82.5128 450.941 82.4221 450.764 82.3326C450.59 82.2408 450.454 82.1294 450.358 81.9986C450.264 81.8678 450.217 81.6979 450.217 81.489C450.217 81.17 450.345 80.9255 450.602 80.7557C450.862 80.5835 451.201 80.4975 451.621 80.4975C451.849 80.4975 452.061 80.5204 452.258 80.5663C452.458 80.6099 452.644 80.6696 452.816 80.7454L452.623 81.2033C452.467 81.1367 452.301 81.0805 452.124 81.0346C451.947 80.9887 451.767 80.9657 451.583 80.9657C451.32 80.9657 451.116 81.0093 450.974 81.0965C450.834 81.1838 450.764 81.3031 450.764 81.4546C450.764 81.5717 450.796 81.6681 450.86 81.7438C450.927 81.8196 451.033 81.8907 451.177 81.9573C451.322 82.0239 451.512 82.1019 451.749 82.1914C451.985 82.2786 452.189 82.3693 452.362 82.4634C452.534 82.5552 452.666 82.6677 452.758 82.8008C452.852 82.9317 452.899 83.1004 452.899 83.3069ZM455.329 84.4087C454.99 84.4087 454.69 84.3387 454.431 84.1987C454.171 84.0587 453.969 83.8452 453.825 83.5583C453.68 83.2714 453.608 82.9099 453.608 82.4737C453.608 82.017 453.684 81.644 453.835 81.3548C453.989 81.0633 454.2 80.8475 454.469 80.7075C454.737 80.5675 455.043 80.4975 455.385 80.4975C455.573 80.4975 455.754 80.517 455.929 80.556C456.105 80.5927 456.25 80.6398 456.362 80.6972L456.19 81.1757C456.075 81.1298 455.942 81.0885 455.791 81.0518C455.642 81.0151 455.502 80.9967 455.371 80.9967C455.109 80.9967 454.891 81.0529 454.717 81.1654C454.544 81.2779 454.415 81.4431 454.328 81.6612C454.243 81.8793 454.2 82.1478 454.2 82.4669C454.2 82.7721 454.241 83.0327 454.324 83.2484C454.409 83.4642 454.534 83.6294 454.699 83.7442C454.867 83.8567 455.076 83.9129 455.326 83.9129C455.526 83.9129 455.706 83.8923 455.867 83.8509C456.027 83.8073 456.173 83.7568 456.304 83.6994V84.209C456.178 84.2733 456.036 84.3226 455.88 84.3571C455.727 84.3915 455.543 84.4087 455.329 84.4087ZM458.611 80.5044C459.06 80.5044 459.394 80.6053 459.613 80.8073C459.831 81.0093 459.94 81.3318 459.94 81.7748V84.3398H459.523L459.413 83.7821H459.385C459.28 83.9198 459.17 84.0357 459.055 84.1298C458.94 84.2216 458.807 84.2916 458.655 84.3398C458.506 84.3858 458.323 84.4087 458.104 84.4087C457.875 84.4087 457.671 84.3685 457.492 84.2882C457.315 84.2079 457.175 84.0862 457.072 83.9232C456.971 83.7603 456.92 83.5537 456.92 83.3035C456.92 82.9271 457.069 82.6379 457.368 82.4359C457.666 82.2339 458.121 82.1237 458.731 82.1053L459.382 82.0778V81.8471C459.382 81.5212 459.312 81.2928 459.172 81.162C459.032 81.0311 458.834 80.9657 458.58 80.9657C458.382 80.9657 458.194 80.9944 458.015 81.0518C457.836 81.1092 457.666 81.1769 457.505 81.2549L457.33 80.8211C457.5 80.7339 457.695 80.6593 457.915 80.5973C458.135 80.5353 458.367 80.5044 458.611 80.5044ZM459.375 82.4806L458.8 82.5047C458.329 82.5231 457.998 82.6 457.805 82.7354C457.612 82.8708 457.516 83.0625 457.516 83.3104C457.516 83.5262 457.581 83.6857 457.712 83.789C457.843 83.8923 458.016 83.9439 458.232 83.9439C458.567 83.9439 458.841 83.8509 459.055 83.665C459.268 83.4791 459.375 83.2002 459.375 82.8284V82.4806ZM462.832 80.4975C462.907 80.4975 462.987 80.5021 463.069 80.5112C463.152 80.5181 463.225 80.5285 463.29 80.5422L463.217 81.0724C463.155 81.0564 463.086 81.0438 463.011 81.0346C462.935 81.0254 462.864 81.0208 462.797 81.0208C462.646 81.0208 462.502 81.0518 462.367 81.1138C462.234 81.1734 462.117 81.2607 462.016 81.3754C461.915 81.4879 461.836 81.6245 461.778 81.7851C461.721 81.9435 461.692 82.1203 461.692 82.3154V84.3398H461.117V80.5663H461.592L461.654 81.2618H461.678C461.756 81.1218 461.85 80.9944 461.961 80.8796C462.071 80.7626 462.198 80.6696 462.343 80.6008C462.49 80.5319 462.653 80.4975 462.832 80.4975ZM463.916 83.9818C463.916 83.8211 463.955 83.7075 464.033 83.6409C464.111 83.5721 464.207 83.5376 464.319 83.5376C464.436 83.5376 464.535 83.5721 464.615 83.6409C464.696 83.7075 464.736 83.8211 464.736 83.9818C464.736 84.1402 464.696 84.2561 464.615 84.3295C464.535 84.4007 464.436 84.4362 464.319 84.4362C464.207 84.4362 464.111 84.4007 464.033 84.3295C463.955 84.2561 463.916 84.1402 463.916 83.9818ZM465.769 83.9818C465.769 83.8211 465.808 83.7075 465.886 83.6409C465.964 83.5721 466.059 83.5376 466.171 83.5376C466.288 83.5376 466.387 83.5721 466.468 83.6409C466.548 83.7075 466.588 83.8211 466.588 83.9818C466.588 84.1402 466.548 84.2561 466.468 84.3295C466.387 84.4007 466.288 84.4362 466.171 84.4362C466.059 84.4362 465.964 84.4007 465.886 84.3295C465.808 84.2561 465.769 84.1402 465.769 83.9818ZM467.621 83.9818C467.621 83.8211 467.66 83.7075 467.738 83.6409C467.816 83.5721 467.911 83.5376 468.024 83.5376C468.141 83.5376 468.24 83.5721 468.32 83.6409C468.4 83.7075 468.44 83.8211 468.44 83.9818C468.44 84.1402 468.4 84.2561 468.32 84.3295C468.24 84.4007 468.141 84.4362 468.024 84.4362C467.911 84.4362 467.816 84.4007 467.738 84.3295C467.66 84.2561 467.621 84.1402 467.621 83.9818Z" fill="#5C6A7A"/>
<rect x="579.794" y="71.2805" width="58.3236" height="20.6955" rx="3.08492" stroke="#005E7A" stroke-width="0.881406"/>
<path d="M592.574 81.628C593.385 81.628 594.043 80.9706 594.043 80.159C594.043 79.3473 593.385 78.6899 592.574 78.6899C591.762 78.6899 591.105 79.3473 591.105 80.159C591.105 80.9706 591.762 81.628 592.574 81.628ZM592.574 82.3625C591.593 82.3625 589.636 82.8546 589.636 83.8315V84.1987C589.636 84.4007 589.801 84.566 590.003 84.566H595.145C595.347 84.566 595.512 84.4007 595.512 84.1987V83.8315C595.512 82.8546 593.554 82.3625 592.574 82.3625Z" fill="#005E7A"/>
<path d="M599.862 84.1919C599.698 84.1919 599.571 84.1469 599.481 84.057C599.397 83.9618 599.354 83.8323 599.354 83.6683V78.996C599.354 78.8268 599.397 78.6972 599.481 78.6073C599.571 78.5174 599.698 78.4724 599.862 78.4724C600.026 78.4724 600.15 78.5174 600.235 78.6073C600.325 78.6972 600.37 78.8268 600.37 78.996V83.6683C600.37 83.8323 600.328 83.9618 600.243 84.057C600.158 84.1469 600.031 84.1919 599.862 84.1919ZM601.99 84.1919C601.831 84.1919 601.71 84.1496 601.625 84.065C601.54 83.9751 601.498 83.8481 601.498 83.6842V80.6856C601.498 80.5217 601.54 80.3974 601.625 80.3128C601.71 80.2282 601.829 80.1859 601.982 80.1859C602.135 80.1859 602.254 80.2282 602.339 80.3128C602.424 80.3974 602.466 80.5217 602.466 80.6856V81.2251L602.379 81.0268C602.495 80.7465 602.675 80.5349 602.918 80.3921C603.167 80.2441 603.447 80.17 603.759 80.17C604.071 80.17 604.327 80.2282 604.528 80.3445C604.729 80.4609 604.88 80.6381 604.981 80.876C605.081 81.1087 605.131 81.4049 605.131 81.7645V83.6842C605.131 83.8481 605.089 83.9751 605.004 84.065C604.92 84.1496 604.798 84.1919 604.639 84.1919C604.481 84.1919 604.356 84.1496 604.267 84.065C604.182 83.9751 604.14 83.8481 604.14 83.6842V81.8121C604.14 81.5106 604.081 81.2912 603.965 81.1537C603.854 81.0162 603.68 80.9474 603.442 80.9474C603.151 80.9474 602.918 81.04 602.744 81.2251C602.574 81.4049 602.49 81.6455 602.49 81.9469V83.6842C602.49 84.0226 602.323 84.1919 601.99 84.1919ZM607.947 85.6356C607.661 85.6356 607.384 85.6092 607.114 85.5563C606.85 85.5034 606.609 85.4214 606.392 85.3104C606.292 85.2575 606.223 85.194 606.186 85.12C606.154 85.046 606.144 84.9693 606.154 84.89C606.17 84.8159 606.202 84.7498 606.249 84.6916C606.302 84.6335 606.366 84.5938 606.44 84.5726C606.514 84.5515 606.591 84.5621 606.67 84.6044C606.903 84.7207 607.122 84.7948 607.328 84.8265C607.54 84.8635 607.72 84.882 607.868 84.882C608.222 84.882 608.486 84.7948 608.661 84.6202C608.841 84.451 608.931 84.1972 608.931 83.8587V83.1448H609.002C608.923 83.4145 608.756 83.6313 608.502 83.7952C608.254 83.9539 607.971 84.0332 607.654 84.0332C607.304 84.0332 607 83.9539 606.741 83.7952C606.482 83.6313 606.281 83.4039 606.138 83.113C605.996 82.8222 605.924 82.4837 605.924 82.0977C605.924 81.8068 605.964 81.545 606.043 81.3123C606.128 81.0743 606.244 80.8707 606.392 80.7015C606.546 80.5323 606.728 80.4027 606.94 80.3128C607.156 80.2176 607.394 80.17 607.654 80.17C607.981 80.17 608.267 80.252 608.51 80.4159C608.759 80.5746 608.92 80.7861 608.994 81.0505L608.915 81.2489V80.6856C608.915 80.5217 608.957 80.3974 609.042 80.3128C609.132 80.2282 609.253 80.1859 609.407 80.1859C609.565 80.1859 609.687 80.2282 609.772 80.3128C609.856 80.3974 609.898 80.5217 609.898 80.6856V83.7397C609.898 84.369 609.732 84.8424 609.399 85.1597C609.066 85.477 608.582 85.6356 607.947 85.6356ZM607.923 83.2796C608.129 83.2796 608.307 83.232 608.455 83.1368C608.603 83.0416 608.716 82.9068 608.796 82.7323C608.88 82.5525 608.923 82.3409 608.923 82.0977C608.923 81.7328 608.833 81.4472 608.653 81.2409C608.473 81.0294 608.23 80.9236 607.923 80.9236C607.717 80.9236 607.54 80.9712 607.392 81.0664C607.244 81.1616 607.127 81.2965 607.043 81.471C606.963 81.6455 606.924 81.8544 606.924 82.0977C606.924 82.4626 607.014 82.7508 607.193 82.9623C607.373 83.1739 607.616 83.2796 607.923 83.2796ZM611.434 84.1919C611.27 84.1919 611.143 84.1496 611.053 84.065C610.968 83.9751 610.926 83.8481 610.926 83.6842V80.6856C610.926 80.5217 610.968 80.3974 611.053 80.3128C611.137 80.2282 611.256 80.1859 611.41 80.1859C611.563 80.1859 611.682 80.2282 611.767 80.3128C611.851 80.3974 611.894 80.5217 611.894 80.6856V81.1854H611.814C611.888 80.8681 612.034 80.6275 612.251 80.4635C612.467 80.2996 612.756 80.2018 613.115 80.17C613.226 80.1594 613.314 80.1885 613.377 80.2573C613.446 80.3207 613.485 80.4212 613.496 80.5587C613.507 80.6909 613.475 80.7993 613.401 80.884C613.332 80.9633 613.226 81.0109 613.084 81.0268L612.909 81.0426C612.586 81.0743 612.343 81.1748 612.179 81.3441C612.015 81.508 611.933 81.7407 611.933 82.0421V83.6842C611.933 83.8481 611.891 83.9751 611.806 84.065C611.722 84.1496 611.597 84.1919 611.434 84.1919ZM615.882 84.2077C615.443 84.2077 615.065 84.1258 614.748 83.9618C614.43 83.7979 614.184 83.5652 614.01 83.2638C613.841 82.9623 613.756 82.6053 613.756 82.1929C613.756 81.7909 613.838 81.4392 614.002 81.1378C614.171 80.8364 614.401 80.601 614.692 80.4318C614.988 80.2573 615.324 80.17 615.7 80.17C615.975 80.17 616.221 80.215 616.437 80.3049C616.659 80.3948 616.847 80.5244 617.001 80.6936C617.159 80.8628 617.278 81.0691 617.358 81.3123C617.442 81.5503 617.484 81.82 617.484 82.1215C617.484 82.2166 617.45 82.2907 617.381 82.3436C617.318 82.3912 617.225 82.415 617.104 82.415H614.557V81.8438H616.786L616.659 81.9628C616.659 81.7195 616.622 81.5159 616.548 81.352C616.48 81.188 616.377 81.0638 616.239 80.9792C616.107 80.8893 615.94 80.8443 615.739 80.8443C615.517 80.8443 615.327 80.8972 615.168 81.003C615.015 81.1034 614.896 81.2489 614.811 81.4392C614.732 81.6243 614.692 81.8465 614.692 82.1056V82.1611C614.692 82.5948 614.793 82.92 614.994 83.1368C615.2 83.3484 615.501 83.4541 615.898 83.4541C616.035 83.4541 616.189 83.4383 616.358 83.4065C616.533 83.3695 616.697 83.3087 616.85 83.2241C616.961 83.1606 617.059 83.1342 617.143 83.1448C617.228 83.1501 617.294 83.1791 617.342 83.232C617.395 83.2849 617.426 83.351 617.437 83.4303C617.447 83.5044 617.432 83.5811 617.389 83.6604C617.352 83.7397 617.286 83.8085 617.191 83.8666C617.006 83.983 616.792 84.0702 616.548 84.1284C616.31 84.1813 616.088 84.2077 615.882 84.2077ZM619.69 84.2077C619.462 84.2077 619.222 84.1839 618.968 84.1364C618.714 84.0888 618.487 84.0068 618.286 83.8904C618.201 83.8376 618.14 83.7767 618.103 83.708C618.071 83.6339 618.058 83.5626 618.063 83.4938C618.074 83.4198 618.101 83.3563 618.143 83.3034C618.19 83.2505 618.249 83.2162 618.317 83.2003C618.391 83.1844 618.471 83.1977 618.555 83.24C618.767 83.3404 618.965 83.4118 619.15 83.4541C619.335 83.4912 619.518 83.5097 619.698 83.5097C619.951 83.5097 620.139 83.4674 620.261 83.3827C620.388 83.2928 620.451 83.1765 620.451 83.0337C620.451 82.9121 620.409 82.8195 620.324 82.7561C620.245 82.6873 620.123 82.6371 619.959 82.6053L619.166 82.4546C618.838 82.3912 618.587 82.2722 618.413 82.0977C618.243 81.9179 618.159 81.6878 618.159 81.4075C618.159 81.1537 618.227 80.9342 618.365 80.7491C618.508 80.564 618.703 80.4212 618.952 80.3207C619.201 80.2203 619.486 80.17 619.809 80.17C620.041 80.17 620.258 80.1965 620.459 80.2494C620.665 80.2969 620.864 80.3736 621.054 80.4794C621.133 80.5217 621.186 80.5772 621.213 80.646C621.244 80.7147 621.252 80.7861 621.237 80.8602C621.221 80.9289 621.189 80.9924 621.141 81.0505C621.094 81.1034 621.033 81.1378 620.959 81.1537C620.89 81.1643 620.811 81.1484 620.721 81.1061C620.557 81.0215 620.398 80.9606 620.245 80.9236C620.097 80.8866 619.954 80.8681 619.817 80.8681C619.557 80.8681 619.364 80.9131 619.238 81.003C619.116 81.0929 619.055 81.2118 619.055 81.3599C619.055 81.471 619.092 81.5635 619.166 81.6376C619.24 81.7116 619.354 81.7618 619.507 81.7883L620.301 81.939C620.644 82.0025 620.903 82.1188 621.078 82.288C621.258 82.4573 621.348 82.6847 621.348 82.9703C621.348 83.3563 621.197 83.6604 620.895 83.8825C620.594 84.0993 620.192 84.2077 619.69 84.2077ZM623.42 84.2077C623.14 84.2077 622.889 84.1549 622.667 84.0491C622.45 83.938 622.278 83.79 622.151 83.6049C622.029 83.4198 621.969 83.2109 621.969 82.9782C621.969 82.6926 622.043 82.4678 622.191 82.3039C622.339 82.1347 622.579 82.013 622.913 81.939C623.246 81.865 623.693 81.8279 624.253 81.8279H624.65V82.3991H624.261C623.933 82.3991 623.671 82.415 623.476 82.4467C623.28 82.4784 623.14 82.534 623.055 82.6133C622.976 82.6873 622.936 82.7931 622.936 82.9306C622.936 83.1051 622.997 83.2479 623.119 83.359C623.24 83.47 623.41 83.5255 623.627 83.5255C623.801 83.5255 623.954 83.4859 624.087 83.4065C624.224 83.3219 624.333 83.2082 624.412 83.0654C624.491 82.9227 624.531 82.7587 624.531 82.5736V81.6614C624.531 81.3969 624.473 81.2066 624.356 81.0902C624.24 80.9739 624.044 80.9157 623.769 80.9157C623.616 80.9157 623.449 80.9342 623.27 80.9712C623.095 81.0082 622.91 81.0717 622.714 81.1616C622.614 81.2092 622.524 81.2224 622.445 81.2013C622.371 81.1801 622.312 81.1378 622.27 81.0743C622.228 81.0056 622.207 80.9316 622.207 80.8522C622.207 80.7729 622.228 80.6962 622.27 80.6222C622.312 80.5429 622.384 80.4847 622.484 80.4477C622.727 80.3472 622.96 80.2758 623.182 80.2335C623.41 80.1912 623.616 80.17 623.801 80.17C624.182 80.17 624.494 80.2282 624.737 80.3445C624.986 80.4609 625.171 80.6381 625.292 80.876C625.414 81.1087 625.475 81.4102 625.475 81.7804V83.6842C625.475 83.8481 625.435 83.9751 625.356 84.065C625.277 84.1496 625.163 84.1919 625.015 84.1919C624.867 84.1919 624.75 84.1496 624.666 84.065C624.586 83.9751 624.547 83.8481 624.547 83.6842V83.3034H624.61C624.573 83.4885 624.499 83.6498 624.388 83.7873C624.282 83.9195 624.147 84.0226 623.983 84.0967C623.82 84.1707 623.632 84.2077 623.42 84.2077ZM626.989 84.1919C626.825 84.1919 626.698 84.1496 626.608 84.065C626.524 83.9751 626.481 83.8481 626.481 83.6842V80.6856C626.481 80.5217 626.524 80.3974 626.608 80.3128C626.693 80.2282 626.812 80.1859 626.965 80.1859C627.119 80.1859 627.238 80.2282 627.322 80.3128C627.407 80.3974 627.449 80.5217 627.449 80.6856V81.1854H627.37C627.444 80.8681 627.589 80.6275 627.806 80.4635C628.023 80.2996 628.311 80.2018 628.671 80.17C628.782 80.1594 628.869 80.1885 628.932 80.2573C629.001 80.3207 629.041 80.4212 629.051 80.5587C629.062 80.6909 629.03 80.7993 628.956 80.884C628.888 80.9633 628.782 81.0109 628.639 81.0268L628.464 81.0426C628.142 81.0743 627.899 81.1748 627.735 81.3441C627.571 81.508 627.489 81.7407 627.489 82.0421V83.6842C627.489 83.8481 627.446 83.9751 627.362 84.065C627.277 84.1496 627.153 84.1919 626.989 84.1919Z" fill="#005E7A"/>
<defs>
<clipPath id="clip0_169_15569">
<rect width="33.4931" height="18.0159" fill="white" transform="translate(90.3237 72.1797)"/>
</clipPath>
</defs>
</svg>
