<svg width="728" height="184" viewBox="0 0 728 184" fill="none" xmlns="http://www.w3.org/2000/svg">
<rect y="0.768555" width="728" height="182.647" rx="8" fill="#E6EBF0"/>
<rect width="602" height="19.3909" transform="translate(63 64.7686)" fill="#F3F6F9"/>
<g clip-path="url(#clip0_1788_7941)">
<path d="M102.535 76.5104L99.9992 71.6106C99.7805 71.1756 99.3323 70.8779 98.8121 70.8779H98.8109C98.2913 70.8779 97.8426 71.1756 97.6238 71.6106L95.8389 75.0595C95.6396 74.7048 95.3218 74.4265 94.9383 74.2761C95.3663 73.9665 95.6452 73.462 95.6452 72.8929C95.6452 72.2329 95.2704 71.662 94.7227 71.3787C94.2401 71.1249 93.6892 70.9813 93.1051 70.9813H90.4351C89.8861 70.9813 89.4424 71.4251 89.4424 71.9728V76.9416C89.4424 77.4894 89.8861 77.9331 90.4351 77.9331H93.3225C93.8791 77.9331 94.4087 77.8178 94.8894 77.6123L95.0724 77.5239C95.0824 77.5189 95.0924 77.5139 95.1025 77.5088C95.2761 77.7965 95.5901 77.9902 95.9517 77.9902C96.3534 77.9902 96.6994 77.752 96.8555 77.4079C96.9332 77.2262 97.1087 77.0977 97.3155 77.0877H100.307C100.514 77.0977 100.689 77.2262 100.767 77.4079C100.922 77.752 101.269 77.9902 101.671 77.9902C102.219 77.9902 102.663 77.5452 102.663 76.9993C102.663 76.8213 102.617 76.6546 102.534 76.5111" fill="#002733"/>
</g>
<path d="M110.437 74.6562H111.977V76.7921C111.746 76.8705 111.508 76.9287 111.263 76.9669C111.02 77.005 110.747 77.0241 110.446 77.0241C109.988 77.0241 109.602 76.9327 109.286 76.75C108.973 76.5672 108.735 76.3071 108.572 75.9697C108.41 75.6303 108.328 75.2276 108.328 74.7616C108.328 74.3057 108.418 73.9081 108.596 73.5686C108.777 73.2292 109.037 72.9661 109.377 72.7793C109.718 72.5906 110.128 72.4962 110.606 72.4962C110.851 72.4962 111.083 72.5193 111.302 72.5654C111.523 72.6096 111.727 72.6729 111.916 72.7552L111.72 73.2011C111.558 73.1308 111.378 73.0706 111.181 73.0204C110.986 72.9701 110.785 72.945 110.576 72.945C110.216 72.945 109.908 73.0193 109.651 73.168C109.396 73.3166 109.2 73.5265 109.063 73.7976C108.929 74.0687 108.861 74.3901 108.861 74.7616C108.861 75.1292 108.921 75.4495 109.039 75.7227C109.158 75.9938 109.342 76.2047 109.594 76.3553C109.845 76.5059 110.168 76.5813 110.564 76.5813C110.762 76.5813 110.933 76.5702 111.076 76.5481C111.218 76.524 111.348 76.4959 111.464 76.4638V75.1141H110.437V74.6562ZM115.815 75.3069C115.815 75.5781 115.779 75.8201 115.709 76.033C115.639 76.2459 115.537 76.4256 115.405 76.5722C115.272 76.7188 115.112 76.8313 114.923 76.9096C114.736 76.986 114.524 77.0241 114.287 77.0241C114.066 77.0241 113.863 76.986 113.679 76.9096C113.496 76.8313 113.337 76.7188 113.203 76.5722C113.07 76.4256 112.967 76.2459 112.892 76.033C112.82 75.8201 112.784 75.5781 112.784 75.3069C112.784 74.9454 112.845 74.6381 112.968 74.3851C113.09 74.13 113.265 73.9362 113.492 73.8036C113.721 73.6691 113.993 73.6018 114.308 73.6018C114.61 73.6018 114.873 73.6691 115.098 73.8036C115.325 73.9382 115.5 74.133 115.625 74.3881C115.751 74.6411 115.815 74.9474 115.815 75.3069ZM113.302 75.3069C113.302 75.572 113.337 75.802 113.408 75.9968C113.478 76.1916 113.586 76.3423 113.733 76.4487C113.879 76.5552 114.068 76.6084 114.299 76.6084C114.528 76.6084 114.716 76.5552 114.863 76.4487C115.011 76.3423 115.121 76.1916 115.191 75.9968C115.261 75.802 115.296 75.572 115.296 75.3069C115.296 75.0438 115.261 74.8169 115.191 74.6261C115.121 74.4333 115.012 74.2846 114.866 74.1802C114.719 74.0758 114.529 74.0236 114.296 74.0236C113.953 74.0236 113.701 74.137 113.54 74.364C113.381 74.5909 113.302 74.9052 113.302 75.3069ZM117.179 72.2762V73.4481C117.179 73.5827 117.175 73.7133 117.167 73.8398C117.161 73.9663 117.156 74.0647 117.152 74.135H117.179C117.27 73.9864 117.4 73.8609 117.571 73.7584C117.742 73.656 117.96 73.6048 118.225 73.6048C118.638 73.6048 118.968 73.7484 119.213 74.0356C119.46 74.3208 119.583 74.7456 119.583 75.3099C119.583 75.6815 119.527 75.9948 119.415 76.2499C119.302 76.5049 119.144 76.6978 118.939 76.8283C118.734 76.9588 118.492 77.0241 118.213 77.0241C117.952 77.0241 117.737 76.9759 117.568 76.8795C117.401 76.7811 117.273 76.6616 117.182 76.521H117.143L117.041 76.9639H116.679V72.2762H117.179ZM118.143 74.0236C117.904 74.0236 117.715 74.0708 117.574 74.1651C117.433 74.2575 117.332 74.3981 117.27 74.5869C117.209 74.7737 117.179 75.0107 117.179 75.2979V75.325C117.179 75.7407 117.249 76.0591 117.387 76.28C117.526 76.4989 117.778 76.6084 118.143 76.6084C118.451 76.6084 118.681 76.4959 118.833 76.271C118.988 76.046 119.065 75.7247 119.065 75.3069C119.065 74.8811 118.989 74.5608 118.836 74.3459C118.686 74.131 118.455 74.0236 118.143 74.0236ZM120.957 73.662V76.9639H120.457V73.662H120.957ZM120.713 72.4269C120.795 72.4269 120.866 72.454 120.924 72.5082C120.984 72.5604 121.014 72.6428 121.014 72.7552C121.014 72.8657 120.984 72.948 120.924 73.0023C120.866 73.0565 120.795 73.0836 120.713 73.0836C120.627 73.0836 120.554 73.0565 120.496 73.0023C120.44 72.948 120.412 72.8657 120.412 72.7552C120.412 72.6428 120.44 72.5604 120.496 72.5082C120.554 72.454 120.627 72.4269 120.713 72.4269ZM123.289 73.6018C123.57 73.6018 123.811 73.664 124.012 73.7886C124.213 73.9131 124.366 74.0878 124.473 74.3128C124.579 74.5357 124.633 74.7968 124.633 75.096V75.4063H122.352C122.358 75.794 122.454 76.0892 122.641 76.2921C122.828 76.4949 123.091 76.5963 123.43 76.5963C123.639 76.5963 123.824 76.5772 123.985 76.5391C124.145 76.5009 124.312 76.4447 124.485 76.3704V76.8102C124.318 76.8845 124.153 76.9388 123.988 76.9729C123.825 77.007 123.632 77.0241 123.409 77.0241C123.092 77.0241 122.815 76.9599 122.578 76.8313C122.343 76.7008 122.16 76.51 122.03 76.2589C121.899 76.0079 121.834 75.7006 121.834 75.3371C121.834 74.9816 121.893 74.6743 122.012 74.4152C122.132 74.1541 122.301 73.9533 122.518 73.8127C122.737 73.6721 122.994 73.6018 123.289 73.6018ZM123.283 74.0115C123.016 74.0115 122.803 74.0989 122.644 74.2736C122.486 74.4483 122.391 74.6924 122.361 75.0057H124.108C124.106 74.8088 124.075 74.6361 124.015 74.4875C123.957 74.3369 123.867 74.2204 123.747 74.138C123.626 74.0537 123.472 74.0115 123.283 74.0115ZM126.982 73.6018C127.049 73.6018 127.118 73.6058 127.19 73.6138C127.263 73.6199 127.327 73.6289 127.383 73.641L127.32 74.1049C127.266 74.0908 127.205 74.0798 127.139 74.0718C127.073 74.0637 127.01 74.0597 126.952 74.0597C126.82 74.0597 126.694 74.0868 126.576 74.141C126.459 74.1933 126.357 74.2696 126.268 74.37C126.18 74.4684 126.111 74.5879 126.06 74.7285C126.01 74.8671 125.985 75.0217 125.985 75.1924V76.9639H125.482V73.662H125.898L125.952 74.2706H125.973C126.041 74.1481 126.124 74.0366 126.22 73.9362C126.317 73.8338 126.428 73.7524 126.555 73.6922C126.683 73.6319 126.826 73.6018 126.982 73.6018ZM129.57 73.6018C129.962 73.6018 130.258 73.6982 130.459 73.891C130.66 74.0818 130.76 74.3891 130.76 74.8129V76.9639H130.266V74.846C130.266 74.5708 130.203 74.365 130.076 74.2284C129.952 74.0918 129.76 74.0236 129.501 74.0236C129.135 74.0236 128.878 74.127 128.73 74.3339C128.581 74.5407 128.507 74.841 128.507 75.2346V76.9639H128.007V73.662H128.41L128.486 74.138H128.513C128.583 74.0215 128.672 73.9241 128.781 73.8458C128.889 73.7655 129.011 73.7052 129.145 73.6651C129.28 73.6229 129.422 73.6018 129.57 73.6018ZM134.637 75.3069C134.637 75.5781 134.602 75.8201 134.532 76.033C134.462 76.2459 134.36 76.4256 134.228 76.5722C134.095 76.7188 133.934 76.8313 133.746 76.9096C133.559 76.986 133.347 77.0241 133.11 77.0241C132.889 77.0241 132.686 76.986 132.501 76.9096C132.319 76.8313 132.16 76.7188 132.025 76.5722C131.893 76.4256 131.789 76.2459 131.715 76.033C131.643 75.8201 131.607 75.5781 131.607 75.3069C131.607 74.9454 131.668 74.6381 131.79 74.3851C131.913 74.13 132.088 73.9362 132.315 73.8036C132.544 73.6691 132.816 73.6018 133.131 73.6018C133.432 73.6018 133.695 73.6691 133.92 73.8036C134.147 73.9382 134.323 74.133 134.448 74.3881C134.574 74.6411 134.637 74.9474 134.637 75.3069ZM132.125 75.3069C132.125 75.572 132.16 75.802 132.23 75.9968C132.301 76.1916 132.409 76.3423 132.556 76.4487C132.702 76.5552 132.891 76.6084 133.122 76.6084C133.351 76.6084 133.539 76.5552 133.685 76.4487C133.834 76.3423 133.944 76.1916 134.014 75.9968C134.084 75.802 134.119 75.572 134.119 75.3069C134.119 75.0438 134.084 74.8169 134.014 74.6261C133.944 74.4333 133.835 74.2846 133.688 74.1802C133.542 74.0758 133.352 74.0236 133.119 74.0236C132.776 74.0236 132.524 74.137 132.363 74.364C132.204 74.5909 132.125 74.9052 132.125 75.3069ZM138.28 77.0241C137.862 77.0241 137.531 76.8815 137.286 76.5963C137.042 76.3111 136.921 75.8874 136.921 75.325C136.921 74.7566 137.046 74.3278 137.295 74.0386C137.544 73.7474 137.875 73.6018 138.289 73.6018C138.463 73.6018 138.616 73.6249 138.747 73.6711C138.877 73.7173 138.99 73.7795 139.084 73.8579C139.178 73.9342 139.258 74.0215 139.322 74.12H139.358C139.35 74.0577 139.342 73.9723 139.334 73.8639C139.326 73.7554 139.322 73.6671 139.322 73.5988V72.2762H139.822V76.9639H139.418L139.343 76.4939H139.322C139.26 76.5923 139.18 76.6817 139.084 76.762C138.99 76.8424 138.876 76.9066 138.744 76.9548C138.613 77.001 138.458 77.0241 138.28 77.0241ZM138.358 76.6084C138.711 76.6084 138.962 76.508 139.108 76.3071C139.255 76.1063 139.328 75.808 139.328 75.4124V75.322C139.328 74.9022 139.258 74.5799 139.117 74.3549C138.979 74.13 138.726 74.0175 138.358 74.0175C138.051 74.0175 137.821 74.136 137.668 74.373C137.515 74.608 137.439 74.9293 137.439 75.3371C137.439 75.7428 137.514 76.0561 137.665 76.277C137.818 76.4979 138.049 76.6084 138.358 76.6084ZM142.154 73.6018C142.435 73.6018 142.676 73.664 142.877 73.7886C143.078 73.9131 143.231 74.0878 143.338 74.3128C143.444 74.5357 143.498 74.7968 143.498 75.096V75.4063H141.217C141.223 75.794 141.319 76.0892 141.506 76.2921C141.693 76.4949 141.956 76.5963 142.295 76.5963C142.504 76.5963 142.689 76.5772 142.85 76.5391C143.01 76.5009 143.177 76.4447 143.35 76.3704V76.8102C143.183 76.8845 143.018 76.9388 142.853 76.9729C142.69 77.007 142.497 77.0241 142.274 77.0241C141.957 77.0241 141.68 76.9599 141.443 76.8313C141.208 76.7008 141.025 76.51 140.895 76.2589C140.764 76.0079 140.699 75.7006 140.699 75.3371C140.699 74.9816 140.758 74.6743 140.877 74.4152C140.997 74.1541 141.166 73.9533 141.383 73.8127C141.602 73.6721 141.859 73.6018 142.154 73.6018ZM142.148 74.0115C141.881 74.0115 141.668 74.0989 141.509 74.2736C141.351 74.4483 141.256 74.6924 141.226 75.0057H142.973C142.971 74.8088 142.94 74.6361 142.88 74.4875C142.822 74.3369 142.732 74.2204 142.612 74.138C142.491 74.0537 142.337 74.0115 142.148 74.0115ZM146.453 76.9639H145.95V72.2762H146.453V76.9639ZM148.746 73.6078C149.139 73.6078 149.431 73.6962 149.622 73.8729C149.813 74.0497 149.908 74.3318 149.908 74.7195V76.9639H149.544L149.447 76.4758H149.423C149.331 76.5963 149.235 76.6978 149.134 76.7801C149.034 76.8604 148.917 76.9217 148.785 76.9639C148.654 77.004 148.493 77.0241 148.303 77.0241C148.102 77.0241 147.923 76.989 147.766 76.9187C147.612 76.8484 147.489 76.7419 147.399 76.5993C147.31 76.4567 147.266 76.276 147.266 76.0571C147.266 75.7277 147.397 75.4746 147.658 75.2979C147.919 75.1212 148.317 75.0247 148.851 75.0087L149.42 74.9846V74.7827C149.42 74.4975 149.359 74.2977 149.237 74.1832C149.114 74.0687 148.941 74.0115 148.718 74.0115C148.546 74.0115 148.381 74.0366 148.224 74.0868C148.068 74.137 147.919 74.1963 147.778 74.2646L147.625 73.885C147.773 73.8087 147.944 73.7434 148.137 73.6892C148.33 73.6349 148.533 73.6078 148.746 73.6078ZM149.414 75.3371L148.911 75.3581C148.499 75.3742 148.209 75.4415 148.041 75.56C147.872 75.6785 147.787 75.8462 147.787 76.0631C147.787 76.2519 147.845 76.3915 147.959 76.4818C148.074 76.5722 148.225 76.6174 148.414 76.6174C148.707 76.6174 148.947 76.5361 149.134 76.3734C149.321 76.2107 149.414 75.9667 149.414 75.6413V75.3371ZM154.5 72.948C154.257 72.948 154.038 72.9902 153.843 73.0746C153.65 73.1569 153.485 73.2774 153.349 73.4361C153.214 73.5927 153.111 73.7825 153.038 74.0055C152.966 74.2284 152.93 74.4795 152.93 74.7586C152.93 75.1282 152.987 75.4495 153.102 75.7227C153.218 75.9938 153.391 76.2037 153.62 76.3523C153.851 76.5009 154.139 76.5752 154.485 76.5752C154.681 76.5752 154.866 76.5592 155.039 76.527C155.214 76.4929 155.383 76.4507 155.548 76.4005V76.8464C155.387 76.9066 155.219 76.9508 155.042 76.9789C154.865 77.0091 154.655 77.0241 154.412 77.0241C153.964 77.0241 153.59 76.9317 153.289 76.747C152.989 76.5602 152.764 76.2971 152.614 75.9577C152.465 75.6182 152.391 75.2176 152.391 74.7556C152.391 74.4222 152.437 74.1179 152.529 73.8428C152.624 73.5656 152.76 73.3266 152.939 73.1258C153.12 72.925 153.341 72.7703 153.602 72.6619C153.865 72.5514 154.166 72.4962 154.506 72.4962C154.729 72.4962 154.943 72.5182 155.15 72.5624C155.357 72.6066 155.544 72.6699 155.711 72.7522L155.506 73.186C155.365 73.1218 155.211 73.0665 155.042 73.0204C154.875 72.9722 154.694 72.948 154.5 72.948ZM156.928 73.662V76.9639H156.428V73.662H156.928ZM156.684 72.4269C156.766 72.4269 156.836 72.454 156.895 72.5082C156.955 72.5604 156.985 72.6428 156.985 72.7552C156.985 72.8657 156.955 72.948 156.895 73.0023C156.836 73.0565 156.766 73.0836 156.684 73.0836C156.597 73.0836 156.525 73.0565 156.467 73.0023C156.411 72.948 156.382 72.8657 156.382 72.7552C156.382 72.6428 156.411 72.5604 156.467 72.5082C156.525 72.454 156.597 72.4269 156.684 72.4269ZM160.715 73.662V76.9639H160.305L160.233 76.4999H160.205C160.137 76.6144 160.049 76.7108 159.94 76.7891C159.832 76.8675 159.709 76.9257 159.573 76.9639C159.438 77.004 159.295 77.0241 159.142 77.0241C158.881 77.0241 158.662 76.9819 158.485 76.8976C158.309 76.8132 158.175 76.6827 158.085 76.5059C157.996 76.3292 157.952 76.1023 157.952 75.8251V73.662H158.458V75.7889C158.458 76.0641 158.52 76.27 158.645 76.4065C158.769 76.5411 158.959 76.6084 159.214 76.6084C159.459 76.6084 159.654 76.5622 159.799 76.4698C159.945 76.3774 160.051 76.2418 160.115 76.0631C160.179 75.8823 160.212 75.6614 160.212 75.4003V73.662H160.715ZM162.947 77.0241C162.529 77.0241 162.198 76.8815 161.953 76.5963C161.71 76.3111 161.588 75.8874 161.588 75.325C161.588 74.7566 161.713 74.3278 161.962 74.0386C162.211 73.7474 162.542 73.6018 162.956 73.6018C163.131 73.6018 163.283 73.6249 163.414 73.6711C163.544 73.7173 163.657 73.7795 163.751 73.8579C163.846 73.9342 163.925 74.0215 163.989 74.12H164.025C164.017 74.0577 164.009 73.9723 164.001 73.8639C163.993 73.7554 163.989 73.6671 163.989 73.5988V72.2762H164.489V76.9639H164.086L164.01 76.4939H163.989C163.927 76.5923 163.848 76.6817 163.751 76.762C163.657 76.8424 163.543 76.9066 163.411 76.9548C163.28 77.001 163.126 77.0241 162.947 77.0241ZM163.025 76.6084C163.379 76.6084 163.629 76.508 163.775 76.3071C163.922 76.1063 163.995 75.808 163.995 75.4124V75.322C163.995 74.9022 163.925 74.5799 163.784 74.3549C163.646 74.13 163.393 74.0175 163.025 74.0175C162.718 74.0175 162.488 74.136 162.335 74.373C162.183 74.608 162.106 74.9293 162.106 75.3371C162.106 75.7428 162.182 76.0561 162.332 76.277C162.485 76.4979 162.716 76.6084 163.025 76.6084ZM166.785 73.6078C167.179 73.6078 167.471 73.6962 167.662 73.8729C167.853 74.0497 167.948 74.3318 167.948 74.7195V76.9639H167.583L167.487 76.4758H167.463C167.371 76.5963 167.274 76.6978 167.174 76.7801C167.073 76.8604 166.957 76.9217 166.824 76.9639C166.694 77.004 166.533 77.0241 166.342 77.0241C166.141 77.0241 165.963 76.989 165.806 76.9187C165.651 76.8484 165.529 76.7419 165.438 76.5993C165.35 76.4567 165.306 76.276 165.306 76.0571C165.306 75.7277 165.436 75.4746 165.697 75.2979C165.959 75.1212 166.356 75.0247 166.89 75.0087L167.46 74.9846V74.7827C167.46 74.4975 167.399 74.2977 167.276 74.1832C167.154 74.0687 166.981 74.0115 166.758 74.0115C166.585 74.0115 166.421 74.0366 166.264 74.0868C166.107 74.137 165.959 74.1963 165.818 74.2646L165.664 73.885C165.813 73.8087 165.984 73.7434 166.177 73.6892C166.369 73.6349 166.572 73.6078 166.785 73.6078ZM167.454 75.3371L166.951 75.3581C166.539 75.3742 166.249 75.4415 166.08 75.56C165.911 75.6785 165.827 75.8462 165.827 76.0631C165.827 76.2519 165.884 76.3915 165.999 76.4818C166.113 76.5722 166.265 76.6174 166.454 76.6174C166.747 76.6174 166.987 76.5361 167.174 76.3734C167.36 76.2107 167.454 75.9667 167.454 75.6413V75.3371ZM170.153 77.0241C169.735 77.0241 169.404 76.8815 169.159 76.5963C168.916 76.3111 168.794 75.8874 168.794 75.325C168.794 74.7566 168.919 74.3278 169.168 74.0386C169.417 73.7474 169.748 73.6018 170.162 73.6018C170.337 73.6018 170.49 73.6249 170.62 73.6711C170.751 73.7173 170.863 73.7795 170.958 73.8579C171.052 73.9342 171.131 74.0215 171.196 74.12H171.232C171.224 74.0577 171.216 73.9723 171.208 73.8639C171.2 73.7554 171.196 73.6671 171.196 73.5988V72.2762H171.696V76.9639H171.292L171.217 76.4939H171.196C171.133 76.5923 171.054 76.6817 170.958 76.762C170.863 76.8424 170.75 76.9066 170.617 76.9548C170.487 77.001 170.332 77.0241 170.153 77.0241ZM170.231 76.6084C170.585 76.6084 170.835 76.508 170.982 76.3071C171.128 76.1063 171.202 75.808 171.202 75.4124V75.322C171.202 74.9022 171.131 74.5799 170.991 74.3549C170.852 74.13 170.599 74.0175 170.231 74.0175C169.924 74.0175 169.694 74.136 169.542 74.373C169.389 74.608 169.313 74.9293 169.313 75.3371C169.313 75.7428 169.388 76.0561 169.539 76.277C169.691 76.4979 169.922 76.6084 170.231 76.6084ZM175.534 77.0241C175.116 77.0241 174.785 76.8815 174.54 76.5963C174.297 76.3111 174.175 75.8874 174.175 75.325C174.175 74.7566 174.3 74.3278 174.549 74.0386C174.798 73.7474 175.129 73.6018 175.543 73.6018C175.717 73.6018 175.87 73.6249 176.001 73.6711C176.131 73.7173 176.244 73.7795 176.338 73.8579C176.432 73.9342 176.512 74.0215 176.576 74.12H176.612C176.604 74.0577 176.596 73.9723 176.588 73.8639C176.58 73.7554 176.576 73.6671 176.576 73.5988V72.2762H177.076V76.9639H176.672L176.597 76.4939H176.576C176.514 76.5923 176.434 76.6817 176.338 76.762C176.244 76.8424 176.13 76.9066 175.998 76.9548C175.867 77.001 175.712 77.0241 175.534 77.0241ZM175.612 76.6084C175.965 76.6084 176.216 76.508 176.362 76.3071C176.509 76.1063 176.582 75.808 176.582 75.4124V75.322C176.582 74.9022 176.512 74.5799 176.371 74.3549C176.233 74.13 175.98 74.0175 175.612 74.0175C175.305 74.0175 175.075 74.136 174.922 74.373C174.769 74.608 174.693 74.9293 174.693 75.3371C174.693 75.7428 174.768 76.0561 174.919 76.277C175.072 76.4979 175.303 76.6084 175.612 76.6084ZM179.408 73.6018C179.689 73.6018 179.93 73.664 180.131 73.7886C180.332 73.9131 180.485 74.0878 180.592 74.3128C180.698 74.5357 180.752 74.7968 180.752 75.096V75.4063H178.471C178.477 75.794 178.573 76.0892 178.76 76.2921C178.947 76.4949 179.21 76.5963 179.55 76.5963C179.758 76.5963 179.943 76.5772 180.104 76.5391C180.265 76.5009 180.431 76.4447 180.604 76.3704V76.8102C180.437 76.8845 180.272 76.9388 180.107 76.9729C179.944 77.007 179.751 77.0241 179.528 77.0241C179.211 77.0241 178.934 76.9599 178.697 76.8313C178.462 76.7008 178.279 76.51 178.149 76.2589C178.018 76.0079 177.953 75.7006 177.953 75.3371C177.953 74.9816 178.012 74.6743 178.131 74.4152C178.251 74.1541 178.42 73.9533 178.637 73.8127C178.856 73.6721 179.113 73.6018 179.408 73.6018ZM179.402 74.0115C179.135 74.0115 178.922 74.0989 178.763 74.2736C178.605 74.4483 178.51 74.6924 178.48 75.0057H180.227C180.225 74.8088 180.194 74.6361 180.134 74.4875C180.076 74.3369 179.986 74.2204 179.866 74.138C179.745 74.0537 179.591 74.0115 179.402 74.0115ZM183.279 72.5594H184.526C185.077 72.5594 185.49 72.6418 185.768 72.8065C186.045 72.9711 186.183 73.2513 186.183 73.647C186.183 73.8177 186.15 73.9713 186.084 74.1079C186.02 74.2425 185.925 74.3539 185.801 74.4423C185.676 74.5307 185.523 74.5919 185.34 74.6261V74.6562C185.533 74.6863 185.703 74.7416 185.852 74.8219C186.001 74.9022 186.117 75.0147 186.201 75.1593C186.286 75.3039 186.328 75.4877 186.328 75.7106C186.328 75.9818 186.265 76.2107 186.138 76.3975C186.014 76.5843 185.837 76.7259 185.608 76.8223C185.379 76.9167 185.108 76.9639 184.794 76.9639H183.279V72.5594ZM183.791 74.4483H184.635C185.018 74.4483 185.284 74.3851 185.43 74.2585C185.579 74.132 185.653 73.9472 185.653 73.7042C185.653 73.4532 185.565 73.2724 185.388 73.1619C185.213 73.0515 184.934 72.9963 184.55 72.9963H183.791V74.4483ZM183.791 74.8791V76.527H184.707C185.099 76.527 185.376 76.4507 185.539 76.2981C185.701 76.1434 185.783 75.9356 185.783 75.6745C185.783 75.5078 185.745 75.3652 185.671 75.2467C185.599 75.1282 185.48 75.0378 185.316 74.9755C185.153 74.9113 184.935 74.8791 184.662 74.8791H183.791ZM189.919 73.662V76.9639H189.509L189.437 76.4999H189.41C189.342 76.6144 189.253 76.7108 189.145 76.7891C189.036 76.8675 188.914 76.9257 188.777 76.9639C188.643 77.004 188.499 77.0241 188.346 77.0241C188.085 77.0241 187.866 76.9819 187.69 76.8976C187.513 76.8132 187.379 76.6827 187.289 76.5059C187.201 76.3292 187.156 76.1023 187.156 75.8251V73.662H187.662V75.7889C187.662 76.0641 187.725 76.27 187.849 76.4065C187.974 76.5411 188.164 76.6084 188.419 76.6084C188.664 76.6084 188.858 76.5622 189.003 76.4698C189.15 76.3774 189.255 76.2418 189.319 76.0631C189.384 75.8823 189.416 75.6614 189.416 75.4003V73.662H189.919ZM192.248 73.6018C192.529 73.6018 192.77 73.664 192.971 73.7886C193.172 73.9131 193.325 74.0878 193.432 74.3128C193.538 74.5357 193.591 74.7968 193.591 75.096V75.4063H191.311C191.317 75.794 191.413 76.0892 191.6 76.2921C191.787 76.4949 192.05 76.5963 192.389 76.5963C192.598 76.5963 192.783 76.5772 192.944 76.5391C193.104 76.5009 193.271 76.4447 193.444 76.3704V76.8102C193.277 76.8845 193.111 76.9388 192.947 76.9729C192.784 77.007 192.591 77.0241 192.368 77.0241C192.051 77.0241 191.774 76.9599 191.537 76.8313C191.302 76.7008 191.119 76.51 190.988 76.2589C190.858 76.0079 190.793 75.7006 190.793 75.3371C190.793 74.9816 190.852 74.6743 190.97 74.4152C191.091 74.1541 191.26 73.9533 191.476 73.8127C191.695 73.6721 191.952 73.6018 192.248 73.6018ZM192.242 74.0115C191.975 74.0115 191.762 74.0989 191.603 74.2736C191.444 74.4483 191.35 74.6924 191.32 75.0057H193.067C193.065 74.8088 193.034 74.6361 192.974 74.4875C192.915 74.3369 192.826 74.2204 192.706 74.138C192.585 74.0537 192.43 74.0115 192.242 74.0115ZM196.004 73.6018C196.396 73.6018 196.692 73.6982 196.893 73.891C197.094 74.0818 197.194 74.3891 197.194 74.8129V76.9639H196.7V74.846C196.7 74.5708 196.637 74.365 196.511 74.2284C196.386 74.0918 196.194 74.0236 195.935 74.0236C195.57 74.0236 195.313 74.127 195.164 74.3339C195.015 74.5407 194.941 74.841 194.941 75.2346V76.9639H194.441V73.662H194.845L194.92 74.138H194.947C195.017 74.0215 195.107 73.9241 195.215 73.8458C195.324 73.7655 195.445 73.7052 195.58 73.6651C195.714 73.6229 195.856 73.6018 196.004 73.6018ZM201.072 75.3069C201.072 75.5781 201.036 75.8201 200.966 76.033C200.896 76.2459 200.794 76.4256 200.662 76.5722C200.529 76.7188 200.369 76.8313 200.18 76.9096C199.993 76.986 199.781 77.0241 199.544 77.0241C199.323 77.0241 199.12 76.986 198.936 76.9096C198.753 76.8313 198.594 76.7188 198.46 76.5722C198.327 76.4256 198.224 76.2459 198.149 76.033C198.077 75.8201 198.041 75.5781 198.041 75.3069C198.041 74.9454 198.102 74.6381 198.225 74.3851C198.347 74.13 198.522 73.9362 198.749 73.8036C198.978 73.6691 199.25 73.6018 199.565 73.6018C199.867 73.6018 200.13 73.6691 200.355 73.8036C200.582 73.9382 200.757 74.133 200.882 74.3881C201.008 74.6411 201.072 74.9474 201.072 75.3069ZM198.559 75.3069C198.559 75.572 198.594 75.802 198.665 75.9968C198.735 76.1916 198.843 76.3423 198.99 76.4487C199.137 76.5552 199.325 76.6084 199.556 76.6084C199.785 76.6084 199.973 76.5552 200.12 76.4487C200.268 76.3423 200.378 76.1916 200.448 75.9968C200.518 75.802 200.553 75.572 200.553 75.3069C200.553 75.0438 200.518 74.8169 200.448 74.6261C200.378 74.4333 200.269 74.2846 200.123 74.1802C199.976 74.0758 199.786 74.0236 199.553 74.0236C199.21 74.0236 198.958 74.137 198.797 74.364C198.638 74.5909 198.559 74.9052 198.559 75.3069ZM204.072 76.0601C204.072 76.271 204.019 76.4487 203.913 76.5933C203.808 76.7359 203.657 76.8434 203.461 76.9157C203.266 76.988 203.033 77.0241 202.762 77.0241C202.531 77.0241 202.331 77.006 202.162 76.9699C201.994 76.9337 201.846 76.8825 201.719 76.8162V76.3553C201.854 76.4216 202.015 76.4818 202.201 76.5361C202.388 76.5903 202.579 76.6174 202.774 76.6174C203.059 76.6174 203.266 76.5712 203.394 76.4788C203.523 76.3864 203.587 76.2609 203.587 76.1023C203.587 76.0119 203.561 75.9325 203.509 75.8643C203.459 75.794 203.373 75.7267 203.253 75.6624C203.132 75.5961 202.966 75.5238 202.753 75.4455C202.542 75.3652 202.359 75.2858 202.204 75.2075C202.052 75.1272 201.933 75.0298 201.849 74.9153C201.767 74.8008 201.725 74.6522 201.725 74.4694C201.725 74.1903 201.838 73.9764 202.063 73.8277C202.29 73.6771 202.587 73.6018 202.955 73.6018C203.153 73.6018 203.339 73.6219 203.512 73.662C203.687 73.7002 203.849 73.7524 204 73.8187L203.831 74.2194C203.695 74.1611 203.549 74.1119 203.394 74.0718C203.24 74.0316 203.082 74.0115 202.921 74.0115C202.69 74.0115 202.513 74.0497 202.388 74.126C202.266 74.2023 202.204 74.3067 202.204 74.4393C202.204 74.5417 202.233 74.6261 202.289 74.6924C202.347 74.7586 202.439 74.8209 202.566 74.8791C202.692 74.9374 202.859 75.0057 203.066 75.084C203.273 75.1603 203.452 75.2396 203.602 75.322C203.753 75.4023 203.868 75.5007 203.949 75.6172C204.031 75.7317 204.072 75.8793 204.072 76.0601ZM209.317 76.9639L208.775 75.566H207.01L206.47 76.9639H205.952L207.675 72.5413H208.136L209.847 76.9639H209.317ZM208.621 75.1111L208.106 73.7223C208.094 73.6861 208.074 73.6269 208.046 73.5445C208.02 73.4622 207.993 73.3768 207.965 73.2885C207.936 73.2001 207.913 73.1288 207.895 73.0746C207.875 73.1569 207.853 73.2393 207.829 73.3216C207.807 73.402 207.785 73.4773 207.763 73.5476C207.741 73.6158 207.721 73.6741 207.705 73.7223L207.181 75.1111H208.621ZM210.884 73.662V76.9639H210.384V73.662H210.884ZM210.64 72.4269C210.722 72.4269 210.792 72.454 210.851 72.5082C210.911 72.5604 210.941 72.6428 210.941 72.7552C210.941 72.8657 210.911 72.948 210.851 73.0023C210.792 73.0565 210.722 73.0836 210.64 73.0836C210.553 73.0836 210.481 73.0565 210.423 73.0023C210.367 72.948 210.338 72.8657 210.338 72.7552C210.338 72.6428 210.367 72.5604 210.423 72.5082C210.481 72.454 210.553 72.4269 210.64 72.4269ZM213.444 73.6018C213.511 73.6018 213.58 73.6058 213.652 73.6138C213.725 73.6199 213.789 73.6289 213.845 73.641L213.782 74.1049C213.728 74.0908 213.667 74.0798 213.601 74.0718C213.535 74.0637 213.473 74.0597 213.414 74.0597C213.282 74.0597 213.156 74.0868 213.038 74.141C212.921 74.1933 212.819 74.2696 212.73 74.37C212.642 74.4684 212.573 74.5879 212.523 74.7285C212.472 74.8671 212.447 75.0217 212.447 75.1924V76.9639H211.944V73.662H212.36L212.414 74.2706H212.435C212.504 74.1481 212.586 74.0366 212.682 73.9362C212.779 73.8338 212.89 73.7524 213.017 73.6922C213.145 73.6319 213.288 73.6018 213.444 73.6018ZM215.74 73.6018C216.021 73.6018 216.262 73.664 216.463 73.7886C216.664 73.9131 216.818 74.0878 216.924 74.3128C217.03 74.5357 217.084 74.7968 217.084 75.096V75.4063H214.803C214.809 75.794 214.906 76.0892 215.092 76.2921C215.279 76.4949 215.542 76.5963 215.882 76.5963C216.091 76.5963 216.275 76.5772 216.436 76.5391C216.597 76.5009 216.763 76.4447 216.936 76.3704V76.8102C216.769 76.8845 216.604 76.9388 216.439 76.9729C216.276 77.007 216.084 77.0241 215.861 77.0241C215.543 77.0241 215.266 76.9599 215.029 76.8313C214.794 76.7008 214.611 76.51 214.481 76.2589C214.35 76.0079 214.285 75.7006 214.285 75.3371C214.285 74.9816 214.344 74.6743 214.463 74.4152C214.583 74.1541 214.752 73.9533 214.969 73.8127C215.188 73.6721 215.445 73.6018 215.74 73.6018ZM215.734 74.0115C215.467 74.0115 215.254 74.0989 215.095 74.2736C214.937 74.4483 214.842 74.6924 214.812 75.0057H216.56C216.557 74.8088 216.526 74.6361 216.466 74.4875C216.408 74.3369 216.318 74.2204 216.198 74.138C216.077 74.0537 215.923 74.0115 215.734 74.0115ZM220.069 76.0601C220.069 76.271 220.016 76.4487 219.91 76.5933C219.805 76.7359 219.654 76.8434 219.458 76.9157C219.263 76.988 219.03 77.0241 218.759 77.0241C218.528 77.0241 218.328 77.006 218.159 76.9699C217.99 76.9337 217.843 76.8825 217.716 76.8162V76.3553C217.851 76.4216 218.012 76.4818 218.198 76.5361C218.385 76.5903 218.576 76.6174 218.771 76.6174C219.056 76.6174 219.263 76.5712 219.391 76.4788C219.52 76.3864 219.584 76.2609 219.584 76.1023C219.584 76.0119 219.558 75.9325 219.506 75.8643C219.456 75.794 219.37 75.7267 219.25 75.6624C219.129 75.5961 218.963 75.5238 218.75 75.4455C218.539 75.3652 218.356 75.2858 218.201 75.2075C218.049 75.1272 217.93 75.0298 217.846 74.9153C217.764 74.8008 217.722 74.6522 217.722 74.4694C217.722 74.1903 217.835 73.9764 218.06 73.8277C218.287 73.6771 218.584 73.6018 218.952 73.6018C219.15 73.6018 219.336 73.6219 219.509 73.662C219.684 73.7002 219.846 73.7524 219.997 73.8187L219.828 74.2194C219.692 74.1611 219.546 74.1119 219.391 74.0718C219.237 74.0316 219.079 74.0115 218.918 74.0115C218.687 74.0115 218.51 74.0497 218.385 74.126C218.263 74.2023 218.201 74.3067 218.201 74.4393C218.201 74.5417 218.23 74.6261 218.286 74.6924C218.344 74.7586 218.436 74.8209 218.563 74.8791C218.689 74.9374 218.856 75.0057 219.063 75.084C219.27 75.1603 219.449 75.2396 219.599 75.322C219.75 75.4023 219.865 75.5007 219.946 75.6172C220.028 75.7317 220.069 75.8793 220.069 76.0601Z" fill="#101E37"/>
<rect width="602" height="35.2562" transform="translate(63 84.1597)" fill="white"/>
<line x1="63" y1="118.534" x2="665" y2="118.534" stroke="#FFCC00" stroke-width="1.76281"/>
<rect x="89.6627" y="84.38" width="34.8155" height="34.8155" rx="6.83089" fill="#F0CCFF"/>
<rect x="89.6627" y="84.38" width="34.8155" height="34.8155" rx="6.83089" stroke="#9100CC" stroke-width="0.440703" stroke-dasharray="3.53 3.53"/>
<path d="M107.657 93.0763C107.486 93.0763 107.348 93.0234 107.242 92.9176C107.137 92.8119 107.084 92.6767 107.084 92.5122C107.084 92.3476 107.137 92.2154 107.242 92.1155C107.348 92.0098 107.486 91.9569 107.657 91.9569C107.827 91.9569 107.962 92.0098 108.062 92.1155C108.162 92.2154 108.212 92.3476 108.212 92.5122C108.212 92.6767 108.162 92.8119 108.062 92.9176C107.962 93.0234 107.827 93.0763 107.657 93.0763ZM109.754 93.0763C109.584 93.0763 109.446 93.0234 109.34 92.9176C109.234 92.8119 109.181 92.6767 109.181 92.5122C109.181 92.3476 109.234 92.2154 109.34 92.1155C109.446 92.0098 109.584 91.9569 109.754 91.9569C109.925 91.9569 110.06 92.0098 110.16 92.1155C110.26 92.2154 110.31 92.3476 110.31 92.5122C110.31 92.6767 110.26 92.8119 110.16 92.9176C110.06 93.0234 109.925 93.0763 109.754 93.0763ZM105.559 93.0763C105.388 93.0763 105.25 93.0234 105.145 92.9176C105.039 92.8119 104.986 92.6767 104.986 92.5122C104.986 92.3476 105.039 92.2154 105.145 92.1155C105.25 92.0098 105.388 91.9569 105.559 91.9569C105.729 91.9569 105.864 92.0098 105.964 92.1155C106.064 92.2154 106.114 92.3476 106.114 92.5122C106.114 92.6767 106.064 92.8119 105.964 92.9176C105.864 93.0234 105.729 93.0763 105.559 93.0763Z" fill="#101E37"/>
<path d="M104.612 105.381V100.347H105.198V105.381H104.612ZM108.282 101.538C108.73 101.538 109.069 101.649 109.298 101.869C109.528 102.087 109.642 102.438 109.642 102.923V105.381H109.078V102.96C109.078 102.646 109.006 102.411 108.861 102.255C108.719 102.099 108.499 102.021 108.203 102.021C107.786 102.021 107.492 102.139 107.322 102.375C107.152 102.612 107.067 102.955 107.067 103.405V105.381H106.496V101.607H106.957L107.043 102.151H107.074C107.154 102.018 107.256 101.907 107.38 101.817C107.504 101.726 107.643 101.657 107.797 101.611C107.951 101.563 108.113 101.538 108.282 101.538ZM104.351 116.023C104.351 115.862 104.39 115.748 104.468 115.682C104.546 115.613 104.641 115.579 104.753 115.579C104.87 115.579 104.969 115.613 105.05 115.682C105.13 115.748 105.17 115.862 105.17 116.023C105.17 116.181 105.13 116.297 105.05 116.371C104.969 116.442 104.87 116.477 104.753 116.477C104.641 116.477 104.546 116.442 104.468 116.371C104.39 116.297 104.351 116.181 104.351 116.023ZM106.172 116.023C106.172 115.862 106.211 115.748 106.289 115.682C106.367 115.613 106.462 115.579 106.575 115.579C106.692 115.579 106.791 115.613 106.871 115.682C106.951 115.748 106.991 115.862 106.991 116.023C106.991 116.181 106.951 116.297 106.871 116.371C106.791 116.442 106.692 116.477 106.575 116.477C106.462 116.477 106.367 116.442 106.289 116.371C106.211 116.297 106.172 116.181 106.172 116.023ZM107.983 116.023C107.983 115.862 108.022 115.748 108.1 115.682C108.178 115.613 108.273 115.579 108.386 115.579C108.503 115.579 108.602 115.613 108.682 115.682C108.762 115.748 108.802 115.862 108.802 116.023C108.802 116.181 108.762 116.297 108.682 116.371C108.602 116.442 108.503 116.477 108.386 116.477C108.273 116.477 108.178 116.442 108.1 116.371C108.022 116.297 107.983 116.181 107.983 116.023Z" fill="#101E37"/>
<rect x="135.275" y="90.9995" width="52.5769" height="21.5769" rx="3.52562" fill="white"/>
<path d="M141.563 104.343C141.463 104.343 141.386 104.317 141.333 104.264C141.28 104.206 141.254 104.124 141.254 104.018V98.9727C141.254 98.867 141.28 98.785 141.333 98.7268C141.386 98.6686 141.455 98.6396 141.539 98.6396C141.624 98.6396 141.685 98.6554 141.722 98.6871C141.764 98.7136 141.812 98.7638 141.864 98.8379L145.323 103.447H145.133V98.9569C145.133 98.8564 145.159 98.7797 145.212 98.7268C145.265 98.6686 145.342 98.6396 145.442 98.6396C145.537 98.6396 145.609 98.6686 145.656 98.7268C145.709 98.7797 145.736 98.8564 145.736 98.9569V104.026C145.736 104.126 145.712 104.206 145.664 104.264C145.622 104.317 145.558 104.343 145.474 104.343C145.394 104.343 145.331 104.327 145.283 104.296C145.236 104.264 145.186 104.214 145.133 104.145L141.682 99.5359H141.864V104.018C141.864 104.124 141.838 104.206 141.785 104.264C141.732 104.317 141.658 104.343 141.563 104.343ZM148.252 104.359C147.988 104.359 147.75 104.309 147.538 104.208C147.332 104.103 147.168 103.96 147.046 103.78C146.925 103.6 146.864 103.399 146.864 103.177C146.864 102.891 146.935 102.667 147.078 102.503C147.226 102.339 147.467 102.222 147.8 102.154C148.138 102.085 148.598 102.051 149.18 102.051H149.537V102.471H149.188C148.76 102.471 148.421 102.492 148.173 102.534C147.929 102.572 147.758 102.638 147.657 102.733C147.562 102.828 147.514 102.963 147.514 103.137C147.514 103.354 147.588 103.531 147.736 103.669C147.89 103.806 148.096 103.875 148.355 103.875C148.567 103.875 148.752 103.825 148.91 103.724C149.074 103.624 149.201 103.486 149.291 103.312C149.386 103.137 149.434 102.936 149.434 102.709V101.805C149.434 101.477 149.368 101.241 149.236 101.099C149.104 100.951 148.887 100.877 148.585 100.877C148.4 100.877 148.215 100.9 148.03 100.948C147.845 100.996 147.649 101.072 147.443 101.178C147.369 101.215 147.305 101.228 147.253 101.218C147.2 101.202 147.157 101.173 147.126 101.13C147.094 101.088 147.075 101.04 147.07 100.988C147.065 100.929 147.075 100.874 147.102 100.821C147.134 100.768 147.181 100.726 147.245 100.694C147.477 100.578 147.707 100.493 147.935 100.44C148.162 100.387 148.379 100.361 148.585 100.361C148.918 100.361 149.193 100.416 149.41 100.528C149.627 100.633 149.788 100.797 149.894 101.019C150 101.236 150.053 101.516 150.053 101.86V104.01C150.053 104.116 150.026 104.198 149.973 104.256C149.926 104.314 149.854 104.343 149.759 104.343C149.659 104.343 149.582 104.314 149.529 104.256C149.476 104.198 149.45 104.116 149.45 104.01V103.391H149.521C149.479 103.592 149.397 103.764 149.275 103.907C149.159 104.05 149.014 104.161 148.839 104.24C148.665 104.319 148.469 104.359 148.252 104.359ZM152.642 104.343C152.552 104.343 152.473 104.319 152.404 104.272C152.335 104.219 152.277 104.14 152.229 104.034L150.857 100.829C150.82 100.75 150.807 100.676 150.817 100.607C150.828 100.538 150.86 100.483 150.913 100.44C150.965 100.398 151.04 100.377 151.135 100.377C151.219 100.377 151.285 100.395 151.333 100.432C151.381 100.469 151.423 100.535 151.46 100.631L152.761 103.812H152.547L153.871 100.631C153.909 100.535 153.951 100.469 153.998 100.432C154.046 100.395 154.115 100.377 154.205 100.377C154.289 100.377 154.353 100.398 154.395 100.44C154.443 100.483 154.469 100.538 154.474 100.607C154.485 100.67 154.474 100.742 154.443 100.821L153.054 104.034C153.017 104.14 152.962 104.219 152.888 104.272C152.819 104.319 152.737 104.343 152.642 104.343ZM156.972 104.359C156.564 104.359 156.213 104.28 155.917 104.121C155.626 103.957 155.398 103.727 155.234 103.431C155.076 103.135 154.996 102.78 154.996 102.368C154.996 101.966 155.076 101.617 155.234 101.321C155.393 101.019 155.61 100.784 155.885 100.615C156.165 100.446 156.488 100.361 156.853 100.361C157.112 100.361 157.345 100.406 157.551 100.496C157.757 100.58 157.932 100.705 158.074 100.869C158.222 101.033 158.333 101.231 158.407 101.464C158.487 101.696 158.526 101.958 158.526 102.249C158.526 102.334 158.503 102.397 158.455 102.439C158.407 102.476 158.339 102.495 158.249 102.495H155.488V102.074H158.098L157.971 102.178C157.971 101.892 157.929 101.651 157.844 101.456C157.76 101.255 157.635 101.101 157.471 100.996C157.313 100.89 157.112 100.837 156.869 100.837C156.599 100.837 156.369 100.9 156.178 101.027C155.993 101.149 155.853 101.321 155.758 101.543C155.663 101.76 155.615 102.014 155.615 102.304V102.352C155.615 102.839 155.732 103.209 155.964 103.463C156.202 103.716 156.538 103.843 156.972 103.843C157.151 103.843 157.329 103.82 157.503 103.772C157.683 103.724 157.857 103.645 158.027 103.534C158.101 103.486 158.167 103.465 158.225 103.471C158.288 103.471 158.339 103.489 158.376 103.526C158.413 103.558 158.437 103.6 158.447 103.653C158.463 103.701 158.458 103.753 158.431 103.812C158.41 103.87 158.365 103.92 158.296 103.962C158.122 104.089 157.916 104.187 157.678 104.256C157.44 104.325 157.204 104.359 156.972 104.359ZM161.162 105.787C160.882 105.787 160.607 105.752 160.337 105.684C160.072 105.62 159.832 105.517 159.615 105.374C159.552 105.337 159.509 105.292 159.488 105.24C159.472 105.187 159.47 105.134 159.48 105.081C159.491 105.033 159.515 104.988 159.552 104.946C159.589 104.909 159.631 104.885 159.678 104.875C159.731 104.864 159.784 104.872 159.837 104.898C160.07 105.041 160.292 105.139 160.503 105.192C160.715 105.245 160.924 105.271 161.13 105.271C161.506 105.271 161.789 105.171 161.979 104.97C162.175 104.769 162.272 104.478 162.272 104.097V103.201H162.352C162.272 103.508 162.103 103.751 161.844 103.931C161.59 104.11 161.291 104.2 160.948 104.2C160.593 104.2 160.287 104.121 160.028 103.962C159.768 103.798 159.567 103.571 159.425 103.28C159.287 102.989 159.218 102.653 159.218 102.273C159.218 101.987 159.258 101.728 159.337 101.495C159.417 101.257 159.53 101.056 159.678 100.892C159.832 100.723 160.014 100.594 160.226 100.504C160.443 100.409 160.683 100.361 160.948 100.361C161.297 100.361 161.598 100.451 161.852 100.631C162.106 100.805 162.27 101.043 162.344 101.345L162.265 101.44V100.702C162.265 100.596 162.291 100.517 162.344 100.464C162.402 100.406 162.481 100.377 162.582 100.377C162.688 100.377 162.767 100.406 162.82 100.464C162.873 100.517 162.899 100.596 162.899 100.702V104.01C162.899 104.597 162.751 105.039 162.455 105.335C162.164 105.636 161.733 105.787 161.162 105.787ZM161.067 103.677C161.315 103.677 161.529 103.621 161.709 103.51C161.889 103.394 162.027 103.23 162.122 103.018C162.222 102.807 162.272 102.558 162.272 102.273C162.272 101.844 162.164 101.506 161.947 101.257C161.73 101.003 161.437 100.877 161.067 100.877C160.823 100.877 160.612 100.935 160.432 101.051C160.252 101.162 160.112 101.323 160.012 101.535C159.916 101.741 159.869 101.987 159.869 102.273C159.869 102.701 159.977 103.042 160.194 103.296C160.411 103.55 160.702 103.677 161.067 103.677ZM165.318 104.359C165.054 104.359 164.816 104.309 164.604 104.208C164.398 104.103 164.234 103.96 164.112 103.78C163.991 103.6 163.93 103.399 163.93 103.177C163.93 102.891 164.001 102.667 164.144 102.503C164.292 102.339 164.533 102.222 164.866 102.154C165.204 102.085 165.665 102.051 166.246 102.051H166.603V102.471H166.254C165.826 102.471 165.487 102.492 165.239 102.534C164.996 102.572 164.824 102.638 164.723 102.733C164.628 102.828 164.58 102.963 164.58 103.137C164.58 103.354 164.654 103.531 164.802 103.669C164.956 103.806 165.162 103.875 165.421 103.875C165.633 103.875 165.818 103.825 165.977 103.724C166.14 103.624 166.267 103.486 166.357 103.312C166.452 103.137 166.5 102.936 166.5 102.709V101.805C166.5 101.477 166.434 101.241 166.302 101.099C166.17 100.951 165.953 100.877 165.651 100.877C165.466 100.877 165.281 100.9 165.096 100.948C164.911 100.996 164.715 101.072 164.509 101.178C164.435 101.215 164.371 101.228 164.319 101.218C164.266 101.202 164.223 101.173 164.192 101.13C164.16 101.088 164.141 101.04 164.136 100.988C164.131 100.929 164.141 100.874 164.168 100.821C164.2 100.768 164.247 100.726 164.311 100.694C164.543 100.578 164.773 100.493 165.001 100.44C165.228 100.387 165.445 100.361 165.651 100.361C165.984 100.361 166.259 100.416 166.476 100.528C166.693 100.633 166.854 100.797 166.96 101.019C167.066 101.236 167.119 101.516 167.119 101.86V104.01C167.119 104.116 167.092 104.198 167.04 104.256C166.992 104.314 166.921 104.343 166.825 104.343C166.725 104.343 166.648 104.314 166.595 104.256C166.542 104.198 166.516 104.116 166.516 104.01V103.391H166.587C166.545 103.592 166.463 103.764 166.341 103.907C166.225 104.05 166.08 104.161 165.905 104.24C165.731 104.319 165.535 104.359 165.318 104.359ZM169.945 104.359C169.559 104.359 169.226 104.274 168.946 104.105C168.665 103.936 168.448 103.701 168.295 103.399C168.147 103.092 168.073 102.738 168.073 102.336C168.073 102.029 168.115 101.754 168.2 101.511C168.284 101.268 168.409 101.062 168.573 100.892C168.737 100.718 168.932 100.586 169.16 100.496C169.392 100.406 169.654 100.361 169.945 100.361C170.135 100.361 170.334 100.39 170.54 100.448C170.746 100.506 170.934 100.607 171.103 100.75C171.156 100.787 171.19 100.832 171.206 100.884C171.222 100.937 171.222 100.99 171.206 101.043C171.19 101.091 171.164 101.133 171.127 101.17C171.09 101.202 171.042 101.22 170.984 101.226C170.931 101.231 170.876 101.212 170.818 101.17C170.68 101.064 170.54 100.99 170.397 100.948C170.254 100.906 170.117 100.884 169.985 100.884C169.778 100.884 169.599 100.919 169.445 100.988C169.292 101.051 169.162 101.144 169.057 101.265C168.951 101.387 168.869 101.538 168.811 101.717C168.758 101.897 168.731 102.106 168.731 102.344C168.731 102.804 168.84 103.169 169.057 103.439C169.273 103.703 169.583 103.835 169.985 103.835C170.117 103.835 170.252 103.814 170.389 103.772C170.532 103.73 170.675 103.656 170.818 103.55C170.876 103.508 170.931 103.489 170.984 103.494C171.037 103.5 171.082 103.521 171.119 103.558C171.156 103.59 171.18 103.632 171.19 103.685C171.206 103.738 171.206 103.79 171.19 103.843C171.175 103.891 171.14 103.933 171.087 103.97C170.918 104.108 170.733 104.208 170.532 104.272C170.331 104.33 170.135 104.359 169.945 104.359ZM172.3 104.327C172.194 104.327 172.115 104.298 172.062 104.24C172.009 104.177 171.983 104.089 171.983 103.978V100.734C171.983 100.623 172.009 100.538 172.062 100.48C172.115 100.422 172.194 100.393 172.3 100.393C172.401 100.393 172.48 100.422 172.538 100.48C172.596 100.538 172.625 100.623 172.625 100.734V103.978C172.625 104.089 172.596 104.177 172.538 104.24C172.485 104.298 172.406 104.327 172.3 104.327ZM172.3 99.5042C172.168 99.5042 172.065 99.4698 171.991 99.4011C171.917 99.327 171.88 99.2292 171.88 99.1076C171.88 98.9807 171.917 98.8855 171.991 98.822C172.065 98.7533 172.168 98.7189 172.3 98.7189C172.438 98.7189 172.541 98.7533 172.61 98.822C172.684 98.8855 172.721 98.9807 172.721 99.1076C172.721 99.2292 172.684 99.327 172.61 99.4011C172.541 99.4698 172.438 99.5042 172.3 99.5042ZM175.429 104.359C175.053 104.359 174.728 104.277 174.453 104.113C174.178 103.949 173.964 103.719 173.811 103.423C173.663 103.121 173.589 102.767 173.589 102.36C173.589 102.053 173.631 101.778 173.716 101.535C173.8 101.286 173.924 101.075 174.088 100.9C174.252 100.726 174.445 100.594 174.667 100.504C174.895 100.409 175.149 100.361 175.429 100.361C175.804 100.361 176.13 100.443 176.405 100.607C176.68 100.771 176.891 101.003 177.039 101.305C177.193 101.601 177.269 101.953 177.269 102.36C177.269 102.667 177.227 102.942 177.142 103.185C177.058 103.428 176.934 103.64 176.77 103.82C176.606 103.994 176.41 104.129 176.183 104.224C175.96 104.314 175.709 104.359 175.429 104.359ZM175.429 103.843C175.667 103.843 175.876 103.785 176.056 103.669C176.235 103.553 176.373 103.383 176.468 103.161C176.569 102.939 176.619 102.672 176.619 102.36C176.619 101.879 176.51 101.511 176.294 101.257C176.082 101.003 175.794 100.877 175.429 100.877C175.186 100.877 174.974 100.935 174.794 101.051C174.62 101.162 174.482 101.329 174.382 101.551C174.287 101.768 174.239 102.037 174.239 102.36C174.239 102.836 174.347 103.203 174.564 103.463C174.781 103.716 175.069 103.843 175.429 103.843ZM175.691 99.877C175.654 99.9299 175.609 99.9617 175.556 99.9722C175.503 99.9775 175.453 99.9696 175.405 99.9484C175.358 99.922 175.323 99.885 175.302 99.8374C175.281 99.7898 175.286 99.7343 175.318 99.6708L175.984 98.3778C176.021 98.3037 176.069 98.2561 176.127 98.235C176.185 98.2138 176.243 98.2112 176.302 98.2271C176.365 98.2376 176.418 98.2641 176.46 98.3064C176.503 98.3487 176.526 98.3989 176.532 98.4571C176.542 98.5153 176.526 98.5761 176.484 98.6396L175.691 99.877ZM178.552 104.343C178.446 104.343 178.367 104.314 178.314 104.256C178.261 104.198 178.234 104.116 178.234 104.01V100.702C178.234 100.596 178.261 100.517 178.314 100.464C178.367 100.406 178.443 100.377 178.544 100.377C178.644 100.377 178.721 100.406 178.774 100.464C178.832 100.517 178.861 100.596 178.861 100.702V101.384L178.774 101.289C178.885 100.982 179.065 100.752 179.313 100.599C179.567 100.44 179.858 100.361 180.186 100.361C180.493 100.361 180.746 100.416 180.947 100.528C181.154 100.639 181.307 100.808 181.408 101.035C181.508 101.257 181.558 101.54 181.558 101.884V104.01C181.558 104.116 181.529 104.198 181.471 104.256C181.418 104.314 181.341 104.343 181.241 104.343C181.135 104.343 181.053 104.314 180.995 104.256C180.942 104.198 180.916 104.116 180.916 104.01V101.924C180.916 101.564 180.844 101.302 180.702 101.138C180.564 100.969 180.342 100.884 180.035 100.884C179.681 100.884 179.398 100.996 179.186 101.218C178.98 101.434 178.877 101.725 178.877 102.09V104.01C178.877 104.232 178.769 104.343 178.552 104.343Z" fill="#101E37"/>
<rect x="196.667" y="90.9995" width="64.9165" height="21.5769" rx="3.52562" fill="white"/>
<path d="M202.955 104.343C202.854 104.343 202.777 104.317 202.725 104.264C202.672 104.206 202.645 104.124 202.645 104.018V98.9727C202.645 98.867 202.672 98.785 202.725 98.7268C202.777 98.6686 202.846 98.6396 202.931 98.6396C203.015 98.6396 203.076 98.6554 203.113 98.6871C203.156 98.7136 203.203 98.7638 203.256 98.8379L206.715 103.447H206.524V98.9569C206.524 98.8564 206.551 98.7797 206.604 98.7268C206.656 98.6686 206.733 98.6396 206.834 98.6396C206.929 98.6396 207 98.6686 207.048 98.7268C207.101 98.7797 207.127 98.8564 207.127 98.9569V104.026C207.127 104.126 207.103 104.206 207.056 104.264C207.013 104.317 206.95 104.343 206.865 104.343C206.786 104.343 206.723 104.327 206.675 104.296C206.627 104.264 206.577 104.214 206.524 104.145L203.074 99.5359H203.256V104.018C203.256 104.124 203.23 104.206 203.177 104.264C203.124 104.317 203.05 104.343 202.955 104.343ZM209.644 104.359C209.379 104.359 209.141 104.309 208.93 104.208C208.723 104.103 208.56 103.96 208.438 103.78C208.316 103.6 208.255 103.399 208.255 103.177C208.255 102.891 208.327 102.667 208.47 102.503C208.618 102.339 208.858 102.222 209.192 102.154C209.53 102.085 209.99 102.051 210.572 102.051H210.929V102.471H210.58C210.151 102.471 209.813 102.492 209.564 102.534C209.321 102.572 209.149 102.638 209.049 102.733C208.954 102.828 208.906 102.963 208.906 103.137C208.906 103.354 208.98 103.531 209.128 103.669C209.281 103.806 209.488 103.875 209.747 103.875C209.958 103.875 210.143 103.825 210.302 103.724C210.466 103.624 210.593 103.486 210.683 103.312C210.778 103.137 210.826 102.936 210.826 102.709V101.805C210.826 101.477 210.76 101.241 210.627 101.099C210.495 100.951 210.278 100.877 209.977 100.877C209.792 100.877 209.607 100.9 209.422 100.948C209.236 100.996 209.041 101.072 208.835 101.178C208.761 101.215 208.697 101.228 208.644 101.218C208.591 101.202 208.549 101.173 208.517 101.13C208.486 101.088 208.467 101.04 208.462 100.988C208.456 100.929 208.467 100.874 208.493 100.821C208.525 100.768 208.573 100.726 208.636 100.694C208.869 100.578 209.099 100.493 209.326 100.44C209.554 100.387 209.771 100.361 209.977 100.361C210.31 100.361 210.585 100.416 210.802 100.528C211.019 100.633 211.18 100.797 211.286 101.019C211.392 101.236 211.444 101.516 211.444 101.86V104.01C211.444 104.116 211.418 104.198 211.365 104.256C211.317 104.314 211.246 104.343 211.151 104.343C211.05 104.343 210.974 104.314 210.921 104.256C210.868 104.198 210.842 104.116 210.842 104.01V103.391H210.913C210.871 103.592 210.789 103.764 210.667 103.907C210.551 104.05 210.405 104.161 210.231 104.24C210.056 104.319 209.861 104.359 209.644 104.359ZM214.034 104.343C213.944 104.343 213.864 104.319 213.796 104.272C213.727 104.219 213.669 104.14 213.621 104.034L212.249 100.829C212.212 100.75 212.198 100.676 212.209 100.607C212.22 100.538 212.251 100.483 212.304 100.44C212.357 100.398 212.431 100.377 212.526 100.377C212.611 100.377 212.677 100.395 212.725 100.432C212.772 100.469 212.815 100.535 212.852 100.631L214.153 103.812H213.938L215.263 100.631C215.3 100.535 215.342 100.469 215.39 100.432C215.438 100.395 215.506 100.377 215.596 100.377C215.681 100.377 215.744 100.398 215.787 100.44C215.834 100.483 215.861 100.538 215.866 100.607C215.877 100.67 215.866 100.742 215.834 100.821L214.446 104.034C214.409 104.14 214.353 104.219 214.279 104.272C214.211 104.319 214.129 104.343 214.034 104.343ZM218.363 104.359C217.956 104.359 217.604 104.28 217.308 104.121C217.017 103.957 216.79 103.727 216.626 103.431C216.467 103.135 216.388 102.78 216.388 102.368C216.388 101.966 216.467 101.617 216.626 101.321C216.785 101.019 217.001 100.784 217.276 100.615C217.557 100.446 217.879 100.361 218.244 100.361C218.503 100.361 218.736 100.406 218.942 100.496C219.149 100.58 219.323 100.705 219.466 100.869C219.614 101.033 219.725 101.231 219.799 101.464C219.878 101.696 219.918 101.958 219.918 102.249C219.918 102.334 219.894 102.397 219.847 102.439C219.799 102.476 219.73 102.495 219.64 102.495H216.88V102.074H219.49L219.363 102.178C219.363 101.892 219.32 101.651 219.236 101.456C219.151 101.255 219.027 101.101 218.863 100.996C218.704 100.89 218.503 100.837 218.26 100.837C217.99 100.837 217.76 100.9 217.57 101.027C217.385 101.149 217.245 101.321 217.15 101.543C217.054 101.76 217.007 102.014 217.007 102.304V102.352C217.007 102.839 217.123 103.209 217.356 103.463C217.594 103.716 217.93 103.843 218.363 103.843C218.543 103.843 218.72 103.82 218.895 103.772C219.075 103.724 219.249 103.645 219.418 103.534C219.492 103.486 219.558 103.465 219.617 103.471C219.68 103.471 219.73 103.489 219.767 103.526C219.804 103.558 219.828 103.6 219.839 103.653C219.855 103.701 219.849 103.753 219.823 103.812C219.802 103.87 219.757 103.92 219.688 103.962C219.514 104.089 219.307 104.187 219.069 104.256C218.831 104.325 218.596 104.359 218.363 104.359ZM222.554 105.787C222.273 105.787 221.998 105.752 221.729 105.684C221.464 105.62 221.223 105.517 221.007 105.374C220.943 105.337 220.901 105.292 220.88 105.24C220.864 105.187 220.861 105.134 220.872 105.081C220.882 105.033 220.906 104.988 220.943 104.946C220.98 104.909 221.023 104.885 221.07 104.875C221.123 104.864 221.176 104.872 221.229 104.898C221.461 105.041 221.684 105.139 221.895 105.192C222.107 105.245 222.316 105.271 222.522 105.271C222.897 105.271 223.18 105.171 223.371 104.97C223.566 104.769 223.664 104.478 223.664 104.097V103.201H223.743C223.664 103.508 223.495 103.751 223.236 103.931C222.982 104.11 222.683 104.2 222.339 104.2C221.985 104.2 221.678 104.121 221.419 103.962C221.16 103.798 220.959 103.571 220.816 103.28C220.679 102.989 220.61 102.653 220.61 102.273C220.61 101.987 220.65 101.728 220.729 101.495C220.808 101.257 220.922 101.056 221.07 100.892C221.223 100.723 221.406 100.594 221.617 100.504C221.834 100.409 222.075 100.361 222.339 100.361C222.688 100.361 222.99 100.451 223.244 100.631C223.497 100.805 223.661 101.043 223.735 101.345L223.656 101.44V100.702C223.656 100.596 223.683 100.517 223.735 100.464C223.794 100.406 223.873 100.377 223.973 100.377C224.079 100.377 224.159 100.406 224.211 100.464C224.264 100.517 224.291 100.596 224.291 100.702V104.01C224.291 104.597 224.143 105.039 223.847 105.335C223.556 105.636 223.125 105.787 222.554 105.787ZM222.458 103.677C222.707 103.677 222.921 103.621 223.101 103.51C223.281 103.394 223.418 103.23 223.513 103.018C223.614 102.807 223.664 102.558 223.664 102.273C223.664 101.844 223.556 101.506 223.339 101.257C223.122 101.003 222.829 100.877 222.458 100.877C222.215 100.877 222.004 100.935 221.824 101.051C221.644 101.162 221.504 101.323 221.403 101.535C221.308 101.741 221.26 101.987 221.26 102.273C221.26 102.701 221.369 103.042 221.586 103.296C221.803 103.55 222.093 103.677 222.458 103.677ZM226.71 104.359C226.445 104.359 226.207 104.309 225.996 104.208C225.79 104.103 225.626 103.96 225.504 103.78C225.382 103.6 225.322 103.399 225.322 103.177C225.322 102.891 225.393 102.667 225.536 102.503C225.684 102.339 225.924 102.222 226.258 102.154C226.596 102.085 227.056 102.051 227.638 102.051H227.995V102.471H227.646C227.217 102.471 226.879 102.492 226.63 102.534C226.387 102.572 226.215 102.638 226.115 102.733C226.02 102.828 225.972 102.963 225.972 103.137C225.972 103.354 226.046 103.531 226.194 103.669C226.347 103.806 226.554 103.875 226.813 103.875C227.024 103.875 227.209 103.825 227.368 103.724C227.532 103.624 227.659 103.486 227.749 103.312C227.844 103.137 227.892 102.936 227.892 102.709V101.805C227.892 101.477 227.826 101.241 227.693 101.099C227.561 100.951 227.344 100.877 227.043 100.877C226.858 100.877 226.673 100.9 226.488 100.948C226.303 100.996 226.107 101.072 225.901 101.178C225.827 101.215 225.763 101.228 225.71 101.218C225.657 101.202 225.615 101.173 225.583 101.13C225.552 101.088 225.533 101.04 225.528 100.988C225.522 100.929 225.533 100.874 225.559 100.821C225.591 100.768 225.639 100.726 225.702 100.694C225.935 100.578 226.165 100.493 226.392 100.44C226.62 100.387 226.837 100.361 227.043 100.361C227.376 100.361 227.651 100.416 227.868 100.528C228.085 100.633 228.246 100.797 228.352 101.019C228.458 101.236 228.51 101.516 228.51 101.86V104.01C228.51 104.116 228.484 104.198 228.431 104.256C228.384 104.314 228.312 104.343 228.217 104.343C228.116 104.343 228.04 104.314 227.987 104.256C227.934 104.198 227.908 104.116 227.908 104.01V103.391H227.979C227.937 103.592 227.855 103.764 227.733 103.907C227.617 104.05 227.471 104.161 227.297 104.24C227.122 104.319 226.927 104.359 226.71 104.359ZM231.337 104.359C230.951 104.359 230.617 104.274 230.337 104.105C230.057 103.936 229.84 103.701 229.687 103.399C229.539 103.092 229.465 102.738 229.465 102.336C229.465 102.029 229.507 101.754 229.591 101.511C229.676 101.268 229.8 101.062 229.964 100.892C230.128 100.718 230.324 100.586 230.551 100.496C230.784 100.406 231.046 100.361 231.337 100.361C231.527 100.361 231.725 100.39 231.932 100.448C232.138 100.506 232.326 100.607 232.495 100.75C232.548 100.787 232.582 100.832 232.598 100.884C232.614 100.937 232.614 100.99 232.598 101.043C232.582 101.091 232.556 101.133 232.519 101.17C232.482 101.202 232.434 101.22 232.376 101.226C232.323 101.231 232.267 101.212 232.209 101.17C232.072 101.064 231.932 100.99 231.789 100.948C231.646 100.906 231.508 100.884 231.376 100.884C231.17 100.884 230.99 100.919 230.837 100.988C230.684 101.051 230.554 101.144 230.448 101.265C230.342 101.387 230.26 101.538 230.202 101.717C230.149 101.897 230.123 102.106 230.123 102.344C230.123 102.804 230.231 103.169 230.448 103.439C230.665 103.703 230.974 103.835 231.376 103.835C231.508 103.835 231.643 103.814 231.781 103.772C231.924 103.73 232.066 103.656 232.209 103.55C232.267 103.508 232.323 103.489 232.376 103.494C232.429 103.5 232.474 103.521 232.511 103.558C232.548 103.59 232.571 103.632 232.582 103.685C232.598 103.738 232.598 103.79 232.582 103.843C232.566 103.891 232.532 103.933 232.479 103.97C232.31 104.108 232.125 104.208 231.924 104.272C231.723 104.33 231.527 104.359 231.337 104.359ZM233.692 104.327C233.586 104.327 233.507 104.298 233.454 104.24C233.401 104.177 233.374 104.089 233.374 103.978V100.734C233.374 100.623 233.401 100.538 233.454 100.48C233.507 100.422 233.586 100.393 233.692 100.393C233.792 100.393 233.872 100.422 233.93 100.48C233.988 100.538 234.017 100.623 234.017 100.734V103.978C234.017 104.089 233.988 104.177 233.93 104.24C233.877 104.298 233.798 104.327 233.692 104.327ZM233.692 99.5042C233.56 99.5042 233.456 99.4698 233.382 99.4011C233.308 99.327 233.271 99.2292 233.271 99.1076C233.271 98.9807 233.308 98.8855 233.382 98.822C233.456 98.7533 233.56 98.7189 233.692 98.7189C233.829 98.7189 233.932 98.7533 234.001 98.822C234.075 98.8855 234.112 98.9807 234.112 99.1076C234.112 99.2292 234.075 99.327 234.001 99.4011C233.932 99.4698 233.829 99.5042 233.692 99.5042ZM236.821 104.359C236.445 104.359 236.12 104.277 235.845 104.113C235.57 103.949 235.356 103.719 235.202 103.423C235.054 103.121 234.98 102.767 234.98 102.36C234.98 102.053 235.022 101.778 235.107 101.535C235.192 101.286 235.316 101.075 235.48 100.9C235.644 100.726 235.837 100.594 236.059 100.504C236.286 100.409 236.54 100.361 236.821 100.361C237.196 100.361 237.521 100.443 237.796 100.607C238.071 100.771 238.283 101.003 238.431 101.305C238.584 101.601 238.661 101.953 238.661 102.36C238.661 102.667 238.619 102.942 238.534 103.185C238.449 103.428 238.325 103.64 238.161 103.82C237.997 103.994 237.802 104.129 237.574 104.224C237.352 104.314 237.101 104.359 236.821 104.359ZM236.821 103.843C237.059 103.843 237.267 103.785 237.447 103.669C237.627 103.553 237.765 103.383 237.86 103.161C237.96 102.939 238.01 102.672 238.01 102.36C238.01 101.879 237.902 101.511 237.685 101.257C237.474 101.003 237.185 100.877 236.821 100.877C236.577 100.877 236.366 100.935 236.186 101.051C236.011 101.162 235.874 101.329 235.773 101.551C235.678 101.768 235.631 102.037 235.631 102.36C235.631 102.836 235.739 103.203 235.956 103.463C236.173 103.716 236.461 103.843 236.821 103.843ZM237.082 99.877C237.045 99.9299 237 99.9617 236.947 99.9722C236.895 99.9775 236.844 99.9696 236.797 99.9484C236.749 99.922 236.715 99.885 236.694 99.8374C236.672 99.7898 236.678 99.7343 236.71 99.6708L237.376 98.3778C237.413 98.3037 237.46 98.2561 237.519 98.235C237.577 98.2138 237.635 98.2112 237.693 98.2271C237.757 98.2376 237.81 98.2641 237.852 98.3064C237.894 98.3487 237.918 98.3989 237.923 98.4571C237.934 98.5153 237.918 98.5761 237.876 98.6396L237.082 99.877ZM239.943 104.343C239.838 104.343 239.758 104.314 239.705 104.256C239.653 104.198 239.626 104.116 239.626 104.01V100.702C239.626 100.596 239.653 100.517 239.705 100.464C239.758 100.406 239.835 100.377 239.935 100.377C240.036 100.377 240.113 100.406 240.165 100.464C240.224 100.517 240.253 100.596 240.253 100.702V101.384L240.165 101.289C240.277 100.982 240.456 100.752 240.705 100.599C240.959 100.44 241.25 100.361 241.577 100.361C241.884 100.361 242.138 100.416 242.339 100.528C242.545 100.639 242.699 100.808 242.799 101.035C242.9 101.257 242.95 101.54 242.95 101.884V104.01C242.95 104.116 242.921 104.198 242.863 104.256C242.81 104.314 242.733 104.343 242.633 104.343C242.527 104.343 242.445 104.314 242.387 104.256C242.334 104.198 242.307 104.116 242.307 104.01V101.924C242.307 101.564 242.236 101.302 242.093 101.138C241.956 100.969 241.734 100.884 241.427 100.884C241.072 100.884 240.79 100.996 240.578 101.218C240.372 101.434 240.269 101.725 240.269 102.09V104.01C240.269 104.232 240.16 104.343 239.943 104.343Z" fill="#101E37"/>
<path d="M252.713 100.466L251.003 102.176L249.293 100.466C249.121 100.294 248.844 100.294 248.672 100.466C248.5 100.638 248.5 100.915 248.672 101.087L250.695 103.11C250.867 103.282 251.144 103.282 251.316 103.11L253.339 101.087C253.511 100.915 253.511 100.638 253.339 100.466C253.167 100.298 252.885 100.294 252.713 100.466Z" fill="#101E37"/>
<rect x="270.396" y="90.9995" width="52.5769" height="21.5769" rx="3.52562" fill="white"/>
<path d="M276.684 104.344C276.584 104.344 276.507 104.317 276.454 104.264C276.401 104.206 276.375 104.124 276.375 104.018V98.9732C276.375 98.8674 276.401 98.7855 276.454 98.7273C276.507 98.6691 276.576 98.64 276.66 98.64C276.745 98.64 276.806 98.6559 276.843 98.6876C276.885 98.7141 276.933 98.7643 276.986 98.8384L280.444 103.447H280.254V98.9573C280.254 98.8569 280.28 98.7802 280.333 98.7273C280.386 98.6691 280.463 98.64 280.563 98.64C280.658 98.64 280.73 98.6691 280.777 98.7273C280.83 98.7802 280.857 98.8569 280.857 98.9573V104.026C280.857 104.127 280.833 104.206 280.785 104.264C280.743 104.317 280.679 104.344 280.595 104.344C280.516 104.344 280.452 104.328 280.404 104.296C280.357 104.264 280.307 104.214 280.254 104.145L276.803 99.5364H276.986V104.018C276.986 104.124 276.959 104.206 276.906 104.264C276.853 104.317 276.779 104.344 276.684 104.344ZM283.373 104.359C283.109 104.359 282.871 104.309 282.659 104.209C282.453 104.103 282.289 103.96 282.167 103.78C282.046 103.601 281.985 103.4 281.985 103.178C281.985 102.892 282.056 102.667 282.199 102.503C282.347 102.339 282.588 102.223 282.921 102.154C283.259 102.085 283.72 102.051 284.301 102.051H284.658V102.472H284.309C283.881 102.472 283.542 102.493 283.294 102.535C283.051 102.572 282.879 102.638 282.778 102.733C282.683 102.828 282.635 102.963 282.635 103.138C282.635 103.355 282.709 103.532 282.858 103.669C283.011 103.807 283.217 103.876 283.476 103.876C283.688 103.876 283.873 103.825 284.032 103.725C284.196 103.624 284.322 103.487 284.412 103.312C284.508 103.138 284.555 102.937 284.555 102.709V101.805C284.555 101.477 284.489 101.242 284.357 101.099C284.225 100.951 284.008 100.877 283.706 100.877C283.521 100.877 283.336 100.901 283.151 100.948C282.966 100.996 282.77 101.073 282.564 101.178C282.49 101.216 282.427 101.229 282.374 101.218C282.321 101.202 282.278 101.173 282.247 101.131C282.215 101.089 282.196 101.041 282.191 100.988C282.186 100.93 282.196 100.874 282.223 100.822C282.255 100.769 282.302 100.726 282.366 100.695C282.598 100.578 282.828 100.494 283.056 100.441C283.283 100.388 283.5 100.361 283.706 100.361C284.04 100.361 284.315 100.417 284.531 100.528C284.748 100.634 284.909 100.798 285.015 101.02C285.121 101.237 285.174 101.517 285.174 101.861V104.01C285.174 104.116 285.147 104.198 285.095 104.256C285.047 104.315 284.976 104.344 284.88 104.344C284.78 104.344 284.703 104.315 284.65 104.256C284.597 104.198 284.571 104.116 284.571 104.01V103.392H284.642C284.6 103.593 284.518 103.765 284.396 103.907C284.28 104.05 284.135 104.161 283.96 104.24C283.786 104.32 283.59 104.359 283.373 104.359ZM287.763 104.344C287.673 104.344 287.594 104.32 287.525 104.272C287.456 104.219 287.398 104.14 287.351 104.034L285.978 100.829C285.941 100.75 285.928 100.676 285.939 100.607C285.949 100.539 285.981 100.483 286.034 100.441C286.087 100.398 286.161 100.377 286.256 100.377C286.34 100.377 286.407 100.396 286.454 100.433C286.502 100.47 286.544 100.536 286.581 100.631L287.882 103.812H287.668L288.993 100.631C289.03 100.536 289.072 100.47 289.12 100.433C289.167 100.396 289.236 100.377 289.326 100.377C289.41 100.377 289.474 100.398 289.516 100.441C289.564 100.483 289.59 100.539 289.595 100.607C289.606 100.671 289.595 100.742 289.564 100.822L288.176 104.034C288.139 104.14 288.083 104.219 288.009 104.272C287.94 104.32 287.858 104.344 287.763 104.344ZM292.093 104.359C291.686 104.359 291.334 104.28 291.038 104.122C290.747 103.958 290.519 103.728 290.356 103.431C290.197 103.135 290.118 102.781 290.118 102.368C290.118 101.966 290.197 101.617 290.356 101.321C290.514 101.02 290.731 100.784 291.006 100.615C291.286 100.446 291.609 100.361 291.974 100.361C292.233 100.361 292.466 100.406 292.672 100.496C292.878 100.581 293.053 100.705 293.195 100.869C293.343 101.033 293.455 101.231 293.529 101.464C293.608 101.697 293.648 101.959 293.648 102.249C293.648 102.334 293.624 102.397 293.576 102.44C293.529 102.477 293.46 102.495 293.37 102.495H290.609V102.075H293.219L293.092 102.178C293.092 101.892 293.05 101.652 292.965 101.456C292.881 101.255 292.756 101.102 292.593 100.996C292.434 100.89 292.233 100.837 291.99 100.837C291.72 100.837 291.49 100.901 291.299 101.028C291.114 101.149 290.974 101.321 290.879 101.543C290.784 101.76 290.736 102.014 290.736 102.305V102.353C290.736 102.839 290.853 103.209 291.085 103.463C291.323 103.717 291.659 103.844 292.093 103.844C292.273 103.844 292.45 103.82 292.624 103.772C292.804 103.725 292.979 103.646 293.148 103.534C293.222 103.487 293.288 103.466 293.346 103.471C293.41 103.471 293.46 103.49 293.497 103.527C293.534 103.558 293.558 103.601 293.568 103.653C293.584 103.701 293.579 103.754 293.552 103.812C293.531 103.87 293.486 103.921 293.418 103.963C293.243 104.09 293.037 104.188 292.799 104.256C292.561 104.325 292.325 104.359 292.093 104.359ZM296.283 105.787C296.003 105.787 295.728 105.753 295.458 105.684C295.194 105.621 294.953 105.518 294.736 105.375C294.673 105.338 294.63 105.293 294.609 105.24C294.593 105.187 294.591 105.134 294.601 105.081C294.612 105.034 294.636 104.989 294.673 104.946C294.71 104.909 294.752 104.886 294.8 104.875C294.852 104.865 294.905 104.872 294.958 104.899C295.191 105.042 295.413 105.14 295.625 105.192C295.836 105.245 296.045 105.272 296.251 105.272C296.627 105.272 296.91 105.171 297.1 104.97C297.296 104.769 297.394 104.478 297.394 104.098V103.201H297.473C297.394 103.508 297.224 103.751 296.965 103.931C296.711 104.111 296.413 104.201 296.069 104.201C295.714 104.201 295.408 104.122 295.149 103.963C294.889 103.799 294.689 103.572 294.546 103.281C294.408 102.99 294.339 102.654 294.339 102.273C294.339 101.988 294.379 101.728 294.458 101.496C294.538 101.258 294.652 101.057 294.8 100.893C294.953 100.724 295.135 100.594 295.347 100.504C295.564 100.409 295.804 100.361 296.069 100.361C296.418 100.361 296.719 100.451 296.973 100.631C297.227 100.806 297.391 101.044 297.465 101.345L297.386 101.44V100.703C297.386 100.597 297.412 100.517 297.465 100.465C297.523 100.406 297.602 100.377 297.703 100.377C297.809 100.377 297.888 100.406 297.941 100.465C297.994 100.517 298.02 100.597 298.02 100.703V104.01C298.02 104.597 297.872 105.039 297.576 105.335C297.285 105.637 296.854 105.787 296.283 105.787ZM296.188 103.677C296.436 103.677 296.651 103.622 296.83 103.511C297.01 103.394 297.148 103.23 297.243 103.019C297.343 102.807 297.394 102.559 297.394 102.273C297.394 101.845 297.285 101.506 297.068 101.258C296.852 101.004 296.558 100.877 296.188 100.877C295.945 100.877 295.733 100.935 295.553 101.052C295.373 101.163 295.233 101.324 295.133 101.535C295.038 101.742 294.99 101.988 294.99 102.273C294.99 102.702 295.098 103.043 295.315 103.297C295.532 103.55 295.823 103.677 296.188 103.677ZM300.439 104.359C300.175 104.359 299.937 104.309 299.725 104.209C299.519 104.103 299.355 103.96 299.233 103.78C299.112 103.601 299.051 103.4 299.051 103.178C299.051 102.892 299.122 102.667 299.265 102.503C299.413 102.339 299.654 102.223 299.987 102.154C300.326 102.085 300.786 102.051 301.367 102.051H301.724V102.472H301.375C300.947 102.472 300.608 102.493 300.36 102.535C300.117 102.572 299.945 102.638 299.844 102.733C299.749 102.828 299.701 102.963 299.701 103.138C299.701 103.355 299.776 103.532 299.924 103.669C300.077 103.807 300.283 103.876 300.542 103.876C300.754 103.876 300.939 103.825 301.098 103.725C301.262 103.624 301.388 103.487 301.478 103.312C301.574 103.138 301.621 102.937 301.621 102.709V101.805C301.621 101.477 301.555 101.242 301.423 101.099C301.291 100.951 301.074 100.877 300.772 100.877C300.587 100.877 300.402 100.901 300.217 100.948C300.032 100.996 299.836 101.073 299.63 101.178C299.556 101.216 299.493 101.229 299.44 101.218C299.387 101.202 299.345 101.173 299.313 101.131C299.281 101.089 299.263 101.041 299.257 100.988C299.252 100.93 299.263 100.874 299.289 100.822C299.321 100.769 299.368 100.726 299.432 100.695C299.664 100.578 299.895 100.494 300.122 100.441C300.349 100.388 300.566 100.361 300.772 100.361C301.106 100.361 301.381 100.417 301.597 100.528C301.814 100.634 301.976 100.798 302.081 101.02C302.187 101.237 302.24 101.517 302.24 101.861V104.01C302.24 104.116 302.213 104.198 302.161 104.256C302.113 104.315 302.042 104.344 301.946 104.344C301.846 104.344 301.769 104.315 301.716 104.256C301.663 104.198 301.637 104.116 301.637 104.01V103.392H301.708C301.666 103.593 301.584 103.765 301.463 103.907C301.346 104.05 301.201 104.161 301.026 104.24C300.852 104.32 300.656 104.359 300.439 104.359ZM305.066 104.359C304.68 104.359 304.347 104.275 304.067 104.106C303.786 103.936 303.569 103.701 303.416 103.4C303.268 103.093 303.194 102.739 303.194 102.337C303.194 102.03 303.236 101.755 303.321 101.512C303.406 101.268 303.53 101.062 303.694 100.893C303.858 100.718 304.053 100.586 304.281 100.496C304.513 100.406 304.775 100.361 305.066 100.361C305.257 100.361 305.455 100.391 305.661 100.449C305.867 100.507 306.055 100.607 306.224 100.75C306.277 100.787 306.312 100.832 306.327 100.885C306.343 100.938 306.343 100.991 306.327 101.044C306.312 101.091 306.285 101.134 306.248 101.171C306.211 101.202 306.163 101.221 306.105 101.226C306.052 101.231 305.997 101.213 305.939 101.171C305.801 101.065 305.661 100.991 305.518 100.948C305.375 100.906 305.238 100.885 305.106 100.885C304.9 100.885 304.72 100.919 304.566 100.988C304.413 101.052 304.283 101.144 304.178 101.266C304.072 101.387 303.99 101.538 303.932 101.718C303.879 101.898 303.852 102.107 303.852 102.345C303.852 102.805 303.961 103.17 304.178 103.439C304.394 103.704 304.704 103.836 305.106 103.836C305.238 103.836 305.373 103.815 305.51 103.772C305.653 103.73 305.796 103.656 305.939 103.55C305.997 103.508 306.052 103.49 306.105 103.495C306.158 103.5 306.203 103.521 306.24 103.558C306.277 103.59 306.301 103.632 306.312 103.685C306.327 103.738 306.327 103.791 306.312 103.844C306.296 103.891 306.261 103.934 306.208 103.971C306.039 104.108 305.854 104.209 305.653 104.272C305.452 104.33 305.257 104.359 305.066 104.359ZM307.421 104.328C307.315 104.328 307.236 104.299 307.183 104.24C307.13 104.177 307.104 104.09 307.104 103.979V100.734C307.104 100.623 307.13 100.539 307.183 100.48C307.236 100.422 307.315 100.393 307.421 100.393C307.522 100.393 307.601 100.422 307.659 100.48C307.717 100.539 307.746 100.623 307.746 100.734V103.979C307.746 104.09 307.717 104.177 307.659 104.24C307.606 104.299 307.527 104.328 307.421 104.328ZM307.421 99.5047C307.289 99.5047 307.186 99.4703 307.112 99.4016C307.038 99.3275 307.001 99.2297 307.001 99.1081C307.001 98.9811 307.038 98.886 307.112 98.8225C307.186 98.7537 307.289 98.7194 307.421 98.7194C307.559 98.7194 307.662 98.7537 307.731 98.8225C307.805 98.886 307.842 98.9811 307.842 99.1081C307.842 99.2297 307.805 99.3275 307.731 99.4016C307.662 99.4703 307.559 99.5047 307.421 99.5047ZM310.55 104.359C310.175 104.359 309.849 104.278 309.574 104.114C309.299 103.95 309.085 103.72 308.932 103.423C308.784 103.122 308.71 102.768 308.71 102.36C308.71 102.054 308.752 101.779 308.837 101.535C308.921 101.287 309.045 101.075 309.209 100.901C309.373 100.726 309.566 100.594 309.789 100.504C310.016 100.409 310.27 100.361 310.55 100.361C310.926 100.361 311.251 100.443 311.526 100.607C311.801 100.771 312.012 101.004 312.16 101.305C312.314 101.602 312.39 101.953 312.39 102.36C312.39 102.667 312.348 102.942 312.264 103.185C312.179 103.429 312.055 103.64 311.891 103.82C311.727 103.995 311.531 104.129 311.304 104.225C311.082 104.315 310.83 104.359 310.55 104.359ZM310.55 103.844C310.788 103.844 310.997 103.786 311.177 103.669C311.357 103.553 311.494 103.384 311.589 103.162C311.69 102.94 311.74 102.672 311.74 102.36C311.74 101.879 311.632 101.512 311.415 101.258C311.203 101.004 310.915 100.877 310.55 100.877C310.307 100.877 310.095 100.935 309.915 101.052C309.741 101.163 309.603 101.329 309.503 101.551C309.408 101.768 309.36 102.038 309.36 102.36C309.36 102.836 309.469 103.204 309.685 103.463C309.902 103.717 310.19 103.844 310.55 103.844ZM310.812 99.8775C310.775 99.9304 310.73 99.9621 310.677 99.9727C310.624 99.978 310.574 99.9701 310.526 99.9489C310.479 99.9225 310.444 99.8855 310.423 99.8379C310.402 99.7903 310.407 99.7347 310.439 99.6713L311.105 98.3783C311.142 98.3042 311.19 98.2566 311.248 98.2355C311.306 98.2143 311.364 98.2117 311.423 98.2275C311.486 98.2381 311.539 98.2646 311.581 98.3069C311.624 98.3492 311.647 98.3994 311.653 98.4576C311.663 98.5158 311.647 98.5766 311.605 98.64L310.812 99.8775ZM313.673 104.344C313.567 104.344 313.488 104.315 313.435 104.256C313.382 104.198 313.356 104.116 313.356 104.01V100.703C313.356 100.597 313.382 100.517 313.435 100.465C313.488 100.406 313.564 100.377 313.665 100.377C313.765 100.377 313.842 100.406 313.895 100.465C313.953 100.517 313.982 100.597 313.982 100.703V101.385L313.895 101.29C314.006 100.983 314.186 100.753 314.434 100.599C314.688 100.441 314.979 100.361 315.307 100.361C315.614 100.361 315.868 100.417 316.069 100.528C316.275 100.639 316.428 100.808 316.529 101.036C316.629 101.258 316.679 101.541 316.679 101.884V104.01C316.679 104.116 316.65 104.198 316.592 104.256C316.539 104.315 316.463 104.344 316.362 104.344C316.256 104.344 316.174 104.315 316.116 104.256C316.063 104.198 316.037 104.116 316.037 104.01V101.924C316.037 101.565 315.965 101.303 315.823 101.139C315.685 100.97 315.463 100.885 315.156 100.885C314.802 100.885 314.519 100.996 314.307 101.218C314.101 101.435 313.998 101.726 313.998 102.091V104.01C313.998 104.233 313.89 104.344 313.673 104.344Z" fill="#101E37"/>
<rect x="418.497" y="90.7702" width="154.246" height="22.0351" rx="3.96633" fill="#F3F6F9"/>
<rect x="418.497" y="90.7702" width="154.246" height="22.0351" rx="3.96633" stroke="#E6EBF0" stroke-width="0.881406"/>
<path d="M433.03 102.877H432.681L432.558 102.758C433.087 102.141 433.36 101.299 433.21 100.404C433.003 99.1793 431.981 98.201 430.747 98.0511C428.883 97.822 427.314 99.3909 427.543 101.255C427.693 102.489 428.671 103.511 429.896 103.719C430.791 103.868 431.633 103.595 432.25 103.066L432.369 103.19V103.538L434.242 105.411C434.422 105.592 434.717 105.592 434.898 105.411C435.079 105.23 435.079 104.935 434.898 104.754L433.03 102.877ZM430.385 102.877C429.288 102.877 428.402 101.991 428.402 100.894C428.402 99.7963 429.288 98.9105 430.385 98.9105C431.483 98.9105 432.369 99.7963 432.369 100.894C432.369 101.991 431.483 102.877 430.385 102.877Z" fill="#5C6A7A"/>
<path d="M441.661 99.4654H443.087C443.716 99.4654 444.188 99.5595 444.505 99.7477C444.822 99.9359 444.98 100.256 444.98 100.708C444.98 100.903 444.942 101.079 444.867 101.235C444.793 101.389 444.685 101.516 444.543 101.617C444.401 101.718 444.225 101.788 444.016 101.827V101.862C444.237 101.896 444.432 101.959 444.602 102.051C444.771 102.143 444.905 102.271 445.001 102.437C445.097 102.602 445.146 102.812 445.146 103.067C445.146 103.377 445.073 103.638 444.929 103.852C444.786 104.065 444.584 104.227 444.323 104.337C444.061 104.445 443.751 104.499 443.393 104.499H441.661V99.4654ZM442.247 101.624H443.211C443.649 101.624 443.952 101.552 444.12 101.407C444.289 101.263 444.374 101.051 444.374 100.774C444.374 100.487 444.273 100.28 444.071 100.154C443.872 100.028 443.553 99.9646 443.114 99.9646H442.247V101.624ZM442.247 102.116V104H443.293C443.741 104 444.058 103.913 444.243 103.738C444.429 103.561 444.522 103.324 444.522 103.025C444.522 102.835 444.48 102.672 444.395 102.537C444.312 102.401 444.177 102.298 443.989 102.227C443.803 102.153 443.554 102.116 443.242 102.116H442.247ZM449.25 100.726V104.499H448.781L448.699 103.969H448.668C448.59 104.1 448.489 104.21 448.365 104.299C448.241 104.389 448.101 104.455 447.945 104.499C447.791 104.545 447.627 104.568 447.452 104.568C447.154 104.568 446.904 104.52 446.702 104.423C446.5 104.327 446.347 104.178 446.244 103.976C446.143 103.774 446.092 103.514 446.092 103.198V100.726H446.671V103.156C446.671 103.471 446.742 103.706 446.884 103.862C447.027 104.016 447.243 104.093 447.535 104.093C447.815 104.093 448.038 104.04 448.203 103.934C448.37 103.829 448.491 103.674 448.564 103.47C448.638 103.263 448.675 103.011 448.675 102.712V100.726H449.25ZM452.899 103.466C452.899 103.707 452.838 103.91 452.717 104.076C452.597 104.239 452.425 104.361 452.2 104.444C451.978 104.527 451.711 104.568 451.401 104.568C451.138 104.568 450.909 104.547 450.716 104.506C450.524 104.465 450.355 104.406 450.21 104.33V103.804C450.364 103.879 450.548 103.948 450.761 104.01C450.975 104.072 451.193 104.103 451.415 104.103C451.741 104.103 451.978 104.05 452.125 103.945C452.271 103.839 452.345 103.696 452.345 103.514C452.345 103.411 452.315 103.32 452.255 103.242C452.198 103.162 452.1 103.085 451.963 103.012C451.825 102.936 451.634 102.853 451.391 102.764C451.15 102.672 450.941 102.581 450.765 102.492C450.59 102.4 450.455 102.289 450.358 102.158C450.264 102.027 450.217 101.857 450.217 101.648C450.217 101.329 450.346 101.085 450.603 100.915C450.862 100.743 451.202 100.657 451.622 100.657C451.849 100.657 452.061 100.68 452.259 100.726C452.458 100.769 452.644 100.829 452.817 100.905L452.624 101.362C452.468 101.296 452.301 101.24 452.125 101.194C451.948 101.148 451.768 101.125 451.584 101.125C451.32 101.125 451.117 101.169 450.975 101.256C450.835 101.343 450.765 101.462 450.765 101.614C450.765 101.731 450.797 101.827 450.861 101.903C450.927 101.979 451.033 102.05 451.178 102.116C451.322 102.183 451.513 102.261 451.749 102.351C451.986 102.438 452.19 102.528 452.362 102.623C452.534 102.714 452.666 102.827 452.758 102.96C452.852 103.091 452.899 103.26 452.899 103.466ZM455.33 104.568C454.99 104.568 454.691 104.498 454.431 104.358C454.172 104.218 453.97 104.004 453.825 103.717C453.681 103.431 453.608 103.069 453.608 102.633C453.608 102.176 453.684 101.803 453.836 101.514C453.989 101.222 454.201 101.007 454.469 100.867C454.738 100.727 455.043 100.657 455.385 100.657C455.573 100.657 455.755 100.676 455.929 100.715C456.106 100.752 456.25 100.799 456.363 100.856L456.191 101.335C456.076 101.289 455.943 101.248 455.791 101.211C455.642 101.174 455.502 101.156 455.371 101.156C455.11 101.156 454.892 101.212 454.717 101.325C454.545 101.437 454.415 101.602 454.328 101.82C454.243 102.038 454.201 102.307 454.201 102.626C454.201 102.931 454.242 103.192 454.325 103.408C454.41 103.623 454.535 103.789 454.7 103.903C454.867 104.016 455.076 104.072 455.326 104.072C455.526 104.072 455.706 104.051 455.867 104.01C456.028 103.967 456.173 103.916 456.304 103.859V104.368C456.178 104.432 456.037 104.482 455.881 104.516C455.727 104.551 455.543 104.568 455.33 104.568ZM458.611 100.664C459.061 100.664 459.395 100.765 459.613 100.967C459.831 101.169 459.94 101.491 459.94 101.934V104.499H459.523L459.413 103.941H459.386C459.28 104.079 459.17 104.195 459.055 104.289C458.94 104.381 458.807 104.451 458.656 104.499C458.507 104.545 458.323 104.568 458.105 104.568C457.875 104.568 457.671 104.528 457.492 104.447C457.315 104.367 457.175 104.245 457.072 104.082C456.971 103.919 456.921 103.713 456.921 103.463C456.921 103.086 457.07 102.797 457.368 102.595C457.667 102.393 458.121 102.283 458.732 102.265L459.382 102.237V102.006C459.382 101.68 459.312 101.452 459.172 101.321C459.032 101.19 458.835 101.125 458.58 101.125C458.383 101.125 458.194 101.154 458.015 101.211C457.836 101.268 457.667 101.336 457.506 101.414L457.33 100.98C457.5 100.893 457.695 100.818 457.916 100.756C458.136 100.695 458.368 100.664 458.611 100.664ZM459.375 102.64L458.8 102.664C458.33 102.682 457.998 102.759 457.805 102.895C457.613 103.03 457.516 103.222 457.516 103.47C457.516 103.685 457.582 103.845 457.712 103.948C457.843 104.051 458.017 104.103 458.232 104.103C458.567 104.103 458.842 104.01 459.055 103.824C459.269 103.638 459.375 103.359 459.375 102.988V102.64ZM462.832 100.657C462.908 100.657 462.987 100.661 463.07 100.67C463.152 100.677 463.226 100.688 463.29 100.701L463.218 101.232C463.156 101.216 463.087 101.203 463.011 101.194C462.935 101.185 462.864 101.18 462.798 101.18C462.646 101.18 462.503 101.211 462.367 101.273C462.234 101.333 462.117 101.42 462.016 101.535C461.915 101.647 461.836 101.784 461.779 101.944C461.721 102.103 461.693 102.279 461.693 102.475V104.499H461.118V100.726H461.593L461.655 101.421H461.679C461.757 101.281 461.851 101.154 461.961 101.039C462.071 100.922 462.199 100.829 462.343 100.76C462.49 100.691 462.653 100.657 462.832 100.657ZM463.917 104.141C463.917 103.98 463.956 103.867 464.034 103.8C464.112 103.731 464.207 103.697 464.32 103.697C464.437 103.697 464.535 103.731 464.616 103.8C464.696 103.867 464.736 103.98 464.736 104.141C464.736 104.299 464.696 104.415 464.616 104.489C464.535 104.56 464.437 104.595 464.32 104.595C464.207 104.595 464.112 104.56 464.034 104.489C463.956 104.415 463.917 104.299 463.917 104.141ZM465.769 104.141C465.769 103.98 465.808 103.867 465.886 103.8C465.964 103.731 466.059 103.697 466.172 103.697C466.289 103.697 466.388 103.731 466.468 103.8C466.548 103.867 466.589 103.98 466.589 104.141C466.589 104.299 466.548 104.415 466.468 104.489C466.388 104.56 466.289 104.595 466.172 104.595C466.059 104.595 465.964 104.56 465.886 104.489C465.808 104.415 465.769 104.299 465.769 104.141ZM467.621 104.141C467.621 103.98 467.66 103.867 467.738 103.8C467.817 103.731 467.912 103.697 468.024 103.697C468.141 103.697 468.24 103.731 468.32 103.8C468.401 103.867 468.441 103.98 468.441 104.141C468.441 104.299 468.401 104.415 468.32 104.489C468.24 104.56 468.141 104.595 468.024 104.595C467.912 104.595 467.817 104.56 467.738 104.489C467.66 104.415 467.621 104.299 467.621 104.141Z" fill="#5C6A7A"/>
<rect x="579.793" y="91.6516" width="58.3236" height="20.2723" rx="3.08492" stroke="#005E7A" stroke-width="0.881406"/>
<path d="M592.574 101.788C593.385 101.788 594.043 101.13 594.043 100.319C594.043 99.507 593.385 98.8496 592.574 98.8496C591.762 98.8496 591.105 99.507 591.105 100.319C591.105 101.13 591.762 101.788 592.574 101.788ZM592.574 102.522C591.593 102.522 589.636 103.014 589.636 103.991V104.358C589.636 104.56 589.801 104.726 590.003 104.726H595.145C595.347 104.726 595.512 104.56 595.512 104.358V103.991C595.512 103.014 593.554 102.522 592.574 102.522Z" fill="#005E7A"/>
<path d="M599.863 104.351C599.699 104.351 599.572 104.306 599.482 104.216C599.397 104.121 599.355 103.991 599.355 103.828V99.1552C599.355 98.9859 599.397 98.8564 599.482 98.7665C599.572 98.6766 599.699 98.6316 599.863 98.6316C600.027 98.6316 600.151 98.6766 600.235 98.7665C600.325 98.8564 600.37 98.9859 600.37 99.1552V103.828C600.37 103.991 600.328 104.121 600.243 104.216C600.159 104.306 600.032 104.351 599.863 104.351ZM601.99 104.351C601.832 104.351 601.71 104.309 601.625 104.224C601.541 104.134 601.499 104.007 601.499 103.843V100.845C601.499 100.681 601.541 100.557 601.625 100.472C601.71 100.387 601.829 100.345 601.982 100.345C602.136 100.345 602.255 100.387 602.339 100.472C602.424 100.557 602.466 100.681 602.466 100.845V101.384L602.379 101.186C602.495 100.906 602.675 100.694 602.919 100.551C603.167 100.403 603.447 100.329 603.759 100.329C604.071 100.329 604.328 100.387 604.529 100.504C604.73 100.62 604.881 100.797 604.981 101.035C605.081 101.268 605.132 101.564 605.132 101.924V103.843C605.132 104.007 605.089 104.134 605.005 104.224C604.92 104.309 604.799 104.351 604.64 104.351C604.481 104.351 604.357 104.309 604.267 104.224C604.182 104.134 604.14 104.007 604.14 103.843V101.971C604.14 101.67 604.082 101.45 603.966 101.313C603.855 101.175 603.68 101.107 603.442 101.107C603.151 101.107 602.919 101.199 602.744 101.384C602.575 101.564 602.49 101.805 602.49 102.106V103.843C602.49 104.182 602.324 104.351 601.99 104.351ZM607.948 105.795C607.662 105.795 607.384 105.768 607.115 105.715C606.85 105.663 606.61 105.581 606.393 105.47C606.292 105.417 606.223 105.353 606.186 105.279C606.155 105.205 606.144 105.128 606.155 105.049C606.171 104.975 606.202 104.909 606.25 104.851C606.303 104.793 606.366 104.753 606.44 104.732C606.514 104.711 606.591 104.721 606.67 104.764C606.903 104.88 607.123 104.954 607.329 104.986C607.54 105.023 607.72 105.041 607.868 105.041C608.223 105.041 608.487 104.954 608.661 104.779C608.841 104.61 608.931 104.356 608.931 104.018V103.304H609.003C608.923 103.574 608.757 103.79 608.503 103.954C608.254 104.113 607.971 104.192 607.654 104.192C607.305 104.192 607.001 104.113 606.742 103.954C606.483 103.79 606.282 103.563 606.139 103.272C605.996 102.981 605.925 102.643 605.925 102.257C605.925 101.966 605.964 101.704 606.044 101.472C606.128 101.234 606.245 101.03 606.393 100.861C606.546 100.691 606.729 100.562 606.94 100.472C607.157 100.377 607.395 100.329 607.654 100.329C607.982 100.329 608.267 100.411 608.511 100.575C608.759 100.734 608.921 100.945 608.995 101.21L608.915 101.408V100.845C608.915 100.681 608.958 100.557 609.042 100.472C609.132 100.387 609.254 100.345 609.407 100.345C609.566 100.345 609.687 100.387 609.772 100.472C609.857 100.557 609.899 100.681 609.899 100.845V103.899C609.899 104.528 609.732 105.002 609.399 105.319C609.066 105.636 608.582 105.795 607.948 105.795ZM607.924 103.439C608.13 103.439 608.307 103.391 608.455 103.296C608.603 103.201 608.717 103.066 608.796 102.891C608.881 102.712 608.923 102.5 608.923 102.257C608.923 101.892 608.833 101.606 608.654 101.4C608.474 101.189 608.23 101.083 607.924 101.083C607.717 101.083 607.54 101.13 607.392 101.226C607.244 101.321 607.128 101.456 607.043 101.63C606.964 101.805 606.924 102.014 606.924 102.257C606.924 102.622 607.014 102.91 607.194 103.121C607.374 103.333 607.617 103.439 607.924 103.439ZM611.434 104.351C611.27 104.351 611.143 104.309 611.053 104.224C610.969 104.134 610.926 104.007 610.926 103.843V100.845C610.926 100.681 610.969 100.557 611.053 100.472C611.138 100.387 611.257 100.345 611.41 100.345C611.564 100.345 611.683 100.387 611.767 100.472C611.852 100.557 611.894 100.681 611.894 100.845V101.345H611.815C611.889 101.027 612.034 100.787 612.251 100.623C612.468 100.459 612.756 100.361 613.116 100.329C613.227 100.319 613.314 100.348 613.378 100.416C613.446 100.48 613.486 100.58 613.497 100.718C613.507 100.85 613.475 100.959 613.401 101.043C613.333 101.122 613.227 101.17 613.084 101.186L612.91 101.202C612.587 101.234 612.344 101.334 612.18 101.503C612.016 101.667 611.934 101.9 611.934 102.201V103.843C611.934 104.007 611.891 104.134 611.807 104.224C611.722 104.309 611.598 104.351 611.434 104.351ZM615.883 104.367C615.444 104.367 615.066 104.285 614.748 104.121C614.431 103.957 614.185 103.724 614.01 103.423C613.841 103.121 613.757 102.765 613.757 102.352C613.757 101.95 613.839 101.598 614.003 101.297C614.172 100.996 614.402 100.76 614.693 100.591C614.989 100.416 615.325 100.329 615.7 100.329C615.975 100.329 616.221 100.374 616.438 100.464C616.66 100.554 616.848 100.684 617.001 100.853C617.16 101.022 617.279 101.228 617.358 101.472C617.443 101.709 617.485 101.979 617.485 102.281C617.485 102.376 617.451 102.45 617.382 102.503C617.318 102.55 617.226 102.574 617.104 102.574H614.558V102.003H616.787L616.66 102.122C616.66 101.879 616.623 101.675 616.549 101.511C616.48 101.347 616.377 101.223 616.24 101.138C616.107 101.048 615.941 101.003 615.74 101.003C615.518 101.003 615.327 101.056 615.169 101.162C615.015 101.263 614.896 101.408 614.812 101.598C614.732 101.784 614.693 102.006 614.693 102.265V102.32C614.693 102.754 614.793 103.079 614.994 103.296C615.2 103.508 615.502 103.613 615.898 103.613C616.036 103.613 616.189 103.597 616.359 103.566C616.533 103.529 616.697 103.468 616.85 103.383C616.961 103.32 617.059 103.293 617.144 103.304C617.228 103.309 617.295 103.338 617.342 103.391C617.395 103.444 617.427 103.51 617.437 103.59C617.448 103.664 617.432 103.74 617.39 103.82C617.353 103.899 617.287 103.968 617.191 104.026C617.006 104.142 616.792 104.229 616.549 104.288C616.311 104.34 616.089 104.367 615.883 104.367ZM619.69 104.367C619.463 104.367 619.222 104.343 618.968 104.296C618.714 104.248 618.487 104.166 618.286 104.05C618.201 103.997 618.141 103.936 618.104 103.867C618.072 103.793 618.059 103.722 618.064 103.653C618.075 103.579 618.101 103.515 618.143 103.463C618.191 103.41 618.249 103.375 618.318 103.359C618.392 103.344 618.471 103.357 618.556 103.399C618.767 103.5 618.966 103.571 619.151 103.613C619.336 103.65 619.518 103.669 619.698 103.669C619.952 103.669 620.14 103.627 620.261 103.542C620.388 103.452 620.452 103.336 620.452 103.193C620.452 103.071 620.409 102.979 620.325 102.915C620.245 102.846 620.124 102.796 619.96 102.765L619.167 102.614C618.839 102.55 618.588 102.431 618.413 102.257C618.244 102.077 618.159 101.847 618.159 101.567C618.159 101.313 618.228 101.093 618.365 100.908C618.508 100.723 618.704 100.58 618.952 100.48C619.201 100.379 619.487 100.329 619.809 100.329C620.042 100.329 620.259 100.356 620.46 100.409C620.666 100.456 620.864 100.533 621.055 100.639C621.134 100.681 621.187 100.736 621.213 100.805C621.245 100.874 621.253 100.945 621.237 101.019C621.221 101.088 621.189 101.152 621.142 101.21C621.094 101.263 621.033 101.297 620.959 101.313C620.891 101.323 620.811 101.308 620.721 101.265C620.557 101.181 620.399 101.12 620.245 101.083C620.097 101.046 619.955 101.027 619.817 101.027C619.558 101.027 619.365 101.072 619.238 101.162C619.116 101.252 619.056 101.371 619.056 101.519C619.056 101.63 619.093 101.723 619.167 101.797C619.241 101.871 619.354 101.921 619.508 101.947L620.301 102.098C620.645 102.162 620.904 102.278 621.078 102.447C621.258 102.616 621.348 102.844 621.348 103.129C621.348 103.515 621.197 103.82 620.896 104.042C620.595 104.259 620.193 104.367 619.69 104.367ZM623.421 104.367C623.14 104.367 622.889 104.314 622.667 104.208C622.45 104.097 622.278 103.949 622.152 103.764C622.03 103.579 621.969 103.37 621.969 103.137C621.969 102.852 622.043 102.627 622.191 102.463C622.339 102.294 622.58 102.172 622.913 102.098C623.246 102.024 623.693 101.987 624.254 101.987H624.65V102.558H624.262C623.934 102.558 623.672 102.574 623.476 102.606C623.281 102.638 623.14 102.693 623.056 102.772C622.977 102.846 622.937 102.952 622.937 103.09C622.937 103.264 622.998 103.407 623.119 103.518C623.241 103.629 623.41 103.685 623.627 103.685C623.802 103.685 623.955 103.645 624.087 103.566C624.225 103.481 624.333 103.367 624.412 103.225C624.492 103.082 624.531 102.918 624.531 102.733V101.821C624.531 101.556 624.473 101.366 624.357 101.249C624.24 101.133 624.045 101.075 623.77 101.075C623.616 101.075 623.45 101.093 623.27 101.13C623.096 101.167 622.91 101.231 622.715 101.321C622.614 101.368 622.524 101.382 622.445 101.36C622.371 101.339 622.313 101.297 622.271 101.234C622.228 101.165 622.207 101.091 622.207 101.011C622.207 100.932 622.228 100.855 622.271 100.781C622.313 100.702 622.384 100.644 622.485 100.607C622.728 100.506 622.961 100.435 623.183 100.393C623.41 100.35 623.616 100.329 623.802 100.329C624.182 100.329 624.494 100.387 624.738 100.504C624.986 100.62 625.171 100.797 625.293 101.035C625.414 101.268 625.475 101.569 625.475 101.94V103.843C625.475 104.007 625.436 104.134 625.356 104.224C625.277 104.309 625.163 104.351 625.015 104.351C624.867 104.351 624.751 104.309 624.666 104.224C624.587 104.134 624.547 104.007 624.547 103.843V103.463H624.611C624.574 103.648 624.5 103.809 624.389 103.946C624.283 104.079 624.148 104.182 623.984 104.256C623.82 104.33 623.632 104.367 623.421 104.367ZM626.989 104.351C626.826 104.351 626.699 104.309 626.609 104.224C626.524 104.134 626.482 104.007 626.482 103.843V100.845C626.482 100.681 626.524 100.557 626.609 100.472C626.693 100.387 626.812 100.345 626.966 100.345C627.119 100.345 627.238 100.387 627.323 100.472C627.407 100.557 627.45 100.681 627.45 100.845V101.345H627.37C627.444 101.027 627.59 100.787 627.807 100.623C628.023 100.459 628.312 100.361 628.671 100.329C628.782 100.319 628.869 100.348 628.933 100.416C629.002 100.48 629.041 100.58 629.052 100.718C629.063 100.85 629.031 100.959 628.957 101.043C628.888 101.122 628.782 101.17 628.639 101.186L628.465 101.202C628.142 101.234 627.899 101.334 627.735 101.503C627.571 101.667 627.489 101.9 627.489 102.201V103.843C627.489 104.007 627.447 104.134 627.362 104.224C627.278 104.309 627.153 104.351 626.989 104.351Z" fill="#005E7A"/>
<defs>
<clipPath id="clip0_1788_7941">
<rect width="13.2211" height="7.11162" fill="white" transform="translate(89.4424 70.8779)"/>
</clipPath>
</defs>
</svg>
