<svg width="30" height="18" viewBox="0 0 30 18" fill="none" xmlns="http://www.w3.org/2000/svg">
<g clip-path="url(#clip0_6321_2881)">
<path d="M29.7085 13.7123L23.9545 2.59398C23.4582 1.60702 22.4413 0.931503 21.261 0.931503H21.2581C20.0792 0.931503 19.0609 1.60702 18.5646 2.59398L14.5143 10.42C14.0621 9.61508 13.3411 8.98365 12.4707 8.64233C13.442 7.9398 14.0749 6.79498 14.0749 5.50368C14.0749 4.00617 13.2245 2.7106 11.9815 2.06779C10.8865 1.49183 9.63641 1.16616 8.31097 1.16616H2.25267C1.00687 1.16616 0 2.17303 0 3.41598V14.6907C0 15.9336 1.00687 16.9405 2.25267 16.9405H8.80446C10.0673 16.9405 11.269 16.6788 12.3598 16.2124L12.7751 16.0119C12.7978 16.0005 12.8206 15.9891 12.8433 15.9777C13.2373 16.6305 13.9498 17.0699 14.7703 17.0699C15.6819 17.0699 16.4669 16.5295 16.821 15.7488C16.9974 15.3363 17.3956 15.0448 17.8649 15.022H24.6528C25.1235 15.0448 25.5203 15.3363 25.6966 15.7488C26.0493 16.5295 26.8357 17.0699 27.7473 17.0699C28.9917 17.0699 29.9986 16.0602 29.9986 14.8215C29.9986 14.4176 29.8948 14.0393 29.707 13.7137" fill="#002733"/>
</g>
<defs>
<clipPath id="clip0_6321_2881">
<rect width="30" height="16.137" fill="white" transform="translate(0 0.931503)"/>
</clipPath>
</defs>
</svg>
