<svg width="728" height="164" viewBox="0 0 728 164" fill="none" xmlns="http://www.w3.org/2000/svg">
<rect x="1" y="1.5127" width="726" height="161.256" rx="7" fill="#F3F6F9"/>
<rect x="1" y="1.5127" width="726" height="161.256" rx="7" stroke="#E6EBF0" stroke-width="2"/>
<rect width="602" height="35.2562" transform="translate(63 64.5127)" fill="white"/>
<line x1="63" y1="98.8876" x2="665" y2="98.8876" stroke="#FFCC00" stroke-width="1.76281"/>
<g clip-path="url(#clip0_187_5329)">
<path d="M123.492 86.9613L117.068 74.5484C116.514 73.4466 115.379 72.6924 114.061 72.6924H114.058C112.741 72.6924 111.605 73.4466 111.05 74.5484L106.529 83.2857C106.024 82.387 105.219 81.6821 104.247 81.301C105.331 80.5167 106.038 79.2386 106.038 77.7969C106.038 76.125 105.088 74.6786 103.701 73.961C102.478 73.3179 101.083 72.9544 99.6029 72.9544H92.8392C91.4483 72.9544 90.3242 74.0785 90.3242 75.4661V88.0536C90.3242 89.4413 91.4483 90.5654 92.8392 90.5654H100.154C101.564 90.5654 102.905 90.2733 104.123 89.7525L104.587 89.5286C104.612 89.5159 104.638 89.5032 104.663 89.4905C105.103 90.2193 105.898 90.7099 106.814 90.7099C107.832 90.7099 108.709 90.1066 109.104 89.2349C109.301 88.7745 109.745 88.449 110.269 88.4236H117.847C118.373 88.449 118.816 88.7745 119.013 89.2349C119.407 90.1066 120.285 90.7099 121.302 90.7099C122.692 90.7099 123.816 89.5826 123.816 88.1997C123.816 87.7488 123.7 87.3265 123.49 86.9629" fill="#153244"/>
</g>
<rect x="393.785" y="71.1233" width="154.246" height="22.0351" rx="3.96633" fill="#F3F6F9"/>
<rect x="393.785" y="71.1233" width="154.246" height="22.0351" rx="3.96633" stroke="#E6EBF0" stroke-width="0.881406"/>
<path d="M408.318 83.2303H407.969L407.846 83.1113C408.375 82.4944 408.648 81.6526 408.498 80.758C408.291 79.5328 407.269 78.5545 406.035 78.4046C404.171 78.1755 402.602 79.7444 402.831 81.6085C402.981 82.8425 403.959 83.8649 405.184 84.0721C406.079 84.2219 406.921 83.9487 407.538 83.4198L407.657 83.5432V83.8914L409.53 85.7644C409.71 85.9451 410.006 85.9451 410.186 85.7644C410.367 85.5837 410.367 85.2884 410.186 85.1077L408.318 83.2303ZM405.673 83.2303C404.576 83.2303 403.69 82.3445 403.69 81.2472C403.69 80.1498 404.576 79.264 405.673 79.264C406.771 79.264 407.657 80.1498 407.657 81.2472C407.657 82.3445 406.771 83.2303 405.673 83.2303Z" fill="#5C6A7A"/>
<path d="M416.949 79.8189H418.375C419.004 79.8189 419.476 79.913 419.793 80.1012C420.11 80.2894 420.268 80.6096 420.268 81.0618C420.268 81.2569 420.231 81.4325 420.155 81.5886C420.081 81.7424 419.973 81.8698 419.831 81.9708C419.689 82.0718 419.513 82.1418 419.304 82.1808V82.2152C419.525 82.2496 419.72 82.3128 419.89 82.4046C420.06 82.4964 420.193 82.6249 420.289 82.7902C420.385 82.9555 420.434 83.1655 420.434 83.4203C420.434 83.7301 420.361 83.9918 420.217 84.2053C420.074 84.4187 419.872 84.5805 419.611 84.6907C419.349 84.7986 419.039 84.8525 418.681 84.8525H416.949V79.8189ZM417.535 81.9776H418.499C418.937 81.9776 419.24 81.9053 419.408 81.7607C419.577 81.6161 419.662 81.405 419.662 81.1272C419.662 80.8403 419.561 80.6337 419.359 80.5075C419.16 80.3812 418.841 80.3181 418.402 80.3181H417.535V81.9776ZM417.535 82.47V84.3533H418.581C419.029 84.3533 419.346 84.2661 419.532 84.0916C419.718 83.9149 419.81 83.6773 419.81 83.3789C419.81 83.1884 419.768 83.0255 419.683 82.89C419.6 82.7546 419.465 82.6513 419.277 82.5802C419.091 82.5067 418.842 82.47 418.53 82.47H417.535ZM424.538 81.079V84.8525H424.069L423.987 84.3223H423.956C423.878 84.4532 423.777 84.5633 423.653 84.6528C423.529 84.7424 423.389 84.8089 423.233 84.8525C423.079 84.8984 422.915 84.9214 422.74 84.9214C422.442 84.9214 422.192 84.8732 421.99 84.7768C421.788 84.6804 421.635 84.5312 421.532 84.3292C421.431 84.1272 421.38 83.8678 421.38 83.5511V81.079H421.959V83.5098C421.959 83.8242 422.03 84.0595 422.172 84.2156C422.315 84.3694 422.532 84.4463 422.823 84.4463C423.103 84.4463 423.326 84.3935 423.491 84.2879C423.659 84.1823 423.779 84.0274 423.853 83.8231C423.926 83.6165 423.963 83.364 423.963 83.0656V81.079H424.538ZM428.187 83.8196C428.187 84.0607 428.126 84.2638 428.005 84.4291C427.885 84.592 427.713 84.7148 427.488 84.7975C427.266 84.8801 426.999 84.9214 426.69 84.9214C426.426 84.9214 426.197 84.9007 426.004 84.8594C425.812 84.8181 425.643 84.7596 425.498 84.6838V84.1571C425.652 84.2328 425.836 84.3017 426.049 84.3636C426.263 84.4256 426.481 84.4566 426.703 84.4566C427.029 84.4566 427.266 84.4038 427.413 84.2982C427.559 84.1926 427.633 84.0492 427.633 83.8678C427.633 83.7646 427.603 83.6739 427.543 83.5958C427.486 83.5155 427.388 83.4386 427.251 83.3652C427.113 83.2894 426.923 83.2068 426.679 83.1173C426.438 83.0255 426.229 82.9348 426.053 82.8453C425.878 82.7535 425.743 82.6421 425.646 82.5113C425.552 82.3805 425.505 82.2106 425.505 82.0017C425.505 81.6827 425.634 81.4382 425.891 81.2684C426.15 81.0962 426.49 81.0102 426.91 81.0102C427.137 81.0102 427.349 81.0331 427.547 81.079C427.747 81.1226 427.932 81.1823 428.105 81.2581L427.912 81.716C427.756 81.6494 427.589 81.5932 427.413 81.5473C427.236 81.5014 427.056 81.4784 426.872 81.4784C426.608 81.4784 426.405 81.522 426.263 81.6092C426.123 81.6965 426.053 81.8158 426.053 81.9673C426.053 82.0844 426.085 82.1808 426.149 82.2565C426.216 82.3323 426.321 82.4034 426.466 82.47C426.61 82.5366 426.801 82.6146 427.037 82.7041C427.274 82.7913 427.478 82.882 427.65 82.9761C427.822 83.0679 427.954 83.1804 428.046 83.3135C428.14 83.4444 428.187 83.6131 428.187 83.8196ZM430.618 84.9214C430.278 84.9214 429.979 84.8514 429.719 84.7114C429.46 84.5714 429.258 84.3579 429.113 84.071C428.969 83.7841 428.897 83.4226 428.897 82.9864C428.897 82.5297 428.972 82.1567 429.124 81.8675C429.278 81.576 429.489 81.3602 429.757 81.2202C430.026 81.0802 430.331 81.0102 430.673 81.0102C430.861 81.0102 431.043 81.0297 431.217 81.0687C431.394 81.1054 431.538 81.1525 431.651 81.2099L431.479 81.6884C431.364 81.6425 431.231 81.6012 431.079 81.5645C430.93 81.5278 430.79 81.5094 430.659 81.5094C430.398 81.5094 430.18 81.5656 430.005 81.6781C429.833 81.7906 429.703 81.9558 429.616 82.1739C429.531 82.3919 429.489 82.6605 429.489 82.9796C429.489 83.2848 429.53 83.5454 429.613 83.7611C429.698 83.9769 429.823 84.1421 429.988 84.2569C430.156 84.3694 430.364 84.4256 430.615 84.4256C430.814 84.4256 430.994 84.405 431.155 84.3636C431.316 84.32 431.462 84.2695 431.592 84.2121V84.7217C431.466 84.786 431.325 84.8353 431.169 84.8698C431.015 84.9042 430.831 84.9214 430.618 84.9214ZM433.899 81.017C434.349 81.017 434.683 81.118 434.901 81.32C435.119 81.522 435.228 81.8445 435.228 82.2875V84.8525H434.812L434.701 84.2948H434.674C434.568 84.4325 434.458 84.5484 434.343 84.6425C434.229 84.7343 434.095 84.8043 433.944 84.8525C433.795 84.8984 433.611 84.9214 433.393 84.9214C433.164 84.9214 432.959 84.8812 432.78 84.8009C432.603 84.7206 432.463 84.5989 432.36 84.4359C432.259 84.273 432.209 84.0664 432.209 83.8162C432.209 83.4398 432.358 83.1506 432.656 82.9486C432.955 82.7466 433.409 82.6364 434.02 82.618L434.67 82.5905V82.3598C434.67 82.0339 434.6 81.8055 434.46 81.6747C434.32 81.5438 434.123 81.4784 433.868 81.4784C433.671 81.4784 433.483 81.5071 433.304 81.5645C433.125 81.6219 432.955 81.6896 432.794 81.7676L432.618 81.3338C432.788 81.2466 432.983 81.172 433.204 81.11C433.424 81.048 433.656 81.017 433.899 81.017ZM434.664 82.9933L434.089 83.0174C433.618 83.0358 433.286 83.1127 433.094 83.2481C432.901 83.3835 432.804 83.5752 432.804 83.8231C432.804 84.0388 432.87 84.1984 433.001 84.3017C433.131 84.405 433.305 84.4566 433.52 84.4566C433.856 84.4566 434.13 84.3636 434.343 84.1777C434.557 83.9918 434.664 83.7129 434.664 83.3411V82.9933ZM438.12 81.0102C438.196 81.0102 438.275 81.0148 438.358 81.0239C438.44 81.0308 438.514 81.0411 438.578 81.0549L438.506 81.5851C438.444 81.5691 438.375 81.5564 438.299 81.5473C438.224 81.5381 438.152 81.5335 438.086 81.5335C437.934 81.5335 437.791 81.5645 437.655 81.6265C437.522 81.6861 437.405 81.7734 437.304 81.8881C437.203 82.0006 437.124 82.1372 437.067 82.2978C437.009 82.4562 436.981 82.633 436.981 82.8281V84.8525H436.406V81.079H436.881L436.943 81.7745H436.967C437.045 81.6345 437.139 81.5071 437.249 81.3923C437.359 81.2753 437.487 81.1823 437.631 81.1135C437.778 81.0446 437.941 81.0102 438.12 81.0102ZM439.205 84.4945C439.205 84.3338 439.244 84.2202 439.322 84.1536C439.4 84.0848 439.495 84.0503 439.608 84.0503C439.725 84.0503 439.823 84.0848 439.904 84.1536C439.984 84.2202 440.024 84.3338 440.024 84.4945C440.024 84.6528 439.984 84.7688 439.904 84.8422C439.823 84.9134 439.725 84.9489 439.608 84.9489C439.495 84.9489 439.4 84.9134 439.322 84.8422C439.244 84.7688 439.205 84.6528 439.205 84.4945ZM441.057 84.4945C441.057 84.3338 441.096 84.2202 441.174 84.1536C441.252 84.0848 441.348 84.0503 441.46 84.0503C441.577 84.0503 441.676 84.0848 441.756 84.1536C441.836 84.2202 441.877 84.3338 441.877 84.4945C441.877 84.6528 441.836 84.7688 441.756 84.8422C441.676 84.9134 441.577 84.9489 441.46 84.9489C441.348 84.9489 441.252 84.9134 441.174 84.8422C441.096 84.7688 441.057 84.6528 441.057 84.4945ZM442.909 84.4945C442.909 84.3338 442.949 84.2202 443.027 84.1536C443.105 84.0848 443.2 84.0503 443.312 84.0503C443.429 84.0503 443.528 84.0848 443.608 84.1536C443.689 84.2202 443.729 84.3338 443.729 84.4945C443.729 84.6528 443.689 84.7688 443.608 84.8422C443.528 84.9134 443.429 84.9489 443.312 84.9489C443.2 84.9489 443.105 84.9134 443.027 84.8422C442.949 84.7688 442.909 84.6528 442.909 84.4945Z" fill="#5C6A7A"/>
<path d="M558.167 71.1233C555.977 71.1233 554.201 72.899 554.201 75.0896V89.1921C554.201 91.3826 555.977 93.1584 558.167 93.1584H635.033C637.223 93.1584 638.999 91.3826 638.999 89.1921V75.0896C638.999 72.899 637.223 71.1233 635.033 71.1233H558.167Z" fill="white"/>
<path d="M558.167 71.1233C555.977 71.1233 554.201 72.899 554.201 75.0896V89.1921C554.201 91.3826 555.977 93.1584 558.167 93.1584H635.033C637.223 93.1584 638.999 91.3826 638.999 89.1921V75.0896C638.999 72.899 637.223 71.1233 635.033 71.1233H558.167Z" stroke="#E6EBF0" stroke-width="0.881406"/>
<path d="M565.218 82.1409C566.192 82.1409 566.981 81.352 566.981 80.378C566.981 79.4041 566.192 78.6152 565.218 78.6152C564.244 78.6152 563.455 79.4041 563.455 80.378C563.455 81.352 564.244 82.1409 565.218 82.1409ZM565.218 83.0223C564.041 83.0223 561.692 83.6128 561.692 84.7851V85.6665H568.744V84.7851C568.744 83.6128 566.395 83.0223 565.218 83.0223Z" fill="#101E37"/>
<path d="M573.269 84.6962C573.169 84.6962 573.092 84.6697 573.039 84.6168C572.986 84.5587 572.96 84.4767 572.96 84.3709V79.3257C572.96 79.22 572.986 79.138 573.039 79.0798C573.092 79.0217 573.161 78.9926 573.245 78.9926C573.33 78.9926 573.391 79.0084 573.428 79.0402C573.47 79.0666 573.518 79.1169 573.57 79.1909L577.029 83.7998H576.839V79.3099C576.839 79.2094 576.865 79.1327 576.918 79.0798C576.971 79.0217 577.048 78.9926 577.148 78.9926C577.243 78.9926 577.315 79.0217 577.362 79.0798C577.415 79.1327 577.442 79.2094 577.442 79.3099V84.3788C577.442 84.4793 577.418 84.5587 577.37 84.6168C577.328 84.6697 577.264 84.6962 577.18 84.6962C577.101 84.6962 577.037 84.6803 576.989 84.6486C576.942 84.6168 576.892 84.5666 576.839 84.4978L573.388 79.889H573.57V84.3709C573.57 84.4767 573.544 84.5587 573.491 84.6168C573.438 84.6697 573.364 84.6962 573.269 84.6962ZM580.347 84.712C579.971 84.712 579.646 84.63 579.371 84.4661C579.096 84.3022 578.882 84.0721 578.729 83.776C578.58 83.4745 578.506 83.1202 578.506 82.713C578.506 82.4063 578.549 82.1313 578.633 81.888C578.718 81.6394 578.842 81.4279 579.006 81.2534C579.17 81.0789 579.363 80.9467 579.585 80.8568C579.813 80.7616 580.067 80.714 580.347 80.714C580.722 80.714 581.048 80.7959 581.323 80.9599C581.598 81.1238 581.809 81.3565 581.957 81.6579C582.111 81.9541 582.187 82.3058 582.187 82.713C582.187 83.0197 582.145 83.2947 582.06 83.538C581.976 83.7813 581.851 83.9928 581.687 84.1726C581.524 84.3471 581.328 84.482 581.1 84.5772C580.878 84.6671 580.627 84.712 580.347 84.712ZM580.347 84.1964C580.585 84.1964 580.794 84.1382 580.974 84.0219C581.153 83.9055 581.291 83.7363 581.386 83.5142C581.486 83.2921 581.537 83.025 581.537 82.713C581.537 82.2317 581.428 81.8642 581.211 81.6104C581 81.3565 580.712 81.2296 580.347 81.2296C580.104 81.2296 579.892 81.2878 579.712 81.4041C579.538 81.5152 579.4 81.6817 579.3 81.9039C579.205 82.1207 579.157 82.3904 579.157 82.713C579.157 83.1889 579.265 83.5565 579.482 83.8156C579.699 84.0695 579.987 84.1964 580.347 84.1964ZM583.485 84.6962C583.38 84.6962 583.3 84.6671 583.248 84.6089C583.195 84.5507 583.168 84.4688 583.168 84.363V81.0551C583.168 80.9493 583.195 80.87 583.248 80.8171C583.3 80.7589 583.377 80.7298 583.478 80.7298C583.578 80.7298 583.655 80.7589 583.708 80.8171C583.766 80.87 583.795 80.9493 583.795 81.0551V81.7531L583.708 81.6421C583.808 81.3459 583.969 81.1185 584.191 80.9599C584.419 80.7959 584.689 80.714 585.001 80.714C585.329 80.714 585.593 80.7933 585.794 80.9519C586 81.1053 586.138 81.3459 586.206 81.6738H586.087C586.183 81.3777 586.352 81.145 586.595 80.9757C586.844 80.8012 587.132 80.714 587.46 80.714C587.751 80.714 587.989 80.7695 588.174 80.8805C588.364 80.9916 588.507 81.1608 588.602 81.3882C588.697 81.6104 588.745 81.8933 588.745 82.237V84.363C588.745 84.4688 588.716 84.5507 588.658 84.6089C588.605 84.6671 588.525 84.6962 588.42 84.6962C588.319 84.6962 588.24 84.6671 588.182 84.6089C588.129 84.5507 588.102 84.4688 588.102 84.363V82.2688C588.102 81.9144 588.041 81.6553 587.92 81.4914C587.798 81.3221 587.592 81.2375 587.301 81.2375C586.984 81.2375 586.733 81.3486 586.547 81.5707C586.368 81.7875 586.278 82.0837 586.278 82.4591V84.363C586.278 84.4688 586.249 84.5507 586.191 84.6089C586.138 84.6671 586.058 84.6962 585.953 84.6962C585.852 84.6962 585.773 84.6671 585.715 84.6089C585.662 84.5507 585.635 84.4688 585.635 84.363V82.2688C585.635 81.9144 585.572 81.6553 585.445 81.4914C585.323 81.3221 585.12 81.2375 584.834 81.2375C584.517 81.2375 584.266 81.3486 584.08 81.5707C583.901 81.7875 583.811 82.0837 583.811 82.4591V84.363C583.811 84.5851 583.702 84.6962 583.485 84.6962ZM591.898 84.712C591.549 84.712 591.247 84.6221 590.993 84.4423C590.745 84.2625 590.578 84.0219 590.494 83.7204L590.581 83.6332V84.363C590.581 84.4688 590.552 84.5507 590.494 84.6089C590.441 84.6671 590.364 84.6962 590.264 84.6962C590.158 84.6962 590.078 84.6671 590.026 84.6089C589.973 84.5507 589.946 84.4688 589.946 84.363V79.3178C589.946 79.212 589.973 79.1327 590.026 79.0798C590.078 79.0217 590.158 78.9926 590.264 78.9926C590.364 78.9926 590.443 79.0217 590.501 79.0798C590.56 79.1327 590.589 79.212 590.589 79.3178V81.6817H590.494C590.583 81.3856 590.753 81.1503 591.001 80.9757C591.25 80.8012 591.549 80.714 591.898 80.714C592.247 80.714 592.548 80.7959 592.802 80.9599C593.056 81.1185 593.251 81.3486 593.389 81.65C593.532 81.9462 593.603 82.3005 593.603 82.713C593.603 83.1202 593.532 83.4745 593.389 83.776C593.251 84.0721 593.053 84.3022 592.794 84.4661C592.54 84.63 592.241 84.712 591.898 84.712ZM591.763 84.1964C592.006 84.1964 592.215 84.1382 592.389 84.0219C592.569 83.9055 592.707 83.7363 592.802 83.5142C592.902 83.2921 592.953 83.025 592.953 82.713C592.953 82.2317 592.844 81.8642 592.627 81.6104C592.416 81.3565 592.128 81.2296 591.763 81.2296C591.525 81.2296 591.316 81.2878 591.136 81.4041C590.956 81.5152 590.816 81.6817 590.716 81.9039C590.62 82.1207 590.573 82.3904 590.573 82.713C590.573 83.1889 590.681 83.5565 590.898 83.8156C591.115 84.0695 591.403 84.1964 591.763 84.1964ZM594.896 84.6962C594.79 84.6962 594.709 84.6671 594.65 84.6089C594.597 84.5507 594.571 84.4688 594.571 84.363V81.0551C594.571 80.9493 594.597 80.87 594.65 80.8171C594.703 80.7589 594.78 80.7298 594.88 80.7298C594.981 80.7298 595.058 80.7589 595.11 80.8171C595.169 80.87 595.198 80.9493 595.198 81.0551V81.6976H595.118C595.203 81.3856 595.364 81.145 595.602 80.9757C595.84 80.8065 596.134 80.7166 596.483 80.706C596.562 80.7007 596.626 80.7193 596.673 80.7616C596.721 80.7986 596.747 80.8647 596.752 80.9599C596.758 81.0498 596.737 81.1212 596.689 81.1741C596.641 81.2269 596.567 81.2587 596.467 81.2692L596.34 81.2851C595.98 81.3168 595.703 81.4332 595.507 81.6342C595.317 81.8298 595.221 82.0995 595.221 82.4433V84.363C595.221 84.4688 595.192 84.5507 595.134 84.6089C595.081 84.6671 595.002 84.6962 594.896 84.6962ZM599.105 84.712C598.698 84.712 598.346 84.6327 598.05 84.474C597.759 84.3101 597.532 84.0801 597.368 83.7839C597.209 83.4877 597.13 83.1334 597.13 82.7209C597.13 82.319 597.209 81.97 597.368 81.6738C597.526 81.3724 597.743 81.137 598.018 80.9678C598.298 80.7986 598.621 80.714 598.986 80.714C599.245 80.714 599.478 80.7589 599.684 80.8488C599.89 80.9334 600.065 81.0577 600.207 81.2217C600.356 81.3856 600.467 81.5839 600.541 81.8166C600.62 82.0493 600.66 82.3111 600.66 82.6019C600.66 82.6865 600.636 82.75 600.588 82.7923C600.541 82.8293 600.472 82.8478 600.382 82.8478H597.621V82.4274H600.231L600.104 82.5305C600.104 82.245 600.062 82.0043 599.977 81.8087C599.893 81.6077 599.769 81.4543 599.605 81.3486C599.446 81.2428 599.245 81.1899 599.002 81.1899C598.732 81.1899 598.502 81.2534 598.312 81.3803C598.126 81.5019 597.986 81.6738 597.891 81.8959C597.796 82.1128 597.748 82.3666 597.748 82.6575V82.7051C597.748 83.1916 597.865 83.5618 598.097 83.8156C598.335 84.0695 598.671 84.1964 599.105 84.1964C599.285 84.1964 599.462 84.1726 599.636 84.125C599.816 84.0774 599.991 83.9981 600.16 83.887C600.234 83.8394 600.3 83.8183 600.358 83.8236C600.422 83.8236 600.472 83.8421 600.509 83.8791C600.546 83.9108 600.57 83.9531 600.58 84.006C600.596 84.0536 600.591 84.1065 600.564 84.1647C600.543 84.2228 600.498 84.2731 600.43 84.3154C600.255 84.4423 600.049 84.5401 599.811 84.6089C599.573 84.6776 599.338 84.712 599.105 84.712ZM603.603 84.6962C603.518 84.6962 603.45 84.6776 603.397 84.6406C603.349 84.5983 603.32 84.5454 603.309 84.482C603.304 84.4132 603.32 84.3365 603.357 84.2519L605.539 79.2861C605.586 79.1803 605.642 79.1063 605.705 79.064C605.774 79.0164 605.848 78.9926 605.927 78.9926C606.007 78.9926 606.078 79.0164 606.141 79.064C606.21 79.1063 606.266 79.1803 606.308 79.2861L608.497 84.2519C608.54 84.3365 608.556 84.4132 608.545 84.482C608.54 84.5507 608.513 84.6036 608.466 84.6406C608.418 84.6776 608.352 84.6962 608.267 84.6962C608.172 84.6962 608.095 84.6724 608.037 84.6248C607.979 84.5719 607.932 84.4978 607.895 84.4026L607.307 83.0462L607.625 83.2127H604.214L604.539 83.0462L603.96 84.4026C603.912 84.5031 603.862 84.5772 603.809 84.6248C603.756 84.6724 603.688 84.6962 603.603 84.6962ZM605.919 79.8096L604.642 82.8161L604.452 82.6654H607.387L607.212 82.8161L605.935 79.8096H605.919ZM609.731 86.124C609.625 86.124 609.546 86.0949 609.493 86.0368C609.44 85.9839 609.414 85.9046 609.414 85.7988V81.0551C609.414 80.9493 609.44 80.87 609.493 80.8171C609.546 80.7589 609.623 80.7298 609.723 80.7298C609.829 80.7298 609.908 80.7589 609.961 80.8171C610.019 80.87 610.048 80.9493 610.048 81.0551V81.8087L609.961 81.6976C610.046 81.3962 610.212 81.1582 610.461 80.9837C610.715 80.8039 611.016 80.714 611.365 80.714C611.709 80.714 612.008 80.7959 612.262 80.9599C612.521 81.1185 612.719 81.3486 612.857 81.65C612.999 81.9462 613.071 82.3005 613.071 82.713C613.071 83.1202 612.999 83.4745 612.857 83.776C612.719 84.0721 612.523 84.3022 612.269 84.4661C612.016 84.63 611.714 84.712 611.365 84.712C611.016 84.712 610.717 84.6248 610.469 84.4502C610.22 84.2704 610.051 84.0325 609.961 83.7363H610.056V85.7988C610.056 85.9046 610.027 85.9839 609.969 86.0368C609.911 86.0949 609.832 86.124 609.731 86.124ZM611.23 84.1964C611.474 84.1964 611.682 84.1382 611.857 84.0219C612.037 83.9055 612.174 83.7363 612.269 83.5142C612.37 83.2921 612.42 83.025 612.42 82.713C612.42 82.2317 612.312 81.8642 612.095 81.6104C611.883 81.3565 611.595 81.2296 611.23 81.2296C610.992 81.2296 610.783 81.2878 610.604 81.4041C610.424 81.5152 610.284 81.6817 610.183 81.9039C610.088 82.1207 610.04 82.3904 610.04 82.713C610.04 83.1889 610.149 83.5565 610.366 83.8156C610.582 84.0695 610.871 84.1964 611.23 84.1964ZM615.776 84.712C615.369 84.712 615.017 84.6327 614.721 84.474C614.43 84.3101 614.202 84.0801 614.039 83.7839C613.88 83.4877 613.801 83.1334 613.801 82.7209C613.801 82.319 613.88 81.97 614.039 81.6738C614.197 81.3724 614.414 81.137 614.689 80.9678C614.969 80.7986 615.292 80.714 615.657 80.714C615.916 80.714 616.149 80.7589 616.355 80.8488C616.561 80.9334 616.736 81.0577 616.878 81.2217C617.026 81.3856 617.138 81.5839 617.212 81.8166C617.291 82.0493 617.331 82.3111 617.331 82.6019C617.331 82.6865 617.307 82.75 617.259 82.7923C617.212 82.8293 617.143 82.8478 617.053 82.8478H614.292V82.4274H616.902L616.775 82.5305C616.775 82.245 616.733 82.0043 616.648 81.8087C616.564 81.6077 616.439 81.4543 616.276 81.3486C616.117 81.2428 615.916 81.1899 615.673 81.1899C615.403 81.1899 615.173 81.2534 614.983 81.3803C614.797 81.5019 614.657 81.6738 614.562 81.8959C614.467 82.1128 614.419 82.3666 614.419 82.6575V82.7051C614.419 83.1916 614.536 83.5618 614.768 83.8156C615.006 84.0695 615.342 84.1964 615.776 84.1964C615.956 84.1964 616.133 84.1726 616.307 84.125C616.487 84.0774 616.662 83.9981 616.831 83.887C616.905 83.8394 616.971 83.8183 617.029 83.8236C617.093 83.8236 617.143 83.8421 617.18 83.8791C617.217 83.9108 617.241 83.9531 617.251 84.006C617.267 84.0536 617.262 84.1065 617.235 84.1647C617.214 84.2228 617.169 84.2731 617.101 84.3154C616.926 84.4423 616.72 84.5401 616.482 84.6089C616.244 84.6776 616.008 84.712 615.776 84.712ZM619.435 84.712C619.054 84.712 618.763 84.5957 618.562 84.363C618.361 84.1303 618.26 83.7971 618.26 83.3635V79.3178C618.26 79.212 618.287 79.1327 618.34 79.0798C618.393 79.0217 618.472 78.9926 618.578 78.9926C618.678 78.9926 618.758 79.0217 618.816 79.0798C618.874 79.1327 618.903 79.212 618.903 79.3178V83.3159C618.903 83.6014 618.959 83.8156 619.07 83.9584C619.186 84.0959 619.355 84.1647 619.577 84.1647C619.625 84.1647 619.667 84.162 619.704 84.1567C619.741 84.1514 619.778 84.1488 619.815 84.1488C619.873 84.1435 619.913 84.1567 619.934 84.1885C619.961 84.2202 619.974 84.2837 619.974 84.3788C619.974 84.474 619.953 84.5454 619.91 84.593C619.868 84.6406 619.799 84.6724 619.704 84.6882C619.662 84.6935 619.617 84.6988 619.569 84.7041C619.522 84.7094 619.477 84.712 619.435 84.712ZM621.782 84.712C621.401 84.712 621.11 84.5957 620.909 84.363C620.708 84.1303 620.608 83.7971 620.608 83.3635V79.3178C620.608 79.212 620.634 79.1327 620.687 79.0798C620.74 79.0217 620.819 78.9926 620.925 78.9926C621.026 78.9926 621.105 79.0217 621.163 79.0798C621.221 79.1327 621.25 79.212 621.25 79.3178V83.3159C621.25 83.6014 621.306 83.8156 621.417 83.9584C621.533 84.0959 621.702 84.1647 621.925 84.1647C621.972 84.1647 622.014 84.162 622.051 84.1567C622.089 84.1514 622.126 84.1488 622.163 84.1488C622.221 84.1435 622.26 84.1567 622.282 84.1885C622.308 84.2202 622.321 84.2837 622.321 84.3788C622.321 84.474 622.3 84.5454 622.258 84.593C622.215 84.6406 622.147 84.6724 622.051 84.6882C622.009 84.6935 621.964 84.6988 621.917 84.7041C621.869 84.7094 621.824 84.712 621.782 84.712ZM623.272 84.6803C623.167 84.6803 623.087 84.6512 623.034 84.593C622.981 84.5296 622.955 84.4423 622.955 84.3313V81.0868C622.955 80.9757 622.981 80.8911 623.034 80.833C623.087 80.7748 623.167 80.7457 623.272 80.7457C623.373 80.7457 623.452 80.7748 623.51 80.833C623.568 80.8911 623.598 80.9757 623.598 81.0868V84.3313C623.598 84.4423 623.568 84.5296 623.51 84.593C623.457 84.6512 623.378 84.6803 623.272 84.6803ZM623.272 79.8572C623.14 79.8572 623.037 79.8229 622.963 79.7541C622.889 79.6801 622.852 79.5822 622.852 79.4606C622.852 79.3337 622.889 79.2385 622.963 79.175C623.037 79.1063 623.14 79.0719 623.272 79.0719C623.41 79.0719 623.513 79.1063 623.582 79.175C623.656 79.2385 623.693 79.3337 623.693 79.4606C623.693 79.5822 623.656 79.6801 623.582 79.7541C623.513 79.8229 623.41 79.8572 623.272 79.8572ZM626.266 84.712C625.923 84.712 625.621 84.63 625.362 84.4661C625.108 84.3022 624.91 84.0721 624.767 83.776C624.63 83.4745 624.561 83.1202 624.561 82.713C624.561 82.3005 624.63 81.9462 624.767 81.65C624.91 81.3486 625.108 81.1185 625.362 80.9599C625.621 80.7959 625.923 80.714 626.266 80.714C626.615 80.714 626.914 80.8012 627.163 80.9757C627.411 81.1503 627.578 81.3856 627.662 81.6817H627.575V79.3178C627.575 79.212 627.602 79.1327 627.654 79.0798C627.713 79.0217 627.795 78.9926 627.9 78.9926C628.001 78.9926 628.078 79.0217 628.13 79.0798C628.189 79.1327 628.218 79.212 628.218 79.3178V84.363C628.218 84.4688 628.191 84.5507 628.138 84.6089C628.085 84.6671 628.006 84.6962 627.9 84.6962C627.8 84.6962 627.721 84.6671 627.662 84.6089C627.61 84.5507 627.583 84.4688 627.583 84.363V83.6094L627.67 83.7204C627.586 84.0219 627.417 84.2625 627.163 84.4423C626.914 84.6221 626.615 84.712 626.266 84.712ZM626.401 84.1964C626.639 84.1964 626.848 84.1382 627.028 84.0219C627.208 83.9055 627.345 83.7363 627.44 83.5142C627.541 83.2921 627.591 83.025 627.591 82.713C627.591 82.2317 627.483 81.8642 627.266 81.6104C627.054 81.3565 626.766 81.2296 626.401 81.2296C626.158 81.2296 625.946 81.2878 625.767 81.4041C625.592 81.5152 625.455 81.6817 625.354 81.9039C625.259 82.1207 625.211 82.3904 625.211 82.713C625.211 83.1889 625.32 83.5565 625.536 83.8156C625.753 84.0695 626.042 84.1964 626.401 84.1964ZM631.026 84.712C630.65 84.712 630.325 84.63 630.05 84.4661C629.775 84.3022 629.561 84.0721 629.408 83.776C629.26 83.4745 629.186 83.1202 629.186 82.713C629.186 82.4063 629.228 82.1313 629.312 81.888C629.397 81.6394 629.521 81.4279 629.685 81.2534C629.849 81.0789 630.042 80.9467 630.264 80.8568C630.492 80.7616 630.746 80.714 631.026 80.714C631.401 80.714 631.727 80.7959 632.002 80.9599C632.277 81.1238 632.488 81.3565 632.636 81.6579C632.79 81.9541 632.866 82.3058 632.866 82.713C632.866 83.0197 632.824 83.2947 632.739 83.538C632.655 83.7813 632.53 83.9928 632.367 84.1726C632.203 84.3471 632.007 84.482 631.78 84.5772C631.557 84.6671 631.306 84.712 631.026 84.712ZM631.026 84.1964C631.264 84.1964 631.473 84.1382 631.653 84.0219C631.832 83.9055 631.97 83.7363 632.065 83.5142C632.166 83.2921 632.216 83.025 632.216 82.713C632.216 82.2317 632.107 81.8642 631.891 81.6104C631.679 81.3565 631.391 81.2296 631.026 81.2296C630.783 81.2296 630.571 81.2878 630.391 81.4041C630.217 81.5152 630.079 81.6817 629.979 81.9039C629.884 82.1207 629.836 82.3904 629.836 82.713C629.836 83.1889 629.944 83.5565 630.161 83.8156C630.378 84.0695 630.666 84.1964 631.026 84.1964Z" fill="#101E37"/>
<defs>
<clipPath id="clip0_187_5329">
<rect width="33.4931" height="18.0159" fill="white" transform="translate(90.3237 72.6924)"/>
</clipPath>
</defs>
</svg>
