<svg width="728" height="164" viewBox="0 0 728 164" fill="none" xmlns="http://www.w3.org/2000/svg">
<rect x="1" y="1.25635" width="726" height="161.256" rx="7" fill="#F3F6F9"/>
<rect x="1" y="1.25635" width="726" height="161.256" rx="7" stroke="#E6EBF0" stroke-width="2"/>
<rect width="602" height="35.2562" transform="translate(63 64.2563)" fill="white"/>
<line x1="63" y1="98.6313" x2="665" y2="98.6313" stroke="#FFCC00" stroke-width="1.76281"/>
<g clip-path="url(#clip0_187_5240)">
<path d="M123.492 86.7049L117.068 74.2921C116.514 73.1902 115.379 72.436 114.061 72.436H114.058C112.741 72.436 111.605 73.1902 111.05 74.2921L106.529 83.0293C106.024 82.1307 105.219 81.4257 104.247 81.0447C105.331 80.2604 106.038 78.9822 106.038 77.5406C106.038 75.8687 105.088 74.4223 103.701 73.7046C102.478 73.0616 101.083 72.698 99.6029 72.698H92.8392C91.4483 72.698 90.3242 73.8221 90.3242 75.2098V87.7973C90.3242 89.185 91.4483 90.3091 92.8392 90.3091H100.154C101.564 90.3091 102.905 90.0169 104.123 89.4962L104.587 89.2723C104.612 89.2596 104.638 89.2469 104.663 89.2342C105.103 89.9629 105.898 90.4536 106.814 90.4536C107.832 90.4536 108.709 89.8502 109.104 88.9786C109.301 88.5181 109.745 88.1926 110.269 88.1672H117.847C118.373 88.1926 118.816 88.5181 119.013 88.9786C119.407 89.8502 120.285 90.4536 121.302 90.4536C122.692 90.4536 123.816 89.3263 123.816 87.9434C123.816 87.4924 123.7 87.0701 123.49 86.7065" fill="#153244"/>
</g>
<rect x="135.275" y="71.0962" width="52.5769" height="21.5769" rx="3.52562" fill="white"/>
<path d="M141.563 84.4403C141.463 84.4403 141.386 84.4139 141.333 84.361C141.28 84.3028 141.254 84.2208 141.254 84.1151V79.0699C141.254 78.9641 141.28 78.8821 141.333 78.824C141.386 78.7658 141.455 78.7367 141.539 78.7367C141.624 78.7367 141.685 78.7526 141.722 78.7843C141.764 78.8108 141.812 78.861 141.864 78.935L145.323 83.5439H145.133V79.054C145.133 78.9535 145.159 78.8769 145.212 78.824C145.265 78.7658 145.342 78.7367 145.442 78.7367C145.537 78.7367 145.609 78.7658 145.656 78.824C145.709 78.8769 145.736 78.9535 145.736 79.054V84.123C145.736 84.2235 145.712 84.3028 145.664 84.361C145.622 84.4139 145.558 84.4403 145.474 84.4403C145.394 84.4403 145.331 84.4244 145.283 84.3927C145.236 84.361 145.186 84.3107 145.133 84.242L141.682 79.6331H141.864V84.1151C141.864 84.2208 141.838 84.3028 141.785 84.361C141.732 84.4139 141.658 84.4403 141.563 84.4403ZM148.252 84.4562C147.988 84.4562 147.75 84.4059 147.538 84.3054C147.332 84.1997 147.168 84.0569 147.046 83.8771C146.925 83.6973 146.864 83.4963 146.864 83.2742C146.864 82.9886 146.935 82.7639 147.078 82.5999C147.226 82.436 147.467 82.3196 147.8 82.2509C148.138 82.1821 148.598 82.1478 149.18 82.1478H149.537V82.5682H149.188C148.76 82.5682 148.421 82.5893 148.173 82.6316C147.929 82.6687 147.758 82.7348 147.657 82.83C147.562 82.9252 147.514 83.06 147.514 83.2345C147.514 83.4514 147.588 83.6285 147.736 83.766C147.89 83.9035 148.096 83.9723 148.355 83.9723C148.567 83.9723 148.752 83.922 148.91 83.8215C149.074 83.7211 149.201 83.5836 149.291 83.409C149.386 83.2345 149.434 83.0336 149.434 82.8062V81.9018C149.434 81.574 149.368 81.3386 149.236 81.1958C149.104 81.0478 148.887 80.9737 148.585 80.9737C148.4 80.9737 148.215 80.9975 148.03 81.0451C147.845 81.0927 147.649 81.1694 147.443 81.2752C147.369 81.3122 147.305 81.3254 147.253 81.3148C147.2 81.299 147.157 81.2699 147.126 81.2276C147.094 81.1853 147.075 81.1377 147.07 81.0848C147.065 81.0266 147.075 80.9711 147.102 80.9182C147.134 80.8653 147.181 80.823 147.245 80.7913C147.477 80.6749 147.707 80.5903 147.935 80.5374C148.162 80.4845 148.379 80.4581 148.585 80.4581C148.918 80.4581 149.193 80.5136 149.41 80.6247C149.627 80.7305 149.788 80.8944 149.894 81.1165C150 81.3333 150.053 81.6136 150.053 81.9574V84.1071C150.053 84.2129 150.026 84.2949 149.973 84.353C149.926 84.4112 149.854 84.4403 149.759 84.4403C149.659 84.4403 149.582 84.4112 149.529 84.353C149.476 84.2949 149.45 84.2129 149.45 84.1071V83.4884H149.521C149.479 83.6893 149.397 83.8612 149.275 84.004C149.159 84.1468 149.014 84.2578 148.839 84.3372C148.665 84.4165 148.469 84.4562 148.252 84.4562ZM152.642 84.4403C152.552 84.4403 152.473 84.4165 152.404 84.3689C152.335 84.316 152.277 84.2367 152.229 84.1309L150.857 80.9261C150.82 80.8468 150.807 80.7728 150.817 80.704C150.828 80.6353 150.86 80.5797 150.913 80.5374C150.965 80.4951 151.04 80.474 151.135 80.474C151.219 80.474 151.285 80.4925 151.333 80.5295C151.381 80.5665 151.423 80.6326 151.46 80.7278L152.761 83.9088H152.547L153.871 80.7278C153.909 80.6326 153.951 80.5665 153.998 80.5295C154.046 80.4925 154.115 80.474 154.205 80.474C154.289 80.474 154.353 80.4951 154.395 80.5374C154.443 80.5797 154.469 80.6353 154.474 80.704C154.485 80.7675 154.474 80.8389 154.443 80.9182L153.054 84.1309C153.017 84.2367 152.962 84.316 152.888 84.3689C152.819 84.4165 152.737 84.4403 152.642 84.4403ZM156.972 84.4562C156.564 84.4562 156.213 84.3768 155.917 84.2182C155.626 84.0542 155.398 83.8242 155.234 83.528C155.076 83.2319 154.996 82.8776 154.996 82.4651C154.996 82.0631 155.076 81.7141 155.234 81.418C155.393 81.1165 155.61 80.8812 155.885 80.7119C156.165 80.5427 156.488 80.4581 156.853 80.4581C157.112 80.4581 157.345 80.5031 157.551 80.593C157.757 80.6776 157.932 80.8019 158.074 80.9658C158.222 81.1297 158.333 81.3281 158.407 81.5607C158.487 81.7934 158.526 82.0552 158.526 82.3461C158.526 82.4307 158.503 82.4942 158.455 82.5365C158.407 82.5735 158.339 82.592 158.249 82.592H155.488V82.1716H158.098L157.971 82.2747C157.971 81.9891 157.929 81.7485 157.844 81.5528C157.76 81.3518 157.635 81.1985 157.471 81.0927C157.313 80.9869 157.112 80.9341 156.869 80.9341C156.599 80.9341 156.369 80.9975 156.178 81.1244C155.993 81.2461 155.853 81.418 155.758 81.6401C155.663 81.8569 155.615 82.1107 155.615 82.4016V82.4492C155.615 82.9357 155.732 83.3059 155.964 83.5598C156.202 83.8136 156.538 83.9405 156.972 83.9405C157.151 83.9405 157.329 83.9167 157.503 83.8691C157.683 83.8215 157.857 83.7422 158.027 83.6312C158.101 83.5836 158.167 83.5624 158.225 83.5677C158.288 83.5677 158.339 83.5862 158.376 83.6232C158.413 83.655 158.437 83.6973 158.447 83.7502C158.463 83.7977 158.458 83.8506 158.431 83.9088C158.41 83.967 158.365 84.0172 158.296 84.0595C158.122 84.1864 157.916 84.2843 157.678 84.353C157.44 84.4218 157.204 84.4562 156.972 84.4562ZM161.162 85.884C160.882 85.884 160.607 85.8497 160.337 85.7809C160.072 85.7175 159.832 85.6143 159.615 85.4715C159.552 85.4345 159.509 85.3896 159.488 85.3367C159.472 85.2838 159.47 85.2309 159.48 85.178C159.491 85.1304 159.515 85.0855 159.552 85.0432C159.589 85.0062 159.631 84.9824 159.678 84.9718C159.731 84.9612 159.784 84.9691 159.837 84.9956C160.07 85.1384 160.292 85.2362 160.503 85.2891C160.715 85.342 160.924 85.3684 161.13 85.3684C161.506 85.3684 161.789 85.2679 161.979 85.067C162.175 84.866 162.272 84.5751 162.272 84.1944V83.298H162.352C162.272 83.6047 162.103 83.848 161.844 84.0278C161.59 84.2076 161.291 84.2975 160.948 84.2975C160.593 84.2975 160.287 84.2182 160.028 84.0595C159.768 83.8956 159.567 83.6682 159.425 83.3773C159.287 83.0865 159.218 82.7506 159.218 82.3699C159.218 82.0843 159.258 81.8252 159.337 81.5925C159.417 81.3545 159.53 81.1535 159.678 80.9896C159.832 80.8204 160.014 80.6908 160.226 80.6009C160.443 80.5057 160.683 80.4581 160.948 80.4581C161.297 80.4581 161.598 80.548 161.852 80.7278C162.106 80.9023 162.27 81.1403 162.344 81.4418L162.265 81.5369V80.7992C162.265 80.6934 162.291 80.6141 162.344 80.5612C162.402 80.5031 162.481 80.474 162.582 80.474C162.688 80.474 162.767 80.5031 162.82 80.5612C162.873 80.6141 162.899 80.6934 162.899 80.7992V84.1071C162.899 84.6941 162.751 85.1357 162.455 85.4319C162.164 85.7333 161.733 85.884 161.162 85.884ZM161.067 83.774C161.315 83.774 161.529 83.7184 161.709 83.6074C161.889 83.491 162.027 83.3271 162.122 83.1155C162.222 82.904 162.272 82.6554 162.272 82.3699C162.272 81.9415 162.164 81.603 161.947 81.3545C161.73 81.1006 161.437 80.9737 161.067 80.9737C160.823 80.9737 160.612 81.0319 160.432 81.1482C160.252 81.2593 160.112 81.4206 160.012 81.6321C159.916 81.8384 159.869 82.0843 159.869 82.3699C159.869 82.7982 159.977 83.1393 160.194 83.3932C160.411 83.647 160.702 83.774 161.067 83.774ZM165.318 84.4562C165.054 84.4562 164.816 84.4059 164.604 84.3054C164.398 84.1997 164.234 84.0569 164.112 83.8771C163.991 83.6973 163.93 83.4963 163.93 83.2742C163.93 82.9886 164.001 82.7639 164.144 82.5999C164.292 82.436 164.533 82.3196 164.866 82.2509C165.204 82.1821 165.665 82.1478 166.246 82.1478H166.603V82.5682H166.254C165.826 82.5682 165.487 82.5893 165.239 82.6316C164.996 82.6687 164.824 82.7348 164.723 82.83C164.628 82.9252 164.58 83.06 164.58 83.2345C164.58 83.4514 164.654 83.6285 164.802 83.766C164.956 83.9035 165.162 83.9723 165.421 83.9723C165.633 83.9723 165.818 83.922 165.977 83.8215C166.14 83.7211 166.267 83.5836 166.357 83.409C166.452 83.2345 166.5 83.0336 166.5 82.8062V81.9018C166.5 81.574 166.434 81.3386 166.302 81.1958C166.17 81.0478 165.953 80.9737 165.651 80.9737C165.466 80.9737 165.281 80.9975 165.096 81.0451C164.911 81.0927 164.715 81.1694 164.509 81.2752C164.435 81.3122 164.371 81.3254 164.319 81.3148C164.266 81.299 164.223 81.2699 164.192 81.2276C164.16 81.1853 164.141 81.1377 164.136 81.0848C164.131 81.0266 164.141 80.9711 164.168 80.9182C164.2 80.8653 164.247 80.823 164.311 80.7913C164.543 80.6749 164.773 80.5903 165.001 80.5374C165.228 80.4845 165.445 80.4581 165.651 80.4581C165.984 80.4581 166.259 80.5136 166.476 80.6247C166.693 80.7305 166.854 80.8944 166.96 81.1165C167.066 81.3333 167.119 81.6136 167.119 81.9574V84.1071C167.119 84.2129 167.092 84.2949 167.04 84.353C166.992 84.4112 166.921 84.4403 166.825 84.4403C166.725 84.4403 166.648 84.4112 166.595 84.353C166.542 84.2949 166.516 84.2129 166.516 84.1071V83.4884H166.587C166.545 83.6893 166.463 83.8612 166.341 84.004C166.225 84.1468 166.08 84.2578 165.905 84.3372C165.731 84.4165 165.535 84.4562 165.318 84.4562ZM169.945 84.4562C169.559 84.4562 169.226 84.3715 168.946 84.2023C168.665 84.0331 168.448 83.7977 168.295 83.4963C168.147 83.1896 168.073 82.8353 168.073 82.4333C168.073 82.1266 168.115 81.8516 168.2 81.6083C168.284 81.3651 168.409 81.1588 168.573 80.9896C168.737 80.8151 168.932 80.6829 169.16 80.593C169.392 80.5031 169.654 80.4581 169.945 80.4581C170.135 80.4581 170.334 80.4872 170.54 80.5454C170.746 80.6035 170.934 80.704 171.103 80.8468C171.156 80.8838 171.19 80.9288 171.206 80.9817C171.222 81.0345 171.222 81.0874 171.206 81.1403C171.19 81.1879 171.164 81.2302 171.127 81.2672C171.09 81.299 171.042 81.3175 170.984 81.3228C170.931 81.3281 170.876 81.3095 170.818 81.2672C170.68 81.1615 170.54 81.0874 170.397 81.0451C170.254 81.0028 170.117 80.9817 169.985 80.9817C169.778 80.9817 169.599 81.016 169.445 81.0848C169.292 81.1482 169.162 81.2408 169.057 81.3624C168.951 81.4841 168.869 81.6348 168.811 81.8146C168.758 81.9944 168.731 82.2033 168.731 82.4413C168.731 82.9014 168.84 83.2663 169.057 83.536C169.273 83.8004 169.583 83.9326 169.985 83.9326C170.117 83.9326 170.252 83.9115 170.389 83.8691C170.532 83.8268 170.675 83.7528 170.818 83.647C170.876 83.6047 170.931 83.5862 170.984 83.5915C171.037 83.5968 171.082 83.6179 171.119 83.655C171.156 83.6867 171.18 83.729 171.19 83.7819C171.206 83.8348 171.206 83.8877 171.19 83.9405C171.175 83.9881 171.14 84.0304 171.087 84.0675C170.918 84.205 170.733 84.3054 170.532 84.3689C170.331 84.4271 170.135 84.4562 169.945 84.4562ZM172.3 84.4244C172.194 84.4244 172.115 84.3953 172.062 84.3372C172.009 84.2737 171.983 84.1864 171.983 84.0754V80.8309C171.983 80.7199 172.009 80.6353 172.062 80.5771C172.115 80.5189 172.194 80.4898 172.3 80.4898C172.401 80.4898 172.48 80.5189 172.538 80.5771C172.596 80.6353 172.625 80.7199 172.625 80.8309V84.0754C172.625 84.1864 172.596 84.2737 172.538 84.3372C172.485 84.3953 172.406 84.4244 172.3 84.4244ZM172.3 79.6014C172.168 79.6014 172.065 79.567 171.991 79.4983C171.917 79.4242 171.88 79.3264 171.88 79.2047C171.88 79.0778 171.917 78.9826 171.991 78.9192C172.065 78.8504 172.168 78.816 172.3 78.816C172.438 78.816 172.541 78.8504 172.61 78.9192C172.684 78.9826 172.721 79.0778 172.721 79.2047C172.721 79.3264 172.684 79.4242 172.61 79.4983C172.541 79.567 172.438 79.6014 172.3 79.6014ZM175.429 84.4562C175.053 84.4562 174.728 84.3742 174.453 84.2102C174.178 84.0463 173.964 83.8163 173.811 83.5201C173.663 83.2187 173.589 82.8643 173.589 82.4571C173.589 82.1504 173.631 81.8754 173.716 81.6321C173.8 81.3836 173.924 81.172 174.088 80.9975C174.252 80.823 174.445 80.6908 174.667 80.6009C174.895 80.5057 175.149 80.4581 175.429 80.4581C175.804 80.4581 176.13 80.5401 176.405 80.704C176.68 80.868 176.891 81.1006 177.039 81.4021C177.193 81.6982 177.269 82.0499 177.269 82.4571C177.269 82.7639 177.227 83.0389 177.142 83.2821C177.058 83.5254 176.934 83.7369 176.77 83.9167C176.606 84.0913 176.41 84.2261 176.183 84.3213C175.96 84.4112 175.709 84.4562 175.429 84.4562ZM175.429 83.9405C175.667 83.9405 175.876 83.8824 176.056 83.766C176.235 83.6497 176.373 83.4804 176.468 83.2583C176.569 83.0362 176.619 82.7691 176.619 82.4571C176.619 81.9759 176.51 81.6083 176.294 81.3545C176.082 81.1006 175.794 80.9737 175.429 80.9737C175.186 80.9737 174.974 81.0319 174.794 81.1482C174.62 81.2593 174.482 81.4259 174.382 81.648C174.287 81.8648 174.239 82.1345 174.239 82.4571C174.239 82.9331 174.347 83.3006 174.564 83.5598C174.781 83.8136 175.069 83.9405 175.429 83.9405ZM175.691 79.9742C175.654 80.0271 175.609 80.0588 175.556 80.0694C175.503 80.0747 175.453 80.0668 175.405 80.0456C175.358 80.0192 175.323 79.9821 175.302 79.9345C175.281 79.887 175.286 79.8314 175.318 79.768L175.984 78.4749C176.021 78.4009 176.069 78.3533 176.127 78.3322C176.185 78.311 176.243 78.3084 176.302 78.3242C176.365 78.3348 176.418 78.3612 176.46 78.4035C176.503 78.4459 176.526 78.4961 176.532 78.5543C176.542 78.6124 176.526 78.6733 176.484 78.7367L175.691 79.9742ZM178.552 84.4403C178.446 84.4403 178.367 84.4112 178.314 84.353C178.261 84.2949 178.234 84.2129 178.234 84.1071V80.7992C178.234 80.6934 178.261 80.6141 178.314 80.5612C178.367 80.5031 178.443 80.474 178.544 80.474C178.644 80.474 178.721 80.5031 178.774 80.5612C178.832 80.6141 178.861 80.6934 178.861 80.7992V81.4814L178.774 81.3862C178.885 81.0795 179.065 80.8494 179.313 80.6961C179.567 80.5374 179.858 80.4581 180.186 80.4581C180.493 80.4581 180.746 80.5136 180.947 80.6247C181.154 80.7357 181.307 80.905 181.408 81.1324C181.508 81.3545 181.558 81.6374 181.558 81.9812V84.1071C181.558 84.2129 181.529 84.2949 181.471 84.353C181.418 84.4112 181.341 84.4403 181.241 84.4403C181.135 84.4403 181.053 84.4112 180.995 84.353C180.942 84.2949 180.916 84.2129 180.916 84.1071V82.0208C180.916 81.6612 180.844 81.3994 180.702 81.2355C180.564 81.0663 180.342 80.9817 180.035 80.9817C179.681 80.9817 179.398 81.0927 179.186 81.3148C178.98 81.5317 178.877 81.8225 178.877 82.1874V84.1071C178.877 84.3292 178.769 84.4403 178.552 84.4403Z" fill="#101E37"/>
<rect x="196.667" y="71.0962" width="64.9165" height="21.5769" rx="3.52562" fill="white"/>
<path d="M202.955 84.4403C202.854 84.4403 202.777 84.4139 202.725 84.361C202.672 84.3028 202.645 84.2208 202.645 84.1151V79.0699C202.645 78.9641 202.672 78.8821 202.725 78.824C202.777 78.7658 202.846 78.7367 202.931 78.7367C203.015 78.7367 203.076 78.7526 203.113 78.7843C203.156 78.8108 203.203 78.861 203.256 78.935L206.715 83.5439H206.524V79.054C206.524 78.9535 206.551 78.8769 206.604 78.824C206.656 78.7658 206.733 78.7367 206.834 78.7367C206.929 78.7367 207 78.7658 207.048 78.824C207.101 78.8769 207.127 78.9535 207.127 79.054V84.123C207.127 84.2235 207.103 84.3028 207.056 84.361C207.013 84.4139 206.95 84.4403 206.865 84.4403C206.786 84.4403 206.723 84.4244 206.675 84.3927C206.627 84.361 206.577 84.3107 206.524 84.242L203.074 79.6331H203.256V84.1151C203.256 84.2208 203.23 84.3028 203.177 84.361C203.124 84.4139 203.05 84.4403 202.955 84.4403ZM209.644 84.4562C209.379 84.4562 209.141 84.4059 208.93 84.3054C208.723 84.1997 208.56 84.0569 208.438 83.8771C208.316 83.6973 208.255 83.4963 208.255 83.2742C208.255 82.9886 208.327 82.7639 208.47 82.5999C208.618 82.436 208.858 82.3196 209.192 82.2509C209.53 82.1821 209.99 82.1478 210.572 82.1478H210.929V82.5682H210.58C210.151 82.5682 209.813 82.5893 209.564 82.6316C209.321 82.6687 209.149 82.7348 209.049 82.83C208.954 82.9252 208.906 83.06 208.906 83.2345C208.906 83.4514 208.98 83.6285 209.128 83.766C209.281 83.9035 209.488 83.9723 209.747 83.9723C209.958 83.9723 210.143 83.922 210.302 83.8215C210.466 83.7211 210.593 83.5836 210.683 83.409C210.778 83.2345 210.826 83.0336 210.826 82.8062V81.9018C210.826 81.574 210.76 81.3386 210.627 81.1958C210.495 81.0478 210.278 80.9737 209.977 80.9737C209.792 80.9737 209.607 80.9975 209.422 81.0451C209.236 81.0927 209.041 81.1694 208.835 81.2752C208.761 81.3122 208.697 81.3254 208.644 81.3148C208.591 81.299 208.549 81.2699 208.517 81.2276C208.486 81.1853 208.467 81.1377 208.462 81.0848C208.456 81.0266 208.467 80.9711 208.493 80.9182C208.525 80.8653 208.573 80.823 208.636 80.7913C208.869 80.6749 209.099 80.5903 209.326 80.5374C209.554 80.4845 209.771 80.4581 209.977 80.4581C210.31 80.4581 210.585 80.5136 210.802 80.6247C211.019 80.7305 211.18 80.8944 211.286 81.1165C211.392 81.3333 211.444 81.6136 211.444 81.9574V84.1071C211.444 84.2129 211.418 84.2949 211.365 84.353C211.317 84.4112 211.246 84.4403 211.151 84.4403C211.05 84.4403 210.974 84.4112 210.921 84.353C210.868 84.2949 210.842 84.2129 210.842 84.1071V83.4884H210.913C210.871 83.6893 210.789 83.8612 210.667 84.004C210.551 84.1468 210.405 84.2578 210.231 84.3372C210.056 84.4165 209.861 84.4562 209.644 84.4562ZM214.034 84.4403C213.944 84.4403 213.864 84.4165 213.796 84.3689C213.727 84.316 213.669 84.2367 213.621 84.1309L212.249 80.9261C212.212 80.8468 212.198 80.7728 212.209 80.704C212.22 80.6353 212.251 80.5797 212.304 80.5374C212.357 80.4951 212.431 80.474 212.526 80.474C212.611 80.474 212.677 80.4925 212.725 80.5295C212.772 80.5665 212.815 80.6326 212.852 80.7278L214.153 83.9088H213.938L215.263 80.7278C215.3 80.6326 215.342 80.5665 215.39 80.5295C215.438 80.4925 215.506 80.474 215.596 80.474C215.681 80.474 215.744 80.4951 215.787 80.5374C215.834 80.5797 215.861 80.6353 215.866 80.704C215.877 80.7675 215.866 80.8389 215.834 80.9182L214.446 84.1309C214.409 84.2367 214.353 84.316 214.279 84.3689C214.211 84.4165 214.129 84.4403 214.034 84.4403ZM218.363 84.4562C217.956 84.4562 217.604 84.3768 217.308 84.2182C217.017 84.0542 216.79 83.8242 216.626 83.528C216.467 83.2319 216.388 82.8776 216.388 82.4651C216.388 82.0631 216.467 81.7141 216.626 81.418C216.785 81.1165 217.001 80.8812 217.276 80.7119C217.557 80.5427 217.879 80.4581 218.244 80.4581C218.503 80.4581 218.736 80.5031 218.942 80.593C219.149 80.6776 219.323 80.8019 219.466 80.9658C219.614 81.1297 219.725 81.3281 219.799 81.5607C219.878 81.7934 219.918 82.0552 219.918 82.3461C219.918 82.4307 219.894 82.4942 219.847 82.5365C219.799 82.5735 219.73 82.592 219.64 82.592H216.88V82.1716H219.49L219.363 82.2747C219.363 81.9891 219.32 81.7485 219.236 81.5528C219.151 81.3518 219.027 81.1985 218.863 81.0927C218.704 80.9869 218.503 80.9341 218.26 80.9341C217.99 80.9341 217.76 80.9975 217.57 81.1244C217.385 81.2461 217.245 81.418 217.15 81.6401C217.054 81.8569 217.007 82.1107 217.007 82.4016V82.4492C217.007 82.9357 217.123 83.3059 217.356 83.5598C217.594 83.8136 217.93 83.9405 218.363 83.9405C218.543 83.9405 218.72 83.9167 218.895 83.8691C219.075 83.8215 219.249 83.7422 219.418 83.6312C219.492 83.5836 219.558 83.5624 219.617 83.5677C219.68 83.5677 219.73 83.5862 219.767 83.6232C219.804 83.655 219.828 83.6973 219.839 83.7502C219.855 83.7977 219.849 83.8506 219.823 83.9088C219.802 83.967 219.757 84.0172 219.688 84.0595C219.514 84.1864 219.307 84.2843 219.069 84.353C218.831 84.4218 218.596 84.4562 218.363 84.4562ZM222.554 85.884C222.273 85.884 221.998 85.8497 221.729 85.7809C221.464 85.7175 221.223 85.6143 221.007 85.4715C220.943 85.4345 220.901 85.3896 220.88 85.3367C220.864 85.2838 220.861 85.2309 220.872 85.178C220.882 85.1304 220.906 85.0855 220.943 85.0432C220.98 85.0062 221.023 84.9824 221.07 84.9718C221.123 84.9612 221.176 84.9691 221.229 84.9956C221.461 85.1384 221.684 85.2362 221.895 85.2891C222.107 85.342 222.316 85.3684 222.522 85.3684C222.897 85.3684 223.18 85.2679 223.371 85.067C223.566 84.866 223.664 84.5751 223.664 84.1944V83.298H223.743C223.664 83.6047 223.495 83.848 223.236 84.0278C222.982 84.2076 222.683 84.2975 222.339 84.2975C221.985 84.2975 221.678 84.2182 221.419 84.0595C221.16 83.8956 220.959 83.6682 220.816 83.3773C220.679 83.0865 220.61 82.7506 220.61 82.3699C220.61 82.0843 220.65 81.8252 220.729 81.5925C220.808 81.3545 220.922 81.1535 221.07 80.9896C221.223 80.8204 221.406 80.6908 221.617 80.6009C221.834 80.5057 222.075 80.4581 222.339 80.4581C222.688 80.4581 222.99 80.548 223.244 80.7278C223.497 80.9023 223.661 81.1403 223.735 81.4418L223.656 81.5369V80.7992C223.656 80.6934 223.683 80.6141 223.735 80.5612C223.794 80.5031 223.873 80.474 223.973 80.474C224.079 80.474 224.159 80.5031 224.211 80.5612C224.264 80.6141 224.291 80.6934 224.291 80.7992V84.1071C224.291 84.6941 224.143 85.1357 223.847 85.4319C223.556 85.7333 223.125 85.884 222.554 85.884ZM222.458 83.774C222.707 83.774 222.921 83.7184 223.101 83.6074C223.281 83.491 223.418 83.3271 223.513 83.1155C223.614 82.904 223.664 82.6554 223.664 82.3699C223.664 81.9415 223.556 81.603 223.339 81.3545C223.122 81.1006 222.829 80.9737 222.458 80.9737C222.215 80.9737 222.004 81.0319 221.824 81.1482C221.644 81.2593 221.504 81.4206 221.403 81.6321C221.308 81.8384 221.26 82.0843 221.26 82.3699C221.26 82.7982 221.369 83.1393 221.586 83.3932C221.803 83.647 222.093 83.774 222.458 83.774ZM226.71 84.4562C226.445 84.4562 226.207 84.4059 225.996 84.3054C225.79 84.1997 225.626 84.0569 225.504 83.8771C225.382 83.6973 225.322 83.4963 225.322 83.2742C225.322 82.9886 225.393 82.7639 225.536 82.5999C225.684 82.436 225.924 82.3196 226.258 82.2509C226.596 82.1821 227.056 82.1478 227.638 82.1478H227.995V82.5682H227.646C227.217 82.5682 226.879 82.5893 226.63 82.6316C226.387 82.6687 226.215 82.7348 226.115 82.83C226.02 82.9252 225.972 83.06 225.972 83.2345C225.972 83.4514 226.046 83.6285 226.194 83.766C226.347 83.9035 226.554 83.9723 226.813 83.9723C227.024 83.9723 227.209 83.922 227.368 83.8215C227.532 83.7211 227.659 83.5836 227.749 83.409C227.844 83.2345 227.892 83.0336 227.892 82.8062V81.9018C227.892 81.574 227.826 81.3386 227.693 81.1958C227.561 81.0478 227.344 80.9737 227.043 80.9737C226.858 80.9737 226.673 80.9975 226.488 81.0451C226.303 81.0927 226.107 81.1694 225.901 81.2752C225.827 81.3122 225.763 81.3254 225.71 81.3148C225.657 81.299 225.615 81.2699 225.583 81.2276C225.552 81.1853 225.533 81.1377 225.528 81.0848C225.522 81.0266 225.533 80.9711 225.559 80.9182C225.591 80.8653 225.639 80.823 225.702 80.7913C225.935 80.6749 226.165 80.5903 226.392 80.5374C226.62 80.4845 226.837 80.4581 227.043 80.4581C227.376 80.4581 227.651 80.5136 227.868 80.6247C228.085 80.7305 228.246 80.8944 228.352 81.1165C228.458 81.3333 228.51 81.6136 228.51 81.9574V84.1071C228.51 84.2129 228.484 84.2949 228.431 84.353C228.384 84.4112 228.312 84.4403 228.217 84.4403C228.116 84.4403 228.04 84.4112 227.987 84.353C227.934 84.2949 227.908 84.2129 227.908 84.1071V83.4884H227.979C227.937 83.6893 227.855 83.8612 227.733 84.004C227.617 84.1468 227.471 84.2578 227.297 84.3372C227.122 84.4165 226.927 84.4562 226.71 84.4562ZM231.337 84.4562C230.951 84.4562 230.617 84.3715 230.337 84.2023C230.057 84.0331 229.84 83.7977 229.687 83.4963C229.539 83.1896 229.465 82.8353 229.465 82.4333C229.465 82.1266 229.507 81.8516 229.591 81.6083C229.676 81.3651 229.8 81.1588 229.964 80.9896C230.128 80.8151 230.324 80.6829 230.551 80.593C230.784 80.5031 231.046 80.4581 231.337 80.4581C231.527 80.4581 231.725 80.4872 231.932 80.5454C232.138 80.6035 232.326 80.704 232.495 80.8468C232.548 80.8838 232.582 80.9288 232.598 80.9817C232.614 81.0345 232.614 81.0874 232.598 81.1403C232.582 81.1879 232.556 81.2302 232.519 81.2672C232.482 81.299 232.434 81.3175 232.376 81.3228C232.323 81.3281 232.267 81.3095 232.209 81.2672C232.072 81.1615 231.932 81.0874 231.789 81.0451C231.646 81.0028 231.508 80.9817 231.376 80.9817C231.17 80.9817 230.99 81.016 230.837 81.0848C230.684 81.1482 230.554 81.2408 230.448 81.3624C230.342 81.4841 230.26 81.6348 230.202 81.8146C230.149 81.9944 230.123 82.2033 230.123 82.4413C230.123 82.9014 230.231 83.2663 230.448 83.536C230.665 83.8004 230.974 83.9326 231.376 83.9326C231.508 83.9326 231.643 83.9115 231.781 83.8691C231.924 83.8268 232.066 83.7528 232.209 83.647C232.267 83.6047 232.323 83.5862 232.376 83.5915C232.429 83.5968 232.474 83.6179 232.511 83.655C232.548 83.6867 232.571 83.729 232.582 83.7819C232.598 83.8348 232.598 83.8877 232.582 83.9405C232.566 83.9881 232.532 84.0304 232.479 84.0675C232.31 84.205 232.125 84.3054 231.924 84.3689C231.723 84.4271 231.527 84.4562 231.337 84.4562ZM233.692 84.4244C233.586 84.4244 233.507 84.3953 233.454 84.3372C233.401 84.2737 233.374 84.1864 233.374 84.0754V80.8309C233.374 80.7199 233.401 80.6353 233.454 80.5771C233.507 80.5189 233.586 80.4898 233.692 80.4898C233.792 80.4898 233.872 80.5189 233.93 80.5771C233.988 80.6353 234.017 80.7199 234.017 80.8309V84.0754C234.017 84.1864 233.988 84.2737 233.93 84.3372C233.877 84.3953 233.798 84.4244 233.692 84.4244ZM233.692 79.6014C233.56 79.6014 233.456 79.567 233.382 79.4983C233.308 79.4242 233.271 79.3264 233.271 79.2047C233.271 79.0778 233.308 78.9826 233.382 78.9192C233.456 78.8504 233.56 78.816 233.692 78.816C233.829 78.816 233.932 78.8504 234.001 78.9192C234.075 78.9826 234.112 79.0778 234.112 79.2047C234.112 79.3264 234.075 79.4242 234.001 79.4983C233.932 79.567 233.829 79.6014 233.692 79.6014ZM236.821 84.4562C236.445 84.4562 236.12 84.3742 235.845 84.2102C235.57 84.0463 235.356 83.8163 235.202 83.5201C235.054 83.2187 234.98 82.8643 234.98 82.4571C234.98 82.1504 235.022 81.8754 235.107 81.6321C235.192 81.3836 235.316 81.172 235.48 80.9975C235.644 80.823 235.837 80.6908 236.059 80.6009C236.286 80.5057 236.54 80.4581 236.821 80.4581C237.196 80.4581 237.521 80.5401 237.796 80.704C238.071 80.868 238.283 81.1006 238.431 81.4021C238.584 81.6982 238.661 82.0499 238.661 82.4571C238.661 82.7639 238.619 83.0389 238.534 83.2821C238.449 83.5254 238.325 83.7369 238.161 83.9167C237.997 84.0913 237.802 84.2261 237.574 84.3213C237.352 84.4112 237.101 84.4562 236.821 84.4562ZM236.821 83.9405C237.059 83.9405 237.267 83.8824 237.447 83.766C237.627 83.6497 237.765 83.4804 237.86 83.2583C237.96 83.0362 238.01 82.7691 238.01 82.4571C238.01 81.9759 237.902 81.6083 237.685 81.3545C237.474 81.1006 237.185 80.9737 236.821 80.9737C236.577 80.9737 236.366 81.0319 236.186 81.1482C236.011 81.2593 235.874 81.4259 235.773 81.648C235.678 81.8648 235.631 82.1345 235.631 82.4571C235.631 82.9331 235.739 83.3006 235.956 83.5598C236.173 83.8136 236.461 83.9405 236.821 83.9405ZM237.082 79.9742C237.045 80.0271 237 80.0588 236.947 80.0694C236.895 80.0747 236.844 80.0668 236.797 80.0456C236.749 80.0192 236.715 79.9821 236.694 79.9345C236.672 79.887 236.678 79.8314 236.71 79.768L237.376 78.4749C237.413 78.4009 237.46 78.3533 237.519 78.3322C237.577 78.311 237.635 78.3084 237.693 78.3242C237.757 78.3348 237.81 78.3612 237.852 78.4035C237.894 78.4459 237.918 78.4961 237.923 78.5543C237.934 78.6124 237.918 78.6733 237.876 78.7367L237.082 79.9742ZM239.943 84.4403C239.838 84.4403 239.758 84.4112 239.705 84.353C239.653 84.2949 239.626 84.2129 239.626 84.1071V80.7992C239.626 80.6934 239.653 80.6141 239.705 80.5612C239.758 80.5031 239.835 80.474 239.935 80.474C240.036 80.474 240.113 80.5031 240.165 80.5612C240.224 80.6141 240.253 80.6934 240.253 80.7992V81.4814L240.165 81.3862C240.277 81.0795 240.456 80.8494 240.705 80.6961C240.959 80.5374 241.25 80.4581 241.577 80.4581C241.884 80.4581 242.138 80.5136 242.339 80.6247C242.545 80.7357 242.699 80.905 242.799 81.1324C242.9 81.3545 242.95 81.6374 242.95 81.9812V84.1071C242.95 84.2129 242.921 84.2949 242.863 84.353C242.81 84.4112 242.733 84.4403 242.633 84.4403C242.527 84.4403 242.445 84.4112 242.387 84.353C242.334 84.2949 242.307 84.2129 242.307 84.1071V82.0208C242.307 81.6612 242.236 81.3994 242.093 81.2355C241.956 81.0663 241.734 80.9817 241.427 80.9817C241.072 80.9817 240.79 81.0927 240.578 81.3148C240.372 81.5317 240.269 81.8225 240.269 82.1874V84.1071C240.269 84.3292 240.16 84.4403 239.943 84.4403Z" fill="#101E37"/>
<path d="M252.713 80.5625L251.003 82.2724L249.293 80.5625C249.121 80.3906 248.844 80.3906 248.672 80.5625C248.5 80.7344 248.5 81.012 248.672 81.1839L250.695 83.2067C250.867 83.3786 251.144 83.3786 251.316 83.2067L253.339 81.1839C253.511 81.012 253.511 80.7344 253.339 80.5625C253.167 80.395 252.885 80.3906 252.713 80.5625Z" fill="#101E37"/>
<rect x="270.396" y="71.0962" width="52.5769" height="21.5769" rx="3.52562" fill="white"/>
<path d="M276.684 84.4403C276.584 84.4403 276.507 84.4139 276.454 84.361C276.401 84.3028 276.375 84.2208 276.375 84.1151V79.0699C276.375 78.9641 276.401 78.8821 276.454 78.824C276.507 78.7658 276.576 78.7367 276.66 78.7367C276.745 78.7367 276.806 78.7526 276.843 78.7843C276.885 78.8108 276.933 78.861 276.986 78.935L280.444 83.5439H280.254V79.054C280.254 78.9535 280.28 78.8769 280.333 78.824C280.386 78.7658 280.463 78.7367 280.563 78.7367C280.658 78.7367 280.73 78.7658 280.777 78.824C280.83 78.8769 280.857 78.9535 280.857 79.054V84.123C280.857 84.2235 280.833 84.3028 280.785 84.361C280.743 84.4139 280.679 84.4403 280.595 84.4403C280.516 84.4403 280.452 84.4244 280.404 84.3927C280.357 84.361 280.307 84.3107 280.254 84.242L276.803 79.6331H276.986V84.1151C276.986 84.2208 276.959 84.3028 276.906 84.361C276.853 84.4139 276.779 84.4403 276.684 84.4403ZM283.373 84.4562C283.109 84.4562 282.871 84.4059 282.659 84.3054C282.453 84.1997 282.289 84.0569 282.167 83.8771C282.046 83.6973 281.985 83.4963 281.985 83.2742C281.985 82.9886 282.056 82.7639 282.199 82.5999C282.347 82.436 282.588 82.3196 282.921 82.2509C283.259 82.1821 283.72 82.1478 284.301 82.1478H284.658V82.5682H284.309C283.881 82.5682 283.542 82.5893 283.294 82.6316C283.051 82.6687 282.879 82.7348 282.778 82.83C282.683 82.9252 282.635 83.06 282.635 83.2345C282.635 83.4514 282.709 83.6285 282.858 83.766C283.011 83.9035 283.217 83.9723 283.476 83.9723C283.688 83.9723 283.873 83.922 284.032 83.8215C284.196 83.7211 284.322 83.5836 284.412 83.409C284.508 83.2345 284.555 83.0336 284.555 82.8062V81.9018C284.555 81.574 284.489 81.3386 284.357 81.1958C284.225 81.0478 284.008 80.9737 283.706 80.9737C283.521 80.9737 283.336 80.9975 283.151 81.0451C282.966 81.0927 282.77 81.1694 282.564 81.2752C282.49 81.3122 282.427 81.3254 282.374 81.3148C282.321 81.299 282.278 81.2699 282.247 81.2276C282.215 81.1853 282.196 81.1377 282.191 81.0848C282.186 81.0266 282.196 80.9711 282.223 80.9182C282.255 80.8653 282.302 80.823 282.366 80.7913C282.598 80.6749 282.828 80.5903 283.056 80.5374C283.283 80.4845 283.5 80.4581 283.706 80.4581C284.04 80.4581 284.315 80.5136 284.531 80.6247C284.748 80.7305 284.909 80.8944 285.015 81.1165C285.121 81.3333 285.174 81.6136 285.174 81.9574V84.1071C285.174 84.2129 285.147 84.2949 285.095 84.353C285.047 84.4112 284.976 84.4403 284.88 84.4403C284.78 84.4403 284.703 84.4112 284.65 84.353C284.597 84.2949 284.571 84.2129 284.571 84.1071V83.4884H284.642C284.6 83.6893 284.518 83.8612 284.396 84.004C284.28 84.1468 284.135 84.2578 283.96 84.3372C283.786 84.4165 283.59 84.4562 283.373 84.4562ZM287.763 84.4403C287.673 84.4403 287.594 84.4165 287.525 84.3689C287.456 84.316 287.398 84.2367 287.351 84.1309L285.978 80.9261C285.941 80.8468 285.928 80.7728 285.939 80.704C285.949 80.6353 285.981 80.5797 286.034 80.5374C286.087 80.4951 286.161 80.474 286.256 80.474C286.34 80.474 286.407 80.4925 286.454 80.5295C286.502 80.5665 286.544 80.6326 286.581 80.7278L287.882 83.9088H287.668L288.993 80.7278C289.03 80.6326 289.072 80.5665 289.12 80.5295C289.167 80.4925 289.236 80.474 289.326 80.474C289.41 80.474 289.474 80.4951 289.516 80.5374C289.564 80.5797 289.59 80.6353 289.595 80.704C289.606 80.7675 289.595 80.8389 289.564 80.9182L288.176 84.1309C288.139 84.2367 288.083 84.316 288.009 84.3689C287.94 84.4165 287.858 84.4403 287.763 84.4403ZM292.093 84.4562C291.686 84.4562 291.334 84.3768 291.038 84.2182C290.747 84.0542 290.519 83.8242 290.356 83.528C290.197 83.2319 290.118 82.8776 290.118 82.4651C290.118 82.0631 290.197 81.7141 290.356 81.418C290.514 81.1165 290.731 80.8812 291.006 80.7119C291.286 80.5427 291.609 80.4581 291.974 80.4581C292.233 80.4581 292.466 80.5031 292.672 80.593C292.878 80.6776 293.053 80.8019 293.195 80.9658C293.343 81.1297 293.455 81.3281 293.529 81.5607C293.608 81.7934 293.648 82.0552 293.648 82.3461C293.648 82.4307 293.624 82.4942 293.576 82.5365C293.529 82.5735 293.46 82.592 293.37 82.592H290.609V82.1716H293.219L293.092 82.2747C293.092 81.9891 293.05 81.7485 292.965 81.5528C292.881 81.3518 292.756 81.1985 292.593 81.0927C292.434 80.9869 292.233 80.9341 291.99 80.9341C291.72 80.9341 291.49 80.9975 291.299 81.1244C291.114 81.2461 290.974 81.418 290.879 81.6401C290.784 81.8569 290.736 82.1107 290.736 82.4016V82.4492C290.736 82.9357 290.853 83.3059 291.085 83.5598C291.323 83.8136 291.659 83.9405 292.093 83.9405C292.273 83.9405 292.45 83.9167 292.624 83.8691C292.804 83.8215 292.979 83.7422 293.148 83.6312C293.222 83.5836 293.288 83.5624 293.346 83.5677C293.41 83.5677 293.46 83.5862 293.497 83.6232C293.534 83.655 293.558 83.6973 293.568 83.7502C293.584 83.7977 293.579 83.8506 293.552 83.9088C293.531 83.967 293.486 84.0172 293.418 84.0595C293.243 84.1864 293.037 84.2843 292.799 84.353C292.561 84.4218 292.325 84.4562 292.093 84.4562ZM296.283 85.884C296.003 85.884 295.728 85.8497 295.458 85.7809C295.194 85.7175 294.953 85.6143 294.736 85.4715C294.673 85.4345 294.63 85.3896 294.609 85.3367C294.593 85.2838 294.591 85.2309 294.601 85.178C294.612 85.1304 294.636 85.0855 294.673 85.0432C294.71 85.0062 294.752 84.9824 294.8 84.9718C294.852 84.9612 294.905 84.9691 294.958 84.9956C295.191 85.1384 295.413 85.2362 295.625 85.2891C295.836 85.342 296.045 85.3684 296.251 85.3684C296.627 85.3684 296.91 85.2679 297.1 85.067C297.296 84.866 297.394 84.5751 297.394 84.1944V83.298H297.473C297.394 83.6047 297.224 83.848 296.965 84.0278C296.711 84.2076 296.413 84.2975 296.069 84.2975C295.714 84.2975 295.408 84.2182 295.149 84.0595C294.889 83.8956 294.689 83.6682 294.546 83.3773C294.408 83.0865 294.339 82.7506 294.339 82.3699C294.339 82.0843 294.379 81.8252 294.458 81.5925C294.538 81.3545 294.652 81.1535 294.8 80.9896C294.953 80.8204 295.135 80.6908 295.347 80.6009C295.564 80.5057 295.804 80.4581 296.069 80.4581C296.418 80.4581 296.719 80.548 296.973 80.7278C297.227 80.9023 297.391 81.1403 297.465 81.4418L297.386 81.5369V80.7992C297.386 80.6934 297.412 80.6141 297.465 80.5612C297.523 80.5031 297.602 80.474 297.703 80.474C297.809 80.474 297.888 80.5031 297.941 80.5612C297.994 80.6141 298.02 80.6934 298.02 80.7992V84.1071C298.02 84.6941 297.872 85.1357 297.576 85.4319C297.285 85.7333 296.854 85.884 296.283 85.884ZM296.188 83.774C296.436 83.774 296.651 83.7184 296.83 83.6074C297.01 83.491 297.148 83.3271 297.243 83.1155C297.343 82.904 297.394 82.6554 297.394 82.3699C297.394 81.9415 297.285 81.603 297.068 81.3545C296.852 81.1006 296.558 80.9737 296.188 80.9737C295.945 80.9737 295.733 81.0319 295.553 81.1482C295.373 81.2593 295.233 81.4206 295.133 81.6321C295.038 81.8384 294.99 82.0843 294.99 82.3699C294.99 82.7982 295.098 83.1393 295.315 83.3932C295.532 83.647 295.823 83.774 296.188 83.774ZM300.439 84.4562C300.175 84.4562 299.937 84.4059 299.725 84.3054C299.519 84.1997 299.355 84.0569 299.233 83.8771C299.112 83.6973 299.051 83.4963 299.051 83.2742C299.051 82.9886 299.122 82.7639 299.265 82.5999C299.413 82.436 299.654 82.3196 299.987 82.2509C300.326 82.1821 300.786 82.1478 301.367 82.1478H301.724V82.5682H301.375C300.947 82.5682 300.608 82.5893 300.36 82.6316C300.117 82.6687 299.945 82.7348 299.844 82.83C299.749 82.9252 299.701 83.06 299.701 83.2345C299.701 83.4514 299.776 83.6285 299.924 83.766C300.077 83.9035 300.283 83.9723 300.542 83.9723C300.754 83.9723 300.939 83.922 301.098 83.8215C301.262 83.7211 301.388 83.5836 301.478 83.409C301.574 83.2345 301.621 83.0336 301.621 82.8062V81.9018C301.621 81.574 301.555 81.3386 301.423 81.1958C301.291 81.0478 301.074 80.9737 300.772 80.9737C300.587 80.9737 300.402 80.9975 300.217 81.0451C300.032 81.0927 299.836 81.1694 299.63 81.2752C299.556 81.3122 299.493 81.3254 299.44 81.3148C299.387 81.299 299.345 81.2699 299.313 81.2276C299.281 81.1853 299.263 81.1377 299.257 81.0848C299.252 81.0266 299.263 80.9711 299.289 80.9182C299.321 80.8653 299.368 80.823 299.432 80.7913C299.664 80.6749 299.895 80.5903 300.122 80.5374C300.349 80.4845 300.566 80.4581 300.772 80.4581C301.106 80.4581 301.381 80.5136 301.597 80.6247C301.814 80.7305 301.976 80.8944 302.081 81.1165C302.187 81.3333 302.24 81.6136 302.24 81.9574V84.1071C302.24 84.2129 302.213 84.2949 302.161 84.353C302.113 84.4112 302.042 84.4403 301.946 84.4403C301.846 84.4403 301.769 84.4112 301.716 84.353C301.663 84.2949 301.637 84.2129 301.637 84.1071V83.4884H301.708C301.666 83.6893 301.584 83.8612 301.463 84.004C301.346 84.1468 301.201 84.2578 301.026 84.3372C300.852 84.4165 300.656 84.4562 300.439 84.4562ZM305.066 84.4562C304.68 84.4562 304.347 84.3715 304.067 84.2023C303.786 84.0331 303.569 83.7977 303.416 83.4963C303.268 83.1896 303.194 82.8353 303.194 82.4333C303.194 82.1266 303.236 81.8516 303.321 81.6083C303.406 81.3651 303.53 81.1588 303.694 80.9896C303.858 80.8151 304.053 80.6829 304.281 80.593C304.513 80.5031 304.775 80.4581 305.066 80.4581C305.257 80.4581 305.455 80.4872 305.661 80.5454C305.867 80.6035 306.055 80.704 306.224 80.8468C306.277 80.8838 306.312 80.9288 306.327 80.9817C306.343 81.0345 306.343 81.0874 306.327 81.1403C306.312 81.1879 306.285 81.2302 306.248 81.2672C306.211 81.299 306.163 81.3175 306.105 81.3228C306.052 81.3281 305.997 81.3095 305.939 81.2672C305.801 81.1615 305.661 81.0874 305.518 81.0451C305.375 81.0028 305.238 80.9817 305.106 80.9817C304.9 80.9817 304.72 81.016 304.566 81.0848C304.413 81.1482 304.283 81.2408 304.178 81.3624C304.072 81.4841 303.99 81.6348 303.932 81.8146C303.879 81.9944 303.852 82.2033 303.852 82.4413C303.852 82.9014 303.961 83.2663 304.178 83.536C304.394 83.8004 304.704 83.9326 305.106 83.9326C305.238 83.9326 305.373 83.9115 305.51 83.8691C305.653 83.8268 305.796 83.7528 305.939 83.647C305.997 83.6047 306.052 83.5862 306.105 83.5915C306.158 83.5968 306.203 83.6179 306.24 83.655C306.277 83.6867 306.301 83.729 306.312 83.7819C306.327 83.8348 306.327 83.8877 306.312 83.9405C306.296 83.9881 306.261 84.0304 306.208 84.0675C306.039 84.205 305.854 84.3054 305.653 84.3689C305.452 84.4271 305.257 84.4562 305.066 84.4562ZM307.421 84.4244C307.315 84.4244 307.236 84.3953 307.183 84.3372C307.13 84.2737 307.104 84.1864 307.104 84.0754V80.8309C307.104 80.7199 307.13 80.6353 307.183 80.5771C307.236 80.5189 307.315 80.4898 307.421 80.4898C307.522 80.4898 307.601 80.5189 307.659 80.5771C307.717 80.6353 307.746 80.7199 307.746 80.8309V84.0754C307.746 84.1864 307.717 84.2737 307.659 84.3372C307.606 84.3953 307.527 84.4244 307.421 84.4244ZM307.421 79.6014C307.289 79.6014 307.186 79.567 307.112 79.4983C307.038 79.4242 307.001 79.3264 307.001 79.2047C307.001 79.0778 307.038 78.9826 307.112 78.9192C307.186 78.8504 307.289 78.816 307.421 78.816C307.559 78.816 307.662 78.8504 307.731 78.9192C307.805 78.9826 307.842 79.0778 307.842 79.2047C307.842 79.3264 307.805 79.4242 307.731 79.4983C307.662 79.567 307.559 79.6014 307.421 79.6014ZM310.55 84.4562C310.175 84.4562 309.849 84.3742 309.574 84.2102C309.299 84.0463 309.085 83.8163 308.932 83.5201C308.784 83.2187 308.71 82.8643 308.71 82.4571C308.71 82.1504 308.752 81.8754 308.837 81.6321C308.921 81.3836 309.045 81.172 309.209 80.9975C309.373 80.823 309.566 80.6908 309.789 80.6009C310.016 80.5057 310.27 80.4581 310.55 80.4581C310.926 80.4581 311.251 80.5401 311.526 80.704C311.801 80.868 312.012 81.1006 312.16 81.4021C312.314 81.6982 312.39 82.0499 312.39 82.4571C312.39 82.7639 312.348 83.0389 312.264 83.2821C312.179 83.5254 312.055 83.7369 311.891 83.9167C311.727 84.0913 311.531 84.2261 311.304 84.3213C311.082 84.4112 310.83 84.4562 310.55 84.4562ZM310.55 83.9405C310.788 83.9405 310.997 83.8824 311.177 83.766C311.357 83.6497 311.494 83.4804 311.589 83.2583C311.69 83.0362 311.74 82.7691 311.74 82.4571C311.74 81.9759 311.632 81.6083 311.415 81.3545C311.203 81.1006 310.915 80.9737 310.55 80.9737C310.307 80.9737 310.095 81.0319 309.915 81.1482C309.741 81.2593 309.603 81.4259 309.503 81.648C309.408 81.8648 309.36 82.1345 309.36 82.4571C309.36 82.9331 309.469 83.3006 309.685 83.5598C309.902 83.8136 310.19 83.9405 310.55 83.9405ZM310.812 79.9742C310.775 80.0271 310.73 80.0588 310.677 80.0694C310.624 80.0747 310.574 80.0668 310.526 80.0456C310.479 80.0192 310.444 79.9821 310.423 79.9345C310.402 79.887 310.407 79.8314 310.439 79.768L311.105 78.4749C311.142 78.4009 311.19 78.3533 311.248 78.3322C311.306 78.311 311.364 78.3084 311.423 78.3242C311.486 78.3348 311.539 78.3612 311.581 78.4035C311.624 78.4459 311.647 78.4961 311.653 78.5543C311.663 78.6124 311.647 78.6733 311.605 78.7367L310.812 79.9742ZM313.673 84.4403C313.567 84.4403 313.488 84.4112 313.435 84.353C313.382 84.2949 313.356 84.2129 313.356 84.1071V80.7992C313.356 80.6934 313.382 80.6141 313.435 80.5612C313.488 80.5031 313.564 80.474 313.665 80.474C313.765 80.474 313.842 80.5031 313.895 80.5612C313.953 80.6141 313.982 80.6934 313.982 80.7992V81.4814L313.895 81.3862C314.006 81.0795 314.186 80.8494 314.434 80.6961C314.688 80.5374 314.979 80.4581 315.307 80.4581C315.614 80.4581 315.868 80.5136 316.069 80.6247C316.275 80.7357 316.428 80.905 316.529 81.1324C316.629 81.3545 316.679 81.6374 316.679 81.9812V84.1071C316.679 84.2129 316.65 84.2949 316.592 84.353C316.539 84.4112 316.463 84.4403 316.362 84.4403C316.256 84.4403 316.174 84.4112 316.116 84.353C316.063 84.2949 316.037 84.2129 316.037 84.1071V82.0208C316.037 81.6612 315.965 81.3994 315.823 81.2355C315.685 81.0663 315.463 80.9817 315.156 80.9817C314.802 80.9817 314.519 81.0927 314.307 81.3148C314.101 81.5317 313.998 81.8225 313.998 82.1874V84.1071C313.998 84.3292 313.89 84.4403 313.673 84.4403Z" fill="#101E37"/>
<rect x="331.788" y="71.0962" width="64.9165" height="21.5769" rx="3.52562" fill="white"/>
<path d="M338.076 84.4403C337.975 84.4403 337.899 84.4139 337.846 84.361C337.793 84.3028 337.766 84.2208 337.766 84.1151V79.0699C337.766 78.9641 337.793 78.8821 337.846 78.824C337.899 78.7658 337.967 78.7367 338.052 78.7367C338.137 78.7367 338.197 78.7526 338.234 78.7843C338.277 78.8108 338.324 78.861 338.377 78.935L341.836 83.5439H341.645V79.054C341.645 78.9535 341.672 78.8769 341.725 78.824C341.778 78.7658 341.854 78.7367 341.955 78.7367C342.05 78.7367 342.121 78.7658 342.169 78.824C342.222 78.8769 342.248 78.9535 342.248 79.054V84.123C342.248 84.2235 342.224 84.3028 342.177 84.361C342.135 84.4139 342.071 84.4403 341.986 84.4403C341.907 84.4403 341.844 84.4244 341.796 84.3927C341.749 84.361 341.698 84.3107 341.645 84.242L338.195 79.6331H338.377V84.1151C338.377 84.2208 338.351 84.3028 338.298 84.361C338.245 84.4139 338.171 84.4403 338.076 84.4403ZM344.765 84.4562C344.5 84.4562 344.262 84.4059 344.051 84.3054C343.845 84.1997 343.681 84.0569 343.559 83.8771C343.437 83.6973 343.377 83.4963 343.377 83.2742C343.377 82.9886 343.448 82.7639 343.591 82.5999C343.739 82.436 343.979 82.3196 344.313 82.2509C344.651 82.1821 345.111 82.1478 345.693 82.1478H346.05V82.5682H345.701C345.272 82.5682 344.934 82.5893 344.685 82.6316C344.442 82.6687 344.27 82.7348 344.17 82.83C344.075 82.9252 344.027 83.06 344.027 83.2345C344.027 83.4514 344.101 83.6285 344.249 83.766C344.403 83.9035 344.609 83.9723 344.868 83.9723C345.079 83.9723 345.265 83.922 345.423 83.8215C345.587 83.7211 345.714 83.5836 345.804 83.409C345.899 83.2345 345.947 83.0336 345.947 82.8062V81.9018C345.947 81.574 345.881 81.3386 345.748 81.1958C345.616 81.0478 345.399 80.9737 345.098 80.9737C344.913 80.9737 344.728 80.9975 344.543 81.0451C344.358 81.0927 344.162 81.1694 343.956 81.2752C343.882 81.3122 343.818 81.3254 343.765 81.3148C343.712 81.299 343.67 81.2699 343.638 81.2276C343.607 81.1853 343.588 81.1377 343.583 81.0848C343.578 81.0266 343.588 80.9711 343.615 80.9182C343.646 80.8653 343.694 80.823 343.757 80.7913C343.99 80.6749 344.22 80.5903 344.447 80.5374C344.675 80.4845 344.892 80.4581 345.098 80.4581C345.431 80.4581 345.706 80.5136 345.923 80.6247C346.14 80.7305 346.301 80.8944 346.407 81.1165C346.513 81.3333 346.565 81.6136 346.565 81.9574V84.1071C346.565 84.2129 346.539 84.2949 346.486 84.353C346.439 84.4112 346.367 84.4403 346.272 84.4403C346.171 84.4403 346.095 84.4112 346.042 84.353C345.989 84.2949 345.963 84.2129 345.963 84.1071V83.4884H346.034C345.992 83.6893 345.91 83.8612 345.788 84.004C345.672 84.1468 345.526 84.2578 345.352 84.3372C345.177 84.4165 344.982 84.4562 344.765 84.4562ZM349.155 84.4403C349.065 84.4403 348.985 84.4165 348.917 84.3689C348.848 84.316 348.79 84.2367 348.742 84.1309L347.37 80.9261C347.333 80.8468 347.32 80.7728 347.33 80.704C347.341 80.6353 347.372 80.5797 347.425 80.5374C347.478 80.4951 347.552 80.474 347.647 80.474C347.732 80.474 347.798 80.4925 347.846 80.5295C347.893 80.5665 347.936 80.6326 347.973 80.7278L349.274 83.9088H349.059L350.384 80.7278C350.421 80.6326 350.464 80.5665 350.511 80.5295C350.559 80.4925 350.627 80.474 350.717 80.474C350.802 80.474 350.865 80.4951 350.908 80.5374C350.955 80.5797 350.982 80.6353 350.987 80.704C350.998 80.7675 350.987 80.8389 350.955 80.9182L349.567 84.1309C349.53 84.2367 349.475 84.316 349.401 84.3689C349.332 84.4165 349.25 84.4403 349.155 84.4403ZM353.484 84.4562C353.077 84.4562 352.725 84.3768 352.429 84.2182C352.138 84.0542 351.911 83.8242 351.747 83.528C351.588 83.2319 351.509 82.8776 351.509 82.4651C351.509 82.0631 351.588 81.7141 351.747 81.418C351.906 81.1165 352.123 80.8812 352.398 80.7119C352.678 80.5427 353 80.4581 353.365 80.4581C353.625 80.4581 353.857 80.5031 354.063 80.593C354.27 80.6776 354.444 80.8019 354.587 80.9658C354.735 81.1297 354.846 81.3281 354.92 81.5607C355 81.7934 355.039 82.0552 355.039 82.3461C355.039 82.4307 355.015 82.4942 354.968 82.5365C354.92 82.5735 354.851 82.592 354.762 82.592H352.001V82.1716H354.611L354.484 82.2747C354.484 81.9891 354.442 81.7485 354.357 81.5528C354.272 81.3518 354.148 81.1985 353.984 81.0927C353.825 80.9869 353.625 80.9341 353.381 80.9341C353.112 80.9341 352.881 80.9975 352.691 81.1244C352.506 81.2461 352.366 81.418 352.271 81.6401C352.175 81.8569 352.128 82.1107 352.128 82.4016V82.4492C352.128 82.9357 352.244 83.3059 352.477 83.5598C352.715 83.8136 353.051 83.9405 353.484 83.9405C353.664 83.9405 353.841 83.9167 354.016 83.8691C354.196 83.8215 354.37 83.7422 354.539 83.6312C354.613 83.5836 354.68 83.5624 354.738 83.5677C354.801 83.5677 354.851 83.5862 354.888 83.6232C354.925 83.655 354.949 83.6973 354.96 83.7502C354.976 83.7977 354.97 83.8506 354.944 83.9088C354.923 83.967 354.878 84.0172 354.809 84.0595C354.635 84.1864 354.428 84.2843 354.19 84.353C353.952 84.4218 353.717 84.4562 353.484 84.4562ZM357.675 85.884C357.394 85.884 357.119 85.8497 356.85 85.7809C356.585 85.7175 356.345 85.6143 356.128 85.4715C356.064 85.4345 356.022 85.3896 356.001 85.3367C355.985 85.2838 355.982 85.2309 355.993 85.178C356.003 85.1304 356.027 85.0855 356.064 85.0432C356.101 85.0062 356.144 84.9824 356.191 84.9718C356.244 84.9612 356.297 84.9691 356.35 84.9956C356.583 85.1384 356.805 85.2362 357.016 85.2891C357.228 85.342 357.437 85.3684 357.643 85.3684C358.018 85.3684 358.301 85.2679 358.492 85.067C358.687 84.866 358.785 84.5751 358.785 84.1944V83.298H358.864C358.785 83.6047 358.616 83.848 358.357 84.0278C358.103 84.2076 357.804 84.2975 357.46 84.2975C357.106 84.2975 356.799 84.2182 356.54 84.0595C356.281 83.8956 356.08 83.6682 355.937 83.3773C355.8 83.0865 355.731 82.7506 355.731 82.3699C355.731 82.0843 355.771 81.8252 355.85 81.5925C355.929 81.3545 356.043 81.1535 356.191 80.9896C356.345 80.8204 356.527 80.6908 356.739 80.6009C356.955 80.5057 357.196 80.4581 357.46 80.4581C357.809 80.4581 358.111 80.548 358.365 80.7278C358.619 80.9023 358.783 81.1403 358.857 81.4418L358.777 81.5369V80.7992C358.777 80.6934 358.804 80.6141 358.857 80.5612C358.915 80.5031 358.994 80.474 359.095 80.474C359.2 80.474 359.28 80.5031 359.333 80.5612C359.385 80.6141 359.412 80.6934 359.412 80.7992V84.1071C359.412 84.6941 359.264 85.1357 358.968 85.4319C358.677 85.7333 358.246 85.884 357.675 85.884ZM357.579 83.774C357.828 83.774 358.042 83.7184 358.222 83.6074C358.402 83.491 358.539 83.3271 358.634 83.1155C358.735 82.904 358.785 82.6554 358.785 82.3699C358.785 81.9415 358.677 81.603 358.46 81.3545C358.243 81.1006 357.95 80.9737 357.579 80.9737C357.336 80.9737 357.125 81.0319 356.945 81.1482C356.765 81.2593 356.625 81.4206 356.524 81.6321C356.429 81.8384 356.382 82.0843 356.382 82.3699C356.382 82.7982 356.49 83.1393 356.707 83.3932C356.924 83.647 357.215 83.774 357.579 83.774ZM361.831 84.4562C361.566 84.4562 361.328 84.4059 361.117 84.3054C360.911 84.1997 360.747 84.0569 360.625 83.8771C360.503 83.6973 360.443 83.4963 360.443 83.2742C360.443 82.9886 360.514 82.7639 360.657 82.5999C360.805 82.436 361.045 82.3196 361.379 82.2509C361.717 82.1821 362.177 82.1478 362.759 82.1478H363.116V82.5682H362.767C362.339 82.5682 362 82.5893 361.751 82.6316C361.508 82.6687 361.336 82.7348 361.236 82.83C361.141 82.9252 361.093 83.06 361.093 83.2345C361.093 83.4514 361.167 83.6285 361.315 83.766C361.469 83.9035 361.675 83.9723 361.934 83.9723C362.145 83.9723 362.331 83.922 362.489 83.8215C362.653 83.7211 362.78 83.5836 362.87 83.409C362.965 83.2345 363.013 83.0336 363.013 82.8062V81.9018C363.013 81.574 362.947 81.3386 362.814 81.1958C362.682 81.0478 362.465 80.9737 362.164 80.9737C361.979 80.9737 361.794 80.9975 361.609 81.0451C361.424 81.0927 361.228 81.1694 361.022 81.2752C360.948 81.3122 360.884 81.3254 360.831 81.3148C360.778 81.299 360.736 81.2699 360.704 81.2276C360.673 81.1853 360.654 81.1377 360.649 81.0848C360.644 81.0266 360.654 80.9711 360.681 80.9182C360.712 80.8653 360.76 80.823 360.823 80.7913C361.056 80.6749 361.286 80.5903 361.514 80.5374C361.741 80.4845 361.958 80.4581 362.164 80.4581C362.497 80.4581 362.772 80.5136 362.989 80.6247C363.206 80.7305 363.367 80.8944 363.473 81.1165C363.579 81.3333 363.632 81.6136 363.632 81.9574V84.1071C363.632 84.2129 363.605 84.2949 363.552 84.353C363.505 84.4112 363.433 84.4403 363.338 84.4403C363.238 84.4403 363.161 84.4112 363.108 84.353C363.055 84.2949 363.029 84.2129 363.029 84.1071V83.4884H363.1C363.058 83.6893 362.976 83.8612 362.854 84.004C362.738 84.1468 362.592 84.2578 362.418 84.3372C362.243 84.4165 362.048 84.4562 361.831 84.4562ZM366.458 84.4562C366.072 84.4562 365.738 84.3715 365.458 84.2023C365.178 84.0331 364.961 83.7977 364.808 83.4963C364.66 83.1896 364.586 82.8353 364.586 82.4333C364.586 82.1266 364.628 81.8516 364.713 81.6083C364.797 81.3651 364.921 81.1588 365.085 80.9896C365.249 80.8151 365.445 80.6829 365.672 80.593C365.905 80.5031 366.167 80.4581 366.458 80.4581C366.648 80.4581 366.846 80.4872 367.053 80.5454C367.259 80.6035 367.447 80.704 367.616 80.8468C367.669 80.8838 367.703 80.9288 367.719 80.9817C367.735 81.0345 367.735 81.0874 367.719 81.1403C367.703 81.1879 367.677 81.2302 367.64 81.2672C367.603 81.299 367.555 81.3175 367.497 81.3228C367.444 81.3281 367.388 81.3095 367.33 81.2672C367.193 81.1615 367.053 81.0874 366.91 81.0451C366.767 81.0028 366.63 80.9817 366.497 80.9817C366.291 80.9817 366.111 81.016 365.958 81.0848C365.805 81.1482 365.675 81.2408 365.569 81.3624C365.463 81.4841 365.382 81.6348 365.323 81.8146C365.27 81.9944 365.244 82.2033 365.244 82.4413C365.244 82.9014 365.352 83.2663 365.569 83.536C365.786 83.8004 366.095 83.9326 366.497 83.9326C366.63 83.9326 366.764 83.9115 366.902 83.8691C367.045 83.8268 367.188 83.7528 367.33 83.647C367.388 83.6047 367.444 83.5862 367.497 83.5915C367.55 83.5968 367.595 83.6179 367.632 83.655C367.669 83.6867 367.693 83.729 367.703 83.7819C367.719 83.8348 367.719 83.8877 367.703 83.9405C367.687 83.9881 367.653 84.0304 367.6 84.0675C367.431 84.205 367.246 84.3054 367.045 84.3689C366.844 84.4271 366.648 84.4562 366.458 84.4562ZM368.813 84.4244C368.707 84.4244 368.628 84.3953 368.575 84.3372C368.522 84.2737 368.496 84.1864 368.496 84.0754V80.8309C368.496 80.7199 368.522 80.6353 368.575 80.5771C368.628 80.5189 368.707 80.4898 368.813 80.4898C368.913 80.4898 368.993 80.5189 369.051 80.5771C369.109 80.6353 369.138 80.7199 369.138 80.8309V84.0754C369.138 84.1864 369.109 84.2737 369.051 84.3372C368.998 84.3953 368.919 84.4244 368.813 84.4244ZM368.813 79.6014C368.681 79.6014 368.578 79.567 368.503 79.4983C368.429 79.4242 368.392 79.3264 368.392 79.2047C368.392 79.0778 368.429 78.9826 368.503 78.9192C368.578 78.8504 368.681 78.816 368.813 78.816C368.95 78.816 369.053 78.8504 369.122 78.9192C369.196 78.9826 369.233 79.0778 369.233 79.2047C369.233 79.3264 369.196 79.4242 369.122 79.4983C369.053 79.567 368.95 79.6014 368.813 79.6014ZM371.942 84.4562C371.566 84.4562 371.241 84.3742 370.966 84.2102C370.691 84.0463 370.477 83.8163 370.323 83.5201C370.175 83.2187 370.101 82.8643 370.101 82.4571C370.101 82.1504 370.144 81.8754 370.228 81.6321C370.313 81.3836 370.437 81.172 370.601 80.9975C370.765 80.823 370.958 80.6908 371.18 80.6009C371.408 80.5057 371.661 80.4581 371.942 80.4581C372.317 80.4581 372.642 80.5401 372.917 80.704C373.192 80.868 373.404 81.1006 373.552 81.4021C373.705 81.6982 373.782 82.0499 373.782 82.4571C373.782 82.7639 373.74 83.0389 373.655 83.2821C373.57 83.5254 373.446 83.7369 373.282 83.9167C373.118 84.0913 372.923 84.2261 372.695 84.3213C372.473 84.4112 372.222 84.4562 371.942 84.4562ZM371.942 83.9405C372.18 83.9405 372.389 83.8824 372.568 83.766C372.748 83.6497 372.886 83.4804 372.981 83.2583C373.081 83.0362 373.132 82.7691 373.132 82.4571C373.132 81.9759 373.023 81.6083 372.806 81.3545C372.595 81.1006 372.307 80.9737 371.942 80.9737C371.698 80.9737 371.487 81.0319 371.307 81.1482C371.133 81.2593 370.995 81.4259 370.895 81.648C370.799 81.8648 370.752 82.1345 370.752 82.4571C370.752 82.9331 370.86 83.3006 371.077 83.5598C371.294 83.8136 371.582 83.9405 371.942 83.9405ZM372.203 79.9742C372.166 80.0271 372.121 80.0588 372.069 80.0694C372.016 80.0747 371.965 80.0668 371.918 80.0456C371.87 80.0192 371.836 79.9821 371.815 79.9345C371.794 79.887 371.799 79.8314 371.831 79.768L372.497 78.4749C372.534 78.4009 372.582 78.3533 372.64 78.3322C372.698 78.311 372.756 78.3084 372.814 78.3242C372.878 78.3348 372.931 78.3612 372.973 78.4035C373.015 78.4459 373.039 78.4961 373.044 78.5543C373.055 78.6124 373.039 78.6733 372.997 78.7367L372.203 79.9742ZM375.064 84.4403C374.959 84.4403 374.879 84.4112 374.826 84.353C374.774 84.2949 374.747 84.2129 374.747 84.1071V80.7992C374.747 80.6934 374.774 80.6141 374.826 80.5612C374.879 80.5031 374.956 80.474 375.057 80.474C375.157 80.474 375.234 80.5031 375.287 80.5612C375.345 80.6141 375.374 80.6934 375.374 80.7992V81.4814L375.287 81.3862C375.398 81.0795 375.577 80.8494 375.826 80.6961C376.08 80.5374 376.371 80.4581 376.699 80.4581C377.005 80.4581 377.259 80.5136 377.46 80.6247C377.666 80.7357 377.82 80.905 377.92 81.1324C378.021 81.3545 378.071 81.6374 378.071 81.9812V84.1071C378.071 84.2129 378.042 84.2949 377.984 84.353C377.931 84.4112 377.854 84.4403 377.754 84.4403C377.648 84.4403 377.566 84.4112 377.508 84.353C377.455 84.2949 377.428 84.2129 377.428 84.1071V82.0208C377.428 81.6612 377.357 81.3994 377.214 81.2355C377.077 81.0663 376.855 80.9817 376.548 80.9817C376.194 80.9817 375.911 81.0927 375.699 81.3148C375.493 81.5317 375.39 81.8225 375.39 82.1874V84.1071C375.39 84.3292 375.281 84.4403 375.064 84.4403Z" fill="#101E37"/>
<path d="M387.835 80.5625L386.125 82.2724L384.415 80.5625C384.243 80.3906 383.966 80.3906 383.794 80.5625C383.622 80.7344 383.622 81.012 383.794 81.1839L385.817 83.2067C385.989 83.3786 386.266 83.3786 386.438 83.2067L388.461 81.1839C388.633 81.012 388.633 80.7344 388.461 80.5625C388.289 80.395 388.007 80.3906 387.835 80.5625Z" fill="#101E37"/>
<rect x="405.519" y="71.0962" width="64.9165" height="21.5769" rx="3.52562" fill="white"/>
<path d="M411.806 84.4403C411.706 84.4403 411.629 84.4139 411.576 84.361C411.523 84.3028 411.497 84.2208 411.497 84.1151V79.0699C411.497 78.9641 411.523 78.8821 411.576 78.824C411.629 78.7658 411.698 78.7367 411.782 78.7367C411.867 78.7367 411.928 78.7526 411.965 78.7843C412.007 78.8108 412.055 78.861 412.108 78.935L415.566 83.5439H415.376V79.054C415.376 78.9535 415.402 78.8769 415.455 78.824C415.508 78.7658 415.585 78.7367 415.685 78.7367C415.78 78.7367 415.852 78.7658 415.899 78.824C415.952 78.8769 415.979 78.9535 415.979 79.054V84.123C415.979 84.2235 415.955 84.3028 415.907 84.361C415.865 84.4139 415.802 84.4403 415.717 84.4403C415.638 84.4403 415.574 84.4244 415.527 84.3927C415.479 84.361 415.429 84.3107 415.376 84.242L411.925 79.6331H412.108V84.1151C412.108 84.2208 412.081 84.3028 412.028 84.361C411.975 84.4139 411.901 84.4403 411.806 84.4403ZM418.495 84.4562C418.231 84.4562 417.993 84.4059 417.781 84.3054C417.575 84.1997 417.411 84.0569 417.289 83.8771C417.168 83.6973 417.107 83.4963 417.107 83.2742C417.107 82.9886 417.178 82.7639 417.321 82.5999C417.469 82.436 417.71 82.3196 418.043 82.2509C418.382 82.1821 418.842 82.1478 419.423 82.1478H419.78V82.5682H419.431C419.003 82.5682 418.664 82.5893 418.416 82.6316C418.173 82.6687 418.001 82.7348 417.9 82.83C417.805 82.9252 417.758 83.06 417.758 83.2345C417.758 83.4514 417.832 83.6285 417.98 83.766C418.133 83.9035 418.339 83.9723 418.598 83.9723C418.81 83.9723 418.995 83.922 419.154 83.8215C419.318 83.7211 419.445 83.5836 419.534 83.409C419.63 83.2345 419.677 83.0336 419.677 82.8062V81.9018C419.677 81.574 419.611 81.3386 419.479 81.1958C419.347 81.0478 419.13 80.9737 418.828 80.9737C418.643 80.9737 418.458 80.9975 418.273 81.0451C418.088 81.0927 417.892 81.1694 417.686 81.2752C417.612 81.3122 417.549 81.3254 417.496 81.3148C417.443 81.299 417.401 81.2699 417.369 81.2276C417.337 81.1853 417.319 81.1377 417.313 81.0848C417.308 81.0266 417.319 80.9711 417.345 80.9182C417.377 80.8653 417.424 80.823 417.488 80.7913C417.72 80.6749 417.951 80.5903 418.178 80.5374C418.405 80.4845 418.622 80.4581 418.828 80.4581C419.162 80.4581 419.437 80.5136 419.653 80.6247C419.87 80.7305 420.032 80.8944 420.137 81.1165C420.243 81.3333 420.296 81.6136 420.296 81.9574V84.1071C420.296 84.2129 420.27 84.2949 420.217 84.353C420.169 84.4112 420.098 84.4403 420.002 84.4403C419.902 84.4403 419.825 84.4112 419.772 84.353C419.72 84.2949 419.693 84.2129 419.693 84.1071V83.4884H419.764C419.722 83.6893 419.64 83.8612 419.519 84.004C419.402 84.1468 419.257 84.2578 419.082 84.3372C418.908 84.4165 418.712 84.4562 418.495 84.4562ZM422.885 84.4403C422.795 84.4403 422.716 84.4165 422.647 84.3689C422.578 84.316 422.52 84.2367 422.473 84.1309L421.1 80.9261C421.063 80.8468 421.05 80.7728 421.061 80.704C421.071 80.6353 421.103 80.5797 421.156 80.5374C421.209 80.4951 421.283 80.474 421.378 80.474C421.463 80.474 421.529 80.4925 421.576 80.5295C421.624 80.5665 421.666 80.6326 421.703 80.7278L423.004 83.9088H422.79L424.115 80.7278C424.152 80.6326 424.194 80.5665 424.242 80.5295C424.289 80.4925 424.358 80.474 424.448 80.474C424.532 80.474 424.596 80.4951 424.638 80.5374C424.686 80.5797 424.712 80.6353 424.718 80.704C424.728 80.7675 424.718 80.8389 424.686 80.9182L423.298 84.1309C423.261 84.2367 423.205 84.316 423.131 84.3689C423.062 84.4165 422.98 84.4403 422.885 84.4403ZM427.215 84.4562C426.808 84.4562 426.456 84.3768 426.16 84.2182C425.869 84.0542 425.642 83.8242 425.478 83.528C425.319 83.2319 425.24 82.8776 425.24 82.4651C425.24 82.0631 425.319 81.7141 425.478 81.418C425.636 81.1165 425.853 80.8812 426.128 80.7119C426.408 80.5427 426.731 80.4581 427.096 80.4581C427.355 80.4581 427.588 80.5031 427.794 80.593C428 80.6776 428.175 80.8019 428.317 80.9658C428.466 81.1297 428.577 81.3281 428.651 81.5607C428.73 81.7934 428.77 82.0552 428.77 82.3461C428.77 82.4307 428.746 82.4942 428.698 82.5365C428.651 82.5735 428.582 82.592 428.492 82.592H425.731V82.1716H428.341L428.214 82.2747C428.214 81.9891 428.172 81.7485 428.087 81.5528C428.003 81.3518 427.879 81.1985 427.715 81.0927C427.556 80.9869 427.355 80.9341 427.112 80.9341C426.842 80.9341 426.612 80.9975 426.422 81.1244C426.236 81.2461 426.096 81.418 426.001 81.6401C425.906 81.8569 425.858 82.1107 425.858 82.4016V82.4492C425.858 82.9357 425.975 83.3059 426.207 83.5598C426.445 83.8136 426.781 83.9405 427.215 83.9405C427.395 83.9405 427.572 83.9167 427.746 83.8691C427.926 83.8215 428.101 83.7422 428.27 83.6312C428.344 83.5836 428.41 83.5624 428.468 83.5677C428.532 83.5677 428.582 83.5862 428.619 83.6232C428.656 83.655 428.68 83.6973 428.69 83.7502C428.706 83.7977 428.701 83.8506 428.674 83.9088C428.653 83.967 428.608 84.0172 428.54 84.0595C428.365 84.1864 428.159 84.2843 427.921 84.353C427.683 84.4218 427.448 84.4562 427.215 84.4562ZM431.405 85.884C431.125 85.884 430.85 85.8497 430.58 85.7809C430.316 85.7175 430.075 85.6143 429.858 85.4715C429.795 85.4345 429.752 85.3896 429.731 85.3367C429.715 85.2838 429.713 85.2309 429.723 85.178C429.734 85.1304 429.758 85.0855 429.795 85.0432C429.832 85.0062 429.874 84.9824 429.922 84.9718C429.975 84.9612 430.027 84.9691 430.08 84.9956C430.313 85.1384 430.535 85.2362 430.747 85.2891C430.958 85.342 431.167 85.3684 431.373 85.3684C431.749 85.3684 432.032 85.2679 432.222 85.067C432.418 84.866 432.516 84.5751 432.516 84.1944V83.298H432.595C432.516 83.6047 432.346 83.848 432.087 84.0278C431.833 84.2076 431.535 84.2975 431.191 84.2975C430.837 84.2975 430.53 84.2182 430.271 84.0595C430.012 83.8956 429.811 83.6682 429.668 83.3773C429.53 83.0865 429.462 82.7506 429.462 82.3699C429.462 82.0843 429.501 81.8252 429.581 81.5925C429.66 81.3545 429.774 81.1535 429.922 80.9896C430.075 80.8204 430.257 80.6908 430.469 80.6009C430.686 80.5057 430.926 80.4581 431.191 80.4581C431.54 80.4581 431.841 80.548 432.095 80.7278C432.349 80.9023 432.513 81.1403 432.587 81.4418L432.508 81.5369V80.7992C432.508 80.6934 432.534 80.6141 432.587 80.5612C432.645 80.5031 432.725 80.474 432.825 80.474C432.931 80.474 433.01 80.5031 433.063 80.5612C433.116 80.6141 433.142 80.6934 433.142 80.7992V84.1071C433.142 84.6941 432.994 85.1357 432.698 85.4319C432.407 85.7333 431.976 85.884 431.405 85.884ZM431.31 83.774C431.558 83.774 431.773 83.7184 431.952 83.6074C432.132 83.491 432.27 83.3271 432.365 83.1155C432.465 82.904 432.516 82.6554 432.516 82.3699C432.516 81.9415 432.407 81.603 432.19 81.3545C431.974 81.1006 431.68 80.9737 431.31 80.9737C431.067 80.9737 430.855 81.0319 430.675 81.1482C430.495 81.2593 430.355 81.4206 430.255 81.6321C430.16 81.8384 430.112 82.0843 430.112 82.3699C430.112 82.7982 430.22 83.1393 430.437 83.3932C430.654 83.647 430.945 83.774 431.31 83.774ZM435.561 84.4562C435.297 84.4562 435.059 84.4059 434.847 84.3054C434.641 84.1997 434.477 84.0569 434.356 83.8771C434.234 83.6973 434.173 83.4963 434.173 83.2742C434.173 82.9886 434.244 82.7639 434.387 82.5999C434.535 82.436 434.776 82.3196 435.109 82.2509C435.448 82.1821 435.908 82.1478 436.489 82.1478H436.846V82.5682H436.497C436.069 82.5682 435.731 82.5893 435.482 82.6316C435.239 82.6687 435.067 82.7348 434.966 82.83C434.871 82.9252 434.824 83.06 434.824 83.2345C434.824 83.4514 434.898 83.6285 435.046 83.766C435.199 83.9035 435.405 83.9723 435.664 83.9723C435.876 83.9723 436.061 83.922 436.22 83.8215C436.384 83.7211 436.511 83.5836 436.6 83.409C436.696 83.2345 436.743 83.0336 436.743 82.8062V81.9018C436.743 81.574 436.677 81.3386 436.545 81.1958C436.413 81.0478 436.196 80.9737 435.894 80.9737C435.709 80.9737 435.524 80.9975 435.339 81.0451C435.154 81.0927 434.958 81.1694 434.752 81.2752C434.678 81.3122 434.615 81.3254 434.562 81.3148C434.509 81.299 434.467 81.2699 434.435 81.2276C434.403 81.1853 434.385 81.1377 434.379 81.0848C434.374 81.0266 434.385 80.9711 434.411 80.9182C434.443 80.8653 434.49 80.823 434.554 80.7913C434.787 80.6749 435.017 80.5903 435.244 80.5374C435.471 80.4845 435.688 80.4581 435.894 80.4581C436.228 80.4581 436.503 80.5136 436.719 80.6247C436.936 80.7305 437.098 80.8944 437.203 81.1165C437.309 81.3333 437.362 81.6136 437.362 81.9574V84.1071C437.362 84.2129 437.336 84.2949 437.283 84.353C437.235 84.4112 437.164 84.4403 437.068 84.4403C436.968 84.4403 436.891 84.4112 436.838 84.353C436.786 84.2949 436.759 84.2129 436.759 84.1071V83.4884H436.831C436.788 83.6893 436.706 83.8612 436.585 84.004C436.468 84.1468 436.323 84.2578 436.148 84.3372C435.974 84.4165 435.778 84.4562 435.561 84.4562ZM440.188 84.4562C439.802 84.4562 439.469 84.3715 439.189 84.2023C438.908 84.0331 438.692 83.7977 438.538 83.4963C438.39 83.1896 438.316 82.8353 438.316 82.4333C438.316 82.1266 438.358 81.8516 438.443 81.6083C438.528 81.3651 438.652 81.1588 438.816 80.9896C438.98 80.8151 439.175 80.6829 439.403 80.593C439.636 80.5031 439.897 80.4581 440.188 80.4581C440.379 80.4581 440.577 80.4872 440.783 80.5454C440.989 80.6035 441.177 80.704 441.346 80.8468C441.399 80.8838 441.434 80.9288 441.449 80.9817C441.465 81.0345 441.465 81.0874 441.449 81.1403C441.434 81.1879 441.407 81.2302 441.37 81.2672C441.333 81.299 441.286 81.3175 441.227 81.3228C441.174 81.3281 441.119 81.3095 441.061 81.2672C440.923 81.1615 440.783 81.0874 440.64 81.0451C440.498 81.0028 440.36 80.9817 440.228 80.9817C440.022 80.9817 439.842 81.016 439.688 81.0848C439.535 81.1482 439.405 81.2408 439.3 81.3624C439.194 81.4841 439.112 81.6348 439.054 81.8146C439.001 81.9944 438.974 82.2033 438.974 82.4413C438.974 82.9014 439.083 83.2663 439.3 83.536C439.517 83.8004 439.826 83.9326 440.228 83.9326C440.36 83.9326 440.495 83.9115 440.632 83.8691C440.775 83.8268 440.918 83.7528 441.061 83.647C441.119 83.6047 441.174 83.5862 441.227 83.5915C441.28 83.5968 441.325 83.6179 441.362 83.655C441.399 83.6867 441.423 83.729 441.434 83.7819C441.449 83.8348 441.449 83.8877 441.434 83.9405C441.418 83.9881 441.383 84.0304 441.33 84.0675C441.161 84.205 440.976 84.3054 440.775 84.3689C440.574 84.4271 440.379 84.4562 440.188 84.4562ZM442.543 84.4244C442.438 84.4244 442.358 84.3953 442.305 84.3372C442.252 84.2737 442.226 84.1864 442.226 84.0754V80.8309C442.226 80.7199 442.252 80.6353 442.305 80.5771C442.358 80.5189 442.438 80.4898 442.543 80.4898C442.644 80.4898 442.723 80.5189 442.781 80.5771C442.839 80.6353 442.869 80.7199 442.869 80.8309V84.0754C442.869 84.1864 442.839 84.2737 442.781 84.3372C442.728 84.3953 442.649 84.4244 442.543 84.4244ZM442.543 79.6014C442.411 79.6014 442.308 79.567 442.234 79.4983C442.16 79.4242 442.123 79.3264 442.123 79.2047C442.123 79.0778 442.16 78.9826 442.234 78.9192C442.308 78.8504 442.411 78.816 442.543 78.816C442.681 78.816 442.784 78.8504 442.853 78.9192C442.927 78.9826 442.964 79.0778 442.964 79.2047C442.964 79.3264 442.927 79.4242 442.853 79.4983C442.784 79.567 442.681 79.6014 442.543 79.6014ZM445.672 84.4562C445.297 84.4562 444.971 84.3742 444.696 84.2102C444.421 84.0463 444.207 83.8163 444.054 83.5201C443.906 83.2187 443.832 82.8643 443.832 82.4571C443.832 82.1504 443.874 81.8754 443.959 81.6321C444.043 81.3836 444.168 81.172 444.332 80.9975C444.495 80.823 444.688 80.6908 444.911 80.6009C445.138 80.5057 445.392 80.4581 445.672 80.4581C446.048 80.4581 446.373 80.5401 446.648 80.704C446.923 80.868 447.134 81.1006 447.282 81.4021C447.436 81.6982 447.513 82.0499 447.513 82.4571C447.513 82.7639 447.47 83.0389 447.386 83.2821C447.301 83.5254 447.177 83.7369 447.013 83.9167C446.849 84.0913 446.653 84.2261 446.426 84.3213C446.204 84.4112 445.952 84.4562 445.672 84.4562ZM445.672 83.9405C445.91 83.9405 446.119 83.8824 446.299 83.766C446.479 83.6497 446.616 83.4804 446.711 83.2583C446.812 83.0362 446.862 82.7691 446.862 82.4571C446.862 81.9759 446.754 81.6083 446.537 81.3545C446.325 81.1006 446.037 80.9737 445.672 80.9737C445.429 80.9737 445.217 81.0319 445.038 81.1482C444.863 81.2593 444.725 81.4259 444.625 81.648C444.53 81.8648 444.482 82.1345 444.482 82.4571C444.482 82.9331 444.591 83.3006 444.807 83.5598C445.024 83.8136 445.313 83.9405 445.672 83.9405ZM445.934 79.9742C445.897 80.0271 445.852 80.0588 445.799 80.0694C445.746 80.0747 445.696 80.0668 445.648 80.0456C445.601 80.0192 445.566 79.9821 445.545 79.9345C445.524 79.887 445.529 79.8314 445.561 79.768L446.227 78.4749C446.264 78.4009 446.312 78.3533 446.37 78.3322C446.428 78.311 446.487 78.3084 446.545 78.3242C446.608 78.3348 446.661 78.3612 446.703 78.4035C446.746 78.4459 446.769 78.4961 446.775 78.5543C446.785 78.6124 446.769 78.6733 446.727 78.7367L445.934 79.9742ZM448.795 84.4403C448.689 84.4403 448.61 84.4112 448.557 84.353C448.504 84.2949 448.478 84.2129 448.478 84.1071V80.7992C448.478 80.6934 448.504 80.6141 448.557 80.5612C448.61 80.5031 448.687 80.474 448.787 80.474C448.887 80.474 448.964 80.5031 449.017 80.5612C449.075 80.6141 449.104 80.6934 449.104 80.7992V81.4814L449.017 81.3862C449.128 81.0795 449.308 80.8494 449.556 80.6961C449.81 80.5374 450.101 80.4581 450.429 80.4581C450.736 80.4581 450.99 80.5136 451.191 80.6247C451.397 80.7357 451.55 80.905 451.651 81.1324C451.751 81.3545 451.801 81.6374 451.801 81.9812V84.1071C451.801 84.2129 451.772 84.2949 451.714 84.353C451.661 84.4112 451.585 84.4403 451.484 84.4403C451.378 84.4403 451.296 84.4112 451.238 84.353C451.185 84.2949 451.159 84.2129 451.159 84.1071V82.0208C451.159 81.6612 451.087 81.3994 450.945 81.2355C450.807 81.0663 450.585 80.9817 450.278 80.9817C449.924 80.9817 449.641 81.0927 449.43 81.3148C449.223 81.5317 449.12 81.8225 449.12 82.1874V84.1071C449.12 84.3292 449.012 84.4403 448.795 84.4403Z" fill="#101E37"/>
<path d="M461.566 80.5625L459.856 82.2724L458.146 80.5625C457.974 80.3906 457.696 80.3906 457.524 80.5625C457.353 80.7344 457.353 81.012 457.524 81.1839L459.547 83.2067C459.719 83.3786 459.997 83.3786 460.169 83.2067L462.191 81.1839C462.363 81.012 462.363 80.7344 462.191 80.5625C462.02 80.395 461.738 80.3906 461.566 80.5625Z" fill="#101E37"/>
<rect x="484.753" y="70.8669" width="154.246" height="22.0351" rx="3.96633" fill="#F3F6F9"/>
<rect x="484.753" y="70.8669" width="154.246" height="22.0351" rx="3.96633" stroke="#E6EBF0" stroke-width="0.881406"/>
<path d="M499.285 82.974H498.937L498.814 82.855C499.343 82.238 499.616 81.3963 499.466 80.5016C499.259 79.2765 498.237 78.2981 497.003 78.1483C495.138 77.9191 493.57 79.488 493.799 81.3522C493.949 82.5862 494.927 83.6086 496.152 83.8157C497.047 83.9656 497.888 83.6923 498.505 83.1635L498.624 83.2869V83.635L500.497 85.508C500.678 85.6887 500.973 85.6887 501.154 85.508C501.335 85.3273 501.335 85.0321 501.154 84.8514L499.285 82.974ZM496.641 82.974C495.544 82.974 494.658 82.0882 494.658 80.9908C494.658 79.8935 495.544 79.0077 496.641 79.0077C497.739 79.0077 498.624 79.8935 498.624 80.9908C498.624 82.0882 497.739 82.974 496.641 82.974Z" fill="#5C6A7A"/>
<path d="M507.917 79.5625H509.343C509.971 79.5625 510.444 79.6566 510.761 79.8449C511.078 80.0331 511.236 80.3533 511.236 80.8055C511.236 81.0006 511.198 81.1762 511.123 81.3322C511.049 81.486 510.941 81.6134 510.799 81.7144C510.657 81.8154 510.481 81.8854 510.272 81.9244V81.9589C510.492 81.9933 510.688 82.0564 510.857 82.1482C511.027 82.24 511.16 82.3686 511.257 82.5338C511.353 82.6991 511.401 82.9091 511.401 83.1639C511.401 83.4738 511.329 83.7354 511.185 83.9489C511.042 84.1624 510.84 84.3242 510.579 84.4344C510.317 84.5423 510.007 84.5962 509.649 84.5962H507.917V79.5625ZM508.502 81.7213H509.466C509.905 81.7213 510.208 81.649 510.375 81.5044C510.545 81.3598 510.63 81.1486 510.63 80.8709C510.63 80.584 510.529 80.3774 510.327 80.2511C510.128 80.1249 509.808 80.0618 509.37 80.0618H508.502V81.7213ZM508.502 82.2136V84.097H509.549C509.997 84.097 510.313 84.0097 510.499 83.8353C510.685 83.6586 510.778 83.421 510.778 83.1226C510.778 82.9321 510.736 82.7691 510.651 82.6337C510.568 82.4983 510.433 82.395 510.245 82.3238C510.059 82.2504 509.81 82.2136 509.497 82.2136H508.502ZM515.505 80.8227V84.5962H515.037L514.955 84.066H514.924C514.846 84.1968 514.745 84.307 514.621 84.3965C514.497 84.486 514.357 84.5526 514.201 84.5962C514.047 84.6421 513.883 84.6651 513.708 84.6651C513.41 84.6651 513.16 84.6168 512.958 84.5204C512.756 84.424 512.603 84.2748 512.5 84.0729C512.399 83.8709 512.348 83.6115 512.348 83.2947V80.8227H512.927V83.2534C512.927 83.5679 512.998 83.8032 513.14 83.9592C513.282 84.113 513.499 84.1899 513.791 84.1899C514.071 84.1899 514.294 84.1371 514.459 84.0315C514.626 83.926 514.747 83.771 514.82 83.5667C514.894 83.3602 514.93 83.1077 514.93 82.8093V80.8227H515.505ZM519.155 83.5633C519.155 83.8043 519.094 84.0074 518.973 84.1727C518.853 84.3357 518.681 84.4585 518.456 84.5411C518.233 84.6237 517.967 84.6651 517.657 84.6651C517.393 84.6651 517.165 84.6444 516.972 84.6031C516.779 84.5618 516.611 84.5032 516.466 84.4275V83.9007C516.62 83.9765 516.803 84.0453 517.017 84.1073C517.23 84.1693 517.448 84.2002 517.671 84.2002C517.997 84.2002 518.233 84.1475 518.38 84.0419C518.527 83.9363 518.601 83.7928 518.601 83.6115C518.601 83.5082 518.571 83.4175 518.511 83.3395C518.454 83.2592 518.356 83.1823 518.219 83.1088C518.081 83.0331 517.89 82.9504 517.647 82.8609C517.406 82.7691 517.197 82.6784 517.02 82.5889C516.846 82.4971 516.711 82.3858 516.614 82.255C516.52 82.1241 516.473 81.9543 516.473 81.7454C516.473 81.4263 516.601 81.1819 516.859 81.012C517.118 80.8399 517.458 80.7538 517.878 80.7538C518.105 80.7538 518.317 80.7768 518.515 80.8227C518.714 80.8663 518.9 80.926 519.072 81.0017L518.88 81.4596C518.724 81.3931 518.557 81.3368 518.38 81.2909C518.204 81.245 518.023 81.2221 517.84 81.2221C517.576 81.2221 517.373 81.2657 517.23 81.3529C517.09 81.4401 517.02 81.5595 517.02 81.711C517.02 81.828 517.053 81.9244 517.117 82.0002C517.183 82.0759 517.289 82.1471 517.434 82.2136C517.578 82.2802 517.769 82.3582 518.005 82.4478C518.241 82.535 518.446 82.6257 518.618 82.7198C518.79 82.8116 518.922 82.924 519.014 83.0572C519.108 83.188 519.155 83.3567 519.155 83.5633ZM521.586 84.6651C521.246 84.6651 520.947 84.595 520.687 84.455C520.428 84.315 520.226 84.1015 520.081 83.8146C519.937 83.5277 519.864 83.1662 519.864 82.7301C519.864 82.2733 519.94 81.9003 520.092 81.6111C520.245 81.3196 520.456 81.1039 520.725 80.9638C520.994 80.8238 521.299 80.7538 521.641 80.7538C521.829 80.7538 522.01 80.7733 522.185 80.8123C522.362 80.8491 522.506 80.8961 522.619 80.9535L522.447 81.4321C522.332 81.3862 522.199 81.3449 522.047 81.3081C521.898 81.2714 521.758 81.253 521.627 81.253C521.365 81.253 521.147 81.3093 520.973 81.4218C520.801 81.5342 520.671 81.6995 520.584 81.9175C520.499 82.1356 520.456 82.4042 520.456 82.7232C520.456 83.0285 520.498 83.289 520.58 83.5048C520.665 83.7205 520.79 83.8858 520.956 84.0006C521.123 84.113 521.332 84.1693 521.582 84.1693C521.782 84.1693 521.962 84.1486 522.123 84.1073C522.284 84.0637 522.429 84.0132 522.56 83.9558V84.4654C522.434 84.5296 522.293 84.579 522.137 84.6134C521.983 84.6478 521.799 84.6651 521.586 84.6651ZM524.867 80.7607C525.317 80.7607 525.651 80.8617 525.869 81.0637C526.087 81.2657 526.196 81.5882 526.196 82.0312V84.5962H525.779L525.669 84.0384H525.642C525.536 84.1761 525.426 84.2921 525.311 84.3862C525.196 84.478 525.063 84.548 524.912 84.5962C524.763 84.6421 524.579 84.6651 524.361 84.6651C524.131 84.6651 523.927 84.6249 523.748 84.5445C523.571 84.4642 523.431 84.3426 523.328 84.1796C523.227 84.0166 523.176 83.81 523.176 83.5599C523.176 83.1834 523.326 82.8942 523.624 82.6922C523.922 82.4902 524.377 82.3801 524.987 82.3617L525.638 82.3341V82.1035C525.638 81.7775 525.568 81.5491 525.428 81.4183C525.288 81.2875 525.091 81.2221 524.836 81.2221C524.639 81.2221 524.45 81.2508 524.271 81.3081C524.092 81.3655 523.922 81.4332 523.762 81.5113L523.586 81.0775C523.756 80.9902 523.951 80.9156 524.171 80.8537C524.392 80.7917 524.624 80.7607 524.867 80.7607ZM525.631 82.737L525.056 82.7611C524.586 82.7794 524.254 82.8563 524.061 82.9918C523.868 83.1272 523.772 83.3188 523.772 83.5667C523.772 83.7825 523.838 83.942 523.968 84.0453C524.099 84.1486 524.272 84.2002 524.488 84.2002C524.823 84.2002 525.098 84.1073 525.311 83.9214C525.525 83.7354 525.631 83.4566 525.631 83.0847V82.737ZM529.088 80.7538C529.164 80.7538 529.243 80.7584 529.326 80.7676C529.408 80.7745 529.482 80.7848 529.546 80.7986L529.474 81.3288C529.412 81.3127 529.343 81.3001 529.267 81.2909C529.191 81.2817 529.12 81.2771 529.054 81.2771C528.902 81.2771 528.759 81.3081 528.623 81.3701C528.49 81.4298 528.373 81.517 528.272 81.6318C528.171 81.7442 528.092 81.8808 528.035 82.0415C527.977 82.1999 527.948 82.3766 527.948 82.5717V84.5962H527.373V80.8227H527.849L527.911 81.5182H527.935C528.013 81.3781 528.107 81.2508 528.217 81.136C528.327 81.0189 528.455 80.926 528.599 80.8571C528.746 80.7882 528.909 80.7538 529.088 80.7538ZM530.173 84.2381C530.173 84.0774 530.212 83.9638 530.29 83.8973C530.368 83.8284 530.463 83.794 530.575 83.794C530.692 83.794 530.791 83.8284 530.872 83.8973C530.952 83.9638 530.992 84.0774 530.992 84.2381C530.992 84.3965 530.952 84.5124 530.872 84.5859C530.791 84.657 530.692 84.6926 530.575 84.6926C530.463 84.6926 530.368 84.657 530.29 84.5859C530.212 84.5124 530.173 84.3965 530.173 84.2381ZM532.025 84.2381C532.025 84.0774 532.064 83.9638 532.142 83.8973C532.22 83.8284 532.315 83.794 532.428 83.794C532.545 83.794 532.644 83.8284 532.724 83.8973C532.804 83.9638 532.844 84.0774 532.844 84.2381C532.844 84.3965 532.804 84.5124 532.724 84.5859C532.644 84.657 532.545 84.6926 532.428 84.6926C532.315 84.6926 532.22 84.657 532.142 84.5859C532.064 84.5124 532.025 84.3965 532.025 84.2381ZM533.877 84.2381C533.877 84.0774 533.916 83.9638 533.994 83.8973C534.072 83.8284 534.168 83.794 534.28 83.794C534.397 83.794 534.496 83.8284 534.576 83.8973C534.657 83.9638 534.697 84.0774 534.697 84.2381C534.697 84.3965 534.657 84.5124 534.576 84.5859C534.496 84.657 534.397 84.6926 534.28 84.6926C534.168 84.6926 534.072 84.657 533.994 84.5859C533.916 84.5124 533.877 84.3965 533.877 84.2381Z" fill="#5C6A7A"/>
<defs>
<clipPath id="clip0_187_5240">
<rect width="33.4931" height="18.0159" fill="white" transform="translate(90.3237 72.436)"/>
</clipPath>
</defs>
</svg>
