<svg width="728" height="148" viewBox="0 0 728 148" fill="none" xmlns="http://www.w3.org/2000/svg">
<rect x="0.5" y="0.5" width="727" height="147.009" rx="7.5" fill="#F3F6F9"/>
<rect x="0.5" y="0.5" width="727" height="147.009" rx="7.5" stroke="#E6EBF0"/>
<path d="M454.173 46.916C459.558 46.9161 463.925 51.2824 463.925 56.668V91.3408C463.925 96.7265 459.558 101.093 454.173 101.093H273.827C268.441 101.093 264.075 96.7265 264.075 91.3408V56.668C264.075 51.2824 268.442 46.9161 273.827 46.916H454.173Z" fill="white"/>
<path d="M454.173 46.916C459.558 46.9161 463.925 51.2824 463.925 56.668V91.3408C463.925 96.7265 459.558 101.093 454.173 101.093H273.827C268.441 101.093 264.075 96.7265 264.075 91.3408V56.668C264.075 51.2824 268.442 46.9161 273.827 46.916H454.173Z" stroke="#274986" stroke-width="2.16704"/>
<path d="M282.495 80.5056H299.832C300.428 80.5056 300.915 80.0181 300.915 79.4221C300.915 78.8262 300.428 78.3386 299.832 78.3386H282.495C281.9 78.3386 281.412 78.8262 281.412 79.4221C281.412 80.0181 281.9 80.5056 282.495 80.5056ZM282.495 75.088H299.832C300.428 75.088 300.915 74.6005 300.915 74.0045C300.915 73.4086 300.428 72.921 299.832 72.921H282.495C281.9 72.921 281.412 73.4086 281.412 74.0045C281.412 74.6005 281.9 75.088 282.495 75.088ZM281.412 68.5869C281.412 69.1828 281.9 69.6704 282.495 69.6704H299.832C300.428 69.6704 300.915 69.1828 300.915 68.5869C300.915 67.991 300.428 67.5034 299.832 67.5034H282.495C281.9 67.5034 281.412 67.991 281.412 68.5869Z" fill="#274986"/>
<path d="M311.074 80.0045C310.788 80.0045 310.567 79.933 310.411 79.79C310.268 79.634 310.197 79.4129 310.197 79.1269V67.1323C310.197 66.8462 310.268 66.6317 310.411 66.4887C310.567 66.3326 310.788 66.2546 311.074 66.2546H314.839C317.062 66.2546 318.778 66.8397 319.987 68.0099C321.197 69.1801 321.801 70.8834 321.801 73.1198C321.801 74.238 321.645 75.2262 321.333 76.0843C321.034 76.9295 320.586 77.6446 319.987 78.2297C319.389 78.8148 318.661 79.2569 317.803 79.5559C316.945 79.855 315.957 80.0045 314.839 80.0045H311.074ZM311.796 78.6393H314.722C315.632 78.6393 316.418 78.5223 317.081 78.2882C317.758 78.0542 318.317 77.7096 318.759 77.2545C319.214 76.7995 319.552 76.2274 319.773 75.5382C319.994 74.8361 320.105 74.03 320.105 73.1198C320.105 71.2865 319.656 69.9148 318.759 69.0046C317.862 68.0814 316.516 67.6199 314.722 67.6199H311.796V78.6393ZM328.729 80.18C327.727 80.18 326.863 79.985 326.135 79.5949C325.42 79.1919 324.86 78.6263 324.457 77.8982C324.067 77.17 323.872 76.2989 323.872 75.2847C323.872 74.2965 324.067 73.4384 324.457 72.7103C324.847 71.9691 325.381 71.3905 326.057 70.9744C326.746 70.5584 327.539 70.3503 328.436 70.3503C329.073 70.3503 329.645 70.4609 330.152 70.6819C330.66 70.8899 331.089 71.1955 331.44 71.5986C331.804 72.0016 332.077 72.4892 332.259 73.0613C332.454 73.6334 332.551 74.277 332.551 74.9921C332.551 75.2002 332.493 75.3562 332.376 75.4602C332.259 75.5512 332.09 75.5968 331.869 75.5968H325.082V74.5631H331.498L331.186 74.8166C331.186 74.1145 331.082 73.5229 330.874 73.0418C330.666 72.5477 330.36 72.1707 329.957 71.9106C329.567 71.6506 329.073 71.5205 328.475 71.5205C327.812 71.5205 327.246 71.6766 326.778 71.9886C326.323 72.2877 325.979 72.7103 325.745 73.2563C325.511 73.7894 325.394 74.4135 325.394 75.1287V75.2457C325.394 76.4419 325.68 77.3521 326.252 77.9762C326.837 78.6003 327.662 78.9123 328.729 78.9123C329.171 78.9123 329.606 78.8538 330.035 78.7368C330.477 78.6198 330.907 78.4247 331.323 78.1517C331.505 78.0347 331.667 77.9827 331.81 77.9957C331.966 77.9957 332.09 78.0412 332.181 78.1322C332.272 78.2102 332.33 78.3142 332.356 78.4442C332.395 78.5613 332.382 78.6913 332.317 78.8343C332.265 78.9773 332.155 79.1009 331.986 79.2049C331.557 79.5169 331.05 79.7575 330.464 79.9265C329.879 80.0955 329.301 80.18 328.729 80.18ZM338.036 80.18C337.451 80.18 336.859 80.1085 336.261 79.9655C335.676 79.8225 335.13 79.5754 334.623 79.2244C334.493 79.1334 334.402 79.0293 334.35 78.9123C334.298 78.7823 334.279 78.6588 334.292 78.5418C334.318 78.4117 334.37 78.3012 334.448 78.2102C334.539 78.1192 334.643 78.0672 334.76 78.0542C334.89 78.0282 335.033 78.0542 335.189 78.1322C335.696 78.4442 336.183 78.6653 336.651 78.7953C337.133 78.9123 337.607 78.9708 338.075 78.9708C338.816 78.9708 339.375 78.8343 339.752 78.5613C340.13 78.2882 340.318 77.9177 340.318 77.4496C340.318 77.0855 340.195 76.7995 339.948 76.5914C339.7 76.3704 339.31 76.2014 338.777 76.0843L337.003 75.6943C336.183 75.5252 335.572 75.2327 335.169 74.8166C334.779 74.4005 334.584 73.861 334.584 73.1978C334.584 72.6127 334.734 72.1121 335.033 71.6961C335.345 71.267 335.78 70.9354 336.339 70.7014C336.898 70.4674 337.549 70.3503 338.29 70.3503C338.862 70.3503 339.401 70.4284 339.909 70.5844C340.429 70.7274 340.897 70.9614 341.313 71.2865C341.443 71.3775 341.527 71.488 341.566 71.6181C341.618 71.7351 341.625 71.8586 341.586 71.9886C341.56 72.1056 341.501 72.2097 341.41 72.3007C341.319 72.3787 341.209 72.4242 341.079 72.4372C340.949 72.4502 340.812 72.4112 340.669 72.3202C340.279 72.0601 339.883 71.8716 339.479 71.7546C339.076 71.6246 338.68 71.5596 338.29 71.5596C337.562 71.5596 337.009 71.7026 336.632 71.9886C336.255 72.2747 336.066 72.6517 336.066 73.1198C336.066 73.4839 336.183 73.7829 336.417 74.017C336.651 74.251 337.016 74.42 337.51 74.5241L339.284 74.8946C340.13 75.0767 340.76 75.3692 341.176 75.7723C341.605 76.1623 341.82 76.6954 341.82 77.3716C341.82 78.2297 341.475 78.9123 340.786 79.4194C340.097 79.9265 339.18 80.18 338.036 80.18ZM345.008 83.6516C344.748 83.6516 344.553 83.5801 344.422 83.4371C344.292 83.3071 344.227 83.1121 344.227 82.852V71.189C344.227 70.9289 344.292 70.7339 344.422 70.6039C344.553 70.4609 344.741 70.3893 344.988 70.3893C345.248 70.3893 345.443 70.4609 345.573 70.6039C345.716 70.7339 345.788 70.9289 345.788 71.189V73.0418L345.573 72.7688C345.781 72.0276 346.191 71.4425 346.802 71.0135C347.426 70.5714 348.167 70.3503 349.025 70.3503C349.87 70.3503 350.605 70.5519 351.229 70.9549C351.866 71.345 352.354 71.9106 352.692 72.6517C353.043 73.3799 353.219 74.251 353.219 75.2652C353.219 76.2664 353.043 77.1375 352.692 77.8786C352.354 78.6068 351.873 79.1724 351.249 79.5754C350.625 79.9785 349.883 80.18 349.025 80.18C348.167 80.18 347.433 79.9655 346.821 79.5364C346.21 79.0944 345.794 78.5093 345.573 77.7811H345.807V82.852C345.807 83.1121 345.736 83.3071 345.593 83.4371C345.45 83.5801 345.255 83.6516 345.008 83.6516ZM348.694 78.9123C349.292 78.9123 349.805 78.7693 350.234 78.4833C350.677 78.1972 351.015 77.7811 351.249 77.235C351.496 76.6889 351.619 76.0323 351.619 75.2652C351.619 74.082 351.353 73.1783 350.82 72.5542C350.3 71.9301 349.591 71.6181 348.694 71.6181C348.109 71.6181 347.595 71.7611 347.153 72.0471C346.711 72.3202 346.366 72.7298 346.119 73.2758C345.885 73.8089 345.768 74.4721 345.768 75.2652C345.768 76.4354 346.035 77.3391 346.568 77.9762C347.101 78.6003 347.81 78.9123 348.694 78.9123ZM358.485 80.18C357.548 80.18 356.833 79.894 356.339 79.3219C355.845 78.7498 355.598 77.9307 355.598 76.8645V66.9177C355.598 66.6577 355.663 66.4627 355.793 66.3326C355.923 66.1896 356.118 66.1181 356.378 66.1181C356.625 66.1181 356.82 66.1896 356.963 66.3326C357.106 66.4627 357.178 66.6577 357.178 66.9177V76.7475C357.178 77.4496 357.314 77.9762 357.587 78.3272C357.873 78.6653 358.29 78.8343 358.836 78.8343C358.953 78.8343 359.057 78.8278 359.148 78.8148C359.239 78.8018 359.33 78.7953 359.421 78.7953C359.564 78.7823 359.661 78.8148 359.713 78.8928C359.778 78.9708 359.811 79.1269 359.811 79.3609C359.811 79.5949 359.759 79.7705 359.655 79.8875C359.551 80.0045 359.382 80.0825 359.148 80.1215C359.044 80.1345 358.933 80.1475 358.816 80.1605C358.699 80.1735 358.589 80.18 358.485 80.18ZM365.545 80.18C364.544 80.18 363.679 79.985 362.951 79.5949C362.236 79.1919 361.677 78.6263 361.274 77.8982C360.884 77.17 360.689 76.2989 360.689 75.2847C360.689 74.2965 360.884 73.4384 361.274 72.7103C361.664 71.9691 362.197 71.3905 362.873 70.9744C363.562 70.5584 364.355 70.3503 365.253 70.3503C365.89 70.3503 366.462 70.4609 366.969 70.6819C367.476 70.8899 367.905 71.1955 368.256 71.5986C368.62 72.0016 368.893 72.4892 369.075 73.0613C369.27 73.6334 369.368 74.277 369.368 74.9921C369.368 75.2002 369.309 75.3562 369.192 75.4602C369.075 75.5512 368.906 75.5968 368.685 75.5968H361.898V74.5631H368.315L368.003 74.8166C368.003 74.1145 367.899 73.5229 367.69 73.0418C367.482 72.5477 367.177 72.1707 366.774 71.9106C366.384 71.6506 365.89 71.5205 365.292 71.5205C364.628 71.5205 364.063 71.6766 363.595 71.9886C363.14 72.2877 362.795 72.7103 362.561 73.2563C362.327 73.7894 362.21 74.4135 362.21 75.1287V75.2457C362.21 76.4419 362.496 77.3521 363.068 77.9762C363.653 78.6003 364.479 78.9123 365.545 78.9123C365.987 78.9123 366.423 78.8538 366.852 78.7368C367.294 78.6198 367.723 78.4247 368.139 78.1517C368.321 78.0347 368.484 77.9827 368.627 77.9957C368.783 77.9957 368.906 78.0412 368.997 78.1322C369.088 78.2102 369.147 78.3142 369.173 78.4442C369.212 78.5613 369.199 78.6913 369.134 78.8343C369.082 78.9773 368.971 79.1009 368.802 79.2049C368.373 79.5169 367.866 79.7575 367.281 79.9265C366.696 80.0955 366.117 80.18 365.545 80.18ZM375.847 83.6907C375.158 83.6907 374.482 83.6061 373.819 83.4371C373.169 83.2811 372.577 83.0275 372.044 82.6765C371.888 82.5855 371.784 82.4749 371.732 82.3449C371.693 82.2149 371.687 82.0849 371.713 81.9549C371.739 81.8378 371.797 81.7273 371.888 81.6233C371.979 81.5323 372.083 81.4738 372.2 81.4478C372.33 81.4218 372.46 81.4413 372.59 81.5063C373.162 81.8573 373.708 82.0979 374.229 82.2279C374.749 82.3579 375.262 82.4229 375.769 82.4229C376.692 82.4229 377.388 82.1759 377.856 81.6818C378.337 81.1877 378.578 80.4726 378.578 79.5364V77.3326H378.773C378.578 78.0867 378.162 78.6848 377.525 79.1269C376.901 79.5689 376.166 79.79 375.321 79.79C374.45 79.79 373.695 79.5949 373.058 79.2049C372.421 78.8018 371.927 78.2427 371.576 77.5276C371.238 76.8125 371.069 75.9868 371.069 75.0507C371.069 74.3485 371.167 73.7114 371.362 73.1393C371.557 72.5542 371.836 72.0601 372.2 71.6571C372.577 71.241 373.026 70.9224 373.546 70.7014C374.079 70.4674 374.671 70.3503 375.321 70.3503C376.179 70.3503 376.92 70.5714 377.544 71.0135C378.168 71.4425 378.571 72.0276 378.753 72.7688L378.558 73.0028V71.189C378.558 70.9289 378.623 70.7339 378.753 70.6039C378.896 70.4609 379.091 70.3893 379.338 70.3893C379.598 70.3893 379.794 70.4609 379.924 70.6039C380.054 70.7339 380.119 70.9289 380.119 71.189V79.3219C380.119 80.7651 379.754 81.8508 379.026 82.579C378.311 83.3201 377.252 83.6907 375.847 83.6907ZM375.613 78.5028C376.224 78.5028 376.751 78.3662 377.193 78.0932C377.635 77.8071 377.973 77.4041 378.207 76.884C378.454 76.3639 378.578 75.7528 378.578 75.0507C378.578 73.9975 378.311 73.1653 377.778 72.5542C377.245 71.9301 376.523 71.6181 375.613 71.6181C375.015 71.6181 374.495 71.7611 374.053 72.0471C373.611 72.3202 373.266 72.7168 373.019 73.2368C372.785 73.7439 372.668 74.3485 372.668 75.0507C372.668 76.1038 372.935 76.9425 373.468 77.5666C374.001 78.1907 374.716 78.5028 375.613 78.5028ZM386.066 80.18C385.416 80.18 384.831 80.0565 384.311 79.8095C383.803 79.5494 383.4 79.1984 383.101 78.7563C382.802 78.3142 382.653 77.8201 382.653 77.274C382.653 76.5719 382.828 76.0193 383.179 75.6163C383.543 75.2132 384.135 74.9271 384.954 74.7581C385.786 74.5891 386.918 74.5046 388.348 74.5046H389.225V75.5382H388.367C387.314 75.5382 386.482 75.5903 385.871 75.6943C385.273 75.7853 384.85 75.9478 384.603 76.1819C384.369 76.4159 384.252 76.7475 384.252 77.1765C384.252 77.7096 384.434 78.1452 384.798 78.4833C385.175 78.8213 385.682 78.9903 386.319 78.9903C386.84 78.9903 387.295 78.8668 387.685 78.6198C388.088 78.3727 388.4 78.0347 388.621 77.6056C388.855 77.1765 388.972 76.6824 388.972 76.1233V73.9C388.972 73.0938 388.809 72.5152 388.484 72.1642C388.159 71.8001 387.626 71.6181 386.885 71.6181C386.43 71.6181 385.975 71.6766 385.52 71.7936C385.065 71.9106 384.584 72.0991 384.077 72.3592C383.894 72.4502 383.738 72.4827 383.608 72.4567C383.478 72.4177 383.374 72.3462 383.296 72.2422C383.218 72.1382 383.173 72.0211 383.16 71.8911C383.147 71.7481 383.173 71.6116 383.238 71.4815C383.316 71.3515 383.433 71.2475 383.589 71.1695C384.161 70.8834 384.727 70.6754 385.286 70.5454C385.845 70.4154 386.378 70.3503 386.885 70.3503C387.704 70.3503 388.38 70.4869 388.913 70.7599C389.446 71.02 389.843 71.423 390.103 71.9691C390.363 72.5022 390.493 73.1913 390.493 74.0365V79.3219C390.493 79.5819 390.428 79.7835 390.298 79.9265C390.181 80.0695 390.006 80.141 389.772 80.141C389.524 80.141 389.336 80.0695 389.206 79.9265C389.076 79.7835 389.011 79.5819 389.011 79.3219V77.8006H389.186C389.082 78.2947 388.881 78.7173 388.582 79.0684C388.296 79.4194 387.938 79.6925 387.509 79.8875C387.08 80.0825 386.599 80.18 386.066 80.18ZM398.222 80.18C397.364 80.18 396.623 79.959 395.998 79.5169C395.387 79.0749 394.978 78.4833 394.77 77.7421L394.984 77.5276V79.3219C394.984 79.5819 394.913 79.7835 394.77 79.9265C394.64 80.0695 394.451 80.141 394.204 80.141C393.944 80.141 393.749 80.0695 393.619 79.9265C393.489 79.7835 393.424 79.5819 393.424 79.3219V66.9177C393.424 66.6577 393.489 66.4627 393.619 66.3326C393.749 66.1896 393.944 66.1181 394.204 66.1181C394.451 66.1181 394.646 66.1896 394.789 66.3326C394.932 66.4627 395.004 66.6577 395.004 66.9177V72.7298H394.77C394.991 72.0016 395.407 71.423 396.018 70.994C396.629 70.5649 397.364 70.3503 398.222 70.3503C399.08 70.3503 399.821 70.5519 400.445 70.9549C401.069 71.345 401.55 71.9106 401.888 72.6517C402.24 73.3799 402.415 74.251 402.415 75.2652C402.415 76.2664 402.24 77.1375 401.888 77.8786C401.55 78.6068 401.063 79.1724 400.426 79.5754C399.802 79.9785 399.067 80.18 398.222 80.18ZM397.89 78.9123C398.488 78.9123 399.002 78.7693 399.431 78.4833C399.873 78.1972 400.211 77.7811 400.445 77.235C400.692 76.6889 400.816 76.0323 400.816 75.2652C400.816 74.082 400.549 73.1783 400.016 72.5542C399.496 71.9301 398.787 71.6181 397.89 71.6181C397.305 71.6181 396.792 71.7611 396.349 72.0471C395.907 72.3202 395.563 72.7298 395.316 73.2758C395.082 73.8089 394.965 74.4721 394.965 75.2652C394.965 76.4354 395.231 77.3391 395.764 77.9762C396.297 78.6003 397.006 78.9123 397.89 78.9123ZM407.681 80.18C406.745 80.18 406.03 79.894 405.536 79.3219C405.042 78.7498 404.795 77.9307 404.795 76.8645V66.9177C404.795 66.6577 404.86 66.4627 404.99 66.3326C405.12 66.1896 405.315 66.1181 405.575 66.1181C405.822 66.1181 406.017 66.1896 406.16 66.3326C406.303 66.4627 406.374 66.6577 406.374 66.9177V76.7475C406.374 77.4496 406.511 77.9762 406.784 78.3272C407.07 78.6653 407.486 78.8343 408.032 78.8343C408.149 78.8343 408.253 78.8278 408.344 78.8148C408.435 78.8018 408.526 78.7953 408.617 78.7953C408.76 78.7823 408.858 78.8148 408.91 78.8928C408.975 78.9708 409.007 79.1269 409.007 79.3609C409.007 79.5949 408.955 79.7705 408.851 79.8875C408.747 80.0045 408.578 80.0825 408.344 80.1215C408.24 80.1345 408.13 80.1475 408.013 80.1605C407.896 80.1735 407.785 80.18 407.681 80.18ZM414.742 80.18C413.74 80.18 412.876 79.985 412.148 79.5949C411.433 79.1919 410.873 78.6263 410.47 77.8982C410.08 77.17 409.885 76.2989 409.885 75.2847C409.885 74.2965 410.08 73.4384 410.47 72.7103C410.86 71.9691 411.394 71.3905 412.07 70.9744C412.759 70.5584 413.552 70.3503 414.449 70.3503C415.086 70.3503 415.658 70.4609 416.165 70.6819C416.672 70.8899 417.102 71.1955 417.453 71.5986C417.817 72.0016 418.09 72.4892 418.272 73.0613C418.467 73.6334 418.564 74.277 418.564 74.9921C418.564 75.2002 418.506 75.3562 418.389 75.4602C418.272 75.5512 418.103 75.5968 417.882 75.5968H411.095V74.5631H417.511L417.199 74.8166C417.199 74.1145 417.095 73.5229 416.887 73.0418C416.679 72.5477 416.373 72.1707 415.97 71.9106C415.58 71.6506 415.086 71.5205 414.488 71.5205C413.825 71.5205 413.259 71.6766 412.791 71.9886C412.336 72.2877 411.992 72.7103 411.758 73.2563C411.524 73.7894 411.407 74.4135 411.407 75.1287V75.2457C411.407 76.4419 411.693 77.3521 412.265 77.9762C412.85 78.6003 413.675 78.9123 414.742 78.9123C415.184 78.9123 415.619 78.8538 416.048 78.7368C416.49 78.6198 416.92 78.4247 417.336 78.1517C417.518 78.0347 417.68 77.9827 417.823 77.9957C417.979 77.9957 418.103 78.0412 418.194 78.1322C418.285 78.2102 418.343 78.3142 418.369 78.4442C418.408 78.5613 418.395 78.6913 418.33 78.8343C418.278 78.9773 418.168 79.1009 417.999 79.2049C417.57 79.5169 417.063 79.7575 416.477 79.9265C415.892 80.0955 415.314 80.18 414.742 80.18Z" fill="#274986"/>
<path d="M441.035 70.7539L436.831 74.958L432.627 70.7539C432.204 70.3314 431.522 70.3314 431.099 70.7539C430.677 71.1765 430.677 71.8591 431.099 72.2817L436.072 77.2551C436.495 77.6776 437.178 77.6776 437.6 77.2551L442.574 72.2817C442.996 71.8591 442.996 71.1765 442.574 70.7539C442.151 70.3422 441.458 70.3314 441.035 70.7539Z" fill="#274986"/>
</svg>
