<svg width="728" height="435" viewBox="0 0 728 435" fill="none" xmlns="http://www.w3.org/2000/svg">
<rect x="0.5" y="0.5" width="727" height="433.059" rx="7.5" fill="#F3F6F9"/>
<rect x="0.5" y="0.5" width="727" height="433.059" rx="7.5" stroke="#E6EBF0"/>
<rect x="175.467" y="48" width="197.682" height="52.009" rx="8.66817" fill="#274986"/>
<path d="M192.804 80.5056H210.14C210.736 80.5056 211.223 80.0181 211.223 79.4221C211.223 78.8262 210.736 78.3386 210.14 78.3386H192.804C192.208 78.3386 191.72 78.8262 191.72 79.4221C191.72 80.0181 192.208 80.5056 192.804 80.5056ZM192.804 75.088H210.14C210.736 75.088 211.223 74.6005 211.223 74.0045C211.223 73.4086 210.736 72.921 210.14 72.921H192.804C192.208 72.921 191.72 73.4086 191.72 74.0045C191.72 74.6005 192.208 75.088 192.804 75.088ZM191.72 68.5869C191.72 69.1828 192.208 69.6704 192.804 69.6704H210.14C210.736 69.6704 211.223 69.1828 211.223 68.5869C211.223 67.991 210.736 67.5034 210.14 67.5034H192.804C192.208 67.5034 191.72 67.991 191.72 68.5869Z" fill="white"/>
<path d="M221.383 80.0023C221.097 80.0023 220.875 79.9307 220.719 79.7877C220.576 79.6317 220.505 79.4107 220.505 79.1246V67.13C220.505 66.844 220.576 66.6294 220.719 66.4864C220.875 66.3304 221.097 66.2524 221.383 66.2524H225.147C227.37 66.2524 229.086 66.8375 230.296 68.0077C231.505 69.1779 232.109 70.8812 232.109 73.1176C232.109 74.2358 231.953 75.2239 231.641 76.0821C231.342 76.9272 230.894 77.6423 230.296 78.2275C229.698 78.8126 228.969 79.2546 228.111 79.5537C227.253 79.8527 226.265 80.0023 225.147 80.0023H221.383ZM222.104 78.637H225.03C225.94 78.637 226.727 78.52 227.39 78.286C228.066 78.0519 228.625 77.7074 229.067 77.2523C229.522 76.7972 229.86 76.2251 230.081 75.536C230.302 74.8339 230.413 74.0277 230.413 73.1176C230.413 71.2842 229.964 69.9125 229.067 69.0023C228.17 68.0792 226.824 67.6176 225.03 67.6176H222.104V78.637ZM239.037 80.1778C238.036 80.1778 237.171 79.9828 236.443 79.5927C235.728 79.1896 235.169 78.624 234.766 77.8959C234.375 77.1678 234.18 76.2966 234.18 75.2824C234.18 74.2943 234.375 73.4361 234.766 72.708C235.156 71.9669 235.689 71.3883 236.365 70.9722C237.054 70.5561 237.847 70.3481 238.744 70.3481C239.381 70.3481 239.953 70.4586 240.461 70.6796C240.968 70.8877 241.397 71.1932 241.748 71.5963C242.112 71.9994 242.385 72.487 242.567 73.0591C242.762 73.6312 242.859 74.2748 242.859 74.9899C242.859 75.1979 242.801 75.354 242.684 75.458C242.567 75.549 242.398 75.5945 242.177 75.5945H235.39V74.5608H241.806L241.494 74.8144C241.494 74.1122 241.39 73.5206 241.182 73.0395C240.974 72.5455 240.669 72.1684 240.266 71.9084C239.875 71.6483 239.381 71.5183 238.783 71.5183C238.12 71.5183 237.555 71.6743 237.086 71.9864C236.631 72.2854 236.287 72.708 236.053 73.2541C235.819 73.7872 235.702 74.4113 235.702 75.1264V75.2434C235.702 76.4396 235.988 77.3498 236.56 77.9739C237.145 78.598 237.971 78.9101 239.037 78.9101C239.479 78.9101 239.914 78.8516 240.344 78.7345C240.786 78.6175 241.215 78.4225 241.631 78.1494C241.813 78.0324 241.975 77.9804 242.118 77.9934C242.274 77.9934 242.398 78.0389 242.489 78.1299C242.58 78.2079 242.638 78.312 242.664 78.442C242.703 78.559 242.69 78.689 242.625 78.8321C242.573 78.9751 242.463 79.0986 242.294 79.2026C241.865 79.5147 241.358 79.7552 240.773 79.9242C240.188 80.0933 239.609 80.1778 239.037 80.1778ZM248.344 80.1778C247.759 80.1778 247.168 80.1063 246.57 79.9633C245.984 79.8202 245.438 79.5732 244.931 79.2221C244.801 79.1311 244.71 79.0271 244.658 78.9101C244.606 78.78 244.587 78.6565 244.6 78.5395C244.626 78.4095 244.678 78.299 244.756 78.2079C244.847 78.1169 244.951 78.0649 245.068 78.0519C245.198 78.0259 245.341 78.0519 245.497 78.1299C246.004 78.442 246.492 78.663 246.96 78.793C247.441 78.9101 247.915 78.9686 248.383 78.9686C249.124 78.9686 249.684 78.8321 250.061 78.559C250.438 78.286 250.626 77.9154 250.626 77.4473C250.626 77.0833 250.503 76.7972 250.256 76.5892C250.009 76.3681 249.619 76.1991 249.085 76.0821L247.311 75.692C246.492 75.523 245.88 75.2304 245.477 74.8144C245.087 74.3983 244.892 73.8587 244.892 73.1956C244.892 72.6105 245.042 72.1099 245.341 71.6938C245.653 71.2647 246.088 70.9332 246.648 70.6991C247.207 70.4651 247.857 70.3481 248.598 70.3481C249.17 70.3481 249.71 70.4261 250.217 70.5821C250.737 70.7251 251.205 70.9592 251.621 71.2842C251.751 71.3753 251.835 71.4858 251.874 71.6158C251.926 71.7328 251.933 71.8563 251.894 71.9864C251.868 72.1034 251.809 72.2074 251.718 72.2984C251.627 72.3764 251.517 72.4219 251.387 72.4349C251.257 72.4479 251.12 72.4089 250.977 72.3179C250.587 72.0579 250.191 71.8693 249.788 71.7523C249.385 71.6223 248.988 71.5573 248.598 71.5573C247.87 71.5573 247.317 71.7003 246.94 71.9864C246.563 72.2724 246.374 72.6495 246.374 73.1176C246.374 73.4816 246.492 73.7807 246.726 74.0147C246.96 74.2488 247.324 74.4178 247.818 74.5218L249.593 74.8924C250.438 75.0744 251.068 75.367 251.484 75.77C251.913 76.1601 252.128 76.6932 252.128 77.3693C252.128 78.2275 251.783 78.9101 251.094 79.4172C250.405 79.9242 249.489 80.1778 248.344 80.1778ZM255.316 83.6494C255.056 83.6494 254.861 83.5779 254.731 83.4349C254.601 83.3048 254.536 83.1098 254.536 82.8498V71.1867C254.536 70.9267 254.601 70.7316 254.731 70.6016C254.861 70.4586 255.049 70.3871 255.296 70.3871C255.556 70.3871 255.751 70.4586 255.881 70.6016C256.024 70.7316 256.096 70.9267 256.096 71.1867V73.0395L255.881 72.7665C256.089 72.0254 256.499 71.4403 257.11 71.0112C257.734 70.5691 258.475 70.3481 259.333 70.3481C260.179 70.3481 260.913 70.5496 261.537 70.9527C262.174 71.3428 262.662 71.9084 263 72.6495C263.351 73.3776 263.527 74.2488 263.527 75.2629C263.527 76.2641 263.351 77.1353 263 77.8764C262.662 78.6045 262.181 79.1701 261.557 79.5732C260.933 79.9763 260.192 80.1778 259.333 80.1778C258.475 80.1778 257.741 79.9633 257.13 79.5342C256.518 79.0921 256.102 78.507 255.881 77.7789H256.115V82.8498C256.115 83.1098 256.044 83.3048 255.901 83.4349C255.758 83.5779 255.563 83.6494 255.316 83.6494ZM259.002 78.9101C259.6 78.9101 260.114 78.767 260.543 78.481C260.985 78.1949 261.323 77.7789 261.557 77.2328C261.804 76.6867 261.927 76.0301 261.927 75.2629C261.927 74.0797 261.661 73.1761 261.128 72.552C260.608 71.9279 259.899 71.6158 259.002 71.6158C258.417 71.6158 257.903 71.7588 257.461 72.0449C257.019 72.3179 256.674 72.7275 256.427 73.2736C256.193 73.8067 256.076 74.4698 256.076 75.2629C256.076 76.4331 256.343 77.3368 256.876 77.9739C257.409 78.598 258.118 78.9101 259.002 78.9101ZM268.793 80.1778C267.857 80.1778 267.141 79.8917 266.647 79.3196C266.153 78.7475 265.906 77.9284 265.906 76.8622V66.9155C265.906 66.6554 265.971 66.4604 266.101 66.3304C266.231 66.1874 266.426 66.1158 266.686 66.1158C266.933 66.1158 267.128 66.1874 267.271 66.3304C267.414 66.4604 267.486 66.6554 267.486 66.9155V76.7452C267.486 77.4473 267.623 77.9739 267.896 78.325C268.182 78.663 268.598 78.8321 269.144 78.8321C269.261 78.8321 269.365 78.8256 269.456 78.8126C269.547 78.7995 269.638 78.793 269.729 78.793C269.872 78.78 269.969 78.8126 270.021 78.8906C270.086 78.9686 270.119 79.1246 270.119 79.3586C270.119 79.5927 270.067 79.7682 269.963 79.8852C269.859 80.0023 269.69 80.0803 269.456 80.1193C269.352 80.1323 269.241 80.1453 269.124 80.1583C269.007 80.1713 268.897 80.1778 268.793 80.1778ZM275.853 80.1778C274.852 80.1778 273.987 79.9828 273.259 79.5927C272.544 79.1896 271.985 78.624 271.582 77.8959C271.192 77.1678 270.997 76.2966 270.997 75.2824C270.997 74.2943 271.192 73.4361 271.582 72.708C271.972 71.9669 272.505 71.3883 273.181 70.9722C273.87 70.5561 274.664 70.3481 275.561 70.3481C276.198 70.3481 276.77 70.4586 277.277 70.6796C277.784 70.8877 278.213 71.1932 278.564 71.5963C278.928 71.9994 279.201 72.487 279.383 73.0591C279.578 73.6312 279.676 74.2748 279.676 74.9899C279.676 75.1979 279.617 75.354 279.5 75.458C279.383 75.549 279.214 75.5945 278.993 75.5945H272.206V74.5608H278.623L278.311 74.8144C278.311 74.1122 278.207 73.5206 277.999 73.0395C277.791 72.5455 277.485 72.1684 277.082 71.9084C276.692 71.6483 276.198 71.5183 275.6 71.5183C274.937 71.5183 274.371 71.6743 273.903 71.9864C273.448 72.2854 273.103 72.708 272.869 73.2541C272.635 73.7872 272.518 74.4113 272.518 75.1264V75.2434C272.518 76.4396 272.804 77.3498 273.376 77.9739C273.961 78.598 274.787 78.9101 275.853 78.9101C276.295 78.9101 276.731 78.8516 277.16 78.7345C277.602 78.6175 278.031 78.4225 278.447 78.1494C278.629 78.0324 278.792 77.9804 278.935 77.9934C279.091 77.9934 279.214 78.0389 279.305 78.1299C279.396 78.2079 279.455 78.312 279.481 78.442C279.52 78.559 279.507 78.689 279.442 78.8321C279.39 78.9751 279.279 79.0986 279.11 79.2026C278.681 79.5147 278.174 79.7552 277.589 79.9242C277.004 80.0933 276.425 80.1778 275.853 80.1778ZM286.155 83.6884C285.466 83.6884 284.79 83.6039 284.127 83.4349C283.477 83.2788 282.885 83.0253 282.352 82.6742C282.196 82.5832 282.092 82.4727 282.04 82.3427C282.001 82.2126 281.995 82.0826 282.021 81.9526C282.047 81.8356 282.105 81.7251 282.196 81.621C282.287 81.53 282.391 81.4715 282.508 81.4455C282.638 81.4195 282.768 81.439 282.898 81.504C283.47 81.8551 284.017 82.0956 284.537 82.2256C285.057 82.3557 285.57 82.4207 286.077 82.4207C287.001 82.4207 287.696 82.1736 288.164 81.6795C288.645 81.1855 288.886 80.4703 288.886 79.5342V77.3303H289.081C288.886 78.0844 288.47 78.6825 287.833 79.1246C287.209 79.5667 286.474 79.7877 285.629 79.7877C284.758 79.7877 284.004 79.5927 283.366 79.2026C282.729 78.7995 282.235 78.2405 281.884 77.5253C281.546 76.8102 281.377 75.9846 281.377 75.0484C281.377 74.3463 281.475 73.7092 281.67 73.1371C281.865 72.552 282.144 72.0579 282.508 71.6548C282.885 71.2387 283.334 70.9202 283.854 70.6991C284.387 70.4651 284.979 70.3481 285.629 70.3481C286.487 70.3481 287.228 70.5691 287.852 71.0112C288.476 71.4403 288.879 72.0254 289.061 72.7665L288.866 73.0005V71.1867C288.866 70.9267 288.931 70.7316 289.061 70.6016C289.204 70.4586 289.4 70.3871 289.647 70.3871C289.907 70.3871 290.102 70.4586 290.232 70.6016C290.362 70.7316 290.427 70.9267 290.427 71.1867V79.3196C290.427 80.7629 290.063 81.8486 289.335 82.5767C288.619 83.3178 287.56 83.6884 286.155 83.6884ZM285.921 78.5005C286.533 78.5005 287.059 78.364 287.501 78.0909C287.943 77.8049 288.281 77.4018 288.515 76.8817C288.762 76.3616 288.886 75.7505 288.886 75.0484C288.886 73.9952 288.619 73.1631 288.086 72.552C287.553 71.9279 286.832 71.6158 285.921 71.6158C285.323 71.6158 284.803 71.7588 284.361 72.0449C283.919 72.3179 283.575 72.7145 283.327 73.2346C283.093 73.7417 282.976 74.3463 282.976 75.0484C282.976 76.1016 283.243 76.9402 283.776 77.5643C284.309 78.1884 285.024 78.5005 285.921 78.5005ZM296.374 80.1778C295.724 80.1778 295.139 80.0543 294.619 79.8072C294.112 79.5472 293.709 79.1961 293.409 78.754C293.11 78.312 292.961 77.8179 292.961 77.2718C292.961 76.5697 293.136 76.0171 293.488 75.614C293.852 75.2109 294.443 74.9249 295.262 74.7558C296.094 74.5868 297.226 74.5023 298.656 74.5023H299.534V75.536H298.675C297.622 75.536 296.79 75.588 296.179 75.692C295.581 75.783 295.158 75.9456 294.911 76.1796C294.677 76.4136 294.56 76.7452 294.56 77.1743C294.56 77.7074 294.742 78.1429 295.106 78.481C295.483 78.8191 295.99 78.9881 296.628 78.9881C297.148 78.9881 297.603 78.8646 297.993 78.6175C298.396 78.3705 298.708 78.0324 298.929 77.6033C299.163 77.1743 299.28 76.6802 299.28 76.1211V73.8977C299.28 73.0916 299.117 72.513 298.792 72.1619C298.467 71.7978 297.934 71.6158 297.193 71.6158C296.738 71.6158 296.283 71.6743 295.828 71.7913C295.373 71.9084 294.892 72.0969 294.385 72.3569C294.203 72.4479 294.047 72.4805 293.917 72.4544C293.787 72.4154 293.683 72.3439 293.605 72.2399C293.527 72.1359 293.481 72.0189 293.468 71.8889C293.455 71.7458 293.481 71.6093 293.546 71.4793C293.624 71.3493 293.741 71.2452 293.897 71.1672C294.469 70.8812 295.035 70.6731 295.594 70.5431C296.153 70.4131 296.686 70.3481 297.193 70.3481C298.012 70.3481 298.688 70.4846 299.221 70.7577C299.755 71.0177 300.151 71.4208 300.411 71.9669C300.671 72.5 300.801 73.1891 300.801 74.0342V79.3196C300.801 79.5797 300.736 79.7812 300.606 79.9242C300.489 80.0673 300.314 80.1388 300.08 80.1388C299.833 80.1388 299.644 80.0673 299.514 79.9242C299.384 79.7812 299.319 79.5797 299.319 79.3196V77.7984H299.495C299.391 78.2925 299.189 78.715 298.89 79.0661C298.604 79.4172 298.246 79.6902 297.817 79.8852C297.388 80.0803 296.907 80.1778 296.374 80.1778ZM308.53 80.1778C307.672 80.1778 306.931 79.9568 306.307 79.5147C305.695 79.0726 305.286 78.481 305.078 77.7399L305.292 77.5253V79.3196C305.292 79.5797 305.221 79.7812 305.078 79.9242C304.948 80.0673 304.759 80.1388 304.512 80.1388C304.252 80.1388 304.057 80.0673 303.927 79.9242C303.797 79.7812 303.732 79.5797 303.732 79.3196V66.9155C303.732 66.6554 303.797 66.4604 303.927 66.3304C304.057 66.1874 304.252 66.1158 304.512 66.1158C304.759 66.1158 304.954 66.1874 305.097 66.3304C305.24 66.4604 305.312 66.6554 305.312 66.9155V72.7275H305.078C305.299 71.9994 305.715 71.4208 306.326 70.9917C306.937 70.5626 307.672 70.3481 308.53 70.3481C309.388 70.3481 310.129 70.5496 310.753 70.9527C311.377 71.3428 311.859 71.9084 312.197 72.6495C312.548 73.3776 312.723 74.2488 312.723 75.2629C312.723 76.2641 312.548 77.1353 312.197 77.8764C311.859 78.6045 311.371 79.1701 310.734 79.5732C310.11 79.9763 309.375 80.1778 308.53 80.1778ZM308.198 78.9101C308.796 78.9101 309.31 78.767 309.739 78.481C310.181 78.1949 310.519 77.7789 310.753 77.2328C311 76.6867 311.124 76.0301 311.124 75.2629C311.124 74.0797 310.857 73.1761 310.324 72.552C309.804 71.9279 309.096 71.6158 308.198 71.6158C307.613 71.6158 307.1 71.7588 306.658 72.0449C306.216 72.3179 305.871 72.7275 305.624 73.2736C305.39 73.8067 305.273 74.4698 305.273 75.2629C305.273 76.4331 305.539 77.3368 306.073 77.9739C306.606 78.598 307.314 78.9101 308.198 78.9101ZM317.989 80.1778C317.053 80.1778 316.338 79.8917 315.844 79.3196C315.35 78.7475 315.103 77.9284 315.103 76.8622V66.9155C315.103 66.6554 315.168 66.4604 315.298 66.3304C315.428 66.1874 315.623 66.1158 315.883 66.1158C316.13 66.1158 316.325 66.1874 316.468 66.3304C316.611 66.4604 316.683 66.6554 316.683 66.9155V76.7452C316.683 77.4473 316.819 77.9739 317.092 78.325C317.378 78.663 317.794 78.8321 318.34 78.8321C318.457 78.8321 318.561 78.8256 318.652 78.8126C318.743 78.7995 318.834 78.793 318.925 78.793C319.068 78.78 319.166 78.8126 319.218 78.8906C319.283 78.9686 319.315 79.1246 319.315 79.3586C319.315 79.5927 319.263 79.7682 319.159 79.8852C319.055 80.0023 318.886 80.0803 318.652 80.1193C318.548 80.1323 318.438 80.1453 318.321 80.1583C318.204 80.1713 318.093 80.1778 317.989 80.1778ZM325.05 80.1778C324.049 80.1778 323.184 79.9828 322.456 79.5927C321.741 79.1896 321.182 78.624 320.779 77.8959C320.388 77.1678 320.193 76.2966 320.193 75.2824C320.193 74.2943 320.388 73.4361 320.779 72.708C321.169 71.9669 321.702 71.3883 322.378 70.9722C323.067 70.5561 323.86 70.3481 324.757 70.3481C325.394 70.3481 325.966 70.4586 326.474 70.6796C326.981 70.8877 327.41 71.1932 327.761 71.5963C328.125 71.9994 328.398 72.487 328.58 73.0591C328.775 73.6312 328.872 74.2748 328.872 74.9899C328.872 75.1979 328.814 75.354 328.697 75.458C328.58 75.549 328.411 75.5945 328.19 75.5945H321.403V74.5608H327.819L327.507 74.8144C327.507 74.1122 327.403 73.5206 327.195 73.0395C326.987 72.5455 326.682 72.1684 326.278 71.9084C325.888 71.6483 325.394 71.5183 324.796 71.5183C324.133 71.5183 323.568 71.6743 323.099 71.9864C322.644 72.2854 322.3 72.708 322.066 73.2541C321.832 73.7872 321.715 74.4113 321.715 75.1264V75.2434C321.715 76.4396 322.001 77.3498 322.573 77.9739C323.158 78.598 323.984 78.9101 325.05 78.9101C325.492 78.9101 325.927 78.8516 326.356 78.7345C326.799 78.6175 327.228 78.4225 327.644 78.1494C327.826 78.0324 327.988 77.9804 328.131 77.9934C328.287 77.9934 328.411 78.0389 328.502 78.1299C328.593 78.2079 328.651 78.312 328.677 78.442C328.716 78.559 328.703 78.689 328.638 78.8321C328.586 78.9751 328.476 79.0986 328.307 79.2026C327.878 79.5147 327.371 79.7552 326.786 79.9242C326.2 80.0933 325.622 80.1778 325.05 80.1778Z" fill="white"/>
<path d="M346.381 70.7539L341.407 75.7273C340.985 76.1499 340.985 76.8325 341.407 77.2551C341.83 77.6777 342.512 77.6777 342.935 77.2551L347.15 73.051L351.354 77.2551C351.777 77.6777 352.459 77.6777 352.882 77.2551C353.304 76.8325 353.304 76.1499 352.882 75.7273L347.908 70.7539C347.497 70.3314 346.803 70.3314 346.381 70.7539Z" fill="white"/>
<rect x="174.384" y="107.594" width="379.232" height="279.549" rx="9.75169" fill="white"/>
<rect x="174.384" y="107.594" width="379.232" height="279.549" rx="9.75169" stroke="#E6EBF0" stroke-width="2.16704"/>
<rect x="175.467" y="108.677" width="377.065" height="52.009" rx="8.66817" fill="white"/>
<path d="M200.896 135.477C200.896 136.431 200.775 137.3 200.532 138.084C200.29 138.863 199.928 139.534 199.449 140.099C198.975 140.657 198.385 141.089 197.679 141.394C196.974 141.699 196.156 141.851 195.225 141.851C194.265 141.851 193.427 141.699 192.711 141.394C191.999 141.089 191.407 140.655 190.933 140.09C190.464 139.526 190.112 138.852 189.875 138.067C189.643 137.283 189.528 136.414 189.528 135.46C189.528 134.196 189.736 133.087 190.154 132.133C190.572 131.179 191.204 130.437 192.05 129.907C192.902 129.376 193.969 129.111 195.25 129.111C196.475 129.111 197.505 129.374 198.34 129.898C199.181 130.423 199.815 131.163 200.244 132.116C200.679 133.064 200.896 134.185 200.896 135.477ZM191.043 135.477C191.043 136.527 191.192 137.435 191.492 138.203C191.791 138.97 192.248 139.563 192.863 139.98C193.484 140.398 194.271 140.607 195.225 140.607C196.184 140.607 196.968 140.398 197.578 139.98C198.193 139.563 198.647 138.97 198.941 138.203C199.234 137.435 199.381 136.527 199.381 135.477C199.381 133.88 199.045 132.633 198.374 131.735C197.708 130.832 196.666 130.381 195.25 130.381C194.291 130.381 193.501 130.587 192.88 130.999C192.259 131.411 191.796 131.998 191.492 132.76C191.192 133.516 191.043 134.422 191.043 135.477ZM207.804 132.235C208.961 132.235 209.883 132.633 210.572 133.428C211.26 134.224 211.604 135.42 211.604 137.017C211.604 138.073 211.446 138.959 211.13 139.676C210.814 140.392 210.369 140.934 209.793 141.301C209.223 141.668 208.549 141.851 207.77 141.851C207.279 141.851 206.847 141.786 206.475 141.656C206.102 141.527 205.783 141.352 205.518 141.131C205.253 140.911 205.033 140.672 204.858 140.412H204.756C204.773 140.632 204.793 140.897 204.815 141.208C204.844 141.518 204.858 141.789 204.858 142.02V145.83H203.444V132.404H204.604L204.79 133.775H204.858C205.038 133.493 205.258 133.236 205.518 133.005C205.778 132.768 206.094 132.582 206.466 132.446C206.844 132.305 207.29 132.235 207.804 132.235ZM207.558 133.42C206.915 133.42 206.396 133.544 206.001 133.792C205.611 134.041 205.326 134.413 205.146 134.91C204.965 135.401 204.869 136.019 204.858 136.764V137.034C204.858 137.819 204.942 138.482 205.112 139.024C205.287 139.565 205.572 139.977 205.967 140.26C206.367 140.542 206.904 140.683 207.575 140.683C208.151 140.683 208.63 140.528 209.014 140.217C209.398 139.907 209.683 139.475 209.869 138.922C210.061 138.363 210.157 137.723 210.157 137.001C210.157 135.906 209.942 135.037 209.514 134.393C209.09 133.744 208.439 133.42 207.558 133.42ZM217.775 141.851C216.94 141.851 216.204 141.679 215.566 141.335C214.928 140.99 214.432 140.466 214.076 139.76C213.721 139.055 213.543 138.166 213.543 137.094C213.543 135.971 213.729 135.054 214.102 134.343C214.48 133.626 214.999 133.095 215.659 132.751C216.319 132.407 217.07 132.235 217.911 132.235C218.374 132.235 218.819 132.283 219.248 132.379C219.683 132.469 220.038 132.585 220.315 132.726L219.892 133.902C219.609 133.79 219.282 133.688 218.91 133.598C218.543 133.507 218.199 133.462 217.877 133.462C217.234 133.462 216.698 133.6 216.269 133.877C215.845 134.154 215.527 134.56 215.312 135.096C215.103 135.632 214.999 136.292 214.999 137.077C214.999 137.827 215.1 138.468 215.304 138.998C215.512 139.529 215.82 139.935 216.226 140.217C216.638 140.494 217.152 140.632 217.767 140.632C218.258 140.632 218.701 140.581 219.096 140.48C219.491 140.372 219.849 140.248 220.171 140.107V141.36C219.861 141.518 219.514 141.639 219.13 141.724C218.752 141.809 218.3 141.851 217.775 141.851ZM223.777 132.404V141.682H222.372V132.404H223.777ZM223.091 128.933C223.323 128.933 223.52 129.01 223.684 129.162C223.853 129.309 223.938 129.54 223.938 129.856C223.938 130.166 223.853 130.398 223.684 130.55C223.52 130.703 223.323 130.779 223.091 130.779C222.849 130.779 222.646 130.703 222.482 130.55C222.324 130.398 222.245 130.166 222.245 129.856C222.245 129.54 222.324 129.309 222.482 129.162C222.646 129.01 222.849 128.933 223.091 128.933ZM234.756 137.026C234.756 137.788 234.657 138.468 234.46 139.066C234.262 139.664 233.977 140.169 233.605 140.581C233.233 140.993 232.781 141.309 232.251 141.529C231.726 141.744 231.13 141.851 230.464 141.851C229.844 141.851 229.274 141.744 228.755 141.529C228.241 141.309 227.795 140.993 227.417 140.581C227.045 140.169 226.754 139.664 226.545 139.066C226.342 138.468 226.24 137.788 226.24 137.026C226.24 136.01 226.413 135.147 226.757 134.436C227.101 133.719 227.592 133.174 228.23 132.802C228.873 132.424 229.638 132.235 230.524 132.235C231.37 132.235 232.109 132.424 232.742 132.802C233.379 133.18 233.873 133.727 234.223 134.444C234.578 135.155 234.756 136.016 234.756 137.026ZM227.696 137.026C227.696 137.771 227.795 138.417 227.993 138.964C228.19 139.512 228.495 139.935 228.907 140.234C229.319 140.533 229.849 140.683 230.498 140.683C231.142 140.683 231.669 140.533 232.081 140.234C232.499 139.935 232.806 139.512 233.004 138.964C233.201 138.417 233.3 137.771 233.3 137.026C233.3 136.287 233.201 135.649 233.004 135.113C232.806 134.571 232.502 134.154 232.09 133.86C231.678 133.567 231.144 133.42 230.49 133.42C229.525 133.42 228.817 133.739 228.365 134.376C227.919 135.014 227.696 135.897 227.696 137.026ZM232.953 128.4V128.569C232.84 128.733 232.685 128.931 232.488 129.162C232.296 129.388 232.081 129.628 231.844 129.881C231.607 130.13 231.367 130.367 231.125 130.593C230.888 130.818 230.668 131.013 230.464 131.177H229.525V130.973C229.705 130.759 229.903 130.502 230.117 130.203C230.332 129.898 230.541 129.588 230.744 129.272C230.947 128.95 231.116 128.66 231.252 128.4H232.953ZM241.579 132.235C242.679 132.235 243.512 132.506 244.076 133.047C244.641 133.584 244.923 134.447 244.923 135.638V141.682H243.534V135.731C243.534 134.958 243.357 134.379 243.001 133.995C242.651 133.612 242.112 133.42 241.384 133.42C240.357 133.42 239.635 133.71 239.217 134.292C238.8 134.873 238.591 135.717 238.591 136.823V141.682H237.186V132.404H238.32L238.532 133.742H238.608C238.805 133.414 239.056 133.141 239.361 132.92C239.666 132.695 240.007 132.525 240.385 132.413C240.764 132.294 241.161 132.235 241.579 132.235ZM255.893 132.235C256.683 132.235 257.361 132.41 257.925 132.76C258.489 133.109 258.921 133.6 259.22 134.233C259.519 134.859 259.669 135.593 259.669 136.433V137.305H253.261C253.278 138.394 253.549 139.224 254.073 139.794C254.598 140.364 255.337 140.649 256.291 140.649C256.878 140.649 257.397 140.595 257.849 140.488C258.3 140.381 258.769 140.223 259.254 140.014V141.25C258.786 141.459 258.32 141.611 257.857 141.707C257.4 141.803 256.858 141.851 256.232 141.851C255.34 141.851 254.562 141.67 253.896 141.309C253.235 140.942 252.722 140.406 252.355 139.701C251.988 138.995 251.805 138.132 251.805 137.111C251.805 136.112 251.971 135.248 252.304 134.52C252.643 133.787 253.117 133.222 253.726 132.827C254.341 132.432 255.064 132.235 255.893 132.235ZM255.876 133.386C255.126 133.386 254.528 133.631 254.082 134.122C253.636 134.613 253.371 135.299 253.286 136.179H258.196C258.19 135.626 258.103 135.141 257.933 134.723C257.77 134.3 257.519 133.973 257.18 133.742C256.841 133.505 256.407 133.386 255.876 133.386ZM266.449 132.235C267.55 132.235 268.382 132.506 268.946 133.047C269.511 133.584 269.793 134.447 269.793 135.638V141.682H268.405V135.731C268.405 134.958 268.227 134.379 267.871 133.995C267.521 133.612 266.983 133.42 266.255 133.42C265.227 133.42 264.505 133.71 264.087 134.292C263.67 134.873 263.461 135.717 263.461 136.823V141.682H262.056V132.404H263.19L263.402 133.742H263.478C263.676 133.414 263.927 133.141 264.231 132.92C264.536 132.695 264.878 132.525 265.256 132.413C265.634 132.294 266.032 132.235 266.449 132.235ZM280.907 141.851C280.072 141.851 279.336 141.679 278.698 141.335C278.06 140.99 277.564 140.466 277.208 139.76C276.853 139.055 276.675 138.166 276.675 137.094C276.675 135.971 276.861 135.054 277.234 134.343C277.612 133.626 278.131 133.095 278.791 132.751C279.451 132.407 280.202 132.235 281.043 132.235C281.506 132.235 281.951 132.283 282.38 132.379C282.815 132.469 283.17 132.585 283.447 132.726L283.024 133.902C282.742 133.79 282.414 133.688 282.042 133.598C281.675 133.507 281.331 133.462 281.009 133.462C280.366 133.462 279.83 133.6 279.401 133.877C278.977 134.154 278.659 134.56 278.444 135.096C278.235 135.632 278.131 136.292 278.131 137.077C278.131 137.827 278.233 138.468 278.436 138.998C278.644 139.529 278.952 139.935 279.358 140.217C279.77 140.494 280.284 140.632 280.899 140.632C281.39 140.632 281.833 140.581 282.228 140.48C282.623 140.372 282.981 140.248 283.303 140.107V141.36C282.993 141.518 282.646 141.639 282.262 141.724C281.884 141.809 281.432 141.851 280.907 141.851ZM288.975 132.252C290.081 132.252 290.902 132.5 291.438 132.997C291.974 133.493 292.242 134.286 292.242 135.375V141.682H291.218L290.947 140.31H290.879C290.62 140.649 290.349 140.934 290.067 141.165C289.784 141.391 289.457 141.563 289.085 141.682C288.718 141.795 288.266 141.851 287.73 141.851C287.166 141.851 286.664 141.752 286.223 141.555C285.789 141.357 285.445 141.058 285.191 140.657C284.942 140.257 284.818 139.749 284.818 139.134C284.818 138.208 285.185 137.497 285.919 137.001C286.652 136.504 287.77 136.233 289.271 136.188L290.871 136.12V135.553C290.871 134.752 290.699 134.19 290.354 133.869C290.01 133.547 289.525 133.386 288.898 133.386C288.413 133.386 287.95 133.457 287.51 133.598C287.07 133.739 286.652 133.905 286.257 134.097L285.826 133.03C286.243 132.816 286.723 132.633 287.265 132.48C287.806 132.328 288.376 132.252 288.975 132.252ZM290.854 137.111L289.44 137.17C288.283 137.215 287.468 137.404 286.994 137.737C286.52 138.07 286.283 138.541 286.283 139.151C286.283 139.681 286.444 140.073 286.765 140.327C287.087 140.581 287.513 140.708 288.043 140.708C288.867 140.708 289.542 140.48 290.067 140.023C290.591 139.565 290.854 138.88 290.854 137.966V137.111ZM301.139 139.142C301.139 139.735 300.989 140.234 300.69 140.641C300.397 141.041 299.973 141.343 299.42 141.546C298.873 141.749 298.218 141.851 297.457 141.851C296.808 141.851 296.246 141.8 295.772 141.699C295.298 141.597 294.883 141.453 294.528 141.267V139.972C294.906 140.158 295.357 140.327 295.882 140.48C296.407 140.632 296.943 140.708 297.49 140.708C298.292 140.708 298.873 140.578 299.234 140.319C299.595 140.059 299.776 139.707 299.776 139.261C299.776 139.007 299.703 138.784 299.556 138.592C299.415 138.394 299.175 138.205 298.836 138.025C298.498 137.839 298.029 137.635 297.431 137.415C296.839 137.19 296.325 136.967 295.891 136.747C295.462 136.521 295.129 136.247 294.892 135.926C294.66 135.604 294.545 135.186 294.545 134.673C294.545 133.888 294.861 133.287 295.493 132.87C296.13 132.446 296.966 132.235 297.998 132.235C298.557 132.235 299.079 132.291 299.564 132.404C300.055 132.511 300.512 132.658 300.936 132.844L300.462 133.97C300.078 133.806 299.669 133.668 299.234 133.555C298.8 133.442 298.357 133.386 297.905 133.386C297.256 133.386 296.757 133.493 296.407 133.708C296.063 133.922 295.891 134.216 295.891 134.588C295.891 134.876 295.97 135.113 296.128 135.299C296.291 135.485 296.551 135.66 296.906 135.824C297.262 135.988 297.73 136.179 298.312 136.4C298.893 136.614 299.395 136.837 299.818 137.068C300.242 137.294 300.566 137.571 300.792 137.898C301.023 138.22 301.139 138.634 301.139 139.142ZM307.115 141.851C306.28 141.851 305.543 141.679 304.906 141.335C304.268 140.99 303.771 140.466 303.416 139.76C303.06 139.055 302.883 138.166 302.883 137.094C302.883 135.971 303.069 135.054 303.441 134.343C303.819 133.626 304.339 133.095 304.999 132.751C305.659 132.407 306.41 132.235 307.251 132.235C307.713 132.235 308.159 132.283 308.588 132.379C309.023 132.469 309.378 132.585 309.655 132.726L309.231 133.902C308.949 133.79 308.622 133.688 308.249 133.598C307.883 133.507 307.538 133.462 307.217 133.462C306.573 133.462 306.037 133.6 305.608 133.877C305.185 134.154 304.866 134.56 304.652 135.096C304.443 135.632 304.339 136.292 304.339 137.077C304.339 137.827 304.44 138.468 304.643 138.998C304.852 139.529 305.16 139.935 305.566 140.217C305.978 140.494 306.492 140.632 307.107 140.632C307.598 140.632 308.041 140.581 308.436 140.48C308.831 140.372 309.189 140.248 309.511 140.107V141.36C309.2 141.518 308.853 141.639 308.47 141.724C308.091 141.809 307.64 141.851 307.115 141.851ZM315.182 132.252C316.288 132.252 317.109 132.5 317.646 132.997C318.182 133.493 318.45 134.286 318.45 135.375V141.682H317.426L317.155 140.31H317.087C316.827 140.649 316.556 140.934 316.274 141.165C315.992 141.391 315.665 141.563 315.292 141.682C314.926 141.795 314.474 141.851 313.938 141.851C313.374 141.851 312.871 141.752 312.431 141.555C311.997 141.357 311.652 141.058 311.398 140.657C311.15 140.257 311.026 139.749 311.026 139.134C311.026 138.208 311.393 137.497 312.126 137.001C312.86 136.504 313.977 136.233 315.479 136.188L317.078 136.12V135.553C317.078 134.752 316.906 134.19 316.562 133.869C316.218 133.547 315.733 133.386 315.106 133.386C314.621 133.386 314.158 133.457 313.718 133.598C313.278 133.739 312.86 133.905 312.465 134.097L312.033 133.03C312.451 132.816 312.931 132.633 313.472 132.48C314.014 132.328 314.584 132.252 315.182 132.252ZM317.062 137.111L315.648 137.17C314.491 137.215 313.676 137.404 313.201 137.737C312.727 138.07 312.49 138.541 312.49 139.151C312.49 139.681 312.651 140.073 312.973 140.327C313.295 140.581 313.721 140.708 314.251 140.708C315.075 140.708 315.749 140.48 316.274 140.023C316.799 139.565 317.062 138.88 317.062 137.966V137.111ZM324.646 141.851C323.472 141.851 322.541 141.45 321.853 140.649C321.17 139.848 320.828 138.657 320.828 137.077C320.828 135.48 321.178 134.275 321.878 133.462C322.578 132.644 323.509 132.235 324.672 132.235C325.163 132.235 325.591 132.3 325.958 132.429C326.325 132.559 326.641 132.734 326.906 132.954C327.172 133.169 327.394 133.414 327.575 133.691H327.677C327.654 133.516 327.631 133.276 327.609 132.971C327.586 132.666 327.575 132.418 327.575 132.226V128.51H328.98V141.682H327.846L327.634 140.361H327.575C327.4 140.638 327.177 140.889 326.906 141.115C326.641 141.34 326.322 141.521 325.95 141.656C325.583 141.786 325.148 141.851 324.646 141.851ZM324.866 140.683C325.859 140.683 326.562 140.401 326.974 139.836C327.386 139.272 327.592 138.434 327.592 137.322V137.068C327.592 135.889 327.394 134.983 326.999 134.351C326.61 133.719 325.899 133.403 324.866 133.403C324.003 133.403 323.357 133.736 322.928 134.402C322.499 135.062 322.284 135.965 322.284 137.111C322.284 138.251 322.496 139.131 322.919 139.752C323.348 140.372 323.997 140.683 324.866 140.683ZM335.431 132.252C336.537 132.252 337.358 132.5 337.894 132.997C338.43 133.493 338.698 134.286 338.698 135.375V141.682H337.674L337.403 140.31H337.335C337.076 140.649 336.805 140.934 336.523 141.165C336.24 141.391 335.913 141.563 335.541 141.682C335.174 141.795 334.722 141.851 334.186 141.851C333.622 141.851 333.12 141.752 332.679 141.555C332.245 141.357 331.901 141.058 331.647 140.657C331.398 140.257 331.274 139.749 331.274 139.134C331.274 138.208 331.641 137.497 332.375 137.001C333.108 136.504 334.226 136.233 335.727 136.188L337.327 136.12V135.553C337.327 134.752 337.155 134.19 336.81 133.869C336.466 133.547 335.981 133.386 335.354 133.386C334.869 133.386 334.406 133.457 333.966 133.598C333.526 133.739 333.108 133.905 332.713 134.097L332.282 133.03C332.699 132.816 333.179 132.633 333.721 132.48C334.262 132.328 334.832 132.252 335.431 132.252ZM337.31 137.111L335.896 137.17C334.739 137.215 333.924 137.404 333.45 137.737C332.976 138.07 332.739 138.541 332.739 139.151C332.739 139.681 332.9 140.073 333.221 140.327C333.543 140.581 333.969 140.708 334.499 140.708C335.323 140.708 335.998 140.48 336.523 140.023C337.047 139.565 337.31 138.88 337.31 137.966V137.111Z" fill="#101E37"/>
<path d="M523.278 128.951C522.855 129.373 522.855 130.056 523.278 130.478L527.482 134.682L523.278 138.886C522.855 139.309 522.855 139.992 523.278 140.414C523.7 140.837 524.383 140.837 524.805 140.414L529.779 135.441C530.201 135.018 530.201 134.336 529.779 133.913L524.805 128.94C524.394 128.528 523.7 128.528 523.278 128.951Z" fill="#101E37"/>
<path d="M175.467 173.688C175.467 168.901 179.348 165.02 184.135 165.02H543.865C548.652 165.02 552.533 168.901 552.533 173.688V208.361C552.533 213.148 548.652 217.029 543.865 217.029H184.135C179.348 217.029 175.467 213.148 175.467 208.361V173.688Z" fill="white"/>
<path d="M200.896 191.82C200.896 192.774 200.775 193.643 200.532 194.427C200.29 195.206 199.928 195.878 199.449 196.442C198.975 197.001 198.385 197.432 197.679 197.737C196.974 198.042 196.156 198.194 195.225 198.194C194.265 198.194 193.427 198.042 192.711 197.737C191.999 197.432 191.407 196.998 190.933 196.433C190.464 195.869 190.112 195.195 189.875 194.41C189.643 193.626 189.528 192.757 189.528 191.803C189.528 190.539 189.736 189.43 190.154 188.476C190.572 187.523 191.204 186.78 192.05 186.25C192.902 185.72 193.969 185.454 195.25 185.454C196.475 185.454 197.505 185.717 198.34 186.242C199.181 186.766 199.815 187.506 200.244 188.459C200.679 189.407 200.896 190.528 200.896 191.82ZM191.043 191.82C191.043 192.87 191.192 193.778 191.492 194.546C191.791 195.313 192.248 195.906 192.863 196.323C193.484 196.741 194.271 196.95 195.225 196.95C196.184 196.95 196.968 196.741 197.578 196.323C198.193 195.906 198.647 195.313 198.941 194.546C199.234 193.778 199.381 192.87 199.381 191.82C199.381 190.223 199.045 188.976 198.374 188.078C197.708 187.176 196.666 186.724 195.25 186.724C194.291 186.724 193.501 186.93 192.88 187.342C192.259 187.754 191.796 188.341 191.492 189.103C191.192 189.859 191.043 190.765 191.043 191.82ZM207.804 188.578C208.961 188.578 209.883 188.976 210.572 189.771C211.26 190.567 211.604 191.764 211.604 193.361C211.604 194.416 211.446 195.302 211.13 196.019C210.814 196.735 210.369 197.277 209.793 197.644C209.223 198.011 208.549 198.194 207.77 198.194C207.279 198.194 206.847 198.129 206.475 197.999C206.102 197.87 205.783 197.695 205.518 197.475C205.253 197.255 205.033 197.015 204.858 196.755H204.756C204.773 196.975 204.793 197.24 204.815 197.551C204.844 197.861 204.858 198.132 204.858 198.363V202.173H203.444V188.747H204.604L204.79 190.119H204.858C205.038 189.836 205.258 189.58 205.518 189.348C205.778 189.111 206.094 188.925 206.466 188.789C206.844 188.648 207.29 188.578 207.804 188.578ZM207.558 189.763C206.915 189.763 206.396 189.887 206.001 190.135C205.611 190.384 205.326 190.756 205.146 191.253C204.965 191.744 204.869 192.362 204.858 193.107V193.378C204.858 194.162 204.942 194.825 205.112 195.367C205.287 195.909 205.572 196.321 205.967 196.603C206.367 196.885 206.904 197.026 207.575 197.026C208.151 197.026 208.63 196.871 209.014 196.56C209.398 196.25 209.683 195.818 209.869 195.265C210.061 194.707 210.157 194.066 210.157 193.344C210.157 192.249 209.942 191.38 209.514 190.736C209.09 190.087 208.439 189.763 207.558 189.763ZM217.775 198.194C216.94 198.194 216.204 198.022 215.566 197.678C214.928 197.334 214.432 196.809 214.076 196.103C213.721 195.398 213.543 194.509 213.543 193.437C213.543 192.314 213.729 191.397 214.102 190.686C214.48 189.969 214.999 189.438 215.659 189.094C216.319 188.75 217.07 188.578 217.911 188.578C218.374 188.578 218.819 188.626 219.248 188.722C219.683 188.812 220.038 188.928 220.315 189.069L219.892 190.245C219.609 190.133 219.282 190.031 218.91 189.941C218.543 189.85 218.199 189.805 217.877 189.805C217.234 189.805 216.698 189.944 216.269 190.22C215.845 190.497 215.527 190.903 215.312 191.439C215.103 191.975 214.999 192.635 214.999 193.42C214.999 194.17 215.1 194.811 215.304 195.341C215.512 195.872 215.82 196.278 216.226 196.56C216.638 196.837 217.152 196.975 217.767 196.975C218.258 196.975 218.701 196.924 219.096 196.823C219.491 196.716 219.849 196.591 220.171 196.45V197.703C219.861 197.861 219.514 197.983 219.13 198.067C218.752 198.152 218.3 198.194 217.775 198.194ZM223.777 188.747V198.025H222.372V188.747H223.777ZM223.091 185.277C223.323 185.277 223.52 185.353 223.684 185.505C223.853 185.652 223.938 185.883 223.938 186.199C223.938 186.51 223.853 186.741 223.684 186.893C223.52 187.046 223.323 187.122 223.091 187.122C222.849 187.122 222.646 187.046 222.482 186.893C222.324 186.741 222.245 186.51 222.245 186.199C222.245 185.883 222.324 185.652 222.482 185.505C222.646 185.353 222.849 185.277 223.091 185.277ZM234.756 193.369C234.756 194.131 234.657 194.811 234.46 195.409C234.262 196.007 233.977 196.512 233.605 196.924C233.233 197.336 232.781 197.652 232.251 197.872C231.726 198.087 231.13 198.194 230.464 198.194C229.844 198.194 229.274 198.087 228.755 197.872C228.241 197.652 227.795 197.336 227.417 196.924C227.045 196.512 226.754 196.007 226.545 195.409C226.342 194.811 226.24 194.131 226.24 193.369C226.24 192.353 226.413 191.49 226.757 190.779C227.101 190.062 227.592 189.517 228.23 189.145C228.873 188.767 229.638 188.578 230.524 188.578C231.37 188.578 232.109 188.767 232.742 189.145C233.379 189.523 233.873 190.071 234.223 190.787C234.578 191.498 234.756 192.359 234.756 193.369ZM227.696 193.369C227.696 194.114 227.795 194.76 227.993 195.308C228.19 195.855 228.495 196.278 228.907 196.577C229.319 196.876 229.849 197.026 230.498 197.026C231.142 197.026 231.669 196.876 232.081 196.577C232.499 196.278 232.806 195.855 233.004 195.308C233.201 194.76 233.3 194.114 233.3 193.369C233.3 192.63 233.201 191.992 233.004 191.456C232.806 190.914 232.502 190.497 232.09 190.203C231.678 189.91 231.144 189.763 230.49 189.763C229.525 189.763 228.817 190.082 228.365 190.72C227.919 191.357 227.696 192.24 227.696 193.369ZM232.953 184.743V184.913C232.84 185.076 232.685 185.274 232.488 185.505C232.296 185.731 232.081 185.971 231.844 186.225C231.607 186.473 231.367 186.71 231.125 186.936C230.888 187.161 230.668 187.356 230.464 187.52H229.525V187.317C229.705 187.102 229.903 186.845 230.117 186.546C230.332 186.242 230.541 185.931 230.744 185.615C230.947 185.293 231.116 185.003 231.252 184.743H232.953ZM241.579 188.578C242.679 188.578 243.512 188.849 244.076 189.391C244.641 189.927 244.923 190.79 244.923 191.981V198.025H243.534V192.074C243.534 191.301 243.357 190.722 243.001 190.339C242.651 189.955 242.112 189.763 241.384 189.763C240.357 189.763 239.635 190.054 239.217 190.635C238.8 191.216 238.591 192.06 238.591 193.166V198.025H237.186V188.747H238.32L238.532 190.085H238.608C238.805 189.757 239.056 189.484 239.361 189.264C239.666 189.038 240.007 188.869 240.385 188.756C240.764 188.637 241.161 188.578 241.579 188.578ZM255.622 198.194C254.449 198.194 253.518 197.793 252.829 196.992C252.146 196.191 251.805 195 251.805 193.42C251.805 191.823 252.155 190.618 252.854 189.805C253.554 188.987 254.485 188.578 255.648 188.578C256.139 188.578 256.568 188.643 256.935 188.773C257.301 188.902 257.617 189.077 257.883 189.297C258.148 189.512 258.371 189.757 258.551 190.034H258.653C258.63 189.859 258.608 189.619 258.585 189.314C258.563 189.01 258.551 188.761 258.551 188.569V184.853H259.957V198.025H258.822L258.611 196.704H258.551C258.376 196.981 258.154 197.232 257.883 197.458C257.617 197.683 257.299 197.864 256.926 197.999C256.559 198.129 256.125 198.194 255.622 198.194ZM255.843 197.026C256.836 197.026 257.538 196.744 257.95 196.179C258.362 195.615 258.568 194.777 258.568 193.665V193.411C258.568 192.232 258.371 191.326 257.976 190.694C257.586 190.062 256.875 189.746 255.843 189.746C254.979 189.746 254.333 190.079 253.904 190.745C253.475 191.405 253.261 192.308 253.261 193.454C253.261 194.594 253.472 195.474 253.896 196.095C254.325 196.716 254.973 197.026 255.843 197.026ZM266.508 188.578C267.299 188.578 267.976 188.753 268.54 189.103C269.104 189.453 269.536 189.944 269.835 190.576C270.134 191.202 270.284 191.936 270.284 192.777V193.648H263.876C263.893 194.738 264.164 195.567 264.688 196.137C265.213 196.707 265.953 196.992 266.906 196.992C267.493 196.992 268.012 196.938 268.464 196.831C268.915 196.724 269.384 196.566 269.869 196.357V197.593C269.401 197.802 268.935 197.954 268.472 198.05C268.015 198.146 267.473 198.194 266.847 198.194C265.955 198.194 265.177 198.014 264.511 197.652C263.85 197.286 263.337 196.749 262.97 196.044C262.603 195.339 262.42 194.475 262.42 193.454C262.42 192.455 262.586 191.591 262.919 190.863C263.258 190.13 263.732 189.565 264.341 189.17C264.957 188.775 265.679 188.578 266.508 188.578ZM266.492 189.729C265.741 189.729 265.143 189.975 264.697 190.466C264.251 190.957 263.986 191.642 263.901 192.523H268.811C268.805 191.97 268.718 191.484 268.549 191.067C268.385 190.643 268.134 190.316 267.795 190.085C267.457 189.848 267.022 189.729 266.492 189.729ZM281.568 188.578C282.668 188.578 283.501 188.849 284.065 189.391C284.629 189.927 284.911 190.79 284.911 191.981V198.025H283.523V192.074C283.523 191.301 283.345 190.722 282.99 190.339C282.64 189.955 282.101 189.763 281.373 189.763C280.346 189.763 279.624 190.054 279.206 190.635C278.788 191.216 278.58 192.06 278.58 193.166V198.025H277.174V188.747H278.309L278.52 190.085H278.597C278.794 189.757 279.045 189.484 279.35 189.264C279.655 189.038 279.996 188.869 280.374 188.756C280.752 188.637 281.15 188.578 281.568 188.578ZM291.277 188.595C292.383 188.595 293.204 188.843 293.74 189.34C294.277 189.836 294.545 190.629 294.545 191.718V198.025H293.52L293.249 196.653H293.182C292.922 196.992 292.651 197.277 292.369 197.508C292.087 197.734 291.76 197.906 291.387 198.025C291.02 198.138 290.569 198.194 290.033 198.194C289.468 198.194 288.966 198.095 288.526 197.898C288.091 197.7 287.747 197.401 287.493 197.001C287.245 196.6 287.121 196.092 287.121 195.477C287.121 194.551 287.488 193.84 288.221 193.344C288.955 192.847 290.072 192.576 291.573 192.531L293.173 192.463V191.896C293.173 191.095 293.001 190.533 292.657 190.212C292.313 189.89 291.827 189.729 291.201 189.729C290.716 189.729 290.253 189.8 289.813 189.941C289.372 190.082 288.955 190.248 288.56 190.44L288.128 189.374C288.546 189.159 289.025 188.976 289.567 188.823C290.109 188.671 290.679 188.595 291.277 188.595ZM293.156 193.454L291.743 193.513C290.586 193.558 289.77 193.747 289.296 194.08C288.822 194.413 288.585 194.884 288.585 195.494C288.585 196.024 288.746 196.416 289.068 196.67C289.389 196.924 289.815 197.051 290.346 197.051C291.17 197.051 291.844 196.823 292.369 196.366C292.894 195.909 293.156 195.223 293.156 194.309V193.454ZM299.48 198.025L295.958 188.747H297.465L299.505 194.359C299.646 194.743 299.79 195.166 299.937 195.629C300.084 196.092 300.185 196.464 300.242 196.747H300.301C300.369 196.464 300.481 196.092 300.639 195.629C300.797 195.161 300.941 194.738 301.071 194.359L303.111 188.747H304.618L301.088 198.025H299.48ZM309.68 188.578C310.47 188.578 311.147 188.753 311.712 189.103C312.276 189.453 312.708 189.944 313.007 190.576C313.306 191.202 313.455 191.936 313.455 192.777V193.648H307.047C307.064 194.738 307.335 195.567 307.86 196.137C308.385 196.707 309.124 196.992 310.078 196.992C310.665 196.992 311.184 196.938 311.635 196.831C312.087 196.724 312.555 196.566 313.041 196.357V197.593C312.572 197.802 312.107 197.954 311.644 198.05C311.187 198.146 310.645 198.194 310.019 198.194C309.127 198.194 308.348 198.014 307.682 197.652C307.022 197.286 306.508 196.749 306.142 196.044C305.775 195.339 305.591 194.475 305.591 193.454C305.591 192.455 305.758 191.591 306.091 190.863C306.429 190.13 306.904 189.565 307.513 189.17C308.128 188.775 308.85 188.578 309.68 188.578ZM309.663 189.729C308.913 189.729 308.314 189.975 307.869 190.466C307.423 190.957 307.157 191.642 307.073 192.523H311.983C311.977 191.97 311.889 191.484 311.72 191.067C311.556 190.643 311.305 190.316 310.967 190.085C310.628 189.848 310.194 189.729 309.663 189.729ZM318.433 202.19C317.214 202.19 316.274 201.961 315.614 201.504C314.954 201.052 314.624 200.418 314.624 199.599C314.624 199.018 314.807 198.521 315.174 198.109C315.546 197.698 316.06 197.424 316.714 197.288C316.472 197.176 316.263 197.006 316.088 196.78C315.919 196.555 315.834 196.295 315.834 196.002C315.834 195.663 315.927 195.367 316.113 195.113C316.305 194.853 316.596 194.605 316.985 194.368C316.5 194.17 316.105 193.837 315.8 193.369C315.501 192.895 315.352 192.345 315.352 191.718C315.352 191.052 315.49 190.485 315.766 190.017C316.043 189.543 316.444 189.182 316.968 188.933C317.493 188.685 318.128 188.561 318.873 188.561C319.037 188.561 319.2 188.569 319.364 188.586C319.533 188.598 319.694 188.617 319.847 188.646C319.999 188.668 320.131 188.696 320.244 188.73H323.427V189.636L321.717 189.848C321.887 190.068 322.028 190.333 322.141 190.643C322.253 190.954 322.31 191.298 322.31 191.676C322.31 192.602 321.997 193.338 321.37 193.885C320.744 194.427 319.883 194.698 318.788 194.698C318.529 194.698 318.264 194.676 317.993 194.63C317.716 194.783 317.505 194.952 317.358 195.138C317.217 195.324 317.146 195.539 317.146 195.782C317.146 195.962 317.2 196.106 317.307 196.213C317.42 196.321 317.581 196.4 317.79 196.45C317.998 196.495 318.249 196.518 318.543 196.518H320.177C321.187 196.518 321.96 196.73 322.496 197.153C323.038 197.576 323.309 198.194 323.309 199.007C323.309 200.034 322.891 200.821 322.056 201.369C321.221 201.916 320.013 202.19 318.433 202.19ZM318.475 201.089C319.243 201.089 319.878 201.01 320.38 200.852C320.888 200.7 321.266 200.477 321.514 200.183C321.768 199.896 321.895 199.551 321.895 199.151C321.895 198.778 321.81 198.496 321.641 198.304C321.472 198.118 321.223 197.994 320.896 197.932C320.569 197.864 320.168 197.83 319.694 197.83H318.086C317.668 197.83 317.304 197.895 316.994 198.025C316.683 198.155 316.444 198.346 316.274 198.6C316.111 198.854 316.029 199.17 316.029 199.549C316.029 200.051 316.24 200.432 316.664 200.691C317.087 200.957 317.691 201.089 318.475 201.089ZM318.839 193.674C319.511 193.674 320.016 193.505 320.354 193.166C320.693 192.827 320.862 192.334 320.862 191.685C320.862 190.99 320.69 190.471 320.346 190.127C320.002 189.777 319.494 189.602 318.822 189.602C318.179 189.602 317.682 189.783 317.332 190.144C316.988 190.499 316.816 191.021 316.816 191.71C316.816 192.342 316.991 192.827 317.341 193.166C317.691 193.505 318.19 193.674 318.839 193.674ZM328.726 188.595C329.832 188.595 330.654 188.843 331.19 189.34C331.726 189.836 331.994 190.629 331.994 191.718V198.025H330.97L330.699 196.653H330.631C330.371 196.992 330.1 197.277 329.818 197.508C329.536 197.734 329.209 197.906 328.836 198.025C328.47 198.138 328.018 198.194 327.482 198.194C326.918 198.194 326.415 198.095 325.975 197.898C325.541 197.7 325.196 197.401 324.942 197.001C324.694 196.6 324.57 196.092 324.57 195.477C324.57 194.551 324.937 193.84 325.67 193.344C326.404 192.847 327.521 192.576 329.023 192.531L330.622 192.463V191.896C330.622 191.095 330.45 190.533 330.106 190.212C329.762 189.89 329.277 189.729 328.65 189.729C328.165 189.729 327.702 189.8 327.262 189.941C326.822 190.082 326.404 190.248 326.009 190.44L325.577 189.374C325.995 189.159 326.475 188.976 327.016 188.823C327.558 188.671 328.128 188.595 328.726 188.595ZM330.606 193.454L329.192 193.513C328.035 193.558 327.22 193.747 326.745 194.08C326.271 194.413 326.034 194.884 326.034 195.494C326.034 196.024 326.195 196.416 326.517 196.67C326.839 196.924 327.265 197.051 327.795 197.051C328.619 197.051 329.293 196.823 329.818 196.366C330.343 195.909 330.606 195.223 330.606 194.309V193.454ZM338.605 198.194C337.77 198.194 337.033 198.022 336.396 197.678C335.758 197.334 335.261 196.809 334.906 196.103C334.55 195.398 334.372 194.509 334.372 193.437C334.372 192.314 334.559 191.397 334.931 190.686C335.309 189.969 335.828 189.438 336.489 189.094C337.149 188.75 337.9 188.578 338.74 188.578C339.203 188.578 339.649 188.626 340.078 188.722C340.512 188.812 340.868 188.928 341.144 189.069L340.721 190.245C340.439 190.133 340.112 190.031 339.739 189.941C339.372 189.85 339.028 189.805 338.707 189.805C338.063 189.805 337.527 189.944 337.098 190.22C336.675 190.497 336.356 190.903 336.142 191.439C335.933 191.975 335.828 192.635 335.828 193.42C335.828 194.17 335.93 194.811 336.133 195.341C336.342 195.872 336.65 196.278 337.056 196.56C337.468 196.837 337.981 196.975 338.597 196.975C339.087 196.975 339.53 196.924 339.926 196.823C340.321 196.716 340.679 196.591 341.001 196.45V197.703C340.69 197.861 340.343 197.983 339.959 198.067C339.581 198.152 339.13 198.194 338.605 198.194ZM344.607 188.747V198.025H343.201V188.747H344.607ZM343.921 185.277C344.152 185.277 344.35 185.353 344.514 185.505C344.683 185.652 344.767 185.883 344.767 186.199C344.767 186.51 344.683 186.741 344.514 186.893C344.35 187.046 344.152 187.122 343.921 187.122C343.678 187.122 343.475 187.046 343.312 186.893C343.154 186.741 343.074 186.51 343.074 186.199C343.074 185.883 343.154 185.652 343.312 185.505C343.475 185.353 343.678 185.277 343.921 185.277ZM355.586 193.369C355.586 194.131 355.487 194.811 355.29 195.409C355.092 196.007 354.807 196.512 354.435 196.924C354.062 197.336 353.611 197.652 353.08 197.872C352.555 198.087 351.96 198.194 351.294 198.194C350.673 198.194 350.103 198.087 349.584 197.872C349.071 197.652 348.625 197.336 348.247 196.924C347.874 196.512 347.584 196.007 347.375 195.409C347.172 194.811 347.07 194.131 347.07 193.369C347.07 192.353 347.242 191.49 347.586 190.779C347.931 190.062 348.422 189.517 349.059 189.145C349.703 188.767 350.467 188.578 351.353 188.578C352.2 188.578 352.939 188.767 353.571 189.145C354.209 189.523 354.703 190.071 355.052 190.787C355.408 191.498 355.586 192.359 355.586 193.369ZM348.526 193.369C348.526 194.114 348.625 194.76 348.822 195.308C349.02 195.855 349.324 196.278 349.736 196.577C350.148 196.876 350.679 197.026 351.328 197.026C351.971 197.026 352.499 196.876 352.911 196.577C353.328 196.278 353.636 195.855 353.834 195.308C354.031 194.76 354.13 194.114 354.13 193.369C354.13 192.63 354.031 191.992 353.834 191.456C353.636 190.914 353.331 190.497 352.919 190.203C352.507 189.91 351.974 189.763 351.319 189.763C350.354 189.763 349.646 190.082 349.195 190.72C348.749 191.357 348.526 192.24 348.526 193.369ZM353.783 184.743V184.913C353.67 185.076 353.515 185.274 353.317 185.505C353.125 185.731 352.911 185.971 352.674 186.225C352.437 186.473 352.197 186.71 351.954 186.936C351.717 187.161 351.497 187.356 351.294 187.52H350.354V187.317C350.535 187.102 350.733 186.845 350.947 186.546C351.161 186.242 351.37 185.931 351.573 185.615C351.777 185.293 351.946 185.003 352.081 184.743H353.783ZM362.409 188.578C363.509 188.578 364.341 188.849 364.906 189.391C365.47 189.927 365.752 190.79 365.752 191.981V198.025H364.364V192.074C364.364 191.301 364.186 190.722 363.831 190.339C363.481 189.955 362.942 189.763 362.214 189.763C361.187 189.763 360.464 190.054 360.047 190.635C359.629 191.216 359.42 192.06 359.42 193.166V198.025H358.015V188.747H359.15L359.361 190.085H359.437C359.635 189.757 359.886 189.484 360.191 189.264C360.495 189.038 360.837 188.869 361.215 188.756C361.593 188.637 361.991 188.578 362.409 188.578Z" fill="#101E37"/>
<path d="M175.467 230.032C175.467 225.244 179.348 221.363 184.135 221.363H543.865C548.652 221.363 552.533 225.244 552.533 230.032V264.704C552.533 269.492 548.652 273.372 543.865 273.372H184.135C179.348 273.372 175.467 269.492 175.467 264.704V230.032Z" fill="white"/>
<path d="M200.896 248.163C200.896 249.117 200.775 249.986 200.532 250.77C200.29 251.549 199.928 252.221 199.449 252.785C198.975 253.344 198.385 253.775 197.679 254.08C196.974 254.385 196.156 254.537 195.225 254.537C194.265 254.537 193.427 254.385 192.711 254.08C191.999 253.775 191.407 253.341 190.933 252.777C190.464 252.212 190.112 251.538 189.875 250.753C189.643 249.969 189.528 249.1 189.528 248.146C189.528 246.882 189.736 245.773 190.154 244.819C190.572 243.866 191.204 243.124 192.05 242.593C192.902 242.063 193.969 241.797 195.25 241.797C196.475 241.797 197.505 242.06 198.34 242.585C199.181 243.109 199.815 243.849 200.244 244.802C200.679 245.751 200.896 246.871 200.896 248.163ZM191.043 248.163C191.043 249.213 191.192 250.121 191.492 250.889C191.791 251.656 192.248 252.249 192.863 252.666C193.484 253.084 194.271 253.293 195.225 253.293C196.184 253.293 196.968 253.084 197.578 252.666C198.193 252.249 198.647 251.656 198.941 250.889C199.234 250.121 199.381 249.213 199.381 248.163C199.381 246.566 199.045 245.319 198.374 244.422C197.708 243.519 196.666 243.067 195.25 243.067C194.291 243.067 193.501 243.273 192.88 243.685C192.259 244.097 191.796 244.684 191.492 245.446C191.192 246.202 191.043 247.108 191.043 248.163ZM207.804 244.921C208.961 244.921 209.883 245.319 210.572 246.115C211.26 246.91 211.604 248.107 211.604 249.704C211.604 250.759 211.446 251.645 211.13 252.362C210.814 253.078 210.369 253.62 209.793 253.987C209.223 254.354 208.549 254.537 207.77 254.537C207.279 254.537 206.847 254.472 206.475 254.343C206.102 254.213 205.783 254.038 205.518 253.818C205.253 253.598 205.033 253.358 204.858 253.098H204.756C204.773 253.318 204.793 253.584 204.815 253.894C204.844 254.204 204.858 254.475 204.858 254.707V258.516H203.444V245.09H204.604L204.79 246.462H204.858C205.038 246.179 205.258 245.923 205.518 245.691C205.778 245.454 206.094 245.268 206.466 245.133C206.844 244.992 207.29 244.921 207.804 244.921ZM207.558 246.106C206.915 246.106 206.396 246.23 206.001 246.479C205.611 246.727 205.326 247.099 205.146 247.596C204.965 248.087 204.869 248.705 204.858 249.45V249.721C204.858 250.505 204.942 251.168 205.112 251.71C205.287 252.252 205.572 252.664 205.967 252.946C206.367 253.228 206.904 253.369 207.575 253.369C208.151 253.369 208.63 253.214 209.014 252.903C209.398 252.593 209.683 252.161 209.869 251.608C210.061 251.05 210.157 250.409 210.157 249.687C210.157 248.592 209.942 247.723 209.514 247.08C209.09 246.431 208.439 246.106 207.558 246.106ZM217.775 254.537C216.94 254.537 216.204 254.365 215.566 254.021C214.928 253.677 214.432 253.152 214.076 252.446C213.721 251.741 213.543 250.852 213.543 249.78C213.543 248.657 213.729 247.74 214.102 247.029C214.48 246.312 214.999 245.782 215.659 245.437C216.319 245.093 217.07 244.921 217.911 244.921C218.374 244.921 218.819 244.969 219.248 245.065C219.683 245.155 220.038 245.271 220.315 245.412L219.892 246.589C219.609 246.476 219.282 246.374 218.91 246.284C218.543 246.194 218.199 246.148 217.877 246.148C217.234 246.148 216.698 246.287 216.269 246.563C215.845 246.84 215.527 247.246 215.312 247.782C215.103 248.318 214.999 248.979 214.999 249.763C214.999 250.514 215.1 251.154 215.304 251.685C215.512 252.215 215.82 252.621 216.226 252.903C216.638 253.18 217.152 253.318 217.767 253.318C218.258 253.318 218.701 253.267 219.096 253.166C219.491 253.059 219.849 252.935 220.171 252.793V254.046C219.861 254.204 219.514 254.326 219.13 254.41C218.752 254.495 218.3 254.537 217.775 254.537ZM223.777 245.09V254.368H222.372V245.09H223.777ZM223.091 241.62C223.323 241.62 223.52 241.696 223.684 241.848C223.853 241.995 223.938 242.226 223.938 242.542C223.938 242.853 223.853 243.084 223.684 243.236C223.52 243.389 223.323 243.465 223.091 243.465C222.849 243.465 222.646 243.389 222.482 243.236C222.324 243.084 222.245 242.853 222.245 242.542C222.245 242.226 222.324 241.995 222.482 241.848C222.646 241.696 222.849 241.62 223.091 241.62ZM234.756 249.712C234.756 250.474 234.657 251.154 234.46 251.752C234.262 252.35 233.977 252.856 233.605 253.267C233.233 253.679 232.781 253.995 232.251 254.216C231.726 254.43 231.13 254.537 230.464 254.537C229.844 254.537 229.274 254.43 228.755 254.216C228.241 253.995 227.795 253.679 227.417 253.267C227.045 252.856 226.754 252.35 226.545 251.752C226.342 251.154 226.24 250.474 226.24 249.712C226.24 248.696 226.413 247.833 226.757 247.122C227.101 246.405 227.592 245.861 228.23 245.488C228.873 245.11 229.638 244.921 230.524 244.921C231.37 244.921 232.109 245.11 232.742 245.488C233.379 245.866 233.873 246.414 234.223 247.13C234.578 247.841 234.756 248.702 234.756 249.712ZM227.696 249.712C227.696 250.457 227.795 251.103 227.993 251.651C228.19 252.198 228.495 252.621 228.907 252.92C229.319 253.22 229.849 253.369 230.498 253.369C231.142 253.369 231.669 253.22 232.081 252.92C232.499 252.621 232.806 252.198 233.004 251.651C233.201 251.103 233.3 250.457 233.3 249.712C233.3 248.973 233.201 248.335 233.004 247.799C232.806 247.257 232.502 246.84 232.09 246.546C231.678 246.253 231.144 246.106 230.49 246.106C229.525 246.106 228.817 246.425 228.365 247.063C227.919 247.7 227.696 248.584 227.696 249.712ZM232.953 241.086V241.256C232.84 241.419 232.685 241.617 232.488 241.848C232.296 242.074 232.081 242.314 231.844 242.568C231.607 242.816 231.367 243.053 231.125 243.279C230.888 243.505 230.668 243.699 230.464 243.863H229.525V243.66C229.705 243.445 229.903 243.188 230.117 242.889C230.332 242.585 230.541 242.274 230.744 241.958C230.947 241.637 231.116 241.346 231.252 241.086H232.953ZM241.579 244.921C242.679 244.921 243.512 245.192 244.076 245.734C244.641 246.27 244.923 247.133 244.923 248.324V254.368H243.534V248.417C243.534 247.644 243.357 247.065 243.001 246.682C242.651 246.298 242.112 246.106 241.384 246.106C240.357 246.106 239.635 246.397 239.217 246.978C238.8 247.559 238.591 248.403 238.591 249.509V254.368H237.186V245.09H238.32L238.532 246.428H238.608C238.805 246.1 239.056 245.827 239.361 245.607C239.666 245.381 240.007 245.212 240.385 245.099C240.764 244.98 241.161 244.921 241.579 244.921ZM255.622 254.537C254.449 254.537 253.518 254.137 252.829 253.335C252.146 252.534 251.805 251.343 251.805 249.763C251.805 248.166 252.155 246.961 252.854 246.148C253.554 245.33 254.485 244.921 255.648 244.921C256.139 244.921 256.568 244.986 256.935 245.116C257.301 245.245 257.617 245.42 257.883 245.641C258.148 245.855 258.371 246.1 258.551 246.377H258.653C258.63 246.202 258.608 245.962 258.585 245.657C258.563 245.353 258.551 245.104 258.551 244.913V241.196H259.957V254.368H258.822L258.611 253.047H258.551C258.376 253.324 258.154 253.575 257.883 253.801C257.617 254.027 257.299 254.207 256.926 254.343C256.559 254.472 256.125 254.537 255.622 254.537ZM255.843 253.369C256.836 253.369 257.538 253.087 257.95 252.523C258.362 251.958 258.568 251.12 258.568 250.008V249.755C258.568 248.575 258.371 247.669 257.976 247.037C257.586 246.405 256.875 246.089 255.843 246.089C254.979 246.089 254.333 246.422 253.904 247.088C253.475 247.748 253.261 248.651 253.261 249.797C253.261 250.937 253.472 251.817 253.896 252.438C254.325 253.059 254.973 253.369 255.843 253.369ZM266.508 244.921C267.299 244.921 267.976 245.096 268.54 245.446C269.104 245.796 269.536 246.287 269.835 246.919C270.134 247.545 270.284 248.279 270.284 249.12V249.992H263.876C263.893 251.081 264.164 251.91 264.688 252.48C265.213 253.05 265.953 253.335 266.906 253.335C267.493 253.335 268.012 253.282 268.464 253.174C268.915 253.067 269.384 252.909 269.869 252.7V253.936C269.401 254.145 268.935 254.297 268.472 254.393C268.015 254.489 267.473 254.537 266.847 254.537C265.955 254.537 265.177 254.357 264.511 253.995C263.85 253.629 263.337 253.093 262.97 252.387C262.603 251.682 262.42 250.818 262.42 249.797C262.42 248.798 262.586 247.935 262.919 247.207C263.258 246.473 263.732 245.909 264.341 245.514C264.957 245.119 265.679 244.921 266.508 244.921ZM266.492 246.072C265.741 246.072 265.143 246.318 264.697 246.809C264.251 247.3 263.986 247.985 263.901 248.866H268.811C268.805 248.313 268.718 247.827 268.549 247.41C268.385 246.986 268.134 246.659 267.795 246.428C267.457 246.191 267.022 246.072 266.492 246.072ZM281.568 244.921C282.668 244.921 283.501 245.192 284.065 245.734C284.629 246.27 284.911 247.133 284.911 248.324V254.368H283.523V248.417C283.523 247.644 283.345 247.065 282.99 246.682C282.64 246.298 282.101 246.106 281.373 246.106C280.346 246.106 279.624 246.397 279.206 246.978C278.788 247.559 278.58 248.403 278.58 249.509V254.368H277.174V245.09H278.309L278.52 246.428H278.597C278.794 246.1 279.045 245.827 279.35 245.607C279.655 245.381 279.996 245.212 280.374 245.099C280.752 244.98 281.15 244.921 281.568 244.921ZM291.277 244.938C292.383 244.938 293.204 245.186 293.74 245.683C294.277 246.179 294.545 246.972 294.545 248.062V254.368H293.52L293.249 252.997H293.182C292.922 253.335 292.651 253.62 292.369 253.852C292.087 254.077 291.76 254.249 291.387 254.368C291.02 254.481 290.569 254.537 290.033 254.537C289.468 254.537 288.966 254.438 288.526 254.241C288.091 254.043 287.747 253.744 287.493 253.344C287.245 252.943 287.121 252.435 287.121 251.82C287.121 250.894 287.488 250.183 288.221 249.687C288.955 249.19 290.072 248.919 291.573 248.874L293.173 248.806V248.239C293.173 247.438 293.001 246.876 292.657 246.555C292.313 246.233 291.827 246.072 291.201 246.072C290.716 246.072 290.253 246.143 289.813 246.284C289.372 246.425 288.955 246.591 288.56 246.783L288.128 245.717C288.546 245.502 289.025 245.319 289.567 245.166C290.109 245.014 290.679 244.938 291.277 244.938ZM293.156 249.797L291.743 249.856C290.586 249.901 289.77 250.09 289.296 250.423C288.822 250.756 288.585 251.227 288.585 251.837C288.585 252.367 288.746 252.76 289.068 253.014C289.389 253.267 289.815 253.394 290.346 253.394C291.17 253.394 291.844 253.166 292.369 252.709C292.894 252.252 293.156 251.566 293.156 250.652V249.797ZM299.48 254.368L295.958 245.09H297.465L299.505 250.703C299.646 251.086 299.79 251.51 299.937 251.972C300.084 252.435 300.185 252.808 300.242 253.09H300.301C300.369 252.808 300.481 252.435 300.639 251.972C300.797 251.504 300.941 251.081 301.071 250.703L303.111 245.09H304.618L301.088 254.368H299.48ZM309.68 244.921C310.47 244.921 311.147 245.096 311.712 245.446C312.276 245.796 312.708 246.287 313.007 246.919C313.306 247.545 313.455 248.279 313.455 249.12V249.992H307.047C307.064 251.081 307.335 251.91 307.86 252.48C308.385 253.05 309.124 253.335 310.078 253.335C310.665 253.335 311.184 253.282 311.635 253.174C312.087 253.067 312.555 252.909 313.041 252.7V253.936C312.572 254.145 312.107 254.297 311.644 254.393C311.187 254.489 310.645 254.537 310.019 254.537C309.127 254.537 308.348 254.357 307.682 253.995C307.022 253.629 306.508 253.093 306.142 252.387C305.775 251.682 305.591 250.818 305.591 249.797C305.591 248.798 305.758 247.935 306.091 247.207C306.429 246.473 306.904 245.909 307.513 245.514C308.128 245.119 308.85 244.921 309.68 244.921ZM309.663 246.072C308.913 246.072 308.314 246.318 307.869 246.809C307.423 247.3 307.157 247.985 307.073 248.866H311.983C311.977 248.313 311.889 247.827 311.72 247.41C311.556 246.986 311.305 246.659 310.967 246.428C310.628 246.191 310.194 246.072 309.663 246.072ZM318.433 258.533C317.214 258.533 316.274 258.304 315.614 257.847C314.954 257.396 314.624 256.761 314.624 255.942C314.624 255.361 314.807 254.865 315.174 254.453C315.546 254.041 316.06 253.767 316.714 253.631C316.472 253.519 316.263 253.349 316.088 253.124C315.919 252.898 315.834 252.638 315.834 252.345C315.834 252.006 315.927 251.71 316.113 251.456C316.305 251.196 316.596 250.948 316.985 250.711C316.5 250.514 316.105 250.181 315.8 249.712C315.501 249.238 315.352 248.688 315.352 248.062C315.352 247.396 315.49 246.828 315.766 246.36C316.043 245.886 316.444 245.525 316.968 245.277C317.493 245.028 318.128 244.904 318.873 244.904C319.037 244.904 319.2 244.913 319.364 244.929C319.533 244.941 319.694 244.96 319.847 244.989C319.999 245.011 320.131 245.039 320.244 245.073H323.427V245.979L321.717 246.191C321.887 246.411 322.028 246.676 322.141 246.986C322.253 247.297 322.31 247.641 322.31 248.019C322.31 248.945 321.997 249.681 321.37 250.229C320.744 250.77 319.883 251.041 318.788 251.041C318.529 251.041 318.264 251.019 317.993 250.973C317.716 251.126 317.505 251.295 317.358 251.481C317.217 251.668 317.146 251.882 317.146 252.125C317.146 252.305 317.2 252.449 317.307 252.556C317.42 252.664 317.581 252.743 317.79 252.793C317.998 252.839 318.249 252.861 318.543 252.861H320.177C321.187 252.861 321.96 253.073 322.496 253.496C323.038 253.919 323.309 254.537 323.309 255.35C323.309 256.377 322.891 257.164 322.056 257.712C321.221 258.259 320.013 258.533 318.433 258.533ZM318.475 257.432C319.243 257.432 319.878 257.353 320.38 257.195C320.888 257.043 321.266 256.82 321.514 256.527C321.768 256.239 321.895 255.894 321.895 255.494C321.895 255.121 321.81 254.839 321.641 254.647C321.472 254.461 321.223 254.337 320.896 254.275C320.569 254.207 320.168 254.173 319.694 254.173H318.086C317.668 254.173 317.304 254.238 316.994 254.368C316.683 254.498 316.444 254.69 316.274 254.944C316.111 255.198 316.029 255.514 316.029 255.892C316.029 256.394 316.24 256.775 316.664 257.034C317.087 257.3 317.691 257.432 318.475 257.432ZM318.839 250.017C319.511 250.017 320.016 249.848 320.354 249.509C320.693 249.17 320.862 248.677 320.862 248.028C320.862 247.334 320.69 246.814 320.346 246.47C320.002 246.12 319.494 245.945 318.822 245.945C318.179 245.945 317.682 246.126 317.332 246.487C316.988 246.843 316.816 247.365 316.816 248.053C316.816 248.685 316.991 249.17 317.341 249.509C317.691 249.848 318.19 250.017 318.839 250.017ZM328.726 244.938C329.832 244.938 330.654 245.186 331.19 245.683C331.726 246.179 331.994 246.972 331.994 248.062V254.368H330.97L330.699 252.997H330.631C330.371 253.335 330.1 253.62 329.818 253.852C329.536 254.077 329.209 254.249 328.836 254.368C328.47 254.481 328.018 254.537 327.482 254.537C326.918 254.537 326.415 254.438 325.975 254.241C325.541 254.043 325.196 253.744 324.942 253.344C324.694 252.943 324.57 252.435 324.57 251.82C324.57 250.894 324.937 250.183 325.67 249.687C326.404 249.19 327.521 248.919 329.023 248.874L330.622 248.806V248.239C330.622 247.438 330.45 246.876 330.106 246.555C329.762 246.233 329.277 246.072 328.65 246.072C328.165 246.072 327.702 246.143 327.262 246.284C326.822 246.425 326.404 246.591 326.009 246.783L325.577 245.717C325.995 245.502 326.475 245.319 327.016 245.166C327.558 245.014 328.128 244.938 328.726 244.938ZM330.606 249.797L329.192 249.856C328.035 249.901 327.22 250.09 326.745 250.423C326.271 250.756 326.034 251.227 326.034 251.837C326.034 252.367 326.195 252.76 326.517 253.014C326.839 253.267 327.265 253.394 327.795 253.394C328.619 253.394 329.293 253.166 329.818 252.709C330.343 252.252 330.606 251.566 330.606 250.652V249.797ZM338.605 254.537C337.77 254.537 337.033 254.365 336.396 254.021C335.758 253.677 335.261 253.152 334.906 252.446C334.55 251.741 334.372 250.852 334.372 249.78C334.372 248.657 334.559 247.74 334.931 247.029C335.309 246.312 335.828 245.782 336.489 245.437C337.149 245.093 337.9 244.921 338.74 244.921C339.203 244.921 339.649 244.969 340.078 245.065C340.512 245.155 340.868 245.271 341.144 245.412L340.721 246.589C340.439 246.476 340.112 246.374 339.739 246.284C339.372 246.194 339.028 246.148 338.707 246.148C338.063 246.148 337.527 246.287 337.098 246.563C336.675 246.84 336.356 247.246 336.142 247.782C335.933 248.318 335.828 248.979 335.828 249.763C335.828 250.514 335.93 251.154 336.133 251.685C336.342 252.215 336.65 252.621 337.056 252.903C337.468 253.18 337.981 253.318 338.597 253.318C339.087 253.318 339.53 253.267 339.926 253.166C340.321 253.059 340.679 252.935 341.001 252.793V254.046C340.69 254.204 340.343 254.326 339.959 254.41C339.581 254.495 339.13 254.537 338.605 254.537ZM344.607 245.09V254.368H343.201V245.09H344.607ZM343.921 241.62C344.152 241.62 344.35 241.696 344.514 241.848C344.683 241.995 344.767 242.226 344.767 242.542C344.767 242.853 344.683 243.084 344.514 243.236C344.35 243.389 344.152 243.465 343.921 243.465C343.678 243.465 343.475 243.389 343.312 243.236C343.154 243.084 343.074 242.853 343.074 242.542C343.074 242.226 343.154 241.995 343.312 241.848C343.475 241.696 343.678 241.62 343.921 241.62ZM355.586 249.712C355.586 250.474 355.487 251.154 355.29 251.752C355.092 252.35 354.807 252.856 354.435 253.267C354.062 253.679 353.611 253.995 353.08 254.216C352.555 254.43 351.96 254.537 351.294 254.537C350.673 254.537 350.103 254.43 349.584 254.216C349.071 253.995 348.625 253.679 348.247 253.267C347.874 252.856 347.584 252.35 347.375 251.752C347.172 251.154 347.07 250.474 347.07 249.712C347.07 248.696 347.242 247.833 347.586 247.122C347.931 246.405 348.422 245.861 349.059 245.488C349.703 245.11 350.467 244.921 351.353 244.921C352.2 244.921 352.939 245.11 353.571 245.488C354.209 245.866 354.703 246.414 355.052 247.13C355.408 247.841 355.586 248.702 355.586 249.712ZM348.526 249.712C348.526 250.457 348.625 251.103 348.822 251.651C349.02 252.198 349.324 252.621 349.736 252.92C350.148 253.22 350.679 253.369 351.328 253.369C351.971 253.369 352.499 253.22 352.911 252.92C353.328 252.621 353.636 252.198 353.834 251.651C354.031 251.103 354.13 250.457 354.13 249.712C354.13 248.973 354.031 248.335 353.834 247.799C353.636 247.257 353.331 246.84 352.919 246.546C352.507 246.253 351.974 246.106 351.319 246.106C350.354 246.106 349.646 246.425 349.195 247.063C348.749 247.7 348.526 248.584 348.526 249.712ZM353.783 241.086V241.256C353.67 241.419 353.515 241.617 353.317 241.848C353.125 242.074 352.911 242.314 352.674 242.568C352.437 242.816 352.197 243.053 351.954 243.279C351.717 243.505 351.497 243.699 351.294 243.863H350.354V243.66C350.535 243.445 350.733 243.188 350.947 242.889C351.161 242.585 351.37 242.274 351.573 241.958C351.777 241.637 351.946 241.346 352.081 241.086H353.783ZM362.409 244.921C363.509 244.921 364.341 245.192 364.906 245.734C365.47 246.27 365.752 247.133 365.752 248.324V254.368H364.364V248.417C364.364 247.644 364.186 247.065 363.831 246.682C363.481 246.298 362.942 246.106 362.214 246.106C361.187 246.106 360.464 246.397 360.047 246.978C359.629 247.559 359.42 248.403 359.42 249.509V254.368H358.015V245.09H359.15L359.361 246.428H359.437C359.635 246.1 359.886 245.827 360.191 245.607C360.495 245.381 360.837 245.212 361.215 245.099C361.593 244.98 361.991 244.921 362.409 244.921Z" fill="#101E37"/>
<rect x="175.467" y="277.707" width="377.065" height="52.009" rx="8.66817" fill="white"/>
<path d="M200.896 304.506C200.896 305.46 200.775 306.329 200.532 307.113C200.29 307.892 199.928 308.564 199.449 309.128C198.975 309.687 198.385 310.119 197.679 310.423C196.974 310.728 196.156 310.88 195.225 310.88C194.265 310.88 193.427 310.728 192.711 310.423C191.999 310.119 191.407 309.684 190.933 309.12C190.464 308.555 190.112 307.881 189.875 307.097C189.643 306.312 189.528 305.443 189.528 304.489C189.528 303.225 189.736 302.116 190.154 301.163C190.572 300.209 191.204 299.467 192.05 298.936C192.902 298.406 193.969 298.141 195.25 298.141C196.475 298.141 197.505 298.403 198.34 298.928C199.181 299.453 199.815 300.192 200.244 301.146C200.679 302.094 200.896 303.214 200.896 304.506ZM191.043 304.506C191.043 305.556 191.192 306.464 191.492 307.232C191.791 307.999 192.248 308.592 192.863 309.01C193.484 309.427 194.271 309.636 195.225 309.636C196.184 309.636 196.968 309.427 197.578 309.01C198.193 308.592 198.647 307.999 198.941 307.232C199.234 306.464 199.381 305.556 199.381 304.506C199.381 302.909 199.045 301.662 198.374 300.765C197.708 299.862 196.666 299.41 195.25 299.41C194.291 299.41 193.501 299.616 192.88 300.028C192.259 300.44 191.796 301.027 191.492 301.789C191.192 302.545 191.043 303.451 191.043 304.506ZM207.804 301.264C208.961 301.264 209.883 301.662 210.572 302.458C211.26 303.253 211.604 304.45 211.604 306.047C211.604 307.102 211.446 307.988 211.13 308.705C210.814 309.422 210.369 309.963 209.793 310.33C209.223 310.697 208.549 310.88 207.77 310.88C207.279 310.88 206.847 310.815 206.475 310.686C206.102 310.556 205.783 310.381 205.518 310.161C205.253 309.941 205.033 309.701 204.858 309.441H204.756C204.773 309.661 204.793 309.927 204.815 310.237C204.844 310.547 204.858 310.818 204.858 311.05V314.859H203.444V301.433H204.604L204.79 302.805H204.858C205.038 302.523 205.258 302.266 205.518 302.034C205.778 301.797 206.094 301.611 206.466 301.476C206.844 301.335 207.29 301.264 207.804 301.264ZM207.558 302.449C206.915 302.449 206.396 302.573 206.001 302.822C205.611 303.07 205.326 303.442 205.146 303.939C204.965 304.43 204.869 305.048 204.858 305.793V306.064C204.858 306.848 204.942 307.511 205.112 308.053C205.287 308.595 205.572 309.007 205.967 309.289C206.367 309.571 206.904 309.712 207.575 309.712C208.151 309.712 208.63 309.557 209.014 309.247C209.398 308.936 209.683 308.505 209.869 307.951C210.061 307.393 210.157 306.752 210.157 306.03C210.157 304.935 209.942 304.066 209.514 303.423C209.09 302.774 208.439 302.449 207.558 302.449ZM217.775 310.88C216.94 310.88 216.204 310.708 215.566 310.364C214.928 310.02 214.432 309.495 214.076 308.79C213.721 308.084 213.543 307.195 213.543 306.123C213.543 305 213.729 304.083 214.102 303.372C214.48 302.655 214.999 302.125 215.659 301.78C216.319 301.436 217.07 301.264 217.911 301.264C218.374 301.264 218.819 301.312 219.248 301.408C219.683 301.498 220.038 301.614 220.315 301.755L219.892 302.932C219.609 302.819 219.282 302.717 218.91 302.627C218.543 302.537 218.199 302.492 217.877 302.492C217.234 302.492 216.698 302.63 216.269 302.906C215.845 303.183 215.527 303.589 215.312 304.125C215.103 304.661 214.999 305.322 214.999 306.106C214.999 306.857 215.1 307.497 215.304 308.028C215.512 308.558 215.82 308.964 216.226 309.247C216.638 309.523 217.152 309.661 217.767 309.661C218.258 309.661 218.701 309.611 219.096 309.509C219.491 309.402 219.849 309.278 220.171 309.137V310.389C219.861 310.547 219.514 310.669 219.13 310.753C218.752 310.838 218.3 310.88 217.775 310.88ZM223.777 301.433V310.711H222.372V301.433H223.777ZM223.091 297.963C223.323 297.963 223.52 298.039 223.684 298.191C223.853 298.338 223.938 298.569 223.938 298.885C223.938 299.196 223.853 299.427 223.684 299.58C223.52 299.732 223.323 299.808 223.091 299.808C222.849 299.808 222.646 299.732 222.482 299.58C222.324 299.427 222.245 299.196 222.245 298.885C222.245 298.569 222.324 298.338 222.482 298.191C222.646 298.039 222.849 297.963 223.091 297.963ZM234.756 306.055C234.756 306.817 234.657 307.497 234.46 308.095C234.262 308.694 233.977 309.199 233.605 309.611C233.233 310.023 232.781 310.339 232.251 310.559C231.726 310.773 231.13 310.88 230.464 310.88C229.844 310.88 229.274 310.773 228.755 310.559C228.241 310.339 227.795 310.023 227.417 309.611C227.045 309.199 226.754 308.694 226.545 308.095C226.342 307.497 226.24 306.817 226.24 306.055C226.24 305.04 226.413 304.176 226.757 303.465C227.101 302.748 227.592 302.204 228.23 301.831C228.873 301.453 229.638 301.264 230.524 301.264C231.37 301.264 232.109 301.453 232.742 301.831C233.379 302.209 233.873 302.757 234.223 303.473C234.578 304.185 234.756 305.045 234.756 306.055ZM227.696 306.055C227.696 306.8 227.795 307.446 227.993 307.994C228.19 308.541 228.495 308.964 228.907 309.264C229.319 309.563 229.849 309.712 230.498 309.712C231.142 309.712 231.669 309.563 232.081 309.264C232.499 308.964 232.806 308.541 233.004 307.994C233.201 307.446 233.3 306.8 233.3 306.055C233.3 305.316 233.201 304.678 233.004 304.142C232.806 303.6 232.502 303.183 232.09 302.889C231.678 302.596 231.144 302.449 230.49 302.449C229.525 302.449 228.817 302.768 228.365 303.406C227.919 304.043 227.696 304.927 227.696 306.055ZM232.953 297.429V297.599C232.84 297.762 232.685 297.96 232.488 298.191C232.296 298.417 232.081 298.657 231.844 298.911C231.607 299.159 231.367 299.396 231.125 299.622C230.888 299.848 230.668 300.042 230.464 300.206H229.525V300.003C229.705 299.788 229.903 299.532 230.117 299.233C230.332 298.928 230.541 298.617 230.744 298.301C230.947 297.98 231.116 297.689 231.252 297.429H232.953ZM241.579 301.264C242.679 301.264 243.512 301.535 244.076 302.077C244.641 302.613 244.923 303.476 244.923 304.667V310.711H243.534V304.76C243.534 303.987 243.357 303.409 243.001 303.025C242.651 302.641 242.112 302.449 241.384 302.449C240.357 302.449 239.635 302.74 239.217 303.321C238.8 303.902 238.591 304.746 238.591 305.852V310.711H237.186V301.433H238.32L238.532 302.771H238.608C238.805 302.444 239.056 302.17 239.361 301.95C239.666 301.724 240.007 301.555 240.385 301.442C240.764 301.323 241.161 301.264 241.579 301.264ZM255.893 301.264C256.683 301.264 257.361 301.439 257.925 301.789C258.489 302.139 258.921 302.63 259.22 303.262C259.519 303.888 259.669 304.622 259.669 305.463V306.335H253.261C253.278 307.424 253.549 308.253 254.073 308.823C254.598 309.393 255.337 309.678 256.291 309.678C256.878 309.678 257.397 309.625 257.849 309.517C258.3 309.41 258.769 309.252 259.254 309.043V310.279C258.786 310.488 258.32 310.641 257.857 310.736C257.4 310.832 256.858 310.88 256.232 310.88C255.34 310.88 254.562 310.7 253.896 310.339C253.235 309.972 252.722 309.436 252.355 308.73C251.988 308.025 251.805 307.161 251.805 306.14C251.805 305.141 251.971 304.278 252.304 303.55C252.643 302.816 253.117 302.252 253.726 301.857C254.341 301.462 255.064 301.264 255.893 301.264ZM255.876 302.415C255.126 302.415 254.528 302.661 254.082 303.152C253.636 303.643 253.371 304.328 253.286 305.209H258.196C258.19 304.656 258.103 304.17 257.933 303.753C257.77 303.33 257.519 303.002 257.18 302.771C256.841 302.534 256.407 302.415 255.876 302.415ZM266.449 301.264C267.55 301.264 268.382 301.535 268.946 302.077C269.511 302.613 269.793 303.476 269.793 304.667V310.711H268.405V304.76C268.405 303.987 268.227 303.409 267.871 303.025C267.521 302.641 266.983 302.449 266.255 302.449C265.227 302.449 264.505 302.74 264.087 303.321C263.67 303.902 263.461 304.746 263.461 305.852V310.711H262.056V301.433H263.19L263.402 302.771H263.478C263.676 302.444 263.927 302.17 264.231 301.95C264.536 301.724 264.878 301.555 265.256 301.442C265.634 301.323 266.032 301.264 266.449 301.264ZM280.907 310.88C280.072 310.88 279.336 310.708 278.698 310.364C278.06 310.02 277.564 309.495 277.208 308.79C276.853 308.084 276.675 307.195 276.675 306.123C276.675 305 276.861 304.083 277.234 303.372C277.612 302.655 278.131 302.125 278.791 301.78C279.451 301.436 280.202 301.264 281.043 301.264C281.506 301.264 281.951 301.312 282.38 301.408C282.815 301.498 283.17 301.614 283.447 301.755L283.024 302.932C282.742 302.819 282.414 302.717 282.042 302.627C281.675 302.537 281.331 302.492 281.009 302.492C280.366 302.492 279.83 302.63 279.401 302.906C278.977 303.183 278.659 303.589 278.444 304.125C278.235 304.661 278.131 305.322 278.131 306.106C278.131 306.857 278.233 307.497 278.436 308.028C278.644 308.558 278.952 308.964 279.358 309.247C279.77 309.523 280.284 309.661 280.899 309.661C281.39 309.661 281.833 309.611 282.228 309.509C282.623 309.402 282.981 309.278 283.303 309.137V310.389C282.993 310.547 282.646 310.669 282.262 310.753C281.884 310.838 281.432 310.88 280.907 310.88ZM288.975 301.281C290.081 301.281 290.902 301.529 291.438 302.026C291.974 302.523 292.242 303.315 292.242 304.405V310.711H291.218L290.947 309.34H290.879C290.62 309.678 290.349 309.963 290.067 310.195C289.784 310.42 289.457 310.593 289.085 310.711C288.718 310.824 288.266 310.88 287.73 310.88C287.166 310.88 286.664 310.782 286.223 310.584C285.789 310.387 285.445 310.087 285.191 309.687C284.942 309.286 284.818 308.778 284.818 308.163C284.818 307.238 285.185 306.527 285.919 306.03C286.652 305.533 287.77 305.262 289.271 305.217L290.871 305.15V304.582C290.871 303.781 290.699 303.22 290.354 302.898C290.01 302.576 289.525 302.415 288.898 302.415C288.413 302.415 287.95 302.486 287.51 302.627C287.07 302.768 286.652 302.935 286.257 303.126L285.826 302.06C286.243 301.845 286.723 301.662 287.265 301.51C287.806 301.357 288.376 301.281 288.975 301.281ZM290.854 306.14L289.44 306.199C288.283 306.244 287.468 306.433 286.994 306.766C286.52 307.099 286.283 307.571 286.283 308.18C286.283 308.71 286.444 309.103 286.765 309.357C287.087 309.611 287.513 309.738 288.043 309.738C288.867 309.738 289.542 309.509 290.067 309.052C290.591 308.595 290.854 307.909 290.854 306.995V306.14ZM301.139 308.172C301.139 308.764 300.989 309.264 300.69 309.67C300.397 310.071 299.973 310.372 299.42 310.576C298.873 310.779 298.218 310.88 297.457 310.88C296.808 310.88 296.246 310.83 295.772 310.728C295.298 310.626 294.883 310.483 294.528 310.296V309.001C294.906 309.187 295.357 309.357 295.882 309.509C296.407 309.661 296.943 309.738 297.49 309.738C298.292 309.738 298.873 309.608 299.234 309.348C299.595 309.089 299.776 308.736 299.776 308.29C299.776 308.036 299.703 307.813 299.556 307.621C299.415 307.424 299.175 307.235 298.836 307.054C298.498 306.868 298.029 306.665 297.431 306.445C296.839 306.219 296.325 305.996 295.891 305.776C295.462 305.55 295.129 305.277 294.892 304.955C294.66 304.633 294.545 304.216 294.545 303.702C294.545 302.918 294.861 302.317 295.493 301.899C296.13 301.476 296.966 301.264 297.998 301.264C298.557 301.264 299.079 301.321 299.564 301.433C300.055 301.541 300.512 301.687 300.936 301.874L300.462 302.999C300.078 302.836 299.669 302.698 299.234 302.585C298.8 302.472 298.357 302.415 297.905 302.415C297.256 302.415 296.757 302.523 296.407 302.737C296.063 302.951 295.891 303.245 295.891 303.617C295.891 303.905 295.97 304.142 296.128 304.328C296.291 304.515 296.551 304.69 296.906 304.853C297.262 305.017 297.73 305.209 298.312 305.429C298.893 305.643 299.395 305.866 299.818 306.098C300.242 306.323 300.566 306.6 300.792 306.927C301.023 307.249 301.139 307.664 301.139 308.172ZM307.115 310.88C306.28 310.88 305.543 310.708 304.906 310.364C304.268 310.02 303.771 309.495 303.416 308.79C303.06 308.084 302.883 307.195 302.883 306.123C302.883 305 303.069 304.083 303.441 303.372C303.819 302.655 304.339 302.125 304.999 301.78C305.659 301.436 306.41 301.264 307.251 301.264C307.713 301.264 308.159 301.312 308.588 301.408C309.023 301.498 309.378 301.614 309.655 301.755L309.231 302.932C308.949 302.819 308.622 302.717 308.249 302.627C307.883 302.537 307.538 302.492 307.217 302.492C306.573 302.492 306.037 302.63 305.608 302.906C305.185 303.183 304.866 303.589 304.652 304.125C304.443 304.661 304.339 305.322 304.339 306.106C304.339 306.857 304.44 307.497 304.643 308.028C304.852 308.558 305.16 308.964 305.566 309.247C305.978 309.523 306.492 309.661 307.107 309.661C307.598 309.661 308.041 309.611 308.436 309.509C308.831 309.402 309.189 309.278 309.511 309.137V310.389C309.2 310.547 308.853 310.669 308.47 310.753C308.091 310.838 307.64 310.88 307.115 310.88ZM315.182 301.281C316.288 301.281 317.109 301.529 317.646 302.026C318.182 302.523 318.45 303.315 318.45 304.405V310.711H317.426L317.155 309.34H317.087C316.827 309.678 316.556 309.963 316.274 310.195C315.992 310.42 315.665 310.593 315.292 310.711C314.926 310.824 314.474 310.88 313.938 310.88C313.374 310.88 312.871 310.782 312.431 310.584C311.997 310.387 311.652 310.087 311.398 309.687C311.15 309.286 311.026 308.778 311.026 308.163C311.026 307.238 311.393 306.527 312.126 306.03C312.86 305.533 313.977 305.262 315.479 305.217L317.078 305.15V304.582C317.078 303.781 316.906 303.22 316.562 302.898C316.218 302.576 315.733 302.415 315.106 302.415C314.621 302.415 314.158 302.486 313.718 302.627C313.278 302.768 312.86 302.935 312.465 303.126L312.033 302.06C312.451 301.845 312.931 301.662 313.472 301.51C314.014 301.357 314.584 301.281 315.182 301.281ZM317.062 306.14L315.648 306.199C314.491 306.244 313.676 306.433 313.201 306.766C312.727 307.099 312.49 307.571 312.49 308.18C312.49 308.71 312.651 309.103 312.973 309.357C313.295 309.611 313.721 309.738 314.251 309.738C315.075 309.738 315.749 309.509 316.274 309.052C316.799 308.595 317.062 307.909 317.062 306.995V306.14ZM324.646 310.88C323.472 310.88 322.541 310.48 321.853 309.678C321.17 308.877 320.828 307.686 320.828 306.106C320.828 304.509 321.178 303.304 321.878 302.492C322.578 301.673 323.509 301.264 324.672 301.264C325.163 301.264 325.591 301.329 325.958 301.459C326.325 301.589 326.641 301.764 326.906 301.984C327.172 302.198 327.394 302.444 327.575 302.72H327.677C327.654 302.545 327.631 302.305 327.609 302.001C327.586 301.696 327.575 301.448 327.575 301.256V297.54H328.98V310.711H327.846L327.634 309.391H327.575C327.4 309.667 327.177 309.918 326.906 310.144C326.641 310.37 326.322 310.55 325.95 310.686C325.583 310.815 325.148 310.88 324.646 310.88ZM324.866 309.712C325.859 309.712 326.562 309.43 326.974 308.866C327.386 308.301 327.592 307.463 327.592 306.352V306.098C327.592 304.918 327.394 304.012 326.999 303.38C326.61 302.748 325.899 302.432 324.866 302.432C324.003 302.432 323.357 302.765 322.928 303.431C322.499 304.091 322.284 304.994 322.284 306.14C322.284 307.28 322.496 308.16 322.919 308.781C323.348 309.402 323.997 309.712 324.866 309.712ZM335.431 301.281C336.537 301.281 337.358 301.529 337.894 302.026C338.43 302.523 338.698 303.315 338.698 304.405V310.711H337.674L337.403 309.34H337.335C337.076 309.678 336.805 309.963 336.523 310.195C336.24 310.42 335.913 310.593 335.541 310.711C335.174 310.824 334.722 310.88 334.186 310.88C333.622 310.88 333.12 310.782 332.679 310.584C332.245 310.387 331.901 310.087 331.647 309.687C331.398 309.286 331.274 308.778 331.274 308.163C331.274 307.238 331.641 306.527 332.375 306.03C333.108 305.533 334.226 305.262 335.727 305.217L337.327 305.15V304.582C337.327 303.781 337.155 303.22 336.81 302.898C336.466 302.576 335.981 302.415 335.354 302.415C334.869 302.415 334.406 302.486 333.966 302.627C333.526 302.768 333.108 302.935 332.713 303.126L332.282 302.06C332.699 301.845 333.179 301.662 333.721 301.51C334.262 301.357 334.832 301.281 335.431 301.281ZM337.31 306.14L335.896 306.199C334.739 306.244 333.924 306.433 333.45 306.766C332.976 307.099 332.739 307.571 332.739 308.18C332.739 308.71 332.9 309.103 333.221 309.357C333.543 309.611 333.969 309.738 334.499 309.738C335.323 309.738 335.998 309.509 336.523 309.052C337.047 308.595 337.31 307.909 337.31 306.995V306.14Z" fill="#101E37"/>
<path d="M523.278 297.98C522.855 298.402 522.855 299.085 523.278 299.508L527.482 303.712L523.278 307.916C522.855 308.338 522.855 309.021 523.278 309.444C523.7 309.866 524.383 309.866 524.805 309.444L529.779 304.47C530.201 304.048 530.201 303.365 529.779 302.942L524.805 297.969C524.394 297.557 523.7 297.557 523.278 297.98Z" fill="#101E37"/>
<path d="M175.467 342.718C175.467 337.93 179.348 334.05 184.135 334.05H543.865C548.652 334.05 552.533 337.93 552.533 342.718V377.39C552.533 382.178 548.652 386.059 543.865 386.059H184.135C179.348 386.059 175.467 382.178 175.467 377.39V342.718Z" fill="white"/>
<path d="M195.453 355.77C194.77 355.77 194.155 355.889 193.608 356.126C193.066 356.357 192.603 356.696 192.22 357.142C191.841 357.582 191.551 358.115 191.348 358.741C191.144 359.368 191.043 360.073 191.043 360.858C191.043 361.896 191.204 362.799 191.525 363.567C191.853 364.328 192.338 364.918 192.981 365.336C193.63 365.753 194.44 365.962 195.411 365.962C195.964 365.962 196.483 365.917 196.968 365.827C197.459 365.731 197.936 365.612 198.399 365.471V366.724C197.948 366.893 197.473 367.017 196.977 367.096C196.48 367.181 195.891 367.223 195.208 367.223C193.949 367.223 192.897 366.964 192.05 366.445C191.209 365.92 190.577 365.181 190.154 364.227C189.736 363.273 189.528 362.147 189.528 360.849C189.528 359.912 189.657 359.058 189.917 358.284C190.182 357.506 190.566 356.834 191.068 356.27C191.576 355.705 192.197 355.271 192.931 354.966C193.67 354.656 194.516 354.501 195.47 354.501C196.097 354.501 196.7 354.563 197.282 354.687C197.863 354.811 198.388 354.989 198.856 355.22L198.28 356.439C197.885 356.258 197.451 356.103 196.977 355.973C196.508 355.838 196.001 355.77 195.453 355.77ZM204.443 357.607C205.233 357.607 205.91 357.782 206.475 358.132C207.039 358.482 207.471 358.973 207.77 359.605C208.069 360.231 208.218 360.965 208.218 361.806V362.678H201.81C201.827 363.767 202.098 364.596 202.623 365.166C203.148 365.736 203.887 366.021 204.841 366.021C205.428 366.021 205.947 365.968 206.398 365.861C206.85 365.753 207.318 365.595 207.804 365.387V366.622C207.335 366.831 206.87 366.984 206.407 367.08C205.95 367.175 205.408 367.223 204.782 367.223C203.89 367.223 203.111 367.043 202.445 366.682C201.785 366.315 201.271 365.779 200.905 365.073C200.538 364.368 200.354 363.504 200.354 362.483C200.354 361.484 200.521 360.621 200.854 359.893C201.192 359.159 201.666 358.595 202.276 358.2C202.891 357.805 203.613 357.607 204.443 357.607ZM204.426 358.758C203.676 358.758 203.077 359.004 202.632 359.495C202.186 359.986 201.92 360.672 201.836 361.552H206.746C206.74 360.999 206.652 360.514 206.483 360.096C206.319 359.673 206.068 359.345 205.73 359.114C205.391 358.877 204.957 358.758 204.426 358.758ZM214.821 357.607C215.007 357.607 215.202 357.618 215.405 357.641C215.608 357.658 215.789 357.683 215.947 357.717L215.769 359.021C215.617 358.981 215.448 358.95 215.261 358.928C215.075 358.905 214.9 358.894 214.736 358.894C214.364 358.894 214.011 358.97 213.678 359.122C213.351 359.269 213.063 359.484 212.815 359.766C212.567 360.042 212.372 360.378 212.231 360.773C212.09 361.162 212.019 361.597 212.019 362.077V367.054H210.606V357.776H211.774L211.926 359.486H211.985C212.177 359.142 212.409 358.829 212.679 358.547C212.95 358.259 213.264 358.03 213.619 357.861C213.98 357.692 214.381 357.607 214.821 357.607ZM221.915 357.607C222.101 357.607 222.296 357.618 222.499 357.641C222.702 357.658 222.883 357.683 223.041 357.717L222.863 359.021C222.711 358.981 222.541 358.95 222.355 358.928C222.169 358.905 221.994 358.894 221.83 358.894C221.458 358.894 221.105 358.97 220.772 359.122C220.445 359.269 220.157 359.484 219.909 359.766C219.66 360.042 219.466 360.378 219.325 360.773C219.183 361.162 219.113 361.597 219.113 362.077V367.054H217.699V357.776H218.867L219.02 359.486H219.079C219.271 359.142 219.502 358.829 219.773 358.547C220.044 358.259 220.357 358.03 220.713 357.861C221.074 357.692 221.475 357.607 221.915 357.607ZM228.264 357.624C229.37 357.624 230.191 357.872 230.727 358.369C231.263 358.866 231.531 359.659 231.531 360.748V367.054H230.507L230.236 365.683H230.168C229.909 366.021 229.638 366.306 229.356 366.538C229.073 366.764 228.746 366.936 228.374 367.054C228.007 367.167 227.555 367.223 227.019 367.223C226.455 367.223 225.953 367.125 225.512 366.927C225.078 366.73 224.734 366.431 224.48 366.03C224.231 365.629 224.107 365.121 224.107 364.506C224.107 363.581 224.474 362.87 225.208 362.373C225.941 361.876 227.059 361.605 228.56 361.56L230.16 361.493V360.925C230.16 360.124 229.988 359.563 229.643 359.241C229.299 358.919 228.814 358.758 228.187 358.758C227.702 358.758 227.239 358.829 226.799 358.97C226.359 359.111 225.941 359.278 225.546 359.469L225.115 358.403C225.532 358.188 226.012 358.005 226.554 357.853C227.095 357.7 227.665 357.624 228.264 357.624ZM230.143 362.483L228.729 362.542C227.572 362.587 226.757 362.776 226.283 363.109C225.809 363.442 225.572 363.914 225.572 364.523C225.572 365.054 225.733 365.446 226.054 365.7C226.376 365.954 226.802 366.081 227.332 366.081C228.156 366.081 228.831 365.852 229.356 365.395C229.88 364.938 230.143 364.252 230.143 363.338V362.483ZM238.642 357.607C238.828 357.607 239.023 357.618 239.226 357.641C239.429 357.658 239.609 357.683 239.768 357.717L239.59 359.021C239.437 358.981 239.268 358.95 239.082 358.928C238.896 358.905 238.721 358.894 238.557 358.894C238.185 358.894 237.832 358.97 237.499 359.122C237.172 359.269 236.884 359.484 236.635 359.766C236.387 360.042 236.192 360.378 236.051 360.773C235.91 361.162 235.84 361.597 235.84 362.077V367.054H234.426V357.776H235.594L235.747 359.486H235.806C235.998 359.142 236.229 358.829 236.5 358.547C236.771 358.259 237.084 358.03 237.44 357.861C237.801 357.692 238.201 357.607 238.642 357.607ZM252.025 364.515C252.025 365.107 251.875 365.607 251.576 366.013C251.283 366.414 250.859 366.716 250.306 366.919C249.759 367.122 249.104 367.223 248.343 367.223C247.694 367.223 247.132 367.173 246.658 367.071C246.184 366.969 245.769 366.826 245.414 366.639V365.344C245.792 365.53 246.243 365.7 246.768 365.852C247.293 366.004 247.829 366.081 248.376 366.081C249.178 366.081 249.759 365.951 250.12 365.691C250.481 365.432 250.662 365.079 250.662 364.633C250.662 364.379 250.589 364.156 250.442 363.964C250.301 363.767 250.061 363.578 249.722 363.397C249.384 363.211 248.915 363.008 248.317 362.788C247.725 362.562 247.211 362.339 246.777 362.119C246.348 361.893 246.015 361.62 245.778 361.298C245.546 360.976 245.431 360.559 245.431 360.045C245.431 359.261 245.747 358.66 246.379 358.242C247.016 357.819 247.852 357.607 248.884 357.607C249.443 357.607 249.965 357.664 250.45 357.776C250.941 357.884 251.398 358.03 251.822 358.217L251.348 359.343C250.964 359.179 250.555 359.041 250.12 358.928C249.686 358.815 249.243 358.758 248.791 358.758C248.142 358.758 247.643 358.866 247.293 359.08C246.949 359.295 246.777 359.588 246.777 359.96C246.777 360.248 246.856 360.485 247.014 360.672C247.177 360.858 247.437 361.033 247.792 361.196C248.148 361.36 248.616 361.552 249.198 361.772C249.779 361.986 250.281 362.209 250.704 362.441C251.128 362.666 251.452 362.943 251.678 363.27C251.909 363.592 252.025 364.007 252.025 364.515ZM257.857 357.607C258.647 357.607 259.325 357.782 259.889 358.132C260.453 358.482 260.885 358.973 261.184 359.605C261.483 360.231 261.633 360.965 261.633 361.806V362.678H255.225C255.242 363.767 255.512 364.596 256.037 365.166C256.562 365.736 257.301 366.021 258.255 366.021C258.842 366.021 259.361 365.968 259.813 365.861C260.264 365.753 260.733 365.595 261.218 365.387V366.622C260.749 366.831 260.284 366.984 259.821 367.08C259.364 367.175 258.822 367.223 258.196 367.223C257.304 367.223 256.525 367.043 255.859 366.682C255.199 366.315 254.686 365.779 254.319 365.073C253.952 364.368 253.769 363.504 253.769 362.483C253.769 361.484 253.935 360.621 254.268 359.893C254.607 359.159 255.081 358.595 255.69 358.2C256.305 357.805 257.028 357.607 257.857 357.607ZM257.84 358.758C257.09 358.758 256.492 359.004 256.046 359.495C255.6 359.986 255.335 360.672 255.25 361.552H260.16C260.154 360.999 260.067 360.514 259.897 360.096C259.734 359.673 259.483 359.345 259.144 359.114C258.805 358.877 258.371 358.758 257.84 358.758ZM270.021 364.515C270.021 365.107 269.872 365.607 269.573 366.013C269.279 366.414 268.856 366.716 268.303 366.919C267.756 367.122 267.101 367.223 266.339 367.223C265.69 367.223 265.129 367.173 264.655 367.071C264.181 366.969 263.766 366.826 263.41 366.639V365.344C263.788 365.53 264.24 365.7 264.765 365.852C265.29 366.004 265.826 366.081 266.373 366.081C267.174 366.081 267.756 365.951 268.117 365.691C268.478 365.432 268.659 365.079 268.659 364.633C268.659 364.379 268.585 364.156 268.438 363.964C268.297 363.767 268.058 363.578 267.719 363.397C267.38 363.211 266.912 363.008 266.314 362.788C265.721 362.562 265.208 362.339 264.773 362.119C264.344 361.893 264.011 361.62 263.774 361.298C263.543 360.976 263.427 360.559 263.427 360.045C263.427 359.261 263.743 358.66 264.375 358.242C265.013 357.819 265.848 357.607 266.881 357.607C267.44 357.607 267.962 357.664 268.447 357.776C268.938 357.884 269.395 358.03 269.818 358.217L269.344 359.343C268.961 359.179 268.551 359.041 268.117 358.928C267.682 358.815 267.239 358.758 266.788 358.758C266.139 358.758 265.639 358.866 265.29 359.08C264.945 359.295 264.773 359.588 264.773 359.96C264.773 360.248 264.852 360.485 265.01 360.672C265.174 360.858 265.433 361.033 265.789 361.196C266.144 361.36 266.613 361.552 267.194 361.772C267.775 361.986 268.278 362.209 268.701 362.441C269.124 362.666 269.449 362.943 269.674 363.27C269.906 363.592 270.021 364.007 270.021 364.515ZM273.687 357.776V367.054H272.282V357.776H273.687ZM273.001 354.306C273.233 354.306 273.43 354.382 273.594 354.534C273.763 354.681 273.848 354.912 273.848 355.229C273.848 355.539 273.763 355.77 273.594 355.923C273.43 356.075 273.233 356.151 273.001 356.151C272.758 356.151 272.555 356.075 272.392 355.923C272.234 355.77 272.155 355.539 272.155 355.229C272.155 354.912 272.234 354.681 272.392 354.534C272.555 354.382 272.758 354.306 273.001 354.306ZM284.666 362.398C284.666 363.16 284.567 363.84 284.37 364.438C284.172 365.037 283.887 365.542 283.515 365.954C283.142 366.366 282.691 366.682 282.16 366.902C281.635 367.116 281.04 367.223 280.374 367.223C279.753 367.223 279.183 367.116 278.664 366.902C278.151 366.682 277.705 366.366 277.327 365.954C276.954 365.542 276.664 365.037 276.455 364.438C276.252 363.84 276.15 363.16 276.15 362.398C276.15 361.383 276.322 360.519 276.666 359.808C277.011 359.091 277.502 358.547 278.139 358.174C278.783 357.796 279.547 357.607 280.433 357.607C281.28 357.607 282.019 357.796 282.651 358.174C283.289 358.552 283.783 359.1 284.133 359.817C284.488 360.528 284.666 361.388 284.666 362.398ZM277.606 362.398C277.606 363.143 277.705 363.789 277.902 364.337C278.1 364.884 278.405 365.308 278.817 365.607C279.229 365.906 279.759 366.055 280.408 366.055C281.051 366.055 281.579 365.906 281.991 365.607C282.409 365.308 282.716 364.884 282.914 364.337C283.111 363.789 283.21 363.143 283.21 362.398C283.21 361.659 283.111 361.021 282.914 360.485C282.716 359.944 282.411 359.526 281.999 359.232C281.587 358.939 281.054 358.792 280.4 358.792C279.435 358.792 278.726 359.111 278.275 359.749C277.829 360.387 277.606 361.27 277.606 362.398ZM282.863 353.773V353.942C282.75 354.105 282.595 354.303 282.397 354.534C282.205 354.76 281.991 355 281.754 355.254C281.517 355.502 281.277 355.739 281.034 355.965C280.797 356.191 280.577 356.385 280.374 356.549H279.435V356.346C279.615 356.131 279.813 355.875 280.027 355.576C280.242 355.271 280.45 354.96 280.654 354.644C280.857 354.323 281.026 354.032 281.161 353.773H282.863ZM291.489 357.607C292.589 357.607 293.422 357.878 293.986 358.42C294.55 358.956 294.832 359.819 294.832 361.01V367.054H293.444V361.103C293.444 360.33 293.266 359.752 292.911 359.368C292.561 358.984 292.022 358.792 291.294 358.792C290.267 358.792 289.545 359.083 289.127 359.664C288.709 360.245 288.501 361.089 288.501 362.195V367.054H287.095V357.776H288.23L288.441 359.114H288.518C288.715 358.787 288.966 358.513 289.271 358.293C289.576 358.067 289.917 357.898 290.295 357.785C290.673 357.666 291.071 357.607 291.489 357.607Z" fill="#CC3333"/>
</svg>
