<svg width="728" height="175" viewBox="0 0 728 175" fill="none" xmlns="http://www.w3.org/2000/svg">
<rect x="1" y="1" width="726" height="172.02" rx="7" fill="#F3F6F9"/>
<rect x="1" y="1" width="726" height="172.02" rx="7" stroke="#E6EBF0" stroke-width="2"/>
<path d="M437.027 82.124C441.38 82.124 444.909 85.6534 444.909 90.0068V119.014C444.909 123.367 441.38 126.896 437.027 126.896H290.973C286.62 126.896 283.09 123.367 283.09 119.014V90.0068C283.09 85.6534 286.62 82.124 290.973 82.124H437.027Z" fill="white"/>
<path d="M437.027 82.124C441.38 82.124 444.909 85.6534 444.909 90.0068V119.014C444.909 123.367 441.38 126.896 437.027 126.896H290.973C286.62 126.896 283.09 123.367 283.09 119.014V90.0068C283.09 85.6534 286.62 82.124 290.973 82.124H437.027Z" stroke="#E6EBF0" stroke-width="1.75169"/>
<path d="M297.98 109.765H311.993C312.475 109.765 312.869 109.371 312.869 108.889C312.869 108.408 312.475 108.014 311.993 108.014H297.98C297.498 108.014 297.104 108.408 297.104 108.889C297.104 109.371 297.498 109.765 297.98 109.765ZM297.98 105.386H311.993C312.475 105.386 312.869 104.992 312.869 104.51C312.869 104.028 312.475 103.634 311.993 103.634H297.98C297.498 103.634 297.104 104.028 297.104 104.51C297.104 104.992 297.498 105.386 297.98 105.386ZM297.104 100.131C297.104 100.613 297.498 101.007 297.98 101.007H311.993C312.475 101.007 312.869 100.613 312.869 100.131C312.869 99.6493 312.475 99.2551 311.993 99.2551H297.98C297.498 99.2551 297.104 99.6493 297.104 100.131Z" fill="#38485C"/>
<path d="M321.081 109.51C320.85 109.51 320.671 109.452 320.545 109.337C320.429 109.211 320.372 109.032 320.372 108.801V99.1051C320.372 98.8739 320.429 98.7004 320.545 98.5848C320.671 98.4587 320.85 98.3956 321.081 98.3956H324.124C325.921 98.3956 327.308 98.8686 328.286 99.8145C329.263 100.76 329.752 102.137 329.752 103.945C329.752 104.849 329.626 105.648 329.374 106.341C329.132 107.024 328.769 107.603 328.286 108.075C327.802 108.548 327.214 108.906 326.52 109.148C325.826 109.389 325.028 109.51 324.124 109.51H321.081ZM321.664 108.407H324.029C324.765 108.407 325.401 108.312 325.937 108.123C326.483 107.934 326.935 107.655 327.293 107.287C327.66 106.919 327.934 106.457 328.112 105.9C328.291 105.332 328.38 104.681 328.38 103.945C328.38 102.463 328.018 101.354 327.293 100.619C326.567 99.8723 325.479 99.4992 324.029 99.4992H321.664V108.407ZM335.351 109.652C334.542 109.652 333.843 109.494 333.255 109.179C332.677 108.853 332.225 108.396 331.899 107.807C331.584 107.219 331.426 106.515 331.426 105.695C331.426 104.896 331.584 104.203 331.899 103.614C332.214 103.015 332.645 102.547 333.192 102.211C333.749 101.875 334.39 101.706 335.115 101.706C335.63 101.706 336.092 101.796 336.502 101.974C336.912 102.143 337.259 102.389 337.543 102.715C337.837 103.041 338.058 103.435 338.205 103.898C338.363 104.36 338.441 104.88 338.441 105.458C338.441 105.627 338.394 105.753 338.3 105.837C338.205 105.91 338.068 105.947 337.89 105.947H332.403V105.112H337.59L337.338 105.317C337.338 104.749 337.254 104.271 337.086 103.882C336.918 103.483 336.671 103.178 336.345 102.968C336.029 102.757 335.63 102.652 335.147 102.652C334.611 102.652 334.153 102.778 333.775 103.031C333.407 103.272 333.129 103.614 332.939 104.055C332.75 104.486 332.656 104.991 332.656 105.569V105.663C332.656 106.63 332.887 107.366 333.349 107.871C333.822 108.375 334.49 108.627 335.351 108.627C335.709 108.627 336.061 108.58 336.408 108.485C336.765 108.391 337.112 108.233 337.448 108.012C337.595 107.918 337.727 107.876 337.842 107.886C337.969 107.886 338.068 107.923 338.142 107.997C338.216 108.06 338.263 108.144 338.284 108.249C338.315 108.344 338.305 108.449 338.252 108.564C338.21 108.68 338.121 108.78 337.984 108.864C337.637 109.116 337.228 109.31 336.755 109.447C336.282 109.584 335.814 109.652 335.351 109.652ZM342.875 109.652C342.402 109.652 341.924 109.594 341.44 109.479C340.967 109.363 340.526 109.163 340.116 108.88C340.011 108.806 339.937 108.722 339.895 108.627C339.853 108.522 339.838 108.422 339.848 108.328C339.869 108.223 339.911 108.133 339.974 108.06C340.048 107.986 340.132 107.944 340.227 107.934C340.332 107.913 340.447 107.934 340.573 107.997C340.983 108.249 341.377 108.428 341.756 108.533C342.145 108.627 342.528 108.675 342.907 108.675C343.506 108.675 343.958 108.564 344.262 108.344C344.567 108.123 344.72 107.823 344.72 107.445C344.72 107.151 344.62 106.919 344.42 106.751C344.22 106.573 343.905 106.436 343.474 106.341L342.04 106.026C341.377 105.889 340.883 105.653 340.558 105.317C340.242 104.98 340.085 104.544 340.085 104.008C340.085 103.535 340.206 103.13 340.447 102.794C340.699 102.447 341.052 102.179 341.504 101.99C341.955 101.801 342.481 101.706 343.08 101.706C343.542 101.706 343.979 101.769 344.389 101.896C344.809 102.011 345.187 102.2 345.524 102.463C345.629 102.537 345.697 102.626 345.729 102.731C345.771 102.826 345.776 102.926 345.744 103.031C345.723 103.125 345.676 103.209 345.602 103.283C345.529 103.346 345.44 103.383 345.334 103.393C345.229 103.404 345.119 103.372 345.003 103.299C344.688 103.088 344.368 102.936 344.042 102.841C343.716 102.736 343.395 102.684 343.08 102.684C342.491 102.684 342.045 102.799 341.74 103.031C341.435 103.262 341.283 103.567 341.283 103.945C341.283 104.239 341.377 104.481 341.567 104.67C341.756 104.859 342.05 104.996 342.449 105.08L343.884 105.38C344.567 105.527 345.077 105.763 345.413 106.089C345.76 106.404 345.934 106.835 345.934 107.382C345.934 108.075 345.655 108.627 345.098 109.037C344.541 109.447 343.8 109.652 342.875 109.652ZM348.51 112.458C348.3 112.458 348.142 112.4 348.037 112.285C347.932 112.18 347.88 112.022 347.88 111.812V102.384C347.88 102.174 347.932 102.016 348.037 101.911C348.142 101.796 348.295 101.738 348.495 101.738C348.705 101.738 348.862 101.796 348.967 101.911C349.083 102.016 349.141 102.174 349.141 102.384V103.882L348.967 103.661C349.136 103.062 349.467 102.589 349.961 102.242C350.465 101.885 351.064 101.706 351.758 101.706C352.441 101.706 353.035 101.869 353.539 102.195C354.054 102.51 354.449 102.968 354.722 103.567C355.006 104.155 355.147 104.859 355.147 105.679C355.147 106.488 355.006 107.193 354.722 107.792C354.449 108.38 354.06 108.837 353.555 109.163C353.051 109.489 352.452 109.652 351.758 109.652C351.064 109.652 350.47 109.479 349.976 109.132C349.482 108.774 349.146 108.301 348.967 107.713H349.157V111.812C349.157 112.022 349.099 112.18 348.983 112.285C348.868 112.4 348.71 112.458 348.51 112.458ZM351.49 108.627C351.973 108.627 352.389 108.512 352.735 108.28C353.093 108.049 353.366 107.713 353.555 107.271C353.755 106.83 353.855 106.299 353.855 105.679C353.855 104.723 353.639 103.992 353.208 103.488C352.788 102.983 352.215 102.731 351.49 102.731C351.017 102.731 350.602 102.847 350.244 103.078C349.887 103.299 349.609 103.63 349.409 104.071C349.22 104.502 349.125 105.038 349.125 105.679C349.125 106.625 349.341 107.356 349.772 107.871C350.202 108.375 350.775 108.627 351.49 108.627ZM359.404 109.652C358.647 109.652 358.069 109.421 357.67 108.958C357.271 108.496 357.071 107.834 357.071 106.972V98.9317C357.071 98.7215 357.123 98.5638 357.229 98.4587C357.334 98.3431 357.491 98.2853 357.702 98.2853C357.901 98.2853 358.059 98.3431 358.175 98.4587C358.29 98.5638 358.348 98.7215 358.348 98.9317V106.877C358.348 107.445 358.458 107.871 358.679 108.154C358.91 108.428 359.247 108.564 359.688 108.564C359.783 108.564 359.867 108.559 359.94 108.548C360.014 108.538 360.087 108.533 360.161 108.533C360.277 108.522 360.355 108.548 360.397 108.612C360.45 108.675 360.476 108.801 360.476 108.99C360.476 109.179 360.434 109.321 360.35 109.416C360.266 109.51 360.129 109.573 359.94 109.605C359.856 109.615 359.767 109.626 359.672 109.636C359.578 109.647 359.488 109.652 359.404 109.652ZM365.111 109.652C364.302 109.652 363.603 109.494 363.015 109.179C362.437 108.853 361.985 108.396 361.659 107.807C361.344 107.219 361.186 106.515 361.186 105.695C361.186 104.896 361.344 104.203 361.659 103.614C361.974 103.015 362.405 102.547 362.952 102.211C363.509 101.875 364.15 101.706 364.875 101.706C365.39 101.706 365.852 101.796 366.262 101.974C366.672 102.143 367.019 102.389 367.303 102.715C367.597 103.041 367.818 103.435 367.965 103.898C368.123 104.36 368.201 104.88 368.201 105.458C368.201 105.627 368.154 105.753 368.06 105.837C367.965 105.91 367.828 105.947 367.65 105.947H362.163V105.112H367.35L367.098 105.317C367.098 104.749 367.014 104.271 366.846 103.882C366.677 103.483 366.43 103.178 366.105 102.968C365.789 102.757 365.39 102.652 364.907 102.652C364.37 102.652 363.913 102.778 363.535 103.031C363.167 103.272 362.889 103.614 362.699 104.055C362.51 104.486 362.416 104.991 362.416 105.569V105.663C362.416 106.63 362.647 107.366 363.109 107.871C363.582 108.375 364.25 108.627 365.111 108.627C365.469 108.627 365.821 108.58 366.168 108.485C366.525 108.391 366.872 108.233 367.208 108.012C367.355 107.918 367.487 107.876 367.602 107.886C367.728 107.886 367.828 107.923 367.902 107.997C367.975 108.06 368.023 108.144 368.044 108.249C368.075 108.344 368.065 108.449 368.012 108.564C367.97 108.68 367.881 108.78 367.744 108.864C367.397 109.116 366.988 109.31 366.515 109.447C366.042 109.584 365.574 109.652 365.111 109.652ZM373.439 112.49C372.882 112.49 372.336 112.421 371.799 112.285C371.274 112.159 370.796 111.954 370.365 111.67C370.239 111.596 370.155 111.507 370.113 111.402C370.081 111.297 370.076 111.192 370.097 111.087C370.118 110.992 370.165 110.903 370.239 110.819C370.312 110.745 370.396 110.698 370.491 110.677C370.596 110.656 370.701 110.672 370.806 110.724C371.269 111.008 371.71 111.202 372.131 111.307C372.551 111.412 372.966 111.465 373.376 111.465C374.122 111.465 374.685 111.265 375.063 110.866C375.452 110.467 375.646 109.888 375.646 109.132V107.35H375.804C375.646 107.96 375.31 108.443 374.795 108.801C374.29 109.158 373.697 109.337 373.013 109.337C372.309 109.337 371.7 109.179 371.185 108.864C370.67 108.538 370.27 108.086 369.986 107.508C369.713 106.93 369.577 106.262 369.577 105.506C369.577 104.938 369.655 104.423 369.813 103.961C369.971 103.488 370.197 103.088 370.491 102.763C370.796 102.426 371.158 102.169 371.579 101.99C372.01 101.801 372.488 101.706 373.013 101.706C373.707 101.706 374.306 101.885 374.811 102.242C375.315 102.589 375.641 103.062 375.788 103.661L375.63 103.85V102.384C375.63 102.174 375.683 102.016 375.788 101.911C375.904 101.796 376.061 101.738 376.261 101.738C376.471 101.738 376.629 101.796 376.734 101.911C376.839 102.016 376.892 102.174 376.892 102.384V108.958C376.892 110.125 376.597 111.003 376.009 111.591C375.431 112.19 374.574 112.49 373.439 112.49ZM373.25 108.296C373.744 108.296 374.17 108.186 374.527 107.965C374.884 107.734 375.157 107.408 375.347 106.988C375.546 106.567 375.646 106.073 375.646 105.506C375.646 104.654 375.431 103.982 375 103.488C374.569 102.983 373.986 102.731 373.25 102.731C372.766 102.731 372.346 102.847 371.989 103.078C371.631 103.299 371.353 103.619 371.153 104.04C370.964 104.449 370.869 104.938 370.869 105.506C370.869 106.357 371.085 107.035 371.516 107.539C371.947 108.044 372.525 108.296 373.25 108.296ZM381.699 109.652C381.174 109.652 380.701 109.552 380.28 109.352C379.87 109.142 379.544 108.859 379.303 108.501C379.061 108.144 378.94 107.744 378.94 107.303C378.94 106.735 379.082 106.289 379.366 105.963C379.66 105.637 380.138 105.406 380.8 105.269C381.473 105.133 382.387 105.064 383.544 105.064H384.253V105.9H383.559C382.708 105.9 382.035 105.942 381.541 106.026C381.058 106.1 380.716 106.231 380.517 106.42C380.328 106.609 380.233 106.877 380.233 107.224C380.233 107.655 380.38 108.007 380.674 108.28C380.979 108.554 381.389 108.69 381.904 108.69C382.324 108.69 382.692 108.59 383.008 108.391C383.333 108.191 383.586 107.918 383.764 107.571C383.954 107.224 384.048 106.825 384.048 106.373V104.576C384.048 103.924 383.917 103.456 383.654 103.173C383.391 102.878 382.96 102.731 382.361 102.731C381.993 102.731 381.626 102.778 381.258 102.873C380.89 102.968 380.501 103.12 380.091 103.33C379.944 103.404 379.818 103.43 379.713 103.409C379.608 103.377 379.523 103.32 379.46 103.236C379.397 103.151 379.361 103.057 379.35 102.952C379.34 102.836 379.361 102.726 379.413 102.621C379.476 102.516 379.571 102.432 379.697 102.368C380.159 102.137 380.617 101.969 381.068 101.864C381.52 101.759 381.951 101.706 382.361 101.706C383.023 101.706 383.57 101.817 384.001 102.037C384.432 102.248 384.752 102.573 384.962 103.015C385.173 103.446 385.278 104.003 385.278 104.686V108.958C385.278 109.169 385.225 109.331 385.12 109.447C385.026 109.563 384.884 109.62 384.694 109.62C384.495 109.62 384.342 109.563 384.237 109.447C384.132 109.331 384.08 109.169 384.08 108.958V107.729H384.222C384.137 108.128 383.975 108.47 383.733 108.753C383.502 109.037 383.213 109.258 382.866 109.416C382.519 109.573 382.13 109.652 381.699 109.652ZM391.525 109.652C390.831 109.652 390.232 109.473 389.728 109.116C389.234 108.759 388.903 108.28 388.735 107.681L388.908 107.508V108.958C388.908 109.169 388.85 109.331 388.735 109.447C388.63 109.563 388.477 109.62 388.277 109.62C388.067 109.62 387.91 109.563 387.805 109.447C387.699 109.331 387.647 109.169 387.647 108.958V98.9317C387.647 98.7215 387.699 98.5638 387.805 98.4587C387.91 98.3431 388.067 98.2853 388.277 98.2853C388.477 98.2853 388.635 98.3431 388.75 98.4587C388.866 98.5638 388.924 98.7215 388.924 98.9317V103.63H388.735C388.913 103.041 389.25 102.573 389.744 102.227C390.238 101.88 390.831 101.706 391.525 101.706C392.219 101.706 392.818 101.869 393.322 102.195C393.827 102.51 394.216 102.968 394.489 103.567C394.773 104.155 394.915 104.859 394.915 105.679C394.915 106.488 394.773 107.193 394.489 107.792C394.216 108.38 393.822 108.837 393.307 109.163C392.802 109.489 392.208 109.652 391.525 109.652ZM391.257 108.627C391.741 108.627 392.156 108.512 392.503 108.28C392.86 108.049 393.133 107.713 393.322 107.271C393.522 106.83 393.622 106.299 393.622 105.679C393.622 104.723 393.406 103.992 392.976 103.488C392.555 102.983 391.982 102.731 391.257 102.731C390.784 102.731 390.369 102.847 390.012 103.078C389.654 103.299 389.376 103.63 389.176 104.071C388.987 104.502 388.892 105.038 388.892 105.679C388.892 106.625 389.108 107.356 389.539 107.871C389.97 108.375 390.542 108.627 391.257 108.627ZM399.171 109.652C398.415 109.652 397.837 109.421 397.437 108.958C397.038 108.496 396.838 107.834 396.838 106.972V98.9317C396.838 98.7215 396.891 98.5638 396.996 98.4587C397.101 98.3431 397.259 98.2853 397.469 98.2853C397.668 98.2853 397.826 98.3431 397.942 98.4587C398.057 98.5638 398.115 98.7215 398.115 98.9317V106.877C398.115 107.445 398.225 107.871 398.446 108.154C398.677 108.428 399.014 108.564 399.455 108.564C399.55 108.564 399.634 108.559 399.707 108.548C399.781 108.538 399.855 108.533 399.928 108.533C400.044 108.522 400.123 108.548 400.165 108.612C400.217 108.675 400.243 108.801 400.243 108.99C400.243 109.179 400.201 109.321 400.117 109.416C400.033 109.51 399.897 109.573 399.707 109.605C399.623 109.615 399.534 109.626 399.439 109.636C399.345 109.647 399.255 109.652 399.171 109.652ZM404.879 109.652C404.069 109.652 403.37 109.494 402.782 109.179C402.204 108.853 401.752 108.396 401.426 107.807C401.111 107.219 400.953 106.515 400.953 105.695C400.953 104.896 401.111 104.203 401.426 103.614C401.741 103.015 402.172 102.547 402.719 102.211C403.276 101.875 403.917 101.706 404.642 101.706C405.157 101.706 405.62 101.796 406.03 101.974C406.439 102.143 406.786 102.389 407.07 102.715C407.364 103.041 407.585 103.435 407.732 103.898C407.89 104.36 407.969 104.88 407.969 105.458C407.969 105.627 407.921 105.753 407.827 105.837C407.732 105.91 407.596 105.947 407.417 105.947H401.931V105.112H407.117L406.865 105.317C406.865 104.749 406.781 104.271 406.613 103.882C406.445 103.483 406.198 103.178 405.872 102.968C405.557 102.757 405.157 102.652 404.674 102.652C404.138 102.652 403.681 102.778 403.302 103.031C402.934 103.272 402.656 103.614 402.467 104.055C402.277 104.486 402.183 104.991 402.183 105.569V105.663C402.183 106.63 402.414 107.366 402.876 107.871C403.349 108.375 404.017 108.627 404.879 108.627C405.236 108.627 405.588 108.58 405.935 108.485C406.292 108.391 406.639 108.233 406.975 108.012C407.123 107.918 407.254 107.876 407.37 107.886C407.496 107.886 407.596 107.923 407.669 107.997C407.743 108.06 407.79 108.144 407.811 108.249C407.843 108.344 407.832 108.449 407.779 108.564C407.737 108.68 407.648 108.78 407.511 108.864C407.165 109.116 406.755 109.31 406.282 109.447C405.809 109.584 405.341 109.652 404.879 109.652Z" fill="#101E37"/>
<path d="M426.407 101.883L423.009 105.281L419.611 101.883C419.269 101.541 418.717 101.541 418.376 101.883C418.034 102.224 418.034 102.776 418.376 103.118L422.396 107.138C422.738 107.479 423.289 107.479 423.631 107.138L427.651 103.118C427.993 102.776 427.993 102.224 427.651 101.883C427.31 101.55 426.749 101.541 426.407 101.883Z" fill="#101E37"/>
<rect x="217.5" y="91.5" width="18" height="25" rx="8.5" fill="#F3F6F9"/>
<rect x="217.5" y="91.5" width="18" height="25" rx="8.5" stroke="#38485C"/>
<path d="M226.915 109H225.808V101.918C225.808 101.649 225.808 101.419 225.808 101.228C225.812 101.032 225.817 100.854 225.821 100.694C225.83 100.53 225.842 100.364 225.855 100.195C225.714 100.341 225.582 100.466 225.459 100.571C225.336 100.672 225.183 100.797 225.001 100.947L223.859 101.863L223.265 101.091L225.972 99.0059H226.915V109Z" fill="#101E37"/>
<path d="M273.653 104C273.653 105.296 274.704 106.347 276 106.347C277.296 106.347 278.347 105.296 278.347 104C278.347 102.704 277.296 101.653 276 101.653C274.704 101.653 273.653 102.704 273.653 104ZM241 103.56C240.757 103.56 240.56 103.757 240.56 104C240.56 104.243 240.757 104.44 241 104.44L241 104L241 103.56ZM276 104L276 103.56L258.5 103.56L258.5 104L258.5 104.44L276 104.44L276 104ZM258.5 104L258.5 103.56L241 103.56L241 104L241 104.44L258.5 104.44L258.5 104Z" fill="#080F1C"/>
<rect x="295.5" y="32.5" width="18" height="25" rx="8.5" fill="#F3F6F9"/>
<rect x="295.5" y="32.5" width="18" height="25" rx="8.5" stroke="#38485C"/>
<path d="M307.239 50H300.69V49.0498L303.363 46.3359C303.86 45.8346 304.277 45.388 304.614 44.9961C304.956 44.6042 305.216 44.2191 305.394 43.8408C305.571 43.458 305.66 43.0387 305.66 42.583C305.66 42.0179 305.492 41.5872 305.154 41.291C304.822 40.9902 304.382 40.8398 303.835 40.8398C303.356 40.8398 302.933 40.9219 302.563 41.0859C302.194 41.25 301.816 41.4824 301.429 41.7832L300.82 41.0176C301.085 40.7943 301.372 40.596 301.682 40.4229C301.996 40.2497 302.331 40.113 302.687 40.0127C303.047 39.9124 303.429 39.8623 303.835 39.8623C304.45 39.8623 304.981 39.9694 305.428 40.1836C305.874 40.3978 306.218 40.7031 306.46 41.0996C306.706 41.4961 306.829 41.9678 306.829 42.5146C306.829 43.0433 306.724 43.5355 306.515 43.9912C306.305 44.4424 306.011 44.8913 305.633 45.3379C305.255 45.7799 304.812 46.2493 304.307 46.7461L302.133 48.9131V48.9609H307.239V50Z" fill="#101E37"/>
<path d="M304.94 63C304.94 62.757 304.743 62.56 304.5 62.56C304.257 62.56 304.06 62.757 304.06 63L304.5 63L304.94 63ZM304.5 90.3467C305.796 90.3467 306.847 89.296 306.847 88C306.847 86.704 305.796 85.6533 304.5 85.6533C303.204 85.6533 302.153 86.704 302.153 88C302.153 89.296 303.204 90.3467 304.5 90.3467ZM304.5 63L304.06 63L304.06 75.5L304.5 75.5L304.94 75.5L304.94 63L304.5 63ZM304.5 75.5L304.06 75.5L304.06 88L304.5 88L304.94 88L304.94 75.5L304.5 75.5Z" fill="#080F1C"/>
<rect x="354.5" y="32.5" width="18" height="25" rx="8.5" fill="#F3F6F9"/>
<rect x="354.5" y="32.5" width="18" height="25" rx="8.5" stroke="#38485C"/>
<path d="M365.87 42.3369C365.87 42.7835 365.784 43.1709 365.61 43.499C365.437 43.8271 365.196 44.096 364.886 44.3057C364.576 44.5107 364.211 44.6543 363.792 44.7363V44.791C364.585 44.8913 365.18 45.1465 365.576 45.5566C365.977 45.9668 366.178 46.5046 366.178 47.1699C366.178 47.7487 366.041 48.2614 365.768 48.708C365.499 49.1546 365.084 49.5055 364.523 49.7607C363.967 50.0114 363.254 50.1367 362.384 50.1367C361.855 50.1367 361.365 50.0934 360.914 50.0068C360.467 49.9248 360.039 49.7858 359.629 49.5898V48.5234C360.044 48.7285 360.495 48.8903 360.982 49.0088C361.47 49.1227 361.942 49.1797 362.397 49.1797C363.309 49.1797 363.967 48.9997 364.373 48.6396C364.779 48.2751 364.981 47.7783 364.981 47.1494C364.981 46.7165 364.868 46.3678 364.64 46.1035C364.416 45.8346 364.093 45.6387 363.669 45.5156C363.25 45.388 362.744 45.3242 362.151 45.3242H361.153V44.3535H362.158C362.701 44.3535 363.161 44.2738 363.539 44.1143C363.917 43.9548 364.204 43.7314 364.4 43.4443C364.601 43.1527 364.701 42.8086 364.701 42.4121C364.701 41.9062 364.533 41.5166 364.195 41.2432C363.858 40.9652 363.4 40.8262 362.821 40.8262C362.466 40.8262 362.142 40.8626 361.851 40.9355C361.559 41.0085 361.285 41.1087 361.03 41.2363C360.775 41.3639 360.52 41.512 360.265 41.6807L359.69 40.9014C360.055 40.6188 360.499 40.375 361.023 40.1699C361.548 39.9648 362.142 39.8623 362.808 39.8623C363.828 39.8623 364.594 40.0947 365.104 40.5596C365.615 41.0244 365.87 41.6169 365.87 42.3369Z" fill="#101E37"/>
<path d="M363.94 63C363.94 62.757 363.743 62.56 363.5 62.56C363.257 62.56 363.06 62.757 363.06 63L363.5 63L363.94 63ZM363.5 90.3467C364.796 90.3467 365.847 89.296 365.847 88C365.847 86.704 364.796 85.6533 363.5 85.6533C362.204 85.6533 361.153 86.704 361.153 88C361.153 89.296 362.204 90.3467 363.5 90.3467ZM363.5 63L363.06 63L363.06 75.5L363.5 75.5L363.94 75.5L363.94 63L363.5 63ZM363.5 75.5L363.06 75.5L363.06 88L363.5 88L363.94 88L363.94 75.5L363.5 75.5Z" fill="#080F1C"/>
<rect x="413.5" y="32.5" width="18" height="25" rx="8.5" fill="#F3F6F9"/>
<rect x="413.5" y="32.5" width="18" height="25" rx="8.5" stroke="#38485C"/>
<path d="M425.738 47.6826H424.241V50H423.134V47.6826H418.301V46.7256L423.059 39.9512H424.241V46.6572H425.738V47.6826ZM423.134 46.6572V43.3896C423.134 43.139 423.136 42.9134 423.141 42.7129C423.145 42.5078 423.152 42.3187 423.161 42.1455C423.17 41.9678 423.177 41.7992 423.182 41.6396C423.191 41.4801 423.198 41.3229 423.202 41.168H423.147C423.061 41.3503 422.961 41.5439 422.847 41.749C422.737 41.9495 422.626 42.1296 422.512 42.2891L419.429 46.6572H423.134Z" fill="#101E37"/>
<path d="M422.94 63C422.94 62.757 422.743 62.56 422.5 62.56C422.257 62.56 422.06 62.757 422.06 63L422.5 63L422.94 63ZM422.5 90.3467C423.796 90.3467 424.847 89.296 424.847 88C424.847 86.704 423.796 85.6533 422.5 85.6533C421.204 85.6533 420.153 86.704 420.153 88C420.153 89.296 421.204 90.3467 422.5 90.3467ZM422.5 63L422.06 63L422.06 75.5L422.5 75.5L422.94 75.5L422.94 63L422.5 63ZM422.5 75.5L422.06 75.5L422.06 88L422.5 88L422.94 88L422.94 75.5L422.5 75.5Z" fill="#080F1C"/>
<path d="M447.347 104C447.347 102.704 446.296 101.653 445 101.653C443.704 101.653 442.653 102.704 442.653 104C442.653 105.296 443.704 106.347 445 106.347C446.296 106.347 447.347 105.296 447.347 104ZM480 104.44C480.243 104.44 480.44 104.243 480.44 104C480.44 103.757 480.243 103.56 480 103.56L480 104L480 104.44ZM445 104L445 104.44L462.5 104.44L462.5 104L462.5 103.56L445 103.56L445 104ZM462.5 104L462.5 104.44L480 104.44L480 104L480 103.56L462.5 103.56L462.5 104Z" fill="#080F1C"/>
<rect x="485.5" y="91.5" width="18" height="25" rx="8.5" fill="#F3F6F9"/>
<rect x="485.5" y="91.5" width="18" height="25" rx="8.5" stroke="#38485C"/>
<path d="M493.849 102.889C494.528 102.889 495.118 103.005 495.619 103.237C496.12 103.465 496.508 103.798 496.781 104.235C497.059 104.673 497.198 105.204 497.198 105.828C497.198 106.512 497.05 107.102 496.754 107.599C496.458 108.091 496.032 108.471 495.476 108.74C494.92 109.005 494.254 109.137 493.479 109.137C492.96 109.137 492.477 109.091 492.03 109C491.584 108.909 491.208 108.772 490.902 108.59V107.51C491.235 107.71 491.638 107.87 492.112 107.988C492.586 108.107 493.047 108.166 493.493 108.166C493.999 108.166 494.441 108.086 494.819 107.927C495.202 107.763 495.498 107.517 495.708 107.188C495.922 106.856 496.029 106.439 496.029 105.938C496.029 105.272 495.824 104.759 495.414 104.399C495.008 104.035 494.366 103.853 493.486 103.853C493.204 103.853 492.894 103.875 492.557 103.921C492.219 103.966 491.941 104.017 491.723 104.071L491.148 103.695L491.531 99.0059H496.501V100.045H492.502L492.249 103.06C492.422 103.023 492.646 102.987 492.919 102.95C493.192 102.909 493.502 102.889 493.849 102.889Z" fill="#101E37"/>
</svg>
