<svg width="728" height="408" viewBox="0 0 728 408" fill="none" xmlns="http://www.w3.org/2000/svg">
<rect x="1" y="1" width="726" height="406" rx="7" fill="#F3F6F9"/>
<rect x="1" y="1" width="726" height="406" rx="7" stroke="#E6EBF0" stroke-width="2"/>
<path d="M207 47C211.971 47 216 51.0294 216 56V88C216 92.9706 211.971 97 207 97H125C120.029 97 116 92.9706 116 88V56C116 51.0294 120.029 47 125 47H207Z" fill="white"/>
<path d="M207 47C211.971 47 216 51.0294 216 56V88C216 92.9706 211.971 97 207 97H125C120.029 97 116 92.9706 116 88V56C116 51.0294 120.029 47 125 47H207Z" stroke="#E6EBF0" stroke-width="2"/>
<path d="M133 78H149C149.55 78 150 77.55 150 77C150 76.45 149.55 76 149 76H133C132.45 76 132 76.45 132 77C132 77.55 132.45 78 133 78ZM133 73H149C149.55 73 150 72.55 150 72C150 71.45 149.55 71 149 71H133C132.45 71 132 71.45 132 72C132 72.55 132.45 73 133 73ZM132 67C132 67.55 132.45 68 133 68H149C149.55 68 150 67.55 150 67C150 66.45 149.55 66 149 66H133C132.45 66 132 66.45 132 67Z" fill="#38485C"/>
<path d="M159.286 78.126C159.07 78.126 158.902 78.066 158.782 77.946C158.662 77.814 158.602 77.634 158.602 77.406V65.904C158.602 65.664 158.662 65.484 158.782 65.364C158.902 65.244 159.07 65.184 159.286 65.184C159.478 65.184 159.628 65.226 159.736 65.31C159.856 65.382 159.964 65.508 160.06 65.688L164.992 74.976H164.452L169.366 65.688C169.462 65.508 169.564 65.382 169.672 65.31C169.78 65.226 169.936 65.184 170.14 65.184C170.344 65.184 170.506 65.244 170.626 65.364C170.746 65.484 170.806 65.664 170.806 65.904V77.406C170.806 77.634 170.746 77.814 170.626 77.946C170.518 78.066 170.35 78.126 170.122 78.126C169.906 78.126 169.738 78.066 169.618 77.946C169.498 77.814 169.438 77.634 169.438 77.406V67.29H169.87L165.37 75.732C165.286 75.888 165.196 76.002 165.1 76.074C165.016 76.134 164.89 76.164 164.722 76.164C164.554 76.164 164.422 76.128 164.326 76.056C164.23 75.984 164.146 75.876 164.074 75.732L159.52 67.272H159.952V77.406C159.952 77.634 159.892 77.814 159.772 77.946C159.664 78.066 159.502 78.126 159.286 78.126ZM177.708 78.162C176.784 78.162 175.986 77.982 175.314 77.622C174.654 77.25 174.138 76.728 173.766 76.056C173.406 75.384 173.226 74.58 173.226 73.644C173.226 72.732 173.406 71.94 173.766 71.268C174.126 70.584 174.618 70.05 175.242 69.666C175.878 69.282 176.61 69.09 177.438 69.09C178.026 69.09 178.554 69.192 179.022 69.396C179.49 69.588 179.886 69.87 180.21 70.242C180.546 70.614 180.798 71.064 180.966 71.592C181.146 72.12 181.236 72.714 181.236 73.374C181.236 73.566 181.182 73.71 181.074 73.806C180.966 73.89 180.81 73.932 180.606 73.932H174.342V72.978H180.264L179.976 73.212C179.976 72.564 179.88 72.018 179.688 71.574C179.496 71.118 179.214 70.77 178.842 70.53C178.482 70.29 178.026 70.17 177.474 70.17C176.862 70.17 176.34 70.314 175.908 70.602C175.488 70.878 175.17 71.268 174.954 71.772C174.738 72.264 174.63 72.84 174.63 73.5V73.608C174.63 74.712 174.894 75.552 175.422 76.128C175.962 76.704 176.724 76.992 177.708 76.992C178.116 76.992 178.518 76.938 178.914 76.83C179.322 76.722 179.718 76.542 180.102 76.29C180.27 76.182 180.42 76.134 180.552 76.146C180.696 76.146 180.81 76.188 180.894 76.272C180.978 76.344 181.032 76.44 181.056 76.56C181.092 76.668 181.08 76.788 181.02 76.92C180.972 77.052 180.87 77.166 180.714 77.262C180.318 77.55 179.85 77.772 179.31 77.928C178.77 78.084 178.236 78.162 177.708 78.162ZM184.067 78.126C183.827 78.126 183.647 78.06 183.527 77.928C183.407 77.796 183.347 77.61 183.347 77.37V69.864C183.347 69.624 183.407 69.444 183.527 69.324C183.647 69.192 183.821 69.126 184.049 69.126C184.277 69.126 184.451 69.192 184.571 69.324C184.703 69.444 184.769 69.624 184.769 69.864V71.412L184.571 71.196C184.823 70.5 185.231 69.978 185.795 69.63C186.371 69.27 187.031 69.09 187.775 69.09C188.471 69.09 189.047 69.216 189.503 69.468C189.971 69.72 190.319 70.104 190.547 70.62C190.775 71.124 190.889 71.766 190.889 72.546V77.37C190.889 77.61 190.823 77.796 190.691 77.928C190.571 78.06 190.397 78.126 190.169 78.126C189.929 78.126 189.743 78.06 189.611 77.928C189.491 77.796 189.431 77.61 189.431 77.37V72.636C189.431 71.82 189.269 71.226 188.945 70.854C188.633 70.47 188.129 70.278 187.433 70.278C186.629 70.278 185.987 70.53 185.507 71.034C185.039 71.526 184.805 72.186 184.805 73.014V77.37C184.805 77.874 184.559 78.126 184.067 78.126ZM196.673 78.162C195.965 78.162 195.377 78.036 194.909 77.784C194.453 77.52 194.105 77.13 193.865 76.614C193.637 76.098 193.523 75.456 193.523 74.688V69.864C193.523 69.612 193.583 69.426 193.703 69.306C193.835 69.186 194.015 69.126 194.243 69.126C194.483 69.126 194.663 69.186 194.783 69.306C194.915 69.426 194.981 69.612 194.981 69.864V74.67C194.981 75.438 195.137 76.014 195.449 76.398C195.773 76.77 196.277 76.956 196.961 76.956C197.705 76.956 198.311 76.704 198.779 76.2C199.247 75.696 199.481 75.036 199.481 74.22V69.864C199.481 69.612 199.541 69.426 199.661 69.306C199.793 69.186 199.979 69.126 200.219 69.126C200.447 69.126 200.621 69.186 200.741 69.306C200.873 69.426 200.939 69.612 200.939 69.864V77.37C200.939 77.874 200.705 78.126 200.237 78.126C200.009 78.126 199.829 78.06 199.697 77.928C199.577 77.796 199.517 77.61 199.517 77.37V75.732L199.751 75.984C199.511 76.692 199.115 77.232 198.563 77.604C198.023 77.976 197.393 78.162 196.673 78.162ZM197.861 67.974C197.777 68.094 197.675 68.166 197.555 68.19C197.435 68.202 197.321 68.184 197.213 68.136C197.105 68.076 197.027 67.992 196.979 67.884C196.931 67.776 196.943 67.65 197.015 67.506L198.527 64.572C198.611 64.404 198.719 64.296 198.851 64.248C198.983 64.2 199.115 64.194 199.247 64.23C199.391 64.254 199.511 64.314 199.607 64.41C199.703 64.506 199.757 64.62 199.769 64.752C199.793 64.884 199.757 65.022 199.661 65.166L197.861 67.974Z" fill="#101E37"/>
<rect x="263" y="48" width="98" height="48" rx="8" fill="#274986"/>
<path d="M279 78H295C295.55 78 296 77.55 296 77C296 76.45 295.55 76 295 76H279C278.45 76 278 76.45 278 77C278 77.55 278.45 78 279 78ZM279 73H295C295.55 73 296 72.55 296 72C296 71.45 295.55 71 295 71H279C278.45 71 278 71.45 278 72C278 72.55 278.45 73 279 73ZM278 67C278 67.55 278.45 68 279 68H295C295.55 68 296 67.55 296 67C296 66.45 295.55 66 295 66H279C278.45 66 278 66.45 278 67Z" fill="white"/>
<path d="M305.286 78.126C305.07 78.126 304.902 78.066 304.782 77.946C304.662 77.814 304.602 77.634 304.602 77.406V65.904C304.602 65.664 304.662 65.484 304.782 65.364C304.902 65.244 305.07 65.184 305.286 65.184C305.478 65.184 305.628 65.226 305.736 65.31C305.856 65.382 305.964 65.508 306.06 65.688L310.992 74.976H310.452L315.366 65.688C315.462 65.508 315.564 65.382 315.672 65.31C315.78 65.226 315.936 65.184 316.14 65.184C316.344 65.184 316.506 65.244 316.626 65.364C316.746 65.484 316.806 65.664 316.806 65.904V77.406C316.806 77.634 316.746 77.814 316.626 77.946C316.518 78.066 316.35 78.126 316.122 78.126C315.906 78.126 315.738 78.066 315.618 77.946C315.498 77.814 315.438 77.634 315.438 77.406V67.29H315.87L311.37 75.732C311.286 75.888 311.196 76.002 311.1 76.074C311.016 76.134 310.89 76.164 310.722 76.164C310.554 76.164 310.422 76.128 310.326 76.056C310.23 75.984 310.146 75.876 310.074 75.732L305.52 67.272H305.952V77.406C305.952 77.634 305.892 77.814 305.772 77.946C305.664 78.066 305.502 78.126 305.286 78.126ZM323.708 78.162C322.784 78.162 321.986 77.982 321.314 77.622C320.654 77.25 320.138 76.728 319.766 76.056C319.406 75.384 319.226 74.58 319.226 73.644C319.226 72.732 319.406 71.94 319.766 71.268C320.126 70.584 320.618 70.05 321.242 69.666C321.878 69.282 322.61 69.09 323.438 69.09C324.026 69.09 324.554 69.192 325.022 69.396C325.49 69.588 325.886 69.87 326.21 70.242C326.546 70.614 326.798 71.064 326.966 71.592C327.146 72.12 327.236 72.714 327.236 73.374C327.236 73.566 327.182 73.71 327.074 73.806C326.966 73.89 326.81 73.932 326.606 73.932H320.342V72.978H326.264L325.976 73.212C325.976 72.564 325.88 72.018 325.688 71.574C325.496 71.118 325.214 70.77 324.842 70.53C324.482 70.29 324.026 70.17 323.474 70.17C322.862 70.17 322.34 70.314 321.908 70.602C321.488 70.878 321.17 71.268 320.954 71.772C320.738 72.264 320.63 72.84 320.63 73.5V73.608C320.63 74.712 320.894 75.552 321.422 76.128C321.962 76.704 322.724 76.992 323.708 76.992C324.116 76.992 324.518 76.938 324.914 76.83C325.322 76.722 325.718 76.542 326.102 76.29C326.27 76.182 326.42 76.134 326.552 76.146C326.696 76.146 326.81 76.188 326.894 76.272C326.978 76.344 327.032 76.44 327.056 76.56C327.092 76.668 327.08 76.788 327.02 76.92C326.972 77.052 326.87 77.166 326.714 77.262C326.318 77.55 325.85 77.772 325.31 77.928C324.77 78.084 324.236 78.162 323.708 78.162ZM330.067 78.126C329.827 78.126 329.647 78.06 329.527 77.928C329.407 77.796 329.347 77.61 329.347 77.37V69.864C329.347 69.624 329.407 69.444 329.527 69.324C329.647 69.192 329.821 69.126 330.049 69.126C330.277 69.126 330.451 69.192 330.571 69.324C330.703 69.444 330.769 69.624 330.769 69.864V71.412L330.571 71.196C330.823 70.5 331.231 69.978 331.795 69.63C332.371 69.27 333.031 69.09 333.775 69.09C334.471 69.09 335.047 69.216 335.503 69.468C335.971 69.72 336.319 70.104 336.547 70.62C336.775 71.124 336.889 71.766 336.889 72.546V77.37C336.889 77.61 336.823 77.796 336.691 77.928C336.571 78.06 336.397 78.126 336.169 78.126C335.929 78.126 335.743 78.06 335.611 77.928C335.491 77.796 335.431 77.61 335.431 77.37V72.636C335.431 71.82 335.269 71.226 334.945 70.854C334.633 70.47 334.129 70.278 333.433 70.278C332.629 70.278 331.987 70.53 331.507 71.034C331.039 71.526 330.805 72.186 330.805 73.014V77.37C330.805 77.874 330.559 78.126 330.067 78.126ZM342.673 78.162C341.965 78.162 341.377 78.036 340.909 77.784C340.453 77.52 340.105 77.13 339.865 76.614C339.637 76.098 339.523 75.456 339.523 74.688V69.864C339.523 69.612 339.583 69.426 339.703 69.306C339.835 69.186 340.015 69.126 340.243 69.126C340.483 69.126 340.663 69.186 340.783 69.306C340.915 69.426 340.981 69.612 340.981 69.864V74.67C340.981 75.438 341.137 76.014 341.449 76.398C341.773 76.77 342.277 76.956 342.961 76.956C343.705 76.956 344.311 76.704 344.779 76.2C345.247 75.696 345.481 75.036 345.481 74.22V69.864C345.481 69.612 345.541 69.426 345.661 69.306C345.793 69.186 345.979 69.126 346.219 69.126C346.447 69.126 346.621 69.186 346.741 69.306C346.873 69.426 346.939 69.612 346.939 69.864V77.37C346.939 77.874 346.705 78.126 346.237 78.126C346.009 78.126 345.829 78.06 345.697 77.928C345.577 77.796 345.517 77.61 345.517 77.37V75.732L345.751 75.984C345.511 76.692 345.115 77.232 344.563 77.604C344.023 77.976 343.393 78.162 342.673 78.162ZM343.861 67.974C343.777 68.094 343.675 68.166 343.555 68.19C343.435 68.202 343.321 68.184 343.213 68.136C343.105 68.076 343.027 67.992 342.979 67.884C342.931 67.776 342.943 67.65 343.015 67.506L344.527 64.572C344.611 64.404 344.719 64.296 344.851 64.248C344.983 64.2 345.115 64.194 345.247 64.23C345.391 64.254 345.511 64.314 345.607 64.41C345.703 64.506 345.757 64.62 345.769 64.752C345.793 64.884 345.757 65.022 345.661 65.166L343.861 67.974Z" fill="white"/>
<rect x="262" y="103" width="350" height="258" rx="9" fill="white"/>
<rect x="262" y="103" width="350" height="258" rx="9" stroke="#E6EBF0" stroke-width="2"/>
<rect x="263" y="104" width="348" height="48" rx="8" fill="white"/>
<path d="M286.469 128.273C286.469 129.154 286.357 129.956 286.133 130.68C285.909 131.398 285.576 132.018 285.133 132.539C284.695 133.055 284.151 133.453 283.5 133.734C282.849 134.016 282.094 134.156 281.234 134.156C280.349 134.156 279.576 134.016 278.914 133.734C278.258 133.453 277.711 133.052 277.273 132.531C276.841 132.01 276.516 131.388 276.297 130.664C276.083 129.94 275.977 129.138 275.977 128.258C275.977 127.091 276.169 126.068 276.555 125.188C276.94 124.307 277.523 123.622 278.305 123.133C279.091 122.643 280.076 122.398 281.258 122.398C282.388 122.398 283.339 122.641 284.109 123.125C284.885 123.609 285.471 124.292 285.867 125.172C286.268 126.047 286.469 127.081 286.469 128.273ZM277.375 128.273C277.375 129.242 277.513 130.081 277.789 130.789C278.065 131.497 278.487 132.044 279.055 132.43C279.628 132.815 280.354 133.008 281.234 133.008C282.12 133.008 282.844 132.815 283.406 132.43C283.974 132.044 284.393 131.497 284.664 130.789C284.935 130.081 285.07 129.242 285.07 128.273C285.07 126.799 284.76 125.648 284.141 124.82C283.526 123.987 282.565 123.57 281.258 123.57C280.372 123.57 279.643 123.76 279.07 124.141C278.497 124.521 278.07 125.062 277.789 125.766C277.513 126.464 277.375 127.299 277.375 128.273ZM292.844 125.281C293.911 125.281 294.763 125.648 295.398 126.383C296.034 127.117 296.352 128.221 296.352 129.695C296.352 130.669 296.206 131.487 295.914 132.148C295.622 132.81 295.211 133.31 294.68 133.648C294.154 133.987 293.531 134.156 292.812 134.156C292.359 134.156 291.961 134.096 291.617 133.977C291.273 133.857 290.979 133.695 290.734 133.492C290.49 133.289 290.286 133.068 290.125 132.828H290.031C290.047 133.031 290.065 133.276 290.086 133.562C290.112 133.849 290.125 134.099 290.125 134.312V137.828H288.82V125.438H289.891L290.062 126.703H290.125C290.292 126.443 290.495 126.206 290.734 125.992C290.974 125.773 291.266 125.602 291.609 125.477C291.958 125.346 292.37 125.281 292.844 125.281ZM292.617 126.375C292.023 126.375 291.544 126.49 291.18 126.719C290.82 126.948 290.557 127.292 290.391 127.75C290.224 128.203 290.135 128.773 290.125 129.461V129.711C290.125 130.435 290.203 131.047 290.359 131.547C290.521 132.047 290.784 132.427 291.148 132.688C291.518 132.948 292.013 133.078 292.633 133.078C293.164 133.078 293.607 132.935 293.961 132.648C294.315 132.362 294.578 131.964 294.75 131.453C294.927 130.938 295.016 130.346 295.016 129.68C295.016 128.669 294.818 127.867 294.422 127.273C294.031 126.674 293.43 126.375 292.617 126.375ZM302.047 134.156C301.276 134.156 300.596 133.997 300.008 133.68C299.419 133.362 298.961 132.878 298.633 132.227C298.305 131.576 298.141 130.755 298.141 129.766C298.141 128.729 298.312 127.883 298.656 127.227C299.005 126.565 299.484 126.076 300.094 125.758C300.703 125.44 301.396 125.281 302.172 125.281C302.599 125.281 303.01 125.326 303.406 125.414C303.807 125.497 304.135 125.604 304.391 125.734L304 126.82C303.74 126.716 303.438 126.622 303.094 126.539C302.755 126.456 302.438 126.414 302.141 126.414C301.547 126.414 301.052 126.542 300.656 126.797C300.266 127.052 299.971 127.427 299.773 127.922C299.581 128.417 299.484 129.026 299.484 129.75C299.484 130.443 299.578 131.034 299.766 131.523C299.958 132.013 300.242 132.388 300.617 132.648C300.997 132.904 301.471 133.031 302.039 133.031C302.492 133.031 302.901 132.984 303.266 132.891C303.63 132.792 303.961 132.677 304.258 132.547V133.703C303.971 133.849 303.651 133.961 303.297 134.039C302.948 134.117 302.531 134.156 302.047 134.156ZM307.586 125.438V134H306.289V125.438H307.586ZM306.953 122.234C307.167 122.234 307.349 122.305 307.5 122.445C307.656 122.581 307.734 122.794 307.734 123.086C307.734 123.372 307.656 123.586 307.5 123.727C307.349 123.867 307.167 123.938 306.953 123.938C306.729 123.938 306.542 123.867 306.391 123.727C306.245 123.586 306.172 123.372 306.172 123.086C306.172 122.794 306.245 122.581 306.391 122.445C306.542 122.305 306.729 122.234 306.953 122.234ZM317.719 129.703C317.719 130.406 317.628 131.034 317.445 131.586C317.263 132.138 317 132.604 316.656 132.984C316.312 133.365 315.896 133.656 315.406 133.859C314.922 134.057 314.372 134.156 313.758 134.156C313.185 134.156 312.659 134.057 312.18 133.859C311.706 133.656 311.294 133.365 310.945 132.984C310.602 132.604 310.333 132.138 310.141 131.586C309.953 131.034 309.859 130.406 309.859 129.703C309.859 128.766 310.018 127.969 310.336 127.312C310.654 126.651 311.107 126.148 311.695 125.805C312.289 125.456 312.995 125.281 313.812 125.281C314.594 125.281 315.276 125.456 315.859 125.805C316.448 126.154 316.904 126.659 317.227 127.32C317.555 127.977 317.719 128.771 317.719 129.703ZM311.203 129.703C311.203 130.391 311.294 130.987 311.477 131.492C311.659 131.997 311.94 132.388 312.32 132.664C312.701 132.94 313.19 133.078 313.789 133.078C314.383 133.078 314.87 132.94 315.25 132.664C315.635 132.388 315.919 131.997 316.102 131.492C316.284 130.987 316.375 130.391 316.375 129.703C316.375 129.021 316.284 128.432 316.102 127.938C315.919 127.438 315.638 127.052 315.258 126.781C314.878 126.51 314.385 126.375 313.781 126.375C312.891 126.375 312.237 126.669 311.82 127.258C311.409 127.846 311.203 128.661 311.203 129.703ZM316.055 121.742V121.898C315.951 122.049 315.807 122.232 315.625 122.445C315.448 122.654 315.25 122.875 315.031 123.109C314.812 123.339 314.591 123.557 314.367 123.766C314.148 123.974 313.945 124.154 313.758 124.305H312.891V124.117C313.057 123.919 313.24 123.682 313.438 123.406C313.635 123.125 313.828 122.839 314.016 122.547C314.203 122.25 314.359 121.982 314.484 121.742H316.055ZM324.016 125.281C325.031 125.281 325.799 125.531 326.32 126.031C326.841 126.526 327.102 127.323 327.102 128.422V134H325.82V128.508C325.82 127.794 325.656 127.26 325.328 126.906C325.005 126.552 324.508 126.375 323.836 126.375C322.888 126.375 322.221 126.643 321.836 127.18C321.451 127.716 321.258 128.495 321.258 129.516V134H319.961V125.438H321.008L321.203 126.672H321.273C321.456 126.37 321.688 126.117 321.969 125.914C322.25 125.706 322.565 125.549 322.914 125.445C323.263 125.336 323.63 125.281 324.016 125.281ZM337.227 125.281C337.956 125.281 338.581 125.443 339.102 125.766C339.622 126.089 340.021 126.542 340.297 127.125C340.573 127.703 340.711 128.38 340.711 129.156V129.961H334.797C334.812 130.966 335.062 131.732 335.547 132.258C336.031 132.784 336.714 133.047 337.594 133.047C338.135 133.047 338.615 132.997 339.031 132.898C339.448 132.799 339.88 132.654 340.328 132.461V133.602C339.896 133.794 339.466 133.935 339.039 134.023C338.617 134.112 338.117 134.156 337.539 134.156C336.716 134.156 335.997 133.99 335.383 133.656C334.773 133.318 334.299 132.823 333.961 132.172C333.622 131.521 333.453 130.724 333.453 129.781C333.453 128.859 333.607 128.062 333.914 127.391C334.227 126.714 334.664 126.193 335.227 125.828C335.794 125.464 336.461 125.281 337.227 125.281ZM337.211 126.344C336.518 126.344 335.966 126.57 335.555 127.023C335.143 127.477 334.898 128.109 334.82 128.922H339.352C339.346 128.411 339.266 127.964 339.109 127.578C338.958 127.188 338.727 126.885 338.414 126.672C338.102 126.453 337.701 126.344 337.211 126.344ZM346.969 125.281C347.984 125.281 348.753 125.531 349.273 126.031C349.794 126.526 350.055 127.323 350.055 128.422V134H348.773V128.508C348.773 127.794 348.609 127.26 348.281 126.906C347.958 126.552 347.461 126.375 346.789 126.375C345.841 126.375 345.174 126.643 344.789 127.18C344.404 127.716 344.211 128.495 344.211 129.516V134H342.914V125.438H343.961L344.156 126.672H344.227C344.409 126.37 344.641 126.117 344.922 125.914C345.203 125.706 345.518 125.549 345.867 125.445C346.216 125.336 346.583 125.281 346.969 125.281ZM360.312 134.156C359.542 134.156 358.862 133.997 358.273 133.68C357.685 133.362 357.227 132.878 356.898 132.227C356.57 131.576 356.406 130.755 356.406 129.766C356.406 128.729 356.578 127.883 356.922 127.227C357.271 126.565 357.75 126.076 358.359 125.758C358.969 125.44 359.661 125.281 360.438 125.281C360.865 125.281 361.276 125.326 361.672 125.414C362.073 125.497 362.401 125.604 362.656 125.734L362.266 126.82C362.005 126.716 361.703 126.622 361.359 126.539C361.021 126.456 360.703 126.414 360.406 126.414C359.812 126.414 359.318 126.542 358.922 126.797C358.531 127.052 358.237 127.427 358.039 127.922C357.846 128.417 357.75 129.026 357.75 129.75C357.75 130.443 357.844 131.034 358.031 131.523C358.224 132.013 358.508 132.388 358.883 132.648C359.263 132.904 359.737 133.031 360.305 133.031C360.758 133.031 361.167 132.984 361.531 132.891C361.896 132.792 362.227 132.677 362.523 132.547V133.703C362.237 133.849 361.917 133.961 361.562 134.039C361.214 134.117 360.797 134.156 360.312 134.156ZM367.758 125.297C368.779 125.297 369.536 125.526 370.031 125.984C370.526 126.443 370.773 127.174 370.773 128.18V134H369.828L369.578 132.734H369.516C369.276 133.047 369.026 133.31 368.766 133.523C368.505 133.732 368.203 133.891 367.859 134C367.521 134.104 367.104 134.156 366.609 134.156C366.089 134.156 365.625 134.065 365.219 133.883C364.818 133.701 364.5 133.424 364.266 133.055C364.036 132.685 363.922 132.216 363.922 131.648C363.922 130.794 364.26 130.138 364.938 129.68C365.615 129.221 366.646 128.971 368.031 128.93L369.508 128.867V128.344C369.508 127.604 369.349 127.086 369.031 126.789C368.714 126.492 368.266 126.344 367.688 126.344C367.24 126.344 366.812 126.409 366.406 126.539C366 126.669 365.615 126.823 365.25 127L364.852 126.016C365.237 125.818 365.68 125.648 366.18 125.508C366.68 125.367 367.206 125.297 367.758 125.297ZM369.492 129.781L368.188 129.836C367.12 129.878 366.367 130.052 365.93 130.359C365.492 130.667 365.273 131.102 365.273 131.664C365.273 132.154 365.422 132.516 365.719 132.75C366.016 132.984 366.409 133.102 366.898 133.102C367.659 133.102 368.281 132.891 368.766 132.469C369.25 132.047 369.492 131.414 369.492 130.57V129.781ZM378.984 131.656C378.984 132.203 378.846 132.664 378.57 133.039C378.299 133.409 377.909 133.688 377.398 133.875C376.893 134.062 376.289 134.156 375.586 134.156C374.987 134.156 374.469 134.109 374.031 134.016C373.594 133.922 373.211 133.789 372.883 133.617V132.422C373.232 132.594 373.648 132.75 374.133 132.891C374.617 133.031 375.112 133.102 375.617 133.102C376.357 133.102 376.893 132.982 377.227 132.742C377.56 132.503 377.727 132.177 377.727 131.766C377.727 131.531 377.659 131.326 377.523 131.148C377.393 130.966 377.172 130.792 376.859 130.625C376.547 130.453 376.115 130.266 375.562 130.062C375.016 129.854 374.542 129.648 374.141 129.445C373.745 129.237 373.438 128.984 373.219 128.688C373.005 128.391 372.898 128.005 372.898 127.531C372.898 126.807 373.19 126.253 373.773 125.867C374.362 125.477 375.133 125.281 376.086 125.281C376.602 125.281 377.083 125.333 377.531 125.438C377.984 125.536 378.406 125.672 378.797 125.844L378.359 126.883C378.005 126.732 377.628 126.604 377.227 126.5C376.826 126.396 376.417 126.344 376 126.344C375.401 126.344 374.94 126.443 374.617 126.641C374.299 126.839 374.141 127.109 374.141 127.453C374.141 127.719 374.214 127.938 374.359 128.109C374.51 128.281 374.75 128.443 375.078 128.594C375.406 128.745 375.839 128.922 376.375 129.125C376.911 129.323 377.375 129.529 377.766 129.742C378.156 129.951 378.456 130.206 378.664 130.508C378.878 130.805 378.984 131.188 378.984 131.656ZM384.5 134.156C383.729 134.156 383.049 133.997 382.461 133.68C381.872 133.362 381.414 132.878 381.086 132.227C380.758 131.576 380.594 130.755 380.594 129.766C380.594 128.729 380.766 127.883 381.109 127.227C381.458 126.565 381.938 126.076 382.547 125.758C383.156 125.44 383.849 125.281 384.625 125.281C385.052 125.281 385.464 125.326 385.859 125.414C386.26 125.497 386.589 125.604 386.844 125.734L386.453 126.82C386.193 126.716 385.891 126.622 385.547 126.539C385.208 126.456 384.891 126.414 384.594 126.414C384 126.414 383.505 126.542 383.109 126.797C382.719 127.052 382.424 127.427 382.227 127.922C382.034 128.417 381.938 129.026 381.938 129.75C381.938 130.443 382.031 131.034 382.219 131.523C382.411 132.013 382.695 132.388 383.07 132.648C383.451 132.904 383.924 133.031 384.492 133.031C384.945 133.031 385.354 132.984 385.719 132.891C386.083 132.792 386.414 132.677 386.711 132.547V133.703C386.424 133.849 386.104 133.961 385.75 134.039C385.401 134.117 384.984 134.156 384.5 134.156ZM391.945 125.297C392.966 125.297 393.724 125.526 394.219 125.984C394.714 126.443 394.961 127.174 394.961 128.18V134H394.016L393.766 132.734H393.703C393.464 133.047 393.214 133.31 392.953 133.523C392.693 133.732 392.391 133.891 392.047 134C391.708 134.104 391.292 134.156 390.797 134.156C390.276 134.156 389.812 134.065 389.406 133.883C389.005 133.701 388.688 133.424 388.453 133.055C388.224 132.685 388.109 132.216 388.109 131.648C388.109 130.794 388.448 130.138 389.125 129.68C389.802 129.221 390.833 128.971 392.219 128.93L393.695 128.867V128.344C393.695 127.604 393.536 127.086 393.219 126.789C392.901 126.492 392.453 126.344 391.875 126.344C391.427 126.344 391 126.409 390.594 126.539C390.188 126.669 389.802 126.823 389.438 127L389.039 126.016C389.424 125.818 389.867 125.648 390.367 125.508C390.867 125.367 391.393 125.297 391.945 125.297ZM393.68 129.781L392.375 129.836C391.307 129.878 390.555 130.052 390.117 130.359C389.68 130.667 389.461 131.102 389.461 131.664C389.461 132.154 389.609 132.516 389.906 132.75C390.203 132.984 390.596 133.102 391.086 133.102C391.846 133.102 392.469 132.891 392.953 132.469C393.438 132.047 393.68 131.414 393.68 130.57V129.781ZM400.68 134.156C399.596 134.156 398.737 133.786 398.102 133.047C397.471 132.307 397.156 131.208 397.156 129.75C397.156 128.276 397.479 127.164 398.125 126.414C398.771 125.659 399.63 125.281 400.703 125.281C401.156 125.281 401.552 125.341 401.891 125.461C402.229 125.581 402.521 125.742 402.766 125.945C403.01 126.143 403.216 126.37 403.383 126.625H403.477C403.456 126.464 403.435 126.242 403.414 125.961C403.393 125.68 403.383 125.451 403.383 125.273V121.844H404.68V134H403.633L403.438 132.781H403.383C403.221 133.036 403.016 133.268 402.766 133.477C402.521 133.685 402.227 133.852 401.883 133.977C401.544 134.096 401.143 134.156 400.68 134.156ZM400.883 133.078C401.799 133.078 402.448 132.818 402.828 132.297C403.208 131.776 403.398 131.003 403.398 129.977V129.742C403.398 128.654 403.216 127.818 402.852 127.234C402.492 126.651 401.836 126.359 400.883 126.359C400.086 126.359 399.49 126.667 399.094 127.281C398.698 127.891 398.5 128.724 398.5 129.781C398.5 130.833 398.695 131.646 399.086 132.219C399.482 132.792 400.081 133.078 400.883 133.078ZM410.633 125.297C411.654 125.297 412.411 125.526 412.906 125.984C413.401 126.443 413.648 127.174 413.648 128.18V134H412.703L412.453 132.734H412.391C412.151 133.047 411.901 133.31 411.641 133.523C411.38 133.732 411.078 133.891 410.734 134C410.396 134.104 409.979 134.156 409.484 134.156C408.964 134.156 408.5 134.065 408.094 133.883C407.693 133.701 407.375 133.424 407.141 133.055C406.911 132.685 406.797 132.216 406.797 131.648C406.797 130.794 407.135 130.138 407.812 129.68C408.49 129.221 409.521 128.971 410.906 128.93L412.383 128.867V128.344C412.383 127.604 412.224 127.086 411.906 126.789C411.589 126.492 411.141 126.344 410.562 126.344C410.115 126.344 409.688 126.409 409.281 126.539C408.875 126.669 408.49 126.823 408.125 127L407.727 126.016C408.112 125.818 408.555 125.648 409.055 125.508C409.555 125.367 410.081 125.297 410.633 125.297ZM412.367 129.781L411.062 129.836C409.995 129.878 409.242 130.052 408.805 130.359C408.367 130.667 408.148 131.102 408.148 131.664C408.148 132.154 408.297 132.516 408.594 132.75C408.891 132.984 409.284 133.102 409.773 133.102C410.534 133.102 411.156 132.891 411.641 132.469C412.125 132.047 412.367 131.414 412.367 130.57V129.781Z" fill="#101E37"/>
<path d="M584 122.711C583.61 123.101 583.61 123.731 584 124.121L587.88 128.001L584 131.881C583.61 132.271 583.61 132.901 584 133.291C584.39 133.681 585.02 133.681 585.41 133.291L590 128.701C590.39 128.311 590.39 127.681 590 127.291L585.41 122.701C585.03 122.321 584.39 122.321 584 122.711Z" fill="#101E37"/>
<path d="M263 164C263 159.582 266.582 156 271 156H603C607.418 156 611 159.582 611 164V196C611 200.418 607.418 204 603 204H271C266.582 204 263 200.418 263 196V164Z" fill="white"/>
<path d="M286.469 180.273C286.469 181.154 286.357 181.956 286.133 182.68C285.909 183.398 285.576 184.018 285.133 184.539C284.695 185.055 284.151 185.453 283.5 185.734C282.849 186.016 282.094 186.156 281.234 186.156C280.349 186.156 279.576 186.016 278.914 185.734C278.258 185.453 277.711 185.052 277.273 184.531C276.841 184.01 276.516 183.388 276.297 182.664C276.083 181.94 275.977 181.138 275.977 180.258C275.977 179.091 276.169 178.068 276.555 177.188C276.94 176.307 277.523 175.622 278.305 175.133C279.091 174.643 280.076 174.398 281.258 174.398C282.388 174.398 283.339 174.641 284.109 175.125C284.885 175.609 285.471 176.292 285.867 177.172C286.268 178.047 286.469 179.081 286.469 180.273ZM277.375 180.273C277.375 181.242 277.513 182.081 277.789 182.789C278.065 183.497 278.487 184.044 279.055 184.43C279.628 184.815 280.354 185.008 281.234 185.008C282.12 185.008 282.844 184.815 283.406 184.43C283.974 184.044 284.393 183.497 284.664 182.789C284.935 182.081 285.07 181.242 285.07 180.273C285.07 178.799 284.76 177.648 284.141 176.82C283.526 175.987 282.565 175.57 281.258 175.57C280.372 175.57 279.643 175.76 279.07 176.141C278.497 176.521 278.07 177.062 277.789 177.766C277.513 178.464 277.375 179.299 277.375 180.273ZM292.844 177.281C293.911 177.281 294.763 177.648 295.398 178.383C296.034 179.117 296.352 180.221 296.352 181.695C296.352 182.669 296.206 183.487 295.914 184.148C295.622 184.81 295.211 185.31 294.68 185.648C294.154 185.987 293.531 186.156 292.812 186.156C292.359 186.156 291.961 186.096 291.617 185.977C291.273 185.857 290.979 185.695 290.734 185.492C290.49 185.289 290.286 185.068 290.125 184.828H290.031C290.047 185.031 290.065 185.276 290.086 185.562C290.112 185.849 290.125 186.099 290.125 186.312V189.828H288.82V177.438H289.891L290.062 178.703H290.125C290.292 178.443 290.495 178.206 290.734 177.992C290.974 177.773 291.266 177.602 291.609 177.477C291.958 177.346 292.37 177.281 292.844 177.281ZM292.617 178.375C292.023 178.375 291.544 178.49 291.18 178.719C290.82 178.948 290.557 179.292 290.391 179.75C290.224 180.203 290.135 180.773 290.125 181.461V181.711C290.125 182.435 290.203 183.047 290.359 183.547C290.521 184.047 290.784 184.427 291.148 184.688C291.518 184.948 292.013 185.078 292.633 185.078C293.164 185.078 293.607 184.935 293.961 184.648C294.315 184.362 294.578 183.964 294.75 183.453C294.927 182.938 295.016 182.346 295.016 181.68C295.016 180.669 294.818 179.867 294.422 179.273C294.031 178.674 293.43 178.375 292.617 178.375ZM302.047 186.156C301.276 186.156 300.596 185.997 300.008 185.68C299.419 185.362 298.961 184.878 298.633 184.227C298.305 183.576 298.141 182.755 298.141 181.766C298.141 180.729 298.312 179.883 298.656 179.227C299.005 178.565 299.484 178.076 300.094 177.758C300.703 177.44 301.396 177.281 302.172 177.281C302.599 177.281 303.01 177.326 303.406 177.414C303.807 177.497 304.135 177.604 304.391 177.734L304 178.82C303.74 178.716 303.438 178.622 303.094 178.539C302.755 178.456 302.438 178.414 302.141 178.414C301.547 178.414 301.052 178.542 300.656 178.797C300.266 179.052 299.971 179.427 299.773 179.922C299.581 180.417 299.484 181.026 299.484 181.75C299.484 182.443 299.578 183.034 299.766 183.523C299.958 184.013 300.242 184.388 300.617 184.648C300.997 184.904 301.471 185.031 302.039 185.031C302.492 185.031 302.901 184.984 303.266 184.891C303.63 184.792 303.961 184.677 304.258 184.547V185.703C303.971 185.849 303.651 185.961 303.297 186.039C302.948 186.117 302.531 186.156 302.047 186.156ZM307.586 177.438V186H306.289V177.438H307.586ZM306.953 174.234C307.167 174.234 307.349 174.305 307.5 174.445C307.656 174.581 307.734 174.794 307.734 175.086C307.734 175.372 307.656 175.586 307.5 175.727C307.349 175.867 307.167 175.938 306.953 175.938C306.729 175.938 306.542 175.867 306.391 175.727C306.245 175.586 306.172 175.372 306.172 175.086C306.172 174.794 306.245 174.581 306.391 174.445C306.542 174.305 306.729 174.234 306.953 174.234ZM317.719 181.703C317.719 182.406 317.628 183.034 317.445 183.586C317.263 184.138 317 184.604 316.656 184.984C316.312 185.365 315.896 185.656 315.406 185.859C314.922 186.057 314.372 186.156 313.758 186.156C313.185 186.156 312.659 186.057 312.18 185.859C311.706 185.656 311.294 185.365 310.945 184.984C310.602 184.604 310.333 184.138 310.141 183.586C309.953 183.034 309.859 182.406 309.859 181.703C309.859 180.766 310.018 179.969 310.336 179.312C310.654 178.651 311.107 178.148 311.695 177.805C312.289 177.456 312.995 177.281 313.812 177.281C314.594 177.281 315.276 177.456 315.859 177.805C316.448 178.154 316.904 178.659 317.227 179.32C317.555 179.977 317.719 180.771 317.719 181.703ZM311.203 181.703C311.203 182.391 311.294 182.987 311.477 183.492C311.659 183.997 311.94 184.388 312.32 184.664C312.701 184.94 313.19 185.078 313.789 185.078C314.383 185.078 314.87 184.94 315.25 184.664C315.635 184.388 315.919 183.997 316.102 183.492C316.284 182.987 316.375 182.391 316.375 181.703C316.375 181.021 316.284 180.432 316.102 179.938C315.919 179.438 315.638 179.052 315.258 178.781C314.878 178.51 314.385 178.375 313.781 178.375C312.891 178.375 312.237 178.669 311.82 179.258C311.409 179.846 311.203 180.661 311.203 181.703ZM316.055 173.742V173.898C315.951 174.049 315.807 174.232 315.625 174.445C315.448 174.654 315.25 174.875 315.031 175.109C314.812 175.339 314.591 175.557 314.367 175.766C314.148 175.974 313.945 176.154 313.758 176.305H312.891V176.117C313.057 175.919 313.24 175.682 313.438 175.406C313.635 175.125 313.828 174.839 314.016 174.547C314.203 174.25 314.359 173.982 314.484 173.742H316.055ZM324.016 177.281C325.031 177.281 325.799 177.531 326.32 178.031C326.841 178.526 327.102 179.323 327.102 180.422V186H325.82V180.508C325.82 179.794 325.656 179.26 325.328 178.906C325.005 178.552 324.508 178.375 323.836 178.375C322.888 178.375 322.221 178.643 321.836 179.18C321.451 179.716 321.258 180.495 321.258 181.516V186H319.961V177.438H321.008L321.203 178.672H321.273C321.456 178.37 321.688 178.117 321.969 177.914C322.25 177.706 322.565 177.549 322.914 177.445C323.263 177.336 323.63 177.281 324.016 177.281ZM336.977 186.156C335.893 186.156 335.034 185.786 334.398 185.047C333.768 184.307 333.453 183.208 333.453 181.75C333.453 180.276 333.776 179.164 334.422 178.414C335.068 177.659 335.927 177.281 337 177.281C337.453 177.281 337.849 177.341 338.188 177.461C338.526 177.581 338.818 177.742 339.062 177.945C339.307 178.143 339.513 178.37 339.68 178.625H339.773C339.753 178.464 339.732 178.242 339.711 177.961C339.69 177.68 339.68 177.451 339.68 177.273V173.844H340.977V186H339.93L339.734 184.781H339.68C339.518 185.036 339.312 185.268 339.062 185.477C338.818 185.685 338.523 185.852 338.18 185.977C337.841 186.096 337.44 186.156 336.977 186.156ZM337.18 185.078C338.096 185.078 338.745 184.818 339.125 184.297C339.505 183.776 339.695 183.003 339.695 181.977V181.742C339.695 180.654 339.513 179.818 339.148 179.234C338.789 178.651 338.133 178.359 337.18 178.359C336.383 178.359 335.786 178.667 335.391 179.281C334.995 179.891 334.797 180.724 334.797 181.781C334.797 182.833 334.992 183.646 335.383 184.219C335.779 184.792 336.378 185.078 337.18 185.078ZM347.023 177.281C347.753 177.281 348.378 177.443 348.898 177.766C349.419 178.089 349.818 178.542 350.094 179.125C350.37 179.703 350.508 180.38 350.508 181.156V181.961H344.594C344.609 182.966 344.859 183.732 345.344 184.258C345.828 184.784 346.51 185.047 347.391 185.047C347.932 185.047 348.411 184.997 348.828 184.898C349.245 184.799 349.677 184.654 350.125 184.461V185.602C349.693 185.794 349.263 185.935 348.836 186.023C348.414 186.112 347.914 186.156 347.336 186.156C346.513 186.156 345.794 185.99 345.18 185.656C344.57 185.318 344.096 184.823 343.758 184.172C343.419 183.521 343.25 182.724 343.25 181.781C343.25 180.859 343.404 180.062 343.711 179.391C344.023 178.714 344.461 178.193 345.023 177.828C345.591 177.464 346.258 177.281 347.023 177.281ZM347.008 178.344C346.315 178.344 345.763 178.57 345.352 179.023C344.94 179.477 344.695 180.109 344.617 180.922H349.148C349.143 180.411 349.062 179.964 348.906 179.578C348.755 179.188 348.523 178.885 348.211 178.672C347.898 178.453 347.497 178.344 347.008 178.344ZM360.922 177.281C361.938 177.281 362.706 177.531 363.227 178.031C363.747 178.526 364.008 179.323 364.008 180.422V186H362.727V180.508C362.727 179.794 362.562 179.26 362.234 178.906C361.911 178.552 361.414 178.375 360.742 178.375C359.794 178.375 359.128 178.643 358.742 179.18C358.357 179.716 358.164 180.495 358.164 181.516V186H356.867V177.438H357.914L358.109 178.672H358.18C358.362 178.37 358.594 178.117 358.875 177.914C359.156 177.706 359.471 177.549 359.82 177.445C360.169 177.336 360.536 177.281 360.922 177.281ZM369.883 177.297C370.904 177.297 371.661 177.526 372.156 177.984C372.651 178.443 372.898 179.174 372.898 180.18V186H371.953L371.703 184.734H371.641C371.401 185.047 371.151 185.31 370.891 185.523C370.63 185.732 370.328 185.891 369.984 186C369.646 186.104 369.229 186.156 368.734 186.156C368.214 186.156 367.75 186.065 367.344 185.883C366.943 185.701 366.625 185.424 366.391 185.055C366.161 184.685 366.047 184.216 366.047 183.648C366.047 182.794 366.385 182.138 367.062 181.68C367.74 181.221 368.771 180.971 370.156 180.93L371.633 180.867V180.344C371.633 179.604 371.474 179.086 371.156 178.789C370.839 178.492 370.391 178.344 369.812 178.344C369.365 178.344 368.938 178.409 368.531 178.539C368.125 178.669 367.74 178.823 367.375 179L366.977 178.016C367.362 177.818 367.805 177.648 368.305 177.508C368.805 177.367 369.331 177.297 369.883 177.297ZM371.617 181.781L370.312 181.836C369.245 181.878 368.492 182.052 368.055 182.359C367.617 182.667 367.398 183.102 367.398 183.664C367.398 184.154 367.547 184.516 367.844 184.75C368.141 184.984 368.534 185.102 369.023 185.102C369.784 185.102 370.406 184.891 370.891 184.469C371.375 184.047 371.617 183.414 371.617 182.57V181.781ZM377.453 186L374.203 177.438H375.594L377.477 182.617C377.607 182.971 377.74 183.362 377.875 183.789C378.01 184.216 378.104 184.56 378.156 184.82H378.211C378.273 184.56 378.378 184.216 378.523 183.789C378.669 183.357 378.802 182.966 378.922 182.617L380.805 177.438H382.195L378.938 186H377.453ZM386.867 177.281C387.596 177.281 388.221 177.443 388.742 177.766C389.263 178.089 389.661 178.542 389.938 179.125C390.214 179.703 390.352 180.38 390.352 181.156V181.961H384.438C384.453 182.966 384.703 183.732 385.188 184.258C385.672 184.784 386.354 185.047 387.234 185.047C387.776 185.047 388.255 184.997 388.672 184.898C389.089 184.799 389.521 184.654 389.969 184.461V185.602C389.536 185.794 389.107 185.935 388.68 186.023C388.258 186.112 387.758 186.156 387.18 186.156C386.357 186.156 385.638 185.99 385.023 185.656C384.414 185.318 383.94 184.823 383.602 184.172C383.263 183.521 383.094 182.724 383.094 181.781C383.094 180.859 383.247 180.062 383.555 179.391C383.867 178.714 384.305 178.193 384.867 177.828C385.435 177.464 386.102 177.281 386.867 177.281ZM386.852 178.344C386.159 178.344 385.607 178.57 385.195 179.023C384.784 179.477 384.539 180.109 384.461 180.922H388.992C388.987 180.411 388.906 179.964 388.75 179.578C388.599 179.188 388.367 178.885 388.055 178.672C387.742 178.453 387.341 178.344 386.852 178.344ZM394.945 189.844C393.82 189.844 392.953 189.633 392.344 189.211C391.734 188.794 391.43 188.208 391.43 187.453C391.43 186.917 391.599 186.458 391.938 186.078C392.281 185.698 392.755 185.445 393.359 185.32C393.135 185.216 392.943 185.06 392.781 184.852C392.625 184.643 392.547 184.404 392.547 184.133C392.547 183.82 392.633 183.547 392.805 183.312C392.982 183.073 393.25 182.844 393.609 182.625C393.161 182.443 392.797 182.135 392.516 181.703C392.24 181.266 392.102 180.758 392.102 180.18C392.102 179.565 392.229 179.042 392.484 178.609C392.74 178.172 393.109 177.839 393.594 177.609C394.078 177.38 394.664 177.266 395.352 177.266C395.503 177.266 395.654 177.273 395.805 177.289C395.961 177.299 396.109 177.318 396.25 177.344C396.391 177.365 396.513 177.391 396.617 177.422H399.555V178.258L397.977 178.453C398.133 178.656 398.263 178.901 398.367 179.188C398.471 179.474 398.523 179.792 398.523 180.141C398.523 180.995 398.234 181.674 397.656 182.18C397.078 182.68 396.284 182.93 395.273 182.93C395.034 182.93 394.789 182.909 394.539 182.867C394.284 183.008 394.089 183.164 393.953 183.336C393.823 183.508 393.758 183.706 393.758 183.93C393.758 184.096 393.807 184.229 393.906 184.328C394.01 184.427 394.159 184.5 394.352 184.547C394.544 184.589 394.776 184.609 395.047 184.609H396.555C397.487 184.609 398.201 184.805 398.695 185.195C399.195 185.586 399.445 186.156 399.445 186.906C399.445 187.854 399.06 188.581 398.289 189.086C397.518 189.591 396.404 189.844 394.945 189.844ZM394.984 188.828C395.693 188.828 396.279 188.755 396.742 188.609C397.211 188.469 397.56 188.263 397.789 187.992C398.023 187.727 398.141 187.409 398.141 187.039C398.141 186.695 398.062 186.435 397.906 186.258C397.75 186.086 397.521 185.971 397.219 185.914C396.917 185.852 396.547 185.82 396.109 185.82H394.625C394.24 185.82 393.904 185.88 393.617 186C393.331 186.12 393.109 186.297 392.953 186.531C392.802 186.766 392.727 187.057 392.727 187.406C392.727 187.87 392.922 188.221 393.312 188.461C393.703 188.706 394.26 188.828 394.984 188.828ZM395.32 181.984C395.94 181.984 396.406 181.828 396.719 181.516C397.031 181.203 397.188 180.747 397.188 180.148C397.188 179.508 397.029 179.029 396.711 178.711C396.393 178.388 395.924 178.227 395.305 178.227C394.711 178.227 394.253 178.393 393.93 178.727C393.612 179.055 393.453 179.536 393.453 180.172C393.453 180.755 393.615 181.203 393.938 181.516C394.26 181.828 394.721 181.984 395.32 181.984ZM404.445 177.297C405.466 177.297 406.224 177.526 406.719 177.984C407.214 178.443 407.461 179.174 407.461 180.18V186H406.516L406.266 184.734H406.203C405.964 185.047 405.714 185.31 405.453 185.523C405.193 185.732 404.891 185.891 404.547 186C404.208 186.104 403.792 186.156 403.297 186.156C402.776 186.156 402.312 186.065 401.906 185.883C401.505 185.701 401.188 185.424 400.953 185.055C400.724 184.685 400.609 184.216 400.609 183.648C400.609 182.794 400.948 182.138 401.625 181.68C402.302 181.221 403.333 180.971 404.719 180.93L406.195 180.867V180.344C406.195 179.604 406.036 179.086 405.719 178.789C405.401 178.492 404.953 178.344 404.375 178.344C403.927 178.344 403.5 178.409 403.094 178.539C402.688 178.669 402.302 178.823 401.938 179L401.539 178.016C401.924 177.818 402.367 177.648 402.867 177.508C403.367 177.367 403.893 177.297 404.445 177.297ZM406.18 181.781L404.875 181.836C403.807 181.878 403.055 182.052 402.617 182.359C402.18 182.667 401.961 183.102 401.961 183.664C401.961 184.154 402.109 184.516 402.406 184.75C402.703 184.984 403.096 185.102 403.586 185.102C404.346 185.102 404.969 184.891 405.453 184.469C405.938 184.047 406.18 183.414 406.18 182.57V181.781ZM413.562 186.156C412.792 186.156 412.112 185.997 411.523 185.68C410.935 185.362 410.477 184.878 410.148 184.227C409.82 183.576 409.656 182.755 409.656 181.766C409.656 180.729 409.828 179.883 410.172 179.227C410.521 178.565 411 178.076 411.609 177.758C412.219 177.44 412.911 177.281 413.688 177.281C414.115 177.281 414.526 177.326 414.922 177.414C415.323 177.497 415.651 177.604 415.906 177.734L415.516 178.82C415.255 178.716 414.953 178.622 414.609 178.539C414.271 178.456 413.953 178.414 413.656 178.414C413.062 178.414 412.568 178.542 412.172 178.797C411.781 179.052 411.487 179.427 411.289 179.922C411.096 180.417 411 181.026 411 181.75C411 182.443 411.094 183.034 411.281 183.523C411.474 184.013 411.758 184.388 412.133 184.648C412.513 184.904 412.987 185.031 413.555 185.031C414.008 185.031 414.417 184.984 414.781 184.891C415.146 184.792 415.477 184.677 415.773 184.547V185.703C415.487 185.849 415.167 185.961 414.812 186.039C414.464 186.117 414.047 186.156 413.562 186.156ZM419.102 177.438V186H417.805V177.438H419.102ZM418.469 174.234C418.682 174.234 418.865 174.305 419.016 174.445C419.172 174.581 419.25 174.794 419.25 175.086C419.25 175.372 419.172 175.586 419.016 175.727C418.865 175.867 418.682 175.938 418.469 175.938C418.245 175.938 418.057 175.867 417.906 175.727C417.76 175.586 417.688 175.372 417.688 175.086C417.688 174.794 417.76 174.581 417.906 174.445C418.057 174.305 418.245 174.234 418.469 174.234ZM429.234 181.703C429.234 182.406 429.143 183.034 428.961 183.586C428.779 184.138 428.516 184.604 428.172 184.984C427.828 185.365 427.411 185.656 426.922 185.859C426.438 186.057 425.888 186.156 425.273 186.156C424.701 186.156 424.174 186.057 423.695 185.859C423.221 185.656 422.81 185.365 422.461 184.984C422.117 184.604 421.849 184.138 421.656 183.586C421.469 183.034 421.375 182.406 421.375 181.703C421.375 180.766 421.534 179.969 421.852 179.312C422.169 178.651 422.622 178.148 423.211 177.805C423.805 177.456 424.51 177.281 425.328 177.281C426.109 177.281 426.792 177.456 427.375 177.805C427.964 178.154 428.419 178.659 428.742 179.32C429.07 179.977 429.234 180.771 429.234 181.703ZM422.719 181.703C422.719 182.391 422.81 182.987 422.992 183.492C423.174 183.997 423.456 184.388 423.836 184.664C424.216 184.94 424.706 185.078 425.305 185.078C425.898 185.078 426.385 184.94 426.766 184.664C427.151 184.388 427.435 183.997 427.617 183.492C427.799 182.987 427.891 182.391 427.891 181.703C427.891 181.021 427.799 180.432 427.617 179.938C427.435 179.438 427.154 179.052 426.773 178.781C426.393 178.51 425.901 178.375 425.297 178.375C424.406 178.375 423.753 178.669 423.336 179.258C422.924 179.846 422.719 180.661 422.719 181.703ZM427.57 173.742V173.898C427.466 174.049 427.323 174.232 427.141 174.445C426.964 174.654 426.766 174.875 426.547 175.109C426.328 175.339 426.107 175.557 425.883 175.766C425.664 175.974 425.461 176.154 425.273 176.305H424.406V176.117C424.573 175.919 424.755 175.682 424.953 175.406C425.151 175.125 425.344 174.839 425.531 174.547C425.719 174.25 425.875 173.982 426 173.742H427.57ZM435.531 177.281C436.547 177.281 437.315 177.531 437.836 178.031C438.357 178.526 438.617 179.323 438.617 180.422V186H437.336V180.508C437.336 179.794 437.172 179.26 436.844 178.906C436.521 178.552 436.023 178.375 435.352 178.375C434.404 178.375 433.737 178.643 433.352 179.18C432.966 179.716 432.773 180.495 432.773 181.516V186H431.477V177.438H432.523L432.719 178.672H432.789C432.971 178.37 433.203 178.117 433.484 177.914C433.766 177.706 434.081 177.549 434.43 177.445C434.779 177.336 435.146 177.281 435.531 177.281Z" fill="#101E37"/>
<path d="M263 216C263 211.582 266.582 208 271 208H603C607.418 208 611 211.582 611 216V248C611 252.418 607.418 256 603 256H271C266.582 256 263 252.418 263 248V216Z" fill="white"/>
<path d="M286.469 232.273C286.469 233.154 286.357 233.956 286.133 234.68C285.909 235.398 285.576 236.018 285.133 236.539C284.695 237.055 284.151 237.453 283.5 237.734C282.849 238.016 282.094 238.156 281.234 238.156C280.349 238.156 279.576 238.016 278.914 237.734C278.258 237.453 277.711 237.052 277.273 236.531C276.841 236.01 276.516 235.388 276.297 234.664C276.083 233.94 275.977 233.138 275.977 232.258C275.977 231.091 276.169 230.068 276.555 229.188C276.94 228.307 277.523 227.622 278.305 227.133C279.091 226.643 280.076 226.398 281.258 226.398C282.388 226.398 283.339 226.641 284.109 227.125C284.885 227.609 285.471 228.292 285.867 229.172C286.268 230.047 286.469 231.081 286.469 232.273ZM277.375 232.273C277.375 233.242 277.513 234.081 277.789 234.789C278.065 235.497 278.487 236.044 279.055 236.43C279.628 236.815 280.354 237.008 281.234 237.008C282.12 237.008 282.844 236.815 283.406 236.43C283.974 236.044 284.393 235.497 284.664 234.789C284.935 234.081 285.07 233.242 285.07 232.273C285.07 230.799 284.76 229.648 284.141 228.82C283.526 227.987 282.565 227.57 281.258 227.57C280.372 227.57 279.643 227.76 279.07 228.141C278.497 228.521 278.07 229.062 277.789 229.766C277.513 230.464 277.375 231.299 277.375 232.273ZM292.844 229.281C293.911 229.281 294.763 229.648 295.398 230.383C296.034 231.117 296.352 232.221 296.352 233.695C296.352 234.669 296.206 235.487 295.914 236.148C295.622 236.81 295.211 237.31 294.68 237.648C294.154 237.987 293.531 238.156 292.812 238.156C292.359 238.156 291.961 238.096 291.617 237.977C291.273 237.857 290.979 237.695 290.734 237.492C290.49 237.289 290.286 237.068 290.125 236.828H290.031C290.047 237.031 290.065 237.276 290.086 237.562C290.112 237.849 290.125 238.099 290.125 238.312V241.828H288.82V229.438H289.891L290.062 230.703H290.125C290.292 230.443 290.495 230.206 290.734 229.992C290.974 229.773 291.266 229.602 291.609 229.477C291.958 229.346 292.37 229.281 292.844 229.281ZM292.617 230.375C292.023 230.375 291.544 230.49 291.18 230.719C290.82 230.948 290.557 231.292 290.391 231.75C290.224 232.203 290.135 232.773 290.125 233.461V233.711C290.125 234.435 290.203 235.047 290.359 235.547C290.521 236.047 290.784 236.427 291.148 236.688C291.518 236.948 292.013 237.078 292.633 237.078C293.164 237.078 293.607 236.935 293.961 236.648C294.315 236.362 294.578 235.964 294.75 235.453C294.927 234.938 295.016 234.346 295.016 233.68C295.016 232.669 294.818 231.867 294.422 231.273C294.031 230.674 293.43 230.375 292.617 230.375ZM302.047 238.156C301.276 238.156 300.596 237.997 300.008 237.68C299.419 237.362 298.961 236.878 298.633 236.227C298.305 235.576 298.141 234.755 298.141 233.766C298.141 232.729 298.312 231.883 298.656 231.227C299.005 230.565 299.484 230.076 300.094 229.758C300.703 229.44 301.396 229.281 302.172 229.281C302.599 229.281 303.01 229.326 303.406 229.414C303.807 229.497 304.135 229.604 304.391 229.734L304 230.82C303.74 230.716 303.438 230.622 303.094 230.539C302.755 230.456 302.438 230.414 302.141 230.414C301.547 230.414 301.052 230.542 300.656 230.797C300.266 231.052 299.971 231.427 299.773 231.922C299.581 232.417 299.484 233.026 299.484 233.75C299.484 234.443 299.578 235.034 299.766 235.523C299.958 236.013 300.242 236.388 300.617 236.648C300.997 236.904 301.471 237.031 302.039 237.031C302.492 237.031 302.901 236.984 303.266 236.891C303.63 236.792 303.961 236.677 304.258 236.547V237.703C303.971 237.849 303.651 237.961 303.297 238.039C302.948 238.117 302.531 238.156 302.047 238.156ZM307.586 229.438V238H306.289V229.438H307.586ZM306.953 226.234C307.167 226.234 307.349 226.305 307.5 226.445C307.656 226.581 307.734 226.794 307.734 227.086C307.734 227.372 307.656 227.586 307.5 227.727C307.349 227.867 307.167 227.938 306.953 227.938C306.729 227.938 306.542 227.867 306.391 227.727C306.245 227.586 306.172 227.372 306.172 227.086C306.172 226.794 306.245 226.581 306.391 226.445C306.542 226.305 306.729 226.234 306.953 226.234ZM317.719 233.703C317.719 234.406 317.628 235.034 317.445 235.586C317.263 236.138 317 236.604 316.656 236.984C316.312 237.365 315.896 237.656 315.406 237.859C314.922 238.057 314.372 238.156 313.758 238.156C313.185 238.156 312.659 238.057 312.18 237.859C311.706 237.656 311.294 237.365 310.945 236.984C310.602 236.604 310.333 236.138 310.141 235.586C309.953 235.034 309.859 234.406 309.859 233.703C309.859 232.766 310.018 231.969 310.336 231.312C310.654 230.651 311.107 230.148 311.695 229.805C312.289 229.456 312.995 229.281 313.812 229.281C314.594 229.281 315.276 229.456 315.859 229.805C316.448 230.154 316.904 230.659 317.227 231.32C317.555 231.977 317.719 232.771 317.719 233.703ZM311.203 233.703C311.203 234.391 311.294 234.987 311.477 235.492C311.659 235.997 311.94 236.388 312.32 236.664C312.701 236.94 313.19 237.078 313.789 237.078C314.383 237.078 314.87 236.94 315.25 236.664C315.635 236.388 315.919 235.997 316.102 235.492C316.284 234.987 316.375 234.391 316.375 233.703C316.375 233.021 316.284 232.432 316.102 231.938C315.919 231.438 315.638 231.052 315.258 230.781C314.878 230.51 314.385 230.375 313.781 230.375C312.891 230.375 312.237 230.669 311.82 231.258C311.409 231.846 311.203 232.661 311.203 233.703ZM316.055 225.742V225.898C315.951 226.049 315.807 226.232 315.625 226.445C315.448 226.654 315.25 226.875 315.031 227.109C314.812 227.339 314.591 227.557 314.367 227.766C314.148 227.974 313.945 228.154 313.758 228.305H312.891V228.117C313.057 227.919 313.24 227.682 313.438 227.406C313.635 227.125 313.828 226.839 314.016 226.547C314.203 226.25 314.359 225.982 314.484 225.742H316.055ZM324.016 229.281C325.031 229.281 325.799 229.531 326.32 230.031C326.841 230.526 327.102 231.323 327.102 232.422V238H325.82V232.508C325.82 231.794 325.656 231.26 325.328 230.906C325.005 230.552 324.508 230.375 323.836 230.375C322.888 230.375 322.221 230.643 321.836 231.18C321.451 231.716 321.258 232.495 321.258 233.516V238H319.961V229.438H321.008L321.203 230.672H321.273C321.456 230.37 321.688 230.117 321.969 229.914C322.25 229.706 322.565 229.549 322.914 229.445C323.263 229.336 323.63 229.281 324.016 229.281ZM336.977 238.156C335.893 238.156 335.034 237.786 334.398 237.047C333.768 236.307 333.453 235.208 333.453 233.75C333.453 232.276 333.776 231.164 334.422 230.414C335.068 229.659 335.927 229.281 337 229.281C337.453 229.281 337.849 229.341 338.188 229.461C338.526 229.581 338.818 229.742 339.062 229.945C339.307 230.143 339.513 230.37 339.68 230.625H339.773C339.753 230.464 339.732 230.242 339.711 229.961C339.69 229.68 339.68 229.451 339.68 229.273V225.844H340.977V238H339.93L339.734 236.781H339.68C339.518 237.036 339.312 237.268 339.062 237.477C338.818 237.685 338.523 237.852 338.18 237.977C337.841 238.096 337.44 238.156 336.977 238.156ZM337.18 237.078C338.096 237.078 338.745 236.818 339.125 236.297C339.505 235.776 339.695 235.003 339.695 233.977V233.742C339.695 232.654 339.513 231.818 339.148 231.234C338.789 230.651 338.133 230.359 337.18 230.359C336.383 230.359 335.786 230.667 335.391 231.281C334.995 231.891 334.797 232.724 334.797 233.781C334.797 234.833 334.992 235.646 335.383 236.219C335.779 236.792 336.378 237.078 337.18 237.078ZM347.023 229.281C347.753 229.281 348.378 229.443 348.898 229.766C349.419 230.089 349.818 230.542 350.094 231.125C350.37 231.703 350.508 232.38 350.508 233.156V233.961H344.594C344.609 234.966 344.859 235.732 345.344 236.258C345.828 236.784 346.51 237.047 347.391 237.047C347.932 237.047 348.411 236.997 348.828 236.898C349.245 236.799 349.677 236.654 350.125 236.461V237.602C349.693 237.794 349.263 237.935 348.836 238.023C348.414 238.112 347.914 238.156 347.336 238.156C346.513 238.156 345.794 237.99 345.18 237.656C344.57 237.318 344.096 236.823 343.758 236.172C343.419 235.521 343.25 234.724 343.25 233.781C343.25 232.859 343.404 232.062 343.711 231.391C344.023 230.714 344.461 230.193 345.023 229.828C345.591 229.464 346.258 229.281 347.023 229.281ZM347.008 230.344C346.315 230.344 345.763 230.57 345.352 231.023C344.94 231.477 344.695 232.109 344.617 232.922H349.148C349.143 232.411 349.062 231.964 348.906 231.578C348.755 231.188 348.523 230.885 348.211 230.672C347.898 230.453 347.497 230.344 347.008 230.344ZM360.922 229.281C361.938 229.281 362.706 229.531 363.227 230.031C363.747 230.526 364.008 231.323 364.008 232.422V238H362.727V232.508C362.727 231.794 362.562 231.26 362.234 230.906C361.911 230.552 361.414 230.375 360.742 230.375C359.794 230.375 359.128 230.643 358.742 231.18C358.357 231.716 358.164 232.495 358.164 233.516V238H356.867V229.438H357.914L358.109 230.672H358.18C358.362 230.37 358.594 230.117 358.875 229.914C359.156 229.706 359.471 229.549 359.82 229.445C360.169 229.336 360.536 229.281 360.922 229.281ZM369.883 229.297C370.904 229.297 371.661 229.526 372.156 229.984C372.651 230.443 372.898 231.174 372.898 232.18V238H371.953L371.703 236.734H371.641C371.401 237.047 371.151 237.31 370.891 237.523C370.63 237.732 370.328 237.891 369.984 238C369.646 238.104 369.229 238.156 368.734 238.156C368.214 238.156 367.75 238.065 367.344 237.883C366.943 237.701 366.625 237.424 366.391 237.055C366.161 236.685 366.047 236.216 366.047 235.648C366.047 234.794 366.385 234.138 367.062 233.68C367.74 233.221 368.771 232.971 370.156 232.93L371.633 232.867V232.344C371.633 231.604 371.474 231.086 371.156 230.789C370.839 230.492 370.391 230.344 369.812 230.344C369.365 230.344 368.938 230.409 368.531 230.539C368.125 230.669 367.74 230.823 367.375 231L366.977 230.016C367.362 229.818 367.805 229.648 368.305 229.508C368.805 229.367 369.331 229.297 369.883 229.297ZM371.617 233.781L370.312 233.836C369.245 233.878 368.492 234.052 368.055 234.359C367.617 234.667 367.398 235.102 367.398 235.664C367.398 236.154 367.547 236.516 367.844 236.75C368.141 236.984 368.534 237.102 369.023 237.102C369.784 237.102 370.406 236.891 370.891 236.469C371.375 236.047 371.617 235.414 371.617 234.57V233.781ZM377.453 238L374.203 229.438H375.594L377.477 234.617C377.607 234.971 377.74 235.362 377.875 235.789C378.01 236.216 378.104 236.56 378.156 236.82H378.211C378.273 236.56 378.378 236.216 378.523 235.789C378.669 235.357 378.802 234.966 378.922 234.617L380.805 229.438H382.195L378.938 238H377.453ZM386.867 229.281C387.596 229.281 388.221 229.443 388.742 229.766C389.263 230.089 389.661 230.542 389.938 231.125C390.214 231.703 390.352 232.38 390.352 233.156V233.961H384.438C384.453 234.966 384.703 235.732 385.188 236.258C385.672 236.784 386.354 237.047 387.234 237.047C387.776 237.047 388.255 236.997 388.672 236.898C389.089 236.799 389.521 236.654 389.969 236.461V237.602C389.536 237.794 389.107 237.935 388.68 238.023C388.258 238.112 387.758 238.156 387.18 238.156C386.357 238.156 385.638 237.99 385.023 237.656C384.414 237.318 383.94 236.823 383.602 236.172C383.263 235.521 383.094 234.724 383.094 233.781C383.094 232.859 383.247 232.062 383.555 231.391C383.867 230.714 384.305 230.193 384.867 229.828C385.435 229.464 386.102 229.281 386.867 229.281ZM386.852 230.344C386.159 230.344 385.607 230.57 385.195 231.023C384.784 231.477 384.539 232.109 384.461 232.922H388.992C388.987 232.411 388.906 231.964 388.75 231.578C388.599 231.188 388.367 230.885 388.055 230.672C387.742 230.453 387.341 230.344 386.852 230.344ZM394.945 241.844C393.82 241.844 392.953 241.633 392.344 241.211C391.734 240.794 391.43 240.208 391.43 239.453C391.43 238.917 391.599 238.458 391.938 238.078C392.281 237.698 392.755 237.445 393.359 237.32C393.135 237.216 392.943 237.06 392.781 236.852C392.625 236.643 392.547 236.404 392.547 236.133C392.547 235.82 392.633 235.547 392.805 235.312C392.982 235.073 393.25 234.844 393.609 234.625C393.161 234.443 392.797 234.135 392.516 233.703C392.24 233.266 392.102 232.758 392.102 232.18C392.102 231.565 392.229 231.042 392.484 230.609C392.74 230.172 393.109 229.839 393.594 229.609C394.078 229.38 394.664 229.266 395.352 229.266C395.503 229.266 395.654 229.273 395.805 229.289C395.961 229.299 396.109 229.318 396.25 229.344C396.391 229.365 396.513 229.391 396.617 229.422H399.555V230.258L397.977 230.453C398.133 230.656 398.263 230.901 398.367 231.188C398.471 231.474 398.523 231.792 398.523 232.141C398.523 232.995 398.234 233.674 397.656 234.18C397.078 234.68 396.284 234.93 395.273 234.93C395.034 234.93 394.789 234.909 394.539 234.867C394.284 235.008 394.089 235.164 393.953 235.336C393.823 235.508 393.758 235.706 393.758 235.93C393.758 236.096 393.807 236.229 393.906 236.328C394.01 236.427 394.159 236.5 394.352 236.547C394.544 236.589 394.776 236.609 395.047 236.609H396.555C397.487 236.609 398.201 236.805 398.695 237.195C399.195 237.586 399.445 238.156 399.445 238.906C399.445 239.854 399.06 240.581 398.289 241.086C397.518 241.591 396.404 241.844 394.945 241.844ZM394.984 240.828C395.693 240.828 396.279 240.755 396.742 240.609C397.211 240.469 397.56 240.263 397.789 239.992C398.023 239.727 398.141 239.409 398.141 239.039C398.141 238.695 398.062 238.435 397.906 238.258C397.75 238.086 397.521 237.971 397.219 237.914C396.917 237.852 396.547 237.82 396.109 237.82H394.625C394.24 237.82 393.904 237.88 393.617 238C393.331 238.12 393.109 238.297 392.953 238.531C392.802 238.766 392.727 239.057 392.727 239.406C392.727 239.87 392.922 240.221 393.312 240.461C393.703 240.706 394.26 240.828 394.984 240.828ZM395.32 233.984C395.94 233.984 396.406 233.828 396.719 233.516C397.031 233.203 397.188 232.747 397.188 232.148C397.188 231.508 397.029 231.029 396.711 230.711C396.393 230.388 395.924 230.227 395.305 230.227C394.711 230.227 394.253 230.393 393.93 230.727C393.612 231.055 393.453 231.536 393.453 232.172C393.453 232.755 393.615 233.203 393.938 233.516C394.26 233.828 394.721 233.984 395.32 233.984ZM404.445 229.297C405.466 229.297 406.224 229.526 406.719 229.984C407.214 230.443 407.461 231.174 407.461 232.18V238H406.516L406.266 236.734H406.203C405.964 237.047 405.714 237.31 405.453 237.523C405.193 237.732 404.891 237.891 404.547 238C404.208 238.104 403.792 238.156 403.297 238.156C402.776 238.156 402.312 238.065 401.906 237.883C401.505 237.701 401.188 237.424 400.953 237.055C400.724 236.685 400.609 236.216 400.609 235.648C400.609 234.794 400.948 234.138 401.625 233.68C402.302 233.221 403.333 232.971 404.719 232.93L406.195 232.867V232.344C406.195 231.604 406.036 231.086 405.719 230.789C405.401 230.492 404.953 230.344 404.375 230.344C403.927 230.344 403.5 230.409 403.094 230.539C402.688 230.669 402.302 230.823 401.938 231L401.539 230.016C401.924 229.818 402.367 229.648 402.867 229.508C403.367 229.367 403.893 229.297 404.445 229.297ZM406.18 233.781L404.875 233.836C403.807 233.878 403.055 234.052 402.617 234.359C402.18 234.667 401.961 235.102 401.961 235.664C401.961 236.154 402.109 236.516 402.406 236.75C402.703 236.984 403.096 237.102 403.586 237.102C404.346 237.102 404.969 236.891 405.453 236.469C405.938 236.047 406.18 235.414 406.18 234.57V233.781ZM413.562 238.156C412.792 238.156 412.112 237.997 411.523 237.68C410.935 237.362 410.477 236.878 410.148 236.227C409.82 235.576 409.656 234.755 409.656 233.766C409.656 232.729 409.828 231.883 410.172 231.227C410.521 230.565 411 230.076 411.609 229.758C412.219 229.44 412.911 229.281 413.688 229.281C414.115 229.281 414.526 229.326 414.922 229.414C415.323 229.497 415.651 229.604 415.906 229.734L415.516 230.82C415.255 230.716 414.953 230.622 414.609 230.539C414.271 230.456 413.953 230.414 413.656 230.414C413.062 230.414 412.568 230.542 412.172 230.797C411.781 231.052 411.487 231.427 411.289 231.922C411.096 232.417 411 233.026 411 233.75C411 234.443 411.094 235.034 411.281 235.523C411.474 236.013 411.758 236.388 412.133 236.648C412.513 236.904 412.987 237.031 413.555 237.031C414.008 237.031 414.417 236.984 414.781 236.891C415.146 236.792 415.477 236.677 415.773 236.547V237.703C415.487 237.849 415.167 237.961 414.812 238.039C414.464 238.117 414.047 238.156 413.562 238.156ZM419.102 229.438V238H417.805V229.438H419.102ZM418.469 226.234C418.682 226.234 418.865 226.305 419.016 226.445C419.172 226.581 419.25 226.794 419.25 227.086C419.25 227.372 419.172 227.586 419.016 227.727C418.865 227.867 418.682 227.938 418.469 227.938C418.245 227.938 418.057 227.867 417.906 227.727C417.76 227.586 417.688 227.372 417.688 227.086C417.688 226.794 417.76 226.581 417.906 226.445C418.057 226.305 418.245 226.234 418.469 226.234ZM429.234 233.703C429.234 234.406 429.143 235.034 428.961 235.586C428.779 236.138 428.516 236.604 428.172 236.984C427.828 237.365 427.411 237.656 426.922 237.859C426.438 238.057 425.888 238.156 425.273 238.156C424.701 238.156 424.174 238.057 423.695 237.859C423.221 237.656 422.81 237.365 422.461 236.984C422.117 236.604 421.849 236.138 421.656 235.586C421.469 235.034 421.375 234.406 421.375 233.703C421.375 232.766 421.534 231.969 421.852 231.312C422.169 230.651 422.622 230.148 423.211 229.805C423.805 229.456 424.51 229.281 425.328 229.281C426.109 229.281 426.792 229.456 427.375 229.805C427.964 230.154 428.419 230.659 428.742 231.32C429.07 231.977 429.234 232.771 429.234 233.703ZM422.719 233.703C422.719 234.391 422.81 234.987 422.992 235.492C423.174 235.997 423.456 236.388 423.836 236.664C424.216 236.94 424.706 237.078 425.305 237.078C425.898 237.078 426.385 236.94 426.766 236.664C427.151 236.388 427.435 235.997 427.617 235.492C427.799 234.987 427.891 234.391 427.891 233.703C427.891 233.021 427.799 232.432 427.617 231.938C427.435 231.438 427.154 231.052 426.773 230.781C426.393 230.51 425.901 230.375 425.297 230.375C424.406 230.375 423.753 230.669 423.336 231.258C422.924 231.846 422.719 232.661 422.719 233.703ZM427.57 225.742V225.898C427.466 226.049 427.323 226.232 427.141 226.445C426.964 226.654 426.766 226.875 426.547 227.109C426.328 227.339 426.107 227.557 425.883 227.766C425.664 227.974 425.461 228.154 425.273 228.305H424.406V228.117C424.573 227.919 424.755 227.682 424.953 227.406C425.151 227.125 425.344 226.839 425.531 226.547C425.719 226.25 425.875 225.982 426 225.742H427.57ZM435.531 229.281C436.547 229.281 437.315 229.531 437.836 230.031C438.357 230.526 438.617 231.323 438.617 232.422V238H437.336V232.508C437.336 231.794 437.172 231.26 436.844 230.906C436.521 230.552 436.023 230.375 435.352 230.375C434.404 230.375 433.737 230.643 433.352 231.18C432.966 231.716 432.773 232.495 432.773 233.516V238H431.477V229.438H432.523L432.719 230.672H432.789C432.971 230.37 433.203 230.117 433.484 229.914C433.766 229.706 434.081 229.549 434.43 229.445C434.779 229.336 435.146 229.281 435.531 229.281Z" fill="#101E37"/>
<rect x="263" y="260" width="348" height="48" rx="8" fill="white"/>
<path d="M286.469 284.273C286.469 285.154 286.357 285.956 286.133 286.68C285.909 287.398 285.576 288.018 285.133 288.539C284.695 289.055 284.151 289.453 283.5 289.734C282.849 290.016 282.094 290.156 281.234 290.156C280.349 290.156 279.576 290.016 278.914 289.734C278.258 289.453 277.711 289.052 277.273 288.531C276.841 288.01 276.516 287.388 276.297 286.664C276.083 285.94 275.977 285.138 275.977 284.258C275.977 283.091 276.169 282.068 276.555 281.188C276.94 280.307 277.523 279.622 278.305 279.133C279.091 278.643 280.076 278.398 281.258 278.398C282.388 278.398 283.339 278.641 284.109 279.125C284.885 279.609 285.471 280.292 285.867 281.172C286.268 282.047 286.469 283.081 286.469 284.273ZM277.375 284.273C277.375 285.242 277.513 286.081 277.789 286.789C278.065 287.497 278.487 288.044 279.055 288.43C279.628 288.815 280.354 289.008 281.234 289.008C282.12 289.008 282.844 288.815 283.406 288.43C283.974 288.044 284.393 287.497 284.664 286.789C284.935 286.081 285.07 285.242 285.07 284.273C285.07 282.799 284.76 281.648 284.141 280.82C283.526 279.987 282.565 279.57 281.258 279.57C280.372 279.57 279.643 279.76 279.07 280.141C278.497 280.521 278.07 281.062 277.789 281.766C277.513 282.464 277.375 283.299 277.375 284.273ZM292.844 281.281C293.911 281.281 294.763 281.648 295.398 282.383C296.034 283.117 296.352 284.221 296.352 285.695C296.352 286.669 296.206 287.487 295.914 288.148C295.622 288.81 295.211 289.31 294.68 289.648C294.154 289.987 293.531 290.156 292.812 290.156C292.359 290.156 291.961 290.096 291.617 289.977C291.273 289.857 290.979 289.695 290.734 289.492C290.49 289.289 290.286 289.068 290.125 288.828H290.031C290.047 289.031 290.065 289.276 290.086 289.562C290.112 289.849 290.125 290.099 290.125 290.312V293.828H288.82V281.438H289.891L290.062 282.703H290.125C290.292 282.443 290.495 282.206 290.734 281.992C290.974 281.773 291.266 281.602 291.609 281.477C291.958 281.346 292.37 281.281 292.844 281.281ZM292.617 282.375C292.023 282.375 291.544 282.49 291.18 282.719C290.82 282.948 290.557 283.292 290.391 283.75C290.224 284.203 290.135 284.773 290.125 285.461V285.711C290.125 286.435 290.203 287.047 290.359 287.547C290.521 288.047 290.784 288.427 291.148 288.688C291.518 288.948 292.013 289.078 292.633 289.078C293.164 289.078 293.607 288.935 293.961 288.648C294.315 288.362 294.578 287.964 294.75 287.453C294.927 286.938 295.016 286.346 295.016 285.68C295.016 284.669 294.818 283.867 294.422 283.273C294.031 282.674 293.43 282.375 292.617 282.375ZM302.047 290.156C301.276 290.156 300.596 289.997 300.008 289.68C299.419 289.362 298.961 288.878 298.633 288.227C298.305 287.576 298.141 286.755 298.141 285.766C298.141 284.729 298.312 283.883 298.656 283.227C299.005 282.565 299.484 282.076 300.094 281.758C300.703 281.44 301.396 281.281 302.172 281.281C302.599 281.281 303.01 281.326 303.406 281.414C303.807 281.497 304.135 281.604 304.391 281.734L304 282.82C303.74 282.716 303.438 282.622 303.094 282.539C302.755 282.456 302.438 282.414 302.141 282.414C301.547 282.414 301.052 282.542 300.656 282.797C300.266 283.052 299.971 283.427 299.773 283.922C299.581 284.417 299.484 285.026 299.484 285.75C299.484 286.443 299.578 287.034 299.766 287.523C299.958 288.013 300.242 288.388 300.617 288.648C300.997 288.904 301.471 289.031 302.039 289.031C302.492 289.031 302.901 288.984 303.266 288.891C303.63 288.792 303.961 288.677 304.258 288.547V289.703C303.971 289.849 303.651 289.961 303.297 290.039C302.948 290.117 302.531 290.156 302.047 290.156ZM307.586 281.438V290H306.289V281.438H307.586ZM306.953 278.234C307.167 278.234 307.349 278.305 307.5 278.445C307.656 278.581 307.734 278.794 307.734 279.086C307.734 279.372 307.656 279.586 307.5 279.727C307.349 279.867 307.167 279.938 306.953 279.938C306.729 279.938 306.542 279.867 306.391 279.727C306.245 279.586 306.172 279.372 306.172 279.086C306.172 278.794 306.245 278.581 306.391 278.445C306.542 278.305 306.729 278.234 306.953 278.234ZM317.719 285.703C317.719 286.406 317.628 287.034 317.445 287.586C317.263 288.138 317 288.604 316.656 288.984C316.312 289.365 315.896 289.656 315.406 289.859C314.922 290.057 314.372 290.156 313.758 290.156C313.185 290.156 312.659 290.057 312.18 289.859C311.706 289.656 311.294 289.365 310.945 288.984C310.602 288.604 310.333 288.138 310.141 287.586C309.953 287.034 309.859 286.406 309.859 285.703C309.859 284.766 310.018 283.969 310.336 283.312C310.654 282.651 311.107 282.148 311.695 281.805C312.289 281.456 312.995 281.281 313.812 281.281C314.594 281.281 315.276 281.456 315.859 281.805C316.448 282.154 316.904 282.659 317.227 283.32C317.555 283.977 317.719 284.771 317.719 285.703ZM311.203 285.703C311.203 286.391 311.294 286.987 311.477 287.492C311.659 287.997 311.94 288.388 312.32 288.664C312.701 288.94 313.19 289.078 313.789 289.078C314.383 289.078 314.87 288.94 315.25 288.664C315.635 288.388 315.919 287.997 316.102 287.492C316.284 286.987 316.375 286.391 316.375 285.703C316.375 285.021 316.284 284.432 316.102 283.938C315.919 283.438 315.638 283.052 315.258 282.781C314.878 282.51 314.385 282.375 313.781 282.375C312.891 282.375 312.237 282.669 311.82 283.258C311.409 283.846 311.203 284.661 311.203 285.703ZM316.055 277.742V277.898C315.951 278.049 315.807 278.232 315.625 278.445C315.448 278.654 315.25 278.875 315.031 279.109C314.812 279.339 314.591 279.557 314.367 279.766C314.148 279.974 313.945 280.154 313.758 280.305H312.891V280.117C313.057 279.919 313.24 279.682 313.438 279.406C313.635 279.125 313.828 278.839 314.016 278.547C314.203 278.25 314.359 277.982 314.484 277.742H316.055ZM324.016 281.281C325.031 281.281 325.799 281.531 326.32 282.031C326.841 282.526 327.102 283.323 327.102 284.422V290H325.82V284.508C325.82 283.794 325.656 283.26 325.328 282.906C325.005 282.552 324.508 282.375 323.836 282.375C322.888 282.375 322.221 282.643 321.836 283.18C321.451 283.716 321.258 284.495 321.258 285.516V290H319.961V281.438H321.008L321.203 282.672H321.273C321.456 282.37 321.688 282.117 321.969 281.914C322.25 281.706 322.565 281.549 322.914 281.445C323.263 281.336 323.63 281.281 324.016 281.281ZM337.227 281.281C337.956 281.281 338.581 281.443 339.102 281.766C339.622 282.089 340.021 282.542 340.297 283.125C340.573 283.703 340.711 284.38 340.711 285.156V285.961H334.797C334.812 286.966 335.062 287.732 335.547 288.258C336.031 288.784 336.714 289.047 337.594 289.047C338.135 289.047 338.615 288.997 339.031 288.898C339.448 288.799 339.88 288.654 340.328 288.461V289.602C339.896 289.794 339.466 289.935 339.039 290.023C338.617 290.112 338.117 290.156 337.539 290.156C336.716 290.156 335.997 289.99 335.383 289.656C334.773 289.318 334.299 288.823 333.961 288.172C333.622 287.521 333.453 286.724 333.453 285.781C333.453 284.859 333.607 284.062 333.914 283.391C334.227 282.714 334.664 282.193 335.227 281.828C335.794 281.464 336.461 281.281 337.227 281.281ZM337.211 282.344C336.518 282.344 335.966 282.57 335.555 283.023C335.143 283.477 334.898 284.109 334.82 284.922H339.352C339.346 284.411 339.266 283.964 339.109 283.578C338.958 283.188 338.727 282.885 338.414 282.672C338.102 282.453 337.701 282.344 337.211 282.344ZM346.969 281.281C347.984 281.281 348.753 281.531 349.273 282.031C349.794 282.526 350.055 283.323 350.055 284.422V290H348.773V284.508C348.773 283.794 348.609 283.26 348.281 282.906C347.958 282.552 347.461 282.375 346.789 282.375C345.841 282.375 345.174 282.643 344.789 283.18C344.404 283.716 344.211 284.495 344.211 285.516V290H342.914V281.438H343.961L344.156 282.672H344.227C344.409 282.37 344.641 282.117 344.922 281.914C345.203 281.706 345.518 281.549 345.867 281.445C346.216 281.336 346.583 281.281 346.969 281.281ZM360.312 290.156C359.542 290.156 358.862 289.997 358.273 289.68C357.685 289.362 357.227 288.878 356.898 288.227C356.57 287.576 356.406 286.755 356.406 285.766C356.406 284.729 356.578 283.883 356.922 283.227C357.271 282.565 357.75 282.076 358.359 281.758C358.969 281.44 359.661 281.281 360.438 281.281C360.865 281.281 361.276 281.326 361.672 281.414C362.073 281.497 362.401 281.604 362.656 281.734L362.266 282.82C362.005 282.716 361.703 282.622 361.359 282.539C361.021 282.456 360.703 282.414 360.406 282.414C359.812 282.414 359.318 282.542 358.922 282.797C358.531 283.052 358.237 283.427 358.039 283.922C357.846 284.417 357.75 285.026 357.75 285.75C357.75 286.443 357.844 287.034 358.031 287.523C358.224 288.013 358.508 288.388 358.883 288.648C359.263 288.904 359.737 289.031 360.305 289.031C360.758 289.031 361.167 288.984 361.531 288.891C361.896 288.792 362.227 288.677 362.523 288.547V289.703C362.237 289.849 361.917 289.961 361.562 290.039C361.214 290.117 360.797 290.156 360.312 290.156ZM367.758 281.297C368.779 281.297 369.536 281.526 370.031 281.984C370.526 282.443 370.773 283.174 370.773 284.18V290H369.828L369.578 288.734H369.516C369.276 289.047 369.026 289.31 368.766 289.523C368.505 289.732 368.203 289.891 367.859 290C367.521 290.104 367.104 290.156 366.609 290.156C366.089 290.156 365.625 290.065 365.219 289.883C364.818 289.701 364.5 289.424 364.266 289.055C364.036 288.685 363.922 288.216 363.922 287.648C363.922 286.794 364.26 286.138 364.938 285.68C365.615 285.221 366.646 284.971 368.031 284.93L369.508 284.867V284.344C369.508 283.604 369.349 283.086 369.031 282.789C368.714 282.492 368.266 282.344 367.688 282.344C367.24 282.344 366.812 282.409 366.406 282.539C366 282.669 365.615 282.823 365.25 283L364.852 282.016C365.237 281.818 365.68 281.648 366.18 281.508C366.68 281.367 367.206 281.297 367.758 281.297ZM369.492 285.781L368.188 285.836C367.12 285.878 366.367 286.052 365.93 286.359C365.492 286.667 365.273 287.102 365.273 287.664C365.273 288.154 365.422 288.516 365.719 288.75C366.016 288.984 366.409 289.102 366.898 289.102C367.659 289.102 368.281 288.891 368.766 288.469C369.25 288.047 369.492 287.414 369.492 286.57V285.781ZM378.984 287.656C378.984 288.203 378.846 288.664 378.57 289.039C378.299 289.409 377.909 289.688 377.398 289.875C376.893 290.062 376.289 290.156 375.586 290.156C374.987 290.156 374.469 290.109 374.031 290.016C373.594 289.922 373.211 289.789 372.883 289.617V288.422C373.232 288.594 373.648 288.75 374.133 288.891C374.617 289.031 375.112 289.102 375.617 289.102C376.357 289.102 376.893 288.982 377.227 288.742C377.56 288.503 377.727 288.177 377.727 287.766C377.727 287.531 377.659 287.326 377.523 287.148C377.393 286.966 377.172 286.792 376.859 286.625C376.547 286.453 376.115 286.266 375.562 286.062C375.016 285.854 374.542 285.648 374.141 285.445C373.745 285.237 373.438 284.984 373.219 284.688C373.005 284.391 372.898 284.005 372.898 283.531C372.898 282.807 373.19 282.253 373.773 281.867C374.362 281.477 375.133 281.281 376.086 281.281C376.602 281.281 377.083 281.333 377.531 281.438C377.984 281.536 378.406 281.672 378.797 281.844L378.359 282.883C378.005 282.732 377.628 282.604 377.227 282.5C376.826 282.396 376.417 282.344 376 282.344C375.401 282.344 374.94 282.443 374.617 282.641C374.299 282.839 374.141 283.109 374.141 283.453C374.141 283.719 374.214 283.938 374.359 284.109C374.51 284.281 374.75 284.443 375.078 284.594C375.406 284.745 375.839 284.922 376.375 285.125C376.911 285.323 377.375 285.529 377.766 285.742C378.156 285.951 378.456 286.206 378.664 286.508C378.878 286.805 378.984 287.188 378.984 287.656ZM384.5 290.156C383.729 290.156 383.049 289.997 382.461 289.68C381.872 289.362 381.414 288.878 381.086 288.227C380.758 287.576 380.594 286.755 380.594 285.766C380.594 284.729 380.766 283.883 381.109 283.227C381.458 282.565 381.938 282.076 382.547 281.758C383.156 281.44 383.849 281.281 384.625 281.281C385.052 281.281 385.464 281.326 385.859 281.414C386.26 281.497 386.589 281.604 386.844 281.734L386.453 282.82C386.193 282.716 385.891 282.622 385.547 282.539C385.208 282.456 384.891 282.414 384.594 282.414C384 282.414 383.505 282.542 383.109 282.797C382.719 283.052 382.424 283.427 382.227 283.922C382.034 284.417 381.938 285.026 381.938 285.75C381.938 286.443 382.031 287.034 382.219 287.523C382.411 288.013 382.695 288.388 383.07 288.648C383.451 288.904 383.924 289.031 384.492 289.031C384.945 289.031 385.354 288.984 385.719 288.891C386.083 288.792 386.414 288.677 386.711 288.547V289.703C386.424 289.849 386.104 289.961 385.75 290.039C385.401 290.117 384.984 290.156 384.5 290.156ZM391.945 281.297C392.966 281.297 393.724 281.526 394.219 281.984C394.714 282.443 394.961 283.174 394.961 284.18V290H394.016L393.766 288.734H393.703C393.464 289.047 393.214 289.31 392.953 289.523C392.693 289.732 392.391 289.891 392.047 290C391.708 290.104 391.292 290.156 390.797 290.156C390.276 290.156 389.812 290.065 389.406 289.883C389.005 289.701 388.688 289.424 388.453 289.055C388.224 288.685 388.109 288.216 388.109 287.648C388.109 286.794 388.448 286.138 389.125 285.68C389.802 285.221 390.833 284.971 392.219 284.93L393.695 284.867V284.344C393.695 283.604 393.536 283.086 393.219 282.789C392.901 282.492 392.453 282.344 391.875 282.344C391.427 282.344 391 282.409 390.594 282.539C390.188 282.669 389.802 282.823 389.438 283L389.039 282.016C389.424 281.818 389.867 281.648 390.367 281.508C390.867 281.367 391.393 281.297 391.945 281.297ZM393.68 285.781L392.375 285.836C391.307 285.878 390.555 286.052 390.117 286.359C389.68 286.667 389.461 287.102 389.461 287.664C389.461 288.154 389.609 288.516 389.906 288.75C390.203 288.984 390.596 289.102 391.086 289.102C391.846 289.102 392.469 288.891 392.953 288.469C393.438 288.047 393.68 287.414 393.68 286.57V285.781ZM400.68 290.156C399.596 290.156 398.737 289.786 398.102 289.047C397.471 288.307 397.156 287.208 397.156 285.75C397.156 284.276 397.479 283.164 398.125 282.414C398.771 281.659 399.63 281.281 400.703 281.281C401.156 281.281 401.552 281.341 401.891 281.461C402.229 281.581 402.521 281.742 402.766 281.945C403.01 282.143 403.216 282.37 403.383 282.625H403.477C403.456 282.464 403.435 282.242 403.414 281.961C403.393 281.68 403.383 281.451 403.383 281.273V277.844H404.68V290H403.633L403.438 288.781H403.383C403.221 289.036 403.016 289.268 402.766 289.477C402.521 289.685 402.227 289.852 401.883 289.977C401.544 290.096 401.143 290.156 400.68 290.156ZM400.883 289.078C401.799 289.078 402.448 288.818 402.828 288.297C403.208 287.776 403.398 287.003 403.398 285.977V285.742C403.398 284.654 403.216 283.818 402.852 283.234C402.492 282.651 401.836 282.359 400.883 282.359C400.086 282.359 399.49 282.667 399.094 283.281C398.698 283.891 398.5 284.724 398.5 285.781C398.5 286.833 398.695 287.646 399.086 288.219C399.482 288.792 400.081 289.078 400.883 289.078ZM410.633 281.297C411.654 281.297 412.411 281.526 412.906 281.984C413.401 282.443 413.648 283.174 413.648 284.18V290H412.703L412.453 288.734H412.391C412.151 289.047 411.901 289.31 411.641 289.523C411.38 289.732 411.078 289.891 410.734 290C410.396 290.104 409.979 290.156 409.484 290.156C408.964 290.156 408.5 290.065 408.094 289.883C407.693 289.701 407.375 289.424 407.141 289.055C406.911 288.685 406.797 288.216 406.797 287.648C406.797 286.794 407.135 286.138 407.812 285.68C408.49 285.221 409.521 284.971 410.906 284.93L412.383 284.867V284.344C412.383 283.604 412.224 283.086 411.906 282.789C411.589 282.492 411.141 282.344 410.562 282.344C410.115 282.344 409.688 282.409 409.281 282.539C408.875 282.669 408.49 282.823 408.125 283L407.727 282.016C408.112 281.818 408.555 281.648 409.055 281.508C409.555 281.367 410.081 281.297 410.633 281.297ZM412.367 285.781L411.062 285.836C409.995 285.878 409.242 286.052 408.805 286.359C408.367 286.667 408.148 287.102 408.148 287.664C408.148 288.154 408.297 288.516 408.594 288.75C408.891 288.984 409.284 289.102 409.773 289.102C410.534 289.102 411.156 288.891 411.641 288.469C412.125 288.047 412.367 287.414 412.367 286.57V285.781Z" fill="#101E37"/>
<path d="M584 278.711C583.61 279.101 583.61 279.731 584 280.121L587.88 284.001L584 287.881C583.61 288.271 583.61 288.901 584 289.291C584.39 289.681 585.02 289.681 585.41 289.291L590 284.701C590.39 284.311 590.39 283.681 590 283.291L585.41 278.701C585.03 278.321 584.39 278.321 584 278.711Z" fill="#101E37"/>
<path d="M263 320C263 315.582 266.582 312 271 312H603C607.418 312 611 315.582 611 320V352C611 356.418 607.418 360 603 360H271C266.582 360 263 356.418 263 352V320Z" fill="white"/>
<path d="M281.445 331.586C280.815 331.586 280.247 331.695 279.742 331.914C279.242 332.128 278.815 332.44 278.461 332.852C278.112 333.258 277.844 333.75 277.656 334.328C277.469 334.906 277.375 335.557 277.375 336.281C277.375 337.24 277.523 338.073 277.82 338.781C278.122 339.484 278.57 340.029 279.164 340.414C279.763 340.799 280.51 340.992 281.406 340.992C281.917 340.992 282.396 340.951 282.844 340.867C283.297 340.779 283.737 340.669 284.164 340.539V341.695C283.747 341.852 283.31 341.966 282.852 342.039C282.393 342.117 281.849 342.156 281.219 342.156C280.057 342.156 279.086 341.917 278.305 341.438C277.529 340.953 276.945 340.271 276.555 339.391C276.169 338.51 275.977 337.471 275.977 336.273C275.977 335.409 276.096 334.62 276.336 333.906C276.581 333.188 276.935 332.568 277.398 332.047C277.867 331.526 278.44 331.125 279.117 330.844C279.799 330.557 280.581 330.414 281.461 330.414C282.039 330.414 282.596 330.471 283.133 330.586C283.669 330.701 284.154 330.865 284.586 331.078L284.055 332.203C283.69 332.036 283.289 331.893 282.852 331.773C282.419 331.648 281.951 331.586 281.445 331.586ZM289.742 333.281C290.471 333.281 291.096 333.443 291.617 333.766C292.138 334.089 292.536 334.542 292.812 335.125C293.089 335.703 293.227 336.38 293.227 337.156V337.961H287.312C287.328 338.966 287.578 339.732 288.062 340.258C288.547 340.784 289.229 341.047 290.109 341.047C290.651 341.047 291.13 340.997 291.547 340.898C291.964 340.799 292.396 340.654 292.844 340.461V341.602C292.411 341.794 291.982 341.935 291.555 342.023C291.133 342.112 290.633 342.156 290.055 342.156C289.232 342.156 288.513 341.99 287.898 341.656C287.289 341.318 286.815 340.823 286.477 340.172C286.138 339.521 285.969 338.724 285.969 337.781C285.969 336.859 286.122 336.062 286.43 335.391C286.742 334.714 287.18 334.193 287.742 333.828C288.31 333.464 288.977 333.281 289.742 333.281ZM289.727 334.344C289.034 334.344 288.482 334.57 288.07 335.023C287.659 335.477 287.414 336.109 287.336 336.922H291.867C291.862 336.411 291.781 335.964 291.625 335.578C291.474 335.188 291.242 334.885 290.93 334.672C290.617 334.453 290.216 334.344 289.727 334.344ZM299.32 333.281C299.492 333.281 299.672 333.292 299.859 333.312C300.047 333.328 300.214 333.352 300.359 333.383L300.195 334.586C300.055 334.549 299.898 334.521 299.727 334.5C299.555 334.479 299.393 334.469 299.242 334.469C298.898 334.469 298.573 334.539 298.266 334.68C297.964 334.815 297.698 335.013 297.469 335.273C297.24 335.529 297.06 335.839 296.93 336.203C296.799 336.562 296.734 336.964 296.734 337.406V342H295.43V333.438H296.508L296.648 335.016H296.703C296.88 334.698 297.094 334.409 297.344 334.148C297.594 333.883 297.883 333.672 298.211 333.516C298.544 333.359 298.914 333.281 299.32 333.281ZM305.867 333.281C306.039 333.281 306.219 333.292 306.406 333.312C306.594 333.328 306.76 333.352 306.906 333.383L306.742 334.586C306.602 334.549 306.445 334.521 306.273 334.5C306.102 334.479 305.94 334.469 305.789 334.469C305.445 334.469 305.12 334.539 304.812 334.68C304.51 334.815 304.245 335.013 304.016 335.273C303.786 335.529 303.607 335.839 303.477 336.203C303.346 336.562 303.281 336.964 303.281 337.406V342H301.977V333.438H303.055L303.195 335.016H303.25C303.427 334.698 303.641 334.409 303.891 334.148C304.141 333.883 304.43 333.672 304.758 333.516C305.091 333.359 305.461 333.281 305.867 333.281ZM311.727 333.297C312.747 333.297 313.505 333.526 314 333.984C314.495 334.443 314.742 335.174 314.742 336.18V342H313.797L313.547 340.734H313.484C313.245 341.047 312.995 341.31 312.734 341.523C312.474 341.732 312.172 341.891 311.828 342C311.49 342.104 311.073 342.156 310.578 342.156C310.057 342.156 309.594 342.065 309.188 341.883C308.786 341.701 308.469 341.424 308.234 341.055C308.005 340.685 307.891 340.216 307.891 339.648C307.891 338.794 308.229 338.138 308.906 337.68C309.583 337.221 310.615 336.971 312 336.93L313.477 336.867V336.344C313.477 335.604 313.318 335.086 313 334.789C312.682 334.492 312.234 334.344 311.656 334.344C311.208 334.344 310.781 334.409 310.375 334.539C309.969 334.669 309.583 334.823 309.219 335L308.82 334.016C309.206 333.818 309.648 333.648 310.148 333.508C310.648 333.367 311.174 333.297 311.727 333.297ZM313.461 337.781L312.156 337.836C311.089 337.878 310.336 338.052 309.898 338.359C309.461 338.667 309.242 339.102 309.242 339.664C309.242 340.154 309.391 340.516 309.688 340.75C309.984 340.984 310.378 341.102 310.867 341.102C311.628 341.102 312.25 340.891 312.734 340.469C313.219 340.047 313.461 339.414 313.461 338.57V337.781ZM321.305 333.281C321.477 333.281 321.656 333.292 321.844 333.312C322.031 333.328 322.198 333.352 322.344 333.383L322.18 334.586C322.039 334.549 321.883 334.521 321.711 334.5C321.539 334.479 321.378 334.469 321.227 334.469C320.883 334.469 320.557 334.539 320.25 334.68C319.948 334.815 319.682 335.013 319.453 335.273C319.224 335.529 319.044 335.839 318.914 336.203C318.784 336.562 318.719 336.964 318.719 337.406V342H317.414V333.438H318.492L318.633 335.016H318.688C318.865 334.698 319.078 334.409 319.328 334.148C319.578 333.883 319.867 333.672 320.195 333.516C320.529 333.359 320.898 333.281 321.305 333.281ZM333.656 339.656C333.656 340.203 333.518 340.664 333.242 341.039C332.971 341.409 332.581 341.688 332.07 341.875C331.565 342.062 330.961 342.156 330.258 342.156C329.659 342.156 329.141 342.109 328.703 342.016C328.266 341.922 327.883 341.789 327.555 341.617V340.422C327.904 340.594 328.32 340.75 328.805 340.891C329.289 341.031 329.784 341.102 330.289 341.102C331.029 341.102 331.565 340.982 331.898 340.742C332.232 340.503 332.398 340.177 332.398 339.766C332.398 339.531 332.331 339.326 332.195 339.148C332.065 338.966 331.844 338.792 331.531 338.625C331.219 338.453 330.786 338.266 330.234 338.062C329.688 337.854 329.214 337.648 328.812 337.445C328.417 337.237 328.109 336.984 327.891 336.688C327.677 336.391 327.57 336.005 327.57 335.531C327.57 334.807 327.862 334.253 328.445 333.867C329.034 333.477 329.805 333.281 330.758 333.281C331.273 333.281 331.755 333.333 332.203 333.438C332.656 333.536 333.078 333.672 333.469 333.844L333.031 334.883C332.677 334.732 332.299 334.604 331.898 334.5C331.497 334.396 331.089 334.344 330.672 334.344C330.073 334.344 329.612 334.443 329.289 334.641C328.971 334.839 328.812 335.109 328.812 335.453C328.812 335.719 328.885 335.938 329.031 336.109C329.182 336.281 329.422 336.443 329.75 336.594C330.078 336.745 330.51 336.922 331.047 337.125C331.583 337.323 332.047 337.529 332.438 337.742C332.828 337.951 333.128 338.206 333.336 338.508C333.549 338.805 333.656 339.188 333.656 339.656ZM339.039 333.281C339.768 333.281 340.393 333.443 340.914 333.766C341.435 334.089 341.833 334.542 342.109 335.125C342.385 335.703 342.523 336.38 342.523 337.156V337.961H336.609C336.625 338.966 336.875 339.732 337.359 340.258C337.844 340.784 338.526 341.047 339.406 341.047C339.948 341.047 340.427 340.997 340.844 340.898C341.26 340.799 341.693 340.654 342.141 340.461V341.602C341.708 341.794 341.279 341.935 340.852 342.023C340.43 342.112 339.93 342.156 339.352 342.156C338.529 342.156 337.81 341.99 337.195 341.656C336.586 341.318 336.112 340.823 335.773 340.172C335.435 339.521 335.266 338.724 335.266 337.781C335.266 336.859 335.419 336.062 335.727 335.391C336.039 334.714 336.477 334.193 337.039 333.828C337.607 333.464 338.273 333.281 339.039 333.281ZM339.023 334.344C338.331 334.344 337.779 334.57 337.367 335.023C336.956 335.477 336.711 336.109 336.633 336.922H341.164C341.159 336.411 341.078 335.964 340.922 335.578C340.771 335.188 340.539 334.885 340.227 334.672C339.914 334.453 339.513 334.344 339.023 334.344ZM350.266 339.656C350.266 340.203 350.128 340.664 349.852 341.039C349.581 341.409 349.19 341.688 348.68 341.875C348.174 342.062 347.57 342.156 346.867 342.156C346.268 342.156 345.75 342.109 345.312 342.016C344.875 341.922 344.492 341.789 344.164 341.617V340.422C344.513 340.594 344.93 340.75 345.414 340.891C345.898 341.031 346.393 341.102 346.898 341.102C347.638 341.102 348.174 340.982 348.508 340.742C348.841 340.503 349.008 340.177 349.008 339.766C349.008 339.531 348.94 339.326 348.805 339.148C348.674 338.966 348.453 338.792 348.141 338.625C347.828 338.453 347.396 338.266 346.844 338.062C346.297 337.854 345.823 337.648 345.422 337.445C345.026 337.237 344.719 336.984 344.5 336.688C344.286 336.391 344.18 336.005 344.18 335.531C344.18 334.807 344.471 334.253 345.055 333.867C345.643 333.477 346.414 333.281 347.367 333.281C347.883 333.281 348.365 333.333 348.812 333.438C349.266 333.536 349.688 333.672 350.078 333.844L349.641 334.883C349.286 334.732 348.909 334.604 348.508 334.5C348.107 334.396 347.698 334.344 347.281 334.344C346.682 334.344 346.221 334.443 345.898 334.641C345.581 334.839 345.422 335.109 345.422 335.453C345.422 335.719 345.495 335.938 345.641 336.109C345.792 336.281 346.031 336.443 346.359 336.594C346.688 336.745 347.12 336.922 347.656 337.125C348.193 337.323 348.656 337.529 349.047 337.742C349.438 337.951 349.737 338.206 349.945 338.508C350.159 338.805 350.266 339.188 350.266 339.656ZM353.648 333.438V342H352.352V333.438H353.648ZM353.016 330.234C353.229 330.234 353.411 330.305 353.562 330.445C353.719 330.581 353.797 330.794 353.797 331.086C353.797 331.372 353.719 331.586 353.562 331.727C353.411 331.867 353.229 331.938 353.016 331.938C352.792 331.938 352.604 331.867 352.453 331.727C352.307 331.586 352.234 331.372 352.234 331.086C352.234 330.794 352.307 330.581 352.453 330.445C352.604 330.305 352.792 330.234 353.016 330.234ZM363.781 337.703C363.781 338.406 363.69 339.034 363.508 339.586C363.326 340.138 363.062 340.604 362.719 340.984C362.375 341.365 361.958 341.656 361.469 341.859C360.984 342.057 360.435 342.156 359.82 342.156C359.247 342.156 358.721 342.057 358.242 341.859C357.768 341.656 357.357 341.365 357.008 340.984C356.664 340.604 356.396 340.138 356.203 339.586C356.016 339.034 355.922 338.406 355.922 337.703C355.922 336.766 356.081 335.969 356.398 335.312C356.716 334.651 357.169 334.148 357.758 333.805C358.352 333.456 359.057 333.281 359.875 333.281C360.656 333.281 361.339 333.456 361.922 333.805C362.51 334.154 362.966 334.659 363.289 335.32C363.617 335.977 363.781 336.771 363.781 337.703ZM357.266 337.703C357.266 338.391 357.357 338.987 357.539 339.492C357.721 339.997 358.003 340.388 358.383 340.664C358.763 340.94 359.253 341.078 359.852 341.078C360.445 341.078 360.932 340.94 361.312 340.664C361.698 340.388 361.982 339.997 362.164 339.492C362.346 338.987 362.438 338.391 362.438 337.703C362.438 337.021 362.346 336.432 362.164 335.938C361.982 335.438 361.701 335.052 361.32 334.781C360.94 334.51 360.448 334.375 359.844 334.375C358.953 334.375 358.299 334.669 357.883 335.258C357.471 335.846 357.266 336.661 357.266 337.703ZM362.117 329.742V329.898C362.013 330.049 361.87 330.232 361.688 330.445C361.51 330.654 361.312 330.875 361.094 331.109C360.875 331.339 360.654 331.557 360.43 331.766C360.211 331.974 360.008 332.154 359.82 332.305H358.953V332.117C359.12 331.919 359.302 331.682 359.5 331.406C359.698 331.125 359.891 330.839 360.078 330.547C360.266 330.25 360.422 329.982 360.547 329.742H362.117ZM370.078 333.281C371.094 333.281 371.862 333.531 372.383 334.031C372.904 334.526 373.164 335.323 373.164 336.422V342H371.883V336.508C371.883 335.794 371.719 335.26 371.391 334.906C371.068 334.552 370.57 334.375 369.898 334.375C368.951 334.375 368.284 334.643 367.898 335.18C367.513 335.716 367.32 336.495 367.32 337.516V342H366.023V333.438H367.07L367.266 334.672H367.336C367.518 334.37 367.75 334.117 368.031 333.914C368.312 333.706 368.628 333.549 368.977 333.445C369.326 333.336 369.693 333.281 370.078 333.281Z" fill="#CC3333"/>
</svg>
