<svg width="728" height="242" viewBox="0 0 728 242" fill="none" xmlns="http://www.w3.org/2000/svg">
<rect x="1" y="1" width="726" height="240" rx="7" fill="#F3F6F9"/>
<rect x="1" y="1" width="726" height="240" rx="7" stroke="#E6EBF0" stroke-width="2"/>
<path d="M190 82C190 77.5817 193.582 74 198 74H530C534.418 74 538 77.5817 538 82V160C538 164.418 534.418 168 530 168H198C193.582 168 190 164.418 190 160V82Z" fill="white"/>
<path d="M226 111C220.48 111 216 115.48 216 121C216 126.52 220.48 131 226 131C231.52 131 236 126.52 236 121C236 115.48 231.52 111 226 111ZM226 126C225.45 126 225 125.55 225 125V121C225 120.45 225.45 120 226 120C226.55 120 227 120.45 227 121V125C227 125.55 226.55 126 226 126ZM227 118H225V116H227V118Z" fill="#101E37"/>
<path d="M257.922 116H251.562V104.578H257.922V105.75H252.891V109.445H257.633V110.602H252.891V114.828H257.922V116ZM265.797 113.656C265.797 114.203 265.659 114.664 265.383 115.039C265.112 115.409 264.721 115.688 264.211 115.875C263.706 116.062 263.102 116.156 262.398 116.156C261.799 116.156 261.281 116.109 260.844 116.016C260.406 115.922 260.023 115.789 259.695 115.617V114.422C260.044 114.594 260.461 114.75 260.945 114.891C261.43 115.031 261.924 115.102 262.43 115.102C263.169 115.102 263.706 114.982 264.039 114.742C264.372 114.503 264.539 114.177 264.539 113.766C264.539 113.531 264.471 113.326 264.336 113.148C264.206 112.966 263.984 112.792 263.672 112.625C263.359 112.453 262.927 112.266 262.375 112.062C261.828 111.854 261.354 111.648 260.953 111.445C260.557 111.237 260.25 110.984 260.031 110.688C259.818 110.391 259.711 110.005 259.711 109.531C259.711 108.807 260.003 108.253 260.586 107.867C261.174 107.477 261.945 107.281 262.898 107.281C263.414 107.281 263.896 107.333 264.344 107.438C264.797 107.536 265.219 107.672 265.609 107.844L265.172 108.883C264.818 108.732 264.44 108.604 264.039 108.5C263.638 108.396 263.229 108.344 262.812 108.344C262.214 108.344 261.753 108.443 261.43 108.641C261.112 108.839 260.953 109.109 260.953 109.453C260.953 109.719 261.026 109.938 261.172 110.109C261.323 110.281 261.562 110.443 261.891 110.594C262.219 110.745 262.651 110.922 263.188 111.125C263.724 111.323 264.188 111.529 264.578 111.742C264.969 111.951 265.268 112.206 265.477 112.508C265.69 112.805 265.797 113.188 265.797 113.656ZM271.312 116.156C270.542 116.156 269.862 115.997 269.273 115.68C268.685 115.362 268.227 114.878 267.898 114.227C267.57 113.576 267.406 112.755 267.406 111.766C267.406 110.729 267.578 109.883 267.922 109.227C268.271 108.565 268.75 108.076 269.359 107.758C269.969 107.44 270.661 107.281 271.438 107.281C271.865 107.281 272.276 107.326 272.672 107.414C273.073 107.497 273.401 107.604 273.656 107.734L273.266 108.82C273.005 108.716 272.703 108.622 272.359 108.539C272.021 108.456 271.703 108.414 271.406 108.414C270.812 108.414 270.318 108.542 269.922 108.797C269.531 109.052 269.237 109.427 269.039 109.922C268.846 110.417 268.75 111.026 268.75 111.75C268.75 112.443 268.844 113.034 269.031 113.523C269.224 114.013 269.508 114.388 269.883 114.648C270.263 114.904 270.737 115.031 271.305 115.031C271.758 115.031 272.167 114.984 272.531 114.891C272.896 114.792 273.227 114.677 273.523 114.547V115.703C273.237 115.849 272.917 115.961 272.562 116.039C272.214 116.117 271.797 116.156 271.312 116.156ZM282.625 107.438V116H281.562L281.375 114.797H281.305C281.128 115.094 280.898 115.344 280.617 115.547C280.336 115.75 280.018 115.901 279.664 116C279.315 116.104 278.943 116.156 278.547 116.156C277.87 116.156 277.302 116.047 276.844 115.828C276.385 115.609 276.039 115.271 275.805 114.812C275.576 114.354 275.461 113.766 275.461 113.047V107.438H276.773V112.953C276.773 113.667 276.935 114.201 277.258 114.555C277.581 114.904 278.073 115.078 278.734 115.078C279.37 115.078 279.875 114.958 280.25 114.719C280.63 114.479 280.904 114.128 281.07 113.664C281.237 113.195 281.32 112.622 281.32 111.945V107.438H282.625ZM288.664 107.281C289.393 107.281 290.018 107.443 290.539 107.766C291.06 108.089 291.458 108.542 291.734 109.125C292.01 109.703 292.148 110.38 292.148 111.156V111.961H286.234C286.25 112.966 286.5 113.732 286.984 114.258C287.469 114.784 288.151 115.047 289.031 115.047C289.573 115.047 290.052 114.997 290.469 114.898C290.885 114.799 291.318 114.654 291.766 114.461V115.602C291.333 115.794 290.904 115.935 290.477 116.023C290.055 116.112 289.555 116.156 288.977 116.156C288.154 116.156 287.435 115.99 286.82 115.656C286.211 115.318 285.737 114.823 285.398 114.172C285.06 113.521 284.891 112.724 284.891 111.781C284.891 110.859 285.044 110.062 285.352 109.391C285.664 108.714 286.102 108.193 286.664 107.828C287.232 107.464 287.898 107.281 288.664 107.281ZM288.648 108.344C287.956 108.344 287.404 108.57 286.992 109.023C286.581 109.477 286.336 110.109 286.258 110.922H290.789C290.784 110.411 290.703 109.964 290.547 109.578C290.396 109.188 290.164 108.885 289.852 108.672C289.539 108.453 289.138 108.344 288.648 108.344ZM295.656 116H294.352V103.844H295.656V116ZM301.602 107.297C302.622 107.297 303.38 107.526 303.875 107.984C304.37 108.443 304.617 109.174 304.617 110.18V116H303.672L303.422 114.734H303.359C303.12 115.047 302.87 115.31 302.609 115.523C302.349 115.732 302.047 115.891 301.703 116C301.365 116.104 300.948 116.156 300.453 116.156C299.932 116.156 299.469 116.065 299.062 115.883C298.661 115.701 298.344 115.424 298.109 115.055C297.88 114.685 297.766 114.216 297.766 113.648C297.766 112.794 298.104 112.138 298.781 111.68C299.458 111.221 300.49 110.971 301.875 110.93L303.352 110.867V110.344C303.352 109.604 303.193 109.086 302.875 108.789C302.557 108.492 302.109 108.344 301.531 108.344C301.083 108.344 300.656 108.409 300.25 108.539C299.844 108.669 299.458 108.823 299.094 109L298.695 108.016C299.081 107.818 299.523 107.648 300.023 107.508C300.523 107.367 301.049 107.297 301.602 107.297ZM303.336 111.781L302.031 111.836C300.964 111.878 300.211 112.052 299.773 112.359C299.336 112.667 299.117 113.102 299.117 113.664C299.117 114.154 299.266 114.516 299.562 114.75C299.859 114.984 300.253 115.102 300.742 115.102C301.503 115.102 302.125 114.891 302.609 114.469C303.094 114.047 303.336 113.414 303.336 112.57V111.781ZM314.492 116.156C313.409 116.156 312.549 115.786 311.914 115.047C311.284 114.307 310.969 113.208 310.969 111.75C310.969 110.276 311.292 109.164 311.938 108.414C312.583 107.659 313.443 107.281 314.516 107.281C314.969 107.281 315.365 107.341 315.703 107.461C316.042 107.581 316.333 107.742 316.578 107.945C316.823 108.143 317.029 108.37 317.195 108.625H317.289C317.268 108.464 317.247 108.242 317.227 107.961C317.206 107.68 317.195 107.451 317.195 107.273V103.844H318.492V116H317.445L317.25 114.781H317.195C317.034 115.036 316.828 115.268 316.578 115.477C316.333 115.685 316.039 115.852 315.695 115.977C315.357 116.096 314.956 116.156 314.492 116.156ZM314.695 115.078C315.612 115.078 316.26 114.818 316.641 114.297C317.021 113.776 317.211 113.003 317.211 111.977V111.742C317.211 110.654 317.029 109.818 316.664 109.234C316.305 108.651 315.648 108.359 314.695 108.359C313.898 108.359 313.302 108.667 312.906 109.281C312.51 109.891 312.312 110.724 312.312 111.781C312.312 112.833 312.508 113.646 312.898 114.219C313.294 114.792 313.893 115.078 314.695 115.078ZM324.539 107.281C325.268 107.281 325.893 107.443 326.414 107.766C326.935 108.089 327.333 108.542 327.609 109.125C327.885 109.703 328.023 110.38 328.023 111.156V111.961H322.109C322.125 112.966 322.375 113.732 322.859 114.258C323.344 114.784 324.026 115.047 324.906 115.047C325.448 115.047 325.927 114.997 326.344 114.898C326.76 114.799 327.193 114.654 327.641 114.461V115.602C327.208 115.794 326.779 115.935 326.352 116.023C325.93 116.112 325.43 116.156 324.852 116.156C324.029 116.156 323.31 115.99 322.695 115.656C322.086 115.318 321.612 114.823 321.273 114.172C320.935 113.521 320.766 112.724 320.766 111.781C320.766 110.859 320.919 110.062 321.227 109.391C321.539 108.714 321.977 108.193 322.539 107.828C323.107 107.464 323.773 107.281 324.539 107.281ZM324.523 108.344C323.831 108.344 323.279 108.57 322.867 109.023C322.456 109.477 322.211 110.109 322.133 110.922H326.664C326.659 110.411 326.578 109.964 326.422 109.578C326.271 109.188 326.039 108.885 325.727 108.672C325.414 108.453 325.013 108.344 324.523 108.344ZM339.602 116L335.766 105.891H335.703C335.724 106.104 335.742 106.365 335.758 106.672C335.773 106.979 335.786 107.315 335.797 107.68C335.807 108.039 335.812 108.406 335.812 108.781V116H334.578V104.578H336.547L340.164 114.078H340.219L343.891 104.578H345.844V116H344.531V108.688C344.531 108.349 344.536 108.01 344.547 107.672C344.557 107.328 344.57 107.005 344.586 106.703C344.602 106.396 344.617 106.13 344.633 105.906H344.57L340.688 116H339.602ZM351.977 107.297C352.997 107.297 353.755 107.526 354.25 107.984C354.745 108.443 354.992 109.174 354.992 110.18V116H354.047L353.797 114.734H353.734C353.495 115.047 353.245 115.31 352.984 115.523C352.724 115.732 352.422 115.891 352.078 116C351.74 116.104 351.323 116.156 350.828 116.156C350.307 116.156 349.844 116.065 349.438 115.883C349.036 115.701 348.719 115.424 348.484 115.055C348.255 114.685 348.141 114.216 348.141 113.648C348.141 112.794 348.479 112.138 349.156 111.68C349.833 111.221 350.865 110.971 352.25 110.93L353.727 110.867V110.344C353.727 109.604 353.568 109.086 353.25 108.789C352.932 108.492 352.484 108.344 351.906 108.344C351.458 108.344 351.031 108.409 350.625 108.539C350.219 108.669 349.833 108.823 349.469 109L349.07 108.016C349.456 107.818 349.898 107.648 350.398 107.508C350.898 107.367 351.424 107.297 351.977 107.297ZM353.711 111.781L352.406 111.836C351.339 111.878 350.586 112.052 350.148 112.359C349.711 112.667 349.492 113.102 349.492 113.664C349.492 114.154 349.641 114.516 349.938 114.75C350.234 114.984 350.628 115.102 351.117 115.102C351.878 115.102 352.5 114.891 352.984 114.469C353.469 114.047 353.711 113.414 353.711 112.57V111.781ZM360.961 107.281C361.69 107.281 362.315 107.443 362.836 107.766C363.357 108.089 363.755 108.542 364.031 109.125C364.307 109.703 364.445 110.38 364.445 111.156V111.961H358.531C358.547 112.966 358.797 113.732 359.281 114.258C359.766 114.784 360.448 115.047 361.328 115.047C361.87 115.047 362.349 114.997 362.766 114.898C363.182 114.799 363.615 114.654 364.062 114.461V115.602C363.63 115.794 363.201 115.935 362.773 116.023C362.352 116.112 361.852 116.156 361.273 116.156C360.451 116.156 359.732 115.99 359.117 115.656C358.508 115.318 358.034 114.823 357.695 114.172C357.357 113.521 357.188 112.724 357.188 111.781C357.188 110.859 357.341 110.062 357.648 109.391C357.961 108.714 358.398 108.193 358.961 107.828C359.529 107.464 360.195 107.281 360.961 107.281ZM360.945 108.344C360.253 108.344 359.701 108.57 359.289 109.023C358.878 109.477 358.633 110.109 358.555 110.922H363.086C363.081 110.411 363 109.964 362.844 109.578C362.693 109.188 362.461 108.885 362.148 108.672C361.836 108.453 361.435 108.344 360.945 108.344ZM372.188 113.656C372.188 114.203 372.049 114.664 371.773 115.039C371.503 115.409 371.112 115.688 370.602 115.875C370.096 116.062 369.492 116.156 368.789 116.156C368.19 116.156 367.672 116.109 367.234 116.016C366.797 115.922 366.414 115.789 366.086 115.617V114.422C366.435 114.594 366.852 114.75 367.336 114.891C367.82 115.031 368.315 115.102 368.82 115.102C369.56 115.102 370.096 114.982 370.43 114.742C370.763 114.503 370.93 114.177 370.93 113.766C370.93 113.531 370.862 113.326 370.727 113.148C370.596 112.966 370.375 112.792 370.062 112.625C369.75 112.453 369.318 112.266 368.766 112.062C368.219 111.854 367.745 111.648 367.344 111.445C366.948 111.237 366.641 110.984 366.422 110.688C366.208 110.391 366.102 110.005 366.102 109.531C366.102 108.807 366.393 108.253 366.977 107.867C367.565 107.477 368.336 107.281 369.289 107.281C369.805 107.281 370.286 107.333 370.734 107.438C371.188 107.536 371.609 107.672 372 107.844L371.562 108.883C371.208 108.732 370.831 108.604 370.43 108.5C370.029 108.396 369.62 108.344 369.203 108.344C368.604 108.344 368.143 108.443 367.82 108.641C367.503 108.839 367.344 109.109 367.344 109.453C367.344 109.719 367.417 109.938 367.562 110.109C367.714 110.281 367.953 110.443 368.281 110.594C368.609 110.745 369.042 110.922 369.578 111.125C370.115 111.323 370.578 111.529 370.969 111.742C371.359 111.951 371.659 112.206 371.867 112.508C372.081 112.805 372.188 113.188 372.188 113.656ZM377.039 115.094C377.253 115.094 377.471 115.076 377.695 115.039C377.919 115.003 378.102 114.958 378.242 114.906V115.914C378.091 115.982 377.88 116.039 377.609 116.086C377.344 116.133 377.083 116.156 376.828 116.156C376.375 116.156 375.964 116.078 375.594 115.922C375.224 115.76 374.927 115.49 374.703 115.109C374.484 114.729 374.375 114.203 374.375 113.531V108.453H373.156V107.82L374.383 107.312L374.898 105.453H375.68V107.438H378.188V108.453H375.68V113.492C375.68 114.029 375.802 114.43 376.047 114.695C376.297 114.961 376.628 115.094 377.039 115.094ZM383.867 107.281C384.039 107.281 384.219 107.292 384.406 107.312C384.594 107.328 384.76 107.352 384.906 107.383L384.742 108.586C384.602 108.549 384.445 108.521 384.273 108.5C384.102 108.479 383.94 108.469 383.789 108.469C383.445 108.469 383.12 108.539 382.812 108.68C382.51 108.815 382.245 109.013 382.016 109.273C381.786 109.529 381.607 109.839 381.477 110.203C381.346 110.562 381.281 110.964 381.281 111.406V116H379.977V107.438H381.055L381.195 109.016H381.25C381.427 108.698 381.641 108.409 381.891 108.148C382.141 107.883 382.43 107.672 382.758 107.516C383.091 107.359 383.461 107.281 383.867 107.281ZM393.906 111.703C393.906 112.406 393.815 113.034 393.633 113.586C393.451 114.138 393.188 114.604 392.844 114.984C392.5 115.365 392.083 115.656 391.594 115.859C391.109 116.057 390.56 116.156 389.945 116.156C389.372 116.156 388.846 116.057 388.367 115.859C387.893 115.656 387.482 115.365 387.133 114.984C386.789 114.604 386.521 114.138 386.328 113.586C386.141 113.034 386.047 112.406 386.047 111.703C386.047 110.766 386.206 109.969 386.523 109.312C386.841 108.651 387.294 108.148 387.883 107.805C388.477 107.456 389.182 107.281 390 107.281C390.781 107.281 391.464 107.456 392.047 107.805C392.635 108.154 393.091 108.659 393.414 109.32C393.742 109.977 393.906 110.771 393.906 111.703ZM387.391 111.703C387.391 112.391 387.482 112.987 387.664 113.492C387.846 113.997 388.128 114.388 388.508 114.664C388.888 114.94 389.378 115.078 389.977 115.078C390.57 115.078 391.057 114.94 391.438 114.664C391.823 114.388 392.107 113.997 392.289 113.492C392.471 112.987 392.562 112.391 392.562 111.703C392.562 111.021 392.471 110.432 392.289 109.938C392.107 109.438 391.826 109.052 391.445 108.781C391.065 108.51 390.573 108.375 389.969 108.375C389.078 108.375 388.424 108.669 388.008 109.258C387.596 109.846 387.391 110.661 387.391 111.703ZM401.688 113.656C401.688 114.203 401.549 114.664 401.273 115.039C401.003 115.409 400.612 115.688 400.102 115.875C399.596 116.062 398.992 116.156 398.289 116.156C397.69 116.156 397.172 116.109 396.734 116.016C396.297 115.922 395.914 115.789 395.586 115.617V114.422C395.935 114.594 396.352 114.75 396.836 114.891C397.32 115.031 397.815 115.102 398.32 115.102C399.06 115.102 399.596 114.982 399.93 114.742C400.263 114.503 400.43 114.177 400.43 113.766C400.43 113.531 400.362 113.326 400.227 113.148C400.096 112.966 399.875 112.792 399.562 112.625C399.25 112.453 398.818 112.266 398.266 112.062C397.719 111.854 397.245 111.648 396.844 111.445C396.448 111.237 396.141 110.984 395.922 110.688C395.708 110.391 395.602 110.005 395.602 109.531C395.602 108.807 395.893 108.253 396.477 107.867C397.065 107.477 397.836 107.281 398.789 107.281C399.305 107.281 399.786 107.333 400.234 107.438C400.688 107.536 401.109 107.672 401.5 107.844L401.062 108.883C400.708 108.732 400.331 108.604 399.93 108.5C399.529 108.396 399.12 108.344 398.703 108.344C398.104 108.344 397.643 108.443 397.32 108.641C397.003 108.839 396.844 109.109 396.844 109.453C396.844 109.719 396.917 109.938 397.062 110.109C397.214 110.281 397.453 110.443 397.781 110.594C398.109 110.745 398.542 110.922 399.078 111.125C399.615 111.323 400.078 111.529 400.469 111.742C400.859 111.951 401.159 112.206 401.367 112.508C401.581 112.805 401.688 113.188 401.688 113.656Z" fill="#101E37"/>
<path d="M255.64 129.888C255.088 129.888 254.591 129.983 254.149 130.175C253.712 130.362 253.338 130.635 253.028 130.995C252.723 131.351 252.488 131.781 252.324 132.287C252.16 132.793 252.078 133.363 252.078 133.996C252.078 134.835 252.208 135.564 252.468 136.184C252.732 136.799 253.124 137.275 253.644 137.612C254.168 137.95 254.822 138.118 255.605 138.118C256.052 138.118 256.471 138.082 256.863 138.009C257.26 137.931 257.645 137.836 258.019 137.722V138.733C257.654 138.87 257.271 138.97 256.87 139.034C256.469 139.103 255.993 139.137 255.441 139.137C254.425 139.137 253.575 138.927 252.892 138.508C252.213 138.084 251.702 137.487 251.36 136.717C251.023 135.947 250.854 135.037 250.854 133.989C250.854 133.233 250.959 132.542 251.169 131.918C251.383 131.289 251.693 130.747 252.099 130.291C252.509 129.835 253.01 129.484 253.603 129.238C254.2 128.988 254.883 128.862 255.653 128.862C256.159 128.862 256.647 128.912 257.116 129.013C257.586 129.113 258.009 129.257 258.388 129.443L257.923 130.428C257.604 130.282 257.253 130.157 256.87 130.052C256.492 129.942 256.082 129.888 255.64 129.888ZM262.817 131.385C263.711 131.385 264.374 131.585 264.807 131.986C265.24 132.387 265.456 133.028 265.456 133.907V139H264.629L264.41 137.893H264.355C264.146 138.166 263.927 138.396 263.699 138.583C263.471 138.765 263.207 138.904 262.906 139C262.61 139.091 262.245 139.137 261.812 139.137C261.357 139.137 260.951 139.057 260.596 138.897C260.245 138.738 259.967 138.496 259.762 138.173C259.561 137.849 259.461 137.439 259.461 136.942C259.461 136.195 259.757 135.621 260.35 135.22C260.942 134.819 261.844 134.6 263.057 134.563L264.349 134.509V134.051C264.349 133.404 264.21 132.95 263.932 132.69C263.654 132.431 263.262 132.301 262.756 132.301C262.364 132.301 261.99 132.358 261.635 132.472C261.279 132.586 260.942 132.72 260.623 132.875L260.274 132.014C260.612 131.84 260.999 131.692 261.437 131.569C261.874 131.446 262.334 131.385 262.817 131.385ZM264.335 135.309L263.193 135.356C262.259 135.393 261.601 135.546 261.218 135.814C260.835 136.083 260.644 136.464 260.644 136.956C260.644 137.384 260.773 137.701 261.033 137.906C261.293 138.111 261.637 138.214 262.065 138.214C262.731 138.214 263.275 138.029 263.699 137.66C264.123 137.291 264.335 136.737 264.335 135.999V135.309ZM271.314 131.371C272.249 131.371 272.994 131.692 273.55 132.335C274.106 132.978 274.384 133.944 274.384 135.233C274.384 136.086 274.256 136.801 274.001 137.38C273.746 137.959 273.386 138.396 272.921 138.692C272.461 138.989 271.916 139.137 271.287 139.137C270.891 139.137 270.542 139.084 270.241 138.979C269.94 138.875 269.683 138.733 269.469 138.556C269.255 138.378 269.077 138.184 268.936 137.975H268.854C268.867 138.152 268.883 138.367 268.901 138.617C268.924 138.868 268.936 139.087 268.936 139.273V142.35H267.794V131.508H268.73L268.881 132.615H268.936C269.081 132.387 269.259 132.18 269.469 131.993C269.678 131.802 269.934 131.651 270.234 131.542C270.54 131.428 270.9 131.371 271.314 131.371ZM271.116 132.328C270.597 132.328 270.177 132.428 269.858 132.629C269.544 132.829 269.314 133.13 269.168 133.531C269.022 133.928 268.945 134.427 268.936 135.028V135.247C268.936 135.881 269.004 136.416 269.141 136.854C269.282 137.291 269.512 137.624 269.831 137.852C270.155 138.079 270.588 138.193 271.13 138.193C271.595 138.193 271.982 138.068 272.292 137.817C272.602 137.567 272.832 137.218 272.982 136.771C273.137 136.32 273.215 135.803 273.215 135.22C273.215 134.336 273.042 133.634 272.695 133.114C272.354 132.59 271.827 132.328 271.116 132.328ZM279.169 131.385C280.062 131.385 280.725 131.585 281.158 131.986C281.591 132.387 281.808 133.028 281.808 133.907V139H280.98L280.762 137.893H280.707C280.497 138.166 280.279 138.396 280.051 138.583C279.823 138.765 279.559 138.904 279.258 139C278.962 139.091 278.597 139.137 278.164 139.137C277.708 139.137 277.303 139.057 276.947 138.897C276.596 138.738 276.318 138.496 276.113 138.173C275.913 137.849 275.812 137.439 275.812 136.942C275.812 136.195 276.109 135.621 276.701 135.22C277.294 134.819 278.196 134.6 279.408 134.563L280.7 134.509V134.051C280.7 133.404 280.561 132.95 280.283 132.69C280.005 132.431 279.613 132.301 279.107 132.301C278.715 132.301 278.342 132.358 277.986 132.472C277.631 132.586 277.294 132.72 276.975 132.875L276.626 132.014C276.963 131.84 277.351 131.692 277.788 131.569C278.226 131.446 278.686 131.385 279.169 131.385ZM280.687 135.309L279.545 135.356C278.611 135.393 277.952 135.546 277.569 135.814C277.187 136.083 276.995 136.464 276.995 136.956C276.995 137.384 277.125 137.701 277.385 137.906C277.645 138.111 277.989 138.214 278.417 138.214C279.082 138.214 279.627 138.029 280.051 137.66C280.475 137.291 280.687 136.737 280.687 135.999V135.309ZM287.146 139.137C286.472 139.137 285.877 138.998 285.362 138.72C284.847 138.442 284.446 138.018 284.159 137.448C283.872 136.879 283.729 136.161 283.729 135.295C283.729 134.388 283.879 133.647 284.18 133.073C284.485 132.494 284.904 132.066 285.438 131.788C285.971 131.51 286.577 131.371 287.256 131.371C287.63 131.371 287.99 131.41 288.336 131.487C288.687 131.56 288.974 131.654 289.197 131.768L288.855 132.718C288.628 132.627 288.363 132.545 288.062 132.472C287.766 132.399 287.488 132.362 287.229 132.362C286.709 132.362 286.276 132.474 285.93 132.697C285.588 132.921 285.33 133.249 285.157 133.682C284.989 134.115 284.904 134.648 284.904 135.281C284.904 135.887 284.986 136.405 285.15 136.833C285.319 137.261 285.567 137.59 285.896 137.817C286.228 138.041 286.643 138.152 287.14 138.152C287.536 138.152 287.894 138.111 288.213 138.029C288.532 137.943 288.821 137.842 289.081 137.729V138.74C288.83 138.868 288.55 138.966 288.24 139.034C287.935 139.103 287.57 139.137 287.146 139.137ZM291.993 131.508V139H290.858V131.508H291.993ZM291.439 128.705C291.626 128.705 291.786 128.767 291.918 128.89C292.055 129.008 292.123 129.195 292.123 129.45C292.123 129.701 292.055 129.888 291.918 130.011C291.786 130.134 291.626 130.195 291.439 130.195C291.243 130.195 291.079 130.134 290.947 130.011C290.82 129.888 290.756 129.701 290.756 129.45C290.756 129.195 290.82 129.008 290.947 128.89C291.079 128.767 291.243 128.705 291.439 128.705ZM296.819 138.207C297.006 138.207 297.198 138.191 297.394 138.159C297.59 138.127 297.749 138.089 297.872 138.043V138.925C297.74 138.984 297.555 139.034 297.318 139.075C297.086 139.116 296.858 139.137 296.635 139.137C296.238 139.137 295.878 139.068 295.555 138.932C295.231 138.79 294.971 138.553 294.775 138.221C294.584 137.888 294.488 137.428 294.488 136.84V132.396H293.422V131.843L294.495 131.398L294.946 129.771H295.63V131.508H297.824V132.396H295.63V136.806C295.63 137.275 295.737 137.626 295.951 137.858C296.17 138.091 296.459 138.207 296.819 138.207ZM302.192 131.385C303.086 131.385 303.749 131.585 304.182 131.986C304.615 132.387 304.831 133.028 304.831 133.907V139H304.004L303.785 137.893H303.73C303.521 138.166 303.302 138.396 303.074 138.583C302.846 138.765 302.582 138.904 302.281 139C301.985 139.091 301.62 139.137 301.188 139.137C300.732 139.137 300.326 139.057 299.971 138.897C299.62 138.738 299.342 138.496 299.137 138.173C298.936 137.849 298.836 137.439 298.836 136.942C298.836 136.195 299.132 135.621 299.725 135.22C300.317 134.819 301.219 134.6 302.432 134.563L303.724 134.509V134.051C303.724 133.404 303.585 132.95 303.307 132.69C303.029 132.431 302.637 132.301 302.131 132.301C301.739 132.301 301.365 132.358 301.01 132.472C300.654 132.586 300.317 132.72 299.998 132.875L299.649 132.014C299.987 131.84 300.374 131.692 300.812 131.569C301.249 131.446 301.709 131.385 302.192 131.385ZM303.71 135.309L302.568 135.356C301.634 135.393 300.976 135.546 300.593 135.814C300.21 136.083 300.019 136.464 300.019 136.956C300.019 137.384 300.148 137.701 300.408 137.906C300.668 138.111 301.012 138.214 301.44 138.214C302.106 138.214 302.65 138.029 303.074 137.66C303.498 137.291 303.71 136.737 303.71 135.999V135.309ZM310.17 139.137C309.495 139.137 308.901 138.998 308.386 138.72C307.871 138.442 307.47 138.018 307.183 137.448C306.896 136.879 306.752 136.161 306.752 135.295C306.752 134.388 306.902 133.647 307.203 133.073C307.508 132.494 307.928 132.066 308.461 131.788C308.994 131.51 309.6 131.371 310.279 131.371C310.653 131.371 311.013 131.41 311.359 131.487C311.71 131.56 311.997 131.654 312.221 131.768L311.879 132.718C311.651 132.627 311.387 132.545 311.086 132.472C310.79 132.399 310.512 132.362 310.252 132.362C309.732 132.362 309.299 132.474 308.953 132.697C308.611 132.921 308.354 133.249 308.181 133.682C308.012 134.115 307.928 134.648 307.928 135.281C307.928 135.887 308.01 136.405 308.174 136.833C308.342 137.261 308.591 137.59 308.919 137.817C309.252 138.041 309.666 138.152 310.163 138.152C310.56 138.152 310.917 138.111 311.236 138.029C311.555 137.943 311.845 137.842 312.104 137.729V138.74C311.854 138.868 311.574 138.966 311.264 139.034C310.958 139.103 310.594 139.137 310.17 139.137ZM315.017 131.508V139H313.882V131.508H315.017ZM314.463 128.705C314.65 128.705 314.809 128.767 314.941 128.89C315.078 129.008 315.146 129.195 315.146 129.45C315.146 129.701 315.078 129.888 314.941 130.011C314.809 130.134 314.65 130.195 314.463 130.195C314.267 130.195 314.103 130.134 313.971 130.011C313.843 129.888 313.779 129.701 313.779 129.45C313.779 129.195 313.843 129.008 313.971 128.89C314.103 128.767 314.267 128.705 314.463 128.705ZM319.843 138.207C320.03 138.207 320.221 138.191 320.417 138.159C320.613 138.127 320.772 138.089 320.896 138.043V138.925C320.763 138.984 320.579 139.034 320.342 139.075C320.109 139.116 319.882 139.137 319.658 139.137C319.262 139.137 318.902 139.068 318.578 138.932C318.255 138.79 317.995 138.553 317.799 138.221C317.607 137.888 317.512 137.428 317.512 136.84V132.396H316.445V131.843L317.519 131.398L317.97 129.771H318.653V131.508H320.848V132.396H318.653V136.806C318.653 137.275 318.76 137.626 318.975 137.858C319.193 138.091 319.483 138.207 319.843 138.207ZM325.216 131.385C326.109 131.385 326.772 131.585 327.205 131.986C327.638 132.387 327.854 133.028 327.854 133.907V139H327.027L326.809 137.893H326.754C326.544 138.166 326.326 138.396 326.098 138.583C325.87 138.765 325.605 138.904 325.305 139C325.008 139.091 324.644 139.137 324.211 139.137C323.755 139.137 323.35 139.057 322.994 138.897C322.643 138.738 322.365 138.496 322.16 138.173C321.96 137.849 321.859 137.439 321.859 136.942C321.859 136.195 322.156 135.621 322.748 135.22C323.34 134.819 324.243 134.6 325.455 134.563L326.747 134.509V134.051C326.747 133.404 326.608 132.95 326.33 132.69C326.052 132.431 325.66 132.301 325.154 132.301C324.762 132.301 324.389 132.358 324.033 132.472C323.678 132.586 323.34 132.72 323.021 132.875L322.673 132.014C323.01 131.84 323.397 131.692 323.835 131.569C324.272 131.446 324.733 131.385 325.216 131.385ZM326.733 135.309L325.592 135.356C324.658 135.393 323.999 135.546 323.616 135.814C323.233 136.083 323.042 136.464 323.042 136.956C323.042 137.384 323.172 137.701 323.432 137.906C323.691 138.111 324.035 138.214 324.464 138.214C325.129 138.214 325.674 138.029 326.098 137.66C326.521 137.291 326.733 136.737 326.733 135.999V135.309ZM333.193 139.137C332.519 139.137 331.924 138.998 331.409 138.72C330.894 138.442 330.493 138.018 330.206 137.448C329.919 136.879 329.775 136.161 329.775 135.295C329.775 134.388 329.926 133.647 330.227 133.073C330.532 132.494 330.951 132.066 331.484 131.788C332.018 131.51 332.624 131.371 333.303 131.371C333.676 131.371 334.036 131.41 334.383 131.487C334.734 131.56 335.021 131.654 335.244 131.768L334.902 132.718C334.674 132.627 334.41 132.545 334.109 132.472C333.813 132.399 333.535 132.362 333.275 132.362C332.756 132.362 332.323 132.474 331.977 132.697C331.635 132.921 331.377 133.249 331.204 133.682C331.035 134.115 330.951 134.648 330.951 135.281C330.951 135.887 331.033 136.405 331.197 136.833C331.366 137.261 331.614 137.59 331.942 137.817C332.275 138.041 332.69 138.152 333.187 138.152C333.583 138.152 333.941 138.111 334.26 138.029C334.579 137.943 334.868 137.842 335.128 137.729V138.74C334.877 138.868 334.597 138.966 334.287 139.034C333.982 139.103 333.617 139.137 333.193 139.137ZM338.04 131.508V139H336.905V131.508H338.04ZM337.486 128.705C337.673 128.705 337.833 128.767 337.965 128.89C338.102 129.008 338.17 129.195 338.17 129.45C338.17 129.701 338.102 129.888 337.965 130.011C337.833 130.134 337.673 130.195 337.486 130.195C337.29 130.195 337.126 130.134 336.994 130.011C336.867 129.888 336.803 129.701 336.803 129.45C336.803 129.195 336.867 129.008 336.994 128.89C337.126 128.767 337.29 128.705 337.486 128.705ZM346.906 135.24C346.906 135.855 346.826 136.405 346.667 136.888C346.507 137.371 346.277 137.779 345.977 138.111C345.676 138.444 345.311 138.699 344.883 138.877C344.459 139.05 343.978 139.137 343.44 139.137C342.939 139.137 342.479 139.05 342.06 138.877C341.645 138.699 341.285 138.444 340.979 138.111C340.679 137.779 340.444 137.371 340.275 136.888C340.111 136.405 340.029 135.855 340.029 135.24C340.029 134.42 340.168 133.723 340.446 133.148C340.724 132.57 341.121 132.13 341.636 131.829C342.155 131.524 342.773 131.371 343.488 131.371C344.172 131.371 344.769 131.524 345.279 131.829C345.794 132.134 346.193 132.576 346.476 133.155C346.763 133.729 346.906 134.424 346.906 135.24ZM341.205 135.24C341.205 135.842 341.285 136.364 341.444 136.806C341.604 137.248 341.85 137.59 342.183 137.831C342.515 138.073 342.944 138.193 343.468 138.193C343.987 138.193 344.413 138.073 344.746 137.831C345.083 137.59 345.332 137.248 345.491 136.806C345.651 136.364 345.73 135.842 345.73 135.24C345.73 134.643 345.651 134.128 345.491 133.695C345.332 133.258 345.086 132.921 344.753 132.684C344.42 132.447 343.99 132.328 343.461 132.328C342.682 132.328 342.11 132.586 341.745 133.101C341.385 133.616 341.205 134.329 341.205 135.24ZM345.45 128.274V128.411C345.359 128.543 345.234 128.703 345.074 128.89C344.919 129.072 344.746 129.266 344.555 129.471C344.363 129.671 344.17 129.863 343.974 130.045C343.782 130.227 343.604 130.384 343.44 130.517H342.682V130.353C342.827 130.179 342.987 129.972 343.16 129.73C343.333 129.484 343.502 129.234 343.666 128.979C343.83 128.719 343.967 128.484 344.076 128.274H345.45ZM352.416 131.371C353.305 131.371 353.977 131.59 354.433 132.027C354.888 132.46 355.116 133.158 355.116 134.119V139H353.995V134.194C353.995 133.57 353.852 133.103 353.564 132.793C353.282 132.483 352.847 132.328 352.259 132.328C351.429 132.328 350.846 132.563 350.509 133.032C350.172 133.502 350.003 134.183 350.003 135.076V139H348.868V131.508H349.784L349.955 132.588H350.017C350.176 132.324 350.379 132.103 350.625 131.925C350.871 131.743 351.147 131.606 351.452 131.515C351.757 131.419 352.079 131.371 352.416 131.371ZM363.757 139.137C362.809 139.137 362.057 138.813 361.501 138.166C360.95 137.519 360.674 136.557 360.674 135.281C360.674 133.992 360.956 133.019 361.521 132.362C362.087 131.701 362.839 131.371 363.777 131.371C364.174 131.371 364.52 131.424 364.816 131.528C365.113 131.633 365.368 131.774 365.582 131.952C365.796 132.125 365.976 132.324 366.122 132.547H366.204C366.186 132.406 366.168 132.212 366.149 131.966C366.131 131.72 366.122 131.519 366.122 131.364V128.363H367.257V139H366.341L366.17 137.934H366.122C365.981 138.157 365.801 138.36 365.582 138.542C365.368 138.724 365.11 138.87 364.81 138.979C364.513 139.084 364.162 139.137 363.757 139.137ZM363.935 138.193C364.737 138.193 365.304 137.965 365.637 137.51C365.969 137.054 366.136 136.377 366.136 135.479V135.274C366.136 134.322 365.976 133.59 365.657 133.08C365.343 132.57 364.769 132.314 363.935 132.314C363.237 132.314 362.715 132.583 362.369 133.121C362.023 133.654 361.85 134.383 361.85 135.309C361.85 136.229 362.021 136.94 362.362 137.441C362.709 137.943 363.233 138.193 363.935 138.193ZM376.123 135.24C376.123 135.855 376.043 136.405 375.884 136.888C375.724 137.371 375.494 137.779 375.193 138.111C374.893 138.444 374.528 138.699 374.1 138.877C373.676 139.05 373.195 139.137 372.657 139.137C372.156 139.137 371.696 139.05 371.276 138.877C370.862 138.699 370.502 138.444 370.196 138.111C369.896 137.779 369.661 137.371 369.492 136.888C369.328 136.405 369.246 135.855 369.246 135.24C369.246 134.42 369.385 133.723 369.663 133.148C369.941 132.57 370.338 132.13 370.853 131.829C371.372 131.524 371.99 131.371 372.705 131.371C373.389 131.371 373.986 131.524 374.496 131.829C375.011 132.134 375.41 132.576 375.692 133.155C375.979 133.729 376.123 134.424 376.123 135.24ZM370.422 135.24C370.422 135.842 370.502 136.364 370.661 136.806C370.821 137.248 371.067 137.59 371.399 137.831C371.732 138.073 372.16 138.193 372.685 138.193C373.204 138.193 373.63 138.073 373.963 137.831C374.3 137.59 374.549 137.248 374.708 136.806C374.868 136.364 374.947 135.842 374.947 135.24C374.947 134.643 374.868 134.128 374.708 133.695C374.549 133.258 374.302 132.921 373.97 132.684C373.637 132.447 373.206 132.328 372.678 132.328C371.898 132.328 371.326 132.586 370.962 133.101C370.602 133.616 370.422 134.329 370.422 135.24ZM381.086 139.137C380.411 139.137 379.817 138.998 379.302 138.72C378.787 138.442 378.386 138.018 378.099 137.448C377.812 136.879 377.668 136.161 377.668 135.295C377.668 134.388 377.818 133.647 378.119 133.073C378.424 132.494 378.844 132.066 379.377 131.788C379.91 131.51 380.516 131.371 381.195 131.371C381.569 131.371 381.929 131.41 382.275 131.487C382.626 131.56 382.913 131.654 383.137 131.768L382.795 132.718C382.567 132.627 382.303 132.545 382.002 132.472C381.706 132.399 381.428 132.362 381.168 132.362C380.648 132.362 380.215 132.474 379.869 132.697C379.527 132.921 379.27 133.249 379.097 133.682C378.928 134.115 378.844 134.648 378.844 135.281C378.844 135.887 378.926 136.405 379.09 136.833C379.258 137.261 379.507 137.59 379.835 137.817C380.168 138.041 380.582 138.152 381.079 138.152C381.476 138.152 381.833 138.111 382.152 138.029C382.471 137.943 382.761 137.842 383.021 137.729V138.74C382.77 138.868 382.49 138.966 382.18 139.034C381.874 139.103 381.51 139.137 381.086 139.137ZM387.683 131.371C388.321 131.371 388.868 131.512 389.323 131.795C389.779 132.077 390.128 132.474 390.369 132.984C390.611 133.49 390.731 134.083 390.731 134.762V135.466H385.557C385.57 136.345 385.789 137.015 386.213 137.476C386.637 137.936 387.234 138.166 388.004 138.166C388.478 138.166 388.897 138.123 389.262 138.036C389.626 137.95 390.005 137.822 390.396 137.653V138.651C390.018 138.82 389.642 138.943 389.269 139.021C388.899 139.098 388.462 139.137 387.956 139.137C387.236 139.137 386.607 138.991 386.069 138.699C385.536 138.403 385.121 137.97 384.825 137.4C384.529 136.831 384.381 136.133 384.381 135.309C384.381 134.502 384.515 133.805 384.784 133.217C385.058 132.624 385.44 132.169 385.933 131.85C386.429 131.531 387.013 131.371 387.683 131.371ZM387.669 132.301C387.063 132.301 386.58 132.499 386.22 132.896C385.86 133.292 385.646 133.846 385.577 134.557H389.542C389.537 134.11 389.467 133.718 389.33 133.381C389.198 133.039 388.995 132.775 388.722 132.588C388.448 132.396 388.097 132.301 387.669 132.301ZM396.207 131.371C397.096 131.371 397.768 131.59 398.224 132.027C398.679 132.46 398.907 133.158 398.907 134.119V139H397.786V134.194C397.786 133.57 397.643 133.103 397.355 132.793C397.073 132.483 396.638 132.328 396.05 132.328C395.22 132.328 394.637 132.563 394.3 133.032C393.963 133.502 393.794 134.183 393.794 135.076V139H392.659V131.508H393.575L393.746 132.588H393.808C393.967 132.324 394.17 132.103 394.416 131.925C394.662 131.743 394.938 131.606 395.243 131.515C395.549 131.419 395.87 131.371 396.207 131.371ZM403.665 138.207C403.852 138.207 404.043 138.191 404.239 138.159C404.435 138.127 404.595 138.089 404.718 138.043V138.925C404.586 138.984 404.401 139.034 404.164 139.075C403.932 139.116 403.704 139.137 403.48 139.137C403.084 139.137 402.724 139.068 402.4 138.932C402.077 138.79 401.817 138.553 401.621 138.221C401.43 137.888 401.334 137.428 401.334 136.84V132.396H400.268V131.843L401.341 131.398L401.792 129.771H402.476V131.508H404.67V132.396H402.476V136.806C402.476 137.275 402.583 137.626 402.797 137.858C403.016 138.091 403.305 138.207 403.665 138.207ZM409.12 131.371C409.758 131.371 410.305 131.512 410.761 131.795C411.216 132.077 411.565 132.474 411.807 132.984C412.048 133.49 412.169 134.083 412.169 134.762V135.466H406.994C407.008 136.345 407.227 137.015 407.65 137.476C408.074 137.936 408.671 138.166 409.441 138.166C409.915 138.166 410.335 138.123 410.699 138.036C411.064 137.95 411.442 137.822 411.834 137.653V138.651C411.456 138.82 411.08 138.943 410.706 139.021C410.337 139.098 409.899 139.137 409.394 139.137C408.674 139.137 408.045 138.991 407.507 138.699C406.974 138.403 406.559 137.97 406.263 137.4C405.966 136.831 405.818 136.133 405.818 135.309C405.818 134.502 405.953 133.805 406.222 133.217C406.495 132.624 406.878 132.169 407.37 131.85C407.867 131.531 408.45 131.371 409.12 131.371ZM409.106 132.301C408.5 132.301 408.017 132.499 407.657 132.896C407.297 133.292 407.083 133.846 407.015 134.557H410.979C410.975 134.11 410.904 133.718 410.768 133.381C410.635 133.039 410.433 132.775 410.159 132.588C409.886 132.396 409.535 132.301 409.106 132.301ZM413.926 138.289C413.926 137.97 414.003 137.744 414.158 137.612C414.313 137.476 414.502 137.407 414.726 137.407C414.958 137.407 415.154 137.476 415.313 137.612C415.473 137.744 415.553 137.97 415.553 138.289C415.553 138.604 415.473 138.834 415.313 138.979C415.154 139.121 414.958 139.191 414.726 139.191C414.502 139.191 414.313 139.121 414.158 138.979C414.003 138.834 413.926 138.604 413.926 138.289Z" fill="#38485C"/>
<path d="M499 104.711C498.61 105.101 498.61 105.731 499 106.121L502.88 110.001L499 113.881C498.61 114.271 498.61 114.901 499 115.291C499.39 115.681 500.02 115.681 500.41 115.291L505 110.701C505.39 110.311 505.39 109.681 505 109.291L500.41 104.701C500.03 104.321 499.39 104.321 499 104.711Z" fill="#101E37"/>
</svg>
