<svg width="728" height="242" viewBox="0 0 728 242" fill="none" xmlns="http://www.w3.org/2000/svg">
<rect x="1" y="1" width="726" height="240" rx="7" fill="white"/>
<rect x="1" y="1" width="726" height="240" rx="7" stroke="#E6EBF0" stroke-width="2"/>
<path d="M530 73C534.971 73 539 77.0294 539 82V160C539 164.971 534.971 169 530 169H198C193.029 169 189 164.971 189 160V82C189 77.0294 193.029 73 198 73H530Z" fill="white"/>
<path d="M530 73C534.971 73 539 77.0294 539 82V160C539 164.971 534.971 169 530 169H198C193.029 169 189 164.971 189 160V82C189 77.0294 193.029 73 198 73H530Z" stroke="#E6EBF0" stroke-width="2"/>
<path d="M226 111C220.48 111 216 115.48 216 121C216 126.52 220.48 131 226 131C231.52 131 236 126.52 236 121C236 115.48 231.52 111 226 111ZM226 126C225.45 126 225 125.55 225 125V121C225 120.45 225.45 120 226 120C226.55 120 227 120.45 227 121V125C227 125.55 226.55 126 226 126ZM227 118H225V116H227V118Z" fill="#101E37"/>
<path d="M258.727 116L257.32 112.375H252.742L251.344 116H250L254.469 104.531H255.664L260.102 116H258.727ZM256.922 111.195L255.586 107.594C255.555 107.5 255.503 107.346 255.43 107.133C255.362 106.919 255.292 106.698 255.219 106.469C255.146 106.24 255.086 106.055 255.039 105.914C254.987 106.128 254.93 106.341 254.867 106.555C254.81 106.763 254.753 106.958 254.695 107.141C254.638 107.318 254.589 107.469 254.547 107.594L253.188 111.195H256.922ZM264.922 116.156C264.151 116.156 263.471 115.997 262.883 115.68C262.294 115.362 261.836 114.878 261.508 114.227C261.18 113.576 261.016 112.755 261.016 111.766C261.016 110.729 261.188 109.883 261.531 109.227C261.88 108.565 262.359 108.076 262.969 107.758C263.578 107.44 264.271 107.281 265.047 107.281C265.474 107.281 265.885 107.326 266.281 107.414C266.682 107.497 267.01 107.604 267.266 107.734L266.875 108.82C266.615 108.716 266.312 108.622 265.969 108.539C265.63 108.456 265.312 108.414 265.016 108.414C264.422 108.414 263.927 108.542 263.531 108.797C263.141 109.052 262.846 109.427 262.648 109.922C262.456 110.417 262.359 111.026 262.359 111.75C262.359 112.443 262.453 113.034 262.641 113.523C262.833 114.013 263.117 114.388 263.492 114.648C263.872 114.904 264.346 115.031 264.914 115.031C265.367 115.031 265.776 114.984 266.141 114.891C266.505 114.792 266.836 114.677 267.133 114.547V115.703C266.846 115.849 266.526 115.961 266.172 116.039C265.823 116.117 265.406 116.156 264.922 116.156ZM272.594 116.156C271.823 116.156 271.143 115.997 270.555 115.68C269.966 115.362 269.508 114.878 269.18 114.227C268.852 113.576 268.688 112.755 268.688 111.766C268.688 110.729 268.859 109.883 269.203 109.227C269.552 108.565 270.031 108.076 270.641 107.758C271.25 107.44 271.943 107.281 272.719 107.281C273.146 107.281 273.557 107.326 273.953 107.414C274.354 107.497 274.682 107.604 274.938 107.734L274.547 108.82C274.286 108.716 273.984 108.622 273.641 108.539C273.302 108.456 272.984 108.414 272.688 108.414C272.094 108.414 271.599 108.542 271.203 108.797C270.812 109.052 270.518 109.427 270.32 109.922C270.128 110.417 270.031 111.026 270.031 111.75C270.031 112.443 270.125 113.034 270.312 113.523C270.505 114.013 270.789 114.388 271.164 114.648C271.544 114.904 272.018 115.031 272.586 115.031C273.039 115.031 273.448 114.984 273.812 114.891C274.177 114.792 274.508 114.677 274.805 114.547V115.703C274.518 115.849 274.198 115.961 273.844 116.039C273.495 116.117 273.078 116.156 272.594 116.156ZM280.133 107.281C280.862 107.281 281.487 107.443 282.008 107.766C282.529 108.089 282.927 108.542 283.203 109.125C283.479 109.703 283.617 110.38 283.617 111.156V111.961H277.703C277.719 112.966 277.969 113.732 278.453 114.258C278.938 114.784 279.62 115.047 280.5 115.047C281.042 115.047 281.521 114.997 281.938 114.898C282.354 114.799 282.786 114.654 283.234 114.461V115.602C282.802 115.794 282.372 115.935 281.945 116.023C281.523 116.112 281.023 116.156 280.445 116.156C279.622 116.156 278.904 115.99 278.289 115.656C277.68 115.318 277.206 114.823 276.867 114.172C276.529 113.521 276.359 112.724 276.359 111.781C276.359 110.859 276.513 110.062 276.82 109.391C277.133 108.714 277.57 108.193 278.133 107.828C278.701 107.464 279.367 107.281 280.133 107.281ZM280.117 108.344C279.424 108.344 278.872 108.57 278.461 109.023C278.049 109.477 277.805 110.109 277.727 110.922H282.258C282.253 110.411 282.172 109.964 282.016 109.578C281.865 109.188 281.633 108.885 281.32 108.672C281.008 108.453 280.607 108.344 280.117 108.344ZM291.359 113.656C291.359 114.203 291.221 114.664 290.945 115.039C290.674 115.409 290.284 115.688 289.773 115.875C289.268 116.062 288.664 116.156 287.961 116.156C287.362 116.156 286.844 116.109 286.406 116.016C285.969 115.922 285.586 115.789 285.258 115.617V114.422C285.607 114.594 286.023 114.75 286.508 114.891C286.992 115.031 287.487 115.102 287.992 115.102C288.732 115.102 289.268 114.982 289.602 114.742C289.935 114.503 290.102 114.177 290.102 113.766C290.102 113.531 290.034 113.326 289.898 113.148C289.768 112.966 289.547 112.792 289.234 112.625C288.922 112.453 288.49 112.266 287.938 112.062C287.391 111.854 286.917 111.648 286.516 111.445C286.12 111.237 285.812 110.984 285.594 110.688C285.38 110.391 285.273 110.005 285.273 109.531C285.273 108.807 285.565 108.253 286.148 107.867C286.737 107.477 287.508 107.281 288.461 107.281C288.977 107.281 289.458 107.333 289.906 107.438C290.359 107.536 290.781 107.672 291.172 107.844L290.734 108.883C290.38 108.732 290.003 108.604 289.602 108.5C289.201 108.396 288.792 108.344 288.375 108.344C287.776 108.344 287.315 108.443 286.992 108.641C286.674 108.839 286.516 109.109 286.516 109.453C286.516 109.719 286.589 109.938 286.734 110.109C286.885 110.281 287.125 110.443 287.453 110.594C287.781 110.745 288.214 110.922 288.75 111.125C289.286 111.323 289.75 111.529 290.141 111.742C290.531 111.951 290.831 112.206 291.039 112.508C291.253 112.805 291.359 113.188 291.359 113.656ZM300.828 111.703C300.828 112.406 300.737 113.034 300.555 113.586C300.372 114.138 300.109 114.604 299.766 114.984C299.422 115.365 299.005 115.656 298.516 115.859C298.031 116.057 297.482 116.156 296.867 116.156C296.294 116.156 295.768 116.057 295.289 115.859C294.815 115.656 294.404 115.365 294.055 114.984C293.711 114.604 293.443 114.138 293.25 113.586C293.062 113.034 292.969 112.406 292.969 111.703C292.969 110.766 293.128 109.969 293.445 109.312C293.763 108.651 294.216 108.148 294.805 107.805C295.398 107.456 296.104 107.281 296.922 107.281C297.703 107.281 298.385 107.456 298.969 107.805C299.557 108.154 300.013 108.659 300.336 109.32C300.664 109.977 300.828 110.771 300.828 111.703ZM294.312 111.703C294.312 112.391 294.404 112.987 294.586 113.492C294.768 113.997 295.049 114.388 295.43 114.664C295.81 114.94 296.299 115.078 296.898 115.078C297.492 115.078 297.979 114.94 298.359 114.664C298.745 114.388 299.029 113.997 299.211 113.492C299.393 112.987 299.484 112.391 299.484 111.703C299.484 111.021 299.393 110.432 299.211 109.938C299.029 109.438 298.747 109.052 298.367 108.781C297.987 108.51 297.495 108.375 296.891 108.375C296 108.375 295.346 108.669 294.93 109.258C294.518 109.846 294.312 110.661 294.312 111.703Z" fill="#101E37"/>
<path d="M259.304 133.907C259.304 135.033 259.099 135.974 258.688 136.73C258.278 137.482 257.684 138.05 256.904 138.433C256.13 138.811 255.188 139 254.081 139H251.367V129.006H254.382C255.398 129.006 256.273 129.193 257.007 129.566C257.741 129.936 258.306 130.485 258.702 131.214C259.103 131.938 259.304 132.836 259.304 133.907ZM258.08 133.948C258.08 133.05 257.93 132.31 257.629 131.727C257.333 131.143 256.895 130.71 256.316 130.428C255.742 130.141 255.038 129.997 254.204 129.997H252.529V138.002H253.944C255.321 138.002 256.353 137.662 257.041 136.983C257.734 136.304 258.08 135.293 258.08 133.948ZM264.239 131.371C264.877 131.371 265.424 131.512 265.88 131.795C266.336 132.077 266.684 132.474 266.926 132.984C267.167 133.49 267.288 134.083 267.288 134.762V135.466H262.113C262.127 136.345 262.346 137.015 262.77 137.476C263.193 137.936 263.79 138.166 264.561 138.166C265.035 138.166 265.454 138.123 265.818 138.036C266.183 137.95 266.561 137.822 266.953 137.653V138.651C266.575 138.82 266.199 138.943 265.825 139.021C265.456 139.098 265.019 139.137 264.513 139.137C263.793 139.137 263.164 138.991 262.626 138.699C262.093 138.403 261.678 137.97 261.382 137.4C261.086 136.831 260.938 136.133 260.938 135.309C260.938 134.502 261.072 133.805 261.341 133.217C261.614 132.624 261.997 132.169 262.489 131.85C262.986 131.531 263.569 131.371 264.239 131.371ZM264.226 132.301C263.619 132.301 263.136 132.499 262.776 132.896C262.416 133.292 262.202 133.846 262.134 134.557H266.099C266.094 134.11 266.023 133.718 265.887 133.381C265.755 133.039 265.552 132.775 265.278 132.588C265.005 132.396 264.654 132.301 264.226 132.301ZM274.062 136.949C274.062 137.428 273.942 137.831 273.7 138.159C273.463 138.483 273.121 138.727 272.675 138.891C272.233 139.055 271.704 139.137 271.089 139.137C270.565 139.137 270.111 139.096 269.729 139.014C269.346 138.932 269.011 138.815 268.724 138.665V137.619C269.029 137.77 269.394 137.906 269.817 138.029C270.241 138.152 270.674 138.214 271.116 138.214C271.763 138.214 272.233 138.109 272.524 137.899C272.816 137.69 272.962 137.405 272.962 137.045C272.962 136.84 272.903 136.66 272.784 136.505C272.67 136.345 272.477 136.193 272.203 136.047C271.93 135.896 271.551 135.732 271.068 135.555C270.59 135.372 270.175 135.192 269.824 135.015C269.478 134.832 269.209 134.611 269.018 134.352C268.831 134.092 268.737 133.755 268.737 133.34C268.737 132.706 268.993 132.221 269.503 131.884C270.018 131.542 270.692 131.371 271.526 131.371C271.978 131.371 272.399 131.417 272.791 131.508C273.188 131.594 273.557 131.713 273.898 131.863L273.516 132.772C273.206 132.64 272.875 132.529 272.524 132.438C272.174 132.346 271.816 132.301 271.451 132.301C270.927 132.301 270.524 132.387 270.241 132.561C269.963 132.734 269.824 132.971 269.824 133.271C269.824 133.504 269.888 133.695 270.016 133.846C270.148 133.996 270.357 134.137 270.645 134.27C270.932 134.402 271.31 134.557 271.779 134.734C272.249 134.908 272.654 135.088 272.996 135.274C273.338 135.457 273.6 135.68 273.782 135.944C273.969 136.204 274.062 136.539 274.062 136.949ZM278.889 139.137C278.214 139.137 277.619 138.998 277.104 138.72C276.59 138.442 276.188 138.018 275.901 137.448C275.614 136.879 275.471 136.161 275.471 135.295C275.471 134.388 275.621 133.647 275.922 133.073C276.227 132.494 276.646 132.066 277.18 131.788C277.713 131.51 278.319 131.371 278.998 131.371C279.372 131.371 279.732 131.41 280.078 131.487C280.429 131.56 280.716 131.654 280.939 131.768L280.598 132.718C280.37 132.627 280.105 132.545 279.805 132.472C279.508 132.399 279.23 132.362 278.971 132.362C278.451 132.362 278.018 132.474 277.672 132.697C277.33 132.921 277.073 133.249 276.899 133.682C276.731 134.115 276.646 134.648 276.646 135.281C276.646 135.887 276.729 136.405 276.893 136.833C277.061 137.261 277.31 137.59 277.638 137.817C277.97 138.041 278.385 138.152 278.882 138.152C279.278 138.152 279.636 138.111 279.955 138.029C280.274 137.943 280.563 137.842 280.823 137.729V138.74C280.573 138.868 280.292 138.966 279.982 139.034C279.677 139.103 279.312 139.137 278.889 139.137ZM286.005 131.371C286.155 131.371 286.312 131.38 286.477 131.398C286.641 131.412 286.786 131.433 286.914 131.46L286.771 132.513C286.647 132.481 286.511 132.456 286.36 132.438C286.21 132.419 286.069 132.41 285.937 132.41C285.636 132.41 285.351 132.472 285.082 132.595C284.818 132.713 284.585 132.886 284.385 133.114C284.184 133.338 284.027 133.609 283.913 133.928C283.799 134.242 283.742 134.593 283.742 134.98V139H282.601V131.508H283.544L283.667 132.889H283.715C283.87 132.611 284.057 132.358 284.275 132.13C284.494 131.897 284.747 131.713 285.034 131.576C285.326 131.439 285.649 131.371 286.005 131.371ZM289.464 131.508V139H288.329V131.508H289.464ZM288.91 128.705C289.097 128.705 289.257 128.767 289.389 128.89C289.525 129.008 289.594 129.195 289.594 129.45C289.594 129.701 289.525 129.888 289.389 130.011C289.257 130.134 289.097 130.195 288.91 130.195C288.714 130.195 288.55 130.134 288.418 130.011C288.29 129.888 288.227 129.701 288.227 129.45C288.227 129.195 288.29 129.008 288.418 128.89C288.55 128.767 288.714 128.705 288.91 128.705ZM295.391 131.371C296.325 131.371 297.07 131.692 297.626 132.335C298.182 132.978 298.46 133.944 298.46 135.233C298.46 136.086 298.332 136.801 298.077 137.38C297.822 137.959 297.462 138.396 296.997 138.692C296.537 138.989 295.992 139.137 295.363 139.137C294.967 139.137 294.618 139.084 294.317 138.979C294.017 138.875 293.759 138.733 293.545 138.556C293.331 138.378 293.153 138.184 293.012 137.975H292.93C292.943 138.152 292.959 138.367 292.978 138.617C293 138.868 293.012 139.087 293.012 139.273V142.35H291.87V131.508H292.807L292.957 132.615H293.012C293.158 132.387 293.335 132.18 293.545 131.993C293.755 131.802 294.01 131.651 294.311 131.542C294.616 131.428 294.976 131.371 295.391 131.371ZM295.192 132.328C294.673 132.328 294.254 132.428 293.935 132.629C293.62 132.829 293.39 133.13 293.244 133.531C293.098 133.928 293.021 134.427 293.012 135.028V135.247C293.012 135.881 293.08 136.416 293.217 136.854C293.358 137.291 293.588 137.624 293.907 137.852C294.231 138.079 294.664 138.193 295.206 138.193C295.671 138.193 296.058 138.068 296.368 137.817C296.678 137.567 296.908 137.218 297.059 136.771C297.214 136.32 297.291 135.803 297.291 135.22C297.291 134.336 297.118 133.634 296.771 133.114C296.43 132.59 295.903 132.328 295.192 132.328ZM303.443 139.137C302.769 139.137 302.174 138.998 301.659 138.72C301.144 138.442 300.743 138.018 300.456 137.448C300.169 136.879 300.025 136.161 300.025 135.295C300.025 134.388 300.176 133.647 300.477 133.073C300.782 132.494 301.201 132.066 301.734 131.788C302.268 131.51 302.874 131.371 303.553 131.371C303.926 131.371 304.286 131.41 304.633 131.487C304.984 131.56 305.271 131.654 305.494 131.768L305.152 132.718C304.924 132.627 304.66 132.545 304.359 132.472C304.063 132.399 303.785 132.362 303.525 132.362C303.006 132.362 302.573 132.474 302.227 132.697C301.885 132.921 301.627 133.249 301.454 133.682C301.285 134.115 301.201 134.648 301.201 135.281C301.201 135.887 301.283 136.405 301.447 136.833C301.616 137.261 301.864 137.59 302.192 137.817C302.525 138.041 302.94 138.152 303.437 138.152C303.833 138.152 304.191 138.111 304.51 138.029C304.829 137.943 305.118 137.842 305.378 137.729V138.74C305.127 138.868 304.847 138.966 304.537 139.034C304.232 139.103 303.867 139.137 303.443 139.137ZM308.29 131.508V139H307.155V131.508H308.29ZM307.736 128.705C307.923 128.705 308.083 128.767 308.215 128.89C308.352 129.008 308.42 129.195 308.42 129.45C308.42 129.701 308.352 129.888 308.215 130.011C308.083 130.134 307.923 130.195 307.736 130.195C307.54 130.195 307.376 130.134 307.244 130.011C307.117 129.888 307.053 129.701 307.053 129.45C307.053 129.195 307.117 129.008 307.244 128.89C307.376 128.767 307.54 128.705 307.736 128.705ZM317.156 135.24C317.156 135.855 317.076 136.405 316.917 136.888C316.757 137.371 316.527 137.779 316.227 138.111C315.926 138.444 315.561 138.699 315.133 138.877C314.709 139.05 314.228 139.137 313.69 139.137C313.189 139.137 312.729 139.05 312.31 138.877C311.895 138.699 311.535 138.444 311.229 138.111C310.929 137.779 310.694 137.371 310.525 136.888C310.361 136.405 310.279 135.855 310.279 135.24C310.279 134.42 310.418 133.723 310.696 133.148C310.974 132.57 311.371 132.13 311.886 131.829C312.405 131.524 313.023 131.371 313.738 131.371C314.422 131.371 315.019 131.524 315.529 131.829C316.044 132.134 316.443 132.576 316.726 133.155C317.013 133.729 317.156 134.424 317.156 135.24ZM311.455 135.24C311.455 135.842 311.535 136.364 311.694 136.806C311.854 137.248 312.1 137.59 312.433 137.831C312.765 138.073 313.194 138.193 313.718 138.193C314.237 138.193 314.663 138.073 314.996 137.831C315.333 137.59 315.582 137.248 315.741 136.806C315.901 136.364 315.98 135.842 315.98 135.24C315.98 134.643 315.901 134.128 315.741 133.695C315.582 133.258 315.336 132.921 315.003 132.684C314.67 132.447 314.24 132.328 313.711 132.328C312.932 132.328 312.36 132.586 311.995 133.101C311.635 133.616 311.455 134.329 311.455 135.24ZM315.7 128.274V128.411C315.609 128.543 315.484 128.703 315.324 128.89C315.169 129.072 314.996 129.266 314.805 129.471C314.613 129.671 314.42 129.863 314.224 130.045C314.032 130.227 313.854 130.384 313.69 130.517H312.932V130.353C313.077 130.179 313.237 129.972 313.41 129.73C313.583 129.484 313.752 129.234 313.916 128.979C314.08 128.719 314.217 128.484 314.326 128.274H315.7ZM322.666 131.371C323.555 131.371 324.227 131.59 324.683 132.027C325.138 132.46 325.366 133.158 325.366 134.119V139H324.245V134.194C324.245 133.57 324.102 133.103 323.814 132.793C323.532 132.483 323.097 132.328 322.509 132.328C321.679 132.328 321.096 132.563 320.759 133.032C320.422 133.502 320.253 134.183 320.253 135.076V139H319.118V131.508H320.034L320.205 132.588H320.267C320.426 132.324 320.629 132.103 320.875 131.925C321.121 131.743 321.397 131.606 321.702 131.515C322.007 131.419 322.329 131.371 322.666 131.371ZM330.705 135.165C330.705 134.395 330.778 133.645 330.924 132.916C331.074 132.187 331.302 131.492 331.607 130.831C331.913 130.17 332.298 129.562 332.763 129.006H333.85C333.189 129.872 332.692 130.833 332.359 131.891C332.027 132.948 331.86 134.035 331.86 135.151C331.86 135.881 331.933 136.601 332.079 137.312C332.229 138.018 332.451 138.699 332.742 139.355C333.038 140.012 333.403 140.632 333.836 141.215H332.763C332.298 140.668 331.913 140.071 331.607 139.424C331.302 138.781 331.074 138.1 330.924 137.38C330.778 136.66 330.705 135.922 330.705 135.165ZM341.93 135.24C341.93 135.855 341.85 136.405 341.69 136.888C341.531 137.371 341.301 137.779 341 138.111C340.699 138.444 340.335 138.699 339.906 138.877C339.482 139.05 339.002 139.137 338.464 139.137C337.963 139.137 337.502 139.05 337.083 138.877C336.668 138.699 336.308 138.444 336.003 138.111C335.702 137.779 335.467 137.371 335.299 136.888C335.135 136.405 335.053 135.855 335.053 135.24C335.053 134.42 335.192 133.723 335.47 133.148C335.748 132.57 336.144 132.13 336.659 131.829C337.179 131.524 337.796 131.371 338.512 131.371C339.195 131.371 339.792 131.524 340.303 131.829C340.818 132.134 341.216 132.576 341.499 133.155C341.786 133.729 341.93 134.424 341.93 135.24ZM336.229 135.24C336.229 135.842 336.308 136.364 336.468 136.806C336.627 137.248 336.873 137.59 337.206 137.831C337.539 138.073 337.967 138.193 338.491 138.193C339.011 138.193 339.437 138.073 339.77 137.831C340.107 137.59 340.355 137.248 340.515 136.806C340.674 136.364 340.754 135.842 340.754 135.24C340.754 134.643 340.674 134.128 340.515 133.695C340.355 133.258 340.109 132.921 339.776 132.684C339.444 132.447 339.013 132.328 338.484 132.328C337.705 132.328 337.133 132.586 336.769 133.101C336.409 133.616 336.229 134.329 336.229 135.24ZM347.412 131.371C348.346 131.371 349.091 131.692 349.647 132.335C350.203 132.978 350.481 133.944 350.481 135.233C350.481 136.086 350.354 136.801 350.099 137.38C349.843 137.959 349.483 138.396 349.019 138.692C348.558 138.989 348.014 139.137 347.385 139.137C346.988 139.137 346.64 139.084 346.339 138.979C346.038 138.875 345.781 138.733 345.566 138.556C345.352 138.378 345.174 138.184 345.033 137.975H344.951C344.965 138.152 344.981 138.367 344.999 138.617C345.022 138.868 345.033 139.087 345.033 139.273V142.35H343.892V131.508H344.828L344.979 132.615H345.033C345.179 132.387 345.357 132.18 345.566 131.993C345.776 131.802 346.031 131.651 346.332 131.542C346.637 131.428 346.997 131.371 347.412 131.371ZM347.214 132.328C346.694 132.328 346.275 132.428 345.956 132.629C345.642 132.829 345.411 133.13 345.266 133.531C345.12 133.928 345.042 134.427 345.033 135.028V135.247C345.033 135.881 345.102 136.416 345.238 136.854C345.38 137.291 345.61 137.624 345.929 137.852C346.252 138.079 346.685 138.193 347.228 138.193C347.692 138.193 348.08 138.068 348.39 137.817C348.7 137.567 348.93 137.218 349.08 136.771C349.235 136.32 349.312 135.803 349.312 135.22C349.312 134.336 349.139 133.634 348.793 133.114C348.451 132.59 347.925 132.328 347.214 132.328ZM355.465 139.137C354.79 139.137 354.196 138.998 353.681 138.72C353.166 138.442 352.765 138.018 352.478 137.448C352.19 136.879 352.047 136.161 352.047 135.295C352.047 134.388 352.197 133.647 352.498 133.073C352.803 132.494 353.223 132.066 353.756 131.788C354.289 131.51 354.895 131.371 355.574 131.371C355.948 131.371 356.308 131.41 356.654 131.487C357.005 131.56 357.292 131.654 357.516 131.768L357.174 132.718C356.946 132.627 356.682 132.545 356.381 132.472C356.085 132.399 355.807 132.362 355.547 132.362C355.027 132.362 354.594 132.474 354.248 132.697C353.906 132.921 353.649 133.249 353.476 133.682C353.307 134.115 353.223 134.648 353.223 135.281C353.223 135.887 353.305 136.405 353.469 136.833C353.637 137.261 353.886 137.59 354.214 137.817C354.547 138.041 354.961 138.152 355.458 138.152C355.854 138.152 356.212 138.111 356.531 138.029C356.85 137.943 357.14 137.842 357.399 137.729V138.74C357.149 138.868 356.868 138.966 356.559 139.034C356.253 139.103 355.889 139.137 355.465 139.137ZM360.312 131.508V139H359.177V131.508H360.312ZM359.758 128.705C359.945 128.705 360.104 128.767 360.236 128.89C360.373 129.008 360.441 129.195 360.441 129.45C360.441 129.701 360.373 129.888 360.236 130.011C360.104 130.134 359.945 130.195 359.758 130.195C359.562 130.195 359.398 130.134 359.266 130.011C359.138 129.888 359.074 129.701 359.074 129.45C359.074 129.195 359.138 129.008 359.266 128.89C359.398 128.767 359.562 128.705 359.758 128.705ZM369.178 135.24C369.178 135.855 369.098 136.405 368.938 136.888C368.779 137.371 368.549 137.779 368.248 138.111C367.947 138.444 367.583 138.699 367.154 138.877C366.73 139.05 366.25 139.137 365.712 139.137C365.211 139.137 364.75 139.05 364.331 138.877C363.916 138.699 363.556 138.444 363.251 138.111C362.95 137.779 362.715 137.371 362.547 136.888C362.383 136.405 362.301 135.855 362.301 135.24C362.301 134.42 362.44 133.723 362.718 133.148C362.996 132.57 363.392 132.13 363.907 131.829C364.427 131.524 365.044 131.371 365.76 131.371C366.443 131.371 367.04 131.524 367.551 131.829C368.066 132.134 368.465 132.576 368.747 133.155C369.034 133.729 369.178 134.424 369.178 135.24ZM363.477 135.24C363.477 135.842 363.556 136.364 363.716 136.806C363.875 137.248 364.121 137.59 364.454 137.831C364.787 138.073 365.215 138.193 365.739 138.193C366.259 138.193 366.685 138.073 367.018 137.831C367.355 137.59 367.603 137.248 367.763 136.806C367.922 136.364 368.002 135.842 368.002 135.24C368.002 134.643 367.922 134.128 367.763 133.695C367.603 133.258 367.357 132.921 367.024 132.684C366.692 132.447 366.261 132.328 365.732 132.328C364.953 132.328 364.381 132.586 364.017 133.101C363.657 133.616 363.477 134.329 363.477 135.24ZM374.688 131.371C375.576 131.371 376.248 131.59 376.704 132.027C377.16 132.46 377.388 133.158 377.388 134.119V139H376.267V134.194C376.267 133.57 376.123 133.103 375.836 132.793C375.553 132.483 375.118 132.328 374.53 132.328C373.701 132.328 373.118 132.563 372.78 133.032C372.443 133.502 372.274 134.183 372.274 135.076V139H371.14V131.508H372.056L372.227 132.588H372.288C372.448 132.324 372.65 132.103 372.896 131.925C373.143 131.743 373.418 131.606 373.724 131.515C374.029 131.419 374.35 131.371 374.688 131.371ZM382.528 131.385C383.422 131.385 384.085 131.585 384.518 131.986C384.951 132.387 385.167 133.028 385.167 133.907V139H384.34L384.121 137.893H384.066C383.857 138.166 383.638 138.396 383.41 138.583C383.182 138.765 382.918 138.904 382.617 139C382.321 139.091 381.956 139.137 381.523 139.137C381.068 139.137 380.662 139.057 380.307 138.897C379.956 138.738 379.678 138.496 379.473 138.173C379.272 137.849 379.172 137.439 379.172 136.942C379.172 136.195 379.468 135.621 380.061 135.22C380.653 134.819 381.555 134.6 382.768 134.563L384.06 134.509V134.051C384.06 133.404 383.921 132.95 383.643 132.69C383.365 132.431 382.973 132.301 382.467 132.301C382.075 132.301 381.701 132.358 381.346 132.472C380.99 132.586 380.653 132.72 380.334 132.875L379.985 132.014C380.323 131.84 380.71 131.692 381.147 131.569C381.585 131.446 382.045 131.385 382.528 131.385ZM384.046 135.309L382.904 135.356C381.97 135.393 381.312 135.546 380.929 135.814C380.546 136.083 380.354 136.464 380.354 136.956C380.354 137.384 380.484 137.701 380.744 137.906C381.004 138.111 381.348 138.214 381.776 138.214C382.442 138.214 382.986 138.029 383.41 137.66C383.834 137.291 384.046 136.737 384.046 135.999V135.309ZM388.646 139H387.505V128.363H388.646V139ZM393.418 135.151C393.418 135.912 393.343 136.655 393.192 137.38C393.047 138.1 392.821 138.784 392.516 139.431C392.215 140.078 391.83 140.673 391.36 141.215H390.287C390.725 140.636 391.089 140.016 391.381 139.355C391.677 138.695 391.898 138.011 392.044 137.305C392.194 136.594 392.27 135.874 392.27 135.145C392.27 134.402 392.194 133.67 392.044 132.95C391.894 132.23 391.67 131.537 391.374 130.872C391.082 130.207 390.715 129.585 390.273 129.006H391.36C391.83 129.566 392.215 130.177 392.516 130.838C392.821 131.494 393.047 132.187 393.192 132.916C393.343 133.641 393.418 134.386 393.418 135.151Z" fill="#38485C"/>
<path d="M499 104.711C498.61 105.101 498.61 105.731 499 106.121L502.88 110.001L499 113.881C498.61 114.271 498.61 114.901 499 115.291C499.39 115.681 500.02 115.681 500.41 115.291L505 110.701C505.39 110.311 505.39 109.681 505 109.291L500.41 104.701C500.03 104.321 499.39 104.321 499 104.711Z" fill="#101E37"/>
<rect x="127.5" y="109.5" width="18" height="25" rx="8.5" fill="#F3F6F9"/>
<rect x="127.5" y="109.5" width="18" height="25" rx="8.5" stroke="#38485C"/>
<path d="M136.915 127H135.808V119.918C135.808 119.649 135.808 119.419 135.808 119.228C135.812 119.032 135.817 118.854 135.821 118.694C135.83 118.53 135.842 118.364 135.855 118.195C135.714 118.341 135.582 118.466 135.459 118.571C135.336 118.672 135.183 118.797 135.001 118.947L133.859 119.863L133.265 119.091L135.972 117.006H136.915V127Z" fill="#101E37"/>
<path d="M203.653 122C203.653 123.296 204.704 124.347 206 124.347C207.296 124.347 208.347 123.296 208.347 122C208.347 120.704 207.296 119.653 206 119.653C204.704 119.653 203.653 120.704 203.653 122ZM151 121.56C150.757 121.56 150.56 121.757 150.56 122C150.56 122.243 150.757 122.44 151 122.44L151 122L151 121.56ZM206 122L206 121.56L178.5 121.56L178.5 122L178.5 122.44L206 122.44L206 122ZM178.5 122L178.5 121.56L151 121.56L151 122L151 122.44L178.5 122.44L178.5 122Z" fill="#080F1C"/>
<path d="M264.5 152.347C265.796 152.347 266.847 151.296 266.847 150C266.847 148.704 265.796 147.653 264.5 147.653C263.204 147.653 262.153 148.704 262.153 150C262.153 151.296 263.204 152.347 264.5 152.347ZM264.06 190C264.06 190.243 264.257 190.44 264.5 190.44C264.743 190.44 264.94 190.243 264.94 190L264.5 190L264.06 190ZM264.5 150L264.06 150L264.06 170L264.5 170L264.94 170L264.94 150L264.5 150ZM264.5 170L264.06 170L264.06 190L264.5 190L264.94 190L264.94 170L264.5 170Z" fill="#080F1C"/>
<rect x="255.5" y="195.5" width="18" height="25" rx="8.5" fill="#F3F6F9"/>
<rect x="255.5" y="195.5" width="18" height="25" rx="8.5" stroke="#38485C"/>
<path d="M266.87 205.337C266.87 205.784 266.784 206.171 266.61 206.499C266.437 206.827 266.196 207.096 265.886 207.306C265.576 207.511 265.211 207.654 264.792 207.736V207.791C265.585 207.891 266.18 208.146 266.576 208.557C266.977 208.967 267.178 209.505 267.178 210.17C267.178 210.749 267.041 211.261 266.768 211.708C266.499 212.155 266.084 212.506 265.523 212.761C264.967 213.011 264.254 213.137 263.384 213.137C262.855 213.137 262.365 213.093 261.914 213.007C261.467 212.925 261.039 212.786 260.629 212.59V211.523C261.044 211.729 261.495 211.89 261.982 212.009C262.47 212.123 262.942 212.18 263.397 212.18C264.309 212.18 264.967 212 265.373 211.64C265.779 211.275 265.981 210.778 265.981 210.149C265.981 209.716 265.868 209.368 265.64 209.104C265.416 208.835 265.093 208.639 264.669 208.516C264.25 208.388 263.744 208.324 263.151 208.324H262.153V207.354H263.158C263.701 207.354 264.161 207.274 264.539 207.114C264.917 206.955 265.204 206.731 265.4 206.444C265.601 206.153 265.701 205.809 265.701 205.412C265.701 204.906 265.533 204.517 265.195 204.243C264.858 203.965 264.4 203.826 263.821 203.826C263.466 203.826 263.142 203.863 262.851 203.936C262.559 204.008 262.285 204.109 262.03 204.236C261.775 204.364 261.52 204.512 261.265 204.681L260.69 203.901C261.055 203.619 261.499 203.375 262.023 203.17C262.548 202.965 263.142 202.862 263.808 202.862C264.828 202.862 265.594 203.095 266.104 203.56C266.615 204.024 266.87 204.617 266.87 205.337Z" fill="#101E37"/>
<rect x="255.5" y="28.5" width="18" height="25" rx="8.5" fill="#F3F6F9"/>
<rect x="255.5" y="28.5" width="18" height="25" rx="8.5" stroke="#38485C"/>
<path d="M267.239 46H260.69V45.0498L263.363 42.3359C263.86 41.8346 264.277 41.388 264.614 40.9961C264.956 40.6042 265.216 40.2191 265.394 39.8408C265.571 39.458 265.66 39.0387 265.66 38.583C265.66 38.0179 265.492 37.5872 265.154 37.291C264.822 36.9902 264.382 36.8398 263.835 36.8398C263.356 36.8398 262.933 36.9219 262.563 37.0859C262.194 37.25 261.816 37.4824 261.429 37.7832L260.82 37.0176C261.085 36.7943 261.372 36.596 261.682 36.4229C261.996 36.2497 262.331 36.113 262.687 36.0127C263.047 35.9124 263.429 35.8623 263.835 35.8623C264.45 35.8623 264.981 35.9694 265.428 36.1836C265.874 36.3978 266.218 36.7031 266.46 37.0996C266.706 37.4961 266.829 37.9678 266.829 38.5146C266.829 39.0433 266.724 39.5355 266.515 39.9912C266.305 40.4424 266.011 40.8913 265.633 41.3379C265.255 41.7799 264.812 42.2493 264.307 42.7461L262.133 44.9131V44.9609H267.239V46Z" fill="#101E37"/>
<path d="M264.5 80.6533C263.204 80.6533 262.153 81.704 262.153 83C262.153 84.296 263.204 85.3467 264.5 85.3467C265.796 85.3467 266.847 84.296 266.847 83C266.847 81.704 265.796 80.6533 264.5 80.6533ZM264.94 59C264.94 58.757 264.743 58.56 264.5 58.56C264.257 58.56 264.06 58.757 264.06 59L264.5 59L264.94 59ZM264.5 83L264.94 83L264.94 71L264.5 71L264.06 71L264.06 83L264.5 83ZM264.5 71L264.94 71L264.94 59L264.5 59L264.06 59L264.06 71L264.5 71Z" fill="#080F1C"/>
<path d="M517.347 110C517.347 108.704 516.296 107.653 515 107.653C513.704 107.653 512.653 108.704 512.653 110C512.653 111.296 513.704 112.347 515 112.347C516.296 112.347 517.347 111.296 517.347 110ZM566 110.44C566.243 110.44 566.44 110.243 566.44 110C566.44 109.757 566.243 109.56 566 109.56L566 110L566 110.44ZM515 110L515 110.44L540.5 110.44L540.5 110L540.5 109.56L515 109.56L515 110ZM540.5 110L540.5 110.44L566 110.44L566 110L566 109.56L540.5 109.56L540.5 110Z" fill="#080F1C"/>
<rect x="571.5" y="97.5" width="18" height="25" rx="8.5" fill="#F3F6F9"/>
<rect x="571.5" y="97.5" width="18" height="25" rx="8.5" stroke="#38485C"/>
<path d="M583.738 112.683H582.241V115H581.134V112.683H576.301V111.726L581.059 104.951H582.241V111.657H583.738V112.683ZM581.134 111.657V108.39C581.134 108.139 581.136 107.913 581.141 107.713C581.145 107.508 581.152 107.319 581.161 107.146C581.17 106.968 581.177 106.799 581.182 106.64C581.191 106.48 581.198 106.323 581.202 106.168H581.147C581.061 106.35 580.961 106.544 580.847 106.749C580.737 106.95 580.626 107.13 580.512 107.289L577.429 111.657H581.134Z" fill="#101E37"/>
</svg>
