<svg width="728" height="222" viewBox="0 0 728 222" fill="none" xmlns="http://www.w3.org/2000/svg">
<rect x="1" y="1" width="726" height="220" rx="7" fill="#F3F6F9"/>
<rect x="1" y="1" width="726" height="220" rx="7" stroke="#E6EBF0" stroke-width="2"/>
<path d="M530 63C534.971 63 539 67.0294 539 72V150C539 154.971 534.971 159 530 159H198C193.029 159 189 154.971 189 150V72C189 67.0294 193.029 63 198 63H530Z" fill="white"/>
<path d="M530 63C534.971 63 539 67.0294 539 72V150C539 154.971 534.971 159 530 159H198C193.029 159 189 154.971 189 150V72C189 67.0294 193.029 63 198 63H530Z" stroke="#E6EBF0" stroke-width="2"/>
<path d="M222.727 106L221.32 102.375H216.742L215.344 106H214L218.469 94.5312H219.664L224.102 106H222.727ZM220.922 101.195L219.586 97.5938C219.555 97.5 219.503 97.3464 219.43 97.1328C219.362 96.9193 219.292 96.6979 219.219 96.4688C219.146 96.2396 219.086 96.0547 219.039 95.9141C218.987 96.1276 218.93 96.3411 218.867 96.5547C218.81 96.763 218.753 96.9583 218.695 97.1406C218.638 97.3177 218.589 97.4688 218.547 97.5938L217.188 101.195H220.922ZM228.922 106.156C228.151 106.156 227.471 105.997 226.883 105.68C226.294 105.362 225.836 104.878 225.508 104.227C225.18 103.576 225.016 102.755 225.016 101.766C225.016 100.729 225.188 99.8828 225.531 99.2266C225.88 98.5651 226.359 98.0755 226.969 97.7578C227.578 97.4401 228.271 97.2812 229.047 97.2812C229.474 97.2812 229.885 97.3255 230.281 97.4141C230.682 97.4974 231.01 97.6042 231.266 97.7344L230.875 98.8203C230.615 98.7161 230.312 98.6224 229.969 98.5391C229.63 98.4557 229.312 98.4141 229.016 98.4141C228.422 98.4141 227.927 98.5417 227.531 98.7969C227.141 99.0521 226.846 99.4271 226.648 99.9219C226.456 100.417 226.359 101.026 226.359 101.75C226.359 102.443 226.453 103.034 226.641 103.523C226.833 104.013 227.117 104.388 227.492 104.648C227.872 104.904 228.346 105.031 228.914 105.031C229.367 105.031 229.776 104.984 230.141 104.891C230.505 104.792 230.836 104.677 231.133 104.547V105.703C230.846 105.849 230.526 105.961 230.172 106.039C229.823 106.117 229.406 106.156 228.922 106.156ZM236.594 106.156C235.823 106.156 235.143 105.997 234.555 105.68C233.966 105.362 233.508 104.878 233.18 104.227C232.852 103.576 232.688 102.755 232.688 101.766C232.688 100.729 232.859 99.8828 233.203 99.2266C233.552 98.5651 234.031 98.0755 234.641 97.7578C235.25 97.4401 235.943 97.2812 236.719 97.2812C237.146 97.2812 237.557 97.3255 237.953 97.4141C238.354 97.4974 238.682 97.6042 238.938 97.7344L238.547 98.8203C238.286 98.7161 237.984 98.6224 237.641 98.5391C237.302 98.4557 236.984 98.4141 236.688 98.4141C236.094 98.4141 235.599 98.5417 235.203 98.7969C234.812 99.0521 234.518 99.4271 234.32 99.9219C234.128 100.417 234.031 101.026 234.031 101.75C234.031 102.443 234.125 103.034 234.312 103.523C234.505 104.013 234.789 104.388 235.164 104.648C235.544 104.904 236.018 105.031 236.586 105.031C237.039 105.031 237.448 104.984 237.812 104.891C238.177 104.792 238.508 104.677 238.805 104.547V105.703C238.518 105.849 238.198 105.961 237.844 106.039C237.495 106.117 237.078 106.156 236.594 106.156ZM244.133 97.2812C244.862 97.2812 245.487 97.4427 246.008 97.7656C246.529 98.0885 246.927 98.5417 247.203 99.125C247.479 99.7031 247.617 100.38 247.617 101.156V101.961H241.703C241.719 102.966 241.969 103.732 242.453 104.258C242.938 104.784 243.62 105.047 244.5 105.047C245.042 105.047 245.521 104.997 245.938 104.898C246.354 104.799 246.786 104.654 247.234 104.461V105.602C246.802 105.794 246.372 105.935 245.945 106.023C245.523 106.112 245.023 106.156 244.445 106.156C243.622 106.156 242.904 105.99 242.289 105.656C241.68 105.318 241.206 104.823 240.867 104.172C240.529 103.521 240.359 102.724 240.359 101.781C240.359 100.859 240.513 100.062 240.82 99.3906C241.133 98.7135 241.57 98.1927 242.133 97.8281C242.701 97.4635 243.367 97.2812 244.133 97.2812ZM244.117 98.3438C243.424 98.3438 242.872 98.5703 242.461 99.0234C242.049 99.4766 241.805 100.109 241.727 100.922H246.258C246.253 100.411 246.172 99.9635 246.016 99.5781C245.865 99.1875 245.633 98.8854 245.32 98.6719C245.008 98.4531 244.607 98.3438 244.117 98.3438ZM255.359 103.656C255.359 104.203 255.221 104.664 254.945 105.039C254.674 105.409 254.284 105.688 253.773 105.875C253.268 106.062 252.664 106.156 251.961 106.156C251.362 106.156 250.844 106.109 250.406 106.016C249.969 105.922 249.586 105.789 249.258 105.617V104.422C249.607 104.594 250.023 104.75 250.508 104.891C250.992 105.031 251.487 105.102 251.992 105.102C252.732 105.102 253.268 104.982 253.602 104.742C253.935 104.503 254.102 104.177 254.102 103.766C254.102 103.531 254.034 103.326 253.898 103.148C253.768 102.966 253.547 102.792 253.234 102.625C252.922 102.453 252.49 102.266 251.938 102.062C251.391 101.854 250.917 101.648 250.516 101.445C250.12 101.237 249.812 100.984 249.594 100.688C249.38 100.391 249.273 100.005 249.273 99.5312C249.273 98.8073 249.565 98.2526 250.148 97.8672C250.737 97.4766 251.508 97.2812 252.461 97.2812C252.977 97.2812 253.458 97.3333 253.906 97.4375C254.359 97.5365 254.781 97.6719 255.172 97.8438L254.734 98.8828C254.38 98.7318 254.003 98.6042 253.602 98.5C253.201 98.3958 252.792 98.3438 252.375 98.3438C251.776 98.3438 251.315 98.4427 250.992 98.6406C250.674 98.8385 250.516 99.1094 250.516 99.4531C250.516 99.7188 250.589 99.9375 250.734 100.109C250.885 100.281 251.125 100.443 251.453 100.594C251.781 100.745 252.214 100.922 252.75 101.125C253.286 101.323 253.75 101.529 254.141 101.742C254.531 101.951 254.831 102.206 255.039 102.508C255.253 102.805 255.359 103.188 255.359 103.656ZM264.828 101.703C264.828 102.406 264.737 103.034 264.555 103.586C264.372 104.138 264.109 104.604 263.766 104.984C263.422 105.365 263.005 105.656 262.516 105.859C262.031 106.057 261.482 106.156 260.867 106.156C260.294 106.156 259.768 106.057 259.289 105.859C258.815 105.656 258.404 105.365 258.055 104.984C257.711 104.604 257.443 104.138 257.25 103.586C257.062 103.034 256.969 102.406 256.969 101.703C256.969 100.766 257.128 99.9688 257.445 99.3125C257.763 98.651 258.216 98.1484 258.805 97.8047C259.398 97.4557 260.104 97.2812 260.922 97.2812C261.703 97.2812 262.385 97.4557 262.969 97.8047C263.557 98.1536 264.013 98.6589 264.336 99.3203C264.664 99.9766 264.828 100.771 264.828 101.703ZM258.312 101.703C258.312 102.391 258.404 102.987 258.586 103.492C258.768 103.997 259.049 104.388 259.43 104.664C259.81 104.94 260.299 105.078 260.898 105.078C261.492 105.078 261.979 104.94 262.359 104.664C262.745 104.388 263.029 103.997 263.211 103.492C263.393 102.987 263.484 102.391 263.484 101.703C263.484 101.021 263.393 100.432 263.211 99.9375C263.029 99.4375 262.747 99.0521 262.367 98.7812C261.987 98.5104 261.495 98.375 260.891 98.375C260 98.375 259.346 98.6693 258.93 99.2578C258.518 99.8464 258.312 100.661 258.312 101.703Z" fill="#101E37"/>
<path d="M220.932 129H215.367V119.006H220.932V120.031H216.529V123.265H220.679V124.276H216.529V127.975H220.932V129ZM227.822 126.949C227.822 127.428 227.701 127.831 227.46 128.159C227.223 128.483 226.881 128.727 226.435 128.891C225.993 129.055 225.464 129.137 224.849 129.137C224.325 129.137 223.871 129.096 223.488 129.014C223.105 128.932 222.771 128.815 222.483 128.665V127.619C222.789 127.77 223.153 127.906 223.577 128.029C224.001 128.152 224.434 128.214 224.876 128.214C225.523 128.214 225.993 128.109 226.284 127.899C226.576 127.69 226.722 127.405 226.722 127.045C226.722 126.84 226.662 126.66 226.544 126.505C226.43 126.345 226.236 126.193 225.963 126.047C225.689 125.896 225.311 125.732 224.828 125.555C224.35 125.372 223.935 125.192 223.584 125.015C223.238 124.832 222.969 124.611 222.777 124.352C222.59 124.092 222.497 123.755 222.497 123.34C222.497 122.706 222.752 122.221 223.263 121.884C223.778 121.542 224.452 121.371 225.286 121.371C225.737 121.371 226.159 121.417 226.551 121.508C226.947 121.594 227.316 121.713 227.658 121.863L227.275 122.772C226.965 122.64 226.635 122.529 226.284 122.438C225.933 122.346 225.576 122.301 225.211 122.301C224.687 122.301 224.284 122.387 224.001 122.561C223.723 122.734 223.584 122.971 223.584 123.271C223.584 123.504 223.648 123.695 223.775 123.846C223.908 123.996 224.117 124.137 224.404 124.27C224.691 124.402 225.07 124.557 225.539 124.734C226.008 124.908 226.414 125.088 226.756 125.274C227.098 125.457 227.36 125.68 227.542 125.944C227.729 126.204 227.822 126.539 227.822 126.949ZM232.067 128.207C232.254 128.207 232.446 128.191 232.642 128.159C232.838 128.127 232.997 128.089 233.12 128.043V128.925C232.988 128.984 232.803 129.034 232.566 129.075C232.334 129.116 232.106 129.137 231.883 129.137C231.486 129.137 231.126 129.068 230.803 128.932C230.479 128.79 230.219 128.553 230.023 128.221C229.832 127.888 229.736 127.428 229.736 126.84V122.396H228.67V121.843L229.743 121.398L230.194 119.771H230.878V121.508H233.072V122.396H230.878V126.806C230.878 127.275 230.985 127.626 231.199 127.858C231.418 128.091 231.707 128.207 232.067 128.207ZM237.44 121.385C238.334 121.385 238.997 121.585 239.43 121.986C239.863 122.387 240.079 123.028 240.079 123.907V129H239.252L239.033 127.893H238.979C238.769 128.166 238.55 128.396 238.322 128.583C238.094 128.765 237.83 128.904 237.529 129C237.233 129.091 236.868 129.137 236.436 129.137C235.98 129.137 235.574 129.057 235.219 128.897C234.868 128.738 234.59 128.496 234.385 128.173C234.184 127.849 234.084 127.439 234.084 126.942C234.084 126.195 234.38 125.621 234.973 125.22C235.565 124.819 236.467 124.6 237.68 124.563L238.972 124.509V124.051C238.972 123.404 238.833 122.95 238.555 122.69C238.277 122.431 237.885 122.301 237.379 122.301C236.987 122.301 236.613 122.358 236.258 122.472C235.902 122.586 235.565 122.72 235.246 122.875L234.897 122.014C235.235 121.84 235.622 121.692 236.06 121.569C236.497 121.446 236.957 121.385 237.44 121.385ZM238.958 125.309L237.816 125.356C236.882 125.393 236.224 125.546 235.841 125.814C235.458 126.083 235.267 126.464 235.267 126.956C235.267 127.384 235.396 127.701 235.656 127.906C235.916 128.111 236.26 128.214 236.688 128.214C237.354 128.214 237.898 128.029 238.322 127.66C238.746 127.291 238.958 126.737 238.958 125.999V125.309ZM248.938 121.371C249.576 121.371 250.123 121.512 250.579 121.795C251.035 122.077 251.383 122.474 251.625 122.984C251.867 123.49 251.987 124.083 251.987 124.762V125.466H246.812C246.826 126.345 247.045 127.015 247.469 127.476C247.893 127.936 248.49 128.166 249.26 128.166C249.734 128.166 250.153 128.123 250.518 128.036C250.882 127.95 251.26 127.822 251.652 127.653V128.651C251.274 128.82 250.898 128.943 250.524 129.021C250.155 129.098 249.718 129.137 249.212 129.137C248.492 129.137 247.863 128.991 247.325 128.699C246.792 128.403 246.377 127.97 246.081 127.4C245.785 126.831 245.637 126.133 245.637 125.309C245.637 124.502 245.771 123.805 246.04 123.217C246.313 122.624 246.696 122.169 247.188 121.85C247.685 121.531 248.269 121.371 248.938 121.371ZM248.925 122.301C248.319 122.301 247.836 122.499 247.476 122.896C247.116 123.292 246.901 123.846 246.833 124.557H250.798C250.793 124.11 250.723 123.718 250.586 123.381C250.454 123.039 250.251 122.775 249.978 122.588C249.704 122.396 249.353 122.301 248.925 122.301ZM258.762 126.949C258.762 127.428 258.641 127.831 258.399 128.159C258.162 128.483 257.821 128.727 257.374 128.891C256.932 129.055 256.403 129.137 255.788 129.137C255.264 129.137 254.811 129.096 254.428 129.014C254.045 128.932 253.71 128.815 253.423 128.665V127.619C253.728 127.77 254.093 127.906 254.517 128.029C254.94 128.152 255.373 128.214 255.815 128.214C256.463 128.214 256.932 128.109 257.224 127.899C257.515 127.69 257.661 127.405 257.661 127.045C257.661 126.84 257.602 126.66 257.483 126.505C257.369 126.345 257.176 126.193 256.902 126.047C256.629 125.896 256.251 125.732 255.768 125.555C255.289 125.372 254.874 125.192 254.523 125.015C254.177 124.832 253.908 124.611 253.717 124.352C253.53 124.092 253.437 123.755 253.437 123.34C253.437 122.706 253.692 122.221 254.202 121.884C254.717 121.542 255.392 121.371 256.226 121.371C256.677 121.371 257.098 121.417 257.49 121.508C257.887 121.594 258.256 121.713 258.598 121.863L258.215 122.772C257.905 122.64 257.575 122.529 257.224 122.438C256.873 122.346 256.515 122.301 256.15 122.301C255.626 122.301 255.223 122.387 254.94 122.561C254.662 122.734 254.523 122.971 254.523 123.271C254.523 123.504 254.587 123.695 254.715 123.846C254.847 123.996 255.057 124.137 255.344 124.27C255.631 124.402 256.009 124.557 256.479 124.734C256.948 124.908 257.354 125.088 257.695 125.274C258.037 125.457 258.299 125.68 258.481 125.944C258.668 126.204 258.762 126.539 258.762 126.949ZM265.365 129H264.224V118.363H265.365V129ZM270.567 121.385C271.461 121.385 272.124 121.585 272.557 121.986C272.99 122.387 273.206 123.028 273.206 123.907V129H272.379L272.16 127.893H272.105C271.896 128.166 271.677 128.396 271.449 128.583C271.221 128.765 270.957 128.904 270.656 129C270.36 129.091 269.995 129.137 269.562 129.137C269.107 129.137 268.701 129.057 268.346 128.897C267.995 128.738 267.717 128.496 267.512 128.173C267.311 127.849 267.211 127.439 267.211 126.942C267.211 126.195 267.507 125.621 268.1 125.22C268.692 124.819 269.594 124.6 270.807 124.563L272.099 124.509V124.051C272.099 123.404 271.96 122.95 271.682 122.69C271.404 122.431 271.012 122.301 270.506 122.301C270.114 122.301 269.74 122.358 269.385 122.472C269.029 122.586 268.692 122.72 268.373 122.875L268.024 122.014C268.362 121.84 268.749 121.692 269.187 121.569C269.624 121.446 270.084 121.385 270.567 121.385ZM272.085 125.309L270.943 125.356C270.009 125.393 269.351 125.546 268.968 125.814C268.585 126.083 268.394 126.464 268.394 126.956C268.394 127.384 268.523 127.701 268.783 127.906C269.043 128.111 269.387 128.214 269.815 128.214C270.481 128.214 271.025 128.029 271.449 127.66C271.873 127.291 272.085 126.737 272.085 125.999V125.309ZM281.847 129.137C280.899 129.137 280.147 128.813 279.591 128.166C279.039 127.519 278.764 126.557 278.764 125.281C278.764 123.992 279.046 123.019 279.611 122.362C280.176 121.701 280.928 121.371 281.867 121.371C282.264 121.371 282.61 121.424 282.906 121.528C283.202 121.633 283.458 121.774 283.672 121.952C283.886 122.125 284.066 122.324 284.212 122.547H284.294C284.276 122.406 284.257 122.212 284.239 121.966C284.221 121.72 284.212 121.519 284.212 121.364V118.363H285.347V129H284.431L284.26 127.934H284.212C284.071 128.157 283.891 128.36 283.672 128.542C283.458 128.724 283.2 128.87 282.899 128.979C282.603 129.084 282.252 129.137 281.847 129.137ZM282.024 128.193C282.826 128.193 283.394 127.965 283.727 127.51C284.059 127.054 284.226 126.377 284.226 125.479V125.274C284.226 124.322 284.066 123.59 283.747 123.08C283.433 122.57 282.858 122.314 282.024 122.314C281.327 122.314 280.805 122.583 280.459 123.121C280.113 123.654 279.939 124.383 279.939 125.309C279.939 126.229 280.11 126.94 280.452 127.441C280.799 127.943 281.323 128.193 282.024 128.193ZM290.638 121.371C291.276 121.371 291.823 121.512 292.278 121.795C292.734 122.077 293.083 122.474 293.324 122.984C293.566 123.49 293.687 124.083 293.687 124.762V125.466H288.512C288.525 126.345 288.744 127.015 289.168 127.476C289.592 127.936 290.189 128.166 290.959 128.166C291.433 128.166 291.852 128.123 292.217 128.036C292.581 127.95 292.96 127.822 293.352 127.653V128.651C292.973 128.82 292.597 128.943 292.224 129.021C291.854 129.098 291.417 129.137 290.911 129.137C290.191 129.137 289.562 128.991 289.024 128.699C288.491 128.403 288.076 127.97 287.78 127.4C287.484 126.831 287.336 126.133 287.336 125.309C287.336 124.502 287.47 123.805 287.739 123.217C288.013 122.624 288.396 122.169 288.888 121.85C289.384 121.531 289.968 121.371 290.638 121.371ZM290.624 122.301C290.018 122.301 289.535 122.499 289.175 122.896C288.815 123.292 288.601 123.846 288.532 124.557H292.497C292.493 124.11 292.422 123.718 292.285 123.381C292.153 123.039 291.95 122.775 291.677 122.588C291.403 122.396 291.052 122.301 290.624 122.301ZM300.461 126.949C300.461 127.428 300.34 127.831 300.099 128.159C299.862 128.483 299.52 128.727 299.073 128.891C298.631 129.055 298.103 129.137 297.487 129.137C296.963 129.137 296.51 129.096 296.127 129.014C295.744 128.932 295.409 128.815 295.122 128.665V127.619C295.427 127.77 295.792 127.906 296.216 128.029C296.64 128.152 297.073 128.214 297.515 128.214C298.162 128.214 298.631 128.109 298.923 127.899C299.215 127.69 299.36 127.405 299.36 127.045C299.36 126.84 299.301 126.66 299.183 126.505C299.069 126.345 298.875 126.193 298.602 126.047C298.328 125.896 297.95 125.732 297.467 125.555C296.988 125.372 296.574 125.192 296.223 125.015C295.876 124.832 295.607 124.611 295.416 124.352C295.229 124.092 295.136 123.755 295.136 123.34C295.136 122.706 295.391 122.221 295.901 121.884C296.416 121.542 297.091 121.371 297.925 121.371C298.376 121.371 298.798 121.417 299.189 121.508C299.586 121.594 299.955 121.713 300.297 121.863L299.914 122.772C299.604 122.64 299.274 122.529 298.923 122.438C298.572 122.346 298.214 122.301 297.85 122.301C297.326 122.301 296.922 122.387 296.64 122.561C296.362 122.734 296.223 122.971 296.223 123.271C296.223 123.504 296.286 123.695 296.414 123.846C296.546 123.996 296.756 124.137 297.043 124.27C297.33 124.402 297.708 124.557 298.178 124.734C298.647 124.908 299.053 125.088 299.395 125.274C299.736 125.457 299.998 125.68 300.181 125.944C300.368 126.204 300.461 126.539 300.461 126.949ZM305.287 129.137C304.613 129.137 304.018 128.998 303.503 128.72C302.988 128.442 302.587 128.018 302.3 127.448C302.013 126.879 301.869 126.161 301.869 125.295C301.869 124.388 302.02 123.647 302.32 123.073C302.626 122.494 303.045 122.066 303.578 121.788C304.111 121.51 304.717 121.371 305.396 121.371C305.77 121.371 306.13 121.41 306.477 121.487C306.827 121.56 307.115 121.654 307.338 121.768L306.996 122.718C306.768 122.627 306.504 122.545 306.203 122.472C305.907 122.399 305.629 122.362 305.369 122.362C304.85 122.362 304.417 122.474 304.07 122.697C303.729 122.921 303.471 123.249 303.298 123.682C303.129 124.115 303.045 124.648 303.045 125.281C303.045 125.887 303.127 126.405 303.291 126.833C303.46 127.261 303.708 127.59 304.036 127.817C304.369 128.041 304.784 128.152 305.28 128.152C305.677 128.152 306.035 128.111 306.354 128.029C306.673 127.943 306.962 127.842 307.222 127.729V128.74C306.971 128.868 306.691 128.966 306.381 129.034C306.076 129.103 305.711 129.137 305.287 129.137ZM312.403 121.371C312.554 121.371 312.711 121.38 312.875 121.398C313.039 121.412 313.185 121.433 313.312 121.46L313.169 122.513C313.046 122.481 312.909 122.456 312.759 122.438C312.608 122.419 312.467 122.41 312.335 122.41C312.034 122.41 311.749 122.472 311.48 122.595C311.216 122.713 310.984 122.886 310.783 123.114C310.583 123.338 310.425 123.609 310.312 123.928C310.198 124.242 310.141 124.593 310.141 124.98V129H308.999V121.508H309.942L310.065 122.889H310.113C310.268 122.611 310.455 122.358 310.674 122.13C310.893 121.897 311.146 121.713 311.433 121.576C311.724 121.439 312.048 121.371 312.403 121.371ZM315.862 121.508V129H314.728V121.508H315.862ZM315.309 118.705C315.495 118.705 315.655 118.767 315.787 118.89C315.924 119.008 315.992 119.195 315.992 119.45C315.992 119.701 315.924 119.888 315.787 120.011C315.655 120.134 315.495 120.195 315.309 120.195C315.113 120.195 314.949 120.134 314.816 120.011C314.689 119.888 314.625 119.701 314.625 119.45C314.625 119.195 314.689 119.008 314.816 118.89C314.949 118.767 315.113 118.705 315.309 118.705ZM321.789 121.371C322.723 121.371 323.468 121.692 324.024 122.335C324.58 122.978 324.858 123.944 324.858 125.233C324.858 126.086 324.731 126.801 324.476 127.38C324.22 127.959 323.86 128.396 323.396 128.692C322.935 128.989 322.391 129.137 321.762 129.137C321.365 129.137 321.017 129.084 320.716 128.979C320.415 128.875 320.158 128.733 319.943 128.556C319.729 128.378 319.551 128.184 319.41 127.975H319.328C319.342 128.152 319.358 128.367 319.376 128.617C319.399 128.868 319.41 129.087 319.41 129.273V132.35H318.269V121.508H319.205L319.355 122.615H319.41C319.556 122.387 319.734 122.18 319.943 121.993C320.153 121.802 320.408 121.651 320.709 121.542C321.014 121.428 321.374 121.371 321.789 121.371ZM321.591 122.328C321.071 122.328 320.652 122.428 320.333 122.629C320.019 122.829 319.788 123.13 319.643 123.531C319.497 123.928 319.419 124.427 319.41 125.028V125.247C319.41 125.881 319.479 126.416 319.615 126.854C319.757 127.291 319.987 127.624 320.306 127.852C320.629 128.079 321.062 128.193 321.604 128.193C322.069 128.193 322.457 128.068 322.767 127.817C323.076 127.567 323.307 127.218 323.457 126.771C323.612 126.32 323.689 125.803 323.689 125.22C323.689 124.336 323.516 123.634 323.17 123.114C322.828 122.59 322.302 122.328 321.591 122.328ZM329.842 129.137C329.167 129.137 328.573 128.998 328.058 128.72C327.543 128.442 327.142 128.018 326.854 127.448C326.567 126.879 326.424 126.161 326.424 125.295C326.424 124.388 326.574 123.647 326.875 123.073C327.18 122.494 327.6 122.066 328.133 121.788C328.666 121.51 329.272 121.371 329.951 121.371C330.325 121.371 330.685 121.41 331.031 121.487C331.382 121.56 331.669 121.654 331.893 121.768L331.551 122.718C331.323 122.627 331.059 122.545 330.758 122.472C330.462 122.399 330.184 122.362 329.924 122.362C329.404 122.362 328.971 122.474 328.625 122.697C328.283 122.921 328.026 123.249 327.853 123.682C327.684 124.115 327.6 124.648 327.6 125.281C327.6 125.887 327.682 126.405 327.846 126.833C328.014 127.261 328.263 127.59 328.591 127.817C328.924 128.041 329.338 128.152 329.835 128.152C330.231 128.152 330.589 128.111 330.908 128.029C331.227 127.943 331.517 127.842 331.776 127.729V128.74C331.526 128.868 331.245 128.966 330.936 129.034C330.63 129.103 330.266 129.137 329.842 129.137ZM334.688 121.508V129H333.554V121.508H334.688ZM334.135 118.705C334.322 118.705 334.481 118.767 334.613 118.89C334.75 119.008 334.818 119.195 334.818 119.45C334.818 119.701 334.75 119.888 334.613 120.011C334.481 120.134 334.322 120.195 334.135 120.195C333.939 120.195 333.775 120.134 333.643 120.011C333.515 119.888 333.451 119.701 333.451 119.45C333.451 119.195 333.515 119.008 333.643 118.89C333.775 118.767 333.939 118.705 334.135 118.705ZM343.555 125.24C343.555 125.855 343.475 126.405 343.315 126.888C343.156 127.371 342.926 127.779 342.625 128.111C342.324 128.444 341.96 128.699 341.531 128.877C341.107 129.05 340.627 129.137 340.089 129.137C339.588 129.137 339.127 129.05 338.708 128.877C338.293 128.699 337.933 128.444 337.628 128.111C337.327 127.779 337.092 127.371 336.924 126.888C336.76 126.405 336.678 125.855 336.678 125.24C336.678 124.42 336.817 123.723 337.095 123.148C337.373 122.57 337.769 122.13 338.284 121.829C338.804 121.524 339.421 121.371 340.137 121.371C340.82 121.371 341.417 121.524 341.928 121.829C342.443 122.134 342.841 122.576 343.124 123.155C343.411 123.729 343.555 124.424 343.555 125.24ZM337.854 125.24C337.854 125.842 337.933 126.364 338.093 126.806C338.252 127.248 338.498 127.59 338.831 127.831C339.164 128.073 339.592 128.193 340.116 128.193C340.636 128.193 341.062 128.073 341.395 127.831C341.732 127.59 341.98 127.248 342.14 126.806C342.299 126.364 342.379 125.842 342.379 125.24C342.379 124.643 342.299 124.128 342.14 123.695C341.98 123.258 341.734 122.921 341.401 122.684C341.069 122.447 340.638 122.328 340.109 122.328C339.33 122.328 338.758 122.586 338.394 123.101C338.034 123.616 337.854 124.329 337.854 125.24ZM342.099 118.274V118.411C342.007 118.543 341.882 118.703 341.723 118.89C341.568 119.072 341.395 119.266 341.203 119.471C341.012 119.671 340.818 119.863 340.622 120.045C340.431 120.227 340.253 120.384 340.089 120.517H339.33V120.353C339.476 120.179 339.635 119.972 339.809 119.73C339.982 119.484 340.15 119.234 340.314 118.979C340.479 118.719 340.615 118.484 340.725 118.274H342.099ZM349.064 121.371C349.953 121.371 350.625 121.59 351.081 122.027C351.537 122.46 351.765 123.158 351.765 124.119V129H350.644V124.194C350.644 123.57 350.5 123.103 350.213 122.793C349.93 122.483 349.495 122.328 348.907 122.328C348.078 122.328 347.494 122.563 347.157 123.032C346.82 123.502 346.651 124.183 346.651 125.076V129H345.517V121.508H346.433L346.604 122.588H346.665C346.825 122.324 347.027 122.103 347.273 121.925C347.52 121.743 347.795 121.606 348.101 121.515C348.406 121.419 348.727 121.371 349.064 121.371ZM360.405 129.137C359.457 129.137 358.705 128.813 358.149 128.166C357.598 127.519 357.322 126.557 357.322 125.281C357.322 123.992 357.605 123.019 358.17 122.362C358.735 121.701 359.487 121.371 360.426 121.371C360.822 121.371 361.169 121.424 361.465 121.528C361.761 121.633 362.016 121.774 362.23 121.952C362.445 122.125 362.625 122.324 362.771 122.547H362.853C362.834 122.406 362.816 122.212 362.798 121.966C362.78 121.72 362.771 121.519 362.771 121.364V118.363H363.905V129H362.989L362.818 127.934H362.771C362.629 128.157 362.449 128.36 362.23 128.542C362.016 128.724 361.759 128.87 361.458 128.979C361.162 129.084 360.811 129.137 360.405 129.137ZM360.583 128.193C361.385 128.193 361.952 127.965 362.285 127.51C362.618 127.054 362.784 126.377 362.784 125.479V125.274C362.784 124.322 362.625 123.59 362.306 123.08C361.991 122.57 361.417 122.314 360.583 122.314C359.886 122.314 359.364 122.583 359.018 123.121C358.671 123.654 358.498 124.383 358.498 125.309C358.498 126.229 358.669 126.94 359.011 127.441C359.357 127.943 359.881 128.193 360.583 128.193ZM369.196 121.371C369.834 121.371 370.381 121.512 370.837 121.795C371.293 122.077 371.641 122.474 371.883 122.984C372.124 123.49 372.245 124.083 372.245 124.762V125.466H367.07C367.084 126.345 367.303 127.015 367.727 127.476C368.15 127.936 368.747 128.166 369.518 128.166C369.992 128.166 370.411 128.123 370.775 128.036C371.14 127.95 371.518 127.822 371.91 127.653V128.651C371.532 128.82 371.156 128.943 370.782 129.021C370.413 129.098 369.976 129.137 369.47 129.137C368.75 129.137 368.121 128.991 367.583 128.699C367.05 128.403 366.635 127.97 366.339 127.4C366.043 126.831 365.895 126.133 365.895 125.309C365.895 124.502 366.029 123.805 366.298 123.217C366.571 122.624 366.954 122.169 367.446 121.85C367.943 121.531 368.526 121.371 369.196 121.371ZM369.183 122.301C368.576 122.301 368.093 122.499 367.733 122.896C367.373 123.292 367.159 123.846 367.091 124.557H371.056C371.051 124.11 370.98 123.718 370.844 123.381C370.712 123.039 370.509 122.775 370.235 122.588C369.962 122.396 369.611 122.301 369.183 122.301ZM375.314 129H374.173V118.363H375.314V129ZM384.153 121.385C385.047 121.385 385.71 121.585 386.143 121.986C386.576 122.387 386.792 123.028 386.792 123.907V129H385.965L385.746 127.893H385.691C385.482 128.166 385.263 128.396 385.035 128.583C384.807 128.765 384.543 128.904 384.242 129C383.946 129.091 383.581 129.137 383.148 129.137C382.693 129.137 382.287 129.057 381.932 128.897C381.581 128.738 381.303 128.496 381.098 128.173C380.897 127.849 380.797 127.439 380.797 126.942C380.797 126.195 381.093 125.621 381.686 125.22C382.278 124.819 383.18 124.6 384.393 124.563L385.685 124.509V124.051C385.685 123.404 385.546 122.95 385.268 122.69C384.99 122.431 384.598 122.301 384.092 122.301C383.7 122.301 383.326 122.358 382.971 122.472C382.615 122.586 382.278 122.72 381.959 122.875L381.61 122.014C381.948 121.84 382.335 121.692 382.772 121.569C383.21 121.446 383.67 121.385 384.153 121.385ZM385.671 125.309L384.529 125.356C383.595 125.393 382.937 125.546 382.554 125.814C382.171 126.083 381.979 126.464 381.979 126.956C381.979 127.384 382.109 127.701 382.369 127.906C382.629 128.111 382.973 128.214 383.401 128.214C384.067 128.214 384.611 128.029 385.035 127.66C385.459 127.291 385.671 126.737 385.671 125.999V125.309ZM392.131 129.137C391.456 129.137 390.862 128.998 390.347 128.72C389.832 128.442 389.431 128.018 389.144 127.448C388.856 126.879 388.713 126.161 388.713 125.295C388.713 124.388 388.863 123.647 389.164 123.073C389.469 122.494 389.889 122.066 390.422 121.788C390.955 121.51 391.561 121.371 392.24 121.371C392.614 121.371 392.974 121.41 393.32 121.487C393.671 121.56 393.958 121.654 394.182 121.768L393.84 122.718C393.612 122.627 393.348 122.545 393.047 122.472C392.751 122.399 392.473 122.362 392.213 122.362C391.693 122.362 391.26 122.474 390.914 122.697C390.572 122.921 390.315 123.249 390.142 123.682C389.973 124.115 389.889 124.648 389.889 125.281C389.889 125.887 389.971 126.405 390.135 126.833C390.303 127.261 390.552 127.59 390.88 127.817C391.213 128.041 391.627 128.152 392.124 128.152C392.521 128.152 392.878 128.111 393.197 128.029C393.516 127.943 393.806 127.842 394.065 127.729V128.74C393.815 128.868 393.535 128.966 393.225 129.034C392.919 129.103 392.555 129.137 392.131 129.137ZM398.844 129.137C398.169 129.137 397.575 128.998 397.06 128.72C396.545 128.442 396.144 128.018 395.856 127.448C395.569 126.879 395.426 126.161 395.426 125.295C395.426 124.388 395.576 123.647 395.877 123.073C396.182 122.494 396.602 122.066 397.135 121.788C397.668 121.51 398.274 121.371 398.953 121.371C399.327 121.371 399.687 121.41 400.033 121.487C400.384 121.56 400.671 121.654 400.895 121.768L400.553 122.718C400.325 122.627 400.061 122.545 399.76 122.472C399.464 122.399 399.186 122.362 398.926 122.362C398.406 122.362 397.973 122.474 397.627 122.697C397.285 122.921 397.028 123.249 396.854 123.682C396.686 124.115 396.602 124.648 396.602 125.281C396.602 125.887 396.684 126.405 396.848 126.833C397.016 127.261 397.265 127.59 397.593 127.817C397.925 128.041 398.34 128.152 398.837 128.152C399.233 128.152 399.591 128.111 399.91 128.029C400.229 127.943 400.519 127.842 400.778 127.729V128.74C400.528 128.868 400.247 128.966 399.938 129.034C399.632 129.103 399.268 129.137 398.844 129.137ZM405.44 121.371C406.078 121.371 406.625 121.512 407.081 121.795C407.537 122.077 407.885 122.474 408.127 122.984C408.368 123.49 408.489 124.083 408.489 124.762V125.466H403.314C403.328 126.345 403.547 127.015 403.971 127.476C404.395 127.936 404.992 128.166 405.762 128.166C406.236 128.166 406.655 128.123 407.02 128.036C407.384 127.95 407.762 127.822 408.154 127.653V128.651C407.776 128.82 407.4 128.943 407.026 129.021C406.657 129.098 406.22 129.137 405.714 129.137C404.994 129.137 404.365 128.991 403.827 128.699C403.294 128.403 402.879 127.97 402.583 127.4C402.287 126.831 402.139 126.133 402.139 125.309C402.139 124.502 402.273 123.805 402.542 123.217C402.815 122.624 403.198 122.169 403.69 121.85C404.187 121.531 404.771 121.371 405.44 121.371ZM405.427 122.301C404.821 122.301 404.338 122.499 403.978 122.896C403.618 123.292 403.403 123.846 403.335 124.557H407.3C407.295 124.11 407.225 123.718 407.088 123.381C406.956 123.039 406.753 122.775 406.479 122.588C406.206 122.396 405.855 122.301 405.427 122.301ZM415.264 126.949C415.264 127.428 415.143 127.831 414.901 128.159C414.664 128.483 414.323 128.727 413.876 128.891C413.434 129.055 412.905 129.137 412.29 129.137C411.766 129.137 411.312 129.096 410.93 129.014C410.547 128.932 410.212 128.815 409.925 128.665V127.619C410.23 127.77 410.595 127.906 411.019 128.029C411.442 128.152 411.875 128.214 412.317 128.214C412.965 128.214 413.434 128.109 413.726 127.899C414.017 127.69 414.163 127.405 414.163 127.045C414.163 126.84 414.104 126.66 413.985 126.505C413.871 126.345 413.678 126.193 413.404 126.047C413.131 125.896 412.753 125.732 412.27 125.555C411.791 125.372 411.376 125.192 411.025 125.015C410.679 124.832 410.41 124.611 410.219 124.352C410.032 124.092 409.938 123.755 409.938 123.34C409.938 122.706 410.194 122.221 410.704 121.884C411.219 121.542 411.894 121.371 412.728 121.371C413.179 121.371 413.6 121.417 413.992 121.508C414.389 121.594 414.758 121.713 415.1 121.863L414.717 122.772C414.407 122.64 414.076 122.529 413.726 122.438C413.375 122.346 413.017 122.301 412.652 122.301C412.128 122.301 411.725 122.387 411.442 122.561C411.164 122.734 411.025 122.971 411.025 123.271C411.025 123.504 411.089 123.695 411.217 123.846C411.349 123.996 411.559 124.137 411.846 124.27C412.133 124.402 412.511 124.557 412.98 124.734C413.45 124.908 413.855 125.088 414.197 125.274C414.539 125.457 414.801 125.68 414.983 125.944C415.17 126.204 415.264 126.539 415.264 126.949ZM423.549 125.24C423.549 125.855 423.469 126.405 423.31 126.888C423.15 127.371 422.92 127.779 422.619 128.111C422.318 128.444 421.954 128.699 421.525 128.877C421.102 129.05 420.621 129.137 420.083 129.137C419.582 129.137 419.121 129.05 418.702 128.877C418.287 128.699 417.927 128.444 417.622 128.111C417.321 127.779 417.087 127.371 416.918 126.888C416.754 126.405 416.672 125.855 416.672 125.24C416.672 124.42 416.811 123.723 417.089 123.148C417.367 122.57 417.763 122.13 418.278 121.829C418.798 121.524 419.415 121.371 420.131 121.371C420.814 121.371 421.411 121.524 421.922 121.829C422.437 122.134 422.836 122.576 423.118 123.155C423.405 123.729 423.549 124.424 423.549 125.24ZM417.848 125.24C417.848 125.842 417.927 126.364 418.087 126.806C418.246 127.248 418.493 127.59 418.825 127.831C419.158 128.073 419.586 128.193 420.11 128.193C420.63 128.193 421.056 128.073 421.389 127.831C421.726 127.59 421.974 127.248 422.134 126.806C422.293 126.364 422.373 125.842 422.373 125.24C422.373 124.643 422.293 124.128 422.134 123.695C421.974 123.258 421.728 122.921 421.396 122.684C421.063 122.447 420.632 122.328 420.104 122.328C419.324 122.328 418.752 122.586 418.388 123.101C418.028 123.616 417.848 124.329 417.848 125.24ZM425.34 128.289C425.34 127.97 425.417 127.744 425.572 127.612C425.727 127.476 425.916 127.407 426.14 127.407C426.372 127.407 426.568 127.476 426.728 127.612C426.887 127.744 426.967 127.97 426.967 128.289C426.967 128.604 426.887 128.834 426.728 128.979C426.568 129.121 426.372 129.191 426.14 129.191C425.916 129.191 425.727 129.121 425.572 128.979C425.417 128.834 425.34 128.604 425.34 128.289Z" fill="#38485C"/>
<path d="M499 94.7106C498.61 95.1006 498.61 95.7306 499 96.1206L502.88 100.001L499 103.881C498.61 104.271 498.61 104.901 499 105.291C499.39 105.681 500.02 105.681 500.41 105.291L505 100.701C505.39 100.311 505.39 99.6806 505 99.2906L500.41 94.7006C500.03 94.3206 499.39 94.3206 499 94.7106Z" fill="#101E37"/>
</svg>
