<svg width="728" height="200" viewBox="0 0 728 200" fill="none" xmlns="http://www.w3.org/2000/svg">
<rect x="1" y="1" width="726" height="198" rx="7" fill="#F3F6F9"/>
<rect x="1" y="1" width="726" height="198" rx="7" stroke="#E6EBF0" stroke-width="2"/>
<path d="M530 63C534.971 63 539 67.0294 539 72V128C539 132.971 534.971 137 530 137H198C193.029 137 189 132.971 189 128V72C189 67.0294 193.029 63 198 63H530Z" fill="white"/>
<path d="M530 63C534.971 63 539 67.0294 539 72V128C539 132.971 534.971 137 530 137H198C193.029 137 189 132.971 189 128V72C189 67.0294 193.029 63 198 63H530Z" stroke="#E6EBF0" stroke-width="2"/>
<path d="M222.727 106L221.32 102.375H216.742L215.344 106H214L218.469 94.5312H219.664L224.102 106H222.727ZM220.922 101.195L219.586 97.5938C219.555 97.5 219.503 97.3464 219.43 97.1328C219.362 96.9193 219.292 96.6979 219.219 96.4688C219.146 96.2396 219.086 96.0547 219.039 95.9141C218.987 96.1276 218.93 96.3411 218.867 96.5547C218.81 96.763 218.753 96.9583 218.695 97.1406C218.638 97.3177 218.589 97.4688 218.547 97.5938L217.188 101.195H220.922ZM228.922 106.156C228.151 106.156 227.471 105.997 226.883 105.68C226.294 105.362 225.836 104.878 225.508 104.227C225.18 103.576 225.016 102.755 225.016 101.766C225.016 100.729 225.188 99.8828 225.531 99.2266C225.88 98.5651 226.359 98.0755 226.969 97.7578C227.578 97.4401 228.271 97.2812 229.047 97.2812C229.474 97.2812 229.885 97.3255 230.281 97.4141C230.682 97.4974 231.01 97.6042 231.266 97.7344L230.875 98.8203C230.615 98.7161 230.312 98.6224 229.969 98.5391C229.63 98.4557 229.312 98.4141 229.016 98.4141C228.422 98.4141 227.927 98.5417 227.531 98.7969C227.141 99.0521 226.846 99.4271 226.648 99.9219C226.456 100.417 226.359 101.026 226.359 101.75C226.359 102.443 226.453 103.034 226.641 103.523C226.833 104.013 227.117 104.388 227.492 104.648C227.872 104.904 228.346 105.031 228.914 105.031C229.367 105.031 229.776 104.984 230.141 104.891C230.505 104.792 230.836 104.677 231.133 104.547V105.703C230.846 105.849 230.526 105.961 230.172 106.039C229.823 106.117 229.406 106.156 228.922 106.156ZM236.594 106.156C235.823 106.156 235.143 105.997 234.555 105.68C233.966 105.362 233.508 104.878 233.18 104.227C232.852 103.576 232.688 102.755 232.688 101.766C232.688 100.729 232.859 99.8828 233.203 99.2266C233.552 98.5651 234.031 98.0755 234.641 97.7578C235.25 97.4401 235.943 97.2812 236.719 97.2812C237.146 97.2812 237.557 97.3255 237.953 97.4141C238.354 97.4974 238.682 97.6042 238.938 97.7344L238.547 98.8203C238.286 98.7161 237.984 98.6224 237.641 98.5391C237.302 98.4557 236.984 98.4141 236.688 98.4141C236.094 98.4141 235.599 98.5417 235.203 98.7969C234.812 99.0521 234.518 99.4271 234.32 99.9219C234.128 100.417 234.031 101.026 234.031 101.75C234.031 102.443 234.125 103.034 234.312 103.523C234.505 104.013 234.789 104.388 235.164 104.648C235.544 104.904 236.018 105.031 236.586 105.031C237.039 105.031 237.448 104.984 237.812 104.891C238.177 104.792 238.508 104.677 238.805 104.547V105.703C238.518 105.849 238.198 105.961 237.844 106.039C237.495 106.117 237.078 106.156 236.594 106.156ZM244.133 97.2812C244.862 97.2812 245.487 97.4427 246.008 97.7656C246.529 98.0885 246.927 98.5417 247.203 99.125C247.479 99.7031 247.617 100.38 247.617 101.156V101.961H241.703C241.719 102.966 241.969 103.732 242.453 104.258C242.938 104.784 243.62 105.047 244.5 105.047C245.042 105.047 245.521 104.997 245.938 104.898C246.354 104.799 246.786 104.654 247.234 104.461V105.602C246.802 105.794 246.372 105.935 245.945 106.023C245.523 106.112 245.023 106.156 244.445 106.156C243.622 106.156 242.904 105.99 242.289 105.656C241.68 105.318 241.206 104.823 240.867 104.172C240.529 103.521 240.359 102.724 240.359 101.781C240.359 100.859 240.513 100.062 240.82 99.3906C241.133 98.7135 241.57 98.1927 242.133 97.8281C242.701 97.4635 243.367 97.2812 244.133 97.2812ZM244.117 98.3438C243.424 98.3438 242.872 98.5703 242.461 99.0234C242.049 99.4766 241.805 100.109 241.727 100.922H246.258C246.253 100.411 246.172 99.9635 246.016 99.5781C245.865 99.1875 245.633 98.8854 245.32 98.6719C245.008 98.4531 244.607 98.3438 244.117 98.3438ZM255.359 103.656C255.359 104.203 255.221 104.664 254.945 105.039C254.674 105.409 254.284 105.688 253.773 105.875C253.268 106.062 252.664 106.156 251.961 106.156C251.362 106.156 250.844 106.109 250.406 106.016C249.969 105.922 249.586 105.789 249.258 105.617V104.422C249.607 104.594 250.023 104.75 250.508 104.891C250.992 105.031 251.487 105.102 251.992 105.102C252.732 105.102 253.268 104.982 253.602 104.742C253.935 104.503 254.102 104.177 254.102 103.766C254.102 103.531 254.034 103.326 253.898 103.148C253.768 102.966 253.547 102.792 253.234 102.625C252.922 102.453 252.49 102.266 251.938 102.062C251.391 101.854 250.917 101.648 250.516 101.445C250.12 101.237 249.812 100.984 249.594 100.688C249.38 100.391 249.273 100.005 249.273 99.5312C249.273 98.8073 249.565 98.2526 250.148 97.8672C250.737 97.4766 251.508 97.2812 252.461 97.2812C252.977 97.2812 253.458 97.3333 253.906 97.4375C254.359 97.5365 254.781 97.6719 255.172 97.8438L254.734 98.8828C254.38 98.7318 254.003 98.6042 253.602 98.5C253.201 98.3958 252.792 98.3438 252.375 98.3438C251.776 98.3438 251.315 98.4427 250.992 98.6406C250.674 98.8385 250.516 99.1094 250.516 99.4531C250.516 99.7188 250.589 99.9375 250.734 100.109C250.885 100.281 251.125 100.443 251.453 100.594C251.781 100.745 252.214 100.922 252.75 101.125C253.286 101.323 253.75 101.529 254.141 101.742C254.531 101.951 254.831 102.206 255.039 102.508C255.253 102.805 255.359 103.188 255.359 103.656ZM264.828 101.703C264.828 102.406 264.737 103.034 264.555 103.586C264.372 104.138 264.109 104.604 263.766 104.984C263.422 105.365 263.005 105.656 262.516 105.859C262.031 106.057 261.482 106.156 260.867 106.156C260.294 106.156 259.768 106.057 259.289 105.859C258.815 105.656 258.404 105.365 258.055 104.984C257.711 104.604 257.443 104.138 257.25 103.586C257.062 103.034 256.969 102.406 256.969 101.703C256.969 100.766 257.128 99.9688 257.445 99.3125C257.763 98.651 258.216 98.1484 258.805 97.8047C259.398 97.4557 260.104 97.2812 260.922 97.2812C261.703 97.2812 262.385 97.4557 262.969 97.8047C263.557 98.1536 264.013 98.6589 264.336 99.3203C264.664 99.9766 264.828 100.771 264.828 101.703ZM258.312 101.703C258.312 102.391 258.404 102.987 258.586 103.492C258.768 103.997 259.049 104.388 259.43 104.664C259.81 104.94 260.299 105.078 260.898 105.078C261.492 105.078 261.979 104.94 262.359 104.664C262.745 104.388 263.029 103.997 263.211 103.492C263.393 102.987 263.484 102.391 263.484 101.703C263.484 101.021 263.393 100.432 263.211 99.9375C263.029 99.4375 262.747 99.0521 262.367 98.7812C261.987 98.5104 261.495 98.375 260.891 98.375C260 98.375 259.346 98.6693 258.93 99.2578C258.518 99.8464 258.312 100.661 258.312 101.703Z" fill="#101E37"/>
<path d="M499 94.7106C498.61 95.1006 498.61 95.7306 499 96.1206L502.88 100.001L499 103.881C498.61 104.271 498.61 104.901 499 105.291C499.39 105.681 500.02 105.681 500.41 105.291L505 100.701C505.39 100.311 505.39 99.6806 505 99.2906L500.41 94.7006C500.03 94.3206 499.39 94.3206 499 94.7106Z" fill="#101E37"/>
</svg>
