<svg width="728" height="240" viewBox="0 0 728 240" fill="none" xmlns="http://www.w3.org/2000/svg">
<rect x="1" y="1" width="726" height="238" rx="7" fill="#F3F6F9" stroke="#D1D8E0" stroke-width="2"/>
<rect x="274.523" y="32.5" width="375.27" height="175" rx="4.5" fill="white" stroke="#D1D8E0"/>
<path d="M275.558 34L648.249 206.5" stroke="#D1D8E0"/>
<path d="M276.069 206L648.249 34" stroke="#D1D8E0"/>
<g opacity="0.2">
<rect x="76.7095" y="2" width="32.3022" height="236.352" fill="#9EAAB8"/>
<rect x="175.205" y="2" width="32.3022" height="236.352" fill="#9EAAB8"/>
<rect x="273.701" y="2" width="32.3022" height="236.352" fill="#9EAAB8"/>
<rect x="372.194" y="2" width="32.3022" height="236.352" fill="#9EAAB8"/>
<rect x="470.692" y="2" width="32.3022" height="236.352" fill="#9EAAB8"/>
<rect x="569.185" y="2" width="32.3022" height="236.352" fill="#9EAAB8"/>
<rect x="125.957" y="2" width="32.3022" height="236.352" fill="#9EAAB8"/>
<rect x="224.451" y="2" width="32.3022" height="236.352" fill="#9EAAB8"/>
<rect x="322.948" y="2" width="32.3022" height="236.352" fill="#9EAAB8"/>
<rect x="421.444" y="2" width="32.3022" height="236.352" fill="#9EAAB8"/>
<rect x="519.938" y="2" width="32.3022" height="236.352" fill="#9EAAB8"/>
<rect x="618.435" y="2" width="32.3022" height="236.352" fill="#9EAAB8"/>
</g>
<rect x="77.1851" y="160.5" width="178.955" height="47" rx="4.5" fill="white" stroke="#D1D8E0"/>
<rect x="274.523" y="32.5" width="375.27" height="175" rx="4.5" fill="white" stroke="#D1D8E0"/>
<path d="M275.558 34L648.249 206.5" stroke="#D1D8E0"/>
<path d="M276.069 206L648.249 34" stroke="#D1D8E0"/>
<rect x="77.1851" y="32.5" width="178.955" height="47" rx="4.5" fill="white" stroke="#D1D8E0"/>
<rect x="77.1851" y="96.5" width="178.955" height="47" rx="4.5" fill="white" stroke="#D1D8E0"/>
</svg>
