<svg width="728" height="222" viewBox="0 0 728 222" fill="none" xmlns="http://www.w3.org/2000/svg">
<rect x="1" y="1" width="726" height="220" rx="7" fill="#F3F6F9"/>
<rect x="1" y="1" width="726" height="220" rx="7" stroke="#E6EBF0" stroke-width="2"/>
<path d="M530 63C534.971 63 539 67.0294 539 72V150C539 154.971 534.971 159 530 159H198C193.029 159 189 154.971 189 150V72C189 67.0294 193.029 63 198 63H530Z" fill="white"/>
<path d="M530 63C534.971 63 539 67.0294 539 72V150C539 154.971 534.971 159 530 159H198C193.029 159 189 154.971 189 150V72C189 67.0294 193.029 63 198 63H530Z" stroke="#E6EBF0" stroke-width="2"/>
<path d="M226 101C220.48 101 216 105.48 216 111C216 116.52 220.48 121 226 121C231.52 121 236 116.52 236 111C236 105.48 231.52 101 226 101ZM226 116C225.45 116 225 115.55 225 115V111C225 110.45 225.45 110 226 110C226.55 110 227 110.45 227 111V115C227 115.55 226.55 116 226 116ZM227 108H225V106H227V108Z" fill="#101E37"/>
<path d="M258.727 106L257.32 102.375H252.742L251.344 106H250L254.469 94.5312H255.664L260.102 106H258.727ZM256.922 101.195L255.586 97.5938C255.555 97.5 255.503 97.3464 255.43 97.1328C255.362 96.9193 255.292 96.6979 255.219 96.4688C255.146 96.2396 255.086 96.0547 255.039 95.9141C254.987 96.1276 254.93 96.3411 254.867 96.5547C254.81 96.763 254.753 96.9583 254.695 97.1406C254.638 97.3177 254.589 97.4688 254.547 97.5938L253.188 101.195H256.922ZM264.922 106.156C264.151 106.156 263.471 105.997 262.883 105.68C262.294 105.362 261.836 104.878 261.508 104.227C261.18 103.576 261.016 102.755 261.016 101.766C261.016 100.729 261.188 99.8828 261.531 99.2266C261.88 98.5651 262.359 98.0755 262.969 97.7578C263.578 97.4401 264.271 97.2812 265.047 97.2812C265.474 97.2812 265.885 97.3255 266.281 97.4141C266.682 97.4974 267.01 97.6042 267.266 97.7344L266.875 98.8203C266.615 98.7161 266.312 98.6224 265.969 98.5391C265.63 98.4557 265.312 98.4141 265.016 98.4141C264.422 98.4141 263.927 98.5417 263.531 98.7969C263.141 99.0521 262.846 99.4271 262.648 99.9219C262.456 100.417 262.359 101.026 262.359 101.75C262.359 102.443 262.453 103.034 262.641 103.523C262.833 104.013 263.117 104.388 263.492 104.648C263.872 104.904 264.346 105.031 264.914 105.031C265.367 105.031 265.776 104.984 266.141 104.891C266.505 104.792 266.836 104.677 267.133 104.547V105.703C266.846 105.849 266.526 105.961 266.172 106.039C265.823 106.117 265.406 106.156 264.922 106.156ZM272.594 106.156C271.823 106.156 271.143 105.997 270.555 105.68C269.966 105.362 269.508 104.878 269.18 104.227C268.852 103.576 268.688 102.755 268.688 101.766C268.688 100.729 268.859 99.8828 269.203 99.2266C269.552 98.5651 270.031 98.0755 270.641 97.7578C271.25 97.4401 271.943 97.2812 272.719 97.2812C273.146 97.2812 273.557 97.3255 273.953 97.4141C274.354 97.4974 274.682 97.6042 274.938 97.7344L274.547 98.8203C274.286 98.7161 273.984 98.6224 273.641 98.5391C273.302 98.4557 272.984 98.4141 272.688 98.4141C272.094 98.4141 271.599 98.5417 271.203 98.7969C270.812 99.0521 270.518 99.4271 270.32 99.9219C270.128 100.417 270.031 101.026 270.031 101.75C270.031 102.443 270.125 103.034 270.312 103.523C270.505 104.013 270.789 104.388 271.164 104.648C271.544 104.904 272.018 105.031 272.586 105.031C273.039 105.031 273.448 104.984 273.812 104.891C274.177 104.792 274.508 104.677 274.805 104.547V105.703C274.518 105.849 274.198 105.961 273.844 106.039C273.495 106.117 273.078 106.156 272.594 106.156ZM280.133 97.2812C280.862 97.2812 281.487 97.4427 282.008 97.7656C282.529 98.0885 282.927 98.5417 283.203 99.125C283.479 99.7031 283.617 100.38 283.617 101.156V101.961H277.703C277.719 102.966 277.969 103.732 278.453 104.258C278.938 104.784 279.62 105.047 280.5 105.047C281.042 105.047 281.521 104.997 281.938 104.898C282.354 104.799 282.786 104.654 283.234 104.461V105.602C282.802 105.794 282.372 105.935 281.945 106.023C281.523 106.112 281.023 106.156 280.445 106.156C279.622 106.156 278.904 105.99 278.289 105.656C277.68 105.318 277.206 104.823 276.867 104.172C276.529 103.521 276.359 102.724 276.359 101.781C276.359 100.859 276.513 100.062 276.82 99.3906C277.133 98.7135 277.57 98.1927 278.133 97.8281C278.701 97.4635 279.367 97.2812 280.133 97.2812ZM280.117 98.3438C279.424 98.3438 278.872 98.5703 278.461 99.0234C278.049 99.4766 277.805 100.109 277.727 100.922H282.258C282.253 100.411 282.172 99.9635 282.016 99.5781C281.865 99.1875 281.633 98.8854 281.32 98.6719C281.008 98.4531 280.607 98.3438 280.117 98.3438ZM291.359 103.656C291.359 104.203 291.221 104.664 290.945 105.039C290.674 105.409 290.284 105.688 289.773 105.875C289.268 106.062 288.664 106.156 287.961 106.156C287.362 106.156 286.844 106.109 286.406 106.016C285.969 105.922 285.586 105.789 285.258 105.617V104.422C285.607 104.594 286.023 104.75 286.508 104.891C286.992 105.031 287.487 105.102 287.992 105.102C288.732 105.102 289.268 104.982 289.602 104.742C289.935 104.503 290.102 104.177 290.102 103.766C290.102 103.531 290.034 103.326 289.898 103.148C289.768 102.966 289.547 102.792 289.234 102.625C288.922 102.453 288.49 102.266 287.938 102.062C287.391 101.854 286.917 101.648 286.516 101.445C286.12 101.237 285.812 100.984 285.594 100.688C285.38 100.391 285.273 100.005 285.273 99.5312C285.273 98.8073 285.565 98.2526 286.148 97.8672C286.737 97.4766 287.508 97.2812 288.461 97.2812C288.977 97.2812 289.458 97.3333 289.906 97.4375C290.359 97.5365 290.781 97.6719 291.172 97.8438L290.734 98.8828C290.38 98.7318 290.003 98.6042 289.602 98.5C289.201 98.3958 288.792 98.3438 288.375 98.3438C287.776 98.3438 287.315 98.4427 286.992 98.6406C286.674 98.8385 286.516 99.1094 286.516 99.4531C286.516 99.7188 286.589 99.9375 286.734 100.109C286.885 100.281 287.125 100.443 287.453 100.594C287.781 100.745 288.214 100.922 288.75 101.125C289.286 101.323 289.75 101.529 290.141 101.742C290.531 101.951 290.831 102.206 291.039 102.508C291.253 102.805 291.359 103.188 291.359 103.656ZM300.828 101.703C300.828 102.406 300.737 103.034 300.555 103.586C300.372 104.138 300.109 104.604 299.766 104.984C299.422 105.365 299.005 105.656 298.516 105.859C298.031 106.057 297.482 106.156 296.867 106.156C296.294 106.156 295.768 106.057 295.289 105.859C294.815 105.656 294.404 105.365 294.055 104.984C293.711 104.604 293.443 104.138 293.25 103.586C293.062 103.034 292.969 102.406 292.969 101.703C292.969 100.766 293.128 99.9688 293.445 99.3125C293.763 98.651 294.216 98.1484 294.805 97.8047C295.398 97.4557 296.104 97.2812 296.922 97.2812C297.703 97.2812 298.385 97.4557 298.969 97.8047C299.557 98.1536 300.013 98.6589 300.336 99.3203C300.664 99.9766 300.828 100.771 300.828 101.703ZM294.312 101.703C294.312 102.391 294.404 102.987 294.586 103.492C294.768 103.997 295.049 104.388 295.43 104.664C295.81 104.94 296.299 105.078 296.898 105.078C297.492 105.078 297.979 104.94 298.359 104.664C298.745 104.388 299.029 103.997 299.211 103.492C299.393 102.987 299.484 102.391 299.484 101.703C299.484 101.021 299.393 100.432 299.211 99.9375C299.029 99.4375 298.747 99.0521 298.367 98.7812C297.987 98.5104 297.495 98.375 296.891 98.375C296 98.375 295.346 98.6693 294.93 99.2578C294.518 99.8464 294.312 100.661 294.312 101.703Z" fill="#101E37"/>
<path d="M256.932 129H251.367V119.006H256.932V120.031H252.529V123.265H256.679V124.276H252.529V127.975H256.932V129ZM263.822 126.949C263.822 127.428 263.701 127.831 263.46 128.159C263.223 128.483 262.881 128.727 262.435 128.891C261.993 129.055 261.464 129.137 260.849 129.137C260.325 129.137 259.871 129.096 259.488 129.014C259.105 128.932 258.771 128.815 258.483 128.665V127.619C258.789 127.77 259.153 127.906 259.577 128.029C260.001 128.152 260.434 128.214 260.876 128.214C261.523 128.214 261.993 128.109 262.284 127.899C262.576 127.69 262.722 127.405 262.722 127.045C262.722 126.84 262.662 126.66 262.544 126.505C262.43 126.345 262.236 126.193 261.963 126.047C261.689 125.896 261.311 125.732 260.828 125.555C260.35 125.372 259.935 125.192 259.584 125.015C259.238 124.832 258.969 124.611 258.777 124.352C258.59 124.092 258.497 123.755 258.497 123.34C258.497 122.706 258.752 122.221 259.263 121.884C259.778 121.542 260.452 121.371 261.286 121.371C261.737 121.371 262.159 121.417 262.551 121.508C262.947 121.594 263.316 121.713 263.658 121.863L263.275 122.772C262.965 122.64 262.635 122.529 262.284 122.438C261.933 122.346 261.576 122.301 261.211 122.301C260.687 122.301 260.284 122.387 260.001 122.561C259.723 122.734 259.584 122.971 259.584 123.271C259.584 123.504 259.648 123.695 259.775 123.846C259.908 123.996 260.117 124.137 260.404 124.27C260.691 124.402 261.07 124.557 261.539 124.734C262.008 124.908 262.414 125.088 262.756 125.274C263.098 125.457 263.36 125.68 263.542 125.944C263.729 126.204 263.822 126.539 263.822 126.949ZM268.067 128.207C268.254 128.207 268.446 128.191 268.642 128.159C268.838 128.127 268.997 128.089 269.12 128.043V128.925C268.988 128.984 268.803 129.034 268.566 129.075C268.334 129.116 268.106 129.137 267.883 129.137C267.486 129.137 267.126 129.068 266.803 128.932C266.479 128.79 266.219 128.553 266.023 128.221C265.832 127.888 265.736 127.428 265.736 126.84V122.396H264.67V121.843L265.743 121.398L266.194 119.771H266.878V121.508H269.072V122.396H266.878V126.806C266.878 127.275 266.985 127.626 267.199 127.858C267.418 128.091 267.707 128.207 268.067 128.207ZM273.44 121.385C274.334 121.385 274.997 121.585 275.43 121.986C275.863 122.387 276.079 123.028 276.079 123.907V129H275.252L275.033 127.893H274.979C274.769 128.166 274.55 128.396 274.322 128.583C274.094 128.765 273.83 128.904 273.529 129C273.233 129.091 272.868 129.137 272.436 129.137C271.98 129.137 271.574 129.057 271.219 128.897C270.868 128.738 270.59 128.496 270.385 128.173C270.184 127.849 270.084 127.439 270.084 126.942C270.084 126.195 270.38 125.621 270.973 125.22C271.565 124.819 272.467 124.6 273.68 124.563L274.972 124.509V124.051C274.972 123.404 274.833 122.95 274.555 122.69C274.277 122.431 273.885 122.301 273.379 122.301C272.987 122.301 272.613 122.358 272.258 122.472C271.902 122.586 271.565 122.72 271.246 122.875L270.897 122.014C271.235 121.84 271.622 121.692 272.06 121.569C272.497 121.446 272.957 121.385 273.44 121.385ZM274.958 125.309L273.816 125.356C272.882 125.393 272.224 125.546 271.841 125.814C271.458 126.083 271.267 126.464 271.267 126.956C271.267 127.384 271.396 127.701 271.656 127.906C271.916 128.111 272.26 128.214 272.688 128.214C273.354 128.214 273.898 128.029 274.322 127.66C274.746 127.291 274.958 126.737 274.958 125.999V125.309ZM284.938 121.371C285.576 121.371 286.123 121.512 286.579 121.795C287.035 122.077 287.383 122.474 287.625 122.984C287.867 123.49 287.987 124.083 287.987 124.762V125.466H282.812C282.826 126.345 283.045 127.015 283.469 127.476C283.893 127.936 284.49 128.166 285.26 128.166C285.734 128.166 286.153 128.123 286.518 128.036C286.882 127.95 287.26 127.822 287.652 127.653V128.651C287.274 128.82 286.898 128.943 286.524 129.021C286.155 129.098 285.718 129.137 285.212 129.137C284.492 129.137 283.863 128.991 283.325 128.699C282.792 128.403 282.377 127.97 282.081 127.4C281.785 126.831 281.637 126.133 281.637 125.309C281.637 124.502 281.771 123.805 282.04 123.217C282.313 122.624 282.696 122.169 283.188 121.85C283.685 121.531 284.269 121.371 284.938 121.371ZM284.925 122.301C284.319 122.301 283.836 122.499 283.476 122.896C283.116 123.292 282.901 123.846 282.833 124.557H286.798C286.793 124.11 286.723 123.718 286.586 123.381C286.454 123.039 286.251 122.775 285.978 122.588C285.704 122.396 285.353 122.301 284.925 122.301ZM294.762 126.949C294.762 127.428 294.641 127.831 294.399 128.159C294.162 128.483 293.821 128.727 293.374 128.891C292.932 129.055 292.403 129.137 291.788 129.137C291.264 129.137 290.811 129.096 290.428 129.014C290.045 128.932 289.71 128.815 289.423 128.665V127.619C289.728 127.77 290.093 127.906 290.517 128.029C290.94 128.152 291.373 128.214 291.815 128.214C292.463 128.214 292.932 128.109 293.224 127.899C293.515 127.69 293.661 127.405 293.661 127.045C293.661 126.84 293.602 126.66 293.483 126.505C293.369 126.345 293.176 126.193 292.902 126.047C292.629 125.896 292.251 125.732 291.768 125.555C291.289 125.372 290.874 125.192 290.523 125.015C290.177 124.832 289.908 124.611 289.717 124.352C289.53 124.092 289.437 123.755 289.437 123.34C289.437 122.706 289.692 122.221 290.202 121.884C290.717 121.542 291.392 121.371 292.226 121.371C292.677 121.371 293.098 121.417 293.49 121.508C293.887 121.594 294.256 121.713 294.598 121.863L294.215 122.772C293.905 122.64 293.575 122.529 293.224 122.438C292.873 122.346 292.515 122.301 292.15 122.301C291.626 122.301 291.223 122.387 290.94 122.561C290.662 122.734 290.523 122.971 290.523 123.271C290.523 123.504 290.587 123.695 290.715 123.846C290.847 123.996 291.057 124.137 291.344 124.27C291.631 124.402 292.009 124.557 292.479 124.734C292.948 124.908 293.354 125.088 293.695 125.274C294.037 125.457 294.299 125.68 294.481 125.944C294.668 126.204 294.762 126.539 294.762 126.949ZM301.365 129H300.224V118.363H301.365V129ZM306.567 121.385C307.461 121.385 308.124 121.585 308.557 121.986C308.99 122.387 309.206 123.028 309.206 123.907V129H308.379L308.16 127.893H308.105C307.896 128.166 307.677 128.396 307.449 128.583C307.221 128.765 306.957 128.904 306.656 129C306.36 129.091 305.995 129.137 305.562 129.137C305.107 129.137 304.701 129.057 304.346 128.897C303.995 128.738 303.717 128.496 303.512 128.173C303.311 127.849 303.211 127.439 303.211 126.942C303.211 126.195 303.507 125.621 304.1 125.22C304.692 124.819 305.594 124.6 306.807 124.563L308.099 124.509V124.051C308.099 123.404 307.96 122.95 307.682 122.69C307.404 122.431 307.012 122.301 306.506 122.301C306.114 122.301 305.74 122.358 305.385 122.472C305.029 122.586 304.692 122.72 304.373 122.875L304.024 122.014C304.362 121.84 304.749 121.692 305.187 121.569C305.624 121.446 306.084 121.385 306.567 121.385ZM308.085 125.309L306.943 125.356C306.009 125.393 305.351 125.546 304.968 125.814C304.585 126.083 304.394 126.464 304.394 126.956C304.394 127.384 304.523 127.701 304.783 127.906C305.043 128.111 305.387 128.214 305.815 128.214C306.481 128.214 307.025 128.029 307.449 127.66C307.873 127.291 308.085 126.737 308.085 125.999V125.309ZM317.847 129.137C316.899 129.137 316.147 128.813 315.591 128.166C315.039 127.519 314.764 126.557 314.764 125.281C314.764 123.992 315.046 123.019 315.611 122.362C316.176 121.701 316.928 121.371 317.867 121.371C318.264 121.371 318.61 121.424 318.906 121.528C319.202 121.633 319.458 121.774 319.672 121.952C319.886 122.125 320.066 122.324 320.212 122.547H320.294C320.276 122.406 320.257 122.212 320.239 121.966C320.221 121.72 320.212 121.519 320.212 121.364V118.363H321.347V129H320.431L320.26 127.934H320.212C320.071 128.157 319.891 128.36 319.672 128.542C319.458 128.724 319.2 128.87 318.899 128.979C318.603 129.084 318.252 129.137 317.847 129.137ZM318.024 128.193C318.826 128.193 319.394 127.965 319.727 127.51C320.059 127.054 320.226 126.377 320.226 125.479V125.274C320.226 124.322 320.066 123.59 319.747 123.08C319.433 122.57 318.858 122.314 318.024 122.314C317.327 122.314 316.805 122.583 316.459 123.121C316.113 123.654 315.939 124.383 315.939 125.309C315.939 126.229 316.11 126.94 316.452 127.441C316.799 127.943 317.323 128.193 318.024 128.193ZM326.638 121.371C327.276 121.371 327.823 121.512 328.278 121.795C328.734 122.077 329.083 122.474 329.324 122.984C329.566 123.49 329.687 124.083 329.687 124.762V125.466H324.512C324.525 126.345 324.744 127.015 325.168 127.476C325.592 127.936 326.189 128.166 326.959 128.166C327.433 128.166 327.852 128.123 328.217 128.036C328.581 127.95 328.96 127.822 329.352 127.653V128.651C328.973 128.82 328.597 128.943 328.224 129.021C327.854 129.098 327.417 129.137 326.911 129.137C326.191 129.137 325.562 128.991 325.024 128.699C324.491 128.403 324.076 127.97 323.78 127.4C323.484 126.831 323.336 126.133 323.336 125.309C323.336 124.502 323.47 123.805 323.739 123.217C324.013 122.624 324.396 122.169 324.888 121.85C325.384 121.531 325.968 121.371 326.638 121.371ZM326.624 122.301C326.018 122.301 325.535 122.499 325.175 122.896C324.815 123.292 324.601 123.846 324.532 124.557H328.497C328.493 124.11 328.422 123.718 328.285 123.381C328.153 123.039 327.95 122.775 327.677 122.588C327.403 122.396 327.052 122.301 326.624 122.301ZM336.461 126.949C336.461 127.428 336.34 127.831 336.099 128.159C335.862 128.483 335.52 128.727 335.073 128.891C334.631 129.055 334.103 129.137 333.487 129.137C332.963 129.137 332.51 129.096 332.127 129.014C331.744 128.932 331.409 128.815 331.122 128.665V127.619C331.427 127.77 331.792 127.906 332.216 128.029C332.64 128.152 333.073 128.214 333.515 128.214C334.162 128.214 334.631 128.109 334.923 127.899C335.215 127.69 335.36 127.405 335.36 127.045C335.36 126.84 335.301 126.66 335.183 126.505C335.069 126.345 334.875 126.193 334.602 126.047C334.328 125.896 333.95 125.732 333.467 125.555C332.988 125.372 332.574 125.192 332.223 125.015C331.876 124.832 331.607 124.611 331.416 124.352C331.229 124.092 331.136 123.755 331.136 123.34C331.136 122.706 331.391 122.221 331.901 121.884C332.416 121.542 333.091 121.371 333.925 121.371C334.376 121.371 334.798 121.417 335.189 121.508C335.586 121.594 335.955 121.713 336.297 121.863L335.914 122.772C335.604 122.64 335.274 122.529 334.923 122.438C334.572 122.346 334.214 122.301 333.85 122.301C333.326 122.301 332.922 122.387 332.64 122.561C332.362 122.734 332.223 122.971 332.223 123.271C332.223 123.504 332.286 123.695 332.414 123.846C332.546 123.996 332.756 124.137 333.043 124.27C333.33 124.402 333.708 124.557 334.178 124.734C334.647 124.908 335.053 125.088 335.395 125.274C335.736 125.457 335.998 125.68 336.181 125.944C336.368 126.204 336.461 126.539 336.461 126.949ZM341.287 129.137C340.613 129.137 340.018 128.998 339.503 128.72C338.988 128.442 338.587 128.018 338.3 127.448C338.013 126.879 337.869 126.161 337.869 125.295C337.869 124.388 338.02 123.647 338.32 123.073C338.626 122.494 339.045 122.066 339.578 121.788C340.111 121.51 340.717 121.371 341.396 121.371C341.77 121.371 342.13 121.41 342.477 121.487C342.827 121.56 343.115 121.654 343.338 121.768L342.996 122.718C342.768 122.627 342.504 122.545 342.203 122.472C341.907 122.399 341.629 122.362 341.369 122.362C340.85 122.362 340.417 122.474 340.07 122.697C339.729 122.921 339.471 123.249 339.298 123.682C339.129 124.115 339.045 124.648 339.045 125.281C339.045 125.887 339.127 126.405 339.291 126.833C339.46 127.261 339.708 127.59 340.036 127.817C340.369 128.041 340.784 128.152 341.28 128.152C341.677 128.152 342.035 128.111 342.354 128.029C342.673 127.943 342.962 127.842 343.222 127.729V128.74C342.971 128.868 342.691 128.966 342.381 129.034C342.076 129.103 341.711 129.137 341.287 129.137ZM348.403 121.371C348.554 121.371 348.711 121.38 348.875 121.398C349.039 121.412 349.185 121.433 349.312 121.46L349.169 122.513C349.046 122.481 348.909 122.456 348.759 122.438C348.608 122.419 348.467 122.41 348.335 122.41C348.034 122.41 347.749 122.472 347.48 122.595C347.216 122.713 346.984 122.886 346.783 123.114C346.583 123.338 346.425 123.609 346.312 123.928C346.198 124.242 346.141 124.593 346.141 124.98V129H344.999V121.508H345.942L346.065 122.889H346.113C346.268 122.611 346.455 122.358 346.674 122.13C346.893 121.897 347.146 121.713 347.433 121.576C347.724 121.439 348.048 121.371 348.403 121.371ZM351.862 121.508V129H350.728V121.508H351.862ZM351.309 118.705C351.495 118.705 351.655 118.767 351.787 118.89C351.924 119.008 351.992 119.195 351.992 119.45C351.992 119.701 351.924 119.888 351.787 120.011C351.655 120.134 351.495 120.195 351.309 120.195C351.113 120.195 350.949 120.134 350.816 120.011C350.689 119.888 350.625 119.701 350.625 119.45C350.625 119.195 350.689 119.008 350.816 118.89C350.949 118.767 351.113 118.705 351.309 118.705ZM357.789 121.371C358.723 121.371 359.468 121.692 360.024 122.335C360.58 122.978 360.858 123.944 360.858 125.233C360.858 126.086 360.731 126.801 360.476 127.38C360.22 127.959 359.86 128.396 359.396 128.692C358.935 128.989 358.391 129.137 357.762 129.137C357.365 129.137 357.017 129.084 356.716 128.979C356.415 128.875 356.158 128.733 355.943 128.556C355.729 128.378 355.551 128.184 355.41 127.975H355.328C355.342 128.152 355.358 128.367 355.376 128.617C355.399 128.868 355.41 129.087 355.41 129.273V132.35H354.269V121.508H355.205L355.355 122.615H355.41C355.556 122.387 355.734 122.18 355.943 121.993C356.153 121.802 356.408 121.651 356.709 121.542C357.014 121.428 357.374 121.371 357.789 121.371ZM357.591 122.328C357.071 122.328 356.652 122.428 356.333 122.629C356.019 122.829 355.788 123.13 355.643 123.531C355.497 123.928 355.419 124.427 355.41 125.028V125.247C355.41 125.881 355.479 126.416 355.615 126.854C355.757 127.291 355.987 127.624 356.306 127.852C356.629 128.079 357.062 128.193 357.604 128.193C358.069 128.193 358.457 128.068 358.767 127.817C359.076 127.567 359.307 127.218 359.457 126.771C359.612 126.32 359.689 125.803 359.689 125.22C359.689 124.336 359.516 123.634 359.17 123.114C358.828 122.59 358.302 122.328 357.591 122.328ZM365.842 129.137C365.167 129.137 364.573 128.998 364.058 128.72C363.543 128.442 363.142 128.018 362.854 127.448C362.567 126.879 362.424 126.161 362.424 125.295C362.424 124.388 362.574 123.647 362.875 123.073C363.18 122.494 363.6 122.066 364.133 121.788C364.666 121.51 365.272 121.371 365.951 121.371C366.325 121.371 366.685 121.41 367.031 121.487C367.382 121.56 367.669 121.654 367.893 121.768L367.551 122.718C367.323 122.627 367.059 122.545 366.758 122.472C366.462 122.399 366.184 122.362 365.924 122.362C365.404 122.362 364.971 122.474 364.625 122.697C364.283 122.921 364.026 123.249 363.853 123.682C363.684 124.115 363.6 124.648 363.6 125.281C363.6 125.887 363.682 126.405 363.846 126.833C364.014 127.261 364.263 127.59 364.591 127.817C364.924 128.041 365.338 128.152 365.835 128.152C366.231 128.152 366.589 128.111 366.908 128.029C367.227 127.943 367.517 127.842 367.776 127.729V128.74C367.526 128.868 367.245 128.966 366.936 129.034C366.63 129.103 366.266 129.137 365.842 129.137ZM370.688 121.508V129H369.554V121.508H370.688ZM370.135 118.705C370.322 118.705 370.481 118.767 370.613 118.89C370.75 119.008 370.818 119.195 370.818 119.45C370.818 119.701 370.75 119.888 370.613 120.011C370.481 120.134 370.322 120.195 370.135 120.195C369.939 120.195 369.775 120.134 369.643 120.011C369.515 119.888 369.451 119.701 369.451 119.45C369.451 119.195 369.515 119.008 369.643 118.89C369.775 118.767 369.939 118.705 370.135 118.705ZM379.555 125.24C379.555 125.855 379.475 126.405 379.315 126.888C379.156 127.371 378.926 127.779 378.625 128.111C378.324 128.444 377.96 128.699 377.531 128.877C377.107 129.05 376.627 129.137 376.089 129.137C375.588 129.137 375.127 129.05 374.708 128.877C374.293 128.699 373.933 128.444 373.628 128.111C373.327 127.779 373.092 127.371 372.924 126.888C372.76 126.405 372.678 125.855 372.678 125.24C372.678 124.42 372.817 123.723 373.095 123.148C373.373 122.57 373.769 122.13 374.284 121.829C374.804 121.524 375.421 121.371 376.137 121.371C376.82 121.371 377.417 121.524 377.928 121.829C378.443 122.134 378.841 122.576 379.124 123.155C379.411 123.729 379.555 124.424 379.555 125.24ZM373.854 125.24C373.854 125.842 373.933 126.364 374.093 126.806C374.252 127.248 374.498 127.59 374.831 127.831C375.164 128.073 375.592 128.193 376.116 128.193C376.636 128.193 377.062 128.073 377.395 127.831C377.732 127.59 377.98 127.248 378.14 126.806C378.299 126.364 378.379 125.842 378.379 125.24C378.379 124.643 378.299 124.128 378.14 123.695C377.98 123.258 377.734 122.921 377.401 122.684C377.069 122.447 376.638 122.328 376.109 122.328C375.33 122.328 374.758 122.586 374.394 123.101C374.034 123.616 373.854 124.329 373.854 125.24ZM378.099 118.274V118.411C378.007 118.543 377.882 118.703 377.723 118.89C377.568 119.072 377.395 119.266 377.203 119.471C377.012 119.671 376.818 119.863 376.622 120.045C376.431 120.227 376.253 120.384 376.089 120.517H375.33V120.353C375.476 120.179 375.635 119.972 375.809 119.73C375.982 119.484 376.15 119.234 376.314 118.979C376.479 118.719 376.615 118.484 376.725 118.274H378.099ZM385.064 121.371C385.953 121.371 386.625 121.59 387.081 122.027C387.537 122.46 387.765 123.158 387.765 124.119V129H386.644V124.194C386.644 123.57 386.5 123.103 386.213 122.793C385.93 122.483 385.495 122.328 384.907 122.328C384.078 122.328 383.494 122.563 383.157 123.032C382.82 123.502 382.651 124.183 382.651 125.076V129H381.517V121.508H382.433L382.604 122.588H382.665C382.825 122.324 383.027 122.103 383.273 121.925C383.52 121.743 383.795 121.606 384.101 121.515C384.406 121.419 384.727 121.371 385.064 121.371ZM396.405 129.137C395.457 129.137 394.705 128.813 394.149 128.166C393.598 127.519 393.322 126.557 393.322 125.281C393.322 123.992 393.605 123.019 394.17 122.362C394.735 121.701 395.487 121.371 396.426 121.371C396.822 121.371 397.169 121.424 397.465 121.528C397.761 121.633 398.016 121.774 398.23 121.952C398.445 122.125 398.625 122.324 398.771 122.547H398.853C398.834 122.406 398.816 122.212 398.798 121.966C398.78 121.72 398.771 121.519 398.771 121.364V118.363H399.905V129H398.989L398.818 127.934H398.771C398.629 128.157 398.449 128.36 398.23 128.542C398.016 128.724 397.759 128.87 397.458 128.979C397.162 129.084 396.811 129.137 396.405 129.137ZM396.583 128.193C397.385 128.193 397.952 127.965 398.285 127.51C398.618 127.054 398.784 126.377 398.784 125.479V125.274C398.784 124.322 398.625 123.59 398.306 123.08C397.991 122.57 397.417 122.314 396.583 122.314C395.886 122.314 395.364 122.583 395.018 123.121C394.671 123.654 394.498 124.383 394.498 125.309C394.498 126.229 394.669 126.94 395.011 127.441C395.357 127.943 395.881 128.193 396.583 128.193ZM405.196 121.371C405.834 121.371 406.381 121.512 406.837 121.795C407.293 122.077 407.641 122.474 407.883 122.984C408.124 123.49 408.245 124.083 408.245 124.762V125.466H403.07C403.084 126.345 403.303 127.015 403.727 127.476C404.15 127.936 404.747 128.166 405.518 128.166C405.992 128.166 406.411 128.123 406.775 128.036C407.14 127.95 407.518 127.822 407.91 127.653V128.651C407.532 128.82 407.156 128.943 406.782 129.021C406.413 129.098 405.976 129.137 405.47 129.137C404.75 129.137 404.121 128.991 403.583 128.699C403.05 128.403 402.635 127.97 402.339 127.4C402.043 126.831 401.895 126.133 401.895 125.309C401.895 124.502 402.029 123.805 402.298 123.217C402.571 122.624 402.954 122.169 403.446 121.85C403.943 121.531 404.526 121.371 405.196 121.371ZM405.183 122.301C404.576 122.301 404.093 122.499 403.733 122.896C403.373 123.292 403.159 123.846 403.091 124.557H407.056C407.051 124.11 406.98 123.718 406.844 123.381C406.712 123.039 406.509 122.775 406.235 122.588C405.962 122.396 405.611 122.301 405.183 122.301ZM411.314 129H410.173V118.363H411.314V129ZM420.153 121.385C421.047 121.385 421.71 121.585 422.143 121.986C422.576 122.387 422.792 123.028 422.792 123.907V129H421.965L421.746 127.893H421.691C421.482 128.166 421.263 128.396 421.035 128.583C420.807 128.765 420.543 128.904 420.242 129C419.946 129.091 419.581 129.137 419.148 129.137C418.693 129.137 418.287 129.057 417.932 128.897C417.581 128.738 417.303 128.496 417.098 128.173C416.897 127.849 416.797 127.439 416.797 126.942C416.797 126.195 417.093 125.621 417.686 125.22C418.278 124.819 419.18 124.6 420.393 124.563L421.685 124.509V124.051C421.685 123.404 421.546 122.95 421.268 122.69C420.99 122.431 420.598 122.301 420.092 122.301C419.7 122.301 419.326 122.358 418.971 122.472C418.615 122.586 418.278 122.72 417.959 122.875L417.61 122.014C417.948 121.84 418.335 121.692 418.772 121.569C419.21 121.446 419.67 121.385 420.153 121.385ZM421.671 125.309L420.529 125.356C419.595 125.393 418.937 125.546 418.554 125.814C418.171 126.083 417.979 126.464 417.979 126.956C417.979 127.384 418.109 127.701 418.369 127.906C418.629 128.111 418.973 128.214 419.401 128.214C420.067 128.214 420.611 128.029 421.035 127.66C421.459 127.291 421.671 126.737 421.671 125.999V125.309ZM428.131 129.137C427.456 129.137 426.862 128.998 426.347 128.72C425.832 128.442 425.431 128.018 425.144 127.448C424.856 126.879 424.713 126.161 424.713 125.295C424.713 124.388 424.863 123.647 425.164 123.073C425.469 122.494 425.889 122.066 426.422 121.788C426.955 121.51 427.561 121.371 428.24 121.371C428.614 121.371 428.974 121.41 429.32 121.487C429.671 121.56 429.958 121.654 430.182 121.768L429.84 122.718C429.612 122.627 429.348 122.545 429.047 122.472C428.751 122.399 428.473 122.362 428.213 122.362C427.693 122.362 427.26 122.474 426.914 122.697C426.572 122.921 426.315 123.249 426.142 123.682C425.973 124.115 425.889 124.648 425.889 125.281C425.889 125.887 425.971 126.405 426.135 126.833C426.303 127.261 426.552 127.59 426.88 127.817C427.213 128.041 427.627 128.152 428.124 128.152C428.521 128.152 428.878 128.111 429.197 128.029C429.516 127.943 429.806 127.842 430.065 127.729V128.74C429.815 128.868 429.535 128.966 429.225 129.034C428.919 129.103 428.555 129.137 428.131 129.137ZM434.844 129.137C434.169 129.137 433.575 128.998 433.06 128.72C432.545 128.442 432.144 128.018 431.856 127.448C431.569 126.879 431.426 126.161 431.426 125.295C431.426 124.388 431.576 123.647 431.877 123.073C432.182 122.494 432.602 122.066 433.135 121.788C433.668 121.51 434.274 121.371 434.953 121.371C435.327 121.371 435.687 121.41 436.033 121.487C436.384 121.56 436.671 121.654 436.895 121.768L436.553 122.718C436.325 122.627 436.061 122.545 435.76 122.472C435.464 122.399 435.186 122.362 434.926 122.362C434.406 122.362 433.973 122.474 433.627 122.697C433.285 122.921 433.028 123.249 432.854 123.682C432.686 124.115 432.602 124.648 432.602 125.281C432.602 125.887 432.684 126.405 432.848 126.833C433.016 127.261 433.265 127.59 433.593 127.817C433.925 128.041 434.34 128.152 434.837 128.152C435.233 128.152 435.591 128.111 435.91 128.029C436.229 127.943 436.519 127.842 436.778 127.729V128.74C436.528 128.868 436.247 128.966 435.938 129.034C435.632 129.103 435.268 129.137 434.844 129.137ZM441.44 121.371C442.078 121.371 442.625 121.512 443.081 121.795C443.537 122.077 443.885 122.474 444.127 122.984C444.368 123.49 444.489 124.083 444.489 124.762V125.466H439.314C439.328 126.345 439.547 127.015 439.971 127.476C440.395 127.936 440.992 128.166 441.762 128.166C442.236 128.166 442.655 128.123 443.02 128.036C443.384 127.95 443.762 127.822 444.154 127.653V128.651C443.776 128.82 443.4 128.943 443.026 129.021C442.657 129.098 442.22 129.137 441.714 129.137C440.994 129.137 440.365 128.991 439.827 128.699C439.294 128.403 438.879 127.97 438.583 127.4C438.287 126.831 438.139 126.133 438.139 125.309C438.139 124.502 438.273 123.805 438.542 123.217C438.815 122.624 439.198 122.169 439.69 121.85C440.187 121.531 440.771 121.371 441.44 121.371ZM441.427 122.301C440.821 122.301 440.338 122.499 439.978 122.896C439.618 123.292 439.403 123.846 439.335 124.557H443.3C443.295 124.11 443.225 123.718 443.088 123.381C442.956 123.039 442.753 122.775 442.479 122.588C442.206 122.396 441.855 122.301 441.427 122.301ZM451.264 126.949C451.264 127.428 451.143 127.831 450.901 128.159C450.664 128.483 450.323 128.727 449.876 128.891C449.434 129.055 448.905 129.137 448.29 129.137C447.766 129.137 447.312 129.096 446.93 129.014C446.547 128.932 446.212 128.815 445.925 128.665V127.619C446.23 127.77 446.595 127.906 447.019 128.029C447.442 128.152 447.875 128.214 448.317 128.214C448.965 128.214 449.434 128.109 449.726 127.899C450.017 127.69 450.163 127.405 450.163 127.045C450.163 126.84 450.104 126.66 449.985 126.505C449.871 126.345 449.678 126.193 449.404 126.047C449.131 125.896 448.753 125.732 448.27 125.555C447.791 125.372 447.376 125.192 447.025 125.015C446.679 124.832 446.41 124.611 446.219 124.352C446.032 124.092 445.938 123.755 445.938 123.34C445.938 122.706 446.194 122.221 446.704 121.884C447.219 121.542 447.894 121.371 448.728 121.371C449.179 121.371 449.6 121.417 449.992 121.508C450.389 121.594 450.758 121.713 451.1 121.863L450.717 122.772C450.407 122.64 450.076 122.529 449.726 122.438C449.375 122.346 449.017 122.301 448.652 122.301C448.128 122.301 447.725 122.387 447.442 122.561C447.164 122.734 447.025 122.971 447.025 123.271C447.025 123.504 447.089 123.695 447.217 123.846C447.349 123.996 447.559 124.137 447.846 124.27C448.133 124.402 448.511 124.557 448.98 124.734C449.45 124.908 449.855 125.088 450.197 125.274C450.539 125.457 450.801 125.68 450.983 125.944C451.17 126.204 451.264 126.539 451.264 126.949ZM459.549 125.24C459.549 125.855 459.469 126.405 459.31 126.888C459.15 127.371 458.92 127.779 458.619 128.111C458.318 128.444 457.954 128.699 457.525 128.877C457.102 129.05 456.621 129.137 456.083 129.137C455.582 129.137 455.121 129.05 454.702 128.877C454.287 128.699 453.927 128.444 453.622 128.111C453.321 127.779 453.087 127.371 452.918 126.888C452.754 126.405 452.672 125.855 452.672 125.24C452.672 124.42 452.811 123.723 453.089 123.148C453.367 122.57 453.763 122.13 454.278 121.829C454.798 121.524 455.415 121.371 456.131 121.371C456.814 121.371 457.411 121.524 457.922 121.829C458.437 122.134 458.836 122.576 459.118 123.155C459.405 123.729 459.549 124.424 459.549 125.24ZM453.848 125.24C453.848 125.842 453.927 126.364 454.087 126.806C454.246 127.248 454.493 127.59 454.825 127.831C455.158 128.073 455.586 128.193 456.11 128.193C456.63 128.193 457.056 128.073 457.389 127.831C457.726 127.59 457.974 127.248 458.134 126.806C458.293 126.364 458.373 125.842 458.373 125.24C458.373 124.643 458.293 124.128 458.134 123.695C457.974 123.258 457.728 122.921 457.396 122.684C457.063 122.447 456.632 122.328 456.104 122.328C455.324 122.328 454.752 122.586 454.388 123.101C454.028 123.616 453.848 124.329 453.848 125.24ZM461.34 128.289C461.34 127.97 461.417 127.744 461.572 127.612C461.727 127.476 461.916 127.407 462.14 127.407C462.372 127.407 462.568 127.476 462.728 127.612C462.887 127.744 462.967 127.97 462.967 128.289C462.967 128.604 462.887 128.834 462.728 128.979C462.568 129.121 462.372 129.191 462.14 129.191C461.916 129.191 461.727 129.121 461.572 128.979C461.417 128.834 461.34 128.604 461.34 128.289Z" fill="#38485C"/>
<path d="M499 94.7106C498.61 95.1006 498.61 95.7306 499 96.1206L502.88 100.001L499 103.881C498.61 104.271 498.61 104.901 499 105.291C499.39 105.681 500.02 105.681 500.41 105.291L505 100.701C505.39 100.311 505.39 99.6806 505 99.2906L500.41 94.7006C500.03 94.3206 499.39 94.3206 499 94.7106Z" fill="#101E37"/>
</svg>
