<svg width="728" height="240" viewBox="0 0 728 240" fill="none" xmlns="http://www.w3.org/2000/svg">
<rect x="1" y="1" width="726" height="238" rx="7" fill="#F3F6F9" stroke="#D1D8E0" stroke-width="2"/>
<g opacity="0.2">
<rect x="76.7111" y="1.82422" width="32.3022" height="236.352" fill="#9EAAB8"/>
<rect x="175.207" y="1.82422" width="32.3022" height="236.352" fill="#9EAAB8"/>
<rect x="273.702" y="1.82422" width="32.3022" height="236.352" fill="#9EAAB8"/>
<rect x="372.197" y="1.82422" width="32.3022" height="236.352" fill="#9EAAB8"/>
<rect x="470.693" y="1.82422" width="32.3022" height="236.352" fill="#9EAAB8"/>
<rect x="569.188" y="1.82422" width="32.3022" height="236.352" fill="#9EAAB8"/>
<rect x="125.958" y="1.82422" width="32.3022" height="236.352" fill="#9EAAB8"/>
<rect x="224.453" y="1.82422" width="32.3022" height="236.352" fill="#9EAAB8"/>
<rect x="322.95" y="1.82422" width="32.3022" height="236.352" fill="#9EAAB8"/>
<rect x="421.445" y="1.82422" width="32.3022" height="236.352" fill="#9EAAB8"/>
<rect x="519.94" y="1.82422" width="32.3022" height="236.352" fill="#9EAAB8"/>
<rect x="618.437" y="1.82422" width="32.3022" height="236.352" fill="#9EAAB8"/>
</g>
<rect x="77.1854" y="148" width="178.955" height="47" rx="4.5" fill="white" stroke="#D1D8E0"/>
<rect x="471.282" y="148" width="178.955" height="47" rx="4.5" fill="white" stroke="#D1D8E0"/>
<rect x="274.201" y="148" width="178.955" height="47" rx="4.5" fill="white" stroke="#D1D8E0"/>
<rect x="76.163" y="49.5" width="129.876" height="47" rx="4.5" fill="white" stroke="#D1D8E0"/>
<rect x="371.657" y="49.5" width="129.876" height="47" rx="4.5" fill="white" stroke="#D1D8E0"/>
<rect x="223.932" y="49.5" width="129.876" height="47" rx="4.5" fill="white" stroke="#D1D8E0"/>
<rect x="519.416" y="49.5" width="129.876" height="47" rx="4.5" fill="white" stroke="#D1D8E0"/>
</svg>
