<svg width="728" height="204" viewBox="0 0 728 204" fill="none" xmlns="http://www.w3.org/2000/svg">
<rect x="1" y="1" width="726" height="202" rx="7" fill="#F3F6F9"/>
<rect x="1" y="1" width="726" height="202" rx="7" stroke="#E6EBF0" stroke-width="2"/>
<path d="M341.6 63.2002C345.576 63.2002 348.8 66.4239 348.8 70.4004V133.6C348.8 137.576 345.576 140.8 341.6 140.8H76.0004C72.0239 140.8 68.8002 137.576 68.8002 133.6V70.4004C68.8002 66.4239 72.0239 63.2002 76.0004 63.2002H341.6Z" fill="white"/>
<path d="M341.6 63.2002C345.576 63.2002 348.8 66.4239 348.8 70.4004V133.6C348.8 137.576 345.576 140.8 341.6 140.8H76.0004C72.0239 140.8 68.8002 137.576 68.8002 133.6V70.4004C68.8002 66.4239 72.0239 63.2002 76.0004 63.2002H341.6Z" stroke="#E6EBF0" stroke-width="1.6"/>
<path d="M95.7812 98.2L94.6562 95.3H90.9937L89.875 98.2H88.8L92.375 89.025H93.3312L96.8812 98.2H95.7812ZM94.3375 94.3562L93.2687 91.475C93.2437 91.4 93.2021 91.2771 93.1437 91.1062C93.0896 90.9354 93.0333 90.7583 92.975 90.575C92.9167 90.3917 92.8687 90.2437 92.8312 90.1312C92.7896 90.3021 92.7437 90.4729 92.6937 90.6437C92.6479 90.8104 92.6021 90.9667 92.5562 91.1125C92.5104 91.2542 92.4708 91.375 92.4375 91.475L91.35 94.3562H94.3375ZM100.737 98.325C100.121 98.325 99.5771 98.1979 99.1062 97.9437C98.6354 97.6896 98.2687 97.3021 98.0062 96.7812C97.7437 96.2604 97.6125 95.6042 97.6125 94.8125C97.6125 93.9833 97.75 93.3062 98.025 92.7812C98.3042 92.2521 98.6875 91.8604 99.175 91.6062C99.6625 91.3521 100.217 91.225 100.837 91.225C101.179 91.225 101.508 91.2604 101.825 91.3312C102.146 91.3979 102.408 91.4833 102.612 91.5875L102.3 92.4562C102.092 92.3729 101.85 92.2979 101.575 92.2312C101.304 92.1646 101.05 92.1312 100.812 92.1312C100.337 92.1312 99.9417 92.2333 99.625 92.4375C99.3125 92.6417 99.0771 92.9417 98.9187 93.3375C98.7646 93.7333 98.6875 94.2208 98.6875 94.8C98.6875 95.3542 98.7625 95.8271 98.9125 96.2187C99.0667 96.6104 99.2937 96.9104 99.5937 97.1187C99.8979 97.3229 100.277 97.425 100.731 97.425C101.094 97.425 101.421 97.3875 101.712 97.3125C102.004 97.2333 102.269 97.1417 102.506 97.0375V97.9625C102.277 98.0792 102.021 98.1687 101.737 98.2312C101.458 98.2937 101.125 98.325 100.737 98.325ZM106.875 98.325C106.258 98.325 105.715 98.1979 105.244 97.9437C104.773 97.6896 104.406 97.3021 104.144 96.7812C103.881 96.2604 103.75 95.6042 103.75 94.8125C103.75 93.9833 103.887 93.3062 104.162 92.7812C104.442 92.2521 104.825 91.8604 105.312 91.6062C105.8 91.3521 106.354 91.225 106.975 91.225C107.317 91.225 107.646 91.2604 107.962 91.3312C108.283 91.3979 108.546 91.4833 108.75 91.5875L108.437 92.4562C108.229 92.3729 107.987 92.2979 107.712 92.2312C107.442 92.1646 107.187 92.1312 106.95 92.1312C106.475 92.1312 106.079 92.2333 105.762 92.4375C105.45 92.6417 105.215 92.9417 105.056 93.3375C104.902 93.7333 104.825 94.2208 104.825 94.8C104.825 95.3542 104.9 95.8271 105.05 96.2187C105.204 96.6104 105.431 96.9104 105.731 97.1187C106.035 97.3229 106.415 97.425 106.869 97.425C107.231 97.425 107.558 97.3875 107.85 97.3125C108.142 97.2333 108.406 97.1417 108.644 97.0375V97.9625C108.415 98.0792 108.158 98.1687 107.875 98.2312C107.596 98.2937 107.262 98.325 106.875 98.325ZM112.906 91.225C113.49 91.225 113.99 91.3542 114.406 91.6125C114.823 91.8708 115.142 92.2333 115.362 92.7C115.583 93.1625 115.694 93.7042 115.694 94.325V94.9687H110.962C110.975 95.7729 111.175 96.3854 111.562 96.8062C111.95 97.2271 112.496 97.4375 113.2 97.4375C113.633 97.4375 114.017 97.3979 114.35 97.3187C114.683 97.2396 115.029 97.1229 115.387 96.9687V97.8812C115.042 98.0354 114.698 98.1479 114.356 98.2187C114.019 98.2896 113.619 98.325 113.156 98.325C112.498 98.325 111.923 98.1917 111.431 97.925C110.944 97.6542 110.565 97.2583 110.294 96.7375C110.023 96.2167 109.887 95.5792 109.887 94.825C109.887 94.0875 110.01 93.45 110.256 92.9125C110.506 92.3708 110.856 91.9542 111.306 91.6625C111.76 91.3708 112.294 91.225 112.906 91.225ZM112.894 92.075C112.34 92.075 111.898 92.2562 111.569 92.6187C111.24 92.9812 111.044 93.4875 110.981 94.1375H114.606C114.602 93.7292 114.537 93.3708 114.412 93.0625C114.292 92.75 114.106 92.5083 113.856 92.3375C113.606 92.1625 113.285 92.075 112.894 92.075ZM121.887 96.325C121.887 96.7625 121.777 97.1312 121.556 97.4312C121.34 97.7271 121.027 97.95 120.619 98.1C120.215 98.25 119.731 98.325 119.169 98.325C118.69 98.325 118.275 98.2875 117.925 98.2125C117.575 98.1375 117.269 98.0312 117.006 97.8937V96.9375C117.285 97.075 117.619 97.2 118.006 97.3125C118.394 97.425 118.79 97.4812 119.194 97.4812C119.785 97.4812 120.215 97.3854 120.481 97.1937C120.748 97.0021 120.881 96.7417 120.881 96.4125C120.881 96.225 120.827 96.0604 120.719 95.9187C120.615 95.7729 120.437 95.6333 120.187 95.5C119.937 95.3625 119.592 95.2125 119.15 95.05C118.712 94.8833 118.333 94.7187 118.012 94.5562C117.696 94.3896 117.45 94.1875 117.275 93.95C117.104 93.7125 117.019 93.4042 117.019 93.025C117.019 92.4458 117.252 92.0021 117.719 91.6937C118.19 91.3812 118.806 91.225 119.569 91.225C119.981 91.225 120.367 91.2667 120.725 91.35C121.087 91.4292 121.425 91.5375 121.737 91.675L121.387 92.5062C121.104 92.3854 120.802 92.2833 120.481 92.2C120.16 92.1167 119.833 92.075 119.5 92.075C119.021 92.075 118.652 92.1542 118.394 92.3125C118.14 92.4708 118.012 92.6875 118.012 92.9625C118.012 93.175 118.071 93.35 118.187 93.4875C118.308 93.625 118.5 93.7542 118.762 93.875C119.025 93.9958 119.371 94.1375 119.8 94.3C120.229 94.4583 120.6 94.6229 120.912 94.7937C121.225 94.9604 121.465 95.1646 121.631 95.4062C121.802 95.6437 121.887 95.95 121.887 96.325ZM129.462 94.7625C129.462 95.325 129.39 95.8271 129.244 96.2687C129.098 96.7104 128.887 97.0833 128.612 97.3875C128.337 97.6917 128.004 97.925 127.612 98.0875C127.225 98.2458 126.785 98.325 126.294 98.325C125.835 98.325 125.415 98.2458 125.031 98.0875C124.652 97.925 124.323 97.6917 124.044 97.3875C123.769 97.0833 123.554 96.7104 123.4 96.2687C123.25 95.8271 123.175 95.325 123.175 94.7625C123.175 94.0125 123.302 93.375 123.556 92.85C123.81 92.3208 124.173 91.9187 124.644 91.6437C125.119 91.3646 125.683 91.225 126.337 91.225C126.962 91.225 127.508 91.3646 127.975 91.6437C128.446 91.9229 128.81 92.3271 129.069 92.8562C129.331 93.3812 129.462 94.0167 129.462 94.7625ZM124.25 94.7625C124.25 95.3125 124.323 95.7896 124.469 96.1937C124.615 96.5979 124.84 96.9104 125.144 97.1312C125.448 97.3521 125.84 97.4625 126.319 97.4625C126.794 97.4625 127.183 97.3521 127.487 97.1312C127.796 96.9104 128.023 96.5979 128.169 96.1937C128.315 95.7896 128.387 95.3125 128.387 94.7625C128.387 94.2167 128.315 93.7458 128.169 93.35C128.023 92.95 127.798 92.6417 127.494 92.425C127.19 92.2083 126.796 92.1 126.312 92.1C125.6 92.1 125.077 92.3354 124.744 92.8062C124.415 93.2771 124.25 93.9292 124.25 94.7625Z" fill="#101E37"/>
<path d="M94.3453 116.8H89.8937V108.805H94.3453V109.625H90.8234V112.212H94.143V113.021H90.8234V115.98H94.3453V116.8ZM99.8578 115.159C99.8578 115.542 99.7612 115.865 99.568 116.127C99.3784 116.386 99.1049 116.581 98.7476 116.712C98.394 116.844 97.9711 116.909 97.4789 116.909C97.0596 116.909 96.6969 116.877 96.3906 116.811C96.0844 116.745 95.8164 116.652 95.5867 116.532V115.695C95.831 115.816 96.1226 115.925 96.4617 116.023C96.8008 116.122 97.1471 116.171 97.5008 116.171C98.0185 116.171 98.394 116.087 98.6273 115.92C98.8607 115.752 98.9773 115.524 98.9773 115.236C98.9773 115.072 98.9299 114.928 98.8351 114.804C98.744 114.676 98.5891 114.554 98.3703 114.437C98.1516 114.317 97.8489 114.186 97.4625 114.044C97.0797 113.898 96.7479 113.754 96.4672 113.612C96.1901 113.466 95.975 113.289 95.8219 113.081C95.6724 112.873 95.5976 112.604 95.5976 112.272C95.5976 111.765 95.8018 111.377 96.2101 111.107C96.6221 110.834 97.1617 110.697 97.8289 110.697C98.1898 110.697 98.5271 110.733 98.8406 110.806C99.1578 110.876 99.4531 110.97 99.7266 111.091L99.4203 111.818C99.1724 111.712 98.9081 111.623 98.6273 111.55C98.3466 111.477 98.0604 111.441 97.7687 111.441C97.3495 111.441 97.0268 111.51 96.8008 111.648C96.5784 111.787 96.4672 111.977 96.4672 112.217C96.4672 112.403 96.5182 112.556 96.6203 112.677C96.726 112.797 96.8937 112.91 97.1234 113.016C97.3531 113.121 97.6557 113.245 98.0312 113.387C98.4068 113.526 98.7312 113.67 99.0047 113.82C99.2781 113.965 99.4877 114.144 99.6336 114.355C99.7831 114.563 99.8578 114.831 99.8578 115.159ZM103.254 116.166C103.403 116.166 103.556 116.153 103.713 116.127C103.87 116.102 103.998 116.071 104.096 116.034V116.74C103.99 116.787 103.843 116.827 103.653 116.86C103.467 116.893 103.285 116.909 103.106 116.909C102.789 116.909 102.501 116.855 102.242 116.745C101.983 116.632 101.776 116.443 101.619 116.177C101.466 115.91 101.389 115.542 101.389 115.072V111.517H100.536V111.074L101.395 110.719L101.755 109.417H102.302V110.806H104.058V111.517H102.302V115.045C102.302 115.42 102.388 115.701 102.559 115.887C102.734 116.073 102.966 116.166 103.254 116.166ZM107.552 110.708C108.267 110.708 108.797 110.868 109.144 111.189C109.49 111.51 109.663 112.022 109.663 112.726V116.8H109.002L108.827 115.914H108.783C108.615 116.133 108.44 116.317 108.258 116.466C108.076 116.612 107.864 116.723 107.623 116.8C107.386 116.873 107.095 116.909 106.748 116.909C106.384 116.909 106.059 116.846 105.775 116.718C105.494 116.59 105.272 116.397 105.108 116.138C104.947 115.879 104.867 115.551 104.867 115.154C104.867 114.556 105.104 114.097 105.578 113.776C106.052 113.455 106.774 113.28 107.744 113.251L108.777 113.207V112.841C108.777 112.323 108.666 111.96 108.444 111.752C108.221 111.545 107.908 111.441 107.503 111.441C107.19 111.441 106.891 111.486 106.606 111.577C106.322 111.668 106.052 111.776 105.797 111.9L105.518 111.211C105.788 111.072 106.098 110.954 106.448 110.855C106.798 110.757 107.166 110.708 107.552 110.708ZM108.766 113.847L107.853 113.885C107.106 113.914 106.579 114.036 106.273 114.252C105.966 114.467 105.813 114.771 105.813 115.165C105.813 115.508 105.917 115.761 106.125 115.925C106.333 116.089 106.608 116.171 106.951 116.171C107.483 116.171 107.919 116.023 108.258 115.728C108.597 115.433 108.766 114.99 108.766 114.399V113.847ZM116.751 110.697C117.261 110.697 117.699 110.81 118.063 111.036C118.428 111.262 118.707 111.579 118.9 111.987C119.093 112.392 119.19 112.866 119.19 113.409V113.973H115.05C115.061 114.676 115.236 115.212 115.575 115.58C115.914 115.949 116.392 116.133 117.008 116.133C117.387 116.133 117.722 116.098 118.014 116.029C118.306 115.96 118.608 115.858 118.922 115.723V116.521C118.619 116.656 118.318 116.754 118.02 116.816C117.724 116.878 117.374 116.909 116.97 116.909C116.393 116.909 115.89 116.793 115.46 116.559C115.034 116.322 114.702 115.976 114.465 115.52C114.228 115.065 114.109 114.507 114.109 113.847C114.109 113.202 114.217 112.644 114.432 112.173C114.651 111.699 114.957 111.335 115.351 111.08C115.748 110.824 116.215 110.697 116.751 110.697ZM116.74 111.441C116.255 111.441 115.868 111.599 115.58 111.916C115.292 112.234 115.121 112.677 115.066 113.245H118.238C118.235 112.888 118.178 112.574 118.069 112.305C117.963 112.031 117.801 111.82 117.582 111.67C117.363 111.517 117.083 111.441 116.74 111.441ZM124.609 115.159C124.609 115.542 124.513 115.865 124.32 116.127C124.13 116.386 123.856 116.581 123.499 116.712C123.146 116.844 122.723 116.909 122.23 116.909C121.811 116.909 121.448 116.877 121.142 116.811C120.836 116.745 120.568 116.652 120.338 116.532V115.695C120.583 115.816 120.874 115.925 121.213 116.023C121.552 116.122 121.899 116.171 122.252 116.171C122.77 116.171 123.146 116.087 123.379 115.92C123.612 115.752 123.729 115.524 123.729 115.236C123.729 115.072 123.681 114.928 123.587 114.804C123.496 114.676 123.341 114.554 123.122 114.437C122.903 114.317 122.601 114.186 122.214 114.044C121.831 113.898 121.499 113.754 121.219 113.612C120.942 113.466 120.727 113.289 120.573 113.081C120.424 112.873 120.349 112.604 120.349 112.272C120.349 111.765 120.553 111.377 120.962 111.107C121.374 110.834 121.913 110.697 122.58 110.697C122.941 110.697 123.279 110.733 123.592 110.806C123.909 110.876 124.205 110.97 124.478 111.091L124.172 111.818C123.924 111.712 123.66 111.623 123.379 111.55C123.098 111.477 122.812 111.441 122.52 111.441C122.101 111.441 121.778 111.51 121.552 111.648C121.33 111.787 121.219 111.977 121.219 112.217C121.219 112.403 121.27 112.556 121.372 112.677C121.478 112.797 121.645 112.91 121.875 113.016C122.105 113.121 122.407 113.245 122.783 113.387C123.158 113.526 123.483 113.67 123.756 113.82C124.03 113.965 124.239 114.144 124.385 114.355C124.535 114.563 124.609 114.831 124.609 115.159ZM129.892 116.8H128.979V108.291H129.892V116.8ZM134.054 110.708C134.768 110.708 135.299 110.868 135.645 111.189C135.992 111.51 136.165 112.022 136.165 112.726V116.8H135.503L135.328 115.914H135.284C135.117 116.133 134.942 116.317 134.759 116.466C134.577 116.612 134.366 116.723 134.125 116.8C133.888 116.873 133.596 116.909 133.25 116.909C132.885 116.909 132.561 116.846 132.277 116.718C131.996 116.59 131.773 116.397 131.609 116.138C131.449 115.879 131.369 115.551 131.369 115.154C131.369 114.556 131.606 114.097 132.08 113.776C132.554 113.455 133.276 113.28 134.245 113.251L135.279 113.207V112.841C135.279 112.323 135.168 111.96 134.945 111.752C134.723 111.545 134.409 111.441 134.005 111.441C133.691 111.441 133.392 111.486 133.108 111.577C132.823 111.668 132.554 111.776 132.298 111.9L132.02 111.211C132.289 111.072 132.599 110.954 132.949 110.855C133.299 110.757 133.667 110.708 134.054 110.708ZM135.268 113.847L134.355 113.885C133.607 113.914 133.08 114.036 132.774 114.252C132.468 114.467 132.315 114.771 132.315 115.165C132.315 115.508 132.419 115.761 132.627 115.925C132.834 116.089 133.11 116.171 133.452 116.171C133.985 116.171 134.42 116.023 134.759 115.728C135.098 115.433 135.268 114.99 135.268 114.399V113.847ZM143.077 116.909C142.319 116.909 141.717 116.651 141.273 116.133C140.831 115.615 140.611 114.846 140.611 113.825C140.611 112.793 140.837 112.015 141.289 111.49C141.741 110.961 142.343 110.697 143.094 110.697C143.411 110.697 143.688 110.739 143.925 110.823C144.162 110.907 144.366 111.02 144.537 111.162C144.709 111.3 144.853 111.459 144.97 111.637H145.035C145.021 111.524 145.006 111.37 144.991 111.173C144.977 110.976 144.97 110.815 144.97 110.691V108.291H145.877V116.8H145.145L145.008 115.947H144.97C144.856 116.126 144.712 116.288 144.537 116.434C144.366 116.579 144.16 116.696 143.92 116.784C143.683 116.867 143.402 116.909 143.077 116.909ZM143.22 116.155C143.861 116.155 144.315 115.972 144.581 115.608C144.847 115.243 144.98 114.702 144.98 113.984V113.82C144.98 113.058 144.853 112.472 144.598 112.064C144.346 111.656 143.887 111.452 143.22 111.452C142.662 111.452 142.244 111.667 141.967 112.097C141.69 112.523 141.552 113.107 141.552 113.847C141.552 114.583 141.688 115.152 141.962 115.553C142.239 115.954 142.658 116.155 143.22 116.155ZM150.11 110.697C150.621 110.697 151.058 110.81 151.423 111.036C151.787 111.262 152.066 111.579 152.259 111.987C152.453 112.392 152.549 112.866 152.549 113.409V113.973H148.409C148.42 114.676 148.595 115.212 148.934 115.58C149.273 115.949 149.751 116.133 150.367 116.133C150.746 116.133 151.082 116.098 151.373 116.029C151.665 115.96 151.968 115.858 152.281 115.723V116.521C151.979 116.656 151.678 116.754 151.379 116.816C151.084 116.878 150.734 116.909 150.329 116.909C149.753 116.909 149.25 116.793 148.82 116.559C148.393 116.322 148.061 115.976 147.824 115.52C147.587 115.065 147.469 114.507 147.469 113.847C147.469 113.202 147.576 112.644 147.791 112.173C148.01 111.699 148.316 111.335 148.71 111.08C149.108 110.824 149.574 110.697 150.11 110.697ZM150.099 111.441C149.614 111.441 149.228 111.599 148.94 111.916C148.652 112.234 148.48 112.677 148.426 113.245H151.598C151.594 112.888 151.537 112.574 151.428 112.305C151.322 112.031 151.16 111.82 150.941 111.67C150.723 111.517 150.442 111.441 150.099 111.441ZM157.969 115.159C157.969 115.542 157.872 115.865 157.679 116.127C157.489 116.386 157.216 116.581 156.859 116.712C156.505 116.844 156.082 116.909 155.59 116.909C155.171 116.909 154.808 116.877 154.502 116.811C154.195 116.745 153.927 116.652 153.698 116.532V115.695C153.942 115.816 154.234 115.925 154.573 116.023C154.912 116.122 155.258 116.171 155.612 116.171C156.129 116.171 156.505 116.087 156.738 115.92C156.972 115.752 157.088 115.524 157.088 115.236C157.088 115.072 157.041 114.928 156.946 114.804C156.855 114.676 156.7 114.554 156.481 114.437C156.262 114.317 155.96 114.186 155.573 114.044C155.191 113.898 154.859 113.754 154.578 113.612C154.301 113.466 154.086 113.289 153.933 113.081C153.783 112.873 153.709 112.604 153.709 112.272C153.709 111.765 153.913 111.377 154.321 111.107C154.733 110.834 155.273 110.697 155.94 110.697C156.301 110.697 156.638 110.733 156.952 110.806C157.269 110.876 157.564 110.97 157.837 111.091L157.531 111.818C157.283 111.712 157.019 111.623 156.738 111.55C156.458 111.477 156.171 111.441 155.88 111.441C155.46 111.441 155.138 111.51 154.912 111.648C154.689 111.787 154.578 111.977 154.578 112.217C154.578 112.403 154.629 112.556 154.731 112.677C154.837 112.797 155.005 112.91 155.234 113.016C155.464 113.121 155.767 113.245 156.142 113.387C156.518 113.526 156.842 113.67 157.116 113.82C157.389 113.965 157.599 114.144 157.745 114.355C157.894 114.563 157.969 114.831 157.969 115.159ZM161.83 116.909C161.29 116.909 160.814 116.798 160.402 116.576C159.99 116.353 159.67 116.014 159.44 115.559C159.21 115.103 159.095 114.529 159.095 113.836C159.095 113.11 159.216 112.518 159.456 112.059C159.701 111.596 160.036 111.253 160.462 111.03C160.889 110.808 161.374 110.697 161.917 110.697C162.216 110.697 162.504 110.728 162.781 110.79C163.062 110.848 163.292 110.923 163.47 111.014L163.197 111.774C163.015 111.701 162.803 111.636 162.562 111.577C162.326 111.519 162.103 111.49 161.895 111.49C161.48 111.49 161.133 111.579 160.856 111.758C160.583 111.936 160.377 112.199 160.238 112.545C160.103 112.892 160.036 113.318 160.036 113.825C160.036 114.31 160.102 114.724 160.233 115.066C160.368 115.409 160.566 115.672 160.829 115.854C161.095 116.033 161.427 116.122 161.824 116.122C162.141 116.122 162.428 116.089 162.683 116.023C162.938 115.954 163.17 115.874 163.377 115.783V116.592C163.177 116.694 162.953 116.773 162.705 116.827C162.46 116.882 162.169 116.909 161.83 116.909ZM167.523 110.697C167.643 110.697 167.769 110.704 167.9 110.719C168.031 110.73 168.148 110.746 168.25 110.768L168.135 111.61C168.037 111.585 167.927 111.565 167.807 111.55C167.687 111.535 167.574 111.528 167.468 111.528C167.227 111.528 166.999 111.577 166.784 111.676C166.573 111.771 166.387 111.909 166.227 112.091C166.066 112.27 165.94 112.487 165.849 112.742C165.758 112.994 165.712 113.274 165.712 113.584V116.8H164.799V110.806H165.554L165.652 111.911H165.691C165.815 111.689 165.964 111.486 166.139 111.304C166.314 111.118 166.516 110.97 166.746 110.861C166.979 110.752 167.238 110.697 167.523 110.697ZM170.29 110.806V116.8H169.382V110.806H170.29ZM169.847 108.564C169.996 108.564 170.124 108.613 170.23 108.712C170.339 108.807 170.394 108.956 170.394 109.16C170.394 109.361 170.339 109.51 170.23 109.609C170.124 109.707 169.996 109.756 169.847 109.756C169.69 109.756 169.559 109.707 169.453 109.609C169.351 109.51 169.3 109.361 169.3 109.16C169.3 108.956 169.351 108.807 169.453 108.712C169.559 108.613 169.69 108.564 169.847 108.564ZM175.031 110.697C175.779 110.697 176.375 110.954 176.82 111.468C177.264 111.982 177.487 112.755 177.487 113.787C177.487 114.468 177.385 115.041 177.18 115.504C176.976 115.967 176.688 116.317 176.316 116.554C175.948 116.791 175.512 116.909 175.009 116.909C174.692 116.909 174.413 116.867 174.173 116.784C173.932 116.7 173.726 116.587 173.555 116.445C173.383 116.302 173.241 116.147 173.128 115.98H173.062C173.073 116.122 173.086 116.293 173.101 116.494C173.119 116.694 173.128 116.869 173.128 117.019V119.48H172.215V110.806H172.964L173.084 111.692H173.128C173.245 111.51 173.387 111.344 173.555 111.195C173.722 111.041 173.927 110.921 174.167 110.834C174.411 110.742 174.699 110.697 175.031 110.697ZM174.873 111.462C174.457 111.462 174.122 111.543 173.866 111.703C173.615 111.864 173.431 112.104 173.314 112.425C173.197 112.742 173.135 113.141 173.128 113.623V113.798C173.128 114.304 173.183 114.733 173.292 115.083C173.405 115.433 173.589 115.699 173.845 115.881C174.103 116.064 174.45 116.155 174.884 116.155C175.255 116.155 175.565 116.054 175.813 115.854C176.061 115.653 176.245 115.374 176.366 115.017C176.49 114.656 176.552 114.242 176.552 113.776C176.552 113.068 176.413 112.507 176.136 112.091C175.862 111.672 175.441 111.462 174.873 111.462ZM181.473 116.909C180.934 116.909 180.458 116.798 180.046 116.576C179.634 116.353 179.313 116.014 179.084 115.559C178.854 115.103 178.739 114.529 178.739 113.836C178.739 113.11 178.859 112.518 179.1 112.059C179.344 111.596 179.68 111.253 180.106 111.03C180.533 110.808 181.018 110.697 181.561 110.697C181.86 110.697 182.148 110.728 182.425 110.79C182.706 110.848 182.935 110.923 183.114 111.014L182.841 111.774C182.658 111.701 182.447 111.636 182.206 111.577C181.969 111.519 181.747 111.49 181.539 111.49C181.123 111.49 180.777 111.579 180.5 111.758C180.227 111.936 180.021 112.199 179.882 112.545C179.747 112.892 179.68 113.318 179.68 113.825C179.68 114.31 179.745 114.724 179.877 115.066C180.011 115.409 180.21 115.672 180.473 115.854C180.739 116.033 181.071 116.122 181.468 116.122C181.785 116.122 182.071 116.089 182.327 116.023C182.582 115.954 182.813 115.874 183.021 115.783V116.592C182.821 116.694 182.596 116.773 182.348 116.827C182.104 116.882 181.812 116.909 181.473 116.909ZM185.351 110.806V116.8H184.443V110.806H185.351ZM184.908 108.564C185.057 108.564 185.185 108.613 185.291 108.712C185.4 108.807 185.455 108.956 185.455 109.16C185.455 109.361 185.4 109.51 185.291 109.609C185.185 109.707 185.057 109.756 184.908 109.756C184.751 109.756 184.62 109.707 184.514 109.609C184.412 109.51 184.361 109.361 184.361 109.16C184.361 108.956 184.412 108.807 184.514 108.712C184.62 108.613 184.751 108.564 184.908 108.564ZM192.444 113.792C192.444 114.284 192.38 114.724 192.252 115.11C192.125 115.497 191.941 115.823 191.7 116.089C191.459 116.355 191.168 116.559 190.825 116.702C190.486 116.84 190.101 116.909 189.671 116.909C189.27 116.909 188.902 116.84 188.566 116.702C188.235 116.559 187.947 116.355 187.702 116.089C187.462 115.823 187.274 115.497 187.139 115.11C187.008 114.724 186.942 114.284 186.942 113.792C186.942 113.136 187.053 112.578 187.276 112.119C187.498 111.656 187.815 111.304 188.227 111.063C188.643 110.819 189.137 110.697 189.709 110.697C190.256 110.697 190.734 110.819 191.142 111.063C191.554 111.308 191.873 111.661 192.099 112.124C192.329 112.584 192.444 113.14 192.444 113.792ZM187.883 113.792C187.883 114.273 187.947 114.691 188.074 115.045C188.202 115.398 188.399 115.672 188.665 115.865C188.931 116.058 189.274 116.155 189.693 116.155C190.109 116.155 190.449 116.058 190.716 115.865C190.985 115.672 191.184 115.398 191.312 115.045C191.439 114.691 191.503 114.273 191.503 113.792C191.503 113.315 191.439 112.903 191.312 112.556C191.184 112.206 190.987 111.936 190.721 111.747C190.455 111.557 190.11 111.462 189.687 111.462C189.064 111.462 188.606 111.668 188.315 112.08C188.027 112.492 187.883 113.063 187.883 113.792ZM191.279 108.22V108.329C191.206 108.435 191.106 108.562 190.978 108.712C190.854 108.858 190.716 109.012 190.562 109.177C190.409 109.337 190.254 109.49 190.098 109.636C189.945 109.782 189.802 109.908 189.671 110.013H189.064V109.882C189.181 109.743 189.308 109.578 189.447 109.384C189.585 109.187 189.72 108.987 189.852 108.783C189.983 108.575 190.092 108.387 190.18 108.22H191.279ZM196.852 110.697C197.562 110.697 198.1 110.872 198.465 111.222C198.829 111.568 199.012 112.126 199.012 112.895V116.8H198.115V112.955C198.115 112.456 198 112.082 197.77 111.834C197.544 111.586 197.196 111.462 196.726 111.462C196.062 111.462 195.596 111.65 195.326 112.026C195.056 112.401 194.921 112.946 194.921 113.661V116.8H194.013V110.806H194.746L194.883 111.67H194.932C195.06 111.459 195.222 111.282 195.419 111.14C195.616 110.994 195.836 110.885 196.08 110.812C196.325 110.735 196.582 110.697 196.852 110.697ZM205.924 116.909C205.166 116.909 204.564 116.651 204.12 116.133C203.678 115.615 203.458 114.846 203.458 113.825C203.458 112.793 203.684 112.015 204.136 111.49C204.588 110.961 205.19 110.697 205.941 110.697C206.258 110.697 206.535 110.739 206.772 110.823C207.009 110.907 207.213 111.02 207.384 111.162C207.556 111.3 207.7 111.459 207.816 111.637H207.882C207.867 111.524 207.853 111.37 207.838 111.173C207.824 110.976 207.816 110.815 207.816 110.691V108.291H208.724V116.8H207.991L207.855 115.947H207.816C207.703 116.126 207.559 116.288 207.384 116.434C207.213 116.579 207.007 116.696 206.766 116.784C206.529 116.867 206.249 116.909 205.924 116.909ZM206.066 116.155C206.708 116.155 207.162 115.972 207.428 115.608C207.694 115.243 207.827 114.702 207.827 113.984V113.82C207.827 113.058 207.7 112.472 207.445 112.064C207.193 111.656 206.734 111.452 206.066 111.452C205.509 111.452 205.091 111.667 204.814 112.097C204.537 112.523 204.398 113.107 204.398 113.847C204.398 114.583 204.535 115.152 204.809 115.553C205.086 115.954 205.505 116.155 206.066 116.155ZM212.957 110.697C213.467 110.697 213.905 110.81 214.27 111.036C214.634 111.262 214.913 111.579 215.106 111.987C215.299 112.392 215.396 112.866 215.396 113.409V113.973H211.256C211.267 114.676 211.442 115.212 211.781 115.58C212.12 115.949 212.598 116.133 213.214 116.133C213.593 116.133 213.929 116.098 214.22 116.029C214.512 115.96 214.815 115.858 215.128 115.723V116.521C214.826 116.656 214.525 116.754 214.226 116.816C213.93 116.878 213.58 116.909 213.176 116.909C212.6 116.909 212.097 116.793 211.666 116.559C211.24 116.322 210.908 115.976 210.671 115.52C210.434 115.065 210.316 114.507 210.316 113.847C210.316 113.202 210.423 112.644 210.638 112.173C210.857 111.699 211.163 111.335 211.557 111.08C211.954 110.824 212.421 110.697 212.957 110.697ZM212.946 111.441C212.461 111.441 212.075 111.599 211.787 111.916C211.499 112.234 211.327 112.677 211.273 113.245H214.445C214.441 112.888 214.384 112.574 214.275 112.305C214.169 112.031 214.007 111.82 213.788 111.67C213.57 111.517 213.289 111.441 212.946 111.441ZM217.852 116.8H216.938V108.291H217.852V116.8ZM224.923 110.708C225.637 110.708 226.168 110.868 226.514 111.189C226.86 111.51 227.034 112.022 227.034 112.726V116.8H226.372L226.197 115.914H226.153C225.985 116.133 225.81 116.317 225.628 116.466C225.446 116.612 225.234 116.723 224.994 116.8C224.757 116.873 224.465 116.909 224.119 116.909C223.754 116.909 223.43 116.846 223.145 116.718C222.865 116.59 222.642 116.397 222.478 116.138C222.318 115.879 222.237 115.551 222.237 115.154C222.237 114.556 222.474 114.097 222.948 113.776C223.422 113.455 224.144 113.28 225.114 113.251L226.148 113.207V112.841C226.148 112.323 226.036 111.96 225.814 111.752C225.592 111.545 225.278 111.441 224.873 111.441C224.56 111.441 224.261 111.486 223.977 111.577C223.692 111.668 223.422 111.776 223.167 111.9L222.888 111.211C223.158 111.072 223.468 110.954 223.818 110.855C224.168 110.757 224.536 110.708 224.923 110.708ZM226.137 113.847L225.223 113.885C224.476 113.914 223.949 114.036 223.643 114.252C223.337 114.467 223.184 114.771 223.184 115.165C223.184 115.508 223.287 115.761 223.495 115.925C223.703 116.089 223.978 116.171 224.321 116.171C224.853 116.171 225.289 116.023 225.628 115.728C225.967 115.433 226.137 114.99 226.137 114.399V113.847ZM231.305 116.909C230.765 116.909 230.289 116.798 229.877 116.576C229.465 116.353 229.145 116.014 228.915 115.559C228.685 115.103 228.57 114.529 228.57 113.836C228.57 113.11 228.691 112.518 228.931 112.059C229.175 111.596 229.511 111.253 229.937 111.03C230.364 110.808 230.849 110.697 231.392 110.697C231.691 110.697 231.979 110.728 232.256 110.79C232.537 110.848 232.767 110.923 232.945 111.014L232.672 111.774C232.49 111.701 232.278 111.636 232.037 111.577C231.8 111.519 231.578 111.49 231.37 111.49C230.955 111.49 230.608 111.579 230.331 111.758C230.058 111.936 229.852 112.199 229.713 112.545C229.578 112.892 229.511 113.318 229.511 113.825C229.511 114.31 229.577 114.724 229.708 115.066C229.843 115.409 230.041 115.672 230.304 115.854C230.57 116.033 230.902 116.122 231.299 116.122C231.616 116.122 231.903 116.089 232.158 116.023C232.413 115.954 232.645 115.874 232.852 115.783V116.592C232.652 116.694 232.428 116.773 232.18 116.827C231.935 116.882 231.644 116.909 231.305 116.909ZM236.675 116.909C236.135 116.909 235.66 116.798 235.248 116.576C234.836 116.353 234.515 116.014 234.285 115.559C234.055 115.103 233.941 114.529 233.941 113.836C233.941 113.11 234.061 112.518 234.302 112.059C234.546 111.596 234.881 111.253 235.308 111.03C235.734 110.808 236.219 110.697 236.762 110.697C237.061 110.697 237.349 110.728 237.627 110.79C237.907 110.848 238.137 110.923 238.316 111.014L238.042 111.774C237.86 111.701 237.648 111.636 237.408 111.577C237.171 111.519 236.948 111.49 236.741 111.49C236.325 111.49 235.979 111.579 235.702 111.758C235.428 111.936 235.222 112.199 235.084 112.545C234.949 112.892 234.881 113.318 234.881 113.825C234.881 114.31 234.947 114.724 235.078 115.066C235.213 115.409 235.412 115.672 235.674 115.854C235.94 116.033 236.272 116.122 236.67 116.122C236.987 116.122 237.273 116.089 237.528 116.023C237.783 115.954 238.015 115.874 238.223 115.783V116.592C238.022 116.694 237.798 116.773 237.55 116.827C237.306 116.882 237.014 116.909 236.675 116.909ZM241.952 110.697C242.463 110.697 242.9 110.81 243.265 111.036C243.629 111.262 243.908 111.579 244.102 111.987C244.295 112.392 244.391 112.866 244.391 113.409V113.973H240.252C240.262 114.676 240.437 115.212 240.777 115.58C241.116 115.949 241.593 116.133 242.209 116.133C242.589 116.133 242.924 116.098 243.216 116.029C243.507 115.96 243.81 115.858 244.123 115.723V116.521C243.821 116.656 243.52 116.754 243.221 116.816C242.926 116.878 242.576 116.909 242.171 116.909C241.595 116.909 241.092 116.793 240.662 116.559C240.235 116.322 239.903 115.976 239.666 115.52C239.429 115.065 239.311 114.507 239.311 113.847C239.311 113.202 239.418 112.644 239.634 112.173C239.852 111.699 240.159 111.335 240.552 111.08C240.95 110.824 241.416 110.697 241.952 110.697ZM241.941 111.441C241.456 111.441 241.07 111.599 240.782 111.916C240.494 112.234 240.323 112.677 240.268 113.245H243.44C243.436 112.888 243.38 112.574 243.27 112.305C243.165 112.031 243.002 111.82 242.784 111.67C242.565 111.517 242.284 111.441 241.941 111.441ZM249.811 115.159C249.811 115.542 249.714 115.865 249.521 116.127C249.331 116.386 249.058 116.581 248.701 116.712C248.347 116.844 247.924 116.909 247.432 116.909C247.013 116.909 246.65 116.877 246.344 116.811C246.037 116.745 245.77 116.652 245.54 116.532V115.695C245.784 115.816 246.076 115.925 246.415 116.023C246.754 116.122 247.1 116.171 247.454 116.171C247.972 116.171 248.347 116.087 248.58 115.92C248.814 115.752 248.93 115.524 248.93 115.236C248.93 115.072 248.883 114.928 248.788 114.804C248.697 114.676 248.542 114.554 248.323 114.437C248.105 114.317 247.802 114.186 247.416 114.044C247.033 113.898 246.701 113.754 246.42 113.612C246.143 113.466 245.928 113.289 245.775 113.081C245.626 112.873 245.551 112.604 245.551 112.272C245.551 111.765 245.755 111.377 246.163 111.107C246.575 110.834 247.115 110.697 247.782 110.697C248.143 110.697 248.48 110.733 248.794 110.806C249.111 110.876 249.406 110.97 249.68 111.091L249.373 111.818C249.126 111.712 248.861 111.623 248.58 111.55C248.3 111.477 248.014 111.441 247.722 111.441C247.303 111.441 246.98 111.51 246.754 111.648C246.531 111.787 246.42 111.977 246.42 112.217C246.42 112.403 246.471 112.556 246.573 112.677C246.679 112.797 246.847 112.91 247.077 113.016C247.306 113.121 247.609 113.245 247.984 113.387C248.36 113.526 248.684 113.67 248.958 113.82C249.231 113.965 249.441 114.144 249.587 114.355C249.736 114.563 249.811 114.831 249.811 115.159ZM256.439 113.792C256.439 114.284 256.375 114.724 256.248 115.11C256.12 115.497 255.936 115.823 255.695 116.089C255.455 116.355 255.163 116.559 254.82 116.702C254.481 116.84 254.097 116.909 253.666 116.909C253.265 116.909 252.897 116.84 252.562 116.702C252.23 116.559 251.942 116.355 251.698 116.089C251.457 115.823 251.269 115.497 251.134 115.11C251.003 114.724 250.937 114.284 250.937 113.792C250.937 113.136 251.049 112.578 251.271 112.119C251.493 111.656 251.811 111.304 252.223 111.063C252.638 110.819 253.132 110.697 253.705 110.697C254.252 110.697 254.729 110.819 255.137 111.063C255.549 111.308 255.868 111.661 256.095 112.124C256.324 112.584 256.439 113.14 256.439 113.792ZM251.878 113.792C251.878 114.273 251.942 114.691 252.07 115.045C252.197 115.398 252.394 115.672 252.66 115.865C252.926 116.058 253.269 116.155 253.688 116.155C254.104 116.155 254.445 116.058 254.711 115.865C254.981 115.672 255.179 115.398 255.307 115.045C255.435 114.691 255.498 114.273 255.498 113.792C255.498 113.315 255.435 112.903 255.307 112.556C255.179 112.206 254.983 111.936 254.716 111.747C254.45 111.557 254.106 111.462 253.683 111.462C253.059 111.462 252.602 111.668 252.31 112.08C252.022 112.492 251.878 113.063 251.878 113.792ZM257.872 116.231C257.872 115.976 257.934 115.796 258.058 115.69C258.182 115.58 258.333 115.526 258.512 115.526C258.698 115.526 258.854 115.58 258.982 115.69C259.11 115.796 259.173 115.976 259.173 116.231C259.173 116.483 259.11 116.667 258.982 116.784C258.854 116.897 258.698 116.953 258.512 116.953C258.333 116.953 258.182 116.897 258.058 116.784C257.934 116.667 257.872 116.483 257.872 116.231Z" fill="#38485C"/>
<path d="M316.8 88.5685C316.488 88.8805 316.488 89.3845 316.8 89.6965L319.904 92.8005L316.8 95.9045C316.488 96.2165 316.488 96.7205 316.8 97.0325C317.112 97.3445 317.616 97.3445 317.928 97.0325L321.6 93.3605C321.912 93.0485 321.912 92.5445 321.6 92.2325L317.928 88.5605C317.624 88.2565 317.112 88.2565 316.8 88.5685Z" fill="#101E37"/>
<path d="M652 63.2002C655.976 63.2002 659.2 66.4239 659.2 70.4004V114.4C659.2 118.377 655.976 121.6 652 121.6H386.4C382.424 121.6 379.2 118.377 379.2 114.4V70.4004C379.2 66.4239 382.424 63.2002 386.4 63.2002H652Z" fill="white"/>
<path d="M652 63.2002C655.976 63.2002 659.2 66.4239 659.2 70.4004V114.4C659.2 118.377 655.976 121.6 652 121.6H386.4C382.424 121.6 379.2 118.377 379.2 114.4V70.4004C379.2 66.4239 382.424 63.2002 386.4 63.2002H652Z" stroke="#E6EBF0" stroke-width="1.6"/>
<path d="M406.181 88.6L405.056 85.7H401.394L400.275 88.6H399.2L402.775 79.425H403.731L407.281 88.6H406.181ZM404.737 84.7562L403.669 81.875C403.644 81.8 403.602 81.6771 403.544 81.5062C403.49 81.3354 403.433 81.1583 403.375 80.975C403.317 80.7917 403.269 80.6437 403.231 80.5312C403.19 80.7021 403.144 80.8729 403.094 81.0437C403.048 81.2104 403.002 81.3667 402.956 81.5125C402.91 81.6542 402.871 81.775 402.837 81.875L401.75 84.7562H404.737ZM411.137 88.725C410.521 88.725 409.977 88.5979 409.506 88.3437C409.035 88.0896 408.669 87.7021 408.406 87.1812C408.144 86.6604 408.012 86.0042 408.012 85.2125C408.012 84.3833 408.15 83.7062 408.425 83.1812C408.704 82.6521 409.087 82.2604 409.575 82.0062C410.062 81.7521 410.617 81.625 411.237 81.625C411.579 81.625 411.908 81.6604 412.225 81.7312C412.546 81.7979 412.808 81.8833 413.012 81.9875L412.7 82.8562C412.492 82.7729 412.25 82.6979 411.975 82.6312C411.704 82.5646 411.45 82.5312 411.212 82.5312C410.737 82.5312 410.342 82.6333 410.025 82.8375C409.712 83.0417 409.477 83.3417 409.319 83.7375C409.165 84.1333 409.087 84.6208 409.087 85.2C409.087 85.7542 409.162 86.2271 409.312 86.6187C409.467 87.0104 409.694 87.3104 409.994 87.5187C410.298 87.7229 410.677 87.825 411.131 87.825C411.494 87.825 411.821 87.7875 412.112 87.7125C412.404 87.6333 412.669 87.5417 412.906 87.4375V88.3625C412.677 88.4792 412.421 88.5687 412.137 88.6312C411.858 88.6937 411.525 88.725 411.137 88.725ZM417.275 88.725C416.658 88.725 416.115 88.5979 415.644 88.3437C415.173 88.0896 414.806 87.7021 414.544 87.1812C414.281 86.6604 414.15 86.0042 414.15 85.2125C414.15 84.3833 414.287 83.7062 414.562 83.1812C414.842 82.6521 415.225 82.2604 415.712 82.0062C416.2 81.7521 416.754 81.625 417.375 81.625C417.717 81.625 418.046 81.6604 418.362 81.7312C418.683 81.7979 418.946 81.8833 419.15 81.9875L418.837 82.8562C418.629 82.7729 418.387 82.6979 418.112 82.6312C417.842 82.5646 417.587 82.5312 417.35 82.5312C416.875 82.5312 416.479 82.6333 416.162 82.8375C415.85 83.0417 415.615 83.3417 415.456 83.7375C415.302 84.1333 415.225 84.6208 415.225 85.2C415.225 85.7542 415.3 86.2271 415.45 86.6187C415.604 87.0104 415.831 87.3104 416.131 87.5187C416.435 87.7229 416.815 87.825 417.269 87.825C417.631 87.825 417.958 87.7875 418.25 87.7125C418.542 87.6333 418.806 87.5417 419.044 87.4375V88.3625C418.815 88.4792 418.558 88.5687 418.275 88.6312C417.996 88.6937 417.662 88.725 417.275 88.725ZM423.306 81.625C423.89 81.625 424.39 81.7542 424.806 82.0125C425.223 82.2708 425.542 82.6333 425.762 83.1C425.983 83.5625 426.094 84.1042 426.094 84.725V85.3687H421.362C421.375 86.1729 421.575 86.7854 421.962 87.2062C422.35 87.6271 422.896 87.8375 423.6 87.8375C424.033 87.8375 424.417 87.7979 424.75 87.7187C425.083 87.6396 425.429 87.5229 425.787 87.3687V88.2812C425.442 88.4354 425.098 88.5479 424.756 88.6187C424.419 88.6896 424.019 88.725 423.556 88.725C422.898 88.725 422.323 88.5917 421.831 88.325C421.344 88.0542 420.965 87.6583 420.694 87.1375C420.423 86.6167 420.287 85.9792 420.287 85.225C420.287 84.4875 420.41 83.85 420.656 83.3125C420.906 82.7708 421.256 82.3542 421.706 82.0625C422.16 81.7708 422.694 81.625 423.306 81.625ZM423.294 82.475C422.74 82.475 422.298 82.6562 421.969 83.0187C421.64 83.3812 421.444 83.8875 421.381 84.5375H425.006C425.002 84.1292 424.937 83.7708 424.812 83.4625C424.692 83.15 424.506 82.9083 424.256 82.7375C424.006 82.5625 423.685 82.475 423.294 82.475ZM432.287 86.725C432.287 87.1625 432.177 87.5312 431.956 87.8312C431.74 88.1271 431.427 88.35 431.019 88.5C430.615 88.65 430.131 88.725 429.569 88.725C429.09 88.725 428.675 88.6875 428.325 88.6125C427.975 88.5375 427.669 88.4312 427.406 88.2937V87.3375C427.685 87.475 428.019 87.6 428.406 87.7125C428.794 87.825 429.19 87.8812 429.594 87.8812C430.185 87.8812 430.615 87.7854 430.881 87.5937C431.148 87.4021 431.281 87.1417 431.281 86.8125C431.281 86.625 431.227 86.4604 431.119 86.3187C431.015 86.1729 430.837 86.0333 430.587 85.9C430.337 85.7625 429.992 85.6125 429.55 85.45C429.112 85.2833 428.733 85.1187 428.412 84.9562C428.096 84.7896 427.85 84.5875 427.675 84.35C427.504 84.1125 427.419 83.8042 427.419 83.425C427.419 82.8458 427.652 82.4021 428.119 82.0937C428.59 81.7812 429.206 81.625 429.969 81.625C430.381 81.625 430.767 81.6667 431.125 81.75C431.487 81.8292 431.825 81.9375 432.137 82.075L431.787 82.9062C431.504 82.7854 431.202 82.6833 430.881 82.6C430.56 82.5167 430.233 82.475 429.9 82.475C429.421 82.475 429.052 82.5542 428.794 82.7125C428.54 82.8708 428.412 83.0875 428.412 83.3625C428.412 83.575 428.471 83.75 428.587 83.8875C428.708 84.025 428.9 84.1542 429.162 84.275C429.425 84.3958 429.771 84.5375 430.2 84.7C430.629 84.8583 431 85.0229 431.312 85.1937C431.625 85.3604 431.865 85.5646 432.031 85.8062C432.202 86.0437 432.287 86.35 432.287 86.725ZM439.862 85.1625C439.862 85.725 439.79 86.2271 439.644 86.6687C439.498 87.1104 439.287 87.4833 439.012 87.7875C438.737 88.0917 438.404 88.325 438.012 88.4875C437.625 88.6458 437.185 88.725 436.694 88.725C436.235 88.725 435.815 88.6458 435.431 88.4875C435.052 88.325 434.723 88.0917 434.444 87.7875C434.169 87.4833 433.954 87.1104 433.8 86.6687C433.65 86.2271 433.575 85.725 433.575 85.1625C433.575 84.4125 433.702 83.775 433.956 83.25C434.21 82.7208 434.573 82.3187 435.044 82.0437C435.519 81.7646 436.083 81.625 436.737 81.625C437.362 81.625 437.908 81.7646 438.375 82.0437C438.846 82.3229 439.21 82.7271 439.469 83.2562C439.731 83.7812 439.862 84.4167 439.862 85.1625ZM434.65 85.1625C434.65 85.7125 434.723 86.1896 434.869 86.5937C435.015 86.9979 435.24 87.3104 435.544 87.5312C435.848 87.7521 436.24 87.8625 436.719 87.8625C437.194 87.8625 437.583 87.7521 437.887 87.5312C438.196 87.3104 438.423 86.9979 438.569 86.5937C438.715 86.1896 438.787 85.7125 438.787 85.1625C438.787 84.6167 438.715 84.1458 438.569 83.75C438.423 83.35 438.198 83.0417 437.894 82.825C437.59 82.6083 437.196 82.5 436.712 82.5C436 82.5 435.477 82.7354 435.144 83.2062C434.815 83.6771 434.65 84.3292 434.65 85.1625Z" fill="#101E37"/>
<path d="M404.745 107.2H400.294V99.2047H404.745V100.025H401.223V102.612H404.543V103.421H401.223V106.38H404.745V107.2ZM410.258 105.559C410.258 105.942 410.161 106.265 409.968 106.527C409.778 106.786 409.505 106.981 409.148 107.112C408.794 107.244 408.371 107.309 407.879 107.309C407.46 107.309 407.097 107.277 406.791 107.211C406.484 107.145 406.216 107.052 405.987 106.932V106.095C406.231 106.216 406.523 106.325 406.862 106.423C407.201 106.522 407.547 106.571 407.901 106.571C408.418 106.571 408.794 106.487 409.027 106.32C409.261 106.152 409.377 105.924 409.377 105.636C409.377 105.472 409.33 105.328 409.235 105.204C409.144 105.076 408.989 104.954 408.77 104.837C408.552 104.717 408.249 104.586 407.862 104.444C407.48 104.298 407.148 104.154 406.867 104.012C406.59 103.866 406.375 103.689 406.222 103.481C406.072 103.273 405.998 103.004 405.998 102.672C405.998 102.165 406.202 101.777 406.61 101.507C407.022 101.234 407.562 101.097 408.229 101.097C408.59 101.097 408.927 101.133 409.241 101.206C409.558 101.276 409.853 101.37 410.127 101.491L409.82 102.218C409.572 102.112 409.308 102.023 409.027 101.95C408.747 101.877 408.46 101.841 408.169 101.841C407.749 101.841 407.427 101.91 407.201 102.048C406.978 102.187 406.867 102.377 406.867 102.617C406.867 102.803 406.918 102.956 407.02 103.077C407.126 103.197 407.294 103.31 407.523 103.416C407.753 103.521 408.056 103.645 408.431 103.787C408.807 103.926 409.131 104.07 409.405 104.22C409.678 104.365 409.888 104.544 410.034 104.755C410.183 104.963 410.258 105.231 410.258 105.559ZM413.654 106.566C413.803 106.566 413.957 106.553 414.113 106.527C414.27 106.502 414.398 106.471 414.496 106.434V107.14C414.39 107.187 414.243 107.227 414.053 107.26C413.867 107.293 413.685 107.309 413.506 107.309C413.189 107.309 412.901 107.255 412.642 107.145C412.383 107.032 412.176 106.843 412.019 106.577C411.866 106.31 411.789 105.942 411.789 105.472V101.917H410.936V101.474L411.795 101.119L412.155 99.8172H412.702V101.206H414.458V101.917H412.702V105.445C412.702 105.82 412.788 106.101 412.959 106.287C413.134 106.473 413.366 106.566 413.654 106.566ZM417.952 101.108C418.667 101.108 419.197 101.268 419.544 101.589C419.89 101.91 420.063 102.422 420.063 103.126V107.2H419.402L419.227 106.314H419.183C419.015 106.533 418.84 106.717 418.658 106.866C418.476 107.012 418.264 107.123 418.023 107.2C417.786 107.273 417.495 107.309 417.148 107.309C416.784 107.309 416.459 107.246 416.175 107.118C415.894 106.99 415.672 106.797 415.508 106.538C415.347 106.279 415.267 105.951 415.267 105.554C415.267 104.956 415.504 104.497 415.978 104.176C416.452 103.855 417.174 103.68 418.144 103.651L419.177 103.607V103.241C419.177 102.723 419.066 102.36 418.844 102.152C418.621 101.945 418.308 101.841 417.903 101.841C417.59 101.841 417.291 101.886 417.006 101.977C416.722 102.068 416.452 102.176 416.197 102.3L415.918 101.611C416.188 101.472 416.498 101.354 416.848 101.255C417.198 101.157 417.566 101.108 417.952 101.108ZM419.166 104.247L418.253 104.285C417.506 104.314 416.979 104.436 416.673 104.652C416.366 104.867 416.213 105.171 416.213 105.565C416.213 105.908 416.317 106.161 416.525 106.325C416.733 106.489 417.008 106.571 417.351 106.571C417.883 106.571 418.319 106.423 418.658 106.128C418.997 105.833 419.166 105.39 419.166 104.799V104.247ZM427.151 101.097C427.661 101.097 428.099 101.21 428.463 101.436C428.828 101.662 429.107 101.979 429.3 102.387C429.493 102.792 429.59 103.266 429.59 103.809V104.373H425.45C425.461 105.076 425.636 105.612 425.975 105.98C426.314 106.349 426.792 106.533 427.408 106.533C427.787 106.533 428.122 106.498 428.414 106.429C428.706 106.36 429.008 106.258 429.322 106.123V106.921C429.019 107.056 428.718 107.154 428.42 107.216C428.124 107.278 427.774 107.309 427.37 107.309C426.793 107.309 426.29 107.193 425.86 106.959C425.434 106.722 425.102 106.376 424.865 105.92C424.628 105.465 424.509 104.907 424.509 104.247C424.509 103.602 424.617 103.044 424.832 102.573C425.051 102.099 425.357 101.735 425.751 101.48C426.148 101.224 426.615 101.097 427.151 101.097ZM427.14 101.841C426.655 101.841 426.268 101.999 425.98 102.316C425.692 102.634 425.521 103.077 425.466 103.645H428.638C428.635 103.288 428.578 102.974 428.469 102.705C428.363 102.431 428.201 102.22 427.982 102.07C427.763 101.917 427.483 101.841 427.14 101.841ZM435.009 105.559C435.009 105.942 434.913 106.265 434.72 106.527C434.53 106.786 434.257 106.981 433.899 107.112C433.546 107.244 433.123 107.309 432.63 107.309C432.211 107.309 431.848 107.277 431.542 107.211C431.236 107.145 430.968 107.052 430.738 106.932V106.095C430.983 106.216 431.274 106.325 431.613 106.423C431.952 106.522 432.299 106.571 432.652 106.571C433.17 106.571 433.546 106.487 433.779 106.32C434.012 106.152 434.129 105.924 434.129 105.636C434.129 105.472 434.082 105.328 433.987 105.204C433.896 105.076 433.741 104.954 433.522 104.837C433.303 104.717 433.001 104.586 432.614 104.444C432.231 104.298 431.899 104.154 431.619 104.012C431.342 103.866 431.127 103.689 430.973 103.481C430.824 103.273 430.749 103.004 430.749 102.672C430.749 102.165 430.953 101.777 431.362 101.507C431.774 101.234 432.313 101.097 432.98 101.097C433.341 101.097 433.679 101.133 433.992 101.206C434.309 101.276 434.605 101.37 434.878 101.491L434.572 102.218C434.324 102.112 434.06 102.023 433.779 101.95C433.498 101.877 433.212 101.841 432.92 101.841C432.501 101.841 432.178 101.91 431.952 102.048C431.73 102.187 431.619 102.377 431.619 102.617C431.619 102.803 431.67 102.956 431.772 103.077C431.878 103.197 432.045 103.31 432.275 103.416C432.505 103.521 432.807 103.645 433.183 103.787C433.558 103.926 433.883 104.07 434.156 104.22C434.43 104.365 434.639 104.544 434.785 104.755C434.935 104.963 435.009 105.231 435.009 105.559ZM440.292 107.2H439.379V98.6906H440.292V107.2ZM444.454 101.108C445.168 101.108 445.699 101.268 446.045 101.589C446.392 101.91 446.565 102.422 446.565 103.126V107.2H445.903L445.728 106.314H445.684C445.517 106.533 445.342 106.717 445.159 106.866C444.977 107.012 444.766 107.123 444.525 107.2C444.288 107.273 443.996 107.309 443.65 107.309C443.285 107.309 442.961 107.246 442.677 107.118C442.396 106.99 442.173 106.797 442.009 106.538C441.849 106.279 441.769 105.951 441.769 105.554C441.769 104.956 442.006 104.497 442.48 104.176C442.954 103.855 443.676 103.68 444.645 103.651L445.679 103.607V103.241C445.679 102.723 445.568 102.36 445.345 102.152C445.123 101.945 444.809 101.841 444.405 101.841C444.091 101.841 443.792 101.886 443.508 101.977C443.223 102.068 442.954 102.176 442.698 102.3L442.42 101.611C442.689 101.472 442.999 101.354 443.349 101.255C443.699 101.157 444.067 101.108 444.454 101.108ZM445.668 104.247L444.755 104.285C444.007 104.314 443.48 104.436 443.174 104.652C442.868 104.867 442.715 105.171 442.715 105.565C442.715 105.908 442.819 106.161 443.027 106.325C443.234 106.489 443.51 106.571 443.852 106.571C444.385 106.571 444.82 106.423 445.159 106.128C445.498 105.833 445.668 105.39 445.668 104.799V104.247ZM453.477 107.309C452.719 107.309 452.117 107.051 451.673 106.533C451.232 106.015 451.011 105.246 451.011 104.225C451.011 103.193 451.237 102.415 451.689 101.89C452.141 101.361 452.743 101.097 453.494 101.097C453.811 101.097 454.088 101.139 454.325 101.223C454.562 101.307 454.766 101.42 454.937 101.562C455.109 101.7 455.253 101.859 455.37 102.037H455.435C455.421 101.924 455.406 101.77 455.391 101.573C455.377 101.376 455.37 101.215 455.37 101.091V98.6906H456.277V107.2H455.545L455.408 106.347H455.37C455.257 106.526 455.112 106.688 454.937 106.834C454.766 106.979 454.56 107.096 454.32 107.184C454.083 107.267 453.802 107.309 453.477 107.309ZM453.62 106.555C454.261 106.555 454.715 106.372 454.981 106.008C455.247 105.643 455.38 105.102 455.38 104.384V104.22C455.38 103.458 455.253 102.872 454.998 102.464C454.746 102.056 454.287 101.852 453.62 101.852C453.062 101.852 452.644 102.067 452.367 102.497C452.09 102.923 451.952 103.507 451.952 104.247C451.952 104.983 452.088 105.552 452.362 105.953C452.639 106.354 453.058 106.555 453.62 106.555ZM460.51 101.097C461.021 101.097 461.458 101.21 461.823 101.436C462.187 101.662 462.466 101.979 462.659 102.387C462.853 102.792 462.949 103.266 462.949 103.809V104.373H458.809C458.82 105.076 458.995 105.612 459.334 105.98C459.673 106.349 460.151 106.533 460.767 106.533C461.146 106.533 461.482 106.498 461.773 106.429C462.065 106.36 462.368 106.258 462.681 106.123V106.921C462.379 107.056 462.078 107.154 461.779 107.216C461.484 107.278 461.134 107.309 460.729 107.309C460.153 107.309 459.65 107.193 459.22 106.959C458.793 106.722 458.461 106.376 458.224 105.92C457.987 105.465 457.869 104.907 457.869 104.247C457.869 103.602 457.976 103.044 458.191 102.573C458.41 102.099 458.716 101.735 459.11 101.48C459.508 101.224 459.974 101.097 460.51 101.097ZM460.499 101.841C460.014 101.841 459.628 101.999 459.34 102.316C459.052 102.634 458.88 103.077 458.826 103.645H461.998C461.994 103.288 461.937 102.974 461.828 102.705C461.722 102.431 461.56 102.22 461.341 102.07C461.123 101.917 460.842 101.841 460.499 101.841ZM468.369 105.559C468.369 105.942 468.272 106.265 468.079 106.527C467.889 106.786 467.616 106.981 467.259 107.112C466.905 107.244 466.482 107.309 465.99 107.309C465.571 107.309 465.208 107.277 464.902 107.211C464.595 107.145 464.327 107.052 464.098 106.932V106.095C464.342 106.216 464.634 106.325 464.973 106.423C465.312 106.522 465.658 106.571 466.012 106.571C466.529 106.571 466.905 106.487 467.138 106.32C467.372 106.152 467.488 105.924 467.488 105.636C467.488 105.472 467.441 105.328 467.346 105.204C467.255 105.076 467.1 104.954 466.881 104.837C466.662 104.717 466.36 104.586 465.973 104.444C465.591 104.298 465.259 104.154 464.978 104.012C464.701 103.866 464.486 103.689 464.333 103.481C464.183 103.273 464.109 103.004 464.109 102.672C464.109 102.165 464.313 101.777 464.721 101.507C465.133 101.234 465.673 101.097 466.34 101.097C466.701 101.097 467.038 101.133 467.352 101.206C467.669 101.276 467.964 101.37 468.237 101.491L467.931 102.218C467.683 102.112 467.419 102.023 467.138 101.95C466.858 101.877 466.571 101.841 466.28 101.841C465.86 101.841 465.538 101.91 465.312 102.048C465.089 102.187 464.978 102.377 464.978 102.617C464.978 102.803 465.029 102.956 465.131 103.077C465.237 103.197 465.405 103.31 465.634 103.416C465.864 103.521 466.167 103.645 466.542 103.787C466.918 103.926 467.242 104.07 467.516 104.22C467.789 104.365 467.999 104.544 468.145 104.755C468.294 104.963 468.369 105.231 468.369 105.559ZM472.23 107.309C471.69 107.309 471.214 107.198 470.802 106.976C470.39 106.753 470.07 106.414 469.84 105.959C469.61 105.503 469.495 104.929 469.495 104.236C469.495 103.51 469.616 102.918 469.856 102.459C470.101 101.996 470.436 101.653 470.862 101.43C471.289 101.208 471.774 101.097 472.317 101.097C472.616 101.097 472.904 101.128 473.181 101.19C473.462 101.248 473.692 101.323 473.87 101.414L473.597 102.174C473.415 102.101 473.203 102.036 472.962 101.977C472.726 101.919 472.503 101.89 472.295 101.89C471.88 101.89 471.533 101.979 471.256 102.158C470.983 102.336 470.777 102.599 470.638 102.945C470.503 103.292 470.436 103.718 470.436 104.225C470.436 104.71 470.502 105.124 470.633 105.466C470.768 105.809 470.966 106.072 471.229 106.254C471.495 106.433 471.827 106.522 472.224 106.522C472.541 106.522 472.828 106.489 473.083 106.423C473.338 106.354 473.57 106.274 473.777 106.183V106.992C473.577 107.094 473.353 107.173 473.105 107.227C472.86 107.282 472.569 107.309 472.23 107.309ZM477.923 101.097C478.043 101.097 478.169 101.104 478.3 101.119C478.431 101.13 478.548 101.146 478.65 101.168L478.535 102.01C478.437 101.985 478.327 101.965 478.207 101.95C478.087 101.935 477.974 101.928 477.868 101.928C477.627 101.928 477.399 101.977 477.184 102.076C476.973 102.171 476.787 102.309 476.627 102.491C476.466 102.67 476.34 102.887 476.249 103.142C476.158 103.394 476.112 103.674 476.112 103.984V107.2H475.199V101.206H475.954L476.052 102.311H476.091C476.215 102.089 476.364 101.886 476.539 101.704C476.714 101.518 476.916 101.37 477.146 101.261C477.379 101.152 477.638 101.097 477.923 101.097ZM480.69 101.206V107.2H479.782V101.206H480.69ZM480.247 98.9641C480.396 98.9641 480.524 99.0133 480.63 99.1117C480.739 99.2065 480.794 99.356 480.794 99.5602C480.794 99.7607 480.739 99.9102 480.63 100.009C480.524 100.107 480.396 100.156 480.247 100.156C480.09 100.156 479.959 100.107 479.853 100.009C479.751 99.9102 479.7 99.7607 479.7 99.5602C479.7 99.356 479.751 99.2065 479.853 99.1117C479.959 99.0133 480.09 98.9641 480.247 98.9641ZM485.431 101.097C486.179 101.097 486.775 101.354 487.22 101.868C487.664 102.382 487.887 103.155 487.887 104.187C487.887 104.868 487.785 105.441 487.58 105.904C487.376 106.367 487.088 106.717 486.716 106.954C486.348 107.191 485.912 107.309 485.409 107.309C485.092 107.309 484.813 107.267 484.573 107.184C484.332 107.1 484.126 106.987 483.955 106.845C483.783 106.702 483.641 106.547 483.528 106.38H483.462C483.473 106.522 483.486 106.693 483.501 106.894C483.519 107.094 483.528 107.269 483.528 107.419V109.88H482.615V101.206H483.364L483.484 102.092H483.528C483.645 101.91 483.787 101.744 483.955 101.595C484.122 101.441 484.327 101.321 484.567 101.234C484.811 101.142 485.099 101.097 485.431 101.097ZM485.273 101.862C484.857 101.862 484.522 101.943 484.266 102.103C484.015 102.264 483.831 102.504 483.714 102.825C483.597 103.142 483.535 103.541 483.528 104.023V104.198C483.528 104.704 483.583 105.133 483.692 105.483C483.805 105.833 483.989 106.099 484.245 106.281C484.503 106.464 484.85 106.555 485.284 106.555C485.655 106.555 485.965 106.454 486.213 106.254C486.461 106.053 486.645 105.774 486.766 105.417C486.89 105.056 486.952 104.642 486.952 104.176C486.952 103.468 486.813 102.907 486.536 102.491C486.262 102.072 485.841 101.862 485.273 101.862ZM491.873 107.309C491.334 107.309 490.858 107.198 490.446 106.976C490.034 106.753 489.713 106.414 489.484 105.959C489.254 105.503 489.139 104.929 489.139 104.236C489.139 103.51 489.259 102.918 489.5 102.459C489.744 101.996 490.08 101.653 490.506 101.43C490.933 101.208 491.418 101.097 491.961 101.097C492.26 101.097 492.548 101.128 492.825 101.19C493.106 101.248 493.335 101.323 493.514 101.414L493.241 102.174C493.058 102.101 492.847 102.036 492.606 101.977C492.369 101.919 492.147 101.89 491.939 101.89C491.523 101.89 491.177 101.979 490.9 102.158C490.627 102.336 490.421 102.599 490.282 102.945C490.147 103.292 490.08 103.718 490.08 104.225C490.08 104.71 490.145 105.124 490.277 105.466C490.411 105.809 490.61 106.072 490.873 106.254C491.139 106.433 491.471 106.522 491.868 106.522C492.185 106.522 492.471 106.489 492.727 106.423C492.982 106.354 493.213 106.274 493.421 106.183V106.992C493.221 107.094 492.996 107.173 492.748 107.227C492.504 107.282 492.212 107.309 491.873 107.309ZM495.751 101.206V107.2H494.843V101.206H495.751ZM495.308 98.9641C495.457 98.9641 495.585 99.0133 495.691 99.1117C495.8 99.2065 495.855 99.356 495.855 99.5602C495.855 99.7607 495.8 99.9102 495.691 100.009C495.585 100.107 495.457 100.156 495.308 100.156C495.151 100.156 495.02 100.107 494.914 100.009C494.812 99.9102 494.761 99.7607 494.761 99.5602C494.761 99.356 494.812 99.2065 494.914 99.1117C495.02 99.0133 495.151 98.9641 495.308 98.9641ZM502.844 104.192C502.844 104.684 502.78 105.124 502.652 105.51C502.525 105.897 502.341 106.223 502.1 106.489C501.859 106.755 501.568 106.959 501.225 107.102C500.886 107.24 500.501 107.309 500.071 107.309C499.67 107.309 499.302 107.24 498.966 107.102C498.635 106.959 498.347 106.755 498.102 106.489C497.862 106.223 497.674 105.897 497.539 105.51C497.408 105.124 497.342 104.684 497.342 104.192C497.342 103.536 497.453 102.978 497.676 102.519C497.898 102.056 498.215 101.704 498.627 101.463C499.043 101.219 499.537 101.097 500.109 101.097C500.656 101.097 501.134 101.219 501.542 101.463C501.954 101.708 502.273 102.061 502.499 102.524C502.729 102.984 502.844 103.54 502.844 104.192ZM498.283 104.192C498.283 104.673 498.347 105.091 498.474 105.445C498.602 105.798 498.799 106.072 499.065 106.265C499.331 106.458 499.674 106.555 500.093 106.555C500.509 106.555 500.849 106.458 501.116 106.265C501.385 106.072 501.584 105.798 501.712 105.445C501.839 105.091 501.903 104.673 501.903 104.192C501.903 103.715 501.839 103.303 501.712 102.956C501.584 102.606 501.387 102.336 501.121 102.147C500.855 101.957 500.51 101.862 500.087 101.862C499.464 101.862 499.007 102.068 498.715 102.48C498.427 102.892 498.283 103.463 498.283 104.192ZM501.679 98.6195V98.7289C501.606 98.8346 501.506 98.9622 501.378 99.1117C501.254 99.2575 501.116 99.4125 500.962 99.5766C500.809 99.737 500.654 99.8901 500.498 100.036C500.345 100.182 500.202 100.308 500.071 100.413H499.464V100.282C499.581 100.143 499.708 99.9776 499.847 99.7844C499.985 99.5875 500.12 99.387 500.252 99.1828C500.383 98.975 500.492 98.7872 500.58 98.6195H501.679ZM507.252 101.097C507.962 101.097 508.5 101.272 508.865 101.622C509.229 101.968 509.412 102.526 509.412 103.295V107.2H508.515V103.355C508.515 102.856 508.4 102.482 508.17 102.234C507.944 101.986 507.596 101.862 507.126 101.862C506.462 101.862 505.996 102.05 505.726 102.426C505.456 102.801 505.321 103.346 505.321 104.061V107.2H504.413V101.206H505.146L505.283 102.07H505.332C505.46 101.859 505.622 101.682 505.819 101.54C506.016 101.394 506.236 101.285 506.48 101.212C506.725 101.135 506.982 101.097 507.252 101.097ZM516.324 107.309C515.566 107.309 514.964 107.051 514.52 106.533C514.078 106.015 513.858 105.246 513.858 104.225C513.858 103.193 514.084 102.415 514.536 101.89C514.988 101.361 515.59 101.097 516.341 101.097C516.658 101.097 516.935 101.139 517.172 101.223C517.409 101.307 517.613 101.42 517.784 101.562C517.956 101.7 518.1 101.859 518.216 102.037H518.282C518.267 101.924 518.253 101.77 518.238 101.573C518.224 101.376 518.216 101.215 518.216 101.091V98.6906H519.124V107.2H518.391L518.255 106.347H518.216C518.103 106.526 517.959 106.688 517.784 106.834C517.613 106.979 517.407 107.096 517.166 107.184C516.929 107.267 516.649 107.309 516.324 107.309ZM516.466 106.555C517.108 106.555 517.562 106.372 517.828 106.008C518.094 105.643 518.227 105.102 518.227 104.384V104.22C518.227 103.458 518.1 102.872 517.845 102.464C517.593 102.056 517.134 101.852 516.466 101.852C515.909 101.852 515.491 102.067 515.214 102.497C514.937 102.923 514.798 103.507 514.798 104.247C514.798 104.983 514.935 105.552 515.209 105.953C515.486 106.354 515.905 106.555 516.466 106.555ZM523.357 101.097C523.867 101.097 524.305 101.21 524.67 101.436C525.034 101.662 525.313 101.979 525.506 102.387C525.699 102.792 525.796 103.266 525.796 103.809V104.373H521.656C521.667 105.076 521.842 105.612 522.181 105.98C522.52 106.349 522.998 106.533 523.614 106.533C523.993 106.533 524.329 106.498 524.62 106.429C524.912 106.36 525.215 106.258 525.528 106.123V106.921C525.226 107.056 524.925 107.154 524.626 107.216C524.33 107.278 523.98 107.309 523.576 107.309C523 107.309 522.497 107.193 522.066 106.959C521.64 106.722 521.308 106.376 521.071 105.92C520.834 105.465 520.716 104.907 520.716 104.247C520.716 103.602 520.823 103.044 521.038 102.573C521.257 102.099 521.563 101.735 521.957 101.48C522.354 101.224 522.821 101.097 523.357 101.097ZM523.346 101.841C522.861 101.841 522.475 101.999 522.187 102.316C521.899 102.634 521.727 103.077 521.673 103.645H524.845C524.841 103.288 524.784 102.974 524.675 102.705C524.569 102.431 524.407 102.22 524.188 102.07C523.97 101.917 523.689 101.841 523.346 101.841ZM528.252 107.2H527.338V98.6906H528.252V107.2ZM535.323 101.108C536.037 101.108 536.568 101.268 536.914 101.589C537.26 101.91 537.434 102.422 537.434 103.126V107.2H536.772L536.597 106.314H536.553C536.385 106.533 536.21 106.717 536.028 106.866C535.846 107.012 535.634 107.123 535.394 107.2C535.157 107.273 534.865 107.309 534.519 107.309C534.154 107.309 533.83 107.246 533.545 107.118C533.265 106.99 533.042 106.797 532.878 106.538C532.718 106.279 532.637 105.951 532.637 105.554C532.637 104.956 532.874 104.497 533.348 104.176C533.822 103.855 534.544 103.68 535.514 103.651L536.548 103.607V103.241C536.548 102.723 536.436 102.36 536.214 102.152C535.992 101.945 535.678 101.841 535.273 101.841C534.96 101.841 534.661 101.886 534.377 101.977C534.092 102.068 533.822 102.176 533.567 102.3L533.288 101.611C533.558 101.472 533.868 101.354 534.218 101.255C534.568 101.157 534.936 101.108 535.323 101.108ZM536.537 104.247L535.623 104.285C534.876 104.314 534.349 104.436 534.043 104.652C533.737 104.867 533.584 105.171 533.584 105.565C533.584 105.908 533.687 106.161 533.895 106.325C534.103 106.489 534.378 106.571 534.721 106.571C535.253 106.571 535.689 106.423 536.028 106.128C536.367 105.833 536.537 105.39 536.537 104.799V104.247ZM541.705 107.309C541.165 107.309 540.689 107.198 540.277 106.976C539.865 106.753 539.545 106.414 539.315 105.959C539.085 105.503 538.97 104.929 538.97 104.236C538.97 103.51 539.091 102.918 539.331 102.459C539.576 101.996 539.911 101.653 540.337 101.43C540.764 101.208 541.249 101.097 541.792 101.097C542.091 101.097 542.379 101.128 542.656 101.19C542.937 101.248 543.167 101.323 543.345 101.414L543.072 102.174C542.89 102.101 542.678 102.036 542.437 101.977C542.201 101.919 541.978 101.89 541.77 101.89C541.355 101.89 541.008 101.979 540.731 102.158C540.458 102.336 540.252 102.599 540.113 102.945C539.978 103.292 539.911 103.718 539.911 104.225C539.911 104.71 539.977 105.124 540.108 105.466C540.243 105.809 540.441 106.072 540.704 106.254C540.97 106.433 541.302 106.522 541.699 106.522C542.016 106.522 542.303 106.489 542.558 106.423C542.813 106.354 543.045 106.274 543.252 106.183V106.992C543.052 107.094 542.828 107.173 542.58 107.227C542.335 107.282 542.044 107.309 541.705 107.309ZM547.075 107.309C546.535 107.309 546.06 107.198 545.648 106.976C545.236 106.753 544.915 106.414 544.685 105.959C544.455 105.503 544.341 104.929 544.341 104.236C544.341 103.51 544.461 102.918 544.702 102.459C544.946 101.996 545.281 101.653 545.708 101.43C546.134 101.208 546.619 101.097 547.162 101.097C547.461 101.097 547.749 101.128 548.027 101.19C548.307 101.248 548.537 101.323 548.716 101.414L548.442 102.174C548.26 102.101 548.048 102.036 547.808 101.977C547.571 101.919 547.348 101.89 547.141 101.89C546.725 101.89 546.379 101.979 546.102 102.158C545.828 102.336 545.622 102.599 545.484 102.945C545.349 103.292 545.281 103.718 545.281 104.225C545.281 104.71 545.347 105.124 545.478 105.466C545.613 105.809 545.812 106.072 546.074 106.254C546.34 106.433 546.672 106.522 547.07 106.522C547.387 106.522 547.673 106.489 547.928 106.423C548.183 106.354 548.415 106.274 548.623 106.183V106.992C548.422 107.094 548.198 107.173 547.95 107.227C547.706 107.282 547.414 107.309 547.075 107.309ZM552.352 101.097C552.863 101.097 553.3 101.21 553.665 101.436C554.029 101.662 554.308 101.979 554.502 102.387C554.695 102.792 554.791 103.266 554.791 103.809V104.373H550.652C550.662 105.076 550.837 105.612 551.177 105.98C551.516 106.349 551.993 106.533 552.609 106.533C552.989 106.533 553.324 106.498 553.616 106.429C553.907 106.36 554.21 106.258 554.523 106.123V106.921C554.221 107.056 553.92 107.154 553.621 107.216C553.326 107.278 552.976 107.309 552.571 107.309C551.995 107.309 551.492 107.193 551.062 106.959C550.635 106.722 550.303 106.376 550.066 105.92C549.829 105.465 549.711 104.907 549.711 104.247C549.711 103.602 549.818 103.044 550.034 102.573C550.252 102.099 550.559 101.735 550.952 101.48C551.35 101.224 551.816 101.097 552.352 101.097ZM552.341 101.841C551.857 101.841 551.47 101.999 551.182 102.316C550.894 102.634 550.723 103.077 550.668 103.645H553.84C553.836 103.288 553.78 102.974 553.67 102.705C553.565 102.431 553.402 102.22 553.184 102.07C552.965 101.917 552.684 101.841 552.341 101.841ZM560.211 105.559C560.211 105.942 560.114 106.265 559.921 106.527C559.732 106.786 559.458 106.981 559.101 107.112C558.747 107.244 558.324 107.309 557.832 107.309C557.413 107.309 557.05 107.277 556.744 107.211C556.437 107.145 556.17 107.052 555.94 106.932V106.095C556.184 106.216 556.476 106.325 556.815 106.423C557.154 106.522 557.5 106.571 557.854 106.571C558.372 106.571 558.747 106.487 558.98 106.32C559.214 106.152 559.33 105.924 559.33 105.636C559.33 105.472 559.283 105.328 559.188 105.204C559.097 105.076 558.942 104.954 558.723 104.837C558.505 104.717 558.202 104.586 557.816 104.444C557.433 104.298 557.101 104.154 556.82 104.012C556.543 103.866 556.328 103.689 556.175 103.481C556.026 103.273 555.951 103.004 555.951 102.672C555.951 102.165 556.155 101.777 556.563 101.507C556.975 101.234 557.515 101.097 558.182 101.097C558.543 101.097 558.88 101.133 559.194 101.206C559.511 101.276 559.806 101.37 560.08 101.491L559.773 102.218C559.526 102.112 559.261 102.023 558.98 101.95C558.7 101.877 558.414 101.841 558.122 101.841C557.703 101.841 557.38 101.91 557.154 102.048C556.932 102.187 556.82 102.377 556.82 102.617C556.82 102.803 556.871 102.956 556.973 103.077C557.079 103.197 557.247 103.31 557.477 103.416C557.706 103.521 558.009 103.645 558.384 103.787C558.76 103.926 559.084 104.07 559.358 104.22C559.631 104.365 559.841 104.544 559.987 104.755C560.136 104.963 560.211 105.231 560.211 105.559ZM566.839 104.192C566.839 104.684 566.775 105.124 566.648 105.51C566.52 105.897 566.336 106.223 566.095 106.489C565.855 106.755 565.563 106.959 565.22 107.102C564.881 107.24 564.497 107.309 564.066 107.309C563.665 107.309 563.297 107.24 562.962 107.102C562.63 106.959 562.342 106.755 562.098 106.489C561.857 106.223 561.669 105.897 561.534 105.51C561.403 105.124 561.337 104.684 561.337 104.192C561.337 103.536 561.449 102.978 561.671 102.519C561.893 102.056 562.211 101.704 562.623 101.463C563.038 101.219 563.532 101.097 564.105 101.097C564.652 101.097 565.129 101.219 565.537 101.463C565.949 101.708 566.268 102.061 566.495 102.524C566.724 102.984 566.839 103.54 566.839 104.192ZM562.278 104.192C562.278 104.673 562.342 105.091 562.47 105.445C562.597 105.798 562.794 106.072 563.06 106.265C563.326 106.458 563.669 106.555 564.088 106.555C564.504 106.555 564.845 106.458 565.111 106.265C565.381 106.072 565.579 105.798 565.707 105.445C565.835 105.091 565.898 104.673 565.898 104.192C565.898 103.715 565.835 103.303 565.707 102.956C565.579 102.606 565.383 102.336 565.116 102.147C564.85 101.957 564.506 101.862 564.083 101.862C563.459 101.862 563.002 102.068 562.71 102.48C562.422 102.892 562.278 103.463 562.278 104.192ZM568.272 106.631C568.272 106.376 568.334 106.196 568.458 106.09C568.582 105.98 568.733 105.926 568.912 105.926C569.098 105.926 569.254 105.98 569.382 106.09C569.51 106.196 569.573 106.376 569.573 106.631C569.573 106.883 569.51 107.067 569.382 107.184C569.254 107.297 569.098 107.353 568.912 107.353C568.733 107.353 568.582 107.297 568.458 107.184C568.334 107.067 568.272 106.883 568.272 106.631Z" fill="#38485C"/>
<path d="M627.2 78.9685C626.888 79.2805 626.888 79.7845 627.2 80.0965L630.304 83.2005L627.2 86.3045C626.888 86.6165 626.888 87.1205 627.2 87.4325C627.512 87.7445 628.016 87.7445 628.328 87.4325L632 83.7605C632.312 83.4485 632.312 82.9445 632 82.6325L628.328 78.9605C628.024 78.6565 627.512 78.6565 627.2 78.9685Z" fill="#101E37"/>
</svg>
