<svg width="728" height="144" viewBox="0 0 728 144" fill="none" xmlns="http://www.w3.org/2000/svg">
<rect x="1" y="1" width="726" height="142" rx="7" fill="#F3F6F9"/>
<rect x="1" y="1" width="726" height="142" rx="7" stroke="#E6EBF0" stroke-width="2"/>
<rect x="285.5" y="47" width="157" height="50" rx="9" fill="white"/>
<rect x="285.5" y="47" width="157" height="50" rx="9" stroke="#E6EBF0" stroke-width="2"/>
<path d="M300.876 78C300.612 78 300.408 77.934 300.264 77.802C300.132 77.658 300.066 77.454 300.066 77.19V66.12C300.066 65.856 300.132 65.658 300.264 65.526C300.408 65.382 300.612 65.31 300.876 65.31H304.35C306.402 65.31 307.986 65.85 309.102 66.93C310.218 68.01 310.776 69.582 310.776 71.646C310.776 72.678 310.632 73.59 310.344 74.382C310.068 75.162 309.654 75.822 309.102 76.362C308.55 76.902 307.878 77.31 307.086 77.586C306.294 77.862 305.382 78 304.35 78H300.876ZM301.542 76.74H304.242C305.082 76.74 305.808 76.632 306.42 76.416C307.044 76.2 307.56 75.882 307.968 75.462C308.388 75.042 308.7 74.514 308.904 73.878C309.108 73.23 309.21 72.486 309.21 71.646C309.21 69.954 308.796 68.688 307.968 67.848C307.14 66.996 305.898 66.57 304.242 66.57H301.542V76.74ZM317.169 78.162C316.245 78.162 315.447 77.982 314.775 77.622C314.115 77.25 313.599 76.728 313.227 76.056C312.867 75.384 312.687 74.58 312.687 73.644C312.687 72.732 312.867 71.94 313.227 71.268C313.587 70.584 314.079 70.05 314.703 69.666C315.339 69.282 316.071 69.09 316.899 69.09C317.487 69.09 318.015 69.192 318.483 69.396C318.951 69.588 319.347 69.87 319.671 70.242C320.007 70.614 320.259 71.064 320.427 71.592C320.607 72.12 320.697 72.714 320.697 73.374C320.697 73.566 320.643 73.71 320.535 73.806C320.427 73.89 320.271 73.932 320.067 73.932H313.803V72.978H319.725L319.437 73.212C319.437 72.564 319.341 72.018 319.149 71.574C318.957 71.118 318.675 70.77 318.303 70.53C317.943 70.29 317.487 70.17 316.935 70.17C316.323 70.17 315.801 70.314 315.369 70.602C314.949 70.878 314.631 71.268 314.415 71.772C314.199 72.264 314.091 72.84 314.091 73.5V73.608C314.091 74.712 314.355 75.552 314.883 76.128C315.423 76.704 316.185 76.992 317.169 76.992C317.577 76.992 317.979 76.938 318.375 76.83C318.783 76.722 319.179 76.542 319.563 76.29C319.731 76.182 319.881 76.134 320.013 76.146C320.157 76.146 320.271 76.188 320.355 76.272C320.439 76.344 320.493 76.44 320.517 76.56C320.553 76.668 320.541 76.788 320.481 76.92C320.433 77.052 320.331 77.166 320.175 77.262C319.779 77.55 319.311 77.772 318.771 77.928C318.231 78.084 317.697 78.162 317.169 78.162ZM325.759 78.162C325.219 78.162 324.673 78.096 324.121 77.964C323.581 77.832 323.077 77.604 322.609 77.28C322.489 77.196 322.405 77.1 322.357 76.992C322.309 76.872 322.291 76.758 322.303 76.65C322.327 76.53 322.375 76.428 322.447 76.344C322.531 76.26 322.627 76.212 322.735 76.2C322.855 76.176 322.987 76.2 323.131 76.272C323.599 76.56 324.049 76.764 324.481 76.884C324.925 76.992 325.363 77.046 325.795 77.046C326.479 77.046 326.995 76.92 327.343 76.668C327.691 76.416 327.865 76.074 327.865 75.642C327.865 75.306 327.751 75.042 327.523 74.85C327.295 74.646 326.935 74.49 326.443 74.382L324.805 74.022C324.049 73.866 323.485 73.596 323.113 73.212C322.753 72.828 322.573 72.33 322.573 71.718C322.573 71.178 322.711 70.716 322.987 70.332C323.275 69.936 323.677 69.63 324.193 69.414C324.709 69.198 325.309 69.09 325.993 69.09C326.521 69.09 327.019 69.162 327.487 69.306C327.967 69.438 328.399 69.654 328.783 69.954C328.903 70.038 328.981 70.14 329.017 70.26C329.065 70.368 329.071 70.482 329.035 70.602C329.011 70.71 328.957 70.806 328.873 70.89C328.789 70.962 328.687 71.004 328.567 71.016C328.447 71.028 328.321 70.992 328.189 70.908C327.829 70.668 327.463 70.494 327.091 70.386C326.719 70.266 326.353 70.206 325.993 70.206C325.321 70.206 324.811 70.338 324.463 70.602C324.115 70.866 323.941 71.214 323.941 71.646C323.941 71.982 324.049 72.258 324.265 72.474C324.481 72.69 324.817 72.846 325.273 72.942L326.911 73.284C327.691 73.452 328.273 73.722 328.657 74.094C329.053 74.454 329.251 74.946 329.251 75.57C329.251 76.362 328.933 76.992 328.297 77.46C327.661 77.928 326.815 78.162 325.759 78.162ZM332.193 81.366C331.953 81.366 331.773 81.3 331.653 81.168C331.533 81.048 331.473 80.868 331.473 80.628V69.864C331.473 69.624 331.533 69.444 331.653 69.324C331.773 69.192 331.947 69.126 332.175 69.126C332.415 69.126 332.595 69.192 332.715 69.324C332.847 69.444 332.913 69.624 332.913 69.864V71.574L332.715 71.322C332.907 70.638 333.285 70.098 333.849 69.702C334.425 69.294 335.109 69.09 335.901 69.09C336.681 69.09 337.359 69.276 337.935 69.648C338.523 70.008 338.973 70.53 339.285 71.214C339.609 71.886 339.771 72.69 339.771 73.626C339.771 74.55 339.609 75.354 339.285 76.038C338.973 76.71 338.529 77.232 337.953 77.604C337.377 77.976 336.693 78.162 335.901 78.162C335.109 78.162 334.431 77.964 333.867 77.568C333.303 77.16 332.919 76.62 332.715 75.948H332.931V80.628C332.931 80.868 332.865 81.048 332.733 81.168C332.601 81.3 332.421 81.366 332.193 81.366ZM335.595 76.992C336.147 76.992 336.621 76.86 337.017 76.596C337.425 76.332 337.737 75.948 337.953 75.444C338.181 74.94 338.295 74.334 338.295 73.626C338.295 72.534 338.049 71.7 337.557 71.124C337.077 70.548 336.423 70.26 335.595 70.26C335.055 70.26 334.581 70.392 334.173 70.656C333.765 70.908 333.447 71.286 333.219 71.79C333.003 72.282 332.895 72.894 332.895 73.626C332.895 74.706 333.141 75.54 333.633 76.128C334.125 76.704 334.779 76.992 335.595 76.992ZM344.632 78.162C343.768 78.162 343.108 77.898 342.652 77.37C342.196 76.842 341.968 76.086 341.968 75.102V65.922C341.968 65.682 342.028 65.502 342.148 65.382C342.268 65.25 342.448 65.184 342.688 65.184C342.916 65.184 343.096 65.25 343.228 65.382C343.36 65.502 343.426 65.682 343.426 65.922V74.994C343.426 75.642 343.552 76.128 343.804 76.452C344.068 76.764 344.452 76.92 344.956 76.92C345.064 76.92 345.16 76.914 345.244 76.902C345.328 76.89 345.412 76.884 345.496 76.884C345.628 76.872 345.718 76.902 345.766 76.974C345.826 77.046 345.856 77.19 345.856 77.406C345.856 77.622 345.808 77.784 345.712 77.892C345.616 78 345.46 78.072 345.244 78.108C345.148 78.12 345.046 78.132 344.938 78.144C344.83 78.156 344.728 78.162 344.632 78.162ZM351.148 78.162C350.224 78.162 349.426 77.982 348.754 77.622C348.094 77.25 347.578 76.728 347.206 76.056C346.846 75.384 346.666 74.58 346.666 73.644C346.666 72.732 346.846 71.94 347.206 71.268C347.566 70.584 348.058 70.05 348.682 69.666C349.318 69.282 350.05 69.09 350.878 69.09C351.466 69.09 351.994 69.192 352.462 69.396C352.93 69.588 353.326 69.87 353.65 70.242C353.986 70.614 354.238 71.064 354.406 71.592C354.586 72.12 354.676 72.714 354.676 73.374C354.676 73.566 354.622 73.71 354.514 73.806C354.406 73.89 354.25 73.932 354.046 73.932H347.782V72.978H353.704L353.416 73.212C353.416 72.564 353.32 72.018 353.128 71.574C352.936 71.118 352.654 70.77 352.282 70.53C351.922 70.29 351.466 70.17 350.914 70.17C350.302 70.17 349.78 70.314 349.348 70.602C348.928 70.878 348.61 71.268 348.394 71.772C348.178 72.264 348.07 72.84 348.07 73.5V73.608C348.07 74.712 348.334 75.552 348.862 76.128C349.402 76.704 350.164 76.992 351.148 76.992C351.556 76.992 351.958 76.938 352.354 76.83C352.762 76.722 353.158 76.542 353.542 76.29C353.71 76.182 353.86 76.134 353.992 76.146C354.136 76.146 354.25 76.188 354.334 76.272C354.418 76.344 354.472 76.44 354.496 76.56C354.532 76.668 354.52 76.788 354.46 76.92C354.412 77.052 354.31 77.166 354.154 77.262C353.758 77.55 353.29 77.772 352.75 77.928C352.21 78.084 351.676 78.162 351.148 78.162ZM360.656 81.402C360.02 81.402 359.396 81.324 358.784 81.168C358.184 81.024 357.638 80.79 357.146 80.466C357.002 80.382 356.906 80.28 356.858 80.16C356.822 80.04 356.816 79.92 356.84 79.8C356.864 79.692 356.918 79.59 357.002 79.494C357.086 79.41 357.182 79.356 357.29 79.332C357.41 79.308 357.53 79.326 357.65 79.386C358.178 79.71 358.682 79.932 359.162 80.052C359.642 80.172 360.116 80.232 360.584 80.232C361.436 80.232 362.078 80.004 362.51 79.548C362.954 79.092 363.176 78.432 363.176 77.568V75.534H363.356C363.176 76.23 362.792 76.782 362.204 77.19C361.628 77.598 360.95 77.802 360.17 77.802C359.366 77.802 358.67 77.622 358.082 77.262C357.494 76.89 357.038 76.374 356.714 75.714C356.402 75.054 356.246 74.292 356.246 73.428C356.246 72.78 356.336 72.192 356.516 71.664C356.696 71.124 356.954 70.668 357.29 70.296C357.638 69.912 358.052 69.618 358.532 69.414C359.024 69.198 359.57 69.09 360.17 69.09C360.962 69.09 361.646 69.294 362.222 69.702C362.798 70.098 363.17 70.638 363.338 71.322L363.158 71.538V69.864C363.158 69.624 363.218 69.444 363.338 69.324C363.47 69.192 363.65 69.126 363.878 69.126C364.118 69.126 364.298 69.192 364.418 69.324C364.538 69.444 364.598 69.624 364.598 69.864V77.37C364.598 78.702 364.262 79.704 363.59 80.376C362.93 81.06 361.952 81.402 360.656 81.402ZM360.44 76.614C361.004 76.614 361.49 76.488 361.898 76.236C362.306 75.972 362.618 75.6 362.834 75.12C363.062 74.64 363.176 74.076 363.176 73.428C363.176 72.456 362.93 71.688 362.438 71.124C361.946 70.548 361.28 70.26 360.44 70.26C359.888 70.26 359.408 70.392 359 70.656C358.592 70.908 358.274 71.274 358.046 71.754C357.83 72.222 357.722 72.78 357.722 73.428C357.722 74.4 357.968 75.174 358.46 75.75C358.952 76.326 359.612 76.614 360.44 76.614ZM370.087 78.162C369.487 78.162 368.947 78.048 368.467 77.82C367.999 77.58 367.627 77.256 367.351 76.848C367.075 76.44 366.937 75.984 366.937 75.48C366.937 74.832 367.099 74.322 367.423 73.95C367.759 73.578 368.305 73.314 369.061 73.158C369.829 73.002 370.873 72.924 372.193 72.924H373.003V73.878H372.211C371.239 73.878 370.471 73.926 369.907 74.022C369.355 74.106 368.965 74.256 368.737 74.472C368.521 74.688 368.413 74.994 368.413 75.39C368.413 75.882 368.581 76.284 368.917 76.596C369.265 76.908 369.733 77.064 370.321 77.064C370.801 77.064 371.221 76.95 371.581 76.722C371.953 76.494 372.241 76.182 372.445 75.786C372.661 75.39 372.769 74.934 372.769 74.418V72.366C372.769 71.622 372.619 71.088 372.319 70.764C372.019 70.428 371.527 70.26 370.843 70.26C370.423 70.26 370.003 70.314 369.583 70.422C369.163 70.53 368.719 70.704 368.251 70.944C368.083 71.028 367.939 71.058 367.819 71.034C367.699 70.998 367.603 70.932 367.531 70.836C367.459 70.74 367.417 70.632 367.405 70.512C367.393 70.38 367.417 70.254 367.477 70.134C367.549 70.014 367.657 69.918 367.801 69.846C368.329 69.582 368.851 69.39 369.367 69.27C369.883 69.15 370.375 69.09 370.843 69.09C371.599 69.09 372.223 69.216 372.715 69.468C373.207 69.708 373.573 70.08 373.813 70.584C374.053 71.076 374.173 71.712 374.173 72.492V77.37C374.173 77.61 374.113 77.796 373.993 77.928C373.885 78.06 373.723 78.126 373.507 78.126C373.279 78.126 373.105 78.06 372.985 77.928C372.865 77.796 372.805 77.61 372.805 77.37V75.966H372.967C372.871 76.422 372.685 76.812 372.409 77.136C372.145 77.46 371.815 77.712 371.419 77.892C371.023 78.072 370.579 78.162 370.087 78.162ZM381.306 78.162C380.514 78.162 379.83 77.958 379.254 77.55C378.69 77.142 378.312 76.596 378.12 75.912L378.318 75.714V77.37C378.318 77.61 378.252 77.796 378.12 77.928C378 78.06 377.826 78.126 377.598 78.126C377.358 78.126 377.178 78.06 377.058 77.928C376.938 77.796 376.878 77.61 376.878 77.37V65.922C376.878 65.682 376.938 65.502 377.058 65.382C377.178 65.25 377.358 65.184 377.598 65.184C377.826 65.184 378.006 65.25 378.138 65.382C378.27 65.502 378.336 65.682 378.336 65.922V71.286H378.12C378.324 70.614 378.708 70.08 379.272 69.684C379.836 69.288 380.514 69.09 381.306 69.09C382.098 69.09 382.782 69.276 383.358 69.648C383.934 70.008 384.378 70.53 384.69 71.214C385.014 71.886 385.176 72.69 385.176 73.626C385.176 74.55 385.014 75.354 384.69 76.038C384.378 76.71 383.928 77.232 383.34 77.604C382.764 77.976 382.086 78.162 381.306 78.162ZM381 76.992C381.552 76.992 382.026 76.86 382.422 76.596C382.83 76.332 383.142 75.948 383.358 75.444C383.586 74.94 383.7 74.334 383.7 73.626C383.7 72.534 383.454 71.7 382.962 71.124C382.482 70.548 381.828 70.26 381 70.26C380.46 70.26 379.986 70.392 379.578 70.656C379.17 70.908 378.852 71.286 378.624 71.79C378.408 72.282 378.3 72.894 378.3 73.626C378.3 74.706 378.546 75.54 379.038 76.128C379.53 76.704 380.184 76.992 381 76.992ZM390.036 78.162C389.172 78.162 388.512 77.898 388.056 77.37C387.6 76.842 387.372 76.086 387.372 75.102V65.922C387.372 65.682 387.432 65.502 387.552 65.382C387.672 65.25 387.852 65.184 388.092 65.184C388.32 65.184 388.5 65.25 388.632 65.382C388.764 65.502 388.83 65.682 388.83 65.922V74.994C388.83 75.642 388.956 76.128 389.208 76.452C389.472 76.764 389.856 76.92 390.36 76.92C390.468 76.92 390.564 76.914 390.648 76.902C390.732 76.89 390.816 76.884 390.9 76.884C391.032 76.872 391.122 76.902 391.17 76.974C391.23 77.046 391.26 77.19 391.26 77.406C391.26 77.622 391.212 77.784 391.116 77.892C391.02 78 390.864 78.072 390.648 78.108C390.552 78.12 390.45 78.132 390.342 78.144C390.234 78.156 390.132 78.162 390.036 78.162ZM396.552 78.162C395.628 78.162 394.83 77.982 394.158 77.622C393.498 77.25 392.982 76.728 392.61 76.056C392.25 75.384 392.07 74.58 392.07 73.644C392.07 72.732 392.25 71.94 392.61 71.268C392.97 70.584 393.462 70.05 394.086 69.666C394.722 69.282 395.454 69.09 396.282 69.09C396.87 69.09 397.398 69.192 397.866 69.396C398.334 69.588 398.73 69.87 399.054 70.242C399.39 70.614 399.642 71.064 399.81 71.592C399.99 72.12 400.08 72.714 400.08 73.374C400.08 73.566 400.026 73.71 399.918 73.806C399.81 73.89 399.654 73.932 399.45 73.932H393.186V72.978H399.108L398.82 73.212C398.82 72.564 398.724 72.018 398.532 71.574C398.34 71.118 398.058 70.77 397.686 70.53C397.326 70.29 396.87 70.17 396.318 70.17C395.706 70.17 395.184 70.314 394.752 70.602C394.332 70.878 394.014 71.268 393.798 71.772C393.582 72.264 393.474 72.84 393.474 73.5V73.608C393.474 74.712 393.738 75.552 394.266 76.128C394.806 76.704 395.568 76.992 396.552 76.992C396.96 76.992 397.362 76.938 397.758 76.83C398.166 76.722 398.562 76.542 398.946 76.29C399.114 76.182 399.264 76.134 399.396 76.146C399.54 76.146 399.654 76.188 399.738 76.272C399.822 76.344 399.876 76.44 399.9 76.56C399.936 76.668 399.924 76.788 399.864 76.92C399.816 77.052 399.714 77.166 399.558 77.262C399.162 77.55 398.694 77.772 398.154 77.928C397.614 78.084 397.08 78.162 396.552 78.162Z" fill="#101E37"/>
<path d="M421.375 69L417.495 72.88L413.615 69C413.225 68.61 412.595 68.61 412.205 69C411.815 69.39 411.815 70.02 412.205 70.41L416.795 75C417.185 75.39 417.815 75.39 418.205 75L422.795 70.41C423.185 70.02 423.185 69.39 422.795 69C422.405 68.62 421.765 68.61 421.375 69Z" fill="#101E37"/>
</svg>
