<svg width="728" height="230" viewBox="0 0 728 230" fill="none" xmlns="http://www.w3.org/2000/svg">
<g clip-path="url(#clip0_4999_5661)">
<rect width="728" height="230" rx="8" fill="#F3F6F9"/>
<g clip-path="url(#clip1_4999_5661)">
<rect x="78" y="-50.6328" width="1072" height="575" fill="white"/>
<path d="M216 -50.6328H158V524.367H216V-50.6328Z" fill="#F7E5FF" fill-opacity="0.5"/>
<path d="M302 -50.6328H242V524.367H302V-50.6328Z" fill="#F7E5FF" fill-opacity="0.5"/>
<path d="M387 -50.6328H328V524.367H387V-50.6328Z" fill="#F7E5FF" fill-opacity="0.5"/>
<path d="M471 -50.6328H413V524.367H471V-50.6328Z" fill="#F7E5FF" fill-opacity="0.5"/>
<path d="M556 -50.6328H497V524.367H556V-50.6328Z" fill="#F7E5FF" fill-opacity="0.5"/>
<path d="M641 -50.6328H582V524.367H641V-50.6328Z" fill="#F7E5FF" fill-opacity="0.5"/>
<path d="M726 -50.6328H667V524.367H726V-50.6328Z" fill="#F7E5FF" fill-opacity="0.5"/>
</g>
<rect x="77" y="-51.6328" width="1074" height="577" stroke="#E6EBF0" stroke-width="2"/>
<rect x="157" y="101" width="314" height="50" rx="9" fill="white"/>
<rect x="157" y="101" width="314" height="50" rx="9" stroke="#E6EBF0" stroke-width="2"/>
<path d="M177.056 132.162C175.808 132.162 174.74 131.898 173.852 131.37C172.964 130.842 172.28 130.092 171.8 129.12C171.332 128.148 171.098 126.99 171.098 125.646C171.098 124.638 171.23 123.738 171.494 122.946C171.77 122.142 172.16 121.464 172.664 120.912C173.18 120.348 173.81 119.916 174.554 119.616C175.298 119.304 176.132 119.148 177.056 119.148C177.8 119.148 178.508 119.256 179.18 119.472C179.852 119.676 180.434 119.982 180.926 120.39C181.082 120.51 181.184 120.648 181.232 120.804C181.292 120.948 181.298 121.092 181.25 121.236C181.214 121.368 181.142 121.482 181.034 121.578C180.938 121.662 180.818 121.704 180.674 121.704C180.53 121.704 180.368 121.644 180.188 121.524C179.756 121.176 179.282 120.918 178.766 120.75C178.25 120.582 177.692 120.498 177.092 120.498C176.144 120.498 175.34 120.702 174.68 121.11C174.02 121.506 173.522 122.088 173.186 122.856C172.85 123.624 172.682 124.554 172.682 125.646C172.682 126.738 172.85 127.674 173.186 128.454C173.522 129.222 174.02 129.81 174.68 130.218C175.34 130.614 176.144 130.812 177.092 130.812C177.68 130.812 178.238 130.728 178.766 130.56C179.294 130.38 179.78 130.116 180.224 129.768C180.404 129.648 180.566 129.594 180.71 129.606C180.854 129.606 180.974 129.648 181.07 129.732C181.166 129.816 181.232 129.924 181.268 130.056C181.316 130.188 181.316 130.326 181.268 130.47C181.232 130.614 181.142 130.74 180.998 130.848C180.494 131.28 179.9 131.61 179.216 131.838C178.544 132.054 177.824 132.162 177.056 132.162ZM186.483 132.162C185.631 132.162 184.893 131.976 184.269 131.604C183.645 131.232 183.159 130.71 182.811 130.038C182.475 129.354 182.307 128.55 182.307 127.626C182.307 126.93 182.403 126.306 182.595 125.754C182.787 125.19 183.069 124.71 183.441 124.314C183.813 123.918 184.251 123.618 184.755 123.414C185.271 123.198 185.847 123.09 186.483 123.09C187.335 123.09 188.073 123.276 188.697 123.648C189.321 124.02 189.801 124.548 190.137 125.232C190.485 125.904 190.659 126.702 190.659 127.626C190.659 128.322 190.563 128.946 190.371 129.498C190.179 130.05 189.897 130.53 189.525 130.938C189.153 131.334 188.709 131.64 188.193 131.856C187.689 132.06 187.119 132.162 186.483 132.162ZM186.483 130.992C187.023 130.992 187.497 130.86 187.905 130.596C188.313 130.332 188.625 129.948 188.841 129.444C189.069 128.94 189.183 128.334 189.183 127.626C189.183 126.534 188.937 125.7 188.445 125.124C187.965 124.548 187.311 124.26 186.483 124.26C185.931 124.26 185.451 124.392 185.043 124.656C184.647 124.908 184.335 125.286 184.107 125.79C183.891 126.282 183.783 126.894 183.783 127.626C183.783 128.706 184.029 129.54 184.521 130.128C185.013 130.704 185.667 130.992 186.483 130.992ZM193.568 132.126C193.328 132.126 193.148 132.06 193.028 131.928C192.908 131.796 192.848 131.61 192.848 131.37V123.864C192.848 123.624 192.908 123.444 193.028 123.324C193.148 123.192 193.322 123.126 193.55 123.126C193.778 123.126 193.952 123.192 194.072 123.324C194.204 123.444 194.27 123.624 194.27 123.864V125.412L194.072 125.196C194.324 124.5 194.732 123.978 195.296 123.63C195.872 123.27 196.532 123.09 197.276 123.09C197.972 123.09 198.548 123.216 199.004 123.468C199.472 123.72 199.82 124.104 200.048 124.62C200.276 125.124 200.39 125.766 200.39 126.546V131.37C200.39 131.61 200.324 131.796 200.192 131.928C200.072 132.06 199.898 132.126 199.67 132.126C199.43 132.126 199.244 132.06 199.112 131.928C198.992 131.796 198.932 131.61 198.932 131.37V126.636C198.932 125.82 198.77 125.226 198.446 124.854C198.134 124.47 197.63 124.278 196.934 124.278C196.13 124.278 195.488 124.53 195.008 125.034C194.54 125.526 194.306 126.186 194.306 127.014V131.37C194.306 131.874 194.06 132.126 193.568 132.126ZM206.589 132.162C205.905 132.162 205.329 132.042 204.861 131.802C204.405 131.55 204.063 131.19 203.835 130.722C203.607 130.242 203.493 129.66 203.493 128.976V124.386H202.287C202.083 124.386 201.927 124.338 201.819 124.242C201.711 124.134 201.657 123.99 201.657 123.81C201.657 123.63 201.711 123.492 201.819 123.396C201.927 123.3 202.083 123.252 202.287 123.252H203.493V121.182C203.493 120.942 203.559 120.762 203.691 120.642C203.823 120.51 204.003 120.444 204.231 120.444C204.459 120.444 204.633 120.51 204.753 120.642C204.885 120.762 204.951 120.942 204.951 121.182V123.252H207.219C207.423 123.252 207.579 123.3 207.687 123.396C207.795 123.492 207.849 123.63 207.849 123.81C207.849 123.99 207.795 124.134 207.687 124.242C207.579 124.338 207.423 124.386 207.219 124.386H204.951V128.832C204.951 129.516 205.095 130.038 205.383 130.398C205.671 130.746 206.139 130.92 206.787 130.92C207.015 130.92 207.207 130.896 207.363 130.848C207.531 130.8 207.669 130.776 207.777 130.776C207.885 130.764 207.975 130.8 208.047 130.884C208.119 130.968 208.155 131.112 208.155 131.316C208.155 131.46 208.125 131.592 208.065 131.712C208.017 131.832 207.927 131.916 207.795 131.964C207.651 132.012 207.459 132.054 207.219 132.09C206.991 132.138 206.781 132.162 206.589 132.162ZM213.226 132.162C212.302 132.162 211.504 131.982 210.832 131.622C210.172 131.25 209.656 130.728 209.284 130.056C208.924 129.384 208.744 128.58 208.744 127.644C208.744 126.732 208.924 125.94 209.284 125.268C209.644 124.584 210.136 124.05 210.76 123.666C211.396 123.282 212.128 123.09 212.956 123.09C213.544 123.09 214.072 123.192 214.54 123.396C215.008 123.588 215.404 123.87 215.728 124.242C216.064 124.614 216.316 125.064 216.484 125.592C216.664 126.12 216.754 126.714 216.754 127.374C216.754 127.566 216.7 127.71 216.592 127.806C216.484 127.89 216.328 127.932 216.124 127.932H209.86V126.978H215.782L215.494 127.212C215.494 126.564 215.398 126.018 215.206 125.574C215.014 125.118 214.732 124.77 214.36 124.53C214 124.29 213.544 124.17 212.992 124.17C212.38 124.17 211.858 124.314 211.426 124.602C211.006 124.878 210.688 125.268 210.472 125.772C210.256 126.264 210.148 126.84 210.148 127.5V127.608C210.148 128.712 210.412 129.552 210.94 130.128C211.48 130.704 212.242 130.992 213.226 130.992C213.634 130.992 214.036 130.938 214.432 130.83C214.84 130.722 215.236 130.542 215.62 130.29C215.788 130.182 215.938 130.134 216.07 130.146C216.214 130.146 216.328 130.188 216.412 130.272C216.496 130.344 216.55 130.44 216.574 130.56C216.61 130.668 216.598 130.788 216.538 130.92C216.49 131.052 216.388 131.166 216.232 131.262C215.836 131.55 215.368 131.772 214.828 131.928C214.288 132.084 213.754 132.162 213.226 132.162ZM219.584 132.126C219.344 132.126 219.164 132.06 219.044 131.928C218.924 131.796 218.864 131.61 218.864 131.37V123.864C218.864 123.624 218.924 123.444 219.044 123.324C219.164 123.192 219.338 123.126 219.566 123.126C219.794 123.126 219.968 123.192 220.088 123.324C220.22 123.444 220.286 123.624 220.286 123.864V125.412L220.088 125.196C220.34 124.5 220.748 123.978 221.312 123.63C221.888 123.27 222.548 123.09 223.292 123.09C223.988 123.09 224.564 123.216 225.02 123.468C225.488 123.72 225.836 124.104 226.064 124.62C226.292 125.124 226.406 125.766 226.406 126.546V131.37C226.406 131.61 226.34 131.796 226.208 131.928C226.088 132.06 225.914 132.126 225.686 132.126C225.446 132.126 225.26 132.06 225.128 131.928C225.008 131.796 224.948 131.61 224.948 131.37V126.636C224.948 125.82 224.786 125.226 224.462 124.854C224.15 124.47 223.646 124.278 222.95 124.278C222.146 124.278 221.504 124.53 221.024 125.034C220.556 125.526 220.322 126.186 220.322 127.014V131.37C220.322 131.874 220.076 132.126 219.584 132.126ZM229.815 132.09C229.575 132.09 229.395 132.024 229.275 131.892C229.155 131.748 229.095 131.55 229.095 131.298V123.936C229.095 123.684 229.155 123.492 229.275 123.36C229.395 123.228 229.575 123.162 229.815 123.162C230.043 123.162 230.223 123.228 230.355 123.36C230.487 123.492 230.553 123.684 230.553 123.936V131.298C230.553 131.55 230.487 131.748 230.355 131.892C230.235 132.024 230.055 132.09 229.815 132.09ZM229.815 121.146C229.515 121.146 229.281 121.068 229.113 120.912C228.945 120.744 228.861 120.522 228.861 120.246C228.861 119.958 228.945 119.742 229.113 119.598C229.281 119.442 229.515 119.364 229.815 119.364C230.127 119.364 230.361 119.442 230.517 119.598C230.685 119.742 230.769 119.958 230.769 120.246C230.769 120.522 230.685 120.744 230.517 120.912C230.361 121.068 230.127 121.146 229.815 121.146ZM236.608 132.162C235.828 132.162 235.144 131.976 234.556 131.604C233.98 131.232 233.53 130.71 233.206 130.038C232.894 129.354 232.738 128.55 232.738 127.626C232.738 126.69 232.894 125.886 233.206 125.214C233.53 124.53 233.98 124.008 234.556 123.648C235.144 123.276 235.828 123.09 236.608 123.09C237.4 123.09 238.078 123.288 238.642 123.684C239.206 124.08 239.584 124.614 239.776 125.286H239.578V119.922C239.578 119.682 239.638 119.502 239.758 119.382C239.89 119.25 240.076 119.184 240.316 119.184C240.544 119.184 240.718 119.25 240.838 119.382C240.97 119.502 241.036 119.682 241.036 119.922V131.37C241.036 131.61 240.976 131.796 240.856 131.928C240.736 132.06 240.556 132.126 240.316 132.126C240.088 132.126 239.908 132.06 239.776 131.928C239.656 131.796 239.596 131.61 239.596 131.37V129.66L239.794 129.912C239.602 130.596 239.218 131.142 238.642 131.55C238.078 131.958 237.4 132.162 236.608 132.162ZM236.914 130.992C237.454 130.992 237.928 130.86 238.336 130.596C238.744 130.332 239.056 129.948 239.272 129.444C239.5 128.94 239.614 128.334 239.614 127.626C239.614 126.534 239.368 125.7 238.876 125.124C238.396 124.548 237.742 124.26 236.914 124.26C236.362 124.26 235.882 124.392 235.474 124.656C235.078 124.908 234.766 125.286 234.538 125.79C234.322 126.282 234.214 126.894 234.214 127.626C234.214 128.706 234.46 129.54 234.952 130.128C235.444 130.704 236.098 130.992 236.914 130.992ZM247.408 132.162C246.556 132.162 245.818 131.976 245.194 131.604C244.57 131.232 244.084 130.71 243.736 130.038C243.4 129.354 243.232 128.55 243.232 127.626C243.232 126.93 243.328 126.306 243.52 125.754C243.712 125.19 243.994 124.71 244.366 124.314C244.738 123.918 245.176 123.618 245.68 123.414C246.196 123.198 246.772 123.09 247.408 123.09C248.26 123.09 248.998 123.276 249.622 123.648C250.246 124.02 250.726 124.548 251.062 125.232C251.41 125.904 251.584 126.702 251.584 127.626C251.584 128.322 251.488 128.946 251.296 129.498C251.104 130.05 250.822 130.53 250.45 130.938C250.078 131.334 249.634 131.64 249.118 131.856C248.614 132.06 248.044 132.162 247.408 132.162ZM247.408 130.992C247.948 130.992 248.422 130.86 248.83 130.596C249.238 130.332 249.55 129.948 249.766 129.444C249.994 128.94 250.108 128.334 250.108 127.626C250.108 126.534 249.862 125.7 249.37 125.124C248.89 124.548 248.236 124.26 247.408 124.26C246.856 124.26 246.376 124.392 245.968 124.656C245.572 124.908 245.26 125.286 245.032 125.79C244.816 126.282 244.708 126.894 244.708 127.626C244.708 128.706 244.954 129.54 245.446 130.128C245.938 130.704 246.592 130.992 247.408 130.992ZM262.123 132.162C261.247 132.162 260.491 131.97 259.855 131.586C259.219 131.202 258.727 130.668 258.379 129.984C258.043 129.288 257.875 128.484 257.875 127.572C257.875 126.876 257.971 126.252 258.163 125.7C258.355 125.148 258.637 124.68 259.009 124.296C259.381 123.9 259.825 123.6 260.341 123.396C260.869 123.192 261.463 123.09 262.123 123.09C262.555 123.09 263.005 123.156 263.473 123.288C263.941 123.42 264.367 123.648 264.751 123.972C264.871 124.056 264.949 124.158 264.985 124.278C265.021 124.398 265.021 124.518 264.985 124.638C264.949 124.746 264.889 124.842 264.805 124.926C264.721 124.998 264.613 125.04 264.481 125.052C264.361 125.064 264.235 125.022 264.103 124.926C263.791 124.686 263.473 124.518 263.149 124.422C262.825 124.326 262.513 124.278 262.213 124.278C261.745 124.278 261.337 124.356 260.989 124.512C260.641 124.656 260.347 124.866 260.107 125.142C259.867 125.418 259.681 125.76 259.549 126.168C259.429 126.576 259.369 127.05 259.369 127.59C259.369 128.634 259.615 129.462 260.107 130.074C260.599 130.674 261.301 130.974 262.213 130.974C262.513 130.974 262.819 130.926 263.131 130.83C263.455 130.734 263.779 130.566 264.103 130.326C264.235 130.23 264.361 130.188 264.481 130.2C264.601 130.212 264.703 130.26 264.787 130.344C264.871 130.416 264.925 130.512 264.949 130.632C264.985 130.752 264.985 130.872 264.949 130.992C264.913 131.1 264.835 131.196 264.715 131.28C264.331 131.592 263.911 131.82 263.455 131.964C262.999 132.096 262.555 132.162 262.123 132.162ZM270.207 132.162C269.355 132.162 268.617 131.976 267.993 131.604C267.369 131.232 266.883 130.71 266.535 130.038C266.199 129.354 266.031 128.55 266.031 127.626C266.031 126.93 266.127 126.306 266.319 125.754C266.511 125.19 266.793 124.71 267.165 124.314C267.537 123.918 267.975 123.618 268.479 123.414C268.995 123.198 269.571 123.09 270.207 123.09C271.059 123.09 271.797 123.276 272.421 123.648C273.045 124.02 273.525 124.548 273.861 125.232C274.209 125.904 274.383 126.702 274.383 127.626C274.383 128.322 274.287 128.946 274.095 129.498C273.903 130.05 273.621 130.53 273.249 130.938C272.877 131.334 272.433 131.64 271.917 131.856C271.413 132.06 270.843 132.162 270.207 132.162ZM270.207 130.992C270.747 130.992 271.221 130.86 271.629 130.596C272.037 130.332 272.349 129.948 272.565 129.444C272.793 128.94 272.907 128.334 272.907 127.626C272.907 126.534 272.661 125.7 272.169 125.124C271.689 124.548 271.035 124.26 270.207 124.26C269.655 124.26 269.175 124.392 268.767 124.656C268.371 124.908 268.059 125.286 267.831 125.79C267.615 126.282 267.507 126.894 267.507 127.626C267.507 128.706 267.753 129.54 268.245 130.128C268.737 130.704 269.391 130.992 270.207 130.992ZM277.293 132.126C277.053 132.126 276.873 132.06 276.753 131.928C276.633 131.796 276.573 131.61 276.573 131.37V123.864C276.573 123.624 276.633 123.444 276.753 123.324C276.873 123.192 277.047 123.126 277.275 123.126C277.503 123.126 277.677 123.192 277.797 123.324C277.929 123.444 277.995 123.624 277.995 123.864V125.412L277.797 125.196C278.049 124.5 278.457 123.978 279.021 123.63C279.597 123.27 280.257 123.09 281.001 123.09C281.697 123.09 282.273 123.216 282.729 123.468C283.197 123.72 283.545 124.104 283.773 124.62C284.001 125.124 284.115 125.766 284.115 126.546V131.37C284.115 131.61 284.049 131.796 283.917 131.928C283.797 132.06 283.623 132.126 283.395 132.126C283.155 132.126 282.969 132.06 282.837 131.928C282.717 131.796 282.657 131.61 282.657 131.37V126.636C282.657 125.82 282.495 125.226 282.171 124.854C281.859 124.47 281.355 124.278 280.659 124.278C279.855 124.278 279.213 124.53 278.733 125.034C278.265 125.526 278.031 126.186 278.031 127.014V131.37C278.031 131.874 277.785 132.126 277.293 132.126ZM294.54 132.162C293.832 132.162 293.244 132.036 292.776 131.784C292.32 131.52 291.972 131.13 291.732 130.614C291.504 130.098 291.39 129.456 291.39 128.688V123.864C291.39 123.612 291.45 123.426 291.57 123.306C291.702 123.186 291.882 123.126 292.11 123.126C292.35 123.126 292.53 123.186 292.65 123.306C292.782 123.426 292.848 123.612 292.848 123.864V128.67C292.848 129.438 293.004 130.014 293.316 130.398C293.64 130.77 294.144 130.956 294.828 130.956C295.572 130.956 296.178 130.704 296.646 130.2C297.114 129.696 297.348 129.036 297.348 128.22V123.864C297.348 123.612 297.408 123.426 297.528 123.306C297.66 123.186 297.846 123.126 298.086 123.126C298.314 123.126 298.488 123.186 298.608 123.306C298.74 123.426 298.806 123.612 298.806 123.864V131.37C298.806 131.874 298.572 132.126 298.104 132.126C297.876 132.126 297.696 132.06 297.564 131.928C297.444 131.796 297.384 131.61 297.384 131.37V129.732L297.618 129.984C297.378 130.692 296.982 131.232 296.43 131.604C295.89 131.976 295.26 132.162 294.54 132.162ZM302.254 132.126C302.014 132.126 301.834 132.06 301.714 131.928C301.594 131.796 301.534 131.61 301.534 131.37V123.864C301.534 123.624 301.594 123.444 301.714 123.324C301.834 123.192 302.008 123.126 302.236 123.126C302.464 123.126 302.638 123.192 302.758 123.324C302.89 123.444 302.956 123.624 302.956 123.864V125.412L302.758 125.196C303.01 124.5 303.418 123.978 303.982 123.63C304.558 123.27 305.218 123.09 305.962 123.09C306.658 123.09 307.234 123.216 307.69 123.468C308.158 123.72 308.506 124.104 308.734 124.62C308.962 125.124 309.076 125.766 309.076 126.546V131.37C309.076 131.61 309.01 131.796 308.878 131.928C308.758 132.06 308.584 132.126 308.356 132.126C308.116 132.126 307.93 132.06 307.798 131.928C307.678 131.796 307.618 131.61 307.618 131.37V126.636C307.618 125.82 307.456 125.226 307.132 124.854C306.82 124.47 306.316 124.278 305.62 124.278C304.816 124.278 304.174 124.53 303.694 125.034C303.226 125.526 302.992 126.186 302.992 127.014V131.37C302.992 131.874 302.746 132.126 302.254 132.126ZM314.518 132.162C313.918 132.162 313.378 132.048 312.898 131.82C312.43 131.58 312.058 131.256 311.782 130.848C311.506 130.44 311.368 129.984 311.368 129.48C311.368 128.832 311.53 128.322 311.854 127.95C312.19 127.578 312.736 127.314 313.492 127.158C314.26 127.002 315.304 126.924 316.624 126.924H317.434V127.878H316.642C315.67 127.878 314.902 127.926 314.338 128.022C313.786 128.106 313.396 128.256 313.168 128.472C312.952 128.688 312.844 128.994 312.844 129.39C312.844 129.882 313.012 130.284 313.348 130.596C313.696 130.908 314.164 131.064 314.752 131.064C315.232 131.064 315.652 130.95 316.012 130.722C316.384 130.494 316.672 130.182 316.876 129.786C317.092 129.39 317.2 128.934 317.2 128.418V126.366C317.2 125.622 317.05 125.088 316.75 124.764C316.45 124.428 315.958 124.26 315.274 124.26C314.854 124.26 314.434 124.314 314.014 124.422C313.594 124.53 313.15 124.704 312.682 124.944C312.514 125.028 312.37 125.058 312.25 125.034C312.13 124.998 312.034 124.932 311.962 124.836C311.89 124.74 311.848 124.632 311.836 124.512C311.824 124.38 311.848 124.254 311.908 124.134C311.98 124.014 312.088 123.918 312.232 123.846C312.76 123.582 313.282 123.39 313.798 123.27C314.314 123.15 314.806 123.09 315.274 123.09C316.03 123.09 316.654 123.216 317.146 123.468C317.638 123.708 318.004 124.08 318.244 124.584C318.484 125.076 318.604 125.712 318.604 126.492V131.37C318.604 131.61 318.544 131.796 318.424 131.928C318.316 132.06 318.154 132.126 317.938 132.126C317.71 132.126 317.536 132.06 317.416 131.928C317.296 131.796 317.236 131.61 317.236 131.37V129.966H317.398C317.302 130.422 317.116 130.812 316.84 131.136C316.576 131.46 316.246 131.712 315.85 131.892C315.454 132.072 315.01 132.162 314.518 132.162ZM328.614 132.162C327.75 132.162 327.09 131.898 326.634 131.37C326.178 130.842 325.95 130.086 325.95 129.102V119.922C325.95 119.682 326.01 119.502 326.13 119.382C326.25 119.25 326.43 119.184 326.67 119.184C326.898 119.184 327.078 119.25 327.21 119.382C327.342 119.502 327.408 119.682 327.408 119.922V128.994C327.408 129.642 327.534 130.128 327.786 130.452C328.05 130.764 328.434 130.92 328.938 130.92C329.046 130.92 329.142 130.914 329.226 130.902C329.31 130.89 329.394 130.884 329.478 130.884C329.61 130.872 329.7 130.902 329.748 130.974C329.808 131.046 329.838 131.19 329.838 131.406C329.838 131.622 329.79 131.784 329.694 131.892C329.598 132 329.442 132.072 329.226 132.108C329.13 132.12 329.028 132.132 328.92 132.144C328.812 132.156 328.71 132.162 328.614 132.162ZM334.824 132.162C333.972 132.162 333.234 131.976 332.61 131.604C331.986 131.232 331.5 130.71 331.152 130.038C330.816 129.354 330.648 128.55 330.648 127.626C330.648 126.93 330.744 126.306 330.936 125.754C331.128 125.19 331.41 124.71 331.782 124.314C332.154 123.918 332.592 123.618 333.096 123.414C333.612 123.198 334.188 123.09 334.824 123.09C335.676 123.09 336.414 123.276 337.038 123.648C337.662 124.02 338.142 124.548 338.478 125.232C338.826 125.904 339 126.702 339 127.626C339 128.322 338.904 128.946 338.712 129.498C338.52 130.05 338.238 130.53 337.866 130.938C337.494 131.334 337.05 131.64 336.534 131.856C336.03 132.06 335.46 132.162 334.824 132.162ZM334.824 130.992C335.364 130.992 335.838 130.86 336.246 130.596C336.654 130.332 336.966 129.948 337.182 129.444C337.41 128.94 337.524 128.334 337.524 127.626C337.524 126.534 337.278 125.7 336.786 125.124C336.306 124.548 335.652 124.26 334.824 124.26C334.272 124.26 333.792 124.392 333.384 124.656C332.988 124.908 332.676 125.286 332.448 125.79C332.232 126.282 332.124 126.894 332.124 127.626C332.124 128.706 332.37 129.54 332.862 130.128C333.354 130.704 334.008 130.992 334.824 130.992ZM341.91 132.126C341.67 132.126 341.49 132.06 341.37 131.928C341.25 131.796 341.19 131.61 341.19 131.37V123.864C341.19 123.624 341.25 123.444 341.37 123.324C341.49 123.192 341.664 123.126 341.892 123.126C342.12 123.126 342.294 123.192 342.414 123.324C342.546 123.444 342.612 123.624 342.612 123.864V125.412L342.414 125.196C342.666 124.5 343.074 123.978 343.638 123.63C344.214 123.27 344.874 123.09 345.618 123.09C346.314 123.09 346.89 123.216 347.346 123.468C347.814 123.72 348.162 124.104 348.39 124.62C348.618 125.124 348.732 125.766 348.732 126.546V131.37C348.732 131.61 348.666 131.796 348.534 131.928C348.414 132.06 348.24 132.126 348.012 132.126C347.772 132.126 347.586 132.06 347.454 131.928C347.334 131.796 347.274 131.61 347.274 131.37V126.636C347.274 125.82 347.112 125.226 346.788 124.854C346.476 124.47 345.972 124.278 345.276 124.278C344.472 124.278 343.83 124.53 343.35 125.034C342.882 125.526 342.648 126.186 342.648 127.014V131.37C342.648 131.874 342.402 132.126 341.91 132.126ZM355.291 135.402C354.655 135.402 354.031 135.324 353.419 135.168C352.819 135.024 352.273 134.79 351.781 134.466C351.637 134.382 351.541 134.28 351.493 134.16C351.457 134.04 351.451 133.92 351.475 133.8C351.499 133.692 351.553 133.59 351.637 133.494C351.721 133.41 351.817 133.356 351.925 133.332C352.045 133.308 352.165 133.326 352.285 133.386C352.813 133.71 353.317 133.932 353.797 134.052C354.277 134.172 354.751 134.232 355.219 134.232C356.071 134.232 356.713 134.004 357.145 133.548C357.589 133.092 357.811 132.432 357.811 131.568V129.534H357.991C357.811 130.23 357.427 130.782 356.839 131.19C356.263 131.598 355.585 131.802 354.805 131.802C354.001 131.802 353.305 131.622 352.717 131.262C352.129 130.89 351.673 130.374 351.349 129.714C351.037 129.054 350.881 128.292 350.881 127.428C350.881 126.78 350.971 126.192 351.151 125.664C351.331 125.124 351.589 124.668 351.925 124.296C352.273 123.912 352.687 123.618 353.167 123.414C353.659 123.198 354.205 123.09 354.805 123.09C355.597 123.09 356.281 123.294 356.857 123.702C357.433 124.098 357.805 124.638 357.973 125.322L357.793 125.538V123.864C357.793 123.624 357.853 123.444 357.973 123.324C358.105 123.192 358.285 123.126 358.513 123.126C358.753 123.126 358.933 123.192 359.053 123.324C359.173 123.444 359.233 123.624 359.233 123.864V131.37C359.233 132.702 358.897 133.704 358.225 134.376C357.565 135.06 356.587 135.402 355.291 135.402ZM355.075 130.614C355.639 130.614 356.125 130.488 356.533 130.236C356.941 129.972 357.253 129.6 357.469 129.12C357.697 128.64 357.811 128.076 357.811 127.428C357.811 126.456 357.565 125.688 357.073 125.124C356.581 124.548 355.915 124.26 355.075 124.26C354.523 124.26 354.043 124.392 353.635 124.656C353.227 124.908 352.909 125.274 352.681 125.754C352.465 126.222 352.357 126.78 352.357 127.428C352.357 128.4 352.603 129.174 353.095 129.75C353.587 130.326 354.247 130.614 355.075 130.614ZM362.688 132.09C362.448 132.09 362.268 132.024 362.148 131.892C362.028 131.748 361.968 131.55 361.968 131.298V123.936C361.968 123.684 362.028 123.492 362.148 123.36C362.268 123.228 362.448 123.162 362.688 123.162C362.916 123.162 363.096 123.228 363.228 123.36C363.36 123.492 363.426 123.684 363.426 123.936V131.298C363.426 131.55 363.36 131.748 363.228 131.892C363.108 132.024 362.928 132.09 362.688 132.09ZM362.688 121.146C362.388 121.146 362.154 121.068 361.986 120.912C361.818 120.744 361.734 120.522 361.734 120.246C361.734 119.958 361.818 119.742 361.986 119.598C362.154 119.442 362.388 119.364 362.688 119.364C363 119.364 363.234 119.442 363.39 119.598C363.558 119.742 363.642 119.958 363.642 120.246C363.642 120.522 363.558 120.744 363.39 120.912C363.234 121.068 363 121.146 362.688 121.146ZM369.661 132.162C368.977 132.162 368.401 132.042 367.933 131.802C367.477 131.55 367.135 131.19 366.907 130.722C366.679 130.242 366.565 129.66 366.565 128.976V124.386H365.359C365.155 124.386 364.999 124.338 364.891 124.242C364.783 124.134 364.729 123.99 364.729 123.81C364.729 123.63 364.783 123.492 364.891 123.396C364.999 123.3 365.155 123.252 365.359 123.252H366.565V121.182C366.565 120.942 366.631 120.762 366.763 120.642C366.895 120.51 367.075 120.444 367.303 120.444C367.531 120.444 367.705 120.51 367.825 120.642C367.957 120.762 368.023 120.942 368.023 121.182V123.252H370.291C370.495 123.252 370.651 123.3 370.759 123.396C370.867 123.492 370.921 123.63 370.921 123.81C370.921 123.99 370.867 124.134 370.759 124.242C370.651 124.338 370.495 124.386 370.291 124.386H368.023V128.832C368.023 129.516 368.167 130.038 368.455 130.398C368.743 130.746 369.211 130.92 369.859 130.92C370.087 130.92 370.279 130.896 370.435 130.848C370.603 130.8 370.741 130.776 370.849 130.776C370.957 130.764 371.047 130.8 371.119 130.884C371.191 130.968 371.227 131.112 371.227 131.316C371.227 131.46 371.197 131.592 371.137 131.712C371.089 131.832 370.999 131.916 370.867 131.964C370.723 132.012 370.531 132.054 370.291 132.09C370.063 132.138 369.853 132.162 369.661 132.162ZM375.54 132.162C374.832 132.162 374.244 132.036 373.776 131.784C373.32 131.52 372.972 131.13 372.732 130.614C372.504 130.098 372.39 129.456 372.39 128.688V123.864C372.39 123.612 372.45 123.426 372.57 123.306C372.702 123.186 372.882 123.126 373.11 123.126C373.35 123.126 373.53 123.186 373.65 123.306C373.782 123.426 373.848 123.612 373.848 123.864V128.67C373.848 129.438 374.004 130.014 374.316 130.398C374.64 130.77 375.144 130.956 375.828 130.956C376.572 130.956 377.178 130.704 377.646 130.2C378.114 129.696 378.348 129.036 378.348 128.22V123.864C378.348 123.612 378.408 123.426 378.528 123.306C378.66 123.186 378.846 123.126 379.086 123.126C379.314 123.126 379.488 123.186 379.608 123.306C379.74 123.426 379.806 123.612 379.806 123.864V131.37C379.806 131.874 379.572 132.126 379.104 132.126C378.876 132.126 378.696 132.06 378.564 131.928C378.444 131.796 378.384 131.61 378.384 131.37V129.732L378.618 129.984C378.378 130.692 377.982 131.232 377.43 131.604C376.89 131.976 376.26 132.162 375.54 132.162ZM385.864 132.162C385.084 132.162 384.4 131.976 383.812 131.604C383.236 131.232 382.786 130.71 382.462 130.038C382.15 129.354 381.994 128.55 381.994 127.626C381.994 126.69 382.15 125.886 382.462 125.214C382.786 124.53 383.236 124.008 383.812 123.648C384.4 123.276 385.084 123.09 385.864 123.09C386.656 123.09 387.334 123.288 387.898 123.684C388.462 124.08 388.84 124.614 389.032 125.286H388.834V119.922C388.834 119.682 388.894 119.502 389.014 119.382C389.146 119.25 389.332 119.184 389.572 119.184C389.8 119.184 389.974 119.25 390.094 119.382C390.226 119.502 390.292 119.682 390.292 119.922V131.37C390.292 131.61 390.232 131.796 390.112 131.928C389.992 132.06 389.812 132.126 389.572 132.126C389.344 132.126 389.164 132.06 389.032 131.928C388.912 131.796 388.852 131.61 388.852 131.37V129.66L389.05 129.912C388.858 130.596 388.474 131.142 387.898 131.55C387.334 131.958 386.656 132.162 385.864 132.162ZM386.17 130.992C386.71 130.992 387.184 130.86 387.592 130.596C388 130.332 388.312 129.948 388.528 129.444C388.756 128.94 388.87 128.334 388.87 127.626C388.87 126.534 388.624 125.7 388.132 125.124C387.652 124.548 386.998 124.26 386.17 124.26C385.618 124.26 385.138 124.392 384.73 124.656C384.334 124.908 384.022 125.286 383.794 125.79C383.578 126.282 383.47 126.894 383.47 127.626C383.47 128.706 383.716 129.54 384.208 130.128C384.7 130.704 385.354 130.992 386.17 130.992ZM400.621 132.162C400.081 132.162 399.535 132.096 398.983 131.964C398.443 131.832 397.939 131.604 397.471 131.28C397.351 131.196 397.267 131.1 397.219 130.992C397.171 130.872 397.153 130.758 397.165 130.65C397.189 130.53 397.237 130.428 397.309 130.344C397.393 130.26 397.489 130.212 397.597 130.2C397.717 130.176 397.849 130.2 397.993 130.272C398.461 130.56 398.911 130.764 399.343 130.884C399.787 130.992 400.225 131.046 400.657 131.046C401.341 131.046 401.857 130.92 402.205 130.668C402.553 130.416 402.727 130.074 402.727 129.642C402.727 129.306 402.613 129.042 402.385 128.85C402.157 128.646 401.797 128.49 401.305 128.382L399.667 128.022C398.911 127.866 398.347 127.596 397.975 127.212C397.615 126.828 397.435 126.33 397.435 125.718C397.435 125.178 397.573 124.716 397.849 124.332C398.137 123.936 398.539 123.63 399.055 123.414C399.571 123.198 400.171 123.09 400.855 123.09C401.383 123.09 401.881 123.162 402.349 123.306C402.829 123.438 403.261 123.654 403.645 123.954C403.765 124.038 403.843 124.14 403.879 124.26C403.927 124.368 403.933 124.482 403.897 124.602C403.873 124.71 403.819 124.806 403.735 124.89C403.651 124.962 403.549 125.004 403.429 125.016C403.309 125.028 403.183 124.992 403.051 124.908C402.691 124.668 402.325 124.494 401.953 124.386C401.581 124.266 401.215 124.206 400.855 124.206C400.183 124.206 399.673 124.338 399.325 124.602C398.977 124.866 398.803 125.214 398.803 125.646C398.803 125.982 398.911 126.258 399.127 126.474C399.343 126.69 399.679 126.846 400.135 126.942L401.773 127.284C402.553 127.452 403.135 127.722 403.519 128.094C403.915 128.454 404.113 128.946 404.113 129.57C404.113 130.362 403.795 130.992 403.159 131.46C402.523 131.928 401.677 132.162 400.621 132.162ZM409.431 132.162C408.723 132.162 408.135 132.036 407.667 131.784C407.211 131.52 406.863 131.13 406.623 130.614C406.395 130.098 406.281 129.456 406.281 128.688V123.864C406.281 123.612 406.341 123.426 406.461 123.306C406.593 123.186 406.773 123.126 407.001 123.126C407.241 123.126 407.421 123.186 407.541 123.306C407.673 123.426 407.739 123.612 407.739 123.864V128.67C407.739 129.438 407.895 130.014 408.207 130.398C408.531 130.77 409.035 130.956 409.719 130.956C410.463 130.956 411.069 130.704 411.537 130.2C412.005 129.696 412.239 129.036 412.239 128.22V123.864C412.239 123.612 412.299 123.426 412.419 123.306C412.551 123.186 412.737 123.126 412.977 123.126C413.205 123.126 413.379 123.186 413.499 123.306C413.631 123.426 413.697 123.612 413.697 123.864V131.37C413.697 131.874 413.463 132.126 412.995 132.126C412.767 132.126 412.587 132.06 412.455 131.928C412.335 131.796 412.275 131.61 412.275 131.37V129.732L412.509 129.984C412.269 130.692 411.873 131.232 411.321 131.604C410.781 131.976 410.151 132.162 409.431 132.162ZM421.249 132.072C420.949 132.072 420.709 131.982 420.529 131.802C420.349 131.61 420.259 131.37 420.259 131.082C420.259 130.794 420.349 130.56 420.529 130.38C420.709 130.188 420.949 130.092 421.249 130.092C421.549 130.092 421.783 130.188 421.951 130.38C422.131 130.56 422.221 130.794 422.221 131.082C422.221 131.37 422.131 131.61 421.951 131.802C421.783 131.982 421.549 132.072 421.249 132.072ZM425.371 132.072C425.071 132.072 424.831 131.982 424.651 131.802C424.471 131.61 424.381 131.37 424.381 131.082C424.381 130.794 424.471 130.56 424.651 130.38C424.831 130.188 425.071 130.092 425.371 130.092C425.671 130.092 425.905 130.188 426.073 130.38C426.253 130.56 426.343 130.794 426.343 131.082C426.343 131.37 426.253 131.61 426.073 131.802C425.905 131.982 425.671 132.072 425.371 132.072ZM417.127 132.072C416.827 132.072 416.587 131.982 416.407 131.802C416.227 131.61 416.137 131.37 416.137 131.082C416.137 130.794 416.227 130.56 416.407 130.38C416.587 130.188 416.827 130.092 417.127 130.092C417.427 130.092 417.661 130.188 417.829 130.38C418.009 130.56 418.099 130.794 418.099 131.082C418.099 131.37 418.009 131.61 417.829 131.802C417.661 131.982 417.427 132.072 417.127 132.072Z" fill="#101E37"/>
<path d="M449.875 123L445.995 126.88L442.115 123C441.725 122.61 441.095 122.61 440.705 123C440.315 123.39 440.315 124.02 440.705 124.41L445.295 129C445.685 129.39 446.315 129.39 446.705 129L451.295 124.41C451.685 124.02 451.685 123.39 451.295 123C450.905 122.62 450.265 122.61 449.875 123Z" fill="#101E37"/>
<rect x="496" y="101" width="195" height="50" rx="9" fill="white"/>
<rect x="496" y="101" width="195" height="50" rx="9" stroke="#E6EBF0" stroke-width="2"/>
<path d="M515.894 132.162C514.718 132.162 513.692 131.898 512.816 131.37C511.952 130.83 511.28 130.074 510.8 129.102C510.332 128.13 510.098 126.978 510.098 125.646C510.098 124.638 510.23 123.738 510.494 122.946C510.77 122.142 511.16 121.464 511.664 120.912C512.168 120.348 512.774 119.916 513.482 119.616C514.202 119.304 515.006 119.148 515.894 119.148C517.094 119.148 518.126 119.412 518.99 119.94C519.866 120.468 520.538 121.218 521.006 122.19C521.486 123.15 521.726 124.296 521.726 125.628C521.726 126.636 521.588 127.542 521.312 128.346C521.036 129.15 520.646 129.834 520.142 130.398C519.638 130.962 519.026 131.4 518.306 131.712C517.598 132.012 516.794 132.162 515.894 132.162ZM515.894 130.848C516.806 130.848 517.574 130.644 518.198 130.236C518.834 129.828 519.32 129.234 519.656 128.454C519.992 127.674 520.16 126.738 520.16 125.646C520.16 124.002 519.788 122.73 519.044 121.83C518.312 120.918 517.262 120.462 515.894 120.462C515.006 120.462 514.244 120.666 513.608 121.074C512.984 121.482 512.504 122.076 512.168 122.856C511.832 123.624 511.664 124.554 511.664 125.646C511.664 127.278 512.036 128.556 512.78 129.48C513.524 130.392 514.562 130.848 515.894 130.848ZM527.677 132.162C526.993 132.162 526.417 132.042 525.949 131.802C525.493 131.55 525.151 131.19 524.923 130.722C524.695 130.242 524.581 129.66 524.581 128.976V124.386H523.375C523.171 124.386 523.015 124.338 522.907 124.242C522.799 124.134 522.745 123.99 522.745 123.81C522.745 123.63 522.799 123.492 522.907 123.396C523.015 123.3 523.171 123.252 523.375 123.252H524.581V121.182C524.581 120.942 524.647 120.762 524.779 120.642C524.911 120.51 525.091 120.444 525.319 120.444C525.547 120.444 525.721 120.51 525.841 120.642C525.973 120.762 526.039 120.942 526.039 121.182V123.252H528.307C528.511 123.252 528.667 123.3 528.775 123.396C528.883 123.492 528.937 123.63 528.937 123.81C528.937 123.99 528.883 124.134 528.775 124.242C528.667 124.338 528.511 124.386 528.307 124.386H526.039V128.832C526.039 129.516 526.183 130.038 526.471 130.398C526.759 130.746 527.227 130.92 527.875 130.92C528.103 130.92 528.295 130.896 528.451 130.848C528.619 130.8 528.757 130.776 528.865 130.776C528.973 130.764 529.063 130.8 529.135 130.884C529.207 130.968 529.243 131.112 529.243 131.316C529.243 131.46 529.213 131.592 529.153 131.712C529.105 131.832 529.015 131.916 528.883 131.964C528.739 132.012 528.547 132.054 528.307 132.09C528.079 132.138 527.869 132.162 527.677 132.162ZM531.198 132.126C530.958 132.126 530.772 132.06 530.64 131.928C530.52 131.796 530.46 131.61 530.46 131.37V123.864C530.46 123.624 530.52 123.444 530.64 123.324C530.76 123.192 530.934 123.126 531.162 123.126C531.39 123.126 531.564 123.192 531.684 123.324C531.816 123.444 531.882 123.624 531.882 123.864V125.322H531.702C531.894 124.614 532.26 124.068 532.8 123.684C533.34 123.3 534.006 123.096 534.798 123.072C534.978 123.06 535.122 123.102 535.23 123.198C535.338 123.282 535.398 123.432 535.41 123.648C535.422 123.852 535.374 124.014 535.266 124.134C535.158 124.254 534.99 124.326 534.762 124.35L534.474 124.386C533.658 124.458 533.028 124.722 532.584 125.178C532.152 125.622 531.936 126.234 531.936 127.014V131.37C531.936 131.61 531.87 131.796 531.738 131.928C531.618 132.06 531.438 132.126 531.198 132.126ZM540.442 132.162C539.59 132.162 538.852 131.976 538.228 131.604C537.604 131.232 537.118 130.71 536.77 130.038C536.434 129.354 536.266 128.55 536.266 127.626C536.266 126.93 536.362 126.306 536.554 125.754C536.746 125.19 537.028 124.71 537.4 124.314C537.772 123.918 538.21 123.618 538.714 123.414C539.23 123.198 539.806 123.09 540.442 123.09C541.294 123.09 542.032 123.276 542.656 123.648C543.28 124.02 543.76 124.548 544.096 125.232C544.444 125.904 544.618 126.702 544.618 127.626C544.618 128.322 544.522 128.946 544.33 129.498C544.138 130.05 543.856 130.53 543.484 130.938C543.112 131.334 542.668 131.64 542.152 131.856C541.648 132.06 541.078 132.162 540.442 132.162ZM540.442 130.992C540.982 130.992 541.456 130.86 541.864 130.596C542.272 130.332 542.584 129.948 542.8 129.444C543.028 128.94 543.142 128.334 543.142 127.626C543.142 126.534 542.896 125.7 542.404 125.124C541.924 124.548 541.27 124.26 540.442 124.26C539.89 124.26 539.41 124.392 539.002 124.656C538.606 124.908 538.294 125.286 538.066 125.79C537.85 126.282 537.742 126.894 537.742 127.626C537.742 128.706 537.988 129.54 538.48 130.128C538.972 130.704 539.626 130.992 540.442 130.992ZM554.778 132.162C553.998 132.162 553.314 131.976 552.726 131.604C552.15 131.232 551.7 130.71 551.376 130.038C551.064 129.354 550.908 128.55 550.908 127.626C550.908 126.69 551.064 125.886 551.376 125.214C551.7 124.53 552.15 124.008 552.726 123.648C553.314 123.276 553.998 123.09 554.778 123.09C555.57 123.09 556.248 123.288 556.812 123.684C557.376 124.08 557.754 124.614 557.946 125.286H557.748V119.922C557.748 119.682 557.808 119.502 557.928 119.382C558.06 119.25 558.246 119.184 558.486 119.184C558.714 119.184 558.888 119.25 559.008 119.382C559.14 119.502 559.206 119.682 559.206 119.922V131.37C559.206 131.61 559.146 131.796 559.026 131.928C558.906 132.06 558.726 132.126 558.486 132.126C558.258 132.126 558.078 132.06 557.946 131.928C557.826 131.796 557.766 131.61 557.766 131.37V129.66L557.964 129.912C557.772 130.596 557.388 131.142 556.812 131.55C556.248 131.958 555.57 132.162 554.778 132.162ZM555.084 130.992C555.624 130.992 556.098 130.86 556.506 130.596C556.914 130.332 557.226 129.948 557.442 129.444C557.67 128.94 557.784 128.334 557.784 127.626C557.784 126.534 557.538 125.7 557.046 125.124C556.566 124.548 555.912 124.26 555.084 124.26C554.532 124.26 554.052 124.392 553.644 124.656C553.248 124.908 552.936 125.286 552.708 125.79C552.492 126.282 552.384 126.894 552.384 127.626C552.384 128.706 552.63 129.54 553.122 130.128C553.614 130.704 554.268 130.992 555.084 130.992ZM565.884 132.162C564.96 132.162 564.162 131.982 563.49 131.622C562.83 131.25 562.314 130.728 561.942 130.056C561.582 129.384 561.402 128.58 561.402 127.644C561.402 126.732 561.582 125.94 561.942 125.268C562.302 124.584 562.794 124.05 563.418 123.666C564.054 123.282 564.786 123.09 565.614 123.09C566.202 123.09 566.73 123.192 567.198 123.396C567.666 123.588 568.062 123.87 568.386 124.242C568.722 124.614 568.974 125.064 569.142 125.592C569.322 126.12 569.412 126.714 569.412 127.374C569.412 127.566 569.358 127.71 569.25 127.806C569.142 127.89 568.986 127.932 568.782 127.932H562.518V126.978H568.44L568.152 127.212C568.152 126.564 568.056 126.018 567.864 125.574C567.672 125.118 567.39 124.77 567.018 124.53C566.658 124.29 566.202 124.17 565.65 124.17C565.038 124.17 564.516 124.314 564.084 124.602C563.664 124.878 563.346 125.268 563.13 125.772C562.914 126.264 562.806 126.84 562.806 127.5V127.608C562.806 128.712 563.07 129.552 563.598 130.128C564.138 130.704 564.9 130.992 565.884 130.992C566.292 130.992 566.694 130.938 567.09 130.83C567.498 130.722 567.894 130.542 568.278 130.29C568.446 130.182 568.596 130.134 568.728 130.146C568.872 130.146 568.986 130.188 569.07 130.272C569.154 130.344 569.208 130.44 569.232 130.56C569.268 130.668 569.256 130.788 569.196 130.92C569.148 131.052 569.046 131.166 568.89 131.262C568.494 131.55 568.026 131.772 567.486 131.928C566.946 132.084 566.412 132.162 565.884 132.162ZM574.474 132.162C573.934 132.162 573.388 132.096 572.836 131.964C572.296 131.832 571.792 131.604 571.324 131.28C571.204 131.196 571.12 131.1 571.072 130.992C571.024 130.872 571.006 130.758 571.018 130.65C571.042 130.53 571.09 130.428 571.162 130.344C571.246 130.26 571.342 130.212 571.45 130.2C571.57 130.176 571.702 130.2 571.846 130.272C572.314 130.56 572.764 130.764 573.196 130.884C573.64 130.992 574.078 131.046 574.51 131.046C575.194 131.046 575.71 130.92 576.058 130.668C576.406 130.416 576.58 130.074 576.58 129.642C576.58 129.306 576.466 129.042 576.238 128.85C576.01 128.646 575.65 128.49 575.158 128.382L573.52 128.022C572.764 127.866 572.2 127.596 571.828 127.212C571.468 126.828 571.288 126.33 571.288 125.718C571.288 125.178 571.426 124.716 571.702 124.332C571.99 123.936 572.392 123.63 572.908 123.414C573.424 123.198 574.024 123.09 574.708 123.09C575.236 123.09 575.734 123.162 576.202 123.306C576.682 123.438 577.114 123.654 577.498 123.954C577.618 124.038 577.696 124.14 577.732 124.26C577.78 124.368 577.786 124.482 577.75 124.602C577.726 124.71 577.672 124.806 577.588 124.89C577.504 124.962 577.402 125.004 577.282 125.016C577.162 125.028 577.036 124.992 576.904 124.908C576.544 124.668 576.178 124.494 575.806 124.386C575.434 124.266 575.068 124.206 574.708 124.206C574.036 124.206 573.526 124.338 573.178 124.602C572.83 124.866 572.656 125.214 572.656 125.646C572.656 125.982 572.764 126.258 572.98 126.474C573.196 126.69 573.532 126.846 573.988 126.942L575.626 127.284C576.406 127.452 576.988 127.722 577.372 128.094C577.768 128.454 577.966 128.946 577.966 129.57C577.966 130.362 577.648 130.992 577.012 131.46C576.376 131.928 575.53 132.162 574.474 132.162ZM580.908 135.366C580.668 135.366 580.488 135.3 580.368 135.168C580.248 135.048 580.188 134.868 580.188 134.628V123.864C580.188 123.624 580.248 123.444 580.368 123.324C580.488 123.192 580.662 123.126 580.89 123.126C581.13 123.126 581.31 123.192 581.43 123.324C581.562 123.444 581.628 123.624 581.628 123.864V125.574L581.43 125.322C581.622 124.638 582 124.098 582.564 123.702C583.14 123.294 583.824 123.09 584.616 123.09C585.396 123.09 586.074 123.276 586.65 123.648C587.238 124.008 587.688 124.53 588 125.214C588.324 125.886 588.486 126.69 588.486 127.626C588.486 128.55 588.324 129.354 588 130.038C587.688 130.71 587.244 131.232 586.668 131.604C586.092 131.976 585.408 132.162 584.616 132.162C583.824 132.162 583.146 131.964 582.582 131.568C582.018 131.16 581.634 130.62 581.43 129.948H581.646V134.628C581.646 134.868 581.58 135.048 581.448 135.168C581.316 135.3 581.136 135.366 580.908 135.366ZM584.31 130.992C584.862 130.992 585.336 130.86 585.732 130.596C586.14 130.332 586.452 129.948 586.668 129.444C586.896 128.94 587.01 128.334 587.01 127.626C587.01 126.534 586.764 125.7 586.272 125.124C585.792 124.548 585.138 124.26 584.31 124.26C583.77 124.26 583.296 124.392 582.888 124.656C582.48 124.908 582.162 125.286 581.934 125.79C581.718 126.282 581.61 126.894 581.61 127.626C581.61 128.706 581.856 129.54 582.348 130.128C582.84 130.704 583.494 130.992 584.31 130.992ZM593.346 132.162C592.482 132.162 591.822 131.898 591.366 131.37C590.91 130.842 590.682 130.086 590.682 129.102V119.922C590.682 119.682 590.742 119.502 590.862 119.382C590.982 119.25 591.162 119.184 591.402 119.184C591.63 119.184 591.81 119.25 591.942 119.382C592.074 119.502 592.14 119.682 592.14 119.922V128.994C592.14 129.642 592.266 130.128 592.518 130.452C592.782 130.764 593.166 130.92 593.67 130.92C593.778 130.92 593.874 130.914 593.958 130.902C594.042 130.89 594.126 130.884 594.21 130.884C594.342 130.872 594.432 130.902 594.48 130.974C594.54 131.046 594.57 131.19 594.57 131.406C594.57 131.622 594.522 131.784 594.426 131.892C594.33 132 594.174 132.072 593.958 132.108C593.862 132.12 593.76 132.132 593.652 132.144C593.544 132.156 593.442 132.162 593.346 132.162ZM599.863 132.162C598.939 132.162 598.141 131.982 597.469 131.622C596.809 131.25 596.293 130.728 595.921 130.056C595.561 129.384 595.381 128.58 595.381 127.644C595.381 126.732 595.561 125.94 595.921 125.268C596.281 124.584 596.773 124.05 597.397 123.666C598.033 123.282 598.765 123.09 599.593 123.09C600.181 123.09 600.709 123.192 601.177 123.396C601.645 123.588 602.041 123.87 602.365 124.242C602.701 124.614 602.953 125.064 603.121 125.592C603.301 126.12 603.391 126.714 603.391 127.374C603.391 127.566 603.337 127.71 603.229 127.806C603.121 127.89 602.965 127.932 602.761 127.932H596.497V126.978H602.419L602.131 127.212C602.131 126.564 602.035 126.018 601.843 125.574C601.651 125.118 601.369 124.77 600.997 124.53C600.637 124.29 600.181 124.17 599.629 124.17C599.017 124.17 598.495 124.314 598.063 124.602C597.643 124.878 597.325 125.268 597.109 125.772C596.893 126.264 596.785 126.84 596.785 127.5V127.608C596.785 128.712 597.049 129.552 597.577 130.128C598.117 130.704 598.879 130.992 599.863 130.992C600.271 130.992 600.673 130.938 601.069 130.83C601.477 130.722 601.873 130.542 602.257 130.29C602.425 130.182 602.575 130.134 602.707 130.146C602.851 130.146 602.965 130.188 603.049 130.272C603.133 130.344 603.187 130.44 603.211 130.56C603.247 130.668 603.235 130.788 603.175 130.92C603.127 131.052 603.025 131.166 602.869 131.262C602.473 131.55 602.005 131.772 601.465 131.928C600.925 132.084 600.391 132.162 599.863 132.162ZM609.371 135.402C608.735 135.402 608.111 135.324 607.499 135.168C606.899 135.024 606.353 134.79 605.861 134.466C605.717 134.382 605.621 134.28 605.573 134.16C605.537 134.04 605.531 133.92 605.555 133.8C605.579 133.692 605.633 133.59 605.717 133.494C605.801 133.41 605.897 133.356 606.005 133.332C606.125 133.308 606.245 133.326 606.365 133.386C606.893 133.71 607.397 133.932 607.877 134.052C608.357 134.172 608.831 134.232 609.299 134.232C610.151 134.232 610.793 134.004 611.225 133.548C611.669 133.092 611.891 132.432 611.891 131.568V129.534H612.071C611.891 130.23 611.507 130.782 610.919 131.19C610.343 131.598 609.665 131.802 608.885 131.802C608.081 131.802 607.385 131.622 606.797 131.262C606.209 130.89 605.753 130.374 605.429 129.714C605.117 129.054 604.961 128.292 604.961 127.428C604.961 126.78 605.051 126.192 605.231 125.664C605.411 125.124 605.669 124.668 606.005 124.296C606.353 123.912 606.767 123.618 607.247 123.414C607.739 123.198 608.285 123.09 608.885 123.09C609.677 123.09 610.361 123.294 610.937 123.702C611.513 124.098 611.885 124.638 612.053 125.322L611.873 125.538V123.864C611.873 123.624 611.933 123.444 612.053 123.324C612.185 123.192 612.365 123.126 612.593 123.126C612.833 123.126 613.013 123.192 613.133 123.324C613.253 123.444 613.313 123.624 613.313 123.864V131.37C613.313 132.702 612.977 133.704 612.305 134.376C611.645 135.06 610.667 135.402 609.371 135.402ZM609.155 130.614C609.719 130.614 610.205 130.488 610.613 130.236C611.021 129.972 611.333 129.6 611.549 129.12C611.777 128.64 611.891 128.076 611.891 127.428C611.891 126.456 611.645 125.688 611.153 125.124C610.661 124.548 609.995 124.26 609.155 124.26C608.603 124.26 608.123 124.392 607.715 124.656C607.307 124.908 606.989 125.274 606.761 125.754C606.545 126.222 606.437 126.78 606.437 127.428C606.437 128.4 606.683 129.174 607.175 129.75C607.667 130.326 608.327 130.614 609.155 130.614ZM618.802 132.162C618.202 132.162 617.662 132.048 617.182 131.82C616.714 131.58 616.342 131.256 616.066 130.848C615.79 130.44 615.652 129.984 615.652 129.48C615.652 128.832 615.814 128.322 616.138 127.95C616.474 127.578 617.02 127.314 617.776 127.158C618.544 127.002 619.588 126.924 620.908 126.924H621.718V127.878H620.926C619.954 127.878 619.186 127.926 618.622 128.022C618.07 128.106 617.68 128.256 617.452 128.472C617.236 128.688 617.128 128.994 617.128 129.39C617.128 129.882 617.296 130.284 617.632 130.596C617.98 130.908 618.448 131.064 619.036 131.064C619.516 131.064 619.936 130.95 620.296 130.722C620.668 130.494 620.956 130.182 621.16 129.786C621.376 129.39 621.484 128.934 621.484 128.418V126.366C621.484 125.622 621.334 125.088 621.034 124.764C620.734 124.428 620.242 124.26 619.558 124.26C619.138 124.26 618.718 124.314 618.298 124.422C617.878 124.53 617.434 124.704 616.966 124.944C616.798 125.028 616.654 125.058 616.534 125.034C616.414 124.998 616.318 124.932 616.246 124.836C616.174 124.74 616.132 124.632 616.12 124.512C616.108 124.38 616.132 124.254 616.192 124.134C616.264 124.014 616.372 123.918 616.516 123.846C617.044 123.582 617.566 123.39 618.082 123.27C618.598 123.15 619.09 123.09 619.558 123.09C620.314 123.09 620.938 123.216 621.43 123.468C621.922 123.708 622.288 124.08 622.528 124.584C622.768 125.076 622.888 125.712 622.888 126.492V131.37C622.888 131.61 622.828 131.796 622.708 131.928C622.6 132.06 622.438 132.126 622.222 132.126C621.994 132.126 621.82 132.06 621.7 131.928C621.58 131.796 621.52 131.61 621.52 131.37V129.966H621.682C621.586 130.422 621.4 130.812 621.124 131.136C620.86 131.46 620.53 131.712 620.134 131.892C619.738 132.072 619.294 132.162 618.802 132.162ZM630.021 132.162C629.229 132.162 628.545 131.958 627.969 131.55C627.405 131.142 627.027 130.596 626.835 129.912L627.033 129.714V131.37C627.033 131.61 626.967 131.796 626.835 131.928C626.715 132.06 626.541 132.126 626.313 132.126C626.073 132.126 625.893 132.06 625.773 131.928C625.653 131.796 625.593 131.61 625.593 131.37V119.922C625.593 119.682 625.653 119.502 625.773 119.382C625.893 119.25 626.073 119.184 626.313 119.184C626.541 119.184 626.721 119.25 626.853 119.382C626.985 119.502 627.051 119.682 627.051 119.922V125.286H626.835C627.039 124.614 627.423 124.08 627.987 123.684C628.551 123.288 629.229 123.09 630.021 123.09C630.813 123.09 631.497 123.276 632.073 123.648C632.649 124.008 633.093 124.53 633.405 125.214C633.729 125.886 633.891 126.69 633.891 127.626C633.891 128.55 633.729 129.354 633.405 130.038C633.093 130.71 632.643 131.232 632.055 131.604C631.479 131.976 630.801 132.162 630.021 132.162ZM629.715 130.992C630.267 130.992 630.741 130.86 631.137 130.596C631.545 130.332 631.857 129.948 632.073 129.444C632.301 128.94 632.415 128.334 632.415 127.626C632.415 126.534 632.169 125.7 631.677 125.124C631.197 124.548 630.543 124.26 629.715 124.26C629.175 124.26 628.701 124.392 628.293 124.656C627.885 124.908 627.567 125.286 627.339 125.79C627.123 126.282 627.015 126.894 627.015 127.626C627.015 128.706 627.261 129.54 627.753 130.128C628.245 130.704 628.899 130.992 629.715 130.992ZM638.751 132.162C637.887 132.162 637.227 131.898 636.771 131.37C636.315 130.842 636.087 130.086 636.087 129.102V119.922C636.087 119.682 636.147 119.502 636.267 119.382C636.387 119.25 636.567 119.184 636.807 119.184C637.035 119.184 637.215 119.25 637.347 119.382C637.479 119.502 637.545 119.682 637.545 119.922V128.994C637.545 129.642 637.671 130.128 637.923 130.452C638.187 130.764 638.571 130.92 639.075 130.92C639.183 130.92 639.279 130.914 639.363 130.902C639.447 130.89 639.531 130.884 639.615 130.884C639.747 130.872 639.837 130.902 639.885 130.974C639.945 131.046 639.975 131.19 639.975 131.406C639.975 131.622 639.927 131.784 639.831 131.892C639.735 132 639.579 132.072 639.363 132.108C639.267 132.12 639.165 132.132 639.057 132.144C638.949 132.156 638.847 132.162 638.751 132.162ZM645.267 132.162C644.343 132.162 643.545 131.982 642.873 131.622C642.213 131.25 641.697 130.728 641.325 130.056C640.965 129.384 640.785 128.58 640.785 127.644C640.785 126.732 640.965 125.94 641.325 125.268C641.685 124.584 642.177 124.05 642.801 123.666C643.437 123.282 644.169 123.09 644.997 123.09C645.585 123.09 646.113 123.192 646.581 123.396C647.049 123.588 647.445 123.87 647.769 124.242C648.105 124.614 648.357 125.064 648.525 125.592C648.705 126.12 648.795 126.714 648.795 127.374C648.795 127.566 648.741 127.71 648.633 127.806C648.525 127.89 648.369 127.932 648.165 127.932H641.901V126.978H647.823L647.535 127.212C647.535 126.564 647.439 126.018 647.247 125.574C647.055 125.118 646.773 124.77 646.401 124.53C646.041 124.29 645.585 124.17 645.033 124.17C644.421 124.17 643.899 124.314 643.467 124.602C643.047 124.878 642.729 125.268 642.513 125.772C642.297 126.264 642.189 126.84 642.189 127.5V127.608C642.189 128.712 642.453 129.552 642.981 130.128C643.521 130.704 644.283 130.992 645.267 130.992C645.675 130.992 646.077 130.938 646.473 130.83C646.881 130.722 647.277 130.542 647.661 130.29C647.829 130.182 647.979 130.134 648.111 130.146C648.255 130.146 648.369 130.188 648.453 130.272C648.537 130.344 648.591 130.44 648.615 130.56C648.651 130.668 648.639 130.788 648.579 130.92C648.531 131.052 648.429 131.166 648.273 131.262C647.877 131.55 647.409 131.772 646.869 131.928C646.329 132.084 645.795 132.162 645.267 132.162Z" fill="#101E37"/>
<path d="M669.875 123L665.995 126.88L662.115 123C661.725 122.61 661.095 122.61 660.705 123C660.315 123.39 660.315 124.02 660.705 124.41L665.295 129C665.685 129.39 666.315 129.39 666.705 129L671.295 124.41C671.685 124.02 671.685 123.39 671.295 123C670.905 122.62 670.265 122.61 669.875 123Z" fill="#101E37"/>
<path d="M471 28L471 230" stroke="#FF9500" stroke-width="1.5" stroke-linecap="round" stroke-dasharray="6 6"/>
<rect x="478.644" y="26.2864" width="47.411" height="18.5616" rx="6.05479" fill="#FFF4E5"/>
<rect x="478.644" y="26.2864" width="47.411" height="18.5616" rx="6.05479" stroke="#FF9500" stroke-width="0.712329"/>
<path d="M485.954 39.0673L483.563 32.7662H483.524C483.537 32.8993 483.549 33.0616 483.558 33.2532C483.568 33.4447 483.576 33.6541 483.583 33.8813C483.589 34.1053 483.593 34.3342 483.593 34.5679V39.0673H482.823V31.9481H484.05L486.305 37.8694H486.339L488.628 31.9481H489.845V39.0673H489.027V34.5095C489.027 34.2985 489.03 34.0875 489.037 33.8764C489.043 33.6622 489.051 33.4609 489.061 33.2726C489.071 33.0811 489.08 32.9155 489.09 32.776H489.051L486.631 39.0673H485.954ZM496.258 39.0673L495.381 36.8078H492.528L491.656 39.0673H490.819L493.604 31.9189H494.349L497.115 39.0673H496.258ZM495.133 36.0726L494.3 33.8277C494.281 33.7693 494.249 33.6736 494.203 33.5405C494.161 33.4074 494.117 33.2694 494.072 33.1266C494.026 32.9837 493.989 32.8685 493.96 32.7808C493.927 32.9139 493.891 33.047 493.852 33.1801C493.817 33.31 493.781 33.4317 493.745 33.5453C493.71 33.6557 493.679 33.7498 493.653 33.8277L492.806 36.0726H495.133ZM495.372 29.64V29.7374C495.307 29.8316 495.218 29.9452 495.104 30.0783C494.994 30.2081 494.87 30.3461 494.734 30.4922C494.597 30.635 494.46 30.7714 494.32 30.9012C494.184 31.0311 494.057 31.1431 493.94 31.2372H493.4V31.1203C493.503 30.997 493.617 30.8493 493.74 30.6772C493.864 30.5019 493.984 30.3234 494.101 30.1416C494.218 29.9565 494.315 29.7894 494.393 29.64H495.372ZM502.856 39.0673H501.916L499.993 35.9313L498.04 39.0673H497.159L499.53 35.3568L497.324 31.9481H498.245L500.022 34.787L501.809 31.9481H502.686L500.485 35.3421L502.856 39.0673ZM503.869 39.0673V31.9481H504.697V39.0673H503.869ZM509.785 39.0673L507.394 32.7662H507.355C507.368 32.8993 507.38 33.0616 507.389 33.2532C507.399 33.4447 507.407 33.6541 507.414 33.8813C507.42 34.1053 507.424 34.3342 507.424 34.5679V39.0673H506.654V31.9481H507.881L510.136 37.8694H510.17L512.459 31.9481H513.676V39.0673H512.858V34.5095C512.858 34.2985 512.861 34.0875 512.868 33.8764C512.874 33.6622 512.882 33.4609 512.892 33.2726C512.902 33.0811 512.911 32.9155 512.921 32.776H512.882L510.462 39.0673H509.785ZM521.798 35.498C521.798 36.0466 521.728 36.5465 521.589 36.9978C521.449 37.4457 521.241 37.832 520.965 38.1567C520.693 38.4781 520.354 38.7264 519.948 38.9017C519.542 39.077 519.071 39.1646 518.536 39.1646C517.984 39.1646 517.502 39.077 517.089 38.9017C516.68 38.7264 516.34 38.4764 516.067 38.1518C515.797 37.8272 515.594 37.4392 515.458 36.988C515.325 36.5368 515.258 36.0368 515.258 35.4882C515.258 34.7611 515.379 34.1232 515.619 33.5745C515.859 33.0259 516.223 32.599 516.71 32.2939C517.2 31.9887 517.813 31.8362 518.55 31.8362C519.255 31.8362 519.847 31.9871 520.328 32.289C520.811 32.5909 521.176 33.0162 521.423 33.5648C521.673 34.1102 521.798 34.7546 521.798 35.498ZM516.13 35.498C516.13 36.1018 516.216 36.6244 516.388 37.0659C516.56 37.5074 516.823 37.8483 517.177 38.0885C517.534 38.3287 517.987 38.4488 518.536 38.4488C519.087 38.4488 519.539 38.3287 519.889 38.0885C520.243 37.8483 520.504 37.5074 520.673 37.0659C520.842 36.6244 520.927 36.1018 520.927 35.498C520.927 34.5793 520.733 33.8618 520.347 33.3457C519.964 32.8263 519.365 32.5666 518.55 32.5666C517.998 32.5666 517.544 32.6851 517.187 32.922C516.83 33.159 516.564 33.4966 516.388 33.9349C516.216 34.3699 516.13 34.8909 516.13 35.498Z" fill="#101E37"/>
</g>
<rect x="0.5" y="0.5" width="727" height="229" rx="7.5" stroke="#E6EBF0"/>
<defs>
<clipPath id="clip0_4999_5661">
<rect width="728" height="230" rx="8" fill="white"/>
</clipPath>
<clipPath id="clip1_4999_5661">
<rect x="78" y="-50.6328" width="1072" height="575" fill="white"/>
</clipPath>
</defs>
</svg>
