<svg width="728" height="264" viewBox="0 0 728 264" fill="none" xmlns="http://www.w3.org/2000/svg">
<rect x="1" y="1" width="726" height="262" rx="7" fill="#F3F6F9"/>
<rect x="1" y="1" width="726" height="262" rx="7" stroke="#E6EBF0" stroke-width="2"/>
<rect x="280.328" y="105.995" width="167.343" height="52.009" rx="8.66817" fill="white"/>
<path d="M295.905 137.998C295.619 137.998 295.398 137.926 295.242 137.783C295.099 137.627 295.027 137.406 295.027 137.12V125.126C295.027 124.839 295.099 124.625 295.242 124.482C295.398 124.326 295.619 124.248 295.905 124.248H299.669C301.893 124.248 303.609 124.833 304.818 126.003C306.027 127.173 306.632 128.877 306.632 131.113C306.632 132.231 306.476 133.219 306.164 134.078C305.865 134.923 305.416 135.638 304.818 136.223C304.22 136.808 303.492 137.25 302.634 137.549C301.776 137.848 300.787 137.998 299.669 137.998H295.905ZM296.627 136.633H299.552C300.462 136.633 301.249 136.515 301.912 136.281C302.588 136.047 303.147 135.703 303.589 135.248C304.045 134.793 304.383 134.221 304.604 133.531C304.825 132.829 304.935 132.023 304.935 131.113C304.935 129.28 304.487 127.908 303.589 126.998C302.692 126.075 301.347 125.613 299.552 125.613H296.627V136.633ZM313.559 138.173C312.558 138.173 311.694 137.978 310.965 137.588C310.25 137.185 309.691 136.62 309.288 135.891C308.898 135.163 308.703 134.292 308.703 133.278C308.703 132.29 308.898 131.432 309.288 130.703C309.678 129.962 310.211 129.384 310.887 128.968C311.577 128.552 312.37 128.344 313.267 128.344C313.904 128.344 314.476 128.454 314.983 128.675C315.49 128.883 315.919 129.189 316.27 129.592C316.634 129.995 316.907 130.482 317.089 131.055C317.285 131.627 317.382 132.27 317.382 132.985C317.382 133.193 317.324 133.349 317.206 133.453C317.089 133.544 316.92 133.59 316.699 133.59H309.912V132.556H316.329L316.017 132.81C316.017 132.108 315.913 131.516 315.705 131.035C315.497 130.541 315.191 130.164 314.788 129.904C314.398 129.644 313.904 129.514 313.306 129.514C312.643 129.514 312.077 129.67 311.609 129.982C311.154 130.281 310.809 130.703 310.575 131.25C310.341 131.783 310.224 132.407 310.224 133.122V133.239C310.224 134.435 310.51 135.345 311.082 135.969C311.668 136.593 312.493 136.906 313.559 136.906C314.001 136.906 314.437 136.847 314.866 136.73C315.308 136.613 315.737 136.418 316.153 136.145C316.335 136.028 316.498 135.976 316.641 135.989C316.797 135.989 316.92 136.034 317.011 136.125C317.102 136.203 317.161 136.307 317.187 136.437C317.226 136.554 317.213 136.685 317.148 136.828C317.096 136.971 316.985 137.094 316.816 137.198C316.387 137.51 315.88 137.751 315.295 137.92C314.71 138.089 314.131 138.173 313.559 138.173ZM322.867 138.173C322.282 138.173 321.69 138.102 321.092 137.959C320.507 137.816 319.961 137.569 319.454 137.218C319.324 137.127 319.233 137.023 319.181 136.906C319.129 136.776 319.109 136.652 319.122 136.535C319.148 136.405 319.2 136.294 319.278 136.203C319.369 136.112 319.473 136.06 319.59 136.047C319.72 136.021 319.863 136.047 320.019 136.125C320.526 136.437 321.014 136.659 321.482 136.789C321.963 136.906 322.438 136.964 322.906 136.964C323.647 136.964 324.206 136.828 324.583 136.554C324.96 136.281 325.149 135.911 325.149 135.443C325.149 135.079 325.025 134.793 324.778 134.585C324.531 134.364 324.141 134.195 323.608 134.078L321.833 133.687C321.014 133.518 320.403 133.226 320 132.81C319.61 132.394 319.415 131.854 319.415 131.191C319.415 130.606 319.564 130.105 319.863 129.689C320.175 129.26 320.611 128.929 321.17 128.695C321.729 128.461 322.379 128.344 323.12 128.344C323.693 128.344 324.232 128.422 324.739 128.578C325.259 128.721 325.727 128.955 326.143 129.28C326.273 129.371 326.358 129.481 326.397 129.611C326.449 129.728 326.456 129.852 326.417 129.982C326.39 130.099 326.332 130.203 326.241 130.294C326.15 130.372 326.039 130.417 325.909 130.43C325.779 130.443 325.643 130.404 325.5 130.313C325.11 130.053 324.713 129.865 324.31 129.748C323.907 129.618 323.51 129.553 323.12 129.553C322.392 129.553 321.84 129.696 321.463 129.982C321.086 130.268 320.897 130.645 320.897 131.113C320.897 131.477 321.014 131.776 321.248 132.01C321.482 132.244 321.846 132.413 322.34 132.517L324.115 132.888C324.96 133.07 325.591 133.362 326.007 133.766C326.436 134.156 326.651 134.689 326.651 135.365C326.651 136.223 326.306 136.906 325.617 137.413C324.928 137.92 324.011 138.173 322.867 138.173ZM329.838 141.645C329.578 141.645 329.383 141.573 329.253 141.43C329.123 141.3 329.058 141.105 329.058 140.845V129.182C329.058 128.922 329.123 128.727 329.253 128.597C329.383 128.454 329.572 128.383 329.819 128.383C330.079 128.383 330.274 128.454 330.404 128.597C330.547 128.727 330.618 128.922 330.618 129.182V131.035L330.404 130.762C330.612 130.021 331.021 129.436 331.633 129.007C332.257 128.565 332.998 128.344 333.856 128.344C334.701 128.344 335.436 128.545 336.06 128.948C336.697 129.338 337.185 129.904 337.523 130.645C337.874 131.373 338.049 132.244 338.049 133.258C338.049 134.26 337.874 135.131 337.523 135.872C337.185 136.6 336.703 137.166 336.079 137.569C335.455 137.972 334.714 138.173 333.856 138.173C332.998 138.173 332.263 137.959 331.652 137.53C331.041 137.088 330.625 136.502 330.404 135.774H330.638V140.845C330.638 141.105 330.566 141.3 330.423 141.43C330.28 141.573 330.085 141.645 329.838 141.645ZM333.524 136.906C334.123 136.906 334.636 136.763 335.065 136.476C335.507 136.19 335.845 135.774 336.079 135.228C336.326 134.682 336.45 134.026 336.45 133.258C336.45 132.075 336.183 131.172 335.65 130.547C335.13 129.923 334.422 129.611 333.524 129.611C332.939 129.611 332.426 129.754 331.984 130.04C331.542 130.313 331.197 130.723 330.95 131.269C330.716 131.802 330.599 132.465 330.599 133.258C330.599 134.429 330.865 135.332 331.399 135.969C331.932 136.593 332.64 136.906 333.524 136.906ZM343.315 138.173C342.379 138.173 341.664 137.887 341.17 137.315C340.676 136.743 340.429 135.924 340.429 134.858V124.911C340.429 124.651 340.494 124.456 340.624 124.326C340.754 124.183 340.949 124.111 341.209 124.111C341.456 124.111 341.651 124.183 341.794 124.326C341.937 124.456 342.009 124.651 342.009 124.911V134.741C342.009 135.443 342.145 135.969 342.418 136.32C342.704 136.659 343.12 136.828 343.666 136.828C343.783 136.828 343.887 136.821 343.978 136.808C344.069 136.795 344.16 136.789 344.251 136.789C344.394 136.776 344.492 136.808 344.544 136.886C344.609 136.964 344.641 137.12 344.641 137.354C344.641 137.588 344.589 137.764 344.485 137.881C344.381 137.998 344.212 138.076 343.978 138.115C343.874 138.128 343.764 138.141 343.647 138.154C343.53 138.167 343.419 138.173 343.315 138.173ZM350.376 138.173C349.375 138.173 348.51 137.978 347.782 137.588C347.067 137.185 346.508 136.62 346.105 135.891C345.714 135.163 345.519 134.292 345.519 133.278C345.519 132.29 345.714 131.432 346.105 130.703C346.495 129.962 347.028 129.384 347.704 128.968C348.393 128.552 349.186 128.344 350.083 128.344C350.72 128.344 351.292 128.454 351.8 128.675C352.307 128.883 352.736 129.189 353.087 129.592C353.451 129.995 353.724 130.482 353.906 131.055C354.101 131.627 354.198 132.27 354.198 132.985C354.198 133.193 354.14 133.349 354.023 133.453C353.906 133.544 353.737 133.59 353.516 133.59H346.729V132.556H353.145L352.833 132.81C352.833 132.108 352.729 131.516 352.521 131.035C352.313 130.541 352.008 130.164 351.605 129.904C351.214 129.644 350.72 129.514 350.122 129.514C349.459 129.514 348.894 129.67 348.425 129.982C347.97 130.281 347.626 130.703 347.392 131.25C347.158 131.783 347.041 132.407 347.041 133.122V133.239C347.041 134.435 347.327 135.345 347.899 135.969C348.484 136.593 349.31 136.906 350.376 136.906C350.818 136.906 351.253 136.847 351.683 136.73C352.125 136.613 352.554 136.418 352.97 136.145C353.152 136.028 353.314 135.976 353.457 135.989C353.613 135.989 353.737 136.034 353.828 136.125C353.919 136.203 353.977 136.307 354.003 136.437C354.042 136.554 354.029 136.685 353.964 136.828C353.912 136.971 353.802 137.094 353.633 137.198C353.204 137.51 352.697 137.751 352.112 137.92C351.527 138.089 350.948 138.173 350.376 138.173ZM360.678 141.684C359.989 141.684 359.313 141.599 358.65 141.43C358 141.274 357.408 141.021 356.875 140.67C356.719 140.579 356.615 140.468 356.563 140.338C356.524 140.208 356.517 140.078 356.543 139.948C356.569 139.831 356.628 139.721 356.719 139.617C356.81 139.526 356.914 139.467 357.031 139.441C357.161 139.415 357.291 139.434 357.421 139.5C357.993 139.851 358.539 140.091 359.059 140.221C359.579 140.351 360.093 140.416 360.6 140.416C361.523 140.416 362.219 140.169 362.687 139.675C363.168 139.181 363.408 138.466 363.408 137.53V135.326H363.604C363.408 136.08 362.992 136.678 362.355 137.12C361.731 137.562 360.997 137.783 360.151 137.783C359.28 137.783 358.526 137.588 357.889 137.198C357.252 136.795 356.758 136.236 356.407 135.521C356.069 134.806 355.9 133.98 355.9 133.044C355.9 132.342 355.997 131.705 356.192 131.133C356.387 130.547 356.667 130.053 357.031 129.65C357.408 129.234 357.857 128.916 358.377 128.695C358.91 128.461 359.501 128.344 360.151 128.344C361.01 128.344 361.751 128.565 362.375 129.007C362.999 129.436 363.402 130.021 363.584 130.762L363.389 130.996V129.182C363.389 128.922 363.454 128.727 363.584 128.597C363.727 128.454 363.922 128.383 364.169 128.383C364.429 128.383 364.624 128.454 364.754 128.597C364.884 128.727 364.949 128.922 364.949 129.182V137.315C364.949 138.758 364.585 139.844 363.857 140.572C363.142 141.313 362.082 141.684 360.678 141.684ZM360.444 136.496C361.055 136.496 361.582 136.359 362.024 136.086C362.466 135.8 362.804 135.397 363.038 134.877C363.285 134.357 363.408 133.746 363.408 133.044C363.408 131.991 363.142 131.159 362.609 130.547C362.076 129.923 361.354 129.611 360.444 129.611C359.846 129.611 359.326 129.754 358.884 130.04C358.442 130.313 358.097 130.71 357.85 131.23C357.616 131.737 357.499 132.342 357.499 133.044C357.499 134.097 357.766 134.936 358.299 135.56C358.832 136.184 359.547 136.496 360.444 136.496ZM370.897 138.173C370.246 138.173 369.661 138.05 369.141 137.803C368.634 137.543 368.231 137.192 367.932 136.75C367.633 136.307 367.483 135.813 367.483 135.267C367.483 134.565 367.659 134.013 368.01 133.609C368.374 133.206 368.966 132.92 369.785 132.751C370.617 132.582 371.748 132.498 373.178 132.498H374.056V133.531H373.198C372.145 133.531 371.313 133.583 370.702 133.687C370.103 133.779 369.681 133.941 369.434 134.175C369.2 134.409 369.083 134.741 369.083 135.17C369.083 135.703 369.265 136.138 369.629 136.476C370.006 136.815 370.513 136.984 371.15 136.984C371.67 136.984 372.125 136.86 372.515 136.613C372.918 136.366 373.23 136.028 373.452 135.599C373.686 135.17 373.803 134.676 373.803 134.117V131.893C373.803 131.087 373.64 130.508 373.315 130.157C372.99 129.793 372.457 129.611 371.716 129.611C371.261 129.611 370.806 129.67 370.35 129.787C369.895 129.904 369.414 130.092 368.907 130.352C368.725 130.443 368.569 130.476 368.439 130.45C368.309 130.411 368.205 130.339 368.127 130.235C368.049 130.131 368.004 130.014 367.991 129.884C367.978 129.741 368.004 129.605 368.069 129.475C368.147 129.345 368.264 129.241 368.42 129.163C368.992 128.877 369.557 128.669 370.116 128.539C370.676 128.409 371.209 128.344 371.716 128.344C372.535 128.344 373.211 128.48 373.744 128.753C374.277 129.013 374.674 129.416 374.934 129.962C375.194 130.495 375.324 131.185 375.324 132.03V137.315C375.324 137.575 375.259 137.777 375.129 137.92C375.012 138.063 374.836 138.134 374.602 138.134C374.355 138.134 374.167 138.063 374.037 137.92C373.907 137.777 373.842 137.575 373.842 137.315V135.794H374.017C373.913 136.288 373.712 136.711 373.412 137.062C373.126 137.413 372.769 137.686 372.34 137.881C371.911 138.076 371.43 138.173 370.897 138.173ZM383.052 138.173C382.194 138.173 381.453 137.952 380.829 137.51C380.218 137.068 379.808 136.476 379.6 135.735L379.815 135.521V137.315C379.815 137.575 379.743 137.777 379.6 137.92C379.47 138.063 379.282 138.134 379.035 138.134C378.775 138.134 378.58 138.063 378.45 137.92C378.32 137.777 378.255 137.575 378.255 137.315V124.911C378.255 124.651 378.32 124.456 378.45 124.326C378.58 124.183 378.775 124.111 379.035 124.111C379.282 124.111 379.477 124.183 379.62 124.326C379.763 124.456 379.834 124.651 379.834 124.911V130.723H379.6C379.821 129.995 380.238 129.416 380.849 128.987C381.46 128.558 382.194 128.344 383.052 128.344C383.911 128.344 384.652 128.545 385.276 128.948C385.9 129.338 386.381 129.904 386.719 130.645C387.07 131.373 387.246 132.244 387.246 133.258C387.246 134.26 387.07 135.131 386.719 135.872C386.381 136.6 385.893 137.166 385.256 137.569C384.632 137.972 383.898 138.173 383.052 138.173ZM382.721 136.906C383.319 136.906 383.833 136.763 384.262 136.476C384.704 136.19 385.042 135.774 385.276 135.228C385.523 134.682 385.646 134.026 385.646 133.258C385.646 132.075 385.38 131.172 384.847 130.547C384.327 129.923 383.618 129.611 382.721 129.611C382.136 129.611 381.622 129.754 381.18 130.04C380.738 130.313 380.394 130.723 380.146 131.269C379.912 131.802 379.795 132.465 379.795 133.258C379.795 134.429 380.062 135.332 380.595 135.969C381.128 136.593 381.837 136.906 382.721 136.906ZM392.512 138.173C391.576 138.173 390.861 137.887 390.366 137.315C389.872 136.743 389.625 135.924 389.625 134.858V124.911C389.625 124.651 389.69 124.456 389.82 124.326C389.95 124.183 390.145 124.111 390.405 124.111C390.652 124.111 390.848 124.183 390.991 124.326C391.134 124.456 391.205 124.651 391.205 124.911V134.741C391.205 135.443 391.342 135.969 391.615 136.32C391.901 136.659 392.317 136.828 392.863 136.828C392.98 136.828 393.084 136.821 393.175 136.808C393.266 136.795 393.357 136.789 393.448 136.789C393.591 136.776 393.688 136.808 393.741 136.886C393.806 136.964 393.838 137.12 393.838 137.354C393.838 137.588 393.786 137.764 393.682 137.881C393.578 137.998 393.409 138.076 393.175 138.115C393.071 138.128 392.96 138.141 392.843 138.154C392.726 138.167 392.616 138.173 392.512 138.173ZM399.572 138.173C398.571 138.173 397.706 137.978 396.978 137.588C396.263 137.185 395.704 136.62 395.301 135.891C394.911 135.163 394.716 134.292 394.716 133.278C394.716 132.29 394.911 131.432 395.301 130.703C395.691 129.962 396.224 129.384 396.9 128.968C397.589 128.552 398.383 128.344 399.28 128.344C399.917 128.344 400.489 128.454 400.996 128.675C401.503 128.883 401.932 129.189 402.283 129.592C402.647 129.995 402.92 130.482 403.102 131.055C403.297 131.627 403.395 132.27 403.395 132.985C403.395 133.193 403.336 133.349 403.219 133.453C403.102 133.544 402.933 133.59 402.712 133.59H395.925V132.556H402.342L402.03 132.81C402.03 132.108 401.926 131.516 401.718 131.035C401.51 130.541 401.204 130.164 400.801 129.904C400.411 129.644 399.917 129.514 399.319 129.514C398.656 129.514 398.09 129.67 397.622 129.982C397.167 130.281 396.822 130.703 396.588 131.25C396.354 131.783 396.237 132.407 396.237 133.122V133.239C396.237 134.435 396.523 135.345 397.095 135.969C397.68 136.593 398.506 136.906 399.572 136.906C400.014 136.906 400.45 136.847 400.879 136.73C401.321 136.613 401.75 136.418 402.166 136.145C402.348 136.028 402.511 135.976 402.654 135.989C402.81 135.989 402.933 136.034 403.024 136.125C403.115 136.203 403.174 136.307 403.2 136.437C403.239 136.554 403.226 136.685 403.161 136.828C403.109 136.971 402.998 137.094 402.829 137.198C402.4 137.51 401.893 137.751 401.308 137.92C400.723 138.089 400.144 138.173 399.572 138.173Z" fill="#101E37"/>
<path d="M425.866 128.749L421.662 132.953L417.458 128.749C417.035 128.327 416.352 128.327 415.93 128.749C415.507 129.172 415.507 129.855 415.93 130.277L420.903 135.251C421.326 135.673 422.008 135.673 422.431 135.251L427.404 130.277C427.827 129.855 427.827 129.172 427.404 128.749C426.982 128.338 426.288 128.327 425.866 128.749Z" fill="#101E37"/>
</svg>
