<svg width="728" height="144" viewBox="0 0 728 144" fill="none" xmlns="http://www.w3.org/2000/svg">
<rect x="1" y="1" width="726" height="142" rx="7" fill="#F3F6F9"/>
<rect x="1" y="1" width="726" height="142" rx="7" stroke="#E6EBF0" stroke-width="2"/>
<rect x="243" y="47" width="242" height="50" rx="9" fill="white"/>
<rect x="243" y="47" width="242" height="50" rx="9" stroke="#E6EBF0" stroke-width="2"/>
<path d="M268 62.1613C263.8 62.1613 260 65.3813 260 70.3613C260 73.5413 262.45 77.2813 267.34 81.5913C267.72 81.9213 268.29 81.9213 268.67 81.5913C273.55 77.2813 276 73.5413 276 70.3613C276 65.3813 272.2 62.1613 268 62.1613ZM268 72.1613C266.9 72.1613 266 71.2613 266 70.1613C266 69.0613 266.9 68.1613 268 68.1613C269.1 68.1613 270 69.0613 270 70.1613C270 71.2613 269.1 72.1613 268 72.1613Z" fill="#101E37"/>
<path d="M286.358 78.126C286.106 78.126 285.908 78.06 285.764 77.928C285.632 77.784 285.566 77.58 285.566 77.316V66.12C285.566 65.856 285.632 65.658 285.764 65.526C285.908 65.382 286.112 65.31 286.376 65.31H292.91C293.114 65.31 293.27 65.364 293.378 65.472C293.486 65.58 293.54 65.73 293.54 65.922C293.54 66.126 293.486 66.282 293.378 66.39C293.27 66.498 293.114 66.552 292.91 66.552H287.042V70.98H292.532C292.736 70.98 292.892 71.034 293 71.142C293.12 71.25 293.18 71.4 293.18 71.592C293.18 71.796 293.12 71.952 293 72.06C292.892 72.168 292.736 72.222 292.532 72.222H287.042V77.316C287.042 77.856 286.814 78.126 286.358 78.126ZM296.283 78.09C296.043 78.09 295.863 78.024 295.743 77.892C295.623 77.748 295.563 77.55 295.563 77.298V69.936C295.563 69.684 295.623 69.492 295.743 69.36C295.863 69.228 296.043 69.162 296.283 69.162C296.511 69.162 296.691 69.228 296.823 69.36C296.955 69.492 297.021 69.684 297.021 69.936V77.298C297.021 77.55 296.955 77.748 296.823 77.892C296.703 78.024 296.523 78.09 296.283 78.09ZM296.283 67.146C295.983 67.146 295.749 67.068 295.581 66.912C295.413 66.744 295.329 66.522 295.329 66.246C295.329 65.958 295.413 65.742 295.581 65.598C295.749 65.442 295.983 65.364 296.283 65.364C296.595 65.364 296.829 65.442 296.985 65.598C297.153 65.742 297.237 65.958 297.237 66.246C297.237 66.522 297.153 66.744 296.985 66.912C296.829 67.068 296.595 67.146 296.283 67.146ZM302.411 78.162C301.547 78.162 300.887 77.898 300.431 77.37C299.975 76.842 299.747 76.086 299.747 75.102V65.922C299.747 65.682 299.807 65.502 299.927 65.382C300.047 65.25 300.227 65.184 300.467 65.184C300.695 65.184 300.875 65.25 301.007 65.382C301.139 65.502 301.205 65.682 301.205 65.922V74.994C301.205 75.642 301.331 76.128 301.583 76.452C301.847 76.764 302.231 76.92 302.735 76.92C302.843 76.92 302.939 76.914 303.023 76.902C303.107 76.89 303.191 76.884 303.275 76.884C303.407 76.872 303.497 76.902 303.545 76.974C303.605 77.046 303.635 77.19 303.635 77.406C303.635 77.622 303.587 77.784 303.491 77.892C303.395 78 303.239 78.072 303.023 78.108C302.927 78.12 302.825 78.132 302.717 78.144C302.609 78.156 302.507 78.162 302.411 78.162ZM308.425 78.162C307.741 78.162 307.165 78.042 306.697 77.802C306.241 77.55 305.899 77.19 305.671 76.722C305.443 76.242 305.329 75.66 305.329 74.976V70.386H304.123C303.919 70.386 303.763 70.338 303.655 70.242C303.547 70.134 303.493 69.99 303.493 69.81C303.493 69.63 303.547 69.492 303.655 69.396C303.763 69.3 303.919 69.252 304.123 69.252H305.329V67.182C305.329 66.942 305.395 66.762 305.527 66.642C305.659 66.51 305.839 66.444 306.067 66.444C306.295 66.444 306.469 66.51 306.589 66.642C306.721 66.762 306.787 66.942 306.787 67.182V69.252H309.055C309.259 69.252 309.415 69.3 309.523 69.396C309.631 69.492 309.685 69.63 309.685 69.81C309.685 69.99 309.631 70.134 309.523 70.242C309.415 70.338 309.259 70.386 309.055 70.386H306.787V74.832C306.787 75.516 306.931 76.038 307.219 76.398C307.507 76.746 307.975 76.92 308.623 76.92C308.851 76.92 309.043 76.896 309.199 76.848C309.367 76.8 309.505 76.776 309.613 76.776C309.721 76.764 309.811 76.8 309.883 76.884C309.955 76.968 309.991 77.112 309.991 77.316C309.991 77.46 309.961 77.592 309.901 77.712C309.853 77.832 309.763 77.916 309.631 77.964C309.487 78.012 309.295 78.054 309.055 78.09C308.827 78.138 308.617 78.162 308.425 78.162ZM311.946 78.126C311.706 78.126 311.52 78.06 311.388 77.928C311.268 77.796 311.208 77.61 311.208 77.37V69.864C311.208 69.624 311.268 69.444 311.388 69.324C311.508 69.192 311.682 69.126 311.91 69.126C312.138 69.126 312.312 69.192 312.432 69.324C312.564 69.444 312.63 69.624 312.63 69.864V71.322H312.45C312.642 70.614 313.008 70.068 313.548 69.684C314.088 69.3 314.754 69.096 315.546 69.072C315.726 69.06 315.87 69.102 315.978 69.198C316.086 69.282 316.146 69.432 316.158 69.648C316.17 69.852 316.122 70.014 316.014 70.134C315.906 70.254 315.738 70.326 315.51 70.35L315.222 70.386C314.406 70.458 313.776 70.722 313.332 71.178C312.9 71.622 312.684 72.234 312.684 73.014V77.37C312.684 77.61 312.618 77.796 312.486 77.928C312.366 78.06 312.186 78.126 311.946 78.126ZM320.325 78.162C319.725 78.162 319.185 78.048 318.705 77.82C318.237 77.58 317.865 77.256 317.589 76.848C317.313 76.44 317.175 75.984 317.175 75.48C317.175 74.832 317.337 74.322 317.661 73.95C317.997 73.578 318.543 73.314 319.299 73.158C320.067 73.002 321.111 72.924 322.431 72.924H323.241V73.878H322.449C321.477 73.878 320.709 73.926 320.145 74.022C319.593 74.106 319.203 74.256 318.975 74.472C318.759 74.688 318.651 74.994 318.651 75.39C318.651 75.882 318.819 76.284 319.155 76.596C319.503 76.908 319.971 77.064 320.559 77.064C321.039 77.064 321.459 76.95 321.819 76.722C322.191 76.494 322.479 76.182 322.683 75.786C322.899 75.39 323.007 74.934 323.007 74.418V72.366C323.007 71.622 322.857 71.088 322.557 70.764C322.257 70.428 321.765 70.26 321.081 70.26C320.661 70.26 320.241 70.314 319.821 70.422C319.401 70.53 318.957 70.704 318.489 70.944C318.321 71.028 318.177 71.058 318.057 71.034C317.937 70.998 317.841 70.932 317.769 70.836C317.697 70.74 317.655 70.632 317.643 70.512C317.631 70.38 317.655 70.254 317.715 70.134C317.787 70.014 317.895 69.918 318.039 69.846C318.567 69.582 319.089 69.39 319.605 69.27C320.121 69.15 320.613 69.09 321.081 69.09C321.837 69.09 322.461 69.216 322.953 69.468C323.445 69.708 323.811 70.08 324.051 70.584C324.291 71.076 324.411 71.712 324.411 72.492V77.37C324.411 77.61 324.351 77.796 324.231 77.928C324.123 78.06 323.961 78.126 323.745 78.126C323.517 78.126 323.343 78.06 323.223 77.928C323.103 77.796 323.043 77.61 323.043 77.37V75.966H323.205C323.109 76.422 322.923 76.812 322.647 77.136C322.383 77.46 322.053 77.712 321.657 77.892C321.261 78.072 320.817 78.162 320.325 78.162ZM327.854 78.126C327.614 78.126 327.428 78.06 327.296 77.928C327.176 77.796 327.116 77.61 327.116 77.37V69.864C327.116 69.624 327.176 69.444 327.296 69.324C327.416 69.192 327.59 69.126 327.818 69.126C328.046 69.126 328.22 69.192 328.34 69.324C328.472 69.444 328.538 69.624 328.538 69.864V71.322H328.358C328.55 70.614 328.916 70.068 329.456 69.684C329.996 69.3 330.662 69.096 331.454 69.072C331.634 69.06 331.778 69.102 331.886 69.198C331.994 69.282 332.054 69.432 332.066 69.648C332.078 69.852 332.03 70.014 331.922 70.134C331.814 70.254 331.646 70.326 331.418 70.35L331.13 70.386C330.314 70.458 329.684 70.722 329.24 71.178C328.808 71.622 328.592 72.234 328.592 73.014V77.37C328.592 77.61 328.526 77.796 328.394 77.928C328.274 78.06 328.094 78.126 327.854 78.126ZM338.928 81.366C338.688 81.366 338.508 81.3 338.388 81.168C338.268 81.048 338.208 80.868 338.208 80.628V69.864C338.208 69.624 338.268 69.444 338.388 69.324C338.508 69.192 338.682 69.126 338.91 69.126C339.15 69.126 339.33 69.192 339.45 69.324C339.582 69.444 339.648 69.624 339.648 69.864V71.574L339.45 71.322C339.642 70.638 340.02 70.098 340.584 69.702C341.16 69.294 341.844 69.09 342.636 69.09C343.416 69.09 344.094 69.276 344.67 69.648C345.258 70.008 345.708 70.53 346.02 71.214C346.344 71.886 346.506 72.69 346.506 73.626C346.506 74.55 346.344 75.354 346.02 76.038C345.708 76.71 345.264 77.232 344.688 77.604C344.112 77.976 343.428 78.162 342.636 78.162C341.844 78.162 341.166 77.964 340.602 77.568C340.038 77.16 339.654 76.62 339.45 75.948H339.666V80.628C339.666 80.868 339.6 81.048 339.468 81.168C339.336 81.3 339.156 81.366 338.928 81.366ZM342.33 76.992C342.882 76.992 343.356 76.86 343.752 76.596C344.16 76.332 344.472 75.948 344.688 75.444C344.916 74.94 345.03 74.334 345.03 73.626C345.03 72.534 344.784 71.7 344.292 71.124C343.812 70.548 343.158 70.26 342.33 70.26C341.79 70.26 341.316 70.392 340.908 70.656C340.5 70.908 340.182 71.286 339.954 71.79C339.738 72.282 339.63 72.894 339.63 73.626C339.63 74.706 339.876 75.54 340.368 76.128C340.86 76.704 341.514 76.992 342.33 76.992ZM352.338 78.162C351.486 78.162 350.748 77.976 350.124 77.604C349.5 77.232 349.014 76.71 348.666 76.038C348.33 75.354 348.162 74.55 348.162 73.626C348.162 72.93 348.258 72.306 348.45 71.754C348.642 71.19 348.924 70.71 349.296 70.314C349.668 69.918 350.106 69.618 350.61 69.414C351.126 69.198 351.702 69.09 352.338 69.09C353.19 69.09 353.928 69.276 354.552 69.648C355.176 70.02 355.656 70.548 355.992 71.232C356.34 71.904 356.514 72.702 356.514 73.626C356.514 74.322 356.418 74.946 356.226 75.498C356.034 76.05 355.752 76.53 355.38 76.938C355.008 77.334 354.564 77.64 354.048 77.856C353.544 78.06 352.974 78.162 352.338 78.162ZM352.338 76.992C352.878 76.992 353.352 76.86 353.76 76.596C354.168 76.332 354.48 75.948 354.696 75.444C354.924 74.94 355.038 74.334 355.038 73.626C355.038 72.534 354.792 71.7 354.3 71.124C353.82 70.548 353.166 70.26 352.338 70.26C351.786 70.26 351.306 70.392 350.898 70.656C350.502 70.908 350.19 71.286 349.962 71.79C349.746 72.282 349.638 72.894 349.638 73.626C349.638 74.706 349.884 75.54 350.376 76.128C350.868 76.704 351.522 76.992 352.338 76.992ZM359.442 78.126C359.202 78.126 359.016 78.06 358.884 77.928C358.764 77.796 358.704 77.61 358.704 77.37V69.864C358.704 69.624 358.764 69.444 358.884 69.324C359.004 69.192 359.178 69.126 359.406 69.126C359.634 69.126 359.808 69.192 359.928 69.324C360.06 69.444 360.126 69.624 360.126 69.864V71.322H359.946C360.138 70.614 360.504 70.068 361.044 69.684C361.584 69.3 362.25 69.096 363.042 69.072C363.222 69.06 363.366 69.102 363.474 69.198C363.582 69.282 363.642 69.432 363.654 69.648C363.666 69.852 363.618 70.014 363.51 70.134C363.402 70.254 363.234 70.326 363.006 70.35L362.718 70.386C361.902 70.458 361.272 70.722 360.828 71.178C360.396 71.622 360.18 72.234 360.18 73.014V77.37C360.18 77.61 360.114 77.796 359.982 77.928C359.862 78.06 359.682 78.126 359.442 78.126ZM372.892 78.162C372.184 78.162 371.596 78.036 371.128 77.784C370.672 77.52 370.324 77.13 370.084 76.614C369.856 76.098 369.742 75.456 369.742 74.688V69.864C369.742 69.612 369.802 69.426 369.922 69.306C370.054 69.186 370.234 69.126 370.462 69.126C370.702 69.126 370.882 69.186 371.002 69.306C371.134 69.426 371.2 69.612 371.2 69.864V74.67C371.2 75.438 371.356 76.014 371.668 76.398C371.992 76.77 372.496 76.956 373.18 76.956C373.924 76.956 374.53 76.704 374.998 76.2C375.466 75.696 375.7 75.036 375.7 74.22V69.864C375.7 69.612 375.76 69.426 375.88 69.306C376.012 69.186 376.198 69.126 376.438 69.126C376.666 69.126 376.84 69.186 376.96 69.306C377.092 69.426 377.158 69.612 377.158 69.864V77.37C377.158 77.874 376.924 78.126 376.456 78.126C376.228 78.126 376.048 78.06 375.916 77.928C375.796 77.796 375.736 77.61 375.736 77.37V75.732L375.97 75.984C375.73 76.692 375.334 77.232 374.782 77.604C374.242 77.976 373.612 78.162 372.892 78.162ZM384.314 78.162C383.522 78.162 382.838 77.958 382.262 77.55C381.698 77.142 381.32 76.596 381.128 75.912L381.326 75.714V77.37C381.326 77.61 381.26 77.796 381.128 77.928C381.008 78.06 380.834 78.126 380.606 78.126C380.366 78.126 380.186 78.06 380.066 77.928C379.946 77.796 379.886 77.61 379.886 77.37V65.922C379.886 65.682 379.946 65.502 380.066 65.382C380.186 65.25 380.366 65.184 380.606 65.184C380.834 65.184 381.014 65.25 381.146 65.382C381.278 65.502 381.344 65.682 381.344 65.922V71.286H381.128C381.332 70.614 381.716 70.08 382.28 69.684C382.844 69.288 383.522 69.09 384.314 69.09C385.106 69.09 385.79 69.276 386.366 69.648C386.942 70.008 387.386 70.53 387.698 71.214C388.022 71.886 388.184 72.69 388.184 73.626C388.184 74.55 388.022 75.354 387.698 76.038C387.386 76.71 386.936 77.232 386.348 77.604C385.772 77.976 385.094 78.162 384.314 78.162ZM384.008 76.992C384.56 76.992 385.034 76.86 385.43 76.596C385.838 76.332 386.15 75.948 386.366 75.444C386.594 74.94 386.708 74.334 386.708 73.626C386.708 72.534 386.462 71.7 385.97 71.124C385.49 70.548 384.836 70.26 384.008 70.26C383.468 70.26 382.994 70.392 382.586 70.656C382.178 70.908 381.86 71.286 381.632 71.79C381.416 72.282 381.308 72.894 381.308 73.626C381.308 74.706 381.554 75.54 382.046 76.128C382.538 76.704 383.192 76.992 384.008 76.992ZM391.1 78.09C390.86 78.09 390.68 78.024 390.56 77.892C390.44 77.748 390.38 77.55 390.38 77.298V69.936C390.38 69.684 390.44 69.492 390.56 69.36C390.68 69.228 390.86 69.162 391.1 69.162C391.328 69.162 391.508 69.228 391.64 69.36C391.772 69.492 391.838 69.684 391.838 69.936V77.298C391.838 77.55 391.772 77.748 391.64 77.892C391.52 78.024 391.34 78.09 391.1 78.09ZM391.1 67.146C390.8 67.146 390.566 67.068 390.398 66.912C390.23 66.744 390.146 66.522 390.146 66.246C390.146 65.958 390.23 65.742 390.398 65.598C390.566 65.442 390.8 65.364 391.1 65.364C391.412 65.364 391.646 65.442 391.802 65.598C391.97 65.742 392.054 65.958 392.054 66.246C392.054 66.522 391.97 66.744 391.802 66.912C391.646 67.068 391.412 67.146 391.1 67.146ZM398.271 78.162C397.395 78.162 396.639 77.97 396.003 77.586C395.367 77.202 394.875 76.668 394.527 75.984C394.191 75.288 394.023 74.484 394.023 73.572C394.023 72.876 394.119 72.252 394.311 71.7C394.503 71.148 394.785 70.68 395.157 70.296C395.529 69.9 395.973 69.6 396.489 69.396C397.017 69.192 397.611 69.09 398.271 69.09C398.703 69.09 399.153 69.156 399.621 69.288C400.089 69.42 400.515 69.648 400.899 69.972C401.019 70.056 401.097 70.158 401.133 70.278C401.169 70.398 401.169 70.518 401.133 70.638C401.097 70.746 401.037 70.842 400.953 70.926C400.869 70.998 400.761 71.04 400.629 71.052C400.509 71.064 400.383 71.022 400.251 70.926C399.939 70.686 399.621 70.518 399.297 70.422C398.973 70.326 398.661 70.278 398.361 70.278C397.893 70.278 397.485 70.356 397.137 70.512C396.789 70.656 396.495 70.866 396.255 71.142C396.015 71.418 395.829 71.76 395.697 72.168C395.577 72.576 395.517 73.05 395.517 73.59C395.517 74.634 395.763 75.462 396.255 76.074C396.747 76.674 397.449 76.974 398.361 76.974C398.661 76.974 398.967 76.926 399.279 76.83C399.603 76.734 399.927 76.566 400.251 76.326C400.383 76.23 400.509 76.188 400.629 76.2C400.749 76.212 400.851 76.26 400.935 76.344C401.019 76.416 401.073 76.512 401.097 76.632C401.133 76.752 401.133 76.872 401.097 76.992C401.061 77.1 400.983 77.196 400.863 77.28C400.479 77.592 400.059 77.82 399.603 77.964C399.147 78.096 398.703 78.162 398.271 78.162ZM405.579 78.162C404.979 78.162 404.439 78.048 403.959 77.82C403.491 77.58 403.119 77.256 402.843 76.848C402.567 76.44 402.429 75.984 402.429 75.48C402.429 74.832 402.591 74.322 402.915 73.95C403.251 73.578 403.797 73.314 404.553 73.158C405.321 73.002 406.365 72.924 407.685 72.924H408.495V73.878H407.703C406.731 73.878 405.963 73.926 405.399 74.022C404.847 74.106 404.457 74.256 404.229 74.472C404.013 74.688 403.905 74.994 403.905 75.39C403.905 75.882 404.073 76.284 404.409 76.596C404.757 76.908 405.225 77.064 405.813 77.064C406.293 77.064 406.713 76.95 407.073 76.722C407.445 76.494 407.733 76.182 407.937 75.786C408.153 75.39 408.261 74.934 408.261 74.418V72.366C408.261 71.622 408.111 71.088 407.811 70.764C407.511 70.428 407.019 70.26 406.335 70.26C405.915 70.26 405.495 70.314 405.075 70.422C404.655 70.53 404.211 70.704 403.743 70.944C403.575 71.028 403.431 71.058 403.311 71.034C403.191 70.998 403.095 70.932 403.023 70.836C402.951 70.74 402.909 70.632 402.897 70.512C402.885 70.38 402.909 70.254 402.969 70.134C403.041 70.014 403.149 69.918 403.293 69.846C403.821 69.582 404.343 69.39 404.859 69.27C405.375 69.15 405.867 69.09 406.335 69.09C407.091 69.09 407.715 69.216 408.207 69.468C408.699 69.708 409.065 70.08 409.305 70.584C409.545 71.076 409.665 71.712 409.665 72.492V77.37C409.665 77.61 409.605 77.796 409.485 77.928C409.377 78.06 409.215 78.126 408.999 78.126C408.771 78.126 408.597 78.06 408.477 77.928C408.357 77.796 408.297 77.61 408.297 77.37V75.966H408.459C408.363 76.422 408.177 76.812 407.901 77.136C407.637 77.46 407.307 77.712 406.911 77.892C406.515 78.072 406.071 78.162 405.579 78.162ZM416.078 78.162C415.202 78.162 414.446 77.97 413.81 77.586C413.174 77.202 412.682 76.668 412.334 75.984C411.998 75.288 411.83 74.484 411.83 73.572C411.83 72.876 411.926 72.252 412.118 71.7C412.31 71.148 412.592 70.68 412.964 70.296C413.336 69.9 413.78 69.6 414.296 69.396C414.824 69.192 415.418 69.09 416.078 69.09C416.51 69.09 416.96 69.156 417.428 69.288C417.896 69.42 418.322 69.648 418.706 69.972C418.826 70.056 418.904 70.158 418.94 70.278C418.976 70.398 418.976 70.518 418.94 70.638C418.904 70.746 418.844 70.842 418.76 70.926C418.676 70.998 418.568 71.04 418.436 71.052C418.316 71.064 418.19 71.022 418.058 70.926C417.746 70.686 417.428 70.518 417.104 70.422C416.78 70.326 416.468 70.278 416.168 70.278C415.7 70.278 415.292 70.356 414.944 70.512C414.596 70.656 414.302 70.866 414.062 71.142C413.822 71.418 413.636 71.76 413.504 72.168C413.384 72.576 413.324 73.05 413.324 73.59C413.324 74.634 413.57 75.462 414.062 76.074C414.554 76.674 415.256 76.974 416.168 76.974C416.468 76.974 416.774 76.926 417.086 76.83C417.41 76.734 417.734 76.566 418.058 76.326C418.19 76.23 418.316 76.188 418.436 76.2C418.556 76.212 418.658 76.26 418.742 76.344C418.826 76.416 418.88 76.512 418.904 76.632C418.94 76.752 418.94 76.872 418.904 76.992C418.868 77.1 418.79 77.196 418.67 77.28C418.286 77.592 417.866 77.82 417.41 77.964C416.954 78.096 416.51 78.162 416.078 78.162ZM421.422 78.09C421.182 78.09 421.002 78.024 420.882 77.892C420.762 77.748 420.702 77.55 420.702 77.298V69.936C420.702 69.684 420.762 69.492 420.882 69.36C421.002 69.228 421.182 69.162 421.422 69.162C421.65 69.162 421.83 69.228 421.962 69.36C422.094 69.492 422.16 69.684 422.16 69.936V77.298C422.16 77.55 422.094 77.748 421.962 77.892C421.842 78.024 421.662 78.09 421.422 78.09ZM421.422 67.146C421.122 67.146 420.888 67.068 420.72 66.912C420.552 66.744 420.468 66.522 420.468 66.246C420.468 65.958 420.552 65.742 420.72 65.598C420.888 65.442 421.122 65.364 421.422 65.364C421.734 65.364 421.968 65.442 422.124 65.598C422.292 65.742 422.376 65.958 422.376 66.246C422.376 66.522 422.292 66.744 422.124 66.912C421.968 67.068 421.734 67.146 421.422 67.146ZM428.522 78.162C427.67 78.162 426.932 77.976 426.308 77.604C425.684 77.232 425.198 76.71 424.85 76.038C424.514 75.354 424.346 74.55 424.346 73.626C424.346 72.93 424.442 72.306 424.634 71.754C424.826 71.19 425.108 70.71 425.48 70.314C425.852 69.918 426.29 69.618 426.794 69.414C427.31 69.198 427.886 69.09 428.522 69.09C429.374 69.09 430.112 69.276 430.736 69.648C431.36 70.02 431.84 70.548 432.176 71.232C432.524 71.904 432.698 72.702 432.698 73.626C432.698 74.322 432.602 74.946 432.41 75.498C432.218 76.05 431.936 76.53 431.564 76.938C431.192 77.334 430.748 77.64 430.232 77.856C429.728 78.06 429.158 78.162 428.522 78.162ZM428.522 76.992C429.062 76.992 429.536 76.86 429.944 76.596C430.352 76.332 430.664 75.948 430.88 75.444C431.108 74.94 431.222 74.334 431.222 73.626C431.222 72.534 430.976 71.7 430.484 71.124C430.004 70.548 429.35 70.26 428.522 70.26C427.97 70.26 427.49 70.392 427.082 70.656C426.686 70.908 426.374 71.286 426.146 71.79C425.93 72.282 425.822 72.894 425.822 73.626C425.822 74.706 426.068 75.54 426.56 76.128C427.052 76.704 427.706 76.992 428.522 76.992ZM429.116 67.992C429.032 68.112 428.93 68.184 428.81 68.208C428.69 68.22 428.576 68.202 428.468 68.154C428.36 68.094 428.282 68.01 428.234 67.902C428.186 67.794 428.198 67.668 428.27 67.524L429.782 64.59C429.866 64.422 429.974 64.314 430.106 64.266C430.238 64.218 430.37 64.212 430.502 64.248C430.646 64.272 430.766 64.332 430.862 64.428C430.958 64.524 431.012 64.638 431.024 64.77C431.048 64.902 431.012 65.04 430.916 65.184L429.116 67.992ZM435.608 78.126C435.368 78.126 435.188 78.06 435.068 77.928C434.948 77.796 434.888 77.61 434.888 77.37V69.864C434.888 69.624 434.948 69.444 435.068 69.324C435.188 69.192 435.362 69.126 435.59 69.126C435.818 69.126 435.992 69.192 436.112 69.324C436.244 69.444 436.31 69.624 436.31 69.864V71.412L436.112 71.196C436.364 70.5 436.772 69.978 437.336 69.63C437.912 69.27 438.572 69.09 439.316 69.09C440.012 69.09 440.588 69.216 441.044 69.468C441.512 69.72 441.86 70.104 442.088 70.62C442.316 71.124 442.43 71.766 442.43 72.546V77.37C442.43 77.61 442.364 77.796 442.232 77.928C442.112 78.06 441.938 78.126 441.71 78.126C441.47 78.126 441.284 78.06 441.152 77.928C441.032 77.796 440.972 77.61 440.972 77.37V72.636C440.972 71.82 440.81 71.226 440.486 70.854C440.174 70.47 439.67 70.278 438.974 70.278C438.17 70.278 437.528 70.53 437.048 71.034C436.58 71.526 436.346 72.186 436.346 73.014V77.37C436.346 77.874 436.1 78.126 435.608 78.126Z" fill="#101E37"/>
<path d="M463.875 69L459.995 72.88L456.115 69C455.725 68.61 455.095 68.61 454.705 69C454.315 69.39 454.315 70.02 454.705 70.41L459.295 75C459.685 75.39 460.315 75.39 460.705 75L465.295 70.41C465.685 70.02 465.685 69.39 465.295 69C464.905 68.62 464.265 68.61 463.875 69Z" fill="#101E37"/>
</svg>
