<svg width="728" height="248" viewBox="0 0 728 248" fill="none" xmlns="http://www.w3.org/2000/svg">
<rect x="1" y="1" width="726" height="246" rx="7" fill="#F3F6F9"/>
<rect x="1" y="1" width="726" height="246" rx="7" stroke="#E6EBF0" stroke-width="2"/>
<rect x="162.5" y="24" width="340" height="48" rx="3" fill="white"/>
<rect x="174.5" y="40" width="196" height="16" rx="3" fill="#9EAAB8"/>
<rect x="162.5" y="80" width="340" height="144" rx="3" fill="white"/>
<line x1="508.5" y1="24" x2="508.5" y2="72" stroke="#007BC7" stroke-width="2" stroke-dasharray="7 3"/>
<line x1="508.5" y1="128" x2="508.5" y2="176" stroke="#007BC7" stroke-width="2" stroke-dasharray="7 3"/>
<rect x="162.5" y="128" width="340" height="48" rx="3" fill="#9EAAB8"/>
<rect x="174.5" y="96" width="196" height="16" rx="3" fill="#9EAAB8"/>
<rect x="174.5" y="192" width="196" height="16" rx="3" fill="#9EAAB8"/>
<rect x="174.5" y="144" width="196" height="16" rx="3" fill="#D1D8E0"/>
<g clip-path="url(#clip0_4999_6252)">
<path d="M475.5 156.2L472 152.7C471.61 152.31 470.99 152.31 470.6 152.7C470.21 153.09 470.21 153.71 470.6 154.1L474.79 158.29C475.18 158.68 475.81 158.68 476.2 158.29L486.8 147.7C487.19 147.31 487.19 146.69 486.8 146.3C486.41 145.91 485.79 145.91 485.4 146.3L475.5 156.2Z" fill="white"/>
</g>
<path d="M527.347 54.152C526.967 54.152 526.669 54.0507 526.454 53.848C526.239 53.6327 526.131 53.3287 526.131 52.936V51.454H521.438C521.045 51.454 520.729 51.3717 520.488 51.207C520.26 51.0423 520.146 50.7827 520.146 50.428C520.146 50.2253 520.197 50.0037 520.298 49.763C520.412 49.5223 520.608 49.2057 520.887 48.813L526.093 41.27C526.27 41.004 526.467 40.8013 526.682 40.662C526.897 40.5227 527.144 40.453 527.423 40.453C527.752 40.453 528.025 40.5543 528.24 40.757C528.455 40.947 528.563 41.251 528.563 41.669V49.44H529.494C529.861 49.44 530.134 49.5287 530.311 49.706C530.501 49.8707 530.596 50.1177 530.596 50.447C530.596 50.7763 530.501 51.0297 530.311 51.207C530.134 51.3717 529.861 51.454 529.494 51.454H528.563V52.936C528.563 53.3287 528.455 53.6327 528.24 53.848C528.025 54.0507 527.727 54.152 527.347 54.152ZM526.131 49.44V43.512H526.682L522.198 50.086V49.44H526.131ZM536.593 54.19C535.554 54.19 534.661 54.0443 533.914 53.753C533.179 53.449 532.609 53.012 532.204 52.442C531.811 51.872 531.615 51.188 531.615 50.39C531.615 49.7567 531.741 49.1993 531.995 48.718C532.261 48.224 532.622 47.825 533.078 47.521C533.534 47.217 534.053 47.027 534.636 46.951V47.35C533.825 47.1727 533.173 46.7863 532.679 46.191C532.197 45.583 531.957 44.861 531.957 44.025C531.957 43.265 532.147 42.619 532.527 42.087C532.907 41.5423 533.445 41.1307 534.142 40.852C534.838 40.5607 535.655 40.415 536.593 40.415C537.543 40.415 538.366 40.5607 539.063 40.852C539.759 41.1307 540.298 41.5423 540.678 42.087C541.058 42.619 541.248 43.265 541.248 44.025C541.248 44.5823 541.134 45.0953 540.906 45.564C540.69 46.0327 540.38 46.419 539.975 46.723C539.582 47.027 539.12 47.2297 538.588 47.331V46.951C539.474 47.0777 540.19 47.4513 540.735 48.072C541.292 48.68 541.571 49.4527 541.571 50.39C541.571 51.188 541.368 51.872 540.963 52.442C540.57 53.012 540 53.449 539.253 53.753C538.518 54.0443 537.631 54.19 536.593 54.19ZM536.593 52.29C537.492 52.29 538.17 52.119 538.626 51.777C539.082 51.4223 539.31 50.903 539.31 50.219C539.31 49.535 539.082 49.022 538.626 48.68C538.17 48.338 537.492 48.167 536.593 48.167C535.706 48.167 535.028 48.338 534.56 48.68C534.104 49.022 533.876 49.535 533.876 50.219C533.876 50.903 534.104 51.4223 534.56 51.777C535.028 52.119 535.706 52.29 536.593 52.29ZM536.593 46.267C537.099 46.267 537.53 46.191 537.885 46.039C538.239 45.8743 538.512 45.64 538.702 45.336C538.892 45.032 538.987 44.6773 538.987 44.272C538.987 43.664 538.771 43.189 538.341 42.847C537.923 42.4923 537.34 42.315 536.593 42.315C535.845 42.315 535.263 42.4923 534.845 42.847C534.427 43.189 534.218 43.664 534.218 44.272C534.218 44.8927 534.427 45.3803 534.845 45.735C535.263 46.0897 535.845 46.267 536.593 46.267ZM544.698 57.572C544.318 57.572 544.027 57.4707 543.824 57.268C543.621 57.0653 543.52 56.7677 543.52 56.375V45.754C543.52 45.3613 543.621 45.0637 543.824 44.861C544.027 44.6583 544.312 44.557 544.679 44.557C545.059 44.557 545.35 44.6583 545.553 44.861C545.756 45.0637 545.857 45.3613 545.857 45.754V47.236L545.648 46.666C545.838 46.02 546.224 45.5007 546.807 45.108C547.402 44.7153 548.093 44.519 548.878 44.519C549.689 44.519 550.398 44.7153 551.006 45.108C551.627 45.5007 552.108 46.058 552.45 46.78C552.792 47.4893 552.963 48.3443 552.963 49.345C552.963 50.333 552.792 51.1943 552.45 51.929C552.108 52.651 551.633 53.2083 551.025 53.601C550.417 53.9937 549.701 54.19 548.878 54.19C548.105 54.19 547.428 54 546.845 53.62C546.262 53.2273 545.87 52.7207 545.667 52.1H545.895V56.375C545.895 56.7677 545.787 57.0653 545.572 57.268C545.369 57.4707 545.078 57.572 544.698 57.572ZM548.213 52.385C548.682 52.385 549.093 52.271 549.448 52.043C549.803 51.815 550.075 51.4793 550.265 51.036C550.468 50.58 550.569 50.0163 550.569 49.345C550.569 48.3317 550.354 47.578 549.923 47.084C549.492 46.5773 548.922 46.324 548.213 46.324C547.744 46.324 547.333 46.438 546.978 46.666C546.623 46.8813 546.345 47.217 546.142 47.673C545.952 48.1163 545.857 48.6737 545.857 49.345C545.857 50.3457 546.072 51.1057 546.503 51.625C546.934 52.1317 547.504 52.385 548.213 52.385ZM555.318 54.095C555.039 54.095 554.805 54.019 554.615 53.867C554.437 53.7023 554.342 53.4933 554.33 53.24C554.33 52.9867 554.437 52.7207 554.653 52.442L557.731 48.642V49.763L554.843 46.21C554.615 45.9313 554.507 45.6653 554.52 45.412C554.532 45.1587 554.627 44.956 554.805 44.804C554.995 44.6393 555.229 44.557 555.508 44.557C555.799 44.557 556.04 44.6077 556.23 44.709C556.432 44.8103 556.616 44.9687 556.781 45.184L559.061 48.11H558.225L560.524 45.184C560.701 44.9687 560.885 44.8103 561.075 44.709C561.265 44.6077 561.499 44.557 561.778 44.557C562.069 44.557 562.303 44.6393 562.481 44.804C562.658 44.9687 562.747 45.1777 562.747 45.431C562.759 45.6843 562.652 45.9503 562.424 46.229L559.555 49.744V48.68L562.633 52.442C562.861 52.708 562.968 52.9677 562.956 53.221C562.943 53.4743 562.842 53.6833 562.652 53.848C562.474 54.0127 562.24 54.095 561.949 54.095C561.67 54.095 561.436 54.0443 561.246 53.943C561.056 53.8417 560.872 53.6833 560.695 53.468L558.225 50.352H559.023L556.572 53.468C556.407 53.6707 556.23 53.829 556.04 53.943C555.85 54.0443 555.609 54.095 555.318 54.095Z" fill="#007BC7"/>
<path d="M527.347 158.152C526.967 158.152 526.669 158.051 526.454 157.848C526.239 157.633 526.131 157.329 526.131 156.936V155.454H521.438C521.045 155.454 520.729 155.372 520.488 155.207C520.26 155.042 520.146 154.783 520.146 154.428C520.146 154.225 520.197 154.004 520.298 153.763C520.412 153.522 520.608 153.206 520.887 152.813L526.093 145.27C526.27 145.004 526.467 144.801 526.682 144.662C526.897 144.523 527.144 144.453 527.423 144.453C527.752 144.453 528.025 144.554 528.24 144.757C528.455 144.947 528.563 145.251 528.563 145.669V153.44H529.494C529.861 153.44 530.134 153.529 530.311 153.706C530.501 153.871 530.596 154.118 530.596 154.447C530.596 154.776 530.501 155.03 530.311 155.207C530.134 155.372 529.861 155.454 529.494 155.454H528.563V156.936C528.563 157.329 528.455 157.633 528.24 157.848C528.025 158.051 527.727 158.152 527.347 158.152ZM526.131 153.44V147.512H526.682L522.198 154.086V153.44H526.131ZM536.593 158.19C535.554 158.19 534.661 158.044 533.914 157.753C533.179 157.449 532.609 157.012 532.204 156.442C531.811 155.872 531.615 155.188 531.615 154.39C531.615 153.757 531.741 153.199 531.995 152.718C532.261 152.224 532.622 151.825 533.078 151.521C533.534 151.217 534.053 151.027 534.636 150.951V151.35C533.825 151.173 533.173 150.786 532.679 150.191C532.197 149.583 531.957 148.861 531.957 148.025C531.957 147.265 532.147 146.619 532.527 146.087C532.907 145.542 533.445 145.131 534.142 144.852C534.838 144.561 535.655 144.415 536.593 144.415C537.543 144.415 538.366 144.561 539.063 144.852C539.759 145.131 540.298 145.542 540.678 146.087C541.058 146.619 541.248 147.265 541.248 148.025C541.248 148.582 541.134 149.095 540.906 149.564C540.69 150.033 540.38 150.419 539.975 150.723C539.582 151.027 539.12 151.23 538.588 151.331V150.951C539.474 151.078 540.19 151.451 540.735 152.072C541.292 152.68 541.571 153.453 541.571 154.39C541.571 155.188 541.368 155.872 540.963 156.442C540.57 157.012 540 157.449 539.253 157.753C538.518 158.044 537.631 158.19 536.593 158.19ZM536.593 156.29C537.492 156.29 538.17 156.119 538.626 155.777C539.082 155.422 539.31 154.903 539.31 154.219C539.31 153.535 539.082 153.022 538.626 152.68C538.17 152.338 537.492 152.167 536.593 152.167C535.706 152.167 535.028 152.338 534.56 152.68C534.104 153.022 533.876 153.535 533.876 154.219C533.876 154.903 534.104 155.422 534.56 155.777C535.028 156.119 535.706 156.29 536.593 156.29ZM536.593 150.267C537.099 150.267 537.53 150.191 537.885 150.039C538.239 149.874 538.512 149.64 538.702 149.336C538.892 149.032 538.987 148.677 538.987 148.272C538.987 147.664 538.771 147.189 538.341 146.847C537.923 146.492 537.34 146.315 536.593 146.315C535.845 146.315 535.263 146.492 534.845 146.847C534.427 147.189 534.218 147.664 534.218 148.272C534.218 148.893 534.427 149.38 534.845 149.735C535.263 150.09 535.845 150.267 536.593 150.267ZM544.698 161.572C544.318 161.572 544.027 161.471 543.824 161.268C543.621 161.065 543.52 160.768 543.52 160.375V149.754C543.52 149.361 543.621 149.064 543.824 148.861C544.027 148.658 544.312 148.557 544.679 148.557C545.059 148.557 545.35 148.658 545.553 148.861C545.756 149.064 545.857 149.361 545.857 149.754V151.236L545.648 150.666C545.838 150.02 546.224 149.501 546.807 149.108C547.402 148.715 548.093 148.519 548.878 148.519C549.689 148.519 550.398 148.715 551.006 149.108C551.627 149.501 552.108 150.058 552.45 150.78C552.792 151.489 552.963 152.344 552.963 153.345C552.963 154.333 552.792 155.194 552.45 155.929C552.108 156.651 551.633 157.208 551.025 157.601C550.417 157.994 549.701 158.19 548.878 158.19C548.105 158.19 547.428 158 546.845 157.62C546.262 157.227 545.87 156.721 545.667 156.1H545.895V160.375C545.895 160.768 545.787 161.065 545.572 161.268C545.369 161.471 545.078 161.572 544.698 161.572ZM548.213 156.385C548.682 156.385 549.093 156.271 549.448 156.043C549.803 155.815 550.075 155.479 550.265 155.036C550.468 154.58 550.569 154.016 550.569 153.345C550.569 152.332 550.354 151.578 549.923 151.084C549.492 150.577 548.922 150.324 548.213 150.324C547.744 150.324 547.333 150.438 546.978 150.666C546.623 150.881 546.345 151.217 546.142 151.673C545.952 152.116 545.857 152.674 545.857 153.345C545.857 154.346 546.072 155.106 546.503 155.625C546.934 156.132 547.504 156.385 548.213 156.385ZM555.318 158.095C555.039 158.095 554.805 158.019 554.615 157.867C554.437 157.702 554.342 157.493 554.33 157.24C554.33 156.987 554.437 156.721 554.653 156.442L557.731 152.642V153.763L554.843 150.21C554.615 149.931 554.507 149.665 554.52 149.412C554.532 149.159 554.627 148.956 554.805 148.804C554.995 148.639 555.229 148.557 555.508 148.557C555.799 148.557 556.04 148.608 556.23 148.709C556.432 148.81 556.616 148.969 556.781 149.184L559.061 152.11H558.225L560.524 149.184C560.701 148.969 560.885 148.81 561.075 148.709C561.265 148.608 561.499 148.557 561.778 148.557C562.069 148.557 562.303 148.639 562.481 148.804C562.658 148.969 562.747 149.178 562.747 149.431C562.759 149.684 562.652 149.95 562.424 150.229L559.555 153.744V152.68L562.633 156.442C562.861 156.708 562.968 156.968 562.956 157.221C562.943 157.474 562.842 157.683 562.652 157.848C562.474 158.013 562.24 158.095 561.949 158.095C561.67 158.095 561.436 158.044 561.246 157.943C561.056 157.842 560.872 157.683 560.695 157.468L558.225 154.352H559.023L556.572 157.468C556.407 157.671 556.23 157.829 556.04 157.943C555.85 158.044 555.609 158.095 555.318 158.095Z" fill="#007BC7"/>
<defs>
<clipPath id="clip0_4999_6252">
<rect width="24" height="24" fill="white" transform="translate(466.5 140)"/>
</clipPath>
</defs>
</svg>
