<svg width="728" height="248" viewBox="0 0 728 248" fill="none" xmlns="http://www.w3.org/2000/svg">
<g clip-path="url(#clip0_13541_5822)">
<rect width="728" height="248" rx="8" fill="#F3F6F9"/>
<g clip-path="url(#clip1_13541_5822)">
<rect width="1114.41" height="1935.76" transform="translate(40 -1010)" fill="white"/>
<rect x="145.241" y="24.4712" width="593.916" height="231.693" rx="6.52655" fill="#ECF0F9"/>
<path d="M167.813 72.7373C167.462 72.7373 167.188 72.6383 166.99 72.4403C166.792 72.2424 166.693 71.9606 166.693 71.5951V57.5011C166.693 57.1203 166.785 56.831 166.968 56.633C167.166 56.4198 167.424 56.3132 167.744 56.3132C168.018 56.3132 168.224 56.3665 168.361 56.4731C168.513 56.5645 168.688 56.7396 168.886 56.9985L178.298 69.4022H177.727V57.4325C177.727 57.0823 177.818 56.8081 178.001 56.6102C178.199 56.4122 178.473 56.3132 178.823 56.3132C179.189 56.3132 179.463 56.4122 179.645 56.6102C179.828 56.8081 179.919 57.0823 179.919 57.4325V71.618C179.919 71.9682 179.828 72.2424 179.645 72.4403C179.478 72.6383 179.249 72.7373 178.96 72.7373C178.686 72.7373 178.458 72.684 178.275 72.5774C178.107 72.4708 177.925 72.288 177.727 72.0292L168.361 59.6483H168.886V71.5951C168.886 71.9606 168.795 72.2424 168.612 72.4403C168.429 72.6383 168.163 72.7373 167.813 72.7373ZM188.261 72.783C187.134 72.783 186.159 72.5469 185.337 72.0748C184.53 71.6028 183.898 70.9327 183.441 70.0647C182.984 69.1966 182.756 68.1763 182.756 67.0037C182.756 66.1052 182.885 65.3057 183.144 64.6052C183.403 63.9047 183.768 63.3032 184.241 62.8006C184.728 62.2828 185.307 61.8945 185.977 61.6356C186.662 61.3615 187.423 61.2245 188.261 61.2245C189.373 61.2245 190.332 61.4605 191.139 61.9326C191.961 62.4047 192.601 63.0747 193.058 63.9428C193.515 64.7956 193.743 65.8159 193.743 67.0037C193.743 67.887 193.614 68.6865 193.355 69.4022C193.096 70.118 192.723 70.7271 192.236 71.2297C191.764 71.7322 191.185 72.1205 190.5 72.3946C189.829 72.6535 189.083 72.783 188.261 72.783ZM188.261 71.0012C188.885 71.0012 189.434 70.8489 189.906 70.5444C190.378 70.2398 190.743 69.7906 191.002 69.1966C191.276 68.6027 191.413 67.8717 191.413 67.0037C191.413 65.6941 191.124 64.7042 190.545 64.0341C189.967 63.3641 189.205 63.029 188.261 63.029C187.621 63.029 187.065 63.1813 186.593 63.4859C186.121 63.7752 185.748 64.2169 185.474 64.8108C185.215 65.4047 185.086 66.1357 185.086 67.0037C185.086 68.2981 185.375 69.288 185.954 69.9733C186.532 70.6586 187.302 71.0012 188.261 71.0012ZM197.499 72.7373C197.119 72.7373 196.829 72.6383 196.631 72.4403C196.433 72.2271 196.334 71.9378 196.334 71.5723V62.4351C196.334 62.0544 196.433 61.7651 196.631 61.5671C196.829 61.3691 197.103 61.2701 197.454 61.2701C197.819 61.2701 198.093 61.3691 198.276 61.5671C198.474 61.7651 198.573 62.0544 198.573 62.4351V64.1027H198.344C198.588 63.1889 199.037 62.496 199.692 62.024C200.347 61.5519 201.185 61.2778 202.205 61.2016C202.479 61.1864 202.692 61.2549 202.845 61.4072C203.012 61.5595 203.103 61.7955 203.119 62.1153C203.149 62.4351 203.081 62.694 202.913 62.892C202.746 63.0747 202.487 63.1813 202.136 63.2118L201.702 63.2575C200.713 63.3488 199.959 63.661 199.441 64.194C198.923 64.727 198.664 65.458 198.664 66.387V71.5723C198.664 71.9378 198.565 72.2271 198.367 72.4403C198.185 72.6383 197.895 72.7373 197.499 72.7373ZM206.044 72.7373C205.678 72.7373 205.396 72.6383 205.198 72.4403C205 72.2271 204.901 71.9378 204.901 71.5723V62.4351C204.901 62.0544 205 61.7651 205.198 61.5671C205.396 61.3691 205.671 61.2701 206.021 61.2701C206.386 61.2701 206.66 61.3691 206.843 61.5671C207.041 61.7651 207.14 62.0544 207.14 62.4351V64.3082L206.889 63.8057C207.193 62.9986 207.665 62.3666 208.305 61.9097C208.945 61.4529 209.714 61.2245 210.612 61.2245C211.541 61.2245 212.295 61.4453 212.874 61.8869C213.452 62.3285 213.848 63.0062 214.061 63.9199H213.742C214.031 63.0823 214.526 62.4275 215.226 61.9554C215.927 61.4681 216.742 61.2245 217.671 61.2245C218.523 61.2245 219.224 61.392 219.772 61.727C220.32 62.0468 220.732 62.5417 221.006 63.2118C221.28 63.8666 221.417 64.6966 221.417 65.7017V71.5723C221.417 71.9378 221.31 72.2271 221.097 72.4403C220.899 72.6383 220.617 72.7373 220.252 72.7373C219.886 72.7373 219.605 72.6383 219.407 72.4403C219.209 72.2271 219.11 71.9378 219.11 71.5723V65.8159C219.11 64.8717 218.942 64.1788 218.607 63.7372C218.287 63.2955 217.754 63.0747 217.008 63.0747C216.171 63.0747 215.508 63.3641 215.021 63.9428C214.534 64.5214 214.29 65.321 214.29 66.3413V71.5723C214.29 71.9378 214.191 72.2271 213.993 72.4403C213.795 72.6383 213.513 72.7373 213.148 72.7373C212.782 72.7373 212.493 72.6383 212.28 72.4403C212.082 72.2271 211.983 71.9378 211.983 71.5723V65.8159C211.983 64.8717 211.823 64.1788 211.503 63.7372C211.183 63.2955 210.65 63.0747 209.904 63.0747C209.066 63.0747 208.404 63.3641 207.917 63.9428C207.445 64.5214 207.209 65.321 207.209 66.3413V71.5723C207.209 72.349 206.82 72.7373 206.044 72.7373ZM228.206 72.783C227.429 72.783 226.729 72.6307 226.105 72.3261C225.495 72.0215 225.016 71.6104 224.665 71.0926C224.315 70.5748 224.14 69.9885 224.14 69.3337C224.14 68.5113 224.346 67.8641 224.757 67.392C225.183 66.9047 225.876 66.5621 226.836 66.3641C227.81 66.1509 229.12 66.0443 230.764 66.0443H231.838V67.4606H230.787C229.691 67.4606 228.823 67.5139 228.183 67.6205C227.544 67.7271 227.087 67.9098 226.813 68.1687C226.554 68.4124 226.424 68.755 226.424 69.1966C226.424 69.7753 226.622 70.2474 227.018 70.6129C227.414 70.9632 227.962 71.1383 228.663 71.1383C229.226 71.1383 229.721 71.0088 230.148 70.75C230.574 70.4758 230.909 70.1104 231.153 69.6535C231.412 69.1966 231.541 68.6712 231.541 68.0773V65.4504C231.541 64.5824 231.358 63.958 230.993 63.5773C230.627 63.1966 230.026 63.0062 229.188 63.0062C228.701 63.0062 228.191 63.0671 227.658 63.1889C227.14 63.3108 226.599 63.5164 226.036 63.8057C225.777 63.9275 225.556 63.9656 225.374 63.9199C225.191 63.8742 225.046 63.7752 224.94 63.623C224.833 63.4554 224.772 63.2803 224.757 63.0976C224.757 62.8996 224.802 62.7092 224.894 62.5265C225 62.3438 225.176 62.2067 225.419 62.1153C226.089 61.7955 226.752 61.5671 227.407 61.43C228.061 61.293 228.678 61.2245 229.257 61.2245C230.277 61.2245 231.115 61.3844 231.77 61.7042C232.44 62.024 232.935 62.5113 233.254 63.1661C233.574 63.8209 233.734 64.6661 233.734 65.7017V71.5723C233.734 71.9378 233.643 72.2271 233.46 72.4403C233.277 72.6383 233.011 72.7373 232.66 72.7373C232.325 72.7373 232.059 72.6383 231.861 72.4403C231.663 72.2271 231.564 71.9378 231.564 71.5723V70.0875H231.77C231.648 70.651 231.419 71.1383 231.084 71.5495C230.764 71.9454 230.361 72.25 229.874 72.4632C229.386 72.6764 228.83 72.783 228.206 72.783ZM241.663 72.783C240.749 72.783 239.98 72.6231 239.356 72.3033C238.732 71.9835 238.267 71.5114 237.963 70.887C237.658 70.2626 237.506 69.5012 237.506 68.6027V63.2118H236.135C235.831 63.2118 235.594 63.1356 235.427 62.9834C235.259 62.8158 235.176 62.595 235.176 62.3209C235.176 62.0316 235.259 61.8108 235.427 61.6585C235.594 61.5062 235.831 61.43 236.135 61.43H237.506V59.0772C237.506 58.6965 237.605 58.4072 237.803 58.2092C238.016 58.0112 238.305 57.9122 238.671 57.9122C239.036 57.9122 239.318 58.0112 239.516 58.2092C239.714 58.4072 239.813 58.6965 239.813 59.0772V61.43H242.485C242.79 61.43 243.026 61.5062 243.194 61.6585C243.361 61.8108 243.445 62.0316 243.445 62.3209C243.445 62.595 243.361 62.8158 243.194 62.9834C243.026 63.1356 242.79 63.2118 242.485 63.2118H239.813V68.42C239.813 69.2271 239.98 69.8362 240.315 70.2474C240.666 70.6586 241.229 70.8642 242.006 70.8642C242.28 70.8642 242.516 70.8413 242.714 70.7956C242.927 70.7347 243.102 70.6967 243.239 70.6814C243.407 70.6814 243.544 70.7423 243.65 70.8642C243.757 70.9708 243.81 71.184 243.81 71.5038C243.81 71.7322 243.765 71.9454 243.673 72.1434C243.597 72.3413 243.452 72.4708 243.239 72.5317C243.056 72.5926 242.805 72.6459 242.485 72.6916C242.181 72.7525 241.907 72.783 241.663 72.783ZM246.598 72.7145C246.232 72.7145 245.95 72.6078 245.753 72.3946C245.555 72.1662 245.456 71.854 245.456 71.4581V62.5493C245.456 62.1534 245.555 61.8488 245.753 61.6356C245.95 61.4224 246.232 61.3158 246.598 61.3158C246.963 61.3158 247.245 61.4224 247.443 61.6356C247.656 61.8488 247.763 62.1534 247.763 62.5493V71.4581C247.763 71.854 247.664 72.1662 247.466 72.3946C247.268 72.6078 246.978 72.7145 246.598 72.7145ZM246.598 58.9402C246.141 58.9402 245.783 58.8259 245.524 58.5975C245.28 58.3691 245.159 58.0493 245.159 57.6381C245.159 57.2117 245.28 56.8919 245.524 56.6787C245.783 56.4503 246.141 56.3361 246.598 56.3361C247.055 56.3361 247.405 56.4503 247.648 56.6787C247.907 56.8919 248.037 57.2117 248.037 57.6381C248.037 58.0493 247.907 58.3691 247.648 58.5975C247.405 58.8259 247.055 58.9402 246.598 58.9402ZM255.327 72.7373C255.008 72.7373 254.726 72.6535 254.482 72.486C254.254 72.3185 254.063 72.0596 253.911 71.7094L250.096 62.8463C249.975 62.5722 249.929 62.3133 249.959 62.0696C249.99 61.826 250.104 61.6356 250.302 61.4986C250.5 61.3463 250.766 61.2701 251.101 61.2701C251.391 61.2701 251.619 61.3387 251.787 61.4757C251.954 61.6128 252.107 61.8488 252.244 62.1839L255.693 70.6814H255.053L258.571 62.1839C258.708 61.8488 258.86 61.6128 259.028 61.4757C259.211 61.3387 259.462 61.2701 259.782 61.2701C260.056 61.2701 260.269 61.3463 260.421 61.4986C260.589 61.6356 260.688 61.826 260.718 62.0696C260.764 62.2981 260.726 62.5493 260.604 62.8235L256.744 71.7094C256.607 72.0596 256.416 72.3185 256.173 72.486C255.929 72.6535 255.647 72.7373 255.327 72.7373ZM266.218 72.783C265.442 72.783 264.741 72.6307 264.117 72.3261C263.507 72.0215 263.028 71.6104 262.678 71.0926C262.327 70.5748 262.152 69.9885 262.152 69.3337C262.152 68.5113 262.358 67.8641 262.769 67.392C263.195 66.9047 263.888 66.5621 264.848 66.3641C265.822 66.1509 267.132 66.0443 268.777 66.0443H269.85V67.4606H268.799C267.703 67.4606 266.835 67.5139 266.195 67.6205C265.556 67.7271 265.099 67.9098 264.825 68.1687C264.566 68.4124 264.436 68.755 264.436 69.1966C264.436 69.7753 264.634 70.2474 265.03 70.6129C265.426 70.9632 265.975 71.1383 266.675 71.1383C267.238 71.1383 267.733 71.0088 268.16 70.75C268.586 70.4758 268.921 70.1104 269.165 69.6535C269.424 69.1966 269.553 68.6712 269.553 68.0773V65.4504C269.553 64.5824 269.37 63.958 269.005 63.5773C268.64 63.1966 268.038 63.0062 267.2 63.0062C266.713 63.0062 266.203 63.0671 265.67 63.1889C265.152 63.3108 264.612 63.5164 264.048 63.8057C263.789 63.9275 263.568 63.9656 263.386 63.9199C263.203 63.8742 263.058 63.7752 262.952 63.623C262.845 63.4554 262.784 63.2803 262.769 63.0976C262.769 62.8996 262.815 62.7092 262.906 62.5265C263.013 62.3438 263.188 62.2067 263.431 62.1153C264.101 61.7955 264.764 61.5671 265.419 61.43C266.073 61.293 266.69 61.2245 267.269 61.2245C268.289 61.2245 269.127 61.3844 269.782 61.7042C270.452 62.024 270.947 62.5113 271.266 63.1661C271.586 63.8209 271.746 64.6661 271.746 65.7017V71.5723C271.746 71.9378 271.655 72.2271 271.472 72.4403C271.289 72.6383 271.023 72.7373 270.673 72.7373C270.338 72.7373 270.071 72.6383 269.873 72.4403C269.675 72.2271 269.576 71.9378 269.576 71.5723V70.0875H269.782C269.66 70.651 269.431 71.1383 269.096 71.5495C268.777 71.9454 268.373 72.25 267.886 72.4632C267.398 72.6764 266.843 72.783 266.218 72.783Z" fill="#101E37"/>
<rect x="164.82" y="129.527" width="78.3695" height="26.1062" rx="6.52655" fill="#005E7A"/>
<path d="M172.581 147.698C172.346 147.698 172.155 147.644 172.008 147.536C171.871 147.428 171.788 147.286 171.758 147.11C171.729 146.924 171.763 146.719 171.861 146.493L175.738 137.903C175.865 137.619 176.017 137.418 176.193 137.301C176.379 137.173 176.589 137.11 176.824 137.11C177.05 137.11 177.25 137.173 177.426 137.301C177.612 137.418 177.769 137.619 177.896 137.903L181.788 146.493C181.896 146.719 181.935 146.924 181.905 147.11C181.876 147.296 181.793 147.443 181.656 147.551C181.519 147.649 181.338 147.698 181.112 147.698C180.838 147.698 180.623 147.634 180.466 147.507C180.319 147.37 180.187 147.164 180.07 146.89L179.115 144.672L179.908 145.186H173.711L174.504 144.672L173.564 146.89C173.437 147.174 173.305 147.379 173.168 147.507C173.031 147.634 172.835 147.698 172.581 147.698ZM176.795 139.269L174.739 144.159L174.357 143.689H179.262L178.895 144.159L176.824 139.269H176.795ZM186.476 147.727C185.722 147.727 185.066 147.575 184.508 147.272C183.95 146.958 183.52 146.518 183.216 145.95C182.913 145.382 182.761 144.717 182.761 143.953C182.761 143.375 182.844 142.861 183.01 142.411C183.187 141.951 183.436 141.564 183.759 141.251C184.082 140.928 184.474 140.683 184.934 140.517C185.394 140.34 185.908 140.252 186.476 140.252C186.799 140.252 187.147 140.296 187.519 140.385C187.9 140.473 188.258 140.62 188.591 140.825C188.747 140.923 188.85 141.04 188.899 141.178C188.948 141.315 188.958 141.457 188.928 141.603C188.899 141.74 188.835 141.863 188.738 141.971C188.649 142.068 188.537 142.132 188.4 142.161C188.263 142.181 188.111 142.147 187.945 142.059C187.729 141.931 187.509 141.838 187.284 141.78C187.059 141.711 186.843 141.677 186.638 141.677C186.315 141.677 186.031 141.731 185.786 141.838C185.541 141.936 185.331 142.083 185.154 142.279C184.988 142.465 184.861 142.7 184.773 142.984C184.685 143.268 184.64 143.596 184.64 143.968C184.64 144.692 184.812 145.265 185.154 145.686C185.507 146.097 186.001 146.303 186.638 146.303C186.843 146.303 187.054 146.273 187.269 146.214C187.494 146.156 187.719 146.063 187.945 145.935C188.111 145.847 188.258 145.818 188.385 145.847C188.522 145.877 188.635 145.945 188.723 146.053C188.811 146.151 188.865 146.273 188.884 146.42C188.904 146.557 188.884 146.694 188.826 146.831C188.777 146.968 188.679 147.081 188.532 147.169C188.209 147.365 187.866 147.507 187.504 147.595C187.142 147.683 186.799 147.727 186.476 147.727ZM193.259 147.727C192.505 147.727 191.849 147.575 191.291 147.272C190.733 146.958 190.303 146.518 189.999 145.95C189.696 145.382 189.544 144.717 189.544 143.953C189.544 143.375 189.627 142.861 189.794 142.411C189.97 141.951 190.219 141.564 190.542 141.251C190.866 140.928 191.257 140.683 191.717 140.517C192.177 140.34 192.691 140.252 193.259 140.252C193.582 140.252 193.93 140.296 194.302 140.385C194.684 140.473 195.041 140.62 195.374 140.825C195.53 140.923 195.633 141.04 195.682 141.178C195.731 141.315 195.741 141.457 195.712 141.603C195.682 141.74 195.619 141.863 195.521 141.971C195.432 142.068 195.32 142.132 195.183 142.161C195.046 142.181 194.894 142.147 194.728 142.059C194.512 141.931 194.292 141.838 194.067 141.78C193.842 141.711 193.626 141.677 193.421 141.677C193.098 141.677 192.814 141.731 192.569 141.838C192.324 141.936 192.114 142.083 191.938 142.279C191.771 142.465 191.644 142.7 191.556 142.984C191.468 143.268 191.424 143.596 191.424 143.968C191.424 144.692 191.595 145.265 191.938 145.686C192.29 146.097 192.784 146.303 193.421 146.303C193.626 146.303 193.837 146.273 194.052 146.214C194.277 146.156 194.502 146.063 194.728 145.935C194.894 145.847 195.041 145.818 195.168 145.847C195.305 145.877 195.418 145.945 195.506 146.053C195.594 146.151 195.648 146.273 195.667 146.42C195.687 146.557 195.667 146.694 195.609 146.831C195.56 146.968 195.462 147.081 195.315 147.169C194.992 147.365 194.649 147.507 194.287 147.595C193.925 147.683 193.582 147.727 193.259 147.727ZM200.263 147.727C199.45 147.727 198.75 147.575 198.163 147.272C197.575 146.968 197.12 146.537 196.797 145.979C196.484 145.421 196.327 144.761 196.327 143.997C196.327 143.253 196.479 142.602 196.782 142.044C197.096 141.486 197.521 141.05 198.06 140.737C198.608 140.414 199.23 140.252 199.925 140.252C200.434 140.252 200.889 140.336 201.29 140.502C201.702 140.668 202.049 140.908 202.333 141.222C202.627 141.535 202.847 141.917 202.994 142.367C203.151 142.808 203.229 143.307 203.229 143.865C203.229 144.041 203.165 144.178 203.038 144.276C202.92 144.364 202.749 144.408 202.524 144.408H197.81V143.351H201.937L201.702 143.571C201.702 143.121 201.633 142.744 201.496 142.44C201.369 142.137 201.178 141.907 200.923 141.75C200.679 141.584 200.37 141.501 199.998 141.501C199.587 141.501 199.235 141.598 198.941 141.794C198.657 141.98 198.437 142.25 198.28 142.602C198.133 142.945 198.06 143.356 198.06 143.835V143.938C198.06 144.741 198.246 145.343 198.618 145.744C199 146.136 199.558 146.332 200.292 146.332C200.546 146.332 200.83 146.303 201.144 146.244C201.467 146.175 201.77 146.063 202.054 145.906C202.26 145.789 202.441 145.74 202.597 145.759C202.754 145.769 202.876 145.823 202.965 145.921C203.062 146.019 203.121 146.141 203.141 146.288C203.16 146.425 203.131 146.567 203.053 146.714C202.984 146.861 202.862 146.988 202.685 147.095C202.343 147.311 201.946 147.472 201.496 147.58C201.055 147.678 200.644 147.727 200.263 147.727ZM207.311 147.727C206.89 147.727 206.445 147.683 205.975 147.595C205.505 147.507 205.084 147.355 204.712 147.14C204.555 147.042 204.443 146.929 204.374 146.802C204.315 146.665 204.291 146.533 204.301 146.405C204.32 146.268 204.369 146.151 204.448 146.053C204.536 145.955 204.643 145.891 204.771 145.862C204.908 145.833 205.055 145.857 205.211 145.935C205.603 146.121 205.97 146.254 206.313 146.332C206.655 146.4 206.993 146.435 207.326 146.435C207.796 146.435 208.143 146.356 208.368 146.2C208.603 146.033 208.721 145.818 208.721 145.554C208.721 145.328 208.642 145.157 208.486 145.04C208.339 144.912 208.114 144.819 207.81 144.761L206.342 144.482C205.735 144.364 205.27 144.144 204.947 143.821C204.634 143.488 204.477 143.062 204.477 142.543C204.477 142.073 204.604 141.667 204.859 141.324C205.123 140.982 205.485 140.717 205.945 140.531C206.406 140.345 206.934 140.252 207.531 140.252C207.962 140.252 208.363 140.301 208.735 140.399C209.117 140.487 209.484 140.629 209.837 140.825C209.984 140.903 210.082 141.006 210.131 141.133C210.189 141.261 210.204 141.393 210.175 141.53C210.145 141.657 210.086 141.775 209.998 141.882C209.91 141.98 209.798 142.044 209.661 142.073C209.533 142.093 209.387 142.064 209.22 141.985C208.917 141.829 208.623 141.716 208.339 141.647C208.065 141.579 207.801 141.545 207.546 141.545C207.066 141.545 206.709 141.628 206.474 141.794C206.249 141.961 206.136 142.181 206.136 142.455C206.136 142.661 206.205 142.832 206.342 142.969C206.479 143.106 206.689 143.199 206.973 143.248L208.442 143.527C209.078 143.645 209.558 143.86 209.881 144.173C210.214 144.486 210.38 144.907 210.38 145.436C210.38 146.151 210.101 146.714 209.543 147.125C208.985 147.526 208.241 147.727 207.311 147.727ZM215.127 147.727C214.383 147.727 213.737 147.575 213.189 147.272C212.641 146.968 212.215 146.537 211.912 145.979C211.608 145.412 211.456 144.746 211.456 143.982C211.456 143.405 211.54 142.891 211.706 142.44C211.882 141.98 212.132 141.589 212.455 141.266C212.778 140.933 213.165 140.683 213.615 140.517C214.065 140.34 214.569 140.252 215.127 140.252C215.872 140.252 216.518 140.404 217.066 140.708C217.614 141.011 218.04 141.442 218.343 142C218.647 142.558 218.799 143.219 218.799 143.982C218.799 144.56 218.711 145.079 218.534 145.539C218.368 145.999 218.123 146.396 217.8 146.728C217.477 147.051 217.09 147.301 216.64 147.477C216.19 147.644 215.686 147.727 215.127 147.727ZM215.127 146.332C215.49 146.332 215.808 146.244 216.082 146.068C216.356 145.891 216.567 145.632 216.713 145.289C216.87 144.937 216.948 144.501 216.948 143.982C216.948 143.199 216.782 142.617 216.449 142.235C216.116 141.843 215.676 141.647 215.127 141.647C214.765 141.647 214.447 141.736 214.173 141.912C213.899 142.078 213.683 142.338 213.527 142.69C213.38 143.033 213.307 143.463 213.307 143.982C213.307 144.756 213.473 145.343 213.806 145.744C214.139 146.136 214.579 146.332 215.127 146.332Z" fill="white"/>
<path d="M233.4 146.388H226.874C226.574 146.388 226.33 146.143 226.33 145.844V139.317C226.33 139.018 226.574 138.773 226.874 138.773H229.593C229.892 138.773 230.137 138.529 230.137 138.229C230.137 137.93 229.892 137.686 229.593 137.686H226.33C225.726 137.686 225.242 138.175 225.242 138.773V146.388C225.242 146.986 225.731 147.475 226.33 147.475H233.944C234.542 147.475 235.032 146.986 235.032 146.388V143.124C235.032 142.825 234.787 142.58 234.488 142.58C234.189 142.58 233.944 142.825 233.944 143.124V145.844C233.944 146.143 233.699 146.388 233.4 146.388ZM231.225 138.229C231.225 138.529 231.469 138.773 231.768 138.773H233.177L228.211 143.739C227.999 143.951 227.999 144.294 228.211 144.506C228.424 144.718 228.766 144.718 228.978 144.506L233.944 139.54V140.949C233.944 141.248 234.189 141.493 234.488 141.493C234.787 141.493 235.032 141.248 235.032 140.949V137.686H231.768C231.469 137.686 231.225 137.93 231.225 138.229Z" fill="white"/>
<path d="M166.414 118.157V106.509H167.768V118.157H166.414ZM172.325 118.157H170.971V106.509H177.456V107.705H172.325V111.975H177.145V113.162H172.325V118.157ZM178.46 114.365V113.186H182.412V114.365H178.46ZM191.502 118.157H183.869V117.05L186.985 113.887C187.564 113.303 188.05 112.782 188.443 112.325C188.841 111.869 189.144 111.42 189.351 110.979C189.558 110.533 189.661 110.044 189.661 109.513C189.661 108.854 189.465 108.353 189.072 108.007C188.684 107.657 188.172 107.481 187.534 107.481C186.977 107.481 186.483 107.577 186.052 107.768C185.622 107.959 185.181 108.23 184.73 108.581L184.021 107.689C184.329 107.428 184.664 107.197 185.025 106.995C185.391 106.794 185.782 106.634 186.196 106.517C186.615 106.401 187.062 106.342 187.534 106.342C188.251 106.342 188.87 106.467 189.391 106.717C189.911 106.966 190.312 107.322 190.594 107.784C190.88 108.246 191.024 108.796 191.024 109.433C191.024 110.049 190.902 110.623 190.657 111.154C190.413 111.68 190.07 112.203 189.63 112.724C189.189 113.239 188.674 113.786 188.084 114.365L185.551 116.89V116.946H191.502V118.157ZM200.903 112.317C200.903 113.263 200.831 114.107 200.688 114.851C200.544 115.595 200.319 116.224 200.011 116.739C199.703 117.254 199.304 117.647 198.816 117.918C198.327 118.184 197.74 118.317 197.055 118.317C196.189 118.317 195.472 118.08 194.904 117.608C194.341 117.135 193.919 116.452 193.637 115.56C193.361 114.662 193.223 113.582 193.223 112.317C193.223 111.075 193.348 110.007 193.597 109.115C193.852 108.217 194.261 107.529 194.824 107.051C195.387 106.568 196.131 106.326 197.055 106.326C197.931 106.326 198.654 106.565 199.222 107.043C199.79 107.516 200.212 108.201 200.489 109.099C200.765 109.991 200.903 111.064 200.903 112.317ZM194.553 112.317C194.553 113.401 194.636 114.304 194.8 115.026C194.965 115.749 195.23 116.29 195.597 116.651C195.969 117.007 196.455 117.185 197.055 117.185C197.655 117.185 198.138 117.007 198.505 116.651C198.877 116.296 199.145 115.757 199.31 115.034C199.479 114.312 199.564 113.406 199.564 112.317C199.564 111.25 199.482 110.358 199.317 109.641C199.153 108.918 198.887 108.376 198.521 108.015C198.154 107.649 197.666 107.466 197.055 107.466C196.444 107.466 195.955 107.649 195.589 108.015C195.222 108.376 194.957 108.918 194.792 109.641C194.633 110.358 194.553 111.25 194.553 112.317ZM210.176 118.157H202.544V117.05L205.659 113.887C206.238 113.303 206.724 112.782 207.117 112.325C207.516 111.869 207.818 111.42 208.025 110.979C208.233 110.533 208.336 110.044 208.336 109.513C208.336 108.854 208.14 108.353 207.747 108.007C207.359 107.657 206.846 107.481 206.209 107.481C205.651 107.481 205.157 107.577 204.727 107.768C204.297 107.959 203.856 108.23 203.405 108.581L202.695 107.689C203.004 107.428 203.338 107.197 203.699 106.995C204.066 106.794 204.456 106.634 204.87 106.517C205.29 106.401 205.736 106.342 206.209 106.342C206.926 106.342 207.545 106.467 208.065 106.717C208.586 106.966 208.987 107.322 209.268 107.784C209.555 108.246 209.698 108.796 209.698 109.433C209.698 110.049 209.576 110.623 209.332 111.154C209.088 111.68 208.745 112.203 208.304 112.724C207.863 113.239 207.348 113.786 206.759 114.365L204.225 116.89V116.946H210.176V118.157ZM219.084 109.226C219.084 109.747 218.983 110.198 218.781 110.581C218.579 110.963 218.298 111.276 217.936 111.521C217.575 111.76 217.15 111.927 216.662 112.023V112.086C217.586 112.203 218.279 112.501 218.741 112.979C219.208 113.457 219.442 114.083 219.442 114.859C219.442 115.533 219.283 116.131 218.964 116.651C218.651 117.172 218.167 117.581 217.514 117.878C216.866 118.171 216.035 118.317 215.02 118.317C214.404 118.317 213.833 118.266 213.308 118.165C212.787 118.07 212.288 117.908 211.81 117.679V116.436C212.293 116.675 212.819 116.864 213.387 117.002C213.955 117.135 214.505 117.201 215.036 117.201C216.099 117.201 216.866 116.991 217.339 116.572C217.812 116.147 218.048 115.568 218.048 114.835C218.048 114.33 217.915 113.924 217.65 113.616C217.389 113.303 217.012 113.074 216.518 112.931C216.03 112.782 215.44 112.708 214.75 112.708H213.586V111.576H214.758C215.39 111.576 215.926 111.484 216.367 111.298C216.808 111.112 217.142 110.852 217.371 110.517C217.604 110.177 217.721 109.776 217.721 109.314C217.721 108.724 217.525 108.27 217.132 107.952C216.739 107.628 216.205 107.466 215.53 107.466C215.116 107.466 214.739 107.508 214.399 107.593C214.059 107.678 213.74 107.795 213.443 107.944C213.146 108.092 212.848 108.265 212.551 108.461L211.881 107.553C212.306 107.224 212.824 106.94 213.435 106.701C214.046 106.462 214.739 106.342 215.514 106.342C216.704 106.342 217.596 106.613 218.191 107.155C218.786 107.697 219.084 108.387 219.084 109.226ZM221.067 114.365V113.186H225.019V114.365H221.067ZM234.691 115.456H232.946V118.157H231.655V115.456H226.023V114.341L231.568 106.446H232.946V114.261H234.691V115.456ZM231.655 114.261V110.453C231.655 110.161 231.658 109.898 231.663 109.664C231.669 109.425 231.677 109.205 231.687 109.003C231.698 108.796 231.706 108.599 231.711 108.414C231.722 108.228 231.73 108.044 231.735 107.864H231.671C231.571 108.076 231.454 108.302 231.321 108.541C231.193 108.775 231.063 108.985 230.93 109.17L227.337 114.261H231.655ZM239.495 111.035C240.286 111.035 240.974 111.17 241.558 111.441C242.143 111.707 242.594 112.094 242.913 112.604C243.237 113.114 243.399 113.733 243.399 114.461C243.399 115.257 243.226 115.945 242.881 116.524C242.536 117.098 242.039 117.541 241.391 117.854C240.743 118.163 239.968 118.317 239.065 118.317C238.459 118.317 237.896 118.263 237.376 118.157C236.855 118.051 236.417 117.892 236.061 117.679V116.42C236.449 116.654 236.919 116.84 237.471 116.978C238.024 117.116 238.56 117.185 239.081 117.185C239.67 117.185 240.185 117.092 240.626 116.906C241.072 116.715 241.418 116.428 241.662 116.046C241.912 115.658 242.036 115.172 242.036 114.588C242.036 113.813 241.797 113.215 241.319 112.795C240.847 112.371 240.098 112.158 239.073 112.158C238.743 112.158 238.382 112.185 237.989 112.238C237.596 112.291 237.272 112.349 237.017 112.413L236.348 111.975L236.794 106.509H242.586V107.72H237.925L237.631 111.234C237.833 111.191 238.093 111.149 238.411 111.106C238.73 111.059 239.091 111.035 239.495 111.035ZM245.271 113.178C245.271 112.477 245.319 111.792 245.414 111.122C245.515 110.453 245.683 109.832 245.916 109.258C246.15 108.679 246.469 108.172 246.872 107.736C247.276 107.301 247.778 106.961 248.378 106.717C248.984 106.467 249.709 106.342 250.553 106.342C250.792 106.342 251.05 106.355 251.326 106.382C251.602 106.403 251.831 106.44 252.011 106.494V107.633C251.815 107.564 251.589 107.513 251.334 107.481C251.084 107.45 250.832 107.434 250.577 107.434C249.589 107.434 248.811 107.649 248.243 108.079C247.68 108.509 247.273 109.093 247.024 109.832C246.774 110.565 246.631 111.391 246.594 112.309H246.681C246.846 112.044 247.056 111.805 247.311 111.592C247.566 111.375 247.874 111.202 248.235 111.075C248.601 110.947 249.026 110.883 249.51 110.883C250.189 110.883 250.782 111.021 251.286 111.298C251.796 111.574 252.189 111.975 252.465 112.501C252.747 113.026 252.888 113.664 252.888 114.413C252.888 115.215 252.739 115.908 252.441 116.492C252.144 117.076 251.719 117.528 251.167 117.847C250.62 118.16 249.966 118.317 249.207 118.317C248.638 118.317 248.115 118.208 247.637 117.99C247.159 117.772 246.742 117.448 246.386 117.018C246.036 116.588 245.762 116.054 245.566 115.417C245.369 114.774 245.271 114.028 245.271 113.178ZM249.191 117.201C249.913 117.201 250.492 116.97 250.928 116.508C251.363 116.046 251.581 115.348 251.581 114.413C251.581 113.648 251.387 113.042 250.999 112.596C250.612 112.15 250.027 111.927 249.247 111.927C248.715 111.927 248.253 112.039 247.86 112.262C247.467 112.479 247.162 112.756 246.944 113.09C246.726 113.425 246.617 113.765 246.617 114.11C246.617 114.461 246.668 114.816 246.769 115.178C246.875 115.539 247.034 115.873 247.247 116.181C247.459 116.489 247.728 116.736 248.052 116.922C248.376 117.108 248.755 117.201 249.191 117.201ZM258.17 111.035C258.961 111.035 259.649 111.17 260.233 111.441C260.817 111.707 261.269 112.094 261.587 112.604C261.911 113.114 262.073 113.733 262.073 114.461C262.073 115.257 261.901 115.945 261.556 116.524C261.21 117.098 260.714 117.541 260.066 117.854C259.418 118.163 258.642 118.317 257.739 118.317C257.134 118.317 256.571 118.263 256.05 118.157C255.53 118.051 255.092 117.892 254.736 117.679V116.42C255.124 116.654 255.594 116.84 256.146 116.978C256.698 117.116 257.235 117.185 257.755 117.185C258.345 117.185 258.86 117.092 259.301 116.906C259.747 116.715 260.092 116.428 260.337 116.046C260.586 115.658 260.711 115.172 260.711 114.588C260.711 113.813 260.472 113.215 259.994 112.795C259.521 112.371 258.772 112.158 257.747 112.158C257.418 112.158 257.057 112.185 256.664 112.238C256.271 112.291 255.947 112.349 255.692 112.413L255.023 111.975L255.469 106.509H261.261V107.72H256.6L256.305 111.234C256.507 111.191 256.767 111.149 257.086 111.106C257.405 111.059 257.766 111.035 258.17 111.035ZM263.946 113.178C263.946 112.477 263.993 111.792 264.089 111.122C264.19 110.453 264.357 109.832 264.591 109.258C264.825 108.679 265.143 108.172 265.547 107.736C265.951 107.301 266.453 106.961 267.053 106.717C267.658 106.467 268.383 106.342 269.228 106.342C269.467 106.342 269.724 106.355 270.001 106.382C270.277 106.403 270.505 106.44 270.686 106.494V107.633C270.489 107.564 270.263 107.513 270.009 107.481C269.759 107.45 269.507 107.434 269.252 107.434C268.264 107.434 267.486 107.649 266.917 108.079C266.354 108.509 265.948 109.093 265.698 109.832C265.449 110.565 265.305 111.391 265.268 112.309H265.356C265.52 112.044 265.73 111.805 265.985 111.592C266.24 111.375 266.548 111.202 266.909 111.075C267.276 110.947 267.701 110.883 268.184 110.883C268.864 110.883 269.456 111.021 269.961 111.298C270.471 111.574 270.864 111.975 271.14 112.501C271.421 113.026 271.562 113.664 271.562 114.413C271.562 115.215 271.413 115.908 271.116 116.492C270.819 117.076 270.394 117.528 269.841 117.847C269.294 118.16 268.641 118.317 267.881 118.317C267.313 118.317 266.79 118.208 266.312 117.99C265.834 117.772 265.417 117.448 265.061 117.018C264.711 116.588 264.437 116.054 264.24 115.417C264.044 114.774 263.946 114.028 263.946 113.178ZM267.865 117.201C268.588 117.201 269.167 116.97 269.602 116.508C270.038 116.046 270.256 115.348 270.256 114.413C270.256 113.648 270.062 113.042 269.674 112.596C269.286 112.15 268.702 111.927 267.921 111.927C267.39 111.927 266.928 112.039 266.535 112.262C266.142 112.479 265.837 112.756 265.619 113.09C265.401 113.425 265.292 113.765 265.292 114.11C265.292 114.461 265.343 114.816 265.443 115.178C265.55 115.539 265.709 115.873 265.921 116.181C266.134 116.489 266.402 116.736 266.726 116.922C267.05 117.108 267.43 117.201 267.865 117.201ZM280.366 109.226C280.366 109.747 280.265 110.198 280.063 110.581C279.861 110.963 279.58 111.276 279.218 111.521C278.857 111.76 278.432 111.927 277.944 112.023V112.086C278.868 112.203 279.561 112.501 280.023 112.979C280.49 113.457 280.724 114.083 280.724 114.859C280.724 115.533 280.565 116.131 280.246 116.651C279.933 117.172 279.449 117.581 278.796 117.878C278.148 118.171 277.317 118.317 276.302 118.317C275.686 118.317 275.115 118.266 274.59 118.165C274.069 118.07 273.57 117.908 273.092 117.679V116.436C273.575 116.675 274.101 116.864 274.669 117.002C275.238 117.135 275.787 117.201 276.318 117.201C277.381 117.201 278.148 116.991 278.621 116.572C279.094 116.147 279.33 115.568 279.33 114.835C279.33 114.33 279.197 113.924 278.932 113.616C278.671 113.303 278.294 113.074 277.8 112.931C277.312 112.782 276.722 112.708 276.032 112.708H274.868V111.576H276.04C276.672 111.576 277.208 111.484 277.649 111.298C278.09 111.112 278.424 110.852 278.653 110.517C278.886 110.177 279.003 109.776 279.003 109.314C279.003 108.724 278.807 108.27 278.414 107.952C278.021 107.628 277.487 107.466 276.812 107.466C276.398 107.466 276.021 107.508 275.681 107.593C275.341 107.678 275.022 107.795 274.725 107.944C274.428 108.092 274.13 108.265 273.833 108.461L273.163 107.553C273.588 107.224 274.106 106.94 274.717 106.701C275.328 106.462 276.021 106.342 276.796 106.342C277.986 106.342 278.878 106.613 279.473 107.155C280.068 107.697 280.366 108.387 280.366 109.226ZM290.197 112.317C290.197 113.263 290.125 114.107 289.982 114.851C289.838 115.595 289.613 116.224 289.305 116.739C288.997 117.254 288.598 117.647 288.11 117.918C287.621 118.184 287.034 118.317 286.349 118.317C285.483 118.317 284.766 118.08 284.198 117.608C283.635 117.135 283.213 116.452 282.931 115.56C282.655 114.662 282.517 113.582 282.517 112.317C282.517 111.075 282.642 110.007 282.891 109.115C283.146 108.217 283.555 107.529 284.118 107.051C284.681 106.568 285.425 106.326 286.349 106.326C287.225 106.326 287.948 106.565 288.516 107.043C289.084 107.516 289.506 108.201 289.783 109.099C290.059 109.991 290.197 111.064 290.197 112.317ZM283.847 112.317C283.847 113.401 283.93 114.304 284.094 115.026C284.259 115.749 284.524 116.29 284.891 116.651C285.263 117.007 285.749 117.185 286.349 117.185C286.949 117.185 287.432 117.007 287.799 116.651C288.171 116.296 288.439 115.757 288.603 115.034C288.773 114.312 288.858 113.406 288.858 112.317C288.858 111.25 288.776 110.358 288.611 109.641C288.447 108.918 288.181 108.376 287.815 108.015C287.448 107.649 286.96 107.466 286.349 107.466C285.738 107.466 285.249 107.649 284.883 108.015C284.516 108.376 284.251 108.918 284.086 109.641C283.927 110.358 283.847 111.25 283.847 112.317ZM295.686 106.342C296.361 106.342 296.958 106.448 297.479 106.661C297.999 106.873 298.406 107.187 298.698 107.601C298.995 108.01 299.144 108.515 299.144 109.115C299.144 109.587 299.04 110.002 298.833 110.358C298.631 110.708 298.358 111.016 298.013 111.282C297.667 111.542 297.285 111.776 296.865 111.983C297.365 112.211 297.813 112.469 298.212 112.756C298.615 113.042 298.934 113.38 299.168 113.767C299.401 114.155 299.518 114.615 299.518 115.146C299.518 115.799 299.359 116.365 299.04 116.843C298.727 117.315 298.286 117.679 297.718 117.934C297.149 118.189 296.483 118.317 295.718 118.317C294.895 118.317 294.194 118.194 293.615 117.95C293.041 117.7 292.603 117.345 292.3 116.883C292.003 116.415 291.854 115.855 291.854 115.201C291.854 114.665 291.968 114.2 292.197 113.807C292.425 113.409 292.728 113.066 293.105 112.78C293.482 112.493 293.894 112.251 294.34 112.055C293.952 111.842 293.596 111.6 293.272 111.33C292.953 111.059 292.699 110.743 292.507 110.381C292.321 110.015 292.228 109.59 292.228 109.107C292.228 108.517 292.377 108.018 292.675 107.609C292.977 107.195 293.389 106.881 293.91 106.669C294.435 106.451 295.028 106.342 295.686 106.342ZM293.153 115.209C293.153 115.804 293.362 116.296 293.782 116.683C294.202 117.066 294.836 117.257 295.686 117.257C296.493 117.257 297.118 117.066 297.558 116.683C297.999 116.296 298.22 115.788 298.22 115.162C298.22 114.774 298.119 114.434 297.917 114.142C297.715 113.844 297.428 113.579 297.056 113.345C296.685 113.111 296.246 112.899 295.742 112.708L295.455 112.604C294.966 112.806 294.55 113.032 294.204 113.281C293.864 113.526 293.604 113.805 293.424 114.118C293.243 114.431 293.153 114.795 293.153 115.209ZM295.67 107.426C295.043 107.426 294.531 107.577 294.133 107.88C293.734 108.177 293.535 108.607 293.535 109.17C293.535 109.574 293.631 109.917 293.822 110.198C294.018 110.474 294.284 110.713 294.619 110.915C294.953 111.112 295.328 111.295 295.742 111.465C296.146 111.295 296.504 111.109 296.817 110.907C297.131 110.7 297.378 110.456 297.558 110.174C297.739 109.893 297.829 109.556 297.829 109.162C297.829 108.599 297.63 108.169 297.232 107.872C296.839 107.574 296.318 107.426 295.67 107.426ZM301.024 114.365V113.186H304.976V114.365H301.024ZM312.202 112.055H316.273V117.703C315.662 117.91 315.033 118.064 314.385 118.165C313.742 118.266 313.022 118.317 312.226 118.317C311.015 118.317 309.992 118.075 309.158 117.592C308.33 117.108 307.7 116.42 307.27 115.528C306.84 114.631 306.625 113.566 306.625 112.333C306.625 111.128 306.861 110.076 307.334 109.178C307.812 108.281 308.5 107.585 309.397 107.091C310.3 106.592 311.384 106.342 312.648 106.342C313.296 106.342 313.909 106.403 314.488 106.525C315.072 106.642 315.614 106.81 316.114 107.027L315.596 108.206C315.165 108.021 314.69 107.861 314.17 107.728C313.654 107.596 313.121 107.529 312.568 107.529C311.617 107.529 310.802 107.726 310.122 108.119C309.448 108.512 308.93 109.067 308.569 109.784C308.213 110.501 308.035 111.351 308.035 112.333C308.035 113.305 308.192 114.152 308.505 114.875C308.818 115.592 309.307 116.15 309.971 116.548C310.635 116.946 311.49 117.145 312.536 117.145C313.062 117.145 313.514 117.116 313.891 117.058C314.268 116.994 314.61 116.92 314.918 116.835V113.265H312.202V112.055ZM324.073 107.537C323.43 107.537 322.851 107.649 322.336 107.872C321.826 108.09 321.39 108.408 321.029 108.828C320.673 109.242 320.4 109.744 320.209 110.334C320.017 110.923 319.922 111.587 319.922 112.325C319.922 113.303 320.073 114.152 320.376 114.875C320.684 115.592 321.141 116.147 321.746 116.54C322.357 116.933 323.119 117.129 324.033 117.129C324.553 117.129 325.042 117.087 325.499 117.002C325.961 116.912 326.41 116.8 326.845 116.667V117.847C326.42 118.006 325.974 118.123 325.507 118.197C325.039 118.277 324.484 118.317 323.841 118.317C322.657 118.317 321.666 118.072 320.87 117.584C320.078 117.09 319.484 116.394 319.085 115.496C318.692 114.599 318.496 113.539 318.496 112.317C318.496 111.436 318.618 110.631 318.862 109.903C319.112 109.17 319.473 108.538 319.946 108.007C320.424 107.476 321.008 107.067 321.698 106.78C322.394 106.488 323.191 106.342 324.088 106.342C324.678 106.342 325.246 106.401 325.793 106.517C326.34 106.634 326.834 106.802 327.275 107.019L326.733 108.167C326.362 107.997 325.953 107.851 325.507 107.728C325.066 107.601 324.588 107.537 324.073 107.537ZM336.676 118.157L335.242 114.461H330.574L329.147 118.157H327.777L332.334 106.462H333.553L338.078 118.157H336.676ZM334.836 113.258L333.474 109.585C333.442 109.489 333.389 109.332 333.314 109.115C333.245 108.897 333.173 108.671 333.099 108.438C333.025 108.204 332.964 108.015 332.916 107.872C332.863 108.09 332.804 108.307 332.741 108.525C332.682 108.738 332.624 108.937 332.565 109.123C332.507 109.303 332.456 109.457 332.414 109.585L331.028 113.258H334.836ZM339.696 106.509H342.994C344.449 106.509 345.544 106.727 346.277 107.163C347.009 107.598 347.376 108.339 347.376 109.386C347.376 109.837 347.288 110.243 347.113 110.605C346.943 110.96 346.693 111.255 346.364 111.489C346.035 111.723 345.629 111.885 345.145 111.975V112.055C345.655 112.134 346.107 112.28 346.5 112.493C346.893 112.705 347.201 113.003 347.424 113.385C347.647 113.767 347.758 114.253 347.758 114.843C347.758 115.56 347.591 116.165 347.256 116.659C346.927 117.153 346.46 117.528 345.854 117.783C345.249 118.032 344.532 118.157 343.703 118.157H339.696V106.509ZM341.05 111.505H343.281C344.295 111.505 344.996 111.337 345.384 111.003C345.777 110.668 345.974 110.18 345.974 109.537C345.974 108.873 345.74 108.395 345.273 108.103C344.811 107.811 344.072 107.665 343.058 107.665H341.05V111.505ZM341.05 112.644V117.002H343.472C344.508 117.002 345.241 116.8 345.671 116.397C346.101 115.988 346.316 115.438 346.316 114.747C346.316 114.307 346.218 113.929 346.022 113.616C345.83 113.303 345.517 113.064 345.081 112.899C344.651 112.729 344.075 112.644 343.353 112.644H341.05ZM357.55 118.157L356.116 114.461H351.447L350.021 118.157H348.651L353.208 106.462H354.427L358.952 118.157H357.55ZM355.709 113.258L354.347 109.585C354.315 109.489 354.262 109.332 354.188 109.115C354.119 108.897 354.047 108.671 353.973 108.438C353.898 108.204 353.837 108.015 353.789 107.872C353.736 108.09 353.678 108.307 353.614 108.525C353.556 108.738 353.497 108.937 353.439 109.123C353.38 109.303 353.33 109.457 353.287 109.585L351.901 113.258H355.709ZM359.629 114.365V113.186H363.581V114.365H359.629ZM370.95 118.157L367.038 107.848H366.975C366.996 108.066 367.015 108.331 367.031 108.645C367.046 108.958 367.06 109.301 367.07 109.672C367.081 110.039 367.086 110.413 367.086 110.796V118.157H365.827V106.509H367.835L371.524 116.197H371.58L375.324 106.509H377.316V118.157H375.977V110.7C375.977 110.355 375.983 110.01 375.993 109.664C376.004 109.314 376.017 108.985 376.033 108.677C376.049 108.363 376.065 108.092 376.081 107.864H376.017L372.058 118.157H370.95ZM389.33 118.157H387.976V112.668H381.857V118.157H380.503V106.509H381.857V111.473H387.976V106.509H389.33V118.157ZM393.887 118.157H392.533V106.509H399.018V107.705H393.887V111.975H398.707V113.162H393.887V118.157ZM405.941 112.055H410.012V117.703C409.402 117.91 408.772 118.064 408.124 118.165C407.482 118.266 406.762 118.317 405.965 118.317C404.754 118.317 403.732 118.075 402.898 117.592C402.069 117.108 401.44 116.42 401.01 115.528C400.579 114.631 400.364 113.566 400.364 112.333C400.364 111.128 400.601 110.076 401.073 109.178C401.551 108.281 402.239 107.585 403.137 107.091C404.04 106.592 405.123 106.342 406.387 106.342C407.035 106.342 407.649 106.403 408.228 106.525C408.812 106.642 409.354 106.81 409.853 107.027L409.335 108.206C408.905 108.021 408.43 107.861 407.909 107.728C407.394 107.596 406.86 107.529 406.308 107.529C405.357 107.529 404.542 107.726 403.862 108.119C403.187 108.512 402.669 109.067 402.308 109.784C401.952 110.501 401.775 111.351 401.775 112.333C401.775 113.305 401.931 114.152 402.245 114.875C402.558 115.592 403.047 116.15 403.711 116.548C404.374 116.946 405.23 117.145 406.276 117.145C406.802 117.145 407.253 117.116 407.63 117.058C408.007 116.994 408.35 116.92 408.658 116.835V113.265H405.941V112.055ZM417.812 107.537C417.169 107.537 416.59 107.649 416.075 107.872C415.565 108.09 415.13 108.408 414.769 108.828C414.413 109.242 414.139 109.744 413.948 110.334C413.757 110.923 413.661 111.587 413.661 112.325C413.661 113.303 413.813 114.152 414.115 114.875C414.423 115.592 414.88 116.147 415.486 116.54C416.097 116.933 416.859 117.129 417.772 117.129C418.293 117.129 418.781 117.087 419.238 117.002C419.7 116.912 420.149 116.8 420.585 116.667V117.847C420.16 118.006 419.714 118.123 419.246 118.197C418.779 118.277 418.224 118.317 417.581 118.317C416.397 118.317 415.406 118.072 414.609 117.584C413.818 117.09 413.223 116.394 412.825 115.496C412.432 114.599 412.235 113.539 412.235 112.317C412.235 111.436 412.357 110.631 412.602 109.903C412.851 109.17 413.212 108.538 413.685 108.007C414.163 107.476 414.747 107.067 415.438 106.78C416.134 106.488 416.93 106.342 417.828 106.342C418.418 106.342 418.986 106.401 419.533 106.517C420.08 106.634 420.574 106.802 421.015 107.019L420.473 108.167C420.101 107.997 419.692 107.851 419.246 107.728C418.805 107.601 418.327 107.537 417.812 107.537Z" fill="#101E37"/>
<rect x="164.82" y="204.582" width="78.3695" height="26.1062" rx="6.52655" fill="#005E7A"/>
<path d="M172.581 222.753C172.346 222.753 172.155 222.699 172.008 222.591C171.871 222.484 171.788 222.342 171.758 222.165C171.729 221.979 171.763 221.774 171.861 221.549L175.738 212.958C175.865 212.674 176.017 212.473 176.193 212.356C176.379 212.229 176.589 212.165 176.824 212.165C177.05 212.165 177.25 212.229 177.426 212.356C177.612 212.473 177.769 212.674 177.896 212.958L181.788 221.549C181.896 221.774 181.935 221.979 181.905 222.165C181.876 222.351 181.793 222.498 181.656 222.606C181.519 222.704 181.338 222.753 181.112 222.753C180.838 222.753 180.623 222.689 180.466 222.562C180.319 222.425 180.187 222.219 180.07 221.945L179.115 219.728L179.908 220.242H173.711L174.504 219.728L173.564 221.945C173.437 222.229 173.305 222.435 173.168 222.562C173.031 222.689 172.835 222.753 172.581 222.753ZM176.795 214.324L174.739 219.214L174.357 218.744H179.262L178.895 219.214L176.824 214.324H176.795ZM186.476 222.782C185.722 222.782 185.066 222.63 184.508 222.327C183.95 222.014 183.52 221.573 183.216 221.005C182.913 220.437 182.761 219.772 182.761 219.008C182.761 218.431 182.844 217.917 183.01 217.466C183.187 217.006 183.436 216.619 183.759 216.306C184.082 215.983 184.474 215.738 184.934 215.572C185.394 215.396 185.908 215.308 186.476 215.308C186.799 215.308 187.147 215.352 187.519 215.44C187.9 215.528 188.258 215.675 188.591 215.88C188.747 215.978 188.85 216.096 188.899 216.233C188.948 216.37 188.958 216.512 188.928 216.659C188.899 216.796 188.835 216.918 188.738 217.026C188.649 217.124 188.537 217.187 188.4 217.217C188.263 217.236 188.111 217.202 187.945 217.114C187.729 216.987 187.509 216.894 187.284 216.835C187.059 216.766 186.843 216.732 186.638 216.732C186.315 216.732 186.031 216.786 185.786 216.894C185.541 216.991 185.331 217.138 185.154 217.334C184.988 217.52 184.861 217.755 184.773 218.039C184.685 218.323 184.64 218.651 184.64 219.023C184.64 219.747 184.812 220.32 185.154 220.741C185.507 221.152 186.001 221.358 186.638 221.358C186.843 221.358 187.054 221.328 187.269 221.27C187.494 221.211 187.719 221.118 187.945 220.991C188.111 220.902 188.258 220.873 188.385 220.902C188.522 220.932 188.635 221 188.723 221.108C188.811 221.206 188.865 221.328 188.884 221.475C188.904 221.612 188.884 221.749 188.826 221.886C188.777 222.023 188.679 222.136 188.532 222.224C188.209 222.42 187.866 222.562 187.504 222.65C187.142 222.738 186.799 222.782 186.476 222.782ZM193.259 222.782C192.505 222.782 191.849 222.63 191.291 222.327C190.733 222.014 190.303 221.573 189.999 221.005C189.696 220.437 189.544 219.772 189.544 219.008C189.544 218.431 189.627 217.917 189.794 217.466C189.97 217.006 190.219 216.619 190.542 216.306C190.866 215.983 191.257 215.738 191.717 215.572C192.177 215.396 192.691 215.308 193.259 215.308C193.582 215.308 193.93 215.352 194.302 215.44C194.684 215.528 195.041 215.675 195.374 215.88C195.53 215.978 195.633 216.096 195.682 216.233C195.731 216.37 195.741 216.512 195.712 216.659C195.682 216.796 195.619 216.918 195.521 217.026C195.432 217.124 195.32 217.187 195.183 217.217C195.046 217.236 194.894 217.202 194.728 217.114C194.512 216.987 194.292 216.894 194.067 216.835C193.842 216.766 193.626 216.732 193.421 216.732C193.098 216.732 192.814 216.786 192.569 216.894C192.324 216.991 192.114 217.138 191.938 217.334C191.771 217.52 191.644 217.755 191.556 218.039C191.468 218.323 191.424 218.651 191.424 219.023C191.424 219.747 191.595 220.32 191.938 220.741C192.29 221.152 192.784 221.358 193.421 221.358C193.626 221.358 193.837 221.328 194.052 221.27C194.277 221.211 194.502 221.118 194.728 220.991C194.894 220.902 195.041 220.873 195.168 220.902C195.305 220.932 195.418 221 195.506 221.108C195.594 221.206 195.648 221.328 195.667 221.475C195.687 221.612 195.667 221.749 195.609 221.886C195.56 222.023 195.462 222.136 195.315 222.224C194.992 222.42 194.649 222.562 194.287 222.65C193.925 222.738 193.582 222.782 193.259 222.782ZM200.263 222.782C199.45 222.782 198.75 222.63 198.163 222.327C197.575 222.023 197.12 221.593 196.797 221.035C196.484 220.477 196.327 219.816 196.327 219.052C196.327 218.308 196.479 217.657 196.782 217.099C197.096 216.541 197.521 216.105 198.06 215.792C198.608 215.469 199.23 215.308 199.925 215.308C200.434 215.308 200.889 215.391 201.29 215.557C201.702 215.724 202.049 215.963 202.333 216.277C202.627 216.59 202.847 216.972 202.994 217.422C203.151 217.863 203.229 218.362 203.229 218.92C203.229 219.096 203.165 219.233 203.038 219.331C202.92 219.419 202.749 219.463 202.524 219.463H197.81V218.406H201.937L201.702 218.626C201.702 218.176 201.633 217.799 201.496 217.496C201.369 217.192 201.178 216.962 200.923 216.805C200.679 216.639 200.37 216.556 199.998 216.556C199.587 216.556 199.235 216.654 198.941 216.849C198.657 217.035 198.437 217.305 198.28 217.657C198.133 218 198.06 218.411 198.06 218.891V218.993C198.06 219.796 198.246 220.398 198.618 220.8C199 221.191 199.558 221.387 200.292 221.387C200.546 221.387 200.83 221.358 201.144 221.299C201.467 221.23 201.77 221.118 202.054 220.961C202.26 220.844 202.441 220.795 202.597 220.814C202.754 220.824 202.876 220.878 202.965 220.976C203.062 221.074 203.121 221.196 203.141 221.343C203.16 221.48 203.131 221.622 203.053 221.769C202.984 221.916 202.862 222.043 202.685 222.151C202.343 222.366 201.946 222.528 201.496 222.635C201.055 222.733 200.644 222.782 200.263 222.782ZM207.311 222.782C206.89 222.782 206.445 222.738 205.975 222.65C205.505 222.562 205.084 222.41 204.712 222.195C204.555 222.097 204.443 221.984 204.374 221.857C204.315 221.72 204.291 221.588 204.301 221.46C204.32 221.323 204.369 221.206 204.448 221.108C204.536 221.01 204.643 220.947 204.771 220.917C204.908 220.888 205.055 220.912 205.211 220.991C205.603 221.177 205.97 221.309 206.313 221.387C206.655 221.456 206.993 221.49 207.326 221.49C207.796 221.49 208.143 221.412 208.368 221.255C208.603 221.088 208.721 220.873 208.721 220.609C208.721 220.384 208.642 220.212 208.486 220.095C208.339 219.968 208.114 219.875 207.81 219.816L206.342 219.537C205.735 219.419 205.27 219.199 204.947 218.876C204.634 218.543 204.477 218.117 204.477 217.598C204.477 217.128 204.604 216.722 204.859 216.38C205.123 216.037 205.485 215.773 205.945 215.587C206.406 215.401 206.934 215.308 207.531 215.308C207.962 215.308 208.363 215.357 208.735 215.454C209.117 215.543 209.484 215.684 209.837 215.88C209.984 215.959 210.082 216.061 210.131 216.189C210.189 216.316 210.204 216.448 210.175 216.585C210.145 216.712 210.086 216.83 209.998 216.938C209.91 217.035 209.798 217.099 209.661 217.128C209.533 217.148 209.387 217.119 209.22 217.04C208.917 216.884 208.623 216.771 208.339 216.703C208.065 216.634 207.801 216.6 207.546 216.6C207.066 216.6 206.709 216.683 206.474 216.849C206.249 217.016 206.136 217.236 206.136 217.51C206.136 217.716 206.205 217.887 206.342 218.024C206.479 218.161 206.689 218.254 206.973 218.303L208.442 218.582C209.078 218.7 209.558 218.915 209.881 219.228C210.214 219.542 210.38 219.963 210.38 220.491C210.38 221.206 210.101 221.769 209.543 222.18C208.985 222.581 208.241 222.782 207.311 222.782ZM215.127 222.782C214.383 222.782 213.737 222.63 213.189 222.327C212.641 222.023 212.215 221.593 211.912 221.035C211.608 220.467 211.456 219.801 211.456 219.037C211.456 218.46 211.54 217.946 211.706 217.496C211.882 217.035 212.132 216.644 212.455 216.321C212.778 215.988 213.165 215.738 213.615 215.572C214.065 215.396 214.569 215.308 215.127 215.308C215.872 215.308 216.518 215.459 217.066 215.763C217.614 216.066 218.04 216.497 218.343 217.055C218.647 217.613 218.799 218.274 218.799 219.037C218.799 219.615 218.711 220.134 218.534 220.594C218.368 221.054 218.123 221.451 217.8 221.784C217.477 222.107 217.09 222.356 216.64 222.532C216.19 222.699 215.686 222.782 215.127 222.782ZM215.127 221.387C215.49 221.387 215.808 221.299 216.082 221.123C216.356 220.947 216.567 220.687 216.713 220.344C216.87 219.992 216.948 219.556 216.948 219.037C216.948 218.254 216.782 217.672 216.449 217.29C216.116 216.898 215.676 216.703 215.127 216.703C214.765 216.703 214.447 216.791 214.173 216.967C213.899 217.133 213.683 217.393 213.527 217.745C213.38 218.088 213.307 218.519 213.307 219.037C213.307 219.811 213.473 220.398 213.806 220.8C214.139 221.191 214.579 221.387 215.127 221.387Z" fill="white"/>
<path d="M233.4 221.443H226.874C226.574 221.443 226.33 221.198 226.33 220.899V214.372C226.33 214.073 226.574 213.828 226.874 213.828H229.593C229.892 213.828 230.137 213.584 230.137 213.285C230.137 212.985 229.892 212.741 229.593 212.741H226.33C225.726 212.741 225.242 213.23 225.242 213.828V221.443C225.242 222.041 225.731 222.531 226.33 222.531H233.944C234.542 222.531 235.032 222.041 235.032 221.443V218.18C235.032 217.88 234.787 217.636 234.488 217.636C234.189 217.636 233.944 217.88 233.944 218.18V220.899C233.944 221.198 233.699 221.443 233.4 221.443ZM231.225 213.285C231.225 213.584 231.469 213.828 231.768 213.828H233.177L228.211 218.794C227.999 219.006 227.999 219.349 228.211 219.561C228.424 219.773 228.766 219.773 228.978 219.561L233.944 214.595V216.004C233.944 216.303 234.189 216.548 234.488 216.548C234.787 216.548 235.032 216.303 235.032 216.004V213.285C235.032 212.985 234.787 212.741 234.488 212.741H231.768C231.469 212.741 231.225 212.985 231.225 213.285Z" fill="white"/>
<path d="M166.414 193.212V181.565H167.768V193.212H166.414ZM172.325 193.212H170.971V181.565H177.456V182.76H172.325V187.03H177.145V188.217H172.325V193.212ZM178.46 189.42V188.241H182.412V189.42H178.46ZM191.502 193.212H183.869V192.105L186.985 188.942C187.564 188.358 188.05 187.837 188.443 187.381C188.841 186.924 189.144 186.475 189.351 186.034C189.558 185.588 189.661 185.099 189.661 184.568C189.661 183.91 189.465 183.408 189.072 183.062C188.684 182.712 188.172 182.537 187.534 182.537C186.977 182.537 186.483 182.632 186.052 182.823C185.622 183.015 185.181 183.286 184.73 183.636L184.021 182.744C184.329 182.484 184.664 182.252 185.025 182.051C185.391 181.849 185.782 181.689 186.196 181.573C186.615 181.456 187.062 181.397 187.534 181.397C188.251 181.397 188.87 181.522 189.391 181.772C189.911 182.021 190.312 182.377 190.594 182.839C190.88 183.301 191.024 183.851 191.024 184.489C191.024 185.105 190.902 185.678 190.657 186.209C190.413 186.735 190.07 187.258 189.63 187.779C189.189 188.294 188.674 188.841 188.084 189.42L185.551 191.946V192.001H191.502V193.212ZM200.903 187.373C200.903 188.318 200.831 189.163 200.688 189.906C200.544 190.65 200.319 191.279 200.011 191.794C199.703 192.309 199.304 192.703 198.816 192.973C198.327 193.239 197.74 193.372 197.055 193.372C196.189 193.372 195.472 193.135 194.904 192.663C194.341 192.19 193.919 191.507 193.637 190.615C193.361 189.718 193.223 188.637 193.223 187.373C193.223 186.13 193.348 185.062 193.597 184.17C193.852 183.272 194.261 182.584 194.824 182.106C195.387 181.623 196.131 181.381 197.055 181.381C197.931 181.381 198.654 181.62 199.222 182.098C199.79 182.571 200.212 183.256 200.489 184.154C200.765 185.046 200.903 186.119 200.903 187.373ZM194.553 187.373C194.553 188.456 194.636 189.359 194.8 190.081C194.965 190.804 195.23 191.345 195.597 191.707C195.969 192.063 196.455 192.24 197.055 192.24C197.655 192.24 198.138 192.063 198.505 191.707C198.877 191.351 199.145 190.812 199.31 190.089C199.479 189.367 199.564 188.461 199.564 187.373C199.564 186.305 199.482 185.413 199.317 184.696C199.153 183.973 198.887 183.432 198.521 183.07C198.154 182.704 197.666 182.521 197.055 182.521C196.444 182.521 195.955 182.704 195.589 183.07C195.222 183.432 194.957 183.973 194.792 184.696C194.633 185.413 194.553 186.305 194.553 187.373ZM210.176 193.212H202.544V192.105L205.659 188.942C206.238 188.358 206.724 187.837 207.117 187.381C207.516 186.924 207.818 186.475 208.025 186.034C208.233 185.588 208.336 185.099 208.336 184.568C208.336 183.91 208.14 183.408 207.747 183.062C207.359 182.712 206.846 182.537 206.209 182.537C205.651 182.537 205.157 182.632 204.727 182.823C204.297 183.015 203.856 183.286 203.405 183.636L202.695 182.744C203.004 182.484 203.338 182.252 203.699 182.051C204.066 181.849 204.456 181.689 204.87 181.573C205.29 181.456 205.736 181.397 206.209 181.397C206.926 181.397 207.545 181.522 208.065 181.772C208.586 182.021 208.987 182.377 209.268 182.839C209.555 183.301 209.698 183.851 209.698 184.489C209.698 185.105 209.576 185.678 209.332 186.209C209.088 186.735 208.745 187.258 208.304 187.779C207.863 188.294 207.348 188.841 206.759 189.42L204.225 191.946V192.001H210.176V193.212ZM219.084 184.281C219.084 184.802 218.983 185.253 218.781 185.636C218.579 186.018 218.298 186.332 217.936 186.576C217.575 186.815 217.15 186.982 216.662 187.078V187.142C217.586 187.258 218.279 187.556 218.741 188.034C219.208 188.512 219.442 189.139 219.442 189.914C219.442 190.589 219.283 191.186 218.964 191.707C218.651 192.227 218.167 192.636 217.514 192.934C216.866 193.226 216.035 193.372 215.02 193.372C214.404 193.372 213.833 193.321 213.308 193.22C212.787 193.125 212.288 192.963 211.81 192.734V191.492C212.293 191.731 212.819 191.919 213.387 192.057C213.955 192.19 214.505 192.256 215.036 192.256C216.099 192.256 216.866 192.047 217.339 191.627C217.812 191.202 218.048 190.623 218.048 189.89C218.048 189.386 217.915 188.979 217.65 188.671C217.389 188.358 217.012 188.129 216.518 187.986C216.03 187.837 215.44 187.763 214.75 187.763H213.586V186.632H214.758C215.39 186.632 215.926 186.539 216.367 186.353C216.808 186.167 217.142 185.907 217.371 185.572C217.604 185.232 217.721 184.831 217.721 184.369C217.721 183.779 217.525 183.325 217.132 183.007C216.739 182.683 216.205 182.521 215.53 182.521C215.116 182.521 214.739 182.563 214.399 182.648C214.059 182.733 213.74 182.85 213.443 182.999C213.146 183.147 212.848 183.32 212.551 183.517L211.881 182.608C212.306 182.279 212.824 181.995 213.435 181.756C214.046 181.517 214.739 181.397 215.514 181.397C216.704 181.397 217.596 181.668 218.191 182.21C218.786 182.752 219.084 183.442 219.084 184.281ZM221.067 189.42V188.241H225.019V189.42H221.067ZM234.691 190.512H232.946V193.212H231.655V190.512H226.023V189.396L231.568 181.501H232.946V189.317H234.691V190.512ZM231.655 189.317V185.508C231.655 185.216 231.658 184.953 231.663 184.72C231.669 184.481 231.677 184.26 231.687 184.058C231.698 183.851 231.706 183.655 231.711 183.469C231.722 183.283 231.73 183.1 231.735 182.919H231.671C231.571 183.132 231.454 183.357 231.321 183.596C231.193 183.83 231.063 184.04 230.93 184.226L227.337 189.317H231.655ZM239.495 186.09C240.286 186.09 240.974 186.225 241.558 186.496C242.143 186.762 242.594 187.15 242.913 187.659C243.237 188.169 243.399 188.788 243.399 189.516C243.399 190.312 243.226 191 242.881 191.579C242.536 192.153 242.039 192.596 241.391 192.91C240.743 193.218 239.968 193.372 239.065 193.372C238.459 193.372 237.896 193.319 237.376 193.212C236.855 193.106 236.417 192.947 236.061 192.734V191.476C236.449 191.709 236.919 191.895 237.471 192.033C238.024 192.171 238.56 192.24 239.081 192.24C239.67 192.24 240.185 192.147 240.626 191.962C241.072 191.77 241.418 191.484 241.662 191.101C241.912 190.713 242.036 190.227 242.036 189.643C242.036 188.868 241.797 188.27 241.319 187.851C240.847 187.426 240.098 187.213 239.073 187.213C238.743 187.213 238.382 187.24 237.989 187.293C237.596 187.346 237.272 187.404 237.017 187.468L236.348 187.03L236.794 181.565H242.586V182.776H237.925L237.631 186.289C237.833 186.247 238.093 186.204 238.411 186.162C238.73 186.114 239.091 186.09 239.495 186.09ZM245.271 188.233C245.271 187.532 245.319 186.847 245.414 186.178C245.515 185.508 245.683 184.887 245.916 184.313C246.15 183.734 246.469 183.227 246.872 182.792C247.276 182.356 247.778 182.016 248.378 181.772C248.984 181.522 249.709 181.397 250.553 181.397C250.792 181.397 251.05 181.411 251.326 181.437C251.602 181.458 251.831 181.496 252.011 181.549V182.688C251.815 182.619 251.589 182.569 251.334 182.537C251.084 182.505 250.832 182.489 250.577 182.489C249.589 182.489 248.811 182.704 248.243 183.134C247.68 183.564 247.273 184.149 247.024 184.887C246.774 185.62 246.631 186.446 246.594 187.365H246.681C246.846 187.099 247.056 186.86 247.311 186.648C247.566 186.43 247.874 186.257 248.235 186.13C248.601 186.002 249.026 185.939 249.51 185.939C250.189 185.939 250.782 186.077 251.286 186.353C251.796 186.629 252.189 187.03 252.465 187.556C252.747 188.082 252.888 188.719 252.888 189.468C252.888 190.27 252.739 190.963 252.441 191.547C252.144 192.132 251.719 192.583 251.167 192.902C250.62 193.215 249.966 193.372 249.207 193.372C248.638 193.372 248.115 193.263 247.637 193.045C247.159 192.827 246.742 192.503 246.386 192.073C246.036 191.643 245.762 191.109 245.566 190.472C245.369 189.829 245.271 189.083 245.271 188.233ZM249.191 192.256C249.913 192.256 250.492 192.025 250.928 191.563C251.363 191.101 251.581 190.403 251.581 189.468C251.581 188.703 251.387 188.098 250.999 187.651C250.612 187.205 250.027 186.982 249.247 186.982C248.715 186.982 248.253 187.094 247.86 187.317C247.467 187.535 247.162 187.811 246.944 188.145C246.726 188.48 246.617 188.82 246.617 189.165C246.617 189.516 246.668 189.872 246.769 190.233C246.875 190.594 247.034 190.929 247.247 191.237C247.459 191.545 247.728 191.792 248.052 191.978C248.376 192.163 248.755 192.256 249.191 192.256ZM258.17 186.09C258.961 186.09 259.649 186.225 260.233 186.496C260.817 186.762 261.269 187.15 261.587 187.659C261.911 188.169 262.073 188.788 262.073 189.516C262.073 190.312 261.901 191 261.556 191.579C261.21 192.153 260.714 192.596 260.066 192.91C259.418 193.218 258.642 193.372 257.739 193.372C257.134 193.372 256.571 193.319 256.05 193.212C255.53 193.106 255.092 192.947 254.736 192.734V191.476C255.124 191.709 255.594 191.895 256.146 192.033C256.698 192.171 257.235 192.24 257.755 192.24C258.345 192.24 258.86 192.147 259.301 191.962C259.747 191.77 260.092 191.484 260.337 191.101C260.586 190.713 260.711 190.227 260.711 189.643C260.711 188.868 260.472 188.27 259.994 187.851C259.521 187.426 258.772 187.213 257.747 187.213C257.418 187.213 257.057 187.24 256.664 187.293C256.271 187.346 255.947 187.404 255.692 187.468L255.023 187.03L255.469 181.565H261.261V182.776H256.6L256.305 186.289C256.507 186.247 256.767 186.204 257.086 186.162C257.405 186.114 257.766 186.09 258.17 186.09ZM263.946 188.233C263.946 187.532 263.993 186.847 264.089 186.178C264.19 185.508 264.357 184.887 264.591 184.313C264.825 183.734 265.143 183.227 265.547 182.792C265.951 182.356 266.453 182.016 267.053 181.772C267.658 181.522 268.383 181.397 269.228 181.397C269.467 181.397 269.724 181.411 270.001 181.437C270.277 181.458 270.505 181.496 270.686 181.549V182.688C270.489 182.619 270.263 182.569 270.009 182.537C269.759 182.505 269.507 182.489 269.252 182.489C268.264 182.489 267.486 182.704 266.917 183.134C266.354 183.564 265.948 184.149 265.698 184.887C265.449 185.62 265.305 186.446 265.268 187.365H265.356C265.52 187.099 265.73 186.86 265.985 186.648C266.24 186.43 266.548 186.257 266.909 186.13C267.276 186.002 267.701 185.939 268.184 185.939C268.864 185.939 269.456 186.077 269.961 186.353C270.471 186.629 270.864 187.03 271.14 187.556C271.421 188.082 271.562 188.719 271.562 189.468C271.562 190.27 271.413 190.963 271.116 191.547C270.819 192.132 270.394 192.583 269.841 192.902C269.294 193.215 268.641 193.372 267.881 193.372C267.313 193.372 266.79 193.263 266.312 193.045C265.834 192.827 265.417 192.503 265.061 192.073C264.711 191.643 264.437 191.109 264.24 190.472C264.044 189.829 263.946 189.083 263.946 188.233ZM267.865 192.256C268.588 192.256 269.167 192.025 269.602 191.563C270.038 191.101 270.256 190.403 270.256 189.468C270.256 188.703 270.062 188.098 269.674 187.651C269.286 187.205 268.702 186.982 267.921 186.982C267.39 186.982 266.928 187.094 266.535 187.317C266.142 187.535 265.837 187.811 265.619 188.145C265.401 188.48 265.292 188.82 265.292 189.165C265.292 189.516 265.343 189.872 265.443 190.233C265.55 190.594 265.709 190.929 265.921 191.237C266.134 191.545 266.402 191.792 266.726 191.978C267.05 192.163 267.43 192.256 267.865 192.256ZM280.366 184.281C280.366 184.802 280.265 185.253 280.063 185.636C279.861 186.018 279.58 186.332 279.218 186.576C278.857 186.815 278.432 186.982 277.944 187.078V187.142C278.868 187.258 279.561 187.556 280.023 188.034C280.49 188.512 280.724 189.139 280.724 189.914C280.724 190.589 280.565 191.186 280.246 191.707C279.933 192.227 279.449 192.636 278.796 192.934C278.148 193.226 277.317 193.372 276.302 193.372C275.686 193.372 275.115 193.321 274.59 193.22C274.069 193.125 273.57 192.963 273.092 192.734V191.492C273.575 191.731 274.101 191.919 274.669 192.057C275.238 192.19 275.787 192.256 276.318 192.256C277.381 192.256 278.148 192.047 278.621 191.627C279.094 191.202 279.33 190.623 279.33 189.89C279.33 189.386 279.197 188.979 278.932 188.671C278.671 188.358 278.294 188.129 277.8 187.986C277.312 187.837 276.722 187.763 276.032 187.763H274.868V186.632H276.04C276.672 186.632 277.208 186.539 277.649 186.353C278.09 186.167 278.424 185.907 278.653 185.572C278.886 185.232 279.003 184.831 279.003 184.369C279.003 183.779 278.807 183.325 278.414 183.007C278.021 182.683 277.487 182.521 276.812 182.521C276.398 182.521 276.021 182.563 275.681 182.648C275.341 182.733 275.022 182.85 274.725 182.999C274.428 183.147 274.13 183.32 273.833 183.517L273.163 182.608C273.588 182.279 274.106 181.995 274.717 181.756C275.328 181.517 276.021 181.397 276.796 181.397C277.986 181.397 278.878 181.668 279.473 182.21C280.068 182.752 280.366 183.442 280.366 184.281ZM290.197 187.373C290.197 188.318 290.125 189.163 289.982 189.906C289.838 190.65 289.613 191.279 289.305 191.794C288.997 192.309 288.598 192.703 288.11 192.973C287.621 193.239 287.034 193.372 286.349 193.372C285.483 193.372 284.766 193.135 284.198 192.663C283.635 192.19 283.213 191.507 282.931 190.615C282.655 189.718 282.517 188.637 282.517 187.373C282.517 186.13 282.642 185.062 282.891 184.17C283.146 183.272 283.555 182.584 284.118 182.106C284.681 181.623 285.425 181.381 286.349 181.381C287.225 181.381 287.948 181.62 288.516 182.098C289.084 182.571 289.506 183.256 289.783 184.154C290.059 185.046 290.197 186.119 290.197 187.373ZM283.847 187.373C283.847 188.456 283.93 189.359 284.094 190.081C284.259 190.804 284.524 191.345 284.891 191.707C285.263 192.063 285.749 192.24 286.349 192.24C286.949 192.24 287.432 192.063 287.799 191.707C288.171 191.351 288.439 190.812 288.603 190.089C288.773 189.367 288.858 188.461 288.858 187.373C288.858 186.305 288.776 185.413 288.611 184.696C288.447 183.973 288.181 183.432 287.815 183.07C287.448 182.704 286.96 182.521 286.349 182.521C285.738 182.521 285.249 182.704 284.883 183.07C284.516 183.432 284.251 183.973 284.086 184.696C283.927 185.413 283.847 186.305 283.847 187.373ZM295.686 181.397C296.361 181.397 296.958 181.504 297.479 181.716C297.999 181.928 298.406 182.242 298.698 182.656C298.995 183.065 299.144 183.57 299.144 184.17C299.144 184.643 299.04 185.057 298.833 185.413C298.631 185.763 298.358 186.071 298.013 186.337C297.667 186.597 297.285 186.831 296.865 187.038C297.365 187.266 297.813 187.524 298.212 187.811C298.615 188.098 298.934 188.435 299.168 188.823C299.401 189.21 299.518 189.67 299.518 190.201C299.518 190.854 299.359 191.42 299.04 191.898C298.727 192.371 298.286 192.734 297.718 192.989C297.149 193.244 296.483 193.372 295.718 193.372C294.895 193.372 294.194 193.25 293.615 193.005C293.041 192.756 292.603 192.4 292.3 191.938C292.003 191.47 291.854 190.91 291.854 190.257C291.854 189.72 291.968 189.255 292.197 188.862C292.425 188.464 292.728 188.121 293.105 187.835C293.482 187.548 293.894 187.306 294.34 187.11C293.952 186.897 293.596 186.656 293.272 186.385C292.953 186.114 292.699 185.798 292.507 185.437C292.321 185.07 292.228 184.645 292.228 184.162C292.228 183.572 292.377 183.073 292.675 182.664C292.977 182.25 293.389 181.936 293.91 181.724C294.435 181.506 295.028 181.397 295.686 181.397ZM293.153 190.265C293.153 190.859 293.362 191.351 293.782 191.739C294.202 192.121 294.836 192.312 295.686 192.312C296.493 192.312 297.118 192.121 297.558 191.739C297.999 191.351 298.22 190.844 298.22 190.217C298.22 189.829 298.119 189.489 297.917 189.197C297.715 188.9 297.428 188.634 297.056 188.4C296.685 188.167 296.246 187.954 295.742 187.763L295.455 187.659C294.966 187.861 294.55 188.087 294.204 188.337C293.864 188.581 293.604 188.86 293.424 189.173C293.243 189.487 293.153 189.85 293.153 190.265ZM295.67 182.481C295.043 182.481 294.531 182.632 294.133 182.935C293.734 183.232 293.535 183.663 293.535 184.226C293.535 184.629 293.631 184.972 293.822 185.253C294.018 185.53 294.284 185.769 294.619 185.97C294.953 186.167 295.328 186.35 295.742 186.52C296.146 186.35 296.504 186.164 296.817 185.962C297.131 185.755 297.378 185.511 297.558 185.229C297.739 184.948 297.829 184.611 297.829 184.218C297.829 183.655 297.63 183.224 297.232 182.927C296.839 182.63 296.318 182.481 295.67 182.481ZM301.024 189.42V188.241H304.976V189.42H301.024ZM312.202 187.11H316.273V192.758C315.662 192.965 315.033 193.119 314.385 193.22C313.742 193.321 313.022 193.372 312.226 193.372C311.015 193.372 309.992 193.13 309.158 192.647C308.33 192.163 307.7 191.476 307.27 190.583C306.84 189.686 306.625 188.621 306.625 187.389C306.625 186.183 306.861 185.131 307.334 184.234C307.812 183.336 308.5 182.64 309.397 182.146C310.3 181.647 311.384 181.397 312.648 181.397C313.296 181.397 313.909 181.458 314.488 181.581C315.072 181.697 315.614 181.865 316.114 182.083L315.596 183.262C315.165 183.076 314.69 182.916 314.17 182.784C313.654 182.651 313.121 182.584 312.568 182.584C311.617 182.584 310.802 182.781 310.122 183.174C309.448 183.567 308.93 184.122 308.569 184.839C308.213 185.556 308.035 186.406 308.035 187.389C308.035 188.361 308.192 189.208 308.505 189.93C308.818 190.647 309.307 191.205 309.971 191.603C310.635 192.001 311.49 192.201 312.536 192.201C313.062 192.201 313.514 192.171 313.891 192.113C314.268 192.049 314.61 191.975 314.918 191.89V188.321H312.202V187.11ZM324.073 182.592C323.43 182.592 322.851 182.704 322.336 182.927C321.826 183.145 321.39 183.463 321.029 183.883C320.673 184.297 320.4 184.799 320.209 185.389C320.017 185.978 319.922 186.642 319.922 187.381C319.922 188.358 320.073 189.208 320.376 189.93C320.684 190.647 321.141 191.202 321.746 191.595C322.357 191.988 323.119 192.185 324.033 192.185C324.553 192.185 325.042 192.142 325.499 192.057C325.961 191.967 326.41 191.855 326.845 191.723V192.902C326.42 193.061 325.974 193.178 325.507 193.252C325.039 193.332 324.484 193.372 323.841 193.372C322.657 193.372 321.666 193.127 320.87 192.639C320.078 192.145 319.484 191.449 319.085 190.551C318.692 189.654 318.496 188.594 318.496 187.373C318.496 186.491 318.618 185.686 318.862 184.959C319.112 184.226 319.473 183.594 319.946 183.062C320.424 182.531 321.008 182.122 321.698 181.836C322.394 181.543 323.191 181.397 324.088 181.397C324.678 181.397 325.246 181.456 325.793 181.573C326.34 181.689 326.834 181.857 327.275 182.075L326.733 183.222C326.362 183.052 325.953 182.906 325.507 182.784C325.066 182.656 324.588 182.592 324.073 182.592ZM336.676 193.212L335.242 189.516H330.574L329.147 193.212H327.777L332.334 181.517H333.553L338.078 193.212H336.676ZM334.836 188.313L333.474 184.64C333.442 184.544 333.389 184.388 333.314 184.17C333.245 183.952 333.173 183.726 333.099 183.493C333.025 183.259 332.964 183.07 332.916 182.927C332.863 183.145 332.804 183.363 332.741 183.58C332.682 183.793 332.624 183.992 332.565 184.178C332.507 184.358 332.456 184.512 332.414 184.64L331.028 188.313H334.836ZM339.696 181.565H342.994C344.449 181.565 345.544 181.782 346.277 182.218C347.009 182.653 347.376 183.394 347.376 184.441C347.376 184.892 347.288 185.299 347.113 185.66C346.943 186.016 346.693 186.31 346.364 186.544C346.035 186.778 345.629 186.94 345.145 187.03V187.11C345.655 187.189 346.107 187.335 346.5 187.548C346.893 187.76 347.201 188.058 347.424 188.44C347.647 188.823 347.758 189.309 347.758 189.898C347.758 190.615 347.591 191.221 347.256 191.715C346.927 192.209 346.46 192.583 345.854 192.838C345.249 193.088 344.532 193.212 343.703 193.212H339.696V181.565ZM341.05 186.56H343.281C344.295 186.56 344.996 186.393 345.384 186.058C345.777 185.723 345.974 185.235 345.974 184.592C345.974 183.928 345.74 183.45 345.273 183.158C344.811 182.866 344.072 182.72 343.058 182.72H341.05V186.56ZM341.05 187.699V192.057H343.472C344.508 192.057 345.241 191.855 345.671 191.452C346.101 191.043 346.316 190.493 346.316 189.803C346.316 189.362 346.218 188.985 346.022 188.671C345.83 188.358 345.517 188.119 345.081 187.954C344.651 187.784 344.075 187.699 343.353 187.699H341.05ZM357.55 193.212L356.116 189.516H351.447L350.021 193.212H348.651L353.208 181.517H354.427L358.952 193.212H357.55ZM355.709 188.313L354.347 184.64C354.315 184.544 354.262 184.388 354.188 184.17C354.119 183.952 354.047 183.726 353.973 183.493C353.898 183.259 353.837 183.07 353.789 182.927C353.736 183.145 353.678 183.363 353.614 183.58C353.556 183.793 353.497 183.992 353.439 184.178C353.38 184.358 353.33 184.512 353.287 184.64L351.901 188.313H355.709ZM359.629 189.42V188.241H363.581V189.42H359.629ZM370.95 193.212L367.038 182.903H366.975C366.996 183.121 367.015 183.386 367.031 183.7C367.046 184.013 367.06 184.356 367.07 184.728C367.081 185.094 367.086 185.468 367.086 185.851V193.212H365.827V181.565H367.835L371.524 191.253H371.58L375.324 181.565H377.316V193.212H375.977V185.755C375.977 185.41 375.983 185.065 375.993 184.72C376.004 184.369 376.017 184.04 376.033 183.732C376.049 183.418 376.065 183.147 376.081 182.919H376.017L372.058 193.212H370.95ZM389.33 193.212H387.976V187.723H381.857V193.212H380.503V181.565H381.857V186.528H387.976V181.565H389.33V193.212ZM393.887 193.212H392.533V181.565H399.018V182.76H393.887V187.03H398.707V188.217H393.887V193.212ZM405.941 187.11H410.012V192.758C409.402 192.965 408.772 193.119 408.124 193.22C407.482 193.321 406.762 193.372 405.965 193.372C404.754 193.372 403.732 193.13 402.898 192.647C402.069 192.163 401.44 191.476 401.01 190.583C400.579 189.686 400.364 188.621 400.364 187.389C400.364 186.183 400.601 185.131 401.073 184.234C401.551 183.336 402.239 182.64 403.137 182.146C404.04 181.647 405.123 181.397 406.387 181.397C407.035 181.397 407.649 181.458 408.228 181.581C408.812 181.697 409.354 181.865 409.853 182.083L409.335 183.262C408.905 183.076 408.43 182.916 407.909 182.784C407.394 182.651 406.86 182.584 406.308 182.584C405.357 182.584 404.542 182.781 403.862 183.174C403.187 183.567 402.669 184.122 402.308 184.839C401.952 185.556 401.775 186.406 401.775 187.389C401.775 188.361 401.931 189.208 402.245 189.93C402.558 190.647 403.047 191.205 403.711 191.603C404.374 192.001 405.23 192.201 406.276 192.201C406.802 192.201 407.253 192.171 407.63 192.113C408.007 192.049 408.35 191.975 408.658 191.89V188.321H405.941V187.11ZM417.812 182.592C417.169 182.592 416.59 182.704 416.075 182.927C415.565 183.145 415.13 183.463 414.769 183.883C414.413 184.297 414.139 184.799 413.948 185.389C413.757 185.978 413.661 186.642 413.661 187.381C413.661 188.358 413.813 189.208 414.115 189.93C414.423 190.647 414.88 191.202 415.486 191.595C416.097 191.988 416.859 192.185 417.772 192.185C418.293 192.185 418.781 192.142 419.238 192.057C419.7 191.967 420.149 191.855 420.585 191.723V192.902C420.16 193.061 419.714 193.178 419.246 193.252C418.779 193.332 418.224 193.372 417.581 193.372C416.397 193.372 415.406 193.127 414.609 192.639C413.818 192.145 413.223 191.449 412.825 190.551C412.432 189.654 412.235 188.594 412.235 187.373C412.235 186.491 412.357 185.686 412.602 184.959C412.851 184.226 413.212 183.594 413.685 183.062C414.163 182.531 414.747 182.122 415.438 181.836C416.134 181.543 416.93 181.397 417.828 181.397C418.418 181.397 418.986 181.456 419.533 181.573C420.08 181.689 420.574 181.857 421.015 182.075L420.473 183.222C420.101 183.052 419.692 182.906 419.246 182.784C418.805 182.656 418.327 182.592 417.812 182.592Z" fill="#101E37"/>
</g>
</g>
<rect x="1" y="1" width="726" height="246" rx="7" stroke="#E6EBF0" stroke-width="2"/>
<defs>
<clipPath id="clip0_13541_5822">
<rect width="728" height="248" rx="8" fill="white"/>
</clipPath>
<clipPath id="clip1_13541_5822">
<rect width="1114.41" height="1935.76" fill="white" transform="translate(40 -1010)"/>
</clipPath>
</defs>
</svg>
