<svg width="251" height="168" viewBox="0 0 251 168" fill="none" xmlns="http://www.w3.org/2000/svg">
<rect y="0.199951" width="251" height="167" rx="8" fill="#F3F6F9"/>
<path d="M65.8438 89.7H63.4219V80.2937H60.3203V78.2781H68.9453V80.2937H65.8438V89.7ZM74.1172 80.8015C74.9245 80.8015 75.6198 80.9578 76.2031 81.2703C76.7865 81.5776 77.237 82.0255 77.5547 82.614C77.8724 83.2026 78.0312 83.9213 78.0312 84.7703V85.9265H72.3984C72.4245 86.5984 72.625 87.127 73 87.5125C73.3802 87.8927 73.9062 88.0828 74.5781 88.0828C75.1354 88.0828 75.6458 88.0255 76.1094 87.9109C76.5729 87.7963 77.0495 87.6244 77.5391 87.3953V89.239C77.1068 89.4526 76.6536 89.6088 76.1797 89.7078C75.7109 89.8067 75.1406 89.8562 74.4688 89.8562C73.5938 89.8562 72.8177 89.6947 72.1406 89.3718C71.4688 89.0489 70.9401 88.5567 70.5547 87.8953C70.1745 87.2338 69.9844 86.4005 69.9844 85.3953C69.9844 84.3744 70.1562 83.5255 70.5 82.8484C70.849 82.1661 71.3333 81.6557 71.9531 81.3171C72.5729 80.9734 73.2943 80.8015 74.1172 80.8015ZM74.1328 82.4968C73.6693 82.4968 73.2839 82.6453 72.9766 82.9421C72.6745 83.239 72.5 83.7052 72.4531 84.3406H75.7969C75.7917 83.9864 75.7266 83.6713 75.6016 83.3953C75.4818 83.1192 75.2995 82.9005 75.0547 82.739C74.8151 82.5776 74.5078 82.4968 74.1328 82.4968ZM81.7578 85.239L78.9453 80.9656H81.6484L83.3438 83.7468L85.0547 80.9656H87.7578L84.9141 85.239L87.8906 89.7H85.1797L83.3438 86.7078L81.5 89.7H78.7969L81.7578 85.239ZM92.8984 87.9578C93.1589 87.9578 93.4115 87.9317 93.6562 87.8796C93.9062 87.8276 94.1536 87.7625 94.3984 87.6843V89.4578C94.1432 89.5723 93.8255 89.6661 93.4453 89.739C93.0703 89.8171 92.6589 89.8562 92.2109 89.8562C91.6901 89.8562 91.2214 89.7729 90.8047 89.6062C90.3932 89.4343 90.0677 89.1401 89.8281 88.7234C89.5938 88.3015 89.4766 87.7156 89.4766 86.9656V82.7546H88.3359V81.7468L89.6484 80.95L90.3359 79.1062H91.8594V80.9656H94.3047V82.7546H91.8594V86.9656C91.8594 87.2989 91.9531 87.5489 92.1406 87.7156C92.3333 87.877 92.5859 87.9578 92.8984 87.9578ZM104.109 85.3171C104.109 86.0463 104.01 86.6921 103.812 87.2546C103.62 87.8171 103.336 88.2937 102.961 88.6843C102.591 89.0697 102.143 89.3614 101.617 89.5593C101.096 89.7572 100.508 89.8562 99.8516 89.8562C99.237 89.8562 98.6719 89.7572 98.1562 89.5593C97.6458 89.3614 97.2005 89.0697 96.8203 88.6843C96.4453 88.2937 96.1536 87.8171 95.9453 87.2546C95.7422 86.6921 95.6406 86.0463 95.6406 85.3171C95.6406 84.3484 95.8125 83.5281 96.1562 82.8562C96.5 82.1843 96.9896 81.6739 97.625 81.325C98.2604 80.976 99.0182 80.8015 99.8984 80.8015C100.716 80.8015 101.44 80.976 102.07 81.325C102.706 81.6739 103.203 82.1843 103.562 82.8562C103.927 83.5281 104.109 84.3484 104.109 85.3171ZM98.0703 85.3171C98.0703 85.8901 98.1328 86.3718 98.2578 86.7625C98.3828 87.1531 98.5781 87.4473 98.8438 87.6453C99.1094 87.8432 99.4557 87.9421 99.8828 87.9421C100.305 87.9421 100.646 87.8432 100.906 87.6453C101.172 87.4473 101.365 87.1531 101.484 86.7625C101.609 86.3718 101.672 85.8901 101.672 85.3171C101.672 84.739 101.609 84.2598 101.484 83.8796C101.365 83.4942 101.172 83.2052 100.906 83.0125C100.641 82.8197 100.294 82.7234 99.8672 82.7234C99.237 82.7234 98.7786 82.9395 98.4922 83.3718C98.2109 83.8041 98.0703 84.4526 98.0703 85.3171ZM113.836 80.8015C114.643 80.8015 115.339 80.9578 115.922 81.2703C116.505 81.5776 116.956 82.0255 117.273 82.614C117.591 83.2026 117.75 83.9213 117.75 84.7703V85.9265H112.117C112.143 86.5984 112.344 87.127 112.719 87.5125C113.099 87.8927 113.625 88.0828 114.297 88.0828C114.854 88.0828 115.365 88.0255 115.828 87.9109C116.292 87.7963 116.768 87.6244 117.258 87.3953V89.239C116.826 89.4526 116.372 89.6088 115.898 89.7078C115.43 89.8067 114.859 89.8562 114.188 89.8562C113.312 89.8562 112.536 89.6947 111.859 89.3718C111.188 89.0489 110.659 88.5567 110.273 87.8953C109.893 87.2338 109.703 86.4005 109.703 85.3953C109.703 84.3744 109.875 83.5255 110.219 82.8484C110.568 82.1661 111.052 81.6557 111.672 81.3171C112.292 80.9734 113.013 80.8015 113.836 80.8015ZM113.852 82.4968C113.388 82.4968 113.003 82.6453 112.695 82.9421C112.393 83.239 112.219 83.7052 112.172 84.3406H115.516C115.51 83.9864 115.445 83.6713 115.32 83.3953C115.201 83.1192 115.018 82.9005 114.773 82.739C114.534 82.5776 114.227 82.4968 113.852 82.4968ZM124.648 80.8015C125.581 80.8015 126.331 81.0567 126.898 81.5671C127.466 82.0723 127.75 82.8848 127.75 84.0046V89.7H125.367V84.5984C125.367 83.9734 125.253 83.502 125.023 83.1843C124.799 82.8666 124.445 82.7078 123.961 82.7078C123.232 82.7078 122.734 82.9552 122.469 83.45C122.203 83.9447 122.07 84.6583 122.07 85.5906V89.7H119.688V80.9656H121.508L121.828 82.0828H121.961C122.148 81.7807 122.38 81.5359 122.656 81.3484C122.938 81.1609 123.247 81.0229 123.586 80.9343C123.93 80.8458 124.284 80.8015 124.648 80.8015ZM139.32 80.8015C140.253 80.8015 141.003 81.0567 141.57 81.5671C142.138 82.0723 142.422 82.8848 142.422 84.0046V89.7H140.039V84.5984C140.039 83.9734 139.924 83.502 139.695 83.1843C139.471 82.8666 139.117 82.7078 138.633 82.7078C137.904 82.7078 137.406 82.9552 137.141 83.45C136.875 83.9447 136.742 84.6583 136.742 85.5906V89.7H134.359V80.9656H136.18L136.5 82.0828H136.633C136.82 81.7807 137.052 81.5359 137.328 81.3484C137.609 81.1609 137.919 81.0229 138.258 80.9343C138.602 80.8458 138.956 80.8015 139.32 80.8015ZM148.477 80.8015C149.284 80.8015 149.979 80.9578 150.562 81.2703C151.146 81.5776 151.596 82.0255 151.914 82.614C152.232 83.2026 152.391 83.9213 152.391 84.7703V85.9265H146.758C146.784 86.5984 146.984 87.127 147.359 87.5125C147.74 87.8927 148.266 88.0828 148.938 88.0828C149.495 88.0828 150.005 88.0255 150.469 87.9109C150.932 87.7963 151.409 87.6244 151.898 87.3953V89.239C151.466 89.4526 151.013 89.6088 150.539 89.7078C150.07 89.8067 149.5 89.8562 148.828 89.8562C147.953 89.8562 147.177 89.6947 146.5 89.3718C145.828 89.0489 145.299 88.5567 144.914 87.8953C144.534 87.2338 144.344 86.4005 144.344 85.3953C144.344 84.3744 144.516 83.5255 144.859 82.8484C145.208 82.1661 145.693 81.6557 146.312 81.3171C146.932 80.9734 147.654 80.8015 148.477 80.8015ZM148.492 82.4968C148.029 82.4968 147.643 82.6453 147.336 82.9421C147.034 83.239 146.859 83.7052 146.812 84.3406H150.156C150.151 83.9864 150.086 83.6713 149.961 83.3953C149.841 83.1192 149.659 82.9005 149.414 82.739C149.174 82.5776 148.867 82.4968 148.492 82.4968ZM156.883 93.5437C155.664 93.5437 154.732 93.3302 154.086 92.9031C153.445 92.4812 153.125 91.8875 153.125 91.1218C153.125 90.5958 153.289 90.1557 153.617 89.8015C153.945 89.4473 154.427 89.1947 155.062 89.0437C154.818 88.9395 154.604 88.7703 154.422 88.5359C154.24 88.2963 154.148 88.0437 154.148 87.7781C154.148 87.4447 154.245 87.1687 154.438 86.95C154.63 86.726 154.909 86.5072 155.273 86.2937C154.815 86.0958 154.451 85.7781 154.18 85.3406C153.914 84.9031 153.781 84.3875 153.781 83.7937C153.781 83.1583 153.919 82.6192 154.195 82.1765C154.477 81.7286 154.883 81.3875 155.414 81.1531C155.951 80.9187 156.602 80.8015 157.367 80.8015C157.529 80.8015 157.716 80.8119 157.93 80.8328C158.143 80.8536 158.339 80.877 158.516 80.9031C158.698 80.9291 158.82 80.95 158.883 80.9656H161.93V82.1765L160.562 82.5281C160.688 82.7208 160.781 82.9265 160.844 83.1453C160.906 83.364 160.938 83.5958 160.938 83.8406C160.938 84.7781 160.609 85.5098 159.953 86.0359C159.302 86.5567 158.396 86.8171 157.234 86.8171C156.958 86.8015 156.698 86.7807 156.453 86.7546C156.333 86.8484 156.242 86.9473 156.18 87.0515C156.117 87.1557 156.086 87.2651 156.086 87.3796C156.086 87.4942 156.133 87.5906 156.227 87.6687C156.326 87.7416 156.471 87.7989 156.664 87.8406C156.862 87.877 157.107 87.8953 157.398 87.8953H158.883C159.841 87.8953 160.57 88.101 161.07 88.5125C161.576 88.9239 161.828 89.5281 161.828 90.325C161.828 91.3458 161.401 92.1375 160.547 92.7C159.698 93.2625 158.477 93.5437 156.883 93.5437ZM156.984 91.989C157.552 91.989 158.039 91.9343 158.445 91.825C158.857 91.7208 159.172 91.5697 159.391 91.3718C159.609 91.1791 159.719 90.9473 159.719 90.6765C159.719 90.4578 159.654 90.2833 159.523 90.1531C159.398 90.0281 159.206 89.9395 158.945 89.8875C158.69 89.8354 158.362 89.8093 157.961 89.8093H156.727C156.435 89.8093 156.172 89.8562 155.938 89.95C155.708 90.0437 155.526 90.1739 155.391 90.3406C155.255 90.5125 155.188 90.7104 155.188 90.9343C155.188 91.2625 155.344 91.5203 155.656 91.7078C155.974 91.8953 156.417 91.989 156.984 91.989ZM157.367 85.364C157.815 85.364 158.143 85.226 158.352 84.95C158.56 84.6739 158.664 84.2989 158.664 83.825C158.664 83.2989 158.555 82.9057 158.336 82.6453C158.122 82.3796 157.799 82.2468 157.367 82.2468C156.93 82.2468 156.602 82.3796 156.383 82.6453C156.164 82.9057 156.055 83.2989 156.055 83.825C156.055 84.2989 156.161 84.6739 156.375 84.95C156.594 85.226 156.924 85.364 157.367 85.364ZM168.25 80.8015C168.37 80.8015 168.508 80.8093 168.664 80.825C168.826 80.8354 168.956 80.851 169.055 80.8718L168.875 83.1062C168.797 83.0802 168.685 83.0619 168.539 83.0515C168.398 83.0359 168.276 83.0281 168.172 83.0281C167.865 83.0281 167.565 83.0671 167.273 83.1453C166.987 83.2234 166.729 83.351 166.5 83.5281C166.271 83.7 166.089 83.9291 165.953 84.2156C165.823 84.4968 165.758 84.8432 165.758 85.2546V89.7H163.375V80.9656H165.18L165.531 82.4343H165.648C165.82 82.1375 166.034 81.8666 166.289 81.6218C166.549 81.3718 166.844 81.1739 167.172 81.0281C167.505 80.877 167.865 80.8015 168.25 80.8015ZM173.023 80.9656V89.7H170.641V80.9656H173.023ZM171.836 77.5437C172.19 77.5437 172.495 77.627 172.75 77.7937C173.005 77.9552 173.133 78.2598 173.133 78.7078C173.133 79.1505 173.005 79.4578 172.75 79.6296C172.495 79.7963 172.19 79.8796 171.836 79.8796C171.477 79.8796 171.169 79.7963 170.914 79.6296C170.664 79.4578 170.539 79.1505 170.539 78.7078C170.539 78.2598 170.664 77.9552 170.914 77.7937C171.169 77.627 171.477 77.5437 171.836 77.5437ZM179.211 87.9578C179.471 87.9578 179.724 87.9317 179.969 87.8796C180.219 87.8276 180.466 87.7625 180.711 87.6843V89.4578C180.456 89.5723 180.138 89.6661 179.758 89.739C179.383 89.8171 178.971 89.8562 178.523 89.8562C178.003 89.8562 177.534 89.7729 177.117 89.6062C176.706 89.4343 176.38 89.1401 176.141 88.7234C175.906 88.3015 175.789 87.7156 175.789 86.9656V82.7546H174.648V81.7468L175.961 80.95L176.648 79.1062H178.172V80.9656H180.617V82.7546H178.172V86.9656C178.172 87.2989 178.266 87.5489 178.453 87.7156C178.646 87.877 178.898 87.9578 179.211 87.9578ZM186.062 80.7859C187.234 80.7859 188.133 81.0411 188.758 81.5515C189.383 82.0619 189.695 82.838 189.695 83.8796V89.7H188.031L187.57 88.5125H187.508C187.258 88.825 187.003 89.0802 186.742 89.2781C186.482 89.476 186.182 89.6218 185.844 89.7156C185.505 89.8093 185.094 89.8562 184.609 89.8562C184.094 89.8562 183.63 89.7572 183.219 89.5593C182.812 89.3614 182.492 89.0593 182.258 88.6531C182.023 88.2416 181.906 87.7208 181.906 87.0906C181.906 86.1635 182.232 85.4812 182.883 85.0437C183.534 84.601 184.51 84.3562 185.812 84.3093L187.328 84.2625V83.8796C187.328 83.4213 187.208 83.0854 186.969 82.8718C186.729 82.6583 186.396 82.5515 185.969 82.5515C185.547 82.5515 185.133 82.6114 184.727 82.7312C184.32 82.851 183.914 83.002 183.508 83.1843L182.719 81.575C183.182 81.3302 183.701 81.1375 184.273 80.9968C184.852 80.8562 185.448 80.7859 186.062 80.7859ZM187.328 85.6531L186.406 85.6843C185.635 85.7052 185.099 85.8432 184.797 86.0984C184.5 86.3536 184.352 86.6895 184.352 87.1062C184.352 87.4708 184.458 87.7312 184.672 87.8875C184.885 88.0385 185.164 88.114 185.508 88.114C186.018 88.114 186.448 87.963 186.797 87.6609C187.151 87.3588 187.328 86.9291 187.328 86.3718V85.6531Z" fill="#101E37"/>
</svg>
