<svg width="251" height="168" viewBox="0 0 251 168" fill="none" xmlns="http://www.w3.org/2000/svg">
<rect y="0.199951" width="251" height="167" rx="8" fill="#F3F6F9"/>
<path d="M46.4609 89.7H44.5781V79.8718H41.2344V78.2781H49.7969V79.8718H46.4609V89.7ZM54.8047 80.8875C55.5755 80.8875 56.237 81.0463 56.7891 81.364C57.3411 81.6817 57.7656 82.1322 58.0625 82.7156C58.3594 83.2989 58.5078 83.9968 58.5078 84.8093V85.7937H52.7344C52.7552 86.6322 52.9792 87.2781 53.4062 87.7312C53.8385 88.1843 54.4427 88.4109 55.2188 88.4109C55.7708 88.4109 56.2656 88.3588 56.7031 88.2546C57.1458 88.1453 57.6016 87.9864 58.0703 87.7781V89.2703C57.638 89.4734 57.1979 89.6218 56.75 89.7156C56.3021 89.8093 55.7656 89.8562 55.1406 89.8562C54.2917 89.8562 53.5443 89.6921 52.8984 89.364C52.2578 89.0307 51.7552 88.5359 51.3906 87.8796C51.0312 87.2234 50.8516 86.4083 50.8516 85.4343C50.8516 84.4656 51.0156 83.6427 51.3438 82.9656C51.6719 82.2885 52.1328 81.7729 52.7266 81.4187C53.3203 81.0645 54.013 80.8875 54.8047 80.8875ZM54.8047 82.2703C54.2266 82.2703 53.7578 82.4578 53.3984 82.8328C53.0443 83.2078 52.8359 83.7572 52.7734 84.4812H56.7109C56.7057 84.0489 56.6328 83.6661 56.4922 83.3328C56.3568 82.9994 56.1484 82.739 55.8672 82.5515C55.5911 82.364 55.237 82.2703 54.8047 82.2703ZM62.4922 85.2781L59.6016 81.0515H61.6953L63.6719 84.0906L65.6562 81.0515H67.7422L64.8359 85.2781L67.8906 89.7H65.7891L63.6719 86.4578L61.5469 89.7H59.4609L62.4922 85.2781ZM72.6094 88.3718C72.849 88.3718 73.0859 88.351 73.3203 88.3093C73.5547 88.2625 73.7682 88.2078 73.9609 88.1453V89.5359C73.7578 89.6244 73.4948 89.7 73.1719 89.7625C72.849 89.825 72.513 89.8562 72.1641 89.8562C71.6745 89.8562 71.2344 89.7755 70.8438 89.614C70.4531 89.4473 70.1432 89.1635 69.9141 88.7625C69.6849 88.3614 69.5703 87.8067 69.5703 87.0984V82.45H68.3906V81.6296L69.6562 80.9812L70.2578 79.1296H71.4141V81.0515H73.8906V82.45H71.4141V87.075C71.4141 87.5125 71.5234 87.838 71.7422 88.0515C71.9609 88.2651 72.25 88.3718 72.6094 88.3718ZM83.375 85.3562C83.375 86.075 83.2812 86.713 83.0938 87.2703C82.9062 87.8276 82.6328 88.2989 82.2734 88.6843C81.9141 89.0645 81.4818 89.3562 80.9766 89.5593C80.4714 89.7572 79.901 89.8562 79.2656 89.8562C78.6719 89.8562 78.1276 89.7572 77.6328 89.5593C77.138 89.3562 76.7083 89.0645 76.3438 88.6843C75.9844 88.2989 75.7057 87.8276 75.5078 87.2703C75.3099 86.713 75.2109 86.075 75.2109 85.3562C75.2109 84.4031 75.375 83.5958 75.7031 82.9343C76.0365 82.2677 76.5104 81.7598 77.125 81.4109C77.7396 81.0619 78.4714 80.8875 79.3203 80.8875C80.1172 80.8875 80.8203 81.0619 81.4297 81.4109C82.0391 81.7598 82.5156 82.2677 82.8594 82.9343C83.2031 83.601 83.375 84.4083 83.375 85.3562ZM77.1016 85.3562C77.1016 85.9864 77.1771 86.5255 77.3281 86.9734C77.4844 87.4213 77.724 87.7651 78.0469 88.0046C78.3698 88.239 78.7865 88.3562 79.2969 88.3562C79.8073 88.3562 80.224 88.239 80.5469 88.0046C80.8698 87.7651 81.1068 87.4213 81.2578 86.9734C81.4089 86.5255 81.4844 85.9864 81.4844 85.3562C81.4844 84.726 81.4089 84.1921 81.2578 83.7546C81.1068 83.3119 80.8698 82.976 80.5469 82.7468C80.224 82.5125 79.8047 82.3953 79.2891 82.3953C78.5286 82.3953 77.974 82.6505 77.625 83.1609C77.276 83.6713 77.1016 84.4031 77.1016 85.3562ZM93.0859 80.8875C93.8568 80.8875 94.5182 81.0463 95.0703 81.364C95.6224 81.6817 96.0469 82.1322 96.3438 82.7156C96.6406 83.2989 96.7891 83.9968 96.7891 84.8093V85.7937H91.0156C91.0365 86.6322 91.2604 87.2781 91.6875 87.7312C92.1198 88.1843 92.724 88.4109 93.5 88.4109C94.0521 88.4109 94.5469 88.3588 94.9844 88.2546C95.4271 88.1453 95.8828 87.9864 96.3516 87.7781V89.2703C95.9193 89.4734 95.4792 89.6218 95.0312 89.7156C94.5833 89.8093 94.0469 89.8562 93.4219 89.8562C92.5729 89.8562 91.8255 89.6921 91.1797 89.364C90.5391 89.0307 90.0365 88.5359 89.6719 87.8796C89.3125 87.2234 89.1328 86.4083 89.1328 85.4343C89.1328 84.4656 89.2969 83.6427 89.625 82.9656C89.9531 82.2885 90.4141 81.7729 91.0078 81.4187C91.6016 81.0645 92.2943 80.8875 93.0859 80.8875ZM93.0859 82.2703C92.5078 82.2703 92.0391 82.4578 91.6797 82.8328C91.3255 83.2078 91.1172 83.7572 91.0547 84.4812H94.9922C94.987 84.0489 94.9141 83.6661 94.7734 83.3328C94.638 82.9994 94.4297 82.739 94.1484 82.5515C93.8724 82.364 93.5182 82.2703 93.0859 82.2703ZM103.367 80.8875C104.341 80.8875 105.099 81.1401 105.641 81.6453C106.188 82.1453 106.461 82.95 106.461 84.0593V89.7H104.625V84.4031C104.625 83.7312 104.487 83.2286 104.211 82.8953C103.935 82.5567 103.508 82.3875 102.93 82.3875C102.091 82.3875 101.508 82.6453 101.18 83.1609C100.857 83.6765 100.695 84.4239 100.695 85.4031V89.7H98.8594V81.0515H100.289L100.547 82.2234H100.648C100.836 81.9213 101.068 81.6739 101.344 81.4812C101.625 81.2833 101.938 81.1348 102.281 81.0359C102.63 80.9369 102.992 80.8875 103.367 80.8875ZM119 87.2312C119 87.7989 118.862 88.2781 118.586 88.6687C118.31 89.0593 117.906 89.3562 117.375 89.5593C116.849 89.7572 116.203 89.8562 115.438 89.8562C114.833 89.8562 114.312 89.8119 113.875 89.7234C113.443 89.6401 113.034 89.5098 112.648 89.3328V87.7468C113.06 87.9395 113.521 88.1062 114.031 88.2468C114.547 88.3875 115.034 88.4578 115.492 88.4578C116.096 88.4578 116.531 88.364 116.797 88.1765C117.062 87.9838 117.195 87.7286 117.195 87.4109C117.195 87.2234 117.141 87.0567 117.031 86.9109C116.927 86.7598 116.729 86.6062 116.438 86.45C116.151 86.2885 115.729 86.0958 115.172 85.8718C114.625 85.6531 114.164 85.4343 113.789 85.2156C113.414 84.9968 113.13 84.7338 112.938 84.4265C112.745 84.114 112.648 83.7156 112.648 83.2312C112.648 82.4656 112.951 81.8848 113.555 81.489C114.164 81.088 114.969 80.8875 115.969 80.8875C116.5 80.8875 117 80.9421 117.469 81.0515C117.943 81.1557 118.406 81.3093 118.859 81.5125L118.281 82.8953C117.891 82.7234 117.497 82.5828 117.102 82.4734C116.711 82.3588 116.312 82.3015 115.906 82.3015C115.432 82.3015 115.07 82.3744 114.82 82.5203C114.576 82.6661 114.453 82.8744 114.453 83.1453C114.453 83.3484 114.513 83.5203 114.633 83.6609C114.753 83.8015 114.958 83.9421 115.25 84.0828C115.547 84.2234 115.958 84.3979 116.484 84.6062C117 84.8041 117.445 85.0125 117.82 85.2312C118.201 85.4447 118.492 85.7078 118.695 86.0203C118.898 86.3328 119 86.7364 119 87.2312ZM124.43 80.8875C125.201 80.8875 125.862 81.0463 126.414 81.364C126.966 81.6817 127.391 82.1322 127.688 82.7156C127.984 83.2989 128.133 83.9968 128.133 84.8093V85.7937H122.359C122.38 86.6322 122.604 87.2781 123.031 87.7312C123.464 88.1843 124.068 88.4109 124.844 88.4109C125.396 88.4109 125.891 88.3588 126.328 88.2546C126.771 88.1453 127.227 87.9864 127.695 87.7781V89.2703C127.263 89.4734 126.823 89.6218 126.375 89.7156C125.927 89.8093 125.391 89.8562 124.766 89.8562C123.917 89.8562 123.169 89.6921 122.523 89.364C121.883 89.0307 121.38 88.5359 121.016 87.8796C120.656 87.2234 120.477 86.4083 120.477 85.4343C120.477 84.4656 120.641 83.6427 120.969 82.9656C121.297 82.2885 121.758 81.7729 122.352 81.4187C122.945 81.0645 123.638 80.8875 124.43 80.8875ZM124.43 82.2703C123.852 82.2703 123.383 82.4578 123.023 82.8328C122.669 83.2078 122.461 83.7572 122.398 84.4812H126.336C126.331 84.0489 126.258 83.6661 126.117 83.3328C125.982 82.9994 125.773 82.739 125.492 82.5515C125.216 82.364 124.862 82.2703 124.43 82.2703ZM139.977 80.8875C140.945 80.8875 141.674 81.1375 142.164 81.6375C142.659 82.1375 142.906 82.9395 142.906 84.0437V89.7H141.07V84.3718C141.07 83.7156 140.943 83.2208 140.688 82.8875C140.432 82.5541 140.044 82.3875 139.523 82.3875C138.794 82.3875 138.268 82.6218 137.945 83.0906C137.628 83.5541 137.469 84.2286 137.469 85.114V89.7H135.633V84.3718C135.633 83.9343 135.576 83.5697 135.461 83.2781C135.352 82.9812 135.182 82.7598 134.953 82.614C134.724 82.463 134.435 82.3875 134.086 82.3875C133.581 82.3875 133.177 82.502 132.875 82.7312C132.578 82.9604 132.365 83.2989 132.234 83.7468C132.104 84.1895 132.039 84.7338 132.039 85.3796V89.7H130.203V81.0515H131.633L131.891 82.2156H131.992C132.169 81.9135 132.388 81.6661 132.648 81.4734C132.914 81.2755 133.208 81.1296 133.531 81.0359C133.854 80.9369 134.19 80.8875 134.539 80.8875C135.185 80.8875 135.729 81.002 136.172 81.2312C136.615 81.4552 136.945 81.7989 137.164 82.2625H137.305C137.576 81.7937 137.953 81.4473 138.438 81.2234C138.922 80.9994 139.435 80.8875 139.977 80.8875ZM147.305 81.0515V89.7H145.469V81.0515H147.305ZM146.398 77.739C146.68 77.739 146.922 77.8145 147.125 77.9656C147.333 78.1166 147.438 78.377 147.438 78.7468C147.438 79.1114 147.333 79.3718 147.125 79.5281C146.922 79.6791 146.68 79.7546 146.398 79.7546C146.107 79.7546 145.859 79.6791 145.656 79.5281C145.458 79.3718 145.359 79.1114 145.359 78.7468C145.359 78.377 145.458 78.1166 145.656 77.9656C145.859 77.8145 146.107 77.739 146.398 77.739ZM149.188 86.1843V84.6296H153.219V86.1843H149.188ZM159.602 80.8875C160.576 80.8875 161.333 81.1401 161.875 81.6453C162.422 82.1453 162.695 82.95 162.695 84.0593V89.7H160.859V84.4031C160.859 83.7312 160.721 83.2286 160.445 82.8953C160.169 82.5567 159.742 82.3875 159.164 82.3875C158.326 82.3875 157.742 82.6453 157.414 83.1609C157.091 83.6765 156.93 84.4239 156.93 85.4031V89.7H155.094V81.0515H156.523L156.781 82.2234H156.883C157.07 81.9213 157.302 81.6739 157.578 81.4812C157.859 81.2833 158.172 81.1348 158.516 81.0359C158.865 80.9369 159.227 80.8875 159.602 80.8875ZM168.711 80.8875C169.482 80.8875 170.143 81.0463 170.695 81.364C171.247 81.6817 171.672 82.1322 171.969 82.7156C172.266 83.2989 172.414 83.9968 172.414 84.8093V85.7937H166.641C166.661 86.6322 166.885 87.2781 167.312 87.7312C167.745 88.1843 168.349 88.4109 169.125 88.4109C169.677 88.4109 170.172 88.3588 170.609 88.2546C171.052 88.1453 171.508 87.9864 171.977 87.7781V89.2703C171.544 89.4734 171.104 89.6218 170.656 89.7156C170.208 89.8093 169.672 89.8562 169.047 89.8562C168.198 89.8562 167.451 89.6921 166.805 89.364C166.164 89.0307 165.661 88.5359 165.297 87.8796C164.938 87.2234 164.758 86.4083 164.758 85.4343C164.758 84.4656 164.922 83.6427 165.25 82.9656C165.578 82.2885 166.039 81.7729 166.633 81.4187C167.227 81.0645 167.919 80.8875 168.711 80.8875ZM168.711 82.2703C168.133 82.2703 167.664 82.4578 167.305 82.8328C166.951 83.2078 166.742 83.7572 166.68 84.4812H170.617C170.612 84.0489 170.539 83.6661 170.398 83.3328C170.263 82.9994 170.055 82.739 169.773 82.5515C169.497 82.364 169.143 82.2703 168.711 82.2703ZM176.953 93.5437C175.781 93.5437 174.883 93.3328 174.258 92.9109C173.633 92.489 173.32 91.8979 173.32 91.1375C173.32 90.6062 173.487 90.1557 173.82 89.7859C174.154 89.4213 174.63 89.1687 175.25 89.0281C175.016 88.9239 174.812 88.7625 174.641 88.5437C174.474 88.3197 174.391 88.0723 174.391 87.8015C174.391 87.4786 174.482 87.2026 174.664 86.9734C174.846 86.7442 175.12 86.5229 175.484 86.3093C175.031 86.1166 174.667 85.8041 174.391 85.3718C174.12 84.9343 173.984 84.4213 173.984 83.8328C173.984 83.2078 174.117 82.6765 174.383 82.239C174.648 81.7963 175.036 81.4604 175.547 81.2312C176.057 80.9968 176.674 80.8796 177.398 80.8796C177.555 80.8796 177.724 80.8901 177.906 80.9109C178.094 80.9265 178.266 80.9473 178.422 80.9734C178.583 80.9942 178.706 81.0177 178.789 81.0437H181.781V82.0671L180.312 82.3406C180.453 82.5385 180.565 82.7651 180.648 83.0203C180.732 83.2703 180.773 83.5437 180.773 83.8406C180.773 84.7364 180.464 85.4421 179.844 85.9578C179.229 86.4682 178.38 86.7234 177.297 86.7234C177.036 86.713 176.784 86.6921 176.539 86.6609C176.352 86.7755 176.208 86.9031 176.109 87.0437C176.01 87.1791 175.961 87.3328 175.961 87.5046C175.961 87.6453 176.01 87.7598 176.109 87.8484C176.208 87.9317 176.354 87.9942 176.547 88.0359C176.745 88.0776 176.984 88.0984 177.266 88.0984H178.758C179.706 88.0984 180.43 88.2989 180.93 88.7C181.43 89.101 181.68 89.6895 181.68 90.4656C181.68 91.45 181.273 92.2078 180.461 92.739C179.648 93.2755 178.479 93.5437 176.953 93.5437ZM177.023 92.2546C177.664 92.2546 178.203 92.1921 178.641 92.0671C179.078 91.9421 179.409 91.7625 179.633 91.5281C179.857 91.2989 179.969 91.0255 179.969 90.7078C179.969 90.4265 179.898 90.2104 179.758 90.0593C179.617 89.9083 179.406 89.8041 179.125 89.7468C178.844 89.6895 178.495 89.6609 178.078 89.6609H176.719C176.38 89.6609 176.081 89.713 175.82 89.8171C175.56 89.9265 175.357 90.0828 175.211 90.2859C175.07 90.489 175 90.7338 175 91.0203C175 91.4161 175.174 91.7208 175.523 91.9343C175.878 92.1479 176.378 92.2546 177.023 92.2546ZM177.383 85.5203C177.919 85.5203 178.318 85.3744 178.578 85.0828C178.839 84.7859 178.969 84.3692 178.969 83.8328C178.969 83.2494 178.833 82.8119 178.562 82.5203C178.297 82.2286 177.901 82.0828 177.375 82.0828C176.859 82.0828 176.466 82.2312 176.195 82.5281C175.93 82.825 175.797 83.2651 175.797 83.8484C175.797 84.3744 175.93 84.7859 176.195 85.0828C176.466 85.3744 176.862 85.5203 177.383 85.5203ZM187.742 80.8875C187.888 80.8875 188.047 80.8953 188.219 80.9109C188.391 80.9265 188.539 80.9473 188.664 80.9734L188.492 82.6921C188.383 82.6609 188.247 82.6375 188.086 82.6218C187.93 82.6062 187.789 82.5984 187.664 82.5984C187.336 82.5984 187.023 82.6531 186.727 82.7625C186.43 82.8666 186.167 83.0281 185.938 83.2468C185.708 83.4604 185.529 83.7286 185.398 84.0515C185.268 84.3744 185.203 84.7494 185.203 85.1765V89.7H183.359V81.0515H184.797L185.047 82.575H185.133C185.305 82.2677 185.518 81.9864 185.773 81.7312C186.029 81.476 186.32 81.2729 186.648 81.1218C186.982 80.9656 187.346 80.8875 187.742 80.8875ZM192.102 81.0515V89.7H190.266V81.0515H192.102ZM191.195 77.739C191.477 77.739 191.719 77.8145 191.922 77.9656C192.13 78.1166 192.234 78.377 192.234 78.7468C192.234 79.1114 192.13 79.3718 191.922 79.5281C191.719 79.6791 191.477 79.7546 191.195 79.7546C190.904 79.7546 190.656 79.6791 190.453 79.5281C190.255 79.3718 190.156 79.1114 190.156 78.7468C190.156 78.377 190.255 78.1166 190.453 77.9656C190.656 77.8145 190.904 77.739 191.195 77.739ZM197.953 88.3718C198.193 88.3718 198.43 88.351 198.664 88.3093C198.898 88.2625 199.112 88.2078 199.305 88.1453V89.5359C199.102 89.6244 198.839 89.7 198.516 89.7625C198.193 89.825 197.857 89.8562 197.508 89.8562C197.018 89.8562 196.578 89.7755 196.188 89.614C195.797 89.4473 195.487 89.1635 195.258 88.7625C195.029 88.3614 194.914 87.8067 194.914 87.0984V82.45H193.734V81.6296L195 80.9812L195.602 79.1296H196.758V81.0515H199.234V82.45H196.758V87.075C196.758 87.5125 196.867 87.838 197.086 88.0515C197.305 88.2651 197.594 88.3718 197.953 88.3718ZM204.453 80.8875C205.547 80.8875 206.372 81.1296 206.93 81.614C207.492 82.0984 207.773 82.8536 207.773 83.8796V89.7H206.469L206.117 88.4734H206.055C205.81 88.7859 205.557 89.0437 205.297 89.2468C205.036 89.45 204.734 89.601 204.391 89.7C204.052 89.8041 203.638 89.8562 203.148 89.8562C202.633 89.8562 202.172 89.7625 201.766 89.575C201.359 89.3822 201.039 89.0906 200.805 88.7C200.57 88.3093 200.453 87.8145 200.453 87.2156C200.453 86.325 200.784 85.6557 201.445 85.2078C202.112 84.7598 203.117 84.5125 204.461 84.4656L205.961 84.4109V83.9578C205.961 83.3588 205.82 82.9317 205.539 82.6765C205.263 82.4213 204.872 82.2937 204.367 82.2937C203.935 82.2937 203.516 82.3562 203.109 82.4812C202.703 82.6062 202.307 82.7598 201.922 82.9421L201.328 81.6453C201.75 81.4213 202.229 81.239 202.766 81.0984C203.307 80.9578 203.87 80.8875 204.453 80.8875ZM205.953 85.5671L204.836 85.6062C203.919 85.6375 203.276 85.7937 202.906 86.075C202.536 86.3562 202.352 86.7416 202.352 87.2312C202.352 87.6583 202.479 87.9708 202.734 88.1687C202.99 88.3614 203.326 88.4578 203.742 88.4578C204.378 88.4578 204.904 88.2781 205.32 87.9187C205.742 87.5541 205.953 87.0203 205.953 86.3171V85.5671Z" fill="#101E37"/>
</svg>
