<svg width="728" height="359" viewBox="0 0 728 359" fill="none" xmlns="http://www.w3.org/2000/svg">
<rect x="1" y="1.33984" width="726" height="356.545" rx="7" fill="white"/>
<rect x="1" y="1.33984" width="726" height="356.545" rx="7" stroke="#E6EBF0" stroke-width="2"/>
<rect x="202" y="48.3398" width="176" height="11" rx="4" fill="#E6EBF0"/>
<rect x="202.733" y="71.8003" width="16.125" height="16.125" rx="8.0625" fill="white"/>
<rect x="202.733" y="71.8003" width="16.125" height="16.125" rx="8.0625" stroke="#101E37" stroke-width="1.46591"/>
<rect x="225.455" y="74.3633" width="72" height="11" rx="4" fill="#E6EBF0"/>
<rect x="202.733" y="99.3912" width="16.125" height="16.125" rx="8.0625" fill="white"/>
<rect x="202.733" y="99.3912" width="16.125" height="16.125" rx="8.0625" stroke="#101E37" stroke-width="1.46591"/>
<rect x="225.455" y="101.954" width="72" height="11" rx="4" fill="#E6EBF0"/>
<rect x="202" y="133.84" width="47" height="11" rx="4" fill="#E6EBF0"/>
<rect x="202.733" y="149.573" width="153.534" height="33.5341" rx="5.13068" fill="white"/>
<rect x="202.733" y="149.573" width="153.534" height="33.5341" rx="5.13068" stroke="#101E37" stroke-width="1.46591"/>
<rect x="213.727" y="160.84" width="90" height="11" rx="4" fill="#E6EBF0"/>
<rect x="371" y="133.84" width="47" height="11" rx="4" fill="#E6EBF0"/>
<rect x="371.733" y="149.573" width="153.534" height="33.5341" rx="5.13068" fill="white"/>
<rect x="371.733" y="149.573" width="153.534" height="33.5341" rx="5.13068" stroke="#101E37" stroke-width="1.46591"/>
<rect x="382.727" y="160.84" width="90" height="11" rx="4" fill="#E6EBF0"/>
<rect x="202" y="201.431" width="47" height="11" rx="4" fill="#E6EBF0"/>
<rect x="202.733" y="217.164" width="322.534" height="33.5341" rx="5.13068" fill="white"/>
<rect x="202.733" y="217.164" width="322.534" height="33.5341" rx="5.13068" stroke="#101E37" stroke-width="1.46591"/>
<rect x="213.727" y="228.431" width="139" height="11" rx="4" fill="#E6EBF0"/>
<rect x="202" y="274.885" width="90" height="36" rx="5.86364" fill="#336ACC"/>
<rect x="304.46" y="275.618" width="88.5341" height="34.5341" rx="5.13068" stroke="#336ACC" stroke-width="1.46591"/>
<path d="M200 33.3398L200 332.34" stroke="#B600FF" stroke-width="1.2" stroke-linecap="square" stroke-dasharray="4 4"/>
</svg>
