<svg width="728" height="249" viewBox="0 0 728 249" fill="none" xmlns="http://www.w3.org/2000/svg">
<rect x="1" y="1.88477" width="726" height="246" rx="7" fill="white"/>
<rect x="1" y="1.88477" width="726" height="246" rx="7" stroke="#E6EBF0" stroke-width="2"/>
<path d="M192.358 51.0108C192.082 51.0108 191.866 50.9328 191.71 50.7768C191.554 50.6208 191.476 50.3988 191.476 50.1108V39.0048C191.476 38.7048 191.548 38.4768 191.692 38.3208C191.848 38.1528 192.052 38.0688 192.304 38.0688C192.52 38.0688 192.682 38.1108 192.79 38.1948C192.91 38.2668 193.048 38.4048 193.204 38.6088L200.62 48.3828H200.17V38.9508C200.17 38.6748 200.242 38.4588 200.386 38.3028C200.542 38.1468 200.758 38.0688 201.034 38.0688C201.322 38.0688 201.538 38.1468 201.682 38.3028C201.826 38.4588 201.898 38.6748 201.898 38.9508V50.1288C201.898 50.4048 201.826 50.6208 201.682 50.7768C201.55 50.9328 201.37 51.0108 201.142 51.0108C200.926 51.0108 200.746 50.9688 200.602 50.8848C200.47 50.8008 200.326 50.6568 200.17 50.4528L192.79 40.6968H193.204V50.1108C193.204 50.3988 193.132 50.6208 192.988 50.7768C192.844 50.9328 192.634 51.0108 192.358 51.0108ZM208.471 51.0468C207.583 51.0468 206.815 50.8608 206.167 50.4888C205.531 50.1168 205.033 49.5888 204.673 48.9048C204.313 48.2208 204.133 47.4168 204.133 46.4928C204.133 45.7848 204.235 45.1548 204.439 44.6028C204.643 44.0508 204.931 43.5768 205.303 43.1808C205.687 42.7728 206.143 42.4668 206.671 42.2628C207.211 42.0468 207.811 41.9388 208.471 41.9388C209.347 41.9388 210.103 42.1248 210.739 42.4968C211.387 42.8688 211.891 43.3968 212.251 44.0808C212.611 44.7528 212.791 45.5568 212.791 46.4928C212.791 47.1888 212.689 47.8188 212.485 48.3828C212.281 48.9468 211.987 49.4268 211.603 49.8228C211.231 50.2188 210.775 50.5248 210.235 50.7408C209.707 50.9448 209.119 51.0468 208.471 51.0468ZM208.471 49.6428C208.963 49.6428 209.395 49.5228 209.767 49.2828C210.139 49.0428 210.427 48.6888 210.631 48.2208C210.847 47.7528 210.955 47.1768 210.955 46.4928C210.955 45.4608 210.727 44.6808 210.271 44.1528C209.815 43.6248 209.215 43.3608 208.471 43.3608C207.967 43.3608 207.529 43.4808 207.157 43.7208C206.785 43.9488 206.491 44.2968 206.275 44.7648C206.071 45.2328 205.969 45.8088 205.969 46.4928C205.969 47.5128 206.197 48.2928 206.653 48.8328C207.109 49.3728 207.715 49.6428 208.471 49.6428ZM215.769 51.0108C215.481 51.0108 215.259 50.9328 215.103 50.7768C214.947 50.6088 214.869 50.3808 214.869 50.0928V42.8928C214.869 42.5928 214.947 42.3648 215.103 42.2088C215.259 42.0528 215.475 41.9748 215.751 41.9748C216.039 41.9748 216.255 42.0528 216.399 42.2088C216.555 42.3648 216.633 42.5928 216.633 42.8928V44.3688L216.435 43.9728C216.675 43.3368 217.047 42.8388 217.551 42.4788C218.055 42.1188 218.661 41.9388 219.369 41.9388C220.101 41.9388 220.695 42.1128 221.151 42.4608C221.607 42.8088 221.919 43.3428 222.087 44.0628H221.835C222.063 43.4028 222.453 42.8868 223.005 42.5148C223.557 42.1308 224.199 41.9388 224.931 41.9388C225.603 41.9388 226.155 42.0708 226.587 42.3348C227.019 42.5868 227.343 42.9768 227.559 43.5048C227.775 44.0208 227.883 44.6748 227.883 45.4668V50.0928C227.883 50.3808 227.799 50.6088 227.631 50.7768C227.475 50.9328 227.253 51.0108 226.965 51.0108C226.677 51.0108 226.455 50.9328 226.299 50.7768C226.143 50.6088 226.065 50.3808 226.065 50.0928V45.5568C226.065 44.8128 225.933 44.2668 225.669 43.9188C225.417 43.5708 224.997 43.3968 224.409 43.3968C223.749 43.3968 223.227 43.6248 222.843 44.0808C222.459 44.5368 222.267 45.1668 222.267 45.9708V50.0928C222.267 50.3808 222.189 50.6088 222.033 50.7768C221.877 50.9328 221.655 51.0108 221.367 51.0108C221.079 51.0108 220.851 50.9328 220.683 50.7768C220.527 50.6088 220.449 50.3808 220.449 50.0928V45.5568C220.449 44.8128 220.323 44.2668 220.071 43.9188C219.819 43.5708 219.399 43.3968 218.811 43.3968C218.151 43.3968 217.629 43.6248 217.245 44.0808C216.873 44.5368 216.687 45.1668 216.687 45.9708V50.0928C216.687 50.7048 216.381 51.0108 215.769 51.0108ZM235.14 51.0468C234.372 51.0468 233.706 50.8548 233.142 50.4708C232.578 50.0748 232.2 49.5528 232.008 48.9048L232.206 48.5808V50.0928C232.206 50.3808 232.128 50.6088 231.972 50.7768C231.816 50.9328 231.6 51.0108 231.324 51.0108C231.036 51.0108 230.814 50.9328 230.658 50.7768C230.502 50.6088 230.424 50.3808 230.424 50.0928V38.9868C230.424 38.6868 230.502 38.4588 230.658 38.3028C230.814 38.1468 231.036 38.0688 231.324 38.0688C231.612 38.0688 231.834 38.1468 231.99 38.3028C232.158 38.4588 232.242 38.6868 232.242 38.9868V44.0268H232.026C232.218 43.3908 232.596 42.8868 233.16 42.5148C233.724 42.1308 234.384 41.9388 235.14 41.9388C235.932 41.9388 236.616 42.1248 237.192 42.4968C237.768 42.8688 238.212 43.3908 238.524 44.0628C238.848 44.7348 239.01 45.5448 239.01 46.4928C239.01 47.4168 238.848 48.2268 238.524 48.9228C238.212 49.6068 237.762 50.1348 237.174 50.5068C236.598 50.8668 235.92 51.0468 235.14 51.0468ZM234.69 49.6428C235.194 49.6428 235.632 49.5228 236.004 49.2828C236.376 49.0428 236.664 48.6888 236.868 48.2208C237.072 47.7528 237.174 47.1768 237.174 46.4928C237.174 45.4608 236.946 44.6808 236.49 44.1528C236.046 43.6248 235.446 43.3608 234.69 43.3608C234.198 43.3608 233.76 43.4808 233.376 43.7208C233.004 43.9488 232.716 44.2968 232.512 44.7648C232.308 45.2328 232.206 45.8088 232.206 46.4928C232.206 47.5128 232.434 48.2928 232.89 48.8328C233.346 49.3728 233.946 49.6428 234.69 49.6428ZM241.977 51.0108C241.677 51.0108 241.449 50.9328 241.293 50.7768C241.137 50.6088 241.059 50.3808 241.059 50.0928V42.8928C241.059 42.5928 241.137 42.3648 241.293 42.2088C241.449 42.0528 241.665 41.9748 241.941 41.9748C242.229 41.9748 242.445 42.0528 242.589 42.2088C242.745 42.3648 242.823 42.5928 242.823 42.8928V44.2068H242.643C242.835 43.4868 243.189 42.9408 243.705 42.5688C244.221 42.1968 244.881 41.9808 245.685 41.9208C245.901 41.9088 246.069 41.9628 246.189 42.0828C246.321 42.2028 246.393 42.3888 246.405 42.6408C246.429 42.8928 246.375 43.0968 246.243 43.2528C246.111 43.3968 245.907 43.4808 245.631 43.5048L245.289 43.5408C244.509 43.6128 243.915 43.8588 243.507 44.2788C243.099 44.6988 242.895 45.2748 242.895 46.0068V50.0928C242.895 50.3808 242.817 50.6088 242.661 50.7768C242.517 50.9328 242.289 51.0108 241.977 51.0108ZM251.773 51.0468C250.813 51.0468 249.985 50.8668 249.289 50.5068C248.605 50.1348 248.071 49.6128 247.687 48.9408C247.315 48.2568 247.129 47.4468 247.129 46.5108C247.129 45.5988 247.315 44.8008 247.687 44.1168C248.059 43.4328 248.569 42.8988 249.217 42.5148C249.865 42.1308 250.603 41.9388 251.431 41.9388C252.043 41.9388 252.589 42.0408 253.069 42.2448C253.549 42.4368 253.957 42.7248 254.293 43.1088C254.641 43.4808 254.899 43.9368 255.067 44.4768C255.247 45.0168 255.337 45.6228 255.337 46.2948C255.337 46.4988 255.277 46.6548 255.157 46.7628C255.037 46.8588 254.857 46.9068 254.617 46.9068H248.569V45.7908H254.113L253.807 46.0428C253.807 45.4428 253.717 44.9328 253.537 44.5128C253.369 44.0928 253.111 43.7748 252.763 43.5588C252.427 43.3308 252.007 43.2168 251.503 43.2168C250.939 43.2168 250.459 43.3488 250.063 43.6128C249.679 43.8768 249.385 44.2428 249.181 44.7108C248.977 45.1788 248.875 45.7248 248.875 46.3488V46.4568C248.875 47.5128 249.121 48.3108 249.613 48.8508C250.117 49.3788 250.843 49.6428 251.791 49.6428C252.151 49.6428 252.529 49.5948 252.925 49.4988C253.333 49.4028 253.717 49.2408 254.077 49.0128C254.281 48.8928 254.461 48.8388 254.617 48.8508C254.785 48.8628 254.917 48.9168 255.013 49.0128C255.121 49.1088 255.187 49.2288 255.211 49.3728C255.235 49.5168 255.211 49.6668 255.139 49.8228C255.067 49.9668 254.941 50.0988 254.761 50.2188C254.353 50.4948 253.879 50.7048 253.339 50.8488C252.799 50.9808 252.277 51.0468 251.773 51.0468ZM265.413 51.0468C264.645 51.0468 263.967 50.8668 263.379 50.5068C262.803 50.1348 262.353 49.6068 262.029 48.9228C261.705 48.2268 261.543 47.4168 261.543 46.4928C261.543 45.5448 261.705 44.7348 262.029 44.0628C262.353 43.3908 262.803 42.8688 263.379 42.4968C263.967 42.1248 264.645 41.9388 265.413 41.9388C266.181 41.9388 266.841 42.1308 267.393 42.5148C267.957 42.8868 268.335 43.3908 268.527 44.0268H268.329V38.9868C268.329 38.6868 268.407 38.4588 268.563 38.3028C268.719 38.1468 268.941 38.0688 269.229 38.0688C269.517 38.0688 269.739 38.1468 269.895 38.3028C270.063 38.4588 270.147 38.6868 270.147 38.9868V50.0928C270.147 50.3808 270.069 50.6088 269.913 50.7768C269.757 50.9328 269.535 51.0108 269.247 51.0108C268.959 51.0108 268.737 50.9328 268.581 50.7768C268.425 50.6088 268.347 50.3808 268.347 50.0928V48.5088L268.545 48.9048C268.353 49.5528 267.975 50.0748 267.411 50.4708C266.859 50.8548 266.193 51.0468 265.413 51.0468ZM265.881 49.6428C266.373 49.6428 266.805 49.5228 267.177 49.2828C267.549 49.0428 267.837 48.6888 268.041 48.2208C268.257 47.7528 268.365 47.1768 268.365 46.4928C268.365 45.4608 268.137 44.6808 267.681 44.1528C267.225 43.6248 266.625 43.3608 265.881 43.3608C265.377 43.3608 264.939 43.4808 264.567 43.7208C264.195 43.9488 263.901 44.2968 263.685 44.7648C263.481 45.2328 263.379 45.8088 263.379 46.4928C263.379 47.5128 263.607 48.2928 264.063 48.8328C264.519 49.3728 265.125 49.6428 265.881 49.6428ZM276.822 51.0468C275.862 51.0468 275.034 50.8668 274.338 50.5068C273.654 50.1348 273.12 49.6128 272.736 48.9408C272.364 48.2568 272.178 47.4468 272.178 46.5108C272.178 45.5988 272.364 44.8008 272.736 44.1168C273.108 43.4328 273.618 42.8988 274.266 42.5148C274.914 42.1308 275.652 41.9388 276.48 41.9388C277.092 41.9388 277.638 42.0408 278.118 42.2448C278.598 42.4368 279.006 42.7248 279.342 43.1088C279.69 43.4808 279.948 43.9368 280.116 44.4768C280.296 45.0168 280.386 45.6228 280.386 46.2948C280.386 46.4988 280.326 46.6548 280.206 46.7628C280.086 46.8588 279.906 46.9068 279.666 46.9068H273.618V45.7908H279.162L278.856 46.0428C278.856 45.4428 278.766 44.9328 278.586 44.5128C278.418 44.0928 278.16 43.7748 277.812 43.5588C277.476 43.3308 277.056 43.2168 276.552 43.2168C275.988 43.2168 275.508 43.3488 275.112 43.6128C274.728 43.8768 274.434 44.2428 274.23 44.7108C274.026 45.1788 273.924 45.7248 273.924 46.3488V46.4568C273.924 47.5128 274.17 48.3108 274.662 48.8508C275.166 49.3788 275.892 49.6428 276.84 49.6428C277.2 49.6428 277.578 49.5948 277.974 49.4988C278.382 49.4028 278.766 49.2408 279.126 49.0128C279.33 48.8928 279.51 48.8388 279.666 48.8508C279.834 48.8628 279.966 48.9168 280.062 49.0128C280.17 49.1088 280.236 49.2288 280.26 49.3728C280.284 49.5168 280.26 49.6668 280.188 49.8228C280.116 49.9668 279.99 50.0988 279.81 50.2188C279.402 50.4948 278.928 50.7048 278.388 50.8488C277.848 50.9808 277.326 51.0468 276.822 51.0468ZM285.194 51.0468C284.258 51.0468 283.55 50.7768 283.07 50.2368C282.602 49.6848 282.368 48.8928 282.368 47.8608V38.9868C282.368 38.6868 282.446 38.4588 282.602 38.3028C282.758 38.1468 282.98 38.0688 283.268 38.0688C283.556 38.0688 283.778 38.1468 283.934 38.3028C284.102 38.4588 284.186 38.6868 284.186 38.9868V47.7528C284.186 48.3528 284.306 48.8028 284.546 49.1028C284.798 49.3908 285.158 49.5348 285.626 49.5348C285.734 49.5348 285.83 49.5348 285.914 49.5348C285.998 49.5228 286.082 49.5108 286.166 49.4988C286.31 49.4868 286.412 49.5288 286.472 49.6248C286.532 49.7088 286.562 49.8888 286.562 50.1648C286.562 50.4168 286.508 50.6148 286.4 50.7588C286.292 50.8908 286.118 50.9748 285.878 51.0108C285.77 51.0228 285.656 51.0288 285.536 51.0288C285.416 51.0408 285.302 51.0468 285.194 51.0468ZM296.486 51.0468C295.586 51.0468 294.806 50.8608 294.146 50.4888C293.498 50.1048 292.994 49.5708 292.634 48.8868C292.274 48.1908 292.094 47.3748 292.094 46.4388C292.094 45.7428 292.196 45.1188 292.4 44.5668C292.604 44.0028 292.892 43.5288 293.264 43.1448C293.648 42.7608 294.11 42.4668 294.65 42.2628C295.202 42.0468 295.814 41.9388 296.486 41.9388C296.906 41.9388 297.344 42.0048 297.8 42.1368C298.268 42.2568 298.7 42.4608 299.096 42.7488C299.252 42.8448 299.348 42.9648 299.384 43.1088C299.432 43.2408 299.438 43.3788 299.402 43.5228C299.378 43.6668 299.312 43.7928 299.204 43.9008C299.108 43.9968 298.988 44.0568 298.844 44.0808C298.7 44.0928 298.544 44.0508 298.376 43.9548C298.088 43.7508 297.794 43.6068 297.494 43.5228C297.194 43.4268 296.906 43.3788 296.63 43.3788C296.198 43.3788 295.814 43.4508 295.478 43.5948C295.154 43.7268 294.878 43.9248 294.65 44.1888C294.422 44.4408 294.248 44.7588 294.128 45.1428C294.02 45.5268 293.966 45.9648 293.966 46.4568C293.966 47.4408 294.194 48.2148 294.65 48.7788C295.118 49.3308 295.778 49.6068 296.63 49.6068C296.906 49.6068 297.194 49.5648 297.494 49.4808C297.794 49.3968 298.088 49.2528 298.376 49.0488C298.544 48.9528 298.7 48.9168 298.844 48.9408C298.988 48.9648 299.102 49.0308 299.186 49.1388C299.282 49.2348 299.342 49.3548 299.366 49.4988C299.402 49.6308 299.396 49.7688 299.348 49.9128C299.3 50.0568 299.198 50.1768 299.042 50.2728C298.658 50.5488 298.238 50.7468 297.782 50.8668C297.338 50.9868 296.906 51.0468 296.486 51.0468ZM303.756 51.0468C303.144 51.0468 302.592 50.9268 302.1 50.6868C301.62 50.4468 301.242 50.1228 300.966 49.7148C300.69 49.3068 300.552 48.8448 300.552 48.3288C300.552 47.6808 300.714 47.1708 301.038 46.7988C301.374 46.4148 301.92 46.1448 302.676 45.9888C303.444 45.8208 304.476 45.7368 305.772 45.7368H306.618V46.8528H305.79C304.926 46.8528 304.242 46.8948 303.738 46.9788C303.234 47.0628 302.874 47.2068 302.658 47.4108C302.454 47.6028 302.352 47.8728 302.352 48.2208C302.352 48.6768 302.508 49.0488 302.82 49.3368C303.132 49.6128 303.564 49.7508 304.116 49.7508C304.56 49.7508 304.95 49.6488 305.286 49.4448C305.622 49.2288 305.886 48.9408 306.078 48.5808C306.282 48.2208 306.384 47.8068 306.384 47.3388V45.2688C306.384 44.5848 306.24 44.0928 305.952 43.7928C305.664 43.4928 305.19 43.3428 304.53 43.3428C304.146 43.3428 303.744 43.3908 303.324 43.4868C302.916 43.5828 302.49 43.7448 302.046 43.9728C301.842 44.0688 301.668 44.0988 301.524 44.0628C301.38 44.0268 301.266 43.9488 301.182 43.8288C301.098 43.6968 301.05 43.5588 301.038 43.4148C301.038 43.2588 301.074 43.1088 301.146 42.9648C301.23 42.8208 301.368 42.7128 301.56 42.6408C302.088 42.3888 302.61 42.2088 303.126 42.1008C303.642 41.9928 304.128 41.9388 304.584 41.9388C305.388 41.9388 306.048 42.0648 306.564 42.3168C307.092 42.5688 307.482 42.9528 307.734 43.4688C307.986 43.9848 308.112 44.6508 308.112 45.4668V50.0928C308.112 50.3808 308.04 50.6088 307.896 50.7768C307.752 50.9328 307.542 51.0108 307.266 51.0108C307.002 51.0108 306.792 50.9328 306.636 50.7768C306.48 50.6088 306.402 50.3808 306.402 50.0928V48.9228H306.564C306.468 49.3668 306.288 49.7508 306.024 50.0748C305.772 50.3868 305.454 50.6268 305.07 50.7948C304.686 50.9628 304.248 51.0468 303.756 51.0468ZM311.552 51.0108C311.264 51.0108 311.042 50.9328 310.886 50.7768C310.73 50.6088 310.652 50.3808 310.652 50.0928V42.8928C310.652 42.5928 310.73 42.3648 310.886 42.2088C311.042 42.0528 311.258 41.9748 311.534 41.9748C311.822 41.9748 312.038 42.0528 312.182 42.2088C312.338 42.3648 312.416 42.5928 312.416 42.8928V44.3688L312.218 43.9728C312.458 43.3368 312.83 42.8388 313.334 42.4788C313.838 42.1188 314.444 41.9388 315.152 41.9388C315.884 41.9388 316.478 42.1128 316.934 42.4608C317.39 42.8088 317.702 43.3428 317.87 44.0628H317.618C317.846 43.4028 318.236 42.8868 318.788 42.5148C319.34 42.1308 319.982 41.9388 320.714 41.9388C321.386 41.9388 321.938 42.0708 322.37 42.3348C322.802 42.5868 323.126 42.9768 323.342 43.5048C323.558 44.0208 323.666 44.6748 323.666 45.4668V50.0928C323.666 50.3808 323.582 50.6088 323.414 50.7768C323.258 50.9328 323.036 51.0108 322.748 51.0108C322.46 51.0108 322.238 50.9328 322.082 50.7768C321.926 50.6088 321.848 50.3808 321.848 50.0928V45.5568C321.848 44.8128 321.716 44.2668 321.452 43.9188C321.2 43.5708 320.78 43.3968 320.192 43.3968C319.532 43.3968 319.01 43.6248 318.626 44.0808C318.242 44.5368 318.05 45.1668 318.05 45.9708V50.0928C318.05 50.3808 317.972 50.6088 317.816 50.7768C317.66 50.9328 317.438 51.0108 317.15 51.0108C316.862 51.0108 316.634 50.9328 316.466 50.7768C316.31 50.6088 316.232 50.3808 316.232 50.0928V45.5568C316.232 44.8128 316.106 44.2668 315.854 43.9188C315.602 43.5708 315.182 43.3968 314.594 43.3968C313.934 43.3968 313.412 43.6248 313.028 44.0808C312.656 44.5368 312.47 45.1668 312.47 45.9708V50.0928C312.47 50.7048 312.164 51.0108 311.552 51.0108ZM327.108 54.2508C326.82 54.2508 326.598 54.1728 326.442 54.0168C326.286 53.8608 326.208 53.6328 326.208 53.3328V42.8928C326.208 42.5928 326.286 42.3648 326.442 42.2088C326.598 42.0528 326.814 41.9748 327.09 41.9748C327.378 41.9748 327.6 42.0528 327.756 42.2088C327.912 42.3648 327.99 42.5928 327.99 42.8928V44.4588L327.792 44.0808C327.984 43.4328 328.362 42.9168 328.926 42.5328C329.49 42.1368 330.156 41.9388 330.924 41.9388C331.704 41.9388 332.382 42.1248 332.958 42.4968C333.546 42.8688 333.996 43.3908 334.308 44.0628C334.632 44.7348 334.794 45.5448 334.794 46.4928C334.794 47.4168 334.632 48.2268 334.308 48.9228C333.996 49.6068 333.552 50.1348 332.976 50.5068C332.4 50.8668 331.716 51.0468 330.924 51.0468C330.168 51.0468 329.508 50.8548 328.944 50.4708C328.38 50.0868 328.002 49.5768 327.81 48.9408H328.026V53.3328C328.026 53.6328 327.942 53.8608 327.774 54.0168C327.618 54.1728 327.396 54.2508 327.108 54.2508ZM330.474 49.6428C330.978 49.6428 331.416 49.5228 331.788 49.2828C332.16 49.0428 332.448 48.6888 332.652 48.2208C332.856 47.7528 332.958 47.1768 332.958 46.4928C332.958 45.4608 332.73 44.6808 332.274 44.1528C331.83 43.6248 331.23 43.3608 330.474 43.3608C329.982 43.3608 329.544 43.4808 329.16 43.7208C328.788 43.9488 328.5 44.2968 328.296 44.7648C328.092 45.2328 327.99 45.8088 327.99 46.4928C327.99 47.5128 328.218 48.2928 328.674 48.8328C329.13 49.3728 329.73 49.6428 330.474 49.6428ZM340.658 51.0468C339.77 51.0468 339.002 50.8608 338.354 50.4888C337.718 50.1168 337.22 49.5888 336.86 48.9048C336.5 48.2208 336.32 47.4168 336.32 46.4928C336.32 45.7848 336.422 45.1548 336.626 44.6028C336.83 44.0508 337.118 43.5768 337.49 43.1808C337.874 42.7728 338.33 42.4668 338.858 42.2628C339.398 42.0468 339.998 41.9388 340.658 41.9388C341.534 41.9388 342.29 42.1248 342.926 42.4968C343.574 42.8688 344.078 43.3968 344.438 44.0808C344.798 44.7528 344.978 45.5568 344.978 46.4928C344.978 47.1888 344.876 47.8188 344.672 48.3828C344.468 48.9468 344.174 49.4268 343.79 49.8228C343.418 50.2188 342.962 50.5248 342.422 50.7408C341.894 50.9448 341.306 51.0468 340.658 51.0468ZM340.658 49.6428C341.15 49.6428 341.582 49.5228 341.954 49.2828C342.326 49.0428 342.614 48.6888 342.818 48.2208C343.034 47.7528 343.142 47.1768 343.142 46.4928C343.142 45.4608 342.914 44.6808 342.458 44.1528C342.002 43.6248 341.402 43.3608 340.658 43.3608C340.154 43.3608 339.716 43.4808 339.344 43.7208C338.972 43.9488 338.678 44.2968 338.462 44.7648C338.258 45.2328 338.156 45.8088 338.156 46.4928C338.156 47.5128 338.384 48.2928 338.84 48.8328C339.296 49.3728 339.902 49.6428 340.658 49.6428Z" fill="#101E37"/>
<rect x="354" y="34.8848" width="76" height="20" rx="4" fill="#F0CCFF"/>
<path d="M362.067 39.8906C362.888 39.8906 363.564 39.9932 364.098 40.1982C364.635 40.3988 365.036 40.7064 365.301 41.1211C365.565 41.5358 365.697 42.0645 365.697 42.707C365.697 43.2357 365.602 43.6777 365.41 44.0332C365.219 44.3841 364.968 44.6689 364.658 44.8877C364.348 45.1064 364.018 45.2751 363.667 45.3936L366.408 49.8848H365.055L362.607 45.7148H360.529V49.8848H359.367V39.8906H362.067ZM361.999 40.8955H360.529V44.7305H362.115C362.931 44.7305 363.53 44.5641 363.913 44.2314C364.3 43.8988 364.494 43.4089 364.494 42.7617C364.494 42.0827 364.289 41.6019 363.879 41.3193C363.473 41.0368 362.847 40.8955 361.999 40.8955ZM370.722 42.2559C371.36 42.2559 371.907 42.3971 372.362 42.6797C372.818 42.9622 373.167 43.3587 373.408 43.8691C373.65 44.375 373.771 44.9674 373.771 45.6465V46.3506H368.596C368.609 47.2301 368.828 47.9001 369.252 48.3604C369.676 48.8206 370.273 49.0508 371.043 49.0508C371.517 49.0508 371.936 49.0075 372.301 48.9209C372.665 48.8343 373.044 48.7067 373.436 48.5381V49.5361C373.057 49.7048 372.681 49.8278 372.308 49.9053C371.938 49.9827 371.501 50.0215 370.995 50.0215C370.275 50.0215 369.646 49.8757 369.108 49.584C368.575 49.2878 368.16 48.8548 367.864 48.2852C367.568 47.7155 367.42 47.0182 367.42 46.1934C367.42 45.3867 367.554 44.6895 367.823 44.1016C368.097 43.5091 368.479 43.0534 368.972 42.7344C369.468 42.4154 370.052 42.2559 370.722 42.2559ZM370.708 43.1855C370.102 43.1855 369.619 43.3838 369.259 43.7803C368.899 44.1768 368.685 44.7305 368.616 45.4414H372.581C372.576 44.9948 372.506 44.6029 372.369 44.2656C372.237 43.9238 372.034 43.6595 371.761 43.4727C371.487 43.2812 371.136 43.1855 370.708 43.1855ZM380.723 53.2344V50.0215C380.723 49.8438 380.727 49.6387 380.736 49.4062C380.745 49.1738 380.761 48.9733 380.784 48.8047H380.709C380.499 49.151 380.201 49.4404 379.813 49.6729C379.426 49.9053 378.927 50.0215 378.316 50.0215C377.4 50.0215 376.664 49.6979 376.108 49.0508C375.552 48.4036 375.274 47.4375 375.274 46.1523C375.274 45.3092 375.402 44.5983 375.657 44.0195C375.912 43.4408 376.272 43.0033 376.737 42.707C377.207 42.4062 377.754 42.2559 378.378 42.2559C378.975 42.2559 379.463 42.3743 379.841 42.6113C380.219 42.8438 380.515 43.1286 380.729 43.4658H380.784L380.955 42.3926H381.857V53.2344H380.723ZM378.528 49.0781C379.057 49.0781 379.481 48.9801 379.8 48.7842C380.119 48.5837 380.351 48.2829 380.497 47.8818C380.647 47.4808 380.727 46.9818 380.736 46.3848V46.1455C380.736 45.1794 380.572 44.4479 380.244 43.9512C379.916 43.4499 379.344 43.1992 378.528 43.1992C377.826 43.1992 377.305 43.4681 376.963 44.0059C376.621 44.5391 376.45 45.2637 376.45 46.1797C376.45 47.0957 376.621 47.8089 376.963 48.3193C377.305 48.8252 377.826 49.0781 378.528 49.0781ZM390.457 42.3926V49.8848H389.527L389.363 48.832H389.302C389.147 49.0918 388.946 49.3105 388.7 49.4883C388.454 49.666 388.176 49.7982 387.866 49.8848C387.561 49.9759 387.235 50.0215 386.889 50.0215C386.296 50.0215 385.799 49.9258 385.398 49.7344C384.997 49.543 384.694 49.2467 384.489 48.8457C384.289 48.4447 384.188 47.9297 384.188 47.3008V42.3926H385.337V47.2188C385.337 47.8431 385.478 48.3102 385.761 48.6201C386.043 48.9255 386.474 49.0781 387.053 49.0781C387.609 49.0781 388.051 48.9733 388.379 48.7637C388.712 48.554 388.951 48.2464 389.097 47.8408C389.243 47.4307 389.315 46.9294 389.315 46.3369V42.3926H390.457ZM395.741 42.2559C396.379 42.2559 396.926 42.3971 397.382 42.6797C397.838 42.9622 398.186 43.3587 398.428 43.8691C398.669 44.375 398.79 44.9674 398.79 45.6465V46.3506H393.615C393.629 47.2301 393.848 47.9001 394.271 48.3604C394.695 48.8206 395.292 49.0508 396.062 49.0508C396.536 49.0508 396.956 49.0075 397.32 48.9209C397.685 48.8343 398.063 48.7067 398.455 48.5381V49.5361C398.077 49.7048 397.701 49.8278 397.327 49.9053C396.958 49.9827 396.521 50.0215 396.015 50.0215C395.295 50.0215 394.666 49.8757 394.128 49.584C393.595 49.2878 393.18 48.8548 392.884 48.2852C392.588 47.7155 392.439 47.0182 392.439 46.1934C392.439 45.3867 392.574 44.6895 392.843 44.1016C393.116 43.5091 393.499 43.0534 393.991 42.7344C394.488 42.4154 395.071 42.2559 395.741 42.2559ZM395.728 43.1855C395.121 43.1855 394.638 43.3838 394.278 43.7803C393.918 44.1768 393.704 44.7305 393.636 45.4414H397.601C397.596 44.9948 397.525 44.6029 397.389 44.2656C397.257 43.9238 397.054 43.6595 396.78 43.4727C396.507 43.2812 396.156 43.1855 395.728 43.1855ZM404.122 42.2559C404.272 42.2559 404.43 42.265 404.594 42.2832C404.758 42.2969 404.904 42.3174 405.031 42.3447L404.888 43.3975C404.765 43.3656 404.628 43.3405 404.478 43.3223C404.327 43.304 404.186 43.2949 404.054 43.2949C403.753 43.2949 403.468 43.3564 403.199 43.4795C402.935 43.598 402.702 43.7712 402.502 43.999C402.301 44.2223 402.144 44.4935 402.03 44.8125C401.916 45.127 401.859 45.4779 401.859 45.8652V49.8848H400.718V42.3926H401.661L401.784 43.7734H401.832C401.987 43.4954 402.174 43.2425 402.393 43.0146C402.611 42.7822 402.864 42.5977 403.151 42.4609C403.443 42.3242 403.767 42.2559 404.122 42.2559ZM407.581 42.3926V49.8848H406.446V42.3926H407.581ZM407.027 39.5898C407.214 39.5898 407.374 39.6514 407.506 39.7744C407.643 39.8929 407.711 40.0798 407.711 40.335C407.711 40.5856 407.643 40.7725 407.506 40.8955C407.374 41.0186 407.214 41.0801 407.027 41.0801C406.831 41.0801 406.667 41.0186 406.535 40.8955C406.408 40.7725 406.344 40.5856 406.344 40.335C406.344 40.0798 406.408 39.8929 406.535 39.7744C406.667 39.6514 406.831 39.5898 407.027 39.5898ZM412.653 50.0215C411.705 50.0215 410.953 49.6979 410.397 49.0508C409.846 48.4036 409.57 47.4421 409.57 46.166C409.57 44.8763 409.853 43.9033 410.418 43.2471C410.983 42.5863 411.735 42.2559 412.674 42.2559C413.07 42.2559 413.417 42.3083 413.713 42.4131C414.009 42.5179 414.264 42.6592 414.479 42.8369C414.693 43.0101 414.873 43.2083 415.019 43.4316H415.101C415.082 43.2904 415.064 43.0967 415.046 42.8506C415.028 42.6045 415.019 42.404 415.019 42.249V39.248H416.153V49.8848H415.237L415.066 48.8184H415.019C414.877 49.0417 414.697 49.2445 414.479 49.4268C414.264 49.609 414.007 49.7549 413.706 49.8643C413.41 49.9691 413.059 50.0215 412.653 50.0215ZM412.831 49.0781C413.633 49.0781 414.201 48.8503 414.533 48.3945C414.866 47.9388 415.032 47.262 415.032 46.3643V46.1592C415.032 45.2067 414.873 44.4753 414.554 43.9648C414.239 43.4544 413.665 43.1992 412.831 43.1992C412.134 43.1992 411.612 43.4681 411.266 44.0059C410.919 44.5391 410.746 45.2682 410.746 46.1934C410.746 47.1139 410.917 47.8249 411.259 48.3262C411.605 48.8275 412.129 49.0781 412.831 49.0781ZM425.02 46.125C425.02 46.7402 424.94 47.2894 424.78 47.7725C424.621 48.2555 424.391 48.6634 424.09 48.9961C423.789 49.3288 423.424 49.584 422.996 49.7617C422.572 49.9349 422.091 50.0215 421.554 50.0215C421.052 50.0215 420.592 49.9349 420.173 49.7617C419.758 49.584 419.398 49.3288 419.093 48.9961C418.792 48.6634 418.557 48.2555 418.389 47.7725C418.225 47.2894 418.143 46.7402 418.143 46.125C418.143 45.3047 418.282 44.6074 418.56 44.0332C418.838 43.4544 419.234 43.0146 419.749 42.7139C420.269 42.4085 420.886 42.2559 421.602 42.2559C422.285 42.2559 422.882 42.4085 423.393 42.7139C423.908 43.0192 424.306 43.4613 424.589 44.04C424.876 44.6143 425.02 45.3092 425.02 46.125ZM419.318 46.125C419.318 46.7266 419.398 47.2484 419.558 47.6904C419.717 48.1325 419.963 48.4743 420.296 48.7158C420.629 48.9574 421.057 49.0781 421.581 49.0781C422.101 49.0781 422.527 48.9574 422.859 48.7158C423.197 48.4743 423.445 48.1325 423.604 47.6904C423.764 47.2484 423.844 46.7266 423.844 46.125C423.844 45.528 423.764 45.013 423.604 44.5801C423.445 44.1426 423.199 43.8053 422.866 43.5684C422.534 43.3314 422.103 43.2129 421.574 43.2129C420.795 43.2129 420.223 43.4704 419.858 43.9854C419.498 44.5003 419.318 45.2135 419.318 46.125Z" fill="#101E37"/>
<rect x="191" y="65.8848" width="346" height="46" rx="7" fill="white"/>
<rect x="191" y="65.8848" width="346" height="46" rx="7" stroke="#101E37" stroke-width="2"/>
<path d="M211.07 94.8848H209.734V84.6348H206.141V83.4629H214.648V84.6348H211.07V94.8848ZM219.477 86.166C220.206 86.166 220.831 86.3275 221.352 86.6504C221.872 86.9733 222.271 87.4264 222.547 88.0098C222.823 88.5879 222.961 89.265 222.961 90.041V90.8457H217.047C217.062 91.8509 217.312 92.6165 217.797 93.1426C218.281 93.6686 218.964 93.9316 219.844 93.9316C220.385 93.9316 220.865 93.8822 221.281 93.7832C221.698 93.6842 222.13 93.5384 222.578 93.3457V94.4863C222.146 94.679 221.716 94.8197 221.289 94.9082C220.867 94.9967 220.367 95.041 219.789 95.041C218.966 95.041 218.247 94.8743 217.633 94.541C217.023 94.2025 216.549 93.7077 216.211 93.0566C215.872 92.4056 215.703 91.6087 215.703 90.666C215.703 89.7441 215.857 88.9473 216.164 88.2754C216.477 87.5983 216.914 87.0775 217.477 86.7129C218.044 86.3483 218.711 86.166 219.477 86.166ZM219.461 87.2285C218.768 87.2285 218.216 87.4551 217.805 87.9082C217.393 88.3613 217.148 88.9941 217.07 89.8066H221.602C221.596 89.2962 221.516 88.8483 221.359 88.4629C221.208 88.0723 220.977 87.7702 220.664 87.5566C220.352 87.3379 219.951 87.2285 219.461 87.2285ZM227.203 90.502L224.242 86.3223H225.727L227.984 89.6191L230.234 86.3223H231.703L228.742 90.502L231.867 94.8848H230.383L227.984 91.3926L225.57 94.8848H224.102L227.203 90.502ZM236.305 93.9785C236.518 93.9785 236.737 93.9603 236.961 93.9238C237.185 93.8874 237.367 93.8431 237.508 93.791V94.7988C237.357 94.8665 237.146 94.9238 236.875 94.9707C236.609 95.0176 236.349 95.041 236.094 95.041C235.641 95.041 235.229 94.9629 234.859 94.8066C234.49 94.6452 234.193 94.3743 233.969 93.9941C233.75 93.6139 233.641 93.0879 233.641 92.416V87.3379H232.422V86.7051L233.648 86.1973L234.164 84.3379H234.945V86.3223H237.453V87.3379H234.945V92.377C234.945 92.9134 235.068 93.3145 235.312 93.5801C235.562 93.8457 235.893 93.9785 236.305 93.9785ZM246.625 90.5879C246.625 91.291 246.534 91.9186 246.352 92.4707C246.169 93.0228 245.906 93.4889 245.562 93.8691C245.219 94.2493 244.802 94.541 244.312 94.7441C243.828 94.9421 243.279 95.041 242.664 95.041C242.091 95.041 241.565 94.9421 241.086 94.7441C240.612 94.541 240.201 94.2493 239.852 93.8691C239.508 93.4889 239.24 93.0228 239.047 92.4707C238.859 91.9186 238.766 91.291 238.766 90.5879C238.766 89.6504 238.924 88.8535 239.242 88.1973C239.56 87.5358 240.013 87.0332 240.602 86.6895C241.195 86.3405 241.901 86.166 242.719 86.166C243.5 86.166 244.182 86.3405 244.766 86.6895C245.354 87.0384 245.81 87.5436 246.133 88.2051C246.461 88.8613 246.625 89.6556 246.625 90.5879ZM240.109 90.5879C240.109 91.2754 240.201 91.8717 240.383 92.377C240.565 92.8822 240.846 93.2728 241.227 93.5488C241.607 93.8249 242.096 93.9629 242.695 93.9629C243.289 93.9629 243.776 93.8249 244.156 93.5488C244.542 93.2728 244.826 92.8822 245.008 92.377C245.19 91.8717 245.281 91.2754 245.281 90.5879C245.281 89.9056 245.19 89.3171 245.008 88.8223C244.826 88.3223 244.544 87.9368 244.164 87.666C243.784 87.3952 243.292 87.2598 242.688 87.2598C241.797 87.2598 241.143 87.554 240.727 88.1426C240.315 88.7311 240.109 89.5462 240.109 90.5879ZM256.07 95.041C254.987 95.041 254.128 94.6712 253.492 93.9316C252.862 93.1921 252.547 92.0931 252.547 90.6348C252.547 89.1608 252.87 88.0488 253.516 87.2988C254.161 86.5436 255.021 86.166 256.094 86.166C256.547 86.166 256.943 86.2259 257.281 86.3457C257.62 86.4655 257.911 86.627 258.156 86.8301C258.401 87.028 258.607 87.2546 258.773 87.5098H258.867C258.846 87.3483 258.826 87.127 258.805 86.8457C258.784 86.5645 258.773 86.3353 258.773 86.1582V82.7285H260.07V94.8848H259.023L258.828 93.666H258.773C258.612 93.9212 258.406 94.153 258.156 94.3613C257.911 94.5697 257.617 94.7363 257.273 94.8613C256.935 94.9811 256.534 95.041 256.07 95.041ZM256.273 93.9629C257.19 93.9629 257.839 93.7025 258.219 93.1816C258.599 92.6608 258.789 91.8874 258.789 90.8613V90.627C258.789 89.5384 258.607 88.7025 258.242 88.1191C257.883 87.5358 257.227 87.2441 256.273 87.2441C255.477 87.2441 254.88 87.5514 254.484 88.166C254.089 88.7754 253.891 89.6087 253.891 90.666C253.891 91.7181 254.086 92.5306 254.477 93.1035C254.872 93.6764 255.471 93.9629 256.273 93.9629ZM266.117 86.166C266.846 86.166 267.471 86.3275 267.992 86.6504C268.513 86.9733 268.911 87.4264 269.188 88.0098C269.464 88.5879 269.602 89.265 269.602 90.041V90.8457H263.688C263.703 91.8509 263.953 92.6165 264.438 93.1426C264.922 93.6686 265.604 93.9316 266.484 93.9316C267.026 93.9316 267.505 93.8822 267.922 93.7832C268.339 93.6842 268.771 93.5384 269.219 93.3457V94.4863C268.786 94.679 268.357 94.8197 267.93 94.9082C267.508 94.9967 267.008 95.041 266.43 95.041C265.607 95.041 264.888 94.8743 264.273 94.541C263.664 94.2025 263.19 93.7077 262.852 93.0566C262.513 92.4056 262.344 91.6087 262.344 90.666C262.344 89.7441 262.497 88.9473 262.805 88.2754C263.117 87.5983 263.555 87.0775 264.117 86.7129C264.685 86.3483 265.352 86.166 266.117 86.166ZM266.102 87.2285C265.409 87.2285 264.857 87.4551 264.445 87.9082C264.034 88.3613 263.789 88.9941 263.711 89.8066H268.242C268.237 89.2962 268.156 88.8483 268 88.4629C267.849 88.0723 267.617 87.7702 267.305 87.5566C266.992 87.3379 266.591 87.2285 266.102 87.2285ZM279.258 86.166C279.987 86.166 280.612 86.3275 281.133 86.6504C281.654 86.9733 282.052 87.4264 282.328 88.0098C282.604 88.5879 282.742 89.265 282.742 90.041V90.8457H276.828C276.844 91.8509 277.094 92.6165 277.578 93.1426C278.062 93.6686 278.745 93.9316 279.625 93.9316C280.167 93.9316 280.646 93.8822 281.062 93.7832C281.479 93.6842 281.911 93.5384 282.359 93.3457V94.4863C281.927 94.679 281.497 94.8197 281.07 94.9082C280.648 94.9967 280.148 95.041 279.57 95.041C278.747 95.041 278.029 94.8743 277.414 94.541C276.805 94.2025 276.331 93.7077 275.992 93.0566C275.654 92.4056 275.484 91.6087 275.484 90.666C275.484 89.7441 275.638 88.9473 275.945 88.2754C276.258 87.5983 276.695 87.0775 277.258 86.7129C277.826 86.3483 278.492 86.166 279.258 86.166ZM279.242 87.2285C278.549 87.2285 277.997 87.4551 277.586 87.9082C277.174 88.3613 276.93 88.9941 276.852 89.8066H281.383C281.378 89.2962 281.297 88.8483 281.141 88.4629C280.99 88.0723 280.758 87.7702 280.445 87.5566C280.133 87.3379 279.732 87.2285 279.242 87.2285ZM283.914 98.7285C283.648 98.7285 283.417 98.7077 283.219 98.666C283.021 98.6296 282.849 98.5853 282.703 98.5332V97.4785C282.865 97.5306 283.029 97.5697 283.195 97.5957C283.362 97.627 283.549 97.6426 283.758 97.6426C284.112 97.6426 284.398 97.5436 284.617 97.3457C284.836 97.1478 284.945 96.7884 284.945 96.2676V86.3223H286.242V96.2363C286.242 96.7572 286.159 97.2025 285.992 97.5723C285.826 97.9473 285.57 98.2337 285.227 98.4316C284.883 98.6296 284.445 98.7285 283.914 98.7285ZM284.828 83.9707C284.828 83.679 284.901 83.4655 285.047 83.3301C285.198 83.1895 285.385 83.1191 285.609 83.1191C285.823 83.1191 286.005 83.1895 286.156 83.3301C286.312 83.4655 286.391 83.679 286.391 83.9707C286.391 84.2572 286.312 84.4707 286.156 84.6113C286.005 84.752 285.823 84.8223 285.609 84.8223C285.385 84.8223 285.198 84.752 285.047 84.6113C284.901 84.4707 284.828 84.2572 284.828 83.9707ZM292.289 86.166C293.018 86.166 293.643 86.3275 294.164 86.6504C294.685 86.9733 295.083 87.4264 295.359 88.0098C295.635 88.5879 295.773 89.265 295.773 90.041V90.8457H289.859C289.875 91.8509 290.125 92.6165 290.609 93.1426C291.094 93.6686 291.776 93.9316 292.656 93.9316C293.198 93.9316 293.677 93.8822 294.094 93.7832C294.51 93.6842 294.943 93.5384 295.391 93.3457V94.4863C294.958 94.679 294.529 94.8197 294.102 94.9082C293.68 94.9967 293.18 95.041 292.602 95.041C291.779 95.041 291.06 94.8743 290.445 94.541C289.836 94.2025 289.362 93.7077 289.023 93.0566C288.685 92.4056 288.516 91.6087 288.516 90.666C288.516 89.7441 288.669 88.9473 288.977 88.2754C289.289 87.5983 289.727 87.0775 290.289 86.7129C290.857 86.3483 291.523 86.166 292.289 86.166ZM292.273 87.2285C291.581 87.2285 291.029 87.4551 290.617 87.9082C290.206 88.3613 289.961 88.9941 289.883 89.8066H294.414C294.409 89.2962 294.328 88.8483 294.172 88.4629C294.021 88.0723 293.789 87.7702 293.477 87.5566C293.164 87.3379 292.763 87.2285 292.273 87.2285ZM307.273 86.166C308.216 86.166 308.927 86.4134 309.406 86.9082C309.885 87.3978 310.125 88.1868 310.125 89.2754V94.8848H308.844V89.3379C308.844 88.6452 308.693 88.127 308.391 87.7832C308.094 87.4342 307.651 87.2598 307.062 87.2598C306.234 87.2598 305.633 87.4993 305.258 87.9785C304.883 88.4577 304.695 89.1634 304.695 90.0957V94.8848H303.406V89.3379C303.406 88.8743 303.339 88.4889 303.203 88.1816C303.073 87.8743 302.875 87.6452 302.609 87.4941C302.349 87.3379 302.018 87.2598 301.617 87.2598C301.049 87.2598 300.594 87.377 300.25 87.6113C299.906 87.8457 299.656 88.1947 299.5 88.6582C299.349 89.1165 299.273 89.6816 299.273 90.3535V94.8848H297.977V86.3223H299.023L299.219 87.5332H299.289C299.461 87.2363 299.677 86.9863 299.938 86.7832C300.198 86.5801 300.49 86.4264 300.812 86.3223C301.135 86.2181 301.479 86.166 301.844 86.166C302.495 86.166 303.039 86.2884 303.477 86.5332C303.919 86.7728 304.24 87.14 304.438 87.6348H304.508C304.789 87.14 305.174 86.7728 305.664 86.5332C306.154 86.2884 306.69 86.166 307.273 86.166ZM316.812 86.166C317.88 86.166 318.732 86.5332 319.367 87.2676C320.003 88.002 320.32 89.1061 320.32 90.5801C320.32 91.554 320.174 92.3717 319.883 93.0332C319.591 93.6947 319.18 94.1947 318.648 94.5332C318.122 94.8717 317.5 95.041 316.781 95.041C316.328 95.041 315.93 94.9811 315.586 94.8613C315.242 94.7415 314.948 94.5801 314.703 94.377C314.458 94.1738 314.255 93.9525 314.094 93.7129H314C314.016 93.916 314.034 94.1608 314.055 94.4473C314.081 94.7337 314.094 94.9837 314.094 95.1973V98.7129H312.789V86.3223H313.859L314.031 87.5879H314.094C314.26 87.3275 314.464 87.0905 314.703 86.877C314.943 86.6582 315.234 86.4863 315.578 86.3613C315.927 86.2311 316.339 86.166 316.812 86.166ZM316.586 87.2598C315.992 87.2598 315.513 87.3743 315.148 87.6035C314.789 87.8327 314.526 88.1764 314.359 88.6348C314.193 89.0879 314.104 89.6582 314.094 90.3457V90.5957C314.094 91.3197 314.172 91.9316 314.328 92.4316C314.49 92.9316 314.753 93.3118 315.117 93.5723C315.487 93.8327 315.982 93.9629 316.602 93.9629C317.133 93.9629 317.576 93.8197 317.93 93.5332C318.284 93.2467 318.547 92.8483 318.719 92.3379C318.896 91.8223 318.984 91.2311 318.984 90.5645C318.984 89.554 318.786 88.752 318.391 88.1582C318 87.5592 317.398 87.2598 316.586 87.2598ZM323.891 94.8848H322.586V82.7285H323.891V94.8848ZM334.016 90.5879C334.016 91.291 333.924 91.9186 333.742 92.4707C333.56 93.0228 333.297 93.4889 332.953 93.8691C332.609 94.2493 332.193 94.541 331.703 94.7441C331.219 94.9421 330.669 95.041 330.055 95.041C329.482 95.041 328.956 94.9421 328.477 94.7441C328.003 94.541 327.591 94.2493 327.242 93.8691C326.898 93.4889 326.63 93.0228 326.438 92.4707C326.25 91.9186 326.156 91.291 326.156 90.5879C326.156 89.6504 326.315 88.8535 326.633 88.1973C326.951 87.5358 327.404 87.0332 327.992 86.6895C328.586 86.3405 329.292 86.166 330.109 86.166C330.891 86.166 331.573 86.3405 332.156 86.6895C332.745 87.0384 333.201 87.5436 333.523 88.2051C333.852 88.8613 334.016 89.6556 334.016 90.5879ZM327.5 90.5879C327.5 91.2754 327.591 91.8717 327.773 92.377C327.956 92.8822 328.237 93.2728 328.617 93.5488C328.997 93.8249 329.487 93.9629 330.086 93.9629C330.68 93.9629 331.167 93.8249 331.547 93.5488C331.932 93.2728 332.216 92.8822 332.398 92.377C332.581 91.8717 332.672 91.2754 332.672 90.5879C332.672 89.9056 332.581 89.3171 332.398 88.8223C332.216 88.3223 331.935 87.9368 331.555 87.666C331.174 87.3952 330.682 87.2598 330.078 87.2598C329.188 87.2598 328.534 87.554 328.117 88.1426C327.706 88.7311 327.5 89.5462 327.5 90.5879Z" fill="#5C6A7A"/>
<path d="M192.358 155.011C192.082 155.011 191.866 154.933 191.71 154.777C191.554 154.621 191.476 154.399 191.476 154.111V143.005C191.476 142.705 191.548 142.477 191.692 142.321C191.848 142.153 192.052 142.069 192.304 142.069C192.52 142.069 192.682 142.111 192.79 142.195C192.91 142.267 193.048 142.405 193.204 142.609L200.62 152.383H200.17V142.951C200.17 142.675 200.242 142.459 200.386 142.303C200.542 142.147 200.758 142.069 201.034 142.069C201.322 142.069 201.538 142.147 201.682 142.303C201.826 142.459 201.898 142.675 201.898 142.951V154.129C201.898 154.405 201.826 154.621 201.682 154.777C201.55 154.933 201.37 155.011 201.142 155.011C200.926 155.011 200.746 154.969 200.602 154.885C200.47 154.801 200.326 154.657 200.17 154.453L192.79 144.697H193.204V154.111C193.204 154.399 193.132 154.621 192.988 154.777C192.844 154.933 192.634 155.011 192.358 155.011ZM208.471 155.047C207.583 155.047 206.815 154.861 206.167 154.489C205.531 154.117 205.033 153.589 204.673 152.905C204.313 152.221 204.133 151.417 204.133 150.493C204.133 149.785 204.235 149.155 204.439 148.603C204.643 148.051 204.931 147.577 205.303 147.181C205.687 146.773 206.143 146.467 206.671 146.263C207.211 146.047 207.811 145.939 208.471 145.939C209.347 145.939 210.103 146.125 210.739 146.497C211.387 146.869 211.891 147.397 212.251 148.081C212.611 148.753 212.791 149.557 212.791 150.493C212.791 151.189 212.689 151.819 212.485 152.383C212.281 152.947 211.987 153.427 211.603 153.823C211.231 154.219 210.775 154.525 210.235 154.741C209.707 154.945 209.119 155.047 208.471 155.047ZM208.471 153.643C208.963 153.643 209.395 153.523 209.767 153.283C210.139 153.043 210.427 152.689 210.631 152.221C210.847 151.753 210.955 151.177 210.955 150.493C210.955 149.461 210.727 148.681 210.271 148.153C209.815 147.625 209.215 147.361 208.471 147.361C207.967 147.361 207.529 147.481 207.157 147.721C206.785 147.949 206.491 148.297 206.275 148.765C206.071 149.233 205.969 149.809 205.969 150.493C205.969 151.513 206.197 152.293 206.653 152.833C207.109 153.373 207.715 153.643 208.471 153.643ZM215.769 155.011C215.481 155.011 215.259 154.933 215.103 154.777C214.947 154.609 214.869 154.381 214.869 154.093V146.893C214.869 146.593 214.947 146.365 215.103 146.209C215.259 146.053 215.475 145.975 215.751 145.975C216.039 145.975 216.255 146.053 216.399 146.209C216.555 146.365 216.633 146.593 216.633 146.893V148.369L216.435 147.973C216.675 147.337 217.047 146.839 217.551 146.479C218.055 146.119 218.661 145.939 219.369 145.939C220.101 145.939 220.695 146.113 221.151 146.461C221.607 146.809 221.919 147.343 222.087 148.063H221.835C222.063 147.403 222.453 146.887 223.005 146.515C223.557 146.131 224.199 145.939 224.931 145.939C225.603 145.939 226.155 146.071 226.587 146.335C227.019 146.587 227.343 146.977 227.559 147.505C227.775 148.021 227.883 148.675 227.883 149.467V154.093C227.883 154.381 227.799 154.609 227.631 154.777C227.475 154.933 227.253 155.011 226.965 155.011C226.677 155.011 226.455 154.933 226.299 154.777C226.143 154.609 226.065 154.381 226.065 154.093V149.557C226.065 148.813 225.933 148.267 225.669 147.919C225.417 147.571 224.997 147.397 224.409 147.397C223.749 147.397 223.227 147.625 222.843 148.081C222.459 148.537 222.267 149.167 222.267 149.971V154.093C222.267 154.381 222.189 154.609 222.033 154.777C221.877 154.933 221.655 155.011 221.367 155.011C221.079 155.011 220.851 154.933 220.683 154.777C220.527 154.609 220.449 154.381 220.449 154.093V149.557C220.449 148.813 220.323 148.267 220.071 147.919C219.819 147.571 219.399 147.397 218.811 147.397C218.151 147.397 217.629 147.625 217.245 148.081C216.873 148.537 216.687 149.167 216.687 149.971V154.093C216.687 154.705 216.381 155.011 215.769 155.011ZM235.14 155.047C234.372 155.047 233.706 154.855 233.142 154.471C232.578 154.075 232.2 153.553 232.008 152.905L232.206 152.581V154.093C232.206 154.381 232.128 154.609 231.972 154.777C231.816 154.933 231.6 155.011 231.324 155.011C231.036 155.011 230.814 154.933 230.658 154.777C230.502 154.609 230.424 154.381 230.424 154.093V142.987C230.424 142.687 230.502 142.459 230.658 142.303C230.814 142.147 231.036 142.069 231.324 142.069C231.612 142.069 231.834 142.147 231.99 142.303C232.158 142.459 232.242 142.687 232.242 142.987V148.027H232.026C232.218 147.391 232.596 146.887 233.16 146.515C233.724 146.131 234.384 145.939 235.14 145.939C235.932 145.939 236.616 146.125 237.192 146.497C237.768 146.869 238.212 147.391 238.524 148.063C238.848 148.735 239.01 149.545 239.01 150.493C239.01 151.417 238.848 152.227 238.524 152.923C238.212 153.607 237.762 154.135 237.174 154.507C236.598 154.867 235.92 155.047 235.14 155.047ZM234.69 153.643C235.194 153.643 235.632 153.523 236.004 153.283C236.376 153.043 236.664 152.689 236.868 152.221C237.072 151.753 237.174 151.177 237.174 150.493C237.174 149.461 236.946 148.681 236.49 148.153C236.046 147.625 235.446 147.361 234.69 147.361C234.198 147.361 233.76 147.481 233.376 147.721C233.004 147.949 232.716 148.297 232.512 148.765C232.308 149.233 232.206 149.809 232.206 150.493C232.206 151.513 232.434 152.293 232.89 152.833C233.346 153.373 233.946 153.643 234.69 153.643ZM241.977 155.011C241.677 155.011 241.449 154.933 241.293 154.777C241.137 154.609 241.059 154.381 241.059 154.093V146.893C241.059 146.593 241.137 146.365 241.293 146.209C241.449 146.053 241.665 145.975 241.941 145.975C242.229 145.975 242.445 146.053 242.589 146.209C242.745 146.365 242.823 146.593 242.823 146.893V148.207H242.643C242.835 147.487 243.189 146.941 243.705 146.569C244.221 146.197 244.881 145.981 245.685 145.921C245.901 145.909 246.069 145.963 246.189 146.083C246.321 146.203 246.393 146.389 246.405 146.641C246.429 146.893 246.375 147.097 246.243 147.253C246.111 147.397 245.907 147.481 245.631 147.505L245.289 147.541C244.509 147.613 243.915 147.859 243.507 148.279C243.099 148.699 242.895 149.275 242.895 150.007V154.093C242.895 154.381 242.817 154.609 242.661 154.777C242.517 154.933 242.289 155.011 241.977 155.011ZM251.773 155.047C250.813 155.047 249.985 154.867 249.289 154.507C248.605 154.135 248.071 153.613 247.687 152.941C247.315 152.257 247.129 151.447 247.129 150.511C247.129 149.599 247.315 148.801 247.687 148.117C248.059 147.433 248.569 146.899 249.217 146.515C249.865 146.131 250.603 145.939 251.431 145.939C252.043 145.939 252.589 146.041 253.069 146.245C253.549 146.437 253.957 146.725 254.293 147.109C254.641 147.481 254.899 147.937 255.067 148.477C255.247 149.017 255.337 149.623 255.337 150.295C255.337 150.499 255.277 150.655 255.157 150.763C255.037 150.859 254.857 150.907 254.617 150.907H248.569V149.791H254.113L253.807 150.043C253.807 149.443 253.717 148.933 253.537 148.513C253.369 148.093 253.111 147.775 252.763 147.559C252.427 147.331 252.007 147.217 251.503 147.217C250.939 147.217 250.459 147.349 250.063 147.613C249.679 147.877 249.385 148.243 249.181 148.711C248.977 149.179 248.875 149.725 248.875 150.349V150.457C248.875 151.513 249.121 152.311 249.613 152.851C250.117 153.379 250.843 153.643 251.791 153.643C252.151 153.643 252.529 153.595 252.925 153.499C253.333 153.403 253.717 153.241 254.077 153.013C254.281 152.893 254.461 152.839 254.617 152.851C254.785 152.863 254.917 152.917 255.013 153.013C255.121 153.109 255.187 153.229 255.211 153.373C255.235 153.517 255.211 153.667 255.139 153.823C255.067 153.967 254.941 154.099 254.761 154.219C254.353 154.495 253.879 154.705 253.339 154.849C252.799 154.981 252.277 155.047 251.773 155.047ZM265.413 155.047C264.645 155.047 263.967 154.867 263.379 154.507C262.803 154.135 262.353 153.607 262.029 152.923C261.705 152.227 261.543 151.417 261.543 150.493C261.543 149.545 261.705 148.735 262.029 148.063C262.353 147.391 262.803 146.869 263.379 146.497C263.967 146.125 264.645 145.939 265.413 145.939C266.181 145.939 266.841 146.131 267.393 146.515C267.957 146.887 268.335 147.391 268.527 148.027H268.329V142.987C268.329 142.687 268.407 142.459 268.563 142.303C268.719 142.147 268.941 142.069 269.229 142.069C269.517 142.069 269.739 142.147 269.895 142.303C270.063 142.459 270.147 142.687 270.147 142.987V154.093C270.147 154.381 270.069 154.609 269.913 154.777C269.757 154.933 269.535 155.011 269.247 155.011C268.959 155.011 268.737 154.933 268.581 154.777C268.425 154.609 268.347 154.381 268.347 154.093V152.509L268.545 152.905C268.353 153.553 267.975 154.075 267.411 154.471C266.859 154.855 266.193 155.047 265.413 155.047ZM265.881 153.643C266.373 153.643 266.805 153.523 267.177 153.283C267.549 153.043 267.837 152.689 268.041 152.221C268.257 151.753 268.365 151.177 268.365 150.493C268.365 149.461 268.137 148.681 267.681 148.153C267.225 147.625 266.625 147.361 265.881 147.361C265.377 147.361 264.939 147.481 264.567 147.721C264.195 147.949 263.901 148.297 263.685 148.765C263.481 149.233 263.379 149.809 263.379 150.493C263.379 151.513 263.607 152.293 264.063 152.833C264.519 153.373 265.125 153.643 265.881 153.643ZM276.822 155.047C275.862 155.047 275.034 154.867 274.338 154.507C273.654 154.135 273.12 153.613 272.736 152.941C272.364 152.257 272.178 151.447 272.178 150.511C272.178 149.599 272.364 148.801 272.736 148.117C273.108 147.433 273.618 146.899 274.266 146.515C274.914 146.131 275.652 145.939 276.48 145.939C277.092 145.939 277.638 146.041 278.118 146.245C278.598 146.437 279.006 146.725 279.342 147.109C279.69 147.481 279.948 147.937 280.116 148.477C280.296 149.017 280.386 149.623 280.386 150.295C280.386 150.499 280.326 150.655 280.206 150.763C280.086 150.859 279.906 150.907 279.666 150.907H273.618V149.791H279.162L278.856 150.043C278.856 149.443 278.766 148.933 278.586 148.513C278.418 148.093 278.16 147.775 277.812 147.559C277.476 147.331 277.056 147.217 276.552 147.217C275.988 147.217 275.508 147.349 275.112 147.613C274.728 147.877 274.434 148.243 274.23 148.711C274.026 149.179 273.924 149.725 273.924 150.349V150.457C273.924 151.513 274.17 152.311 274.662 152.851C275.166 153.379 275.892 153.643 276.84 153.643C277.2 153.643 277.578 153.595 277.974 153.499C278.382 153.403 278.766 153.241 279.126 153.013C279.33 152.893 279.51 152.839 279.666 152.851C279.834 152.863 279.966 152.917 280.062 153.013C280.17 153.109 280.236 153.229 280.26 153.373C280.284 153.517 280.26 153.667 280.188 153.823C280.116 153.967 279.99 154.099 279.81 154.219C279.402 154.495 278.928 154.705 278.388 154.849C277.848 154.981 277.326 155.047 276.822 155.047ZM285.194 155.047C284.258 155.047 283.55 154.777 283.07 154.237C282.602 153.685 282.368 152.893 282.368 151.861V142.987C282.368 142.687 282.446 142.459 282.602 142.303C282.758 142.147 282.98 142.069 283.268 142.069C283.556 142.069 283.778 142.147 283.934 142.303C284.102 142.459 284.186 142.687 284.186 142.987V151.753C284.186 152.353 284.306 152.803 284.546 153.103C284.798 153.391 285.158 153.535 285.626 153.535C285.734 153.535 285.83 153.535 285.914 153.535C285.998 153.523 286.082 153.511 286.166 153.499C286.31 153.487 286.412 153.529 286.472 153.625C286.532 153.709 286.562 153.889 286.562 154.165C286.562 154.417 286.508 154.615 286.4 154.759C286.292 154.891 286.118 154.975 285.878 155.011C285.77 155.023 285.656 155.029 285.536 155.029C285.416 155.041 285.302 155.047 285.194 155.047ZM296.486 155.047C295.586 155.047 294.806 154.861 294.146 154.489C293.498 154.105 292.994 153.571 292.634 152.887C292.274 152.191 292.094 151.375 292.094 150.439C292.094 149.743 292.196 149.119 292.4 148.567C292.604 148.003 292.892 147.529 293.264 147.145C293.648 146.761 294.11 146.467 294.65 146.263C295.202 146.047 295.814 145.939 296.486 145.939C296.906 145.939 297.344 146.005 297.8 146.137C298.268 146.257 298.7 146.461 299.096 146.749C299.252 146.845 299.348 146.965 299.384 147.109C299.432 147.241 299.438 147.379 299.402 147.523C299.378 147.667 299.312 147.793 299.204 147.901C299.108 147.997 298.988 148.057 298.844 148.081C298.7 148.093 298.544 148.051 298.376 147.955C298.088 147.751 297.794 147.607 297.494 147.523C297.194 147.427 296.906 147.379 296.63 147.379C296.198 147.379 295.814 147.451 295.478 147.595C295.154 147.727 294.878 147.925 294.65 148.189C294.422 148.441 294.248 148.759 294.128 149.143C294.02 149.527 293.966 149.965 293.966 150.457C293.966 151.441 294.194 152.215 294.65 152.779C295.118 153.331 295.778 153.607 296.63 153.607C296.906 153.607 297.194 153.565 297.494 153.481C297.794 153.397 298.088 153.253 298.376 153.049C298.544 152.953 298.7 152.917 298.844 152.941C298.988 152.965 299.102 153.031 299.186 153.139C299.282 153.235 299.342 153.355 299.366 153.499C299.402 153.631 299.396 153.769 299.348 153.913C299.3 154.057 299.198 154.177 299.042 154.273C298.658 154.549 298.238 154.747 297.782 154.867C297.338 154.987 296.906 155.047 296.486 155.047ZM303.756 155.047C303.144 155.047 302.592 154.927 302.1 154.687C301.62 154.447 301.242 154.123 300.966 153.715C300.69 153.307 300.552 152.845 300.552 152.329C300.552 151.681 300.714 151.171 301.038 150.799C301.374 150.415 301.92 150.145 302.676 149.989C303.444 149.821 304.476 149.737 305.772 149.737H306.618V150.853H305.79C304.926 150.853 304.242 150.895 303.738 150.979C303.234 151.063 302.874 151.207 302.658 151.411C302.454 151.603 302.352 151.873 302.352 152.221C302.352 152.677 302.508 153.049 302.82 153.337C303.132 153.613 303.564 153.751 304.116 153.751C304.56 153.751 304.95 153.649 305.286 153.445C305.622 153.229 305.886 152.941 306.078 152.581C306.282 152.221 306.384 151.807 306.384 151.339V149.269C306.384 148.585 306.24 148.093 305.952 147.793C305.664 147.493 305.19 147.343 304.53 147.343C304.146 147.343 303.744 147.391 303.324 147.487C302.916 147.583 302.49 147.745 302.046 147.973C301.842 148.069 301.668 148.099 301.524 148.063C301.38 148.027 301.266 147.949 301.182 147.829C301.098 147.697 301.05 147.559 301.038 147.415C301.038 147.259 301.074 147.109 301.146 146.965C301.23 146.821 301.368 146.713 301.56 146.641C302.088 146.389 302.61 146.209 303.126 146.101C303.642 145.993 304.128 145.939 304.584 145.939C305.388 145.939 306.048 146.065 306.564 146.317C307.092 146.569 307.482 146.953 307.734 147.469C307.986 147.985 308.112 148.651 308.112 149.467V154.093C308.112 154.381 308.04 154.609 307.896 154.777C307.752 154.933 307.542 155.011 307.266 155.011C307.002 155.011 306.792 154.933 306.636 154.777C306.48 154.609 306.402 154.381 306.402 154.093V152.923H306.564C306.468 153.367 306.288 153.751 306.024 154.075C305.772 154.387 305.454 154.627 305.07 154.795C304.686 154.963 304.248 155.047 303.756 155.047ZM311.552 155.011C311.264 155.011 311.042 154.933 310.886 154.777C310.73 154.609 310.652 154.381 310.652 154.093V146.893C310.652 146.593 310.73 146.365 310.886 146.209C311.042 146.053 311.258 145.975 311.534 145.975C311.822 145.975 312.038 146.053 312.182 146.209C312.338 146.365 312.416 146.593 312.416 146.893V148.369L312.218 147.973C312.458 147.337 312.83 146.839 313.334 146.479C313.838 146.119 314.444 145.939 315.152 145.939C315.884 145.939 316.478 146.113 316.934 146.461C317.39 146.809 317.702 147.343 317.87 148.063H317.618C317.846 147.403 318.236 146.887 318.788 146.515C319.34 146.131 319.982 145.939 320.714 145.939C321.386 145.939 321.938 146.071 322.37 146.335C322.802 146.587 323.126 146.977 323.342 147.505C323.558 148.021 323.666 148.675 323.666 149.467V154.093C323.666 154.381 323.582 154.609 323.414 154.777C323.258 154.933 323.036 155.011 322.748 155.011C322.46 155.011 322.238 154.933 322.082 154.777C321.926 154.609 321.848 154.381 321.848 154.093V149.557C321.848 148.813 321.716 148.267 321.452 147.919C321.2 147.571 320.78 147.397 320.192 147.397C319.532 147.397 319.01 147.625 318.626 148.081C318.242 148.537 318.05 149.167 318.05 149.971V154.093C318.05 154.381 317.972 154.609 317.816 154.777C317.66 154.933 317.438 155.011 317.15 155.011C316.862 155.011 316.634 154.933 316.466 154.777C316.31 154.609 316.232 154.381 316.232 154.093V149.557C316.232 148.813 316.106 148.267 315.854 147.919C315.602 147.571 315.182 147.397 314.594 147.397C313.934 147.397 313.412 147.625 313.028 148.081C312.656 148.537 312.47 149.167 312.47 149.971V154.093C312.47 154.705 312.164 155.011 311.552 155.011ZM327.108 158.251C326.82 158.251 326.598 158.173 326.442 158.017C326.286 157.861 326.208 157.633 326.208 157.333V146.893C326.208 146.593 326.286 146.365 326.442 146.209C326.598 146.053 326.814 145.975 327.09 145.975C327.378 145.975 327.6 146.053 327.756 146.209C327.912 146.365 327.99 146.593 327.99 146.893V148.459L327.792 148.081C327.984 147.433 328.362 146.917 328.926 146.533C329.49 146.137 330.156 145.939 330.924 145.939C331.704 145.939 332.382 146.125 332.958 146.497C333.546 146.869 333.996 147.391 334.308 148.063C334.632 148.735 334.794 149.545 334.794 150.493C334.794 151.417 334.632 152.227 334.308 152.923C333.996 153.607 333.552 154.135 332.976 154.507C332.4 154.867 331.716 155.047 330.924 155.047C330.168 155.047 329.508 154.855 328.944 154.471C328.38 154.087 328.002 153.577 327.81 152.941H328.026V157.333C328.026 157.633 327.942 157.861 327.774 158.017C327.618 158.173 327.396 158.251 327.108 158.251ZM330.474 153.643C330.978 153.643 331.416 153.523 331.788 153.283C332.16 153.043 332.448 152.689 332.652 152.221C332.856 151.753 332.958 151.177 332.958 150.493C332.958 149.461 332.73 148.681 332.274 148.153C331.83 147.625 331.23 147.361 330.474 147.361C329.982 147.361 329.544 147.481 329.16 147.721C328.788 147.949 328.5 148.297 328.296 148.765C328.092 149.233 327.99 149.809 327.99 150.493C327.99 151.513 328.218 152.293 328.674 152.833C329.13 153.373 329.73 153.643 330.474 153.643ZM340.658 155.047C339.77 155.047 339.002 154.861 338.354 154.489C337.718 154.117 337.22 153.589 336.86 152.905C336.5 152.221 336.32 151.417 336.32 150.493C336.32 149.785 336.422 149.155 336.626 148.603C336.83 148.051 337.118 147.577 337.49 147.181C337.874 146.773 338.33 146.467 338.858 146.263C339.398 146.047 339.998 145.939 340.658 145.939C341.534 145.939 342.29 146.125 342.926 146.497C343.574 146.869 344.078 147.397 344.438 148.081C344.798 148.753 344.978 149.557 344.978 150.493C344.978 151.189 344.876 151.819 344.672 152.383C344.468 152.947 344.174 153.427 343.79 153.823C343.418 154.219 342.962 154.525 342.422 154.741C341.894 154.945 341.306 155.047 340.658 155.047ZM340.658 153.643C341.15 153.643 341.582 153.523 341.954 153.283C342.326 153.043 342.614 152.689 342.818 152.221C343.034 151.753 343.142 151.177 343.142 150.493C343.142 149.461 342.914 148.681 342.458 148.153C342.002 147.625 341.402 147.361 340.658 147.361C340.154 147.361 339.716 147.481 339.344 147.721C338.972 147.949 338.678 148.297 338.462 148.765C338.258 149.233 338.156 149.809 338.156 150.493C338.156 151.513 338.384 152.293 338.84 152.833C339.296 153.373 339.902 153.643 340.658 153.643Z" fill="#101E37"/>
<rect x="354" y="138.885" width="67" height="20" rx="4" fill="#E2F8F5"/>
<path d="M368.035 148.874C368.035 149.644 367.937 150.346 367.741 150.979C367.545 151.608 367.254 152.151 366.866 152.606C366.483 153.058 366.007 153.406 365.438 153.652C364.868 153.898 364.207 154.021 363.455 154.021C362.68 154.021 362.004 153.898 361.425 153.652C360.851 153.406 360.372 153.055 359.989 152.6C359.611 152.144 359.326 151.599 359.135 150.966C358.948 150.332 358.854 149.631 358.854 148.86C358.854 147.84 359.023 146.944 359.36 146.174C359.698 145.404 360.208 144.804 360.892 144.376C361.58 143.948 362.441 143.733 363.476 143.733C364.465 143.733 365.296 143.945 365.971 144.369C366.65 144.793 367.162 145.39 367.509 146.16C367.86 146.926 368.035 147.83 368.035 148.874ZM360.078 148.874C360.078 149.722 360.199 150.455 360.44 151.075C360.682 151.695 361.051 152.174 361.548 152.511C362.049 152.848 362.685 153.017 363.455 153.017C364.23 153.017 364.863 152.848 365.355 152.511C365.852 152.174 366.219 151.695 366.456 151.075C366.693 150.455 366.812 149.722 366.812 148.874C366.812 147.584 366.54 146.577 365.998 145.853C365.46 145.123 364.619 144.759 363.476 144.759C362.701 144.759 362.063 144.925 361.562 145.258C361.06 145.59 360.687 146.064 360.44 146.68C360.199 147.29 360.078 148.022 360.078 148.874ZM373.613 146.256C374.548 146.256 375.293 146.577 375.849 147.22C376.405 147.862 376.683 148.828 376.683 150.118C376.683 150.97 376.555 151.686 376.3 152.265C376.045 152.843 375.685 153.281 375.22 153.577C374.759 153.873 374.215 154.021 373.586 154.021C373.189 154.021 372.841 153.969 372.54 153.864C372.239 153.759 371.982 153.618 371.768 153.44C371.553 153.263 371.376 153.069 371.234 152.859H371.152C371.166 153.037 371.182 153.251 371.2 153.502C371.223 153.753 371.234 153.971 371.234 154.158V157.234H370.093V146.393H371.029L371.18 147.5H371.234C371.38 147.272 371.558 147.065 371.768 146.878C371.977 146.687 372.232 146.536 372.533 146.427C372.839 146.313 373.199 146.256 373.613 146.256ZM373.415 147.213C372.896 147.213 372.476 147.313 372.157 147.514C371.843 147.714 371.613 148.015 371.467 148.416C371.321 148.812 371.243 149.312 371.234 149.913V150.132C371.234 150.765 371.303 151.301 371.439 151.738C371.581 152.176 371.811 152.508 372.13 152.736C372.453 152.964 372.886 153.078 373.429 153.078C373.894 153.078 374.281 152.953 374.591 152.702C374.901 152.451 375.131 152.103 375.281 151.656C375.436 151.205 375.514 150.688 375.514 150.104C375.514 149.22 375.34 148.519 374.994 147.999C374.652 147.475 374.126 147.213 373.415 147.213ZM381.666 154.021C380.992 154.021 380.397 153.882 379.882 153.604C379.367 153.326 378.966 152.903 378.679 152.333C378.392 151.763 378.248 151.046 378.248 150.18C378.248 149.273 378.398 148.532 378.699 147.958C379.005 147.379 379.424 146.951 379.957 146.673C380.49 146.395 381.096 146.256 381.775 146.256C382.149 146.256 382.509 146.295 382.855 146.372C383.206 146.445 383.493 146.538 383.717 146.652L383.375 147.603C383.147 147.511 382.883 147.429 382.582 147.356C382.286 147.284 382.008 147.247 381.748 147.247C381.229 147.247 380.796 147.359 380.449 147.582C380.107 147.805 379.85 148.133 379.677 148.566C379.508 148.999 379.424 149.533 379.424 150.166C379.424 150.772 379.506 151.289 379.67 151.718C379.839 152.146 380.087 152.474 380.415 152.702C380.748 152.925 381.162 153.037 381.659 153.037C382.056 153.037 382.413 152.996 382.732 152.914C383.051 152.827 383.341 152.727 383.601 152.613V153.625C383.35 153.753 383.07 153.851 382.76 153.919C382.454 153.987 382.09 154.021 381.666 154.021ZM386.513 146.393V153.885H385.378V146.393H386.513ZM385.959 143.59C386.146 143.59 386.305 143.651 386.438 143.774C386.574 143.893 386.643 144.08 386.643 144.335C386.643 144.586 386.574 144.772 386.438 144.896C386.305 145.019 386.146 145.08 385.959 145.08C385.763 145.08 385.599 145.019 385.467 144.896C385.339 144.772 385.275 144.586 385.275 144.335C385.275 144.08 385.339 143.893 385.467 143.774C385.599 143.651 385.763 143.59 385.959 143.59ZM395.379 150.125C395.379 150.74 395.299 151.289 395.14 151.772C394.98 152.256 394.75 152.663 394.449 152.996C394.148 153.329 393.784 153.584 393.355 153.762C392.932 153.935 392.451 154.021 391.913 154.021C391.412 154.021 390.951 153.935 390.532 153.762C390.118 153.584 389.757 153.329 389.452 152.996C389.151 152.663 388.917 152.256 388.748 151.772C388.584 151.289 388.502 150.74 388.502 150.125C388.502 149.305 388.641 148.607 388.919 148.033C389.197 147.454 389.593 147.015 390.108 146.714C390.628 146.409 391.245 146.256 391.961 146.256C392.645 146.256 393.242 146.409 393.752 146.714C394.267 147.019 394.666 147.461 394.948 148.04C395.235 148.614 395.379 149.309 395.379 150.125ZM389.678 150.125C389.678 150.727 389.757 151.248 389.917 151.69C390.076 152.132 390.323 152.474 390.655 152.716C390.988 152.957 391.416 153.078 391.94 153.078C392.46 153.078 392.886 152.957 393.219 152.716C393.556 152.474 393.804 152.132 393.964 151.69C394.123 151.248 394.203 150.727 394.203 150.125C394.203 149.528 394.123 149.013 393.964 148.58C393.804 148.143 393.558 147.805 393.226 147.568C392.893 147.331 392.462 147.213 391.934 147.213C391.154 147.213 390.582 147.47 390.218 147.985C389.858 148.5 389.678 149.214 389.678 150.125ZM400.889 146.256C401.777 146.256 402.45 146.475 402.905 146.912C403.361 147.345 403.589 148.042 403.589 149.004V153.885H402.468V149.079C402.468 148.455 402.324 147.988 402.037 147.678C401.755 147.368 401.319 147.213 400.731 147.213C399.902 147.213 399.319 147.448 398.981 147.917C398.644 148.386 398.476 149.068 398.476 149.961V153.885H397.341V146.393H398.257L398.428 147.473H398.489C398.649 147.208 398.852 146.987 399.098 146.81C399.344 146.627 399.619 146.491 399.925 146.399C400.23 146.304 400.551 146.256 400.889 146.256ZM408.729 146.27C409.623 146.27 410.286 146.47 410.719 146.871C411.152 147.272 411.368 147.912 411.368 148.792V153.885H410.541L410.322 152.777H410.268C410.058 153.051 409.839 153.281 409.611 153.468C409.383 153.65 409.119 153.789 408.818 153.885C408.522 153.976 408.158 154.021 407.725 154.021C407.269 154.021 406.863 153.942 406.508 153.782C406.157 153.623 405.879 153.381 405.674 153.058C405.473 152.734 405.373 152.324 405.373 151.827C405.373 151.08 405.669 150.506 406.262 150.104C406.854 149.703 407.757 149.485 408.969 149.448L410.261 149.394V148.936C410.261 148.288 410.122 147.835 409.844 147.575C409.566 147.315 409.174 147.186 408.668 147.186C408.276 147.186 407.902 147.243 407.547 147.356C407.191 147.47 406.854 147.605 406.535 147.76L406.187 146.898C406.524 146.725 406.911 146.577 407.349 146.454C407.786 146.331 408.246 146.27 408.729 146.27ZM410.247 150.193L409.105 150.241C408.171 150.278 407.513 150.43 407.13 150.699C406.747 150.968 406.556 151.349 406.556 151.841C406.556 152.269 406.686 152.586 406.945 152.791C407.205 152.996 407.549 153.099 407.978 153.099C408.643 153.099 409.188 152.914 409.611 152.545C410.035 152.176 410.247 151.622 410.247 150.884V150.193ZM414.848 153.885H413.706V143.248H414.848V153.885Z" fill="#101E37"/>
<rect x="191" y="169.885" width="346" height="46" rx="7" fill="white"/>
<rect x="191" y="169.885" width="346" height="46" rx="7" stroke="#101E37" stroke-width="2"/>
<path d="M211.07 198.885H209.734V188.635H206.141V187.463H214.648V188.635H211.07V198.885ZM219.477 190.166C220.206 190.166 220.831 190.327 221.352 190.65C221.872 190.973 222.271 191.426 222.547 192.01C222.823 192.588 222.961 193.265 222.961 194.041V194.846H217.047C217.062 195.851 217.312 196.617 217.797 197.143C218.281 197.669 218.964 197.932 219.844 197.932C220.385 197.932 220.865 197.882 221.281 197.783C221.698 197.684 222.13 197.538 222.578 197.346V198.486C222.146 198.679 221.716 198.82 221.289 198.908C220.867 198.997 220.367 199.041 219.789 199.041C218.966 199.041 218.247 198.874 217.633 198.541C217.023 198.202 216.549 197.708 216.211 197.057C215.872 196.406 215.703 195.609 215.703 194.666C215.703 193.744 215.857 192.947 216.164 192.275C216.477 191.598 216.914 191.077 217.477 190.713C218.044 190.348 218.711 190.166 219.477 190.166ZM219.461 191.229C218.768 191.229 218.216 191.455 217.805 191.908C217.393 192.361 217.148 192.994 217.07 193.807H221.602C221.596 193.296 221.516 192.848 221.359 192.463C221.208 192.072 220.977 191.77 220.664 191.557C220.352 191.338 219.951 191.229 219.461 191.229ZM227.203 194.502L224.242 190.322H225.727L227.984 193.619L230.234 190.322H231.703L228.742 194.502L231.867 198.885H230.383L227.984 195.393L225.57 198.885H224.102L227.203 194.502ZM236.305 197.979C236.518 197.979 236.737 197.96 236.961 197.924C237.185 197.887 237.367 197.843 237.508 197.791V198.799C237.357 198.867 237.146 198.924 236.875 198.971C236.609 199.018 236.349 199.041 236.094 199.041C235.641 199.041 235.229 198.963 234.859 198.807C234.49 198.645 234.193 198.374 233.969 197.994C233.75 197.614 233.641 197.088 233.641 196.416V191.338H232.422V190.705L233.648 190.197L234.164 188.338H234.945V190.322H237.453V191.338H234.945V196.377C234.945 196.913 235.068 197.314 235.312 197.58C235.562 197.846 235.893 197.979 236.305 197.979ZM246.625 194.588C246.625 195.291 246.534 195.919 246.352 196.471C246.169 197.023 245.906 197.489 245.562 197.869C245.219 198.249 244.802 198.541 244.312 198.744C243.828 198.942 243.279 199.041 242.664 199.041C242.091 199.041 241.565 198.942 241.086 198.744C240.612 198.541 240.201 198.249 239.852 197.869C239.508 197.489 239.24 197.023 239.047 196.471C238.859 195.919 238.766 195.291 238.766 194.588C238.766 193.65 238.924 192.854 239.242 192.197C239.56 191.536 240.013 191.033 240.602 190.689C241.195 190.34 241.901 190.166 242.719 190.166C243.5 190.166 244.182 190.34 244.766 190.689C245.354 191.038 245.81 191.544 246.133 192.205C246.461 192.861 246.625 193.656 246.625 194.588ZM240.109 194.588C240.109 195.275 240.201 195.872 240.383 196.377C240.565 196.882 240.846 197.273 241.227 197.549C241.607 197.825 242.096 197.963 242.695 197.963C243.289 197.963 243.776 197.825 244.156 197.549C244.542 197.273 244.826 196.882 245.008 196.377C245.19 195.872 245.281 195.275 245.281 194.588C245.281 193.906 245.19 193.317 245.008 192.822C244.826 192.322 244.544 191.937 244.164 191.666C243.784 191.395 243.292 191.26 242.688 191.26C241.797 191.26 241.143 191.554 240.727 192.143C240.315 192.731 240.109 193.546 240.109 194.588ZM256.07 199.041C254.987 199.041 254.128 198.671 253.492 197.932C252.862 197.192 252.547 196.093 252.547 194.635C252.547 193.161 252.87 192.049 253.516 191.299C254.161 190.544 255.021 190.166 256.094 190.166C256.547 190.166 256.943 190.226 257.281 190.346C257.62 190.465 257.911 190.627 258.156 190.83C258.401 191.028 258.607 191.255 258.773 191.51H258.867C258.846 191.348 258.826 191.127 258.805 190.846C258.784 190.564 258.773 190.335 258.773 190.158V186.729H260.07V198.885H259.023L258.828 197.666H258.773C258.612 197.921 258.406 198.153 258.156 198.361C257.911 198.57 257.617 198.736 257.273 198.861C256.935 198.981 256.534 199.041 256.07 199.041ZM256.273 197.963C257.19 197.963 257.839 197.702 258.219 197.182C258.599 196.661 258.789 195.887 258.789 194.861V194.627C258.789 193.538 258.607 192.702 258.242 192.119C257.883 191.536 257.227 191.244 256.273 191.244C255.477 191.244 254.88 191.551 254.484 192.166C254.089 192.775 253.891 193.609 253.891 194.666C253.891 195.718 254.086 196.531 254.477 197.104C254.872 197.676 255.471 197.963 256.273 197.963ZM266.117 190.166C266.846 190.166 267.471 190.327 267.992 190.65C268.513 190.973 268.911 191.426 269.188 192.01C269.464 192.588 269.602 193.265 269.602 194.041V194.846H263.688C263.703 195.851 263.953 196.617 264.438 197.143C264.922 197.669 265.604 197.932 266.484 197.932C267.026 197.932 267.505 197.882 267.922 197.783C268.339 197.684 268.771 197.538 269.219 197.346V198.486C268.786 198.679 268.357 198.82 267.93 198.908C267.508 198.997 267.008 199.041 266.43 199.041C265.607 199.041 264.888 198.874 264.273 198.541C263.664 198.202 263.19 197.708 262.852 197.057C262.513 196.406 262.344 195.609 262.344 194.666C262.344 193.744 262.497 192.947 262.805 192.275C263.117 191.598 263.555 191.077 264.117 190.713C264.685 190.348 265.352 190.166 266.117 190.166ZM266.102 191.229C265.409 191.229 264.857 191.455 264.445 191.908C264.034 192.361 263.789 192.994 263.711 193.807H268.242C268.237 193.296 268.156 192.848 268 192.463C267.849 192.072 267.617 191.77 267.305 191.557C266.992 191.338 266.591 191.229 266.102 191.229ZM279.258 190.166C279.987 190.166 280.612 190.327 281.133 190.65C281.654 190.973 282.052 191.426 282.328 192.01C282.604 192.588 282.742 193.265 282.742 194.041V194.846H276.828C276.844 195.851 277.094 196.617 277.578 197.143C278.062 197.669 278.745 197.932 279.625 197.932C280.167 197.932 280.646 197.882 281.062 197.783C281.479 197.684 281.911 197.538 282.359 197.346V198.486C281.927 198.679 281.497 198.82 281.07 198.908C280.648 198.997 280.148 199.041 279.57 199.041C278.747 199.041 278.029 198.874 277.414 198.541C276.805 198.202 276.331 197.708 275.992 197.057C275.654 196.406 275.484 195.609 275.484 194.666C275.484 193.744 275.638 192.947 275.945 192.275C276.258 191.598 276.695 191.077 277.258 190.713C277.826 190.348 278.492 190.166 279.258 190.166ZM279.242 191.229C278.549 191.229 277.997 191.455 277.586 191.908C277.174 192.361 276.93 192.994 276.852 193.807H281.383C281.378 193.296 281.297 192.848 281.141 192.463C280.99 192.072 280.758 191.77 280.445 191.557C280.133 191.338 279.732 191.229 279.242 191.229ZM283.914 202.729C283.648 202.729 283.417 202.708 283.219 202.666C283.021 202.63 282.849 202.585 282.703 202.533V201.479C282.865 201.531 283.029 201.57 283.195 201.596C283.362 201.627 283.549 201.643 283.758 201.643C284.112 201.643 284.398 201.544 284.617 201.346C284.836 201.148 284.945 200.788 284.945 200.268V190.322H286.242V200.236C286.242 200.757 286.159 201.202 285.992 201.572C285.826 201.947 285.57 202.234 285.227 202.432C284.883 202.63 284.445 202.729 283.914 202.729ZM284.828 187.971C284.828 187.679 284.901 187.465 285.047 187.33C285.198 187.189 285.385 187.119 285.609 187.119C285.823 187.119 286.005 187.189 286.156 187.33C286.312 187.465 286.391 187.679 286.391 187.971C286.391 188.257 286.312 188.471 286.156 188.611C286.005 188.752 285.823 188.822 285.609 188.822C285.385 188.822 285.198 188.752 285.047 188.611C284.901 188.471 284.828 188.257 284.828 187.971ZM292.289 190.166C293.018 190.166 293.643 190.327 294.164 190.65C294.685 190.973 295.083 191.426 295.359 192.01C295.635 192.588 295.773 193.265 295.773 194.041V194.846H289.859C289.875 195.851 290.125 196.617 290.609 197.143C291.094 197.669 291.776 197.932 292.656 197.932C293.198 197.932 293.677 197.882 294.094 197.783C294.51 197.684 294.943 197.538 295.391 197.346V198.486C294.958 198.679 294.529 198.82 294.102 198.908C293.68 198.997 293.18 199.041 292.602 199.041C291.779 199.041 291.06 198.874 290.445 198.541C289.836 198.202 289.362 197.708 289.023 197.057C288.685 196.406 288.516 195.609 288.516 194.666C288.516 193.744 288.669 192.947 288.977 192.275C289.289 191.598 289.727 191.077 290.289 190.713C290.857 190.348 291.523 190.166 292.289 190.166ZM292.273 191.229C291.581 191.229 291.029 191.455 290.617 191.908C290.206 192.361 289.961 192.994 289.883 193.807H294.414C294.409 193.296 294.328 192.848 294.172 192.463C294.021 192.072 293.789 191.77 293.477 191.557C293.164 191.338 292.763 191.229 292.273 191.229ZM307.273 190.166C308.216 190.166 308.927 190.413 309.406 190.908C309.885 191.398 310.125 192.187 310.125 193.275V198.885H308.844V193.338C308.844 192.645 308.693 192.127 308.391 191.783C308.094 191.434 307.651 191.26 307.062 191.26C306.234 191.26 305.633 191.499 305.258 191.979C304.883 192.458 304.695 193.163 304.695 194.096V198.885H303.406V193.338C303.406 192.874 303.339 192.489 303.203 192.182C303.073 191.874 302.875 191.645 302.609 191.494C302.349 191.338 302.018 191.26 301.617 191.26C301.049 191.26 300.594 191.377 300.25 191.611C299.906 191.846 299.656 192.195 299.5 192.658C299.349 193.117 299.273 193.682 299.273 194.354V198.885H297.977V190.322H299.023L299.219 191.533H299.289C299.461 191.236 299.677 190.986 299.938 190.783C300.198 190.58 300.49 190.426 300.812 190.322C301.135 190.218 301.479 190.166 301.844 190.166C302.495 190.166 303.039 190.288 303.477 190.533C303.919 190.773 304.24 191.14 304.438 191.635H304.508C304.789 191.14 305.174 190.773 305.664 190.533C306.154 190.288 306.69 190.166 307.273 190.166ZM316.812 190.166C317.88 190.166 318.732 190.533 319.367 191.268C320.003 192.002 320.32 193.106 320.32 194.58C320.32 195.554 320.174 196.372 319.883 197.033C319.591 197.695 319.18 198.195 318.648 198.533C318.122 198.872 317.5 199.041 316.781 199.041C316.328 199.041 315.93 198.981 315.586 198.861C315.242 198.742 314.948 198.58 314.703 198.377C314.458 198.174 314.255 197.952 314.094 197.713H314C314.016 197.916 314.034 198.161 314.055 198.447C314.081 198.734 314.094 198.984 314.094 199.197V202.713H312.789V190.322H313.859L314.031 191.588H314.094C314.26 191.327 314.464 191.09 314.703 190.877C314.943 190.658 315.234 190.486 315.578 190.361C315.927 190.231 316.339 190.166 316.812 190.166ZM316.586 191.26C315.992 191.26 315.513 191.374 315.148 191.604C314.789 191.833 314.526 192.176 314.359 192.635C314.193 193.088 314.104 193.658 314.094 194.346V194.596C314.094 195.32 314.172 195.932 314.328 196.432C314.49 196.932 314.753 197.312 315.117 197.572C315.487 197.833 315.982 197.963 316.602 197.963C317.133 197.963 317.576 197.82 317.93 197.533C318.284 197.247 318.547 196.848 318.719 196.338C318.896 195.822 318.984 195.231 318.984 194.564C318.984 193.554 318.786 192.752 318.391 192.158C318 191.559 317.398 191.26 316.586 191.26ZM323.891 198.885H322.586V186.729H323.891V198.885ZM334.016 194.588C334.016 195.291 333.924 195.919 333.742 196.471C333.56 197.023 333.297 197.489 332.953 197.869C332.609 198.249 332.193 198.541 331.703 198.744C331.219 198.942 330.669 199.041 330.055 199.041C329.482 199.041 328.956 198.942 328.477 198.744C328.003 198.541 327.591 198.249 327.242 197.869C326.898 197.489 326.63 197.023 326.438 196.471C326.25 195.919 326.156 195.291 326.156 194.588C326.156 193.65 326.315 192.854 326.633 192.197C326.951 191.536 327.404 191.033 327.992 190.689C328.586 190.34 329.292 190.166 330.109 190.166C330.891 190.166 331.573 190.34 332.156 190.689C332.745 191.038 333.201 191.544 333.523 192.205C333.852 192.861 334.016 193.656 334.016 194.588ZM327.5 194.588C327.5 195.275 327.591 195.872 327.773 196.377C327.956 196.882 328.237 197.273 328.617 197.549C328.997 197.825 329.487 197.963 330.086 197.963C330.68 197.963 331.167 197.825 331.547 197.549C331.932 197.273 332.216 196.882 332.398 196.377C332.581 195.872 332.672 195.275 332.672 194.588C332.672 193.906 332.581 193.317 332.398 192.822C332.216 192.322 331.935 191.937 331.555 191.666C331.174 191.395 330.682 191.26 330.078 191.26C329.188 191.26 328.534 191.554 328.117 192.143C327.706 192.731 327.5 193.546 327.5 194.588Z" fill="#5C6A7A"/>
</svg>
