<svg width="728" height="284" viewBox="0 0 728 284" fill="none" xmlns="http://www.w3.org/2000/svg">
<rect x="1" y="1.15723" width="726" height="281.091" rx="7" fill="white"/>
<rect x="1" y="1.15723" width="726" height="281.091" rx="7" stroke="#E6EBF0" stroke-width="2"/>
<rect x="186.5" y="40.1572" width="176" height="11" rx="4" fill="#F3F6F9"/>
<rect x="187.233" y="63.6177" width="16.125" height="16.125" rx="8.0625" fill="white"/>
<rect x="187.233" y="63.6177" width="16.125" height="16.125" rx="8.0625" stroke="#101E37" stroke-width="1.46591"/>
<rect x="209.955" y="66.1807" width="72" height="11" rx="4" fill="#F3F6F9"/>
<rect x="187.233" y="91.2085" width="16.125" height="16.125" rx="8.0625" fill="white"/>
<rect x="187.233" y="91.2085" width="16.125" height="16.125" rx="8.0625" stroke="#101E37" stroke-width="1.46591"/>
<rect x="209.955" y="93.7715" width="72" height="11" rx="4" fill="#F3F6F9"/>
<rect x="186.5" y="125.657" width="47" height="11" rx="4" fill="#F3F6F9"/>
<rect x="187.233" y="141.39" width="170.034" height="33.5341" rx="5.13068" fill="white"/>
<rect x="187.233" y="141.39" width="170.034" height="33.5341" rx="5.13068" stroke="#101E37" stroke-width="1.46591"/>
<rect x="198.228" y="153" width="139" height="11" rx="4" fill="#F3F6F9"/>
<rect x="370" y="125.657" width="47" height="11" rx="4" fill="#F3F6F9"/>
<rect x="370.733" y="141.39" width="170.034" height="33.5341" rx="5.13068" fill="white"/>
<rect x="370.733" y="141.39" width="170.034" height="33.5341" rx="5.13068" stroke="#101E37" stroke-width="1.46591"/>
<rect x="381.728" y="153" width="139" height="11" rx="4" fill="#F3F6F9"/>
<rect x="186.5" y="193.248" width="47" height="11" rx="4" fill="#F3F6F9"/>
<rect x="187.233" y="208.981" width="107.534" height="33.5341" rx="5.13068" fill="white"/>
<rect x="187.233" y="208.981" width="107.534" height="33.5341" rx="5.13068" stroke="#101E37" stroke-width="1.46591"/>
<rect x="198" y="220" width="86" height="11" rx="4" fill="#F3F6F9"/>
<rect x="307.5" y="193.248" width="47" height="11" rx="4" fill="#F3F6F9"/>
<rect x="308.233" y="208.981" width="188.534" height="33.5341" rx="5.13068" fill="white"/>
<rect x="308.233" y="208.981" width="188.534" height="33.5341" rx="5.13068" stroke="#101E37" stroke-width="1.46591"/>
<rect x="319.228" y="220" width="139" height="11" rx="4" fill="#F3F6F9"/>
</svg>
