<svg width="728" height="284" viewBox="0 0 728 284" fill="none" xmlns="http://www.w3.org/2000/svg">
<rect x="1" y="1.15723" width="726" height="281.091" rx="7" fill="white"/>
<rect x="1" y="1.15723" width="726" height="281.091" rx="7" stroke="#E6EBF0" stroke-width="2"/>
<rect x="104" y="40.1572" width="176" height="11" rx="4" fill="#E6EBF0"/>
<rect x="104.733" y="63.6177" width="16.125" height="16.125" rx="8.0625" fill="white"/>
<rect x="104.733" y="63.6177" width="16.125" height="16.125" rx="8.0625" stroke="#101E37" stroke-width="1.46591"/>
<rect x="127.455" y="66.1807" width="72" height="11" rx="4" fill="#E6EBF0"/>
<rect x="104.733" y="91.2085" width="16.125" height="16.125" rx="8.0625" fill="white"/>
<rect x="104.733" y="91.2085" width="16.125" height="16.125" rx="8.0625" stroke="#101E37" stroke-width="1.46591"/>
<rect x="127.455" y="93.7715" width="72" height="11" rx="4" fill="#E6EBF0"/>
<rect x="104" y="125.657" width="47" height="11" rx="4" fill="#E6EBF0"/>
<rect x="104.733" y="141.39" width="211.534" height="33.5341" rx="5.13068" fill="white"/>
<rect x="104.733" y="141.39" width="211.534" height="33.5341" rx="5.13068" stroke="#101E37" stroke-width="1.46591"/>
<rect x="115.728" y="152.657" width="139" height="11" rx="4" fill="#E6EBF0"/>
<rect x="329" y="125.657" width="47" height="11" rx="4" fill="#E6EBF0"/>
<rect x="329.733" y="141.39" width="211.534" height="33.5341" rx="5.13068" fill="white"/>
<rect x="329.733" y="141.39" width="211.534" height="33.5341" rx="5.13068" stroke="#101E37" stroke-width="1.46591"/>
<rect x="340.728" y="152.657" width="139" height="11" rx="4" fill="#E6EBF0"/>
<rect x="104" y="193.248" width="47" height="11" rx="4" fill="#E6EBF0"/>
<rect x="104.733" y="208.981" width="119.534" height="33.5341" rx="5.13068" fill="white"/>
<rect x="104.733" y="208.981" width="119.534" height="33.5341" rx="5.13068" stroke="#101E37" stroke-width="1.46591"/>
<rect x="115.727" y="220.248" width="90" height="11" rx="4" fill="#E6EBF0"/>
<rect x="237" y="193.248" width="47" height="11" rx="4" fill="#E6EBF0"/>
<rect x="237.733" y="208.981" width="119.534" height="33.5341" rx="5.13068" fill="white"/>
<rect x="237.733" y="208.981" width="119.534" height="33.5341" rx="5.13068" stroke="#101E37" stroke-width="1.46591"/>
<rect x="248.727" y="220.248" width="90" height="11" rx="4" fill="#E6EBF0"/>
<rect x="370" y="193.248" width="47" height="11" rx="4" fill="#E6EBF0"/>
<rect x="370.733" y="208.981" width="119.534" height="33.5341" rx="5.13068" fill="white"/>
<rect x="370.733" y="208.981" width="119.534" height="33.5341" rx="5.13068" stroke="#101E37" stroke-width="1.46591"/>
<rect x="381.727" y="220.248" width="90" height="11" rx="4" fill="#E6EBF0"/>
<rect x="503" y="193.248" width="47" height="11" rx="4" fill="#E6EBF0"/>
<rect x="503.733" y="208.981" width="119.534" height="33.5341" rx="5.13068" fill="white"/>
<rect x="503.733" y="208.981" width="119.534" height="33.5341" rx="5.13068" stroke="#101E37" stroke-width="1.46591"/>
<rect x="514.727" y="220.248" width="90" height="11" rx="4" fill="#E6EBF0"/>
</svg>
