<svg width="348" height="242" viewBox="0 0 348 242" fill="none" xmlns="http://www.w3.org/2000/svg">
<rect x="1" y="1" width="346" height="240" rx="7" fill="#F3F6F9"/>
<rect x="1" y="1" width="346" height="240" rx="7" stroke="#E6EBF0" stroke-width="2"/>
<rect x="123.5" y="101" width="101" height="40" rx="8" fill="#26874A"/>
<path d="M146.988 127.18C145.584 127.18 144.396 126.916 143.424 126.388C142.464 125.86 141.732 125.11 141.228 124.138C140.724 123.166 140.472 122.014 140.472 120.682C140.472 119.674 140.616 118.768 140.904 117.964C141.204 117.16 141.63 116.476 142.182 115.912C142.746 115.336 143.43 114.898 144.234 114.598C145.038 114.286 145.95 114.13 146.97 114.13C147.642 114.13 148.314 114.214 148.986 114.382C149.67 114.538 150.312 114.808 150.912 115.192C151.116 115.324 151.248 115.486 151.308 115.678C151.38 115.87 151.392 116.068 151.344 116.272C151.296 116.464 151.206 116.632 151.074 116.776C150.942 116.92 150.774 117.01 150.57 117.046C150.378 117.082 150.162 117.034 149.922 116.902C149.466 116.638 149.004 116.446 148.536 116.326C148.068 116.206 147.546 116.146 146.97 116.146C146.082 116.146 145.332 116.326 144.72 116.686C144.108 117.034 143.646 117.544 143.334 118.216C143.034 118.888 142.884 119.71 142.884 120.682C142.884 122.158 143.238 123.28 143.946 124.048C144.654 124.816 145.704 125.2 147.096 125.2C147.576 125.2 148.062 125.152 148.554 125.056C149.046 124.96 149.526 124.828 149.994 124.66L149.544 125.686V121.852H147.564C147.264 121.852 147.03 121.774 146.862 121.618C146.706 121.462 146.628 121.252 146.628 120.988C146.628 120.712 146.706 120.502 146.862 120.358C147.03 120.214 147.264 120.142 147.564 120.142H150.534C150.834 120.142 151.062 120.226 151.218 120.394C151.386 120.55 151.47 120.778 151.47 121.078V125.452C151.47 125.716 151.416 125.938 151.308 126.118C151.212 126.298 151.05 126.43 150.822 126.514C150.294 126.706 149.688 126.868 149.004 127C148.32 127.12 147.648 127.18 146.988 127.18ZM157.11 127.18C156.378 127.18 155.772 127.048 155.292 126.784C154.812 126.508 154.452 126.1 154.212 125.56C153.984 125.02 153.87 124.348 153.87 123.544V119.188C153.87 118.804 153.966 118.522 154.158 118.342C154.35 118.15 154.626 118.054 154.986 118.054C155.346 118.054 155.622 118.15 155.814 118.342C156.018 118.522 156.12 118.804 156.12 119.188V123.58C156.12 124.204 156.246 124.666 156.498 124.966C156.75 125.266 157.152 125.416 157.704 125.416C158.304 125.416 158.796 125.212 159.18 124.804C159.564 124.384 159.756 123.832 159.756 123.148V119.188C159.756 118.804 159.852 118.522 160.044 118.342C160.236 118.15 160.512 118.054 160.872 118.054C161.232 118.054 161.508 118.15 161.7 118.342C161.904 118.522 162.006 118.804 162.006 119.188V125.992C162.006 126.76 161.64 127.144 160.908 127.144C160.56 127.144 160.29 127.048 160.098 126.856C159.906 126.652 159.81 126.364 159.81 125.992V124.624L160.062 125.164C159.81 125.812 159.426 126.31 158.91 126.658C158.406 127.006 157.806 127.18 157.11 127.18ZM167.246 127.18C166.61 127.18 166.04 127.06 165.536 126.82C165.044 126.568 164.654 126.232 164.366 125.812C164.09 125.392 163.952 124.918 163.952 124.39C163.952 123.742 164.12 123.232 164.456 122.86C164.792 122.476 165.338 122.2 166.094 122.032C166.85 121.864 167.864 121.78 169.136 121.78H170.036V123.076H169.154C168.41 123.076 167.816 123.112 167.372 123.184C166.928 123.256 166.61 123.382 166.418 123.562C166.238 123.73 166.148 123.97 166.148 124.282C166.148 124.678 166.286 125.002 166.562 125.254C166.838 125.506 167.222 125.632 167.714 125.632C168.11 125.632 168.458 125.542 168.758 125.362C169.07 125.17 169.316 124.912 169.496 124.588C169.676 124.264 169.766 123.892 169.766 123.472V121.402C169.766 120.802 169.634 120.37 169.37 120.106C169.106 119.842 168.662 119.71 168.038 119.71C167.69 119.71 167.312 119.752 166.904 119.836C166.508 119.92 166.088 120.064 165.644 120.268C165.416 120.376 165.212 120.406 165.032 120.358C164.864 120.31 164.732 120.214 164.636 120.07C164.54 119.914 164.492 119.746 164.492 119.566C164.492 119.386 164.54 119.212 164.636 119.044C164.732 118.864 164.894 118.732 165.122 118.648C165.674 118.42 166.202 118.258 166.706 118.162C167.222 118.066 167.69 118.018 168.11 118.018C168.974 118.018 169.682 118.15 170.234 118.414C170.798 118.678 171.218 119.08 171.494 119.62C171.77 120.148 171.908 120.832 171.908 121.672V125.992C171.908 126.364 171.818 126.652 171.638 126.856C171.458 127.048 171.2 127.144 170.864 127.144C170.528 127.144 170.264 127.048 170.072 126.856C169.892 126.652 169.802 126.364 169.802 125.992V125.128H169.946C169.862 125.548 169.694 125.914 169.442 126.226C169.202 126.526 168.896 126.76 168.524 126.928C168.152 127.096 167.726 127.18 167.246 127.18ZM175.343 127.144C174.971 127.144 174.683 127.048 174.479 126.856C174.287 126.652 174.191 126.364 174.191 125.992V119.188C174.191 118.816 174.287 118.534 174.479 118.342C174.671 118.15 174.941 118.054 175.289 118.054C175.637 118.054 175.907 118.15 176.099 118.342C176.291 118.534 176.387 118.816 176.387 119.188V120.322H176.207C176.375 119.602 176.705 119.056 177.197 118.684C177.689 118.312 178.343 118.09 179.159 118.018C179.411 117.994 179.609 118.06 179.753 118.216C179.909 118.36 179.999 118.588 180.023 118.9C180.047 119.2 179.975 119.446 179.807 119.638C179.651 119.818 179.411 119.926 179.087 119.962L178.691 119.998C177.959 120.07 177.407 120.298 177.035 120.682C176.663 121.054 176.477 121.582 176.477 122.266V125.992C176.477 126.364 176.381 126.652 176.189 126.856C175.997 127.048 175.715 127.144 175.343 127.144ZM184.484 127.18C183.716 127.18 183.038 126.994 182.45 126.622C181.874 126.25 181.424 125.722 181.1 125.038C180.776 124.342 180.614 123.526 180.614 122.59C180.614 121.642 180.776 120.832 181.1 120.16C181.424 119.476 181.874 118.948 182.45 118.576C183.038 118.204 183.716 118.018 184.484 118.018C185.216 118.018 185.852 118.198 186.392 118.558C186.944 118.918 187.316 119.392 187.508 119.98H187.31V115.3C187.31 114.928 187.406 114.646 187.598 114.454C187.79 114.262 188.066 114.166 188.426 114.166C188.786 114.166 189.062 114.262 189.254 114.454C189.458 114.646 189.56 114.928 189.56 115.3V125.992C189.56 126.364 189.464 126.652 189.272 126.856C189.08 127.048 188.804 127.144 188.444 127.144C188.084 127.144 187.808 127.048 187.616 126.856C187.424 126.652 187.328 126.364 187.328 125.992V124.588L187.526 125.128C187.346 125.752 186.98 126.25 186.428 126.622C185.876 126.994 185.228 127.18 184.484 127.18ZM185.114 125.47C185.558 125.47 185.948 125.362 186.284 125.146C186.62 124.93 186.878 124.612 187.058 124.192C187.25 123.76 187.346 123.226 187.346 122.59C187.346 121.63 187.142 120.916 186.734 120.448C186.326 119.968 185.786 119.728 185.114 119.728C184.67 119.728 184.28 119.836 183.944 120.052C183.608 120.256 183.344 120.574 183.152 121.006C182.972 121.426 182.882 121.954 182.882 122.59C182.882 123.538 183.086 124.258 183.494 124.75C183.902 125.23 184.442 125.47 185.114 125.47ZM194.791 127.18C194.155 127.18 193.585 127.06 193.081 126.82C192.589 126.568 192.199 126.232 191.911 125.812C191.635 125.392 191.497 124.918 191.497 124.39C191.497 123.742 191.665 123.232 192.001 122.86C192.337 122.476 192.883 122.2 193.639 122.032C194.395 121.864 195.409 121.78 196.681 121.78H197.581V123.076H196.699C195.955 123.076 195.361 123.112 194.917 123.184C194.473 123.256 194.155 123.382 193.963 123.562C193.783 123.73 193.693 123.97 193.693 124.282C193.693 124.678 193.831 125.002 194.107 125.254C194.383 125.506 194.767 125.632 195.259 125.632C195.655 125.632 196.003 125.542 196.303 125.362C196.615 125.17 196.861 124.912 197.041 124.588C197.221 124.264 197.311 123.892 197.311 123.472V121.402C197.311 120.802 197.179 120.37 196.915 120.106C196.651 119.842 196.207 119.71 195.583 119.71C195.235 119.71 194.857 119.752 194.449 119.836C194.053 119.92 193.633 120.064 193.189 120.268C192.961 120.376 192.757 120.406 192.577 120.358C192.409 120.31 192.277 120.214 192.181 120.07C192.085 119.914 192.037 119.746 192.037 119.566C192.037 119.386 192.085 119.212 192.181 119.044C192.277 118.864 192.439 118.732 192.667 118.648C193.219 118.42 193.747 118.258 194.251 118.162C194.767 118.066 195.235 118.018 195.655 118.018C196.519 118.018 197.227 118.15 197.779 118.414C198.343 118.678 198.763 119.08 199.039 119.62C199.315 120.148 199.453 120.832 199.453 121.672V125.992C199.453 126.364 199.363 126.652 199.183 126.856C199.003 127.048 198.745 127.144 198.409 127.144C198.073 127.144 197.809 127.048 197.617 126.856C197.437 126.652 197.347 126.364 197.347 125.992V125.128H197.491C197.407 125.548 197.239 125.914 196.987 126.226C196.747 126.526 196.441 126.76 196.069 126.928C195.697 127.096 195.271 127.18 194.791 127.18ZM202.888 127.144C202.516 127.144 202.228 127.048 202.024 126.856C201.832 126.652 201.736 126.364 201.736 125.992V119.188C201.736 118.816 201.832 118.534 202.024 118.342C202.216 118.15 202.486 118.054 202.834 118.054C203.182 118.054 203.452 118.15 203.644 118.342C203.836 118.534 203.932 118.816 203.932 119.188V120.322H203.752C203.92 119.602 204.25 119.056 204.742 118.684C205.234 118.312 205.888 118.09 206.704 118.018C206.956 117.994 207.154 118.06 207.298 118.216C207.454 118.36 207.544 118.588 207.568 118.9C207.592 119.2 207.52 119.446 207.352 119.638C207.196 119.818 206.956 119.926 206.632 119.962L206.236 119.998C205.504 120.07 204.952 120.298 204.58 120.682C204.208 121.054 204.022 121.582 204.022 122.266V125.992C204.022 126.364 203.926 126.652 203.734 126.856C203.542 127.048 203.26 127.144 202.888 127.144Z" fill="white"/>
</svg>
