<svg width="348" height="242" viewBox="0 0 348 242" fill="none" xmlns="http://www.w3.org/2000/svg">
<rect width="348" height="242" rx="8" fill="#F3F6F9"/>
<rect x="111" y="102" width="126" height="38" rx="7" stroke="#101E37" stroke-width="2"/>
<path d="M138 117.061V124.996C138 126.563 136.852 127.958 135.293 128.108C133.5 128.281 132 126.878 132 125.123V115.853C132 114.871 132.705 113.978 133.68 113.881C134.805 113.768 135.75 114.646 135.75 115.748V123.623C135.75 124.036 135.412 124.373 135 124.373C134.588 124.373 134.25 124.036 134.25 123.623V117.061C134.25 116.753 133.995 116.498 133.688 116.498C133.38 116.498 133.125 116.753 133.125 117.061V123.518C133.125 124.501 133.83 125.393 134.805 125.491C135.93 125.603 136.875 124.726 136.875 123.623V115.876C136.875 114.308 135.727 112.913 134.168 112.763C132.383 112.591 130.875 113.993 130.875 115.748V124.951C130.875 127.103 132.45 129.031 134.595 129.233C137.062 129.458 139.125 127.538 139.125 125.123V117.061C139.125 116.753 138.87 116.498 138.562 116.498C138.255 116.498 138 116.753 138 117.061Z" fill="#101E37"/>
<path d="M149.512 127.144C149.224 127.144 148.99 127.078 148.81 126.946C148.642 126.814 148.54 126.64 148.504 126.424C148.468 126.196 148.51 125.944 148.63 125.668L153.382 115.138C153.538 114.79 153.724 114.544 153.94 114.4C154.168 114.244 154.426 114.166 154.714 114.166C154.99 114.166 155.236 114.244 155.452 114.4C155.68 114.544 155.872 114.79 156.028 115.138L160.798 125.668C160.93 125.944 160.978 126.196 160.942 126.424C160.906 126.652 160.804 126.832 160.636 126.964C160.468 127.084 160.246 127.144 159.97 127.144C159.634 127.144 159.37 127.066 159.178 126.91C158.998 126.742 158.836 126.49 158.692 126.154L157.522 123.436L158.494 124.066H150.898L151.87 123.436L150.718 126.154C150.562 126.502 150.4 126.754 150.232 126.91C150.064 127.066 149.824 127.144 149.512 127.144ZM154.678 116.812L152.158 122.806L151.69 122.23H157.702L157.252 122.806L154.714 116.812H154.678ZM165.861 127.18C165.093 127.18 164.415 126.994 163.827 126.622C163.251 126.25 162.801 125.722 162.477 125.038C162.153 124.342 161.991 123.526 161.991 122.59C161.991 121.642 162.153 120.832 162.477 120.16C162.801 119.476 163.251 118.948 163.827 118.576C164.415 118.204 165.093 118.018 165.861 118.018C166.593 118.018 167.229 118.198 167.769 118.558C168.321 118.918 168.693 119.392 168.885 119.98H168.687V115.3C168.687 114.928 168.783 114.646 168.975 114.454C169.167 114.262 169.443 114.166 169.803 114.166C170.163 114.166 170.439 114.262 170.631 114.454C170.835 114.646 170.937 114.928 170.937 115.3V125.992C170.937 126.364 170.841 126.652 170.649 126.856C170.457 127.048 170.181 127.144 169.821 127.144C169.461 127.144 169.185 127.048 168.993 126.856C168.801 126.652 168.705 126.364 168.705 125.992V124.588L168.903 125.128C168.723 125.752 168.357 126.25 167.805 126.622C167.253 126.994 166.605 127.18 165.861 127.18ZM166.491 125.47C166.935 125.47 167.325 125.362 167.661 125.146C167.997 124.93 168.255 124.612 168.435 124.192C168.627 123.76 168.723 123.226 168.723 122.59C168.723 121.63 168.519 120.916 168.111 120.448C167.703 119.968 167.163 119.728 166.491 119.728C166.047 119.728 165.657 119.836 165.321 120.052C164.985 120.256 164.721 120.574 164.529 121.006C164.349 121.426 164.259 121.954 164.259 122.59C164.259 123.538 164.463 124.258 164.871 124.75C165.279 125.23 165.819 125.47 166.491 125.47ZM172.19 130.402C171.926 130.426 171.71 130.384 171.542 130.276C171.374 130.18 171.26 130.054 171.2 129.898C171.128 129.742 171.104 129.58 171.128 129.412C171.152 129.244 171.224 129.094 171.344 128.962C171.452 128.842 171.602 128.776 171.794 128.764C172.334 128.716 172.724 128.56 172.964 128.296C173.216 128.044 173.342 127.654 173.342 127.126V119.188C173.342 118.816 173.438 118.534 173.63 118.342C173.834 118.15 174.116 118.054 174.476 118.054C174.836 118.054 175.112 118.15 175.304 118.342C175.496 118.534 175.592 118.816 175.592 119.188V126.928C175.592 127.696 175.466 128.326 175.214 128.818C174.974 129.31 174.602 129.682 174.098 129.934C173.606 130.186 172.97 130.342 172.19 130.402ZM174.458 116.398C174.038 116.398 173.708 116.296 173.468 116.092C173.24 115.876 173.126 115.582 173.126 115.21C173.126 114.826 173.24 114.532 173.468 114.328C173.708 114.124 174.038 114.022 174.458 114.022C174.89 114.022 175.22 114.124 175.448 114.328C175.676 114.532 175.79 114.826 175.79 115.21C175.79 115.582 175.676 115.876 175.448 116.092C175.22 116.296 174.89 116.398 174.458 116.398ZM181.114 127.18C180.382 127.18 179.776 127.048 179.296 126.784C178.816 126.508 178.456 126.1 178.216 125.56C177.988 125.02 177.874 124.348 177.874 123.544V119.188C177.874 118.804 177.97 118.522 178.162 118.342C178.354 118.15 178.63 118.054 178.99 118.054C179.35 118.054 179.626 118.15 179.818 118.342C180.022 118.522 180.124 118.804 180.124 119.188V123.58C180.124 124.204 180.25 124.666 180.502 124.966C180.754 125.266 181.156 125.416 181.708 125.416C182.308 125.416 182.8 125.212 183.184 124.804C183.568 124.384 183.76 123.832 183.76 123.148V119.188C183.76 118.804 183.856 118.522 184.048 118.342C184.24 118.15 184.516 118.054 184.876 118.054C185.236 118.054 185.512 118.15 185.704 118.342C185.908 118.522 186.01 118.804 186.01 119.188V125.992C186.01 126.76 185.644 127.144 184.912 127.144C184.564 127.144 184.294 127.048 184.102 126.856C183.91 126.652 183.814 126.364 183.814 125.992V124.624L184.066 125.164C183.814 125.812 183.43 126.31 182.914 126.658C182.41 127.006 181.81 127.18 181.114 127.18ZM189.468 127.144C189.108 127.144 188.832 127.048 188.64 126.856C188.448 126.652 188.352 126.364 188.352 125.992V119.188C188.352 118.816 188.448 118.534 188.64 118.342C188.832 118.15 189.102 118.054 189.45 118.054C189.798 118.054 190.068 118.15 190.26 118.342C190.452 118.534 190.548 118.816 190.548 119.188V120.412L190.35 119.962C190.614 119.326 191.022 118.846 191.574 118.522C192.138 118.186 192.774 118.018 193.482 118.018C194.19 118.018 194.772 118.15 195.228 118.414C195.684 118.678 196.026 119.08 196.254 119.62C196.482 120.148 196.596 120.82 196.596 121.636V125.992C196.596 126.364 196.5 126.652 196.308 126.856C196.116 127.048 195.84 127.144 195.48 127.144C195.12 127.144 194.838 127.048 194.634 126.856C194.442 126.652 194.346 126.364 194.346 125.992V121.744C194.346 121.06 194.214 120.562 193.95 120.25C193.698 119.938 193.302 119.782 192.762 119.782C192.102 119.782 191.574 119.992 191.178 120.412C190.794 120.82 190.602 121.366 190.602 122.05V125.992C190.602 126.76 190.224 127.144 189.468 127.144ZM202.913 127.18C202.133 127.18 201.479 127.048 200.951 126.784C200.435 126.52 200.051 126.136 199.799 125.632C199.547 125.116 199.421 124.48 199.421 123.724V119.89H198.485C198.197 119.89 197.975 119.818 197.819 119.674C197.663 119.518 197.585 119.308 197.585 119.044C197.585 118.768 197.663 118.558 197.819 118.414C197.975 118.27 198.197 118.198 198.485 118.198H199.421V116.56C199.421 116.188 199.517 115.906 199.709 115.714C199.913 115.522 200.195 115.426 200.555 115.426C200.915 115.426 201.191 115.522 201.383 115.714C201.575 115.906 201.671 116.188 201.671 116.56V118.198H203.579C203.867 118.198 204.089 118.27 204.245 118.414C204.401 118.558 204.479 118.768 204.479 119.044C204.479 119.308 204.401 119.518 204.245 119.674C204.089 119.818 203.867 119.89 203.579 119.89H201.671V123.598C201.671 124.174 201.797 124.606 202.049 124.894C202.301 125.182 202.709 125.326 203.273 125.326C203.477 125.326 203.657 125.308 203.813 125.272C203.969 125.236 204.107 125.212 204.227 125.2C204.371 125.188 204.491 125.236 204.587 125.344C204.683 125.44 204.731 125.644 204.731 125.956C204.731 126.196 204.689 126.412 204.605 126.604C204.533 126.784 204.395 126.91 204.191 126.982C204.035 127.03 203.831 127.072 203.579 127.108C203.327 127.156 203.105 127.18 202.913 127.18ZM208.687 127.18C208.051 127.18 207.481 127.06 206.977 126.82C206.485 126.568 206.095 126.232 205.807 125.812C205.531 125.392 205.393 124.918 205.393 124.39C205.393 123.742 205.561 123.232 205.897 122.86C206.233 122.476 206.779 122.2 207.535 122.032C208.291 121.864 209.305 121.78 210.577 121.78H211.477V123.076H210.595C209.851 123.076 209.257 123.112 208.813 123.184C208.369 123.256 208.051 123.382 207.859 123.562C207.679 123.73 207.589 123.97 207.589 124.282C207.589 124.678 207.727 125.002 208.003 125.254C208.279 125.506 208.663 125.632 209.155 125.632C209.551 125.632 209.899 125.542 210.199 125.362C210.511 125.17 210.757 124.912 210.937 124.588C211.117 124.264 211.207 123.892 211.207 123.472V121.402C211.207 120.802 211.075 120.37 210.811 120.106C210.547 119.842 210.103 119.71 209.479 119.71C209.131 119.71 208.753 119.752 208.345 119.836C207.949 119.92 207.529 120.064 207.085 120.268C206.857 120.376 206.653 120.406 206.473 120.358C206.305 120.31 206.173 120.214 206.077 120.07C205.981 119.914 205.933 119.746 205.933 119.566C205.933 119.386 205.981 119.212 206.077 119.044C206.173 118.864 206.335 118.732 206.563 118.648C207.115 118.42 207.643 118.258 208.147 118.162C208.663 118.066 209.131 118.018 209.551 118.018C210.415 118.018 211.123 118.15 211.675 118.414C212.239 118.678 212.659 119.08 212.935 119.62C213.211 120.148 213.349 120.832 213.349 121.672V125.992C213.349 126.364 213.259 126.652 213.079 126.856C212.899 127.048 212.641 127.144 212.305 127.144C211.969 127.144 211.705 127.048 211.513 126.856C211.333 126.652 211.243 126.364 211.243 125.992V125.128H211.387C211.303 125.548 211.135 125.914 210.883 126.226C210.643 126.526 210.337 126.76 209.965 126.928C209.593 127.096 209.167 127.18 208.687 127.18ZM216.785 127.144C216.413 127.144 216.125 127.048 215.921 126.856C215.729 126.652 215.633 126.364 215.633 125.992V119.188C215.633 118.816 215.729 118.534 215.921 118.342C216.113 118.15 216.383 118.054 216.731 118.054C217.079 118.054 217.349 118.15 217.541 118.342C217.733 118.534 217.829 118.816 217.829 119.188V120.322H217.649C217.817 119.602 218.147 119.056 218.639 118.684C219.131 118.312 219.785 118.09 220.601 118.018C220.853 117.994 221.051 118.06 221.195 118.216C221.351 118.36 221.441 118.588 221.465 118.9C221.489 119.2 221.417 119.446 221.249 119.638C221.093 119.818 220.853 119.926 220.529 119.962L220.133 119.998C219.401 120.07 218.849 120.298 218.477 120.682C218.105 121.054 217.919 121.582 217.919 122.266V125.992C217.919 126.364 217.823 126.652 217.631 126.856C217.439 127.048 217.157 127.144 216.785 127.144Z" fill="#101E37"/>
</svg>
