<svg width="348" height="242" viewBox="0 0 348 242" fill="none" xmlns="http://www.w3.org/2000/svg">
<rect x="1" y="1" width="346" height="240" rx="7" fill="#F3F6F9"/>
<rect x="1" y="1" width="346" height="240" rx="7" stroke="#E6EBF0" stroke-width="2"/>
<rect x="112" y="101" width="124" height="40" rx="8" fill="#26874A"/>
<path d="M135.488 127.18C134.084 127.18 132.896 126.916 131.924 126.388C130.964 125.86 130.232 125.11 129.728 124.138C129.224 123.166 128.972 122.014 128.972 120.682C128.972 119.674 129.116 118.768 129.404 117.964C129.704 117.16 130.13 116.476 130.682 115.912C131.246 115.336 131.93 114.898 132.734 114.598C133.538 114.286 134.45 114.13 135.47 114.13C136.142 114.13 136.814 114.214 137.486 114.382C138.17 114.538 138.812 114.808 139.412 115.192C139.616 115.324 139.748 115.486 139.808 115.678C139.88 115.87 139.892 116.068 139.844 116.272C139.796 116.464 139.706 116.632 139.574 116.776C139.442 116.92 139.274 117.01 139.07 117.046C138.878 117.082 138.662 117.034 138.422 116.902C137.966 116.638 137.504 116.446 137.036 116.326C136.568 116.206 136.046 116.146 135.47 116.146C134.582 116.146 133.832 116.326 133.22 116.686C132.608 117.034 132.146 117.544 131.834 118.216C131.534 118.888 131.384 119.71 131.384 120.682C131.384 122.158 131.738 123.28 132.446 124.048C133.154 124.816 134.204 125.2 135.596 125.2C136.076 125.2 136.562 125.152 137.054 125.056C137.546 124.96 138.026 124.828 138.494 124.66L138.044 125.686V121.852H136.064C135.764 121.852 135.53 121.774 135.362 121.618C135.206 121.462 135.128 121.252 135.128 120.988C135.128 120.712 135.206 120.502 135.362 120.358C135.53 120.214 135.764 120.142 136.064 120.142H139.034C139.334 120.142 139.562 120.226 139.718 120.394C139.886 120.55 139.97 120.778 139.97 121.078V125.452C139.97 125.716 139.916 125.938 139.808 126.118C139.712 126.298 139.55 126.43 139.322 126.514C138.794 126.706 138.188 126.868 137.504 127C136.82 127.12 136.148 127.18 135.488 127.18ZM147.914 127.18C147.038 127.18 146.264 127.066 145.592 126.838C144.932 126.61 144.374 126.274 143.918 125.83C143.462 125.374 143.12 124.81 142.892 124.138C142.664 123.466 142.55 122.686 142.55 121.798V115.336C142.55 114.94 142.646 114.646 142.838 114.454C143.042 114.262 143.33 114.166 143.702 114.166C144.074 114.166 144.356 114.262 144.548 114.454C144.752 114.646 144.854 114.94 144.854 115.336V121.78C144.854 122.92 145.112 123.778 145.628 124.354C146.156 124.918 146.918 125.2 147.914 125.2C148.91 125.2 149.666 124.918 150.182 124.354C150.698 123.778 150.956 122.92 150.956 121.78V115.336C150.956 114.94 151.052 114.646 151.244 114.454C151.448 114.262 151.736 114.166 152.108 114.166C152.468 114.166 152.744 114.262 152.936 114.454C153.14 114.646 153.242 114.94 153.242 115.336V121.798C153.242 122.974 153.038 123.964 152.63 124.768C152.234 125.572 151.64 126.178 150.848 126.586C150.056 126.982 149.078 127.18 147.914 127.18ZM155.967 127.144C155.679 127.144 155.445 127.078 155.265 126.946C155.097 126.814 154.995 126.64 154.959 126.424C154.923 126.196 154.965 125.944 155.085 125.668L159.837 115.138C159.993 114.79 160.179 114.544 160.395 114.4C160.623 114.244 160.881 114.166 161.169 114.166C161.445 114.166 161.691 114.244 161.907 114.4C162.135 114.544 162.327 114.79 162.483 115.138L167.253 125.668C167.385 125.944 167.433 126.196 167.397 126.424C167.361 126.652 167.259 126.832 167.091 126.964C166.923 127.084 166.701 127.144 166.425 127.144C166.089 127.144 165.825 127.066 165.633 126.91C165.453 126.742 165.291 126.49 165.147 126.154L163.977 123.436L164.949 124.066H157.353L158.325 123.436L157.173 126.154C157.017 126.502 156.855 126.754 156.687 126.91C156.519 127.066 156.279 127.144 155.967 127.144ZM161.133 116.812L158.613 122.806L158.145 122.23H164.157L163.707 122.806L161.169 116.812H161.133ZM170.388 127.144C170.016 127.144 169.728 127.042 169.524 126.838C169.332 126.622 169.236 126.328 169.236 125.956V115.48C169.236 115.096 169.338 114.808 169.542 114.616C169.746 114.412 170.034 114.31 170.406 114.31H174.744C176.136 114.31 177.21 114.646 177.966 115.318C178.722 115.978 179.1 116.908 179.1 118.108C179.1 118.888 178.926 119.56 178.578 120.124C178.242 120.688 177.75 121.12 177.102 121.42C176.454 121.72 175.668 121.87 174.744 121.87L174.906 121.6H175.5C175.992 121.6 176.418 121.72 176.778 121.96C177.15 122.2 177.474 122.578 177.75 123.094L179.1 125.596C179.244 125.848 179.31 126.094 179.298 126.334C179.286 126.574 179.196 126.772 179.028 126.928C178.86 127.072 178.614 127.144 178.29 127.144C177.966 127.144 177.702 127.078 177.498 126.946C177.294 126.802 177.114 126.586 176.958 126.298L175.14 122.95C174.924 122.542 174.666 122.272 174.366 122.14C174.078 121.996 173.706 121.924 173.25 121.924H171.54V125.956C171.54 126.328 171.444 126.622 171.252 126.838C171.06 127.042 170.772 127.144 170.388 127.144ZM171.54 120.214H174.348C175.176 120.214 175.8 120.046 176.22 119.71C176.652 119.362 176.868 118.846 176.868 118.162C176.868 117.49 176.652 116.986 176.22 116.65C175.8 116.302 175.176 116.128 174.348 116.128H171.54V120.214ZM182.799 127C182.403 127 182.097 126.898 181.881 126.694C181.677 126.478 181.575 126.172 181.575 125.776V115.534C181.575 115.138 181.677 114.838 181.881 114.634C182.097 114.418 182.403 114.31 182.799 114.31H186.291C188.415 114.31 190.053 114.856 191.205 115.948C192.369 117.04 192.951 118.606 192.951 120.646C192.951 121.666 192.801 122.572 192.501 123.364C192.213 124.144 191.781 124.804 191.205 125.344C190.641 125.884 189.945 126.298 189.117 126.586C188.301 126.862 187.359 127 186.291 127H182.799ZM183.879 125.092H186.147C186.891 125.092 187.533 125.002 188.073 124.822C188.625 124.63 189.081 124.354 189.441 123.994C189.813 123.622 190.089 123.16 190.269 122.608C190.449 122.044 190.539 121.39 190.539 120.646C190.539 119.158 190.173 118.048 189.441 117.316C188.709 116.584 187.611 116.218 186.147 116.218H183.879V125.092ZM195.149 127.144C194.861 127.144 194.627 127.078 194.447 126.946C194.279 126.814 194.177 126.64 194.141 126.424C194.105 126.196 194.147 125.944 194.267 125.668L199.019 115.138C199.175 114.79 199.361 114.544 199.577 114.4C199.805 114.244 200.063 114.166 200.351 114.166C200.627 114.166 200.873 114.244 201.089 114.4C201.317 114.544 201.509 114.79 201.665 115.138L206.435 125.668C206.567 125.944 206.615 126.196 206.579 126.424C206.543 126.652 206.441 126.832 206.273 126.964C206.105 127.084 205.883 127.144 205.607 127.144C205.271 127.144 205.007 127.066 204.815 126.91C204.635 126.742 204.473 126.49 204.329 126.154L203.159 123.436L204.131 124.066H196.535L197.507 123.436L196.355 126.154C196.199 126.502 196.037 126.754 195.869 126.91C195.701 127.066 195.461 127.144 195.149 127.144ZM200.315 116.812L197.795 122.806L197.327 122.23H203.339L202.889 122.806L200.351 116.812H200.315ZM209.569 127.144C209.197 127.144 208.909 127.042 208.705 126.838C208.513 126.622 208.417 126.328 208.417 125.956V115.48C208.417 115.096 208.519 114.808 208.723 114.616C208.927 114.412 209.215 114.31 209.587 114.31H213.925C215.317 114.31 216.391 114.646 217.147 115.318C217.903 115.978 218.281 116.908 218.281 118.108C218.281 118.888 218.107 119.56 217.759 120.124C217.423 120.688 216.931 121.12 216.283 121.42C215.635 121.72 214.849 121.87 213.925 121.87L214.087 121.6H214.681C215.173 121.6 215.599 121.72 215.959 121.96C216.331 122.2 216.655 122.578 216.931 123.094L218.281 125.596C218.425 125.848 218.491 126.094 218.479 126.334C218.467 126.574 218.377 126.772 218.209 126.928C218.041 127.072 217.795 127.144 217.471 127.144C217.147 127.144 216.883 127.078 216.679 126.946C216.475 126.802 216.295 126.586 216.139 126.298L214.321 122.95C214.105 122.542 213.847 122.272 213.547 122.14C213.259 121.996 212.887 121.924 212.431 121.924H210.721V125.956C210.721 126.328 210.625 126.622 210.433 126.838C210.241 127.042 209.953 127.144 209.569 127.144ZM210.721 120.214H213.529C214.357 120.214 214.981 120.046 215.401 119.71C215.833 119.362 216.049 118.846 216.049 118.162C216.049 117.49 215.833 116.986 215.401 116.65C214.981 116.302 214.357 116.128 213.529 116.128H210.721V120.214Z" fill="white"/>
</svg>
