<svg width="348" height="242" viewBox="0 0 348 242" fill="none" xmlns="http://www.w3.org/2000/svg">
<rect x="1" y="1" width="346" height="240" rx="7" fill="#EDF4FF"/>
<rect x="1" y="1" width="346" height="240" rx="7" stroke="#D6E4F6" stroke-width="2"/>
<path d="M111 121C111 109.954 119.954 101 131 101H217C228.046 101 237 109.954 237 121C237 132.046 228.046 141 217 141H131C119.954 141 111 132.046 111 121Z" fill="#00642F"/>
<path d="M133.984 127.216C132.04 127.216 130.54 126.7 129.484 125.668C128.44 124.624 127.918 123.01 127.918 120.826C127.918 119.374 128.17 118.18 128.674 117.244C129.178 116.296 129.91 115.594 130.87 115.138C131.83 114.67 132.982 114.436 134.326 114.436C135.13 114.436 135.886 114.526 136.594 114.706C137.302 114.886 137.926 115.162 138.466 115.534C139.018 115.906 139.444 116.374 139.744 116.938C140.056 117.49 140.212 118.15 140.212 118.918H137.494C137.494 118.546 137.41 118.216 137.242 117.928C137.086 117.64 136.864 117.4 136.576 117.208C136.288 117.016 135.958 116.872 135.586 116.776C135.214 116.68 134.824 116.632 134.416 116.632C133.792 116.632 133.246 116.716 132.778 116.884C132.31 117.04 131.92 117.286 131.608 117.622C131.308 117.946 131.08 118.354 130.924 118.846C130.768 119.338 130.69 119.908 130.69 120.556V121.096C130.69 121.996 130.822 122.734 131.086 123.31C131.35 123.886 131.746 124.318 132.274 124.606C132.802 124.882 133.456 125.02 134.236 125.02C134.884 125.02 135.454 124.924 135.946 124.732C136.45 124.528 136.84 124.24 137.116 123.868C137.404 123.496 137.548 123.04 137.548 122.5V122.374H133.858V120.322H140.212V127H138.448L138.214 125.668C137.854 126.016 137.464 126.304 137.044 126.532C136.636 126.76 136.18 126.928 135.676 127.036C135.172 127.156 134.608 127.216 133.984 127.216ZM148.146 127.216C147.018 127.216 146.046 127.036 145.23 126.676C144.426 126.316 143.808 125.776 143.376 125.056C142.944 124.324 142.728 123.418 142.728 122.338V114.652H145.428V122.266C145.428 123.154 145.662 123.838 146.13 124.318C146.598 124.786 147.27 125.02 148.146 125.02C149.022 125.02 149.694 124.786 150.162 124.318C150.642 123.838 150.882 123.154 150.882 122.266V114.652H153.582V122.338C153.582 123.418 153.366 124.324 152.934 125.056C152.502 125.776 151.878 126.316 151.062 126.676C150.258 127.036 149.286 127.216 148.146 127.216ZM154.741 127L159.493 114.652H162.805L167.557 127H164.659L163.777 124.57H158.395L157.513 127H154.741ZM159.169 122.41H163.003L161.905 119.368C161.857 119.236 161.797 119.08 161.725 118.9C161.665 118.708 161.599 118.498 161.527 118.27C161.455 118.042 161.383 117.82 161.311 117.604C161.251 117.376 161.191 117.172 161.131 116.992H161.023C160.963 117.22 160.885 117.49 160.789 117.802C160.693 118.102 160.597 118.396 160.501 118.684C160.405 118.96 160.327 119.188 160.267 119.368L159.169 122.41ZM169.026 127V114.652H175.794C176.706 114.652 177.462 114.814 178.062 115.138C178.674 115.462 179.13 115.918 179.43 116.506C179.73 117.082 179.88 117.748 179.88 118.504C179.88 119.308 179.7 120.022 179.34 120.646C178.98 121.258 178.458 121.726 177.774 122.05L180.294 127H177.324L175.146 122.5H171.708V127H169.026ZM171.708 120.376H175.434C175.974 120.376 176.394 120.214 176.694 119.89C176.994 119.554 177.144 119.104 177.144 118.54C177.144 118.18 177.078 117.874 176.946 117.622C176.814 117.358 176.622 117.16 176.37 117.028C176.118 116.896 175.806 116.83 175.434 116.83H171.708V120.376ZM182.175 127V114.652H187.215C188.499 114.652 189.591 114.874 190.491 115.318C191.391 115.762 192.081 116.44 192.561 117.352C193.053 118.252 193.299 119.41 193.299 120.826C193.299 122.23 193.053 123.388 192.561 124.3C192.081 125.212 191.391 125.89 190.491 126.334C189.591 126.778 188.499 127 187.215 127H182.175ZM184.857 124.786H187.197C187.737 124.786 188.217 124.708 188.637 124.552C189.057 124.396 189.405 124.168 189.681 123.868C189.957 123.556 190.167 123.172 190.311 122.716C190.455 122.248 190.527 121.708 190.527 121.096V120.556C190.527 119.944 190.455 119.41 190.311 118.954C190.167 118.486 189.957 118.102 189.681 117.802C189.405 117.49 189.057 117.256 188.637 117.1C188.217 116.932 187.737 116.848 187.197 116.848H184.857V124.786ZM193.94 127L198.692 114.652H202.004L206.756 127H203.858L202.976 124.57H197.594L196.712 127H193.94ZM198.368 122.41H202.202L201.104 119.368C201.056 119.236 200.996 119.08 200.924 118.9C200.864 118.708 200.798 118.498 200.726 118.27C200.654 118.042 200.582 117.82 200.51 117.604C200.45 117.376 200.39 117.172 200.33 116.992H200.222C200.162 117.22 200.084 117.49 199.988 117.802C199.892 118.102 199.796 118.396 199.7 118.684C199.604 118.96 199.526 119.188 199.466 119.368L198.368 122.41ZM208.225 127V114.652H214.993C215.905 114.652 216.661 114.814 217.261 115.138C217.873 115.462 218.329 115.918 218.629 116.506C218.929 117.082 219.079 117.748 219.079 118.504C219.079 119.308 218.899 120.022 218.539 120.646C218.179 121.258 217.657 121.726 216.973 122.05L219.493 127H216.523L214.345 122.5H210.907V127H208.225ZM210.907 120.376H214.633C215.173 120.376 215.593 120.214 215.893 119.89C216.193 119.554 216.343 119.104 216.343 118.54C216.343 118.18 216.277 117.874 216.145 117.622C216.013 117.358 215.821 117.16 215.569 117.028C215.317 116.896 215.005 116.83 214.633 116.83H210.907V120.376Z" fill="white"/>
</svg>
