<svg width="728" height="297" viewBox="0 0 728 297" fill="none" xmlns="http://www.w3.org/2000/svg">
<rect y="0.507324" width="728" height="296" rx="8" fill="#F3F6F9"/>
<rect x="189" y="31.5073" width="350" height="234" rx="9" fill="white"/>
<rect x="189" y="31.5073" width="350" height="234" rx="9" stroke="#E6EBF0" stroke-width="2"/>
<rect x="214" y="56.5073" width="130" height="24" rx="4" fill="#B8C1CC"/>
<line x1="214" y1="88.0073" x2="514" y2="88.0073" stroke="#E6EBF0"/>
<rect x="214.5" y="97.0073" width="299" height="23" rx="3.77" fill="#E6EBF0" stroke="#E6EBF0"/>
<rect x="214.5" y="129.007" width="299" height="23" rx="3.77" fill="#E6EBF0" stroke="#E6EBF0"/>
<rect x="214.5" y="161.007" width="133" height="23" rx="3.77" fill="#E6EBF0" stroke="#E6EBF0"/>
<rect x="296" y="201.507" width="104" height="38" rx="7" stroke="#101E37" stroke-width="2"/>
<path d="M318.29 226.687C316.97 226.687 315.836 226.423 314.888 225.895C313.952 225.355 313.232 224.599 312.728 223.627C312.224 222.643 311.972 221.485 311.972 220.153C311.972 219.157 312.116 218.263 312.404 217.471C312.692 216.667 313.106 215.983 313.646 215.419C314.186 214.843 314.846 214.405 315.626 214.105C316.418 213.793 317.306 213.637 318.29 213.637C318.95 213.637 319.598 213.721 320.234 213.889C320.87 214.057 321.428 214.297 321.908 214.609C322.16 214.765 322.328 214.957 322.412 215.185C322.496 215.401 322.514 215.617 322.466 215.833C322.418 216.037 322.316 216.211 322.16 216.355C322.016 216.499 321.83 216.583 321.602 216.607C321.386 216.619 321.146 216.541 320.882 216.373C320.51 216.133 320.108 215.959 319.676 215.851C319.244 215.743 318.806 215.689 318.362 215.689C317.51 215.689 316.79 215.863 316.202 216.211C315.614 216.559 315.17 217.063 314.87 217.723C314.57 218.383 314.42 219.193 314.42 220.153C314.42 221.101 314.57 221.911 314.87 222.583C315.17 223.255 315.614 223.765 316.202 224.113C316.79 224.461 317.51 224.635 318.362 224.635C318.818 224.635 319.268 224.581 319.712 224.473C320.156 224.353 320.576 224.173 320.972 223.933C321.236 223.777 321.47 223.711 321.674 223.735C321.89 223.747 322.07 223.819 322.214 223.951C322.358 224.083 322.454 224.251 322.502 224.455C322.55 224.647 322.538 224.851 322.466 225.067C322.394 225.271 322.25 225.451 322.034 225.607C321.554 225.955 320.978 226.225 320.306 226.417C319.646 226.597 318.974 226.687 318.29 226.687ZM326.986 226.687C326.35 226.687 325.78 226.567 325.276 226.327C324.784 226.075 324.394 225.739 324.106 225.319C323.83 224.899 323.692 224.425 323.692 223.897C323.692 223.249 323.86 222.739 324.196 222.367C324.532 221.983 325.078 221.707 325.834 221.539C326.59 221.371 327.604 221.287 328.876 221.287H329.776V222.583H328.894C328.15 222.583 327.556 222.619 327.112 222.691C326.668 222.763 326.35 222.889 326.158 223.069C325.978 223.237 325.888 223.477 325.888 223.789C325.888 224.185 326.026 224.509 326.302 224.761C326.578 225.013 326.962 225.139 327.454 225.139C327.85 225.139 328.198 225.049 328.498 224.869C328.81 224.677 329.056 224.419 329.236 224.095C329.416 223.771 329.506 223.399 329.506 222.979V220.909C329.506 220.309 329.374 219.877 329.11 219.613C328.846 219.349 328.402 219.217 327.778 219.217C327.43 219.217 327.052 219.259 326.644 219.343C326.248 219.427 325.828 219.571 325.384 219.775C325.156 219.883 324.952 219.913 324.772 219.865C324.604 219.817 324.472 219.721 324.376 219.577C324.28 219.421 324.232 219.253 324.232 219.073C324.232 218.893 324.28 218.719 324.376 218.551C324.472 218.371 324.634 218.239 324.862 218.155C325.414 217.927 325.942 217.765 326.446 217.669C326.962 217.573 327.43 217.525 327.85 217.525C328.714 217.525 329.422 217.657 329.974 217.921C330.538 218.185 330.958 218.587 331.234 219.127C331.51 219.655 331.648 220.339 331.648 221.179V225.499C331.648 225.871 331.558 226.159 331.378 226.363C331.198 226.555 330.94 226.651 330.604 226.651C330.268 226.651 330.004 226.555 329.812 226.363C329.632 226.159 329.542 225.871 329.542 225.499V224.635H329.686C329.602 225.055 329.434 225.421 329.182 225.733C328.942 226.033 328.636 226.267 328.264 226.435C327.892 226.603 327.466 226.687 326.986 226.687ZM335.048 226.651C334.688 226.651 334.412 226.555 334.22 226.363C334.028 226.159 333.932 225.871 333.932 225.499V218.695C333.932 218.323 334.028 218.041 334.22 217.849C334.412 217.657 334.682 217.561 335.03 217.561C335.378 217.561 335.648 217.657 335.84 217.849C336.032 218.041 336.128 218.323 336.128 218.695V219.919L335.93 219.469C336.194 218.833 336.602 218.353 337.154 218.029C337.718 217.693 338.354 217.525 339.062 217.525C339.77 217.525 340.352 217.657 340.808 217.921C341.264 218.185 341.606 218.587 341.834 219.127C342.062 219.655 342.176 220.327 342.176 221.143V225.499C342.176 225.871 342.08 226.159 341.888 226.363C341.696 226.555 341.42 226.651 341.06 226.651C340.7 226.651 340.418 226.555 340.214 226.363C340.022 226.159 339.926 225.871 339.926 225.499V221.251C339.926 220.567 339.794 220.069 339.53 219.757C339.278 219.445 338.882 219.289 338.342 219.289C337.682 219.289 337.154 219.499 336.758 219.919C336.374 220.327 336.182 220.873 336.182 221.557V225.499C336.182 226.267 335.804 226.651 335.048 226.651ZM348.529 226.687C347.605 226.687 346.801 226.501 346.117 226.129C345.433 225.745 344.905 225.205 344.533 224.509C344.161 223.813 343.975 222.997 343.975 222.061C343.975 221.353 344.077 220.723 344.281 220.171C344.497 219.607 344.803 219.133 345.199 218.749C345.595 218.353 346.075 218.053 346.639 217.849C347.203 217.633 347.833 217.525 348.529 217.525C348.925 217.525 349.351 217.579 349.807 217.687C350.275 217.795 350.713 217.975 351.121 218.227C351.313 218.347 351.439 218.491 351.499 218.659C351.559 218.827 351.571 219.001 351.535 219.181C351.499 219.349 351.421 219.499 351.301 219.631C351.193 219.751 351.055 219.829 350.887 219.865C350.719 219.889 350.533 219.847 350.329 219.739C350.065 219.583 349.795 219.469 349.519 219.397C349.243 219.313 348.979 219.271 348.727 219.271C348.331 219.271 347.983 219.337 347.683 219.469C347.383 219.589 347.125 219.769 346.909 220.009C346.705 220.237 346.549 220.525 346.441 220.873C346.333 221.221 346.279 221.623 346.279 222.079C346.279 222.967 346.489 223.669 346.909 224.185C347.341 224.689 347.947 224.941 348.727 224.941C348.979 224.941 349.237 224.905 349.501 224.833C349.777 224.761 350.053 224.647 350.329 224.491C350.533 224.383 350.713 224.347 350.869 224.383C351.037 224.419 351.175 224.503 351.283 224.635C351.391 224.755 351.457 224.905 351.481 225.085C351.505 225.253 351.481 225.421 351.409 225.589C351.349 225.757 351.229 225.895 351.049 226.003C350.653 226.243 350.233 226.417 349.789 226.525C349.345 226.633 348.925 226.687 348.529 226.687ZM357.113 226.687C356.117 226.687 355.259 226.501 354.539 226.129C353.819 225.757 353.261 225.229 352.865 224.545C352.481 223.861 352.289 223.051 352.289 222.115C352.289 221.203 352.475 220.405 352.847 219.721C353.231 219.037 353.753 218.503 354.413 218.119C355.085 217.723 355.847 217.525 356.699 217.525C357.323 217.525 357.881 217.627 358.373 217.831C358.877 218.035 359.303 218.329 359.651 218.713C360.011 219.097 360.281 219.565 360.461 220.117C360.653 220.657 360.749 221.269 360.749 221.953C360.749 222.169 360.671 222.337 360.515 222.457C360.371 222.565 360.161 222.619 359.885 222.619H354.107V221.323H359.165L358.877 221.593C358.877 221.041 358.793 220.579 358.625 220.207C358.469 219.835 358.235 219.553 357.923 219.361C357.623 219.157 357.245 219.055 356.789 219.055C356.285 219.055 355.853 219.175 355.493 219.415C355.145 219.643 354.875 219.973 354.683 220.405C354.503 220.825 354.413 221.329 354.413 221.917V222.043C354.413 223.027 354.641 223.765 355.097 224.257C355.565 224.737 356.249 224.977 357.149 224.977C357.461 224.977 357.809 224.941 358.193 224.869C358.589 224.785 358.961 224.647 359.309 224.455C359.561 224.311 359.783 224.251 359.975 224.275C360.167 224.287 360.317 224.353 360.425 224.473C360.545 224.593 360.617 224.743 360.641 224.923C360.665 225.091 360.629 225.265 360.533 225.445C360.449 225.625 360.299 225.781 360.083 225.913C359.663 226.177 359.177 226.375 358.625 226.507C358.085 226.627 357.581 226.687 357.113 226.687ZM365.537 226.687C364.541 226.687 363.791 226.405 363.287 225.841C362.783 225.265 362.531 224.425 362.531 223.321V214.807C362.531 214.435 362.627 214.153 362.819 213.961C363.011 213.769 363.287 213.673 363.647 213.673C364.007 213.673 364.283 213.769 364.475 213.961C364.679 214.153 364.781 214.435 364.781 214.807V223.213C364.781 223.765 364.895 224.173 365.123 224.437C365.363 224.701 365.699 224.833 366.131 224.833C366.227 224.833 366.317 224.833 366.401 224.833C366.485 224.821 366.569 224.809 366.653 224.797C366.821 224.773 366.935 224.821 366.995 224.941C367.055 225.049 367.085 225.277 367.085 225.625C367.085 225.925 367.025 226.159 366.905 226.327C366.785 226.495 366.587 226.597 366.311 226.633C366.191 226.645 366.065 226.657 365.933 226.669C365.801 226.681 365.669 226.687 365.537 226.687ZM371.177 226.687C370.541 226.687 369.971 226.567 369.467 226.327C368.975 226.075 368.585 225.739 368.297 225.319C368.021 224.899 367.883 224.425 367.883 223.897C367.883 223.249 368.051 222.739 368.387 222.367C368.723 221.983 369.269 221.707 370.025 221.539C370.781 221.371 371.795 221.287 373.067 221.287H373.967V222.583H373.085C372.341 222.583 371.747 222.619 371.303 222.691C370.859 222.763 370.541 222.889 370.349 223.069C370.169 223.237 370.079 223.477 370.079 223.789C370.079 224.185 370.217 224.509 370.493 224.761C370.769 225.013 371.153 225.139 371.645 225.139C372.041 225.139 372.389 225.049 372.689 224.869C373.001 224.677 373.247 224.419 373.427 224.095C373.607 223.771 373.697 223.399 373.697 222.979V220.909C373.697 220.309 373.565 219.877 373.301 219.613C373.037 219.349 372.593 219.217 371.969 219.217C371.621 219.217 371.243 219.259 370.835 219.343C370.439 219.427 370.019 219.571 369.575 219.775C369.347 219.883 369.143 219.913 368.963 219.865C368.795 219.817 368.663 219.721 368.567 219.577C368.471 219.421 368.423 219.253 368.423 219.073C368.423 218.893 368.471 218.719 368.567 218.551C368.663 218.371 368.825 218.239 369.053 218.155C369.605 217.927 370.133 217.765 370.637 217.669C371.153 217.573 371.621 217.525 372.041 217.525C372.905 217.525 373.613 217.657 374.165 217.921C374.729 218.185 375.149 218.587 375.425 219.127C375.701 219.655 375.839 220.339 375.839 221.179V225.499C375.839 225.871 375.749 226.159 375.569 226.363C375.389 226.555 375.131 226.651 374.795 226.651C374.459 226.651 374.195 226.555 374.003 226.363C373.823 226.159 373.733 225.871 373.733 225.499V224.635H373.877C373.793 225.055 373.625 225.421 373.373 225.733C373.133 226.033 372.827 226.267 372.455 226.435C372.083 226.603 371.657 226.687 371.177 226.687ZM379.275 226.651C378.903 226.651 378.615 226.555 378.411 226.363C378.219 226.159 378.123 225.871 378.123 225.499V218.695C378.123 218.323 378.219 218.041 378.411 217.849C378.603 217.657 378.873 217.561 379.221 217.561C379.569 217.561 379.839 217.657 380.031 217.849C380.223 218.041 380.319 218.323 380.319 218.695V219.829H380.139C380.307 219.109 380.637 218.563 381.129 218.191C381.621 217.819 382.275 217.597 383.091 217.525C383.343 217.501 383.541 217.567 383.685 217.723C383.841 217.867 383.931 218.095 383.955 218.407C383.979 218.707 383.907 218.953 383.739 219.145C383.583 219.325 383.343 219.433 383.019 219.469L382.623 219.505C381.891 219.577 381.339 219.805 380.967 220.189C380.595 220.561 380.409 221.089 380.409 221.773V225.499C380.409 225.871 380.313 226.159 380.121 226.363C379.929 226.555 379.647 226.651 379.275 226.651Z" fill="#101E37"/>
<rect x="413" y="200.507" width="101" height="40" rx="8" fill="#CC3333"/>
<path d="M431.61 226.507C431.214 226.507 430.908 226.405 430.692 226.201C430.488 225.985 430.386 225.679 430.386 225.283V215.041C430.386 214.645 430.488 214.345 430.692 214.141C430.908 213.925 431.214 213.817 431.61 213.817H438.036C438.336 213.817 438.564 213.895 438.72 214.051C438.888 214.207 438.972 214.429 438.972 214.717C438.972 215.017 438.888 215.251 438.72 215.419C438.564 215.575 438.336 215.653 438.036 215.653H432.6V219.145H437.64C437.952 219.145 438.186 219.223 438.342 219.379C438.498 219.535 438.576 219.763 438.576 220.063C438.576 220.363 438.498 220.591 438.342 220.747C438.186 220.903 437.952 220.981 437.64 220.981H432.6V224.671H438.036C438.336 224.671 438.564 224.749 438.72 224.905C438.888 225.061 438.972 225.289 438.972 225.589C438.972 225.889 438.888 226.117 438.72 226.273C438.564 226.429 438.336 226.507 438.036 226.507H431.61ZM443.916 226.687C442.92 226.687 442.17 226.405 441.666 225.841C441.162 225.265 440.91 224.425 440.91 223.321V214.807C440.91 214.435 441.006 214.153 441.198 213.961C441.39 213.769 441.666 213.673 442.026 213.673C442.386 213.673 442.662 213.769 442.854 213.961C443.058 214.153 443.16 214.435 443.16 214.807V223.213C443.16 223.765 443.274 224.173 443.502 224.437C443.742 224.701 444.078 224.833 444.51 224.833C444.606 224.833 444.696 224.833 444.78 224.833C444.864 224.821 444.948 224.809 445.032 224.797C445.2 224.773 445.314 224.821 445.374 224.941C445.434 225.049 445.464 225.277 445.464 225.625C445.464 225.925 445.404 226.159 445.284 226.327C445.164 226.495 444.966 226.597 444.69 226.633C444.57 226.645 444.444 226.657 444.312 226.669C444.18 226.681 444.048 226.687 443.916 226.687ZM447.774 226.633C447.414 226.633 447.138 226.525 446.946 226.309C446.754 226.093 446.658 225.793 446.658 225.409V218.803C446.658 218.407 446.754 218.107 446.946 217.903C447.138 217.687 447.414 217.579 447.774 217.579C448.134 217.579 448.41 217.687 448.602 217.903C448.806 218.107 448.908 218.407 448.908 218.803V225.409C448.908 225.793 448.812 226.093 448.62 226.309C448.428 226.525 448.146 226.633 447.774 226.633ZM447.774 215.905C447.354 215.905 447.024 215.803 446.784 215.599C446.556 215.383 446.442 215.089 446.442 214.717C446.442 214.333 446.556 214.039 446.784 213.835C447.024 213.631 447.354 213.529 447.774 213.529C448.206 213.529 448.536 213.631 448.764 213.835C448.992 214.039 449.106 214.333 449.106 214.717C449.106 215.089 448.992 215.383 448.764 215.599C448.536 215.803 448.206 215.905 447.774 215.905ZM452.398 226.651C452.038 226.651 451.762 226.555 451.57 226.363C451.378 226.159 451.282 225.871 451.282 225.499V218.695C451.282 218.323 451.378 218.041 451.57 217.849C451.762 217.657 452.032 217.561 452.38 217.561C452.728 217.561 452.998 217.657 453.19 217.849C453.382 218.041 453.478 218.323 453.478 218.695V220.009L453.28 219.469C453.52 218.869 453.892 218.395 454.396 218.047C454.9 217.699 455.5 217.525 456.196 217.525C456.904 217.525 457.486 217.693 457.942 218.029C458.398 218.365 458.716 218.881 458.896 219.577H458.644C458.884 218.941 459.28 218.443 459.832 218.083C460.384 217.711 461.02 217.525 461.74 217.525C462.412 217.525 462.964 217.657 463.396 217.921C463.84 218.185 464.17 218.587 464.386 219.127C464.602 219.655 464.71 220.327 464.71 221.143V225.499C464.71 225.871 464.608 226.159 464.404 226.363C464.212 226.555 463.936 226.651 463.576 226.651C463.216 226.651 462.94 226.555 462.748 226.363C462.556 226.159 462.46 225.871 462.46 225.499V221.233C462.46 220.561 462.346 220.069 462.118 219.757C461.902 219.445 461.53 219.289 461.002 219.289C460.414 219.289 459.952 219.499 459.616 219.919C459.28 220.327 459.112 220.897 459.112 221.629V225.499C459.112 225.871 459.016 226.159 458.824 226.363C458.632 226.555 458.356 226.651 457.996 226.651C457.636 226.651 457.354 226.555 457.15 226.363C456.958 226.159 456.862 225.871 456.862 225.499V221.233C456.862 220.561 456.748 220.069 456.52 219.757C456.304 219.445 455.938 219.289 455.422 219.289C454.834 219.289 454.372 219.499 454.036 219.919C453.7 220.327 453.532 220.897 453.532 221.629V225.499C453.532 226.267 453.154 226.651 452.398 226.651ZM468.147 226.633C467.787 226.633 467.511 226.525 467.319 226.309C467.127 226.093 467.031 225.793 467.031 225.409V218.803C467.031 218.407 467.127 218.107 467.319 217.903C467.511 217.687 467.787 217.579 468.147 217.579C468.507 217.579 468.783 217.687 468.975 217.903C469.179 218.107 469.281 218.407 469.281 218.803V225.409C469.281 225.793 469.185 226.093 468.993 226.309C468.801 226.525 468.519 226.633 468.147 226.633ZM468.147 215.905C467.727 215.905 467.397 215.803 467.157 215.599C466.929 215.383 466.815 215.089 466.815 214.717C466.815 214.333 466.929 214.039 467.157 213.835C467.397 213.631 467.727 213.529 468.147 213.529C468.579 213.529 468.909 213.631 469.137 213.835C469.365 214.039 469.479 214.333 469.479 214.717C469.479 215.089 469.365 215.383 469.137 215.599C468.909 215.803 468.579 215.905 468.147 215.905ZM472.735 226.651C472.375 226.651 472.099 226.555 471.907 226.363C471.715 226.159 471.619 225.871 471.619 225.499V218.695C471.619 218.323 471.715 218.041 471.907 217.849C472.099 217.657 472.369 217.561 472.717 217.561C473.065 217.561 473.335 217.657 473.527 217.849C473.719 218.041 473.815 218.323 473.815 218.695V219.919L473.617 219.469C473.881 218.833 474.289 218.353 474.841 218.029C475.405 217.693 476.041 217.525 476.749 217.525C477.457 217.525 478.039 217.657 478.495 217.921C478.951 218.185 479.293 218.587 479.521 219.127C479.749 219.655 479.863 220.327 479.863 221.143V225.499C479.863 225.871 479.767 226.159 479.575 226.363C479.383 226.555 479.107 226.651 478.747 226.651C478.387 226.651 478.105 226.555 477.901 226.363C477.709 226.159 477.613 225.871 477.613 225.499V221.251C477.613 220.567 477.481 220.069 477.217 219.757C476.965 219.445 476.569 219.289 476.029 219.289C475.369 219.289 474.841 219.499 474.445 219.919C474.061 220.327 473.869 220.873 473.869 221.557V225.499C473.869 226.267 473.491 226.651 472.735 226.651ZM485.047 226.687C484.411 226.687 483.841 226.567 483.337 226.327C482.845 226.075 482.455 225.739 482.167 225.319C481.891 224.899 481.753 224.425 481.753 223.897C481.753 223.249 481.921 222.739 482.257 222.367C482.593 221.983 483.139 221.707 483.895 221.539C484.651 221.371 485.665 221.287 486.937 221.287H487.837V222.583H486.955C486.211 222.583 485.617 222.619 485.173 222.691C484.729 222.763 484.411 222.889 484.219 223.069C484.039 223.237 483.949 223.477 483.949 223.789C483.949 224.185 484.087 224.509 484.363 224.761C484.639 225.013 485.023 225.139 485.515 225.139C485.911 225.139 486.259 225.049 486.559 224.869C486.871 224.677 487.117 224.419 487.297 224.095C487.477 223.771 487.567 223.399 487.567 222.979V220.909C487.567 220.309 487.435 219.877 487.171 219.613C486.907 219.349 486.463 219.217 485.839 219.217C485.491 219.217 485.113 219.259 484.705 219.343C484.309 219.427 483.889 219.571 483.445 219.775C483.217 219.883 483.013 219.913 482.833 219.865C482.665 219.817 482.533 219.721 482.437 219.577C482.341 219.421 482.293 219.253 482.293 219.073C482.293 218.893 482.341 218.719 482.437 218.551C482.533 218.371 482.695 218.239 482.923 218.155C483.475 217.927 484.003 217.765 484.507 217.669C485.023 217.573 485.491 217.525 485.911 217.525C486.775 217.525 487.483 217.657 488.035 217.921C488.599 218.185 489.019 218.587 489.295 219.127C489.571 219.655 489.709 220.339 489.709 221.179V225.499C489.709 225.871 489.619 226.159 489.439 226.363C489.259 226.555 489.001 226.651 488.665 226.651C488.329 226.651 488.065 226.555 487.873 226.363C487.693 226.159 487.603 225.871 487.603 225.499V224.635H487.747C487.663 225.055 487.495 225.421 487.243 225.733C487.003 226.033 486.697 226.267 486.325 226.435C485.953 226.603 485.527 226.687 485.047 226.687ZM493.144 226.651C492.772 226.651 492.484 226.555 492.28 226.363C492.088 226.159 491.992 225.871 491.992 225.499V218.695C491.992 218.323 492.088 218.041 492.28 217.849C492.472 217.657 492.742 217.561 493.09 217.561C493.438 217.561 493.708 217.657 493.9 217.849C494.092 218.041 494.188 218.323 494.188 218.695V219.829H494.008C494.176 219.109 494.506 218.563 494.998 218.191C495.49 217.819 496.144 217.597 496.96 217.525C497.212 217.501 497.41 217.567 497.554 217.723C497.71 217.867 497.8 218.095 497.824 218.407C497.848 218.707 497.776 218.953 497.608 219.145C497.452 219.325 497.212 219.433 496.888 219.469L496.492 219.505C495.76 219.577 495.208 219.805 494.836 220.189C494.464 220.561 494.278 221.089 494.278 221.773V225.499C494.278 225.871 494.182 226.159 493.99 226.363C493.798 226.555 493.516 226.651 493.144 226.651Z" fill="white"/>
</svg>
