<svg width="728" height="296" viewBox="0 0 728 296" fill="none" xmlns="http://www.w3.org/2000/svg">
<rect x="1" y="1.50732" width="726" height="293" rx="7" fill="#F2F6F9"/>
<rect x="1" y="1.50732" width="726" height="293" rx="7" stroke="#E6EBF0" stroke-width="2"/>
<g clip-path="url(#clip0_189_5797)">
<rect width="344" height="180" transform="translate(191 -105.09)" fill="white"/>
<rect x="215" y="-89.0898" width="296" height="148" rx="8" fill="#E6EBF0"/>
<rect width="346" height="146.195" transform="translate(191 74.9102)" fill="#002733"/>
<path d="M215 103.202C215 101.465 216.407 100.058 218.143 100.058H509.857C511.593 100.058 513 101.465 513 103.202V109.489C513 111.225 511.593 112.632 509.857 112.632H218.143C216.407 112.632 215 111.225 215 109.489V103.202Z" fill="#E6EBF0"/>
<rect x="215" y="117.347" width="298" height="12.574" rx="3.14349" fill="#E6EBF0"/>
<rect x="215" y="134.636" width="191.753" height="12.574" rx="3.14349" fill="#E6EBF0"/>
<rect x="215" y="171.21" width="113.493" height="24.7466" rx="4.87332" fill="#336ACC"/>
<path d="M232.017 188.323C232.119 188.484 232.159 188.63 232.137 188.762C232.116 188.893 232.057 189.003 231.962 189.091C231.867 189.186 231.75 189.244 231.611 189.266C231.472 189.295 231.333 189.281 231.194 189.222C231.056 189.171 230.939 189.069 230.844 188.915L230.087 187.698C229.985 187.53 229.846 187.402 229.67 187.314C229.502 187.234 229.294 187.194 229.045 187.194L230.131 186.766C230.474 186.766 230.749 186.828 230.953 186.952C231.158 187.069 231.355 187.278 231.545 187.577L232.017 188.323ZM229.056 187.194C228.311 187.194 227.656 187.029 227.094 186.7C226.538 186.371 226.107 185.911 225.8 185.319C225.493 184.719 225.339 184.017 225.339 183.213C225.339 182.607 225.427 182.062 225.602 181.58C225.778 181.09 226.026 180.673 226.348 180.33C226.677 179.979 227.068 179.712 227.521 179.529C227.982 179.339 228.493 179.244 229.056 179.244C229.809 179.244 230.463 179.409 231.019 179.737C231.575 180.059 232.006 180.516 232.313 181.108C232.62 181.7 232.773 182.398 232.773 183.202C232.773 183.809 232.686 184.357 232.51 184.847C232.335 185.337 232.083 185.757 231.754 186.108C231.432 186.459 231.041 186.729 230.58 186.92C230.127 187.102 229.619 187.194 229.056 187.194ZM229.056 185.987C229.531 185.987 229.933 185.878 230.262 185.659C230.599 185.439 230.855 185.121 231.03 184.705C231.213 184.288 231.304 183.791 231.304 183.213C231.304 182.336 231.107 181.656 230.712 181.174C230.325 180.691 229.773 180.45 229.056 180.45C228.588 180.45 228.186 180.56 227.85 180.779C227.514 180.991 227.254 181.305 227.072 181.722C226.896 182.131 226.808 182.629 226.808 183.213C226.808 184.083 227.006 184.763 227.401 185.253C227.795 185.743 228.347 185.987 229.056 185.987ZM236.01 187.194C235.564 187.194 235.195 187.113 234.902 186.952C234.61 186.784 234.391 186.536 234.244 186.207C234.106 185.878 234.036 185.468 234.036 184.979V182.325C234.036 182.091 234.095 181.919 234.212 181.81C234.329 181.693 234.497 181.634 234.716 181.634C234.935 181.634 235.103 181.693 235.22 181.81C235.345 181.919 235.407 182.091 235.407 182.325V185.001C235.407 185.381 235.483 185.662 235.637 185.845C235.79 186.028 236.035 186.119 236.372 186.119C236.737 186.119 237.037 185.995 237.271 185.746C237.505 185.49 237.622 185.154 237.622 184.737V182.325C237.622 182.091 237.68 181.919 237.797 181.81C237.914 181.693 238.082 181.634 238.301 181.634C238.521 181.634 238.689 181.693 238.806 181.81C238.93 181.919 238.992 182.091 238.992 182.325V186.47C238.992 186.938 238.769 187.172 238.323 187.172C238.111 187.172 237.947 187.113 237.83 186.996C237.713 186.872 237.655 186.697 237.655 186.47V185.637L237.808 185.966C237.655 186.36 237.421 186.664 237.106 186.876C236.799 187.088 236.434 187.194 236.01 187.194ZM241.099 187.161C240.879 187.161 240.711 187.095 240.594 186.963C240.477 186.832 240.419 186.649 240.419 186.415V182.391C240.419 182.15 240.477 181.967 240.594 181.843C240.711 181.711 240.879 181.645 241.099 181.645C241.318 181.645 241.486 181.711 241.603 181.843C241.727 181.967 241.789 182.15 241.789 182.391V186.415C241.789 186.649 241.731 186.832 241.614 186.963C241.497 187.095 241.325 187.161 241.099 187.161ZM241.099 180.626C240.843 180.626 240.642 180.563 240.496 180.439C240.357 180.308 240.287 180.129 240.287 179.902C240.287 179.668 240.357 179.489 240.496 179.365C240.642 179.24 240.843 179.178 241.099 179.178C241.362 179.178 241.563 179.24 241.702 179.365C241.841 179.489 241.91 179.668 241.91 179.902C241.91 180.129 241.841 180.308 241.702 180.439C241.563 180.563 241.362 180.626 241.099 180.626ZM245.856 187.194C245.249 187.194 244.727 187.08 244.288 186.854C243.85 186.627 243.51 186.305 243.268 185.889C243.035 185.472 242.918 184.979 242.918 184.409C242.918 183.853 243.031 183.367 243.257 182.95C243.491 182.534 243.809 182.208 244.211 181.974C244.621 181.733 245.085 181.612 245.604 181.612C245.984 181.612 246.324 181.675 246.624 181.799C246.931 181.923 247.19 182.102 247.402 182.336C247.622 182.57 247.786 182.855 247.896 183.191C248.013 183.52 248.071 183.893 248.071 184.31C248.071 184.441 248.024 184.544 247.929 184.617C247.841 184.683 247.713 184.716 247.545 184.716H244.025V183.926H247.106L246.931 184.091C246.931 183.754 246.88 183.473 246.777 183.246C246.682 183.02 246.54 182.848 246.35 182.731C246.167 182.607 245.937 182.544 245.659 182.544C245.352 182.544 245.089 182.618 244.869 182.764C244.657 182.903 244.493 183.104 244.376 183.367C244.266 183.623 244.211 183.93 244.211 184.288V184.365C244.211 184.964 244.35 185.414 244.628 185.713C244.913 186.006 245.33 186.152 245.878 186.152C246.068 186.152 246.28 186.13 246.514 186.086C246.755 186.035 246.982 185.951 247.194 185.834C247.347 185.746 247.483 185.71 247.6 185.724C247.717 185.732 247.808 185.772 247.874 185.845C247.947 185.918 247.991 186.009 248.005 186.119C248.02 186.221 247.998 186.327 247.94 186.437C247.888 186.547 247.797 186.642 247.665 186.722C247.41 186.883 247.113 187.004 246.777 187.084C246.448 187.157 246.141 187.194 245.856 187.194ZM249.858 187.172C249.632 187.172 249.456 187.113 249.332 186.996C249.215 186.872 249.157 186.697 249.157 186.47V182.325C249.157 182.099 249.215 181.927 249.332 181.81C249.449 181.693 249.613 181.634 249.825 181.634C250.037 181.634 250.202 181.693 250.319 181.81C250.436 181.927 250.494 182.099 250.494 182.325V183.016H250.385C250.487 182.577 250.688 182.245 250.988 182.018C251.287 181.792 251.686 181.656 252.183 181.612C252.336 181.598 252.457 181.638 252.545 181.733C252.64 181.821 252.695 181.96 252.709 182.15C252.724 182.333 252.68 182.482 252.578 182.599C252.483 182.709 252.336 182.775 252.139 182.797L251.898 182.819C251.452 182.862 251.116 183.001 250.889 183.235C250.662 183.462 250.549 183.784 250.549 184.2V186.47C250.549 186.697 250.491 186.872 250.374 186.996C250.257 187.113 250.085 187.172 249.858 187.172ZM255.81 187.194C255.254 187.194 254.772 187.08 254.363 186.854C253.953 186.627 253.635 186.305 253.409 185.889C253.182 185.465 253.069 184.968 253.069 184.398C253.069 183.966 253.131 183.583 253.255 183.246C253.387 182.903 253.573 182.61 253.814 182.369C254.056 182.121 254.344 181.934 254.681 181.81C255.017 181.678 255.393 181.612 255.81 181.612C256.366 181.612 256.848 181.726 257.257 181.952C257.667 182.179 257.985 182.501 258.211 182.917C258.438 183.334 258.551 183.827 258.551 184.398C258.551 184.829 258.485 185.216 258.354 185.56C258.23 185.903 258.047 186.199 257.806 186.448C257.564 186.689 257.276 186.876 256.939 187.007C256.603 187.131 256.227 187.194 255.81 187.194ZM255.81 186.152C256.08 186.152 256.318 186.086 256.523 185.955C256.727 185.823 256.885 185.629 256.994 185.373C257.111 185.11 257.17 184.785 257.17 184.398C257.17 183.813 257.045 183.378 256.797 183.093C256.548 182.8 256.219 182.654 255.81 182.654C255.539 182.654 255.302 182.72 255.097 182.852C254.893 182.976 254.732 183.169 254.615 183.433C254.505 183.689 254.45 184.01 254.45 184.398C254.45 184.975 254.575 185.414 254.823 185.713C255.072 186.006 255.401 186.152 255.81 186.152ZM263.339 187.161C263.12 187.161 262.952 187.095 262.835 186.963C262.718 186.832 262.659 186.649 262.659 186.415V182.391C262.659 182.15 262.718 181.967 262.835 181.843C262.952 181.711 263.12 181.645 263.339 181.645C263.558 181.645 263.727 181.711 263.843 181.843C263.968 181.967 264.03 182.15 264.03 182.391V186.415C264.03 186.649 263.971 186.832 263.854 186.963C263.737 187.095 263.566 187.161 263.339 187.161ZM263.339 180.626C263.083 180.626 262.882 180.563 262.736 180.439C262.597 180.308 262.528 180.129 262.528 179.902C262.528 179.668 262.597 179.489 262.736 179.365C262.882 179.24 263.083 179.178 263.339 179.178C263.602 179.178 263.803 179.24 263.942 179.365C264.081 179.489 264.151 179.668 264.151 179.902C264.151 180.129 264.081 180.308 263.942 180.439C263.803 180.563 263.602 180.626 263.339 180.626ZM266.134 187.172C265.915 187.172 265.746 187.113 265.629 186.996C265.513 186.872 265.454 186.697 265.454 186.47V182.325C265.454 182.099 265.513 181.927 265.629 181.81C265.746 181.693 265.911 181.634 266.123 181.634C266.335 181.634 266.499 181.693 266.616 181.81C266.733 181.927 266.792 182.099 266.792 182.325V183.071L266.671 182.797C266.832 182.409 267.081 182.117 267.417 181.919C267.76 181.715 268.148 181.612 268.579 181.612C269.01 181.612 269.365 181.693 269.643 181.854C269.92 182.015 270.129 182.259 270.268 182.588C270.407 182.91 270.476 183.319 270.476 183.816V186.47C270.476 186.697 270.418 186.872 270.301 186.996C270.184 187.113 270.015 187.172 269.796 187.172C269.577 187.172 269.405 187.113 269.281 186.996C269.164 186.872 269.105 186.697 269.105 186.47V183.882C269.105 183.466 269.025 183.162 268.864 182.972C268.711 182.782 268.469 182.687 268.14 182.687C267.738 182.687 267.417 182.815 267.176 183.071C266.942 183.319 266.825 183.652 266.825 184.069V186.47C266.825 186.938 266.594 187.172 266.134 187.172ZM273.831 187.194C273.517 187.194 273.184 187.161 272.833 187.095C272.482 187.029 272.168 186.916 271.89 186.755C271.773 186.682 271.689 186.598 271.638 186.503C271.594 186.401 271.576 186.302 271.583 186.207C271.598 186.104 271.634 186.017 271.693 185.944C271.758 185.871 271.839 185.823 271.934 185.801C272.036 185.779 272.146 185.797 272.263 185.856C272.555 185.995 272.829 186.093 273.085 186.152C273.341 186.203 273.593 186.229 273.842 186.229C274.193 186.229 274.452 186.17 274.62 186.053C274.796 185.929 274.883 185.768 274.883 185.571C274.883 185.403 274.825 185.275 274.708 185.187C274.598 185.092 274.43 185.023 274.204 184.979L273.107 184.77C272.654 184.683 272.307 184.518 272.065 184.277C271.832 184.028 271.715 183.71 271.715 183.323C271.715 182.972 271.81 182.669 272 182.413C272.197 182.157 272.468 181.96 272.811 181.821C273.155 181.682 273.549 181.612 273.995 181.612C274.317 181.612 274.617 181.649 274.894 181.722C275.18 181.788 275.454 181.894 275.717 182.04C275.826 182.099 275.9 182.175 275.936 182.27C275.98 182.365 275.991 182.464 275.969 182.566C275.947 182.661 275.903 182.749 275.837 182.83C275.772 182.903 275.688 182.95 275.585 182.972C275.49 182.987 275.381 182.965 275.256 182.906C275.03 182.789 274.81 182.705 274.598 182.654C274.394 182.603 274.196 182.577 274.006 182.577C273.648 182.577 273.381 182.64 273.206 182.764C273.038 182.888 272.954 183.053 272.954 183.257C272.954 183.411 273.005 183.539 273.107 183.641C273.21 183.743 273.367 183.813 273.579 183.849L274.675 184.058C275.15 184.145 275.508 184.306 275.75 184.54C275.998 184.774 276.123 185.088 276.123 185.483C276.123 186.017 275.914 186.437 275.498 186.744C275.081 187.044 274.525 187.194 273.831 187.194ZM279.7 187.194C279.137 187.194 278.648 187.08 278.231 186.854C277.814 186.62 277.493 186.291 277.266 185.867C277.039 185.443 276.926 184.946 276.926 184.376C276.926 183.944 276.988 183.561 277.112 183.224C277.244 182.881 277.43 182.592 277.672 182.358C277.913 182.117 278.205 181.934 278.549 181.81C278.892 181.678 279.276 181.612 279.7 181.612C279.941 181.612 280.201 181.645 280.479 181.711C280.764 181.777 281.031 181.887 281.279 182.04C281.396 182.113 281.473 182.201 281.509 182.303C281.546 182.406 281.553 182.512 281.531 182.621C281.509 182.724 281.462 182.815 281.389 182.895C281.323 182.968 281.239 183.016 281.137 183.038C281.034 183.053 280.921 183.027 280.797 182.961C280.636 182.866 280.471 182.797 280.303 182.753C280.135 182.702 279.974 182.676 279.821 182.676C279.58 182.676 279.368 182.716 279.185 182.797C279.002 182.87 278.845 182.979 278.713 183.126C278.589 183.265 278.494 183.44 278.428 183.652C278.362 183.864 278.33 184.109 278.33 184.387C278.33 184.928 278.457 185.355 278.713 185.67C278.977 185.977 279.346 186.13 279.821 186.13C279.974 186.13 280.131 186.108 280.292 186.064C280.46 186.02 280.629 185.951 280.797 185.856C280.921 185.79 281.031 185.768 281.126 185.79C281.228 185.812 281.312 185.863 281.378 185.944C281.444 186.017 281.484 186.108 281.498 186.218C281.513 186.32 281.498 186.422 281.455 186.525C281.418 186.627 281.345 186.711 281.235 186.777C280.994 186.923 280.738 187.029 280.468 187.095C280.197 187.161 279.941 187.194 279.7 187.194ZM283.096 187.172C282.869 187.172 282.694 187.113 282.57 186.996C282.453 186.872 282.394 186.697 282.394 186.47V182.325C282.394 182.099 282.453 181.927 282.57 181.81C282.686 181.693 282.851 181.634 283.063 181.634C283.275 181.634 283.439 181.693 283.556 181.81C283.673 181.927 283.732 182.099 283.732 182.325V183.016H283.622C283.724 182.577 283.926 182.245 284.225 182.018C284.525 181.792 284.923 181.656 285.42 181.612C285.574 181.598 285.695 181.638 285.782 181.733C285.877 181.821 285.932 181.96 285.947 182.15C285.961 182.333 285.917 182.482 285.815 182.599C285.72 182.709 285.574 182.775 285.377 182.797L285.135 182.819C284.689 182.862 284.353 183.001 284.127 183.235C283.9 183.462 283.787 183.784 283.787 184.2V186.47C283.787 186.697 283.728 186.872 283.611 186.996C283.494 187.113 283.322 187.172 283.096 187.172ZM287.368 187.161C287.148 187.161 286.98 187.095 286.863 186.963C286.746 186.832 286.688 186.649 286.688 186.415V182.391C286.688 182.15 286.746 181.967 286.863 181.843C286.98 181.711 287.148 181.645 287.368 181.645C287.587 181.645 287.755 181.711 287.872 181.843C287.996 181.967 288.059 182.15 288.059 182.391V186.415C288.059 186.649 288 186.832 287.883 186.963C287.766 187.095 287.594 187.161 287.368 187.161ZM287.368 180.626C287.112 180.626 286.911 180.563 286.765 180.439C286.626 180.308 286.556 180.129 286.556 179.902C286.556 179.668 286.626 179.489 286.765 179.365C286.911 179.24 287.112 179.178 287.368 179.178C287.631 179.178 287.832 179.24 287.971 179.365C288.11 179.489 288.179 179.668 288.179 179.902C288.179 180.129 288.11 180.308 287.971 180.439C287.832 180.563 287.631 180.626 287.368 180.626ZM292.575 187.194C292.122 187.194 291.723 187.08 291.38 186.854C291.043 186.627 290.82 186.324 290.711 185.944L290.831 185.67V186.47C290.831 186.697 290.773 186.872 290.656 186.996C290.539 187.113 290.375 187.172 290.163 187.172C289.943 187.172 289.775 187.113 289.658 186.996C289.541 186.872 289.483 186.697 289.483 186.47V179.957C289.483 179.73 289.541 179.558 289.658 179.441C289.775 179.324 289.943 179.266 290.163 179.266C290.382 179.266 290.55 179.324 290.667 179.441C290.791 179.558 290.853 179.73 290.853 179.957V182.808H290.722C290.839 182.449 291.065 182.161 291.402 181.941C291.738 181.722 292.129 181.612 292.575 181.612C293.05 181.612 293.463 181.726 293.814 181.952C294.165 182.179 294.439 182.501 294.636 182.917C294.834 183.327 294.932 183.82 294.932 184.398C294.932 184.968 294.834 185.465 294.636 185.889C294.439 186.305 294.161 186.627 293.803 186.854C293.452 187.08 293.043 187.194 292.575 187.194ZM292.191 186.152C292.462 186.152 292.699 186.086 292.904 185.955C293.108 185.823 293.266 185.629 293.375 185.373C293.492 185.11 293.551 184.785 293.551 184.398C293.551 183.813 293.426 183.378 293.178 183.093C292.929 182.8 292.6 182.654 292.191 182.654C291.921 182.654 291.683 182.72 291.478 182.852C291.274 182.976 291.113 183.169 290.996 183.433C290.886 183.689 290.831 184.01 290.831 184.398C290.831 184.975 290.956 185.414 291.204 185.713C291.453 186.006 291.782 186.152 292.191 186.152ZM296.737 187.161C296.518 187.161 296.35 187.095 296.233 186.963C296.116 186.832 296.057 186.649 296.057 186.415V182.391C296.057 182.15 296.116 181.967 296.233 181.843C296.35 181.711 296.518 181.645 296.737 181.645C296.957 181.645 297.125 181.711 297.242 181.843C297.366 181.967 297.428 182.15 297.428 182.391V186.415C297.428 186.649 297.37 186.832 297.253 186.963C297.136 187.095 296.964 187.161 296.737 187.161ZM296.737 180.626C296.481 180.626 296.28 180.563 296.134 180.439C295.995 180.308 295.926 180.129 295.926 179.902C295.926 179.668 295.995 179.489 296.134 179.365C296.28 179.24 296.481 179.178 296.737 179.178C297 179.178 297.201 179.24 297.34 179.365C297.479 179.489 297.549 179.668 297.549 179.902C297.549 180.129 297.479 180.308 297.34 180.439C297.201 180.563 297 180.626 296.737 180.626ZM299.554 187.172C299.327 187.172 299.152 187.113 299.028 186.996C298.911 186.872 298.852 186.697 298.852 186.47V182.325C298.852 182.099 298.911 181.927 299.028 181.81C299.145 181.693 299.309 181.634 299.521 181.634C299.733 181.634 299.898 181.693 300.014 181.81C300.131 181.927 300.19 182.099 300.19 182.325V183.016H300.08C300.183 182.577 300.384 182.245 300.683 182.018C300.983 181.792 301.381 181.656 301.879 181.612C302.032 181.598 302.153 181.638 302.24 181.733C302.335 181.821 302.39 181.96 302.405 182.15C302.419 182.333 302.376 182.482 302.273 182.599C302.178 182.709 302.032 182.775 301.835 182.797L301.593 182.819C301.148 182.862 300.811 183.001 300.585 183.235C300.358 183.462 300.245 183.784 300.245 184.2V186.47C300.245 186.697 300.186 186.872 300.069 186.996C299.952 187.113 299.781 187.172 299.554 187.172ZM303.848 187.172C303.629 187.172 303.46 187.113 303.343 186.996C303.227 186.872 303.168 186.697 303.168 186.47V182.325C303.168 182.099 303.227 181.927 303.343 181.81C303.46 181.693 303.625 181.634 303.837 181.634C304.049 181.634 304.213 181.693 304.33 181.81C304.447 181.927 304.506 182.099 304.506 182.325V183.126L304.385 182.797C304.531 182.431 304.758 182.142 305.065 181.93C305.372 181.718 305.737 181.612 306.161 181.612C306.593 181.612 306.947 181.715 307.225 181.919C307.503 182.124 307.697 182.438 307.806 182.862H307.653C307.799 182.475 308.04 182.172 308.376 181.952C308.713 181.726 309.1 181.612 309.539 181.612C309.948 181.612 310.284 181.693 310.547 181.854C310.818 182.015 311.019 182.259 311.151 182.588C311.282 182.91 311.348 183.319 311.348 183.816V186.47C311.348 186.697 311.286 186.872 311.161 186.996C311.045 187.113 310.876 187.172 310.657 187.172C310.438 187.172 310.27 187.113 310.153 186.996C310.036 186.872 309.977 186.697 309.977 186.47V183.871C309.977 183.462 309.908 183.162 309.769 182.972C309.637 182.782 309.411 182.687 309.089 182.687C308.731 182.687 308.449 182.815 308.245 183.071C308.04 183.319 307.938 183.667 307.938 184.112V186.47C307.938 186.697 307.879 186.872 307.762 186.996C307.645 187.113 307.477 187.172 307.258 187.172C307.039 187.172 306.867 187.113 306.743 186.996C306.626 186.872 306.567 186.697 306.567 186.47V183.871C306.567 183.462 306.498 183.162 306.359 182.972C306.227 182.782 306.004 182.687 305.69 182.687C305.332 182.687 305.05 182.815 304.846 183.071C304.641 183.319 304.539 183.667 304.539 184.112V186.47C304.539 186.938 304.308 187.172 303.848 187.172ZM315.404 187.194C314.798 187.194 314.275 187.08 313.836 186.854C313.398 186.627 313.058 186.305 312.817 185.889C312.583 185.472 312.466 184.979 312.466 184.409C312.466 183.853 312.579 183.367 312.806 182.95C313.04 182.534 313.358 182.208 313.76 181.974C314.169 181.733 314.633 181.612 315.152 181.612C315.532 181.612 315.872 181.675 316.172 181.799C316.479 181.923 316.738 182.102 316.95 182.336C317.17 182.57 317.334 182.855 317.444 183.191C317.561 183.52 317.619 183.893 317.619 184.31C317.619 184.441 317.572 184.544 317.477 184.617C317.389 184.683 317.261 184.716 317.093 184.716H313.573V183.926H316.654L316.479 184.091C316.479 183.754 316.428 183.473 316.325 183.246C316.23 183.02 316.088 182.848 315.898 182.731C315.715 182.607 315.485 182.544 315.207 182.544C314.9 182.544 314.637 182.618 314.418 182.764C314.206 182.903 314.041 183.104 313.924 183.367C313.814 183.623 313.76 183.93 313.76 184.288V184.365C313.76 184.964 313.899 185.414 314.176 185.713C314.461 186.006 314.878 186.152 315.426 186.152C315.616 186.152 315.828 186.13 316.062 186.086C316.304 186.035 316.53 185.951 316.742 185.834C316.896 185.746 317.031 185.71 317.148 185.724C317.265 185.732 317.356 185.772 317.422 185.845C317.495 185.918 317.539 186.009 317.554 186.119C317.568 186.221 317.546 186.327 317.488 186.437C317.437 186.547 317.345 186.642 317.214 186.722C316.958 186.883 316.662 187.004 316.325 187.084C315.997 187.157 315.69 187.194 315.404 187.194Z" fill="white"/>
<rect x="341.102" y="171.82" width="113.275" height="23.5283" rx="4.26415" stroke="#F3F6F9" stroke-width="1.21833"/>
<path d="M354.681 187.194C353.876 187.194 353.186 187.033 352.608 186.711C352.038 186.382 351.599 185.922 351.292 185.33C350.985 184.73 350.832 184.025 350.832 183.213C350.832 182.607 350.92 182.062 351.095 181.58C351.27 181.09 351.523 180.673 351.852 180.33C352.181 179.979 352.583 179.712 353.058 179.529C353.54 179.339 354.081 179.244 354.681 179.244C355.083 179.244 355.477 179.295 355.865 179.398C356.252 179.5 356.592 179.646 356.885 179.836C357.038 179.931 357.14 180.048 357.192 180.187C357.243 180.319 357.254 180.45 357.224 180.582C357.195 180.706 357.133 180.812 357.038 180.9C356.95 180.987 356.837 181.039 356.698 181.053C356.567 181.061 356.42 181.013 356.26 180.911C356.033 180.765 355.788 180.659 355.525 180.593C355.262 180.527 354.995 180.494 354.724 180.494C354.205 180.494 353.767 180.6 353.409 180.812C353.05 181.024 352.78 181.331 352.597 181.733C352.414 182.135 352.323 182.629 352.323 183.213C352.323 183.791 352.414 184.284 352.597 184.694C352.78 185.103 353.05 185.414 353.409 185.626C353.767 185.838 354.205 185.944 354.724 185.944C355.002 185.944 355.276 185.911 355.547 185.845C355.817 185.772 356.073 185.662 356.314 185.516C356.475 185.421 356.618 185.381 356.742 185.395C356.874 185.403 356.983 185.447 357.071 185.527C357.159 185.607 357.217 185.71 357.246 185.834C357.276 185.951 357.268 186.075 357.224 186.207C357.181 186.331 357.093 186.441 356.961 186.536C356.669 186.748 356.318 186.912 355.909 187.029C355.507 187.139 355.097 187.194 354.681 187.194ZM360.465 187.194C359.909 187.194 359.427 187.08 359.018 186.854C358.608 186.627 358.29 186.305 358.064 185.889C357.837 185.465 357.724 184.968 357.724 184.398C357.724 183.966 357.786 183.583 357.91 183.246C358.042 182.903 358.228 182.61 358.469 182.369C358.711 182.121 358.999 181.934 359.336 181.81C359.672 181.678 360.048 181.612 360.465 181.612C361.02 181.612 361.503 181.726 361.912 181.952C362.322 182.179 362.64 182.501 362.866 182.917C363.093 183.334 363.206 183.827 363.206 184.398C363.206 184.829 363.14 185.216 363.009 185.56C362.885 185.903 362.702 186.199 362.461 186.448C362.219 186.689 361.931 186.876 361.594 187.007C361.258 187.131 360.882 187.194 360.465 187.194ZM360.465 186.152C360.735 186.152 360.973 186.086 361.178 185.955C361.382 185.823 361.539 185.629 361.649 185.373C361.766 185.11 361.825 184.785 361.825 184.398C361.825 183.813 361.7 183.378 361.452 183.093C361.203 182.8 360.874 182.654 360.465 182.654C360.194 182.654 359.957 182.72 359.752 182.852C359.548 182.976 359.387 183.169 359.27 183.433C359.16 183.689 359.105 184.01 359.105 184.398C359.105 184.975 359.23 185.414 359.478 185.713C359.727 186.006 360.056 186.152 360.465 186.152ZM365.017 187.172C364.798 187.172 364.63 187.113 364.513 186.996C364.396 186.872 364.337 186.697 364.337 186.47V182.325C364.337 182.099 364.396 181.927 364.513 181.81C364.63 181.693 364.794 181.634 365.006 181.634C365.218 181.634 365.383 181.693 365.5 181.81C365.617 181.927 365.675 182.099 365.675 182.325V183.071L365.555 182.797C365.715 182.409 365.964 182.117 366.3 181.919C366.644 181.715 367.031 181.612 367.462 181.612C367.894 181.612 368.248 181.693 368.526 181.854C368.804 182.015 369.012 182.259 369.151 182.588C369.29 182.91 369.359 183.319 369.359 183.816V186.47C369.359 186.697 369.301 186.872 369.184 186.996C369.067 187.113 368.899 187.172 368.68 187.172C368.46 187.172 368.288 187.113 368.164 186.996C368.047 186.872 367.989 186.697 367.989 186.47V183.882C367.989 183.466 367.908 183.162 367.748 182.972C367.594 182.782 367.353 182.687 367.024 182.687C366.622 182.687 366.3 182.815 366.059 183.071C365.825 183.319 365.708 183.652 365.708 184.069V186.47C365.708 186.938 365.478 187.172 365.017 187.172ZM372.714 187.194C372.4 187.194 372.067 187.161 371.716 187.095C371.366 187.029 371.051 186.916 370.773 186.755C370.656 186.682 370.572 186.598 370.521 186.503C370.477 186.401 370.459 186.302 370.466 186.207C370.481 186.104 370.518 186.017 370.576 185.944C370.642 185.871 370.722 185.823 370.817 185.801C370.92 185.779 371.029 185.797 371.146 185.856C371.439 185.995 371.713 186.093 371.969 186.152C372.224 186.203 372.477 186.229 372.725 186.229C373.076 186.229 373.336 186.17 373.504 186.053C373.679 185.929 373.767 185.768 373.767 185.571C373.767 185.403 373.708 185.275 373.591 185.187C373.482 185.092 373.314 185.023 373.087 184.979L371.991 184.77C371.537 184.683 371.19 184.518 370.949 184.277C370.715 184.028 370.598 183.71 370.598 183.323C370.598 182.972 370.693 182.669 370.883 182.413C371.08 182.157 371.351 181.96 371.694 181.821C372.038 181.682 372.433 181.612 372.879 181.612C373.2 181.612 373.5 181.649 373.778 181.722C374.063 181.788 374.337 181.894 374.6 182.04C374.71 182.099 374.783 182.175 374.82 182.27C374.863 182.365 374.874 182.464 374.852 182.566C374.83 182.661 374.787 182.749 374.721 182.83C374.655 182.903 374.571 182.95 374.469 182.972C374.374 182.987 374.264 182.965 374.14 182.906C373.913 182.789 373.694 182.705 373.482 182.654C373.277 182.603 373.08 182.577 372.89 182.577C372.531 182.577 372.265 182.64 372.089 182.764C371.921 182.888 371.837 183.053 371.837 183.257C371.837 183.411 371.888 183.539 371.991 183.641C372.093 183.743 372.25 183.813 372.462 183.849L373.559 184.058C374.034 184.145 374.392 184.306 374.633 184.54C374.882 184.774 375.006 185.088 375.006 185.483C375.006 186.017 374.798 186.437 374.381 186.744C373.964 187.044 373.409 187.194 372.714 187.194ZM378.046 187.194C377.6 187.194 377.231 187.113 376.939 186.952C376.646 186.784 376.427 186.536 376.281 186.207C376.142 185.878 376.073 185.468 376.073 184.979V182.325C376.073 182.091 376.131 181.919 376.248 181.81C376.365 181.693 376.533 181.634 376.752 181.634C376.972 181.634 377.14 181.693 377.257 181.81C377.381 181.919 377.443 182.091 377.443 182.325V185.001C377.443 185.381 377.52 185.662 377.673 185.845C377.827 186.028 378.072 186.119 378.408 186.119C378.774 186.119 379.073 185.995 379.307 185.746C379.541 185.49 379.658 185.154 379.658 184.737V182.325C379.658 182.091 379.717 181.919 379.834 181.81C379.951 181.693 380.119 181.634 380.338 181.634C380.557 181.634 380.725 181.693 380.842 181.81C380.967 181.919 381.029 182.091 381.029 182.325V186.47C381.029 186.938 380.806 187.172 380.36 187.172C380.148 187.172 379.983 187.113 379.866 186.996C379.75 186.872 379.691 186.697 379.691 186.47V185.637L379.845 185.966C379.691 186.36 379.457 186.664 379.143 186.876C378.836 187.088 378.47 187.194 378.046 187.194ZM384.286 187.194C383.68 187.194 383.223 187.022 382.916 186.678C382.609 186.327 382.455 185.816 382.455 185.143V179.957C382.455 179.73 382.514 179.558 382.631 179.441C382.748 179.324 382.916 179.266 383.135 179.266C383.354 179.266 383.523 179.324 383.64 179.441C383.764 179.558 383.826 179.73 383.826 179.957V185.077C383.826 185.414 383.895 185.662 384.034 185.823C384.18 185.984 384.385 186.064 384.648 186.064C384.707 186.064 384.762 186.064 384.813 186.064C384.864 186.057 384.915 186.05 384.966 186.042C385.069 186.028 385.138 186.057 385.175 186.13C385.211 186.196 385.229 186.335 385.229 186.547C385.229 186.729 385.193 186.872 385.12 186.974C385.047 187.077 384.926 187.139 384.758 187.161C384.685 187.168 384.608 187.175 384.528 187.183C384.447 187.19 384.367 187.194 384.286 187.194ZM388.274 187.194C387.799 187.194 387.4 187.113 387.079 186.952C386.764 186.792 386.53 186.558 386.377 186.251C386.223 185.936 386.147 185.549 386.147 185.088V182.753H385.576C385.401 182.753 385.266 182.709 385.171 182.621C385.076 182.526 385.028 182.398 385.028 182.237C385.028 182.069 385.076 181.941 385.171 181.854C385.266 181.766 385.401 181.722 385.576 181.722H386.147V180.724C386.147 180.498 386.205 180.326 386.322 180.209C386.446 180.092 386.618 180.034 386.837 180.034C387.057 180.034 387.225 180.092 387.342 180.209C387.459 180.326 387.517 180.498 387.517 180.724V181.722H388.679C388.855 181.722 388.99 181.766 389.085 181.854C389.18 181.941 389.228 182.069 389.228 182.237C389.228 182.398 389.18 182.526 389.085 182.621C388.99 182.709 388.855 182.753 388.679 182.753H387.517V185.012C387.517 185.362 387.594 185.626 387.747 185.801C387.901 185.977 388.149 186.064 388.493 186.064C388.617 186.064 388.727 186.053 388.822 186.031C388.917 186.009 389.001 185.995 389.074 185.987C389.162 185.98 389.235 186.009 389.294 186.075C389.352 186.134 389.381 186.258 389.381 186.448C389.381 186.594 389.356 186.726 389.304 186.843C389.261 186.952 389.177 187.029 389.052 187.073C388.957 187.102 388.833 187.128 388.679 187.15C388.526 187.179 388.391 187.194 388.274 187.194ZM391.791 187.194C391.404 187.194 391.057 187.121 390.75 186.974C390.45 186.821 390.212 186.616 390.037 186.36C389.869 186.104 389.785 185.816 389.785 185.494C389.785 185.099 389.887 184.789 390.092 184.562C390.296 184.328 390.629 184.16 391.089 184.058C391.55 183.955 392.168 183.904 392.943 183.904H393.491V184.694H392.953C392.5 184.694 392.138 184.716 391.868 184.759C391.597 184.803 391.404 184.88 391.287 184.99C391.177 185.092 391.122 185.238 391.122 185.428C391.122 185.67 391.206 185.867 391.375 186.02C391.543 186.174 391.777 186.251 392.076 186.251C392.318 186.251 392.53 186.196 392.712 186.086C392.902 185.969 393.052 185.812 393.162 185.615C393.271 185.417 393.326 185.191 393.326 184.935V183.674C393.326 183.308 393.246 183.045 393.085 182.884C392.924 182.724 392.654 182.643 392.274 182.643C392.062 182.643 391.831 182.669 391.583 182.72C391.342 182.771 391.086 182.859 390.815 182.983C390.676 183.049 390.552 183.067 390.443 183.038C390.34 183.009 390.26 182.95 390.201 182.862C390.143 182.767 390.114 182.665 390.114 182.555C390.114 182.446 390.143 182.34 390.201 182.237C390.26 182.128 390.358 182.047 390.497 181.996C390.834 181.857 391.155 181.759 391.462 181.7C391.777 181.642 392.062 181.612 392.318 181.612C392.844 181.612 393.275 181.693 393.611 181.854C393.955 182.015 394.211 182.259 394.379 182.588C394.547 182.91 394.631 183.327 394.631 183.838V186.47C394.631 186.697 394.576 186.872 394.467 186.996C394.357 187.113 394.2 187.172 393.995 187.172C393.79 187.172 393.63 187.113 393.513 186.996C393.403 186.872 393.348 186.697 393.348 186.47V185.944H393.436C393.385 186.199 393.282 186.422 393.129 186.612C392.983 186.795 392.796 186.938 392.57 187.04C392.343 187.142 392.084 187.194 391.791 187.194ZM396.724 187.172C396.497 187.172 396.322 187.113 396.198 186.996C396.081 186.872 396.022 186.697 396.022 186.47V182.325C396.022 182.099 396.081 181.927 396.198 181.81C396.315 181.693 396.479 181.634 396.691 181.634C396.903 181.634 397.068 181.693 397.185 181.81C397.302 181.927 397.36 182.099 397.36 182.325V183.016H397.25C397.353 182.577 397.554 182.245 397.853 182.018C398.153 181.792 398.552 181.656 399.049 181.612C399.202 181.598 399.323 181.638 399.41 181.733C399.506 181.821 399.56 181.96 399.575 182.15C399.59 182.333 399.546 182.482 399.443 182.599C399.348 182.709 399.202 182.775 399.005 182.797L398.764 182.819C398.318 182.862 397.981 183.001 397.755 183.235C397.528 183.462 397.415 183.784 397.415 184.2V186.47C397.415 186.697 397.356 186.872 397.239 186.996C397.122 187.113 396.951 187.172 396.724 187.172ZM403.973 187.172C403.754 187.172 403.585 187.113 403.468 186.996C403.352 186.872 403.293 186.697 403.293 186.47V179.957C403.293 179.73 403.352 179.558 403.468 179.441C403.585 179.324 403.754 179.266 403.973 179.266C404.192 179.266 404.36 179.324 404.477 179.441C404.602 179.558 404.664 179.73 404.664 179.957V182.797H404.51C404.671 182.409 404.919 182.117 405.256 181.919C405.599 181.715 405.987 181.612 406.418 181.612C406.849 181.612 407.204 181.693 407.482 181.854C407.759 182.015 407.968 182.259 408.107 182.588C408.246 182.91 408.315 183.319 408.315 183.816V186.47C408.315 186.697 408.256 186.872 408.14 186.996C408.023 187.113 407.854 187.172 407.635 187.172C407.416 187.172 407.244 187.113 407.12 186.996C407.003 186.872 406.944 186.697 406.944 186.47V183.882C406.944 183.466 406.864 183.162 406.703 182.972C406.55 182.782 406.308 182.687 405.979 182.687C405.577 182.687 405.256 182.815 405.015 183.071C404.781 183.319 404.664 183.652 404.664 184.069V186.47C404.664 186.938 404.433 187.172 403.973 187.172ZM412.152 187.194C411.597 187.194 411.114 187.08 410.705 186.854C410.296 186.627 409.978 186.305 409.751 185.889C409.524 185.465 409.411 184.968 409.411 184.398C409.411 183.966 409.473 183.583 409.597 183.246C409.729 182.903 409.915 182.61 410.157 182.369C410.398 182.121 410.687 181.934 411.023 181.81C411.359 181.678 411.736 181.612 412.152 181.612C412.708 181.612 413.19 181.726 413.6 181.952C414.009 182.179 414.327 182.501 414.554 182.917C414.78 183.334 414.894 183.827 414.894 184.398C414.894 184.829 414.828 185.216 414.696 185.56C414.572 185.903 414.389 186.199 414.148 186.448C413.907 186.689 413.618 186.876 413.282 187.007C412.945 187.131 412.569 187.194 412.152 187.194ZM412.152 186.152C412.423 186.152 412.66 186.086 412.865 185.955C413.07 185.823 413.227 185.629 413.336 185.373C413.453 185.11 413.512 184.785 413.512 184.398C413.512 183.813 413.388 183.378 413.139 183.093C412.891 182.8 412.562 182.654 412.152 182.654C411.882 182.654 411.644 182.72 411.44 182.852C411.235 182.976 411.074 183.169 410.957 183.433C410.847 183.689 410.793 184.01 410.793 184.398C410.793 184.975 410.917 185.414 411.165 185.713C411.414 186.006 411.743 186.152 412.152 186.152ZM416.727 187.172C416.5 187.172 416.325 187.113 416.2 186.996C416.083 186.872 416.025 186.697 416.025 186.47V182.325C416.025 182.099 416.083 181.927 416.2 181.81C416.317 181.693 416.482 181.634 416.694 181.634C416.906 181.634 417.07 181.693 417.187 181.81C417.304 181.927 417.363 182.099 417.363 182.325V183.016H417.253C417.355 182.577 417.556 182.245 417.856 182.018C418.156 181.792 418.554 181.656 419.051 181.612C419.205 181.598 419.325 181.638 419.413 181.733C419.508 181.821 419.563 181.96 419.577 182.15C419.592 182.333 419.548 182.482 419.446 182.599C419.351 182.709 419.205 182.775 419.007 182.797L418.766 182.819C418.32 182.862 417.984 183.001 417.757 183.235C417.531 183.462 417.417 183.784 417.417 184.2V186.47C417.417 186.697 417.359 186.872 417.242 186.996C417.125 187.113 416.953 187.172 416.727 187.172ZM422.031 187.194C421.643 187.194 421.296 187.121 420.989 186.974C420.689 186.821 420.452 186.616 420.276 186.36C420.108 186.104 420.024 185.816 420.024 185.494C420.024 185.099 420.126 184.789 420.331 184.562C420.536 184.328 420.868 184.16 421.329 184.058C421.789 183.955 422.407 183.904 423.182 183.904H423.73V184.694H423.193C422.74 184.694 422.378 184.716 422.107 184.759C421.837 184.803 421.643 184.88 421.526 184.99C421.416 185.092 421.362 185.238 421.362 185.428C421.362 185.67 421.446 185.867 421.614 186.02C421.782 186.174 422.016 186.251 422.316 186.251C422.557 186.251 422.769 186.196 422.952 186.086C423.142 185.969 423.291 185.812 423.401 185.615C423.511 185.417 423.566 185.191 423.566 184.935V183.674C423.566 183.308 423.485 183.045 423.324 182.884C423.164 182.724 422.893 182.643 422.513 182.643C422.301 182.643 422.071 182.669 421.822 182.72C421.581 182.771 421.325 182.859 421.055 182.983C420.916 183.049 420.791 183.067 420.682 183.038C420.579 183.009 420.499 182.95 420.441 182.862C420.382 182.767 420.353 182.665 420.353 182.555C420.353 182.446 420.382 182.34 420.441 182.237C420.499 182.128 420.598 182.047 420.737 181.996C421.073 181.857 421.395 181.759 421.702 181.7C422.016 181.642 422.301 181.612 422.557 181.612C423.083 181.612 423.514 181.693 423.851 181.854C424.194 182.015 424.45 182.259 424.618 182.588C424.786 182.91 424.87 183.327 424.87 183.838V186.47C424.87 186.697 424.816 186.872 424.706 186.996C424.596 187.113 424.439 187.172 424.234 187.172C424.03 187.172 423.869 187.113 423.752 186.996C423.642 186.872 423.588 186.697 423.588 186.47V185.944H423.675C423.624 186.199 423.522 186.422 423.368 186.612C423.222 186.795 423.036 186.938 422.809 187.04C422.582 187.142 422.323 187.194 422.031 187.194ZM426.963 187.172C426.737 187.172 426.561 187.113 426.437 186.996C426.32 186.872 426.262 186.697 426.262 186.47V182.325C426.262 182.099 426.32 181.927 426.437 181.81C426.554 181.693 426.718 181.634 426.93 181.634C427.142 181.634 427.307 181.693 427.424 181.81C427.541 181.927 427.599 182.099 427.599 182.325V183.016H427.49C427.592 182.577 427.793 182.245 428.093 182.018C428.392 181.792 428.791 181.656 429.288 181.612C429.441 181.598 429.562 181.638 429.65 181.733C429.745 181.821 429.8 181.96 429.814 182.15C429.829 182.333 429.785 182.482 429.683 182.599C429.588 182.709 429.441 182.775 429.244 182.797L429.003 182.819C428.557 182.862 428.221 183.001 427.994 183.235C427.767 183.462 427.654 183.784 427.654 184.2V186.47C427.654 186.697 427.596 186.872 427.479 186.996C427.362 187.113 427.19 187.172 426.963 187.172ZM431.235 187.161C431.016 187.161 430.848 187.095 430.731 186.963C430.614 186.832 430.556 186.649 430.556 186.415V182.391C430.556 182.15 430.614 181.967 430.731 181.843C430.848 181.711 431.016 181.645 431.235 181.645C431.455 181.645 431.623 181.711 431.74 181.843C431.864 181.967 431.926 182.15 431.926 182.391V186.415C431.926 186.649 431.868 186.832 431.751 186.963C431.634 187.095 431.462 187.161 431.235 187.161ZM431.235 180.626C430.979 180.626 430.778 180.563 430.632 180.439C430.493 180.308 430.424 180.129 430.424 179.902C430.424 179.668 430.493 179.489 430.632 179.365C430.778 179.24 430.979 179.178 431.235 179.178C431.498 179.178 431.7 179.24 431.838 179.365C431.977 179.489 432.047 179.668 432.047 179.902C432.047 180.129 431.977 180.308 431.838 180.439C431.7 180.563 431.498 180.626 431.235 180.626ZM435.795 187.194C435.24 187.194 434.757 187.08 434.348 186.854C433.939 186.627 433.621 186.305 433.394 185.889C433.168 185.465 433.054 184.968 433.054 184.398C433.054 183.966 433.116 183.583 433.241 183.246C433.372 182.903 433.559 182.61 433.8 182.369C434.041 182.121 434.33 181.934 434.666 181.81C435.002 181.678 435.379 181.612 435.795 181.612C436.351 181.612 436.833 181.726 437.243 181.952C437.652 182.179 437.97 182.501 438.197 182.917C438.423 183.334 438.537 183.827 438.537 184.398C438.537 184.829 438.471 185.216 438.339 185.56C438.215 185.903 438.032 186.199 437.791 186.448C437.55 186.689 437.261 186.876 436.925 187.007C436.589 187.131 436.212 187.194 435.795 187.194ZM435.795 186.152C436.066 186.152 436.304 186.086 436.508 185.955C436.713 185.823 436.87 185.629 436.98 185.373C437.097 185.11 437.155 184.785 437.155 184.398C437.155 183.813 437.031 183.378 436.782 183.093C436.534 182.8 436.205 182.654 435.795 182.654C435.525 182.654 435.287 182.72 435.083 182.852C434.878 182.976 434.717 183.169 434.6 183.433C434.491 183.689 434.436 184.01 434.436 184.398C434.436 184.975 434.56 185.414 434.809 185.713C435.057 186.006 435.386 186.152 435.795 186.152ZM441.631 187.194C441.316 187.194 440.984 187.161 440.633 187.095C440.282 187.029 439.968 186.916 439.69 186.755C439.573 186.682 439.489 186.598 439.438 186.503C439.394 186.401 439.376 186.302 439.383 186.207C439.398 186.104 439.434 186.017 439.493 185.944C439.558 185.871 439.639 185.823 439.734 185.801C439.836 185.779 439.946 185.797 440.063 185.856C440.355 185.995 440.629 186.093 440.885 186.152C441.141 186.203 441.393 186.229 441.642 186.229C441.993 186.229 442.252 186.17 442.42 186.053C442.596 185.929 442.683 185.768 442.683 185.571C442.683 185.403 442.625 185.275 442.508 185.187C442.398 185.092 442.23 185.023 442.004 184.979L440.907 184.77C440.454 184.683 440.107 184.518 439.865 184.277C439.631 184.028 439.514 183.71 439.514 183.323C439.514 182.972 439.61 182.669 439.8 182.413C439.997 182.157 440.267 181.96 440.611 181.821C440.955 181.682 441.349 181.612 441.795 181.612C442.117 181.612 442.417 181.649 442.694 181.722C442.979 181.788 443.254 181.894 443.517 182.04C443.626 182.099 443.699 182.175 443.736 182.27C443.78 182.365 443.791 182.464 443.769 182.566C443.747 182.661 443.703 182.749 443.637 182.83C443.572 182.903 443.487 182.95 443.385 182.972C443.29 182.987 443.18 182.965 443.056 182.906C442.83 182.789 442.61 182.705 442.398 182.654C442.194 182.603 441.996 182.577 441.806 182.577C441.448 182.577 441.181 182.64 441.006 182.764C440.838 182.888 440.754 183.053 440.754 183.257C440.754 183.411 440.805 183.539 440.907 183.641C441.009 183.743 441.167 183.813 441.379 183.849L442.475 184.058C442.95 184.145 443.308 184.306 443.55 184.54C443.798 184.774 443.922 185.088 443.922 185.483C443.922 186.017 443.714 186.437 443.297 186.744C442.881 187.044 442.325 187.194 441.631 187.194Z" fill="#F3F6F9"/>
<rect width="344" height="180" transform="translate(191 221.104)" fill="white"/>
<rect x="215" y="237.104" width="140" height="148" rx="8" fill="#E6EBF0"/>
<rect x="371" y="237.104" width="140" height="148" rx="8" fill="#E6EBF0"/>
</g>
<rect x="192" y="1.50732" width="344" height="293" stroke="#E6EBF0" stroke-width="2"/>
<defs>
<clipPath id="clip0_189_5797">
<rect x="191" y="0.507324" width="346" height="295" fill="white"/>
</clipPath>
</defs>
</svg>
