<svg width="728" height="232" viewBox="0 0 728 232" fill="none" xmlns="http://www.w3.org/2000/svg">
<rect x="1" y="1" width="726" height="230" rx="7" fill="#F3F6F9"/>
<rect x="1" y="1" width="726" height="230" rx="7" stroke="#E6EBF0" stroke-width="2"/>
<g clip-path="url(#clip0_742_9214)">
<path d="M168.062 122V110.578H169.391V122H168.062ZM176.391 113.281C177.406 113.281 178.174 113.531 178.695 114.031C179.216 114.526 179.477 115.323 179.477 116.422V122H178.195V116.508C178.195 115.794 178.031 115.26 177.703 114.906C177.38 114.552 176.883 114.375 176.211 114.375C175.263 114.375 174.596 114.643 174.211 115.18C173.826 115.716 173.633 116.495 173.633 117.516V122H172.336V113.438H173.383L173.578 114.672H173.648C173.831 114.37 174.062 114.117 174.344 113.914C174.625 113.706 174.94 113.549 175.289 113.445C175.638 113.336 176.005 113.281 176.391 113.281ZM183.445 113.438V122H182.148V113.438H183.445ZM182.812 110.234C183.026 110.234 183.208 110.305 183.359 110.445C183.516 110.581 183.594 110.794 183.594 111.086C183.594 111.372 183.516 111.586 183.359 111.727C183.208 111.867 183.026 111.938 182.812 111.938C182.589 111.938 182.401 111.867 182.25 111.727C182.104 111.586 182.031 111.372 182.031 111.086C182.031 110.794 182.104 110.581 182.25 110.445C182.401 110.305 182.589 110.234 182.812 110.234ZM189.625 122.156C188.854 122.156 188.174 121.997 187.586 121.68C186.997 121.362 186.539 120.878 186.211 120.227C185.883 119.576 185.719 118.755 185.719 117.766C185.719 116.729 185.891 115.883 186.234 115.227C186.583 114.565 187.062 114.076 187.672 113.758C188.281 113.44 188.974 113.281 189.75 113.281C190.177 113.281 190.589 113.326 190.984 113.414C191.385 113.497 191.714 113.604 191.969 113.734L191.578 114.82C191.318 114.716 191.016 114.622 190.672 114.539C190.333 114.456 190.016 114.414 189.719 114.414C189.125 114.414 188.63 114.542 188.234 114.797C187.844 115.052 187.549 115.427 187.352 115.922C187.159 116.417 187.062 117.026 187.062 117.75C187.062 118.443 187.156 119.034 187.344 119.523C187.536 120.013 187.82 120.388 188.195 120.648C188.576 120.904 189.049 121.031 189.617 121.031C190.07 121.031 190.479 120.984 190.844 120.891C191.208 120.792 191.539 120.677 191.836 120.547V121.703C191.549 121.849 191.229 121.961 190.875 122.039C190.526 122.117 190.109 122.156 189.625 122.156ZM195.164 113.438V122H193.867V113.438H195.164ZM194.531 110.234C194.745 110.234 194.927 110.305 195.078 110.445C195.234 110.581 195.312 110.794 195.312 111.086C195.312 111.372 195.234 111.586 195.078 111.727C194.927 111.867 194.745 111.938 194.531 111.938C194.307 111.938 194.12 111.867 193.969 111.727C193.823 111.586 193.75 111.372 193.75 111.086C193.75 110.794 193.823 110.581 193.969 110.445C194.12 110.305 194.307 110.234 194.531 110.234ZM205.297 117.703C205.297 118.406 205.206 119.034 205.023 119.586C204.841 120.138 204.578 120.604 204.234 120.984C203.891 121.365 203.474 121.656 202.984 121.859C202.5 122.057 201.951 122.156 201.336 122.156C200.763 122.156 200.237 122.057 199.758 121.859C199.284 121.656 198.872 121.365 198.523 120.984C198.18 120.604 197.911 120.138 197.719 119.586C197.531 119.034 197.438 118.406 197.438 117.703C197.438 116.766 197.596 115.969 197.914 115.312C198.232 114.651 198.685 114.148 199.273 113.805C199.867 113.456 200.573 113.281 201.391 113.281C202.172 113.281 202.854 113.456 203.438 113.805C204.026 114.154 204.482 114.659 204.805 115.32C205.133 115.977 205.297 116.771 205.297 117.703ZM198.781 117.703C198.781 118.391 198.872 118.987 199.055 119.492C199.237 119.997 199.518 120.388 199.898 120.664C200.279 120.94 200.768 121.078 201.367 121.078C201.961 121.078 202.448 120.94 202.828 120.664C203.214 120.388 203.497 119.997 203.68 119.492C203.862 118.987 203.953 118.391 203.953 117.703C203.953 117.021 203.862 116.432 203.68 115.938C203.497 115.438 203.216 115.052 202.836 114.781C202.456 114.51 201.964 114.375 201.359 114.375C200.469 114.375 199.815 114.669 199.398 115.258C198.987 115.846 198.781 116.661 198.781 117.703Z" fill="#336ACC"/>
<path d="M166.5 124.52H206.172V126.52H166.5V124.52Z" fill="#336ACC"/>
</g>
<path d="M223.5 110.711C223.11 111.101 223.11 111.731 223.5 112.121L227.38 116.001L223.5 119.881C223.11 120.271 223.11 120.901 223.5 121.291C223.89 121.681 224.52 121.681 224.91 121.291L229.5 116.701C229.89 116.311 229.89 115.681 229.5 115.291L224.91 110.701C224.53 110.321 223.89 110.321 223.5 110.711Z" fill="#101E37"/>
<g clip-path="url(#clip1_742_9214)">
<path d="M247.047 110.578C248.521 110.578 249.596 110.867 250.273 111.445C250.956 112.018 251.297 112.841 251.297 113.914C251.297 114.398 251.216 114.859 251.055 115.297C250.898 115.729 250.643 116.112 250.289 116.445C249.935 116.773 249.469 117.034 248.891 117.227C248.318 117.414 247.615 117.508 246.781 117.508H245.391V122H244.062V110.578H247.047ZM246.922 111.711H245.391V116.367H246.633C247.362 116.367 247.969 116.289 248.453 116.133C248.943 115.977 249.31 115.724 249.555 115.375C249.799 115.021 249.922 114.552 249.922 113.969C249.922 113.208 249.68 112.643 249.195 112.273C248.711 111.898 247.953 111.711 246.922 111.711ZM256.695 113.297C257.716 113.297 258.474 113.526 258.969 113.984C259.464 114.443 259.711 115.174 259.711 116.18V122H258.766L258.516 120.734H258.453C258.214 121.047 257.964 121.31 257.703 121.523C257.443 121.732 257.141 121.891 256.797 122C256.458 122.104 256.042 122.156 255.547 122.156C255.026 122.156 254.562 122.065 254.156 121.883C253.755 121.701 253.438 121.424 253.203 121.055C252.974 120.685 252.859 120.216 252.859 119.648C252.859 118.794 253.198 118.138 253.875 117.68C254.552 117.221 255.583 116.971 256.969 116.93L258.445 116.867V116.344C258.445 115.604 258.286 115.086 257.969 114.789C257.651 114.492 257.203 114.344 256.625 114.344C256.177 114.344 255.75 114.409 255.344 114.539C254.938 114.669 254.552 114.823 254.188 115L253.789 114.016C254.174 113.818 254.617 113.648 255.117 113.508C255.617 113.367 256.143 113.297 256.695 113.297ZM258.43 117.781L257.125 117.836C256.057 117.878 255.305 118.052 254.867 118.359C254.43 118.667 254.211 119.102 254.211 119.664C254.211 120.154 254.359 120.516 254.656 120.75C254.953 120.984 255.346 121.102 255.836 121.102C256.596 121.102 257.219 120.891 257.703 120.469C258.188 120.047 258.43 119.414 258.43 118.57V117.781ZM258.836 109.742V109.898C258.732 110.049 258.589 110.232 258.406 110.445C258.229 110.654 258.031 110.875 257.812 111.109C257.594 111.339 257.372 111.557 257.148 111.766C256.93 111.974 256.727 112.154 256.539 112.305H255.672V112.117C255.839 111.919 256.021 111.682 256.219 111.406C256.417 111.125 256.609 110.839 256.797 110.547C256.984 110.25 257.141 109.982 257.266 109.742H258.836ZM264.773 125.844C263.648 125.844 262.781 125.633 262.172 125.211C261.562 124.794 261.258 124.208 261.258 123.453C261.258 122.917 261.427 122.458 261.766 122.078C262.109 121.698 262.583 121.445 263.188 121.32C262.964 121.216 262.771 121.06 262.609 120.852C262.453 120.643 262.375 120.404 262.375 120.133C262.375 119.82 262.461 119.547 262.633 119.312C262.81 119.073 263.078 118.844 263.438 118.625C262.99 118.443 262.625 118.135 262.344 117.703C262.068 117.266 261.93 116.758 261.93 116.18C261.93 115.565 262.057 115.042 262.312 114.609C262.568 114.172 262.938 113.839 263.422 113.609C263.906 113.38 264.492 113.266 265.18 113.266C265.331 113.266 265.482 113.273 265.633 113.289C265.789 113.299 265.938 113.318 266.078 113.344C266.219 113.365 266.341 113.391 266.445 113.422H269.383V114.258L267.805 114.453C267.961 114.656 268.091 114.901 268.195 115.188C268.299 115.474 268.352 115.792 268.352 116.141C268.352 116.995 268.062 117.674 267.484 118.18C266.906 118.68 266.112 118.93 265.102 118.93C264.862 118.93 264.617 118.909 264.367 118.867C264.112 119.008 263.917 119.164 263.781 119.336C263.651 119.508 263.586 119.706 263.586 119.93C263.586 120.096 263.635 120.229 263.734 120.328C263.839 120.427 263.987 120.5 264.18 120.547C264.372 120.589 264.604 120.609 264.875 120.609H266.383C267.315 120.609 268.029 120.805 268.523 121.195C269.023 121.586 269.273 122.156 269.273 122.906C269.273 123.854 268.888 124.581 268.117 125.086C267.346 125.591 266.232 125.844 264.773 125.844ZM264.812 124.828C265.521 124.828 266.107 124.755 266.57 124.609C267.039 124.469 267.388 124.263 267.617 123.992C267.852 123.727 267.969 123.409 267.969 123.039C267.969 122.695 267.891 122.435 267.734 122.258C267.578 122.086 267.349 121.971 267.047 121.914C266.745 121.852 266.375 121.82 265.938 121.82H264.453C264.068 121.82 263.732 121.88 263.445 122C263.159 122.12 262.938 122.297 262.781 122.531C262.63 122.766 262.555 123.057 262.555 123.406C262.555 123.87 262.75 124.221 263.141 124.461C263.531 124.706 264.089 124.828 264.812 124.828ZM265.148 117.984C265.768 117.984 266.234 117.828 266.547 117.516C266.859 117.203 267.016 116.747 267.016 116.148C267.016 115.508 266.857 115.029 266.539 114.711C266.221 114.388 265.753 114.227 265.133 114.227C264.539 114.227 264.081 114.393 263.758 114.727C263.44 115.055 263.281 115.536 263.281 116.172C263.281 116.755 263.443 117.203 263.766 117.516C264.089 117.828 264.549 117.984 265.148 117.984ZM272.367 113.438V122H271.07V113.438H272.367ZM271.734 110.234C271.948 110.234 272.13 110.305 272.281 110.445C272.438 110.581 272.516 110.794 272.516 111.086C272.516 111.372 272.438 111.586 272.281 111.727C272.13 111.867 271.948 111.938 271.734 111.938C271.51 111.938 271.323 111.867 271.172 111.727C271.026 111.586 270.953 111.372 270.953 111.086C270.953 110.794 271.026 110.581 271.172 110.445C271.323 110.305 271.51 110.234 271.734 110.234ZM279.172 113.281C280.188 113.281 280.956 113.531 281.477 114.031C281.997 114.526 282.258 115.323 282.258 116.422V122H280.977V116.508C280.977 115.794 280.812 115.26 280.484 114.906C280.161 114.552 279.664 114.375 278.992 114.375C278.044 114.375 277.378 114.643 276.992 115.18C276.607 115.716 276.414 116.495 276.414 117.516V122H275.117V113.438H276.164L276.359 114.672H276.43C276.612 114.37 276.844 114.117 277.125 113.914C277.406 113.706 277.721 113.549 278.07 113.445C278.419 113.336 278.786 113.281 279.172 113.281ZM288.133 113.297C289.154 113.297 289.911 113.526 290.406 113.984C290.901 114.443 291.148 115.174 291.148 116.18V122H290.203L289.953 120.734H289.891C289.651 121.047 289.401 121.31 289.141 121.523C288.88 121.732 288.578 121.891 288.234 122C287.896 122.104 287.479 122.156 286.984 122.156C286.464 122.156 286 122.065 285.594 121.883C285.193 121.701 284.875 121.424 284.641 121.055C284.411 120.685 284.297 120.216 284.297 119.648C284.297 118.794 284.635 118.138 285.312 117.68C285.99 117.221 287.021 116.971 288.406 116.93L289.883 116.867V116.344C289.883 115.604 289.724 115.086 289.406 114.789C289.089 114.492 288.641 114.344 288.062 114.344C287.615 114.344 287.188 114.409 286.781 114.539C286.375 114.669 285.99 114.823 285.625 115L285.227 114.016C285.612 113.818 286.055 113.648 286.555 113.508C287.055 113.367 287.581 113.297 288.133 113.297ZM289.867 117.781L288.562 117.836C287.495 117.878 286.742 118.052 286.305 118.359C285.867 118.667 285.648 119.102 285.648 119.664C285.648 120.154 285.797 120.516 286.094 120.75C286.391 120.984 286.784 121.102 287.273 121.102C288.034 121.102 288.656 120.891 289.141 120.469C289.625 120.047 289.867 119.414 289.867 118.57V117.781ZM304.883 122H297.398V120.914L300.453 117.812C301.021 117.24 301.497 116.729 301.883 116.281C302.273 115.833 302.57 115.393 302.773 114.961C302.977 114.523 303.078 114.044 303.078 113.523C303.078 112.878 302.885 112.385 302.5 112.047C302.12 111.703 301.617 111.531 300.992 111.531C300.445 111.531 299.961 111.625 299.539 111.812C299.117 112 298.685 112.266 298.242 112.609L297.547 111.734C297.849 111.479 298.177 111.253 298.531 111.055C298.891 110.857 299.273 110.701 299.68 110.586C300.091 110.471 300.529 110.414 300.992 110.414C301.695 110.414 302.302 110.536 302.812 110.781C303.323 111.026 303.716 111.375 303.992 111.828C304.273 112.281 304.414 112.82 304.414 113.445C304.414 114.049 304.294 114.612 304.055 115.133C303.815 115.648 303.479 116.161 303.047 116.672C302.615 117.177 302.109 117.714 301.531 118.281L299.047 120.758V120.812H304.883V122Z" fill="#336ACC"/>
<path d="M242.5 124.52H305.758V126.52H242.5V124.52Z" fill="#336ACC"/>
</g>
<path d="M323.5 110.711C323.11 111.101 323.11 111.731 323.5 112.121L327.38 116.001L323.5 119.881C323.11 120.271 323.11 120.901 323.5 121.291C323.89 121.681 324.52 121.681 324.91 121.291L329.5 116.701C329.89 116.311 329.89 115.681 329.5 115.291L324.91 110.701C324.53 110.321 323.89 110.321 323.5 110.711Z" fill="#101E37"/>
<g clip-path="url(#clip2_742_9214)">
<path d="M347.047 110.578C348.521 110.578 349.596 110.867 350.273 111.445C350.956 112.018 351.297 112.841 351.297 113.914C351.297 114.398 351.216 114.859 351.055 115.297C350.898 115.729 350.643 116.112 350.289 116.445C349.935 116.773 349.469 117.034 348.891 117.227C348.318 117.414 347.615 117.508 346.781 117.508H345.391V122H344.062V110.578H347.047ZM346.922 111.711H345.391V116.367H346.633C347.362 116.367 347.969 116.289 348.453 116.133C348.943 115.977 349.31 115.724 349.555 115.375C349.799 115.021 349.922 114.552 349.922 113.969C349.922 113.208 349.68 112.643 349.195 112.273C348.711 111.898 347.953 111.711 346.922 111.711ZM356.695 113.297C357.716 113.297 358.474 113.526 358.969 113.984C359.464 114.443 359.711 115.174 359.711 116.18V122H358.766L358.516 120.734H358.453C358.214 121.047 357.964 121.31 357.703 121.523C357.443 121.732 357.141 121.891 356.797 122C356.458 122.104 356.042 122.156 355.547 122.156C355.026 122.156 354.562 122.065 354.156 121.883C353.755 121.701 353.438 121.424 353.203 121.055C352.974 120.685 352.859 120.216 352.859 119.648C352.859 118.794 353.198 118.138 353.875 117.68C354.552 117.221 355.583 116.971 356.969 116.93L358.445 116.867V116.344C358.445 115.604 358.286 115.086 357.969 114.789C357.651 114.492 357.203 114.344 356.625 114.344C356.177 114.344 355.75 114.409 355.344 114.539C354.938 114.669 354.552 114.823 354.188 115L353.789 114.016C354.174 113.818 354.617 113.648 355.117 113.508C355.617 113.367 356.143 113.297 356.695 113.297ZM358.43 117.781L357.125 117.836C356.057 117.878 355.305 118.052 354.867 118.359C354.43 118.667 354.211 119.102 354.211 119.664C354.211 120.154 354.359 120.516 354.656 120.75C354.953 120.984 355.346 121.102 355.836 121.102C356.596 121.102 357.219 120.891 357.703 120.469C358.188 120.047 358.43 119.414 358.43 118.57V117.781ZM358.836 109.742V109.898C358.732 110.049 358.589 110.232 358.406 110.445C358.229 110.654 358.031 110.875 357.812 111.109C357.594 111.339 357.372 111.557 357.148 111.766C356.93 111.974 356.727 112.154 356.539 112.305H355.672V112.117C355.839 111.919 356.021 111.682 356.219 111.406C356.417 111.125 356.609 110.839 356.797 110.547C356.984 110.25 357.141 109.982 357.266 109.742H358.836ZM364.773 125.844C363.648 125.844 362.781 125.633 362.172 125.211C361.562 124.794 361.258 124.208 361.258 123.453C361.258 122.917 361.427 122.458 361.766 122.078C362.109 121.698 362.583 121.445 363.188 121.32C362.964 121.216 362.771 121.06 362.609 120.852C362.453 120.643 362.375 120.404 362.375 120.133C362.375 119.82 362.461 119.547 362.633 119.312C362.81 119.073 363.078 118.844 363.438 118.625C362.99 118.443 362.625 118.135 362.344 117.703C362.068 117.266 361.93 116.758 361.93 116.18C361.93 115.565 362.057 115.042 362.312 114.609C362.568 114.172 362.938 113.839 363.422 113.609C363.906 113.38 364.492 113.266 365.18 113.266C365.331 113.266 365.482 113.273 365.633 113.289C365.789 113.299 365.938 113.318 366.078 113.344C366.219 113.365 366.341 113.391 366.445 113.422H369.383V114.258L367.805 114.453C367.961 114.656 368.091 114.901 368.195 115.188C368.299 115.474 368.352 115.792 368.352 116.141C368.352 116.995 368.062 117.674 367.484 118.18C366.906 118.68 366.112 118.93 365.102 118.93C364.862 118.93 364.617 118.909 364.367 118.867C364.112 119.008 363.917 119.164 363.781 119.336C363.651 119.508 363.586 119.706 363.586 119.93C363.586 120.096 363.635 120.229 363.734 120.328C363.839 120.427 363.987 120.5 364.18 120.547C364.372 120.589 364.604 120.609 364.875 120.609H366.383C367.315 120.609 368.029 120.805 368.523 121.195C369.023 121.586 369.273 122.156 369.273 122.906C369.273 123.854 368.888 124.581 368.117 125.086C367.346 125.591 366.232 125.844 364.773 125.844ZM364.812 124.828C365.521 124.828 366.107 124.755 366.57 124.609C367.039 124.469 367.388 124.263 367.617 123.992C367.852 123.727 367.969 123.409 367.969 123.039C367.969 122.695 367.891 122.435 367.734 122.258C367.578 122.086 367.349 121.971 367.047 121.914C366.745 121.852 366.375 121.82 365.938 121.82H364.453C364.068 121.82 363.732 121.88 363.445 122C363.159 122.12 362.938 122.297 362.781 122.531C362.63 122.766 362.555 123.057 362.555 123.406C362.555 123.87 362.75 124.221 363.141 124.461C363.531 124.706 364.089 124.828 364.812 124.828ZM365.148 117.984C365.768 117.984 366.234 117.828 366.547 117.516C366.859 117.203 367.016 116.747 367.016 116.148C367.016 115.508 366.857 115.029 366.539 114.711C366.221 114.388 365.753 114.227 365.133 114.227C364.539 114.227 364.081 114.393 363.758 114.727C363.44 115.055 363.281 115.536 363.281 116.172C363.281 116.755 363.443 117.203 363.766 117.516C364.089 117.828 364.549 117.984 365.148 117.984ZM372.367 113.438V122H371.07V113.438H372.367ZM371.734 110.234C371.948 110.234 372.13 110.305 372.281 110.445C372.438 110.581 372.516 110.794 372.516 111.086C372.516 111.372 372.438 111.586 372.281 111.727C372.13 111.867 371.948 111.938 371.734 111.938C371.51 111.938 371.323 111.867 371.172 111.727C371.026 111.586 370.953 111.372 370.953 111.086C370.953 110.794 371.026 110.581 371.172 110.445C371.323 110.305 371.51 110.234 371.734 110.234ZM379.172 113.281C380.188 113.281 380.956 113.531 381.477 114.031C381.997 114.526 382.258 115.323 382.258 116.422V122H380.977V116.508C380.977 115.794 380.812 115.26 380.484 114.906C380.161 114.552 379.664 114.375 378.992 114.375C378.044 114.375 377.378 114.643 376.992 115.18C376.607 115.716 376.414 116.495 376.414 117.516V122H375.117V113.438H376.164L376.359 114.672H376.43C376.612 114.37 376.844 114.117 377.125 113.914C377.406 113.706 377.721 113.549 378.07 113.445C378.419 113.336 378.786 113.281 379.172 113.281ZM388.133 113.297C389.154 113.297 389.911 113.526 390.406 113.984C390.901 114.443 391.148 115.174 391.148 116.18V122H390.203L389.953 120.734H389.891C389.651 121.047 389.401 121.31 389.141 121.523C388.88 121.732 388.578 121.891 388.234 122C387.896 122.104 387.479 122.156 386.984 122.156C386.464 122.156 386 122.065 385.594 121.883C385.193 121.701 384.875 121.424 384.641 121.055C384.411 120.685 384.297 120.216 384.297 119.648C384.297 118.794 384.635 118.138 385.312 117.68C385.99 117.221 387.021 116.971 388.406 116.93L389.883 116.867V116.344C389.883 115.604 389.724 115.086 389.406 114.789C389.089 114.492 388.641 114.344 388.062 114.344C387.615 114.344 387.188 114.409 386.781 114.539C386.375 114.669 385.99 114.823 385.625 115L385.227 114.016C385.612 113.818 386.055 113.648 386.555 113.508C387.055 113.367 387.581 113.297 388.133 113.297ZM389.867 117.781L388.562 117.836C387.495 117.878 386.742 118.052 386.305 118.359C385.867 118.667 385.648 119.102 385.648 119.664C385.648 120.154 385.797 120.516 386.094 120.75C386.391 120.984 386.784 121.102 387.273 121.102C388.034 121.102 388.656 120.891 389.141 120.469C389.625 120.047 389.867 119.414 389.867 118.57V117.781ZM404.461 113.242C404.461 113.753 404.362 114.195 404.164 114.57C403.966 114.945 403.69 115.253 403.336 115.492C402.982 115.727 402.565 115.891 402.086 115.984V116.047C402.992 116.161 403.672 116.453 404.125 116.922C404.583 117.391 404.812 118.005 404.812 118.766C404.812 119.427 404.656 120.013 404.344 120.523C404.036 121.034 403.562 121.435 402.922 121.727C402.286 122.013 401.471 122.156 400.477 122.156C399.872 122.156 399.312 122.107 398.797 122.008C398.286 121.914 397.797 121.755 397.328 121.531V120.312C397.802 120.547 398.318 120.732 398.875 120.867C399.432 120.997 399.971 121.062 400.492 121.062C401.534 121.062 402.286 120.857 402.75 120.445C403.214 120.029 403.445 119.461 403.445 118.742C403.445 118.247 403.315 117.849 403.055 117.547C402.799 117.24 402.43 117.016 401.945 116.875C401.466 116.729 400.888 116.656 400.211 116.656H399.07V115.547H400.219C400.839 115.547 401.365 115.456 401.797 115.273C402.229 115.091 402.557 114.836 402.781 114.508C403.01 114.174 403.125 113.781 403.125 113.328C403.125 112.75 402.932 112.305 402.547 111.992C402.161 111.674 401.638 111.516 400.977 111.516C400.57 111.516 400.201 111.557 399.867 111.641C399.534 111.724 399.221 111.839 398.93 111.984C398.638 112.13 398.346 112.299 398.055 112.492L397.398 111.602C397.815 111.279 398.323 111 398.922 110.766C399.521 110.531 400.201 110.414 400.961 110.414C402.128 110.414 403.003 110.68 403.586 111.211C404.169 111.742 404.461 112.419 404.461 113.242Z" fill="#336ACC"/>
<path d="M342.5 124.52H405.758V126.52H342.5V124.52Z" fill="#336ACC"/>
</g>
<path d="M423.5 110.711C423.11 111.101 423.11 111.731 423.5 112.121L427.38 116.001L423.5 119.881C423.11 120.271 423.11 120.901 423.5 121.291C423.89 121.681 424.52 121.681 424.91 121.291L429.5 116.701C429.89 116.311 429.89 115.681 429.5 115.291L424.91 110.701C424.53 110.321 423.89 110.321 423.5 110.711Z" fill="#101E37"/>
<g clip-path="url(#clip3_742_9214)">
<path d="M451.047 110.578C452.521 110.578 453.596 110.867 454.273 111.445C454.956 112.018 455.297 112.841 455.297 113.914C455.297 114.398 455.216 114.859 455.055 115.297C454.898 115.729 454.643 116.112 454.289 116.445C453.935 116.773 453.469 117.034 452.891 117.227C452.318 117.414 451.615 117.508 450.781 117.508H449.391V122H448.062V110.578H451.047ZM450.922 111.711H449.391V116.367H450.633C451.362 116.367 451.969 116.289 452.453 116.133C452.943 115.977 453.31 115.724 453.555 115.375C453.799 115.021 453.922 114.552 453.922 113.969C453.922 113.208 453.68 112.643 453.195 112.273C452.711 111.898 451.953 111.711 450.922 111.711ZM460.695 113.297C461.716 113.297 462.474 113.526 462.969 113.984C463.464 114.443 463.711 115.174 463.711 116.18V122H462.766L462.516 120.734H462.453C462.214 121.047 461.964 121.31 461.703 121.523C461.443 121.732 461.141 121.891 460.797 122C460.458 122.104 460.042 122.156 459.547 122.156C459.026 122.156 458.562 122.065 458.156 121.883C457.755 121.701 457.438 121.424 457.203 121.055C456.974 120.685 456.859 120.216 456.859 119.648C456.859 118.794 457.198 118.138 457.875 117.68C458.552 117.221 459.583 116.971 460.969 116.93L462.445 116.867V116.344C462.445 115.604 462.286 115.086 461.969 114.789C461.651 114.492 461.203 114.344 460.625 114.344C460.177 114.344 459.75 114.409 459.344 114.539C458.938 114.669 458.552 114.823 458.188 115L457.789 114.016C458.174 113.818 458.617 113.648 459.117 113.508C459.617 113.367 460.143 113.297 460.695 113.297ZM462.43 117.781L461.125 117.836C460.057 117.878 459.305 118.052 458.867 118.359C458.43 118.667 458.211 119.102 458.211 119.664C458.211 120.154 458.359 120.516 458.656 120.75C458.953 120.984 459.346 121.102 459.836 121.102C460.596 121.102 461.219 120.891 461.703 120.469C462.188 120.047 462.43 119.414 462.43 118.57V117.781ZM462.836 109.742V109.898C462.732 110.049 462.589 110.232 462.406 110.445C462.229 110.654 462.031 110.875 461.812 111.109C461.594 111.339 461.372 111.557 461.148 111.766C460.93 111.974 460.727 112.154 460.539 112.305H459.672V112.117C459.839 111.919 460.021 111.682 460.219 111.406C460.417 111.125 460.609 110.839 460.797 110.547C460.984 110.25 461.141 109.982 461.266 109.742H462.836ZM468.773 125.844C467.648 125.844 466.781 125.633 466.172 125.211C465.562 124.794 465.258 124.208 465.258 123.453C465.258 122.917 465.427 122.458 465.766 122.078C466.109 121.698 466.583 121.445 467.188 121.32C466.964 121.216 466.771 121.06 466.609 120.852C466.453 120.643 466.375 120.404 466.375 120.133C466.375 119.82 466.461 119.547 466.633 119.312C466.81 119.073 467.078 118.844 467.438 118.625C466.99 118.443 466.625 118.135 466.344 117.703C466.068 117.266 465.93 116.758 465.93 116.18C465.93 115.565 466.057 115.042 466.312 114.609C466.568 114.172 466.938 113.839 467.422 113.609C467.906 113.38 468.492 113.266 469.18 113.266C469.331 113.266 469.482 113.273 469.633 113.289C469.789 113.299 469.938 113.318 470.078 113.344C470.219 113.365 470.341 113.391 470.445 113.422H473.383V114.258L471.805 114.453C471.961 114.656 472.091 114.901 472.195 115.188C472.299 115.474 472.352 115.792 472.352 116.141C472.352 116.995 472.062 117.674 471.484 118.18C470.906 118.68 470.112 118.93 469.102 118.93C468.862 118.93 468.617 118.909 468.367 118.867C468.112 119.008 467.917 119.164 467.781 119.336C467.651 119.508 467.586 119.706 467.586 119.93C467.586 120.096 467.635 120.229 467.734 120.328C467.839 120.427 467.987 120.5 468.18 120.547C468.372 120.589 468.604 120.609 468.875 120.609H470.383C471.315 120.609 472.029 120.805 472.523 121.195C473.023 121.586 473.273 122.156 473.273 122.906C473.273 123.854 472.888 124.581 472.117 125.086C471.346 125.591 470.232 125.844 468.773 125.844ZM468.812 124.828C469.521 124.828 470.107 124.755 470.57 124.609C471.039 124.469 471.388 124.263 471.617 123.992C471.852 123.727 471.969 123.409 471.969 123.039C471.969 122.695 471.891 122.435 471.734 122.258C471.578 122.086 471.349 121.971 471.047 121.914C470.745 121.852 470.375 121.82 469.938 121.82H468.453C468.068 121.82 467.732 121.88 467.445 122C467.159 122.12 466.938 122.297 466.781 122.531C466.63 122.766 466.555 123.057 466.555 123.406C466.555 123.87 466.75 124.221 467.141 124.461C467.531 124.706 468.089 124.828 468.812 124.828ZM469.148 117.984C469.768 117.984 470.234 117.828 470.547 117.516C470.859 117.203 471.016 116.747 471.016 116.148C471.016 115.508 470.857 115.029 470.539 114.711C470.221 114.388 469.753 114.227 469.133 114.227C468.539 114.227 468.081 114.393 467.758 114.727C467.44 115.055 467.281 115.536 467.281 116.172C467.281 116.755 467.443 117.203 467.766 117.516C468.089 117.828 468.549 117.984 469.148 117.984ZM476.367 113.438V122H475.07V113.438H476.367ZM475.734 110.234C475.948 110.234 476.13 110.305 476.281 110.445C476.438 110.581 476.516 110.794 476.516 111.086C476.516 111.372 476.438 111.586 476.281 111.727C476.13 111.867 475.948 111.938 475.734 111.938C475.51 111.938 475.323 111.867 475.172 111.727C475.026 111.586 474.953 111.372 474.953 111.086C474.953 110.794 475.026 110.581 475.172 110.445C475.323 110.305 475.51 110.234 475.734 110.234ZM483.172 113.281C484.188 113.281 484.956 113.531 485.477 114.031C485.997 114.526 486.258 115.323 486.258 116.422V122H484.977V116.508C484.977 115.794 484.812 115.26 484.484 114.906C484.161 114.552 483.664 114.375 482.992 114.375C482.044 114.375 481.378 114.643 480.992 115.18C480.607 115.716 480.414 116.495 480.414 117.516V122H479.117V113.438H480.164L480.359 114.672H480.43C480.612 114.37 480.844 114.117 481.125 113.914C481.406 113.706 481.721 113.549 482.07 113.445C482.419 113.336 482.786 113.281 483.172 113.281ZM492.133 113.297C493.154 113.297 493.911 113.526 494.406 113.984C494.901 114.443 495.148 115.174 495.148 116.18V122H494.203L493.953 120.734H493.891C493.651 121.047 493.401 121.31 493.141 121.523C492.88 121.732 492.578 121.891 492.234 122C491.896 122.104 491.479 122.156 490.984 122.156C490.464 122.156 490 122.065 489.594 121.883C489.193 121.701 488.875 121.424 488.641 121.055C488.411 120.685 488.297 120.216 488.297 119.648C488.297 118.794 488.635 118.138 489.312 117.68C489.99 117.221 491.021 116.971 492.406 116.93L493.883 116.867V116.344C493.883 115.604 493.724 115.086 493.406 114.789C493.089 114.492 492.641 114.344 492.062 114.344C491.615 114.344 491.188 114.409 490.781 114.539C490.375 114.669 489.99 114.823 489.625 115L489.227 114.016C489.612 113.818 490.055 113.648 490.555 113.508C491.055 113.367 491.581 113.297 492.133 113.297ZM493.867 117.781L492.562 117.836C491.495 117.878 490.742 118.052 490.305 118.359C489.867 118.667 489.648 119.102 489.648 119.664C489.648 120.154 489.797 120.516 490.094 120.75C490.391 120.984 490.784 121.102 491.273 121.102C492.034 121.102 492.656 120.891 493.141 120.469C493.625 120.047 493.867 119.414 493.867 118.57V117.781ZM505.18 113.297C506.201 113.297 506.958 113.526 507.453 113.984C507.948 114.443 508.195 115.174 508.195 116.18V122H507.25L507 120.734H506.938C506.698 121.047 506.448 121.31 506.188 121.523C505.927 121.732 505.625 121.891 505.281 122C504.943 122.104 504.526 122.156 504.031 122.156C503.51 122.156 503.047 122.065 502.641 121.883C502.24 121.701 501.922 121.424 501.688 121.055C501.458 120.685 501.344 120.216 501.344 119.648C501.344 118.794 501.682 118.138 502.359 117.68C503.036 117.221 504.068 116.971 505.453 116.93L506.93 116.867V116.344C506.93 115.604 506.771 115.086 506.453 114.789C506.135 114.492 505.688 114.344 505.109 114.344C504.661 114.344 504.234 114.409 503.828 114.539C503.422 114.669 503.036 114.823 502.672 115L502.273 114.016C502.659 113.818 503.102 113.648 503.602 113.508C504.102 113.367 504.628 113.297 505.18 113.297ZM506.914 117.781L505.609 117.836C504.542 117.878 503.789 118.052 503.352 118.359C502.914 118.667 502.695 119.102 502.695 119.664C502.695 120.154 502.844 120.516 503.141 120.75C503.438 120.984 503.831 121.102 504.32 121.102C505.081 121.102 505.703 120.891 506.188 120.469C506.672 120.047 506.914 119.414 506.914 118.57V117.781ZM514.922 113.281C515.938 113.281 516.706 113.531 517.227 114.031C517.747 114.526 518.008 115.323 518.008 116.422V122H516.727V116.508C516.727 115.794 516.562 115.26 516.234 114.906C515.911 114.552 515.414 114.375 514.742 114.375C513.794 114.375 513.128 114.643 512.742 115.18C512.357 115.716 512.164 116.495 512.164 117.516V122H510.867V113.438H511.914L512.109 114.672H512.18C512.362 114.37 512.594 114.117 512.875 113.914C513.156 113.706 513.471 113.549 513.82 113.445C514.169 113.336 514.536 113.281 514.922 113.281ZM523.445 121.094C523.659 121.094 523.878 121.076 524.102 121.039C524.326 121.003 524.508 120.958 524.648 120.906V121.914C524.497 121.982 524.286 122.039 524.016 122.086C523.75 122.133 523.49 122.156 523.234 122.156C522.781 122.156 522.37 122.078 522 121.922C521.63 121.76 521.333 121.49 521.109 121.109C520.891 120.729 520.781 120.203 520.781 119.531V114.453H519.562V113.82L520.789 113.312L521.305 111.453H522.086V113.438H524.594V114.453H522.086V119.492C522.086 120.029 522.208 120.43 522.453 120.695C522.703 120.961 523.034 121.094 523.445 121.094ZM529.68 113.281C530.409 113.281 531.034 113.443 531.555 113.766C532.076 114.089 532.474 114.542 532.75 115.125C533.026 115.703 533.164 116.38 533.164 117.156V117.961H527.25C527.266 118.966 527.516 119.732 528 120.258C528.484 120.784 529.167 121.047 530.047 121.047C530.589 121.047 531.068 120.997 531.484 120.898C531.901 120.799 532.333 120.654 532.781 120.461V121.602C532.349 121.794 531.919 121.935 531.492 122.023C531.07 122.112 530.57 122.156 529.992 122.156C529.169 122.156 528.451 121.99 527.836 121.656C527.227 121.318 526.753 120.823 526.414 120.172C526.076 119.521 525.906 118.724 525.906 117.781C525.906 116.859 526.06 116.062 526.367 115.391C526.68 114.714 527.117 114.193 527.68 113.828C528.247 113.464 528.914 113.281 529.68 113.281ZM529.664 114.344C528.971 114.344 528.419 114.57 528.008 115.023C527.596 115.477 527.352 116.109 527.273 116.922H531.805C531.799 116.411 531.719 115.964 531.562 115.578C531.411 115.188 531.18 114.885 530.867 114.672C530.555 114.453 530.154 114.344 529.664 114.344ZM539.258 113.281C539.43 113.281 539.609 113.292 539.797 113.312C539.984 113.328 540.151 113.352 540.297 113.383L540.133 114.586C539.992 114.549 539.836 114.521 539.664 114.5C539.492 114.479 539.331 114.469 539.18 114.469C538.836 114.469 538.51 114.539 538.203 114.68C537.901 114.815 537.635 115.013 537.406 115.273C537.177 115.529 536.997 115.839 536.867 116.203C536.737 116.562 536.672 116.964 536.672 117.406V122H535.367V113.438H536.445L536.586 115.016H536.641C536.818 114.698 537.031 114.409 537.281 114.148C537.531 113.883 537.82 113.672 538.148 113.516C538.482 113.359 538.852 113.281 539.258 113.281ZM543.211 113.438V122H541.914V113.438H543.211ZM542.578 110.234C542.792 110.234 542.974 110.305 543.125 110.445C543.281 110.581 543.359 110.794 543.359 111.086C543.359 111.372 543.281 111.586 543.125 111.727C542.974 111.867 542.792 111.938 542.578 111.938C542.354 111.938 542.167 111.867 542.016 111.727C541.87 111.586 541.797 111.372 541.797 111.086C541.797 110.794 541.87 110.581 542.016 110.445C542.167 110.305 542.354 110.234 542.578 110.234ZM553.344 117.703C553.344 118.406 553.253 119.034 553.07 119.586C552.888 120.138 552.625 120.604 552.281 120.984C551.938 121.365 551.521 121.656 551.031 121.859C550.547 122.057 549.997 122.156 549.383 122.156C548.81 122.156 548.284 122.057 547.805 121.859C547.331 121.656 546.919 121.365 546.57 120.984C546.227 120.604 545.958 120.138 545.766 119.586C545.578 119.034 545.484 118.406 545.484 117.703C545.484 116.766 545.643 115.969 545.961 115.312C546.279 114.651 546.732 114.148 547.32 113.805C547.914 113.456 548.62 113.281 549.438 113.281C550.219 113.281 550.901 113.456 551.484 113.805C552.073 114.154 552.529 114.659 552.852 115.32C553.18 115.977 553.344 116.771 553.344 117.703ZM546.828 117.703C546.828 118.391 546.919 118.987 547.102 119.492C547.284 119.997 547.565 120.388 547.945 120.664C548.326 120.94 548.815 121.078 549.414 121.078C550.008 121.078 550.495 120.94 550.875 120.664C551.26 120.388 551.544 119.997 551.727 119.492C551.909 118.987 552 118.391 552 117.703C552 117.021 551.909 116.432 551.727 115.938C551.544 115.438 551.263 115.052 550.883 114.781C550.503 114.51 550.01 114.375 549.406 114.375C548.516 114.375 547.862 114.669 547.445 115.258C547.034 115.846 546.828 116.661 546.828 117.703ZM559.477 113.281C559.648 113.281 559.828 113.292 560.016 113.312C560.203 113.328 560.37 113.352 560.516 113.383L560.352 114.586C560.211 114.549 560.055 114.521 559.883 114.5C559.711 114.479 559.549 114.469 559.398 114.469C559.055 114.469 558.729 114.539 558.422 114.68C558.12 114.815 557.854 115.013 557.625 115.273C557.396 115.529 557.216 115.839 557.086 116.203C556.956 116.562 556.891 116.964 556.891 117.406V122H555.586V113.438H556.664L556.805 115.016H556.859C557.036 114.698 557.25 114.409 557.5 114.148C557.75 113.883 558.039 113.672 558.367 113.516C558.701 113.359 559.07 113.281 559.477 113.281Z" fill="#336ACC"/>
<path d="M446.5 124.52H560.758V126.52H446.5V124.52Z" fill="#336ACC"/>
</g>
<defs>
<clipPath id="clip0_742_9214">
<rect width="40" height="24" fill="white" transform="translate(166.5 104)"/>
</clipPath>
<clipPath id="clip1_742_9214">
<rect width="64" height="24" fill="white" transform="translate(242.5 104)"/>
</clipPath>
<clipPath id="clip2_742_9214">
<rect width="64" height="24" fill="white" transform="translate(342.5 104)"/>
</clipPath>
<clipPath id="clip3_742_9214">
<rect width="115" height="24" fill="white" transform="translate(446.5 104)"/>
</clipPath>
</defs>
</svg>
