<svg width="251" height="168" viewBox="0 0 251 168" fill="none" xmlns="http://www.w3.org/2000/svg">
<rect y="0.199951" width="251" height="167" rx="8" fill="#F3F6F9"/>
<path d="M68.0703 89.7H66.7344V79.45H63.1406V78.2781H71.6484V79.45H68.0703V89.7ZM76.4766 80.9812C77.2057 80.9812 77.8307 81.1427 78.3516 81.4656C78.8724 81.7885 79.2708 82.2416 79.5469 82.825C79.8229 83.4031 79.9609 84.0802 79.9609 84.8562V85.6609H74.0469C74.0625 86.6661 74.3125 87.4317 74.7969 87.9578C75.2812 88.4838 75.9635 88.7468 76.8438 88.7468C77.3854 88.7468 77.8646 88.6973 78.2812 88.5984C78.6979 88.4994 79.1302 88.3536 79.5781 88.1609V89.3015C79.1458 89.4942 78.7161 89.6348 78.2891 89.7234C77.8672 89.8119 77.3672 89.8562 76.7891 89.8562C75.9661 89.8562 75.2474 89.6895 74.6328 89.3562C74.0234 89.0177 73.5495 88.5229 73.2109 87.8718C72.8724 87.2208 72.7031 86.4239 72.7031 85.4812C72.7031 84.5593 72.8568 83.7625 73.1641 83.0906C73.4766 82.4135 73.9141 81.8927 74.4766 81.5281C75.0443 81.1635 75.7109 80.9812 76.4766 80.9812ZM76.4609 82.0437C75.7682 82.0437 75.2161 82.2703 74.8047 82.7234C74.3932 83.1765 74.1484 83.8093 74.0703 84.6218H78.6016C78.5964 84.1114 78.5156 83.6635 78.3594 83.2781C78.2083 82.8875 77.9766 82.5854 77.6641 82.3718C77.3516 82.1531 76.9505 82.0437 76.4609 82.0437ZM84.2031 85.3171L81.2422 81.1375H82.7266L84.9844 84.4343L87.2344 81.1375H88.7031L85.7422 85.3171L88.8672 89.7H87.3828L84.9844 86.2078L82.5703 89.7H81.1016L84.2031 85.3171ZM93.3047 88.7937C93.5182 88.7937 93.737 88.7755 93.9609 88.739C94.1849 88.7026 94.3672 88.6583 94.5078 88.6062V89.614C94.3568 89.6817 94.1458 89.739 93.875 89.7859C93.6094 89.8328 93.349 89.8562 93.0938 89.8562C92.6406 89.8562 92.2292 89.7781 91.8594 89.6218C91.4896 89.4604 91.1927 89.1895 90.9688 88.8093C90.75 88.4291 90.6406 87.9031 90.6406 87.2312V82.1531H89.4219V81.5203L90.6484 81.0125L91.1641 79.1531H91.9453V81.1375H94.4531V82.1531H91.9453V87.1921C91.9453 87.7286 92.0677 88.1296 92.3125 88.3953C92.5625 88.6609 92.8932 88.7937 93.3047 88.7937ZM103.625 85.4031C103.625 86.1062 103.534 86.7338 103.352 87.2859C103.169 87.838 102.906 88.3041 102.562 88.6843C102.219 89.0645 101.802 89.3562 101.312 89.5593C100.828 89.7572 100.279 89.8562 99.6641 89.8562C99.0911 89.8562 98.5651 89.7572 98.0859 89.5593C97.612 89.3562 97.2005 89.0645 96.8516 88.6843C96.5078 88.3041 96.2396 87.838 96.0469 87.2859C95.8594 86.7338 95.7656 86.1062 95.7656 85.4031C95.7656 84.4656 95.9245 83.6687 96.2422 83.0125C96.5599 82.351 97.013 81.8484 97.6016 81.5046C98.1953 81.1557 98.901 80.9812 99.7188 80.9812C100.5 80.9812 101.182 81.1557 101.766 81.5046C102.354 81.8536 102.81 82.3588 103.133 83.0203C103.461 83.6765 103.625 84.4708 103.625 85.4031ZM97.1094 85.4031C97.1094 86.0906 97.2005 86.6869 97.3828 87.1921C97.5651 87.6973 97.8464 88.088 98.2266 88.364C98.6068 88.6401 99.0964 88.7781 99.6953 88.7781C100.289 88.7781 100.776 88.6401 101.156 88.364C101.542 88.088 101.826 87.6973 102.008 87.1921C102.19 86.6869 102.281 86.0906 102.281 85.4031C102.281 84.7208 102.19 84.1322 102.008 83.6375C101.826 83.1375 101.544 82.752 101.164 82.4812C100.784 82.2104 100.292 82.075 99.6875 82.075C98.7969 82.075 98.1432 82.3692 97.7266 82.9578C97.3151 83.5463 97.1094 84.3614 97.1094 85.4031ZM115.562 87.3562C115.562 87.9031 115.424 88.364 115.148 88.739C114.878 89.1088 114.487 89.3875 113.977 89.575C113.471 89.7625 112.867 89.8562 112.164 89.8562C111.565 89.8562 111.047 89.8093 110.609 89.7156C110.172 89.6218 109.789 89.489 109.461 89.3171V88.1218C109.81 88.2937 110.227 88.45 110.711 88.5906C111.195 88.7312 111.69 88.8015 112.195 88.8015C112.935 88.8015 113.471 88.6817 113.805 88.4421C114.138 88.2026 114.305 87.877 114.305 87.4656C114.305 87.2312 114.237 87.0255 114.102 86.8484C113.971 86.6661 113.75 86.4916 113.438 86.325C113.125 86.1531 112.693 85.9656 112.141 85.7625C111.594 85.5541 111.12 85.3484 110.719 85.1453C110.323 84.9369 110.016 84.6843 109.797 84.3875C109.583 84.0906 109.477 83.7052 109.477 83.2312C109.477 82.5072 109.768 81.9526 110.352 81.5671C110.94 81.1765 111.711 80.9812 112.664 80.9812C113.18 80.9812 113.661 81.0333 114.109 81.1375C114.562 81.2364 114.984 81.3718 115.375 81.5437L114.938 82.5828C114.583 82.4317 114.206 82.3041 113.805 82.2C113.404 82.0958 112.995 82.0437 112.578 82.0437C111.979 82.0437 111.518 82.1427 111.195 82.3406C110.878 82.5385 110.719 82.8093 110.719 83.1531C110.719 83.4187 110.792 83.6375 110.938 83.8093C111.089 83.9812 111.328 84.1427 111.656 84.2937C111.984 84.4447 112.417 84.6218 112.953 84.825C113.49 85.0229 113.953 85.2286 114.344 85.4421C114.734 85.6505 115.034 85.9057 115.242 86.2078C115.456 86.5046 115.562 86.8875 115.562 87.3562ZM124.719 81.1375V89.7H123.656L123.469 88.4968H123.398C123.221 88.7937 122.992 89.0437 122.711 89.2468C122.43 89.45 122.112 89.601 121.758 89.7C121.409 89.8041 121.036 89.8562 120.641 89.8562C119.964 89.8562 119.396 89.7468 118.938 89.5281C118.479 89.3093 118.133 88.9708 117.898 88.5125C117.669 88.0541 117.555 87.4656 117.555 86.7468V81.1375H118.867V86.6531C118.867 87.3666 119.029 87.9005 119.352 88.2546C119.674 88.6036 120.167 88.7781 120.828 88.7781C121.464 88.7781 121.969 88.6583 122.344 88.4187C122.724 88.1791 122.997 87.8276 123.164 87.364C123.331 86.8953 123.414 86.3223 123.414 85.6453V81.1375H124.719ZM128.758 77.5437V80.5828C128.758 80.9317 128.747 81.2703 128.727 81.5984C128.711 81.9265 128.698 82.1817 128.688 82.364H128.758C128.992 81.9786 129.331 81.6531 129.773 81.3875C130.216 81.1218 130.781 80.989 131.469 80.989C132.542 80.989 133.396 81.3614 134.031 82.1062C134.672 82.8458 134.992 83.9473 134.992 85.4109C134.992 86.3744 134.846 87.1869 134.555 87.8484C134.263 88.5098 133.852 89.0098 133.32 89.3484C132.789 89.6869 132.161 89.8562 131.438 89.8562C130.76 89.8562 130.203 89.7312 129.766 89.4812C129.333 89.226 129 88.9161 128.766 88.5515H128.664L128.398 89.7H127.461V77.5437H128.758ZM131.258 82.075C130.638 82.075 130.146 82.1973 129.781 82.4421C129.417 82.6817 129.154 83.0463 128.992 83.5359C128.836 84.0203 128.758 84.6348 128.758 85.3796V85.45C128.758 86.5281 128.938 87.3536 129.297 87.9265C129.656 88.4942 130.31 88.7781 131.258 88.7781C132.055 88.7781 132.651 88.4864 133.047 87.9031C133.448 87.3197 133.648 86.4864 133.648 85.4031C133.648 84.2989 133.451 83.4682 133.055 82.9109C132.664 82.3536 132.065 82.075 131.258 82.075ZM141.148 80.9812C141.32 80.9812 141.5 80.9916 141.688 81.0125C141.875 81.0281 142.042 81.0515 142.188 81.0828L142.023 82.2859C141.883 82.2494 141.727 82.2208 141.555 82.2C141.383 82.1791 141.221 82.1687 141.07 82.1687C140.727 82.1687 140.401 82.239 140.094 82.3796C139.792 82.5151 139.526 82.713 139.297 82.9734C139.068 83.2286 138.888 83.5385 138.758 83.9031C138.628 84.2625 138.562 84.6635 138.562 85.1062V89.7H137.258V81.1375H138.336L138.477 82.7156H138.531C138.708 82.3979 138.922 82.1088 139.172 81.8484C139.422 81.5828 139.711 81.3718 140.039 81.2156C140.372 81.0593 140.742 80.9812 141.148 80.9812ZM147.008 80.9968C148.029 80.9968 148.786 81.226 149.281 81.6843C149.776 82.1427 150.023 82.8744 150.023 83.8796V89.7H149.078L148.828 88.4343H148.766C148.526 88.7468 148.276 89.0098 148.016 89.2234C147.755 89.4317 147.453 89.5906 147.109 89.7C146.771 89.8041 146.354 89.8562 145.859 89.8562C145.339 89.8562 144.875 89.7651 144.469 89.5828C144.068 89.4005 143.75 89.1244 143.516 88.7546C143.286 88.3848 143.172 87.9161 143.172 87.3484C143.172 86.4942 143.51 85.838 144.188 85.3796C144.865 84.9213 145.896 84.6713 147.281 84.6296L148.758 84.5671V84.0437C148.758 83.3041 148.599 82.7859 148.281 82.489C147.964 82.1921 147.516 82.0437 146.938 82.0437C146.49 82.0437 146.062 82.1088 145.656 82.239C145.25 82.3692 144.865 82.5229 144.5 82.7L144.102 81.7156C144.487 81.5177 144.93 81.3484 145.43 81.2078C145.93 81.0671 146.456 80.9968 147.008 80.9968ZM148.742 85.4812L147.438 85.5359C146.37 85.5776 145.617 85.752 145.18 86.0593C144.742 86.3666 144.523 86.8015 144.523 87.364C144.523 87.8536 144.672 88.2156 144.969 88.45C145.266 88.6843 145.659 88.8015 146.148 88.8015C146.909 88.8015 147.531 88.5906 148.016 88.1687C148.5 87.7468 148.742 87.114 148.742 86.2703V85.4812ZM151.344 81.1375H152.734L154.625 86.1062C154.734 86.3979 154.836 86.6791 154.93 86.95C155.023 87.2156 155.107 87.4708 155.18 87.7156C155.253 87.9604 155.31 88.1973 155.352 88.4265H155.406C155.479 88.1661 155.583 87.825 155.719 87.4031C155.854 86.976 156 86.5411 156.156 86.0984L157.945 81.1375H159.344L155.617 90.9578C155.419 91.4838 155.188 91.9421 154.922 92.3328C154.661 92.7234 154.344 93.0229 153.969 93.2312C153.594 93.4447 153.141 93.5515 152.609 93.5515C152.365 93.5515 152.148 93.5359 151.961 93.5046C151.773 93.4786 151.612 93.4473 151.477 93.4109V92.3718C151.591 92.3979 151.729 92.4213 151.891 92.4421C152.057 92.463 152.229 92.4734 152.406 92.4734C152.729 92.4734 153.008 92.4109 153.242 92.2859C153.482 92.1661 153.688 91.989 153.859 91.7546C154.031 91.5203 154.18 91.2416 154.305 90.9187L154.773 89.7156L151.344 81.1375ZM163.914 80.9968C164.935 80.9968 165.693 81.226 166.188 81.6843C166.682 82.1427 166.93 82.8744 166.93 83.8796V89.7H165.984L165.734 88.4343H165.672C165.432 88.7468 165.182 89.0098 164.922 89.2234C164.661 89.4317 164.359 89.5906 164.016 89.7C163.677 89.8041 163.26 89.8562 162.766 89.8562C162.245 89.8562 161.781 89.7651 161.375 89.5828C160.974 89.4005 160.656 89.1244 160.422 88.7546C160.193 88.3848 160.078 87.9161 160.078 87.3484C160.078 86.4942 160.417 85.838 161.094 85.3796C161.771 84.9213 162.802 84.6713 164.188 84.6296L165.664 84.5671V84.0437C165.664 83.3041 165.505 82.7859 165.188 82.489C164.87 82.1921 164.422 82.0437 163.844 82.0437C163.396 82.0437 162.969 82.1088 162.562 82.239C162.156 82.3692 161.771 82.5229 161.406 82.7L161.008 81.7156C161.393 81.5177 161.836 81.3484 162.336 81.2078C162.836 81.0671 163.362 80.9968 163.914 80.9968ZM165.648 85.4812L164.344 85.5359C163.276 85.5776 162.523 85.752 162.086 86.0593C161.648 86.3666 161.43 86.8015 161.43 87.364C161.43 87.8536 161.578 88.2156 161.875 88.45C162.172 88.6843 162.565 88.8015 163.055 88.8015C163.815 88.8015 164.438 88.5906 164.922 88.1687C165.406 87.7468 165.648 87.114 165.648 86.2703V85.4812ZM172.648 89.8562C171.565 89.8562 170.706 89.4864 170.07 88.7468C169.44 88.0072 169.125 86.9083 169.125 85.45C169.125 83.976 169.448 82.864 170.094 82.114C170.74 81.3588 171.599 80.9812 172.672 80.9812C173.125 80.9812 173.521 81.0411 173.859 81.1609C174.198 81.2807 174.49 81.4421 174.734 81.6453C174.979 81.8432 175.185 82.0697 175.352 82.325H175.445C175.424 82.1635 175.404 81.9421 175.383 81.6609C175.362 81.3796 175.352 81.1505 175.352 80.9734V77.5437H176.648V89.7H175.602L175.406 88.4812H175.352C175.19 88.7364 174.984 88.9682 174.734 89.1765C174.49 89.3848 174.195 89.5515 173.852 89.6765C173.513 89.7963 173.112 89.8562 172.648 89.8562ZM172.852 88.7781C173.768 88.7781 174.417 88.5177 174.797 87.9968C175.177 87.476 175.367 86.7026 175.367 85.6765V85.4421C175.367 84.3536 175.185 83.5177 174.82 82.9343C174.461 82.351 173.805 82.0593 172.852 82.0593C172.055 82.0593 171.458 82.3666 171.062 82.9812C170.667 83.5906 170.469 84.4239 170.469 85.4812C170.469 86.5333 170.664 87.3458 171.055 87.9187C171.451 88.4916 172.049 88.7781 172.852 88.7781ZM186.781 85.4031C186.781 86.1062 186.69 86.7338 186.508 87.2859C186.326 87.838 186.062 88.3041 185.719 88.6843C185.375 89.0645 184.958 89.3562 184.469 89.5593C183.984 89.7572 183.435 89.8562 182.82 89.8562C182.247 89.8562 181.721 89.7572 181.242 89.5593C180.768 89.3562 180.357 89.0645 180.008 88.6843C179.664 88.3041 179.396 87.838 179.203 87.2859C179.016 86.7338 178.922 86.1062 178.922 85.4031C178.922 84.4656 179.081 83.6687 179.398 83.0125C179.716 82.351 180.169 81.8484 180.758 81.5046C181.352 81.1557 182.057 80.9812 182.875 80.9812C183.656 80.9812 184.339 81.1557 184.922 81.5046C185.51 81.8536 185.966 82.3588 186.289 83.0203C186.617 83.6765 186.781 84.4708 186.781 85.4031ZM180.266 85.4031C180.266 86.0906 180.357 86.6869 180.539 87.1921C180.721 87.6973 181.003 88.088 181.383 88.364C181.763 88.6401 182.253 88.7781 182.852 88.7781C183.445 88.7781 183.932 88.6401 184.312 88.364C184.698 88.088 184.982 87.6973 185.164 87.1921C185.346 86.6869 185.438 86.0906 185.438 85.4031C185.438 84.7208 185.346 84.1322 185.164 83.6375C184.982 83.1375 184.701 82.752 184.32 82.4812C183.94 82.2104 183.448 82.075 182.844 82.075C181.953 82.075 181.299 82.3692 180.883 82.9578C180.471 83.5463 180.266 84.3614 180.266 85.4031Z" fill="#101E37"/>
<path d="M63 90.6765H187.656V91.0671H63V90.6765Z" fill="#101E37"/>
</svg>
