<svg width="728" height="222" viewBox="0 0 728 222" fill="none" xmlns="http://www.w3.org/2000/svg">
<g clip-path="url(#clip0_3778_2879)">
<rect width="728" height="222" rx="8" fill="#F3F6F9"/>
<mask id="path-3-inside-1_3778_2879" fill="white">
<path d="M68 0H660V222H68V0Z"/>
</mask>
<path d="M68 0H660V222H68V0Z" fill="white"/>
<path d="M68 0V-2H66V0H68ZM660 0H662V-2H660V0ZM660 222V224H662V222H660ZM68 222H66V224H68V222ZM68 0V2H660V0V-2H68V0ZM660 0H658V222H660H662V0H660ZM660 222V220H68V222V224H660V222ZM68 222H70V0H68H66V222H68Z" fill="#E6EBF0" mask="url(#path-3-inside-1_3778_2879)"/>
<rect x="127" y="88" width="50" height="46" rx="9" fill="#274986"/>
<rect x="127" y="88" width="50" height="46" rx="9" stroke="#E6EBF0" stroke-width="2"/>
<path d="M149.29 117C149.074 117 148.906 116.946 148.786 116.838C148.666 116.718 148.606 116.556 148.606 116.352C148.606 116.148 148.666 115.998 148.786 115.902C148.906 115.794 149.074 115.74 149.29 115.74H151.63V105.534H152.404L149.794 107.262C149.638 107.346 149.488 107.382 149.344 107.37C149.212 107.358 149.098 107.31 149.002 107.226C148.918 107.13 148.858 107.022 148.822 106.902C148.786 106.77 148.792 106.638 148.84 106.506C148.888 106.362 148.99 106.242 149.146 106.146L151.63 104.508C151.786 104.412 151.936 104.334 152.08 104.274C152.224 104.214 152.368 104.184 152.512 104.184C152.68 104.184 152.818 104.238 152.926 104.346C153.046 104.442 153.106 104.598 153.106 104.814V115.74H155.266C155.482 115.74 155.65 115.794 155.77 115.902C155.89 115.998 155.95 116.148 155.95 116.352C155.95 116.568 155.89 116.73 155.77 116.838C155.65 116.946 155.482 117 155.266 117H149.29Z" fill="white"/>
<rect x="183" y="88" width="50" height="46" rx="9" fill="white"/>
<rect x="183" y="88" width="50" height="46" rx="9" stroke="#E6EBF0" stroke-width="2"/>
<path d="M204.822 117C204.558 117 204.36 116.94 204.228 116.82C204.108 116.688 204.048 116.514 204.048 116.298C204.048 116.166 204.078 116.04 204.138 115.92C204.21 115.788 204.306 115.656 204.426 115.524L208.458 111.204C209.07 110.544 209.508 109.938 209.772 109.386C210.048 108.822 210.186 108.252 210.186 107.676C210.186 106.956 209.964 106.41 209.52 106.038C209.088 105.654 208.452 105.462 207.612 105.462C207.072 105.462 206.562 105.546 206.082 105.714C205.602 105.882 205.14 106.14 204.696 106.488C204.54 106.608 204.396 106.662 204.264 106.65C204.144 106.638 204.036 106.59 203.94 106.506C203.844 106.422 203.778 106.314 203.742 106.182C203.706 106.05 203.706 105.918 203.742 105.786C203.79 105.654 203.886 105.534 204.03 105.426C204.498 105.042 205.062 104.736 205.722 104.508C206.382 104.268 207.054 104.148 207.738 104.148C208.59 104.148 209.31 104.28 209.898 104.544C210.486 104.808 210.93 105.198 211.23 105.714C211.53 106.218 211.68 106.836 211.68 107.568C211.68 108.072 211.596 108.57 211.428 109.062C211.272 109.542 211.026 110.034 210.69 110.538C210.366 111.042 209.94 111.564 209.412 112.104L205.578 116.154V115.74H211.644C211.872 115.74 212.04 115.794 212.148 115.902C212.268 115.998 212.328 116.148 212.328 116.352C212.328 116.568 212.268 116.73 212.148 116.838C212.04 116.946 211.872 117 211.644 117H204.822Z" fill="#101E37"/>
<rect x="239" y="88" width="50" height="46" rx="9" fill="white"/>
<rect x="239" y="88" width="50" height="46" rx="9" stroke="#E6EBF0" stroke-width="2"/>
<path d="M263.756 117.162C263.06 117.162 262.358 117.06 261.65 116.856C260.954 116.652 260.348 116.352 259.832 115.956C259.676 115.848 259.574 115.728 259.526 115.596C259.478 115.452 259.466 115.32 259.49 115.2C259.526 115.068 259.592 114.96 259.688 114.876C259.784 114.78 259.898 114.726 260.03 114.714C260.174 114.702 260.33 114.75 260.498 114.858C261.026 115.206 261.554 115.458 262.082 115.614C262.61 115.77 263.156 115.848 263.72 115.848C264.332 115.848 264.848 115.758 265.268 115.578C265.688 115.398 266.006 115.134 266.222 114.786C266.438 114.426 266.546 113.988 266.546 113.472C266.546 112.728 266.3 112.164 265.808 111.78C265.316 111.396 264.602 111.204 263.666 111.204H262.388C262.16 111.204 261.986 111.15 261.866 111.042C261.746 110.922 261.686 110.76 261.686 110.556C261.686 110.364 261.746 110.214 261.866 110.106C261.986 109.986 262.16 109.926 262.388 109.926H263.54C264.092 109.926 264.56 109.83 264.944 109.638C265.34 109.446 265.646 109.176 265.862 108.828C266.078 108.468 266.186 108.036 266.186 107.532C266.186 106.86 265.97 106.35 265.538 106.002C265.106 105.642 264.482 105.462 263.666 105.462C263.126 105.462 262.616 105.54 262.136 105.696C261.656 105.852 261.182 106.116 260.714 106.488C260.57 106.596 260.426 106.65 260.282 106.65C260.15 106.638 260.036 106.596 259.94 106.524C259.856 106.44 259.79 106.332 259.742 106.2C259.706 106.068 259.712 105.936 259.76 105.804C259.808 105.66 259.91 105.528 260.066 105.408C260.546 105 261.11 104.688 261.758 104.472C262.406 104.256 263.072 104.148 263.756 104.148C264.572 104.148 265.268 104.28 265.844 104.544C266.432 104.796 266.882 105.168 267.194 105.66C267.506 106.14 267.662 106.722 267.662 107.406C267.662 107.922 267.56 108.396 267.356 108.828C267.164 109.248 266.888 109.608 266.528 109.908C266.18 110.208 265.754 110.424 265.25 110.556V110.358C266.126 110.502 266.804 110.862 267.284 111.438C267.776 112.002 268.022 112.716 268.022 113.58C268.022 114.312 267.848 114.948 267.5 115.488C267.164 116.016 266.678 116.43 266.042 116.73C265.406 117.018 264.644 117.162 263.756 117.162Z" fill="#101E37"/>
<rect x="295" y="88" width="50" height="46" rx="9" fill="white"/>
<rect x="295" y="88" width="50" height="46" rx="9" stroke="#E6EBF0" stroke-width="2"/>
<path d="M322.024 117.126C321.796 117.126 321.616 117.06 321.484 116.928C321.352 116.796 321.286 116.61 321.286 116.37V114.282H316.12C315.88 114.282 315.688 114.228 315.544 114.12C315.412 114 315.346 113.832 315.346 113.616C315.346 113.484 315.376 113.352 315.436 113.22C315.496 113.076 315.604 112.896 315.76 112.68L321.25 104.688C321.358 104.52 321.478 104.394 321.61 104.31C321.742 104.226 321.898 104.184 322.078 104.184C322.27 104.184 322.432 104.244 322.564 104.364C322.708 104.484 322.78 104.676 322.78 104.94V113.022H324.094C324.322 113.022 324.496 113.076 324.616 113.184C324.736 113.292 324.796 113.448 324.796 113.652C324.796 113.856 324.736 114.012 324.616 114.12C324.496 114.228 324.322 114.282 324.094 114.282H322.78V116.37C322.78 116.61 322.714 116.796 322.582 116.928C322.45 117.06 322.264 117.126 322.024 117.126ZM321.286 113.022V106.038H321.718L316.678 113.418V113.022H321.286Z" fill="#101E37"/>
<rect x="351" y="88" width="50" height="46" rx="9" fill="white"/>
<rect x="351" y="88" width="50" height="46" rx="9" stroke="#E6EBF0" stroke-width="2"/>
<path d="M376.17 117.162C375.486 117.162 374.802 117.06 374.118 116.856C373.446 116.652 372.834 116.334 372.282 115.902C372.138 115.806 372.042 115.692 371.994 115.56C371.946 115.428 371.94 115.296 371.976 115.164C372.012 115.032 372.078 114.924 372.174 114.84C372.27 114.744 372.384 114.69 372.516 114.678C372.66 114.666 372.81 114.714 372.966 114.822C373.458 115.17 373.968 115.428 374.496 115.596C375.024 115.764 375.576 115.848 376.152 115.848C376.74 115.848 377.244 115.74 377.664 115.524C378.096 115.296 378.42 114.984 378.636 114.588C378.864 114.18 378.978 113.706 378.978 113.166C378.978 112.338 378.738 111.66 378.258 111.132C377.778 110.604 377.118 110.34 376.278 110.34C375.762 110.34 375.288 110.436 374.856 110.628C374.424 110.82 374.028 111.126 373.668 111.546C373.584 111.642 373.482 111.726 373.362 111.798C373.254 111.858 373.128 111.888 372.984 111.888C372.78 111.888 372.618 111.834 372.498 111.726C372.39 111.606 372.336 111.45 372.336 111.258V104.994C372.336 104.766 372.396 104.598 372.516 104.49C372.636 104.37 372.804 104.31 373.02 104.31H379.14C379.368 104.31 379.536 104.364 379.644 104.472C379.764 104.58 379.824 104.736 379.824 104.94C379.824 105.144 379.764 105.3 379.644 105.408C379.536 105.516 379.368 105.57 379.14 105.57H373.794V110.628H373.398C373.71 110.124 374.142 109.74 374.694 109.476C375.246 109.2 375.864 109.062 376.548 109.062C377.352 109.062 378.042 109.23 378.618 109.566C379.206 109.902 379.656 110.376 379.968 110.988C380.292 111.588 380.454 112.29 380.454 113.094C380.454 113.886 380.28 114.588 379.932 115.2C379.584 115.812 379.092 116.292 378.456 116.64C377.82 116.988 377.058 117.162 376.17 117.162Z" fill="#101E37"/>
<rect x="408" y="89" width="48" height="44" rx="8" fill="white"/>
<path d="M427.57 117.072C427.27 117.072 427.03 116.982 426.85 116.802C426.67 116.61 426.58 116.37 426.58 116.082C426.58 115.794 426.67 115.56 426.85 115.38C427.03 115.188 427.27 115.092 427.57 115.092C427.87 115.092 428.104 115.188 428.272 115.38C428.452 115.56 428.542 115.794 428.542 116.082C428.542 116.37 428.452 116.61 428.272 116.802C428.104 116.982 427.87 117.072 427.57 117.072ZM431.666 117.072C431.366 117.072 431.126 116.982 430.946 116.802C430.766 116.61 430.676 116.37 430.676 116.082C430.676 115.794 430.766 115.56 430.946 115.38C431.126 115.188 431.366 115.092 431.666 115.092C431.966 115.092 432.2 115.188 432.368 115.38C432.548 115.56 432.638 115.794 432.638 116.082C432.638 116.37 432.548 116.61 432.368 116.802C432.2 116.982 431.966 117.072 431.666 117.072ZM435.761 117.072C435.461 117.072 435.221 116.982 435.041 116.802C434.861 116.61 434.771 116.37 434.771 116.082C434.771 115.794 434.861 115.56 435.041 115.38C435.221 115.188 435.461 115.092 435.761 115.092C436.061 115.092 436.295 115.188 436.463 115.38C436.643 115.56 436.733 115.794 436.733 116.082C436.733 116.37 436.643 116.61 436.463 116.802C436.295 116.982 436.061 117.072 435.761 117.072Z" fill="#101E37"/>
<rect x="463" y="88" width="50" height="46" rx="9" fill="white"/>
<rect x="463" y="88" width="50" height="46" rx="9" stroke="#E6EBF0" stroke-width="2"/>
<path d="M479.79 117C479.574 117 479.406 116.946 479.286 116.838C479.166 116.718 479.106 116.556 479.106 116.352C479.106 116.148 479.166 115.998 479.286 115.902C479.406 115.794 479.574 115.74 479.79 115.74H482.13V105.534H482.904L480.294 107.262C480.138 107.346 479.988 107.382 479.844 107.37C479.712 107.358 479.598 107.31 479.502 107.226C479.418 107.13 479.358 107.022 479.322 106.902C479.286 106.77 479.292 106.638 479.34 106.506C479.388 106.362 479.49 106.242 479.646 106.146L482.13 104.508C482.286 104.412 482.436 104.334 482.58 104.274C482.724 104.214 482.868 104.184 483.012 104.184C483.18 104.184 483.318 104.238 483.426 104.346C483.546 104.442 483.606 104.598 483.606 104.814V115.74H485.766C485.982 115.74 486.15 115.794 486.27 115.902C486.39 115.998 486.45 116.148 486.45 116.352C486.45 116.568 486.39 116.73 486.27 116.838C486.15 116.946 485.982 117 485.766 117H479.79ZM493.193 117.162C491.741 117.162 490.637 116.604 489.881 115.488C489.125 114.372 488.747 112.758 488.747 110.646C488.747 109.23 488.915 108.042 489.251 107.082C489.587 106.11 490.085 105.378 490.745 104.886C491.417 104.394 492.233 104.148 493.193 104.148C494.657 104.148 495.761 104.7 496.505 105.804C497.261 106.896 497.639 108.504 497.639 110.628C497.639 112.044 497.471 113.238 497.135 114.21C496.799 115.182 496.301 115.92 495.641 116.424C494.981 116.916 494.165 117.162 493.193 117.162ZM493.193 115.884C494.201 115.884 494.945 115.458 495.425 114.606C495.917 113.742 496.163 112.416 496.163 110.628C496.163 108.828 495.917 107.514 495.425 106.686C494.945 105.846 494.201 105.426 493.193 105.426C492.197 105.426 491.453 105.846 490.961 106.686C490.469 107.526 490.223 108.84 490.223 110.628C490.223 112.416 490.469 113.742 490.961 114.606C491.453 115.458 492.197 115.884 493.193 115.884Z" fill="#101E37"/>
<rect x="519" y="88" width="122" height="46" rx="9" fill="white"/>
<rect x="519" y="88" width="122" height="46" rx="9" stroke="#E6EBF0" stroke-width="2"/>
<path d="M537.67 117.162C537.106 117.162 536.554 117.114 536.014 117.018C535.474 116.922 534.97 116.784 534.502 116.604C534.046 116.424 533.632 116.196 533.26 115.92C533.116 115.812 533.014 115.692 532.954 115.56C532.906 115.416 532.894 115.278 532.918 115.146C532.954 115.002 533.014 114.882 533.098 114.786C533.194 114.69 533.308 114.636 533.44 114.624C533.572 114.612 533.716 114.654 533.872 114.75C534.412 115.134 534.988 115.416 535.6 115.596C536.212 115.764 536.902 115.848 537.67 115.848C538.75 115.848 539.548 115.65 540.064 115.254C540.592 114.846 540.856 114.312 540.856 113.652C540.856 113.112 540.664 112.692 540.28 112.392C539.908 112.08 539.278 111.834 538.39 111.654L536.518 111.276C535.39 111.036 534.544 110.646 533.98 110.106C533.428 109.554 533.152 108.822 533.152 107.91C533.152 107.346 533.266 106.836 533.494 106.38C533.722 105.912 534.04 105.516 534.448 105.192C534.856 104.856 535.342 104.598 535.906 104.418C536.47 104.238 537.094 104.148 537.778 104.148C538.534 104.148 539.236 104.256 539.884 104.472C540.544 104.676 541.138 104.988 541.666 105.408C541.798 105.516 541.888 105.642 541.936 105.786C541.984 105.918 541.99 106.05 541.954 106.182C541.918 106.302 541.852 106.404 541.756 106.488C541.672 106.572 541.558 106.62 541.414 106.632C541.282 106.644 541.132 106.596 540.964 106.488C540.484 106.128 539.986 105.87 539.47 105.714C538.954 105.546 538.384 105.462 537.76 105.462C537.124 105.462 536.572 105.558 536.104 105.75C535.648 105.942 535.288 106.224 535.024 106.596C534.772 106.956 534.646 107.376 534.646 107.856C534.646 108.432 534.82 108.888 535.168 109.224C535.528 109.56 536.11 109.806 536.914 109.962L538.786 110.358C539.998 110.61 540.892 110.994 541.468 111.51C542.056 112.014 542.35 112.704 542.35 113.58C542.35 114.108 542.242 114.594 542.026 115.038C541.81 115.482 541.498 115.866 541.09 116.19C540.682 116.502 540.19 116.742 539.614 116.91C539.038 117.078 538.39 117.162 537.67 117.162ZM545.162 117.09C544.922 117.09 544.742 117.024 544.622 116.892C544.502 116.748 544.442 116.55 544.442 116.298V108.936C544.442 108.684 544.502 108.492 544.622 108.36C544.742 108.228 544.922 108.162 545.162 108.162C545.39 108.162 545.57 108.228 545.702 108.36C545.834 108.492 545.9 108.684 545.9 108.936V116.298C545.9 116.55 545.834 116.748 545.702 116.892C545.582 117.024 545.402 117.09 545.162 117.09ZM545.162 106.146C544.862 106.146 544.628 106.068 544.46 105.912C544.292 105.744 544.208 105.522 544.208 105.246C544.208 104.958 544.292 104.742 544.46 104.598C544.628 104.442 544.862 104.364 545.162 104.364C545.474 104.364 545.708 104.442 545.864 104.598C546.032 104.742 546.116 104.958 546.116 105.246C546.116 105.522 546.032 105.744 545.864 105.912C545.708 106.068 545.474 106.146 545.162 106.146ZM552.496 120.402C551.86 120.402 551.236 120.324 550.624 120.168C550.024 120.024 549.478 119.79 548.986 119.466C548.842 119.382 548.746 119.28 548.698 119.16C548.662 119.04 548.656 118.92 548.68 118.8C548.704 118.692 548.758 118.59 548.842 118.494C548.926 118.41 549.022 118.356 549.13 118.332C549.25 118.308 549.37 118.326 549.49 118.386C550.018 118.71 550.522 118.932 551.002 119.052C551.482 119.172 551.956 119.232 552.424 119.232C553.276 119.232 553.918 119.004 554.35 118.548C554.794 118.092 555.016 117.432 555.016 116.568V114.534H555.196C555.016 115.23 554.632 115.782 554.044 116.19C553.468 116.598 552.79 116.802 552.01 116.802C551.206 116.802 550.51 116.622 549.922 116.262C549.334 115.89 548.878 115.374 548.554 114.714C548.242 114.054 548.086 113.292 548.086 112.428C548.086 111.78 548.176 111.192 548.356 110.664C548.536 110.124 548.794 109.668 549.13 109.296C549.478 108.912 549.892 108.618 550.372 108.414C550.864 108.198 551.41 108.09 552.01 108.09C552.802 108.09 553.486 108.294 554.062 108.702C554.638 109.098 555.01 109.638 555.178 110.322L554.998 110.538V108.864C554.998 108.624 555.058 108.444 555.178 108.324C555.31 108.192 555.49 108.126 555.718 108.126C555.958 108.126 556.138 108.192 556.258 108.324C556.378 108.444 556.438 108.624 556.438 108.864V116.37C556.438 117.702 556.102 118.704 555.43 119.376C554.77 120.06 553.792 120.402 552.496 120.402ZM552.28 115.614C552.844 115.614 553.33 115.488 553.738 115.236C554.146 114.972 554.458 114.6 554.674 114.12C554.902 113.64 555.016 113.076 555.016 112.428C555.016 111.456 554.77 110.688 554.278 110.124C553.786 109.548 553.12 109.26 552.28 109.26C551.728 109.26 551.248 109.392 550.84 109.656C550.432 109.908 550.114 110.274 549.886 110.754C549.67 111.222 549.562 111.78 549.562 112.428C549.562 113.4 549.808 114.174 550.3 114.75C550.792 115.326 551.452 115.614 552.28 115.614ZM562.269 117.162C561.561 117.162 560.973 117.036 560.505 116.784C560.049 116.52 559.701 116.13 559.461 115.614C559.233 115.098 559.119 114.456 559.119 113.688V108.864C559.119 108.612 559.179 108.426 559.299 108.306C559.431 108.186 559.611 108.126 559.839 108.126C560.079 108.126 560.259 108.186 560.379 108.306C560.511 108.426 560.577 108.612 560.577 108.864V113.67C560.577 114.438 560.733 115.014 561.045 115.398C561.369 115.77 561.873 115.956 562.557 115.956C563.301 115.956 563.907 115.704 564.375 115.2C564.843 114.696 565.077 114.036 565.077 113.22V108.864C565.077 108.612 565.137 108.426 565.257 108.306C565.389 108.186 565.575 108.126 565.815 108.126C566.043 108.126 566.217 108.186 566.337 108.306C566.469 108.426 566.535 108.612 566.535 108.864V116.37C566.535 116.874 566.301 117.126 565.833 117.126C565.605 117.126 565.425 117.06 565.293 116.928C565.173 116.796 565.113 116.61 565.113 116.37V114.732L565.347 114.984C565.107 115.692 564.711 116.232 564.159 116.604C563.619 116.976 562.989 117.162 562.269 117.162ZM569.983 117.09C569.743 117.09 569.563 117.024 569.443 116.892C569.323 116.748 569.263 116.55 569.263 116.298V108.936C569.263 108.684 569.323 108.492 569.443 108.36C569.563 108.228 569.743 108.162 569.983 108.162C570.211 108.162 570.391 108.228 570.523 108.36C570.655 108.492 570.721 108.684 570.721 108.936V116.298C570.721 116.55 570.655 116.748 570.523 116.892C570.403 117.024 570.223 117.09 569.983 117.09ZM569.983 106.146C569.683 106.146 569.449 106.068 569.281 105.912C569.113 105.744 569.029 105.522 569.029 105.246C569.029 104.958 569.113 104.742 569.281 104.598C569.449 104.442 569.683 104.364 569.983 104.364C570.295 104.364 570.529 104.442 570.685 104.598C570.853 104.742 570.937 104.958 570.937 105.246C570.937 105.522 570.853 105.744 570.685 105.912C570.529 106.068 570.295 106.146 569.983 106.146ZM577.388 117.162C576.464 117.162 575.666 116.982 574.994 116.622C574.334 116.25 573.818 115.728 573.446 115.056C573.086 114.384 572.906 113.58 572.906 112.644C572.906 111.732 573.086 110.94 573.446 110.268C573.806 109.584 574.298 109.05 574.922 108.666C575.558 108.282 576.29 108.09 577.118 108.09C577.706 108.09 578.234 108.192 578.702 108.396C579.17 108.588 579.566 108.87 579.89 109.242C580.226 109.614 580.478 110.064 580.646 110.592C580.826 111.12 580.916 111.714 580.916 112.374C580.916 112.566 580.862 112.71 580.754 112.806C580.646 112.89 580.49 112.932 580.286 112.932H574.022V111.978H579.944L579.656 112.212C579.656 111.564 579.56 111.018 579.368 110.574C579.176 110.118 578.894 109.77 578.522 109.53C578.162 109.29 577.706 109.17 577.154 109.17C576.542 109.17 576.02 109.314 575.588 109.602C575.168 109.878 574.85 110.268 574.634 110.772C574.418 111.264 574.31 111.84 574.31 112.5V112.608C574.31 113.712 574.574 114.552 575.102 115.128C575.642 115.704 576.404 115.992 577.388 115.992C577.796 115.992 578.198 115.938 578.594 115.83C579.002 115.722 579.398 115.542 579.782 115.29C579.95 115.182 580.1 115.134 580.232 115.146C580.376 115.146 580.49 115.188 580.574 115.272C580.658 115.344 580.712 115.44 580.736 115.56C580.772 115.668 580.76 115.788 580.7 115.92C580.652 116.052 580.55 116.166 580.394 116.262C579.998 116.55 579.53 116.772 578.99 116.928C578.45 117.084 577.916 117.162 577.388 117.162ZM583.746 117.126C583.506 117.126 583.326 117.06 583.206 116.928C583.086 116.796 583.026 116.61 583.026 116.37V108.864C583.026 108.624 583.086 108.444 583.206 108.324C583.326 108.192 583.5 108.126 583.728 108.126C583.956 108.126 584.13 108.192 584.25 108.324C584.382 108.444 584.448 108.624 584.448 108.864V110.412L584.25 110.196C584.502 109.5 584.91 108.978 585.474 108.63C586.05 108.27 586.71 108.09 587.454 108.09C588.15 108.09 588.726 108.216 589.182 108.468C589.65 108.72 589.998 109.104 590.226 109.62C590.454 110.124 590.568 110.766 590.568 111.546V116.37C590.568 116.61 590.502 116.796 590.37 116.928C590.25 117.06 590.076 117.126 589.848 117.126C589.608 117.126 589.422 117.06 589.29 116.928C589.17 116.796 589.11 116.61 589.11 116.37V111.636C589.11 110.82 588.948 110.226 588.624 109.854C588.312 109.47 587.808 109.278 587.112 109.278C586.308 109.278 585.666 109.53 585.186 110.034C584.718 110.526 584.484 111.186 584.484 112.014V116.37C584.484 116.874 584.238 117.126 583.746 117.126ZM596.767 117.162C596.083 117.162 595.507 117.042 595.039 116.802C594.583 116.55 594.241 116.19 594.013 115.722C593.785 115.242 593.671 114.66 593.671 113.976V109.386H592.465C592.261 109.386 592.105 109.338 591.997 109.242C591.889 109.134 591.835 108.99 591.835 108.81C591.835 108.63 591.889 108.492 591.997 108.396C592.105 108.3 592.261 108.252 592.465 108.252H593.671V106.182C593.671 105.942 593.737 105.762 593.869 105.642C594.001 105.51 594.181 105.444 594.409 105.444C594.637 105.444 594.811 105.51 594.931 105.642C595.063 105.762 595.129 105.942 595.129 106.182V108.252H597.397C597.601 108.252 597.757 108.3 597.865 108.396C597.973 108.492 598.027 108.63 598.027 108.81C598.027 108.99 597.973 109.134 597.865 109.242C597.757 109.338 597.601 109.386 597.397 109.386H595.129V113.832C595.129 114.516 595.273 115.038 595.561 115.398C595.849 115.746 596.317 115.92 596.965 115.92C597.193 115.92 597.385 115.896 597.541 115.848C597.709 115.8 597.847 115.776 597.955 115.776C598.063 115.764 598.153 115.8 598.225 115.884C598.297 115.968 598.333 116.112 598.333 116.316C598.333 116.46 598.303 116.592 598.243 116.712C598.195 116.832 598.105 116.916 597.973 116.964C597.829 117.012 597.637 117.054 597.397 117.09C597.169 117.138 596.959 117.162 596.767 117.162ZM603.404 117.162C602.48 117.162 601.682 116.982 601.01 116.622C600.35 116.25 599.834 115.728 599.462 115.056C599.102 114.384 598.922 113.58 598.922 112.644C598.922 111.732 599.102 110.94 599.462 110.268C599.822 109.584 600.314 109.05 600.938 108.666C601.574 108.282 602.306 108.09 603.134 108.09C603.722 108.09 604.25 108.192 604.718 108.396C605.186 108.588 605.582 108.87 605.906 109.242C606.242 109.614 606.494 110.064 606.662 110.592C606.842 111.12 606.932 111.714 606.932 112.374C606.932 112.566 606.878 112.71 606.77 112.806C606.662 112.89 606.506 112.932 606.302 112.932H600.038V111.978H605.96L605.672 112.212C605.672 111.564 605.576 111.018 605.384 110.574C605.192 110.118 604.91 109.77 604.538 109.53C604.178 109.29 603.722 109.17 603.17 109.17C602.558 109.17 602.036 109.314 601.604 109.602C601.184 109.878 600.866 110.268 600.65 110.772C600.434 111.264 600.326 111.84 600.326 112.5V112.608C600.326 113.712 600.59 114.552 601.118 115.128C601.658 115.704 602.42 115.992 603.404 115.992C603.812 115.992 604.214 115.938 604.61 115.83C605.018 115.722 605.414 115.542 605.798 115.29C605.966 115.182 606.116 115.134 606.248 115.146C606.392 115.146 606.506 115.188 606.59 115.272C606.674 115.344 606.728 115.44 606.752 115.56C606.788 115.668 606.776 115.788 606.716 115.92C606.668 116.052 606.566 116.166 606.41 116.262C606.014 116.55 605.546 116.772 605.006 116.928C604.466 117.084 603.932 117.162 603.404 117.162Z" fill="#101E37"/>
<path d="M621 105.711C620.61 106.101 620.61 106.731 621 107.121L624.88 111.001L621 114.881C620.61 115.271 620.61 115.901 621 116.291C621.39 116.681 622.02 116.681 622.41 116.291L627 111.701C627.39 111.311 627.39 110.681 627 110.291L622.41 105.701C622.03 105.321 621.39 105.321 621 105.711Z" fill="#101E37"/>
<rect x="76" y="45" width="54" height="27" rx="8" fill="#005E7A"/>
<path d="M86.583 61.9336C86.7165 61.9336 86.8532 61.9222 86.9932 61.8994C87.1331 61.8766 87.2471 61.849 87.335 61.8164V62.4463C87.2406 62.4886 87.1087 62.5244 86.9395 62.5537C86.7734 62.583 86.6107 62.5977 86.4512 62.5977C86.168 62.5977 85.9108 62.5488 85.6797 62.4512C85.4486 62.3503 85.263 62.181 85.123 61.9434C84.9863 61.7057 84.918 61.377 84.918 60.957V57.7832H84.1562V57.3877L84.9229 57.0703L85.2451 55.9082H85.7334V57.1484H87.3008V57.7832H85.7334V60.9326C85.7334 61.2679 85.8099 61.5186 85.9629 61.6846C86.1191 61.8506 86.3258 61.9336 86.583 61.9336ZM90.4209 57.0605C91.0589 57.0605 91.5326 57.2038 91.8418 57.4902C92.151 57.7767 92.3057 58.234 92.3057 58.8623V62.5H91.7148L91.5586 61.709H91.5195C91.3698 61.9043 91.2135 62.0687 91.0508 62.2021C90.888 62.3324 90.6992 62.4316 90.4844 62.5C90.2728 62.5651 90.0124 62.5977 89.7031 62.5977C89.3776 62.5977 89.0879 62.5407 88.834 62.4268C88.5833 62.3128 88.3848 62.1403 88.2383 61.9092C88.0951 61.6781 88.0234 61.3851 88.0234 61.0303C88.0234 60.4964 88.235 60.0863 88.6582 59.7998C89.0814 59.5133 89.7259 59.3571 90.5918 59.3311L91.5146 59.292V58.9648C91.5146 58.5026 91.4154 58.1787 91.2168 57.9932C91.0182 57.8076 90.7383 57.7148 90.377 57.7148C90.097 57.7148 89.8301 57.7555 89.5762 57.8369C89.3223 57.9183 89.0814 58.0143 88.8535 58.125L88.6045 57.5098C88.8454 57.3861 89.1221 57.2803 89.4346 57.1924C89.7471 57.1045 90.0758 57.0605 90.4209 57.0605ZM91.5049 59.8633L90.6895 59.8975C90.0221 59.9235 89.5518 60.0326 89.2783 60.2246C89.0049 60.4167 88.8682 60.6885 88.8682 61.04C88.8682 61.346 88.9609 61.5723 89.1465 61.7188C89.332 61.8652 89.5778 61.9385 89.8838 61.9385C90.359 61.9385 90.748 61.8066 91.0508 61.543C91.3535 61.2793 91.5049 60.8838 91.5049 60.3564V59.8633ZM94.7861 54.9023V56.8018C94.7861 57.0199 94.7796 57.2314 94.7666 57.4365C94.7568 57.6416 94.7487 57.8011 94.7422 57.915H94.7861C94.9326 57.6742 95.1442 57.4707 95.4209 57.3047C95.6976 57.1387 96.0508 57.0557 96.4805 57.0557C97.151 57.0557 97.6849 57.2884 98.082 57.7539C98.4824 58.2161 98.6826 58.9046 98.6826 59.8193C98.6826 60.4215 98.5915 60.9294 98.4092 61.3428C98.2269 61.7562 97.9697 62.0687 97.6377 62.2803C97.3057 62.4919 96.9134 62.5977 96.4609 62.5977C96.0378 62.5977 95.6895 62.5195 95.416 62.3633C95.1458 62.2038 94.9375 62.0101 94.791 61.7822H94.7275L94.5615 62.5H93.9756V54.9023H94.7861ZM96.3486 57.7344C95.9613 57.7344 95.6536 57.8109 95.4258 57.9639C95.1979 58.1136 95.0335 58.3415 94.9326 58.6475C94.835 58.9502 94.7861 59.3343 94.7861 59.7998V59.8438C94.7861 60.5176 94.8984 61.0335 95.123 61.3916C95.3477 61.7464 95.7562 61.9238 96.3486 61.9238C96.8467 61.9238 97.2194 61.7415 97.4668 61.377C97.7174 61.0124 97.8428 60.4915 97.8428 59.8145C97.8428 59.1243 97.7191 58.6051 97.4717 58.2568C97.2275 57.9085 96.8532 57.7344 96.3486 57.7344Z" fill="white"/>
<rect x="128" y="157" width="54" height="27" rx="8" fill="#005E7A"/>
<path d="M138.915 169.051C139.371 169.051 139.761 169.152 140.087 169.354C140.412 169.555 140.661 169.839 140.834 170.203C141.007 170.564 141.093 170.988 141.093 171.473V171.976H137.396C137.406 172.604 137.562 173.082 137.865 173.411C138.168 173.74 138.594 173.904 139.145 173.904C139.483 173.904 139.783 173.873 140.043 173.812C140.303 173.75 140.574 173.659 140.854 173.538V174.251C140.583 174.371 140.315 174.459 140.048 174.515C139.784 174.57 139.472 174.598 139.11 174.598C138.596 174.598 138.147 174.493 137.763 174.285C137.382 174.074 137.086 173.764 136.874 173.357C136.662 172.951 136.557 172.452 136.557 171.863C136.557 171.287 136.653 170.789 136.845 170.369C137.04 169.946 137.313 169.62 137.665 169.393C138.02 169.165 138.437 169.051 138.915 169.051ZM138.905 169.715C138.472 169.715 138.127 169.856 137.87 170.14C137.613 170.423 137.46 170.818 137.411 171.326H140.243C140.24 171.007 140.189 170.727 140.092 170.486C139.997 170.242 139.853 170.053 139.657 169.92C139.462 169.783 139.211 169.715 138.905 169.715ZM145.004 169.051C145.639 169.051 146.119 169.207 146.444 169.52C146.77 169.829 146.933 170.327 146.933 171.014V174.5H146.132V171.067C146.132 170.621 146.029 170.288 145.824 170.066C145.622 169.845 145.312 169.734 144.892 169.734C144.299 169.734 143.882 169.902 143.642 170.237C143.401 170.573 143.28 171.059 143.28 171.697V174.5H142.47V169.148H143.124L143.246 169.92H143.29C143.404 169.731 143.549 169.573 143.725 169.446C143.9 169.316 144.097 169.218 144.315 169.153C144.534 169.085 144.763 169.051 145.004 169.051ZM150.331 173.934C150.465 173.934 150.601 173.922 150.741 173.899C150.881 173.877 150.995 173.849 151.083 173.816V174.446C150.989 174.489 150.857 174.524 150.688 174.554C150.521 174.583 150.359 174.598 150.199 174.598C149.916 174.598 149.659 174.549 149.428 174.451C149.197 174.35 149.011 174.181 148.871 173.943C148.734 173.706 148.666 173.377 148.666 172.957V169.783H147.904V169.388L148.671 169.07L148.993 167.908H149.481V169.148H151.049V169.783H149.481V172.933C149.481 173.268 149.558 173.519 149.711 173.685C149.867 173.851 150.074 173.934 150.331 173.934ZM154.228 169.051C154.683 169.051 155.074 169.152 155.399 169.354C155.725 169.555 155.974 169.839 156.146 170.203C156.319 170.564 156.405 170.988 156.405 171.473V171.976H152.709C152.719 172.604 152.875 173.082 153.178 173.411C153.48 173.74 153.907 173.904 154.457 173.904C154.796 173.904 155.095 173.873 155.355 173.812C155.616 173.75 155.886 173.659 156.166 173.538V174.251C155.896 174.371 155.627 174.459 155.36 174.515C155.097 174.57 154.784 174.598 154.423 174.598C153.909 174.598 153.459 174.493 153.075 174.285C152.694 174.074 152.398 173.764 152.187 173.357C151.975 172.951 151.869 172.452 151.869 171.863C151.869 171.287 151.965 170.789 152.157 170.369C152.353 169.946 152.626 169.62 152.978 169.393C153.332 169.165 153.749 169.051 154.228 169.051ZM154.218 169.715C153.785 169.715 153.44 169.856 153.183 170.14C152.925 170.423 152.772 170.818 152.724 171.326H155.556C155.552 171.007 155.502 170.727 155.404 170.486C155.31 170.242 155.165 170.053 154.97 169.92C154.774 169.783 154.524 169.715 154.218 169.715ZM160.214 169.051C160.321 169.051 160.434 169.057 160.551 169.07C160.668 169.08 160.772 169.095 160.863 169.114L160.761 169.866C160.673 169.843 160.575 169.826 160.468 169.812C160.36 169.799 160.259 169.793 160.165 169.793C159.95 169.793 159.747 169.837 159.555 169.925C159.366 170.009 159.2 170.133 159.057 170.296C158.913 170.455 158.801 170.649 158.72 170.877C158.638 171.102 158.598 171.352 158.598 171.629V174.5H157.782V169.148H158.456L158.544 170.135H158.578C158.689 169.936 158.822 169.756 158.979 169.593C159.135 169.427 159.315 169.295 159.521 169.197C159.729 169.1 159.96 169.051 160.214 169.051Z" fill="white"/>
<path d="M152.625 68.5109C152.625 68.856 152.345 69.1359 152 69.1359C151.655 69.1359 151.375 68.856 151.375 68.5109L152 68.5109L152.625 68.5109ZM208.442 76.4419C208.198 76.686 207.802 76.686 207.558 76.4419L203.581 72.4645C203.337 72.2204 203.337 71.8247 203.581 71.5806C203.825 71.3365 204.22 71.3365 204.464 71.5806L208 75.1161L211.536 71.5806C211.78 71.3365 212.175 71.3365 212.419 71.5806C212.663 71.8247 212.663 72.2204 212.419 72.4645L208.442 76.4419ZM157.511 63L157.511 62.375L200 62.375L200 63L200 63.625L157.511 63.625L157.511 63ZM208 71L208.625 71L208.625 76L208 76L207.375 76L207.375 71L208 71ZM200 63L200 62.375C204.763 62.375 208.625 66.2365 208.625 71L208 71L207.375 71C207.375 66.9269 204.073 63.625 200 63.625L200 63ZM152 68.5109L151.375 68.5109C151.375 65.1221 154.122 62.375 157.511 62.375L157.511 63L157.511 63.625C154.812 63.625 152.625 65.8125 152.625 68.5109L152 68.5109Z" fill="#005E7A"/>
<path d="M208.625 68.5109C208.625 68.856 208.345 69.1359 208 69.1359C207.655 69.1359 207.375 68.856 207.375 68.5109L208 68.5109L208.625 68.5109ZM264.442 76.4419C264.198 76.686 263.802 76.686 263.558 76.4419L259.581 72.4645C259.337 72.2204 259.337 71.8247 259.581 71.5806C259.825 71.3365 260.22 71.3365 260.464 71.5806L264 75.1161L267.536 71.5806C267.78 71.3365 268.175 71.3365 268.419 71.5806C268.663 71.8247 268.663 72.2204 268.419 72.4645L264.442 76.4419ZM213.511 63L213.511 62.375L256 62.375L256 63L256 63.625L213.511 63.625L213.511 63ZM264 71L264.625 71L264.625 76L264 76L263.375 76L263.375 71L264 71ZM256 63L256 62.375C260.763 62.375 264.625 66.2365 264.625 71L264 71L263.375 71C263.375 66.9269 260.073 63.625 256 63.625L256 63ZM208 68.5109L207.375 68.5109C207.375 65.1221 210.122 62.375 213.511 62.375L213.511 63L213.511 63.625C210.812 63.625 208.625 65.8125 208.625 68.5109L208 68.5109Z" fill="#005E7A"/>
<path d="M152.625 -25C152.625 -25.3452 152.345 -25.625 152 -25.625C151.655 -25.625 151.375 -25.3452 151.375 -25H152H152.625ZM152 71H151.375H152ZM151.558 78.4419C151.802 78.686 152.198 78.686 152.442 78.4419L156.419 74.4645C156.663 74.2204 156.664 73.8247 156.419 73.5806C156.175 73.3365 155.78 73.3365 155.536 73.5806L152 77.1161L148.464 73.5806C148.22 73.3365 147.825 73.3365 147.581 73.5806C147.337 73.8247 147.337 74.2204 147.581 74.4645L151.558 78.4419ZM152 -25H151.375V71H152H152.625V-25H152ZM152 71C151.375 71 151.375 71 151.375 71C151.375 71 151.375 71.0001 151.375 71.0001C151.375 71.0002 151.375 71.0003 151.375 71.0005C151.375 71.0008 151.375 71.0012 151.375 71.0018C151.375 71.0031 151.375 71.0049 151.375 71.0073C151.375 71.0122 151.375 71.0195 151.375 71.0292C151.375 71.0486 151.375 71.0776 151.375 71.1162C151.375 71.1934 151.375 71.3086 151.375 71.4609C151.375 71.7656 151.375 72.2188 151.375 72.8125C151.375 74 151.375 75.75 151.375 78H152H152.625C152.625 75.75 152.625 74 152.625 72.8125C152.625 72.2188 152.625 71.7656 152.625 71.4609C152.625 71.3086 152.625 71.1934 152.625 71.1162C152.625 71.0776 152.625 71.0486 152.625 71.0292C152.625 71.0195 152.625 71.0122 152.625 71.0073C152.625 71.0049 152.625 71.003 152.625 71.0018C152.625 71.0012 152.625 71.0008 152.625 71.0005C152.625 71.0003 152.625 71.0002 152.625 71.0001C152.625 71.0001 152.625 71 152.625 71C152.625 71 152.625 71 152 71Z" fill="#005E7A"/>
<path d="M193.369 168.551C194.036 168.551 194.569 168.78 194.966 169.239C195.363 169.698 195.562 170.388 195.562 171.31C195.562 171.918 195.47 172.429 195.288 172.843C195.106 173.256 194.849 173.569 194.517 173.78C194.188 173.992 193.799 174.098 193.35 174.098C193.066 174.098 192.817 174.06 192.603 173.985C192.388 173.91 192.204 173.81 192.051 173.683C191.898 173.556 191.771 173.417 191.67 173.268H191.611C191.621 173.395 191.632 173.548 191.646 173.727C191.662 173.906 191.67 174.062 191.67 174.195V176.393H190.854V168.648H191.523L191.631 169.439H191.67C191.774 169.277 191.901 169.129 192.051 168.995C192.201 168.858 192.383 168.751 192.598 168.673C192.816 168.591 193.073 168.551 193.369 168.551ZM193.228 169.234C192.856 169.234 192.557 169.306 192.329 169.449C192.104 169.592 191.94 169.807 191.836 170.094C191.732 170.377 191.676 170.733 191.67 171.163V171.319C191.67 171.772 191.719 172.154 191.816 172.467C191.917 172.779 192.082 173.017 192.31 173.18C192.541 173.342 192.85 173.424 193.237 173.424C193.569 173.424 193.846 173.334 194.067 173.155C194.289 172.976 194.453 172.727 194.561 172.408C194.671 172.086 194.727 171.716 194.727 171.3C194.727 170.668 194.603 170.167 194.355 169.796C194.111 169.422 193.735 169.234 193.228 169.234ZM198.979 168.561C199.618 168.561 200.091 168.704 200.4 168.99C200.71 169.277 200.864 169.734 200.864 170.362V174H200.273L200.117 173.209H200.078C199.928 173.404 199.772 173.569 199.609 173.702C199.447 173.832 199.258 173.932 199.043 174C198.831 174.065 198.571 174.098 198.262 174.098C197.936 174.098 197.646 174.041 197.393 173.927C197.142 173.813 196.943 173.64 196.797 173.409C196.654 173.178 196.582 172.885 196.582 172.53C196.582 171.996 196.794 171.586 197.217 171.3C197.64 171.013 198.285 170.857 199.15 170.831L200.073 170.792V170.465C200.073 170.003 199.974 169.679 199.775 169.493C199.577 169.308 199.297 169.215 198.936 169.215C198.656 169.215 198.389 169.256 198.135 169.337C197.881 169.418 197.64 169.514 197.412 169.625L197.163 169.01C197.404 168.886 197.681 168.78 197.993 168.692C198.306 168.604 198.634 168.561 198.979 168.561ZM200.063 171.363L199.248 171.397C198.581 171.424 198.11 171.533 197.837 171.725C197.563 171.917 197.427 172.188 197.427 172.54C197.427 172.846 197.52 173.072 197.705 173.219C197.891 173.365 198.136 173.438 198.442 173.438C198.918 173.438 199.307 173.307 199.609 173.043C199.912 172.779 200.063 172.384 200.063 171.856V171.363ZM204.966 168.551C205.073 168.551 205.186 168.557 205.303 168.57C205.42 168.58 205.524 168.595 205.615 168.614L205.513 169.366C205.425 169.343 205.327 169.326 205.22 169.312C205.112 169.299 205.011 169.293 204.917 169.293C204.702 169.293 204.499 169.337 204.307 169.425C204.118 169.509 203.952 169.633 203.809 169.796C203.665 169.955 203.553 170.149 203.472 170.377C203.39 170.602 203.35 170.852 203.35 171.129V174H202.534V168.648H203.208L203.296 169.635H203.33C203.441 169.436 203.574 169.256 203.73 169.093C203.887 168.927 204.067 168.795 204.272 168.697C204.481 168.6 204.712 168.551 204.966 168.551ZM208.628 168.561C209.266 168.561 209.74 168.704 210.049 168.99C210.358 169.277 210.513 169.734 210.513 170.362V174H209.922L209.766 173.209H209.727C209.577 173.404 209.421 173.569 209.258 173.702C209.095 173.832 208.906 173.932 208.691 174C208.48 174.065 208.219 174.098 207.91 174.098C207.585 174.098 207.295 174.041 207.041 173.927C206.79 173.813 206.592 173.64 206.445 173.409C206.302 173.178 206.23 172.885 206.23 172.53C206.23 171.996 206.442 171.586 206.865 171.3C207.288 171.013 207.933 170.857 208.799 170.831L209.722 170.792V170.465C209.722 170.003 209.622 169.679 209.424 169.493C209.225 169.308 208.945 169.215 208.584 169.215C208.304 169.215 208.037 169.256 207.783 169.337C207.529 169.418 207.288 169.514 207.061 169.625L206.812 169.01C207.052 168.886 207.329 168.78 207.642 168.692C207.954 168.604 208.283 168.561 208.628 168.561ZM209.712 171.363L208.896 171.397C208.229 171.424 207.759 171.533 207.485 171.725C207.212 171.917 207.075 172.188 207.075 172.54C207.075 172.846 207.168 173.072 207.354 173.219C207.539 173.365 207.785 173.438 208.091 173.438C208.566 173.438 208.955 173.307 209.258 173.043C209.561 172.779 209.712 172.384 209.712 171.856V171.363ZM218.242 172.535C218.242 172.877 218.156 173.165 217.983 173.399C217.814 173.631 217.57 173.805 217.251 173.922C216.935 174.039 216.558 174.098 216.118 174.098C215.744 174.098 215.42 174.068 215.146 174.01C214.873 173.951 214.634 173.868 214.429 173.761V173.014C214.647 173.121 214.907 173.219 215.21 173.307C215.513 173.395 215.822 173.438 216.138 173.438C216.6 173.438 216.935 173.364 217.144 173.214C217.352 173.064 217.456 172.861 217.456 172.604C217.456 172.457 217.414 172.328 217.329 172.218C217.248 172.104 217.109 171.995 216.914 171.891C216.719 171.783 216.449 171.666 216.104 171.539C215.762 171.409 215.465 171.28 215.215 171.153C214.967 171.023 214.775 170.865 214.639 170.68C214.505 170.494 214.438 170.253 214.438 169.957C214.438 169.505 214.621 169.158 214.985 168.917C215.353 168.673 215.835 168.551 216.431 168.551C216.753 168.551 217.054 168.583 217.334 168.648C217.617 168.71 217.881 168.795 218.125 168.902L217.852 169.552C217.63 169.457 217.394 169.378 217.144 169.312C216.893 169.247 216.637 169.215 216.377 169.215C216.003 169.215 215.715 169.277 215.513 169.4C215.314 169.524 215.215 169.693 215.215 169.908C215.215 170.074 215.26 170.211 215.352 170.318C215.446 170.426 215.596 170.527 215.801 170.621C216.006 170.715 216.276 170.826 216.611 170.953C216.947 171.077 217.236 171.205 217.48 171.339C217.725 171.469 217.912 171.629 218.042 171.817C218.175 172.003 218.242 172.242 218.242 172.535ZM221.606 168.551C222.062 168.551 222.453 168.652 222.778 168.854C223.104 169.055 223.353 169.339 223.525 169.703C223.698 170.064 223.784 170.488 223.784 170.973V171.476H220.088C220.098 172.104 220.254 172.582 220.557 172.911C220.859 173.24 221.286 173.404 221.836 173.404C222.174 173.404 222.474 173.373 222.734 173.312C222.995 173.25 223.265 173.159 223.545 173.038V173.751C223.275 173.871 223.006 173.959 222.739 174.015C222.476 174.07 222.163 174.098 221.802 174.098C221.287 174.098 220.838 173.993 220.454 173.785C220.073 173.574 219.777 173.264 219.565 172.857C219.354 172.451 219.248 171.952 219.248 171.363C219.248 170.787 219.344 170.289 219.536 169.869C219.731 169.446 220.005 169.12 220.356 168.893C220.711 168.665 221.128 168.551 221.606 168.551ZM221.597 169.215C221.164 169.215 220.819 169.356 220.562 169.64C220.304 169.923 220.151 170.318 220.103 170.826H222.935C222.931 170.507 222.881 170.227 222.783 169.986C222.689 169.742 222.544 169.553 222.349 169.42C222.153 169.283 221.903 169.215 221.597 169.215ZM225.977 174H225.161V166.402H225.977V174ZM229.751 168.551C230.207 168.551 230.597 168.652 230.923 168.854C231.248 169.055 231.497 169.339 231.67 169.703C231.842 170.064 231.929 170.488 231.929 170.973V171.476H228.232C228.242 172.104 228.398 172.582 228.701 172.911C229.004 173.24 229.43 173.404 229.98 173.404C230.319 173.404 230.618 173.373 230.879 173.312C231.139 173.25 231.41 173.159 231.689 173.038V173.751C231.419 173.871 231.151 173.959 230.884 174.015C230.62 174.07 230.308 174.098 229.946 174.098C229.432 174.098 228.983 173.993 228.599 173.785C228.218 173.574 227.922 173.264 227.71 172.857C227.498 172.451 227.393 171.952 227.393 171.363C227.393 170.787 227.489 170.289 227.681 169.869C227.876 169.446 228.149 169.12 228.501 168.893C228.856 168.665 229.272 168.551 229.751 168.551ZM229.741 169.215C229.308 169.215 228.963 169.356 228.706 169.64C228.449 169.923 228.296 170.318 228.247 170.826H231.079C231.076 170.507 231.025 170.227 230.928 169.986C230.833 169.742 230.688 169.553 230.493 169.42C230.298 169.283 230.047 169.215 229.741 169.215ZM235.449 174.098C234.967 174.098 234.543 173.998 234.175 173.8C233.807 173.601 233.521 173.299 233.315 172.892C233.11 172.485 233.008 171.972 233.008 171.354C233.008 170.706 233.115 170.177 233.33 169.767C233.548 169.353 233.848 169.047 234.229 168.849C234.609 168.65 235.042 168.551 235.527 168.551C235.794 168.551 236.051 168.578 236.299 168.634C236.549 168.686 236.755 168.753 236.914 168.834L236.67 169.513C236.507 169.448 236.318 169.389 236.104 169.337C235.892 169.285 235.693 169.259 235.508 169.259C235.137 169.259 234.827 169.339 234.58 169.498C234.336 169.658 234.152 169.892 234.028 170.201C233.908 170.51 233.848 170.891 233.848 171.344C233.848 171.777 233.906 172.146 234.023 172.452C234.144 172.758 234.321 172.993 234.556 173.155C234.793 173.315 235.09 173.395 235.444 173.395C235.728 173.395 235.983 173.365 236.211 173.307C236.439 173.245 236.646 173.173 236.831 173.092V173.814C236.652 173.906 236.452 173.976 236.23 174.024C236.012 174.073 235.752 174.098 235.449 174.098ZM240.244 174.098C239.762 174.098 239.338 173.998 238.97 173.8C238.602 173.601 238.315 173.299 238.11 172.892C237.905 172.485 237.803 171.972 237.803 171.354C237.803 170.706 237.91 170.177 238.125 169.767C238.343 169.353 238.643 169.047 239.023 168.849C239.404 168.65 239.837 168.551 240.322 168.551C240.589 168.551 240.846 168.578 241.094 168.634C241.344 168.686 241.549 168.753 241.709 168.834L241.465 169.513C241.302 169.448 241.113 169.389 240.898 169.337C240.687 169.285 240.488 169.259 240.303 169.259C239.932 169.259 239.622 169.339 239.375 169.498C239.131 169.658 238.947 169.892 238.823 170.201C238.703 170.51 238.643 170.891 238.643 171.344C238.643 171.777 238.701 172.146 238.818 172.452C238.939 172.758 239.116 172.993 239.351 173.155C239.588 173.315 239.884 173.395 240.239 173.395C240.522 173.395 240.778 173.365 241.006 173.307C241.234 173.245 241.44 173.173 241.626 173.092V173.814C241.447 173.906 241.247 173.976 241.025 174.024C240.807 174.073 240.547 174.098 240.244 174.098ZM243.706 168.648V174H242.896V168.648H243.706ZM243.311 166.646C243.444 166.646 243.558 166.69 243.652 166.778C243.75 166.863 243.799 166.996 243.799 167.179C243.799 167.358 243.75 167.491 243.652 167.579C243.558 167.667 243.444 167.711 243.311 167.711C243.171 167.711 243.053 167.667 242.959 167.579C242.868 167.491 242.822 167.358 242.822 167.179C242.822 166.996 242.868 166.863 242.959 166.778C243.053 166.69 243.171 166.646 243.311 166.646ZM250.039 171.314C250.039 171.754 249.982 172.146 249.868 172.491C249.754 172.836 249.59 173.128 249.375 173.365C249.16 173.603 248.9 173.785 248.594 173.912C248.291 174.036 247.948 174.098 247.563 174.098C247.205 174.098 246.877 174.036 246.577 173.912C246.281 173.785 246.024 173.603 245.806 173.365C245.591 173.128 245.423 172.836 245.303 172.491C245.186 172.146 245.127 171.754 245.127 171.314C245.127 170.729 245.226 170.23 245.425 169.82C245.623 169.407 245.907 169.093 246.274 168.878C246.646 168.66 247.087 168.551 247.598 168.551C248.086 168.551 248.512 168.66 248.877 168.878C249.245 169.096 249.53 169.412 249.731 169.825C249.937 170.235 250.039 170.732 250.039 171.314ZM245.967 171.314C245.967 171.744 246.024 172.117 246.138 172.433C246.252 172.748 246.427 172.993 246.665 173.165C246.903 173.338 247.209 173.424 247.583 173.424C247.954 173.424 248.258 173.338 248.496 173.165C248.737 172.993 248.914 172.748 249.028 172.433C249.142 172.117 249.199 171.744 249.199 171.314C249.199 170.888 249.142 170.52 249.028 170.211C248.914 169.898 248.739 169.658 248.501 169.488C248.263 169.319 247.956 169.234 247.578 169.234C247.021 169.234 246.613 169.418 246.353 169.786C246.095 170.154 245.967 170.663 245.967 171.314ZM253.975 168.551C254.609 168.551 255.09 168.707 255.415 169.02C255.741 169.329 255.903 169.827 255.903 170.514V174H255.103V170.567C255.103 170.121 255 169.788 254.795 169.566C254.593 169.345 254.282 169.234 253.862 169.234C253.27 169.234 252.853 169.402 252.612 169.737C252.371 170.073 252.251 170.559 252.251 171.197V174H251.44V168.648H252.095L252.217 169.42H252.261C252.375 169.231 252.52 169.073 252.695 168.946C252.871 168.816 253.068 168.718 253.286 168.653C253.504 168.585 253.734 168.551 253.975 168.551ZM259.575 168.561C260.213 168.561 260.687 168.704 260.996 168.99C261.305 169.277 261.46 169.734 261.46 170.362V174H260.869L260.713 173.209H260.674C260.524 173.404 260.368 173.569 260.205 173.702C260.042 173.832 259.854 173.932 259.639 174C259.427 174.065 259.167 174.098 258.857 174.098C258.532 174.098 258.242 174.041 257.988 173.927C257.738 173.813 257.539 173.64 257.393 173.409C257.249 173.178 257.178 172.885 257.178 172.53C257.178 171.996 257.389 171.586 257.812 171.3C258.236 171.013 258.88 170.857 259.746 170.831L260.669 170.792V170.465C260.669 170.003 260.57 169.679 260.371 169.493C260.173 169.308 259.893 169.215 259.531 169.215C259.251 169.215 258.984 169.256 258.73 169.337C258.477 169.418 258.236 169.514 258.008 169.625L257.759 169.01C258 168.886 258.276 168.78 258.589 168.692C258.901 168.604 259.23 168.561 259.575 168.561ZM260.659 171.363L259.844 171.397C259.176 171.424 258.706 171.533 258.433 171.725C258.159 171.917 258.022 172.188 258.022 172.54C258.022 172.846 258.115 173.072 258.301 173.219C258.486 173.365 258.732 173.438 259.038 173.438C259.513 173.438 259.902 173.307 260.205 173.043C260.508 172.779 260.659 172.384 260.659 171.856V171.363ZM265.562 168.551C265.669 168.551 265.781 168.557 265.898 168.57C266.016 168.58 266.12 168.595 266.211 168.614L266.108 169.366C266.021 169.343 265.923 169.326 265.815 169.312C265.708 169.299 265.607 169.293 265.513 169.293C265.298 169.293 265.094 169.337 264.902 169.425C264.714 169.509 264.548 169.633 264.404 169.796C264.261 169.955 264.149 170.149 264.067 170.377C263.986 170.602 263.945 170.852 263.945 171.129V174H263.13V168.648H263.804L263.892 169.635H263.926C264.036 169.436 264.17 169.256 264.326 169.093C264.482 168.927 264.663 168.795 264.868 168.697C265.076 168.6 265.308 168.551 265.562 168.551ZM271.88 168.551C272.336 168.551 272.726 168.652 273.052 168.854C273.377 169.055 273.626 169.339 273.799 169.703C273.971 170.064 274.058 170.488 274.058 170.973V171.476H270.361C270.371 172.104 270.527 172.582 270.83 172.911C271.133 173.24 271.559 173.404 272.109 173.404C272.448 173.404 272.747 173.373 273.008 173.312C273.268 173.25 273.538 173.159 273.818 173.038V173.751C273.548 173.871 273.28 173.959 273.013 174.015C272.749 174.07 272.437 174.098 272.075 174.098C271.561 174.098 271.112 173.993 270.728 173.785C270.347 173.574 270.05 173.264 269.839 172.857C269.627 172.451 269.521 171.952 269.521 171.363C269.521 170.787 269.618 170.289 269.81 169.869C270.005 169.446 270.278 169.12 270.63 168.893C270.985 168.665 271.401 168.551 271.88 168.551ZM271.87 169.215C271.437 169.215 271.092 169.356 270.835 169.64C270.578 169.923 270.425 170.318 270.376 170.826H273.208C273.205 170.507 273.154 170.227 273.057 169.986C272.962 169.742 272.817 169.553 272.622 169.42C272.427 169.283 272.176 169.215 271.87 169.215ZM276.25 174H275.435V166.402H276.25V174ZM281.372 166.402V168.302C281.372 168.52 281.366 168.731 281.353 168.937C281.343 169.142 281.335 169.301 281.328 169.415H281.372C281.519 169.174 281.73 168.971 282.007 168.805C282.284 168.639 282.637 168.556 283.066 168.556C283.737 168.556 284.271 168.788 284.668 169.254C285.068 169.716 285.269 170.405 285.269 171.319C285.269 171.922 285.177 172.429 284.995 172.843C284.813 173.256 284.556 173.569 284.224 173.78C283.892 173.992 283.499 174.098 283.047 174.098C282.624 174.098 282.275 174.02 282.002 173.863C281.732 173.704 281.523 173.51 281.377 173.282H281.313L281.147 174H280.562V166.402H281.372ZM282.935 169.234C282.547 169.234 282.24 169.311 282.012 169.464C281.784 169.614 281.619 169.841 281.519 170.147C281.421 170.45 281.372 170.834 281.372 171.3V171.344C281.372 172.018 281.484 172.534 281.709 172.892C281.934 173.246 282.342 173.424 282.935 173.424C283.433 173.424 283.805 173.242 284.053 172.877C284.303 172.512 284.429 171.992 284.429 171.314C284.429 170.624 284.305 170.105 284.058 169.757C283.813 169.409 283.439 169.234 282.935 169.234ZM291.299 171.314C291.299 171.754 291.242 172.146 291.128 172.491C291.014 172.836 290.85 173.128 290.635 173.365C290.42 173.603 290.16 173.785 289.854 173.912C289.551 174.036 289.207 174.098 288.823 174.098C288.465 174.098 288.136 174.036 287.837 173.912C287.541 173.785 287.284 173.603 287.065 173.365C286.851 173.128 286.683 172.836 286.562 172.491C286.445 172.146 286.387 171.754 286.387 171.314C286.387 170.729 286.486 170.23 286.685 169.82C286.883 169.407 287.166 169.093 287.534 168.878C287.905 168.66 288.346 168.551 288.857 168.551C289.346 168.551 289.772 168.66 290.137 168.878C290.505 169.096 290.789 169.412 290.991 169.825C291.196 170.235 291.299 170.732 291.299 171.314ZM287.227 171.314C287.227 171.744 287.284 172.117 287.397 172.433C287.511 172.748 287.687 172.993 287.925 173.165C288.162 173.338 288.468 173.424 288.843 173.424C289.214 173.424 289.518 173.338 289.756 173.165C289.997 172.993 290.174 172.748 290.288 172.433C290.402 172.117 290.459 171.744 290.459 171.314C290.459 170.888 290.402 170.52 290.288 170.211C290.174 169.898 289.998 169.658 289.761 169.488C289.523 169.319 289.215 169.234 288.838 169.234C288.281 169.234 287.873 169.418 287.612 169.786C287.355 170.154 287.227 170.663 287.227 171.314ZM294.429 173.434C294.562 173.434 294.699 173.422 294.839 173.399C294.979 173.377 295.093 173.349 295.181 173.316V173.946C295.086 173.989 294.954 174.024 294.785 174.054C294.619 174.083 294.456 174.098 294.297 174.098C294.014 174.098 293.757 174.049 293.525 173.951C293.294 173.85 293.109 173.681 292.969 173.443C292.832 173.206 292.764 172.877 292.764 172.457V169.283H292.002V168.888L292.769 168.57L293.091 167.408H293.579V168.648H295.146V169.283H293.579V172.433C293.579 172.768 293.656 173.019 293.809 173.185C293.965 173.351 294.172 173.434 294.429 173.434ZM300.879 171.314C300.879 171.754 300.822 172.146 300.708 172.491C300.594 172.836 300.43 173.128 300.215 173.365C300 173.603 299.74 173.785 299.434 173.912C299.131 174.036 298.787 174.098 298.403 174.098C298.045 174.098 297.716 174.036 297.417 173.912C297.121 173.785 296.864 173.603 296.646 173.365C296.431 173.128 296.263 172.836 296.143 172.491C296.025 172.146 295.967 171.754 295.967 171.314C295.967 170.729 296.066 170.23 296.265 169.82C296.463 169.407 296.746 169.093 297.114 168.878C297.485 168.66 297.926 168.551 298.438 168.551C298.926 168.551 299.352 168.66 299.717 168.878C300.085 169.096 300.369 169.412 300.571 169.825C300.776 170.235 300.879 170.732 300.879 171.314ZM296.807 171.314C296.807 171.744 296.864 172.117 296.978 172.433C297.091 172.748 297.267 172.993 297.505 173.165C297.743 173.338 298.049 173.424 298.423 173.424C298.794 173.424 299.098 173.338 299.336 173.165C299.577 172.993 299.754 172.748 299.868 172.433C299.982 172.117 300.039 171.744 300.039 171.314C300.039 170.888 299.982 170.52 299.868 170.211C299.754 169.898 299.578 169.658 299.341 169.488C299.103 169.319 298.796 169.234 298.418 169.234C297.861 169.234 297.453 169.418 297.192 169.786C296.935 170.154 296.807 170.663 296.807 171.314ZM299.839 166.339V166.437C299.774 166.531 299.684 166.645 299.57 166.778C299.46 166.909 299.336 167.047 299.199 167.193C299.062 167.337 298.924 167.473 298.784 167.604C298.647 167.734 298.521 167.846 298.403 167.94H297.861V167.823C297.965 167.7 298.079 167.551 298.203 167.379C298.327 167.203 298.447 167.024 298.564 166.842C298.682 166.656 298.779 166.489 298.857 166.339H299.839ZM304.814 168.551C305.449 168.551 305.929 168.707 306.255 169.02C306.58 169.329 306.743 169.827 306.743 170.514V174H305.942V170.567C305.942 170.121 305.84 169.788 305.635 169.566C305.433 169.345 305.122 169.234 304.702 169.234C304.11 169.234 303.693 169.402 303.452 169.737C303.211 170.073 303.091 170.559 303.091 171.197V174H302.28V168.648H302.935L303.057 169.42H303.101C303.215 169.231 303.359 169.073 303.535 168.946C303.711 168.816 303.908 168.718 304.126 168.653C304.344 168.585 304.574 168.551 304.814 168.551Z" fill="#101E37"/>
</g>
<rect x="1" y="1" width="726" height="220" rx="7" stroke="#E6EBF0" stroke-width="2"/>
<defs>
<clipPath id="clip0_3778_2879">
<rect width="728" height="222" rx="8" fill="white"/>
</clipPath>
</defs>
</svg>
