<svg width="728" height="240" viewBox="0 0 728 240" fill="none" xmlns="http://www.w3.org/2000/svg">
<rect x="1" y="1" width="726" height="238" rx="7" fill="#F3F6F9"/>
<rect x="1" y="1" width="726" height="238" rx="7" stroke="#E6EBF0" stroke-width="2"/>
<rect x="47.5" y="97" width="113" height="46" rx="9" fill="white"/>
<rect x="47.5" y="97" width="113" height="46" rx="9" stroke="#E6EBF0" stroke-width="2"/>
<path d="M67.5 114.705C67.11 114.315 66.48 114.315 66.09 114.705L61.5 119.295C61.11 119.685 61.11 120.315 61.5 120.705L66.09 125.295C66.48 125.685 67.11 125.685 67.5 125.295C67.89 124.905 67.89 124.275 67.5 123.885L63.62 119.995L67.5 116.115C67.89 115.725 67.88 115.085 67.5 114.705Z" fill="#101E37"/>
<path d="M81.796 126.126C81.604 126.126 81.448 126.084 81.328 126C81.22 125.904 81.154 125.784 81.13 125.64C81.118 125.484 81.154 125.31 81.238 125.118L86.188 113.85C86.296 113.61 86.422 113.442 86.566 113.346C86.722 113.238 86.89 113.184 87.07 113.184C87.25 113.184 87.412 113.238 87.556 113.346C87.712 113.442 87.838 113.61 87.934 113.85L92.902 125.118C92.998 125.31 93.034 125.484 93.01 125.64C92.998 125.796 92.938 125.916 92.83 126C92.722 126.084 92.572 126.126 92.38 126.126C92.164 126.126 91.99 126.072 91.858 125.964C91.726 125.844 91.618 125.676 91.534 125.46L90.202 122.382L90.922 122.76H83.182L83.92 122.382L82.606 125.46C82.498 125.688 82.384 125.856 82.264 125.964C82.144 126.072 81.988 126.126 81.796 126.126ZM87.052 115.038L84.154 121.86L83.722 121.518H90.382L89.986 121.86L87.088 115.038H87.052ZM95.7013 126.126C95.4613 126.126 95.2813 126.06 95.1613 125.928C95.0413 125.796 94.9813 125.61 94.9813 125.37V117.864C94.9813 117.624 95.0413 117.444 95.1613 117.324C95.2813 117.192 95.4553 117.126 95.6833 117.126C95.9113 117.126 96.0853 117.192 96.2053 117.324C96.3373 117.444 96.4033 117.624 96.4033 117.864V119.412L96.2053 119.196C96.4573 118.5 96.8653 117.978 97.4293 117.63C98.0053 117.27 98.6653 117.09 99.4093 117.09C100.105 117.09 100.681 117.216 101.137 117.468C101.605 117.72 101.953 118.104 102.181 118.62C102.409 119.124 102.523 119.766 102.523 120.546V125.37C102.523 125.61 102.457 125.796 102.325 125.928C102.205 126.06 102.031 126.126 101.803 126.126C101.563 126.126 101.377 126.06 101.245 125.928C101.125 125.796 101.065 125.61 101.065 125.37V120.636C101.065 119.82 100.903 119.226 100.579 118.854C100.267 118.47 99.7633 118.278 99.0673 118.278C98.2633 118.278 97.6213 118.53 97.1413 119.034C96.6733 119.526 96.4393 120.186 96.4393 121.014V125.37C96.4393 125.874 96.1933 126.126 95.7013 126.126ZM108.722 126.162C108.038 126.162 107.462 126.042 106.994 125.802C106.538 125.55 106.196 125.19 105.968 124.722C105.74 124.242 105.626 123.66 105.626 122.976V118.386H104.42C104.216 118.386 104.06 118.338 103.952 118.242C103.844 118.134 103.79 117.99 103.79 117.81C103.79 117.63 103.844 117.492 103.952 117.396C104.06 117.3 104.216 117.252 104.42 117.252H105.626V115.182C105.626 114.942 105.692 114.762 105.824 114.642C105.956 114.51 106.136 114.444 106.364 114.444C106.592 114.444 106.766 114.51 106.886 114.642C107.018 114.762 107.084 114.942 107.084 115.182V117.252H109.352C109.556 117.252 109.712 117.3 109.82 117.396C109.928 117.492 109.982 117.63 109.982 117.81C109.982 117.99 109.928 118.134 109.82 118.242C109.712 118.338 109.556 118.386 109.352 118.386H107.084V122.832C107.084 123.516 107.228 124.038 107.516 124.398C107.804 124.746 108.272 124.92 108.92 124.92C109.148 124.92 109.34 124.896 109.496 124.848C109.664 124.8 109.802 124.776 109.91 124.776C110.018 124.764 110.108 124.8 110.18 124.884C110.252 124.968 110.288 125.112 110.288 125.316C110.288 125.46 110.258 125.592 110.198 125.712C110.15 125.832 110.06 125.916 109.928 125.964C109.784 126.012 109.592 126.054 109.352 126.09C109.124 126.138 108.914 126.162 108.722 126.162ZM115.359 126.162C114.435 126.162 113.637 125.982 112.965 125.622C112.305 125.25 111.789 124.728 111.417 124.056C111.057 123.384 110.877 122.58 110.877 121.644C110.877 120.732 111.057 119.94 111.417 119.268C111.777 118.584 112.269 118.05 112.893 117.666C113.529 117.282 114.261 117.09 115.089 117.09C115.677 117.09 116.205 117.192 116.673 117.396C117.141 117.588 117.537 117.87 117.861 118.242C118.197 118.614 118.449 119.064 118.617 119.592C118.797 120.12 118.887 120.714 118.887 121.374C118.887 121.566 118.833 121.71 118.725 121.806C118.617 121.89 118.461 121.932 118.257 121.932H111.993V120.978H117.915L117.627 121.212C117.627 120.564 117.531 120.018 117.339 119.574C117.147 119.118 116.865 118.77 116.493 118.53C116.133 118.29 115.677 118.17 115.125 118.17C114.513 118.17 113.991 118.314 113.559 118.602C113.139 118.878 112.821 119.268 112.605 119.772C112.389 120.264 112.281 120.84 112.281 121.5V121.608C112.281 122.712 112.545 123.552 113.073 124.128C113.613 124.704 114.375 124.992 115.359 124.992C115.767 124.992 116.169 124.938 116.565 124.83C116.973 124.722 117.369 124.542 117.753 124.29C117.921 124.182 118.071 124.134 118.203 124.146C118.347 124.146 118.461 124.188 118.545 124.272C118.629 124.344 118.683 124.44 118.707 124.56C118.743 124.668 118.731 124.788 118.671 124.92C118.623 125.052 118.521 125.166 118.365 125.262C117.969 125.55 117.501 125.772 116.961 125.928C116.421 126.084 115.887 126.162 115.359 126.162ZM121.735 126.126C121.495 126.126 121.309 126.06 121.177 125.928C121.057 125.796 120.997 125.61 120.997 125.37V117.864C120.997 117.624 121.057 117.444 121.177 117.324C121.297 117.192 121.471 117.126 121.699 117.126C121.927 117.126 122.101 117.192 122.221 117.324C122.353 117.444 122.419 117.624 122.419 117.864V119.322H122.239C122.431 118.614 122.797 118.068 123.337 117.684C123.877 117.3 124.543 117.096 125.335 117.072C125.515 117.06 125.659 117.102 125.767 117.198C125.875 117.282 125.935 117.432 125.947 117.648C125.959 117.852 125.911 118.014 125.803 118.134C125.695 118.254 125.527 118.326 125.299 118.35L125.011 118.386C124.195 118.458 123.565 118.722 123.121 119.178C122.689 119.622 122.473 120.234 122.473 121.014V125.37C122.473 125.61 122.407 125.796 122.275 125.928C122.155 126.06 121.975 126.126 121.735 126.126ZM128.168 126.09C127.928 126.09 127.748 126.024 127.628 125.892C127.508 125.748 127.448 125.55 127.448 125.298V117.936C127.448 117.684 127.508 117.492 127.628 117.36C127.748 117.228 127.928 117.162 128.168 117.162C128.396 117.162 128.576 117.228 128.708 117.36C128.84 117.492 128.906 117.684 128.906 117.936V125.298C128.906 125.55 128.84 125.748 128.708 125.892C128.588 126.024 128.408 126.09 128.168 126.09ZM128.168 115.146C127.868 115.146 127.634 115.068 127.466 114.912C127.298 114.744 127.214 114.522 127.214 114.246C127.214 113.958 127.298 113.742 127.466 113.598C127.634 113.442 127.868 113.364 128.168 113.364C128.48 113.364 128.714 113.442 128.87 113.598C129.038 113.742 129.122 113.958 129.122 114.246C129.122 114.522 129.038 114.744 128.87 114.912C128.714 115.068 128.48 115.146 128.168 115.146ZM135.268 126.162C134.416 126.162 133.678 125.976 133.054 125.604C132.43 125.232 131.944 124.71 131.596 124.038C131.26 123.354 131.092 122.55 131.092 121.626C131.092 120.93 131.188 120.306 131.38 119.754C131.572 119.19 131.854 118.71 132.226 118.314C132.598 117.918 133.036 117.618 133.54 117.414C134.056 117.198 134.632 117.09 135.268 117.09C136.12 117.09 136.858 117.276 137.482 117.648C138.106 118.02 138.586 118.548 138.922 119.232C139.27 119.904 139.444 120.702 139.444 121.626C139.444 122.322 139.348 122.946 139.156 123.498C138.964 124.05 138.682 124.53 138.31 124.938C137.938 125.334 137.494 125.64 136.978 125.856C136.474 126.06 135.904 126.162 135.268 126.162ZM135.268 124.992C135.808 124.992 136.282 124.86 136.69 124.596C137.098 124.332 137.41 123.948 137.626 123.444C137.854 122.94 137.968 122.334 137.968 121.626C137.968 120.534 137.722 119.7 137.23 119.124C136.75 118.548 136.096 118.26 135.268 118.26C134.716 118.26 134.236 118.392 133.828 118.656C133.432 118.908 133.12 119.286 132.892 119.79C132.676 120.282 132.568 120.894 132.568 121.626C132.568 122.706 132.814 123.54 133.306 124.128C133.798 124.704 134.452 124.992 135.268 124.992ZM142.372 126.126C142.132 126.126 141.946 126.06 141.814 125.928C141.694 125.796 141.634 125.61 141.634 125.37V117.864C141.634 117.624 141.694 117.444 141.814 117.324C141.934 117.192 142.108 117.126 142.336 117.126C142.564 117.126 142.738 117.192 142.858 117.324C142.99 117.444 143.056 117.624 143.056 117.864V119.322H142.876C143.068 118.614 143.434 118.068 143.974 117.684C144.514 117.3 145.18 117.096 145.972 117.072C146.152 117.06 146.296 117.102 146.404 117.198C146.512 117.282 146.572 117.432 146.584 117.648C146.596 117.852 146.548 118.014 146.44 118.134C146.332 118.254 146.164 118.326 145.936 118.35L145.648 118.386C144.832 118.458 144.202 118.722 143.758 119.178C143.326 119.622 143.11 120.234 143.11 121.014V125.37C143.11 125.61 143.044 125.796 142.912 125.928C142.792 126.06 142.612 126.126 142.372 126.126Z" fill="#101E37"/>
<rect x="166.5" y="97" width="50" height="46" rx="9" fill="white"/>
<rect x="166.5" y="97" width="50" height="46" rx="9" stroke="#E6EBF0" stroke-width="2"/>
<path d="M188.79 126C188.574 126 188.406 125.946 188.286 125.838C188.166 125.718 188.106 125.556 188.106 125.352C188.106 125.148 188.166 124.998 188.286 124.902C188.406 124.794 188.574 124.74 188.79 124.74H191.13V114.534H191.904L189.294 116.262C189.138 116.346 188.988 116.382 188.844 116.37C188.712 116.358 188.598 116.31 188.502 116.226C188.418 116.13 188.358 116.022 188.322 115.902C188.286 115.77 188.292 115.638 188.34 115.506C188.388 115.362 188.49 115.242 188.646 115.146L191.13 113.508C191.286 113.412 191.436 113.334 191.58 113.274C191.724 113.214 191.868 113.184 192.012 113.184C192.18 113.184 192.318 113.238 192.426 113.346C192.546 113.442 192.606 113.598 192.606 113.814V124.74H194.766C194.982 124.74 195.15 124.794 195.27 124.902C195.39 124.998 195.45 125.148 195.45 125.352C195.45 125.568 195.39 125.73 195.27 125.838C195.15 125.946 194.982 126 194.766 126H188.79Z" fill="#101E37"/>
<rect x="223.5" y="98" width="48" height="44" rx="8" fill="white"/>
<path d="M243.07 126.072C242.77 126.072 242.53 125.982 242.35 125.802C242.17 125.61 242.08 125.37 242.08 125.082C242.08 124.794 242.17 124.56 242.35 124.38C242.53 124.188 242.77 124.092 243.07 124.092C243.37 124.092 243.604 124.188 243.772 124.38C243.952 124.56 244.042 124.794 244.042 125.082C244.042 125.37 243.952 125.61 243.772 125.802C243.604 125.982 243.37 126.072 243.07 126.072ZM247.166 126.072C246.866 126.072 246.626 125.982 246.446 125.802C246.266 125.61 246.176 125.37 246.176 125.082C246.176 124.794 246.266 124.56 246.446 124.38C246.626 124.188 246.866 124.092 247.166 124.092C247.466 124.092 247.7 124.188 247.868 124.38C248.048 124.56 248.138 124.794 248.138 125.082C248.138 125.37 248.048 125.61 247.868 125.802C247.7 125.982 247.466 126.072 247.166 126.072ZM251.261 126.072C250.961 126.072 250.721 125.982 250.541 125.802C250.361 125.61 250.271 125.37 250.271 125.082C250.271 124.794 250.361 124.56 250.541 124.38C250.721 124.188 250.961 124.092 251.261 124.092C251.561 124.092 251.795 124.188 251.963 124.38C252.143 124.56 252.233 124.794 252.233 125.082C252.233 125.37 252.143 125.61 251.963 125.802C251.795 125.982 251.561 126.072 251.261 126.072Z" fill="#101E37"/>
<rect x="278.5" y="97" width="50" height="46" rx="9" fill="white"/>
<rect x="278.5" y="97" width="50" height="46" rx="9" stroke="#E6EBF0" stroke-width="2"/>
<path d="M305.524 126.126C305.296 126.126 305.116 126.06 304.984 125.928C304.852 125.796 304.786 125.61 304.786 125.37V123.282H299.62C299.38 123.282 299.188 123.228 299.044 123.12C298.912 123 298.846 122.832 298.846 122.616C298.846 122.484 298.876 122.352 298.936 122.22C298.996 122.076 299.104 121.896 299.26 121.68L304.75 113.688C304.858 113.52 304.978 113.394 305.11 113.31C305.242 113.226 305.398 113.184 305.578 113.184C305.77 113.184 305.932 113.244 306.064 113.364C306.208 113.484 306.28 113.676 306.28 113.94V122.022H307.594C307.822 122.022 307.996 122.076 308.116 122.184C308.236 122.292 308.296 122.448 308.296 122.652C308.296 122.856 308.236 123.012 308.116 123.12C307.996 123.228 307.822 123.282 307.594 123.282H306.28V125.37C306.28 125.61 306.214 125.796 306.082 125.928C305.95 126.06 305.764 126.126 305.524 126.126ZM304.786 122.022V115.038H305.218L300.178 122.418V122.022H304.786Z" fill="#101E37"/>
<rect x="334.5" y="97" width="50" height="46" rx="9" fill="#274986"/>
<rect x="334.5" y="97" width="50" height="46" rx="9" stroke="#E6EBF0" stroke-width="2"/>
<path d="M359.67 126.162C358.986 126.162 358.302 126.06 357.618 125.856C356.946 125.652 356.334 125.334 355.782 124.902C355.638 124.806 355.542 124.692 355.494 124.56C355.446 124.428 355.44 124.296 355.476 124.164C355.512 124.032 355.578 123.924 355.674 123.84C355.77 123.744 355.884 123.69 356.016 123.678C356.16 123.666 356.31 123.714 356.466 123.822C356.958 124.17 357.468 124.428 357.996 124.596C358.524 124.764 359.076 124.848 359.652 124.848C360.24 124.848 360.744 124.74 361.164 124.524C361.596 124.296 361.92 123.984 362.136 123.588C362.364 123.18 362.478 122.706 362.478 122.166C362.478 121.338 362.238 120.66 361.758 120.132C361.278 119.604 360.618 119.34 359.778 119.34C359.262 119.34 358.788 119.436 358.356 119.628C357.924 119.82 357.528 120.126 357.168 120.546C357.084 120.642 356.982 120.726 356.862 120.798C356.754 120.858 356.628 120.888 356.484 120.888C356.28 120.888 356.118 120.834 355.998 120.726C355.89 120.606 355.836 120.45 355.836 120.258V113.994C355.836 113.766 355.896 113.598 356.016 113.49C356.136 113.37 356.304 113.31 356.52 113.31H362.64C362.868 113.31 363.036 113.364 363.144 113.472C363.264 113.58 363.324 113.736 363.324 113.94C363.324 114.144 363.264 114.3 363.144 114.408C363.036 114.516 362.868 114.57 362.64 114.57H357.294V119.628H356.898C357.21 119.124 357.642 118.74 358.194 118.476C358.746 118.2 359.364 118.062 360.048 118.062C360.852 118.062 361.542 118.23 362.118 118.566C362.706 118.902 363.156 119.376 363.468 119.988C363.792 120.588 363.954 121.29 363.954 122.094C363.954 122.886 363.78 123.588 363.432 124.2C363.084 124.812 362.592 125.292 361.956 125.64C361.32 125.988 360.558 126.162 359.67 126.162Z" fill="white"/>
<rect x="390.5" y="97" width="50" height="46" rx="9" fill="white"/>
<rect x="390.5" y="97" width="50" height="46" rx="9" stroke="#E6EBF0" stroke-width="2"/>
<path d="M415.832 126.162C414.836 126.162 413.984 125.922 413.276 125.442C412.58 124.95 412.052 124.242 411.692 123.318C411.332 122.394 411.152 121.278 411.152 119.97C411.152 118.866 411.266 117.894 411.494 117.054C411.722 116.214 412.058 115.506 412.502 114.93C412.946 114.342 413.486 113.898 414.122 113.598C414.758 113.298 415.478 113.148 416.282 113.148C416.834 113.148 417.398 113.256 417.974 113.472C418.562 113.688 419.078 113.994 419.522 114.39C419.654 114.486 419.732 114.606 419.756 114.75C419.792 114.882 419.792 115.014 419.756 115.146C419.72 115.266 419.654 115.368 419.558 115.452C419.474 115.536 419.366 115.584 419.234 115.596C419.102 115.596 418.964 115.542 418.82 115.434C418.412 115.086 417.992 114.84 417.56 114.696C417.128 114.54 416.69 114.462 416.246 114.462C415.466 114.462 414.8 114.654 414.248 115.038C413.708 115.422 413.294 116.004 413.006 116.784C412.73 117.552 412.592 118.518 412.592 119.682V121.356H412.43C412.502 120.672 412.7 120.084 413.024 119.592C413.36 119.088 413.786 118.704 414.302 118.44C414.818 118.176 415.4 118.044 416.048 118.044C416.792 118.044 417.452 118.212 418.028 118.548C418.604 118.884 419.054 119.358 419.378 119.97C419.702 120.57 419.864 121.26 419.864 122.04C419.864 122.832 419.696 123.54 419.36 124.164C419.024 124.788 418.55 125.28 417.938 125.64C417.326 125.988 416.624 126.162 415.832 126.162ZM415.742 124.902C416.27 124.902 416.738 124.788 417.146 124.56C417.554 124.32 417.872 123.99 418.1 123.57C418.328 123.138 418.442 122.646 418.442 122.094C418.442 121.542 418.328 121.056 418.1 120.636C417.872 120.216 417.554 119.886 417.146 119.646C416.738 119.406 416.27 119.286 415.742 119.286C415.214 119.286 414.746 119.406 414.338 119.646C413.93 119.886 413.612 120.216 413.384 120.636C413.156 121.056 413.042 121.542 413.042 122.094C413.042 122.646 413.156 123.138 413.384 123.57C413.612 123.99 413.93 124.32 414.338 124.56C414.746 124.788 415.214 124.902 415.742 124.902Z" fill="#101E37"/>
<rect x="447.5" y="98" width="48" height="44" rx="8" fill="white"/>
<path d="M467.07 126.072C466.77 126.072 466.53 125.982 466.35 125.802C466.17 125.61 466.08 125.37 466.08 125.082C466.08 124.794 466.17 124.56 466.35 124.38C466.53 124.188 466.77 124.092 467.07 124.092C467.37 124.092 467.604 124.188 467.772 124.38C467.952 124.56 468.042 124.794 468.042 125.082C468.042 125.37 467.952 125.61 467.772 125.802C467.604 125.982 467.37 126.072 467.07 126.072ZM471.166 126.072C470.866 126.072 470.626 125.982 470.446 125.802C470.266 125.61 470.176 125.37 470.176 125.082C470.176 124.794 470.266 124.56 470.446 124.38C470.626 124.188 470.866 124.092 471.166 124.092C471.466 124.092 471.7 124.188 471.868 124.38C472.048 124.56 472.138 124.794 472.138 125.082C472.138 125.37 472.048 125.61 471.868 125.802C471.7 125.982 471.466 126.072 471.166 126.072ZM475.261 126.072C474.961 126.072 474.721 125.982 474.541 125.802C474.361 125.61 474.271 125.37 474.271 125.082C474.271 124.794 474.361 124.56 474.541 124.38C474.721 124.188 474.961 124.092 475.261 124.092C475.561 124.092 475.795 124.188 475.963 124.38C476.143 124.56 476.233 124.794 476.233 125.082C476.233 125.37 476.143 125.61 475.963 125.802C475.795 125.982 475.561 126.072 475.261 126.072Z" fill="#101E37"/>
<rect x="502.5" y="97" width="50" height="46" rx="9" fill="white"/>
<rect x="502.5" y="97" width="50" height="46" rx="9" stroke="#E6EBF0" stroke-width="2"/>
<path d="M519.29 126C519.074 126 518.906 125.946 518.786 125.838C518.666 125.718 518.606 125.556 518.606 125.352C518.606 125.148 518.666 124.998 518.786 124.902C518.906 124.794 519.074 124.74 519.29 124.74H521.63V114.534H522.404L519.794 116.262C519.638 116.346 519.488 116.382 519.344 116.37C519.212 116.358 519.098 116.31 519.002 116.226C518.918 116.13 518.858 116.022 518.822 115.902C518.786 115.77 518.792 115.638 518.84 115.506C518.888 115.362 518.99 115.242 519.146 115.146L521.63 113.508C521.786 113.412 521.936 113.334 522.08 113.274C522.224 113.214 522.368 113.184 522.512 113.184C522.68 113.184 522.818 113.238 522.926 113.346C523.046 113.442 523.106 113.598 523.106 113.814V124.74H525.266C525.482 124.74 525.65 124.794 525.77 124.902C525.89 124.998 525.95 125.148 525.95 125.352C525.95 125.568 525.89 125.73 525.77 125.838C525.65 125.946 525.482 126 525.266 126H519.29ZM532.693 126.162C531.241 126.162 530.137 125.604 529.381 124.488C528.625 123.372 528.247 121.758 528.247 119.646C528.247 118.23 528.415 117.042 528.751 116.082C529.087 115.11 529.585 114.378 530.245 113.886C530.917 113.394 531.733 113.148 532.693 113.148C534.157 113.148 535.261 113.7 536.005 114.804C536.761 115.896 537.139 117.504 537.139 119.628C537.139 121.044 536.971 122.238 536.635 123.21C536.299 124.182 535.801 124.92 535.141 125.424C534.481 125.916 533.665 126.162 532.693 126.162ZM532.693 124.884C533.701 124.884 534.445 124.458 534.925 123.606C535.417 122.742 535.663 121.416 535.663 119.628C535.663 117.828 535.417 116.514 534.925 115.686C534.445 114.846 533.701 114.426 532.693 114.426C531.697 114.426 530.953 114.846 530.461 115.686C529.969 116.526 529.723 117.84 529.723 119.628C529.723 121.416 529.969 122.742 530.461 123.606C530.953 124.458 531.697 124.884 532.693 124.884Z" fill="#101E37"/>
<rect x="558.5" y="97" width="122" height="46" rx="9" fill="white"/>
<rect x="558.5" y="97" width="122" height="46" rx="9" stroke="#E6EBF0" stroke-width="2"/>
<path d="M577.17 126.162C576.606 126.162 576.054 126.114 575.514 126.018C574.974 125.922 574.47 125.784 574.002 125.604C573.546 125.424 573.132 125.196 572.76 124.92C572.616 124.812 572.514 124.692 572.454 124.56C572.406 124.416 572.394 124.278 572.418 124.146C572.454 124.002 572.514 123.882 572.598 123.786C572.694 123.69 572.808 123.636 572.94 123.624C573.072 123.612 573.216 123.654 573.372 123.75C573.912 124.134 574.488 124.416 575.1 124.596C575.712 124.764 576.402 124.848 577.17 124.848C578.25 124.848 579.048 124.65 579.564 124.254C580.092 123.846 580.356 123.312 580.356 122.652C580.356 122.112 580.164 121.692 579.78 121.392C579.408 121.08 578.778 120.834 577.89 120.654L576.018 120.276C574.89 120.036 574.044 119.646 573.48 119.106C572.928 118.554 572.652 117.822 572.652 116.91C572.652 116.346 572.766 115.836 572.994 115.38C573.222 114.912 573.54 114.516 573.948 114.192C574.356 113.856 574.842 113.598 575.406 113.418C575.97 113.238 576.594 113.148 577.278 113.148C578.034 113.148 578.736 113.256 579.384 113.472C580.044 113.676 580.638 113.988 581.166 114.408C581.298 114.516 581.388 114.642 581.436 114.786C581.484 114.918 581.49 115.05 581.454 115.182C581.418 115.302 581.352 115.404 581.256 115.488C581.172 115.572 581.058 115.62 580.914 115.632C580.782 115.644 580.632 115.596 580.464 115.488C579.984 115.128 579.486 114.87 578.97 114.714C578.454 114.546 577.884 114.462 577.26 114.462C576.624 114.462 576.072 114.558 575.604 114.75C575.148 114.942 574.788 115.224 574.524 115.596C574.272 115.956 574.146 116.376 574.146 116.856C574.146 117.432 574.32 117.888 574.668 118.224C575.028 118.56 575.61 118.806 576.414 118.962L578.286 119.358C579.498 119.61 580.392 119.994 580.968 120.51C581.556 121.014 581.85 121.704 581.85 122.58C581.85 123.108 581.742 123.594 581.526 124.038C581.31 124.482 580.998 124.866 580.59 125.19C580.182 125.502 579.69 125.742 579.114 125.91C578.538 126.078 577.89 126.162 577.17 126.162ZM584.662 126.09C584.422 126.09 584.242 126.024 584.122 125.892C584.002 125.748 583.942 125.55 583.942 125.298V117.936C583.942 117.684 584.002 117.492 584.122 117.36C584.242 117.228 584.422 117.162 584.662 117.162C584.89 117.162 585.07 117.228 585.202 117.36C585.334 117.492 585.4 117.684 585.4 117.936V125.298C585.4 125.55 585.334 125.748 585.202 125.892C585.082 126.024 584.902 126.09 584.662 126.09ZM584.662 115.146C584.362 115.146 584.128 115.068 583.96 114.912C583.792 114.744 583.708 114.522 583.708 114.246C583.708 113.958 583.792 113.742 583.96 113.598C584.128 113.442 584.362 113.364 584.662 113.364C584.974 113.364 585.208 113.442 585.364 113.598C585.532 113.742 585.616 113.958 585.616 114.246C585.616 114.522 585.532 114.744 585.364 114.912C585.208 115.068 584.974 115.146 584.662 115.146ZM591.996 129.402C591.36 129.402 590.736 129.324 590.124 129.168C589.524 129.024 588.978 128.79 588.486 128.466C588.342 128.382 588.246 128.28 588.198 128.16C588.162 128.04 588.156 127.92 588.18 127.8C588.204 127.692 588.258 127.59 588.342 127.494C588.426 127.41 588.522 127.356 588.63 127.332C588.75 127.308 588.87 127.326 588.99 127.386C589.518 127.71 590.022 127.932 590.502 128.052C590.982 128.172 591.456 128.232 591.924 128.232C592.776 128.232 593.418 128.004 593.85 127.548C594.294 127.092 594.516 126.432 594.516 125.568V123.534H594.696C594.516 124.23 594.132 124.782 593.544 125.19C592.968 125.598 592.29 125.802 591.51 125.802C590.706 125.802 590.01 125.622 589.422 125.262C588.834 124.89 588.378 124.374 588.054 123.714C587.742 123.054 587.586 122.292 587.586 121.428C587.586 120.78 587.676 120.192 587.856 119.664C588.036 119.124 588.294 118.668 588.63 118.296C588.978 117.912 589.392 117.618 589.872 117.414C590.364 117.198 590.91 117.09 591.51 117.09C592.302 117.09 592.986 117.294 593.562 117.702C594.138 118.098 594.51 118.638 594.678 119.322L594.498 119.538V117.864C594.498 117.624 594.558 117.444 594.678 117.324C594.81 117.192 594.99 117.126 595.218 117.126C595.458 117.126 595.638 117.192 595.758 117.324C595.878 117.444 595.938 117.624 595.938 117.864V125.37C595.938 126.702 595.602 127.704 594.93 128.376C594.27 129.06 593.292 129.402 591.996 129.402ZM591.78 124.614C592.344 124.614 592.83 124.488 593.238 124.236C593.646 123.972 593.958 123.6 594.174 123.12C594.402 122.64 594.516 122.076 594.516 121.428C594.516 120.456 594.27 119.688 593.778 119.124C593.286 118.548 592.62 118.26 591.78 118.26C591.228 118.26 590.748 118.392 590.34 118.656C589.932 118.908 589.614 119.274 589.386 119.754C589.17 120.222 589.062 120.78 589.062 121.428C589.062 122.4 589.308 123.174 589.8 123.75C590.292 124.326 590.952 124.614 591.78 124.614ZM601.769 126.162C601.061 126.162 600.473 126.036 600.005 125.784C599.549 125.52 599.201 125.13 598.961 124.614C598.733 124.098 598.619 123.456 598.619 122.688V117.864C598.619 117.612 598.679 117.426 598.799 117.306C598.931 117.186 599.111 117.126 599.339 117.126C599.579 117.126 599.759 117.186 599.879 117.306C600.011 117.426 600.077 117.612 600.077 117.864V122.67C600.077 123.438 600.233 124.014 600.545 124.398C600.869 124.77 601.373 124.956 602.057 124.956C602.801 124.956 603.407 124.704 603.875 124.2C604.343 123.696 604.577 123.036 604.577 122.22V117.864C604.577 117.612 604.637 117.426 604.757 117.306C604.889 117.186 605.075 117.126 605.315 117.126C605.543 117.126 605.717 117.186 605.837 117.306C605.969 117.426 606.035 117.612 606.035 117.864V125.37C606.035 125.874 605.801 126.126 605.333 126.126C605.105 126.126 604.925 126.06 604.793 125.928C604.673 125.796 604.613 125.61 604.613 125.37V123.732L604.847 123.984C604.607 124.692 604.211 125.232 603.659 125.604C603.119 125.976 602.489 126.162 601.769 126.162ZM609.483 126.09C609.243 126.09 609.063 126.024 608.943 125.892C608.823 125.748 608.763 125.55 608.763 125.298V117.936C608.763 117.684 608.823 117.492 608.943 117.36C609.063 117.228 609.243 117.162 609.483 117.162C609.711 117.162 609.891 117.228 610.023 117.36C610.155 117.492 610.221 117.684 610.221 117.936V125.298C610.221 125.55 610.155 125.748 610.023 125.892C609.903 126.024 609.723 126.09 609.483 126.09ZM609.483 115.146C609.183 115.146 608.949 115.068 608.781 114.912C608.613 114.744 608.529 114.522 608.529 114.246C608.529 113.958 608.613 113.742 608.781 113.598C608.949 113.442 609.183 113.364 609.483 113.364C609.795 113.364 610.029 113.442 610.185 113.598C610.353 113.742 610.437 113.958 610.437 114.246C610.437 114.522 610.353 114.744 610.185 114.912C610.029 115.068 609.795 115.146 609.483 115.146ZM616.888 126.162C615.964 126.162 615.166 125.982 614.494 125.622C613.834 125.25 613.318 124.728 612.946 124.056C612.586 123.384 612.406 122.58 612.406 121.644C612.406 120.732 612.586 119.94 612.946 119.268C613.306 118.584 613.798 118.05 614.422 117.666C615.058 117.282 615.79 117.09 616.618 117.09C617.206 117.09 617.734 117.192 618.202 117.396C618.67 117.588 619.066 117.87 619.39 118.242C619.726 118.614 619.978 119.064 620.146 119.592C620.326 120.12 620.416 120.714 620.416 121.374C620.416 121.566 620.362 121.71 620.254 121.806C620.146 121.89 619.99 121.932 619.786 121.932H613.522V120.978H619.444L619.156 121.212C619.156 120.564 619.06 120.018 618.868 119.574C618.676 119.118 618.394 118.77 618.022 118.53C617.662 118.29 617.206 118.17 616.654 118.17C616.042 118.17 615.52 118.314 615.088 118.602C614.668 118.878 614.35 119.268 614.134 119.772C613.918 120.264 613.81 120.84 613.81 121.5V121.608C613.81 122.712 614.074 123.552 614.602 124.128C615.142 124.704 615.904 124.992 616.888 124.992C617.296 124.992 617.698 124.938 618.094 124.83C618.502 124.722 618.898 124.542 619.282 124.29C619.45 124.182 619.6 124.134 619.732 124.146C619.876 124.146 619.99 124.188 620.074 124.272C620.158 124.344 620.212 124.44 620.236 124.56C620.272 124.668 620.26 124.788 620.2 124.92C620.152 125.052 620.05 125.166 619.894 125.262C619.498 125.55 619.03 125.772 618.49 125.928C617.95 126.084 617.416 126.162 616.888 126.162ZM623.246 126.126C623.006 126.126 622.826 126.06 622.706 125.928C622.586 125.796 622.526 125.61 622.526 125.37V117.864C622.526 117.624 622.586 117.444 622.706 117.324C622.826 117.192 623 117.126 623.228 117.126C623.456 117.126 623.63 117.192 623.75 117.324C623.882 117.444 623.948 117.624 623.948 117.864V119.412L623.75 119.196C624.002 118.5 624.41 117.978 624.974 117.63C625.55 117.27 626.21 117.09 626.954 117.09C627.65 117.09 628.226 117.216 628.682 117.468C629.15 117.72 629.498 118.104 629.726 118.62C629.954 119.124 630.068 119.766 630.068 120.546V125.37C630.068 125.61 630.002 125.796 629.87 125.928C629.75 126.06 629.576 126.126 629.348 126.126C629.108 126.126 628.922 126.06 628.79 125.928C628.67 125.796 628.61 125.61 628.61 125.37V120.636C628.61 119.82 628.448 119.226 628.124 118.854C627.812 118.47 627.308 118.278 626.612 118.278C625.808 118.278 625.166 118.53 624.686 119.034C624.218 119.526 623.984 120.186 623.984 121.014V125.37C623.984 125.874 623.738 126.126 623.246 126.126ZM636.267 126.162C635.583 126.162 635.007 126.042 634.539 125.802C634.083 125.55 633.741 125.19 633.513 124.722C633.285 124.242 633.171 123.66 633.171 122.976V118.386H631.965C631.761 118.386 631.605 118.338 631.497 118.242C631.389 118.134 631.335 117.99 631.335 117.81C631.335 117.63 631.389 117.492 631.497 117.396C631.605 117.3 631.761 117.252 631.965 117.252H633.171V115.182C633.171 114.942 633.237 114.762 633.369 114.642C633.501 114.51 633.681 114.444 633.909 114.444C634.137 114.444 634.311 114.51 634.431 114.642C634.563 114.762 634.629 114.942 634.629 115.182V117.252H636.897C637.101 117.252 637.257 117.3 637.365 117.396C637.473 117.492 637.527 117.63 637.527 117.81C637.527 117.99 637.473 118.134 637.365 118.242C637.257 118.338 637.101 118.386 636.897 118.386H634.629V122.832C634.629 123.516 634.773 124.038 635.061 124.398C635.349 124.746 635.817 124.92 636.465 124.92C636.693 124.92 636.885 124.896 637.041 124.848C637.209 124.8 637.347 124.776 637.455 124.776C637.563 124.764 637.653 124.8 637.725 124.884C637.797 124.968 637.833 125.112 637.833 125.316C637.833 125.46 637.803 125.592 637.743 125.712C637.695 125.832 637.605 125.916 637.473 125.964C637.329 126.012 637.137 126.054 636.897 126.09C636.669 126.138 636.459 126.162 636.267 126.162ZM642.904 126.162C641.98 126.162 641.182 125.982 640.51 125.622C639.85 125.25 639.334 124.728 638.962 124.056C638.602 123.384 638.422 122.58 638.422 121.644C638.422 120.732 638.602 119.94 638.962 119.268C639.322 118.584 639.814 118.05 640.438 117.666C641.074 117.282 641.806 117.09 642.634 117.09C643.222 117.09 643.75 117.192 644.218 117.396C644.686 117.588 645.082 117.87 645.406 118.242C645.742 118.614 645.994 119.064 646.162 119.592C646.342 120.12 646.432 120.714 646.432 121.374C646.432 121.566 646.378 121.71 646.27 121.806C646.162 121.89 646.006 121.932 645.802 121.932H639.538V120.978H645.46L645.172 121.212C645.172 120.564 645.076 120.018 644.884 119.574C644.692 119.118 644.41 118.77 644.038 118.53C643.678 118.29 643.222 118.17 642.67 118.17C642.058 118.17 641.536 118.314 641.104 118.602C640.684 118.878 640.366 119.268 640.15 119.772C639.934 120.264 639.826 120.84 639.826 121.5V121.608C639.826 122.712 640.09 123.552 640.618 124.128C641.158 124.704 641.92 124.992 642.904 124.992C643.312 124.992 643.714 124.938 644.11 124.83C644.518 124.722 644.914 124.542 645.298 124.29C645.466 124.182 645.616 124.134 645.748 124.146C645.892 124.146 646.006 124.188 646.09 124.272C646.174 124.344 646.228 124.44 646.252 124.56C646.288 124.668 646.276 124.788 646.216 124.92C646.168 125.052 646.066 125.166 645.91 125.262C645.514 125.55 645.046 125.772 644.506 125.928C643.966 126.084 643.432 126.162 642.904 126.162Z" fill="#101E37"/>
<path d="M660.5 114.711C660.11 115.101 660.11 115.731 660.5 116.121L664.38 120.001L660.5 123.881C660.11 124.271 660.11 124.901 660.5 125.291C660.89 125.681 661.52 125.681 661.91 125.291L666.5 120.701C666.89 120.311 666.89 119.681 666.5 119.291L661.91 114.701C661.53 114.321 660.89 114.321 660.5 114.711Z" fill="#101E37"/>
</svg>
