<svg width="728" height="238" viewBox="0 0 728 238" fill="none" xmlns="http://www.w3.org/2000/svg">
<g clip-path="url(#clip0_3778_2359)">
<rect width="728" height="238" rx="8" fill="#F3F6F9"/>
<rect x="47" y="-198" width="634" height="492" rx="9" stroke="#B8C1CC" stroke-width="2"/>
<rect width="632" height="326" transform="translate(48 -66.1558)" fill="white"/>
<rect x="93.2893" y="-33.2905" width="171.32" height="85.4576" rx="6.05677" fill="white"/>
<rect x="93.2893" y="-33.2905" width="171.32" height="85.4576" rx="6.05677" stroke="#E6EBF0" stroke-width="1.73051"/>
<rect x="102.807" y="-23.7727" width="31.8119" height="31.8119" rx="3.97648" fill="#D9E2F2"/>
<rect x="102.807" y="18.4224" width="68.3458" height="10.383" rx="4" fill="#F3F6F9"/>
<rect x="102.807" y="32.2665" width="140.171" height="10.383" rx="4" fill="#F3F6F9"/>
<rect x="278.34" y="-33.2905" width="171.32" height="85.4576" rx="6.05677" fill="white"/>
<rect x="278.34" y="-33.2905" width="171.32" height="85.4576" rx="6.05677" stroke="#E6EBF0" stroke-width="1.73051"/>
<rect x="287.858" y="-23.7727" width="31.8119" height="31.8119" rx="3.97648" fill="#D9E2F2"/>
<rect x="287.858" y="18.4224" width="68.3458" height="10.383" rx="4" fill="#F3F6F9"/>
<rect x="287.858" y="32.2665" width="140.171" height="10.383" rx="4" fill="#F3F6F9"/>
<rect x="463.391" y="-33.2905" width="171.32" height="85.4576" rx="6.05677" fill="white"/>
<rect x="463.391" y="-33.2905" width="171.32" height="85.4576" rx="6.05677" stroke="#E6EBF0" stroke-width="1.73051"/>
<rect x="472.908" y="-23.7727" width="31.8119" height="31.8119" rx="3.97648" fill="#D9E2F2"/>
<rect x="472.908" y="18.4224" width="68.3458" height="10.383" rx="4" fill="#F3F6F9"/>
<rect x="472.908" y="32.2665" width="140.171" height="10.383" rx="4" fill="#F3F6F9"/>
<rect x="93.2893" y="65.8976" width="171.32" height="85.4576" rx="6.05677" fill="white"/>
<rect x="93.2893" y="65.8976" width="171.32" height="85.4576" rx="6.05677" stroke="#E6EBF0" stroke-width="1.73051"/>
<rect x="102.807" y="75.4154" width="31.8119" height="31.8119" rx="3.97648" fill="#D9E2F2"/>
<rect x="102.807" y="117.61" width="68.3458" height="10.383" rx="4" fill="#F3F6F9"/>
<rect x="102.807" y="131.455" width="140.171" height="10.383" rx="4" fill="#F3F6F9"/>
<rect x="278.34" y="65.8976" width="171.32" height="85.4576" rx="6.05677" fill="white"/>
<rect x="278.34" y="65.8976" width="171.32" height="85.4576" rx="6.05677" stroke="#E6EBF0" stroke-width="1.73051"/>
<rect x="287.858" y="75.4154" width="31.8119" height="31.8119" rx="3.97648" fill="#D9E2F2"/>
<rect x="287.858" y="117.61" width="68.3458" height="10.383" rx="4" fill="#F3F6F9"/>
<rect x="287.858" y="131.455" width="140.171" height="10.383" rx="4" fill="#F3F6F9"/>
<rect x="463.391" y="65.8976" width="171.32" height="85.4576" rx="6.05677" fill="white"/>
<rect x="463.391" y="65.8976" width="171.32" height="85.4576" rx="6.05677" stroke="#E6EBF0" stroke-width="1.73051"/>
<rect x="472.908" y="75.4154" width="31.8119" height="31.8119" rx="3.97648" fill="#D9E2F2"/>
<rect x="472.908" y="117.61" width="68.3458" height="10.383" rx="4" fill="#F3F6F9"/>
<rect x="472.908" y="131.455" width="140.171" height="10.383" rx="4" fill="#F3F6F9"/>
<rect x="169.904" y="175.608" width="69.1813" height="28.1813" rx="5.51374" fill="white"/>
<rect x="169.904" y="175.608" width="69.1813" height="28.1813" rx="5.51374" stroke="#E6EBF0" stroke-width="1.22527"/>
<path d="M182.157 186.454C181.918 186.215 181.532 186.215 181.293 186.454L178.481 189.266C178.242 189.505 178.242 189.891 178.481 190.13L181.293 192.942C181.532 193.181 181.918 193.181 182.157 192.942C182.396 192.703 182.396 192.317 182.157 192.078L179.78 189.695L182.157 187.318C182.396 187.079 182.389 186.687 182.157 186.454Z" fill="#101E37"/>
<path d="M190.915 193.276C190.797 193.276 190.702 193.25 190.628 193.198C190.562 193.14 190.522 193.066 190.507 192.978C190.499 192.882 190.522 192.776 190.573 192.658L193.606 185.755C193.672 185.608 193.749 185.505 193.837 185.446C193.933 185.38 194.036 185.347 194.146 185.347C194.256 185.347 194.355 185.38 194.444 185.446C194.539 185.505 194.616 185.608 194.675 185.755L197.719 192.658C197.778 192.776 197.8 192.882 197.785 192.978C197.778 193.073 197.741 193.147 197.675 193.198C197.609 193.25 197.517 193.276 197.399 193.276C197.267 193.276 197.16 193.242 197.079 193.176C196.998 193.103 196.932 193 196.881 192.868L196.065 190.982L196.506 191.213H191.764L192.216 190.982L191.411 192.868C191.345 193.007 191.275 193.11 191.202 193.176C191.128 193.242 191.032 193.276 190.915 193.276ZM194.135 186.483L192.359 190.662L192.095 190.453H196.175L195.932 190.662L194.157 186.483H194.135ZM199.434 193.276C199.287 193.276 199.176 193.235 199.103 193.154C199.029 193.073 198.993 192.959 198.993 192.812V188.214C198.993 188.067 199.029 187.957 199.103 187.883C199.176 187.802 199.283 187.762 199.423 187.762C199.562 187.762 199.669 187.802 199.742 187.883C199.823 187.957 199.864 188.067 199.864 188.214V189.162L199.742 189.03C199.897 188.604 200.147 188.284 200.492 188.071C200.845 187.85 201.25 187.74 201.705 187.74C202.132 187.74 202.485 187.817 202.764 187.971C203.051 188.126 203.264 188.361 203.404 188.677C203.543 188.986 203.613 189.379 203.613 189.857V192.812C203.613 192.959 203.573 193.073 203.492 193.154C203.418 193.235 203.312 193.276 203.172 193.276C203.025 193.276 202.911 193.235 202.83 193.154C202.757 193.073 202.72 192.959 202.72 192.812V189.912C202.72 189.412 202.621 189.048 202.422 188.82C202.231 188.585 201.922 188.468 201.496 188.468C201.003 188.468 200.61 188.622 200.316 188.931C200.029 189.232 199.886 189.636 199.886 190.144V192.812C199.886 193.121 199.735 193.276 199.434 193.276ZM207.411 193.298C206.992 193.298 206.639 193.224 206.352 193.077C206.073 192.923 205.863 192.702 205.723 192.415C205.584 192.121 205.514 191.765 205.514 191.346V188.534H204.775C204.65 188.534 204.554 188.504 204.488 188.446C204.422 188.379 204.389 188.291 204.389 188.181C204.389 188.071 204.422 187.986 204.488 187.927C204.554 187.868 204.65 187.839 204.775 187.839H205.514V186.571C205.514 186.424 205.554 186.314 205.635 186.24C205.716 186.159 205.826 186.119 205.966 186.119C206.106 186.119 206.212 186.159 206.286 186.24C206.367 186.314 206.407 186.424 206.407 186.571V187.839H207.797C207.921 187.839 208.017 187.868 208.083 187.927C208.149 187.986 208.182 188.071 208.182 188.181C208.182 188.291 208.149 188.379 208.083 188.446C208.017 188.504 207.921 188.534 207.797 188.534H206.407V191.258C206.407 191.677 206.495 191.996 206.672 192.217C206.848 192.43 207.135 192.537 207.532 192.537C207.672 192.537 207.789 192.522 207.885 192.493C207.988 192.463 208.072 192.448 208.138 192.448C208.205 192.441 208.26 192.463 208.304 192.515C208.348 192.566 208.37 192.654 208.37 192.779C208.37 192.868 208.352 192.948 208.315 193.022C208.285 193.095 208.23 193.147 208.149 193.176C208.061 193.206 207.944 193.231 207.797 193.254C207.657 193.283 207.528 193.298 207.411 193.298ZM211.477 193.298C210.911 193.298 210.422 193.187 210.01 192.967C209.606 192.739 209.29 192.419 209.062 192.007C208.841 191.596 208.731 191.103 208.731 190.53C208.731 189.971 208.841 189.486 209.062 189.074C209.282 188.655 209.584 188.328 209.966 188.093C210.356 187.857 210.804 187.74 211.311 187.74C211.671 187.74 211.995 187.802 212.282 187.927C212.568 188.045 212.811 188.218 213.009 188.446C213.215 188.673 213.37 188.949 213.473 189.273C213.583 189.596 213.638 189.96 213.638 190.364C213.638 190.482 213.605 190.57 213.539 190.629C213.473 190.68 213.377 190.706 213.252 190.706H209.415V190.122H213.043L212.866 190.265C212.866 189.868 212.807 189.534 212.69 189.262C212.572 188.982 212.399 188.769 212.171 188.622C211.951 188.475 211.671 188.401 211.333 188.401C210.958 188.401 210.639 188.49 210.374 188.666C210.117 188.835 209.922 189.074 209.789 189.383C209.657 189.684 209.591 190.037 209.591 190.441V190.508C209.591 191.184 209.753 191.699 210.076 192.052C210.407 192.404 210.874 192.581 211.477 192.581C211.727 192.581 211.973 192.548 212.216 192.482C212.465 192.415 212.708 192.305 212.943 192.151C213.046 192.085 213.138 192.055 213.219 192.063C213.307 192.063 213.377 192.088 213.429 192.14C213.48 192.184 213.513 192.243 213.528 192.316C213.55 192.382 213.542 192.456 213.506 192.537C213.476 192.618 213.414 192.687 213.318 192.746C213.076 192.923 212.789 193.059 212.458 193.154C212.127 193.25 211.8 193.298 211.477 193.298ZM215.383 193.276C215.236 193.276 215.122 193.235 215.041 193.154C214.968 193.073 214.931 192.959 214.931 192.812V188.214C214.931 188.067 214.968 187.957 215.041 187.883C215.115 187.802 215.221 187.762 215.361 187.762C215.501 187.762 215.607 187.802 215.681 187.883C215.762 187.957 215.802 188.067 215.802 188.214V189.107H215.692C215.809 188.673 216.034 188.339 216.364 188.104C216.695 187.868 217.103 187.743 217.588 187.729C217.699 187.721 217.787 187.747 217.853 187.806C217.919 187.857 217.956 187.949 217.963 188.082C217.971 188.207 217.941 188.306 217.875 188.379C217.809 188.453 217.706 188.497 217.566 188.512L217.39 188.534C216.89 188.578 216.504 188.74 216.232 189.019C215.967 189.291 215.835 189.666 215.835 190.144V192.812C215.835 192.959 215.795 193.073 215.714 193.154C215.64 193.235 215.53 193.276 215.383 193.276ZM219.324 193.254C219.177 193.254 219.067 193.213 218.993 193.132C218.92 193.044 218.883 192.923 218.883 192.768V188.258C218.883 188.104 218.92 187.986 218.993 187.905C219.067 187.824 219.177 187.784 219.324 187.784C219.464 187.784 219.574 187.824 219.655 187.905C219.736 187.986 219.776 188.104 219.776 188.258V192.768C219.776 192.923 219.736 193.044 219.655 193.132C219.581 193.213 219.471 193.254 219.324 193.254ZM219.324 186.549C219.14 186.549 218.997 186.501 218.894 186.405C218.791 186.303 218.74 186.167 218.74 185.997C218.74 185.821 218.791 185.689 218.894 185.6C218.997 185.505 219.14 185.457 219.324 185.457C219.515 185.457 219.659 185.505 219.754 185.6C219.857 185.689 219.909 185.821 219.909 185.997C219.909 186.167 219.857 186.303 219.754 186.405C219.659 186.501 219.515 186.549 219.324 186.549ZM223.674 193.298C223.152 193.298 222.699 193.184 222.317 192.956C221.935 192.728 221.637 192.408 221.424 191.996C221.218 191.577 221.115 191.085 221.115 190.519C221.115 190.092 221.174 189.71 221.292 189.372C221.409 189.026 221.582 188.732 221.81 188.49C222.038 188.247 222.306 188.063 222.615 187.938C222.931 187.806 223.284 187.74 223.674 187.74C224.196 187.74 224.648 187.854 225.03 188.082C225.412 188.31 225.706 188.633 225.912 189.052C226.125 189.464 226.232 189.953 226.232 190.519C226.232 190.945 226.173 191.327 226.056 191.666C225.938 192.004 225.765 192.298 225.537 192.548C225.309 192.79 225.037 192.978 224.721 193.11C224.412 193.235 224.063 193.298 223.674 193.298ZM223.674 192.581C224.004 192.581 224.295 192.5 224.545 192.338C224.795 192.176 224.986 191.941 225.118 191.632C225.258 191.324 225.328 190.952 225.328 190.519C225.328 189.85 225.177 189.339 224.876 188.986C224.581 188.633 224.181 188.457 223.674 188.457C223.335 188.457 223.041 188.537 222.791 188.699C222.549 188.854 222.358 189.085 222.218 189.394C222.086 189.695 222.019 190.07 222.019 190.519C222.019 191.18 222.17 191.691 222.472 192.052C222.773 192.404 223.174 192.581 223.674 192.581ZM228.026 193.276C227.879 193.276 227.765 193.235 227.684 193.154C227.61 193.073 227.574 192.959 227.574 192.812V188.214C227.574 188.067 227.61 187.957 227.684 187.883C227.757 187.802 227.864 187.762 228.004 187.762C228.143 187.762 228.25 187.802 228.323 187.883C228.404 187.957 228.445 188.067 228.445 188.214V189.107H228.334C228.452 188.673 228.676 188.339 229.007 188.104C229.338 187.868 229.746 187.743 230.231 187.729C230.341 187.721 230.43 187.747 230.496 187.806C230.562 187.857 230.599 187.949 230.606 188.082C230.613 188.207 230.584 188.306 230.518 188.379C230.452 188.453 230.349 188.497 230.209 188.512L230.033 188.534C229.533 188.578 229.147 188.74 228.875 189.019C228.61 189.291 228.478 189.666 228.478 190.144V192.812C228.478 192.959 228.437 193.073 228.357 193.154C228.283 193.235 228.173 193.276 228.026 193.276Z" fill="#101E37"/>
<rect x="242.761" y="175.608" width="30.6319" height="28.1813" rx="5.51374" fill="white"/>
<rect x="242.761" y="175.608" width="30.6319" height="28.1813" rx="5.51374" stroke="#E6EBF0" stroke-width="1.22527"/>
<path d="M256.286 193.198C256.154 193.198 256.051 193.165 255.977 193.099C255.904 193.026 255.867 192.926 255.867 192.801C255.867 192.676 255.904 192.585 255.977 192.526C256.051 192.46 256.154 192.426 256.286 192.426H257.72V186.174H258.194L256.595 187.233C256.499 187.284 256.407 187.306 256.319 187.299C256.238 187.291 256.169 187.262 256.11 187.21C256.058 187.152 256.022 187.085 255.999 187.012C255.977 186.931 255.981 186.85 256.01 186.769C256.04 186.681 256.102 186.608 256.198 186.549L257.72 185.545C257.815 185.486 257.907 185.439 257.995 185.402C258.084 185.365 258.172 185.347 258.26 185.347C258.363 185.347 258.448 185.38 258.514 185.446C258.587 185.505 258.624 185.6 258.624 185.733V192.426H259.947C260.08 192.426 260.183 192.46 260.256 192.526C260.33 192.585 260.366 192.676 260.366 192.801C260.366 192.934 260.33 193.033 260.256 193.099C260.183 193.165 260.08 193.198 259.947 193.198H256.286Z" fill="#101E37"/>
<rect x="277.681" y="176.22" width="29.4066" height="26.956" rx="4.9011" fill="white"/>
<path d="M289.653 193.242C289.469 193.242 289.322 193.187 289.212 193.077C289.101 192.959 289.046 192.812 289.046 192.636C289.046 192.46 289.101 192.316 289.212 192.206C289.322 192.088 289.469 192.029 289.653 192.029C289.837 192.029 289.98 192.088 290.083 192.206C290.193 192.316 290.248 192.46 290.248 192.636C290.248 192.812 290.193 192.959 290.083 193.077C289.98 193.187 289.837 193.242 289.653 193.242ZM292.162 193.242C291.978 193.242 291.831 193.187 291.721 193.077C291.611 192.959 291.555 192.812 291.555 192.636C291.555 192.46 291.611 192.316 291.721 192.206C291.831 192.088 291.978 192.029 292.162 192.029C292.346 192.029 292.489 192.088 292.592 192.206C292.702 192.316 292.757 192.46 292.757 192.636C292.757 192.812 292.702 192.959 292.592 193.077C292.489 193.187 292.346 193.242 292.162 193.242ZM294.671 193.242C294.487 193.242 294.34 193.187 294.23 193.077C294.12 192.959 294.065 192.812 294.065 192.636C294.065 192.46 294.12 192.316 294.23 192.206C294.34 192.088 294.487 192.029 294.671 192.029C294.855 192.029 294.998 192.088 295.101 192.206C295.211 192.316 295.267 192.46 295.267 192.636C295.267 192.812 295.211 192.959 295.101 193.077C294.998 193.187 294.855 193.242 294.671 193.242Z" fill="#101E37"/>
<rect x="311.376" y="175.608" width="30.6319" height="28.1813" rx="5.51374" fill="white"/>
<rect x="311.376" y="175.608" width="30.6319" height="28.1813" rx="5.51374" stroke="#E6EBF0" stroke-width="1.22527"/>
<path d="M327.802 193.276C327.662 193.276 327.552 193.235 327.471 193.154C327.39 193.073 327.35 192.959 327.35 192.812V191.533H324.185C324.038 191.533 323.92 191.5 323.832 191.434C323.751 191.36 323.711 191.258 323.711 191.125C323.711 191.044 323.729 190.963 323.766 190.883C323.802 190.794 323.869 190.684 323.964 190.552L327.328 185.656C327.394 185.553 327.467 185.475 327.548 185.424C327.629 185.373 327.725 185.347 327.835 185.347C327.952 185.347 328.052 185.384 328.133 185.457C328.221 185.531 328.265 185.648 328.265 185.81V190.761H329.07C329.21 190.761 329.316 190.794 329.39 190.861C329.463 190.927 329.5 191.022 329.5 191.147C329.5 191.272 329.463 191.368 329.39 191.434C329.316 191.5 329.21 191.533 329.07 191.533H328.265V192.812C328.265 192.959 328.224 193.073 328.144 193.154C328.063 193.235 327.949 193.276 327.802 193.276ZM327.35 190.761V186.483H327.614L324.527 191.004V190.761H327.35Z" fill="#101E37"/>
<rect x="345.684" y="175.608" width="30.6319" height="28.1813" rx="5.51374" fill="#274986"/>
<rect x="345.684" y="175.608" width="30.6319" height="28.1813" rx="5.51374" stroke="#E6EBF0" stroke-width="1.22527"/>
<path d="M360.974 193.298C360.555 193.298 360.136 193.235 359.716 193.11C359.305 192.985 358.93 192.79 358.592 192.526C358.503 192.467 358.445 192.397 358.415 192.316C358.386 192.235 358.382 192.154 358.404 192.074C358.426 191.993 358.467 191.927 358.526 191.875C358.584 191.816 358.654 191.783 358.735 191.776C358.823 191.768 358.915 191.798 359.011 191.864C359.312 192.077 359.625 192.235 359.948 192.338C360.272 192.441 360.61 192.493 360.963 192.493C361.323 192.493 361.632 192.426 361.889 192.294C362.154 192.154 362.352 191.963 362.484 191.721C362.624 191.471 362.694 191.18 362.694 190.85C362.694 190.342 362.547 189.927 362.253 189.603C361.959 189.28 361.554 189.118 361.04 189.118C360.724 189.118 360.433 189.177 360.169 189.295C359.904 189.412 359.661 189.6 359.441 189.857C359.389 189.916 359.327 189.967 359.253 190.011C359.187 190.048 359.11 190.067 359.022 190.067C358.897 190.067 358.798 190.033 358.724 189.967C358.658 189.894 358.625 189.798 358.625 189.681V185.843C358.625 185.703 358.662 185.6 358.735 185.534C358.809 185.461 358.911 185.424 359.044 185.424H362.793C362.933 185.424 363.036 185.457 363.102 185.523C363.175 185.589 363.212 185.685 363.212 185.81C363.212 185.935 363.175 186.031 363.102 186.097C363.036 186.163 362.933 186.196 362.793 186.196H359.518V189.295H359.275C359.467 188.986 359.731 188.751 360.069 188.589C360.408 188.42 360.786 188.335 361.205 188.335C361.698 188.335 362.12 188.438 362.473 188.644C362.834 188.85 363.109 189.14 363.3 189.515C363.499 189.883 363.598 190.313 363.598 190.805C363.598 191.291 363.492 191.721 363.278 192.096C363.065 192.471 362.764 192.765 362.374 192.978C361.984 193.191 361.518 193.298 360.974 193.298Z" fill="white"/>
<rect x="379.992" y="175.608" width="30.6319" height="28.1813" rx="5.51374" fill="white"/>
<rect x="379.992" y="175.608" width="30.6319" height="28.1813" rx="5.51374" stroke="#E6EBF0" stroke-width="1.22527"/>
<path d="M395.381 193.298C394.77 193.298 394.248 193.151 393.815 192.857C393.388 192.555 393.065 192.121 392.844 191.555C392.624 190.989 392.513 190.305 392.513 189.504C392.513 188.828 392.583 188.232 392.723 187.718C392.863 187.203 393.068 186.769 393.34 186.416C393.613 186.056 393.943 185.784 394.333 185.6C394.723 185.417 395.164 185.325 395.656 185.325C395.994 185.325 396.34 185.391 396.693 185.523C397.053 185.656 397.369 185.843 397.641 186.086C397.722 186.144 397.77 186.218 397.785 186.306C397.807 186.387 397.807 186.468 397.785 186.549C397.763 186.622 397.722 186.685 397.663 186.736C397.612 186.788 397.546 186.817 397.465 186.824C397.384 186.824 397.299 186.791 397.211 186.725C396.961 186.512 396.704 186.361 396.439 186.273C396.175 186.178 395.906 186.13 395.634 186.13C395.156 186.13 394.748 186.247 394.41 186.483C394.079 186.718 393.826 187.074 393.649 187.552C393.48 188.023 393.396 188.615 393.396 189.328V190.353H393.296C393.34 189.934 393.462 189.574 393.66 189.273C393.866 188.964 394.127 188.729 394.443 188.567C394.759 188.405 395.116 188.324 395.513 188.324C395.969 188.324 396.373 188.427 396.726 188.633C397.079 188.839 397.354 189.129 397.553 189.504C397.751 189.872 397.851 190.294 397.851 190.772C397.851 191.258 397.748 191.691 397.542 192.074C397.336 192.456 397.046 192.757 396.671 192.978C396.296 193.191 395.866 193.298 395.381 193.298ZM395.325 192.526C395.649 192.526 395.936 192.456 396.186 192.316C396.436 192.169 396.63 191.967 396.77 191.71C396.91 191.445 396.98 191.144 396.98 190.805C396.98 190.467 396.91 190.169 396.77 189.912C396.63 189.655 396.436 189.453 396.186 189.306C395.936 189.159 395.649 189.085 395.325 189.085C395.002 189.085 394.715 189.159 394.465 189.306C394.215 189.453 394.021 189.655 393.881 189.912C393.741 190.169 393.671 190.467 393.671 190.805C393.671 191.144 393.741 191.445 393.881 191.71C394.021 191.967 394.215 192.169 394.465 192.316C394.715 192.456 395.002 192.526 395.325 192.526Z" fill="#101E37"/>
<rect x="414.912" y="176.22" width="29.4066" height="26.956" rx="4.9011" fill="white"/>
<path d="M426.884 193.242C426.7 193.242 426.553 193.187 426.442 193.077C426.332 192.959 426.277 192.812 426.277 192.636C426.277 192.46 426.332 192.316 426.442 192.206C426.553 192.088 426.7 192.029 426.884 192.029C427.067 192.029 427.211 192.088 427.314 192.206C427.424 192.316 427.479 192.46 427.479 192.636C427.479 192.812 427.424 192.959 427.314 193.077C427.211 193.187 427.067 193.242 426.884 193.242ZM429.393 193.242C429.209 193.242 429.062 193.187 428.952 193.077C428.841 192.959 428.786 192.812 428.786 192.636C428.786 192.46 428.841 192.316 428.952 192.206C429.062 192.088 429.209 192.029 429.393 192.029C429.576 192.029 429.72 192.088 429.823 192.206C429.933 192.316 429.988 192.46 429.988 192.636C429.988 192.812 429.933 192.959 429.823 193.077C429.72 193.187 429.576 193.242 429.393 193.242ZM431.902 193.242C431.718 193.242 431.571 193.187 431.461 193.077C431.351 192.959 431.295 192.812 431.295 192.636C431.295 192.46 431.351 192.316 431.461 192.206C431.571 192.088 431.718 192.029 431.902 192.029C432.086 192.029 432.229 192.088 432.332 192.206C432.442 192.316 432.497 192.46 432.497 192.636C432.497 192.812 432.442 192.959 432.332 193.077C432.229 193.187 432.086 193.242 431.902 193.242Z" fill="#101E37"/>
<rect x="448.607" y="175.608" width="30.6319" height="28.1813" rx="5.51374" fill="white"/>
<rect x="448.607" y="175.608" width="30.6319" height="28.1813" rx="5.51374" stroke="#E6EBF0" stroke-width="1.22527"/>
<path d="M458.632 193.198C458.5 193.198 458.397 193.165 458.324 193.099C458.25 193.026 458.213 192.926 458.213 192.801C458.213 192.676 458.25 192.585 458.324 192.526C458.397 192.46 458.5 192.426 458.632 192.426H460.066V186.174H460.54L458.941 187.233C458.845 187.284 458.754 187.306 458.665 187.299C458.585 187.291 458.515 187.262 458.456 187.21C458.404 187.152 458.368 187.085 458.346 187.012C458.324 186.931 458.327 186.85 458.357 186.769C458.386 186.681 458.449 186.608 458.544 186.549L460.066 185.545C460.161 185.486 460.253 185.439 460.342 185.402C460.43 185.365 460.518 185.347 460.606 185.347C460.709 185.347 460.794 185.38 460.86 185.446C460.933 185.505 460.97 185.6 460.97 185.733V192.426H462.293C462.426 192.426 462.529 192.46 462.602 192.526C462.676 192.585 462.712 192.676 462.712 192.801C462.712 192.934 462.676 193.033 462.602 193.099C462.529 193.165 462.426 193.198 462.293 193.198H458.632ZM466.843 193.298C465.954 193.298 465.278 192.956 464.814 192.272C464.351 191.588 464.12 190.6 464.12 189.306C464.12 188.438 464.223 187.71 464.428 187.122C464.634 186.527 464.939 186.078 465.344 185.777C465.755 185.475 466.255 185.325 466.843 185.325C467.74 185.325 468.417 185.663 468.873 186.339C469.336 187.008 469.567 187.993 469.567 189.295C469.567 190.162 469.464 190.894 469.258 191.489C469.053 192.085 468.748 192.537 468.343 192.845C467.939 193.147 467.439 193.298 466.843 193.298ZM466.843 192.515C467.461 192.515 467.917 192.254 468.211 191.732C468.512 191.202 468.663 190.39 468.663 189.295C468.663 188.192 468.512 187.387 468.211 186.88C467.917 186.365 467.461 186.108 466.843 186.108C466.233 186.108 465.777 186.365 465.476 186.88C465.175 187.394 465.024 188.199 465.024 189.295C465.024 190.39 465.175 191.202 465.476 191.732C465.777 192.254 466.233 192.515 466.843 192.515Z" fill="#101E37"/>
<rect x="482.915" y="175.608" width="75.1813" height="28.1813" rx="5.51374" fill="white"/>
<rect x="482.915" y="175.608" width="75.1813" height="28.1813" rx="5.51374" stroke="#E6EBF0" stroke-width="1.22527"/>
<path d="M494.353 193.298C494.007 193.298 493.669 193.268 493.338 193.209C493.007 193.151 492.699 193.066 492.412 192.956C492.133 192.845 491.879 192.706 491.651 192.537C491.563 192.471 491.5 192.397 491.464 192.316C491.434 192.228 491.427 192.143 491.442 192.063C491.464 191.974 491.5 191.901 491.552 191.842C491.611 191.783 491.68 191.75 491.761 191.743C491.842 191.735 491.93 191.761 492.026 191.82C492.357 192.055 492.71 192.228 493.085 192.338C493.46 192.441 493.882 192.493 494.353 192.493C495.014 192.493 495.503 192.371 495.819 192.129C496.143 191.879 496.305 191.552 496.305 191.147C496.305 190.816 496.187 190.559 495.952 190.375C495.724 190.184 495.338 190.033 494.794 189.923L493.647 189.692C492.956 189.545 492.438 189.306 492.092 188.975C491.754 188.637 491.585 188.188 491.585 187.629C491.585 187.284 491.655 186.972 491.794 186.692C491.934 186.405 492.129 186.163 492.379 185.964C492.629 185.758 492.927 185.6 493.272 185.49C493.618 185.38 494 185.325 494.419 185.325C494.882 185.325 495.312 185.391 495.709 185.523C496.113 185.648 496.477 185.839 496.801 186.097C496.882 186.163 496.937 186.24 496.966 186.328C496.996 186.409 496.999 186.49 496.977 186.571C496.955 186.644 496.915 186.707 496.856 186.758C496.805 186.81 496.735 186.839 496.646 186.847C496.566 186.854 496.474 186.824 496.371 186.758C496.077 186.538 495.772 186.38 495.456 186.284C495.139 186.181 494.79 186.13 494.408 186.13C494.018 186.13 493.68 186.189 493.393 186.306C493.114 186.424 492.893 186.597 492.732 186.824C492.577 187.045 492.5 187.302 492.5 187.596C492.5 187.949 492.607 188.229 492.82 188.434C493.041 188.64 493.397 188.791 493.89 188.887L495.036 189.129C495.779 189.284 496.327 189.519 496.68 189.835C497.04 190.144 497.22 190.566 497.22 191.103C497.22 191.427 497.154 191.724 497.021 191.996C496.889 192.268 496.698 192.504 496.448 192.702C496.198 192.893 495.897 193.04 495.544 193.143C495.191 193.246 494.794 193.298 494.353 193.298ZM498.943 193.254C498.796 193.254 498.685 193.213 498.612 193.132C498.538 193.044 498.502 192.923 498.502 192.768V188.258C498.502 188.104 498.538 187.986 498.612 187.905C498.685 187.824 498.796 187.784 498.943 187.784C499.082 187.784 499.193 187.824 499.274 187.905C499.354 187.986 499.395 188.104 499.395 188.258V192.768C499.395 192.923 499.354 193.044 499.274 193.132C499.2 193.213 499.09 193.254 498.943 193.254ZM498.943 186.549C498.759 186.549 498.616 186.501 498.513 186.405C498.41 186.303 498.358 186.167 498.358 185.997C498.358 185.821 498.41 185.689 498.513 185.6C498.616 185.505 498.759 185.457 498.943 185.457C499.134 185.457 499.277 185.505 499.373 185.6C499.476 185.689 499.527 185.821 499.527 185.997C499.527 186.167 499.476 186.303 499.373 186.405C499.277 186.501 499.134 186.549 498.943 186.549ZM503.436 195.283C503.046 195.283 502.664 195.235 502.289 195.139C501.921 195.051 501.587 194.908 501.285 194.709C501.197 194.658 501.138 194.595 501.109 194.522C501.087 194.448 501.083 194.375 501.098 194.301C501.112 194.235 501.146 194.172 501.197 194.114C501.249 194.062 501.307 194.029 501.373 194.014C501.447 194 501.521 194.011 501.594 194.047C501.918 194.246 502.226 194.382 502.52 194.455C502.814 194.529 503.105 194.566 503.392 194.566C503.913 194.566 504.307 194.426 504.571 194.147C504.843 193.867 504.979 193.463 504.979 192.934V191.688H505.09C504.979 192.114 504.744 192.452 504.384 192.702C504.031 192.952 503.616 193.077 503.138 193.077C502.645 193.077 502.219 192.967 501.859 192.746C501.498 192.518 501.219 192.202 501.021 191.798C500.829 191.394 500.734 190.927 500.734 190.397C500.734 190 500.789 189.64 500.899 189.317C501.01 188.986 501.168 188.707 501.373 188.479C501.587 188.243 501.84 188.063 502.134 187.938C502.436 187.806 502.77 187.74 503.138 187.74C503.623 187.74 504.042 187.865 504.395 188.115C504.748 188.357 504.976 188.688 505.079 189.107L504.968 189.24V188.214C504.968 188.067 505.005 187.957 505.079 187.883C505.16 187.802 505.27 187.762 505.41 187.762C505.557 187.762 505.667 187.802 505.74 187.883C505.814 187.957 505.851 188.067 505.851 188.214V192.812C505.851 193.628 505.645 194.242 505.233 194.654C504.829 195.073 504.23 195.283 503.436 195.283ZM503.303 192.349C503.649 192.349 503.947 192.272 504.197 192.118C504.446 191.956 504.638 191.728 504.77 191.434C504.91 191.14 504.979 190.794 504.979 190.397C504.979 189.802 504.829 189.331 504.527 188.986C504.226 188.633 503.818 188.457 503.303 188.457C502.965 188.457 502.671 188.537 502.421 188.699C502.171 188.854 501.976 189.078 501.837 189.372C501.704 189.659 501.638 190 501.638 190.397C501.638 190.993 501.789 191.467 502.09 191.82C502.392 192.173 502.796 192.349 503.303 192.349ZM509.423 193.298C508.989 193.298 508.629 193.22 508.342 193.066C508.063 192.904 507.85 192.665 507.703 192.349C507.563 192.033 507.493 191.64 507.493 191.169V188.214C507.493 188.06 507.53 187.946 507.603 187.872C507.684 187.799 507.794 187.762 507.934 187.762C508.081 187.762 508.191 187.799 508.265 187.872C508.346 187.946 508.386 188.06 508.386 188.214V191.158C508.386 191.629 508.482 191.982 508.673 192.217C508.871 192.445 509.18 192.559 509.599 192.559C510.055 192.559 510.426 192.404 510.713 192.096C511 191.787 511.143 191.383 511.143 190.883V188.214C511.143 188.06 511.18 187.946 511.253 187.872C511.334 187.799 511.448 187.762 511.595 187.762C511.735 187.762 511.842 187.799 511.915 187.872C511.996 187.946 512.036 188.06 512.036 188.214V192.812C512.036 193.121 511.893 193.276 511.606 193.276C511.467 193.276 511.356 193.235 511.275 193.154C511.202 193.073 511.165 192.959 511.165 192.812V191.809L511.309 191.963C511.162 192.397 510.919 192.728 510.581 192.956C510.25 193.184 509.864 193.298 509.423 193.298ZM514.149 193.254C514.002 193.254 513.891 193.213 513.818 193.132C513.744 193.044 513.708 192.923 513.708 192.768V188.258C513.708 188.104 513.744 187.986 513.818 187.905C513.891 187.824 514.002 187.784 514.149 187.784C514.288 187.784 514.399 187.824 514.479 187.905C514.56 187.986 514.601 188.104 514.601 188.258V192.768C514.601 192.923 514.56 193.044 514.479 193.132C514.406 193.213 514.296 193.254 514.149 193.254ZM514.149 186.549C513.965 186.549 513.821 186.501 513.719 186.405C513.616 186.303 513.564 186.167 513.564 185.997C513.564 185.821 513.616 185.689 513.719 185.6C513.821 185.505 513.965 185.457 514.149 185.457C514.34 185.457 514.483 185.505 514.579 185.6C514.682 185.689 514.733 185.821 514.733 185.997C514.733 186.167 514.682 186.303 514.579 186.405C514.483 186.501 514.34 186.549 514.149 186.549ZM518.686 193.298C518.12 193.298 517.631 193.187 517.219 192.967C516.815 192.739 516.498 192.419 516.271 192.007C516.05 191.596 515.94 191.103 515.94 190.53C515.94 189.971 516.05 189.486 516.271 189.074C516.491 188.655 516.793 188.328 517.175 188.093C517.564 187.857 518.013 187.74 518.52 187.74C518.88 187.74 519.204 187.802 519.491 187.927C519.777 188.045 520.02 188.218 520.218 188.446C520.424 188.673 520.579 188.949 520.682 189.273C520.792 189.596 520.847 189.96 520.847 190.364C520.847 190.482 520.814 190.57 520.748 190.629C520.682 190.68 520.586 190.706 520.461 190.706H516.623V190.122H520.251L520.075 190.265C520.075 189.868 520.016 189.534 519.899 189.262C519.781 188.982 519.608 188.769 519.38 188.622C519.16 188.475 518.88 188.401 518.542 188.401C518.167 188.401 517.847 188.49 517.583 188.666C517.326 188.835 517.131 189.074 516.998 189.383C516.866 189.684 516.8 190.037 516.8 190.441V190.508C516.8 191.184 516.962 191.699 517.285 192.052C517.616 192.404 518.083 192.581 518.686 192.581C518.936 192.581 519.182 192.548 519.424 192.482C519.674 192.415 519.917 192.305 520.152 192.151C520.255 192.085 520.347 192.055 520.428 192.063C520.516 192.063 520.586 192.088 520.637 192.14C520.689 192.184 520.722 192.243 520.737 192.316C520.759 192.382 520.751 192.456 520.715 192.537C520.685 192.618 520.623 192.687 520.527 192.746C520.285 192.923 519.998 193.059 519.667 193.154C519.336 193.25 519.009 193.298 518.686 193.298ZM522.581 193.276C522.434 193.276 522.323 193.235 522.25 193.154C522.176 193.073 522.14 192.959 522.14 192.812V188.214C522.14 188.067 522.176 187.957 522.25 187.883C522.323 187.802 522.43 187.762 522.57 187.762C522.709 187.762 522.816 187.802 522.89 187.883C522.97 187.957 523.011 188.067 523.011 188.214V189.162L522.89 189.03C523.044 188.604 523.294 188.284 523.639 188.071C523.992 187.85 524.397 187.74 524.852 187.74C525.279 187.74 525.632 187.817 525.911 187.971C526.198 188.126 526.411 188.361 526.551 188.677C526.69 188.986 526.76 189.379 526.76 189.857V192.812C526.76 192.959 526.72 193.073 526.639 193.154C526.565 193.235 526.459 193.276 526.319 193.276C526.172 193.276 526.058 193.235 525.977 193.154C525.904 193.073 525.867 192.959 525.867 192.812V189.912C525.867 189.412 525.768 189.048 525.569 188.82C525.378 188.585 525.069 188.468 524.643 188.468C524.15 188.468 523.757 188.622 523.463 188.931C523.176 189.232 523.033 189.636 523.033 190.144V192.812C523.033 193.121 522.882 193.276 522.581 193.276ZM530.558 193.298C530.139 193.298 529.786 193.224 529.499 193.077C529.22 192.923 529.01 192.702 528.87 192.415C528.731 192.121 528.661 191.765 528.661 191.346V188.534H527.922C527.797 188.534 527.701 188.504 527.635 188.446C527.569 188.379 527.536 188.291 527.536 188.181C527.536 188.071 527.569 187.986 527.635 187.927C527.701 187.868 527.797 187.839 527.922 187.839H528.661V186.571C528.661 186.424 528.701 186.314 528.782 186.24C528.863 186.159 528.973 186.119 529.113 186.119C529.253 186.119 529.359 186.159 529.433 186.24C529.514 186.314 529.554 186.424 529.554 186.571V187.839H530.944C531.069 187.839 531.164 187.868 531.23 187.927C531.296 187.986 531.33 188.071 531.33 188.181C531.33 188.291 531.296 188.379 531.23 188.446C531.164 188.504 531.069 188.534 530.944 188.534H529.554V191.258C529.554 191.677 529.642 191.996 529.819 192.217C529.995 192.43 530.282 192.537 530.679 192.537C530.819 192.537 530.936 192.522 531.032 192.493C531.135 192.463 531.219 192.448 531.285 192.448C531.352 192.441 531.407 192.463 531.451 192.515C531.495 192.566 531.517 192.654 531.517 192.779C531.517 192.868 531.499 192.948 531.462 193.022C531.432 193.095 531.377 193.147 531.296 193.176C531.208 193.206 531.091 193.231 530.944 193.254C530.804 193.283 530.675 193.298 530.558 193.298ZM534.624 193.298C534.058 193.298 533.569 193.187 533.157 192.967C532.753 192.739 532.437 192.419 532.209 192.007C531.988 191.596 531.878 191.103 531.878 190.53C531.878 189.971 531.988 189.486 532.209 189.074C532.429 188.655 532.731 188.328 533.113 188.093C533.503 187.857 533.951 187.74 534.458 187.74C534.819 187.74 535.142 187.802 535.429 187.927C535.715 188.045 535.958 188.218 536.157 188.446C536.362 188.673 536.517 188.949 536.62 189.273C536.73 189.596 536.785 189.96 536.785 190.364C536.785 190.482 536.752 190.57 536.686 190.629C536.62 190.68 536.524 190.706 536.399 190.706H532.562V190.122H536.19L536.013 190.265C536.013 189.868 535.954 189.534 535.837 189.262C535.719 188.982 535.546 188.769 535.318 188.622C535.098 188.475 534.819 188.401 534.48 188.401C534.105 188.401 533.786 188.49 533.521 188.666C533.264 188.835 533.069 189.074 532.937 189.383C532.804 189.684 532.738 190.037 532.738 190.441V190.508C532.738 191.184 532.9 191.699 533.223 192.052C533.554 192.404 534.021 192.581 534.624 192.581C534.874 192.581 535.12 192.548 535.363 192.482C535.613 192.415 535.855 192.305 536.09 192.151C536.193 192.085 536.285 192.055 536.366 192.063C536.454 192.063 536.524 192.088 536.576 192.14C536.627 192.184 536.66 192.243 536.675 192.316C536.697 192.382 536.69 192.456 536.653 192.537C536.623 192.618 536.561 192.687 536.465 192.746C536.223 192.923 535.936 193.059 535.605 193.154C535.274 193.25 534.947 193.298 534.624 193.298Z" fill="#101E37"/>
<path d="M545.843 186.458C545.604 186.697 545.604 187.083 545.843 187.321L548.22 189.699L545.843 192.076C545.604 192.314 545.604 192.7 545.843 192.939C546.082 193.178 546.468 193.178 546.707 192.939L549.519 190.127C549.758 189.888 549.758 189.502 549.519 189.264L546.707 186.452C546.474 186.219 546.082 186.219 545.843 186.458Z" fill="#101E37"/>
</g>
<rect x="1" y="1" width="726" height="236" rx="7" stroke="#E6EBF0" stroke-width="2"/>
<defs>
<clipPath id="clip0_3778_2359">
<rect width="728" height="238" rx="8" fill="white"/>
</clipPath>
</defs>
</svg>
