<svg width="728" height="148" viewBox="0 0 728 148" fill="none" xmlns="http://www.w3.org/2000/svg">
<rect x="1" y="1" width="726" height="146" rx="7" fill="#F3F6F9"/>
<rect x="1" y="1" width="726" height="146" rx="7" stroke="#E6EBF0" stroke-width="2"/>
<rect x="107" y="51" width="50" height="46" rx="9" fill="#274986"/>
<rect x="107" y="51" width="50" height="46" rx="9" stroke="#E6EBF0" stroke-width="2"/>
<path d="M129.29 80C129.074 80 128.906 79.946 128.786 79.838C128.666 79.718 128.606 79.556 128.606 79.352C128.606 79.148 128.666 78.998 128.786 78.902C128.906 78.794 129.074 78.74 129.29 78.74H131.63V68.534H132.404L129.794 70.262C129.638 70.346 129.488 70.382 129.344 70.37C129.212 70.358 129.098 70.31 129.002 70.226C128.918 70.13 128.858 70.022 128.822 69.902C128.786 69.77 128.792 69.638 128.84 69.506C128.888 69.362 128.99 69.242 129.146 69.146L131.63 67.508C131.786 67.412 131.936 67.334 132.08 67.274C132.224 67.214 132.368 67.184 132.512 67.184C132.68 67.184 132.818 67.238 132.926 67.346C133.046 67.442 133.106 67.598 133.106 67.814V78.74H135.266C135.482 78.74 135.65 78.794 135.77 78.902C135.89 78.998 135.95 79.148 135.95 79.352C135.95 79.568 135.89 79.73 135.77 79.838C135.65 79.946 135.482 80 135.266 80H129.29Z" fill="white"/>
<rect x="163" y="51" width="50" height="46" rx="9" fill="white"/>
<rect x="163" y="51" width="50" height="46" rx="9" stroke="#E6EBF0" stroke-width="2"/>
<path d="M184.822 80C184.558 80 184.36 79.94 184.228 79.82C184.108 79.688 184.048 79.514 184.048 79.298C184.048 79.166 184.078 79.04 184.138 78.92C184.21 78.788 184.306 78.656 184.426 78.524L188.458 74.204C189.07 73.544 189.508 72.938 189.772 72.386C190.048 71.822 190.186 71.252 190.186 70.676C190.186 69.956 189.964 69.41 189.52 69.038C189.088 68.654 188.452 68.462 187.612 68.462C187.072 68.462 186.562 68.546 186.082 68.714C185.602 68.882 185.14 69.14 184.696 69.488C184.54 69.608 184.396 69.662 184.264 69.65C184.144 69.638 184.036 69.59 183.94 69.506C183.844 69.422 183.778 69.314 183.742 69.182C183.706 69.05 183.706 68.918 183.742 68.786C183.79 68.654 183.886 68.534 184.03 68.426C184.498 68.042 185.062 67.736 185.722 67.508C186.382 67.268 187.054 67.148 187.738 67.148C188.59 67.148 189.31 67.28 189.898 67.544C190.486 67.808 190.93 68.198 191.23 68.714C191.53 69.218 191.68 69.836 191.68 70.568C191.68 71.072 191.596 71.57 191.428 72.062C191.272 72.542 191.026 73.034 190.69 73.538C190.366 74.042 189.94 74.564 189.412 75.104L185.578 79.154V78.74H191.644C191.872 78.74 192.04 78.794 192.148 78.902C192.268 78.998 192.328 79.148 192.328 79.352C192.328 79.568 192.268 79.73 192.148 79.838C192.04 79.946 191.872 80 191.644 80H184.822Z" fill="#101E37"/>
<rect x="219" y="51" width="50" height="46" rx="9" fill="white"/>
<rect x="219" y="51" width="50" height="46" rx="9" stroke="#E6EBF0" stroke-width="2"/>
<path d="M243.756 80.162C243.06 80.162 242.358 80.06 241.65 79.856C240.954 79.652 240.348 79.352 239.832 78.956C239.676 78.848 239.574 78.728 239.526 78.596C239.478 78.452 239.466 78.32 239.49 78.2C239.526 78.068 239.592 77.96 239.688 77.876C239.784 77.78 239.898 77.726 240.03 77.714C240.174 77.702 240.33 77.75 240.498 77.858C241.026 78.206 241.554 78.458 242.082 78.614C242.61 78.77 243.156 78.848 243.72 78.848C244.332 78.848 244.848 78.758 245.268 78.578C245.688 78.398 246.006 78.134 246.222 77.786C246.438 77.426 246.546 76.988 246.546 76.472C246.546 75.728 246.3 75.164 245.808 74.78C245.316 74.396 244.602 74.204 243.666 74.204H242.388C242.16 74.204 241.986 74.15 241.866 74.042C241.746 73.922 241.686 73.76 241.686 73.556C241.686 73.364 241.746 73.214 241.866 73.106C241.986 72.986 242.16 72.926 242.388 72.926H243.54C244.092 72.926 244.56 72.83 244.944 72.638C245.34 72.446 245.646 72.176 245.862 71.828C246.078 71.468 246.186 71.036 246.186 70.532C246.186 69.86 245.97 69.35 245.538 69.002C245.106 68.642 244.482 68.462 243.666 68.462C243.126 68.462 242.616 68.54 242.136 68.696C241.656 68.852 241.182 69.116 240.714 69.488C240.57 69.596 240.426 69.65 240.282 69.65C240.15 69.638 240.036 69.596 239.94 69.524C239.856 69.44 239.79 69.332 239.742 69.2C239.706 69.068 239.712 68.936 239.76 68.804C239.808 68.66 239.91 68.528 240.066 68.408C240.546 68 241.11 67.688 241.758 67.472C242.406 67.256 243.072 67.148 243.756 67.148C244.572 67.148 245.268 67.28 245.844 67.544C246.432 67.796 246.882 68.168 247.194 68.66C247.506 69.14 247.662 69.722 247.662 70.406C247.662 70.922 247.56 71.396 247.356 71.828C247.164 72.248 246.888 72.608 246.528 72.908C246.18 73.208 245.754 73.424 245.25 73.556V73.358C246.126 73.502 246.804 73.862 247.284 74.438C247.776 75.002 248.022 75.716 248.022 76.58C248.022 77.312 247.848 77.948 247.5 78.488C247.164 79.016 246.678 79.43 246.042 79.73C245.406 80.018 244.644 80.162 243.756 80.162Z" fill="#101E37"/>
<rect x="275" y="51" width="50" height="46" rx="9" fill="white"/>
<rect x="275" y="51" width="50" height="46" rx="9" stroke="#E6EBF0" stroke-width="2"/>
<path d="M302.024 80.126C301.796 80.126 301.616 80.06 301.484 79.928C301.352 79.796 301.286 79.61 301.286 79.37V77.282H296.12C295.88 77.282 295.688 77.228 295.544 77.12C295.412 77 295.346 76.832 295.346 76.616C295.346 76.484 295.376 76.352 295.436 76.22C295.496 76.076 295.604 75.896 295.76 75.68L301.25 67.688C301.358 67.52 301.478 67.394 301.61 67.31C301.742 67.226 301.898 67.184 302.078 67.184C302.27 67.184 302.432 67.244 302.564 67.364C302.708 67.484 302.78 67.676 302.78 67.94V76.022H304.094C304.322 76.022 304.496 76.076 304.616 76.184C304.736 76.292 304.796 76.448 304.796 76.652C304.796 76.856 304.736 77.012 304.616 77.12C304.496 77.228 304.322 77.282 304.094 77.282H302.78V79.37C302.78 79.61 302.714 79.796 302.582 79.928C302.45 80.06 302.264 80.126 302.024 80.126ZM301.286 76.022V69.038H301.718L296.678 76.418V76.022H301.286Z" fill="#101E37"/>
<rect x="331" y="51" width="50" height="46" rx="9" fill="white"/>
<rect x="331" y="51" width="50" height="46" rx="9" stroke="#E6EBF0" stroke-width="2"/>
<path d="M356.17 80.162C355.486 80.162 354.802 80.06 354.118 79.856C353.446 79.652 352.834 79.334 352.282 78.902C352.138 78.806 352.042 78.692 351.994 78.56C351.946 78.428 351.94 78.296 351.976 78.164C352.012 78.032 352.078 77.924 352.174 77.84C352.27 77.744 352.384 77.69 352.516 77.678C352.66 77.666 352.81 77.714 352.966 77.822C353.458 78.17 353.968 78.428 354.496 78.596C355.024 78.764 355.576 78.848 356.152 78.848C356.74 78.848 357.244 78.74 357.664 78.524C358.096 78.296 358.42 77.984 358.636 77.588C358.864 77.18 358.978 76.706 358.978 76.166C358.978 75.338 358.738 74.66 358.258 74.132C357.778 73.604 357.118 73.34 356.278 73.34C355.762 73.34 355.288 73.436 354.856 73.628C354.424 73.82 354.028 74.126 353.668 74.546C353.584 74.642 353.482 74.726 353.362 74.798C353.254 74.858 353.128 74.888 352.984 74.888C352.78 74.888 352.618 74.834 352.498 74.726C352.39 74.606 352.336 74.45 352.336 74.258V67.994C352.336 67.766 352.396 67.598 352.516 67.49C352.636 67.37 352.804 67.31 353.02 67.31H359.14C359.368 67.31 359.536 67.364 359.644 67.472C359.764 67.58 359.824 67.736 359.824 67.94C359.824 68.144 359.764 68.3 359.644 68.408C359.536 68.516 359.368 68.57 359.14 68.57H353.794V73.628H353.398C353.71 73.124 354.142 72.74 354.694 72.476C355.246 72.2 355.864 72.062 356.548 72.062C357.352 72.062 358.042 72.23 358.618 72.566C359.206 72.902 359.656 73.376 359.968 73.988C360.292 74.588 360.454 75.29 360.454 76.094C360.454 76.886 360.28 77.588 359.932 78.2C359.584 78.812 359.092 79.292 358.456 79.64C357.82 79.988 357.058 80.162 356.17 80.162Z" fill="#101E37"/>
<rect x="388" y="52" width="48" height="44" rx="8" fill="white"/>
<path d="M407.57 80.072C407.27 80.072 407.03 79.982 406.85 79.802C406.67 79.61 406.58 79.37 406.58 79.082C406.58 78.794 406.67 78.56 406.85 78.38C407.03 78.188 407.27 78.092 407.57 78.092C407.87 78.092 408.104 78.188 408.272 78.38C408.452 78.56 408.542 78.794 408.542 79.082C408.542 79.37 408.452 79.61 408.272 79.802C408.104 79.982 407.87 80.072 407.57 80.072ZM411.666 80.072C411.366 80.072 411.126 79.982 410.946 79.802C410.766 79.61 410.676 79.37 410.676 79.082C410.676 78.794 410.766 78.56 410.946 78.38C411.126 78.188 411.366 78.092 411.666 78.092C411.966 78.092 412.2 78.188 412.368 78.38C412.548 78.56 412.638 78.794 412.638 79.082C412.638 79.37 412.548 79.61 412.368 79.802C412.2 79.982 411.966 80.072 411.666 80.072ZM415.761 80.072C415.461 80.072 415.221 79.982 415.041 79.802C414.861 79.61 414.771 79.37 414.771 79.082C414.771 78.794 414.861 78.56 415.041 78.38C415.221 78.188 415.461 78.092 415.761 78.092C416.061 78.092 416.295 78.188 416.463 78.38C416.643 78.56 416.733 78.794 416.733 79.082C416.733 79.37 416.643 79.61 416.463 79.802C416.295 79.982 416.061 80.072 415.761 80.072Z" fill="#101E37"/>
<rect x="443" y="51" width="50" height="46" rx="9" fill="white"/>
<rect x="443" y="51" width="50" height="46" rx="9" stroke="#E6EBF0" stroke-width="2"/>
<path d="M459.79 80C459.574 80 459.406 79.946 459.286 79.838C459.166 79.718 459.106 79.556 459.106 79.352C459.106 79.148 459.166 78.998 459.286 78.902C459.406 78.794 459.574 78.74 459.79 78.74H462.13V68.534H462.904L460.294 70.262C460.138 70.346 459.988 70.382 459.844 70.37C459.712 70.358 459.598 70.31 459.502 70.226C459.418 70.13 459.358 70.022 459.322 69.902C459.286 69.77 459.292 69.638 459.34 69.506C459.388 69.362 459.49 69.242 459.646 69.146L462.13 67.508C462.286 67.412 462.436 67.334 462.58 67.274C462.724 67.214 462.868 67.184 463.012 67.184C463.18 67.184 463.318 67.238 463.426 67.346C463.546 67.442 463.606 67.598 463.606 67.814V78.74H465.766C465.982 78.74 466.15 78.794 466.27 78.902C466.39 78.998 466.45 79.148 466.45 79.352C466.45 79.568 466.39 79.73 466.27 79.838C466.15 79.946 465.982 80 465.766 80H459.79ZM473.193 80.162C471.741 80.162 470.637 79.604 469.881 78.488C469.125 77.372 468.747 75.758 468.747 73.646C468.747 72.23 468.915 71.042 469.251 70.082C469.587 69.11 470.085 68.378 470.745 67.886C471.417 67.394 472.233 67.148 473.193 67.148C474.657 67.148 475.761 67.7 476.505 68.804C477.261 69.896 477.639 71.504 477.639 73.628C477.639 75.044 477.471 76.238 477.135 77.21C476.799 78.182 476.301 78.92 475.641 79.424C474.981 79.916 474.165 80.162 473.193 80.162ZM473.193 78.884C474.201 78.884 474.945 78.458 475.425 77.606C475.917 76.742 476.163 75.416 476.163 73.628C476.163 71.828 475.917 70.514 475.425 69.686C474.945 68.846 474.201 68.426 473.193 68.426C472.197 68.426 471.453 68.846 470.961 69.686C470.469 70.526 470.223 71.84 470.223 73.628C470.223 75.416 470.469 76.742 470.961 77.606C471.453 78.458 472.197 78.884 473.193 78.884Z" fill="#101E37"/>
<rect x="499" y="51" width="122" height="46" rx="9" fill="white"/>
<rect x="499" y="51" width="122" height="46" rx="9" stroke="#E6EBF0" stroke-width="2"/>
<path d="M517.67 80.162C517.106 80.162 516.554 80.114 516.014 80.018C515.474 79.922 514.97 79.784 514.502 79.604C514.046 79.424 513.632 79.196 513.26 78.92C513.116 78.812 513.014 78.692 512.954 78.56C512.906 78.416 512.894 78.278 512.918 78.146C512.954 78.002 513.014 77.882 513.098 77.786C513.194 77.69 513.308 77.636 513.44 77.624C513.572 77.612 513.716 77.654 513.872 77.75C514.412 78.134 514.988 78.416 515.6 78.596C516.212 78.764 516.902 78.848 517.67 78.848C518.75 78.848 519.548 78.65 520.064 78.254C520.592 77.846 520.856 77.312 520.856 76.652C520.856 76.112 520.664 75.692 520.28 75.392C519.908 75.08 519.278 74.834 518.39 74.654L516.518 74.276C515.39 74.036 514.544 73.646 513.98 73.106C513.428 72.554 513.152 71.822 513.152 70.91C513.152 70.346 513.266 69.836 513.494 69.38C513.722 68.912 514.04 68.516 514.448 68.192C514.856 67.856 515.342 67.598 515.906 67.418C516.47 67.238 517.094 67.148 517.778 67.148C518.534 67.148 519.236 67.256 519.884 67.472C520.544 67.676 521.138 67.988 521.666 68.408C521.798 68.516 521.888 68.642 521.936 68.786C521.984 68.918 521.99 69.05 521.954 69.182C521.918 69.302 521.852 69.404 521.756 69.488C521.672 69.572 521.558 69.62 521.414 69.632C521.282 69.644 521.132 69.596 520.964 69.488C520.484 69.128 519.986 68.87 519.47 68.714C518.954 68.546 518.384 68.462 517.76 68.462C517.124 68.462 516.572 68.558 516.104 68.75C515.648 68.942 515.288 69.224 515.024 69.596C514.772 69.956 514.646 70.376 514.646 70.856C514.646 71.432 514.82 71.888 515.168 72.224C515.528 72.56 516.11 72.806 516.914 72.962L518.786 73.358C519.998 73.61 520.892 73.994 521.468 74.51C522.056 75.014 522.35 75.704 522.35 76.58C522.35 77.108 522.242 77.594 522.026 78.038C521.81 78.482 521.498 78.866 521.09 79.19C520.682 79.502 520.19 79.742 519.614 79.91C519.038 80.078 518.39 80.162 517.67 80.162ZM525.162 80.09C524.922 80.09 524.742 80.024 524.622 79.892C524.502 79.748 524.442 79.55 524.442 79.298V71.936C524.442 71.684 524.502 71.492 524.622 71.36C524.742 71.228 524.922 71.162 525.162 71.162C525.39 71.162 525.57 71.228 525.702 71.36C525.834 71.492 525.9 71.684 525.9 71.936V79.298C525.9 79.55 525.834 79.748 525.702 79.892C525.582 80.024 525.402 80.09 525.162 80.09ZM525.162 69.146C524.862 69.146 524.628 69.068 524.46 68.912C524.292 68.744 524.208 68.522 524.208 68.246C524.208 67.958 524.292 67.742 524.46 67.598C524.628 67.442 524.862 67.364 525.162 67.364C525.474 67.364 525.708 67.442 525.864 67.598C526.032 67.742 526.116 67.958 526.116 68.246C526.116 68.522 526.032 68.744 525.864 68.912C525.708 69.068 525.474 69.146 525.162 69.146ZM532.496 83.402C531.86 83.402 531.236 83.324 530.624 83.168C530.024 83.024 529.478 82.79 528.986 82.466C528.842 82.382 528.746 82.28 528.698 82.16C528.662 82.04 528.656 81.92 528.68 81.8C528.704 81.692 528.758 81.59 528.842 81.494C528.926 81.41 529.022 81.356 529.13 81.332C529.25 81.308 529.37 81.326 529.49 81.386C530.018 81.71 530.522 81.932 531.002 82.052C531.482 82.172 531.956 82.232 532.424 82.232C533.276 82.232 533.918 82.004 534.35 81.548C534.794 81.092 535.016 80.432 535.016 79.568V77.534H535.196C535.016 78.23 534.632 78.782 534.044 79.19C533.468 79.598 532.79 79.802 532.01 79.802C531.206 79.802 530.51 79.622 529.922 79.262C529.334 78.89 528.878 78.374 528.554 77.714C528.242 77.054 528.086 76.292 528.086 75.428C528.086 74.78 528.176 74.192 528.356 73.664C528.536 73.124 528.794 72.668 529.13 72.296C529.478 71.912 529.892 71.618 530.372 71.414C530.864 71.198 531.41 71.09 532.01 71.09C532.802 71.09 533.486 71.294 534.062 71.702C534.638 72.098 535.01 72.638 535.178 73.322L534.998 73.538V71.864C534.998 71.624 535.058 71.444 535.178 71.324C535.31 71.192 535.49 71.126 535.718 71.126C535.958 71.126 536.138 71.192 536.258 71.324C536.378 71.444 536.438 71.624 536.438 71.864V79.37C536.438 80.702 536.102 81.704 535.43 82.376C534.77 83.06 533.792 83.402 532.496 83.402ZM532.28 78.614C532.844 78.614 533.33 78.488 533.738 78.236C534.146 77.972 534.458 77.6 534.674 77.12C534.902 76.64 535.016 76.076 535.016 75.428C535.016 74.456 534.77 73.688 534.278 73.124C533.786 72.548 533.12 72.26 532.28 72.26C531.728 72.26 531.248 72.392 530.84 72.656C530.432 72.908 530.114 73.274 529.886 73.754C529.67 74.222 529.562 74.78 529.562 75.428C529.562 76.4 529.808 77.174 530.3 77.75C530.792 78.326 531.452 78.614 532.28 78.614ZM542.269 80.162C541.561 80.162 540.973 80.036 540.505 79.784C540.049 79.52 539.701 79.13 539.461 78.614C539.233 78.098 539.119 77.456 539.119 76.688V71.864C539.119 71.612 539.179 71.426 539.299 71.306C539.431 71.186 539.611 71.126 539.839 71.126C540.079 71.126 540.259 71.186 540.379 71.306C540.511 71.426 540.577 71.612 540.577 71.864V76.67C540.577 77.438 540.733 78.014 541.045 78.398C541.369 78.77 541.873 78.956 542.557 78.956C543.301 78.956 543.907 78.704 544.375 78.2C544.843 77.696 545.077 77.036 545.077 76.22V71.864C545.077 71.612 545.137 71.426 545.257 71.306C545.389 71.186 545.575 71.126 545.815 71.126C546.043 71.126 546.217 71.186 546.337 71.306C546.469 71.426 546.535 71.612 546.535 71.864V79.37C546.535 79.874 546.301 80.126 545.833 80.126C545.605 80.126 545.425 80.06 545.293 79.928C545.173 79.796 545.113 79.61 545.113 79.37V77.732L545.347 77.984C545.107 78.692 544.711 79.232 544.159 79.604C543.619 79.976 542.989 80.162 542.269 80.162ZM549.983 80.09C549.743 80.09 549.563 80.024 549.443 79.892C549.323 79.748 549.263 79.55 549.263 79.298V71.936C549.263 71.684 549.323 71.492 549.443 71.36C549.563 71.228 549.743 71.162 549.983 71.162C550.211 71.162 550.391 71.228 550.523 71.36C550.655 71.492 550.721 71.684 550.721 71.936V79.298C550.721 79.55 550.655 79.748 550.523 79.892C550.403 80.024 550.223 80.09 549.983 80.09ZM549.983 69.146C549.683 69.146 549.449 69.068 549.281 68.912C549.113 68.744 549.029 68.522 549.029 68.246C549.029 67.958 549.113 67.742 549.281 67.598C549.449 67.442 549.683 67.364 549.983 67.364C550.295 67.364 550.529 67.442 550.685 67.598C550.853 67.742 550.937 67.958 550.937 68.246C550.937 68.522 550.853 68.744 550.685 68.912C550.529 69.068 550.295 69.146 549.983 69.146ZM557.388 80.162C556.464 80.162 555.666 79.982 554.994 79.622C554.334 79.25 553.818 78.728 553.446 78.056C553.086 77.384 552.906 76.58 552.906 75.644C552.906 74.732 553.086 73.94 553.446 73.268C553.806 72.584 554.298 72.05 554.922 71.666C555.558 71.282 556.29 71.09 557.118 71.09C557.706 71.09 558.234 71.192 558.702 71.396C559.17 71.588 559.566 71.87 559.89 72.242C560.226 72.614 560.478 73.064 560.646 73.592C560.826 74.12 560.916 74.714 560.916 75.374C560.916 75.566 560.862 75.71 560.754 75.806C560.646 75.89 560.49 75.932 560.286 75.932H554.022V74.978H559.944L559.656 75.212C559.656 74.564 559.56 74.018 559.368 73.574C559.176 73.118 558.894 72.77 558.522 72.53C558.162 72.29 557.706 72.17 557.154 72.17C556.542 72.17 556.02 72.314 555.588 72.602C555.168 72.878 554.85 73.268 554.634 73.772C554.418 74.264 554.31 74.84 554.31 75.5V75.608C554.31 76.712 554.574 77.552 555.102 78.128C555.642 78.704 556.404 78.992 557.388 78.992C557.796 78.992 558.198 78.938 558.594 78.83C559.002 78.722 559.398 78.542 559.782 78.29C559.95 78.182 560.1 78.134 560.232 78.146C560.376 78.146 560.49 78.188 560.574 78.272C560.658 78.344 560.712 78.44 560.736 78.56C560.772 78.668 560.76 78.788 560.7 78.92C560.652 79.052 560.55 79.166 560.394 79.262C559.998 79.55 559.53 79.772 558.99 79.928C558.45 80.084 557.916 80.162 557.388 80.162ZM563.746 80.126C563.506 80.126 563.326 80.06 563.206 79.928C563.086 79.796 563.026 79.61 563.026 79.37V71.864C563.026 71.624 563.086 71.444 563.206 71.324C563.326 71.192 563.5 71.126 563.728 71.126C563.956 71.126 564.13 71.192 564.25 71.324C564.382 71.444 564.448 71.624 564.448 71.864V73.412L564.25 73.196C564.502 72.5 564.91 71.978 565.474 71.63C566.05 71.27 566.71 71.09 567.454 71.09C568.15 71.09 568.726 71.216 569.182 71.468C569.65 71.72 569.998 72.104 570.226 72.62C570.454 73.124 570.568 73.766 570.568 74.546V79.37C570.568 79.61 570.502 79.796 570.37 79.928C570.25 80.06 570.076 80.126 569.848 80.126C569.608 80.126 569.422 80.06 569.29 79.928C569.17 79.796 569.11 79.61 569.11 79.37V74.636C569.11 73.82 568.948 73.226 568.624 72.854C568.312 72.47 567.808 72.278 567.112 72.278C566.308 72.278 565.666 72.53 565.186 73.034C564.718 73.526 564.484 74.186 564.484 75.014V79.37C564.484 79.874 564.238 80.126 563.746 80.126ZM576.767 80.162C576.083 80.162 575.507 80.042 575.039 79.802C574.583 79.55 574.241 79.19 574.013 78.722C573.785 78.242 573.671 77.66 573.671 76.976V72.386H572.465C572.261 72.386 572.105 72.338 571.997 72.242C571.889 72.134 571.835 71.99 571.835 71.81C571.835 71.63 571.889 71.492 571.997 71.396C572.105 71.3 572.261 71.252 572.465 71.252H573.671V69.182C573.671 68.942 573.737 68.762 573.869 68.642C574.001 68.51 574.181 68.444 574.409 68.444C574.637 68.444 574.811 68.51 574.931 68.642C575.063 68.762 575.129 68.942 575.129 69.182V71.252H577.397C577.601 71.252 577.757 71.3 577.865 71.396C577.973 71.492 578.027 71.63 578.027 71.81C578.027 71.99 577.973 72.134 577.865 72.242C577.757 72.338 577.601 72.386 577.397 72.386H575.129V76.832C575.129 77.516 575.273 78.038 575.561 78.398C575.849 78.746 576.317 78.92 576.965 78.92C577.193 78.92 577.385 78.896 577.541 78.848C577.709 78.8 577.847 78.776 577.955 78.776C578.063 78.764 578.153 78.8 578.225 78.884C578.297 78.968 578.333 79.112 578.333 79.316C578.333 79.46 578.303 79.592 578.243 79.712C578.195 79.832 578.105 79.916 577.973 79.964C577.829 80.012 577.637 80.054 577.397 80.09C577.169 80.138 576.959 80.162 576.767 80.162ZM583.404 80.162C582.48 80.162 581.682 79.982 581.01 79.622C580.35 79.25 579.834 78.728 579.462 78.056C579.102 77.384 578.922 76.58 578.922 75.644C578.922 74.732 579.102 73.94 579.462 73.268C579.822 72.584 580.314 72.05 580.938 71.666C581.574 71.282 582.306 71.09 583.134 71.09C583.722 71.09 584.25 71.192 584.718 71.396C585.186 71.588 585.582 71.87 585.906 72.242C586.242 72.614 586.494 73.064 586.662 73.592C586.842 74.12 586.932 74.714 586.932 75.374C586.932 75.566 586.878 75.71 586.77 75.806C586.662 75.89 586.506 75.932 586.302 75.932H580.038V74.978H585.96L585.672 75.212C585.672 74.564 585.576 74.018 585.384 73.574C585.192 73.118 584.91 72.77 584.538 72.53C584.178 72.29 583.722 72.17 583.17 72.17C582.558 72.17 582.036 72.314 581.604 72.602C581.184 72.878 580.866 73.268 580.65 73.772C580.434 74.264 580.326 74.84 580.326 75.5V75.608C580.326 76.712 580.59 77.552 581.118 78.128C581.658 78.704 582.42 78.992 583.404 78.992C583.812 78.992 584.214 78.938 584.61 78.83C585.018 78.722 585.414 78.542 585.798 78.29C585.966 78.182 586.116 78.134 586.248 78.146C586.392 78.146 586.506 78.188 586.59 78.272C586.674 78.344 586.728 78.44 586.752 78.56C586.788 78.668 586.776 78.788 586.716 78.92C586.668 79.052 586.566 79.166 586.41 79.262C586.014 79.55 585.546 79.772 585.006 79.928C584.466 80.084 583.932 80.162 583.404 80.162Z" fill="#101E37"/>
<path d="M601 68.7106C600.61 69.1006 600.61 69.7306 601 70.1206L604.88 74.0006L601 77.8806C600.61 78.2706 600.61 78.9006 601 79.2906C601.39 79.6806 602.02 79.6806 602.41 79.2906L607 74.7006C607.39 74.3106 607.39 73.6806 607 73.2906L602.41 68.7006C602.03 68.3206 601.39 68.3206 601 68.7106Z" fill="#101E37"/>
</svg>
