<svg width="728" height="264" viewBox="0 0 728 264" fill="none" xmlns="http://www.w3.org/2000/svg">
<rect x="1" y="1" width="726" height="262" rx="7" fill="#F3F6F9"/>
<rect x="1" y="1" width="726" height="262" rx="7" stroke="#E6EBF0" stroke-width="2"/>
<rect x="47.5" y="109" width="113" height="46" rx="9" fill="white"/>
<rect x="47.5" y="109" width="113" height="46" rx="9" stroke="#E6EBF0" stroke-width="2"/>
<path d="M67.5 126.705C67.11 126.315 66.48 126.315 66.09 126.705L61.5 131.295C61.11 131.685 61.11 132.315 61.5 132.705L66.09 137.295C66.48 137.685 67.11 137.685 67.5 137.295C67.89 136.905 67.89 136.275 67.5 135.885L63.62 131.995L67.5 128.115C67.89 127.725 67.88 127.085 67.5 126.705Z" fill="#101E37"/>
<path d="M81.796 138.126C81.604 138.126 81.448 138.084 81.328 138C81.22 137.904 81.154 137.784 81.13 137.64C81.118 137.484 81.154 137.31 81.238 137.118L86.188 125.85C86.296 125.61 86.422 125.442 86.566 125.346C86.722 125.238 86.89 125.184 87.07 125.184C87.25 125.184 87.412 125.238 87.556 125.346C87.712 125.442 87.838 125.61 87.934 125.85L92.902 137.118C92.998 137.31 93.034 137.484 93.01 137.64C92.998 137.796 92.938 137.916 92.83 138C92.722 138.084 92.572 138.126 92.38 138.126C92.164 138.126 91.99 138.072 91.858 137.964C91.726 137.844 91.618 137.676 91.534 137.46L90.202 134.382L90.922 134.76H83.182L83.92 134.382L82.606 137.46C82.498 137.688 82.384 137.856 82.264 137.964C82.144 138.072 81.988 138.126 81.796 138.126ZM87.052 127.038L84.154 133.86L83.722 133.518H90.382L89.986 133.86L87.088 127.038H87.052ZM95.7013 138.126C95.4613 138.126 95.2813 138.06 95.1613 137.928C95.0413 137.796 94.9813 137.61 94.9813 137.37V129.864C94.9813 129.624 95.0413 129.444 95.1613 129.324C95.2813 129.192 95.4553 129.126 95.6833 129.126C95.9113 129.126 96.0853 129.192 96.2053 129.324C96.3373 129.444 96.4033 129.624 96.4033 129.864V131.412L96.2053 131.196C96.4573 130.5 96.8653 129.978 97.4293 129.63C98.0053 129.27 98.6653 129.09 99.4093 129.09C100.105 129.09 100.681 129.216 101.137 129.468C101.605 129.72 101.953 130.104 102.181 130.62C102.409 131.124 102.523 131.766 102.523 132.546V137.37C102.523 137.61 102.457 137.796 102.325 137.928C102.205 138.06 102.031 138.126 101.803 138.126C101.563 138.126 101.377 138.06 101.245 137.928C101.125 137.796 101.065 137.61 101.065 137.37V132.636C101.065 131.82 100.903 131.226 100.579 130.854C100.267 130.47 99.7633 130.278 99.0673 130.278C98.2633 130.278 97.6213 130.53 97.1413 131.034C96.6733 131.526 96.4393 132.186 96.4393 133.014V137.37C96.4393 137.874 96.1933 138.126 95.7013 138.126ZM108.722 138.162C108.038 138.162 107.462 138.042 106.994 137.802C106.538 137.55 106.196 137.19 105.968 136.722C105.74 136.242 105.626 135.66 105.626 134.976V130.386H104.42C104.216 130.386 104.06 130.338 103.952 130.242C103.844 130.134 103.79 129.99 103.79 129.81C103.79 129.63 103.844 129.492 103.952 129.396C104.06 129.3 104.216 129.252 104.42 129.252H105.626V127.182C105.626 126.942 105.692 126.762 105.824 126.642C105.956 126.51 106.136 126.444 106.364 126.444C106.592 126.444 106.766 126.51 106.886 126.642C107.018 126.762 107.084 126.942 107.084 127.182V129.252H109.352C109.556 129.252 109.712 129.3 109.82 129.396C109.928 129.492 109.982 129.63 109.982 129.81C109.982 129.99 109.928 130.134 109.82 130.242C109.712 130.338 109.556 130.386 109.352 130.386H107.084V134.832C107.084 135.516 107.228 136.038 107.516 136.398C107.804 136.746 108.272 136.92 108.92 136.92C109.148 136.92 109.34 136.896 109.496 136.848C109.664 136.8 109.802 136.776 109.91 136.776C110.018 136.764 110.108 136.8 110.18 136.884C110.252 136.968 110.288 137.112 110.288 137.316C110.288 137.46 110.258 137.592 110.198 137.712C110.15 137.832 110.06 137.916 109.928 137.964C109.784 138.012 109.592 138.054 109.352 138.09C109.124 138.138 108.914 138.162 108.722 138.162ZM115.359 138.162C114.435 138.162 113.637 137.982 112.965 137.622C112.305 137.25 111.789 136.728 111.417 136.056C111.057 135.384 110.877 134.58 110.877 133.644C110.877 132.732 111.057 131.94 111.417 131.268C111.777 130.584 112.269 130.05 112.893 129.666C113.529 129.282 114.261 129.09 115.089 129.09C115.677 129.09 116.205 129.192 116.673 129.396C117.141 129.588 117.537 129.87 117.861 130.242C118.197 130.614 118.449 131.064 118.617 131.592C118.797 132.12 118.887 132.714 118.887 133.374C118.887 133.566 118.833 133.71 118.725 133.806C118.617 133.89 118.461 133.932 118.257 133.932H111.993V132.978H117.915L117.627 133.212C117.627 132.564 117.531 132.018 117.339 131.574C117.147 131.118 116.865 130.77 116.493 130.53C116.133 130.29 115.677 130.17 115.125 130.17C114.513 130.17 113.991 130.314 113.559 130.602C113.139 130.878 112.821 131.268 112.605 131.772C112.389 132.264 112.281 132.84 112.281 133.5V133.608C112.281 134.712 112.545 135.552 113.073 136.128C113.613 136.704 114.375 136.992 115.359 136.992C115.767 136.992 116.169 136.938 116.565 136.83C116.973 136.722 117.369 136.542 117.753 136.29C117.921 136.182 118.071 136.134 118.203 136.146C118.347 136.146 118.461 136.188 118.545 136.272C118.629 136.344 118.683 136.44 118.707 136.56C118.743 136.668 118.731 136.788 118.671 136.92C118.623 137.052 118.521 137.166 118.365 137.262C117.969 137.55 117.501 137.772 116.961 137.928C116.421 138.084 115.887 138.162 115.359 138.162ZM121.735 138.126C121.495 138.126 121.309 138.06 121.177 137.928C121.057 137.796 120.997 137.61 120.997 137.37V129.864C120.997 129.624 121.057 129.444 121.177 129.324C121.297 129.192 121.471 129.126 121.699 129.126C121.927 129.126 122.101 129.192 122.221 129.324C122.353 129.444 122.419 129.624 122.419 129.864V131.322H122.239C122.431 130.614 122.797 130.068 123.337 129.684C123.877 129.3 124.543 129.096 125.335 129.072C125.515 129.06 125.659 129.102 125.767 129.198C125.875 129.282 125.935 129.432 125.947 129.648C125.959 129.852 125.911 130.014 125.803 130.134C125.695 130.254 125.527 130.326 125.299 130.35L125.011 130.386C124.195 130.458 123.565 130.722 123.121 131.178C122.689 131.622 122.473 132.234 122.473 133.014V137.37C122.473 137.61 122.407 137.796 122.275 137.928C122.155 138.06 121.975 138.126 121.735 138.126ZM128.168 138.09C127.928 138.09 127.748 138.024 127.628 137.892C127.508 137.748 127.448 137.55 127.448 137.298V129.936C127.448 129.684 127.508 129.492 127.628 129.36C127.748 129.228 127.928 129.162 128.168 129.162C128.396 129.162 128.576 129.228 128.708 129.36C128.84 129.492 128.906 129.684 128.906 129.936V137.298C128.906 137.55 128.84 137.748 128.708 137.892C128.588 138.024 128.408 138.09 128.168 138.09ZM128.168 127.146C127.868 127.146 127.634 127.068 127.466 126.912C127.298 126.744 127.214 126.522 127.214 126.246C127.214 125.958 127.298 125.742 127.466 125.598C127.634 125.442 127.868 125.364 128.168 125.364C128.48 125.364 128.714 125.442 128.87 125.598C129.038 125.742 129.122 125.958 129.122 126.246C129.122 126.522 129.038 126.744 128.87 126.912C128.714 127.068 128.48 127.146 128.168 127.146ZM135.268 138.162C134.416 138.162 133.678 137.976 133.054 137.604C132.43 137.232 131.944 136.71 131.596 136.038C131.26 135.354 131.092 134.55 131.092 133.626C131.092 132.93 131.188 132.306 131.38 131.754C131.572 131.19 131.854 130.71 132.226 130.314C132.598 129.918 133.036 129.618 133.54 129.414C134.056 129.198 134.632 129.09 135.268 129.09C136.12 129.09 136.858 129.276 137.482 129.648C138.106 130.02 138.586 130.548 138.922 131.232C139.27 131.904 139.444 132.702 139.444 133.626C139.444 134.322 139.348 134.946 139.156 135.498C138.964 136.05 138.682 136.53 138.31 136.938C137.938 137.334 137.494 137.64 136.978 137.856C136.474 138.06 135.904 138.162 135.268 138.162ZM135.268 136.992C135.808 136.992 136.282 136.86 136.69 136.596C137.098 136.332 137.41 135.948 137.626 135.444C137.854 134.94 137.968 134.334 137.968 133.626C137.968 132.534 137.722 131.7 137.23 131.124C136.75 130.548 136.096 130.26 135.268 130.26C134.716 130.26 134.236 130.392 133.828 130.656C133.432 130.908 133.12 131.286 132.892 131.79C132.676 132.282 132.568 132.894 132.568 133.626C132.568 134.706 132.814 135.54 133.306 136.128C133.798 136.704 134.452 136.992 135.268 136.992ZM142.372 138.126C142.132 138.126 141.946 138.06 141.814 137.928C141.694 137.796 141.634 137.61 141.634 137.37V129.864C141.634 129.624 141.694 129.444 141.814 129.324C141.934 129.192 142.108 129.126 142.336 129.126C142.564 129.126 142.738 129.192 142.858 129.324C142.99 129.444 143.056 129.624 143.056 129.864V131.322H142.876C143.068 130.614 143.434 130.068 143.974 129.684C144.514 129.3 145.18 129.096 145.972 129.072C146.152 129.06 146.296 129.102 146.404 129.198C146.512 129.282 146.572 129.432 146.584 129.648C146.596 129.852 146.548 130.014 146.44 130.134C146.332 130.254 146.164 130.326 145.936 130.35L145.648 130.386C144.832 130.458 144.202 130.722 143.758 131.178C143.326 131.622 143.11 132.234 143.11 133.014V137.37C143.11 137.61 143.044 137.796 142.912 137.928C142.792 138.06 142.612 138.126 142.372 138.126Z" fill="#101E37"/>
<rect x="166.5" y="109" width="50" height="46" rx="9" fill="white"/>
<rect x="166.5" y="109" width="50" height="46" rx="9" stroke="#E6EBF0" stroke-width="2"/>
<path d="M188.79 138C188.574 138 188.406 137.946 188.286 137.838C188.166 137.718 188.106 137.556 188.106 137.352C188.106 137.148 188.166 136.998 188.286 136.902C188.406 136.794 188.574 136.74 188.79 136.74H191.13V126.534H191.904L189.294 128.262C189.138 128.346 188.988 128.382 188.844 128.37C188.712 128.358 188.598 128.31 188.502 128.226C188.418 128.13 188.358 128.022 188.322 127.902C188.286 127.77 188.292 127.638 188.34 127.506C188.388 127.362 188.49 127.242 188.646 127.146L191.13 125.508C191.286 125.412 191.436 125.334 191.58 125.274C191.724 125.214 191.868 125.184 192.012 125.184C192.18 125.184 192.318 125.238 192.426 125.346C192.546 125.442 192.606 125.598 192.606 125.814V136.74H194.766C194.982 136.74 195.15 136.794 195.27 136.902C195.39 136.998 195.45 137.148 195.45 137.352C195.45 137.568 195.39 137.73 195.27 137.838C195.15 137.946 194.982 138 194.766 138H188.79Z" fill="#101E37"/>
<rect x="223.5" y="110" width="48" height="44" rx="8" fill="white"/>
<path d="M243.07 138.072C242.77 138.072 242.53 137.982 242.35 137.802C242.17 137.61 242.08 137.37 242.08 137.082C242.08 136.794 242.17 136.56 242.35 136.38C242.53 136.188 242.77 136.092 243.07 136.092C243.37 136.092 243.604 136.188 243.772 136.38C243.952 136.56 244.042 136.794 244.042 137.082C244.042 137.37 243.952 137.61 243.772 137.802C243.604 137.982 243.37 138.072 243.07 138.072ZM247.166 138.072C246.866 138.072 246.626 137.982 246.446 137.802C246.266 137.61 246.176 137.37 246.176 137.082C246.176 136.794 246.266 136.56 246.446 136.38C246.626 136.188 246.866 136.092 247.166 136.092C247.466 136.092 247.7 136.188 247.868 136.38C248.048 136.56 248.138 136.794 248.138 137.082C248.138 137.37 248.048 137.61 247.868 137.802C247.7 137.982 247.466 138.072 247.166 138.072ZM251.261 138.072C250.961 138.072 250.721 137.982 250.541 137.802C250.361 137.61 250.271 137.37 250.271 137.082C250.271 136.794 250.361 136.56 250.541 136.38C250.721 136.188 250.961 136.092 251.261 136.092C251.561 136.092 251.795 136.188 251.963 136.38C252.143 136.56 252.233 136.794 252.233 137.082C252.233 137.37 252.143 137.61 251.963 137.802C251.795 137.982 251.561 138.072 251.261 138.072Z" fill="#101E37"/>
<rect x="278.5" y="109" width="50" height="46" rx="9" fill="white"/>
<rect x="278.5" y="109" width="50" height="46" rx="9" stroke="#E6EBF0" stroke-width="2"/>
<path d="M305.524 138.126C305.296 138.126 305.116 138.06 304.984 137.928C304.852 137.796 304.786 137.61 304.786 137.37V135.282H299.62C299.38 135.282 299.188 135.228 299.044 135.12C298.912 135 298.846 134.832 298.846 134.616C298.846 134.484 298.876 134.352 298.936 134.22C298.996 134.076 299.104 133.896 299.26 133.68L304.75 125.688C304.858 125.52 304.978 125.394 305.11 125.31C305.242 125.226 305.398 125.184 305.578 125.184C305.77 125.184 305.932 125.244 306.064 125.364C306.208 125.484 306.28 125.676 306.28 125.94V134.022H307.594C307.822 134.022 307.996 134.076 308.116 134.184C308.236 134.292 308.296 134.448 308.296 134.652C308.296 134.856 308.236 135.012 308.116 135.12C307.996 135.228 307.822 135.282 307.594 135.282H306.28V137.37C306.28 137.61 306.214 137.796 306.082 137.928C305.95 138.06 305.764 138.126 305.524 138.126ZM304.786 134.022V127.038H305.218L300.178 134.418V134.022H304.786Z" fill="#101E37"/>
<rect x="334.5" y="109" width="50" height="46" rx="9" fill="#274986"/>
<rect x="334.5" y="109" width="50" height="46" rx="9" stroke="#E6EBF0" stroke-width="2"/>
<path d="M359.67 138.162C358.986 138.162 358.302 138.06 357.618 137.856C356.946 137.652 356.334 137.334 355.782 136.902C355.638 136.806 355.542 136.692 355.494 136.56C355.446 136.428 355.44 136.296 355.476 136.164C355.512 136.032 355.578 135.924 355.674 135.84C355.77 135.744 355.884 135.69 356.016 135.678C356.16 135.666 356.31 135.714 356.466 135.822C356.958 136.17 357.468 136.428 357.996 136.596C358.524 136.764 359.076 136.848 359.652 136.848C360.24 136.848 360.744 136.74 361.164 136.524C361.596 136.296 361.92 135.984 362.136 135.588C362.364 135.18 362.478 134.706 362.478 134.166C362.478 133.338 362.238 132.66 361.758 132.132C361.278 131.604 360.618 131.34 359.778 131.34C359.262 131.34 358.788 131.436 358.356 131.628C357.924 131.82 357.528 132.126 357.168 132.546C357.084 132.642 356.982 132.726 356.862 132.798C356.754 132.858 356.628 132.888 356.484 132.888C356.28 132.888 356.118 132.834 355.998 132.726C355.89 132.606 355.836 132.45 355.836 132.258V125.994C355.836 125.766 355.896 125.598 356.016 125.49C356.136 125.37 356.304 125.31 356.52 125.31H362.64C362.868 125.31 363.036 125.364 363.144 125.472C363.264 125.58 363.324 125.736 363.324 125.94C363.324 126.144 363.264 126.3 363.144 126.408C363.036 126.516 362.868 126.57 362.64 126.57H357.294V131.628H356.898C357.21 131.124 357.642 130.74 358.194 130.476C358.746 130.2 359.364 130.062 360.048 130.062C360.852 130.062 361.542 130.23 362.118 130.566C362.706 130.902 363.156 131.376 363.468 131.988C363.792 132.588 363.954 133.29 363.954 134.094C363.954 134.886 363.78 135.588 363.432 136.2C363.084 136.812 362.592 137.292 361.956 137.64C361.32 137.988 360.558 138.162 359.67 138.162Z" fill="white"/>
<rect x="390.5" y="109" width="50" height="46" rx="9" fill="white"/>
<rect x="390.5" y="109" width="50" height="46" rx="9" stroke="#E6EBF0" stroke-width="2"/>
<path d="M415.832 138.162C414.836 138.162 413.984 137.922 413.276 137.442C412.58 136.95 412.052 136.242 411.692 135.318C411.332 134.394 411.152 133.278 411.152 131.97C411.152 130.866 411.266 129.894 411.494 129.054C411.722 128.214 412.058 127.506 412.502 126.93C412.946 126.342 413.486 125.898 414.122 125.598C414.758 125.298 415.478 125.148 416.282 125.148C416.834 125.148 417.398 125.256 417.974 125.472C418.562 125.688 419.078 125.994 419.522 126.39C419.654 126.486 419.732 126.606 419.756 126.75C419.792 126.882 419.792 127.014 419.756 127.146C419.72 127.266 419.654 127.368 419.558 127.452C419.474 127.536 419.366 127.584 419.234 127.596C419.102 127.596 418.964 127.542 418.82 127.434C418.412 127.086 417.992 126.84 417.56 126.696C417.128 126.54 416.69 126.462 416.246 126.462C415.466 126.462 414.8 126.654 414.248 127.038C413.708 127.422 413.294 128.004 413.006 128.784C412.73 129.552 412.592 130.518 412.592 131.682V133.356H412.43C412.502 132.672 412.7 132.084 413.024 131.592C413.36 131.088 413.786 130.704 414.302 130.44C414.818 130.176 415.4 130.044 416.048 130.044C416.792 130.044 417.452 130.212 418.028 130.548C418.604 130.884 419.054 131.358 419.378 131.97C419.702 132.57 419.864 133.26 419.864 134.04C419.864 134.832 419.696 135.54 419.36 136.164C419.024 136.788 418.55 137.28 417.938 137.64C417.326 137.988 416.624 138.162 415.832 138.162ZM415.742 136.902C416.27 136.902 416.738 136.788 417.146 136.56C417.554 136.32 417.872 135.99 418.1 135.57C418.328 135.138 418.442 134.646 418.442 134.094C418.442 133.542 418.328 133.056 418.1 132.636C417.872 132.216 417.554 131.886 417.146 131.646C416.738 131.406 416.27 131.286 415.742 131.286C415.214 131.286 414.746 131.406 414.338 131.646C413.93 131.886 413.612 132.216 413.384 132.636C413.156 133.056 413.042 133.542 413.042 134.094C413.042 134.646 413.156 135.138 413.384 135.57C413.612 135.99 413.93 136.32 414.338 136.56C414.746 136.788 415.214 136.902 415.742 136.902Z" fill="#101E37"/>
<rect x="447.5" y="110" width="48" height="44" rx="8" fill="white"/>
<path d="M467.07 138.072C466.77 138.072 466.53 137.982 466.35 137.802C466.17 137.61 466.08 137.37 466.08 137.082C466.08 136.794 466.17 136.56 466.35 136.38C466.53 136.188 466.77 136.092 467.07 136.092C467.37 136.092 467.604 136.188 467.772 136.38C467.952 136.56 468.042 136.794 468.042 137.082C468.042 137.37 467.952 137.61 467.772 137.802C467.604 137.982 467.37 138.072 467.07 138.072ZM471.166 138.072C470.866 138.072 470.626 137.982 470.446 137.802C470.266 137.61 470.176 137.37 470.176 137.082C470.176 136.794 470.266 136.56 470.446 136.38C470.626 136.188 470.866 136.092 471.166 136.092C471.466 136.092 471.7 136.188 471.868 136.38C472.048 136.56 472.138 136.794 472.138 137.082C472.138 137.37 472.048 137.61 471.868 137.802C471.7 137.982 471.466 138.072 471.166 138.072ZM475.261 138.072C474.961 138.072 474.721 137.982 474.541 137.802C474.361 137.61 474.271 137.37 474.271 137.082C474.271 136.794 474.361 136.56 474.541 136.38C474.721 136.188 474.961 136.092 475.261 136.092C475.561 136.092 475.795 136.188 475.963 136.38C476.143 136.56 476.233 136.794 476.233 137.082C476.233 137.37 476.143 137.61 475.963 137.802C475.795 137.982 475.561 138.072 475.261 138.072Z" fill="#101E37"/>
<rect x="502.5" y="109" width="50" height="46" rx="9" fill="white"/>
<rect x="502.5" y="109" width="50" height="46" rx="9" stroke="#E6EBF0" stroke-width="2"/>
<path d="M519.29 138C519.074 138 518.906 137.946 518.786 137.838C518.666 137.718 518.606 137.556 518.606 137.352C518.606 137.148 518.666 136.998 518.786 136.902C518.906 136.794 519.074 136.74 519.29 136.74H521.63V126.534H522.404L519.794 128.262C519.638 128.346 519.488 128.382 519.344 128.37C519.212 128.358 519.098 128.31 519.002 128.226C518.918 128.13 518.858 128.022 518.822 127.902C518.786 127.77 518.792 127.638 518.84 127.506C518.888 127.362 518.99 127.242 519.146 127.146L521.63 125.508C521.786 125.412 521.936 125.334 522.08 125.274C522.224 125.214 522.368 125.184 522.512 125.184C522.68 125.184 522.818 125.238 522.926 125.346C523.046 125.442 523.106 125.598 523.106 125.814V136.74H525.266C525.482 136.74 525.65 136.794 525.77 136.902C525.89 136.998 525.95 137.148 525.95 137.352C525.95 137.568 525.89 137.73 525.77 137.838C525.65 137.946 525.482 138 525.266 138H519.29ZM532.693 138.162C531.241 138.162 530.137 137.604 529.381 136.488C528.625 135.372 528.247 133.758 528.247 131.646C528.247 130.23 528.415 129.042 528.751 128.082C529.087 127.11 529.585 126.378 530.245 125.886C530.917 125.394 531.733 125.148 532.693 125.148C534.157 125.148 535.261 125.7 536.005 126.804C536.761 127.896 537.139 129.504 537.139 131.628C537.139 133.044 536.971 134.238 536.635 135.21C536.299 136.182 535.801 136.92 535.141 137.424C534.481 137.916 533.665 138.162 532.693 138.162ZM532.693 136.884C533.701 136.884 534.445 136.458 534.925 135.606C535.417 134.742 535.663 133.416 535.663 131.628C535.663 129.828 535.417 128.514 534.925 127.686C534.445 126.846 533.701 126.426 532.693 126.426C531.697 126.426 530.953 126.846 530.461 127.686C529.969 128.526 529.723 129.84 529.723 131.628C529.723 133.416 529.969 134.742 530.461 135.606C530.953 136.458 531.697 136.884 532.693 136.884Z" fill="#101E37"/>
<rect x="558.5" y="109" width="122" height="46" rx="9" fill="white"/>
<rect x="558.5" y="109" width="122" height="46" rx="9" stroke="#E6EBF0" stroke-width="2"/>
<path d="M577.17 138.162C576.606 138.162 576.054 138.114 575.514 138.018C574.974 137.922 574.47 137.784 574.002 137.604C573.546 137.424 573.132 137.196 572.76 136.92C572.616 136.812 572.514 136.692 572.454 136.56C572.406 136.416 572.394 136.278 572.418 136.146C572.454 136.002 572.514 135.882 572.598 135.786C572.694 135.69 572.808 135.636 572.94 135.624C573.072 135.612 573.216 135.654 573.372 135.75C573.912 136.134 574.488 136.416 575.1 136.596C575.712 136.764 576.402 136.848 577.17 136.848C578.25 136.848 579.048 136.65 579.564 136.254C580.092 135.846 580.356 135.312 580.356 134.652C580.356 134.112 580.164 133.692 579.78 133.392C579.408 133.08 578.778 132.834 577.89 132.654L576.018 132.276C574.89 132.036 574.044 131.646 573.48 131.106C572.928 130.554 572.652 129.822 572.652 128.91C572.652 128.346 572.766 127.836 572.994 127.38C573.222 126.912 573.54 126.516 573.948 126.192C574.356 125.856 574.842 125.598 575.406 125.418C575.97 125.238 576.594 125.148 577.278 125.148C578.034 125.148 578.736 125.256 579.384 125.472C580.044 125.676 580.638 125.988 581.166 126.408C581.298 126.516 581.388 126.642 581.436 126.786C581.484 126.918 581.49 127.05 581.454 127.182C581.418 127.302 581.352 127.404 581.256 127.488C581.172 127.572 581.058 127.62 580.914 127.632C580.782 127.644 580.632 127.596 580.464 127.488C579.984 127.128 579.486 126.87 578.97 126.714C578.454 126.546 577.884 126.462 577.26 126.462C576.624 126.462 576.072 126.558 575.604 126.75C575.148 126.942 574.788 127.224 574.524 127.596C574.272 127.956 574.146 128.376 574.146 128.856C574.146 129.432 574.32 129.888 574.668 130.224C575.028 130.56 575.61 130.806 576.414 130.962L578.286 131.358C579.498 131.61 580.392 131.994 580.968 132.51C581.556 133.014 581.85 133.704 581.85 134.58C581.85 135.108 581.742 135.594 581.526 136.038C581.31 136.482 580.998 136.866 580.59 137.19C580.182 137.502 579.69 137.742 579.114 137.91C578.538 138.078 577.89 138.162 577.17 138.162ZM584.662 138.09C584.422 138.09 584.242 138.024 584.122 137.892C584.002 137.748 583.942 137.55 583.942 137.298V129.936C583.942 129.684 584.002 129.492 584.122 129.36C584.242 129.228 584.422 129.162 584.662 129.162C584.89 129.162 585.07 129.228 585.202 129.36C585.334 129.492 585.4 129.684 585.4 129.936V137.298C585.4 137.55 585.334 137.748 585.202 137.892C585.082 138.024 584.902 138.09 584.662 138.09ZM584.662 127.146C584.362 127.146 584.128 127.068 583.96 126.912C583.792 126.744 583.708 126.522 583.708 126.246C583.708 125.958 583.792 125.742 583.96 125.598C584.128 125.442 584.362 125.364 584.662 125.364C584.974 125.364 585.208 125.442 585.364 125.598C585.532 125.742 585.616 125.958 585.616 126.246C585.616 126.522 585.532 126.744 585.364 126.912C585.208 127.068 584.974 127.146 584.662 127.146ZM591.996 141.402C591.36 141.402 590.736 141.324 590.124 141.168C589.524 141.024 588.978 140.79 588.486 140.466C588.342 140.382 588.246 140.28 588.198 140.16C588.162 140.04 588.156 139.92 588.18 139.8C588.204 139.692 588.258 139.59 588.342 139.494C588.426 139.41 588.522 139.356 588.63 139.332C588.75 139.308 588.87 139.326 588.99 139.386C589.518 139.71 590.022 139.932 590.502 140.052C590.982 140.172 591.456 140.232 591.924 140.232C592.776 140.232 593.418 140.004 593.85 139.548C594.294 139.092 594.516 138.432 594.516 137.568V135.534H594.696C594.516 136.23 594.132 136.782 593.544 137.19C592.968 137.598 592.29 137.802 591.51 137.802C590.706 137.802 590.01 137.622 589.422 137.262C588.834 136.89 588.378 136.374 588.054 135.714C587.742 135.054 587.586 134.292 587.586 133.428C587.586 132.78 587.676 132.192 587.856 131.664C588.036 131.124 588.294 130.668 588.63 130.296C588.978 129.912 589.392 129.618 589.872 129.414C590.364 129.198 590.91 129.09 591.51 129.09C592.302 129.09 592.986 129.294 593.562 129.702C594.138 130.098 594.51 130.638 594.678 131.322L594.498 131.538V129.864C594.498 129.624 594.558 129.444 594.678 129.324C594.81 129.192 594.99 129.126 595.218 129.126C595.458 129.126 595.638 129.192 595.758 129.324C595.878 129.444 595.938 129.624 595.938 129.864V137.37C595.938 138.702 595.602 139.704 594.93 140.376C594.27 141.06 593.292 141.402 591.996 141.402ZM591.78 136.614C592.344 136.614 592.83 136.488 593.238 136.236C593.646 135.972 593.958 135.6 594.174 135.12C594.402 134.64 594.516 134.076 594.516 133.428C594.516 132.456 594.27 131.688 593.778 131.124C593.286 130.548 592.62 130.26 591.78 130.26C591.228 130.26 590.748 130.392 590.34 130.656C589.932 130.908 589.614 131.274 589.386 131.754C589.17 132.222 589.062 132.78 589.062 133.428C589.062 134.4 589.308 135.174 589.8 135.75C590.292 136.326 590.952 136.614 591.78 136.614ZM601.769 138.162C601.061 138.162 600.473 138.036 600.005 137.784C599.549 137.52 599.201 137.13 598.961 136.614C598.733 136.098 598.619 135.456 598.619 134.688V129.864C598.619 129.612 598.679 129.426 598.799 129.306C598.931 129.186 599.111 129.126 599.339 129.126C599.579 129.126 599.759 129.186 599.879 129.306C600.011 129.426 600.077 129.612 600.077 129.864V134.67C600.077 135.438 600.233 136.014 600.545 136.398C600.869 136.77 601.373 136.956 602.057 136.956C602.801 136.956 603.407 136.704 603.875 136.2C604.343 135.696 604.577 135.036 604.577 134.22V129.864C604.577 129.612 604.637 129.426 604.757 129.306C604.889 129.186 605.075 129.126 605.315 129.126C605.543 129.126 605.717 129.186 605.837 129.306C605.969 129.426 606.035 129.612 606.035 129.864V137.37C606.035 137.874 605.801 138.126 605.333 138.126C605.105 138.126 604.925 138.06 604.793 137.928C604.673 137.796 604.613 137.61 604.613 137.37V135.732L604.847 135.984C604.607 136.692 604.211 137.232 603.659 137.604C603.119 137.976 602.489 138.162 601.769 138.162ZM609.483 138.09C609.243 138.09 609.063 138.024 608.943 137.892C608.823 137.748 608.763 137.55 608.763 137.298V129.936C608.763 129.684 608.823 129.492 608.943 129.36C609.063 129.228 609.243 129.162 609.483 129.162C609.711 129.162 609.891 129.228 610.023 129.36C610.155 129.492 610.221 129.684 610.221 129.936V137.298C610.221 137.55 610.155 137.748 610.023 137.892C609.903 138.024 609.723 138.09 609.483 138.09ZM609.483 127.146C609.183 127.146 608.949 127.068 608.781 126.912C608.613 126.744 608.529 126.522 608.529 126.246C608.529 125.958 608.613 125.742 608.781 125.598C608.949 125.442 609.183 125.364 609.483 125.364C609.795 125.364 610.029 125.442 610.185 125.598C610.353 125.742 610.437 125.958 610.437 126.246C610.437 126.522 610.353 126.744 610.185 126.912C610.029 127.068 609.795 127.146 609.483 127.146ZM616.888 138.162C615.964 138.162 615.166 137.982 614.494 137.622C613.834 137.25 613.318 136.728 612.946 136.056C612.586 135.384 612.406 134.58 612.406 133.644C612.406 132.732 612.586 131.94 612.946 131.268C613.306 130.584 613.798 130.05 614.422 129.666C615.058 129.282 615.79 129.09 616.618 129.09C617.206 129.09 617.734 129.192 618.202 129.396C618.67 129.588 619.066 129.87 619.39 130.242C619.726 130.614 619.978 131.064 620.146 131.592C620.326 132.12 620.416 132.714 620.416 133.374C620.416 133.566 620.362 133.71 620.254 133.806C620.146 133.89 619.99 133.932 619.786 133.932H613.522V132.978H619.444L619.156 133.212C619.156 132.564 619.06 132.018 618.868 131.574C618.676 131.118 618.394 130.77 618.022 130.53C617.662 130.29 617.206 130.17 616.654 130.17C616.042 130.17 615.52 130.314 615.088 130.602C614.668 130.878 614.35 131.268 614.134 131.772C613.918 132.264 613.81 132.84 613.81 133.5V133.608C613.81 134.712 614.074 135.552 614.602 136.128C615.142 136.704 615.904 136.992 616.888 136.992C617.296 136.992 617.698 136.938 618.094 136.83C618.502 136.722 618.898 136.542 619.282 136.29C619.45 136.182 619.6 136.134 619.732 136.146C619.876 136.146 619.99 136.188 620.074 136.272C620.158 136.344 620.212 136.44 620.236 136.56C620.272 136.668 620.26 136.788 620.2 136.92C620.152 137.052 620.05 137.166 619.894 137.262C619.498 137.55 619.03 137.772 618.49 137.928C617.95 138.084 617.416 138.162 616.888 138.162ZM623.246 138.126C623.006 138.126 622.826 138.06 622.706 137.928C622.586 137.796 622.526 137.61 622.526 137.37V129.864C622.526 129.624 622.586 129.444 622.706 129.324C622.826 129.192 623 129.126 623.228 129.126C623.456 129.126 623.63 129.192 623.75 129.324C623.882 129.444 623.948 129.624 623.948 129.864V131.412L623.75 131.196C624.002 130.5 624.41 129.978 624.974 129.63C625.55 129.27 626.21 129.09 626.954 129.09C627.65 129.09 628.226 129.216 628.682 129.468C629.15 129.72 629.498 130.104 629.726 130.62C629.954 131.124 630.068 131.766 630.068 132.546V137.37C630.068 137.61 630.002 137.796 629.87 137.928C629.75 138.06 629.576 138.126 629.348 138.126C629.108 138.126 628.922 138.06 628.79 137.928C628.67 137.796 628.61 137.61 628.61 137.37V132.636C628.61 131.82 628.448 131.226 628.124 130.854C627.812 130.47 627.308 130.278 626.612 130.278C625.808 130.278 625.166 130.53 624.686 131.034C624.218 131.526 623.984 132.186 623.984 133.014V137.37C623.984 137.874 623.738 138.126 623.246 138.126ZM636.267 138.162C635.583 138.162 635.007 138.042 634.539 137.802C634.083 137.55 633.741 137.19 633.513 136.722C633.285 136.242 633.171 135.66 633.171 134.976V130.386H631.965C631.761 130.386 631.605 130.338 631.497 130.242C631.389 130.134 631.335 129.99 631.335 129.81C631.335 129.63 631.389 129.492 631.497 129.396C631.605 129.3 631.761 129.252 631.965 129.252H633.171V127.182C633.171 126.942 633.237 126.762 633.369 126.642C633.501 126.51 633.681 126.444 633.909 126.444C634.137 126.444 634.311 126.51 634.431 126.642C634.563 126.762 634.629 126.942 634.629 127.182V129.252H636.897C637.101 129.252 637.257 129.3 637.365 129.396C637.473 129.492 637.527 129.63 637.527 129.81C637.527 129.99 637.473 130.134 637.365 130.242C637.257 130.338 637.101 130.386 636.897 130.386H634.629V134.832C634.629 135.516 634.773 136.038 635.061 136.398C635.349 136.746 635.817 136.92 636.465 136.92C636.693 136.92 636.885 136.896 637.041 136.848C637.209 136.8 637.347 136.776 637.455 136.776C637.563 136.764 637.653 136.8 637.725 136.884C637.797 136.968 637.833 137.112 637.833 137.316C637.833 137.46 637.803 137.592 637.743 137.712C637.695 137.832 637.605 137.916 637.473 137.964C637.329 138.012 637.137 138.054 636.897 138.09C636.669 138.138 636.459 138.162 636.267 138.162ZM642.904 138.162C641.98 138.162 641.182 137.982 640.51 137.622C639.85 137.25 639.334 136.728 638.962 136.056C638.602 135.384 638.422 134.58 638.422 133.644C638.422 132.732 638.602 131.94 638.962 131.268C639.322 130.584 639.814 130.05 640.438 129.666C641.074 129.282 641.806 129.09 642.634 129.09C643.222 129.09 643.75 129.192 644.218 129.396C644.686 129.588 645.082 129.87 645.406 130.242C645.742 130.614 645.994 131.064 646.162 131.592C646.342 132.12 646.432 132.714 646.432 133.374C646.432 133.566 646.378 133.71 646.27 133.806C646.162 133.89 646.006 133.932 645.802 133.932H639.538V132.978H645.46L645.172 133.212C645.172 132.564 645.076 132.018 644.884 131.574C644.692 131.118 644.41 130.77 644.038 130.53C643.678 130.29 643.222 130.17 642.67 130.17C642.058 130.17 641.536 130.314 641.104 130.602C640.684 130.878 640.366 131.268 640.15 131.772C639.934 132.264 639.826 132.84 639.826 133.5V133.608C639.826 134.712 640.09 135.552 640.618 136.128C641.158 136.704 641.92 136.992 642.904 136.992C643.312 136.992 643.714 136.938 644.11 136.83C644.518 136.722 644.914 136.542 645.298 136.29C645.466 136.182 645.616 136.134 645.748 136.146C645.892 136.146 646.006 136.188 646.09 136.272C646.174 136.344 646.228 136.44 646.252 136.56C646.288 136.668 646.276 136.788 646.216 136.92C646.168 137.052 646.066 137.166 645.91 137.262C645.514 137.55 645.046 137.772 644.506 137.928C643.966 138.084 643.432 138.162 642.904 138.162Z" fill="#101E37"/>
<path d="M660.5 126.711C660.11 127.101 660.11 127.731 660.5 128.121L664.38 132.001L660.5 135.881C660.11 136.271 660.11 136.901 660.5 137.291C660.89 137.681 661.52 137.681 661.91 137.291L666.5 132.701C666.89 132.311 666.89 131.681 666.5 131.291L661.91 126.701C661.53 126.321 660.89 126.321 660.5 126.711Z" fill="#101E37"/>
<rect x="335" y="152.9" width="8" height="41.8" transform="rotate(-180 335 152.9)" fill="#F7E5FF"/>
<mask id="mask0_3778_3208" style="mask-type:alpha" maskUnits="userSpaceOnUse" x="327" y="111" width="8" height="42">
<rect x="335" y="152.9" width="8" height="41.8" transform="rotate(-180 335 152.9)" fill="#F7E5FF"/>
</mask>
<g mask="url(#mask0_3778_3208)">
<line y1="-0.2" x2="19.8346" y2="-0.2" transform="matrix(0.928442 -0.371478 0.928442 0.371478 320.4 154.289)" stroke="#C433FF" stroke-width="0.4"/>
<line y1="-0.2" x2="19.8346" y2="-0.2" transform="matrix(0.928442 -0.371478 0.928442 0.371478 320.4 152.906)" stroke="#C433FF" stroke-width="0.4"/>
<line y1="-0.2" x2="19.8346" y2="-0.2" transform="matrix(0.928442 -0.371478 0.928442 0.371478 320.4 159.815)" stroke="#C433FF" stroke-width="0.4"/>
<line y1="-0.2" x2="19.8346" y2="-0.2" transform="matrix(0.928442 -0.371478 0.928442 0.371478 320.4 155.67)" stroke="#C433FF" stroke-width="0.4"/>
<line y1="-0.2" x2="19.8346" y2="-0.2" transform="matrix(0.928442 -0.371478 0.928442 0.371478 320.4 157.052)" stroke="#C433FF" stroke-width="0.4"/>
<line y1="-0.2" x2="19.8346" y2="-0.2" transform="matrix(0.928442 -0.371478 0.928442 0.371478 320.4 158.433)" stroke="#C433FF" stroke-width="0.4"/>
<line y1="-0.2" x2="19.8346" y2="-0.2" transform="matrix(0.928442 -0.371478 0.928442 0.371478 320.4 151.526)" stroke="#C433FF" stroke-width="0.4"/>
<line y1="-0.2" x2="19.8346" y2="-0.2" transform="matrix(0.928442 -0.371478 0.928442 0.371478 320.4 150.052)" stroke="#C433FF" stroke-width="0.4"/>
<line y1="-0.2" x2="19.8346" y2="-0.2" transform="matrix(0.928442 -0.371478 0.928442 0.371478 320.4 136.236)" stroke="#C433FF" stroke-width="0.4"/>
<line y1="-0.2" x2="19.8346" y2="-0.2" transform="matrix(0.928442 -0.371478 0.928442 0.371478 320.4 145.907)" stroke="#C433FF" stroke-width="0.4"/>
<line y1="-0.2" x2="19.8346" y2="-0.2" transform="matrix(0.928442 -0.371478 0.928442 0.371478 320.4 130.71)" stroke="#C433FF" stroke-width="0.4"/>
<line y1="-0.2" x2="19.8346" y2="-0.2" transform="matrix(0.928442 -0.371478 0.928442 0.371478 320.4 148.67)" stroke="#C433FF" stroke-width="0.4"/>
<line y1="-0.2" x2="19.8346" y2="-0.2" transform="matrix(0.928442 -0.371478 0.928442 0.371478 320.4 133.474)" stroke="#C433FF" stroke-width="0.4"/>
<line y1="-0.2" x2="19.8346" y2="-0.2" transform="matrix(0.928442 -0.371478 0.928442 0.371478 320.4 144.526)" stroke="#C433FF" stroke-width="0.4"/>
<line y1="-0.2" x2="19.8346" y2="-0.2" transform="matrix(0.928442 -0.371478 0.928442 0.371478 320.4 134.855)" stroke="#C433FF" stroke-width="0.4"/>
<line y1="-0.2" x2="19.8346" y2="-0.2" transform="matrix(0.928442 -0.371478 0.928442 0.371478 320.4 143.144)" stroke="#C433FF" stroke-width="0.4"/>
<line y1="-0.2" x2="19.8346" y2="-0.2" transform="matrix(0.928442 -0.371478 0.928442 0.371478 320.4 127.948)" stroke="#C433FF" stroke-width="0.4"/>
<line y1="-0.2" x2="19.8346" y2="-0.2" transform="matrix(0.928442 -0.371478 0.928442 0.371478 320.4 141.763)" stroke="#C433FF" stroke-width="0.4"/>
<line y1="-0.2" x2="19.8346" y2="-0.2" transform="matrix(0.928442 -0.371478 0.928442 0.371478 320.4 132.092)" stroke="#C433FF" stroke-width="0.4"/>
<line y1="-0.2" x2="19.8346" y2="-0.2" transform="matrix(0.928442 -0.371478 0.928442 0.371478 320.4 140.381)" stroke="#C433FF" stroke-width="0.4"/>
<line y1="-0.2" x2="19.8346" y2="-0.2" transform="matrix(0.928442 -0.371478 0.928442 0.371478 320.4 138.999)" stroke="#C433FF" stroke-width="0.4"/>
<line y1="-0.2" x2="19.8346" y2="-0.2" transform="matrix(0.928442 -0.371478 0.928442 0.371478 320.4 129.329)" stroke="#C433FF" stroke-width="0.4"/>
<line y1="-0.2" x2="19.8346" y2="-0.2" transform="matrix(0.928442 -0.371478 0.928442 0.371478 320.4 137.619)" stroke="#C433FF" stroke-width="0.4"/>
<line y1="-0.2" x2="19.8346" y2="-0.2" transform="matrix(0.928442 -0.371478 0.928442 0.371478 320.4 147.289)" stroke="#C433FF" stroke-width="0.4"/>
<line y1="-0.2" x2="19.8346" y2="-0.2" transform="matrix(0.928442 -0.371478 0.928442 0.371478 320.4 126.474)" stroke="#C433FF" stroke-width="0.4"/>
<line y1="-0.2" x2="19.8346" y2="-0.2" transform="matrix(0.928442 -0.371478 0.928442 0.371478 320.4 125.092)" stroke="#C433FF" stroke-width="0.4"/>
<line y1="-0.2" x2="19.8346" y2="-0.2" transform="matrix(0.928442 -0.371478 0.928442 0.371478 320.4 123.711)" stroke="#C433FF" stroke-width="0.4"/>
<line y1="-0.2" x2="19.8346" y2="-0.2" transform="matrix(0.928442 -0.371478 0.928442 0.371478 320.4 122.33)" stroke="#C433FF" stroke-width="0.4"/>
<line y1="-0.2" x2="19.8346" y2="-0.2" transform="matrix(0.928442 -0.371478 0.928442 0.371478 320.4 120.948)" stroke="#C433FF" stroke-width="0.4"/>
<line y1="-0.2" x2="19.8346" y2="-0.2" transform="matrix(0.928442 -0.371478 0.928442 0.371478 320.4 119.567)" stroke="#C433FF" stroke-width="0.4"/>
<line y1="-0.2" x2="19.8346" y2="-0.2" transform="matrix(0.928442 -0.371478 0.928442 0.371478 320.4 118.185)" stroke="#C433FF" stroke-width="0.4"/>
<line y1="-0.2" x2="19.8346" y2="-0.2" transform="matrix(0.928442 -0.371478 0.928442 0.371478 320.4 116.803)" stroke="#C433FF" stroke-width="0.4"/>
<line y1="-0.2" x2="19.8346" y2="-0.2" transform="matrix(0.928442 -0.371478 0.928442 0.371478 320.4 115.423)" stroke="#C433FF" stroke-width="0.4"/>
<line y1="-0.2" x2="19.8346" y2="-0.2" transform="matrix(0.928442 -0.371478 0.928442 0.371478 320.4 114.041)" stroke="#C433FF" stroke-width="0.4"/>
<line y1="-0.2" x2="19.8346" y2="-0.2" transform="matrix(0.928442 -0.371478 0.928442 0.371478 320.4 112.658)" stroke="#C433FF" stroke-width="0.4"/>
<line y1="-0.2" x2="19.8346" y2="-0.2" transform="matrix(0.928442 -0.371478 0.928442 0.371478 320.4 111.278)" stroke="#C433FF" stroke-width="0.4"/>
</g>
<path d="M335 152.9L335 154M335 152.9L335 151.8M335 152.9L327 152.9M327 152.9L327 154M327 152.9L327 151.8" stroke="#9100CC" stroke-linecap="round"/>
<path d="M335 111.1L335 112.2M335 111.1L335 110M335 111.1L327 111.1M327 111.1L327 112.2M327 111.1L327 110" stroke="#9100CC" stroke-linecap="round"/>
<rect x="391" y="152.9" width="8" height="41.8" transform="rotate(-180 391 152.9)" fill="#F7E5FF"/>
<mask id="mask1_3778_3208" style="mask-type:alpha" maskUnits="userSpaceOnUse" x="383" y="111" width="8" height="42">
<rect x="391" y="152.9" width="8" height="41.8" transform="rotate(-180 391 152.9)" fill="#F7E5FF"/>
</mask>
<g mask="url(#mask1_3778_3208)">
<line y1="-0.2" x2="19.8346" y2="-0.2" transform="matrix(0.928442 -0.371478 0.928442 0.371478 376.4 154.289)" stroke="#C433FF" stroke-width="0.4"/>
<line y1="-0.2" x2="19.8346" y2="-0.2" transform="matrix(0.928442 -0.371478 0.928442 0.371478 376.4 152.906)" stroke="#C433FF" stroke-width="0.4"/>
<line y1="-0.2" x2="19.8346" y2="-0.2" transform="matrix(0.928442 -0.371478 0.928442 0.371478 376.4 159.815)" stroke="#C433FF" stroke-width="0.4"/>
<line y1="-0.2" x2="19.8346" y2="-0.2" transform="matrix(0.928442 -0.371478 0.928442 0.371478 376.4 155.67)" stroke="#C433FF" stroke-width="0.4"/>
<line y1="-0.2" x2="19.8346" y2="-0.2" transform="matrix(0.928442 -0.371478 0.928442 0.371478 376.4 157.052)" stroke="#C433FF" stroke-width="0.4"/>
<line y1="-0.2" x2="19.8346" y2="-0.2" transform="matrix(0.928442 -0.371478 0.928442 0.371478 376.4 158.433)" stroke="#C433FF" stroke-width="0.4"/>
<line y1="-0.2" x2="19.8346" y2="-0.2" transform="matrix(0.928442 -0.371478 0.928442 0.371478 376.4 151.526)" stroke="#C433FF" stroke-width="0.4"/>
<line y1="-0.2" x2="19.8346" y2="-0.2" transform="matrix(0.928442 -0.371478 0.928442 0.371478 376.4 150.052)" stroke="#C433FF" stroke-width="0.4"/>
<line y1="-0.2" x2="19.8346" y2="-0.2" transform="matrix(0.928442 -0.371478 0.928442 0.371478 376.4 136.236)" stroke="#C433FF" stroke-width="0.4"/>
<line y1="-0.2" x2="19.8346" y2="-0.2" transform="matrix(0.928442 -0.371478 0.928442 0.371478 376.4 145.907)" stroke="#C433FF" stroke-width="0.4"/>
<line y1="-0.2" x2="19.8346" y2="-0.2" transform="matrix(0.928442 -0.371478 0.928442 0.371478 376.4 130.71)" stroke="#C433FF" stroke-width="0.4"/>
<line y1="-0.2" x2="19.8346" y2="-0.2" transform="matrix(0.928442 -0.371478 0.928442 0.371478 376.4 148.67)" stroke="#C433FF" stroke-width="0.4"/>
<line y1="-0.2" x2="19.8346" y2="-0.2" transform="matrix(0.928442 -0.371478 0.928442 0.371478 376.4 133.474)" stroke="#C433FF" stroke-width="0.4"/>
<line y1="-0.2" x2="19.8346" y2="-0.2" transform="matrix(0.928442 -0.371478 0.928442 0.371478 376.4 144.526)" stroke="#C433FF" stroke-width="0.4"/>
<line y1="-0.2" x2="19.8346" y2="-0.2" transform="matrix(0.928442 -0.371478 0.928442 0.371478 376.4 134.855)" stroke="#C433FF" stroke-width="0.4"/>
<line y1="-0.2" x2="19.8346" y2="-0.2" transform="matrix(0.928442 -0.371478 0.928442 0.371478 376.4 143.144)" stroke="#C433FF" stroke-width="0.4"/>
<line y1="-0.2" x2="19.8346" y2="-0.2" transform="matrix(0.928442 -0.371478 0.928442 0.371478 376.4 127.948)" stroke="#C433FF" stroke-width="0.4"/>
<line y1="-0.2" x2="19.8346" y2="-0.2" transform="matrix(0.928442 -0.371478 0.928442 0.371478 376.4 141.763)" stroke="#C433FF" stroke-width="0.4"/>
<line y1="-0.2" x2="19.8346" y2="-0.2" transform="matrix(0.928442 -0.371478 0.928442 0.371478 376.4 132.092)" stroke="#C433FF" stroke-width="0.4"/>
<line y1="-0.2" x2="19.8346" y2="-0.2" transform="matrix(0.928442 -0.371478 0.928442 0.371478 376.4 140.381)" stroke="#C433FF" stroke-width="0.4"/>
<line y1="-0.2" x2="19.8346" y2="-0.2" transform="matrix(0.928442 -0.371478 0.928442 0.371478 376.4 138.999)" stroke="#C433FF" stroke-width="0.4"/>
<line y1="-0.2" x2="19.8346" y2="-0.2" transform="matrix(0.928442 -0.371478 0.928442 0.371478 376.4 129.329)" stroke="#C433FF" stroke-width="0.4"/>
<line y1="-0.2" x2="19.8346" y2="-0.2" transform="matrix(0.928442 -0.371478 0.928442 0.371478 376.4 137.619)" stroke="#C433FF" stroke-width="0.4"/>
<line y1="-0.2" x2="19.8346" y2="-0.2" transform="matrix(0.928442 -0.371478 0.928442 0.371478 376.4 147.289)" stroke="#C433FF" stroke-width="0.4"/>
<line y1="-0.2" x2="19.8346" y2="-0.2" transform="matrix(0.928442 -0.371478 0.928442 0.371478 376.4 126.474)" stroke="#C433FF" stroke-width="0.4"/>
<line y1="-0.2" x2="19.8346" y2="-0.2" transform="matrix(0.928442 -0.371478 0.928442 0.371478 376.4 125.092)" stroke="#C433FF" stroke-width="0.4"/>
<line y1="-0.2" x2="19.8346" y2="-0.2" transform="matrix(0.928442 -0.371478 0.928442 0.371478 376.4 123.711)" stroke="#C433FF" stroke-width="0.4"/>
<line y1="-0.2" x2="19.8346" y2="-0.2" transform="matrix(0.928442 -0.371478 0.928442 0.371478 376.4 122.33)" stroke="#C433FF" stroke-width="0.4"/>
<line y1="-0.2" x2="19.8346" y2="-0.2" transform="matrix(0.928442 -0.371478 0.928442 0.371478 376.4 120.948)" stroke="#C433FF" stroke-width="0.4"/>
<line y1="-0.2" x2="19.8346" y2="-0.2" transform="matrix(0.928442 -0.371478 0.928442 0.371478 376.4 119.567)" stroke="#C433FF" stroke-width="0.4"/>
<line y1="-0.2" x2="19.8346" y2="-0.2" transform="matrix(0.928442 -0.371478 0.928442 0.371478 376.4 118.185)" stroke="#C433FF" stroke-width="0.4"/>
<line y1="-0.2" x2="19.8346" y2="-0.2" transform="matrix(0.928442 -0.371478 0.928442 0.371478 376.4 116.803)" stroke="#C433FF" stroke-width="0.4"/>
<line y1="-0.2" x2="19.8346" y2="-0.2" transform="matrix(0.928442 -0.371478 0.928442 0.371478 376.4 115.423)" stroke="#C433FF" stroke-width="0.4"/>
<line y1="-0.2" x2="19.8346" y2="-0.2" transform="matrix(0.928442 -0.371478 0.928442 0.371478 376.4 114.041)" stroke="#C433FF" stroke-width="0.4"/>
<line y1="-0.2" x2="19.8346" y2="-0.2" transform="matrix(0.928442 -0.371478 0.928442 0.371478 376.4 112.658)" stroke="#C433FF" stroke-width="0.4"/>
<line y1="-0.2" x2="19.8346" y2="-0.2" transform="matrix(0.928442 -0.371478 0.928442 0.371478 376.4 111.278)" stroke="#C433FF" stroke-width="0.4"/>
</g>
<path d="M391 152.9L391 154M391 152.9L391 151.8M391 152.9L383 152.9M383 152.9L383 154M383 152.9L383 151.8" stroke="#9100CC" stroke-linecap="round"/>
<path d="M391 111.1L391 112.2M391 111.1L391 110M391 111.1L383 111.1M383 111.1L383 112.2M383 111.1L383 110" stroke="#9100CC" stroke-linecap="round"/>
<rect x="353" y="166" width="15" height="43" rx="6.88" transform="rotate(90 353 166)" fill="#9100CC"/>
<path d="M325.491 170.273C325.846 170.273 326.161 170.329 326.436 170.441C326.71 170.553 326.924 170.718 327.078 170.936C327.235 171.152 327.313 171.418 327.313 171.734C327.313 171.983 327.259 172.201 327.15 172.389C327.043 172.574 326.899 172.736 326.717 172.876C326.535 173.013 326.334 173.136 326.112 173.246C326.376 173.366 326.612 173.502 326.822 173.653C327.035 173.804 327.203 173.982 327.326 174.186C327.449 174.391 327.511 174.633 327.511 174.913C327.511 175.257 327.427 175.555 327.259 175.807C327.094 176.056 326.861 176.248 326.562 176.382C326.262 176.517 325.911 176.584 325.508 176.584C325.074 176.584 324.704 176.52 324.399 176.391C324.097 176.259 323.866 176.072 323.706 175.828C323.549 175.582 323.471 175.286 323.471 174.942C323.471 174.659 323.531 174.414 323.652 174.207C323.772 173.997 323.932 173.817 324.13 173.666C324.329 173.514 324.546 173.387 324.781 173.283C324.577 173.171 324.389 173.044 324.219 172.901C324.051 172.758 323.916 172.592 323.815 172.402C323.717 172.208 323.668 171.984 323.668 171.73C323.668 171.419 323.747 171.156 323.904 170.94C324.063 170.722 324.28 170.557 324.554 170.445C324.832 170.33 325.144 170.273 325.491 170.273ZM324.156 174.946C324.156 175.26 324.266 175.519 324.487 175.723C324.708 175.925 325.043 176.025 325.491 176.025C325.916 176.025 326.245 175.925 326.478 175.723C326.71 175.519 326.826 175.251 326.826 174.921C326.826 174.717 326.773 174.538 326.667 174.384C326.56 174.227 326.409 174.087 326.213 173.964C326.017 173.84 325.786 173.729 325.52 173.628L325.369 173.573C325.112 173.68 324.892 173.799 324.71 173.93C324.531 174.059 324.393 174.206 324.298 174.371C324.203 174.536 324.156 174.728 324.156 174.946ZM325.482 170.844C325.152 170.844 324.882 170.923 324.672 171.083C324.462 171.24 324.357 171.467 324.357 171.763C324.357 171.976 324.407 172.157 324.508 172.305C324.612 172.451 324.752 172.577 324.928 172.683C325.105 172.786 325.302 172.883 325.52 172.973C325.733 172.883 325.922 172.785 326.087 172.679C326.252 172.57 326.383 172.441 326.478 172.292C326.573 172.144 326.62 171.966 326.62 171.759C326.62 171.462 326.515 171.236 326.306 171.079C326.098 170.922 325.824 170.844 325.482 170.844ZM333.091 171.814C333.665 171.814 334.123 172.011 334.465 172.406C334.806 172.8 334.977 173.394 334.977 174.186C334.977 174.71 334.899 175.149 334.742 175.505C334.585 175.86 334.364 176.129 334.078 176.311C333.796 176.493 333.461 176.584 333.075 176.584C332.831 176.584 332.617 176.552 332.432 176.487C332.247 176.423 332.089 176.336 331.958 176.227C331.826 176.118 331.717 175.999 331.63 175.87H331.58C331.588 175.979 331.598 176.111 331.609 176.265C331.623 176.419 331.63 176.553 331.63 176.668V178.558H330.929V171.898H331.504L331.597 172.578H331.63C331.72 172.438 331.829 172.311 331.958 172.196C332.086 172.078 332.243 171.986 332.428 171.919C332.616 171.849 332.837 171.814 333.091 171.814ZM332.97 172.402C332.651 172.402 332.393 172.463 332.197 172.586C332.004 172.71 331.863 172.894 331.773 173.141C331.683 173.384 331.636 173.691 331.63 174.06V174.195C331.63 174.584 331.672 174.913 331.756 175.181C331.843 175.45 331.984 175.655 332.18 175.795C332.379 175.935 332.645 176.004 332.978 176.004C333.264 176.004 333.502 175.928 333.692 175.774C333.882 175.62 334.024 175.405 334.116 175.131C334.211 174.854 334.259 174.536 334.259 174.178C334.259 173.635 334.152 173.204 333.94 172.884C333.73 172.563 333.406 172.402 332.97 172.402ZM337.291 174.144L335.699 171.898H336.497L337.711 173.67L338.92 171.898H339.709L338.118 174.144L339.798 176.5H339L337.711 174.623L336.413 176.5H335.624L337.291 174.144Z" fill="#F7E5FF"/>
<rect x="409" y="166" width="15" height="43" rx="6.88" transform="rotate(90 409 166)" fill="#9100CC"/>
<path d="M381.491 170.273C381.846 170.273 382.161 170.329 382.436 170.441C382.71 170.553 382.924 170.718 383.078 170.936C383.235 171.152 383.313 171.418 383.313 171.734C383.313 171.983 383.259 172.201 383.15 172.389C383.043 172.574 382.899 172.736 382.717 172.876C382.535 173.013 382.334 173.136 382.112 173.246C382.376 173.366 382.612 173.502 382.822 173.653C383.035 173.804 383.203 173.982 383.326 174.186C383.449 174.391 383.511 174.633 383.511 174.913C383.511 175.257 383.427 175.555 383.259 175.807C383.094 176.056 382.861 176.248 382.562 176.382C382.262 176.517 381.911 176.584 381.508 176.584C381.074 176.584 380.704 176.52 380.399 176.391C380.097 176.259 379.866 176.072 379.706 175.828C379.549 175.582 379.471 175.286 379.471 174.942C379.471 174.659 379.531 174.414 379.652 174.207C379.772 173.997 379.932 173.817 380.13 173.666C380.329 173.514 380.546 173.387 380.781 173.283C380.577 173.171 380.389 173.044 380.219 172.901C380.051 172.758 379.916 172.592 379.815 172.402C379.717 172.208 379.668 171.984 379.668 171.73C379.668 171.419 379.747 171.156 379.904 170.94C380.063 170.722 380.28 170.557 380.554 170.445C380.832 170.33 381.144 170.273 381.491 170.273ZM380.156 174.946C380.156 175.26 380.266 175.519 380.487 175.723C380.708 175.925 381.043 176.025 381.491 176.025C381.916 176.025 382.245 175.925 382.478 175.723C382.71 175.519 382.826 175.251 382.826 174.921C382.826 174.717 382.773 174.538 382.667 174.384C382.56 174.227 382.409 174.087 382.213 173.964C382.017 173.84 381.786 173.729 381.52 173.628L381.369 173.573C381.112 173.68 380.892 173.799 380.71 173.93C380.531 174.059 380.393 174.206 380.298 174.371C380.203 174.536 380.156 174.728 380.156 174.946ZM381.482 170.844C381.152 170.844 380.882 170.923 380.672 171.083C380.462 171.24 380.357 171.467 380.357 171.763C380.357 171.976 380.407 172.157 380.508 172.305C380.612 172.451 380.752 172.577 380.928 172.683C381.105 172.786 381.302 172.883 381.52 172.973C381.733 172.883 381.922 172.785 382.087 172.679C382.252 172.57 382.383 172.441 382.478 172.292C382.573 172.144 382.62 171.966 382.62 171.759C382.62 171.462 382.515 171.236 382.306 171.079C382.098 170.922 381.824 170.844 381.482 170.844ZM389.091 171.814C389.665 171.814 390.123 172.011 390.465 172.406C390.806 172.8 390.977 173.394 390.977 174.186C390.977 174.71 390.899 175.149 390.742 175.505C390.585 175.86 390.364 176.129 390.078 176.311C389.796 176.493 389.461 176.584 389.075 176.584C388.831 176.584 388.617 176.552 388.432 176.487C388.247 176.423 388.089 176.336 387.958 176.227C387.826 176.118 387.717 175.999 387.63 175.87H387.58C387.588 175.979 387.598 176.111 387.609 176.265C387.623 176.419 387.63 176.553 387.63 176.668V178.558H386.929V171.898H387.504L387.597 172.578H387.63C387.72 172.438 387.829 172.311 387.958 172.196C388.086 172.078 388.243 171.986 388.428 171.919C388.616 171.849 388.837 171.814 389.091 171.814ZM388.97 172.402C388.651 172.402 388.393 172.463 388.197 172.586C388.004 172.71 387.863 172.894 387.773 173.141C387.683 173.384 387.636 173.691 387.63 174.06V174.195C387.63 174.584 387.672 174.913 387.756 175.181C387.843 175.45 387.984 175.655 388.18 175.795C388.379 175.935 388.645 176.004 388.978 176.004C389.264 176.004 389.502 175.928 389.692 175.774C389.882 175.62 390.024 175.405 390.116 175.131C390.211 174.854 390.259 174.536 390.259 174.178C390.259 173.635 390.152 173.204 389.94 172.884C389.73 172.563 389.406 172.402 388.97 172.402ZM393.291 174.144L391.699 171.898H392.497L393.711 173.67L394.92 171.898H395.709L394.118 174.144L395.798 176.5H395L393.711 174.623L392.413 176.5H391.624L393.291 174.144Z" fill="#F7E5FF"/>
</svg>
