<svg width="728" height="274" viewBox="0 0 728 274" fill="none" xmlns="http://www.w3.org/2000/svg">
<g clip-path="url(#clip0_5358_6237)">
<rect width="728" height="274" rx="8" fill="#F3F6F9"/>
<g clip-path="url(#clip1_5358_6237)">
<rect x="184" y="-297" width="360" height="528" rx="16" fill="white"/>
<g clip-path="url(#clip2_5358_6237)">
<rect width="328" height="72" transform="translate(200 -41)" fill="white"/>
<rect x="216" y="-29" width="139" height="48" rx="4" fill="#E5E5E5"/>
<rect x="416" y="-17" width="102" height="24" rx="4" fill="#E5E5E5"/>
<line x1="200" y1="30.5" x2="528" y2="30.5" stroke="#E6EBF0"/>
<rect width="328" height="72" transform="translate(200 31)" fill="#F3F6F9"/>
<rect x="216" y="43" width="139" height="48" rx="4" fill="#E5E5E5"/>
<rect x="416" y="55" width="102" height="24" rx="4" fill="#E5E5E5"/>
<line x1="200" y1="102.5" x2="528" y2="102.5" stroke="#E6EBF0"/>
<rect width="328" height="72" transform="translate(200 103)" fill="white"/>
<rect x="216" y="115" width="139" height="48" rx="4" fill="#E5E5E5"/>
<rect x="416" y="127" width="102" height="24" rx="4" fill="#E5E5E5"/>
<line x1="200" y1="174.5" x2="528" y2="174.5" stroke="#E6EBF0"/>
</g>
<rect x="200.5" y="-204.5" width="327" height="379" rx="7.5" stroke="#E6EBF0"/>
<rect x="200" y="183" width="328" height="16" rx="8" fill="#F3F6F9"/>
<rect x="200" y="183" width="124" height="16" rx="8" fill="#9EAAB8"/>
</g>
<rect x="184.5" y="-296.5" width="359" height="527" rx="15.5" stroke="#E6EBF0"/>
<rect x="242.505" y="175.078" width="8" height="90.5052" transform="rotate(90 242.505 175.078)" fill="#F7E5FF"/>
<mask id="mask0_5358_6237" style="mask-type:alpha" maskUnits="userSpaceOnUse" x="152" y="175" width="91" height="9">
<rect x="242.505" y="175.078" width="8" height="90.5052" transform="rotate(90 242.505 175.078)" fill="#F7E5FF"/>
</mask>
<g mask="url(#mask0_5358_6237)">
<line y1="-0.25" x2="37.304" y2="-0.25" transform="matrix(-0.97046 -0.241261 0.97046 -0.241261 267.392 183.578)" stroke="#D366FF" stroke-width="0.5"/>
<line y1="-0.25" x2="37.304" y2="-0.25" transform="matrix(-0.97046 -0.241261 0.97046 -0.241261 260.608 183.578)" stroke="#D366FF" stroke-width="0.5"/>
<line y1="-0.25" x2="37.304" y2="-0.25" transform="matrix(-0.97046 -0.241261 0.97046 -0.241261 253.818 183.578)" stroke="#D366FF" stroke-width="0.5"/>
<line y1="-0.25" x2="37.304" y2="-0.25" transform="matrix(-0.97046 -0.241261 0.97046 -0.241261 247.029 183.577)" stroke="#D366FF" stroke-width="0.5"/>
<line y1="-0.25" x2="37.304" y2="-0.25" transform="matrix(-0.97046 -0.241261 0.97046 -0.241261 240.242 183.578)" stroke="#D366FF" stroke-width="0.5"/>
<line y1="-0.25" x2="37.304" y2="-0.25" transform="matrix(-0.97046 -0.241261 0.97046 -0.241261 233.455 183.578)" stroke="#D366FF" stroke-width="0.5"/>
<line y1="-0.25" x2="37.304" y2="-0.25" transform="matrix(-0.97046 -0.241261 0.97046 -0.241261 226.666 183.578)" stroke="#D366FF" stroke-width="0.5"/>
<line y1="-0.25" x2="37.304" y2="-0.25" transform="matrix(-0.97046 -0.241261 0.97046 -0.241261 219.879 183.578)" stroke="#D366FF" stroke-width="0.5"/>
<line y1="-0.25" x2="37.304" y2="-0.25" transform="matrix(-0.97046 -0.241261 0.97046 -0.241261 213.092 183.578)" stroke="#D366FF" stroke-width="0.5"/>
<line y1="-0.25" x2="37.304" y2="-0.25" transform="matrix(-0.97046 -0.241261 0.97046 -0.241261 206.302 183.578)" stroke="#D366FF" stroke-width="0.5"/>
<line y1="-0.25" x2="37.304" y2="-0.25" transform="matrix(-0.97046 -0.241261 0.97046 -0.241261 199.516 183.579)" stroke="#D366FF" stroke-width="0.5"/>
<line y1="-0.25" x2="37.304" y2="-0.25" transform="matrix(-0.97046 -0.241261 0.97046 -0.241261 192.726 183.578)" stroke="#D366FF" stroke-width="0.5"/>
<line y1="-0.25" x2="37.304" y2="-0.25" transform="matrix(-0.97046 -0.241261 0.97046 -0.241261 185.939 183.577)" stroke="#D366FF" stroke-width="0.5"/>
<line y1="-0.25" x2="37.304" y2="-0.25" transform="matrix(-0.97046 -0.241261 0.97046 -0.241261 179.153 183.579)" stroke="#D366FF" stroke-width="0.5"/>
<line y1="-0.25" x2="37.304" y2="-0.25" transform="matrix(-0.97046 -0.241261 0.97046 -0.241261 172.363 183.578)" stroke="#D366FF" stroke-width="0.5"/>
<line y1="-0.25" x2="37.304" y2="-0.25" transform="matrix(-0.97046 -0.241261 0.97046 -0.241261 165.576 183.578)" stroke="#D366FF" stroke-width="0.5"/>
<line y1="-0.25" x2="37.304" y2="-0.25" transform="matrix(-0.97046 -0.241261 0.97046 -0.241261 158.79 183.578)" stroke="#D366FF" stroke-width="0.5"/>
</g>
<rect x="296.805" y="175.078" width="8" height="90.5052" transform="rotate(90 296.805 175.078)" fill="#F7E5FF"/>
<mask id="mask1_5358_6237" style="mask-type:alpha" maskUnits="userSpaceOnUse" x="206" y="175" width="91" height="9">
<rect x="296.805" y="175.078" width="8" height="90.5052" transform="rotate(90 296.805 175.078)" fill="#F7E5FF"/>
</mask>
<g mask="url(#mask1_5358_6237)">
<line y1="-0.25" x2="37.304" y2="-0.25" transform="matrix(-0.97046 -0.241261 0.97046 -0.241261 321.691 183.578)" stroke="#D366FF" stroke-width="0.5"/>
<line y1="-0.25" x2="37.304" y2="-0.25" transform="matrix(-0.97046 -0.241261 0.97046 -0.241261 314.907 183.578)" stroke="#D366FF" stroke-width="0.5"/>
<line y1="-0.25" x2="37.304" y2="-0.25" transform="matrix(-0.97046 -0.241261 0.97046 -0.241261 308.118 183.578)" stroke="#D366FF" stroke-width="0.5"/>
<line y1="-0.25" x2="37.304" y2="-0.25" transform="matrix(-0.97046 -0.241261 0.97046 -0.241261 301.328 183.577)" stroke="#D366FF" stroke-width="0.5"/>
<line y1="-0.25" x2="37.304" y2="-0.25" transform="matrix(-0.97046 -0.241261 0.97046 -0.241261 294.541 183.578)" stroke="#D366FF" stroke-width="0.5"/>
<line y1="-0.25" x2="37.304" y2="-0.25" transform="matrix(-0.97046 -0.241261 0.97046 -0.241261 287.755 183.578)" stroke="#D366FF" stroke-width="0.5"/>
<line y1="-0.25" x2="37.304" y2="-0.25" transform="matrix(-0.97046 -0.241261 0.97046 -0.241261 280.965 183.578)" stroke="#D366FF" stroke-width="0.5"/>
<line y1="-0.25" x2="37.304" y2="-0.25" transform="matrix(-0.97046 -0.241261 0.97046 -0.241261 274.178 183.578)" stroke="#D366FF" stroke-width="0.5"/>
<line y1="-0.25" x2="37.304" y2="-0.25" transform="matrix(-0.97046 -0.241261 0.97046 -0.241261 267.392 183.578)" stroke="#D366FF" stroke-width="0.5"/>
<line y1="-0.25" x2="37.304" y2="-0.25" transform="matrix(-0.97046 -0.241261 0.97046 -0.241261 260.602 183.578)" stroke="#D366FF" stroke-width="0.5"/>
<line y1="-0.25" x2="37.304" y2="-0.25" transform="matrix(-0.97046 -0.241261 0.97046 -0.241261 253.815 183.579)" stroke="#D366FF" stroke-width="0.5"/>
<line y1="-0.25" x2="37.304" y2="-0.25" transform="matrix(-0.97046 -0.241261 0.97046 -0.241261 247.025 183.578)" stroke="#D366FF" stroke-width="0.5"/>
<line y1="-0.25" x2="37.304" y2="-0.25" transform="matrix(-0.97046 -0.241261 0.97046 -0.241261 240.239 183.577)" stroke="#D366FF" stroke-width="0.5"/>
<line y1="-0.25" x2="37.304" y2="-0.25" transform="matrix(-0.97046 -0.241261 0.97046 -0.241261 233.452 183.579)" stroke="#D366FF" stroke-width="0.5"/>
<line y1="-0.25" x2="37.304" y2="-0.25" transform="matrix(-0.97046 -0.241261 0.97046 -0.241261 226.662 183.578)" stroke="#D366FF" stroke-width="0.5"/>
<line y1="-0.25" x2="37.304" y2="-0.25" transform="matrix(-0.97046 -0.241261 0.97046 -0.241261 219.876 183.578)" stroke="#D366FF" stroke-width="0.5"/>
<line y1="-0.25" x2="37.304" y2="-0.25" transform="matrix(-0.97046 -0.241261 0.97046 -0.241261 213.089 183.578)" stroke="#D366FF" stroke-width="0.5"/>
</g>
<rect x="385.046" y="175.078" width="8" height="90.5052" transform="rotate(90 385.046 175.078)" fill="#F7E5FF"/>
<mask id="mask2_5358_6237" style="mask-type:alpha" maskUnits="userSpaceOnUse" x="294" y="175" width="92" height="9">
<rect x="385.046" y="175.078" width="8" height="90.5052" transform="rotate(90 385.046 175.078)" fill="#F7E5FF"/>
</mask>
<g mask="url(#mask2_5358_6237)">
<line y1="-0.25" x2="37.304" y2="-0.25" transform="matrix(-0.97046 -0.241261 0.97046 -0.241261 409.933 183.578)" stroke="#D366FF" stroke-width="0.5"/>
<line y1="-0.25" x2="37.304" y2="-0.25" transform="matrix(-0.97046 -0.241261 0.97046 -0.241261 403.149 183.578)" stroke="#D366FF" stroke-width="0.5"/>
<line y1="-0.25" x2="37.304" y2="-0.25" transform="matrix(-0.97046 -0.241261 0.97046 -0.241261 396.359 183.578)" stroke="#D366FF" stroke-width="0.5"/>
<line y1="-0.25" x2="37.304" y2="-0.25" transform="matrix(-0.97046 -0.241261 0.97046 -0.241261 389.57 183.577)" stroke="#D366FF" stroke-width="0.5"/>
<line y1="-0.25" x2="37.304" y2="-0.25" transform="matrix(-0.97046 -0.241261 0.97046 -0.241261 382.783 183.578)" stroke="#D366FF" stroke-width="0.5"/>
<line y1="-0.25" x2="37.304" y2="-0.25" transform="matrix(-0.97046 -0.241261 0.97046 -0.241261 375.996 183.578)" stroke="#D366FF" stroke-width="0.5"/>
<line y1="-0.25" x2="37.304" y2="-0.25" transform="matrix(-0.97046 -0.241261 0.97046 -0.241261 369.207 183.578)" stroke="#D366FF" stroke-width="0.5"/>
<line y1="-0.25" x2="37.304" y2="-0.25" transform="matrix(-0.97046 -0.241261 0.97046 -0.241261 362.42 183.578)" stroke="#D366FF" stroke-width="0.5"/>
<line y1="-0.25" x2="37.304" y2="-0.25" transform="matrix(-0.97046 -0.241261 0.97046 -0.241261 355.633 183.578)" stroke="#D366FF" stroke-width="0.5"/>
<line y1="-0.25" x2="37.304" y2="-0.25" transform="matrix(-0.97046 -0.241261 0.97046 -0.241261 348.844 183.578)" stroke="#D366FF" stroke-width="0.5"/>
<line y1="-0.25" x2="37.304" y2="-0.25" transform="matrix(-0.97046 -0.241261 0.97046 -0.241261 342.057 183.579)" stroke="#D366FF" stroke-width="0.5"/>
<line y1="-0.25" x2="37.304" y2="-0.25" transform="matrix(-0.97046 -0.241261 0.97046 -0.241261 335.267 183.578)" stroke="#D366FF" stroke-width="0.5"/>
<line y1="-0.25" x2="37.304" y2="-0.25" transform="matrix(-0.97046 -0.241261 0.97046 -0.241261 328.481 183.577)" stroke="#D366FF" stroke-width="0.5"/>
<line y1="-0.25" x2="37.304" y2="-0.25" transform="matrix(-0.97046 -0.241261 0.97046 -0.241261 321.694 183.579)" stroke="#D366FF" stroke-width="0.5"/>
<line y1="-0.25" x2="37.304" y2="-0.25" transform="matrix(-0.97046 -0.241261 0.97046 -0.241261 314.904 183.578)" stroke="#D366FF" stroke-width="0.5"/>
<line y1="-0.25" x2="37.304" y2="-0.25" transform="matrix(-0.97046 -0.241261 0.97046 -0.241261 308.118 183.578)" stroke="#D366FF" stroke-width="0.5"/>
<line y1="-0.25" x2="37.304" y2="-0.25" transform="matrix(-0.97046 -0.241261 0.97046 -0.241261 301.331 183.578)" stroke="#D366FF" stroke-width="0.5"/>
</g>
<rect x="472.976" y="175" width="8" height="90.5052" transform="rotate(90 472.976 175)" fill="#F7E5FF"/>
<mask id="mask3_5358_6237" style="mask-type:alpha" maskUnits="userSpaceOnUse" x="382" y="175" width="91" height="8">
<rect x="472.976" y="175" width="8" height="90.5052" transform="rotate(90 472.976 175)" fill="#F7E5FF"/>
</mask>
<g mask="url(#mask3_5358_6237)">
<line y1="-0.25" x2="37.304" y2="-0.25" transform="matrix(-0.97046 -0.241261 0.97046 -0.241261 497.862 183.5)" stroke="#D366FF" stroke-width="0.5"/>
<line y1="-0.25" x2="37.304" y2="-0.25" transform="matrix(-0.97046 -0.241261 0.97046 -0.241261 491.079 183.5)" stroke="#D366FF" stroke-width="0.5"/>
<line y1="-0.25" x2="37.304" y2="-0.25" transform="matrix(-0.97046 -0.241261 0.97046 -0.241261 484.289 183.5)" stroke="#D366FF" stroke-width="0.5"/>
<line y1="-0.25" x2="37.304" y2="-0.25" transform="matrix(-0.97046 -0.241261 0.97046 -0.241261 477.499 183.499)" stroke="#D366FF" stroke-width="0.5"/>
<line y1="-0.25" x2="37.304" y2="-0.25" transform="matrix(-0.97046 -0.241261 0.97046 -0.241261 470.713 183.5)" stroke="#D366FF" stroke-width="0.5"/>
<line y1="-0.25" x2="37.304" y2="-0.25" transform="matrix(-0.97046 -0.241261 0.97046 -0.241261 463.926 183.5)" stroke="#D366FF" stroke-width="0.5"/>
<line y1="-0.25" x2="37.304" y2="-0.25" transform="matrix(-0.97046 -0.241261 0.97046 -0.241261 457.136 183.5)" stroke="#D366FF" stroke-width="0.5"/>
<line y1="-0.25" x2="37.304" y2="-0.25" transform="matrix(-0.97046 -0.241261 0.97046 -0.241261 450.35 183.5)" stroke="#D366FF" stroke-width="0.5"/>
<line y1="-0.25" x2="37.304" y2="-0.25" transform="matrix(-0.97046 -0.241261 0.97046 -0.241261 443.563 183.5)" stroke="#D366FF" stroke-width="0.5"/>
<line y1="-0.25" x2="37.304" y2="-0.25" transform="matrix(-0.97046 -0.241261 0.97046 -0.241261 436.773 183.5)" stroke="#D366FF" stroke-width="0.5"/>
<line y1="-0.25" x2="37.304" y2="-0.25" transform="matrix(-0.97046 -0.241261 0.97046 -0.241261 429.987 183.5)" stroke="#D366FF" stroke-width="0.5"/>
<line y1="-0.25" x2="37.304" y2="-0.25" transform="matrix(-0.97046 -0.241261 0.97046 -0.241261 423.197 183.5)" stroke="#D366FF" stroke-width="0.5"/>
<line y1="-0.25" x2="37.304" y2="-0.25" transform="matrix(-0.97046 -0.241261 0.97046 -0.241261 416.41 183.499)" stroke="#D366FF" stroke-width="0.5"/>
<line y1="-0.25" x2="37.304" y2="-0.25" transform="matrix(-0.97046 -0.241261 0.97046 -0.241261 409.624 183.5)" stroke="#D366FF" stroke-width="0.5"/>
<line y1="-0.25" x2="37.304" y2="-0.25" transform="matrix(-0.97046 -0.241261 0.97046 -0.241261 402.834 183.5)" stroke="#D366FF" stroke-width="0.5"/>
<line y1="-0.25" x2="37.304" y2="-0.25" transform="matrix(-0.97046 -0.241261 0.97046 -0.241261 396.047 183.5)" stroke="#D366FF" stroke-width="0.5"/>
<line y1="-0.25" x2="37.304" y2="-0.25" transform="matrix(-0.97046 -0.241261 0.97046 -0.241261 389.26 183.5)" stroke="#D366FF" stroke-width="0.5"/>
</g>
<path d="M579.74 173.862C580.318 173.862 580.831 173.953 581.278 174.136C581.724 174.318 582.073 174.587 582.323 174.942C582.579 175.293 582.706 175.726 582.706 176.241C582.706 176.647 582.617 177.002 582.44 177.308C582.267 177.608 582.032 177.873 581.736 178.101C581.439 178.324 581.111 178.524 580.751 178.702C581.18 178.898 581.565 179.119 581.906 179.365C582.253 179.611 582.526 179.901 582.727 180.233C582.927 180.566 583.028 180.96 583.028 181.416C583.028 181.977 582.891 182.462 582.617 182.872C582.349 183.278 581.97 183.59 581.483 183.809C580.995 184.027 580.423 184.137 579.767 184.137C579.06 184.137 578.459 184.032 577.962 183.822C577.47 183.608 577.094 183.303 576.834 182.906C576.579 182.505 576.451 182.024 576.451 181.464C576.451 181.004 576.549 180.605 576.745 180.268C576.941 179.926 577.201 179.632 577.525 179.386C577.848 179.14 578.201 178.932 578.584 178.764C578.252 178.581 577.946 178.374 577.668 178.142C577.395 177.909 577.176 177.638 577.012 177.328C576.852 177.014 576.773 176.649 576.773 176.234C576.773 175.729 576.9 175.3 577.156 174.949C577.415 174.594 577.768 174.325 578.215 174.143C578.666 173.956 579.174 173.862 579.74 173.862ZM577.566 181.471C577.566 181.981 577.746 182.403 578.106 182.735C578.466 183.063 579.01 183.228 579.74 183.228C580.432 183.228 580.968 183.063 581.346 182.735C581.724 182.403 581.913 181.967 581.913 181.43C581.913 181.097 581.827 180.805 581.654 180.555C581.48 180.299 581.234 180.072 580.915 179.871C580.596 179.671 580.22 179.488 579.787 179.324L579.541 179.235C579.122 179.409 578.764 179.602 578.468 179.816C578.176 180.026 577.953 180.265 577.798 180.534C577.643 180.803 577.566 181.115 577.566 181.471ZM579.726 174.792C579.188 174.792 578.748 174.922 578.406 175.182C578.065 175.437 577.894 175.806 577.894 176.289C577.894 176.635 577.976 176.929 578.14 177.171C578.309 177.408 578.536 177.613 578.823 177.786C579.111 177.955 579.432 178.112 579.787 178.258C580.134 178.112 580.441 177.952 580.71 177.779C580.979 177.602 581.191 177.392 581.346 177.15C581.501 176.909 581.578 176.619 581.578 176.282C581.578 175.799 581.407 175.43 581.066 175.175C580.728 174.92 580.282 174.792 579.726 174.792ZM592.113 176.371C593.047 176.371 593.792 176.692 594.348 177.335C594.904 177.978 595.182 178.944 595.182 180.233C595.182 181.086 595.054 181.801 594.799 182.38C594.544 182.959 594.184 183.396 593.719 183.692C593.259 183.989 592.714 184.137 592.085 184.137C591.689 184.137 591.34 184.084 591.039 183.979C590.739 183.875 590.481 183.733 590.267 183.556C590.053 183.378 589.875 183.184 589.734 182.975L589.652 182.975C589.665 183.152 589.681 183.367 589.699 183.617C589.722 183.868 589.734 184.087 589.734 184.273L589.734 187.35L588.592 187.35L588.592 176.508L589.529 176.508L589.679 177.615L589.734 177.615C589.879 177.387 590.057 177.18 590.267 176.993C590.476 176.802 590.732 176.651 591.032 176.542C591.338 176.428 591.698 176.371 592.113 176.371ZM591.914 177.328C591.395 177.328 590.976 177.428 590.656 177.629C590.342 177.829 590.112 178.13 589.966 178.531C589.82 178.928 589.743 179.427 589.734 180.028L589.734 180.247C589.734 180.881 589.802 181.416 589.939 181.854C590.08 182.291 590.31 182.624 590.629 182.852C590.953 183.079 591.386 183.193 591.928 183.193C592.393 183.193 592.78 183.068 593.09 182.817C593.4 182.567 593.63 182.218 593.781 181.771C593.935 181.32 594.013 180.803 594.013 180.22C594.013 179.336 593.84 178.634 593.493 178.114C593.152 177.59 592.625 177.328 591.914 177.328ZM598.948 180.165L596.358 176.508L597.656 176.508L599.632 179.393L601.601 176.508L602.886 176.508L600.295 180.165L603.03 184L601.731 184L599.632 180.944L597.52 184L596.235 184L598.948 180.165Z" fill="#080F1C"/>
<rect x="561.202" y="175" width="8" height="90.5052" transform="rotate(90 561.202 175)" fill="#F7E5FF"/>
<mask id="mask4_5358_6237" style="mask-type:alpha" maskUnits="userSpaceOnUse" x="470" y="175" width="92" height="8">
<rect x="561.202" y="175" width="8" height="90.5052" transform="rotate(90 561.202 175)" fill="#F7E5FF"/>
</mask>
<g mask="url(#mask4_5358_6237)">
<line y1="-0.25" x2="37.304" y2="-0.25" transform="matrix(-0.97046 -0.241261 0.97046 -0.241261 586.088 183.5)" stroke="#D366FF" stroke-width="0.5"/>
<line y1="-0.25" x2="37.304" y2="-0.25" transform="matrix(-0.97046 -0.241261 0.97046 -0.241261 579.305 183.5)" stroke="#D366FF" stroke-width="0.5"/>
<line y1="-0.25" x2="37.304" y2="-0.25" transform="matrix(-0.97046 -0.241261 0.97046 -0.241261 572.515 183.5)" stroke="#D366FF" stroke-width="0.5"/>
<line y1="-0.25" x2="37.304" y2="-0.25" transform="matrix(-0.97046 -0.241261 0.97046 -0.241261 565.725 183.499)" stroke="#D366FF" stroke-width="0.5"/>
<line y1="-0.25" x2="37.304" y2="-0.25" transform="matrix(-0.97046 -0.241261 0.97046 -0.241261 558.938 183.5)" stroke="#D366FF" stroke-width="0.5"/>
<line y1="-0.25" x2="37.304" y2="-0.25" transform="matrix(-0.97046 -0.241261 0.97046 -0.241261 552.152 183.5)" stroke="#D366FF" stroke-width="0.5"/>
<line y1="-0.25" x2="37.304" y2="-0.25" transform="matrix(-0.97046 -0.241261 0.97046 -0.241261 545.362 183.5)" stroke="#D366FF" stroke-width="0.5"/>
<line y1="-0.25" x2="37.304" y2="-0.25" transform="matrix(-0.97046 -0.241261 0.97046 -0.241261 538.575 183.5)" stroke="#D366FF" stroke-width="0.5"/>
<line y1="-0.25" x2="37.304" y2="-0.25" transform="matrix(-0.97046 -0.241261 0.97046 -0.241261 531.789 183.5)" stroke="#D366FF" stroke-width="0.5"/>
<line y1="-0.25" x2="37.304" y2="-0.25" transform="matrix(-0.97046 -0.241261 0.97046 -0.241261 524.999 183.5)" stroke="#D366FF" stroke-width="0.5"/>
<line y1="-0.25" x2="37.304" y2="-0.25" transform="matrix(-0.97046 -0.241261 0.97046 -0.241261 518.212 183.5)" stroke="#D366FF" stroke-width="0.5"/>
<line y1="-0.25" x2="37.304" y2="-0.25" transform="matrix(-0.97046 -0.241261 0.97046 -0.241261 511.423 183.5)" stroke="#D366FF" stroke-width="0.5"/>
<line y1="-0.25" x2="37.304" y2="-0.25" transform="matrix(-0.97046 -0.241261 0.97046 -0.241261 504.636 183.499)" stroke="#D366FF" stroke-width="0.5"/>
<line y1="-0.25" x2="37.304" y2="-0.25" transform="matrix(-0.97046 -0.241261 0.97046 -0.241261 497.849 183.5)" stroke="#D366FF" stroke-width="0.5"/>
<line y1="-0.25" x2="37.304" y2="-0.25" transform="matrix(-0.97046 -0.241261 0.97046 -0.241261 491.06 183.5)" stroke="#D366FF" stroke-width="0.5"/>
<line y1="-0.25" x2="37.304" y2="-0.25" transform="matrix(-0.97046 -0.241261 0.97046 -0.241261 484.273 183.5)" stroke="#D366FF" stroke-width="0.5"/>
<line y1="-0.25" x2="37.304" y2="-0.25" transform="matrix(-0.97046 -0.241261 0.97046 -0.241261 477.486 183.5)" stroke="#D366FF" stroke-width="0.5"/>
</g>
<line x1="572.015" y1="175.5" x2="553.621" y2="175.5" stroke="#D366FF" stroke-linecap="round"/>
<line x1="562.318" y1="182.5" x2="562.318" y2="175.5" stroke="#D366FF" stroke-linecap="round"/>
<line x1="572.015" y1="183" x2="553.621" y2="183" stroke="#D366FF" stroke-linecap="round"/>
</g>
<rect x="0.5" y="0.5" width="727" height="273" rx="7.5" stroke="#E6EBF0"/>
<defs>
<clipPath id="clip0_5358_6237">
<rect width="728" height="274" rx="8" fill="white"/>
</clipPath>
<clipPath id="clip1_5358_6237">
<rect x="184" y="-297" width="360" height="528" rx="16" fill="white"/>
</clipPath>
<clipPath id="clip2_5358_6237">
<rect x="200" y="-205" width="328" height="380" rx="8" fill="white"/>
</clipPath>
</defs>
</svg>
