<svg width="356" height="240" viewBox="0 0 356 240" fill="none" xmlns="http://www.w3.org/2000/svg">
<rect x="1" y="1" width="354" height="238" rx="7" fill="white"/>
<rect x="1" y="1" width="354" height="238" rx="7" stroke="#E6EBF0" stroke-width="2"/>
<g clip-path="url(#clip0_5358_6524)">
<rect x="90" y="40" width="176" height="4" rx="2" fill="#F3F6F9"/>
<rect x="90" y="40" width="83.9385" height="4" rx="2" fill="#9EAAB8"/>
</g>
<rect width="49" height="5" transform="translate(90 48)" fill="#E6EBF0"/>
<rect width="176" height="19" transform="translate(90 56)" fill="#E6EBF0"/>
<rect width="49" height="5" transform="translate(90 85)" fill="#E6EBF0"/>
<rect width="176" height="19" transform="translate(90 93)" fill="#E6EBF0"/>
<rect width="49" height="5" transform="translate(90 122)" fill="#E6EBF0"/>
<rect width="84" height="19" transform="translate(90 130)" fill="#E6EBF0"/>
<rect width="49" height="5" transform="translate(182 122)" fill="#E6EBF0"/>
<rect width="84" height="19" transform="translate(182 130)" fill="#E6EBF0"/>
<rect width="49" height="5" transform="translate(90 159)" fill="#E6EBF0"/>
<rect width="176" height="33" transform="translate(90 167)" fill="#E6EBF0"/>
<defs>
<clipPath id="clip0_5358_6524">
<rect x="90" y="40" width="176" height="4" rx="2" fill="white"/>
</clipPath>
</defs>
</svg>
