<svg width="728" height="256" viewBox="0 0 728 256" fill="none" xmlns="http://www.w3.org/2000/svg">
<rect x="1" y="1" width="726" height="254" rx="7" fill="#F3F6F9"/>
<rect x="1" y="1" width="726" height="254" rx="7" stroke="#E6EBF0" stroke-width="2"/>
<path d="M334.903 109.32C334.29 109.32 333.783 109.173 333.383 108.88C332.983 108.587 332.743 108.2 332.663 107.72C332.583 107.213 332.703 106.653 333.023 106.04L345.103 83.32V85.08H332.143C331.423 85.08 330.863 84.8933 330.463 84.52C330.09 84.1467 329.903 83.6267 329.903 82.96C329.903 82.2667 330.09 81.7333 330.463 81.36C330.863 80.9867 331.423 80.8 332.143 80.8H347.623C348.343 80.8 348.93 80.9867 349.383 81.36C349.837 81.7333 350.063 82.2667 350.063 82.96C350.063 83.5467 349.983 84.0667 349.823 84.52C349.663 84.9467 349.45 85.4133 349.183 85.92L337.823 107.64C337.53 108.227 337.143 108.653 336.663 108.92C336.21 109.187 335.623 109.32 334.903 109.32ZM358.248 109C357.554 109 357.008 108.813 356.608 108.44C356.234 108.04 356.048 107.507 356.048 106.84C356.048 106.147 356.234 105.627 356.608 105.28C357.008 104.933 357.554 104.76 358.248 104.76H362.728V85.12H365.208L359.328 88.68C358.821 88.9733 358.341 89.0933 357.888 89.04C357.461 88.96 357.088 88.7733 356.768 88.48C356.474 88.16 356.274 87.7867 356.168 87.36C356.061 86.9333 356.088 86.5067 356.248 86.08C356.434 85.6267 356.781 85.2533 357.288 84.96L362.808 81.64C363.341 81.32 363.874 81.0533 364.408 80.84C364.941 80.6 365.434 80.48 365.888 80.48C366.448 80.48 366.914 80.64 367.288 80.96C367.661 81.2533 367.848 81.7467 367.848 82.44V104.76H371.928C372.621 104.76 373.154 104.933 373.528 105.28C373.928 105.627 374.128 106.147 374.128 106.84C374.128 107.533 373.928 108.067 373.528 108.44C373.154 108.813 372.621 109 371.928 109H358.248ZM388.232 109.4C386.819 109.4 385.379 109.213 383.912 108.84C382.446 108.467 381.099 107.893 379.872 107.12C379.366 106.8 379.019 106.427 378.832 106C378.672 105.547 378.632 105.107 378.712 104.68C378.819 104.227 379.019 103.853 379.312 103.56C379.632 103.24 380.006 103.053 380.432 103C380.886 102.947 381.379 103.067 381.912 103.36C382.899 103.92 383.899 104.347 384.912 104.64C385.926 104.933 387.006 105.08 388.152 105.08C389.272 105.08 390.232 104.88 391.032 104.48C391.832 104.08 392.446 103.52 392.872 102.8C393.299 102.08 393.512 101.24 393.512 100.28C393.512 98.7867 393.059 97.5867 392.152 96.68C391.246 95.7467 390.006 95.28 388.432 95.28C387.579 95.28 386.752 95.4267 385.952 95.72C385.152 95.9867 384.366 96.4667 383.592 97.16C383.352 97.3733 383.046 97.5867 382.672 97.8C382.299 97.9867 381.899 98.08 381.472 98.08C380.806 98.08 380.299 97.9067 379.952 97.56C379.606 97.2133 379.432 96.7333 379.432 96.12V83.04C379.432 82.32 379.619 81.7733 379.992 81.4C380.392 81 380.952 80.8 381.672 80.8H394.832C395.552 80.8 396.099 80.9867 396.472 81.36C396.872 81.7067 397.072 82.2267 397.072 82.92C397.072 83.5867 396.872 84.1067 396.472 84.48C396.099 84.8533 395.552 85.04 394.832 85.04H384.432V94H383.112C383.806 93.0667 384.726 92.3467 385.872 91.84C387.019 91.3333 388.272 91.08 389.632 91.08C391.419 91.08 392.966 91.4667 394.272 92.24C395.606 92.9867 396.632 94.04 397.352 95.4C398.099 96.7333 398.472 98.2933 398.472 100.08C398.472 101.92 398.059 103.547 397.232 104.96C396.406 106.347 395.219 107.44 393.672 108.24C392.152 109.013 390.339 109.4 388.232 109.4Z" fill="#101E37"/>
<path d="M245.879 147.2C245.292 147.2 244.705 147.153 244.119 147.06C243.532 146.98 242.979 146.853 242.459 146.68C241.939 146.493 241.472 146.267 241.059 146C240.819 145.84 240.652 145.647 240.559 145.42C240.465 145.193 240.432 144.973 240.459 144.76C240.499 144.533 240.585 144.34 240.719 144.18C240.865 144.007 241.045 143.9 241.259 143.86C241.472 143.82 241.705 143.88 241.959 144.04C242.545 144.387 243.165 144.64 243.819 144.8C244.472 144.96 245.159 145.04 245.879 145.04C246.932 145.04 247.699 144.867 248.179 144.52C248.659 144.16 248.899 143.7 248.899 143.14C248.899 142.673 248.725 142.307 248.379 142.04C248.045 141.773 247.465 141.553 246.639 141.38L244.439 140.92C243.172 140.653 242.225 140.207 241.599 139.58C240.985 138.94 240.679 138.1 240.679 137.06C240.679 136.407 240.812 135.813 241.079 135.28C241.345 134.747 241.719 134.287 242.199 133.9C242.692 133.513 243.272 133.22 243.939 133.02C244.619 132.807 245.365 132.7 246.179 132.7C246.979 132.7 247.739 132.8 248.459 133C249.179 133.2 249.825 133.493 250.399 133.88C250.612 134.027 250.752 134.207 250.819 134.42C250.899 134.633 250.919 134.847 250.879 135.06C250.839 135.26 250.745 135.433 250.599 135.58C250.452 135.727 250.265 135.813 250.039 135.84C249.825 135.867 249.579 135.8 249.299 135.64C248.805 135.36 248.305 135.16 247.799 135.04C247.292 134.92 246.745 134.86 246.159 134.86C245.545 134.86 245.019 134.947 244.579 135.12C244.139 135.293 243.799 135.54 243.559 135.86C243.332 136.167 243.219 136.533 243.219 136.96C243.219 137.44 243.379 137.827 243.699 138.12C244.019 138.4 244.565 138.62 245.339 138.78L247.519 139.24C248.839 139.52 249.819 139.96 250.459 140.56C251.112 141.16 251.439 141.96 251.439 142.96C251.439 143.6 251.305 144.18 251.039 144.7C250.785 145.22 250.412 145.667 249.919 146.04C249.439 146.413 248.859 146.7 248.179 146.9C247.499 147.1 246.732 147.2 245.879 147.2ZM257.856 147.2C256.842 147.2 255.962 146.993 255.216 146.58C254.469 146.167 253.889 145.58 253.476 144.82C253.062 144.047 252.856 143.14 252.856 142.1C252.856 141.313 252.969 140.613 253.196 140C253.436 139.373 253.776 138.84 254.216 138.4C254.656 137.947 255.182 137.607 255.796 137.38C256.409 137.14 257.096 137.02 257.856 137.02C258.869 137.02 259.749 137.227 260.496 137.64C261.242 138.053 261.822 138.64 262.236 139.4C262.649 140.16 262.856 141.06 262.856 142.1C262.856 142.887 262.736 143.593 262.496 144.22C262.269 144.847 261.936 145.387 261.496 145.84C261.056 146.28 260.529 146.62 259.916 146.86C259.302 147.087 258.616 147.2 257.856 147.2ZM257.856 145.3C258.349 145.3 258.782 145.18 259.156 144.94C259.529 144.7 259.816 144.347 260.016 143.88C260.229 143.4 260.336 142.807 260.336 142.1C260.336 141.033 260.109 140.24 259.656 139.72C259.202 139.187 258.602 138.92 257.856 138.92C257.362 138.92 256.929 139.04 256.556 139.28C256.182 139.507 255.889 139.86 255.676 140.34C255.476 140.807 255.376 141.393 255.376 142.1C255.376 143.153 255.602 143.953 256.056 144.5C256.509 145.033 257.109 145.3 257.856 145.3ZM268.259 147.2C267.152 147.2 266.319 146.887 265.759 146.26C265.199 145.62 264.919 144.687 264.919 143.46V134C264.919 133.587 265.026 133.273 265.239 133.06C265.452 132.847 265.759 132.74 266.159 132.74C266.559 132.74 266.866 132.847 267.079 133.06C267.306 133.273 267.419 133.587 267.419 134V143.34C267.419 143.953 267.546 144.407 267.799 144.7C268.066 144.993 268.439 145.14 268.919 145.14C269.026 145.14 269.126 145.14 269.219 145.14C269.312 145.127 269.406 145.113 269.499 145.1C269.686 145.073 269.812 145.127 269.879 145.26C269.946 145.38 269.979 145.633 269.979 146.02C269.979 146.353 269.912 146.613 269.779 146.8C269.646 146.987 269.426 147.1 269.119 147.14C268.986 147.153 268.846 147.167 268.699 147.18C268.552 147.193 268.406 147.2 268.259 147.2ZM274.846 147.2C274.033 147.2 273.359 147.053 272.826 146.76C272.293 146.453 271.893 146 271.626 145.4C271.373 144.8 271.246 144.053 271.246 143.16V138.32C271.246 137.893 271.353 137.58 271.566 137.38C271.779 137.167 272.086 137.06 272.486 137.06C272.886 137.06 273.193 137.167 273.406 137.38C273.633 137.58 273.746 137.893 273.746 138.32V143.2C273.746 143.893 273.886 144.407 274.166 144.74C274.446 145.073 274.893 145.24 275.506 145.24C276.173 145.24 276.719 145.013 277.146 144.56C277.573 144.093 277.786 143.48 277.786 142.72V138.32C277.786 137.893 277.893 137.58 278.106 137.38C278.319 137.167 278.626 137.06 279.026 137.06C279.426 137.06 279.733 137.167 279.946 137.38C280.173 137.58 280.286 137.893 280.286 138.32V145.88C280.286 146.733 279.879 147.16 279.066 147.16C278.679 147.16 278.379 147.053 278.166 146.84C277.953 146.613 277.846 146.293 277.846 145.88V144.36L278.126 144.96C277.846 145.68 277.419 146.233 276.846 146.62C276.286 147.007 275.619 147.2 274.846 147.2ZM287.408 147.2C286.381 147.2 285.488 146.993 284.728 146.58C283.968 146.153 283.381 145.553 282.968 144.78C282.555 144.007 282.348 143.1 282.348 142.06C282.348 141.273 282.461 140.573 282.688 139.96C282.928 139.333 283.268 138.807 283.708 138.38C284.148 137.94 284.681 137.607 285.308 137.38C285.935 137.14 286.635 137.02 287.408 137.02C287.848 137.02 288.321 137.08 288.828 137.2C289.348 137.32 289.835 137.52 290.288 137.8C290.501 137.933 290.641 138.093 290.708 138.28C290.775 138.467 290.788 138.66 290.748 138.86C290.708 139.047 290.621 139.213 290.488 139.36C290.368 139.493 290.215 139.58 290.028 139.62C289.841 139.647 289.635 139.6 289.408 139.48C289.115 139.307 288.815 139.18 288.508 139.1C288.201 139.007 287.908 138.96 287.628 138.96C287.188 138.96 286.801 139.033 286.468 139.18C286.135 139.313 285.848 139.513 285.608 139.78C285.381 140.033 285.208 140.353 285.088 140.74C284.968 141.127 284.908 141.573 284.908 142.08C284.908 143.067 285.141 143.847 285.608 144.42C286.088 144.98 286.761 145.26 287.628 145.26C287.908 145.26 288.195 145.22 288.488 145.14C288.795 145.06 289.101 144.933 289.408 144.76C289.635 144.64 289.835 144.6 290.008 144.64C290.195 144.68 290.348 144.773 290.468 144.92C290.588 145.053 290.661 145.22 290.688 145.42C290.715 145.607 290.688 145.793 290.608 145.98C290.541 146.167 290.408 146.32 290.208 146.44C289.768 146.707 289.301 146.9 288.808 147.02C288.315 147.14 287.848 147.2 287.408 147.2ZM293.561 147.14C293.161 147.14 292.855 147.02 292.641 146.78C292.428 146.54 292.321 146.207 292.321 145.78V138.44C292.321 138 292.428 137.667 292.641 137.44C292.855 137.2 293.161 137.08 293.561 137.08C293.961 137.08 294.268 137.2 294.481 137.44C294.708 137.667 294.821 138 294.821 138.44V145.78C294.821 146.207 294.715 146.54 294.501 146.78C294.288 147.02 293.975 147.14 293.561 147.14ZM293.561 135.22C293.095 135.22 292.728 135.107 292.461 134.88C292.208 134.64 292.081 134.313 292.081 133.9C292.081 133.473 292.208 133.147 292.461 132.92C292.728 132.693 293.095 132.58 293.561 132.58C294.041 132.58 294.408 132.693 294.661 132.92C294.915 133.147 295.041 133.473 295.041 133.9C295.041 134.313 294.915 134.64 294.661 134.88C294.408 135.107 294.041 135.22 293.561 135.22ZM301.879 147.2C300.866 147.2 299.986 146.993 299.239 146.58C298.492 146.167 297.912 145.58 297.499 144.82C297.086 144.047 296.879 143.14 296.879 142.1C296.879 141.313 296.992 140.613 297.219 140C297.459 139.373 297.799 138.84 298.239 138.4C298.679 137.947 299.206 137.607 299.819 137.38C300.432 137.14 301.119 137.02 301.879 137.02C302.892 137.02 303.772 137.227 304.519 137.64C305.266 138.053 305.846 138.64 306.259 139.4C306.672 140.16 306.879 141.06 306.879 142.1C306.879 142.887 306.759 143.593 306.519 144.22C306.292 144.847 305.959 145.387 305.519 145.84C305.079 146.28 304.552 146.62 303.939 146.86C303.326 147.087 302.639 147.2 301.879 147.2ZM301.879 145.3C302.372 145.3 302.806 145.18 303.179 144.94C303.552 144.7 303.839 144.347 304.039 143.88C304.252 143.4 304.359 142.807 304.359 142.1C304.359 141.033 304.132 140.24 303.679 139.72C303.226 139.187 302.626 138.92 301.879 138.92C301.386 138.92 300.952 139.04 300.579 139.28C300.206 139.507 299.912 139.86 299.699 140.34C299.499 140.807 299.399 141.393 299.399 142.1C299.399 143.153 299.626 143.953 300.079 144.5C300.532 145.033 301.132 145.3 301.879 145.3ZM310.183 147.16C309.783 147.16 309.476 147.053 309.263 146.84C309.049 146.613 308.943 146.293 308.943 145.88V138.32C308.943 137.907 309.049 137.593 309.263 137.38C309.476 137.167 309.776 137.06 310.163 137.06C310.549 137.06 310.849 137.167 311.063 137.38C311.276 137.593 311.383 137.907 311.383 138.32V139.68L311.163 139.18C311.456 138.473 311.909 137.94 312.523 137.58C313.149 137.207 313.856 137.02 314.643 137.02C315.429 137.02 316.076 137.167 316.583 137.46C317.089 137.753 317.469 138.2 317.723 138.8C317.976 139.387 318.103 140.133 318.103 141.04V145.88C318.103 146.293 317.996 146.613 317.783 146.84C317.569 147.053 317.263 147.16 316.863 147.16C316.463 147.16 316.149 147.053 315.923 146.84C315.709 146.613 315.603 146.293 315.603 145.88V141.16C315.603 140.4 315.456 139.847 315.163 139.5C314.883 139.153 314.443 138.98 313.843 138.98C313.109 138.98 312.523 139.213 312.083 139.68C311.656 140.133 311.443 140.74 311.443 141.5V145.88C311.443 146.733 311.023 147.16 310.183 147.16ZM325.462 147.2C324.355 147.2 323.402 146.993 322.602 146.58C321.802 146.167 321.182 145.58 320.742 144.82C320.315 144.06 320.102 143.16 320.102 142.12C320.102 141.107 320.308 140.22 320.722 139.46C321.148 138.7 321.728 138.107 322.462 137.68C323.208 137.24 324.055 137.02 325.002 137.02C325.695 137.02 326.315 137.133 326.862 137.36C327.422 137.587 327.895 137.913 328.282 138.34C328.682 138.767 328.982 139.287 329.182 139.9C329.395 140.5 329.502 141.18 329.502 141.94C329.502 142.18 329.415 142.367 329.242 142.5C329.082 142.62 328.848 142.68 328.542 142.68H322.122V141.24H327.742L327.422 141.54C327.422 140.927 327.328 140.413 327.142 140C326.968 139.587 326.708 139.273 326.362 139.06C326.028 138.833 325.608 138.72 325.102 138.72C324.542 138.72 324.062 138.853 323.662 139.12C323.275 139.373 322.975 139.74 322.762 140.22C322.562 140.687 322.462 141.247 322.462 141.9V142.04C322.462 143.133 322.715 143.953 323.222 144.5C323.742 145.033 324.502 145.3 325.502 145.3C325.848 145.3 326.235 145.26 326.662 145.18C327.102 145.087 327.515 144.933 327.902 144.72C328.182 144.56 328.428 144.493 328.642 144.52C328.855 144.533 329.022 144.607 329.142 144.74C329.275 144.873 329.355 145.04 329.382 145.24C329.408 145.427 329.368 145.62 329.262 145.82C329.168 146.02 329.002 146.193 328.762 146.34C328.295 146.633 327.755 146.853 327.142 147C326.542 147.133 325.982 147.2 325.462 147.2ZM335.062 147.2C334.488 147.2 333.882 147.14 333.242 147.02C332.602 146.9 332.028 146.693 331.522 146.4C331.308 146.267 331.155 146.113 331.062 145.94C330.982 145.753 330.948 145.573 330.962 145.4C330.988 145.213 331.055 145.053 331.162 144.92C331.282 144.787 331.428 144.7 331.602 144.66C331.788 144.62 331.988 144.653 332.202 144.76C332.735 145.013 333.235 145.193 333.702 145.3C334.168 145.393 334.628 145.44 335.082 145.44C335.722 145.44 336.195 145.333 336.502 145.12C336.822 144.893 336.982 144.6 336.982 144.24C336.982 143.933 336.875 143.7 336.662 143.54C336.462 143.367 336.155 143.24 335.742 143.16L333.742 142.78C332.915 142.62 332.282 142.32 331.842 141.88C331.415 141.427 331.202 140.847 331.202 140.14C331.202 139.5 331.375 138.947 331.722 138.48C332.082 138.013 332.575 137.653 333.202 137.4C333.828 137.147 334.548 137.02 335.362 137.02C335.948 137.02 336.495 137.087 337.002 137.22C337.522 137.34 338.022 137.533 338.502 137.8C338.702 137.907 338.835 138.047 338.902 138.22C338.982 138.393 339.002 138.573 338.962 138.76C338.922 138.933 338.842 139.093 338.722 139.24C338.602 139.373 338.448 139.46 338.262 139.5C338.088 139.527 337.888 139.487 337.662 139.38C337.248 139.167 336.848 139.013 336.462 138.92C336.088 138.827 335.728 138.78 335.382 138.78C334.728 138.78 334.242 138.893 333.922 139.12C333.615 139.347 333.462 139.647 333.462 140.02C333.462 140.3 333.555 140.533 333.742 140.72C333.928 140.907 334.215 141.033 334.602 141.1L336.602 141.48C337.468 141.64 338.122 141.933 338.562 142.36C339.015 142.787 339.242 143.36 339.242 144.08C339.242 145.053 338.862 145.82 338.102 146.38C337.342 146.927 336.328 147.2 335.062 147.2ZM347.917 147.14C347.517 147.14 347.21 147.02 346.997 146.78C346.784 146.54 346.677 146.207 346.677 145.78V138.44C346.677 138 346.784 137.667 346.997 137.44C347.21 137.2 347.517 137.08 347.917 137.08C348.317 137.08 348.624 137.2 348.837 137.44C349.064 137.667 349.177 138 349.177 138.44V145.78C349.177 146.207 349.07 146.54 348.857 146.78C348.644 147.02 348.33 147.14 347.917 147.14ZM347.917 135.22C347.45 135.22 347.084 135.107 346.817 134.88C346.564 134.64 346.437 134.313 346.437 133.9C346.437 133.473 346.564 133.147 346.817 132.92C347.084 132.693 347.45 132.58 347.917 132.58C348.397 132.58 348.764 132.693 349.017 132.92C349.27 133.147 349.397 133.473 349.397 133.9C349.397 134.313 349.27 134.64 349.017 134.88C348.764 135.107 348.397 135.22 347.917 135.22ZM353.055 147.16C352.655 147.16 352.348 147.053 352.135 146.84C351.921 146.613 351.815 146.293 351.815 145.88V138.32C351.815 137.907 351.921 137.593 352.135 137.38C352.348 137.167 352.648 137.06 353.035 137.06C353.421 137.06 353.721 137.167 353.935 137.38C354.148 137.593 354.255 137.907 354.255 138.32V139.78L354.035 139.18C354.301 138.513 354.715 137.987 355.275 137.6C355.835 137.213 356.501 137.02 357.275 137.02C358.061 137.02 358.708 137.207 359.215 137.58C359.721 137.953 360.075 138.527 360.275 139.3H359.995C360.261 138.593 360.701 138.04 361.315 137.64C361.928 137.227 362.635 137.02 363.435 137.02C364.181 137.02 364.795 137.167 365.275 137.46C365.768 137.753 366.135 138.2 366.375 138.8C366.615 139.387 366.735 140.133 366.735 141.04V145.88C366.735 146.293 366.621 146.613 366.395 146.84C366.181 147.053 365.875 147.16 365.475 147.16C365.075 147.16 364.768 147.053 364.555 146.84C364.341 146.613 364.235 146.293 364.235 145.88V141.14C364.235 140.393 364.108 139.847 363.855 139.5C363.615 139.153 363.201 138.98 362.615 138.98C361.961 138.98 361.448 139.213 361.075 139.68C360.701 140.133 360.515 140.767 360.515 141.58V145.88C360.515 146.293 360.408 146.613 360.195 146.84C359.981 147.053 359.675 147.16 359.275 147.16C358.875 147.16 358.561 147.053 358.335 146.84C358.121 146.613 358.015 146.293 358.015 145.88V141.14C358.015 140.393 357.888 139.847 357.635 139.5C357.395 139.153 356.988 138.98 356.415 138.98C355.761 138.98 355.248 139.213 354.875 139.68C354.501 140.133 354.315 140.767 354.315 141.58V145.88C354.315 146.733 353.895 147.16 353.055 147.16ZM370.554 150.76C370.154 150.76 369.847 150.653 369.634 150.44C369.42 150.227 369.314 149.913 369.314 149.5V138.32C369.314 137.907 369.42 137.593 369.634 137.38C369.847 137.167 370.147 137.06 370.534 137.06C370.934 137.06 371.24 137.167 371.454 137.38C371.667 137.593 371.774 137.907 371.774 138.32V139.88L371.554 139.28C371.754 138.6 372.16 138.053 372.774 137.64C373.4 137.227 374.127 137.02 374.954 137.02C375.807 137.02 376.554 137.227 377.194 137.64C377.847 138.053 378.354 138.64 378.714 139.4C379.074 140.147 379.254 141.047 379.254 142.1C379.254 143.14 379.074 144.047 378.714 144.82C378.354 145.58 377.854 146.167 377.214 146.58C376.574 146.993 375.82 147.2 374.954 147.2C374.14 147.2 373.427 147 372.814 146.6C372.2 146.187 371.787 145.653 371.574 145H371.814V149.5C371.814 149.913 371.7 150.227 371.474 150.44C371.26 150.653 370.954 150.76 370.554 150.76ZM374.254 145.3C374.747 145.3 375.18 145.18 375.554 144.94C375.927 144.7 376.214 144.347 376.414 143.88C376.627 143.4 376.734 142.807 376.734 142.1C376.734 141.033 376.507 140.24 376.054 139.72C375.6 139.187 375 138.92 374.254 138.92C373.76 138.92 373.327 139.04 372.954 139.28C372.58 139.507 372.287 139.86 372.074 140.34C371.874 140.807 371.774 141.393 371.774 142.1C371.774 143.153 372 143.953 372.454 144.5C372.907 145.033 373.507 145.3 374.254 145.3ZM384.646 147.2C383.539 147.2 382.706 146.887 382.146 146.26C381.586 145.62 381.306 144.687 381.306 143.46V134C381.306 133.587 381.413 133.273 381.626 133.06C381.839 132.847 382.146 132.74 382.546 132.74C382.946 132.74 383.253 132.847 383.466 133.06C383.693 133.273 383.806 133.587 383.806 134V143.34C383.806 143.953 383.933 144.407 384.186 144.7C384.453 144.993 384.826 145.14 385.306 145.14C385.413 145.14 385.513 145.14 385.606 145.14C385.699 145.127 385.793 145.113 385.886 145.1C386.073 145.073 386.199 145.127 386.266 145.26C386.333 145.38 386.366 145.633 386.366 146.02C386.366 146.353 386.299 146.613 386.166 146.8C386.033 146.987 385.813 147.1 385.506 147.14C385.373 147.153 385.233 147.167 385.086 147.18C384.939 147.193 384.793 147.2 384.646 147.2ZM392.415 147.2C391.308 147.2 390.355 146.993 389.555 146.58C388.755 146.167 388.135 145.58 387.695 144.82C387.268 144.06 387.055 143.16 387.055 142.12C387.055 141.107 387.262 140.22 387.675 139.46C388.102 138.7 388.682 138.107 389.415 137.68C390.162 137.24 391.008 137.02 391.955 137.02C392.648 137.02 393.268 137.133 393.815 137.36C394.375 137.587 394.848 137.913 395.235 138.34C395.635 138.767 395.935 139.287 396.135 139.9C396.348 140.5 396.455 141.18 396.455 141.94C396.455 142.18 396.368 142.367 396.195 142.5C396.035 142.62 395.802 142.68 395.495 142.68H389.075V141.24H394.695L394.375 141.54C394.375 140.927 394.282 140.413 394.095 140C393.922 139.587 393.662 139.273 393.315 139.06C392.982 138.833 392.562 138.72 392.055 138.72C391.495 138.72 391.015 138.853 390.615 139.12C390.228 139.373 389.928 139.74 389.715 140.22C389.515 140.687 389.415 141.247 389.415 141.9V142.04C389.415 143.133 389.668 143.953 390.175 144.5C390.695 145.033 391.455 145.3 392.455 145.3C392.802 145.3 393.188 145.26 393.615 145.18C394.055 145.087 394.468 144.933 394.855 144.72C395.135 144.56 395.382 144.493 395.595 144.52C395.808 144.533 395.975 144.607 396.095 144.74C396.228 144.873 396.308 145.04 396.335 145.24C396.362 145.427 396.322 145.62 396.215 145.82C396.122 146.02 395.955 146.193 395.715 146.34C395.248 146.633 394.708 146.853 394.095 147C393.495 147.133 392.935 147.2 392.415 147.2ZM399.715 147.16C399.315 147.16 399.008 147.053 398.795 146.84C398.581 146.613 398.475 146.293 398.475 145.88V138.32C398.475 137.907 398.581 137.593 398.795 137.38C399.008 137.167 399.308 137.06 399.695 137.06C400.081 137.06 400.381 137.167 400.595 137.38C400.808 137.593 400.915 137.907 400.915 138.32V139.78L400.695 139.18C400.961 138.513 401.375 137.987 401.935 137.6C402.495 137.213 403.161 137.02 403.935 137.02C404.721 137.02 405.368 137.207 405.875 137.58C406.381 137.953 406.735 138.527 406.935 139.3H406.655C406.921 138.593 407.361 138.04 407.975 137.64C408.588 137.227 409.295 137.02 410.095 137.02C410.841 137.02 411.455 137.167 411.935 137.46C412.428 137.753 412.795 138.2 413.035 138.8C413.275 139.387 413.395 140.133 413.395 141.04V145.88C413.395 146.293 413.281 146.613 413.055 146.84C412.841 147.053 412.535 147.16 412.135 147.16C411.735 147.16 411.428 147.053 411.215 146.84C411.001 146.613 410.895 146.293 410.895 145.88V141.14C410.895 140.393 410.768 139.847 410.515 139.5C410.275 139.153 409.861 138.98 409.275 138.98C408.621 138.98 408.108 139.213 407.735 139.68C407.361 140.133 407.175 140.767 407.175 141.58V145.88C407.175 146.293 407.068 146.613 406.855 146.84C406.641 147.053 406.335 147.16 405.935 147.16C405.535 147.16 405.221 147.053 404.995 146.84C404.781 146.613 404.675 146.293 404.675 145.88V141.14C404.675 140.393 404.548 139.847 404.295 139.5C404.055 139.153 403.648 138.98 403.075 138.98C402.421 138.98 401.908 139.213 401.535 139.68C401.161 140.133 400.975 140.767 400.975 141.58V145.88C400.975 146.733 400.555 147.16 399.715 147.16ZM420.794 147.2C419.687 147.2 418.734 146.993 417.934 146.58C417.134 146.167 416.514 145.58 416.074 144.82C415.647 144.06 415.434 143.16 415.434 142.12C415.434 141.107 415.64 140.22 416.054 139.46C416.48 138.7 417.06 138.107 417.794 137.68C418.54 137.24 419.387 137.02 420.334 137.02C421.027 137.02 421.647 137.133 422.194 137.36C422.754 137.587 423.227 137.913 423.614 138.34C424.014 138.767 424.314 139.287 424.514 139.9C424.727 140.5 424.834 141.18 424.834 141.94C424.834 142.18 424.747 142.367 424.574 142.5C424.414 142.62 424.18 142.68 423.874 142.68H417.454V141.24H423.074L422.754 141.54C422.754 140.927 422.66 140.413 422.474 140C422.3 139.587 422.04 139.273 421.694 139.06C421.36 138.833 420.94 138.72 420.434 138.72C419.874 138.72 419.394 138.853 418.994 139.12C418.607 139.373 418.307 139.74 418.094 140.22C417.894 140.687 417.794 141.247 417.794 141.9V142.04C417.794 143.133 418.047 143.953 418.554 144.5C419.074 145.033 419.834 145.3 420.834 145.3C421.18 145.3 421.567 145.26 421.994 145.18C422.434 145.087 422.847 144.933 423.234 144.72C423.514 144.56 423.76 144.493 423.974 144.52C424.187 144.533 424.354 144.607 424.474 144.74C424.607 144.873 424.687 145.04 424.714 145.24C424.74 145.427 424.7 145.62 424.594 145.82C424.5 146.02 424.334 146.193 424.094 146.34C423.627 146.633 423.087 146.853 422.474 147C421.874 147.133 421.314 147.2 420.794 147.2ZM428.054 147.16C427.654 147.16 427.347 147.053 427.134 146.84C426.92 146.613 426.814 146.293 426.814 145.88V138.32C426.814 137.907 426.92 137.593 427.134 137.38C427.347 137.167 427.647 137.06 428.034 137.06C428.42 137.06 428.72 137.167 428.934 137.38C429.147 137.593 429.254 137.907 429.254 138.32V139.68L429.034 139.18C429.327 138.473 429.78 137.94 430.394 137.58C431.02 137.207 431.727 137.02 432.514 137.02C433.3 137.02 433.947 137.167 434.454 137.46C434.96 137.753 435.34 138.2 435.594 138.8C435.847 139.387 435.974 140.133 435.974 141.04V145.88C435.974 146.293 435.867 146.613 435.654 146.84C435.44 147.053 435.134 147.16 434.734 147.16C434.334 147.16 434.02 147.053 433.794 146.84C433.58 146.613 433.474 146.293 433.474 145.88V141.16C433.474 140.4 433.327 139.847 433.034 139.5C432.754 139.153 432.314 138.98 431.714 138.98C430.98 138.98 430.394 139.213 429.954 139.68C429.527 140.133 429.314 140.74 429.314 141.5V145.88C429.314 146.733 428.894 147.16 428.054 147.16ZM442.993 147.2C442.126 147.2 441.4 147.053 440.813 146.76C440.24 146.467 439.813 146.04 439.533 145.48C439.253 144.907 439.113 144.2 439.113 143.36V139.1H438.073C437.753 139.1 437.506 139.02 437.333 138.86C437.16 138.687 437.073 138.453 437.073 138.16C437.073 137.853 437.16 137.62 437.333 137.46C437.506 137.3 437.753 137.22 438.073 137.22H439.113V135.4C439.113 134.987 439.22 134.673 439.433 134.46C439.66 134.247 439.973 134.14 440.373 134.14C440.773 134.14 441.08 134.247 441.293 134.46C441.506 134.673 441.613 134.987 441.613 135.4V137.22H443.733C444.053 137.22 444.3 137.3 444.473 137.46C444.646 137.62 444.733 137.853 444.733 138.16C444.733 138.453 444.646 138.687 444.473 138.86C444.3 139.02 444.053 139.1 443.733 139.1H441.613V143.22C441.613 143.86 441.753 144.34 442.033 144.66C442.313 144.98 442.766 145.14 443.393 145.14C443.62 145.14 443.82 145.12 443.993 145.08C444.166 145.04 444.32 145.013 444.453 145C444.613 144.987 444.746 145.04 444.853 145.16C444.96 145.267 445.013 145.493 445.013 145.84C445.013 146.107 444.966 146.347 444.873 146.56C444.793 146.76 444.64 146.9 444.413 146.98C444.24 147.033 444.013 147.08 443.733 147.12C443.453 147.173 443.206 147.2 442.993 147.2ZM449.409 147.2C448.702 147.2 448.069 147.067 447.509 146.8C446.962 146.52 446.529 146.147 446.209 145.68C445.902 145.213 445.749 144.687 445.749 144.1C445.749 143.38 445.935 142.813 446.309 142.4C446.682 141.973 447.289 141.667 448.129 141.48C448.969 141.293 450.095 141.2 451.509 141.2H452.509V142.64H451.529C450.702 142.64 450.042 142.68 449.549 142.76C449.055 142.84 448.702 142.98 448.489 143.18C448.289 143.367 448.189 143.633 448.189 143.98C448.189 144.42 448.342 144.78 448.649 145.06C448.955 145.34 449.382 145.48 449.929 145.48C450.369 145.48 450.755 145.38 451.089 145.18C451.435 144.967 451.709 144.68 451.909 144.32C452.109 143.96 452.209 143.547 452.209 143.08V140.78C452.209 140.113 452.062 139.633 451.769 139.34C451.475 139.047 450.982 138.9 450.289 138.9C449.902 138.9 449.482 138.947 449.029 139.04C448.589 139.133 448.122 139.293 447.629 139.52C447.375 139.64 447.149 139.673 446.949 139.62C446.762 139.567 446.615 139.46 446.509 139.3C446.402 139.127 446.349 138.94 446.349 138.74C446.349 138.54 446.402 138.347 446.509 138.16C446.615 137.96 446.795 137.813 447.049 137.72C447.662 137.467 448.249 137.287 448.809 137.18C449.382 137.073 449.902 137.02 450.369 137.02C451.329 137.02 452.115 137.167 452.729 137.46C453.355 137.753 453.822 138.2 454.129 138.8C454.435 139.387 454.589 140.147 454.589 141.08V145.88C454.589 146.293 454.489 146.613 454.289 146.84C454.089 147.053 453.802 147.16 453.429 147.16C453.055 147.16 452.762 147.053 452.549 146.84C452.349 146.613 452.249 146.293 452.249 145.88V144.92H452.409C452.315 145.387 452.129 145.793 451.849 146.14C451.582 146.473 451.242 146.733 450.829 146.92C450.415 147.107 449.942 147.2 449.409 147.2ZM460.886 147.2C460.033 147.2 459.28 146.993 458.626 146.58C457.986 146.167 457.486 145.58 457.126 144.82C456.766 144.047 456.586 143.14 456.586 142.1C456.586 141.047 456.766 140.147 457.126 139.4C457.486 138.64 457.986 138.053 458.626 137.64C459.28 137.227 460.033 137.02 460.886 137.02C461.7 137.02 462.406 137.22 463.006 137.62C463.62 138.02 464.033 138.547 464.246 139.2H464.026V134C464.026 133.587 464.133 133.273 464.346 133.06C464.56 132.847 464.866 132.74 465.266 132.74C465.666 132.74 465.973 132.847 466.186 133.06C466.413 133.273 466.526 133.587 466.526 134V145.88C466.526 146.293 466.42 146.613 466.206 146.84C465.993 147.053 465.686 147.16 465.286 147.16C464.886 147.16 464.58 147.053 464.366 146.84C464.153 146.613 464.046 146.293 464.046 145.88V144.32L464.266 144.92C464.066 145.613 463.66 146.167 463.046 146.58C462.433 146.993 461.713 147.2 460.886 147.2ZM461.586 145.3C462.08 145.3 462.513 145.18 462.886 144.94C463.26 144.7 463.546 144.347 463.746 143.88C463.96 143.4 464.066 142.807 464.066 142.1C464.066 141.033 463.84 140.24 463.386 139.72C462.933 139.187 462.333 138.92 461.586 138.92C461.093 138.92 460.66 139.04 460.286 139.28C459.913 139.507 459.62 139.86 459.406 140.34C459.206 140.807 459.106 141.393 459.106 142.1C459.106 143.153 459.333 143.953 459.786 144.5C460.24 145.033 460.84 145.3 461.586 145.3ZM472.338 147.2C471.632 147.2 470.998 147.067 470.438 146.8C469.892 146.52 469.458 146.147 469.138 145.68C468.832 145.213 468.678 144.687 468.678 144.1C468.678 143.38 468.865 142.813 469.238 142.4C469.612 141.973 470.218 141.667 471.058 141.48C471.898 141.293 473.025 141.2 474.438 141.2H475.438V142.64H474.458C473.632 142.64 472.972 142.68 472.478 142.76C471.985 142.84 471.632 142.98 471.418 143.18C471.218 143.367 471.118 143.633 471.118 143.98C471.118 144.42 471.272 144.78 471.578 145.06C471.885 145.34 472.312 145.48 472.858 145.48C473.298 145.48 473.685 145.38 474.018 145.18C474.365 144.967 474.638 144.68 474.838 144.32C475.038 143.96 475.138 143.547 475.138 143.08V140.78C475.138 140.113 474.992 139.633 474.698 139.34C474.405 139.047 473.912 138.9 473.218 138.9C472.832 138.9 472.412 138.947 471.958 139.04C471.518 139.133 471.052 139.293 470.558 139.52C470.305 139.64 470.078 139.673 469.878 139.62C469.692 139.567 469.545 139.46 469.438 139.3C469.332 139.127 469.278 138.94 469.278 138.74C469.278 138.54 469.332 138.347 469.438 138.16C469.545 137.96 469.725 137.813 469.978 137.72C470.592 137.467 471.178 137.287 471.738 137.18C472.312 137.073 472.832 137.02 473.298 137.02C474.258 137.02 475.045 137.167 475.658 137.46C476.285 137.753 476.752 138.2 477.058 138.8C477.365 139.387 477.518 140.147 477.518 141.08V145.88C477.518 146.293 477.418 146.613 477.218 146.84C477.018 147.053 476.732 147.16 476.358 147.16C475.985 147.16 475.692 147.053 475.478 146.84C475.278 146.613 475.178 146.293 475.178 145.88V144.92H475.338C475.245 145.387 475.058 145.793 474.778 146.14C474.512 146.473 474.172 146.733 473.758 146.92C473.345 147.107 472.872 147.2 472.338 147.2ZM483.636 147.2C483.063 147.2 482.456 147.14 481.816 147.02C481.176 146.9 480.603 146.693 480.096 146.4C479.883 146.267 479.729 146.113 479.636 145.94C479.556 145.753 479.523 145.573 479.536 145.4C479.563 145.213 479.629 145.053 479.736 144.92C479.856 144.787 480.003 144.7 480.176 144.66C480.363 144.62 480.563 144.653 480.776 144.76C481.309 145.013 481.809 145.193 482.276 145.3C482.743 145.393 483.203 145.44 483.656 145.44C484.296 145.44 484.769 145.333 485.076 145.12C485.396 144.893 485.556 144.6 485.556 144.24C485.556 143.933 485.449 143.7 485.236 143.54C485.036 143.367 484.729 143.24 484.316 143.16L482.316 142.78C481.489 142.62 480.856 142.32 480.416 141.88C479.989 141.427 479.776 140.847 479.776 140.14C479.776 139.5 479.949 138.947 480.296 138.48C480.656 138.013 481.149 137.653 481.776 137.4C482.403 137.147 483.123 137.02 483.936 137.02C484.523 137.02 485.069 137.087 485.576 137.22C486.096 137.34 486.596 137.533 487.076 137.8C487.276 137.907 487.409 138.047 487.476 138.22C487.556 138.393 487.576 138.573 487.536 138.76C487.496 138.933 487.416 139.093 487.296 139.24C487.176 139.373 487.023 139.46 486.836 139.5C486.663 139.527 486.463 139.487 486.236 139.38C485.823 139.167 485.423 139.013 485.036 138.92C484.663 138.827 484.303 138.78 483.956 138.78C483.303 138.78 482.816 138.893 482.496 139.12C482.189 139.347 482.036 139.647 482.036 140.02C482.036 140.3 482.129 140.533 482.316 140.72C482.503 140.907 482.789 141.033 483.176 141.1L485.176 141.48C486.043 141.64 486.696 141.933 487.136 142.36C487.589 142.787 487.816 143.36 487.816 144.08C487.816 145.053 487.436 145.82 486.676 146.38C485.916 146.927 484.903 147.2 483.636 147.2Z" fill="#101E37"/>
<path d="M277.781 178V166.578H279.109V178H277.781ZM286.109 169.281C287.125 169.281 287.893 169.531 288.414 170.031C288.935 170.526 289.195 171.323 289.195 172.422V178H287.914V172.508C287.914 171.794 287.75 171.26 287.422 170.906C287.099 170.552 286.602 170.375 285.93 170.375C284.982 170.375 284.315 170.643 283.93 171.18C283.544 171.716 283.352 172.495 283.352 173.516V178H282.055V169.438H283.102L283.297 170.672H283.367C283.549 170.37 283.781 170.117 284.062 169.914C284.344 169.706 284.659 169.549 285.008 169.445C285.357 169.336 285.724 169.281 286.109 169.281ZM294.633 177.094C294.846 177.094 295.065 177.076 295.289 177.039C295.513 177.003 295.695 176.958 295.836 176.906V177.914C295.685 177.982 295.474 178.039 295.203 178.086C294.938 178.133 294.677 178.156 294.422 178.156C293.969 178.156 293.557 178.078 293.188 177.922C292.818 177.76 292.521 177.49 292.297 177.109C292.078 176.729 291.969 176.203 291.969 175.531V170.453H290.75V169.82L291.977 169.312L292.492 167.453H293.273V169.438H295.781V170.453H293.273V175.492C293.273 176.029 293.396 176.43 293.641 176.695C293.891 176.961 294.221 177.094 294.633 177.094ZM300.867 169.281C301.596 169.281 302.221 169.443 302.742 169.766C303.263 170.089 303.661 170.542 303.938 171.125C304.214 171.703 304.352 172.38 304.352 173.156V173.961H298.438C298.453 174.966 298.703 175.732 299.188 176.258C299.672 176.784 300.354 177.047 301.234 177.047C301.776 177.047 302.255 176.997 302.672 176.898C303.089 176.799 303.521 176.654 303.969 176.461V177.602C303.536 177.794 303.107 177.935 302.68 178.023C302.258 178.112 301.758 178.156 301.18 178.156C300.357 178.156 299.638 177.99 299.023 177.656C298.414 177.318 297.94 176.823 297.602 176.172C297.263 175.521 297.094 174.724 297.094 173.781C297.094 172.859 297.247 172.062 297.555 171.391C297.867 170.714 298.305 170.193 298.867 169.828C299.435 169.464 300.102 169.281 300.867 169.281ZM300.852 170.344C300.159 170.344 299.607 170.57 299.195 171.023C298.784 171.477 298.539 172.109 298.461 172.922H302.992C302.987 172.411 302.906 171.964 302.75 171.578C302.599 171.188 302.367 170.885 302.055 170.672C301.742 170.453 301.341 170.344 300.852 170.344ZM310.445 169.281C310.617 169.281 310.797 169.292 310.984 169.312C311.172 169.328 311.339 169.352 311.484 169.383L311.32 170.586C311.18 170.549 311.023 170.521 310.852 170.5C310.68 170.479 310.518 170.469 310.367 170.469C310.023 170.469 309.698 170.539 309.391 170.68C309.089 170.815 308.823 171.013 308.594 171.273C308.365 171.529 308.185 171.839 308.055 172.203C307.924 172.562 307.859 172.964 307.859 173.406V178H306.555V169.438H307.633L307.773 171.016H307.828C308.005 170.698 308.219 170.409 308.469 170.148C308.719 169.883 309.008 169.672 309.336 169.516C309.669 169.359 310.039 169.281 310.445 169.281ZM320.484 173.703C320.484 174.406 320.393 175.034 320.211 175.586C320.029 176.138 319.766 176.604 319.422 176.984C319.078 177.365 318.661 177.656 318.172 177.859C317.688 178.057 317.138 178.156 316.523 178.156C315.951 178.156 315.424 178.057 314.945 177.859C314.471 177.656 314.06 177.365 313.711 176.984C313.367 176.604 313.099 176.138 312.906 175.586C312.719 175.034 312.625 174.406 312.625 173.703C312.625 172.766 312.784 171.969 313.102 171.312C313.419 170.651 313.872 170.148 314.461 169.805C315.055 169.456 315.76 169.281 316.578 169.281C317.359 169.281 318.042 169.456 318.625 169.805C319.214 170.154 319.669 170.659 319.992 171.32C320.32 171.977 320.484 172.771 320.484 173.703ZM313.969 173.703C313.969 174.391 314.06 174.987 314.242 175.492C314.424 175.997 314.706 176.388 315.086 176.664C315.466 176.94 315.956 177.078 316.555 177.078C317.148 177.078 317.635 176.94 318.016 176.664C318.401 176.388 318.685 175.997 318.867 175.492C319.049 174.987 319.141 174.391 319.141 173.703C319.141 173.021 319.049 172.432 318.867 171.938C318.685 171.438 318.404 171.052 318.023 170.781C317.643 170.51 317.151 170.375 316.547 170.375C315.656 170.375 315.003 170.669 314.586 171.258C314.174 171.846 313.969 172.661 313.969 173.703ZM326.75 169.281C327.818 169.281 328.669 169.648 329.305 170.383C329.94 171.117 330.258 172.221 330.258 173.695C330.258 174.669 330.112 175.487 329.82 176.148C329.529 176.81 329.117 177.31 328.586 177.648C328.06 177.987 327.438 178.156 326.719 178.156C326.266 178.156 325.867 178.096 325.523 177.977C325.18 177.857 324.885 177.695 324.641 177.492C324.396 177.289 324.193 177.068 324.031 176.828H323.938C323.953 177.031 323.971 177.276 323.992 177.562C324.018 177.849 324.031 178.099 324.031 178.312V181.828H322.727V169.438H323.797L323.969 170.703H324.031C324.198 170.443 324.401 170.206 324.641 169.992C324.88 169.773 325.172 169.602 325.516 169.477C325.865 169.346 326.276 169.281 326.75 169.281ZM326.523 170.375C325.93 170.375 325.451 170.49 325.086 170.719C324.727 170.948 324.464 171.292 324.297 171.75C324.13 172.203 324.042 172.773 324.031 173.461V173.711C324.031 174.435 324.109 175.047 324.266 175.547C324.427 176.047 324.69 176.427 325.055 176.688C325.424 176.948 325.919 177.078 326.539 177.078C327.07 177.078 327.513 176.935 327.867 176.648C328.221 176.362 328.484 175.964 328.656 175.453C328.833 174.938 328.922 174.346 328.922 173.68C328.922 172.669 328.724 171.867 328.328 171.273C327.938 170.674 327.336 170.375 326.523 170.375ZM335.82 169.281C336.549 169.281 337.174 169.443 337.695 169.766C338.216 170.089 338.615 170.542 338.891 171.125C339.167 171.703 339.305 172.38 339.305 173.156V173.961H333.391C333.406 174.966 333.656 175.732 334.141 176.258C334.625 176.784 335.307 177.047 336.188 177.047C336.729 177.047 337.208 176.997 337.625 176.898C338.042 176.799 338.474 176.654 338.922 176.461V177.602C338.49 177.794 338.06 177.935 337.633 178.023C337.211 178.112 336.711 178.156 336.133 178.156C335.31 178.156 334.591 177.99 333.977 177.656C333.367 177.318 332.893 176.823 332.555 176.172C332.216 175.521 332.047 174.724 332.047 173.781C332.047 172.859 332.201 172.062 332.508 171.391C332.82 170.714 333.258 170.193 333.82 169.828C334.388 169.464 335.055 169.281 335.82 169.281ZM335.805 170.344C335.112 170.344 334.56 170.57 334.148 171.023C333.737 171.477 333.492 172.109 333.414 172.922H337.945C337.94 172.411 337.859 171.964 337.703 171.578C337.552 171.188 337.32 170.885 337.008 170.672C336.695 170.453 336.294 170.344 335.805 170.344ZM345.398 169.281C345.57 169.281 345.75 169.292 345.938 169.312C346.125 169.328 346.292 169.352 346.438 169.383L346.273 170.586C346.133 170.549 345.977 170.521 345.805 170.5C345.633 170.479 345.471 170.469 345.32 170.469C344.977 170.469 344.651 170.539 344.344 170.68C344.042 170.815 343.776 171.013 343.547 171.273C343.318 171.529 343.138 171.839 343.008 172.203C342.878 172.562 342.812 172.964 342.812 173.406V178H341.508V169.438H342.586L342.727 171.016H342.781C342.958 170.698 343.172 170.409 343.422 170.148C343.672 169.883 343.961 169.672 344.289 169.516C344.622 169.359 344.992 169.281 345.398 169.281ZM351.258 169.297C352.279 169.297 353.036 169.526 353.531 169.984C354.026 170.443 354.273 171.174 354.273 172.18V178H353.328L353.078 176.734H353.016C352.776 177.047 352.526 177.31 352.266 177.523C352.005 177.732 351.703 177.891 351.359 178C351.021 178.104 350.604 178.156 350.109 178.156C349.589 178.156 349.125 178.065 348.719 177.883C348.318 177.701 348 177.424 347.766 177.055C347.536 176.685 347.422 176.216 347.422 175.648C347.422 174.794 347.76 174.138 348.438 173.68C349.115 173.221 350.146 172.971 351.531 172.93L353.008 172.867V172.344C353.008 171.604 352.849 171.086 352.531 170.789C352.214 170.492 351.766 170.344 351.188 170.344C350.74 170.344 350.312 170.409 349.906 170.539C349.5 170.669 349.115 170.823 348.75 171L348.352 170.016C348.737 169.818 349.18 169.648 349.68 169.508C350.18 169.367 350.706 169.297 351.258 169.297ZM352.992 173.781L351.688 173.836C350.62 173.878 349.867 174.052 349.43 174.359C348.992 174.667 348.773 175.102 348.773 175.664C348.773 176.154 348.922 176.516 349.219 176.75C349.516 176.984 349.909 177.102 350.398 177.102C351.159 177.102 351.781 176.891 352.266 176.469C352.75 176.047 352.992 175.414 352.992 174.57V173.781ZM359.992 178.156C358.909 178.156 358.049 177.786 357.414 177.047C356.784 176.307 356.469 175.208 356.469 173.75C356.469 172.276 356.792 171.164 357.438 170.414C358.083 169.659 358.943 169.281 360.016 169.281C360.469 169.281 360.865 169.341 361.203 169.461C361.542 169.581 361.833 169.742 362.078 169.945C362.323 170.143 362.529 170.37 362.695 170.625H362.789C362.768 170.464 362.747 170.242 362.727 169.961C362.706 169.68 362.695 169.451 362.695 169.273V165.844H363.992V178H362.945L362.75 176.781H362.695C362.534 177.036 362.328 177.268 362.078 177.477C361.833 177.685 361.539 177.852 361.195 177.977C360.857 178.096 360.456 178.156 359.992 178.156ZM360.195 177.078C361.112 177.078 361.76 176.818 362.141 176.297C362.521 175.776 362.711 175.003 362.711 173.977V173.742C362.711 172.654 362.529 171.818 362.164 171.234C361.805 170.651 361.148 170.359 360.195 170.359C359.398 170.359 358.802 170.667 358.406 171.281C358.01 171.891 357.812 172.724 357.812 173.781C357.812 174.833 358.008 175.646 358.398 176.219C358.794 176.792 359.393 177.078 360.195 177.078ZM374.125 173.703C374.125 174.406 374.034 175.034 373.852 175.586C373.669 176.138 373.406 176.604 373.062 176.984C372.719 177.365 372.302 177.656 371.812 177.859C371.328 178.057 370.779 178.156 370.164 178.156C369.591 178.156 369.065 178.057 368.586 177.859C368.112 177.656 367.701 177.365 367.352 176.984C367.008 176.604 366.74 176.138 366.547 175.586C366.359 175.034 366.266 174.406 366.266 173.703C366.266 172.766 366.424 171.969 366.742 171.312C367.06 170.651 367.513 170.148 368.102 169.805C368.695 169.456 369.401 169.281 370.219 169.281C371 169.281 371.682 169.456 372.266 169.805C372.854 170.154 373.31 170.659 373.633 171.32C373.961 171.977 374.125 172.771 374.125 173.703ZM367.609 173.703C367.609 174.391 367.701 174.987 367.883 175.492C368.065 175.997 368.346 176.388 368.727 176.664C369.107 176.94 369.596 177.078 370.195 177.078C370.789 177.078 371.276 176.94 371.656 176.664C372.042 176.388 372.326 175.997 372.508 175.492C372.69 174.987 372.781 174.391 372.781 173.703C372.781 173.021 372.69 172.432 372.508 171.938C372.326 171.438 372.044 171.052 371.664 170.781C371.284 170.51 370.792 170.375 370.188 170.375C369.297 170.375 368.643 170.669 368.227 171.258C367.815 171.846 367.609 172.661 367.609 173.703ZM381.906 175.656C381.906 176.203 381.768 176.664 381.492 177.039C381.221 177.409 380.831 177.688 380.32 177.875C379.815 178.062 379.211 178.156 378.508 178.156C377.909 178.156 377.391 178.109 376.953 178.016C376.516 177.922 376.133 177.789 375.805 177.617V176.422C376.154 176.594 376.57 176.75 377.055 176.891C377.539 177.031 378.034 177.102 378.539 177.102C379.279 177.102 379.815 176.982 380.148 176.742C380.482 176.503 380.648 176.177 380.648 175.766C380.648 175.531 380.581 175.326 380.445 175.148C380.315 174.966 380.094 174.792 379.781 174.625C379.469 174.453 379.036 174.266 378.484 174.062C377.938 173.854 377.464 173.648 377.062 173.445C376.667 173.237 376.359 172.984 376.141 172.688C375.927 172.391 375.82 172.005 375.82 171.531C375.82 170.807 376.112 170.253 376.695 169.867C377.284 169.477 378.055 169.281 379.008 169.281C379.523 169.281 380.005 169.333 380.453 169.438C380.906 169.536 381.328 169.672 381.719 169.844L381.281 170.883C380.927 170.732 380.549 170.604 380.148 170.5C379.747 170.396 379.339 170.344 378.922 170.344C378.323 170.344 377.862 170.443 377.539 170.641C377.221 170.839 377.062 171.109 377.062 171.453C377.062 171.719 377.135 171.938 377.281 172.109C377.432 172.281 377.672 172.443 378 172.594C378.328 172.745 378.76 172.922 379.297 173.125C379.833 173.323 380.297 173.529 380.688 173.742C381.078 173.951 381.378 174.206 381.586 174.508C381.799 174.805 381.906 175.188 381.906 175.656ZM392.172 169.281C393.24 169.281 394.091 169.648 394.727 170.383C395.362 171.117 395.68 172.221 395.68 173.695C395.68 174.669 395.534 175.487 395.242 176.148C394.951 176.81 394.539 177.31 394.008 177.648C393.482 177.987 392.859 178.156 392.141 178.156C391.688 178.156 391.289 178.096 390.945 177.977C390.602 177.857 390.307 177.695 390.062 177.492C389.818 177.289 389.615 177.068 389.453 176.828H389.359C389.375 177.031 389.393 177.276 389.414 177.562C389.44 177.849 389.453 178.099 389.453 178.312V181.828H388.148V169.438H389.219L389.391 170.703H389.453C389.62 170.443 389.823 170.206 390.062 169.992C390.302 169.773 390.594 169.602 390.938 169.477C391.286 169.346 391.698 169.281 392.172 169.281ZM391.945 170.375C391.352 170.375 390.872 170.49 390.508 170.719C390.148 170.948 389.885 171.292 389.719 171.75C389.552 172.203 389.464 172.773 389.453 173.461V173.711C389.453 174.435 389.531 175.047 389.688 175.547C389.849 176.047 390.112 176.427 390.477 176.688C390.846 176.948 391.341 177.078 391.961 177.078C392.492 177.078 392.935 176.935 393.289 176.648C393.643 176.362 393.906 175.964 394.078 175.453C394.255 174.938 394.344 174.346 394.344 173.68C394.344 172.669 394.146 171.867 393.75 171.273C393.359 170.674 392.758 170.375 391.945 170.375ZM405.328 173.703C405.328 174.406 405.237 175.034 405.055 175.586C404.872 176.138 404.609 176.604 404.266 176.984C403.922 177.365 403.505 177.656 403.016 177.859C402.531 178.057 401.982 178.156 401.367 178.156C400.794 178.156 400.268 178.057 399.789 177.859C399.315 177.656 398.904 177.365 398.555 176.984C398.211 176.604 397.943 176.138 397.75 175.586C397.562 175.034 397.469 174.406 397.469 173.703C397.469 172.766 397.628 171.969 397.945 171.312C398.263 170.651 398.716 170.148 399.305 169.805C399.898 169.456 400.604 169.281 401.422 169.281C402.203 169.281 402.885 169.456 403.469 169.805C404.057 170.154 404.513 170.659 404.836 171.32C405.164 171.977 405.328 172.771 405.328 173.703ZM398.812 173.703C398.812 174.391 398.904 174.987 399.086 175.492C399.268 175.997 399.549 176.388 399.93 176.664C400.31 176.94 400.799 177.078 401.398 177.078C401.992 177.078 402.479 176.94 402.859 176.664C403.245 176.388 403.529 175.997 403.711 175.492C403.893 174.987 403.984 174.391 403.984 173.703C403.984 173.021 403.893 172.432 403.711 171.938C403.529 171.438 403.247 171.052 402.867 170.781C402.487 170.51 401.995 170.375 401.391 170.375C400.5 170.375 399.846 170.669 399.43 171.258C399.018 171.846 398.812 172.661 398.812 173.703ZM411.461 169.281C411.633 169.281 411.812 169.292 412 169.312C412.188 169.328 412.354 169.352 412.5 169.383L412.336 170.586C412.195 170.549 412.039 170.521 411.867 170.5C411.695 170.479 411.534 170.469 411.383 170.469C411.039 170.469 410.714 170.539 410.406 170.68C410.104 170.815 409.839 171.013 409.609 171.273C409.38 171.529 409.201 171.839 409.07 172.203C408.94 172.562 408.875 172.964 408.875 173.406V178H407.57V169.438H408.648L408.789 171.016H408.844C409.021 170.698 409.234 170.409 409.484 170.148C409.734 169.883 410.023 169.672 410.352 169.516C410.685 169.359 411.055 169.281 411.461 169.281ZM426.094 178H424.586L421.5 172.969L418.367 178H416.953L420.758 172.047L417.219 166.578H418.695L421.547 171.133L424.414 166.578H425.82L422.289 172.023L426.094 178ZM426.797 174.281V173.125H430.672V174.281H426.797ZM432.875 166.578H436.109C437.536 166.578 438.609 166.792 439.328 167.219C440.047 167.646 440.406 168.372 440.406 169.398C440.406 169.841 440.32 170.24 440.148 170.594C439.982 170.943 439.737 171.232 439.414 171.461C439.091 171.69 438.693 171.849 438.219 171.938V172.016C438.719 172.094 439.161 172.237 439.547 172.445C439.932 172.654 440.234 172.945 440.453 173.32C440.672 173.695 440.781 174.172 440.781 174.75C440.781 175.453 440.617 176.047 440.289 176.531C439.966 177.016 439.508 177.383 438.914 177.633C438.32 177.878 437.617 178 436.805 178H432.875V166.578ZM434.203 171.477H436.391C437.385 171.477 438.073 171.312 438.453 170.984C438.839 170.656 439.031 170.177 439.031 169.547C439.031 168.896 438.802 168.427 438.344 168.141C437.891 167.854 437.167 167.711 436.172 167.711H434.203V171.477ZM434.203 172.594V176.867H436.578C437.594 176.867 438.312 176.669 438.734 176.273C439.156 175.872 439.367 175.333 439.367 174.656C439.367 174.224 439.271 173.854 439.078 173.547C438.891 173.24 438.583 173.005 438.156 172.844C437.734 172.677 437.169 172.594 436.461 172.594H434.203ZM450.383 178L448.977 174.375H444.398L443 178H441.656L446.125 166.531H447.32L451.758 178H450.383ZM448.578 173.195L447.242 169.594C447.211 169.5 447.159 169.346 447.086 169.133C447.018 168.919 446.948 168.698 446.875 168.469C446.802 168.24 446.742 168.055 446.695 167.914C446.643 168.128 446.586 168.341 446.523 168.555C446.466 168.763 446.409 168.958 446.352 169.141C446.294 169.318 446.245 169.469 446.203 169.594L444.844 173.195H448.578Z" fill="#38485C"/>
</svg>
