<svg width="728" height="280" viewBox="0 0 728 280" fill="none" xmlns="http://www.w3.org/2000/svg">
<rect x="1" y="1" width="726" height="278" rx="7" fill="#F3F6F9"/>
<rect x="1" y="1" width="726" height="278" rx="7" stroke="#E6EBF0" stroke-width="2"/>
<path d="M310.518 109.4C309.078 109.4 307.585 109.213 306.038 108.84C304.491 108.467 303.145 107.907 301.998 107.16C301.465 106.813 301.105 106.413 300.918 105.96C300.731 105.507 300.678 105.08 300.758 104.68C300.865 104.253 301.065 103.893 301.358 103.6C301.678 103.307 302.065 103.133 302.518 103.08C302.998 103.027 303.518 103.147 304.078 103.44C305.171 104.027 306.225 104.453 307.238 104.72C308.251 104.96 309.291 105.08 310.358 105.08C311.531 105.08 312.518 104.92 313.318 104.6C314.118 104.28 314.718 103.8 315.118 103.16C315.545 102.52 315.758 101.747 315.758 100.84C315.758 99.5067 315.305 98.52 314.398 97.88C313.518 97.2133 312.225 96.88 310.518 96.88H307.958C307.211 96.88 306.638 96.6933 306.238 96.32C305.865 95.9467 305.678 95.4267 305.678 94.76C305.678 94.0933 305.865 93.5733 306.238 93.2C306.638 92.8267 307.211 92.64 307.958 92.64H310.038C311.051 92.64 311.918 92.48 312.638 92.16C313.358 91.8133 313.918 91.3333 314.318 90.72C314.718 90.1067 314.918 89.36 314.918 88.48C314.918 87.2533 314.505 86.32 313.678 85.68C312.878 85.04 311.705 84.72 310.158 84.72C309.171 84.72 308.238 84.84 307.358 85.08C306.505 85.2933 305.558 85.7067 304.518 86.32C304.038 86.6133 303.571 86.7333 303.118 86.68C302.691 86.6267 302.331 86.4533 302.038 86.16C301.745 85.8667 301.545 85.52 301.438 85.12C301.331 84.6933 301.358 84.2667 301.518 83.84C301.678 83.3867 302.011 83 302.518 82.68C303.665 81.9333 304.931 81.3733 306.318 81C307.705 80.6 309.131 80.4 310.598 80.4C312.545 80.4 314.211 80.7067 315.598 81.32C316.985 81.9067 318.038 82.76 318.758 83.88C319.505 84.9733 319.878 86.3067 319.878 87.88C319.878 89 319.665 90.0267 319.238 90.96C318.811 91.8667 318.211 92.64 317.438 93.28C316.665 93.92 315.731 94.3733 314.638 94.64V94.16C316.558 94.48 318.051 95.28 319.118 96.56C320.185 97.8133 320.718 99.3867 320.718 101.28C320.718 102.933 320.305 104.373 319.478 105.6C318.651 106.827 317.478 107.773 315.958 108.44C314.438 109.08 312.625 109.4 310.518 109.4ZM336.103 109.4C333.783 109.4 331.796 108.853 330.143 107.76C328.516 106.64 327.276 105.04 326.423 102.96C325.569 100.88 325.143 98.36 325.143 95.4C325.143 93 325.409 90.88 325.943 89.04C326.503 87.1733 327.303 85.6 328.342 84.32C329.383 83.04 330.649 82.0667 332.143 81.4C333.663 80.7333 335.369 80.4 337.263 80.4C338.436 80.4 339.623 80.5867 340.823 80.96C342.049 81.3067 343.196 81.84 344.263 82.56C344.689 82.8267 344.969 83.1733 345.102 83.6C345.236 84.0267 345.249 84.4533 345.143 84.88C345.063 85.28 344.876 85.64 344.583 85.96C344.316 86.2533 343.969 86.44 343.543 86.52C343.116 86.5733 342.649 86.4533 342.143 86.16C341.236 85.6267 340.383 85.2533 339.583 85.04C338.783 84.8267 337.983 84.72 337.183 84.72C335.636 84.72 334.329 85.08 333.263 85.8C332.196 86.52 331.383 87.6 330.823 89.04C330.289 90.48 330.023 92.28 330.023 94.44V97.44H329.543C329.756 96.08 330.196 94.92 330.863 93.96C331.556 92.9733 332.436 92.2267 333.503 91.72C334.569 91.1867 335.756 90.92 337.063 90.92C338.689 90.92 340.129 91.3067 341.383 92.08C342.636 92.8533 343.622 93.92 344.343 95.28C345.063 96.64 345.423 98.2 345.423 99.96C345.423 101.773 345.023 103.4 344.223 104.84C343.449 106.253 342.356 107.373 340.943 108.2C339.556 109 337.943 109.4 336.103 109.4ZM335.823 105.32C336.783 105.32 337.623 105.107 338.343 104.68C339.089 104.253 339.663 103.653 340.063 102.88C340.463 102.08 340.663 101.173 340.663 100.16C340.663 99.12 340.463 98.2133 340.063 97.44C339.663 96.6667 339.089 96.0667 338.343 95.64C337.623 95.1867 336.783 94.96 335.823 94.96C334.863 94.96 334.023 95.1867 333.303 95.64C332.583 96.0667 332.009 96.6667 331.583 97.44C331.183 98.2133 330.983 99.12 330.983 100.16C330.983 101.173 331.183 102.08 331.583 102.88C332.009 103.653 332.583 104.253 333.303 104.68C334.023 105.107 334.863 105.32 335.823 105.32ZM352.047 109.2C351.14 109.2 350.407 108.92 349.847 108.36C349.314 107.8 349.047 107.08 349.047 106.2C349.047 105.347 349.314 104.653 349.847 104.12C350.407 103.56 351.14 103.28 352.047 103.28C352.98 103.28 353.7 103.56 354.207 104.12C354.74 104.653 355.007 105.347 355.007 106.2C355.007 107.08 354.74 107.8 354.207 108.36C353.7 108.92 352.98 109.2 352.047 109.2ZM369.209 109.4C367.795 109.4 366.355 109.213 364.889 108.84C363.422 108.467 362.075 107.893 360.849 107.12C360.342 106.8 359.995 106.427 359.809 106C359.649 105.547 359.609 105.107 359.689 104.68C359.795 104.227 359.995 103.853 360.289 103.56C360.609 103.24 360.982 103.053 361.409 103C361.862 102.947 362.355 103.067 362.889 103.36C363.875 103.92 364.875 104.347 365.889 104.64C366.902 104.933 367.982 105.08 369.129 105.08C370.249 105.08 371.209 104.88 372.009 104.48C372.809 104.08 373.422 103.52 373.849 102.8C374.275 102.08 374.489 101.24 374.489 100.28C374.489 98.7867 374.035 97.5867 373.129 96.68C372.222 95.7467 370.982 95.28 369.409 95.28C368.555 95.28 367.729 95.4267 366.929 95.72C366.129 95.9867 365.342 96.4667 364.569 97.16C364.329 97.3733 364.022 97.5867 363.649 97.8C363.275 97.9867 362.875 98.08 362.449 98.08C361.782 98.08 361.275 97.9067 360.929 97.56C360.582 97.2133 360.409 96.7333 360.409 96.12V83.04C360.409 82.32 360.595 81.7733 360.969 81.4C361.369 81 361.929 80.8 362.649 80.8H375.809C376.529 80.8 377.075 80.9867 377.449 81.36C377.849 81.7067 378.049 82.2267 378.049 82.92C378.049 83.5867 377.849 84.1067 377.449 84.48C377.075 84.8533 376.529 85.04 375.809 85.04H365.409V94H364.089C364.782 93.0667 365.702 92.3467 366.849 91.84C367.995 91.3333 369.249 91.08 370.609 91.08C372.395 91.08 373.942 91.4667 375.249 92.24C376.582 92.9867 377.609 94.04 378.329 95.4C379.075 96.7333 379.449 98.2933 379.449 100.08C379.449 101.92 379.035 103.547 378.209 104.96C377.382 106.347 376.195 107.44 374.649 108.24C373.129 109.013 371.315 109.4 369.209 109.4ZM387.833 109.32C387.22 109.32 386.713 109.173 386.313 108.88C385.913 108.587 385.673 108.2 385.593 107.72C385.513 107.213 385.633 106.653 385.953 106.04L398.033 83.32V85.08H385.073C384.353 85.08 383.793 84.8933 383.393 84.52C383.02 84.1467 382.833 83.6267 382.833 82.96C382.833 82.2667 383.02 81.7333 383.393 81.36C383.793 80.9867 384.353 80.8 385.073 80.8H400.553C401.273 80.8 401.86 80.9867 402.313 81.36C402.766 81.7333 402.993 82.2667 402.993 82.96C402.993 83.5467 402.913 84.0667 402.753 84.52C402.593 84.9467 402.38 85.4133 402.113 85.92L390.753 107.64C390.46 108.227 390.073 108.653 389.593 108.92C389.14 109.187 388.553 109.32 387.833 109.32ZM416.938 109.4C414.751 109.4 412.871 109.093 411.298 108.48C409.751 107.84 408.551 106.92 407.698 105.72C406.871 104.52 406.458 103.08 406.458 101.4C406.458 100.067 406.724 98.8933 407.258 97.88C407.818 96.84 408.578 96 409.538 95.36C410.498 94.72 411.591 94.32 412.818 94.16V95C411.111 94.6267 409.738 93.8133 408.698 92.56C407.684 91.28 407.178 89.76 407.178 88C407.178 86.4 407.578 85.04 408.378 83.92C409.178 82.7733 410.311 81.9067 411.778 81.32C413.244 80.7067 414.964 80.4 416.938 80.4C418.938 80.4 420.671 80.7067 422.138 81.32C423.604 81.9067 424.738 82.7733 425.538 83.92C426.338 85.04 426.738 86.4 426.738 88C426.738 89.1733 426.498 90.2533 426.018 91.24C425.564 92.2267 424.911 93.04 424.058 93.68C423.231 94.32 422.258 94.7467 421.138 94.96V94.16C423.004 94.4267 424.511 95.2133 425.658 96.52C426.831 97.8 427.418 99.4267 427.418 101.4C427.418 103.08 426.991 104.52 426.138 105.72C425.311 106.92 424.111 107.84 422.538 108.48C420.991 109.093 419.124 109.4 416.938 109.4ZM416.938 105.4C418.831 105.4 420.258 105.04 421.218 104.32C422.178 103.573 422.658 102.48 422.658 101.04C422.658 99.6 422.178 98.52 421.218 97.8C420.258 97.08 418.831 96.72 416.938 96.72C415.071 96.72 413.644 97.08 412.658 97.8C411.698 98.52 411.218 99.6 411.218 101.04C411.218 102.48 411.698 103.573 412.658 104.32C413.644 105.04 415.071 105.4 416.938 105.4ZM416.938 92.72C418.004 92.72 418.911 92.56 419.658 92.24C420.404 91.8933 420.978 91.4 421.378 90.76C421.778 90.12 421.978 89.3733 421.978 88.52C421.978 87.24 421.524 86.24 420.618 85.52C419.738 84.7733 418.511 84.4 416.938 84.4C415.364 84.4 414.138 84.7733 413.258 85.52C412.378 86.24 411.938 87.24 411.938 88.52C411.938 89.8267 412.378 90.8533 413.258 91.6C414.138 92.3467 415.364 92.72 416.938 92.72Z" fill="#101E37"/>
<path d="M296.695 147C296.255 147 295.915 146.887 295.675 146.66C295.448 146.42 295.335 146.08 295.335 145.64V134.26C295.335 133.82 295.448 133.487 295.675 133.26C295.915 133.02 296.255 132.9 296.695 132.9H300.575C302.935 132.9 304.755 133.507 306.035 134.72C307.328 135.933 307.975 137.673 307.975 139.94C307.975 141.073 307.808 142.08 307.475 142.96C307.155 143.827 306.675 144.56 306.035 145.16C305.408 145.76 304.635 146.22 303.715 146.54C302.808 146.847 301.762 147 300.575 147H296.695ZM297.895 144.88H300.415C301.242 144.88 301.955 144.78 302.555 144.58C303.168 144.367 303.675 144.06 304.075 143.66C304.488 143.247 304.795 142.733 304.995 142.12C305.195 141.493 305.295 140.767 305.295 139.94C305.295 138.287 304.888 137.053 304.075 136.24C303.262 135.427 302.042 135.02 300.415 135.02H297.895V144.88ZM311.569 147.14C311.169 147.14 310.863 147.02 310.649 146.78C310.436 146.54 310.329 146.207 310.329 145.78V138.44C310.329 138 310.436 137.667 310.649 137.44C310.863 137.2 311.169 137.08 311.569 137.08C311.969 137.08 312.276 137.2 312.489 137.44C312.716 137.667 312.829 138 312.829 138.44V145.78C312.829 146.207 312.723 146.54 312.509 146.78C312.296 147.02 311.983 147.14 311.569 147.14ZM312.509 135.8C312.376 135.987 312.216 136.093 312.029 136.12C311.843 136.147 311.663 136.113 311.489 136.02C311.316 135.927 311.189 135.793 311.109 135.62C311.043 135.447 311.063 135.253 311.169 135.04L312.689 132.06C312.809 131.807 312.969 131.647 313.169 131.58C313.369 131.5 313.576 131.487 313.789 131.54C314.003 131.593 314.183 131.693 314.329 131.84C314.489 131.987 314.583 132.167 314.609 132.38C314.649 132.58 314.596 132.787 314.449 133L312.509 135.8ZM318.647 147.2C317.94 147.2 317.307 147.067 316.747 146.8C316.2 146.52 315.767 146.147 315.447 145.68C315.14 145.213 314.987 144.687 314.987 144.1C314.987 143.38 315.174 142.813 315.547 142.4C315.92 141.973 316.527 141.667 317.367 141.48C318.207 141.293 319.334 141.2 320.747 141.2H321.747V142.64H320.767C319.94 142.64 319.28 142.68 318.787 142.76C318.294 142.84 317.94 142.98 317.727 143.18C317.527 143.367 317.427 143.633 317.427 143.98C317.427 144.42 317.58 144.78 317.887 145.06C318.194 145.34 318.62 145.48 319.167 145.48C319.607 145.48 319.994 145.38 320.327 145.18C320.674 144.967 320.947 144.68 321.147 144.32C321.347 143.96 321.447 143.547 321.447 143.08V140.78C321.447 140.113 321.3 139.633 321.007 139.34C320.714 139.047 320.22 138.9 319.527 138.9C319.14 138.9 318.72 138.947 318.267 139.04C317.827 139.133 317.36 139.293 316.867 139.52C316.614 139.64 316.387 139.673 316.187 139.62C316 139.567 315.854 139.46 315.747 139.3C315.64 139.127 315.587 138.94 315.587 138.74C315.587 138.54 315.64 138.347 315.747 138.16C315.854 137.96 316.034 137.813 316.287 137.72C316.9 137.467 317.487 137.287 318.047 137.18C318.62 137.073 319.14 137.02 319.607 137.02C320.567 137.02 321.354 137.167 321.967 137.46C322.594 137.753 323.06 138.2 323.367 138.8C323.674 139.387 323.827 140.147 323.827 141.08V145.88C323.827 146.293 323.727 146.613 323.527 146.84C323.327 147.053 323.04 147.16 322.667 147.16C322.294 147.16 322 147.053 321.787 146.84C321.587 146.613 321.487 146.293 321.487 145.88V144.92H321.647C321.554 145.387 321.367 145.793 321.087 146.14C320.82 146.473 320.48 146.733 320.067 146.92C319.654 147.107 319.18 147.2 318.647 147.2ZM329.944 147.2C329.371 147.2 328.764 147.14 328.124 147.02C327.484 146.9 326.911 146.693 326.404 146.4C326.191 146.267 326.038 146.113 325.944 145.94C325.864 145.753 325.831 145.573 325.844 145.4C325.871 145.213 325.938 145.053 326.044 144.92C326.164 144.787 326.311 144.7 326.484 144.66C326.671 144.62 326.871 144.653 327.084 144.76C327.618 145.013 328.118 145.193 328.584 145.3C329.051 145.393 329.511 145.44 329.964 145.44C330.604 145.44 331.078 145.333 331.384 145.12C331.704 144.893 331.864 144.6 331.864 144.24C331.864 143.933 331.758 143.7 331.544 143.54C331.344 143.367 331.038 143.24 330.624 143.16L328.624 142.78C327.798 142.62 327.164 142.32 326.724 141.88C326.298 141.427 326.084 140.847 326.084 140.14C326.084 139.5 326.258 138.947 326.604 138.48C326.964 138.013 327.458 137.653 328.084 137.4C328.711 137.147 329.431 137.02 330.244 137.02C330.831 137.02 331.378 137.087 331.884 137.22C332.404 137.34 332.904 137.533 333.384 137.8C333.584 137.907 333.718 138.047 333.784 138.22C333.864 138.393 333.884 138.573 333.844 138.76C333.804 138.933 333.724 139.093 333.604 139.24C333.484 139.373 333.331 139.46 333.144 139.5C332.971 139.527 332.771 139.487 332.544 139.38C332.131 139.167 331.731 139.013 331.344 138.92C330.971 138.827 330.611 138.78 330.264 138.78C329.611 138.78 329.124 138.893 328.804 139.12C328.498 139.347 328.344 139.647 328.344 140.02C328.344 140.3 328.438 140.533 328.624 140.72C328.811 140.907 329.098 141.033 329.484 141.1L331.484 141.48C332.351 141.64 333.004 141.933 333.444 142.36C333.898 142.787 334.124 143.36 334.124 144.08C334.124 145.053 333.744 145.82 332.984 146.38C332.224 146.927 331.211 147.2 329.944 147.2ZM344.78 147.2C344.073 147.2 343.44 147.067 342.88 146.8C342.333 146.52 341.9 146.147 341.58 145.68C341.273 145.213 341.12 144.687 341.12 144.1C341.12 143.38 341.306 142.813 341.68 142.4C342.053 141.973 342.66 141.667 343.5 141.48C344.34 141.293 345.466 141.2 346.88 141.2H347.88V142.64H346.9C346.073 142.64 345.413 142.68 344.92 142.76C344.426 142.84 344.073 142.98 343.86 143.18C343.66 143.367 343.56 143.633 343.56 143.98C343.56 144.42 343.713 144.78 344.02 145.06C344.326 145.34 344.753 145.48 345.3 145.48C345.74 145.48 346.126 145.38 346.46 145.18C346.806 144.967 347.08 144.68 347.28 144.32C347.48 143.96 347.58 143.547 347.58 143.08V140.78C347.58 140.113 347.433 139.633 347.14 139.34C346.846 139.047 346.353 138.9 345.66 138.9C345.273 138.9 344.853 138.947 344.4 139.04C343.96 139.133 343.493 139.293 343 139.52C342.746 139.64 342.52 139.673 342.32 139.62C342.133 139.567 341.986 139.46 341.88 139.3C341.773 139.127 341.72 138.94 341.72 138.74C341.72 138.54 341.773 138.347 341.88 138.16C341.986 137.96 342.166 137.813 342.42 137.72C343.033 137.467 343.62 137.287 344.18 137.18C344.753 137.073 345.273 137.02 345.74 137.02C346.7 137.02 347.486 137.167 348.1 137.46C348.726 137.753 349.193 138.2 349.5 138.8C349.806 139.387 349.96 140.147 349.96 141.08V145.88C349.96 146.293 349.86 146.613 349.66 146.84C349.46 147.053 349.173 147.16 348.8 147.16C348.426 147.16 348.133 147.053 347.92 146.84C347.72 146.613 347.62 146.293 347.62 145.88V144.92H347.78C347.686 145.387 347.5 145.793 347.22 146.14C346.953 146.473 346.613 146.733 346.2 146.92C345.786 147.107 345.313 147.2 344.78 147.2ZM353.737 147.16C353.337 147.16 353.031 147.053 352.817 146.84C352.604 146.613 352.497 146.293 352.497 145.88V134C352.497 133.587 352.604 133.273 352.817 133.06C353.031 132.847 353.337 132.74 353.737 132.74C354.137 132.74 354.444 132.847 354.657 133.06C354.884 133.273 354.997 133.587 354.997 134V139.18H354.717C355.011 138.473 355.464 137.94 356.077 137.58C356.704 137.207 357.411 137.02 358.197 137.02C358.984 137.02 359.631 137.167 360.137 137.46C360.644 137.753 361.024 138.2 361.277 138.8C361.531 139.387 361.657 140.133 361.657 141.04V145.88C361.657 146.293 361.551 146.613 361.337 146.84C361.124 147.053 360.817 147.16 360.417 147.16C360.017 147.16 359.704 147.053 359.477 146.84C359.264 146.613 359.157 146.293 359.157 145.88V141.16C359.157 140.4 359.011 139.847 358.717 139.5C358.437 139.153 357.997 138.98 357.397 138.98C356.664 138.98 356.077 139.213 355.637 139.68C355.211 140.133 354.997 140.74 354.997 141.5V145.88C354.997 146.733 354.577 147.16 353.737 147.16ZM368.656 147.2C367.643 147.2 366.763 146.993 366.016 146.58C365.27 146.167 364.69 145.58 364.276 144.82C363.863 144.047 363.656 143.14 363.656 142.1C363.656 141.313 363.77 140.613 363.996 140C364.236 139.373 364.576 138.84 365.016 138.4C365.456 137.947 365.983 137.607 366.596 137.38C367.21 137.14 367.896 137.02 368.656 137.02C369.67 137.02 370.55 137.227 371.296 137.64C372.043 138.053 372.623 138.64 373.036 139.4C373.45 140.16 373.656 141.06 373.656 142.1C373.656 142.887 373.536 143.593 373.296 144.22C373.07 144.847 372.736 145.387 372.296 145.84C371.856 146.28 371.33 146.62 370.716 146.86C370.103 147.087 369.416 147.2 368.656 147.2ZM368.656 145.3C369.15 145.3 369.583 145.18 369.956 144.94C370.33 144.7 370.616 144.347 370.816 143.88C371.03 143.4 371.136 142.807 371.136 142.1C371.136 141.033 370.91 140.24 370.456 139.72C370.003 139.187 369.403 138.92 368.656 138.92C368.163 138.92 367.73 139.04 367.356 139.28C366.983 139.507 366.69 139.86 366.476 140.34C366.276 140.807 366.176 141.393 366.176 142.1C366.176 143.153 366.403 143.953 366.856 144.5C367.31 145.033 367.91 145.3 368.656 145.3ZM377 147.16C376.587 147.16 376.267 147.053 376.04 146.84C375.827 146.613 375.72 146.293 375.72 145.88V138.32C375.72 137.907 375.827 137.593 376.04 137.38C376.253 137.167 376.553 137.06 376.94 137.06C377.327 137.06 377.627 137.167 377.84 137.38C378.053 137.593 378.16 137.907 378.16 138.32V139.58H377.96C378.147 138.78 378.513 138.173 379.06 137.76C379.607 137.347 380.333 137.1 381.24 137.02C381.52 136.993 381.74 137.067 381.9 137.24C382.073 137.4 382.173 137.653 382.2 138C382.227 138.333 382.147 138.607 381.96 138.82C381.787 139.02 381.52 139.14 381.16 139.18L380.72 139.22C379.907 139.3 379.293 139.553 378.88 139.98C378.467 140.393 378.26 140.98 378.26 141.74V145.88C378.26 146.293 378.153 146.613 377.94 146.84C377.727 147.053 377.413 147.16 377 147.16ZM384.832 147.16C384.419 147.16 384.099 147.053 383.872 146.84C383.659 146.613 383.552 146.293 383.552 145.88V138.32C383.552 137.907 383.659 137.593 383.872 137.38C384.085 137.167 384.385 137.06 384.772 137.06C385.159 137.06 385.459 137.167 385.672 137.38C385.885 137.593 385.992 137.907 385.992 138.32V139.58H385.792C385.979 138.78 386.345 138.173 386.892 137.76C387.439 137.347 388.165 137.1 389.072 137.02C389.352 136.993 389.572 137.067 389.732 137.24C389.905 137.4 390.005 137.653 390.032 138C390.059 138.333 389.979 138.607 389.792 138.82C389.619 139.02 389.352 139.14 388.992 139.18L388.552 139.22C387.739 139.3 387.125 139.553 386.712 139.98C386.299 140.393 386.092 140.98 386.092 141.74V145.88C386.092 146.293 385.985 146.613 385.772 146.84C385.559 147.053 385.245 147.16 384.832 147.16ZM394.506 147.2C393.8 147.2 393.166 147.067 392.606 146.8C392.06 146.52 391.626 146.147 391.306 145.68C391 145.213 390.846 144.687 390.846 144.1C390.846 143.38 391.033 142.813 391.406 142.4C391.78 141.973 392.386 141.667 393.226 141.48C394.066 141.293 395.193 141.2 396.606 141.2H397.606V142.64H396.626C395.8 142.64 395.14 142.68 394.646 142.76C394.153 142.84 393.8 142.98 393.586 143.18C393.386 143.367 393.286 143.633 393.286 143.98C393.286 144.42 393.44 144.78 393.746 145.06C394.053 145.34 394.48 145.48 395.026 145.48C395.466 145.48 395.853 145.38 396.186 145.18C396.533 144.967 396.806 144.68 397.006 144.32C397.206 143.96 397.306 143.547 397.306 143.08V140.78C397.306 140.113 397.16 139.633 396.866 139.34C396.573 139.047 396.08 138.9 395.386 138.9C395 138.9 394.58 138.947 394.126 139.04C393.686 139.133 393.22 139.293 392.726 139.52C392.473 139.64 392.246 139.673 392.046 139.62C391.86 139.567 391.713 139.46 391.606 139.3C391.5 139.127 391.446 138.94 391.446 138.74C391.446 138.54 391.5 138.347 391.606 138.16C391.713 137.96 391.893 137.813 392.146 137.72C392.76 137.467 393.346 137.287 393.906 137.18C394.48 137.073 395 137.02 395.466 137.02C396.426 137.02 397.213 137.167 397.826 137.46C398.453 137.753 398.92 138.2 399.226 138.8C399.533 139.387 399.686 140.147 399.686 141.08V145.88C399.686 146.293 399.586 146.613 399.386 146.84C399.186 147.053 398.9 147.16 398.526 147.16C398.153 147.16 397.86 147.053 397.646 146.84C397.446 146.613 397.346 146.293 397.346 145.88V144.92H397.506C397.413 145.387 397.226 145.793 396.946 146.14C396.68 146.473 396.34 146.733 395.926 146.92C395.513 147.107 395.04 147.2 394.506 147.2ZM405.984 147.2C405.13 147.2 404.377 146.993 403.724 146.58C403.084 146.167 402.584 145.58 402.224 144.82C401.864 144.047 401.684 143.14 401.684 142.1C401.684 141.047 401.864 140.147 402.224 139.4C402.584 138.64 403.084 138.053 403.724 137.64C404.377 137.227 405.13 137.02 405.984 137.02C406.797 137.02 407.504 137.22 408.104 137.62C408.717 138.02 409.13 138.547 409.344 139.2H409.124V134C409.124 133.587 409.23 133.273 409.444 133.06C409.657 132.847 409.964 132.74 410.364 132.74C410.764 132.74 411.07 132.847 411.284 133.06C411.51 133.273 411.624 133.587 411.624 134V145.88C411.624 146.293 411.517 146.613 411.304 146.84C411.09 147.053 410.784 147.16 410.384 147.16C409.984 147.16 409.677 147.053 409.464 146.84C409.25 146.613 409.144 146.293 409.144 145.88V144.32L409.364 144.92C409.164 145.613 408.757 146.167 408.144 146.58C407.53 146.993 406.81 147.2 405.984 147.2ZM406.684 145.3C407.177 145.3 407.61 145.18 407.984 144.94C408.357 144.7 408.644 144.347 408.844 143.88C409.057 143.4 409.164 142.807 409.164 142.1C409.164 141.033 408.937 140.24 408.484 139.72C408.03 139.187 407.43 138.92 406.684 138.92C406.19 138.92 405.757 139.04 405.384 139.28C405.01 139.507 404.717 139.86 404.504 140.34C404.304 140.807 404.204 141.393 404.204 142.1C404.204 143.153 404.43 143.953 404.884 144.5C405.337 145.033 405.937 145.3 406.684 145.3ZM418.676 147.2C417.663 147.2 416.783 146.993 416.036 146.58C415.289 146.167 414.709 145.58 414.296 144.82C413.883 144.047 413.676 143.14 413.676 142.1C413.676 141.313 413.789 140.613 414.016 140C414.256 139.373 414.596 138.84 415.036 138.4C415.476 137.947 416.003 137.607 416.616 137.38C417.229 137.14 417.916 137.02 418.676 137.02C419.689 137.02 420.569 137.227 421.316 137.64C422.063 138.053 422.643 138.64 423.056 139.4C423.469 140.16 423.676 141.06 423.676 142.1C423.676 142.887 423.556 143.593 423.316 144.22C423.089 144.847 422.756 145.387 422.316 145.84C421.876 146.28 421.349 146.62 420.736 146.86C420.123 147.087 419.436 147.2 418.676 147.2ZM418.676 145.3C419.169 145.3 419.603 145.18 419.976 144.94C420.349 144.7 420.636 144.347 420.836 143.88C421.049 143.4 421.156 142.807 421.156 142.1C421.156 141.033 420.929 140.24 420.476 139.72C420.023 139.187 419.423 138.92 418.676 138.92C418.183 138.92 417.749 139.04 417.376 139.28C417.003 139.507 416.709 139.86 416.496 140.34C416.296 140.807 416.196 141.393 416.196 142.1C416.196 143.153 416.423 143.953 416.876 144.5C417.329 145.033 417.929 145.3 418.676 145.3ZM429.319 147.2C428.746 147.2 428.139 147.14 427.499 147.02C426.859 146.9 426.286 146.693 425.779 146.4C425.566 146.267 425.413 146.113 425.319 145.94C425.239 145.753 425.206 145.573 425.219 145.4C425.246 145.213 425.313 145.053 425.419 144.92C425.539 144.787 425.686 144.7 425.859 144.66C426.046 144.62 426.246 144.653 426.459 144.76C426.993 145.013 427.493 145.193 427.959 145.3C428.426 145.393 428.886 145.44 429.339 145.44C429.979 145.44 430.453 145.333 430.759 145.12C431.079 144.893 431.239 144.6 431.239 144.24C431.239 143.933 431.133 143.7 430.919 143.54C430.719 143.367 430.413 143.24 429.999 143.16L427.999 142.78C427.173 142.62 426.539 142.32 426.099 141.88C425.673 141.427 425.459 140.847 425.459 140.14C425.459 139.5 425.633 138.947 425.979 138.48C426.339 138.013 426.833 137.653 427.459 137.4C428.086 137.147 428.806 137.02 429.619 137.02C430.206 137.02 430.753 137.087 431.259 137.22C431.779 137.34 432.279 137.533 432.759 137.8C432.959 137.907 433.093 138.047 433.159 138.22C433.239 138.393 433.259 138.573 433.219 138.76C433.179 138.933 433.099 139.093 432.979 139.24C432.859 139.373 432.706 139.46 432.519 139.5C432.346 139.527 432.146 139.487 431.919 139.38C431.506 139.167 431.106 139.013 430.719 138.92C430.346 138.827 429.986 138.78 429.639 138.78C428.986 138.78 428.499 138.893 428.179 139.12C427.873 139.347 427.719 139.647 427.719 140.02C427.719 140.3 427.813 140.533 427.999 140.72C428.186 140.907 428.473 141.033 428.859 141.1L430.859 141.48C431.726 141.64 432.379 141.933 432.819 142.36C433.273 142.787 433.499 143.36 433.499 144.08C433.499 145.053 433.119 145.82 432.359 146.38C431.599 146.927 430.586 147.2 429.319 147.2Z" fill="#101E37"/>
<path d="M224.812 178H223.477V167.75H219.883V166.578H228.391V167.75H224.812V178ZM231.219 169.438V178H229.922V169.438H231.219ZM230.586 166.234C230.799 166.234 230.982 166.305 231.133 166.445C231.289 166.581 231.367 166.794 231.367 167.086C231.367 167.372 231.289 167.586 231.133 167.727C230.982 167.867 230.799 167.938 230.586 167.938C230.362 167.938 230.174 167.867 230.023 167.727C229.878 167.586 229.805 167.372 229.805 167.086C229.805 166.794 229.878 166.581 230.023 166.445C230.174 166.305 230.362 166.234 230.586 166.234ZM237.266 169.281C237.995 169.281 238.62 169.443 239.141 169.766C239.661 170.089 240.06 170.542 240.336 171.125C240.612 171.703 240.75 172.38 240.75 173.156V173.961H234.836C234.852 174.966 235.102 175.732 235.586 176.258C236.07 176.784 236.753 177.047 237.633 177.047C238.174 177.047 238.654 176.997 239.07 176.898C239.487 176.799 239.919 176.654 240.367 176.461V177.602C239.935 177.794 239.505 177.935 239.078 178.023C238.656 178.112 238.156 178.156 237.578 178.156C236.755 178.156 236.036 177.99 235.422 177.656C234.812 177.318 234.339 176.823 234 176.172C233.661 175.521 233.492 174.724 233.492 173.781C233.492 172.859 233.646 172.062 233.953 171.391C234.266 170.714 234.703 170.193 235.266 169.828C235.833 169.464 236.5 169.281 237.266 169.281ZM237.25 170.344C236.557 170.344 236.005 170.57 235.594 171.023C235.182 171.477 234.938 172.109 234.859 172.922H239.391C239.385 172.411 239.305 171.964 239.148 171.578C238.997 171.188 238.766 170.885 238.453 170.672C238.141 170.453 237.74 170.344 237.25 170.344ZM252.25 169.281C253.193 169.281 253.904 169.529 254.383 170.023C254.862 170.513 255.102 171.302 255.102 172.391V178H253.82V172.453C253.82 171.76 253.669 171.242 253.367 170.898C253.07 170.549 252.628 170.375 252.039 170.375C251.211 170.375 250.609 170.615 250.234 171.094C249.859 171.573 249.672 172.279 249.672 173.211V178H248.383V172.453C248.383 171.99 248.315 171.604 248.18 171.297C248.049 170.99 247.852 170.76 247.586 170.609C247.326 170.453 246.995 170.375 246.594 170.375C246.026 170.375 245.57 170.492 245.227 170.727C244.883 170.961 244.633 171.31 244.477 171.773C244.326 172.232 244.25 172.797 244.25 173.469V178H242.953V169.438H244L244.195 170.648H244.266C244.438 170.352 244.654 170.102 244.914 169.898C245.174 169.695 245.466 169.542 245.789 169.438C246.112 169.333 246.456 169.281 246.82 169.281C247.471 169.281 248.016 169.404 248.453 169.648C248.896 169.888 249.216 170.255 249.414 170.75H249.484C249.766 170.255 250.151 169.888 250.641 169.648C251.13 169.404 251.667 169.281 252.25 169.281ZM261.789 169.281C262.857 169.281 263.708 169.648 264.344 170.383C264.979 171.117 265.297 172.221 265.297 173.695C265.297 174.669 265.151 175.487 264.859 176.148C264.568 176.81 264.156 177.31 263.625 177.648C263.099 177.987 262.477 178.156 261.758 178.156C261.305 178.156 260.906 178.096 260.562 177.977C260.219 177.857 259.924 177.695 259.68 177.492C259.435 177.289 259.232 177.068 259.07 176.828H258.977C258.992 177.031 259.01 177.276 259.031 177.562C259.057 177.849 259.07 178.099 259.07 178.312V181.828H257.766V169.438H258.836L259.008 170.703H259.07C259.237 170.443 259.44 170.206 259.68 169.992C259.919 169.773 260.211 169.602 260.555 169.477C260.904 169.346 261.315 169.281 261.789 169.281ZM261.562 170.375C260.969 170.375 260.49 170.49 260.125 170.719C259.766 170.948 259.503 171.292 259.336 171.75C259.169 172.203 259.081 172.773 259.07 173.461V173.711C259.07 174.435 259.148 175.047 259.305 175.547C259.466 176.047 259.729 176.427 260.094 176.688C260.464 176.948 260.958 177.078 261.578 177.078C262.109 177.078 262.552 176.935 262.906 176.648C263.26 176.362 263.523 175.964 263.695 175.453C263.872 174.938 263.961 174.346 263.961 173.68C263.961 172.669 263.763 171.867 263.367 171.273C262.977 170.674 262.375 170.375 261.562 170.375ZM274.945 173.703C274.945 174.406 274.854 175.034 274.672 175.586C274.49 176.138 274.227 176.604 273.883 176.984C273.539 177.365 273.122 177.656 272.633 177.859C272.148 178.057 271.599 178.156 270.984 178.156C270.411 178.156 269.885 178.057 269.406 177.859C268.932 177.656 268.521 177.365 268.172 176.984C267.828 176.604 267.56 176.138 267.367 175.586C267.18 175.034 267.086 174.406 267.086 173.703C267.086 172.766 267.245 171.969 267.562 171.312C267.88 170.651 268.333 170.148 268.922 169.805C269.516 169.456 270.221 169.281 271.039 169.281C271.82 169.281 272.503 169.456 273.086 169.805C273.674 170.154 274.13 170.659 274.453 171.32C274.781 171.977 274.945 172.771 274.945 173.703ZM268.43 173.703C268.43 174.391 268.521 174.987 268.703 175.492C268.885 175.997 269.167 176.388 269.547 176.664C269.927 176.94 270.417 177.078 271.016 177.078C271.609 177.078 272.096 176.94 272.477 176.664C272.862 176.388 273.146 175.997 273.328 175.492C273.51 174.987 273.602 174.391 273.602 173.703C273.602 173.021 273.51 172.432 273.328 171.938C273.146 171.438 272.865 171.052 272.484 170.781C272.104 170.51 271.612 170.375 271.008 170.375C270.117 170.375 269.464 170.669 269.047 171.258C268.635 171.846 268.43 172.661 268.43 173.703ZM287.086 181.828V178.156C287.086 177.953 287.091 177.719 287.102 177.453C287.112 177.188 287.13 176.958 287.156 176.766H287.07C286.831 177.161 286.49 177.492 286.047 177.758C285.604 178.023 285.034 178.156 284.336 178.156C283.289 178.156 282.448 177.786 281.812 177.047C281.177 176.307 280.859 175.203 280.859 173.734C280.859 172.771 281.005 171.958 281.297 171.297C281.589 170.635 282 170.135 282.531 169.797C283.068 169.453 283.693 169.281 284.406 169.281C285.089 169.281 285.646 169.417 286.078 169.688C286.51 169.953 286.849 170.279 287.094 170.664H287.156L287.352 169.438H288.383V181.828H287.086ZM284.578 177.078C285.182 177.078 285.667 176.966 286.031 176.742C286.396 176.513 286.661 176.169 286.828 175.711C287 175.253 287.091 174.682 287.102 174V173.727C287.102 172.622 286.914 171.786 286.539 171.219C286.164 170.646 285.51 170.359 284.578 170.359C283.776 170.359 283.18 170.667 282.789 171.281C282.398 171.891 282.203 172.719 282.203 173.766C282.203 174.812 282.398 175.628 282.789 176.211C283.18 176.789 283.776 177.078 284.578 177.078ZM298.211 169.438V178H297.148L296.961 176.797H296.891C296.714 177.094 296.484 177.344 296.203 177.547C295.922 177.75 295.604 177.901 295.25 178C294.901 178.104 294.529 178.156 294.133 178.156C293.456 178.156 292.888 178.047 292.43 177.828C291.971 177.609 291.625 177.271 291.391 176.812C291.161 176.354 291.047 175.766 291.047 175.047V169.438H292.359V174.953C292.359 175.667 292.521 176.201 292.844 176.555C293.167 176.904 293.659 177.078 294.32 177.078C294.956 177.078 295.461 176.958 295.836 176.719C296.216 176.479 296.49 176.128 296.656 175.664C296.823 175.195 296.906 174.622 296.906 173.945V169.438H298.211ZM304.25 169.281C304.979 169.281 305.604 169.443 306.125 169.766C306.646 170.089 307.044 170.542 307.32 171.125C307.596 171.703 307.734 172.38 307.734 173.156V173.961H301.82C301.836 174.966 302.086 175.732 302.57 176.258C303.055 176.784 303.737 177.047 304.617 177.047C305.159 177.047 305.638 176.997 306.055 176.898C306.471 176.799 306.904 176.654 307.352 176.461V177.602C306.919 177.794 306.49 177.935 306.062 178.023C305.641 178.112 305.141 178.156 304.562 178.156C303.74 178.156 303.021 177.99 302.406 177.656C301.797 177.318 301.323 176.823 300.984 176.172C300.646 175.521 300.477 174.724 300.477 173.781C300.477 172.859 300.63 172.062 300.938 171.391C301.25 170.714 301.688 170.193 302.25 169.828C302.818 169.464 303.484 169.281 304.25 169.281ZM304.234 170.344C303.542 170.344 302.99 170.57 302.578 171.023C302.167 171.477 301.922 172.109 301.844 172.922H306.375C306.37 172.411 306.289 171.964 306.133 171.578C305.982 171.188 305.75 170.885 305.438 170.672C305.125 170.453 304.724 170.344 304.234 170.344ZM319.633 175.656C319.633 176.203 319.495 176.664 319.219 177.039C318.948 177.409 318.557 177.688 318.047 177.875C317.542 178.062 316.938 178.156 316.234 178.156C315.635 178.156 315.117 178.109 314.68 178.016C314.242 177.922 313.859 177.789 313.531 177.617V176.422C313.88 176.594 314.297 176.75 314.781 176.891C315.266 177.031 315.76 177.102 316.266 177.102C317.005 177.102 317.542 176.982 317.875 176.742C318.208 176.503 318.375 176.177 318.375 175.766C318.375 175.531 318.307 175.326 318.172 175.148C318.042 174.966 317.82 174.792 317.508 174.625C317.195 174.453 316.763 174.266 316.211 174.062C315.664 173.854 315.19 173.648 314.789 173.445C314.393 173.237 314.086 172.984 313.867 172.688C313.654 172.391 313.547 172.005 313.547 171.531C313.547 170.807 313.839 170.253 314.422 169.867C315.01 169.477 315.781 169.281 316.734 169.281C317.25 169.281 317.732 169.333 318.18 169.438C318.633 169.536 319.055 169.672 319.445 169.844L319.008 170.883C318.654 170.732 318.276 170.604 317.875 170.5C317.474 170.396 317.065 170.344 316.648 170.344C316.049 170.344 315.589 170.443 315.266 170.641C314.948 170.839 314.789 171.109 314.789 171.453C314.789 171.719 314.862 171.938 315.008 172.109C315.159 172.281 315.398 172.443 315.727 172.594C316.055 172.745 316.487 172.922 317.023 173.125C317.56 173.323 318.023 173.529 318.414 173.742C318.805 173.951 319.104 174.206 319.312 174.508C319.526 174.805 319.633 175.188 319.633 175.656ZM325.016 169.281C325.745 169.281 326.37 169.443 326.891 169.766C327.411 170.089 327.81 170.542 328.086 171.125C328.362 171.703 328.5 172.38 328.5 173.156V173.961H322.586C322.602 174.966 322.852 175.732 323.336 176.258C323.82 176.784 324.503 177.047 325.383 177.047C325.924 177.047 326.404 176.997 326.82 176.898C327.237 176.799 327.669 176.654 328.117 176.461V177.602C327.685 177.794 327.255 177.935 326.828 178.023C326.406 178.112 325.906 178.156 325.328 178.156C324.505 178.156 323.786 177.99 323.172 177.656C322.562 177.318 322.089 176.823 321.75 176.172C321.411 175.521 321.242 174.724 321.242 173.781C321.242 172.859 321.396 172.062 321.703 171.391C322.016 170.714 322.453 170.193 323.016 169.828C323.583 169.464 324.25 169.281 325.016 169.281ZM325 170.344C324.307 170.344 323.755 170.57 323.344 171.023C322.932 171.477 322.688 172.109 322.609 172.922H327.141C327.135 172.411 327.055 171.964 326.898 171.578C326.747 171.188 326.516 170.885 326.203 170.672C325.891 170.453 325.49 170.344 325 170.344ZM338.062 169.297C339.083 169.297 339.841 169.526 340.336 169.984C340.831 170.443 341.078 171.174 341.078 172.18V178H340.133L339.883 176.734H339.82C339.581 177.047 339.331 177.31 339.07 177.523C338.81 177.732 338.508 177.891 338.164 178C337.826 178.104 337.409 178.156 336.914 178.156C336.393 178.156 335.93 178.065 335.523 177.883C335.122 177.701 334.805 177.424 334.57 177.055C334.341 176.685 334.227 176.216 334.227 175.648C334.227 174.794 334.565 174.138 335.242 173.68C335.919 173.221 336.951 172.971 338.336 172.93L339.812 172.867V172.344C339.812 171.604 339.654 171.086 339.336 170.789C339.018 170.492 338.57 170.344 337.992 170.344C337.544 170.344 337.117 170.409 336.711 170.539C336.305 170.669 335.919 170.823 335.555 171L335.156 170.016C335.542 169.818 335.984 169.648 336.484 169.508C336.984 169.367 337.51 169.297 338.062 169.297ZM339.797 173.781L338.492 173.836C337.424 173.878 336.672 174.052 336.234 174.359C335.797 174.667 335.578 175.102 335.578 175.664C335.578 176.154 335.727 176.516 336.023 176.75C336.32 176.984 336.714 177.102 337.203 177.102C337.964 177.102 338.586 176.891 339.07 176.469C339.555 176.047 339.797 175.414 339.797 174.57V173.781ZM345.047 165.844V169.477C345.047 169.685 345.042 169.896 345.031 170.109C345.021 170.318 345.003 170.51 344.977 170.688H345.062C345.24 170.385 345.464 170.133 345.734 169.93C346.01 169.721 346.323 169.565 346.672 169.461C347.021 169.352 347.391 169.297 347.781 169.297C348.469 169.297 349.042 169.406 349.5 169.625C349.964 169.844 350.31 170.182 350.539 170.641C350.773 171.099 350.891 171.693 350.891 172.422V178H349.609V172.508C349.609 171.794 349.445 171.26 349.117 170.906C348.794 170.552 348.297 170.375 347.625 170.375C346.99 170.375 346.482 170.497 346.102 170.742C345.727 170.982 345.456 171.336 345.289 171.805C345.128 172.273 345.047 172.846 345.047 173.523V178H343.75V165.844H345.047ZM360.945 173.703C360.945 174.406 360.854 175.034 360.672 175.586C360.49 176.138 360.227 176.604 359.883 176.984C359.539 177.365 359.122 177.656 358.633 177.859C358.148 178.057 357.599 178.156 356.984 178.156C356.411 178.156 355.885 178.057 355.406 177.859C354.932 177.656 354.521 177.365 354.172 176.984C353.828 176.604 353.56 176.138 353.367 175.586C353.18 175.034 353.086 174.406 353.086 173.703C353.086 172.766 353.245 171.969 353.562 171.312C353.88 170.651 354.333 170.148 354.922 169.805C355.516 169.456 356.221 169.281 357.039 169.281C357.82 169.281 358.503 169.456 359.086 169.805C359.674 170.154 360.13 170.659 360.453 171.32C360.781 171.977 360.945 172.771 360.945 173.703ZM354.43 173.703C354.43 174.391 354.521 174.987 354.703 175.492C354.885 175.997 355.167 176.388 355.547 176.664C355.927 176.94 356.417 177.078 357.016 177.078C357.609 177.078 358.096 176.94 358.477 176.664C358.862 176.388 359.146 175.997 359.328 175.492C359.51 174.987 359.602 174.391 359.602 173.703C359.602 173.021 359.51 172.432 359.328 171.938C359.146 171.438 358.865 171.052 358.484 170.781C358.104 170.51 357.612 170.375 357.008 170.375C356.117 170.375 355.464 170.669 355.047 171.258C354.635 171.846 354.43 172.661 354.43 173.703ZM367.078 169.281C367.25 169.281 367.43 169.292 367.617 169.312C367.805 169.328 367.971 169.352 368.117 169.383L367.953 170.586C367.812 170.549 367.656 170.521 367.484 170.5C367.312 170.479 367.151 170.469 367 170.469C366.656 170.469 366.331 170.539 366.023 170.68C365.721 170.815 365.456 171.013 365.227 171.273C364.997 171.529 364.818 171.839 364.688 172.203C364.557 172.562 364.492 172.964 364.492 173.406V178H363.188V169.438H364.266L364.406 171.016H364.461C364.638 170.698 364.852 170.409 365.102 170.148C365.352 169.883 365.641 169.672 365.969 169.516C366.302 169.359 366.672 169.281 367.078 169.281ZM373.625 169.281C373.797 169.281 373.977 169.292 374.164 169.312C374.352 169.328 374.518 169.352 374.664 169.383L374.5 170.586C374.359 170.549 374.203 170.521 374.031 170.5C373.859 170.479 373.698 170.469 373.547 170.469C373.203 170.469 372.878 170.539 372.57 170.68C372.268 170.815 372.003 171.013 371.773 171.273C371.544 171.529 371.365 171.839 371.234 172.203C371.104 172.562 371.039 172.964 371.039 173.406V178H369.734V169.438H370.812L370.953 171.016H371.008C371.185 170.698 371.398 170.409 371.648 170.148C371.898 169.883 372.188 169.672 372.516 169.516C372.849 169.359 373.219 169.281 373.625 169.281ZM379.484 169.297C380.505 169.297 381.263 169.526 381.758 169.984C382.253 170.443 382.5 171.174 382.5 172.18V178H381.555L381.305 176.734H381.242C381.003 177.047 380.753 177.31 380.492 177.523C380.232 177.732 379.93 177.891 379.586 178C379.247 178.104 378.831 178.156 378.336 178.156C377.815 178.156 377.352 178.065 376.945 177.883C376.544 177.701 376.227 177.424 375.992 177.055C375.763 176.685 375.648 176.216 375.648 175.648C375.648 174.794 375.987 174.138 376.664 173.68C377.341 173.221 378.372 172.971 379.758 172.93L381.234 172.867V172.344C381.234 171.604 381.076 171.086 380.758 170.789C380.44 170.492 379.992 170.344 379.414 170.344C378.966 170.344 378.539 170.409 378.133 170.539C377.727 170.669 377.341 170.823 376.977 171L376.578 170.016C376.964 169.818 377.406 169.648 377.906 169.508C378.406 169.367 378.932 169.297 379.484 169.297ZM381.219 173.781L379.914 173.836C378.846 173.878 378.094 174.052 377.656 174.359C377.219 174.667 377 175.102 377 175.664C377 176.154 377.148 176.516 377.445 176.75C377.742 176.984 378.135 177.102 378.625 177.102C379.385 177.102 380.008 176.891 380.492 176.469C380.977 176.047 381.219 175.414 381.219 174.57V173.781ZM389.227 169.281C390.242 169.281 391.01 169.531 391.531 170.031C392.052 170.526 392.312 171.323 392.312 172.422V178H391.031V172.508C391.031 171.794 390.867 171.26 390.539 170.906C390.216 170.552 389.719 170.375 389.047 170.375C388.099 170.375 387.432 170.643 387.047 171.18C386.661 171.716 386.469 172.495 386.469 173.516V178H385.172V169.438H386.219L386.414 170.672H386.484C386.667 170.37 386.898 170.117 387.18 169.914C387.461 169.706 387.776 169.549 388.125 169.445C388.474 169.336 388.841 169.281 389.227 169.281ZM400.445 178H399.141V165.844H400.445V178ZM410.57 173.703C410.57 174.406 410.479 175.034 410.297 175.586C410.115 176.138 409.852 176.604 409.508 176.984C409.164 177.365 408.747 177.656 408.258 177.859C407.773 178.057 407.224 178.156 406.609 178.156C406.036 178.156 405.51 178.057 405.031 177.859C404.557 177.656 404.146 177.365 403.797 176.984C403.453 176.604 403.185 176.138 402.992 175.586C402.805 175.034 402.711 174.406 402.711 173.703C402.711 172.766 402.87 171.969 403.188 171.312C403.505 170.651 403.958 170.148 404.547 169.805C405.141 169.456 405.846 169.281 406.664 169.281C407.445 169.281 408.128 169.456 408.711 169.805C409.299 170.154 409.755 170.659 410.078 171.32C410.406 171.977 410.57 172.771 410.57 173.703ZM404.055 173.703C404.055 174.391 404.146 174.987 404.328 175.492C404.51 175.997 404.792 176.388 405.172 176.664C405.552 176.94 406.042 177.078 406.641 177.078C407.234 177.078 407.721 176.94 408.102 176.664C408.487 176.388 408.771 175.997 408.953 175.492C409.135 174.987 409.227 174.391 409.227 173.703C409.227 173.021 409.135 172.432 408.953 171.938C408.771 171.438 408.49 171.052 408.109 170.781C407.729 170.51 407.237 170.375 406.633 170.375C405.742 170.375 405.089 170.669 404.672 171.258C404.26 171.846 404.055 172.661 404.055 173.703ZM418.352 175.656C418.352 176.203 418.214 176.664 417.938 177.039C417.667 177.409 417.276 177.688 416.766 177.875C416.26 178.062 415.656 178.156 414.953 178.156C414.354 178.156 413.836 178.109 413.398 178.016C412.961 177.922 412.578 177.789 412.25 177.617V176.422C412.599 176.594 413.016 176.75 413.5 176.891C413.984 177.031 414.479 177.102 414.984 177.102C415.724 177.102 416.26 176.982 416.594 176.742C416.927 176.503 417.094 176.177 417.094 175.766C417.094 175.531 417.026 175.326 416.891 175.148C416.76 174.966 416.539 174.792 416.227 174.625C415.914 174.453 415.482 174.266 414.93 174.062C414.383 173.854 413.909 173.648 413.508 173.445C413.112 173.237 412.805 172.984 412.586 172.688C412.372 172.391 412.266 172.005 412.266 171.531C412.266 170.807 412.557 170.253 413.141 169.867C413.729 169.477 414.5 169.281 415.453 169.281C415.969 169.281 416.451 169.333 416.898 169.438C417.352 169.536 417.773 169.672 418.164 169.844L417.727 170.883C417.372 170.732 416.995 170.604 416.594 170.5C416.193 170.396 415.784 170.344 415.367 170.344C414.768 170.344 414.307 170.443 413.984 170.641C413.667 170.839 413.508 171.109 413.508 171.453C413.508 171.719 413.581 171.938 413.727 172.109C413.878 172.281 414.117 172.443 414.445 172.594C414.773 172.745 415.206 172.922 415.742 173.125C416.279 173.323 416.742 173.529 417.133 173.742C417.523 173.951 417.823 174.206 418.031 174.508C418.245 174.805 418.352 175.188 418.352 175.656ZM426.477 178L423.227 169.438H424.617L426.5 174.617C426.63 174.971 426.763 175.362 426.898 175.789C427.034 176.216 427.128 176.56 427.18 176.82H427.234C427.297 176.56 427.401 176.216 427.547 175.789C427.693 175.357 427.826 174.966 427.945 174.617L429.828 169.438H431.219L427.961 178H426.477ZM435.891 169.281C436.62 169.281 437.245 169.443 437.766 169.766C438.286 170.089 438.685 170.542 438.961 171.125C439.237 171.703 439.375 172.38 439.375 173.156V173.961H433.461C433.477 174.966 433.727 175.732 434.211 176.258C434.695 176.784 435.378 177.047 436.258 177.047C436.799 177.047 437.279 176.997 437.695 176.898C438.112 176.799 438.544 176.654 438.992 176.461V177.602C438.56 177.794 438.13 177.935 437.703 178.023C437.281 178.112 436.781 178.156 436.203 178.156C435.38 178.156 434.661 177.99 434.047 177.656C433.438 177.318 432.964 176.823 432.625 176.172C432.286 175.521 432.117 174.724 432.117 173.781C432.117 172.859 432.271 172.062 432.578 171.391C432.891 170.714 433.328 170.193 433.891 169.828C434.458 169.464 435.125 169.281 435.891 169.281ZM435.875 170.344C435.182 170.344 434.63 170.57 434.219 171.023C433.807 171.477 433.562 172.109 433.484 172.922H438.016C438.01 172.411 437.93 171.964 437.773 171.578C437.622 171.188 437.391 170.885 437.078 170.672C436.766 170.453 436.365 170.344 435.875 170.344ZM445.008 178.156C444.237 178.156 443.557 177.997 442.969 177.68C442.38 177.362 441.922 176.878 441.594 176.227C441.266 175.576 441.102 174.755 441.102 173.766C441.102 172.729 441.273 171.883 441.617 171.227C441.966 170.565 442.445 170.076 443.055 169.758C443.664 169.44 444.357 169.281 445.133 169.281C445.56 169.281 445.971 169.326 446.367 169.414C446.768 169.497 447.096 169.604 447.352 169.734L446.961 170.82C446.701 170.716 446.398 170.622 446.055 170.539C445.716 170.456 445.398 170.414 445.102 170.414C444.508 170.414 444.013 170.542 443.617 170.797C443.227 171.052 442.932 171.427 442.734 171.922C442.542 172.417 442.445 173.026 442.445 173.75C442.445 174.443 442.539 175.034 442.727 175.523C442.919 176.013 443.203 176.388 443.578 176.648C443.958 176.904 444.432 177.031 445 177.031C445.453 177.031 445.862 176.984 446.227 176.891C446.591 176.792 446.922 176.677 447.219 176.547V177.703C446.932 177.849 446.612 177.961 446.258 178.039C445.909 178.117 445.492 178.156 445.008 178.156ZM450.547 169.438V178H449.25V169.438H450.547ZM449.914 166.234C450.128 166.234 450.31 166.305 450.461 166.445C450.617 166.581 450.695 166.794 450.695 167.086C450.695 167.372 450.617 167.586 450.461 167.727C450.31 167.867 450.128 167.938 449.914 167.938C449.69 167.938 449.503 167.867 449.352 167.727C449.206 167.586 449.133 167.372 449.133 167.086C449.133 166.794 449.206 166.581 449.352 166.445C449.503 166.305 449.69 166.234 449.914 166.234ZM457.352 169.281C458.367 169.281 459.135 169.531 459.656 170.031C460.177 170.526 460.438 171.323 460.438 172.422V178H459.156V172.508C459.156 171.794 458.992 171.26 458.664 170.906C458.341 170.552 457.844 170.375 457.172 170.375C456.224 170.375 455.557 170.643 455.172 171.18C454.786 171.716 454.594 172.495 454.594 173.516V178H453.297V169.438H454.344L454.539 170.672H454.609C454.792 170.37 455.023 170.117 455.305 169.914C455.586 169.706 455.901 169.549 456.25 169.445C456.599 169.336 456.966 169.281 457.352 169.281ZM470.492 173.703C470.492 174.406 470.401 175.034 470.219 175.586C470.036 176.138 469.773 176.604 469.43 176.984C469.086 177.365 468.669 177.656 468.18 177.859C467.695 178.057 467.146 178.156 466.531 178.156C465.958 178.156 465.432 178.057 464.953 177.859C464.479 177.656 464.068 177.365 463.719 176.984C463.375 176.604 463.107 176.138 462.914 175.586C462.727 175.034 462.633 174.406 462.633 173.703C462.633 172.766 462.792 171.969 463.109 171.312C463.427 170.651 463.88 170.148 464.469 169.805C465.062 169.456 465.768 169.281 466.586 169.281C467.367 169.281 468.049 169.456 468.633 169.805C469.221 170.154 469.677 170.659 470 171.32C470.328 171.977 470.492 172.771 470.492 173.703ZM463.977 173.703C463.977 174.391 464.068 174.987 464.25 175.492C464.432 175.997 464.714 176.388 465.094 176.664C465.474 176.94 465.964 177.078 466.562 177.078C467.156 177.078 467.643 176.94 468.023 176.664C468.409 176.388 468.693 175.997 468.875 175.492C469.057 174.987 469.148 174.391 469.148 173.703C469.148 173.021 469.057 172.432 468.875 171.938C468.693 171.438 468.411 171.052 468.031 170.781C467.651 170.51 467.159 170.375 466.555 170.375C465.664 170.375 465.01 170.669 464.594 171.258C464.182 171.846 463.977 172.661 463.977 173.703ZM478.273 175.656C478.273 176.203 478.135 176.664 477.859 177.039C477.589 177.409 477.198 177.688 476.688 177.875C476.182 178.062 475.578 178.156 474.875 178.156C474.276 178.156 473.758 178.109 473.32 178.016C472.883 177.922 472.5 177.789 472.172 177.617V176.422C472.521 176.594 472.938 176.75 473.422 176.891C473.906 177.031 474.401 177.102 474.906 177.102C475.646 177.102 476.182 176.982 476.516 176.742C476.849 176.503 477.016 176.177 477.016 175.766C477.016 175.531 476.948 175.326 476.812 175.148C476.682 174.966 476.461 174.792 476.148 174.625C475.836 174.453 475.404 174.266 474.852 174.062C474.305 173.854 473.831 173.648 473.43 173.445C473.034 173.237 472.727 172.984 472.508 172.688C472.294 172.391 472.188 172.005 472.188 171.531C472.188 170.807 472.479 170.253 473.062 169.867C473.651 169.477 474.422 169.281 475.375 169.281C475.891 169.281 476.372 169.333 476.82 169.438C477.273 169.536 477.695 169.672 478.086 169.844L477.648 170.883C477.294 170.732 476.917 170.604 476.516 170.5C476.115 170.396 475.706 170.344 475.289 170.344C474.69 170.344 474.229 170.443 473.906 170.641C473.589 170.839 473.43 171.109 473.43 171.453C473.43 171.719 473.503 171.938 473.648 172.109C473.799 172.281 474.039 172.443 474.367 172.594C474.695 172.745 475.128 172.922 475.664 173.125C476.201 173.323 476.664 173.529 477.055 173.742C477.445 173.951 477.745 174.206 477.953 174.508C478.167 174.805 478.273 175.188 478.273 175.656ZM483.164 169.438H484.555L486.445 174.406C486.555 174.698 486.656 174.979 486.75 175.25C486.844 175.516 486.927 175.771 487 176.016C487.073 176.26 487.13 176.497 487.172 176.727H487.227C487.299 176.466 487.404 176.125 487.539 175.703C487.674 175.276 487.82 174.841 487.977 174.398L489.766 169.438H491.164L487.438 179.258C487.24 179.784 487.008 180.242 486.742 180.633C486.482 181.023 486.164 181.323 485.789 181.531C485.414 181.745 484.961 181.852 484.43 181.852C484.185 181.852 483.969 181.836 483.781 181.805C483.594 181.779 483.432 181.747 483.297 181.711V180.672C483.411 180.698 483.549 180.721 483.711 180.742C483.878 180.763 484.049 180.773 484.227 180.773C484.549 180.773 484.828 180.711 485.062 180.586C485.302 180.466 485.508 180.289 485.68 180.055C485.852 179.82 486 179.542 486.125 179.219L486.594 178.016L483.164 169.438ZM497.992 178H496.688V165.844H497.992V178ZM503.938 169.297C504.958 169.297 505.716 169.526 506.211 169.984C506.706 170.443 506.953 171.174 506.953 172.18V178H506.008L505.758 176.734H505.695C505.456 177.047 505.206 177.31 504.945 177.523C504.685 177.732 504.383 177.891 504.039 178C503.701 178.104 503.284 178.156 502.789 178.156C502.268 178.156 501.805 178.065 501.398 177.883C500.997 177.701 500.68 177.424 500.445 177.055C500.216 176.685 500.102 176.216 500.102 175.648C500.102 174.794 500.44 174.138 501.117 173.68C501.794 173.221 502.826 172.971 504.211 172.93L505.688 172.867V172.344C505.688 171.604 505.529 171.086 505.211 170.789C504.893 170.492 504.445 170.344 503.867 170.344C503.419 170.344 502.992 170.409 502.586 170.539C502.18 170.669 501.794 170.823 501.43 171L501.031 170.016C501.417 169.818 501.859 169.648 502.359 169.508C502.859 169.367 503.385 169.297 503.938 169.297ZM505.672 173.781L504.367 173.836C503.299 173.878 502.547 174.052 502.109 174.359C501.672 174.667 501.453 175.102 501.453 175.664C501.453 176.154 501.602 176.516 501.898 176.75C502.195 176.984 502.589 177.102 503.078 177.102C503.839 177.102 504.461 176.891 504.945 176.469C505.43 176.047 505.672 175.414 505.672 174.57V173.781ZM283.883 193.297C284.904 193.297 285.661 193.526 286.156 193.984C286.651 194.443 286.898 195.174 286.898 196.18V202H285.953L285.703 200.734H285.641C285.401 201.047 285.151 201.31 284.891 201.523C284.63 201.732 284.328 201.891 283.984 202C283.646 202.104 283.229 202.156 282.734 202.156C282.214 202.156 281.75 202.065 281.344 201.883C280.943 201.701 280.625 201.424 280.391 201.055C280.161 200.685 280.047 200.216 280.047 199.648C280.047 198.794 280.385 198.138 281.062 197.68C281.74 197.221 282.771 196.971 284.156 196.93L285.633 196.867V196.344C285.633 195.604 285.474 195.086 285.156 194.789C284.839 194.492 284.391 194.344 283.812 194.344C283.365 194.344 282.938 194.409 282.531 194.539C282.125 194.669 281.74 194.823 281.375 195L280.977 194.016C281.362 193.818 281.805 193.648 282.305 193.508C282.805 193.367 283.331 193.297 283.883 193.297ZM285.617 197.781L284.312 197.836C283.245 197.878 282.492 198.052 282.055 198.359C281.617 198.667 281.398 199.102 281.398 199.664C281.398 200.154 281.547 200.516 281.844 200.75C282.141 200.984 282.534 201.102 283.023 201.102C283.784 201.102 284.406 200.891 284.891 200.469C285.375 200.047 285.617 199.414 285.617 198.57V197.781ZM292.617 202.156C291.534 202.156 290.674 201.786 290.039 201.047C289.409 200.307 289.094 199.208 289.094 197.75C289.094 196.276 289.417 195.164 290.062 194.414C290.708 193.659 291.568 193.281 292.641 193.281C293.094 193.281 293.49 193.341 293.828 193.461C294.167 193.581 294.458 193.742 294.703 193.945C294.948 194.143 295.154 194.37 295.32 194.625H295.414C295.393 194.464 295.372 194.242 295.352 193.961C295.331 193.68 295.32 193.451 295.32 193.273V189.844H296.617V202H295.57L295.375 200.781H295.32C295.159 201.036 294.953 201.268 294.703 201.477C294.458 201.685 294.164 201.852 293.82 201.977C293.482 202.096 293.081 202.156 292.617 202.156ZM292.82 201.078C293.737 201.078 294.385 200.818 294.766 200.297C295.146 199.776 295.336 199.003 295.336 197.977V197.742C295.336 196.654 295.154 195.818 294.789 195.234C294.43 194.651 293.773 194.359 292.82 194.359C292.023 194.359 291.427 194.667 291.031 195.281C290.635 195.891 290.438 196.724 290.438 197.781C290.438 198.833 290.633 199.646 291.023 200.219C291.419 200.792 292.018 201.078 292.82 201.078ZM308.664 193.281C309.607 193.281 310.318 193.529 310.797 194.023C311.276 194.513 311.516 195.302 311.516 196.391V202H310.234V196.453C310.234 195.76 310.083 195.242 309.781 194.898C309.484 194.549 309.042 194.375 308.453 194.375C307.625 194.375 307.023 194.615 306.648 195.094C306.273 195.573 306.086 196.279 306.086 197.211V202H304.797V196.453C304.797 195.99 304.729 195.604 304.594 195.297C304.464 194.99 304.266 194.76 304 194.609C303.74 194.453 303.409 194.375 303.008 194.375C302.44 194.375 301.984 194.492 301.641 194.727C301.297 194.961 301.047 195.31 300.891 195.773C300.74 196.232 300.664 196.797 300.664 197.469V202H299.367V193.438H300.414L300.609 194.648H300.68C300.852 194.352 301.068 194.102 301.328 193.898C301.589 193.695 301.88 193.542 302.203 193.438C302.526 193.333 302.87 193.281 303.234 193.281C303.885 193.281 304.43 193.404 304.867 193.648C305.31 193.888 305.63 194.255 305.828 194.75H305.898C306.18 194.255 306.565 193.888 307.055 193.648C307.544 193.404 308.081 193.281 308.664 193.281ZM315.477 193.438V202H314.18V193.438H315.477ZM314.844 190.234C315.057 190.234 315.24 190.305 315.391 190.445C315.547 190.581 315.625 190.794 315.625 191.086C315.625 191.372 315.547 191.586 315.391 191.727C315.24 191.867 315.057 191.938 314.844 191.938C314.62 191.938 314.432 191.867 314.281 191.727C314.135 191.586 314.062 191.372 314.062 191.086C314.062 190.794 314.135 190.581 314.281 190.445C314.432 190.305 314.62 190.234 314.844 190.234ZM322.281 193.281C323.297 193.281 324.065 193.531 324.586 194.031C325.107 194.526 325.367 195.323 325.367 196.422V202H324.086V196.508C324.086 195.794 323.922 195.26 323.594 194.906C323.271 194.552 322.773 194.375 322.102 194.375C321.154 194.375 320.487 194.643 320.102 195.18C319.716 195.716 319.523 196.495 319.523 197.516V202H318.227V193.438H319.273L319.469 194.672H319.539C319.721 194.37 319.953 194.117 320.234 193.914C320.516 193.706 320.831 193.549 321.18 193.445C321.529 193.336 321.896 193.281 322.281 193.281ZM329.336 193.438V202H328.039V193.438H329.336ZM328.703 190.234C328.917 190.234 329.099 190.305 329.25 190.445C329.406 190.581 329.484 190.794 329.484 191.086C329.484 191.372 329.406 191.586 329.25 191.727C329.099 191.867 328.917 191.938 328.703 191.938C328.479 191.938 328.292 191.867 328.141 191.727C327.995 191.586 327.922 191.372 327.922 191.086C327.922 190.794 327.995 190.581 328.141 190.445C328.292 190.305 328.479 190.234 328.703 190.234ZM337.625 199.656C337.625 200.203 337.487 200.664 337.211 201.039C336.94 201.409 336.549 201.688 336.039 201.875C335.534 202.062 334.93 202.156 334.227 202.156C333.628 202.156 333.109 202.109 332.672 202.016C332.234 201.922 331.852 201.789 331.523 201.617V200.422C331.872 200.594 332.289 200.75 332.773 200.891C333.258 201.031 333.753 201.102 334.258 201.102C334.997 201.102 335.534 200.982 335.867 200.742C336.201 200.503 336.367 200.177 336.367 199.766C336.367 199.531 336.299 199.326 336.164 199.148C336.034 198.966 335.812 198.792 335.5 198.625C335.188 198.453 334.755 198.266 334.203 198.062C333.656 197.854 333.182 197.648 332.781 197.445C332.385 197.237 332.078 196.984 331.859 196.688C331.646 196.391 331.539 196.005 331.539 195.531C331.539 194.807 331.831 194.253 332.414 193.867C333.003 193.477 333.773 193.281 334.727 193.281C335.242 193.281 335.724 193.333 336.172 193.438C336.625 193.536 337.047 193.672 337.438 193.844L337 194.883C336.646 194.732 336.268 194.604 335.867 194.5C335.466 194.396 335.057 194.344 334.641 194.344C334.042 194.344 333.581 194.443 333.258 194.641C332.94 194.839 332.781 195.109 332.781 195.453C332.781 195.719 332.854 195.938 333 196.109C333.151 196.281 333.391 196.443 333.719 196.594C334.047 196.745 334.479 196.922 335.016 197.125C335.552 197.323 336.016 197.529 336.406 197.742C336.797 197.951 337.096 198.206 337.305 198.508C337.518 198.805 337.625 199.188 337.625 199.656ZM342.477 201.094C342.69 201.094 342.909 201.076 343.133 201.039C343.357 201.003 343.539 200.958 343.68 200.906V201.914C343.529 201.982 343.318 202.039 343.047 202.086C342.781 202.133 342.521 202.156 342.266 202.156C341.812 202.156 341.401 202.078 341.031 201.922C340.661 201.76 340.365 201.49 340.141 201.109C339.922 200.729 339.812 200.203 339.812 199.531V194.453H338.594V193.82L339.82 193.312L340.336 191.453H341.117V193.438H343.625V194.453H341.117V199.492C341.117 200.029 341.24 200.43 341.484 200.695C341.734 200.961 342.065 201.094 342.477 201.094ZM349.305 193.281C349.477 193.281 349.656 193.292 349.844 193.312C350.031 193.328 350.198 193.352 350.344 193.383L350.18 194.586C350.039 194.549 349.883 194.521 349.711 194.5C349.539 194.479 349.378 194.469 349.227 194.469C348.883 194.469 348.557 194.539 348.25 194.68C347.948 194.815 347.682 195.013 347.453 195.273C347.224 195.529 347.044 195.839 346.914 196.203C346.784 196.562 346.719 196.964 346.719 197.406V202H345.414V193.438H346.492L346.633 195.016H346.688C346.865 194.698 347.078 194.409 347.328 194.148C347.578 193.883 347.867 193.672 348.195 193.516C348.529 193.359 348.898 193.281 349.305 193.281ZM355.164 193.297C356.185 193.297 356.943 193.526 357.438 193.984C357.932 194.443 358.18 195.174 358.18 196.18V202H357.234L356.984 200.734H356.922C356.682 201.047 356.432 201.31 356.172 201.523C355.911 201.732 355.609 201.891 355.266 202C354.927 202.104 354.51 202.156 354.016 202.156C353.495 202.156 353.031 202.065 352.625 201.883C352.224 201.701 351.906 201.424 351.672 201.055C351.443 200.685 351.328 200.216 351.328 199.648C351.328 198.794 351.667 198.138 352.344 197.68C353.021 197.221 354.052 196.971 355.438 196.93L356.914 196.867V196.344C356.914 195.604 356.755 195.086 356.438 194.789C356.12 194.492 355.672 194.344 355.094 194.344C354.646 194.344 354.219 194.409 353.812 194.539C353.406 194.669 353.021 194.823 352.656 195L352.258 194.016C352.643 193.818 353.086 193.648 353.586 193.508C354.086 193.367 354.612 193.297 355.164 193.297ZM356.898 197.781L355.594 197.836C354.526 197.878 353.773 198.052 353.336 198.359C352.898 198.667 352.68 199.102 352.68 199.664C352.68 200.154 352.828 200.516 353.125 200.75C353.422 200.984 353.815 201.102 354.305 201.102C355.065 201.102 355.688 200.891 356.172 200.469C356.656 200.047 356.898 199.414 356.898 198.57V197.781ZM364.281 202.156C363.51 202.156 362.831 201.997 362.242 201.68C361.654 201.362 361.195 200.878 360.867 200.227C360.539 199.576 360.375 198.755 360.375 197.766C360.375 196.729 360.547 195.883 360.891 195.227C361.24 194.565 361.719 194.076 362.328 193.758C362.938 193.44 363.63 193.281 364.406 193.281C364.833 193.281 365.245 193.326 365.641 193.414C366.042 193.497 366.37 193.604 366.625 193.734L366.234 194.82C365.974 194.716 365.672 194.622 365.328 194.539C364.99 194.456 364.672 194.414 364.375 194.414C363.781 194.414 363.286 194.542 362.891 194.797C362.5 195.052 362.206 195.427 362.008 195.922C361.815 196.417 361.719 197.026 361.719 197.75C361.719 198.443 361.812 199.034 362 199.523C362.193 200.013 362.477 200.388 362.852 200.648C363.232 200.904 363.706 201.031 364.273 201.031C364.727 201.031 365.135 200.984 365.5 200.891C365.865 200.792 366.195 200.677 366.492 200.547V201.703C366.206 201.849 365.885 201.961 365.531 202.039C365.182 202.117 364.766 202.156 364.281 202.156ZM369.82 193.438V202H368.523V193.438H369.82ZM369.188 190.234C369.401 190.234 369.583 190.305 369.734 190.445C369.891 190.581 369.969 190.794 369.969 191.086C369.969 191.372 369.891 191.586 369.734 191.727C369.583 191.867 369.401 191.938 369.188 191.938C368.964 191.938 368.776 191.867 368.625 191.727C368.479 191.586 368.406 191.372 368.406 191.086C368.406 190.794 368.479 190.581 368.625 190.445C368.776 190.305 368.964 190.234 369.188 190.234ZM379.953 197.703C379.953 198.406 379.862 199.034 379.68 199.586C379.497 200.138 379.234 200.604 378.891 200.984C378.547 201.365 378.13 201.656 377.641 201.859C377.156 202.057 376.607 202.156 375.992 202.156C375.419 202.156 374.893 202.057 374.414 201.859C373.94 201.656 373.529 201.365 373.18 200.984C372.836 200.604 372.568 200.138 372.375 199.586C372.188 199.034 372.094 198.406 372.094 197.703C372.094 196.766 372.253 195.969 372.57 195.312C372.888 194.651 373.341 194.148 373.93 193.805C374.523 193.456 375.229 193.281 376.047 193.281C376.828 193.281 377.51 193.456 378.094 193.805C378.682 194.154 379.138 194.659 379.461 195.32C379.789 195.977 379.953 196.771 379.953 197.703ZM373.438 197.703C373.438 198.391 373.529 198.987 373.711 199.492C373.893 199.997 374.174 200.388 374.555 200.664C374.935 200.94 375.424 201.078 376.023 201.078C376.617 201.078 377.104 200.94 377.484 200.664C377.87 200.388 378.154 199.997 378.336 199.492C378.518 198.987 378.609 198.391 378.609 197.703C378.609 197.021 378.518 196.432 378.336 195.938C378.154 195.438 377.872 195.052 377.492 194.781C377.112 194.51 376.62 194.375 376.016 194.375C375.125 194.375 374.471 194.669 374.055 195.258C373.643 195.846 373.438 196.661 373.438 197.703ZM386.25 193.281C387.266 193.281 388.034 193.531 388.555 194.031C389.076 194.526 389.336 195.323 389.336 196.422V202H388.055V196.508C388.055 195.794 387.891 195.26 387.562 194.906C387.24 194.552 386.742 194.375 386.07 194.375C385.122 194.375 384.456 194.643 384.07 195.18C383.685 195.716 383.492 196.495 383.492 197.516V202H382.195V193.438H383.242L383.438 194.672H383.508C383.69 194.37 383.922 194.117 384.203 193.914C384.484 193.706 384.799 193.549 385.148 193.445C385.497 193.336 385.865 193.281 386.25 193.281ZM399.344 190.578C400.818 190.578 401.893 190.867 402.57 191.445C403.253 192.018 403.594 192.841 403.594 193.914C403.594 194.398 403.513 194.859 403.352 195.297C403.195 195.729 402.94 196.112 402.586 196.445C402.232 196.773 401.766 197.034 401.188 197.227C400.615 197.414 399.911 197.508 399.078 197.508H397.688V202H396.359V190.578H399.344ZM399.219 191.711H397.688V196.367H398.93C399.659 196.367 400.266 196.289 400.75 196.133C401.24 195.977 401.607 195.724 401.852 195.375C402.096 195.021 402.219 194.552 402.219 193.969C402.219 193.208 401.977 192.643 401.492 192.273C401.008 191.898 400.25 191.711 399.219 191.711ZM412.859 193.438V202H411.797L411.609 200.797H411.539C411.362 201.094 411.133 201.344 410.852 201.547C410.57 201.75 410.253 201.901 409.898 202C409.549 202.104 409.177 202.156 408.781 202.156C408.104 202.156 407.536 202.047 407.078 201.828C406.62 201.609 406.273 201.271 406.039 200.812C405.81 200.354 405.695 199.766 405.695 199.047V193.438H407.008V198.953C407.008 199.667 407.169 200.201 407.492 200.555C407.815 200.904 408.307 201.078 408.969 201.078C409.604 201.078 410.109 200.958 410.484 200.719C410.865 200.479 411.138 200.128 411.305 199.664C411.471 199.195 411.555 198.622 411.555 197.945V193.438H412.859ZM411.594 189.742V189.898C411.49 190.049 411.346 190.232 411.164 190.445C410.987 190.654 410.789 190.875 410.57 191.109C410.352 191.339 410.13 191.557 409.906 191.766C409.688 191.974 409.484 192.154 409.297 192.305H408.43V192.117C408.596 191.919 408.779 191.682 408.977 191.406C409.174 191.125 409.367 190.839 409.555 190.547C409.742 190.25 409.898 189.982 410.023 189.742H411.594ZM416.898 189.844V192.883C416.898 193.232 416.888 193.57 416.867 193.898C416.852 194.227 416.839 194.482 416.828 194.664H416.898C417.133 194.279 417.471 193.953 417.914 193.688C418.357 193.422 418.922 193.289 419.609 193.289C420.682 193.289 421.536 193.661 422.172 194.406C422.812 195.146 423.133 196.247 423.133 197.711C423.133 198.674 422.987 199.487 422.695 200.148C422.404 200.81 421.992 201.31 421.461 201.648C420.93 201.987 420.302 202.156 419.578 202.156C418.901 202.156 418.344 202.031 417.906 201.781C417.474 201.526 417.141 201.216 416.906 200.852H416.805L416.539 202H415.602V189.844H416.898ZM419.398 194.375C418.779 194.375 418.286 194.497 417.922 194.742C417.557 194.982 417.294 195.346 417.133 195.836C416.977 196.32 416.898 196.935 416.898 197.68V197.75C416.898 198.828 417.078 199.654 417.438 200.227C417.797 200.794 418.451 201.078 419.398 201.078C420.195 201.078 420.792 200.786 421.188 200.203C421.589 199.62 421.789 198.786 421.789 197.703C421.789 196.599 421.591 195.768 421.195 195.211C420.805 194.654 420.206 194.375 419.398 194.375ZM426.703 202H425.398V189.844H426.703V202ZM430.742 193.438V202H429.445V193.438H430.742ZM430.109 190.234C430.323 190.234 430.505 190.305 430.656 190.445C430.812 190.581 430.891 190.794 430.891 191.086C430.891 191.372 430.812 191.586 430.656 191.727C430.505 191.867 430.323 191.938 430.109 191.938C429.885 191.938 429.698 191.867 429.547 191.727C429.401 191.586 429.328 191.372 429.328 191.086C429.328 190.794 429.401 190.581 429.547 190.445C429.698 190.305 429.885 190.234 430.109 190.234ZM436.922 202.156C436.151 202.156 435.471 201.997 434.883 201.68C434.294 201.362 433.836 200.878 433.508 200.227C433.18 199.576 433.016 198.755 433.016 197.766C433.016 196.729 433.188 195.883 433.531 195.227C433.88 194.565 434.359 194.076 434.969 193.758C435.578 193.44 436.271 193.281 437.047 193.281C437.474 193.281 437.885 193.326 438.281 193.414C438.682 193.497 439.01 193.604 439.266 193.734L438.875 194.82C438.615 194.716 438.312 194.622 437.969 194.539C437.63 194.456 437.312 194.414 437.016 194.414C436.422 194.414 435.927 194.542 435.531 194.797C435.141 195.052 434.846 195.427 434.648 195.922C434.456 196.417 434.359 197.026 434.359 197.75C434.359 198.443 434.453 199.034 434.641 199.523C434.833 200.013 435.117 200.388 435.492 200.648C435.872 200.904 436.346 201.031 436.914 201.031C437.367 201.031 437.776 200.984 438.141 200.891C438.505 200.792 438.836 200.677 439.133 200.547V201.703C438.846 201.849 438.526 201.961 438.172 202.039C437.823 202.117 437.406 202.156 436.922 202.156ZM444.367 193.297C445.388 193.297 446.146 193.526 446.641 193.984C447.135 194.443 447.383 195.174 447.383 196.18V202H446.438L446.188 200.734H446.125C445.885 201.047 445.635 201.31 445.375 201.523C445.115 201.732 444.812 201.891 444.469 202C444.13 202.104 443.714 202.156 443.219 202.156C442.698 202.156 442.234 202.065 441.828 201.883C441.427 201.701 441.109 201.424 440.875 201.055C440.646 200.685 440.531 200.216 440.531 199.648C440.531 198.794 440.87 198.138 441.547 197.68C442.224 197.221 443.255 196.971 444.641 196.93L446.117 196.867V196.344C446.117 195.604 445.958 195.086 445.641 194.789C445.323 194.492 444.875 194.344 444.297 194.344C443.849 194.344 443.422 194.409 443.016 194.539C442.609 194.669 442.224 194.823 441.859 195L441.461 194.016C441.846 193.818 442.289 193.648 442.789 193.508C443.289 193.367 443.815 193.297 444.367 193.297ZM446.102 197.781L444.797 197.836C443.729 197.878 442.977 198.052 442.539 198.359C442.102 198.667 441.883 199.102 441.883 199.664C441.883 200.154 442.031 200.516 442.328 200.75C442.625 200.984 443.018 201.102 443.508 201.102C444.268 201.102 444.891 200.891 445.375 200.469C445.859 200.047 446.102 199.414 446.102 198.57V197.781Z" fill="#38485C"/>
</svg>
