<svg width="728" height="315" viewBox="0 0 728 315" fill="none" xmlns="http://www.w3.org/2000/svg">
<rect x="1" y="1" width="726" height="313" rx="7" fill="#F3F6F9"/>
<rect x="1" y="1" width="726" height="313" rx="7" stroke="#E6EBF0" stroke-width="2"/>
<rect x="154.5" y="83.5" width="419" height="183" rx="7.5" fill="white"/>
<rect x="154.5" y="83.5" width="419" height="183" rx="7.5" stroke="#E6EBF0"/>
<path d="M310.518 144.4C309.078 144.4 307.585 144.213 306.038 143.84C304.491 143.467 303.145 142.907 301.998 142.16C301.465 141.813 301.105 141.413 300.918 140.96C300.731 140.507 300.678 140.08 300.758 139.68C300.865 139.253 301.065 138.893 301.358 138.6C301.678 138.307 302.065 138.133 302.518 138.08C302.998 138.027 303.518 138.147 304.078 138.44C305.171 139.027 306.225 139.453 307.238 139.72C308.251 139.96 309.291 140.08 310.358 140.08C311.531 140.08 312.518 139.92 313.318 139.6C314.118 139.28 314.718 138.8 315.118 138.16C315.545 137.52 315.758 136.747 315.758 135.84C315.758 134.507 315.305 133.52 314.398 132.88C313.518 132.213 312.225 131.88 310.518 131.88H307.958C307.211 131.88 306.638 131.693 306.238 131.32C305.865 130.947 305.678 130.427 305.678 129.76C305.678 129.093 305.865 128.573 306.238 128.2C306.638 127.827 307.211 127.64 307.958 127.64H310.038C311.051 127.64 311.918 127.48 312.638 127.16C313.358 126.813 313.918 126.333 314.318 125.72C314.718 125.107 314.918 124.36 314.918 123.48C314.918 122.253 314.505 121.32 313.678 120.68C312.878 120.04 311.705 119.72 310.158 119.72C309.171 119.72 308.238 119.84 307.358 120.08C306.505 120.293 305.558 120.707 304.518 121.32C304.038 121.613 303.571 121.733 303.118 121.68C302.691 121.627 302.331 121.453 302.038 121.16C301.745 120.867 301.545 120.52 301.438 120.12C301.331 119.693 301.358 119.267 301.518 118.84C301.678 118.387 302.011 118 302.518 117.68C303.665 116.933 304.931 116.373 306.318 116C307.705 115.6 309.131 115.4 310.598 115.4C312.545 115.4 314.211 115.707 315.598 116.32C316.985 116.907 318.038 117.76 318.758 118.88C319.505 119.973 319.878 121.307 319.878 122.88C319.878 124 319.665 125.027 319.238 125.96C318.811 126.867 318.211 127.64 317.438 128.28C316.665 128.92 315.731 129.373 314.638 129.64V129.16C316.558 129.48 318.051 130.28 319.118 131.56C320.185 132.813 320.718 134.387 320.718 136.28C320.718 137.933 320.305 139.373 319.478 140.6C318.651 141.827 317.478 142.773 315.958 143.44C314.438 144.08 312.625 144.4 310.518 144.4ZM336.103 144.4C333.783 144.4 331.796 143.853 330.143 142.76C328.516 141.64 327.276 140.04 326.423 137.96C325.569 135.88 325.143 133.36 325.143 130.4C325.143 128 325.409 125.88 325.943 124.04C326.503 122.173 327.303 120.6 328.342 119.32C329.383 118.04 330.649 117.067 332.143 116.4C333.663 115.733 335.369 115.4 337.263 115.4C338.436 115.4 339.623 115.587 340.823 115.96C342.049 116.307 343.196 116.84 344.263 117.56C344.689 117.827 344.969 118.173 345.102 118.6C345.236 119.027 345.249 119.453 345.143 119.88C345.063 120.28 344.876 120.64 344.583 120.96C344.316 121.253 343.969 121.44 343.543 121.52C343.116 121.573 342.649 121.453 342.143 121.16C341.236 120.627 340.383 120.253 339.583 120.04C338.783 119.827 337.983 119.72 337.183 119.72C335.636 119.72 334.329 120.08 333.263 120.8C332.196 121.52 331.383 122.6 330.823 124.04C330.289 125.48 330.023 127.28 330.023 129.44V132.44H329.543C329.756 131.08 330.196 129.92 330.863 128.96C331.556 127.973 332.436 127.227 333.503 126.72C334.569 126.187 335.756 125.92 337.063 125.92C338.689 125.92 340.129 126.307 341.383 127.08C342.636 127.853 343.622 128.92 344.343 130.28C345.063 131.64 345.423 133.2 345.423 134.96C345.423 136.773 345.023 138.4 344.223 139.84C343.449 141.253 342.356 142.373 340.943 143.2C339.556 144 337.943 144.4 336.103 144.4ZM335.823 140.32C336.783 140.32 337.623 140.107 338.343 139.68C339.089 139.253 339.663 138.653 340.063 137.88C340.463 137.08 340.663 136.173 340.663 135.16C340.663 134.12 340.463 133.213 340.063 132.44C339.663 131.667 339.089 131.067 338.343 130.64C337.623 130.187 336.783 129.96 335.823 129.96C334.863 129.96 334.023 130.187 333.303 130.64C332.583 131.067 332.009 131.667 331.583 132.44C331.183 133.213 330.983 134.12 330.983 135.16C330.983 136.173 331.183 137.08 331.583 137.88C332.009 138.653 332.583 139.253 333.303 139.68C334.023 140.107 334.863 140.32 335.823 140.32ZM352.047 144.2C351.14 144.2 350.407 143.92 349.847 143.36C349.314 142.8 349.047 142.08 349.047 141.2C349.047 140.347 349.314 139.653 349.847 139.12C350.407 138.56 351.14 138.28 352.047 138.28C352.98 138.28 353.7 138.56 354.207 139.12C354.74 139.653 355.007 140.347 355.007 141.2C355.007 142.08 354.74 142.8 354.207 143.36C353.7 143.92 352.98 144.2 352.047 144.2ZM369.209 144.4C367.795 144.4 366.355 144.213 364.889 143.84C363.422 143.467 362.075 142.893 360.849 142.12C360.342 141.8 359.995 141.427 359.809 141C359.649 140.547 359.609 140.107 359.689 139.68C359.795 139.227 359.995 138.853 360.289 138.56C360.609 138.24 360.982 138.053 361.409 138C361.862 137.947 362.355 138.067 362.889 138.36C363.875 138.92 364.875 139.347 365.889 139.64C366.902 139.933 367.982 140.08 369.129 140.08C370.249 140.08 371.209 139.88 372.009 139.48C372.809 139.08 373.422 138.52 373.849 137.8C374.275 137.08 374.489 136.24 374.489 135.28C374.489 133.787 374.035 132.587 373.129 131.68C372.222 130.747 370.982 130.28 369.409 130.28C368.555 130.28 367.729 130.427 366.929 130.72C366.129 130.987 365.342 131.467 364.569 132.16C364.329 132.373 364.022 132.587 363.649 132.8C363.275 132.987 362.875 133.08 362.449 133.08C361.782 133.08 361.275 132.907 360.929 132.56C360.582 132.213 360.409 131.733 360.409 131.12V118.04C360.409 117.32 360.595 116.773 360.969 116.4C361.369 116 361.929 115.8 362.649 115.8H375.809C376.529 115.8 377.075 115.987 377.449 116.36C377.849 116.707 378.049 117.227 378.049 117.92C378.049 118.587 377.849 119.107 377.449 119.48C377.075 119.853 376.529 120.04 375.809 120.04H365.409V129H364.089C364.782 128.067 365.702 127.347 366.849 126.84C367.995 126.333 369.249 126.08 370.609 126.08C372.395 126.08 373.942 126.467 375.249 127.24C376.582 127.987 377.609 129.04 378.329 130.4C379.075 131.733 379.449 133.293 379.449 135.08C379.449 136.92 379.035 138.547 378.209 139.96C377.382 141.347 376.195 142.44 374.649 143.24C373.129 144.013 371.315 144.4 369.209 144.4ZM387.833 144.32C387.22 144.32 386.713 144.173 386.313 143.88C385.913 143.587 385.673 143.2 385.593 142.72C385.513 142.213 385.633 141.653 385.953 141.04L398.033 118.32V120.08H385.073C384.353 120.08 383.793 119.893 383.393 119.52C383.02 119.147 382.833 118.627 382.833 117.96C382.833 117.267 383.02 116.733 383.393 116.36C383.793 115.987 384.353 115.8 385.073 115.8H400.553C401.273 115.8 401.86 115.987 402.313 116.36C402.766 116.733 402.993 117.267 402.993 117.96C402.993 118.547 402.913 119.067 402.753 119.52C402.593 119.947 402.38 120.413 402.113 120.92L390.753 142.64C390.46 143.227 390.073 143.653 389.593 143.92C389.14 144.187 388.553 144.32 387.833 144.32ZM416.938 144.4C414.751 144.4 412.871 144.093 411.298 143.48C409.751 142.84 408.551 141.92 407.698 140.72C406.871 139.52 406.458 138.08 406.458 136.4C406.458 135.067 406.724 133.893 407.258 132.88C407.818 131.84 408.578 131 409.538 130.36C410.498 129.72 411.591 129.32 412.818 129.16V130C411.111 129.627 409.738 128.813 408.698 127.56C407.684 126.28 407.178 124.76 407.178 123C407.178 121.4 407.578 120.04 408.378 118.92C409.178 117.773 410.311 116.907 411.778 116.32C413.244 115.707 414.964 115.4 416.938 115.4C418.938 115.4 420.671 115.707 422.138 116.32C423.604 116.907 424.738 117.773 425.538 118.92C426.338 120.04 426.738 121.4 426.738 123C426.738 124.173 426.498 125.253 426.018 126.24C425.564 127.227 424.911 128.04 424.058 128.68C423.231 129.32 422.258 129.747 421.138 129.96V129.16C423.004 129.427 424.511 130.213 425.658 131.52C426.831 132.8 427.418 134.427 427.418 136.4C427.418 138.08 426.991 139.52 426.138 140.72C425.311 141.92 424.111 142.84 422.538 143.48C420.991 144.093 419.124 144.4 416.938 144.4ZM416.938 140.4C418.831 140.4 420.258 140.04 421.218 139.32C422.178 138.573 422.658 137.48 422.658 136.04C422.658 134.6 422.178 133.52 421.218 132.8C420.258 132.08 418.831 131.72 416.938 131.72C415.071 131.72 413.644 132.08 412.658 132.8C411.698 133.52 411.218 134.6 411.218 136.04C411.218 137.48 411.698 138.573 412.658 139.32C413.644 140.04 415.071 140.4 416.938 140.4ZM416.938 127.72C418.004 127.72 418.911 127.56 419.658 127.24C420.404 126.893 420.978 126.4 421.378 125.76C421.778 125.12 421.978 124.373 421.978 123.52C421.978 122.24 421.524 121.24 420.618 120.52C419.738 119.773 418.511 119.4 416.938 119.4C415.364 119.4 414.138 119.773 413.258 120.52C412.378 121.24 411.938 122.24 411.938 123.52C411.938 124.827 412.378 125.853 413.258 126.6C414.138 127.347 415.364 127.72 416.938 127.72Z" fill="#101E37"/>
<path d="M296.695 182C296.255 182 295.915 181.887 295.675 181.66C295.448 181.42 295.335 181.08 295.335 180.64V169.26C295.335 168.82 295.448 168.487 295.675 168.26C295.915 168.02 296.255 167.9 296.695 167.9H300.575C302.935 167.9 304.755 168.507 306.035 169.72C307.328 170.933 307.975 172.673 307.975 174.94C307.975 176.073 307.808 177.08 307.475 177.96C307.155 178.827 306.675 179.56 306.035 180.16C305.408 180.76 304.635 181.22 303.715 181.54C302.808 181.847 301.762 182 300.575 182H296.695ZM297.895 179.88H300.415C301.242 179.88 301.955 179.78 302.555 179.58C303.168 179.367 303.675 179.06 304.075 178.66C304.488 178.247 304.795 177.733 304.995 177.12C305.195 176.493 305.295 175.767 305.295 174.94C305.295 173.287 304.888 172.053 304.075 171.24C303.262 170.427 302.042 170.02 300.415 170.02H297.895V179.88ZM311.569 182.14C311.169 182.14 310.863 182.02 310.649 181.78C310.436 181.54 310.329 181.207 310.329 180.78V173.44C310.329 173 310.436 172.667 310.649 172.44C310.863 172.2 311.169 172.08 311.569 172.08C311.969 172.08 312.276 172.2 312.489 172.44C312.716 172.667 312.829 173 312.829 173.44V180.78C312.829 181.207 312.723 181.54 312.509 181.78C312.296 182.02 311.983 182.14 311.569 182.14ZM312.509 170.8C312.376 170.987 312.216 171.093 312.029 171.12C311.843 171.147 311.663 171.113 311.489 171.02C311.316 170.927 311.189 170.793 311.109 170.62C311.043 170.447 311.063 170.253 311.169 170.04L312.689 167.06C312.809 166.807 312.969 166.647 313.169 166.58C313.369 166.5 313.576 166.487 313.789 166.54C314.003 166.593 314.183 166.693 314.329 166.84C314.489 166.987 314.583 167.167 314.609 167.38C314.649 167.58 314.596 167.787 314.449 168L312.509 170.8ZM318.647 182.2C317.94 182.2 317.307 182.067 316.747 181.8C316.2 181.52 315.767 181.147 315.447 180.68C315.14 180.213 314.987 179.687 314.987 179.1C314.987 178.38 315.174 177.813 315.547 177.4C315.92 176.973 316.527 176.667 317.367 176.48C318.207 176.293 319.334 176.2 320.747 176.2H321.747V177.64H320.767C319.94 177.64 319.28 177.68 318.787 177.76C318.294 177.84 317.94 177.98 317.727 178.18C317.527 178.367 317.427 178.633 317.427 178.98C317.427 179.42 317.58 179.78 317.887 180.06C318.194 180.34 318.62 180.48 319.167 180.48C319.607 180.48 319.994 180.38 320.327 180.18C320.674 179.967 320.947 179.68 321.147 179.32C321.347 178.96 321.447 178.547 321.447 178.08V175.78C321.447 175.113 321.3 174.633 321.007 174.34C320.714 174.047 320.22 173.9 319.527 173.9C319.14 173.9 318.72 173.947 318.267 174.04C317.827 174.133 317.36 174.293 316.867 174.52C316.614 174.64 316.387 174.673 316.187 174.62C316 174.567 315.854 174.46 315.747 174.3C315.64 174.127 315.587 173.94 315.587 173.74C315.587 173.54 315.64 173.347 315.747 173.16C315.854 172.96 316.034 172.813 316.287 172.72C316.9 172.467 317.487 172.287 318.047 172.18C318.62 172.073 319.14 172.02 319.607 172.02C320.567 172.02 321.354 172.167 321.967 172.46C322.594 172.753 323.06 173.2 323.367 173.8C323.674 174.387 323.827 175.147 323.827 176.08V180.88C323.827 181.293 323.727 181.613 323.527 181.84C323.327 182.053 323.04 182.16 322.667 182.16C322.294 182.16 322 182.053 321.787 181.84C321.587 181.613 321.487 181.293 321.487 180.88V179.92H321.647C321.554 180.387 321.367 180.793 321.087 181.14C320.82 181.473 320.48 181.733 320.067 181.92C319.654 182.107 319.18 182.2 318.647 182.2ZM329.944 182.2C329.371 182.2 328.764 182.14 328.124 182.02C327.484 181.9 326.911 181.693 326.404 181.4C326.191 181.267 326.038 181.113 325.944 180.94C325.864 180.753 325.831 180.573 325.844 180.4C325.871 180.213 325.938 180.053 326.044 179.92C326.164 179.787 326.311 179.7 326.484 179.66C326.671 179.62 326.871 179.653 327.084 179.76C327.618 180.013 328.118 180.193 328.584 180.3C329.051 180.393 329.511 180.44 329.964 180.44C330.604 180.44 331.078 180.333 331.384 180.12C331.704 179.893 331.864 179.6 331.864 179.24C331.864 178.933 331.758 178.7 331.544 178.54C331.344 178.367 331.038 178.24 330.624 178.16L328.624 177.78C327.798 177.62 327.164 177.32 326.724 176.88C326.298 176.427 326.084 175.847 326.084 175.14C326.084 174.5 326.258 173.947 326.604 173.48C326.964 173.013 327.458 172.653 328.084 172.4C328.711 172.147 329.431 172.02 330.244 172.02C330.831 172.02 331.378 172.087 331.884 172.22C332.404 172.34 332.904 172.533 333.384 172.8C333.584 172.907 333.718 173.047 333.784 173.22C333.864 173.393 333.884 173.573 333.844 173.76C333.804 173.933 333.724 174.093 333.604 174.24C333.484 174.373 333.331 174.46 333.144 174.5C332.971 174.527 332.771 174.487 332.544 174.38C332.131 174.167 331.731 174.013 331.344 173.92C330.971 173.827 330.611 173.78 330.264 173.78C329.611 173.78 329.124 173.893 328.804 174.12C328.498 174.347 328.344 174.647 328.344 175.02C328.344 175.3 328.438 175.533 328.624 175.72C328.811 175.907 329.098 176.033 329.484 176.1L331.484 176.48C332.351 176.64 333.004 176.933 333.444 177.36C333.898 177.787 334.124 178.36 334.124 179.08C334.124 180.053 333.744 180.82 332.984 181.38C332.224 181.927 331.211 182.2 329.944 182.2ZM344.78 182.2C344.073 182.2 343.44 182.067 342.88 181.8C342.333 181.52 341.9 181.147 341.58 180.68C341.273 180.213 341.12 179.687 341.12 179.1C341.12 178.38 341.306 177.813 341.68 177.4C342.053 176.973 342.66 176.667 343.5 176.48C344.34 176.293 345.466 176.2 346.88 176.2H347.88V177.64H346.9C346.073 177.64 345.413 177.68 344.92 177.76C344.426 177.84 344.073 177.98 343.86 178.18C343.66 178.367 343.56 178.633 343.56 178.98C343.56 179.42 343.713 179.78 344.02 180.06C344.326 180.34 344.753 180.48 345.3 180.48C345.74 180.48 346.126 180.38 346.46 180.18C346.806 179.967 347.08 179.68 347.28 179.32C347.48 178.96 347.58 178.547 347.58 178.08V175.78C347.58 175.113 347.433 174.633 347.14 174.34C346.846 174.047 346.353 173.9 345.66 173.9C345.273 173.9 344.853 173.947 344.4 174.04C343.96 174.133 343.493 174.293 343 174.52C342.746 174.64 342.52 174.673 342.32 174.62C342.133 174.567 341.986 174.46 341.88 174.3C341.773 174.127 341.72 173.94 341.72 173.74C341.72 173.54 341.773 173.347 341.88 173.16C341.986 172.96 342.166 172.813 342.42 172.72C343.033 172.467 343.62 172.287 344.18 172.18C344.753 172.073 345.273 172.02 345.74 172.02C346.7 172.02 347.486 172.167 348.1 172.46C348.726 172.753 349.193 173.2 349.5 173.8C349.806 174.387 349.96 175.147 349.96 176.08V180.88C349.96 181.293 349.86 181.613 349.66 181.84C349.46 182.053 349.173 182.16 348.8 182.16C348.426 182.16 348.133 182.053 347.92 181.84C347.72 181.613 347.62 181.293 347.62 180.88V179.92H347.78C347.686 180.387 347.5 180.793 347.22 181.14C346.953 181.473 346.613 181.733 346.2 181.92C345.786 182.107 345.313 182.2 344.78 182.2ZM353.737 182.16C353.337 182.16 353.031 182.053 352.817 181.84C352.604 181.613 352.497 181.293 352.497 180.88V169C352.497 168.587 352.604 168.273 352.817 168.06C353.031 167.847 353.337 167.74 353.737 167.74C354.137 167.74 354.444 167.847 354.657 168.06C354.884 168.273 354.997 168.587 354.997 169V174.18H354.717C355.011 173.473 355.464 172.94 356.077 172.58C356.704 172.207 357.411 172.02 358.197 172.02C358.984 172.02 359.631 172.167 360.137 172.46C360.644 172.753 361.024 173.2 361.277 173.8C361.531 174.387 361.657 175.133 361.657 176.04V180.88C361.657 181.293 361.551 181.613 361.337 181.84C361.124 182.053 360.817 182.16 360.417 182.16C360.017 182.16 359.704 182.053 359.477 181.84C359.264 181.613 359.157 181.293 359.157 180.88V176.16C359.157 175.4 359.011 174.847 358.717 174.5C358.437 174.153 357.997 173.98 357.397 173.98C356.664 173.98 356.077 174.213 355.637 174.68C355.211 175.133 354.997 175.74 354.997 176.5V180.88C354.997 181.733 354.577 182.16 353.737 182.16ZM368.656 182.2C367.643 182.2 366.763 181.993 366.016 181.58C365.27 181.167 364.69 180.58 364.276 179.82C363.863 179.047 363.656 178.14 363.656 177.1C363.656 176.313 363.77 175.613 363.996 175C364.236 174.373 364.576 173.84 365.016 173.4C365.456 172.947 365.983 172.607 366.596 172.38C367.21 172.14 367.896 172.02 368.656 172.02C369.67 172.02 370.55 172.227 371.296 172.64C372.043 173.053 372.623 173.64 373.036 174.4C373.45 175.16 373.656 176.06 373.656 177.1C373.656 177.887 373.536 178.593 373.296 179.22C373.07 179.847 372.736 180.387 372.296 180.84C371.856 181.28 371.33 181.62 370.716 181.86C370.103 182.087 369.416 182.2 368.656 182.2ZM368.656 180.3C369.15 180.3 369.583 180.18 369.956 179.94C370.33 179.7 370.616 179.347 370.816 178.88C371.03 178.4 371.136 177.807 371.136 177.1C371.136 176.033 370.91 175.24 370.456 174.72C370.003 174.187 369.403 173.92 368.656 173.92C368.163 173.92 367.73 174.04 367.356 174.28C366.983 174.507 366.69 174.86 366.476 175.34C366.276 175.807 366.176 176.393 366.176 177.1C366.176 178.153 366.403 178.953 366.856 179.5C367.31 180.033 367.91 180.3 368.656 180.3ZM377 182.16C376.587 182.16 376.267 182.053 376.04 181.84C375.827 181.613 375.72 181.293 375.72 180.88V173.32C375.72 172.907 375.827 172.593 376.04 172.38C376.253 172.167 376.553 172.06 376.94 172.06C377.327 172.06 377.627 172.167 377.84 172.38C378.053 172.593 378.16 172.907 378.16 173.32V174.58H377.96C378.147 173.78 378.513 173.173 379.06 172.76C379.607 172.347 380.333 172.1 381.24 172.02C381.52 171.993 381.74 172.067 381.9 172.24C382.073 172.4 382.173 172.653 382.2 173C382.227 173.333 382.147 173.607 381.96 173.82C381.787 174.02 381.52 174.14 381.16 174.18L380.72 174.22C379.907 174.3 379.293 174.553 378.88 174.98C378.467 175.393 378.26 175.98 378.26 176.74V180.88C378.26 181.293 378.153 181.613 377.94 181.84C377.727 182.053 377.413 182.16 377 182.16ZM384.832 182.16C384.419 182.16 384.099 182.053 383.872 181.84C383.659 181.613 383.552 181.293 383.552 180.88V173.32C383.552 172.907 383.659 172.593 383.872 172.38C384.085 172.167 384.385 172.06 384.772 172.06C385.159 172.06 385.459 172.167 385.672 172.38C385.885 172.593 385.992 172.907 385.992 173.32V174.58H385.792C385.979 173.78 386.345 173.173 386.892 172.76C387.439 172.347 388.165 172.1 389.072 172.02C389.352 171.993 389.572 172.067 389.732 172.24C389.905 172.4 390.005 172.653 390.032 173C390.059 173.333 389.979 173.607 389.792 173.82C389.619 174.02 389.352 174.14 388.992 174.18L388.552 174.22C387.739 174.3 387.125 174.553 386.712 174.98C386.299 175.393 386.092 175.98 386.092 176.74V180.88C386.092 181.293 385.985 181.613 385.772 181.84C385.559 182.053 385.245 182.16 384.832 182.16ZM394.506 182.2C393.8 182.2 393.166 182.067 392.606 181.8C392.06 181.52 391.626 181.147 391.306 180.68C391 180.213 390.846 179.687 390.846 179.1C390.846 178.38 391.033 177.813 391.406 177.4C391.78 176.973 392.386 176.667 393.226 176.48C394.066 176.293 395.193 176.2 396.606 176.2H397.606V177.64H396.626C395.8 177.64 395.14 177.68 394.646 177.76C394.153 177.84 393.8 177.98 393.586 178.18C393.386 178.367 393.286 178.633 393.286 178.98C393.286 179.42 393.44 179.78 393.746 180.06C394.053 180.34 394.48 180.48 395.026 180.48C395.466 180.48 395.853 180.38 396.186 180.18C396.533 179.967 396.806 179.68 397.006 179.32C397.206 178.96 397.306 178.547 397.306 178.08V175.78C397.306 175.113 397.16 174.633 396.866 174.34C396.573 174.047 396.08 173.9 395.386 173.9C395 173.9 394.58 173.947 394.126 174.04C393.686 174.133 393.22 174.293 392.726 174.52C392.473 174.64 392.246 174.673 392.046 174.62C391.86 174.567 391.713 174.46 391.606 174.3C391.5 174.127 391.446 173.94 391.446 173.74C391.446 173.54 391.5 173.347 391.606 173.16C391.713 172.96 391.893 172.813 392.146 172.72C392.76 172.467 393.346 172.287 393.906 172.18C394.48 172.073 395 172.02 395.466 172.02C396.426 172.02 397.213 172.167 397.826 172.46C398.453 172.753 398.92 173.2 399.226 173.8C399.533 174.387 399.686 175.147 399.686 176.08V180.88C399.686 181.293 399.586 181.613 399.386 181.84C399.186 182.053 398.9 182.16 398.526 182.16C398.153 182.16 397.86 182.053 397.646 181.84C397.446 181.613 397.346 181.293 397.346 180.88V179.92H397.506C397.413 180.387 397.226 180.793 396.946 181.14C396.68 181.473 396.34 181.733 395.926 181.92C395.513 182.107 395.04 182.2 394.506 182.2ZM405.984 182.2C405.13 182.2 404.377 181.993 403.724 181.58C403.084 181.167 402.584 180.58 402.224 179.82C401.864 179.047 401.684 178.14 401.684 177.1C401.684 176.047 401.864 175.147 402.224 174.4C402.584 173.64 403.084 173.053 403.724 172.64C404.377 172.227 405.13 172.02 405.984 172.02C406.797 172.02 407.504 172.22 408.104 172.62C408.717 173.02 409.13 173.547 409.344 174.2H409.124V169C409.124 168.587 409.23 168.273 409.444 168.06C409.657 167.847 409.964 167.74 410.364 167.74C410.764 167.74 411.07 167.847 411.284 168.06C411.51 168.273 411.624 168.587 411.624 169V180.88C411.624 181.293 411.517 181.613 411.304 181.84C411.09 182.053 410.784 182.16 410.384 182.16C409.984 182.16 409.677 182.053 409.464 181.84C409.25 181.613 409.144 181.293 409.144 180.88V179.32L409.364 179.92C409.164 180.613 408.757 181.167 408.144 181.58C407.53 181.993 406.81 182.2 405.984 182.2ZM406.684 180.3C407.177 180.3 407.61 180.18 407.984 179.94C408.357 179.7 408.644 179.347 408.844 178.88C409.057 178.4 409.164 177.807 409.164 177.1C409.164 176.033 408.937 175.24 408.484 174.72C408.03 174.187 407.43 173.92 406.684 173.92C406.19 173.92 405.757 174.04 405.384 174.28C405.01 174.507 404.717 174.86 404.504 175.34C404.304 175.807 404.204 176.393 404.204 177.1C404.204 178.153 404.43 178.953 404.884 179.5C405.337 180.033 405.937 180.3 406.684 180.3ZM418.676 182.2C417.663 182.2 416.783 181.993 416.036 181.58C415.289 181.167 414.709 180.58 414.296 179.82C413.883 179.047 413.676 178.14 413.676 177.1C413.676 176.313 413.789 175.613 414.016 175C414.256 174.373 414.596 173.84 415.036 173.4C415.476 172.947 416.003 172.607 416.616 172.38C417.229 172.14 417.916 172.02 418.676 172.02C419.689 172.02 420.569 172.227 421.316 172.64C422.063 173.053 422.643 173.64 423.056 174.4C423.469 175.16 423.676 176.06 423.676 177.1C423.676 177.887 423.556 178.593 423.316 179.22C423.089 179.847 422.756 180.387 422.316 180.84C421.876 181.28 421.349 181.62 420.736 181.86C420.123 182.087 419.436 182.2 418.676 182.2ZM418.676 180.3C419.169 180.3 419.603 180.18 419.976 179.94C420.349 179.7 420.636 179.347 420.836 178.88C421.049 178.4 421.156 177.807 421.156 177.1C421.156 176.033 420.929 175.24 420.476 174.72C420.023 174.187 419.423 173.92 418.676 173.92C418.183 173.92 417.749 174.04 417.376 174.28C417.003 174.507 416.709 174.86 416.496 175.34C416.296 175.807 416.196 176.393 416.196 177.1C416.196 178.153 416.423 178.953 416.876 179.5C417.329 180.033 417.929 180.3 418.676 180.3ZM429.319 182.2C428.746 182.2 428.139 182.14 427.499 182.02C426.859 181.9 426.286 181.693 425.779 181.4C425.566 181.267 425.413 181.113 425.319 180.94C425.239 180.753 425.206 180.573 425.219 180.4C425.246 180.213 425.313 180.053 425.419 179.92C425.539 179.787 425.686 179.7 425.859 179.66C426.046 179.62 426.246 179.653 426.459 179.76C426.993 180.013 427.493 180.193 427.959 180.3C428.426 180.393 428.886 180.44 429.339 180.44C429.979 180.44 430.453 180.333 430.759 180.12C431.079 179.893 431.239 179.6 431.239 179.24C431.239 178.933 431.133 178.7 430.919 178.54C430.719 178.367 430.413 178.24 429.999 178.16L427.999 177.78C427.173 177.62 426.539 177.32 426.099 176.88C425.673 176.427 425.459 175.847 425.459 175.14C425.459 174.5 425.633 173.947 425.979 173.48C426.339 173.013 426.833 172.653 427.459 172.4C428.086 172.147 428.806 172.02 429.619 172.02C430.206 172.02 430.753 172.087 431.259 172.22C431.779 172.34 432.279 172.533 432.759 172.8C432.959 172.907 433.093 173.047 433.159 173.22C433.239 173.393 433.259 173.573 433.219 173.76C433.179 173.933 433.099 174.093 432.979 174.24C432.859 174.373 432.706 174.46 432.519 174.5C432.346 174.527 432.146 174.487 431.919 174.38C431.506 174.167 431.106 174.013 430.719 173.92C430.346 173.827 429.986 173.78 429.639 173.78C428.986 173.78 428.499 173.893 428.179 174.12C427.873 174.347 427.719 174.647 427.719 175.02C427.719 175.3 427.813 175.533 427.999 175.72C428.186 175.907 428.473 176.033 428.859 176.1L430.859 176.48C431.726 176.64 432.379 176.933 432.819 177.36C433.273 177.787 433.499 178.36 433.499 179.08C433.499 180.053 433.119 180.82 432.359 181.38C431.599 181.927 430.586 182.2 429.319 182.2Z" fill="#101E37"/>
<path d="M224.812 213H223.477V202.75H219.883V201.578H228.391V202.75H224.812V213ZM231.219 204.438V213H229.922V204.438H231.219ZM230.586 201.234C230.799 201.234 230.982 201.305 231.133 201.445C231.289 201.581 231.367 201.794 231.367 202.086C231.367 202.372 231.289 202.586 231.133 202.727C230.982 202.867 230.799 202.938 230.586 202.938C230.362 202.938 230.174 202.867 230.023 202.727C229.878 202.586 229.805 202.372 229.805 202.086C229.805 201.794 229.878 201.581 230.023 201.445C230.174 201.305 230.362 201.234 230.586 201.234ZM237.266 204.281C237.995 204.281 238.62 204.443 239.141 204.766C239.661 205.089 240.06 205.542 240.336 206.125C240.612 206.703 240.75 207.38 240.75 208.156V208.961H234.836C234.852 209.966 235.102 210.732 235.586 211.258C236.07 211.784 236.753 212.047 237.633 212.047C238.174 212.047 238.654 211.997 239.07 211.898C239.487 211.799 239.919 211.654 240.367 211.461V212.602C239.935 212.794 239.505 212.935 239.078 213.023C238.656 213.112 238.156 213.156 237.578 213.156C236.755 213.156 236.036 212.99 235.422 212.656C234.812 212.318 234.339 211.823 234 211.172C233.661 210.521 233.492 209.724 233.492 208.781C233.492 207.859 233.646 207.062 233.953 206.391C234.266 205.714 234.703 205.193 235.266 204.828C235.833 204.464 236.5 204.281 237.266 204.281ZM237.25 205.344C236.557 205.344 236.005 205.57 235.594 206.023C235.182 206.477 234.938 207.109 234.859 207.922H239.391C239.385 207.411 239.305 206.964 239.148 206.578C238.997 206.188 238.766 205.885 238.453 205.672C238.141 205.453 237.74 205.344 237.25 205.344ZM252.25 204.281C253.193 204.281 253.904 204.529 254.383 205.023C254.862 205.513 255.102 206.302 255.102 207.391V213H253.82V207.453C253.82 206.76 253.669 206.242 253.367 205.898C253.07 205.549 252.628 205.375 252.039 205.375C251.211 205.375 250.609 205.615 250.234 206.094C249.859 206.573 249.672 207.279 249.672 208.211V213H248.383V207.453C248.383 206.99 248.315 206.604 248.18 206.297C248.049 205.99 247.852 205.76 247.586 205.609C247.326 205.453 246.995 205.375 246.594 205.375C246.026 205.375 245.57 205.492 245.227 205.727C244.883 205.961 244.633 206.31 244.477 206.773C244.326 207.232 244.25 207.797 244.25 208.469V213H242.953V204.438H244L244.195 205.648H244.266C244.438 205.352 244.654 205.102 244.914 204.898C245.174 204.695 245.466 204.542 245.789 204.438C246.112 204.333 246.456 204.281 246.82 204.281C247.471 204.281 248.016 204.404 248.453 204.648C248.896 204.888 249.216 205.255 249.414 205.75H249.484C249.766 205.255 250.151 204.888 250.641 204.648C251.13 204.404 251.667 204.281 252.25 204.281ZM261.789 204.281C262.857 204.281 263.708 204.648 264.344 205.383C264.979 206.117 265.297 207.221 265.297 208.695C265.297 209.669 265.151 210.487 264.859 211.148C264.568 211.81 264.156 212.31 263.625 212.648C263.099 212.987 262.477 213.156 261.758 213.156C261.305 213.156 260.906 213.096 260.562 212.977C260.219 212.857 259.924 212.695 259.68 212.492C259.435 212.289 259.232 212.068 259.07 211.828H258.977C258.992 212.031 259.01 212.276 259.031 212.562C259.057 212.849 259.07 213.099 259.07 213.312V216.828H257.766V204.438H258.836L259.008 205.703H259.07C259.237 205.443 259.44 205.206 259.68 204.992C259.919 204.773 260.211 204.602 260.555 204.477C260.904 204.346 261.315 204.281 261.789 204.281ZM261.562 205.375C260.969 205.375 260.49 205.49 260.125 205.719C259.766 205.948 259.503 206.292 259.336 206.75C259.169 207.203 259.081 207.773 259.07 208.461V208.711C259.07 209.435 259.148 210.047 259.305 210.547C259.466 211.047 259.729 211.427 260.094 211.688C260.464 211.948 260.958 212.078 261.578 212.078C262.109 212.078 262.552 211.935 262.906 211.648C263.26 211.362 263.523 210.964 263.695 210.453C263.872 209.938 263.961 209.346 263.961 208.68C263.961 207.669 263.763 206.867 263.367 206.273C262.977 205.674 262.375 205.375 261.562 205.375ZM274.945 208.703C274.945 209.406 274.854 210.034 274.672 210.586C274.49 211.138 274.227 211.604 273.883 211.984C273.539 212.365 273.122 212.656 272.633 212.859C272.148 213.057 271.599 213.156 270.984 213.156C270.411 213.156 269.885 213.057 269.406 212.859C268.932 212.656 268.521 212.365 268.172 211.984C267.828 211.604 267.56 211.138 267.367 210.586C267.18 210.034 267.086 209.406 267.086 208.703C267.086 207.766 267.245 206.969 267.562 206.312C267.88 205.651 268.333 205.148 268.922 204.805C269.516 204.456 270.221 204.281 271.039 204.281C271.82 204.281 272.503 204.456 273.086 204.805C273.674 205.154 274.13 205.659 274.453 206.32C274.781 206.977 274.945 207.771 274.945 208.703ZM268.43 208.703C268.43 209.391 268.521 209.987 268.703 210.492C268.885 210.997 269.167 211.388 269.547 211.664C269.927 211.94 270.417 212.078 271.016 212.078C271.609 212.078 272.096 211.94 272.477 211.664C272.862 211.388 273.146 210.997 273.328 210.492C273.51 209.987 273.602 209.391 273.602 208.703C273.602 208.021 273.51 207.432 273.328 206.938C273.146 206.438 272.865 206.052 272.484 205.781C272.104 205.51 271.612 205.375 271.008 205.375C270.117 205.375 269.464 205.669 269.047 206.258C268.635 206.846 268.43 207.661 268.43 208.703ZM287.086 216.828V213.156C287.086 212.953 287.091 212.719 287.102 212.453C287.112 212.188 287.13 211.958 287.156 211.766H287.07C286.831 212.161 286.49 212.492 286.047 212.758C285.604 213.023 285.034 213.156 284.336 213.156C283.289 213.156 282.448 212.786 281.812 212.047C281.177 211.307 280.859 210.203 280.859 208.734C280.859 207.771 281.005 206.958 281.297 206.297C281.589 205.635 282 205.135 282.531 204.797C283.068 204.453 283.693 204.281 284.406 204.281C285.089 204.281 285.646 204.417 286.078 204.688C286.51 204.953 286.849 205.279 287.094 205.664H287.156L287.352 204.438H288.383V216.828H287.086ZM284.578 212.078C285.182 212.078 285.667 211.966 286.031 211.742C286.396 211.513 286.661 211.169 286.828 210.711C287 210.253 287.091 209.682 287.102 209V208.727C287.102 207.622 286.914 206.786 286.539 206.219C286.164 205.646 285.51 205.359 284.578 205.359C283.776 205.359 283.18 205.667 282.789 206.281C282.398 206.891 282.203 207.719 282.203 208.766C282.203 209.812 282.398 210.628 282.789 211.211C283.18 211.789 283.776 212.078 284.578 212.078ZM298.211 204.438V213H297.148L296.961 211.797H296.891C296.714 212.094 296.484 212.344 296.203 212.547C295.922 212.75 295.604 212.901 295.25 213C294.901 213.104 294.529 213.156 294.133 213.156C293.456 213.156 292.888 213.047 292.43 212.828C291.971 212.609 291.625 212.271 291.391 211.812C291.161 211.354 291.047 210.766 291.047 210.047V204.438H292.359V209.953C292.359 210.667 292.521 211.201 292.844 211.555C293.167 211.904 293.659 212.078 294.32 212.078C294.956 212.078 295.461 211.958 295.836 211.719C296.216 211.479 296.49 211.128 296.656 210.664C296.823 210.195 296.906 209.622 296.906 208.945V204.438H298.211ZM304.25 204.281C304.979 204.281 305.604 204.443 306.125 204.766C306.646 205.089 307.044 205.542 307.32 206.125C307.596 206.703 307.734 207.38 307.734 208.156V208.961H301.82C301.836 209.966 302.086 210.732 302.57 211.258C303.055 211.784 303.737 212.047 304.617 212.047C305.159 212.047 305.638 211.997 306.055 211.898C306.471 211.799 306.904 211.654 307.352 211.461V212.602C306.919 212.794 306.49 212.935 306.062 213.023C305.641 213.112 305.141 213.156 304.562 213.156C303.74 213.156 303.021 212.99 302.406 212.656C301.797 212.318 301.323 211.823 300.984 211.172C300.646 210.521 300.477 209.724 300.477 208.781C300.477 207.859 300.63 207.062 300.938 206.391C301.25 205.714 301.688 205.193 302.25 204.828C302.818 204.464 303.484 204.281 304.25 204.281ZM304.234 205.344C303.542 205.344 302.99 205.57 302.578 206.023C302.167 206.477 301.922 207.109 301.844 207.922H306.375C306.37 207.411 306.289 206.964 306.133 206.578C305.982 206.188 305.75 205.885 305.438 205.672C305.125 205.453 304.724 205.344 304.234 205.344ZM319.633 210.656C319.633 211.203 319.495 211.664 319.219 212.039C318.948 212.409 318.557 212.688 318.047 212.875C317.542 213.062 316.938 213.156 316.234 213.156C315.635 213.156 315.117 213.109 314.68 213.016C314.242 212.922 313.859 212.789 313.531 212.617V211.422C313.88 211.594 314.297 211.75 314.781 211.891C315.266 212.031 315.76 212.102 316.266 212.102C317.005 212.102 317.542 211.982 317.875 211.742C318.208 211.503 318.375 211.177 318.375 210.766C318.375 210.531 318.307 210.326 318.172 210.148C318.042 209.966 317.82 209.792 317.508 209.625C317.195 209.453 316.763 209.266 316.211 209.062C315.664 208.854 315.19 208.648 314.789 208.445C314.393 208.237 314.086 207.984 313.867 207.688C313.654 207.391 313.547 207.005 313.547 206.531C313.547 205.807 313.839 205.253 314.422 204.867C315.01 204.477 315.781 204.281 316.734 204.281C317.25 204.281 317.732 204.333 318.18 204.438C318.633 204.536 319.055 204.672 319.445 204.844L319.008 205.883C318.654 205.732 318.276 205.604 317.875 205.5C317.474 205.396 317.065 205.344 316.648 205.344C316.049 205.344 315.589 205.443 315.266 205.641C314.948 205.839 314.789 206.109 314.789 206.453C314.789 206.719 314.862 206.938 315.008 207.109C315.159 207.281 315.398 207.443 315.727 207.594C316.055 207.745 316.487 207.922 317.023 208.125C317.56 208.323 318.023 208.529 318.414 208.742C318.805 208.951 319.104 209.206 319.312 209.508C319.526 209.805 319.633 210.188 319.633 210.656ZM325.016 204.281C325.745 204.281 326.37 204.443 326.891 204.766C327.411 205.089 327.81 205.542 328.086 206.125C328.362 206.703 328.5 207.38 328.5 208.156V208.961H322.586C322.602 209.966 322.852 210.732 323.336 211.258C323.82 211.784 324.503 212.047 325.383 212.047C325.924 212.047 326.404 211.997 326.82 211.898C327.237 211.799 327.669 211.654 328.117 211.461V212.602C327.685 212.794 327.255 212.935 326.828 213.023C326.406 213.112 325.906 213.156 325.328 213.156C324.505 213.156 323.786 212.99 323.172 212.656C322.562 212.318 322.089 211.823 321.75 211.172C321.411 210.521 321.242 209.724 321.242 208.781C321.242 207.859 321.396 207.062 321.703 206.391C322.016 205.714 322.453 205.193 323.016 204.828C323.583 204.464 324.25 204.281 325.016 204.281ZM325 205.344C324.307 205.344 323.755 205.57 323.344 206.023C322.932 206.477 322.688 207.109 322.609 207.922H327.141C327.135 207.411 327.055 206.964 326.898 206.578C326.747 206.188 326.516 205.885 326.203 205.672C325.891 205.453 325.49 205.344 325 205.344ZM338.062 204.297C339.083 204.297 339.841 204.526 340.336 204.984C340.831 205.443 341.078 206.174 341.078 207.18V213H340.133L339.883 211.734H339.82C339.581 212.047 339.331 212.31 339.07 212.523C338.81 212.732 338.508 212.891 338.164 213C337.826 213.104 337.409 213.156 336.914 213.156C336.393 213.156 335.93 213.065 335.523 212.883C335.122 212.701 334.805 212.424 334.57 212.055C334.341 211.685 334.227 211.216 334.227 210.648C334.227 209.794 334.565 209.138 335.242 208.68C335.919 208.221 336.951 207.971 338.336 207.93L339.812 207.867V207.344C339.812 206.604 339.654 206.086 339.336 205.789C339.018 205.492 338.57 205.344 337.992 205.344C337.544 205.344 337.117 205.409 336.711 205.539C336.305 205.669 335.919 205.823 335.555 206L335.156 205.016C335.542 204.818 335.984 204.648 336.484 204.508C336.984 204.367 337.51 204.297 338.062 204.297ZM339.797 208.781L338.492 208.836C337.424 208.878 336.672 209.052 336.234 209.359C335.797 209.667 335.578 210.102 335.578 210.664C335.578 211.154 335.727 211.516 336.023 211.75C336.32 211.984 336.714 212.102 337.203 212.102C337.964 212.102 338.586 211.891 339.07 211.469C339.555 211.047 339.797 210.414 339.797 209.57V208.781ZM345.047 200.844V204.477C345.047 204.685 345.042 204.896 345.031 205.109C345.021 205.318 345.003 205.51 344.977 205.688H345.062C345.24 205.385 345.464 205.133 345.734 204.93C346.01 204.721 346.323 204.565 346.672 204.461C347.021 204.352 347.391 204.297 347.781 204.297C348.469 204.297 349.042 204.406 349.5 204.625C349.964 204.844 350.31 205.182 350.539 205.641C350.773 206.099 350.891 206.693 350.891 207.422V213H349.609V207.508C349.609 206.794 349.445 206.26 349.117 205.906C348.794 205.552 348.297 205.375 347.625 205.375C346.99 205.375 346.482 205.497 346.102 205.742C345.727 205.982 345.456 206.336 345.289 206.805C345.128 207.273 345.047 207.846 345.047 208.523V213H343.75V200.844H345.047ZM360.945 208.703C360.945 209.406 360.854 210.034 360.672 210.586C360.49 211.138 360.227 211.604 359.883 211.984C359.539 212.365 359.122 212.656 358.633 212.859C358.148 213.057 357.599 213.156 356.984 213.156C356.411 213.156 355.885 213.057 355.406 212.859C354.932 212.656 354.521 212.365 354.172 211.984C353.828 211.604 353.56 211.138 353.367 210.586C353.18 210.034 353.086 209.406 353.086 208.703C353.086 207.766 353.245 206.969 353.562 206.312C353.88 205.651 354.333 205.148 354.922 204.805C355.516 204.456 356.221 204.281 357.039 204.281C357.82 204.281 358.503 204.456 359.086 204.805C359.674 205.154 360.13 205.659 360.453 206.32C360.781 206.977 360.945 207.771 360.945 208.703ZM354.43 208.703C354.43 209.391 354.521 209.987 354.703 210.492C354.885 210.997 355.167 211.388 355.547 211.664C355.927 211.94 356.417 212.078 357.016 212.078C357.609 212.078 358.096 211.94 358.477 211.664C358.862 211.388 359.146 210.997 359.328 210.492C359.51 209.987 359.602 209.391 359.602 208.703C359.602 208.021 359.51 207.432 359.328 206.938C359.146 206.438 358.865 206.052 358.484 205.781C358.104 205.51 357.612 205.375 357.008 205.375C356.117 205.375 355.464 205.669 355.047 206.258C354.635 206.846 354.43 207.661 354.43 208.703ZM367.078 204.281C367.25 204.281 367.43 204.292 367.617 204.312C367.805 204.328 367.971 204.352 368.117 204.383L367.953 205.586C367.812 205.549 367.656 205.521 367.484 205.5C367.312 205.479 367.151 205.469 367 205.469C366.656 205.469 366.331 205.539 366.023 205.68C365.721 205.815 365.456 206.013 365.227 206.273C364.997 206.529 364.818 206.839 364.688 207.203C364.557 207.562 364.492 207.964 364.492 208.406V213H363.188V204.438H364.266L364.406 206.016H364.461C364.638 205.698 364.852 205.409 365.102 205.148C365.352 204.883 365.641 204.672 365.969 204.516C366.302 204.359 366.672 204.281 367.078 204.281ZM373.625 204.281C373.797 204.281 373.977 204.292 374.164 204.312C374.352 204.328 374.518 204.352 374.664 204.383L374.5 205.586C374.359 205.549 374.203 205.521 374.031 205.5C373.859 205.479 373.698 205.469 373.547 205.469C373.203 205.469 372.878 205.539 372.57 205.68C372.268 205.815 372.003 206.013 371.773 206.273C371.544 206.529 371.365 206.839 371.234 207.203C371.104 207.562 371.039 207.964 371.039 208.406V213H369.734V204.438H370.812L370.953 206.016H371.008C371.185 205.698 371.398 205.409 371.648 205.148C371.898 204.883 372.188 204.672 372.516 204.516C372.849 204.359 373.219 204.281 373.625 204.281ZM379.484 204.297C380.505 204.297 381.263 204.526 381.758 204.984C382.253 205.443 382.5 206.174 382.5 207.18V213H381.555L381.305 211.734H381.242C381.003 212.047 380.753 212.31 380.492 212.523C380.232 212.732 379.93 212.891 379.586 213C379.247 213.104 378.831 213.156 378.336 213.156C377.815 213.156 377.352 213.065 376.945 212.883C376.544 212.701 376.227 212.424 375.992 212.055C375.763 211.685 375.648 211.216 375.648 210.648C375.648 209.794 375.987 209.138 376.664 208.68C377.341 208.221 378.372 207.971 379.758 207.93L381.234 207.867V207.344C381.234 206.604 381.076 206.086 380.758 205.789C380.44 205.492 379.992 205.344 379.414 205.344C378.966 205.344 378.539 205.409 378.133 205.539C377.727 205.669 377.341 205.823 376.977 206L376.578 205.016C376.964 204.818 377.406 204.648 377.906 204.508C378.406 204.367 378.932 204.297 379.484 204.297ZM381.219 208.781L379.914 208.836C378.846 208.878 378.094 209.052 377.656 209.359C377.219 209.667 377 210.102 377 210.664C377 211.154 377.148 211.516 377.445 211.75C377.742 211.984 378.135 212.102 378.625 212.102C379.385 212.102 380.008 211.891 380.492 211.469C380.977 211.047 381.219 210.414 381.219 209.57V208.781ZM389.227 204.281C390.242 204.281 391.01 204.531 391.531 205.031C392.052 205.526 392.312 206.323 392.312 207.422V213H391.031V207.508C391.031 206.794 390.867 206.26 390.539 205.906C390.216 205.552 389.719 205.375 389.047 205.375C388.099 205.375 387.432 205.643 387.047 206.18C386.661 206.716 386.469 207.495 386.469 208.516V213H385.172V204.438H386.219L386.414 205.672H386.484C386.667 205.37 386.898 205.117 387.18 204.914C387.461 204.706 387.776 204.549 388.125 204.445C388.474 204.336 388.841 204.281 389.227 204.281ZM400.445 213H399.141V200.844H400.445V213ZM410.57 208.703C410.57 209.406 410.479 210.034 410.297 210.586C410.115 211.138 409.852 211.604 409.508 211.984C409.164 212.365 408.747 212.656 408.258 212.859C407.773 213.057 407.224 213.156 406.609 213.156C406.036 213.156 405.51 213.057 405.031 212.859C404.557 212.656 404.146 212.365 403.797 211.984C403.453 211.604 403.185 211.138 402.992 210.586C402.805 210.034 402.711 209.406 402.711 208.703C402.711 207.766 402.87 206.969 403.188 206.312C403.505 205.651 403.958 205.148 404.547 204.805C405.141 204.456 405.846 204.281 406.664 204.281C407.445 204.281 408.128 204.456 408.711 204.805C409.299 205.154 409.755 205.659 410.078 206.32C410.406 206.977 410.57 207.771 410.57 208.703ZM404.055 208.703C404.055 209.391 404.146 209.987 404.328 210.492C404.51 210.997 404.792 211.388 405.172 211.664C405.552 211.94 406.042 212.078 406.641 212.078C407.234 212.078 407.721 211.94 408.102 211.664C408.487 211.388 408.771 210.997 408.953 210.492C409.135 209.987 409.227 209.391 409.227 208.703C409.227 208.021 409.135 207.432 408.953 206.938C408.771 206.438 408.49 206.052 408.109 205.781C407.729 205.51 407.237 205.375 406.633 205.375C405.742 205.375 405.089 205.669 404.672 206.258C404.26 206.846 404.055 207.661 404.055 208.703ZM418.352 210.656C418.352 211.203 418.214 211.664 417.938 212.039C417.667 212.409 417.276 212.688 416.766 212.875C416.26 213.062 415.656 213.156 414.953 213.156C414.354 213.156 413.836 213.109 413.398 213.016C412.961 212.922 412.578 212.789 412.25 212.617V211.422C412.599 211.594 413.016 211.75 413.5 211.891C413.984 212.031 414.479 212.102 414.984 212.102C415.724 212.102 416.26 211.982 416.594 211.742C416.927 211.503 417.094 211.177 417.094 210.766C417.094 210.531 417.026 210.326 416.891 210.148C416.76 209.966 416.539 209.792 416.227 209.625C415.914 209.453 415.482 209.266 414.93 209.062C414.383 208.854 413.909 208.648 413.508 208.445C413.112 208.237 412.805 207.984 412.586 207.688C412.372 207.391 412.266 207.005 412.266 206.531C412.266 205.807 412.557 205.253 413.141 204.867C413.729 204.477 414.5 204.281 415.453 204.281C415.969 204.281 416.451 204.333 416.898 204.438C417.352 204.536 417.773 204.672 418.164 204.844L417.727 205.883C417.372 205.732 416.995 205.604 416.594 205.5C416.193 205.396 415.784 205.344 415.367 205.344C414.768 205.344 414.307 205.443 413.984 205.641C413.667 205.839 413.508 206.109 413.508 206.453C413.508 206.719 413.581 206.938 413.727 207.109C413.878 207.281 414.117 207.443 414.445 207.594C414.773 207.745 415.206 207.922 415.742 208.125C416.279 208.323 416.742 208.529 417.133 208.742C417.523 208.951 417.823 209.206 418.031 209.508C418.245 209.805 418.352 210.188 418.352 210.656ZM426.477 213L423.227 204.438H424.617L426.5 209.617C426.63 209.971 426.763 210.362 426.898 210.789C427.034 211.216 427.128 211.56 427.18 211.82H427.234C427.297 211.56 427.401 211.216 427.547 210.789C427.693 210.357 427.826 209.966 427.945 209.617L429.828 204.438H431.219L427.961 213H426.477ZM435.891 204.281C436.62 204.281 437.245 204.443 437.766 204.766C438.286 205.089 438.685 205.542 438.961 206.125C439.237 206.703 439.375 207.38 439.375 208.156V208.961H433.461C433.477 209.966 433.727 210.732 434.211 211.258C434.695 211.784 435.378 212.047 436.258 212.047C436.799 212.047 437.279 211.997 437.695 211.898C438.112 211.799 438.544 211.654 438.992 211.461V212.602C438.56 212.794 438.13 212.935 437.703 213.023C437.281 213.112 436.781 213.156 436.203 213.156C435.38 213.156 434.661 212.99 434.047 212.656C433.438 212.318 432.964 211.823 432.625 211.172C432.286 210.521 432.117 209.724 432.117 208.781C432.117 207.859 432.271 207.062 432.578 206.391C432.891 205.714 433.328 205.193 433.891 204.828C434.458 204.464 435.125 204.281 435.891 204.281ZM435.875 205.344C435.182 205.344 434.63 205.57 434.219 206.023C433.807 206.477 433.562 207.109 433.484 207.922H438.016C438.01 207.411 437.93 206.964 437.773 206.578C437.622 206.188 437.391 205.885 437.078 205.672C436.766 205.453 436.365 205.344 435.875 205.344ZM445.008 213.156C444.237 213.156 443.557 212.997 442.969 212.68C442.38 212.362 441.922 211.878 441.594 211.227C441.266 210.576 441.102 209.755 441.102 208.766C441.102 207.729 441.273 206.883 441.617 206.227C441.966 205.565 442.445 205.076 443.055 204.758C443.664 204.44 444.357 204.281 445.133 204.281C445.56 204.281 445.971 204.326 446.367 204.414C446.768 204.497 447.096 204.604 447.352 204.734L446.961 205.82C446.701 205.716 446.398 205.622 446.055 205.539C445.716 205.456 445.398 205.414 445.102 205.414C444.508 205.414 444.013 205.542 443.617 205.797C443.227 206.052 442.932 206.427 442.734 206.922C442.542 207.417 442.445 208.026 442.445 208.75C442.445 209.443 442.539 210.034 442.727 210.523C442.919 211.013 443.203 211.388 443.578 211.648C443.958 211.904 444.432 212.031 445 212.031C445.453 212.031 445.862 211.984 446.227 211.891C446.591 211.792 446.922 211.677 447.219 211.547V212.703C446.932 212.849 446.612 212.961 446.258 213.039C445.909 213.117 445.492 213.156 445.008 213.156ZM450.547 204.438V213H449.25V204.438H450.547ZM449.914 201.234C450.128 201.234 450.31 201.305 450.461 201.445C450.617 201.581 450.695 201.794 450.695 202.086C450.695 202.372 450.617 202.586 450.461 202.727C450.31 202.867 450.128 202.938 449.914 202.938C449.69 202.938 449.503 202.867 449.352 202.727C449.206 202.586 449.133 202.372 449.133 202.086C449.133 201.794 449.206 201.581 449.352 201.445C449.503 201.305 449.69 201.234 449.914 201.234ZM457.352 204.281C458.367 204.281 459.135 204.531 459.656 205.031C460.177 205.526 460.438 206.323 460.438 207.422V213H459.156V207.508C459.156 206.794 458.992 206.26 458.664 205.906C458.341 205.552 457.844 205.375 457.172 205.375C456.224 205.375 455.557 205.643 455.172 206.18C454.786 206.716 454.594 207.495 454.594 208.516V213H453.297V204.438H454.344L454.539 205.672H454.609C454.792 205.37 455.023 205.117 455.305 204.914C455.586 204.706 455.901 204.549 456.25 204.445C456.599 204.336 456.966 204.281 457.352 204.281ZM470.492 208.703C470.492 209.406 470.401 210.034 470.219 210.586C470.036 211.138 469.773 211.604 469.43 211.984C469.086 212.365 468.669 212.656 468.18 212.859C467.695 213.057 467.146 213.156 466.531 213.156C465.958 213.156 465.432 213.057 464.953 212.859C464.479 212.656 464.068 212.365 463.719 211.984C463.375 211.604 463.107 211.138 462.914 210.586C462.727 210.034 462.633 209.406 462.633 208.703C462.633 207.766 462.792 206.969 463.109 206.312C463.427 205.651 463.88 205.148 464.469 204.805C465.062 204.456 465.768 204.281 466.586 204.281C467.367 204.281 468.049 204.456 468.633 204.805C469.221 205.154 469.677 205.659 470 206.32C470.328 206.977 470.492 207.771 470.492 208.703ZM463.977 208.703C463.977 209.391 464.068 209.987 464.25 210.492C464.432 210.997 464.714 211.388 465.094 211.664C465.474 211.94 465.964 212.078 466.562 212.078C467.156 212.078 467.643 211.94 468.023 211.664C468.409 211.388 468.693 210.997 468.875 210.492C469.057 209.987 469.148 209.391 469.148 208.703C469.148 208.021 469.057 207.432 468.875 206.938C468.693 206.438 468.411 206.052 468.031 205.781C467.651 205.51 467.159 205.375 466.555 205.375C465.664 205.375 465.01 205.669 464.594 206.258C464.182 206.846 463.977 207.661 463.977 208.703ZM478.273 210.656C478.273 211.203 478.135 211.664 477.859 212.039C477.589 212.409 477.198 212.688 476.688 212.875C476.182 213.062 475.578 213.156 474.875 213.156C474.276 213.156 473.758 213.109 473.32 213.016C472.883 212.922 472.5 212.789 472.172 212.617V211.422C472.521 211.594 472.938 211.75 473.422 211.891C473.906 212.031 474.401 212.102 474.906 212.102C475.646 212.102 476.182 211.982 476.516 211.742C476.849 211.503 477.016 211.177 477.016 210.766C477.016 210.531 476.948 210.326 476.812 210.148C476.682 209.966 476.461 209.792 476.148 209.625C475.836 209.453 475.404 209.266 474.852 209.062C474.305 208.854 473.831 208.648 473.43 208.445C473.034 208.237 472.727 207.984 472.508 207.688C472.294 207.391 472.188 207.005 472.188 206.531C472.188 205.807 472.479 205.253 473.062 204.867C473.651 204.477 474.422 204.281 475.375 204.281C475.891 204.281 476.372 204.333 476.82 204.438C477.273 204.536 477.695 204.672 478.086 204.844L477.648 205.883C477.294 205.732 476.917 205.604 476.516 205.5C476.115 205.396 475.706 205.344 475.289 205.344C474.69 205.344 474.229 205.443 473.906 205.641C473.589 205.839 473.43 206.109 473.43 206.453C473.43 206.719 473.503 206.938 473.648 207.109C473.799 207.281 474.039 207.443 474.367 207.594C474.695 207.745 475.128 207.922 475.664 208.125C476.201 208.323 476.664 208.529 477.055 208.742C477.445 208.951 477.745 209.206 477.953 209.508C478.167 209.805 478.273 210.188 478.273 210.656ZM483.164 204.438H484.555L486.445 209.406C486.555 209.698 486.656 209.979 486.75 210.25C486.844 210.516 486.927 210.771 487 211.016C487.073 211.26 487.13 211.497 487.172 211.727H487.227C487.299 211.466 487.404 211.125 487.539 210.703C487.674 210.276 487.82 209.841 487.977 209.398L489.766 204.438H491.164L487.438 214.258C487.24 214.784 487.008 215.242 486.742 215.633C486.482 216.023 486.164 216.323 485.789 216.531C485.414 216.745 484.961 216.852 484.43 216.852C484.185 216.852 483.969 216.836 483.781 216.805C483.594 216.779 483.432 216.747 483.297 216.711V215.672C483.411 215.698 483.549 215.721 483.711 215.742C483.878 215.763 484.049 215.773 484.227 215.773C484.549 215.773 484.828 215.711 485.062 215.586C485.302 215.466 485.508 215.289 485.68 215.055C485.852 214.82 486 214.542 486.125 214.219L486.594 213.016L483.164 204.438ZM497.992 213H496.688V200.844H497.992V213ZM503.938 204.297C504.958 204.297 505.716 204.526 506.211 204.984C506.706 205.443 506.953 206.174 506.953 207.18V213H506.008L505.758 211.734H505.695C505.456 212.047 505.206 212.31 504.945 212.523C504.685 212.732 504.383 212.891 504.039 213C503.701 213.104 503.284 213.156 502.789 213.156C502.268 213.156 501.805 213.065 501.398 212.883C500.997 212.701 500.68 212.424 500.445 212.055C500.216 211.685 500.102 211.216 500.102 210.648C500.102 209.794 500.44 209.138 501.117 208.68C501.794 208.221 502.826 207.971 504.211 207.93L505.688 207.867V207.344C505.688 206.604 505.529 206.086 505.211 205.789C504.893 205.492 504.445 205.344 503.867 205.344C503.419 205.344 502.992 205.409 502.586 205.539C502.18 205.669 501.794 205.823 501.43 206L501.031 205.016C501.417 204.818 501.859 204.648 502.359 204.508C502.859 204.367 503.385 204.297 503.938 204.297ZM505.672 208.781L504.367 208.836C503.299 208.878 502.547 209.052 502.109 209.359C501.672 209.667 501.453 210.102 501.453 210.664C501.453 211.154 501.602 211.516 501.898 211.75C502.195 211.984 502.589 212.102 503.078 212.102C503.839 212.102 504.461 211.891 504.945 211.469C505.43 211.047 505.672 210.414 505.672 209.57V208.781ZM283.883 228.297C284.904 228.297 285.661 228.526 286.156 228.984C286.651 229.443 286.898 230.174 286.898 231.18V237H285.953L285.703 235.734H285.641C285.401 236.047 285.151 236.31 284.891 236.523C284.63 236.732 284.328 236.891 283.984 237C283.646 237.104 283.229 237.156 282.734 237.156C282.214 237.156 281.75 237.065 281.344 236.883C280.943 236.701 280.625 236.424 280.391 236.055C280.161 235.685 280.047 235.216 280.047 234.648C280.047 233.794 280.385 233.138 281.062 232.68C281.74 232.221 282.771 231.971 284.156 231.93L285.633 231.867V231.344C285.633 230.604 285.474 230.086 285.156 229.789C284.839 229.492 284.391 229.344 283.812 229.344C283.365 229.344 282.938 229.409 282.531 229.539C282.125 229.669 281.74 229.823 281.375 230L280.977 229.016C281.362 228.818 281.805 228.648 282.305 228.508C282.805 228.367 283.331 228.297 283.883 228.297ZM285.617 232.781L284.312 232.836C283.245 232.878 282.492 233.052 282.055 233.359C281.617 233.667 281.398 234.102 281.398 234.664C281.398 235.154 281.547 235.516 281.844 235.75C282.141 235.984 282.534 236.102 283.023 236.102C283.784 236.102 284.406 235.891 284.891 235.469C285.375 235.047 285.617 234.414 285.617 233.57V232.781ZM292.617 237.156C291.534 237.156 290.674 236.786 290.039 236.047C289.409 235.307 289.094 234.208 289.094 232.75C289.094 231.276 289.417 230.164 290.062 229.414C290.708 228.659 291.568 228.281 292.641 228.281C293.094 228.281 293.49 228.341 293.828 228.461C294.167 228.581 294.458 228.742 294.703 228.945C294.948 229.143 295.154 229.37 295.32 229.625H295.414C295.393 229.464 295.372 229.242 295.352 228.961C295.331 228.68 295.32 228.451 295.32 228.273V224.844H296.617V237H295.57L295.375 235.781H295.32C295.159 236.036 294.953 236.268 294.703 236.477C294.458 236.685 294.164 236.852 293.82 236.977C293.482 237.096 293.081 237.156 292.617 237.156ZM292.82 236.078C293.737 236.078 294.385 235.818 294.766 235.297C295.146 234.776 295.336 234.003 295.336 232.977V232.742C295.336 231.654 295.154 230.818 294.789 230.234C294.43 229.651 293.773 229.359 292.82 229.359C292.023 229.359 291.427 229.667 291.031 230.281C290.635 230.891 290.438 231.724 290.438 232.781C290.438 233.833 290.633 234.646 291.023 235.219C291.419 235.792 292.018 236.078 292.82 236.078ZM308.664 228.281C309.607 228.281 310.318 228.529 310.797 229.023C311.276 229.513 311.516 230.302 311.516 231.391V237H310.234V231.453C310.234 230.76 310.083 230.242 309.781 229.898C309.484 229.549 309.042 229.375 308.453 229.375C307.625 229.375 307.023 229.615 306.648 230.094C306.273 230.573 306.086 231.279 306.086 232.211V237H304.797V231.453C304.797 230.99 304.729 230.604 304.594 230.297C304.464 229.99 304.266 229.76 304 229.609C303.74 229.453 303.409 229.375 303.008 229.375C302.44 229.375 301.984 229.492 301.641 229.727C301.297 229.961 301.047 230.31 300.891 230.773C300.74 231.232 300.664 231.797 300.664 232.469V237H299.367V228.438H300.414L300.609 229.648H300.68C300.852 229.352 301.068 229.102 301.328 228.898C301.589 228.695 301.88 228.542 302.203 228.438C302.526 228.333 302.87 228.281 303.234 228.281C303.885 228.281 304.43 228.404 304.867 228.648C305.31 228.888 305.63 229.255 305.828 229.75H305.898C306.18 229.255 306.565 228.888 307.055 228.648C307.544 228.404 308.081 228.281 308.664 228.281ZM315.477 228.438V237H314.18V228.438H315.477ZM314.844 225.234C315.057 225.234 315.24 225.305 315.391 225.445C315.547 225.581 315.625 225.794 315.625 226.086C315.625 226.372 315.547 226.586 315.391 226.727C315.24 226.867 315.057 226.938 314.844 226.938C314.62 226.938 314.432 226.867 314.281 226.727C314.135 226.586 314.062 226.372 314.062 226.086C314.062 225.794 314.135 225.581 314.281 225.445C314.432 225.305 314.62 225.234 314.844 225.234ZM322.281 228.281C323.297 228.281 324.065 228.531 324.586 229.031C325.107 229.526 325.367 230.323 325.367 231.422V237H324.086V231.508C324.086 230.794 323.922 230.26 323.594 229.906C323.271 229.552 322.773 229.375 322.102 229.375C321.154 229.375 320.487 229.643 320.102 230.18C319.716 230.716 319.523 231.495 319.523 232.516V237H318.227V228.438H319.273L319.469 229.672H319.539C319.721 229.37 319.953 229.117 320.234 228.914C320.516 228.706 320.831 228.549 321.18 228.445C321.529 228.336 321.896 228.281 322.281 228.281ZM329.336 228.438V237H328.039V228.438H329.336ZM328.703 225.234C328.917 225.234 329.099 225.305 329.25 225.445C329.406 225.581 329.484 225.794 329.484 226.086C329.484 226.372 329.406 226.586 329.25 226.727C329.099 226.867 328.917 226.938 328.703 226.938C328.479 226.938 328.292 226.867 328.141 226.727C327.995 226.586 327.922 226.372 327.922 226.086C327.922 225.794 327.995 225.581 328.141 225.445C328.292 225.305 328.479 225.234 328.703 225.234ZM337.625 234.656C337.625 235.203 337.487 235.664 337.211 236.039C336.94 236.409 336.549 236.688 336.039 236.875C335.534 237.062 334.93 237.156 334.227 237.156C333.628 237.156 333.109 237.109 332.672 237.016C332.234 236.922 331.852 236.789 331.523 236.617V235.422C331.872 235.594 332.289 235.75 332.773 235.891C333.258 236.031 333.753 236.102 334.258 236.102C334.997 236.102 335.534 235.982 335.867 235.742C336.201 235.503 336.367 235.177 336.367 234.766C336.367 234.531 336.299 234.326 336.164 234.148C336.034 233.966 335.812 233.792 335.5 233.625C335.188 233.453 334.755 233.266 334.203 233.062C333.656 232.854 333.182 232.648 332.781 232.445C332.385 232.237 332.078 231.984 331.859 231.688C331.646 231.391 331.539 231.005 331.539 230.531C331.539 229.807 331.831 229.253 332.414 228.867C333.003 228.477 333.773 228.281 334.727 228.281C335.242 228.281 335.724 228.333 336.172 228.438C336.625 228.536 337.047 228.672 337.438 228.844L337 229.883C336.646 229.732 336.268 229.604 335.867 229.5C335.466 229.396 335.057 229.344 334.641 229.344C334.042 229.344 333.581 229.443 333.258 229.641C332.94 229.839 332.781 230.109 332.781 230.453C332.781 230.719 332.854 230.938 333 231.109C333.151 231.281 333.391 231.443 333.719 231.594C334.047 231.745 334.479 231.922 335.016 232.125C335.552 232.323 336.016 232.529 336.406 232.742C336.797 232.951 337.096 233.206 337.305 233.508C337.518 233.805 337.625 234.188 337.625 234.656ZM342.477 236.094C342.69 236.094 342.909 236.076 343.133 236.039C343.357 236.003 343.539 235.958 343.68 235.906V236.914C343.529 236.982 343.318 237.039 343.047 237.086C342.781 237.133 342.521 237.156 342.266 237.156C341.812 237.156 341.401 237.078 341.031 236.922C340.661 236.76 340.365 236.49 340.141 236.109C339.922 235.729 339.812 235.203 339.812 234.531V229.453H338.594V228.82L339.82 228.312L340.336 226.453H341.117V228.438H343.625V229.453H341.117V234.492C341.117 235.029 341.24 235.43 341.484 235.695C341.734 235.961 342.065 236.094 342.477 236.094ZM349.305 228.281C349.477 228.281 349.656 228.292 349.844 228.312C350.031 228.328 350.198 228.352 350.344 228.383L350.18 229.586C350.039 229.549 349.883 229.521 349.711 229.5C349.539 229.479 349.378 229.469 349.227 229.469C348.883 229.469 348.557 229.539 348.25 229.68C347.948 229.815 347.682 230.013 347.453 230.273C347.224 230.529 347.044 230.839 346.914 231.203C346.784 231.562 346.719 231.964 346.719 232.406V237H345.414V228.438H346.492L346.633 230.016H346.688C346.865 229.698 347.078 229.409 347.328 229.148C347.578 228.883 347.867 228.672 348.195 228.516C348.529 228.359 348.898 228.281 349.305 228.281ZM355.164 228.297C356.185 228.297 356.943 228.526 357.438 228.984C357.932 229.443 358.18 230.174 358.18 231.18V237H357.234L356.984 235.734H356.922C356.682 236.047 356.432 236.31 356.172 236.523C355.911 236.732 355.609 236.891 355.266 237C354.927 237.104 354.51 237.156 354.016 237.156C353.495 237.156 353.031 237.065 352.625 236.883C352.224 236.701 351.906 236.424 351.672 236.055C351.443 235.685 351.328 235.216 351.328 234.648C351.328 233.794 351.667 233.138 352.344 232.68C353.021 232.221 354.052 231.971 355.438 231.93L356.914 231.867V231.344C356.914 230.604 356.755 230.086 356.438 229.789C356.12 229.492 355.672 229.344 355.094 229.344C354.646 229.344 354.219 229.409 353.812 229.539C353.406 229.669 353.021 229.823 352.656 230L352.258 229.016C352.643 228.818 353.086 228.648 353.586 228.508C354.086 228.367 354.612 228.297 355.164 228.297ZM356.898 232.781L355.594 232.836C354.526 232.878 353.773 233.052 353.336 233.359C352.898 233.667 352.68 234.102 352.68 234.664C352.68 235.154 352.828 235.516 353.125 235.75C353.422 235.984 353.815 236.102 354.305 236.102C355.065 236.102 355.688 235.891 356.172 235.469C356.656 235.047 356.898 234.414 356.898 233.57V232.781ZM364.281 237.156C363.51 237.156 362.831 236.997 362.242 236.68C361.654 236.362 361.195 235.878 360.867 235.227C360.539 234.576 360.375 233.755 360.375 232.766C360.375 231.729 360.547 230.883 360.891 230.227C361.24 229.565 361.719 229.076 362.328 228.758C362.938 228.44 363.63 228.281 364.406 228.281C364.833 228.281 365.245 228.326 365.641 228.414C366.042 228.497 366.37 228.604 366.625 228.734L366.234 229.82C365.974 229.716 365.672 229.622 365.328 229.539C364.99 229.456 364.672 229.414 364.375 229.414C363.781 229.414 363.286 229.542 362.891 229.797C362.5 230.052 362.206 230.427 362.008 230.922C361.815 231.417 361.719 232.026 361.719 232.75C361.719 233.443 361.812 234.034 362 234.523C362.193 235.013 362.477 235.388 362.852 235.648C363.232 235.904 363.706 236.031 364.273 236.031C364.727 236.031 365.135 235.984 365.5 235.891C365.865 235.792 366.195 235.677 366.492 235.547V236.703C366.206 236.849 365.885 236.961 365.531 237.039C365.182 237.117 364.766 237.156 364.281 237.156ZM369.82 228.438V237H368.523V228.438H369.82ZM369.188 225.234C369.401 225.234 369.583 225.305 369.734 225.445C369.891 225.581 369.969 225.794 369.969 226.086C369.969 226.372 369.891 226.586 369.734 226.727C369.583 226.867 369.401 226.938 369.188 226.938C368.964 226.938 368.776 226.867 368.625 226.727C368.479 226.586 368.406 226.372 368.406 226.086C368.406 225.794 368.479 225.581 368.625 225.445C368.776 225.305 368.964 225.234 369.188 225.234ZM379.953 232.703C379.953 233.406 379.862 234.034 379.68 234.586C379.497 235.138 379.234 235.604 378.891 235.984C378.547 236.365 378.13 236.656 377.641 236.859C377.156 237.057 376.607 237.156 375.992 237.156C375.419 237.156 374.893 237.057 374.414 236.859C373.94 236.656 373.529 236.365 373.18 235.984C372.836 235.604 372.568 235.138 372.375 234.586C372.188 234.034 372.094 233.406 372.094 232.703C372.094 231.766 372.253 230.969 372.57 230.312C372.888 229.651 373.341 229.148 373.93 228.805C374.523 228.456 375.229 228.281 376.047 228.281C376.828 228.281 377.51 228.456 378.094 228.805C378.682 229.154 379.138 229.659 379.461 230.32C379.789 230.977 379.953 231.771 379.953 232.703ZM373.438 232.703C373.438 233.391 373.529 233.987 373.711 234.492C373.893 234.997 374.174 235.388 374.555 235.664C374.935 235.94 375.424 236.078 376.023 236.078C376.617 236.078 377.104 235.94 377.484 235.664C377.87 235.388 378.154 234.997 378.336 234.492C378.518 233.987 378.609 233.391 378.609 232.703C378.609 232.021 378.518 231.432 378.336 230.938C378.154 230.438 377.872 230.052 377.492 229.781C377.112 229.51 376.62 229.375 376.016 229.375C375.125 229.375 374.471 229.669 374.055 230.258C373.643 230.846 373.438 231.661 373.438 232.703ZM386.25 228.281C387.266 228.281 388.034 228.531 388.555 229.031C389.076 229.526 389.336 230.323 389.336 231.422V237H388.055V231.508C388.055 230.794 387.891 230.26 387.562 229.906C387.24 229.552 386.742 229.375 386.07 229.375C385.122 229.375 384.456 229.643 384.07 230.18C383.685 230.716 383.492 231.495 383.492 232.516V237H382.195V228.438H383.242L383.438 229.672H383.508C383.69 229.37 383.922 229.117 384.203 228.914C384.484 228.706 384.799 228.549 385.148 228.445C385.497 228.336 385.865 228.281 386.25 228.281ZM399.344 225.578C400.818 225.578 401.893 225.867 402.57 226.445C403.253 227.018 403.594 227.841 403.594 228.914C403.594 229.398 403.513 229.859 403.352 230.297C403.195 230.729 402.94 231.112 402.586 231.445C402.232 231.773 401.766 232.034 401.188 232.227C400.615 232.414 399.911 232.508 399.078 232.508H397.688V237H396.359V225.578H399.344ZM399.219 226.711H397.688V231.367H398.93C399.659 231.367 400.266 231.289 400.75 231.133C401.24 230.977 401.607 230.724 401.852 230.375C402.096 230.021 402.219 229.552 402.219 228.969C402.219 228.208 401.977 227.643 401.492 227.273C401.008 226.898 400.25 226.711 399.219 226.711ZM412.859 228.438V237H411.797L411.609 235.797H411.539C411.362 236.094 411.133 236.344 410.852 236.547C410.57 236.75 410.253 236.901 409.898 237C409.549 237.104 409.177 237.156 408.781 237.156C408.104 237.156 407.536 237.047 407.078 236.828C406.62 236.609 406.273 236.271 406.039 235.812C405.81 235.354 405.695 234.766 405.695 234.047V228.438H407.008V233.953C407.008 234.667 407.169 235.201 407.492 235.555C407.815 235.904 408.307 236.078 408.969 236.078C409.604 236.078 410.109 235.958 410.484 235.719C410.865 235.479 411.138 235.128 411.305 234.664C411.471 234.195 411.555 233.622 411.555 232.945V228.438H412.859ZM411.594 224.742V224.898C411.49 225.049 411.346 225.232 411.164 225.445C410.987 225.654 410.789 225.875 410.57 226.109C410.352 226.339 410.13 226.557 409.906 226.766C409.688 226.974 409.484 227.154 409.297 227.305H408.43V227.117C408.596 226.919 408.779 226.682 408.977 226.406C409.174 226.125 409.367 225.839 409.555 225.547C409.742 225.25 409.898 224.982 410.023 224.742H411.594ZM416.898 224.844V227.883C416.898 228.232 416.888 228.57 416.867 228.898C416.852 229.227 416.839 229.482 416.828 229.664H416.898C417.133 229.279 417.471 228.953 417.914 228.688C418.357 228.422 418.922 228.289 419.609 228.289C420.682 228.289 421.536 228.661 422.172 229.406C422.812 230.146 423.133 231.247 423.133 232.711C423.133 233.674 422.987 234.487 422.695 235.148C422.404 235.81 421.992 236.31 421.461 236.648C420.93 236.987 420.302 237.156 419.578 237.156C418.901 237.156 418.344 237.031 417.906 236.781C417.474 236.526 417.141 236.216 416.906 235.852H416.805L416.539 237H415.602V224.844H416.898ZM419.398 229.375C418.779 229.375 418.286 229.497 417.922 229.742C417.557 229.982 417.294 230.346 417.133 230.836C416.977 231.32 416.898 231.935 416.898 232.68V232.75C416.898 233.828 417.078 234.654 417.438 235.227C417.797 235.794 418.451 236.078 419.398 236.078C420.195 236.078 420.792 235.786 421.188 235.203C421.589 234.62 421.789 233.786 421.789 232.703C421.789 231.599 421.591 230.768 421.195 230.211C420.805 229.654 420.206 229.375 419.398 229.375ZM426.703 237H425.398V224.844H426.703V237ZM430.742 228.438V237H429.445V228.438H430.742ZM430.109 225.234C430.323 225.234 430.505 225.305 430.656 225.445C430.812 225.581 430.891 225.794 430.891 226.086C430.891 226.372 430.812 226.586 430.656 226.727C430.505 226.867 430.323 226.938 430.109 226.938C429.885 226.938 429.698 226.867 429.547 226.727C429.401 226.586 429.328 226.372 429.328 226.086C429.328 225.794 429.401 225.581 429.547 225.445C429.698 225.305 429.885 225.234 430.109 225.234ZM436.922 237.156C436.151 237.156 435.471 236.997 434.883 236.68C434.294 236.362 433.836 235.878 433.508 235.227C433.18 234.576 433.016 233.755 433.016 232.766C433.016 231.729 433.188 230.883 433.531 230.227C433.88 229.565 434.359 229.076 434.969 228.758C435.578 228.44 436.271 228.281 437.047 228.281C437.474 228.281 437.885 228.326 438.281 228.414C438.682 228.497 439.01 228.604 439.266 228.734L438.875 229.82C438.615 229.716 438.312 229.622 437.969 229.539C437.63 229.456 437.312 229.414 437.016 229.414C436.422 229.414 435.927 229.542 435.531 229.797C435.141 230.052 434.846 230.427 434.648 230.922C434.456 231.417 434.359 232.026 434.359 232.75C434.359 233.443 434.453 234.034 434.641 234.523C434.833 235.013 435.117 235.388 435.492 235.648C435.872 235.904 436.346 236.031 436.914 236.031C437.367 236.031 437.776 235.984 438.141 235.891C438.505 235.792 438.836 235.677 439.133 235.547V236.703C438.846 236.849 438.526 236.961 438.172 237.039C437.823 237.117 437.406 237.156 436.922 237.156ZM444.367 228.297C445.388 228.297 446.146 228.526 446.641 228.984C447.135 229.443 447.383 230.174 447.383 231.18V237H446.438L446.188 235.734H446.125C445.885 236.047 445.635 236.31 445.375 236.523C445.115 236.732 444.812 236.891 444.469 237C444.13 237.104 443.714 237.156 443.219 237.156C442.698 237.156 442.234 237.065 441.828 236.883C441.427 236.701 441.109 236.424 440.875 236.055C440.646 235.685 440.531 235.216 440.531 234.648C440.531 233.794 440.87 233.138 441.547 232.68C442.224 232.221 443.255 231.971 444.641 231.93L446.117 231.867V231.344C446.117 230.604 445.958 230.086 445.641 229.789C445.323 229.492 444.875 229.344 444.297 229.344C443.849 229.344 443.422 229.409 443.016 229.539C442.609 229.669 442.224 229.823 441.859 230L441.461 229.016C441.846 228.818 442.289 228.648 442.789 228.508C443.289 228.367 443.815 228.297 444.367 228.297ZM446.102 232.781L444.797 232.836C443.729 232.878 442.977 233.052 442.539 233.359C442.102 233.667 441.883 234.102 441.883 234.664C441.883 235.154 442.031 235.516 442.328 235.75C442.625 235.984 443.018 236.102 443.508 236.102C444.268 236.102 444.891 235.891 445.375 235.469C445.859 235.047 446.102 234.414 446.102 233.57V232.781Z" fill="#38485C"/>
<rect x="101.5" y="118.5" width="18" height="25" rx="8.5" fill="#F3F6F9"/>
<rect x="101.5" y="118.5" width="18" height="25" rx="8.5" stroke="#38485C"/>
<path d="M110.915 136H109.808V128.918C109.808 128.649 109.808 128.419 109.808 128.228C109.812 128.032 109.817 127.854 109.821 127.694C109.83 127.53 109.842 127.364 109.855 127.195C109.714 127.341 109.582 127.466 109.459 127.571C109.336 127.672 109.183 127.797 109.001 127.947L107.859 128.863L107.265 128.091L109.972 126.006H110.915V136Z" fill="#101E37"/>
<path d="M281.653 131C281.653 132.296 282.704 133.347 284 133.347C285.296 133.347 286.347 132.296 286.347 131C286.347 129.704 285.296 128.653 284 128.653C282.704 128.653 281.653 129.704 281.653 131ZM125 130.56C124.757 130.56 124.56 130.757 124.56 131C124.56 131.243 124.757 131.44 125 131.44L125 131L125 130.56ZM284 131L284 130.56L204.5 130.56L204.5 131L204.5 131.44L284 131.44L284 131ZM204.5 131L204.5 130.56L125 130.56L125 131L125 131.44L204.5 131.44L204.5 131Z" fill="#080F1C"/>
<rect x="101.5" y="162.5" width="18" height="25" rx="8.5" fill="#F3F6F9"/>
<rect x="101.5" y="162.5" width="18" height="25" rx="8.5" stroke="#38485C"/>
<path d="M113.239 180H106.69V179.05L109.363 176.336C109.86 175.835 110.277 175.388 110.614 174.996C110.956 174.604 111.216 174.219 111.394 173.841C111.571 173.458 111.66 173.039 111.66 172.583C111.66 172.018 111.492 171.587 111.154 171.291C110.822 170.99 110.382 170.84 109.835 170.84C109.356 170.84 108.933 170.922 108.563 171.086C108.194 171.25 107.816 171.482 107.429 171.783L106.82 171.018C107.085 170.794 107.372 170.596 107.682 170.423C107.996 170.25 108.331 170.113 108.687 170.013C109.047 169.912 109.429 169.862 109.835 169.862C110.45 169.862 110.981 169.969 111.428 170.184C111.874 170.398 112.218 170.703 112.46 171.1C112.706 171.496 112.829 171.968 112.829 172.515C112.829 173.043 112.724 173.535 112.515 173.991C112.305 174.442 112.011 174.891 111.633 175.338C111.255 175.78 110.812 176.249 110.307 176.746L108.133 178.913V178.961H113.239V180Z" fill="#101E37"/>
<path d="M267.653 175C267.653 176.296 268.704 177.347 270 177.347C271.296 177.347 272.347 176.296 272.347 175C272.347 173.704 271.296 172.653 270 172.653C268.704 172.653 267.653 173.704 267.653 175ZM125 174.56C124.757 174.56 124.56 174.757 124.56 175C124.56 175.243 124.757 175.44 125 175.44L125 175L125 174.56ZM270 175L270 174.56L197.5 174.56L197.5 175L197.5 175.44L270 175.44L270 175ZM197.5 175L197.5 174.56L125 174.56L125 175L125 175.44L197.5 175.44L197.5 175Z" fill="#080F1C"/>
<rect x="355.5" y="27.5" width="18" height="25" rx="8.5" fill="#F3F6F9"/>
<rect x="355.5" y="27.5" width="18" height="25" rx="8.5" stroke="#38485C"/>
<path d="M367.738 42.6826H366.241V45H365.134V42.6826H360.301V41.7256L365.059 34.9512H366.241V41.6572H367.738V42.6826ZM365.134 41.6572V38.3896C365.134 38.139 365.136 37.9134 365.141 37.7129C365.145 37.5078 365.152 37.3187 365.161 37.1455C365.17 36.9678 365.177 36.7992 365.182 36.6396C365.191 36.4801 365.198 36.3229 365.202 36.168H365.147C365.061 36.3503 364.961 36.5439 364.847 36.749C364.737 36.9495 364.626 37.1296 364.512 37.2891L361.429 41.6572H365.134Z" fill="#101E37"/>
<path d="M364.94 58C364.94 57.757 364.743 57.56 364.5 57.56C364.257 57.56 364.06 57.757 364.06 58L364.5 58L364.94 58ZM364.5 85.3467C365.796 85.3467 366.847 84.296 366.847 83C366.847 81.704 365.796 80.6533 364.5 80.6533C363.204 80.6533 362.153 81.704 362.153 83C362.153 84.296 363.204 85.3467 364.5 85.3467ZM364.5 58L364.06 58L364.06 70.5L364.5 70.5L364.94 70.5L364.94 58L364.5 58ZM364.5 70.5L364.06 70.5L364.06 83L364.5 83L364.94 83L364.94 70.5L364.5 70.5Z" fill="#080F1C"/>
<path d="M536.347 225C536.347 223.704 535.296 222.653 534 222.653C532.704 222.653 531.653 223.704 531.653 225C531.653 226.296 532.704 227.347 534 227.347C535.296 227.347 536.347 226.296 536.347 225ZM612 225.44C612.243 225.44 612.44 225.243 612.44 225C612.44 224.757 612.243 224.56 612 224.56L612 225L612 225.44ZM534 225L534 225.44L573 225.44L573 225L573 224.56L534 224.56L534 225ZM573 225L573 225.44L612 225.44L612 225L612 224.56L573 224.56L573 225Z" fill="#080F1C"/>
<rect x="617.5" y="212.5" width="18" height="25" rx="8.5" fill="#F3F6F9"/>
<rect x="617.5" y="212.5" width="18" height="25" rx="8.5" stroke="#38485C"/>
<path d="M628.87 222.337C628.87 222.784 628.784 223.171 628.61 223.499C628.437 223.827 628.196 224.096 627.886 224.306C627.576 224.511 627.211 224.654 626.792 224.736V224.791C627.585 224.891 628.18 225.146 628.576 225.557C628.977 225.967 629.178 226.505 629.178 227.17C629.178 227.749 629.041 228.261 628.768 228.708C628.499 229.155 628.084 229.506 627.523 229.761C626.967 230.011 626.254 230.137 625.384 230.137C624.855 230.137 624.365 230.093 623.914 230.007C623.467 229.925 623.039 229.786 622.629 229.59V228.523C623.044 228.729 623.495 228.89 623.982 229.009C624.47 229.123 624.942 229.18 625.397 229.18C626.309 229.18 626.967 229 627.373 228.64C627.779 228.275 627.981 227.778 627.981 227.149C627.981 226.716 627.868 226.368 627.64 226.104C627.416 225.835 627.093 225.639 626.669 225.516C626.25 225.388 625.744 225.324 625.151 225.324H624.153V224.354H625.158C625.701 224.354 626.161 224.274 626.539 224.114C626.917 223.955 627.204 223.731 627.4 223.444C627.601 223.153 627.701 222.809 627.701 222.412C627.701 221.906 627.533 221.517 627.195 221.243C626.858 220.965 626.4 220.826 625.821 220.826C625.466 220.826 625.142 220.863 624.851 220.936C624.559 221.008 624.285 221.109 624.03 221.236C623.775 221.364 623.52 221.512 623.265 221.681L622.69 220.901C623.055 220.619 623.499 220.375 624.023 220.17C624.548 219.965 625.142 219.862 625.808 219.862C626.828 219.862 627.594 220.095 628.104 220.56C628.615 221.024 628.87 221.617 628.87 222.337Z" fill="#101E37"/>
</svg>
