<svg width="728" height="319" viewBox="0 0 728 319" fill="none" xmlns="http://www.w3.org/2000/svg">
<rect x="1" y="1" width="726" height="317" rx="7" fill="#F3F6F9"/>
<rect x="1" y="1" width="726" height="317" rx="7" stroke="#E6EBF0" stroke-width="2"/>
<rect x="154.5" y="48.5" width="419" height="222" rx="7.5" stroke="#E6EBF0"/>
<path d="M196.304 137.64C194 137.64 191.611 137.341 189.136 136.744C186.661 136.147 184.507 135.251 182.672 134.056C181.819 133.501 181.243 132.861 180.944 132.136C180.645 131.411 180.56 130.728 180.688 130.088C180.859 129.405 181.179 128.829 181.648 128.36C182.16 127.891 182.779 127.613 183.504 127.528C184.272 127.443 185.104 127.635 186 128.104C187.749 129.043 189.435 129.725 191.056 130.152C192.677 130.536 194.341 130.728 196.048 130.728C197.925 130.728 199.504 130.472 200.784 129.96C202.064 129.448 203.024 128.68 203.664 127.656C204.347 126.632 204.688 125.395 204.688 123.944C204.688 121.811 203.963 120.232 202.512 119.208C201.104 118.141 199.035 117.608 196.304 117.608H192.208C191.013 117.608 190.096 117.309 189.456 116.712C188.859 116.115 188.56 115.283 188.56 114.216C188.56 113.149 188.859 112.317 189.456 111.72C190.096 111.123 191.013 110.824 192.208 110.824H195.536C197.157 110.824 198.544 110.568 199.696 110.056C200.848 109.501 201.744 108.733 202.384 107.752C203.024 106.771 203.344 105.576 203.344 104.168C203.344 102.205 202.683 100.712 201.36 99.688C200.08 98.664 198.203 98.152 195.728 98.152C194.149 98.152 192.656 98.344 191.248 98.728C189.883 99.0693 188.368 99.7307 186.704 100.712C185.936 101.181 185.189 101.373 184.464 101.288C183.781 101.203 183.205 100.925 182.736 100.456C182.267 99.9867 181.947 99.432 181.776 98.792C181.605 98.1093 181.648 97.4267 181.904 96.744C182.16 96.0187 182.693 95.4 183.504 94.888C185.339 93.6933 187.365 92.7973 189.584 92.2C191.803 91.56 194.085 91.24 196.432 91.24C199.547 91.24 202.213 91.7307 204.432 92.712C206.651 93.6507 208.336 95.016 209.488 96.808C210.683 98.5573 211.28 100.691 211.28 103.208C211.28 105 210.939 106.643 210.256 108.136C209.573 109.587 208.613 110.824 207.376 111.848C206.139 112.872 204.645 113.597 202.896 114.024V113.256C205.968 113.768 208.357 115.048 210.064 117.096C211.771 119.101 212.624 121.619 212.624 124.648C212.624 127.293 211.963 129.597 210.64 131.56C209.317 133.523 207.44 135.037 205.008 136.104C202.576 137.128 199.675 137.64 196.304 137.64ZM237.239 137.64C233.527 137.64 230.348 136.765 227.703 135.016C225.1 133.224 223.116 130.664 221.751 127.336C220.386 124.008 219.703 119.976 219.703 115.24C219.703 111.4 220.13 108.008 220.983 105.064C221.879 102.077 223.159 99.56 224.823 97.512C226.487 95.464 228.514 93.9067 230.903 92.84C233.335 91.7733 236.066 91.24 239.095 91.24C240.972 91.24 242.871 91.5387 244.791 92.136C246.754 92.6907 248.588 93.544 250.295 94.696C250.978 95.1227 251.426 95.6773 251.639 96.36C251.852 97.0427 251.874 97.7253 251.703 98.408C251.575 99.048 251.276 99.624 250.807 100.136C250.38 100.605 249.826 100.904 249.143 101.032C248.46 101.117 247.714 100.925 246.903 100.456C245.452 99.6027 244.087 99.0053 242.807 98.664C241.527 98.3227 240.247 98.152 238.967 98.152C236.492 98.152 234.402 98.728 232.695 99.88C230.988 101.032 229.687 102.76 228.791 105.064C227.938 107.368 227.511 110.248 227.511 113.704V118.504H226.743C227.084 116.328 227.788 114.472 228.855 112.936C229.964 111.357 231.372 110.163 233.079 109.352C234.786 108.499 236.684 108.072 238.775 108.072C241.378 108.072 243.682 108.691 245.687 109.928C247.692 111.165 249.271 112.872 250.423 115.048C251.575 117.224 252.151 119.72 252.151 122.536C252.151 125.437 251.511 128.04 250.231 130.344C248.994 132.605 247.244 134.397 244.983 135.72C242.764 137 240.183 137.64 237.239 137.64ZM236.791 131.112C238.327 131.112 239.671 130.771 240.823 130.088C242.018 129.405 242.935 128.445 243.575 127.208C244.215 125.928 244.535 124.477 244.535 122.856C244.535 121.192 244.215 119.741 243.575 118.504C242.935 117.267 242.018 116.307 240.823 115.624C239.671 114.899 238.327 114.536 236.791 114.536C235.255 114.536 233.911 114.899 232.759 115.624C231.607 116.307 230.69 117.267 230.007 118.504C229.367 119.741 229.047 121.192 229.047 122.856C229.047 124.477 229.367 125.928 230.007 127.208C230.69 128.445 231.607 129.405 232.759 130.088C233.911 130.771 235.255 131.112 236.791 131.112ZM262.75 137.32C261.299 137.32 260.126 136.872 259.23 135.976C258.377 135.08 257.95 133.928 257.95 132.52C257.95 131.155 258.377 130.045 259.23 129.192C260.126 128.296 261.299 127.848 262.75 127.848C264.243 127.848 265.395 128.296 266.206 129.192C267.059 130.045 267.486 131.155 267.486 132.52C267.486 133.928 267.059 135.08 266.206 135.976C265.395 136.872 264.243 137.32 262.75 137.32ZM290.209 137.64C287.948 137.64 285.644 137.341 283.297 136.744C280.95 136.147 278.796 135.229 276.833 133.992C276.022 133.48 275.468 132.883 275.169 132.2C274.913 131.475 274.849 130.771 274.977 130.088C275.148 129.363 275.468 128.765 275.937 128.296C276.449 127.784 277.046 127.485 277.729 127.4C278.454 127.315 279.244 127.507 280.097 127.976C281.676 128.872 283.276 129.555 284.897 130.024C286.518 130.493 288.246 130.728 290.081 130.728C291.873 130.728 293.409 130.408 294.689 129.768C295.969 129.128 296.95 128.232 297.633 127.08C298.316 125.928 298.657 124.584 298.657 123.048C298.657 120.659 297.932 118.739 296.481 117.288C295.03 115.795 293.046 115.048 290.529 115.048C289.164 115.048 287.841 115.283 286.561 115.752C285.281 116.179 284.022 116.947 282.785 118.056C282.401 118.397 281.91 118.739 281.313 119.08C280.716 119.379 280.076 119.528 279.393 119.528C278.326 119.528 277.516 119.251 276.961 118.696C276.406 118.141 276.129 117.373 276.129 116.392V95.464C276.129 94.312 276.428 93.4373 277.025 92.84C277.665 92.2 278.561 91.88 279.713 91.88H300.769C301.921 91.88 302.796 92.1787 303.393 92.776C304.033 93.3307 304.353 94.1627 304.353 95.272C304.353 96.3387 304.033 97.1707 303.393 97.768C302.796 98.3653 301.921 98.664 300.769 98.664H284.129V113H282.017C283.126 111.507 284.598 110.355 286.433 109.544C288.268 108.733 290.273 108.328 292.449 108.328C295.308 108.328 297.782 108.947 299.873 110.184C302.006 111.379 303.649 113.064 304.801 115.24C305.996 117.373 306.593 119.869 306.593 122.728C306.593 125.672 305.932 128.275 304.609 130.536C303.286 132.755 301.388 134.504 298.913 135.784C296.481 137.021 293.58 137.64 290.209 137.64ZM320.008 137.512C319.027 137.512 318.216 137.277 317.576 136.808C316.936 136.339 316.552 135.72 316.424 134.952C316.296 134.141 316.488 133.245 317 132.264L336.328 95.912V98.728H315.592C314.44 98.728 313.544 98.4293 312.904 97.832C312.307 97.2347 312.008 96.4027 312.008 95.336C312.008 94.2267 312.307 93.3733 312.904 92.776C313.544 92.1787 314.44 91.88 315.592 91.88H340.36C341.512 91.88 342.451 92.1787 343.176 92.776C343.901 93.3733 344.264 94.2267 344.264 95.336C344.264 96.2747 344.136 97.1067 343.88 97.832C343.624 98.5147 343.283 99.2613 342.856 100.072L324.68 134.824C324.211 135.763 323.592 136.445 322.824 136.872C322.099 137.299 321.16 137.512 320.008 137.512ZM366.575 137.64C363.076 137.64 360.068 137.149 357.551 136.168C355.076 135.144 353.156 133.672 351.791 131.752C350.468 129.832 349.807 127.528 349.807 124.84C349.807 122.707 350.234 120.829 351.087 119.208C351.983 117.544 353.199 116.2 354.735 115.176C356.271 114.152 358.02 113.512 359.983 113.256V114.6C357.252 114.003 355.055 112.701 353.391 110.696C351.77 108.648 350.959 106.216 350.959 103.4C350.959 100.84 351.599 98.664 352.879 96.872C354.159 95.0373 355.972 93.6507 358.319 92.712C360.666 91.7307 363.418 91.24 366.575 91.24C369.775 91.24 372.548 91.7307 374.895 92.712C377.242 93.6507 379.055 95.0373 380.335 96.872C381.615 98.664 382.255 100.84 382.255 103.4C382.255 105.277 381.871 107.005 381.103 108.584C380.378 110.163 379.332 111.464 377.967 112.488C376.644 113.512 375.087 114.195 373.295 114.536V113.256C376.282 113.683 378.692 114.941 380.527 117.032C382.404 119.08 383.343 121.683 383.343 124.84C383.343 127.528 382.66 129.832 381.295 131.752C379.972 133.672 378.052 135.144 375.535 136.168C373.06 137.149 370.074 137.64 366.575 137.64ZM366.575 131.24C369.604 131.24 371.887 130.664 373.423 129.512C374.959 128.317 375.727 126.568 375.727 124.264C375.727 121.96 374.959 120.232 373.423 119.08C371.887 117.928 369.604 117.352 366.575 117.352C363.588 117.352 361.306 117.928 359.727 119.08C358.191 120.232 357.423 121.96 357.423 124.264C357.423 126.568 358.191 128.317 359.727 129.512C361.306 130.664 363.588 131.24 366.575 131.24ZM366.575 110.952C368.282 110.952 369.732 110.696 370.927 110.184C372.122 109.629 373.039 108.84 373.679 107.816C374.319 106.792 374.639 105.597 374.639 104.232C374.639 102.184 373.914 100.584 372.463 99.432C371.055 98.2373 369.092 97.64 366.575 97.64C364.058 97.64 362.095 98.2373 360.687 99.432C359.279 100.584 358.575 102.184 358.575 104.232C358.575 106.323 359.279 107.965 360.687 109.16C362.095 110.355 364.058 110.952 366.575 110.952Z" fill="#101E37"/>
<path d="M180.9 186C180.46 186 180.12 185.887 179.88 185.66C179.653 185.42 179.54 185.08 179.54 184.64V173.26C179.54 172.82 179.653 172.487 179.88 172.26C180.12 172.02 180.46 171.9 180.9 171.9H184.78C187.14 171.9 188.96 172.507 190.24 173.72C191.533 174.933 192.18 176.673 192.18 178.94C192.18 180.073 192.013 181.08 191.68 181.96C191.36 182.827 190.88 183.56 190.24 184.16C189.613 184.76 188.84 185.22 187.92 185.54C187.013 185.847 185.967 186 184.78 186H180.9ZM182.1 183.88H184.62C185.447 183.88 186.16 183.78 186.76 183.58C187.373 183.367 187.88 183.06 188.28 182.66C188.693 182.247 189 181.733 189.2 181.12C189.4 180.493 189.5 179.767 189.5 178.94C189.5 177.287 189.093 176.053 188.28 175.24C187.467 174.427 186.247 174.02 184.62 174.02H182.1V183.88ZM195.774 186.14C195.374 186.14 195.068 186.02 194.854 185.78C194.641 185.54 194.534 185.207 194.534 184.78V177.44C194.534 177 194.641 176.667 194.854 176.44C195.068 176.2 195.374 176.08 195.774 176.08C196.174 176.08 196.481 176.2 196.694 176.44C196.921 176.667 197.034 177 197.034 177.44V184.78C197.034 185.207 196.928 185.54 196.714 185.78C196.501 186.02 196.188 186.14 195.774 186.14ZM196.714 174.8C196.581 174.987 196.421 175.093 196.234 175.12C196.048 175.147 195.868 175.113 195.694 175.02C195.521 174.927 195.394 174.793 195.314 174.62C195.248 174.447 195.268 174.253 195.374 174.04L196.894 171.06C197.014 170.807 197.174 170.647 197.374 170.58C197.574 170.5 197.781 170.487 197.994 170.54C198.208 170.593 198.388 170.693 198.534 170.84C198.694 170.987 198.788 171.167 198.814 171.38C198.854 171.58 198.801 171.787 198.654 172L196.714 174.8ZM202.852 186.2C202.145 186.2 201.512 186.067 200.952 185.8C200.405 185.52 199.972 185.147 199.652 184.68C199.345 184.213 199.192 183.687 199.192 183.1C199.192 182.38 199.379 181.813 199.752 181.4C200.125 180.973 200.732 180.667 201.572 180.48C202.412 180.293 203.539 180.2 204.952 180.2H205.952V181.64H204.972C204.145 181.64 203.485 181.68 202.992 181.76C202.499 181.84 202.145 181.98 201.932 182.18C201.732 182.367 201.632 182.633 201.632 182.98C201.632 183.42 201.785 183.78 202.092 184.06C202.399 184.34 202.825 184.48 203.372 184.48C203.812 184.48 204.199 184.38 204.532 184.18C204.879 183.967 205.152 183.68 205.352 183.32C205.552 182.96 205.652 182.547 205.652 182.08V179.78C205.652 179.113 205.505 178.633 205.212 178.34C204.919 178.047 204.425 177.9 203.732 177.9C203.345 177.9 202.925 177.947 202.472 178.04C202.032 178.133 201.565 178.293 201.072 178.52C200.819 178.64 200.592 178.673 200.392 178.62C200.205 178.567 200.059 178.46 199.952 178.3C199.845 178.127 199.792 177.94 199.792 177.74C199.792 177.54 199.845 177.347 199.952 177.16C200.059 176.96 200.239 176.813 200.492 176.72C201.105 176.467 201.692 176.287 202.252 176.18C202.825 176.073 203.345 176.02 203.812 176.02C204.772 176.02 205.559 176.167 206.172 176.46C206.799 176.753 207.265 177.2 207.572 177.8C207.879 178.387 208.032 179.147 208.032 180.08V184.88C208.032 185.293 207.932 185.613 207.732 185.84C207.532 186.053 207.245 186.16 206.872 186.16C206.499 186.16 206.205 186.053 205.992 185.84C205.792 185.613 205.692 185.293 205.692 184.88V183.92H205.852C205.759 184.387 205.572 184.793 205.292 185.14C205.025 185.473 204.685 185.733 204.272 185.92C203.859 186.107 203.385 186.2 202.852 186.2ZM214.15 186.2C213.576 186.2 212.97 186.14 212.33 186.02C211.69 185.9 211.116 185.693 210.61 185.4C210.396 185.267 210.243 185.113 210.15 184.94C210.07 184.753 210.036 184.573 210.05 184.4C210.076 184.213 210.143 184.053 210.25 183.92C210.37 183.787 210.516 183.7 210.69 183.66C210.876 183.62 211.076 183.653 211.29 183.76C211.823 184.013 212.323 184.193 212.79 184.3C213.256 184.393 213.716 184.44 214.17 184.44C214.81 184.44 215.283 184.333 215.59 184.12C215.91 183.893 216.07 183.6 216.07 183.24C216.07 182.933 215.963 182.7 215.75 182.54C215.55 182.367 215.243 182.24 214.83 182.16L212.83 181.78C212.003 181.62 211.37 181.32 210.93 180.88C210.503 180.427 210.29 179.847 210.29 179.14C210.29 178.5 210.463 177.947 210.81 177.48C211.17 177.013 211.663 176.653 212.29 176.4C212.916 176.147 213.636 176.02 214.45 176.02C215.036 176.02 215.583 176.087 216.09 176.22C216.61 176.34 217.11 176.533 217.59 176.8C217.79 176.907 217.923 177.047 217.99 177.22C218.07 177.393 218.09 177.573 218.05 177.76C218.01 177.933 217.93 178.093 217.81 178.24C217.69 178.373 217.536 178.46 217.35 178.5C217.176 178.527 216.976 178.487 216.75 178.38C216.336 178.167 215.936 178.013 215.55 177.92C215.176 177.827 214.816 177.78 214.47 177.78C213.816 177.78 213.33 177.893 213.01 178.12C212.703 178.347 212.55 178.647 212.55 179.02C212.55 179.3 212.643 179.533 212.83 179.72C213.016 179.907 213.303 180.033 213.69 180.1L215.69 180.48C216.556 180.64 217.21 180.933 217.65 181.36C218.103 181.787 218.33 182.36 218.33 183.08C218.33 184.053 217.95 184.82 217.19 185.38C216.43 185.927 215.416 186.2 214.15 186.2ZM228.985 186.2C228.278 186.2 227.645 186.067 227.085 185.8C226.538 185.52 226.105 185.147 225.785 184.68C225.478 184.213 225.325 183.687 225.325 183.1C225.325 182.38 225.512 181.813 225.885 181.4C226.258 180.973 226.865 180.667 227.705 180.48C228.545 180.293 229.672 180.2 231.085 180.2H232.085V181.64H231.105C230.278 181.64 229.618 181.68 229.125 181.76C228.632 181.84 228.278 181.98 228.065 182.18C227.865 182.367 227.765 182.633 227.765 182.98C227.765 183.42 227.918 183.78 228.225 184.06C228.532 184.34 228.958 184.48 229.505 184.48C229.945 184.48 230.332 184.38 230.665 184.18C231.012 183.967 231.285 183.68 231.485 183.32C231.685 182.96 231.785 182.547 231.785 182.08V179.78C231.785 179.113 231.638 178.633 231.345 178.34C231.052 178.047 230.558 177.9 229.865 177.9C229.478 177.9 229.058 177.947 228.605 178.04C228.165 178.133 227.698 178.293 227.205 178.52C226.952 178.64 226.725 178.673 226.525 178.62C226.338 178.567 226.192 178.46 226.085 178.3C225.978 178.127 225.925 177.94 225.925 177.74C225.925 177.54 225.978 177.347 226.085 177.16C226.192 176.96 226.372 176.813 226.625 176.72C227.238 176.467 227.825 176.287 228.385 176.18C228.958 176.073 229.478 176.02 229.945 176.02C230.905 176.02 231.692 176.167 232.305 176.46C232.932 176.753 233.398 177.2 233.705 177.8C234.012 178.387 234.165 179.147 234.165 180.08V184.88C234.165 185.293 234.065 185.613 233.865 185.84C233.665 186.053 233.378 186.16 233.005 186.16C232.632 186.16 232.338 186.053 232.125 185.84C231.925 185.613 231.825 185.293 231.825 184.88V183.92H231.985C231.892 184.387 231.705 184.793 231.425 185.14C231.158 185.473 230.818 185.733 230.405 185.92C229.992 186.107 229.518 186.2 228.985 186.2ZM237.942 186.16C237.542 186.16 237.236 186.053 237.022 185.84C236.809 185.613 236.702 185.293 236.702 184.88V173C236.702 172.587 236.809 172.273 237.022 172.06C237.236 171.847 237.542 171.74 237.942 171.74C238.342 171.74 238.649 171.847 238.862 172.06C239.089 172.273 239.202 172.587 239.202 173V178.18H238.922C239.216 177.473 239.669 176.94 240.282 176.58C240.909 176.207 241.616 176.02 242.402 176.02C243.189 176.02 243.836 176.167 244.342 176.46C244.849 176.753 245.229 177.2 245.482 177.8C245.736 178.387 245.862 179.133 245.862 180.04V184.88C245.862 185.293 245.756 185.613 245.542 185.84C245.329 186.053 245.022 186.16 244.622 186.16C244.222 186.16 243.909 186.053 243.682 185.84C243.469 185.613 243.362 185.293 243.362 184.88V180.16C243.362 179.4 243.216 178.847 242.922 178.5C242.642 178.153 242.202 177.98 241.602 177.98C240.869 177.98 240.282 178.213 239.842 178.68C239.416 179.133 239.202 179.74 239.202 180.5V184.88C239.202 185.733 238.782 186.16 237.942 186.16ZM252.862 186.2C251.848 186.2 250.968 185.993 250.222 185.58C249.475 185.167 248.895 184.58 248.482 183.82C248.068 183.047 247.862 182.14 247.862 181.1C247.862 180.313 247.975 179.613 248.202 179C248.442 178.373 248.782 177.84 249.222 177.4C249.662 176.947 250.188 176.607 250.802 176.38C251.415 176.14 252.102 176.02 252.862 176.02C253.875 176.02 254.755 176.227 255.502 176.64C256.248 177.053 256.828 177.64 257.242 178.4C257.655 179.16 257.862 180.06 257.862 181.1C257.862 181.887 257.742 182.593 257.502 183.22C257.275 183.847 256.942 184.387 256.502 184.84C256.062 185.28 255.535 185.62 254.922 185.86C254.308 186.087 253.622 186.2 252.862 186.2ZM252.862 184.3C253.355 184.3 253.788 184.18 254.162 183.94C254.535 183.7 254.822 183.347 255.022 182.88C255.235 182.4 255.342 181.807 255.342 181.1C255.342 180.033 255.115 179.24 254.662 178.72C254.208 178.187 253.608 177.92 252.862 177.92C252.368 177.92 251.935 178.04 251.562 178.28C251.188 178.507 250.895 178.86 250.682 179.34C250.482 179.807 250.382 180.393 250.382 181.1C250.382 182.153 250.608 182.953 251.062 183.5C251.515 184.033 252.115 184.3 252.862 184.3ZM261.205 186.16C260.792 186.16 260.472 186.053 260.245 185.84C260.032 185.613 259.925 185.293 259.925 184.88V177.32C259.925 176.907 260.032 176.593 260.245 176.38C260.458 176.167 260.758 176.06 261.145 176.06C261.532 176.06 261.832 176.167 262.045 176.38C262.258 176.593 262.365 176.907 262.365 177.32V178.58H262.165C262.352 177.78 262.718 177.173 263.265 176.76C263.812 176.347 264.538 176.1 265.445 176.02C265.725 175.993 265.945 176.067 266.105 176.24C266.278 176.4 266.378 176.653 266.405 177C266.432 177.333 266.352 177.607 266.165 177.82C265.992 178.02 265.725 178.14 265.365 178.18L264.925 178.22C264.112 178.3 263.498 178.553 263.085 178.98C262.672 179.393 262.465 179.98 262.465 180.74V184.88C262.465 185.293 262.358 185.613 262.145 185.84C261.932 186.053 261.618 186.16 261.205 186.16ZM269.037 186.16C268.624 186.16 268.304 186.053 268.077 185.84C267.864 185.613 267.757 185.293 267.757 184.88V177.32C267.757 176.907 267.864 176.593 268.077 176.38C268.29 176.167 268.59 176.06 268.977 176.06C269.364 176.06 269.664 176.167 269.877 176.38C270.09 176.593 270.197 176.907 270.197 177.32V178.58H269.997C270.184 177.78 270.55 177.173 271.097 176.76C271.644 176.347 272.37 176.1 273.277 176.02C273.557 175.993 273.777 176.067 273.937 176.24C274.11 176.4 274.21 176.653 274.237 177C274.264 177.333 274.184 177.607 273.997 177.82C273.824 178.02 273.557 178.14 273.197 178.18L272.757 178.22C271.944 178.3 271.33 178.553 270.917 178.98C270.504 179.393 270.297 179.98 270.297 180.74V184.88C270.297 185.293 270.19 185.613 269.977 185.84C269.764 186.053 269.45 186.16 269.037 186.16ZM278.711 186.2C278.005 186.2 277.371 186.067 276.811 185.8C276.265 185.52 275.831 185.147 275.511 184.68C275.205 184.213 275.051 183.687 275.051 183.1C275.051 182.38 275.238 181.813 275.611 181.4C275.985 180.973 276.591 180.667 277.431 180.48C278.271 180.293 279.398 180.2 280.811 180.2H281.811V181.64H280.831C280.005 181.64 279.345 181.68 278.851 181.76C278.358 181.84 278.005 181.98 277.791 182.18C277.591 182.367 277.491 182.633 277.491 182.98C277.491 183.42 277.645 183.78 277.951 184.06C278.258 184.34 278.685 184.48 279.231 184.48C279.671 184.48 280.058 184.38 280.391 184.18C280.738 183.967 281.011 183.68 281.211 183.32C281.411 182.96 281.511 182.547 281.511 182.08V179.78C281.511 179.113 281.365 178.633 281.071 178.34C280.778 178.047 280.285 177.9 279.591 177.9C279.205 177.9 278.785 177.947 278.331 178.04C277.891 178.133 277.425 178.293 276.931 178.52C276.678 178.64 276.451 178.673 276.251 178.62C276.065 178.567 275.918 178.46 275.811 178.3C275.705 178.127 275.651 177.94 275.651 177.74C275.651 177.54 275.705 177.347 275.811 177.16C275.918 176.96 276.098 176.813 276.351 176.72C276.965 176.467 277.551 176.287 278.111 176.18C278.685 176.073 279.205 176.02 279.671 176.02C280.631 176.02 281.418 176.167 282.031 176.46C282.658 176.753 283.125 177.2 283.431 177.8C283.738 178.387 283.891 179.147 283.891 180.08V184.88C283.891 185.293 283.791 185.613 283.591 185.84C283.391 186.053 283.105 186.16 282.731 186.16C282.358 186.16 282.065 186.053 281.851 185.84C281.651 185.613 281.551 185.293 281.551 184.88V183.92H281.711C281.618 184.387 281.431 184.793 281.151 185.14C280.885 185.473 280.545 185.733 280.131 185.92C279.718 186.107 279.245 186.2 278.711 186.2ZM290.189 186.2C289.336 186.2 288.582 185.993 287.929 185.58C287.289 185.167 286.789 184.58 286.429 183.82C286.069 183.047 285.889 182.14 285.889 181.1C285.889 180.047 286.069 179.147 286.429 178.4C286.789 177.64 287.289 177.053 287.929 176.64C288.582 176.227 289.336 176.02 290.189 176.02C291.002 176.02 291.709 176.22 292.309 176.62C292.922 177.02 293.336 177.547 293.549 178.2H293.329V173C293.329 172.587 293.436 172.273 293.649 172.06C293.862 171.847 294.169 171.74 294.569 171.74C294.969 171.74 295.276 171.847 295.489 172.06C295.716 172.273 295.829 172.587 295.829 173V184.88C295.829 185.293 295.722 185.613 295.509 185.84C295.296 186.053 294.989 186.16 294.589 186.16C294.189 186.16 293.882 186.053 293.669 185.84C293.456 185.613 293.349 185.293 293.349 184.88V183.32L293.569 183.92C293.369 184.613 292.962 185.167 292.349 185.58C291.736 185.993 291.016 186.2 290.189 186.2ZM290.889 184.3C291.382 184.3 291.816 184.18 292.189 183.94C292.562 183.7 292.849 183.347 293.049 182.88C293.262 182.4 293.369 181.807 293.369 181.1C293.369 180.033 293.142 179.24 292.689 178.72C292.236 178.187 291.636 177.92 290.889 177.92C290.396 177.92 289.962 178.04 289.589 178.28C289.216 178.507 288.922 178.86 288.709 179.34C288.509 179.807 288.409 180.393 288.409 181.1C288.409 182.153 288.636 182.953 289.089 183.5C289.542 184.033 290.142 184.3 290.889 184.3ZM302.881 186.2C301.868 186.2 300.988 185.993 300.241 185.58C299.494 185.167 298.914 184.58 298.501 183.82C298.088 183.047 297.881 182.14 297.881 181.1C297.881 180.313 297.994 179.613 298.221 179C298.461 178.373 298.801 177.84 299.241 177.4C299.681 176.947 300.208 176.607 300.821 176.38C301.434 176.14 302.121 176.02 302.881 176.02C303.894 176.02 304.774 176.227 305.521 176.64C306.268 177.053 306.848 177.64 307.261 178.4C307.674 179.16 307.881 180.06 307.881 181.1C307.881 181.887 307.761 182.593 307.521 183.22C307.294 183.847 306.961 184.387 306.521 184.84C306.081 185.28 305.554 185.62 304.941 185.86C304.328 186.087 303.641 186.2 302.881 186.2ZM302.881 184.3C303.374 184.3 303.808 184.18 304.181 183.94C304.554 183.7 304.841 183.347 305.041 182.88C305.254 182.4 305.361 181.807 305.361 181.1C305.361 180.033 305.134 179.24 304.681 178.72C304.228 178.187 303.628 177.92 302.881 177.92C302.388 177.92 301.954 178.04 301.581 178.28C301.208 178.507 300.914 178.86 300.701 179.34C300.501 179.807 300.401 180.393 300.401 181.1C300.401 182.153 300.628 182.953 301.081 183.5C301.534 184.033 302.134 184.3 302.881 184.3ZM313.525 186.2C312.951 186.2 312.345 186.14 311.705 186.02C311.065 185.9 310.491 185.693 309.985 185.4C309.771 185.267 309.618 185.113 309.525 184.94C309.445 184.753 309.411 184.573 309.425 184.4C309.451 184.213 309.518 184.053 309.625 183.92C309.745 183.787 309.891 183.7 310.065 183.66C310.251 183.62 310.451 183.653 310.665 183.76C311.198 184.013 311.698 184.193 312.165 184.3C312.631 184.393 313.091 184.44 313.545 184.44C314.185 184.44 314.658 184.333 314.965 184.12C315.285 183.893 315.445 183.6 315.445 183.24C315.445 182.933 315.338 182.7 315.125 182.54C314.925 182.367 314.618 182.24 314.205 182.16L312.205 181.78C311.378 181.62 310.745 181.32 310.305 180.88C309.878 180.427 309.665 179.847 309.665 179.14C309.665 178.5 309.838 177.947 310.185 177.48C310.545 177.013 311.038 176.653 311.665 176.4C312.291 176.147 313.011 176.02 313.825 176.02C314.411 176.02 314.958 176.087 315.465 176.22C315.985 176.34 316.485 176.533 316.965 176.8C317.165 176.907 317.298 177.047 317.365 177.22C317.445 177.393 317.465 177.573 317.425 177.76C317.385 177.933 317.305 178.093 317.185 178.24C317.065 178.373 316.911 178.46 316.725 178.5C316.551 178.527 316.351 178.487 316.125 178.38C315.711 178.167 315.311 178.013 314.925 177.92C314.551 177.827 314.191 177.78 313.845 177.78C313.191 177.78 312.705 177.893 312.385 178.12C312.078 178.347 311.925 178.647 311.925 179.02C311.925 179.3 312.018 179.533 312.205 179.72C312.391 179.907 312.678 180.033 313.065 180.1L315.065 180.48C315.931 180.64 316.585 180.933 317.025 181.36C317.478 181.787 317.705 182.36 317.705 183.08C317.705 184.053 317.325 184.82 316.565 185.38C315.805 185.927 314.791 186.2 313.525 186.2Z" fill="#38485C"/>
<path d="M183.07 217H181.734V206.75H178.141V205.578H186.648V206.75H183.07V217ZM189.477 208.438V217H188.18V208.438H189.477ZM188.844 205.234C189.057 205.234 189.24 205.305 189.391 205.445C189.547 205.581 189.625 205.794 189.625 206.086C189.625 206.372 189.547 206.586 189.391 206.727C189.24 206.867 189.057 206.938 188.844 206.938C188.62 206.938 188.432 206.867 188.281 206.727C188.135 206.586 188.062 206.372 188.062 206.086C188.062 205.794 188.135 205.581 188.281 205.445C188.432 205.305 188.62 205.234 188.844 205.234ZM195.523 208.281C196.253 208.281 196.878 208.443 197.398 208.766C197.919 209.089 198.318 209.542 198.594 210.125C198.87 210.703 199.008 211.38 199.008 212.156V212.961H193.094C193.109 213.966 193.359 214.732 193.844 215.258C194.328 215.784 195.01 216.047 195.891 216.047C196.432 216.047 196.911 215.997 197.328 215.898C197.745 215.799 198.177 215.654 198.625 215.461V216.602C198.193 216.794 197.763 216.935 197.336 217.023C196.914 217.112 196.414 217.156 195.836 217.156C195.013 217.156 194.294 216.99 193.68 216.656C193.07 216.318 192.596 215.823 192.258 215.172C191.919 214.521 191.75 213.724 191.75 212.781C191.75 211.859 191.904 211.062 192.211 210.391C192.523 209.714 192.961 209.193 193.523 208.828C194.091 208.464 194.758 208.281 195.523 208.281ZM195.508 209.344C194.815 209.344 194.263 209.57 193.852 210.023C193.44 210.477 193.195 211.109 193.117 211.922H197.648C197.643 211.411 197.562 210.964 197.406 210.578C197.255 210.188 197.023 209.885 196.711 209.672C196.398 209.453 195.997 209.344 195.508 209.344ZM210.508 208.281C211.451 208.281 212.161 208.529 212.641 209.023C213.12 209.513 213.359 210.302 213.359 211.391V217H212.078V211.453C212.078 210.76 211.927 210.242 211.625 209.898C211.328 209.549 210.885 209.375 210.297 209.375C209.469 209.375 208.867 209.615 208.492 210.094C208.117 210.573 207.93 211.279 207.93 212.211V217H206.641V211.453C206.641 210.99 206.573 210.604 206.438 210.297C206.307 209.99 206.109 209.76 205.844 209.609C205.583 209.453 205.253 209.375 204.852 209.375C204.284 209.375 203.828 209.492 203.484 209.727C203.141 209.961 202.891 210.31 202.734 210.773C202.583 211.232 202.508 211.797 202.508 212.469V217H201.211V208.438H202.258L202.453 209.648H202.523C202.695 209.352 202.911 209.102 203.172 208.898C203.432 208.695 203.724 208.542 204.047 208.438C204.37 208.333 204.714 208.281 205.078 208.281C205.729 208.281 206.273 208.404 206.711 208.648C207.154 208.888 207.474 209.255 207.672 209.75H207.742C208.023 209.255 208.409 208.888 208.898 208.648C209.388 208.404 209.924 208.281 210.508 208.281ZM220.047 208.281C221.115 208.281 221.966 208.648 222.602 209.383C223.237 210.117 223.555 211.221 223.555 212.695C223.555 213.669 223.409 214.487 223.117 215.148C222.826 215.81 222.414 216.31 221.883 216.648C221.357 216.987 220.734 217.156 220.016 217.156C219.562 217.156 219.164 217.096 218.82 216.977C218.477 216.857 218.182 216.695 217.938 216.492C217.693 216.289 217.49 216.068 217.328 215.828H217.234C217.25 216.031 217.268 216.276 217.289 216.562C217.315 216.849 217.328 217.099 217.328 217.312V220.828H216.023V208.438H217.094L217.266 209.703H217.328C217.495 209.443 217.698 209.206 217.938 208.992C218.177 208.773 218.469 208.602 218.812 208.477C219.161 208.346 219.573 208.281 220.047 208.281ZM219.82 209.375C219.227 209.375 218.747 209.49 218.383 209.719C218.023 209.948 217.76 210.292 217.594 210.75C217.427 211.203 217.339 211.773 217.328 212.461V212.711C217.328 213.435 217.406 214.047 217.562 214.547C217.724 215.047 217.987 215.427 218.352 215.688C218.721 215.948 219.216 216.078 219.836 216.078C220.367 216.078 220.81 215.935 221.164 215.648C221.518 215.362 221.781 214.964 221.953 214.453C222.13 213.938 222.219 213.346 222.219 212.68C222.219 211.669 222.021 210.867 221.625 210.273C221.234 209.674 220.633 209.375 219.82 209.375ZM233.203 212.703C233.203 213.406 233.112 214.034 232.93 214.586C232.747 215.138 232.484 215.604 232.141 215.984C231.797 216.365 231.38 216.656 230.891 216.859C230.406 217.057 229.857 217.156 229.242 217.156C228.669 217.156 228.143 217.057 227.664 216.859C227.19 216.656 226.779 216.365 226.43 215.984C226.086 215.604 225.818 215.138 225.625 214.586C225.438 214.034 225.344 213.406 225.344 212.703C225.344 211.766 225.503 210.969 225.82 210.312C226.138 209.651 226.591 209.148 227.18 208.805C227.773 208.456 228.479 208.281 229.297 208.281C230.078 208.281 230.76 208.456 231.344 208.805C231.932 209.154 232.388 209.659 232.711 210.32C233.039 210.977 233.203 211.771 233.203 212.703ZM226.688 212.703C226.688 213.391 226.779 213.987 226.961 214.492C227.143 214.997 227.424 215.388 227.805 215.664C228.185 215.94 228.674 216.078 229.273 216.078C229.867 216.078 230.354 215.94 230.734 215.664C231.12 215.388 231.404 214.997 231.586 214.492C231.768 213.987 231.859 213.391 231.859 212.703C231.859 212.021 231.768 211.432 231.586 210.938C231.404 210.438 231.122 210.052 230.742 209.781C230.362 209.51 229.87 209.375 229.266 209.375C228.375 209.375 227.721 209.669 227.305 210.258C226.893 210.846 226.688 211.661 226.688 212.703ZM245.344 220.828V217.156C245.344 216.953 245.349 216.719 245.359 216.453C245.37 216.188 245.388 215.958 245.414 215.766H245.328C245.089 216.161 244.747 216.492 244.305 216.758C243.862 217.023 243.292 217.156 242.594 217.156C241.547 217.156 240.706 216.786 240.07 216.047C239.435 215.307 239.117 214.203 239.117 212.734C239.117 211.771 239.263 210.958 239.555 210.297C239.846 209.635 240.258 209.135 240.789 208.797C241.326 208.453 241.951 208.281 242.664 208.281C243.346 208.281 243.904 208.417 244.336 208.688C244.768 208.953 245.107 209.279 245.352 209.664H245.414L245.609 208.438H246.641V220.828H245.344ZM242.836 216.078C243.44 216.078 243.924 215.966 244.289 215.742C244.654 215.513 244.919 215.169 245.086 214.711C245.258 214.253 245.349 213.682 245.359 213V212.727C245.359 211.622 245.172 210.786 244.797 210.219C244.422 209.646 243.768 209.359 242.836 209.359C242.034 209.359 241.438 209.667 241.047 210.281C240.656 210.891 240.461 211.719 240.461 212.766C240.461 213.812 240.656 214.628 241.047 215.211C241.438 215.789 242.034 216.078 242.836 216.078ZM256.469 208.438V217H255.406L255.219 215.797H255.148C254.971 216.094 254.742 216.344 254.461 216.547C254.18 216.75 253.862 216.901 253.508 217C253.159 217.104 252.786 217.156 252.391 217.156C251.714 217.156 251.146 217.047 250.688 216.828C250.229 216.609 249.883 216.271 249.648 215.812C249.419 215.354 249.305 214.766 249.305 214.047V208.438H250.617V213.953C250.617 214.667 250.779 215.201 251.102 215.555C251.424 215.904 251.917 216.078 252.578 216.078C253.214 216.078 253.719 215.958 254.094 215.719C254.474 215.479 254.747 215.128 254.914 214.664C255.081 214.195 255.164 213.622 255.164 212.945V208.438H256.469ZM262.508 208.281C263.237 208.281 263.862 208.443 264.383 208.766C264.904 209.089 265.302 209.542 265.578 210.125C265.854 210.703 265.992 211.38 265.992 212.156V212.961H260.078C260.094 213.966 260.344 214.732 260.828 215.258C261.312 215.784 261.995 216.047 262.875 216.047C263.417 216.047 263.896 215.997 264.312 215.898C264.729 215.799 265.161 215.654 265.609 215.461V216.602C265.177 216.794 264.747 216.935 264.32 217.023C263.898 217.112 263.398 217.156 262.82 217.156C261.997 217.156 261.279 216.99 260.664 216.656C260.055 216.318 259.581 215.823 259.242 215.172C258.904 214.521 258.734 213.724 258.734 212.781C258.734 211.859 258.888 211.062 259.195 210.391C259.508 209.714 259.945 209.193 260.508 208.828C261.076 208.464 261.742 208.281 262.508 208.281ZM262.492 209.344C261.799 209.344 261.247 209.57 260.836 210.023C260.424 210.477 260.18 211.109 260.102 211.922H264.633C264.628 211.411 264.547 210.964 264.391 210.578C264.24 210.188 264.008 209.885 263.695 209.672C263.383 209.453 262.982 209.344 262.492 209.344ZM277.891 214.656C277.891 215.203 277.753 215.664 277.477 216.039C277.206 216.409 276.815 216.688 276.305 216.875C275.799 217.062 275.195 217.156 274.492 217.156C273.893 217.156 273.375 217.109 272.938 217.016C272.5 216.922 272.117 216.789 271.789 216.617V215.422C272.138 215.594 272.555 215.75 273.039 215.891C273.523 216.031 274.018 216.102 274.523 216.102C275.263 216.102 275.799 215.982 276.133 215.742C276.466 215.503 276.633 215.177 276.633 214.766C276.633 214.531 276.565 214.326 276.43 214.148C276.299 213.966 276.078 213.792 275.766 213.625C275.453 213.453 275.021 213.266 274.469 213.062C273.922 212.854 273.448 212.648 273.047 212.445C272.651 212.237 272.344 211.984 272.125 211.688C271.911 211.391 271.805 211.005 271.805 210.531C271.805 209.807 272.096 209.253 272.68 208.867C273.268 208.477 274.039 208.281 274.992 208.281C275.508 208.281 275.99 208.333 276.438 208.438C276.891 208.536 277.312 208.672 277.703 208.844L277.266 209.883C276.911 209.732 276.534 209.604 276.133 209.5C275.732 209.396 275.323 209.344 274.906 209.344C274.307 209.344 273.846 209.443 273.523 209.641C273.206 209.839 273.047 210.109 273.047 210.453C273.047 210.719 273.12 210.938 273.266 211.109C273.417 211.281 273.656 211.443 273.984 211.594C274.312 211.745 274.745 211.922 275.281 212.125C275.818 212.323 276.281 212.529 276.672 212.742C277.062 212.951 277.362 213.206 277.57 213.508C277.784 213.805 277.891 214.188 277.891 214.656ZM283.273 208.281C284.003 208.281 284.628 208.443 285.148 208.766C285.669 209.089 286.068 209.542 286.344 210.125C286.62 210.703 286.758 211.38 286.758 212.156V212.961H280.844C280.859 213.966 281.109 214.732 281.594 215.258C282.078 215.784 282.76 216.047 283.641 216.047C284.182 216.047 284.661 215.997 285.078 215.898C285.495 215.799 285.927 215.654 286.375 215.461V216.602C285.943 216.794 285.513 216.935 285.086 217.023C284.664 217.112 284.164 217.156 283.586 217.156C282.763 217.156 282.044 216.99 281.43 216.656C280.82 216.318 280.346 215.823 280.008 215.172C279.669 214.521 279.5 213.724 279.5 212.781C279.5 211.859 279.654 211.062 279.961 210.391C280.273 209.714 280.711 209.193 281.273 208.828C281.841 208.464 282.508 208.281 283.273 208.281ZM283.258 209.344C282.565 209.344 282.013 209.57 281.602 210.023C281.19 210.477 280.945 211.109 280.867 211.922H285.398C285.393 211.411 285.312 210.964 285.156 210.578C285.005 210.188 284.773 209.885 284.461 209.672C284.148 209.453 283.747 209.344 283.258 209.344ZM296.32 208.297C297.341 208.297 298.099 208.526 298.594 208.984C299.089 209.443 299.336 210.174 299.336 211.18V217H298.391L298.141 215.734H298.078C297.839 216.047 297.589 216.31 297.328 216.523C297.068 216.732 296.766 216.891 296.422 217C296.083 217.104 295.667 217.156 295.172 217.156C294.651 217.156 294.188 217.065 293.781 216.883C293.38 216.701 293.062 216.424 292.828 216.055C292.599 215.685 292.484 215.216 292.484 214.648C292.484 213.794 292.823 213.138 293.5 212.68C294.177 212.221 295.208 211.971 296.594 211.93L298.07 211.867V211.344C298.07 210.604 297.911 210.086 297.594 209.789C297.276 209.492 296.828 209.344 296.25 209.344C295.802 209.344 295.375 209.409 294.969 209.539C294.562 209.669 294.177 209.823 293.812 210L293.414 209.016C293.799 208.818 294.242 208.648 294.742 208.508C295.242 208.367 295.768 208.297 296.32 208.297ZM298.055 212.781L296.75 212.836C295.682 212.878 294.93 213.052 294.492 213.359C294.055 213.667 293.836 214.102 293.836 214.664C293.836 215.154 293.984 215.516 294.281 215.75C294.578 215.984 294.971 216.102 295.461 216.102C296.221 216.102 296.844 215.891 297.328 215.469C297.812 215.047 298.055 214.414 298.055 213.57V212.781ZM303.305 204.844V208.477C303.305 208.685 303.299 208.896 303.289 209.109C303.279 209.318 303.26 209.51 303.234 209.688H303.32C303.497 209.385 303.721 209.133 303.992 208.93C304.268 208.721 304.581 208.565 304.93 208.461C305.279 208.352 305.648 208.297 306.039 208.297C306.727 208.297 307.299 208.406 307.758 208.625C308.221 208.844 308.568 209.182 308.797 209.641C309.031 210.099 309.148 210.693 309.148 211.422V217H307.867V211.508C307.867 210.794 307.703 210.26 307.375 209.906C307.052 209.552 306.555 209.375 305.883 209.375C305.247 209.375 304.74 209.497 304.359 209.742C303.984 209.982 303.714 210.336 303.547 210.805C303.385 211.273 303.305 211.846 303.305 212.523V217H302.008V204.844H303.305ZM319.203 212.703C319.203 213.406 319.112 214.034 318.93 214.586C318.747 215.138 318.484 215.604 318.141 215.984C317.797 216.365 317.38 216.656 316.891 216.859C316.406 217.057 315.857 217.156 315.242 217.156C314.669 217.156 314.143 217.057 313.664 216.859C313.19 216.656 312.779 216.365 312.43 215.984C312.086 215.604 311.818 215.138 311.625 214.586C311.438 214.034 311.344 213.406 311.344 212.703C311.344 211.766 311.503 210.969 311.82 210.312C312.138 209.651 312.591 209.148 313.18 208.805C313.773 208.456 314.479 208.281 315.297 208.281C316.078 208.281 316.76 208.456 317.344 208.805C317.932 209.154 318.388 209.659 318.711 210.32C319.039 210.977 319.203 211.771 319.203 212.703ZM312.688 212.703C312.688 213.391 312.779 213.987 312.961 214.492C313.143 214.997 313.424 215.388 313.805 215.664C314.185 215.94 314.674 216.078 315.273 216.078C315.867 216.078 316.354 215.94 316.734 215.664C317.12 215.388 317.404 214.997 317.586 214.492C317.768 213.987 317.859 213.391 317.859 212.703C317.859 212.021 317.768 211.432 317.586 210.938C317.404 210.438 317.122 210.052 316.742 209.781C316.362 209.51 315.87 209.375 315.266 209.375C314.375 209.375 313.721 209.669 313.305 210.258C312.893 210.846 312.688 211.661 312.688 212.703ZM325.336 208.281C325.508 208.281 325.688 208.292 325.875 208.312C326.062 208.328 326.229 208.352 326.375 208.383L326.211 209.586C326.07 209.549 325.914 209.521 325.742 209.5C325.57 209.479 325.409 209.469 325.258 209.469C324.914 209.469 324.589 209.539 324.281 209.68C323.979 209.815 323.714 210.013 323.484 210.273C323.255 210.529 323.076 210.839 322.945 211.203C322.815 211.562 322.75 211.964 322.75 212.406V217H321.445V208.438H322.523L322.664 210.016H322.719C322.896 209.698 323.109 209.409 323.359 209.148C323.609 208.883 323.898 208.672 324.227 208.516C324.56 208.359 324.93 208.281 325.336 208.281ZM331.883 208.281C332.055 208.281 332.234 208.292 332.422 208.312C332.609 208.328 332.776 208.352 332.922 208.383L332.758 209.586C332.617 209.549 332.461 209.521 332.289 209.5C332.117 209.479 331.956 209.469 331.805 209.469C331.461 209.469 331.135 209.539 330.828 209.68C330.526 209.815 330.26 210.013 330.031 210.273C329.802 210.529 329.622 210.839 329.492 211.203C329.362 211.562 329.297 211.964 329.297 212.406V217H327.992V208.438H329.07L329.211 210.016H329.266C329.443 209.698 329.656 209.409 329.906 209.148C330.156 208.883 330.445 208.672 330.773 208.516C331.107 208.359 331.477 208.281 331.883 208.281ZM337.742 208.297C338.763 208.297 339.521 208.526 340.016 208.984C340.51 209.443 340.758 210.174 340.758 211.18V217H339.812L339.562 215.734H339.5C339.26 216.047 339.01 216.31 338.75 216.523C338.49 216.732 338.188 216.891 337.844 217C337.505 217.104 337.089 217.156 336.594 217.156C336.073 217.156 335.609 217.065 335.203 216.883C334.802 216.701 334.484 216.424 334.25 216.055C334.021 215.685 333.906 215.216 333.906 214.648C333.906 213.794 334.245 213.138 334.922 212.68C335.599 212.221 336.63 211.971 338.016 211.93L339.492 211.867V211.344C339.492 210.604 339.333 210.086 339.016 209.789C338.698 209.492 338.25 209.344 337.672 209.344C337.224 209.344 336.797 209.409 336.391 209.539C335.984 209.669 335.599 209.823 335.234 210L334.836 209.016C335.221 208.818 335.664 208.648 336.164 208.508C336.664 208.367 337.19 208.297 337.742 208.297ZM339.477 212.781L338.172 212.836C337.104 212.878 336.352 213.052 335.914 213.359C335.477 213.667 335.258 214.102 335.258 214.664C335.258 215.154 335.406 215.516 335.703 215.75C336 215.984 336.393 216.102 336.883 216.102C337.643 216.102 338.266 215.891 338.75 215.469C339.234 215.047 339.477 214.414 339.477 213.57V212.781ZM347.484 208.281C348.5 208.281 349.268 208.531 349.789 209.031C350.31 209.526 350.57 210.323 350.57 211.422V217H349.289V211.508C349.289 210.794 349.125 210.26 348.797 209.906C348.474 209.552 347.977 209.375 347.305 209.375C346.357 209.375 345.69 209.643 345.305 210.18C344.919 210.716 344.727 211.495 344.727 212.516V217H343.43V208.438H344.477L344.672 209.672H344.742C344.924 209.37 345.156 209.117 345.438 208.914C345.719 208.706 346.034 208.549 346.383 208.445C346.732 208.336 347.099 208.281 347.484 208.281ZM358.703 217H357.398V204.844H358.703V217ZM368.828 212.703C368.828 213.406 368.737 214.034 368.555 214.586C368.372 215.138 368.109 215.604 367.766 215.984C367.422 216.365 367.005 216.656 366.516 216.859C366.031 217.057 365.482 217.156 364.867 217.156C364.294 217.156 363.768 217.057 363.289 216.859C362.815 216.656 362.404 216.365 362.055 215.984C361.711 215.604 361.443 215.138 361.25 214.586C361.062 214.034 360.969 213.406 360.969 212.703C360.969 211.766 361.128 210.969 361.445 210.312C361.763 209.651 362.216 209.148 362.805 208.805C363.398 208.456 364.104 208.281 364.922 208.281C365.703 208.281 366.385 208.456 366.969 208.805C367.557 209.154 368.013 209.659 368.336 210.32C368.664 210.977 368.828 211.771 368.828 212.703ZM362.312 212.703C362.312 213.391 362.404 213.987 362.586 214.492C362.768 214.997 363.049 215.388 363.43 215.664C363.81 215.94 364.299 216.078 364.898 216.078C365.492 216.078 365.979 215.94 366.359 215.664C366.745 215.388 367.029 214.997 367.211 214.492C367.393 213.987 367.484 213.391 367.484 212.703C367.484 212.021 367.393 211.432 367.211 210.938C367.029 210.438 366.747 210.052 366.367 209.781C365.987 209.51 365.495 209.375 364.891 209.375C364 209.375 363.346 209.669 362.93 210.258C362.518 210.846 362.312 211.661 362.312 212.703ZM376.609 214.656C376.609 215.203 376.471 215.664 376.195 216.039C375.924 216.409 375.534 216.688 375.023 216.875C374.518 217.062 373.914 217.156 373.211 217.156C372.612 217.156 372.094 217.109 371.656 217.016C371.219 216.922 370.836 216.789 370.508 216.617V215.422C370.857 215.594 371.273 215.75 371.758 215.891C372.242 216.031 372.737 216.102 373.242 216.102C373.982 216.102 374.518 215.982 374.852 215.742C375.185 215.503 375.352 215.177 375.352 214.766C375.352 214.531 375.284 214.326 375.148 214.148C375.018 213.966 374.797 213.792 374.484 213.625C374.172 213.453 373.74 213.266 373.188 213.062C372.641 212.854 372.167 212.648 371.766 212.445C371.37 212.237 371.062 211.984 370.844 211.688C370.63 211.391 370.523 211.005 370.523 210.531C370.523 209.807 370.815 209.253 371.398 208.867C371.987 208.477 372.758 208.281 373.711 208.281C374.227 208.281 374.708 208.333 375.156 208.438C375.609 208.536 376.031 208.672 376.422 208.844L375.984 209.883C375.63 209.732 375.253 209.604 374.852 209.5C374.451 209.396 374.042 209.344 373.625 209.344C373.026 209.344 372.565 209.443 372.242 209.641C371.924 209.839 371.766 210.109 371.766 210.453C371.766 210.719 371.839 210.938 371.984 211.109C372.135 211.281 372.375 211.443 372.703 211.594C373.031 211.745 373.464 211.922 374 212.125C374.536 212.323 375 212.529 375.391 212.742C375.781 212.951 376.081 213.206 376.289 213.508C376.503 213.805 376.609 214.188 376.609 214.656ZM384.734 217L381.484 208.438H382.875L384.758 213.617C384.888 213.971 385.021 214.362 385.156 214.789C385.292 215.216 385.385 215.56 385.438 215.82H385.492C385.555 215.56 385.659 215.216 385.805 214.789C385.951 214.357 386.083 213.966 386.203 213.617L388.086 208.438H389.477L386.219 217H384.734ZM394.148 208.281C394.878 208.281 395.503 208.443 396.023 208.766C396.544 209.089 396.943 209.542 397.219 210.125C397.495 210.703 397.633 211.38 397.633 212.156V212.961H391.719C391.734 213.966 391.984 214.732 392.469 215.258C392.953 215.784 393.635 216.047 394.516 216.047C395.057 216.047 395.536 215.997 395.953 215.898C396.37 215.799 396.802 215.654 397.25 215.461V216.602C396.818 216.794 396.388 216.935 395.961 217.023C395.539 217.112 395.039 217.156 394.461 217.156C393.638 217.156 392.919 216.99 392.305 216.656C391.695 216.318 391.221 215.823 390.883 215.172C390.544 214.521 390.375 213.724 390.375 212.781C390.375 211.859 390.529 211.062 390.836 210.391C391.148 209.714 391.586 209.193 392.148 208.828C392.716 208.464 393.383 208.281 394.148 208.281ZM394.133 209.344C393.44 209.344 392.888 209.57 392.477 210.023C392.065 210.477 391.82 211.109 391.742 211.922H396.273C396.268 211.411 396.188 210.964 396.031 210.578C395.88 210.188 395.648 209.885 395.336 209.672C395.023 209.453 394.622 209.344 394.133 209.344ZM403.266 217.156C402.495 217.156 401.815 216.997 401.227 216.68C400.638 216.362 400.18 215.878 399.852 215.227C399.523 214.576 399.359 213.755 399.359 212.766C399.359 211.729 399.531 210.883 399.875 210.227C400.224 209.565 400.703 209.076 401.312 208.758C401.922 208.44 402.615 208.281 403.391 208.281C403.818 208.281 404.229 208.326 404.625 208.414C405.026 208.497 405.354 208.604 405.609 208.734L405.219 209.82C404.958 209.716 404.656 209.622 404.312 209.539C403.974 209.456 403.656 209.414 403.359 209.414C402.766 209.414 402.271 209.542 401.875 209.797C401.484 210.052 401.19 210.427 400.992 210.922C400.799 211.417 400.703 212.026 400.703 212.75C400.703 213.443 400.797 214.034 400.984 214.523C401.177 215.013 401.461 215.388 401.836 215.648C402.216 215.904 402.69 216.031 403.258 216.031C403.711 216.031 404.12 215.984 404.484 215.891C404.849 215.792 405.18 215.677 405.477 215.547V216.703C405.19 216.849 404.87 216.961 404.516 217.039C404.167 217.117 403.75 217.156 403.266 217.156ZM408.805 208.438V217H407.508V208.438H408.805ZM408.172 205.234C408.385 205.234 408.568 205.305 408.719 205.445C408.875 205.581 408.953 205.794 408.953 206.086C408.953 206.372 408.875 206.586 408.719 206.727C408.568 206.867 408.385 206.938 408.172 206.938C407.948 206.938 407.76 206.867 407.609 206.727C407.464 206.586 407.391 206.372 407.391 206.086C407.391 205.794 407.464 205.581 407.609 205.445C407.76 205.305 407.948 205.234 408.172 205.234ZM415.609 208.281C416.625 208.281 417.393 208.531 417.914 209.031C418.435 209.526 418.695 210.323 418.695 211.422V217H417.414V211.508C417.414 210.794 417.25 210.26 416.922 209.906C416.599 209.552 416.102 209.375 415.43 209.375C414.482 209.375 413.815 209.643 413.43 210.18C413.044 210.716 412.852 211.495 412.852 212.516V217H411.555V208.438H412.602L412.797 209.672H412.867C413.049 209.37 413.281 209.117 413.562 208.914C413.844 208.706 414.159 208.549 414.508 208.445C414.857 208.336 415.224 208.281 415.609 208.281ZM428.75 212.703C428.75 213.406 428.659 214.034 428.477 214.586C428.294 215.138 428.031 215.604 427.688 215.984C427.344 216.365 426.927 216.656 426.438 216.859C425.953 217.057 425.404 217.156 424.789 217.156C424.216 217.156 423.69 217.057 423.211 216.859C422.737 216.656 422.326 216.365 421.977 215.984C421.633 215.604 421.365 215.138 421.172 214.586C420.984 214.034 420.891 213.406 420.891 212.703C420.891 211.766 421.049 210.969 421.367 210.312C421.685 209.651 422.138 209.148 422.727 208.805C423.32 208.456 424.026 208.281 424.844 208.281C425.625 208.281 426.307 208.456 426.891 208.805C427.479 209.154 427.935 209.659 428.258 210.32C428.586 210.977 428.75 211.771 428.75 212.703ZM422.234 212.703C422.234 213.391 422.326 213.987 422.508 214.492C422.69 214.997 422.971 215.388 423.352 215.664C423.732 215.94 424.221 216.078 424.82 216.078C425.414 216.078 425.901 215.94 426.281 215.664C426.667 215.388 426.951 214.997 427.133 214.492C427.315 213.987 427.406 213.391 427.406 212.703C427.406 212.021 427.315 211.432 427.133 210.938C426.951 210.438 426.669 210.052 426.289 209.781C425.909 209.51 425.417 209.375 424.812 209.375C423.922 209.375 423.268 209.669 422.852 210.258C422.44 210.846 422.234 211.661 422.234 212.703ZM436.531 214.656C436.531 215.203 436.393 215.664 436.117 216.039C435.846 216.409 435.456 216.688 434.945 216.875C434.44 217.062 433.836 217.156 433.133 217.156C432.534 217.156 432.016 217.109 431.578 217.016C431.141 216.922 430.758 216.789 430.43 216.617V215.422C430.779 215.594 431.195 215.75 431.68 215.891C432.164 216.031 432.659 216.102 433.164 216.102C433.904 216.102 434.44 215.982 434.773 215.742C435.107 215.503 435.273 215.177 435.273 214.766C435.273 214.531 435.206 214.326 435.07 214.148C434.94 213.966 434.719 213.792 434.406 213.625C434.094 213.453 433.661 213.266 433.109 213.062C432.562 212.854 432.089 212.648 431.688 212.445C431.292 212.237 430.984 211.984 430.766 211.688C430.552 211.391 430.445 211.005 430.445 210.531C430.445 209.807 430.737 209.253 431.32 208.867C431.909 208.477 432.68 208.281 433.633 208.281C434.148 208.281 434.63 208.333 435.078 208.438C435.531 208.536 435.953 208.672 436.344 208.844L435.906 209.883C435.552 209.732 435.174 209.604 434.773 209.5C434.372 209.396 433.964 209.344 433.547 209.344C432.948 209.344 432.487 209.443 432.164 209.641C431.846 209.839 431.688 210.109 431.688 210.453C431.688 210.719 431.76 210.938 431.906 211.109C432.057 211.281 432.297 211.443 432.625 211.594C432.953 211.745 433.385 211.922 433.922 212.125C434.458 212.323 434.922 212.529 435.312 212.742C435.703 212.951 436.003 213.206 436.211 213.508C436.424 213.805 436.531 214.188 436.531 214.656ZM441.422 208.438H442.812L444.703 213.406C444.812 213.698 444.914 213.979 445.008 214.25C445.102 214.516 445.185 214.771 445.258 215.016C445.331 215.26 445.388 215.497 445.43 215.727H445.484C445.557 215.466 445.661 215.125 445.797 214.703C445.932 214.276 446.078 213.841 446.234 213.398L448.023 208.438H449.422L445.695 218.258C445.497 218.784 445.266 219.242 445 219.633C444.74 220.023 444.422 220.323 444.047 220.531C443.672 220.745 443.219 220.852 442.688 220.852C442.443 220.852 442.227 220.836 442.039 220.805C441.852 220.779 441.69 220.747 441.555 220.711V219.672C441.669 219.698 441.807 219.721 441.969 219.742C442.135 219.763 442.307 219.773 442.484 219.773C442.807 219.773 443.086 219.711 443.32 219.586C443.56 219.466 443.766 219.289 443.938 219.055C444.109 218.82 444.258 218.542 444.383 218.219L444.852 217.016L441.422 208.438ZM456.25 217H454.945V204.844H456.25V217ZM462.195 208.297C463.216 208.297 463.974 208.526 464.469 208.984C464.964 209.443 465.211 210.174 465.211 211.18V217H464.266L464.016 215.734H463.953C463.714 216.047 463.464 216.31 463.203 216.523C462.943 216.732 462.641 216.891 462.297 217C461.958 217.104 461.542 217.156 461.047 217.156C460.526 217.156 460.062 217.065 459.656 216.883C459.255 216.701 458.938 216.424 458.703 216.055C458.474 215.685 458.359 215.216 458.359 214.648C458.359 213.794 458.698 213.138 459.375 212.68C460.052 212.221 461.083 211.971 462.469 211.93L463.945 211.867V211.344C463.945 210.604 463.786 210.086 463.469 209.789C463.151 209.492 462.703 209.344 462.125 209.344C461.677 209.344 461.25 209.409 460.844 209.539C460.438 209.669 460.052 209.823 459.688 210L459.289 209.016C459.674 208.818 460.117 208.648 460.617 208.508C461.117 208.367 461.643 208.297 462.195 208.297ZM463.93 212.781L462.625 212.836C461.557 212.878 460.805 213.052 460.367 213.359C459.93 213.667 459.711 214.102 459.711 214.664C459.711 215.154 459.859 215.516 460.156 215.75C460.453 215.984 460.846 216.102 461.336 216.102C462.096 216.102 462.719 215.891 463.203 215.469C463.688 215.047 463.93 214.414 463.93 213.57V212.781ZM182.57 232.297C183.591 232.297 184.349 232.526 184.844 232.984C185.339 233.443 185.586 234.174 185.586 235.18V241H184.641L184.391 239.734H184.328C184.089 240.047 183.839 240.31 183.578 240.523C183.318 240.732 183.016 240.891 182.672 241C182.333 241.104 181.917 241.156 181.422 241.156C180.901 241.156 180.438 241.065 180.031 240.883C179.63 240.701 179.312 240.424 179.078 240.055C178.849 239.685 178.734 239.216 178.734 238.648C178.734 237.794 179.073 237.138 179.75 236.68C180.427 236.221 181.458 235.971 182.844 235.93L184.32 235.867V235.344C184.32 234.604 184.161 234.086 183.844 233.789C183.526 233.492 183.078 233.344 182.5 233.344C182.052 233.344 181.625 233.409 181.219 233.539C180.812 233.669 180.427 233.823 180.062 234L179.664 233.016C180.049 232.818 180.492 232.648 180.992 232.508C181.492 232.367 182.018 232.297 182.57 232.297ZM184.305 236.781L183 236.836C181.932 236.878 181.18 237.052 180.742 237.359C180.305 237.667 180.086 238.102 180.086 238.664C180.086 239.154 180.234 239.516 180.531 239.75C180.828 239.984 181.221 240.102 181.711 240.102C182.471 240.102 183.094 239.891 183.578 239.469C184.062 239.047 184.305 238.414 184.305 237.57V236.781ZM191.305 241.156C190.221 241.156 189.362 240.786 188.727 240.047C188.096 239.307 187.781 238.208 187.781 236.75C187.781 235.276 188.104 234.164 188.75 233.414C189.396 232.659 190.255 232.281 191.328 232.281C191.781 232.281 192.177 232.341 192.516 232.461C192.854 232.581 193.146 232.742 193.391 232.945C193.635 233.143 193.841 233.37 194.008 233.625H194.102C194.081 233.464 194.06 233.242 194.039 232.961C194.018 232.68 194.008 232.451 194.008 232.273V228.844H195.305V241H194.258L194.062 239.781H194.008C193.846 240.036 193.641 240.268 193.391 240.477C193.146 240.685 192.852 240.852 192.508 240.977C192.169 241.096 191.768 241.156 191.305 241.156ZM191.508 240.078C192.424 240.078 193.073 239.818 193.453 239.297C193.833 238.776 194.023 238.003 194.023 236.977V236.742C194.023 235.654 193.841 234.818 193.477 234.234C193.117 233.651 192.461 233.359 191.508 233.359C190.711 233.359 190.115 233.667 189.719 234.281C189.323 234.891 189.125 235.724 189.125 236.781C189.125 237.833 189.32 238.646 189.711 239.219C190.107 239.792 190.706 240.078 191.508 240.078ZM207.352 232.281C208.294 232.281 209.005 232.529 209.484 233.023C209.964 233.513 210.203 234.302 210.203 235.391V241H208.922V235.453C208.922 234.76 208.771 234.242 208.469 233.898C208.172 233.549 207.729 233.375 207.141 233.375C206.312 233.375 205.711 233.615 205.336 234.094C204.961 234.573 204.773 235.279 204.773 236.211V241H203.484V235.453C203.484 234.99 203.417 234.604 203.281 234.297C203.151 233.99 202.953 233.76 202.688 233.609C202.427 233.453 202.096 233.375 201.695 233.375C201.128 233.375 200.672 233.492 200.328 233.727C199.984 233.961 199.734 234.31 199.578 234.773C199.427 235.232 199.352 235.797 199.352 236.469V241H198.055V232.438H199.102L199.297 233.648H199.367C199.539 233.352 199.755 233.102 200.016 232.898C200.276 232.695 200.568 232.542 200.891 232.438C201.214 232.333 201.557 232.281 201.922 232.281C202.573 232.281 203.117 232.404 203.555 232.648C203.997 232.888 204.318 233.255 204.516 233.75H204.586C204.867 233.255 205.253 232.888 205.742 232.648C206.232 232.404 206.768 232.281 207.352 232.281ZM214.164 232.438V241H212.867V232.438H214.164ZM213.531 229.234C213.745 229.234 213.927 229.305 214.078 229.445C214.234 229.581 214.312 229.794 214.312 230.086C214.312 230.372 214.234 230.586 214.078 230.727C213.927 230.867 213.745 230.938 213.531 230.938C213.307 230.938 213.12 230.867 212.969 230.727C212.823 230.586 212.75 230.372 212.75 230.086C212.75 229.794 212.823 229.581 212.969 229.445C213.12 229.305 213.307 229.234 213.531 229.234ZM220.969 232.281C221.984 232.281 222.753 232.531 223.273 233.031C223.794 233.526 224.055 234.323 224.055 235.422V241H222.773V235.508C222.773 234.794 222.609 234.26 222.281 233.906C221.958 233.552 221.461 233.375 220.789 233.375C219.841 233.375 219.174 233.643 218.789 234.18C218.404 234.716 218.211 235.495 218.211 236.516V241H216.914V232.438H217.961L218.156 233.672H218.227C218.409 233.37 218.641 233.117 218.922 232.914C219.203 232.706 219.518 232.549 219.867 232.445C220.216 232.336 220.583 232.281 220.969 232.281ZM228.023 232.438V241H226.727V232.438H228.023ZM227.391 229.234C227.604 229.234 227.786 229.305 227.938 229.445C228.094 229.581 228.172 229.794 228.172 230.086C228.172 230.372 228.094 230.586 227.938 230.727C227.786 230.867 227.604 230.938 227.391 230.938C227.167 230.938 226.979 230.867 226.828 230.727C226.682 230.586 226.609 230.372 226.609 230.086C226.609 229.794 226.682 229.581 226.828 229.445C226.979 229.305 227.167 229.234 227.391 229.234ZM236.312 238.656C236.312 239.203 236.174 239.664 235.898 240.039C235.628 240.409 235.237 240.688 234.727 240.875C234.221 241.062 233.617 241.156 232.914 241.156C232.315 241.156 231.797 241.109 231.359 241.016C230.922 240.922 230.539 240.789 230.211 240.617V239.422C230.56 239.594 230.977 239.75 231.461 239.891C231.945 240.031 232.44 240.102 232.945 240.102C233.685 240.102 234.221 239.982 234.555 239.742C234.888 239.503 235.055 239.177 235.055 238.766C235.055 238.531 234.987 238.326 234.852 238.148C234.721 237.966 234.5 237.792 234.188 237.625C233.875 237.453 233.443 237.266 232.891 237.062C232.344 236.854 231.87 236.648 231.469 236.445C231.073 236.237 230.766 235.984 230.547 235.688C230.333 235.391 230.227 235.005 230.227 234.531C230.227 233.807 230.518 233.253 231.102 232.867C231.69 232.477 232.461 232.281 233.414 232.281C233.93 232.281 234.411 232.333 234.859 232.438C235.312 232.536 235.734 232.672 236.125 232.844L235.688 233.883C235.333 233.732 234.956 233.604 234.555 233.5C234.154 233.396 233.745 233.344 233.328 233.344C232.729 233.344 232.268 233.443 231.945 233.641C231.628 233.839 231.469 234.109 231.469 234.453C231.469 234.719 231.542 234.938 231.688 235.109C231.839 235.281 232.078 235.443 232.406 235.594C232.734 235.745 233.167 235.922 233.703 236.125C234.24 236.323 234.703 236.529 235.094 236.742C235.484 236.951 235.784 237.206 235.992 237.508C236.206 237.805 236.312 238.188 236.312 238.656ZM241.164 240.094C241.378 240.094 241.596 240.076 241.82 240.039C242.044 240.003 242.227 239.958 242.367 239.906V240.914C242.216 240.982 242.005 241.039 241.734 241.086C241.469 241.133 241.208 241.156 240.953 241.156C240.5 241.156 240.089 241.078 239.719 240.922C239.349 240.76 239.052 240.49 238.828 240.109C238.609 239.729 238.5 239.203 238.5 238.531V233.453H237.281V232.82L238.508 232.312L239.023 230.453H239.805V232.438H242.312V233.453H239.805V238.492C239.805 239.029 239.927 239.43 240.172 239.695C240.422 239.961 240.753 240.094 241.164 240.094ZM247.992 232.281C248.164 232.281 248.344 232.292 248.531 232.312C248.719 232.328 248.885 232.352 249.031 232.383L248.867 233.586C248.727 233.549 248.57 233.521 248.398 233.5C248.227 233.479 248.065 233.469 247.914 233.469C247.57 233.469 247.245 233.539 246.938 233.68C246.635 233.815 246.37 234.013 246.141 234.273C245.911 234.529 245.732 234.839 245.602 235.203C245.471 235.562 245.406 235.964 245.406 236.406V241H244.102V232.438H245.18L245.32 234.016H245.375C245.552 233.698 245.766 233.409 246.016 233.148C246.266 232.883 246.555 232.672 246.883 232.516C247.216 232.359 247.586 232.281 247.992 232.281ZM253.852 232.297C254.872 232.297 255.63 232.526 256.125 232.984C256.62 233.443 256.867 234.174 256.867 235.18V241H255.922L255.672 239.734H255.609C255.37 240.047 255.12 240.31 254.859 240.523C254.599 240.732 254.297 240.891 253.953 241C253.615 241.104 253.198 241.156 252.703 241.156C252.182 241.156 251.719 241.065 251.312 240.883C250.911 240.701 250.594 240.424 250.359 240.055C250.13 239.685 250.016 239.216 250.016 238.648C250.016 237.794 250.354 237.138 251.031 236.68C251.708 236.221 252.74 235.971 254.125 235.93L255.602 235.867V235.344C255.602 234.604 255.443 234.086 255.125 233.789C254.807 233.492 254.359 233.344 253.781 233.344C253.333 233.344 252.906 233.409 252.5 233.539C252.094 233.669 251.708 233.823 251.344 234L250.945 233.016C251.331 232.818 251.773 232.648 252.273 232.508C252.773 232.367 253.299 232.297 253.852 232.297ZM255.586 236.781L254.281 236.836C253.214 236.878 252.461 237.052 252.023 237.359C251.586 237.667 251.367 238.102 251.367 238.664C251.367 239.154 251.516 239.516 251.812 239.75C252.109 239.984 252.503 240.102 252.992 240.102C253.753 240.102 254.375 239.891 254.859 239.469C255.344 239.047 255.586 238.414 255.586 237.57V236.781ZM262.969 241.156C262.198 241.156 261.518 240.997 260.93 240.68C260.341 240.362 259.883 239.878 259.555 239.227C259.227 238.576 259.062 237.755 259.062 236.766C259.062 235.729 259.234 234.883 259.578 234.227C259.927 233.565 260.406 233.076 261.016 232.758C261.625 232.44 262.318 232.281 263.094 232.281C263.521 232.281 263.932 232.326 264.328 232.414C264.729 232.497 265.057 232.604 265.312 232.734L264.922 233.82C264.661 233.716 264.359 233.622 264.016 233.539C263.677 233.456 263.359 233.414 263.062 233.414C262.469 233.414 261.974 233.542 261.578 233.797C261.188 234.052 260.893 234.427 260.695 234.922C260.503 235.417 260.406 236.026 260.406 236.75C260.406 237.443 260.5 238.034 260.688 238.523C260.88 239.013 261.164 239.388 261.539 239.648C261.919 239.904 262.393 240.031 262.961 240.031C263.414 240.031 263.823 239.984 264.188 239.891C264.552 239.792 264.883 239.677 265.18 239.547V240.703C264.893 240.849 264.573 240.961 264.219 241.039C263.87 241.117 263.453 241.156 262.969 241.156ZM268.508 232.438V241H267.211V232.438H268.508ZM267.875 229.234C268.089 229.234 268.271 229.305 268.422 229.445C268.578 229.581 268.656 229.794 268.656 230.086C268.656 230.372 268.578 230.586 268.422 230.727C268.271 230.867 268.089 230.938 267.875 230.938C267.651 230.938 267.464 230.867 267.312 230.727C267.167 230.586 267.094 230.372 267.094 230.086C267.094 229.794 267.167 229.581 267.312 229.445C267.464 229.305 267.651 229.234 267.875 229.234ZM278.641 236.703C278.641 237.406 278.549 238.034 278.367 238.586C278.185 239.138 277.922 239.604 277.578 239.984C277.234 240.365 276.818 240.656 276.328 240.859C275.844 241.057 275.294 241.156 274.68 241.156C274.107 241.156 273.581 241.057 273.102 240.859C272.628 240.656 272.216 240.365 271.867 239.984C271.523 239.604 271.255 239.138 271.062 238.586C270.875 238.034 270.781 237.406 270.781 236.703C270.781 235.766 270.94 234.969 271.258 234.312C271.576 233.651 272.029 233.148 272.617 232.805C273.211 232.456 273.917 232.281 274.734 232.281C275.516 232.281 276.198 232.456 276.781 232.805C277.37 233.154 277.826 233.659 278.148 234.32C278.477 234.977 278.641 235.771 278.641 236.703ZM272.125 236.703C272.125 237.391 272.216 237.987 272.398 238.492C272.581 238.997 272.862 239.388 273.242 239.664C273.622 239.94 274.112 240.078 274.711 240.078C275.305 240.078 275.792 239.94 276.172 239.664C276.557 239.388 276.841 238.997 277.023 238.492C277.206 237.987 277.297 237.391 277.297 236.703C277.297 236.021 277.206 235.432 277.023 234.938C276.841 234.438 276.56 234.052 276.18 233.781C275.799 233.51 275.307 233.375 274.703 233.375C273.812 233.375 273.159 233.669 272.742 234.258C272.331 234.846 272.125 235.661 272.125 236.703ZM284.938 232.281C285.953 232.281 286.721 232.531 287.242 233.031C287.763 233.526 288.023 234.323 288.023 235.422V241H286.742V235.508C286.742 234.794 286.578 234.26 286.25 233.906C285.927 233.552 285.43 233.375 284.758 233.375C283.81 233.375 283.143 233.643 282.758 234.18C282.372 234.716 282.18 235.495 282.18 236.516V241H280.883V232.438H281.93L282.125 233.672H282.195C282.378 233.37 282.609 233.117 282.891 232.914C283.172 232.706 283.487 232.549 283.836 232.445C284.185 232.336 284.552 232.281 284.938 232.281ZM298.031 229.578C299.505 229.578 300.581 229.867 301.258 230.445C301.94 231.018 302.281 231.841 302.281 232.914C302.281 233.398 302.201 233.859 302.039 234.297C301.883 234.729 301.628 235.112 301.273 235.445C300.919 235.773 300.453 236.034 299.875 236.227C299.302 236.414 298.599 236.508 297.766 236.508H296.375V241H295.047V229.578H298.031ZM297.906 230.711H296.375V235.367H297.617C298.346 235.367 298.953 235.289 299.438 235.133C299.927 234.977 300.294 234.724 300.539 234.375C300.784 234.021 300.906 233.552 300.906 232.969C300.906 232.208 300.664 231.643 300.18 231.273C299.695 230.898 298.938 230.711 297.906 230.711ZM311.547 232.438V241H310.484L310.297 239.797H310.227C310.049 240.094 309.82 240.344 309.539 240.547C309.258 240.75 308.94 240.901 308.586 241C308.237 241.104 307.865 241.156 307.469 241.156C306.792 241.156 306.224 241.047 305.766 240.828C305.307 240.609 304.961 240.271 304.727 239.812C304.497 239.354 304.383 238.766 304.383 238.047V232.438H305.695V237.953C305.695 238.667 305.857 239.201 306.18 239.555C306.503 239.904 306.995 240.078 307.656 240.078C308.292 240.078 308.797 239.958 309.172 239.719C309.552 239.479 309.826 239.128 309.992 238.664C310.159 238.195 310.242 237.622 310.242 236.945V232.438H311.547ZM310.281 228.742V228.898C310.177 229.049 310.034 229.232 309.852 229.445C309.674 229.654 309.477 229.875 309.258 230.109C309.039 230.339 308.818 230.557 308.594 230.766C308.375 230.974 308.172 231.154 307.984 231.305H307.117V231.117C307.284 230.919 307.466 230.682 307.664 230.406C307.862 230.125 308.055 229.839 308.242 229.547C308.43 229.25 308.586 228.982 308.711 228.742H310.281ZM315.586 228.844V231.883C315.586 232.232 315.576 232.57 315.555 232.898C315.539 233.227 315.526 233.482 315.516 233.664H315.586C315.82 233.279 316.159 232.953 316.602 232.688C317.044 232.422 317.609 232.289 318.297 232.289C319.37 232.289 320.224 232.661 320.859 233.406C321.5 234.146 321.82 235.247 321.82 236.711C321.82 237.674 321.674 238.487 321.383 239.148C321.091 239.81 320.68 240.31 320.148 240.648C319.617 240.987 318.99 241.156 318.266 241.156C317.589 241.156 317.031 241.031 316.594 240.781C316.161 240.526 315.828 240.216 315.594 239.852H315.492L315.227 241H314.289V228.844H315.586ZM318.086 233.375C317.466 233.375 316.974 233.497 316.609 233.742C316.245 233.982 315.982 234.346 315.82 234.836C315.664 235.32 315.586 235.935 315.586 236.68V236.75C315.586 237.828 315.766 238.654 316.125 239.227C316.484 239.794 317.138 240.078 318.086 240.078C318.883 240.078 319.479 239.786 319.875 239.203C320.276 238.62 320.477 237.786 320.477 236.703C320.477 235.599 320.279 234.768 319.883 234.211C319.492 233.654 318.893 233.375 318.086 233.375ZM325.391 241H324.086V228.844H325.391V241ZM329.43 232.438V241H328.133V232.438H329.43ZM328.797 229.234C329.01 229.234 329.193 229.305 329.344 229.445C329.5 229.581 329.578 229.794 329.578 230.086C329.578 230.372 329.5 230.586 329.344 230.727C329.193 230.867 329.01 230.938 328.797 230.938C328.573 230.938 328.385 230.867 328.234 230.727C328.089 230.586 328.016 230.372 328.016 230.086C328.016 229.794 328.089 229.581 328.234 229.445C328.385 229.305 328.573 229.234 328.797 229.234ZM335.609 241.156C334.839 241.156 334.159 240.997 333.57 240.68C332.982 240.362 332.523 239.878 332.195 239.227C331.867 238.576 331.703 237.755 331.703 236.766C331.703 235.729 331.875 234.883 332.219 234.227C332.568 233.565 333.047 233.076 333.656 232.758C334.266 232.44 334.958 232.281 335.734 232.281C336.161 232.281 336.573 232.326 336.969 232.414C337.37 232.497 337.698 232.604 337.953 232.734L337.562 233.82C337.302 233.716 337 233.622 336.656 233.539C336.318 233.456 336 233.414 335.703 233.414C335.109 233.414 334.615 233.542 334.219 233.797C333.828 234.052 333.534 234.427 333.336 234.922C333.143 235.417 333.047 236.026 333.047 236.75C333.047 237.443 333.141 238.034 333.328 238.523C333.521 239.013 333.805 239.388 334.18 239.648C334.56 239.904 335.034 240.031 335.602 240.031C336.055 240.031 336.464 239.984 336.828 239.891C337.193 239.792 337.523 239.677 337.82 239.547V240.703C337.534 240.849 337.214 240.961 336.859 241.039C336.51 241.117 336.094 241.156 335.609 241.156ZM343.055 232.297C344.076 232.297 344.833 232.526 345.328 232.984C345.823 233.443 346.07 234.174 346.07 235.18V241H345.125L344.875 239.734H344.812C344.573 240.047 344.323 240.31 344.062 240.523C343.802 240.732 343.5 240.891 343.156 241C342.818 241.104 342.401 241.156 341.906 241.156C341.385 241.156 340.922 241.065 340.516 240.883C340.115 240.701 339.797 240.424 339.562 240.055C339.333 239.685 339.219 239.216 339.219 238.648C339.219 237.794 339.557 237.138 340.234 236.68C340.911 236.221 341.943 235.971 343.328 235.93L344.805 235.867V235.344C344.805 234.604 344.646 234.086 344.328 233.789C344.01 233.492 343.562 233.344 342.984 233.344C342.536 233.344 342.109 233.409 341.703 233.539C341.297 233.669 340.911 233.823 340.547 234L340.148 233.016C340.534 232.818 340.977 232.648 341.477 232.508C341.977 232.367 342.503 232.297 343.055 232.297ZM344.789 236.781L343.484 236.836C342.417 236.878 341.664 237.052 341.227 237.359C340.789 237.667 340.57 238.102 340.57 238.664C340.57 239.154 340.719 239.516 341.016 239.75C341.312 239.984 341.706 240.102 342.195 240.102C342.956 240.102 343.578 239.891 344.062 239.469C344.547 239.047 344.789 238.414 344.789 237.57V236.781Z" fill="#38485C"/>
</svg>
