<svg width="728" height="256" viewBox="0 0 728 256" fill="none" xmlns="http://www.w3.org/2000/svg">
<g clip-path="url(#clip0_741_6548)">
<rect width="728" height="256" rx="8" fill="white"/>
<rect x="30.9939" y="35.9939" width="666.012" height="249.065" rx="9.00606" stroke="#E6EBF0" stroke-width="2.01212"/>
<mask id="path-4-inside-1_741_6548" fill="white">
<path d="M32 45.0485C32 40.6034 35.6034 37 40.0485 37H687.952C692.397 37 696 40.6034 696 45.0485V93.6311H32V45.0485Z"/>
</mask>
<path d="M32 45.0485C32 40.6034 35.6034 37 40.0485 37H687.952C692.397 37 696 40.6034 696 45.0485V93.6311H32V45.0485Z" fill="white"/>
<path d="M32 37H696H32ZM696 96.4627H32V90.7996H696V96.4627ZM32 93.6311V37V93.6311ZM696 37V93.6311V37Z" fill="#FFCC00" mask="url(#path-4-inside-1_741_6548)"/>
<path d="M32 93.6311H696V276.005C696 280.45 692.397 284.053 687.952 284.053H40.0485C35.6034 284.053 32 280.45 32 276.005V93.6311Z" fill="#F3F6F9"/>
<g clip-path="url(#clip1_741_6548)">
<path d="M75.5674 126.631V118.636H76.4971V126.631H75.5674ZM81.3971 120.528C82.108 120.528 82.6458 120.703 83.0104 121.053C83.3749 121.399 83.5572 121.957 83.5572 122.726V126.631H82.6604V122.787C82.6604 122.287 82.5455 121.913 82.3158 121.665C82.0898 121.418 81.7416 121.294 81.2713 121.294C80.6077 121.294 80.1411 121.481 79.8713 121.857C79.6015 122.232 79.4666 122.777 79.4666 123.492V126.631H78.5588V120.637H79.2916L79.4283 121.501H79.4775C79.6051 121.29 79.7674 121.113 79.9643 120.971C80.1611 120.825 80.3817 120.716 80.626 120.643C80.8702 120.566 81.1273 120.528 81.3971 120.528ZM86.3354 120.637V126.631H85.4275V120.637H86.3354ZM85.8924 118.395C86.0419 118.395 86.1695 118.444 86.2752 118.543C86.3846 118.638 86.4393 118.787 86.4393 118.991C86.4393 119.192 86.3846 119.341 86.2752 119.44C86.1695 119.538 86.0419 119.587 85.8924 119.587C85.7356 119.587 85.6044 119.538 85.4986 119.44C85.3965 119.341 85.3455 119.192 85.3455 118.991C85.3455 118.787 85.3965 118.638 85.4986 118.543C85.6044 118.444 85.7356 118.395 85.8924 118.395ZM90.6611 126.74C90.1215 126.74 89.6458 126.629 89.2338 126.407C88.8218 126.184 88.501 125.845 88.2713 125.39C88.0416 124.934 87.9268 124.36 87.9268 123.667C87.9268 122.942 88.0471 122.349 88.2877 121.89C88.532 121.427 88.8674 121.084 89.2939 120.862C89.7205 120.639 90.2054 120.528 90.7486 120.528C91.0476 120.528 91.3356 120.559 91.6127 120.621C91.8934 120.679 92.1231 120.754 92.3018 120.845L92.0283 121.605C91.846 121.532 91.6346 121.467 91.3939 121.408C91.157 121.35 90.9346 121.321 90.7268 121.321C90.3111 121.321 89.9648 121.41 89.6877 121.589C89.4143 121.768 89.2083 122.03 89.0697 122.376C88.9348 122.723 88.8674 123.149 88.8674 123.656C88.8674 124.141 88.933 124.555 89.0643 124.898C89.1992 125.24 89.3979 125.503 89.6604 125.685C89.9265 125.864 90.2583 125.953 90.6557 125.953C90.9729 125.953 91.259 125.92 91.5143 125.855C91.7695 125.785 92.001 125.705 92.2088 125.614V126.423C92.0083 126.525 91.784 126.604 91.5361 126.658C91.2919 126.713 91.0002 126.74 90.6611 126.74ZM94.5385 120.637V126.631H93.6307V120.637H94.5385ZM94.0955 118.395C94.245 118.395 94.3726 118.444 94.4783 118.543C94.5877 118.638 94.6424 118.787 94.6424 118.991C94.6424 119.192 94.5877 119.341 94.4783 119.44C94.3726 119.538 94.245 119.587 94.0955 119.587C93.9387 119.587 93.8075 119.538 93.7018 119.44C93.5997 119.341 93.5486 119.192 93.5486 118.991C93.5486 118.787 93.5997 118.638 93.7018 118.543C93.8075 118.444 93.9387 118.395 94.0955 118.395ZM101.631 123.623C101.631 124.115 101.568 124.555 101.44 124.941C101.312 125.328 101.128 125.654 100.888 125.92C100.647 126.186 100.355 126.39 100.013 126.533C99.6736 126.671 99.289 126.74 98.8588 126.74C98.4577 126.74 98.0895 126.671 97.7541 126.533C97.4223 126.39 97.1343 126.186 96.89 125.92C96.6494 125.654 96.4617 125.328 96.3268 124.941C96.1955 124.555 96.1299 124.115 96.1299 123.623C96.1299 122.967 96.2411 122.409 96.4635 121.95C96.6859 121.487 97.0031 121.135 97.415 120.894C97.8307 120.65 98.3247 120.528 98.8971 120.528C99.4439 120.528 99.9215 120.65 100.33 120.894C100.742 121.139 101.061 121.492 101.287 121.955C101.517 122.415 101.631 122.971 101.631 123.623ZM97.0705 123.623C97.0705 124.105 97.1343 124.522 97.2619 124.876C97.3895 125.229 97.5864 125.503 97.8525 125.696C98.1187 125.889 98.4614 125.986 98.8807 125.986C99.2963 125.986 99.6372 125.889 99.9033 125.696C100.173 125.503 100.372 125.229 100.499 124.876C100.627 124.522 100.691 124.105 100.691 123.623C100.691 123.146 100.627 122.734 100.499 122.387C100.372 122.037 100.175 121.768 99.9088 121.578C99.6426 121.388 99.2981 121.294 98.8752 121.294C98.2518 121.294 97.7942 121.5 97.5025 121.912C97.2145 122.324 97.0705 122.894 97.0705 123.623Z" fill="#101E37"/>
<path d="M74.4736 129.151H102.244V131.151H74.4736V129.151Z" fill="#101E37"/>
</g>
<path d="M114.374 118.429C114.101 118.702 114.101 119.143 114.374 119.416L117.09 122.132L114.374 124.848C114.101 125.121 114.101 125.562 114.374 125.835C114.647 126.108 115.088 126.108 115.361 125.835L118.574 122.622C118.847 122.349 118.847 121.908 118.574 121.635L115.361 118.422C115.095 118.156 114.647 118.156 114.374 118.429Z" fill="#101E37"/>
<g clip-path="url(#clip2_741_6548)">
<path d="M130.857 118.636C131.888 118.636 132.641 118.838 133.115 119.243C133.593 119.644 133.832 120.22 133.832 120.971C133.832 121.31 133.775 121.633 133.662 121.939C133.553 122.242 133.374 122.509 133.126 122.743C132.878 122.973 132.552 123.155 132.147 123.29C131.746 123.421 131.254 123.487 130.671 123.487H129.697V126.631H128.768V118.636H130.857ZM130.769 119.429H129.697V122.688H130.567C131.077 122.688 131.502 122.633 131.841 122.524C132.184 122.415 132.441 122.238 132.612 121.994C132.783 121.746 132.869 121.418 132.869 121.009C132.869 120.477 132.7 120.081 132.361 119.823C132.021 119.56 131.491 119.429 130.769 119.429ZM137.611 120.539C138.325 120.539 138.856 120.699 139.202 121.02C139.548 121.341 139.721 121.853 139.721 122.557V126.631H139.06L138.885 125.745H138.841C138.673 125.964 138.498 126.148 138.316 126.298C138.134 126.443 137.922 126.555 137.682 126.631C137.445 126.704 137.153 126.74 136.807 126.74C136.442 126.74 136.118 126.677 135.833 126.549C135.552 126.421 135.33 126.228 135.166 125.969C135.006 125.711 134.925 125.382 134.925 124.985C134.925 124.387 135.162 123.928 135.636 123.607C136.11 123.286 136.832 123.111 137.802 123.082L138.836 123.038V122.672C138.836 122.154 138.724 121.791 138.502 121.583C138.28 121.376 137.966 121.272 137.561 121.272C137.248 121.272 136.949 121.317 136.664 121.408C136.38 121.5 136.11 121.607 135.855 121.731L135.576 121.042C135.846 120.903 136.156 120.785 136.506 120.687C136.856 120.588 137.224 120.539 137.611 120.539ZM138.825 123.678L137.911 123.716C137.164 123.745 136.637 123.868 136.331 124.083C136.025 124.298 135.871 124.602 135.871 124.996C135.871 125.339 135.975 125.592 136.183 125.756C136.391 125.92 136.666 126.002 137.009 126.002C137.541 126.002 137.977 125.855 138.316 125.559C138.655 125.264 138.825 124.821 138.825 124.23V123.678ZM139.109 118.051V118.16C139.036 118.266 138.936 118.393 138.808 118.543C138.684 118.689 138.546 118.844 138.393 119.008C138.239 119.168 138.085 119.321 137.928 119.467C137.775 119.613 137.632 119.739 137.501 119.844H136.894V119.713C137.011 119.575 137.138 119.409 137.277 119.215C137.415 119.019 137.55 118.818 137.682 118.614C137.813 118.406 137.922 118.218 138.01 118.051H139.109ZM143.265 129.322C142.478 129.322 141.871 129.174 141.444 128.879C141.018 128.587 140.804 128.177 140.804 127.648C140.804 127.273 140.923 126.952 141.16 126.686C141.4 126.42 141.732 126.243 142.155 126.155C141.998 126.082 141.863 125.973 141.75 125.827C141.641 125.681 141.586 125.514 141.586 125.324C141.586 125.105 141.646 124.914 141.767 124.75C141.891 124.582 142.079 124.422 142.33 124.269C142.017 124.141 141.761 123.926 141.564 123.623C141.371 123.317 141.275 122.962 141.275 122.557C141.275 122.127 141.364 121.76 141.543 121.458C141.721 121.151 141.98 120.918 142.319 120.758C142.658 120.597 143.068 120.517 143.55 120.517C143.655 120.517 143.761 120.523 143.867 120.533C143.976 120.541 144.08 120.553 144.179 120.572C144.277 120.586 144.363 120.605 144.436 120.626H146.492V121.212L145.387 121.348C145.496 121.49 145.588 121.662 145.661 121.862C145.733 122.063 145.77 122.285 145.77 122.53C145.77 123.127 145.568 123.603 145.163 123.957C144.758 124.307 144.202 124.482 143.495 124.482C143.327 124.482 143.156 124.467 142.981 124.438C142.802 124.537 142.665 124.646 142.571 124.766C142.48 124.887 142.434 125.025 142.434 125.182C142.434 125.299 142.469 125.392 142.538 125.461C142.611 125.53 142.715 125.581 142.85 125.614C142.985 125.643 143.147 125.658 143.336 125.658H144.392C145.044 125.658 145.544 125.794 145.89 126.068C146.24 126.341 146.415 126.74 146.415 127.265C146.415 127.929 146.145 128.438 145.606 128.791C145.066 129.145 144.286 129.322 143.265 129.322ZM143.293 128.611C143.788 128.611 144.199 128.56 144.523 128.458C144.851 128.359 145.095 128.215 145.256 128.026C145.42 127.84 145.502 127.617 145.502 127.358C145.502 127.118 145.447 126.936 145.338 126.812C145.229 126.691 145.068 126.611 144.857 126.571C144.645 126.527 144.386 126.505 144.08 126.505H143.041C142.771 126.505 142.536 126.547 142.336 126.631C142.135 126.715 141.98 126.839 141.871 127.003C141.765 127.167 141.712 127.371 141.712 127.615C141.712 127.94 141.849 128.186 142.122 128.354C142.396 128.525 142.786 128.611 143.293 128.611ZM143.528 123.82C143.962 123.82 144.288 123.711 144.507 123.492C144.725 123.273 144.835 122.954 144.835 122.535C144.835 122.087 144.724 121.751 144.501 121.529C144.279 121.303 143.951 121.19 143.517 121.19C143.101 121.19 142.78 121.306 142.554 121.54C142.332 121.769 142.221 122.107 142.221 122.551C142.221 122.96 142.334 123.273 142.56 123.492C142.786 123.711 143.108 123.82 143.528 123.82ZM148.581 120.637V126.631H147.673V120.637H148.581ZM148.138 118.395C148.287 118.395 148.415 118.444 148.521 118.543C148.63 118.638 148.685 118.787 148.685 118.991C148.685 119.192 148.63 119.341 148.521 119.44C148.415 119.538 148.287 119.587 148.138 119.587C147.981 119.587 147.85 119.538 147.744 119.44C147.642 119.341 147.591 119.192 147.591 118.991C147.591 118.787 147.642 118.638 147.744 118.543C147.85 118.444 147.981 118.395 148.138 118.395ZM153.344 120.528C154.055 120.528 154.593 120.703 154.957 121.053C155.322 121.399 155.504 121.957 155.504 122.726V126.631H154.607V122.787C154.607 122.287 154.493 121.913 154.263 121.665C154.037 121.418 153.689 121.294 153.218 121.294C152.555 121.294 152.088 121.481 151.818 121.857C151.549 122.232 151.414 122.777 151.414 123.492V126.631H150.506V120.637H151.239L151.375 121.501H151.425C151.552 121.29 151.714 121.113 151.911 120.971C152.108 120.825 152.329 120.716 152.573 120.643C152.817 120.566 153.074 120.528 153.344 120.528ZM159.617 120.539C160.331 120.539 160.862 120.699 161.208 121.02C161.555 121.341 161.728 121.853 161.728 122.557V126.631H161.066L160.891 125.745H160.847C160.68 125.964 160.505 126.148 160.322 126.298C160.14 126.443 159.929 126.555 159.688 126.631C159.451 126.704 159.159 126.74 158.813 126.74C158.448 126.74 158.124 126.677 157.839 126.549C157.559 126.421 157.336 126.228 157.172 125.969C157.012 125.711 156.932 125.382 156.932 124.985C156.932 124.387 157.169 123.928 157.643 123.607C158.117 123.286 158.838 123.111 159.808 123.082L160.842 123.038V122.672C160.842 122.154 160.731 121.791 160.508 121.583C160.286 121.376 159.972 121.272 159.568 121.272C159.254 121.272 158.955 121.317 158.671 121.408C158.386 121.5 158.117 121.607 157.861 121.731L157.582 121.042C157.852 120.903 158.162 120.785 158.512 120.687C158.862 120.588 159.23 120.539 159.617 120.539ZM160.831 123.678L159.918 123.716C159.17 123.745 158.643 123.868 158.337 124.083C158.031 124.298 157.878 124.602 157.878 124.996C157.878 125.339 157.982 125.592 158.189 125.756C158.397 125.92 158.673 126.002 159.015 126.002C159.548 126.002 159.983 125.855 160.322 125.559C160.661 125.264 160.831 124.821 160.831 124.23V123.678ZM171.342 126.631H166.103V125.871L168.241 123.7C168.638 123.299 168.972 122.942 169.242 122.628C169.515 122.314 169.723 122.006 169.865 121.704C170.007 121.398 170.079 121.062 170.079 120.698C170.079 120.245 169.944 119.901 169.674 119.664C169.408 119.423 169.056 119.303 168.618 119.303C168.236 119.303 167.896 119.369 167.601 119.5C167.306 119.631 167.003 119.817 166.693 120.058L166.207 119.445C166.418 119.267 166.648 119.108 166.896 118.969C167.147 118.831 167.415 118.721 167.7 118.641C167.988 118.561 168.294 118.521 168.618 118.521C169.111 118.521 169.535 118.607 169.893 118.778C170.25 118.949 170.525 119.194 170.718 119.511C170.915 119.828 171.014 120.205 171.014 120.643C171.014 121.066 170.93 121.459 170.762 121.824C170.594 122.185 170.359 122.544 170.057 122.901C169.754 123.255 169.4 123.631 168.996 124.028L167.257 125.762V125.8H171.342V126.631Z" fill="#101E37"/>
<path d="M127.674 129.151H171.954V131.151H127.674V129.151Z" fill="#101E37"/>
</g>
<path d="M184.573 118.429C184.3 118.702 184.3 119.143 184.573 119.416L187.289 122.132L184.573 124.848C184.3 125.121 184.3 125.562 184.573 125.835C184.846 126.108 185.287 126.108 185.56 125.835L188.773 122.622C189.046 122.349 189.046 121.908 188.773 121.635L185.56 118.422C185.294 118.156 184.846 118.156 184.573 118.429Z" fill="#101E37"/>
<g clip-path="url(#clip3_741_6548)">
<path d="M201.056 118.636C202.088 118.636 202.841 118.838 203.315 119.243C203.793 119.644 204.031 120.22 204.031 120.971C204.031 121.31 203.975 121.633 203.862 121.939C203.752 122.242 203.574 122.509 203.326 122.743C203.078 122.973 202.752 123.155 202.347 123.29C201.946 123.421 201.454 123.487 200.87 123.487H199.897V126.631H198.967V118.636H201.056ZM200.969 119.429H199.897V122.688H200.767C201.277 122.688 201.702 122.633 202.041 122.524C202.383 122.415 202.64 122.238 202.812 121.994C202.983 121.746 203.069 121.418 203.069 121.009C203.069 120.477 202.899 120.081 202.56 119.823C202.221 119.56 201.691 119.429 200.969 119.429ZM207.81 120.539C208.525 120.539 209.055 120.699 209.402 121.02C209.748 121.341 209.921 121.853 209.921 122.557V126.631H209.259L209.084 125.745H209.041C208.873 125.964 208.698 126.148 208.516 126.298C208.333 126.443 208.122 126.555 207.881 126.631C207.644 126.704 207.353 126.74 207.006 126.74C206.642 126.74 206.317 126.677 206.033 126.549C205.752 126.421 205.53 126.228 205.366 125.969C205.205 125.711 205.125 125.382 205.125 124.985C205.125 124.387 205.362 123.928 205.836 123.607C206.31 123.286 207.032 123.111 208.002 123.082L209.035 123.038V122.672C209.035 122.154 208.924 121.791 208.702 121.583C208.479 121.376 208.166 121.272 207.761 121.272C207.447 121.272 207.149 121.317 206.864 121.408C206.58 121.5 206.31 121.607 206.055 121.731L205.776 121.042C206.046 120.903 206.356 120.785 206.706 120.687C207.056 120.588 207.424 120.539 207.81 120.539ZM209.024 123.678L208.111 123.716C207.364 123.745 206.837 123.868 206.531 124.083C206.224 124.298 206.071 124.602 206.071 124.996C206.071 125.339 206.175 125.592 206.383 125.756C206.591 125.92 206.866 126.002 207.209 126.002C207.741 126.002 208.177 125.855 208.516 125.559C208.855 125.264 209.024 124.821 209.024 124.23V123.678ZM209.309 118.051V118.16C209.236 118.266 209.136 118.393 209.008 118.543C208.884 118.689 208.745 118.844 208.592 119.008C208.439 119.168 208.284 119.321 208.127 119.467C207.974 119.613 207.832 119.739 207.701 119.844H207.094V119.713C207.211 119.575 207.338 119.409 207.477 119.215C207.615 119.019 207.75 118.818 207.881 118.614C208.013 118.406 208.122 118.218 208.209 118.051H209.309ZM213.465 129.322C212.677 129.322 212.07 129.174 211.644 128.879C211.217 128.587 211.004 128.177 211.004 127.648C211.004 127.273 211.122 126.952 211.359 126.686C211.6 126.42 211.932 126.243 212.355 126.155C212.198 126.082 212.063 125.973 211.95 125.827C211.841 125.681 211.786 125.514 211.786 125.324C211.786 125.105 211.846 124.914 211.967 124.75C212.09 124.582 212.278 124.422 212.53 124.269C212.216 124.141 211.961 123.926 211.764 123.623C211.571 123.317 211.474 122.962 211.474 122.557C211.474 122.127 211.564 121.76 211.742 121.458C211.921 121.151 212.18 120.918 212.519 120.758C212.858 120.597 213.268 120.517 213.749 120.517C213.855 120.517 213.961 120.523 214.067 120.533C214.176 120.541 214.28 120.553 214.378 120.572C214.477 120.586 214.562 120.605 214.635 120.626H216.692V121.212L215.587 121.348C215.696 121.49 215.787 121.662 215.86 121.862C215.933 122.063 215.97 122.285 215.97 122.53C215.97 123.127 215.767 123.603 215.363 123.957C214.958 124.307 214.402 124.482 213.695 124.482C213.527 124.482 213.356 124.467 213.181 124.438C213.002 124.537 212.865 124.646 212.77 124.766C212.679 124.887 212.634 125.025 212.634 125.182C212.634 125.299 212.668 125.392 212.738 125.461C212.811 125.53 212.914 125.581 213.049 125.614C213.184 125.643 213.346 125.658 213.536 125.658H214.592C215.244 125.658 215.744 125.794 216.09 126.068C216.44 126.341 216.615 126.74 216.615 127.265C216.615 127.929 216.345 128.438 215.806 128.791C215.266 129.145 214.486 129.322 213.465 129.322ZM213.492 128.611C213.988 128.611 214.398 128.56 214.723 128.458C215.051 128.359 215.295 128.215 215.456 128.026C215.62 127.84 215.702 127.617 215.702 127.358C215.702 127.118 215.647 126.936 215.538 126.812C215.428 126.691 215.268 126.611 215.056 126.571C214.845 126.527 214.586 126.505 214.28 126.505H213.241C212.971 126.505 212.736 126.547 212.535 126.631C212.335 126.715 212.18 126.839 212.07 127.003C211.965 127.167 211.912 127.371 211.912 127.615C211.912 127.94 212.049 128.186 212.322 128.354C212.595 128.525 212.986 128.611 213.492 128.611ZM213.727 123.82C214.161 123.82 214.488 123.711 214.706 123.492C214.925 123.273 215.034 122.954 215.034 122.535C215.034 122.087 214.923 121.751 214.701 121.529C214.478 121.303 214.15 121.19 213.717 121.19C213.301 121.19 212.98 121.306 212.754 121.54C212.532 121.769 212.42 122.107 212.42 122.551C212.42 122.96 212.533 123.273 212.759 123.492C212.986 123.711 213.308 123.82 213.727 123.82ZM218.781 120.637V126.631H217.873V120.637H218.781ZM218.338 118.395C218.487 118.395 218.615 118.444 218.72 118.543C218.83 118.638 218.884 118.787 218.884 118.991C218.884 119.192 218.83 119.341 218.72 119.44C218.615 119.538 218.487 119.587 218.338 119.587C218.181 119.587 218.05 119.538 217.944 119.44C217.842 119.341 217.791 119.192 217.791 118.991C217.791 118.787 217.842 118.638 217.944 118.543C218.05 118.444 218.181 118.395 218.338 118.395ZM223.544 120.528C224.255 120.528 224.793 120.703 225.157 121.053C225.522 121.399 225.704 121.957 225.704 122.726V126.631H224.807V122.787C224.807 122.287 224.692 121.913 224.463 121.665C224.237 121.418 223.888 121.294 223.418 121.294C222.755 121.294 222.288 121.481 222.018 121.857C221.748 122.232 221.613 122.777 221.613 123.492V126.631H220.706V120.637H221.438L221.575 121.501H221.624C221.752 121.29 221.914 121.113 222.111 120.971C222.308 120.825 222.528 120.716 222.773 120.643C223.017 120.566 223.274 120.528 223.544 120.528ZM229.817 120.539C230.531 120.539 231.062 120.699 231.408 121.02C231.754 121.341 231.927 121.853 231.927 122.557V126.631H231.266L231.091 125.745H231.047C230.879 125.964 230.704 126.148 230.522 126.298C230.34 126.443 230.128 126.555 229.888 126.631C229.651 126.704 229.359 126.74 229.013 126.74C228.648 126.74 228.324 126.677 228.039 126.549C227.758 126.421 227.536 126.228 227.372 125.969C227.212 125.711 227.131 125.382 227.131 124.985C227.131 124.387 227.368 123.928 227.842 123.607C228.316 123.286 229.038 123.111 230.008 123.082L231.042 123.038V122.672C231.042 122.154 230.93 121.791 230.708 121.583C230.486 121.376 230.172 121.272 229.767 121.272C229.454 121.272 229.155 121.317 228.87 121.408C228.586 121.5 228.316 121.607 228.061 121.731L227.782 121.042C228.052 120.903 228.362 120.785 228.712 120.687C229.062 120.588 229.43 120.539 229.817 120.539ZM231.031 123.678L230.117 123.716C229.37 123.745 228.843 123.868 228.537 124.083C228.231 124.298 228.077 124.602 228.077 124.996C228.077 125.339 228.181 125.592 228.389 125.756C228.597 125.92 228.872 126.002 229.215 126.002C229.747 126.002 230.183 125.855 230.522 125.559C230.861 125.264 231.031 124.821 231.031 124.23V123.678ZM241.246 120.501C241.246 120.858 241.177 121.168 241.038 121.43C240.9 121.693 240.707 121.908 240.459 122.076C240.211 122.24 239.919 122.355 239.584 122.42V122.464C240.218 122.544 240.694 122.748 241.011 123.076C241.332 123.405 241.492 123.835 241.492 124.367C241.492 124.83 241.383 125.24 241.164 125.598C240.949 125.955 240.617 126.236 240.169 126.44C239.724 126.64 239.153 126.74 238.457 126.74C238.034 126.74 237.642 126.706 237.281 126.637C236.924 126.571 236.581 126.46 236.253 126.303V125.45C236.585 125.614 236.946 125.743 237.336 125.838C237.726 125.929 238.103 125.975 238.468 125.975C239.197 125.975 239.724 125.831 240.049 125.543C240.373 125.251 240.535 124.854 240.535 124.351C240.535 124.004 240.444 123.725 240.262 123.514C240.083 123.299 239.824 123.142 239.485 123.044C239.15 122.942 238.745 122.89 238.271 122.89H237.473V122.114H238.277C238.711 122.114 239.079 122.05 239.381 121.923C239.684 121.795 239.914 121.616 240.07 121.387C240.231 121.153 240.311 120.878 240.311 120.561C240.311 120.156 240.176 119.844 239.906 119.626C239.637 119.403 239.27 119.292 238.807 119.292C238.523 119.292 238.264 119.321 238.031 119.38C237.797 119.438 237.578 119.518 237.374 119.62C237.17 119.722 236.966 119.841 236.762 119.976L236.302 119.352C236.594 119.126 236.95 118.931 237.369 118.767C237.788 118.603 238.264 118.521 238.796 118.521C239.613 118.521 240.225 118.707 240.634 119.079C241.042 119.451 241.246 119.925 241.246 120.501Z" fill="#101E37"/>
<path d="M197.874 129.151H242.154V131.151H197.874V129.151Z" fill="#101E37"/>
</g>
<path d="M254.774 118.429C254.501 118.702 254.501 119.143 254.774 119.416L257.49 122.132L254.774 124.848C254.501 125.121 254.501 125.562 254.774 125.835C255.047 126.108 255.488 126.108 255.761 125.835L258.974 122.622C259.247 122.349 259.247 121.908 258.974 121.635L255.761 118.422C255.495 118.156 255.047 118.156 254.774 118.429Z" fill="#101E37"/>
<g clip-path="url(#clip4_741_6548)">
<path d="M274.056 118.636C275.088 118.636 275.841 118.838 276.315 119.243C276.793 119.644 277.031 120.22 277.031 120.971C277.031 121.31 276.975 121.633 276.862 121.939C276.752 122.242 276.574 122.509 276.326 122.743C276.078 122.973 275.752 123.155 275.347 123.29C274.946 123.421 274.454 123.487 273.87 123.487H272.897V126.631H271.967V118.636H274.056ZM273.969 119.429H272.897V122.688H273.767C274.277 122.688 274.702 122.633 275.041 122.524C275.383 122.415 275.64 122.238 275.812 121.994C275.983 121.746 276.069 121.418 276.069 121.009C276.069 120.477 275.899 120.081 275.56 119.823C275.221 119.56 274.691 119.429 273.969 119.429ZM280.81 120.539C281.525 120.539 282.055 120.699 282.402 121.02C282.748 121.341 282.921 121.853 282.921 122.557V126.631H282.259L282.084 125.745H282.041C281.873 125.964 281.698 126.148 281.516 126.298C281.333 126.443 281.122 126.555 280.881 126.631C280.644 126.704 280.353 126.74 280.006 126.74C279.642 126.74 279.317 126.677 279.033 126.549C278.752 126.421 278.53 126.228 278.366 125.969C278.205 125.711 278.125 125.382 278.125 124.985C278.125 124.387 278.362 123.928 278.836 123.607C279.31 123.286 280.032 123.111 281.002 123.082L282.035 123.038V122.672C282.035 122.154 281.924 121.791 281.702 121.583C281.479 121.376 281.166 121.272 280.761 121.272C280.447 121.272 280.149 121.317 279.864 121.408C279.58 121.5 279.31 121.607 279.055 121.731L278.776 121.042C279.046 120.903 279.356 120.785 279.706 120.687C280.056 120.588 280.424 120.539 280.81 120.539ZM282.024 123.678L281.111 123.716C280.364 123.745 279.837 123.868 279.531 124.083C279.224 124.298 279.071 124.602 279.071 124.996C279.071 125.339 279.175 125.592 279.383 125.756C279.591 125.92 279.866 126.002 280.209 126.002C280.741 126.002 281.177 125.855 281.516 125.559C281.855 125.264 282.024 124.821 282.024 124.23V123.678ZM282.309 118.051V118.16C282.236 118.266 282.136 118.393 282.008 118.543C281.884 118.689 281.745 118.844 281.592 119.008C281.439 119.168 281.284 119.321 281.127 119.467C280.974 119.613 280.832 119.739 280.701 119.844H280.094V119.713C280.211 119.575 280.338 119.409 280.477 119.215C280.615 119.019 280.75 118.818 280.881 118.614C281.013 118.406 281.122 118.218 281.209 118.051H282.309ZM286.465 129.322C285.677 129.322 285.07 129.174 284.644 128.879C284.217 128.587 284.004 128.177 284.004 127.648C284.004 127.273 284.122 126.952 284.359 126.686C284.6 126.42 284.932 126.243 285.355 126.155C285.198 126.082 285.063 125.973 284.95 125.827C284.841 125.681 284.786 125.514 284.786 125.324C284.786 125.105 284.846 124.914 284.967 124.75C285.09 124.582 285.278 124.422 285.53 124.269C285.216 124.141 284.961 123.926 284.764 123.623C284.571 123.317 284.474 122.962 284.474 122.557C284.474 122.127 284.564 121.76 284.742 121.458C284.921 121.151 285.18 120.918 285.519 120.758C285.858 120.597 286.268 120.517 286.749 120.517C286.855 120.517 286.961 120.523 287.067 120.533C287.176 120.541 287.28 120.553 287.378 120.572C287.477 120.586 287.562 120.605 287.635 120.626H289.692V121.212L288.587 121.348C288.696 121.49 288.787 121.662 288.86 121.862C288.933 122.063 288.97 122.285 288.97 122.53C288.97 123.127 288.767 123.603 288.363 123.957C287.958 124.307 287.402 124.482 286.695 124.482C286.527 124.482 286.356 124.467 286.181 124.438C286.002 124.537 285.865 124.646 285.77 124.766C285.679 124.887 285.634 125.025 285.634 125.182C285.634 125.299 285.668 125.392 285.738 125.461C285.811 125.53 285.914 125.581 286.049 125.614C286.184 125.643 286.346 125.658 286.536 125.658H287.592C288.244 125.658 288.744 125.794 289.09 126.068C289.44 126.341 289.615 126.74 289.615 127.265C289.615 127.929 289.345 128.438 288.806 128.791C288.266 129.145 287.486 129.322 286.465 129.322ZM286.492 128.611C286.988 128.611 287.398 128.56 287.723 128.458C288.051 128.359 288.295 128.215 288.456 128.026C288.62 127.84 288.702 127.617 288.702 127.358C288.702 127.118 288.647 126.936 288.538 126.812C288.428 126.691 288.268 126.611 288.056 126.571C287.845 126.527 287.586 126.505 287.28 126.505H286.241C285.971 126.505 285.736 126.547 285.535 126.631C285.335 126.715 285.18 126.839 285.07 127.003C284.965 127.167 284.912 127.371 284.912 127.615C284.912 127.94 285.049 128.186 285.322 128.354C285.595 128.525 285.986 128.611 286.492 128.611ZM286.727 123.82C287.161 123.82 287.488 123.711 287.706 123.492C287.925 123.273 288.034 122.954 288.034 122.535C288.034 122.087 287.923 121.751 287.701 121.529C287.478 121.303 287.15 121.19 286.717 121.19C286.301 121.19 285.98 121.306 285.754 121.54C285.532 121.769 285.42 122.107 285.42 122.551C285.42 122.96 285.533 123.273 285.759 123.492C285.986 123.711 286.308 123.82 286.727 123.82ZM291.781 120.637V126.631H290.873V120.637H291.781ZM291.338 118.395C291.487 118.395 291.615 118.444 291.72 118.543C291.83 118.638 291.884 118.787 291.884 118.991C291.884 119.192 291.83 119.341 291.72 119.44C291.615 119.538 291.487 119.587 291.338 119.587C291.181 119.587 291.05 119.538 290.944 119.44C290.842 119.341 290.791 119.192 290.791 118.991C290.791 118.787 290.842 118.638 290.944 118.543C291.05 118.444 291.181 118.395 291.338 118.395ZM296.544 120.528C297.255 120.528 297.793 120.703 298.157 121.053C298.522 121.399 298.704 121.957 298.704 122.726V126.631H297.807V122.787C297.807 122.287 297.692 121.913 297.463 121.665C297.237 121.418 296.888 121.294 296.418 121.294C295.755 121.294 295.288 121.481 295.018 121.857C294.748 122.232 294.613 122.777 294.613 123.492V126.631H293.706V120.637H294.438L294.575 121.501H294.624C294.752 121.29 294.914 121.113 295.111 120.971C295.308 120.825 295.528 120.716 295.773 120.643C296.017 120.566 296.274 120.528 296.544 120.528ZM302.817 120.539C303.531 120.539 304.062 120.699 304.408 121.02C304.754 121.341 304.927 121.853 304.927 122.557V126.631H304.266L304.091 125.745H304.047C303.879 125.964 303.704 126.148 303.522 126.298C303.34 126.443 303.128 126.555 302.888 126.631C302.651 126.704 302.359 126.74 302.013 126.74C301.648 126.74 301.324 126.677 301.039 126.549C300.758 126.421 300.536 126.228 300.372 125.969C300.212 125.711 300.131 125.382 300.131 124.985C300.131 124.387 300.368 123.928 300.842 123.607C301.316 123.286 302.038 123.111 303.008 123.082L304.042 123.038V122.672C304.042 122.154 303.93 121.791 303.708 121.583C303.486 121.376 303.172 121.272 302.767 121.272C302.454 121.272 302.155 121.317 301.87 121.408C301.586 121.5 301.316 121.607 301.061 121.731L300.782 121.042C301.052 120.903 301.362 120.785 301.712 120.687C302.062 120.588 302.43 120.539 302.817 120.539ZM304.031 123.678L303.117 123.716C302.37 123.745 301.843 123.868 301.537 124.083C301.231 124.298 301.077 124.602 301.077 124.996C301.077 125.339 301.181 125.592 301.389 125.756C301.597 125.92 301.872 126.002 302.215 126.002C302.747 126.002 303.183 125.855 303.522 125.559C303.861 125.264 304.031 124.821 304.031 124.23V123.678ZM311.949 120.539C312.664 120.539 313.194 120.699 313.541 121.02C313.887 121.341 314.06 121.853 314.06 122.557V126.631H313.399L313.224 125.745H313.18C313.012 125.964 312.837 126.148 312.655 126.298C312.472 126.443 312.261 126.555 312.02 126.631C311.783 126.704 311.492 126.74 311.145 126.74C310.781 126.74 310.456 126.677 310.172 126.549C309.891 126.421 309.669 126.228 309.505 125.969C309.344 125.711 309.264 125.382 309.264 124.985C309.264 124.387 309.501 123.928 309.975 123.607C310.449 123.286 311.171 123.111 312.141 123.082L313.174 123.038V122.672C313.174 122.154 313.063 121.791 312.841 121.583C312.618 121.376 312.305 121.272 311.9 121.272C311.587 121.272 311.288 121.317 311.003 121.408C310.719 121.5 310.449 121.607 310.194 121.731L309.915 121.042C310.185 120.903 310.495 120.785 310.845 120.687C311.195 120.588 311.563 120.539 311.949 120.539ZM313.163 123.678L312.25 123.716C311.503 123.745 310.976 123.868 310.67 124.083C310.363 124.298 310.21 124.602 310.21 124.996C310.21 125.339 310.314 125.592 310.522 125.756C310.73 125.92 311.005 126.002 311.348 126.002C311.88 126.002 312.316 125.855 312.655 125.559C312.994 125.264 313.163 124.821 313.163 124.23V123.678ZM318.769 120.528C319.48 120.528 320.018 120.703 320.382 121.053C320.747 121.399 320.929 121.957 320.929 122.726V126.631H320.032V122.787C320.032 122.287 319.917 121.913 319.688 121.665C319.462 121.418 319.113 121.294 318.643 121.294C317.98 121.294 317.513 121.481 317.243 121.857C316.973 122.232 316.838 122.777 316.838 123.492V126.631H315.931V120.637H316.663L316.8 121.501H316.849C316.977 121.29 317.139 121.113 317.336 120.971C317.533 120.825 317.753 120.716 317.998 120.643C318.242 120.566 318.499 120.528 318.769 120.528ZM324.735 125.997C324.885 125.997 325.038 125.984 325.195 125.958C325.351 125.933 325.479 125.902 325.577 125.865V126.571C325.472 126.618 325.324 126.658 325.134 126.691C324.949 126.724 324.766 126.74 324.588 126.74C324.27 126.74 323.982 126.686 323.724 126.576C323.465 126.463 323.257 126.274 323.1 126.008C322.947 125.742 322.87 125.373 322.87 124.903V121.348H322.017V120.905L322.876 120.55L323.237 119.248H323.784V120.637H325.539V121.348H323.784V124.876C323.784 125.251 323.869 125.532 324.041 125.718C324.216 125.904 324.447 125.997 324.735 125.997ZM329.099 120.528C329.61 120.528 330.047 120.641 330.412 120.867C330.776 121.093 331.055 121.41 331.249 121.819C331.442 122.223 331.538 122.697 331.538 123.24V123.804H327.399C327.409 124.507 327.584 125.043 327.924 125.412C328.263 125.78 328.74 125.964 329.356 125.964C329.736 125.964 330.071 125.929 330.363 125.86C330.654 125.791 330.957 125.689 331.27 125.554V126.352C330.968 126.487 330.667 126.586 330.368 126.648C330.073 126.709 329.723 126.74 329.318 126.74C328.742 126.74 328.239 126.624 327.809 126.39C327.382 126.153 327.05 125.807 326.813 125.351C326.576 124.896 326.458 124.338 326.458 123.678C326.458 123.033 326.565 122.475 326.781 122.005C326.999 121.531 327.306 121.166 327.699 120.911C328.097 120.656 328.563 120.528 329.099 120.528ZM329.088 121.272C328.603 121.272 328.217 121.43 327.929 121.748C327.641 122.065 327.47 122.508 327.415 123.076H330.587C330.583 122.719 330.527 122.406 330.417 122.136C330.312 121.862 330.149 121.651 329.931 121.501C329.712 121.348 329.431 121.272 329.088 121.272ZM335.804 120.528C335.924 120.528 336.05 120.535 336.181 120.55C336.313 120.561 336.429 120.577 336.531 120.599L336.417 121.441C336.318 121.416 336.209 121.396 336.088 121.381C335.968 121.367 335.855 121.359 335.749 121.359C335.509 121.359 335.281 121.408 335.066 121.507C334.854 121.602 334.668 121.74 334.508 121.923C334.347 122.101 334.222 122.318 334.131 122.573C334.039 122.825 333.994 123.106 333.994 123.415V126.631H333.081V120.637H333.835L333.934 121.742H333.972C334.096 121.52 334.245 121.317 334.42 121.135C334.595 120.949 334.798 120.801 335.027 120.692C335.261 120.583 335.52 120.528 335.804 120.528ZM338.571 120.637V126.631H337.663V120.637H338.571ZM338.128 118.395C338.278 118.395 338.405 118.444 338.511 118.543C338.62 118.638 338.675 118.787 338.675 118.991C338.675 119.192 338.62 119.341 338.511 119.44C338.405 119.538 338.278 119.587 338.128 119.587C337.971 119.587 337.84 119.538 337.734 119.44C337.632 119.341 337.581 119.192 337.581 118.991C337.581 118.787 337.632 118.638 337.734 118.543C337.84 118.444 337.971 118.395 338.128 118.395ZM345.664 123.623C345.664 124.115 345.6 124.555 345.473 124.941C345.345 125.328 345.161 125.654 344.92 125.92C344.68 126.186 344.388 126.39 344.045 126.533C343.706 126.671 343.322 126.74 342.892 126.74C342.49 126.74 342.122 126.671 341.787 126.533C341.455 126.39 341.167 126.186 340.923 125.92C340.682 125.654 340.494 125.328 340.359 124.941C340.228 124.555 340.163 124.115 340.163 123.623C340.163 122.967 340.274 122.409 340.496 121.95C340.719 121.487 341.036 121.135 341.448 120.894C341.863 120.65 342.357 120.528 342.93 120.528C343.477 120.528 343.954 120.65 344.363 120.894C344.775 121.139 345.094 121.492 345.32 121.955C345.549 122.415 345.664 122.971 345.664 123.623ZM341.103 123.623C341.103 124.105 341.167 124.522 341.295 124.876C341.422 125.229 341.619 125.503 341.885 125.696C342.151 125.889 342.494 125.986 342.913 125.986C343.329 125.986 343.67 125.889 343.936 125.696C344.206 125.503 344.405 125.229 344.532 124.876C344.66 124.522 344.724 124.105 344.724 123.623C344.724 123.146 344.66 122.734 344.532 122.387C344.405 122.037 344.208 121.768 343.942 121.578C343.675 121.388 343.331 121.294 342.908 121.294C342.284 121.294 341.827 121.5 341.535 121.912C341.247 122.324 341.103 122.894 341.103 123.623ZM349.957 120.528C350.077 120.528 350.203 120.535 350.334 120.55C350.466 120.561 350.582 120.577 350.684 120.599L350.57 121.441C350.471 121.416 350.362 121.396 350.242 121.381C350.121 121.367 350.008 121.359 349.902 121.359C349.662 121.359 349.434 121.408 349.219 121.507C349.007 121.602 348.821 121.74 348.661 121.923C348.501 122.101 348.375 122.318 348.284 122.573C348.193 122.825 348.147 123.106 348.147 123.415V126.631H347.234V120.637H347.988L348.087 121.742H348.125C348.249 121.52 348.399 121.317 348.574 121.135C348.749 120.949 348.951 120.801 349.181 120.692C349.414 120.583 349.673 120.528 349.957 120.528Z" fill="#101E37"/>
<path d="M270.874 129.151H350.854V131.151H270.874V129.151Z" fill="#101E37"/>
</g>
<path d="M78.2108 176.631C77.7955 176.631 77.4746 176.527 77.2481 176.32C77.0404 176.093 76.9366 175.772 76.9366 175.357V157.943C76.9366 157.528 77.0404 157.216 77.2481 157.008C77.4746 156.782 77.7955 156.669 78.2108 156.669H88.7442C89.0651 156.669 89.3105 156.754 89.4804 156.923C89.6503 157.093 89.7353 157.329 89.7353 157.631C89.7353 157.952 89.6503 158.198 89.4804 158.368C89.3105 158.537 89.0651 158.622 88.7442 158.622H79.2019V165.531H88.1496C88.4705 165.531 88.7159 165.616 88.8858 165.786C89.0557 165.937 89.1406 166.173 89.1406 166.494C89.1406 166.815 89.0557 167.06 88.8858 167.23C88.7159 167.4 88.4705 167.485 88.1496 167.485H79.2019V174.677H88.7442C89.0651 174.677 89.3105 174.762 89.4804 174.932C89.6503 175.102 89.7353 175.338 89.7353 175.64C89.7353 175.961 89.6503 176.206 89.4804 176.376C89.3105 176.546 89.0651 176.631 88.7442 176.631H78.2108ZM94.266 176.829C93.8884 176.829 93.6053 176.725 93.4165 176.518C93.2277 176.31 93.1334 176.018 93.1334 175.64V163.832C93.1334 163.455 93.2277 163.172 93.4165 162.983C93.6053 162.775 93.879 162.672 94.2377 162.672C94.5963 162.672 94.87 162.775 95.0588 162.983C95.2665 163.172 95.3703 163.455 95.3703 163.832V166.268L95.0588 165.928C95.4552 164.833 96.0971 164.012 96.9843 163.464C97.8904 162.898 98.9286 162.615 100.099 162.615C101.194 162.615 102.1 162.813 102.817 163.21C103.553 163.606 104.101 164.21 104.46 165.022C104.818 165.815 104.998 166.824 104.998 168.051V175.64C104.998 176.018 104.894 176.31 104.686 176.518C104.497 176.725 104.224 176.829 103.865 176.829C103.487 176.829 103.195 176.725 102.987 176.518C102.798 176.31 102.704 176.018 102.704 175.64V168.193C102.704 166.909 102.449 165.975 101.94 165.39C101.449 164.786 100.656 164.484 99.561 164.484C98.2962 164.484 97.2863 164.88 96.5312 165.673C95.795 166.447 95.4269 167.485 95.4269 168.788V175.64C95.4269 176.433 95.0399 176.829 94.266 176.829ZM115.06 176.886C113.682 176.886 112.493 176.584 111.492 175.98C110.492 175.376 109.718 174.536 109.17 173.46C108.642 172.365 108.377 171.1 108.377 169.665C108.377 168.571 108.528 167.589 108.83 166.721C109.132 165.852 109.576 165.116 110.161 164.512C110.746 163.889 111.445 163.417 112.257 163.096C113.087 162.775 114.022 162.615 115.06 162.615C115.739 162.615 116.447 162.719 117.183 162.926C117.92 163.134 118.59 163.493 119.194 164.002C119.383 164.134 119.505 164.295 119.562 164.484C119.619 164.672 119.619 164.861 119.562 165.05C119.505 165.22 119.411 165.371 119.279 165.503C119.147 165.616 118.977 165.682 118.769 165.701C118.58 165.72 118.382 165.654 118.175 165.503C117.684 165.126 117.183 164.861 116.674 164.71C116.164 164.559 115.673 164.484 115.201 164.484C114.465 164.484 113.823 164.606 113.276 164.852C112.728 165.078 112.266 165.409 111.888 165.843C111.511 166.277 111.218 166.815 111.011 167.457C110.822 168.099 110.728 168.844 110.728 169.694C110.728 171.336 111.114 172.639 111.888 173.601C112.662 174.545 113.767 175.017 115.201 175.017C115.673 175.017 116.155 174.942 116.645 174.791C117.155 174.64 117.665 174.375 118.175 173.998C118.382 173.847 118.58 173.781 118.769 173.8C118.958 173.818 119.118 173.894 119.251 174.026C119.383 174.139 119.468 174.29 119.505 174.479C119.562 174.668 119.562 174.857 119.505 175.045C119.449 175.215 119.326 175.366 119.137 175.498C118.533 175.989 117.872 176.348 117.155 176.574C116.438 176.782 115.739 176.886 115.06 176.886ZM126.556 176.886C125.612 176.886 124.762 176.707 124.007 176.348C123.271 175.97 122.686 175.461 122.252 174.819C121.817 174.177 121.6 173.46 121.6 172.667C121.6 171.648 121.855 170.845 122.365 170.26C122.893 169.675 123.752 169.26 124.942 169.014C126.15 168.769 127.792 168.646 129.868 168.646H131.143V170.147H129.897C128.368 170.147 127.16 170.222 126.272 170.373C125.404 170.505 124.79 170.741 124.432 171.081C124.092 171.421 123.922 171.902 123.922 172.525C123.922 173.299 124.186 173.932 124.715 174.422C125.262 174.913 125.999 175.159 126.924 175.159C127.679 175.159 128.339 174.979 128.906 174.621C129.491 174.262 129.944 173.771 130.265 173.148C130.605 172.525 130.775 171.808 130.775 170.996V167.768C130.775 166.598 130.539 165.758 130.067 165.248C129.595 164.72 128.821 164.455 127.745 164.455C127.084 164.455 126.423 164.54 125.763 164.71C125.102 164.88 124.404 165.154 123.667 165.531C123.403 165.664 123.177 165.711 122.988 165.673C122.799 165.616 122.648 165.513 122.535 165.361C122.421 165.21 122.355 165.041 122.336 164.852C122.318 164.644 122.355 164.446 122.45 164.257C122.563 164.068 122.733 163.917 122.959 163.804C123.79 163.389 124.611 163.087 125.423 162.898C126.235 162.709 127.009 162.615 127.745 162.615C128.934 162.615 129.916 162.813 130.69 163.21C131.464 163.587 132.039 164.172 132.417 164.965C132.794 165.739 132.983 166.74 132.983 167.967V175.64C132.983 176.018 132.889 176.31 132.7 176.518C132.53 176.725 132.275 176.829 131.935 176.829C131.577 176.829 131.303 176.725 131.114 176.518C130.926 176.31 130.831 176.018 130.831 175.64V173.431H131.086C130.935 174.149 130.642 174.762 130.208 175.272C129.793 175.782 129.274 176.178 128.651 176.461C128.028 176.744 127.329 176.886 126.556 176.886ZM144.204 176.886C142.958 176.886 141.882 176.565 140.976 175.923C140.089 175.281 139.494 174.422 139.192 173.346L139.503 173.035V175.64C139.503 176.018 139.4 176.31 139.192 176.518C139.003 176.725 138.73 176.829 138.371 176.829C137.993 176.829 137.71 176.725 137.521 176.518C137.333 176.31 137.238 176.018 137.238 175.64V157.631C137.238 157.254 137.333 156.971 137.521 156.782C137.71 156.574 137.993 156.47 138.371 156.47C138.73 156.47 139.013 156.574 139.22 156.782C139.428 156.971 139.532 157.254 139.532 157.631V166.069H139.192C139.513 165.012 140.117 164.172 141.004 163.549C141.891 162.926 142.958 162.615 144.204 162.615C145.45 162.615 146.526 162.907 147.432 163.493C148.338 164.059 149.036 164.88 149.527 165.956C150.037 167.013 150.292 168.278 150.292 169.75C150.292 171.204 150.037 172.469 149.527 173.545C149.036 174.602 148.329 175.423 147.404 176.008C146.497 176.593 145.431 176.886 144.204 176.886ZM143.723 175.045C144.591 175.045 145.336 174.838 145.959 174.422C146.601 174.007 147.092 173.403 147.432 172.61C147.791 171.817 147.97 170.864 147.97 169.75C147.97 168.033 147.583 166.721 146.809 165.815C146.054 164.908 145.025 164.455 143.723 164.455C142.873 164.455 142.127 164.663 141.486 165.078C140.844 165.475 140.344 166.069 139.985 166.862C139.645 167.636 139.475 168.599 139.475 169.75C139.475 171.449 139.862 172.761 140.636 173.686C141.41 174.592 142.439 175.045 143.723 175.045ZM159.948 176.886C158.494 176.886 157.239 176.603 156.182 176.036C155.143 175.451 154.332 174.63 153.746 173.573C153.18 172.516 152.897 171.251 152.897 169.779C152.897 168.344 153.18 167.098 153.746 166.041C154.313 164.965 155.087 164.125 156.068 163.521C157.069 162.917 158.22 162.615 159.523 162.615C160.448 162.615 161.278 162.775 162.015 163.096C162.751 163.398 163.374 163.842 163.883 164.427C164.412 165.012 164.808 165.72 165.073 166.551C165.356 167.381 165.497 168.316 165.497 169.354C165.497 169.656 165.412 169.883 165.243 170.034C165.073 170.166 164.827 170.232 164.506 170.232H154.653V168.731H163.968L163.515 169.099C163.515 168.08 163.364 167.221 163.062 166.522C162.76 165.805 162.317 165.258 161.731 164.88C161.165 164.503 160.448 164.314 159.579 164.314C158.617 164.314 157.796 164.54 157.116 164.993C156.455 165.428 155.955 166.041 155.615 166.834C155.275 167.608 155.106 168.514 155.106 169.552V169.722C155.106 171.459 155.521 172.78 156.351 173.686C157.201 174.592 158.4 175.045 159.948 175.045C160.589 175.045 161.222 174.96 161.845 174.791C162.487 174.621 163.109 174.338 163.714 173.941C163.978 173.771 164.214 173.696 164.421 173.715C164.648 173.715 164.827 173.781 164.959 173.913C165.092 174.026 165.177 174.177 165.214 174.366C165.271 174.536 165.252 174.725 165.158 174.932C165.082 175.14 164.922 175.319 164.676 175.47C164.053 175.923 163.317 176.272 162.468 176.518C161.618 176.763 160.778 176.886 159.948 176.886ZM169.016 176.631C168.771 176.631 168.573 176.574 168.422 176.461C168.271 176.348 168.167 176.197 168.11 176.008C168.054 175.819 168.054 175.612 168.11 175.385C168.167 175.159 168.29 174.942 168.478 174.734L176.463 164.059V164.654H168.903C168.601 164.654 168.365 164.578 168.195 164.427C168.044 164.257 167.969 164.031 167.969 163.748C167.969 163.464 168.044 163.247 168.195 163.096C168.365 162.945 168.601 162.87 168.903 162.87H177.596C177.879 162.87 178.106 162.926 178.276 163.04C178.464 163.153 178.587 163.304 178.644 163.493C178.7 163.663 178.7 163.861 178.644 164.087C178.606 164.295 178.502 164.503 178.332 164.71L170.206 175.498V174.847H178.162C178.785 174.847 179.097 175.14 179.097 175.725C179.097 176.008 179.012 176.235 178.842 176.405C178.691 176.556 178.464 176.631 178.162 176.631H169.016ZM186.063 176.886C185.119 176.886 184.269 176.707 183.514 176.348C182.778 175.97 182.193 175.461 181.759 174.819C181.324 174.177 181.107 173.46 181.107 172.667C181.107 171.648 181.362 170.845 181.872 170.26C182.4 169.675 183.259 169.26 184.449 169.014C185.657 168.769 187.299 168.646 189.375 168.646H190.65V170.147H189.404C187.875 170.147 186.667 170.222 185.779 170.373C184.911 170.505 184.298 170.741 183.939 171.081C183.599 171.421 183.429 171.902 183.429 172.525C183.429 173.299 183.693 173.932 184.222 174.422C184.769 174.913 185.506 175.159 186.431 175.159C187.186 175.159 187.846 174.979 188.413 174.621C188.998 174.262 189.451 173.771 189.772 173.148C190.112 172.525 190.282 171.808 190.282 170.996V167.768C190.282 166.598 190.046 165.758 189.574 165.248C189.102 164.72 188.328 164.455 187.252 164.455C186.591 164.455 185.93 164.54 185.27 164.71C184.609 164.88 183.911 165.154 183.174 165.531C182.91 165.664 182.684 165.711 182.495 165.673C182.306 165.616 182.155 165.513 182.042 165.361C181.928 165.21 181.862 165.041 181.843 164.852C181.825 164.644 181.862 164.446 181.957 164.257C182.07 164.068 182.24 163.917 182.466 163.804C183.297 163.389 184.118 163.087 184.93 162.898C185.742 162.709 186.516 162.615 187.252 162.615C188.441 162.615 189.423 162.813 190.197 163.21C190.971 163.587 191.546 164.172 191.924 164.965C192.301 165.739 192.49 166.74 192.49 167.967V175.64C192.49 176.018 192.396 176.31 192.207 176.518C192.037 176.725 191.782 176.829 191.442 176.829C191.084 176.829 190.81 176.725 190.621 176.518C190.433 176.31 190.338 176.018 190.338 175.64V173.431H190.593C190.442 174.149 190.149 174.762 189.715 175.272C189.3 175.782 188.781 176.178 188.158 176.461C187.535 176.744 186.836 176.886 186.063 176.886ZM201.984 176.886C200.757 176.886 199.681 176.593 198.756 176.008C197.85 175.423 197.142 174.602 196.632 173.545C196.141 172.469 195.896 171.204 195.896 169.75C195.896 168.278 196.141 167.013 196.632 165.956C197.142 164.88 197.85 164.059 198.756 163.493C199.681 162.907 200.757 162.615 201.984 162.615C203.23 162.615 204.296 162.926 205.183 163.549C206.071 164.172 206.665 165.012 206.967 166.069H206.656V157.631C206.656 157.254 206.75 156.971 206.939 156.782C207.147 156.574 207.439 156.47 207.817 156.47C208.175 156.47 208.449 156.574 208.638 156.782C208.845 156.971 208.949 157.254 208.949 157.631V175.64C208.949 176.018 208.855 176.31 208.666 176.518C208.477 176.725 208.194 176.829 207.817 176.829C207.458 176.829 207.175 176.725 206.967 176.518C206.778 176.31 206.684 176.018 206.684 175.64V172.95L206.995 173.346C206.693 174.422 206.089 175.281 205.183 175.923C204.296 176.565 203.23 176.886 201.984 176.886ZM202.465 175.045C203.314 175.045 204.06 174.838 204.702 174.422C205.344 174.007 205.835 173.403 206.174 172.61C206.533 171.817 206.712 170.864 206.712 169.75C206.712 168.033 206.325 166.721 205.551 165.815C204.796 164.908 203.768 164.455 202.465 164.455C201.597 164.455 200.842 164.663 200.2 165.078C199.577 165.475 199.086 166.069 198.727 166.862C198.388 167.636 198.218 168.599 198.218 169.75C198.218 171.449 198.605 172.761 199.379 173.686C200.153 174.592 201.181 175.045 202.465 175.045ZM218.973 176.886C217.633 176.886 216.472 176.593 215.49 176.008C214.509 175.423 213.744 174.602 213.197 173.545C212.668 172.469 212.404 171.204 212.404 169.75C212.404 168.656 212.555 167.674 212.857 166.806C213.159 165.918 213.603 165.163 214.188 164.54C214.773 163.917 215.462 163.445 216.255 163.125C217.067 162.785 217.973 162.615 218.973 162.615C220.313 162.615 221.474 162.907 222.456 163.493C223.438 164.078 224.193 164.908 224.721 165.984C225.269 167.042 225.542 168.297 225.542 169.75C225.542 170.845 225.391 171.827 225.089 172.695C224.787 173.564 224.344 174.319 223.759 174.96C223.173 175.583 222.475 176.065 221.663 176.405C220.87 176.725 219.974 176.886 218.973 176.886ZM218.973 175.045C219.823 175.045 220.568 174.838 221.21 174.422C221.852 174.007 222.343 173.403 222.683 172.61C223.041 171.817 223.221 170.864 223.221 169.75C223.221 168.033 222.834 166.721 222.06 165.815C221.305 164.908 220.276 164.455 218.973 164.455C218.105 164.455 217.35 164.663 216.708 165.078C216.085 165.475 215.594 166.069 215.236 166.862C214.896 167.636 214.726 168.599 214.726 169.75C214.726 171.449 215.113 172.761 215.887 173.686C216.661 174.592 217.69 175.045 218.973 175.045Z" fill="#101E37"/>
<rect x="74.4731" y="193.126" width="378.721" height="12.0341" rx="6.01706" fill="#D1D8E0"/>
<rect x="74.4731" y="246.217" width="378.721" height="12.0341" rx="6.01706" fill="#D1D8E0"/>
<rect x="74.4731" y="210.823" width="396.418" height="12.0341" rx="6.01706" fill="#D1D8E0"/>
<rect x="74.4731" y="228.52" width="385.8" height="12.0341" rx="6.01706" fill="#D1D8E0"/>
<g clip-path="url(#clip5_741_6548)">
<path d="M122.059 73.5924L112.853 55.6786C112.059 54.0884 110.432 53 108.543 53H108.539C106.653 53 105.023 54.0884 104.229 55.6786L97.7488 68.2879C97.0252 66.991 95.8716 65.9736 94.479 65.4237C96.0332 64.2918 97.0457 62.4473 97.0457 60.3667C97.0457 57.9539 95.685 55.8665 93.6963 54.8308C91.9442 53.9028 89.9441 53.3781 87.8234 53.3781H78.1301C76.1369 53.3781 74.5259 55.0004 74.5259 57.003V75.1689C74.5259 77.1715 76.1369 78.7938 78.1301 78.7938H88.613C90.6336 78.7938 92.5563 78.3722 94.3016 77.6206L94.966 77.2975C95.0024 77.2792 95.0388 77.2609 95.0752 77.2425C95.7055 78.2943 96.8455 79.0023 98.1584 79.0023C99.6169 79.0023 100.873 78.1316 101.44 76.8736C101.722 76.2091 102.359 75.7394 103.11 75.7027H113.97C114.723 75.7394 115.358 76.2091 115.64 76.8736C116.205 78.1316 117.463 79.0023 118.922 79.0023C120.913 79.0023 122.524 77.3754 122.524 75.3797C122.524 74.7289 122.357 74.1194 122.057 73.5947" fill="#153244"/>
</g>
<rect x="563.626" y="58.2365" width="89.9019" height="16.9893" rx="8" fill="#D1D8E0"/>
</g>
<rect x="1" y="1" width="726" height="254" rx="7" stroke="#E6EBF0" stroke-width="2"/>
<defs>
<clipPath id="clip0_741_6548">
<rect width="728" height="256" rx="8" fill="white"/>
</clipPath>
<clipPath id="clip1_741_6548">
<rect width="28" height="17" fill="white" transform="translate(74.4736 113.631)"/>
</clipPath>
<clipPath id="clip2_741_6548">
<rect width="45" height="17" fill="white" transform="translate(127.674 113.631)"/>
</clipPath>
<clipPath id="clip3_741_6548">
<rect width="45" height="17" fill="white" transform="translate(197.874 113.631)"/>
</clipPath>
<clipPath id="clip4_741_6548">
<rect width="80" height="17" fill="white" transform="translate(270.874 113.631)"/>
</clipPath>
<clipPath id="clip5_741_6548">
<rect width="48" height="26" fill="white" transform="translate(74.5259 53)"/>
</clipPath>
</defs>
</svg>
