<svg width="728" height="275" viewBox="0 0 728 275" fill="none" xmlns="http://www.w3.org/2000/svg">
<rect x="1" y="1" width="726" height="273" rx="7" fill="#F3F6F9"/>
<rect x="1" y="1" width="726" height="273" rx="7" stroke="#E6EBF0" stroke-width="2"/>
<g clip-path="url(#clip0_742_9596)">
<path d="M119.562 108.5V97.0781H120.891V108.5H119.562ZM127.891 99.7812C128.906 99.7812 129.674 100.031 130.195 100.531C130.716 101.026 130.977 101.823 130.977 102.922V108.5H129.695V103.008C129.695 102.294 129.531 101.76 129.203 101.406C128.88 101.052 128.383 100.875 127.711 100.875C126.763 100.875 126.096 101.143 125.711 101.68C125.326 102.216 125.133 102.995 125.133 104.016V108.5H123.836V99.9375H124.883L125.078 101.172H125.148C125.331 100.87 125.562 100.617 125.844 100.414C126.125 100.206 126.44 100.049 126.789 99.9453C127.138 99.8359 127.505 99.7812 127.891 99.7812ZM134.945 99.9375V108.5H133.648V99.9375H134.945ZM134.312 96.7344C134.526 96.7344 134.708 96.8047 134.859 96.9453C135.016 97.0807 135.094 97.2943 135.094 97.5859C135.094 97.8724 135.016 98.0859 134.859 98.2266C134.708 98.3672 134.526 98.4375 134.312 98.4375C134.089 98.4375 133.901 98.3672 133.75 98.2266C133.604 98.0859 133.531 97.8724 133.531 97.5859C133.531 97.2943 133.604 97.0807 133.75 96.9453C133.901 96.8047 134.089 96.7344 134.312 96.7344ZM141.125 108.656C140.354 108.656 139.674 108.497 139.086 108.18C138.497 107.862 138.039 107.378 137.711 106.727C137.383 106.076 137.219 105.255 137.219 104.266C137.219 103.229 137.391 102.383 137.734 101.727C138.083 101.065 138.562 100.576 139.172 100.258C139.781 99.9401 140.474 99.7812 141.25 99.7812C141.677 99.7812 142.089 99.8255 142.484 99.9141C142.885 99.9974 143.214 100.104 143.469 100.234L143.078 101.32C142.818 101.216 142.516 101.122 142.172 101.039C141.833 100.956 141.516 100.914 141.219 100.914C140.625 100.914 140.13 101.042 139.734 101.297C139.344 101.552 139.049 101.927 138.852 102.422C138.659 102.917 138.562 103.526 138.562 104.25C138.562 104.943 138.656 105.534 138.844 106.023C139.036 106.513 139.32 106.888 139.695 107.148C140.076 107.404 140.549 107.531 141.117 107.531C141.57 107.531 141.979 107.484 142.344 107.391C142.708 107.292 143.039 107.177 143.336 107.047V108.203C143.049 108.349 142.729 108.461 142.375 108.539C142.026 108.617 141.609 108.656 141.125 108.656ZM146.664 99.9375V108.5H145.367V99.9375H146.664ZM146.031 96.7344C146.245 96.7344 146.427 96.8047 146.578 96.9453C146.734 97.0807 146.812 97.2943 146.812 97.5859C146.812 97.8724 146.734 98.0859 146.578 98.2266C146.427 98.3672 146.245 98.4375 146.031 98.4375C145.807 98.4375 145.62 98.3672 145.469 98.2266C145.323 98.0859 145.25 97.8724 145.25 97.5859C145.25 97.2943 145.323 97.0807 145.469 96.9453C145.62 96.8047 145.807 96.7344 146.031 96.7344ZM156.797 104.203C156.797 104.906 156.706 105.534 156.523 106.086C156.341 106.638 156.078 107.104 155.734 107.484C155.391 107.865 154.974 108.156 154.484 108.359C154 108.557 153.451 108.656 152.836 108.656C152.263 108.656 151.737 108.557 151.258 108.359C150.784 108.156 150.372 107.865 150.023 107.484C149.68 107.104 149.411 106.638 149.219 106.086C149.031 105.534 148.938 104.906 148.938 104.203C148.938 103.266 149.096 102.469 149.414 101.812C149.732 101.151 150.185 100.648 150.773 100.305C151.367 99.9557 152.073 99.7812 152.891 99.7812C153.672 99.7812 154.354 99.9557 154.938 100.305C155.526 100.654 155.982 101.159 156.305 101.82C156.633 102.477 156.797 103.271 156.797 104.203ZM150.281 104.203C150.281 104.891 150.372 105.487 150.555 105.992C150.737 106.497 151.018 106.888 151.398 107.164C151.779 107.44 152.268 107.578 152.867 107.578C153.461 107.578 153.948 107.44 154.328 107.164C154.714 106.888 154.997 106.497 155.18 105.992C155.362 105.487 155.453 104.891 155.453 104.203C155.453 103.521 155.362 102.932 155.18 102.438C154.997 101.938 154.716 101.552 154.336 101.281C153.956 101.01 153.464 100.875 152.859 100.875C151.969 100.875 151.315 101.169 150.898 101.758C150.487 102.346 150.281 103.161 150.281 104.203Z" fill="#336ACC"/>
<path d="M118 111.02H157.672V113.02H118V111.02Z" fill="#336ACC"/>
</g>
<path d="M175 97.2106C174.61 97.6006 174.61 98.2306 175 98.6206L178.88 102.501L175 106.381C174.61 106.771 174.61 107.401 175 107.791C175.39 108.181 176.02 108.181 176.41 107.791L181 103.201C181.39 102.811 181.39 102.181 181 101.791L176.41 97.2006C176.03 96.8206 175.39 96.8206 175 97.2106Z" fill="#101E37"/>
<g clip-path="url(#clip1_742_9596)">
<path d="M204.602 108H203.266V97.75H199.672V96.5781H208.18V97.75H204.602V108ZM213.008 99.2812C213.737 99.2812 214.362 99.4427 214.883 99.7656C215.404 100.089 215.802 100.542 216.078 101.125C216.354 101.703 216.492 102.38 216.492 103.156V103.961H210.578C210.594 104.966 210.844 105.732 211.328 106.258C211.812 106.784 212.495 107.047 213.375 107.047C213.917 107.047 214.396 106.997 214.812 106.898C215.229 106.799 215.661 106.654 216.109 106.461V107.602C215.677 107.794 215.247 107.935 214.82 108.023C214.398 108.112 213.898 108.156 213.32 108.156C212.497 108.156 211.779 107.99 211.164 107.656C210.555 107.318 210.081 106.823 209.742 106.172C209.404 105.521 209.234 104.724 209.234 103.781C209.234 102.859 209.388 102.062 209.695 101.391C210.008 100.714 210.445 100.193 211.008 99.8281C211.576 99.4635 212.242 99.2812 213.008 99.2812ZM212.992 100.344C212.299 100.344 211.747 100.57 211.336 101.023C210.924 101.477 210.68 102.109 210.602 102.922H215.133C215.128 102.411 215.047 101.964 214.891 101.578C214.74 101.188 214.508 100.885 214.195 100.672C213.883 100.453 213.482 100.344 212.992 100.344ZM220.734 103.617L217.773 99.4375H219.258L221.516 102.734L223.766 99.4375H225.234L222.273 103.617L225.398 108H223.914L221.516 104.508L219.102 108H217.633L220.734 103.617ZM229.836 107.094C230.049 107.094 230.268 107.076 230.492 107.039C230.716 107.003 230.898 106.958 231.039 106.906V107.914C230.888 107.982 230.677 108.039 230.406 108.086C230.141 108.133 229.88 108.156 229.625 108.156C229.172 108.156 228.76 108.078 228.391 107.922C228.021 107.76 227.724 107.49 227.5 107.109C227.281 106.729 227.172 106.203 227.172 105.531V100.453H225.953V99.8203L227.18 99.3125L227.695 97.4531H228.477V99.4375H230.984V100.453H228.477V105.492C228.477 106.029 228.599 106.43 228.844 106.695C229.094 106.961 229.424 107.094 229.836 107.094ZM240.156 103.703C240.156 104.406 240.065 105.034 239.883 105.586C239.701 106.138 239.438 106.604 239.094 106.984C238.75 107.365 238.333 107.656 237.844 107.859C237.359 108.057 236.81 108.156 236.195 108.156C235.622 108.156 235.096 108.057 234.617 107.859C234.143 107.656 233.732 107.365 233.383 106.984C233.039 106.604 232.771 106.138 232.578 105.586C232.391 105.034 232.297 104.406 232.297 103.703C232.297 102.766 232.456 101.969 232.773 101.312C233.091 100.651 233.544 100.148 234.133 99.8047C234.727 99.4557 235.432 99.2812 236.25 99.2812C237.031 99.2812 237.714 99.4557 238.297 99.8047C238.885 100.154 239.341 100.659 239.664 101.32C239.992 101.977 240.156 102.771 240.156 103.703ZM233.641 103.703C233.641 104.391 233.732 104.987 233.914 105.492C234.096 105.997 234.378 106.388 234.758 106.664C235.138 106.94 235.628 107.078 236.227 107.078C236.82 107.078 237.307 106.94 237.688 106.664C238.073 106.388 238.357 105.997 238.539 105.492C238.721 104.987 238.812 104.391 238.812 103.703C238.812 103.021 238.721 102.432 238.539 101.938C238.357 101.438 238.076 101.052 237.695 100.781C237.315 100.51 236.823 100.375 236.219 100.375C235.328 100.375 234.674 100.669 234.258 101.258C233.846 101.846 233.641 102.661 233.641 103.703ZM249.984 108.156C249.214 108.156 248.534 107.997 247.945 107.68C247.357 107.362 246.898 106.878 246.57 106.227C246.242 105.576 246.078 104.755 246.078 103.766C246.078 102.729 246.25 101.883 246.594 101.227C246.943 100.565 247.422 100.076 248.031 99.7578C248.641 99.4401 249.333 99.2812 250.109 99.2812C250.536 99.2812 250.948 99.3255 251.344 99.4141C251.745 99.4974 252.073 99.6042 252.328 99.7344L251.938 100.82C251.677 100.716 251.375 100.622 251.031 100.539C250.693 100.456 250.375 100.414 250.078 100.414C249.484 100.414 248.99 100.542 248.594 100.797C248.203 101.052 247.909 101.427 247.711 101.922C247.518 102.417 247.422 103.026 247.422 103.75C247.422 104.443 247.516 105.034 247.703 105.523C247.896 106.013 248.18 106.388 248.555 106.648C248.935 106.904 249.409 107.031 249.977 107.031C250.43 107.031 250.839 106.984 251.203 106.891C251.568 106.792 251.898 106.677 252.195 106.547V107.703C251.909 107.849 251.589 107.961 251.234 108.039C250.885 108.117 250.469 108.156 249.984 108.156ZM261.609 103.703C261.609 104.406 261.518 105.034 261.336 105.586C261.154 106.138 260.891 106.604 260.547 106.984C260.203 107.365 259.786 107.656 259.297 107.859C258.812 108.057 258.263 108.156 257.648 108.156C257.076 108.156 256.549 108.057 256.07 107.859C255.596 107.656 255.185 107.365 254.836 106.984C254.492 106.604 254.224 106.138 254.031 105.586C253.844 105.034 253.75 104.406 253.75 103.703C253.75 102.766 253.909 101.969 254.227 101.312C254.544 100.651 254.997 100.148 255.586 99.8047C256.18 99.4557 256.885 99.2812 257.703 99.2812C258.484 99.2812 259.167 99.4557 259.75 99.8047C260.339 100.154 260.794 100.659 261.117 101.32C261.445 101.977 261.609 102.771 261.609 103.703ZM255.094 103.703C255.094 104.391 255.185 104.987 255.367 105.492C255.549 105.997 255.831 106.388 256.211 106.664C256.591 106.94 257.081 107.078 257.68 107.078C258.273 107.078 258.76 106.94 259.141 106.664C259.526 106.388 259.81 105.997 259.992 105.492C260.174 104.987 260.266 104.391 260.266 103.703C260.266 103.021 260.174 102.432 259.992 101.938C259.81 101.438 259.529 101.052 259.148 100.781C258.768 100.51 258.276 100.375 257.672 100.375C256.781 100.375 256.128 100.669 255.711 101.258C255.299 101.846 255.094 102.661 255.094 103.703ZM267.906 99.2812C268.922 99.2812 269.69 99.5312 270.211 100.031C270.732 100.526 270.992 101.323 270.992 102.422V108H269.711V102.508C269.711 101.794 269.547 101.26 269.219 100.906C268.896 100.552 268.398 100.375 267.727 100.375C266.779 100.375 266.112 100.643 265.727 101.18C265.341 101.716 265.148 102.495 265.148 103.516V108H263.852V99.4375H264.898L265.094 100.672H265.164C265.346 100.37 265.578 100.117 265.859 99.9141C266.141 99.7057 266.456 99.5495 266.805 99.4453C267.154 99.3359 267.521 99.2812 267.906 99.2812ZM287.117 99.2812C288.06 99.2812 288.771 99.5286 289.25 100.023C289.729 100.513 289.969 101.302 289.969 102.391V108H288.688V102.453C288.688 101.76 288.536 101.242 288.234 100.898C287.938 100.549 287.495 100.375 286.906 100.375C286.078 100.375 285.477 100.615 285.102 101.094C284.727 101.573 284.539 102.279 284.539 103.211V108H283.25V102.453C283.25 101.99 283.182 101.604 283.047 101.297C282.917 100.99 282.719 100.76 282.453 100.609C282.193 100.453 281.862 100.375 281.461 100.375C280.893 100.375 280.438 100.492 280.094 100.727C279.75 100.961 279.5 101.31 279.344 101.773C279.193 102.232 279.117 102.797 279.117 103.469V108H277.82V99.4375H278.867L279.062 100.648H279.133C279.305 100.352 279.521 100.102 279.781 99.8984C280.042 99.6953 280.333 99.5417 280.656 99.4375C280.979 99.3333 281.323 99.2812 281.688 99.2812C282.339 99.2812 282.883 99.4036 283.32 99.6484C283.763 99.888 284.083 100.255 284.281 100.75H284.352C284.633 100.255 285.018 99.888 285.508 99.6484C285.997 99.4036 286.534 99.2812 287.117 99.2812ZM295.836 99.2969C296.857 99.2969 297.615 99.526 298.109 99.9844C298.604 100.443 298.852 101.174 298.852 102.18V108H297.906L297.656 106.734H297.594C297.354 107.047 297.104 107.31 296.844 107.523C296.583 107.732 296.281 107.891 295.938 108C295.599 108.104 295.182 108.156 294.688 108.156C294.167 108.156 293.703 108.065 293.297 107.883C292.896 107.701 292.578 107.424 292.344 107.055C292.115 106.685 292 106.216 292 105.648C292 104.794 292.339 104.138 293.016 103.68C293.693 103.221 294.724 102.971 296.109 102.93L297.586 102.867V102.344C297.586 101.604 297.427 101.086 297.109 100.789C296.792 100.492 296.344 100.344 295.766 100.344C295.318 100.344 294.891 100.409 294.484 100.539C294.078 100.669 293.693 100.823 293.328 101L292.93 100.016C293.315 99.8177 293.758 99.6484 294.258 99.5078C294.758 99.3672 295.284 99.2969 295.836 99.2969ZM297.57 103.781L296.266 103.836C295.198 103.878 294.445 104.052 294.008 104.359C293.57 104.667 293.352 105.102 293.352 105.664C293.352 106.154 293.5 106.516 293.797 106.75C294.094 106.984 294.487 107.102 294.977 107.102C295.737 107.102 296.359 106.891 296.844 106.469C297.328 106.047 297.57 105.414 297.57 104.57V103.781ZM297.977 95.7422V95.8984C297.872 96.0495 297.729 96.2318 297.547 96.4453C297.37 96.6536 297.172 96.875 296.953 97.1094C296.734 97.3385 296.513 97.5573 296.289 97.7656C296.07 97.974 295.867 98.1536 295.68 98.3047H294.812V98.1172C294.979 97.9193 295.161 97.6823 295.359 97.4062C295.557 97.125 295.75 96.8385 295.938 96.5469C296.125 96.25 296.281 95.9818 296.406 95.7422H297.977ZM307.062 105.656C307.062 106.203 306.924 106.664 306.648 107.039C306.378 107.409 305.987 107.688 305.477 107.875C304.971 108.062 304.367 108.156 303.664 108.156C303.065 108.156 302.547 108.109 302.109 108.016C301.672 107.922 301.289 107.789 300.961 107.617V106.422C301.31 106.594 301.727 106.75 302.211 106.891C302.695 107.031 303.19 107.102 303.695 107.102C304.435 107.102 304.971 106.982 305.305 106.742C305.638 106.503 305.805 106.177 305.805 105.766C305.805 105.531 305.737 105.326 305.602 105.148C305.471 104.966 305.25 104.792 304.938 104.625C304.625 104.453 304.193 104.266 303.641 104.062C303.094 103.854 302.62 103.648 302.219 103.445C301.823 103.237 301.516 102.984 301.297 102.688C301.083 102.391 300.977 102.005 300.977 101.531C300.977 100.807 301.268 100.253 301.852 99.8672C302.44 99.4766 303.211 99.2812 304.164 99.2812C304.68 99.2812 305.161 99.3333 305.609 99.4375C306.062 99.5365 306.484 99.6719 306.875 99.8438L306.438 100.883C306.083 100.732 305.706 100.604 305.305 100.5C304.904 100.396 304.495 100.344 304.078 100.344C303.479 100.344 303.018 100.443 302.695 100.641C302.378 100.839 302.219 101.109 302.219 101.453C302.219 101.719 302.292 101.938 302.438 102.109C302.589 102.281 302.828 102.443 303.156 102.594C303.484 102.745 303.917 102.922 304.453 103.125C304.99 103.323 305.453 103.529 305.844 103.742C306.234 103.951 306.534 104.206 306.742 104.508C306.956 104.805 307.062 105.188 307.062 105.656ZM316.352 108.156C315.268 108.156 314.409 107.786 313.773 107.047C313.143 106.307 312.828 105.208 312.828 103.75C312.828 102.276 313.151 101.164 313.797 100.414C314.443 99.6589 315.302 99.2812 316.375 99.2812C316.828 99.2812 317.224 99.3411 317.562 99.4609C317.901 99.5807 318.193 99.7422 318.438 99.9453C318.682 100.143 318.888 100.37 319.055 100.625H319.148C319.128 100.464 319.107 100.242 319.086 99.9609C319.065 99.6797 319.055 99.4505 319.055 99.2734V95.8438H320.352V108H319.305L319.109 106.781H319.055C318.893 107.036 318.688 107.268 318.438 107.477C318.193 107.685 317.898 107.852 317.555 107.977C317.216 108.096 316.815 108.156 316.352 108.156ZM316.555 107.078C317.471 107.078 318.12 106.818 318.5 106.297C318.88 105.776 319.07 105.003 319.07 103.977V103.742C319.07 102.654 318.888 101.818 318.523 101.234C318.164 100.651 317.508 100.359 316.555 100.359C315.758 100.359 315.161 100.667 314.766 101.281C314.37 101.891 314.172 102.724 314.172 103.781C314.172 104.833 314.367 105.646 314.758 106.219C315.154 106.792 315.753 107.078 316.555 107.078ZM326.398 99.2812C327.128 99.2812 327.753 99.4427 328.273 99.7656C328.794 100.089 329.193 100.542 329.469 101.125C329.745 101.703 329.883 102.38 329.883 103.156V103.961H323.969C323.984 104.966 324.234 105.732 324.719 106.258C325.203 106.784 325.885 107.047 326.766 107.047C327.307 107.047 327.786 106.997 328.203 106.898C328.62 106.799 329.052 106.654 329.5 106.461V107.602C329.068 107.794 328.638 107.935 328.211 108.023C327.789 108.112 327.289 108.156 326.711 108.156C325.888 108.156 325.169 107.99 324.555 107.656C323.945 107.318 323.471 106.823 323.133 106.172C322.794 105.521 322.625 104.724 322.625 103.781C322.625 102.859 322.779 102.062 323.086 101.391C323.398 100.714 323.836 100.193 324.398 99.8281C324.966 99.4635 325.633 99.2812 326.398 99.2812ZM326.383 100.344C325.69 100.344 325.138 100.57 324.727 101.023C324.315 101.477 324.07 102.109 323.992 102.922H328.523C328.518 102.411 328.438 101.964 328.281 101.578C328.13 101.188 327.898 100.885 327.586 100.672C327.273 100.453 326.872 100.344 326.383 100.344ZM339.289 108.156C338.206 108.156 337.346 107.786 336.711 107.047C336.081 106.307 335.766 105.208 335.766 103.75C335.766 102.276 336.089 101.164 336.734 100.414C337.38 99.6589 338.24 99.2812 339.312 99.2812C339.766 99.2812 340.161 99.3411 340.5 99.4609C340.839 99.5807 341.13 99.7422 341.375 99.9453C341.62 100.143 341.826 100.37 341.992 100.625H342.086C342.065 100.464 342.044 100.242 342.023 99.9609C342.003 99.6797 341.992 99.4505 341.992 99.2734V95.8438H343.289V108H342.242L342.047 106.781H341.992C341.831 107.036 341.625 107.268 341.375 107.477C341.13 107.685 340.836 107.852 340.492 107.977C340.154 108.096 339.753 108.156 339.289 108.156ZM339.492 107.078C340.409 107.078 341.057 106.818 341.438 106.297C341.818 105.776 342.008 105.003 342.008 103.977V103.742C342.008 102.654 341.826 101.818 341.461 101.234C341.102 100.651 340.445 100.359 339.492 100.359C338.695 100.359 338.099 100.667 337.703 101.281C337.307 101.891 337.109 102.724 337.109 103.781C337.109 104.833 337.305 105.646 337.695 106.219C338.091 106.792 338.69 107.078 339.492 107.078ZM353.422 103.703C353.422 104.406 353.331 105.034 353.148 105.586C352.966 106.138 352.703 106.604 352.359 106.984C352.016 107.365 351.599 107.656 351.109 107.859C350.625 108.057 350.076 108.156 349.461 108.156C348.888 108.156 348.362 108.057 347.883 107.859C347.409 107.656 346.997 107.365 346.648 106.984C346.305 106.604 346.036 106.138 345.844 105.586C345.656 105.034 345.562 104.406 345.562 103.703C345.562 102.766 345.721 101.969 346.039 101.312C346.357 100.651 346.81 100.148 347.398 99.8047C347.992 99.4557 348.698 99.2812 349.516 99.2812C350.297 99.2812 350.979 99.4557 351.562 99.8047C352.151 100.154 352.607 100.659 352.93 101.32C353.258 101.977 353.422 102.771 353.422 103.703ZM346.906 103.703C346.906 104.391 346.997 104.987 347.18 105.492C347.362 105.997 347.643 106.388 348.023 106.664C348.404 106.94 348.893 107.078 349.492 107.078C350.086 107.078 350.573 106.94 350.953 106.664C351.339 106.388 351.622 105.997 351.805 105.492C351.987 104.987 352.078 104.391 352.078 103.703C352.078 103.021 351.987 102.432 351.805 101.938C351.622 101.438 351.341 101.052 350.961 100.781C350.581 100.51 350.089 100.375 349.484 100.375C348.594 100.375 347.94 100.669 347.523 101.258C347.112 101.846 346.906 102.661 346.906 103.703ZM361.203 105.656C361.203 106.203 361.065 106.664 360.789 107.039C360.518 107.409 360.128 107.688 359.617 107.875C359.112 108.062 358.508 108.156 357.805 108.156C357.206 108.156 356.688 108.109 356.25 108.016C355.812 107.922 355.43 107.789 355.102 107.617V106.422C355.451 106.594 355.867 106.75 356.352 106.891C356.836 107.031 357.331 107.102 357.836 107.102C358.576 107.102 359.112 106.982 359.445 106.742C359.779 106.503 359.945 106.177 359.945 105.766C359.945 105.531 359.878 105.326 359.742 105.148C359.612 104.966 359.391 104.792 359.078 104.625C358.766 104.453 358.333 104.266 357.781 104.062C357.234 103.854 356.76 103.648 356.359 103.445C355.964 103.237 355.656 102.984 355.438 102.688C355.224 102.391 355.117 102.005 355.117 101.531C355.117 100.807 355.409 100.253 355.992 99.8672C356.581 99.4766 357.352 99.2812 358.305 99.2812C358.82 99.2812 359.302 99.3333 359.75 99.4375C360.203 99.5365 360.625 99.6719 361.016 99.8438L360.578 100.883C360.224 100.732 359.846 100.604 359.445 100.5C359.044 100.396 358.635 100.344 358.219 100.344C357.62 100.344 357.159 100.443 356.836 100.641C356.518 100.839 356.359 101.109 356.359 101.453C356.359 101.719 356.432 101.938 356.578 102.109C356.729 102.281 356.969 102.443 357.297 102.594C357.625 102.745 358.057 102.922 358.594 103.125C359.13 103.323 359.594 103.529 359.984 103.742C360.375 103.951 360.674 104.206 360.883 104.508C361.096 104.805 361.203 105.188 361.203 105.656ZM366.719 108.156C365.948 108.156 365.268 107.997 364.68 107.68C364.091 107.362 363.633 106.878 363.305 106.227C362.977 105.576 362.812 104.755 362.812 103.766C362.812 102.729 362.984 101.883 363.328 101.227C363.677 100.565 364.156 100.076 364.766 99.7578C365.375 99.4401 366.068 99.2812 366.844 99.2812C367.271 99.2812 367.682 99.3255 368.078 99.4141C368.479 99.4974 368.807 99.6042 369.062 99.7344L368.672 100.82C368.411 100.716 368.109 100.622 367.766 100.539C367.427 100.456 367.109 100.414 366.812 100.414C366.219 100.414 365.724 100.542 365.328 100.797C364.938 101.052 364.643 101.427 364.445 101.922C364.253 102.417 364.156 103.026 364.156 103.75C364.156 104.443 364.25 105.034 364.438 105.523C364.63 106.013 364.914 106.388 365.289 106.648C365.669 106.904 366.143 107.031 366.711 107.031C367.164 107.031 367.573 106.984 367.938 106.891C368.302 106.792 368.633 106.677 368.93 106.547V107.703C368.643 107.849 368.323 107.961 367.969 108.039C367.62 108.117 367.203 108.156 366.719 108.156ZM372.258 99.4375V108H370.961V99.4375H372.258ZM371.625 96.2344C371.839 96.2344 372.021 96.3047 372.172 96.4453C372.328 96.5807 372.406 96.7943 372.406 97.0859C372.406 97.3724 372.328 97.5859 372.172 97.7266C372.021 97.8672 371.839 97.9375 371.625 97.9375C371.401 97.9375 371.214 97.8672 371.062 97.7266C370.917 97.5859 370.844 97.3724 370.844 97.0859C370.844 96.7943 370.917 96.5807 371.062 96.4453C371.214 96.3047 371.401 96.2344 371.625 96.2344ZM378.305 99.2812C379.034 99.2812 379.659 99.4427 380.18 99.7656C380.701 100.089 381.099 100.542 381.375 101.125C381.651 101.703 381.789 102.38 381.789 103.156V103.961H375.875C375.891 104.966 376.141 105.732 376.625 106.258C377.109 106.784 377.792 107.047 378.672 107.047C379.214 107.047 379.693 106.997 380.109 106.898C380.526 106.799 380.958 106.654 381.406 106.461V107.602C380.974 107.794 380.544 107.935 380.117 108.023C379.695 108.112 379.195 108.156 378.617 108.156C377.794 108.156 377.076 107.99 376.461 107.656C375.852 107.318 375.378 106.823 375.039 106.172C374.701 105.521 374.531 104.724 374.531 103.781C374.531 102.859 374.685 102.062 374.992 101.391C375.305 100.714 375.742 100.193 376.305 99.8281C376.872 99.4635 377.539 99.2812 378.305 99.2812ZM378.289 100.344C377.596 100.344 377.044 100.57 376.633 101.023C376.221 101.477 375.977 102.109 375.898 102.922H380.43C380.424 102.411 380.344 101.964 380.188 101.578C380.036 101.188 379.805 100.885 379.492 100.672C379.18 100.453 378.779 100.344 378.289 100.344ZM388.047 99.2812C389.062 99.2812 389.831 99.5312 390.352 100.031C390.872 100.526 391.133 101.323 391.133 102.422V108H389.852V102.508C389.852 101.794 389.688 101.26 389.359 100.906C389.036 100.552 388.539 100.375 387.867 100.375C386.919 100.375 386.253 100.643 385.867 101.18C385.482 101.716 385.289 102.495 385.289 103.516V108H383.992V99.4375H385.039L385.234 100.672H385.305C385.487 100.37 385.719 100.117 386 99.9141C386.281 99.7057 386.596 99.5495 386.945 99.4453C387.294 99.3359 387.661 99.2812 388.047 99.2812ZM396.57 107.094C396.784 107.094 397.003 107.076 397.227 107.039C397.451 107.003 397.633 106.958 397.773 106.906V107.914C397.622 107.982 397.411 108.039 397.141 108.086C396.875 108.133 396.615 108.156 396.359 108.156C395.906 108.156 395.495 108.078 395.125 107.922C394.755 107.76 394.458 107.49 394.234 107.109C394.016 106.729 393.906 106.203 393.906 105.531V100.453H392.688V99.8203L393.914 99.3125L394.43 97.4531H395.211V99.4375H397.719V100.453H395.211V105.492C395.211 106.029 395.333 106.43 395.578 106.695C395.828 106.961 396.159 107.094 396.57 107.094ZM406.891 103.703C406.891 104.406 406.799 105.034 406.617 105.586C406.435 106.138 406.172 106.604 405.828 106.984C405.484 107.365 405.068 107.656 404.578 107.859C404.094 108.057 403.544 108.156 402.93 108.156C402.357 108.156 401.831 108.057 401.352 107.859C400.878 107.656 400.466 107.365 400.117 106.984C399.773 106.604 399.505 106.138 399.312 105.586C399.125 105.034 399.031 104.406 399.031 103.703C399.031 102.766 399.19 101.969 399.508 101.312C399.826 100.651 400.279 100.148 400.867 99.8047C401.461 99.4557 402.167 99.2812 402.984 99.2812C403.766 99.2812 404.448 99.4557 405.031 99.8047C405.62 100.154 406.076 100.659 406.398 101.32C406.727 101.977 406.891 102.771 406.891 103.703ZM400.375 103.703C400.375 104.391 400.466 104.987 400.648 105.492C400.831 105.997 401.112 106.388 401.492 106.664C401.872 106.94 402.362 107.078 402.961 107.078C403.555 107.078 404.042 106.94 404.422 106.664C404.807 106.388 405.091 105.997 405.273 105.492C405.456 104.987 405.547 104.391 405.547 103.703C405.547 103.021 405.456 102.432 405.273 101.938C405.091 101.438 404.81 101.052 404.43 100.781C404.049 100.51 403.557 100.375 402.953 100.375C402.062 100.375 401.409 100.669 400.992 101.258C400.581 101.846 400.375 102.661 400.375 103.703ZM414.672 105.656C414.672 106.203 414.534 106.664 414.258 107.039C413.987 107.409 413.596 107.688 413.086 107.875C412.581 108.062 411.977 108.156 411.273 108.156C410.674 108.156 410.156 108.109 409.719 108.016C409.281 107.922 408.898 107.789 408.57 107.617V106.422C408.919 106.594 409.336 106.75 409.82 106.891C410.305 107.031 410.799 107.102 411.305 107.102C412.044 107.102 412.581 106.982 412.914 106.742C413.247 106.503 413.414 106.177 413.414 105.766C413.414 105.531 413.346 105.326 413.211 105.148C413.081 104.966 412.859 104.792 412.547 104.625C412.234 104.453 411.802 104.266 411.25 104.062C410.703 103.854 410.229 103.648 409.828 103.445C409.432 103.237 409.125 102.984 408.906 102.688C408.693 102.391 408.586 102.005 408.586 101.531C408.586 100.807 408.878 100.253 409.461 99.8672C410.049 99.4766 410.82 99.2812 411.773 99.2812C412.289 99.2812 412.771 99.3333 413.219 99.4375C413.672 99.5365 414.094 99.6719 414.484 99.8438L414.047 100.883C413.693 100.732 413.315 100.604 412.914 100.5C412.513 100.396 412.104 100.344 411.688 100.344C411.089 100.344 410.628 100.443 410.305 100.641C409.987 100.839 409.828 101.109 409.828 101.453C409.828 101.719 409.901 101.938 410.047 102.109C410.198 102.281 410.438 102.443 410.766 102.594C411.094 102.745 411.526 102.922 412.062 103.125C412.599 103.323 413.062 103.529 413.453 103.742C413.844 103.951 414.143 104.206 414.352 104.508C414.565 104.805 414.672 105.188 414.672 105.656ZM424.344 108.156C423.573 108.156 422.893 107.997 422.305 107.68C421.716 107.362 421.258 106.878 420.93 106.227C420.602 105.576 420.438 104.755 420.438 103.766C420.438 102.729 420.609 101.883 420.953 101.227C421.302 100.565 421.781 100.076 422.391 99.7578C423 99.4401 423.693 99.2812 424.469 99.2812C424.896 99.2812 425.307 99.3255 425.703 99.4141C426.104 99.4974 426.432 99.6042 426.688 99.7344L426.297 100.82C426.036 100.716 425.734 100.622 425.391 100.539C425.052 100.456 424.734 100.414 424.438 100.414C423.844 100.414 423.349 100.542 422.953 100.797C422.562 101.052 422.268 101.427 422.07 101.922C421.878 102.417 421.781 103.026 421.781 103.75C421.781 104.443 421.875 105.034 422.062 105.523C422.255 106.013 422.539 106.388 422.914 106.648C423.294 106.904 423.768 107.031 424.336 107.031C424.789 107.031 425.198 106.984 425.562 106.891C425.927 106.792 426.258 106.677 426.555 106.547V107.703C426.268 107.849 425.948 107.961 425.594 108.039C425.245 108.117 424.828 108.156 424.344 108.156ZM429.883 99.4375V108H428.586V99.4375H429.883ZM429.25 96.2344C429.464 96.2344 429.646 96.3047 429.797 96.4453C429.953 96.5807 430.031 96.7943 430.031 97.0859C430.031 97.3724 429.953 97.5859 429.797 97.7266C429.646 97.8672 429.464 97.9375 429.25 97.9375C429.026 97.9375 428.839 97.8672 428.688 97.7266C428.542 97.5859 428.469 97.3724 428.469 97.0859C428.469 96.7943 428.542 96.5807 428.688 96.4453C428.839 96.3047 429.026 96.2344 429.25 96.2344ZM436.688 99.2812C437.703 99.2812 438.471 99.5312 438.992 100.031C439.513 100.526 439.773 101.323 439.773 102.422V108H438.492V102.508C438.492 101.794 438.328 101.26 438 100.906C437.677 100.552 437.18 100.375 436.508 100.375C435.56 100.375 434.893 100.643 434.508 101.18C434.122 101.716 433.93 102.495 433.93 103.516V108H432.633V99.4375H433.68L433.875 100.672H433.945C434.128 100.37 434.359 100.117 434.641 99.9141C434.922 99.7057 435.237 99.5495 435.586 99.4453C435.935 99.3359 436.302 99.2812 436.688 99.2812ZM442.25 107.188C442.25 106.823 442.339 106.565 442.516 106.414C442.693 106.258 442.909 106.18 443.164 106.18C443.43 106.18 443.654 106.258 443.836 106.414C444.018 106.565 444.109 106.823 444.109 107.188C444.109 107.547 444.018 107.81 443.836 107.977C443.654 108.138 443.43 108.219 443.164 108.219C442.909 108.219 442.693 108.138 442.516 107.977C442.339 107.81 442.25 107.547 442.25 107.188ZM446.453 107.188C446.453 106.823 446.542 106.565 446.719 106.414C446.896 106.258 447.112 106.18 447.367 106.18C447.633 106.18 447.857 106.258 448.039 106.414C448.221 106.565 448.312 106.823 448.312 107.188C448.312 107.547 448.221 107.81 448.039 107.977C447.857 108.138 447.633 108.219 447.367 108.219C447.112 108.219 446.896 108.138 446.719 107.977C446.542 107.81 446.453 107.547 446.453 107.188ZM454.148 99.2812C454.878 99.2812 455.503 99.4427 456.023 99.7656C456.544 100.089 456.943 100.542 457.219 101.125C457.495 101.703 457.633 102.38 457.633 103.156V103.961H451.719C451.734 104.966 451.984 105.732 452.469 106.258C452.953 106.784 453.635 107.047 454.516 107.047C455.057 107.047 455.536 106.997 455.953 106.898C456.37 106.799 456.802 106.654 457.25 106.461V107.602C456.818 107.794 456.388 107.935 455.961 108.023C455.539 108.112 455.039 108.156 454.461 108.156C453.638 108.156 452.919 107.99 452.305 107.656C451.695 107.318 451.221 106.823 450.883 106.172C450.544 105.521 450.375 104.724 450.375 103.781C450.375 102.859 450.529 102.062 450.836 101.391C451.148 100.714 451.586 100.193 452.148 99.8281C452.716 99.4635 453.383 99.2812 454.148 99.2812ZM454.133 100.344C453.44 100.344 452.888 100.57 452.477 101.023C452.065 101.477 451.82 102.109 451.742 102.922H456.273C456.268 102.411 456.188 101.964 456.031 101.578C455.88 101.188 455.648 100.885 455.336 100.672C455.023 100.453 454.622 100.344 454.133 100.344ZM463.891 99.2812C464.906 99.2812 465.674 99.5312 466.195 100.031C466.716 100.526 466.977 101.323 466.977 102.422V108H465.695V102.508C465.695 101.794 465.531 101.26 465.203 100.906C464.88 100.552 464.383 100.375 463.711 100.375C462.763 100.375 462.096 100.643 461.711 101.18C461.326 101.716 461.133 102.495 461.133 103.516V108H459.836V99.4375H460.883L461.078 100.672H461.148C461.331 100.37 461.562 100.117 461.844 99.9141C462.125 99.7057 462.44 99.5495 462.789 99.4453C463.138 99.3359 463.505 99.2812 463.891 99.2812ZM472.414 107.094C472.628 107.094 472.846 107.076 473.07 107.039C473.294 107.003 473.477 106.958 473.617 106.906V107.914C473.466 107.982 473.255 108.039 472.984 108.086C472.719 108.133 472.458 108.156 472.203 108.156C471.75 108.156 471.339 108.078 470.969 107.922C470.599 107.76 470.302 107.49 470.078 107.109C469.859 106.729 469.75 106.203 469.75 105.531V100.453H468.531V99.8203L469.758 99.3125L470.273 97.4531H471.055V99.4375H473.562V100.453H471.055V105.492C471.055 106.029 471.177 106.43 471.422 106.695C471.672 106.961 472.003 107.094 472.414 107.094ZM478.555 99.2969C479.576 99.2969 480.333 99.526 480.828 99.9844C481.323 100.443 481.57 101.174 481.57 102.18V108H480.625L480.375 106.734H480.312C480.073 107.047 479.823 107.31 479.562 107.523C479.302 107.732 479 107.891 478.656 108C478.318 108.104 477.901 108.156 477.406 108.156C476.885 108.156 476.422 108.065 476.016 107.883C475.615 107.701 475.297 107.424 475.062 107.055C474.833 106.685 474.719 106.216 474.719 105.648C474.719 104.794 475.057 104.138 475.734 103.68C476.411 103.221 477.443 102.971 478.828 102.93L480.305 102.867V102.344C480.305 101.604 480.146 101.086 479.828 100.789C479.51 100.492 479.062 100.344 478.484 100.344C478.036 100.344 477.609 100.409 477.203 100.539C476.797 100.669 476.411 100.823 476.047 101L475.648 100.016C476.034 99.8177 476.477 99.6484 476.977 99.5078C477.477 99.3672 478.003 99.2969 478.555 99.2969ZM480.289 103.781L478.984 103.836C477.917 103.878 477.164 104.052 476.727 104.359C476.289 104.667 476.07 105.102 476.07 105.664C476.07 106.154 476.219 106.516 476.516 106.75C476.812 106.984 477.206 107.102 477.695 107.102C478.456 107.102 479.078 106.891 479.562 106.469C480.047 106.047 480.289 105.414 480.289 104.57V103.781ZM491.828 108.156C491.057 108.156 490.378 107.997 489.789 107.68C489.201 107.362 488.742 106.878 488.414 106.227C488.086 105.576 487.922 104.755 487.922 103.766C487.922 102.729 488.094 101.883 488.438 101.227C488.786 100.565 489.266 100.076 489.875 99.7578C490.484 99.4401 491.177 99.2812 491.953 99.2812C492.38 99.2812 492.792 99.3255 493.188 99.4141C493.589 99.4974 493.917 99.6042 494.172 99.7344L493.781 100.82C493.521 100.716 493.219 100.622 492.875 100.539C492.536 100.456 492.219 100.414 491.922 100.414C491.328 100.414 490.833 100.542 490.438 100.797C490.047 101.052 489.753 101.427 489.555 101.922C489.362 102.417 489.266 103.026 489.266 103.75C489.266 104.443 489.359 105.034 489.547 105.523C489.74 106.013 490.023 106.388 490.398 106.648C490.779 106.904 491.253 107.031 491.82 107.031C492.273 107.031 492.682 106.984 493.047 106.891C493.411 106.792 493.742 106.677 494.039 106.547V107.703C493.753 107.849 493.432 107.961 493.078 108.039C492.729 108.117 492.312 108.156 491.828 108.156ZM499.273 99.2969C500.294 99.2969 501.052 99.526 501.547 99.9844C502.042 100.443 502.289 101.174 502.289 102.18V108H501.344L501.094 106.734H501.031C500.792 107.047 500.542 107.31 500.281 107.523C500.021 107.732 499.719 107.891 499.375 108C499.036 108.104 498.62 108.156 498.125 108.156C497.604 108.156 497.141 108.065 496.734 107.883C496.333 107.701 496.016 107.424 495.781 107.055C495.552 106.685 495.438 106.216 495.438 105.648C495.438 104.794 495.776 104.138 496.453 103.68C497.13 103.221 498.161 102.971 499.547 102.93L501.023 102.867V102.344C501.023 101.604 500.865 101.086 500.547 100.789C500.229 100.492 499.781 100.344 499.203 100.344C498.755 100.344 498.328 100.409 497.922 100.539C497.516 100.669 497.13 100.823 496.766 101L496.367 100.016C496.753 99.8177 497.195 99.6484 497.695 99.5078C498.195 99.3672 498.721 99.2969 499.273 99.2969ZM501.008 103.781L499.703 103.836C498.635 103.878 497.883 104.052 497.445 104.359C497.008 104.667 496.789 105.102 496.789 105.664C496.789 106.154 496.938 106.516 497.234 106.75C497.531 106.984 497.924 107.102 498.414 107.102C499.174 107.102 499.797 106.891 500.281 106.469C500.766 106.047 501.008 105.414 501.008 104.57V103.781ZM508.852 99.2812C509.023 99.2812 509.203 99.2917 509.391 99.3125C509.578 99.3281 509.745 99.3516 509.891 99.3828L509.727 100.586C509.586 100.549 509.43 100.521 509.258 100.5C509.086 100.479 508.924 100.469 508.773 100.469C508.43 100.469 508.104 100.539 507.797 100.68C507.495 100.815 507.229 101.013 507 101.273C506.771 101.529 506.591 101.839 506.461 102.203C506.331 102.562 506.266 102.964 506.266 103.406V108H504.961V99.4375H506.039L506.18 101.016H506.234C506.411 100.698 506.625 100.409 506.875 100.148C507.125 99.8828 507.414 99.6719 507.742 99.5156C508.076 99.3594 508.445 99.2812 508.852 99.2812ZM514.711 99.2969C515.732 99.2969 516.49 99.526 516.984 99.9844C517.479 100.443 517.727 101.174 517.727 102.18V108H516.781L516.531 106.734H516.469C516.229 107.047 515.979 107.31 515.719 107.523C515.458 107.732 515.156 107.891 514.812 108C514.474 108.104 514.057 108.156 513.562 108.156C513.042 108.156 512.578 108.065 512.172 107.883C511.771 107.701 511.453 107.424 511.219 107.055C510.99 106.685 510.875 106.216 510.875 105.648C510.875 104.794 511.214 104.138 511.891 103.68C512.568 103.221 513.599 102.971 514.984 102.93L516.461 102.867V102.344C516.461 101.604 516.302 101.086 515.984 100.789C515.667 100.492 515.219 100.344 514.641 100.344C514.193 100.344 513.766 100.409 513.359 100.539C512.953 100.669 512.568 100.823 512.203 101L511.805 100.016C512.19 99.8177 512.633 99.6484 513.133 99.5078C513.633 99.3672 514.159 99.2969 514.711 99.2969ZM516.445 103.781L515.141 103.836C514.073 103.878 513.32 104.052 512.883 104.359C512.445 104.667 512.227 105.102 512.227 105.664C512.227 106.154 512.375 106.516 512.672 106.75C512.969 106.984 513.362 107.102 513.852 107.102C514.612 107.102 515.234 106.891 515.719 106.469C516.203 106.047 516.445 105.414 516.445 104.57V103.781ZM523.828 108.156C523.057 108.156 522.378 107.997 521.789 107.68C521.201 107.362 520.742 106.878 520.414 106.227C520.086 105.576 519.922 104.755 519.922 103.766C519.922 102.729 520.094 101.883 520.438 101.227C520.786 100.565 521.266 100.076 521.875 99.7578C522.484 99.4401 523.177 99.2812 523.953 99.2812C524.38 99.2812 524.792 99.3255 525.188 99.4141C525.589 99.4974 525.917 99.6042 526.172 99.7344L525.781 100.82C525.521 100.716 525.219 100.622 524.875 100.539C524.536 100.456 524.219 100.414 523.922 100.414C523.328 100.414 522.833 100.542 522.438 100.797C522.047 101.052 521.753 101.427 521.555 101.922C521.362 102.417 521.266 103.026 521.266 103.75C521.266 104.443 521.359 105.034 521.547 105.523C521.74 106.013 522.023 106.388 522.398 106.648C522.779 106.904 523.253 107.031 523.82 107.031C524.273 107.031 524.682 106.984 525.047 106.891C525.411 106.792 525.742 106.677 526.039 106.547V107.703C525.753 107.849 525.432 107.961 525.078 108.039C524.729 108.117 524.312 108.156 523.828 108.156ZM530.836 107.094C531.049 107.094 531.268 107.076 531.492 107.039C531.716 107.003 531.898 106.958 532.039 106.906V107.914C531.888 107.982 531.677 108.039 531.406 108.086C531.141 108.133 530.88 108.156 530.625 108.156C530.172 108.156 529.76 108.078 529.391 107.922C529.021 107.76 528.724 107.49 528.5 107.109C528.281 106.729 528.172 106.203 528.172 105.531V100.453H526.953V99.8203L528.18 99.3125L528.695 97.4531H529.477V99.4375H531.984V100.453H529.477V105.492C529.477 106.029 529.599 106.43 529.844 106.695C530.094 106.961 530.424 107.094 530.836 107.094ZM537.07 99.2812C537.799 99.2812 538.424 99.4427 538.945 99.7656C539.466 100.089 539.865 100.542 540.141 101.125C540.417 101.703 540.555 102.38 540.555 103.156V103.961H534.641C534.656 104.966 534.906 105.732 535.391 106.258C535.875 106.784 536.557 107.047 537.438 107.047C537.979 107.047 538.458 106.997 538.875 106.898C539.292 106.799 539.724 106.654 540.172 106.461V107.602C539.74 107.794 539.31 107.935 538.883 108.023C538.461 108.112 537.961 108.156 537.383 108.156C536.56 108.156 535.841 107.99 535.227 107.656C534.617 107.318 534.143 106.823 533.805 106.172C533.466 105.521 533.297 104.724 533.297 103.781C533.297 102.859 533.451 102.062 533.758 101.391C534.07 100.714 534.508 100.193 535.07 99.8281C535.638 99.4635 536.305 99.2812 537.07 99.2812ZM537.055 100.344C536.362 100.344 535.81 100.57 535.398 101.023C534.987 101.477 534.742 102.109 534.664 102.922H539.195C539.19 102.411 539.109 101.964 538.953 101.578C538.802 101.188 538.57 100.885 538.258 100.672C537.945 100.453 537.544 100.344 537.055 100.344ZM546.648 99.2812C546.82 99.2812 547 99.2917 547.188 99.3125C547.375 99.3281 547.542 99.3516 547.688 99.3828L547.523 100.586C547.383 100.549 547.227 100.521 547.055 100.5C546.883 100.479 546.721 100.469 546.57 100.469C546.227 100.469 545.901 100.539 545.594 100.68C545.292 100.815 545.026 101.013 544.797 101.273C544.568 101.529 544.388 101.839 544.258 102.203C544.128 102.562 544.062 102.964 544.062 103.406V108H542.758V99.4375H543.836L543.977 101.016H544.031C544.208 100.698 544.422 100.409 544.672 100.148C544.922 99.8828 545.211 99.6719 545.539 99.5156C545.872 99.3594 546.242 99.2812 546.648 99.2812ZM552.602 99.2812C553.331 99.2812 553.956 99.4427 554.477 99.7656C554.997 100.089 555.396 100.542 555.672 101.125C555.948 101.703 556.086 102.38 556.086 103.156V103.961H550.172C550.188 104.966 550.438 105.732 550.922 106.258C551.406 106.784 552.089 107.047 552.969 107.047C553.51 107.047 553.99 106.997 554.406 106.898C554.823 106.799 555.255 106.654 555.703 106.461V107.602C555.271 107.794 554.841 107.935 554.414 108.023C553.992 108.112 553.492 108.156 552.914 108.156C552.091 108.156 551.372 107.99 550.758 107.656C550.148 107.318 549.674 106.823 549.336 106.172C548.997 105.521 548.828 104.724 548.828 103.781C548.828 102.859 548.982 102.062 549.289 101.391C549.602 100.714 550.039 100.193 550.602 99.8281C551.169 99.4635 551.836 99.2812 552.602 99.2812ZM552.586 100.344C551.893 100.344 551.341 100.57 550.93 101.023C550.518 101.477 550.273 102.109 550.195 102.922H554.727C554.721 102.411 554.641 101.964 554.484 101.578C554.333 101.188 554.102 100.885 553.789 100.672C553.477 100.453 553.076 100.344 552.586 100.344ZM563.828 105.656C563.828 106.203 563.69 106.664 563.414 107.039C563.143 107.409 562.753 107.688 562.242 107.875C561.737 108.062 561.133 108.156 560.43 108.156C559.831 108.156 559.312 108.109 558.875 108.016C558.438 107.922 558.055 107.789 557.727 107.617V106.422C558.076 106.594 558.492 106.75 558.977 106.891C559.461 107.031 559.956 107.102 560.461 107.102C561.201 107.102 561.737 106.982 562.07 106.742C562.404 106.503 562.57 106.177 562.57 105.766C562.57 105.531 562.503 105.326 562.367 105.148C562.237 104.966 562.016 104.792 561.703 104.625C561.391 104.453 560.958 104.266 560.406 104.062C559.859 103.854 559.385 103.648 558.984 103.445C558.589 103.237 558.281 102.984 558.062 102.688C557.849 102.391 557.742 102.005 557.742 101.531C557.742 100.807 558.034 100.253 558.617 99.8672C559.206 99.4766 559.977 99.2812 560.93 99.2812C561.445 99.2812 561.927 99.3333 562.375 99.4375C562.828 99.5365 563.25 99.6719 563.641 99.8438L563.203 100.883C562.849 100.732 562.471 100.604 562.07 100.5C561.669 100.396 561.26 100.344 560.844 100.344C560.245 100.344 559.784 100.443 559.461 100.641C559.143 100.839 558.984 101.109 558.984 101.453C558.984 101.719 559.057 101.938 559.203 102.109C559.354 102.281 559.594 102.443 559.922 102.594C560.25 102.745 560.682 102.922 561.219 103.125C561.755 103.323 562.219 103.529 562.609 103.742C563 103.951 563.299 104.206 563.508 104.508C563.721 104.805 563.828 105.188 563.828 105.656Z" fill="#336ACC"/>
<path d="M79 110.52H564.547V112.52H79V110.52Z" fill="#336ACC"/>
</g>
<rect x="193" y="89" width="258" height="27" rx="9" stroke="#218274" stroke-width="2"/>
<path d="M122.752 173C122.224 173 121.816 172.868 121.528 172.604C121.264 172.316 121.132 171.908 121.132 171.38V149.24C121.132 148.712 121.264 148.316 121.528 148.052C121.816 147.764 122.224 147.62 122.752 147.62H136.144C136.552 147.62 136.864 147.728 137.08 147.944C137.296 148.16 137.404 148.46 137.404 148.844C137.404 149.252 137.296 149.564 137.08 149.78C136.864 149.996 136.552 150.104 136.144 150.104H124.012V158.888H135.388C135.796 158.888 136.108 158.996 136.324 159.212C136.54 159.404 136.648 159.704 136.648 160.112C136.648 160.52 136.54 160.832 136.324 161.048C136.108 161.264 135.796 161.372 135.388 161.372H124.012V170.516H136.144C136.552 170.516 136.864 170.624 137.08 170.84C137.296 171.056 137.404 171.356 137.404 171.74C137.404 172.148 137.296 172.46 137.08 172.676C136.864 172.892 136.552 173 136.144 173H122.752ZM143.164 173.252C142.684 173.252 142.324 173.12 142.084 172.856C141.844 172.592 141.724 172.22 141.724 171.74V156.728C141.724 156.248 141.844 155.888 142.084 155.648C142.324 155.384 142.672 155.252 143.128 155.252C143.584 155.252 143.932 155.384 144.172 155.648C144.436 155.888 144.568 156.248 144.568 156.728V159.824L144.172 159.392C144.676 158 145.492 156.956 146.62 156.26C147.772 155.54 149.092 155.18 150.58 155.18C151.972 155.18 153.124 155.432 154.036 155.936C154.972 156.44 155.668 157.208 156.124 158.24C156.58 159.248 156.808 160.532 156.808 162.092V171.74C156.808 172.22 156.676 172.592 156.412 172.856C156.172 173.12 155.824 173.252 155.368 173.252C154.888 173.252 154.516 173.12 154.252 172.856C154.012 172.592 153.892 172.22 153.892 171.74V162.272C153.892 160.64 153.568 159.452 152.92 158.708C152.296 157.94 151.288 157.556 149.896 157.556C148.288 157.556 147.004 158.06 146.044 159.068C145.108 160.052 144.64 161.372 144.64 163.028V171.74C144.64 172.748 144.148 173.252 143.164 173.252ZM169.601 173.324C167.849 173.324 166.337 172.94 165.065 172.172C163.793 171.404 162.809 170.336 162.113 168.968C161.441 167.576 161.105 165.968 161.105 164.144C161.105 162.752 161.297 161.504 161.681 160.4C162.065 159.296 162.629 158.36 163.373 157.592C164.117 156.8 165.005 156.2 166.037 155.792C167.093 155.384 168.281 155.18 169.601 155.18C170.465 155.18 171.365 155.312 172.301 155.576C173.237 155.84 174.089 156.296 174.857 156.944C175.097 157.112 175.253 157.316 175.325 157.556C175.397 157.796 175.397 158.036 175.325 158.276C175.253 158.492 175.133 158.684 174.965 158.852C174.797 158.996 174.581 159.08 174.317 159.104C174.077 159.128 173.825 159.044 173.561 158.852C172.937 158.372 172.301 158.036 171.653 157.844C171.005 157.652 170.381 157.556 169.781 157.556C168.845 157.556 168.029 157.712 167.333 158.024C166.637 158.312 166.049 158.732 165.569 159.284C165.089 159.836 164.717 160.52 164.453 161.336C164.213 162.152 164.093 163.1 164.093 164.18C164.093 166.268 164.585 167.924 165.569 169.148C166.553 170.348 167.957 170.948 169.781 170.948C170.381 170.948 170.993 170.852 171.617 170.66C172.265 170.468 172.913 170.132 173.561 169.652C173.825 169.46 174.077 169.376 174.317 169.4C174.557 169.424 174.761 169.52 174.929 169.688C175.097 169.832 175.205 170.024 175.253 170.264C175.325 170.504 175.325 170.744 175.253 170.984C175.181 171.2 175.025 171.392 174.785 171.56C174.017 172.184 173.177 172.64 172.265 172.928C171.353 173.192 170.465 173.324 169.601 173.324ZM184.217 173.324C183.017 173.324 181.937 173.096 180.977 172.64C180.041 172.16 179.297 171.512 178.745 170.696C178.193 169.88 177.917 168.968 177.917 167.96C177.917 166.664 178.241 165.644 178.889 164.9C179.561 164.156 180.653 163.628 182.165 163.316C183.701 163.004 185.789 162.848 188.429 162.848H190.049V164.756H188.465C186.521 164.756 184.985 164.852 183.857 165.044C182.753 165.212 181.973 165.512 181.517 165.944C181.085 166.376 180.869 166.988 180.869 167.78C180.869 168.764 181.205 169.568 181.877 170.192C182.573 170.816 183.509 171.128 184.685 171.128C185.645 171.128 186.485 170.9 187.205 170.444C187.949 169.988 188.525 169.364 188.933 168.572C189.365 167.78 189.581 166.868 189.581 165.836V161.732C189.581 160.244 189.281 159.176 188.681 158.528C188.081 157.856 187.097 157.52 185.729 157.52C184.889 157.52 184.049 157.628 183.209 157.844C182.369 158.06 181.481 158.408 180.545 158.888C180.209 159.056 179.921 159.116 179.681 159.068C179.441 158.996 179.249 158.864 179.105 158.672C178.961 158.48 178.877 158.264 178.853 158.024C178.829 157.76 178.877 157.508 178.997 157.268C179.141 157.028 179.357 156.836 179.645 156.692C180.701 156.164 181.745 155.78 182.777 155.54C183.809 155.3 184.793 155.18 185.729 155.18C187.241 155.18 188.489 155.432 189.473 155.936C190.457 156.416 191.189 157.16 191.669 158.168C192.149 159.152 192.389 160.424 192.389 161.984V171.74C192.389 172.22 192.269 172.592 192.029 172.856C191.813 173.12 191.489 173.252 191.057 173.252C190.601 173.252 190.253 173.12 190.013 172.856C189.773 172.592 189.653 172.22 189.653 171.74V168.932H189.977C189.785 169.844 189.413 170.624 188.861 171.272C188.333 171.92 187.673 172.424 186.881 172.784C186.089 173.144 185.201 173.324 184.217 173.324ZM206.655 173.324C205.071 173.324 203.703 172.916 202.551 172.1C201.423 171.284 200.667 170.192 200.283 168.824L200.679 168.428V171.74C200.679 172.22 200.547 172.592 200.283 172.856C200.043 173.12 199.695 173.252 199.239 173.252C198.759 173.252 198.399 173.12 198.159 172.856C197.919 172.592 197.799 172.22 197.799 171.74V148.844C197.799 148.364 197.919 148.004 198.159 147.764C198.399 147.5 198.759 147.368 199.239 147.368C199.695 147.368 200.055 147.5 200.319 147.764C200.583 148.004 200.715 148.364 200.715 148.844V159.572H200.283C200.691 158.228 201.459 157.16 202.587 156.368C203.715 155.576 205.071 155.18 206.655 155.18C208.239 155.18 209.607 155.552 210.759 156.296C211.911 157.016 212.799 158.06 213.423 159.428C214.071 160.772 214.395 162.38 214.395 164.252C214.395 166.1 214.071 167.708 213.423 169.076C212.799 170.42 211.899 171.464 210.723 172.208C209.571 172.952 208.215 173.324 206.655 173.324ZM206.043 170.984C207.147 170.984 208.095 170.72 208.887 170.192C209.703 169.664 210.327 168.896 210.759 167.888C211.215 166.88 211.443 165.668 211.443 164.252C211.443 162.068 210.951 160.4 209.967 159.248C209.007 158.096 207.699 157.52 206.043 157.52C204.963 157.52 204.015 157.784 203.199 158.312C202.383 158.816 201.747 159.572 201.291 160.58C200.859 161.564 200.643 162.788 200.643 164.252C200.643 166.412 201.135 168.08 202.119 169.256C203.103 170.408 204.411 170.984 206.043 170.984ZM226.671 173.324C224.823 173.324 223.227 172.964 221.883 172.244C220.563 171.5 219.531 170.456 218.787 169.112C218.067 167.768 217.707 166.16 217.707 164.288C217.707 162.464 218.067 160.88 218.787 159.536C219.507 158.168 220.491 157.1 221.739 156.332C223.011 155.564 224.475 155.18 226.131 155.18C227.307 155.18 228.363 155.384 229.299 155.792C230.235 156.176 231.027 156.74 231.675 157.484C232.347 158.228 232.851 159.128 233.187 160.184C233.547 161.24 233.727 162.428 233.727 163.748C233.727 164.132 233.619 164.42 233.403 164.612C233.187 164.78 232.875 164.864 232.467 164.864H219.939V162.956H231.783L231.207 163.424C231.207 162.128 231.015 161.036 230.631 160.148C230.247 159.236 229.683 158.54 228.939 158.06C228.219 157.58 227.307 157.34 226.203 157.34C224.979 157.34 223.935 157.628 223.071 158.204C222.231 158.756 221.595 159.536 221.163 160.544C220.731 161.528 220.515 162.68 220.515 164V164.216C220.515 166.424 221.043 168.104 222.099 169.256C223.179 170.408 224.703 170.984 226.671 170.984C227.487 170.984 228.291 170.876 229.083 170.66C229.899 170.444 230.691 170.084 231.459 169.58C231.795 169.364 232.095 169.268 232.359 169.292C232.647 169.292 232.875 169.376 233.043 169.544C233.211 169.688 233.319 169.88 233.367 170.12C233.439 170.336 233.415 170.576 233.295 170.84C233.199 171.104 232.995 171.332 232.683 171.524C231.891 172.1 230.955 172.544 229.875 172.856C228.795 173.168 227.727 173.324 226.671 173.324ZM238.201 173C237.889 173 237.637 172.928 237.445 172.784C237.253 172.64 237.121 172.448 237.049 172.208C236.977 171.968 236.977 171.704 237.049 171.416C237.121 171.128 237.277 170.852 237.517 170.588L247.669 157.016V157.772H238.057C237.673 157.772 237.373 157.676 237.157 157.484C236.965 157.268 236.869 156.98 236.869 156.62C236.869 156.26 236.965 155.984 237.157 155.792C237.373 155.6 237.673 155.504 238.057 155.504H249.109C249.469 155.504 249.757 155.576 249.973 155.72C250.213 155.864 250.369 156.056 250.441 156.296C250.513 156.512 250.513 156.764 250.441 157.052C250.393 157.316 250.261 157.58 250.045 157.844L239.713 171.56V170.732H249.829C250.621 170.732 251.017 171.104 251.017 171.848C251.017 172.208 250.909 172.496 250.693 172.712C250.501 172.904 250.213 173 249.829 173H238.201ZM259.873 173.324C258.673 173.324 257.593 173.096 256.633 172.64C255.697 172.16 254.953 171.512 254.401 170.696C253.849 169.88 253.573 168.968 253.573 167.96C253.573 166.664 253.897 165.644 254.545 164.9C255.217 164.156 256.309 163.628 257.821 163.316C259.357 163.004 261.445 162.848 264.085 162.848H265.705V164.756H264.121C262.177 164.756 260.641 164.852 259.513 165.044C258.409 165.212 257.629 165.512 257.173 165.944C256.741 166.376 256.525 166.988 256.525 167.78C256.525 168.764 256.861 169.568 257.533 170.192C258.229 170.816 259.165 171.128 260.341 171.128C261.301 171.128 262.141 170.9 262.861 170.444C263.605 169.988 264.181 169.364 264.589 168.572C265.021 167.78 265.237 166.868 265.237 165.836V161.732C265.237 160.244 264.937 159.176 264.337 158.528C263.737 157.856 262.753 157.52 261.385 157.52C260.545 157.52 259.705 157.628 258.865 157.844C258.025 158.06 257.137 158.408 256.201 158.888C255.865 159.056 255.577 159.116 255.337 159.068C255.097 158.996 254.905 158.864 254.761 158.672C254.617 158.48 254.533 158.264 254.509 158.024C254.485 157.76 254.533 157.508 254.653 157.268C254.797 157.028 255.013 156.836 255.301 156.692C256.357 156.164 257.401 155.78 258.433 155.54C259.465 155.3 260.449 155.18 261.385 155.18C262.897 155.18 264.145 155.432 265.129 155.936C266.113 156.416 266.845 157.16 267.325 158.168C267.805 159.152 268.045 160.424 268.045 161.984V171.74C268.045 172.22 267.925 172.592 267.685 172.856C267.469 173.12 267.145 173.252 266.713 173.252C266.257 173.252 265.909 173.12 265.669 172.856C265.429 172.592 265.309 172.22 265.309 171.74V168.932H265.633C265.441 169.844 265.069 170.624 264.517 171.272C263.989 171.92 263.329 172.424 262.537 172.784C261.745 173.144 260.857 173.324 259.873 173.324ZM280.115 173.324C278.555 173.324 277.187 172.952 276.011 172.208C274.859 171.464 273.959 170.42 273.311 169.076C272.687 167.708 272.375 166.1 272.375 164.252C272.375 162.38 272.687 160.772 273.311 159.428C273.959 158.06 274.859 157.016 276.011 156.296C277.187 155.552 278.555 155.18 280.115 155.18C281.699 155.18 283.055 155.576 284.183 156.368C285.311 157.16 286.067 158.228 286.451 159.572H286.055V148.844C286.055 148.364 286.175 148.004 286.415 147.764C286.679 147.5 287.051 147.368 287.531 147.368C287.987 147.368 288.335 147.5 288.575 147.764C288.839 148.004 288.971 148.364 288.971 148.844V171.74C288.971 172.22 288.851 172.592 288.611 172.856C288.371 173.12 288.011 173.252 287.531 173.252C287.075 173.252 286.715 173.12 286.451 172.856C286.211 172.592 286.091 172.22 286.091 171.74V168.32L286.487 168.824C286.103 170.192 285.335 171.284 284.183 172.1C283.055 172.916 281.699 173.324 280.115 173.324ZM280.727 170.984C281.807 170.984 282.755 170.72 283.571 170.192C284.387 169.664 285.011 168.896 285.443 167.888C285.899 166.88 286.127 165.668 286.127 164.252C286.127 162.068 285.635 160.4 284.651 159.248C283.691 158.096 282.383 157.52 280.727 157.52C279.623 157.52 278.663 157.784 277.847 158.312C277.055 158.816 276.431 159.572 275.975 160.58C275.543 161.564 275.327 162.788 275.327 164.252C275.327 166.412 275.819 168.08 276.803 169.256C277.787 170.408 279.095 170.984 280.727 170.984ZM301.715 173.324C300.011 173.324 298.535 172.952 297.287 172.208C296.039 171.464 295.067 170.42 294.371 169.076C293.699 167.708 293.363 166.1 293.363 164.252C293.363 162.86 293.555 161.612 293.939 160.508C294.323 159.38 294.887 158.42 295.631 157.628C296.375 156.836 297.251 156.236 298.259 155.828C299.291 155.396 300.443 155.18 301.715 155.18C303.419 155.18 304.895 155.552 306.143 156.296C307.391 157.04 308.351 158.096 309.023 159.464C309.719 160.808 310.067 162.404 310.067 164.252C310.067 165.644 309.875 166.892 309.491 167.996C309.107 169.1 308.543 170.06 307.799 170.876C307.055 171.668 306.167 172.28 305.135 172.712C304.127 173.12 302.987 173.324 301.715 173.324ZM301.715 170.984C302.795 170.984 303.743 170.72 304.559 170.192C305.375 169.664 305.999 168.896 306.431 167.888C306.887 166.88 307.115 165.668 307.115 164.252C307.115 162.068 306.623 160.4 305.639 159.248C304.679 158.096 303.371 157.52 301.715 157.52C300.611 157.52 299.651 157.784 298.835 158.312C298.043 158.816 297.419 159.572 296.963 160.58C296.531 161.564 296.315 162.788 296.315 164.252C296.315 166.412 296.807 168.08 297.791 169.256C298.775 170.408 300.083 170.984 301.715 170.984Z" fill="#101E37"/>
<rect x="118" y="191" width="439" height="12" rx="1.41578" fill="#D1D8E0"/>
<rect x="118" y="211" width="459" height="12" rx="1.41578" fill="#D1D8E0"/>
<rect x="118" y="231" width="447" height="12" rx="1.41578" fill="#D1D8E0"/>
<rect x="42" y="88" width="53.0538" height="26.5269" rx="6.63173" fill="#005E7A"/>
<path d="M54.517 104.7C54.6497 104.7 54.7857 104.689 54.925 104.666C55.0642 104.643 55.1776 104.616 55.265 104.583V105.21C55.1711 105.252 55.0399 105.288 54.8716 105.317C54.7064 105.346 54.5445 105.361 54.3858 105.361C54.1041 105.361 53.8483 105.312 53.6184 105.215C53.3885 105.114 53.2039 104.946 53.0647 104.71C52.9287 104.473 52.8607 104.146 52.8607 103.729V100.571H52.1029V100.178L52.8655 99.8622L53.1861 98.7062H53.6718V99.9399H55.231V100.571H53.6718V103.704C53.6718 104.038 53.7479 104.287 53.9001 104.452C54.0555 104.617 54.2612 104.7 54.517 104.7ZM58.3348 99.8525C58.9694 99.8525 59.4406 99.995 59.7482 100.28C60.0558 100.565 60.2096 101.02 60.2096 101.645V105.263H59.6219L59.4665 104.477H59.4276C59.2787 104.671 59.1232 104.834 58.9613 104.967C58.7994 105.097 58.6116 105.195 58.3979 105.263C58.1874 105.328 57.9284 105.361 57.6207 105.361C57.2969 105.361 57.0087 105.304 56.7562 105.191C56.5068 105.077 56.3093 104.906 56.1636 104.676C56.0211 104.446 55.9499 104.154 55.9499 103.801C55.9499 103.27 56.1603 102.862 56.5813 102.577C57.0023 102.292 57.6434 102.137 58.5048 102.111L59.4228 102.072V101.747C59.4228 101.287 59.324 100.965 59.1265 100.78C58.929 100.596 58.6505 100.503 58.291 100.503C58.0126 100.503 57.747 100.544 57.4945 100.625C57.2419 100.706 57.0023 100.801 56.7756 100.911L56.5279 100.299C56.7675 100.176 57.0427 100.071 57.3536 99.9836C57.6645 99.8962 57.9915 99.8525 58.3348 99.8525ZM59.4131 102.641L58.6019 102.675C57.9381 102.7 57.4702 102.809 57.1982 103C56.9262 103.191 56.7902 103.461 56.7902 103.811C56.7902 104.116 56.8824 104.341 57.067 104.486C57.2516 104.632 57.4961 104.705 57.8005 104.705C58.2732 104.705 58.6602 104.574 58.9613 104.311C59.2625 104.049 59.4131 103.656 59.4131 103.131V102.641ZM62.6771 97.7056V99.595C62.6771 99.812 62.6706 100.022 62.6577 100.226C62.648 100.43 62.6399 100.589 62.6334 100.702H62.6771C62.8228 100.463 63.0333 100.26 63.3086 100.095C63.5838 99.9302 63.9351 99.8476 64.3626 99.8476C65.0296 99.8476 65.5607 100.079 65.9557 100.542C66.354 101.002 66.5532 101.687 66.5532 102.597C66.5532 103.196 66.4625 103.701 66.2812 104.112C66.0998 104.524 65.844 104.834 65.5137 105.045C65.1834 105.255 64.7932 105.361 64.3431 105.361C63.9222 105.361 63.5757 105.283 63.3037 105.127C63.0349 104.969 62.8277 104.776 62.682 104.549H62.6188L62.4537 105.263H61.8708V97.7056H62.6771ZM64.2314 100.523C63.8461 100.523 63.5401 100.599 63.3134 100.751C63.0867 100.9 62.9232 101.127 62.8228 101.431C62.7257 101.732 62.6771 102.114 62.6771 102.577V102.621C62.6771 103.291 62.7888 103.805 63.0123 104.161C63.2357 104.514 63.6421 104.69 64.2314 104.69C64.7269 104.69 65.0976 104.509 65.3437 104.146C65.5931 103.784 65.7177 103.265 65.7177 102.592C65.7177 101.905 65.5947 101.389 65.3486 101.042C65.1057 100.696 64.7333 100.523 64.2314 100.523Z" fill="white"/>
<path d="M134.558 80.6575C134.802 80.9015 135.198 80.9015 135.442 80.6575L139.419 76.68C139.663 76.4359 139.663 76.0402 139.419 75.7961C139.175 75.552 138.78 75.552 138.536 75.7961L135 79.3316L131.464 75.7961C131.22 75.552 130.825 75.552 130.581 75.7961C130.337 76.0402 130.337 76.4359 130.581 76.68L134.558 80.6575ZM64.625 88V53H63.375V88H64.625ZM72 45.625H127V44.375H72V45.625ZM134.375 53V80.2155H135.625V53H134.375ZM127 45.625C131.073 45.625 134.375 48.9269 134.375 53H135.625C135.625 48.2365 131.763 44.375 127 44.375V45.625ZM64.625 53C64.625 48.9269 67.9269 45.625 72 45.625V44.375C67.2365 44.375 63.375 48.2365 63.375 53H64.625Z" fill="#005E7A"/>
<path d="M217.558 80.4419C217.802 80.686 218.198 80.686 218.442 80.4419L222.419 76.4645C222.663 76.2204 222.663 75.8247 222.419 75.5806C222.175 75.3365 221.78 75.3365 221.536 75.5806L218 79.1161L214.464 75.5806C214.22 75.3365 213.825 75.3365 213.581 75.5806C213.337 75.8247 213.337 76.2204 213.581 76.4645L217.558 80.4419ZM147.625 81V53H146.375V81H147.625ZM155 45.625H210V44.375H155V45.625ZM217.375 53V80H218.625V53H217.375ZM210 45.625C214.073 45.625 217.375 48.9269 217.375 53H218.625C218.625 48.2365 214.763 44.375 210 44.375V45.625ZM147.625 53C147.625 48.9269 150.927 45.625 155 45.625V44.375C150.237 44.375 146.375 48.2365 146.375 53H147.625Z" fill="#005E7A"/>
<rect x="239" y="45" width="53.0538" height="26.5269" rx="6.63173" fill="#005E7A"/>
<path d="M251.847 56.8428C252.301 56.8428 252.689 56.9431 253.013 57.1439C253.337 57.3447 253.585 57.6264 253.756 57.9891C253.928 58.3485 254.014 58.7695 254.014 59.2519V59.7522H250.337C250.346 60.3772 250.502 60.8532 250.803 61.1803C251.104 61.5073 251.528 61.6708 252.076 61.6708C252.412 61.6708 252.71 61.6401 252.969 61.5786C253.228 61.517 253.497 61.4264 253.776 61.3066V62.0157C253.507 62.1355 253.24 62.223 252.974 62.278C252.712 62.333 252.401 62.3606 252.042 62.3606C251.53 62.3606 251.083 62.257 250.701 62.0497C250.322 61.8392 250.027 61.5316 249.817 61.1268C249.606 60.7221 249.501 60.2266 249.501 59.6405C249.501 59.0674 249.597 58.5719 249.788 58.1542C249.982 57.7333 250.254 57.4094 250.604 57.1828C250.957 56.9561 251.371 56.8428 251.847 56.8428ZM251.838 57.5033C251.407 57.5033 251.064 57.6442 250.808 57.9259C250.552 58.2076 250.4 58.6011 250.351 59.1062H253.168C253.165 58.7889 253.115 58.5104 253.018 58.2708C252.924 58.0279 252.78 57.8401 252.586 57.7074C252.391 57.5713 252.142 57.5033 251.838 57.5033ZM257.904 56.8428C258.536 56.8428 259.013 56.9982 259.337 57.3091C259.661 57.6167 259.823 58.1121 259.823 58.7954V62.2634H259.026V58.8488C259.026 58.4052 258.924 58.0733 258.72 57.8531C258.519 57.6329 258.21 57.5228 257.793 57.5228C257.203 57.5228 256.789 57.6895 256.549 58.0231C256.309 58.3566 256.19 58.8407 256.19 59.4754V62.2634H255.383V56.9399H256.034L256.156 57.7074H256.199C256.313 57.5195 256.457 57.3625 256.632 57.2362C256.806 57.1067 257.002 57.0095 257.219 56.9448C257.436 56.8768 257.665 56.8428 257.904 56.8428ZM263.203 61.7C263.336 61.7 263.472 61.6887 263.611 61.666C263.751 61.6433 263.864 61.6158 263.951 61.5834V62.21C263.858 62.2521 263.726 62.2877 263.558 62.3169C263.393 62.346 263.231 62.3606 263.072 62.3606C262.791 62.3606 262.535 62.312 262.305 62.2149C262.075 62.1145 261.89 61.9461 261.751 61.7097C261.615 61.4733 261.547 61.1463 261.547 60.7285V57.5713H260.789V57.1779L261.552 56.8622L261.873 55.7062H262.358V56.9399H263.917V57.5713H262.358V60.7043C262.358 61.0378 262.434 61.2871 262.587 61.4523C262.742 61.6174 262.948 61.7 263.203 61.7ZM267.08 56.8428C267.533 56.8428 267.921 56.9431 268.245 57.1439C268.569 57.3447 268.817 57.6264 268.988 57.9891C269.16 58.3485 269.246 58.7695 269.246 59.2519V59.7522H265.569C265.579 60.3772 265.734 60.8532 266.035 61.1803C266.336 61.5073 266.761 61.6708 267.308 61.6708C267.645 61.6708 267.942 61.6401 268.202 61.5786C268.461 61.517 268.729 61.4264 269.008 61.3066V62.0157C268.739 62.1355 268.472 62.223 268.206 62.278C267.944 62.333 267.633 62.3606 267.274 62.3606C266.762 62.3606 266.315 62.257 265.933 62.0497C265.554 61.8392 265.26 61.5316 265.049 61.1268C264.839 60.7221 264.733 60.2266 264.733 59.6405C264.733 59.0674 264.829 58.5719 265.02 58.1542C265.214 57.7333 265.486 57.4094 265.836 57.1828C266.189 56.9561 266.604 56.8428 267.08 56.8428ZM267.07 57.5033C266.639 57.5033 266.296 57.6442 266.04 57.9259C265.784 58.2076 265.632 58.6011 265.584 59.1062H268.401C268.397 58.7889 268.347 58.5104 268.25 58.2708C268.156 58.0279 268.012 57.8401 267.818 57.7074C267.624 57.5713 267.374 57.5033 267.07 57.5033ZM273.034 56.8428C273.141 56.8428 273.253 56.8492 273.37 56.8622C273.486 56.8719 273.59 56.8865 273.68 56.9059L273.578 57.6539C273.491 57.6313 273.394 57.6134 273.287 57.6005C273.18 57.5875 273.08 57.5811 272.986 57.5811C272.772 57.5811 272.57 57.6248 272.379 57.7122C272.191 57.7964 272.026 57.9195 271.883 58.0814C271.741 58.24 271.629 58.4327 271.548 58.6594C271.467 58.8828 271.427 59.1321 271.427 59.4074V62.2634H270.616V56.9399H271.286L271.373 57.9211H271.407C271.517 57.7235 271.65 57.5438 271.806 57.3819C271.961 57.2168 272.141 57.0856 272.345 56.9885C272.552 56.8913 272.782 56.8428 273.034 56.8428Z" fill="white"/>
<path d="M299.905 57.1282C300.569 57.1282 301.099 57.3565 301.494 57.813C301.889 58.2696 302.086 58.9561 302.086 59.8725C302.086 60.478 301.996 60.9864 301.814 61.3977C301.633 61.8089 301.377 62.1198 301.047 62.3303C300.72 62.5407 300.333 62.646 299.886 62.646C299.604 62.646 299.357 62.6087 299.143 62.5343C298.929 62.4598 298.746 62.3594 298.594 62.2331C298.442 62.1068 298.316 61.9692 298.215 61.8202H298.157C298.167 61.9465 298.178 62.0987 298.191 62.2768C298.207 62.4549 298.215 62.6104 298.215 62.7431V64.9289H297.404V57.2253H298.069L298.176 58.0122H298.215C298.319 57.8503 298.445 57.7029 298.594 57.5702C298.743 57.4342 298.924 57.3273 299.138 57.2496C299.355 57.1686 299.611 57.1282 299.905 57.1282ZM299.765 57.8082C299.395 57.8082 299.098 57.8794 298.871 58.0219C298.647 58.1644 298.484 58.3781 298.38 58.663C298.277 58.9448 298.222 59.2993 298.215 59.7268V59.8822C298.215 60.3323 298.264 60.7128 298.361 61.0237C298.461 61.3345 298.625 61.5709 298.851 61.7328C299.081 61.8947 299.389 61.9757 299.774 61.9757C300.105 61.9757 300.38 61.8866 300.6 61.7085C300.82 61.5304 300.984 61.2827 301.091 60.9654C301.201 60.6448 301.256 60.2773 301.256 59.8628C301.256 59.2346 301.133 58.7359 300.887 58.3668C300.644 57.9944 300.27 57.8082 299.765 57.8082ZM305.486 57.1379C306.121 57.1379 306.592 57.2804 306.9 57.5653C307.207 57.8503 307.361 58.3052 307.361 58.9302V62.5488H306.774L306.618 61.762H306.579C306.43 61.9562 306.275 62.1198 306.113 62.2525C305.951 62.3821 305.763 62.4808 305.55 62.5488C305.339 62.6136 305.08 62.646 304.772 62.646C304.449 62.646 304.16 62.5893 303.908 62.476C303.658 62.3626 303.461 62.191 303.315 61.9611C303.173 61.7312 303.101 61.4398 303.101 61.0868C303.101 60.5557 303.312 60.1477 303.733 59.8628C304.154 59.5778 304.795 59.4224 305.656 59.3965L306.574 59.3576V59.0322C306.574 58.5724 306.476 58.2502 306.278 58.0656C306.081 57.881 305.802 57.7887 305.443 57.7887C305.164 57.7887 304.899 57.8292 304.646 57.9102C304.394 57.9911 304.154 58.0867 303.927 58.1968L303.68 57.5847C303.919 57.4617 304.194 57.3565 304.505 57.269C304.816 57.1816 305.143 57.1379 305.486 57.1379ZM306.565 59.9259L305.754 59.9599C305.09 59.9858 304.622 60.0943 304.35 60.2854C304.078 60.4764 303.942 60.7468 303.942 61.0965C303.942 61.4009 304.034 61.626 304.219 61.7717C304.403 61.9174 304.648 61.9902 304.952 61.9902C305.425 61.9902 305.812 61.8591 306.113 61.5968C306.414 61.3345 306.565 60.9411 306.565 60.4165V59.9259ZM311.441 57.1282C311.548 57.1282 311.66 57.1346 311.776 57.1476C311.893 57.1573 311.997 57.1719 312.087 57.1913L311.985 57.9393C311.898 57.9167 311.801 57.8988 311.694 57.8859C311.587 57.8729 311.487 57.8665 311.393 57.8665C311.179 57.8665 310.977 57.9102 310.786 57.9976C310.598 58.0818 310.433 58.2049 310.29 58.3668C310.148 58.5254 310.036 58.7181 309.955 58.9448C309.874 59.1682 309.834 59.4175 309.834 59.6928V62.5488H309.022V57.2253H309.693L309.78 58.2065H309.814C309.924 58.0089 310.057 57.8292 310.212 57.6673C310.368 57.5022 310.548 57.371 310.752 57.2739C310.959 57.1767 311.189 57.1282 311.441 57.1282ZM315.084 57.1379C315.719 57.1379 316.19 57.2804 316.498 57.5653C316.805 57.8503 316.959 58.3052 316.959 58.9302V62.5488H316.371L316.216 61.762H316.177C316.028 61.9562 315.873 62.1198 315.711 62.2525C315.549 62.3821 315.361 62.4808 315.147 62.5488C314.937 62.6136 314.678 62.646 314.37 62.646C314.046 62.646 313.758 62.5893 313.506 62.476C313.256 62.3626 313.059 62.191 312.913 61.9611C312.771 61.7312 312.699 61.4398 312.699 61.0868C312.699 60.5557 312.91 60.1477 313.331 59.8628C313.752 59.5778 314.393 59.4224 315.254 59.3965L316.172 59.3576V59.0322C316.172 58.5724 316.074 58.2502 315.876 58.0656C315.678 57.881 315.4 57.7887 315.041 57.7887C314.762 57.7887 314.497 57.8292 314.244 57.9102C313.991 57.9911 313.752 58.0867 313.525 58.1968L313.277 57.5847C313.517 57.4617 313.792 57.3565 314.103 57.269C314.414 57.1816 314.741 57.1379 315.084 57.1379ZM316.163 59.9259L315.351 59.9599C314.688 59.9858 314.22 60.0943 313.948 60.2854C313.676 60.4764 313.54 60.7468 313.54 61.0965C313.54 61.4009 313.632 61.626 313.817 61.7717C314.001 61.9174 314.246 61.9902 314.55 61.9902C315.023 61.9902 315.41 61.8591 315.711 61.5968C316.012 61.3345 316.163 60.9411 316.163 60.4165V59.9259ZM323.196 57.1379C323.831 57.1379 324.302 57.2804 324.609 57.5653C324.917 57.8503 325.071 58.3052 325.071 58.9302V62.5488H324.483L324.328 61.762H324.289C324.14 61.9562 323.984 62.1198 323.822 62.2525C323.661 62.3821 323.473 62.4808 323.259 62.5488C323.048 62.6136 322.789 62.646 322.482 62.646C322.158 62.646 321.87 62.5893 321.617 62.476C321.368 62.3626 321.17 62.191 321.025 61.9611C320.882 61.7312 320.811 61.4398 320.811 61.0868C320.811 60.5557 321.021 60.1477 321.442 59.8628C321.863 59.5778 322.504 59.4224 323.366 59.3965L324.284 59.3576V59.0322C324.284 58.5724 324.185 58.2502 323.988 58.0656C323.79 57.881 323.512 57.7887 323.152 57.7887C322.874 57.7887 322.608 57.8292 322.356 57.9102C322.103 57.9911 321.863 58.0867 321.637 58.1968L321.389 57.5847C321.629 57.4617 321.904 57.3565 322.215 57.269C322.526 57.1816 322.853 57.1379 323.196 57.1379ZM324.274 59.9259L323.463 59.9599C322.799 59.9858 322.331 60.0943 322.059 60.2854C321.787 60.4764 321.651 60.7468 321.651 61.0965C321.651 61.4009 321.744 61.626 321.928 61.7717C322.113 61.9174 322.357 61.9902 322.662 61.9902C323.134 61.9902 323.521 61.8591 323.822 61.5968C324.124 61.3345 324.274 60.9411 324.274 60.4165V59.9259ZM328.864 62.646C328.385 62.646 327.962 62.5472 327.596 62.3497C327.231 62.1522 326.946 61.851 326.742 61.4462C326.538 61.0415 326.436 60.5315 326.436 59.9162C326.436 59.2718 326.542 58.7456 326.756 58.3376C326.973 57.9264 327.271 57.622 327.65 57.4245C328.029 57.2269 328.459 57.1282 328.942 57.1282C329.207 57.1282 329.463 57.1557 329.709 57.2107C329.959 57.2625 330.163 57.3289 330.321 57.4099L330.079 58.085C329.917 58.0203 329.729 57.962 329.515 57.9102C329.305 57.8584 329.107 57.8325 328.923 57.8325C328.553 57.8325 328.246 57.9118 328 58.0705C327.757 58.2291 327.574 58.4623 327.451 58.7699C327.331 59.0775 327.271 59.4564 327.271 59.9065C327.271 60.3372 327.329 60.7047 327.446 61.0091C327.566 61.3135 327.742 61.5466 327.975 61.7085C328.212 61.8672 328.506 61.9465 328.859 61.9465C329.141 61.9465 329.395 61.9174 329.622 61.8591C329.849 61.7976 330.054 61.7263 330.239 61.6454V62.3643C330.061 62.4549 329.862 62.5245 329.641 62.5731C329.424 62.6217 329.165 62.646 328.864 62.646ZM333.634 62.646C333.155 62.646 332.732 62.5472 332.366 62.3497C332 62.1522 331.715 61.851 331.511 61.4462C331.307 61.0415 331.205 60.5315 331.205 59.9162C331.205 59.2718 331.312 58.7456 331.526 58.3376C331.743 57.9264 332.041 57.622 332.42 57.4245C332.799 57.2269 333.229 57.1282 333.712 57.1282C333.977 57.1282 334.233 57.1557 334.479 57.2107C334.729 57.2625 334.933 57.3289 335.091 57.4099L334.848 58.085C334.686 58.0203 334.499 57.962 334.285 57.9102C334.074 57.8584 333.877 57.8325 333.692 57.8325C333.323 57.8325 333.016 57.9118 332.769 58.0705C332.527 58.2291 332.344 58.4623 332.221 58.7699C332.101 59.0775 332.041 59.4564 332.041 59.9065C332.041 60.3372 332.099 60.7047 332.216 61.0091C332.336 61.3135 332.512 61.5466 332.745 61.7085C332.982 61.8672 333.276 61.9465 333.629 61.9465C333.911 61.9465 334.165 61.9174 334.392 61.8591C334.618 61.7976 334.824 61.7263 335.009 61.6454V62.3643C334.831 62.4549 334.631 62.5245 334.411 62.5731C334.194 62.6217 333.935 62.646 333.634 62.646ZM337.078 57.2253V62.5488H336.271V57.2253H337.078ZM336.684 55.2338C336.817 55.2338 336.93 55.2776 337.024 55.365C337.121 55.4492 337.17 55.5819 337.17 55.7633C337.17 55.9414 337.121 56.0741 337.024 56.1616C336.93 56.249 336.817 56.2927 336.684 56.2927C336.545 56.2927 336.429 56.249 336.335 56.1616C336.244 56.0741 336.199 55.9414 336.199 55.7633C336.199 55.5819 336.244 55.4492 336.335 55.365C336.429 55.2776 336.545 55.2338 336.684 55.2338ZM343.378 59.8774C343.378 60.3145 343.321 60.7047 343.208 61.0479C343.094 61.3912 342.931 61.681 342.717 61.9174C342.503 62.1538 342.244 62.3351 341.94 62.4614C341.639 62.5844 341.297 62.646 340.915 62.646C340.559 62.646 340.232 62.5844 339.934 62.4614C339.639 62.3351 339.383 62.1538 339.166 61.9174C338.953 61.681 338.786 61.3912 338.666 61.0479C338.55 60.7047 338.491 60.3145 338.491 59.8774C338.491 59.2945 338.59 58.7991 338.788 58.391C338.985 57.9798 339.267 57.6673 339.633 57.4536C340.002 57.2366 340.441 57.1282 340.949 57.1282C341.435 57.1282 341.859 57.2366 342.222 57.4536C342.587 57.6706 342.871 57.9847 343.072 58.3959C343.276 58.8039 343.378 59.2977 343.378 59.8774ZM339.327 59.8774C339.327 60.3048 339.383 60.6756 339.497 60.9897C339.61 61.3038 339.785 61.5466 340.021 61.7182C340.258 61.8899 340.562 61.9757 340.934 61.9757C341.304 61.9757 341.606 61.8899 341.843 61.7182C342.082 61.5466 342.259 61.3038 342.372 60.9897C342.485 60.6756 342.542 60.3048 342.542 59.8774C342.542 59.4532 342.485 59.0872 342.372 58.7796C342.259 58.4688 342.084 58.2291 341.848 58.0608C341.611 57.8924 341.305 57.8082 340.93 57.8082C340.376 57.8082 339.969 57.9911 339.71 58.357C339.455 58.723 339.327 59.2297 339.327 59.8774ZM347.293 57.1282C347.924 57.1282 348.402 57.2836 348.725 57.5945C349.049 57.9021 349.211 58.3975 349.211 59.0808V62.5488H348.415V59.1342C348.415 58.6906 348.313 58.3587 348.109 58.1385C347.908 57.9183 347.599 57.8082 347.181 57.8082C346.591 57.8082 346.177 57.9749 345.937 58.3085C345.698 58.642 345.578 59.1261 345.578 59.7608V62.5488H344.772V57.2253H345.422L345.544 57.9928H345.588C345.701 57.8049 345.845 57.6479 346.02 57.5216C346.195 57.3921 346.391 57.2949 346.608 57.2302C346.825 57.1622 347.053 57.1282 347.293 57.1282ZM352.864 57.1379C353.498 57.1379 353.97 57.2804 354.277 57.5653C354.585 57.8503 354.739 58.3052 354.739 58.9302V62.5488H354.151L353.995 61.762H353.957C353.808 61.9562 353.652 62.1198 353.49 62.2525C353.328 62.3821 353.141 62.4808 352.927 62.5488C352.716 62.6136 352.457 62.646 352.15 62.646C351.826 62.646 351.538 62.5893 351.285 62.476C351.036 62.3626 350.838 62.191 350.693 61.9611C350.55 61.7312 350.479 61.4398 350.479 61.0868C350.479 60.5557 350.689 60.1477 351.11 59.8628C351.531 59.5778 352.172 59.4224 353.034 59.3965L353.952 59.3576V59.0322C353.952 58.5724 353.853 58.2502 353.655 58.0656C353.458 57.881 353.179 57.7887 352.82 57.7887C352.542 57.7887 352.276 57.8292 352.023 57.9102C351.771 57.9911 351.531 58.0867 351.305 58.1968L351.057 57.5847C351.296 57.4617 351.572 57.3565 351.883 57.269C352.193 57.1816 352.521 57.1379 352.864 57.1379ZM353.942 59.9259L353.131 59.9599C352.467 59.9858 351.999 60.0943 351.727 60.2854C351.455 60.4764 351.319 60.7468 351.319 61.0965C351.319 61.4009 351.411 61.626 351.596 61.7717C351.781 61.9174 352.025 61.9902 352.329 61.9902C352.802 61.9902 353.189 61.8591 353.49 61.5968C353.791 61.3345 353.942 60.9411 353.942 60.4165V59.9259ZM358.819 57.1282C358.926 57.1282 359.037 57.1346 359.154 57.1476C359.27 57.1573 359.374 57.1719 359.465 57.1913L359.363 57.9393C359.275 57.9167 359.178 57.8988 359.071 57.8859C358.964 57.8729 358.864 57.8665 358.77 57.8665C358.556 57.8665 358.354 57.9102 358.163 57.9976C357.975 58.0818 357.81 58.2049 357.668 58.3668C357.525 58.5254 357.413 58.7181 357.332 58.9448C357.251 59.1682 357.211 59.4175 357.211 59.6928V62.5488H356.4V57.2253H357.07L357.158 58.2065H357.192C357.302 58.0089 357.434 57.8292 357.59 57.6673C357.745 57.5022 357.925 57.371 358.129 57.2739C358.336 57.1767 358.566 57.1282 358.819 57.1282ZM365.104 57.1282C365.557 57.1282 365.946 57.2285 366.27 57.4293C366.594 57.6301 366.841 57.9118 367.013 58.2745C367.184 58.6339 367.27 59.0549 367.27 59.5373V60.0376H363.593C363.603 60.6626 363.759 61.1386 364.06 61.4657C364.361 61.7927 364.785 61.9562 365.332 61.9562C365.669 61.9562 365.967 61.9255 366.226 61.864C366.485 61.8024 366.754 61.7118 367.032 61.592V62.3011C366.764 62.4209 366.496 62.5084 366.231 62.5634C365.969 62.6184 365.658 62.646 365.298 62.646C364.787 62.646 364.34 62.5424 363.958 62.3351C363.579 62.1246 363.284 61.817 363.074 61.4122C362.863 61.0075 362.758 60.512 362.758 59.9259C362.758 59.3528 362.853 58.8573 363.045 58.4396C363.239 58.0187 363.511 57.6948 363.861 57.4682C364.213 57.2415 364.628 57.1282 365.104 57.1282ZM365.094 57.7887C364.664 57.7887 364.32 57.9296 364.065 58.2113C363.809 58.493 363.657 58.8865 363.608 59.3916H366.425C366.422 59.0743 366.372 58.7958 366.275 58.5562C366.181 58.3133 366.037 58.1255 365.842 57.9928C365.648 57.8567 365.399 57.7887 365.094 57.7887ZM369.451 62.5488H368.64V54.991H369.451V62.5488ZM375.79 57.1282C376.243 57.1282 376.632 57.2285 376.956 57.4293C377.279 57.6301 377.527 57.9118 377.699 58.2745C377.87 58.6339 377.956 59.0549 377.956 59.5373V60.0376H374.279C374.289 60.6626 374.444 61.1386 374.746 61.4657C375.047 61.7927 375.471 61.9562 376.018 61.9562C376.355 61.9562 376.653 61.9255 376.912 61.864C377.171 61.8024 377.44 61.7118 377.718 61.592V62.3011C377.449 62.4209 377.182 62.5084 376.917 62.5634C376.654 62.6184 376.344 62.646 375.984 62.646C375.473 62.646 375.026 62.5424 374.644 62.3351C374.265 62.1246 373.97 61.817 373.76 61.4122C373.549 61.0075 373.444 60.512 373.444 59.9259C373.444 59.3528 373.539 58.8573 373.73 58.4396C373.925 58.0187 374.197 57.6948 374.546 57.4682C374.899 57.2415 375.314 57.1282 375.79 57.1282ZM375.78 57.7887C375.349 57.7887 375.006 57.9296 374.75 58.2113C374.495 58.493 374.342 58.8865 374.294 59.3916H377.111C377.108 59.0743 377.058 58.7958 376.96 58.5562C376.867 58.3133 376.722 58.1255 376.528 57.9928C376.334 57.8567 376.085 57.7887 375.78 57.7887ZM381.847 57.1282C382.478 57.1282 382.956 57.2836 383.28 57.5945C383.604 57.9021 383.765 58.3975 383.765 59.0808V62.5488H382.969V59.1342C382.969 58.6906 382.867 58.3587 382.663 58.1385C382.462 57.9183 382.153 57.8082 381.735 57.8082C381.146 57.8082 380.731 57.9749 380.492 58.3085C380.252 58.642 380.132 59.1261 380.132 59.7608V62.5488H379.326V57.2253H379.977L380.098 57.9928H380.142C380.255 57.8049 380.399 57.6479 380.574 57.5216C380.749 57.3921 380.945 57.2949 381.162 57.2302C381.379 57.1622 381.607 57.1282 381.847 57.1282ZM386.238 62.5488H385.427V54.991H386.238V62.5488ZM389.934 57.1379C390.569 57.1379 391.04 57.2804 391.348 57.5653C391.655 57.8503 391.809 58.3052 391.809 58.9302V62.5488H391.221L391.066 61.762H391.027C390.878 61.9562 390.723 62.1198 390.561 62.2525C390.399 62.3821 390.211 62.4808 389.997 62.5488C389.787 62.6136 389.528 62.646 389.22 62.646C388.896 62.646 388.608 62.5893 388.355 62.476C388.106 62.3626 387.909 62.191 387.763 61.9611C387.62 61.7312 387.549 61.4398 387.549 61.0868C387.549 60.5557 387.76 60.1477 388.181 59.8628C388.602 59.5778 389.243 59.4224 390.104 59.3965L391.022 59.3576V59.0322C391.022 58.5724 390.923 58.2502 390.726 58.0656C390.528 57.881 390.25 57.7887 389.89 57.7887C389.612 57.7887 389.346 57.8292 389.094 57.9102C388.841 57.9911 388.602 58.0867 388.375 58.1968L388.127 57.5847C388.367 57.4617 388.642 57.3565 388.953 57.269C389.264 57.1816 389.591 57.1379 389.934 57.1379ZM391.012 59.9259L390.201 59.9599C389.537 59.9858 389.07 60.0943 388.798 60.2854C388.526 60.4764 388.389 60.7468 388.389 61.0965C388.389 61.4009 388.482 61.626 388.666 61.7717C388.851 61.9174 389.095 61.9902 389.4 61.9902C389.873 61.9902 390.26 61.8591 390.561 61.5968C390.862 61.3345 391.012 60.9411 391.012 60.4165V59.9259ZM395.602 62.646C395.123 62.646 394.701 62.5472 394.335 62.3497C393.969 62.1522 393.684 61.851 393.48 61.4462C393.276 61.0415 393.174 60.5315 393.174 59.9162C393.174 59.2718 393.281 58.7456 393.494 58.3376C393.711 57.9264 394.009 57.622 394.388 57.4245C394.767 57.2269 395.198 57.1282 395.68 57.1282C395.946 57.1282 396.202 57.1557 396.448 57.2107C396.697 57.2625 396.901 57.3289 397.06 57.4099L396.817 58.085C396.655 58.0203 396.467 57.962 396.253 57.9102C396.043 57.8584 395.845 57.8325 395.661 57.8325C395.292 57.8325 394.984 57.9118 394.738 58.0705C394.495 58.2291 394.312 58.4623 394.189 58.7699C394.069 59.0775 394.009 59.4564 394.009 59.9065C394.009 60.3372 394.068 60.7047 394.184 61.0091C394.304 61.3135 394.48 61.5466 394.714 61.7085C394.95 61.8672 395.245 61.9465 395.598 61.9465C395.879 61.9465 396.134 61.9174 396.36 61.8591C396.587 61.7976 396.792 61.7263 396.977 61.6454V62.3643C396.799 62.4549 396.6 62.5245 396.38 62.5731C396.163 62.6217 395.904 62.646 395.602 62.646ZM400.29 57.1282C400.743 57.1282 401.132 57.2285 401.455 57.4293C401.779 57.6301 402.027 57.9118 402.199 58.2745C402.37 58.6339 402.456 59.0549 402.456 59.5373V60.0376H398.779C398.789 60.6626 398.944 61.1386 399.245 61.4657C399.547 61.7927 399.971 61.9562 400.518 61.9562C400.855 61.9562 401.153 61.9255 401.412 61.864C401.671 61.8024 401.94 61.7118 402.218 61.592V62.3011C401.949 62.4209 401.682 62.5084 401.417 62.5634C401.154 62.6184 400.843 62.646 400.484 62.646C399.972 62.646 399.525 62.5424 399.143 62.3351C398.765 62.1246 398.47 61.817 398.259 61.4122C398.049 61.0075 397.944 60.512 397.944 59.9259C397.944 59.3528 398.039 58.8573 398.23 58.4396C398.425 58.0187 398.697 57.6948 399.046 57.4682C399.399 57.2415 399.814 57.1282 400.29 57.1282ZM400.28 57.7887C399.849 57.7887 399.506 57.9296 399.25 58.2113C398.994 58.493 398.842 58.8865 398.794 59.3916H401.611C401.608 59.0743 401.557 58.7958 401.46 58.5562C401.366 58.3133 401.222 58.1255 401.028 57.9928C400.834 57.8567 400.584 57.7887 400.28 57.7887ZM408.304 62.646C407.631 62.646 407.096 62.4161 406.701 61.9562C406.309 61.4964 406.114 60.8132 406.114 59.9065C406.114 58.9901 406.314 58.2988 406.716 57.8325C407.117 57.3629 407.652 57.1282 408.319 57.1282C408.6 57.1282 408.847 57.1654 409.057 57.2399C409.267 57.3144 409.449 57.4147 409.601 57.541C409.753 57.6641 409.881 57.8049 409.985 57.9636H410.043C410.03 57.8632 410.017 57.7256 410.004 57.5507C409.991 57.3759 409.985 57.2334 409.985 57.1233V54.991H410.791V62.5488H410.14L410.019 61.7911H409.985C409.884 61.9498 409.756 62.0939 409.601 62.2234C409.449 62.3529 409.266 62.4565 409.052 62.5343C408.842 62.6087 408.592 62.646 408.304 62.646ZM408.43 61.9757C409 61.9757 409.403 61.8138 409.64 61.49C409.876 61.1661 409.994 60.6853 409.994 60.0474V59.9016C409.994 59.2249 409.881 58.7051 409.654 58.3425C409.431 57.9798 409.023 57.7985 408.43 57.7985C407.935 57.7985 407.564 57.9895 407.318 58.3716C407.072 58.7505 406.949 59.2686 406.949 59.9259C406.949 60.58 407.07 61.0852 407.313 61.4414C407.559 61.7976 407.932 61.9757 408.43 61.9757ZM414.551 57.1282C415.004 57.1282 415.392 57.2285 415.716 57.4293C416.04 57.6301 416.288 57.9118 416.459 58.2745C416.631 58.6339 416.717 59.0549 416.717 59.5373V60.0376H413.04C413.05 60.6626 413.205 61.1386 413.506 61.4657C413.807 61.7927 414.232 61.9562 414.779 61.9562C415.116 61.9562 415.413 61.9255 415.673 61.864C415.932 61.8024 416.2 61.7118 416.479 61.592V62.3011C416.21 62.4209 415.943 62.5084 415.677 62.5634C415.415 62.6184 415.104 62.646 414.745 62.646C414.233 62.646 413.786 62.5424 413.404 62.3351C413.025 62.1246 412.731 61.817 412.52 61.4122C412.31 61.0075 412.204 60.512 412.204 59.9259C412.204 59.3528 412.3 58.8573 412.491 58.4396C412.685 58.0187 412.957 57.6948 413.307 57.4682C413.66 57.2415 414.075 57.1282 414.551 57.1282ZM414.541 57.7887C414.11 57.7887 413.767 57.9296 413.511 58.2113C413.255 58.493 413.103 58.8865 413.054 59.3916H415.872C415.868 59.0743 415.818 58.7958 415.721 58.5562C415.627 58.3133 415.483 58.1255 415.289 57.9928C415.095 57.8567 414.845 57.7887 414.541 57.7887ZM423.172 57.1282C423.836 57.1282 424.365 57.3565 424.76 57.813C425.155 58.2696 425.353 58.9561 425.353 59.8725C425.353 60.478 425.262 60.9864 425.081 61.3977C424.9 61.8089 424.644 62.1198 424.314 62.3303C423.986 62.5407 423.6 62.646 423.153 62.646C422.871 62.646 422.623 62.6087 422.41 62.5343C422.196 62.4598 422.013 62.3594 421.861 62.2331C421.708 62.1068 421.582 61.9692 421.482 61.8202H421.423C421.433 61.9465 421.445 62.0987 421.457 62.2768C421.474 62.4549 421.482 62.6104 421.482 62.7431V64.9289H420.671V57.2253H421.336L421.443 58.0122H421.482C421.585 57.8503 421.712 57.7029 421.861 57.5702C422.01 57.4342 422.191 57.3273 422.405 57.2496C422.622 57.1686 422.877 57.1282 423.172 57.1282ZM423.031 57.8082C422.662 57.8082 422.364 57.8794 422.137 58.0219C421.914 58.1644 421.751 58.3781 421.647 58.663C421.543 58.9448 421.488 59.2993 421.482 59.7268V59.8822C421.482 60.3323 421.53 60.7128 421.627 61.0237C421.728 61.3345 421.891 61.5709 422.118 61.7328C422.348 61.8947 422.656 61.9757 423.041 61.9757C423.371 61.9757 423.646 61.8866 423.867 61.7085C424.087 61.5304 424.25 61.2827 424.357 60.9654C424.467 60.6448 424.522 60.2773 424.522 59.8628C424.522 59.2346 424.399 58.7359 424.153 58.3668C423.91 57.9944 423.536 57.8082 423.031 57.8082ZM428.753 57.1379C429.388 57.1379 429.859 57.2804 430.166 57.5653C430.474 57.8503 430.628 58.3052 430.628 58.9302V62.5488H430.04L429.885 61.762H429.846C429.697 61.9562 429.542 62.1198 429.38 62.2525C429.218 62.3821 429.03 62.4808 428.816 62.5488C428.606 62.6136 428.347 62.646 428.039 62.646C427.715 62.646 427.427 62.5893 427.174 62.476C426.925 62.3626 426.728 62.191 426.582 61.9611C426.439 61.7312 426.368 61.4398 426.368 61.0868C426.368 60.5557 426.579 60.1477 427 59.8628C427.421 59.5778 428.062 59.4224 428.923 59.3965L429.841 59.3576V59.0322C429.841 58.5724 429.742 58.2502 429.545 58.0656C429.347 57.881 429.069 57.7887 428.709 57.7887C428.431 57.7887 428.165 57.8292 427.913 57.9102C427.66 57.9911 427.421 58.0867 427.194 58.1968L426.946 57.5847C427.186 57.4617 427.461 57.3565 427.772 57.269C428.083 57.1816 428.41 57.1379 428.753 57.1379ZM429.831 59.9259L429.02 59.9599C428.356 59.9858 427.888 60.0943 427.616 60.2854C427.344 60.4764 427.208 60.7468 427.208 61.0965C427.208 61.4009 427.301 61.626 427.485 61.7717C427.67 61.9174 427.914 61.9902 428.219 61.9902C428.692 61.9902 429.078 61.8591 429.38 61.5968C429.681 61.3345 429.831 60.9411 429.831 60.4165V59.9259ZM430.084 54.9278V55.025C430.019 55.1189 429.93 55.2322 429.817 55.365C429.707 55.4945 429.584 55.6321 429.448 55.7779C429.312 55.9203 429.174 56.0563 429.035 56.1859C428.899 56.3154 428.772 56.4271 428.656 56.521H428.117V56.4044C428.22 56.2814 428.334 56.1341 428.457 55.9624C428.58 55.7876 428.7 55.6095 428.816 55.4281C428.933 55.2436 429.03 55.0768 429.108 54.9278H430.084ZM433.775 64.9386C433.076 64.9386 432.537 64.8074 432.158 64.5451C431.779 64.2861 431.59 63.9218 431.59 63.4523C431.59 63.1187 431.695 62.8338 431.905 62.5974C432.119 62.361 432.414 62.204 432.789 62.1262C432.65 62.0615 432.53 61.9643 432.43 61.8348C432.333 61.7053 432.284 61.5563 432.284 61.388C432.284 61.1937 432.338 61.0237 432.445 60.8779C432.555 60.729 432.721 60.5865 432.945 60.4505C432.666 60.3372 432.44 60.1461 432.265 59.8774C432.093 59.6054 432.007 59.2896 432.007 58.9302C432.007 58.5481 432.087 58.2227 432.245 57.9539C432.404 57.6819 432.634 57.4746 432.935 57.3322C433.236 57.1897 433.601 57.1185 434.028 57.1185C434.122 57.1185 434.216 57.1233 434.31 57.133C434.407 57.1395 434.499 57.1508 434.587 57.167C434.674 57.18 434.75 57.1962 434.815 57.2156H436.641V57.7353L435.66 57.8567C435.757 57.983 435.838 58.1352 435.903 58.3133C435.968 58.4914 436 58.689 436 58.9059C436 59.437 435.82 59.8595 435.461 60.1736C435.101 60.4845 434.608 60.6399 433.979 60.6399C433.83 60.6399 433.678 60.627 433.523 60.6011C433.364 60.6885 433.243 60.7857 433.159 60.8925C433.078 60.9994 433.037 61.1224 433.037 61.2617C433.037 61.3653 433.068 61.4479 433.129 61.5094C433.194 61.5709 433.286 61.6162 433.406 61.6454C433.526 61.6713 433.67 61.6842 433.839 61.6842H434.776C435.356 61.6842 435.799 61.8057 436.107 62.0485C436.418 62.2914 436.573 62.646 436.573 63.1123C436.573 63.7016 436.334 64.1533 435.854 64.4674C435.375 64.7815 434.682 64.9386 433.775 64.9386ZM433.8 64.3071C434.24 64.3071 434.604 64.2618 434.893 64.1711C435.184 64.0837 435.401 63.9558 435.543 63.7874C435.689 63.6223 435.762 63.4247 435.762 63.1948C435.762 62.9811 435.713 62.8192 435.616 62.7091C435.519 62.6023 435.377 62.531 435.189 62.4954C435.001 62.4565 434.771 62.4371 434.499 62.4371H433.576C433.337 62.4371 433.128 62.4744 432.95 62.5488C432.772 62.6233 432.634 62.7334 432.537 62.8791C432.443 63.0248 432.396 63.2062 432.396 63.4231C432.396 63.7113 432.517 63.9299 432.76 64.0789C433.003 64.231 433.35 64.3071 433.8 64.3071ZM434.009 60.0522C434.394 60.0522 434.684 59.9551 434.878 59.7608C435.072 59.5665 435.169 59.2832 435.169 58.9108C435.169 58.5125 435.071 58.2146 434.873 58.017C434.676 57.8163 434.384 57.7159 433.999 57.7159C433.63 57.7159 433.345 57.8195 433.144 58.0268C432.946 58.2308 432.848 58.5303 432.848 58.9253C432.848 59.288 432.948 59.5665 433.149 59.7608C433.35 59.9551 433.636 60.0522 434.009 60.0522ZM438.497 57.2253V62.5488H437.69V57.2253H438.497ZM438.103 55.2338C438.236 55.2338 438.349 55.2776 438.443 55.365C438.54 55.4492 438.589 55.5819 438.589 55.7633C438.589 55.9414 438.54 56.0741 438.443 56.1616C438.349 56.249 438.236 56.2927 438.103 56.2927C437.964 56.2927 437.847 56.249 437.753 56.1616C437.663 56.0741 437.617 55.9414 437.617 55.7633C437.617 55.5819 437.663 55.4492 437.753 55.365C437.847 55.2776 437.964 55.2338 438.103 55.2338ZM442.727 57.1282C443.359 57.1282 443.836 57.2836 444.16 57.5945C444.484 57.9021 444.646 58.3975 444.646 59.0808V62.5488H443.849V59.1342C443.849 58.6906 443.747 58.3587 443.543 58.1385C443.343 57.9183 443.033 57.8082 442.616 57.8082C442.026 57.8082 441.612 57.9749 441.372 58.3085C441.132 58.642 441.013 59.1261 441.013 59.7608V62.5488H440.206V57.2253H440.857L440.979 57.9928H441.022C441.136 57.8049 441.28 57.6479 441.455 57.5216C441.63 57.3921 441.825 57.2949 442.042 57.2302C442.259 57.1622 442.488 57.1282 442.727 57.1282ZM448.299 57.1379C448.933 57.1379 449.404 57.2804 449.712 57.5653C450.02 57.8503 450.173 58.3052 450.173 58.9302V62.5488H449.586L449.43 61.762H449.391C449.242 61.9562 449.087 62.1198 448.925 62.2525C448.763 62.3821 448.575 62.4808 448.362 62.5488C448.151 62.6136 447.892 62.646 447.584 62.646C447.261 62.646 446.972 62.5893 446.72 62.476C446.471 62.3626 446.273 62.191 446.127 61.9611C445.985 61.7312 445.914 61.4398 445.914 61.0868C445.914 60.5557 446.124 60.1477 446.545 59.8628C446.966 59.5778 447.607 59.4224 448.469 59.3965L449.387 59.3576V59.0322C449.387 58.5724 449.288 58.2502 449.09 58.0656C448.893 57.881 448.614 57.7887 448.255 57.7887C447.976 57.7887 447.711 57.8292 447.458 57.9102C447.206 57.9911 446.966 58.0867 446.739 58.1968L446.492 57.5847C446.731 57.4617 447.006 57.3565 447.317 57.269C447.628 57.1816 447.955 57.1379 448.299 57.1379ZM449.377 59.9259L448.566 59.9599C447.902 59.9858 447.434 60.0943 447.162 60.2854C446.89 60.4764 446.754 60.7468 446.754 61.0965C446.754 61.4009 446.846 61.626 447.031 61.7717C447.215 61.9174 447.46 61.9902 447.764 61.9902C448.237 61.9902 448.624 61.8591 448.925 61.5968C449.226 61.3345 449.377 60.9411 449.377 60.4165V59.9259Z" fill="#101E37"/>
<defs>
<clipPath id="clip0_742_9596">
<rect width="40" height="24" fill="white" transform="translate(118 90.5)"/>
</clipPath>
<clipPath id="clip1_742_9596">
<rect x="194" y="90" width="256" height="25" rx="8" fill="white"/>
</clipPath>
</defs>
</svg>
