<svg width="728" height="248" viewBox="0 0 728 248" fill="none" xmlns="http://www.w3.org/2000/svg">
<rect x="1" y="1" width="726" height="246" rx="7" fill="white"/>
<rect x="1" y="1" width="726" height="246" rx="7" stroke="#E6EBF0" stroke-width="2"/>
<path d="M218.508 62.9609C218.508 63.638 218.339 64.2161 218 64.6953C217.667 65.1693 217.198 65.5312 216.594 65.7812C215.99 66.0312 215.279 66.1562 214.461 66.1562C214.029 66.1562 213.62 66.1354 213.234 66.0938C212.849 66.0521 212.495 65.9922 212.172 65.9141C211.849 65.8359 211.565 65.7396 211.32 65.625V64.3516C211.711 64.513 212.188 64.6641 212.75 64.8047C213.312 64.9401 213.901 65.0078 214.516 65.0078C215.089 65.0078 215.573 64.9323 215.969 64.7812C216.365 64.625 216.664 64.4036 216.867 64.1172C217.076 63.8255 217.18 63.4766 217.18 63.0703C217.18 62.6797 217.094 62.3542 216.922 62.0938C216.75 61.8281 216.464 61.5885 216.062 61.375C215.667 61.1562 215.125 60.9245 214.438 60.6797C213.953 60.5078 213.526 60.3203 213.156 60.1172C212.786 59.9089 212.477 59.6745 212.227 59.4141C211.977 59.1536 211.786 58.8516 211.656 58.5078C211.531 58.1641 211.469 57.7708 211.469 57.3281C211.469 56.7188 211.622 56.1979 211.93 55.7656C212.242 55.3281 212.672 54.9948 213.219 54.7656C213.771 54.5312 214.404 54.4141 215.117 54.4141C215.727 54.4141 216.289 54.4714 216.805 54.5859C217.326 54.7005 217.802 54.8542 218.234 55.0469L217.82 56.1875C217.409 56.0156 216.971 55.8724 216.508 55.7578C216.049 55.6432 215.576 55.5859 215.086 55.5859C214.596 55.5859 214.182 55.6589 213.844 55.8047C213.51 55.9453 213.255 56.1458 213.078 56.4062C212.901 56.6667 212.812 56.9766 212.812 57.3359C212.812 57.737 212.896 58.0703 213.062 58.3359C213.234 58.6016 213.505 58.8385 213.875 59.0469C214.25 59.25 214.745 59.4635 215.359 59.6875C216.031 59.9323 216.602 60.1927 217.07 60.4688C217.539 60.7396 217.896 61.0729 218.141 61.4688C218.385 61.8594 218.508 62.3568 218.508 62.9609ZM228.031 61.7031C228.031 62.4062 227.94 63.0339 227.758 63.5859C227.576 64.138 227.312 64.6042 226.969 64.9844C226.625 65.3646 226.208 65.6562 225.719 65.8594C225.234 66.0573 224.685 66.1562 224.07 66.1562C223.497 66.1562 222.971 66.0573 222.492 65.8594C222.018 65.6562 221.607 65.3646 221.258 64.9844C220.914 64.6042 220.646 64.138 220.453 63.5859C220.266 63.0339 220.172 62.4062 220.172 61.7031C220.172 60.7656 220.331 59.9688 220.648 59.3125C220.966 58.651 221.419 58.1484 222.008 57.8047C222.602 57.4557 223.307 57.2812 224.125 57.2812C224.906 57.2812 225.589 57.4557 226.172 57.8047C226.76 58.1536 227.216 58.6589 227.539 59.3203C227.867 59.9766 228.031 60.7708 228.031 61.7031ZM221.516 61.7031C221.516 62.3906 221.607 62.987 221.789 63.4922C221.971 63.9974 222.253 64.388 222.633 64.6641C223.013 64.9401 223.503 65.0781 224.102 65.0781C224.695 65.0781 225.182 64.9401 225.562 64.6641C225.948 64.388 226.232 63.9974 226.414 63.4922C226.596 62.987 226.688 62.3906 226.688 61.7031C226.688 61.0208 226.596 60.4323 226.414 59.9375C226.232 59.4375 225.951 59.0521 225.57 58.7812C225.19 58.5104 224.698 58.375 224.094 58.375C223.203 58.375 222.549 58.6693 222.133 59.2578C221.721 59.8464 221.516 60.6615 221.516 61.7031ZM231.57 53.8438V56.8828C231.57 57.2318 231.56 57.5703 231.539 57.8984C231.523 58.2266 231.51 58.4818 231.5 58.6641H231.57C231.805 58.2786 232.143 57.9531 232.586 57.6875C233.029 57.4219 233.594 57.2891 234.281 57.2891C235.354 57.2891 236.208 57.6615 236.844 58.4062C237.484 59.1458 237.805 60.2474 237.805 61.7109C237.805 62.6745 237.659 63.487 237.367 64.1484C237.076 64.8099 236.664 65.3099 236.133 65.6484C235.602 65.987 234.974 66.1562 234.25 66.1562C233.573 66.1562 233.016 66.0312 232.578 65.7812C232.146 65.526 231.812 65.2161 231.578 64.8516H231.477L231.211 66H230.273V53.8438H231.57ZM234.07 58.375C233.451 58.375 232.958 58.4974 232.594 58.7422C232.229 58.9818 231.966 59.3464 231.805 59.8359C231.648 60.3203 231.57 60.9349 231.57 61.6797V61.75C231.57 62.8281 231.75 63.6536 232.109 64.2266C232.469 64.7943 233.122 65.0781 234.07 65.0781C234.867 65.0781 235.464 64.7865 235.859 64.2031C236.26 63.6198 236.461 62.7865 236.461 61.7031C236.461 60.599 236.263 59.7682 235.867 59.2109C235.477 58.6536 234.878 58.375 234.07 58.375ZM243.961 57.2812C244.133 57.2812 244.312 57.2917 244.5 57.3125C244.688 57.3281 244.854 57.3516 245 57.3828L244.836 58.5859C244.695 58.5495 244.539 58.5208 244.367 58.5C244.195 58.4792 244.034 58.4688 243.883 58.4688C243.539 58.4688 243.214 58.5391 242.906 58.6797C242.604 58.8151 242.339 59.013 242.109 59.2734C241.88 59.5286 241.701 59.8385 241.57 60.2031C241.44 60.5625 241.375 60.9635 241.375 61.4062V66H240.07V57.4375H241.148L241.289 59.0156H241.344C241.521 58.6979 241.734 58.4089 241.984 58.1484C242.234 57.8828 242.523 57.6719 242.852 57.5156C243.185 57.3594 243.555 57.2812 243.961 57.2812ZM249.914 57.2812C250.643 57.2812 251.268 57.4427 251.789 57.7656C252.31 58.0885 252.708 58.5417 252.984 59.125C253.26 59.7031 253.398 60.3802 253.398 61.1562V61.9609H247.484C247.5 62.9661 247.75 63.7318 248.234 64.2578C248.719 64.7839 249.401 65.0469 250.281 65.0469C250.823 65.0469 251.302 64.9974 251.719 64.8984C252.135 64.7995 252.568 64.6536 253.016 64.4609V65.6016C252.583 65.7943 252.154 65.9349 251.727 66.0234C251.305 66.112 250.805 66.1562 250.227 66.1562C249.404 66.1562 248.685 65.9896 248.07 65.6562C247.461 65.3177 246.987 64.8229 246.648 64.1719C246.31 63.5208 246.141 62.724 246.141 61.7812C246.141 60.8594 246.294 60.0625 246.602 59.3906C246.914 58.7135 247.352 58.1927 247.914 57.8281C248.482 57.4635 249.148 57.2812 249.914 57.2812ZM249.898 58.3438C249.206 58.3438 248.654 58.5703 248.242 59.0234C247.831 59.4766 247.586 60.1094 247.508 60.9219H252.039C252.034 60.4115 251.953 59.9635 251.797 59.5781C251.646 59.1875 251.414 58.8854 251.102 58.6719C250.789 58.4531 250.388 58.3438 249.898 58.3438ZM263.57 58.4531H261.438V66H260.141V58.4531H258.625V57.8281L260.141 57.3984V56.8281C260.141 56.1094 260.247 55.526 260.461 55.0781C260.674 54.625 260.984 54.2917 261.391 54.0781C261.797 53.8646 262.292 53.7578 262.875 53.7578C263.203 53.7578 263.503 53.7865 263.773 53.8438C264.049 53.901 264.292 53.9661 264.5 54.0391L264.164 55.0625C263.987 55.0052 263.786 54.9531 263.562 54.9062C263.344 54.8542 263.12 54.8281 262.891 54.8281C262.396 54.8281 262.029 54.9896 261.789 55.3125C261.555 55.6302 261.438 56.1302 261.438 56.8125V57.4375H263.57V58.4531ZM272.531 61.7031C272.531 62.4062 272.44 63.0339 272.258 63.5859C272.076 64.138 271.812 64.6042 271.469 64.9844C271.125 65.3646 270.708 65.6562 270.219 65.8594C269.734 66.0573 269.185 66.1562 268.57 66.1562C267.997 66.1562 267.471 66.0573 266.992 65.8594C266.518 65.6562 266.107 65.3646 265.758 64.9844C265.414 64.6042 265.146 64.138 264.953 63.5859C264.766 63.0339 264.672 62.4062 264.672 61.7031C264.672 60.7656 264.831 59.9688 265.148 59.3125C265.466 58.651 265.919 58.1484 266.508 57.8047C267.102 57.4557 267.807 57.2812 268.625 57.2812C269.406 57.2812 270.089 57.4557 270.672 57.8047C271.26 58.1536 271.716 58.6589 272.039 59.3203C272.367 59.9766 272.531 60.7708 272.531 61.7031ZM266.016 61.7031C266.016 62.3906 266.107 62.987 266.289 63.4922C266.471 63.9974 266.753 64.388 267.133 64.6641C267.513 64.9401 268.003 65.0781 268.602 65.0781C269.195 65.0781 269.682 64.9401 270.062 64.6641C270.448 64.388 270.732 63.9974 270.914 63.4922C271.096 62.987 271.188 62.3906 271.188 61.7031C271.188 61.0208 271.096 60.4323 270.914 59.9375C270.732 59.4375 270.451 59.0521 270.07 58.7812C269.69 58.5104 269.198 58.375 268.594 58.375C267.703 58.375 267.049 58.6693 266.633 59.2578C266.221 59.8464 266.016 60.6615 266.016 61.7031ZM278.828 57.2812C279.844 57.2812 280.612 57.5312 281.133 58.0312C281.654 58.526 281.914 59.3229 281.914 60.4219V66H280.633V60.5078C280.633 59.7943 280.469 59.2604 280.141 58.9062C279.818 58.5521 279.32 58.375 278.648 58.375C277.701 58.375 277.034 58.6432 276.648 59.1797C276.263 59.7161 276.07 60.4948 276.07 61.5156V66H274.773V57.4375H275.82L276.016 58.6719H276.086C276.268 58.3698 276.5 58.1172 276.781 57.9141C277.062 57.7057 277.378 57.5495 277.727 57.4453C278.076 57.3359 278.443 57.2812 278.828 57.2812ZM287.633 66.1562C286.549 66.1562 285.69 65.7865 285.055 65.0469C284.424 64.3073 284.109 63.2083 284.109 61.75C284.109 60.276 284.432 59.1641 285.078 58.4141C285.724 57.6589 286.583 57.2812 287.656 57.2812C288.109 57.2812 288.505 57.3411 288.844 57.4609C289.182 57.5807 289.474 57.7422 289.719 57.9453C289.964 58.1432 290.169 58.3698 290.336 58.625H290.43C290.409 58.4635 290.388 58.2422 290.367 57.9609C290.346 57.6797 290.336 57.4505 290.336 57.2734V53.8438H291.633V66H290.586L290.391 64.7812H290.336C290.174 65.0365 289.969 65.2682 289.719 65.4766C289.474 65.6849 289.18 65.8516 288.836 65.9766C288.497 66.0964 288.096 66.1562 287.633 66.1562ZM287.836 65.0781C288.753 65.0781 289.401 64.8177 289.781 64.2969C290.161 63.776 290.352 63.0026 290.352 61.9766V61.7422C290.352 60.6536 290.169 59.8177 289.805 59.2344C289.445 58.651 288.789 58.3594 287.836 58.3594C287.039 58.3594 286.443 58.6667 286.047 59.2812C285.651 59.8906 285.453 60.724 285.453 61.7812C285.453 62.8333 285.648 63.6458 286.039 64.2188C286.435 64.7917 287.034 65.0781 287.836 65.0781ZM301.766 61.7031C301.766 62.4062 301.674 63.0339 301.492 63.5859C301.31 64.138 301.047 64.6042 300.703 64.9844C300.359 65.3646 299.943 65.6562 299.453 65.8594C298.969 66.0573 298.419 66.1562 297.805 66.1562C297.232 66.1562 296.706 66.0573 296.227 65.8594C295.753 65.6562 295.341 65.3646 294.992 64.9844C294.648 64.6042 294.38 64.138 294.188 63.5859C294 63.0339 293.906 62.4062 293.906 61.7031C293.906 60.7656 294.065 59.9688 294.383 59.3125C294.701 58.651 295.154 58.1484 295.742 57.8047C296.336 57.4557 297.042 57.2812 297.859 57.2812C298.641 57.2812 299.323 57.4557 299.906 57.8047C300.495 58.1536 300.951 58.6589 301.273 59.3203C301.602 59.9766 301.766 60.7708 301.766 61.7031ZM295.25 61.7031C295.25 62.3906 295.341 62.987 295.523 63.4922C295.706 63.9974 295.987 64.388 296.367 64.6641C296.747 64.9401 297.237 65.0781 297.836 65.0781C298.43 65.0781 298.917 64.9401 299.297 64.6641C299.682 64.388 299.966 63.9974 300.148 63.4922C300.331 62.987 300.422 62.3906 300.422 61.7031C300.422 61.0208 300.331 60.4323 300.148 59.9375C299.966 59.4375 299.685 59.0521 299.305 58.7812C298.924 58.5104 298.432 58.375 297.828 58.375C296.938 58.375 296.284 58.6693 295.867 59.2578C295.456 59.8464 295.25 60.6615 295.25 61.7031ZM309.547 63.6562C309.547 64.2031 309.409 64.6641 309.133 65.0391C308.862 65.4089 308.471 65.6875 307.961 65.875C307.456 66.0625 306.852 66.1562 306.148 66.1562C305.549 66.1562 305.031 66.1094 304.594 66.0156C304.156 65.9219 303.773 65.7891 303.445 65.6172V64.4219C303.794 64.5938 304.211 64.75 304.695 64.8906C305.18 65.0312 305.674 65.1016 306.18 65.1016C306.919 65.1016 307.456 64.9818 307.789 64.7422C308.122 64.5026 308.289 64.1771 308.289 63.7656C308.289 63.5312 308.221 63.3255 308.086 63.1484C307.956 62.9661 307.734 62.7917 307.422 62.625C307.109 62.4531 306.677 62.2656 306.125 62.0625C305.578 61.8542 305.104 61.6484 304.703 61.4453C304.307 61.237 304 60.9844 303.781 60.6875C303.568 60.3906 303.461 60.0052 303.461 59.5312C303.461 58.8073 303.753 58.2526 304.336 57.8672C304.924 57.4766 305.695 57.2812 306.648 57.2812C307.164 57.2812 307.646 57.3333 308.094 57.4375C308.547 57.5365 308.969 57.6719 309.359 57.8438L308.922 58.8828C308.568 58.7318 308.19 58.6042 307.789 58.5C307.388 58.3958 306.979 58.3438 306.562 58.3438C305.964 58.3438 305.503 58.4427 305.18 58.6406C304.862 58.8385 304.703 59.1094 304.703 59.4531C304.703 59.7188 304.776 59.9375 304.922 60.1094C305.073 60.2812 305.312 60.4427 305.641 60.5938C305.969 60.7448 306.401 60.9219 306.938 61.125C307.474 61.3229 307.938 61.5286 308.328 61.7422C308.719 61.9505 309.018 62.2057 309.227 62.5078C309.44 62.8047 309.547 63.1875 309.547 63.6562ZM215.297 90.1562C214.526 90.1562 213.846 89.9974 213.258 89.6797C212.669 89.362 212.211 88.8776 211.883 88.2266C211.555 87.5755 211.391 86.7552 211.391 85.7656C211.391 84.7292 211.562 83.8828 211.906 83.2266C212.255 82.5651 212.734 82.0755 213.344 81.7578C213.953 81.4401 214.646 81.2812 215.422 81.2812C215.849 81.2812 216.26 81.3255 216.656 81.4141C217.057 81.4974 217.385 81.6042 217.641 81.7344L217.25 82.8203C216.99 82.7161 216.688 82.6224 216.344 82.5391C216.005 82.4557 215.688 82.4141 215.391 82.4141C214.797 82.4141 214.302 82.5417 213.906 82.7969C213.516 83.0521 213.221 83.4271 213.023 83.9219C212.831 84.4167 212.734 85.026 212.734 85.75C212.734 86.4427 212.828 87.0339 213.016 87.5234C213.208 88.013 213.492 88.388 213.867 88.6484C214.247 88.9036 214.721 89.0312 215.289 89.0312C215.742 89.0312 216.151 88.9844 216.516 88.8906C216.88 88.7917 217.211 88.6771 217.508 88.5469V89.7031C217.221 89.849 216.901 89.9609 216.547 90.0391C216.198 90.1172 215.781 90.1562 215.297 90.1562ZM220.844 90H219.539V77.8438H220.844V90ZM226.789 81.2969C227.81 81.2969 228.568 81.526 229.062 81.9844C229.557 82.4427 229.805 83.1745 229.805 84.1797V90H228.859L228.609 88.7344H228.547C228.307 89.0469 228.057 89.3099 227.797 89.5234C227.536 89.7318 227.234 89.8906 226.891 90C226.552 90.1042 226.135 90.1562 225.641 90.1562C225.12 90.1562 224.656 90.0651 224.25 89.8828C223.849 89.7005 223.531 89.4245 223.297 89.0547C223.068 88.6849 222.953 88.2161 222.953 87.6484C222.953 86.7943 223.292 86.138 223.969 85.6797C224.646 85.2214 225.677 84.9714 227.062 84.9297L228.539 84.8672V84.3438C228.539 83.6042 228.38 83.0859 228.062 82.7891C227.745 82.4922 227.297 82.3438 226.719 82.3438C226.271 82.3438 225.844 82.4089 225.438 82.5391C225.031 82.6693 224.646 82.8229 224.281 83L223.883 82.0156C224.268 81.8177 224.711 81.6484 225.211 81.5078C225.711 81.3672 226.237 81.2969 226.789 81.2969ZM228.523 85.7812L227.219 85.8359C226.151 85.8776 225.398 86.0521 224.961 86.3594C224.523 86.6667 224.305 87.1016 224.305 87.6641C224.305 88.1536 224.453 88.5156 224.75 88.75C225.047 88.9844 225.44 89.1016 225.93 89.1016C226.69 89.1016 227.312 88.8906 227.797 88.4688C228.281 88.0469 228.523 87.4141 228.523 86.5703V85.7812ZM236.367 81.2812C236.539 81.2812 236.719 81.2917 236.906 81.3125C237.094 81.3281 237.26 81.3516 237.406 81.3828L237.242 82.5859C237.102 82.5495 236.945 82.5208 236.773 82.5C236.602 82.4792 236.44 82.4688 236.289 82.4688C235.945 82.4688 235.62 82.5391 235.312 82.6797C235.01 82.8151 234.745 83.013 234.516 83.2734C234.286 83.5286 234.107 83.8385 233.977 84.2031C233.846 84.5625 233.781 84.9635 233.781 85.4062V90H232.477V81.4375H233.555L233.695 83.0156H233.75C233.927 82.6979 234.141 82.4089 234.391 82.1484C234.641 81.8828 234.93 81.6719 235.258 81.5156C235.591 81.3594 235.961 81.2812 236.367 81.2812ZM246.406 85.7031C246.406 86.4062 246.315 87.0339 246.133 87.5859C245.951 88.138 245.688 88.6042 245.344 88.9844C245 89.3646 244.583 89.6562 244.094 89.8594C243.609 90.0573 243.06 90.1562 242.445 90.1562C241.872 90.1562 241.346 90.0573 240.867 89.8594C240.393 89.6562 239.982 89.3646 239.633 88.9844C239.289 88.6042 239.021 88.138 238.828 87.5859C238.641 87.0339 238.547 86.4062 238.547 85.7031C238.547 84.7656 238.706 83.9688 239.023 83.3125C239.341 82.651 239.794 82.1484 240.383 81.8047C240.977 81.4557 241.682 81.2812 242.5 81.2812C243.281 81.2812 243.964 81.4557 244.547 81.8047C245.135 82.1536 245.591 82.6589 245.914 83.3203C246.242 83.9766 246.406 84.7708 246.406 85.7031ZM239.891 85.7031C239.891 86.3906 239.982 86.987 240.164 87.4922C240.346 87.9974 240.628 88.388 241.008 88.6641C241.388 88.9401 241.878 89.0781 242.477 89.0781C243.07 89.0781 243.557 88.9401 243.938 88.6641C244.323 88.388 244.607 87.9974 244.789 87.4922C244.971 86.987 245.062 86.3906 245.062 85.7031C245.062 85.0208 244.971 84.4323 244.789 83.9375C244.607 83.4375 244.326 83.0521 243.945 82.7812C243.565 82.5104 243.073 82.375 242.469 82.375C241.578 82.375 240.924 82.6693 240.508 83.2578C240.096 83.8464 239.891 84.6615 239.891 85.7031ZM254.188 87.6562C254.188 88.2031 254.049 88.6641 253.773 89.0391C253.503 89.4089 253.112 89.6875 252.602 89.875C252.096 90.0625 251.492 90.1562 250.789 90.1562C250.19 90.1562 249.672 90.1094 249.234 90.0156C248.797 89.9219 248.414 89.7891 248.086 89.6172V88.4219C248.435 88.5938 248.852 88.75 249.336 88.8906C249.82 89.0312 250.315 89.1016 250.82 89.1016C251.56 89.1016 252.096 88.9818 252.43 88.7422C252.763 88.5026 252.93 88.1771 252.93 87.7656C252.93 87.5312 252.862 87.3255 252.727 87.1484C252.596 86.9661 252.375 86.7917 252.062 86.625C251.75 86.4531 251.318 86.2656 250.766 86.0625C250.219 85.8542 249.745 85.6484 249.344 85.4453C248.948 85.237 248.641 84.9844 248.422 84.6875C248.208 84.3906 248.102 84.0052 248.102 83.5312C248.102 82.8073 248.393 82.2526 248.977 81.8672C249.565 81.4766 250.336 81.2812 251.289 81.2812C251.805 81.2812 252.286 81.3333 252.734 81.4375C253.188 81.5365 253.609 81.6719 254 81.8438L253.562 82.8828C253.208 82.7318 252.831 82.6042 252.43 82.5C252.029 82.3958 251.62 82.3438 251.203 82.3438C250.604 82.3438 250.143 82.4427 249.82 82.6406C249.503 82.8385 249.344 83.1094 249.344 83.4531C249.344 83.7188 249.417 83.9375 249.562 84.1094C249.714 84.2812 249.953 84.4427 250.281 84.5938C250.609 84.7448 251.042 84.9219 251.578 85.125C252.115 85.3229 252.578 85.5286 252.969 85.7422C253.359 85.9505 253.659 86.2057 253.867 86.5078C254.081 86.8047 254.188 87.1875 254.188 87.6562Z" fill="#101E37"/>
<path d="M366.422 78H360.062V66.5781H366.422V67.75H361.391V71.4453H366.133V72.6016H361.391V76.8281H366.422V78ZM372.812 69.2812C373.828 69.2812 374.596 69.5312 375.117 70.0312C375.638 70.526 375.898 71.3229 375.898 72.4219V78H374.617V72.5078C374.617 71.7943 374.453 71.2604 374.125 70.9062C373.802 70.5521 373.305 70.375 372.633 70.375C371.685 70.375 371.018 70.6432 370.633 71.1797C370.247 71.7161 370.055 72.4948 370.055 73.5156V78H368.758V69.4375H369.805L370 70.6719H370.07C370.253 70.3698 370.484 70.1172 370.766 69.9141C371.047 69.7057 371.362 69.5495 371.711 69.4453C372.06 69.3359 372.427 69.2812 372.812 69.2812ZM379.875 78H378.57V65.8438H379.875V78ZM385.82 69.2969C386.841 69.2969 387.599 69.526 388.094 69.9844C388.589 70.4427 388.836 71.1745 388.836 72.1797V78H387.891L387.641 76.7344H387.578C387.339 77.0469 387.089 77.3099 386.828 77.5234C386.568 77.7318 386.266 77.8906 385.922 78C385.583 78.1042 385.167 78.1562 384.672 78.1562C384.151 78.1562 383.688 78.0651 383.281 77.8828C382.88 77.7005 382.562 77.4245 382.328 77.0547C382.099 76.6849 381.984 76.2161 381.984 75.6484C381.984 74.7943 382.323 74.138 383 73.6797C383.677 73.2214 384.708 72.9714 386.094 72.9297L387.57 72.8672V72.3438C387.57 71.6042 387.411 71.0859 387.094 70.7891C386.776 70.4922 386.328 70.3438 385.75 70.3438C385.302 70.3438 384.875 70.4089 384.469 70.5391C384.062 70.6693 383.677 70.8229 383.312 71L382.914 70.0156C383.299 69.8177 383.742 69.6484 384.242 69.5078C384.742 69.3672 385.268 69.2969 385.82 69.2969ZM387.555 73.7812L386.25 73.8359C385.182 73.8776 384.43 74.0521 383.992 74.3594C383.555 74.6667 383.336 75.1016 383.336 75.6641C383.336 76.1536 383.484 76.5156 383.781 76.75C384.078 76.9844 384.471 77.1016 384.961 77.1016C385.721 77.1016 386.344 76.8906 386.828 76.4688C387.312 76.0469 387.555 75.4141 387.555 74.5703V73.7812ZM394.938 78.1562C394.167 78.1562 393.487 77.9974 392.898 77.6797C392.31 77.362 391.852 76.8776 391.523 76.2266C391.195 75.5755 391.031 74.7552 391.031 73.7656C391.031 72.7292 391.203 71.8828 391.547 71.2266C391.896 70.5651 392.375 70.0755 392.984 69.7578C393.594 69.4401 394.286 69.2812 395.062 69.2812C395.49 69.2812 395.901 69.3255 396.297 69.4141C396.698 69.4974 397.026 69.6042 397.281 69.7344L396.891 70.8203C396.63 70.7161 396.328 70.6224 395.984 70.5391C395.646 70.4557 395.328 70.4141 395.031 70.4141C394.438 70.4141 393.943 70.5417 393.547 70.7969C393.156 71.0521 392.862 71.4271 392.664 71.9219C392.471 72.4167 392.375 73.026 392.375 73.75C392.375 74.4427 392.469 75.0339 392.656 75.5234C392.849 76.013 393.133 76.388 393.508 76.6484C393.888 76.9036 394.362 77.0312 394.93 77.0312C395.383 77.0312 395.792 76.9844 396.156 76.8906C396.521 76.7917 396.852 76.6771 397.148 76.5469V77.7031C396.862 77.849 396.542 77.9609 396.188 78.0391C395.839 78.1172 395.422 78.1562 394.938 78.1562ZM402.477 69.2812C403.206 69.2812 403.831 69.4427 404.352 69.7656C404.872 70.0885 405.271 70.5417 405.547 71.125C405.823 71.7031 405.961 72.3802 405.961 73.1562V73.9609H400.047C400.062 74.9661 400.312 75.7318 400.797 76.2578C401.281 76.7839 401.964 77.0469 402.844 77.0469C403.385 77.0469 403.865 76.9974 404.281 76.8984C404.698 76.7995 405.13 76.6536 405.578 76.4609V77.6016C405.146 77.7943 404.716 77.9349 404.289 78.0234C403.867 78.112 403.367 78.1562 402.789 78.1562C401.966 78.1562 401.247 77.9896 400.633 77.6562C400.023 77.3177 399.549 76.8229 399.211 76.1719C398.872 75.5208 398.703 74.724 398.703 73.7812C398.703 72.8594 398.857 72.0625 399.164 71.3906C399.477 70.7135 399.914 70.1927 400.477 69.8281C401.044 69.4635 401.711 69.2812 402.477 69.2812ZM402.461 70.3438C401.768 70.3438 401.216 70.5703 400.805 71.0234C400.393 71.4766 400.148 72.1094 400.07 72.9219H404.602C404.596 72.4115 404.516 71.9635 404.359 71.5781C404.208 71.1875 403.977 70.8854 403.664 70.6719C403.352 70.4531 402.951 70.3438 402.461 70.3438ZM416.344 69.2812C417.411 69.2812 418.263 69.6484 418.898 70.3828C419.534 71.1172 419.852 72.2214 419.852 73.6953C419.852 74.6693 419.706 75.487 419.414 76.1484C419.122 76.8099 418.711 77.3099 418.18 77.6484C417.654 77.987 417.031 78.1562 416.312 78.1562C415.859 78.1562 415.461 78.0964 415.117 77.9766C414.773 77.8568 414.479 77.6953 414.234 77.4922C413.99 77.2891 413.786 77.0677 413.625 76.8281H413.531C413.547 77.0312 413.565 77.276 413.586 77.5625C413.612 77.849 413.625 78.099 413.625 78.3125V81.8281H412.32V69.4375H413.391L413.562 70.7031H413.625C413.792 70.4427 413.995 70.2057 414.234 69.9922C414.474 69.7734 414.766 69.6016 415.109 69.4766C415.458 69.3464 415.87 69.2812 416.344 69.2812ZM416.117 70.375C415.523 70.375 415.044 70.4896 414.68 70.7188C414.32 70.9479 414.057 71.2917 413.891 71.75C413.724 72.2031 413.635 72.7734 413.625 73.4609V73.7109C413.625 74.4349 413.703 75.0469 413.859 75.5469C414.021 76.0469 414.284 76.4271 414.648 76.6875C415.018 76.9479 415.513 77.0781 416.133 77.0781C416.664 77.0781 417.107 76.9349 417.461 76.6484C417.815 76.362 418.078 75.9635 418.25 75.4531C418.427 74.9375 418.516 74.3464 418.516 73.6797C418.516 72.6693 418.318 71.8672 417.922 71.2734C417.531 70.6745 416.93 70.375 416.117 70.375ZM426.008 69.2812C426.18 69.2812 426.359 69.2917 426.547 69.3125C426.734 69.3281 426.901 69.3516 427.047 69.3828L426.883 70.5859C426.742 70.5495 426.586 70.5208 426.414 70.5C426.242 70.4792 426.081 70.4688 425.93 70.4688C425.586 70.4688 425.26 70.5391 424.953 70.6797C424.651 70.8151 424.385 71.013 424.156 71.2734C423.927 71.5286 423.747 71.8385 423.617 72.2031C423.487 72.5625 423.422 72.9635 423.422 73.4062V78H422.117V69.4375H423.195L423.336 71.0156H423.391C423.568 70.6979 423.781 70.4089 424.031 70.1484C424.281 69.8828 424.57 69.6719 424.898 69.5156C425.232 69.3594 425.602 69.2812 426.008 69.2812ZM431.961 69.2812C432.69 69.2812 433.315 69.4427 433.836 69.7656C434.357 70.0885 434.755 70.5417 435.031 71.125C435.307 71.7031 435.445 72.3802 435.445 73.1562V73.9609H429.531C429.547 74.9661 429.797 75.7318 430.281 76.2578C430.766 76.7839 431.448 77.0469 432.328 77.0469C432.87 77.0469 433.349 76.9974 433.766 76.8984C434.182 76.7995 434.615 76.6536 435.062 76.4609V77.6016C434.63 77.7943 434.201 77.9349 433.773 78.0234C433.352 78.112 432.852 78.1562 432.273 78.1562C431.451 78.1562 430.732 77.9896 430.117 77.6562C429.508 77.3177 429.034 76.8229 428.695 76.1719C428.357 75.5208 428.188 74.724 428.188 73.7812C428.188 72.8594 428.341 72.0625 428.648 71.3906C428.961 70.7135 429.398 70.1927 429.961 69.8281C430.529 69.4635 431.195 69.2812 431.961 69.2812ZM431.945 70.3438C431.253 70.3438 430.701 70.5703 430.289 71.0234C429.878 71.4766 429.633 72.1094 429.555 72.9219H434.086C434.081 72.4115 434 71.9635 433.844 71.5781C433.693 71.1875 433.461 70.8854 433.148 70.6719C432.836 70.4531 432.435 70.3438 431.945 70.3438ZM440.695 78.1562C439.612 78.1562 438.753 77.7865 438.117 77.0469C437.487 76.3073 437.172 75.2083 437.172 73.75C437.172 72.276 437.495 71.1641 438.141 70.4141C438.786 69.6589 439.646 69.2812 440.719 69.2812C441.172 69.2812 441.568 69.3411 441.906 69.4609C442.245 69.5807 442.536 69.7422 442.781 69.9453C443.026 70.1432 443.232 70.3698 443.398 70.625H443.492C443.471 70.4635 443.451 70.2422 443.43 69.9609C443.409 69.6797 443.398 69.4505 443.398 69.2734V65.8438H444.695V78H443.648L443.453 76.7812H443.398C443.237 77.0365 443.031 77.2682 442.781 77.4766C442.536 77.6849 442.242 77.8516 441.898 77.9766C441.56 78.0964 441.159 78.1562 440.695 78.1562ZM440.898 77.0781C441.815 77.0781 442.464 76.8177 442.844 76.2969C443.224 75.776 443.414 75.0026 443.414 73.9766V73.7422C443.414 72.6536 443.232 71.8177 442.867 71.2344C442.508 70.651 441.852 70.3594 440.898 70.3594C440.102 70.3594 439.505 70.6667 439.109 71.2812C438.714 71.8906 438.516 72.724 438.516 73.7812C438.516 74.8333 438.711 75.6458 439.102 76.2188C439.497 76.7917 440.096 77.0781 440.898 77.0781ZM450.742 69.2812C451.471 69.2812 452.096 69.4427 452.617 69.7656C453.138 70.0885 453.536 70.5417 453.812 71.125C454.089 71.7031 454.227 72.3802 454.227 73.1562V73.9609H448.312C448.328 74.9661 448.578 75.7318 449.062 76.2578C449.547 76.7839 450.229 77.0469 451.109 77.0469C451.651 77.0469 452.13 76.9974 452.547 76.8984C452.964 76.7995 453.396 76.6536 453.844 76.4609V77.6016C453.411 77.7943 452.982 77.9349 452.555 78.0234C452.133 78.112 451.633 78.1562 451.055 78.1562C450.232 78.1562 449.513 77.9896 448.898 77.6562C448.289 77.3177 447.815 76.8229 447.477 76.1719C447.138 75.5208 446.969 74.724 446.969 73.7812C446.969 72.8594 447.122 72.0625 447.43 71.3906C447.742 70.7135 448.18 70.1927 448.742 69.8281C449.31 69.4635 449.977 69.2812 450.742 69.2812ZM450.727 70.3438C450.034 70.3438 449.482 70.5703 449.07 71.0234C448.659 71.4766 448.414 72.1094 448.336 72.9219H452.867C452.862 72.4115 452.781 71.9635 452.625 71.5781C452.474 71.1875 452.242 70.8854 451.93 70.6719C451.617 70.4531 451.216 70.3438 450.727 70.3438ZM459.195 77.0938C459.409 77.0938 459.628 77.0755 459.852 77.0391C460.076 77.0026 460.258 76.9583 460.398 76.9062V77.9141C460.247 77.9818 460.036 78.0391 459.766 78.0859C459.5 78.1328 459.24 78.1562 458.984 78.1562C458.531 78.1562 458.12 78.0781 457.75 77.9219C457.38 77.7604 457.083 77.4896 456.859 77.1094C456.641 76.7292 456.531 76.2031 456.531 75.5312V70.4531H455.312V69.8203L456.539 69.3125L457.055 67.4531H457.836V69.4375H460.344V70.4531H457.836V75.4922C457.836 76.0286 457.958 76.4297 458.203 76.6953C458.453 76.9609 458.784 77.0938 459.195 77.0938ZM465.43 69.2812C466.159 69.2812 466.784 69.4427 467.305 69.7656C467.826 70.0885 468.224 70.5417 468.5 71.125C468.776 71.7031 468.914 72.3802 468.914 73.1562V73.9609H463C463.016 74.9661 463.266 75.7318 463.75 76.2578C464.234 76.7839 464.917 77.0469 465.797 77.0469C466.339 77.0469 466.818 76.9974 467.234 76.8984C467.651 76.7995 468.083 76.6536 468.531 76.4609V77.6016C468.099 77.7943 467.669 77.9349 467.242 78.0234C466.82 78.112 466.32 78.1562 465.742 78.1562C464.919 78.1562 464.201 77.9896 463.586 77.6562C462.977 77.3177 462.503 76.8229 462.164 76.1719C461.826 75.5208 461.656 74.724 461.656 73.7812C461.656 72.8594 461.81 72.0625 462.117 71.3906C462.43 70.7135 462.867 70.1927 463.43 69.8281C463.997 69.4635 464.664 69.2812 465.43 69.2812ZM465.414 70.3438C464.721 70.3438 464.169 70.5703 463.758 71.0234C463.346 71.4766 463.102 72.1094 463.023 72.9219H467.555C467.549 72.4115 467.469 71.9635 467.312 71.5781C467.161 71.1875 466.93 70.8854 466.617 70.6719C466.305 70.4531 465.904 70.3438 465.414 70.3438ZM475.008 69.2812C475.18 69.2812 475.359 69.2917 475.547 69.3125C475.734 69.3281 475.901 69.3516 476.047 69.3828L475.883 70.5859C475.742 70.5495 475.586 70.5208 475.414 70.5C475.242 70.4792 475.081 70.4688 474.93 70.4688C474.586 70.4688 474.26 70.5391 473.953 70.6797C473.651 70.8151 473.385 71.013 473.156 71.2734C472.927 71.5286 472.747 71.8385 472.617 72.2031C472.487 72.5625 472.422 72.9635 472.422 73.4062V78H471.117V69.4375H472.195L472.336 71.0156H472.391C472.568 70.6979 472.781 70.4089 473.031 70.1484C473.281 69.8828 473.57 69.6719 473.898 69.5156C474.232 69.3594 474.602 69.2812 475.008 69.2812ZM486.961 69.2812C487.904 69.2812 488.615 69.5286 489.094 70.0234C489.573 70.513 489.812 71.3021 489.812 72.3906V78H488.531V72.4531C488.531 71.7604 488.38 71.2422 488.078 70.8984C487.781 70.5495 487.339 70.375 486.75 70.375C485.922 70.375 485.32 70.6146 484.945 71.0938C484.57 71.5729 484.383 72.2786 484.383 73.2109V78H483.094V72.4531C483.094 71.9896 483.026 71.6042 482.891 71.2969C482.76 70.9896 482.562 70.7604 482.297 70.6094C482.036 70.4531 481.706 70.375 481.305 70.375C480.737 70.375 480.281 70.4922 479.938 70.7266C479.594 70.9609 479.344 71.3099 479.188 71.7734C479.036 72.2318 478.961 72.7969 478.961 73.4688V78H477.664V69.4375H478.711L478.906 70.6484H478.977C479.148 70.3516 479.365 70.1016 479.625 69.8984C479.885 69.6953 480.177 69.5417 480.5 69.4375C480.823 69.3333 481.167 69.2812 481.531 69.2812C482.182 69.2812 482.727 69.4036 483.164 69.6484C483.607 69.888 483.927 70.2552 484.125 70.75H484.195C484.477 70.2552 484.862 69.888 485.352 69.6484C485.841 69.4036 486.378 69.2812 486.961 69.2812ZM493.773 69.4375V78H492.477V69.4375H493.773ZM493.141 66.2344C493.354 66.2344 493.536 66.3047 493.688 66.4453C493.844 66.5807 493.922 66.7943 493.922 67.0859C493.922 67.3724 493.844 67.5859 493.688 67.7266C493.536 67.8672 493.354 67.9375 493.141 67.9375C492.917 67.9375 492.729 67.8672 492.578 67.7266C492.432 67.5859 492.359 67.3724 492.359 67.0859C492.359 66.7943 492.432 66.5807 492.578 66.4453C492.729 66.3047 492.917 66.2344 493.141 66.2344ZM500.578 69.2812C501.594 69.2812 502.362 69.5312 502.883 70.0312C503.404 70.526 503.664 71.3229 503.664 72.4219V78H502.383V72.5078C502.383 71.7943 502.219 71.2604 501.891 70.9062C501.568 70.5521 501.07 70.375 500.398 70.375C499.451 70.375 498.784 70.6432 498.398 71.1797C498.013 71.7161 497.82 72.4948 497.82 73.5156V78H496.523V69.4375H497.57L497.766 70.6719H497.836C498.018 70.3698 498.25 70.1172 498.531 69.9141C498.812 69.7057 499.128 69.5495 499.477 69.4453C499.826 69.3359 500.193 69.2812 500.578 69.2812ZM509.539 69.2969C510.56 69.2969 511.318 69.526 511.812 69.9844C512.307 70.4427 512.555 71.1745 512.555 72.1797V78H511.609L511.359 76.7344H511.297C511.057 77.0469 510.807 77.3099 510.547 77.5234C510.286 77.7318 509.984 77.8906 509.641 78C509.302 78.1042 508.885 78.1562 508.391 78.1562C507.87 78.1562 507.406 78.0651 507 77.8828C506.599 77.7005 506.281 77.4245 506.047 77.0547C505.818 76.6849 505.703 76.2161 505.703 75.6484C505.703 74.7943 506.042 74.138 506.719 73.6797C507.396 73.2214 508.427 72.9714 509.812 72.9297L511.289 72.8672V72.3438C511.289 71.6042 511.13 71.0859 510.812 70.7891C510.495 70.4922 510.047 70.3438 509.469 70.3438C509.021 70.3438 508.594 70.4089 508.188 70.5391C507.781 70.6693 507.396 70.8229 507.031 71L506.633 70.0156C507.018 69.8177 507.461 69.6484 507.961 69.5078C508.461 69.3672 508.987 69.2969 509.539 69.2969ZM511.273 73.7812L509.969 73.8359C508.901 73.8776 508.148 74.0521 507.711 74.3594C507.273 74.6667 507.055 75.1016 507.055 75.6641C507.055 76.1536 507.203 76.5156 507.5 76.75C507.797 76.9844 508.19 77.1016 508.68 77.1016C509.44 77.1016 510.062 76.8906 510.547 76.4688C511.031 76.0469 511.273 75.4141 511.273 74.5703V73.7812ZM518.273 78.1562C517.19 78.1562 516.331 77.7865 515.695 77.0469C515.065 76.3073 514.75 75.2083 514.75 73.75C514.75 72.276 515.073 71.1641 515.719 70.4141C516.365 69.6589 517.224 69.2812 518.297 69.2812C518.75 69.2812 519.146 69.3411 519.484 69.4609C519.823 69.5807 520.115 69.7422 520.359 69.9453C520.604 70.1432 520.81 70.3698 520.977 70.625H521.07C521.049 70.4635 521.029 70.2422 521.008 69.9609C520.987 69.6797 520.977 69.4505 520.977 69.2734V65.8438H522.273V78H521.227L521.031 76.7812H520.977C520.815 77.0365 520.609 77.2682 520.359 77.4766C520.115 77.6849 519.82 77.8516 519.477 77.9766C519.138 78.0964 518.737 78.1562 518.273 78.1562ZM518.477 77.0781C519.393 77.0781 520.042 76.8177 520.422 76.2969C520.802 75.776 520.992 75.0026 520.992 73.9766V73.7422C520.992 72.6536 520.81 71.8177 520.445 71.2344C520.086 70.651 519.43 70.3594 518.477 70.3594C517.68 70.3594 517.083 70.6667 516.688 71.2812C516.292 71.8906 516.094 72.724 516.094 73.7812C516.094 74.8333 516.289 75.6458 516.68 76.2188C517.076 76.7917 517.674 77.0781 518.477 77.0781ZM532.406 73.7031C532.406 74.4062 532.315 75.0339 532.133 75.5859C531.951 76.138 531.688 76.6042 531.344 76.9844C531 77.3646 530.583 77.6562 530.094 77.8594C529.609 78.0573 529.06 78.1562 528.445 78.1562C527.872 78.1562 527.346 78.0573 526.867 77.8594C526.393 77.6562 525.982 77.3646 525.633 76.9844C525.289 76.6042 525.021 76.138 524.828 75.5859C524.641 75.0339 524.547 74.4062 524.547 73.7031C524.547 72.7656 524.706 71.9688 525.023 71.3125C525.341 70.651 525.794 70.1484 526.383 69.8047C526.977 69.4557 527.682 69.2812 528.5 69.2812C529.281 69.2812 529.964 69.4557 530.547 69.8047C531.135 70.1536 531.591 70.6589 531.914 71.3203C532.242 71.9766 532.406 72.7708 532.406 73.7031ZM525.891 73.7031C525.891 74.3906 525.982 74.987 526.164 75.4922C526.346 75.9974 526.628 76.388 527.008 76.6641C527.388 76.9401 527.878 77.0781 528.477 77.0781C529.07 77.0781 529.557 76.9401 529.938 76.6641C530.323 76.388 530.607 75.9974 530.789 75.4922C530.971 74.987 531.062 74.3906 531.062 73.7031C531.062 73.0208 530.971 72.4323 530.789 71.9375C530.607 71.4375 530.326 71.0521 529.945 70.7812C529.565 70.5104 529.073 70.375 528.469 70.375C527.578 70.375 526.924 70.6693 526.508 71.2578C526.096 71.8464 525.891 72.6615 525.891 73.7031Z" fill="#336ACC"/>
<path d="M358.5 80.52H533.281V83.52H358.5V80.52Z" fill="#336ACC"/>
<rect x="48" y="128" width="632" height="72" rx="8" fill="#153244"/>
<path d="M218.508 154.961C218.508 155.638 218.339 156.216 218 156.695C217.667 157.169 217.198 157.531 216.594 157.781C215.99 158.031 215.279 158.156 214.461 158.156C214.029 158.156 213.62 158.135 213.234 158.094C212.849 158.052 212.495 157.992 212.172 157.914C211.849 157.836 211.565 157.74 211.32 157.625V156.352C211.711 156.513 212.188 156.664 212.75 156.805C213.312 156.94 213.901 157.008 214.516 157.008C215.089 157.008 215.573 156.932 215.969 156.781C216.365 156.625 216.664 156.404 216.867 156.117C217.076 155.826 217.18 155.477 217.18 155.07C217.18 154.68 217.094 154.354 216.922 154.094C216.75 153.828 216.464 153.589 216.062 153.375C215.667 153.156 215.125 152.924 214.438 152.68C213.953 152.508 213.526 152.32 213.156 152.117C212.786 151.909 212.477 151.674 212.227 151.414C211.977 151.154 211.786 150.852 211.656 150.508C211.531 150.164 211.469 149.771 211.469 149.328C211.469 148.719 211.622 148.198 211.93 147.766C212.242 147.328 212.672 146.995 213.219 146.766C213.771 146.531 214.404 146.414 215.117 146.414C215.727 146.414 216.289 146.471 216.805 146.586C217.326 146.701 217.802 146.854 218.234 147.047L217.82 148.188C217.409 148.016 216.971 147.872 216.508 147.758C216.049 147.643 215.576 147.586 215.086 147.586C214.596 147.586 214.182 147.659 213.844 147.805C213.51 147.945 213.255 148.146 213.078 148.406C212.901 148.667 212.812 148.977 212.812 149.336C212.812 149.737 212.896 150.07 213.062 150.336C213.234 150.602 213.505 150.839 213.875 151.047C214.25 151.25 214.745 151.464 215.359 151.688C216.031 151.932 216.602 152.193 217.07 152.469C217.539 152.74 217.896 153.073 218.141 153.469C218.385 153.859 218.508 154.357 218.508 154.961ZM228.031 153.703C228.031 154.406 227.94 155.034 227.758 155.586C227.576 156.138 227.312 156.604 226.969 156.984C226.625 157.365 226.208 157.656 225.719 157.859C225.234 158.057 224.685 158.156 224.07 158.156C223.497 158.156 222.971 158.057 222.492 157.859C222.018 157.656 221.607 157.365 221.258 156.984C220.914 156.604 220.646 156.138 220.453 155.586C220.266 155.034 220.172 154.406 220.172 153.703C220.172 152.766 220.331 151.969 220.648 151.312C220.966 150.651 221.419 150.148 222.008 149.805C222.602 149.456 223.307 149.281 224.125 149.281C224.906 149.281 225.589 149.456 226.172 149.805C226.76 150.154 227.216 150.659 227.539 151.32C227.867 151.977 228.031 152.771 228.031 153.703ZM221.516 153.703C221.516 154.391 221.607 154.987 221.789 155.492C221.971 155.997 222.253 156.388 222.633 156.664C223.013 156.94 223.503 157.078 224.102 157.078C224.695 157.078 225.182 156.94 225.562 156.664C225.948 156.388 226.232 155.997 226.414 155.492C226.596 154.987 226.688 154.391 226.688 153.703C226.688 153.021 226.596 152.432 226.414 151.938C226.232 151.438 225.951 151.052 225.57 150.781C225.19 150.51 224.698 150.375 224.094 150.375C223.203 150.375 222.549 150.669 222.133 151.258C221.721 151.846 221.516 152.661 221.516 153.703ZM231.57 145.844V148.883C231.57 149.232 231.56 149.57 231.539 149.898C231.523 150.227 231.51 150.482 231.5 150.664H231.57C231.805 150.279 232.143 149.953 232.586 149.688C233.029 149.422 233.594 149.289 234.281 149.289C235.354 149.289 236.208 149.661 236.844 150.406C237.484 151.146 237.805 152.247 237.805 153.711C237.805 154.674 237.659 155.487 237.367 156.148C237.076 156.81 236.664 157.31 236.133 157.648C235.602 157.987 234.974 158.156 234.25 158.156C233.573 158.156 233.016 158.031 232.578 157.781C232.146 157.526 231.812 157.216 231.578 156.852H231.477L231.211 158H230.273V145.844H231.57ZM234.07 150.375C233.451 150.375 232.958 150.497 232.594 150.742C232.229 150.982 231.966 151.346 231.805 151.836C231.648 152.32 231.57 152.935 231.57 153.68V153.75C231.57 154.828 231.75 155.654 232.109 156.227C232.469 156.794 233.122 157.078 234.07 157.078C234.867 157.078 235.464 156.786 235.859 156.203C236.26 155.62 236.461 154.786 236.461 153.703C236.461 152.599 236.263 151.768 235.867 151.211C235.477 150.654 234.878 150.375 234.07 150.375ZM243.961 149.281C244.133 149.281 244.312 149.292 244.5 149.312C244.688 149.328 244.854 149.352 245 149.383L244.836 150.586C244.695 150.549 244.539 150.521 244.367 150.5C244.195 150.479 244.034 150.469 243.883 150.469C243.539 150.469 243.214 150.539 242.906 150.68C242.604 150.815 242.339 151.013 242.109 151.273C241.88 151.529 241.701 151.839 241.57 152.203C241.44 152.562 241.375 152.964 241.375 153.406V158H240.07V149.438H241.148L241.289 151.016H241.344C241.521 150.698 241.734 150.409 241.984 150.148C242.234 149.883 242.523 149.672 242.852 149.516C243.185 149.359 243.555 149.281 243.961 149.281ZM249.914 149.281C250.643 149.281 251.268 149.443 251.789 149.766C252.31 150.089 252.708 150.542 252.984 151.125C253.26 151.703 253.398 152.38 253.398 153.156V153.961H247.484C247.5 154.966 247.75 155.732 248.234 156.258C248.719 156.784 249.401 157.047 250.281 157.047C250.823 157.047 251.302 156.997 251.719 156.898C252.135 156.799 252.568 156.654 253.016 156.461V157.602C252.583 157.794 252.154 157.935 251.727 158.023C251.305 158.112 250.805 158.156 250.227 158.156C249.404 158.156 248.685 157.99 248.07 157.656C247.461 157.318 246.987 156.823 246.648 156.172C246.31 155.521 246.141 154.724 246.141 153.781C246.141 152.859 246.294 152.062 246.602 151.391C246.914 150.714 247.352 150.193 247.914 149.828C248.482 149.464 249.148 149.281 249.914 149.281ZM249.898 150.344C249.206 150.344 248.654 150.57 248.242 151.023C247.831 151.477 247.586 152.109 247.508 152.922H252.039C252.034 152.411 251.953 151.964 251.797 151.578C251.646 151.188 251.414 150.885 251.102 150.672C250.789 150.453 250.388 150.344 249.898 150.344ZM263.57 150.453H261.438V158H260.141V150.453H258.625V149.828L260.141 149.398V148.828C260.141 148.109 260.247 147.526 260.461 147.078C260.674 146.625 260.984 146.292 261.391 146.078C261.797 145.865 262.292 145.758 262.875 145.758C263.203 145.758 263.503 145.786 263.773 145.844C264.049 145.901 264.292 145.966 264.5 146.039L264.164 147.062C263.987 147.005 263.786 146.953 263.562 146.906C263.344 146.854 263.12 146.828 262.891 146.828C262.396 146.828 262.029 146.99 261.789 147.312C261.555 147.63 261.438 148.13 261.438 148.812V149.438H263.57V150.453ZM272.531 153.703C272.531 154.406 272.44 155.034 272.258 155.586C272.076 156.138 271.812 156.604 271.469 156.984C271.125 157.365 270.708 157.656 270.219 157.859C269.734 158.057 269.185 158.156 268.57 158.156C267.997 158.156 267.471 158.057 266.992 157.859C266.518 157.656 266.107 157.365 265.758 156.984C265.414 156.604 265.146 156.138 264.953 155.586C264.766 155.034 264.672 154.406 264.672 153.703C264.672 152.766 264.831 151.969 265.148 151.312C265.466 150.651 265.919 150.148 266.508 149.805C267.102 149.456 267.807 149.281 268.625 149.281C269.406 149.281 270.089 149.456 270.672 149.805C271.26 150.154 271.716 150.659 272.039 151.32C272.367 151.977 272.531 152.771 272.531 153.703ZM266.016 153.703C266.016 154.391 266.107 154.987 266.289 155.492C266.471 155.997 266.753 156.388 267.133 156.664C267.513 156.94 268.003 157.078 268.602 157.078C269.195 157.078 269.682 156.94 270.062 156.664C270.448 156.388 270.732 155.997 270.914 155.492C271.096 154.987 271.188 154.391 271.188 153.703C271.188 153.021 271.096 152.432 270.914 151.938C270.732 151.438 270.451 151.052 270.07 150.781C269.69 150.51 269.198 150.375 268.594 150.375C267.703 150.375 267.049 150.669 266.633 151.258C266.221 151.846 266.016 152.661 266.016 153.703ZM278.828 149.281C279.844 149.281 280.612 149.531 281.133 150.031C281.654 150.526 281.914 151.323 281.914 152.422V158H280.633V152.508C280.633 151.794 280.469 151.26 280.141 150.906C279.818 150.552 279.32 150.375 278.648 150.375C277.701 150.375 277.034 150.643 276.648 151.18C276.263 151.716 276.07 152.495 276.07 153.516V158H274.773V149.438H275.82L276.016 150.672H276.086C276.268 150.37 276.5 150.117 276.781 149.914C277.062 149.706 277.378 149.549 277.727 149.445C278.076 149.336 278.443 149.281 278.828 149.281ZM287.633 158.156C286.549 158.156 285.69 157.786 285.055 157.047C284.424 156.307 284.109 155.208 284.109 153.75C284.109 152.276 284.432 151.164 285.078 150.414C285.724 149.659 286.583 149.281 287.656 149.281C288.109 149.281 288.505 149.341 288.844 149.461C289.182 149.581 289.474 149.742 289.719 149.945C289.964 150.143 290.169 150.37 290.336 150.625H290.43C290.409 150.464 290.388 150.242 290.367 149.961C290.346 149.68 290.336 149.451 290.336 149.273V145.844H291.633V158H290.586L290.391 156.781H290.336C290.174 157.036 289.969 157.268 289.719 157.477C289.474 157.685 289.18 157.852 288.836 157.977C288.497 158.096 288.096 158.156 287.633 158.156ZM287.836 157.078C288.753 157.078 289.401 156.818 289.781 156.297C290.161 155.776 290.352 155.003 290.352 153.977V153.742C290.352 152.654 290.169 151.818 289.805 151.234C289.445 150.651 288.789 150.359 287.836 150.359C287.039 150.359 286.443 150.667 286.047 151.281C285.651 151.891 285.453 152.724 285.453 153.781C285.453 154.833 285.648 155.646 286.039 156.219C286.435 156.792 287.034 157.078 287.836 157.078ZM301.766 153.703C301.766 154.406 301.674 155.034 301.492 155.586C301.31 156.138 301.047 156.604 300.703 156.984C300.359 157.365 299.943 157.656 299.453 157.859C298.969 158.057 298.419 158.156 297.805 158.156C297.232 158.156 296.706 158.057 296.227 157.859C295.753 157.656 295.341 157.365 294.992 156.984C294.648 156.604 294.38 156.138 294.188 155.586C294 155.034 293.906 154.406 293.906 153.703C293.906 152.766 294.065 151.969 294.383 151.312C294.701 150.651 295.154 150.148 295.742 149.805C296.336 149.456 297.042 149.281 297.859 149.281C298.641 149.281 299.323 149.456 299.906 149.805C300.495 150.154 300.951 150.659 301.273 151.32C301.602 151.977 301.766 152.771 301.766 153.703ZM295.25 153.703C295.25 154.391 295.341 154.987 295.523 155.492C295.706 155.997 295.987 156.388 296.367 156.664C296.747 156.94 297.237 157.078 297.836 157.078C298.43 157.078 298.917 156.94 299.297 156.664C299.682 156.388 299.966 155.997 300.148 155.492C300.331 154.987 300.422 154.391 300.422 153.703C300.422 153.021 300.331 152.432 300.148 151.938C299.966 151.438 299.685 151.052 299.305 150.781C298.924 150.51 298.432 150.375 297.828 150.375C296.938 150.375 296.284 150.669 295.867 151.258C295.456 151.846 295.25 152.661 295.25 153.703ZM309.547 155.656C309.547 156.203 309.409 156.664 309.133 157.039C308.862 157.409 308.471 157.688 307.961 157.875C307.456 158.062 306.852 158.156 306.148 158.156C305.549 158.156 305.031 158.109 304.594 158.016C304.156 157.922 303.773 157.789 303.445 157.617V156.422C303.794 156.594 304.211 156.75 304.695 156.891C305.18 157.031 305.674 157.102 306.18 157.102C306.919 157.102 307.456 156.982 307.789 156.742C308.122 156.503 308.289 156.177 308.289 155.766C308.289 155.531 308.221 155.326 308.086 155.148C307.956 154.966 307.734 154.792 307.422 154.625C307.109 154.453 306.677 154.266 306.125 154.062C305.578 153.854 305.104 153.648 304.703 153.445C304.307 153.237 304 152.984 303.781 152.688C303.568 152.391 303.461 152.005 303.461 151.531C303.461 150.807 303.753 150.253 304.336 149.867C304.924 149.477 305.695 149.281 306.648 149.281C307.164 149.281 307.646 149.333 308.094 149.438C308.547 149.536 308.969 149.672 309.359 149.844L308.922 150.883C308.568 150.732 308.19 150.604 307.789 150.5C307.388 150.396 306.979 150.344 306.562 150.344C305.964 150.344 305.503 150.443 305.18 150.641C304.862 150.839 304.703 151.109 304.703 151.453C304.703 151.719 304.776 151.938 304.922 152.109C305.073 152.281 305.312 152.443 305.641 152.594C305.969 152.745 306.401 152.922 306.938 153.125C307.474 153.323 307.938 153.529 308.328 153.742C308.719 153.951 309.018 154.206 309.227 154.508C309.44 154.805 309.547 155.188 309.547 155.656ZM219.25 177.703C219.25 178.406 219.159 179.034 218.977 179.586C218.794 180.138 218.531 180.604 218.188 180.984C217.844 181.365 217.427 181.656 216.938 181.859C216.453 182.057 215.904 182.156 215.289 182.156C214.716 182.156 214.19 182.057 213.711 181.859C213.237 181.656 212.826 181.365 212.477 180.984C212.133 180.604 211.865 180.138 211.672 179.586C211.484 179.034 211.391 178.406 211.391 177.703C211.391 176.766 211.549 175.969 211.867 175.312C212.185 174.651 212.638 174.148 213.227 173.805C213.82 173.456 214.526 173.281 215.344 173.281C216.125 173.281 216.807 173.456 217.391 173.805C217.979 174.154 218.435 174.659 218.758 175.32C219.086 175.977 219.25 176.771 219.25 177.703ZM212.734 177.703C212.734 178.391 212.826 178.987 213.008 179.492C213.19 179.997 213.471 180.388 213.852 180.664C214.232 180.94 214.721 181.078 215.32 181.078C215.914 181.078 216.401 180.94 216.781 180.664C217.167 180.388 217.451 179.997 217.633 179.492C217.815 178.987 217.906 178.391 217.906 177.703C217.906 177.021 217.815 176.432 217.633 175.938C217.451 175.438 217.169 175.052 216.789 174.781C216.409 174.51 215.917 174.375 215.312 174.375C214.422 174.375 213.768 174.669 213.352 175.258C212.94 175.846 212.734 176.661 212.734 177.703ZM227.031 179.656C227.031 180.203 226.893 180.664 226.617 181.039C226.346 181.409 225.956 181.688 225.445 181.875C224.94 182.062 224.336 182.156 223.633 182.156C223.034 182.156 222.516 182.109 222.078 182.016C221.641 181.922 221.258 181.789 220.93 181.617V180.422C221.279 180.594 221.695 180.75 222.18 180.891C222.664 181.031 223.159 181.102 223.664 181.102C224.404 181.102 224.94 180.982 225.273 180.742C225.607 180.503 225.773 180.177 225.773 179.766C225.773 179.531 225.706 179.326 225.57 179.148C225.44 178.966 225.219 178.792 224.906 178.625C224.594 178.453 224.161 178.266 223.609 178.062C223.062 177.854 222.589 177.648 222.188 177.445C221.792 177.237 221.484 176.984 221.266 176.688C221.052 176.391 220.945 176.005 220.945 175.531C220.945 174.807 221.237 174.253 221.82 173.867C222.409 173.477 223.18 173.281 224.133 173.281C224.648 173.281 225.13 173.333 225.578 173.438C226.031 173.536 226.453 173.672 226.844 173.844L226.406 174.883C226.052 174.732 225.674 174.604 225.273 174.5C224.872 174.396 224.464 174.344 224.047 174.344C223.448 174.344 222.987 174.443 222.664 174.641C222.346 174.839 222.188 175.109 222.188 175.453C222.188 175.719 222.26 175.938 222.406 176.109C222.557 176.281 222.797 176.443 223.125 176.594C223.453 176.745 223.885 176.922 224.422 177.125C224.958 177.323 225.422 177.529 225.812 177.742C226.203 177.951 226.503 178.206 226.711 178.508C226.924 178.805 227.031 179.188 227.031 179.656ZM232.547 182.156C231.776 182.156 231.096 181.997 230.508 181.68C229.919 181.362 229.461 180.878 229.133 180.227C228.805 179.576 228.641 178.755 228.641 177.766C228.641 176.729 228.812 175.883 229.156 175.227C229.505 174.565 229.984 174.076 230.594 173.758C231.203 173.44 231.896 173.281 232.672 173.281C233.099 173.281 233.51 173.326 233.906 173.414C234.307 173.497 234.635 173.604 234.891 173.734L234.5 174.82C234.24 174.716 233.938 174.622 233.594 174.539C233.255 174.456 232.938 174.414 232.641 174.414C232.047 174.414 231.552 174.542 231.156 174.797C230.766 175.052 230.471 175.427 230.273 175.922C230.081 176.417 229.984 177.026 229.984 177.75C229.984 178.443 230.078 179.034 230.266 179.523C230.458 180.013 230.742 180.388 231.117 180.648C231.497 180.904 231.971 181.031 232.539 181.031C232.992 181.031 233.401 180.984 233.766 180.891C234.13 180.792 234.461 180.677 234.758 180.547V181.703C234.471 181.849 234.151 181.961 233.797 182.039C233.448 182.117 233.031 182.156 232.547 182.156ZM243.859 173.438V182H242.797L242.609 180.797H242.539C242.362 181.094 242.133 181.344 241.852 181.547C241.57 181.75 241.253 181.901 240.898 182C240.549 182.104 240.177 182.156 239.781 182.156C239.104 182.156 238.536 182.047 238.078 181.828C237.62 181.609 237.273 181.271 237.039 180.812C236.81 180.354 236.695 179.766 236.695 179.047V173.438H238.008V178.953C238.008 179.667 238.169 180.201 238.492 180.555C238.815 180.904 239.307 181.078 239.969 181.078C240.604 181.078 241.109 180.958 241.484 180.719C241.865 180.479 242.138 180.128 242.305 179.664C242.471 179.195 242.555 178.622 242.555 177.945V173.438H243.859ZM250.492 173.281C250.664 173.281 250.844 173.292 251.031 173.312C251.219 173.328 251.385 173.352 251.531 173.383L251.367 174.586C251.227 174.549 251.07 174.521 250.898 174.5C250.727 174.479 250.565 174.469 250.414 174.469C250.07 174.469 249.745 174.539 249.438 174.68C249.135 174.815 248.87 175.013 248.641 175.273C248.411 175.529 248.232 175.839 248.102 176.203C247.971 176.562 247.906 176.964 247.906 177.406V182H246.602V173.438H247.68L247.82 175.016H247.875C248.052 174.698 248.266 174.409 248.516 174.148C248.766 173.883 249.055 173.672 249.383 173.516C249.716 173.359 250.086 173.281 250.492 173.281ZM260.531 177.703C260.531 178.406 260.44 179.034 260.258 179.586C260.076 180.138 259.812 180.604 259.469 180.984C259.125 181.365 258.708 181.656 258.219 181.859C257.734 182.057 257.185 182.156 256.57 182.156C255.997 182.156 255.471 182.057 254.992 181.859C254.518 181.656 254.107 181.365 253.758 180.984C253.414 180.604 253.146 180.138 252.953 179.586C252.766 179.034 252.672 178.406 252.672 177.703C252.672 176.766 252.831 175.969 253.148 175.312C253.466 174.651 253.919 174.148 254.508 173.805C255.102 173.456 255.807 173.281 256.625 173.281C257.406 173.281 258.089 173.456 258.672 173.805C259.26 174.154 259.716 174.659 260.039 175.32C260.367 175.977 260.531 176.771 260.531 177.703ZM254.016 177.703C254.016 178.391 254.107 178.987 254.289 179.492C254.471 179.997 254.753 180.388 255.133 180.664C255.513 180.94 256.003 181.078 256.602 181.078C257.195 181.078 257.682 180.94 258.062 180.664C258.448 180.388 258.732 179.997 258.914 179.492C259.096 178.987 259.188 178.391 259.188 177.703C259.188 177.021 259.096 176.432 258.914 175.938C258.732 175.438 258.451 175.052 258.07 174.781C257.69 174.51 257.198 174.375 256.594 174.375C255.703 174.375 255.049 174.669 254.633 175.258C254.221 175.846 254.016 176.661 254.016 177.703ZM268.312 179.656C268.312 180.203 268.174 180.664 267.898 181.039C267.628 181.409 267.237 181.688 266.727 181.875C266.221 182.062 265.617 182.156 264.914 182.156C264.315 182.156 263.797 182.109 263.359 182.016C262.922 181.922 262.539 181.789 262.211 181.617V180.422C262.56 180.594 262.977 180.75 263.461 180.891C263.945 181.031 264.44 181.102 264.945 181.102C265.685 181.102 266.221 180.982 266.555 180.742C266.888 180.503 267.055 180.177 267.055 179.766C267.055 179.531 266.987 179.326 266.852 179.148C266.721 178.966 266.5 178.792 266.188 178.625C265.875 178.453 265.443 178.266 264.891 178.062C264.344 177.854 263.87 177.648 263.469 177.445C263.073 177.237 262.766 176.984 262.547 176.688C262.333 176.391 262.227 176.005 262.227 175.531C262.227 174.807 262.518 174.253 263.102 173.867C263.69 173.477 264.461 173.281 265.414 173.281C265.93 173.281 266.411 173.333 266.859 173.438C267.312 173.536 267.734 173.672 268.125 173.844L267.688 174.883C267.333 174.732 266.956 174.604 266.555 174.5C266.154 174.396 265.745 174.344 265.328 174.344C264.729 174.344 264.268 174.443 263.945 174.641C263.628 174.839 263.469 175.109 263.469 175.453C263.469 175.719 263.542 175.938 263.688 176.109C263.839 176.281 264.078 176.443 264.406 176.594C264.734 176.745 265.167 176.922 265.703 177.125C266.24 177.323 266.703 177.529 267.094 177.742C267.484 177.951 267.784 178.206 267.992 178.508C268.206 178.805 268.312 179.188 268.312 179.656Z" fill="white"/>
<path d="M366.422 170H360.062V158.578H366.422V159.75H361.391V163.445H366.133V164.602H361.391V168.828H366.422V170ZM372.812 161.281C373.828 161.281 374.596 161.531 375.117 162.031C375.638 162.526 375.898 163.323 375.898 164.422V170H374.617V164.508C374.617 163.794 374.453 163.26 374.125 162.906C373.802 162.552 373.305 162.375 372.633 162.375C371.685 162.375 371.018 162.643 370.633 163.18C370.247 163.716 370.055 164.495 370.055 165.516V170H368.758V161.438H369.805L370 162.672H370.07C370.253 162.37 370.484 162.117 370.766 161.914C371.047 161.706 371.362 161.549 371.711 161.445C372.06 161.336 372.427 161.281 372.812 161.281ZM379.875 170H378.57V157.844H379.875V170ZM385.82 161.297C386.841 161.297 387.599 161.526 388.094 161.984C388.589 162.443 388.836 163.174 388.836 164.18V170H387.891L387.641 168.734H387.578C387.339 169.047 387.089 169.31 386.828 169.523C386.568 169.732 386.266 169.891 385.922 170C385.583 170.104 385.167 170.156 384.672 170.156C384.151 170.156 383.688 170.065 383.281 169.883C382.88 169.701 382.562 169.424 382.328 169.055C382.099 168.685 381.984 168.216 381.984 167.648C381.984 166.794 382.323 166.138 383 165.68C383.677 165.221 384.708 164.971 386.094 164.93L387.57 164.867V164.344C387.57 163.604 387.411 163.086 387.094 162.789C386.776 162.492 386.328 162.344 385.75 162.344C385.302 162.344 384.875 162.409 384.469 162.539C384.062 162.669 383.677 162.823 383.312 163L382.914 162.016C383.299 161.818 383.742 161.648 384.242 161.508C384.742 161.367 385.268 161.297 385.82 161.297ZM387.555 165.781L386.25 165.836C385.182 165.878 384.43 166.052 383.992 166.359C383.555 166.667 383.336 167.102 383.336 167.664C383.336 168.154 383.484 168.516 383.781 168.75C384.078 168.984 384.471 169.102 384.961 169.102C385.721 169.102 386.344 168.891 386.828 168.469C387.312 168.047 387.555 167.414 387.555 166.57V165.781ZM394.938 170.156C394.167 170.156 393.487 169.997 392.898 169.68C392.31 169.362 391.852 168.878 391.523 168.227C391.195 167.576 391.031 166.755 391.031 165.766C391.031 164.729 391.203 163.883 391.547 163.227C391.896 162.565 392.375 162.076 392.984 161.758C393.594 161.44 394.286 161.281 395.062 161.281C395.49 161.281 395.901 161.326 396.297 161.414C396.698 161.497 397.026 161.604 397.281 161.734L396.891 162.82C396.63 162.716 396.328 162.622 395.984 162.539C395.646 162.456 395.328 162.414 395.031 162.414C394.438 162.414 393.943 162.542 393.547 162.797C393.156 163.052 392.862 163.427 392.664 163.922C392.471 164.417 392.375 165.026 392.375 165.75C392.375 166.443 392.469 167.034 392.656 167.523C392.849 168.013 393.133 168.388 393.508 168.648C393.888 168.904 394.362 169.031 394.93 169.031C395.383 169.031 395.792 168.984 396.156 168.891C396.521 168.792 396.852 168.677 397.148 168.547V169.703C396.862 169.849 396.542 169.961 396.188 170.039C395.839 170.117 395.422 170.156 394.938 170.156ZM402.477 161.281C403.206 161.281 403.831 161.443 404.352 161.766C404.872 162.089 405.271 162.542 405.547 163.125C405.823 163.703 405.961 164.38 405.961 165.156V165.961H400.047C400.062 166.966 400.312 167.732 400.797 168.258C401.281 168.784 401.964 169.047 402.844 169.047C403.385 169.047 403.865 168.997 404.281 168.898C404.698 168.799 405.13 168.654 405.578 168.461V169.602C405.146 169.794 404.716 169.935 404.289 170.023C403.867 170.112 403.367 170.156 402.789 170.156C401.966 170.156 401.247 169.99 400.633 169.656C400.023 169.318 399.549 168.823 399.211 168.172C398.872 167.521 398.703 166.724 398.703 165.781C398.703 164.859 398.857 164.062 399.164 163.391C399.477 162.714 399.914 162.193 400.477 161.828C401.044 161.464 401.711 161.281 402.477 161.281ZM402.461 162.344C401.768 162.344 401.216 162.57 400.805 163.023C400.393 163.477 400.148 164.109 400.07 164.922H404.602C404.596 164.411 404.516 163.964 404.359 163.578C404.208 163.188 403.977 162.885 403.664 162.672C403.352 162.453 402.951 162.344 402.461 162.344ZM416.344 161.281C417.411 161.281 418.263 161.648 418.898 162.383C419.534 163.117 419.852 164.221 419.852 165.695C419.852 166.669 419.706 167.487 419.414 168.148C419.122 168.81 418.711 169.31 418.18 169.648C417.654 169.987 417.031 170.156 416.312 170.156C415.859 170.156 415.461 170.096 415.117 169.977C414.773 169.857 414.479 169.695 414.234 169.492C413.99 169.289 413.786 169.068 413.625 168.828H413.531C413.547 169.031 413.565 169.276 413.586 169.562C413.612 169.849 413.625 170.099 413.625 170.312V173.828H412.32V161.438H413.391L413.562 162.703H413.625C413.792 162.443 413.995 162.206 414.234 161.992C414.474 161.773 414.766 161.602 415.109 161.477C415.458 161.346 415.87 161.281 416.344 161.281ZM416.117 162.375C415.523 162.375 415.044 162.49 414.68 162.719C414.32 162.948 414.057 163.292 413.891 163.75C413.724 164.203 413.635 164.773 413.625 165.461V165.711C413.625 166.435 413.703 167.047 413.859 167.547C414.021 168.047 414.284 168.427 414.648 168.688C415.018 168.948 415.513 169.078 416.133 169.078C416.664 169.078 417.107 168.935 417.461 168.648C417.815 168.362 418.078 167.964 418.25 167.453C418.427 166.938 418.516 166.346 418.516 165.68C418.516 164.669 418.318 163.867 417.922 163.273C417.531 162.674 416.93 162.375 416.117 162.375ZM426.008 161.281C426.18 161.281 426.359 161.292 426.547 161.312C426.734 161.328 426.901 161.352 427.047 161.383L426.883 162.586C426.742 162.549 426.586 162.521 426.414 162.5C426.242 162.479 426.081 162.469 425.93 162.469C425.586 162.469 425.26 162.539 424.953 162.68C424.651 162.815 424.385 163.013 424.156 163.273C423.927 163.529 423.747 163.839 423.617 164.203C423.487 164.562 423.422 164.964 423.422 165.406V170H422.117V161.438H423.195L423.336 163.016H423.391C423.568 162.698 423.781 162.409 424.031 162.148C424.281 161.883 424.57 161.672 424.898 161.516C425.232 161.359 425.602 161.281 426.008 161.281ZM431.961 161.281C432.69 161.281 433.315 161.443 433.836 161.766C434.357 162.089 434.755 162.542 435.031 163.125C435.307 163.703 435.445 164.38 435.445 165.156V165.961H429.531C429.547 166.966 429.797 167.732 430.281 168.258C430.766 168.784 431.448 169.047 432.328 169.047C432.87 169.047 433.349 168.997 433.766 168.898C434.182 168.799 434.615 168.654 435.062 168.461V169.602C434.63 169.794 434.201 169.935 433.773 170.023C433.352 170.112 432.852 170.156 432.273 170.156C431.451 170.156 430.732 169.99 430.117 169.656C429.508 169.318 429.034 168.823 428.695 168.172C428.357 167.521 428.188 166.724 428.188 165.781C428.188 164.859 428.341 164.062 428.648 163.391C428.961 162.714 429.398 162.193 429.961 161.828C430.529 161.464 431.195 161.281 431.961 161.281ZM431.945 162.344C431.253 162.344 430.701 162.57 430.289 163.023C429.878 163.477 429.633 164.109 429.555 164.922H434.086C434.081 164.411 434 163.964 433.844 163.578C433.693 163.188 433.461 162.885 433.148 162.672C432.836 162.453 432.435 162.344 431.945 162.344ZM440.695 170.156C439.612 170.156 438.753 169.786 438.117 169.047C437.487 168.307 437.172 167.208 437.172 165.75C437.172 164.276 437.495 163.164 438.141 162.414C438.786 161.659 439.646 161.281 440.719 161.281C441.172 161.281 441.568 161.341 441.906 161.461C442.245 161.581 442.536 161.742 442.781 161.945C443.026 162.143 443.232 162.37 443.398 162.625H443.492C443.471 162.464 443.451 162.242 443.43 161.961C443.409 161.68 443.398 161.451 443.398 161.273V157.844H444.695V170H443.648L443.453 168.781H443.398C443.237 169.036 443.031 169.268 442.781 169.477C442.536 169.685 442.242 169.852 441.898 169.977C441.56 170.096 441.159 170.156 440.695 170.156ZM440.898 169.078C441.815 169.078 442.464 168.818 442.844 168.297C443.224 167.776 443.414 167.003 443.414 165.977V165.742C443.414 164.654 443.232 163.818 442.867 163.234C442.508 162.651 441.852 162.359 440.898 162.359C440.102 162.359 439.505 162.667 439.109 163.281C438.714 163.891 438.516 164.724 438.516 165.781C438.516 166.833 438.711 167.646 439.102 168.219C439.497 168.792 440.096 169.078 440.898 169.078ZM450.742 161.281C451.471 161.281 452.096 161.443 452.617 161.766C453.138 162.089 453.536 162.542 453.812 163.125C454.089 163.703 454.227 164.38 454.227 165.156V165.961H448.312C448.328 166.966 448.578 167.732 449.062 168.258C449.547 168.784 450.229 169.047 451.109 169.047C451.651 169.047 452.13 168.997 452.547 168.898C452.964 168.799 453.396 168.654 453.844 168.461V169.602C453.411 169.794 452.982 169.935 452.555 170.023C452.133 170.112 451.633 170.156 451.055 170.156C450.232 170.156 449.513 169.99 448.898 169.656C448.289 169.318 447.815 168.823 447.477 168.172C447.138 167.521 446.969 166.724 446.969 165.781C446.969 164.859 447.122 164.062 447.43 163.391C447.742 162.714 448.18 162.193 448.742 161.828C449.31 161.464 449.977 161.281 450.742 161.281ZM450.727 162.344C450.034 162.344 449.482 162.57 449.07 163.023C448.659 163.477 448.414 164.109 448.336 164.922H452.867C452.862 164.411 452.781 163.964 452.625 163.578C452.474 163.188 452.242 162.885 451.93 162.672C451.617 162.453 451.216 162.344 450.727 162.344ZM459.195 169.094C459.409 169.094 459.628 169.076 459.852 169.039C460.076 169.003 460.258 168.958 460.398 168.906V169.914C460.247 169.982 460.036 170.039 459.766 170.086C459.5 170.133 459.24 170.156 458.984 170.156C458.531 170.156 458.12 170.078 457.75 169.922C457.38 169.76 457.083 169.49 456.859 169.109C456.641 168.729 456.531 168.203 456.531 167.531V162.453H455.312V161.82L456.539 161.312L457.055 159.453H457.836V161.438H460.344V162.453H457.836V167.492C457.836 168.029 457.958 168.43 458.203 168.695C458.453 168.961 458.784 169.094 459.195 169.094ZM465.43 161.281C466.159 161.281 466.784 161.443 467.305 161.766C467.826 162.089 468.224 162.542 468.5 163.125C468.776 163.703 468.914 164.38 468.914 165.156V165.961H463C463.016 166.966 463.266 167.732 463.75 168.258C464.234 168.784 464.917 169.047 465.797 169.047C466.339 169.047 466.818 168.997 467.234 168.898C467.651 168.799 468.083 168.654 468.531 168.461V169.602C468.099 169.794 467.669 169.935 467.242 170.023C466.82 170.112 466.32 170.156 465.742 170.156C464.919 170.156 464.201 169.99 463.586 169.656C462.977 169.318 462.503 168.823 462.164 168.172C461.826 167.521 461.656 166.724 461.656 165.781C461.656 164.859 461.81 164.062 462.117 163.391C462.43 162.714 462.867 162.193 463.43 161.828C463.997 161.464 464.664 161.281 465.43 161.281ZM465.414 162.344C464.721 162.344 464.169 162.57 463.758 163.023C463.346 163.477 463.102 164.109 463.023 164.922H467.555C467.549 164.411 467.469 163.964 467.312 163.578C467.161 163.188 466.93 162.885 466.617 162.672C466.305 162.453 465.904 162.344 465.414 162.344ZM475.008 161.281C475.18 161.281 475.359 161.292 475.547 161.312C475.734 161.328 475.901 161.352 476.047 161.383L475.883 162.586C475.742 162.549 475.586 162.521 475.414 162.5C475.242 162.479 475.081 162.469 474.93 162.469C474.586 162.469 474.26 162.539 473.953 162.68C473.651 162.815 473.385 163.013 473.156 163.273C472.927 163.529 472.747 163.839 472.617 164.203C472.487 164.562 472.422 164.964 472.422 165.406V170H471.117V161.438H472.195L472.336 163.016H472.391C472.568 162.698 472.781 162.409 473.031 162.148C473.281 161.883 473.57 161.672 473.898 161.516C474.232 161.359 474.602 161.281 475.008 161.281ZM486.961 161.281C487.904 161.281 488.615 161.529 489.094 162.023C489.573 162.513 489.812 163.302 489.812 164.391V170H488.531V164.453C488.531 163.76 488.38 163.242 488.078 162.898C487.781 162.549 487.339 162.375 486.75 162.375C485.922 162.375 485.32 162.615 484.945 163.094C484.57 163.573 484.383 164.279 484.383 165.211V170H483.094V164.453C483.094 163.99 483.026 163.604 482.891 163.297C482.76 162.99 482.562 162.76 482.297 162.609C482.036 162.453 481.706 162.375 481.305 162.375C480.737 162.375 480.281 162.492 479.938 162.727C479.594 162.961 479.344 163.31 479.188 163.773C479.036 164.232 478.961 164.797 478.961 165.469V170H477.664V161.438H478.711L478.906 162.648H478.977C479.148 162.352 479.365 162.102 479.625 161.898C479.885 161.695 480.177 161.542 480.5 161.438C480.823 161.333 481.167 161.281 481.531 161.281C482.182 161.281 482.727 161.404 483.164 161.648C483.607 161.888 483.927 162.255 484.125 162.75H484.195C484.477 162.255 484.862 161.888 485.352 161.648C485.841 161.404 486.378 161.281 486.961 161.281ZM493.773 161.438V170H492.477V161.438H493.773ZM493.141 158.234C493.354 158.234 493.536 158.305 493.688 158.445C493.844 158.581 493.922 158.794 493.922 159.086C493.922 159.372 493.844 159.586 493.688 159.727C493.536 159.867 493.354 159.938 493.141 159.938C492.917 159.938 492.729 159.867 492.578 159.727C492.432 159.586 492.359 159.372 492.359 159.086C492.359 158.794 492.432 158.581 492.578 158.445C492.729 158.305 492.917 158.234 493.141 158.234ZM500.578 161.281C501.594 161.281 502.362 161.531 502.883 162.031C503.404 162.526 503.664 163.323 503.664 164.422V170H502.383V164.508C502.383 163.794 502.219 163.26 501.891 162.906C501.568 162.552 501.07 162.375 500.398 162.375C499.451 162.375 498.784 162.643 498.398 163.18C498.013 163.716 497.82 164.495 497.82 165.516V170H496.523V161.438H497.57L497.766 162.672H497.836C498.018 162.37 498.25 162.117 498.531 161.914C498.812 161.706 499.128 161.549 499.477 161.445C499.826 161.336 500.193 161.281 500.578 161.281ZM509.539 161.297C510.56 161.297 511.318 161.526 511.812 161.984C512.307 162.443 512.555 163.174 512.555 164.18V170H511.609L511.359 168.734H511.297C511.057 169.047 510.807 169.31 510.547 169.523C510.286 169.732 509.984 169.891 509.641 170C509.302 170.104 508.885 170.156 508.391 170.156C507.87 170.156 507.406 170.065 507 169.883C506.599 169.701 506.281 169.424 506.047 169.055C505.818 168.685 505.703 168.216 505.703 167.648C505.703 166.794 506.042 166.138 506.719 165.68C507.396 165.221 508.427 164.971 509.812 164.93L511.289 164.867V164.344C511.289 163.604 511.13 163.086 510.812 162.789C510.495 162.492 510.047 162.344 509.469 162.344C509.021 162.344 508.594 162.409 508.188 162.539C507.781 162.669 507.396 162.823 507.031 163L506.633 162.016C507.018 161.818 507.461 161.648 507.961 161.508C508.461 161.367 508.987 161.297 509.539 161.297ZM511.273 165.781L509.969 165.836C508.901 165.878 508.148 166.052 507.711 166.359C507.273 166.667 507.055 167.102 507.055 167.664C507.055 168.154 507.203 168.516 507.5 168.75C507.797 168.984 508.19 169.102 508.68 169.102C509.44 169.102 510.062 168.891 510.547 168.469C511.031 168.047 511.273 167.414 511.273 166.57V165.781ZM518.273 170.156C517.19 170.156 516.331 169.786 515.695 169.047C515.065 168.307 514.75 167.208 514.75 165.75C514.75 164.276 515.073 163.164 515.719 162.414C516.365 161.659 517.224 161.281 518.297 161.281C518.75 161.281 519.146 161.341 519.484 161.461C519.823 161.581 520.115 161.742 520.359 161.945C520.604 162.143 520.81 162.37 520.977 162.625H521.07C521.049 162.464 521.029 162.242 521.008 161.961C520.987 161.68 520.977 161.451 520.977 161.273V157.844H522.273V170H521.227L521.031 168.781H520.977C520.815 169.036 520.609 169.268 520.359 169.477C520.115 169.685 519.82 169.852 519.477 169.977C519.138 170.096 518.737 170.156 518.273 170.156ZM518.477 169.078C519.393 169.078 520.042 168.818 520.422 168.297C520.802 167.776 520.992 167.003 520.992 165.977V165.742C520.992 164.654 520.81 163.818 520.445 163.234C520.086 162.651 519.43 162.359 518.477 162.359C517.68 162.359 517.083 162.667 516.688 163.281C516.292 163.891 516.094 164.724 516.094 165.781C516.094 166.833 516.289 167.646 516.68 168.219C517.076 168.792 517.674 169.078 518.477 169.078ZM532.406 165.703C532.406 166.406 532.315 167.034 532.133 167.586C531.951 168.138 531.688 168.604 531.344 168.984C531 169.365 530.583 169.656 530.094 169.859C529.609 170.057 529.06 170.156 528.445 170.156C527.872 170.156 527.346 170.057 526.867 169.859C526.393 169.656 525.982 169.365 525.633 168.984C525.289 168.604 525.021 168.138 524.828 167.586C524.641 167.034 524.547 166.406 524.547 165.703C524.547 164.766 524.706 163.969 525.023 163.312C525.341 162.651 525.794 162.148 526.383 161.805C526.977 161.456 527.682 161.281 528.5 161.281C529.281 161.281 529.964 161.456 530.547 161.805C531.135 162.154 531.591 162.659 531.914 163.32C532.242 163.977 532.406 164.771 532.406 165.703ZM525.891 165.703C525.891 166.391 525.982 166.987 526.164 167.492C526.346 167.997 526.628 168.388 527.008 168.664C527.388 168.94 527.878 169.078 528.477 169.078C529.07 169.078 529.557 168.94 529.938 168.664C530.323 168.388 530.607 167.997 530.789 167.492C530.971 166.987 531.062 166.391 531.062 165.703C531.062 165.021 530.971 164.432 530.789 163.938C530.607 163.438 530.326 163.052 529.945 162.781C529.565 162.51 529.073 162.375 528.469 162.375C527.578 162.375 526.924 162.669 526.508 163.258C526.096 163.846 525.891 164.661 525.891 165.703Z" fill="white"/>
<path d="M358.5 172.52H533.281V175.52H358.5V172.52Z" fill="white"/>
</svg>
