<svg width="348" height="240" viewBox="0 0 348 240" fill="none" xmlns="http://www.w3.org/2000/svg">
<rect x="1" y="1" width="346" height="238" rx="7" fill="white"/>
<rect x="1" y="1" width="346" height="238" rx="7" stroke="#E6EBF0" stroke-width="2"/>
<path d="M36.5469 78.5781C38.0208 78.5781 39.0964 78.8672 39.7734 79.4453C40.4557 80.0182 40.7969 80.8411 40.7969 81.9141C40.7969 82.3984 40.7161 82.8594 40.5547 83.2969C40.3984 83.7292 40.1432 84.112 39.7891 84.4453C39.4349 84.7734 38.9688 85.0339 38.3906 85.2266C37.8177 85.4141 37.1146 85.5078 36.2812 85.5078H34.8906V90H33.5625V78.5781H36.5469ZM36.4219 79.7109H34.8906V84.3672H36.1328C36.862 84.3672 37.4688 84.2891 37.9531 84.1328C38.4427 83.9766 38.8099 83.724 39.0547 83.375C39.2995 83.0208 39.4219 82.5521 39.4219 81.9688C39.4219 81.2083 39.1797 80.6432 38.6953 80.2734C38.2109 79.8984 37.4531 79.7109 36.4219 79.7109ZM46.8828 81.2812C47.0547 81.2812 47.2344 81.2917 47.4219 81.3125C47.6094 81.3281 47.776 81.3516 47.9219 81.3828L47.7578 82.5859C47.6172 82.5495 47.4609 82.5208 47.2891 82.5C47.1172 82.4792 46.9557 82.4688 46.8047 82.4688C46.4609 82.4688 46.1354 82.5391 45.8281 82.6797C45.526 82.8151 45.2604 83.013 45.0312 83.2734C44.8021 83.5286 44.6224 83.8385 44.4922 84.2031C44.362 84.5625 44.2969 84.9635 44.2969 85.4062V90H42.9922V81.4375H44.0703L44.2109 83.0156H44.2656C44.4427 82.6979 44.6562 82.4089 44.9062 82.1484C45.1562 81.8828 45.4453 81.6719 45.7734 81.5156C46.1068 81.3594 46.4766 81.2812 46.8828 81.2812ZM56.9219 85.7031C56.9219 86.4062 56.8307 87.0339 56.6484 87.5859C56.4661 88.138 56.2031 88.6042 55.8594 88.9844C55.5156 89.3646 55.099 89.6562 54.6094 89.8594C54.125 90.0573 53.5755 90.1562 52.9609 90.1562C52.388 90.1562 51.862 90.0573 51.3828 89.8594C50.9089 89.6562 50.4974 89.3646 50.1484 88.9844C49.8047 88.6042 49.5365 88.138 49.3438 87.5859C49.1562 87.0339 49.0625 86.4062 49.0625 85.7031C49.0625 84.7656 49.2214 83.9688 49.5391 83.3125C49.8568 82.651 50.3099 82.1484 50.8984 81.8047C51.4922 81.4557 52.1979 81.2812 53.0156 81.2812C53.7969 81.2812 54.4792 81.4557 55.0625 81.8047C55.651 82.1536 56.1068 82.6589 56.4297 83.3203C56.7578 83.9766 56.9219 84.7708 56.9219 85.7031ZM50.4062 85.7031C50.4062 86.3906 50.4974 86.987 50.6797 87.4922C50.862 87.9974 51.1432 88.388 51.5234 88.6641C51.9036 88.9401 52.3932 89.0781 52.9922 89.0781C53.5859 89.0781 54.0729 88.9401 54.4531 88.6641C54.8385 88.388 55.1224 87.9974 55.3047 87.4922C55.487 86.987 55.5781 86.3906 55.5781 85.7031C55.5781 85.0208 55.487 84.4323 55.3047 83.9375C55.1224 83.4375 54.8411 83.0521 54.4609 82.7812C54.0807 82.5104 53.5885 82.375 52.9844 82.375C52.0938 82.375 51.4401 82.6693 51.0234 83.2578C50.612 83.8464 50.4062 84.6615 50.4062 85.7031ZM60.4609 77.8438V80.8828C60.4609 81.2318 60.4505 81.5703 60.4297 81.8984C60.4141 82.2266 60.401 82.4818 60.3906 82.6641H60.4609C60.6953 82.2786 61.0339 81.9531 61.4766 81.6875C61.9193 81.4219 62.4844 81.2891 63.1719 81.2891C64.2448 81.2891 65.099 81.6615 65.7344 82.4062C66.375 83.1458 66.6953 84.2474 66.6953 85.7109C66.6953 86.6745 66.5495 87.487 66.2578 88.1484C65.9661 88.8099 65.5547 89.3099 65.0234 89.6484C64.4922 89.987 63.8646 90.1562 63.1406 90.1562C62.4635 90.1562 61.9062 90.0312 61.4688 89.7812C61.0365 89.526 60.7031 89.2161 60.4688 88.8516H60.3672L60.1016 90H59.1641V77.8438H60.4609ZM62.9609 82.375C62.3411 82.375 61.849 82.4974 61.4844 82.7422C61.1198 82.9818 60.8568 83.3464 60.6953 83.8359C60.5391 84.3203 60.4609 84.9349 60.4609 85.6797V85.75C60.4609 86.8281 60.6406 87.6536 61 88.2266C61.3594 88.7943 62.013 89.0781 62.9609 89.0781C63.7578 89.0781 64.3542 88.7865 64.75 88.2031C65.151 87.6198 65.3516 86.7865 65.3516 85.7031C65.3516 84.599 65.1536 83.7682 64.7578 83.2109C64.3672 82.6536 63.7682 82.375 62.9609 82.375ZM72.1641 81.2969C73.1849 81.2969 73.9427 81.526 74.4375 81.9844C74.9323 82.4427 75.1797 83.1745 75.1797 84.1797V90H74.2344L73.9844 88.7344H73.9219C73.6823 89.0469 73.4323 89.3099 73.1719 89.5234C72.9115 89.7318 72.6094 89.8906 72.2656 90C71.9271 90.1042 71.5104 90.1562 71.0156 90.1562C70.4948 90.1562 70.0312 90.0651 69.625 89.8828C69.224 89.7005 68.9062 89.4245 68.6719 89.0547C68.4427 88.6849 68.3281 88.2161 68.3281 87.6484C68.3281 86.7943 68.6667 86.138 69.3438 85.6797C70.0208 85.2214 71.0521 84.9714 72.4375 84.9297L73.9141 84.8672V84.3438C73.9141 83.6042 73.7552 83.0859 73.4375 82.7891C73.1198 82.4922 72.6719 82.3438 72.0938 82.3438C71.6458 82.3438 71.2188 82.4089 70.8125 82.5391C70.4062 82.6693 70.0208 82.8229 69.6562 83L69.2578 82.0156C69.6432 81.8177 70.0859 81.6484 70.5859 81.5078C71.0859 81.3672 71.612 81.2969 72.1641 81.2969ZM73.8984 85.7812L72.5938 85.8359C71.526 85.8776 70.7734 86.0521 70.3359 86.3594C69.8984 86.6667 69.6797 87.1016 69.6797 87.6641C69.6797 88.1536 69.8281 88.5156 70.125 88.75C70.4219 88.9844 70.8151 89.1016 71.3047 89.1016C72.0651 89.1016 72.6875 88.8906 73.1719 88.4688C73.6562 88.0469 73.8984 87.4141 73.8984 86.5703V85.7812ZM74.3047 77.7422V77.8984C74.2005 78.0495 74.0573 78.2318 73.875 78.4453C73.6979 78.6536 73.5 78.875 73.2812 79.1094C73.0625 79.3385 72.8411 79.5573 72.6172 79.7656C72.3984 79.974 72.1953 80.1536 72.0078 80.3047H71.1406V80.1172C71.3073 79.9193 71.4896 79.6823 71.6875 79.4062C71.8854 79.125 72.0781 78.8385 72.2656 78.5469C72.4531 78.25 72.6094 77.9818 72.7344 77.7422H74.3047ZM85.3047 81.2812C86.0339 81.2812 86.6589 81.4427 87.1797 81.7656C87.7005 82.0885 88.099 82.5417 88.375 83.125C88.651 83.7031 88.7891 84.3802 88.7891 85.1562V85.9609H82.875C82.8906 86.9661 83.1406 87.7318 83.625 88.2578C84.1094 88.7839 84.7917 89.0469 85.6719 89.0469C86.2135 89.0469 86.6927 88.9974 87.1094 88.8984C87.526 88.7995 87.9583 88.6536 88.4062 88.4609V89.6016C87.974 89.7943 87.5443 89.9349 87.1172 90.0234C86.6953 90.112 86.1953 90.1562 85.6172 90.1562C84.7943 90.1562 84.0755 89.9896 83.4609 89.6562C82.8516 89.3177 82.3776 88.8229 82.0391 88.1719C81.7005 87.5208 81.5312 86.724 81.5312 85.7812C81.5312 84.8594 81.6849 84.0625 81.9922 83.3906C82.3047 82.7135 82.7422 82.1927 83.3047 81.8281C83.8724 81.4635 84.5391 81.2812 85.3047 81.2812ZM85.2891 82.3438C84.5964 82.3438 84.0443 82.5703 83.6328 83.0234C83.2214 83.4766 82.9766 84.1094 82.8984 84.9219H87.4297C87.4245 84.4115 87.3438 83.9635 87.1875 83.5781C87.0365 83.1875 86.8047 82.8854 86.4922 82.6719C86.1797 82.4531 85.7786 82.3438 85.2891 82.3438ZM92.2969 90H90.9922V77.8438H92.2969V90ZM115.016 111.656C115.016 112.203 114.878 112.664 114.602 113.039C114.331 113.409 113.94 113.688 113.43 113.875C112.924 114.062 112.32 114.156 111.617 114.156C111.018 114.156 110.5 114.109 110.062 114.016C109.625 113.922 109.242 113.789 108.914 113.617V112.422C109.263 112.594 109.68 112.75 110.164 112.891C110.648 113.031 111.143 113.102 111.648 113.102C112.388 113.102 112.924 112.982 113.258 112.742C113.591 112.503 113.758 112.177 113.758 111.766C113.758 111.531 113.69 111.326 113.555 111.148C113.424 110.966 113.203 110.792 112.891 110.625C112.578 110.453 112.146 110.266 111.594 110.062C111.047 109.854 110.573 109.648 110.172 109.445C109.776 109.237 109.469 108.984 109.25 108.688C109.036 108.391 108.93 108.005 108.93 107.531C108.93 106.807 109.221 106.253 109.805 105.867C110.393 105.477 111.164 105.281 112.117 105.281C112.633 105.281 113.115 105.333 113.562 105.438C114.016 105.536 114.438 105.672 114.828 105.844L114.391 106.883C114.036 106.732 113.659 106.604 113.258 106.5C112.857 106.396 112.448 106.344 112.031 106.344C111.432 106.344 110.971 106.443 110.648 106.641C110.331 106.839 110.172 107.109 110.172 107.453C110.172 107.719 110.245 107.938 110.391 108.109C110.542 108.281 110.781 108.443 111.109 108.594C111.438 108.745 111.87 108.922 112.406 109.125C112.943 109.323 113.406 109.529 113.797 109.742C114.188 109.951 114.487 110.206 114.695 110.508C114.909 110.805 115.016 111.188 115.016 111.656ZM118.398 105.438V114H117.102V105.438H118.398ZM117.766 102.234C117.979 102.234 118.161 102.305 118.312 102.445C118.469 102.581 118.547 102.794 118.547 103.086C118.547 103.372 118.469 103.586 118.312 103.727C118.161 103.867 117.979 103.938 117.766 103.938C117.542 103.938 117.354 103.867 117.203 103.727C117.057 103.586 116.984 103.372 116.984 103.086C116.984 102.794 117.057 102.581 117.203 102.445C117.354 102.305 117.542 102.234 117.766 102.234ZM128.602 105.281C129.331 105.281 129.956 105.443 130.477 105.766C130.997 106.089 131.396 106.542 131.672 107.125C131.948 107.703 132.086 108.38 132.086 109.156V109.961H126.172C126.188 110.966 126.438 111.732 126.922 112.258C127.406 112.784 128.089 113.047 128.969 113.047C129.51 113.047 129.99 112.997 130.406 112.898C130.823 112.799 131.255 112.654 131.703 112.461V113.602C131.271 113.794 130.841 113.935 130.414 114.023C129.992 114.112 129.492 114.156 128.914 114.156C128.091 114.156 127.372 113.99 126.758 113.656C126.148 113.318 125.674 112.823 125.336 112.172C124.997 111.521 124.828 110.724 124.828 109.781C124.828 108.859 124.982 108.062 125.289 107.391C125.602 106.714 126.039 106.193 126.602 105.828C127.169 105.464 127.836 105.281 128.602 105.281ZM128.586 106.344C127.893 106.344 127.341 106.57 126.93 107.023C126.518 107.477 126.273 108.109 126.195 108.922H130.727C130.721 108.411 130.641 107.964 130.484 107.578C130.333 107.188 130.102 106.885 129.789 106.672C129.477 106.453 129.076 106.344 128.586 106.344ZM139.828 111.656C139.828 112.203 139.69 112.664 139.414 113.039C139.143 113.409 138.753 113.688 138.242 113.875C137.737 114.062 137.133 114.156 136.43 114.156C135.831 114.156 135.312 114.109 134.875 114.016C134.438 113.922 134.055 113.789 133.727 113.617V112.422C134.076 112.594 134.492 112.75 134.977 112.891C135.461 113.031 135.956 113.102 136.461 113.102C137.201 113.102 137.737 112.982 138.07 112.742C138.404 112.503 138.57 112.177 138.57 111.766C138.57 111.531 138.503 111.326 138.367 111.148C138.237 110.966 138.016 110.792 137.703 110.625C137.391 110.453 136.958 110.266 136.406 110.062C135.859 109.854 135.385 109.648 134.984 109.445C134.589 109.237 134.281 108.984 134.062 108.688C133.849 108.391 133.742 108.005 133.742 107.531C133.742 106.807 134.034 106.253 134.617 105.867C135.206 105.477 135.977 105.281 136.93 105.281C137.445 105.281 137.927 105.333 138.375 105.438C138.828 105.536 139.25 105.672 139.641 105.844L139.203 106.883C138.849 106.732 138.471 106.604 138.07 106.5C137.669 106.396 137.26 106.344 136.844 106.344C136.245 106.344 135.784 106.443 135.461 106.641C135.143 106.839 134.984 107.109 134.984 107.453C134.984 107.719 135.057 107.938 135.203 108.109C135.354 108.281 135.594 108.443 135.922 108.594C136.25 108.745 136.682 108.922 137.219 109.125C137.755 109.323 138.219 109.529 138.609 109.742C139 109.951 139.299 110.206 139.508 110.508C139.721 110.805 139.828 111.188 139.828 111.656ZM144.68 113.094C144.893 113.094 145.112 113.076 145.336 113.039C145.56 113.003 145.742 112.958 145.883 112.906V113.914C145.732 113.982 145.521 114.039 145.25 114.086C144.984 114.133 144.724 114.156 144.469 114.156C144.016 114.156 143.604 114.078 143.234 113.922C142.865 113.76 142.568 113.49 142.344 113.109C142.125 112.729 142.016 112.203 142.016 111.531V106.453H140.797V105.82L142.023 105.312L142.539 103.453H143.32V105.438H145.828V106.453H143.32V111.492C143.32 112.029 143.443 112.43 143.688 112.695C143.938 112.961 144.268 113.094 144.68 113.094ZM150.82 105.297C151.841 105.297 152.599 105.526 153.094 105.984C153.589 106.443 153.836 107.174 153.836 108.18V114H152.891L152.641 112.734H152.578C152.339 113.047 152.089 113.31 151.828 113.523C151.568 113.732 151.266 113.891 150.922 114C150.583 114.104 150.167 114.156 149.672 114.156C149.151 114.156 148.688 114.065 148.281 113.883C147.88 113.701 147.562 113.424 147.328 113.055C147.099 112.685 146.984 112.216 146.984 111.648C146.984 110.794 147.323 110.138 148 109.68C148.677 109.221 149.708 108.971 151.094 108.93L152.57 108.867V108.344C152.57 107.604 152.411 107.086 152.094 106.789C151.776 106.492 151.328 106.344 150.75 106.344C150.302 106.344 149.875 106.409 149.469 106.539C149.062 106.669 148.677 106.823 148.312 107L147.914 106.016C148.299 105.818 148.742 105.648 149.242 105.508C149.742 105.367 150.268 105.297 150.82 105.297ZM152.555 109.781L151.25 109.836C150.182 109.878 149.43 110.052 148.992 110.359C148.555 110.667 148.336 111.102 148.336 111.664C148.336 112.154 148.484 112.516 148.781 112.75C149.078 112.984 149.471 113.102 149.961 113.102C150.721 113.102 151.344 112.891 151.828 112.469C152.312 112.047 152.555 111.414 152.555 110.57V109.781ZM152.961 101.742V101.898C152.857 102.049 152.714 102.232 152.531 102.445C152.354 102.654 152.156 102.875 151.938 103.109C151.719 103.339 151.497 103.557 151.273 103.766C151.055 103.974 150.852 104.154 150.664 104.305H149.797V104.117C149.964 103.919 150.146 103.682 150.344 103.406C150.542 103.125 150.734 102.839 150.922 102.547C151.109 102.25 151.266 101.982 151.391 101.742H152.961ZM162.047 111.656C162.047 112.203 161.909 112.664 161.633 113.039C161.362 113.409 160.971 113.688 160.461 113.875C159.956 114.062 159.352 114.156 158.648 114.156C158.049 114.156 157.531 114.109 157.094 114.016C156.656 113.922 156.273 113.789 155.945 113.617V112.422C156.294 112.594 156.711 112.75 157.195 112.891C157.68 113.031 158.174 113.102 158.68 113.102C159.419 113.102 159.956 112.982 160.289 112.742C160.622 112.503 160.789 112.177 160.789 111.766C160.789 111.531 160.721 111.326 160.586 111.148C160.456 110.966 160.234 110.792 159.922 110.625C159.609 110.453 159.177 110.266 158.625 110.062C158.078 109.854 157.604 109.648 157.203 109.445C156.807 109.237 156.5 108.984 156.281 108.688C156.068 108.391 155.961 108.005 155.961 107.531C155.961 106.807 156.253 106.253 156.836 105.867C157.424 105.477 158.195 105.281 159.148 105.281C159.664 105.281 160.146 105.333 160.594 105.438C161.047 105.536 161.469 105.672 161.859 105.844L161.422 106.883C161.068 106.732 160.69 106.604 160.289 106.5C159.888 106.396 159.479 106.344 159.062 106.344C158.464 106.344 158.003 106.443 157.68 106.641C157.362 106.839 157.203 107.109 157.203 107.453C157.203 107.719 157.276 107.938 157.422 108.109C157.573 108.281 157.812 108.443 158.141 108.594C158.469 108.745 158.901 108.922 159.438 109.125C159.974 109.323 160.438 109.529 160.828 109.742C161.219 109.951 161.518 110.206 161.727 110.508C161.94 110.805 162.047 111.188 162.047 111.656ZM169.586 105.438V114H168.289V105.438H169.586ZM168.953 102.234C169.167 102.234 169.349 102.305 169.5 102.445C169.656 102.581 169.734 102.794 169.734 103.086C169.734 103.372 169.656 103.586 169.5 103.727C169.349 103.867 169.167 103.938 168.953 103.938C168.729 103.938 168.542 103.867 168.391 103.727C168.245 103.586 168.172 103.372 168.172 103.086C168.172 102.794 168.245 102.581 168.391 102.445C168.542 102.305 168.729 102.234 168.953 102.234ZM176.391 105.281C177.406 105.281 178.174 105.531 178.695 106.031C179.216 106.526 179.477 107.323 179.477 108.422V114H178.195V108.508C178.195 107.794 178.031 107.26 177.703 106.906C177.38 106.552 176.883 106.375 176.211 106.375C175.263 106.375 174.596 106.643 174.211 107.18C173.826 107.716 173.633 108.495 173.633 109.516V114H172.336V105.438H173.383L173.578 106.672H173.648C173.831 106.37 174.062 106.117 174.344 105.914C174.625 105.706 174.94 105.549 175.289 105.445C175.638 105.336 176.005 105.281 176.391 105.281ZM184.914 113.094C185.128 113.094 185.346 113.076 185.57 113.039C185.794 113.003 185.977 112.958 186.117 112.906V113.914C185.966 113.982 185.755 114.039 185.484 114.086C185.219 114.133 184.958 114.156 184.703 114.156C184.25 114.156 183.839 114.078 183.469 113.922C183.099 113.76 182.802 113.49 182.578 113.109C182.359 112.729 182.25 112.203 182.25 111.531V106.453H181.031V105.82L182.258 105.312L182.773 103.453H183.555V105.438H186.062V106.453H183.555V111.492C183.555 112.029 183.677 112.43 183.922 112.695C184.172 112.961 184.503 113.094 184.914 113.094ZM191.148 105.281C191.878 105.281 192.503 105.443 193.023 105.766C193.544 106.089 193.943 106.542 194.219 107.125C194.495 107.703 194.633 108.38 194.633 109.156V109.961H188.719C188.734 110.966 188.984 111.732 189.469 112.258C189.953 112.784 190.635 113.047 191.516 113.047C192.057 113.047 192.536 112.997 192.953 112.898C193.37 112.799 193.802 112.654 194.25 112.461V113.602C193.818 113.794 193.388 113.935 192.961 114.023C192.539 114.112 192.039 114.156 191.461 114.156C190.638 114.156 189.919 113.99 189.305 113.656C188.695 113.318 188.221 112.823 187.883 112.172C187.544 111.521 187.375 110.724 187.375 109.781C187.375 108.859 187.529 108.062 187.836 107.391C188.148 106.714 188.586 106.193 189.148 105.828C189.716 105.464 190.383 105.281 191.148 105.281ZM191.133 106.344C190.44 106.344 189.888 106.57 189.477 107.023C189.065 107.477 188.82 108.109 188.742 108.922H193.273C193.268 108.411 193.188 107.964 193.031 107.578C192.88 107.188 192.648 106.885 192.336 106.672C192.023 106.453 191.622 106.344 191.133 106.344ZM200.727 105.281C200.898 105.281 201.078 105.292 201.266 105.312C201.453 105.328 201.62 105.352 201.766 105.383L201.602 106.586C201.461 106.549 201.305 106.521 201.133 106.5C200.961 106.479 200.799 106.469 200.648 106.469C200.305 106.469 199.979 106.539 199.672 106.68C199.37 106.815 199.104 107.013 198.875 107.273C198.646 107.529 198.466 107.839 198.336 108.203C198.206 108.562 198.141 108.964 198.141 109.406V114H196.836V105.438H197.914L198.055 107.016H198.109C198.286 106.698 198.5 106.409 198.75 106.148C199 105.883 199.289 105.672 199.617 105.516C199.951 105.359 200.32 105.281 200.727 105.281ZM206.68 105.281C207.409 105.281 208.034 105.443 208.555 105.766C209.076 106.089 209.474 106.542 209.75 107.125C210.026 107.703 210.164 108.38 210.164 109.156V109.961H204.25C204.266 110.966 204.516 111.732 205 112.258C205.484 112.784 206.167 113.047 207.047 113.047C207.589 113.047 208.068 112.997 208.484 112.898C208.901 112.799 209.333 112.654 209.781 112.461V113.602C209.349 113.794 208.919 113.935 208.492 114.023C208.07 114.112 207.57 114.156 206.992 114.156C206.169 114.156 205.451 113.99 204.836 113.656C204.227 113.318 203.753 112.823 203.414 112.172C203.076 111.521 202.906 110.724 202.906 109.781C202.906 108.859 203.06 108.062 203.367 107.391C203.68 106.714 204.117 106.193 204.68 105.828C205.247 105.464 205.914 105.281 206.68 105.281ZM206.664 106.344C205.971 106.344 205.419 106.57 205.008 107.023C204.596 107.477 204.352 108.109 204.273 108.922H208.805C208.799 108.411 208.719 107.964 208.562 107.578C208.411 107.188 208.18 106.885 207.867 106.672C207.555 106.453 207.154 106.344 206.664 106.344ZM217.906 111.656C217.906 112.203 217.768 112.664 217.492 113.039C217.221 113.409 216.831 113.688 216.32 113.875C215.815 114.062 215.211 114.156 214.508 114.156C213.909 114.156 213.391 114.109 212.953 114.016C212.516 113.922 212.133 113.789 211.805 113.617V112.422C212.154 112.594 212.57 112.75 213.055 112.891C213.539 113.031 214.034 113.102 214.539 113.102C215.279 113.102 215.815 112.982 216.148 112.742C216.482 112.503 216.648 112.177 216.648 111.766C216.648 111.531 216.581 111.326 216.445 111.148C216.315 110.966 216.094 110.792 215.781 110.625C215.469 110.453 215.036 110.266 214.484 110.062C213.938 109.854 213.464 109.648 213.062 109.445C212.667 109.237 212.359 108.984 212.141 108.688C211.927 108.391 211.82 108.005 211.82 107.531C211.82 106.807 212.112 106.253 212.695 105.867C213.284 105.477 214.055 105.281 215.008 105.281C215.523 105.281 216.005 105.333 216.453 105.438C216.906 105.536 217.328 105.672 217.719 105.844L217.281 106.883C216.927 106.732 216.549 106.604 216.148 106.5C215.747 106.396 215.339 106.344 214.922 106.344C214.323 106.344 213.862 106.443 213.539 106.641C213.221 106.839 213.062 107.109 213.062 107.453C213.062 107.719 213.135 107.938 213.281 108.109C213.432 108.281 213.672 108.443 214 108.594C214.328 108.745 214.76 108.922 215.297 109.125C215.833 109.323 216.297 109.529 216.688 109.742C217.078 109.951 217.378 110.206 217.586 110.508C217.799 110.805 217.906 111.188 217.906 111.656ZM223.195 105.297C224.216 105.297 224.974 105.526 225.469 105.984C225.964 106.443 226.211 107.174 226.211 108.18V114H225.266L225.016 112.734H224.953C224.714 113.047 224.464 113.31 224.203 113.523C223.943 113.732 223.641 113.891 223.297 114C222.958 114.104 222.542 114.156 222.047 114.156C221.526 114.156 221.062 114.065 220.656 113.883C220.255 113.701 219.938 113.424 219.703 113.055C219.474 112.685 219.359 112.216 219.359 111.648C219.359 110.794 219.698 110.138 220.375 109.68C221.052 109.221 222.083 108.971 223.469 108.93L224.945 108.867V108.344C224.945 107.604 224.786 107.086 224.469 106.789C224.151 106.492 223.703 106.344 223.125 106.344C222.677 106.344 222.25 106.409 221.844 106.539C221.438 106.669 221.052 106.823 220.688 107L220.289 106.016C220.674 105.818 221.117 105.648 221.617 105.508C222.117 105.367 222.643 105.297 223.195 105.297ZM224.93 109.781L223.625 109.836C222.557 109.878 221.805 110.052 221.367 110.359C220.93 110.667 220.711 111.102 220.711 111.664C220.711 112.154 220.859 112.516 221.156 112.75C221.453 112.984 221.846 113.102 222.336 113.102C223.096 113.102 223.719 112.891 224.203 112.469C224.688 112.047 224.93 111.414 224.93 110.57V109.781ZM231.93 114.156C230.846 114.156 229.987 113.786 229.352 113.047C228.721 112.307 228.406 111.208 228.406 109.75C228.406 108.276 228.729 107.164 229.375 106.414C230.021 105.659 230.88 105.281 231.953 105.281C232.406 105.281 232.802 105.341 233.141 105.461C233.479 105.581 233.771 105.742 234.016 105.945C234.26 106.143 234.466 106.37 234.633 106.625H234.727C234.706 106.464 234.685 106.242 234.664 105.961C234.643 105.68 234.633 105.451 234.633 105.273V101.844H235.93V114H234.883L234.688 112.781H234.633C234.471 113.036 234.266 113.268 234.016 113.477C233.771 113.685 233.477 113.852 233.133 113.977C232.794 114.096 232.393 114.156 231.93 114.156ZM232.133 113.078C233.049 113.078 233.698 112.818 234.078 112.297C234.458 111.776 234.648 111.003 234.648 109.977V109.742C234.648 108.654 234.466 107.818 234.102 107.234C233.742 106.651 233.086 106.359 232.133 106.359C231.336 106.359 230.74 106.667 230.344 107.281C229.948 107.891 229.75 108.724 229.75 109.781C229.75 110.833 229.945 111.646 230.336 112.219C230.732 112.792 231.331 113.078 232.133 113.078ZM246.062 109.703C246.062 110.406 245.971 111.034 245.789 111.586C245.607 112.138 245.344 112.604 245 112.984C244.656 113.365 244.24 113.656 243.75 113.859C243.266 114.057 242.716 114.156 242.102 114.156C241.529 114.156 241.003 114.057 240.523 113.859C240.049 113.656 239.638 113.365 239.289 112.984C238.945 112.604 238.677 112.138 238.484 111.586C238.297 111.034 238.203 110.406 238.203 109.703C238.203 108.766 238.362 107.969 238.68 107.312C238.997 106.651 239.451 106.148 240.039 105.805C240.633 105.456 241.339 105.281 242.156 105.281C242.938 105.281 243.62 105.456 244.203 105.805C244.792 106.154 245.247 106.659 245.57 107.32C245.898 107.977 246.062 108.771 246.062 109.703ZM239.547 109.703C239.547 110.391 239.638 110.987 239.82 111.492C240.003 111.997 240.284 112.388 240.664 112.664C241.044 112.94 241.534 113.078 242.133 113.078C242.727 113.078 243.214 112.94 243.594 112.664C243.979 112.388 244.263 111.997 244.445 111.492C244.628 110.987 244.719 110.391 244.719 109.703C244.719 109.021 244.628 108.432 244.445 107.938C244.263 107.438 243.982 107.052 243.602 106.781C243.221 106.51 242.729 106.375 242.125 106.375C241.234 106.375 240.581 106.669 240.164 107.258C239.753 107.846 239.547 108.661 239.547 109.703ZM255.758 105.281C256.487 105.281 257.112 105.443 257.633 105.766C258.154 106.089 258.552 106.542 258.828 107.125C259.104 107.703 259.242 108.38 259.242 109.156V109.961H253.328C253.344 110.966 253.594 111.732 254.078 112.258C254.562 112.784 255.245 113.047 256.125 113.047C256.667 113.047 257.146 112.997 257.562 112.898C257.979 112.799 258.411 112.654 258.859 112.461V113.602C258.427 113.794 257.997 113.935 257.57 114.023C257.148 114.112 256.648 114.156 256.07 114.156C255.247 114.156 254.529 113.99 253.914 113.656C253.305 113.318 252.831 112.823 252.492 112.172C252.154 111.521 251.984 110.724 251.984 109.781C251.984 108.859 252.138 108.062 252.445 107.391C252.758 106.714 253.195 106.193 253.758 105.828C254.326 105.464 254.992 105.281 255.758 105.281ZM255.742 106.344C255.049 106.344 254.497 106.57 254.086 107.023C253.674 107.477 253.43 108.109 253.352 108.922H257.883C257.878 108.411 257.797 107.964 257.641 107.578C257.49 107.188 257.258 106.885 256.945 106.672C256.633 106.453 256.232 106.344 255.742 106.344ZM265.5 105.281C266.516 105.281 267.284 105.531 267.805 106.031C268.326 106.526 268.586 107.323 268.586 108.422V114H267.305V108.508C267.305 107.794 267.141 107.26 266.812 106.906C266.49 106.552 265.992 106.375 265.32 106.375C264.372 106.375 263.706 106.643 263.32 107.18C262.935 107.716 262.742 108.495 262.742 109.516V114H261.445V105.438H262.492L262.688 106.672H262.758C262.94 106.37 263.172 106.117 263.453 105.914C263.734 105.706 264.049 105.549 264.398 105.445C264.747 105.336 265.115 105.281 265.5 105.281ZM36.5703 129.297C37.5911 129.297 38.349 129.526 38.8438 129.984C39.3385 130.443 39.5859 131.174 39.5859 132.18V138H38.6406L38.3906 136.734H38.3281C38.0885 137.047 37.8385 137.31 37.5781 137.523C37.3177 137.732 37.0156 137.891 36.6719 138C36.3333 138.104 35.9167 138.156 35.4219 138.156C34.901 138.156 34.4375 138.065 34.0312 137.883C33.6302 137.701 33.3125 137.424 33.0781 137.055C32.849 136.685 32.7344 136.216 32.7344 135.648C32.7344 134.794 33.0729 134.138 33.75 133.68C34.4271 133.221 35.4583 132.971 36.8438 132.93L38.3203 132.867V132.344C38.3203 131.604 38.1615 131.086 37.8438 130.789C37.526 130.492 37.0781 130.344 36.5 130.344C36.0521 130.344 35.625 130.409 35.2188 130.539C34.8125 130.669 34.4271 130.823 34.0625 131L33.6641 130.016C34.0495 129.818 34.4922 129.648 34.9922 129.508C35.4922 129.367 36.0182 129.297 36.5703 129.297ZM38.3047 133.781L37 133.836C35.9323 133.878 35.1797 134.052 34.7422 134.359C34.3047 134.667 34.0859 135.102 34.0859 135.664C34.0859 136.154 34.2344 136.516 34.5312 136.75C34.8281 136.984 35.2214 137.102 35.7109 137.102C36.4714 137.102 37.0938 136.891 37.5781 136.469C38.0625 136.047 38.3047 135.414 38.3047 134.57V133.781ZM46.2812 129.281C47.349 129.281 48.2005 129.648 48.8359 130.383C49.4714 131.117 49.7891 132.221 49.7891 133.695C49.7891 134.669 49.6432 135.487 49.3516 136.148C49.0599 136.81 48.6484 137.31 48.1172 137.648C47.5911 137.987 46.9688 138.156 46.25 138.156C45.7969 138.156 45.3984 138.096 45.0547 137.977C44.7109 137.857 44.4167 137.695 44.1719 137.492C43.9271 137.289 43.724 137.068 43.5625 136.828H43.4688C43.4844 137.031 43.5026 137.276 43.5234 137.562C43.5495 137.849 43.5625 138.099 43.5625 138.312V141.828H42.2578V129.438H43.3281L43.5 130.703H43.5625C43.7292 130.443 43.9323 130.206 44.1719 129.992C44.4115 129.773 44.7031 129.602 45.0469 129.477C45.3958 129.346 45.8073 129.281 46.2812 129.281ZM46.0547 130.375C45.4609 130.375 44.9818 130.49 44.6172 130.719C44.2578 130.948 43.9948 131.292 43.8281 131.75C43.6615 132.203 43.5729 132.773 43.5625 133.461V133.711C43.5625 134.435 43.6406 135.047 43.7969 135.547C43.9583 136.047 44.2214 136.427 44.5859 136.688C44.9557 136.948 45.4505 137.078 46.0703 137.078C46.6016 137.078 47.0443 136.935 47.3984 136.648C47.7526 136.362 48.0156 135.964 48.1875 135.453C48.3646 134.938 48.4531 134.346 48.4531 133.68C48.4531 132.669 48.2552 131.867 47.8594 131.273C47.4688 130.674 46.8672 130.375 46.0547 130.375ZM55.9453 129.281C56.1172 129.281 56.2969 129.292 56.4844 129.312C56.6719 129.328 56.8385 129.352 56.9844 129.383L56.8203 130.586C56.6797 130.549 56.5234 130.521 56.3516 130.5C56.1797 130.479 56.0182 130.469 55.8672 130.469C55.5234 130.469 55.1979 130.539 54.8906 130.68C54.5885 130.815 54.3229 131.013 54.0938 131.273C53.8646 131.529 53.6849 131.839 53.5547 132.203C53.4245 132.562 53.3594 132.964 53.3594 133.406V138H52.0547V129.438H53.1328L53.2734 131.016H53.3281C53.5052 130.698 53.7188 130.409 53.9688 130.148C54.2188 129.883 54.5078 129.672 54.8359 129.516C55.1693 129.359 55.5391 129.281 55.9453 129.281ZM61.8984 129.281C62.6276 129.281 63.2526 129.443 63.7734 129.766C64.2943 130.089 64.6927 130.542 64.9688 131.125C65.2448 131.703 65.3828 132.38 65.3828 133.156V133.961H59.4688C59.4844 134.966 59.7344 135.732 60.2188 136.258C60.7031 136.784 61.3854 137.047 62.2656 137.047C62.8073 137.047 63.2865 136.997 63.7031 136.898C64.1198 136.799 64.5521 136.654 65 136.461V137.602C64.5677 137.794 64.138 137.935 63.7109 138.023C63.2891 138.112 62.7891 138.156 62.2109 138.156C61.388 138.156 60.6693 137.99 60.0547 137.656C59.4453 137.318 58.9714 136.823 58.6328 136.172C58.2943 135.521 58.125 134.724 58.125 133.781C58.125 132.859 58.2786 132.062 58.5859 131.391C58.8984 130.714 59.3359 130.193 59.8984 129.828C60.4661 129.464 61.1328 129.281 61.8984 129.281ZM61.8828 130.344C61.1901 130.344 60.638 130.57 60.2266 131.023C59.8151 131.477 59.5703 132.109 59.4922 132.922H64.0234C64.0182 132.411 63.9375 131.964 63.7812 131.578C63.6302 131.188 63.3984 130.885 63.0859 130.672C62.7734 130.453 62.3724 130.344 61.8828 130.344ZM71.6406 129.281C72.6562 129.281 73.4245 129.531 73.9453 130.031C74.4661 130.526 74.7266 131.323 74.7266 132.422V138H73.4453V132.508C73.4453 131.794 73.2812 131.26 72.9531 130.906C72.6302 130.552 72.1328 130.375 71.4609 130.375C70.513 130.375 69.8464 130.643 69.4609 131.18C69.0755 131.716 68.8828 132.495 68.8828 133.516V138H67.5859V129.438H68.6328L68.8281 130.672H68.8984C69.0807 130.37 69.3125 130.117 69.5938 129.914C69.875 129.706 70.1901 129.549 70.5391 129.445C70.888 129.336 71.2552 129.281 71.6406 129.281ZM80.4453 138.156C79.362 138.156 78.5026 137.786 77.8672 137.047C77.237 136.307 76.9219 135.208 76.9219 133.75C76.9219 132.276 77.2448 131.164 77.8906 130.414C78.5365 129.659 79.3958 129.281 80.4688 129.281C80.9219 129.281 81.3177 129.341 81.6562 129.461C81.9948 129.581 82.2865 129.742 82.5312 129.945C82.776 130.143 82.9818 130.37 83.1484 130.625H83.2422C83.2214 130.464 83.2005 130.242 83.1797 129.961C83.1589 129.68 83.1484 129.451 83.1484 129.273V125.844H84.4453V138H83.3984L83.2031 136.781H83.1484C82.987 137.036 82.7812 137.268 82.5312 137.477C82.2865 137.685 81.9922 137.852 81.6484 137.977C81.3099 138.096 80.9089 138.156 80.4453 138.156ZM80.6484 137.078C81.5651 137.078 82.2135 136.818 82.5938 136.297C82.974 135.776 83.1641 135.003 83.1641 133.977V133.742C83.1641 132.654 82.9818 131.818 82.6172 131.234C82.2578 130.651 81.6016 130.359 80.6484 130.359C79.8516 130.359 79.2552 130.667 78.8594 131.281C78.4635 131.891 78.2656 132.724 78.2656 133.781C78.2656 134.833 78.4609 135.646 78.8516 136.219C79.2474 136.792 79.8464 137.078 80.6484 137.078ZM90.4922 129.281C91.2214 129.281 91.8464 129.443 92.3672 129.766C92.888 130.089 93.2865 130.542 93.5625 131.125C93.8385 131.703 93.9766 132.38 93.9766 133.156V133.961H88.0625C88.0781 134.966 88.3281 135.732 88.8125 136.258C89.2969 136.784 89.9792 137.047 90.8594 137.047C91.401 137.047 91.8802 136.997 92.2969 136.898C92.7135 136.799 93.1458 136.654 93.5938 136.461V137.602C93.1615 137.794 92.7318 137.935 92.3047 138.023C91.8828 138.112 91.3828 138.156 90.8047 138.156C89.9818 138.156 89.263 137.99 88.6484 137.656C88.0391 137.318 87.5651 136.823 87.2266 136.172C86.888 135.521 86.7188 134.724 86.7188 133.781C86.7188 132.859 86.8724 132.062 87.1797 131.391C87.4922 130.714 87.9297 130.193 88.4922 129.828C89.0599 129.464 89.7266 129.281 90.4922 129.281ZM90.4766 130.344C89.7839 130.344 89.2318 130.57 88.8203 131.023C88.4089 131.477 88.1641 132.109 88.0859 132.922H92.6172C92.612 132.411 92.5312 131.964 92.375 131.578C92.224 131.188 91.9922 130.885 91.6797 130.672C91.3672 130.453 90.9661 130.344 90.4766 130.344ZM100.07 129.281C100.242 129.281 100.422 129.292 100.609 129.312C100.797 129.328 100.964 129.352 101.109 129.383L100.945 130.586C100.805 130.549 100.648 130.521 100.477 130.5C100.305 130.479 100.143 130.469 99.9922 130.469C99.6484 130.469 99.3229 130.539 99.0156 130.68C98.7135 130.815 98.4479 131.013 98.2188 131.273C97.9896 131.529 97.8099 131.839 97.6797 132.203C97.5495 132.562 97.4844 132.964 97.4844 133.406V138H96.1797V129.438H97.2578L97.3984 131.016H97.4531C97.6302 130.698 97.8438 130.409 98.0938 130.148C98.3438 129.883 98.6328 129.672 98.9609 129.516C99.2943 129.359 99.6641 129.281 100.07 129.281ZM112.422 135.656C112.422 136.203 112.284 136.664 112.008 137.039C111.737 137.409 111.346 137.688 110.836 137.875C110.331 138.062 109.727 138.156 109.023 138.156C108.424 138.156 107.906 138.109 107.469 138.016C107.031 137.922 106.648 137.789 106.32 137.617V136.422C106.669 136.594 107.086 136.75 107.57 136.891C108.055 137.031 108.549 137.102 109.055 137.102C109.794 137.102 110.331 136.982 110.664 136.742C110.997 136.503 111.164 136.177 111.164 135.766C111.164 135.531 111.096 135.326 110.961 135.148C110.831 134.966 110.609 134.792 110.297 134.625C109.984 134.453 109.552 134.266 109 134.062C108.453 133.854 107.979 133.648 107.578 133.445C107.182 133.237 106.875 132.984 106.656 132.688C106.443 132.391 106.336 132.005 106.336 131.531C106.336 130.807 106.628 130.253 107.211 129.867C107.799 129.477 108.57 129.281 109.523 129.281C110.039 129.281 110.521 129.333 110.969 129.438C111.422 129.536 111.844 129.672 112.234 129.844L111.797 130.883C111.443 130.732 111.065 130.604 110.664 130.5C110.263 130.396 109.854 130.344 109.438 130.344C108.839 130.344 108.378 130.443 108.055 130.641C107.737 130.839 107.578 131.109 107.578 131.453C107.578 131.719 107.651 131.938 107.797 132.109C107.948 132.281 108.188 132.443 108.516 132.594C108.844 132.745 109.276 132.922 109.812 133.125C110.349 133.323 110.812 133.529 111.203 133.742C111.594 133.951 111.893 134.206 112.102 134.508C112.315 134.805 112.422 135.188 112.422 135.656ZM121.891 133.703C121.891 134.406 121.799 135.034 121.617 135.586C121.435 136.138 121.172 136.604 120.828 136.984C120.484 137.365 120.068 137.656 119.578 137.859C119.094 138.057 118.544 138.156 117.93 138.156C117.357 138.156 116.831 138.057 116.352 137.859C115.878 137.656 115.466 137.365 115.117 136.984C114.773 136.604 114.505 136.138 114.312 135.586C114.125 135.034 114.031 134.406 114.031 133.703C114.031 132.766 114.19 131.969 114.508 131.312C114.826 130.651 115.279 130.148 115.867 129.805C116.461 129.456 117.167 129.281 117.984 129.281C118.766 129.281 119.448 129.456 120.031 129.805C120.62 130.154 121.076 130.659 121.398 131.32C121.727 131.977 121.891 132.771 121.891 133.703ZM115.375 133.703C115.375 134.391 115.466 134.987 115.648 135.492C115.831 135.997 116.112 136.388 116.492 136.664C116.872 136.94 117.362 137.078 117.961 137.078C118.555 137.078 119.042 136.94 119.422 136.664C119.807 136.388 120.091 135.997 120.273 135.492C120.456 134.987 120.547 134.391 120.547 133.703C120.547 133.021 120.456 132.432 120.273 131.938C120.091 131.438 119.81 131.052 119.43 130.781C119.049 130.51 118.557 130.375 117.953 130.375C117.062 130.375 116.409 130.669 115.992 131.258C115.581 131.846 115.375 132.661 115.375 133.703ZM125.43 125.844V128.883C125.43 129.232 125.419 129.57 125.398 129.898C125.383 130.227 125.37 130.482 125.359 130.664H125.43C125.664 130.279 126.003 129.953 126.445 129.688C126.888 129.422 127.453 129.289 128.141 129.289C129.214 129.289 130.068 129.661 130.703 130.406C131.344 131.146 131.664 132.247 131.664 133.711C131.664 134.674 131.518 135.487 131.227 136.148C130.935 136.81 130.523 137.31 129.992 137.648C129.461 137.987 128.833 138.156 128.109 138.156C127.432 138.156 126.875 138.031 126.438 137.781C126.005 137.526 125.672 137.216 125.438 136.852H125.336L125.07 138H124.133V125.844H125.43ZM127.93 130.375C127.31 130.375 126.818 130.497 126.453 130.742C126.089 130.982 125.826 131.346 125.664 131.836C125.508 132.32 125.43 132.935 125.43 133.68V133.75C125.43 134.828 125.609 135.654 125.969 136.227C126.328 136.794 126.982 137.078 127.93 137.078C128.727 137.078 129.323 136.786 129.719 136.203C130.12 135.62 130.32 134.786 130.32 133.703C130.32 132.599 130.122 131.768 129.727 131.211C129.336 130.654 128.737 130.375 127.93 130.375ZM137.82 129.281C137.992 129.281 138.172 129.292 138.359 129.312C138.547 129.328 138.714 129.352 138.859 129.383L138.695 130.586C138.555 130.549 138.398 130.521 138.227 130.5C138.055 130.479 137.893 130.469 137.742 130.469C137.398 130.469 137.073 130.539 136.766 130.68C136.464 130.815 136.198 131.013 135.969 131.273C135.74 131.529 135.56 131.839 135.43 132.203C135.299 132.562 135.234 132.964 135.234 133.406V138H133.93V129.438H135.008L135.148 131.016H135.203C135.38 130.698 135.594 130.409 135.844 130.148C136.094 129.883 136.383 129.672 136.711 129.516C137.044 129.359 137.414 129.281 137.82 129.281ZM143.773 129.281C144.503 129.281 145.128 129.443 145.648 129.766C146.169 130.089 146.568 130.542 146.844 131.125C147.12 131.703 147.258 132.38 147.258 133.156V133.961H141.344C141.359 134.966 141.609 135.732 142.094 136.258C142.578 136.784 143.26 137.047 144.141 137.047C144.682 137.047 145.161 136.997 145.578 136.898C145.995 136.799 146.427 136.654 146.875 136.461V137.602C146.443 137.794 146.013 137.935 145.586 138.023C145.164 138.112 144.664 138.156 144.086 138.156C143.263 138.156 142.544 137.99 141.93 137.656C141.32 137.318 140.846 136.823 140.508 136.172C140.169 135.521 140 134.724 140 133.781C140 132.859 140.154 132.062 140.461 131.391C140.773 130.714 141.211 130.193 141.773 129.828C142.341 129.464 143.008 129.281 143.773 129.281ZM143.758 130.344C143.065 130.344 142.513 130.57 142.102 131.023C141.69 131.477 141.445 132.109 141.367 132.922H145.898C145.893 132.411 145.812 131.964 145.656 131.578C145.505 131.188 145.273 130.885 144.961 130.672C144.648 130.453 144.247 130.344 143.758 130.344ZM112.203 161.188C112.203 160.823 112.292 160.565 112.469 160.414C112.646 160.258 112.862 160.18 113.117 160.18C113.383 160.18 113.607 160.258 113.789 160.414C113.971 160.565 114.062 160.823 114.062 161.188C114.062 161.547 113.971 161.81 113.789 161.977C113.607 162.138 113.383 162.219 113.117 162.219C112.862 162.219 112.646 162.138 112.469 161.977C112.292 161.81 112.203 161.547 112.203 161.188Z" fill="#101E37"/>
<path d="M101.961 89.0938C102.174 89.0938 102.393 89.0755 102.617 89.0391C102.841 89.0026 103.023 88.9583 103.164 88.9062V89.9141C103.013 89.9818 102.802 90.0391 102.531 90.0859C102.266 90.1328 102.005 90.1562 101.75 90.1562C101.297 90.1562 100.885 90.0781 100.516 89.9219C100.146 89.7604 99.849 89.4896 99.625 89.1094C99.4062 88.7292 99.2969 88.2031 99.2969 87.5312V82.4531H98.0781V81.8203L99.3047 81.3125L99.8203 79.4531H100.602V81.4375H103.109V82.4531H100.602V87.4922C100.602 88.0286 100.724 88.4297 100.969 88.6953C101.219 88.9609 101.549 89.0938 101.961 89.0938ZM111.969 81.4375V90H110.906L110.719 88.7969H110.648C110.471 89.0938 110.242 89.3438 109.961 89.5469C109.68 89.75 109.362 89.901 109.008 90C108.659 90.1042 108.286 90.1562 107.891 90.1562C107.214 90.1562 106.646 90.0469 106.188 89.8281C105.729 89.6094 105.383 89.2708 105.148 88.8125C104.919 88.3542 104.805 87.7656 104.805 87.0469V81.4375H106.117V86.9531C106.117 87.6667 106.279 88.2005 106.602 88.5547C106.924 88.9036 107.417 89.0781 108.078 89.0781C108.714 89.0781 109.219 88.9583 109.594 88.7188C109.974 88.4792 110.247 88.1276 110.414 87.6641C110.581 87.1953 110.664 86.6224 110.664 85.9453V81.4375H111.969ZM117.477 89.0938C117.69 89.0938 117.909 89.0755 118.133 89.0391C118.357 89.0026 118.539 88.9583 118.68 88.9062V89.9141C118.529 89.9818 118.318 90.0391 118.047 90.0859C117.781 90.1328 117.521 90.1562 117.266 90.1562C116.812 90.1562 116.401 90.0781 116.031 89.9219C115.661 89.7604 115.365 89.4896 115.141 89.1094C114.922 88.7292 114.812 88.2031 114.812 87.5312V82.4531H113.594V81.8203L114.82 81.3125L115.336 79.4531H116.117V81.4375H118.625V82.4531H116.117V87.4922C116.117 88.0286 116.24 88.4297 116.484 88.6953C116.734 88.9609 117.065 89.0938 117.477 89.0938ZM127.797 85.7031C127.797 86.4062 127.706 87.0339 127.523 87.5859C127.341 88.138 127.078 88.6042 126.734 88.9844C126.391 89.3646 125.974 89.6562 125.484 89.8594C125 90.0573 124.451 90.1562 123.836 90.1562C123.263 90.1562 122.737 90.0573 122.258 89.8594C121.784 89.6562 121.372 89.3646 121.023 88.9844C120.68 88.6042 120.411 88.138 120.219 87.5859C120.031 87.0339 119.938 86.4062 119.938 85.7031C119.938 84.7656 120.096 83.9688 120.414 83.3125C120.732 82.651 121.185 82.1484 121.773 81.8047C122.367 81.4557 123.073 81.2812 123.891 81.2812C124.672 81.2812 125.354 81.4557 125.938 81.8047C126.526 82.1536 126.982 82.6589 127.305 83.3203C127.633 83.9766 127.797 84.7708 127.797 85.7031ZM121.281 85.7031C121.281 86.3906 121.372 86.987 121.555 87.4922C121.737 87.9974 122.018 88.388 122.398 88.6641C122.779 88.9401 123.268 89.0781 123.867 89.0781C124.461 89.0781 124.948 88.9401 125.328 88.6641C125.714 88.388 125.997 87.9974 126.18 87.4922C126.362 86.987 126.453 86.3906 126.453 85.7031C126.453 85.0208 126.362 84.4323 126.18 83.9375C125.997 83.4375 125.716 83.0521 125.336 82.7812C124.956 82.5104 124.464 82.375 123.859 82.375C122.969 82.375 122.315 82.6693 121.898 83.2578C121.487 83.8464 121.281 84.6615 121.281 85.7031ZM133.93 81.2812C134.102 81.2812 134.281 81.2917 134.469 81.3125C134.656 81.3281 134.823 81.3516 134.969 81.3828L134.805 82.5859C134.664 82.5495 134.508 82.5208 134.336 82.5C134.164 82.4792 134.003 82.4688 133.852 82.4688C133.508 82.4688 133.182 82.5391 132.875 82.6797C132.573 82.8151 132.307 83.013 132.078 83.2734C131.849 83.5286 131.669 83.8385 131.539 84.2031C131.409 84.5625 131.344 84.9635 131.344 85.4062V90H130.039V81.4375H131.117L131.258 83.0156H131.312C131.49 82.6979 131.703 82.4089 131.953 82.1484C132.203 81.8828 132.492 81.6719 132.82 81.5156C133.154 81.3594 133.523 81.2812 133.93 81.2812ZM137.883 81.4375V90H136.586V81.4375H137.883ZM137.25 78.2344C137.464 78.2344 137.646 78.3047 137.797 78.4453C137.953 78.5807 138.031 78.7943 138.031 79.0859C138.031 79.3724 137.953 79.5859 137.797 79.7266C137.646 79.8672 137.464 79.9375 137.25 79.9375C137.026 79.9375 136.839 79.8672 136.688 79.7266C136.542 79.5859 136.469 79.3724 136.469 79.0859C136.469 78.7943 136.542 78.5807 136.688 78.4453C136.839 78.3047 137.026 78.2344 137.25 78.2344ZM143.836 81.2969C144.857 81.2969 145.615 81.526 146.109 81.9844C146.604 82.4427 146.852 83.1745 146.852 84.1797V90H145.906L145.656 88.7344H145.594C145.354 89.0469 145.104 89.3099 144.844 89.5234C144.583 89.7318 144.281 89.8906 143.938 90C143.599 90.1042 143.182 90.1562 142.688 90.1562C142.167 90.1562 141.703 90.0651 141.297 89.8828C140.896 89.7005 140.578 89.4245 140.344 89.0547C140.115 88.6849 140 88.2161 140 87.6484C140 86.7943 140.339 86.138 141.016 85.6797C141.693 85.2214 142.724 84.9714 144.109 84.9297L145.586 84.8672V84.3438C145.586 83.6042 145.427 83.0859 145.109 82.7891C144.792 82.4922 144.344 82.3438 143.766 82.3438C143.318 82.3438 142.891 82.4089 142.484 82.5391C142.078 82.6693 141.693 82.8229 141.328 83L140.93 82.0156C141.315 81.8177 141.758 81.6484 142.258 81.5078C142.758 81.3672 143.284 81.2969 143.836 81.2969ZM145.57 85.7812L144.266 85.8359C143.198 85.8776 142.445 86.0521 142.008 86.3594C141.57 86.6667 141.352 87.1016 141.352 87.6641C141.352 88.1536 141.5 88.5156 141.797 88.75C142.094 88.9844 142.487 89.1016 142.977 89.1016C143.737 89.1016 144.359 88.8906 144.844 88.4688C145.328 88.0469 145.57 87.4141 145.57 86.5703V85.7812ZM150.828 90H149.523V77.8438H150.828V90ZM161.75 81.2812C162.818 81.2812 163.669 81.6484 164.305 82.3828C164.94 83.1172 165.258 84.2214 165.258 85.6953C165.258 86.6693 165.112 87.487 164.82 88.1484C164.529 88.8099 164.117 89.3099 163.586 89.6484C163.06 89.987 162.438 90.1562 161.719 90.1562C161.266 90.1562 160.867 90.0964 160.523 89.9766C160.18 89.8568 159.885 89.6953 159.641 89.4922C159.396 89.2891 159.193 89.0677 159.031 88.8281H158.938C158.953 89.0312 158.971 89.276 158.992 89.5625C159.018 89.849 159.031 90.099 159.031 90.3125V93.8281H157.727V81.4375H158.797L158.969 82.7031H159.031C159.198 82.4427 159.401 82.2057 159.641 81.9922C159.88 81.7734 160.172 81.6016 160.516 81.4766C160.865 81.3464 161.276 81.2812 161.75 81.2812ZM161.523 82.375C160.93 82.375 160.451 82.4896 160.086 82.7188C159.727 82.9479 159.464 83.2917 159.297 83.75C159.13 84.2031 159.042 84.7734 159.031 85.4609V85.7109C159.031 86.4349 159.109 87.0469 159.266 87.5469C159.427 88.0469 159.69 88.4271 160.055 88.6875C160.424 88.9479 160.919 89.0781 161.539 89.0781C162.07 89.0781 162.513 88.9349 162.867 88.6484C163.221 88.362 163.484 87.9635 163.656 87.4531C163.833 86.9375 163.922 86.3464 163.922 85.6797C163.922 84.6693 163.724 83.8672 163.328 83.2734C162.938 82.6745 162.336 82.375 161.523 82.375ZM170.727 81.2969C171.747 81.2969 172.505 81.526 173 81.9844C173.495 82.4427 173.742 83.1745 173.742 84.1797V90H172.797L172.547 88.7344H172.484C172.245 89.0469 171.995 89.3099 171.734 89.5234C171.474 89.7318 171.172 89.8906 170.828 90C170.49 90.1042 170.073 90.1562 169.578 90.1562C169.057 90.1562 168.594 90.0651 168.188 89.8828C167.786 89.7005 167.469 89.4245 167.234 89.0547C167.005 88.6849 166.891 88.2161 166.891 87.6484C166.891 86.7943 167.229 86.138 167.906 85.6797C168.583 85.2214 169.615 84.9714 171 84.9297L172.477 84.8672V84.3438C172.477 83.6042 172.318 83.0859 172 82.7891C171.682 82.4922 171.234 82.3438 170.656 82.3438C170.208 82.3438 169.781 82.4089 169.375 82.5391C168.969 82.6693 168.583 82.8229 168.219 83L167.82 82.0156C168.206 81.8177 168.648 81.6484 169.148 81.5078C169.648 81.3672 170.174 81.2969 170.727 81.2969ZM172.461 85.7812L171.156 85.8359C170.089 85.8776 169.336 86.0521 168.898 86.3594C168.461 86.6667 168.242 87.1016 168.242 87.6641C168.242 88.1536 168.391 88.5156 168.688 88.75C168.984 88.9844 169.378 89.1016 169.867 89.1016C170.628 89.1016 171.25 88.8906 171.734 88.4688C172.219 88.0469 172.461 87.4141 172.461 86.5703V85.7812ZM180.305 81.2812C180.477 81.2812 180.656 81.2917 180.844 81.3125C181.031 81.3281 181.198 81.3516 181.344 81.3828L181.18 82.5859C181.039 82.5495 180.883 82.5208 180.711 82.5C180.539 82.4792 180.378 82.4688 180.227 82.4688C179.883 82.4688 179.557 82.5391 179.25 82.6797C178.948 82.8151 178.682 83.013 178.453 83.2734C178.224 83.5286 178.044 83.8385 177.914 84.2031C177.784 84.5625 177.719 84.9635 177.719 85.4062V90H176.414V81.4375H177.492L177.633 83.0156H177.688C177.865 82.6979 178.078 82.4089 178.328 82.1484C178.578 81.8828 178.867 81.6719 179.195 81.5156C179.529 81.3594 179.898 81.2812 180.305 81.2812ZM186.164 81.2969C187.185 81.2969 187.943 81.526 188.438 81.9844C188.932 82.4427 189.18 83.1745 189.18 84.1797V90H188.234L187.984 88.7344H187.922C187.682 89.0469 187.432 89.3099 187.172 89.5234C186.911 89.7318 186.609 89.8906 186.266 90C185.927 90.1042 185.51 90.1562 185.016 90.1562C184.495 90.1562 184.031 90.0651 183.625 89.8828C183.224 89.7005 182.906 89.4245 182.672 89.0547C182.443 88.6849 182.328 88.2161 182.328 87.6484C182.328 86.7943 182.667 86.138 183.344 85.6797C184.021 85.2214 185.052 84.9714 186.438 84.9297L187.914 84.8672V84.3438C187.914 83.6042 187.755 83.0859 187.438 82.7891C187.12 82.4922 186.672 82.3438 186.094 82.3438C185.646 82.3438 185.219 82.4089 184.812 82.5391C184.406 82.6693 184.021 82.8229 183.656 83L183.258 82.0156C183.643 81.8177 184.086 81.6484 184.586 81.5078C185.086 81.3672 185.612 81.2969 186.164 81.2969ZM187.898 85.7812L186.594 85.8359C185.526 85.8776 184.773 86.0521 184.336 86.3594C183.898 86.6667 183.68 87.1016 183.68 87.6641C183.68 88.1536 183.828 88.5156 184.125 88.75C184.422 88.9844 184.815 89.1016 185.305 89.1016C186.065 89.1016 186.688 88.8906 187.172 88.4688C187.656 88.0469 187.898 87.4141 187.898 86.5703V85.7812ZM197.305 81.4375V90H196.008V81.4375H197.305ZM196.672 78.2344C196.885 78.2344 197.068 78.3047 197.219 78.4453C197.375 78.5807 197.453 78.7943 197.453 79.0859C197.453 79.3724 197.375 79.5859 197.219 79.7266C197.068 79.8672 196.885 79.9375 196.672 79.9375C196.448 79.9375 196.26 79.8672 196.109 79.7266C195.964 79.5859 195.891 79.3724 195.891 79.0859C195.891 78.7943 195.964 78.5807 196.109 78.4453C196.26 78.3047 196.448 78.2344 196.672 78.2344ZM203.102 90.1562C202.018 90.1562 201.159 89.7865 200.523 89.0469C199.893 88.3073 199.578 87.2083 199.578 85.75C199.578 84.276 199.901 83.1641 200.547 82.4141C201.193 81.6589 202.052 81.2812 203.125 81.2812C203.578 81.2812 203.974 81.3411 204.312 81.4609C204.651 81.5807 204.943 81.7422 205.188 81.9453C205.432 82.1432 205.638 82.3698 205.805 82.625H205.898C205.878 82.4635 205.857 82.2422 205.836 81.9609C205.815 81.6797 205.805 81.4505 205.805 81.2734V77.8438H207.102V90H206.055L205.859 88.7812H205.805C205.643 89.0365 205.438 89.2682 205.188 89.4766C204.943 89.6849 204.648 89.8516 204.305 89.9766C203.966 90.0964 203.565 90.1562 203.102 90.1562ZM203.305 89.0781C204.221 89.0781 204.87 88.8177 205.25 88.2969C205.63 87.776 205.82 87.0026 205.82 85.9766V85.7422C205.82 84.6536 205.638 83.8177 205.273 83.2344C204.914 82.651 204.258 82.3594 203.305 82.3594C202.508 82.3594 201.911 82.6667 201.516 83.2812C201.12 83.8906 200.922 84.724 200.922 85.7812C200.922 86.8333 201.117 87.6458 201.508 88.2188C201.904 88.7917 202.503 89.0781 203.305 89.0781ZM213.148 81.2812C213.878 81.2812 214.503 81.4427 215.023 81.7656C215.544 82.0885 215.943 82.5417 216.219 83.125C216.495 83.7031 216.633 84.3802 216.633 85.1562V85.9609H210.719C210.734 86.9661 210.984 87.7318 211.469 88.2578C211.953 88.7839 212.635 89.0469 213.516 89.0469C214.057 89.0469 214.536 88.9974 214.953 88.8984C215.37 88.7995 215.802 88.6536 216.25 88.4609V89.6016C215.818 89.7943 215.388 89.9349 214.961 90.0234C214.539 90.112 214.039 90.1562 213.461 90.1562C212.638 90.1562 211.919 89.9896 211.305 89.6562C210.695 89.3177 210.221 88.8229 209.883 88.1719C209.544 87.5208 209.375 86.724 209.375 85.7812C209.375 84.8594 209.529 84.0625 209.836 83.3906C210.148 82.7135 210.586 82.1927 211.148 81.8281C211.716 81.4635 212.383 81.2812 213.148 81.2812ZM213.133 82.3438C212.44 82.3438 211.888 82.5703 211.477 83.0234C211.065 83.4766 210.82 84.1094 210.742 84.9219H215.273C215.268 84.4115 215.188 83.9635 215.031 83.5781C214.88 83.1875 214.648 82.8854 214.336 82.6719C214.023 82.4531 213.622 82.3438 213.133 82.3438ZM222.891 81.2812C223.906 81.2812 224.674 81.5312 225.195 82.0312C225.716 82.526 225.977 83.3229 225.977 84.4219V90H224.695V84.5078C224.695 83.7943 224.531 83.2604 224.203 82.9062C223.88 82.5521 223.383 82.375 222.711 82.375C221.763 82.375 221.096 82.6432 220.711 83.1797C220.326 83.7161 220.133 84.4948 220.133 85.5156V90H218.836V81.4375H219.883L220.078 82.6719H220.148C220.331 82.3698 220.562 82.1172 220.844 81.9141C221.125 81.7057 221.44 81.5495 221.789 81.4453C222.138 81.3359 222.505 81.2812 222.891 81.2812ZM231.414 89.0938C231.628 89.0938 231.846 89.0755 232.07 89.0391C232.294 89.0026 232.477 88.9583 232.617 88.9062V89.9141C232.466 89.9818 232.255 90.0391 231.984 90.0859C231.719 90.1328 231.458 90.1562 231.203 90.1562C230.75 90.1562 230.339 90.0781 229.969 89.9219C229.599 89.7604 229.302 89.4896 229.078 89.1094C228.859 88.7292 228.75 88.2031 228.75 87.5312V82.4531H227.531V81.8203L228.758 81.3125L229.273 79.4531H230.055V81.4375H232.562V82.4531H230.055V87.4922C230.055 88.0286 230.177 88.4297 230.422 88.6953C230.672 88.9609 231.003 89.0938 231.414 89.0938ZM235.648 81.4375V90H234.352V81.4375H235.648ZM235.016 78.2344C235.229 78.2344 235.411 78.3047 235.562 78.4453C235.719 78.5807 235.797 78.7943 235.797 79.0859C235.797 79.3724 235.719 79.5859 235.562 79.7266C235.411 79.8672 235.229 79.9375 235.016 79.9375C234.792 79.9375 234.604 79.8672 234.453 79.7266C234.307 79.5859 234.234 79.3724 234.234 79.0859C234.234 78.7943 234.307 78.5807 234.453 78.4453C234.604 78.3047 234.792 78.2344 235.016 78.2344ZM242.211 82.4531H240.078V90H238.781V82.4531H237.266V81.8281L238.781 81.3984V80.8281C238.781 80.1094 238.888 79.526 239.102 79.0781C239.315 78.625 239.625 78.2917 240.031 78.0781C240.438 77.8646 240.932 77.7578 241.516 77.7578C241.844 77.7578 242.143 77.7865 242.414 77.8438C242.69 77.901 242.932 77.9661 243.141 78.0391L242.805 79.0625C242.628 79.0052 242.427 78.9531 242.203 78.9062C241.984 78.8542 241.76 78.8281 241.531 78.8281C241.036 78.8281 240.669 78.9896 240.43 79.3125C240.195 79.6302 240.078 80.1302 240.078 80.8125V81.4375H242.211V82.4531ZM245.078 81.4375V90H243.781V81.4375H245.078ZM244.445 78.2344C244.659 78.2344 244.841 78.3047 244.992 78.4453C245.148 78.5807 245.227 78.7943 245.227 79.0859C245.227 79.3724 245.148 79.5859 244.992 79.7266C244.841 79.8672 244.659 79.9375 244.445 79.9375C244.221 79.9375 244.034 79.8672 243.883 79.7266C243.737 79.5859 243.664 79.3724 243.664 79.0859C243.664 78.7943 243.737 78.5807 243.883 78.4453C244.034 78.3047 244.221 78.2344 244.445 78.2344ZM251.25 90.1562C250.479 90.1562 249.799 89.9974 249.211 89.6797C248.622 89.362 248.164 88.8776 247.836 88.2266C247.508 87.5755 247.344 86.7552 247.344 85.7656C247.344 84.7292 247.516 83.8828 247.859 83.2266C248.208 82.5651 248.688 82.0755 249.297 81.7578C249.906 81.4401 250.599 81.2812 251.375 81.2812C251.802 81.2812 252.214 81.3255 252.609 81.4141C253.01 81.4974 253.339 81.6042 253.594 81.7344L253.203 82.8203C252.943 82.7161 252.641 82.6224 252.297 82.5391C251.958 82.4557 251.641 82.4141 251.344 82.4141C250.75 82.4141 250.255 82.5417 249.859 82.7969C249.469 83.0521 249.174 83.4271 248.977 83.9219C248.784 84.4167 248.688 85.026 248.688 85.75C248.688 86.4427 248.781 87.0339 248.969 87.5234C249.161 88.013 249.445 88.388 249.82 88.6484C250.201 88.9036 250.674 89.0312 251.242 89.0312C251.695 89.0312 252.104 88.9844 252.469 88.8906C252.833 88.7917 253.164 88.6771 253.461 88.5469V89.7031C253.174 89.849 252.854 89.9609 252.5 90.0391C252.151 90.1172 251.734 90.1562 251.25 90.1562ZM258.695 81.2969C259.716 81.2969 260.474 81.526 260.969 81.9844C261.464 82.4427 261.711 83.1745 261.711 84.1797V90H260.766L260.516 88.7344H260.453C260.214 89.0469 259.964 89.3099 259.703 89.5234C259.443 89.7318 259.141 89.8906 258.797 90C258.458 90.1042 258.042 90.1562 257.547 90.1562C257.026 90.1562 256.562 90.0651 256.156 89.8828C255.755 89.7005 255.438 89.4245 255.203 89.0547C254.974 88.6849 254.859 88.2161 254.859 87.6484C254.859 86.7943 255.198 86.138 255.875 85.6797C256.552 85.2214 257.583 84.9714 258.969 84.9297L260.445 84.8672V84.3438C260.445 83.6042 260.286 83.0859 259.969 82.7891C259.651 82.4922 259.203 82.3438 258.625 82.3438C258.177 82.3438 257.75 82.4089 257.344 82.5391C256.938 82.6693 256.552 82.8229 256.188 83L255.789 82.0156C256.174 81.8177 256.617 81.6484 257.117 81.5078C257.617 81.3672 258.143 81.2969 258.695 81.2969ZM260.43 85.7812L259.125 85.8359C258.057 85.8776 257.305 86.0521 256.867 86.3594C256.43 86.6667 256.211 87.1016 256.211 87.6641C256.211 88.1536 256.359 88.5156 256.656 88.75C256.953 88.9844 257.346 89.1016 257.836 89.1016C258.596 89.1016 259.219 88.8906 259.703 88.4688C260.188 88.0469 260.43 87.4141 260.43 86.5703V85.7812ZM268.273 81.2812C268.445 81.2812 268.625 81.2917 268.812 81.3125C269 81.3281 269.167 81.3516 269.312 81.3828L269.148 82.5859C269.008 82.5495 268.852 82.5208 268.68 82.5C268.508 82.4792 268.346 82.4688 268.195 82.4688C267.852 82.4688 267.526 82.5391 267.219 82.6797C266.917 82.8151 266.651 83.013 266.422 83.2734C266.193 83.5286 266.013 83.8385 265.883 84.2031C265.753 84.5625 265.688 84.9635 265.688 85.4062V90H264.383V81.4375H265.461L265.602 83.0156H265.656C265.833 82.6979 266.047 82.4089 266.297 82.1484C266.547 81.8828 266.836 81.6719 267.164 81.5156C267.497 81.3594 267.867 81.2812 268.273 81.2812ZM277.852 89.0938C278.065 89.0938 278.284 89.0755 278.508 89.0391C278.732 89.0026 278.914 88.9583 279.055 88.9062V89.9141C278.904 89.9818 278.693 90.0391 278.422 90.0859C278.156 90.1328 277.896 90.1562 277.641 90.1562C277.188 90.1562 276.776 90.0781 276.406 89.9219C276.036 89.7604 275.74 89.4896 275.516 89.1094C275.297 88.7292 275.188 88.2031 275.188 87.5312V82.4531H273.969V81.8203L275.195 81.3125L275.711 79.4531H276.492V81.4375H279V82.4531H276.492V87.4922C276.492 88.0286 276.615 88.4297 276.859 88.6953C277.109 88.9609 277.44 89.0938 277.852 89.0938ZM287.859 81.4375V90H286.797L286.609 88.7969H286.539C286.362 89.0938 286.133 89.3438 285.852 89.5469C285.57 89.75 285.253 89.901 284.898 90C284.549 90.1042 284.177 90.1562 283.781 90.1562C283.104 90.1562 282.536 90.0469 282.078 89.8281C281.62 89.6094 281.273 89.2708 281.039 88.8125C280.81 88.3542 280.695 87.7656 280.695 87.0469V81.4375H282.008V86.9531C282.008 87.6667 282.169 88.2005 282.492 88.5547C282.815 88.9036 283.307 89.0781 283.969 89.0781C284.604 89.0781 285.109 88.9583 285.484 88.7188C285.865 88.4792 286.138 88.1276 286.305 87.6641C286.471 87.1953 286.555 86.6224 286.555 85.9453V81.4375H287.859ZM36.5703 105.297C37.5911 105.297 38.349 105.526 38.8438 105.984C39.3385 106.443 39.5859 107.174 39.5859 108.18V114H38.6406L38.3906 112.734H38.3281C38.0885 113.047 37.8385 113.31 37.5781 113.523C37.3177 113.732 37.0156 113.891 36.6719 114C36.3333 114.104 35.9167 114.156 35.4219 114.156C34.901 114.156 34.4375 114.065 34.0312 113.883C33.6302 113.701 33.3125 113.424 33.0781 113.055C32.849 112.685 32.7344 112.216 32.7344 111.648C32.7344 110.794 33.0729 110.138 33.75 109.68C34.4271 109.221 35.4583 108.971 36.8438 108.93L38.3203 108.867V108.344C38.3203 107.604 38.1615 107.086 37.8438 106.789C37.526 106.492 37.0781 106.344 36.5 106.344C36.0521 106.344 35.625 106.409 35.2188 106.539C34.8125 106.669 34.4271 106.823 34.0625 107L33.6641 106.016C34.0495 105.818 34.4922 105.648 34.9922 105.508C35.4922 105.367 36.0182 105.297 36.5703 105.297ZM38.3047 109.781L37 109.836C35.9323 109.878 35.1797 110.052 34.7422 110.359C34.3047 110.667 34.0859 111.102 34.0859 111.664C34.0859 112.154 34.2344 112.516 34.5312 112.75C34.8281 112.984 35.2214 113.102 35.7109 113.102C36.4714 113.102 37.0938 112.891 37.5781 112.469C38.0625 112.047 38.3047 111.414 38.3047 110.57V109.781ZM49.3281 105.438V114H48.2656L48.0781 112.797H48.0078C47.8307 113.094 47.6016 113.344 47.3203 113.547C47.0391 113.75 46.7214 113.901 46.3672 114C46.0182 114.104 45.6458 114.156 45.25 114.156C44.5729 114.156 44.0052 114.047 43.5469 113.828C43.0885 113.609 42.7422 113.271 42.5078 112.812C42.2786 112.354 42.1641 111.766 42.1641 111.047V105.438H43.4766V110.953C43.4766 111.667 43.638 112.201 43.9609 112.555C44.2839 112.904 44.776 113.078 45.4375 113.078C46.0729 113.078 46.5781 112.958 46.9531 112.719C47.3333 112.479 47.6068 112.128 47.7734 111.664C47.9401 111.195 48.0234 110.622 48.0234 109.945V105.438H49.3281ZM55.1172 114.156C54.0339 114.156 53.1745 113.786 52.5391 113.047C51.9089 112.307 51.5938 111.208 51.5938 109.75C51.5938 108.276 51.9167 107.164 52.5625 106.414C53.2083 105.659 54.0677 105.281 55.1406 105.281C55.5938 105.281 55.9896 105.341 56.3281 105.461C56.6667 105.581 56.9583 105.742 57.2031 105.945C57.4479 106.143 57.6536 106.37 57.8203 106.625H57.9141C57.8932 106.464 57.8724 106.242 57.8516 105.961C57.8307 105.68 57.8203 105.451 57.8203 105.273V101.844H59.1172V114H58.0703L57.875 112.781H57.8203C57.6589 113.036 57.4531 113.268 57.2031 113.477C56.9583 113.685 56.6641 113.852 56.3203 113.977C55.9818 114.096 55.5807 114.156 55.1172 114.156ZM55.3203 113.078C56.237 113.078 56.8854 112.818 57.2656 112.297C57.6458 111.776 57.8359 111.003 57.8359 109.977V109.742C57.8359 108.654 57.6536 107.818 57.2891 107.234C56.9297 106.651 56.2734 106.359 55.3203 106.359C54.5234 106.359 53.9271 106.667 53.5312 107.281C53.1354 107.891 52.9375 108.724 52.9375 109.781C52.9375 110.833 53.1328 111.646 53.5234 112.219C53.9193 112.792 54.5182 113.078 55.3203 113.078ZM63.1641 105.438V114H61.8672V105.438H63.1641ZM62.5312 102.234C62.7448 102.234 62.9271 102.305 63.0781 102.445C63.2344 102.581 63.3125 102.794 63.3125 103.086C63.3125 103.372 63.2344 103.586 63.0781 103.727C62.9271 103.867 62.7448 103.938 62.5312 103.938C62.3073 103.938 62.1198 103.867 61.9688 103.727C61.8229 103.586 61.75 103.372 61.75 103.086C61.75 102.794 61.8229 102.581 61.9688 102.445C62.1198 102.305 62.3073 102.234 62.5312 102.234ZM69.2109 105.281C69.9401 105.281 70.5651 105.443 71.0859 105.766C71.6068 106.089 72.0052 106.542 72.2812 107.125C72.5573 107.703 72.6953 108.38 72.6953 109.156V109.961H66.7812C66.7969 110.966 67.0469 111.732 67.5312 112.258C68.0156 112.784 68.6979 113.047 69.5781 113.047C70.1198 113.047 70.599 112.997 71.0156 112.898C71.4323 112.799 71.8646 112.654 72.3125 112.461V113.602C71.8802 113.794 71.4505 113.935 71.0234 114.023C70.6016 114.112 70.1016 114.156 69.5234 114.156C68.7005 114.156 67.9818 113.99 67.3672 113.656C66.7578 113.318 66.2839 112.823 65.9453 112.172C65.6068 111.521 65.4375 110.724 65.4375 109.781C65.4375 108.859 65.5911 108.062 65.8984 107.391C66.2109 106.714 66.6484 106.193 67.2109 105.828C67.7786 105.464 68.4453 105.281 69.2109 105.281ZM69.1953 106.344C68.5026 106.344 67.9505 106.57 67.5391 107.023C67.1276 107.477 66.8828 108.109 66.8047 108.922H71.3359C71.3307 108.411 71.25 107.964 71.0938 107.578C70.9427 107.188 70.7109 106.885 70.3984 106.672C70.0859 106.453 69.6849 106.344 69.1953 106.344ZM78.9531 105.281C79.9688 105.281 80.737 105.531 81.2578 106.031C81.7786 106.526 82.0391 107.323 82.0391 108.422V114H80.7578V108.508C80.7578 107.794 80.5938 107.26 80.2656 106.906C79.9427 106.552 79.4453 106.375 78.7734 106.375C77.8255 106.375 77.1589 106.643 76.7734 107.18C76.388 107.716 76.1953 108.495 76.1953 109.516V114H74.8984V105.438H75.9453L76.1406 106.672H76.2109C76.3932 106.37 76.625 106.117 76.9062 105.914C77.1875 105.706 77.5026 105.549 77.8516 105.445C78.2005 105.336 78.5677 105.281 78.9531 105.281ZM88.1406 114.156C87.3698 114.156 86.6901 113.997 86.1016 113.68C85.513 113.362 85.0547 112.878 84.7266 112.227C84.3984 111.576 84.2344 110.755 84.2344 109.766C84.2344 108.729 84.4062 107.883 84.75 107.227C85.099 106.565 85.5781 106.076 86.1875 105.758C86.7969 105.44 87.4896 105.281 88.2656 105.281C88.6927 105.281 89.1042 105.326 89.5 105.414C89.901 105.497 90.2292 105.604 90.4844 105.734L90.0938 106.82C89.8333 106.716 89.5312 106.622 89.1875 106.539C88.849 106.456 88.5312 106.414 88.2344 106.414C87.6406 106.414 87.1458 106.542 86.75 106.797C86.3594 107.052 86.0651 107.427 85.8672 107.922C85.6745 108.417 85.5781 109.026 85.5781 109.75C85.5781 110.443 85.6719 111.034 85.8594 111.523C86.0521 112.013 86.3359 112.388 86.7109 112.648C87.0911 112.904 87.5651 113.031 88.1328 113.031C88.5859 113.031 88.9948 112.984 89.3594 112.891C89.724 112.792 90.0547 112.677 90.3516 112.547V113.703C90.0651 113.849 89.7448 113.961 89.3906 114.039C89.0417 114.117 88.625 114.156 88.1406 114.156ZM93.6797 105.438V114H92.3828V105.438H93.6797ZM93.0469 102.234C93.2604 102.234 93.4427 102.305 93.5938 102.445C93.75 102.581 93.8281 102.794 93.8281 103.086C93.8281 103.372 93.75 103.586 93.5938 103.727C93.4427 103.867 93.2604 103.938 93.0469 103.938C92.8229 103.938 92.6354 103.867 92.4844 103.727C92.3385 103.586 92.2656 103.372 92.2656 103.086C92.2656 102.794 92.3385 102.581 92.4844 102.445C92.6354 102.305 92.8229 102.234 93.0469 102.234ZM99.6328 105.297C100.654 105.297 101.411 105.526 101.906 105.984C102.401 106.443 102.648 107.174 102.648 108.18V114H101.703L101.453 112.734H101.391C101.151 113.047 100.901 113.31 100.641 113.523C100.38 113.732 100.078 113.891 99.7344 114C99.3958 114.104 98.9792 114.156 98.4844 114.156C97.9635 114.156 97.5 114.065 97.0938 113.883C96.6927 113.701 96.375 113.424 96.1406 113.055C95.9115 112.685 95.7969 112.216 95.7969 111.648C95.7969 110.794 96.1354 110.138 96.8125 109.68C97.4896 109.221 98.5208 108.971 99.9062 108.93L101.383 108.867V108.344C101.383 107.604 101.224 107.086 100.906 106.789C100.589 106.492 100.141 106.344 99.5625 106.344C99.1146 106.344 98.6875 106.409 98.2812 106.539C97.875 106.669 97.4896 106.823 97.125 107L96.7266 106.016C97.112 105.818 97.5547 105.648 98.0547 105.508C98.5547 105.367 99.0807 105.297 99.6328 105.297ZM101.367 109.781L100.062 109.836C98.9948 109.878 98.2422 110.052 97.8047 110.359C97.3672 110.667 97.1484 111.102 97.1484 111.664C97.1484 112.154 97.2969 112.516 97.5938 112.75C97.8906 112.984 98.2839 113.102 98.7734 113.102C99.5339 113.102 100.156 112.891 100.641 112.469C101.125 112.047 101.367 111.414 101.367 110.57V109.781ZM157.43 130.453H155.297V138H154V130.453H152.484V129.828L154 129.398V128.828C154 128.109 154.107 127.526 154.32 127.078C154.534 126.625 154.844 126.292 155.25 126.078C155.656 125.865 156.151 125.758 156.734 125.758C157.062 125.758 157.362 125.786 157.633 125.844C157.909 125.901 158.151 125.966 158.359 126.039L158.023 127.062C157.846 127.005 157.646 126.953 157.422 126.906C157.203 126.854 156.979 126.828 156.75 126.828C156.255 126.828 155.888 126.99 155.648 127.312C155.414 127.63 155.297 128.13 155.297 128.812V129.438H157.43V130.453ZM160.305 138H159V125.844H160.305V138ZM170.109 129.438V138H169.047L168.859 136.797H168.789C168.612 137.094 168.383 137.344 168.102 137.547C167.82 137.75 167.503 137.901 167.148 138C166.799 138.104 166.427 138.156 166.031 138.156C165.354 138.156 164.786 138.047 164.328 137.828C163.87 137.609 163.523 137.271 163.289 136.812C163.06 136.354 162.945 135.766 162.945 135.047V129.438H164.258V134.953C164.258 135.667 164.419 136.201 164.742 136.555C165.065 136.904 165.557 137.078 166.219 137.078C166.854 137.078 167.359 136.958 167.734 136.719C168.115 136.479 168.388 136.128 168.555 135.664C168.721 135.195 168.805 134.622 168.805 133.945V129.438H170.109ZM171.82 141.844C171.555 141.844 171.323 141.823 171.125 141.781C170.927 141.745 170.755 141.701 170.609 141.648V140.594C170.771 140.646 170.935 140.685 171.102 140.711C171.268 140.742 171.456 140.758 171.664 140.758C172.018 140.758 172.305 140.659 172.523 140.461C172.742 140.263 172.852 139.904 172.852 139.383V129.438H174.148V139.352C174.148 139.872 174.065 140.318 173.898 140.688C173.732 141.062 173.477 141.349 173.133 141.547C172.789 141.745 172.352 141.844 171.82 141.844ZM172.734 127.086C172.734 126.794 172.807 126.581 172.953 126.445C173.104 126.305 173.292 126.234 173.516 126.234C173.729 126.234 173.911 126.305 174.062 126.445C174.219 126.581 174.297 126.794 174.297 127.086C174.297 127.372 174.219 127.586 174.062 127.727C173.911 127.867 173.729 127.938 173.516 127.938C173.292 127.938 173.104 127.867 172.953 127.727C172.807 127.586 172.734 127.372 172.734 127.086ZM184.281 133.703C184.281 134.406 184.19 135.034 184.008 135.586C183.826 136.138 183.562 136.604 183.219 136.984C182.875 137.365 182.458 137.656 181.969 137.859C181.484 138.057 180.935 138.156 180.32 138.156C179.747 138.156 179.221 138.057 178.742 137.859C178.268 137.656 177.857 137.365 177.508 136.984C177.164 136.604 176.896 136.138 176.703 135.586C176.516 135.034 176.422 134.406 176.422 133.703C176.422 132.766 176.581 131.969 176.898 131.312C177.216 130.651 177.669 130.148 178.258 129.805C178.852 129.456 179.557 129.281 180.375 129.281C181.156 129.281 181.839 129.456 182.422 129.805C183.01 130.154 183.466 130.659 183.789 131.32C184.117 131.977 184.281 132.771 184.281 133.703ZM177.766 133.703C177.766 134.391 177.857 134.987 178.039 135.492C178.221 135.997 178.503 136.388 178.883 136.664C179.263 136.94 179.753 137.078 180.352 137.078C180.945 137.078 181.432 136.94 181.812 136.664C182.198 136.388 182.482 135.997 182.664 135.492C182.846 134.987 182.938 134.391 182.938 133.703C182.938 133.021 182.846 132.432 182.664 131.938C182.482 131.438 182.201 131.052 181.82 130.781C181.44 130.51 180.948 130.375 180.344 130.375C179.453 130.375 178.799 130.669 178.383 131.258C177.971 131.846 177.766 132.661 177.766 133.703ZM192.062 135.656C192.062 136.203 191.924 136.664 191.648 137.039C191.378 137.409 190.987 137.688 190.477 137.875C189.971 138.062 189.367 138.156 188.664 138.156C188.065 138.156 187.547 138.109 187.109 138.016C186.672 137.922 186.289 137.789 185.961 137.617V136.422C186.31 136.594 186.727 136.75 187.211 136.891C187.695 137.031 188.19 137.102 188.695 137.102C189.435 137.102 189.971 136.982 190.305 136.742C190.638 136.503 190.805 136.177 190.805 135.766C190.805 135.531 190.737 135.326 190.602 135.148C190.471 134.966 190.25 134.792 189.938 134.625C189.625 134.453 189.193 134.266 188.641 134.062C188.094 133.854 187.62 133.648 187.219 133.445C186.823 133.237 186.516 132.984 186.297 132.688C186.083 132.391 185.977 132.005 185.977 131.531C185.977 130.807 186.268 130.253 186.852 129.867C187.44 129.477 188.211 129.281 189.164 129.281C189.68 129.281 190.161 129.333 190.609 129.438C191.062 129.536 191.484 129.672 191.875 129.844L191.438 130.883C191.083 130.732 190.706 130.604 190.305 130.5C189.904 130.396 189.495 130.344 189.078 130.344C188.479 130.344 188.018 130.443 187.695 130.641C187.378 130.839 187.219 131.109 187.219 131.453C187.219 131.719 187.292 131.938 187.438 132.109C187.589 132.281 187.828 132.443 188.156 132.594C188.484 132.745 188.917 132.922 189.453 133.125C189.99 133.323 190.453 133.529 190.844 133.742C191.234 133.951 191.534 134.206 191.742 134.508C191.956 134.805 192.062 135.188 192.062 135.656ZM201.352 138.156C200.268 138.156 199.409 137.786 198.773 137.047C198.143 136.307 197.828 135.208 197.828 133.75C197.828 132.276 198.151 131.164 198.797 130.414C199.443 129.659 200.302 129.281 201.375 129.281C201.828 129.281 202.224 129.341 202.562 129.461C202.901 129.581 203.193 129.742 203.438 129.945C203.682 130.143 203.888 130.37 204.055 130.625H204.148C204.128 130.464 204.107 130.242 204.086 129.961C204.065 129.68 204.055 129.451 204.055 129.273V125.844H205.352V138H204.305L204.109 136.781H204.055C203.893 137.036 203.688 137.268 203.438 137.477C203.193 137.685 202.898 137.852 202.555 137.977C202.216 138.096 201.815 138.156 201.352 138.156ZM201.555 137.078C202.471 137.078 203.12 136.818 203.5 136.297C203.88 135.776 204.07 135.003 204.07 133.977V133.742C204.07 132.654 203.888 131.818 203.523 131.234C203.164 130.651 202.508 130.359 201.555 130.359C200.758 130.359 200.161 130.667 199.766 131.281C199.37 131.891 199.172 132.724 199.172 133.781C199.172 134.833 199.367 135.646 199.758 136.219C200.154 136.792 200.753 137.078 201.555 137.078ZM211.398 129.281C212.128 129.281 212.753 129.443 213.273 129.766C213.794 130.089 214.193 130.542 214.469 131.125C214.745 131.703 214.883 132.38 214.883 133.156V133.961H208.969C208.984 134.966 209.234 135.732 209.719 136.258C210.203 136.784 210.885 137.047 211.766 137.047C212.307 137.047 212.786 136.997 213.203 136.898C213.62 136.799 214.052 136.654 214.5 136.461V137.602C214.068 137.794 213.638 137.935 213.211 138.023C212.789 138.112 212.289 138.156 211.711 138.156C210.888 138.156 210.169 137.99 209.555 137.656C208.945 137.318 208.471 136.823 208.133 136.172C207.794 135.521 207.625 134.724 207.625 133.781C207.625 132.859 207.779 132.062 208.086 131.391C208.398 130.714 208.836 130.193 209.398 129.828C209.966 129.464 210.633 129.281 211.398 129.281ZM211.383 130.344C210.69 130.344 210.138 130.57 209.727 131.023C209.315 131.477 209.07 132.109 208.992 132.922H213.523C213.518 132.411 213.438 131.964 213.281 131.578C213.13 131.188 212.898 130.885 212.586 130.672C212.273 130.453 211.872 130.344 211.383 130.344ZM224.008 137.094C224.221 137.094 224.44 137.076 224.664 137.039C224.888 137.003 225.07 136.958 225.211 136.906V137.914C225.06 137.982 224.849 138.039 224.578 138.086C224.312 138.133 224.052 138.156 223.797 138.156C223.344 138.156 222.932 138.078 222.562 137.922C222.193 137.76 221.896 137.49 221.672 137.109C221.453 136.729 221.344 136.203 221.344 135.531V130.453H220.125V129.82L221.352 129.312L221.867 127.453H222.648V129.438H225.156V130.453H222.648V135.492C222.648 136.029 222.771 136.43 223.016 136.695C223.266 136.961 223.596 137.094 224.008 137.094ZM230.836 129.281C231.008 129.281 231.188 129.292 231.375 129.312C231.562 129.328 231.729 129.352 231.875 129.383L231.711 130.586C231.57 130.549 231.414 130.521 231.242 130.5C231.07 130.479 230.909 130.469 230.758 130.469C230.414 130.469 230.089 130.539 229.781 130.68C229.479 130.815 229.214 131.013 228.984 131.273C228.755 131.529 228.576 131.839 228.445 132.203C228.315 132.562 228.25 132.964 228.25 133.406V138H226.945V129.438H228.023L228.164 131.016H228.219C228.396 130.698 228.609 130.409 228.859 130.148C229.109 129.883 229.398 129.672 229.727 129.516C230.06 129.359 230.43 129.281 230.836 129.281ZM236.695 129.297C237.716 129.297 238.474 129.526 238.969 129.984C239.464 130.443 239.711 131.174 239.711 132.18V138H238.766L238.516 136.734H238.453C238.214 137.047 237.964 137.31 237.703 137.523C237.443 137.732 237.141 137.891 236.797 138C236.458 138.104 236.042 138.156 235.547 138.156C235.026 138.156 234.562 138.065 234.156 137.883C233.755 137.701 233.438 137.424 233.203 137.055C232.974 136.685 232.859 136.216 232.859 135.648C232.859 134.794 233.198 134.138 233.875 133.68C234.552 133.221 235.583 132.971 236.969 132.93L238.445 132.867V132.344C238.445 131.604 238.286 131.086 237.969 130.789C237.651 130.492 237.203 130.344 236.625 130.344C236.177 130.344 235.75 130.409 235.344 130.539C234.938 130.669 234.552 130.823 234.188 131L233.789 130.016C234.174 129.818 234.617 129.648 235.117 129.508C235.617 129.367 236.143 129.297 236.695 129.297ZM238.43 133.781L237.125 133.836C236.057 133.878 235.305 134.052 234.867 134.359C234.43 134.667 234.211 135.102 234.211 135.664C234.211 136.154 234.359 136.516 234.656 136.75C234.953 136.984 235.346 137.102 235.836 137.102C236.596 137.102 237.219 136.891 237.703 136.469C238.188 136.047 238.43 135.414 238.43 134.57V133.781ZM243.68 125.844V128.883C243.68 129.232 243.669 129.57 243.648 129.898C243.633 130.227 243.62 130.482 243.609 130.664H243.68C243.914 130.279 244.253 129.953 244.695 129.688C245.138 129.422 245.703 129.289 246.391 129.289C247.464 129.289 248.318 129.661 248.953 130.406C249.594 131.146 249.914 132.247 249.914 133.711C249.914 134.674 249.768 135.487 249.477 136.148C249.185 136.81 248.773 137.31 248.242 137.648C247.711 137.987 247.083 138.156 246.359 138.156C245.682 138.156 245.125 138.031 244.688 137.781C244.255 137.526 243.922 137.216 243.688 136.852H243.586L243.32 138H242.383V125.844H243.68ZM246.18 130.375C245.56 130.375 245.068 130.497 244.703 130.742C244.339 130.982 244.076 131.346 243.914 131.836C243.758 132.32 243.68 132.935 243.68 133.68V133.75C243.68 134.828 243.859 135.654 244.219 136.227C244.578 136.794 245.232 137.078 246.18 137.078C246.977 137.078 247.573 136.786 247.969 136.203C248.37 135.62 248.57 134.786 248.57 133.703C248.57 132.599 248.372 131.768 247.977 131.211C247.586 130.654 246.987 130.375 246.18 130.375ZM255.383 129.297C256.404 129.297 257.161 129.526 257.656 129.984C258.151 130.443 258.398 131.174 258.398 132.18V138H257.453L257.203 136.734H257.141C256.901 137.047 256.651 137.31 256.391 137.523C256.13 137.732 255.828 137.891 255.484 138C255.146 138.104 254.729 138.156 254.234 138.156C253.714 138.156 253.25 138.065 252.844 137.883C252.443 137.701 252.125 137.424 251.891 137.055C251.661 136.685 251.547 136.216 251.547 135.648C251.547 134.794 251.885 134.138 252.562 133.68C253.24 133.221 254.271 132.971 255.656 132.93L257.133 132.867V132.344C257.133 131.604 256.974 131.086 256.656 130.789C256.339 130.492 255.891 130.344 255.312 130.344C254.865 130.344 254.438 130.409 254.031 130.539C253.625 130.669 253.24 130.823 252.875 131L252.477 130.016C252.862 129.818 253.305 129.648 253.805 129.508C254.305 129.367 254.831 129.297 255.383 129.297ZM257.117 133.781L255.812 133.836C254.745 133.878 253.992 134.052 253.555 134.359C253.117 134.667 252.898 135.102 252.898 135.664C252.898 136.154 253.047 136.516 253.344 136.75C253.641 136.984 254.034 137.102 254.523 137.102C255.284 137.102 255.906 136.891 256.391 136.469C256.875 136.047 257.117 135.414 257.117 134.57V133.781ZM260.039 141.844C259.773 141.844 259.542 141.823 259.344 141.781C259.146 141.745 258.974 141.701 258.828 141.648V140.594C258.99 140.646 259.154 140.685 259.32 140.711C259.487 140.742 259.674 140.758 259.883 140.758C260.237 140.758 260.523 140.659 260.742 140.461C260.961 140.263 261.07 139.904 261.07 139.383V129.438H262.367V139.352C262.367 139.872 262.284 140.318 262.117 140.688C261.951 141.062 261.695 141.349 261.352 141.547C261.008 141.745 260.57 141.844 260.039 141.844ZM260.953 127.086C260.953 126.794 261.026 126.581 261.172 126.445C261.323 126.305 261.51 126.234 261.734 126.234C261.948 126.234 262.13 126.305 262.281 126.445C262.438 126.581 262.516 126.794 262.516 127.086C262.516 127.372 262.438 127.586 262.281 127.727C262.13 127.867 261.948 127.938 261.734 127.938C261.51 127.938 261.323 127.867 261.172 127.727C261.026 127.586 260.953 127.372 260.953 127.086ZM272.5 133.703C272.5 134.406 272.409 135.034 272.227 135.586C272.044 136.138 271.781 136.604 271.438 136.984C271.094 137.365 270.677 137.656 270.188 137.859C269.703 138.057 269.154 138.156 268.539 138.156C267.966 138.156 267.44 138.057 266.961 137.859C266.487 137.656 266.076 137.365 265.727 136.984C265.383 136.604 265.115 136.138 264.922 135.586C264.734 135.034 264.641 134.406 264.641 133.703C264.641 132.766 264.799 131.969 265.117 131.312C265.435 130.651 265.888 130.148 266.477 129.805C267.07 129.456 267.776 129.281 268.594 129.281C269.375 129.281 270.057 129.456 270.641 129.805C271.229 130.154 271.685 130.659 272.008 131.32C272.336 131.977 272.5 132.771 272.5 133.703ZM265.984 133.703C265.984 134.391 266.076 134.987 266.258 135.492C266.44 135.997 266.721 136.388 267.102 136.664C267.482 136.94 267.971 137.078 268.57 137.078C269.164 137.078 269.651 136.94 270.031 136.664C270.417 136.388 270.701 135.997 270.883 135.492C271.065 134.987 271.156 134.391 271.156 133.703C271.156 133.021 271.065 132.432 270.883 131.938C270.701 131.438 270.419 131.052 270.039 130.781C269.659 130.51 269.167 130.375 268.562 130.375C267.672 130.375 267.018 130.669 266.602 131.258C266.19 131.846 265.984 132.661 265.984 133.703ZM36.5703 153.297C37.5911 153.297 38.349 153.526 38.8438 153.984C39.3385 154.443 39.5859 155.174 39.5859 156.18V162H38.6406L38.3906 160.734H38.3281C38.0885 161.047 37.8385 161.31 37.5781 161.523C37.3177 161.732 37.0156 161.891 36.6719 162C36.3333 162.104 35.9167 162.156 35.4219 162.156C34.901 162.156 34.4375 162.065 34.0312 161.883C33.6302 161.701 33.3125 161.424 33.0781 161.055C32.849 160.685 32.7344 160.216 32.7344 159.648C32.7344 158.794 33.0729 158.138 33.75 157.68C34.4271 157.221 35.4583 156.971 36.8438 156.93L38.3203 156.867V156.344C38.3203 155.604 38.1615 155.086 37.8438 154.789C37.526 154.492 37.0781 154.344 36.5 154.344C36.0521 154.344 35.625 154.409 35.2188 154.539C34.8125 154.669 34.4271 154.823 34.0625 155L33.6641 154.016C34.0495 153.818 34.4922 153.648 34.9922 153.508C35.4922 153.367 36.0182 153.297 36.5703 153.297ZM38.3047 157.781L37 157.836C35.9323 157.878 35.1797 158.052 34.7422 158.359C34.3047 158.667 34.0859 159.102 34.0859 159.664C34.0859 160.154 34.2344 160.516 34.5312 160.75C34.8281 160.984 35.2214 161.102 35.7109 161.102C36.4714 161.102 37.0938 160.891 37.5781 160.469C38.0625 160.047 38.3047 159.414 38.3047 158.57V157.781ZM44.1406 162L40.8906 153.438H42.2812L44.1641 158.617C44.2943 158.971 44.4271 159.362 44.5625 159.789C44.6979 160.216 44.7917 160.56 44.8438 160.82H44.8984C44.9609 160.56 45.0651 160.216 45.2109 159.789C45.3568 159.357 45.4896 158.966 45.6094 158.617L47.4922 153.438H48.8828L45.625 162H44.1406ZM53.4609 153.297C54.4818 153.297 55.2396 153.526 55.7344 153.984C56.2292 154.443 56.4766 155.174 56.4766 156.18V162H55.5312L55.2812 160.734H55.2188C54.9792 161.047 54.7292 161.31 54.4688 161.523C54.2083 161.732 53.9062 161.891 53.5625 162C53.224 162.104 52.8073 162.156 52.3125 162.156C51.7917 162.156 51.3281 162.065 50.9219 161.883C50.5208 161.701 50.2031 161.424 49.9688 161.055C49.7396 160.685 49.625 160.216 49.625 159.648C49.625 158.794 49.9635 158.138 50.6406 157.68C51.3177 157.221 52.349 156.971 53.7344 156.93L55.2109 156.867V156.344C55.2109 155.604 55.0521 155.086 54.7344 154.789C54.4167 154.492 53.9688 154.344 53.3906 154.344C52.9427 154.344 52.5156 154.409 52.1094 154.539C51.7031 154.669 51.3177 154.823 50.9531 155L50.5547 154.016C50.9401 153.818 51.3828 153.648 51.8828 153.508C52.3828 153.367 52.9089 153.297 53.4609 153.297ZM55.1953 157.781L53.8906 157.836C52.8229 157.878 52.0703 158.052 51.6328 158.359C51.1953 158.667 50.9766 159.102 50.9766 159.664C50.9766 160.154 51.125 160.516 51.4219 160.75C51.7188 160.984 52.112 161.102 52.6016 161.102C53.362 161.102 53.9844 160.891 54.4688 160.469C54.9531 160.047 55.1953 159.414 55.1953 158.57V157.781ZM63.2031 153.281C64.2188 153.281 64.987 153.531 65.5078 154.031C66.0286 154.526 66.2891 155.323 66.2891 156.422V162H65.0078V156.508C65.0078 155.794 64.8438 155.26 64.5156 154.906C64.1927 154.552 63.6953 154.375 63.0234 154.375C62.0755 154.375 61.4089 154.643 61.0234 155.18C60.638 155.716 60.4453 156.495 60.4453 157.516V162H59.1484V153.438H60.1953L60.3906 154.672H60.4609C60.6432 154.37 60.875 154.117 61.1562 153.914C61.4375 153.706 61.7526 153.549 62.1016 153.445C62.4505 153.336 62.8177 153.281 63.2031 153.281ZM74.4609 162H68.2188V161.141L72.9141 154.453H68.5156V153.438H74.3594V154.398L69.7266 160.992H74.4609V162ZM79.6641 153.297C80.6849 153.297 81.4427 153.526 81.9375 153.984C82.4323 154.443 82.6797 155.174 82.6797 156.18V162H81.7344L81.4844 160.734H81.4219C81.1823 161.047 80.9323 161.31 80.6719 161.523C80.4115 161.732 80.1094 161.891 79.7656 162C79.4271 162.104 79.0104 162.156 78.5156 162.156C77.9948 162.156 77.5312 162.065 77.125 161.883C76.724 161.701 76.4062 161.424 76.1719 161.055C75.9427 160.685 75.8281 160.216 75.8281 159.648C75.8281 158.794 76.1667 158.138 76.8438 157.68C77.5208 157.221 78.5521 156.971 79.9375 156.93L81.4141 156.867V156.344C81.4141 155.604 81.2552 155.086 80.9375 154.789C80.6198 154.492 80.1719 154.344 79.5938 154.344C79.1458 154.344 78.7188 154.409 78.3125 154.539C77.9062 154.669 77.5208 154.823 77.1562 155L76.7578 154.016C77.1432 153.818 77.5859 153.648 78.0859 153.508C78.5859 153.367 79.112 153.297 79.6641 153.297ZM81.3984 157.781L80.0938 157.836C79.026 157.878 78.2734 158.052 77.8359 158.359C77.3984 158.667 77.1797 159.102 77.1797 159.664C77.1797 160.154 77.3281 160.516 77.625 160.75C77.9219 160.984 78.3151 161.102 78.8047 161.102C79.5651 161.102 80.1875 160.891 80.6719 160.469C81.1562 160.047 81.3984 159.414 81.3984 158.57V157.781ZM88.3984 162.156C87.3151 162.156 86.4557 161.786 85.8203 161.047C85.1901 160.307 84.875 159.208 84.875 157.75C84.875 156.276 85.1979 155.164 85.8438 154.414C86.4896 153.659 87.349 153.281 88.4219 153.281C88.875 153.281 89.2708 153.341 89.6094 153.461C89.9479 153.581 90.2396 153.742 90.4844 153.945C90.7292 154.143 90.9349 154.37 91.1016 154.625H91.1953C91.1745 154.464 91.1536 154.242 91.1328 153.961C91.112 153.68 91.1016 153.451 91.1016 153.273V149.844H92.3984V162H91.3516L91.1562 160.781H91.1016C90.9401 161.036 90.7344 161.268 90.4844 161.477C90.2396 161.685 89.9453 161.852 89.6016 161.977C89.263 162.096 88.862 162.156 88.3984 162.156ZM88.6016 161.078C89.5182 161.078 90.1667 160.818 90.5469 160.297C90.9271 159.776 91.1172 159.003 91.1172 157.977V157.742C91.1172 156.654 90.9349 155.818 90.5703 155.234C90.2109 154.651 89.5547 154.359 88.6016 154.359C87.8047 154.359 87.2083 154.667 86.8125 155.281C86.4167 155.891 86.2188 156.724 86.2188 157.781C86.2188 158.833 86.4141 159.646 86.8047 160.219C87.2005 160.792 87.7995 161.078 88.6016 161.078ZM102.531 157.703C102.531 158.406 102.44 159.034 102.258 159.586C102.076 160.138 101.812 160.604 101.469 160.984C101.125 161.365 100.708 161.656 100.219 161.859C99.7344 162.057 99.1849 162.156 98.5703 162.156C97.9974 162.156 97.4714 162.057 96.9922 161.859C96.5182 161.656 96.1068 161.365 95.7578 160.984C95.4141 160.604 95.1458 160.138 94.9531 159.586C94.7656 159.034 94.6719 158.406 94.6719 157.703C94.6719 156.766 94.8307 155.969 95.1484 155.312C95.4661 154.651 95.9193 154.148 96.5078 153.805C97.1016 153.456 97.8073 153.281 98.625 153.281C99.4062 153.281 100.089 153.456 100.672 153.805C101.26 154.154 101.716 154.659 102.039 155.32C102.367 155.977 102.531 156.771 102.531 157.703ZM96.0156 157.703C96.0156 158.391 96.1068 158.987 96.2891 159.492C96.4714 159.997 96.7526 160.388 97.1328 160.664C97.513 160.94 98.0026 161.078 98.6016 161.078C99.1953 161.078 99.6823 160.94 100.062 160.664C100.448 160.388 100.732 159.997 100.914 159.492C101.096 158.987 101.188 158.391 101.188 157.703C101.188 157.021 101.096 156.432 100.914 155.938C100.732 155.438 100.451 155.052 100.07 154.781C99.6901 154.51 99.1979 154.375 98.5938 154.375C97.7031 154.375 97.0495 154.669 96.6328 155.258C96.2214 155.846 96.0156 156.661 96.0156 157.703ZM110.312 159.656C110.312 160.203 110.174 160.664 109.898 161.039C109.628 161.409 109.237 161.688 108.727 161.875C108.221 162.062 107.617 162.156 106.914 162.156C106.315 162.156 105.797 162.109 105.359 162.016C104.922 161.922 104.539 161.789 104.211 161.617V160.422C104.56 160.594 104.977 160.75 105.461 160.891C105.945 161.031 106.44 161.102 106.945 161.102C107.685 161.102 108.221 160.982 108.555 160.742C108.888 160.503 109.055 160.177 109.055 159.766C109.055 159.531 108.987 159.326 108.852 159.148C108.721 158.966 108.5 158.792 108.188 158.625C107.875 158.453 107.443 158.266 106.891 158.062C106.344 157.854 105.87 157.648 105.469 157.445C105.073 157.237 104.766 156.984 104.547 156.688C104.333 156.391 104.227 156.005 104.227 155.531C104.227 154.807 104.518 154.253 105.102 153.867C105.69 153.477 106.461 153.281 107.414 153.281C107.93 153.281 108.411 153.333 108.859 153.438C109.312 153.536 109.734 153.672 110.125 153.844L109.688 154.883C109.333 154.732 108.956 154.604 108.555 154.5C108.154 154.396 107.745 154.344 107.328 154.344C106.729 154.344 106.268 154.443 105.945 154.641C105.628 154.839 105.469 155.109 105.469 155.453C105.469 155.719 105.542 155.938 105.688 156.109C105.839 156.281 106.078 156.443 106.406 156.594C106.734 156.745 107.167 156.922 107.703 157.125C108.24 157.323 108.703 157.529 109.094 157.742C109.484 157.951 109.784 158.206 109.992 158.508C110.206 158.805 110.312 159.188 110.312 159.656Z" fill="#336ACC"/>
<path d="M97.8281 92.52H289.234V94.52H97.8281V92.52Z" fill="#336ACC"/>
<path d="M32 116.52H103.953V118.52H32V116.52ZM152.25 140.52H273.375V142.52H152.25V140.52ZM32 164.52H111.031V166.52H32V164.52Z" fill="#336ACC"/>
</svg>
