<svg width="352" height="352" viewBox="0 0 352 352" fill="none" xmlns="http://www.w3.org/2000/svg">
<rect width="352" height="352" rx="8" fill="#F3F6F9"/>
<path d="M312.425 136.132C316.51 136.132 319.822 139.444 319.822 143.529V208.472C319.822 212.557 316.51 215.868 312.425 215.868H39.5752C35.4903 215.868 32.1779 212.557 32.1777 208.472V143.528C32.178 139.444 35.4904 136.132 39.5752 136.132H312.425Z" fill="white"/>
<path d="M312.425 136.132C316.51 136.132 319.822 139.444 319.822 143.529V208.472C319.822 212.557 316.51 215.868 312.425 215.868H39.5752C35.4903 215.868 32.1779 212.557 32.1777 208.472V143.528C32.178 139.444 35.4904 136.132 39.5752 136.132H312.425Z" stroke="#E6EBF0" stroke-width="1.64368"/>
<path d="M62.5862 167.782C58.0497 167.782 54.3678 171.464 54.3678 176C54.3678 180.537 58.0497 184.219 62.5862 184.219C67.1228 184.219 70.8046 180.537 70.8046 176C70.8046 171.464 67.1228 167.782 62.5862 167.782ZM62.5862 180.109C62.1342 180.109 61.7644 179.739 61.7644 179.287V176C61.7644 175.548 62.1342 175.178 62.5862 175.178C63.0382 175.178 63.4081 175.548 63.4081 176V179.287C63.4081 179.739 63.0382 180.109 62.5862 180.109ZM63.4081 173.535H61.7644V171.891H63.4081V173.535Z" fill="#101E37"/>
<path d="M89.4822 171.678L88.3265 168.699H84.564L83.4147 171.678H82.3104L85.983 162.253H86.9653L90.6122 171.678H89.4822ZM87.999 167.73L86.9011 164.77C86.8754 164.693 86.8326 164.566 86.7727 164.391C86.717 164.215 86.6593 164.033 86.5993 163.845C86.5394 163.657 86.4902 163.505 86.4517 163.389C86.4089 163.565 86.3618 163.74 86.3104 163.916C86.2633 164.087 86.2162 164.247 86.1692 164.397C86.1221 164.543 86.0814 164.667 86.0472 164.77L84.93 167.73H87.999ZM94.5737 171.807C93.9402 171.807 93.3816 171.676 92.898 171.415C92.4143 171.154 92.0376 170.756 91.7679 170.221C91.4983 169.686 91.3634 169.012 91.3634 168.198C91.3634 167.346 91.5047 166.651 91.7872 166.112C92.074 165.568 92.4678 165.166 92.9686 164.904C93.4694 164.643 94.0387 164.513 94.6765 164.513C95.0275 164.513 95.3656 164.549 95.6909 164.622C96.0205 164.69 96.2902 164.778 96.4999 164.885L96.1789 165.778C95.9649 165.692 95.7166 165.615 95.4341 165.547C95.1559 165.478 94.8948 165.444 94.6508 165.444C94.1628 165.444 93.7562 165.549 93.4309 165.758C93.1098 165.968 92.868 166.276 92.7053 166.683C92.547 167.09 92.4678 167.59 92.4678 168.185C92.4678 168.755 92.5448 169.241 92.6989 169.643C92.8573 170.045 93.0906 170.353 93.3988 170.567C93.7112 170.777 94.1008 170.882 94.5673 170.882C94.9397 170.882 95.2757 170.844 95.5754 170.766C95.875 170.685 96.1468 170.591 96.3908 170.484V171.434C96.1554 171.554 95.8921 171.646 95.601 171.71C95.3143 171.775 94.9718 171.807 94.5737 171.807ZM100.879 171.807C100.245 171.807 99.6867 171.676 99.203 171.415C98.7193 171.154 98.3426 170.756 98.073 170.221C97.8033 169.686 97.6685 169.012 97.6685 168.198C97.6685 167.346 97.8097 166.651 98.0922 166.112C98.379 165.568 98.7728 165.166 99.2736 164.904C99.7744 164.643 100.344 164.513 100.982 164.513C101.333 164.513 101.671 164.549 101.996 164.622C102.326 164.69 102.595 164.778 102.805 164.885L102.484 165.778C102.27 165.692 102.022 165.615 101.739 165.547C101.461 165.478 101.2 165.444 100.956 165.444C100.468 165.444 100.061 165.549 99.7359 165.758C99.4149 165.968 99.173 166.276 99.0104 166.683C98.852 167.09 98.7728 167.59 98.7728 168.185C98.7728 168.755 98.8499 169.241 99.004 169.643C99.1623 170.045 99.3956 170.353 99.7038 170.567C100.016 170.777 100.406 170.882 100.872 170.882C101.245 170.882 101.581 170.844 101.88 170.766C102.18 170.685 102.452 170.591 102.696 170.484V171.434C102.46 171.554 102.197 171.646 101.906 171.71C101.619 171.775 101.277 171.807 100.879 171.807ZM107.075 164.513C107.674 164.513 108.188 164.646 108.616 164.911C109.044 165.176 109.371 165.549 109.598 166.028C109.825 166.503 109.938 167.06 109.938 167.697V168.359H105.078C105.091 169.185 105.296 169.814 105.694 170.246C106.092 170.679 106.653 170.895 107.376 170.895C107.822 170.895 108.215 170.854 108.558 170.773C108.9 170.692 109.256 170.572 109.624 170.413V171.351C109.268 171.509 108.915 171.625 108.564 171.697C108.218 171.77 107.807 171.807 107.332 171.807C106.655 171.807 106.065 171.67 105.559 171.396C105.059 171.117 104.669 170.711 104.391 170.176C104.113 169.641 103.974 168.986 103.974 168.211C103.974 167.453 104.1 166.799 104.352 166.246C104.609 165.69 104.969 165.262 105.431 164.962C105.898 164.663 106.445 164.513 107.075 164.513ZM107.062 165.386C106.493 165.386 106.039 165.572 105.701 165.945C105.363 166.317 105.161 166.837 105.097 167.505H108.821C108.817 167.085 108.75 166.717 108.622 166.4C108.498 166.079 108.307 165.831 108.051 165.656C107.794 165.476 107.464 165.386 107.062 165.386ZM116.301 169.752C116.301 170.201 116.188 170.58 115.961 170.888C115.738 171.192 115.417 171.421 114.998 171.575C114.583 171.73 114.086 171.807 113.508 171.807C113.016 171.807 112.59 171.768 112.23 171.691C111.871 171.614 111.556 171.505 111.287 171.364V170.381C111.573 170.523 111.916 170.651 112.314 170.766C112.712 170.882 113.119 170.94 113.534 170.94C114.142 170.94 114.583 170.841 114.856 170.645C115.13 170.448 115.267 170.18 115.267 169.842C115.267 169.649 115.212 169.48 115.1 169.335C114.993 169.185 114.812 169.041 114.555 168.905C114.298 168.763 113.943 168.609 113.489 168.442C113.039 168.271 112.65 168.102 112.32 167.935C111.995 167.764 111.742 167.556 111.563 167.312C111.387 167.068 111.299 166.751 111.299 166.362C111.299 165.767 111.539 165.311 112.019 164.994C112.502 164.673 113.136 164.513 113.919 164.513C114.343 164.513 114.739 164.556 115.107 164.641C115.479 164.723 115.826 164.834 116.147 164.975L115.787 165.829C115.496 165.705 115.186 165.6 114.856 165.514C114.527 165.429 114.191 165.386 113.848 165.386C113.356 165.386 112.977 165.467 112.712 165.63C112.451 165.793 112.32 166.015 112.32 166.298C112.32 166.516 112.38 166.696 112.5 166.837C112.624 166.978 112.821 167.111 113.091 167.235C113.36 167.359 113.716 167.505 114.157 167.672C114.598 167.834 114.978 168.003 115.299 168.179C115.621 168.35 115.867 168.56 116.038 168.808C116.213 169.052 116.301 169.367 116.301 169.752ZM124.083 168.147C124.083 168.725 124.008 169.241 123.858 169.694C123.708 170.148 123.492 170.531 123.21 170.844C122.927 171.156 122.585 171.396 122.182 171.563C121.784 171.725 121.333 171.807 120.828 171.807C120.357 171.807 119.924 171.725 119.531 171.563C119.141 171.396 118.803 171.156 118.516 170.844C118.234 170.531 118.013 170.148 117.855 169.694C117.701 169.241 117.624 168.725 117.624 168.147C117.624 167.376 117.754 166.722 118.015 166.182C118.277 165.639 118.649 165.226 119.133 164.943C119.621 164.656 120.201 164.513 120.873 164.513C121.515 164.513 122.075 164.656 122.555 164.943C123.038 165.23 123.413 165.645 123.678 166.189C123.948 166.728 124.083 167.381 124.083 168.147ZM118.728 168.147C118.728 168.712 118.803 169.202 118.953 169.617C119.103 170.032 119.334 170.353 119.646 170.58C119.959 170.807 120.361 170.921 120.853 170.921C121.341 170.921 121.742 170.807 122.054 170.58C122.371 170.353 122.604 170.032 122.754 169.617C122.904 169.202 122.979 168.712 122.979 168.147C122.979 167.586 122.904 167.102 122.754 166.696C122.604 166.285 122.373 165.968 122.06 165.746C121.748 165.523 121.343 165.412 120.847 165.412C120.115 165.412 119.578 165.654 119.235 166.137C118.897 166.621 118.728 167.291 118.728 168.147Z" fill="#101E37"/>
<path d="M88.0071 191.322H83.434V183.108H88.0071V183.951H84.389V186.608H87.7992V187.44H84.389V190.479H88.0071V191.322ZM93.67 189.637C93.67 190.03 93.5708 190.361 93.3723 190.631C93.1775 190.897 92.8966 191.097 92.5296 191.232C92.1663 191.367 91.7318 191.434 91.2262 191.434C90.7955 191.434 90.4228 191.401 90.1082 191.333C89.7936 191.266 89.5183 191.17 89.2824 191.047V190.187C89.5333 190.311 89.8329 190.423 90.1812 190.524C90.5296 190.625 90.8854 190.676 91.2487 190.676C91.7805 190.676 92.1663 190.59 92.406 190.418C92.6457 190.245 92.7655 190.011 92.7655 189.715C92.7655 189.547 92.7168 189.399 92.6195 189.271C92.5258 189.14 92.3667 189.015 92.1419 188.895C91.9172 188.771 91.6063 188.637 91.2093 188.491C90.8161 188.341 90.4752 188.193 90.1869 188.047C89.9022 187.897 89.6812 187.715 89.5239 187.502C89.3704 187.288 89.2936 187.011 89.2936 186.67C89.2936 186.15 89.5033 185.751 89.9228 185.474C90.346 185.193 90.9003 185.052 91.5857 185.052C91.9565 185.052 92.303 185.09 92.6251 185.165C92.9509 185.236 93.2543 185.333 93.5352 185.457L93.2206 186.204C92.9659 186.095 92.6944 186.004 92.406 185.929C92.1176 185.854 91.8236 185.816 91.524 185.816C91.0932 185.816 90.7618 185.888 90.5296 186.03C90.3011 186.172 90.1869 186.367 90.1869 186.614C90.1869 186.805 90.2393 186.962 90.3442 187.086C90.4528 187.21 90.6251 187.326 90.861 187.434C91.097 187.543 91.4078 187.67 91.7936 187.816C92.1794 187.959 92.5127 188.107 92.7936 188.26C93.0745 188.41 93.2899 188.594 93.4397 188.811C93.5933 189.024 93.67 189.3 93.67 189.637ZM97.1588 190.67C97.3124 190.67 97.4697 190.657 97.6308 190.631C97.7918 190.605 97.9229 190.573 98.024 190.535V191.26C97.9154 191.309 97.7637 191.35 97.569 191.384C97.3779 191.418 97.1907 191.434 97.0072 191.434C96.6813 191.434 96.3854 191.378 96.1195 191.266C95.8536 191.15 95.6401 190.955 95.4791 190.682C95.3217 190.408 95.2431 190.03 95.2431 189.547V185.895H94.3667V185.44L95.2487 185.075L95.6195 183.738H96.1813V185.165H97.9847V185.895H96.1813V189.519C96.1813 189.904 96.2693 190.193 96.4454 190.384C96.6251 190.575 96.863 190.67 97.1588 190.67ZM101.575 185.064C102.309 185.064 102.854 185.228 103.209 185.558C103.565 185.888 103.743 186.414 103.743 187.137V191.322H103.063L102.884 190.412H102.839C102.666 190.637 102.487 190.826 102.299 190.979C102.112 191.129 101.895 191.243 101.648 191.322C101.404 191.397 101.105 191.434 100.749 191.434C100.374 191.434 100.041 191.369 99.7488 191.238C99.4604 191.107 99.2319 190.908 99.0634 190.642C98.8986 190.376 98.8162 190.039 98.8162 189.631C98.8162 189.017 99.0596 188.545 99.5465 188.215C100.033 187.886 100.775 187.706 101.771 187.676L102.833 187.631V187.255C102.833 186.723 102.719 186.35 102.49 186.137C102.262 185.923 101.94 185.816 101.524 185.816C101.202 185.816 100.895 185.863 100.603 185.957C100.311 186.05 100.033 186.161 99.7712 186.288L99.4847 185.58C99.7619 185.438 100.08 185.316 100.44 185.215C100.799 185.114 101.178 185.064 101.575 185.064ZM102.822 188.288L101.884 188.328C101.116 188.358 100.575 188.483 100.26 188.704C99.9454 188.925 99.7881 189.238 99.7881 189.642C99.7881 189.994 99.8948 190.255 100.108 190.423C100.322 190.592 100.605 190.676 100.957 190.676C101.503 190.676 101.951 190.524 102.299 190.221C102.648 189.918 102.822 189.462 102.822 188.856V188.288ZM111.024 185.052C111.549 185.052 111.998 185.168 112.372 185.401C112.747 185.633 113.034 185.959 113.232 186.378C113.431 186.794 113.53 187.281 113.53 187.839V188.417H109.277C109.288 189.14 109.468 189.691 109.816 190.069C110.165 190.447 110.655 190.637 111.288 190.637C111.678 190.637 112.022 190.601 112.322 190.53C112.622 190.459 112.932 190.354 113.255 190.215V191.036C112.944 191.174 112.635 191.275 112.328 191.339C112.024 191.403 111.665 191.434 111.249 191.434C110.657 191.434 110.14 191.315 109.698 191.075C109.26 190.831 108.919 190.476 108.676 190.007C108.432 189.539 108.311 188.966 108.311 188.288C108.311 187.625 108.421 187.052 108.642 186.569C108.867 186.082 109.181 185.708 109.586 185.446C109.994 185.183 110.474 185.052 111.024 185.052ZM111.013 185.816C110.515 185.816 110.118 185.979 109.822 186.305C109.526 186.631 109.35 187.086 109.294 187.67H112.552C112.549 187.303 112.49 186.981 112.378 186.704C112.27 186.423 112.103 186.206 111.878 186.052C111.653 185.895 111.365 185.816 111.013 185.816ZM119.097 189.637C119.097 190.03 118.998 190.361 118.8 190.631C118.605 190.897 118.324 191.097 117.957 191.232C117.594 191.367 117.159 191.434 116.653 191.434C116.223 191.434 115.85 191.401 115.535 191.333C115.221 191.266 114.946 191.17 114.71 191.047V190.187C114.961 190.311 115.26 190.423 115.608 190.524C115.957 190.625 116.313 190.676 116.676 190.676C117.208 190.676 117.594 190.59 117.833 190.418C118.073 190.245 118.193 190.011 118.193 189.715C118.193 189.547 118.144 189.399 118.047 189.271C117.953 189.14 117.794 189.015 117.569 188.895C117.344 188.771 117.034 188.637 116.637 188.491C116.243 188.341 115.903 188.193 115.614 188.047C115.329 187.897 115.108 187.715 114.951 187.502C114.798 187.288 114.721 187.011 114.721 186.67C114.721 186.15 114.931 185.751 115.35 185.474C115.773 185.193 116.328 185.052 117.013 185.052C117.384 185.052 117.73 185.09 118.052 185.165C118.378 185.236 118.682 185.333 118.962 185.457L118.648 186.204C118.393 186.095 118.122 186.004 117.833 185.929C117.545 185.854 117.251 185.816 116.951 185.816C116.52 185.816 116.189 185.888 115.957 186.03C115.728 186.172 115.614 186.367 115.614 186.614C115.614 186.805 115.667 186.962 115.771 187.086C115.88 187.21 116.052 187.326 116.288 187.434C116.524 187.543 116.835 187.67 117.221 187.816C117.607 187.959 117.94 188.107 118.221 188.26C118.502 188.41 118.717 188.594 118.867 188.811C119.021 189.024 119.097 189.3 119.097 189.637ZM124.524 191.322H123.586V182.58H124.524V191.322ZM128.8 185.064C129.534 185.064 130.079 185.228 130.434 185.558C130.79 185.888 130.968 186.414 130.968 187.137V191.322H130.288L130.109 190.412H130.064C129.891 190.637 129.712 190.826 129.524 190.979C129.337 191.129 129.12 191.243 128.873 191.322C128.629 191.397 128.33 191.434 127.974 191.434C127.599 191.434 127.266 191.369 126.974 191.238C126.685 191.107 126.457 190.908 126.288 190.642C126.124 190.376 126.041 190.039 126.041 189.631C126.041 189.017 126.285 188.545 126.772 188.215C127.258 187.886 128 187.706 128.996 187.676L130.058 187.631V187.255C130.058 186.723 129.944 186.35 129.715 186.137C129.487 185.923 129.165 185.816 128.749 185.816C128.427 185.816 128.12 185.863 127.828 185.957C127.536 186.05 127.258 186.161 126.996 186.288L126.71 185.58C126.987 185.438 127.305 185.316 127.665 185.215C128.024 185.114 128.403 185.064 128.8 185.064ZM130.047 188.288L129.109 188.328C128.341 188.358 127.8 188.483 127.485 188.704C127.17 188.925 127.013 189.238 127.013 189.642C127.013 189.994 127.12 190.255 127.333 190.423C127.547 190.592 127.83 190.676 128.182 190.676C128.728 190.676 129.176 190.524 129.524 190.221C129.873 189.918 130.047 189.462 130.047 188.856V188.288ZM138.069 191.434C137.29 191.434 136.672 191.168 136.215 190.637C135.762 190.105 135.536 189.315 135.536 188.266C135.536 187.206 135.768 186.406 136.232 185.867C136.697 185.324 137.315 185.052 138.086 185.052C138.412 185.052 138.697 185.095 138.94 185.182C139.184 185.268 139.393 185.384 139.569 185.53C139.745 185.672 139.893 185.835 140.013 186.019H140.081C140.066 185.902 140.051 185.743 140.036 185.541C140.021 185.339 140.013 185.174 140.013 185.047V182.58H140.946V191.322H140.193L140.053 190.446H140.013C139.897 190.629 139.749 190.796 139.569 190.946C139.393 191.095 139.182 191.215 138.935 191.305C138.691 191.391 138.403 191.434 138.069 191.434ZM138.215 190.659C138.875 190.659 139.341 190.472 139.614 190.097C139.888 189.723 140.024 189.167 140.024 188.429V188.26C140.024 187.477 139.893 186.876 139.631 186.457C139.373 186.037 138.901 185.828 138.215 185.828C137.642 185.828 137.214 186.049 136.929 186.491C136.644 186.929 136.502 187.528 136.502 188.288C136.502 189.045 136.642 189.629 136.923 190.041C137.208 190.453 137.639 190.659 138.215 190.659ZM145.294 185.052C145.819 185.052 146.268 185.168 146.643 185.401C147.017 185.633 147.304 185.959 147.502 186.378C147.701 186.794 147.8 187.281 147.8 187.839V188.417H143.547C143.558 189.14 143.738 189.691 144.086 190.069C144.435 190.447 144.925 190.637 145.558 190.637C145.948 190.637 146.292 190.601 146.592 190.53C146.892 190.459 147.202 190.354 147.525 190.215V191.036C147.214 191.174 146.905 191.275 146.598 191.339C146.294 191.403 145.935 191.434 145.519 191.434C144.927 191.434 144.41 191.315 143.968 191.075C143.53 190.831 143.189 190.476 142.946 190.007C142.702 189.539 142.581 188.966 142.581 188.288C142.581 187.625 142.691 187.052 142.912 186.569C143.137 186.082 143.451 185.708 143.856 185.446C144.264 185.183 144.744 185.052 145.294 185.052ZM145.283 185.816C144.785 185.816 144.388 185.979 144.092 186.305C143.796 186.631 143.62 187.086 143.564 187.67H146.822C146.819 187.303 146.761 186.981 146.648 186.704C146.54 186.423 146.373 186.206 146.148 186.052C145.923 185.895 145.635 185.816 145.283 185.816ZM153.367 189.637C153.367 190.03 153.268 190.361 153.07 190.631C152.875 190.897 152.594 191.097 152.227 191.232C151.864 191.367 151.429 191.434 150.923 191.434C150.493 191.434 150.12 191.401 149.806 191.333C149.491 191.266 149.216 191.17 148.98 191.047V190.187C149.231 190.311 149.53 190.423 149.879 190.524C150.227 190.625 150.583 190.676 150.946 190.676C151.478 190.676 151.864 190.59 152.103 190.418C152.343 190.245 152.463 190.011 152.463 189.715C152.463 189.547 152.414 189.399 152.317 189.271C152.223 189.14 152.064 189.015 151.839 188.895C151.615 188.771 151.304 188.637 150.907 188.491C150.513 188.341 150.173 188.193 149.884 188.047C149.6 187.897 149.379 187.715 149.221 187.502C149.068 187.288 148.991 187.011 148.991 186.67C148.991 186.15 149.201 185.751 149.62 185.474C150.043 185.193 150.598 185.052 151.283 185.052C151.654 185.052 152 185.09 152.322 185.165C152.648 185.236 152.952 185.333 153.233 185.457L152.918 186.204C152.663 186.095 152.392 186.004 152.103 185.929C151.815 185.854 151.521 185.816 151.221 185.816C150.791 185.816 150.459 185.888 150.227 186.03C149.998 186.172 149.884 186.367 149.884 186.614C149.884 186.805 149.937 186.962 150.041 187.086C150.15 187.21 150.322 187.326 150.558 187.434C150.794 187.543 151.105 187.67 151.491 187.816C151.877 187.959 152.21 188.107 152.491 188.26C152.772 188.41 152.987 188.594 153.137 188.811C153.291 189.024 153.367 189.3 153.367 189.637ZM157.334 191.434C156.779 191.434 156.291 191.32 155.867 191.092C155.444 190.863 155.115 190.515 154.879 190.047C154.643 189.579 154.525 188.989 154.525 188.277C154.525 187.532 154.648 186.923 154.895 186.451C155.146 185.976 155.491 185.623 155.929 185.395C156.367 185.167 156.866 185.052 157.424 185.052C157.731 185.052 158.027 185.084 158.311 185.148C158.6 185.208 158.836 185.285 159.019 185.378L158.738 186.159C158.551 186.084 158.334 186.017 158.086 185.957C157.843 185.897 157.615 185.867 157.401 185.867C156.974 185.867 156.618 185.959 156.334 186.142C156.053 186.326 155.841 186.595 155.699 186.951C155.56 187.307 155.491 187.745 155.491 188.266C155.491 188.764 155.558 189.189 155.693 189.541C155.832 189.893 156.036 190.163 156.306 190.35C156.579 190.534 156.92 190.625 157.328 190.625C157.654 190.625 157.948 190.592 158.21 190.524C158.472 190.453 158.71 190.371 158.924 190.277V191.109C158.718 191.213 158.487 191.294 158.233 191.35C157.982 191.406 157.682 191.434 157.334 191.434ZM163.182 185.052C163.306 185.052 163.435 185.06 163.57 185.075C163.705 185.086 163.824 185.103 163.929 185.125L163.811 185.991C163.71 185.964 163.598 185.944 163.474 185.929C163.351 185.914 163.234 185.906 163.126 185.906C162.879 185.906 162.645 185.957 162.424 186.058C162.206 186.155 162.015 186.298 161.851 186.485C161.686 186.668 161.557 186.891 161.463 187.153C161.369 187.412 161.322 187.7 161.322 188.019V191.322H160.384V185.165H161.16L161.261 186.299H161.3C161.427 186.071 161.581 185.863 161.761 185.676C161.94 185.485 162.148 185.333 162.384 185.221C162.624 185.108 162.89 185.052 163.182 185.052ZM166.025 185.165V191.322H165.092V185.165H166.025ZM165.57 182.861C165.723 182.861 165.854 182.912 165.963 183.013C166.075 183.11 166.132 183.264 166.132 183.474C166.132 183.68 166.075 183.833 165.963 183.934C165.854 184.035 165.723 184.086 165.57 184.086C165.409 184.086 165.274 184.035 165.165 183.934C165.06 183.833 165.008 183.68 165.008 183.474C165.008 183.264 165.06 183.11 165.165 183.013C165.274 182.912 165.409 182.861 165.57 182.861ZM170.896 185.052C171.663 185.052 172.276 185.316 172.733 185.844C173.19 186.373 173.418 187.167 173.418 188.226C173.418 188.927 173.313 189.515 173.104 189.991C172.894 190.466 172.598 190.826 172.216 191.069C171.838 191.313 171.39 191.434 170.873 191.434C170.547 191.434 170.261 191.391 170.014 191.305C169.766 191.219 169.555 191.103 169.379 190.957C169.203 190.811 169.057 190.652 168.941 190.479H168.873C168.884 190.625 168.897 190.801 168.912 191.007C168.931 191.213 168.941 191.393 168.941 191.547V194.075H168.002V185.165H168.772L168.896 186.075H168.941C169.06 185.888 169.206 185.717 169.379 185.564C169.551 185.406 169.761 185.283 170.008 185.193C170.259 185.099 170.555 185.052 170.896 185.052ZM170.733 185.839C170.306 185.839 169.961 185.921 169.699 186.086C169.441 186.251 169.251 186.498 169.132 186.828C169.012 187.153 168.948 187.564 168.941 188.058V188.238C168.941 188.758 168.997 189.198 169.109 189.558C169.225 189.918 169.414 190.191 169.677 190.378C169.942 190.565 170.298 190.659 170.744 190.659C171.126 190.659 171.444 190.556 171.699 190.35C171.954 190.144 172.143 189.858 172.266 189.491C172.394 189.12 172.457 188.695 172.457 188.215C172.457 187.489 172.315 186.912 172.03 186.485C171.75 186.054 171.317 185.839 170.733 185.839ZM177.514 191.434C176.959 191.434 176.471 191.32 176.047 191.092C175.624 190.863 175.295 190.515 175.059 190.047C174.823 189.579 174.705 188.989 174.705 188.277C174.705 187.532 174.828 186.923 175.075 186.451C175.326 185.976 175.671 185.623 176.109 185.395C176.547 185.167 177.046 185.052 177.604 185.052C177.911 185.052 178.207 185.084 178.491 185.148C178.78 185.208 179.016 185.285 179.199 185.378L178.918 186.159C178.731 186.084 178.514 186.017 178.266 185.957C178.023 185.897 177.795 185.867 177.581 185.867C177.154 185.867 176.798 185.959 176.514 186.142C176.233 186.326 176.021 186.595 175.879 186.951C175.74 187.307 175.671 187.745 175.671 188.266C175.671 188.764 175.738 189.189 175.873 189.541C176.012 189.893 176.216 190.163 176.486 190.35C176.759 190.534 177.1 190.625 177.508 190.625C177.834 190.625 178.128 190.592 178.39 190.524C178.652 190.453 178.89 190.371 179.104 190.277V191.109C178.898 191.213 178.667 191.294 178.413 191.35C178.162 191.406 177.862 191.434 177.514 191.434ZM181.497 185.165V191.322H180.564V185.165H181.497ZM181.042 182.861C181.195 182.861 181.326 182.912 181.435 183.013C181.547 183.11 181.604 183.264 181.604 183.474C181.604 183.68 181.547 183.833 181.435 183.934C181.326 184.035 181.195 184.086 181.042 184.086C180.881 184.086 180.746 184.035 180.637 183.934C180.532 183.833 180.48 183.68 180.48 183.474C180.48 183.264 180.532 183.11 180.637 183.013C180.746 182.912 180.881 182.861 181.042 182.861ZM188.783 188.232C188.783 188.738 188.718 189.189 188.587 189.586C188.456 189.983 188.267 190.318 188.019 190.592C187.772 190.865 187.473 191.075 187.121 191.221C186.772 191.363 186.377 191.434 185.935 191.434C185.523 191.434 185.145 191.363 184.8 191.221C184.459 191.075 184.164 190.865 183.913 190.592C183.665 190.318 183.473 189.983 183.334 189.586C183.199 189.189 183.132 188.738 183.132 188.232C183.132 187.558 183.246 186.985 183.474 186.513C183.703 186.037 184.029 185.676 184.452 185.429C184.879 185.178 185.386 185.052 185.974 185.052C186.536 185.052 187.027 185.178 187.446 185.429C187.87 185.68 188.197 186.043 188.43 186.519C188.665 186.991 188.783 187.562 188.783 188.232ZM184.098 188.232C184.098 188.726 184.164 189.155 184.295 189.519C184.426 189.882 184.628 190.163 184.901 190.361C185.175 190.56 185.527 190.659 185.958 190.659C186.385 190.659 186.735 190.56 187.008 190.361C187.285 190.163 187.489 189.882 187.621 189.519C187.752 189.155 187.817 188.726 187.817 188.232C187.817 187.741 187.752 187.318 187.621 186.962C187.489 186.603 187.287 186.326 187.014 186.131C186.74 185.936 186.386 185.839 185.952 185.839C185.312 185.839 184.841 186.05 184.542 186.474C184.246 186.897 184.098 187.483 184.098 188.232ZM187.587 182.507V182.62C187.512 182.728 187.409 182.859 187.278 183.013C187.15 183.163 187.008 183.322 186.851 183.49C186.694 183.655 186.534 183.813 186.373 183.962C186.216 184.112 186.07 184.241 185.935 184.35H185.312V184.215C185.431 184.073 185.562 183.902 185.705 183.704C185.847 183.502 185.986 183.296 186.121 183.086C186.255 182.872 186.368 182.68 186.458 182.507H187.587ZM193.312 185.052C194.042 185.052 194.594 185.232 194.969 185.592C195.343 185.947 195.531 186.52 195.531 187.311V191.322H194.609V187.373C194.609 186.859 194.491 186.476 194.255 186.221C194.023 185.966 193.666 185.839 193.182 185.839C192.501 185.839 192.021 186.032 191.744 186.417C191.467 186.803 191.328 187.363 191.328 188.097V191.322H190.396V185.165H191.149L191.289 186.052H191.34C191.471 185.835 191.637 185.653 191.84 185.507C192.042 185.358 192.269 185.245 192.519 185.17C192.77 185.092 193.034 185.052 193.312 185.052ZM202.632 191.434C201.853 191.434 201.235 191.168 200.778 190.637C200.325 190.105 200.098 189.315 200.098 188.266C200.098 187.206 200.33 186.406 200.795 185.867C201.259 185.324 201.877 185.052 202.649 185.052C202.975 185.052 203.259 185.095 203.503 185.182C203.746 185.268 203.956 185.384 204.132 185.53C204.308 185.672 204.456 185.835 204.576 186.019H204.643C204.628 185.902 204.613 185.743 204.598 185.541C204.583 185.339 204.576 185.174 204.576 185.047V182.58H205.508V191.322H204.756L204.615 190.446H204.576C204.46 190.629 204.312 190.796 204.132 190.946C203.956 191.095 203.744 191.215 203.497 191.305C203.254 191.391 202.965 191.434 202.632 191.434ZM202.778 190.659C203.437 190.659 203.903 190.472 204.177 190.097C204.45 189.723 204.587 189.167 204.587 188.429V188.26C204.587 187.477 204.456 186.876 204.194 186.457C203.935 186.037 203.463 185.828 202.778 185.828C202.205 185.828 201.776 186.049 201.491 186.491C201.207 186.929 201.065 187.528 201.065 188.288C201.065 189.045 201.205 189.629 201.486 190.041C201.771 190.453 202.201 190.659 202.778 190.659ZM209.857 185.052C210.381 185.052 210.831 185.168 211.205 185.401C211.58 185.633 211.866 185.959 212.065 186.378C212.263 186.794 212.362 187.281 212.362 187.839V188.417H208.11C208.121 189.14 208.301 189.691 208.649 190.069C208.997 190.447 209.488 190.637 210.121 190.637C210.51 190.637 210.855 190.601 211.154 190.53C211.454 190.459 211.765 190.354 212.087 190.215V191.036C211.776 191.174 211.467 191.275 211.16 191.339C210.857 191.403 210.497 191.434 210.081 191.434C209.49 191.434 208.973 191.315 208.531 191.075C208.093 190.831 207.752 190.476 207.508 190.007C207.265 189.539 207.143 188.966 207.143 188.288C207.143 187.625 207.254 187.052 207.475 186.569C207.699 186.082 208.014 185.708 208.419 185.446C208.827 185.183 209.306 185.052 209.857 185.052ZM209.845 185.816C209.347 185.816 208.95 185.979 208.654 186.305C208.359 186.631 208.183 187.086 208.126 187.67H211.385C211.381 187.303 211.323 186.981 211.211 186.704C211.102 186.423 210.935 186.206 210.711 186.052C210.486 185.895 210.198 185.816 209.845 185.816ZM214.885 191.322H213.947V182.58H214.885V191.322ZM222.149 185.064C222.883 185.064 223.428 185.228 223.784 185.558C224.14 185.888 224.318 186.414 224.318 187.137V191.322H223.638L223.458 190.412H223.413C223.241 190.637 223.061 190.826 222.874 190.979C222.686 191.129 222.469 191.243 222.222 191.322C221.979 191.397 221.679 191.434 221.323 191.434C220.949 191.434 220.615 191.369 220.323 191.238C220.035 191.107 219.806 190.908 219.638 190.642C219.473 190.376 219.391 190.039 219.391 189.631C219.391 189.017 219.634 188.545 220.121 188.215C220.608 187.886 221.349 187.706 222.346 187.676L223.407 187.631V187.255C223.407 186.723 223.293 186.35 223.065 186.137C222.836 185.923 222.514 185.816 222.098 185.816C221.776 185.816 221.469 185.863 221.177 185.957C220.885 186.05 220.608 186.161 220.346 186.288L220.059 185.58C220.336 185.438 220.655 185.316 221.014 185.215C221.374 185.114 221.752 185.064 222.149 185.064ZM223.396 188.288L222.458 188.328C221.69 188.358 221.149 188.483 220.834 188.704C220.52 188.925 220.362 189.238 220.362 189.642C220.362 189.994 220.469 190.255 220.683 190.423C220.896 190.592 221.179 190.676 221.531 190.676C222.078 190.676 222.525 190.524 222.874 190.221C223.222 189.918 223.396 189.462 223.396 188.856V188.288ZM228.705 191.434C228.151 191.434 227.662 191.32 227.239 191.092C226.816 190.863 226.486 190.515 226.25 190.047C226.014 189.579 225.896 188.989 225.896 188.277C225.896 187.532 226.02 186.923 226.267 186.451C226.518 185.976 226.863 185.623 227.301 185.395C227.739 185.167 228.237 185.052 228.795 185.052C229.102 185.052 229.398 185.084 229.683 185.148C229.971 185.208 230.207 185.285 230.391 185.378L230.11 186.159C229.923 186.084 229.705 186.017 229.458 185.957C229.215 185.897 228.986 185.867 228.773 185.867C228.346 185.867 227.99 185.959 227.705 186.142C227.424 186.326 227.213 186.595 227.07 186.951C226.932 187.307 226.863 187.745 226.863 188.266C226.863 188.764 226.93 189.189 227.065 189.541C227.203 189.893 227.407 190.163 227.677 190.35C227.951 190.534 228.291 190.625 228.7 190.625C229.025 190.625 229.319 190.592 229.582 190.524C229.844 190.453 230.082 190.371 230.295 190.277V191.109C230.089 191.213 229.859 191.294 229.604 191.35C229.353 191.406 229.054 191.434 228.705 191.434ZM234.222 191.434C233.668 191.434 233.179 191.32 232.756 191.092C232.333 190.863 232.003 190.515 231.767 190.047C231.531 189.579 231.413 188.989 231.413 188.277C231.413 187.532 231.537 186.923 231.784 186.451C232.035 185.976 232.379 185.623 232.818 185.395C233.256 185.167 233.754 185.052 234.312 185.052C234.619 185.052 234.915 185.084 235.2 185.148C235.488 185.208 235.724 185.285 235.908 185.378L235.627 186.159C235.439 186.084 235.222 186.017 234.975 185.957C234.732 185.897 234.503 185.867 234.29 185.867C233.863 185.867 233.507 185.959 233.222 186.142C232.941 186.326 232.73 186.595 232.587 186.951C232.449 187.307 232.379 187.745 232.379 188.266C232.379 188.764 232.447 189.189 232.582 189.541C232.72 189.893 232.924 190.163 233.194 190.35C233.467 190.534 233.808 190.625 234.217 190.625C234.542 190.625 234.836 190.592 235.099 190.524C235.361 190.453 235.599 190.371 235.812 190.277V191.109C235.606 191.213 235.376 191.294 235.121 191.35C234.87 191.406 234.571 191.434 234.222 191.434ZM239.644 185.052C240.168 185.052 240.617 185.168 240.992 185.401C241.366 185.633 241.653 185.959 241.851 186.378C242.05 186.794 242.149 187.281 242.149 187.839V188.417H237.896C237.908 189.14 238.087 189.691 238.436 190.069C238.784 190.447 239.275 190.637 239.908 190.637C240.297 190.637 240.642 190.601 240.941 190.53C241.241 190.459 241.552 190.354 241.874 190.215V191.036C241.563 191.174 241.254 191.275 240.947 191.339C240.644 191.403 240.284 191.434 239.868 191.434C239.277 191.434 238.76 191.315 238.318 191.075C237.88 190.831 237.539 190.476 237.295 190.007C237.052 189.539 236.93 188.966 236.93 188.288C236.93 187.625 237.041 187.052 237.262 186.569C237.486 186.082 237.801 185.708 238.205 185.446C238.614 185.183 239.093 185.052 239.644 185.052ZM239.632 185.816C239.134 185.816 238.737 185.979 238.441 186.305C238.145 186.631 237.969 187.086 237.913 187.67H241.172C241.168 187.303 241.11 186.981 240.998 186.704C240.889 186.423 240.722 186.206 240.498 186.052C240.273 185.895 239.984 185.816 239.632 185.816ZM247.717 189.637C247.717 190.03 247.617 190.361 247.419 190.631C247.224 190.897 246.943 191.097 246.576 191.232C246.213 191.367 245.778 191.434 245.273 191.434C244.842 191.434 244.469 191.401 244.155 191.333C243.84 191.266 243.565 191.17 243.329 191.047V190.187C243.58 190.311 243.88 190.423 244.228 190.524C244.576 190.625 244.932 190.676 245.295 190.676C245.827 190.676 246.213 190.59 246.453 190.418C246.692 190.245 246.812 190.011 246.812 189.715C246.812 189.547 246.764 189.399 246.666 189.271C246.573 189.14 246.413 189.015 246.189 188.895C245.964 188.771 245.653 188.637 245.256 188.491C244.863 188.341 244.522 188.193 244.234 188.047C243.949 187.897 243.728 187.715 243.571 187.502C243.417 187.288 243.34 187.011 243.34 186.67C243.34 186.15 243.55 185.751 243.969 185.474C244.393 185.193 244.947 185.052 245.632 185.052C246.003 185.052 246.35 185.09 246.672 185.165C246.998 185.236 247.301 185.333 247.582 185.457L247.267 186.204C247.013 186.095 246.741 186.004 246.453 185.929C246.164 185.854 245.87 185.816 245.571 185.816C245.14 185.816 244.808 185.888 244.576 186.03C244.348 186.172 244.234 186.367 244.234 186.614C244.234 186.805 244.286 186.962 244.391 187.086C244.499 187.21 244.672 187.326 244.908 187.434C245.144 187.543 245.455 187.67 245.84 187.816C246.226 187.959 246.559 188.107 246.84 188.26C247.121 188.41 247.337 188.594 247.486 188.811C247.64 189.024 247.717 189.3 247.717 189.637ZM254.526 188.232C254.526 188.738 254.46 189.189 254.329 189.586C254.198 189.983 254.009 190.318 253.762 190.592C253.515 190.865 253.215 191.075 252.863 191.221C252.515 191.363 252.119 191.434 251.677 191.434C251.265 191.434 250.887 191.363 250.543 191.221C250.202 191.075 249.906 190.865 249.655 190.592C249.408 190.318 249.215 189.983 249.076 189.586C248.941 189.189 248.874 188.738 248.874 188.232C248.874 187.558 248.988 186.985 249.217 186.513C249.445 186.037 249.771 185.676 250.194 185.429C250.621 185.178 251.129 185.052 251.717 185.052C252.279 185.052 252.769 185.178 253.189 185.429C253.612 185.68 253.94 186.043 254.172 186.519C254.408 186.991 254.526 187.562 254.526 188.232ZM249.84 188.232C249.84 188.726 249.906 189.155 250.037 189.519C250.168 189.882 250.37 190.163 250.644 190.361C250.917 190.56 251.269 190.659 251.7 190.659C252.127 190.659 252.477 190.56 252.75 190.361C253.028 190.163 253.232 189.882 253.363 189.519C253.494 189.155 253.559 188.726 253.559 188.232C253.559 187.741 253.494 187.318 253.363 186.962C253.232 186.603 253.03 186.326 252.756 186.131C252.483 185.936 252.129 185.839 251.694 185.839C251.054 185.839 250.584 186.05 250.284 186.474C249.988 186.897 249.84 187.483 249.84 188.232ZM255.998 190.738C255.998 190.476 256.061 190.29 256.189 190.182C256.316 190.069 256.471 190.013 256.655 190.013C256.846 190.013 257.007 190.069 257.138 190.182C257.269 190.29 257.335 190.476 257.335 190.738C257.335 190.996 257.269 191.185 257.138 191.305C257.007 191.421 256.846 191.479 256.655 191.479C256.471 191.479 256.316 191.421 256.189 191.305C256.061 191.185 255.998 190.996 255.998 190.738Z" fill="#38485C"/>
<path d="M286.948 162.193C286.628 162.514 286.628 163.032 286.948 163.352L290.137 166.541L286.948 169.73C286.628 170.05 286.628 170.568 286.948 170.888C287.269 171.209 287.787 171.209 288.107 170.888L291.879 167.116C292.2 166.796 292.2 166.278 291.879 165.957L288.107 162.185C287.795 161.873 287.269 161.873 286.948 162.193Z" fill="#101E37"/>
</svg>
