<svg width="728" height="280" viewBox="0 0 728 280" fill="none" xmlns="http://www.w3.org/2000/svg">
<rect width="728" height="280" rx="8" fill="#F3F6F9"/>
<rect x="296.25" y="109" width="139" height="48" rx="8" fill="#336ACC"/>
<path d="M331.25 133.833H327.083V138C327.083 138.458 326.708 138.833 326.25 138.833C325.792 138.833 325.417 138.458 325.417 138V133.833H321.25C320.792 133.833 320.417 133.458 320.417 133C320.417 132.542 320.792 132.167 321.25 132.167H325.417V128C325.417 127.542 325.792 127.167 326.25 127.167C326.708 127.167 327.083 127.542 327.083 128V132.167H331.25C331.708 132.167 332.083 132.542 332.083 133C332.083 133.458 331.708 133.833 331.25 133.833Z" fill="white"/>
<path d="M342.86 139C342.464 139 342.158 138.898 341.942 138.694C341.738 138.478 341.636 138.172 341.636 137.776V127.534C341.636 127.138 341.738 126.838 341.942 126.634C342.158 126.418 342.464 126.31 342.86 126.31H347.18C348.068 126.31 348.824 126.442 349.448 126.706C350.072 126.97 350.546 127.348 350.87 127.84C351.206 128.332 351.374 128.92 351.374 129.604C351.374 130.372 351.152 131.02 350.708 131.548C350.264 132.076 349.658 132.43 348.89 132.61V132.34C349.778 132.472 350.468 132.808 350.96 133.348C351.452 133.888 351.698 134.59 351.698 135.454C351.698 136.582 351.314 137.458 350.546 138.082C349.79 138.694 348.734 139 347.378 139H342.86ZM343.85 137.254H347.09C347.906 137.254 348.506 137.098 348.89 136.786C349.274 136.462 349.466 135.982 349.466 135.346C349.466 134.698 349.274 134.218 348.89 133.906C348.506 133.594 347.906 133.438 347.09 133.438H343.85V137.254ZM343.85 131.692H346.784C347.576 131.692 348.164 131.542 348.548 131.242C348.944 130.93 349.142 130.474 349.142 129.874C349.142 129.274 348.944 128.824 348.548 128.524C348.164 128.212 347.576 128.056 346.784 128.056H343.85V131.692ZM357.827 139.18C356.915 139.18 356.123 138.994 355.451 138.622C354.779 138.25 354.257 137.722 353.885 137.038C353.513 136.342 353.327 135.526 353.327 134.59C353.327 133.882 353.429 133.252 353.633 132.7C353.849 132.136 354.155 131.656 354.551 131.26C354.947 130.852 355.421 130.546 355.973 130.342C356.525 130.126 357.143 130.018 357.827 130.018C358.739 130.018 359.531 130.204 360.203 130.576C360.875 130.948 361.397 131.476 361.769 132.16C362.141 132.844 362.327 133.654 362.327 134.59C362.327 135.298 362.219 135.934 362.003 136.498C361.799 137.062 361.499 137.548 361.103 137.956C360.707 138.352 360.233 138.658 359.681 138.874C359.129 139.078 358.511 139.18 357.827 139.18ZM357.827 137.47C358.271 137.47 358.661 137.362 358.997 137.146C359.333 136.93 359.591 136.612 359.771 136.192C359.963 135.76 360.059 135.226 360.059 134.59C360.059 133.63 359.855 132.916 359.447 132.448C359.039 131.968 358.499 131.728 357.827 131.728C357.383 131.728 356.993 131.836 356.657 132.052C356.321 132.256 356.057 132.574 355.865 133.006C355.685 133.426 355.595 133.954 355.595 134.59C355.595 135.538 355.799 136.258 356.207 136.75C356.615 137.23 357.155 137.47 357.827 137.47ZM368.128 139.18C367.348 139.18 366.694 139.048 366.166 138.784C365.65 138.52 365.266 138.136 365.014 137.632C364.762 137.116 364.636 136.48 364.636 135.724V131.89H363.7C363.412 131.89 363.19 131.818 363.034 131.674C362.878 131.518 362.8 131.308 362.8 131.044C362.8 130.768 362.878 130.558 363.034 130.414C363.19 130.27 363.412 130.198 363.7 130.198H364.636V128.56C364.636 128.188 364.732 127.906 364.924 127.714C365.128 127.522 365.41 127.426 365.77 127.426C366.13 127.426 366.406 127.522 366.598 127.714C366.79 127.906 366.886 128.188 366.886 128.56V130.198H368.794C369.082 130.198 369.304 130.27 369.46 130.414C369.616 130.558 369.694 130.768 369.694 131.044C369.694 131.308 369.616 131.518 369.46 131.674C369.304 131.818 369.082 131.89 368.794 131.89H366.886V135.598C366.886 136.174 367.012 136.606 367.264 136.894C367.516 137.182 367.924 137.326 368.488 137.326C368.692 137.326 368.872 137.308 369.028 137.272C369.184 137.236 369.322 137.212 369.442 137.2C369.586 137.188 369.706 137.236 369.802 137.344C369.898 137.44 369.946 137.644 369.946 137.956C369.946 138.196 369.904 138.412 369.82 138.604C369.748 138.784 369.61 138.91 369.406 138.982C369.25 139.03 369.046 139.072 368.794 139.108C368.542 139.156 368.32 139.18 368.128 139.18ZM374.93 139.18C374.018 139.18 373.226 138.994 372.554 138.622C371.882 138.25 371.36 137.722 370.988 137.038C370.616 136.342 370.43 135.526 370.43 134.59C370.43 133.882 370.532 133.252 370.736 132.7C370.952 132.136 371.258 131.656 371.654 131.26C372.05 130.852 372.524 130.546 373.076 130.342C373.628 130.126 374.246 130.018 374.93 130.018C375.842 130.018 376.634 130.204 377.306 130.576C377.978 130.948 378.5 131.476 378.872 132.16C379.244 132.844 379.43 133.654 379.43 134.59C379.43 135.298 379.322 135.934 379.106 136.498C378.902 137.062 378.602 137.548 378.206 137.956C377.81 138.352 377.336 138.658 376.784 138.874C376.232 139.078 375.614 139.18 374.93 139.18ZM374.93 137.47C375.374 137.47 375.764 137.362 376.1 137.146C376.436 136.93 376.694 136.612 376.874 136.192C377.066 135.76 377.162 135.226 377.162 134.59C377.162 133.63 376.958 132.916 376.55 132.448C376.142 131.968 375.602 131.728 374.93 131.728C374.486 131.728 374.096 131.836 373.76 132.052C373.424 132.256 373.16 132.574 372.968 133.006C372.788 133.426 372.698 133.954 372.698 134.59C372.698 135.538 372.902 136.258 373.31 136.75C373.718 137.23 374.258 137.47 374.93 137.47ZM375.776 128.92C375.656 129.088 375.512 129.184 375.344 129.208C375.176 129.232 375.014 129.202 374.858 129.118C374.702 129.034 374.588 128.914 374.516 128.758C374.456 128.602 374.474 128.428 374.57 128.236L375.938 125.554C376.046 125.326 376.19 125.182 376.37 125.122C376.55 125.05 376.736 125.038 376.928 125.086C377.12 125.134 377.282 125.224 377.414 125.356C377.558 125.488 377.642 125.65 377.666 125.842C377.702 126.022 377.654 126.208 377.522 126.4L375.776 128.92ZM382.403 139.144C382.043 139.144 381.767 139.048 381.575 138.856C381.383 138.652 381.287 138.364 381.287 137.992V131.188C381.287 130.816 381.383 130.534 381.575 130.342C381.767 130.15 382.037 130.054 382.385 130.054C382.733 130.054 383.003 130.15 383.195 130.342C383.387 130.534 383.483 130.816 383.483 131.188V132.412L383.285 131.962C383.549 131.326 383.957 130.846 384.509 130.522C385.073 130.186 385.709 130.018 386.417 130.018C387.125 130.018 387.707 130.15 388.163 130.414C388.619 130.678 388.961 131.08 389.189 131.62C389.417 132.148 389.531 132.82 389.531 133.636V137.992C389.531 138.364 389.435 138.652 389.243 138.856C389.051 139.048 388.775 139.144 388.415 139.144C388.055 139.144 387.773 139.048 387.569 138.856C387.377 138.652 387.281 138.364 387.281 137.992V133.744C387.281 133.06 387.149 132.562 386.885 132.25C386.633 131.938 386.237 131.782 385.697 131.782C385.037 131.782 384.509 131.992 384.113 132.412C383.729 132.82 383.537 133.366 383.537 134.05V137.992C383.537 138.76 383.159 139.144 382.403 139.144Z" fill="white"/>
<path d="M399.591 133.833H408.899L404.832 137.9C404.507 138.225 404.507 138.758 404.832 139.083C405.157 139.408 405.682 139.408 406.007 139.083L411.499 133.592C411.824 133.267 411.824 132.742 411.499 132.417L406.016 126.917C405.691 126.592 405.166 126.592 404.841 126.917C404.516 127.242 404.516 127.767 404.841 128.092L408.899 132.167H399.591C399.132 132.167 398.757 132.542 398.757 133C398.757 133.458 399.132 133.833 399.591 133.833Z" fill="white"/>
<path d="M203.201 138V129.434H204.197V138H203.201ZM205.457 126.656V126.773C205.379 126.887 205.271 127.023 205.135 127.184C205.002 127.34 204.854 127.506 204.689 127.682C204.525 127.854 204.359 128.018 204.191 128.174C204.027 128.33 203.875 128.465 203.734 128.578H203.084V128.438C203.209 128.289 203.346 128.111 203.494 127.904C203.643 127.693 203.787 127.479 203.928 127.26C204.068 127.037 204.186 126.836 204.279 126.656H205.457ZM208.979 138.117C208.4 138.117 207.891 137.998 207.449 137.76C207.008 137.521 206.664 137.158 206.418 136.67C206.172 136.182 206.049 135.566 206.049 134.824C206.049 134.047 206.178 133.412 206.436 132.92C206.697 132.424 207.057 132.057 207.514 131.818C207.971 131.58 208.49 131.461 209.072 131.461C209.393 131.461 209.701 131.494 209.998 131.561C210.299 131.623 210.545 131.703 210.736 131.801L210.443 132.615C210.248 132.537 210.021 132.467 209.764 132.404C209.51 132.342 209.271 132.311 209.049 132.311C208.604 132.311 208.232 132.406 207.936 132.598C207.643 132.789 207.422 133.07 207.273 133.441C207.129 133.812 207.057 134.27 207.057 134.812C207.057 135.332 207.127 135.775 207.268 136.143C207.412 136.51 207.625 136.791 207.906 136.986C208.191 137.178 208.547 137.273 208.973 137.273C209.312 137.273 209.619 137.238 209.893 137.168C210.166 137.094 210.414 137.008 210.637 136.91V137.777C210.422 137.887 210.182 137.971 209.916 138.029C209.654 138.088 209.342 138.117 208.979 138.117ZM217.697 134.777C217.697 135.305 217.629 135.775 217.492 136.189C217.355 136.604 217.158 136.953 216.9 137.238C216.643 137.523 216.33 137.742 215.963 137.895C215.6 138.043 215.188 138.117 214.727 138.117C214.297 138.117 213.902 138.043 213.543 137.895C213.188 137.742 212.879 137.523 212.617 137.238C212.359 136.953 212.158 136.604 212.014 136.189C211.873 135.775 211.803 135.305 211.803 134.777C211.803 134.074 211.922 133.477 212.16 132.984C212.398 132.488 212.738 132.111 213.18 131.854C213.625 131.592 214.154 131.461 214.768 131.461C215.354 131.461 215.865 131.592 216.303 131.854C216.744 132.115 217.086 132.494 217.328 132.99C217.574 133.482 217.697 134.078 217.697 134.777ZM212.811 134.777C212.811 135.293 212.879 135.74 213.016 136.119C213.152 136.498 213.363 136.791 213.648 136.998C213.934 137.205 214.301 137.309 214.75 137.309C215.195 137.309 215.561 137.205 215.846 136.998C216.135 136.791 216.348 136.498 216.484 136.119C216.621 135.74 216.689 135.293 216.689 134.777C216.689 134.266 216.621 133.824 216.484 133.453C216.348 133.078 216.137 132.789 215.852 132.586C215.566 132.383 215.197 132.281 214.744 132.281C214.076 132.281 213.586 132.502 213.273 132.943C212.965 133.385 212.811 133.996 212.811 134.777ZM222.42 131.461C223.182 131.461 223.758 131.648 224.148 132.023C224.539 132.395 224.734 132.992 224.734 133.816V138H223.773V133.881C223.773 133.346 223.65 132.945 223.404 132.68C223.162 132.414 222.789 132.281 222.285 132.281C221.574 132.281 221.074 132.482 220.785 132.885C220.496 133.287 220.352 133.871 220.352 134.637V138H219.379V131.578H220.164L220.311 132.504H220.363C220.5 132.277 220.674 132.088 220.885 131.936C221.096 131.779 221.332 131.662 221.594 131.584C221.855 131.502 222.131 131.461 222.42 131.461ZM232.275 134.777C232.275 135.305 232.207 135.775 232.07 136.189C231.934 136.604 231.736 136.953 231.479 137.238C231.221 137.523 230.908 137.742 230.541 137.895C230.178 138.043 229.766 138.117 229.305 138.117C228.875 138.117 228.48 138.043 228.121 137.895C227.766 137.742 227.457 137.523 227.195 137.238C226.938 136.953 226.736 136.604 226.592 136.189C226.451 135.775 226.381 135.305 226.381 134.777C226.381 134.074 226.5 133.477 226.738 132.984C226.977 132.488 227.316 132.111 227.758 131.854C228.203 131.592 228.732 131.461 229.346 131.461C229.932 131.461 230.443 131.592 230.881 131.854C231.322 132.115 231.664 132.494 231.906 132.99C232.152 133.482 232.275 134.078 232.275 134.777ZM227.389 134.777C227.389 135.293 227.457 135.74 227.594 136.119C227.73 136.498 227.941 136.791 228.227 136.998C228.512 137.205 228.879 137.309 229.328 137.309C229.773 137.309 230.139 137.205 230.424 136.998C230.713 136.791 230.926 136.498 231.062 136.119C231.199 135.74 231.268 135.293 231.268 134.777C231.268 134.266 231.199 133.824 231.062 133.453C230.926 133.078 230.715 132.789 230.43 132.586C230.145 132.383 229.775 132.281 229.322 132.281C228.654 132.281 228.164 132.502 227.852 132.943C227.543 133.385 227.389 133.996 227.389 134.777ZM238.047 131.578V138H237.074V131.578H238.047ZM237.572 129.176C237.732 129.176 237.869 129.229 237.982 129.334C238.1 129.436 238.158 129.596 238.158 129.814C238.158 130.029 238.1 130.189 237.982 130.295C237.869 130.4 237.732 130.453 237.572 130.453C237.404 130.453 237.264 130.4 237.15 130.295C237.041 130.189 236.986 130.029 236.986 129.814C236.986 129.596 237.041 129.436 237.15 129.334C237.264 129.229 237.404 129.176 237.572 129.176ZM243.15 131.461C243.912 131.461 244.488 131.648 244.879 132.023C245.27 132.395 245.465 132.992 245.465 133.816V138H244.504V133.881C244.504 133.346 244.381 132.945 244.135 132.68C243.893 132.414 243.52 132.281 243.016 132.281C242.305 132.281 241.805 132.482 241.516 132.885C241.227 133.287 241.082 133.871 241.082 134.637V138H240.109V131.578H240.895L241.041 132.504H241.094C241.23 132.277 241.404 132.088 241.615 131.936C241.826 131.779 242.062 131.662 242.324 131.584C242.586 131.502 242.861 131.461 243.15 131.461ZM248.441 131.578V138H247.469V131.578H248.441ZM247.967 129.176C248.127 129.176 248.264 129.229 248.377 129.334C248.494 129.436 248.553 129.596 248.553 129.814C248.553 130.029 248.494 130.189 248.377 130.295C248.264 130.4 248.127 130.453 247.967 130.453C247.799 130.453 247.658 130.4 247.545 130.295C247.436 130.189 247.381 130.029 247.381 129.814C247.381 129.596 247.436 129.436 247.545 129.334C247.658 129.229 247.799 129.176 247.967 129.176ZM253.076 138.117C252.498 138.117 251.988 137.998 251.547 137.76C251.105 137.521 250.762 137.158 250.516 136.67C250.27 136.182 250.146 135.566 250.146 134.824C250.146 134.047 250.275 133.412 250.533 132.92C250.795 132.424 251.154 132.057 251.611 131.818C252.068 131.58 252.588 131.461 253.17 131.461C253.49 131.461 253.799 131.494 254.096 131.561C254.396 131.623 254.643 131.703 254.834 131.801L254.541 132.615C254.346 132.537 254.119 132.467 253.861 132.404C253.607 132.342 253.369 132.311 253.146 132.311C252.701 132.311 252.33 132.406 252.033 132.598C251.74 132.789 251.52 133.07 251.371 133.441C251.227 133.812 251.154 134.27 251.154 134.812C251.154 135.332 251.225 135.775 251.365 136.143C251.51 136.51 251.723 136.791 252.004 136.986C252.289 137.178 252.645 137.273 253.07 137.273C253.41 137.273 253.717 137.238 253.99 137.168C254.264 137.094 254.512 137.008 254.734 136.91V137.777C254.52 137.887 254.279 137.971 254.014 138.029C253.752 138.088 253.439 138.117 253.076 138.117ZM257.23 131.578V138H256.258V131.578H257.23ZM256.756 129.176C256.916 129.176 257.053 129.229 257.166 129.334C257.283 129.436 257.342 129.596 257.342 129.814C257.342 130.029 257.283 130.189 257.166 130.295C257.053 130.4 256.916 130.453 256.756 130.453C256.588 130.453 256.447 130.4 256.334 130.295C256.225 130.189 256.17 130.029 256.17 129.814C256.17 129.596 256.225 129.436 256.334 129.334C256.447 129.229 256.588 129.176 256.756 129.176ZM261.695 131.473C262.461 131.473 263.029 131.645 263.4 131.988C263.771 132.332 263.957 132.881 263.957 133.635V138H263.248L263.061 137.051H263.014C262.834 137.285 262.646 137.482 262.451 137.643C262.256 137.799 262.029 137.918 261.771 138C261.518 138.078 261.205 138.117 260.834 138.117C260.443 138.117 260.096 138.049 259.791 137.912C259.49 137.775 259.252 137.568 259.076 137.291C258.904 137.014 258.818 136.662 258.818 136.236C258.818 135.596 259.072 135.104 259.58 134.76C260.088 134.416 260.861 134.229 261.9 134.197L263.008 134.15V133.758C263.008 133.203 262.889 132.814 262.65 132.592C262.412 132.369 262.076 132.258 261.643 132.258C261.307 132.258 260.986 132.307 260.682 132.404C260.377 132.502 260.088 132.617 259.814 132.75L259.516 132.012C259.805 131.863 260.137 131.736 260.512 131.631C260.887 131.525 261.281 131.473 261.695 131.473ZM262.996 134.836L262.018 134.877C261.217 134.908 260.652 135.039 260.324 135.27C259.996 135.5 259.832 135.826 259.832 136.248C259.832 136.615 259.943 136.887 260.166 137.062C260.389 137.238 260.684 137.326 261.051 137.326C261.621 137.326 262.088 137.168 262.451 136.852C262.814 136.535 262.996 136.061 262.996 135.428V134.836ZM266.939 138H265.961V128.883H266.939V138Z" fill="#101E37"/>
<path d="M278.667 133C278.667 131.527 277.473 130.333 276 130.333C274.527 130.333 273.333 131.527 273.333 133C273.333 134.473 274.527 135.667 276 135.667C277.473 135.667 278.667 134.473 278.667 133ZM316 132.5H276V133.5H316V132.5Z" fill="#101E37"/>
<path d="M347.756 80H342.986V71.4336H347.756V72.3125H343.982V75.084H347.539V75.9512H343.982V79.1211H347.756V80ZM351.582 79.3203C351.742 79.3203 351.906 79.3066 352.074 79.2793C352.242 79.252 352.379 79.2188 352.484 79.1797V79.9355C352.371 79.9863 352.213 80.0293 352.01 80.0645C351.811 80.0996 351.615 80.1172 351.424 80.1172C351.084 80.1172 350.775 80.0586 350.498 79.9414C350.221 79.8203 349.998 79.6172 349.83 79.332C349.666 79.0469 349.584 78.6523 349.584 78.1484V74.3398H348.67V73.8652L349.59 73.4844L349.977 72.0898H350.562V73.5781H352.443V74.3398H350.562V78.1191C350.562 78.5215 350.654 78.8223 350.838 79.0215C351.025 79.2207 351.273 79.3203 351.582 79.3203ZM354.758 73.5781V80H353.785V73.5781H354.758ZM354.283 71.1758C354.443 71.1758 354.58 71.2285 354.693 71.334C354.811 71.4355 354.869 71.5957 354.869 71.8145C354.869 72.0293 354.811 72.1895 354.693 72.2949C354.58 72.4004 354.443 72.4531 354.283 72.4531C354.115 72.4531 353.975 72.4004 353.861 72.2949C353.752 72.1895 353.697 72.0293 353.697 71.8145C353.697 71.5957 353.752 71.4355 353.861 71.334C353.975 71.2285 354.115 71.1758 354.283 71.1758ZM361.127 82.8711V80.1172C361.127 79.9648 361.131 79.7891 361.139 79.5898C361.146 79.3906 361.16 79.2188 361.18 79.0742H361.115C360.936 79.3711 360.68 79.6191 360.348 79.8184C360.016 80.0176 359.588 80.1172 359.064 80.1172C358.279 80.1172 357.648 79.8398 357.172 79.2852C356.695 78.7305 356.457 77.9023 356.457 76.8008C356.457 76.0781 356.566 75.4688 356.785 74.9727C357.004 74.4766 357.312 74.1016 357.711 73.8477C358.113 73.5898 358.582 73.4609 359.117 73.4609C359.629 73.4609 360.047 73.5625 360.371 73.7656C360.695 73.9648 360.949 74.209 361.133 74.498H361.18L361.326 73.5781H362.1V82.8711H361.127ZM359.246 79.3086C359.699 79.3086 360.062 79.2246 360.336 79.0566C360.609 78.8848 360.809 78.627 360.934 78.2832C361.062 77.9395 361.131 77.5117 361.139 77V76.7949C361.139 75.9668 360.998 75.3398 360.717 74.9141C360.436 74.4844 359.945 74.2695 359.246 74.2695C358.645 74.2695 358.197 74.5 357.904 74.9609C357.611 75.418 357.465 76.0391 357.465 76.8242C357.465 77.6094 357.611 78.2207 357.904 78.6582C358.197 79.0918 358.645 79.3086 359.246 79.3086ZM369.471 73.5781V80H368.674L368.533 79.0977H368.48C368.348 79.3203 368.176 79.5078 367.965 79.6602C367.754 79.8125 367.516 79.9258 367.25 80C366.988 80.0781 366.709 80.1172 366.412 80.1172C365.904 80.1172 365.479 80.0352 365.135 79.8711C364.791 79.707 364.531 79.4531 364.355 79.1094C364.184 78.7656 364.098 78.3242 364.098 77.7852V73.5781H365.082V77.7148C365.082 78.25 365.203 78.6504 365.445 78.916C365.688 79.1777 366.057 79.3086 366.553 79.3086C367.029 79.3086 367.408 79.2188 367.689 79.0391C367.975 78.8594 368.18 78.5957 368.305 78.248C368.43 77.8965 368.492 77.4668 368.492 76.959V73.5781H369.471ZM374 73.4609C374.547 73.4609 375.016 73.582 375.406 73.8242C375.797 74.0664 376.096 74.4062 376.303 74.8438C376.51 75.2773 376.613 75.7852 376.613 76.3672V76.9707H372.178C372.189 77.7246 372.377 78.2988 372.74 78.6934C373.104 79.0879 373.615 79.2852 374.275 79.2852C374.682 79.2852 375.041 79.248 375.354 79.1738C375.666 79.0996 375.99 78.9902 376.326 78.8457V79.7012C376.002 79.8457 375.68 79.9512 375.359 80.0176C375.043 80.084 374.668 80.1172 374.234 80.1172C373.617 80.1172 373.078 79.9922 372.617 79.7422C372.16 79.4883 371.805 79.1172 371.551 78.6289C371.297 78.1406 371.17 77.543 371.17 76.8359C371.17 76.1445 371.285 75.5469 371.516 75.043C371.75 74.5352 372.078 74.1445 372.5 73.8711C372.926 73.5977 373.426 73.4609 374 73.4609ZM373.988 74.2578C373.469 74.2578 373.055 74.4277 372.746 74.7676C372.438 75.1074 372.254 75.582 372.195 76.1914H375.594C375.59 75.8086 375.529 75.4727 375.412 75.1836C375.299 74.8906 375.125 74.6641 374.891 74.5039C374.656 74.3398 374.355 74.2578 373.988 74.2578ZM380.34 79.3203C380.5 79.3203 380.664 79.3066 380.832 79.2793C381 79.252 381.137 79.2188 381.242 79.1797V79.9355C381.129 79.9863 380.971 80.0293 380.768 80.0645C380.568 80.0996 380.373 80.1172 380.182 80.1172C379.842 80.1172 379.533 80.0586 379.256 79.9414C378.979 79.8203 378.756 79.6172 378.588 79.332C378.424 79.0469 378.342 78.6523 378.342 78.1484V74.3398H377.428V73.8652L378.348 73.4844L378.734 72.0898H379.32V73.5781H381.201V74.3398H379.32V78.1191C379.32 78.5215 379.412 78.8223 379.596 79.0215C379.783 79.2207 380.031 79.3203 380.34 79.3203ZM384.945 73.4727C385.711 73.4727 386.279 73.6445 386.65 73.9883C387.021 74.332 387.207 74.8809 387.207 75.6348V80H386.498L386.311 79.0508H386.264C386.084 79.2852 385.896 79.4824 385.701 79.6426C385.506 79.7988 385.279 79.918 385.021 80C384.768 80.0781 384.455 80.1172 384.084 80.1172C383.693 80.1172 383.346 80.0488 383.041 79.9121C382.74 79.7754 382.502 79.5684 382.326 79.291C382.154 79.0137 382.068 78.6621 382.068 78.2363C382.068 77.5957 382.322 77.1035 382.83 76.7598C383.338 76.416 384.111 76.2285 385.15 76.1973L386.258 76.1504V75.7578C386.258 75.2031 386.139 74.8145 385.9 74.5918C385.662 74.3691 385.326 74.2578 384.893 74.2578C384.557 74.2578 384.236 74.3066 383.932 74.4043C383.627 74.502 383.338 74.6172 383.064 74.75L382.766 74.0117C383.055 73.8633 383.387 73.7363 383.762 73.6309C384.137 73.5254 384.531 73.4727 384.945 73.4727ZM386.246 76.8359L385.268 76.877C384.467 76.9082 383.902 77.0391 383.574 77.2695C383.246 77.5 383.082 77.8262 383.082 78.248C383.082 78.6152 383.193 78.8867 383.416 79.0625C383.639 79.2383 383.934 79.3262 384.301 79.3262C384.871 79.3262 385.338 79.168 385.701 78.8516C386.064 78.5352 386.246 78.0605 386.246 77.4277V76.8359Z" fill="#101E37"/>
<path d="M365 93.6667C366.473 93.6667 367.667 92.4728 367.667 91C367.667 89.5272 366.473 88.3333 365 88.3333C363.527 88.3333 362.333 89.5272 362.333 91C362.333 92.4728 363.527 93.6667 365 93.6667ZM365.5 123L365.5 91L364.5 91L364.5 123L365.5 123Z" fill="#101E37"/>
<path d="M365.812 191.667C367.285 191.667 368.479 190.473 368.479 189C368.479 187.527 367.285 186.333 365.813 186.333C364.34 186.333 363.146 187.527 363.146 189C363.146 190.473 364.34 191.667 365.812 191.667ZM366.312 189L366.313 157L365.313 157L365.312 189L366.312 189Z" fill="#101E37"/>
<path d="M337.283 202.189C336.811 202.189 336.385 202.271 336.006 202.436C335.631 202.596 335.311 202.83 335.045 203.139C334.783 203.443 334.582 203.812 334.441 204.246C334.301 204.68 334.23 205.168 334.23 205.711C334.23 206.43 334.342 207.055 334.564 207.586C334.791 208.113 335.127 208.521 335.572 208.811C336.021 209.1 336.582 209.244 337.254 209.244C337.637 209.244 337.996 209.213 338.332 209.15C338.672 209.084 339.002 209.002 339.322 208.904V209.771C339.01 209.889 338.682 209.975 338.338 210.029C337.994 210.088 337.586 210.117 337.113 210.117C336.242 210.117 335.514 209.938 334.928 209.578C334.346 209.215 333.908 208.703 333.615 208.043C333.326 207.383 333.182 206.604 333.182 205.705C333.182 205.057 333.271 204.465 333.451 203.93C333.635 203.391 333.9 202.926 334.248 202.535C334.6 202.145 335.029 201.844 335.537 201.633C336.049 201.418 336.635 201.311 337.295 201.311C337.729 201.311 338.146 201.354 338.549 201.439C338.951 201.525 339.314 201.648 339.639 201.809L339.24 202.652C338.967 202.527 338.666 202.42 338.338 202.33C338.014 202.236 337.662 202.189 337.283 202.189ZM346.57 206.777C346.57 207.305 346.502 207.775 346.365 208.189C346.229 208.604 346.031 208.953 345.773 209.238C345.516 209.523 345.203 209.742 344.836 209.895C344.473 210.043 344.061 210.117 343.6 210.117C343.17 210.117 342.775 210.043 342.416 209.895C342.061 209.742 341.752 209.523 341.49 209.238C341.232 208.953 341.031 208.604 340.887 208.189C340.746 207.775 340.676 207.305 340.676 206.777C340.676 206.074 340.795 205.477 341.033 204.984C341.271 204.488 341.611 204.111 342.053 203.854C342.498 203.592 343.027 203.461 343.641 203.461C344.227 203.461 344.738 203.592 345.176 203.854C345.617 204.115 345.959 204.494 346.201 204.99C346.447 205.482 346.57 206.078 346.57 206.777ZM341.684 206.777C341.684 207.293 341.752 207.74 341.889 208.119C342.025 208.498 342.236 208.791 342.521 208.998C342.807 209.205 343.174 209.309 343.623 209.309C344.068 209.309 344.434 209.205 344.719 208.998C345.008 208.791 345.221 208.498 345.357 208.119C345.494 207.74 345.562 207.293 345.562 206.777C345.562 206.266 345.494 205.824 345.357 205.453C345.221 205.078 345.01 204.789 344.725 204.586C344.439 204.383 344.07 204.281 343.617 204.281C342.949 204.281 342.459 204.502 342.146 204.943C341.838 205.385 341.684 205.996 341.684 206.777ZM351.293 203.461C352.055 203.461 352.631 203.648 353.021 204.023C353.412 204.395 353.607 204.992 353.607 205.816V210H352.646V205.881C352.646 205.346 352.523 204.945 352.277 204.68C352.035 204.414 351.662 204.281 351.158 204.281C350.447 204.281 349.947 204.482 349.658 204.885C349.369 205.287 349.225 205.871 349.225 206.637V210H348.252V203.578H349.037L349.184 204.504H349.236C349.373 204.277 349.547 204.088 349.758 203.936C349.969 203.779 350.205 203.662 350.467 203.584C350.729 203.502 351.004 203.461 351.293 203.461ZM357.686 209.32C357.846 209.32 358.01 209.307 358.178 209.279C358.346 209.252 358.482 209.219 358.588 209.18V209.936C358.475 209.986 358.316 210.029 358.113 210.064C357.914 210.1 357.719 210.117 357.527 210.117C357.188 210.117 356.879 210.059 356.602 209.941C356.324 209.82 356.102 209.617 355.934 209.332C355.77 209.047 355.688 208.652 355.688 208.148V204.34H354.773V203.865L355.693 203.484L356.08 202.09H356.666V203.578H358.547V204.34H356.666V208.119C356.666 208.521 356.758 208.822 356.941 209.021C357.129 209.221 357.377 209.32 357.686 209.32ZM362.361 203.461C362.908 203.461 363.377 203.582 363.768 203.824C364.158 204.066 364.457 204.406 364.664 204.844C364.871 205.277 364.975 205.785 364.975 206.367V206.971H360.539C360.551 207.725 360.738 208.299 361.102 208.693C361.465 209.088 361.977 209.285 362.637 209.285C363.043 209.285 363.402 209.248 363.715 209.174C364.027 209.1 364.352 208.99 364.688 208.846V209.701C364.363 209.846 364.041 209.951 363.721 210.018C363.404 210.084 363.029 210.117 362.596 210.117C361.979 210.117 361.439 209.992 360.979 209.742C360.521 209.488 360.166 209.117 359.912 208.629C359.658 208.141 359.531 207.543 359.531 206.836C359.531 206.145 359.646 205.547 359.877 205.043C360.111 204.535 360.439 204.145 360.861 203.871C361.287 203.598 361.787 203.461 362.361 203.461ZM362.35 204.258C361.83 204.258 361.416 204.428 361.107 204.768C360.799 205.107 360.615 205.582 360.557 206.191H363.955C363.951 205.809 363.891 205.473 363.773 205.184C363.66 204.891 363.486 204.664 363.252 204.504C363.018 204.34 362.717 204.258 362.35 204.258ZM369.668 203.461C370.43 203.461 371.006 203.648 371.396 204.023C371.787 204.395 371.982 204.992 371.982 205.816V210H371.021V205.881C371.021 205.346 370.898 204.945 370.652 204.68C370.41 204.414 370.037 204.281 369.533 204.281C368.822 204.281 368.322 204.482 368.033 204.885C367.744 205.287 367.6 205.871 367.6 206.637V210H366.627V203.578H367.412L367.559 204.504H367.611C367.748 204.277 367.922 204.088 368.133 203.936C368.344 203.779 368.58 203.662 368.842 203.584C369.104 203.502 369.379 203.461 369.668 203.461ZM376.459 203.461C377.006 203.461 377.475 203.582 377.865 203.824C378.256 204.066 378.555 204.406 378.762 204.844C378.969 205.277 379.072 205.785 379.072 206.367V206.971H374.637C374.648 207.725 374.836 208.299 375.199 208.693C375.562 209.088 376.074 209.285 376.734 209.285C377.141 209.285 377.5 209.248 377.812 209.174C378.125 209.1 378.449 208.99 378.785 208.846V209.701C378.461 209.846 378.139 209.951 377.818 210.018C377.502 210.084 377.127 210.117 376.693 210.117C376.076 210.117 375.537 209.992 375.076 209.742C374.619 209.488 374.264 209.117 374.01 208.629C373.756 208.141 373.629 207.543 373.629 206.836C373.629 206.145 373.744 205.547 373.975 205.043C374.209 204.535 374.537 204.145 374.959 203.871C375.385 203.598 375.885 203.461 376.459 203.461ZM376.447 204.258C375.928 204.258 375.514 204.428 375.205 204.768C374.896 205.107 374.713 205.582 374.654 206.191H378.053C378.049 205.809 377.988 205.473 377.871 205.184C377.758 204.891 377.584 204.664 377.35 204.504C377.115 204.34 376.814 204.258 376.447 204.258ZM383.01 210.117C382.197 210.117 381.553 209.84 381.076 209.285C380.604 208.73 380.367 207.906 380.367 206.812C380.367 205.707 380.609 204.873 381.094 204.311C381.578 203.744 382.223 203.461 383.027 203.461C383.367 203.461 383.664 203.506 383.918 203.596C384.172 203.686 384.391 203.807 384.574 203.959C384.758 204.107 384.912 204.277 385.037 204.469H385.107C385.092 204.348 385.076 204.182 385.061 203.971C385.045 203.76 385.037 203.588 385.037 203.455V200.883H386.01V210H385.225L385.078 209.086H385.037C384.916 209.277 384.762 209.451 384.574 209.607C384.391 209.764 384.17 209.889 383.912 209.982C383.658 210.072 383.357 210.117 383.01 210.117ZM383.162 209.309C383.85 209.309 384.336 209.113 384.621 208.723C384.906 208.332 385.049 207.752 385.049 206.982V206.807C385.049 205.99 384.912 205.363 384.639 204.926C384.369 204.488 383.877 204.27 383.162 204.27C382.564 204.27 382.117 204.5 381.82 204.961C381.523 205.418 381.375 206.043 381.375 206.836C381.375 207.625 381.521 208.234 381.814 208.664C382.111 209.094 382.561 209.309 383.162 209.309ZM393.609 206.777C393.609 207.305 393.541 207.775 393.404 208.189C393.268 208.604 393.07 208.953 392.812 209.238C392.555 209.523 392.242 209.742 391.875 209.895C391.512 210.043 391.1 210.117 390.639 210.117C390.209 210.117 389.814 210.043 389.455 209.895C389.1 209.742 388.791 209.523 388.529 209.238C388.271 208.953 388.07 208.604 387.926 208.189C387.785 207.775 387.715 207.305 387.715 206.777C387.715 206.074 387.834 205.477 388.072 204.984C388.311 204.488 388.65 204.111 389.092 203.854C389.537 203.592 390.066 203.461 390.68 203.461C391.266 203.461 391.777 203.592 392.215 203.854C392.656 204.115 392.998 204.494 393.24 204.99C393.486 205.482 393.609 206.078 393.609 206.777ZM388.723 206.777C388.723 207.293 388.791 207.74 388.928 208.119C389.064 208.498 389.275 208.791 389.561 208.998C389.846 209.205 390.213 209.309 390.662 209.309C391.107 209.309 391.473 209.205 391.758 208.998C392.047 208.791 392.26 208.498 392.396 208.119C392.533 207.74 392.602 207.293 392.602 206.777C392.602 206.266 392.533 205.824 392.396 205.453C392.26 205.078 392.049 204.789 391.764 204.586C391.479 204.383 391.109 204.281 390.656 204.281C389.988 204.281 389.498 204.502 389.186 204.943C388.877 205.385 388.723 205.996 388.723 206.777ZM398.209 203.461C398.338 203.461 398.473 203.469 398.613 203.484C398.754 203.496 398.879 203.514 398.988 203.537L398.865 204.439C398.76 204.412 398.643 204.391 398.514 204.375C398.385 204.359 398.264 204.352 398.15 204.352C397.893 204.352 397.648 204.404 397.418 204.51C397.191 204.611 396.992 204.76 396.82 204.955C396.648 205.146 396.514 205.379 396.416 205.652C396.318 205.922 396.27 206.223 396.27 206.555V210H395.291V203.578H396.1L396.205 204.762H396.246C396.379 204.523 396.539 204.307 396.727 204.111C396.914 203.912 397.131 203.754 397.377 203.637C397.627 203.52 397.904 203.461 398.209 203.461Z" fill="#101E37"/>
<path d="M456.333 133C456.333 131.527 457.527 130.333 459 130.333C460.473 130.333 461.667 131.527 461.667 133C461.667 134.473 460.473 135.667 459 135.667C457.527 135.667 456.333 134.473 456.333 133ZM419 132.5H459V133.5H419V132.5Z" fill="#101E37"/>
<path d="M468.598 138V129.434H469.594V138H468.598ZM470.854 126.656V126.773C470.775 126.887 470.668 127.023 470.531 127.184C470.398 127.34 470.25 127.506 470.086 127.682C469.922 127.854 469.756 128.018 469.588 128.174C469.424 128.33 469.271 128.465 469.131 128.578H468.48V128.438C468.605 128.289 468.742 128.111 468.891 127.904C469.039 127.693 469.184 127.479 469.324 127.26C469.465 127.037 469.582 126.836 469.676 126.656H470.854ZM474.375 138.117C473.797 138.117 473.287 137.998 472.846 137.76C472.404 137.521 472.061 137.158 471.814 136.67C471.568 136.182 471.445 135.566 471.445 134.824C471.445 134.047 471.574 133.412 471.832 132.92C472.094 132.424 472.453 132.057 472.91 131.818C473.367 131.58 473.887 131.461 474.469 131.461C474.789 131.461 475.098 131.494 475.395 131.561C475.695 131.623 475.941 131.703 476.133 131.801L475.84 132.615C475.645 132.537 475.418 132.467 475.16 132.404C474.906 132.342 474.668 132.311 474.445 132.311C474 132.311 473.629 132.406 473.332 132.598C473.039 132.789 472.818 133.07 472.67 133.441C472.525 133.812 472.453 134.27 472.453 134.812C472.453 135.332 472.523 135.775 472.664 136.143C472.809 136.51 473.021 136.791 473.303 136.986C473.588 137.178 473.943 137.273 474.369 137.273C474.709 137.273 475.016 137.238 475.289 137.168C475.562 137.094 475.811 137.008 476.033 136.91V137.777C475.818 137.887 475.578 137.971 475.312 138.029C475.051 138.088 474.738 138.117 474.375 138.117ZM483.094 134.777C483.094 135.305 483.025 135.775 482.889 136.189C482.752 136.604 482.555 136.953 482.297 137.238C482.039 137.523 481.727 137.742 481.359 137.895C480.996 138.043 480.584 138.117 480.123 138.117C479.693 138.117 479.299 138.043 478.939 137.895C478.584 137.742 478.275 137.523 478.014 137.238C477.756 136.953 477.555 136.604 477.41 136.189C477.27 135.775 477.199 135.305 477.199 134.777C477.199 134.074 477.318 133.477 477.557 132.984C477.795 132.488 478.135 132.111 478.576 131.854C479.021 131.592 479.551 131.461 480.164 131.461C480.75 131.461 481.262 131.592 481.699 131.854C482.141 132.115 482.482 132.494 482.725 132.99C482.971 133.482 483.094 134.078 483.094 134.777ZM478.207 134.777C478.207 135.293 478.275 135.74 478.412 136.119C478.549 136.498 478.76 136.791 479.045 136.998C479.33 137.205 479.697 137.309 480.146 137.309C480.592 137.309 480.957 137.205 481.242 136.998C481.531 136.791 481.744 136.498 481.881 136.119C482.018 135.74 482.086 135.293 482.086 134.777C482.086 134.266 482.018 133.824 481.881 133.453C481.744 133.078 481.533 132.789 481.248 132.586C480.963 132.383 480.594 132.281 480.141 132.281C479.473 132.281 478.982 132.502 478.67 132.943C478.361 133.385 478.207 133.996 478.207 134.777ZM487.816 131.461C488.578 131.461 489.154 131.648 489.545 132.023C489.936 132.395 490.131 132.992 490.131 133.816V138H489.17V133.881C489.17 133.346 489.047 132.945 488.801 132.68C488.559 132.414 488.186 132.281 487.682 132.281C486.971 132.281 486.471 132.482 486.182 132.885C485.893 133.287 485.748 133.871 485.748 134.637V138H484.775V131.578H485.561L485.707 132.504H485.76C485.896 132.277 486.07 132.088 486.281 131.936C486.492 131.779 486.729 131.662 486.99 131.584C487.252 131.502 487.527 131.461 487.816 131.461ZM497.672 134.777C497.672 135.305 497.604 135.775 497.467 136.189C497.33 136.604 497.133 136.953 496.875 137.238C496.617 137.523 496.305 137.742 495.938 137.895C495.574 138.043 495.162 138.117 494.701 138.117C494.271 138.117 493.877 138.043 493.518 137.895C493.162 137.742 492.854 137.523 492.592 137.238C492.334 136.953 492.133 136.604 491.988 136.189C491.848 135.775 491.777 135.305 491.777 134.777C491.777 134.074 491.896 133.477 492.135 132.984C492.373 132.488 492.713 132.111 493.154 131.854C493.6 131.592 494.129 131.461 494.742 131.461C495.328 131.461 495.84 131.592 496.277 131.854C496.719 132.115 497.061 132.494 497.303 132.99C497.549 133.482 497.672 134.078 497.672 134.777ZM492.785 134.777C492.785 135.293 492.854 135.74 492.99 136.119C493.127 136.498 493.338 136.791 493.623 136.998C493.908 137.205 494.275 137.309 494.725 137.309C495.17 137.309 495.535 137.205 495.82 136.998C496.109 136.791 496.322 136.498 496.459 136.119C496.596 135.74 496.664 135.293 496.664 134.777C496.664 134.266 496.596 133.824 496.459 133.453C496.322 133.078 496.111 132.789 495.826 132.586C495.541 132.383 495.172 132.281 494.719 132.281C494.051 132.281 493.561 132.502 493.248 132.943C492.939 133.385 492.785 133.996 492.785 134.777ZM505.33 132.34H503.73V138H502.758V132.34H501.621V131.871L502.758 131.549V131.121C502.758 130.582 502.838 130.145 502.998 129.809C503.158 129.469 503.391 129.219 503.695 129.059C504 128.898 504.371 128.818 504.809 128.818C505.055 128.818 505.279 128.84 505.482 128.883C505.689 128.926 505.871 128.975 506.027 129.029L505.775 129.797C505.643 129.754 505.492 129.715 505.324 129.68C505.16 129.641 504.992 129.621 504.82 129.621C504.449 129.621 504.174 129.742 503.994 129.984C503.818 130.223 503.73 130.598 503.73 131.109V131.578H505.33V132.34ZM507.48 131.578V138H506.508V131.578H507.48ZM507.006 129.176C507.166 129.176 507.303 129.229 507.416 129.334C507.533 129.436 507.592 129.596 507.592 129.814C507.592 130.029 507.533 130.189 507.416 130.295C507.303 130.4 507.166 130.453 507.006 130.453C506.838 130.453 506.697 130.4 506.584 130.295C506.475 130.189 506.42 130.029 506.42 129.814C506.42 129.596 506.475 129.436 506.584 129.334C506.697 129.229 506.838 129.176 507.006 129.176ZM512.578 131.461C513.34 131.461 513.916 131.648 514.307 132.023C514.697 132.395 514.893 132.992 514.893 133.816V138H513.932V133.881C513.932 133.346 513.809 132.945 513.562 132.68C513.32 132.414 512.947 132.281 512.443 132.281C511.732 132.281 511.232 132.482 510.943 132.885C510.654 133.287 510.51 133.871 510.51 134.637V138H509.537V131.578H510.322L510.469 132.504H510.521C510.658 132.277 510.832 132.088 511.043 131.936C511.254 131.779 511.49 131.662 511.752 131.584C512.014 131.502 512.289 131.461 512.578 131.461ZM519.299 131.473C520.064 131.473 520.633 131.645 521.004 131.988C521.375 132.332 521.561 132.881 521.561 133.635V138H520.852L520.664 137.051H520.617C520.438 137.285 520.25 137.482 520.055 137.643C519.859 137.799 519.633 137.918 519.375 138C519.121 138.078 518.809 138.117 518.438 138.117C518.047 138.117 517.699 138.049 517.395 137.912C517.094 137.775 516.855 137.568 516.68 137.291C516.508 137.014 516.422 136.662 516.422 136.236C516.422 135.596 516.676 135.104 517.184 134.76C517.691 134.416 518.465 134.229 519.504 134.197L520.611 134.15V133.758C520.611 133.203 520.492 132.814 520.254 132.592C520.016 132.369 519.68 132.258 519.246 132.258C518.91 132.258 518.59 132.307 518.285 132.404C517.98 132.502 517.691 132.617 517.418 132.75L517.119 132.012C517.408 131.863 517.74 131.736 518.115 131.631C518.49 131.525 518.885 131.473 519.299 131.473ZM520.6 134.836L519.621 134.877C518.82 134.908 518.256 135.039 517.928 135.27C517.6 135.5 517.436 135.826 517.436 136.248C517.436 136.615 517.547 136.887 517.77 137.062C517.992 137.238 518.287 137.326 518.654 137.326C519.225 137.326 519.691 137.168 520.055 136.852C520.418 136.535 520.6 136.061 520.6 135.428V134.836ZM524.543 138H523.564V128.883H524.543V138Z" fill="#101E37"/>
</svg>
