<svg width="728" height="160" viewBox="0 0 728 160" fill="none" xmlns="http://www.w3.org/2000/svg">
<rect x="1" y="1" width="726" height="158" rx="7" fill="white"/>
<rect x="1" y="1" width="726" height="158" rx="7" stroke="#E6EBF0" stroke-width="2"/>
<rect x="46" y="61" width="101" height="38" rx="7" stroke="#336ACC" stroke-width="2"/>
<path d="M63.538 86.144C63.166 86.144 62.878 86.042 62.674 85.838C62.482 85.622 62.386 85.328 62.386 84.956V74.48C62.386 74.096 62.488 73.808 62.692 73.616C62.896 73.412 63.184 73.31 63.556 73.31H67.894C69.286 73.31 70.36 73.658 71.116 74.354C71.872 75.05 72.25 76.022 72.25 77.27C72.25 78.518 71.872 79.496 71.116 80.204C70.36 80.9 69.286 81.248 67.894 81.248H64.69V84.956C64.69 85.328 64.594 85.622 64.402 85.838C64.21 86.042 63.922 86.144 63.538 86.144ZM64.69 79.43H67.534C68.35 79.43 68.968 79.25 69.388 78.89C69.808 78.518 70.018 77.978 70.018 77.27C70.018 76.562 69.808 76.028 69.388 75.668C68.968 75.308 68.35 75.128 67.534 75.128H64.69V79.43ZM74.8884 86.144C74.5164 86.144 74.2284 86.048 74.0244 85.856C73.8324 85.652 73.7364 85.364 73.7364 84.992V78.188C73.7364 77.816 73.8324 77.534 74.0244 77.342C74.2164 77.15 74.4864 77.054 74.8344 77.054C75.1824 77.054 75.4524 77.15 75.6444 77.342C75.8364 77.534 75.9324 77.816 75.9324 78.188V79.322H75.7524C75.9204 78.602 76.2504 78.056 76.7424 77.684C77.2344 77.312 77.8884 77.09 78.7044 77.018C78.9564 76.994 79.1544 77.06 79.2984 77.216C79.4544 77.36 79.5444 77.588 79.5684 77.9C79.5924 78.2 79.5204 78.446 79.3524 78.638C79.1964 78.818 78.9564 78.926 78.6324 78.962L78.2364 78.998C77.5044 79.07 76.9524 79.298 76.5804 79.682C76.2084 80.054 76.0224 80.582 76.0224 81.266V84.992C76.0224 85.364 75.9264 85.652 75.7344 85.856C75.5424 86.048 75.2604 86.144 74.8884 86.144ZM81.9012 86.126C81.5412 86.126 81.2652 86.018 81.0732 85.802C80.8812 85.586 80.7852 85.286 80.7852 84.902V78.296C80.7852 77.9 80.8812 77.6 81.0732 77.396C81.2652 77.18 81.5412 77.072 81.9012 77.072C82.2612 77.072 82.5372 77.18 82.7292 77.396C82.9332 77.6 83.0352 77.9 83.0352 78.296V84.902C83.0352 85.286 82.9392 85.586 82.7472 85.802C82.5552 86.018 82.2732 86.126 81.9012 86.126ZM81.9012 75.398C81.4812 75.398 81.1512 75.296 80.9112 75.092C80.6832 74.876 80.5692 74.582 80.5692 74.21C80.5692 73.826 80.6832 73.532 80.9112 73.328C81.1512 73.124 81.4812 73.022 81.9012 73.022C82.3332 73.022 82.6632 73.124 82.8912 73.328C83.1192 73.532 83.2332 73.826 83.2332 74.21C83.2332 74.582 83.1192 74.876 82.8912 75.092C82.6632 75.296 82.3332 75.398 81.9012 75.398ZM86.5251 86.144C86.1651 86.144 85.8891 86.048 85.6971 85.856C85.5051 85.652 85.4091 85.364 85.4091 84.992V78.188C85.4091 77.816 85.5051 77.534 85.6971 77.342C85.8891 77.15 86.1591 77.054 86.5071 77.054C86.8551 77.054 87.1251 77.15 87.3171 77.342C87.5091 77.534 87.6051 77.816 87.6051 78.188V79.502L87.4071 78.962C87.6471 78.362 88.0191 77.888 88.5231 77.54C89.0271 77.192 89.6271 77.018 90.3231 77.018C91.0311 77.018 91.6131 77.186 92.0691 77.522C92.5251 77.858 92.8431 78.374 93.0231 79.07H92.7711C93.0111 78.434 93.4071 77.936 93.9591 77.576C94.5111 77.204 95.1471 77.018 95.8671 77.018C96.5391 77.018 97.0911 77.15 97.5231 77.414C97.9671 77.678 98.2971 78.08 98.5131 78.62C98.7291 79.148 98.8371 79.82 98.8371 80.636V84.992C98.8371 85.364 98.7351 85.652 98.5311 85.856C98.3391 86.048 98.0631 86.144 97.7031 86.144C97.3431 86.144 97.0671 86.048 96.8751 85.856C96.6831 85.652 96.5871 85.364 96.5871 84.992V80.726C96.5871 80.054 96.4731 79.562 96.2451 79.25C96.0291 78.938 95.6571 78.782 95.1291 78.782C94.5411 78.782 94.0791 78.992 93.7431 79.412C93.4071 79.82 93.2391 80.39 93.2391 81.122V84.992C93.2391 85.364 93.1431 85.652 92.9511 85.856C92.7591 86.048 92.4831 86.144 92.1231 86.144C91.7631 86.144 91.4811 86.048 91.2771 85.856C91.0851 85.652 90.9891 85.364 90.9891 84.992V80.726C90.9891 80.054 90.8751 79.562 90.6471 79.25C90.4311 78.938 90.0651 78.782 89.5491 78.782C88.9611 78.782 88.4991 78.992 88.1631 79.412C87.8271 79.82 87.6591 80.39 87.6591 81.122V84.992C87.6591 85.76 87.2811 86.144 86.5251 86.144ZM104.056 86.18C103.42 86.18 102.85 86.06 102.346 85.82C101.854 85.568 101.464 85.232 101.176 84.812C100.9 84.392 100.762 83.918 100.762 83.39C100.762 82.742 100.93 82.232 101.266 81.86C101.602 81.476 102.148 81.2 102.904 81.032C103.66 80.864 104.674 80.78 105.946 80.78H106.846V82.076H105.964C105.22 82.076 104.626 82.112 104.182 82.184C103.738 82.256 103.42 82.382 103.228 82.562C103.048 82.73 102.958 82.97 102.958 83.282C102.958 83.678 103.096 84.002 103.372 84.254C103.648 84.506 104.032 84.632 104.524 84.632C104.92 84.632 105.268 84.542 105.568 84.362C105.88 84.17 106.126 83.912 106.306 83.588C106.486 83.264 106.576 82.892 106.576 82.472V80.402C106.576 79.802 106.444 79.37 106.18 79.106C105.916 78.842 105.472 78.71 104.848 78.71C104.5 78.71 104.122 78.752 103.714 78.836C103.318 78.92 102.898 79.064 102.454 79.268C102.226 79.376 102.022 79.406 101.842 79.358C101.674 79.31 101.542 79.214 101.446 79.07C101.35 78.914 101.302 78.746 101.302 78.566C101.302 78.386 101.35 78.212 101.446 78.044C101.542 77.864 101.704 77.732 101.932 77.648C102.484 77.42 103.012 77.258 103.516 77.162C104.032 77.066 104.5 77.018 104.92 77.018C105.784 77.018 106.492 77.15 107.044 77.414C107.608 77.678 108.028 78.08 108.304 78.62C108.58 79.148 108.718 79.832 108.718 80.672V84.992C108.718 85.364 108.628 85.652 108.448 85.856C108.268 86.048 108.01 86.144 107.674 86.144C107.338 86.144 107.074 86.048 106.882 85.856C106.702 85.652 106.612 85.364 106.612 84.992V84.128H106.756C106.672 84.548 106.504 84.914 106.252 85.226C106.012 85.526 105.706 85.76 105.334 85.928C104.962 86.096 104.536 86.18 104.056 86.18ZM112.154 86.144C111.782 86.144 111.494 86.048 111.29 85.856C111.098 85.652 111.002 85.364 111.002 84.992V78.188C111.002 77.816 111.098 77.534 111.29 77.342C111.482 77.15 111.752 77.054 112.1 77.054C112.448 77.054 112.718 77.15 112.91 77.342C113.102 77.534 113.198 77.816 113.198 78.188V79.322H113.018C113.186 78.602 113.516 78.056 114.008 77.684C114.5 77.312 115.154 77.09 115.97 77.018C116.222 76.994 116.42 77.06 116.564 77.216C116.72 77.36 116.81 77.588 116.834 77.9C116.858 78.2 116.786 78.446 116.618 78.638C116.462 78.818 116.222 78.926 115.898 78.962L115.502 78.998C114.77 79.07 114.218 79.298 113.846 79.682C113.474 80.054 113.288 80.582 113.288 81.266V84.992C113.288 85.364 113.192 85.652 113 85.856C112.808 86.048 112.526 86.144 112.154 86.144ZM119.167 86.126C118.807 86.126 118.531 86.018 118.339 85.802C118.147 85.586 118.051 85.286 118.051 84.902V78.296C118.051 77.9 118.147 77.6 118.339 77.396C118.531 77.18 118.807 77.072 119.167 77.072C119.527 77.072 119.803 77.18 119.995 77.396C120.199 77.6 120.301 77.9 120.301 78.296V84.902C120.301 85.286 120.205 85.586 120.013 85.802C119.821 86.018 119.539 86.126 119.167 86.126ZM119.167 75.398C118.747 75.398 118.417 75.296 118.177 75.092C117.949 74.876 117.835 74.582 117.835 74.21C117.835 73.826 117.949 73.532 118.177 73.328C118.417 73.124 118.747 73.022 119.167 73.022C119.599 73.022 119.929 73.124 120.157 73.328C120.385 73.532 120.499 73.826 120.499 74.21C120.499 74.582 120.385 74.876 120.157 75.092C119.929 75.296 119.599 75.398 119.167 75.398ZM126.653 86.18C125.741 86.18 124.949 85.994 124.277 85.622C123.605 85.25 123.083 84.722 122.711 84.038C122.339 83.342 122.153 82.526 122.153 81.59C122.153 80.882 122.255 80.252 122.459 79.7C122.675 79.136 122.981 78.656 123.377 78.26C123.773 77.852 124.247 77.546 124.799 77.342C125.351 77.126 125.969 77.018 126.653 77.018C127.565 77.018 128.357 77.204 129.029 77.576C129.701 77.948 130.223 78.476 130.595 79.16C130.967 79.844 131.153 80.654 131.153 81.59C131.153 82.298 131.045 82.934 130.829 83.498C130.625 84.062 130.325 84.548 129.929 84.956C129.533 85.352 129.059 85.658 128.507 85.874C127.955 86.078 127.337 86.18 126.653 86.18ZM126.653 84.47C127.097 84.47 127.487 84.362 127.823 84.146C128.159 83.93 128.417 83.612 128.597 83.192C128.789 82.76 128.885 82.226 128.885 81.59C128.885 80.63 128.681 79.916 128.273 79.448C127.865 78.968 127.325 78.728 126.653 78.728C126.209 78.728 125.819 78.836 125.483 79.052C125.147 79.256 124.883 79.574 124.691 80.006C124.511 80.426 124.421 80.954 124.421 81.59C124.421 82.538 124.625 83.258 125.033 83.75C125.441 84.23 125.981 84.47 126.653 84.47Z" fill="#336ACC"/>
<rect x="161" y="61" width="124" height="38" rx="7" stroke="#101E37" stroke-width="2"/>
<path d="M181.76 86.18C181.232 86.18 180.704 86.138 180.176 86.054C179.648 85.982 179.15 85.868 178.682 85.712C178.214 85.544 177.794 85.34 177.422 85.1C177.206 84.956 177.056 84.782 176.972 84.578C176.888 84.374 176.858 84.176 176.882 83.984C176.918 83.78 176.996 83.606 177.116 83.462C177.248 83.306 177.41 83.21 177.602 83.174C177.794 83.138 178.004 83.192 178.232 83.336C178.76 83.648 179.318 83.876 179.906 84.02C180.494 84.164 181.112 84.236 181.76 84.236C182.708 84.236 183.398 84.08 183.83 83.768C184.262 83.444 184.478 83.03 184.478 82.526C184.478 82.106 184.322 81.776 184.01 81.536C183.71 81.296 183.188 81.098 182.444 80.942L180.464 80.528C179.324 80.288 178.472 79.886 177.908 79.322C177.356 78.746 177.08 77.99 177.08 77.054C177.08 76.466 177.2 75.932 177.44 75.452C177.68 74.972 178.016 74.558 178.448 74.21C178.892 73.862 179.414 73.598 180.014 73.418C180.626 73.226 181.298 73.13 182.03 73.13C182.75 73.13 183.434 73.22 184.082 73.4C184.73 73.58 185.312 73.844 185.828 74.192C186.02 74.324 186.146 74.486 186.206 74.678C186.278 74.87 186.296 75.062 186.26 75.254C186.224 75.434 186.14 75.59 186.008 75.722C185.876 75.854 185.708 75.932 185.504 75.956C185.312 75.98 185.09 75.92 184.838 75.776C184.394 75.524 183.944 75.344 183.488 75.236C183.032 75.128 182.54 75.074 182.012 75.074C181.46 75.074 180.986 75.152 180.59 75.308C180.194 75.464 179.888 75.686 179.672 75.974C179.468 76.25 179.366 76.58 179.366 76.964C179.366 77.396 179.51 77.744 179.798 78.008C180.086 78.26 180.578 78.458 181.274 78.602L183.236 79.016C184.424 79.268 185.306 79.664 185.882 80.204C186.47 80.744 186.764 81.464 186.764 82.364C186.764 82.94 186.644 83.462 186.404 83.93C186.176 84.398 185.84 84.8 185.396 85.136C184.964 85.472 184.442 85.73 183.83 85.91C183.218 86.09 182.528 86.18 181.76 86.18ZM192.863 86.18C191.867 86.18 191.009 85.994 190.289 85.622C189.569 85.25 189.011 84.722 188.615 84.038C188.231 83.354 188.039 82.544 188.039 81.608C188.039 80.696 188.225 79.898 188.597 79.214C188.981 78.53 189.503 77.996 190.163 77.612C190.835 77.216 191.597 77.018 192.449 77.018C193.073 77.018 193.631 77.12 194.123 77.324C194.627 77.528 195.053 77.822 195.401 78.206C195.761 78.59 196.031 79.058 196.211 79.61C196.403 80.15 196.499 80.762 196.499 81.446C196.499 81.662 196.421 81.83 196.265 81.95C196.121 82.058 195.911 82.112 195.635 82.112H189.857V80.816H194.915L194.627 81.086C194.627 80.534 194.543 80.072 194.375 79.7C194.219 79.328 193.985 79.046 193.673 78.854C193.373 78.65 192.995 78.548 192.539 78.548C192.035 78.548 191.603 78.668 191.243 78.908C190.895 79.136 190.625 79.466 190.433 79.898C190.253 80.318 190.163 80.822 190.163 81.41V81.536C190.163 82.52 190.391 83.258 190.847 83.75C191.315 84.23 191.999 84.47 192.899 84.47C193.211 84.47 193.559 84.434 193.943 84.362C194.339 84.278 194.711 84.14 195.059 83.948C195.311 83.804 195.533 83.744 195.725 83.768C195.917 83.78 196.067 83.846 196.175 83.966C196.295 84.086 196.367 84.236 196.391 84.416C196.415 84.584 196.379 84.758 196.283 84.938C196.199 85.118 196.049 85.274 195.833 85.406C195.413 85.67 194.927 85.868 194.375 86C193.835 86.12 193.331 86.18 192.863 86.18ZM202.349 86.18C201.425 86.18 200.621 85.994 199.937 85.622C199.253 85.238 198.725 84.698 198.353 84.002C197.981 83.306 197.795 82.49 197.795 81.554C197.795 80.846 197.897 80.216 198.101 79.664C198.317 79.1 198.623 78.626 199.019 78.242C199.415 77.846 199.895 77.546 200.459 77.342C201.023 77.126 201.653 77.018 202.349 77.018C202.745 77.018 203.171 77.072 203.627 77.18C204.095 77.288 204.533 77.468 204.941 77.72C205.133 77.84 205.259 77.984 205.319 78.152C205.379 78.32 205.391 78.494 205.355 78.674C205.319 78.842 205.241 78.992 205.121 79.124C205.013 79.244 204.875 79.322 204.707 79.358C204.539 79.382 204.353 79.34 204.149 79.232C203.885 79.076 203.615 78.962 203.339 78.89C203.063 78.806 202.799 78.764 202.547 78.764C202.151 78.764 201.803 78.83 201.503 78.962C201.203 79.082 200.945 79.262 200.729 79.502C200.525 79.73 200.369 80.018 200.261 80.366C200.153 80.714 200.099 81.116 200.099 81.572C200.099 82.46 200.309 83.162 200.729 83.678C201.161 84.182 201.767 84.434 202.547 84.434C202.799 84.434 203.057 84.398 203.321 84.326C203.597 84.254 203.873 84.14 204.149 83.984C204.353 83.876 204.533 83.84 204.689 83.876C204.857 83.912 204.995 83.996 205.103 84.128C205.211 84.248 205.277 84.398 205.301 84.578C205.325 84.746 205.301 84.914 205.229 85.082C205.169 85.25 205.049 85.388 204.869 85.496C204.473 85.736 204.053 85.91 203.609 86.018C203.165 86.126 202.745 86.18 202.349 86.18ZM209.958 86.18C209.226 86.18 208.62 86.048 208.14 85.784C207.66 85.508 207.3 85.1 207.06 84.56C206.832 84.02 206.718 83.348 206.718 82.544V78.188C206.718 77.804 206.814 77.522 207.006 77.342C207.198 77.15 207.474 77.054 207.834 77.054C208.194 77.054 208.47 77.15 208.662 77.342C208.866 77.522 208.968 77.804 208.968 78.188V82.58C208.968 83.204 209.094 83.666 209.346 83.966C209.598 84.266 210 84.416 210.552 84.416C211.152 84.416 211.644 84.212 212.028 83.804C212.412 83.384 212.604 82.832 212.604 82.148V78.188C212.604 77.804 212.7 77.522 212.892 77.342C213.084 77.15 213.36 77.054 213.72 77.054C214.08 77.054 214.356 77.15 214.548 77.342C214.752 77.522 214.854 77.804 214.854 78.188V84.992C214.854 85.76 214.488 86.144 213.756 86.144C213.408 86.144 213.138 86.048 212.946 85.856C212.754 85.652 212.658 85.364 212.658 84.992V83.624L212.91 84.164C212.658 84.812 212.274 85.31 211.758 85.658C211.254 86.006 210.654 86.18 209.958 86.18ZM218.311 86.144C217.951 86.144 217.675 86.048 217.483 85.856C217.291 85.652 217.195 85.364 217.195 84.992V78.188C217.195 77.816 217.291 77.534 217.483 77.342C217.675 77.15 217.945 77.054 218.293 77.054C218.641 77.054 218.911 77.15 219.103 77.342C219.295 77.534 219.391 77.816 219.391 78.188V79.412L219.193 78.962C219.457 78.326 219.865 77.846 220.417 77.522C220.981 77.186 221.617 77.018 222.325 77.018C223.033 77.018 223.615 77.15 224.071 77.414C224.527 77.678 224.869 78.08 225.097 78.62C225.325 79.148 225.439 79.82 225.439 80.636V84.992C225.439 85.364 225.343 85.652 225.151 85.856C224.959 86.048 224.683 86.144 224.323 86.144C223.963 86.144 223.681 86.048 223.477 85.856C223.285 85.652 223.189 85.364 223.189 84.992V80.744C223.189 80.06 223.057 79.562 222.793 79.25C222.541 78.938 222.145 78.782 221.605 78.782C220.945 78.782 220.417 78.992 220.021 79.412C219.637 79.82 219.445 80.366 219.445 81.05V84.992C219.445 85.76 219.067 86.144 218.311 86.144ZM231.109 86.18C230.341 86.18 229.663 85.994 229.075 85.622C228.499 85.25 228.049 84.722 227.725 84.038C227.401 83.342 227.239 82.526 227.239 81.59C227.239 80.642 227.401 79.832 227.725 79.16C228.049 78.476 228.499 77.948 229.075 77.576C229.663 77.204 230.341 77.018 231.109 77.018C231.841 77.018 232.477 77.198 233.017 77.558C233.569 77.918 233.941 78.392 234.133 78.98H233.935V74.3C233.935 73.928 234.031 73.646 234.223 73.454C234.415 73.262 234.691 73.166 235.051 73.166C235.411 73.166 235.687 73.262 235.879 73.454C236.083 73.646 236.185 73.928 236.185 74.3V84.992C236.185 85.364 236.089 85.652 235.897 85.856C235.705 86.048 235.429 86.144 235.069 86.144C234.709 86.144 234.433 86.048 234.241 85.856C234.049 85.652 233.953 85.364 233.953 84.992V83.588L234.151 84.128C233.971 84.752 233.605 85.25 233.053 85.622C232.501 85.994 231.853 86.18 231.109 86.18ZM231.739 84.47C232.183 84.47 232.573 84.362 232.909 84.146C233.245 83.93 233.503 83.612 233.683 83.192C233.875 82.76 233.971 82.226 233.971 81.59C233.971 80.63 233.767 79.916 233.359 79.448C232.951 78.968 232.411 78.728 231.739 78.728C231.295 78.728 230.905 78.836 230.569 79.052C230.233 79.256 229.969 79.574 229.777 80.006C229.597 80.426 229.507 80.954 229.507 81.59C229.507 82.538 229.711 83.258 230.119 83.75C230.527 84.23 231.067 84.47 231.739 84.47ZM241.416 86.18C240.78 86.18 240.21 86.06 239.706 85.82C239.214 85.568 238.824 85.232 238.536 84.812C238.26 84.392 238.122 83.918 238.122 83.39C238.122 82.742 238.29 82.232 238.626 81.86C238.962 81.476 239.508 81.2 240.264 81.032C241.02 80.864 242.034 80.78 243.306 80.78H244.206V82.076H243.324C242.58 82.076 241.986 82.112 241.542 82.184C241.098 82.256 240.78 82.382 240.588 82.562C240.408 82.73 240.318 82.97 240.318 83.282C240.318 83.678 240.456 84.002 240.732 84.254C241.008 84.506 241.392 84.632 241.884 84.632C242.28 84.632 242.628 84.542 242.928 84.362C243.24 84.17 243.486 83.912 243.666 83.588C243.846 83.264 243.936 82.892 243.936 82.472V80.402C243.936 79.802 243.804 79.37 243.54 79.106C243.276 78.842 242.832 78.71 242.208 78.71C241.86 78.71 241.482 78.752 241.074 78.836C240.678 78.92 240.258 79.064 239.814 79.268C239.586 79.376 239.382 79.406 239.202 79.358C239.034 79.31 238.902 79.214 238.806 79.07C238.71 78.914 238.662 78.746 238.662 78.566C238.662 78.386 238.71 78.212 238.806 78.044C238.902 77.864 239.064 77.732 239.292 77.648C239.844 77.42 240.372 77.258 240.876 77.162C241.392 77.066 241.86 77.018 242.28 77.018C243.144 77.018 243.852 77.15 244.404 77.414C244.968 77.678 245.388 78.08 245.664 78.62C245.94 79.148 246.078 79.832 246.078 80.672V84.992C246.078 85.364 245.988 85.652 245.808 85.856C245.628 86.048 245.37 86.144 245.034 86.144C244.698 86.144 244.434 86.048 244.242 85.856C244.062 85.652 243.972 85.364 243.972 84.992V84.128H244.116C244.032 84.548 243.864 84.914 243.612 85.226C243.372 85.526 243.066 85.76 242.694 85.928C242.322 86.096 241.896 86.18 241.416 86.18ZM249.513 86.144C249.141 86.144 248.853 86.048 248.649 85.856C248.457 85.652 248.361 85.364 248.361 84.992V78.188C248.361 77.816 248.457 77.534 248.649 77.342C248.841 77.15 249.111 77.054 249.459 77.054C249.807 77.054 250.077 77.15 250.269 77.342C250.461 77.534 250.557 77.816 250.557 78.188V79.322H250.377C250.545 78.602 250.875 78.056 251.367 77.684C251.859 77.312 252.513 77.09 253.329 77.018C253.581 76.994 253.779 77.06 253.923 77.216C254.079 77.36 254.169 77.588 254.193 77.9C254.217 78.2 254.145 78.446 253.977 78.638C253.821 78.818 253.581 78.926 253.257 78.962L252.861 78.998C252.129 79.07 251.577 79.298 251.205 79.682C250.833 80.054 250.647 80.582 250.647 81.266V84.992C250.647 85.364 250.551 85.652 250.359 85.856C250.167 86.048 249.885 86.144 249.513 86.144ZM256.526 86.126C256.166 86.126 255.89 86.018 255.698 85.802C255.506 85.586 255.41 85.286 255.41 84.902V78.296C255.41 77.9 255.506 77.6 255.698 77.396C255.89 77.18 256.166 77.072 256.526 77.072C256.886 77.072 257.162 77.18 257.354 77.396C257.558 77.6 257.66 77.9 257.66 78.296V84.902C257.66 85.286 257.564 85.586 257.372 85.802C257.18 86.018 256.898 86.126 256.526 86.126ZM256.526 75.398C256.106 75.398 255.776 75.296 255.536 75.092C255.308 74.876 255.194 74.582 255.194 74.21C255.194 73.826 255.308 73.532 255.536 73.328C255.776 73.124 256.106 73.022 256.526 73.022C256.958 73.022 257.288 73.124 257.516 73.328C257.744 73.532 257.858 73.826 257.858 74.21C257.858 74.582 257.744 74.876 257.516 75.092C257.288 75.296 256.958 75.398 256.526 75.398ZM264.012 86.18C263.1 86.18 262.308 85.994 261.636 85.622C260.964 85.25 260.442 84.722 260.07 84.038C259.698 83.342 259.512 82.526 259.512 81.59C259.512 80.882 259.614 80.252 259.818 79.7C260.034 79.136 260.34 78.656 260.736 78.26C261.132 77.852 261.606 77.546 262.158 77.342C262.71 77.126 263.328 77.018 264.012 77.018C264.924 77.018 265.716 77.204 266.388 77.576C267.06 77.948 267.582 78.476 267.954 79.16C268.326 79.844 268.512 80.654 268.512 81.59C268.512 82.298 268.404 82.934 268.188 83.498C267.984 84.062 267.684 84.548 267.288 84.956C266.892 85.352 266.418 85.658 265.866 85.874C265.314 86.078 264.696 86.18 264.012 86.18ZM264.012 84.47C264.456 84.47 264.846 84.362 265.182 84.146C265.518 83.93 265.776 83.612 265.956 83.192C266.148 82.76 266.244 82.226 266.244 81.59C266.244 80.63 266.04 79.916 265.632 79.448C265.224 78.968 264.684 78.728 264.012 78.728C263.568 78.728 263.178 78.836 262.842 79.052C262.506 79.256 262.242 79.574 262.05 80.006C261.87 80.426 261.78 80.954 261.78 81.59C261.78 82.538 261.984 83.258 262.392 83.75C262.8 84.23 263.34 84.47 264.012 84.47Z" fill="#101E37"/>
<rect x="299" y="61" width="102" height="38" rx="7" stroke="#005E7A" stroke-width="2"/>
<path d="M319.598 86.144C319.226 86.144 318.938 86.042 318.734 85.838C318.542 85.622 318.446 85.328 318.446 84.956V75.236H314.936C314.624 75.236 314.378 75.152 314.198 74.984C314.03 74.804 313.946 74.564 313.946 74.264C313.946 73.952 314.03 73.718 314.198 73.562C314.378 73.394 314.624 73.31 314.936 73.31H324.26C324.572 73.31 324.812 73.394 324.98 73.562C325.16 73.718 325.25 73.952 325.25 74.264C325.25 74.564 325.16 74.804 324.98 74.984C324.812 75.152 324.572 75.236 324.26 75.236H320.75V84.956C320.75 85.328 320.654 85.622 320.462 85.838C320.27 86.042 319.982 86.144 319.598 86.144ZM329.281 86.18C328.285 86.18 327.427 85.994 326.707 85.622C325.987 85.25 325.429 84.722 325.033 84.038C324.649 83.354 324.457 82.544 324.457 81.608C324.457 80.696 324.643 79.898 325.015 79.214C325.399 78.53 325.921 77.996 326.581 77.612C327.253 77.216 328.015 77.018 328.867 77.018C329.491 77.018 330.049 77.12 330.541 77.324C331.045 77.528 331.471 77.822 331.819 78.206C332.179 78.59 332.449 79.058 332.629 79.61C332.821 80.15 332.917 80.762 332.917 81.446C332.917 81.662 332.839 81.83 332.683 81.95C332.539 82.058 332.329 82.112 332.053 82.112H326.275V80.816H331.333L331.045 81.086C331.045 80.534 330.961 80.072 330.793 79.7C330.637 79.328 330.403 79.046 330.091 78.854C329.791 78.65 329.413 78.548 328.957 78.548C328.453 78.548 328.021 78.668 327.661 78.908C327.313 79.136 327.043 79.466 326.851 79.898C326.671 80.318 326.581 80.822 326.581 81.41V81.536C326.581 82.52 326.809 83.258 327.265 83.75C327.733 84.23 328.417 84.47 329.317 84.47C329.629 84.47 329.977 84.434 330.361 84.362C330.757 84.278 331.129 84.14 331.477 83.948C331.729 83.804 331.951 83.744 332.143 83.768C332.335 83.78 332.485 83.846 332.593 83.966C332.713 84.086 332.785 84.236 332.809 84.416C332.833 84.584 332.797 84.758 332.701 84.938C332.617 85.118 332.467 85.274 332.251 85.406C331.831 85.67 331.345 85.868 330.793 86C330.253 86.12 329.749 86.18 329.281 86.18ZM335.851 86.144C335.479 86.144 335.191 86.048 334.987 85.856C334.795 85.652 334.699 85.364 334.699 84.992V78.188C334.699 77.816 334.795 77.534 334.987 77.342C335.179 77.15 335.449 77.054 335.797 77.054C336.145 77.054 336.415 77.15 336.607 77.342C336.799 77.534 336.895 77.816 336.895 78.188V79.322H336.715C336.883 78.602 337.213 78.056 337.705 77.684C338.197 77.312 338.851 77.09 339.667 77.018C339.919 76.994 340.117 77.06 340.261 77.216C340.417 77.36 340.507 77.588 340.531 77.9C340.555 78.2 340.483 78.446 340.315 78.638C340.159 78.818 339.919 78.926 339.595 78.962L339.199 78.998C338.467 79.07 337.915 79.298 337.543 79.682C337.171 80.054 336.985 80.582 336.985 81.266V84.992C336.985 85.364 336.889 85.652 336.697 85.856C336.505 86.048 336.223 86.144 335.851 86.144ZM345.676 86.18C344.752 86.18 343.948 85.994 343.264 85.622C342.58 85.238 342.052 84.698 341.68 84.002C341.308 83.306 341.122 82.49 341.122 81.554C341.122 80.846 341.224 80.216 341.428 79.664C341.644 79.1 341.95 78.626 342.346 78.242C342.742 77.846 343.222 77.546 343.786 77.342C344.35 77.126 344.98 77.018 345.676 77.018C346.072 77.018 346.498 77.072 346.954 77.18C347.422 77.288 347.86 77.468 348.268 77.72C348.46 77.84 348.586 77.984 348.646 78.152C348.706 78.32 348.718 78.494 348.682 78.674C348.646 78.842 348.568 78.992 348.448 79.124C348.34 79.244 348.202 79.322 348.034 79.358C347.866 79.382 347.68 79.34 347.476 79.232C347.212 79.076 346.942 78.962 346.666 78.89C346.39 78.806 346.126 78.764 345.874 78.764C345.478 78.764 345.13 78.83 344.83 78.962C344.53 79.082 344.272 79.262 344.056 79.502C343.852 79.73 343.696 80.018 343.588 80.366C343.48 80.714 343.426 81.116 343.426 81.572C343.426 82.46 343.636 83.162 344.056 83.678C344.488 84.182 345.094 84.434 345.874 84.434C346.126 84.434 346.384 84.398 346.648 84.326C346.924 84.254 347.2 84.14 347.476 83.984C347.68 83.876 347.86 83.84 348.016 83.876C348.184 83.912 348.322 83.996 348.43 84.128C348.538 84.248 348.604 84.398 348.628 84.578C348.652 84.746 348.628 84.914 348.556 85.082C348.496 85.25 348.376 85.388 348.196 85.496C347.8 85.736 347.38 85.91 346.936 86.018C346.492 86.126 346.072 86.18 345.676 86.18ZM351.214 86.126C350.854 86.126 350.578 86.018 350.386 85.802C350.194 85.586 350.098 85.286 350.098 84.902V78.296C350.098 77.9 350.194 77.6 350.386 77.396C350.578 77.18 350.854 77.072 351.214 77.072C351.574 77.072 351.85 77.18 352.042 77.396C352.246 77.6 352.348 77.9 352.348 78.296V84.902C352.348 85.286 352.252 85.586 352.06 85.802C351.868 86.018 351.586 86.126 351.214 86.126ZM351.214 75.398C350.794 75.398 350.464 75.296 350.224 75.092C349.996 74.876 349.882 74.582 349.882 74.21C349.882 73.826 349.996 73.532 350.224 73.328C350.464 73.124 350.794 73.022 351.214 73.022C351.646 73.022 351.976 73.124 352.204 73.328C352.432 73.532 352.546 73.826 352.546 74.21C352.546 74.582 352.432 74.876 352.204 75.092C351.976 75.296 351.646 75.398 351.214 75.398ZM357.584 86.18C356.948 86.18 356.378 86.06 355.874 85.82C355.382 85.568 354.992 85.232 354.704 84.812C354.428 84.392 354.29 83.918 354.29 83.39C354.29 82.742 354.458 82.232 354.794 81.86C355.13 81.476 355.676 81.2 356.432 81.032C357.188 80.864 358.202 80.78 359.474 80.78H360.374V82.076H359.492C358.748 82.076 358.154 82.112 357.71 82.184C357.266 82.256 356.948 82.382 356.756 82.562C356.576 82.73 356.486 82.97 356.486 83.282C356.486 83.678 356.624 84.002 356.9 84.254C357.176 84.506 357.56 84.632 358.052 84.632C358.448 84.632 358.796 84.542 359.096 84.362C359.408 84.17 359.654 83.912 359.834 83.588C360.014 83.264 360.104 82.892 360.104 82.472V80.402C360.104 79.802 359.972 79.37 359.708 79.106C359.444 78.842 359 78.71 358.376 78.71C358.028 78.71 357.65 78.752 357.242 78.836C356.846 78.92 356.426 79.064 355.982 79.268C355.754 79.376 355.55 79.406 355.37 79.358C355.202 79.31 355.07 79.214 354.974 79.07C354.878 78.914 354.83 78.746 354.83 78.566C354.83 78.386 354.878 78.212 354.974 78.044C355.07 77.864 355.232 77.732 355.46 77.648C356.012 77.42 356.54 77.258 357.044 77.162C357.56 77.066 358.028 77.018 358.448 77.018C359.312 77.018 360.02 77.15 360.572 77.414C361.136 77.678 361.556 78.08 361.832 78.62C362.108 79.148 362.246 79.832 362.246 80.672V84.992C362.246 85.364 362.156 85.652 361.976 85.856C361.796 86.048 361.538 86.144 361.202 86.144C360.866 86.144 360.602 86.048 360.41 85.856C360.23 85.652 360.14 85.364 360.14 84.992V84.128H360.284C360.2 84.548 360.032 84.914 359.78 85.226C359.54 85.526 359.234 85.76 358.862 85.928C358.49 86.096 358.064 86.18 357.584 86.18ZM365.681 86.144C365.309 86.144 365.021 86.048 364.817 85.856C364.625 85.652 364.529 85.364 364.529 84.992V78.188C364.529 77.816 364.625 77.534 364.817 77.342C365.009 77.15 365.279 77.054 365.627 77.054C365.975 77.054 366.245 77.15 366.437 77.342C366.629 77.534 366.725 77.816 366.725 78.188V79.322H366.545C366.713 78.602 367.043 78.056 367.535 77.684C368.027 77.312 368.681 77.09 369.497 77.018C369.749 76.994 369.947 77.06 370.091 77.216C370.247 77.36 370.337 77.588 370.361 77.9C370.385 78.2 370.313 78.446 370.145 78.638C369.989 78.818 369.749 78.926 369.425 78.962L369.029 78.998C368.297 79.07 367.745 79.298 367.373 79.682C367.001 80.054 366.815 80.582 366.815 81.266V84.992C366.815 85.364 366.719 85.652 366.527 85.856C366.335 86.048 366.053 86.144 365.681 86.144ZM372.694 86.126C372.334 86.126 372.058 86.018 371.866 85.802C371.674 85.586 371.578 85.286 371.578 84.902V78.296C371.578 77.9 371.674 77.6 371.866 77.396C372.058 77.18 372.334 77.072 372.694 77.072C373.054 77.072 373.33 77.18 373.522 77.396C373.726 77.6 373.828 77.9 373.828 78.296V84.902C373.828 85.286 373.732 85.586 373.54 85.802C373.348 86.018 373.066 86.126 372.694 86.126ZM372.694 75.398C372.274 75.398 371.944 75.296 371.704 75.092C371.476 74.876 371.362 74.582 371.362 74.21C371.362 73.826 371.476 73.532 371.704 73.328C371.944 73.124 372.274 73.022 372.694 73.022C373.126 73.022 373.456 73.124 373.684 73.328C373.912 73.532 374.026 73.826 374.026 74.21C374.026 74.582 373.912 74.876 373.684 75.092C373.456 75.296 373.126 75.398 372.694 75.398ZM380.18 86.18C379.268 86.18 378.476 85.994 377.804 85.622C377.132 85.25 376.61 84.722 376.238 84.038C375.866 83.342 375.68 82.526 375.68 81.59C375.68 80.882 375.782 80.252 375.986 79.7C376.202 79.136 376.508 78.656 376.904 78.26C377.3 77.852 377.774 77.546 378.326 77.342C378.878 77.126 379.496 77.018 380.18 77.018C381.092 77.018 381.884 77.204 382.556 77.576C383.228 77.948 383.75 78.476 384.122 79.16C384.494 79.844 384.68 80.654 384.68 81.59C384.68 82.298 384.572 82.934 384.356 83.498C384.152 84.062 383.852 84.548 383.456 84.956C383.06 85.352 382.586 85.658 382.034 85.874C381.482 86.078 380.864 86.18 380.18 86.18ZM380.18 84.47C380.624 84.47 381.014 84.362 381.35 84.146C381.686 83.93 381.944 83.612 382.124 83.192C382.316 82.76 382.412 82.226 382.412 81.59C382.412 80.63 382.208 79.916 381.8 79.448C381.392 78.968 380.852 78.728 380.18 78.728C379.736 78.728 379.346 78.836 379.01 79.052C378.674 79.256 378.41 79.574 378.218 80.006C378.038 80.426 377.948 80.954 377.948 81.59C377.948 82.538 378.152 83.258 378.56 83.75C378.968 84.23 379.508 84.47 380.18 84.47Z" fill="#005E7A"/>
<rect x="415" y="61" width="73" height="38" rx="7" stroke="#26874A" stroke-width="2"/>
<path d="M432.61 86C432.214 86 431.908 85.898 431.692 85.694C431.488 85.478 431.386 85.172 431.386 84.776V74.534C431.386 74.138 431.488 73.838 431.692 73.634C431.908 73.418 432.214 73.31 432.61 73.31H439.036C439.336 73.31 439.564 73.388 439.72 73.544C439.888 73.7 439.972 73.922 439.972 74.21C439.972 74.51 439.888 74.744 439.72 74.912C439.564 75.068 439.336 75.146 439.036 75.146H433.6V78.638H438.64C438.952 78.638 439.186 78.716 439.342 78.872C439.498 79.028 439.576 79.256 439.576 79.556C439.576 79.856 439.498 80.084 439.342 80.24C439.186 80.396 438.952 80.474 438.64 80.474H433.6V84.164H439.036C439.336 84.164 439.564 84.242 439.72 84.398C439.888 84.554 439.972 84.782 439.972 85.082C439.972 85.382 439.888 85.61 439.72 85.766C439.564 85.922 439.336 86 439.036 86H432.61ZM436.822 72.122C436.678 72.278 436.516 72.362 436.336 72.374C436.168 72.374 436.012 72.326 435.868 72.23C435.736 72.122 435.646 71.99 435.598 71.834C435.562 71.678 435.598 71.516 435.706 71.348L437.11 69.278C437.242 69.074 437.398 68.954 437.578 68.918C437.77 68.87 437.956 68.882 438.136 68.954C438.316 69.014 438.46 69.116 438.568 69.26C438.688 69.392 438.754 69.548 438.766 69.728C438.778 69.896 438.706 70.064 438.55 70.232L436.822 72.122ZM442.522 86.09C442.258 86.09 442.036 86.018 441.856 85.874C441.688 85.718 441.598 85.52 441.586 85.28C441.586 85.04 441.688 84.788 441.892 84.524L444.808 80.924V81.986L442.072 78.62C441.856 78.356 441.754 78.104 441.766 77.864C441.778 77.624 441.868 77.432 442.036 77.288C442.216 77.132 442.438 77.054 442.702 77.054C442.978 77.054 443.206 77.102 443.386 77.198C443.578 77.294 443.752 77.444 443.908 77.648L446.068 80.42H445.276L447.454 77.648C447.622 77.444 447.796 77.294 447.976 77.198C448.156 77.102 448.378 77.054 448.642 77.054C448.918 77.054 449.14 77.132 449.308 77.288C449.476 77.444 449.56 77.642 449.56 77.882C449.572 78.122 449.47 78.374 449.254 78.638L446.536 81.968V80.96L449.452 84.524C449.668 84.776 449.77 85.022 449.758 85.262C449.746 85.502 449.65 85.7 449.47 85.856C449.302 86.012 449.08 86.09 448.804 86.09C448.54 86.09 448.318 86.042 448.138 85.946C447.958 85.85 447.784 85.7 447.616 85.496L445.276 82.544H446.032L443.71 85.496C443.554 85.688 443.386 85.838 443.206 85.946C443.026 86.042 442.798 86.09 442.522 86.09ZM452.852 86.126C452.492 86.126 452.216 86.018 452.024 85.802C451.832 85.586 451.736 85.286 451.736 84.902V78.296C451.736 77.9 451.832 77.6 452.024 77.396C452.216 77.18 452.492 77.072 452.852 77.072C453.212 77.072 453.488 77.18 453.68 77.396C453.884 77.6 453.986 77.9 453.986 78.296V84.902C453.986 85.286 453.89 85.586 453.698 85.802C453.506 86.018 453.224 86.126 452.852 86.126ZM452.852 75.398C452.432 75.398 452.102 75.296 451.862 75.092C451.634 74.876 451.52 74.582 451.52 74.21C451.52 73.826 451.634 73.532 451.862 73.328C452.102 73.124 452.432 73.022 452.852 73.022C453.284 73.022 453.614 73.124 453.842 73.328C454.07 73.532 454.184 73.826 454.184 74.21C454.184 74.582 454.07 74.876 453.842 75.092C453.614 75.296 453.284 75.398 452.852 75.398ZM460.356 86.18C459.576 86.18 458.922 86.048 458.394 85.784C457.878 85.52 457.494 85.136 457.242 84.632C456.99 84.116 456.864 83.48 456.864 82.724V78.89H455.928C455.64 78.89 455.418 78.818 455.262 78.674C455.106 78.518 455.028 78.308 455.028 78.044C455.028 77.768 455.106 77.558 455.262 77.414C455.418 77.27 455.64 77.198 455.928 77.198H456.864V75.56C456.864 75.188 456.96 74.906 457.152 74.714C457.356 74.522 457.638 74.426 457.998 74.426C458.358 74.426 458.634 74.522 458.826 74.714C459.018 74.906 459.114 75.188 459.114 75.56V77.198H461.022C461.31 77.198 461.532 77.27 461.688 77.414C461.844 77.558 461.922 77.768 461.922 78.044C461.922 78.308 461.844 78.518 461.688 78.674C461.532 78.818 461.31 78.89 461.022 78.89H459.114V82.598C459.114 83.174 459.24 83.606 459.492 83.894C459.744 84.182 460.152 84.326 460.716 84.326C460.92 84.326 461.1 84.308 461.256 84.272C461.412 84.236 461.55 84.212 461.67 84.2C461.814 84.188 461.934 84.236 462.03 84.344C462.126 84.44 462.174 84.644 462.174 84.956C462.174 85.196 462.132 85.412 462.048 85.604C461.976 85.784 461.838 85.91 461.634 85.982C461.478 86.03 461.274 86.072 461.022 86.108C460.77 86.156 460.548 86.18 460.356 86.18ZM467.159 86.18C466.247 86.18 465.455 85.994 464.783 85.622C464.111 85.25 463.589 84.722 463.217 84.038C462.845 83.342 462.659 82.526 462.659 81.59C462.659 80.882 462.761 80.252 462.965 79.7C463.181 79.136 463.487 78.656 463.883 78.26C464.279 77.852 464.753 77.546 465.305 77.342C465.857 77.126 466.475 77.018 467.159 77.018C468.071 77.018 468.863 77.204 469.535 77.576C470.207 77.948 470.729 78.476 471.101 79.16C471.473 79.844 471.659 80.654 471.659 81.59C471.659 82.298 471.551 82.934 471.335 83.498C471.131 84.062 470.831 84.548 470.435 84.956C470.039 85.352 469.565 85.658 469.013 85.874C468.461 86.078 467.843 86.18 467.159 86.18ZM467.159 84.47C467.603 84.47 467.993 84.362 468.329 84.146C468.665 83.93 468.923 83.612 469.103 83.192C469.295 82.76 469.391 82.226 469.391 81.59C469.391 80.63 469.187 79.916 468.779 79.448C468.371 78.968 467.831 78.728 467.159 78.728C466.715 78.728 466.325 78.836 465.989 79.052C465.653 79.256 465.389 79.574 465.197 80.006C465.017 80.426 464.927 80.954 464.927 81.59C464.927 82.538 465.131 83.258 465.539 83.75C465.947 84.23 466.487 84.47 467.159 84.47Z" fill="#26874A"/>
<rect x="502" y="61" width="90" height="38" rx="7" stroke="#CC3333" stroke-width="2"/>
<path d="M519.538 86.144C519.166 86.144 518.878 86.042 518.674 85.838C518.482 85.622 518.386 85.328 518.386 84.956V74.48C518.386 74.096 518.488 73.808 518.692 73.616C518.896 73.412 519.184 73.31 519.556 73.31H523.894C525.286 73.31 526.36 73.658 527.116 74.354C527.872 75.05 528.25 76.022 528.25 77.27C528.25 78.518 527.872 79.496 527.116 80.204C526.36 80.9 525.286 81.248 523.894 81.248H520.69V84.956C520.69 85.328 520.594 85.622 520.402 85.838C520.21 86.042 519.922 86.144 519.538 86.144ZM520.69 79.43H523.534C524.35 79.43 524.968 79.25 525.388 78.89C525.808 78.518 526.018 77.978 526.018 77.27C526.018 76.562 525.808 76.028 525.388 75.668C524.968 75.308 524.35 75.128 523.534 75.128H520.69V79.43ZM533.811 86.18C532.815 86.18 531.957 85.994 531.237 85.622C530.517 85.25 529.959 84.722 529.563 84.038C529.179 83.354 528.987 82.544 528.987 81.608C528.987 80.696 529.173 79.898 529.545 79.214C529.929 78.53 530.451 77.996 531.111 77.612C531.783 77.216 532.545 77.018 533.397 77.018C534.021 77.018 534.579 77.12 535.071 77.324C535.575 77.528 536.001 77.822 536.349 78.206C536.709 78.59 536.979 79.058 537.159 79.61C537.351 80.15 537.447 80.762 537.447 81.446C537.447 81.662 537.369 81.83 537.213 81.95C537.069 82.058 536.859 82.112 536.583 82.112H530.805V80.816H535.863L535.575 81.086C535.575 80.534 535.491 80.072 535.323 79.7C535.167 79.328 534.933 79.046 534.621 78.854C534.321 78.65 533.943 78.548 533.487 78.548C532.983 78.548 532.551 78.668 532.191 78.908C531.843 79.136 531.573 79.466 531.381 79.898C531.201 80.318 531.111 80.822 531.111 81.41V81.536C531.111 82.52 531.339 83.258 531.795 83.75C532.263 84.23 532.947 84.47 533.847 84.47C534.159 84.47 534.507 84.434 534.891 84.362C535.287 84.278 535.659 84.14 536.007 83.948C536.259 83.804 536.481 83.744 536.673 83.768C536.865 83.78 537.015 83.846 537.123 83.966C537.243 84.086 537.315 84.236 537.339 84.416C537.363 84.584 537.327 84.758 537.231 84.938C537.147 85.118 536.997 85.274 536.781 85.406C536.361 85.67 535.875 85.868 535.323 86C534.783 86.12 534.279 86.18 533.811 86.18ZM542.235 86.18C541.239 86.18 540.489 85.898 539.985 85.334C539.481 84.758 539.229 83.918 539.229 82.814V74.3C539.229 73.928 539.325 73.646 539.517 73.454C539.709 73.262 539.985 73.166 540.345 73.166C540.705 73.166 540.981 73.262 541.173 73.454C541.377 73.646 541.479 73.928 541.479 74.3V82.706C541.479 83.258 541.593 83.666 541.821 83.93C542.061 84.194 542.397 84.326 542.829 84.326C542.925 84.326 543.015 84.326 543.099 84.326C543.183 84.314 543.267 84.302 543.351 84.29C543.519 84.266 543.633 84.314 543.693 84.434C543.753 84.542 543.783 84.77 543.783 85.118C543.783 85.418 543.723 85.652 543.603 85.82C543.483 85.988 543.285 86.09 543.009 86.126C542.889 86.138 542.763 86.15 542.631 86.162C542.499 86.174 542.367 86.18 542.235 86.18ZM546.093 86.126C545.733 86.126 545.457 86.018 545.265 85.802C545.073 85.586 544.977 85.286 544.977 84.902V78.296C544.977 77.9 545.073 77.6 545.265 77.396C545.457 77.18 545.733 77.072 546.093 77.072C546.453 77.072 546.729 77.18 546.921 77.396C547.125 77.6 547.227 77.9 547.227 78.296V84.902C547.227 85.286 547.131 85.586 546.939 85.802C546.747 86.018 546.465 86.126 546.093 86.126ZM546.093 75.398C545.673 75.398 545.343 75.296 545.103 75.092C544.875 74.876 544.761 74.582 544.761 74.21C544.761 73.826 544.875 73.532 545.103 73.328C545.343 73.124 545.673 73.022 546.093 73.022C546.525 73.022 546.855 73.124 547.083 73.328C547.311 73.532 547.425 73.826 547.425 74.21C547.425 74.582 547.311 74.876 547.083 75.092C546.855 75.296 546.525 75.398 546.093 75.398ZM553.669 89.42C553.021 89.42 552.391 89.36 551.779 89.24C551.179 89.12 550.633 88.934 550.141 88.682C549.913 88.562 549.757 88.418 549.673 88.25C549.601 88.082 549.577 87.908 549.601 87.728C549.637 87.56 549.709 87.41 549.817 87.278C549.937 87.146 550.081 87.056 550.249 87.008C550.417 86.96 550.591 86.984 550.771 87.08C551.299 87.344 551.797 87.512 552.265 87.584C552.745 87.668 553.153 87.71 553.489 87.71C554.293 87.71 554.893 87.512 555.289 87.116C555.697 86.732 555.901 86.156 555.901 85.388V83.768H556.063C555.883 84.38 555.505 84.872 554.929 85.244C554.365 85.604 553.723 85.784 553.003 85.784C552.211 85.784 551.521 85.604 550.933 85.244C550.345 84.872 549.889 84.356 549.565 83.696C549.241 83.036 549.079 82.268 549.079 81.392C549.079 80.732 549.169 80.138 549.349 79.61C549.541 79.07 549.805 78.608 550.141 78.224C550.489 77.84 550.903 77.546 551.383 77.342C551.875 77.126 552.415 77.018 553.003 77.018C553.747 77.018 554.395 77.204 554.947 77.576C555.511 77.936 555.877 78.416 556.045 79.016L555.865 79.466V78.188C555.865 77.816 555.961 77.534 556.153 77.342C556.357 77.15 556.633 77.054 556.981 77.054C557.341 77.054 557.617 77.15 557.809 77.342C558.001 77.534 558.097 77.816 558.097 78.188V85.118C558.097 86.546 557.719 87.62 556.963 88.34C556.207 89.06 555.109 89.42 553.669 89.42ZM553.615 84.074C554.083 84.074 554.485 83.966 554.821 83.75C555.157 83.534 555.415 83.228 555.595 82.832C555.787 82.424 555.883 81.944 555.883 81.392C555.883 80.564 555.679 79.916 555.271 79.448C554.863 78.968 554.311 78.728 553.615 78.728C553.147 78.728 552.745 78.836 552.409 79.052C552.073 79.268 551.809 79.574 551.617 79.97C551.437 80.366 551.347 80.84 551.347 81.392C551.347 82.22 551.551 82.874 551.959 83.354C552.367 83.834 552.919 84.074 553.615 84.074ZM561.58 86.144C561.208 86.144 560.92 86.048 560.716 85.856C560.524 85.652 560.428 85.364 560.428 84.992V78.188C560.428 77.816 560.524 77.534 560.716 77.342C560.908 77.15 561.178 77.054 561.526 77.054C561.874 77.054 562.144 77.15 562.336 77.342C562.528 77.534 562.624 77.816 562.624 78.188V79.322H562.444C562.612 78.602 562.942 78.056 563.434 77.684C563.926 77.312 564.58 77.09 565.396 77.018C565.648 76.994 565.846 77.06 565.99 77.216C566.146 77.36 566.236 77.588 566.26 77.9C566.284 78.2 566.212 78.446 566.044 78.638C565.888 78.818 565.648 78.926 565.324 78.962L564.928 78.998C564.196 79.07 563.644 79.298 563.272 79.682C562.9 80.054 562.714 80.582 562.714 81.266V84.992C562.714 85.364 562.618 85.652 562.426 85.856C562.234 86.048 561.952 86.144 561.58 86.144ZM571.35 86.18C570.438 86.18 569.646 85.994 568.974 85.622C568.302 85.25 567.78 84.722 567.408 84.038C567.036 83.342 566.85 82.526 566.85 81.59C566.85 80.882 566.952 80.252 567.156 79.7C567.372 79.136 567.678 78.656 568.074 78.26C568.47 77.852 568.944 77.546 569.496 77.342C570.048 77.126 570.666 77.018 571.35 77.018C572.262 77.018 573.054 77.204 573.726 77.576C574.398 77.948 574.92 78.476 575.292 79.16C575.664 79.844 575.85 80.654 575.85 81.59C575.85 82.298 575.742 82.934 575.526 83.498C575.322 84.062 575.022 84.548 574.626 84.956C574.23 85.352 573.756 85.658 573.204 85.874C572.652 86.078 572.034 86.18 571.35 86.18ZM571.35 84.47C571.794 84.47 572.184 84.362 572.52 84.146C572.856 83.93 573.114 83.612 573.294 83.192C573.486 82.76 573.582 82.226 573.582 81.59C573.582 80.63 573.378 79.916 572.97 79.448C572.562 78.968 572.022 78.728 571.35 78.728C570.906 78.728 570.516 78.836 570.18 79.052C569.844 79.256 569.58 79.574 569.388 80.006C569.208 80.426 569.118 80.954 569.118 81.59C569.118 82.538 569.322 83.258 569.73 83.75C570.138 84.23 570.678 84.47 571.35 84.47Z" fill="#CC3333"/>
<rect x="605" y="56" width="78" height="48" rx="2" fill="#002733"/>
<rect x="610" y="61" width="68" height="38" rx="7" stroke="#F3F6F9" stroke-width="2"/>
<path d="M628.29 86.18C626.97 86.18 625.836 85.916 624.888 85.388C623.952 84.848 623.232 84.092 622.728 83.12C622.224 82.136 621.972 80.978 621.972 79.646C621.972 78.65 622.116 77.756 622.404 76.964C622.692 76.16 623.106 75.476 623.646 74.912C624.186 74.336 624.846 73.898 625.626 73.598C626.418 73.286 627.306 73.13 628.29 73.13C628.95 73.13 629.598 73.214 630.234 73.382C630.87 73.55 631.428 73.79 631.908 74.102C632.16 74.258 632.328 74.45 632.412 74.678C632.496 74.894 632.514 75.11 632.466 75.326C632.418 75.53 632.316 75.704 632.16 75.848C632.016 75.992 631.83 76.076 631.602 76.1C631.386 76.112 631.146 76.034 630.882 75.866C630.51 75.626 630.108 75.452 629.676 75.344C629.244 75.236 628.806 75.182 628.362 75.182C627.51 75.182 626.79 75.356 626.202 75.704C625.614 76.052 625.17 76.556 624.87 77.216C624.57 77.876 624.42 78.686 624.42 79.646C624.42 80.594 624.57 81.404 624.87 82.076C625.17 82.748 625.614 83.258 626.202 83.606C626.79 83.954 627.51 84.128 628.362 84.128C628.818 84.128 629.268 84.074 629.712 83.966C630.156 83.846 630.576 83.666 630.972 83.426C631.236 83.27 631.47 83.204 631.674 83.228C631.89 83.24 632.07 83.312 632.214 83.444C632.358 83.576 632.454 83.744 632.502 83.948C632.55 84.14 632.538 84.344 632.466 84.56C632.394 84.764 632.25 84.944 632.034 85.1C631.554 85.448 630.978 85.718 630.306 85.91C629.646 86.09 628.974 86.18 628.29 86.18ZM637.41 86.18C636.414 86.18 635.664 85.898 635.16 85.334C634.656 84.758 634.404 83.918 634.404 82.814V74.3C634.404 73.928 634.5 73.646 634.692 73.454C634.884 73.262 635.16 73.166 635.52 73.166C635.88 73.166 636.156 73.262 636.348 73.454C636.552 73.646 636.654 73.928 636.654 74.3V82.706C636.654 83.258 636.768 83.666 636.996 83.93C637.236 84.194 637.572 84.326 638.004 84.326C638.1 84.326 638.19 84.326 638.274 84.326C638.358 84.314 638.442 84.302 638.526 84.29C638.694 84.266 638.808 84.314 638.868 84.434C638.928 84.542 638.958 84.77 638.958 85.118C638.958 85.418 638.898 85.652 638.778 85.82C638.658 85.988 638.46 86.09 638.184 86.126C638.064 86.138 637.938 86.15 637.806 86.162C637.674 86.174 637.542 86.18 637.41 86.18ZM643.05 86.18C642.414 86.18 641.844 86.06 641.34 85.82C640.848 85.568 640.458 85.232 640.17 84.812C639.894 84.392 639.756 83.918 639.756 83.39C639.756 82.742 639.924 82.232 640.26 81.86C640.596 81.476 641.142 81.2 641.898 81.032C642.654 80.864 643.668 80.78 644.94 80.78H645.84V82.076H644.958C644.214 82.076 643.62 82.112 643.176 82.184C642.732 82.256 642.414 82.382 642.222 82.562C642.042 82.73 641.952 82.97 641.952 83.282C641.952 83.678 642.09 84.002 642.366 84.254C642.642 84.506 643.026 84.632 643.518 84.632C643.914 84.632 644.262 84.542 644.562 84.362C644.874 84.17 645.12 83.912 645.3 83.588C645.48 83.264 645.57 82.892 645.57 82.472V80.402C645.57 79.802 645.438 79.37 645.174 79.106C644.91 78.842 644.466 78.71 643.842 78.71C643.494 78.71 643.116 78.752 642.708 78.836C642.312 78.92 641.892 79.064 641.448 79.268C641.22 79.376 641.016 79.406 640.836 79.358C640.668 79.31 640.536 79.214 640.44 79.07C640.344 78.914 640.296 78.746 640.296 78.566C640.296 78.386 640.344 78.212 640.44 78.044C640.536 77.864 640.698 77.732 640.926 77.648C641.478 77.42 642.006 77.258 642.51 77.162C643.026 77.066 643.494 77.018 643.914 77.018C644.778 77.018 645.486 77.15 646.038 77.414C646.602 77.678 647.022 78.08 647.298 78.62C647.574 79.148 647.712 79.832 647.712 80.672V84.992C647.712 85.364 647.622 85.652 647.442 85.856C647.262 86.048 647.004 86.144 646.668 86.144C646.332 86.144 646.068 86.048 645.876 85.856C645.696 85.652 645.606 85.364 645.606 84.992V84.128H645.75C645.666 84.548 645.498 84.914 645.246 85.226C645.006 85.526 644.7 85.76 644.328 85.928C643.956 86.096 643.53 86.18 643.05 86.18ZM651.148 86.144C650.776 86.144 650.488 86.048 650.284 85.856C650.092 85.652 649.996 85.364 649.996 84.992V78.188C649.996 77.816 650.092 77.534 650.284 77.342C650.476 77.15 650.746 77.054 651.094 77.054C651.442 77.054 651.712 77.15 651.904 77.342C652.096 77.534 652.192 77.816 652.192 78.188V79.322H652.012C652.18 78.602 652.51 78.056 653.002 77.684C653.494 77.312 654.148 77.09 654.964 77.018C655.216 76.994 655.414 77.06 655.558 77.216C655.714 77.36 655.804 77.588 655.828 77.9C655.852 78.2 655.78 78.446 655.612 78.638C655.456 78.818 655.216 78.926 654.892 78.962L654.496 78.998C653.764 79.07 653.212 79.298 652.84 79.682C652.468 80.054 652.282 80.582 652.282 81.266V84.992C652.282 85.364 652.186 85.652 651.994 85.856C651.802 86.048 651.52 86.144 651.148 86.144ZM660.918 86.18C660.006 86.18 659.214 85.994 658.542 85.622C657.87 85.25 657.348 84.722 656.976 84.038C656.604 83.342 656.418 82.526 656.418 81.59C656.418 80.882 656.52 80.252 656.724 79.7C656.94 79.136 657.246 78.656 657.642 78.26C658.038 77.852 658.512 77.546 659.064 77.342C659.616 77.126 660.234 77.018 660.918 77.018C661.83 77.018 662.622 77.204 663.294 77.576C663.966 77.948 664.488 78.476 664.86 79.16C665.232 79.844 665.418 80.654 665.418 81.59C665.418 82.298 665.31 82.934 665.094 83.498C664.89 84.062 664.59 84.548 664.194 84.956C663.798 85.352 663.324 85.658 662.772 85.874C662.22 86.078 661.602 86.18 660.918 86.18ZM660.918 84.47C661.362 84.47 661.752 84.362 662.088 84.146C662.424 83.93 662.682 83.612 662.862 83.192C663.054 82.76 663.15 82.226 663.15 81.59C663.15 80.63 662.946 79.916 662.538 79.448C662.13 78.968 661.59 78.728 660.918 78.728C660.474 78.728 660.084 78.836 659.748 79.052C659.412 79.256 659.148 79.574 658.956 80.006C658.776 80.426 658.686 80.954 658.686 81.59C658.686 82.538 658.89 83.258 659.298 83.75C659.706 84.23 660.246 84.47 660.918 84.47Z" fill="#F3F6F9"/>
</svg>
