<svg width="348" height="240" viewBox="0 0 348 240" fill="none" xmlns="http://www.w3.org/2000/svg">
<rect width="348" height="240" rx="8" fill="#002733"/>
<rect x="131" y="96" width="86" height="48" rx="8" fill="#F3F6F9"/>
<path d="M158.29 126.18C156.97 126.18 155.836 125.916 154.888 125.388C153.952 124.848 153.232 124.092 152.728 123.12C152.224 122.136 151.972 120.978 151.972 119.646C151.972 118.65 152.116 117.756 152.404 116.964C152.692 116.16 153.106 115.476 153.646 114.912C154.186 114.336 154.846 113.898 155.626 113.598C156.418 113.286 157.306 113.13 158.29 113.13C158.95 113.13 159.598 113.214 160.234 113.382C160.87 113.55 161.428 113.79 161.908 114.102C162.16 114.258 162.328 114.45 162.412 114.678C162.496 114.894 162.514 115.11 162.466 115.326C162.418 115.53 162.316 115.704 162.16 115.848C162.016 115.992 161.83 116.076 161.602 116.1C161.386 116.112 161.146 116.034 160.882 115.866C160.51 115.626 160.108 115.452 159.676 115.344C159.244 115.236 158.806 115.182 158.362 115.182C157.51 115.182 156.79 115.356 156.202 115.704C155.614 116.052 155.17 116.556 154.87 117.216C154.57 117.876 154.42 118.686 154.42 119.646C154.42 120.594 154.57 121.404 154.87 122.076C155.17 122.748 155.614 123.258 156.202 123.606C156.79 123.954 157.51 124.128 158.362 124.128C158.818 124.128 159.268 124.074 159.712 123.966C160.156 123.846 160.576 123.666 160.972 123.426C161.236 123.27 161.47 123.204 161.674 123.228C161.89 123.24 162.07 123.312 162.214 123.444C162.358 123.576 162.454 123.744 162.502 123.948C162.55 124.14 162.538 124.344 162.466 124.56C162.394 124.764 162.25 124.944 162.034 125.1C161.554 125.448 160.978 125.718 160.306 125.91C159.646 126.09 158.974 126.18 158.29 126.18ZM167.41 126.18C166.414 126.18 165.664 125.898 165.16 125.334C164.656 124.758 164.404 123.918 164.404 122.814V114.3C164.404 113.928 164.5 113.646 164.692 113.454C164.884 113.262 165.16 113.166 165.52 113.166C165.88 113.166 166.156 113.262 166.348 113.454C166.552 113.646 166.654 113.928 166.654 114.3V122.706C166.654 123.258 166.768 123.666 166.996 123.93C167.236 124.194 167.572 124.326 168.004 124.326C168.1 124.326 168.19 124.326 168.274 124.326C168.358 124.314 168.442 124.302 168.526 124.29C168.694 124.266 168.808 124.314 168.868 124.434C168.928 124.542 168.958 124.77 168.958 125.118C168.958 125.418 168.898 125.652 168.778 125.82C168.658 125.988 168.46 126.09 168.184 126.126C168.064 126.138 167.938 126.15 167.806 126.162C167.674 126.174 167.542 126.18 167.41 126.18ZM173.05 126.18C172.414 126.18 171.844 126.06 171.34 125.82C170.848 125.568 170.458 125.232 170.17 124.812C169.894 124.392 169.756 123.918 169.756 123.39C169.756 122.742 169.924 122.232 170.26 121.86C170.596 121.476 171.142 121.2 171.898 121.032C172.654 120.864 173.668 120.78 174.94 120.78H175.84V122.076H174.958C174.214 122.076 173.62 122.112 173.176 122.184C172.732 122.256 172.414 122.382 172.222 122.562C172.042 122.73 171.952 122.97 171.952 123.282C171.952 123.678 172.09 124.002 172.366 124.254C172.642 124.506 173.026 124.632 173.518 124.632C173.914 124.632 174.262 124.542 174.562 124.362C174.874 124.17 175.12 123.912 175.3 123.588C175.48 123.264 175.57 122.892 175.57 122.472V120.402C175.57 119.802 175.438 119.37 175.174 119.106C174.91 118.842 174.466 118.71 173.842 118.71C173.494 118.71 173.116 118.752 172.708 118.836C172.312 118.92 171.892 119.064 171.448 119.268C171.22 119.376 171.016 119.406 170.836 119.358C170.668 119.31 170.536 119.214 170.44 119.07C170.344 118.914 170.296 118.746 170.296 118.566C170.296 118.386 170.344 118.212 170.44 118.044C170.536 117.864 170.698 117.732 170.926 117.648C171.478 117.42 172.006 117.258 172.51 117.162C173.026 117.066 173.494 117.018 173.914 117.018C174.778 117.018 175.486 117.15 176.038 117.414C176.602 117.678 177.022 118.08 177.298 118.62C177.574 119.148 177.712 119.832 177.712 120.672V124.992C177.712 125.364 177.622 125.652 177.442 125.856C177.262 126.048 177.004 126.144 176.668 126.144C176.332 126.144 176.068 126.048 175.876 125.856C175.696 125.652 175.606 125.364 175.606 124.992V124.128H175.75C175.666 124.548 175.498 124.914 175.246 125.226C175.006 125.526 174.7 125.76 174.328 125.928C173.956 126.096 173.53 126.18 173.05 126.18ZM181.148 126.144C180.776 126.144 180.488 126.048 180.284 125.856C180.092 125.652 179.996 125.364 179.996 124.992V118.188C179.996 117.816 180.092 117.534 180.284 117.342C180.476 117.15 180.746 117.054 181.094 117.054C181.442 117.054 181.712 117.15 181.904 117.342C182.096 117.534 182.192 117.816 182.192 118.188V119.322H182.012C182.18 118.602 182.51 118.056 183.002 117.684C183.494 117.312 184.148 117.09 184.964 117.018C185.216 116.994 185.414 117.06 185.558 117.216C185.714 117.36 185.804 117.588 185.828 117.9C185.852 118.2 185.78 118.446 185.612 118.638C185.456 118.818 185.216 118.926 184.892 118.962L184.496 118.998C183.764 119.07 183.212 119.298 182.84 119.682C182.468 120.054 182.282 120.582 182.282 121.266V124.992C182.282 125.364 182.186 125.652 181.994 125.856C181.802 126.048 181.52 126.144 181.148 126.144ZM190.918 126.18C190.006 126.18 189.214 125.994 188.542 125.622C187.87 125.25 187.348 124.722 186.976 124.038C186.604 123.342 186.418 122.526 186.418 121.59C186.418 120.882 186.52 120.252 186.724 119.7C186.94 119.136 187.246 118.656 187.642 118.26C188.038 117.852 188.512 117.546 189.064 117.342C189.616 117.126 190.234 117.018 190.918 117.018C191.83 117.018 192.622 117.204 193.294 117.576C193.966 117.948 194.488 118.476 194.86 119.16C195.232 119.844 195.418 120.654 195.418 121.59C195.418 122.298 195.31 122.934 195.094 123.498C194.89 124.062 194.59 124.548 194.194 124.956C193.798 125.352 193.324 125.658 192.772 125.874C192.22 126.078 191.602 126.18 190.918 126.18ZM190.918 124.47C191.362 124.47 191.752 124.362 192.088 124.146C192.424 123.93 192.682 123.612 192.862 123.192C193.054 122.76 193.15 122.226 193.15 121.59C193.15 120.63 192.946 119.916 192.538 119.448C192.13 118.968 191.59 118.728 190.918 118.728C190.474 118.728 190.084 118.836 189.748 119.052C189.412 119.256 189.148 119.574 188.956 120.006C188.776 120.426 188.686 120.954 188.686 121.59C188.686 122.538 188.89 123.258 189.298 123.75C189.706 124.23 190.246 124.47 190.918 124.47Z" fill="black"/>
</svg>
