<svg width="348" height="242" viewBox="0 0 348 242" fill="none" xmlns="http://www.w3.org/2000/svg">
<rect x="1" y="1" width="346" height="240" rx="7" fill="#F3F6F9"/>
<rect x="1" y="1" width="346" height="240" rx="7" stroke="#E6EBF0" stroke-width="2"/>
<rect x="85.5" y="101" width="177" height="40" rx="8" fill="#336ACC"/>
<path d="M104.11 127C103.714 127 103.408 126.898 103.192 126.694C102.988 126.478 102.886 126.172 102.886 125.776V115.534C102.886 115.138 102.988 114.838 103.192 114.634C103.408 114.418 103.714 114.31 104.11 114.31H110.536C110.836 114.31 111.064 114.388 111.22 114.544C111.388 114.7 111.472 114.922 111.472 115.21C111.472 115.51 111.388 115.744 111.22 115.912C111.064 116.068 110.836 116.146 110.536 116.146H105.1V119.638H110.14C110.452 119.638 110.686 119.716 110.842 119.872C110.998 120.028 111.076 120.256 111.076 120.556C111.076 120.856 110.998 121.084 110.842 121.24C110.686 121.396 110.452 121.474 110.14 121.474H105.1V125.164H110.536C110.836 125.164 111.064 125.242 111.22 125.398C111.388 125.554 111.472 125.782 111.472 126.082C111.472 126.382 111.388 126.61 111.22 126.766C111.064 126.922 110.836 127 110.536 127H104.11ZM114.526 127.144C114.166 127.144 113.89 127.048 113.698 126.856C113.506 126.652 113.41 126.364 113.41 125.992V119.188C113.41 118.816 113.506 118.534 113.698 118.342C113.89 118.15 114.16 118.054 114.508 118.054C114.856 118.054 115.126 118.15 115.318 118.342C115.51 118.534 115.606 118.816 115.606 119.188V120.412L115.408 119.962C115.672 119.326 116.08 118.846 116.632 118.522C117.196 118.186 117.832 118.018 118.54 118.018C119.248 118.018 119.83 118.15 120.286 118.414C120.742 118.678 121.084 119.08 121.312 119.62C121.54 120.148 121.654 120.82 121.654 121.636V125.992C121.654 126.364 121.558 126.652 121.366 126.856C121.174 127.048 120.898 127.144 120.538 127.144C120.178 127.144 119.896 127.048 119.692 126.856C119.5 126.652 119.404 126.364 119.404 125.992V121.744C119.404 121.06 119.272 120.562 119.008 120.25C118.756 119.938 118.36 119.782 117.82 119.782C117.16 119.782 116.632 119.992 116.236 120.412C115.852 120.82 115.66 121.366 115.66 122.05V125.992C115.66 126.76 115.282 127.144 114.526 127.144ZM127.416 127.144C127.116 127.144 126.852 127.066 126.624 126.91C126.408 126.754 126.228 126.514 126.084 126.19L123.222 119.548C123.114 119.284 123.072 119.038 123.096 118.81C123.132 118.582 123.24 118.402 123.42 118.27C123.612 118.126 123.87 118.054 124.194 118.054C124.47 118.054 124.692 118.12 124.86 118.252C125.028 118.372 125.178 118.606 125.31 118.954L127.74 125.02H127.2L129.702 118.936C129.834 118.6 129.984 118.372 130.152 118.252C130.332 118.12 130.572 118.054 130.872 118.054C131.136 118.054 131.346 118.126 131.502 118.27C131.658 118.402 131.754 118.582 131.79 118.81C131.826 119.026 131.784 119.266 131.664 119.53L128.748 126.19C128.616 126.514 128.436 126.754 128.208 126.91C127.992 127.066 127.728 127.144 127.416 127.144ZM134.46 127.126C134.1 127.126 133.824 127.018 133.632 126.802C133.44 126.586 133.344 126.286 133.344 125.902V119.296C133.344 118.9 133.44 118.6 133.632 118.396C133.824 118.18 134.1 118.072 134.46 118.072C134.82 118.072 135.096 118.18 135.288 118.396C135.492 118.6 135.594 118.9 135.594 119.296V125.902C135.594 126.286 135.498 126.586 135.306 126.802C135.114 127.018 134.832 127.126 134.46 127.126ZM134.46 116.398C134.04 116.398 133.71 116.296 133.47 116.092C133.242 115.876 133.128 115.582 133.128 115.21C133.128 114.826 133.242 114.532 133.47 114.328C133.71 114.124 134.04 114.022 134.46 114.022C134.892 114.022 135.222 114.124 135.45 114.328C135.678 114.532 135.792 114.826 135.792 115.21C135.792 115.582 135.678 115.876 135.45 116.092C135.222 116.296 134.892 116.398 134.46 116.398ZM140.83 127.18C140.194 127.18 139.624 127.06 139.12 126.82C138.628 126.568 138.238 126.232 137.95 125.812C137.674 125.392 137.536 124.918 137.536 124.39C137.536 123.742 137.704 123.232 138.04 122.86C138.376 122.476 138.922 122.2 139.678 122.032C140.434 121.864 141.448 121.78 142.72 121.78H143.62V123.076H142.738C141.994 123.076 141.4 123.112 140.956 123.184C140.512 123.256 140.194 123.382 140.002 123.562C139.822 123.73 139.732 123.97 139.732 124.282C139.732 124.678 139.87 125.002 140.146 125.254C140.422 125.506 140.806 125.632 141.298 125.632C141.694 125.632 142.042 125.542 142.342 125.362C142.654 125.17 142.9 124.912 143.08 124.588C143.26 124.264 143.35 123.892 143.35 123.472V121.402C143.35 120.802 143.218 120.37 142.954 120.106C142.69 119.842 142.246 119.71 141.622 119.71C141.274 119.71 140.896 119.752 140.488 119.836C140.092 119.92 139.672 120.064 139.228 120.268C139 120.376 138.796 120.406 138.616 120.358C138.448 120.31 138.316 120.214 138.22 120.07C138.124 119.914 138.076 119.746 138.076 119.566C138.076 119.386 138.124 119.212 138.22 119.044C138.316 118.864 138.478 118.732 138.706 118.648C139.258 118.42 139.786 118.258 140.29 118.162C140.806 118.066 141.274 118.018 141.694 118.018C142.558 118.018 143.266 118.15 143.818 118.414C144.382 118.678 144.802 119.08 145.078 119.62C145.354 120.148 145.492 120.832 145.492 121.672V125.992C145.492 126.364 145.402 126.652 145.222 126.856C145.042 127.048 144.784 127.144 144.448 127.144C144.112 127.144 143.848 127.048 143.656 126.856C143.476 126.652 143.386 126.364 143.386 125.992V125.128H143.53C143.446 125.548 143.278 125.914 143.026 126.226C142.786 126.526 142.48 126.76 142.108 126.928C141.736 127.096 141.31 127.18 140.83 127.18ZM148.927 127.144C148.555 127.144 148.267 127.048 148.063 126.856C147.871 126.652 147.775 126.364 147.775 125.992V119.188C147.775 118.816 147.871 118.534 148.063 118.342C148.255 118.15 148.525 118.054 148.873 118.054C149.221 118.054 149.491 118.15 149.683 118.342C149.875 118.534 149.971 118.816 149.971 119.188V120.322H149.791C149.959 119.602 150.289 119.056 150.781 118.684C151.273 118.312 151.927 118.09 152.743 118.018C152.995 117.994 153.193 118.06 153.337 118.216C153.493 118.36 153.583 118.588 153.607 118.9C153.631 119.2 153.559 119.446 153.391 119.638C153.235 119.818 152.995 119.926 152.671 119.962L152.275 119.998C151.543 120.07 150.991 120.298 150.619 120.682C150.247 121.054 150.061 121.582 150.061 122.266V125.992C150.061 126.364 149.965 126.652 149.773 126.856C149.581 127.048 149.299 127.144 148.927 127.144ZM161.439 127.144C161.079 127.144 160.797 127.048 160.593 126.856C160.401 126.652 160.305 126.364 160.305 125.992V119.89H159.477C159.189 119.89 158.967 119.818 158.811 119.674C158.655 119.518 158.577 119.308 158.577 119.044C158.577 118.768 158.655 118.558 158.811 118.414C158.967 118.27 159.189 118.198 159.477 118.198H160.953L160.305 118.792V118.18C160.305 116.944 160.617 116.02 161.241 115.408C161.865 114.784 162.765 114.418 163.941 114.31L164.553 114.256C164.793 114.232 164.985 114.274 165.129 114.382C165.273 114.478 165.369 114.61 165.417 114.778C165.465 114.934 165.471 115.096 165.435 115.264C165.399 115.432 165.321 115.582 165.201 115.714C165.093 115.834 164.949 115.9 164.769 115.912L164.517 115.93C163.833 115.978 163.335 116.152 163.023 116.452C162.711 116.752 162.555 117.208 162.555 117.82V118.486L162.267 118.198H164.085C164.373 118.198 164.595 118.27 164.751 118.414C164.907 118.558 164.985 118.768 164.985 119.044C164.985 119.308 164.907 119.518 164.751 119.674C164.595 119.818 164.373 119.89 164.085 119.89H162.555V125.992C162.555 126.76 162.183 127.144 161.439 127.144ZM170.053 127.18C169.141 127.18 168.349 126.994 167.677 126.622C167.005 126.25 166.483 125.722 166.111 125.038C165.739 124.342 165.553 123.526 165.553 122.59C165.553 121.882 165.655 121.252 165.859 120.7C166.075 120.136 166.381 119.656 166.777 119.26C167.173 118.852 167.647 118.546 168.199 118.342C168.751 118.126 169.369 118.018 170.053 118.018C170.965 118.018 171.757 118.204 172.429 118.576C173.101 118.948 173.623 119.476 173.995 120.16C174.367 120.844 174.553 121.654 174.553 122.59C174.553 123.298 174.445 123.934 174.229 124.498C174.025 125.062 173.725 125.548 173.329 125.956C172.933 126.352 172.459 126.658 171.907 126.874C171.355 127.078 170.737 127.18 170.053 127.18ZM170.053 125.47C170.497 125.47 170.887 125.362 171.223 125.146C171.559 124.93 171.817 124.612 171.997 124.192C172.189 123.76 172.285 123.226 172.285 122.59C172.285 121.63 172.081 120.916 171.673 120.448C171.265 119.968 170.725 119.728 170.053 119.728C169.609 119.728 169.219 119.836 168.883 120.052C168.547 120.256 168.283 120.574 168.091 121.006C167.911 121.426 167.821 121.954 167.821 122.59C167.821 123.538 168.025 124.258 168.433 124.75C168.841 125.23 169.381 125.47 170.053 125.47ZM177.562 127.144C177.19 127.144 176.902 127.048 176.698 126.856C176.506 126.652 176.41 126.364 176.41 125.992V119.188C176.41 118.816 176.506 118.534 176.698 118.342C176.89 118.15 177.16 118.054 177.508 118.054C177.856 118.054 178.126 118.15 178.318 118.342C178.51 118.534 178.606 118.816 178.606 119.188V120.322H178.426C178.594 119.602 178.924 119.056 179.416 118.684C179.908 118.312 180.562 118.09 181.378 118.018C181.63 117.994 181.828 118.06 181.972 118.216C182.128 118.36 182.218 118.588 182.242 118.9C182.266 119.2 182.194 119.446 182.026 119.638C181.87 119.818 181.63 119.926 181.306 119.962L180.91 119.998C180.178 120.07 179.626 120.298 179.254 120.682C178.882 121.054 178.696 121.582 178.696 122.266V125.992C178.696 126.364 178.6 126.652 178.408 126.856C178.216 127.048 177.934 127.144 177.562 127.144ZM184.611 127.144C184.251 127.144 183.975 127.048 183.783 126.856C183.591 126.652 183.495 126.364 183.495 125.992V119.188C183.495 118.816 183.591 118.534 183.783 118.342C183.975 118.15 184.245 118.054 184.593 118.054C184.941 118.054 185.211 118.15 185.403 118.342C185.595 118.534 185.691 118.816 185.691 119.188V120.502L185.493 119.962C185.733 119.362 186.105 118.888 186.609 118.54C187.113 118.192 187.713 118.018 188.409 118.018C189.117 118.018 189.699 118.186 190.155 118.522C190.611 118.858 190.929 119.374 191.109 120.07H190.857C191.097 119.434 191.493 118.936 192.045 118.576C192.597 118.204 193.233 118.018 193.953 118.018C194.625 118.018 195.177 118.15 195.609 118.414C196.053 118.678 196.383 119.08 196.599 119.62C196.815 120.148 196.923 120.82 196.923 121.636V125.992C196.923 126.364 196.821 126.652 196.617 126.856C196.425 127.048 196.149 127.144 195.789 127.144C195.429 127.144 195.153 127.048 194.961 126.856C194.769 126.652 194.673 126.364 194.673 125.992V121.726C194.673 121.054 194.559 120.562 194.331 120.25C194.115 119.938 193.743 119.782 193.215 119.782C192.627 119.782 192.165 119.992 191.829 120.412C191.493 120.82 191.325 121.39 191.325 122.122V125.992C191.325 126.364 191.229 126.652 191.037 126.856C190.845 127.048 190.569 127.144 190.209 127.144C189.849 127.144 189.567 127.048 189.363 126.856C189.171 126.652 189.075 126.364 189.075 125.992V121.726C189.075 121.054 188.961 120.562 188.733 120.25C188.517 119.938 188.151 119.782 187.635 119.782C187.047 119.782 186.585 119.992 186.249 120.412C185.913 120.82 185.745 121.39 185.745 122.122V125.992C185.745 126.76 185.367 127.144 184.611 127.144ZM202.43 127.18C201.698 127.18 201.092 127.048 200.612 126.784C200.132 126.508 199.772 126.1 199.532 125.56C199.304 125.02 199.19 124.348 199.19 123.544V119.188C199.19 118.804 199.286 118.522 199.478 118.342C199.67 118.15 199.946 118.054 200.306 118.054C200.666 118.054 200.942 118.15 201.134 118.342C201.338 118.522 201.44 118.804 201.44 119.188V123.58C201.44 124.204 201.566 124.666 201.818 124.966C202.07 125.266 202.472 125.416 203.024 125.416C203.624 125.416 204.116 125.212 204.5 124.804C204.884 124.384 205.076 123.832 205.076 123.148V119.188C205.076 118.804 205.172 118.522 205.364 118.342C205.556 118.15 205.832 118.054 206.192 118.054C206.552 118.054 206.828 118.15 207.02 118.342C207.224 118.522 207.326 118.804 207.326 119.188V125.992C207.326 126.76 206.96 127.144 206.228 127.144C205.88 127.144 205.61 127.048 205.418 126.856C205.226 126.652 205.13 126.364 205.13 125.992V124.624L205.382 125.164C205.13 125.812 204.746 126.31 204.23 126.658C203.726 127.006 203.126 127.18 202.43 127.18ZM212.674 127.18C211.678 127.18 210.928 126.898 210.424 126.334C209.92 125.758 209.668 124.918 209.668 123.814V115.3C209.668 114.928 209.764 114.646 209.956 114.454C210.148 114.262 210.424 114.166 210.784 114.166C211.144 114.166 211.42 114.262 211.612 114.454C211.816 114.646 211.918 114.928 211.918 115.3V123.706C211.918 124.258 212.032 124.666 212.26 124.93C212.5 125.194 212.836 125.326 213.268 125.326C213.364 125.326 213.454 125.326 213.538 125.326C213.622 125.314 213.706 125.302 213.79 125.29C213.958 125.266 214.072 125.314 214.132 125.434C214.192 125.542 214.222 125.77 214.222 126.118C214.222 126.418 214.162 126.652 214.042 126.82C213.922 126.988 213.724 127.09 213.448 127.126C213.328 127.138 213.202 127.15 213.07 127.162C212.938 127.174 212.806 127.18 212.674 127.18ZM218.314 127.18C217.678 127.18 217.108 127.06 216.604 126.82C216.112 126.568 215.722 126.232 215.434 125.812C215.158 125.392 215.02 124.918 215.02 124.39C215.02 123.742 215.188 123.232 215.524 122.86C215.86 122.476 216.406 122.2 217.162 122.032C217.918 121.864 218.932 121.78 220.204 121.78H221.104V123.076H220.222C219.478 123.076 218.884 123.112 218.44 123.184C217.996 123.256 217.678 123.382 217.486 123.562C217.306 123.73 217.216 123.97 217.216 124.282C217.216 124.678 217.354 125.002 217.63 125.254C217.906 125.506 218.29 125.632 218.782 125.632C219.178 125.632 219.526 125.542 219.826 125.362C220.138 125.17 220.384 124.912 220.564 124.588C220.744 124.264 220.834 123.892 220.834 123.472V121.402C220.834 120.802 220.702 120.37 220.438 120.106C220.174 119.842 219.73 119.71 219.106 119.71C218.758 119.71 218.38 119.752 217.972 119.836C217.576 119.92 217.156 120.064 216.712 120.268C216.484 120.376 216.28 120.406 216.1 120.358C215.932 120.31 215.8 120.214 215.704 120.07C215.608 119.914 215.56 119.746 215.56 119.566C215.56 119.386 215.608 119.212 215.704 119.044C215.8 118.864 215.962 118.732 216.19 118.648C216.742 118.42 217.27 118.258 217.774 118.162C218.29 118.066 218.758 118.018 219.178 118.018C220.042 118.018 220.75 118.15 221.302 118.414C221.866 118.678 222.286 119.08 222.562 119.62C222.838 120.148 222.976 120.832 222.976 121.672V125.992C222.976 126.364 222.886 126.652 222.706 126.856C222.526 127.048 222.268 127.144 221.932 127.144C221.596 127.144 221.332 127.048 221.14 126.856C220.96 126.652 220.87 126.364 220.87 125.992V125.128H221.014C220.93 125.548 220.762 125.914 220.51 126.226C220.27 126.526 219.964 126.76 219.592 126.928C219.22 127.096 218.794 127.18 218.314 127.18ZM226.412 127.144C226.04 127.144 225.752 127.048 225.548 126.856C225.356 126.652 225.26 126.364 225.26 125.992V119.188C225.26 118.816 225.356 118.534 225.548 118.342C225.74 118.15 226.01 118.054 226.358 118.054C226.706 118.054 226.976 118.15 227.168 118.342C227.36 118.534 227.456 118.816 227.456 119.188V120.322H227.276C227.444 119.602 227.774 119.056 228.266 118.684C228.758 118.312 229.412 118.09 230.228 118.018C230.48 117.994 230.678 118.06 230.822 118.216C230.978 118.36 231.068 118.588 231.092 118.9C231.116 119.2 231.044 119.446 230.876 119.638C230.72 119.818 230.48 119.926 230.156 119.962L229.76 119.998C229.028 120.07 228.476 120.298 228.104 120.682C227.732 121.054 227.546 121.582 227.546 122.266V125.992C227.546 126.364 227.45 126.652 227.258 126.856C227.066 127.048 226.784 127.144 226.412 127.144ZM233.425 127.126C233.065 127.126 232.789 127.018 232.597 126.802C232.405 126.586 232.309 126.286 232.309 125.902V119.296C232.309 118.9 232.405 118.6 232.597 118.396C232.789 118.18 233.065 118.072 233.425 118.072C233.785 118.072 234.061 118.18 234.253 118.396C234.457 118.6 234.559 118.9 234.559 119.296V125.902C234.559 126.286 234.463 126.586 234.271 126.802C234.079 127.018 233.797 127.126 233.425 127.126ZM233.425 116.398C233.005 116.398 232.675 116.296 232.435 116.092C232.207 115.876 232.093 115.582 232.093 115.21C232.093 114.826 232.207 114.532 232.435 114.328C232.675 114.124 233.005 114.022 233.425 114.022C233.857 114.022 234.187 114.124 234.415 114.328C234.643 114.532 234.757 114.826 234.757 115.21C234.757 115.582 234.643 115.876 234.415 116.092C234.187 116.296 233.857 116.398 233.425 116.398ZM240.911 127.18C239.999 127.18 239.207 126.994 238.535 126.622C237.863 126.25 237.341 125.722 236.969 125.038C236.597 124.342 236.411 123.526 236.411 122.59C236.411 121.882 236.513 121.252 236.717 120.7C236.933 120.136 237.239 119.656 237.635 119.26C238.031 118.852 238.505 118.546 239.057 118.342C239.609 118.126 240.227 118.018 240.911 118.018C241.823 118.018 242.615 118.204 243.287 118.576C243.959 118.948 244.481 119.476 244.853 120.16C245.225 120.844 245.411 121.654 245.411 122.59C245.411 123.298 245.303 123.934 245.087 124.498C244.883 125.062 244.583 125.548 244.187 125.956C243.791 126.352 243.317 126.658 242.765 126.874C242.213 127.078 241.595 127.18 240.911 127.18ZM240.911 125.47C241.355 125.47 241.745 125.362 242.081 125.146C242.417 124.93 242.675 124.612 242.855 124.192C243.047 123.76 243.143 123.226 243.143 122.59C243.143 121.63 242.939 120.916 242.531 120.448C242.123 119.968 241.583 119.728 240.911 119.728C240.467 119.728 240.077 119.836 239.741 120.052C239.405 120.256 239.141 120.574 238.949 121.006C238.769 121.426 238.679 121.954 238.679 122.59C238.679 123.538 238.883 124.258 239.291 124.75C239.699 125.23 240.239 125.47 240.911 125.47Z" fill="white"/>
</svg>
