<svg width="348" height="242" viewBox="0 0 348 242" fill="none" xmlns="http://www.w3.org/2000/svg">
<rect x="1" y="1" width="346" height="240" rx="7" fill="#F3F6F9"/>
<rect x="1" y="1" width="346" height="240" rx="7" stroke="#E6EBF0" stroke-width="2"/>
<rect x="123.5" y="101" width="101" height="40" rx="8" fill="#CC3333"/>
<path d="M142.11 127C141.714 127 141.408 126.898 141.192 126.694C140.988 126.478 140.886 126.172 140.886 125.776V115.534C140.886 115.138 140.988 114.838 141.192 114.634C141.408 114.418 141.714 114.31 142.11 114.31H148.536C148.836 114.31 149.064 114.388 149.22 114.544C149.388 114.7 149.472 114.922 149.472 115.21C149.472 115.51 149.388 115.744 149.22 115.912C149.064 116.068 148.836 116.146 148.536 116.146H143.1V119.638H148.14C148.452 119.638 148.686 119.716 148.842 119.872C148.998 120.028 149.076 120.256 149.076 120.556C149.076 120.856 148.998 121.084 148.842 121.24C148.686 121.396 148.452 121.474 148.14 121.474H143.1V125.164H148.536C148.836 125.164 149.064 125.242 149.22 125.398C149.388 125.554 149.472 125.782 149.472 126.082C149.472 126.382 149.388 126.61 149.22 126.766C149.064 126.922 148.836 127 148.536 127H142.11ZM154.416 127.18C153.42 127.18 152.67 126.898 152.166 126.334C151.662 125.758 151.41 124.918 151.41 123.814V115.3C151.41 114.928 151.506 114.646 151.698 114.454C151.89 114.262 152.166 114.166 152.526 114.166C152.886 114.166 153.162 114.262 153.354 114.454C153.558 114.646 153.66 114.928 153.66 115.3V123.706C153.66 124.258 153.774 124.666 154.002 124.93C154.242 125.194 154.578 125.326 155.01 125.326C155.106 125.326 155.196 125.326 155.28 125.326C155.364 125.314 155.448 125.302 155.532 125.29C155.7 125.266 155.814 125.314 155.874 125.434C155.934 125.542 155.964 125.77 155.964 126.118C155.964 126.418 155.904 126.652 155.784 126.82C155.664 126.988 155.466 127.09 155.19 127.126C155.07 127.138 154.944 127.15 154.812 127.162C154.68 127.174 154.548 127.18 154.416 127.18ZM158.274 127.126C157.914 127.126 157.638 127.018 157.446 126.802C157.254 126.586 157.158 126.286 157.158 125.902V119.296C157.158 118.9 157.254 118.6 157.446 118.396C157.638 118.18 157.914 118.072 158.274 118.072C158.634 118.072 158.91 118.18 159.102 118.396C159.306 118.6 159.408 118.9 159.408 119.296V125.902C159.408 126.286 159.312 126.586 159.12 126.802C158.928 127.018 158.646 127.126 158.274 127.126ZM158.274 116.398C157.854 116.398 157.524 116.296 157.284 116.092C157.056 115.876 156.942 115.582 156.942 115.21C156.942 114.826 157.056 114.532 157.284 114.328C157.524 114.124 157.854 114.022 158.274 114.022C158.706 114.022 159.036 114.124 159.264 114.328C159.492 114.532 159.606 114.826 159.606 115.21C159.606 115.582 159.492 115.876 159.264 116.092C159.036 116.296 158.706 116.398 158.274 116.398ZM162.898 127.144C162.538 127.144 162.262 127.048 162.07 126.856C161.878 126.652 161.782 126.364 161.782 125.992V119.188C161.782 118.816 161.878 118.534 162.07 118.342C162.262 118.15 162.532 118.054 162.88 118.054C163.228 118.054 163.498 118.15 163.69 118.342C163.882 118.534 163.978 118.816 163.978 119.188V120.502L163.78 119.962C164.02 119.362 164.392 118.888 164.896 118.54C165.4 118.192 166 118.018 166.696 118.018C167.404 118.018 167.986 118.186 168.442 118.522C168.898 118.858 169.216 119.374 169.396 120.07H169.144C169.384 119.434 169.78 118.936 170.332 118.576C170.884 118.204 171.52 118.018 172.24 118.018C172.912 118.018 173.464 118.15 173.896 118.414C174.34 118.678 174.67 119.08 174.886 119.62C175.102 120.148 175.21 120.82 175.21 121.636V125.992C175.21 126.364 175.108 126.652 174.904 126.856C174.712 127.048 174.436 127.144 174.076 127.144C173.716 127.144 173.44 127.048 173.248 126.856C173.056 126.652 172.96 126.364 172.96 125.992V121.726C172.96 121.054 172.846 120.562 172.618 120.25C172.402 119.938 172.03 119.782 171.502 119.782C170.914 119.782 170.452 119.992 170.116 120.412C169.78 120.82 169.612 121.39 169.612 122.122V125.992C169.612 126.364 169.516 126.652 169.324 126.856C169.132 127.048 168.856 127.144 168.496 127.144C168.136 127.144 167.854 127.048 167.65 126.856C167.458 126.652 167.362 126.364 167.362 125.992V121.726C167.362 121.054 167.248 120.562 167.02 120.25C166.804 119.938 166.438 119.782 165.922 119.782C165.334 119.782 164.872 119.992 164.536 120.412C164.2 120.82 164.032 121.39 164.032 122.122V125.992C164.032 126.76 163.654 127.144 162.898 127.144ZM178.647 127.126C178.287 127.126 178.011 127.018 177.819 126.802C177.627 126.586 177.531 126.286 177.531 125.902V119.296C177.531 118.9 177.627 118.6 177.819 118.396C178.011 118.18 178.287 118.072 178.647 118.072C179.007 118.072 179.283 118.18 179.475 118.396C179.679 118.6 179.781 118.9 179.781 119.296V125.902C179.781 126.286 179.685 126.586 179.493 126.802C179.301 127.018 179.019 127.126 178.647 127.126ZM178.647 116.398C178.227 116.398 177.897 116.296 177.657 116.092C177.429 115.876 177.315 115.582 177.315 115.21C177.315 114.826 177.429 114.532 177.657 114.328C177.897 114.124 178.227 114.022 178.647 114.022C179.079 114.022 179.409 114.124 179.637 114.328C179.865 114.532 179.979 114.826 179.979 115.21C179.979 115.582 179.865 115.876 179.637 116.092C179.409 116.296 179.079 116.398 178.647 116.398ZM183.235 127.144C182.875 127.144 182.599 127.048 182.407 126.856C182.215 126.652 182.119 126.364 182.119 125.992V119.188C182.119 118.816 182.215 118.534 182.407 118.342C182.599 118.15 182.869 118.054 183.217 118.054C183.565 118.054 183.835 118.15 184.027 118.342C184.219 118.534 184.315 118.816 184.315 119.188V120.412L184.117 119.962C184.381 119.326 184.789 118.846 185.341 118.522C185.905 118.186 186.541 118.018 187.249 118.018C187.957 118.018 188.539 118.15 188.995 118.414C189.451 118.678 189.793 119.08 190.021 119.62C190.249 120.148 190.363 120.82 190.363 121.636V125.992C190.363 126.364 190.267 126.652 190.075 126.856C189.883 127.048 189.607 127.144 189.247 127.144C188.887 127.144 188.605 127.048 188.401 126.856C188.209 126.652 188.113 126.364 188.113 125.992V121.744C188.113 121.06 187.981 120.562 187.717 120.25C187.465 119.938 187.069 119.782 186.529 119.782C185.869 119.782 185.341 119.992 184.945 120.412C184.561 120.82 184.369 121.366 184.369 122.05V125.992C184.369 126.76 183.991 127.144 183.235 127.144ZM195.547 127.18C194.911 127.18 194.341 127.06 193.837 126.82C193.345 126.568 192.955 126.232 192.667 125.812C192.391 125.392 192.253 124.918 192.253 124.39C192.253 123.742 192.421 123.232 192.757 122.86C193.093 122.476 193.639 122.2 194.395 122.032C195.151 121.864 196.165 121.78 197.437 121.78H198.337V123.076H197.455C196.711 123.076 196.117 123.112 195.673 123.184C195.229 123.256 194.911 123.382 194.719 123.562C194.539 123.73 194.449 123.97 194.449 124.282C194.449 124.678 194.587 125.002 194.863 125.254C195.139 125.506 195.523 125.632 196.015 125.632C196.411 125.632 196.759 125.542 197.059 125.362C197.371 125.17 197.617 124.912 197.797 124.588C197.977 124.264 198.067 123.892 198.067 123.472V121.402C198.067 120.802 197.935 120.37 197.671 120.106C197.407 119.842 196.963 119.71 196.339 119.71C195.991 119.71 195.613 119.752 195.205 119.836C194.809 119.92 194.389 120.064 193.945 120.268C193.717 120.376 193.513 120.406 193.333 120.358C193.165 120.31 193.033 120.214 192.937 120.07C192.841 119.914 192.793 119.746 192.793 119.566C192.793 119.386 192.841 119.212 192.937 119.044C193.033 118.864 193.195 118.732 193.423 118.648C193.975 118.42 194.503 118.258 195.007 118.162C195.523 118.066 195.991 118.018 196.411 118.018C197.275 118.018 197.983 118.15 198.535 118.414C199.099 118.678 199.519 119.08 199.795 119.62C200.071 120.148 200.209 120.832 200.209 121.672V125.992C200.209 126.364 200.119 126.652 199.939 126.856C199.759 127.048 199.501 127.144 199.165 127.144C198.829 127.144 198.565 127.048 198.373 126.856C198.193 126.652 198.103 126.364 198.103 125.992V125.128H198.247C198.163 125.548 197.995 125.914 197.743 126.226C197.503 126.526 197.197 126.76 196.825 126.928C196.453 127.096 196.027 127.18 195.547 127.18ZM203.644 127.144C203.272 127.144 202.984 127.048 202.78 126.856C202.588 126.652 202.492 126.364 202.492 125.992V119.188C202.492 118.816 202.588 118.534 202.78 118.342C202.972 118.15 203.242 118.054 203.59 118.054C203.938 118.054 204.208 118.15 204.4 118.342C204.592 118.534 204.688 118.816 204.688 119.188V120.322H204.508C204.676 119.602 205.006 119.056 205.498 118.684C205.99 118.312 206.644 118.09 207.46 118.018C207.712 117.994 207.91 118.06 208.054 118.216C208.21 118.36 208.3 118.588 208.324 118.9C208.348 119.2 208.276 119.446 208.108 119.638C207.952 119.818 207.712 119.926 207.388 119.962L206.992 119.998C206.26 120.07 205.708 120.298 205.336 120.682C204.964 121.054 204.778 121.582 204.778 122.266V125.992C204.778 126.364 204.682 126.652 204.49 126.856C204.298 127.048 204.016 127.144 203.644 127.144Z" fill="white"/>
</svg>
