<svg width="728" height="281" viewBox="0 0 728 281" fill="none" xmlns="http://www.w3.org/2000/svg">
<g clip-path="url(#clip0_330_16635)">
<rect y="0.507324" width="728" height="280" rx="8" fill="#F3F6F9"/>
<rect width="604" height="314" transform="translate(-66 -33.4927)" fill="white"/>
<rect x="-66.7891" y="-12.1866" width="276.19" height="39.4558" rx="7.10204" fill="#F3F6F9"/>
<rect x="-66.7891" y="-12.1866" width="276.19" height="39.4558" rx="7.10204" stroke="#E6EBF0" stroke-width="1.57823"/>
<path d="M183.918 7.07888L185.961 9.12269C186.269 9.43044 186.766 9.43044 187.074 9.12269L189.118 7.07888C189.615 6.58174 189.26 5.72949 188.558 5.72949H184.47C183.768 5.72949 183.42 6.58174 183.918 7.07888Z" fill="#101E37"/>
<rect x="-51.7959" y="-0.492676" width="135.728" height="16" rx="4.27" fill="#B8C1CC"/>
<rect x="226.762" y="-12.1866" width="276.19" height="39.4558" rx="7.10204" fill="#F3F6F9"/>
<rect x="226.762" y="-12.1866" width="276.19" height="39.4558" rx="7.10204" stroke="#E6EBF0" stroke-width="1.57823"/>
<rect x="241.755" y="-0.492676" width="135.728" height="16" rx="4.27" fill="#B8C1CC"/>
<rect x="-66.7891" y="68.6367" width="276.19" height="39.4558" rx="7.10204" fill="#F3F6F9"/>
<rect x="-66.7891" y="68.6367" width="276.19" height="39.4558" rx="7.10204" stroke="#E6EBF0" stroke-width="1.57823"/>
<rect x="-66" y="45.4189" width="136" height="16" rx="4.27" fill="#E6EBF0"/>
<rect x="-52" y="80.5073" width="136" height="16" rx="4.27" fill="#B8C1CC"/>
<rect x="228" y="45.4189" width="135" height="16" rx="4.27" fill="#E6EBF0"/>
<rect x="226.762" y="68.6367" width="276.19" height="39.4558" rx="7.10204" fill="#F3F6F9"/>
<rect x="226.762" y="68.6367" width="276.19" height="39.4558" rx="7.10204" stroke="#E6EBF0" stroke-width="1.57823"/>
<path d="M477.468 87.9021L479.512 89.9459C479.82 90.2537 480.317 90.2537 480.625 89.9459L482.669 87.9021C483.166 87.405 482.811 86.5527 482.108 86.5527H478.021C477.318 86.5527 476.971 87.405 477.468 87.9021Z" fill="#101E37"/>
<rect x="242" y="80.5073" width="135" height="16" rx="4.27" fill="#B8C1CC"/>
<rect x="-66.7891" y="125.453" width="569.578" height="71.5782" rx="7.10204" fill="#F3F6F9"/>
<rect x="-66.7891" y="125.453" width="569.578" height="71.5782" rx="7.10204" stroke="#E6EBF0" stroke-width="1.57823"/>
<g clip-path="url(#clip1_330_16635)">
<g clip-path="url(#clip2_330_16635)">
<path d="M490.791 188.185L493.942 185.034L494.573 185.664L491.421 188.816L490.791 188.185ZM488.584 187.871L493.628 182.828L494.258 183.458L489.215 188.501L488.584 187.871ZM492.997 188.501L494.258 187.24L494.889 187.871L493.628 189.132L492.997 188.501Z" fill="#101E37"/>
</g>
</g>
<rect x="332.286" y="222.283" width="66.6735" height="30.0476" rx="5.52381" stroke="#101E37" stroke-width="1.57823"/>
<path d="M349.193 241.92C348.938 241.92 348.725 241.863 348.554 241.75C348.393 241.627 348.261 241.447 348.157 241.21L344.449 232.886C344.345 232.65 344.317 232.441 344.364 232.261C344.411 232.082 344.511 231.94 344.662 231.835C344.814 231.731 344.994 231.679 345.202 231.679C345.477 231.679 345.68 231.741 345.813 231.864C345.955 231.977 346.073 232.153 346.168 232.389L349.534 240.187H348.924L352.276 232.375C352.38 232.148 352.503 231.977 352.645 231.864C352.787 231.741 352.986 231.679 353.242 231.679C353.45 231.679 353.62 231.731 353.753 231.835C353.895 231.94 353.985 232.082 354.023 232.261C354.061 232.441 354.028 232.65 353.923 232.886L350.216 241.21C350.112 241.447 349.979 241.627 349.818 241.75C349.667 241.863 349.459 241.92 349.193 241.92ZM357.438 241.949C356.718 241.949 356.093 241.802 355.563 241.508C355.032 241.215 354.621 240.798 354.327 240.258C354.033 239.709 353.887 239.065 353.887 238.327C353.887 237.768 353.967 237.271 354.128 236.835C354.299 236.39 354.54 236.011 354.853 235.699C355.165 235.377 355.539 235.135 355.975 234.974C356.41 234.804 356.898 234.719 357.438 234.719C358.157 234.719 358.782 234.866 359.313 235.159C359.843 235.453 360.255 235.869 360.548 236.409C360.842 236.949 360.989 237.588 360.989 238.327C360.989 238.885 360.903 239.387 360.733 239.832C360.572 240.277 360.335 240.661 360.023 240.983C359.71 241.295 359.336 241.537 358.901 241.707C358.465 241.868 357.977 241.949 357.438 241.949ZM357.438 240.599C357.788 240.599 358.096 240.514 358.361 240.344C358.626 240.173 358.83 239.922 358.972 239.591C359.123 239.25 359.199 238.829 359.199 238.327C359.199 237.569 359.038 237.006 358.716 236.636C358.394 236.258 357.968 236.068 357.438 236.068C357.087 236.068 356.78 236.153 356.514 236.324C356.249 236.485 356.041 236.736 355.889 237.077C355.747 237.408 355.676 237.825 355.676 238.327C355.676 239.075 355.837 239.643 356.159 240.031C356.481 240.41 356.907 240.599 357.438 240.599ZM364.826 241.949C364.04 241.949 363.448 241.726 363.051 241.281C362.653 240.827 362.454 240.164 362.454 239.293V232.574C362.454 232.28 362.53 232.058 362.681 231.906C362.833 231.755 363.051 231.679 363.335 231.679C363.619 231.679 363.837 231.755 363.988 231.906C364.149 232.058 364.23 232.28 364.23 232.574V239.207C364.23 239.643 364.32 239.965 364.5 240.173C364.689 240.381 364.954 240.486 365.295 240.486C365.371 240.486 365.442 240.486 365.508 240.486C365.574 240.476 365.641 240.467 365.707 240.457C365.839 240.438 365.929 240.476 365.977 240.571C366.024 240.656 366.048 240.836 366.048 241.111C366.048 241.347 366 241.532 365.906 241.665C365.811 241.797 365.655 241.878 365.437 241.906C365.342 241.916 365.243 241.925 365.139 241.934C365.035 241.944 364.93 241.949 364.826 241.949ZM369.622 241.92C369.385 241.92 369.177 241.859 368.997 241.736C368.827 241.613 368.685 241.423 368.571 241.167L366.313 235.926C366.227 235.718 366.194 235.524 366.213 235.344C366.242 235.164 366.327 235.022 366.469 234.918C366.62 234.804 366.824 234.747 367.08 234.747C367.297 234.747 367.473 234.799 367.605 234.903C367.738 234.998 367.856 235.183 367.96 235.457L369.878 240.244H369.452L371.426 235.443C371.53 235.178 371.649 234.998 371.781 234.903C371.923 234.799 372.113 234.747 372.349 234.747C372.558 234.747 372.723 234.804 372.846 234.918C372.97 235.022 373.045 235.164 373.074 235.344C373.102 235.514 373.069 235.704 372.974 235.912L370.673 241.167C370.569 241.423 370.427 241.613 370.247 241.736C370.077 241.859 369.868 241.92 369.622 241.92ZM377.585 241.949C376.799 241.949 376.122 241.802 375.553 241.508C374.985 241.215 374.545 240.798 374.232 240.258C373.929 239.719 373.778 239.079 373.778 238.341C373.778 237.621 373.925 236.991 374.218 236.452C374.521 235.912 374.933 235.491 375.454 235.188C375.984 234.875 376.586 234.719 377.258 234.719C377.75 234.719 378.191 234.799 378.579 234.96C378.977 235.121 379.313 235.353 379.587 235.656C379.871 235.959 380.085 236.329 380.227 236.764C380.378 237.19 380.454 237.673 380.454 238.213C380.454 238.383 380.392 238.516 380.269 238.611C380.156 238.696 379.99 238.739 379.772 238.739H375.213V237.716H379.204L378.977 237.929C378.977 237.493 378.91 237.129 378.778 236.835C378.655 236.542 378.47 236.319 378.224 236.168C377.987 236.007 377.689 235.926 377.329 235.926C376.931 235.926 376.59 236.021 376.306 236.21C376.032 236.39 375.819 236.651 375.667 236.991C375.525 237.323 375.454 237.721 375.454 238.185V238.284C375.454 239.061 375.634 239.643 375.994 240.031C376.363 240.41 376.903 240.599 377.613 240.599C377.859 240.599 378.134 240.571 378.437 240.514C378.749 240.448 379.043 240.339 379.318 240.187C379.516 240.074 379.692 240.026 379.843 240.045C379.995 240.055 380.113 240.107 380.198 240.202C380.293 240.296 380.35 240.415 380.369 240.557C380.388 240.689 380.359 240.827 380.283 240.969C380.217 241.111 380.099 241.234 379.928 241.338C379.597 241.546 379.213 241.702 378.778 241.807C378.352 241.901 377.954 241.949 377.585 241.949ZM382.769 241.92C382.475 241.92 382.248 241.845 382.087 241.693C381.936 241.532 381.86 241.305 381.86 241.011V235.642C381.86 235.349 381.936 235.126 382.087 234.974C382.239 234.823 382.452 234.747 382.726 234.747C383.001 234.747 383.214 234.823 383.366 234.974C383.517 235.126 383.593 235.349 383.593 235.642V236.537H383.451C383.583 235.969 383.844 235.538 384.232 235.244C384.62 234.951 385.136 234.776 385.78 234.719C385.979 234.7 386.135 234.752 386.249 234.875C386.372 234.989 386.443 235.169 386.462 235.415C386.481 235.652 386.424 235.846 386.292 235.997C386.168 236.139 385.979 236.224 385.723 236.253L385.411 236.281C384.833 236.338 384.398 236.518 384.104 236.821C383.811 237.115 383.664 237.531 383.664 238.071V241.011C383.664 241.305 383.588 241.532 383.437 241.693C383.285 241.845 383.063 241.92 382.769 241.92Z" fill="#101E37"/>
<rect x="411.748" y="221.494" width="90.2517" height="31.6259" rx="6.31293" fill="#101E37"/>
<path d="M430.127 241.949C429.085 241.949 428.19 241.74 427.442 241.324C426.703 240.898 426.135 240.301 425.738 239.534C425.34 238.757 425.141 237.844 425.141 236.793C425.141 236.007 425.255 235.301 425.482 234.676C425.709 234.042 426.036 233.502 426.462 233.057C426.888 232.602 427.409 232.257 428.024 232.02C428.649 231.774 429.35 231.651 430.127 231.651C430.647 231.651 431.159 231.717 431.661 231.85C432.163 231.982 432.603 232.172 432.982 232.418C433.181 232.541 433.313 232.692 433.379 232.872C433.446 233.043 433.46 233.213 433.422 233.384C433.384 233.545 433.304 233.682 433.181 233.796C433.067 233.909 432.92 233.975 432.74 233.994C432.57 234.004 432.38 233.942 432.172 233.81C431.879 233.62 431.561 233.483 431.22 233.398C430.879 233.313 430.534 233.27 430.183 233.27C429.511 233.27 428.943 233.407 428.479 233.682C428.015 233.957 427.665 234.354 427.428 234.875C427.191 235.396 427.073 236.035 427.073 236.793C427.073 237.541 427.191 238.18 427.428 238.71C427.665 239.24 428.015 239.643 428.479 239.917C428.943 240.192 429.511 240.329 430.183 240.329C430.543 240.329 430.898 240.287 431.249 240.202C431.599 240.107 431.931 239.965 432.243 239.775C432.451 239.652 432.636 239.6 432.797 239.619C432.967 239.629 433.11 239.685 433.223 239.79C433.337 239.894 433.413 240.026 433.45 240.187C433.488 240.339 433.479 240.5 433.422 240.67C433.365 240.831 433.252 240.973 433.081 241.096C432.702 241.371 432.248 241.584 431.718 241.736C431.197 241.878 430.666 241.949 430.127 241.949ZM437.62 241.949C436.9 241.949 436.275 241.802 435.745 241.508C435.215 241.215 434.803 240.798 434.509 240.258C434.216 239.709 434.069 239.065 434.069 238.327C434.069 237.768 434.149 237.271 434.31 236.835C434.481 236.39 434.722 236.011 435.035 235.699C435.347 235.377 435.721 235.135 436.157 234.974C436.592 234.804 437.08 234.719 437.62 234.719C438.339 234.719 438.964 234.866 439.495 235.159C440.025 235.453 440.437 235.869 440.73 236.409C441.024 236.949 441.171 237.588 441.171 238.327C441.171 238.885 441.086 239.387 440.915 239.832C440.754 240.277 440.517 240.661 440.205 240.983C439.892 241.295 439.518 241.537 439.083 241.707C438.647 241.868 438.16 241.949 437.62 241.949ZM437.62 240.599C437.97 240.599 438.278 240.514 438.543 240.344C438.808 240.173 439.012 239.922 439.154 239.591C439.305 239.25 439.381 238.829 439.381 238.327C439.381 237.569 439.22 237.006 438.898 236.636C438.576 236.258 438.15 236.068 437.62 236.068C437.269 236.068 436.962 236.153 436.697 236.324C436.431 236.485 436.223 236.736 436.072 237.077C435.929 237.408 435.858 237.825 435.858 238.327C435.858 239.075 436.019 239.643 436.341 240.031C436.663 240.41 437.089 240.599 437.62 240.599ZM443.517 241.92C443.233 241.92 443.015 241.845 442.864 241.693C442.712 241.532 442.636 241.305 442.636 241.011V235.642C442.636 235.349 442.712 235.126 442.864 234.974C443.015 234.823 443.228 234.747 443.503 234.747C443.777 234.747 443.99 234.823 444.142 234.974C444.293 235.126 444.369 235.349 444.369 235.642V236.608L444.213 236.253C444.421 235.751 444.743 235.372 445.179 235.117C445.624 234.851 446.126 234.719 446.684 234.719C447.243 234.719 447.702 234.823 448.062 235.031C448.422 235.24 448.692 235.557 448.872 235.983C449.052 236.4 449.142 236.93 449.142 237.574V241.011C449.142 241.305 449.066 241.532 448.914 241.693C448.763 241.845 448.545 241.92 448.261 241.92C447.977 241.92 447.754 241.845 447.593 241.693C447.442 241.532 447.366 241.305 447.366 241.011V237.659C447.366 237.119 447.262 236.726 447.054 236.48C446.855 236.234 446.542 236.111 446.116 236.111C445.595 236.111 445.179 236.277 444.866 236.608C444.563 236.93 444.412 237.361 444.412 237.901V241.011C444.412 241.617 444.113 241.92 443.517 241.92ZM454.127 241.949C453.511 241.949 452.995 241.845 452.579 241.636C452.171 241.428 451.868 241.125 451.669 240.727C451.471 240.32 451.371 239.818 451.371 239.221V236.196H450.633C450.405 236.196 450.23 236.139 450.107 236.026C449.984 235.902 449.922 235.737 449.922 235.528C449.922 235.311 449.984 235.145 450.107 235.031C450.23 234.918 450.405 234.861 450.633 234.861H451.371V233.568C451.371 233.275 451.447 233.052 451.598 232.901C451.759 232.749 451.982 232.673 452.266 232.673C452.55 232.673 452.768 232.749 452.919 232.901C453.071 233.052 453.147 233.275 453.147 233.568V234.861H454.652C454.88 234.861 455.055 234.918 455.178 235.031C455.301 235.145 455.363 235.311 455.363 235.528C455.363 235.737 455.301 235.902 455.178 236.026C455.055 236.139 454.88 236.196 454.652 236.196H453.147V239.122C453.147 239.577 453.246 239.917 453.445 240.145C453.644 240.372 453.966 240.486 454.411 240.486C454.572 240.486 454.714 240.471 454.837 240.443C454.96 240.415 455.069 240.396 455.164 240.386C455.277 240.377 455.372 240.415 455.448 240.5C455.524 240.576 455.561 240.737 455.561 240.983C455.561 241.172 455.528 241.343 455.462 241.494C455.405 241.636 455.296 241.736 455.135 241.792C455.012 241.83 454.851 241.863 454.652 241.892C454.453 241.93 454.278 241.949 454.127 241.949ZM457.457 241.906C457.173 241.906 456.956 241.821 456.804 241.65C456.653 241.48 456.577 241.243 456.577 240.94V235.727C456.577 235.415 456.653 235.178 456.804 235.017C456.956 234.847 457.173 234.761 457.457 234.761C457.742 234.761 457.959 234.847 458.111 235.017C458.272 235.178 458.352 235.415 458.352 235.727V240.94C458.352 241.243 458.277 241.48 458.125 241.65C457.974 241.821 457.751 241.906 457.457 241.906ZM457.457 233.44C457.126 233.44 456.866 233.36 456.676 233.199C456.496 233.029 456.406 232.797 456.406 232.503C456.406 232.2 456.496 231.968 456.676 231.807C456.866 231.646 457.126 231.565 457.457 231.565C457.798 231.565 458.059 231.646 458.239 231.807C458.419 231.968 458.509 232.2 458.509 232.503C458.509 232.797 458.419 233.029 458.239 233.199C458.059 233.36 457.798 233.44 457.457 233.44ZM461.078 241.92C460.794 241.92 460.576 241.845 460.424 241.693C460.273 241.532 460.197 241.305 460.197 241.011V235.642C460.197 235.349 460.273 235.126 460.424 234.974C460.576 234.823 460.789 234.747 461.064 234.747C461.338 234.747 461.551 234.823 461.703 234.974C461.854 235.126 461.93 235.349 461.93 235.642V236.608L461.774 236.253C461.982 235.751 462.304 235.372 462.74 235.117C463.185 234.851 463.687 234.719 464.245 234.719C464.804 234.719 465.263 234.823 465.623 235.031C465.983 235.24 466.253 235.557 466.433 235.983C466.613 236.4 466.703 236.93 466.703 237.574V241.011C466.703 241.305 466.627 241.532 466.475 241.693C466.324 241.845 466.106 241.92 465.822 241.92C465.538 241.92 465.315 241.845 465.154 241.693C465.003 241.532 464.927 241.305 464.927 241.011V237.659C464.927 237.119 464.823 236.726 464.615 236.48C464.416 236.234 464.103 236.111 463.677 236.111C463.156 236.111 462.74 236.277 462.427 236.608C462.124 236.93 461.973 237.361 461.973 237.901V241.011C461.973 241.617 461.674 241.92 461.078 241.92ZM471.02 241.949C470.442 241.949 469.964 241.845 469.586 241.636C469.207 241.418 468.923 241.096 468.733 240.67C468.553 240.244 468.463 239.714 468.463 239.079V235.642C468.463 235.339 468.539 235.117 468.691 234.974C468.842 234.823 469.06 234.747 469.344 234.747C469.628 234.747 469.846 234.823 469.997 234.974C470.158 235.117 470.239 235.339 470.239 235.642V239.108C470.239 239.6 470.338 239.965 470.537 240.202C470.736 240.438 471.053 240.557 471.489 240.557C471.962 240.557 472.351 240.396 472.654 240.074C472.957 239.742 473.108 239.307 473.108 238.767V235.642C473.108 235.339 473.184 235.117 473.335 234.974C473.487 234.823 473.705 234.747 473.989 234.747C474.273 234.747 474.491 234.823 474.642 234.974C474.803 235.117 474.884 235.339 474.884 235.642V241.011C474.884 241.617 474.595 241.92 474.017 241.92C473.743 241.92 473.53 241.845 473.378 241.693C473.226 241.532 473.151 241.305 473.151 241.011V239.932L473.35 240.358C473.151 240.869 472.848 241.262 472.441 241.537C472.043 241.811 471.569 241.949 471.02 241.949ZM479.018 241.949C478.517 241.949 478.067 241.854 477.669 241.665C477.281 241.466 476.973 241.201 476.746 240.869C476.528 240.538 476.419 240.164 476.419 239.747C476.419 239.236 476.552 238.833 476.817 238.54C477.082 238.237 477.513 238.019 478.109 237.886C478.706 237.754 479.506 237.687 480.51 237.687H481.22V238.71H480.524C479.937 238.71 479.468 238.739 479.118 238.795C478.768 238.852 478.517 238.952 478.365 239.094C478.223 239.226 478.152 239.416 478.152 239.662C478.152 239.974 478.261 240.23 478.479 240.429C478.696 240.628 479 240.727 479.388 240.727C479.7 240.727 479.975 240.656 480.212 240.514C480.458 240.363 480.652 240.159 480.794 239.903C480.936 239.648 481.007 239.354 481.007 239.023V237.389C481.007 236.916 480.903 236.575 480.695 236.366C480.486 236.158 480.136 236.054 479.643 236.054C479.369 236.054 479.071 236.087 478.749 236.153C478.436 236.22 478.105 236.333 477.754 236.494C477.574 236.58 477.413 236.603 477.271 236.565C477.139 236.527 477.035 236.452 476.959 236.338C476.883 236.215 476.845 236.082 476.845 235.94C476.845 235.798 476.883 235.661 476.959 235.528C477.035 235.386 477.162 235.282 477.342 235.216C477.778 235.036 478.195 234.908 478.592 234.832C479 234.757 479.369 234.719 479.7 234.719C480.382 234.719 480.941 234.823 481.376 235.031C481.821 235.24 482.153 235.557 482.371 235.983C482.588 236.4 482.697 236.939 482.697 237.602V241.011C482.697 241.305 482.626 241.532 482.484 241.693C482.342 241.845 482.139 241.92 481.873 241.92C481.608 241.92 481.4 241.845 481.248 241.693C481.106 241.532 481.035 241.305 481.035 241.011V240.329H481.149C481.083 240.661 480.95 240.95 480.751 241.196C480.562 241.433 480.32 241.617 480.027 241.75C479.733 241.882 479.397 241.949 479.018 241.949ZM485.409 241.92C485.115 241.92 484.888 241.845 484.727 241.693C484.575 241.532 484.499 241.305 484.499 241.011V235.642C484.499 235.349 484.575 235.126 484.727 234.974C484.878 234.823 485.091 234.747 485.366 234.747C485.641 234.747 485.854 234.823 486.005 234.974C486.157 235.126 486.232 235.349 486.232 235.642V236.537H486.09C486.223 235.969 486.483 235.538 486.872 235.244C487.26 234.951 487.776 234.776 488.42 234.719C488.619 234.7 488.775 234.752 488.889 234.875C489.012 234.989 489.083 235.169 489.102 235.415C489.121 235.652 489.064 235.846 488.931 235.997C488.808 236.139 488.619 236.224 488.363 236.253L488.05 236.281C487.473 236.338 487.037 236.518 486.744 236.821C486.45 237.115 486.303 237.531 486.303 238.071V241.011C486.303 241.305 486.228 241.532 486.076 241.693C485.925 241.845 485.702 241.92 485.409 241.92Z" fill="white"/>
</g>
<rect x="1" y="1.50732" width="726" height="278" rx="7" stroke="#E6EBF0" stroke-width="2"/>
<defs>
<clipPath id="clip0_330_16635">
<rect y="0.507324" width="728" height="280" rx="8" fill="white"/>
</clipPath>
<clipPath id="clip1_330_16635">
<rect width="18.9388" height="18.9388" fill="white" transform="translate(483.061 177.303)"/>
</clipPath>
<clipPath id="clip2_330_16635">
<rect width="8.19497" height="8.19497" fill="white" transform="translate(488.584 182.827)"/>
</clipPath>
</defs>
</svg>
