<svg width="728" height="350" viewBox="0 0 728 350" fill="none" xmlns="http://www.w3.org/2000/svg">
<rect x="1" y="1" width="726" height="347.507" rx="7" fill="#F3F6F9"/>
<rect x="1" y="1" width="726" height="347.507" rx="7" stroke="#E6EBF0" stroke-width="2"/>
<mask id="path-2-inside-1_189_5623" fill="white">
<path d="M133.976 0H594.024V349.507H133.976V0Z"/>
</mask>
<path d="M133.976 0H594.024V349.507H133.976V0Z" fill="white"/>
<path d="M133.976 0V-2H131.976V0H133.976ZM594.024 0H596.024V-2H594.024V0ZM594.024 349.507V351.507H596.024V349.507H594.024ZM133.976 349.507H131.976V351.507H133.976V349.507ZM133.976 2H594.024V-2H133.976V2ZM592.024 0V349.507H596.024V0H592.024ZM594.024 347.507H133.976V351.507H594.024V347.507ZM135.976 349.507V0H131.976V349.507H135.976Z" fill="#E6EBF0" mask="url(#path-2-inside-1_189_5623)"/>
<rect x="193.976" y="28" width="147.255" height="20" rx="4" fill="#B8C1CC"/>
<rect x="193.976" y="56" width="340.049" height="16" rx="4" fill="#E6EBF0"/>
<rect x="193.976" y="78" width="340.049" height="16" rx="4" fill="#E6EBF0"/>
<rect x="193.976" y="100" width="279" height="16" rx="4" fill="#E6EBF0"/>
<rect x="193.976" y="136" width="155.774" height="20" rx="4" fill="#B8C1CC"/>
<rect x="195.193" y="165.217" width="242.179" height="21.566" rx="3.97953" stroke="#B8C1CC" stroke-width="2.43396"/>
<path d="M217.099 211.651H200.061C198.722 211.651 197.627 212.746 197.627 214.085V231.123C197.627 232.461 198.722 233.557 200.061 233.557H217.099C218.437 233.557 219.533 232.461 219.533 231.123V214.085C219.533 212.746 218.437 211.651 217.099 211.651ZM207.01 227.825C206.535 228.299 205.769 228.299 205.294 227.825L200.925 223.456C200.45 222.981 200.45 222.214 200.925 221.74C201.4 221.265 202.166 221.265 202.641 221.74L206.146 225.245L214.519 216.872C214.993 216.397 215.76 216.397 216.235 216.872C216.709 217.346 216.709 218.113 216.235 218.588L207.01 227.825Z" fill="#B8C1CC"/>
<rect x="230.485" y="212.604" width="303.539" height="20" rx="4" fill="#B8C1CC"/>
<path d="M217.099 240.858H200.061C198.722 240.858 197.627 241.954 197.627 243.292V260.33C197.627 261.669 198.722 262.764 200.061 262.764H217.099C218.437 262.764 219.533 261.669 219.533 260.33V243.292C219.533 241.954 218.437 240.858 217.099 240.858ZM207.01 257.032C206.535 257.507 205.769 257.507 205.294 257.032L200.925 252.663C200.45 252.188 200.45 251.422 200.925 250.947C201.4 250.473 202.166 250.473 202.641 250.947L206.146 254.452L214.519 246.079C214.993 245.605 215.76 245.605 216.235 246.079C216.709 246.554 216.709 247.321 216.235 247.795L207.01 257.032Z" fill="#B8C1CC"/>
<rect x="230.485" y="241.811" width="212.972" height="20" rx="4" fill="#B8C1CC"/>
<rect x="193.976" y="290.415" width="121.185" height="31.0924" rx="6.04618" fill="#336ACC"/>
<path d="M208.041 310.461C207.742 310.461 207.51 310.384 207.347 310.23C207.193 310.067 207.116 309.835 207.116 309.536V301.795C207.116 301.496 207.193 301.269 207.347 301.115C207.51 300.952 207.742 300.87 208.041 300.87H212.898C213.124 300.87 213.297 300.929 213.414 301.047C213.541 301.165 213.605 301.333 213.605 301.551C213.605 301.777 213.541 301.954 213.414 302.081C213.297 302.199 213.124 302.258 212.898 302.258H208.789V304.897H212.598C212.834 304.897 213.011 304.956 213.129 305.074C213.247 305.192 213.306 305.364 213.306 305.591C213.306 305.818 213.247 305.99 213.129 306.108C213.011 306.226 212.834 306.285 212.598 306.285H208.789V309.074H212.898C213.124 309.074 213.297 309.133 213.414 309.25C213.541 309.368 213.605 309.541 213.605 309.767C213.605 309.994 213.541 310.166 213.414 310.284C213.297 310.402 213.124 310.461 212.898 310.461H208.041ZM215.913 310.57C215.641 310.57 215.433 310.497 215.287 310.352C215.142 310.198 215.07 309.981 215.07 309.699V304.557C215.07 304.276 215.142 304.063 215.287 303.918C215.433 303.773 215.637 303.7 215.9 303.7C216.163 303.7 216.367 303.773 216.512 303.918C216.657 304.063 216.729 304.276 216.729 304.557V305.482L216.58 305.142C216.779 304.661 217.088 304.299 217.505 304.054C217.931 303.8 218.412 303.673 218.947 303.673C219.482 303.673 219.922 303.773 220.266 303.972C220.611 304.172 220.87 304.475 221.042 304.884C221.214 305.283 221.3 305.791 221.3 306.407V309.699C221.3 309.981 221.228 310.198 221.083 310.352C220.938 310.497 220.729 310.57 220.457 310.57C220.185 310.57 219.972 310.497 219.818 310.352C219.672 310.198 219.6 309.981 219.6 309.699V306.489C219.6 305.972 219.5 305.596 219.301 305.36C219.11 305.124 218.811 305.006 218.403 305.006C217.904 305.006 217.505 305.165 217.206 305.482C216.915 305.791 216.77 306.203 216.77 306.72V309.699C216.77 310.28 216.485 310.57 215.913 310.57ZM225.655 310.57C225.428 310.57 225.228 310.511 225.056 310.393C224.893 310.275 224.757 310.094 224.648 309.849L222.485 304.829C222.403 304.63 222.372 304.444 222.39 304.271C222.417 304.099 222.499 303.963 222.635 303.863C222.78 303.754 222.975 303.7 223.22 303.7C223.428 303.7 223.596 303.75 223.723 303.85C223.85 303.94 223.963 304.117 224.063 304.38L225.9 308.965H225.491L227.382 304.367C227.482 304.113 227.596 303.94 227.722 303.85C227.859 303.75 228.04 303.7 228.267 303.7C228.466 303.7 228.625 303.754 228.743 303.863C228.861 303.963 228.933 304.099 228.96 304.271C228.988 304.435 228.956 304.616 228.865 304.816L226.661 309.849C226.562 310.094 226.426 310.275 226.253 310.393C226.09 310.511 225.89 310.57 225.655 310.57ZM230.978 310.556C230.706 310.556 230.498 310.475 230.353 310.312C230.208 310.148 230.135 309.922 230.135 309.631V304.639C230.135 304.339 230.208 304.113 230.353 303.959C230.498 303.795 230.706 303.714 230.978 303.714C231.251 303.714 231.459 303.795 231.604 303.959C231.758 304.113 231.836 304.339 231.836 304.639V309.631C231.836 309.922 231.763 310.148 231.618 310.312C231.473 310.475 231.26 310.556 230.978 310.556ZM230.978 302.448C230.661 302.448 230.412 302.371 230.23 302.217C230.058 302.054 229.972 301.832 229.972 301.551C229.972 301.26 230.058 301.038 230.23 300.884C230.412 300.73 230.661 300.653 230.978 300.653C231.305 300.653 231.554 300.73 231.727 300.884C231.899 301.038 231.985 301.26 231.985 301.551C231.985 301.832 231.899 302.054 231.727 302.217C231.554 302.371 231.305 302.448 230.978 302.448ZM235.793 310.597C235.312 310.597 234.881 310.507 234.5 310.325C234.128 310.135 233.834 309.881 233.616 309.563C233.407 309.246 233.303 308.888 233.303 308.489C233.303 307.999 233.43 307.613 233.684 307.332C233.938 307.042 234.351 306.833 234.922 306.707C235.493 306.58 236.26 306.516 237.221 306.516H237.901V307.496H237.235C236.672 307.496 236.223 307.523 235.888 307.577C235.552 307.632 235.312 307.727 235.167 307.863C235.031 307.99 234.963 308.171 234.963 308.407C234.963 308.706 235.067 308.951 235.276 309.142C235.484 309.332 235.775 309.427 236.146 309.427C236.446 309.427 236.709 309.359 236.935 309.223C237.171 309.078 237.357 308.883 237.493 308.638C237.629 308.393 237.697 308.112 237.697 307.795V306.23C237.697 305.777 237.597 305.45 237.398 305.251C237.198 305.051 236.863 304.952 236.391 304.952C236.128 304.952 235.843 304.983 235.534 305.047C235.235 305.11 234.917 305.219 234.582 305.373C234.41 305.455 234.255 305.478 234.119 305.441C233.992 305.405 233.893 305.333 233.82 305.224C233.748 305.106 233.711 304.979 233.711 304.843C233.711 304.707 233.748 304.575 233.82 304.448C233.893 304.312 234.015 304.212 234.187 304.149C234.605 303.977 235.004 303.854 235.385 303.782C235.775 303.709 236.128 303.673 236.446 303.673C237.099 303.673 237.634 303.773 238.051 303.972C238.477 304.172 238.795 304.475 239.003 304.884C239.212 305.283 239.316 305.8 239.316 306.434V309.699C239.316 309.981 239.248 310.198 239.112 310.352C238.976 310.497 238.781 310.57 238.527 310.57C238.273 310.57 238.074 310.497 237.928 310.352C237.792 310.198 237.724 309.981 237.724 309.699V309.046H237.833C237.77 309.364 237.643 309.64 237.452 309.876C237.271 310.103 237.04 310.28 236.759 310.407C236.477 310.534 236.155 310.597 235.793 310.597ZM241.913 310.57C241.632 310.57 241.414 310.497 241.26 310.352C241.115 310.198 241.042 309.981 241.042 309.699V304.557C241.042 304.276 241.115 304.063 241.26 303.918C241.405 303.773 241.609 303.7 241.872 303.7C242.135 303.7 242.339 303.773 242.484 303.918C242.629 304.063 242.702 304.276 242.702 304.557V305.414H242.566C242.693 304.87 242.942 304.457 243.314 304.176C243.686 303.895 244.18 303.727 244.797 303.673C244.987 303.655 245.137 303.705 245.246 303.822C245.364 303.931 245.432 304.104 245.45 304.339C245.468 304.566 245.413 304.752 245.287 304.897C245.169 305.033 244.987 305.115 244.742 305.142L244.443 305.169C243.89 305.224 243.473 305.396 243.192 305.686C242.91 305.967 242.77 306.366 242.77 306.883V309.699C242.77 309.981 242.697 310.198 242.552 310.352C242.407 310.497 242.194 310.57 241.913 310.57ZM252.498 310.597C252.108 310.597 251.695 310.556 251.26 310.475C250.824 310.393 250.434 310.253 250.09 310.053C249.945 309.962 249.84 309.858 249.777 309.74C249.723 309.613 249.7 309.491 249.709 309.373C249.727 309.246 249.772 309.137 249.845 309.046C249.927 308.956 250.026 308.897 250.144 308.87C250.271 308.842 250.407 308.865 250.552 308.938C250.915 309.11 251.255 309.232 251.573 309.305C251.89 309.368 252.203 309.4 252.511 309.4C252.947 309.4 253.269 309.328 253.477 309.182C253.695 309.028 253.804 308.829 253.804 308.584C253.804 308.375 253.731 308.217 253.586 308.108C253.45 307.99 253.241 307.904 252.96 307.849L251.6 307.591C251.038 307.482 250.607 307.278 250.308 306.979C250.017 306.67 249.872 306.276 249.872 305.795C249.872 305.36 249.99 304.983 250.226 304.666C250.471 304.348 250.806 304.104 251.233 303.931C251.659 303.759 252.149 303.673 252.702 303.673C253.101 303.673 253.473 303.718 253.817 303.809C254.171 303.89 254.511 304.022 254.838 304.203C254.974 304.276 255.064 304.371 255.11 304.489C255.164 304.607 255.178 304.729 255.151 304.856C255.123 304.974 255.069 305.083 254.987 305.183C254.906 305.274 254.801 305.333 254.674 305.36C254.556 305.378 254.42 305.351 254.266 305.278C253.985 305.133 253.713 305.029 253.45 304.965C253.196 304.902 252.951 304.87 252.715 304.87C252.271 304.87 251.94 304.947 251.722 305.101C251.514 305.255 251.409 305.459 251.409 305.713C251.409 305.904 251.473 306.063 251.6 306.19C251.727 306.317 251.922 306.403 252.185 306.448L253.545 306.707C254.135 306.815 254.579 307.015 254.878 307.305C255.187 307.595 255.341 307.985 255.341 308.475C255.341 309.137 255.082 309.659 254.566 310.039C254.049 310.411 253.359 310.597 252.498 310.597ZM259.739 310.597C259.05 310.597 258.451 310.457 257.943 310.175C257.435 309.894 257.041 309.495 256.76 308.978C256.478 308.452 256.338 307.836 256.338 307.128C256.338 306.593 256.415 306.117 256.569 305.7C256.732 305.274 256.964 304.911 257.263 304.612C257.562 304.303 257.92 304.072 258.338 303.918C258.755 303.754 259.222 303.673 259.739 303.673C260.428 303.673 261.027 303.813 261.535 304.095C262.042 304.376 262.437 304.775 262.718 305.292C262.999 305.809 263.14 306.421 263.14 307.128C263.14 307.663 263.058 308.144 262.895 308.57C262.741 308.996 262.514 309.364 262.215 309.672C261.915 309.971 261.557 310.203 261.14 310.366C260.723 310.52 260.256 310.597 259.739 310.597ZM259.739 309.305C260.074 309.305 260.369 309.223 260.623 309.06C260.877 308.897 261.072 308.656 261.208 308.339C261.353 308.012 261.426 307.609 261.426 307.128C261.426 306.403 261.272 305.863 260.963 305.509C260.655 305.147 260.247 304.965 259.739 304.965C259.403 304.965 259.109 305.047 258.855 305.21C258.601 305.364 258.401 305.605 258.256 305.931C258.12 306.249 258.052 306.648 258.052 307.128C258.052 307.845 258.206 308.389 258.515 308.761C258.823 309.123 259.231 309.305 259.739 309.305ZM266.815 310.597C266.062 310.597 265.496 310.384 265.115 309.958C264.734 309.523 264.543 308.888 264.543 308.053V301.619C264.543 301.337 264.616 301.124 264.761 300.979C264.906 300.834 265.115 300.762 265.387 300.762C265.659 300.762 265.867 300.834 266.013 300.979C266.167 301.124 266.244 301.337 266.244 301.619V307.972C266.244 308.389 266.33 308.697 266.502 308.897C266.684 309.096 266.938 309.196 267.264 309.196C267.337 309.196 267.405 309.196 267.468 309.196C267.532 309.187 267.595 309.178 267.659 309.169C267.786 309.151 267.872 309.187 267.917 309.278C267.962 309.359 267.985 309.532 267.985 309.795C267.985 310.021 267.94 310.198 267.849 310.325C267.758 310.452 267.609 310.529 267.4 310.556C267.31 310.565 267.214 310.575 267.115 310.584C267.015 310.593 266.915 310.597 266.815 310.597ZM269.731 310.556C269.459 310.556 269.25 310.475 269.105 310.312C268.96 310.148 268.888 309.922 268.888 309.631V304.639C268.888 304.339 268.96 304.113 269.105 303.959C269.25 303.795 269.459 303.714 269.731 303.714C270.003 303.714 270.212 303.795 270.357 303.959C270.511 304.113 270.588 304.339 270.588 304.639V309.631C270.588 309.922 270.516 310.148 270.37 310.312C270.225 310.475 270.012 310.556 269.731 310.556ZM269.731 302.448C269.414 302.448 269.164 302.371 268.983 302.217C268.811 302.054 268.724 301.832 268.724 301.551C268.724 301.26 268.811 301.038 268.983 300.884C269.164 300.73 269.414 300.653 269.731 300.653C270.058 300.653 270.307 300.73 270.479 300.884C270.652 301.038 270.738 301.26 270.738 301.551C270.738 301.832 270.652 302.054 270.479 302.217C270.307 302.371 270.058 302.448 269.731 302.448ZM275.429 310.597C274.731 310.597 274.124 310.457 273.607 310.175C273.09 309.885 272.691 309.477 272.409 308.951C272.128 308.425 271.988 307.808 271.988 307.101C271.988 306.566 272.065 306.09 272.219 305.673C272.382 305.246 272.613 304.888 272.913 304.598C273.212 304.299 273.575 304.072 274.001 303.918C274.427 303.754 274.903 303.673 275.429 303.673C275.729 303.673 276.051 303.714 276.395 303.795C276.749 303.877 277.08 304.013 277.388 304.203C277.534 304.294 277.629 304.403 277.674 304.53C277.719 304.657 277.729 304.788 277.701 304.924C277.674 305.051 277.615 305.165 277.524 305.264C277.443 305.355 277.339 305.414 277.212 305.441C277.085 305.459 276.944 305.428 276.79 305.346C276.59 305.228 276.386 305.142 276.178 305.088C275.969 305.024 275.77 304.992 275.579 304.992C275.28 304.992 275.017 305.042 274.79 305.142C274.563 305.233 274.368 305.369 274.205 305.55C274.051 305.722 273.933 305.94 273.851 306.203C273.77 306.466 273.729 306.77 273.729 307.115C273.729 307.786 273.888 308.316 274.205 308.706C274.532 309.087 274.99 309.278 275.579 309.278C275.77 309.278 275.965 309.25 276.164 309.196C276.373 309.142 276.581 309.055 276.79 308.938C276.944 308.856 277.08 308.829 277.198 308.856C277.325 308.883 277.429 308.947 277.511 309.046C277.592 309.137 277.642 309.25 277.661 309.386C277.679 309.513 277.661 309.64 277.606 309.767C277.561 309.894 277.47 309.999 277.334 310.08C277.035 310.262 276.717 310.393 276.382 310.475C276.046 310.556 275.729 310.597 275.429 310.597ZM279.615 310.556C279.343 310.556 279.134 310.475 278.989 310.312C278.844 310.148 278.772 309.922 278.772 309.631V304.639C278.772 304.339 278.844 304.113 278.989 303.959C279.134 303.795 279.343 303.714 279.615 303.714C279.887 303.714 280.096 303.795 280.241 303.959C280.395 304.113 280.472 304.339 280.472 304.639V309.631C280.472 309.922 280.4 310.148 280.255 310.312C280.109 310.475 279.896 310.556 279.615 310.556ZM279.615 302.448C279.298 302.448 279.048 302.371 278.867 302.217C278.695 302.054 278.608 301.832 278.608 301.551C278.608 301.26 278.695 301.038 278.867 300.884C279.048 300.73 279.298 300.653 279.615 300.653C279.942 300.653 280.191 300.73 280.363 300.884C280.536 301.038 280.622 301.26 280.622 301.551C280.622 301.832 280.536 302.054 280.363 302.217C280.191 302.371 279.942 302.448 279.615 302.448ZM285.286 310.597C284.697 310.597 284.203 310.497 283.804 310.298C283.414 310.098 283.123 309.808 282.933 309.427C282.742 309.037 282.647 308.557 282.647 307.985V305.088H281.94C281.722 305.088 281.554 305.033 281.436 304.924C281.319 304.806 281.26 304.648 281.26 304.448C281.26 304.24 281.319 304.081 281.436 303.972C281.554 303.863 281.722 303.809 281.94 303.809H282.647V302.571C282.647 302.29 282.72 302.077 282.865 301.932C283.019 301.786 283.232 301.714 283.504 301.714C283.776 301.714 283.985 301.786 284.13 301.932C284.275 302.077 284.348 302.29 284.348 302.571V303.809H285.79C286.007 303.809 286.175 303.863 286.293 303.972C286.411 304.081 286.47 304.24 286.47 304.448C286.47 304.648 286.411 304.806 286.293 304.924C286.175 305.033 286.007 305.088 285.79 305.088H284.348V307.89C284.348 308.325 284.443 308.652 284.633 308.87C284.824 309.087 285.132 309.196 285.558 309.196C285.713 309.196 285.849 309.182 285.967 309.155C286.084 309.128 286.189 309.11 286.279 309.101C286.388 309.092 286.479 309.128 286.552 309.21C286.624 309.282 286.66 309.436 286.66 309.672C286.66 309.854 286.629 310.017 286.565 310.162C286.511 310.298 286.406 310.393 286.252 310.448C286.134 310.484 285.98 310.516 285.79 310.543C285.599 310.579 285.431 310.597 285.286 310.597ZM289.868 310.597C289.315 310.597 288.857 310.497 288.494 310.298C288.131 310.089 287.859 309.781 287.678 309.373C287.505 308.965 287.419 308.457 287.419 307.849V304.557C287.419 304.267 287.492 304.054 287.637 303.918C287.782 303.773 287.991 303.7 288.263 303.7C288.535 303.7 288.743 303.773 288.889 303.918C289.043 304.054 289.12 304.267 289.12 304.557V307.876C289.12 308.348 289.215 308.697 289.405 308.924C289.596 309.151 289.9 309.264 290.317 309.264C290.77 309.264 291.142 309.11 291.432 308.802C291.723 308.484 291.868 308.067 291.868 307.55V304.557C291.868 304.267 291.94 304.054 292.085 303.918C292.231 303.773 292.439 303.7 292.711 303.7C292.983 303.7 293.192 303.773 293.337 303.918C293.491 304.054 293.568 304.267 293.568 304.557V309.699C293.568 310.28 293.292 310.57 292.738 310.57C292.475 310.57 292.271 310.497 292.126 310.352C291.981 310.198 291.909 309.981 291.909 309.699V308.665L292.099 309.074C291.909 309.563 291.618 309.94 291.228 310.203C290.847 310.466 290.394 310.597 289.868 310.597ZM297.896 310.597C297.315 310.597 296.803 310.457 296.358 310.175C295.923 309.894 295.583 309.495 295.338 308.978C295.093 308.452 294.971 307.836 294.971 307.128C294.971 306.412 295.093 305.8 295.338 305.292C295.583 304.775 295.923 304.376 296.358 304.095C296.803 303.813 297.315 303.673 297.896 303.673C298.449 303.673 298.93 303.809 299.338 304.081C299.755 304.353 300.036 304.711 300.181 305.156H300.032V301.619C300.032 301.337 300.104 301.124 300.249 300.979C300.394 300.834 300.603 300.762 300.875 300.762C301.147 300.762 301.356 300.834 301.501 300.979C301.655 301.124 301.732 301.337 301.732 301.619V309.699C301.732 309.981 301.659 310.198 301.514 310.352C301.369 310.497 301.161 310.57 300.889 310.57C300.616 310.57 300.408 310.497 300.263 310.352C300.118 310.198 300.045 309.981 300.045 309.699V308.638L300.195 309.046C300.059 309.518 299.782 309.894 299.365 310.175C298.948 310.457 298.458 310.597 297.896 310.597ZM298.372 309.305C298.707 309.305 299.002 309.223 299.256 309.06C299.51 308.897 299.705 308.656 299.841 308.339C299.986 308.012 300.059 307.609 300.059 307.128C300.059 306.403 299.905 305.863 299.596 305.509C299.288 305.147 298.88 304.965 298.372 304.965C298.036 304.965 297.742 305.047 297.488 305.21C297.234 305.364 297.034 305.605 296.889 305.931C296.753 306.249 296.685 306.648 296.685 307.128C296.685 307.845 296.839 308.389 297.147 308.761C297.456 309.123 297.864 309.305 298.372 309.305Z" fill="white"/>
<rect x="326.404" y="290.09" width="95.6963" height="31.7425" rx="6.80195" stroke="#336ACC" stroke-width="1.51155"/>
<path d="M344.109 310.57C343.864 310.57 343.66 310.516 343.497 310.407C343.343 310.289 343.216 310.117 343.116 309.89L339.565 301.918C339.466 301.691 339.438 301.492 339.484 301.319C339.529 301.147 339.624 301.011 339.769 300.911C339.914 300.811 340.087 300.762 340.286 300.762C340.549 300.762 340.744 300.821 340.871 300.938C341.007 301.047 341.121 301.215 341.211 301.442L344.436 308.91H343.851L347.061 301.428C347.161 301.211 347.279 301.047 347.415 300.938C347.551 300.821 347.741 300.762 347.986 300.762C348.186 300.762 348.349 300.811 348.476 300.911C348.612 301.011 348.698 301.147 348.734 301.319C348.771 301.492 348.739 301.691 348.639 301.918L345.089 309.89C344.989 310.117 344.862 310.289 344.708 310.407C344.563 310.516 344.363 310.57 344.109 310.57ZM352.25 310.597C351.497 310.597 350.849 310.457 350.304 310.175C349.76 309.894 349.339 309.495 349.039 308.978C348.749 308.461 348.604 307.849 348.604 307.142C348.604 306.453 348.745 305.849 349.026 305.333C349.316 304.816 349.71 304.412 350.209 304.122C350.717 303.822 351.293 303.673 351.937 303.673C352.409 303.673 352.83 303.75 353.202 303.904C353.583 304.058 353.905 304.28 354.168 304.571C354.44 304.861 354.644 305.215 354.78 305.632C354.925 306.04 354.998 306.502 354.998 307.019C354.998 307.183 354.939 307.31 354.821 307.4C354.712 307.482 354.553 307.523 354.345 307.523H349.978V306.543H353.801L353.583 306.747C353.583 306.33 353.52 305.981 353.393 305.7C353.275 305.419 353.098 305.206 352.862 305.06C352.635 304.906 352.35 304.829 352.005 304.829C351.624 304.829 351.298 304.92 351.025 305.101C350.762 305.274 350.558 305.523 350.413 305.849C350.277 306.167 350.209 306.548 350.209 306.992V307.087C350.209 307.831 350.382 308.389 350.726 308.761C351.08 309.123 351.597 309.305 352.277 309.305C352.513 309.305 352.776 309.278 353.066 309.223C353.365 309.16 353.646 309.055 353.909 308.91C354.1 308.802 354.268 308.756 354.413 308.774C354.558 308.783 354.671 308.833 354.753 308.924C354.844 309.015 354.898 309.128 354.916 309.264C354.934 309.391 354.907 309.523 354.835 309.659C354.771 309.795 354.658 309.912 354.494 310.012C354.177 310.212 353.81 310.361 353.393 310.461C352.984 310.552 352.604 310.597 352.25 310.597ZM357.215 310.57C356.934 310.57 356.716 310.497 356.562 310.352C356.417 310.198 356.344 309.981 356.344 309.699V304.557C356.344 304.276 356.417 304.063 356.562 303.918C356.707 303.773 356.911 303.7 357.174 303.7C357.437 303.7 357.641 303.773 357.786 303.918C357.932 304.063 358.004 304.276 358.004 304.557V305.414H357.868C357.995 304.87 358.244 304.457 358.616 304.176C358.988 303.895 359.482 303.727 360.099 303.673C360.29 303.655 360.439 303.705 360.548 303.822C360.666 303.931 360.734 304.104 360.752 304.339C360.77 304.566 360.716 304.752 360.589 304.897C360.471 305.033 360.29 305.115 360.045 305.142L359.745 305.169C359.192 305.224 358.775 305.396 358.494 305.686C358.213 305.967 358.072 306.366 358.072 306.883V309.699C358.072 309.981 358 310.198 357.855 310.352C357.709 310.497 357.496 310.57 357.215 310.57ZM367.923 310.597C367.342 310.597 366.83 310.457 366.385 310.175C365.95 309.894 365.61 309.495 365.365 308.978C365.12 308.452 364.998 307.836 364.998 307.128C364.998 306.412 365.12 305.8 365.365 305.292C365.61 304.775 365.95 304.376 366.385 304.095C366.83 303.813 367.342 303.673 367.923 303.673C368.476 303.673 368.956 303.809 369.365 304.081C369.782 304.353 370.063 304.711 370.208 305.156H370.058V301.619C370.058 301.337 370.131 301.124 370.276 300.979C370.421 300.834 370.63 300.762 370.902 300.762C371.174 300.762 371.382 300.834 371.528 300.979C371.682 301.124 371.759 301.337 371.759 301.619V309.699C371.759 309.981 371.686 310.198 371.541 310.352C371.396 310.497 371.188 310.57 370.915 310.57C370.643 310.57 370.435 310.497 370.29 310.352C370.145 310.198 370.072 309.981 370.072 309.699V308.638L370.222 309.046C370.086 309.518 369.809 309.894 369.392 310.175C368.975 310.457 368.485 310.597 367.923 310.597ZM368.399 309.305C368.734 309.305 369.029 309.223 369.283 309.06C369.537 308.897 369.732 308.656 369.868 308.339C370.013 308.012 370.086 307.609 370.086 307.128C370.086 306.403 369.931 305.863 369.623 305.509C369.315 305.147 368.907 304.965 368.399 304.965C368.063 304.965 367.768 305.047 367.514 305.21C367.261 305.364 367.061 305.605 366.916 305.931C366.78 306.249 366.712 306.648 366.712 307.128C366.712 307.845 366.866 308.389 367.174 308.761C367.483 309.123 367.891 309.305 368.399 309.305ZM376.801 310.597C376.048 310.597 375.399 310.457 374.855 310.175C374.311 309.894 373.889 309.495 373.59 308.978C373.3 308.461 373.155 307.849 373.155 307.142C373.155 306.453 373.295 305.849 373.576 305.333C373.867 304.816 374.261 304.412 374.76 304.122C375.268 303.822 375.844 303.673 376.488 303.673C376.959 303.673 377.381 303.75 377.753 303.904C378.134 304.058 378.456 304.28 378.719 304.571C378.991 304.861 379.195 305.215 379.331 305.632C379.476 306.04 379.549 306.502 379.549 307.019C379.549 307.183 379.49 307.31 379.372 307.4C379.263 307.482 379.104 307.523 378.896 307.523H374.529V306.543H378.351L378.134 306.747C378.134 306.33 378.07 305.981 377.943 305.7C377.825 305.419 377.649 305.206 377.413 305.06C377.186 304.906 376.9 304.829 376.556 304.829C376.175 304.829 375.848 304.92 375.576 305.101C375.313 305.274 375.109 305.523 374.964 305.849C374.828 306.167 374.76 306.548 374.76 306.992V307.087C374.76 307.831 374.932 308.389 375.277 308.761C375.631 309.123 376.148 309.305 376.828 309.305C377.064 309.305 377.327 309.278 377.617 309.223C377.916 309.16 378.197 309.055 378.46 308.91C378.651 308.802 378.819 308.756 378.964 308.774C379.109 308.783 379.222 308.833 379.304 308.924C379.394 309.015 379.449 309.128 379.467 309.264C379.485 309.391 379.458 309.523 379.385 309.659C379.322 309.795 379.209 309.912 379.045 310.012C378.728 310.212 378.361 310.361 377.943 310.461C377.535 310.552 377.154 310.597 376.801 310.597ZM383.916 310.597C383.326 310.597 382.832 310.497 382.433 310.298C382.043 310.098 381.753 309.808 381.563 309.427C381.372 309.037 381.277 308.557 381.277 307.985V305.088H380.569C380.352 305.088 380.184 305.033 380.066 304.924C379.948 304.806 379.889 304.648 379.889 304.448C379.889 304.24 379.948 304.081 380.066 303.972C380.184 303.863 380.352 303.809 380.569 303.809H381.277V302.571C381.277 302.29 381.349 302.077 381.494 301.932C381.649 301.786 381.862 301.714 382.134 301.714C382.406 301.714 382.615 301.786 382.76 301.932C382.905 302.077 382.977 302.29 382.977 302.571V303.809H384.419C384.637 303.809 384.805 303.863 384.923 303.972C385.041 304.081 385.1 304.24 385.1 304.448C385.1 304.648 385.041 304.806 384.923 304.924C384.805 305.033 384.637 305.088 384.419 305.088H382.977V307.89C382.977 308.325 383.073 308.652 383.263 308.87C383.453 309.087 383.762 309.196 384.188 309.196C384.342 309.196 384.478 309.182 384.596 309.155C384.714 309.128 384.818 309.11 384.909 309.101C385.018 309.092 385.109 309.128 385.181 309.21C385.254 309.282 385.29 309.436 385.29 309.672C385.29 309.854 385.258 310.017 385.195 310.162C385.14 310.298 385.036 310.393 384.882 310.448C384.764 310.484 384.61 310.516 384.419 310.543C384.229 310.579 384.061 310.597 383.916 310.597ZM388.28 310.597C387.799 310.597 387.369 310.507 386.988 310.325C386.616 310.135 386.321 309.881 386.103 309.563C385.895 309.246 385.79 308.888 385.79 308.489C385.79 307.999 385.917 307.613 386.171 307.332C386.425 307.042 386.838 306.833 387.409 306.707C387.981 306.58 388.747 306.516 389.708 306.516H390.389V307.496H389.722C389.16 307.496 388.711 307.523 388.375 307.577C388.04 307.632 387.799 307.727 387.654 307.863C387.518 307.99 387.45 308.171 387.45 308.407C387.45 308.706 387.554 308.951 387.763 309.142C387.972 309.332 388.262 309.427 388.634 309.427C388.933 309.427 389.196 309.359 389.423 309.223C389.658 309.078 389.844 308.883 389.98 308.638C390.116 308.393 390.185 308.112 390.185 307.795V306.23C390.185 305.777 390.085 305.45 389.885 305.251C389.686 305.051 389.35 304.952 388.879 304.952C388.616 304.952 388.33 304.983 388.021 305.047C387.722 305.11 387.405 305.219 387.069 305.373C386.897 305.455 386.743 305.478 386.607 305.441C386.48 305.405 386.38 305.333 386.307 305.224C386.235 305.106 386.199 304.979 386.199 304.843C386.199 304.707 386.235 304.575 386.307 304.448C386.38 304.312 386.502 304.212 386.675 304.149C387.092 303.977 387.491 303.854 387.872 303.782C388.262 303.709 388.616 303.673 388.933 303.673C389.586 303.673 390.121 303.773 390.538 303.972C390.964 304.172 391.282 304.475 391.49 304.884C391.699 305.283 391.803 305.8 391.803 306.434V309.699C391.803 309.981 391.735 310.198 391.599 310.352C391.463 310.497 391.268 310.57 391.014 310.57C390.76 310.57 390.561 310.497 390.416 310.352C390.28 310.198 390.212 309.981 390.212 309.699V309.046H390.321C390.257 309.364 390.13 309.64 389.94 309.876C389.758 310.103 389.527 310.28 389.246 310.407C388.965 310.534 388.643 310.597 388.28 310.597ZM395.801 310.597C395.048 310.597 394.482 310.384 394.101 309.958C393.72 309.523 393.529 308.888 393.529 308.053V301.619C393.529 301.337 393.602 301.124 393.747 300.979C393.892 300.834 394.101 300.762 394.373 300.762C394.645 300.762 394.853 300.834 394.999 300.979C395.153 301.124 395.23 301.337 395.23 301.619V307.972C395.23 308.389 395.316 308.697 395.488 308.897C395.67 309.096 395.924 309.196 396.25 309.196C396.323 309.196 396.391 309.196 396.454 309.196C396.518 309.187 396.581 309.178 396.645 309.169C396.772 309.151 396.858 309.187 396.903 309.278C396.948 309.359 396.971 309.532 396.971 309.795C396.971 310.021 396.926 310.198 396.835 310.325C396.744 310.452 396.595 310.529 396.386 310.556C396.296 310.565 396.2 310.575 396.101 310.584C396.001 310.593 395.901 310.597 395.801 310.597ZM400.145 310.597C399.393 310.597 398.826 310.384 398.445 309.958C398.064 309.523 397.874 308.888 397.874 308.053V301.619C397.874 301.337 397.946 301.124 398.091 300.979C398.236 300.834 398.445 300.762 398.717 300.762C398.989 300.762 399.198 300.834 399.343 300.979C399.497 301.124 399.574 301.337 399.574 301.619V307.972C399.574 308.389 399.66 308.697 399.833 308.897C400.014 309.096 400.268 309.196 400.594 309.196C400.667 309.196 400.735 309.196 400.798 309.196C400.862 309.187 400.925 309.178 400.989 309.169C401.116 309.151 401.202 309.187 401.247 309.278C401.293 309.359 401.315 309.532 401.315 309.795C401.315 310.021 401.27 310.198 401.179 310.325C401.089 310.452 400.939 310.529 400.73 310.556C400.64 310.565 400.544 310.575 400.445 310.584C400.345 310.593 400.245 310.597 400.145 310.597ZM405.43 310.597C404.677 310.597 404.029 310.457 403.485 310.175C402.94 309.894 402.519 309.495 402.219 308.978C401.929 308.461 401.784 307.849 401.784 307.142C401.784 306.453 401.925 305.849 402.206 305.333C402.496 304.816 402.891 304.412 403.389 304.122C403.897 303.822 404.473 303.673 405.117 303.673C405.589 303.673 406.01 303.75 406.382 303.904C406.763 304.058 407.085 304.28 407.348 304.571C407.62 304.861 407.824 305.215 407.96 305.632C408.105 306.04 408.178 306.502 408.178 307.019C408.178 307.183 408.119 307.31 408.001 307.4C407.892 307.482 407.734 307.523 407.525 307.523H403.158V306.543H406.981L406.763 306.747C406.763 306.33 406.7 305.981 406.573 305.7C406.455 305.419 406.278 305.206 406.042 305.06C405.815 304.906 405.53 304.829 405.185 304.829C404.804 304.829 404.478 304.92 404.206 305.101C403.943 305.274 403.739 305.523 403.593 305.849C403.457 306.167 403.389 306.548 403.389 306.992V307.087C403.389 307.831 403.562 308.389 403.906 308.761C404.26 309.123 404.777 309.305 405.457 309.305C405.693 309.305 405.956 309.278 406.246 309.223C406.545 309.16 406.827 309.055 407.09 308.91C407.28 308.802 407.448 308.756 407.593 308.774C407.738 308.783 407.851 308.833 407.933 308.924C408.024 309.015 408.078 309.128 408.096 309.264C408.114 309.391 408.087 309.523 408.015 309.659C407.951 309.795 407.838 309.912 407.675 310.012C407.357 310.212 406.99 310.361 406.573 310.461C406.165 310.552 405.784 310.597 405.43 310.597Z" fill="#336ACC"/>
</svg>
