<svg width="348" height="242" viewBox="0 0 348 242" fill="none" xmlns="http://www.w3.org/2000/svg">
<rect x="1" y="1" width="346" height="240" rx="7" fill="#F3F6F9"/>
<rect x="1" y="1" width="346" height="240" rx="7" stroke="#E6EBF0" stroke-width="2"/>
<rect x="27.5" y="101" width="293" height="40" rx="8" fill="#336ACC"/>
<path d="M46.11 127C45.714 127 45.408 126.898 45.192 126.694C44.988 126.478 44.886 126.172 44.886 125.776V115.534C44.886 115.138 44.988 114.838 45.192 114.634C45.408 114.418 45.714 114.31 46.11 114.31H52.536C52.836 114.31 53.064 114.388 53.22 114.544C53.388 114.7 53.472 114.922 53.472 115.21C53.472 115.51 53.388 115.744 53.22 115.912C53.064 116.068 52.836 116.146 52.536 116.146H47.1V119.638H52.14C52.452 119.638 52.686 119.716 52.842 119.872C52.998 120.028 53.076 120.256 53.076 120.556C53.076 120.856 52.998 121.084 52.842 121.24C52.686 121.396 52.452 121.474 52.14 121.474H47.1V125.164H52.536C52.836 125.164 53.064 125.242 53.22 125.398C53.388 125.554 53.472 125.782 53.472 126.082C53.472 126.382 53.388 126.61 53.22 126.766C53.064 126.922 52.836 127 52.536 127H46.11ZM56.5262 127.144C56.1662 127.144 55.8902 127.048 55.6982 126.856C55.5062 126.652 55.4102 126.364 55.4102 125.992V119.188C55.4102 118.816 55.5062 118.534 55.6982 118.342C55.8902 118.15 56.1602 118.054 56.5082 118.054C56.8562 118.054 57.1262 118.15 57.3182 118.342C57.5102 118.534 57.6062 118.816 57.6062 119.188V120.412L57.4082 119.962C57.6722 119.326 58.0802 118.846 58.6322 118.522C59.1962 118.186 59.8322 118.018 60.5402 118.018C61.2482 118.018 61.8302 118.15 62.2862 118.414C62.7422 118.678 63.0842 119.08 63.3122 119.62C63.5402 120.148 63.6542 120.82 63.6542 121.636V125.992C63.6542 126.364 63.5582 126.652 63.3662 126.856C63.1742 127.048 62.8982 127.144 62.5382 127.144C62.1782 127.144 61.8962 127.048 61.6922 126.856C61.5002 126.652 61.4042 126.364 61.4042 125.992V121.744C61.4042 121.06 61.2722 120.562 61.0082 120.25C60.7562 119.938 60.3602 119.782 59.8202 119.782C59.1602 119.782 58.6322 119.992 58.2362 120.412C57.8522 120.82 57.6602 121.366 57.6602 122.05V125.992C57.6602 126.76 57.2822 127.144 56.5262 127.144ZM69.4156 127.144C69.1156 127.144 68.8516 127.066 68.6236 126.91C68.4076 126.754 68.2276 126.514 68.0836 126.19L65.2216 119.548C65.1136 119.284 65.0716 119.038 65.0956 118.81C65.1316 118.582 65.2396 118.402 65.4196 118.27C65.6116 118.126 65.8696 118.054 66.1936 118.054C66.4696 118.054 66.6916 118.12 66.8596 118.252C67.0276 118.372 67.1776 118.606 67.3096 118.954L69.7396 125.02H69.1996L71.7016 118.936C71.8336 118.6 71.9836 118.372 72.1516 118.252C72.3316 118.12 72.5716 118.054 72.8716 118.054C73.1356 118.054 73.3456 118.126 73.5016 118.27C73.6576 118.402 73.7536 118.582 73.7896 118.81C73.8256 119.026 73.7836 119.266 73.6636 119.53L70.7476 126.19C70.6156 126.514 70.4356 126.754 70.2076 126.91C69.9916 127.066 69.7276 127.144 69.4156 127.144ZM76.4598 127.126C76.0998 127.126 75.8238 127.018 75.6318 126.802C75.4398 126.586 75.3438 126.286 75.3438 125.902V119.296C75.3438 118.9 75.4398 118.6 75.6318 118.396C75.8238 118.18 76.0998 118.072 76.4598 118.072C76.8198 118.072 77.0958 118.18 77.2878 118.396C77.4918 118.6 77.5938 118.9 77.5938 119.296V125.902C77.5938 126.286 77.4978 126.586 77.3058 126.802C77.1138 127.018 76.8318 127.126 76.4598 127.126ZM76.4598 116.398C76.0398 116.398 75.7098 116.296 75.4698 116.092C75.2418 115.876 75.1278 115.582 75.1278 115.21C75.1278 114.826 75.2418 114.532 75.4698 114.328C75.7098 114.124 76.0398 114.022 76.4598 114.022C76.8918 114.022 77.2218 114.124 77.4498 114.328C77.6778 114.532 77.7918 114.826 77.7918 115.21C77.7918 115.582 77.6778 115.876 77.4498 116.092C77.2218 116.296 76.8918 116.398 76.4598 116.398ZM82.8297 127.18C82.1937 127.18 81.6237 127.06 81.1197 126.82C80.6277 126.568 80.2377 126.232 79.9497 125.812C79.6737 125.392 79.5357 124.918 79.5357 124.39C79.5357 123.742 79.7037 123.232 80.0397 122.86C80.3757 122.476 80.9217 122.2 81.6777 122.032C82.4337 121.864 83.4477 121.78 84.7197 121.78H85.6197V123.076H84.7377C83.9937 123.076 83.3997 123.112 82.9557 123.184C82.5117 123.256 82.1937 123.382 82.0017 123.562C81.8217 123.73 81.7317 123.97 81.7317 124.282C81.7317 124.678 81.8697 125.002 82.1457 125.254C82.4217 125.506 82.8057 125.632 83.2977 125.632C83.6937 125.632 84.0417 125.542 84.3417 125.362C84.6537 125.17 84.8997 124.912 85.0797 124.588C85.2597 124.264 85.3497 123.892 85.3497 123.472V121.402C85.3497 120.802 85.2177 120.37 84.9537 120.106C84.6897 119.842 84.2457 119.71 83.6217 119.71C83.2737 119.71 82.8957 119.752 82.4877 119.836C82.0917 119.92 81.6717 120.064 81.2277 120.268C80.9997 120.376 80.7957 120.406 80.6157 120.358C80.4477 120.31 80.3157 120.214 80.2197 120.07C80.1237 119.914 80.0757 119.746 80.0757 119.566C80.0757 119.386 80.1237 119.212 80.2197 119.044C80.3157 118.864 80.4777 118.732 80.7057 118.648C81.2577 118.42 81.7857 118.258 82.2897 118.162C82.8057 118.066 83.2737 118.018 83.6937 118.018C84.5577 118.018 85.2657 118.15 85.8177 118.414C86.3817 118.678 86.8017 119.08 87.0777 119.62C87.3537 120.148 87.4917 120.832 87.4917 121.672V125.992C87.4917 126.364 87.4017 126.652 87.2217 126.856C87.0417 127.048 86.7837 127.144 86.4477 127.144C86.1117 127.144 85.8477 127.048 85.6557 126.856C85.4757 126.652 85.3857 126.364 85.3857 125.992V125.128H85.5297C85.4457 125.548 85.2777 125.914 85.0257 126.226C84.7857 126.526 84.4797 126.76 84.1077 126.928C83.7357 127.096 83.3097 127.18 82.8297 127.18ZM90.9275 127.144C90.5555 127.144 90.2675 127.048 90.0635 126.856C89.8715 126.652 89.7755 126.364 89.7755 125.992V119.188C89.7755 118.816 89.8715 118.534 90.0635 118.342C90.2555 118.15 90.5255 118.054 90.8735 118.054C91.2215 118.054 91.4915 118.15 91.6835 118.342C91.8755 118.534 91.9715 118.816 91.9715 119.188V120.322H91.7915C91.9595 119.602 92.2895 119.056 92.7815 118.684C93.2735 118.312 93.9275 118.09 94.7435 118.018C94.9955 117.994 95.1935 118.06 95.3375 118.216C95.4935 118.36 95.5835 118.588 95.6075 118.9C95.6315 119.2 95.5595 119.446 95.3915 119.638C95.2355 119.818 94.9955 119.926 94.6715 119.962L94.2755 119.998C93.5435 120.07 92.9915 120.298 92.6195 120.682C92.2475 121.054 92.0615 121.582 92.0615 122.266V125.992C92.0615 126.364 91.9655 126.652 91.7735 126.856C91.5815 127.048 91.2995 127.144 90.9275 127.144ZM106.049 127.18C105.053 127.18 104.195 126.994 103.475 126.622C102.755 126.25 102.197 125.722 101.801 125.038C101.417 124.354 101.225 123.544 101.225 122.608C101.225 121.696 101.411 120.898 101.783 120.214C102.167 119.53 102.689 118.996 103.349 118.612C104.021 118.216 104.783 118.018 105.635 118.018C106.259 118.018 106.817 118.12 107.309 118.324C107.813 118.528 108.239 118.822 108.587 119.206C108.947 119.59 109.217 120.058 109.397 120.61C109.589 121.15 109.685 121.762 109.685 122.446C109.685 122.662 109.607 122.83 109.451 122.95C109.307 123.058 109.097 123.112 108.821 123.112H103.043V121.816H108.101L107.813 122.086C107.813 121.534 107.729 121.072 107.561 120.7C107.405 120.328 107.171 120.046 106.859 119.854C106.559 119.65 106.181 119.548 105.725 119.548C105.221 119.548 104.789 119.668 104.429 119.908C104.081 120.136 103.811 120.466 103.619 120.898C103.439 121.318 103.349 121.822 103.349 122.41V122.536C103.349 123.52 103.577 124.258 104.033 124.75C104.501 125.23 105.185 125.47 106.085 125.47C106.397 125.47 106.745 125.434 107.129 125.362C107.525 125.278 107.897 125.14 108.245 124.948C108.497 124.804 108.719 124.744 108.911 124.768C109.103 124.78 109.253 124.846 109.361 124.966C109.481 125.086 109.553 125.236 109.577 125.416C109.601 125.584 109.565 125.758 109.469 125.938C109.385 126.118 109.235 126.274 109.019 126.406C108.599 126.67 108.113 126.868 107.561 127C107.021 127.12 106.517 127.18 106.049 127.18ZM114.473 127.18C113.477 127.18 112.727 126.898 112.223 126.334C111.719 125.758 111.467 124.918 111.467 123.814V115.3C111.467 114.928 111.563 114.646 111.755 114.454C111.947 114.262 112.223 114.166 112.583 114.166C112.943 114.166 113.219 114.262 113.411 114.454C113.615 114.646 113.717 114.928 113.717 115.3V123.706C113.717 124.258 113.831 124.666 114.059 124.93C114.299 125.194 114.635 125.326 115.067 125.326C115.163 125.326 115.253 125.326 115.337 125.326C115.421 125.314 115.505 125.302 115.589 125.29C115.757 125.266 115.871 125.314 115.931 125.434C115.991 125.542 116.021 125.77 116.021 126.118C116.021 126.418 115.961 126.652 115.841 126.82C115.721 126.988 115.523 127.09 115.247 127.126C115.127 127.138 115.001 127.15 114.869 127.162C114.737 127.174 114.605 127.18 114.473 127.18ZM123.83 127.144C123.47 127.144 123.188 127.048 122.984 126.856C122.792 126.652 122.696 126.364 122.696 125.992V119.89H121.868C121.58 119.89 121.358 119.818 121.202 119.674C121.046 119.518 120.968 119.308 120.968 119.044C120.968 118.768 121.046 118.558 121.202 118.414C121.358 118.27 121.58 118.198 121.868 118.198H123.344L122.696 118.792V118.18C122.696 116.944 123.008 116.02 123.632 115.408C124.256 114.784 125.156 114.418 126.332 114.31L126.944 114.256C127.184 114.232 127.376 114.274 127.52 114.382C127.664 114.478 127.76 114.61 127.808 114.778C127.856 114.934 127.862 115.096 127.826 115.264C127.79 115.432 127.712 115.582 127.592 115.714C127.484 115.834 127.34 115.9 127.16 115.912L126.908 115.93C126.224 115.978 125.726 116.152 125.414 116.452C125.102 116.752 124.946 117.208 124.946 117.82V118.486L124.658 118.198H126.476C126.764 118.198 126.986 118.27 127.142 118.414C127.298 118.558 127.376 118.768 127.376 119.044C127.376 119.308 127.298 119.518 127.142 119.674C126.986 119.818 126.764 119.89 126.476 119.89H124.946V125.992C124.946 126.76 124.574 127.144 123.83 127.144ZM132.444 127.18C131.532 127.18 130.74 126.994 130.068 126.622C129.396 126.25 128.874 125.722 128.502 125.038C128.13 124.342 127.944 123.526 127.944 122.59C127.944 121.882 128.046 121.252 128.25 120.7C128.466 120.136 128.772 119.656 129.168 119.26C129.564 118.852 130.038 118.546 130.59 118.342C131.142 118.126 131.76 118.018 132.444 118.018C133.356 118.018 134.148 118.204 134.82 118.576C135.492 118.948 136.014 119.476 136.386 120.16C136.758 120.844 136.944 121.654 136.944 122.59C136.944 123.298 136.836 123.934 136.62 124.498C136.416 125.062 136.116 125.548 135.72 125.956C135.324 126.352 134.85 126.658 134.298 126.874C133.746 127.078 133.128 127.18 132.444 127.18ZM132.444 125.47C132.888 125.47 133.278 125.362 133.614 125.146C133.95 124.93 134.208 124.612 134.388 124.192C134.58 123.76 134.676 123.226 134.676 122.59C134.676 121.63 134.472 120.916 134.064 120.448C133.656 119.968 133.116 119.728 132.444 119.728C132 119.728 131.61 119.836 131.274 120.052C130.938 120.256 130.674 120.574 130.482 121.006C130.302 121.426 130.212 121.954 130.212 122.59C130.212 123.538 130.416 124.258 130.824 124.75C131.232 125.23 131.772 125.47 132.444 125.47ZM139.953 127.144C139.581 127.144 139.293 127.048 139.089 126.856C138.897 126.652 138.801 126.364 138.801 125.992V119.188C138.801 118.816 138.897 118.534 139.089 118.342C139.281 118.15 139.551 118.054 139.899 118.054C140.247 118.054 140.517 118.15 140.709 118.342C140.901 118.534 140.997 118.816 140.997 119.188V120.322H140.817C140.985 119.602 141.315 119.056 141.807 118.684C142.299 118.312 142.953 118.09 143.769 118.018C144.021 117.994 144.219 118.06 144.363 118.216C144.519 118.36 144.609 118.588 144.633 118.9C144.657 119.2 144.585 119.446 144.417 119.638C144.261 119.818 144.021 119.926 143.697 119.962L143.301 119.998C142.569 120.07 142.017 120.298 141.645 120.682C141.273 121.054 141.087 121.582 141.087 122.266V125.992C141.087 126.364 140.991 126.652 140.799 126.856C140.607 127.048 140.325 127.144 139.953 127.144ZM147.002 127.144C146.642 127.144 146.366 127.048 146.174 126.856C145.982 126.652 145.886 126.364 145.886 125.992V119.188C145.886 118.816 145.982 118.534 146.174 118.342C146.366 118.15 146.636 118.054 146.984 118.054C147.332 118.054 147.602 118.15 147.794 118.342C147.986 118.534 148.082 118.816 148.082 119.188V120.502L147.884 119.962C148.124 119.362 148.496 118.888 149 118.54C149.504 118.192 150.104 118.018 150.8 118.018C151.508 118.018 152.09 118.186 152.546 118.522C153.002 118.858 153.32 119.374 153.5 120.07H153.248C153.488 119.434 153.884 118.936 154.436 118.576C154.988 118.204 155.624 118.018 156.344 118.018C157.016 118.018 157.568 118.15 158 118.414C158.444 118.678 158.774 119.08 158.99 119.62C159.206 120.148 159.314 120.82 159.314 121.636V125.992C159.314 126.364 159.212 126.652 159.008 126.856C158.816 127.048 158.54 127.144 158.18 127.144C157.82 127.144 157.544 127.048 157.352 126.856C157.16 126.652 157.064 126.364 157.064 125.992V121.726C157.064 121.054 156.95 120.562 156.722 120.25C156.506 119.938 156.134 119.782 155.606 119.782C155.018 119.782 154.556 119.992 154.22 120.412C153.884 120.82 153.716 121.39 153.716 122.122V125.992C153.716 126.364 153.62 126.652 153.428 126.856C153.236 127.048 152.96 127.144 152.6 127.144C152.24 127.144 151.958 127.048 151.754 126.856C151.562 126.652 151.466 126.364 151.466 125.992V121.726C151.466 121.054 151.352 120.562 151.124 120.25C150.908 119.938 150.542 119.782 150.026 119.782C149.438 119.782 148.976 119.992 148.64 120.412C148.304 120.82 148.136 121.39 148.136 122.122V125.992C148.136 126.76 147.758 127.144 147.002 127.144ZM164.821 127.18C164.089 127.18 163.483 127.048 163.003 126.784C162.523 126.508 162.163 126.1 161.923 125.56C161.695 125.02 161.581 124.348 161.581 123.544V119.188C161.581 118.804 161.677 118.522 161.869 118.342C162.061 118.15 162.337 118.054 162.697 118.054C163.057 118.054 163.333 118.15 163.525 118.342C163.729 118.522 163.831 118.804 163.831 119.188V123.58C163.831 124.204 163.957 124.666 164.209 124.966C164.461 125.266 164.863 125.416 165.415 125.416C166.015 125.416 166.507 125.212 166.891 124.804C167.275 124.384 167.467 123.832 167.467 123.148V119.188C167.467 118.804 167.563 118.522 167.755 118.342C167.947 118.15 168.223 118.054 168.583 118.054C168.943 118.054 169.219 118.15 169.411 118.342C169.615 118.522 169.717 118.804 169.717 119.188V125.992C169.717 126.76 169.351 127.144 168.619 127.144C168.271 127.144 168.001 127.048 167.809 126.856C167.617 126.652 167.521 126.364 167.521 125.992V124.624L167.773 125.164C167.521 125.812 167.137 126.31 166.621 126.658C166.117 127.006 165.517 127.18 164.821 127.18ZM175.065 127.18C174.069 127.18 173.319 126.898 172.815 126.334C172.311 125.758 172.059 124.918 172.059 123.814V115.3C172.059 114.928 172.155 114.646 172.347 114.454C172.539 114.262 172.815 114.166 173.175 114.166C173.535 114.166 173.811 114.262 174.003 114.454C174.207 114.646 174.309 114.928 174.309 115.3V123.706C174.309 124.258 174.423 124.666 174.651 124.93C174.891 125.194 175.227 125.326 175.659 125.326C175.755 125.326 175.845 125.326 175.929 125.326C176.013 125.314 176.097 125.302 176.181 125.29C176.349 125.266 176.463 125.314 176.523 125.434C176.583 125.542 176.613 125.77 176.613 126.118C176.613 126.418 176.553 126.652 176.433 126.82C176.313 126.988 176.115 127.09 175.839 127.126C175.719 127.138 175.593 127.15 175.461 127.162C175.329 127.174 175.197 127.18 175.065 127.18ZM180.705 127.18C180.069 127.18 179.499 127.06 178.995 126.82C178.503 126.568 178.113 126.232 177.825 125.812C177.549 125.392 177.411 124.918 177.411 124.39C177.411 123.742 177.579 123.232 177.915 122.86C178.251 122.476 178.797 122.2 179.553 122.032C180.309 121.864 181.323 121.78 182.595 121.78H183.495V123.076H182.613C181.869 123.076 181.275 123.112 180.831 123.184C180.387 123.256 180.069 123.382 179.877 123.562C179.697 123.73 179.607 123.97 179.607 124.282C179.607 124.678 179.745 125.002 180.021 125.254C180.297 125.506 180.681 125.632 181.173 125.632C181.569 125.632 181.917 125.542 182.217 125.362C182.529 125.17 182.775 124.912 182.955 124.588C183.135 124.264 183.225 123.892 183.225 123.472V121.402C183.225 120.802 183.093 120.37 182.829 120.106C182.565 119.842 182.121 119.71 181.497 119.71C181.149 119.71 180.771 119.752 180.363 119.836C179.967 119.92 179.547 120.064 179.103 120.268C178.875 120.376 178.671 120.406 178.491 120.358C178.323 120.31 178.191 120.214 178.095 120.07C177.999 119.914 177.951 119.746 177.951 119.566C177.951 119.386 177.999 119.212 178.095 119.044C178.191 118.864 178.353 118.732 178.581 118.648C179.133 118.42 179.661 118.258 180.165 118.162C180.681 118.066 181.149 118.018 181.569 118.018C182.433 118.018 183.141 118.15 183.693 118.414C184.257 118.678 184.677 119.08 184.953 119.62C185.229 120.148 185.367 120.832 185.367 121.672V125.992C185.367 126.364 185.277 126.652 185.097 126.856C184.917 127.048 184.659 127.144 184.323 127.144C183.987 127.144 183.723 127.048 183.531 126.856C183.351 126.652 183.261 126.364 183.261 125.992V125.128H183.405C183.321 125.548 183.153 125.914 182.901 126.226C182.661 126.526 182.355 126.76 181.983 126.928C181.611 127.096 181.185 127.18 180.705 127.18ZM188.802 127.144C188.43 127.144 188.142 127.048 187.938 126.856C187.746 126.652 187.65 126.364 187.65 125.992V119.188C187.65 118.816 187.746 118.534 187.938 118.342C188.13 118.15 188.4 118.054 188.748 118.054C189.096 118.054 189.366 118.15 189.558 118.342C189.75 118.534 189.846 118.816 189.846 119.188V120.322H189.666C189.834 119.602 190.164 119.056 190.656 118.684C191.148 118.312 191.802 118.09 192.618 118.018C192.87 117.994 193.068 118.06 193.212 118.216C193.368 118.36 193.458 118.588 193.482 118.9C193.506 119.2 193.434 119.446 193.266 119.638C193.11 119.818 192.87 119.926 192.546 119.962L192.15 119.998C191.418 120.07 190.866 120.298 190.494 120.682C190.122 121.054 189.936 121.582 189.936 122.266V125.992C189.936 126.364 189.84 126.652 189.648 126.856C189.456 127.048 189.174 127.144 188.802 127.144ZM195.815 127.126C195.455 127.126 195.179 127.018 194.987 126.802C194.795 126.586 194.699 126.286 194.699 125.902V119.296C194.699 118.9 194.795 118.6 194.987 118.396C195.179 118.18 195.455 118.072 195.815 118.072C196.175 118.072 196.451 118.18 196.643 118.396C196.847 118.6 196.949 118.9 196.949 119.296V125.902C196.949 126.286 196.853 126.586 196.661 126.802C196.469 127.018 196.187 127.126 195.815 127.126ZM195.815 116.398C195.395 116.398 195.065 116.296 194.825 116.092C194.597 115.876 194.483 115.582 194.483 115.21C194.483 114.826 194.597 114.532 194.825 114.328C195.065 114.124 195.395 114.022 195.815 114.022C196.247 114.022 196.577 114.124 196.805 114.328C197.033 114.532 197.147 114.826 197.147 115.21C197.147 115.582 197.033 115.876 196.805 116.092C196.577 116.296 196.247 116.398 195.815 116.398ZM203.301 127.18C202.389 127.18 201.597 126.994 200.925 126.622C200.253 126.25 199.731 125.722 199.359 125.038C198.987 124.342 198.801 123.526 198.801 122.59C198.801 121.882 198.903 121.252 199.107 120.7C199.323 120.136 199.629 119.656 200.025 119.26C200.421 118.852 200.895 118.546 201.447 118.342C201.999 118.126 202.617 118.018 203.301 118.018C204.213 118.018 205.005 118.204 205.677 118.576C206.349 118.948 206.871 119.476 207.243 120.16C207.615 120.844 207.801 121.654 207.801 122.59C207.801 123.298 207.693 123.934 207.477 124.498C207.273 125.062 206.973 125.548 206.577 125.956C206.181 126.352 205.707 126.658 205.155 126.874C204.603 127.078 203.985 127.18 203.301 127.18ZM203.301 125.47C203.745 125.47 204.135 125.362 204.471 125.146C204.807 124.93 205.065 124.612 205.245 124.192C205.437 123.76 205.533 123.226 205.533 122.59C205.533 121.63 205.329 120.916 204.921 120.448C204.513 119.968 203.973 119.728 203.301 119.728C202.857 119.728 202.467 119.836 202.131 120.052C201.795 120.256 201.531 120.574 201.339 121.006C201.159 121.426 201.069 121.954 201.069 122.59C201.069 123.538 201.273 124.258 201.681 124.75C202.089 125.23 202.629 125.47 203.301 125.47ZM217.929 127.18C217.161 127.18 216.483 126.994 215.895 126.622C215.319 126.25 214.869 125.722 214.545 125.038C214.221 124.342 214.059 123.526 214.059 122.59C214.059 121.642 214.221 120.832 214.545 120.16C214.869 119.476 215.319 118.948 215.895 118.576C216.483 118.204 217.161 118.018 217.929 118.018C218.661 118.018 219.297 118.198 219.837 118.558C220.389 118.918 220.761 119.392 220.953 119.98H220.755V115.3C220.755 114.928 220.851 114.646 221.043 114.454C221.235 114.262 221.511 114.166 221.871 114.166C222.231 114.166 222.507 114.262 222.699 114.454C222.903 114.646 223.005 114.928 223.005 115.3V125.992C223.005 126.364 222.909 126.652 222.717 126.856C222.525 127.048 222.249 127.144 221.889 127.144C221.529 127.144 221.253 127.048 221.061 126.856C220.869 126.652 220.773 126.364 220.773 125.992V124.588L220.971 125.128C220.791 125.752 220.425 126.25 219.873 126.622C219.321 126.994 218.673 127.18 217.929 127.18ZM218.559 125.47C219.003 125.47 219.393 125.362 219.729 125.146C220.065 124.93 220.323 124.612 220.503 124.192C220.695 123.76 220.791 123.226 220.791 122.59C220.791 121.63 220.587 120.916 220.179 120.448C219.771 119.968 219.231 119.728 218.559 119.728C218.115 119.728 217.725 119.836 217.389 120.052C217.053 120.256 216.789 120.574 216.597 121.006C216.417 121.426 216.327 121.954 216.327 122.59C216.327 123.538 216.531 124.258 216.939 124.75C217.347 125.23 217.887 125.47 218.559 125.47ZM229.676 127.18C228.68 127.18 227.822 126.994 227.102 126.622C226.382 126.25 225.824 125.722 225.428 125.038C225.044 124.354 224.852 123.544 224.852 122.608C224.852 121.696 225.038 120.898 225.41 120.214C225.794 119.53 226.316 118.996 226.976 118.612C227.648 118.216 228.41 118.018 229.262 118.018C229.886 118.018 230.444 118.12 230.936 118.324C231.44 118.528 231.866 118.822 232.214 119.206C232.574 119.59 232.844 120.058 233.024 120.61C233.216 121.15 233.312 121.762 233.312 122.446C233.312 122.662 233.234 122.83 233.078 122.95C232.934 123.058 232.724 123.112 232.448 123.112H226.67V121.816H231.728L231.44 122.086C231.44 121.534 231.356 121.072 231.188 120.7C231.032 120.328 230.798 120.046 230.486 119.854C230.186 119.65 229.808 119.548 229.352 119.548C228.848 119.548 228.416 119.668 228.056 119.908C227.708 120.136 227.438 120.466 227.246 120.898C227.066 121.318 226.976 121.822 226.976 122.41V122.536C226.976 123.52 227.204 124.258 227.66 124.75C228.128 125.23 228.812 125.47 229.712 125.47C230.024 125.47 230.372 125.434 230.756 125.362C231.152 125.278 231.524 125.14 231.872 124.948C232.124 124.804 232.346 124.744 232.538 124.768C232.73 124.78 232.88 124.846 232.988 124.966C233.108 125.086 233.18 125.236 233.204 125.416C233.228 125.584 233.192 125.758 233.096 125.938C233.012 126.118 232.862 126.274 232.646 126.406C232.226 126.67 231.74 126.868 231.188 127C230.648 127.12 230.144 127.18 229.676 127.18ZM241.133 127.144C240.761 127.144 240.473 127.048 240.269 126.856C240.077 126.652 239.981 126.364 239.981 125.992V119.188C239.981 118.816 240.077 118.534 240.269 118.342C240.461 118.15 240.731 118.054 241.079 118.054C241.427 118.054 241.697 118.15 241.889 118.342C242.081 118.534 242.177 118.816 242.177 119.188V120.322H241.997C242.165 119.602 242.495 119.056 242.987 118.684C243.479 118.312 244.133 118.09 244.949 118.018C245.201 117.994 245.399 118.06 245.543 118.216C245.699 118.36 245.789 118.588 245.813 118.9C245.837 119.2 245.765 119.446 245.597 119.638C245.441 119.818 245.201 119.926 244.877 119.962L244.481 119.998C243.749 120.07 243.197 120.298 242.825 120.682C242.453 121.054 242.267 121.582 242.267 122.266V125.992C242.267 126.364 242.171 126.652 241.979 126.856C241.787 127.048 241.505 127.144 241.133 127.144ZM251.227 127.18C250.231 127.18 249.373 126.994 248.653 126.622C247.933 126.25 247.375 125.722 246.979 125.038C246.595 124.354 246.403 123.544 246.403 122.608C246.403 121.696 246.589 120.898 246.961 120.214C247.345 119.53 247.867 118.996 248.527 118.612C249.199 118.216 249.961 118.018 250.813 118.018C251.437 118.018 251.995 118.12 252.487 118.324C252.991 118.528 253.417 118.822 253.765 119.206C254.125 119.59 254.395 120.058 254.575 120.61C254.767 121.15 254.863 121.762 254.863 122.446C254.863 122.662 254.785 122.83 254.629 122.95C254.485 123.058 254.275 123.112 253.999 123.112H248.221V121.816H253.279L252.991 122.086C252.991 121.534 252.907 121.072 252.739 120.7C252.583 120.328 252.349 120.046 252.037 119.854C251.737 119.65 251.359 119.548 250.903 119.548C250.399 119.548 249.967 119.668 249.607 119.908C249.259 120.136 248.989 120.466 248.797 120.898C248.617 121.318 248.527 121.822 248.527 122.41V122.536C248.527 123.52 248.755 124.258 249.211 124.75C249.679 125.23 250.363 125.47 251.263 125.47C251.575 125.47 251.923 125.434 252.307 125.362C252.703 125.278 253.075 125.14 253.423 124.948C253.675 124.804 253.897 124.744 254.089 124.768C254.281 124.78 254.431 124.846 254.539 124.966C254.659 125.086 254.731 125.236 254.755 125.416C254.779 125.584 254.743 125.758 254.647 125.938C254.563 126.118 254.413 126.274 254.197 126.406C253.777 126.67 253.291 126.868 252.739 127C252.199 127.12 251.695 127.18 251.227 127.18ZM260.749 130.42C260.101 130.42 259.471 130.36 258.859 130.24C258.259 130.12 257.713 129.934 257.221 129.682C256.993 129.562 256.837 129.418 256.753 129.25C256.681 129.082 256.657 128.908 256.681 128.728C256.717 128.56 256.789 128.41 256.897 128.278C257.017 128.146 257.161 128.056 257.329 128.008C257.497 127.96 257.671 127.984 257.851 128.08C258.379 128.344 258.877 128.512 259.345 128.584C259.825 128.668 260.233 128.71 260.569 128.71C261.373 128.71 261.973 128.512 262.369 128.116C262.777 127.732 262.981 127.156 262.981 126.388V124.768H263.143C262.963 125.38 262.585 125.872 262.009 126.244C261.445 126.604 260.803 126.784 260.083 126.784C259.291 126.784 258.601 126.604 258.013 126.244C257.425 125.872 256.969 125.356 256.645 124.696C256.321 124.036 256.159 123.268 256.159 122.392C256.159 121.732 256.249 121.138 256.429 120.61C256.621 120.07 256.885 119.608 257.221 119.224C257.569 118.84 257.983 118.546 258.463 118.342C258.955 118.126 259.495 118.018 260.083 118.018C260.827 118.018 261.475 118.204 262.027 118.576C262.591 118.936 262.957 119.416 263.125 120.016L262.945 120.466V119.188C262.945 118.816 263.041 118.534 263.233 118.342C263.437 118.15 263.713 118.054 264.061 118.054C264.421 118.054 264.697 118.15 264.889 118.342C265.081 118.534 265.177 118.816 265.177 119.188V126.118C265.177 127.546 264.799 128.62 264.043 129.34C263.287 130.06 262.189 130.42 260.749 130.42ZM260.695 125.074C261.163 125.074 261.565 124.966 261.901 124.75C262.237 124.534 262.495 124.228 262.675 123.832C262.867 123.424 262.963 122.944 262.963 122.392C262.963 121.564 262.759 120.916 262.351 120.448C261.943 119.968 261.391 119.728 260.695 119.728C260.227 119.728 259.825 119.836 259.489 120.052C259.153 120.268 258.889 120.574 258.697 120.97C258.517 121.366 258.427 121.84 258.427 122.392C258.427 123.22 258.631 123.874 259.039 124.354C259.447 124.834 259.999 125.074 260.695 125.074ZM268.624 127.126C268.264 127.126 267.988 127.018 267.796 126.802C267.604 126.586 267.508 126.286 267.508 125.902V119.296C267.508 118.9 267.604 118.6 267.796 118.396C267.988 118.18 268.264 118.072 268.624 118.072C268.984 118.072 269.26 118.18 269.452 118.396C269.656 118.6 269.758 118.9 269.758 119.296V125.902C269.758 126.286 269.662 126.586 269.47 126.802C269.278 127.018 268.996 127.126 268.624 127.126ZM268.624 116.398C268.204 116.398 267.874 116.296 267.634 116.092C267.406 115.876 267.292 115.582 267.292 115.21C267.292 114.826 267.406 114.532 267.634 114.328C267.874 114.124 268.204 114.022 268.624 114.022C269.056 114.022 269.386 114.124 269.614 114.328C269.842 114.532 269.956 114.826 269.956 115.21C269.956 115.582 269.842 115.876 269.614 116.092C269.386 116.296 269.056 116.398 268.624 116.398ZM275.318 127.18C274.802 127.18 274.256 127.126 273.68 127.018C273.104 126.91 272.588 126.724 272.132 126.46C271.94 126.34 271.802 126.202 271.718 126.046C271.646 125.878 271.616 125.716 271.628 125.56C271.652 125.392 271.712 125.248 271.808 125.128C271.916 125.008 272.048 124.93 272.204 124.894C272.372 124.858 272.552 124.888 272.744 124.984C273.224 125.212 273.674 125.374 274.094 125.47C274.514 125.554 274.928 125.596 275.336 125.596C275.912 125.596 276.338 125.5 276.614 125.308C276.902 125.104 277.046 124.84 277.046 124.516C277.046 124.24 276.95 124.03 276.758 123.886C276.578 123.73 276.302 123.616 275.93 123.544L274.13 123.202C273.386 123.058 272.816 122.788 272.42 122.392C272.036 121.984 271.844 121.462 271.844 120.826C271.844 120.25 272 119.752 272.312 119.332C272.636 118.912 273.08 118.588 273.644 118.36C274.208 118.132 274.856 118.018 275.588 118.018C276.116 118.018 276.608 118.078 277.064 118.198C277.532 118.306 277.982 118.48 278.414 118.72C278.594 118.816 278.714 118.942 278.774 119.098C278.846 119.254 278.864 119.416 278.828 119.584C278.792 119.74 278.72 119.884 278.612 120.016C278.504 120.136 278.366 120.214 278.198 120.25C278.042 120.274 277.862 120.238 277.658 120.142C277.286 119.95 276.926 119.812 276.578 119.728C276.242 119.644 275.918 119.602 275.606 119.602C275.018 119.602 274.58 119.704 274.292 119.908C274.016 120.112 273.878 120.382 273.878 120.718C273.878 120.97 273.962 121.18 274.13 121.348C274.298 121.516 274.556 121.63 274.904 121.69L276.704 122.032C277.484 122.176 278.072 122.44 278.468 122.824C278.876 123.208 279.08 123.724 279.08 124.372C279.08 125.248 278.738 125.938 278.054 126.442C277.37 126.934 276.458 127.18 275.318 127.18ZM284.829 127.18C284.049 127.18 283.395 127.048 282.867 126.784C282.351 126.52 281.967 126.136 281.715 125.632C281.463 125.116 281.337 124.48 281.337 123.724V119.89H280.401C280.113 119.89 279.891 119.818 279.735 119.674C279.579 119.518 279.501 119.308 279.501 119.044C279.501 118.768 279.579 118.558 279.735 118.414C279.891 118.27 280.113 118.198 280.401 118.198H281.337V116.56C281.337 116.188 281.433 115.906 281.625 115.714C281.829 115.522 282.111 115.426 282.471 115.426C282.831 115.426 283.107 115.522 283.299 115.714C283.491 115.906 283.587 116.188 283.587 116.56V118.198H285.495C285.783 118.198 286.005 118.27 286.161 118.414C286.317 118.558 286.395 118.768 286.395 119.044C286.395 119.308 286.317 119.518 286.161 119.674C286.005 119.818 285.783 119.89 285.495 119.89H283.587V123.598C283.587 124.174 283.713 124.606 283.965 124.894C284.217 125.182 284.625 125.326 285.189 125.326C285.393 125.326 285.573 125.308 285.729 125.272C285.885 125.236 286.023 125.212 286.143 125.2C286.287 125.188 286.407 125.236 286.503 125.344C286.599 125.44 286.647 125.644 286.647 125.956C286.647 126.196 286.605 126.412 286.521 126.604C286.449 126.784 286.311 126.91 286.107 126.982C285.951 127.03 285.747 127.072 285.495 127.108C285.243 127.156 285.021 127.18 284.829 127.18ZM288.857 127.144C288.485 127.144 288.197 127.048 287.993 126.856C287.801 126.652 287.705 126.364 287.705 125.992V119.188C287.705 118.816 287.801 118.534 287.993 118.342C288.185 118.15 288.455 118.054 288.803 118.054C289.151 118.054 289.421 118.15 289.613 118.342C289.805 118.534 289.901 118.816 289.901 119.188V120.322H289.721C289.889 119.602 290.219 119.056 290.711 118.684C291.203 118.312 291.857 118.09 292.673 118.018C292.925 117.994 293.123 118.06 293.267 118.216C293.423 118.36 293.513 118.588 293.537 118.9C293.561 119.2 293.489 119.446 293.321 119.638C293.165 119.818 292.925 119.926 292.601 119.962L292.205 119.998C291.473 120.07 290.921 120.298 290.549 120.682C290.177 121.054 289.991 121.582 289.991 122.266V125.992C289.991 126.364 289.895 126.652 289.703 126.856C289.511 127.048 289.229 127.144 288.857 127.144ZM298.627 127.18C297.715 127.18 296.923 126.994 296.251 126.622C295.579 126.25 295.057 125.722 294.685 125.038C294.313 124.342 294.127 123.526 294.127 122.59C294.127 121.882 294.229 121.252 294.433 120.7C294.649 120.136 294.955 119.656 295.351 119.26C295.747 118.852 296.221 118.546 296.773 118.342C297.325 118.126 297.943 118.018 298.627 118.018C299.539 118.018 300.331 118.204 301.003 118.576C301.675 118.948 302.197 119.476 302.569 120.16C302.941 120.844 303.127 121.654 303.127 122.59C303.127 123.298 303.019 123.934 302.803 124.498C302.599 125.062 302.299 125.548 301.903 125.956C301.507 126.352 301.033 126.658 300.481 126.874C299.929 127.078 299.311 127.18 298.627 127.18ZM298.627 125.47C299.071 125.47 299.461 125.362 299.797 125.146C300.133 124.93 300.391 124.612 300.571 124.192C300.763 123.76 300.859 123.226 300.859 122.59C300.859 121.63 300.655 120.916 300.247 120.448C299.839 119.968 299.299 119.728 298.627 119.728C298.183 119.728 297.793 119.836 297.457 120.052C297.121 120.256 296.857 120.574 296.665 121.006C296.485 121.426 296.395 121.954 296.395 122.59C296.395 123.538 296.599 124.258 297.007 124.75C297.415 125.23 297.955 125.47 298.627 125.47Z" fill="white"/>
</svg>
