<svg width="348" height="240" viewBox="0 0 348 240" fill="none" xmlns="http://www.w3.org/2000/svg">
<rect width="348" height="240" rx="8" fill="#F3F6F9"/>
<rect x="118.5" y="96" width="111" height="48" rx="8" fill="#336ACC"/>
<path d="M141.038 126.144C140.666 126.144 140.378 126.042 140.174 125.838C139.982 125.622 139.886 125.328 139.886 124.956V114.48C139.886 114.096 139.988 113.808 140.192 113.616C140.396 113.412 140.684 113.31 141.056 113.31H145.394C146.786 113.31 147.86 113.658 148.616 114.354C149.372 115.05 149.75 116.022 149.75 117.27C149.75 118.518 149.372 119.496 148.616 120.204C147.86 120.9 146.786 121.248 145.394 121.248H142.19V124.956C142.19 125.328 142.094 125.622 141.902 125.838C141.71 126.042 141.422 126.144 141.038 126.144ZM142.19 119.43H145.034C145.85 119.43 146.468 119.25 146.888 118.89C147.308 118.518 147.518 117.978 147.518 117.27C147.518 116.562 147.308 116.028 146.888 115.668C146.468 115.308 145.85 115.128 145.034 115.128H142.19V119.43ZM152.388 126.144C152.016 126.144 151.728 126.048 151.524 125.856C151.332 125.652 151.236 125.364 151.236 124.992V118.188C151.236 117.816 151.332 117.534 151.524 117.342C151.716 117.15 151.986 117.054 152.334 117.054C152.682 117.054 152.952 117.15 153.144 117.342C153.336 117.534 153.432 117.816 153.432 118.188V119.322H153.252C153.42 118.602 153.75 118.056 154.242 117.684C154.734 117.312 155.388 117.09 156.204 117.018C156.456 116.994 156.654 117.06 156.798 117.216C156.954 117.36 157.044 117.588 157.068 117.9C157.092 118.2 157.02 118.446 156.852 118.638C156.696 118.818 156.456 118.926 156.132 118.962L155.736 118.998C155.004 119.07 154.452 119.298 154.08 119.682C153.708 120.054 153.522 120.582 153.522 121.266V124.992C153.522 125.364 153.426 125.652 153.234 125.856C153.042 126.048 152.76 126.144 152.388 126.144ZM159.401 126.126C159.041 126.126 158.765 126.018 158.573 125.802C158.381 125.586 158.285 125.286 158.285 124.902V118.296C158.285 117.9 158.381 117.6 158.573 117.396C158.765 117.18 159.041 117.072 159.401 117.072C159.761 117.072 160.037 117.18 160.229 117.396C160.433 117.6 160.535 117.9 160.535 118.296V124.902C160.535 125.286 160.439 125.586 160.247 125.802C160.055 126.018 159.773 126.126 159.401 126.126ZM159.401 115.398C158.981 115.398 158.651 115.296 158.411 115.092C158.183 114.876 158.069 114.582 158.069 114.21C158.069 113.826 158.183 113.532 158.411 113.328C158.651 113.124 158.981 113.022 159.401 113.022C159.833 113.022 160.163 113.124 160.391 113.328C160.619 113.532 160.733 113.826 160.733 114.21C160.733 114.582 160.619 114.876 160.391 115.092C160.163 115.296 159.833 115.398 159.401 115.398ZM164.025 126.144C163.665 126.144 163.389 126.048 163.197 125.856C163.005 125.652 162.909 125.364 162.909 124.992V118.188C162.909 117.816 163.005 117.534 163.197 117.342C163.389 117.15 163.659 117.054 164.007 117.054C164.355 117.054 164.625 117.15 164.817 117.342C165.009 117.534 165.105 117.816 165.105 118.188V119.502L164.907 118.962C165.147 118.362 165.519 117.888 166.023 117.54C166.527 117.192 167.127 117.018 167.823 117.018C168.531 117.018 169.113 117.186 169.569 117.522C170.025 117.858 170.343 118.374 170.523 119.07H170.271C170.511 118.434 170.907 117.936 171.459 117.576C172.011 117.204 172.647 117.018 173.367 117.018C174.039 117.018 174.591 117.15 175.023 117.414C175.467 117.678 175.797 118.08 176.013 118.62C176.229 119.148 176.337 119.82 176.337 120.636V124.992C176.337 125.364 176.235 125.652 176.031 125.856C175.839 126.048 175.563 126.144 175.203 126.144C174.843 126.144 174.567 126.048 174.375 125.856C174.183 125.652 174.087 125.364 174.087 124.992V120.726C174.087 120.054 173.973 119.562 173.745 119.25C173.529 118.938 173.157 118.782 172.629 118.782C172.041 118.782 171.579 118.992 171.243 119.412C170.907 119.82 170.739 120.39 170.739 121.122V124.992C170.739 125.364 170.643 125.652 170.451 125.856C170.259 126.048 169.983 126.144 169.623 126.144C169.263 126.144 168.981 126.048 168.777 125.856C168.585 125.652 168.489 125.364 168.489 124.992V120.726C168.489 120.054 168.375 119.562 168.147 119.25C167.931 118.938 167.565 118.782 167.049 118.782C166.461 118.782 165.999 118.992 165.663 119.412C165.327 119.82 165.159 120.39 165.159 121.122V124.992C165.159 125.76 164.781 126.144 164.025 126.144ZM181.556 126.18C180.92 126.18 180.35 126.06 179.846 125.82C179.354 125.568 178.964 125.232 178.676 124.812C178.4 124.392 178.262 123.918 178.262 123.39C178.262 122.742 178.43 122.232 178.766 121.86C179.102 121.476 179.648 121.2 180.404 121.032C181.16 120.864 182.174 120.78 183.446 120.78H184.346V122.076H183.464C182.72 122.076 182.126 122.112 181.682 122.184C181.238 122.256 180.92 122.382 180.728 122.562C180.548 122.73 180.458 122.97 180.458 123.282C180.458 123.678 180.596 124.002 180.872 124.254C181.148 124.506 181.532 124.632 182.024 124.632C182.42 124.632 182.768 124.542 183.068 124.362C183.38 124.17 183.626 123.912 183.806 123.588C183.986 123.264 184.076 122.892 184.076 122.472V120.402C184.076 119.802 183.944 119.37 183.68 119.106C183.416 118.842 182.972 118.71 182.348 118.71C182 118.71 181.622 118.752 181.214 118.836C180.818 118.92 180.398 119.064 179.954 119.268C179.726 119.376 179.522 119.406 179.342 119.358C179.174 119.31 179.042 119.214 178.946 119.07C178.85 118.914 178.802 118.746 178.802 118.566C178.802 118.386 178.85 118.212 178.946 118.044C179.042 117.864 179.204 117.732 179.432 117.648C179.984 117.42 180.512 117.258 181.016 117.162C181.532 117.066 182 117.018 182.42 117.018C183.284 117.018 183.992 117.15 184.544 117.414C185.108 117.678 185.528 118.08 185.804 118.62C186.08 119.148 186.218 119.832 186.218 120.672V124.992C186.218 125.364 186.128 125.652 185.948 125.856C185.768 126.048 185.51 126.144 185.174 126.144C184.838 126.144 184.574 126.048 184.382 125.856C184.202 125.652 184.112 125.364 184.112 124.992V124.128H184.256C184.172 124.548 184.004 124.914 183.752 125.226C183.512 125.526 183.206 125.76 182.834 125.928C182.462 126.096 182.036 126.18 181.556 126.18ZM189.654 126.144C189.282 126.144 188.994 126.048 188.79 125.856C188.598 125.652 188.502 125.364 188.502 124.992V118.188C188.502 117.816 188.598 117.534 188.79 117.342C188.982 117.15 189.252 117.054 189.6 117.054C189.948 117.054 190.218 117.15 190.41 117.342C190.602 117.534 190.698 117.816 190.698 118.188V119.322H190.518C190.686 118.602 191.016 118.056 191.508 117.684C192 117.312 192.654 117.09 193.47 117.018C193.722 116.994 193.92 117.06 194.064 117.216C194.22 117.36 194.31 117.588 194.334 117.9C194.358 118.2 194.286 118.446 194.118 118.638C193.962 118.818 193.722 118.926 193.398 118.962L193.002 118.998C192.27 119.07 191.718 119.298 191.346 119.682C190.974 120.054 190.788 120.582 190.788 121.266V124.992C190.788 125.364 190.692 125.652 190.5 125.856C190.308 126.048 190.026 126.144 189.654 126.144ZM196.667 126.126C196.307 126.126 196.031 126.018 195.839 125.802C195.647 125.586 195.551 125.286 195.551 124.902V118.296C195.551 117.9 195.647 117.6 195.839 117.396C196.031 117.18 196.307 117.072 196.667 117.072C197.027 117.072 197.303 117.18 197.495 117.396C197.699 117.6 197.801 117.9 197.801 118.296V124.902C197.801 125.286 197.705 125.586 197.513 125.802C197.321 126.018 197.039 126.126 196.667 126.126ZM196.667 115.398C196.247 115.398 195.917 115.296 195.677 115.092C195.449 114.876 195.335 114.582 195.335 114.21C195.335 113.826 195.449 113.532 195.677 113.328C195.917 113.124 196.247 113.022 196.667 113.022C197.099 113.022 197.429 113.124 197.657 113.328C197.885 113.532 197.999 113.826 197.999 114.21C197.999 114.582 197.885 114.876 197.657 115.092C197.429 115.296 197.099 115.398 196.667 115.398ZM204.153 126.18C203.241 126.18 202.449 125.994 201.777 125.622C201.105 125.25 200.583 124.722 200.211 124.038C199.839 123.342 199.653 122.526 199.653 121.59C199.653 120.882 199.755 120.252 199.959 119.7C200.175 119.136 200.481 118.656 200.877 118.26C201.273 117.852 201.747 117.546 202.299 117.342C202.851 117.126 203.469 117.018 204.153 117.018C205.065 117.018 205.857 117.204 206.529 117.576C207.201 117.948 207.723 118.476 208.095 119.16C208.467 119.844 208.653 120.654 208.653 121.59C208.653 122.298 208.545 122.934 208.329 123.498C208.125 124.062 207.825 124.548 207.429 124.956C207.033 125.352 206.559 125.658 206.007 125.874C205.455 126.078 204.837 126.18 204.153 126.18ZM204.153 124.47C204.597 124.47 204.987 124.362 205.323 124.146C205.659 123.93 205.917 123.612 206.097 123.192C206.289 122.76 206.385 122.226 206.385 121.59C206.385 120.63 206.181 119.916 205.773 119.448C205.365 118.968 204.825 118.728 204.153 118.728C203.709 118.728 203.319 118.836 202.983 119.052C202.647 119.256 202.383 119.574 202.191 120.006C202.011 120.426 201.921 120.954 201.921 121.59C201.921 122.538 202.125 123.258 202.533 123.75C202.941 124.23 203.481 124.47 204.153 124.47Z" fill="white"/>
</svg>
