<svg width="348" height="240" viewBox="0 0 348 240" fill="none" xmlns="http://www.w3.org/2000/svg">
<rect width="348" height="240" rx="8" fill="#F3F6F9"/>
<rect x="107" y="96" width="134" height="48" rx="8" fill="#101E37"/>
<path d="M132.76 126.18C132.232 126.18 131.704 126.138 131.176 126.054C130.648 125.982 130.15 125.868 129.682 125.712C129.214 125.544 128.794 125.34 128.422 125.1C128.206 124.956 128.056 124.782 127.972 124.578C127.888 124.374 127.858 124.176 127.882 123.984C127.918 123.78 127.996 123.606 128.116 123.462C128.248 123.306 128.41 123.21 128.602 123.174C128.794 123.138 129.004 123.192 129.232 123.336C129.76 123.648 130.318 123.876 130.906 124.02C131.494 124.164 132.112 124.236 132.76 124.236C133.708 124.236 134.398 124.08 134.83 123.768C135.262 123.444 135.478 123.03 135.478 122.526C135.478 122.106 135.322 121.776 135.01 121.536C134.71 121.296 134.188 121.098 133.444 120.942L131.464 120.528C130.324 120.288 129.472 119.886 128.908 119.322C128.356 118.746 128.08 117.99 128.08 117.054C128.08 116.466 128.2 115.932 128.44 115.452C128.68 114.972 129.016 114.558 129.448 114.21C129.892 113.862 130.414 113.598 131.014 113.418C131.626 113.226 132.298 113.13 133.03 113.13C133.75 113.13 134.434 113.22 135.082 113.4C135.73 113.58 136.312 113.844 136.828 114.192C137.02 114.324 137.146 114.486 137.206 114.678C137.278 114.87 137.296 115.062 137.26 115.254C137.224 115.434 137.14 115.59 137.008 115.722C136.876 115.854 136.708 115.932 136.504 115.956C136.312 115.98 136.09 115.92 135.838 115.776C135.394 115.524 134.944 115.344 134.488 115.236C134.032 115.128 133.54 115.074 133.012 115.074C132.46 115.074 131.986 115.152 131.59 115.308C131.194 115.464 130.888 115.686 130.672 115.974C130.468 116.25 130.366 116.58 130.366 116.964C130.366 117.396 130.51 117.744 130.798 118.008C131.086 118.26 131.578 118.458 132.274 118.602L134.236 119.016C135.424 119.268 136.306 119.664 136.882 120.204C137.47 120.744 137.764 121.464 137.764 122.364C137.764 122.94 137.644 123.462 137.404 123.93C137.176 124.398 136.84 124.8 136.396 125.136C135.964 125.472 135.442 125.73 134.83 125.91C134.218 126.09 133.528 126.18 132.76 126.18ZM143.863 126.18C142.867 126.18 142.009 125.994 141.289 125.622C140.569 125.25 140.011 124.722 139.615 124.038C139.231 123.354 139.039 122.544 139.039 121.608C139.039 120.696 139.225 119.898 139.597 119.214C139.981 118.53 140.503 117.996 141.163 117.612C141.835 117.216 142.597 117.018 143.449 117.018C144.073 117.018 144.631 117.12 145.123 117.324C145.627 117.528 146.053 117.822 146.401 118.206C146.761 118.59 147.031 119.058 147.211 119.61C147.403 120.15 147.499 120.762 147.499 121.446C147.499 121.662 147.421 121.83 147.265 121.95C147.121 122.058 146.911 122.112 146.635 122.112H140.857V120.816H145.915L145.627 121.086C145.627 120.534 145.543 120.072 145.375 119.7C145.219 119.328 144.985 119.046 144.673 118.854C144.373 118.65 143.995 118.548 143.539 118.548C143.035 118.548 142.603 118.668 142.243 118.908C141.895 119.136 141.625 119.466 141.433 119.898C141.253 120.318 141.163 120.822 141.163 121.41V121.536C141.163 122.52 141.391 123.258 141.847 123.75C142.315 124.23 142.999 124.47 143.899 124.47C144.211 124.47 144.559 124.434 144.943 124.362C145.339 124.278 145.711 124.14 146.059 123.948C146.311 123.804 146.533 123.744 146.725 123.768C146.917 123.78 147.067 123.846 147.175 123.966C147.295 124.086 147.367 124.236 147.391 124.416C147.415 124.584 147.379 124.758 147.283 124.938C147.199 125.118 147.049 125.274 146.833 125.406C146.413 125.67 145.927 125.868 145.375 126C144.835 126.12 144.331 126.18 143.863 126.18ZM153.349 126.18C152.425 126.18 151.621 125.994 150.937 125.622C150.253 125.238 149.725 124.698 149.353 124.002C148.981 123.306 148.795 122.49 148.795 121.554C148.795 120.846 148.897 120.216 149.101 119.664C149.317 119.1 149.623 118.626 150.019 118.242C150.415 117.846 150.895 117.546 151.459 117.342C152.023 117.126 152.653 117.018 153.349 117.018C153.745 117.018 154.171 117.072 154.627 117.18C155.095 117.288 155.533 117.468 155.941 117.72C156.133 117.84 156.259 117.984 156.319 118.152C156.379 118.32 156.391 118.494 156.355 118.674C156.319 118.842 156.241 118.992 156.121 119.124C156.013 119.244 155.875 119.322 155.707 119.358C155.539 119.382 155.353 119.34 155.149 119.232C154.885 119.076 154.615 118.962 154.339 118.89C154.063 118.806 153.799 118.764 153.547 118.764C153.151 118.764 152.803 118.83 152.503 118.962C152.203 119.082 151.945 119.262 151.729 119.502C151.525 119.73 151.369 120.018 151.261 120.366C151.153 120.714 151.099 121.116 151.099 121.572C151.099 122.46 151.309 123.162 151.729 123.678C152.161 124.182 152.767 124.434 153.547 124.434C153.799 124.434 154.057 124.398 154.321 124.326C154.597 124.254 154.873 124.14 155.149 123.984C155.353 123.876 155.533 123.84 155.689 123.876C155.857 123.912 155.995 123.996 156.103 124.128C156.211 124.248 156.277 124.398 156.301 124.578C156.325 124.746 156.301 124.914 156.229 125.082C156.169 125.25 156.049 125.388 155.869 125.496C155.473 125.736 155.053 125.91 154.609 126.018C154.165 126.126 153.745 126.18 153.349 126.18ZM160.958 126.18C160.226 126.18 159.62 126.048 159.14 125.784C158.66 125.508 158.3 125.1 158.06 124.56C157.832 124.02 157.718 123.348 157.718 122.544V118.188C157.718 117.804 157.814 117.522 158.006 117.342C158.198 117.15 158.474 117.054 158.834 117.054C159.194 117.054 159.47 117.15 159.662 117.342C159.866 117.522 159.968 117.804 159.968 118.188V122.58C159.968 123.204 160.094 123.666 160.346 123.966C160.598 124.266 161 124.416 161.552 124.416C162.152 124.416 162.644 124.212 163.028 123.804C163.412 123.384 163.604 122.832 163.604 122.148V118.188C163.604 117.804 163.7 117.522 163.892 117.342C164.084 117.15 164.36 117.054 164.72 117.054C165.08 117.054 165.356 117.15 165.548 117.342C165.752 117.522 165.854 117.804 165.854 118.188V124.992C165.854 125.76 165.488 126.144 164.756 126.144C164.408 126.144 164.138 126.048 163.946 125.856C163.754 125.652 163.658 125.364 163.658 124.992V123.624L163.91 124.164C163.658 124.812 163.274 125.31 162.758 125.658C162.254 126.006 161.654 126.18 160.958 126.18ZM169.311 126.144C168.951 126.144 168.675 126.048 168.483 125.856C168.291 125.652 168.195 125.364 168.195 124.992V118.188C168.195 117.816 168.291 117.534 168.483 117.342C168.675 117.15 168.945 117.054 169.293 117.054C169.641 117.054 169.911 117.15 170.103 117.342C170.295 117.534 170.391 117.816 170.391 118.188V119.412L170.193 118.962C170.457 118.326 170.865 117.846 171.417 117.522C171.981 117.186 172.617 117.018 173.325 117.018C174.033 117.018 174.615 117.15 175.071 117.414C175.527 117.678 175.869 118.08 176.097 118.62C176.325 119.148 176.439 119.82 176.439 120.636V124.992C176.439 125.364 176.343 125.652 176.151 125.856C175.959 126.048 175.683 126.144 175.323 126.144C174.963 126.144 174.681 126.048 174.477 125.856C174.285 125.652 174.189 125.364 174.189 124.992V120.744C174.189 120.06 174.057 119.562 173.793 119.25C173.541 118.938 173.145 118.782 172.605 118.782C171.945 118.782 171.417 118.992 171.021 119.412C170.637 119.82 170.445 120.366 170.445 121.05V124.992C170.445 125.76 170.067 126.144 169.311 126.144ZM182.109 126.18C181.341 126.18 180.663 125.994 180.075 125.622C179.499 125.25 179.049 124.722 178.725 124.038C178.401 123.342 178.239 122.526 178.239 121.59C178.239 120.642 178.401 119.832 178.725 119.16C179.049 118.476 179.499 117.948 180.075 117.576C180.663 117.204 181.341 117.018 182.109 117.018C182.841 117.018 183.477 117.198 184.017 117.558C184.569 117.918 184.941 118.392 185.133 118.98H184.935V114.3C184.935 113.928 185.031 113.646 185.223 113.454C185.415 113.262 185.691 113.166 186.051 113.166C186.411 113.166 186.687 113.262 186.879 113.454C187.083 113.646 187.185 113.928 187.185 114.3V124.992C187.185 125.364 187.089 125.652 186.897 125.856C186.705 126.048 186.429 126.144 186.069 126.144C185.709 126.144 185.433 126.048 185.241 125.856C185.049 125.652 184.953 125.364 184.953 124.992V123.588L185.151 124.128C184.971 124.752 184.605 125.25 184.053 125.622C183.501 125.994 182.853 126.18 182.109 126.18ZM182.739 124.47C183.183 124.47 183.573 124.362 183.909 124.146C184.245 123.93 184.503 123.612 184.683 123.192C184.875 122.76 184.971 122.226 184.971 121.59C184.971 120.63 184.767 119.916 184.359 119.448C183.951 118.968 183.411 118.728 182.739 118.728C182.295 118.728 181.905 118.836 181.569 119.052C181.233 119.256 180.969 119.574 180.777 120.006C180.597 120.426 180.507 120.954 180.507 121.59C180.507 122.538 180.711 123.258 181.119 123.75C181.527 124.23 182.067 124.47 182.739 124.47ZM192.416 126.18C191.78 126.18 191.21 126.06 190.706 125.82C190.214 125.568 189.824 125.232 189.536 124.812C189.26 124.392 189.122 123.918 189.122 123.39C189.122 122.742 189.29 122.232 189.626 121.86C189.962 121.476 190.508 121.2 191.264 121.032C192.02 120.864 193.034 120.78 194.306 120.78H195.206V122.076H194.324C193.58 122.076 192.986 122.112 192.542 122.184C192.098 122.256 191.78 122.382 191.588 122.562C191.408 122.73 191.318 122.97 191.318 123.282C191.318 123.678 191.456 124.002 191.732 124.254C192.008 124.506 192.392 124.632 192.884 124.632C193.28 124.632 193.628 124.542 193.928 124.362C194.24 124.17 194.486 123.912 194.666 123.588C194.846 123.264 194.936 122.892 194.936 122.472V120.402C194.936 119.802 194.804 119.37 194.54 119.106C194.276 118.842 193.832 118.71 193.208 118.71C192.86 118.71 192.482 118.752 192.074 118.836C191.678 118.92 191.258 119.064 190.814 119.268C190.586 119.376 190.382 119.406 190.202 119.358C190.034 119.31 189.902 119.214 189.806 119.07C189.71 118.914 189.662 118.746 189.662 118.566C189.662 118.386 189.71 118.212 189.806 118.044C189.902 117.864 190.064 117.732 190.292 117.648C190.844 117.42 191.372 117.258 191.876 117.162C192.392 117.066 192.86 117.018 193.28 117.018C194.144 117.018 194.852 117.15 195.404 117.414C195.968 117.678 196.388 118.08 196.664 118.62C196.94 119.148 197.078 119.832 197.078 120.672V124.992C197.078 125.364 196.988 125.652 196.808 125.856C196.628 126.048 196.37 126.144 196.034 126.144C195.698 126.144 195.434 126.048 195.242 125.856C195.062 125.652 194.972 125.364 194.972 124.992V124.128H195.116C195.032 124.548 194.864 124.914 194.612 125.226C194.372 125.526 194.066 125.76 193.694 125.928C193.322 126.096 192.896 126.18 192.416 126.18ZM200.513 126.144C200.141 126.144 199.853 126.048 199.649 125.856C199.457 125.652 199.361 125.364 199.361 124.992V118.188C199.361 117.816 199.457 117.534 199.649 117.342C199.841 117.15 200.111 117.054 200.459 117.054C200.807 117.054 201.077 117.15 201.269 117.342C201.461 117.534 201.557 117.816 201.557 118.188V119.322H201.377C201.545 118.602 201.875 118.056 202.367 117.684C202.859 117.312 203.513 117.09 204.329 117.018C204.581 116.994 204.779 117.06 204.923 117.216C205.079 117.36 205.169 117.588 205.193 117.9C205.217 118.2 205.145 118.446 204.977 118.638C204.821 118.818 204.581 118.926 204.257 118.962L203.861 118.998C203.129 119.07 202.577 119.298 202.205 119.682C201.833 120.054 201.647 120.582 201.647 121.266V124.992C201.647 125.364 201.551 125.652 201.359 125.856C201.167 126.048 200.885 126.144 200.513 126.144ZM207.526 126.126C207.166 126.126 206.89 126.018 206.698 125.802C206.506 125.586 206.41 125.286 206.41 124.902V118.296C206.41 117.9 206.506 117.6 206.698 117.396C206.89 117.18 207.166 117.072 207.526 117.072C207.886 117.072 208.162 117.18 208.354 117.396C208.558 117.6 208.66 117.9 208.66 118.296V124.902C208.66 125.286 208.564 125.586 208.372 125.802C208.18 126.018 207.898 126.126 207.526 126.126ZM207.526 115.398C207.106 115.398 206.776 115.296 206.536 115.092C206.308 114.876 206.194 114.582 206.194 114.21C206.194 113.826 206.308 113.532 206.536 113.328C206.776 113.124 207.106 113.022 207.526 113.022C207.958 113.022 208.288 113.124 208.516 113.328C208.744 113.532 208.858 113.826 208.858 114.21C208.858 114.582 208.744 114.876 208.516 115.092C208.288 115.296 207.958 115.398 207.526 115.398ZM215.012 126.18C214.1 126.18 213.308 125.994 212.636 125.622C211.964 125.25 211.442 124.722 211.07 124.038C210.698 123.342 210.512 122.526 210.512 121.59C210.512 120.882 210.614 120.252 210.818 119.7C211.034 119.136 211.34 118.656 211.736 118.26C212.132 117.852 212.606 117.546 213.158 117.342C213.71 117.126 214.328 117.018 215.012 117.018C215.924 117.018 216.716 117.204 217.388 117.576C218.06 117.948 218.582 118.476 218.954 119.16C219.326 119.844 219.512 120.654 219.512 121.59C219.512 122.298 219.404 122.934 219.188 123.498C218.984 124.062 218.684 124.548 218.288 124.956C217.892 125.352 217.418 125.658 216.866 125.874C216.314 126.078 215.696 126.18 215.012 126.18ZM215.012 124.47C215.456 124.47 215.846 124.362 216.182 124.146C216.518 123.93 216.776 123.612 216.956 123.192C217.148 122.76 217.244 122.226 217.244 121.59C217.244 120.63 217.04 119.916 216.632 119.448C216.224 118.968 215.684 118.728 215.012 118.728C214.568 118.728 214.178 118.836 213.842 119.052C213.506 119.256 213.242 119.574 213.05 120.006C212.87 120.426 212.78 120.954 212.78 121.59C212.78 122.538 212.984 123.258 213.392 123.75C213.8 124.23 214.34 124.47 215.012 124.47Z" fill="white"/>
</svg>
