<svg width="728" height="160" viewBox="0 0 728 160" fill="none" xmlns="http://www.w3.org/2000/svg">
<rect width="728" height="160" rx="8" fill="#F3F6F9"/>
<rect x="196.5" y="56" width="102" height="48" rx="8" fill="#336ACC"/>
<path d="M223.988 86.18C222.584 86.18 221.396 85.916 220.424 85.388C219.464 84.86 218.732 84.11 218.228 83.138C217.724 82.166 217.472 81.014 217.472 79.682C217.472 78.674 217.616 77.768 217.904 76.964C218.204 76.16 218.63 75.476 219.182 74.912C219.746 74.336 220.43 73.898 221.234 73.598C222.038 73.286 222.95 73.13 223.97 73.13C224.642 73.13 225.314 73.214 225.986 73.382C226.67 73.538 227.312 73.808 227.912 74.192C228.116 74.324 228.248 74.486 228.308 74.678C228.38 74.87 228.392 75.068 228.344 75.272C228.296 75.464 228.206 75.632 228.074 75.776C227.942 75.92 227.774 76.01 227.57 76.046C227.378 76.082 227.162 76.034 226.922 75.902C226.466 75.638 226.004 75.446 225.536 75.326C225.068 75.206 224.546 75.146 223.97 75.146C223.082 75.146 222.332 75.326 221.72 75.686C221.108 76.034 220.646 76.544 220.334 77.216C220.034 77.888 219.884 78.71 219.884 79.682C219.884 81.158 220.238 82.28 220.946 83.048C221.654 83.816 222.704 84.2 224.096 84.2C224.576 84.2 225.062 84.152 225.554 84.056C226.046 83.96 226.526 83.828 226.994 83.66L226.544 84.686V80.852H224.564C224.264 80.852 224.03 80.774 223.862 80.618C223.706 80.462 223.628 80.252 223.628 79.988C223.628 79.712 223.706 79.502 223.862 79.358C224.03 79.214 224.264 79.142 224.564 79.142H227.534C227.834 79.142 228.062 79.226 228.218 79.394C228.386 79.55 228.47 79.778 228.47 80.078V84.452C228.47 84.716 228.416 84.938 228.308 85.118C228.212 85.298 228.05 85.43 227.822 85.514C227.294 85.706 226.688 85.868 226.004 86C225.32 86.12 224.648 86.18 223.988 86.18ZM232.076 86.144C231.704 86.144 231.416 86.048 231.212 85.856C231.02 85.652 230.924 85.364 230.924 84.992V78.188C230.924 77.816 231.02 77.534 231.212 77.342C231.404 77.15 231.674 77.054 232.022 77.054C232.37 77.054 232.64 77.15 232.832 77.342C233.024 77.534 233.12 77.816 233.12 78.188V79.322H232.94C233.108 78.602 233.438 78.056 233.93 77.684C234.422 77.312 235.076 77.09 235.892 77.018C236.144 76.994 236.342 77.06 236.486 77.216C236.642 77.36 236.732 77.588 236.756 77.9C236.78 78.2 236.708 78.446 236.54 78.638C236.384 78.818 236.144 78.926 235.82 78.962L235.424 78.998C234.692 79.07 234.14 79.298 233.768 79.682C233.396 80.054 233.21 80.582 233.21 81.266V84.992C233.21 85.364 233.114 85.652 232.922 85.856C232.73 86.048 232.448 86.144 232.076 86.144ZM240.783 86.18C240.147 86.18 239.577 86.06 239.073 85.82C238.581 85.568 238.191 85.232 237.903 84.812C237.627 84.392 237.489 83.918 237.489 83.39C237.489 82.742 237.657 82.232 237.993 81.86C238.329 81.476 238.875 81.2 239.631 81.032C240.387 80.864 241.401 80.78 242.673 80.78H243.573V82.076H242.691C241.947 82.076 241.353 82.112 240.909 82.184C240.465 82.256 240.147 82.382 239.955 82.562C239.775 82.73 239.685 82.97 239.685 83.282C239.685 83.678 239.823 84.002 240.099 84.254C240.375 84.506 240.759 84.632 241.251 84.632C241.647 84.632 241.995 84.542 242.295 84.362C242.607 84.17 242.853 83.912 243.033 83.588C243.213 83.264 243.303 82.892 243.303 82.472V80.402C243.303 79.802 243.171 79.37 242.907 79.106C242.643 78.842 242.199 78.71 241.575 78.71C241.227 78.71 240.849 78.752 240.441 78.836C240.045 78.92 239.625 79.064 239.181 79.268C238.953 79.376 238.749 79.406 238.569 79.358C238.401 79.31 238.269 79.214 238.173 79.07C238.077 78.914 238.029 78.746 238.029 78.566C238.029 78.386 238.077 78.212 238.173 78.044C238.269 77.864 238.431 77.732 238.659 77.648C239.211 77.42 239.739 77.258 240.243 77.162C240.759 77.066 241.227 77.018 241.647 77.018C242.511 77.018 243.219 77.15 243.771 77.414C244.335 77.678 244.755 78.08 245.031 78.62C245.307 79.148 245.445 79.832 245.445 80.672V84.992C245.445 85.364 245.355 85.652 245.175 85.856C244.995 86.048 244.737 86.144 244.401 86.144C244.065 86.144 243.801 86.048 243.609 85.856C243.429 85.652 243.339 85.364 243.339 84.992V84.128H243.483C243.399 84.548 243.231 84.914 242.979 85.226C242.739 85.526 242.433 85.76 242.061 85.928C241.689 86.096 241.263 86.18 240.783 86.18ZM248.845 86.144C248.485 86.144 248.209 86.048 248.017 85.856C247.825 85.652 247.729 85.364 247.729 84.992V78.188C247.729 77.816 247.825 77.534 248.017 77.342C248.209 77.15 248.479 77.054 248.827 77.054C249.175 77.054 249.445 77.15 249.637 77.342C249.829 77.534 249.925 77.816 249.925 78.188V79.412L249.727 78.962C249.991 78.326 250.399 77.846 250.951 77.522C251.515 77.186 252.151 77.018 252.859 77.018C253.567 77.018 254.149 77.15 254.605 77.414C255.061 77.678 255.403 78.08 255.631 78.62C255.859 79.148 255.973 79.82 255.973 80.636V84.992C255.973 85.364 255.877 85.652 255.685 85.856C255.493 86.048 255.217 86.144 254.857 86.144C254.497 86.144 254.215 86.048 254.011 85.856C253.819 85.652 253.723 85.364 253.723 84.992V80.744C253.723 80.06 253.591 79.562 253.327 79.25C253.075 78.938 252.679 78.782 252.139 78.782C251.479 78.782 250.951 78.992 250.555 79.412C250.171 79.82 249.979 80.366 249.979 81.05V84.992C249.979 85.76 249.601 86.144 248.845 86.144ZM261.642 86.18C260.874 86.18 260.196 85.994 259.608 85.622C259.032 85.25 258.582 84.722 258.258 84.038C257.934 83.342 257.772 82.526 257.772 81.59C257.772 80.642 257.934 79.832 258.258 79.16C258.582 78.476 259.032 77.948 259.608 77.576C260.196 77.204 260.874 77.018 261.642 77.018C262.374 77.018 263.01 77.198 263.55 77.558C264.102 77.918 264.474 78.392 264.666 78.98H264.468V74.3C264.468 73.928 264.564 73.646 264.756 73.454C264.948 73.262 265.224 73.166 265.584 73.166C265.944 73.166 266.22 73.262 266.412 73.454C266.616 73.646 266.718 73.928 266.718 74.3V84.992C266.718 85.364 266.622 85.652 266.43 85.856C266.238 86.048 265.962 86.144 265.602 86.144C265.242 86.144 264.966 86.048 264.774 85.856C264.582 85.652 264.486 85.364 264.486 84.992V83.588L264.684 84.128C264.504 84.752 264.138 85.25 263.586 85.622C263.034 85.994 262.386 86.18 261.642 86.18ZM262.272 84.47C262.716 84.47 263.106 84.362 263.442 84.146C263.778 83.93 264.036 83.612 264.216 83.192C264.408 82.76 264.504 82.226 264.504 81.59C264.504 80.63 264.3 79.916 263.892 79.448C263.484 78.968 262.944 78.728 262.272 78.728C261.828 78.728 261.438 78.836 261.102 79.052C260.766 79.256 260.502 79.574 260.31 80.006C260.13 80.426 260.04 80.954 260.04 81.59C260.04 82.538 260.244 83.258 260.652 83.75C261.06 84.23 261.6 84.47 262.272 84.47ZM273.389 86.18C272.393 86.18 271.535 85.994 270.815 85.622C270.095 85.25 269.537 84.722 269.141 84.038C268.757 83.354 268.565 82.544 268.565 81.608C268.565 80.696 268.751 79.898 269.123 79.214C269.507 78.53 270.029 77.996 270.689 77.612C271.361 77.216 272.123 77.018 272.975 77.018C273.599 77.018 274.157 77.12 274.649 77.324C275.153 77.528 275.579 77.822 275.927 78.206C276.287 78.59 276.557 79.058 276.737 79.61C276.929 80.15 277.025 80.762 277.025 81.446C277.025 81.662 276.947 81.83 276.791 81.95C276.647 82.058 276.437 82.112 276.161 82.112H270.383V80.816H275.441L275.153 81.086C275.153 80.534 275.069 80.072 274.901 79.7C274.745 79.328 274.511 79.046 274.199 78.854C273.899 78.65 273.521 78.548 273.065 78.548C272.561 78.548 272.129 78.668 271.769 78.908C271.421 79.136 271.151 79.466 270.959 79.898C270.779 80.318 270.689 80.822 270.689 81.41V81.536C270.689 82.52 270.917 83.258 271.373 83.75C271.841 84.23 272.525 84.47 273.425 84.47C273.737 84.47 274.085 84.434 274.469 84.362C274.865 84.278 275.237 84.14 275.585 83.948C275.837 83.804 276.059 83.744 276.251 83.768C276.443 83.78 276.593 83.846 276.701 83.966C276.821 84.086 276.893 84.236 276.917 84.416C276.941 84.584 276.905 84.758 276.809 84.938C276.725 85.118 276.575 85.274 276.359 85.406C275.939 85.67 275.453 85.868 274.901 86C274.361 86.12 273.857 86.18 273.389 86.18Z" fill="white"/>
<rect x="331.5" y="60" width="104" height="40" rx="8" fill="#336ACC"/>
<path d="M349.966 86.144C349.63 86.144 349.372 86.048 349.192 85.856C349.012 85.664 348.922 85.4 348.922 85.064V74.246C348.922 73.898 349.018 73.634 349.21 73.454C349.402 73.262 349.666 73.166 350.002 73.166C350.302 73.166 350.536 73.226 350.704 73.346C350.884 73.454 351.046 73.646 351.19 73.922L355.636 82.148H355.06L359.506 73.922C359.65 73.646 359.806 73.454 359.974 73.346C360.142 73.226 360.376 73.166 360.676 73.166C361.012 73.166 361.27 73.262 361.45 73.454C361.63 73.634 361.72 73.898 361.72 74.246V85.064C361.72 85.4 361.63 85.664 361.45 85.856C361.282 86.048 361.024 86.144 360.676 86.144C360.34 86.144 360.082 86.048 359.902 85.856C359.722 85.664 359.632 85.4 359.632 85.064V76.73H360.028L356.248 83.624C356.128 83.828 356.002 83.978 355.87 84.074C355.738 84.17 355.558 84.218 355.33 84.218C355.102 84.218 354.916 84.17 354.772 84.074C354.628 83.966 354.502 83.816 354.394 83.624L350.578 76.712H351.01V85.064C351.01 85.4 350.92 85.664 350.74 85.856C350.572 86.048 350.314 86.144 349.966 86.144ZM368.635 86.18C367.639 86.18 366.781 85.994 366.061 85.622C365.341 85.25 364.783 84.722 364.387 84.038C364.003 83.354 363.811 82.544 363.811 81.608C363.811 80.696 363.997 79.898 364.369 79.214C364.753 78.53 365.275 77.996 365.935 77.612C366.607 77.216 367.369 77.018 368.221 77.018C368.845 77.018 369.403 77.12 369.895 77.324C370.399 77.528 370.825 77.822 371.173 78.206C371.533 78.59 371.803 79.058 371.983 79.61C372.175 80.15 372.271 80.762 372.271 81.446C372.271 81.662 372.193 81.83 372.037 81.95C371.893 82.058 371.683 82.112 371.407 82.112H365.629V80.816H370.687L370.399 81.086C370.399 80.534 370.315 80.072 370.147 79.7C369.991 79.328 369.757 79.046 369.445 78.854C369.145 78.65 368.767 78.548 368.311 78.548C367.807 78.548 367.375 78.668 367.015 78.908C366.667 79.136 366.397 79.466 366.205 79.898C366.025 80.318 365.935 80.822 365.935 81.41V81.536C365.935 82.52 366.163 83.258 366.619 83.75C367.087 84.23 367.771 84.47 368.671 84.47C368.983 84.47 369.331 84.434 369.715 84.362C370.111 84.278 370.483 84.14 370.831 83.948C371.083 83.804 371.305 83.744 371.497 83.768C371.689 83.78 371.839 83.846 371.947 83.966C372.067 84.086 372.139 84.236 372.163 84.416C372.187 84.584 372.151 84.758 372.055 84.938C371.971 85.118 371.821 85.274 371.605 85.406C371.185 85.67 370.699 85.868 370.147 86C369.607 86.12 369.103 86.18 368.635 86.18ZM377.437 86.18C376.669 86.18 375.991 85.994 375.403 85.622C374.827 85.25 374.377 84.722 374.053 84.038C373.729 83.342 373.567 82.526 373.567 81.59C373.567 80.642 373.729 79.832 374.053 79.16C374.377 78.476 374.827 77.948 375.403 77.576C375.991 77.204 376.669 77.018 377.437 77.018C378.169 77.018 378.805 77.198 379.345 77.558C379.897 77.918 380.269 78.392 380.461 78.98H380.263V74.3C380.263 73.928 380.359 73.646 380.551 73.454C380.743 73.262 381.019 73.166 381.379 73.166C381.739 73.166 382.015 73.262 382.207 73.454C382.411 73.646 382.513 73.928 382.513 74.3V84.992C382.513 85.364 382.417 85.652 382.225 85.856C382.033 86.048 381.757 86.144 381.397 86.144C381.037 86.144 380.761 86.048 380.569 85.856C380.377 85.652 380.281 85.364 380.281 84.992V83.588L380.479 84.128C380.299 84.752 379.933 85.25 379.381 85.622C378.829 85.994 378.181 86.18 377.437 86.18ZM378.067 84.47C378.511 84.47 378.901 84.362 379.237 84.146C379.573 83.93 379.831 83.612 380.011 83.192C380.203 82.76 380.299 82.226 380.299 81.59C380.299 80.63 380.095 79.916 379.687 79.448C379.279 78.968 378.739 78.728 378.067 78.728C377.623 78.728 377.233 78.836 376.897 79.052C376.561 79.256 376.297 79.574 376.105 80.006C375.925 80.426 375.835 80.954 375.835 81.59C375.835 82.538 376.039 83.258 376.447 83.75C376.855 84.23 377.395 84.47 378.067 84.47ZM385.962 86.126C385.602 86.126 385.326 86.018 385.134 85.802C384.942 85.586 384.846 85.286 384.846 84.902V78.296C384.846 77.9 384.942 77.6 385.134 77.396C385.326 77.18 385.602 77.072 385.962 77.072C386.322 77.072 386.598 77.18 386.79 77.396C386.994 77.6 387.096 77.9 387.096 78.296V84.902C387.096 85.286 387 85.586 386.808 85.802C386.616 86.018 386.334 86.126 385.962 86.126ZM385.962 75.398C385.542 75.398 385.212 75.296 384.972 75.092C384.744 74.876 384.63 74.582 384.63 74.21C384.63 73.826 384.744 73.532 384.972 73.328C385.212 73.124 385.542 73.022 385.962 73.022C386.394 73.022 386.724 73.124 386.952 73.328C387.18 73.532 387.294 73.826 387.294 74.21C387.294 74.582 387.18 74.876 386.952 75.092C386.724 75.296 386.394 75.398 385.962 75.398ZM392.332 86.18C391.696 86.18 391.126 86.06 390.622 85.82C390.13 85.568 389.74 85.232 389.452 84.812C389.176 84.392 389.038 83.918 389.038 83.39C389.038 82.742 389.206 82.232 389.542 81.86C389.878 81.476 390.424 81.2 391.18 81.032C391.936 80.864 392.95 80.78 394.222 80.78H395.122V82.076H394.24C393.496 82.076 392.902 82.112 392.458 82.184C392.014 82.256 391.696 82.382 391.504 82.562C391.324 82.73 391.234 82.97 391.234 83.282C391.234 83.678 391.372 84.002 391.648 84.254C391.924 84.506 392.308 84.632 392.8 84.632C393.196 84.632 393.544 84.542 393.844 84.362C394.156 84.17 394.402 83.912 394.582 83.588C394.762 83.264 394.852 82.892 394.852 82.472V80.402C394.852 79.802 394.72 79.37 394.456 79.106C394.192 78.842 393.748 78.71 393.124 78.71C392.776 78.71 392.398 78.752 391.99 78.836C391.594 78.92 391.174 79.064 390.73 79.268C390.502 79.376 390.298 79.406 390.118 79.358C389.95 79.31 389.818 79.214 389.722 79.07C389.626 78.914 389.578 78.746 389.578 78.566C389.578 78.386 389.626 78.212 389.722 78.044C389.818 77.864 389.98 77.732 390.208 77.648C390.76 77.42 391.288 77.258 391.792 77.162C392.308 77.066 392.776 77.018 393.196 77.018C394.06 77.018 394.768 77.15 395.32 77.414C395.884 77.678 396.304 78.08 396.58 78.62C396.856 79.148 396.994 79.832 396.994 80.672V84.992C396.994 85.364 396.904 85.652 396.724 85.856C396.544 86.048 396.286 86.144 395.95 86.144C395.614 86.144 395.35 86.048 395.158 85.856C394.978 85.652 394.888 85.364 394.888 84.992V84.128H395.032C394.948 84.548 394.78 84.914 394.528 85.226C394.288 85.526 393.982 85.76 393.61 85.928C393.238 86.096 392.812 86.18 392.332 86.18ZM400.393 86.144C400.033 86.144 399.757 86.048 399.565 85.856C399.373 85.652 399.277 85.364 399.277 84.992V78.188C399.277 77.816 399.373 77.534 399.565 77.342C399.757 77.15 400.027 77.054 400.375 77.054C400.723 77.054 400.993 77.15 401.185 77.342C401.377 77.534 401.473 77.816 401.473 78.188V79.412L401.275 78.962C401.539 78.326 401.947 77.846 402.499 77.522C403.063 77.186 403.699 77.018 404.407 77.018C405.115 77.018 405.697 77.15 406.153 77.414C406.609 77.678 406.951 78.08 407.179 78.62C407.407 79.148 407.521 79.82 407.521 80.636V84.992C407.521 85.364 407.425 85.652 407.233 85.856C407.041 86.048 406.765 86.144 406.405 86.144C406.045 86.144 405.763 86.048 405.559 85.856C405.367 85.652 405.271 85.364 405.271 84.992V80.744C405.271 80.06 405.139 79.562 404.875 79.25C404.623 78.938 404.227 78.782 403.687 78.782C403.027 78.782 402.499 78.992 402.103 79.412C401.719 79.82 401.527 80.366 401.527 81.05V84.992C401.527 85.76 401.149 86.144 400.393 86.144ZM413.821 86.18C412.909 86.18 412.117 85.994 411.445 85.622C410.773 85.25 410.251 84.722 409.879 84.038C409.507 83.342 409.321 82.526 409.321 81.59C409.321 80.882 409.423 80.252 409.627 79.7C409.843 79.136 410.149 78.656 410.545 78.26C410.941 77.852 411.415 77.546 411.967 77.342C412.519 77.126 413.137 77.018 413.821 77.018C414.733 77.018 415.525 77.204 416.197 77.576C416.869 77.948 417.391 78.476 417.763 79.16C418.135 79.844 418.321 80.654 418.321 81.59C418.321 82.298 418.213 82.934 417.997 83.498C417.793 84.062 417.493 84.548 417.097 84.956C416.701 85.352 416.227 85.658 415.675 85.874C415.123 86.078 414.505 86.18 413.821 86.18ZM413.821 84.47C414.265 84.47 414.655 84.362 414.991 84.146C415.327 83.93 415.585 83.612 415.765 83.192C415.957 82.76 416.053 82.226 416.053 81.59C416.053 80.63 415.849 79.916 415.441 79.448C415.033 78.968 414.493 78.728 413.821 78.728C413.377 78.728 412.987 78.836 412.651 79.052C412.315 79.256 412.051 79.574 411.859 80.006C411.679 80.426 411.589 80.954 411.589 81.59C411.589 82.538 411.793 83.258 412.201 83.75C412.609 84.23 413.149 84.47 413.821 84.47Z" fill="white"/>
<rect x="468.5" y="64" width="63" height="32" rx="8" fill="#336ACC"/>
<path d="M483.79 86.18C482.47 86.18 481.336 85.916 480.388 85.388C479.452 84.848 478.732 84.092 478.228 83.12C477.724 82.136 477.472 80.978 477.472 79.646C477.472 78.65 477.616 77.756 477.904 76.964C478.192 76.16 478.606 75.476 479.146 74.912C479.686 74.336 480.346 73.898 481.126 73.598C481.918 73.286 482.806 73.13 483.79 73.13C484.45 73.13 485.098 73.214 485.734 73.382C486.37 73.55 486.928 73.79 487.408 74.102C487.66 74.258 487.828 74.45 487.912 74.678C487.996 74.894 488.014 75.11 487.966 75.326C487.918 75.53 487.816 75.704 487.66 75.848C487.516 75.992 487.33 76.076 487.102 76.1C486.886 76.112 486.646 76.034 486.382 75.866C486.01 75.626 485.608 75.452 485.176 75.344C484.744 75.236 484.306 75.182 483.862 75.182C483.01 75.182 482.29 75.356 481.702 75.704C481.114 76.052 480.67 76.556 480.37 77.216C480.07 77.876 479.92 78.686 479.92 79.646C479.92 80.594 480.07 81.404 480.37 82.076C480.67 82.748 481.114 83.258 481.702 83.606C482.29 83.954 483.01 84.128 483.862 84.128C484.318 84.128 484.768 84.074 485.212 83.966C485.656 83.846 486.076 83.666 486.472 83.426C486.736 83.27 486.97 83.204 487.174 83.228C487.39 83.24 487.57 83.312 487.714 83.444C487.858 83.576 487.954 83.744 488.002 83.948C488.05 84.14 488.038 84.344 487.966 84.56C487.894 84.764 487.75 84.944 487.534 85.1C487.054 85.448 486.478 85.718 485.806 85.91C485.146 86.09 484.474 86.18 483.79 86.18ZM491.02 86.144C490.66 86.144 490.384 86.048 490.192 85.856C490 85.652 489.904 85.364 489.904 84.992V74.3C489.904 73.928 490 73.646 490.192 73.454C490.384 73.262 490.66 73.166 491.02 73.166C491.38 73.166 491.656 73.262 491.848 73.454C492.052 73.646 492.154 73.928 492.154 74.3V78.962H491.902C492.166 78.326 492.574 77.846 493.126 77.522C493.69 77.186 494.326 77.018 495.034 77.018C495.742 77.018 496.324 77.15 496.78 77.414C497.236 77.678 497.578 78.08 497.806 78.62C498.034 79.148 498.148 79.82 498.148 80.636V84.992C498.148 85.364 498.052 85.652 497.86 85.856C497.668 86.048 497.392 86.144 497.032 86.144C496.672 86.144 496.39 86.048 496.186 85.856C495.994 85.652 495.898 85.364 495.898 84.992V80.744C495.898 80.06 495.766 79.562 495.502 79.25C495.25 78.938 494.854 78.782 494.314 78.782C493.654 78.782 493.126 78.992 492.73 79.412C492.346 79.82 492.154 80.366 492.154 81.05V84.992C492.154 85.76 491.776 86.144 491.02 86.144ZM501.55 86.126C501.19 86.126 500.914 86.018 500.722 85.802C500.53 85.586 500.434 85.286 500.434 84.902V78.296C500.434 77.9 500.53 77.6 500.722 77.396C500.914 77.18 501.19 77.072 501.55 77.072C501.91 77.072 502.186 77.18 502.378 77.396C502.582 77.6 502.684 77.9 502.684 78.296V84.902C502.684 85.286 502.588 85.586 502.396 85.802C502.204 86.018 501.922 86.126 501.55 86.126ZM501.55 75.398C501.13 75.398 500.8 75.296 500.56 75.092C500.332 74.876 500.218 74.582 500.218 74.21C500.218 73.826 500.332 73.532 500.56 73.328C500.8 73.124 501.13 73.022 501.55 73.022C501.982 73.022 502.312 73.124 502.54 73.328C502.768 73.532 502.882 73.826 502.882 74.21C502.882 74.582 502.768 74.876 502.54 75.092C502.312 75.296 501.982 75.398 501.55 75.398ZM509.09 86.18C508.166 86.18 507.362 85.994 506.678 85.622C505.994 85.238 505.466 84.698 505.094 84.002C504.722 83.306 504.536 82.49 504.536 81.554C504.536 80.846 504.638 80.216 504.842 79.664C505.058 79.1 505.364 78.626 505.76 78.242C506.156 77.846 506.636 77.546 507.2 77.342C507.764 77.126 508.394 77.018 509.09 77.018C509.486 77.018 509.912 77.072 510.368 77.18C510.836 77.288 511.274 77.468 511.682 77.72C511.874 77.84 512 77.984 512.06 78.152C512.12 78.32 512.132 78.494 512.096 78.674C512.06 78.842 511.982 78.992 511.862 79.124C511.754 79.244 511.616 79.322 511.448 79.358C511.28 79.382 511.094 79.34 510.89 79.232C510.626 79.076 510.356 78.962 510.08 78.89C509.804 78.806 509.54 78.764 509.288 78.764C508.892 78.764 508.544 78.83 508.244 78.962C507.944 79.082 507.686 79.262 507.47 79.502C507.266 79.73 507.11 80.018 507.002 80.366C506.894 80.714 506.84 81.116 506.84 81.572C506.84 82.46 507.05 83.162 507.47 83.678C507.902 84.182 508.508 84.434 509.288 84.434C509.54 84.434 509.798 84.398 510.062 84.326C510.338 84.254 510.614 84.14 510.89 83.984C511.094 83.876 511.274 83.84 511.43 83.876C511.598 83.912 511.736 83.996 511.844 84.128C511.952 84.248 512.018 84.398 512.042 84.578C512.066 84.746 512.042 84.914 511.97 85.082C511.91 85.25 511.79 85.388 511.61 85.496C511.214 85.736 510.794 85.91 510.35 86.018C509.906 86.126 509.486 86.18 509.09 86.18ZM517.35 86.18C516.438 86.18 515.646 85.994 514.974 85.622C514.302 85.25 513.78 84.722 513.408 84.038C513.036 83.342 512.85 82.526 512.85 81.59C512.85 80.882 512.952 80.252 513.156 79.7C513.372 79.136 513.678 78.656 514.074 78.26C514.47 77.852 514.944 77.546 515.496 77.342C516.048 77.126 516.666 77.018 517.35 77.018C518.262 77.018 519.054 77.204 519.726 77.576C520.398 77.948 520.92 78.476 521.292 79.16C521.664 79.844 521.85 80.654 521.85 81.59C521.85 82.298 521.742 82.934 521.526 83.498C521.322 84.062 521.022 84.548 520.626 84.956C520.23 85.352 519.756 85.658 519.204 85.874C518.652 86.078 518.034 86.18 517.35 86.18ZM517.35 84.47C517.794 84.47 518.184 84.362 518.52 84.146C518.856 83.93 519.114 83.612 519.294 83.192C519.486 82.76 519.582 82.226 519.582 81.59C519.582 80.63 519.378 79.916 518.97 79.448C518.562 78.968 518.022 78.728 517.35 78.728C516.906 78.728 516.516 78.836 516.18 79.052C515.844 79.256 515.58 79.574 515.388 80.006C515.208 80.426 515.118 80.954 515.118 81.59C515.118 82.538 515.322 83.258 515.73 83.75C516.138 84.23 516.678 84.47 517.35 84.47Z" fill="white"/>
</svg>
