<svg width="348" height="240" viewBox="0 0 348 240" fill="none" xmlns="http://www.w3.org/2000/svg">
<rect width="348" height="240" rx="8" fill="#F3F6F9"/>
<rect x="118" y="96" width="112" height="48" rx="8" fill="#005E7A"/>
<path d="M143.598 126.144C143.226 126.144 142.938 126.042 142.734 125.838C142.542 125.622 142.446 125.328 142.446 124.956V115.236H138.936C138.624 115.236 138.378 115.152 138.198 114.984C138.03 114.804 137.946 114.564 137.946 114.264C137.946 113.952 138.03 113.718 138.198 113.562C138.378 113.394 138.624 113.31 138.936 113.31H148.26C148.572 113.31 148.812 113.394 148.98 113.562C149.16 113.718 149.25 113.952 149.25 114.264C149.25 114.564 149.16 114.804 148.98 114.984C148.812 115.152 148.572 115.236 148.26 115.236H144.75V124.956C144.75 125.328 144.654 125.622 144.462 125.838C144.27 126.042 143.982 126.144 143.598 126.144ZM153.281 126.18C152.285 126.18 151.427 125.994 150.707 125.622C149.987 125.25 149.429 124.722 149.033 124.038C148.649 123.354 148.457 122.544 148.457 121.608C148.457 120.696 148.643 119.898 149.015 119.214C149.399 118.53 149.921 117.996 150.581 117.612C151.253 117.216 152.015 117.018 152.867 117.018C153.491 117.018 154.049 117.12 154.541 117.324C155.045 117.528 155.471 117.822 155.819 118.206C156.179 118.59 156.449 119.058 156.629 119.61C156.821 120.15 156.917 120.762 156.917 121.446C156.917 121.662 156.839 121.83 156.683 121.95C156.539 122.058 156.329 122.112 156.053 122.112H150.275V120.816H155.333L155.045 121.086C155.045 120.534 154.961 120.072 154.793 119.7C154.637 119.328 154.403 119.046 154.091 118.854C153.791 118.65 153.413 118.548 152.957 118.548C152.453 118.548 152.021 118.668 151.661 118.908C151.313 119.136 151.043 119.466 150.851 119.898C150.671 120.318 150.581 120.822 150.581 121.41V121.536C150.581 122.52 150.809 123.258 151.265 123.75C151.733 124.23 152.417 124.47 153.317 124.47C153.629 124.47 153.977 124.434 154.361 124.362C154.757 124.278 155.129 124.14 155.477 123.948C155.729 123.804 155.951 123.744 156.143 123.768C156.335 123.78 156.485 123.846 156.593 123.966C156.713 124.086 156.785 124.236 156.809 124.416C156.833 124.584 156.797 124.758 156.701 124.938C156.617 125.118 156.467 125.274 156.251 125.406C155.831 125.67 155.345 125.868 154.793 126C154.253 126.12 153.749 126.18 153.281 126.18ZM159.851 126.144C159.479 126.144 159.191 126.048 158.987 125.856C158.795 125.652 158.699 125.364 158.699 124.992V118.188C158.699 117.816 158.795 117.534 158.987 117.342C159.179 117.15 159.449 117.054 159.797 117.054C160.145 117.054 160.415 117.15 160.607 117.342C160.799 117.534 160.895 117.816 160.895 118.188V119.322H160.715C160.883 118.602 161.213 118.056 161.705 117.684C162.197 117.312 162.851 117.09 163.667 117.018C163.919 116.994 164.117 117.06 164.261 117.216C164.417 117.36 164.507 117.588 164.531 117.9C164.555 118.2 164.483 118.446 164.315 118.638C164.159 118.818 163.919 118.926 163.595 118.962L163.199 118.998C162.467 119.07 161.915 119.298 161.543 119.682C161.171 120.054 160.985 120.582 160.985 121.266V124.992C160.985 125.364 160.889 125.652 160.697 125.856C160.505 126.048 160.223 126.144 159.851 126.144ZM169.676 126.18C168.752 126.18 167.948 125.994 167.264 125.622C166.58 125.238 166.052 124.698 165.68 124.002C165.308 123.306 165.122 122.49 165.122 121.554C165.122 120.846 165.224 120.216 165.428 119.664C165.644 119.1 165.95 118.626 166.346 118.242C166.742 117.846 167.222 117.546 167.786 117.342C168.35 117.126 168.98 117.018 169.676 117.018C170.072 117.018 170.498 117.072 170.954 117.18C171.422 117.288 171.86 117.468 172.268 117.72C172.46 117.84 172.586 117.984 172.646 118.152C172.706 118.32 172.718 118.494 172.682 118.674C172.646 118.842 172.568 118.992 172.448 119.124C172.34 119.244 172.202 119.322 172.034 119.358C171.866 119.382 171.68 119.34 171.476 119.232C171.212 119.076 170.942 118.962 170.666 118.89C170.39 118.806 170.126 118.764 169.874 118.764C169.478 118.764 169.13 118.83 168.83 118.962C168.53 119.082 168.272 119.262 168.056 119.502C167.852 119.73 167.696 120.018 167.588 120.366C167.48 120.714 167.426 121.116 167.426 121.572C167.426 122.46 167.636 123.162 168.056 123.678C168.488 124.182 169.094 124.434 169.874 124.434C170.126 124.434 170.384 124.398 170.648 124.326C170.924 124.254 171.2 124.14 171.476 123.984C171.68 123.876 171.86 123.84 172.016 123.876C172.184 123.912 172.322 123.996 172.43 124.128C172.538 124.248 172.604 124.398 172.628 124.578C172.652 124.746 172.628 124.914 172.556 125.082C172.496 125.25 172.376 125.388 172.196 125.496C171.8 125.736 171.38 125.91 170.936 126.018C170.492 126.126 170.072 126.18 169.676 126.18ZM175.214 126.126C174.854 126.126 174.578 126.018 174.386 125.802C174.194 125.586 174.098 125.286 174.098 124.902V118.296C174.098 117.9 174.194 117.6 174.386 117.396C174.578 117.18 174.854 117.072 175.214 117.072C175.574 117.072 175.85 117.18 176.042 117.396C176.246 117.6 176.348 117.9 176.348 118.296V124.902C176.348 125.286 176.252 125.586 176.06 125.802C175.868 126.018 175.586 126.126 175.214 126.126ZM175.214 115.398C174.794 115.398 174.464 115.296 174.224 115.092C173.996 114.876 173.882 114.582 173.882 114.21C173.882 113.826 173.996 113.532 174.224 113.328C174.464 113.124 174.794 113.022 175.214 113.022C175.646 113.022 175.976 113.124 176.204 113.328C176.432 113.532 176.546 113.826 176.546 114.21C176.546 114.582 176.432 114.876 176.204 115.092C175.976 115.296 175.646 115.398 175.214 115.398ZM181.584 126.18C180.948 126.18 180.378 126.06 179.874 125.82C179.382 125.568 178.992 125.232 178.704 124.812C178.428 124.392 178.29 123.918 178.29 123.39C178.29 122.742 178.458 122.232 178.794 121.86C179.13 121.476 179.676 121.2 180.432 121.032C181.188 120.864 182.202 120.78 183.474 120.78H184.374V122.076H183.492C182.748 122.076 182.154 122.112 181.71 122.184C181.266 122.256 180.948 122.382 180.756 122.562C180.576 122.73 180.486 122.97 180.486 123.282C180.486 123.678 180.624 124.002 180.9 124.254C181.176 124.506 181.56 124.632 182.052 124.632C182.448 124.632 182.796 124.542 183.096 124.362C183.408 124.17 183.654 123.912 183.834 123.588C184.014 123.264 184.104 122.892 184.104 122.472V120.402C184.104 119.802 183.972 119.37 183.708 119.106C183.444 118.842 183 118.71 182.376 118.71C182.028 118.71 181.65 118.752 181.242 118.836C180.846 118.92 180.426 119.064 179.982 119.268C179.754 119.376 179.55 119.406 179.37 119.358C179.202 119.31 179.07 119.214 178.974 119.07C178.878 118.914 178.83 118.746 178.83 118.566C178.83 118.386 178.878 118.212 178.974 118.044C179.07 117.864 179.232 117.732 179.46 117.648C180.012 117.42 180.54 117.258 181.044 117.162C181.56 117.066 182.028 117.018 182.448 117.018C183.312 117.018 184.02 117.15 184.572 117.414C185.136 117.678 185.556 118.08 185.832 118.62C186.108 119.148 186.246 119.832 186.246 120.672V124.992C186.246 125.364 186.156 125.652 185.976 125.856C185.796 126.048 185.538 126.144 185.202 126.144C184.866 126.144 184.602 126.048 184.41 125.856C184.23 125.652 184.14 125.364 184.14 124.992V124.128H184.284C184.2 124.548 184.032 124.914 183.78 125.226C183.54 125.526 183.234 125.76 182.862 125.928C182.49 126.096 182.064 126.18 181.584 126.18ZM189.681 126.144C189.309 126.144 189.021 126.048 188.817 125.856C188.625 125.652 188.529 125.364 188.529 124.992V118.188C188.529 117.816 188.625 117.534 188.817 117.342C189.009 117.15 189.279 117.054 189.627 117.054C189.975 117.054 190.245 117.15 190.437 117.342C190.629 117.534 190.725 117.816 190.725 118.188V119.322H190.545C190.713 118.602 191.043 118.056 191.535 117.684C192.027 117.312 192.681 117.09 193.497 117.018C193.749 116.994 193.947 117.06 194.091 117.216C194.247 117.36 194.337 117.588 194.361 117.9C194.385 118.2 194.313 118.446 194.145 118.638C193.989 118.818 193.749 118.926 193.425 118.962L193.029 118.998C192.297 119.07 191.745 119.298 191.373 119.682C191.001 120.054 190.815 120.582 190.815 121.266V124.992C190.815 125.364 190.719 125.652 190.527 125.856C190.335 126.048 190.053 126.144 189.681 126.144ZM196.694 126.126C196.334 126.126 196.058 126.018 195.866 125.802C195.674 125.586 195.578 125.286 195.578 124.902V118.296C195.578 117.9 195.674 117.6 195.866 117.396C196.058 117.18 196.334 117.072 196.694 117.072C197.054 117.072 197.33 117.18 197.522 117.396C197.726 117.6 197.828 117.9 197.828 118.296V124.902C197.828 125.286 197.732 125.586 197.54 125.802C197.348 126.018 197.066 126.126 196.694 126.126ZM196.694 115.398C196.274 115.398 195.944 115.296 195.704 115.092C195.476 114.876 195.362 114.582 195.362 114.21C195.362 113.826 195.476 113.532 195.704 113.328C195.944 113.124 196.274 113.022 196.694 113.022C197.126 113.022 197.456 113.124 197.684 113.328C197.912 113.532 198.026 113.826 198.026 114.21C198.026 114.582 197.912 114.876 197.684 115.092C197.456 115.296 197.126 115.398 196.694 115.398ZM204.18 126.18C203.268 126.18 202.476 125.994 201.804 125.622C201.132 125.25 200.61 124.722 200.238 124.038C199.866 123.342 199.68 122.526 199.68 121.59C199.68 120.882 199.782 120.252 199.986 119.7C200.202 119.136 200.508 118.656 200.904 118.26C201.3 117.852 201.774 117.546 202.326 117.342C202.878 117.126 203.496 117.018 204.18 117.018C205.092 117.018 205.884 117.204 206.556 117.576C207.228 117.948 207.75 118.476 208.122 119.16C208.494 119.844 208.68 120.654 208.68 121.59C208.68 122.298 208.572 122.934 208.356 123.498C208.152 124.062 207.852 124.548 207.456 124.956C207.06 125.352 206.586 125.658 206.034 125.874C205.482 126.078 204.864 126.18 204.18 126.18ZM204.18 124.47C204.624 124.47 205.014 124.362 205.35 124.146C205.686 123.93 205.944 123.612 206.124 123.192C206.316 122.76 206.412 122.226 206.412 121.59C206.412 120.63 206.208 119.916 205.8 119.448C205.392 118.968 204.852 118.728 204.18 118.728C203.736 118.728 203.346 118.836 203.01 119.052C202.674 119.256 202.41 119.574 202.218 120.006C202.038 120.426 201.948 120.954 201.948 121.59C201.948 122.538 202.152 123.258 202.56 123.75C202.968 124.23 203.508 124.47 204.18 124.47Z" fill="white"/>
</svg>
