<svg width="348" height="242" viewBox="0 0 348 242" fill="none" xmlns="http://www.w3.org/2000/svg">
<rect width="348" height="242" rx="8" fill="#F3F6F9"/>
<rect x="100" y="102" width="148" height="38" rx="7" stroke="#101E37" stroke-width="2"/>
<path d="M127 117.061V124.996C127 126.563 125.852 127.958 124.293 128.108C122.5 128.281 121 126.878 121 125.123V115.853C121 114.871 121.705 113.978 122.68 113.881C123.805 113.768 124.75 114.646 124.75 115.748V123.623C124.75 124.036 124.412 124.373 124 124.373C123.588 124.373 123.25 124.036 123.25 123.623V117.061C123.25 116.753 122.995 116.498 122.688 116.498C122.38 116.498 122.125 116.753 122.125 117.061V123.518C122.125 124.501 122.83 125.393 123.805 125.491C124.93 125.603 125.875 124.726 125.875 123.623V115.876C125.875 114.308 124.727 112.913 123.168 112.763C121.383 112.591 119.875 113.993 119.875 115.748V124.951C119.875 127.103 121.45 129.031 123.595 129.233C126.062 129.458 128.125 127.538 128.125 125.123V117.061C128.125 116.753 127.87 116.498 127.562 116.498C127.255 116.498 127 116.753 127 117.061Z" fill="#101E37"/>
<path d="M138.512 127.144C138.224 127.144 137.99 127.078 137.81 126.946C137.642 126.814 137.54 126.64 137.504 126.424C137.468 126.196 137.51 125.944 137.63 125.668L142.382 115.138C142.538 114.79 142.724 114.544 142.94 114.4C143.168 114.244 143.426 114.166 143.714 114.166C143.99 114.166 144.236 114.244 144.452 114.4C144.68 114.544 144.872 114.79 145.028 115.138L149.798 125.668C149.93 125.944 149.978 126.196 149.942 126.424C149.906 126.652 149.804 126.832 149.636 126.964C149.468 127.084 149.246 127.144 148.97 127.144C148.634 127.144 148.37 127.066 148.178 126.91C147.998 126.742 147.836 126.49 147.692 126.154L146.522 123.436L147.494 124.066H139.898L140.87 123.436L139.718 126.154C139.562 126.502 139.4 126.754 139.232 126.91C139.064 127.066 138.824 127.144 138.512 127.144ZM143.678 116.812L141.158 122.806L140.69 122.23H146.702L146.252 122.806L143.714 116.812H143.678ZM154.861 127.18C154.093 127.18 153.415 126.994 152.827 126.622C152.251 126.25 151.801 125.722 151.477 125.038C151.153 124.342 150.991 123.526 150.991 122.59C150.991 121.642 151.153 120.832 151.477 120.16C151.801 119.476 152.251 118.948 152.827 118.576C153.415 118.204 154.093 118.018 154.861 118.018C155.593 118.018 156.229 118.198 156.769 118.558C157.321 118.918 157.693 119.392 157.885 119.98H157.687V115.3C157.687 114.928 157.783 114.646 157.975 114.454C158.167 114.262 158.443 114.166 158.803 114.166C159.163 114.166 159.439 114.262 159.631 114.454C159.835 114.646 159.937 114.928 159.937 115.3V125.992C159.937 126.364 159.841 126.652 159.649 126.856C159.457 127.048 159.181 127.144 158.821 127.144C158.461 127.144 158.185 127.048 157.993 126.856C157.801 126.652 157.705 126.364 157.705 125.992V124.588L157.903 125.128C157.723 125.752 157.357 126.25 156.805 126.622C156.253 126.994 155.605 127.18 154.861 127.18ZM155.491 125.47C155.935 125.47 156.325 125.362 156.661 125.146C156.997 124.93 157.255 124.612 157.435 124.192C157.627 123.76 157.723 123.226 157.723 122.59C157.723 121.63 157.519 120.916 157.111 120.448C156.703 119.968 156.163 119.728 155.491 119.728C155.047 119.728 154.657 119.836 154.321 120.052C153.985 120.256 153.721 120.574 153.529 121.006C153.349 121.426 153.259 121.954 153.259 122.59C153.259 123.538 153.463 124.258 153.871 124.75C154.279 125.23 154.819 125.47 155.491 125.47ZM161.19 130.402C160.926 130.426 160.71 130.384 160.542 130.276C160.374 130.18 160.26 130.054 160.2 129.898C160.128 129.742 160.104 129.58 160.128 129.412C160.152 129.244 160.224 129.094 160.344 128.962C160.452 128.842 160.602 128.776 160.794 128.764C161.334 128.716 161.724 128.56 161.964 128.296C162.216 128.044 162.342 127.654 162.342 127.126V119.188C162.342 118.816 162.438 118.534 162.63 118.342C162.834 118.15 163.116 118.054 163.476 118.054C163.836 118.054 164.112 118.15 164.304 118.342C164.496 118.534 164.592 118.816 164.592 119.188V126.928C164.592 127.696 164.466 128.326 164.214 128.818C163.974 129.31 163.602 129.682 163.098 129.934C162.606 130.186 161.97 130.342 161.19 130.402ZM163.458 116.398C163.038 116.398 162.708 116.296 162.468 116.092C162.24 115.876 162.126 115.582 162.126 115.21C162.126 114.826 162.24 114.532 162.468 114.328C162.708 114.124 163.038 114.022 163.458 114.022C163.89 114.022 164.22 114.124 164.448 114.328C164.676 114.532 164.79 114.826 164.79 115.21C164.79 115.582 164.676 115.876 164.448 116.092C164.22 116.296 163.89 116.398 163.458 116.398ZM170.114 127.18C169.382 127.18 168.776 127.048 168.296 126.784C167.816 126.508 167.456 126.1 167.216 125.56C166.988 125.02 166.874 124.348 166.874 123.544V119.188C166.874 118.804 166.97 118.522 167.162 118.342C167.354 118.15 167.63 118.054 167.99 118.054C168.35 118.054 168.626 118.15 168.818 118.342C169.022 118.522 169.124 118.804 169.124 119.188V123.58C169.124 124.204 169.25 124.666 169.502 124.966C169.754 125.266 170.156 125.416 170.708 125.416C171.308 125.416 171.8 125.212 172.184 124.804C172.568 124.384 172.76 123.832 172.76 123.148V119.188C172.76 118.804 172.856 118.522 173.048 118.342C173.24 118.15 173.516 118.054 173.876 118.054C174.236 118.054 174.512 118.15 174.704 118.342C174.908 118.522 175.01 118.804 175.01 119.188V125.992C175.01 126.76 174.644 127.144 173.912 127.144C173.564 127.144 173.294 127.048 173.102 126.856C172.91 126.652 172.814 126.364 172.814 125.992V124.624L173.066 125.164C172.814 125.812 172.43 126.31 171.914 126.658C171.41 127.006 170.81 127.18 170.114 127.18ZM178.468 127.144C178.108 127.144 177.832 127.048 177.64 126.856C177.448 126.652 177.352 126.364 177.352 125.992V119.188C177.352 118.816 177.448 118.534 177.64 118.342C177.832 118.15 178.102 118.054 178.45 118.054C178.798 118.054 179.068 118.15 179.26 118.342C179.452 118.534 179.548 118.816 179.548 119.188V120.412L179.35 119.962C179.614 119.326 180.022 118.846 180.574 118.522C181.138 118.186 181.774 118.018 182.482 118.018C183.19 118.018 183.772 118.15 184.228 118.414C184.684 118.678 185.026 119.08 185.254 119.62C185.482 120.148 185.596 120.82 185.596 121.636V125.992C185.596 126.364 185.5 126.652 185.308 126.856C185.116 127.048 184.84 127.144 184.48 127.144C184.12 127.144 183.838 127.048 183.634 126.856C183.442 126.652 183.346 126.364 183.346 125.992V121.744C183.346 121.06 183.214 120.562 182.95 120.25C182.698 119.938 182.302 119.782 181.762 119.782C181.102 119.782 180.574 119.992 180.178 120.412C179.794 120.82 179.602 121.366 179.602 122.05V125.992C179.602 126.76 179.224 127.144 178.468 127.144ZM191.913 127.18C191.133 127.18 190.479 127.048 189.951 126.784C189.435 126.52 189.051 126.136 188.799 125.632C188.547 125.116 188.421 124.48 188.421 123.724V119.89H187.485C187.197 119.89 186.975 119.818 186.819 119.674C186.663 119.518 186.585 119.308 186.585 119.044C186.585 118.768 186.663 118.558 186.819 118.414C186.975 118.27 187.197 118.198 187.485 118.198H188.421V116.56C188.421 116.188 188.517 115.906 188.709 115.714C188.913 115.522 189.195 115.426 189.555 115.426C189.915 115.426 190.191 115.522 190.383 115.714C190.575 115.906 190.671 116.188 190.671 116.56V118.198H192.579C192.867 118.198 193.089 118.27 193.245 118.414C193.401 118.558 193.479 118.768 193.479 119.044C193.479 119.308 193.401 119.518 193.245 119.674C193.089 119.818 192.867 119.89 192.579 119.89H190.671V123.598C190.671 124.174 190.797 124.606 191.049 124.894C191.301 125.182 191.709 125.326 192.273 125.326C192.477 125.326 192.657 125.308 192.813 125.272C192.969 125.236 193.107 125.212 193.227 125.2C193.371 125.188 193.491 125.236 193.587 125.344C193.683 125.44 193.731 125.644 193.731 125.956C193.731 126.196 193.689 126.412 193.605 126.604C193.533 126.784 193.395 126.91 193.191 126.982C193.035 127.03 192.831 127.072 192.579 127.108C192.327 127.156 192.105 127.18 191.913 127.18ZM197.687 127.18C197.051 127.18 196.481 127.06 195.977 126.82C195.485 126.568 195.095 126.232 194.807 125.812C194.531 125.392 194.393 124.918 194.393 124.39C194.393 123.742 194.561 123.232 194.897 122.86C195.233 122.476 195.779 122.2 196.535 122.032C197.291 121.864 198.305 121.78 199.577 121.78H200.477V123.076H199.595C198.851 123.076 198.257 123.112 197.813 123.184C197.369 123.256 197.051 123.382 196.859 123.562C196.679 123.73 196.589 123.97 196.589 124.282C196.589 124.678 196.727 125.002 197.003 125.254C197.279 125.506 197.663 125.632 198.155 125.632C198.551 125.632 198.899 125.542 199.199 125.362C199.511 125.17 199.757 124.912 199.937 124.588C200.117 124.264 200.207 123.892 200.207 123.472V121.402C200.207 120.802 200.075 120.37 199.811 120.106C199.547 119.842 199.103 119.71 198.479 119.71C198.131 119.71 197.753 119.752 197.345 119.836C196.949 119.92 196.529 120.064 196.085 120.268C195.857 120.376 195.653 120.406 195.473 120.358C195.305 120.31 195.173 120.214 195.077 120.07C194.981 119.914 194.933 119.746 194.933 119.566C194.933 119.386 194.981 119.212 195.077 119.044C195.173 118.864 195.335 118.732 195.563 118.648C196.115 118.42 196.643 118.258 197.147 118.162C197.663 118.066 198.131 118.018 198.551 118.018C199.415 118.018 200.123 118.15 200.675 118.414C201.239 118.678 201.659 119.08 201.935 119.62C202.211 120.148 202.349 120.832 202.349 121.672V125.992C202.349 126.364 202.259 126.652 202.079 126.856C201.899 127.048 201.641 127.144 201.305 127.144C200.969 127.144 200.705 127.048 200.513 126.856C200.333 126.652 200.243 126.364 200.243 125.992V125.128H200.387C200.303 125.548 200.135 125.914 199.883 126.226C199.643 126.526 199.337 126.76 198.965 126.928C198.593 127.096 198.167 127.18 197.687 127.18ZM205.785 127.144C205.413 127.144 205.125 127.048 204.921 126.856C204.729 126.652 204.633 126.364 204.633 125.992V119.188C204.633 118.816 204.729 118.534 204.921 118.342C205.113 118.15 205.383 118.054 205.731 118.054C206.079 118.054 206.349 118.15 206.541 118.342C206.733 118.534 206.829 118.816 206.829 119.188V120.322H206.649C206.817 119.602 207.147 119.056 207.639 118.684C208.131 118.312 208.785 118.09 209.601 118.018C209.853 117.994 210.051 118.06 210.195 118.216C210.351 118.36 210.441 118.588 210.465 118.9C210.489 119.2 210.417 119.446 210.249 119.638C210.093 119.818 209.853 119.926 209.529 119.962L209.133 119.998C208.401 120.07 207.849 120.298 207.477 120.682C207.105 121.054 206.919 121.582 206.919 122.266V125.992C206.919 126.364 206.823 126.652 206.631 126.856C206.439 127.048 206.157 127.144 205.785 127.144Z" fill="#101E37"/>
<path d="M218.907 121.75H227.284L223.624 125.41C223.332 125.703 223.332 126.183 223.624 126.475C223.917 126.768 224.389 126.768 224.682 126.475L229.624 121.533C229.917 121.24 229.917 120.768 229.624 120.475L224.689 115.525C224.397 115.233 223.924 115.233 223.632 115.525C223.339 115.818 223.339 116.29 223.632 116.583L227.284 120.25H218.907C218.494 120.25 218.157 120.588 218.157 121C218.157 121.413 218.494 121.75 218.907 121.75Z" fill="#101E37"/>
</svg>
