<svg width="728" height="348" viewBox="0 0 728 348" fill="none" xmlns="http://www.w3.org/2000/svg">
<rect y="0.0742188" width="728" height="347.494" rx="8" fill="#F3F6F9"/>
<g clip-path="url(#clip0_26196_8371)">
<mask id="path-2-outside-1_26196_8371" maskUnits="userSpaceOnUse" x="81.291" y="59.0742" width="169" height="174" fill="black">
<rect fill="white" x="81.291" y="59.0742" width="169" height="174"/>
<path d="M82.291 68.0742C82.291 63.6559 85.8727 60.0742 90.291 60.0742H240.763C245.181 60.0742 248.763 63.6559 248.763 68.0742V223.569C248.763 227.987 245.181 231.569 240.763 231.569H90.291C85.8727 231.569 82.291 227.987 82.291 223.569V68.0742Z"/>
</mask>
<path d="M82.291 68.0742C82.291 63.6559 85.8727 60.0742 90.291 60.0742H240.763C245.181 60.0742 248.763 63.6559 248.763 68.0742V223.569C248.763 227.987 245.181 231.569 240.763 231.569H90.291C85.8727 231.569 82.291 227.987 82.291 223.569V68.0742Z" fill="white"/>
<rect x="82.291" y="60.0742" width="166.472" height="105.279" fill="#EBADAD"/>
<rect width="166.472" height="66.2156" transform="translate(82.291 165.353)" fill="white"/>
<path d="M99.8323 193.145C99.5515 193.145 99.3454 193.083 99.2138 192.961C99.091 192.829 99.0295 192.64 99.0295 192.395C99.0295 192.246 99.069 192.101 99.148 191.96C99.2269 191.82 99.341 191.671 99.4901 191.513L102.135 188.697C102.539 188.276 102.828 187.894 103.004 187.552C103.179 187.201 103.267 186.85 103.267 186.499C103.267 186.06 103.127 185.727 102.846 185.499C102.574 185.271 102.175 185.157 101.648 185.157C101.35 185.157 101.052 185.201 100.753 185.288C100.455 185.367 100.153 185.508 99.8455 185.709C99.6875 185.815 99.5384 185.859 99.398 185.841C99.2664 185.824 99.148 185.766 99.0427 185.67C98.9462 185.573 98.8804 185.455 98.8453 185.315C98.8102 185.174 98.8146 185.034 98.8585 184.894C98.9111 184.744 99.0164 184.617 99.1743 184.512C99.5515 184.257 99.9727 184.064 100.438 183.933C100.911 183.801 101.385 183.735 101.859 183.735C102.526 183.735 103.087 183.836 103.543 184.038C104 184.24 104.346 184.534 104.583 184.92C104.82 185.306 104.938 185.775 104.938 186.328C104.938 186.696 104.877 187.056 104.754 187.407C104.64 187.758 104.46 188.113 104.215 188.473C103.978 188.833 103.666 189.214 103.28 189.618L100.806 192.197V191.75H104.675C104.912 191.75 105.092 191.807 105.215 191.921C105.337 192.035 105.399 192.206 105.399 192.434C105.399 192.662 105.337 192.838 105.215 192.961C105.092 193.083 104.912 193.145 104.675 193.145H99.8323ZM109.921 193.276C108.824 193.276 107.986 192.864 107.407 192.039C106.828 191.206 106.539 190.022 106.539 188.486C106.539 187.451 106.666 186.582 106.92 185.881C107.184 185.17 107.565 184.635 108.065 184.275C108.574 183.915 109.193 183.735 109.921 183.735C111.026 183.735 111.864 184.139 112.434 184.946C113.013 185.753 113.303 186.929 113.303 188.473C113.303 189.499 113.171 190.372 112.908 191.092C112.654 191.802 112.276 192.346 111.776 192.724C111.276 193.092 110.658 193.276 109.921 193.276ZM109.921 191.895C110.517 191.895 110.956 191.618 111.237 191.066C111.526 190.513 111.671 189.649 111.671 188.473C111.671 187.297 111.526 186.446 111.237 185.92C110.956 185.385 110.517 185.117 109.921 185.117C109.333 185.117 108.894 185.385 108.605 185.92C108.315 186.446 108.17 187.297 108.17 188.473C108.17 189.649 108.315 190.513 108.605 191.066C108.894 191.618 109.333 191.895 109.921 191.895ZM117.812 193.276C116.715 193.276 115.877 192.864 115.298 192.039C114.719 191.206 114.429 190.022 114.429 188.486C114.429 187.451 114.557 186.582 114.811 185.881C115.074 185.17 115.456 184.635 115.956 184.275C116.465 183.915 117.083 183.735 117.812 183.735C118.917 183.735 119.755 184.139 120.325 184.946C120.904 185.753 121.194 186.929 121.194 188.473C121.194 189.499 121.062 190.372 120.799 191.092C120.544 191.802 120.167 192.346 119.667 192.724C119.167 193.092 118.548 193.276 117.812 193.276ZM117.812 191.895C118.408 191.895 118.847 191.618 119.128 191.066C119.417 190.513 119.562 189.649 119.562 188.473C119.562 187.297 119.417 186.446 119.128 185.92C118.847 185.385 118.408 185.117 117.812 185.117C117.224 185.117 116.785 185.385 116.496 185.92C116.206 186.446 116.061 187.297 116.061 188.473C116.061 189.649 116.206 190.513 116.496 191.066C116.785 191.618 117.224 191.895 117.812 191.895Z" fill="#101E37"/>
<path d="M103.12 207.155L102.786 208.903H104.24V209.556H102.657L102.22 211.777H101.526L101.963 209.556H100.395L99.9738 211.777H99.2901L99.6962 209.556H98.3493V208.903H99.8247L100.169 207.155H98.74V206.513H100.287L100.714 204.261H101.418L100.992 206.513H102.57L102.996 204.261H103.675L103.248 206.513H104.611V207.155H103.12ZM100.519 208.903H102.087L102.426 207.155H100.858L100.519 208.903ZM110.101 211.777H105.916V204.261H110.101V205.032H106.79V207.464H109.91V208.225H106.79V211.006H110.101V211.777ZM111.766 204.261H113.894C114.833 204.261 115.539 204.402 116.012 204.683C116.485 204.964 116.722 205.442 116.722 206.117C116.722 206.408 116.665 206.671 116.552 206.904C116.442 207.133 116.281 207.323 116.069 207.474C115.856 207.625 115.594 207.73 115.282 207.788V207.839C115.611 207.891 115.903 207.985 116.156 208.122C116.41 208.259 116.609 208.451 116.753 208.698C116.897 208.944 116.968 209.258 116.968 209.638C116.968 210.101 116.861 210.492 116.645 210.81C116.432 211.129 116.131 211.371 115.74 211.535C115.349 211.696 114.887 211.777 114.352 211.777H111.766V204.261ZM112.64 207.484H114.079C114.734 207.484 115.186 207.377 115.437 207.161C115.69 206.945 115.817 206.629 115.817 206.215C115.817 205.786 115.666 205.478 115.365 205.289C115.066 205.101 114.59 205.007 113.936 205.007H112.64V207.484ZM112.64 208.22V211.031H114.203C114.871 211.031 115.344 210.901 115.622 210.641C115.899 210.377 116.038 210.022 116.038 209.577C116.038 209.292 115.975 209.049 115.848 208.847C115.724 208.645 115.522 208.49 115.241 208.384C114.964 208.274 114.592 208.22 114.126 208.22H112.64ZM123.286 211.777L122.361 209.392H119.349L118.428 211.777H117.544L120.485 204.231H121.271L124.191 211.777H123.286ZM122.099 208.615L121.22 206.246C121.199 206.184 121.165 206.083 121.117 205.942C121.072 205.802 121.026 205.656 120.978 205.505C120.93 205.355 120.891 205.233 120.86 205.14C120.826 205.281 120.788 205.421 120.747 205.562C120.709 205.699 120.671 205.828 120.634 205.947C120.596 206.064 120.563 206.163 120.536 206.246L119.642 208.615H122.099ZM131.203 207.947C131.203 208.794 131.048 209.501 130.74 210.07C130.432 210.636 129.984 211.062 129.398 211.35C128.816 211.635 128.108 211.777 127.275 211.777H125.235V204.261H127.501C128.266 204.261 128.924 204.402 129.475 204.683C130.027 204.96 130.452 205.373 130.75 205.922C131.052 206.467 131.203 207.142 131.203 207.947ZM130.283 207.978C130.283 207.303 130.169 206.746 129.943 206.307C129.721 205.869 129.392 205.543 128.956 205.331C128.524 205.115 127.995 205.007 127.368 205.007H126.108V211.026H127.172C128.207 211.026 128.984 210.771 129.501 210.26C130.022 209.75 130.283 208.989 130.283 207.978ZM137.587 211.777L136.662 209.392H133.65L132.729 211.777H131.845L134.786 204.231H135.572L138.492 211.777H137.587ZM136.4 208.615L135.521 206.246C135.5 206.184 135.466 206.083 135.418 205.942C135.373 205.802 135.327 205.656 135.279 205.505C135.231 205.355 135.192 205.233 135.161 205.14C135.127 205.281 135.089 205.421 135.048 205.562C135.01 205.699 134.972 205.828 134.935 205.947C134.897 206.064 134.865 206.163 134.837 206.246L133.943 208.615H136.4ZM145.504 207.947C145.504 208.794 145.35 209.501 145.041 210.07C144.733 210.636 144.285 211.062 143.699 211.35C143.117 211.635 142.409 211.777 141.576 211.777H139.536V204.261H141.803C142.567 204.261 143.225 204.402 143.777 204.683C144.328 204.96 144.753 205.373 145.051 205.922C145.353 206.467 145.504 207.142 145.504 207.947ZM144.584 207.978C144.584 207.303 144.471 206.746 144.244 206.307C144.022 205.869 143.693 205.543 143.257 205.331C142.826 205.115 142.296 205.007 141.669 205.007H140.409V211.026H141.474C142.509 211.026 143.285 210.771 143.802 210.26C144.323 209.75 144.584 208.989 144.584 207.978Z" fill="#101E37"/>
<rect x="135.857" y="101.64" width="58.8145" height="22.3414" rx="7.38037" stroke="#101E37" stroke-width="0.868279"/>
<path d="M146.394 116.811L145.325 114.057H141.847L140.785 116.811H139.764L143.159 108.097H144.067L147.438 116.811H146.394ZM145.023 113.16L144.008 110.424C143.984 110.353 143.944 110.236 143.889 110.074C143.837 109.912 143.784 109.744 143.729 109.569C143.673 109.395 143.628 109.255 143.592 109.148C143.552 109.31 143.509 109.473 143.461 109.635C143.418 109.793 143.374 109.941 143.331 110.08C143.287 110.214 143.25 110.329 143.218 110.424L142.185 113.16H145.023ZM154.086 116.811L153.018 114.057H149.539L148.477 116.811H147.456L150.851 108.097H151.759L155.131 116.811H154.086ZM152.715 113.16L151.7 110.424C151.676 110.353 151.637 110.236 151.581 110.074C151.53 109.912 151.476 109.744 151.421 109.569C151.366 109.395 151.32 109.255 151.284 109.148C151.245 109.31 151.201 109.473 151.154 109.635C151.11 109.793 151.067 109.941 151.023 110.08C150.98 110.214 150.942 110.329 150.911 110.424L149.878 113.16H152.715ZM161.778 116.811L160.71 114.057H157.232L156.169 116.811H155.148L158.544 108.097H159.452L162.823 116.811H161.778ZM160.407 113.16L159.392 110.424C159.369 110.353 159.329 110.236 159.274 110.074C159.222 109.912 159.169 109.744 159.113 109.569C159.058 109.395 159.012 109.255 158.977 109.148C158.937 109.31 158.894 109.473 158.846 109.635C158.803 109.793 158.759 109.941 158.716 110.08C158.672 110.214 158.635 110.329 158.603 110.424L157.57 113.16H160.407ZM169.465 108.008C169.967 108.008 170.413 108.088 170.8 108.246C171.188 108.404 171.491 108.638 171.709 108.946C171.93 109.251 172.041 109.627 172.041 110.074C172.041 110.426 171.964 110.735 171.809 111C171.659 111.261 171.455 111.491 171.198 111.688C170.941 111.882 170.656 112.056 170.343 112.211C170.715 112.381 171.05 112.573 171.346 112.787C171.647 113 171.885 113.251 172.059 113.54C172.233 113.829 172.32 114.171 172.32 114.567C172.32 115.054 172.201 115.475 171.964 115.831C171.73 116.184 171.402 116.455 170.978 116.645C170.555 116.835 170.058 116.93 169.489 116.93C168.875 116.93 168.353 116.838 167.922 116.656C167.494 116.47 167.168 116.205 166.942 115.861C166.721 115.513 166.61 115.095 166.61 114.609C166.61 114.209 166.695 113.863 166.865 113.57C167.035 113.273 167.261 113.018 167.542 112.804C167.823 112.591 168.129 112.411 168.462 112.264C168.173 112.106 167.908 111.926 167.666 111.724C167.429 111.522 167.239 111.287 167.097 111.018C166.958 110.745 166.889 110.428 166.889 110.068C166.889 109.629 167 109.257 167.221 108.952C167.447 108.644 167.754 108.41 168.141 108.252C168.533 108.09 168.974 108.008 169.465 108.008ZM167.577 114.615C167.577 115.058 167.734 115.424 168.046 115.713C168.359 115.998 168.832 116.14 169.465 116.14C170.066 116.14 170.531 115.998 170.86 115.713C171.188 115.424 171.352 115.046 171.352 114.579C171.352 114.29 171.277 114.037 171.127 113.819C170.976 113.598 170.763 113.4 170.486 113.226C170.209 113.052 169.882 112.893 169.506 112.751L169.293 112.674C168.929 112.824 168.618 112.992 168.361 113.178C168.108 113.36 167.914 113.568 167.779 113.801C167.645 114.035 167.577 114.306 167.577 114.615ZM169.453 108.816C168.986 108.816 168.604 108.928 168.307 109.154C168.011 109.376 167.862 109.696 167.862 110.116C167.862 110.416 167.934 110.672 168.076 110.881C168.222 111.087 168.42 111.265 168.67 111.415C168.919 111.562 169.198 111.698 169.506 111.825C169.807 111.698 170.074 111.56 170.308 111.409C170.541 111.255 170.725 111.073 170.86 110.863C170.994 110.654 171.062 110.402 171.062 110.11C171.062 109.69 170.913 109.37 170.616 109.148C170.324 108.926 169.936 108.816 169.453 108.816ZM173.845 116.193C173.845 115.917 173.913 115.721 174.047 115.606C174.182 115.487 174.346 115.428 174.54 115.428C174.742 115.428 174.912 115.487 175.05 115.606C175.189 115.721 175.258 115.917 175.258 116.193C175.258 116.467 175.189 116.666 175.05 116.793C174.912 116.916 174.742 116.977 174.54 116.977C174.346 116.977 174.182 116.916 174.047 116.793C173.913 116.666 173.845 116.467 173.845 116.193ZM177.87 116.811L181.431 109.035H176.7V108.133H182.487V108.893L178.95 116.811H177.87ZM189.402 111.831C189.402 112.357 189.365 112.87 189.289 113.368C189.218 113.867 189.094 114.332 188.916 114.763C188.741 115.194 188.504 115.572 188.203 115.897C187.903 116.221 187.525 116.476 187.07 116.662C186.619 116.844 186.078 116.935 185.449 116.935C185.279 116.935 185.085 116.924 184.868 116.9C184.65 116.88 184.472 116.85 184.333 116.811V115.956C184.48 116.008 184.652 116.049 184.85 116.081C185.048 116.108 185.241 116.122 185.431 116.122C186.171 116.122 186.753 115.964 187.176 115.647C187.6 115.327 187.905 114.894 188.091 114.348C188.276 113.798 188.381 113.18 188.405 112.496H188.334C188.215 112.686 188.059 112.862 187.865 113.024C187.675 113.182 187.444 113.311 187.171 113.41C186.897 113.505 186.579 113.552 186.215 113.552C185.712 113.552 185.273 113.449 184.897 113.244C184.525 113.038 184.234 112.739 184.025 112.347C183.819 111.956 183.716 111.483 183.716 110.929C183.716 110.331 183.829 109.815 184.054 109.38C184.284 108.94 184.604 108.602 185.016 108.365C185.427 108.127 185.912 108.008 186.47 108.008C186.897 108.008 187.289 108.09 187.645 108.252C188.001 108.414 188.31 108.657 188.571 108.982C188.836 109.302 189.04 109.7 189.183 110.175C189.329 110.65 189.402 111.202 189.402 111.831ZM186.47 108.845C185.944 108.845 185.516 109.017 185.188 109.362C184.864 109.706 184.701 110.224 184.701 110.917C184.701 111.491 184.842 111.944 185.123 112.276C185.404 112.608 185.837 112.775 186.423 112.775C186.826 112.775 187.174 112.694 187.467 112.531C187.764 112.369 187.992 112.163 188.15 111.914C188.312 111.665 188.393 111.409 188.393 111.148C188.393 110.887 188.354 110.622 188.275 110.353C188.199 110.084 188.083 109.837 187.924 109.611C187.766 109.382 187.566 109.198 187.325 109.059C187.083 108.917 186.799 108.845 186.47 108.845Z" fill="#101E37"/>
</g>
<path d="M90.291 61.0742H240.763V59.0742H90.291V61.0742ZM247.763 68.0742V223.569H249.763V68.0742H247.763ZM240.763 230.569H90.291V232.569H240.763V230.569ZM83.291 223.569V68.0742H81.291V223.569H83.291ZM90.291 230.569C86.425 230.569 83.291 227.435 83.291 223.569H81.291C81.291 228.539 85.3204 232.569 90.291 232.569V230.569ZM247.763 223.569C247.763 227.435 244.629 230.569 240.763 230.569V232.569C245.734 232.569 249.763 228.539 249.763 223.569H247.763ZM240.763 61.0742C244.629 61.0742 247.763 64.2082 247.763 68.0742H249.763C249.763 63.1037 245.734 59.0742 240.763 59.0742V61.0742ZM90.291 59.0742C85.3205 59.0742 81.291 63.1036 81.291 68.0742H83.291C83.291 64.2082 86.425 61.0742 90.291 61.0742V59.0742Z" fill="#101E37" mask="url(#path-2-outside-1_26196_8371)"/>
<path d="M97.621 260.798L94.7293 257.906C94.4043 257.581 93.8793 257.581 93.5543 257.906C93.2293 258.231 93.2293 258.756 93.5543 259.081L97.0376 262.565C97.3626 262.89 97.8876 262.89 98.2126 262.565L107.029 253.748C107.354 253.423 107.354 252.898 107.029 252.573C106.704 252.248 106.179 252.248 105.854 252.573L97.621 260.798Z" fill="#26874A"/>
<path d="M118.509 252.574C119.799 252.574 120.74 252.839 121.332 253.367C121.924 253.896 122.221 254.637 122.221 255.589C122.221 256.022 122.152 256.434 122.016 256.826C121.883 257.214 121.665 257.558 121.359 257.859C121.054 258.155 120.651 258.39 120.149 258.563C119.653 258.736 119.04 258.823 118.311 258.823H117.244V262.569H115.604V252.574H118.509ZM118.399 253.935H117.244V257.455H118.14C118.655 257.455 119.092 257.396 119.452 257.278C119.812 257.155 120.086 256.961 120.272 256.697C120.459 256.432 120.553 256.084 120.553 255.651C120.553 255.072 120.377 254.641 120.026 254.359C119.68 254.076 119.138 253.935 118.399 253.935ZM127.02 254.858C127.977 254.858 128.699 255.07 129.187 255.493C129.679 255.917 129.925 256.578 129.925 257.476V262.569H128.783L128.476 261.495H128.421C128.207 261.769 127.986 261.994 127.758 262.172C127.53 262.35 127.266 262.482 126.965 262.569C126.669 262.66 126.306 262.705 125.878 262.705C125.427 262.705 125.023 262.623 124.668 262.459C124.312 262.291 124.032 262.035 123.827 261.694C123.622 261.352 123.52 260.919 123.52 260.395C123.52 259.615 123.809 259.03 124.388 258.638C124.971 258.246 125.851 258.03 127.026 257.989L128.339 257.941V257.544C128.339 257.02 128.216 256.646 127.97 256.423C127.728 256.2 127.386 256.088 126.944 256.088C126.566 256.088 126.199 256.143 125.844 256.252C125.488 256.362 125.142 256.496 124.805 256.656L124.285 255.521C124.654 255.325 125.074 255.165 125.543 255.042C126.017 254.919 126.509 254.858 127.02 254.858ZM128.332 258.952L127.354 258.987C126.552 259.014 125.99 259.151 125.666 259.397C125.342 259.643 125.181 259.98 125.181 260.408C125.181 260.782 125.292 261.056 125.516 261.229C125.739 261.397 126.033 261.482 126.397 261.482C126.953 261.482 127.414 261.324 127.778 261.01C128.147 260.691 128.332 260.224 128.332 259.609V258.952ZM137.26 260.408C137.26 260.905 137.139 261.324 136.897 261.666C136.656 262.008 136.303 262.268 135.838 262.446C135.378 262.619 134.812 262.705 134.143 262.705C133.614 262.705 133.158 262.667 132.775 262.589C132.397 262.516 132.039 262.402 131.702 262.247V260.86C132.062 261.028 132.465 261.174 132.912 261.297C133.363 261.42 133.789 261.482 134.19 261.482C134.719 261.482 135.1 261.4 135.332 261.236C135.564 261.067 135.681 260.844 135.681 260.566C135.681 260.402 135.633 260.256 135.537 260.128C135.446 259.996 135.273 259.862 135.018 259.725C134.767 259.584 134.398 259.415 133.91 259.219C133.432 259.028 133.028 258.836 132.7 258.645C132.372 258.453 132.124 258.223 131.955 257.954C131.786 257.681 131.702 257.332 131.702 256.908C131.702 256.239 131.966 255.73 132.495 255.384C133.028 255.033 133.732 254.858 134.607 254.858C135.072 254.858 135.51 254.906 135.92 255.001C136.335 255.092 136.74 255.227 137.137 255.405L136.631 256.615C136.289 256.464 135.945 256.341 135.599 256.245C135.257 256.145 134.908 256.095 134.553 256.095C134.138 256.095 133.821 256.159 133.603 256.286C133.388 256.414 133.281 256.596 133.281 256.833C133.281 257.011 133.334 257.161 133.438 257.284C133.543 257.407 133.723 257.531 133.979 257.654C134.238 257.777 134.598 257.929 135.059 258.112C135.51 258.285 135.899 258.467 136.228 258.658C136.56 258.845 136.815 259.075 136.993 259.349C137.171 259.622 137.26 259.976 137.26 260.408ZM141.963 254.858C142.92 254.858 143.642 255.07 144.13 255.493C144.622 255.917 144.868 256.578 144.868 257.476V262.569H143.727L143.419 261.495H143.364C143.15 261.769 142.929 261.994 142.701 262.172C142.473 262.35 142.209 262.482 141.908 262.569C141.612 262.66 141.25 262.705 140.821 262.705C140.37 262.705 139.967 262.623 139.611 262.459C139.256 262.291 138.976 262.035 138.771 261.694C138.565 261.352 138.463 260.919 138.463 260.395C138.463 259.615 138.752 259.03 139.331 258.638C139.914 258.246 140.794 258.03 141.97 257.989L143.282 257.941V257.544C143.282 257.02 143.159 256.646 142.913 256.423C142.672 256.2 142.33 256.088 141.888 256.088C141.509 256.088 141.143 256.143 140.787 256.252C140.432 256.362 140.085 256.496 139.748 256.656L139.229 255.521C139.598 255.325 140.017 255.165 140.486 255.042C140.96 254.919 141.452 254.858 141.963 254.858ZM143.275 258.952L142.298 258.987C141.496 259.014 140.933 259.151 140.609 259.397C140.286 259.643 140.124 259.98 140.124 260.408C140.124 260.782 140.236 261.056 140.459 261.229C140.682 261.397 140.976 261.482 141.341 261.482C141.897 261.482 142.357 261.324 142.722 261.01C143.091 260.691 143.275 260.224 143.275 259.609V258.952ZM157.111 262.569L156.134 259.793H152.312L151.335 262.569H149.605L153.324 252.533H155.143L158.854 262.569H157.111ZM155.71 258.385L154.76 255.651C154.723 255.532 154.671 255.366 154.603 255.152C154.534 254.933 154.466 254.712 154.397 254.489C154.329 254.261 154.272 254.069 154.227 253.914C154.181 254.101 154.124 254.311 154.056 254.543C153.992 254.771 153.928 254.985 153.864 255.186C153.805 255.386 153.759 255.541 153.728 255.651L152.771 258.385H155.71ZM166.367 262.569L165.39 259.793H161.568L160.591 262.569H158.861L162.58 252.533H164.398L168.11 262.569H166.367ZM164.966 258.385L164.016 255.651C163.979 255.532 163.927 255.366 163.858 255.152C163.79 254.933 163.722 254.712 163.653 254.489C163.585 254.261 163.528 254.069 163.482 253.914C163.437 254.101 163.38 254.311 163.312 254.543C163.248 254.771 163.184 254.985 163.12 255.186C163.061 255.386 163.015 255.541 162.983 255.651L162.026 258.385H164.966ZM175.623 262.569L174.646 259.793H170.824L169.847 262.569H168.117L171.836 252.533H173.654L177.366 262.569H175.623ZM174.222 258.385L173.271 255.651C173.235 255.532 173.183 255.366 173.114 255.152C173.046 254.933 172.978 254.712 172.909 254.489C172.841 254.261 172.784 254.069 172.738 253.914C172.693 254.101 172.636 254.311 172.567 254.543C172.504 254.771 172.44 254.985 172.376 255.186C172.317 255.386 172.271 255.541 172.239 255.651L171.282 258.385H174.222ZM114.852 278.734C114.852 277.963 114.924 277.214 115.07 276.485C115.221 275.755 115.449 275.06 115.754 274.4C116.059 273.739 116.444 273.13 116.909 272.574H117.996C117.335 273.44 116.839 274.402 116.506 275.459C116.173 276.517 116.007 277.603 116.007 278.72C116.007 279.449 116.08 280.169 116.226 280.88C116.376 281.587 116.597 282.268 116.889 282.924C117.185 283.58 117.549 284.2 117.982 284.783H116.909C116.444 284.237 116.059 283.64 115.754 282.992C115.449 282.35 115.221 281.669 115.07 280.948C114.924 280.228 114.852 279.49 114.852 278.734ZM123.021 274.94C123.171 274.94 123.328 274.949 123.492 274.967C123.656 274.981 123.802 275.001 123.93 275.029L123.786 276.081C123.663 276.049 123.526 276.024 123.376 276.006C123.226 275.988 123.084 275.979 122.952 275.979C122.651 275.979 122.367 276.04 122.098 276.163C121.833 276.282 121.601 276.455 121.4 276.683C121.2 276.906 121.043 277.177 120.929 277.496C120.815 277.811 120.758 278.162 120.758 278.549V282.569H119.616V275.076H120.56L120.683 276.457H120.73C120.885 276.179 121.072 275.926 121.291 275.698C121.51 275.466 121.763 275.281 122.05 275.145C122.341 275.008 122.665 274.94 123.021 274.94ZM128.229 274.94C128.868 274.94 129.414 275.081 129.87 275.364C130.326 275.646 130.674 276.043 130.916 276.553C131.158 277.059 131.278 277.651 131.278 278.33V279.034H126.104C126.117 279.914 126.336 280.584 126.76 281.044C127.184 281.504 127.781 281.735 128.551 281.735C129.025 281.735 129.444 281.691 129.809 281.605C130.173 281.518 130.551 281.391 130.943 281.222V282.22C130.565 282.389 130.189 282.512 129.815 282.589C129.446 282.667 129.009 282.705 128.503 282.705C127.783 282.705 127.154 282.559 126.616 282.268C126.083 281.972 125.668 281.539 125.372 280.969C125.076 280.399 124.928 279.702 124.928 278.877C124.928 278.071 125.062 277.373 125.331 276.785C125.604 276.193 125.987 275.737 126.479 275.418C126.976 275.099 127.56 274.94 128.229 274.94ZM128.216 275.869C127.61 275.869 127.127 276.068 126.767 276.464C126.407 276.861 126.192 277.414 126.124 278.125H130.089C130.084 277.679 130.014 277.287 129.877 276.949C129.745 276.608 129.542 276.343 129.269 276.156C128.995 275.965 128.644 275.869 128.216 275.869ZM136.207 282.705C135.533 282.705 134.938 282.566 134.423 282.288C133.908 282.01 133.507 281.587 133.22 281.017C132.933 280.447 132.789 279.729 132.789 278.864C132.789 277.957 132.939 277.216 133.24 276.642C133.546 276.063 133.965 275.635 134.498 275.357C135.031 275.079 135.637 274.94 136.316 274.94C136.69 274.94 137.05 274.978 137.396 275.056C137.747 275.129 138.035 275.222 138.258 275.336L137.916 276.286C137.688 276.195 137.424 276.113 137.123 276.04C136.827 275.967 136.549 275.931 136.289 275.931C135.77 275.931 135.337 276.043 134.99 276.266C134.648 276.489 134.391 276.817 134.218 277.25C134.049 277.683 133.965 278.216 133.965 278.85C133.965 279.456 134.047 279.973 134.211 280.402C134.38 280.83 134.628 281.158 134.956 281.386C135.289 281.609 135.703 281.721 136.2 281.721C136.597 281.721 136.954 281.68 137.273 281.598C137.592 281.511 137.882 281.411 138.142 281.297V282.309C137.891 282.436 137.611 282.534 137.301 282.603C136.995 282.671 136.631 282.705 136.207 282.705ZM146.379 278.809C146.379 279.424 146.299 279.973 146.14 280.456C145.98 280.939 145.75 281.347 145.449 281.68C145.148 282.013 144.784 282.268 144.355 282.446C143.932 282.619 143.451 282.705 142.913 282.705C142.412 282.705 141.951 282.619 141.532 282.446C141.118 282.268 140.757 282.013 140.452 281.68C140.151 281.347 139.917 280.939 139.748 280.456C139.584 279.973 139.502 279.424 139.502 278.809C139.502 277.989 139.641 277.291 139.919 276.717C140.197 276.138 140.593 275.698 141.108 275.398C141.628 275.092 142.245 274.94 142.961 274.94C143.645 274.94 144.242 275.092 144.752 275.398C145.267 275.703 145.666 276.145 145.948 276.724C146.235 277.298 146.379 277.993 146.379 278.809ZM140.678 278.809C140.678 279.41 140.757 279.932 140.917 280.374C141.076 280.816 141.323 281.158 141.655 281.4C141.988 281.641 142.416 281.762 142.94 281.762C143.46 281.762 143.886 281.641 144.219 281.4C144.556 281.158 144.804 280.816 144.964 280.374C145.123 279.932 145.203 279.41 145.203 278.809C145.203 278.212 145.123 277.697 144.964 277.264C144.804 276.826 144.558 276.489 144.226 276.252C143.893 276.015 143.462 275.897 142.934 275.897C142.154 275.897 141.582 276.154 141.218 276.669C140.858 277.184 140.678 277.897 140.678 278.809ZM156.476 274.94C157.3 274.94 157.923 275.156 158.342 275.589C158.761 276.017 158.971 276.708 158.971 277.66V282.569H157.85V277.715C157.85 277.109 157.717 276.656 157.453 276.355C157.193 276.049 156.806 275.897 156.291 275.897C155.566 275.897 155.04 276.106 154.712 276.526C154.384 276.945 154.22 277.562 154.22 278.378V282.569H153.092V277.715C153.092 277.309 153.033 276.972 152.914 276.703C152.8 276.434 152.627 276.234 152.395 276.102C152.167 275.965 151.877 275.897 151.526 275.897C151.03 275.897 150.631 275.999 150.33 276.204C150.029 276.409 149.811 276.715 149.674 277.12C149.542 277.521 149.476 278.016 149.476 278.604V282.569H148.341V275.076H149.257L149.428 276.136H149.489C149.64 275.876 149.829 275.657 150.057 275.48C150.285 275.302 150.54 275.168 150.822 275.076C151.105 274.985 151.406 274.94 151.725 274.94C152.294 274.94 152.771 275.047 153.153 275.261C153.541 275.471 153.821 275.792 153.994 276.225H154.056C154.302 275.792 154.639 275.471 155.067 275.261C155.496 275.047 155.965 274.94 156.476 274.94ZM164.187 274.94C164.825 274.94 165.371 275.081 165.827 275.364C166.283 275.646 166.632 276.043 166.873 276.553C167.115 277.059 167.235 277.651 167.235 278.33V279.034H162.061C162.074 279.914 162.293 280.584 162.717 281.044C163.141 281.504 163.738 281.735 164.508 281.735C164.982 281.735 165.401 281.691 165.766 281.605C166.13 281.518 166.508 281.391 166.9 281.222V282.22C166.522 282.389 166.146 282.512 165.772 282.589C165.403 282.667 164.966 282.705 164.46 282.705C163.74 282.705 163.111 282.559 162.573 282.268C162.04 281.972 161.625 281.539 161.329 280.969C161.033 280.399 160.885 279.702 160.885 278.877C160.885 278.071 161.019 277.373 161.288 276.785C161.562 276.193 161.944 275.737 162.437 275.418C162.933 275.099 163.517 274.94 164.187 274.94ZM164.173 275.869C163.567 275.869 163.084 276.068 162.724 276.464C162.364 276.861 162.149 277.414 162.081 278.125H166.046C166.041 277.679 165.971 277.287 165.834 276.949C165.702 276.608 165.499 276.343 165.226 276.156C164.952 275.965 164.601 275.869 164.173 275.869ZM172.711 274.94C173.6 274.94 174.272 275.158 174.728 275.596C175.183 276.029 175.411 276.726 175.411 277.688V282.569H174.29V277.763C174.29 277.139 174.146 276.671 173.859 276.362C173.577 276.052 173.142 275.897 172.554 275.897C171.724 275.897 171.141 276.131 170.804 276.601C170.466 277.07 170.298 277.752 170.298 278.645V282.569H169.163V275.076H170.079L170.25 276.156H170.312C170.471 275.892 170.674 275.671 170.92 275.493C171.166 275.311 171.442 275.174 171.747 275.083C172.052 274.988 172.374 274.94 172.711 274.94ZM180.415 282.705C179.467 282.705 178.715 282.382 178.159 281.735C177.608 281.087 177.332 280.126 177.332 278.85C177.332 277.56 177.615 276.587 178.18 275.931C178.745 275.27 179.497 274.94 180.436 274.94C180.832 274.94 181.178 274.992 181.475 275.097C181.771 275.202 182.026 275.343 182.24 275.521C182.454 275.694 182.634 275.892 182.78 276.115H182.862C182.844 275.974 182.826 275.781 182.808 275.534C182.789 275.288 182.78 275.088 182.78 274.933V271.932H183.915V282.569H182.999L182.828 281.502H182.78C182.639 281.726 182.459 281.928 182.24 282.111C182.026 282.293 181.769 282.439 181.468 282.548C181.172 282.653 180.821 282.705 180.415 282.705ZM180.593 281.762C181.395 281.762 181.962 281.534 182.295 281.078C182.628 280.623 182.794 279.946 182.794 279.048V278.843C182.794 277.891 182.634 277.159 182.315 276.649C182.001 276.138 181.427 275.883 180.593 275.883C179.896 275.883 179.374 276.152 179.027 276.69C178.681 277.223 178.508 277.952 178.508 278.877C178.508 279.798 178.679 280.509 179.021 281.01C179.367 281.511 179.891 281.762 180.593 281.762ZM189.124 274.953C190.017 274.953 190.68 275.154 191.113 275.555C191.546 275.956 191.763 276.596 191.763 277.476V282.569H190.936L190.717 281.461H190.662C190.452 281.735 190.234 281.965 190.006 282.152C189.778 282.334 189.514 282.473 189.213 282.569C188.917 282.66 188.552 282.705 188.119 282.705C187.663 282.705 187.258 282.626 186.902 282.466C186.551 282.307 186.273 282.065 186.068 281.741C185.868 281.418 185.768 281.008 185.768 280.511C185.768 279.764 186.064 279.189 186.656 278.788C187.249 278.387 188.151 278.169 189.363 278.132L190.655 278.077V277.619C190.655 276.972 190.516 276.519 190.238 276.259C189.96 275.999 189.568 275.869 189.062 275.869C188.671 275.869 188.297 275.926 187.941 276.04C187.586 276.154 187.249 276.289 186.93 276.444L186.581 275.582C186.918 275.409 187.306 275.261 187.743 275.138C188.181 275.015 188.641 274.953 189.124 274.953ZM190.642 278.877L189.5 278.925C188.566 278.962 187.907 279.114 187.524 279.383C187.142 279.652 186.95 280.032 186.95 280.525C186.95 280.953 187.08 281.27 187.34 281.475C187.6 281.68 187.944 281.782 188.372 281.782C189.037 281.782 189.582 281.598 190.006 281.229C190.43 280.86 190.642 280.306 190.642 279.568V278.877ZM196.767 282.705C195.819 282.705 195.067 282.382 194.511 281.735C193.959 281.087 193.684 280.126 193.684 278.85C193.684 277.56 193.966 276.587 194.531 275.931C195.096 275.27 195.848 274.94 196.787 274.94C197.184 274.94 197.53 274.992 197.826 275.097C198.122 275.202 198.378 275.343 198.592 275.521C198.806 275.694 198.986 275.892 199.132 276.115H199.214C199.196 275.974 199.177 275.781 199.159 275.534C199.141 275.288 199.132 275.088 199.132 274.933V271.932H200.267V282.569H199.351L199.18 281.502H199.132C198.991 281.726 198.811 281.928 198.592 282.111C198.378 282.293 198.12 282.439 197.819 282.548C197.523 282.653 197.172 282.705 196.767 282.705ZM196.944 281.762C197.746 281.762 198.314 281.534 198.646 281.078C198.979 280.623 199.146 279.946 199.146 279.048V278.843C199.146 277.891 198.986 277.159 198.667 276.649C198.353 276.138 197.778 275.883 196.944 275.883C196.247 275.883 195.725 276.152 195.379 276.69C195.033 277.223 194.859 277.952 194.859 278.877C194.859 279.798 195.03 280.509 195.372 281.01C195.718 281.511 196.243 281.762 196.944 281.762ZM209.133 278.809C209.133 279.424 209.053 279.973 208.894 280.456C208.734 280.939 208.504 281.347 208.203 281.68C207.902 282.013 207.538 282.268 207.109 282.446C206.686 282.619 206.205 282.705 205.667 282.705C205.166 282.705 204.705 282.619 204.286 282.446C203.871 282.268 203.511 282.013 203.206 281.68C202.905 281.347 202.671 280.939 202.502 280.456C202.338 279.973 202.256 279.424 202.256 278.809C202.256 277.989 202.395 277.291 202.673 276.717C202.951 276.138 203.347 275.698 203.862 275.398C204.382 275.092 204.999 274.94 205.715 274.94C206.398 274.94 206.995 275.092 207.506 275.398C208.021 275.703 208.42 276.145 208.702 276.724C208.989 277.298 209.133 277.993 209.133 278.809ZM203.432 278.809C203.432 279.41 203.511 279.932 203.671 280.374C203.83 280.816 204.076 281.158 204.409 281.4C204.742 281.641 205.17 281.762 205.694 281.762C206.214 281.762 206.64 281.641 206.973 281.4C207.31 281.158 207.558 280.816 207.718 280.374C207.877 279.932 207.957 279.41 207.957 278.809C207.957 278.212 207.877 277.697 207.718 277.264C207.558 276.826 207.312 276.489 206.979 276.252C206.647 276.015 206.216 275.897 205.688 275.897C204.908 275.897 204.336 276.154 203.972 276.669C203.612 277.184 203.432 277.897 203.432 278.809ZM213.467 278.72C213.467 279.481 213.392 280.224 213.241 280.948C213.095 281.669 212.87 282.352 212.564 282.999C212.264 283.646 211.879 284.241 211.409 284.783H210.336C210.773 284.205 211.138 283.585 211.43 282.924C211.726 282.263 211.947 281.58 212.093 280.873C212.243 280.162 212.318 279.442 212.318 278.713C212.318 277.97 212.243 277.239 212.093 276.519C211.942 275.799 211.719 275.106 211.423 274.441C211.131 273.775 210.764 273.153 210.322 272.574H211.409C211.879 273.135 212.264 273.746 212.564 274.406C212.87 275.063 213.095 275.755 213.241 276.485C213.392 277.209 213.467 277.954 213.467 278.72Z" fill="#101E37"/>
<g clip-path="url(#clip1_26196_8371)">
<mask id="path-11-outside-2_26196_8371" maskUnits="userSpaceOnUse" x="279.764" y="59.0742" width="169" height="174" fill="black">
<rect fill="white" x="279.764" y="59.0742" width="169" height="174"/>
<path d="M280.764 68.0742C280.764 63.6559 284.345 60.0742 288.764 60.0742H439.236C443.654 60.0742 447.236 63.6559 447.236 68.0742V223.569C447.236 227.987 443.654 231.569 439.236 231.569H288.764C284.345 231.569 280.764 227.987 280.764 223.569V68.0742Z"/>
</mask>
<path d="M280.764 68.0742C280.764 63.6559 284.345 60.0742 288.764 60.0742H439.236C443.654 60.0742 447.236 63.6559 447.236 68.0742V223.569C447.236 227.987 443.654 231.569 439.236 231.569H288.764C284.345 231.569 280.764 227.987 280.764 223.569V68.0742Z" fill="white"/>
<rect x="280.764" y="60.0742" width="166.472" height="105.279" fill="#E08585"/>
<rect width="166.472" height="66.2156" transform="translate(280.764 165.353)" fill="white"/>
<path d="M300.318 193.276C299.845 193.276 299.353 193.215 298.845 193.092C298.336 192.969 297.893 192.785 297.515 192.539C297.34 192.425 297.221 192.294 297.16 192.145C297.099 191.995 297.081 191.855 297.107 191.724C297.142 191.583 297.208 191.465 297.305 191.368C297.41 191.272 297.537 191.215 297.686 191.197C297.844 191.18 298.015 191.219 298.2 191.316C298.559 191.509 298.906 191.649 299.239 191.737C299.573 191.816 299.915 191.855 300.266 191.855C300.652 191.855 300.976 191.802 301.24 191.697C301.503 191.592 301.7 191.434 301.832 191.223C301.972 191.013 302.042 190.758 302.042 190.46C302.042 190.022 301.893 189.697 301.595 189.486C301.305 189.267 300.88 189.157 300.318 189.157H299.476C299.231 189.157 299.042 189.096 298.91 188.973C298.787 188.85 298.726 188.679 298.726 188.46C298.726 188.241 298.787 188.069 298.91 187.947C299.042 187.824 299.231 187.762 299.476 187.762H300.16C300.494 187.762 300.779 187.71 301.016 187.604C301.253 187.49 301.437 187.333 301.569 187.131C301.7 186.929 301.766 186.683 301.766 186.394C301.766 185.99 301.63 185.683 301.358 185.473C301.095 185.262 300.709 185.157 300.2 185.157C299.875 185.157 299.568 185.196 299.279 185.275C298.998 185.345 298.687 185.481 298.344 185.683C298.187 185.78 298.033 185.819 297.884 185.802C297.743 185.784 297.625 185.727 297.529 185.63C297.432 185.534 297.366 185.42 297.331 185.288C297.296 185.148 297.305 185.008 297.357 184.867C297.41 184.718 297.52 184.591 297.686 184.486C298.064 184.24 298.48 184.056 298.937 183.933C299.393 183.801 299.862 183.735 300.345 183.735C300.985 183.735 301.533 183.836 301.99 184.038C302.446 184.231 302.792 184.512 303.029 184.88C303.275 185.24 303.398 185.679 303.398 186.196C303.398 186.565 303.328 186.903 303.187 187.21C303.047 187.508 302.849 187.762 302.595 187.973C302.341 188.184 302.034 188.333 301.674 188.42V188.262C302.306 188.368 302.797 188.631 303.148 189.052C303.499 189.464 303.674 189.982 303.674 190.605C303.674 191.149 303.538 191.623 303.266 192.026C302.994 192.43 302.608 192.741 302.108 192.961C301.608 193.171 301.011 193.276 300.318 193.276ZM308.393 193.276C307.297 193.276 306.459 192.864 305.88 192.039C305.301 191.206 305.011 190.022 305.011 188.486C305.011 187.451 305.139 186.582 305.393 185.881C305.656 185.17 306.038 184.635 306.538 184.275C307.047 183.915 307.665 183.735 308.393 183.735C309.499 183.735 310.337 184.139 310.907 184.946C311.486 185.753 311.775 186.929 311.775 188.473C311.775 189.499 311.644 190.372 311.381 191.092C311.126 191.802 310.749 192.346 310.249 192.724C309.749 193.092 309.13 193.276 308.393 193.276ZM308.393 191.895C308.99 191.895 309.429 191.618 309.709 191.066C309.999 190.513 310.144 189.649 310.144 188.473C310.144 187.297 309.999 186.446 309.709 185.92C309.429 185.385 308.99 185.117 308.393 185.117C307.806 185.117 307.367 185.385 307.077 185.92C306.788 186.446 306.643 187.297 306.643 188.473C306.643 189.649 306.788 190.513 307.077 191.066C307.367 191.618 307.806 191.895 308.393 191.895ZM316.284 193.276C315.188 193.276 314.35 192.864 313.771 192.039C313.192 191.206 312.902 190.022 312.902 188.486C312.902 187.451 313.029 186.582 313.284 185.881C313.547 185.17 313.929 184.635 314.429 184.275C314.937 183.915 315.556 183.735 316.284 183.735C317.39 183.735 318.227 184.139 318.798 184.946C319.377 185.753 319.666 186.929 319.666 188.473C319.666 189.499 319.535 190.372 319.271 191.092C319.017 191.802 318.64 192.346 318.14 192.724C317.64 193.092 317.021 193.276 316.284 193.276ZM316.284 191.895C316.881 191.895 317.319 191.618 317.6 191.066C317.89 190.513 318.034 189.649 318.034 188.473C318.034 187.297 317.89 186.446 317.6 185.92C317.319 185.385 316.881 185.117 316.284 185.117C315.696 185.117 315.258 185.385 314.968 185.92C314.679 186.446 314.534 187.297 314.534 188.473C314.534 189.649 314.679 190.513 314.968 191.066C315.258 191.618 315.696 191.895 316.284 191.895Z" fill="#101E37"/>
<path d="M301.592 207.155L301.258 208.903H302.713V209.556H301.13L300.693 211.777H299.999L300.436 209.556H298.868L298.446 211.777H297.763L298.169 209.556H296.822V208.903H298.297L298.642 207.155H297.213V206.513H298.76L299.187 204.261H299.891L299.464 206.513H301.042L301.469 204.261H302.148L301.721 206.513H303.083V207.155H301.592ZM298.991 208.903H300.559L300.898 207.155H299.331L298.991 208.903ZM308.573 211.777H304.389V204.261H308.573V205.032H305.263V207.464H308.383V208.225H305.263V211.006H308.573V211.777ZM314.696 208.009C314.696 208.619 314.649 209.164 314.557 209.644C314.464 210.123 314.319 210.529 314.12 210.862C313.921 211.194 313.664 211.448 313.349 211.623C313.034 211.794 312.655 211.88 312.213 211.88C311.654 211.88 311.192 211.727 310.825 211.422C310.462 211.117 310.189 210.677 310.008 210.101C309.829 209.522 309.74 208.824 309.74 208.009C309.74 207.207 309.821 206.518 309.982 205.942C310.146 205.363 310.41 204.919 310.773 204.611C311.137 204.299 311.617 204.143 312.213 204.143C312.778 204.143 313.244 204.297 313.611 204.606C313.978 204.911 314.25 205.353 314.428 205.932C314.607 206.508 314.696 207.2 314.696 208.009ZM310.599 208.009C310.599 208.708 310.652 209.291 310.758 209.757C310.864 210.223 311.036 210.572 311.272 210.805C311.512 211.035 311.826 211.15 312.213 211.15C312.6 211.15 312.912 211.035 313.148 210.805C313.388 210.576 313.561 210.228 313.668 209.762C313.777 209.296 313.832 208.711 313.832 208.009C313.832 207.32 313.779 206.744 313.673 206.282C313.567 205.816 313.395 205.466 313.159 205.233C312.922 204.996 312.607 204.878 312.213 204.878C311.819 204.878 311.503 204.996 311.267 205.233C311.031 205.466 310.859 205.816 310.753 206.282C310.65 206.744 310.599 207.32 310.599 208.009ZM318.238 204.153C318.673 204.153 319.058 204.222 319.394 204.359C319.73 204.496 319.992 204.698 320.181 204.966C320.373 205.229 320.469 205.555 320.469 205.942C320.469 206.247 320.402 206.515 320.268 206.744C320.138 206.97 319.961 207.169 319.739 207.341C319.516 207.508 319.269 207.659 318.998 207.793C319.321 207.94 319.61 208.106 319.867 208.292C320.128 208.477 320.333 208.694 320.484 208.944C320.635 209.195 320.71 209.491 320.71 209.834C320.71 210.255 320.607 210.62 320.402 210.929C320.2 211.234 319.915 211.468 319.548 211.633C319.182 211.797 318.752 211.88 318.258 211.88C317.727 211.88 317.275 211.801 316.901 211.643C316.531 211.482 316.248 211.253 316.053 210.954C315.861 210.653 315.765 210.291 315.765 209.87C315.765 209.524 315.839 209.224 315.986 208.97C316.133 208.713 316.329 208.492 316.572 208.307C316.815 208.122 317.081 207.966 317.369 207.839C317.119 207.702 316.889 207.546 316.68 207.371C316.474 207.197 316.31 206.993 316.187 206.76C316.067 206.523 316.007 206.249 316.007 205.937C316.007 205.557 316.103 205.235 316.294 204.971C316.49 204.703 316.755 204.501 317.091 204.364C317.431 204.224 317.813 204.153 318.238 204.153ZM316.603 209.875C316.603 210.259 316.738 210.576 317.009 210.826C317.28 211.073 317.689 211.196 318.238 211.196C318.759 211.196 319.161 211.073 319.446 210.826C319.73 210.576 319.872 210.248 319.872 209.844C319.872 209.594 319.807 209.374 319.677 209.186C319.547 208.994 319.362 208.823 319.122 208.672C318.882 208.521 318.599 208.384 318.274 208.261L318.089 208.194C317.773 208.324 317.504 208.47 317.281 208.631C317.062 208.788 316.894 208.968 316.778 209.171C316.661 209.373 316.603 209.608 316.603 209.875ZM318.227 204.853C317.823 204.853 317.492 204.95 317.235 205.146C316.978 205.337 316.85 205.615 316.85 205.978C316.85 206.239 316.911 206.46 317.035 206.641C317.162 206.82 317.333 206.974 317.549 207.104C317.765 207.231 318.006 207.349 318.274 207.459C318.534 207.349 318.765 207.229 318.968 207.099C319.17 206.965 319.329 206.808 319.446 206.626C319.562 206.444 319.62 206.227 319.62 205.973C319.62 205.61 319.492 205.332 319.235 205.14C318.981 204.948 318.645 204.853 318.227 204.853ZM324.154 207.181C324.665 207.181 325.109 207.269 325.486 207.443C325.863 207.615 326.154 207.865 326.36 208.194C326.569 208.523 326.673 208.922 326.673 209.392C326.673 209.906 326.562 210.349 326.339 210.723C326.116 211.093 325.796 211.379 325.378 211.582C324.96 211.78 324.459 211.88 323.877 211.88C323.486 211.88 323.123 211.845 322.787 211.777C322.451 211.708 322.168 211.606 321.939 211.468V210.656C322.189 210.807 322.492 210.927 322.849 211.016C323.205 211.105 323.551 211.15 323.887 211.15C324.267 211.15 324.6 211.09 324.884 210.97C325.172 210.846 325.395 210.661 325.553 210.415C325.714 210.164 325.794 209.851 325.794 209.474C325.794 208.974 325.64 208.588 325.332 208.317C325.027 208.043 324.543 207.906 323.882 207.906C323.669 207.906 323.436 207.923 323.183 207.957C322.929 207.992 322.72 208.029 322.556 208.071L322.124 207.788L322.412 204.261H326.149V205.043H323.142L322.951 207.31C323.082 207.282 323.25 207.255 323.455 207.227C323.661 207.197 323.894 207.181 324.154 207.181ZM330.287 204.153C330.722 204.153 331.108 204.222 331.444 204.359C331.78 204.496 332.042 204.698 332.23 204.966C332.422 205.229 332.518 205.555 332.518 205.942C332.518 206.247 332.451 206.515 332.318 206.744C332.187 206.97 332.011 207.169 331.788 207.341C331.565 207.508 331.319 207.659 331.048 207.793C331.37 207.94 331.66 208.106 331.917 208.292C332.177 208.477 332.383 208.694 332.534 208.944C332.684 209.195 332.76 209.491 332.76 209.834C332.76 210.255 332.657 210.62 332.451 210.929C332.249 211.234 331.965 211.468 331.598 211.633C331.231 211.797 330.801 211.88 330.308 211.88C329.776 211.88 329.324 211.801 328.951 211.643C328.58 211.482 328.298 211.253 328.102 210.954C327.91 210.653 327.814 210.291 327.814 209.87C327.814 209.524 327.888 209.224 328.036 208.97C328.183 208.713 328.378 208.492 328.622 208.307C328.865 208.122 329.13 207.966 329.418 207.839C329.168 207.702 328.939 207.546 328.729 207.371C328.524 207.197 328.359 206.993 328.236 206.76C328.116 206.523 328.056 206.249 328.056 205.937C328.056 205.557 328.152 205.235 328.344 204.971C328.539 204.703 328.805 204.501 329.141 204.364C329.48 204.224 329.862 204.153 330.287 204.153ZM328.652 209.875C328.652 210.259 328.788 210.576 329.058 210.826C329.329 211.073 329.739 211.196 330.287 211.196C330.808 211.196 331.211 211.073 331.495 210.826C331.78 210.576 331.922 210.248 331.922 209.844C331.922 209.594 331.857 209.374 331.726 209.186C331.596 208.994 331.411 208.823 331.171 208.672C330.931 208.521 330.649 208.384 330.323 208.261L330.138 208.194C329.823 208.324 329.554 208.47 329.331 208.631C329.112 208.788 328.944 208.968 328.827 209.171C328.711 209.373 328.652 209.608 328.652 209.875ZM330.277 204.853C329.872 204.853 329.542 204.95 329.285 205.146C329.028 205.337 328.899 205.615 328.899 205.978C328.899 206.239 328.961 206.46 329.084 206.641C329.211 206.82 329.382 206.974 329.598 207.104C329.814 207.231 330.056 207.349 330.323 207.459C330.584 207.349 330.815 207.229 331.017 207.099C331.219 206.965 331.379 206.808 331.495 206.626C331.612 206.444 331.67 206.227 331.67 205.973C331.67 205.61 331.541 205.332 331.284 205.14C331.031 204.948 330.695 204.853 330.277 204.853ZM336.204 207.181C336.715 207.181 337.158 207.269 337.535 207.443C337.912 207.615 338.204 207.865 338.409 208.194C338.618 208.523 338.723 208.922 338.723 209.392C338.723 209.906 338.611 210.349 338.389 210.723C338.166 211.093 337.845 211.379 337.427 211.582C337.009 211.78 336.509 211.88 335.926 211.88C335.536 211.88 335.172 211.845 334.836 211.777C334.501 211.708 334.218 211.606 333.988 211.468V210.656C334.238 210.807 334.542 210.927 334.898 211.016C335.255 211.105 335.601 211.15 335.937 211.15C336.317 211.15 336.649 211.09 336.934 210.97C337.222 210.846 337.444 210.661 337.602 210.415C337.763 210.164 337.844 209.851 337.844 209.474C337.844 208.974 337.69 208.588 337.381 208.317C337.076 208.043 336.593 207.906 335.931 207.906C335.719 207.906 335.486 207.923 335.232 207.957C334.979 207.992 334.77 208.029 334.605 208.071L334.173 207.788L334.461 204.261H338.198V205.043H335.191L335.001 207.31C335.131 207.282 335.299 207.255 335.505 207.227C335.71 207.197 335.943 207.181 336.204 207.181Z" fill="#101E37"/>
<rect x="338.566" y="101.64" width="50.8145" height="22.3414" rx="7.38037" stroke="#101E37" stroke-width="0.868279"/>
<path d="M349.103 116.811L348.034 114.057H344.556L343.494 116.811H342.473L345.868 108.097H346.776L350.147 116.811H349.103ZM347.732 113.16L346.717 110.424C346.693 110.353 346.653 110.236 346.598 110.074C346.546 109.912 346.493 109.744 346.438 109.569C346.382 109.395 346.337 109.255 346.301 109.148C346.261 109.31 346.218 109.473 346.17 109.635C346.127 109.793 346.083 109.941 346.04 110.08C345.996 110.214 345.959 110.329 345.927 110.424L344.894 113.16H347.732ZM356.795 116.811L355.727 114.057H352.248L351.186 116.811H350.165L353.56 108.097H354.468L357.84 116.811H356.795ZM355.424 113.16L354.409 110.424C354.385 110.353 354.346 110.236 354.29 110.074C354.239 109.912 354.185 109.744 354.13 109.569C354.075 109.395 354.029 109.255 353.993 109.148C353.954 109.31 353.91 109.473 353.863 109.635C353.819 109.793 353.776 109.941 353.732 110.08C353.689 110.214 353.651 110.329 353.62 110.424L352.587 113.16H355.424ZM361.704 113.101C361.704 112.579 361.739 112.068 361.811 111.57C361.886 111.071 362.01 110.608 362.184 110.181C362.359 109.75 362.596 109.372 362.897 109.047C363.197 108.723 363.571 108.469 364.019 108.287C364.47 108.101 365.01 108.008 365.639 108.008C365.817 108.008 366.009 108.018 366.215 108.038C366.42 108.054 366.591 108.082 366.725 108.121V108.97C366.579 108.919 366.411 108.881 366.221 108.857C366.035 108.833 365.847 108.822 365.657 108.822C364.921 108.822 364.341 108.982 363.918 109.302C363.498 109.623 363.195 110.058 363.009 110.608C362.824 111.154 362.717 111.77 362.689 112.454H362.754C362.877 112.256 363.033 112.078 363.223 111.92C363.413 111.758 363.643 111.629 363.912 111.534C364.185 111.439 364.501 111.392 364.861 111.392C365.368 111.392 365.809 111.495 366.185 111.7C366.565 111.906 366.858 112.205 367.063 112.597C367.273 112.988 367.378 113.463 367.378 114.021C367.378 114.619 367.267 115.135 367.046 115.57C366.824 116.006 366.507 116.342 366.096 116.579C365.688 116.813 365.202 116.93 364.636 116.93C364.212 116.93 363.823 116.848 363.467 116.686C363.11 116.524 362.8 116.283 362.535 115.962C362.273 115.641 362.07 115.244 361.923 114.769C361.777 114.29 361.704 113.734 361.704 113.101ZM364.624 116.099C365.162 116.099 365.593 115.926 365.918 115.582C366.242 115.238 366.405 114.718 366.405 114.021C366.405 113.451 366.26 113 365.971 112.668C365.682 112.335 365.247 112.169 364.665 112.169C364.27 112.169 363.926 112.252 363.633 112.419C363.34 112.581 363.112 112.787 362.95 113.036C362.788 113.285 362.707 113.538 362.707 113.796C362.707 114.057 362.744 114.322 362.82 114.591C362.899 114.86 363.017 115.109 363.176 115.339C363.334 115.568 363.534 115.752 363.775 115.891C364.017 116.029 364.299 116.099 364.624 116.099ZM368.862 116.193C368.862 115.917 368.929 115.721 369.064 115.606C369.198 115.487 369.362 115.428 369.556 115.428C369.758 115.428 369.928 115.487 370.067 115.606C370.205 115.721 370.275 115.917 370.275 116.193C370.275 116.467 370.205 116.666 370.067 116.793C369.928 116.916 369.758 116.977 369.556 116.977C369.362 116.977 369.198 116.916 369.064 116.793C368.929 116.666 368.862 116.467 368.862 116.193ZM377.451 116.811H371.764V115.986L374.085 113.629C374.516 113.194 374.879 112.806 375.171 112.466C375.468 112.126 375.694 111.791 375.848 111.463C376.002 111.131 376.079 110.766 376.079 110.371C376.079 109.88 375.933 109.506 375.64 109.249C375.351 108.988 374.97 108.857 374.495 108.857C374.079 108.857 373.711 108.928 373.391 109.071C373.07 109.213 372.742 109.415 372.405 109.676L371.877 109.012C372.107 108.818 372.356 108.646 372.625 108.495C372.898 108.345 373.189 108.226 373.498 108.139C373.81 108.052 374.143 108.008 374.495 108.008C375.029 108.008 375.49 108.101 375.878 108.287C376.265 108.473 376.564 108.739 376.774 109.083C376.988 109.427 377.094 109.837 377.094 110.311C377.094 110.77 377.003 111.198 376.821 111.593C376.639 111.985 376.384 112.375 376.056 112.763C375.727 113.147 375.343 113.554 374.904 113.985L373.017 115.867V115.909H377.451V116.811ZM384.407 116.811H378.721V115.986L381.042 113.629C381.473 113.194 381.835 112.806 382.128 112.466C382.425 112.126 382.65 111.791 382.804 111.463C382.959 111.131 383.036 110.766 383.036 110.371C383.036 109.88 382.889 109.506 382.597 109.249C382.308 108.988 381.926 108.857 381.451 108.857C381.036 108.857 380.668 108.928 380.347 109.071C380.027 109.213 379.698 109.415 379.362 109.676L378.834 109.012C379.063 108.818 379.312 108.646 379.581 108.495C379.854 108.345 380.145 108.226 380.454 108.139C380.767 108.052 381.099 108.008 381.451 108.008C381.985 108.008 382.446 108.101 382.834 108.287C383.222 108.473 383.521 108.739 383.73 109.083C383.944 109.427 384.051 109.837 384.051 110.311C384.051 110.77 383.96 111.198 383.778 111.593C383.596 111.985 383.341 112.375 383.012 112.763C382.684 113.147 382.3 113.554 381.861 113.985L379.973 115.867V115.909H384.407V116.811Z" fill="#101E37"/>
</g>
<path d="M288.764 61.0742H439.236V59.0742H288.764V61.0742ZM446.236 68.0742V223.569H448.236V68.0742H446.236ZM439.236 230.569H288.764V232.569H439.236V230.569ZM281.764 223.569V68.0742H279.764V223.569H281.764ZM288.764 230.569C284.898 230.569 281.764 227.435 281.764 223.569H279.764C279.764 228.539 283.793 232.569 288.764 232.569V230.569ZM446.236 223.569C446.236 227.435 443.102 230.569 439.236 230.569V232.569C444.206 232.569 448.236 228.539 448.236 223.569H446.236ZM439.236 61.0742C443.102 61.0742 446.236 64.2082 446.236 68.0742H448.236C448.236 63.1037 444.206 59.0742 439.236 59.0742V61.0742ZM288.764 59.0742C283.793 59.0742 279.764 63.1036 279.764 68.0742H281.764C281.764 64.2082 284.898 61.0742 288.764 61.0742V59.0742Z" fill="#101E37" mask="url(#path-11-outside-2_26196_8371)"/>
<path d="M296.094 260.798L293.202 257.906C292.877 257.581 292.352 257.581 292.027 257.906C291.702 258.231 291.702 258.756 292.027 259.081L295.51 262.565C295.835 262.89 296.36 262.89 296.685 262.565L305.502 253.748C305.827 253.423 305.827 252.898 305.502 252.573C305.177 252.248 304.652 252.248 304.327 252.573L296.094 260.798Z" fill="#26874A"/>
<path d="M316.981 252.574C318.271 252.574 319.212 252.839 319.805 253.367C320.397 253.896 320.693 254.637 320.693 255.589C320.693 256.022 320.625 256.434 320.488 256.826C320.356 257.214 320.137 257.558 319.832 257.859C319.527 258.155 319.123 258.39 318.622 258.563C318.125 258.736 317.512 258.823 316.783 258.823H315.717V262.569H314.076V252.574H316.981ZM316.872 253.935H315.717V257.455H316.612C317.127 257.455 317.565 257.396 317.925 257.278C318.285 257.155 318.558 256.961 318.745 256.697C318.932 256.432 319.025 256.084 319.025 255.651C319.025 255.072 318.85 254.641 318.499 254.359C318.153 254.076 317.61 253.935 316.872 253.935ZM325.492 254.858C326.449 254.858 327.172 255.07 327.659 255.493C328.151 255.917 328.397 256.578 328.397 257.476V262.569H327.256L326.948 261.495H326.894C326.679 261.769 326.458 261.994 326.23 262.172C326.003 262.35 325.738 262.482 325.438 262.569C325.141 262.66 324.779 262.705 324.351 262.705C323.899 262.705 323.496 262.623 323.141 262.459C322.785 262.291 322.505 262.035 322.3 261.694C322.095 261.352 321.992 260.919 321.992 260.395C321.992 259.615 322.282 259.03 322.86 258.638C323.444 258.246 324.323 258.03 325.499 257.989L326.812 257.941V257.544C326.812 257.02 326.688 256.646 326.442 256.423C326.201 256.2 325.859 256.088 325.417 256.088C325.039 256.088 324.672 256.143 324.316 256.252C323.961 256.362 323.615 256.496 323.277 256.656L322.758 255.521C323.127 255.325 323.546 255.165 324.016 255.042C324.49 254.919 324.982 254.858 325.492 254.858ZM326.805 258.952L325.827 258.987C325.025 259.014 324.462 259.151 324.139 259.397C323.815 259.643 323.653 259.98 323.653 260.408C323.653 260.782 323.765 261.056 323.988 261.229C324.212 261.397 324.506 261.482 324.87 261.482C325.426 261.482 325.886 261.324 326.251 261.01C326.62 260.691 326.805 260.224 326.805 259.609V258.952ZM335.732 260.408C335.732 260.905 335.612 261.324 335.37 261.666C335.129 262.008 334.775 262.268 334.311 262.446C333.85 262.619 333.285 262.705 332.615 262.705C332.087 262.705 331.631 262.667 331.248 262.589C330.87 262.516 330.512 262.402 330.175 262.247V260.86C330.535 261.028 330.938 261.174 331.385 261.297C331.836 261.42 332.262 261.482 332.663 261.482C333.192 261.482 333.572 261.4 333.805 261.236C334.037 261.067 334.153 260.844 334.153 260.566C334.153 260.402 334.105 260.256 334.01 260.128C333.919 259.996 333.745 259.862 333.49 259.725C333.24 259.584 332.87 259.415 332.383 259.219C331.904 259.028 331.501 258.836 331.173 258.645C330.845 258.453 330.596 258.223 330.428 257.954C330.259 257.681 330.175 257.332 330.175 256.908C330.175 256.239 330.439 255.73 330.968 255.384C331.501 255.033 332.205 254.858 333.08 254.858C333.545 254.858 333.982 254.906 334.393 255.001C334.807 255.092 335.213 255.227 335.609 255.405L335.104 256.615C334.762 256.464 334.418 256.341 334.071 256.245C333.729 256.145 333.381 256.095 333.025 256.095C332.611 256.095 332.294 256.159 332.075 256.286C331.861 256.414 331.754 256.596 331.754 256.833C331.754 257.011 331.806 257.161 331.911 257.284C332.016 257.407 332.196 257.531 332.451 257.654C332.711 257.777 333.071 257.929 333.531 258.112C333.982 258.285 334.372 258.467 334.7 258.658C335.033 258.845 335.288 259.075 335.466 259.349C335.644 259.622 335.732 259.976 335.732 260.408ZM340.436 254.858C341.393 254.858 342.115 255.07 342.603 255.493C343.095 255.917 343.341 256.578 343.341 257.476V262.569H342.199L341.892 261.495H341.837C341.623 261.769 341.402 261.994 341.174 262.172C340.946 262.35 340.682 262.482 340.381 262.569C340.085 262.66 339.722 262.705 339.294 262.705C338.843 262.705 338.439 262.623 338.084 262.459C337.729 262.291 337.448 262.035 337.243 261.694C337.038 261.352 336.936 260.919 336.936 260.395C336.936 259.615 337.225 259.03 337.804 258.638C338.387 258.246 339.267 258.03 340.442 257.989L341.755 257.941V257.544C341.755 257.02 341.632 256.646 341.386 256.423C341.144 256.2 340.802 256.088 340.36 256.088C339.982 256.088 339.615 256.143 339.26 256.252C338.904 256.362 338.558 256.496 338.221 256.656L337.701 255.521C338.07 255.325 338.49 255.165 338.959 255.042C339.433 254.919 339.925 254.858 340.436 254.858ZM341.748 258.952L340.771 258.987C339.968 259.014 339.406 259.151 339.082 259.397C338.758 259.643 338.597 259.98 338.597 260.408C338.597 260.782 338.708 261.056 338.932 261.229C339.155 261.397 339.449 261.482 339.813 261.482C340.369 261.482 340.83 261.324 341.194 261.01C341.563 260.691 341.748 260.224 341.748 259.609V258.952ZM355.584 262.569L354.606 259.793H350.785L349.808 262.569H348.078L351.797 252.533H353.615L357.327 262.569H355.584ZM354.183 258.385L353.232 255.651C353.196 255.532 353.144 255.366 353.075 255.152C353.007 254.933 352.938 254.712 352.87 254.489C352.802 254.261 352.745 254.069 352.699 253.914C352.654 254.101 352.597 254.311 352.528 254.543C352.465 254.771 352.401 254.985 352.337 255.186C352.278 255.386 352.232 255.541 352.2 255.651L351.243 258.385H354.183ZM364.84 262.569L363.862 259.793H360.041L359.063 262.569H357.334L361.053 252.533H362.871L366.583 262.569H364.84ZM363.438 258.385L362.488 255.651C362.452 255.532 362.399 255.366 362.331 255.152C362.263 254.933 362.194 254.712 362.126 254.489C362.058 254.261 362.001 254.069 361.955 253.914C361.91 254.101 361.853 254.311 361.784 254.543C361.72 254.771 361.657 254.985 361.593 255.186C361.534 255.386 361.488 255.541 361.456 255.651L360.499 258.385H363.438Z" fill="#101E37"/>
<g clip-path="url(#clip2_26196_8371)">
<mask id="path-20-outside-3_26196_8371" maskUnits="userSpaceOnUse" x="478.236" y="59.0742" width="169" height="174" fill="black">
<rect fill="white" x="478.236" y="59.0742" width="169" height="174"/>
<path d="M479.236 68.0742C479.236 63.6559 482.818 60.0742 487.236 60.0742H637.708C642.127 60.0742 645.708 63.6559 645.708 68.0742V223.569C645.708 227.987 642.127 231.569 637.708 231.569H487.236C482.818 231.569 479.236 227.987 479.236 223.569V68.0742Z"/>
</mask>
<path d="M479.236 68.0742C479.236 63.6559 482.818 60.0742 487.236 60.0742H637.708C642.127 60.0742 645.708 63.6559 645.708 68.0742V223.569C645.708 227.987 642.127 231.569 637.708 231.569H487.236C482.818 231.569 479.236 227.987 479.236 223.569V68.0742Z" fill="white"/>
<rect x="479.236" y="60.0742" width="166.472" height="105.279" fill="#D65C5C"/>
<path d="M623 75.4699C625.76 75.4699 628 77.7099 628 80.4699C628 80.9799 627.9 81.4699 627.76 81.9299L630.82 84.9899C632.21 83.7599 633.31 82.2199 634 80.4599C632.27 76.0799 628 72.9699 623 72.9699C621.73 72.9699 620.51 73.1699 619.36 73.5399L621.53 75.7099C622 75.5699 622.49 75.4699 623 75.4699ZM613.71 72.1299C613.32 72.5199 613.32 73.1499 613.71 73.5399L615.68 75.5099C614.06 76.7999 612.77 78.4999 612 80.4699C613.73 84.8599 618 87.9699 623 87.9699C624.52 87.9699 625.97 87.6699 627.31 87.1499L630.03 89.8699C630.42 90.2599 631.05 90.2599 631.44 89.8699C631.83 89.4799 631.83 88.8499 631.44 88.4599L615.13 72.1299C614.74 71.7399 614.1 71.7399 613.71 72.1299ZM623 85.4699C620.24 85.4699 618 83.2299 618 80.4699C618 79.6999 618.18 78.9699 618.49 78.3299L620.06 79.8999C620.03 80.0799 620 80.2699 620 80.4699C620 82.1299 621.34 83.4699 623 83.4699C623.2 83.4699 623.38 83.4399 623.57 83.3999L625.14 84.9699C624.49 85.2899 623.77 85.4699 623 85.4699ZM625.97 80.1399C625.82 78.7399 624.72 77.6499 623.33 77.4999L625.97 80.1399Z" fill="#101E37"/>
<rect width="166.472" height="66.2156" transform="translate(479.236 165.353)" fill="white"/>
<path d="M500.462 193.25C500.199 193.25 499.993 193.18 499.844 193.039C499.695 192.89 499.62 192.68 499.62 192.408V191.381H496.37C496.098 191.381 495.878 191.324 495.712 191.21C495.554 191.096 495.475 190.916 495.475 190.671C495.475 190.53 495.51 190.377 495.58 190.21C495.659 190.043 495.795 189.824 495.988 189.552L499.594 184.328C499.717 184.143 499.853 184.003 500.002 183.907C500.151 183.81 500.322 183.762 500.515 183.762C500.743 183.762 500.932 183.832 501.081 183.972C501.23 184.104 501.305 184.315 501.305 184.604V189.986H501.949C502.204 189.986 502.392 190.048 502.515 190.171C502.647 190.285 502.713 190.456 502.713 190.684C502.713 190.912 502.647 191.087 502.515 191.21C502.392 191.324 502.204 191.381 501.949 191.381H501.305V192.408C501.305 192.68 501.23 192.89 501.081 193.039C500.932 193.18 500.726 193.25 500.462 193.25ZM499.62 189.986V185.881H500.002L496.896 190.434V189.986H499.62ZM506.866 193.276C505.769 193.276 504.932 192.864 504.353 192.039C503.774 191.206 503.484 190.022 503.484 188.486C503.484 187.451 503.611 186.582 503.866 185.881C504.129 185.17 504.51 184.635 505.011 184.275C505.519 183.915 506.138 183.735 506.866 183.735C507.971 183.735 508.809 184.139 509.38 184.946C509.959 185.753 510.248 186.929 510.248 188.473C510.248 189.499 510.117 190.372 509.853 191.092C509.599 191.802 509.222 192.346 508.722 192.724C508.222 193.092 507.603 193.276 506.866 193.276ZM506.866 191.895C507.463 191.895 507.901 191.618 508.182 191.066C508.472 190.513 508.616 189.649 508.616 188.473C508.616 187.297 508.472 186.446 508.182 185.92C507.901 185.385 507.463 185.117 506.866 185.117C506.278 185.117 505.84 185.385 505.55 185.92C505.261 186.446 505.116 187.297 505.116 188.473C505.116 189.649 505.261 190.513 505.55 191.066C505.84 191.618 506.278 191.895 506.866 191.895ZM514.757 193.276C513.66 193.276 512.822 192.864 512.243 192.039C511.664 191.206 511.375 190.022 511.375 188.486C511.375 187.451 511.502 186.582 511.756 185.881C512.02 185.17 512.401 184.635 512.901 184.275C513.41 183.915 514.029 183.735 514.757 183.735C515.862 183.735 516.7 184.139 517.27 184.946C517.849 185.753 518.139 186.929 518.139 188.473C518.139 189.499 518.007 190.372 517.744 191.092C517.49 191.802 517.112 192.346 516.612 192.724C516.112 193.092 515.494 193.276 514.757 193.276ZM514.757 191.895C515.353 191.895 515.792 191.618 516.073 191.066C516.362 190.513 516.507 189.649 516.507 188.473C516.507 187.297 516.362 186.446 516.073 185.92C515.792 185.385 515.353 185.117 514.757 185.117C514.169 185.117 513.73 185.385 513.441 185.92C513.151 186.446 513.007 187.297 513.007 188.473C513.007 189.649 513.151 190.513 513.441 191.066C513.73 191.618 514.169 191.895 514.757 191.895Z" fill="#101E37"/>
<path d="M500.065 207.155L499.731 208.903H501.186V209.556H499.602L499.165 211.777H498.472L498.908 209.556H497.341L496.919 211.777H496.235L496.641 209.556H495.295V208.903H496.77L497.114 207.155H495.685V206.513H497.233L497.659 204.261H498.364L497.937 206.513H499.515L499.942 204.261H500.62L500.194 206.513H501.556V207.155H500.065ZM497.464 208.903H499.032L499.371 207.155H497.803L497.464 208.903ZM508.83 207.947C508.83 208.794 508.676 209.501 508.367 210.07C508.059 210.636 507.611 211.062 507.025 211.35C506.443 211.635 505.735 211.777 504.902 211.777H502.862V204.261H505.129C505.893 204.261 506.551 204.402 507.103 204.683C507.654 204.96 508.079 205.373 508.377 205.922C508.679 206.467 508.83 207.142 508.83 207.947ZM507.91 207.978C507.91 207.303 507.797 206.746 507.57 206.307C507.348 205.869 507.019 205.543 506.583 205.331C506.152 205.115 505.622 205.007 504.995 205.007H503.735V211.026H504.8C505.835 211.026 506.611 210.771 507.128 210.26C507.649 209.75 507.91 208.989 507.91 207.978ZM510.069 208.564C510.069 208.112 510.099 207.67 510.161 207.238C510.226 206.806 510.334 206.405 510.485 206.035C510.636 205.661 510.841 205.334 511.102 205.053C511.362 204.772 511.686 204.553 512.073 204.395C512.464 204.234 512.932 204.153 513.477 204.153C513.631 204.153 513.797 204.162 513.975 204.179C514.154 204.193 514.301 204.217 514.418 204.251V204.986C514.291 204.942 514.145 204.909 513.981 204.888C513.82 204.868 513.657 204.858 513.492 204.858C512.855 204.858 512.353 204.996 511.986 205.274C511.623 205.552 511.361 205.929 511.2 206.405C511.038 206.878 510.946 207.411 510.922 208.004H510.979C511.085 207.832 511.22 207.678 511.385 207.541C511.549 207.401 511.748 207.289 511.981 207.207C512.217 207.125 512.492 207.084 512.803 207.084C513.242 207.084 513.624 207.173 513.95 207.351C514.279 207.529 514.532 207.788 514.711 208.127C514.892 208.466 514.983 208.878 514.983 209.361C514.983 209.878 514.887 210.326 514.695 210.702C514.503 211.079 514.229 211.371 513.873 211.576C513.52 211.779 513.098 211.88 512.608 211.88C512.241 211.88 511.904 211.809 511.595 211.669C511.287 211.528 511.018 211.319 510.788 211.042C510.562 210.764 510.386 210.42 510.259 210.009C510.132 209.594 510.069 209.112 510.069 208.564ZM512.598 211.16C513.064 211.16 513.437 211.011 513.718 210.713C513.999 210.415 514.14 209.964 514.14 209.361C514.14 208.867 514.015 208.477 513.765 208.189C513.515 207.901 513.138 207.757 512.634 207.757C512.291 207.757 511.993 207.829 511.739 207.973C511.486 208.113 511.289 208.292 511.148 208.507C511.008 208.723 510.937 208.943 510.937 209.165C510.937 209.392 510.97 209.621 511.035 209.854C511.104 210.087 511.206 210.303 511.344 210.502C511.481 210.701 511.654 210.86 511.863 210.98C512.072 211.1 512.317 211.16 512.598 211.16ZM518.391 207.181C518.902 207.181 519.346 207.269 519.723 207.443C520.1 207.615 520.391 207.865 520.597 208.194C520.806 208.523 520.91 208.922 520.91 209.392C520.91 209.906 520.799 210.349 520.576 210.723C520.353 211.093 520.033 211.379 519.615 211.582C519.197 211.78 518.696 211.88 518.114 211.88C517.723 211.88 517.36 211.845 517.024 211.777C516.688 211.708 516.405 211.606 516.176 211.468V210.656C516.426 210.807 516.729 210.927 517.086 211.016C517.442 211.105 517.788 211.15 518.124 211.15C518.504 211.15 518.837 211.09 519.121 210.97C519.409 210.846 519.632 210.661 519.789 210.415C519.951 210.164 520.031 209.851 520.031 209.474C520.031 208.974 519.877 208.588 519.568 208.317C519.263 208.043 518.78 207.906 518.119 207.906C517.906 207.906 517.673 207.923 517.42 207.957C517.166 207.992 516.957 208.029 516.793 208.071L516.361 207.788L516.649 204.261H520.386V205.043H517.379L517.188 207.31C517.319 207.282 517.486 207.255 517.692 207.227C517.898 207.197 518.131 207.181 518.391 207.181ZM525.763 204.924C525.348 204.924 524.975 204.996 524.642 205.14C524.313 205.281 524.032 205.487 523.799 205.757C523.569 206.025 523.393 206.348 523.27 206.729C523.146 207.109 523.085 207.538 523.085 208.014C523.085 208.645 523.182 209.193 523.378 209.659C523.576 210.122 523.871 210.48 524.262 210.733C524.656 210.987 525.148 211.114 525.737 211.114C526.073 211.114 526.388 211.086 526.683 211.031C526.981 210.973 527.271 210.901 527.552 210.816V211.576C527.278 211.679 526.99 211.755 526.688 211.803C526.387 211.854 526.028 211.88 525.614 211.88C524.849 211.88 524.21 211.722 523.696 211.407C523.186 211.088 522.802 210.639 522.545 210.06C522.291 209.481 522.164 208.797 522.164 208.009C522.164 207.44 522.243 206.921 522.401 206.451C522.562 205.978 522.795 205.57 523.1 205.228C523.408 204.885 523.785 204.621 524.231 204.436C524.68 204.248 525.194 204.153 525.773 204.153C526.153 204.153 526.52 204.191 526.873 204.266C527.226 204.342 527.545 204.45 527.829 204.59L527.48 205.331C527.24 205.221 526.976 205.127 526.688 205.048C526.404 204.966 526.095 204.924 525.763 204.924ZM531.047 207.181C531.558 207.181 532.002 207.269 532.379 207.443C532.756 207.615 533.047 207.865 533.253 208.194C533.462 208.523 533.566 208.922 533.566 209.392C533.566 209.906 533.455 210.349 533.232 210.723C533.009 211.093 532.689 211.379 532.271 211.582C531.853 211.78 531.352 211.88 530.77 211.88C530.379 211.88 530.016 211.845 529.68 211.777C529.344 211.708 529.061 211.606 528.832 211.468V210.656C529.082 210.807 529.385 210.927 529.742 211.016C530.098 211.105 530.444 211.15 530.78 211.15C531.16 211.15 531.493 211.09 531.777 210.97C532.065 210.846 532.288 210.661 532.446 210.415C532.607 210.164 532.687 209.851 532.687 209.474C532.687 208.974 532.533 208.588 532.224 208.317C531.919 208.043 531.436 207.906 530.775 207.906C530.562 207.906 530.329 207.923 530.076 207.957C529.822 207.992 529.613 208.029 529.449 208.071L529.017 207.788L529.305 204.261H533.042V205.043H530.035L529.844 207.31C529.975 207.282 530.143 207.255 530.348 207.227C530.554 207.197 530.787 207.181 531.047 207.181ZM538.419 204.924C538.004 204.924 537.631 204.996 537.298 205.14C536.969 205.281 536.688 205.487 536.455 205.757C536.226 206.025 536.049 206.348 535.926 206.729C535.802 207.109 535.741 207.538 535.741 208.014C535.741 208.645 535.838 209.193 536.034 209.659C536.232 210.122 536.527 210.48 536.918 210.733C537.312 210.987 537.804 211.114 538.393 211.114C538.729 211.114 539.044 211.086 539.339 211.031C539.637 210.973 539.927 210.901 540.208 210.816V211.576C539.934 211.679 539.646 211.755 539.344 211.803C539.043 211.854 538.684 211.88 538.27 211.88C537.506 211.88 536.866 211.722 536.352 211.407C535.842 211.088 535.458 210.639 535.201 210.06C534.947 209.481 534.82 208.797 534.82 208.009C534.82 207.44 534.899 206.921 535.057 206.451C535.218 205.978 535.451 205.57 535.756 205.228C536.064 204.885 536.441 204.621 536.887 204.436C537.336 204.248 537.85 204.153 538.429 204.153C538.81 204.153 539.176 204.191 539.529 204.266C539.882 204.342 540.201 204.45 540.485 204.59L540.136 205.331C539.896 205.221 539.632 205.127 539.344 205.048C539.06 204.966 538.751 204.924 538.419 204.924Z" fill="#101E37"/>
<rect x="546.275" y="101.64" width="32.8145" height="22.3414" rx="7.38037" stroke="#101E37" stroke-width="0.868279"/>
<path d="M556.901 114.799H555.601V116.811H554.639V114.799H550.443V113.968L554.574 108.086H555.601V113.908H556.901V114.799ZM554.639 113.908V111.071C554.639 110.854 554.641 110.658 554.645 110.484C554.649 110.305 554.655 110.141 554.663 109.991C554.671 109.837 554.677 109.69 554.681 109.552C554.689 109.413 554.695 109.277 554.699 109.142H554.651C554.576 109.3 554.489 109.469 554.39 109.647C554.295 109.821 554.198 109.977 554.099 110.116L551.422 113.908H554.639ZM558.028 116.193C558.028 115.917 558.096 115.721 558.23 115.606C558.365 115.487 558.529 115.428 558.723 115.428C558.925 115.428 559.095 115.487 559.233 115.606C559.372 115.721 559.441 115.917 559.441 116.193C559.441 116.467 559.372 116.666 559.233 116.793C559.095 116.916 558.925 116.977 558.723 116.977C558.529 116.977 558.365 116.916 558.23 116.793C558.096 116.666 558.028 116.467 558.028 116.193ZM566.297 110.157C566.297 110.545 566.221 110.881 566.071 111.166C565.921 111.451 565.711 111.684 565.442 111.867C565.173 112.045 564.856 112.169 564.492 112.24V112.288C565.181 112.375 565.697 112.597 566.041 112.953C566.39 113.309 566.564 113.776 566.564 114.353C566.564 114.856 566.445 115.301 566.207 115.689C565.974 116.077 565.614 116.381 565.127 116.603C564.644 116.821 564.025 116.93 563.269 116.93C562.81 116.93 562.385 116.892 561.993 116.817C561.605 116.746 561.234 116.625 560.877 116.455V115.529C561.237 115.707 561.629 115.847 562.053 115.95C562.476 116.049 562.886 116.099 563.281 116.099C564.073 116.099 564.644 115.942 564.997 115.63C565.349 115.313 565.525 114.882 565.525 114.336C565.525 113.96 565.426 113.657 565.228 113.428C565.034 113.194 564.753 113.024 564.385 112.917C564.021 112.806 563.582 112.751 563.068 112.751H562.201V111.908H563.074C563.544 111.908 563.944 111.839 564.273 111.7C564.601 111.562 564.85 111.368 565.02 111.119C565.194 110.865 565.282 110.567 565.282 110.222C565.282 109.783 565.135 109.445 564.842 109.207C564.55 108.966 564.152 108.845 563.649 108.845C563.341 108.845 563.06 108.877 562.806 108.94C562.553 109.004 562.316 109.091 562.094 109.201C561.873 109.312 561.651 109.441 561.429 109.587L560.931 108.911C561.247 108.665 561.633 108.454 562.088 108.276C562.543 108.097 563.06 108.008 563.637 108.008C564.524 108.008 565.189 108.21 565.632 108.614C566.075 109.017 566.297 109.532 566.297 110.157ZM573.585 111.831C573.585 112.357 573.548 112.87 573.473 113.368C573.401 113.867 573.277 114.332 573.099 114.763C572.924 115.194 572.687 115.572 572.386 115.897C572.086 116.221 571.708 116.476 571.253 116.662C570.802 116.844 570.261 116.935 569.632 116.935C569.462 116.935 569.268 116.924 569.051 116.9C568.833 116.88 568.655 116.85 568.516 116.811V115.956C568.663 116.008 568.835 116.049 569.033 116.081C569.231 116.108 569.425 116.122 569.614 116.122C570.354 116.122 570.936 115.964 571.36 115.647C571.783 115.327 572.088 114.894 572.274 114.348C572.46 113.798 572.564 113.18 572.588 112.496H572.517C572.398 112.686 572.242 112.862 572.048 113.024C571.858 113.182 571.627 113.311 571.354 113.41C571.081 113.505 570.762 113.552 570.398 113.552C569.895 113.552 569.456 113.449 569.08 113.244C568.708 113.038 568.417 112.739 568.208 112.347C568.002 111.956 567.899 111.483 567.899 110.929C567.899 110.331 568.012 109.815 568.237 109.38C568.467 108.94 568.787 108.602 569.199 108.365C569.611 108.127 570.095 108.008 570.653 108.008C571.081 108.008 571.472 108.09 571.828 108.252C572.185 108.414 572.493 108.657 572.754 108.982C573.019 109.302 573.223 109.7 573.366 110.175C573.512 110.65 573.585 111.202 573.585 111.831ZM570.653 108.845C570.127 108.845 569.7 109.017 569.371 109.362C569.047 109.706 568.884 110.224 568.884 110.917C568.884 111.491 569.025 111.944 569.306 112.276C569.587 112.608 570.02 112.775 570.606 112.775C571.009 112.775 571.358 112.694 571.65 112.531C571.947 112.369 572.175 112.163 572.333 111.914C572.495 111.665 572.576 111.409 572.576 111.148C572.576 110.887 572.537 110.622 572.458 110.353C572.382 110.084 572.266 109.837 572.107 109.611C571.949 109.382 571.749 109.198 571.508 109.059C571.267 108.917 570.982 108.845 570.653 108.845Z" fill="#101E37"/>
</g>
<path d="M487.236 61.0742H637.708V59.0742H487.236V61.0742ZM644.708 68.0742V223.569H646.708V68.0742H644.708ZM637.708 230.569H487.236V232.569H637.708V230.569ZM480.236 223.569V68.0742H478.236V223.569H480.236ZM487.236 230.569C483.37 230.569 480.236 227.435 480.236 223.569H478.236C478.236 228.539 482.266 232.569 487.236 232.569V230.569ZM644.708 223.569C644.708 227.435 641.574 230.569 637.708 230.569V232.569C642.679 232.569 646.708 228.539 646.708 223.569H644.708ZM637.708 61.0742C641.574 61.0742 644.708 64.2082 644.708 68.0742H646.708C646.708 63.1037 642.679 59.0742 637.708 59.0742V61.0742ZM487.236 59.0742C482.266 59.0742 478.236 63.1036 478.236 68.0742H480.236C480.236 64.2082 483.37 61.0742 487.236 61.0742V59.0742Z" fill="#101E37" mask="url(#path-20-outside-3_26196_8371)"/>
<path d="M502.486 252.327C502.161 252.002 501.636 252.002 501.311 252.327L497.236 256.394L493.161 252.319C492.836 251.994 492.311 251.994 491.986 252.319C491.661 252.644 491.661 253.169 491.986 253.494L496.061 257.569L491.986 261.644C491.661 261.969 491.661 262.494 491.986 262.819C492.311 263.144 492.836 263.144 493.161 262.819L497.236 258.744L501.311 262.819C501.636 263.144 502.161 263.144 502.486 262.819C502.811 262.494 502.811 261.969 502.486 261.644L498.411 257.569L502.486 253.494C502.803 253.177 502.803 252.644 502.486 252.327Z" fill="#CC3333"/>
<path d="M520.889 262.569H518.872L513.978 254.591H513.916C513.934 254.86 513.95 255.145 513.964 255.446C513.982 255.746 513.996 256.056 514.005 256.375C514.019 256.694 514.03 257.018 514.039 257.346V262.569H512.549V252.574H514.552L519.439 260.497H519.487C519.478 260.265 519.467 259.998 519.453 259.698C519.439 259.397 519.426 259.087 519.412 258.768C519.403 258.444 519.396 258.132 519.392 257.831V252.574H520.889V262.569ZM530.049 258.768C530.049 259.397 529.967 259.955 529.803 260.443C529.639 260.93 529.399 261.343 529.085 261.68C528.771 262.013 528.392 262.268 527.95 262.446C527.508 262.619 527.009 262.705 526.453 262.705C525.934 262.705 525.457 262.619 525.024 262.446C524.591 262.268 524.215 262.013 523.896 261.68C523.582 261.343 523.338 260.93 523.165 260.443C522.992 259.955 522.905 259.397 522.905 258.768C522.905 257.934 523.049 257.227 523.336 256.649C523.628 256.065 524.042 255.621 524.58 255.316C525.118 255.01 525.758 254.858 526.501 254.858C527.198 254.858 527.813 255.01 528.347 255.316C528.88 255.621 529.297 256.065 529.598 256.649C529.898 257.232 530.049 257.938 530.049 258.768ZM524.56 258.768C524.56 259.319 524.626 259.791 524.758 260.183C524.895 260.575 525.104 260.876 525.387 261.085C525.669 261.29 526.034 261.393 526.48 261.393C526.927 261.393 527.292 261.29 527.574 261.085C527.857 260.876 528.064 260.575 528.196 260.183C528.328 259.791 528.395 259.319 528.395 258.768C528.395 258.216 528.328 257.749 528.196 257.366C528.064 256.979 527.857 256.685 527.574 256.485C527.292 256.28 526.925 256.177 526.474 256.177C525.808 256.177 525.323 256.4 525.018 256.847C524.712 257.294 524.56 257.934 524.56 258.768ZM538.546 254.858C539.22 254.858 539.799 254.997 540.282 255.275C540.765 255.553 541.137 255.947 541.396 256.457C541.656 256.968 541.786 257.578 541.786 258.289V259.151H536.734C536.753 259.884 536.949 260.449 537.322 260.846C537.701 261.242 538.229 261.441 538.908 261.441C539.391 261.441 539.824 261.395 540.207 261.304C540.594 261.208 540.993 261.069 541.403 260.887V262.193C541.025 262.37 540.64 262.5 540.248 262.582C539.856 262.664 539.387 262.705 538.84 262.705C538.097 262.705 537.443 262.562 536.878 262.275C536.317 261.983 535.878 261.55 535.559 260.976C535.244 260.402 535.087 259.688 535.087 258.836C535.087 257.989 535.23 257.268 535.518 256.676C535.805 256.084 536.208 255.632 536.728 255.323C537.247 255.013 537.853 254.858 538.546 254.858ZM538.546 256.068C538.04 256.068 537.63 256.232 537.315 256.56C537.006 256.888 536.823 257.369 536.769 258.002H540.214C540.209 257.624 540.146 257.289 540.022 256.997C539.904 256.706 539.722 256.478 539.476 256.314C539.234 256.15 538.924 256.068 538.546 256.068ZM548.684 260.408C548.684 260.905 548.563 261.324 548.321 261.666C548.08 262.008 547.727 262.268 547.262 262.446C546.801 262.619 546.236 262.705 545.566 262.705C545.038 262.705 544.582 262.667 544.199 262.589C543.821 262.516 543.463 262.402 543.126 262.247V260.86C543.486 261.028 543.889 261.174 544.336 261.297C544.787 261.42 545.213 261.482 545.614 261.482C546.143 261.482 546.523 261.4 546.756 261.236C546.988 261.067 547.104 260.844 547.104 260.566C547.104 260.402 547.057 260.256 546.961 260.128C546.87 259.996 546.697 259.862 546.441 259.725C546.191 259.584 545.822 259.415 545.334 259.219C544.855 259.028 544.452 258.836 544.124 258.645C543.796 258.453 543.548 258.223 543.379 257.954C543.21 257.681 543.126 257.332 543.126 256.908C543.126 256.239 543.39 255.73 543.919 255.384C544.452 255.033 545.156 254.858 546.031 254.858C546.496 254.858 546.934 254.906 547.344 255.001C547.758 255.092 548.164 255.227 548.561 255.405L548.055 256.615C547.713 256.464 547.369 256.341 547.022 256.245C546.681 256.145 546.332 256.095 545.977 256.095C545.562 256.095 545.245 256.159 545.026 256.286C544.812 256.414 544.705 256.596 544.705 256.833C544.705 257.011 544.757 257.161 544.862 257.284C544.967 257.407 545.147 257.531 545.402 257.654C545.662 257.777 546.022 257.929 546.482 258.112C546.934 258.285 547.323 258.467 547.651 258.658C547.984 258.845 548.239 259.075 548.417 259.349C548.595 259.622 548.684 259.976 548.684 260.408ZM557.023 254.858C557.98 254.858 558.703 255.07 559.19 255.493C559.683 255.917 559.929 256.578 559.929 257.476V262.569H558.787L558.479 261.495H558.425C558.211 261.769 557.99 261.994 557.762 262.172C557.534 262.35 557.27 262.482 556.969 262.569C556.673 262.66 556.31 262.705 555.882 262.705C555.431 262.705 555.027 262.623 554.672 262.459C554.316 262.291 554.036 262.035 553.831 261.694C553.626 261.352 553.523 260.919 553.523 260.395C553.523 259.615 553.813 259.03 554.392 258.638C554.975 258.246 555.854 258.03 557.03 257.989L558.343 257.941V257.544C558.343 257.02 558.22 256.646 557.974 256.423C557.732 256.2 557.39 256.088 556.948 256.088C556.57 256.088 556.203 256.143 555.848 256.252C555.492 256.362 555.146 256.496 554.809 256.656L554.289 255.521C554.658 255.325 555.077 255.165 555.547 255.042C556.021 254.919 556.513 254.858 557.023 254.858ZM558.336 258.952L557.358 258.987C556.556 259.014 555.993 259.151 555.67 259.397C555.346 259.643 555.185 259.98 555.185 260.408C555.185 260.782 555.296 261.056 555.52 261.229C555.743 261.397 556.037 261.482 556.401 261.482C556.957 261.482 557.418 261.324 557.782 261.01C558.151 260.691 558.336 260.224 558.336 259.609V258.952ZM565.227 262.705C564.511 262.705 563.891 262.566 563.367 262.288C562.843 262.01 562.44 261.584 562.157 261.01C561.875 260.436 561.733 259.707 561.733 258.823C561.733 257.902 561.888 257.15 562.198 256.567C562.508 255.983 562.937 255.553 563.483 255.275C564.035 254.997 564.666 254.858 565.377 254.858C565.828 254.858 566.236 254.903 566.601 254.994C566.97 255.081 567.282 255.188 567.537 255.316L567.059 256.601C566.781 256.487 566.496 256.391 566.204 256.314C565.912 256.236 565.632 256.198 565.363 256.198C564.921 256.198 564.552 256.295 564.256 256.491C563.964 256.687 563.745 256.979 563.6 257.366C563.458 257.754 563.388 258.235 563.388 258.809C563.388 259.365 563.461 259.834 563.606 260.217C563.752 260.595 563.969 260.882 564.256 261.078C564.543 261.27 564.896 261.365 565.315 261.365C565.73 261.365 566.102 261.315 566.43 261.215C566.758 261.115 567.068 260.985 567.359 260.825V262.22C567.072 262.384 566.765 262.505 566.437 262.582C566.108 262.664 565.705 262.705 565.227 262.705ZM572.186 262.705C571.47 262.705 570.85 262.566 570.326 262.288C569.802 262.01 569.399 261.584 569.116 261.01C568.834 260.436 568.692 259.707 568.692 258.823C568.692 257.902 568.847 257.15 569.157 256.567C569.467 255.983 569.896 255.553 570.442 255.275C570.994 254.997 571.625 254.858 572.336 254.858C572.787 254.858 573.195 254.903 573.56 254.994C573.929 255.081 574.241 255.188 574.496 255.316L574.018 256.601C573.74 256.487 573.455 256.391 573.163 256.314C572.871 256.236 572.591 256.198 572.322 256.198C571.88 256.198 571.511 256.295 571.215 256.491C570.923 256.687 570.704 256.979 570.559 257.366C570.417 257.754 570.347 258.235 570.347 258.809C570.347 259.365 570.42 259.834 570.565 260.217C570.711 260.595 570.928 260.882 571.215 261.078C571.502 261.27 571.855 261.365 572.274 261.365C572.689 261.365 573.061 261.315 573.389 261.215C573.717 261.115 574.027 260.985 574.318 260.825V262.22C574.031 262.384 573.724 262.505 573.396 262.582C573.067 262.664 572.664 262.705 572.186 262.705ZM579.11 254.858C579.785 254.858 580.364 254.997 580.847 255.275C581.33 255.553 581.701 255.947 581.961 256.457C582.221 256.968 582.351 257.578 582.351 258.289V259.151H577.299C577.317 259.884 577.513 260.449 577.887 260.846C578.265 261.242 578.794 261.441 579.473 261.441C579.956 261.441 580.389 261.395 580.771 261.304C581.159 261.208 581.558 261.069 581.968 260.887V262.193C581.59 262.37 581.204 262.5 580.812 262.582C580.421 262.664 579.951 262.705 579.404 262.705C578.661 262.705 578.007 262.562 577.442 262.275C576.882 261.983 576.442 261.55 576.123 260.976C575.809 260.402 575.651 259.688 575.651 258.836C575.651 257.989 575.795 257.268 576.082 256.676C576.369 256.084 576.772 255.632 577.292 255.323C577.812 255.013 578.418 254.858 579.11 254.858ZM579.11 256.068C578.604 256.068 578.194 256.232 577.88 256.56C577.57 256.888 577.388 257.369 577.333 258.002H580.778C580.774 257.624 580.71 257.289 580.587 256.997C580.468 256.706 580.286 256.478 580.04 256.314C579.799 256.15 579.489 256.068 579.11 256.068ZM589.248 260.408C589.248 260.905 589.127 261.324 588.886 261.666C588.644 262.008 588.291 262.268 587.826 262.446C587.366 262.619 586.801 262.705 586.131 262.705C585.602 262.705 585.146 262.667 584.764 262.589C584.385 262.516 584.028 262.402 583.69 262.247V260.86C584.05 261.028 584.454 261.174 584.9 261.297C585.352 261.42 585.778 261.482 586.179 261.482C586.707 261.482 587.088 261.4 587.32 261.236C587.553 261.067 587.669 260.844 587.669 260.566C587.669 260.402 587.621 260.256 587.525 260.128C587.434 259.996 587.261 259.862 587.006 259.725C586.755 259.584 586.386 259.415 585.898 259.219C585.42 259.028 585.017 258.836 584.688 258.645C584.36 258.453 584.112 258.223 583.943 257.954C583.775 257.681 583.69 257.332 583.69 256.908C583.69 256.239 583.955 255.73 584.483 255.384C585.017 255.033 585.721 254.858 586.596 254.858C587.061 254.858 587.498 254.906 587.908 255.001C588.323 255.092 588.729 255.227 589.125 255.405L588.619 256.615C588.277 256.464 587.933 256.341 587.587 256.245C587.245 256.145 586.896 256.095 586.541 256.095C586.126 256.095 585.81 256.159 585.591 256.286C585.377 256.414 585.27 256.596 585.27 256.833C585.27 257.011 585.322 257.161 585.427 257.284C585.532 257.407 585.712 257.531 585.967 257.654C586.227 257.777 586.587 257.929 587.047 258.112C587.498 258.285 587.888 258.467 588.216 258.658C588.549 258.845 588.804 259.075 588.981 259.349C589.159 259.622 589.248 259.976 589.248 260.408ZM592.591 255.001V262.569H590.984V255.001H592.591ZM591.798 252.103C592.044 252.103 592.256 252.169 592.434 252.301C592.616 252.433 592.707 252.661 592.707 252.985C592.707 253.304 592.616 253.531 592.434 253.668C592.256 253.8 592.044 253.866 591.798 253.866C591.543 253.866 591.326 253.8 591.148 253.668C590.975 253.531 590.889 253.304 590.889 252.985C590.889 252.661 590.975 252.433 591.148 252.301C591.326 252.169 591.543 252.103 591.798 252.103ZM596.501 251.932V254.495C596.501 254.792 596.492 255.083 596.474 255.37C596.46 255.653 596.446 255.874 596.433 256.033H596.501C596.706 255.705 596.991 255.43 597.355 255.206C597.725 254.978 598.196 254.865 598.771 254.865C599.668 254.865 600.391 255.195 600.938 255.856C601.484 256.512 601.758 257.485 601.758 258.775C601.758 259.631 601.632 260.351 601.382 260.935C601.131 261.518 600.778 261.96 600.322 262.261C599.871 262.557 599.34 262.705 598.729 262.705C598.155 262.705 597.69 262.601 597.335 262.391C596.984 262.177 596.708 261.928 596.508 261.646H596.392L596.098 262.569H594.895V251.932H596.501ZM598.347 256.17C597.891 256.17 597.529 256.261 597.26 256.444C596.995 256.626 596.804 256.899 596.686 257.264C596.567 257.624 596.506 258.082 596.501 258.638V258.781C596.501 259.625 596.633 260.269 596.897 260.716C597.166 261.163 597.654 261.386 598.36 261.386C598.921 261.386 599.352 261.16 599.652 260.709C599.953 260.253 600.104 259.602 600.104 258.754C600.104 257.897 599.953 257.253 599.652 256.82C599.356 256.387 598.921 256.17 598.347 256.17ZM605.23 262.569H603.617V251.932H605.23V262.569ZM610.542 254.858C611.216 254.858 611.795 254.997 612.278 255.275C612.761 255.553 613.133 255.947 613.393 256.457C613.652 256.968 613.782 257.578 613.782 258.289V259.151H608.73C608.749 259.884 608.945 260.449 609.318 260.846C609.697 261.242 610.225 261.441 610.904 261.441C611.387 261.441 611.82 261.395 612.203 261.304C612.59 261.208 612.989 261.069 613.399 260.887V262.193C613.021 262.37 612.636 262.5 612.244 262.582C611.852 262.664 611.383 262.705 610.836 262.705C610.093 262.705 609.439 262.562 608.874 262.275C608.313 261.983 607.874 261.55 607.555 260.976C607.24 260.402 607.083 259.688 607.083 258.836C607.083 257.989 607.227 257.268 607.514 256.676C607.801 256.084 608.204 255.632 608.724 255.323C609.243 255.013 609.849 254.858 610.542 254.858ZM610.542 256.068C610.036 256.068 609.626 256.232 609.312 256.56C609.002 256.888 608.819 257.369 608.765 258.002H612.21C612.205 257.624 612.142 257.289 612.019 256.997C611.9 256.706 611.718 256.478 611.472 256.314C611.23 256.15 610.92 256.068 610.542 256.068Z" fill="#101E37"/>
<defs>
<clipPath id="clip0_26196_8371">
<path d="M82.291 68.0742C82.291 63.6559 85.8727 60.0742 90.291 60.0742H240.763C245.181 60.0742 248.763 63.6559 248.763 68.0742V223.569C248.763 227.987 245.181 231.569 240.763 231.569H90.291C85.8727 231.569 82.291 227.987 82.291 223.569V68.0742Z" fill="white"/>
</clipPath>
<clipPath id="clip1_26196_8371">
<path d="M280.764 68.0742C280.764 63.6559 284.345 60.0742 288.764 60.0742H439.236C443.654 60.0742 447.236 63.6559 447.236 68.0742V223.569C447.236 227.987 443.654 231.569 439.236 231.569H288.764C284.345 231.569 280.764 227.987 280.764 223.569V68.0742Z" fill="white"/>
</clipPath>
<clipPath id="clip2_26196_8371">
<path d="M479.236 68.0742C479.236 63.6559 482.818 60.0742 487.236 60.0742H637.708C642.127 60.0742 645.708 63.6559 645.708 68.0742V223.569C645.708 227.987 642.127 231.569 637.708 231.569H487.236C482.818 231.569 479.236 227.987 479.236 223.569V68.0742Z" fill="white"/>
</clipPath>
</defs>
</svg>
