<svg width="348" height="242" viewBox="0 0 348 242" fill="none" xmlns="http://www.w3.org/2000/svg">
<rect x="1" y="1" width="346" height="240" rx="7" fill="#F3F6F9"/>
<rect x="1" y="1" width="346" height="240" rx="7" stroke="#E6EBF0" stroke-width="2"/>
<rect x="73" y="97" width="202" height="48" rx="8" fill="#336ACC"/>
<path d="M98.76 127.18C98.232 127.18 97.704 127.138 97.176 127.054C96.648 126.982 96.15 126.868 95.682 126.712C95.214 126.544 94.794 126.34 94.422 126.1C94.206 125.956 94.056 125.782 93.972 125.578C93.888 125.374 93.858 125.176 93.882 124.984C93.918 124.78 93.996 124.606 94.116 124.462C94.248 124.306 94.41 124.21 94.602 124.174C94.794 124.138 95.004 124.192 95.232 124.336C95.76 124.648 96.318 124.876 96.906 125.02C97.494 125.164 98.112 125.236 98.76 125.236C99.708 125.236 100.398 125.08 100.83 124.768C101.262 124.444 101.478 124.03 101.478 123.526C101.478 123.106 101.322 122.776 101.01 122.536C100.71 122.296 100.188 122.098 99.444 121.942L97.464 121.528C96.324 121.288 95.472 120.886 94.908 120.322C94.356 119.746 94.08 118.99 94.08 118.054C94.08 117.466 94.2 116.932 94.44 116.452C94.68 115.972 95.016 115.558 95.448 115.21C95.892 114.862 96.414 114.598 97.014 114.418C97.626 114.226 98.298 114.13 99.03 114.13C99.75 114.13 100.434 114.22 101.082 114.4C101.73 114.58 102.312 114.844 102.828 115.192C103.02 115.324 103.146 115.486 103.206 115.678C103.278 115.87 103.296 116.062 103.26 116.254C103.224 116.434 103.14 116.59 103.008 116.722C102.876 116.854 102.708 116.932 102.504 116.956C102.312 116.98 102.09 116.92 101.838 116.776C101.394 116.524 100.944 116.344 100.488 116.236C100.032 116.128 99.54 116.074 99.012 116.074C98.46 116.074 97.986 116.152 97.59 116.308C97.194 116.464 96.888 116.686 96.672 116.974C96.468 117.25 96.366 117.58 96.366 117.964C96.366 118.396 96.51 118.744 96.798 119.008C97.086 119.26 97.578 119.458 98.274 119.602L100.236 120.016C101.424 120.268 102.306 120.664 102.882 121.204C103.47 121.744 103.764 122.464 103.764 123.364C103.764 123.94 103.644 124.462 103.404 124.93C103.176 125.398 102.84 125.8 102.396 126.136C101.964 126.472 101.442 126.73 100.83 126.91C100.218 127.09 99.528 127.18 98.76 127.18ZM109.539 127.18C108.627 127.18 107.835 126.994 107.163 126.622C106.491 126.25 105.969 125.722 105.597 125.038C105.225 124.342 105.039 123.526 105.039 122.59C105.039 121.882 105.141 121.252 105.345 120.7C105.561 120.136 105.867 119.656 106.263 119.26C106.659 118.852 107.133 118.546 107.685 118.342C108.237 118.126 108.855 118.018 109.539 118.018C110.451 118.018 111.243 118.204 111.915 118.576C112.587 118.948 113.109 119.476 113.481 120.16C113.853 120.844 114.039 121.654 114.039 122.59C114.039 123.298 113.931 123.934 113.715 124.498C113.511 125.062 113.211 125.548 112.815 125.956C112.419 126.352 111.945 126.658 111.393 126.874C110.841 127.078 110.223 127.18 109.539 127.18ZM109.539 125.47C109.983 125.47 110.373 125.362 110.709 125.146C111.045 124.93 111.303 124.612 111.483 124.192C111.675 123.76 111.771 123.226 111.771 122.59C111.771 121.63 111.567 120.916 111.159 120.448C110.751 119.968 110.211 119.728 109.539 119.728C109.095 119.728 108.705 119.836 108.369 120.052C108.033 120.256 107.769 120.574 107.577 121.006C107.397 121.426 107.307 121.954 107.307 122.59C107.307 123.538 107.511 124.258 107.919 124.75C108.327 125.23 108.867 125.47 109.539 125.47ZM118.903 127.18C117.907 127.18 117.157 126.898 116.653 126.334C116.149 125.758 115.897 124.918 115.897 123.814V115.3C115.897 114.928 115.993 114.646 116.185 114.454C116.377 114.262 116.653 114.166 117.013 114.166C117.373 114.166 117.649 114.262 117.841 114.454C118.045 114.646 118.147 114.928 118.147 115.3V123.706C118.147 124.258 118.261 124.666 118.489 124.93C118.729 125.194 119.065 125.326 119.497 125.326C119.593 125.326 119.683 125.326 119.767 125.326C119.851 125.314 119.935 125.302 120.019 125.29C120.187 125.266 120.301 125.314 120.361 125.434C120.421 125.542 120.451 125.77 120.451 126.118C120.451 126.418 120.391 126.652 120.271 126.82C120.151 126.988 119.953 127.09 119.677 127.126C119.557 127.138 119.431 127.15 119.299 127.162C119.167 127.174 119.035 127.18 118.903 127.18ZM122.761 127.126C122.401 127.126 122.125 127.018 121.933 126.802C121.741 126.586 121.645 126.286 121.645 125.902V119.296C121.645 118.9 121.741 118.6 121.933 118.396C122.125 118.18 122.401 118.072 122.761 118.072C123.121 118.072 123.397 118.18 123.589 118.396C123.793 118.6 123.895 118.9 123.895 119.296V125.902C123.895 126.286 123.799 126.586 123.607 126.802C123.415 127.018 123.133 127.126 122.761 127.126ZM122.761 116.398C122.341 116.398 122.011 116.296 121.771 116.092C121.543 115.876 121.429 115.582 121.429 115.21C121.429 114.826 121.543 114.532 121.771 114.328C122.011 114.124 122.341 114.022 122.761 114.022C123.193 114.022 123.523 114.124 123.751 114.328C123.979 114.532 124.093 114.826 124.093 115.21C124.093 115.582 123.979 115.876 123.751 116.092C123.523 116.296 123.193 116.398 122.761 116.398ZM130.301 127.18C129.377 127.18 128.573 126.994 127.889 126.622C127.205 126.238 126.677 125.698 126.305 125.002C125.933 124.306 125.747 123.49 125.747 122.554C125.747 121.846 125.849 121.216 126.053 120.664C126.269 120.1 126.575 119.626 126.971 119.242C127.367 118.846 127.847 118.546 128.411 118.342C128.975 118.126 129.605 118.018 130.301 118.018C130.697 118.018 131.123 118.072 131.579 118.18C132.047 118.288 132.485 118.468 132.893 118.72C133.085 118.84 133.211 118.984 133.271 119.152C133.331 119.32 133.343 119.494 133.307 119.674C133.271 119.842 133.193 119.992 133.073 120.124C132.965 120.244 132.827 120.322 132.659 120.358C132.491 120.382 132.305 120.34 132.101 120.232C131.837 120.076 131.567 119.962 131.291 119.89C131.015 119.806 130.751 119.764 130.499 119.764C130.103 119.764 129.755 119.83 129.455 119.962C129.155 120.082 128.897 120.262 128.681 120.502C128.477 120.73 128.321 121.018 128.213 121.366C128.105 121.714 128.051 122.116 128.051 122.572C128.051 123.46 128.261 124.162 128.681 124.678C129.113 125.182 129.719 125.434 130.499 125.434C130.751 125.434 131.009 125.398 131.273 125.326C131.549 125.254 131.825 125.14 132.101 124.984C132.305 124.876 132.485 124.84 132.641 124.876C132.809 124.912 132.947 124.996 133.055 125.128C133.163 125.248 133.229 125.398 133.253 125.578C133.277 125.746 133.253 125.914 133.181 126.082C133.121 126.25 133.001 126.388 132.821 126.496C132.425 126.736 132.005 126.91 131.561 127.018C131.117 127.126 130.697 127.18 130.301 127.18ZM135.839 127.126C135.479 127.126 135.203 127.018 135.011 126.802C134.819 126.586 134.723 126.286 134.723 125.902V119.296C134.723 118.9 134.819 118.6 135.011 118.396C135.203 118.18 135.479 118.072 135.839 118.072C136.199 118.072 136.475 118.18 136.667 118.396C136.871 118.6 136.973 118.9 136.973 119.296V125.902C136.973 126.286 136.877 126.586 136.685 126.802C136.493 127.018 136.211 127.126 135.839 127.126ZM135.839 116.398C135.419 116.398 135.089 116.296 134.849 116.092C134.621 115.876 134.507 115.582 134.507 115.21C134.507 114.826 134.621 114.532 134.849 114.328C135.089 114.124 135.419 114.022 135.839 114.022C136.271 114.022 136.601 114.124 136.829 114.328C137.057 114.532 137.171 114.826 137.171 115.21C137.171 115.582 137.057 115.876 136.829 116.092C136.601 116.296 136.271 116.398 135.839 116.398ZM143.343 127.18C142.563 127.18 141.909 127.048 141.381 126.784C140.865 126.52 140.481 126.136 140.229 125.632C139.977 125.116 139.851 124.48 139.851 123.724V119.89H138.915C138.627 119.89 138.405 119.818 138.249 119.674C138.093 119.518 138.015 119.308 138.015 119.044C138.015 118.768 138.093 118.558 138.249 118.414C138.405 118.27 138.627 118.198 138.915 118.198H139.851V116.56C139.851 116.188 139.947 115.906 140.139 115.714C140.343 115.522 140.625 115.426 140.985 115.426C141.345 115.426 141.621 115.522 141.813 115.714C142.005 115.906 142.101 116.188 142.101 116.56V118.198H144.009C144.297 118.198 144.519 118.27 144.675 118.414C144.831 118.558 144.909 118.768 144.909 119.044C144.909 119.308 144.831 119.518 144.675 119.674C144.519 119.818 144.297 119.89 144.009 119.89H142.101V123.598C142.101 124.174 142.227 124.606 142.479 124.894C142.731 125.182 143.139 125.326 143.703 125.326C143.907 125.326 144.087 125.308 144.243 125.272C144.399 125.236 144.537 125.212 144.657 125.2C144.801 125.188 144.921 125.236 145.017 125.344C145.113 125.44 145.161 125.644 145.161 125.956C145.161 126.196 145.119 126.412 145.035 126.604C144.963 126.784 144.825 126.91 144.621 126.982C144.465 127.03 144.261 127.072 144.009 127.108C143.757 127.156 143.535 127.18 143.343 127.18ZM149.117 127.18C148.481 127.18 147.911 127.06 147.407 126.82C146.915 126.568 146.525 126.232 146.237 125.812C145.961 125.392 145.823 124.918 145.823 124.39C145.823 123.742 145.991 123.232 146.327 122.86C146.663 122.476 147.209 122.2 147.965 122.032C148.721 121.864 149.735 121.78 151.007 121.78H151.907V123.076H151.025C150.281 123.076 149.687 123.112 149.243 123.184C148.799 123.256 148.481 123.382 148.289 123.562C148.109 123.73 148.019 123.97 148.019 124.282C148.019 124.678 148.157 125.002 148.433 125.254C148.709 125.506 149.093 125.632 149.585 125.632C149.981 125.632 150.329 125.542 150.629 125.362C150.941 125.17 151.187 124.912 151.367 124.588C151.547 124.264 151.637 123.892 151.637 123.472V121.402C151.637 120.802 151.505 120.37 151.241 120.106C150.977 119.842 150.533 119.71 149.909 119.71C149.561 119.71 149.183 119.752 148.775 119.836C148.379 119.92 147.959 120.064 147.515 120.268C147.287 120.376 147.083 120.406 146.903 120.358C146.735 120.31 146.603 120.214 146.507 120.07C146.411 119.914 146.363 119.746 146.363 119.566C146.363 119.386 146.411 119.212 146.507 119.044C146.603 118.864 146.765 118.732 146.993 118.648C147.545 118.42 148.073 118.258 148.577 118.162C149.093 118.066 149.561 118.018 149.981 118.018C150.845 118.018 151.553 118.15 152.105 118.414C152.669 118.678 153.089 119.08 153.365 119.62C153.641 120.148 153.779 120.832 153.779 121.672V125.992C153.779 126.364 153.689 126.652 153.509 126.856C153.329 127.048 153.071 127.144 152.735 127.144C152.399 127.144 152.135 127.048 151.943 126.856C151.763 126.652 151.673 126.364 151.673 125.992V125.128H151.817C151.733 125.548 151.565 125.914 151.313 126.226C151.073 126.526 150.767 126.76 150.395 126.928C150.023 127.096 149.597 127.18 149.117 127.18ZM157.215 127.144C156.843 127.144 156.555 127.048 156.351 126.856C156.159 126.652 156.063 126.364 156.063 125.992V119.188C156.063 118.816 156.159 118.534 156.351 118.342C156.543 118.15 156.813 118.054 157.161 118.054C157.509 118.054 157.779 118.15 157.971 118.342C158.163 118.534 158.259 118.816 158.259 119.188V120.322H158.079C158.247 119.602 158.577 119.056 159.069 118.684C159.561 118.312 160.215 118.09 161.031 118.018C161.283 117.994 161.481 118.06 161.625 118.216C161.781 118.36 161.871 118.588 161.895 118.9C161.919 119.2 161.847 119.446 161.679 119.638C161.523 119.818 161.283 119.926 160.959 119.962L160.563 119.998C159.831 120.07 159.279 120.298 158.907 120.682C158.535 121.054 158.349 121.582 158.349 122.266V125.992C158.349 126.364 158.253 126.652 158.061 126.856C157.869 127.048 157.587 127.144 157.215 127.144ZM172.066 127.18C171.142 127.18 170.338 126.994 169.654 126.622C168.97 126.238 168.442 125.698 168.07 125.002C167.698 124.306 167.512 123.49 167.512 122.554C167.512 121.846 167.614 121.216 167.818 120.664C168.034 120.1 168.34 119.626 168.736 119.242C169.132 118.846 169.612 118.546 170.176 118.342C170.74 118.126 171.37 118.018 172.066 118.018C172.462 118.018 172.888 118.072 173.344 118.18C173.812 118.288 174.25 118.468 174.658 118.72C174.85 118.84 174.976 118.984 175.036 119.152C175.096 119.32 175.108 119.494 175.072 119.674C175.036 119.842 174.958 119.992 174.838 120.124C174.73 120.244 174.592 120.322 174.424 120.358C174.256 120.382 174.07 120.34 173.866 120.232C173.602 120.076 173.332 119.962 173.056 119.89C172.78 119.806 172.516 119.764 172.264 119.764C171.868 119.764 171.52 119.83 171.22 119.962C170.92 120.082 170.662 120.262 170.446 120.502C170.242 120.73 170.086 121.018 169.978 121.366C169.87 121.714 169.816 122.116 169.816 122.572C169.816 123.46 170.026 124.162 170.446 124.678C170.878 125.182 171.484 125.434 172.264 125.434C172.516 125.434 172.774 125.398 173.038 125.326C173.314 125.254 173.59 125.14 173.866 124.984C174.07 124.876 174.25 124.84 174.406 124.876C174.574 124.912 174.712 124.996 174.82 125.128C174.928 125.248 174.994 125.398 175.018 125.578C175.042 125.746 175.018 125.914 174.946 126.082C174.886 126.25 174.766 126.388 174.586 126.496C174.19 126.736 173.77 126.91 173.326 127.018C172.882 127.126 172.462 127.18 172.066 127.18ZM180.327 127.18C179.415 127.18 178.623 126.994 177.951 126.622C177.279 126.25 176.757 125.722 176.385 125.038C176.013 124.342 175.827 123.526 175.827 122.59C175.827 121.882 175.929 121.252 176.133 120.7C176.349 120.136 176.655 119.656 177.051 119.26C177.447 118.852 177.921 118.546 178.473 118.342C179.025 118.126 179.643 118.018 180.327 118.018C181.239 118.018 182.031 118.204 182.703 118.576C183.375 118.948 183.897 119.476 184.269 120.16C184.641 120.844 184.827 121.654 184.827 122.59C184.827 123.298 184.719 123.934 184.503 124.498C184.299 125.062 183.999 125.548 183.603 125.956C183.207 126.352 182.733 126.658 182.181 126.874C181.629 127.078 181.011 127.18 180.327 127.18ZM180.327 125.47C180.771 125.47 181.161 125.362 181.497 125.146C181.833 124.93 182.091 124.612 182.271 124.192C182.463 123.76 182.559 123.226 182.559 122.59C182.559 121.63 182.355 120.916 181.947 120.448C181.539 119.968 180.999 119.728 180.327 119.728C179.883 119.728 179.493 119.836 179.157 120.052C178.821 120.256 178.557 120.574 178.365 121.006C178.185 121.426 178.095 121.954 178.095 122.59C178.095 123.538 178.299 124.258 178.707 124.75C179.115 125.23 179.655 125.47 180.327 125.47ZM187.8 127.144C187.44 127.144 187.164 127.048 186.972 126.856C186.78 126.652 186.684 126.364 186.684 125.992V119.188C186.684 118.816 186.78 118.534 186.972 118.342C187.164 118.15 187.434 118.054 187.782 118.054C188.13 118.054 188.4 118.15 188.592 118.342C188.784 118.534 188.88 118.816 188.88 119.188V120.412L188.682 119.962C188.946 119.326 189.354 118.846 189.906 118.522C190.47 118.186 191.106 118.018 191.814 118.018C192.522 118.018 193.104 118.15 193.56 118.414C194.016 118.678 194.358 119.08 194.586 119.62C194.814 120.148 194.928 120.82 194.928 121.636V125.992C194.928 126.364 194.832 126.652 194.64 126.856C194.448 127.048 194.172 127.144 193.812 127.144C193.452 127.144 193.17 127.048 192.966 126.856C192.774 126.652 192.678 126.364 192.678 125.992V121.744C192.678 121.06 192.546 120.562 192.282 120.25C192.03 119.938 191.634 119.782 191.094 119.782C190.434 119.782 189.906 119.992 189.51 120.412C189.126 120.82 188.934 121.366 188.934 122.05V125.992C188.934 126.76 188.556 127.144 187.8 127.144ZM200.435 127.18C199.919 127.18 199.373 127.126 198.797 127.018C198.221 126.91 197.705 126.724 197.249 126.46C197.057 126.34 196.919 126.202 196.835 126.046C196.763 125.878 196.733 125.716 196.745 125.56C196.769 125.392 196.829 125.248 196.925 125.128C197.033 125.008 197.165 124.93 197.321 124.894C197.489 124.858 197.669 124.888 197.861 124.984C198.341 125.212 198.791 125.374 199.211 125.47C199.631 125.554 200.045 125.596 200.453 125.596C201.029 125.596 201.455 125.5 201.731 125.308C202.019 125.104 202.163 124.84 202.163 124.516C202.163 124.24 202.067 124.03 201.875 123.886C201.695 123.73 201.419 123.616 201.047 123.544L199.247 123.202C198.503 123.058 197.933 122.788 197.537 122.392C197.153 121.984 196.961 121.462 196.961 120.826C196.961 120.25 197.117 119.752 197.429 119.332C197.753 118.912 198.197 118.588 198.761 118.36C199.325 118.132 199.973 118.018 200.705 118.018C201.233 118.018 201.725 118.078 202.181 118.198C202.649 118.306 203.099 118.48 203.531 118.72C203.711 118.816 203.831 118.942 203.891 119.098C203.963 119.254 203.981 119.416 203.945 119.584C203.909 119.74 203.837 119.884 203.729 120.016C203.621 120.136 203.483 120.214 203.315 120.25C203.159 120.274 202.979 120.238 202.775 120.142C202.403 119.95 202.043 119.812 201.695 119.728C201.359 119.644 201.035 119.602 200.723 119.602C200.135 119.602 199.697 119.704 199.409 119.908C199.133 120.112 198.995 120.382 198.995 120.718C198.995 120.97 199.079 121.18 199.247 121.348C199.415 121.516 199.673 121.63 200.021 121.69L201.821 122.032C202.601 122.176 203.189 122.44 203.585 122.824C203.993 123.208 204.197 123.724 204.197 124.372C204.197 125.248 203.855 125.938 203.171 126.442C202.487 126.934 201.575 127.18 200.435 127.18ZM209.946 127.18C209.166 127.18 208.512 127.048 207.984 126.784C207.468 126.52 207.084 126.136 206.832 125.632C206.58 125.116 206.454 124.48 206.454 123.724V119.89H205.518C205.23 119.89 205.008 119.818 204.852 119.674C204.696 119.518 204.618 119.308 204.618 119.044C204.618 118.768 204.696 118.558 204.852 118.414C205.008 118.27 205.23 118.198 205.518 118.198H206.454V116.56C206.454 116.188 206.55 115.906 206.742 115.714C206.946 115.522 207.228 115.426 207.588 115.426C207.948 115.426 208.224 115.522 208.416 115.714C208.608 115.906 208.704 116.188 208.704 116.56V118.198H210.612C210.9 118.198 211.122 118.27 211.278 118.414C211.434 118.558 211.512 118.768 211.512 119.044C211.512 119.308 211.434 119.518 211.278 119.674C211.122 119.818 210.9 119.89 210.612 119.89H208.704V123.598C208.704 124.174 208.83 124.606 209.082 124.894C209.334 125.182 209.742 125.326 210.306 125.326C210.51 125.326 210.69 125.308 210.846 125.272C211.002 125.236 211.14 125.212 211.26 125.2C211.404 125.188 211.524 125.236 211.62 125.344C211.716 125.44 211.764 125.644 211.764 125.956C211.764 126.196 211.722 126.412 211.638 126.604C211.566 126.784 211.428 126.91 211.224 126.982C211.068 127.03 210.864 127.072 210.612 127.108C210.36 127.156 210.138 127.18 209.946 127.18ZM215.72 127.18C215.084 127.18 214.514 127.06 214.01 126.82C213.518 126.568 213.128 126.232 212.84 125.812C212.564 125.392 212.426 124.918 212.426 124.39C212.426 123.742 212.594 123.232 212.93 122.86C213.266 122.476 213.812 122.2 214.568 122.032C215.324 121.864 216.338 121.78 217.61 121.78H218.51V123.076H217.628C216.884 123.076 216.29 123.112 215.846 123.184C215.402 123.256 215.084 123.382 214.892 123.562C214.712 123.73 214.622 123.97 214.622 124.282C214.622 124.678 214.76 125.002 215.036 125.254C215.312 125.506 215.696 125.632 216.188 125.632C216.584 125.632 216.932 125.542 217.232 125.362C217.544 125.17 217.79 124.912 217.97 124.588C218.15 124.264 218.24 123.892 218.24 123.472V121.402C218.24 120.802 218.108 120.37 217.844 120.106C217.58 119.842 217.136 119.71 216.512 119.71C216.164 119.71 215.786 119.752 215.378 119.836C214.982 119.92 214.562 120.064 214.118 120.268C213.89 120.376 213.686 120.406 213.506 120.358C213.338 120.31 213.206 120.214 213.11 120.07C213.014 119.914 212.966 119.746 212.966 119.566C212.966 119.386 213.014 119.212 213.11 119.044C213.206 118.864 213.368 118.732 213.596 118.648C214.148 118.42 214.676 118.258 215.18 118.162C215.696 118.066 216.164 118.018 216.584 118.018C217.448 118.018 218.156 118.15 218.708 118.414C219.272 118.678 219.692 119.08 219.968 119.62C220.244 120.148 220.382 120.832 220.382 121.672V125.992C220.382 126.364 220.292 126.652 220.112 126.856C219.932 127.048 219.674 127.144 219.338 127.144C219.002 127.144 218.738 127.048 218.546 126.856C218.366 126.652 218.276 126.364 218.276 125.992V125.128H218.42C218.336 125.548 218.168 125.914 217.916 126.226C217.676 126.526 217.37 126.76 216.998 126.928C216.626 127.096 216.2 127.18 215.72 127.18ZM223.782 127.144C223.422 127.144 223.146 127.048 222.954 126.856C222.762 126.652 222.666 126.364 222.666 125.992V119.188C222.666 118.816 222.762 118.534 222.954 118.342C223.146 118.15 223.416 118.054 223.764 118.054C224.112 118.054 224.382 118.15 224.574 118.342C224.766 118.534 224.862 118.816 224.862 119.188V120.412L224.664 119.962C224.928 119.326 225.336 118.846 225.888 118.522C226.452 118.186 227.088 118.018 227.796 118.018C228.504 118.018 229.086 118.15 229.542 118.414C229.998 118.678 230.34 119.08 230.568 119.62C230.796 120.148 230.91 120.82 230.91 121.636V125.992C230.91 126.364 230.814 126.652 230.622 126.856C230.43 127.048 230.154 127.144 229.794 127.144C229.434 127.144 229.152 127.048 228.948 126.856C228.756 126.652 228.66 126.364 228.66 125.992V121.744C228.66 121.06 228.528 120.562 228.264 120.25C228.012 119.938 227.616 119.782 227.076 119.782C226.416 119.782 225.888 119.992 225.492 120.412C225.108 120.82 224.916 121.366 224.916 122.05V125.992C224.916 126.76 224.538 127.144 223.782 127.144ZM237.263 127.18C236.339 127.18 235.535 126.994 234.851 126.622C234.167 126.238 233.639 125.698 233.267 125.002C232.895 124.306 232.709 123.49 232.709 122.554C232.709 121.846 232.811 121.216 233.015 120.664C233.231 120.1 233.537 119.626 233.933 119.242C234.329 118.846 234.809 118.546 235.373 118.342C235.937 118.126 236.567 118.018 237.263 118.018C237.659 118.018 238.085 118.072 238.541 118.18C239.009 118.288 239.447 118.468 239.855 118.72C240.047 118.84 240.173 118.984 240.233 119.152C240.293 119.32 240.305 119.494 240.269 119.674C240.233 119.842 240.155 119.992 240.035 120.124C239.927 120.244 239.789 120.322 239.621 120.358C239.453 120.382 239.267 120.34 239.063 120.232C238.799 120.076 238.529 119.962 238.253 119.89C237.977 119.806 237.713 119.764 237.461 119.764C237.065 119.764 236.717 119.83 236.417 119.962C236.117 120.082 235.859 120.262 235.643 120.502C235.439 120.73 235.283 121.018 235.175 121.366C235.067 121.714 235.013 122.116 235.013 122.572C235.013 123.46 235.223 124.162 235.643 124.678C236.075 125.182 236.681 125.434 237.461 125.434C237.713 125.434 237.971 125.398 238.235 125.326C238.511 125.254 238.787 125.14 239.063 124.984C239.267 124.876 239.447 124.84 239.603 124.876C239.771 124.912 239.909 124.996 240.017 125.128C240.125 125.248 240.191 125.398 240.215 125.578C240.239 125.746 240.215 125.914 240.143 126.082C240.083 126.25 239.963 126.388 239.783 126.496C239.387 126.736 238.967 126.91 238.523 127.018C238.079 127.126 237.659 127.18 237.263 127.18ZM242.802 127.126C242.442 127.126 242.166 127.018 241.974 126.802C241.782 126.586 241.686 126.286 241.686 125.902V119.296C241.686 118.9 241.782 118.6 241.974 118.396C242.166 118.18 242.442 118.072 242.802 118.072C243.162 118.072 243.438 118.18 243.63 118.396C243.834 118.6 243.936 118.9 243.936 119.296V125.902C243.936 126.286 243.84 126.586 243.648 126.802C243.456 127.018 243.174 127.126 242.802 127.126ZM242.802 116.398C242.382 116.398 242.052 116.296 241.812 116.092C241.584 115.876 241.47 115.582 241.47 115.21C241.47 114.826 241.584 114.532 241.812 114.328C242.052 114.124 242.382 114.022 242.802 114.022C243.234 114.022 243.564 114.124 243.792 114.328C244.02 114.532 244.134 114.826 244.134 115.21C244.134 115.582 244.02 115.876 243.792 116.092C243.564 116.296 243.234 116.398 242.802 116.398ZM249.172 127.18C248.536 127.18 247.966 127.06 247.462 126.82C246.97 126.568 246.58 126.232 246.292 125.812C246.016 125.392 245.878 124.918 245.878 124.39C245.878 123.742 246.046 123.232 246.382 122.86C246.718 122.476 247.264 122.2 248.02 122.032C248.776 121.864 249.79 121.78 251.062 121.78H251.962V123.076H251.08C250.336 123.076 249.742 123.112 249.298 123.184C248.854 123.256 248.536 123.382 248.344 123.562C248.164 123.73 248.074 123.97 248.074 124.282C248.074 124.678 248.212 125.002 248.488 125.254C248.764 125.506 249.148 125.632 249.64 125.632C250.036 125.632 250.384 125.542 250.684 125.362C250.996 125.17 251.242 124.912 251.422 124.588C251.602 124.264 251.692 123.892 251.692 123.472V121.402C251.692 120.802 251.56 120.37 251.296 120.106C251.032 119.842 250.588 119.71 249.964 119.71C249.616 119.71 249.238 119.752 248.83 119.836C248.434 119.92 248.014 120.064 247.57 120.268C247.342 120.376 247.138 120.406 246.958 120.358C246.79 120.31 246.658 120.214 246.562 120.07C246.466 119.914 246.418 119.746 246.418 119.566C246.418 119.386 246.466 119.212 246.562 119.044C246.658 118.864 246.82 118.732 247.048 118.648C247.6 118.42 248.128 118.258 248.632 118.162C249.148 118.066 249.616 118.018 250.036 118.018C250.9 118.018 251.608 118.15 252.16 118.414C252.724 118.678 253.144 119.08 253.42 119.62C253.696 120.148 253.834 120.832 253.834 121.672V125.992C253.834 126.364 253.744 126.652 253.564 126.856C253.384 127.048 253.126 127.144 252.79 127.144C252.454 127.144 252.19 127.048 251.998 126.856C251.818 126.652 251.728 126.364 251.728 125.992V125.128H251.872C251.788 125.548 251.62 125.914 251.368 126.226C251.128 126.526 250.822 126.76 250.45 126.928C250.078 127.096 249.652 127.18 249.172 127.18Z" fill="white"/>
</svg>
