<svg width="348" height="242" viewBox="0 0 348 242" fill="none" xmlns="http://www.w3.org/2000/svg">
<rect x="1" y="1" width="346" height="240" rx="7" fill="#F3F6F9"/>
<rect x="1" y="1" width="346" height="240" rx="7" stroke="#E6EBF0" stroke-width="2"/>
<rect x="58.5" y="98" width="92" height="46" rx="7" stroke="#101E37" stroke-width="2"/>
<path d="M83.926 127.144C83.602 127.144 83.332 127.072 83.116 126.928C82.912 126.772 82.744 126.544 82.612 126.244L77.914 115.696C77.782 115.396 77.746 115.132 77.806 114.904C77.866 114.676 77.992 114.496 78.184 114.364C78.376 114.232 78.604 114.166 78.868 114.166C79.216 114.166 79.474 114.244 79.642 114.4C79.822 114.544 79.972 114.766 80.092 115.066L84.358 124.948H83.584L87.832 115.048C87.964 114.76 88.12 114.544 88.3 114.4C88.48 114.244 88.732 114.166 89.056 114.166C89.32 114.166 89.536 114.232 89.704 114.364C89.884 114.496 89.998 114.676 90.046 114.904C90.094 115.132 90.052 115.396 89.92 115.696L85.222 126.244C85.09 126.544 84.922 126.772 84.718 126.928C84.526 127.072 84.262 127.144 83.926 127.144ZM94.391 127.18C93.479 127.18 92.687 126.994 92.015 126.622C91.343 126.25 90.821 125.722 90.449 125.038C90.077 124.342 89.891 123.526 89.891 122.59C89.891 121.882 89.993 121.252 90.197 120.7C90.413 120.136 90.719 119.656 91.115 119.26C91.511 118.852 91.985 118.546 92.537 118.342C93.089 118.126 93.707 118.018 94.391 118.018C95.303 118.018 96.095 118.204 96.767 118.576C97.439 118.948 97.961 119.476 98.333 120.16C98.705 120.844 98.891 121.654 98.891 122.59C98.891 123.298 98.783 123.934 98.567 124.498C98.363 125.062 98.063 125.548 97.667 125.956C97.271 126.352 96.797 126.658 96.245 126.874C95.693 127.078 95.075 127.18 94.391 127.18ZM94.391 125.47C94.835 125.47 95.225 125.362 95.561 125.146C95.897 124.93 96.155 124.612 96.335 124.192C96.527 123.76 96.623 123.226 96.623 122.59C96.623 121.63 96.419 120.916 96.011 120.448C95.603 119.968 95.063 119.728 94.391 119.728C93.947 119.728 93.557 119.836 93.221 120.052C92.885 120.256 92.621 120.574 92.429 121.006C92.249 121.426 92.159 121.954 92.159 122.59C92.159 123.538 92.363 124.258 92.771 124.75C93.179 125.23 93.719 125.47 94.391 125.47ZM103.754 127.18C102.758 127.18 102.008 126.898 101.504 126.334C101 125.758 100.748 124.918 100.748 123.814V115.3C100.748 114.928 100.844 114.646 101.036 114.454C101.228 114.262 101.504 114.166 101.864 114.166C102.224 114.166 102.5 114.262 102.692 114.454C102.896 114.646 102.998 114.928 102.998 115.3V123.706C102.998 124.258 103.112 124.666 103.34 124.93C103.58 125.194 103.916 125.326 104.348 125.326C104.444 125.326 104.534 125.326 104.618 125.326C104.702 125.314 104.786 125.302 104.87 125.29C105.038 125.266 105.152 125.314 105.212 125.434C105.272 125.542 105.302 125.77 105.302 126.118C105.302 126.418 105.242 126.652 105.122 126.82C105.002 126.988 104.804 127.09 104.528 127.126C104.408 127.138 104.282 127.15 104.15 127.162C104.018 127.174 103.886 127.18 103.754 127.18ZM109.832 127.144C109.532 127.144 109.268 127.066 109.04 126.91C108.824 126.754 108.644 126.514 108.5 126.19L105.638 119.548C105.53 119.284 105.488 119.038 105.512 118.81C105.548 118.582 105.656 118.402 105.836 118.27C106.028 118.126 106.286 118.054 106.61 118.054C106.886 118.054 107.108 118.12 107.276 118.252C107.444 118.372 107.594 118.606 107.726 118.954L110.156 125.02H109.616L112.118 118.936C112.25 118.6 112.4 118.372 112.568 118.252C112.748 118.12 112.988 118.054 113.288 118.054C113.552 118.054 113.762 118.126 113.918 118.27C114.074 118.402 114.17 118.582 114.206 118.81C114.242 119.026 114.2 119.266 114.08 119.53L111.164 126.19C111.032 126.514 110.852 126.754 110.624 126.91C110.408 127.066 110.144 127.144 109.832 127.144ZM119.922 127.18C118.926 127.18 118.068 126.994 117.348 126.622C116.628 126.25 116.07 125.722 115.674 125.038C115.29 124.354 115.098 123.544 115.098 122.608C115.098 121.696 115.284 120.898 115.656 120.214C116.04 119.53 116.562 118.996 117.222 118.612C117.894 118.216 118.656 118.018 119.508 118.018C120.132 118.018 120.69 118.12 121.182 118.324C121.686 118.528 122.112 118.822 122.46 119.206C122.82 119.59 123.09 120.058 123.27 120.61C123.462 121.15 123.558 121.762 123.558 122.446C123.558 122.662 123.48 122.83 123.324 122.95C123.18 123.058 122.97 123.112 122.694 123.112H116.916V121.816H121.974L121.686 122.086C121.686 121.534 121.602 121.072 121.434 120.7C121.278 120.328 121.044 120.046 120.732 119.854C120.432 119.65 120.054 119.548 119.598 119.548C119.094 119.548 118.662 119.668 118.302 119.908C117.954 120.136 117.684 120.466 117.492 120.898C117.312 121.318 117.222 121.822 117.222 122.41V122.536C117.222 123.52 117.45 124.258 117.906 124.75C118.374 125.23 119.058 125.47 119.958 125.47C120.27 125.47 120.618 125.434 121.002 125.362C121.398 125.278 121.77 125.14 122.118 124.948C122.37 124.804 122.592 124.744 122.784 124.768C122.976 124.78 123.126 124.846 123.234 124.966C123.354 125.086 123.426 125.236 123.45 125.416C123.474 125.584 123.438 125.758 123.342 125.938C123.258 126.118 123.108 126.274 122.892 126.406C122.472 126.67 121.986 126.868 121.434 127C120.894 127.12 120.39 127.18 119.922 127.18ZM126.492 127.144C126.12 127.144 125.832 127.048 125.628 126.856C125.436 126.652 125.34 126.364 125.34 125.992V119.188C125.34 118.816 125.436 118.534 125.628 118.342C125.82 118.15 126.09 118.054 126.438 118.054C126.786 118.054 127.056 118.15 127.248 118.342C127.44 118.534 127.536 118.816 127.536 119.188V120.322H127.356C127.524 119.602 127.854 119.056 128.346 118.684C128.838 118.312 129.492 118.09 130.308 118.018C130.56 117.994 130.758 118.06 130.902 118.216C131.058 118.36 131.148 118.588 131.172 118.9C131.196 119.2 131.124 119.446 130.956 119.638C130.8 119.818 130.56 119.926 130.236 119.962L129.84 119.998C129.108 120.07 128.556 120.298 128.184 120.682C127.812 121.054 127.626 121.582 127.626 122.266V125.992C127.626 126.364 127.53 126.652 127.338 126.856C127.146 127.048 126.864 127.144 126.492 127.144Z" fill="#101E37"/>
<rect x="167.5" y="97" width="123" height="48" rx="8" fill="#101E37"/>
<path d="M194.79 127.18C193.47 127.18 192.336 126.916 191.388 126.388C190.452 125.848 189.732 125.092 189.228 124.12C188.724 123.136 188.472 121.978 188.472 120.646C188.472 119.65 188.616 118.756 188.904 117.964C189.192 117.16 189.606 116.476 190.146 115.912C190.686 115.336 191.346 114.898 192.126 114.598C192.918 114.286 193.806 114.13 194.79 114.13C195.45 114.13 196.098 114.214 196.734 114.382C197.37 114.55 197.928 114.79 198.408 115.102C198.66 115.258 198.828 115.45 198.912 115.678C198.996 115.894 199.014 116.11 198.966 116.326C198.918 116.53 198.816 116.704 198.66 116.848C198.516 116.992 198.33 117.076 198.102 117.1C197.886 117.112 197.646 117.034 197.382 116.866C197.01 116.626 196.608 116.452 196.176 116.344C195.744 116.236 195.306 116.182 194.862 116.182C194.01 116.182 193.29 116.356 192.702 116.704C192.114 117.052 191.67 117.556 191.37 118.216C191.07 118.876 190.92 119.686 190.92 120.646C190.92 121.594 191.07 122.404 191.37 123.076C191.67 123.748 192.114 124.258 192.702 124.606C193.29 124.954 194.01 125.128 194.862 125.128C195.318 125.128 195.768 125.074 196.212 124.966C196.656 124.846 197.076 124.666 197.472 124.426C197.736 124.27 197.97 124.204 198.174 124.228C198.39 124.24 198.57 124.312 198.714 124.444C198.858 124.576 198.954 124.744 199.002 124.948C199.05 125.14 199.038 125.344 198.966 125.56C198.894 125.764 198.75 125.944 198.534 126.1C198.054 126.448 197.478 126.718 196.806 126.91C196.146 127.09 195.474 127.18 194.79 127.18ZM204.286 127.18C203.374 127.18 202.582 126.994 201.91 126.622C201.238 126.25 200.716 125.722 200.344 125.038C199.972 124.342 199.786 123.526 199.786 122.59C199.786 121.882 199.888 121.252 200.092 120.7C200.308 120.136 200.614 119.656 201.01 119.26C201.406 118.852 201.88 118.546 202.432 118.342C202.984 118.126 203.602 118.018 204.286 118.018C205.198 118.018 205.99 118.204 206.662 118.576C207.334 118.948 207.856 119.476 208.228 120.16C208.6 120.844 208.786 121.654 208.786 122.59C208.786 123.298 208.678 123.934 208.462 124.498C208.258 125.062 207.958 125.548 207.562 125.956C207.166 126.352 206.692 126.658 206.14 126.874C205.588 127.078 204.97 127.18 204.286 127.18ZM204.286 125.47C204.73 125.47 205.12 125.362 205.456 125.146C205.792 124.93 206.05 124.612 206.23 124.192C206.422 123.76 206.518 123.226 206.518 122.59C206.518 121.63 206.314 120.916 205.906 120.448C205.498 119.968 204.958 119.728 204.286 119.728C203.842 119.728 203.452 119.836 203.116 120.052C202.78 120.256 202.516 120.574 202.324 121.006C202.144 121.426 202.054 121.954 202.054 122.59C202.054 123.538 202.258 124.258 202.666 124.75C203.074 125.23 203.614 125.47 204.286 125.47ZM211.759 127.144C211.399 127.144 211.123 127.048 210.931 126.856C210.739 126.652 210.643 126.364 210.643 125.992V119.188C210.643 118.816 210.739 118.534 210.931 118.342C211.123 118.15 211.393 118.054 211.741 118.054C212.089 118.054 212.359 118.15 212.551 118.342C212.743 118.534 212.839 118.816 212.839 119.188V120.412L212.641 119.962C212.905 119.326 213.313 118.846 213.865 118.522C214.429 118.186 215.065 118.018 215.773 118.018C216.481 118.018 217.063 118.15 217.519 118.414C217.975 118.678 218.317 119.08 218.545 119.62C218.773 120.148 218.887 120.82 218.887 121.636V125.992C218.887 126.364 218.791 126.652 218.599 126.856C218.407 127.048 218.131 127.144 217.771 127.144C217.411 127.144 217.129 127.048 216.925 126.856C216.733 126.652 216.637 126.364 216.637 125.992V121.744C216.637 121.06 216.505 120.562 216.241 120.25C215.989 119.938 215.593 119.782 215.053 119.782C214.393 119.782 213.865 119.992 213.469 120.412C213.085 120.82 212.893 121.366 212.893 122.05V125.992C212.893 126.76 212.515 127.144 211.759 127.144ZM225.204 127.18C224.424 127.18 223.77 127.048 223.242 126.784C222.726 126.52 222.342 126.136 222.09 125.632C221.838 125.116 221.712 124.48 221.712 123.724V119.89H220.776C220.488 119.89 220.266 119.818 220.11 119.674C219.954 119.518 219.876 119.308 219.876 119.044C219.876 118.768 219.954 118.558 220.11 118.414C220.266 118.27 220.488 118.198 220.776 118.198H221.712V116.56C221.712 116.188 221.808 115.906 222 115.714C222.204 115.522 222.486 115.426 222.846 115.426C223.206 115.426 223.482 115.522 223.674 115.714C223.866 115.906 223.962 116.188 223.962 116.56V118.198H225.87C226.158 118.198 226.38 118.27 226.536 118.414C226.692 118.558 226.77 118.768 226.77 119.044C226.77 119.308 226.692 119.518 226.536 119.674C226.38 119.818 226.158 119.89 225.87 119.89H223.962V123.598C223.962 124.174 224.088 124.606 224.34 124.894C224.592 125.182 225 125.326 225.564 125.326C225.768 125.326 225.948 125.308 226.104 125.272C226.26 125.236 226.398 125.212 226.518 125.2C226.662 125.188 226.782 125.236 226.878 125.344C226.974 125.44 227.022 125.644 227.022 125.956C227.022 126.196 226.98 126.412 226.896 126.604C226.824 126.784 226.686 126.91 226.482 126.982C226.326 127.03 226.122 127.072 225.87 127.108C225.618 127.156 225.396 127.18 225.204 127.18ZM229.425 127.126C229.065 127.126 228.789 127.018 228.597 126.802C228.405 126.586 228.309 126.286 228.309 125.902V119.296C228.309 118.9 228.405 118.6 228.597 118.396C228.789 118.18 229.065 118.072 229.425 118.072C229.785 118.072 230.061 118.18 230.253 118.396C230.457 118.6 230.559 118.9 230.559 119.296V125.902C230.559 126.286 230.463 126.586 230.271 126.802C230.079 127.018 229.797 127.126 229.425 127.126ZM229.425 116.398C229.005 116.398 228.675 116.296 228.435 116.092C228.207 115.876 228.093 115.582 228.093 115.21C228.093 114.826 228.207 114.532 228.435 114.328C228.675 114.124 229.005 114.022 229.425 114.022C229.857 114.022 230.187 114.124 230.415 114.328C230.643 114.532 230.757 114.826 230.757 115.21C230.757 115.582 230.643 115.876 230.415 116.092C230.187 116.296 229.857 116.398 229.425 116.398ZM234.013 127.144C233.653 127.144 233.377 127.048 233.185 126.856C232.993 126.652 232.897 126.364 232.897 125.992V119.188C232.897 118.816 232.993 118.534 233.185 118.342C233.377 118.15 233.647 118.054 233.995 118.054C234.343 118.054 234.613 118.15 234.805 118.342C234.997 118.534 235.093 118.816 235.093 119.188V120.412L234.895 119.962C235.159 119.326 235.567 118.846 236.119 118.522C236.683 118.186 237.319 118.018 238.027 118.018C238.735 118.018 239.317 118.15 239.773 118.414C240.229 118.678 240.571 119.08 240.799 119.62C241.027 120.148 241.141 120.82 241.141 121.636V125.992C241.141 126.364 241.045 126.652 240.853 126.856C240.661 127.048 240.385 127.144 240.025 127.144C239.665 127.144 239.383 127.048 239.179 126.856C238.987 126.652 238.891 126.364 238.891 125.992V121.744C238.891 121.06 238.759 120.562 238.495 120.25C238.243 119.938 237.847 119.782 237.307 119.782C236.647 119.782 236.119 119.992 235.723 120.412C235.339 120.82 235.147 121.366 235.147 122.05V125.992C235.147 126.76 234.769 127.144 234.013 127.144ZM246.612 127.18C245.88 127.18 245.274 127.048 244.794 126.784C244.314 126.508 243.954 126.1 243.714 125.56C243.486 125.02 243.372 124.348 243.372 123.544V119.188C243.372 118.804 243.468 118.522 243.66 118.342C243.852 118.15 244.128 118.054 244.488 118.054C244.848 118.054 245.124 118.15 245.316 118.342C245.52 118.522 245.622 118.804 245.622 119.188V123.58C245.622 124.204 245.748 124.666 246 124.966C246.252 125.266 246.654 125.416 247.206 125.416C247.806 125.416 248.298 125.212 248.682 124.804C249.066 124.384 249.258 123.832 249.258 123.148V119.188C249.258 118.804 249.354 118.522 249.546 118.342C249.738 118.15 250.014 118.054 250.374 118.054C250.734 118.054 251.01 118.15 251.202 118.342C251.406 118.522 251.508 118.804 251.508 119.188V125.992C251.508 126.76 251.142 127.144 250.41 127.144C250.062 127.144 249.792 127.048 249.6 126.856C249.408 126.652 249.312 126.364 249.312 125.992V124.624L249.564 125.164C249.312 125.812 248.928 126.31 248.412 126.658C247.908 127.006 247.308 127.18 246.612 127.18ZM256.748 127.18C256.112 127.18 255.542 127.06 255.038 126.82C254.546 126.568 254.156 126.232 253.868 125.812C253.592 125.392 253.454 124.918 253.454 124.39C253.454 123.742 253.622 123.232 253.958 122.86C254.294 122.476 254.84 122.2 255.596 122.032C256.352 121.864 257.366 121.78 258.638 121.78H259.538V123.076H258.656C257.912 123.076 257.318 123.112 256.874 123.184C256.43 123.256 256.112 123.382 255.92 123.562C255.74 123.73 255.65 123.97 255.65 124.282C255.65 124.678 255.788 125.002 256.064 125.254C256.34 125.506 256.724 125.632 257.216 125.632C257.612 125.632 257.96 125.542 258.26 125.362C258.572 125.17 258.818 124.912 258.998 124.588C259.178 124.264 259.268 123.892 259.268 123.472V121.402C259.268 120.802 259.136 120.37 258.872 120.106C258.608 119.842 258.164 119.71 257.54 119.71C257.192 119.71 256.814 119.752 256.406 119.836C256.01 119.92 255.59 120.064 255.146 120.268C254.918 120.376 254.714 120.406 254.534 120.358C254.366 120.31 254.234 120.214 254.138 120.07C254.042 119.914 253.994 119.746 253.994 119.566C253.994 119.386 254.042 119.212 254.138 119.044C254.234 118.864 254.396 118.732 254.624 118.648C255.176 118.42 255.704 118.258 256.208 118.162C256.724 118.066 257.192 118.018 257.612 118.018C258.476 118.018 259.184 118.15 259.736 118.414C260.3 118.678 260.72 119.08 260.996 119.62C261.272 120.148 261.41 120.832 261.41 121.672V125.992C261.41 126.364 261.32 126.652 261.14 126.856C260.96 127.048 260.702 127.144 260.366 127.144C260.03 127.144 259.766 127.048 259.574 126.856C259.394 126.652 259.304 126.364 259.304 125.992V125.128H259.448C259.364 125.548 259.196 125.914 258.944 126.226C258.704 126.526 258.398 126.76 258.026 126.928C257.654 127.096 257.228 127.18 256.748 127.18ZM264.845 127.144C264.473 127.144 264.185 127.048 263.981 126.856C263.789 126.652 263.693 126.364 263.693 125.992V119.188C263.693 118.816 263.789 118.534 263.981 118.342C264.173 118.15 264.443 118.054 264.791 118.054C265.139 118.054 265.409 118.15 265.601 118.342C265.793 118.534 265.889 118.816 265.889 119.188V120.322H265.709C265.877 119.602 266.207 119.056 266.699 118.684C267.191 118.312 267.845 118.09 268.661 118.018C268.913 117.994 269.111 118.06 269.255 118.216C269.411 118.36 269.501 118.588 269.525 118.9C269.549 119.2 269.477 119.446 269.309 119.638C269.153 119.818 268.913 119.926 268.589 119.962L268.193 119.998C267.461 120.07 266.909 120.298 266.537 120.682C266.165 121.054 265.979 121.582 265.979 122.266V125.992C265.979 126.364 265.883 126.652 265.691 126.856C265.499 127.048 265.217 127.144 264.845 127.144Z" fill="white"/>
</svg>
