<svg width="352" height="148" viewBox="0 0 352 148" fill="none" xmlns="http://www.w3.org/2000/svg">
<rect x="1" y="1" width="350" height="146" rx="7" stroke="#E6EBF0" stroke-width="2"/>
<path d="M61.74 81.14C61.3933 81.14 61.12 81.0467 60.92 80.86C60.7333 80.6733 60.64 80.4 60.64 80.04V68.02C60.64 67.66 60.7333 67.3867 60.92 67.2C61.12 67 61.4 66.9 61.76 66.9H68.88C69.1733 66.9 69.3867 66.9733 69.52 67.12C69.6667 67.2533 69.74 67.4533 69.74 67.72C69.74 68 69.6667 68.2133 69.52 68.36C69.3867 68.5067 69.1733 68.58 68.88 68.58H62.72V73.08H68.48C68.7467 73.08 68.9533 73.1533 69.1 73.3C69.26 73.4333 69.34 73.6333 69.34 73.9C69.34 74.18 69.26 74.3933 69.1 74.54C68.9533 74.6867 68.7467 74.76 68.48 74.76H62.72V80.04C62.72 80.7733 62.3933 81.14 61.74 81.14ZM75.3631 81.18C74.3765 81.18 73.5231 80.9733 72.8031 80.56C72.0965 80.1467 71.5431 79.56 71.1431 78.8C70.7431 78.04 70.5431 77.1467 70.5431 76.12C70.5431 75.3333 70.6565 74.6333 70.8831 74.02C71.1098 73.4067 71.4298 72.88 71.8431 72.44C72.2698 71.9867 72.7765 71.6467 73.3631 71.42C73.9631 71.18 74.6298 71.06 75.3631 71.06C76.3365 71.06 77.1765 71.2667 77.8831 71.68C78.6031 72.0933 79.1631 72.68 79.5631 73.44C79.9631 74.1867 80.1631 75.08 80.1631 76.12C80.1631 76.8933 80.0498 77.5933 79.8231 78.22C79.5965 78.8467 79.2698 79.38 78.8431 79.82C78.4298 80.26 77.9231 80.6 77.3231 80.84C76.7365 81.0667 76.0831 81.18 75.3631 81.18ZM75.3631 79.62C75.9098 79.62 76.3898 79.4867 76.8031 79.22C77.2165 78.9533 77.5365 78.56 77.7631 78.04C78.0031 77.52 78.1231 76.88 78.1231 76.12C78.1231 74.9733 77.8698 74.1067 77.3631 73.52C76.8565 72.9333 76.1898 72.64 75.3631 72.64C74.8031 72.64 74.3165 72.7733 73.9031 73.04C73.4898 73.2933 73.1631 73.68 72.9231 74.2C72.6965 74.72 72.5831 75.36 72.5831 76.12C72.5831 77.2533 72.8365 78.12 73.3431 78.72C73.8498 79.32 74.5231 79.62 75.3631 79.62ZM83.4517 81.14C83.1184 81.14 82.8651 81.0533 82.6917 80.88C82.5184 80.6933 82.4317 80.44 82.4317 80.12V72.12C82.4317 71.7867 82.5184 71.5333 82.6917 71.36C82.8651 71.1867 83.1051 71.1 83.4117 71.1C83.7317 71.1 83.9717 71.1867 84.1317 71.36C84.3051 71.5333 84.3917 71.7867 84.3917 72.12V73.58H84.1917C84.4051 72.78 84.7984 72.1733 85.3717 71.76C85.9451 71.3467 86.6784 71.1067 87.5717 71.04C87.8117 71.0267 87.9984 71.0867 88.1317 71.22C88.2784 71.3533 88.3584 71.56 88.3717 71.84C88.3984 72.12 88.3384 72.3467 88.1917 72.52C88.0451 72.68 87.8184 72.7733 87.5117 72.8L87.1317 72.84C86.2651 72.92 85.6051 73.1933 85.1517 73.66C84.6984 74.1267 84.4717 74.7667 84.4717 75.58V80.12C84.4717 80.44 84.3851 80.6933 84.2117 80.88C84.0517 81.0533 83.7984 81.14 83.4517 81.14ZM90.9327 81.14C90.6127 81.14 90.366 81.0533 90.1927 80.88C90.0193 80.6933 89.9327 80.44 89.9327 80.12V72.12C89.9327 71.7867 90.0193 71.5333 90.1927 71.36C90.366 71.1867 90.606 71.1 90.9127 71.1C91.2327 71.1 91.4727 71.1867 91.6327 71.36C91.806 71.5333 91.8927 71.7867 91.8927 72.12V73.76L91.6727 73.32C91.9393 72.6133 92.3527 72.06 92.9127 71.66C93.4727 71.26 94.146 71.06 94.9327 71.06C95.746 71.06 96.406 71.2533 96.9127 71.64C97.4193 72.0267 97.766 72.62 97.9527 73.42H97.6727C97.926 72.6867 98.3593 72.1133 98.9727 71.7C99.586 71.2733 100.299 71.06 101.113 71.06C101.859 71.06 102.473 71.2067 102.953 71.5C103.433 71.78 103.793 72.2133 104.033 72.8C104.273 73.3733 104.393 74.1 104.393 74.98V80.12C104.393 80.44 104.299 80.6933 104.113 80.88C103.939 81.0533 103.693 81.14 103.373 81.14C103.053 81.14 102.806 81.0533 102.633 80.88C102.459 80.6933 102.373 80.44 102.373 80.12V75.08C102.373 74.2533 102.226 73.6467 101.933 73.26C101.653 72.8733 101.186 72.68 100.533 72.68C99.7993 72.68 99.2193 72.9333 98.7927 73.44C98.366 73.9467 98.1527 74.6467 98.1527 75.54V80.12C98.1527 80.44 98.066 80.6933 97.8927 80.88C97.7193 81.0533 97.4727 81.14 97.1527 81.14C96.8327 81.14 96.5793 81.0533 96.3927 80.88C96.2193 80.6933 96.1327 80.44 96.1327 80.12V75.08C96.1327 74.2533 95.9927 73.6467 95.7127 73.26C95.4327 72.8733 94.966 72.68 94.3127 72.68C93.5793 72.68 92.9993 72.9333 92.5727 73.44C92.1593 73.9467 91.9527 74.6467 91.9527 75.54V80.12C91.9527 80.8 91.6127 81.14 90.9327 81.14ZM110.697 81.18C109.91 81.18 109.25 81.0333 108.717 80.74C108.197 80.4467 107.804 80.0133 107.537 79.44C107.284 78.8533 107.157 78.12 107.157 77.24V72.12C107.157 71.7733 107.244 71.52 107.417 71.36C107.59 71.1867 107.837 71.1 108.157 71.1C108.477 71.1 108.724 71.1867 108.897 71.36C109.084 71.52 109.177 71.7733 109.177 72.12V77.26C109.177 78.0467 109.337 78.6267 109.657 79C109.977 79.3733 110.484 79.56 111.177 79.56C111.937 79.56 112.55 79.3067 113.017 78.8C113.497 78.28 113.737 77.6 113.737 76.76V72.12C113.737 71.7733 113.824 71.52 113.997 71.36C114.17 71.1867 114.424 71.1 114.757 71.1C115.077 71.1 115.324 71.1867 115.497 71.36C115.67 71.52 115.757 71.7733 115.757 72.12V80.12C115.757 80.8 115.43 81.14 114.777 81.14C114.47 81.14 114.23 81.0533 114.057 80.88C113.884 80.6933 113.797 80.44 113.797 80.12V78.42L114.057 78.86C113.79 79.6067 113.364 80.18 112.777 80.58C112.19 80.98 111.497 81.18 110.697 81.18ZM121.744 81.18C120.704 81.18 119.917 80.88 119.384 80.28C118.864 79.6667 118.604 78.7867 118.604 77.64V67.78C118.604 67.4467 118.69 67.1933 118.864 67.02C119.037 66.8467 119.284 66.76 119.604 66.76C119.924 66.76 120.17 66.8467 120.344 67.02C120.53 67.1933 120.624 67.4467 120.624 67.78V77.52C120.624 78.1867 120.757 78.6867 121.024 79.02C121.304 79.34 121.704 79.5 122.224 79.5C122.344 79.5 122.45 79.5 122.544 79.5C122.637 79.4867 122.73 79.4733 122.824 79.46C122.984 79.4467 123.097 79.4933 123.164 79.6C123.23 79.6933 123.264 79.8933 123.264 80.2C123.264 80.48 123.204 80.7 123.084 80.86C122.964 81.0067 122.77 81.1 122.504 81.14C122.384 81.1533 122.257 81.16 122.124 81.16C121.99 81.1733 121.864 81.18 121.744 81.18ZM127.837 81.18C127.157 81.18 126.544 81.0467 125.997 80.78C125.464 80.5133 125.044 80.1533 124.737 79.7C124.43 79.2467 124.277 78.7333 124.277 78.16C124.277 77.44 124.457 76.8733 124.817 76.46C125.19 76.0333 125.797 75.7333 126.637 75.56C127.49 75.3733 128.637 75.28 130.077 75.28H131.017V76.52H130.097C129.137 76.52 128.377 76.5667 127.817 76.66C127.257 76.7533 126.857 76.9133 126.617 77.14C126.39 77.3533 126.277 77.6533 126.277 78.04C126.277 78.5467 126.45 78.96 126.797 79.28C127.144 79.5867 127.624 79.74 128.237 79.74C128.73 79.74 129.164 79.6267 129.537 79.4C129.91 79.16 130.204 78.84 130.417 78.44C130.644 78.04 130.757 77.58 130.757 77.06V74.76C130.757 74 130.597 73.4533 130.277 73.12C129.957 72.7867 129.43 72.62 128.697 72.62C128.27 72.62 127.824 72.6733 127.357 72.78C126.904 72.8867 126.43 73.0667 125.937 73.32C125.71 73.4267 125.517 73.46 125.357 73.42C125.197 73.38 125.07 73.2933 124.977 73.16C124.884 73.0133 124.83 72.86 124.817 72.7C124.817 72.5267 124.857 72.36 124.937 72.2C125.03 72.04 125.184 71.92 125.397 71.84C125.984 71.56 126.564 71.36 127.137 71.24C127.71 71.12 128.25 71.06 128.757 71.06C129.65 71.06 130.384 71.2 130.957 71.48C131.544 71.76 131.977 72.1867 132.257 72.76C132.537 73.3333 132.677 74.0733 132.677 74.98V80.12C132.677 80.44 132.597 80.6933 132.437 80.88C132.277 81.0533 132.044 81.14 131.737 81.14C131.444 81.14 131.21 81.0533 131.037 80.88C130.864 80.6933 130.777 80.44 130.777 80.12V78.82H130.957C130.85 79.3133 130.65 79.74 130.357 80.1C130.077 80.4467 129.724 80.7133 129.297 80.9C128.87 81.0867 128.384 81.18 127.837 81.18ZM136.479 81.14C136.146 81.14 135.892 81.0533 135.719 80.88C135.546 80.6933 135.459 80.44 135.459 80.12V72.12C135.459 71.7867 135.546 71.5333 135.719 71.36C135.892 71.1867 136.132 71.1 136.439 71.1C136.759 71.1 136.999 71.1867 137.159 71.36C137.332 71.5333 137.419 71.7867 137.419 72.12V73.58H137.219C137.432 72.78 137.826 72.1733 138.399 71.76C138.972 71.3467 139.706 71.1067 140.599 71.04C140.839 71.0267 141.026 71.0867 141.159 71.22C141.306 71.3533 141.386 71.56 141.399 71.84C141.426 72.12 141.366 72.3467 141.219 72.52C141.072 72.68 140.846 72.7733 140.539 72.8L140.159 72.84C139.292 72.92 138.632 73.1933 138.179 73.66C137.726 74.1267 137.499 74.7667 137.499 75.58V80.12C137.499 80.44 137.412 80.6933 137.239 80.88C137.079 81.0533 136.826 81.14 136.479 81.14ZM143.92 81.12C143.6 81.12 143.353 81.0267 143.18 80.84C143.007 80.64 142.92 80.3667 142.92 80.02V72.22C142.92 71.8733 143.007 71.6067 143.18 71.42C143.353 71.2333 143.6 71.14 143.92 71.14C144.24 71.14 144.487 71.2333 144.66 71.42C144.847 71.6067 144.94 71.8733 144.94 72.22V80.02C144.94 80.3667 144.853 80.64 144.68 80.84C144.507 81.0267 144.253 81.12 143.92 81.12ZM143.92 69.06C143.52 69.06 143.207 68.96 142.98 68.76C142.767 68.56 142.66 68.28 142.66 67.92C142.66 67.5467 142.767 67.2667 142.98 67.08C143.207 66.88 143.52 66.78 143.92 66.78C144.32 66.78 144.627 66.88 144.84 67.08C145.067 67.2667 145.18 67.5467 145.18 67.92C145.18 68.28 145.067 68.56 144.84 68.76C144.627 68.96 144.32 69.06 143.92 69.06ZM152.023 81.18C151.037 81.18 150.183 80.9733 149.463 80.56C148.757 80.1467 148.203 79.56 147.803 78.8C147.403 78.04 147.203 77.1467 147.203 76.12C147.203 75.3333 147.317 74.6333 147.543 74.02C147.77 73.4067 148.09 72.88 148.503 72.44C148.93 71.9867 149.437 71.6467 150.023 71.42C150.623 71.18 151.29 71.06 152.023 71.06C152.997 71.06 153.837 71.2667 154.543 71.68C155.263 72.0933 155.823 72.68 156.223 73.44C156.623 74.1867 156.823 75.08 156.823 76.12C156.823 76.8933 156.71 77.5933 156.483 78.22C156.257 78.8467 155.93 79.38 155.503 79.82C155.09 80.26 154.583 80.6 153.983 80.84C153.397 81.0667 152.743 81.18 152.023 81.18ZM152.023 79.62C152.57 79.62 153.05 79.4867 153.463 79.22C153.877 78.9533 154.197 78.56 154.423 78.04C154.663 77.52 154.783 76.88 154.783 76.12C154.783 74.9733 154.53 74.1067 154.023 73.52C153.517 72.9333 152.85 72.64 152.023 72.64C151.463 72.64 150.977 72.7733 150.563 73.04C150.15 73.2933 149.823 73.68 149.583 74.2C149.357 74.72 149.243 75.36 149.243 76.12C149.243 77.2533 149.497 78.12 150.003 78.72C150.51 79.32 151.183 79.62 152.023 79.62ZM166.045 81C165.765 81 165.545 80.92 165.385 80.76C165.225 80.6 165.145 80.3867 165.145 80.12C165.145 79.84 165.225 79.6267 165.385 79.48C165.545 79.3333 165.765 79.26 166.045 79.26H168.485V68.62H169.525L166.605 70.48C166.392 70.6 166.192 70.6467 166.005 70.62C165.832 70.5933 165.679 70.52 165.545 70.4C165.425 70.28 165.339 70.1333 165.285 69.96C165.245 69.7867 165.259 69.6067 165.325 69.42C165.405 69.2333 165.545 69.08 165.745 68.96L168.505 67.22C168.732 67.0867 168.945 66.98 169.145 66.9C169.359 66.8067 169.559 66.76 169.745 66.76C169.972 66.76 170.159 66.8267 170.305 66.96C170.465 67.08 170.545 67.2867 170.545 67.58V79.26H172.785C173.079 79.26 173.305 79.3333 173.465 79.48C173.625 79.6267 173.705 79.84 173.705 80.12C173.705 80.4 173.625 80.62 173.465 80.78C173.305 80.9267 173.079 81 172.785 81H166.045ZM177.558 81C177.198 81 176.938 80.92 176.778 80.76C176.618 80.5867 176.538 80.3533 176.538 80.06C176.538 79.8733 176.584 79.6933 176.678 79.52C176.771 79.3467 176.904 79.1667 177.078 78.98L181.338 74.42C181.991 73.7267 182.458 73.0933 182.738 72.52C183.031 71.9333 183.178 71.3467 183.178 70.76C183.178 70.0133 182.951 69.4467 182.498 69.06C182.044 68.6733 181.378 68.48 180.498 68.48C179.964 68.48 179.451 68.56 178.958 68.72C178.464 68.88 177.971 69.14 177.478 69.5C177.278 69.6333 177.091 69.6933 176.918 69.68C176.744 69.6667 176.591 69.6 176.458 69.48C176.338 69.36 176.258 69.2133 176.218 69.04C176.178 68.8667 176.184 68.6867 176.238 68.5C176.291 68.3133 176.418 68.1533 176.618 68.02C177.164 67.6067 177.798 67.2867 178.518 67.06C179.238 66.8333 179.971 66.72 180.718 66.72C181.691 66.72 182.511 66.8733 183.178 67.18C183.858 67.4733 184.371 67.9067 184.718 68.48C185.064 69.0533 185.238 69.7533 185.238 70.58C185.238 71.14 185.144 71.6867 184.958 72.22C184.784 72.7533 184.511 73.3 184.138 73.86C183.778 74.4067 183.304 74.9867 182.718 75.6L178.678 79.84V79.26H185.037C185.331 79.26 185.558 79.3333 185.718 79.48C185.878 79.6267 185.957 79.84 185.957 80.12C185.957 80.4 185.878 80.62 185.718 80.78C185.558 80.9267 185.331 81 185.037 81H177.558ZM189.03 76.48C188.79 76.48 188.59 76.4 188.43 76.24C188.27 76.08 188.19 75.8867 188.19 75.66C188.19 75.42 188.27 75.2267 188.43 75.08C188.59 74.92 188.79 74.84 189.03 74.84H193.43C193.656 74.84 193.85 74.92 194.01 75.08C194.17 75.2267 194.25 75.42 194.25 75.66C194.25 75.8867 194.17 76.08 194.01 76.24C193.85 76.4 193.656 76.48 193.43 76.48H189.03ZM203.464 81.18C202.037 81.18 200.817 80.8867 199.804 80.3C198.791 79.7133 198.011 78.88 197.464 77.8C196.931 76.7067 196.664 75.42 196.664 73.94C196.664 72.8333 196.817 71.84 197.124 70.96C197.431 70.0667 197.871 69.3067 198.444 68.68C199.031 68.04 199.744 67.5533 200.584 67.22C201.437 66.8867 202.397 66.72 203.464 66.72C204.251 66.72 205.004 66.8267 205.724 67.04C206.457 67.2533 207.091 67.56 207.624 67.96C207.851 68.1067 207.997 68.2867 208.064 68.5C208.144 68.7 208.157 68.8933 208.104 69.08C208.064 69.2667 207.977 69.4267 207.844 69.56C207.711 69.68 207.537 69.7467 207.324 69.76C207.124 69.7733 206.904 69.7 206.664 69.54C206.224 69.2067 205.737 68.96 205.204 68.8C204.671 68.64 204.111 68.56 203.524 68.56C202.511 68.56 201.657 68.7733 200.964 69.2C200.271 69.6133 199.744 70.22 199.384 71.02C199.024 71.82 198.844 72.7933 198.844 73.94C198.844 75.0867 199.024 76.0667 199.384 76.88C199.744 77.68 200.271 78.2933 200.964 78.72C201.657 79.1333 202.511 79.34 203.524 79.34C204.111 79.34 204.671 79.26 205.204 79.1C205.751 78.9267 206.264 78.6733 206.744 78.34C206.984 78.1933 207.197 78.1267 207.384 78.14C207.584 78.1533 207.751 78.22 207.884 78.34C208.017 78.46 208.104 78.6133 208.144 78.8C208.197 78.9733 208.191 79.16 208.124 79.36C208.071 79.5467 207.944 79.7067 207.744 79.84C207.197 80.28 206.551 80.6133 205.804 80.84C205.057 81.0667 204.277 81.18 203.464 81.18ZM217.053 81C216.693 81 216.413 80.9067 216.213 80.72C216.026 80.52 215.933 80.24 215.933 79.88V68.02C215.933 67.66 216.026 67.3867 216.213 67.2C216.413 67 216.693 66.9 217.053 66.9H220.913C223.233 66.9 225.02 67.5067 226.273 68.72C227.54 69.92 228.173 71.66 228.173 73.94C228.173 75.0733 228.013 76.08 227.693 76.96C227.373 77.84 226.9 78.58 226.273 79.18C225.66 79.7667 224.906 80.22 224.013 80.54C223.12 80.8467 222.086 81 220.913 81H217.053ZM218.013 79.26H220.793C221.673 79.26 222.433 79.1533 223.073 78.94C223.726 78.7133 224.273 78.38 224.713 77.94C225.153 77.5 225.48 76.9467 225.693 76.28C225.906 75.6133 226.013 74.8333 226.013 73.94C226.013 72.1667 225.573 70.84 224.693 69.96C223.826 69.08 222.526 68.64 220.793 68.64H218.013V79.26ZM237.553 81.18C236.019 81.18 234.726 80.8933 233.673 80.32C232.619 79.7333 231.819 78.9 231.273 77.82C230.739 76.74 230.473 75.4533 230.473 73.96C230.473 72.84 230.626 71.84 230.933 70.96C231.253 70.0667 231.706 69.3067 232.293 68.68C232.893 68.04 233.619 67.5533 234.473 67.22C235.339 66.8867 236.319 66.72 237.413 66.72C238.213 66.72 238.999 66.8267 239.773 67.04C240.546 67.24 241.253 67.5733 241.893 68.04C242.079 68.1733 242.199 68.3267 242.253 68.5C242.306 68.6733 242.306 68.8533 242.253 69.04C242.213 69.2133 242.126 69.3667 241.993 69.5C241.873 69.6333 241.719 69.7133 241.533 69.74C241.359 69.7667 241.166 69.7133 240.953 69.58C240.433 69.22 239.886 68.96 239.312 68.8C238.739 68.6267 238.106 68.54 237.413 68.54C236.373 68.54 235.493 68.7533 234.773 69.18C234.066 69.6067 233.533 70.2267 233.173 71.04C232.813 71.84 232.633 72.8133 232.633 73.96C232.633 75.7333 233.053 77.08 233.893 78C234.733 78.92 235.979 79.38 237.633 79.38C238.233 79.38 238.819 79.3267 239.393 79.22C239.979 79.1 240.539 78.9333 241.072 78.72L240.653 79.76V75.1H238.073C237.806 75.1 237.593 75.0333 237.433 74.9C237.286 74.7533 237.213 74.5533 237.213 74.3C237.213 74.0467 237.286 73.86 237.433 73.74C237.593 73.6067 237.806 73.54 238.073 73.54H241.533C241.813 73.54 242.026 73.6133 242.173 73.76C242.319 73.9067 242.393 74.12 242.393 74.4V79.44C242.393 79.68 242.346 79.8867 242.253 80.06C242.173 80.22 242.033 80.34 241.833 80.42C241.259 80.6467 240.586 80.8333 239.813 80.98C239.039 81.1133 238.286 81.18 237.553 81.18ZM251.901 81.18C250.475 81.18 249.255 80.8867 248.241 80.3C247.228 79.7133 246.448 78.88 245.901 77.8C245.368 76.7067 245.101 75.42 245.101 73.94C245.101 72.8333 245.255 71.84 245.561 70.96C245.868 70.0667 246.308 69.3067 246.881 68.68C247.468 68.04 248.181 67.5533 249.021 67.22C249.875 66.8867 250.835 66.72 251.901 66.72C252.688 66.72 253.441 66.8267 254.161 67.04C254.895 67.2533 255.528 67.56 256.061 67.96C256.288 68.1067 256.435 68.2867 256.501 68.5C256.581 68.7 256.595 68.8933 256.541 69.08C256.501 69.2667 256.415 69.4267 256.281 69.56C256.148 69.68 255.975 69.7467 255.761 69.76C255.561 69.7733 255.341 69.7 255.101 69.54C254.661 69.2067 254.175 68.96 253.641 68.8C253.108 68.64 252.548 68.56 251.961 68.56C250.948 68.56 250.095 68.7733 249.401 69.2C248.708 69.6133 248.181 70.22 247.821 71.02C247.461 71.82 247.281 72.7933 247.281 73.94C247.281 75.0867 247.461 76.0667 247.821 76.88C248.181 77.68 248.708 78.2933 249.401 78.72C250.095 79.1333 250.948 79.34 251.961 79.34C252.548 79.34 253.108 79.26 253.641 79.1C254.188 78.9267 254.701 78.6733 255.181 78.34C255.421 78.1933 255.635 78.1267 255.821 78.14C256.021 78.1533 256.188 78.22 256.321 78.34C256.455 78.46 256.541 78.6133 256.581 78.8C256.635 78.9733 256.628 79.16 256.561 79.36C256.508 79.5467 256.381 79.7067 256.181 79.84C255.635 80.28 254.988 80.6133 254.241 80.84C253.495 81.0667 252.715 81.18 251.901 81.18ZM260.137 81.14C259.804 81.14 259.544 81.0467 259.357 80.86C259.184 80.6733 259.097 80.4133 259.097 80.08V67.82C259.097 67.4733 259.184 67.2133 259.357 67.04C259.544 66.8533 259.804 66.76 260.137 66.76C260.47 66.76 260.724 66.8533 260.897 67.04C261.084 67.2133 261.177 67.4733 261.177 67.82V80.08C261.177 80.4133 261.09 80.6733 260.917 80.86C260.744 81.0467 260.484 81.14 260.137 81.14ZM270.149 81.18C269.202 81.18 268.369 81.06 267.649 80.82C266.929 80.5667 266.322 80.1933 265.829 79.7C265.349 79.2067 264.982 78.5933 264.729 77.86C264.475 77.1267 264.349 76.28 264.349 75.32V67.8C264.349 67.4533 264.435 67.1933 264.609 67.02C264.795 66.8467 265.055 66.76 265.389 66.76C265.722 66.76 265.975 66.8467 266.149 67.02C266.335 67.1933 266.429 67.4533 266.429 67.8V75.28C266.429 76.6533 266.742 77.68 267.369 78.36C268.009 79.04 268.935 79.38 270.149 79.38C271.375 79.38 272.302 79.04 272.929 78.36C273.555 77.68 273.869 76.6533 273.869 75.28V67.8C273.869 67.4533 273.955 67.1933 274.129 67.02C274.315 66.8467 274.569 66.76 274.889 66.76C275.222 66.76 275.475 66.8467 275.649 67.02C275.822 67.1933 275.909 67.4533 275.909 67.8V75.32C275.909 76.6 275.689 77.68 275.249 78.56C274.822 79.4267 274.182 80.08 273.329 80.52C272.475 80.96 271.415 81.18 270.149 81.18ZM280.237 81C279.877 81 279.597 80.9067 279.397 80.72C279.21 80.52 279.117 80.24 279.117 79.88V68.02C279.117 67.66 279.21 67.3867 279.397 67.2C279.597 67 279.877 66.9 280.237 66.9H284.097C286.417 66.9 288.203 67.5067 289.457 68.72C290.723 69.92 291.357 71.66 291.357 73.94C291.357 75.0733 291.197 76.08 290.877 76.96C290.557 77.84 290.083 78.58 289.457 79.18C288.843 79.7667 288.09 80.22 287.197 80.54C286.303 80.8467 285.27 81 284.097 81H280.237ZM281.197 79.26H283.977C284.857 79.26 285.617 79.1533 286.257 78.94C286.91 78.7133 287.457 78.38 287.897 77.94C288.337 77.5 288.663 76.9467 288.877 76.28C289.09 75.6133 289.197 74.8333 289.197 73.94C289.197 72.1667 288.757 70.84 287.877 69.96C287.01 69.08 285.71 68.64 283.977 68.64H281.197V79.26Z" fill="#101E37"/>
</svg>
