<svg width="443" height="188" viewBox="0 0 443 188" fill="none" xmlns="http://www.w3.org/2000/svg">
<rect x="1" y="1" width="441" height="186" rx="7" fill="#F3F6F9"/>
<rect x="1" y="1" width="441" height="186" rx="7" stroke="#E6EBF0" stroke-width="2"/>
<path d="M39.164 58.162C37.88 58.162 36.782 57.898 35.87 57.37C34.958 56.842 34.256 56.092 33.764 55.12C33.284 54.136 33.044 52.978 33.044 51.646C33.044 50.65 33.182 49.756 33.458 48.964C33.734 48.16 34.13 47.476 34.646 46.912C35.174 46.336 35.816 45.898 36.572 45.598C37.34 45.298 38.204 45.148 39.164 45.148C39.872 45.148 40.55 45.244 41.198 45.436C41.858 45.628 42.428 45.904 42.908 46.264C43.112 46.396 43.244 46.558 43.304 46.75C43.376 46.93 43.388 47.104 43.34 47.272C43.304 47.44 43.226 47.584 43.106 47.704C42.986 47.812 42.83 47.872 42.638 47.884C42.458 47.896 42.26 47.83 42.044 47.686C41.648 47.386 41.21 47.164 40.73 47.02C40.25 46.876 39.746 46.804 39.218 46.804C38.306 46.804 37.538 46.996 36.914 47.38C36.29 47.752 35.816 48.298 35.492 49.018C35.168 49.738 35.006 50.614 35.006 51.646C35.006 52.678 35.168 53.56 35.492 54.292C35.816 55.012 36.29 55.564 36.914 55.948C37.538 56.32 38.306 56.506 39.218 56.506C39.746 56.506 40.25 56.434 40.73 56.29C41.222 56.134 41.684 55.906 42.116 55.606C42.332 55.474 42.524 55.414 42.692 55.426C42.872 55.438 43.022 55.498 43.142 55.606C43.262 55.714 43.34 55.852 43.376 56.02C43.424 56.176 43.418 56.344 43.358 56.524C43.31 56.692 43.196 56.836 43.016 56.956C42.524 57.352 41.942 57.652 41.27 57.856C40.598 58.06 39.896 58.162 39.164 58.162ZM48.6253 58.162C47.7373 58.162 46.9693 57.976 46.3213 57.604C45.6853 57.232 45.1873 56.704 44.8273 56.02C44.4673 55.336 44.2873 54.532 44.2873 53.608C44.2873 52.9 44.3893 52.27 44.5933 51.718C44.7973 51.166 45.0853 50.692 45.4573 50.296C45.8413 49.888 46.2973 49.582 46.8253 49.378C47.3653 49.162 47.9653 49.054 48.6253 49.054C49.5013 49.054 50.2573 49.24 50.8933 49.612C51.5413 49.984 52.0453 50.512 52.4053 51.196C52.7653 51.868 52.9453 52.672 52.9453 53.608C52.9453 54.304 52.8433 54.934 52.6393 55.498C52.4353 56.062 52.1413 56.542 51.7573 56.938C51.3853 57.334 50.9293 57.64 50.3893 57.856C49.8613 58.06 49.2733 58.162 48.6253 58.162ZM48.6253 56.758C49.1173 56.758 49.5493 56.638 49.9213 56.398C50.2933 56.158 50.5813 55.804 50.7853 55.336C51.0013 54.868 51.1093 54.292 51.1093 53.608C51.1093 52.576 50.8813 51.796 50.4253 51.268C49.9693 50.74 49.3693 50.476 48.6253 50.476C48.1213 50.476 47.6833 50.596 47.3113 50.836C46.9393 51.064 46.6453 51.412 46.4293 51.88C46.2253 52.348 46.1233 52.924 46.1233 53.608C46.1233 54.628 46.3513 55.408 46.8073 55.948C47.2633 56.488 47.8693 56.758 48.6253 56.758ZM55.887 58.126C55.599 58.126 55.377 58.048 55.221 57.892C55.065 57.724 54.987 57.496 54.987 57.208V50.008C54.987 49.708 55.065 49.48 55.221 49.324C55.377 49.168 55.593 49.09 55.869 49.09C56.157 49.09 56.373 49.168 56.517 49.324C56.673 49.48 56.751 49.708 56.751 50.008V51.412L56.553 51.088C56.817 50.416 57.231 49.912 57.795 49.576C58.359 49.228 59.007 49.054 59.739 49.054C60.435 49.054 61.011 49.186 61.467 49.45C61.935 49.702 62.283 50.092 62.511 50.62C62.739 51.136 62.853 51.79 62.853 52.582V57.208C62.853 57.496 62.775 57.724 62.619 57.892C62.463 58.048 62.241 58.126 61.953 58.126C61.653 58.126 61.425 58.048 61.269 57.892C61.113 57.724 61.035 57.496 61.035 57.208V52.69C61.035 51.934 60.885 51.382 60.585 51.034C60.297 50.686 59.841 50.512 59.217 50.512C58.485 50.512 57.897 50.74 57.453 51.196C57.021 51.652 56.805 52.264 56.805 53.032V57.208C56.805 57.82 56.499 58.126 55.887 58.126ZM69.1021 58.162C68.3821 58.162 67.7761 58.036 67.2841 57.784C66.7921 57.532 66.4261 57.16 66.1861 56.668C65.9461 56.176 65.8261 55.576 65.8261 54.868V50.62H64.7461C64.5061 50.62 64.3201 50.56 64.1881 50.44C64.0561 50.308 63.9901 50.134 63.9901 49.918C63.9901 49.69 64.0561 49.516 64.1881 49.396C64.3201 49.276 64.5061 49.216 64.7461 49.216H65.8261V47.362C65.8261 47.062 65.9041 46.834 66.0601 46.678C66.2281 46.522 66.4561 46.444 66.7441 46.444C67.0321 46.444 67.2541 46.522 67.4101 46.678C67.5661 46.834 67.6441 47.062 67.6441 47.362V49.216H69.7501C69.9901 49.216 70.1761 49.276 70.3081 49.396C70.4401 49.516 70.5061 49.69 70.5061 49.918C70.5061 50.134 70.4401 50.308 70.3081 50.44C70.1761 50.56 69.9901 50.62 69.7501 50.62H67.6441V54.724C67.6441 55.36 67.7761 55.84 68.0401 56.164C68.3161 56.488 68.7601 56.65 69.3721 56.65C69.5881 56.65 69.7741 56.632 69.9301 56.596C70.0981 56.548 70.2361 56.518 70.3441 56.506C70.4761 56.506 70.5841 56.554 70.6681 56.65C70.7521 56.734 70.7941 56.902 70.7941 57.154C70.7941 57.334 70.7581 57.502 70.6861 57.658C70.6261 57.814 70.5121 57.916 70.3441 57.964C70.2001 58.012 70.0021 58.054 69.7501 58.09C69.5101 58.138 69.2941 58.162 69.1021 58.162ZM72.8503 58.126C72.5503 58.126 72.3223 58.048 72.1663 57.892C72.0103 57.724 71.9323 57.496 71.9323 57.208V50.008C71.9323 49.708 72.0103 49.48 72.1663 49.324C72.3223 49.168 72.5383 49.09 72.8143 49.09C73.1023 49.09 73.3183 49.168 73.4623 49.324C73.6183 49.48 73.6963 49.708 73.6963 50.008V51.322H73.5163C73.7083 50.602 74.0623 50.056 74.5783 49.684C75.0943 49.312 75.7543 49.096 76.5583 49.036C76.7743 49.024 76.9423 49.078 77.0623 49.198C77.1943 49.318 77.2663 49.504 77.2783 49.756C77.3023 50.008 77.2483 50.212 77.1163 50.368C76.9843 50.512 76.7803 50.596 76.5043 50.62L76.1623 50.656C75.3823 50.728 74.7883 50.974 74.3803 51.394C73.9723 51.814 73.7683 52.39 73.7683 53.122V57.208C73.7683 57.496 73.6903 57.724 73.5343 57.892C73.3903 58.048 73.1623 58.126 72.8503 58.126ZM81.3673 58.162C80.7553 58.162 80.2033 58.042 79.7113 57.802C79.2313 57.562 78.8533 57.238 78.5773 56.83C78.3013 56.422 78.1633 55.96 78.1633 55.444C78.1633 54.796 78.3253 54.286 78.6493 53.914C78.9853 53.53 79.5313 53.26 80.2873 53.104C81.0553 52.936 82.0873 52.852 83.3833 52.852H84.2293V53.968H83.4013C82.5373 53.968 81.8533 54.01 81.3493 54.094C80.8453 54.178 80.4853 54.322 80.2693 54.526C80.0653 54.718 79.9633 54.988 79.9633 55.336C79.9633 55.792 80.1193 56.164 80.4313 56.452C80.7433 56.728 81.1753 56.866 81.7273 56.866C82.1713 56.866 82.5613 56.764 82.8973 56.56C83.2333 56.344 83.4973 56.056 83.6893 55.696C83.8933 55.336 83.9953 54.922 83.9953 54.454V52.384C83.9953 51.7 83.8513 51.208 83.5633 50.908C83.2753 50.608 82.8013 50.458 82.1413 50.458C81.7573 50.458 81.3553 50.506 80.9353 50.602C80.5273 50.698 80.1013 50.86 79.6572 51.088C79.4533 51.184 79.2793 51.214 79.1353 51.178C78.9913 51.142 78.8773 51.064 78.7933 50.944C78.7093 50.812 78.6613 50.674 78.6493 50.53C78.6493 50.374 78.6853 50.224 78.7573 50.08C78.8413 49.936 78.9793 49.828 79.1713 49.756C79.6993 49.504 80.2213 49.324 80.7373 49.216C81.2533 49.108 81.7393 49.054 82.1953 49.054C82.9993 49.054 83.6593 49.18 84.1753 49.432C84.7033 49.684 85.0933 50.068 85.3453 50.584C85.5973 51.1 85.7233 51.766 85.7233 52.582V57.208C85.7233 57.496 85.6513 57.724 85.5073 57.892C85.3633 58.048 85.1533 58.126 84.8773 58.126C84.6133 58.126 84.4033 58.048 84.2473 57.892C84.0913 57.724 84.0133 57.496 84.0133 57.208V56.038H84.1753C84.0793 56.482 83.8993 56.866 83.6353 57.19C83.3833 57.502 83.0653 57.742 82.6813 57.91C82.2973 58.078 81.8593 58.162 81.3673 58.162ZM91.3052 58.162C90.7772 58.162 90.2312 58.102 89.6672 57.982C89.1152 57.862 88.6052 57.658 88.1372 57.37C87.9812 57.262 87.8732 57.142 87.8132 57.01C87.7532 56.878 87.7292 56.746 87.7412 56.614C87.7652 56.47 87.8192 56.35 87.9032 56.254C87.9992 56.146 88.1132 56.08 88.2452 56.056C88.3892 56.032 88.5392 56.062 88.6952 56.146C89.1632 56.41 89.6132 56.596 90.0452 56.704C90.4772 56.8 90.9032 56.848 91.3232 56.848C91.9592 56.848 92.4392 56.734 92.7632 56.506C93.0872 56.278 93.2492 55.972 93.2492 55.588C93.2492 55.276 93.1412 55.036 92.9252 54.868C92.7092 54.688 92.3852 54.55 91.9532 54.454L90.2432 54.112C89.4992 53.956 88.9352 53.68 88.5512 53.284C88.1672 52.888 87.9752 52.384 87.9752 51.772C87.9752 51.22 88.1252 50.74 88.4252 50.332C88.7252 49.924 89.1452 49.612 89.6852 49.396C90.2252 49.168 90.8492 49.054 91.5572 49.054C92.0852 49.054 92.5832 49.12 93.0512 49.252C93.5192 49.384 93.9512 49.582 94.3472 49.846C94.5032 49.93 94.6052 50.044 94.6532 50.188C94.7012 50.32 94.7072 50.452 94.6712 50.584C94.6472 50.716 94.5872 50.836 94.4912 50.944C94.3952 51.04 94.2752 51.1 94.1312 51.124C93.9992 51.136 93.8492 51.1 93.6812 51.016C93.3212 50.788 92.9612 50.626 92.6012 50.53C92.2532 50.434 91.9052 50.386 91.5572 50.386C90.9212 50.386 90.4412 50.506 90.1172 50.746C89.8052 50.974 89.6492 51.286 89.6492 51.682C89.6492 51.982 89.7452 52.228 89.9372 52.42C90.1292 52.612 90.4292 52.75 90.8372 52.834L92.5472 53.176C93.3272 53.332 93.9152 53.596 94.3112 53.968C94.7192 54.34 94.9232 54.844 94.9232 55.48C94.9232 56.308 94.5932 56.962 93.9332 57.442C93.2732 57.922 92.3972 58.162 91.3052 58.162ZM101.068 58.162C100.108 58.162 99.28 57.982 98.584 57.622C97.9 57.25 97.366 56.728 96.982 56.056C96.61 55.372 96.424 54.562 96.424 53.626C96.424 52.714 96.61 51.916 96.982 51.232C97.354 50.548 97.864 50.014 98.512 49.63C99.16 49.246 99.898 49.054 100.726 49.054C101.338 49.054 101.884 49.156 102.364 49.36C102.844 49.552 103.252 49.84 103.588 50.224C103.936 50.596 104.194 51.052 104.362 51.592C104.542 52.132 104.632 52.738 104.632 53.41C104.632 53.614 104.572 53.77 104.452 53.878C104.332 53.974 104.152 54.022 103.912 54.022H97.864V52.906H103.408L103.102 53.158C103.102 52.558 103.012 52.048 102.832 51.628C102.664 51.208 102.406 50.89 102.058 50.674C101.722 50.446 101.302 50.332 100.798 50.332C100.234 50.332 99.754 50.464 99.358 50.728C98.974 50.992 98.68 51.358 98.476 51.826C98.272 52.294 98.17 52.84 98.17 53.464V53.572C98.17 54.628 98.416 55.426 98.908 55.966C99.412 56.494 100.138 56.758 101.086 56.758C101.446 56.758 101.824 56.71 102.22 56.614C102.628 56.518 103.012 56.356 103.372 56.128C103.576 56.008 103.756 55.954 103.912 55.966C104.08 55.978 104.212 56.032 104.308 56.128C104.416 56.224 104.482 56.344 104.506 56.488C104.53 56.632 104.506 56.782 104.434 56.938C104.362 57.082 104.236 57.214 104.056 57.334C103.648 57.61 103.174 57.82 102.634 57.964C102.094 58.096 101.572 58.162 101.068 58.162ZM107.514 58.126C107.226 58.126 107.004 58.048 106.848 57.892C106.692 57.724 106.614 57.496 106.614 57.208V50.008C106.614 49.708 106.692 49.48 106.848 49.324C107.004 49.168 107.22 49.09 107.496 49.09C107.784 49.09 108 49.168 108.144 49.324C108.3 49.48 108.378 49.708 108.378 50.008V51.412L108.18 51.088C108.444 50.416 108.858 49.912 109.422 49.576C109.986 49.228 110.634 49.054 111.366 49.054C112.062 49.054 112.638 49.186 113.094 49.45C113.562 49.702 113.91 50.092 114.138 50.62C114.366 51.136 114.48 51.79 114.48 52.582V57.208C114.48 57.496 114.402 57.724 114.246 57.892C114.09 58.048 113.868 58.126 113.58 58.126C113.28 58.126 113.052 58.048 112.896 57.892C112.74 57.724 112.662 57.496 112.662 57.208V52.69C112.662 51.934 112.512 51.382 112.212 51.034C111.924 50.686 111.468 50.512 110.844 50.512C110.112 50.512 109.524 50.74 109.08 51.196C108.648 51.652 108.432 52.264 108.432 53.032V57.208C108.432 57.82 108.126 58.126 107.514 58.126ZM107.658 47.488C107.514 47.476 107.4 47.422 107.316 47.326C107.232 47.23 107.208 47.086 107.244 46.894C107.292 46.63 107.364 46.378 107.46 46.138C107.568 45.886 107.7 45.664 107.856 45.472C108.012 45.28 108.204 45.13 108.432 45.022C108.66 44.902 108.924 44.842 109.224 44.842C109.512 44.842 109.77 44.908 109.998 45.04C110.226 45.172 110.436 45.322 110.628 45.49C110.82 45.658 111.012 45.808 111.204 45.94C111.396 46.072 111.606 46.138 111.834 46.138C112.098 46.138 112.32 46.042 112.5 45.85C112.692 45.658 112.818 45.406 112.878 45.094C112.902 44.974 112.956 44.884 113.04 44.824C113.124 44.752 113.25 44.722 113.418 44.734C113.562 44.734 113.676 44.782 113.76 44.878C113.844 44.974 113.868 45.124 113.832 45.328C113.772 45.676 113.658 46.006 113.49 46.318C113.334 46.63 113.118 46.882 112.842 47.074C112.578 47.266 112.248 47.362 111.852 47.362C111.564 47.362 111.306 47.302 111.078 47.182C110.85 47.05 110.634 46.9 110.43 46.732C110.238 46.564 110.046 46.414 109.854 46.282C109.662 46.15 109.458 46.084 109.242 46.084C108.978 46.084 108.756 46.18 108.576 46.372C108.396 46.552 108.27 46.804 108.198 47.128C108.186 47.248 108.132 47.344 108.036 47.416C107.952 47.476 107.826 47.5 107.658 47.488ZM119.793 58.162C119.181 58.162 118.629 58.042 118.137 57.802C117.657 57.562 117.279 57.238 117.003 56.83C116.727 56.422 116.589 55.96 116.589 55.444C116.589 54.796 116.751 54.286 117.075 53.914C117.411 53.53 117.957 53.26 118.713 53.104C119.481 52.936 120.513 52.852 121.809 52.852H122.655V53.968H121.827C120.963 53.968 120.279 54.01 119.775 54.094C119.271 54.178 118.911 54.322 118.695 54.526C118.491 54.718 118.389 54.988 118.389 55.336C118.389 55.792 118.545 56.164 118.857 56.452C119.169 56.728 119.601 56.866 120.153 56.866C120.597 56.866 120.987 56.764 121.323 56.56C121.659 56.344 121.923 56.056 122.115 55.696C122.319 55.336 122.421 54.922 122.421 54.454V52.384C122.421 51.7 122.277 51.208 121.989 50.908C121.701 50.608 121.227 50.458 120.567 50.458C120.183 50.458 119.781 50.506 119.361 50.602C118.953 50.698 118.527 50.86 118.083 51.088C117.879 51.184 117.705 51.214 117.561 51.178C117.417 51.142 117.303 51.064 117.219 50.944C117.135 50.812 117.087 50.674 117.075 50.53C117.075 50.374 117.111 50.224 117.183 50.08C117.267 49.936 117.405 49.828 117.597 49.756C118.125 49.504 118.647 49.324 119.163 49.216C119.679 49.108 120.165 49.054 120.621 49.054C121.425 49.054 122.085 49.18 122.601 49.432C123.129 49.684 123.519 50.068 123.771 50.584C124.023 51.1 124.149 51.766 124.149 52.582V57.208C124.149 57.496 124.077 57.724 123.933 57.892C123.789 58.048 123.579 58.126 123.303 58.126C123.039 58.126 122.829 58.048 122.673 57.892C122.517 57.724 122.439 57.496 122.439 57.208V56.038H122.601C122.505 56.482 122.325 56.866 122.061 57.19C121.809 57.502 121.491 57.742 121.107 57.91C120.723 58.078 120.285 58.162 119.793 58.162Z" fill="#101E37"/>
<rect x="33" y="73" width="377" height="46" rx="7" fill="white"/>
<rect x="33" y="73" width="377" height="46" rx="7" stroke="#101E37" stroke-width="2"/>
<path d="M55.152 102.544C54.2773 102.544 53.456 102.379 52.688 102.048C51.92 101.728 51.2427 101.28 50.656 100.704C50.08 100.117 49.6267 99.44 49.296 98.672C48.976 97.904 48.816 97.0827 48.816 96.208C48.816 95.3227 48.976 94.5013 49.296 93.744C49.6267 92.976 50.08 92.304 50.656 91.728C51.2427 91.1413 51.92 90.688 52.688 90.368C53.456 90.0373 54.2773 89.872 55.152 89.872C56.0373 89.872 56.8587 90.0373 57.616 90.368C58.384 90.688 59.056 91.1413 59.632 91.728C60.2187 92.304 60.672 92.976 60.992 93.744C61.3227 94.5013 61.488 95.3227 61.488 96.208C61.488 97.0827 61.3227 97.904 60.992 98.672C60.672 99.44 60.2187 100.117 59.632 100.704C59.056 101.28 58.384 101.728 57.616 102.048C56.8587 102.379 56.0373 102.544 55.152 102.544ZM73.6051 102.544C72.7305 102.544 71.9091 102.379 71.1411 102.048C70.3731 101.728 69.6958 101.28 69.1091 100.704C68.5331 100.117 68.0798 99.44 67.7491 98.672C67.4291 97.904 67.2691 97.0827 67.2691 96.208C67.2691 95.3227 67.4291 94.5013 67.7491 93.744C68.0798 92.976 68.5331 92.304 69.1091 91.728C69.6958 91.1413 70.3731 90.688 71.1411 90.368C71.9091 90.0373 72.7305 89.872 73.6051 89.872C74.4905 89.872 75.3118 90.0373 76.0691 90.368C76.8371 90.688 77.5091 91.1413 78.0851 91.728C78.6718 92.304 79.1251 92.976 79.4451 93.744C79.7758 94.5013 79.9411 95.3227 79.9411 96.208C79.9411 97.0827 79.7758 97.904 79.4451 98.672C79.1251 99.44 78.6718 100.117 78.0851 100.704C77.5091 101.28 76.8371 101.728 76.0691 102.048C75.3118 102.379 74.4905 102.544 73.6051 102.544ZM92.0583 102.544C91.1836 102.544 90.3623 102.379 89.5943 102.048C88.8263 101.728 88.1489 101.28 87.5623 100.704C86.9863 100.117 86.5329 99.44 86.2023 98.672C85.8823 97.904 85.7223 97.0827 85.7223 96.208C85.7223 95.3227 85.8823 94.5013 86.2023 93.744C86.5329 92.976 86.9863 92.304 87.5623 91.728C88.1489 91.1413 88.8263 90.688 89.5943 90.368C90.3623 90.0373 91.1836 89.872 92.0583 89.872C92.9436 89.872 93.7649 90.0373 94.5223 90.368C95.2903 90.688 95.9623 91.1413 96.5383 91.728C97.1249 92.304 97.5783 92.976 97.8983 93.744C98.2289 94.5013 98.3943 95.3227 98.3943 96.208C98.3943 97.0827 98.2289 97.904 97.8983 98.672C97.5783 99.44 97.1249 100.117 96.5383 100.704C95.9623 101.28 95.2903 101.728 94.5223 102.048C93.7649 102.379 92.9436 102.544 92.0583 102.544ZM110.511 102.544C109.637 102.544 108.815 102.379 108.047 102.048C107.279 101.728 106.602 101.28 106.015 100.704C105.439 100.117 104.986 99.44 104.655 98.672C104.335 97.904 104.175 97.0827 104.175 96.208C104.175 95.3227 104.335 94.5013 104.655 93.744C104.986 92.976 105.439 92.304 106.015 91.728C106.602 91.1413 107.279 90.688 108.047 90.368C108.815 90.0373 109.637 89.872 110.511 89.872C111.397 89.872 112.218 90.0373 112.975 90.368C113.743 90.688 114.415 91.1413 114.991 91.728C115.578 92.304 116.031 92.976 116.351 93.744C116.682 94.5013 116.847 95.3227 116.847 96.208C116.847 97.0827 116.682 97.904 116.351 98.672C116.031 99.44 115.578 100.117 114.991 100.704C114.415 101.28 113.743 101.728 112.975 102.048C112.218 102.379 111.397 102.544 110.511 102.544ZM128.965 102.544C128.09 102.544 127.269 102.379 126.501 102.048C125.733 101.728 125.055 101.28 124.469 100.704C123.893 100.117 123.439 99.44 123.109 98.672C122.789 97.904 122.629 97.0827 122.629 96.208C122.629 95.3227 122.789 94.5013 123.109 93.744C123.439 92.976 123.893 92.304 124.469 91.728C125.055 91.1413 125.733 90.688 126.501 90.368C127.269 90.0373 128.09 89.872 128.965 89.872C129.85 89.872 130.671 90.0373 131.429 90.368C132.197 90.688 132.869 91.1413 133.445 91.728C134.031 92.304 134.485 92.976 134.805 93.744C135.135 94.5013 135.301 95.3227 135.301 96.208C135.301 97.0827 135.135 97.904 134.805 98.672C134.485 99.44 134.031 100.117 133.445 100.704C132.869 101.28 132.197 101.728 131.429 102.048C130.671 102.379 129.85 102.544 128.965 102.544ZM147.418 102.544C146.543 102.544 145.722 102.379 144.954 102.048C144.186 101.728 143.508 101.28 142.922 100.704C142.346 100.117 141.892 99.44 141.562 98.672C141.242 97.904 141.082 97.0827 141.082 96.208C141.082 95.3227 141.242 94.5013 141.562 93.744C141.892 92.976 142.346 92.304 142.922 91.728C143.508 91.1413 144.186 90.688 144.954 90.368C145.722 90.0373 146.543 89.872 147.418 89.872C148.303 89.872 149.124 90.0373 149.882 90.368C150.65 90.688 151.322 91.1413 151.898 91.728C152.484 92.304 152.938 92.976 153.258 93.744C153.588 94.5013 153.754 95.3227 153.754 96.208C153.754 97.0827 153.588 97.904 153.258 98.672C152.938 99.44 152.484 100.117 151.898 100.704C151.322 101.28 150.65 101.728 149.882 102.048C149.124 102.379 148.303 102.544 147.418 102.544ZM165.871 102.544C164.996 102.544 164.175 102.379 163.407 102.048C162.639 101.728 161.961 101.28 161.375 100.704C160.799 100.117 160.345 99.44 160.015 98.672C159.695 97.904 159.535 97.0827 159.535 96.208C159.535 95.3227 159.695 94.5013 160.015 93.744C160.345 92.976 160.799 92.304 161.375 91.728C161.961 91.1413 162.639 90.688 163.407 90.368C164.175 90.0373 164.996 89.872 165.871 89.872C166.756 89.872 167.577 90.0373 168.335 90.368C169.103 90.688 169.775 91.1413 170.351 91.728C170.937 92.304 171.391 92.976 171.711 93.744C172.041 94.5013 172.207 95.3227 172.207 96.208C172.207 97.0827 172.041 97.904 171.711 98.672C171.391 99.44 170.937 100.117 170.351 100.704C169.775 101.28 169.103 101.728 168.335 102.048C167.577 102.379 166.756 102.544 165.871 102.544ZM184.324 102.544C183.449 102.544 182.628 102.379 181.86 102.048C181.092 101.728 180.415 101.28 179.828 100.704C179.252 100.117 178.799 99.44 178.468 98.672C178.148 97.904 177.988 97.0827 177.988 96.208C177.988 95.3227 178.148 94.5013 178.468 93.744C178.799 92.976 179.252 92.304 179.828 91.728C180.415 91.1413 181.092 90.688 181.86 90.368C182.628 90.0373 183.449 89.872 184.324 89.872C185.209 89.872 186.031 90.0373 186.788 90.368C187.556 90.688 188.228 91.1413 188.804 91.728C189.391 92.304 189.844 92.976 190.164 93.744C190.495 94.5013 190.66 95.3227 190.66 96.208C190.66 97.0827 190.495 97.904 190.164 98.672C189.844 99.44 189.391 100.117 188.804 100.704C188.228 101.28 187.556 101.728 186.788 102.048C186.031 102.379 185.209 102.544 184.324 102.544ZM202.777 102.544C201.902 102.544 201.081 102.379 200.313 102.048C199.545 101.728 198.868 101.28 198.281 100.704C197.705 100.117 197.252 99.44 196.921 98.672C196.601 97.904 196.441 97.0827 196.441 96.208C196.441 95.3227 196.601 94.5013 196.921 93.744C197.252 92.976 197.705 92.304 198.281 91.728C198.868 91.1413 199.545 90.688 200.313 90.368C201.081 90.0373 201.902 89.872 202.777 89.872C203.662 89.872 204.484 90.0373 205.241 90.368C206.009 90.688 206.681 91.1413 207.257 91.728C207.844 92.304 208.297 92.976 208.617 93.744C208.948 94.5013 209.113 95.3227 209.113 96.208C209.113 97.0827 208.948 97.904 208.617 98.672C208.297 99.44 207.844 100.117 207.257 100.704C206.681 101.28 206.009 101.728 205.241 102.048C204.484 102.379 203.662 102.544 202.777 102.544Z" fill="#101E37"/>
<path d="M40.9277 133.006V139.473C40.9277 140.179 40.7842 140.808 40.4971 141.359C40.2145 141.911 39.7861 142.346 39.2119 142.665C38.6377 142.979 37.9176 143.137 37.0518 143.137C35.8167 143.137 34.8757 142.802 34.2285 142.132C33.5859 141.462 33.2646 140.566 33.2646 139.445V133.006H34.4336V139.479C34.4336 140.327 34.6569 140.981 35.1035 141.441C35.5547 141.902 36.2269 142.132 37.1201 142.132C37.7308 142.132 38.2298 142.022 38.6172 141.804C39.0091 141.58 39.2985 141.271 39.4854 140.874C39.6768 140.473 39.7725 140.01 39.7725 139.486V133.006H40.9277ZM48.2559 140.949C48.2559 141.428 48.1351 141.831 47.8936 142.159C47.6566 142.483 47.3148 142.727 46.8682 142.891C46.4261 143.055 45.8975 143.137 45.2822 143.137C44.7581 143.137 44.3047 143.096 43.9219 143.014C43.5391 142.932 43.2041 142.815 42.917 142.665V141.619C43.2223 141.77 43.5869 141.906 44.0107 142.029C44.4346 142.152 44.8675 142.214 45.3096 142.214C45.9567 142.214 46.4261 142.109 46.7178 141.899C47.0094 141.69 47.1553 141.405 47.1553 141.045C47.1553 140.84 47.096 140.66 46.9775 140.505C46.8636 140.345 46.6699 140.193 46.3965 140.047C46.123 139.896 45.7448 139.732 45.2617 139.555C44.7832 139.372 44.3685 139.192 44.0176 139.015C43.6712 138.832 43.4023 138.611 43.2109 138.352C43.0241 138.092 42.9307 137.755 42.9307 137.34C42.9307 136.706 43.1859 136.221 43.6963 135.884C44.2113 135.542 44.8857 135.371 45.7197 135.371C46.1709 135.371 46.5924 135.417 46.9844 135.508C47.3809 135.594 47.75 135.713 48.0918 135.863L47.709 136.772C47.3991 136.64 47.0687 136.529 46.7178 136.438C46.3669 136.346 46.0091 136.301 45.6445 136.301C45.1204 136.301 44.7171 136.387 44.4346 136.561C44.1566 136.734 44.0176 136.971 44.0176 137.271C44.0176 137.504 44.0814 137.695 44.209 137.846C44.3411 137.996 44.5508 138.137 44.8379 138.27C45.125 138.402 45.5033 138.557 45.9727 138.734C46.4421 138.908 46.8477 139.088 47.1895 139.274C47.5312 139.457 47.7933 139.68 47.9756 139.944C48.1624 140.204 48.2559 140.539 48.2559 140.949ZM52.8838 135.385C53.777 135.385 54.4401 135.585 54.873 135.986C55.306 136.387 55.5225 137.028 55.5225 137.907V143H54.6953L54.4766 141.893H54.4219C54.2122 142.166 53.9935 142.396 53.7656 142.583C53.5378 142.765 53.2734 142.904 52.9727 143C52.6764 143.091 52.3118 143.137 51.8789 143.137C51.4232 143.137 51.0176 143.057 50.6621 142.897C50.3112 142.738 50.0332 142.496 49.8281 142.173C49.6276 141.849 49.5273 141.439 49.5273 140.942C49.5273 140.195 49.8236 139.621 50.416 139.22C51.0085 138.819 51.9108 138.6 53.123 138.563L54.415 138.509V138.051C54.415 137.404 54.276 136.95 53.998 136.69C53.7201 136.431 53.3281 136.301 52.8223 136.301C52.4303 136.301 52.0566 136.358 51.7012 136.472C51.3457 136.586 51.0085 136.72 50.6895 136.875L50.3408 136.014C50.6781 135.84 51.0654 135.692 51.5029 135.569C51.9404 135.446 52.4007 135.385 52.8838 135.385ZM54.4014 139.309L53.2598 139.356C52.3255 139.393 51.667 139.546 51.2842 139.814C50.9014 140.083 50.71 140.464 50.71 140.956C50.71 141.384 50.8398 141.701 51.0996 141.906C51.3594 142.111 51.7035 142.214 52.1318 142.214C52.7972 142.214 53.3418 142.029 53.7656 141.66C54.1895 141.291 54.4014 140.737 54.4014 139.999V139.309ZM54.7568 132.274V132.411C54.6657 132.543 54.5404 132.703 54.3809 132.89C54.2259 133.072 54.0527 133.266 53.8613 133.471C53.6699 133.671 53.4762 133.863 53.2803 134.045C53.0889 134.227 52.9111 134.384 52.7471 134.517H51.9883V134.353C52.1341 134.179 52.2936 133.972 52.4668 133.73C52.64 133.484 52.8086 133.234 52.9727 132.979C53.1367 132.719 53.2734 132.484 53.3828 132.274H54.7568ZM64.2998 135.385C65.193 135.385 65.8561 135.585 66.2891 135.986C66.722 136.387 66.9385 137.028 66.9385 137.907V143H66.1113L65.8926 141.893H65.8379C65.6283 142.166 65.4095 142.396 65.1816 142.583C64.9538 142.765 64.6895 142.904 64.3887 143C64.0924 143.091 63.7279 143.137 63.2949 143.137C62.8392 143.137 62.4336 143.057 62.0781 142.897C61.7272 142.738 61.4492 142.496 61.2441 142.173C61.0436 141.849 60.9434 141.439 60.9434 140.942C60.9434 140.195 61.2396 139.621 61.832 139.22C62.4245 138.819 63.3268 138.6 64.5391 138.563L65.8311 138.509V138.051C65.8311 137.404 65.6921 136.95 65.4141 136.69C65.1361 136.431 64.7441 136.301 64.2383 136.301C63.8464 136.301 63.4727 136.358 63.1172 136.472C62.7617 136.586 62.4245 136.72 62.1055 136.875L61.7568 136.014C62.0941 135.84 62.4814 135.692 62.9189 135.569C63.3564 135.446 63.8167 135.385 64.2998 135.385ZM65.8174 139.309L64.6758 139.356C63.7415 139.393 63.083 139.546 62.7002 139.814C62.3174 140.083 62.126 140.464 62.126 140.956C62.126 141.384 62.2559 141.701 62.5156 141.906C62.7754 142.111 63.1195 142.214 63.5479 142.214C64.2132 142.214 64.7578 142.029 65.1816 141.66C65.6055 141.291 65.8174 140.737 65.8174 139.999V139.309ZM70.418 143H69.2764V132.363H70.418V143ZM84.5889 135.371C85.4137 135.371 86.0358 135.588 86.4551 136.021C86.8743 136.449 87.084 137.139 87.084 138.092V143H85.9629V138.146C85.9629 137.54 85.8307 137.087 85.5664 136.786C85.3066 136.481 84.9193 136.328 84.4043 136.328C83.6797 136.328 83.1533 136.538 82.8252 136.957C82.4971 137.376 82.333 137.994 82.333 138.81V143H81.2051V138.146C81.2051 137.741 81.1458 137.404 81.0273 137.135C80.9134 136.866 80.7402 136.665 80.5078 136.533C80.2799 136.396 79.9906 136.328 79.6396 136.328C79.1429 136.328 78.7441 136.431 78.4434 136.636C78.1426 136.841 77.9238 137.146 77.7871 137.552C77.6549 137.953 77.5889 138.447 77.5889 139.035V143H76.4541V135.508H77.3701L77.541 136.567H77.6025C77.7529 136.308 77.9421 136.089 78.1699 135.911C78.3978 135.733 78.653 135.599 78.9355 135.508C79.2181 135.417 79.5189 135.371 79.8379 135.371C80.4076 135.371 80.8838 135.478 81.2666 135.692C81.654 135.902 81.9342 136.223 82.1074 136.656H82.1689C82.415 136.223 82.7523 135.902 83.1807 135.692C83.609 135.478 84.0785 135.371 84.5889 135.371ZM92.2998 135.371C92.9378 135.371 93.4847 135.512 93.9404 135.795C94.3962 136.077 94.7448 136.474 94.9863 136.984C95.2279 137.49 95.3486 138.083 95.3486 138.762V139.466H90.1738C90.1875 140.345 90.4062 141.015 90.8301 141.476C91.2539 141.936 91.8509 142.166 92.6211 142.166C93.0951 142.166 93.5143 142.123 93.8789 142.036C94.2435 141.95 94.6217 141.822 95.0137 141.653V142.651C94.6354 142.82 94.2594 142.943 93.8857 143.021C93.5166 143.098 93.0791 143.137 92.5732 143.137C91.8532 143.137 91.2243 142.991 90.6865 142.699C90.1533 142.403 89.7386 141.97 89.4424 141.4C89.1462 140.831 88.998 140.133 88.998 139.309C88.998 138.502 89.1325 137.805 89.4014 137.217C89.6748 136.624 90.0576 136.169 90.5498 135.85C91.0465 135.531 91.6299 135.371 92.2998 135.371ZM92.2861 136.301C91.68 136.301 91.1969 136.499 90.8369 136.896C90.4769 137.292 90.2627 137.846 90.1943 138.557H94.1592C94.1546 138.11 94.084 137.718 93.9473 137.381C93.8151 137.039 93.6123 136.775 93.3389 136.588C93.0654 136.396 92.7145 136.301 92.2861 136.301ZM100.824 135.371C101.713 135.371 102.385 135.59 102.841 136.027C103.297 136.46 103.524 137.158 103.524 138.119V143H102.403V138.194C102.403 137.57 102.26 137.103 101.973 136.793C101.69 136.483 101.255 136.328 100.667 136.328C99.8376 136.328 99.2542 136.563 98.917 137.032C98.5798 137.502 98.4111 138.183 98.4111 139.076V143H97.2764V135.508H98.1924L98.3633 136.588H98.4248C98.5843 136.324 98.7871 136.103 99.0332 135.925C99.2793 135.743 99.555 135.606 99.8604 135.515C100.166 135.419 100.487 135.371 100.824 135.371ZM112.322 139.24C112.322 139.855 112.243 140.405 112.083 140.888C111.924 141.371 111.693 141.779 111.393 142.111C111.092 142.444 110.727 142.699 110.299 142.877C109.875 143.05 109.394 143.137 108.856 143.137C108.355 143.137 107.895 143.05 107.476 142.877C107.061 142.699 106.701 142.444 106.396 142.111C106.095 141.779 105.86 141.371 105.691 140.888C105.527 140.405 105.445 139.855 105.445 139.24C105.445 138.42 105.584 137.723 105.862 137.148C106.14 136.57 106.537 136.13 107.052 135.829C107.571 135.524 108.189 135.371 108.904 135.371C109.588 135.371 110.185 135.524 110.695 135.829C111.21 136.134 111.609 136.576 111.892 137.155C112.179 137.729 112.322 138.424 112.322 139.24ZM106.621 139.24C106.621 139.842 106.701 140.364 106.86 140.806C107.02 141.248 107.266 141.59 107.599 141.831C107.931 142.073 108.36 142.193 108.884 142.193C109.403 142.193 109.829 142.073 110.162 141.831C110.499 141.59 110.748 141.248 110.907 140.806C111.067 140.364 111.146 139.842 111.146 139.24C111.146 138.643 111.067 138.128 110.907 137.695C110.748 137.258 110.502 136.921 110.169 136.684C109.836 136.447 109.406 136.328 108.877 136.328C108.098 136.328 107.526 136.586 107.161 137.101C106.801 137.616 106.621 138.329 106.621 139.24ZM119.131 140.949C119.131 141.428 119.01 141.831 118.769 142.159C118.532 142.483 118.19 142.727 117.743 142.891C117.301 143.055 116.772 143.137 116.157 143.137C115.633 143.137 115.18 143.096 114.797 143.014C114.414 142.932 114.079 142.815 113.792 142.665V141.619C114.097 141.77 114.462 141.906 114.886 142.029C115.31 142.152 115.743 142.214 116.185 142.214C116.832 142.214 117.301 142.109 117.593 141.899C117.884 141.69 118.03 141.405 118.03 141.045C118.03 140.84 117.971 140.66 117.853 140.505C117.739 140.345 117.545 140.193 117.271 140.047C116.998 139.896 116.62 139.732 116.137 139.555C115.658 139.372 115.243 139.192 114.893 139.015C114.546 138.832 114.277 138.611 114.086 138.352C113.899 138.092 113.806 137.755 113.806 137.34C113.806 136.706 114.061 136.221 114.571 135.884C115.086 135.542 115.761 135.371 116.595 135.371C117.046 135.371 117.467 135.417 117.859 135.508C118.256 135.594 118.625 135.713 118.967 135.863L118.584 136.772C118.274 136.64 117.944 136.529 117.593 136.438C117.242 136.346 116.884 136.301 116.52 136.301C115.995 136.301 115.592 136.387 115.31 136.561C115.032 136.734 114.893 136.971 114.893 137.271C114.893 137.504 114.956 137.695 115.084 137.846C115.216 137.996 115.426 138.137 115.713 138.27C116 138.402 116.378 138.557 116.848 138.734C117.317 138.908 117.723 139.088 118.064 139.274C118.406 139.457 118.668 139.68 118.851 139.944C119.037 140.204 119.131 140.539 119.131 140.949ZM127.389 132.862C127.967 132.862 128.48 132.953 128.927 133.136C129.373 133.318 129.722 133.587 129.973 133.942C130.228 134.293 130.355 134.726 130.355 135.241C130.355 135.647 130.267 136.002 130.089 136.308C129.916 136.608 129.681 136.873 129.385 137.101C129.089 137.324 128.76 137.524 128.4 137.702C128.829 137.898 129.214 138.119 129.556 138.365C129.902 138.611 130.175 138.901 130.376 139.233C130.576 139.566 130.677 139.96 130.677 140.416C130.677 140.977 130.54 141.462 130.267 141.872C129.998 142.278 129.619 142.59 129.132 142.809C128.644 143.027 128.072 143.137 127.416 143.137C126.71 143.137 126.108 143.032 125.611 142.822C125.119 142.608 124.743 142.303 124.483 141.906C124.228 141.505 124.101 141.024 124.101 140.464C124.101 140.004 124.199 139.605 124.395 139.268C124.59 138.926 124.85 138.632 125.174 138.386C125.497 138.14 125.851 137.932 126.233 137.764C125.901 137.581 125.595 137.374 125.317 137.142C125.044 136.909 124.825 136.638 124.661 136.328C124.502 136.014 124.422 135.649 124.422 135.234C124.422 134.729 124.549 134.3 124.805 133.949C125.064 133.594 125.418 133.325 125.864 133.143C126.315 132.956 126.824 132.862 127.389 132.862ZM125.215 140.471C125.215 140.981 125.395 141.403 125.755 141.735C126.115 142.063 126.66 142.228 127.389 142.228C128.081 142.228 128.617 142.063 128.995 141.735C129.373 141.403 129.562 140.967 129.562 140.43C129.562 140.097 129.476 139.805 129.303 139.555C129.13 139.299 128.883 139.072 128.564 138.871C128.245 138.671 127.869 138.488 127.437 138.324L127.19 138.235C126.771 138.409 126.413 138.602 126.117 138.816C125.826 139.026 125.602 139.265 125.447 139.534C125.292 139.803 125.215 140.115 125.215 140.471ZM127.375 133.792C126.837 133.792 126.397 133.922 126.056 134.182C125.714 134.437 125.543 134.806 125.543 135.289C125.543 135.635 125.625 135.929 125.789 136.171C125.958 136.408 126.186 136.613 126.473 136.786C126.76 136.955 127.081 137.112 127.437 137.258C127.783 137.112 128.09 136.952 128.359 136.779C128.628 136.602 128.84 136.392 128.995 136.15C129.15 135.909 129.228 135.619 129.228 135.282C129.228 134.799 129.057 134.43 128.715 134.175C128.378 133.92 127.931 133.792 127.375 133.792ZM139.242 143.137C138.568 143.137 137.973 142.998 137.458 142.72C136.943 142.442 136.542 142.018 136.255 141.448C135.968 140.879 135.824 140.161 135.824 139.295C135.824 138.388 135.975 137.647 136.275 137.073C136.581 136.494 137 136.066 137.533 135.788C138.066 135.51 138.673 135.371 139.352 135.371C139.725 135.371 140.085 135.41 140.432 135.487C140.783 135.56 141.07 135.654 141.293 135.768L140.951 136.718C140.723 136.627 140.459 136.545 140.158 136.472C139.862 136.399 139.584 136.362 139.324 136.362C138.805 136.362 138.372 136.474 138.025 136.697C137.684 136.921 137.426 137.249 137.253 137.682C137.084 138.115 137 138.648 137 139.281C137 139.887 137.082 140.405 137.246 140.833C137.415 141.261 137.663 141.59 137.991 141.817C138.324 142.041 138.739 142.152 139.235 142.152C139.632 142.152 139.99 142.111 140.309 142.029C140.628 141.943 140.917 141.842 141.177 141.729V142.74C140.926 142.868 140.646 142.966 140.336 143.034C140.031 143.103 139.666 143.137 139.242 143.137ZM145.757 135.385C146.65 135.385 147.313 135.585 147.746 135.986C148.179 136.387 148.396 137.028 148.396 137.907V143H147.568L147.35 141.893H147.295C147.085 142.166 146.867 142.396 146.639 142.583C146.411 142.765 146.146 142.904 145.846 143C145.549 143.091 145.185 143.137 144.752 143.137C144.296 143.137 143.891 143.057 143.535 142.897C143.184 142.738 142.906 142.496 142.701 142.173C142.501 141.849 142.4 141.439 142.4 140.942C142.4 140.195 142.697 139.621 143.289 139.22C143.882 138.819 144.784 138.6 145.996 138.563L147.288 138.509V138.051C147.288 137.404 147.149 136.95 146.871 136.69C146.593 136.431 146.201 136.301 145.695 136.301C145.303 136.301 144.93 136.358 144.574 136.472C144.219 136.586 143.882 136.72 143.562 136.875L143.214 136.014C143.551 135.84 143.938 135.692 144.376 135.569C144.813 135.446 145.274 135.385 145.757 135.385ZM147.274 139.309L146.133 139.356C145.199 139.393 144.54 139.546 144.157 139.814C143.774 140.083 143.583 140.464 143.583 140.956C143.583 141.384 143.713 141.701 143.973 141.906C144.232 142.111 144.576 142.214 145.005 142.214C145.67 142.214 146.215 142.029 146.639 141.66C147.062 141.291 147.274 140.737 147.274 139.999V139.309ZM154.138 135.371C154.288 135.371 154.445 135.38 154.609 135.398C154.773 135.412 154.919 135.433 155.047 135.46L154.903 136.513C154.78 136.481 154.644 136.456 154.493 136.438C154.343 136.419 154.201 136.41 154.069 136.41C153.769 136.41 153.484 136.472 153.215 136.595C152.951 136.713 152.718 136.886 152.518 137.114C152.317 137.338 152.16 137.609 152.046 137.928C151.932 138.242 151.875 138.593 151.875 138.98V143H150.733V135.508H151.677L151.8 136.889H151.848C152.003 136.611 152.189 136.358 152.408 136.13C152.627 135.897 152.88 135.713 153.167 135.576C153.459 135.439 153.782 135.371 154.138 135.371ZM159.265 135.385C160.158 135.385 160.821 135.585 161.254 135.986C161.687 136.387 161.903 137.028 161.903 137.907V143H161.076L160.857 141.893H160.803C160.593 142.166 160.374 142.396 160.146 142.583C159.919 142.765 159.654 142.904 159.354 143C159.057 143.091 158.693 143.137 158.26 143.137C157.804 143.137 157.398 143.057 157.043 142.897C156.692 142.738 156.414 142.496 156.209 142.173C156.008 141.849 155.908 141.439 155.908 140.942C155.908 140.195 156.204 139.621 156.797 139.22C157.389 138.819 158.292 138.6 159.504 138.563L160.796 138.509V138.051C160.796 137.404 160.657 136.95 160.379 136.69C160.101 136.431 159.709 136.301 159.203 136.301C158.811 136.301 158.438 136.358 158.082 136.472C157.727 136.586 157.389 136.72 157.07 136.875L156.722 136.014C157.059 135.84 157.446 135.692 157.884 135.569C158.321 135.446 158.782 135.385 159.265 135.385ZM160.782 139.309L159.641 139.356C158.706 139.393 158.048 139.546 157.665 139.814C157.282 140.083 157.091 140.464 157.091 140.956C157.091 141.384 157.221 141.701 157.48 141.906C157.74 142.111 158.084 142.214 158.513 142.214C159.178 142.214 159.723 142.029 160.146 141.66C160.57 141.291 160.782 140.737 160.782 139.999V139.309ZM167.242 143.137C166.568 143.137 165.973 142.998 165.458 142.72C164.943 142.442 164.542 142.018 164.255 141.448C163.968 140.879 163.824 140.161 163.824 139.295C163.824 138.388 163.975 137.647 164.275 137.073C164.581 136.494 165 136.066 165.533 135.788C166.066 135.51 166.673 135.371 167.352 135.371C167.725 135.371 168.085 135.41 168.432 135.487C168.783 135.56 169.07 135.654 169.293 135.768L168.951 136.718C168.723 136.627 168.459 136.545 168.158 136.472C167.862 136.399 167.584 136.362 167.324 136.362C166.805 136.362 166.372 136.474 166.025 136.697C165.684 136.921 165.426 137.249 165.253 137.682C165.084 138.115 165 138.648 165 139.281C165 139.887 165.082 140.405 165.246 140.833C165.415 141.261 165.663 141.59 165.991 141.817C166.324 142.041 166.739 142.152 167.235 142.152C167.632 142.152 167.99 142.111 168.309 142.029C168.628 141.943 168.917 141.842 169.177 141.729V142.74C168.926 142.868 168.646 142.966 168.336 143.034C168.031 143.103 167.666 143.137 167.242 143.137ZM173.374 142.207C173.561 142.207 173.752 142.191 173.948 142.159C174.144 142.127 174.304 142.089 174.427 142.043V142.925C174.295 142.984 174.11 143.034 173.873 143.075C173.641 143.116 173.413 143.137 173.189 143.137C172.793 143.137 172.433 143.068 172.109 142.932C171.786 142.79 171.526 142.553 171.33 142.221C171.139 141.888 171.043 141.428 171.043 140.84V136.396H169.977V135.843L171.05 135.398L171.501 133.771H172.185V135.508H174.379V136.396H172.185V140.806C172.185 141.275 172.292 141.626 172.506 141.858C172.725 142.091 173.014 142.207 173.374 142.207ZM178.829 135.371C179.467 135.371 180.014 135.512 180.47 135.795C180.925 136.077 181.274 136.474 181.516 136.984C181.757 137.49 181.878 138.083 181.878 138.762V139.466H176.703C176.717 140.345 176.936 141.015 177.359 141.476C177.783 141.936 178.38 142.166 179.15 142.166C179.624 142.166 180.044 142.123 180.408 142.036C180.773 141.95 181.151 141.822 181.543 141.653V142.651C181.165 142.82 180.789 142.943 180.415 143.021C180.046 143.098 179.608 143.137 179.103 143.137C178.382 143.137 177.754 142.991 177.216 142.699C176.683 142.403 176.268 141.97 175.972 141.4C175.675 140.831 175.527 140.133 175.527 139.309C175.527 138.502 175.662 137.805 175.931 137.217C176.204 136.624 176.587 136.169 177.079 135.85C177.576 135.531 178.159 135.371 178.829 135.371ZM178.815 136.301C178.209 136.301 177.726 136.499 177.366 136.896C177.006 137.292 176.792 137.846 176.724 138.557H180.688C180.684 138.11 180.613 137.718 180.477 137.381C180.344 137.039 180.142 136.775 179.868 136.588C179.595 136.396 179.244 136.301 178.815 136.301ZM187.21 135.371C187.36 135.371 187.518 135.38 187.682 135.398C187.846 135.412 187.992 135.433 188.119 135.46L187.976 136.513C187.853 136.481 187.716 136.456 187.565 136.438C187.415 136.419 187.274 136.41 187.142 136.41C186.841 136.41 186.556 136.472 186.287 136.595C186.023 136.713 185.79 136.886 185.59 137.114C185.389 137.338 185.232 137.609 185.118 137.928C185.004 138.242 184.947 138.593 184.947 138.98V143H183.806V135.508H184.749L184.872 136.889H184.92C185.075 136.611 185.262 136.358 185.48 136.13C185.699 135.897 185.952 135.713 186.239 135.576C186.531 135.439 186.854 135.371 187.21 135.371ZM192.419 135.371C193.057 135.371 193.604 135.512 194.06 135.795C194.515 136.077 194.864 136.474 195.105 136.984C195.347 137.49 195.468 138.083 195.468 138.762V139.466H190.293C190.307 140.345 190.525 141.015 190.949 141.476C191.373 141.936 191.97 142.166 192.74 142.166C193.214 142.166 193.633 142.123 193.998 142.036C194.363 141.95 194.741 141.822 195.133 141.653V142.651C194.755 142.82 194.379 142.943 194.005 143.021C193.636 143.098 193.198 143.137 192.692 143.137C191.972 143.137 191.343 142.991 190.806 142.699C190.272 142.403 189.858 141.97 189.562 141.4C189.265 140.831 189.117 140.133 189.117 139.309C189.117 138.502 189.252 137.805 189.521 137.217C189.794 136.624 190.177 136.169 190.669 135.85C191.166 135.531 191.749 135.371 192.419 135.371ZM192.405 136.301C191.799 136.301 191.316 136.499 190.956 136.896C190.596 137.292 190.382 137.846 190.313 138.557H194.278C194.274 138.11 194.203 137.718 194.066 137.381C193.934 137.039 193.731 136.775 193.458 136.588C193.185 136.396 192.834 136.301 192.405 136.301ZM202.242 140.949C202.242 141.428 202.121 141.831 201.88 142.159C201.643 142.483 201.301 142.727 200.854 142.891C200.412 143.055 199.884 143.137 199.269 143.137C198.744 143.137 198.291 143.096 197.908 143.014C197.525 142.932 197.19 142.815 196.903 142.665V141.619C197.209 141.77 197.573 141.906 197.997 142.029C198.421 142.152 198.854 142.214 199.296 142.214C199.943 142.214 200.412 142.109 200.704 141.899C200.996 141.69 201.142 141.405 201.142 141.045C201.142 140.84 201.082 140.66 200.964 140.505C200.85 140.345 200.656 140.193 200.383 140.047C200.109 139.896 199.731 139.732 199.248 139.555C198.77 139.372 198.355 139.192 198.004 139.015C197.658 138.832 197.389 138.611 197.197 138.352C197.01 138.092 196.917 137.755 196.917 137.34C196.917 136.706 197.172 136.221 197.683 135.884C198.198 135.542 198.872 135.371 199.706 135.371C200.157 135.371 200.579 135.417 200.971 135.508C201.367 135.594 201.736 135.713 202.078 135.863L201.695 136.772C201.385 136.64 201.055 136.529 200.704 136.438C200.353 136.346 199.995 136.301 199.631 136.301C199.107 136.301 198.703 136.387 198.421 136.561C198.143 136.734 198.004 136.971 198.004 137.271C198.004 137.504 198.068 137.695 198.195 137.846C198.327 137.996 198.537 138.137 198.824 138.27C199.111 138.402 199.49 138.557 199.959 138.734C200.428 138.908 200.834 139.088 201.176 139.274C201.518 139.457 201.78 139.68 201.962 139.944C202.149 140.204 202.242 140.539 202.242 140.949ZM210.705 143.137C210.031 143.137 209.436 142.998 208.921 142.72C208.406 142.442 208.005 142.018 207.718 141.448C207.431 140.879 207.287 140.161 207.287 139.295C207.287 138.388 207.438 137.647 207.738 137.073C208.044 136.494 208.463 136.066 208.996 135.788C209.529 135.51 210.135 135.371 210.814 135.371C211.188 135.371 211.548 135.41 211.895 135.487C212.245 135.56 212.533 135.654 212.756 135.768L212.414 136.718C212.186 136.627 211.922 136.545 211.621 136.472C211.325 136.399 211.047 136.362 210.787 136.362C210.268 136.362 209.835 136.474 209.488 136.697C209.146 136.921 208.889 137.249 208.716 137.682C208.547 138.115 208.463 138.648 208.463 139.281C208.463 139.887 208.545 140.405 208.709 140.833C208.878 141.261 209.126 141.59 209.454 141.817C209.787 142.041 210.201 142.152 210.698 142.152C211.095 142.152 211.452 142.111 211.771 142.029C212.09 141.943 212.38 141.842 212.64 141.729V142.74C212.389 142.868 212.109 142.966 211.799 143.034C211.493 143.103 211.129 143.137 210.705 143.137ZM220.877 139.24C220.877 139.855 220.797 140.405 220.638 140.888C220.478 141.371 220.248 141.779 219.947 142.111C219.646 142.444 219.282 142.699 218.854 142.877C218.43 143.05 217.949 143.137 217.411 143.137C216.91 143.137 216.45 143.05 216.03 142.877C215.616 142.699 215.256 142.444 214.95 142.111C214.649 141.779 214.415 141.371 214.246 140.888C214.082 140.405 214 139.855 214 139.24C214 138.42 214.139 137.723 214.417 137.148C214.695 136.57 215.091 136.13 215.606 135.829C216.126 135.524 216.743 135.371 217.459 135.371C218.143 135.371 218.74 135.524 219.25 135.829C219.765 136.134 220.164 136.576 220.446 137.155C220.733 137.729 220.877 138.424 220.877 139.24ZM215.176 139.24C215.176 139.842 215.256 140.364 215.415 140.806C215.575 141.248 215.821 141.59 216.153 141.831C216.486 142.073 216.914 142.193 217.438 142.193C217.958 142.193 218.384 142.073 218.717 141.831C219.054 141.59 219.302 141.248 219.462 140.806C219.621 140.364 219.701 139.842 219.701 139.24C219.701 138.643 219.621 138.128 219.462 137.695C219.302 137.258 219.056 136.921 218.724 136.684C218.391 136.447 217.96 136.328 217.432 136.328C216.652 136.328 216.08 136.586 215.716 137.101C215.356 137.616 215.176 138.329 215.176 139.24ZM226.387 135.371C227.275 135.371 227.948 135.59 228.403 136.027C228.859 136.46 229.087 137.158 229.087 138.119V143H227.966V138.194C227.966 137.57 227.822 137.103 227.535 136.793C227.253 136.483 226.817 136.328 226.229 136.328C225.4 136.328 224.817 136.563 224.479 137.032C224.142 137.502 223.974 138.183 223.974 139.076V143H222.839V135.508H223.755L223.926 136.588H223.987C224.147 136.324 224.35 136.103 224.596 135.925C224.842 135.743 225.118 135.606 225.423 135.515C225.728 135.419 226.049 135.371 226.387 135.371ZM236.203 143H235.062V132.363H236.203V143ZM241.487 135.371C242.125 135.371 242.672 135.512 243.128 135.795C243.584 136.077 243.932 136.474 244.174 136.984C244.415 137.49 244.536 138.083 244.536 138.762V139.466H239.361C239.375 140.345 239.594 141.015 240.018 141.476C240.441 141.936 241.038 142.166 241.809 142.166C242.283 142.166 242.702 142.123 243.066 142.036C243.431 141.95 243.809 141.822 244.201 141.653V142.651C243.823 142.82 243.447 142.943 243.073 143.021C242.704 143.098 242.267 143.137 241.761 143.137C241.041 143.137 240.412 142.991 239.874 142.699C239.341 142.403 238.926 141.97 238.63 141.4C238.334 140.831 238.186 140.133 238.186 139.309C238.186 138.502 238.32 137.805 238.589 137.217C238.862 136.624 239.245 136.169 239.737 135.85C240.234 135.531 240.817 135.371 241.487 135.371ZM241.474 136.301C240.868 136.301 240.384 136.499 240.024 136.896C239.664 137.292 239.45 137.846 239.382 138.557H243.347C243.342 138.11 243.271 137.718 243.135 137.381C243.003 137.039 242.8 136.775 242.526 136.588C242.253 136.396 241.902 136.301 241.474 136.301ZM248.884 142.207C249.071 142.207 249.262 142.191 249.458 142.159C249.654 142.127 249.813 142.089 249.937 142.043V142.925C249.804 142.984 249.62 143.034 249.383 143.075C249.15 143.116 248.923 143.137 248.699 143.137C248.303 143.137 247.943 143.068 247.619 142.932C247.296 142.79 247.036 142.553 246.84 142.221C246.648 141.888 246.553 141.428 246.553 140.84V136.396H245.486V135.843L246.56 135.398L247.011 133.771H247.694V135.508H249.889V136.396H247.694V140.806C247.694 141.275 247.801 141.626 248.016 141.858C248.234 142.091 248.524 142.207 248.884 142.207ZM254.858 135.371C255.009 135.371 255.166 135.38 255.33 135.398C255.494 135.412 255.64 135.433 255.768 135.46L255.624 136.513C255.501 136.481 255.364 136.456 255.214 136.438C255.063 136.419 254.922 136.41 254.79 136.41C254.489 136.41 254.204 136.472 253.936 136.595C253.671 136.713 253.439 136.886 253.238 137.114C253.038 137.338 252.881 137.609 252.767 137.928C252.653 138.242 252.596 138.593 252.596 138.98V143H251.454V135.508H252.397L252.521 136.889H252.568C252.723 136.611 252.91 136.358 253.129 136.13C253.348 135.897 253.601 135.713 253.888 135.576C254.179 135.439 254.503 135.371 254.858 135.371ZM259.985 135.385C260.879 135.385 261.542 135.585 261.975 135.986C262.408 136.387 262.624 137.028 262.624 137.907V143H261.797L261.578 141.893H261.523C261.314 142.166 261.095 142.396 260.867 142.583C260.639 142.765 260.375 142.904 260.074 143C259.778 143.091 259.413 143.137 258.98 143.137C258.525 143.137 258.119 143.057 257.764 142.897C257.413 142.738 257.135 142.496 256.93 142.173C256.729 141.849 256.629 141.439 256.629 140.942C256.629 140.195 256.925 139.621 257.518 139.22C258.11 138.819 259.012 138.6 260.225 138.563L261.517 138.509V138.051C261.517 137.404 261.378 136.95 261.1 136.69C260.822 136.431 260.43 136.301 259.924 136.301C259.532 136.301 259.158 136.358 258.803 136.472C258.447 136.586 258.11 136.72 257.791 136.875L257.442 136.014C257.78 135.84 258.167 135.692 258.604 135.569C259.042 135.446 259.502 135.385 259.985 135.385ZM261.503 139.309L260.361 139.356C259.427 139.393 258.769 139.546 258.386 139.814C258.003 140.083 257.812 140.464 257.812 140.956C257.812 141.384 257.941 141.701 258.201 141.906C258.461 142.111 258.805 142.214 259.233 142.214C259.899 142.214 260.443 142.029 260.867 141.66C261.291 141.291 261.503 140.737 261.503 139.999V139.309ZM269.809 140.949C269.809 141.428 269.688 141.831 269.446 142.159C269.209 142.483 268.868 142.727 268.421 142.891C267.979 143.055 267.45 143.137 266.835 143.137C266.311 143.137 265.857 143.096 265.475 143.014C265.092 142.932 264.757 142.815 264.47 142.665V141.619C264.775 141.77 265.14 141.906 265.563 142.029C265.987 142.152 266.42 142.214 266.862 142.214C267.509 142.214 267.979 142.109 268.271 141.899C268.562 141.69 268.708 141.405 268.708 141.045C268.708 140.84 268.649 140.66 268.53 140.505C268.416 140.345 268.223 140.193 267.949 140.047C267.676 139.896 267.298 139.732 266.814 139.555C266.336 139.372 265.921 139.192 265.57 139.015C265.224 138.832 264.955 138.611 264.764 138.352C264.577 138.092 264.483 137.755 264.483 137.34C264.483 136.706 264.739 136.221 265.249 135.884C265.764 135.542 266.438 135.371 267.272 135.371C267.724 135.371 268.145 135.417 268.537 135.508C268.934 135.594 269.303 135.713 269.645 135.863L269.262 136.772C268.952 136.64 268.621 136.529 268.271 136.438C267.92 136.346 267.562 136.301 267.197 136.301C266.673 136.301 266.27 136.387 265.987 136.561C265.709 136.734 265.57 136.971 265.57 137.271C265.57 137.504 265.634 137.695 265.762 137.846C265.894 137.996 266.104 138.137 266.391 138.27C266.678 138.402 267.056 138.557 267.525 138.734C267.995 138.908 268.4 139.088 268.742 139.274C269.084 139.457 269.346 139.68 269.528 139.944C269.715 140.204 269.809 140.539 269.809 140.949ZM274.088 135.508H275.305L276.959 139.855C277.055 140.111 277.144 140.357 277.226 140.594C277.308 140.826 277.381 141.049 277.444 141.264C277.508 141.478 277.558 141.685 277.595 141.886H277.643C277.706 141.658 277.798 141.359 277.916 140.99C278.035 140.617 278.162 140.236 278.299 139.849L279.864 135.508H281.088L277.827 144.101C277.654 144.561 277.451 144.962 277.219 145.304C276.991 145.646 276.713 145.908 276.385 146.09C276.057 146.277 275.66 146.37 275.195 146.37C274.981 146.37 274.792 146.356 274.628 146.329C274.464 146.306 274.323 146.279 274.204 146.247V145.338C274.304 145.361 274.425 145.381 274.566 145.399C274.712 145.418 274.863 145.427 275.018 145.427C275.3 145.427 275.544 145.372 275.749 145.263C275.959 145.158 276.139 145.003 276.289 144.798C276.439 144.593 276.569 144.349 276.679 144.066L277.089 143.014L274.088 135.508ZM289.469 135.371C290.357 135.371 291.03 135.59 291.485 136.027C291.941 136.46 292.169 137.158 292.169 138.119V143H291.048V138.194C291.048 137.57 290.904 137.103 290.617 136.793C290.335 136.483 289.899 136.328 289.312 136.328C288.482 136.328 287.899 136.563 287.562 137.032C287.224 137.502 287.056 138.183 287.056 139.076V143H285.921V135.508H286.837L287.008 136.588H287.069C287.229 136.324 287.432 136.103 287.678 135.925C287.924 135.743 288.2 135.606 288.505 135.515C288.81 135.419 289.132 135.371 289.469 135.371ZM300.693 135.508V143H299.764L299.6 141.947H299.538C299.383 142.207 299.183 142.426 298.937 142.604C298.69 142.781 298.412 142.913 298.103 143C297.797 143.091 297.471 143.137 297.125 143.137C296.533 143.137 296.036 143.041 295.635 142.85C295.234 142.658 294.931 142.362 294.726 141.961C294.525 141.56 294.425 141.045 294.425 140.416V135.508H295.573V140.334C295.573 140.958 295.715 141.425 295.997 141.735C296.28 142.041 296.71 142.193 297.289 142.193C297.845 142.193 298.287 142.089 298.615 141.879C298.948 141.669 299.187 141.362 299.333 140.956C299.479 140.546 299.552 140.045 299.552 139.452V135.508H300.693ZM299.586 132.274V132.411C299.495 132.543 299.369 132.703 299.21 132.89C299.055 133.072 298.882 133.266 298.69 133.471C298.499 133.671 298.305 133.863 298.109 134.045C297.918 134.227 297.74 134.384 297.576 134.517H296.817V134.353C296.963 134.179 297.123 133.972 297.296 133.73C297.469 133.484 297.638 133.234 297.802 132.979C297.966 132.719 298.103 132.484 298.212 132.274H299.586ZM311.228 135.371C312.052 135.371 312.674 135.588 313.094 136.021C313.513 136.449 313.723 137.139 313.723 138.092V143H312.602V138.146C312.602 137.54 312.469 137.087 312.205 136.786C311.945 136.481 311.558 136.328 311.043 136.328C310.318 136.328 309.792 136.538 309.464 136.957C309.136 137.376 308.972 137.994 308.972 138.81V143H307.844V138.146C307.844 137.741 307.785 137.404 307.666 137.135C307.552 136.866 307.379 136.665 307.146 136.533C306.919 136.396 306.629 136.328 306.278 136.328C305.782 136.328 305.383 136.431 305.082 136.636C304.781 136.841 304.562 137.146 304.426 137.552C304.294 137.953 304.228 138.447 304.228 139.035V143H303.093V135.508H304.009L304.18 136.567H304.241C304.392 136.308 304.581 136.089 304.809 135.911C305.036 135.733 305.292 135.599 305.574 135.508C305.857 135.417 306.158 135.371 306.477 135.371C307.046 135.371 307.522 135.478 307.905 135.692C308.293 135.902 308.573 136.223 308.746 136.656H308.808C309.054 136.223 309.391 135.902 309.819 135.692C310.248 135.478 310.717 135.371 311.228 135.371ZM318.938 135.371C319.576 135.371 320.123 135.512 320.579 135.795C321.035 136.077 321.383 136.474 321.625 136.984C321.867 137.49 321.987 138.083 321.987 138.762V139.466H316.812C316.826 140.345 317.045 141.015 317.469 141.476C317.893 141.936 318.49 142.166 319.26 142.166C319.734 142.166 320.153 142.123 320.518 142.036C320.882 141.95 321.26 141.822 321.652 141.653V142.651C321.274 142.82 320.898 142.943 320.524 143.021C320.155 143.098 319.718 143.137 319.212 143.137C318.492 143.137 317.863 142.991 317.325 142.699C316.792 142.403 316.377 141.97 316.081 141.4C315.785 140.831 315.637 140.133 315.637 139.309C315.637 138.502 315.771 137.805 316.04 137.217C316.313 136.624 316.696 136.169 317.188 135.85C317.685 135.531 318.269 135.371 318.938 135.371ZM318.925 136.301C318.319 136.301 317.836 136.499 317.476 136.896C317.116 137.292 316.901 137.846 316.833 138.557H320.798C320.793 138.11 320.723 137.718 320.586 137.381C320.454 137.039 320.251 136.775 319.978 136.588C319.704 136.396 319.353 136.301 318.925 136.301ZM327.319 135.371C327.47 135.371 327.627 135.38 327.791 135.398C327.955 135.412 328.101 135.433 328.229 135.46L328.085 136.513C327.962 136.481 327.825 136.456 327.675 136.438C327.524 136.419 327.383 136.41 327.251 136.41C326.95 136.41 326.665 136.472 326.396 136.595C326.132 136.713 325.9 136.886 325.699 137.114C325.499 137.338 325.341 137.609 325.228 137.928C325.114 138.242 325.057 138.593 325.057 138.98V143H323.915V135.508H324.858L324.981 136.889H325.029C325.184 136.611 325.371 136.358 325.59 136.13C325.809 135.897 326.062 135.713 326.349 135.576C326.64 135.439 326.964 135.371 327.319 135.371ZM336.104 139.24C336.104 139.855 336.024 140.405 335.864 140.888C335.705 141.371 335.475 141.779 335.174 142.111C334.873 142.444 334.508 142.699 334.08 142.877C333.656 143.05 333.175 143.137 332.638 143.137C332.136 143.137 331.676 143.05 331.257 142.877C330.842 142.699 330.482 142.444 330.177 142.111C329.876 141.779 329.641 141.371 329.473 140.888C329.309 140.405 329.227 139.855 329.227 139.24C329.227 138.42 329.366 137.723 329.644 137.148C329.922 136.57 330.318 136.13 330.833 135.829C331.353 135.524 331.97 135.371 332.686 135.371C333.369 135.371 333.966 135.524 334.477 135.829C334.992 136.134 335.39 136.576 335.673 137.155C335.96 137.729 336.104 138.424 336.104 139.24ZM330.402 139.24C330.402 139.842 330.482 140.364 330.642 140.806C330.801 141.248 331.047 141.59 331.38 141.831C331.713 142.073 332.141 142.193 332.665 142.193C333.185 142.193 333.611 142.073 333.943 141.831C334.281 141.59 334.529 141.248 334.688 140.806C334.848 140.364 334.928 139.842 334.928 139.24C334.928 138.643 334.848 138.128 334.688 137.695C334.529 137.258 334.283 136.921 333.95 136.684C333.618 136.447 333.187 136.328 332.658 136.328C331.879 136.328 331.307 136.586 330.942 137.101C330.582 137.616 330.402 138.329 330.402 139.24ZM342.912 140.949C342.912 141.428 342.791 141.831 342.55 142.159C342.313 142.483 341.971 142.727 341.524 142.891C341.082 143.055 340.554 143.137 339.938 143.137C339.414 143.137 338.961 143.096 338.578 143.014C338.195 142.932 337.86 142.815 337.573 142.665V141.619C337.879 141.77 338.243 141.906 338.667 142.029C339.091 142.152 339.524 142.214 339.966 142.214C340.613 142.214 341.082 142.109 341.374 141.899C341.666 141.69 341.812 141.405 341.812 141.045C341.812 140.84 341.752 140.66 341.634 140.505C341.52 140.345 341.326 140.193 341.053 140.047C340.779 139.896 340.401 139.732 339.918 139.555C339.439 139.372 339.025 139.192 338.674 139.015C338.327 138.832 338.059 138.611 337.867 138.352C337.68 138.092 337.587 137.755 337.587 137.34C337.587 136.706 337.842 136.221 338.353 135.884C338.868 135.542 339.542 135.371 340.376 135.371C340.827 135.371 341.249 135.417 341.641 135.508C342.037 135.594 342.406 135.713 342.748 135.863L342.365 136.772C342.055 136.64 341.725 136.529 341.374 136.438C341.023 136.346 340.665 136.301 340.301 136.301C339.777 136.301 339.373 136.387 339.091 136.561C338.813 136.734 338.674 136.971 338.674 137.271C338.674 137.504 338.738 137.695 338.865 137.846C338.997 137.996 339.207 138.137 339.494 138.27C339.781 138.402 340.16 138.557 340.629 138.734C341.098 138.908 341.504 139.088 341.846 139.274C342.188 139.457 342.45 139.68 342.632 139.944C342.819 140.204 342.912 140.539 342.912 140.949ZM344.566 142.289C344.566 141.97 344.644 141.744 344.799 141.612C344.954 141.476 345.143 141.407 345.366 141.407C345.599 141.407 345.795 141.476 345.954 141.612C346.114 141.744 346.193 141.97 346.193 142.289C346.193 142.604 346.114 142.834 345.954 142.979C345.795 143.121 345.599 143.191 345.366 143.191C345.143 143.191 344.954 143.121 344.799 142.979C344.644 142.834 344.566 142.604 344.566 142.289Z" fill="#101E37"/>
</svg>
