<svg width="443" height="160" viewBox="0 0 443 160" fill="none" xmlns="http://www.w3.org/2000/svg">
<rect x="1" y="1" width="441" height="158" rx="7" fill="#F3F6F9"/>
<rect x="1" y="1" width="441" height="158" rx="7" stroke="#E6EBF0" stroke-width="2"/>
<path d="M128.664 58.162C127.38 58.162 126.282 57.898 125.37 57.37C124.458 56.842 123.756 56.092 123.264 55.12C122.784 54.136 122.544 52.978 122.544 51.646C122.544 50.65 122.682 49.756 122.958 48.964C123.234 48.16 123.63 47.476 124.146 46.912C124.674 46.336 125.316 45.898 126.072 45.598C126.84 45.298 127.704 45.148 128.664 45.148C129.372 45.148 130.05 45.244 130.698 45.436C131.358 45.628 131.928 45.904 132.408 46.264C132.612 46.396 132.744 46.558 132.804 46.75C132.876 46.93 132.888 47.104 132.84 47.272C132.804 47.44 132.726 47.584 132.606 47.704C132.486 47.812 132.33 47.872 132.138 47.884C131.958 47.896 131.76 47.83 131.544 47.686C131.148 47.386 130.71 47.164 130.23 47.02C129.75 46.876 129.246 46.804 128.718 46.804C127.806 46.804 127.038 46.996 126.414 47.38C125.79 47.752 125.316 48.298 124.992 49.018C124.668 49.738 124.506 50.614 124.506 51.646C124.506 52.678 124.668 53.56 124.992 54.292C125.316 55.012 125.79 55.564 126.414 55.948C127.038 56.32 127.806 56.506 128.718 56.506C129.246 56.506 129.75 56.434 130.23 56.29C130.722 56.134 131.184 55.906 131.616 55.606C131.832 55.474 132.024 55.414 132.192 55.426C132.372 55.438 132.522 55.498 132.642 55.606C132.762 55.714 132.84 55.852 132.876 56.02C132.924 56.176 132.918 56.344 132.858 56.524C132.81 56.692 132.696 56.836 132.516 56.956C132.024 57.352 131.442 57.652 130.77 57.856C130.098 58.06 129.396 58.162 128.664 58.162ZM137.451 58.162C136.839 58.162 136.287 58.042 135.795 57.802C135.315 57.562 134.937 57.238 134.661 56.83C134.385 56.422 134.247 55.96 134.247 55.444C134.247 54.796 134.409 54.286 134.733 53.914C135.069 53.53 135.615 53.26 136.371 53.104C137.139 52.936 138.171 52.852 139.467 52.852H140.313V53.968H139.485C138.621 53.968 137.937 54.01 137.433 54.094C136.929 54.178 136.569 54.322 136.353 54.526C136.149 54.718 136.047 54.988 136.047 55.336C136.047 55.792 136.203 56.164 136.515 56.452C136.827 56.728 137.259 56.866 137.811 56.866C138.255 56.866 138.645 56.764 138.981 56.56C139.317 56.344 139.581 56.056 139.773 55.696C139.977 55.336 140.079 54.922 140.079 54.454V52.384C140.079 51.7 139.935 51.208 139.647 50.908C139.359 50.608 138.885 50.458 138.225 50.458C137.841 50.458 137.439 50.506 137.019 50.602C136.611 50.698 136.185 50.86 135.741 51.088C135.537 51.184 135.363 51.214 135.219 51.178C135.075 51.142 134.961 51.064 134.877 50.944C134.793 50.812 134.745 50.674 134.733 50.53C134.733 50.374 134.769 50.224 134.841 50.08C134.925 49.936 135.063 49.828 135.255 49.756C135.783 49.504 136.305 49.324 136.821 49.216C137.337 49.108 137.823 49.054 138.279 49.054C139.083 49.054 139.743 49.18 140.259 49.432C140.787 49.684 141.177 50.068 141.429 50.584C141.681 51.1 141.807 51.766 141.807 52.582V57.208C141.807 57.496 141.735 57.724 141.591 57.892C141.447 58.048 141.237 58.126 140.961 58.126C140.697 58.126 140.487 58.048 140.331 57.892C140.175 57.724 140.097 57.496 140.097 57.208V56.038H140.259C140.163 56.482 139.983 56.866 139.719 57.19C139.467 57.502 139.149 57.742 138.765 57.91C138.381 58.078 137.943 58.162 137.451 58.162ZM145.211 58.126C144.923 58.126 144.701 58.048 144.545 57.892C144.389 57.724 144.311 57.496 144.311 57.208V50.008C144.311 49.708 144.389 49.48 144.545 49.324C144.701 49.168 144.917 49.09 145.193 49.09C145.481 49.09 145.697 49.168 145.841 49.324C145.997 49.48 146.075 49.708 146.075 50.008V51.412L145.877 51.088C146.141 50.416 146.555 49.912 147.119 49.576C147.683 49.228 148.331 49.054 149.063 49.054C149.759 49.054 150.335 49.186 150.791 49.45C151.259 49.702 151.607 50.092 151.835 50.62C152.063 51.136 152.177 51.79 152.177 52.582V57.208C152.177 57.496 152.099 57.724 151.943 57.892C151.787 58.048 151.565 58.126 151.277 58.126C150.977 58.126 150.749 58.048 150.593 57.892C150.437 57.724 150.359 57.496 150.359 57.208V52.69C150.359 51.934 150.209 51.382 149.909 51.034C149.621 50.686 149.165 50.512 148.541 50.512C147.809 50.512 147.221 50.74 146.777 51.196C146.345 51.652 146.129 52.264 146.129 53.032V57.208C146.129 57.82 145.823 58.126 145.211 58.126ZM158.426 58.162C157.706 58.162 157.1 58.036 156.608 57.784C156.116 57.532 155.75 57.16 155.51 56.668C155.27 56.176 155.15 55.576 155.15 54.868V50.62H154.07C153.83 50.62 153.644 50.56 153.512 50.44C153.38 50.308 153.314 50.134 153.314 49.918C153.314 49.69 153.38 49.516 153.512 49.396C153.644 49.276 153.83 49.216 154.07 49.216H155.15V47.362C155.15 47.062 155.228 46.834 155.384 46.678C155.552 46.522 155.78 46.444 156.068 46.444C156.356 46.444 156.578 46.522 156.734 46.678C156.89 46.834 156.968 47.062 156.968 47.362V49.216H159.074C159.314 49.216 159.5 49.276 159.632 49.396C159.764 49.516 159.83 49.69 159.83 49.918C159.83 50.134 159.764 50.308 159.632 50.44C159.5 50.56 159.314 50.62 159.074 50.62H156.968V54.724C156.968 55.36 157.1 55.84 157.364 56.164C157.64 56.488 158.084 56.65 158.696 56.65C158.912 56.65 159.098 56.632 159.254 56.596C159.422 56.548 159.56 56.518 159.668 56.506C159.8 56.506 159.908 56.554 159.992 56.65C160.076 56.734 160.118 56.902 160.118 57.154C160.118 57.334 160.082 57.502 160.01 57.658C159.95 57.814 159.836 57.916 159.668 57.964C159.524 58.012 159.326 58.054 159.074 58.09C158.834 58.138 158.618 58.162 158.426 58.162ZM162.315 58.108C162.027 58.108 161.805 58.024 161.649 57.856C161.493 57.676 161.415 57.43 161.415 57.118V50.098C161.415 49.786 161.493 49.546 161.649 49.378C161.805 49.21 162.027 49.126 162.315 49.126C162.603 49.126 162.825 49.21 162.981 49.378C163.149 49.546 163.233 49.786 163.233 50.098V57.118C163.233 57.43 163.155 57.676 162.999 57.856C162.843 58.024 162.615 58.108 162.315 58.108ZM162.315 47.254C161.955 47.254 161.673 47.164 161.469 46.984C161.277 46.804 161.181 46.552 161.181 46.228C161.181 45.892 161.277 45.64 161.469 45.472C161.673 45.292 161.955 45.202 162.315 45.202C162.675 45.202 162.951 45.292 163.143 45.472C163.347 45.64 163.449 45.892 163.449 46.228C163.449 46.552 163.347 46.804 163.143 46.984C162.951 47.164 162.675 47.254 162.315 47.254ZM169.14 58.162C168.372 58.162 167.694 57.982 167.106 57.622C166.53 57.25 166.08 56.722 165.756 56.038C165.432 55.342 165.27 54.532 165.27 53.608C165.27 52.66 165.432 51.85 165.756 51.178C166.08 50.506 166.53 49.984 167.106 49.612C167.694 49.24 168.372 49.054 169.14 49.054C169.908 49.054 170.568 49.246 171.12 49.63C171.684 50.002 172.062 50.506 172.254 51.142H172.056V46.102C172.056 45.802 172.134 45.574 172.29 45.418C172.446 45.262 172.668 45.184 172.956 45.184C173.244 45.184 173.466 45.262 173.622 45.418C173.79 45.574 173.874 45.802 173.874 46.102V57.208C173.874 57.496 173.796 57.724 173.64 57.892C173.484 58.048 173.262 58.126 172.974 58.126C172.686 58.126 172.464 58.048 172.308 57.892C172.152 57.724 172.074 57.496 172.074 57.208V55.624L172.272 56.02C172.08 56.668 171.702 57.19 171.138 57.586C170.586 57.97 169.92 58.162 169.14 58.162ZM169.608 56.758C170.1 56.758 170.532 56.638 170.904 56.398C171.276 56.158 171.564 55.804 171.768 55.336C171.984 54.868 172.092 54.292 172.092 53.608C172.092 52.576 171.864 51.796 171.408 51.268C170.952 50.74 170.352 50.476 169.608 50.476C169.104 50.476 168.666 50.596 168.294 50.836C167.922 51.064 167.628 51.412 167.412 51.88C167.208 52.348 167.106 52.924 167.106 53.608C167.106 54.628 167.334 55.408 167.79 55.948C168.246 56.488 168.852 56.758 169.608 56.758ZM179.234 58.162C178.622 58.162 178.07 58.042 177.578 57.802C177.098 57.562 176.72 57.238 176.444 56.83C176.168 56.422 176.03 55.96 176.03 55.444C176.03 54.796 176.192 54.286 176.516 53.914C176.852 53.53 177.398 53.26 178.154 53.104C178.922 52.936 179.954 52.852 181.25 52.852H182.096V53.968H181.268C180.404 53.968 179.72 54.01 179.216 54.094C178.712 54.178 178.352 54.322 178.136 54.526C177.932 54.718 177.83 54.988 177.83 55.336C177.83 55.792 177.986 56.164 178.298 56.452C178.61 56.728 179.042 56.866 179.594 56.866C180.038 56.866 180.428 56.764 180.764 56.56C181.1 56.344 181.364 56.056 181.556 55.696C181.76 55.336 181.862 54.922 181.862 54.454V52.384C181.862 51.7 181.718 51.208 181.43 50.908C181.142 50.608 180.668 50.458 180.008 50.458C179.624 50.458 179.222 50.506 178.802 50.602C178.394 50.698 177.968 50.86 177.524 51.088C177.32 51.184 177.146 51.214 177.002 51.178C176.858 51.142 176.744 51.064 176.66 50.944C176.576 50.812 176.528 50.674 176.516 50.53C176.516 50.374 176.552 50.224 176.624 50.08C176.708 49.936 176.846 49.828 177.038 49.756C177.566 49.504 178.088 49.324 178.604 49.216C179.12 49.108 179.606 49.054 180.062 49.054C180.866 49.054 181.526 49.18 182.042 49.432C182.57 49.684 182.96 50.068 183.212 50.584C183.464 51.1 183.59 51.766 183.59 52.582V57.208C183.59 57.496 183.518 57.724 183.374 57.892C183.23 58.048 183.02 58.126 182.744 58.126C182.48 58.126 182.27 58.048 182.114 57.892C181.958 57.724 181.88 57.496 181.88 57.208V56.038H182.042C181.946 56.482 181.766 56.866 181.502 57.19C181.25 57.502 180.932 57.742 180.548 57.91C180.164 58.078 179.726 58.162 179.234 58.162ZM189.442 58.162C188.674 58.162 187.996 57.982 187.408 57.622C186.832 57.25 186.382 56.722 186.058 56.038C185.734 55.342 185.572 54.532 185.572 53.608C185.572 52.66 185.734 51.85 186.058 51.178C186.382 50.506 186.832 49.984 187.408 49.612C187.996 49.24 188.674 49.054 189.442 49.054C190.21 49.054 190.87 49.246 191.422 49.63C191.986 50.002 192.364 50.506 192.556 51.142H192.358V46.102C192.358 45.802 192.436 45.574 192.592 45.418C192.748 45.262 192.97 45.184 193.258 45.184C193.546 45.184 193.768 45.262 193.924 45.418C194.092 45.574 194.176 45.802 194.176 46.102V57.208C194.176 57.496 194.098 57.724 193.942 57.892C193.786 58.048 193.564 58.126 193.276 58.126C192.988 58.126 192.766 58.048 192.61 57.892C192.454 57.724 192.376 57.496 192.376 57.208V55.624L192.574 56.02C192.382 56.668 192.004 57.19 191.44 57.586C190.888 57.97 190.222 58.162 189.442 58.162ZM189.91 56.758C190.402 56.758 190.834 56.638 191.206 56.398C191.578 56.158 191.866 55.804 192.07 55.336C192.286 54.868 192.394 54.292 192.394 53.608C192.394 52.576 192.166 51.796 191.71 51.268C191.254 50.74 190.654 50.476 189.91 50.476C189.406 50.476 188.968 50.596 188.596 50.836C188.224 51.064 187.93 51.412 187.714 51.88C187.51 52.348 187.408 52.924 187.408 53.608C187.408 54.628 187.636 55.408 188.092 55.948C188.548 56.488 189.154 56.758 189.91 56.758ZM204.823 58.162C204.055 58.162 203.377 57.982 202.789 57.622C202.213 57.25 201.763 56.722 201.439 56.038C201.115 55.342 200.953 54.532 200.953 53.608C200.953 52.66 201.115 51.85 201.439 51.178C201.763 50.506 202.213 49.984 202.789 49.612C203.377 49.24 204.055 49.054 204.823 49.054C205.591 49.054 206.251 49.246 206.803 49.63C207.367 50.002 207.745 50.506 207.937 51.142H207.739V46.102C207.739 45.802 207.817 45.574 207.973 45.418C208.129 45.262 208.351 45.184 208.639 45.184C208.927 45.184 209.149 45.262 209.305 45.418C209.473 45.574 209.557 45.802 209.557 46.102V57.208C209.557 57.496 209.479 57.724 209.323 57.892C209.167 58.048 208.945 58.126 208.657 58.126C208.369 58.126 208.147 58.048 207.991 57.892C207.835 57.724 207.757 57.496 207.757 57.208V55.624L207.955 56.02C207.763 56.668 207.385 57.19 206.821 57.586C206.269 57.97 205.603 58.162 204.823 58.162ZM205.291 56.758C205.783 56.758 206.215 56.638 206.587 56.398C206.959 56.158 207.247 55.804 207.451 55.336C207.667 54.868 207.775 54.292 207.775 53.608C207.775 52.576 207.547 51.796 207.091 51.268C206.635 50.74 206.035 50.476 205.291 50.476C204.787 50.476 204.349 50.596 203.977 50.836C203.605 51.064 203.311 51.412 203.095 51.88C202.891 52.348 202.789 52.924 202.789 53.608C202.789 54.628 203.017 55.408 203.473 55.948C203.929 56.488 204.535 56.758 205.291 56.758ZM216.232 58.162C215.272 58.162 214.444 57.982 213.748 57.622C213.064 57.25 212.53 56.728 212.146 56.056C211.774 55.372 211.588 54.562 211.588 53.626C211.588 52.714 211.774 51.916 212.146 51.232C212.518 50.548 213.028 50.014 213.676 49.63C214.324 49.246 215.062 49.054 215.89 49.054C216.502 49.054 217.048 49.156 217.528 49.36C218.008 49.552 218.416 49.84 218.752 50.224C219.1 50.596 219.358 51.052 219.526 51.592C219.706 52.132 219.796 52.738 219.796 53.41C219.796 53.614 219.736 53.77 219.616 53.878C219.496 53.974 219.316 54.022 219.076 54.022H213.028V52.906H218.572L218.266 53.158C218.266 52.558 218.176 52.048 217.996 51.628C217.828 51.208 217.57 50.89 217.222 50.674C216.886 50.446 216.466 50.332 215.962 50.332C215.398 50.332 214.918 50.464 214.522 50.728C214.138 50.992 213.844 51.358 213.64 51.826C213.436 52.294 213.334 52.84 213.334 53.464V53.572C213.334 54.628 213.58 55.426 214.072 55.966C214.576 56.494 215.302 56.758 216.25 56.758C216.61 56.758 216.988 56.71 217.384 56.614C217.792 56.518 218.176 56.356 218.536 56.128C218.74 56.008 218.92 55.954 219.076 55.966C219.244 55.978 219.376 56.032 219.472 56.128C219.58 56.224 219.646 56.344 219.67 56.488C219.694 56.632 219.67 56.782 219.598 56.938C219.526 57.082 219.4 57.214 219.22 57.334C218.812 57.61 218.338 57.82 217.798 57.964C217.258 58.096 216.736 58.162 216.232 58.162ZM229.332 58.162C228.72 58.162 228.168 58.042 227.676 57.802C227.196 57.562 226.818 57.238 226.542 56.83C226.266 56.422 226.128 55.96 226.128 55.444C226.128 54.796 226.29 54.286 226.614 53.914C226.95 53.53 227.496 53.26 228.252 53.104C229.02 52.936 230.052 52.852 231.348 52.852H232.194V53.968H231.366C230.502 53.968 229.818 54.01 229.314 54.094C228.81 54.178 228.45 54.322 228.234 54.526C228.03 54.718 227.928 54.988 227.928 55.336C227.928 55.792 228.084 56.164 228.396 56.452C228.708 56.728 229.14 56.866 229.692 56.866C230.136 56.866 230.526 56.764 230.862 56.56C231.198 56.344 231.462 56.056 231.654 55.696C231.858 55.336 231.96 54.922 231.96 54.454V52.384C231.96 51.7 231.816 51.208 231.528 50.908C231.24 50.608 230.766 50.458 230.106 50.458C229.722 50.458 229.32 50.506 228.9 50.602C228.492 50.698 228.066 50.86 227.622 51.088C227.418 51.184 227.244 51.214 227.1 51.178C226.956 51.142 226.842 51.064 226.758 50.944C226.674 50.812 226.626 50.674 226.614 50.53C226.614 50.374 226.65 50.224 226.722 50.08C226.806 49.936 226.944 49.828 227.136 49.756C227.664 49.504 228.186 49.324 228.702 49.216C229.218 49.108 229.704 49.054 230.16 49.054C230.964 49.054 231.624 49.18 232.14 49.432C232.668 49.684 233.058 50.068 233.31 50.584C233.562 51.1 233.688 51.766 233.688 52.582V57.208C233.688 57.496 233.616 57.724 233.472 57.892C233.328 58.048 233.118 58.126 232.842 58.126C232.578 58.126 232.368 58.048 232.212 57.892C232.056 57.724 231.978 57.496 231.978 57.208V56.038H232.14C232.044 56.482 231.864 56.866 231.6 57.19C231.348 57.502 231.03 57.742 230.646 57.91C230.262 58.078 229.824 58.162 229.332 58.162ZM239.27 58.162C238.742 58.162 238.196 58.102 237.632 57.982C237.08 57.862 236.57 57.658 236.102 57.37C235.946 57.262 235.838 57.142 235.778 57.01C235.718 56.878 235.694 56.746 235.706 56.614C235.73 56.47 235.784 56.35 235.868 56.254C235.964 56.146 236.078 56.08 236.21 56.056C236.354 56.032 236.504 56.062 236.66 56.146C237.128 56.41 237.578 56.596 238.01 56.704C238.442 56.8 238.868 56.848 239.288 56.848C239.924 56.848 240.404 56.734 240.728 56.506C241.052 56.278 241.214 55.972 241.214 55.588C241.214 55.276 241.106 55.036 240.89 54.868C240.674 54.688 240.35 54.55 239.918 54.454L238.208 54.112C237.464 53.956 236.9 53.68 236.516 53.284C236.132 52.888 235.94 52.384 235.94 51.772C235.94 51.22 236.09 50.74 236.39 50.332C236.69 49.924 237.11 49.612 237.65 49.396C238.19 49.168 238.814 49.054 239.522 49.054C240.05 49.054 240.548 49.12 241.016 49.252C241.484 49.384 241.916 49.582 242.312 49.846C242.468 49.93 242.57 50.044 242.618 50.188C242.666 50.32 242.672 50.452 242.636 50.584C242.612 50.716 242.552 50.836 242.456 50.944C242.36 51.04 242.24 51.1 242.096 51.124C241.964 51.136 241.814 51.1 241.646 51.016C241.286 50.788 240.926 50.626 240.566 50.53C240.218 50.434 239.87 50.386 239.522 50.386C238.886 50.386 238.406 50.506 238.082 50.746C237.77 50.974 237.614 51.286 237.614 51.682C237.614 51.982 237.71 52.228 237.902 52.42C238.094 52.612 238.394 52.75 238.802 52.834L240.512 53.176C241.292 53.332 241.88 53.596 242.276 53.968C242.684 54.34 242.888 54.844 242.888 55.48C242.888 56.308 242.558 56.962 241.898 57.442C241.238 57.922 240.362 58.162 239.27 58.162ZM245.811 58.108C245.523 58.108 245.301 58.024 245.145 57.856C244.989 57.676 244.911 57.43 244.911 57.118V50.098C244.911 49.786 244.989 49.546 245.145 49.378C245.301 49.21 245.523 49.126 245.811 49.126C246.099 49.126 246.321 49.21 246.477 49.378C246.645 49.546 246.729 49.786 246.729 50.098V57.118C246.729 57.43 246.651 57.676 246.495 57.856C246.339 58.024 246.111 58.108 245.811 58.108ZM245.811 47.254C245.451 47.254 245.169 47.164 244.965 46.984C244.773 46.804 244.677 46.552 244.677 46.228C244.677 45.892 244.773 45.64 244.965 45.472C245.169 45.292 245.451 45.202 245.811 45.202C246.171 45.202 246.447 45.292 246.639 45.472C246.843 45.64 246.945 45.892 246.945 46.228C246.945 46.552 246.843 46.804 246.639 46.984C246.447 47.164 246.171 47.254 245.811 47.254ZM252.366 58.162C251.838 58.162 251.292 58.102 250.728 57.982C250.176 57.862 249.666 57.658 249.198 57.37C249.042 57.262 248.934 57.142 248.874 57.01C248.814 56.878 248.79 56.746 248.802 56.614C248.826 56.47 248.88 56.35 248.964 56.254C249.06 56.146 249.174 56.08 249.306 56.056C249.45 56.032 249.6 56.062 249.756 56.146C250.224 56.41 250.674 56.596 251.106 56.704C251.538 56.8 251.964 56.848 252.384 56.848C253.02 56.848 253.5 56.734 253.824 56.506C254.148 56.278 254.31 55.972 254.31 55.588C254.31 55.276 254.202 55.036 253.986 54.868C253.77 54.688 253.446 54.55 253.014 54.454L251.304 54.112C250.56 53.956 249.996 53.68 249.612 53.284C249.228 52.888 249.036 52.384 249.036 51.772C249.036 51.22 249.186 50.74 249.486 50.332C249.786 49.924 250.206 49.612 250.746 49.396C251.286 49.168 251.91 49.054 252.618 49.054C253.146 49.054 253.644 49.12 254.112 49.252C254.58 49.384 255.012 49.582 255.408 49.846C255.564 49.93 255.666 50.044 255.714 50.188C255.762 50.32 255.768 50.452 255.732 50.584C255.708 50.716 255.648 50.836 255.552 50.944C255.456 51.04 255.336 51.1 255.192 51.124C255.06 51.136 254.91 51.1 254.742 51.016C254.382 50.788 254.022 50.626 253.662 50.53C253.314 50.434 252.966 50.386 252.618 50.386C251.982 50.386 251.502 50.506 251.178 50.746C250.866 50.974 250.71 51.286 250.71 51.682C250.71 51.982 250.806 52.228 250.998 52.42C251.19 52.612 251.49 52.75 251.898 52.834L253.608 53.176C254.388 53.332 254.976 53.596 255.372 53.968C255.78 54.34 255.984 54.844 255.984 55.48C255.984 56.308 255.654 56.962 254.994 57.442C254.334 57.922 253.458 58.162 252.366 58.162ZM261.663 58.162C260.943 58.162 260.337 58.036 259.845 57.784C259.353 57.532 258.987 57.16 258.747 56.668C258.507 56.176 258.387 55.576 258.387 54.868V50.62H257.307C257.067 50.62 256.881 50.56 256.749 50.44C256.617 50.308 256.551 50.134 256.551 49.918C256.551 49.69 256.617 49.516 256.749 49.396C256.881 49.276 257.067 49.216 257.307 49.216H258.387V47.362C258.387 47.062 258.465 46.834 258.621 46.678C258.789 46.522 259.017 46.444 259.305 46.444C259.593 46.444 259.815 46.522 259.971 46.678C260.127 46.834 260.205 47.062 260.205 47.362V49.216H262.311C262.551 49.216 262.737 49.276 262.869 49.396C263.001 49.516 263.067 49.69 263.067 49.918C263.067 50.134 263.001 50.308 262.869 50.44C262.737 50.56 262.551 50.62 262.311 50.62H260.205V54.724C260.205 55.36 260.337 55.84 260.601 56.164C260.877 56.488 261.321 56.65 261.933 56.65C262.149 56.65 262.335 56.632 262.491 56.596C262.659 56.548 262.797 56.518 262.905 56.506C263.037 56.506 263.145 56.554 263.229 56.65C263.313 56.734 263.355 56.902 263.355 57.154C263.355 57.334 263.319 57.502 263.247 57.658C263.187 57.814 263.073 57.916 262.905 57.964C262.761 58.012 262.563 58.054 262.311 58.09C262.071 58.138 261.855 58.162 261.663 58.162ZM268.527 58.162C267.567 58.162 266.739 57.982 266.043 57.622C265.359 57.25 264.825 56.728 264.441 56.056C264.069 55.372 263.883 54.562 263.883 53.626C263.883 52.714 264.069 51.916 264.441 51.232C264.813 50.548 265.323 50.014 265.971 49.63C266.619 49.246 267.357 49.054 268.185 49.054C268.797 49.054 269.343 49.156 269.823 49.36C270.303 49.552 270.711 49.84 271.047 50.224C271.395 50.596 271.653 51.052 271.821 51.592C272.001 52.132 272.091 52.738 272.091 53.41C272.091 53.614 272.031 53.77 271.911 53.878C271.791 53.974 271.611 54.022 271.371 54.022H265.323V52.906H270.867L270.561 53.158C270.561 52.558 270.471 52.048 270.291 51.628C270.123 51.208 269.865 50.89 269.517 50.674C269.181 50.446 268.761 50.332 268.257 50.332C267.693 50.332 267.213 50.464 266.817 50.728C266.433 50.992 266.139 51.358 265.935 51.826C265.731 52.294 265.629 52.84 265.629 53.464V53.572C265.629 54.628 265.875 55.426 266.367 55.966C266.871 56.494 267.597 56.758 268.545 56.758C268.905 56.758 269.283 56.71 269.679 56.614C270.087 56.518 270.471 56.356 270.831 56.128C271.035 56.008 271.215 55.954 271.371 55.966C271.539 55.978 271.671 56.032 271.767 56.128C271.875 56.224 271.941 56.344 271.965 56.488C271.989 56.632 271.965 56.782 271.893 56.938C271.821 57.082 271.695 57.214 271.515 57.334C271.107 57.61 270.633 57.82 270.093 57.964C269.553 58.096 269.031 58.162 268.527 58.162ZM274.973 58.126C274.685 58.126 274.463 58.048 274.307 57.892C274.151 57.724 274.073 57.496 274.073 57.208V50.008C274.073 49.708 274.151 49.48 274.307 49.324C274.463 49.168 274.679 49.09 274.955 49.09C275.243 49.09 275.459 49.168 275.603 49.324C275.759 49.48 275.837 49.708 275.837 50.008V51.412L275.639 51.088C275.903 50.416 276.317 49.912 276.881 49.576C277.445 49.228 278.093 49.054 278.825 49.054C279.521 49.054 280.097 49.186 280.553 49.45C281.021 49.702 281.369 50.092 281.597 50.62C281.825 51.136 281.939 51.79 281.939 52.582V57.208C281.939 57.496 281.861 57.724 281.705 57.892C281.549 58.048 281.327 58.126 281.039 58.126C280.739 58.126 280.511 58.048 280.355 57.892C280.199 57.724 280.121 57.496 280.121 57.208V52.69C280.121 51.934 279.971 51.382 279.671 51.034C279.383 50.686 278.927 50.512 278.303 50.512C277.571 50.512 276.983 50.74 276.539 51.196C276.107 51.652 275.891 52.264 275.891 53.032V57.208C275.891 57.82 275.585 58.126 274.973 58.126ZM288.188 58.162C287.468 58.162 286.862 58.036 286.37 57.784C285.878 57.532 285.512 57.16 285.272 56.668C285.032 56.176 284.912 55.576 284.912 54.868V50.62H283.832C283.592 50.62 283.406 50.56 283.274 50.44C283.142 50.308 283.076 50.134 283.076 49.918C283.076 49.69 283.142 49.516 283.274 49.396C283.406 49.276 283.592 49.216 283.832 49.216H284.912V47.362C284.912 47.062 284.99 46.834 285.146 46.678C285.314 46.522 285.542 46.444 285.83 46.444C286.118 46.444 286.34 46.522 286.496 46.678C286.652 46.834 286.73 47.062 286.73 47.362V49.216H288.836C289.076 49.216 289.262 49.276 289.394 49.396C289.526 49.516 289.592 49.69 289.592 49.918C289.592 50.134 289.526 50.308 289.394 50.44C289.262 50.56 289.076 50.62 288.836 50.62H286.73V54.724C286.73 55.36 286.862 55.84 287.126 56.164C287.402 56.488 287.846 56.65 288.458 56.65C288.674 56.65 288.86 56.632 289.016 56.596C289.184 56.548 289.322 56.518 289.43 56.506C289.562 56.506 289.67 56.554 289.754 56.65C289.838 56.734 289.88 56.902 289.88 57.154C289.88 57.334 289.844 57.502 289.772 57.658C289.712 57.814 289.598 57.916 289.43 57.964C289.286 58.012 289.088 58.054 288.836 58.09C288.596 58.138 288.38 58.162 288.188 58.162ZM295.052 58.162C294.092 58.162 293.264 57.982 292.568 57.622C291.884 57.25 291.35 56.728 290.966 56.056C290.594 55.372 290.408 54.562 290.408 53.626C290.408 52.714 290.594 51.916 290.966 51.232C291.338 50.548 291.848 50.014 292.496 49.63C293.144 49.246 293.882 49.054 294.71 49.054C295.322 49.054 295.868 49.156 296.348 49.36C296.828 49.552 297.236 49.84 297.572 50.224C297.92 50.596 298.178 51.052 298.346 51.592C298.526 52.132 298.616 52.738 298.616 53.41C298.616 53.614 298.556 53.77 298.436 53.878C298.316 53.974 298.136 54.022 297.896 54.022H291.848V52.906H297.392L297.086 53.158C297.086 52.558 296.996 52.048 296.816 51.628C296.648 51.208 296.39 50.89 296.042 50.674C295.706 50.446 295.286 50.332 294.782 50.332C294.218 50.332 293.738 50.464 293.342 50.728C292.958 50.992 292.664 51.358 292.46 51.826C292.256 52.294 292.154 52.84 292.154 53.464V53.572C292.154 54.628 292.4 55.426 292.892 55.966C293.396 56.494 294.122 56.758 295.07 56.758C295.43 56.758 295.808 56.71 296.204 56.614C296.612 56.518 296.996 56.356 297.356 56.128C297.56 56.008 297.74 55.954 297.896 55.966C298.064 55.978 298.196 56.032 298.292 56.128C298.4 56.224 298.466 56.344 298.49 56.488C298.514 56.632 298.49 56.782 298.418 56.938C298.346 57.082 298.22 57.214 298.04 57.334C297.632 57.61 297.158 57.82 296.618 57.964C296.078 58.096 295.556 58.162 295.052 58.162ZM303.676 58.162C303.148 58.162 302.602 58.102 302.038 57.982C301.486 57.862 300.976 57.658 300.508 57.37C300.352 57.262 300.244 57.142 300.184 57.01C300.124 56.878 300.1 56.746 300.112 56.614C300.136 56.47 300.19 56.35 300.274 56.254C300.37 56.146 300.484 56.08 300.616 56.056C300.76 56.032 300.91 56.062 301.066 56.146C301.534 56.41 301.984 56.596 302.416 56.704C302.848 56.8 303.274 56.848 303.694 56.848C304.33 56.848 304.81 56.734 305.134 56.506C305.458 56.278 305.62 55.972 305.62 55.588C305.62 55.276 305.512 55.036 305.296 54.868C305.08 54.688 304.756 54.55 304.324 54.454L302.614 54.112C301.87 53.956 301.306 53.68 300.922 53.284C300.538 52.888 300.346 52.384 300.346 51.772C300.346 51.22 300.496 50.74 300.796 50.332C301.096 49.924 301.516 49.612 302.056 49.396C302.596 49.168 303.22 49.054 303.928 49.054C304.456 49.054 304.954 49.12 305.422 49.252C305.89 49.384 306.322 49.582 306.718 49.846C306.874 49.93 306.976 50.044 307.024 50.188C307.072 50.32 307.078 50.452 307.042 50.584C307.018 50.716 306.958 50.836 306.862 50.944C306.766 51.04 306.646 51.1 306.502 51.124C306.37 51.136 306.22 51.1 306.052 51.016C305.692 50.788 305.332 50.626 304.972 50.53C304.624 50.434 304.276 50.386 303.928 50.386C303.292 50.386 302.812 50.506 302.488 50.746C302.176 50.974 302.02 51.286 302.02 51.682C302.02 51.982 302.116 52.228 302.308 52.42C302.5 52.612 302.8 52.75 303.208 52.834L304.918 53.176C305.698 53.332 306.286 53.596 306.682 53.968C307.09 54.34 307.294 54.844 307.294 55.48C307.294 56.308 306.964 56.962 306.304 57.442C305.644 57.922 304.768 58.162 303.676 58.162Z" fill="#101E37"/>
<rect x="122.5" y="73" width="198" height="46" rx="7" fill="white"/>
<rect x="122.5" y="73" width="198" height="46" rx="7" stroke="#101E37" stroke-width="2"/>
<path d="M145.836 96.2734C145.836 97.2005 145.766 98.0286 145.625 98.7578C145.484 99.487 145.263 100.104 144.961 100.609C144.659 101.115 144.268 101.5 143.789 101.766C143.31 102.026 142.734 102.156 142.062 102.156C141.214 102.156 140.51 101.924 139.953 101.461C139.401 100.997 138.987 100.328 138.711 99.4531C138.44 98.5729 138.305 97.513 138.305 96.2734C138.305 95.0547 138.427 94.0078 138.672 93.1328C138.922 92.2526 139.323 91.5781 139.875 91.1094C140.427 90.6354 141.156 90.3984 142.062 90.3984C142.922 90.3984 143.63 90.6328 144.188 91.1016C144.745 91.5651 145.159 92.237 145.43 93.1172C145.701 93.9922 145.836 95.0443 145.836 96.2734ZM139.609 96.2734C139.609 97.3359 139.69 98.2214 139.852 98.9297C140.013 99.638 140.273 100.169 140.633 100.523C140.997 100.872 141.474 101.047 142.062 101.047C142.651 101.047 143.125 100.872 143.484 100.523C143.849 100.174 144.112 99.6458 144.273 98.9375C144.44 98.2292 144.523 97.3411 144.523 96.2734C144.523 95.2266 144.443 94.3516 144.281 93.6484C144.12 92.9401 143.859 92.4089 143.5 92.0547C143.141 91.6953 142.661 91.5156 142.062 91.5156C141.464 91.5156 140.984 91.6953 140.625 92.0547C140.266 92.4089 140.005 92.9401 139.844 93.6484C139.688 94.3516 139.609 95.2266 139.609 96.2734Z" fill="#5C6A7A"/>
<path d="M293.5 89.8297L295.96 92.2897C296.35 92.6797 296.98 92.6797 297.37 92.2897C297.76 91.8997 297.76 91.2697 297.37 90.8797L294.2 87.6997C293.81 87.3097 293.18 87.3097 292.79 87.6997L289.62 90.8797C289.23 91.2697 289.23 91.8997 289.62 92.2897C290.01 92.6797 290.64 92.6797 291.03 92.2897L293.5 89.8297ZM293.5 102.17L291.04 99.7097C290.65 99.3197 290.02 99.3197 289.63 99.7097C289.24 100.1 289.24 100.73 289.63 101.12L292.8 104.3C293.19 104.69 293.82 104.69 294.21 104.3L297.38 101.13C297.77 100.74 297.77 100.11 297.38 99.7197C296.99 99.3297 296.36 99.3297 295.97 99.7197L293.5 102.17Z" fill="#101E37"/>
</svg>
