<svg width="443" height="160" viewBox="0 0 443 160" fill="none" xmlns="http://www.w3.org/2000/svg">
<rect x="1" y="1" width="441" height="158" rx="7" fill="#F3F6F9"/>
<rect x="1" y="1" width="441" height="158" rx="7" stroke="#E6EBF0" stroke-width="2"/>
<path d="M37.706 58.162C37.154 58.162 36.614 58.12 36.086 58.036C35.558 57.952 35.06 57.826 34.592 57.658C34.124 57.478 33.704 57.262 33.332 57.01C33.152 56.878 33.026 56.728 32.954 56.56C32.894 56.392 32.876 56.23 32.9 56.074C32.936 55.906 33.008 55.762 33.116 55.642C33.224 55.522 33.356 55.45 33.512 55.426C33.668 55.39 33.842 55.438 34.034 55.57C34.574 55.918 35.144 56.176 35.744 56.344C36.344 56.5 36.998 56.578 37.706 56.578C38.726 56.578 39.476 56.398 39.956 56.038C40.448 55.666 40.694 55.186 40.694 54.598C40.694 54.118 40.52 53.74 40.172 53.464C39.824 53.176 39.242 52.948 38.426 52.78L36.5 52.384C35.36 52.144 34.508 51.748 33.944 51.196C33.392 50.644 33.116 49.9 33.116 48.964C33.116 48.4 33.23 47.884 33.458 47.416C33.698 46.948 34.028 46.546 34.448 46.21C34.868 45.862 35.372 45.598 35.96 45.418C36.548 45.238 37.19 45.148 37.886 45.148C38.63 45.148 39.326 45.244 39.974 45.436C40.634 45.628 41.222 45.922 41.738 46.318C41.894 46.426 41.996 46.564 42.044 46.732C42.104 46.888 42.116 47.044 42.08 47.2C42.056 47.356 41.99 47.488 41.882 47.596C41.774 47.704 41.636 47.77 41.468 47.794C41.3 47.806 41.114 47.746 40.91 47.614C40.442 47.302 39.962 47.08 39.47 46.948C38.99 46.804 38.456 46.732 37.868 46.732C37.28 46.732 36.764 46.822 36.32 47.002C35.888 47.182 35.552 47.434 35.312 47.758C35.084 48.082 34.97 48.466 34.97 48.91C34.97 49.414 35.132 49.816 35.456 50.116C35.78 50.416 36.32 50.644 37.076 50.8L38.984 51.196C40.184 51.448 41.078 51.838 41.666 52.366C42.254 52.894 42.548 53.596 42.548 54.472C42.548 55.036 42.434 55.546 42.206 56.002C41.978 56.446 41.654 56.83 41.234 57.154C40.814 57.478 40.304 57.73 39.704 57.91C39.116 58.078 38.45 58.162 37.706 58.162ZM48.5973 58.162C47.6373 58.162 46.8093 57.982 46.1133 57.622C45.4293 57.25 44.8953 56.728 44.5113 56.056C44.1393 55.372 43.9533 54.562 43.9533 53.626C43.9533 52.714 44.1393 51.916 44.5113 51.232C44.8833 50.548 45.3933 50.014 46.0413 49.63C46.6893 49.246 47.4273 49.054 48.2553 49.054C48.8673 49.054 49.4133 49.156 49.8933 49.36C50.3733 49.552 50.7813 49.84 51.1173 50.224C51.4653 50.596 51.7233 51.052 51.8913 51.592C52.0713 52.132 52.1613 52.738 52.1613 53.41C52.1613 53.614 52.1013 53.77 51.9813 53.878C51.8613 53.974 51.6813 54.022 51.4413 54.022H45.3933V52.906H50.9373L50.6313 53.158C50.6313 52.558 50.5413 52.048 50.3613 51.628C50.1933 51.208 49.9353 50.89 49.5873 50.674C49.2513 50.446 48.8313 50.332 48.3273 50.332C47.7633 50.332 47.2833 50.464 46.8873 50.728C46.5033 50.992 46.2093 51.358 46.0053 51.826C45.8013 52.294 45.6993 52.84 45.6993 53.464V53.572C45.6993 54.628 45.9453 55.426 46.4373 55.966C46.9413 56.494 47.6673 56.758 48.6153 56.758C48.9753 56.758 49.3533 56.71 49.7493 56.614C50.1573 56.518 50.5413 56.356 50.9013 56.128C51.1053 56.008 51.2853 55.954 51.4413 55.966C51.6093 55.978 51.7413 56.032 51.8373 56.128C51.9453 56.224 52.0113 56.344 52.0353 56.488C52.0593 56.632 52.0353 56.782 51.9633 56.938C51.8913 57.082 51.7653 57.214 51.5853 57.334C51.1773 57.61 50.7033 57.82 50.1633 57.964C49.6233 58.096 49.1013 58.162 48.5973 58.162ZM56.9692 58.162C56.0332 58.162 55.3252 57.892 54.8452 57.352C54.3772 56.8 54.1432 56.008 54.1432 54.976V46.102C54.1432 45.802 54.2212 45.574 54.3772 45.418C54.5332 45.262 54.7552 45.184 55.0432 45.184C55.3312 45.184 55.5532 45.262 55.7092 45.418C55.8772 45.574 55.9612 45.802 55.9612 46.102V54.868C55.9612 55.468 56.0812 55.918 56.3212 56.218C56.5732 56.506 56.9332 56.65 57.4012 56.65C57.5092 56.65 57.6052 56.65 57.6892 56.65C57.7732 56.638 57.8572 56.626 57.9412 56.614C58.0852 56.602 58.1872 56.644 58.2472 56.74C58.3072 56.824 58.3372 57.004 58.3372 57.28C58.3372 57.532 58.2832 57.73 58.1752 57.874C58.0672 58.006 57.8932 58.09 57.6532 58.126C57.5452 58.138 57.4312 58.144 57.3112 58.144C57.1912 58.156 57.0772 58.162 56.9692 58.162ZM63.6793 58.162C62.7193 58.162 61.8913 57.982 61.1953 57.622C60.5113 57.25 59.9773 56.728 59.5933 56.056C59.2213 55.372 59.0353 54.562 59.0353 53.626C59.0353 52.714 59.2213 51.916 59.5933 51.232C59.9653 50.548 60.4753 50.014 61.1233 49.63C61.7713 49.246 62.5093 49.054 63.3373 49.054C63.9493 49.054 64.4953 49.156 64.9753 49.36C65.4553 49.552 65.8633 49.84 66.1993 50.224C66.5473 50.596 66.8053 51.052 66.9733 51.592C67.1533 52.132 67.2433 52.738 67.2433 53.41C67.2433 53.614 67.1833 53.77 67.0633 53.878C66.9433 53.974 66.7633 54.022 66.5233 54.022H60.4753V52.906H66.0193L65.7133 53.158C65.7133 52.558 65.6233 52.048 65.4433 51.628C65.2753 51.208 65.0173 50.89 64.6693 50.674C64.3333 50.446 63.9133 50.332 63.4093 50.332C62.8453 50.332 62.3653 50.464 61.9693 50.728C61.5853 50.992 61.2913 51.358 61.0873 51.826C60.8833 52.294 60.7813 52.84 60.7813 53.464V53.572C60.7813 54.628 61.0273 55.426 61.5193 55.966C62.0233 56.494 62.7493 56.758 63.6973 56.758C64.0573 56.758 64.4353 56.71 64.8313 56.614C65.2393 56.518 65.6233 56.356 65.9833 56.128C66.1873 56.008 66.3673 55.954 66.5233 55.966C66.6913 55.978 66.8233 56.032 66.9193 56.128C67.0273 56.224 67.0933 56.344 67.1173 56.488C67.1413 56.632 67.1173 56.782 67.0453 56.938C66.9733 57.082 66.8473 57.214 66.6673 57.334C66.2593 57.61 65.7853 57.82 65.2453 57.964C64.7053 58.096 64.1833 58.162 63.6793 58.162ZM73.0953 58.162C72.1953 58.162 71.4153 57.976 70.7553 57.604C70.1073 57.22 69.6033 56.686 69.2433 56.002C68.8833 55.306 68.7033 54.49 68.7033 53.554C68.7033 52.858 68.8053 52.234 69.0093 51.682C69.2133 51.118 69.5013 50.644 69.8733 50.26C70.2573 49.876 70.7193 49.582 71.2593 49.378C71.8113 49.162 72.4233 49.054 73.0953 49.054C73.5153 49.054 73.9533 49.12 74.4093 49.252C74.8773 49.372 75.3093 49.576 75.7053 49.864C75.8613 49.96 75.9573 50.08 75.9933 50.224C76.0413 50.356 76.0473 50.494 76.0113 50.638C75.9873 50.782 75.9213 50.908 75.8133 51.016C75.7173 51.112 75.5973 51.172 75.4533 51.196C75.3093 51.208 75.1533 51.166 74.9853 51.07C74.6973 50.866 74.4033 50.722 74.1033 50.638C73.8033 50.542 73.5153 50.494 73.2393 50.494C72.8073 50.494 72.4233 50.566 72.0873 50.71C71.7633 50.842 71.4873 51.04 71.2593 51.304C71.0313 51.556 70.8573 51.874 70.7373 52.258C70.6293 52.642 70.5753 53.08 70.5753 53.572C70.5753 54.556 70.8033 55.33 71.2593 55.894C71.7273 56.446 72.3873 56.722 73.2393 56.722C73.5153 56.722 73.8033 56.68 74.1033 56.596C74.4033 56.512 74.6973 56.368 74.9853 56.164C75.1533 56.068 75.3093 56.032 75.4533 56.056C75.5973 56.08 75.7113 56.146 75.7953 56.254C75.8913 56.35 75.9513 56.47 75.9753 56.614C76.0113 56.746 76.0053 56.884 75.9573 57.028C75.9093 57.172 75.8073 57.292 75.6513 57.388C75.2673 57.664 74.8473 57.862 74.3913 57.982C73.9473 58.102 73.5153 58.162 73.0953 58.162ZM81.3218 58.162C80.4218 58.162 79.6418 57.976 78.9818 57.604C78.3338 57.22 77.8298 56.686 77.4698 56.002C77.1098 55.306 76.9298 54.49 76.9298 53.554C76.9298 52.858 77.0318 52.234 77.2358 51.682C77.4398 51.118 77.7278 50.644 78.0998 50.26C78.4838 49.876 78.9458 49.582 79.4858 49.378C80.0378 49.162 80.6498 49.054 81.3218 49.054C81.7418 49.054 82.1798 49.12 82.6358 49.252C83.1038 49.372 83.5358 49.576 83.9318 49.864C84.0878 49.96 84.1838 50.08 84.2198 50.224C84.2678 50.356 84.2738 50.494 84.2378 50.638C84.2138 50.782 84.1478 50.908 84.0398 51.016C83.9438 51.112 83.8238 51.172 83.6798 51.196C83.5358 51.208 83.3798 51.166 83.2118 51.07C82.9238 50.866 82.6298 50.722 82.3298 50.638C82.0298 50.542 81.7418 50.494 81.4658 50.494C81.0338 50.494 80.6498 50.566 80.3138 50.71C79.9898 50.842 79.7138 51.04 79.4858 51.304C79.2578 51.556 79.0838 51.874 78.9638 52.258C78.8558 52.642 78.8018 53.08 78.8018 53.572C78.8018 54.556 79.0298 55.33 79.4858 55.894C79.9538 56.446 80.6138 56.722 81.4658 56.722C81.7418 56.722 82.0298 56.68 82.3298 56.596C82.6298 56.512 82.9238 56.368 83.2118 56.164C83.3798 56.068 83.5358 56.032 83.6798 56.056C83.8238 56.08 83.9378 56.146 84.0218 56.254C84.1178 56.35 84.1778 56.47 84.2018 56.614C84.2378 56.746 84.2318 56.884 84.1838 57.028C84.1358 57.172 84.0338 57.292 83.8778 57.388C83.4938 57.664 83.0738 57.862 82.6178 57.982C82.1738 58.102 81.7418 58.162 81.3218 58.162ZM86.7542 58.108C86.4662 58.108 86.2442 58.024 86.0882 57.856C85.9322 57.676 85.8542 57.43 85.8542 57.118V50.098C85.8542 49.786 85.9322 49.546 86.0882 49.378C86.2442 49.21 86.4662 49.126 86.7542 49.126C87.0422 49.126 87.2642 49.21 87.4202 49.378C87.5882 49.546 87.6722 49.786 87.6722 50.098V57.118C87.6722 57.43 87.5942 57.676 87.4382 57.856C87.2822 58.024 87.0542 58.108 86.7542 58.108ZM86.7542 47.254C86.3942 47.254 86.1122 47.164 85.9082 46.984C85.7162 46.804 85.6202 46.552 85.6202 46.228C85.6202 45.892 85.7162 45.64 85.9082 45.472C86.1122 45.292 86.3942 45.202 86.7542 45.202C87.1142 45.202 87.3902 45.292 87.5822 45.472C87.7862 45.64 87.8882 45.892 87.8882 46.228C87.8882 46.552 87.7862 46.804 87.5822 46.984C87.3902 47.164 87.1142 47.254 86.7542 47.254ZM94.0471 58.162C93.1591 58.162 92.3911 57.976 91.7431 57.604C91.1071 57.232 90.6091 56.704 90.2491 56.02C89.8891 55.336 89.7091 54.532 89.7091 53.608C89.7091 52.9 89.8111 52.27 90.0151 51.718C90.2191 51.166 90.5071 50.692 90.8791 50.296C91.2631 49.888 91.7191 49.582 92.2471 49.378C92.7871 49.162 93.3871 49.054 94.0471 49.054C94.9231 49.054 95.6791 49.24 96.3151 49.612C96.9631 49.984 97.4671 50.512 97.8271 51.196C98.1871 51.868 98.3671 52.672 98.3671 53.608C98.3671 54.304 98.2651 54.934 98.0611 55.498C97.8571 56.062 97.5631 56.542 97.1791 56.938C96.8071 57.334 96.3511 57.64 95.8111 57.856C95.2831 58.06 94.6951 58.162 94.0471 58.162ZM94.0471 56.758C94.5391 56.758 94.9711 56.638 95.3431 56.398C95.7151 56.158 96.0031 55.804 96.2071 55.336C96.4231 54.868 96.5311 54.292 96.5311 53.608C96.5311 52.576 96.3031 51.796 95.8471 51.268C95.3911 50.74 94.7911 50.476 94.0471 50.476C93.5431 50.476 93.1051 50.596 92.7331 50.836C92.3611 51.064 92.0671 51.412 91.8511 51.88C91.6471 52.348 91.5451 52.924 91.5451 53.608C91.5451 54.628 91.7731 55.408 92.2291 55.948C92.6851 56.488 93.2911 56.758 94.0471 56.758ZM101.309 58.126C101.021 58.126 100.799 58.048 100.643 57.892C100.487 57.724 100.409 57.496 100.409 57.208V50.008C100.409 49.708 100.487 49.48 100.643 49.324C100.799 49.168 101.015 49.09 101.291 49.09C101.579 49.09 101.795 49.168 101.939 49.324C102.095 49.48 102.173 49.708 102.173 50.008V51.412L101.975 51.088C102.239 50.416 102.653 49.912 103.217 49.576C103.781 49.228 104.429 49.054 105.161 49.054C105.857 49.054 106.433 49.186 106.889 49.45C107.357 49.702 107.705 50.092 107.933 50.62C108.161 51.136 108.275 51.79 108.275 52.582V57.208C108.275 57.496 108.197 57.724 108.041 57.892C107.885 58.048 107.663 58.126 107.375 58.126C107.075 58.126 106.847 58.048 106.691 57.892C106.535 57.724 106.457 57.496 106.457 57.208V52.69C106.457 51.934 106.307 51.382 106.007 51.034C105.719 50.686 105.263 50.512 104.639 50.512C103.907 50.512 103.319 50.74 102.875 51.196C102.443 51.652 102.227 52.264 102.227 53.032V57.208C102.227 57.82 101.921 58.126 101.309 58.126ZM113.588 58.162C112.976 58.162 112.424 58.042 111.932 57.802C111.452 57.562 111.074 57.238 110.798 56.83C110.522 56.422 110.384 55.96 110.384 55.444C110.384 54.796 110.546 54.286 110.87 53.914C111.206 53.53 111.752 53.26 112.508 53.104C113.276 52.936 114.308 52.852 115.604 52.852H116.45V53.968H115.622C114.758 53.968 114.074 54.01 113.57 54.094C113.066 54.178 112.706 54.322 112.49 54.526C112.286 54.718 112.184 54.988 112.184 55.336C112.184 55.792 112.34 56.164 112.652 56.452C112.964 56.728 113.396 56.866 113.948 56.866C114.392 56.866 114.782 56.764 115.118 56.56C115.454 56.344 115.718 56.056 115.91 55.696C116.114 55.336 116.216 54.922 116.216 54.454V52.384C116.216 51.7 116.072 51.208 115.784 50.908C115.496 50.608 115.022 50.458 114.362 50.458C113.978 50.458 113.576 50.506 113.156 50.602C112.748 50.698 112.322 50.86 111.878 51.088C111.674 51.184 111.5 51.214 111.356 51.178C111.212 51.142 111.098 51.064 111.014 50.944C110.93 50.812 110.882 50.674 110.87 50.53C110.87 50.374 110.906 50.224 110.978 50.08C111.062 49.936 111.2 49.828 111.392 49.756C111.92 49.504 112.442 49.324 112.958 49.216C113.474 49.108 113.96 49.054 114.416 49.054C115.22 49.054 115.88 49.18 116.396 49.432C116.924 49.684 117.314 50.068 117.566 50.584C117.818 51.1 117.944 51.766 117.944 52.582V57.208C117.944 57.496 117.872 57.724 117.728 57.892C117.584 58.048 117.374 58.126 117.098 58.126C116.834 58.126 116.624 58.048 116.468 57.892C116.312 57.724 116.234 57.496 116.234 57.208V56.038H116.396C116.3 56.482 116.12 56.866 115.856 57.19C115.604 57.502 115.286 57.742 114.902 57.91C114.518 58.078 114.08 58.162 113.588 58.162ZM115.154 47.956C115.058 48.1 114.938 48.184 114.794 48.208C114.662 48.232 114.53 48.208 114.398 48.136C114.266 48.064 114.17 47.962 114.11 47.83C114.062 47.698 114.074 47.554 114.146 47.398L115.604 44.572C115.7 44.38 115.82 44.254 115.964 44.194C116.12 44.134 116.276 44.128 116.432 44.176C116.6 44.212 116.738 44.284 116.846 44.392C116.966 44.5 117.038 44.638 117.062 44.806C117.086 44.962 117.044 45.118 116.936 45.274L115.154 47.956ZM128.938 58.162C128.218 58.162 127.612 58.036 127.12 57.784C126.628 57.532 126.262 57.16 126.022 56.668C125.782 56.176 125.662 55.576 125.662 54.868V50.62H124.582C124.342 50.62 124.156 50.56 124.024 50.44C123.892 50.308 123.826 50.134 123.826 49.918C123.826 49.69 123.892 49.516 124.024 49.396C124.156 49.276 124.342 49.216 124.582 49.216H125.662V47.362C125.662 47.062 125.74 46.834 125.896 46.678C126.064 46.522 126.292 46.444 126.58 46.444C126.868 46.444 127.09 46.522 127.246 46.678C127.402 46.834 127.48 47.062 127.48 47.362V49.216H129.586C129.826 49.216 130.012 49.276 130.144 49.396C130.276 49.516 130.342 49.69 130.342 49.918C130.342 50.134 130.276 50.308 130.144 50.44C130.012 50.56 129.826 50.62 129.586 50.62H127.48V54.724C127.48 55.36 127.612 55.84 127.876 56.164C128.152 56.488 128.596 56.65 129.208 56.65C129.424 56.65 129.61 56.632 129.766 56.596C129.934 56.548 130.072 56.518 130.18 56.506C130.312 56.506 130.42 56.554 130.504 56.65C130.588 56.734 130.63 56.902 130.63 57.154C130.63 57.334 130.594 57.502 130.522 57.658C130.462 57.814 130.348 57.916 130.18 57.964C130.036 58.012 129.838 58.054 129.586 58.09C129.346 58.138 129.13 58.162 128.938 58.162ZM134.9 58.162C134.192 58.162 133.598 58.03 133.118 57.766C132.65 57.502 132.296 57.112 132.056 56.596C131.828 56.068 131.714 55.408 131.714 54.616V50.008C131.714 49.696 131.792 49.468 131.948 49.324C132.104 49.168 132.326 49.09 132.614 49.09C132.902 49.09 133.124 49.168 133.28 49.324C133.448 49.468 133.532 49.696 133.532 50.008V54.634C133.532 55.342 133.676 55.864 133.964 56.2C134.252 56.536 134.708 56.704 135.332 56.704C136.016 56.704 136.568 56.476 136.988 56.02C137.42 55.552 137.636 54.94 137.636 54.184V50.008C137.636 49.696 137.714 49.468 137.87 49.324C138.026 49.168 138.254 49.09 138.554 49.09C138.842 49.09 139.064 49.168 139.22 49.324C139.376 49.468 139.454 49.696 139.454 50.008V57.208C139.454 57.82 139.16 58.126 138.572 58.126C138.296 58.126 138.08 58.048 137.924 57.892C137.768 57.724 137.69 57.496 137.69 57.208V55.678L137.924 56.074C137.684 56.746 137.3 57.262 136.772 57.622C136.244 57.982 135.62 58.162 134.9 58.162ZM150.632 58.162C149.732 58.162 148.952 57.976 148.292 57.604C147.644 57.22 147.14 56.686 146.78 56.002C146.42 55.306 146.24 54.49 146.24 53.554C146.24 52.858 146.342 52.234 146.546 51.682C146.75 51.118 147.038 50.644 147.41 50.26C147.794 49.876 148.256 49.582 148.796 49.378C149.348 49.162 149.96 49.054 150.632 49.054C151.052 49.054 151.49 49.12 151.946 49.252C152.414 49.372 152.846 49.576 153.242 49.864C153.398 49.96 153.494 50.08 153.53 50.224C153.578 50.356 153.584 50.494 153.548 50.638C153.524 50.782 153.458 50.908 153.35 51.016C153.254 51.112 153.134 51.172 152.99 51.196C152.846 51.208 152.69 51.166 152.522 51.07C152.234 50.866 151.94 50.722 151.64 50.638C151.34 50.542 151.052 50.494 150.776 50.494C150.344 50.494 149.96 50.566 149.624 50.71C149.3 50.842 149.024 51.04 148.796 51.304C148.568 51.556 148.394 51.874 148.274 52.258C148.166 52.642 148.112 53.08 148.112 53.572C148.112 54.556 148.34 55.33 148.796 55.894C149.264 56.446 149.924 56.722 150.776 56.722C151.052 56.722 151.34 56.68 151.64 56.596C151.94 56.512 152.234 56.368 152.522 56.164C152.69 56.068 152.846 56.032 152.99 56.056C153.134 56.08 153.248 56.146 153.332 56.254C153.428 56.35 153.488 56.47 153.512 56.614C153.548 56.746 153.542 56.884 153.494 57.028C153.446 57.172 153.344 57.292 153.188 57.388C152.804 57.664 152.384 57.862 151.928 57.982C151.484 58.102 151.052 58.162 150.632 58.162ZM158.805 58.162C157.917 58.162 157.149 57.976 156.501 57.604C155.865 57.232 155.367 56.704 155.007 56.02C154.647 55.336 154.467 54.532 154.467 53.608C154.467 52.9 154.569 52.27 154.773 51.718C154.977 51.166 155.265 50.692 155.637 50.296C156.021 49.888 156.477 49.582 157.005 49.378C157.545 49.162 158.145 49.054 158.805 49.054C159.681 49.054 160.437 49.24 161.073 49.612C161.721 49.984 162.225 50.512 162.585 51.196C162.945 51.868 163.125 52.672 163.125 53.608C163.125 54.304 163.023 54.934 162.819 55.498C162.615 56.062 162.321 56.542 161.937 56.938C161.565 57.334 161.109 57.64 160.569 57.856C160.041 58.06 159.453 58.162 158.805 58.162ZM158.805 56.758C159.297 56.758 159.729 56.638 160.101 56.398C160.473 56.158 160.761 55.804 160.965 55.336C161.181 54.868 161.289 54.292 161.289 53.608C161.289 52.576 161.061 51.796 160.605 51.268C160.149 50.74 159.549 50.476 158.805 50.476C158.301 50.476 157.863 50.596 157.491 50.836C157.119 51.064 156.825 51.412 156.609 51.88C156.405 52.348 156.303 52.924 156.303 53.608C156.303 54.628 156.531 55.408 156.987 55.948C157.443 56.488 158.049 56.758 158.805 56.758ZM166.103 58.126C165.815 58.126 165.593 58.048 165.437 57.892C165.281 57.724 165.203 57.496 165.203 57.208V50.008C165.203 49.708 165.281 49.48 165.437 49.324C165.593 49.168 165.809 49.09 166.085 49.09C166.373 49.09 166.589 49.168 166.733 49.324C166.889 49.48 166.967 49.708 166.967 50.008V51.484L166.769 51.088C167.009 50.452 167.381 49.954 167.885 49.594C168.389 49.234 168.995 49.054 169.703 49.054C170.435 49.054 171.029 49.228 171.485 49.576C171.941 49.924 172.253 50.458 172.421 51.178H172.169C172.397 50.518 172.787 50.002 173.339 49.63C173.891 49.246 174.533 49.054 175.265 49.054C175.937 49.054 176.489 49.186 176.921 49.45C177.353 49.702 177.677 50.092 177.893 50.62C178.109 51.136 178.217 51.79 178.217 52.582V57.208C178.217 57.496 178.133 57.724 177.965 57.892C177.809 58.048 177.587 58.126 177.299 58.126C177.011 58.126 176.789 58.048 176.633 57.892C176.477 57.724 176.399 57.496 176.399 57.208V52.672C176.399 51.928 176.267 51.382 176.003 51.034C175.751 50.686 175.331 50.512 174.743 50.512C174.083 50.512 173.561 50.74 173.177 51.196C172.793 51.652 172.601 52.282 172.601 53.086V57.208C172.601 57.496 172.523 57.724 172.367 57.892C172.211 58.048 171.989 58.126 171.701 58.126C171.413 58.126 171.185 58.048 171.017 57.892C170.861 57.724 170.783 57.496 170.783 57.208V52.672C170.783 51.928 170.657 51.382 170.405 51.034C170.153 50.686 169.733 50.512 169.145 50.512C168.485 50.512 167.963 50.74 167.579 51.196C167.207 51.652 167.021 52.282 167.021 53.086V57.208C167.021 57.82 166.715 58.126 166.103 58.126ZM183.89 58.162C183.182 58.162 182.588 58.03 182.108 57.766C181.64 57.502 181.286 57.112 181.046 56.596C180.818 56.068 180.704 55.408 180.704 54.616V50.008C180.704 49.696 180.782 49.468 180.938 49.324C181.094 49.168 181.316 49.09 181.604 49.09C181.892 49.09 182.114 49.168 182.27 49.324C182.438 49.468 182.522 49.696 182.522 50.008V54.634C182.522 55.342 182.666 55.864 182.954 56.2C183.242 56.536 183.698 56.704 184.322 56.704C185.006 56.704 185.558 56.476 185.978 56.02C186.41 55.552 186.626 54.94 186.626 54.184V50.008C186.626 49.696 186.704 49.468 186.86 49.324C187.016 49.168 187.244 49.09 187.544 49.09C187.832 49.09 188.054 49.168 188.21 49.324C188.366 49.468 188.444 49.696 188.444 50.008V57.208C188.444 57.82 188.15 58.126 187.562 58.126C187.286 58.126 187.07 58.048 186.914 57.892C186.758 57.724 186.68 57.496 186.68 57.208V55.678L186.914 56.074C186.674 56.746 186.29 57.262 185.762 57.622C185.234 57.982 184.61 58.162 183.89 58.162ZM191.907 58.126C191.619 58.126 191.397 58.048 191.241 57.892C191.085 57.724 191.007 57.496 191.007 57.208V50.008C191.007 49.708 191.085 49.48 191.241 49.324C191.397 49.168 191.613 49.09 191.889 49.09C192.177 49.09 192.393 49.168 192.537 49.324C192.693 49.48 192.771 49.708 192.771 50.008V51.412L192.573 51.088C192.837 50.416 193.251 49.912 193.815 49.576C194.379 49.228 195.027 49.054 195.759 49.054C196.455 49.054 197.031 49.186 197.487 49.45C197.955 49.702 198.303 50.092 198.531 50.62C198.759 51.136 198.873 51.79 198.873 52.582V57.208C198.873 57.496 198.795 57.724 198.639 57.892C198.483 58.048 198.261 58.126 197.973 58.126C197.673 58.126 197.445 58.048 197.289 57.892C197.133 57.724 197.055 57.496 197.055 57.208V52.69C197.055 51.934 196.905 51.382 196.605 51.034C196.317 50.686 195.861 50.512 195.237 50.512C194.505 50.512 193.917 50.74 193.473 51.196C193.041 51.652 192.825 52.264 192.825 53.032V57.208C192.825 57.82 192.519 58.126 191.907 58.126ZM204.186 58.162C203.574 58.162 203.022 58.042 202.53 57.802C202.05 57.562 201.672 57.238 201.396 56.83C201.12 56.422 200.982 55.96 200.982 55.444C200.982 54.796 201.144 54.286 201.468 53.914C201.804 53.53 202.35 53.26 203.106 53.104C203.874 52.936 204.906 52.852 206.202 52.852H207.048V53.968H206.22C205.356 53.968 204.672 54.01 204.168 54.094C203.664 54.178 203.304 54.322 203.088 54.526C202.884 54.718 202.782 54.988 202.782 55.336C202.782 55.792 202.938 56.164 203.25 56.452C203.562 56.728 203.994 56.866 204.546 56.866C204.99 56.866 205.38 56.764 205.716 56.56C206.052 56.344 206.316 56.056 206.508 55.696C206.712 55.336 206.814 54.922 206.814 54.454V52.384C206.814 51.7 206.67 51.208 206.382 50.908C206.094 50.608 205.62 50.458 204.96 50.458C204.576 50.458 204.174 50.506 203.754 50.602C203.346 50.698 202.92 50.86 202.476 51.088C202.272 51.184 202.098 51.214 201.954 51.178C201.81 51.142 201.696 51.064 201.612 50.944C201.528 50.812 201.48 50.674 201.468 50.53C201.468 50.374 201.504 50.224 201.576 50.08C201.66 49.936 201.798 49.828 201.99 49.756C202.518 49.504 203.04 49.324 203.556 49.216C204.072 49.108 204.558 49.054 205.014 49.054C205.818 49.054 206.478 49.18 206.994 49.432C207.522 49.684 207.912 50.068 208.164 50.584C208.416 51.1 208.542 51.766 208.542 52.582V57.208C208.542 57.496 208.47 57.724 208.326 57.892C208.182 58.048 207.972 58.126 207.696 58.126C207.432 58.126 207.222 58.048 207.066 57.892C206.91 57.724 206.832 57.496 206.832 57.208V56.038H206.994C206.898 56.482 206.718 56.866 206.454 57.19C206.202 57.502 205.884 57.742 205.5 57.91C205.116 58.078 204.678 58.162 204.186 58.162Z" fill="#101E37"/>
<rect x="33" y="73" width="377" height="46" rx="7" fill="white"/>
<rect x="33" y="73" width="377" height="46" rx="7" stroke="#101E37" stroke-width="2"/>
<path d="M56.0078 98.9609C56.0078 99.638 55.8385 100.216 55.5 100.695C55.1667 101.169 54.6979 101.531 54.0938 101.781C53.4896 102.031 52.7786 102.156 51.9609 102.156C51.5286 102.156 51.1198 102.135 50.7344 102.094C50.349 102.052 49.9948 101.992 49.6719 101.914C49.349 101.836 49.0651 101.74 48.8203 101.625V100.352C49.2109 100.513 49.6875 100.664 50.25 100.805C50.8125 100.94 51.401 101.008 52.0156 101.008C52.5885 101.008 53.0729 100.932 53.4688 100.781C53.8646 100.625 54.1641 100.404 54.3672 100.117C54.5755 99.8255 54.6797 99.4766 54.6797 99.0703C54.6797 98.6797 54.5938 98.3542 54.4219 98.0938C54.25 97.8281 53.9635 97.5885 53.5625 97.375C53.1667 97.1562 52.625 96.9245 51.9375 96.6797C51.4531 96.5078 51.026 96.3203 50.6562 96.1172C50.2865 95.9089 49.9766 95.6745 49.7266 95.4141C49.4766 95.1536 49.2865 94.8516 49.1562 94.5078C49.0312 94.1641 48.9688 93.7708 48.9688 93.3281C48.9688 92.7188 49.1224 92.1979 49.4297 91.7656C49.7422 91.3281 50.1719 90.9948 50.7188 90.7656C51.2708 90.5312 51.9036 90.4141 52.6172 90.4141C53.2266 90.4141 53.7891 90.4714 54.3047 90.5859C54.8255 90.7005 55.3021 90.8542 55.7344 91.0469L55.3203 92.1875C54.9089 92.0156 54.4714 91.8724 54.0078 91.7578C53.5495 91.6432 53.0755 91.5859 52.5859 91.5859C52.0964 91.5859 51.6823 91.6589 51.3438 91.8047C51.0104 91.9453 50.7552 92.1458 50.5781 92.4062C50.401 92.6667 50.3125 92.9766 50.3125 93.3359C50.3125 93.737 50.3958 94.0703 50.5625 94.3359C50.7344 94.6016 51.0052 94.8385 51.375 95.0469C51.75 95.25 52.2448 95.4635 52.8594 95.6875C53.5312 95.9323 54.1016 96.1927 54.5703 96.4688C55.0391 96.7396 55.3958 97.0729 55.6406 97.4688C55.8854 97.8594 56.0078 98.3568 56.0078 98.9609ZM61.4453 93.2812C62.1745 93.2812 62.7995 93.4427 63.3203 93.7656C63.8411 94.0885 64.2396 94.5417 64.5156 95.125C64.7917 95.7031 64.9297 96.3802 64.9297 97.1562V97.9609H59.0156C59.0312 98.9661 59.2812 99.7318 59.7656 100.258C60.25 100.784 60.9323 101.047 61.8125 101.047C62.3542 101.047 62.8333 100.997 63.25 100.898C63.6667 100.799 64.099 100.654 64.5469 100.461V101.602C64.1146 101.794 63.6849 101.935 63.2578 102.023C62.8359 102.112 62.3359 102.156 61.7578 102.156C60.9349 102.156 60.2161 101.99 59.6016 101.656C58.9922 101.318 58.5182 100.823 58.1797 100.172C57.8411 99.5208 57.6719 98.724 57.6719 97.7812C57.6719 96.8594 57.8255 96.0625 58.1328 95.3906C58.4453 94.7135 58.8828 94.1927 59.4453 93.8281C60.013 93.4635 60.6797 93.2812 61.4453 93.2812ZM61.4297 94.3438C60.737 94.3438 60.1849 94.5703 59.7734 95.0234C59.362 95.4766 59.1172 96.1094 59.0391 96.9219H63.5703C63.5651 96.4115 63.4844 95.9635 63.3281 95.5781C63.1771 95.1875 62.9453 94.8854 62.6328 94.6719C62.3203 94.4531 61.9193 94.3438 61.4297 94.3438ZM68.4375 102H67.1328V89.8438H68.4375V102ZM74.4766 93.2812C75.2057 93.2812 75.8307 93.4427 76.3516 93.7656C76.8724 94.0885 77.2708 94.5417 77.5469 95.125C77.8229 95.7031 77.9609 96.3802 77.9609 97.1562V97.9609H72.0469C72.0625 98.9661 72.3125 99.7318 72.7969 100.258C73.2812 100.784 73.9635 101.047 74.8438 101.047C75.3854 101.047 75.8646 100.997 76.2812 100.898C76.6979 100.799 77.1302 100.654 77.5781 100.461V101.602C77.1458 101.794 76.7161 101.935 76.2891 102.023C75.8672 102.112 75.3672 102.156 74.7891 102.156C73.9661 102.156 73.2474 101.99 72.6328 101.656C72.0234 101.318 71.5495 100.823 71.2109 100.172C70.8724 99.5208 70.7031 98.724 70.7031 97.7812C70.7031 96.8594 70.8568 96.0625 71.1641 95.3906C71.4766 94.7135 71.9141 94.1927 72.4766 93.8281C73.0443 93.4635 73.7109 93.2812 74.4766 93.2812ZM74.4609 94.3438C73.7682 94.3438 73.2161 94.5703 72.8047 95.0234C72.3932 95.4766 72.1484 96.1094 72.0703 96.9219H76.6016C76.5964 96.4115 76.5156 95.9635 76.3594 95.5781C76.2083 95.1875 75.9766 94.8854 75.6641 94.6719C75.3516 94.4531 74.9505 94.3438 74.4609 94.3438ZM83.5938 102.156C82.8229 102.156 82.1432 101.997 81.5547 101.68C80.9661 101.362 80.5078 100.878 80.1797 100.227C79.8516 99.5755 79.6875 98.7552 79.6875 97.7656C79.6875 96.7292 79.8594 95.8828 80.2031 95.2266C80.5521 94.5651 81.0312 94.0755 81.6406 93.7578C82.25 93.4401 82.9427 93.2812 83.7188 93.2812C84.1458 93.2812 84.5573 93.3255 84.9531 93.4141C85.3542 93.4974 85.6823 93.6042 85.9375 93.7344L85.5469 94.8203C85.2865 94.7161 84.9844 94.6224 84.6406 94.5391C84.3021 94.4557 83.9844 94.4141 83.6875 94.4141C83.0938 94.4141 82.599 94.5417 82.2031 94.7969C81.8125 95.0521 81.5182 95.4271 81.3203 95.9219C81.1276 96.4167 81.0312 97.026 81.0312 97.75C81.0312 98.4427 81.125 99.0339 81.3125 99.5234C81.5052 100.013 81.7891 100.388 82.1641 100.648C82.5443 100.904 83.0182 101.031 83.5859 101.031C84.0391 101.031 84.4479 100.984 84.8125 100.891C85.1771 100.792 85.5078 100.677 85.8047 100.547V101.703C85.5182 101.849 85.1979 101.961 84.8438 102.039C84.4948 102.117 84.0781 102.156 83.5938 102.156ZM91.2656 102.156C90.4948 102.156 89.8151 101.997 89.2266 101.68C88.638 101.362 88.1797 100.878 87.8516 100.227C87.5234 99.5755 87.3594 98.7552 87.3594 97.7656C87.3594 96.7292 87.5312 95.8828 87.875 95.2266C88.224 94.5651 88.7031 94.0755 89.3125 93.7578C89.9219 93.4401 90.6146 93.2812 91.3906 93.2812C91.8177 93.2812 92.2292 93.3255 92.625 93.4141C93.026 93.4974 93.3542 93.6042 93.6094 93.7344L93.2188 94.8203C92.9583 94.7161 92.6562 94.6224 92.3125 94.5391C91.974 94.4557 91.6562 94.4141 91.3594 94.4141C90.7656 94.4141 90.2708 94.5417 89.875 94.7969C89.4844 95.0521 89.1901 95.4271 88.9922 95.9219C88.7995 96.4167 88.7031 97.026 88.7031 97.75C88.7031 98.4427 88.7969 99.0339 88.9844 99.5234C89.1771 100.013 89.4609 100.388 89.8359 100.648C90.2161 100.904 90.6901 101.031 91.2578 101.031C91.7109 101.031 92.1198 100.984 92.4844 100.891C92.849 100.792 93.1797 100.677 93.4766 100.547V101.703C93.1901 101.849 92.8698 101.961 92.5156 102.039C92.1667 102.117 91.75 102.156 91.2656 102.156ZM96.8047 93.4375V102H95.5078V93.4375H96.8047ZM96.1719 90.2344C96.3854 90.2344 96.5677 90.3047 96.7188 90.4453C96.875 90.5807 96.9531 90.7943 96.9531 91.0859C96.9531 91.3724 96.875 91.5859 96.7188 91.7266C96.5677 91.8672 96.3854 91.9375 96.1719 91.9375C95.9479 91.9375 95.7604 91.8672 95.6094 91.7266C95.4635 91.5859 95.3906 91.3724 95.3906 91.0859C95.3906 90.7943 95.4635 90.5807 95.6094 90.4453C95.7604 90.3047 95.9479 90.2344 96.1719 90.2344ZM106.938 97.7031C106.938 98.4062 106.846 99.0339 106.664 99.5859C106.482 100.138 106.219 100.604 105.875 100.984C105.531 101.365 105.115 101.656 104.625 101.859C104.141 102.057 103.591 102.156 102.977 102.156C102.404 102.156 101.878 102.057 101.398 101.859C100.924 101.656 100.513 101.365 100.164 100.984C99.8203 100.604 99.5521 100.138 99.3594 99.5859C99.1719 99.0339 99.0781 98.4062 99.0781 97.7031C99.0781 96.7656 99.237 95.9688 99.5547 95.3125C99.8724 94.651 100.326 94.1484 100.914 93.8047C101.508 93.4557 102.214 93.2812 103.031 93.2812C103.812 93.2812 104.495 93.4557 105.078 93.8047C105.667 94.1536 106.122 94.6589 106.445 95.3203C106.773 95.9766 106.938 96.7708 106.938 97.7031ZM100.422 97.7031C100.422 98.3906 100.513 98.987 100.695 99.4922C100.878 99.9974 101.159 100.388 101.539 100.664C101.919 100.94 102.409 101.078 103.008 101.078C103.602 101.078 104.089 100.94 104.469 100.664C104.854 100.388 105.138 99.9974 105.32 99.4922C105.503 98.987 105.594 98.3906 105.594 97.7031C105.594 97.0208 105.503 96.4323 105.32 95.9375C105.138 95.4375 104.857 95.0521 104.477 94.7812C104.096 94.5104 103.604 94.375 103 94.375C102.109 94.375 101.456 94.6693 101.039 95.2578C100.628 95.8464 100.422 96.6615 100.422 97.7031ZM113.234 93.2812C114.25 93.2812 115.018 93.5312 115.539 94.0312C116.06 94.526 116.32 95.3229 116.32 96.4219V102H115.039V96.5078C115.039 95.7943 114.875 95.2604 114.547 94.9062C114.224 94.5521 113.727 94.375 113.055 94.375C112.107 94.375 111.44 94.6432 111.055 95.1797C110.669 95.7161 110.477 96.4948 110.477 97.5156V102H109.18V93.4375H110.227L110.422 94.6719H110.492C110.674 94.3698 110.906 94.1172 111.188 93.9141C111.469 93.7057 111.784 93.5495 112.133 93.4453C112.482 93.3359 112.849 93.2812 113.234 93.2812ZM122.195 93.2969C123.216 93.2969 123.974 93.526 124.469 93.9844C124.964 94.4427 125.211 95.1745 125.211 96.1797V102H124.266L124.016 100.734H123.953C123.714 101.047 123.464 101.31 123.203 101.523C122.943 101.732 122.641 101.891 122.297 102C121.958 102.104 121.542 102.156 121.047 102.156C120.526 102.156 120.062 102.065 119.656 101.883C119.255 101.701 118.938 101.424 118.703 101.055C118.474 100.685 118.359 100.216 118.359 99.6484C118.359 98.7943 118.698 98.138 119.375 97.6797C120.052 97.2214 121.083 96.9714 122.469 96.9297L123.945 96.8672V96.3438C123.945 95.6042 123.786 95.0859 123.469 94.7891C123.151 94.4922 122.703 94.3438 122.125 94.3438C121.677 94.3438 121.25 94.4089 120.844 94.5391C120.438 94.6693 120.052 94.8229 119.688 95L119.289 94.0156C119.674 93.8177 120.117 93.6484 120.617 93.5078C121.117 93.3672 121.643 93.2969 122.195 93.2969ZM123.93 97.7812L122.625 97.8359C121.557 97.8776 120.805 98.0521 120.367 98.3594C119.93 98.6667 119.711 99.1016 119.711 99.6641C119.711 100.154 119.859 100.516 120.156 100.75C120.453 100.984 120.846 101.102 121.336 101.102C122.096 101.102 122.719 100.891 123.203 100.469C123.688 100.047 123.93 99.4141 123.93 98.5703V97.7812ZM124.336 89.7422V89.8984C124.232 90.0495 124.089 90.2318 123.906 90.4453C123.729 90.6536 123.531 90.875 123.312 91.1094C123.094 91.3385 122.872 91.5573 122.648 91.7656C122.43 91.974 122.227 92.1536 122.039 92.3047H121.172V92.1172C121.339 91.9193 121.521 91.6823 121.719 91.4062C121.917 91.125 122.109 90.8385 122.297 90.5469C122.484 90.25 122.641 89.9818 122.766 89.7422H124.336ZM139.109 93.4375V102H138.047L137.859 100.797H137.789C137.612 101.094 137.383 101.344 137.102 101.547C136.82 101.75 136.503 101.901 136.148 102C135.799 102.104 135.427 102.156 135.031 102.156C134.354 102.156 133.786 102.047 133.328 101.828C132.87 101.609 132.523 101.271 132.289 100.812C132.06 100.354 131.945 99.7656 131.945 99.0469V93.4375H133.258V98.9531C133.258 99.6667 133.419 100.201 133.742 100.555C134.065 100.904 134.557 101.078 135.219 101.078C135.854 101.078 136.359 100.958 136.734 100.719C137.115 100.479 137.388 100.128 137.555 99.6641C137.721 99.1953 137.805 98.6224 137.805 97.9453V93.4375H139.109ZM145.906 93.2812C146.922 93.2812 147.69 93.5312 148.211 94.0312C148.732 94.526 148.992 95.3229 148.992 96.4219V102H147.711V96.5078C147.711 95.7943 147.547 95.2604 147.219 94.9062C146.896 94.5521 146.398 94.375 145.727 94.375C144.779 94.375 144.112 94.6432 143.727 95.1797C143.341 95.7161 143.148 96.4948 143.148 97.5156V102H141.852V93.4375H142.898L143.094 94.6719H143.164C143.346 94.3698 143.578 94.1172 143.859 93.9141C144.141 93.7057 144.456 93.5495 144.805 93.4453C145.154 93.3359 145.521 93.2812 145.906 93.2812ZM154.867 93.2969C155.888 93.2969 156.646 93.526 157.141 93.9844C157.635 94.4427 157.883 95.1745 157.883 96.1797V102H156.938L156.688 100.734H156.625C156.385 101.047 156.135 101.31 155.875 101.523C155.615 101.732 155.312 101.891 154.969 102C154.63 102.104 154.214 102.156 153.719 102.156C153.198 102.156 152.734 102.065 152.328 101.883C151.927 101.701 151.609 101.424 151.375 101.055C151.146 100.685 151.031 100.216 151.031 99.6484C151.031 98.7943 151.37 98.138 152.047 97.6797C152.724 97.2214 153.755 96.9714 155.141 96.9297L156.617 96.8672V96.3438C156.617 95.6042 156.458 95.0859 156.141 94.7891C155.823 94.4922 155.375 94.3438 154.797 94.3438C154.349 94.3438 153.922 94.4089 153.516 94.5391C153.109 94.6693 152.724 94.8229 152.359 95L151.961 94.0156C152.346 93.8177 152.789 93.6484 153.289 93.5078C153.789 93.3672 154.315 93.2969 154.867 93.2969ZM156.602 97.7812L155.297 97.8359C154.229 97.8776 153.477 98.0521 153.039 98.3594C152.602 98.6667 152.383 99.1016 152.383 99.6641C152.383 100.154 152.531 100.516 152.828 100.75C153.125 100.984 153.518 101.102 154.008 101.102C154.768 101.102 155.391 100.891 155.875 100.469C156.359 100.047 156.602 99.4141 156.602 98.5703V97.7812ZM172.094 97.7031C172.094 98.4062 172.003 99.0339 171.82 99.5859C171.638 100.138 171.375 100.604 171.031 100.984C170.688 101.365 170.271 101.656 169.781 101.859C169.297 102.057 168.747 102.156 168.133 102.156C167.56 102.156 167.034 102.057 166.555 101.859C166.081 101.656 165.669 101.365 165.32 100.984C164.977 100.604 164.708 100.138 164.516 99.5859C164.328 99.0339 164.234 98.4062 164.234 97.7031C164.234 96.7656 164.393 95.9688 164.711 95.3125C165.029 94.651 165.482 94.1484 166.07 93.8047C166.664 93.4557 167.37 93.2812 168.188 93.2812C168.969 93.2812 169.651 93.4557 170.234 93.8047C170.823 94.1536 171.279 94.6589 171.602 95.3203C171.93 95.9766 172.094 96.7708 172.094 97.7031ZM165.578 97.7031C165.578 98.3906 165.669 98.987 165.852 99.4922C166.034 99.9974 166.315 100.388 166.695 100.664C167.076 100.94 167.565 101.078 168.164 101.078C168.758 101.078 169.245 100.94 169.625 100.664C170.01 100.388 170.294 99.9974 170.477 99.4922C170.659 98.987 170.75 98.3906 170.75 97.7031C170.75 97.0208 170.659 96.4323 170.477 95.9375C170.294 95.4375 170.013 95.0521 169.633 94.7812C169.253 94.5104 168.76 94.375 168.156 94.375C167.266 94.375 166.612 94.6693 166.195 95.2578C165.784 95.8464 165.578 96.6615 165.578 97.7031ZM178.359 93.2812C179.427 93.2812 180.279 93.6484 180.914 94.3828C181.549 95.1172 181.867 96.2214 181.867 97.6953C181.867 98.6693 181.721 99.487 181.43 100.148C181.138 100.81 180.727 101.31 180.195 101.648C179.669 101.987 179.047 102.156 178.328 102.156C177.875 102.156 177.477 102.096 177.133 101.977C176.789 101.857 176.495 101.695 176.25 101.492C176.005 101.289 175.802 101.068 175.641 100.828H175.547C175.562 101.031 175.581 101.276 175.602 101.562C175.628 101.849 175.641 102.099 175.641 102.312V105.828H174.336V93.4375H175.406L175.578 94.7031H175.641C175.807 94.4427 176.01 94.2057 176.25 93.9922C176.49 93.7734 176.781 93.6016 177.125 93.4766C177.474 93.3464 177.885 93.2812 178.359 93.2812ZM178.133 94.375C177.539 94.375 177.06 94.4896 176.695 94.7188C176.336 94.9479 176.073 95.2917 175.906 95.75C175.74 96.2031 175.651 96.7734 175.641 97.4609V97.7109C175.641 98.4349 175.719 99.0469 175.875 99.5469C176.036 100.047 176.299 100.427 176.664 100.688C177.034 100.948 177.529 101.078 178.148 101.078C178.68 101.078 179.122 100.935 179.477 100.648C179.831 100.362 180.094 99.9635 180.266 99.4531C180.443 98.9375 180.531 98.3464 180.531 97.6797C180.531 96.6693 180.333 95.8672 179.938 95.2734C179.547 94.6745 178.945 94.375 178.133 94.375ZM187.562 102.156C186.792 102.156 186.112 101.997 185.523 101.68C184.935 101.362 184.477 100.878 184.148 100.227C183.82 99.5755 183.656 98.7552 183.656 97.7656C183.656 96.7292 183.828 95.8828 184.172 95.2266C184.521 94.5651 185 94.0755 185.609 93.7578C186.219 93.4401 186.911 93.2812 187.688 93.2812C188.115 93.2812 188.526 93.3255 188.922 93.4141C189.323 93.4974 189.651 93.6042 189.906 93.7344L189.516 94.8203C189.255 94.7161 188.953 94.6224 188.609 94.5391C188.271 94.4557 187.953 94.4141 187.656 94.4141C187.062 94.4141 186.568 94.5417 186.172 94.7969C185.781 95.0521 185.487 95.4271 185.289 95.9219C185.096 96.4167 185 97.026 185 97.75C185 98.4427 185.094 99.0339 185.281 99.5234C185.474 100.013 185.758 100.388 186.133 100.648C186.513 100.904 186.987 101.031 187.555 101.031C188.008 101.031 188.417 100.984 188.781 100.891C189.146 100.792 189.477 100.677 189.773 100.547V101.703C189.487 101.849 189.167 101.961 188.812 102.039C188.464 102.117 188.047 102.156 187.562 102.156ZM193.102 93.4375V102H191.805V93.4375H193.102ZM192.469 90.2344C192.682 90.2344 192.865 90.3047 193.016 90.4453C193.172 90.5807 193.25 90.7943 193.25 91.0859C193.25 91.3724 193.172 91.5859 193.016 91.7266C192.865 91.8672 192.682 91.9375 192.469 91.9375C192.245 91.9375 192.057 91.8672 191.906 91.7266C191.76 91.5859 191.688 91.3724 191.688 91.0859C191.688 90.7943 191.76 90.5807 191.906 90.4453C192.057 90.3047 192.245 90.2344 192.469 90.2344ZM203.234 97.7031C203.234 98.4062 203.143 99.0339 202.961 99.5859C202.779 100.138 202.516 100.604 202.172 100.984C201.828 101.365 201.411 101.656 200.922 101.859C200.438 102.057 199.888 102.156 199.273 102.156C198.701 102.156 198.174 102.057 197.695 101.859C197.221 101.656 196.81 101.365 196.461 100.984C196.117 100.604 195.849 100.138 195.656 99.5859C195.469 99.0339 195.375 98.4062 195.375 97.7031C195.375 96.7656 195.534 95.9688 195.852 95.3125C196.169 94.651 196.622 94.1484 197.211 93.8047C197.805 93.4557 198.51 93.2812 199.328 93.2812C200.109 93.2812 200.792 93.4557 201.375 93.8047C201.964 94.1536 202.419 94.6589 202.742 95.3203C203.07 95.9766 203.234 96.7708 203.234 97.7031ZM196.719 97.7031C196.719 98.3906 196.81 98.987 196.992 99.4922C197.174 99.9974 197.456 100.388 197.836 100.664C198.216 100.94 198.706 101.078 199.305 101.078C199.898 101.078 200.385 100.94 200.766 100.664C201.151 100.388 201.435 99.9974 201.617 99.4922C201.799 98.987 201.891 98.3906 201.891 97.7031C201.891 97.0208 201.799 96.4323 201.617 95.9375C201.435 95.4375 201.154 95.0521 200.773 94.7812C200.393 94.5104 199.901 94.375 199.297 94.375C198.406 94.375 197.753 94.6693 197.336 95.2578C196.924 95.8464 196.719 96.6615 196.719 97.7031ZM201.57 89.7422V89.8984C201.466 90.0495 201.323 90.2318 201.141 90.4453C200.964 90.6536 200.766 90.875 200.547 91.1094C200.328 91.3385 200.107 91.5573 199.883 91.7656C199.664 91.974 199.461 92.1536 199.273 92.3047H198.406V92.1172C198.573 91.9193 198.755 91.6823 198.953 91.4062C199.151 91.125 199.344 90.8385 199.531 90.5469C199.719 90.25 199.875 89.9818 200 89.7422H201.57ZM209.531 93.2812C210.547 93.2812 211.315 93.5312 211.836 94.0312C212.357 94.526 212.617 95.3229 212.617 96.4219V102H211.336V96.5078C211.336 95.7943 211.172 95.2604 210.844 94.9062C210.521 94.5521 210.023 94.375 209.352 94.375C208.404 94.375 207.737 94.6432 207.352 95.1797C206.966 95.7161 206.773 96.4948 206.773 97.5156V102H205.477V93.4375H206.523L206.719 94.6719H206.789C206.971 94.3698 207.203 94.1172 207.484 93.9141C207.766 93.7057 208.081 93.5495 208.43 93.4453C208.779 93.3359 209.146 93.2812 209.531 93.2812Z" fill="#5C6A7A"/>
<path d="M386.875 92.9995L382.995 96.8795L379.115 92.9995C378.725 92.6095 378.095 92.6095 377.705 92.9995C377.315 93.3895 377.315 94.0195 377.705 94.4095L382.295 98.9995C382.685 99.3895 383.315 99.3895 383.705 98.9995L388.295 94.4095C388.685 94.0195 388.685 93.3895 388.295 92.9995C387.905 92.6195 387.265 92.6095 386.875 92.9995Z" fill="#101E37"/>
</svg>
