<svg width="352" height="200" viewBox="0 0 352 200" fill="none" xmlns="http://www.w3.org/2000/svg">
<rect x="1" y="1" width="350" height="198" rx="7" stroke="#E6EBF0" stroke-width="2"/>
<path d="M29.6396 75.8877C29.0882 75.8877 28.5915 75.9834 28.1494 76.1748C27.7119 76.3617 27.3382 76.6351 27.0283 76.9951C26.723 77.3506 26.4883 77.7812 26.3242 78.2871C26.1602 78.793 26.0781 79.3626 26.0781 79.9961C26.0781 80.8346 26.208 81.5638 26.4678 82.1836C26.7321 82.7988 27.124 83.2751 27.6436 83.6123C28.1676 83.9495 28.8216 84.1182 29.6055 84.1182C30.0521 84.1182 30.4714 84.0817 30.8633 84.0088C31.2598 83.9313 31.6449 83.8356 32.0186 83.7217V84.7334C31.654 84.8701 31.2712 84.9704 30.8701 85.0342C30.4691 85.1025 29.9928 85.1367 29.4414 85.1367C28.4251 85.1367 27.5752 84.9271 26.8916 84.5078C26.2126 84.084 25.7021 83.487 25.3604 82.7168C25.0231 81.9466 24.8545 81.0374 24.8545 79.9893C24.8545 79.2327 24.9593 78.5423 25.1689 77.918C25.3831 77.2891 25.693 76.7467 26.0986 76.291C26.5088 75.8353 27.0101 75.4844 27.6025 75.2383C28.1995 74.9876 28.8831 74.8623 29.6533 74.8623C30.1592 74.8623 30.6468 74.9124 31.1162 75.0127C31.5856 75.113 32.0094 75.2565 32.3877 75.4434L31.9229 76.4277C31.6038 76.2819 31.2529 76.1566 30.8701 76.0518C30.4919 75.9424 30.0817 75.8877 29.6396 75.8877ZM40.4746 81.2402C40.4746 81.8555 40.3949 82.4046 40.2354 82.8877C40.0758 83.3708 39.8457 83.7786 39.5449 84.1113C39.2441 84.444 38.8796 84.6992 38.4512 84.877C38.0273 85.0501 37.5465 85.1367 37.0088 85.1367C36.5075 85.1367 36.0472 85.0501 35.6279 84.877C35.2132 84.6992 34.8532 84.444 34.5479 84.1113C34.2471 83.7786 34.0124 83.3708 33.8438 82.8877C33.6797 82.4046 33.5977 81.8555 33.5977 81.2402C33.5977 80.4199 33.7367 79.7227 34.0146 79.1484C34.2926 78.5697 34.6891 78.1299 35.2041 77.8291C35.7236 77.5238 36.3411 77.3711 37.0566 77.3711C37.7402 77.3711 38.3372 77.5238 38.8477 77.8291C39.3626 78.1344 39.7614 78.5765 40.0439 79.1553C40.3311 79.7295 40.4746 80.4245 40.4746 81.2402ZM34.7734 81.2402C34.7734 81.8418 34.8532 82.3636 35.0127 82.8057C35.1722 83.2477 35.4183 83.5895 35.751 83.8311C36.0837 84.0726 36.512 84.1934 37.0361 84.1934C37.5557 84.1934 37.9818 84.0726 38.3145 83.8311C38.6517 83.5895 38.9001 83.2477 39.0596 82.8057C39.2191 82.3636 39.2988 81.8418 39.2988 81.2402C39.2988 80.6432 39.2191 80.1283 39.0596 79.6953C38.9001 79.2578 38.654 78.9206 38.3213 78.6836C37.9886 78.4466 37.5579 78.3281 37.0293 78.3281C36.25 78.3281 35.6781 78.5856 35.3135 79.1006C34.9535 79.6156 34.7734 80.3288 34.7734 81.2402ZM50.5713 77.3711C51.3962 77.3711 52.0182 77.5876 52.4375 78.0205C52.8568 78.4489 53.0664 79.1393 53.0664 80.0918V85H51.9453V80.1465C51.9453 79.5404 51.8132 79.0869 51.5488 78.7861C51.2891 78.4808 50.9017 78.3281 50.3867 78.3281C49.6621 78.3281 49.1357 78.5378 48.8076 78.957C48.4795 79.3763 48.3154 79.9938 48.3154 80.8096V85H47.1875V80.1465C47.1875 79.7409 47.1283 79.4036 47.0098 79.1348C46.8958 78.8659 46.7227 78.6654 46.4902 78.5332C46.2624 78.3965 45.973 78.3281 45.6221 78.3281C45.1253 78.3281 44.7266 78.4307 44.4258 78.6357C44.125 78.8408 43.9062 79.1462 43.7695 79.5518C43.6374 79.9528 43.5713 80.4473 43.5713 81.0352V85H42.4365V77.5078H43.3525L43.5234 78.5674H43.585C43.7354 78.3076 43.9245 78.0889 44.1523 77.9111C44.3802 77.7334 44.6354 77.599 44.918 77.5078C45.2005 77.4167 45.5013 77.3711 45.8203 77.3711C46.39 77.3711 46.8662 77.4782 47.249 77.6924C47.6364 77.902 47.9167 78.2233 48.0898 78.6562H48.1514C48.3975 78.2233 48.7347 77.902 49.1631 77.6924C49.5915 77.4782 50.0609 77.3711 50.5713 77.3711ZM58.918 77.3711C59.8522 77.3711 60.5973 77.6924 61.1533 78.335C61.7093 78.9775 61.9873 79.9437 61.9873 81.2334C61.9873 82.0856 61.8597 82.8011 61.6045 83.3799C61.3493 83.9587 60.9893 84.3962 60.5244 84.6924C60.0641 84.9886 59.5195 85.1367 58.8906 85.1367C58.4941 85.1367 58.1455 85.0843 57.8447 84.9795C57.5439 84.8747 57.2865 84.7334 57.0723 84.5557C56.8581 84.3779 56.6803 84.1842 56.5391 83.9746H56.457C56.4707 84.1523 56.4867 84.3665 56.5049 84.6172C56.5277 84.8678 56.5391 85.0866 56.5391 85.2734V88.3496H55.3975V77.5078H56.334L56.4844 78.6152H56.5391C56.6849 78.3874 56.8626 78.18 57.0723 77.9932C57.2819 77.8018 57.5371 77.6514 57.8379 77.542C58.1432 77.4281 58.5033 77.3711 58.918 77.3711ZM58.7197 78.3281C58.2002 78.3281 57.7809 78.4284 57.4619 78.6289C57.1475 78.8294 56.9173 79.1302 56.7715 79.5312C56.6257 79.9277 56.5482 80.4268 56.5391 81.0283V81.2471C56.5391 81.8805 56.6074 82.416 56.7441 82.8535C56.8854 83.291 57.1156 83.6237 57.4346 83.8516C57.7581 84.0794 58.1911 84.1934 58.7334 84.1934C59.1982 84.1934 59.5856 84.068 59.8955 83.8174C60.2054 83.5667 60.4355 83.2181 60.5859 82.7715C60.7409 82.3203 60.8184 81.8031 60.8184 81.2197C60.8184 80.3356 60.6452 79.6338 60.2988 79.1143C59.957 78.5902 59.4307 78.3281 58.7197 78.3281ZM65.1113 85H63.9697V74.3633H65.1113V85ZM70.3955 77.3711C71.0335 77.3711 71.5804 77.5124 72.0361 77.7949C72.4919 78.0775 72.8405 78.474 73.082 78.9844C73.3236 79.4902 73.4443 80.0827 73.4443 80.7617V81.4658H68.2695C68.2832 82.3454 68.502 83.0153 68.9258 83.4756C69.3496 83.9359 69.9466 84.166 70.7168 84.166C71.1908 84.166 71.61 84.1227 71.9746 84.0361C72.3392 83.9495 72.7174 83.8219 73.1094 83.6533V84.6514C72.7311 84.82 72.3551 84.943 71.9814 85.0205C71.6123 85.098 71.1748 85.1367 70.6689 85.1367C69.9489 85.1367 69.32 84.9909 68.7822 84.6992C68.249 84.403 67.8343 83.9701 67.5381 83.4004C67.2419 82.8307 67.0938 82.1335 67.0938 81.3086C67.0938 80.502 67.2282 79.8047 67.4971 79.2168C67.7705 78.6243 68.1533 78.1686 68.6455 77.8496C69.1423 77.5306 69.7256 77.3711 70.3955 77.3711ZM70.3818 78.3008C69.7757 78.3008 69.2926 78.499 68.9326 78.8955C68.5726 79.292 68.3584 79.8457 68.29 80.5566H72.2549C72.2503 80.11 72.1797 79.7181 72.043 79.3809C71.9108 79.0391 71.708 78.7747 71.4346 78.5879C71.1611 78.3965 70.8102 78.3008 70.3818 78.3008ZM77.792 84.207C77.9788 84.207 78.1702 84.1911 78.3662 84.1592C78.5622 84.1273 78.7217 84.0885 78.8447 84.043V84.9248C78.7126 84.984 78.528 85.0342 78.291 85.0752C78.0586 85.1162 77.8307 85.1367 77.6074 85.1367C77.2109 85.1367 76.8509 85.0684 76.5273 84.9316C76.2038 84.7904 75.944 84.5534 75.748 84.2207C75.5566 83.888 75.4609 83.4277 75.4609 82.8398V78.3965H74.3945V77.8428L75.4678 77.3984L75.9189 75.7715H76.6025V77.5078H78.7969V78.3965H76.6025V82.8057C76.6025 83.2751 76.7096 83.626 76.9238 83.8584C77.1426 84.0908 77.432 84.207 77.792 84.207ZM83.2471 77.3711C83.8851 77.3711 84.432 77.5124 84.8877 77.7949C85.3434 78.0775 85.6921 78.474 85.9336 78.9844C86.1751 79.4902 86.2959 80.0827 86.2959 80.7617V81.4658H81.1211C81.1348 82.3454 81.3535 83.0153 81.7773 83.4756C82.2012 83.9359 82.7982 84.166 83.5684 84.166C84.0423 84.166 84.4616 84.1227 84.8262 84.0361C85.1908 83.9495 85.569 83.8219 85.9609 83.6533V84.6514C85.5827 84.82 85.2067 84.943 84.833 85.0205C84.4639 85.098 84.0264 85.1367 83.5205 85.1367C82.8005 85.1367 82.1715 84.9909 81.6338 84.6992C81.1006 84.403 80.6859 83.9701 80.3896 83.4004C80.0934 82.8307 79.9453 82.1335 79.9453 81.3086C79.9453 80.502 80.0798 79.8047 80.3486 79.2168C80.6221 78.6243 81.0049 78.1686 81.4971 77.8496C81.9938 77.5306 82.5771 77.3711 83.2471 77.3711ZM83.2334 78.3008C82.6273 78.3008 82.1442 78.499 81.7842 78.8955C81.4242 79.292 81.21 79.8457 81.1416 80.5566H85.1064C85.1019 80.11 85.0312 79.7181 84.8945 79.3809C84.7624 79.0391 84.5596 78.7747 84.2861 78.5879C84.0127 78.3965 83.6618 78.3008 83.2334 78.3008ZM94.7451 77.3711C95.3831 77.3711 95.93 77.5124 96.3857 77.7949C96.8415 78.0775 97.1901 78.474 97.4316 78.9844C97.6732 79.4902 97.7939 80.0827 97.7939 80.7617V81.4658H92.6191C92.6328 82.3454 92.8516 83.0153 93.2754 83.4756C93.6992 83.9359 94.2962 84.166 95.0664 84.166C95.5404 84.166 95.9596 84.1227 96.3242 84.0361C96.6888 83.9495 97.0671 83.8219 97.459 83.6533V84.6514C97.0807 84.82 96.7048 84.943 96.3311 85.0205C95.9619 85.098 95.5244 85.1367 95.0186 85.1367C94.2985 85.1367 93.6696 84.9909 93.1318 84.6992C92.5986 84.403 92.1839 83.9701 91.8877 83.4004C91.5915 82.8307 91.4434 82.1335 91.4434 81.3086C91.4434 80.502 91.5778 79.8047 91.8467 79.2168C92.1201 78.6243 92.5029 78.1686 92.9951 77.8496C93.4919 77.5306 94.0752 77.3711 94.7451 77.3711ZM94.7314 78.3008C94.1253 78.3008 93.6423 78.499 93.2822 78.8955C92.9222 79.292 92.708 79.8457 92.6396 80.5566H96.6045C96.5999 80.11 96.5293 79.7181 96.3926 79.3809C96.2604 79.0391 96.0576 78.7747 95.7842 78.5879C95.5107 78.3965 95.1598 78.3008 94.7314 78.3008ZM100.863 85H99.7217V74.3633H100.863V85ZM110.42 77.3711C111.354 77.3711 112.099 77.6924 112.655 78.335C113.211 78.9775 113.489 79.9437 113.489 81.2334C113.489 82.0856 113.362 82.8011 113.106 83.3799C112.851 83.9587 112.491 84.3962 112.026 84.6924C111.566 84.9886 111.021 85.1367 110.393 85.1367C109.996 85.1367 109.647 85.0843 109.347 84.9795C109.046 84.8747 108.788 84.7334 108.574 84.5557C108.36 84.3779 108.182 84.1842 108.041 83.9746H107.959C107.973 84.1523 107.989 84.3665 108.007 84.6172C108.03 84.8678 108.041 85.0866 108.041 85.2734V88.3496H106.899V77.5078H107.836L107.986 78.6152H108.041C108.187 78.3874 108.365 78.18 108.574 77.9932C108.784 77.8018 109.039 77.6514 109.34 77.542C109.645 77.4281 110.005 77.3711 110.42 77.3711ZM110.222 78.3281C109.702 78.3281 109.283 78.4284 108.964 78.6289C108.649 78.8294 108.419 79.1302 108.273 79.5312C108.128 79.9277 108.05 80.4268 108.041 81.0283V81.2471C108.041 81.8805 108.109 82.416 108.246 82.8535C108.387 83.291 108.618 83.6237 108.937 83.8516C109.26 84.0794 109.693 84.1934 110.235 84.1934C110.7 84.1934 111.088 84.068 111.397 83.8174C111.707 83.5667 111.938 83.2181 112.088 82.7715C112.243 82.3203 112.32 81.8031 112.32 81.2197C112.32 80.3356 112.147 79.6338 111.801 79.1143C111.459 78.5902 110.933 78.3281 110.222 78.3281ZM118.876 77.3711C119.026 77.3711 119.184 77.3802 119.348 77.3984C119.512 77.4121 119.658 77.4326 119.785 77.46L119.642 78.5127C119.519 78.4808 119.382 78.4557 119.231 78.4375C119.081 78.4193 118.94 78.4102 118.808 78.4102C118.507 78.4102 118.222 78.4717 117.953 78.5947C117.689 78.7132 117.456 78.8864 117.256 79.1143C117.055 79.3376 116.898 79.6087 116.784 79.9277C116.67 80.2422 116.613 80.5931 116.613 80.9805V85H115.472V77.5078H116.415L116.538 78.8887H116.586C116.741 78.6107 116.928 78.3577 117.146 78.1299C117.365 77.8975 117.618 77.7129 117.905 77.5762C118.197 77.4395 118.521 77.3711 118.876 77.3711ZM124.085 77.3711C124.723 77.3711 125.27 77.5124 125.726 77.7949C126.181 78.0775 126.53 78.474 126.771 78.9844C127.013 79.4902 127.134 80.0827 127.134 80.7617V81.4658H121.959C121.973 82.3454 122.191 83.0153 122.615 83.4756C123.039 83.9359 123.636 84.166 124.406 84.166C124.88 84.166 125.299 84.1227 125.664 84.0361C126.029 83.9495 126.407 83.8219 126.799 83.6533V84.6514C126.421 84.82 126.045 84.943 125.671 85.0205C125.302 85.098 124.864 85.1367 124.358 85.1367C123.638 85.1367 123.009 84.9909 122.472 84.6992C121.938 84.403 121.524 83.9701 121.228 83.4004C120.931 82.8307 120.783 82.1335 120.783 81.3086C120.783 80.502 120.918 79.8047 121.187 79.2168C121.46 78.6243 121.843 78.1686 122.335 77.8496C122.832 77.5306 123.415 77.3711 124.085 77.3711ZM124.071 78.3008C123.465 78.3008 122.982 78.499 122.622 78.8955C122.262 79.292 122.048 79.8457 121.979 80.5566H125.944C125.94 80.11 125.869 79.7181 125.732 79.3809C125.6 79.0391 125.397 78.7747 125.124 78.5879C124.851 78.3965 124.5 78.3008 124.071 78.3008ZM133.908 82.9492C133.908 83.4277 133.787 83.8311 133.546 84.1592C133.309 84.4827 132.967 84.7266 132.521 84.8906C132.078 85.0547 131.55 85.1367 130.935 85.1367C130.41 85.1367 129.957 85.0957 129.574 85.0137C129.191 84.9316 128.856 84.8154 128.569 84.665V83.6191C128.875 83.7695 129.239 83.9062 129.663 84.0293C130.087 84.1523 130.52 84.2139 130.962 84.2139C131.609 84.2139 132.078 84.109 132.37 83.8994C132.662 83.6898 132.808 83.4049 132.808 83.0449C132.808 82.8398 132.748 82.6598 132.63 82.5049C132.516 82.3454 132.322 82.1927 132.049 82.0469C131.775 81.8965 131.397 81.7324 130.914 81.5547C130.436 81.3724 130.021 81.1924 129.67 81.0146C129.324 80.8324 129.055 80.6113 128.863 80.3516C128.676 80.0918 128.583 79.7546 128.583 79.3398C128.583 78.7064 128.838 78.221 129.349 77.8838C129.864 77.542 130.538 77.3711 131.372 77.3711C131.823 77.3711 132.245 77.4167 132.637 77.5078C133.033 77.5944 133.402 77.7129 133.744 77.8633L133.361 78.7725C133.051 78.6403 132.721 78.5286 132.37 78.4375C132.019 78.3464 131.661 78.3008 131.297 78.3008C130.773 78.3008 130.369 78.3874 130.087 78.5605C129.809 78.7337 129.67 78.9707 129.67 79.2715C129.67 79.5039 129.734 79.6953 129.861 79.8457C129.993 79.9961 130.203 80.1374 130.49 80.2695C130.777 80.4017 131.156 80.5566 131.625 80.7344C132.094 80.9076 132.5 81.0876 132.842 81.2744C133.184 81.4567 133.446 81.68 133.628 81.9443C133.815 82.2041 133.908 82.5391 133.908 82.9492ZM138.618 77.3711C139.256 77.3711 139.803 77.5124 140.259 77.7949C140.715 78.0775 141.063 78.474 141.305 78.9844C141.546 79.4902 141.667 80.0827 141.667 80.7617V81.4658H136.492C136.506 82.3454 136.725 83.0153 137.148 83.4756C137.572 83.9359 138.169 84.166 138.939 84.166C139.413 84.166 139.833 84.1227 140.197 84.0361C140.562 83.9495 140.94 83.8219 141.332 83.6533V84.6514C140.954 84.82 140.578 84.943 140.204 85.0205C139.835 85.098 139.397 85.1367 138.892 85.1367C138.172 85.1367 137.543 84.9909 137.005 84.6992C136.472 84.403 136.057 83.9701 135.761 83.4004C135.465 82.8307 135.316 82.1335 135.316 81.3086C135.316 80.502 135.451 79.8047 135.72 79.2168C135.993 78.6243 136.376 78.1686 136.868 77.8496C137.365 77.5306 137.948 77.3711 138.618 77.3711ZM138.604 78.3008C137.998 78.3008 137.515 78.499 137.155 78.8955C136.795 79.292 136.581 79.8457 136.513 80.5566H140.478C140.473 80.11 140.402 79.7181 140.266 79.3809C140.133 79.0391 139.931 78.7747 139.657 78.5879C139.384 78.3965 139.033 78.3008 138.604 78.3008ZM147.143 77.3711C148.031 77.3711 148.703 77.5898 149.159 78.0273C149.615 78.4603 149.843 79.1576 149.843 80.1191V85H148.722V80.1943C148.722 79.57 148.578 79.1029 148.291 78.793C148.008 78.4831 147.573 78.3281 146.985 78.3281C146.156 78.3281 145.573 78.5628 145.235 79.0322C144.898 79.5016 144.729 80.1829 144.729 81.0762V85H143.595V77.5078H144.511L144.682 78.5879H144.743C144.903 78.3236 145.105 78.1025 145.352 77.9248C145.598 77.7425 145.873 77.6058 146.179 77.5146C146.484 77.4189 146.805 77.3711 147.143 77.3711ZM154.601 84.207C154.787 84.207 154.979 84.1911 155.175 84.1592C155.371 84.1273 155.53 84.0885 155.653 84.043V84.9248C155.521 84.984 155.337 85.0342 155.1 85.0752C154.867 85.1162 154.639 85.1367 154.416 85.1367C154.02 85.1367 153.66 85.0684 153.336 84.9316C153.012 84.7904 152.753 84.5534 152.557 84.2207C152.365 83.888 152.27 83.4277 152.27 82.8398V78.3965H151.203V77.8428L152.276 77.3984L152.728 75.7715H153.411V77.5078H155.605V78.3965H153.411V82.8057C153.411 83.2751 153.518 83.626 153.732 83.8584C153.951 84.0908 154.241 84.207 154.601 84.207ZM160.056 77.3711C160.694 77.3711 161.241 77.5124 161.696 77.7949C162.152 78.0775 162.501 78.474 162.742 78.9844C162.984 79.4902 163.104 80.0827 163.104 80.7617V81.4658H157.93C157.943 82.3454 158.162 83.0153 158.586 83.4756C159.01 83.9359 159.607 84.166 160.377 84.166C160.851 84.166 161.27 84.1227 161.635 84.0361C161.999 83.9495 162.378 83.8219 162.77 83.6533V84.6514C162.391 84.82 162.015 84.943 161.642 85.0205C161.272 85.098 160.835 85.1367 160.329 85.1367C159.609 85.1367 158.98 84.9909 158.442 84.6992C157.909 84.403 157.494 83.9701 157.198 83.4004C156.902 82.8307 156.754 82.1335 156.754 81.3086C156.754 80.502 156.888 79.8047 157.157 79.2168C157.431 78.6243 157.813 78.1686 158.306 77.8496C158.802 77.5306 159.386 77.3711 160.056 77.3711ZM160.042 78.3008C159.436 78.3008 158.953 78.499 158.593 78.8955C158.233 79.292 158.019 79.8457 157.95 80.5566H161.915C161.91 80.11 161.84 79.7181 161.703 79.3809C161.571 79.0391 161.368 78.7747 161.095 78.5879C160.821 78.3965 160.47 78.3008 160.042 78.3008ZM172.005 78.3965H170.139V85H169.004V78.3965H167.678V77.8496L169.004 77.4736V76.9746C169.004 76.3457 169.097 75.8353 169.284 75.4434C169.471 75.0469 169.742 74.7552 170.098 74.5684C170.453 74.3815 170.886 74.2881 171.396 74.2881C171.684 74.2881 171.946 74.3132 172.183 74.3633C172.424 74.4134 172.636 74.4704 172.818 74.5342L172.524 75.4297C172.369 75.3796 172.194 75.334 171.998 75.293C171.807 75.2474 171.611 75.2246 171.41 75.2246C170.977 75.2246 170.656 75.3659 170.446 75.6484C170.241 75.9264 170.139 76.3639 170.139 76.9609V77.5078H172.005V78.3965ZM179.846 81.2402C179.846 81.8555 179.766 82.4046 179.606 82.8877C179.447 83.3708 179.217 83.7786 178.916 84.1113C178.615 84.444 178.251 84.6992 177.822 84.877C177.398 85.0501 176.918 85.1367 176.38 85.1367C175.879 85.1367 175.418 85.0501 174.999 84.877C174.584 84.6992 174.224 84.444 173.919 84.1113C173.618 83.7786 173.383 83.3708 173.215 82.8877C173.051 82.4046 172.969 81.8555 172.969 81.2402C172.969 80.4199 173.108 79.7227 173.386 79.1484C173.664 78.5697 174.06 78.1299 174.575 77.8291C175.095 77.5238 175.712 77.3711 176.428 77.3711C177.111 77.3711 177.708 77.5238 178.219 77.8291C178.734 78.1344 179.132 78.5765 179.415 79.1553C179.702 79.7295 179.846 80.4245 179.846 81.2402ZM174.145 81.2402C174.145 81.8418 174.224 82.3636 174.384 82.8057C174.543 83.2477 174.789 83.5895 175.122 83.8311C175.455 84.0726 175.883 84.1934 176.407 84.1934C176.927 84.1934 177.353 84.0726 177.686 83.8311C178.023 83.5895 178.271 83.2477 178.431 82.8057C178.59 82.3636 178.67 81.8418 178.67 81.2402C178.67 80.6432 178.59 80.1283 178.431 79.6953C178.271 79.2578 178.025 78.9206 177.692 78.6836C177.36 78.4466 176.929 78.3281 176.4 78.3281C175.621 78.3281 175.049 78.5856 174.685 79.1006C174.325 79.6156 174.145 80.3288 174.145 81.2402ZM185.212 77.3711C185.362 77.3711 185.52 77.3802 185.684 77.3984C185.848 77.4121 185.993 77.4326 186.121 77.46L185.978 78.5127C185.854 78.4808 185.718 78.4557 185.567 78.4375C185.417 78.4193 185.276 78.4102 185.144 78.4102C184.843 78.4102 184.558 78.4717 184.289 78.5947C184.025 78.7132 183.792 78.8864 183.592 79.1143C183.391 79.3376 183.234 79.6087 183.12 79.9277C183.006 80.2422 182.949 80.5931 182.949 80.9805V85H181.808V77.5078H182.751L182.874 78.8887H182.922C183.077 78.6107 183.264 78.3577 183.482 78.1299C183.701 77.8975 183.954 77.7129 184.241 77.5762C184.533 77.4395 184.856 77.3711 185.212 77.3711ZM195.671 77.3711C196.496 77.3711 197.118 77.5876 197.537 78.0205C197.956 78.4489 198.166 79.1393 198.166 80.0918V85H197.045V80.1465C197.045 79.5404 196.913 79.0869 196.648 78.7861C196.389 78.4808 196.001 78.3281 195.486 78.3281C194.762 78.3281 194.235 78.5378 193.907 78.957C193.579 79.3763 193.415 79.9938 193.415 80.8096V85H192.287V80.1465C192.287 79.7409 192.228 79.4036 192.109 79.1348C191.995 78.8659 191.822 78.6654 191.59 78.5332C191.362 78.3965 191.073 78.3281 190.722 78.3281C190.225 78.3281 189.826 78.4307 189.525 78.6357C189.225 78.8408 189.006 79.1462 188.869 79.5518C188.737 79.9528 188.671 80.4473 188.671 81.0352V85H187.536V77.5078H188.452L188.623 78.5674H188.685C188.835 78.3076 189.024 78.0889 189.252 77.9111C189.48 77.7334 189.735 77.599 190.018 77.5078C190.3 77.4167 190.601 77.3711 190.92 77.3711C191.49 77.3711 191.966 77.4782 192.349 77.6924C192.736 77.902 193.016 78.2233 193.189 78.6562H193.251C193.497 78.2233 193.834 77.902 194.263 77.6924C194.691 77.4782 195.16 77.3711 195.671 77.3711ZM206.684 77.5078V85H205.754L205.59 83.9473H205.528C205.373 84.207 205.173 84.4258 204.927 84.6035C204.681 84.7812 204.403 84.9134 204.093 85C203.787 85.0911 203.462 85.1367 203.115 85.1367C202.523 85.1367 202.026 85.041 201.625 84.8496C201.224 84.6582 200.921 84.362 200.716 83.9609C200.515 83.5599 200.415 83.0449 200.415 82.416V77.5078H201.563V82.334C201.563 82.9583 201.705 83.4255 201.987 83.7354C202.27 84.0407 202.701 84.1934 203.279 84.1934C203.835 84.1934 204.277 84.0885 204.605 83.8789C204.938 83.6693 205.177 83.3617 205.323 82.9561C205.469 82.5459 205.542 82.0446 205.542 81.4521V77.5078H206.684ZM210.225 85H209.083V74.3633H210.225V85ZM215.427 77.3848C216.32 77.3848 216.983 77.5853 217.416 77.9863C217.849 78.3874 218.065 79.0277 218.065 79.9072V85H217.238L217.02 83.8926H216.965C216.755 84.166 216.536 84.3962 216.309 84.583C216.081 84.7653 215.816 84.9043 215.516 85C215.219 85.0911 214.855 85.1367 214.422 85.1367C213.966 85.1367 213.561 85.057 213.205 84.8975C212.854 84.738 212.576 84.4964 212.371 84.1729C212.171 83.8493 212.07 83.4391 212.07 82.9424C212.07 82.195 212.367 81.6208 212.959 81.2197C213.551 80.8187 214.454 80.5999 215.666 80.5635L216.958 80.5088V80.0508C216.958 79.4036 216.819 78.9502 216.541 78.6904C216.263 78.4307 215.871 78.3008 215.365 78.3008C214.973 78.3008 214.6 78.3577 214.244 78.4717C213.889 78.5856 213.551 78.7201 213.232 78.875L212.884 78.0137C213.221 77.8405 213.608 77.6924 214.046 77.5693C214.483 77.4463 214.944 77.3848 215.427 77.3848ZM216.944 81.3086L215.803 81.3564C214.868 81.3929 214.21 81.5456 213.827 81.8145C213.444 82.0833 213.253 82.4639 213.253 82.9561C213.253 83.3844 213.383 83.7012 213.643 83.9062C213.902 84.1113 214.246 84.2139 214.675 84.2139C215.34 84.2139 215.885 84.0293 216.309 83.6602C216.732 83.291 216.944 82.7373 216.944 81.999V81.3086ZM223.808 77.3711C223.958 77.3711 224.115 77.3802 224.279 77.3984C224.443 77.4121 224.589 77.4326 224.717 77.46L224.573 78.5127C224.45 78.4808 224.313 78.4557 224.163 78.4375C224.013 78.4193 223.871 78.4102 223.739 78.4102C223.438 78.4102 223.154 78.4717 222.885 78.5947C222.62 78.7132 222.388 78.8864 222.188 79.1143C221.987 79.3376 221.83 79.6087 221.716 79.9277C221.602 80.2422 221.545 80.5931 221.545 80.9805V85H220.403V77.5078H221.347L221.47 78.8887H221.518C221.673 78.6107 221.859 78.3577 222.078 78.1299C222.297 77.8975 222.55 77.7129 222.837 77.5762C223.129 77.4395 223.452 77.3711 223.808 77.3711ZM227.267 77.5078V85H226.132V77.5078H227.267ZM226.713 74.7051C226.9 74.7051 227.059 74.7666 227.191 74.8896C227.328 75.0081 227.396 75.195 227.396 75.4502C227.396 75.7008 227.328 75.8877 227.191 76.0107C227.059 76.1338 226.9 76.1953 226.713 76.1953C226.517 76.1953 226.353 76.1338 226.221 76.0107C226.093 75.8877 226.029 75.7008 226.029 75.4502C226.029 75.195 226.093 75.0081 226.221 74.8896C226.353 74.7666 226.517 74.7051 226.713 74.7051ZM236.133 81.2402C236.133 81.8555 236.053 82.4046 235.894 82.8877C235.734 83.3708 235.504 83.7786 235.203 84.1113C234.902 84.444 234.538 84.6992 234.109 84.877C233.686 85.0501 233.205 85.1367 232.667 85.1367C232.166 85.1367 231.705 85.0501 231.286 84.877C230.871 84.6992 230.511 84.444 230.206 84.1113C229.905 83.7786 229.671 83.3708 229.502 82.8877C229.338 82.4046 229.256 81.8555 229.256 81.2402C229.256 80.4199 229.395 79.7227 229.673 79.1484C229.951 78.5697 230.347 78.1299 230.862 77.8291C231.382 77.5238 231.999 77.3711 232.715 77.3711C233.398 77.3711 233.995 77.5238 234.506 77.8291C235.021 78.1344 235.42 78.5765 235.702 79.1553C235.989 79.7295 236.133 80.4245 236.133 81.2402ZM230.432 81.2402C230.432 81.8418 230.511 82.3636 230.671 82.8057C230.83 83.2477 231.076 83.5895 231.409 83.8311C231.742 84.0726 232.17 84.1934 232.694 84.1934C233.214 84.1934 233.64 84.0726 233.973 83.8311C234.31 83.5895 234.558 83.2477 234.718 82.8057C234.877 82.3636 234.957 81.8418 234.957 81.2402C234.957 80.6432 234.877 80.1283 234.718 79.6953C234.558 79.2578 234.312 78.9206 233.979 78.6836C233.647 78.4466 233.216 78.3281 232.688 78.3281C231.908 78.3281 231.336 78.5856 230.972 79.1006C230.612 79.6156 230.432 80.3288 230.432 81.2402ZM244.732 85.1367C244.058 85.1367 243.463 84.9977 242.948 84.7197C242.433 84.4417 242.032 84.0179 241.745 83.4482C241.458 82.8786 241.314 82.1608 241.314 81.2949C241.314 80.388 241.465 79.6475 241.766 79.0732C242.071 78.4945 242.49 78.0661 243.023 77.7881C243.557 77.5101 244.163 77.3711 244.842 77.3711C245.215 77.3711 245.576 77.4098 245.922 77.4873C246.273 77.5602 246.56 77.6536 246.783 77.7676L246.441 78.7178C246.214 78.6266 245.949 78.5446 245.648 78.4717C245.352 78.3988 245.074 78.3623 244.814 78.3623C244.295 78.3623 243.862 78.474 243.516 78.6973C243.174 78.9206 242.916 79.2487 242.743 79.6816C242.575 80.1146 242.49 80.6478 242.49 81.2812C242.49 81.8874 242.572 82.4046 242.736 82.833C242.905 83.2614 243.153 83.5895 243.481 83.8174C243.814 84.0407 244.229 84.1523 244.726 84.1523C245.122 84.1523 245.48 84.1113 245.799 84.0293C246.118 83.9427 246.407 83.8424 246.667 83.7285V84.7402C246.416 84.8678 246.136 84.9658 245.826 85.0342C245.521 85.1025 245.156 85.1367 244.732 85.1367ZM254.904 81.2402C254.904 81.8555 254.825 82.4046 254.665 82.8877C254.506 83.3708 254.275 83.7786 253.975 84.1113C253.674 84.444 253.309 84.6992 252.881 84.877C252.457 85.0501 251.976 85.1367 251.438 85.1367C250.937 85.1367 250.477 85.0501 250.058 84.877C249.643 84.6992 249.283 84.444 248.978 84.1113C248.677 83.7786 248.442 83.3708 248.273 82.8877C248.109 82.4046 248.027 81.8555 248.027 81.2402C248.027 80.4199 248.166 79.7227 248.444 79.1484C248.722 78.5697 249.119 78.1299 249.634 77.8291C250.153 77.5238 250.771 77.3711 251.486 77.3711C252.17 77.3711 252.767 77.5238 253.277 77.8291C253.792 78.1344 254.191 78.5765 254.474 79.1553C254.761 79.7295 254.904 80.4245 254.904 81.2402ZM249.203 81.2402C249.203 81.8418 249.283 82.3636 249.442 82.8057C249.602 83.2477 249.848 83.5895 250.181 83.8311C250.513 84.0726 250.942 84.1934 251.466 84.1934C251.985 84.1934 252.411 84.0726 252.744 83.8311C253.081 83.5895 253.33 83.2477 253.489 82.8057C253.649 82.3636 253.729 81.8418 253.729 81.2402C253.729 80.6432 253.649 80.1283 253.489 79.6953C253.33 79.2578 253.084 78.9206 252.751 78.6836C252.418 78.4466 251.988 78.3281 251.459 78.3281C250.68 78.3281 250.108 78.5856 249.743 79.1006C249.383 79.6156 249.203 80.3288 249.203 81.2402ZM260.414 77.3711C261.303 77.3711 261.975 77.5898 262.431 78.0273C262.886 78.4603 263.114 79.1576 263.114 80.1191V85H261.993V80.1943C261.993 79.57 261.85 79.1029 261.562 78.793C261.28 78.4831 260.845 78.3281 260.257 78.3281C259.427 78.3281 258.844 78.5628 258.507 79.0322C258.17 79.5016 258.001 80.1829 258.001 81.0762V85H256.866V77.5078H257.782L257.953 78.5879H258.015C258.174 78.3236 258.377 78.1025 258.623 77.9248C258.869 77.7425 259.145 77.6058 259.45 77.5146C259.756 77.4189 260.077 77.3711 260.414 77.3711ZM268.788 78.3965H266.922V85H265.787V78.3965H264.461V77.8496L265.787 77.4736V76.9746C265.787 76.3457 265.881 75.8353 266.067 75.4434C266.254 75.0469 266.525 74.7552 266.881 74.5684C267.236 74.3815 267.669 74.2881 268.18 74.2881C268.467 74.2881 268.729 74.3132 268.966 74.3633C269.207 74.4134 269.419 74.4704 269.602 74.5342L269.308 75.4297C269.153 75.3796 268.977 75.334 268.781 75.293C268.59 75.2474 268.394 75.2246 268.193 75.2246C267.76 75.2246 267.439 75.3659 267.229 75.6484C267.024 75.9264 266.922 76.3639 266.922 76.9609V77.5078H268.788V78.3965ZM276.629 81.2402C276.629 81.8555 276.549 82.4046 276.39 82.8877C276.23 83.3708 276 83.7786 275.699 84.1113C275.398 84.444 275.034 84.6992 274.605 84.877C274.182 85.0501 273.701 85.1367 273.163 85.1367C272.662 85.1367 272.201 85.0501 271.782 84.877C271.368 84.6992 271.007 84.444 270.702 84.1113C270.401 83.7786 270.167 83.3708 269.998 82.8877C269.834 82.4046 269.752 81.8555 269.752 81.2402C269.752 80.4199 269.891 79.7227 270.169 79.1484C270.447 78.5697 270.843 78.1299 271.358 77.8291C271.878 77.5238 272.495 77.3711 273.211 77.3711C273.895 77.3711 274.492 77.5238 275.002 77.8291C275.517 78.1344 275.916 78.5765 276.198 79.1553C276.485 79.7295 276.629 80.4245 276.629 81.2402ZM270.928 81.2402C270.928 81.8418 271.007 82.3636 271.167 82.8057C271.326 83.2477 271.573 83.5895 271.905 83.8311C272.238 84.0726 272.666 84.1934 273.19 84.1934C273.71 84.1934 274.136 84.0726 274.469 83.8311C274.806 83.5895 275.054 83.2477 275.214 82.8057C275.373 82.3636 275.453 81.8418 275.453 81.2402C275.453 80.6432 275.373 80.1283 275.214 79.6953C275.054 79.2578 274.808 78.9206 274.476 78.6836C274.143 78.4466 273.712 78.3281 273.184 78.3281C272.404 78.3281 271.832 78.5856 271.468 79.1006C271.108 79.6156 270.928 80.3288 270.928 81.2402ZM281.995 77.3711C282.146 77.3711 282.303 77.3802 282.467 77.3984C282.631 77.4121 282.777 77.4326 282.904 77.46L282.761 78.5127C282.638 78.4808 282.501 78.4557 282.351 78.4375C282.2 78.4193 282.059 78.4102 281.927 78.4102C281.626 78.4102 281.341 78.4717 281.072 78.5947C280.808 78.7132 280.576 78.8864 280.375 79.1143C280.174 79.3376 280.017 79.6087 279.903 79.9277C279.789 80.2422 279.732 80.5931 279.732 80.9805V85H278.591V77.5078H279.534L279.657 78.8887H279.705C279.86 78.6107 280.047 78.3577 280.266 78.1299C280.484 77.8975 280.737 77.7129 281.024 77.5762C281.316 77.4395 281.64 77.3711 281.995 77.3711ZM292.454 77.3711C293.279 77.3711 293.901 77.5876 294.32 78.0205C294.74 78.4489 294.949 79.1393 294.949 80.0918V85H293.828V80.1465C293.828 79.5404 293.696 79.0869 293.432 78.7861C293.172 78.4808 292.785 78.3281 292.27 78.3281C291.545 78.3281 291.019 78.5378 290.69 78.957C290.362 79.3763 290.198 79.9938 290.198 80.8096V85H289.07V80.1465C289.07 79.7409 289.011 79.4036 288.893 79.1348C288.779 78.8659 288.605 78.6654 288.373 78.5332C288.145 78.3965 287.856 78.3281 287.505 78.3281C287.008 78.3281 286.609 78.4307 286.309 78.6357C286.008 78.8408 285.789 79.1462 285.652 79.5518C285.52 79.9528 285.454 80.4473 285.454 81.0352V85H284.319V77.5078H285.235L285.406 78.5674H285.468C285.618 78.3076 285.807 78.0889 286.035 77.9111C286.263 77.7334 286.518 77.599 286.801 77.5078C287.083 77.4167 287.384 77.3711 287.703 77.3711C288.273 77.3711 288.749 77.4782 289.132 77.6924C289.519 77.902 289.799 78.2233 289.973 78.6562H290.034C290.28 78.2233 290.618 77.902 291.046 77.6924C291.474 77.4782 291.944 77.3711 292.454 77.3711ZM300.165 77.3711C300.803 77.3711 301.35 77.5124 301.806 77.7949C302.261 78.0775 302.61 78.474 302.852 78.9844C303.093 79.4902 303.214 80.0827 303.214 80.7617V81.4658H298.039C298.053 82.3454 298.271 83.0153 298.695 83.4756C299.119 83.9359 299.716 84.166 300.486 84.166C300.96 84.166 301.38 84.1227 301.744 84.0361C302.109 83.9495 302.487 83.8219 302.879 83.6533V84.6514C302.501 84.82 302.125 84.943 301.751 85.0205C301.382 85.098 300.944 85.1367 300.438 85.1367C299.718 85.1367 299.09 84.9909 298.552 84.6992C298.019 84.403 297.604 83.9701 297.308 83.4004C297.011 82.8307 296.863 82.1335 296.863 81.3086C296.863 80.502 296.998 79.8047 297.267 79.2168C297.54 78.6243 297.923 78.1686 298.415 77.8496C298.912 77.5306 299.495 77.3711 300.165 77.3711ZM300.151 78.3008C299.545 78.3008 299.062 78.499 298.702 78.8955C298.342 79.292 298.128 79.8457 298.06 80.5566H302.024C302.02 80.11 301.949 79.7181 301.812 79.3809C301.68 79.0391 301.478 78.7747 301.204 78.5879C300.931 78.3965 300.58 78.3008 300.151 78.3008ZM311.581 77.3848C312.474 77.3848 313.137 77.5853 313.57 77.9863C314.003 78.3874 314.22 79.0277 314.22 79.9072V85H313.393L313.174 83.8926H313.119C312.91 84.166 312.691 84.3962 312.463 84.583C312.235 84.7653 311.971 84.9043 311.67 85C311.374 85.0911 311.009 85.1367 310.576 85.1367C310.12 85.1367 309.715 85.057 309.359 84.8975C309.008 84.738 308.73 84.4964 308.525 84.1729C308.325 83.8493 308.225 83.4391 308.225 82.9424C308.225 82.195 308.521 81.6208 309.113 81.2197C309.706 80.8187 310.608 80.5999 311.82 80.5635L313.112 80.5088V80.0508C313.112 79.4036 312.973 78.9502 312.695 78.6904C312.417 78.4307 312.025 78.3008 311.52 78.3008C311.128 78.3008 310.754 78.3577 310.398 78.4717C310.043 78.5856 309.706 78.7201 309.387 78.875L309.038 78.0137C309.375 77.8405 309.763 77.6924 310.2 77.5693C310.638 77.4463 311.098 77.3848 311.581 77.3848ZM313.099 81.3086L311.957 81.3564C311.023 81.3929 310.364 81.5456 309.981 81.8145C309.599 82.0833 309.407 82.4639 309.407 82.9561C309.407 83.3844 309.537 83.7012 309.797 83.9062C310.057 84.1113 310.401 84.2139 310.829 84.2139C311.494 84.2139 312.039 84.0293 312.463 83.6602C312.887 83.291 313.099 82.7373 313.099 81.999V81.3086ZM26.3379 105H25.1963V94.3633H26.3379V105ZM31.54 97.3848C32.4333 97.3848 33.0964 97.5853 33.5293 97.9863C33.9622 98.3874 34.1787 99.0277 34.1787 99.9072V105H33.3516L33.1328 103.893H33.0781C32.8685 104.166 32.6497 104.396 32.4219 104.583C32.194 104.765 31.9297 104.904 31.6289 105C31.3327 105.091 30.9681 105.137 30.5352 105.137C30.0794 105.137 29.6738 105.057 29.3184 104.897C28.9674 104.738 28.6895 104.496 28.4844 104.173C28.2839 103.849 28.1836 103.439 28.1836 102.942C28.1836 102.195 28.4798 101.621 29.0723 101.22C29.6647 100.819 30.5671 100.6 31.7793 100.563L33.0713 100.509V100.051C33.0713 99.4036 32.9323 98.9502 32.6543 98.6904C32.3763 98.4307 31.9844 98.3008 31.4785 98.3008C31.0866 98.3008 30.7129 98.3577 30.3574 98.4717C30.002 98.5856 29.6647 98.7201 29.3457 98.875L28.9971 98.0137C29.3343 97.8405 29.7217 97.6924 30.1592 97.5693C30.5967 97.4463 31.057 97.3848 31.54 97.3848ZM33.0576 101.309L31.916 101.356C30.9818 101.393 30.3232 101.546 29.9404 101.814C29.5576 102.083 29.3662 102.464 29.3662 102.956C29.3662 103.384 29.4961 103.701 29.7559 103.906C30.0156 104.111 30.3597 104.214 30.7881 104.214C31.4535 104.214 31.998 104.029 32.4219 103.66C32.8457 103.291 33.0576 102.737 33.0576 101.999V101.309ZM43.0244 95.0059C43.8447 95.0059 44.5215 95.1084 45.0547 95.3135C45.5924 95.514 45.9935 95.8216 46.2578 96.2363C46.5221 96.651 46.6543 97.1797 46.6543 97.8223C46.6543 98.3509 46.5586 98.793 46.3672 99.1484C46.1758 99.4993 45.9251 99.7842 45.6152 100.003C45.3053 100.222 44.9749 100.39 44.624 100.509L47.3652 105H46.0117L43.5645 100.83H41.4863V105H40.3242V95.0059H43.0244ZM42.9561 96.0107H41.4863V99.8457H43.0723C43.888 99.8457 44.4873 99.6794 44.8701 99.3467C45.2575 99.014 45.4512 98.5241 45.4512 97.877C45.4512 97.1979 45.2461 96.7171 44.8359 96.4346C44.4303 96.152 43.8037 96.0107 42.9561 96.0107ZM51.6787 97.3711C52.3167 97.3711 52.8636 97.5124 53.3193 97.7949C53.7751 98.0775 54.1237 98.474 54.3652 98.9844C54.6068 99.4902 54.7275 100.083 54.7275 100.762V101.466H49.5527C49.5664 102.345 49.7852 103.015 50.209 103.476C50.6328 103.936 51.2298 104.166 52 104.166C52.474 104.166 52.8932 104.123 53.2578 104.036C53.6224 103.95 54.0007 103.822 54.3926 103.653V104.651C54.0143 104.82 53.6383 104.943 53.2646 105.021C52.8955 105.098 52.458 105.137 51.9521 105.137C51.2321 105.137 50.6032 104.991 50.0654 104.699C49.5322 104.403 49.1175 103.97 48.8213 103.4C48.5251 102.831 48.377 102.133 48.377 101.309C48.377 100.502 48.5114 99.8047 48.7803 99.2168C49.0537 98.6243 49.4365 98.1686 49.9287 97.8496C50.4255 97.5306 51.0088 97.3711 51.6787 97.3711ZM51.665 98.3008C51.0589 98.3008 50.5758 98.499 50.2158 98.8955C49.8558 99.292 49.6416 99.8457 49.5732 100.557H53.5381C53.5335 100.11 53.4629 99.7181 53.3262 99.3809C53.194 99.0391 52.9912 98.7747 52.7178 98.5879C52.4443 98.3965 52.0934 98.3008 51.665 98.3008ZM61.502 102.949C61.502 103.428 61.3812 103.831 61.1396 104.159C60.9027 104.483 60.5609 104.727 60.1143 104.891C59.6722 105.055 59.1436 105.137 58.5283 105.137C58.0042 105.137 57.5508 105.096 57.168 105.014C56.7852 104.932 56.4502 104.815 56.1631 104.665V103.619C56.4684 103.77 56.833 103.906 57.2568 104.029C57.6807 104.152 58.1136 104.214 58.5557 104.214C59.2028 104.214 59.6722 104.109 59.9639 103.899C60.2555 103.69 60.4014 103.405 60.4014 103.045C60.4014 102.84 60.3421 102.66 60.2236 102.505C60.1097 102.345 59.916 102.193 59.6426 102.047C59.3691 101.896 58.9909 101.732 58.5078 101.555C58.0293 101.372 57.6146 101.192 57.2637 101.015C56.9173 100.832 56.6484 100.611 56.457 100.352C56.2702 100.092 56.1768 99.7546 56.1768 99.3398C56.1768 98.7064 56.432 98.221 56.9424 97.8838C57.4574 97.542 58.1318 97.3711 58.9658 97.3711C59.417 97.3711 59.8385 97.4167 60.2305 97.5078C60.627 97.5944 60.9961 97.7129 61.3379 97.8633L60.9551 98.7725C60.6452 98.6403 60.3148 98.5286 59.9639 98.4375C59.613 98.3464 59.2552 98.3008 58.8906 98.3008C58.3665 98.3008 57.9632 98.3874 57.6807 98.5605C57.4027 98.7337 57.2637 98.9707 57.2637 99.2715C57.2637 99.5039 57.3275 99.6953 57.4551 99.8457C57.5872 99.9961 57.7969 100.137 58.084 100.27C58.3711 100.402 58.7493 100.557 59.2188 100.734C59.6882 100.908 60.0938 101.088 60.4355 101.274C60.7773 101.457 61.0394 101.68 61.2217 101.944C61.4085 102.204 61.502 102.539 61.502 102.949ZM69.7871 101.24C69.7871 101.855 69.7074 102.405 69.5479 102.888C69.3883 103.371 69.1582 103.779 68.8574 104.111C68.5566 104.444 68.1921 104.699 67.7637 104.877C67.3398 105.05 66.859 105.137 66.3213 105.137C65.82 105.137 65.3597 105.05 64.9404 104.877C64.5257 104.699 64.1657 104.444 63.8604 104.111C63.5596 103.779 63.3249 103.371 63.1562 102.888C62.9922 102.405 62.9102 101.855 62.9102 101.24C62.9102 100.42 63.0492 99.7227 63.3271 99.1484C63.6051 98.5697 64.0016 98.1299 64.5166 97.8291C65.0361 97.5238 65.6536 97.3711 66.3691 97.3711C67.0527 97.3711 67.6497 97.5238 68.1602 97.8291C68.6751 98.1344 69.0739 98.5765 69.3564 99.1553C69.6436 99.7295 69.7871 100.424 69.7871 101.24ZM64.0859 101.24C64.0859 101.842 64.1657 102.364 64.3252 102.806C64.4847 103.248 64.7308 103.59 65.0635 103.831C65.3962 104.073 65.8245 104.193 66.3486 104.193C66.8682 104.193 67.2943 104.073 67.627 103.831C67.9642 103.59 68.2126 103.248 68.3721 102.806C68.5316 102.364 68.6113 101.842 68.6113 101.24C68.6113 100.643 68.5316 100.128 68.3721 99.6953C68.2126 99.2578 67.9665 98.9206 67.6338 98.6836C67.3011 98.4466 66.8704 98.3281 66.3418 98.3281C65.5625 98.3281 64.9906 98.5856 64.626 99.1006C64.266 99.6156 64.0859 100.329 64.0859 101.24ZM72.8906 105H71.749V94.3633H72.8906V105ZM81.4766 97.5078V105H80.5469L80.3828 103.947H80.3213C80.1663 104.207 79.9658 104.426 79.7197 104.604C79.4736 104.781 79.1956 104.913 78.8857 105C78.5804 105.091 78.2546 105.137 77.9082 105.137C77.3158 105.137 76.819 105.041 76.418 104.85C76.0169 104.658 75.7139 104.362 75.5088 103.961C75.3083 103.56 75.208 103.045 75.208 102.416V97.5078H76.3564V102.334C76.3564 102.958 76.4977 103.425 76.7803 103.735C77.0628 104.041 77.4935 104.193 78.0723 104.193C78.6283 104.193 79.0703 104.089 79.3984 103.879C79.7311 103.669 79.9704 103.362 80.1162 102.956C80.262 102.546 80.335 102.045 80.335 101.452V97.5078H81.4766ZM86.877 105.137C86.2025 105.137 85.6077 104.998 85.0928 104.72C84.5778 104.442 84.1768 104.018 83.8896 103.448C83.6025 102.879 83.459 102.161 83.459 101.295C83.459 100.388 83.6094 99.6475 83.9102 99.0732C84.2155 98.4945 84.6348 98.0661 85.168 97.7881C85.7012 97.5101 86.3073 97.3711 86.9863 97.3711C87.36 97.3711 87.7201 97.4098 88.0664 97.4873C88.4173 97.5602 88.7044 97.6536 88.9277 97.7676L88.5859 98.7178C88.3581 98.6266 88.0938 98.5446 87.793 98.4717C87.4967 98.3988 87.2188 98.3623 86.959 98.3623C86.4395 98.3623 86.0065 98.474 85.6602 98.6973C85.3184 98.9206 85.0609 99.2487 84.8877 99.6816C84.7191 100.115 84.6348 100.648 84.6348 101.281C84.6348 101.887 84.7168 102.405 84.8809 102.833C85.0495 103.261 85.2979 103.59 85.626 103.817C85.9587 104.041 86.3734 104.152 86.8701 104.152C87.2666 104.152 87.6243 104.111 87.9434 104.029C88.2624 103.943 88.5518 103.842 88.8115 103.729V104.74C88.5609 104.868 88.2806 104.966 87.9707 105.034C87.6654 105.103 87.3008 105.137 86.877 105.137ZM91.7236 97.5078V105H90.5889V97.5078H91.7236ZM91.1699 94.7051C91.3568 94.7051 91.5163 94.7666 91.6484 94.8896C91.7852 95.0081 91.8535 95.195 91.8535 95.4502C91.8535 95.7008 91.7852 95.8877 91.6484 96.0107C91.5163 96.1338 91.3568 96.1953 91.1699 96.1953C90.974 96.1953 90.8099 96.1338 90.6777 96.0107C90.5501 95.8877 90.4863 95.7008 90.4863 95.4502C90.4863 95.195 90.5501 95.0081 90.6777 94.8896C90.8099 94.7666 90.974 94.7051 91.1699 94.7051ZM100.59 101.24C100.59 101.855 100.51 102.405 100.351 102.888C100.191 103.371 99.9609 103.779 99.6602 104.111C99.3594 104.444 98.9948 104.699 98.5664 104.877C98.1426 105.05 97.6618 105.137 97.124 105.137C96.6227 105.137 96.1624 105.05 95.7432 104.877C95.3285 104.699 94.9684 104.444 94.6631 104.111C94.3623 103.779 94.1276 103.371 93.959 102.888C93.7949 102.405 93.7129 101.855 93.7129 101.24C93.7129 100.42 93.8519 99.7227 94.1299 99.1484C94.4079 98.5697 94.8044 98.1299 95.3193 97.8291C95.8389 97.5238 96.4564 97.3711 97.1719 97.3711C97.8555 97.3711 98.4525 97.5238 98.9629 97.8291C99.4779 98.1344 99.8766 98.5765 100.159 99.1553C100.446 99.7295 100.59 100.424 100.59 101.24ZM94.8887 101.24C94.8887 101.842 94.9684 102.364 95.1279 102.806C95.2874 103.248 95.5335 103.59 95.8662 103.831C96.1989 104.073 96.6273 104.193 97.1514 104.193C97.6709 104.193 98.097 104.073 98.4297 103.831C98.7669 103.59 99.0153 103.248 99.1748 102.806C99.3343 102.364 99.4141 101.842 99.4141 101.24C99.4141 100.643 99.3343 100.128 99.1748 99.6953C99.0153 99.2578 98.7692 98.9206 98.4365 98.6836C98.1038 98.4466 97.6732 98.3281 97.1445 98.3281C96.3652 98.3281 95.7933 98.5856 95.4287 99.1006C95.0687 99.6156 94.8887 100.329 94.8887 101.24ZM99.1338 94.2744V94.4111C99.0426 94.5433 98.9173 94.7028 98.7578 94.8896C98.6029 95.0719 98.4297 95.2656 98.2383 95.4707C98.0469 95.6712 97.8532 95.8626 97.6572 96.0449C97.4658 96.2272 97.2881 96.3844 97.124 96.5166H96.3652V96.3525C96.5111 96.1794 96.6706 95.972 96.8438 95.7305C97.0169 95.4844 97.1855 95.2337 97.3496 94.9785C97.5137 94.7188 97.6504 94.484 97.7598 94.2744H99.1338ZM106.1 97.3711C106.988 97.3711 107.66 97.5898 108.116 98.0273C108.572 98.4603 108.8 99.1576 108.8 100.119V105H107.679V100.194C107.679 99.57 107.535 99.1029 107.248 98.793C106.965 98.4831 106.53 98.3281 105.942 98.3281C105.113 98.3281 104.53 98.5628 104.192 99.0322C103.855 99.5016 103.687 100.183 103.687 101.076V105H102.552V97.5078H103.468L103.639 98.5879H103.7C103.86 98.3236 104.062 98.1025 104.309 97.9248C104.555 97.7425 104.83 97.6058 105.136 97.5146C105.441 97.4189 105.762 97.3711 106.1 97.3711ZM118.493 105H117.386V97.918C117.386 97.6491 117.386 97.4189 117.386 97.2275C117.39 97.0316 117.395 96.8538 117.399 96.6943C117.409 96.5303 117.42 96.3639 117.434 96.1953C117.292 96.3411 117.16 96.4665 117.037 96.5713C116.914 96.6715 116.761 96.7969 116.579 96.9473L115.438 97.8633L114.843 97.0908L117.55 95.0059H118.493V105ZM128.829 105H122.28V104.05L124.953 101.336C125.45 100.835 125.867 100.388 126.204 99.9961C126.546 99.6042 126.806 99.2191 126.983 98.8408C127.161 98.458 127.25 98.0387 127.25 97.583C127.25 97.0179 127.081 96.5872 126.744 96.291C126.411 95.9902 125.972 95.8398 125.425 95.8398C124.946 95.8398 124.522 95.9219 124.153 96.0859C123.784 96.25 123.406 96.4824 123.019 96.7832L122.41 96.0176C122.674 95.7943 122.962 95.596 123.271 95.4229C123.586 95.2497 123.921 95.113 124.276 95.0127C124.636 94.9124 125.019 94.8623 125.425 94.8623C126.04 94.8623 126.571 94.9694 127.018 95.1836C127.464 95.3978 127.808 95.7031 128.05 96.0996C128.296 96.4961 128.419 96.9678 128.419 97.5146C128.419 98.0433 128.314 98.5355 128.104 98.9912C127.895 99.4424 127.601 99.8913 127.223 100.338C126.844 100.78 126.402 101.249 125.896 101.746L123.723 103.913V103.961H128.829V105ZM136.472 97.3369C136.472 97.7835 136.385 98.1709 136.212 98.499C136.039 98.8271 135.797 99.096 135.487 99.3057C135.177 99.5107 134.813 99.6543 134.394 99.7363V99.791C135.187 99.8913 135.781 100.146 136.178 100.557C136.579 100.967 136.779 101.505 136.779 102.17C136.779 102.749 136.643 103.261 136.369 103.708C136.1 104.155 135.686 104.506 135.125 104.761C134.569 105.011 133.856 105.137 132.985 105.137C132.457 105.137 131.967 105.093 131.516 105.007C131.069 104.925 130.641 104.786 130.23 104.59V103.523C130.645 103.729 131.096 103.89 131.584 104.009C132.072 104.123 132.543 104.18 132.999 104.18C133.91 104.18 134.569 104 134.975 103.64C135.38 103.275 135.583 102.778 135.583 102.149C135.583 101.716 135.469 101.368 135.241 101.104C135.018 100.835 134.694 100.639 134.271 100.516C133.851 100.388 133.345 100.324 132.753 100.324H131.755V99.3535H132.76C133.302 99.3535 133.762 99.2738 134.141 99.1143C134.519 98.9548 134.806 98.7314 135.002 98.4443C135.202 98.1527 135.303 97.8086 135.303 97.4121C135.303 96.9062 135.134 96.5166 134.797 96.2432C134.46 95.9652 134.002 95.8262 133.423 95.8262C133.067 95.8262 132.744 95.8626 132.452 95.9355C132.16 96.0085 131.887 96.1087 131.632 96.2363C131.377 96.3639 131.121 96.512 130.866 96.6807L130.292 95.9014C130.657 95.6188 131.101 95.375 131.625 95.1699C132.149 94.9648 132.744 94.8623 133.409 94.8623C134.43 94.8623 135.196 95.0947 135.706 95.5596C136.216 96.0244 136.472 96.6169 136.472 97.3369ZM142.597 95.0059L138.878 105H137.757L141.482 95.0059H142.597ZM147.669 105H146.562V97.918C146.562 97.6491 146.562 97.4189 146.562 97.2275C146.566 97.0316 146.571 96.8538 146.575 96.6943C146.584 96.5303 146.596 96.3639 146.609 96.1953C146.468 96.3411 146.336 96.4665 146.213 96.5713C146.09 96.6715 145.937 96.7969 145.755 96.9473L144.613 97.8633L144.019 97.0908L146.726 95.0059H147.669V105ZM158.005 105H151.456V104.05L154.129 101.336C154.626 100.835 155.043 100.388 155.38 99.9961C155.722 99.6042 155.981 99.2191 156.159 98.8408C156.337 98.458 156.426 98.0387 156.426 97.583C156.426 97.0179 156.257 96.5872 155.92 96.291C155.587 95.9902 155.147 95.8398 154.601 95.8398C154.122 95.8398 153.698 95.9219 153.329 96.0859C152.96 96.25 152.582 96.4824 152.194 96.7832L151.586 96.0176C151.85 95.7943 152.137 95.596 152.447 95.4229C152.762 95.2497 153.097 95.113 153.452 95.0127C153.812 94.9124 154.195 94.8623 154.601 94.8623C155.216 94.8623 155.747 94.9694 156.193 95.1836C156.64 95.3978 156.984 95.7031 157.226 96.0996C157.472 96.4961 157.595 96.9678 157.595 97.5146C157.595 98.0433 157.49 98.5355 157.28 98.9912C157.071 99.4424 156.777 99.8913 156.398 100.338C156.02 100.78 155.578 101.249 155.072 101.746L152.898 103.913V103.961H158.005V105ZM165.647 97.3369C165.647 97.7835 165.561 98.1709 165.388 98.499C165.215 98.8271 164.973 99.096 164.663 99.3057C164.353 99.5107 163.989 99.6543 163.569 99.7363V99.791C164.362 99.8913 164.957 100.146 165.354 100.557C165.755 100.967 165.955 101.505 165.955 102.17C165.955 102.749 165.818 103.261 165.545 103.708C165.276 104.155 164.861 104.506 164.301 104.761C163.745 105.011 163.032 105.137 162.161 105.137C161.632 105.137 161.143 105.093 160.691 105.007C160.245 104.925 159.816 104.786 159.406 104.59V103.523C159.821 103.729 160.272 103.89 160.76 104.009C161.247 104.123 161.719 104.18 162.175 104.18C163.086 104.18 163.745 104 164.15 103.64C164.556 103.275 164.759 102.778 164.759 102.149C164.759 101.716 164.645 101.368 164.417 101.104C164.194 100.835 163.87 100.639 163.446 100.516C163.027 100.388 162.521 100.324 161.929 100.324H160.931V99.3535H161.936C162.478 99.3535 162.938 99.2738 163.316 99.1143C163.695 98.9548 163.982 98.7314 164.178 98.4443C164.378 98.1527 164.479 97.8086 164.479 97.4121C164.479 96.9062 164.31 96.5166 163.973 96.2432C163.635 95.9652 163.177 95.8262 162.599 95.8262C162.243 95.8262 161.92 95.8626 161.628 95.9355C161.336 96.0085 161.063 96.1087 160.808 96.2363C160.552 96.3639 160.297 96.512 160.042 96.6807L159.468 95.9014C159.832 95.6188 160.277 95.375 160.801 95.1699C161.325 94.9648 161.92 94.8623 162.585 94.8623C163.606 94.8623 164.371 95.0947 164.882 95.5596C165.392 96.0244 165.647 96.6169 165.647 97.3369ZM174.527 102.683H173.03V105H171.923V102.683H167.09V101.726L171.848 94.9512H173.03V101.657H174.527V102.683ZM171.923 101.657V98.3896C171.923 98.139 171.925 97.9134 171.93 97.7129C171.934 97.5078 171.941 97.3187 171.95 97.1455C171.959 96.9678 171.966 96.7992 171.971 96.6396C171.98 96.4801 171.987 96.3229 171.991 96.168H171.937C171.85 96.3503 171.75 96.5439 171.636 96.749C171.526 96.9495 171.415 97.1296 171.301 97.2891L168.218 101.657H171.923ZM183.154 97.3711C184.089 97.3711 184.834 97.6924 185.39 98.335C185.946 98.9775 186.224 99.9437 186.224 101.233C186.224 102.086 186.096 102.801 185.841 103.38C185.586 103.959 185.226 104.396 184.761 104.692C184.3 104.989 183.756 105.137 183.127 105.137C182.73 105.137 182.382 105.084 182.081 104.979C181.78 104.875 181.523 104.733 181.309 104.556C181.094 104.378 180.917 104.184 180.775 103.975H180.693C180.707 104.152 180.723 104.367 180.741 104.617C180.764 104.868 180.775 105.087 180.775 105.273V108.35H179.634V97.5078H180.57L180.721 98.6152H180.775C180.921 98.3874 181.099 98.18 181.309 97.9932C181.518 97.8018 181.773 97.6514 182.074 97.542C182.38 97.4281 182.74 97.3711 183.154 97.3711ZM182.956 98.3281C182.437 98.3281 182.017 98.4284 181.698 98.6289C181.384 98.8294 181.154 99.1302 181.008 99.5312C180.862 99.9277 180.785 100.427 180.775 101.028V101.247C180.775 101.881 180.844 102.416 180.98 102.854C181.122 103.291 181.352 103.624 181.671 103.852C181.994 104.079 182.427 104.193 182.97 104.193C183.435 104.193 183.822 104.068 184.132 103.817C184.442 103.567 184.672 103.218 184.822 102.771C184.977 102.32 185.055 101.803 185.055 101.22C185.055 100.336 184.882 99.6338 184.535 99.1143C184.193 98.5902 183.667 98.3281 182.956 98.3281ZM191.009 97.3848C191.902 97.3848 192.565 97.5853 192.998 97.9863C193.431 98.3874 193.647 99.0277 193.647 99.9072V105H192.82L192.602 103.893H192.547C192.337 104.166 192.118 104.396 191.891 104.583C191.663 104.765 191.398 104.904 191.098 105C190.801 105.091 190.437 105.137 190.004 105.137C189.548 105.137 189.143 105.057 188.787 104.897C188.436 104.738 188.158 104.496 187.953 104.173C187.753 103.849 187.652 103.439 187.652 102.942C187.652 102.195 187.949 101.621 188.541 101.22C189.133 100.819 190.036 100.6 191.248 100.563L192.54 100.509V100.051C192.54 99.4036 192.401 98.9502 192.123 98.6904C191.845 98.4307 191.453 98.3008 190.947 98.3008C190.555 98.3008 190.182 98.3577 189.826 98.4717C189.471 98.5856 189.133 98.7201 188.814 98.875L188.466 98.0137C188.803 97.8405 189.19 97.6924 189.628 97.5693C190.065 97.4463 190.526 97.3848 191.009 97.3848ZM192.526 101.309L191.385 101.356C190.451 101.393 189.792 101.546 189.409 101.814C189.026 102.083 188.835 102.464 188.835 102.956C188.835 103.384 188.965 103.701 189.225 103.906C189.484 104.111 189.828 104.214 190.257 104.214C190.922 104.214 191.467 104.029 191.891 103.66C192.314 103.291 192.526 102.737 192.526 101.999V101.309ZM199.39 97.3711C199.54 97.3711 199.697 97.3802 199.861 97.3984C200.025 97.4121 200.171 97.4326 200.299 97.46L200.155 98.5127C200.032 98.4808 199.896 98.4557 199.745 98.4375C199.595 98.4193 199.453 98.4102 199.321 98.4102C199.021 98.4102 198.736 98.4717 198.467 98.5947C198.202 98.7132 197.97 98.8864 197.77 99.1143C197.569 99.3376 197.412 99.6087 197.298 99.9277C197.184 100.242 197.127 100.593 197.127 100.98V105H195.985V97.5078H196.929L197.052 98.8887H197.1C197.255 98.6107 197.441 98.3577 197.66 98.1299C197.879 97.8975 198.132 97.7129 198.419 97.5762C198.711 97.4395 199.034 97.3711 199.39 97.3711ZM204.517 97.3848C205.41 97.3848 206.073 97.5853 206.506 97.9863C206.939 98.3874 207.155 99.0277 207.155 99.9072V105H206.328L206.109 103.893H206.055C205.845 104.166 205.626 104.396 205.398 104.583C205.171 104.765 204.906 104.904 204.605 105C204.309 105.091 203.945 105.137 203.512 105.137C203.056 105.137 202.65 105.057 202.295 104.897C201.944 104.738 201.666 104.496 201.461 104.173C201.26 103.849 201.16 103.439 201.16 102.942C201.16 102.195 201.456 101.621 202.049 101.22C202.641 100.819 203.544 100.6 204.756 100.563L206.048 100.509V100.051C206.048 99.4036 205.909 98.9502 205.631 98.6904C205.353 98.4307 204.961 98.3008 204.455 98.3008C204.063 98.3008 203.689 98.3577 203.334 98.4717C202.979 98.5856 202.641 98.7201 202.322 98.875L201.974 98.0137C202.311 97.8405 202.698 97.6924 203.136 97.5693C203.573 97.4463 204.034 97.3848 204.517 97.3848ZM206.034 101.309L204.893 101.356C203.958 101.393 203.3 101.546 202.917 101.814C202.534 102.083 202.343 102.464 202.343 102.956C202.343 103.384 202.473 103.701 202.732 103.906C202.992 104.111 203.336 104.214 203.765 104.214C204.43 104.214 204.975 104.029 205.398 103.66C205.822 103.291 206.034 102.737 206.034 101.999V101.309ZM214.265 97.5078V105H213.13V97.5078H214.265ZM213.711 94.7051C213.898 94.7051 214.057 94.7666 214.189 94.8896C214.326 95.0081 214.395 95.195 214.395 95.4502C214.395 95.7008 214.326 95.8877 214.189 96.0107C214.057 96.1338 213.898 96.1953 213.711 96.1953C213.515 96.1953 213.351 96.1338 213.219 96.0107C213.091 95.8877 213.027 95.7008 213.027 95.4502C213.027 95.195 213.091 95.0081 213.219 94.8896C213.351 94.7666 213.515 94.7051 213.711 94.7051ZM220.219 97.3711C221.107 97.3711 221.78 97.5898 222.235 98.0273C222.691 98.4603 222.919 99.1576 222.919 100.119V105H221.798V100.194C221.798 99.57 221.654 99.1029 221.367 98.793C221.085 98.4831 220.649 98.3281 220.062 98.3281C219.232 98.3281 218.649 98.5628 218.312 99.0322C217.974 99.5016 217.806 100.183 217.806 101.076V105H216.671V97.5078H217.587L217.758 98.5879H217.819C217.979 98.3236 218.182 98.1025 218.428 97.9248C218.674 97.7425 218.95 97.6058 219.255 97.5146C219.56 97.4189 219.882 97.3711 220.219 97.3711ZM226.392 97.5078V105H225.257V97.5078H226.392ZM225.838 94.7051C226.025 94.7051 226.184 94.7666 226.316 94.8896C226.453 95.0081 226.521 95.195 226.521 95.4502C226.521 95.7008 226.453 95.8877 226.316 96.0107C226.184 96.1338 226.025 96.1953 225.838 96.1953C225.642 96.1953 225.478 96.1338 225.346 96.0107C225.218 95.8877 225.154 95.7008 225.154 95.4502C225.154 95.195 225.218 95.0081 225.346 94.8896C225.478 94.7666 225.642 94.7051 225.838 94.7051ZM231.799 105.137C231.124 105.137 230.53 104.998 230.015 104.72C229.5 104.442 229.099 104.018 228.812 103.448C228.524 102.879 228.381 102.161 228.381 101.295C228.381 100.388 228.531 99.6475 228.832 99.0732C229.137 98.4945 229.557 98.0661 230.09 97.7881C230.623 97.5101 231.229 97.3711 231.908 97.3711C232.282 97.3711 232.642 97.4098 232.988 97.4873C233.339 97.5602 233.626 97.6536 233.85 97.7676L233.508 98.7178C233.28 98.6266 233.016 98.5446 232.715 98.4717C232.419 98.3988 232.141 98.3623 231.881 98.3623C231.361 98.3623 230.928 98.474 230.582 98.6973C230.24 98.9206 229.983 99.2487 229.81 99.6816C229.641 100.115 229.557 100.648 229.557 101.281C229.557 101.887 229.639 102.405 229.803 102.833C229.971 103.261 230.22 103.59 230.548 103.817C230.881 104.041 231.295 104.152 231.792 104.152C232.188 104.152 232.546 104.111 232.865 104.029C233.184 103.943 233.474 103.842 233.733 103.729V104.74C233.483 104.868 233.202 104.966 232.893 105.034C232.587 105.103 232.223 105.137 231.799 105.137ZM236.646 97.5078V105H235.511V97.5078H236.646ZM236.092 94.7051C236.279 94.7051 236.438 94.7666 236.57 94.8896C236.707 95.0081 236.775 95.195 236.775 95.4502C236.775 95.7008 236.707 95.8877 236.57 96.0107C236.438 96.1338 236.279 96.1953 236.092 96.1953C235.896 96.1953 235.732 96.1338 235.6 96.0107C235.472 95.8877 235.408 95.7008 235.408 95.4502C235.408 95.195 235.472 95.0081 235.6 94.8896C235.732 94.7666 235.896 94.7051 236.092 94.7051ZM241.854 97.3848C242.748 97.3848 243.411 97.5853 243.844 97.9863C244.277 98.3874 244.493 99.0277 244.493 99.9072V105H243.666L243.447 103.893H243.393C243.183 104.166 242.964 104.396 242.736 104.583C242.508 104.765 242.244 104.904 241.943 105C241.647 105.091 241.283 105.137 240.85 105.137C240.394 105.137 239.988 105.057 239.633 104.897C239.282 104.738 239.004 104.496 238.799 104.173C238.598 103.849 238.498 103.439 238.498 102.942C238.498 102.195 238.794 101.621 239.387 101.22C239.979 100.819 240.882 100.6 242.094 100.563L243.386 100.509V100.051C243.386 99.4036 243.247 98.9502 242.969 98.6904C242.691 98.4307 242.299 98.3008 241.793 98.3008C241.401 98.3008 241.027 98.3577 240.672 98.4717C240.316 98.5856 239.979 98.7201 239.66 98.875L239.312 98.0137C239.649 97.8405 240.036 97.6924 240.474 97.5693C240.911 97.4463 241.371 97.3848 241.854 97.3848ZM243.372 101.309L242.23 101.356C241.296 101.393 240.638 101.546 240.255 101.814C239.872 102.083 239.681 102.464 239.681 102.956C239.681 103.384 239.811 103.701 240.07 103.906C240.33 104.111 240.674 104.214 241.103 104.214C241.768 104.214 242.312 104.029 242.736 103.66C243.16 103.291 243.372 102.737 243.372 101.999V101.309ZM250.235 97.3711C250.386 97.3711 250.543 97.3802 250.707 97.3984C250.871 97.4121 251.017 97.4326 251.145 97.46L251.001 98.5127C250.878 98.4808 250.741 98.4557 250.591 98.4375C250.44 98.4193 250.299 98.4102 250.167 98.4102C249.866 98.4102 249.581 98.4717 249.312 98.5947C249.048 98.7132 248.816 98.8864 248.615 99.1143C248.415 99.3376 248.257 99.6087 248.144 99.9277C248.03 100.242 247.973 100.593 247.973 100.98V105H246.831V97.5078H247.774L247.897 98.8887H247.945C248.1 98.6107 248.287 98.3577 248.506 98.1299C248.725 97.8975 248.978 97.7129 249.265 97.5762C249.556 97.4395 249.88 97.3711 250.235 97.3711ZM259.081 97.3711C259.719 97.3711 260.266 97.5124 260.722 97.7949C261.177 98.0775 261.526 98.474 261.768 98.9844C262.009 99.4902 262.13 100.083 262.13 100.762V101.466H256.955C256.969 102.345 257.188 103.015 257.611 103.476C258.035 103.936 258.632 104.166 259.402 104.166C259.876 104.166 260.296 104.123 260.66 104.036C261.025 103.95 261.403 103.822 261.795 103.653V104.651C261.417 104.82 261.041 104.943 260.667 105.021C260.298 105.098 259.86 105.137 259.354 105.137C258.634 105.137 258.006 104.991 257.468 104.699C256.935 104.403 256.52 103.97 256.224 103.4C255.927 102.831 255.779 102.133 255.779 101.309C255.779 100.502 255.914 99.8047 256.183 99.2168C256.456 98.6243 256.839 98.1686 257.331 97.8496C257.828 97.5306 258.411 97.3711 259.081 97.3711ZM259.067 98.3008C258.461 98.3008 257.978 98.499 257.618 98.8955C257.258 99.292 257.044 99.8457 256.976 100.557H260.94C260.936 100.11 260.865 99.7181 260.729 99.3809C260.596 99.0391 260.394 98.7747 260.12 98.5879C259.847 98.3965 259.496 98.3008 259.067 98.3008ZM265.199 105H264.058V94.3633H265.199V105ZM273.655 104.207C273.842 104.207 274.034 104.191 274.229 104.159C274.425 104.127 274.585 104.089 274.708 104.043V104.925C274.576 104.984 274.391 105.034 274.154 105.075C273.922 105.116 273.694 105.137 273.471 105.137C273.074 105.137 272.714 105.068 272.391 104.932C272.067 104.79 271.807 104.553 271.611 104.221C271.42 103.888 271.324 103.428 271.324 102.84V98.3965H270.258V97.8428L271.331 97.3984L271.782 95.7715H272.466V97.5078H274.66V98.3965H272.466V102.806C272.466 103.275 272.573 103.626 272.787 103.858C273.006 104.091 273.295 104.207 273.655 104.207ZM279.63 97.3711C279.78 97.3711 279.938 97.3802 280.102 97.3984C280.266 97.4121 280.411 97.4326 280.539 97.46L280.396 98.5127C280.272 98.4808 280.136 98.4557 279.985 98.4375C279.835 98.4193 279.694 98.4102 279.562 98.4102C279.261 98.4102 278.976 98.4717 278.707 98.5947C278.443 98.7132 278.21 98.8864 278.01 99.1143C277.809 99.3376 277.652 99.6087 277.538 99.9277C277.424 100.242 277.367 100.593 277.367 100.98V105H276.226V97.5078H277.169L277.292 98.8887H277.34C277.495 98.6107 277.682 98.3577 277.9 98.1299C278.119 97.8975 278.372 97.7129 278.659 97.5762C278.951 97.4395 279.274 97.3711 279.63 97.3711ZM284.757 97.3848C285.65 97.3848 286.313 97.5853 286.746 97.9863C287.179 98.3874 287.396 99.0277 287.396 99.9072V105H286.568L286.35 103.893H286.295C286.085 104.166 285.867 104.396 285.639 104.583C285.411 104.765 285.146 104.904 284.846 105C284.549 105.091 284.185 105.137 283.752 105.137C283.296 105.137 282.891 105.057 282.535 104.897C282.184 104.738 281.906 104.496 281.701 104.173C281.501 103.849 281.4 103.439 281.4 102.942C281.4 102.195 281.697 101.621 282.289 101.22C282.882 100.819 283.784 100.6 284.996 100.563L286.288 100.509V100.051C286.288 99.4036 286.149 98.9502 285.871 98.6904C285.593 98.4307 285.201 98.3008 284.695 98.3008C284.303 98.3008 283.93 98.3577 283.574 98.4717C283.219 98.5856 282.882 98.7201 282.562 98.875L282.214 98.0137C282.551 97.8405 282.938 97.6924 283.376 97.5693C283.813 97.4463 284.274 97.3848 284.757 97.3848ZM286.274 101.309L285.133 101.356C284.199 101.393 283.54 101.546 283.157 101.814C282.774 102.083 282.583 102.464 282.583 102.956C282.583 103.384 282.713 103.701 282.973 103.906C283.232 104.111 283.576 104.214 284.005 104.214C284.67 104.214 285.215 104.029 285.639 103.66C286.062 103.291 286.274 102.737 286.274 101.999V101.309ZM286.63 94.2744V94.4111C286.539 94.5433 286.413 94.7028 286.254 94.8896C286.099 95.0719 285.926 95.2656 285.734 95.4707C285.543 95.6712 285.349 95.8626 285.153 96.0449C284.962 96.2272 284.784 96.3844 284.62 96.5166H283.861V96.3525C284.007 96.1794 284.167 95.972 284.34 95.7305C284.513 95.4844 284.682 95.2337 284.846 94.9785C285.01 94.7188 285.146 94.484 285.256 94.2744H286.63ZM297.868 97.3711C298.693 97.3711 299.315 97.5876 299.734 98.0205C300.154 98.4489 300.363 99.1393 300.363 100.092V105H299.242V100.146C299.242 99.5404 299.11 99.0869 298.846 98.7861C298.586 98.4808 298.199 98.3281 297.684 98.3281C296.959 98.3281 296.433 98.5378 296.104 98.957C295.776 99.3763 295.612 99.9938 295.612 100.81V105H294.484V100.146C294.484 99.7409 294.425 99.4036 294.307 99.1348C294.193 98.8659 294.02 98.6654 293.787 98.5332C293.559 98.3965 293.27 98.3281 292.919 98.3281C292.422 98.3281 292.023 98.4307 291.723 98.6357C291.422 98.8408 291.203 99.1462 291.066 99.5518C290.934 99.9528 290.868 100.447 290.868 101.035V105H289.733V97.5078H290.649L290.82 98.5674H290.882C291.032 98.3076 291.221 98.0889 291.449 97.9111C291.677 97.7334 291.932 97.599 292.215 97.5078C292.497 97.4167 292.798 97.3711 293.117 97.3711C293.687 97.3711 294.163 97.4782 294.546 97.6924C294.933 97.902 295.214 98.2233 295.387 98.6562H295.448C295.694 98.2233 296.032 97.902 296.46 97.6924C296.888 97.4782 297.358 97.3711 297.868 97.3711ZM303.829 97.5078V105H302.694V97.5078H303.829ZM303.275 94.7051C303.462 94.7051 303.622 94.7666 303.754 94.8896C303.891 95.0081 303.959 95.195 303.959 95.4502C303.959 95.7008 303.891 95.8877 303.754 96.0107C303.622 96.1338 303.462 96.1953 303.275 96.1953C303.079 96.1953 302.915 96.1338 302.783 96.0107C302.656 95.8877 302.592 95.7008 302.592 95.4502C302.592 95.195 302.656 95.0081 302.783 94.8896C302.915 94.7666 303.079 94.7051 303.275 94.7051ZM308.655 104.207C308.842 104.207 309.034 104.191 309.229 104.159C309.425 104.127 309.585 104.089 309.708 104.043V104.925C309.576 104.984 309.391 105.034 309.154 105.075C308.922 105.116 308.694 105.137 308.471 105.137C308.074 105.137 307.714 105.068 307.391 104.932C307.067 104.79 306.807 104.553 306.611 104.221C306.42 103.888 306.324 103.428 306.324 102.84V98.3965H305.258V97.8428L306.331 97.3984L306.782 95.7715H307.466V97.5078H309.66V98.3965H307.466V102.806C307.466 103.275 307.573 103.626 307.787 103.858C308.006 104.091 308.295 104.207 308.655 104.207ZM314.11 97.3711C314.748 97.3711 315.295 97.5124 315.751 97.7949C316.207 98.0775 316.555 98.474 316.797 98.9844C317.038 99.4902 317.159 100.083 317.159 100.762V101.466H311.984C311.998 102.345 312.217 103.015 312.641 103.476C313.064 103.936 313.661 104.166 314.432 104.166C314.906 104.166 315.325 104.123 315.689 104.036C316.054 103.95 316.432 103.822 316.824 103.653V104.651C316.446 104.82 316.07 104.943 315.696 105.021C315.327 105.098 314.89 105.137 314.384 105.137C313.664 105.137 313.035 104.991 312.497 104.699C311.964 104.403 311.549 103.97 311.253 103.4C310.957 102.831 310.809 102.133 310.809 101.309C310.809 100.502 310.943 99.8047 311.212 99.2168C311.485 98.6243 311.868 98.1686 312.36 97.8496C312.857 97.5306 313.44 97.3711 314.11 97.3711ZM314.097 98.3008C313.491 98.3008 313.007 98.499 312.647 98.8955C312.287 99.292 312.073 99.8457 312.005 100.557H315.97C315.965 100.11 315.895 99.7181 315.758 99.3809C315.626 99.0391 315.423 98.7747 315.149 98.5879C314.876 98.3965 314.525 98.3008 314.097 98.3008ZM28.1973 125.137C27.5228 125.137 26.9281 124.998 26.4131 124.72C25.8981 124.442 25.4971 124.018 25.21 123.448C24.9229 122.879 24.7793 122.161 24.7793 121.295C24.7793 120.388 24.9297 119.647 25.2305 119.073C25.5358 118.494 25.9551 118.066 26.4883 117.788C27.0215 117.51 27.6276 117.371 28.3066 117.371C28.6803 117.371 29.0404 117.41 29.3867 117.487C29.7376 117.56 30.0247 117.654 30.248 117.768L29.9062 118.718C29.6784 118.627 29.4141 118.545 29.1133 118.472C28.8171 118.399 28.5391 118.362 28.2793 118.362C27.7598 118.362 27.3268 118.474 26.9805 118.697C26.6387 118.921 26.3812 119.249 26.208 119.682C26.0394 120.115 25.9551 120.648 25.9551 121.281C25.9551 121.887 26.0371 122.405 26.2012 122.833C26.3698 123.261 26.6182 123.59 26.9463 123.817C27.279 124.041 27.6937 124.152 28.1904 124.152C28.5869 124.152 28.9447 124.111 29.2637 124.029C29.5827 123.943 29.8721 123.842 30.1318 123.729V124.74C29.8812 124.868 29.6009 124.966 29.291 125.034C28.9857 125.103 28.6211 125.137 28.1973 125.137ZM38.3691 121.24C38.3691 121.855 38.2894 122.405 38.1299 122.888C37.9704 123.371 37.7402 123.779 37.4395 124.111C37.1387 124.444 36.7741 124.699 36.3457 124.877C35.9219 125.05 35.4411 125.137 34.9033 125.137C34.402 125.137 33.9417 125.05 33.5225 124.877C33.1077 124.699 32.7477 124.444 32.4424 124.111C32.1416 123.779 31.9069 123.371 31.7383 122.888C31.5742 122.405 31.4922 121.855 31.4922 121.24C31.4922 120.42 31.6312 119.723 31.9092 119.148C32.1872 118.57 32.5837 118.13 33.0986 117.829C33.6182 117.524 34.2357 117.371 34.9512 117.371C35.6348 117.371 36.2318 117.524 36.7422 117.829C37.2572 118.134 37.6559 118.576 37.9385 119.155C38.2256 119.729 38.3691 120.424 38.3691 121.24ZM32.668 121.24C32.668 121.842 32.7477 122.364 32.9072 122.806C33.0667 123.248 33.3128 123.59 33.6455 123.831C33.9782 124.073 34.4066 124.193 34.9307 124.193C35.4502 124.193 35.8763 124.073 36.209 123.831C36.5462 123.59 36.7946 123.248 36.9541 122.806C37.1136 122.364 37.1934 121.842 37.1934 121.24C37.1934 120.643 37.1136 120.128 36.9541 119.695C36.7946 119.258 36.5485 118.921 36.2158 118.684C35.8831 118.447 35.4525 118.328 34.9238 118.328C34.1445 118.328 33.5726 118.586 33.208 119.101C32.848 119.616 32.668 120.329 32.668 121.24ZM43.7354 117.371C43.8857 117.371 44.043 117.38 44.207 117.398C44.3711 117.412 44.5169 117.433 44.6445 117.46L44.501 118.513C44.3779 118.481 44.2412 118.456 44.0908 118.438C43.9404 118.419 43.7992 118.41 43.667 118.41C43.3662 118.41 43.0814 118.472 42.8125 118.595C42.5482 118.713 42.3158 118.886 42.1152 119.114C41.9147 119.338 41.7575 119.609 41.6436 119.928C41.5296 120.242 41.4727 120.593 41.4727 120.98V125H40.3311V117.508H41.2744L41.3975 118.889H41.4453C41.6003 118.611 41.7871 118.358 42.0059 118.13C42.2246 117.897 42.4775 117.713 42.7646 117.576C43.0563 117.439 43.3799 117.371 43.7354 117.371ZM49.4639 117.371C49.6143 117.371 49.7715 117.38 49.9355 117.398C50.0996 117.412 50.2454 117.433 50.373 117.46L50.2295 118.513C50.1064 118.481 49.9697 118.456 49.8193 118.438C49.6689 118.419 49.5277 118.41 49.3955 118.41C49.0947 118.41 48.8099 118.472 48.541 118.595C48.2767 118.713 48.0443 118.886 47.8438 119.114C47.6432 119.338 47.486 119.609 47.3721 119.928C47.2581 120.242 47.2012 120.593 47.2012 120.98V125H46.0596V117.508H47.0029L47.126 118.889H47.1738C47.3288 118.611 47.5156 118.358 47.7344 118.13C47.9531 117.897 48.2061 117.713 48.4932 117.576C48.7848 117.439 49.1084 117.371 49.4639 117.371ZM54.6729 117.371C55.3109 117.371 55.8577 117.512 56.3135 117.795C56.7692 118.077 57.1178 118.474 57.3594 118.984C57.6009 119.49 57.7217 120.083 57.7217 120.762V121.466H52.5469C52.5605 122.345 52.7793 123.015 53.2031 123.476C53.627 123.936 54.224 124.166 54.9941 124.166C55.4681 124.166 55.8874 124.123 56.252 124.036C56.6165 123.95 56.9948 123.822 57.3867 123.653V124.651C57.0085 124.82 56.6325 124.943 56.2588 125.021C55.8896 125.098 55.4521 125.137 54.9463 125.137C54.2262 125.137 53.5973 124.991 53.0596 124.699C52.5264 124.403 52.1117 123.97 51.8154 123.4C51.5192 122.831 51.3711 122.133 51.3711 121.309C51.3711 120.502 51.5055 119.805 51.7744 119.217C52.0479 118.624 52.4307 118.169 52.9229 117.85C53.4196 117.531 54.0029 117.371 54.6729 117.371ZM54.6592 118.301C54.0531 118.301 53.57 118.499 53.21 118.896C52.8499 119.292 52.6357 119.846 52.5674 120.557H56.5322C56.5277 120.11 56.457 119.718 56.3203 119.381C56.1882 119.039 55.9854 118.775 55.7119 118.588C55.4385 118.396 55.0876 118.301 54.6592 118.301ZM64.4961 122.949C64.4961 123.428 64.3753 123.831 64.1338 124.159C63.8968 124.483 63.555 124.727 63.1084 124.891C62.6663 125.055 62.1377 125.137 61.5225 125.137C60.9984 125.137 60.5449 125.096 60.1621 125.014C59.7793 124.932 59.4443 124.815 59.1572 124.665V123.619C59.4626 123.77 59.8271 123.906 60.251 124.029C60.6748 124.152 61.1077 124.214 61.5498 124.214C62.1969 124.214 62.6663 124.109 62.958 123.899C63.2497 123.69 63.3955 123.405 63.3955 123.045C63.3955 122.84 63.3363 122.66 63.2178 122.505C63.1038 122.345 62.9102 122.193 62.6367 122.047C62.3633 121.896 61.985 121.732 61.502 121.555C61.0234 121.372 60.6087 121.192 60.2578 121.015C59.9115 120.832 59.6426 120.611 59.4512 120.352C59.2643 120.092 59.1709 119.755 59.1709 119.34C59.1709 118.706 59.4261 118.221 59.9365 117.884C60.4515 117.542 61.126 117.371 61.96 117.371C62.4111 117.371 62.8327 117.417 63.2246 117.508C63.6211 117.594 63.9902 117.713 64.332 117.863L63.9492 118.772C63.6393 118.64 63.3089 118.529 62.958 118.438C62.6071 118.346 62.2493 118.301 61.8848 118.301C61.3607 118.301 60.9574 118.387 60.6748 118.561C60.3968 118.734 60.2578 118.971 60.2578 119.271C60.2578 119.504 60.3216 119.695 60.4492 119.846C60.5814 119.996 60.791 120.137 61.0781 120.27C61.3652 120.402 61.7435 120.557 62.2129 120.734C62.6823 120.908 63.0879 121.088 63.4297 121.274C63.7715 121.457 64.0335 121.68 64.2158 121.944C64.4027 122.204 64.4961 122.539 64.4961 122.949ZM69.8418 117.371C70.776 117.371 71.5212 117.692 72.0771 118.335C72.6331 118.978 72.9111 119.944 72.9111 121.233C72.9111 122.086 72.7835 122.801 72.5283 123.38C72.2731 123.959 71.9131 124.396 71.4482 124.692C70.988 124.989 70.4434 125.137 69.8145 125.137C69.418 125.137 69.0693 125.084 68.7686 124.979C68.4678 124.875 68.2103 124.733 67.9961 124.556C67.7819 124.378 67.6042 124.184 67.4629 123.975H67.3809C67.3945 124.152 67.4105 124.367 67.4287 124.617C67.4515 124.868 67.4629 125.087 67.4629 125.273V128.35H66.3213V117.508H67.2578L67.4082 118.615H67.4629C67.6087 118.387 67.7865 118.18 67.9961 117.993C68.2057 117.802 68.4609 117.651 68.7617 117.542C69.0671 117.428 69.4271 117.371 69.8418 117.371ZM69.6436 118.328C69.124 118.328 68.7048 118.428 68.3857 118.629C68.0713 118.829 67.8411 119.13 67.6953 119.531C67.5495 119.928 67.472 120.427 67.4629 121.028V121.247C67.4629 121.881 67.5312 122.416 67.668 122.854C67.8092 123.291 68.0394 123.624 68.3584 123.852C68.682 124.079 69.1149 124.193 69.6572 124.193C70.1221 124.193 70.5094 124.068 70.8193 123.817C71.1292 123.567 71.3594 123.218 71.5098 122.771C71.6647 122.32 71.7422 121.803 71.7422 121.22C71.7422 120.336 71.569 119.634 71.2227 119.114C70.8809 118.59 70.3545 118.328 69.6436 118.328ZM81.3535 121.24C81.3535 121.855 81.2738 122.405 81.1143 122.888C80.9548 123.371 80.7246 123.779 80.4238 124.111C80.123 124.444 79.7585 124.699 79.3301 124.877C78.9062 125.05 78.4255 125.137 77.8877 125.137C77.3864 125.137 76.9261 125.05 76.5068 124.877C76.0921 124.699 75.7321 124.444 75.4268 124.111C75.126 123.779 74.8913 123.371 74.7227 122.888C74.5586 122.405 74.4766 121.855 74.4766 121.24C74.4766 120.42 74.6156 119.723 74.8936 119.148C75.1715 118.57 75.568 118.13 76.083 117.829C76.6025 117.524 77.2201 117.371 77.9355 117.371C78.6191 117.371 79.2161 117.524 79.7266 117.829C80.2415 118.134 80.6403 118.576 80.9229 119.155C81.21 119.729 81.3535 120.424 81.3535 121.24ZM75.6523 121.24C75.6523 121.842 75.7321 122.364 75.8916 122.806C76.0511 123.248 76.2972 123.59 76.6299 123.831C76.9626 124.073 77.391 124.193 77.915 124.193C78.4346 124.193 78.8607 124.073 79.1934 123.831C79.5306 123.59 79.779 123.248 79.9385 122.806C80.098 122.364 80.1777 121.842 80.1777 121.24C80.1777 120.643 80.098 120.128 79.9385 119.695C79.779 119.258 79.5329 118.921 79.2002 118.684C78.8675 118.447 78.4368 118.328 77.9082 118.328C77.1289 118.328 76.557 118.586 76.1924 119.101C75.8324 119.616 75.6523 120.329 75.6523 121.24ZM86.8633 117.371C87.752 117.371 88.4242 117.59 88.8799 118.027C89.3356 118.46 89.5635 119.158 89.5635 120.119V125H88.4424V120.194C88.4424 119.57 88.2988 119.103 88.0117 118.793C87.7292 118.483 87.2939 118.328 86.7061 118.328C85.8766 118.328 85.2933 118.563 84.9561 119.032C84.6188 119.502 84.4502 120.183 84.4502 121.076V125H83.3154V117.508H84.2314L84.4023 118.588H84.4639C84.6234 118.324 84.8262 118.103 85.0723 117.925C85.3184 117.743 85.5941 117.606 85.8994 117.515C86.2048 117.419 86.526 117.371 86.8633 117.371ZM94.5674 125.137C93.6195 125.137 92.8675 124.813 92.3115 124.166C91.7601 123.519 91.4844 122.557 91.4844 121.281C91.4844 119.992 91.7669 119.019 92.332 118.362C92.8971 117.701 93.6491 117.371 94.5879 117.371C94.9844 117.371 95.3307 117.424 95.627 117.528C95.9232 117.633 96.1784 117.774 96.3926 117.952C96.6068 118.125 96.7868 118.324 96.9326 118.547H97.0146C96.9964 118.406 96.9782 118.212 96.96 117.966C96.9417 117.72 96.9326 117.519 96.9326 117.364V114.363H98.0674V125H97.1514L96.9805 123.934H96.9326C96.7913 124.157 96.6113 124.36 96.3926 124.542C96.1784 124.724 95.9209 124.87 95.6201 124.979C95.3239 125.084 94.973 125.137 94.5674 125.137ZM94.7451 124.193C95.5472 124.193 96.1146 123.965 96.4473 123.51C96.7799 123.054 96.9463 122.377 96.9463 121.479V121.274C96.9463 120.322 96.7868 119.59 96.4678 119.08C96.1533 118.57 95.5791 118.314 94.7451 118.314C94.0479 118.314 93.526 118.583 93.1797 119.121C92.8333 119.654 92.6602 120.383 92.6602 121.309C92.6602 122.229 92.8311 122.94 93.1729 123.441C93.5192 123.943 94.0433 124.193 94.7451 124.193ZM101.608 117.508V125H100.474V117.508H101.608ZM101.055 114.705C101.242 114.705 101.401 114.767 101.533 114.89C101.67 115.008 101.738 115.195 101.738 115.45C101.738 115.701 101.67 115.888 101.533 116.011C101.401 116.134 101.242 116.195 101.055 116.195C100.859 116.195 100.695 116.134 100.562 116.011C100.435 115.888 100.371 115.701 100.371 115.45C100.371 115.195 100.435 115.008 100.562 114.89C100.695 114.767 100.859 114.705 101.055 114.705ZM106.899 117.371C107.537 117.371 108.084 117.512 108.54 117.795C108.996 118.077 109.344 118.474 109.586 118.984C109.827 119.49 109.948 120.083 109.948 120.762V121.466H104.773C104.787 122.345 105.006 123.015 105.43 123.476C105.854 123.936 106.451 124.166 107.221 124.166C107.695 124.166 108.114 124.123 108.479 124.036C108.843 123.95 109.221 123.822 109.613 123.653V124.651C109.235 124.82 108.859 124.943 108.485 125.021C108.116 125.098 107.679 125.137 107.173 125.137C106.453 125.137 105.824 124.991 105.286 124.699C104.753 124.403 104.338 123.97 104.042 123.4C103.746 122.831 103.598 122.133 103.598 121.309C103.598 120.502 103.732 119.805 104.001 119.217C104.274 118.624 104.657 118.169 105.149 117.85C105.646 117.531 106.229 117.371 106.899 117.371ZM106.886 118.301C106.28 118.301 105.797 118.499 105.437 118.896C105.076 119.292 104.862 119.846 104.794 120.557H108.759C108.754 120.11 108.684 119.718 108.547 119.381C108.415 119.039 108.212 118.775 107.938 118.588C107.665 118.396 107.314 118.301 106.886 118.301ZM115.424 117.371C116.312 117.371 116.985 117.59 117.44 118.027C117.896 118.46 118.124 119.158 118.124 120.119V125H117.003V120.194C117.003 119.57 116.859 119.103 116.572 118.793C116.29 118.483 115.854 118.328 115.267 118.328C114.437 118.328 113.854 118.563 113.517 119.032C113.179 119.502 113.011 120.183 113.011 121.076V125H111.876V117.508H112.792L112.963 118.588H113.024C113.184 118.324 113.387 118.103 113.633 117.925C113.879 117.743 114.155 117.606 114.46 117.515C114.765 117.419 115.087 117.371 115.424 117.371ZM122.882 124.207C123.069 124.207 123.26 124.191 123.456 124.159C123.652 124.127 123.812 124.089 123.935 124.043V124.925C123.802 124.984 123.618 125.034 123.381 125.075C123.148 125.116 122.921 125.137 122.697 125.137C122.301 125.137 121.941 125.068 121.617 124.932C121.294 124.79 121.034 124.553 120.838 124.221C120.646 123.888 120.551 123.428 120.551 122.84V118.396H119.484V117.843L120.558 117.398L121.009 115.771H121.692V117.508H123.887V118.396H121.692V122.806C121.692 123.275 121.799 123.626 122.014 123.858C122.232 124.091 122.522 124.207 122.882 124.207ZM128.337 117.371C128.975 117.371 129.522 117.512 129.978 117.795C130.433 118.077 130.782 118.474 131.023 118.984C131.265 119.49 131.386 120.083 131.386 120.762V121.466H126.211C126.225 122.345 126.443 123.015 126.867 123.476C127.291 123.936 127.888 124.166 128.658 124.166C129.132 124.166 129.551 124.123 129.916 124.036C130.281 123.95 130.659 123.822 131.051 123.653V124.651C130.673 124.82 130.297 124.943 129.923 125.021C129.554 125.098 129.116 125.137 128.61 125.137C127.89 125.137 127.261 124.991 126.724 124.699C126.19 124.403 125.776 123.97 125.479 123.4C125.183 122.831 125.035 122.133 125.035 121.309C125.035 120.502 125.17 119.805 125.438 119.217C125.712 118.624 126.095 118.169 126.587 117.85C127.084 117.531 127.667 117.371 128.337 117.371ZM128.323 118.301C127.717 118.301 127.234 118.499 126.874 118.896C126.514 119.292 126.3 119.846 126.231 120.557H130.196C130.192 120.11 130.121 119.718 129.984 119.381C129.852 119.039 129.649 118.775 129.376 118.588C129.103 118.396 128.752 118.301 128.323 118.301ZM133.143 124.289C133.143 123.97 133.22 123.744 133.375 123.612C133.53 123.476 133.719 123.407 133.942 123.407C134.175 123.407 134.371 123.476 134.53 123.612C134.69 123.744 134.77 123.97 134.77 124.289C134.77 124.604 134.69 124.834 134.53 124.979C134.371 125.121 134.175 125.191 133.942 125.191C133.719 125.191 133.53 125.121 133.375 124.979C133.22 124.834 133.143 124.604 133.143 124.289Z" fill="#101E37"/>
</svg>
