<svg width="443" height="160" viewBox="0 0 443 160" fill="none" xmlns="http://www.w3.org/2000/svg">
<rect x="1" y="1" width="441" height="158" rx="7" fill="#F3F6F9"/>
<rect x="1" y="1" width="441" height="158" rx="7" stroke="#E6EBF0" stroke-width="2"/>
<path d="M144.912 58.126C144.612 58.126 144.378 58.042 144.21 57.874C144.054 57.706 143.976 57.472 143.976 57.172V46.138C143.976 45.826 144.054 45.592 144.21 45.436C144.378 45.268 144.612 45.184 144.912 45.184C145.212 45.184 145.44 45.268 145.596 45.436C145.764 45.592 145.848 45.826 145.848 46.138V50.782H152.958V46.138C152.958 45.826 153.036 45.592 153.192 45.436C153.36 45.268 153.594 45.184 153.894 45.184C154.194 45.184 154.422 45.268 154.578 45.436C154.734 45.592 154.812 45.826 154.812 46.138V57.172C154.812 57.472 154.734 57.706 154.578 57.874C154.422 58.042 154.194 58.126 153.894 58.126C153.594 58.126 153.36 58.042 153.192 57.874C153.036 57.706 152.958 57.472 152.958 57.172V52.348H145.848V57.172C145.848 57.472 145.77 57.706 145.614 57.874C145.458 58.042 145.224 58.126 144.912 58.126ZM161.393 58.162C160.505 58.162 159.737 57.976 159.089 57.604C158.453 57.232 157.955 56.704 157.595 56.02C157.235 55.336 157.055 54.532 157.055 53.608C157.055 52.9 157.157 52.27 157.361 51.718C157.565 51.166 157.853 50.692 158.225 50.296C158.609 49.888 159.065 49.582 159.593 49.378C160.133 49.162 160.733 49.054 161.393 49.054C162.269 49.054 163.025 49.24 163.661 49.612C164.309 49.984 164.813 50.512 165.173 51.196C165.533 51.868 165.713 52.672 165.713 53.608C165.713 54.304 165.611 54.934 165.407 55.498C165.203 56.062 164.909 56.542 164.525 56.938C164.153 57.334 163.697 57.64 163.157 57.856C162.629 58.06 162.041 58.162 161.393 58.162ZM161.393 56.758C161.885 56.758 162.317 56.638 162.689 56.398C163.061 56.158 163.349 55.804 163.553 55.336C163.769 54.868 163.877 54.292 163.877 53.608C163.877 52.576 163.649 51.796 163.193 51.268C162.737 50.74 162.137 50.476 161.393 50.476C160.889 50.476 160.451 50.596 160.079 50.836C159.707 51.064 159.413 51.412 159.197 51.88C158.993 52.348 158.891 52.924 158.891 53.608C158.891 54.628 159.119 55.408 159.575 55.948C160.031 56.488 160.637 56.758 161.393 56.758ZM168.673 58.126C168.373 58.126 168.145 58.048 167.989 57.892C167.833 57.724 167.755 57.496 167.755 57.208V50.008C167.755 49.708 167.833 49.48 167.989 49.324C168.145 49.168 168.361 49.09 168.637 49.09C168.925 49.09 169.141 49.168 169.285 49.324C169.441 49.48 169.519 49.708 169.519 50.008V51.322H169.339C169.531 50.602 169.885 50.056 170.401 49.684C170.917 49.312 171.577 49.096 172.381 49.036C172.597 49.024 172.765 49.078 172.885 49.198C173.017 49.318 173.089 49.504 173.101 49.756C173.125 50.008 173.071 50.212 172.939 50.368C172.807 50.512 172.603 50.596 172.327 50.62L171.985 50.656C171.205 50.728 170.611 50.974 170.203 51.394C169.795 51.814 169.591 52.39 169.591 53.122V57.208C169.591 57.496 169.513 57.724 169.357 57.892C169.213 58.048 168.985 58.126 168.673 58.126ZM177.19 58.162C176.578 58.162 176.026 58.042 175.534 57.802C175.054 57.562 174.676 57.238 174.4 56.83C174.124 56.422 173.986 55.96 173.986 55.444C173.986 54.796 174.148 54.286 174.472 53.914C174.808 53.53 175.354 53.26 176.11 53.104C176.878 52.936 177.91 52.852 179.206 52.852H180.052V53.968H179.224C178.36 53.968 177.676 54.01 177.172 54.094C176.668 54.178 176.308 54.322 176.092 54.526C175.888 54.718 175.786 54.988 175.786 55.336C175.786 55.792 175.942 56.164 176.254 56.452C176.566 56.728 176.998 56.866 177.55 56.866C177.994 56.866 178.384 56.764 178.72 56.56C179.056 56.344 179.32 56.056 179.512 55.696C179.716 55.336 179.818 54.922 179.818 54.454V52.384C179.818 51.7 179.674 51.208 179.386 50.908C179.098 50.608 178.624 50.458 177.964 50.458C177.58 50.458 177.178 50.506 176.758 50.602C176.35 50.698 175.924 50.86 175.48 51.088C175.276 51.184 175.102 51.214 174.958 51.178C174.814 51.142 174.7 51.064 174.616 50.944C174.532 50.812 174.484 50.674 174.472 50.53C174.472 50.374 174.508 50.224 174.58 50.08C174.664 49.936 174.802 49.828 174.994 49.756C175.522 49.504 176.044 49.324 176.56 49.216C177.076 49.108 177.562 49.054 178.018 49.054C178.822 49.054 179.482 49.18 179.998 49.432C180.526 49.684 180.916 50.068 181.168 50.584C181.42 51.1 181.546 51.766 181.546 52.582V57.208C181.546 57.496 181.474 57.724 181.33 57.892C181.186 58.048 180.976 58.126 180.7 58.126C180.436 58.126 180.226 58.048 180.07 57.892C179.914 57.724 179.836 57.496 179.836 57.208V56.038H179.998C179.902 56.482 179.722 56.866 179.458 57.19C179.206 57.502 178.888 57.742 178.504 57.91C178.12 58.078 177.682 58.162 177.19 58.162Z" fill="#101E37"/>
<rect x="143.5" y="73" width="156" height="46" rx="7" fill="white"/>
<rect x="143.5" y="73" width="156" height="46" rx="7" stroke="#101E37" stroke-width="2"/>
<path d="M166.836 96.2734C166.836 97.2005 166.766 98.0286 166.625 98.7578C166.484 99.487 166.263 100.104 165.961 100.609C165.659 101.115 165.268 101.5 164.789 101.766C164.31 102.026 163.734 102.156 163.062 102.156C162.214 102.156 161.51 101.924 160.953 101.461C160.401 100.997 159.987 100.328 159.711 99.4531C159.44 98.5729 159.305 97.513 159.305 96.2734C159.305 95.0547 159.427 94.0078 159.672 93.1328C159.922 92.2526 160.323 91.5781 160.875 91.1094C161.427 90.6354 162.156 90.3984 163.062 90.3984C163.922 90.3984 164.63 90.6328 165.188 91.1016C165.745 91.5651 166.159 92.237 166.43 93.1172C166.701 93.9922 166.836 95.0443 166.836 96.2734ZM160.609 96.2734C160.609 97.3359 160.69 98.2214 160.852 98.9297C161.013 99.638 161.273 100.169 161.633 100.523C161.997 100.872 162.474 101.047 163.062 101.047C163.651 101.047 164.125 100.872 164.484 100.523C164.849 100.174 165.112 99.6458 165.273 98.9375C165.44 98.2292 165.523 97.3411 165.523 96.2734C165.523 95.2266 165.443 94.3516 165.281 93.6484C165.12 92.9401 164.859 92.4089 164.5 92.0547C164.141 91.6953 163.661 91.5156 163.062 91.5156C162.464 91.5156 161.984 91.6953 161.625 92.0547C161.266 92.4089 161.005 92.9401 160.844 93.6484C160.688 94.3516 160.609 95.2266 160.609 96.2734ZM175.992 96.2734C175.992 97.2005 175.922 98.0286 175.781 98.7578C175.641 99.487 175.419 100.104 175.117 100.609C174.815 101.115 174.424 101.5 173.945 101.766C173.466 102.026 172.891 102.156 172.219 102.156C171.37 102.156 170.667 101.924 170.109 101.461C169.557 100.997 169.143 100.328 168.867 99.4531C168.596 98.5729 168.461 97.513 168.461 96.2734C168.461 95.0547 168.583 94.0078 168.828 93.1328C169.078 92.2526 169.479 91.5781 170.031 91.1094C170.583 90.6354 171.312 90.3984 172.219 90.3984C173.078 90.3984 173.786 90.6328 174.344 91.1016C174.901 91.5651 175.315 92.237 175.586 93.1172C175.857 93.9922 175.992 95.0443 175.992 96.2734ZM169.766 96.2734C169.766 97.3359 169.846 98.2214 170.008 98.9297C170.169 99.638 170.43 100.169 170.789 100.523C171.154 100.872 171.63 101.047 172.219 101.047C172.807 101.047 173.281 100.872 173.641 100.523C174.005 100.174 174.268 99.6458 174.43 98.9375C174.596 98.2292 174.68 97.3411 174.68 96.2734C174.68 95.2266 174.599 94.3516 174.438 93.6484C174.276 92.9401 174.016 92.4089 173.656 92.0547C173.297 91.6953 172.818 91.5156 172.219 91.5156C171.62 91.5156 171.141 91.6953 170.781 92.0547C170.422 92.4089 170.161 92.9401 170 93.6484C169.844 94.3516 169.766 95.2266 169.766 96.2734ZM177.984 101.188C177.984 100.823 178.073 100.565 178.25 100.414C178.427 100.258 178.643 100.18 178.898 100.18C179.164 100.18 179.388 100.258 179.57 100.414C179.753 100.565 179.844 100.823 179.844 101.188C179.844 101.547 179.753 101.81 179.57 101.977C179.388 102.138 179.164 102.219 178.898 102.219C178.643 102.219 178.427 102.138 178.25 101.977C178.073 101.81 177.984 101.547 177.984 101.188ZM177.984 94.2578C177.984 93.8828 178.073 93.6198 178.25 93.4688C178.427 93.3125 178.643 93.2344 178.898 93.2344C179.164 93.2344 179.388 93.3125 179.57 93.4688C179.753 93.6198 179.844 93.8828 179.844 94.2578C179.844 94.612 179.753 94.8698 179.57 95.0312C179.388 95.1927 179.164 95.2734 178.898 95.2734C178.643 95.2734 178.427 95.1927 178.25 95.0312C178.073 94.8698 177.984 94.612 177.984 94.2578ZM189.352 96.2734C189.352 97.2005 189.281 98.0286 189.141 98.7578C189 99.487 188.779 100.104 188.477 100.609C188.174 101.115 187.784 101.5 187.305 101.766C186.826 102.026 186.25 102.156 185.578 102.156C184.729 102.156 184.026 101.924 183.469 101.461C182.917 100.997 182.503 100.328 182.227 99.4531C181.956 98.5729 181.82 97.513 181.82 96.2734C181.82 95.0547 181.943 94.0078 182.188 93.1328C182.438 92.2526 182.839 91.5781 183.391 91.1094C183.943 90.6354 184.672 90.3984 185.578 90.3984C186.438 90.3984 187.146 90.6328 187.703 91.1016C188.26 91.5651 188.674 92.237 188.945 93.1172C189.216 93.9922 189.352 95.0443 189.352 96.2734ZM183.125 96.2734C183.125 97.3359 183.206 98.2214 183.367 98.9297C183.529 99.638 183.789 100.169 184.148 100.523C184.513 100.872 184.99 101.047 185.578 101.047C186.167 101.047 186.641 100.872 187 100.523C187.365 100.174 187.628 99.6458 187.789 98.9375C187.956 98.2292 188.039 97.3411 188.039 96.2734C188.039 95.2266 187.958 94.3516 187.797 93.6484C187.635 92.9401 187.375 92.4089 187.016 92.0547C186.656 91.6953 186.177 91.5156 185.578 91.5156C184.979 91.5156 184.5 91.6953 184.141 92.0547C183.781 92.4089 183.521 92.9401 183.359 93.6484C183.203 94.3516 183.125 95.2266 183.125 96.2734ZM198.508 96.2734C198.508 97.2005 198.438 98.0286 198.297 98.7578C198.156 99.487 197.935 100.104 197.633 100.609C197.331 101.115 196.94 101.5 196.461 101.766C195.982 102.026 195.406 102.156 194.734 102.156C193.885 102.156 193.182 101.924 192.625 101.461C192.073 100.997 191.659 100.328 191.383 99.4531C191.112 98.5729 190.977 97.513 190.977 96.2734C190.977 95.0547 191.099 94.0078 191.344 93.1328C191.594 92.2526 191.995 91.5781 192.547 91.1094C193.099 90.6354 193.828 90.3984 194.734 90.3984C195.594 90.3984 196.302 90.6328 196.859 91.1016C197.417 91.5651 197.831 92.237 198.102 93.1172C198.372 93.9922 198.508 95.0443 198.508 96.2734ZM192.281 96.2734C192.281 97.3359 192.362 98.2214 192.523 98.9297C192.685 99.638 192.945 100.169 193.305 100.523C193.669 100.872 194.146 101.047 194.734 101.047C195.323 101.047 195.797 100.872 196.156 100.523C196.521 100.174 196.784 99.6458 196.945 98.9375C197.112 98.2292 197.195 97.3411 197.195 96.2734C197.195 95.2266 197.115 94.3516 196.953 93.6484C196.792 92.9401 196.531 92.4089 196.172 92.0547C195.812 91.6953 195.333 91.5156 194.734 91.5156C194.135 91.5156 193.656 91.6953 193.297 92.0547C192.938 92.4089 192.677 92.9401 192.516 93.6484C192.359 94.3516 192.281 95.2266 192.281 96.2734Z" fill="#5C6A7A"/>
</svg>
