<svg width="443" height="184" viewBox="0 0 443 184" fill="none" xmlns="http://www.w3.org/2000/svg">
<rect x="1" y="1" width="441" height="182" rx="7" fill="#F3F6F9"/>
<rect x="1" y="1" width="441" height="182" rx="7" stroke="#E6EBF0" stroke-width="2"/>
<path d="M39.164 58.162C37.88 58.162 36.782 57.898 35.87 57.37C34.958 56.842 34.256 56.092 33.764 55.12C33.284 54.136 33.044 52.978 33.044 51.646C33.044 50.65 33.182 49.756 33.458 48.964C33.734 48.16 34.13 47.476 34.646 46.912C35.174 46.336 35.816 45.898 36.572 45.598C37.34 45.298 38.204 45.148 39.164 45.148C39.872 45.148 40.55 45.244 41.198 45.436C41.858 45.628 42.428 45.904 42.908 46.264C43.112 46.396 43.244 46.558 43.304 46.75C43.376 46.93 43.388 47.104 43.34 47.272C43.304 47.44 43.226 47.584 43.106 47.704C42.986 47.812 42.83 47.872 42.638 47.884C42.458 47.896 42.26 47.83 42.044 47.686C41.648 47.386 41.21 47.164 40.73 47.02C40.25 46.876 39.746 46.804 39.218 46.804C38.306 46.804 37.538 46.996 36.914 47.38C36.29 47.752 35.816 48.298 35.492 49.018C35.168 49.738 35.006 50.614 35.006 51.646C35.006 52.678 35.168 53.56 35.492 54.292C35.816 55.012 36.29 55.564 36.914 55.948C37.538 56.32 38.306 56.506 39.218 56.506C39.746 56.506 40.25 56.434 40.73 56.29C41.222 56.134 41.684 55.906 42.116 55.606C42.332 55.474 42.524 55.414 42.692 55.426C42.872 55.438 43.022 55.498 43.142 55.606C43.262 55.714 43.34 55.852 43.376 56.02C43.424 56.176 43.418 56.344 43.358 56.524C43.31 56.692 43.196 56.836 43.016 56.956C42.524 57.352 41.942 57.652 41.27 57.856C40.598 58.06 39.896 58.162 39.164 58.162ZM48.6253 58.162C47.7373 58.162 46.9693 57.976 46.3213 57.604C45.6853 57.232 45.1873 56.704 44.8273 56.02C44.4673 55.336 44.2873 54.532 44.2873 53.608C44.2873 52.9 44.3893 52.27 44.5933 51.718C44.7973 51.166 45.0853 50.692 45.4573 50.296C45.8413 49.888 46.2973 49.582 46.8253 49.378C47.3653 49.162 47.9653 49.054 48.6253 49.054C49.5013 49.054 50.2573 49.24 50.8933 49.612C51.5413 49.984 52.0453 50.512 52.4053 51.196C52.7653 51.868 52.9453 52.672 52.9453 53.608C52.9453 54.304 52.8433 54.934 52.6393 55.498C52.4353 56.062 52.1413 56.542 51.7573 56.938C51.3853 57.334 50.9293 57.64 50.3893 57.856C49.8613 58.06 49.2733 58.162 48.6253 58.162ZM48.6253 56.758C49.1173 56.758 49.5493 56.638 49.9213 56.398C50.2933 56.158 50.5813 55.804 50.7853 55.336C51.0013 54.868 51.1093 54.292 51.1093 53.608C51.1093 52.576 50.8813 51.796 50.4253 51.268C49.9693 50.74 49.3693 50.476 48.6253 50.476C48.1213 50.476 47.6833 50.596 47.3113 50.836C46.9393 51.064 46.6453 51.412 46.4293 51.88C46.2253 52.348 46.1233 52.924 46.1233 53.608C46.1233 54.628 46.3513 55.408 46.8073 55.948C47.2633 56.488 47.8693 56.758 48.6253 56.758ZM55.887 58.126C55.599 58.126 55.377 58.048 55.221 57.892C55.065 57.724 54.987 57.496 54.987 57.208V50.008C54.987 49.708 55.065 49.48 55.221 49.324C55.377 49.168 55.593 49.09 55.869 49.09C56.157 49.09 56.373 49.168 56.517 49.324C56.673 49.48 56.751 49.708 56.751 50.008V51.412L56.553 51.088C56.817 50.416 57.231 49.912 57.795 49.576C58.359 49.228 59.007 49.054 59.739 49.054C60.435 49.054 61.011 49.186 61.467 49.45C61.935 49.702 62.283 50.092 62.511 50.62C62.739 51.136 62.853 51.79 62.853 52.582V57.208C62.853 57.496 62.775 57.724 62.619 57.892C62.463 58.048 62.241 58.126 61.953 58.126C61.653 58.126 61.425 58.048 61.269 57.892C61.113 57.724 61.035 57.496 61.035 57.208V52.69C61.035 51.934 60.885 51.382 60.585 51.034C60.297 50.686 59.841 50.512 59.217 50.512C58.485 50.512 57.897 50.74 57.453 51.196C57.021 51.652 56.805 52.264 56.805 53.032V57.208C56.805 57.82 56.499 58.126 55.887 58.126ZM69.1021 58.162C68.3821 58.162 67.7761 58.036 67.2841 57.784C66.7921 57.532 66.4261 57.16 66.1861 56.668C65.9461 56.176 65.8261 55.576 65.8261 54.868V50.62H64.7461C64.5061 50.62 64.3201 50.56 64.1881 50.44C64.0561 50.308 63.9901 50.134 63.9901 49.918C63.9901 49.69 64.0561 49.516 64.1881 49.396C64.3201 49.276 64.5061 49.216 64.7461 49.216H65.8261V47.362C65.8261 47.062 65.9041 46.834 66.0601 46.678C66.2281 46.522 66.4561 46.444 66.7441 46.444C67.0321 46.444 67.2541 46.522 67.4101 46.678C67.5661 46.834 67.6441 47.062 67.6441 47.362V49.216H69.7501C69.9901 49.216 70.1761 49.276 70.3081 49.396C70.4401 49.516 70.5061 49.69 70.5061 49.918C70.5061 50.134 70.4401 50.308 70.3081 50.44C70.1761 50.56 69.9901 50.62 69.7501 50.62H67.6441V54.724C67.6441 55.36 67.7761 55.84 68.0401 56.164C68.3161 56.488 68.7601 56.65 69.3721 56.65C69.5881 56.65 69.7741 56.632 69.9301 56.596C70.0981 56.548 70.2361 56.518 70.3441 56.506C70.4761 56.506 70.5841 56.554 70.6681 56.65C70.7521 56.734 70.7941 56.902 70.7941 57.154C70.7941 57.334 70.7581 57.502 70.6861 57.658C70.6261 57.814 70.5121 57.916 70.3441 57.964C70.2001 58.012 70.0021 58.054 69.7501 58.09C69.5101 58.138 69.2941 58.162 69.1021 58.162ZM72.8503 58.126C72.5503 58.126 72.3223 58.048 72.1663 57.892C72.0103 57.724 71.9323 57.496 71.9323 57.208V50.008C71.9323 49.708 72.0103 49.48 72.1663 49.324C72.3223 49.168 72.5383 49.09 72.8143 49.09C73.1023 49.09 73.3183 49.168 73.4623 49.324C73.6183 49.48 73.6963 49.708 73.6963 50.008V51.322H73.5163C73.7083 50.602 74.0623 50.056 74.5783 49.684C75.0943 49.312 75.7543 49.096 76.5583 49.036C76.7743 49.024 76.9423 49.078 77.0623 49.198C77.1943 49.318 77.2663 49.504 77.2783 49.756C77.3023 50.008 77.2483 50.212 77.1163 50.368C76.9843 50.512 76.7803 50.596 76.5043 50.62L76.1623 50.656C75.3823 50.728 74.7883 50.974 74.3803 51.394C73.9723 51.814 73.7683 52.39 73.7683 53.122V57.208C73.7683 57.496 73.6903 57.724 73.5343 57.892C73.3903 58.048 73.1623 58.126 72.8503 58.126ZM81.3673 58.162C80.7553 58.162 80.2033 58.042 79.7113 57.802C79.2313 57.562 78.8533 57.238 78.5773 56.83C78.3013 56.422 78.1633 55.96 78.1633 55.444C78.1633 54.796 78.3253 54.286 78.6493 53.914C78.9853 53.53 79.5313 53.26 80.2873 53.104C81.0553 52.936 82.0873 52.852 83.3833 52.852H84.2293V53.968H83.4013C82.5373 53.968 81.8533 54.01 81.3493 54.094C80.8453 54.178 80.4853 54.322 80.2693 54.526C80.0653 54.718 79.9633 54.988 79.9633 55.336C79.9633 55.792 80.1193 56.164 80.4313 56.452C80.7433 56.728 81.1753 56.866 81.7273 56.866C82.1713 56.866 82.5613 56.764 82.8973 56.56C83.2333 56.344 83.4973 56.056 83.6893 55.696C83.8933 55.336 83.9953 54.922 83.9953 54.454V52.384C83.9953 51.7 83.8513 51.208 83.5633 50.908C83.2753 50.608 82.8013 50.458 82.1413 50.458C81.7573 50.458 81.3553 50.506 80.9353 50.602C80.5273 50.698 80.1013 50.86 79.6572 51.088C79.4533 51.184 79.2793 51.214 79.1353 51.178C78.9913 51.142 78.8773 51.064 78.7933 50.944C78.7093 50.812 78.6613 50.674 78.6493 50.53C78.6493 50.374 78.6853 50.224 78.7573 50.08C78.8413 49.936 78.9793 49.828 79.1713 49.756C79.6993 49.504 80.2213 49.324 80.7373 49.216C81.2533 49.108 81.7393 49.054 82.1953 49.054C82.9993 49.054 83.6593 49.18 84.1753 49.432C84.7033 49.684 85.0933 50.068 85.3453 50.584C85.5973 51.1 85.7233 51.766 85.7233 52.582V57.208C85.7233 57.496 85.6513 57.724 85.5073 57.892C85.3633 58.048 85.1533 58.126 84.8773 58.126C84.6133 58.126 84.4033 58.048 84.2473 57.892C84.0913 57.724 84.0133 57.496 84.0133 57.208V56.038H84.1753C84.0793 56.482 83.8993 56.866 83.6353 57.19C83.3833 57.502 83.0653 57.742 82.6813 57.91C82.2973 58.078 81.8593 58.162 81.3673 58.162ZM91.3052 58.162C90.7772 58.162 90.2312 58.102 89.6672 57.982C89.1152 57.862 88.6052 57.658 88.1372 57.37C87.9812 57.262 87.8732 57.142 87.8132 57.01C87.7532 56.878 87.7292 56.746 87.7412 56.614C87.7652 56.47 87.8192 56.35 87.9032 56.254C87.9992 56.146 88.1132 56.08 88.2452 56.056C88.3892 56.032 88.5392 56.062 88.6952 56.146C89.1632 56.41 89.6132 56.596 90.0452 56.704C90.4772 56.8 90.9032 56.848 91.3232 56.848C91.9592 56.848 92.4392 56.734 92.7632 56.506C93.0872 56.278 93.2492 55.972 93.2492 55.588C93.2492 55.276 93.1412 55.036 92.9252 54.868C92.7092 54.688 92.3852 54.55 91.9532 54.454L90.2432 54.112C89.4992 53.956 88.9352 53.68 88.5512 53.284C88.1672 52.888 87.9752 52.384 87.9752 51.772C87.9752 51.22 88.1252 50.74 88.4252 50.332C88.7252 49.924 89.1452 49.612 89.6852 49.396C90.2252 49.168 90.8492 49.054 91.5572 49.054C92.0852 49.054 92.5832 49.12 93.0512 49.252C93.5192 49.384 93.9512 49.582 94.3472 49.846C94.5032 49.93 94.6052 50.044 94.6532 50.188C94.7012 50.32 94.7072 50.452 94.6712 50.584C94.6472 50.716 94.5872 50.836 94.4912 50.944C94.3952 51.04 94.2752 51.1 94.1312 51.124C93.9992 51.136 93.8492 51.1 93.6812 51.016C93.3212 50.788 92.9612 50.626 92.6012 50.53C92.2532 50.434 91.9052 50.386 91.5572 50.386C90.9212 50.386 90.4412 50.506 90.1172 50.746C89.8052 50.974 89.6492 51.286 89.6492 51.682C89.6492 51.982 89.7452 52.228 89.9372 52.42C90.1292 52.612 90.4292 52.75 90.8372 52.834L92.5472 53.176C93.3272 53.332 93.9152 53.596 94.3112 53.968C94.7192 54.34 94.9232 54.844 94.9232 55.48C94.9232 56.308 94.5932 56.962 93.9332 57.442C93.2732 57.922 92.3972 58.162 91.3052 58.162ZM101.068 58.162C100.108 58.162 99.28 57.982 98.584 57.622C97.9 57.25 97.366 56.728 96.982 56.056C96.61 55.372 96.424 54.562 96.424 53.626C96.424 52.714 96.61 51.916 96.982 51.232C97.354 50.548 97.864 50.014 98.512 49.63C99.16 49.246 99.898 49.054 100.726 49.054C101.338 49.054 101.884 49.156 102.364 49.36C102.844 49.552 103.252 49.84 103.588 50.224C103.936 50.596 104.194 51.052 104.362 51.592C104.542 52.132 104.632 52.738 104.632 53.41C104.632 53.614 104.572 53.77 104.452 53.878C104.332 53.974 104.152 54.022 103.912 54.022H97.864V52.906H103.408L103.102 53.158C103.102 52.558 103.012 52.048 102.832 51.628C102.664 51.208 102.406 50.89 102.058 50.674C101.722 50.446 101.302 50.332 100.798 50.332C100.234 50.332 99.754 50.464 99.358 50.728C98.974 50.992 98.68 51.358 98.476 51.826C98.272 52.294 98.17 52.84 98.17 53.464V53.572C98.17 54.628 98.416 55.426 98.908 55.966C99.412 56.494 100.138 56.758 101.086 56.758C101.446 56.758 101.824 56.71 102.22 56.614C102.628 56.518 103.012 56.356 103.372 56.128C103.576 56.008 103.756 55.954 103.912 55.966C104.08 55.978 104.212 56.032 104.308 56.128C104.416 56.224 104.482 56.344 104.506 56.488C104.53 56.632 104.506 56.782 104.434 56.938C104.362 57.082 104.236 57.214 104.056 57.334C103.648 57.61 103.174 57.82 102.634 57.964C102.094 58.096 101.572 58.162 101.068 58.162ZM107.514 58.126C107.226 58.126 107.004 58.048 106.848 57.892C106.692 57.724 106.614 57.496 106.614 57.208V50.008C106.614 49.708 106.692 49.48 106.848 49.324C107.004 49.168 107.22 49.09 107.496 49.09C107.784 49.09 108 49.168 108.144 49.324C108.3 49.48 108.378 49.708 108.378 50.008V51.412L108.18 51.088C108.444 50.416 108.858 49.912 109.422 49.576C109.986 49.228 110.634 49.054 111.366 49.054C112.062 49.054 112.638 49.186 113.094 49.45C113.562 49.702 113.91 50.092 114.138 50.62C114.366 51.136 114.48 51.79 114.48 52.582V57.208C114.48 57.496 114.402 57.724 114.246 57.892C114.09 58.048 113.868 58.126 113.58 58.126C113.28 58.126 113.052 58.048 112.896 57.892C112.74 57.724 112.662 57.496 112.662 57.208V52.69C112.662 51.934 112.512 51.382 112.212 51.034C111.924 50.686 111.468 50.512 110.844 50.512C110.112 50.512 109.524 50.74 109.08 51.196C108.648 51.652 108.432 52.264 108.432 53.032V57.208C108.432 57.82 108.126 58.126 107.514 58.126ZM107.658 47.488C107.514 47.476 107.4 47.422 107.316 47.326C107.232 47.23 107.208 47.086 107.244 46.894C107.292 46.63 107.364 46.378 107.46 46.138C107.568 45.886 107.7 45.664 107.856 45.472C108.012 45.28 108.204 45.13 108.432 45.022C108.66 44.902 108.924 44.842 109.224 44.842C109.512 44.842 109.77 44.908 109.998 45.04C110.226 45.172 110.436 45.322 110.628 45.49C110.82 45.658 111.012 45.808 111.204 45.94C111.396 46.072 111.606 46.138 111.834 46.138C112.098 46.138 112.32 46.042 112.5 45.85C112.692 45.658 112.818 45.406 112.878 45.094C112.902 44.974 112.956 44.884 113.04 44.824C113.124 44.752 113.25 44.722 113.418 44.734C113.562 44.734 113.676 44.782 113.76 44.878C113.844 44.974 113.868 45.124 113.832 45.328C113.772 45.676 113.658 46.006 113.49 46.318C113.334 46.63 113.118 46.882 112.842 47.074C112.578 47.266 112.248 47.362 111.852 47.362C111.564 47.362 111.306 47.302 111.078 47.182C110.85 47.05 110.634 46.9 110.43 46.732C110.238 46.564 110.046 46.414 109.854 46.282C109.662 46.15 109.458 46.084 109.242 46.084C108.978 46.084 108.756 46.18 108.576 46.372C108.396 46.552 108.27 46.804 108.198 47.128C108.186 47.248 108.132 47.344 108.036 47.416C107.952 47.476 107.826 47.5 107.658 47.488ZM119.793 58.162C119.181 58.162 118.629 58.042 118.137 57.802C117.657 57.562 117.279 57.238 117.003 56.83C116.727 56.422 116.589 55.96 116.589 55.444C116.589 54.796 116.751 54.286 117.075 53.914C117.411 53.53 117.957 53.26 118.713 53.104C119.481 52.936 120.513 52.852 121.809 52.852H122.655V53.968H121.827C120.963 53.968 120.279 54.01 119.775 54.094C119.271 54.178 118.911 54.322 118.695 54.526C118.491 54.718 118.389 54.988 118.389 55.336C118.389 55.792 118.545 56.164 118.857 56.452C119.169 56.728 119.601 56.866 120.153 56.866C120.597 56.866 120.987 56.764 121.323 56.56C121.659 56.344 121.923 56.056 122.115 55.696C122.319 55.336 122.421 54.922 122.421 54.454V52.384C122.421 51.7 122.277 51.208 121.989 50.908C121.701 50.608 121.227 50.458 120.567 50.458C120.183 50.458 119.781 50.506 119.361 50.602C118.953 50.698 118.527 50.86 118.083 51.088C117.879 51.184 117.705 51.214 117.561 51.178C117.417 51.142 117.303 51.064 117.219 50.944C117.135 50.812 117.087 50.674 117.075 50.53C117.075 50.374 117.111 50.224 117.183 50.08C117.267 49.936 117.405 49.828 117.597 49.756C118.125 49.504 118.647 49.324 119.163 49.216C119.679 49.108 120.165 49.054 120.621 49.054C121.425 49.054 122.085 49.18 122.601 49.432C123.129 49.684 123.519 50.068 123.771 50.584C124.023 51.1 124.149 51.766 124.149 52.582V57.208C124.149 57.496 124.077 57.724 123.933 57.892C123.789 58.048 123.579 58.126 123.303 58.126C123.039 58.126 122.829 58.048 122.673 57.892C122.517 57.724 122.439 57.496 122.439 57.208V56.038H122.601C122.505 56.482 122.325 56.866 122.061 57.19C121.809 57.502 121.491 57.742 121.107 57.91C120.723 58.078 120.285 58.162 119.793 58.162Z" fill="#101E37"/>
<path d="M40.9277 77.0059V83.4727C40.9277 84.179 40.7842 84.8079 40.4971 85.3594C40.2145 85.9108 39.7861 86.346 39.2119 86.665C38.6377 86.9795 37.9176 87.1367 37.0518 87.1367C35.8167 87.1367 34.8757 86.8018 34.2285 86.1318C33.5859 85.4619 33.2646 84.5664 33.2646 83.4453V77.0059H34.4336V83.4795C34.4336 84.3271 34.6569 84.9811 35.1035 85.4414C35.5547 85.9017 36.2269 86.1318 37.1201 86.1318C37.7308 86.1318 38.2298 86.0225 38.6172 85.8037C39.0091 85.5804 39.2985 85.2705 39.4854 84.874C39.6768 84.473 39.7725 84.0104 39.7725 83.4863V77.0059H40.9277ZM48.2559 84.9492C48.2559 85.4277 48.1351 85.8311 47.8936 86.1592C47.6566 86.4827 47.3148 86.7266 46.8682 86.8906C46.4261 87.0547 45.8975 87.1367 45.2822 87.1367C44.7581 87.1367 44.3047 87.0957 43.9219 87.0137C43.5391 86.9316 43.2041 86.8154 42.917 86.665V85.6191C43.2223 85.7695 43.5869 85.9062 44.0107 86.0293C44.4346 86.1523 44.8675 86.2139 45.3096 86.2139C45.9567 86.2139 46.4261 86.109 46.7178 85.8994C47.0094 85.6898 47.1553 85.4049 47.1553 85.0449C47.1553 84.8398 47.096 84.6598 46.9775 84.5049C46.8636 84.3454 46.6699 84.1927 46.3965 84.0469C46.123 83.8965 45.7448 83.7324 45.2617 83.5547C44.7832 83.3724 44.3685 83.1924 44.0176 83.0146C43.6712 82.8324 43.4023 82.6113 43.2109 82.3516C43.0241 82.0918 42.9307 81.7546 42.9307 81.3398C42.9307 80.7064 43.1859 80.221 43.6963 79.8838C44.2113 79.542 44.8857 79.3711 45.7197 79.3711C46.1709 79.3711 46.5924 79.4167 46.9844 79.5078C47.3809 79.5944 47.75 79.7129 48.0918 79.8633L47.709 80.7725C47.3991 80.6403 47.0687 80.5286 46.7178 80.4375C46.3669 80.3464 46.0091 80.3008 45.6445 80.3008C45.1204 80.3008 44.7171 80.3874 44.4346 80.5605C44.1566 80.7337 44.0176 80.9707 44.0176 81.2715C44.0176 81.5039 44.0814 81.6953 44.209 81.8457C44.3411 81.9961 44.5508 82.1374 44.8379 82.2695C45.125 82.4017 45.5033 82.5566 45.9727 82.7344C46.4421 82.9076 46.8477 83.0876 47.1895 83.2744C47.5312 83.4567 47.7933 83.68 47.9756 83.9443C48.1624 84.2041 48.2559 84.5391 48.2559 84.9492ZM52.8838 79.3848C53.777 79.3848 54.4401 79.5853 54.873 79.9863C55.306 80.3874 55.5225 81.0277 55.5225 81.9072V87H54.6953L54.4766 85.8926H54.4219C54.2122 86.166 53.9935 86.3962 53.7656 86.583C53.5378 86.7653 53.2734 86.9043 52.9727 87C52.6764 87.0911 52.3118 87.1367 51.8789 87.1367C51.4232 87.1367 51.0176 87.057 50.6621 86.8975C50.3112 86.738 50.0332 86.4964 49.8281 86.1729C49.6276 85.8493 49.5273 85.4391 49.5273 84.9424C49.5273 84.195 49.8236 83.6208 50.416 83.2197C51.0085 82.8187 51.9108 82.5999 53.123 82.5635L54.415 82.5088V82.0508C54.415 81.4036 54.276 80.9502 53.998 80.6904C53.7201 80.4307 53.3281 80.3008 52.8223 80.3008C52.4303 80.3008 52.0566 80.3577 51.7012 80.4717C51.3457 80.5856 51.0085 80.7201 50.6895 80.875L50.3408 80.0137C50.6781 79.8405 51.0654 79.6924 51.5029 79.5693C51.9404 79.4463 52.4007 79.3848 52.8838 79.3848ZM54.4014 83.3086L53.2598 83.3564C52.3255 83.3929 51.667 83.5456 51.2842 83.8145C50.9014 84.0833 50.71 84.4639 50.71 84.9561C50.71 85.3844 50.8398 85.7012 51.0996 85.9062C51.3594 86.1113 51.7035 86.2139 52.1318 86.2139C52.7972 86.2139 53.3418 86.0293 53.7656 85.6602C54.1895 85.291 54.4014 84.7373 54.4014 83.999V83.3086ZM54.7568 76.2744V76.4111C54.6657 76.5433 54.5404 76.7028 54.3809 76.8896C54.2259 77.0719 54.0527 77.2656 53.8613 77.4707C53.6699 77.6712 53.4762 77.8626 53.2803 78.0449C53.0889 78.2272 52.9111 78.3844 52.7471 78.5166H51.9883V78.3525C52.1341 78.1794 52.2936 77.972 52.4668 77.7305C52.64 77.4844 52.8086 77.2337 52.9727 76.9785C53.1367 76.7188 53.2734 76.484 53.3828 76.2744H54.7568ZM64.2998 79.3848C65.193 79.3848 65.8561 79.5853 66.2891 79.9863C66.722 80.3874 66.9385 81.0277 66.9385 81.9072V87H66.1113L65.8926 85.8926H65.8379C65.6283 86.166 65.4095 86.3962 65.1816 86.583C64.9538 86.7653 64.6895 86.9043 64.3887 87C64.0924 87.0911 63.7279 87.1367 63.2949 87.1367C62.8392 87.1367 62.4336 87.057 62.0781 86.8975C61.7272 86.738 61.4492 86.4964 61.2441 86.1729C61.0436 85.8493 60.9434 85.4391 60.9434 84.9424C60.9434 84.195 61.2396 83.6208 61.832 83.2197C62.4245 82.8187 63.3268 82.5999 64.5391 82.5635L65.8311 82.5088V82.0508C65.8311 81.4036 65.6921 80.9502 65.4141 80.6904C65.1361 80.4307 64.7441 80.3008 64.2383 80.3008C63.8464 80.3008 63.4727 80.3577 63.1172 80.4717C62.7617 80.5856 62.4245 80.7201 62.1055 80.875L61.7568 80.0137C62.0941 79.8405 62.4814 79.6924 62.9189 79.5693C63.3564 79.4463 63.8167 79.3848 64.2998 79.3848ZM65.8174 83.3086L64.6758 83.3564C63.7415 83.3929 63.083 83.5456 62.7002 83.8145C62.3174 84.0833 62.126 84.4639 62.126 84.9561C62.126 85.3844 62.2559 85.7012 62.5156 85.9062C62.7754 86.1113 63.1195 86.2139 63.5479 86.2139C64.2132 86.2139 64.7578 86.0293 65.1816 85.6602C65.6055 85.291 65.8174 84.7373 65.8174 83.999V83.3086ZM70.418 87H69.2764V76.3633H70.418V87ZM84.5889 79.3711C85.4137 79.3711 86.0358 79.5876 86.4551 80.0205C86.8743 80.4489 87.084 81.1393 87.084 82.0918V87H85.9629V82.1465C85.9629 81.5404 85.8307 81.0869 85.5664 80.7861C85.3066 80.4808 84.9193 80.3281 84.4043 80.3281C83.6797 80.3281 83.1533 80.5378 82.8252 80.957C82.4971 81.3763 82.333 81.9938 82.333 82.8096V87H81.2051V82.1465C81.2051 81.7409 81.1458 81.4036 81.0273 81.1348C80.9134 80.8659 80.7402 80.6654 80.5078 80.5332C80.2799 80.3965 79.9906 80.3281 79.6396 80.3281C79.1429 80.3281 78.7441 80.4307 78.4434 80.6357C78.1426 80.8408 77.9238 81.1462 77.7871 81.5518C77.6549 81.9528 77.5889 82.4473 77.5889 83.0352V87H76.4541V79.5078H77.3701L77.541 80.5674H77.6025C77.7529 80.3076 77.9421 80.0889 78.1699 79.9111C78.3978 79.7334 78.653 79.599 78.9355 79.5078C79.2181 79.4167 79.5189 79.3711 79.8379 79.3711C80.4076 79.3711 80.8838 79.4782 81.2666 79.6924C81.654 79.902 81.9342 80.2233 82.1074 80.6562H82.1689C82.415 80.2233 82.7523 79.902 83.1807 79.6924C83.609 79.4782 84.0785 79.3711 84.5889 79.3711ZM92.2998 79.3711C92.9378 79.3711 93.4847 79.5124 93.9404 79.7949C94.3962 80.0775 94.7448 80.474 94.9863 80.9844C95.2279 81.4902 95.3486 82.0827 95.3486 82.7617V83.4658H90.1738C90.1875 84.3454 90.4062 85.0153 90.8301 85.4756C91.2539 85.9359 91.8509 86.166 92.6211 86.166C93.0951 86.166 93.5143 86.1227 93.8789 86.0361C94.2435 85.9495 94.6217 85.8219 95.0137 85.6533V86.6514C94.6354 86.82 94.2594 86.943 93.8857 87.0205C93.5166 87.098 93.0791 87.1367 92.5732 87.1367C91.8532 87.1367 91.2243 86.9909 90.6865 86.6992C90.1533 86.403 89.7386 85.9701 89.4424 85.4004C89.1462 84.8307 88.998 84.1335 88.998 83.3086C88.998 82.502 89.1325 81.8047 89.4014 81.2168C89.6748 80.6243 90.0576 80.1686 90.5498 79.8496C91.0465 79.5306 91.6299 79.3711 92.2998 79.3711ZM92.2861 80.3008C91.68 80.3008 91.1969 80.499 90.8369 80.8955C90.4769 81.292 90.2627 81.8457 90.1943 82.5566H94.1592C94.1546 82.11 94.084 81.7181 93.9473 81.3809C93.8151 81.0391 93.6123 80.7747 93.3389 80.5879C93.0654 80.3965 92.7145 80.3008 92.2861 80.3008ZM100.824 79.3711C101.713 79.3711 102.385 79.5898 102.841 80.0273C103.297 80.4603 103.524 81.1576 103.524 82.1191V87H102.403V82.1943C102.403 81.57 102.26 81.1029 101.973 80.793C101.69 80.4831 101.255 80.3281 100.667 80.3281C99.8376 80.3281 99.2542 80.5628 98.917 81.0322C98.5798 81.5016 98.4111 82.1829 98.4111 83.0762V87H97.2764V79.5078H98.1924L98.3633 80.5879H98.4248C98.5843 80.3236 98.7871 80.1025 99.0332 79.9248C99.2793 79.7425 99.555 79.6058 99.8604 79.5146C100.166 79.4189 100.487 79.3711 100.824 79.3711ZM112.322 83.2402C112.322 83.8555 112.243 84.4046 112.083 84.8877C111.924 85.3708 111.693 85.7786 111.393 86.1113C111.092 86.444 110.727 86.6992 110.299 86.877C109.875 87.0501 109.394 87.1367 108.856 87.1367C108.355 87.1367 107.895 87.0501 107.476 86.877C107.061 86.6992 106.701 86.444 106.396 86.1113C106.095 85.7786 105.86 85.3708 105.691 84.8877C105.527 84.4046 105.445 83.8555 105.445 83.2402C105.445 82.4199 105.584 81.7227 105.862 81.1484C106.14 80.5697 106.537 80.1299 107.052 79.8291C107.571 79.5238 108.189 79.3711 108.904 79.3711C109.588 79.3711 110.185 79.5238 110.695 79.8291C111.21 80.1344 111.609 80.5765 111.892 81.1553C112.179 81.7295 112.322 82.4245 112.322 83.2402ZM106.621 83.2402C106.621 83.8418 106.701 84.3636 106.86 84.8057C107.02 85.2477 107.266 85.5895 107.599 85.8311C107.931 86.0726 108.36 86.1934 108.884 86.1934C109.403 86.1934 109.829 86.0726 110.162 85.8311C110.499 85.5895 110.748 85.2477 110.907 84.8057C111.067 84.3636 111.146 83.8418 111.146 83.2402C111.146 82.6432 111.067 82.1283 110.907 81.6953C110.748 81.2578 110.502 80.9206 110.169 80.6836C109.836 80.4466 109.406 80.3281 108.877 80.3281C108.098 80.3281 107.526 80.5856 107.161 81.1006C106.801 81.6156 106.621 82.3288 106.621 83.2402ZM119.131 84.9492C119.131 85.4277 119.01 85.8311 118.769 86.1592C118.532 86.4827 118.19 86.7266 117.743 86.8906C117.301 87.0547 116.772 87.1367 116.157 87.1367C115.633 87.1367 115.18 87.0957 114.797 87.0137C114.414 86.9316 114.079 86.8154 113.792 86.665V85.6191C114.097 85.7695 114.462 85.9062 114.886 86.0293C115.31 86.1523 115.743 86.2139 116.185 86.2139C116.832 86.2139 117.301 86.109 117.593 85.8994C117.884 85.6898 118.03 85.4049 118.03 85.0449C118.03 84.8398 117.971 84.6598 117.853 84.5049C117.739 84.3454 117.545 84.1927 117.271 84.0469C116.998 83.8965 116.62 83.7324 116.137 83.5547C115.658 83.3724 115.243 83.1924 114.893 83.0146C114.546 82.8324 114.277 82.6113 114.086 82.3516C113.899 82.0918 113.806 81.7546 113.806 81.3398C113.806 80.7064 114.061 80.221 114.571 79.8838C115.086 79.542 115.761 79.3711 116.595 79.3711C117.046 79.3711 117.467 79.4167 117.859 79.5078C118.256 79.5944 118.625 79.7129 118.967 79.8633L118.584 80.7725C118.274 80.6403 117.944 80.5286 117.593 80.4375C117.242 80.3464 116.884 80.3008 116.52 80.3008C115.995 80.3008 115.592 80.3874 115.31 80.5605C115.032 80.7337 114.893 80.9707 114.893 81.2715C114.893 81.5039 114.956 81.6953 115.084 81.8457C115.216 81.9961 115.426 82.1374 115.713 82.2695C116 82.4017 116.378 82.5566 116.848 82.7344C117.317 82.9076 117.723 83.0876 118.064 83.2744C118.406 83.4567 118.668 83.68 118.851 83.9443C119.037 84.2041 119.131 84.5391 119.131 84.9492ZM127.389 76.8623C127.967 76.8623 128.48 76.9535 128.927 77.1357C129.373 77.318 129.722 77.5869 129.973 77.9424C130.228 78.2933 130.355 78.7262 130.355 79.2412C130.355 79.6468 130.267 80.0023 130.089 80.3076C129.916 80.6084 129.681 80.8727 129.385 81.1006C129.089 81.3239 128.76 81.5244 128.4 81.7021C128.829 81.8981 129.214 82.1191 129.556 82.3652C129.902 82.6113 130.175 82.9007 130.376 83.2334C130.576 83.5661 130.677 83.9603 130.677 84.416C130.677 84.9766 130.54 85.4619 130.267 85.8721C129.998 86.2777 129.619 86.5898 129.132 86.8086C128.644 87.0273 128.072 87.1367 127.416 87.1367C126.71 87.1367 126.108 87.0319 125.611 86.8223C125.119 86.6081 124.743 86.3027 124.483 85.9062C124.228 85.5052 124.101 85.0244 124.101 84.4639C124.101 84.0036 124.199 83.6048 124.395 83.2676C124.59 82.9258 124.85 82.6318 125.174 82.3857C125.497 82.1396 125.851 81.9323 126.233 81.7637C125.901 81.5814 125.595 81.374 125.317 81.1416C125.044 80.9092 124.825 80.638 124.661 80.3281C124.502 80.0137 124.422 79.6491 124.422 79.2344C124.422 78.7285 124.549 78.3001 124.805 77.9492C125.064 77.5938 125.418 77.3249 125.864 77.1426C126.315 76.9557 126.824 76.8623 127.389 76.8623ZM125.215 84.4707C125.215 84.9811 125.395 85.4027 125.755 85.7354C126.115 86.0635 126.66 86.2275 127.389 86.2275C128.081 86.2275 128.617 86.0635 128.995 85.7354C129.373 85.4027 129.562 84.9674 129.562 84.4297C129.562 84.097 129.476 83.8053 129.303 83.5547C129.13 83.2995 128.883 83.0716 128.564 82.8711C128.245 82.6706 127.869 82.4883 127.437 82.3242L127.19 82.2354C126.771 82.4085 126.413 82.6022 126.117 82.8164C125.826 83.026 125.602 83.2653 125.447 83.5342C125.292 83.8031 125.215 84.1152 125.215 84.4707ZM127.375 77.792C126.837 77.792 126.397 77.9219 126.056 78.1816C125.714 78.4368 125.543 78.806 125.543 79.2891C125.543 79.6354 125.625 79.9294 125.789 80.1709C125.958 80.4079 126.186 80.613 126.473 80.7861C126.76 80.9548 127.081 81.112 127.437 81.2578C127.783 81.112 128.09 80.9525 128.359 80.7793C128.628 80.6016 128.84 80.3919 128.995 80.1504C129.15 79.9089 129.228 79.6195 129.228 79.2822C129.228 78.7992 129.057 78.43 128.715 78.1748C128.378 77.9196 127.931 77.792 127.375 77.792ZM139.242 87.1367C138.568 87.1367 137.973 86.9977 137.458 86.7197C136.943 86.4417 136.542 86.0179 136.255 85.4482C135.968 84.8786 135.824 84.1608 135.824 83.2949C135.824 82.388 135.975 81.6475 136.275 81.0732C136.581 80.4945 137 80.0661 137.533 79.7881C138.066 79.5101 138.673 79.3711 139.352 79.3711C139.725 79.3711 140.085 79.4098 140.432 79.4873C140.783 79.5602 141.07 79.6536 141.293 79.7676L140.951 80.7178C140.723 80.6266 140.459 80.5446 140.158 80.4717C139.862 80.3988 139.584 80.3623 139.324 80.3623C138.805 80.3623 138.372 80.474 138.025 80.6973C137.684 80.9206 137.426 81.2487 137.253 81.6816C137.084 82.1146 137 82.6478 137 83.2812C137 83.8874 137.082 84.4046 137.246 84.833C137.415 85.2614 137.663 85.5895 137.991 85.8174C138.324 86.0407 138.739 86.1523 139.235 86.1523C139.632 86.1523 139.99 86.1113 140.309 86.0293C140.628 85.9427 140.917 85.8424 141.177 85.7285V86.7402C140.926 86.8678 140.646 86.9658 140.336 87.0342C140.031 87.1025 139.666 87.1367 139.242 87.1367ZM145.757 79.3848C146.65 79.3848 147.313 79.5853 147.746 79.9863C148.179 80.3874 148.396 81.0277 148.396 81.9072V87H147.568L147.35 85.8926H147.295C147.085 86.166 146.867 86.3962 146.639 86.583C146.411 86.7653 146.146 86.9043 145.846 87C145.549 87.0911 145.185 87.1367 144.752 87.1367C144.296 87.1367 143.891 87.057 143.535 86.8975C143.184 86.738 142.906 86.4964 142.701 86.1729C142.501 85.8493 142.4 85.4391 142.4 84.9424C142.4 84.195 142.697 83.6208 143.289 83.2197C143.882 82.8187 144.784 82.5999 145.996 82.5635L147.288 82.5088V82.0508C147.288 81.4036 147.149 80.9502 146.871 80.6904C146.593 80.4307 146.201 80.3008 145.695 80.3008C145.303 80.3008 144.93 80.3577 144.574 80.4717C144.219 80.5856 143.882 80.7201 143.562 80.875L143.214 80.0137C143.551 79.8405 143.938 79.6924 144.376 79.5693C144.813 79.4463 145.274 79.3848 145.757 79.3848ZM147.274 83.3086L146.133 83.3564C145.199 83.3929 144.54 83.5456 144.157 83.8145C143.774 84.0833 143.583 84.4639 143.583 84.9561C143.583 85.3844 143.713 85.7012 143.973 85.9062C144.232 86.1113 144.576 86.2139 145.005 86.2139C145.67 86.2139 146.215 86.0293 146.639 85.6602C147.062 85.291 147.274 84.7373 147.274 83.999V83.3086ZM154.138 79.3711C154.288 79.3711 154.445 79.3802 154.609 79.3984C154.773 79.4121 154.919 79.4326 155.047 79.46L154.903 80.5127C154.78 80.4808 154.644 80.4557 154.493 80.4375C154.343 80.4193 154.201 80.4102 154.069 80.4102C153.769 80.4102 153.484 80.4717 153.215 80.5947C152.951 80.7132 152.718 80.8864 152.518 81.1143C152.317 81.3376 152.16 81.6087 152.046 81.9277C151.932 82.2422 151.875 82.5931 151.875 82.9805V87H150.733V79.5078H151.677L151.8 80.8887H151.848C152.003 80.6107 152.189 80.3577 152.408 80.1299C152.627 79.8975 152.88 79.7129 153.167 79.5762C153.459 79.4395 153.782 79.3711 154.138 79.3711ZM159.265 79.3848C160.158 79.3848 160.821 79.5853 161.254 79.9863C161.687 80.3874 161.903 81.0277 161.903 81.9072V87H161.076L160.857 85.8926H160.803C160.593 86.166 160.374 86.3962 160.146 86.583C159.919 86.7653 159.654 86.9043 159.354 87C159.057 87.0911 158.693 87.1367 158.26 87.1367C157.804 87.1367 157.398 87.057 157.043 86.8975C156.692 86.738 156.414 86.4964 156.209 86.1729C156.008 85.8493 155.908 85.4391 155.908 84.9424C155.908 84.195 156.204 83.6208 156.797 83.2197C157.389 82.8187 158.292 82.5999 159.504 82.5635L160.796 82.5088V82.0508C160.796 81.4036 160.657 80.9502 160.379 80.6904C160.101 80.4307 159.709 80.3008 159.203 80.3008C158.811 80.3008 158.438 80.3577 158.082 80.4717C157.727 80.5856 157.389 80.7201 157.07 80.875L156.722 80.0137C157.059 79.8405 157.446 79.6924 157.884 79.5693C158.321 79.4463 158.782 79.3848 159.265 79.3848ZM160.782 83.3086L159.641 83.3564C158.706 83.3929 158.048 83.5456 157.665 83.8145C157.282 84.0833 157.091 84.4639 157.091 84.9561C157.091 85.3844 157.221 85.7012 157.48 85.9062C157.74 86.1113 158.084 86.2139 158.513 86.2139C159.178 86.2139 159.723 86.0293 160.146 85.6602C160.57 85.291 160.782 84.7373 160.782 83.999V83.3086ZM167.242 87.1367C166.568 87.1367 165.973 86.9977 165.458 86.7197C164.943 86.4417 164.542 86.0179 164.255 85.4482C163.968 84.8786 163.824 84.1608 163.824 83.2949C163.824 82.388 163.975 81.6475 164.275 81.0732C164.581 80.4945 165 80.0661 165.533 79.7881C166.066 79.5101 166.673 79.3711 167.352 79.3711C167.725 79.3711 168.085 79.4098 168.432 79.4873C168.783 79.5602 169.07 79.6536 169.293 79.7676L168.951 80.7178C168.723 80.6266 168.459 80.5446 168.158 80.4717C167.862 80.3988 167.584 80.3623 167.324 80.3623C166.805 80.3623 166.372 80.474 166.025 80.6973C165.684 80.9206 165.426 81.2487 165.253 81.6816C165.084 82.1146 165 82.6478 165 83.2812C165 83.8874 165.082 84.4046 165.246 84.833C165.415 85.2614 165.663 85.5895 165.991 85.8174C166.324 86.0407 166.739 86.1523 167.235 86.1523C167.632 86.1523 167.99 86.1113 168.309 86.0293C168.628 85.9427 168.917 85.8424 169.177 85.7285V86.7402C168.926 86.8678 168.646 86.9658 168.336 87.0342C168.031 87.1025 167.666 87.1367 167.242 87.1367ZM173.374 86.207C173.561 86.207 173.752 86.1911 173.948 86.1592C174.144 86.1273 174.304 86.0885 174.427 86.043V86.9248C174.295 86.984 174.11 87.0342 173.873 87.0752C173.641 87.1162 173.413 87.1367 173.189 87.1367C172.793 87.1367 172.433 87.0684 172.109 86.9316C171.786 86.7904 171.526 86.5534 171.33 86.2207C171.139 85.888 171.043 85.4277 171.043 84.8398V80.3965H169.977V79.8428L171.05 79.3984L171.501 77.7715H172.185V79.5078H174.379V80.3965H172.185V84.8057C172.185 85.2751 172.292 85.626 172.506 85.8584C172.725 86.0908 173.014 86.207 173.374 86.207ZM178.829 79.3711C179.467 79.3711 180.014 79.5124 180.47 79.7949C180.925 80.0775 181.274 80.474 181.516 80.9844C181.757 81.4902 181.878 82.0827 181.878 82.7617V83.4658H176.703C176.717 84.3454 176.936 85.0153 177.359 85.4756C177.783 85.9359 178.38 86.166 179.15 86.166C179.624 86.166 180.044 86.1227 180.408 86.0361C180.773 85.9495 181.151 85.8219 181.543 85.6533V86.6514C181.165 86.82 180.789 86.943 180.415 87.0205C180.046 87.098 179.608 87.1367 179.103 87.1367C178.382 87.1367 177.754 86.9909 177.216 86.6992C176.683 86.403 176.268 85.9701 175.972 85.4004C175.675 84.8307 175.527 84.1335 175.527 83.3086C175.527 82.502 175.662 81.8047 175.931 81.2168C176.204 80.6243 176.587 80.1686 177.079 79.8496C177.576 79.5306 178.159 79.3711 178.829 79.3711ZM178.815 80.3008C178.209 80.3008 177.726 80.499 177.366 80.8955C177.006 81.292 176.792 81.8457 176.724 82.5566H180.688C180.684 82.11 180.613 81.7181 180.477 81.3809C180.344 81.0391 180.142 80.7747 179.868 80.5879C179.595 80.3965 179.244 80.3008 178.815 80.3008ZM187.21 79.3711C187.36 79.3711 187.518 79.3802 187.682 79.3984C187.846 79.4121 187.992 79.4326 188.119 79.46L187.976 80.5127C187.853 80.4808 187.716 80.4557 187.565 80.4375C187.415 80.4193 187.274 80.4102 187.142 80.4102C186.841 80.4102 186.556 80.4717 186.287 80.5947C186.023 80.7132 185.79 80.8864 185.59 81.1143C185.389 81.3376 185.232 81.6087 185.118 81.9277C185.004 82.2422 184.947 82.5931 184.947 82.9805V87H183.806V79.5078H184.749L184.872 80.8887H184.92C185.075 80.6107 185.262 80.3577 185.48 80.1299C185.699 79.8975 185.952 79.7129 186.239 79.5762C186.531 79.4395 186.854 79.3711 187.21 79.3711ZM192.419 79.3711C193.057 79.3711 193.604 79.5124 194.06 79.7949C194.515 80.0775 194.864 80.474 195.105 80.9844C195.347 81.4902 195.468 82.0827 195.468 82.7617V83.4658H190.293C190.307 84.3454 190.525 85.0153 190.949 85.4756C191.373 85.9359 191.97 86.166 192.74 86.166C193.214 86.166 193.633 86.1227 193.998 86.0361C194.363 85.9495 194.741 85.8219 195.133 85.6533V86.6514C194.755 86.82 194.379 86.943 194.005 87.0205C193.636 87.098 193.198 87.1367 192.692 87.1367C191.972 87.1367 191.343 86.9909 190.806 86.6992C190.272 86.403 189.858 85.9701 189.562 85.4004C189.265 84.8307 189.117 84.1335 189.117 83.3086C189.117 82.502 189.252 81.8047 189.521 81.2168C189.794 80.6243 190.177 80.1686 190.669 79.8496C191.166 79.5306 191.749 79.3711 192.419 79.3711ZM192.405 80.3008C191.799 80.3008 191.316 80.499 190.956 80.8955C190.596 81.292 190.382 81.8457 190.313 82.5566H194.278C194.274 82.11 194.203 81.7181 194.066 81.3809C193.934 81.0391 193.731 80.7747 193.458 80.5879C193.185 80.3965 192.834 80.3008 192.405 80.3008ZM202.242 84.9492C202.242 85.4277 202.121 85.8311 201.88 86.1592C201.643 86.4827 201.301 86.7266 200.854 86.8906C200.412 87.0547 199.884 87.1367 199.269 87.1367C198.744 87.1367 198.291 87.0957 197.908 87.0137C197.525 86.9316 197.19 86.8154 196.903 86.665V85.6191C197.209 85.7695 197.573 85.9062 197.997 86.0293C198.421 86.1523 198.854 86.2139 199.296 86.2139C199.943 86.2139 200.412 86.109 200.704 85.8994C200.996 85.6898 201.142 85.4049 201.142 85.0449C201.142 84.8398 201.082 84.6598 200.964 84.5049C200.85 84.3454 200.656 84.1927 200.383 84.0469C200.109 83.8965 199.731 83.7324 199.248 83.5547C198.77 83.3724 198.355 83.1924 198.004 83.0146C197.658 82.8324 197.389 82.6113 197.197 82.3516C197.01 82.0918 196.917 81.7546 196.917 81.3398C196.917 80.7064 197.172 80.221 197.683 79.8838C198.198 79.542 198.872 79.3711 199.706 79.3711C200.157 79.3711 200.579 79.4167 200.971 79.5078C201.367 79.5944 201.736 79.7129 202.078 79.8633L201.695 80.7725C201.385 80.6403 201.055 80.5286 200.704 80.4375C200.353 80.3464 199.995 80.3008 199.631 80.3008C199.107 80.3008 198.703 80.3874 198.421 80.5605C198.143 80.7337 198.004 80.9707 198.004 81.2715C198.004 81.5039 198.068 81.6953 198.195 81.8457C198.327 81.9961 198.537 82.1374 198.824 82.2695C199.111 82.4017 199.49 82.5566 199.959 82.7344C200.428 82.9076 200.834 83.0876 201.176 83.2744C201.518 83.4567 201.78 83.68 201.962 83.9443C202.149 84.2041 202.242 84.5391 202.242 84.9492ZM210.705 87.1367C210.031 87.1367 209.436 86.9977 208.921 86.7197C208.406 86.4417 208.005 86.0179 207.718 85.4482C207.431 84.8786 207.287 84.1608 207.287 83.2949C207.287 82.388 207.438 81.6475 207.738 81.0732C208.044 80.4945 208.463 80.0661 208.996 79.7881C209.529 79.5101 210.135 79.3711 210.814 79.3711C211.188 79.3711 211.548 79.4098 211.895 79.4873C212.245 79.5602 212.533 79.6536 212.756 79.7676L212.414 80.7178C212.186 80.6266 211.922 80.5446 211.621 80.4717C211.325 80.3988 211.047 80.3623 210.787 80.3623C210.268 80.3623 209.835 80.474 209.488 80.6973C209.146 80.9206 208.889 81.2487 208.716 81.6816C208.547 82.1146 208.463 82.6478 208.463 83.2812C208.463 83.8874 208.545 84.4046 208.709 84.833C208.878 85.2614 209.126 85.5895 209.454 85.8174C209.787 86.0407 210.201 86.1523 210.698 86.1523C211.095 86.1523 211.452 86.1113 211.771 86.0293C212.09 85.9427 212.38 85.8424 212.64 85.7285V86.7402C212.389 86.8678 212.109 86.9658 211.799 87.0342C211.493 87.1025 211.129 87.1367 210.705 87.1367ZM220.877 83.2402C220.877 83.8555 220.797 84.4046 220.638 84.8877C220.478 85.3708 220.248 85.7786 219.947 86.1113C219.646 86.444 219.282 86.6992 218.854 86.877C218.43 87.0501 217.949 87.1367 217.411 87.1367C216.91 87.1367 216.45 87.0501 216.03 86.877C215.616 86.6992 215.256 86.444 214.95 86.1113C214.649 85.7786 214.415 85.3708 214.246 84.8877C214.082 84.4046 214 83.8555 214 83.2402C214 82.4199 214.139 81.7227 214.417 81.1484C214.695 80.5697 215.091 80.1299 215.606 79.8291C216.126 79.5238 216.743 79.3711 217.459 79.3711C218.143 79.3711 218.74 79.5238 219.25 79.8291C219.765 80.1344 220.164 80.5765 220.446 81.1553C220.733 81.7295 220.877 82.4245 220.877 83.2402ZM215.176 83.2402C215.176 83.8418 215.256 84.3636 215.415 84.8057C215.575 85.2477 215.821 85.5895 216.153 85.8311C216.486 86.0726 216.914 86.1934 217.438 86.1934C217.958 86.1934 218.384 86.0726 218.717 85.8311C219.054 85.5895 219.302 85.2477 219.462 84.8057C219.621 84.3636 219.701 83.8418 219.701 83.2402C219.701 82.6432 219.621 82.1283 219.462 81.6953C219.302 81.2578 219.056 80.9206 218.724 80.6836C218.391 80.4466 217.96 80.3281 217.432 80.3281C216.652 80.3281 216.08 80.5856 215.716 81.1006C215.356 81.6156 215.176 82.3288 215.176 83.2402ZM226.387 79.3711C227.275 79.3711 227.948 79.5898 228.403 80.0273C228.859 80.4603 229.087 81.1576 229.087 82.1191V87H227.966V82.1943C227.966 81.57 227.822 81.1029 227.535 80.793C227.253 80.4831 226.817 80.3281 226.229 80.3281C225.4 80.3281 224.817 80.5628 224.479 81.0322C224.142 81.5016 223.974 82.1829 223.974 83.0762V87H222.839V79.5078H223.755L223.926 80.5879H223.987C224.147 80.3236 224.35 80.1025 224.596 79.9248C224.842 79.7425 225.118 79.6058 225.423 79.5146C225.728 79.4189 226.049 79.3711 226.387 79.3711ZM236.203 87H235.062V76.3633H236.203V87ZM241.487 79.3711C242.125 79.3711 242.672 79.5124 243.128 79.7949C243.584 80.0775 243.932 80.474 244.174 80.9844C244.415 81.4902 244.536 82.0827 244.536 82.7617V83.4658H239.361C239.375 84.3454 239.594 85.0153 240.018 85.4756C240.441 85.9359 241.038 86.166 241.809 86.166C242.283 86.166 242.702 86.1227 243.066 86.0361C243.431 85.9495 243.809 85.8219 244.201 85.6533V86.6514C243.823 86.82 243.447 86.943 243.073 87.0205C242.704 87.098 242.267 87.1367 241.761 87.1367C241.041 87.1367 240.412 86.9909 239.874 86.6992C239.341 86.403 238.926 85.9701 238.63 85.4004C238.334 84.8307 238.186 84.1335 238.186 83.3086C238.186 82.502 238.32 81.8047 238.589 81.2168C238.862 80.6243 239.245 80.1686 239.737 79.8496C240.234 79.5306 240.817 79.3711 241.487 79.3711ZM241.474 80.3008C240.868 80.3008 240.384 80.499 240.024 80.8955C239.664 81.292 239.45 81.8457 239.382 82.5566H243.347C243.342 82.11 243.271 81.7181 243.135 81.3809C243.003 81.0391 242.8 80.7747 242.526 80.5879C242.253 80.3965 241.902 80.3008 241.474 80.3008ZM248.884 86.207C249.071 86.207 249.262 86.1911 249.458 86.1592C249.654 86.1273 249.813 86.0885 249.937 86.043V86.9248C249.804 86.984 249.62 87.0342 249.383 87.0752C249.15 87.1162 248.923 87.1367 248.699 87.1367C248.303 87.1367 247.943 87.0684 247.619 86.9316C247.296 86.7904 247.036 86.5534 246.84 86.2207C246.648 85.888 246.553 85.4277 246.553 84.8398V80.3965H245.486V79.8428L246.56 79.3984L247.011 77.7715H247.694V79.5078H249.889V80.3965H247.694V84.8057C247.694 85.2751 247.801 85.626 248.016 85.8584C248.234 86.0908 248.524 86.207 248.884 86.207ZM254.858 79.3711C255.009 79.3711 255.166 79.3802 255.33 79.3984C255.494 79.4121 255.64 79.4326 255.768 79.46L255.624 80.5127C255.501 80.4808 255.364 80.4557 255.214 80.4375C255.063 80.4193 254.922 80.4102 254.79 80.4102C254.489 80.4102 254.204 80.4717 253.936 80.5947C253.671 80.7132 253.439 80.8864 253.238 81.1143C253.038 81.3376 252.881 81.6087 252.767 81.9277C252.653 82.2422 252.596 82.5931 252.596 82.9805V87H251.454V79.5078H252.397L252.521 80.8887H252.568C252.723 80.6107 252.91 80.3577 253.129 80.1299C253.348 79.8975 253.601 79.7129 253.888 79.5762C254.179 79.4395 254.503 79.3711 254.858 79.3711ZM259.985 79.3848C260.879 79.3848 261.542 79.5853 261.975 79.9863C262.408 80.3874 262.624 81.0277 262.624 81.9072V87H261.797L261.578 85.8926H261.523C261.314 86.166 261.095 86.3962 260.867 86.583C260.639 86.7653 260.375 86.9043 260.074 87C259.778 87.0911 259.413 87.1367 258.98 87.1367C258.525 87.1367 258.119 87.057 257.764 86.8975C257.413 86.738 257.135 86.4964 256.93 86.1729C256.729 85.8493 256.629 85.4391 256.629 84.9424C256.629 84.195 256.925 83.6208 257.518 83.2197C258.11 82.8187 259.012 82.5999 260.225 82.5635L261.517 82.5088V82.0508C261.517 81.4036 261.378 80.9502 261.1 80.6904C260.822 80.4307 260.43 80.3008 259.924 80.3008C259.532 80.3008 259.158 80.3577 258.803 80.4717C258.447 80.5856 258.11 80.7201 257.791 80.875L257.442 80.0137C257.78 79.8405 258.167 79.6924 258.604 79.5693C259.042 79.4463 259.502 79.3848 259.985 79.3848ZM261.503 83.3086L260.361 83.3564C259.427 83.3929 258.769 83.5456 258.386 83.8145C258.003 84.0833 257.812 84.4639 257.812 84.9561C257.812 85.3844 257.941 85.7012 258.201 85.9062C258.461 86.1113 258.805 86.2139 259.233 86.2139C259.899 86.2139 260.443 86.0293 260.867 85.6602C261.291 85.291 261.503 84.7373 261.503 83.999V83.3086ZM269.809 84.9492C269.809 85.4277 269.688 85.8311 269.446 86.1592C269.209 86.4827 268.868 86.7266 268.421 86.8906C267.979 87.0547 267.45 87.1367 266.835 87.1367C266.311 87.1367 265.857 87.0957 265.475 87.0137C265.092 86.9316 264.757 86.8154 264.47 86.665V85.6191C264.775 85.7695 265.14 85.9062 265.563 86.0293C265.987 86.1523 266.42 86.2139 266.862 86.2139C267.509 86.2139 267.979 86.109 268.271 85.8994C268.562 85.6898 268.708 85.4049 268.708 85.0449C268.708 84.8398 268.649 84.6598 268.53 84.5049C268.416 84.3454 268.223 84.1927 267.949 84.0469C267.676 83.8965 267.298 83.7324 266.814 83.5547C266.336 83.3724 265.921 83.1924 265.57 83.0146C265.224 82.8324 264.955 82.6113 264.764 82.3516C264.577 82.0918 264.483 81.7546 264.483 81.3398C264.483 80.7064 264.739 80.221 265.249 79.8838C265.764 79.542 266.438 79.3711 267.272 79.3711C267.724 79.3711 268.145 79.4167 268.537 79.5078C268.934 79.5944 269.303 79.7129 269.645 79.8633L269.262 80.7725C268.952 80.6403 268.621 80.5286 268.271 80.4375C267.92 80.3464 267.562 80.3008 267.197 80.3008C266.673 80.3008 266.27 80.3874 265.987 80.5605C265.709 80.7337 265.57 80.9707 265.57 81.2715C265.57 81.5039 265.634 81.6953 265.762 81.8457C265.894 81.9961 266.104 82.1374 266.391 82.2695C266.678 82.4017 267.056 82.5566 267.525 82.7344C267.995 82.9076 268.4 83.0876 268.742 83.2744C269.084 83.4567 269.346 83.68 269.528 83.9443C269.715 84.2041 269.809 84.5391 269.809 84.9492ZM274.088 79.5078H275.305L276.959 83.8555C277.055 84.1107 277.144 84.3568 277.226 84.5938C277.308 84.8262 277.381 85.0495 277.444 85.2637C277.508 85.4779 277.558 85.6852 277.595 85.8857H277.643C277.706 85.6579 277.798 85.3594 277.916 84.9902C278.035 84.6165 278.162 84.236 278.299 83.8486L279.864 79.5078H281.088L277.827 88.1006C277.654 88.5609 277.451 88.9619 277.219 89.3037C276.991 89.6455 276.713 89.9076 276.385 90.0898C276.057 90.2767 275.66 90.3701 275.195 90.3701C274.981 90.3701 274.792 90.3564 274.628 90.3291C274.464 90.3063 274.323 90.279 274.204 90.2471V89.3379C274.304 89.3607 274.425 89.3812 274.566 89.3994C274.712 89.4176 274.863 89.4268 275.018 89.4268C275.3 89.4268 275.544 89.3721 275.749 89.2627C275.959 89.1579 276.139 89.0029 276.289 88.7979C276.439 88.5928 276.569 88.349 276.679 88.0664L277.089 87.0137L274.088 79.5078ZM289.469 79.3711C290.357 79.3711 291.03 79.5898 291.485 80.0273C291.941 80.4603 292.169 81.1576 292.169 82.1191V87H291.048V82.1943C291.048 81.57 290.904 81.1029 290.617 80.793C290.335 80.4831 289.899 80.3281 289.312 80.3281C288.482 80.3281 287.899 80.5628 287.562 81.0322C287.224 81.5016 287.056 82.1829 287.056 83.0762V87H285.921V79.5078H286.837L287.008 80.5879H287.069C287.229 80.3236 287.432 80.1025 287.678 79.9248C287.924 79.7425 288.2 79.6058 288.505 79.5146C288.81 79.4189 289.132 79.3711 289.469 79.3711ZM300.693 79.5078V87H299.764L299.6 85.9473H299.538C299.383 86.207 299.183 86.4258 298.937 86.6035C298.69 86.7812 298.412 86.9134 298.103 87C297.797 87.0911 297.471 87.1367 297.125 87.1367C296.533 87.1367 296.036 87.041 295.635 86.8496C295.234 86.6582 294.931 86.362 294.726 85.9609C294.525 85.5599 294.425 85.0449 294.425 84.416V79.5078H295.573V84.334C295.573 84.9583 295.715 85.4255 295.997 85.7354C296.28 86.0407 296.71 86.1934 297.289 86.1934C297.845 86.1934 298.287 86.0885 298.615 85.8789C298.948 85.6693 299.187 85.3617 299.333 84.9561C299.479 84.5459 299.552 84.0446 299.552 83.4521V79.5078H300.693ZM299.586 76.2744V76.4111C299.495 76.5433 299.369 76.7028 299.21 76.8896C299.055 77.0719 298.882 77.2656 298.69 77.4707C298.499 77.6712 298.305 77.8626 298.109 78.0449C297.918 78.2272 297.74 78.3844 297.576 78.5166H296.817V78.3525C296.963 78.1794 297.123 77.972 297.296 77.7305C297.469 77.4844 297.638 77.2337 297.802 76.9785C297.966 76.7188 298.103 76.484 298.212 76.2744H299.586ZM311.228 79.3711C312.052 79.3711 312.674 79.5876 313.094 80.0205C313.513 80.4489 313.723 81.1393 313.723 82.0918V87H312.602V82.1465C312.602 81.5404 312.469 81.0869 312.205 80.7861C311.945 80.4808 311.558 80.3281 311.043 80.3281C310.318 80.3281 309.792 80.5378 309.464 80.957C309.136 81.3763 308.972 81.9938 308.972 82.8096V87H307.844V82.1465C307.844 81.7409 307.785 81.4036 307.666 81.1348C307.552 80.8659 307.379 80.6654 307.146 80.5332C306.919 80.3965 306.629 80.3281 306.278 80.3281C305.782 80.3281 305.383 80.4307 305.082 80.6357C304.781 80.8408 304.562 81.1462 304.426 81.5518C304.294 81.9528 304.228 82.4473 304.228 83.0352V87H303.093V79.5078H304.009L304.18 80.5674H304.241C304.392 80.3076 304.581 80.0889 304.809 79.9111C305.036 79.7334 305.292 79.599 305.574 79.5078C305.857 79.4167 306.158 79.3711 306.477 79.3711C307.046 79.3711 307.522 79.4782 307.905 79.6924C308.293 79.902 308.573 80.2233 308.746 80.6562H308.808C309.054 80.2233 309.391 79.902 309.819 79.6924C310.248 79.4782 310.717 79.3711 311.228 79.3711ZM318.938 79.3711C319.576 79.3711 320.123 79.5124 320.579 79.7949C321.035 80.0775 321.383 80.474 321.625 80.9844C321.867 81.4902 321.987 82.0827 321.987 82.7617V83.4658H316.812C316.826 84.3454 317.045 85.0153 317.469 85.4756C317.893 85.9359 318.49 86.166 319.26 86.166C319.734 86.166 320.153 86.1227 320.518 86.0361C320.882 85.9495 321.26 85.8219 321.652 85.6533V86.6514C321.274 86.82 320.898 86.943 320.524 87.0205C320.155 87.098 319.718 87.1367 319.212 87.1367C318.492 87.1367 317.863 86.9909 317.325 86.6992C316.792 86.403 316.377 85.9701 316.081 85.4004C315.785 84.8307 315.637 84.1335 315.637 83.3086C315.637 82.502 315.771 81.8047 316.04 81.2168C316.313 80.6243 316.696 80.1686 317.188 79.8496C317.685 79.5306 318.269 79.3711 318.938 79.3711ZM318.925 80.3008C318.319 80.3008 317.836 80.499 317.476 80.8955C317.116 81.292 316.901 81.8457 316.833 82.5566H320.798C320.793 82.11 320.723 81.7181 320.586 81.3809C320.454 81.0391 320.251 80.7747 319.978 80.5879C319.704 80.3965 319.353 80.3008 318.925 80.3008ZM327.319 79.3711C327.47 79.3711 327.627 79.3802 327.791 79.3984C327.955 79.4121 328.101 79.4326 328.229 79.46L328.085 80.5127C327.962 80.4808 327.825 80.4557 327.675 80.4375C327.524 80.4193 327.383 80.4102 327.251 80.4102C326.95 80.4102 326.665 80.4717 326.396 80.5947C326.132 80.7132 325.9 80.8864 325.699 81.1143C325.499 81.3376 325.341 81.6087 325.228 81.9277C325.114 82.2422 325.057 82.5931 325.057 82.9805V87H323.915V79.5078H324.858L324.981 80.8887H325.029C325.184 80.6107 325.371 80.3577 325.59 80.1299C325.809 79.8975 326.062 79.7129 326.349 79.5762C326.64 79.4395 326.964 79.3711 327.319 79.3711ZM336.104 83.2402C336.104 83.8555 336.024 84.4046 335.864 84.8877C335.705 85.3708 335.475 85.7786 335.174 86.1113C334.873 86.444 334.508 86.6992 334.08 86.877C333.656 87.0501 333.175 87.1367 332.638 87.1367C332.136 87.1367 331.676 87.0501 331.257 86.877C330.842 86.6992 330.482 86.444 330.177 86.1113C329.876 85.7786 329.641 85.3708 329.473 84.8877C329.309 84.4046 329.227 83.8555 329.227 83.2402C329.227 82.4199 329.366 81.7227 329.644 81.1484C329.922 80.5697 330.318 80.1299 330.833 79.8291C331.353 79.5238 331.97 79.3711 332.686 79.3711C333.369 79.3711 333.966 79.5238 334.477 79.8291C334.992 80.1344 335.39 80.5765 335.673 81.1553C335.96 81.7295 336.104 82.4245 336.104 83.2402ZM330.402 83.2402C330.402 83.8418 330.482 84.3636 330.642 84.8057C330.801 85.2477 331.047 85.5895 331.38 85.8311C331.713 86.0726 332.141 86.1934 332.665 86.1934C333.185 86.1934 333.611 86.0726 333.943 85.8311C334.281 85.5895 334.529 85.2477 334.688 84.8057C334.848 84.3636 334.928 83.8418 334.928 83.2402C334.928 82.6432 334.848 82.1283 334.688 81.6953C334.529 81.2578 334.283 80.9206 333.95 80.6836C333.618 80.4466 333.187 80.3281 332.658 80.3281C331.879 80.3281 331.307 80.5856 330.942 81.1006C330.582 81.6156 330.402 82.3288 330.402 83.2402ZM342.912 84.9492C342.912 85.4277 342.791 85.8311 342.55 86.1592C342.313 86.4827 341.971 86.7266 341.524 86.8906C341.082 87.0547 340.554 87.1367 339.938 87.1367C339.414 87.1367 338.961 87.0957 338.578 87.0137C338.195 86.9316 337.86 86.8154 337.573 86.665V85.6191C337.879 85.7695 338.243 85.9062 338.667 86.0293C339.091 86.1523 339.524 86.2139 339.966 86.2139C340.613 86.2139 341.082 86.109 341.374 85.8994C341.666 85.6898 341.812 85.4049 341.812 85.0449C341.812 84.8398 341.752 84.6598 341.634 84.5049C341.52 84.3454 341.326 84.1927 341.053 84.0469C340.779 83.8965 340.401 83.7324 339.918 83.5547C339.439 83.3724 339.025 83.1924 338.674 83.0146C338.327 82.8324 338.059 82.6113 337.867 82.3516C337.68 82.0918 337.587 81.7546 337.587 81.3398C337.587 80.7064 337.842 80.221 338.353 79.8838C338.868 79.542 339.542 79.3711 340.376 79.3711C340.827 79.3711 341.249 79.4167 341.641 79.5078C342.037 79.5944 342.406 79.7129 342.748 79.8633L342.365 80.7725C342.055 80.6403 341.725 80.5286 341.374 80.4375C341.023 80.3464 340.665 80.3008 340.301 80.3008C339.777 80.3008 339.373 80.3874 339.091 80.5605C338.813 80.7337 338.674 80.9707 338.674 81.2715C338.674 81.5039 338.738 81.6953 338.865 81.8457C338.997 81.9961 339.207 82.1374 339.494 82.2695C339.781 82.4017 340.16 82.5566 340.629 82.7344C341.098 82.9076 341.504 83.0876 341.846 83.2744C342.188 83.4567 342.45 83.68 342.632 83.9443C342.819 84.2041 342.912 84.5391 342.912 84.9492ZM344.566 86.2891C344.566 85.9701 344.644 85.7445 344.799 85.6123C344.954 85.4756 345.143 85.4072 345.366 85.4072C345.599 85.4072 345.795 85.4756 345.954 85.6123C346.114 85.7445 346.193 85.9701 346.193 86.2891C346.193 86.6035 346.114 86.8337 345.954 86.9795C345.795 87.1208 345.599 87.1914 345.366 87.1914C345.143 87.1914 344.954 87.1208 344.799 86.9795C344.644 86.8337 344.566 86.6035 344.566 86.2891Z" fill="#101E37"/>
<rect x="33" y="101" width="377" height="42" rx="7" fill="white"/>
<rect x="33" y="101" width="377" height="42" rx="7" stroke="#101E37" stroke-width="2"/>
<path d="M54.258 127.476C53.4927 127.476 52.774 127.331 52.102 127.042C51.43 126.762 50.8373 126.37 50.324 125.866C49.82 125.353 49.4233 124.76 49.134 124.088C48.854 123.416 48.714 122.697 48.714 121.932C48.714 121.157 48.854 120.439 49.134 119.776C49.4233 119.104 49.82 118.516 50.324 118.012C50.8373 117.499 51.43 117.102 52.102 116.822C52.774 116.533 53.4927 116.388 54.258 116.388C55.0327 116.388 55.7513 116.533 56.414 116.822C57.086 117.102 57.674 117.499 58.178 118.012C58.6913 118.516 59.088 119.104 59.368 119.776C59.6573 120.439 59.802 121.157 59.802 121.932C59.802 122.697 59.6573 123.416 59.368 124.088C59.088 124.76 58.6913 125.353 58.178 125.866C57.674 126.37 57.086 126.762 56.414 127.042C55.7513 127.331 55.0327 127.476 54.258 127.476ZM70.4045 127.476C69.6392 127.476 68.9205 127.331 68.2485 127.042C67.5765 126.762 66.9838 126.37 66.4705 125.866C65.9665 125.353 65.5698 124.76 65.2805 124.088C65.0005 123.416 64.8605 122.697 64.8605 121.932C64.8605 121.157 65.0005 120.439 65.2805 119.776C65.5698 119.104 65.9665 118.516 66.4705 118.012C66.9838 117.499 67.5765 117.102 68.2485 116.822C68.9205 116.533 69.6392 116.388 70.4045 116.388C71.1792 116.388 71.8978 116.533 72.5605 116.822C73.2325 117.102 73.8205 117.499 74.3245 118.012C74.8378 118.516 75.2345 119.104 75.5145 119.776C75.8038 120.439 75.9485 121.157 75.9485 121.932C75.9485 122.697 75.8038 123.416 75.5145 124.088C75.2345 124.76 74.8378 125.353 74.3245 125.866C73.8205 126.37 73.2325 126.762 72.5605 127.042C71.8978 127.331 71.1792 127.476 70.4045 127.476ZM86.551 127.476C85.7856 127.476 85.067 127.331 84.395 127.042C83.723 126.762 83.1303 126.37 82.617 125.866C82.113 125.353 81.7163 124.76 81.427 124.088C81.147 123.416 81.007 122.697 81.007 121.932C81.007 121.157 81.147 120.439 81.427 119.776C81.7163 119.104 82.113 118.516 82.617 118.012C83.1303 117.499 83.723 117.102 84.395 116.822C85.067 116.533 85.7856 116.388 86.551 116.388C87.3256 116.388 88.0443 116.533 88.707 116.822C89.379 117.102 89.967 117.499 90.471 118.012C90.9843 118.516 91.381 119.104 91.661 119.776C91.9503 120.439 92.095 121.157 92.095 121.932C92.095 122.697 91.9503 123.416 91.661 124.088C91.381 124.76 90.9843 125.353 90.471 125.866C89.967 126.37 89.379 126.762 88.707 127.042C88.0443 127.331 87.3256 127.476 86.551 127.476ZM102.697 127.476C101.932 127.476 101.213 127.331 100.541 127.042C99.8695 126.762 99.2768 126.37 98.7635 125.866C98.2595 125.353 97.8628 124.76 97.5735 124.088C97.2935 123.416 97.1535 122.697 97.1535 121.932C97.1535 121.157 97.2935 120.439 97.5735 119.776C97.8628 119.104 98.2595 118.516 98.7635 118.012C99.2768 117.499 99.8695 117.102 100.541 116.822C101.213 116.533 101.932 116.388 102.697 116.388C103.472 116.388 104.191 116.533 104.853 116.822C105.525 117.102 106.113 117.499 106.617 118.012C107.131 118.516 107.527 119.104 107.807 119.776C108.097 120.439 108.241 121.157 108.241 121.932C108.241 122.697 108.097 123.416 107.807 124.088C107.527 124.76 107.131 125.353 106.617 125.866C106.113 126.37 105.525 126.762 104.853 127.042C104.191 127.331 103.472 127.476 102.697 127.476ZM118.844 127.476C118.079 127.476 117.36 127.331 116.688 127.042C116.016 126.762 115.423 126.37 114.91 125.866C114.406 125.353 114.009 124.76 113.72 124.088C113.44 123.416 113.3 122.697 113.3 121.932C113.3 121.157 113.44 120.439 113.72 119.776C114.009 119.104 114.406 118.516 114.91 118.012C115.423 117.499 116.016 117.102 116.688 116.822C117.36 116.533 118.079 116.388 118.844 116.388C119.619 116.388 120.337 116.533 121 116.822C121.672 117.102 122.26 117.499 122.764 118.012C123.277 118.516 123.674 119.104 123.954 119.776C124.243 120.439 124.388 121.157 124.388 121.932C124.388 122.697 124.243 123.416 123.954 124.088C123.674 124.76 123.277 125.353 122.764 125.866C122.26 126.37 121.672 126.762 121 127.042C120.337 127.331 119.619 127.476 118.844 127.476ZM134.99 127.476C134.225 127.476 133.506 127.331 132.834 127.042C132.162 126.762 131.57 126.37 131.056 125.866C130.552 125.353 130.156 124.76 129.866 124.088C129.586 123.416 129.446 122.697 129.446 121.932C129.446 121.157 129.586 120.439 129.866 119.776C130.156 119.104 130.552 118.516 131.056 118.012C131.57 117.499 132.162 117.102 132.834 116.822C133.506 116.533 134.225 116.388 134.99 116.388C135.765 116.388 136.484 116.533 137.146 116.822C137.818 117.102 138.406 117.499 138.91 118.012C139.424 118.516 139.82 119.104 140.1 119.776C140.39 120.439 140.534 121.157 140.534 121.932C140.534 122.697 140.39 123.416 140.1 124.088C139.82 124.76 139.424 125.353 138.91 125.866C138.406 126.37 137.818 126.762 137.146 127.042C136.484 127.331 135.765 127.476 134.99 127.476ZM151.137 127.476C150.372 127.476 149.653 127.331 148.981 127.042C148.309 126.762 147.716 126.37 147.203 125.866C146.699 125.353 146.302 124.76 146.013 124.088C145.733 123.416 145.593 122.697 145.593 121.932C145.593 121.157 145.733 120.439 146.013 119.776C146.302 119.104 146.699 118.516 147.203 118.012C147.716 117.499 148.309 117.102 148.981 116.822C149.653 116.533 150.372 116.388 151.137 116.388C151.912 116.388 152.63 116.533 153.293 116.822C153.965 117.102 154.553 117.499 155.057 118.012C155.57 118.516 155.967 119.104 156.247 119.776C156.536 120.439 156.681 121.157 156.681 121.932C156.681 122.697 156.536 123.416 156.247 124.088C155.967 124.76 155.57 125.353 155.057 125.866C154.553 126.37 153.965 126.762 153.293 127.042C152.63 127.331 151.912 127.476 151.137 127.476ZM167.283 127.476C166.518 127.476 165.799 127.331 165.127 127.042C164.455 126.762 163.863 126.37 163.349 125.866C162.845 125.353 162.449 124.76 162.159 124.088C161.879 123.416 161.739 122.697 161.739 121.932C161.739 121.157 161.879 120.439 162.159 119.776C162.449 119.104 162.845 118.516 163.349 118.012C163.863 117.499 164.455 117.102 165.127 116.822C165.799 116.533 166.518 116.388 167.283 116.388C168.058 116.388 168.777 116.533 169.439 116.822C170.111 117.102 170.699 117.499 171.203 118.012C171.717 118.516 172.113 119.104 172.393 119.776C172.683 120.439 172.827 121.157 172.827 121.932C172.827 122.697 172.683 123.416 172.393 124.088C172.113 124.76 171.717 125.353 171.203 125.866C170.699 126.37 170.111 126.762 169.439 127.042C168.777 127.331 168.058 127.476 167.283 127.476ZM183.43 127.476C182.665 127.476 181.946 127.331 181.274 127.042C180.602 126.762 180.009 126.37 179.496 125.866C178.992 125.353 178.595 124.76 178.306 124.088C178.026 123.416 177.886 122.697 177.886 121.932C177.886 121.157 178.026 120.439 178.306 119.776C178.595 119.104 178.992 118.516 179.496 118.012C180.009 117.499 180.602 117.102 181.274 116.822C181.946 116.533 182.665 116.388 183.43 116.388C184.205 116.388 184.923 116.533 185.586 116.822C186.258 117.102 186.846 117.499 187.35 118.012C187.863 118.516 188.26 119.104 188.54 119.776C188.829 120.439 188.974 121.157 188.974 121.932C188.974 122.697 188.829 123.416 188.54 124.088C188.26 124.76 187.863 125.353 187.35 125.866C186.846 126.37 186.258 126.762 185.586 127.042C184.923 127.331 184.205 127.476 183.43 127.476Z" fill="#101E37"/>
</svg>
