<svg width="443" height="256" viewBox="0 0 443 256" fill="none" xmlns="http://www.w3.org/2000/svg">
<rect x="1" y="1" width="441" height="254" rx="7" fill="#F3F6F9"/>
<rect x="1" y="1" width="441" height="254" rx="7" stroke="#E6EBF0" stroke-width="2"/>
<path d="M39.164 58.162C37.88 58.162 36.782 57.898 35.87 57.37C34.958 56.842 34.256 56.092 33.764 55.12C33.284 54.136 33.044 52.978 33.044 51.646C33.044 50.65 33.182 49.756 33.458 48.964C33.734 48.16 34.13 47.476 34.646 46.912C35.174 46.336 35.816 45.898 36.572 45.598C37.34 45.298 38.204 45.148 39.164 45.148C39.872 45.148 40.55 45.244 41.198 45.436C41.858 45.628 42.428 45.904 42.908 46.264C43.112 46.396 43.244 46.558 43.304 46.75C43.376 46.93 43.388 47.104 43.34 47.272C43.304 47.44 43.226 47.584 43.106 47.704C42.986 47.812 42.83 47.872 42.638 47.884C42.458 47.896 42.26 47.83 42.044 47.686C41.648 47.386 41.21 47.164 40.73 47.02C40.25 46.876 39.746 46.804 39.218 46.804C38.306 46.804 37.538 46.996 36.914 47.38C36.29 47.752 35.816 48.298 35.492 49.018C35.168 49.738 35.006 50.614 35.006 51.646C35.006 52.678 35.168 53.56 35.492 54.292C35.816 55.012 36.29 55.564 36.914 55.948C37.538 56.32 38.306 56.506 39.218 56.506C39.746 56.506 40.25 56.434 40.73 56.29C41.222 56.134 41.684 55.906 42.116 55.606C42.332 55.474 42.524 55.414 42.692 55.426C42.872 55.438 43.022 55.498 43.142 55.606C43.262 55.714 43.34 55.852 43.376 56.02C43.424 56.176 43.418 56.344 43.358 56.524C43.31 56.692 43.196 56.836 43.016 56.956C42.524 57.352 41.942 57.652 41.27 57.856C40.598 58.06 39.896 58.162 39.164 58.162ZM48.6253 58.162C47.7373 58.162 46.9693 57.976 46.3213 57.604C45.6853 57.232 45.1873 56.704 44.8273 56.02C44.4673 55.336 44.2873 54.532 44.2873 53.608C44.2873 52.9 44.3893 52.27 44.5933 51.718C44.7973 51.166 45.0853 50.692 45.4573 50.296C45.8413 49.888 46.2973 49.582 46.8253 49.378C47.3653 49.162 47.9653 49.054 48.6253 49.054C49.5013 49.054 50.2573 49.24 50.8933 49.612C51.5413 49.984 52.0453 50.512 52.4053 51.196C52.7653 51.868 52.9453 52.672 52.9453 53.608C52.9453 54.304 52.8433 54.934 52.6393 55.498C52.4353 56.062 52.1413 56.542 51.7573 56.938C51.3853 57.334 50.9293 57.64 50.3893 57.856C49.8613 58.06 49.2733 58.162 48.6253 58.162ZM48.6253 56.758C49.1173 56.758 49.5493 56.638 49.9213 56.398C50.2933 56.158 50.5813 55.804 50.7853 55.336C51.0013 54.868 51.1093 54.292 51.1093 53.608C51.1093 52.576 50.8813 51.796 50.4253 51.268C49.9693 50.74 49.3693 50.476 48.6253 50.476C48.1213 50.476 47.6833 50.596 47.3113 50.836C46.9393 51.064 46.6453 51.412 46.4293 51.88C46.2253 52.348 46.1233 52.924 46.1233 53.608C46.1233 54.628 46.3513 55.408 46.8073 55.948C47.2633 56.488 47.8693 56.758 48.6253 56.758ZM55.923 58.126C55.635 58.126 55.413 58.048 55.257 57.892C55.101 57.724 55.023 57.496 55.023 57.208V50.008C55.023 49.708 55.101 49.48 55.257 49.324C55.413 49.168 55.629 49.09 55.905 49.09C56.193 49.09 56.409 49.168 56.553 49.324C56.709 49.48 56.787 49.708 56.787 50.008V51.484L56.589 51.088C56.829 50.452 57.201 49.954 57.705 49.594C58.209 49.234 58.815 49.054 59.523 49.054C60.255 49.054 60.849 49.228 61.305 49.576C61.761 49.924 62.073 50.458 62.241 51.178H61.989C62.217 50.518 62.607 50.002 63.159 49.63C63.711 49.246 64.353 49.054 65.085 49.054C65.757 49.054 66.309 49.186 66.741 49.45C67.173 49.702 67.497 50.092 67.713 50.62C67.929 51.136 68.037 51.79 68.037 52.582V57.208C68.037 57.496 67.953 57.724 67.785 57.892C67.629 58.048 67.407 58.126 67.119 58.126C66.831 58.126 66.609 58.048 66.453 57.892C66.297 57.724 66.219 57.496 66.219 57.208V52.672C66.219 51.928 66.087 51.382 65.823 51.034C65.571 50.686 65.151 50.512 64.563 50.512C63.903 50.512 63.381 50.74 62.997 51.196C62.613 51.652 62.421 52.282 62.421 53.086V57.208C62.421 57.496 62.343 57.724 62.187 57.892C62.031 58.048 61.809 58.126 61.521 58.126C61.233 58.126 61.005 58.048 60.837 57.892C60.681 57.724 60.603 57.496 60.603 57.208V52.672C60.603 51.928 60.477 51.382 60.225 51.034C59.973 50.686 59.553 50.512 58.965 50.512C58.305 50.512 57.783 50.74 57.399 51.196C57.027 51.652 56.841 52.282 56.841 53.086V57.208C56.841 57.82 56.535 58.126 55.923 58.126ZM74.7008 58.162C73.7408 58.162 72.9128 57.982 72.2168 57.622C71.5328 57.25 70.9988 56.728 70.6148 56.056C70.2428 55.372 70.0568 54.562 70.0568 53.626C70.0568 52.714 70.2428 51.916 70.6148 51.232C70.9868 50.548 71.4968 50.014 72.1448 49.63C72.7928 49.246 73.5308 49.054 74.3588 49.054C74.9708 49.054 75.5168 49.156 75.9968 49.36C76.4768 49.552 76.8848 49.84 77.2208 50.224C77.5688 50.596 77.8268 51.052 77.9948 51.592C78.1748 52.132 78.2648 52.738 78.2648 53.41C78.2648 53.614 78.2048 53.77 78.0848 53.878C77.9648 53.974 77.7848 54.022 77.5448 54.022H71.4968V52.906H77.0408L76.7348 53.158C76.7348 52.558 76.6448 52.048 76.4648 51.628C76.2968 51.208 76.0388 50.89 75.6908 50.674C75.3548 50.446 74.9348 50.332 74.4308 50.332C73.8668 50.332 73.3868 50.464 72.9908 50.728C72.6068 50.992 72.3128 51.358 72.1088 51.826C71.9048 52.294 71.8028 52.84 71.8028 53.464V53.572C71.8028 54.628 72.0488 55.426 72.5408 55.966C73.0448 56.494 73.7708 56.758 74.7188 56.758C75.0788 56.758 75.4568 56.71 75.8528 56.614C76.2608 56.518 76.6448 56.356 77.0048 56.128C77.2088 56.008 77.3888 55.954 77.5448 55.966C77.7128 55.978 77.8448 56.032 77.9408 56.128C78.0488 56.224 78.1148 56.344 78.1388 56.488C78.1628 56.632 78.1388 56.782 78.0668 56.938C77.9948 57.082 77.8688 57.214 77.6888 57.334C77.2808 57.61 76.8068 57.82 76.2668 57.964C75.7268 58.096 75.2048 58.162 74.7008 58.162ZM81.1468 58.126C80.8588 58.126 80.6368 58.048 80.4808 57.892C80.3248 57.724 80.2468 57.496 80.2468 57.208V50.008C80.2468 49.708 80.3248 49.48 80.4808 49.324C80.6368 49.168 80.8528 49.09 81.1288 49.09C81.4168 49.09 81.6328 49.168 81.7768 49.324C81.9328 49.48 82.0108 49.708 82.0108 50.008V51.412L81.8128 51.088C82.0768 50.416 82.4908 49.912 83.0548 49.576C83.6188 49.228 84.2668 49.054 84.9988 49.054C85.6948 49.054 86.2708 49.186 86.7268 49.45C87.1948 49.702 87.5428 50.092 87.7708 50.62C87.9988 51.136 88.1128 51.79 88.1128 52.582V57.208C88.1128 57.496 88.0348 57.724 87.8788 57.892C87.7228 58.048 87.5008 58.126 87.2128 58.126C86.9128 58.126 86.6848 58.048 86.5288 57.892C86.3728 57.724 86.2948 57.496 86.2948 57.208V52.69C86.2948 51.934 86.1448 51.382 85.8448 51.034C85.5568 50.686 85.1008 50.512 84.4768 50.512C83.7448 50.512 83.1568 50.74 82.7128 51.196C82.2808 51.652 82.0648 52.264 82.0648 53.032V57.208C82.0648 57.82 81.7588 58.126 81.1468 58.126ZM94.3618 58.162C93.6418 58.162 93.0358 58.036 92.5438 57.784C92.0518 57.532 91.6858 57.16 91.4458 56.668C91.2058 56.176 91.0858 55.576 91.0858 54.868V50.62H90.0058C89.7658 50.62 89.5798 50.56 89.4478 50.44C89.3158 50.308 89.2498 50.134 89.2498 49.918C89.2498 49.69 89.3158 49.516 89.4478 49.396C89.5798 49.276 89.7658 49.216 90.0058 49.216H91.0858V47.362C91.0858 47.062 91.1638 46.834 91.3198 46.678C91.4878 46.522 91.7158 46.444 92.0038 46.444C92.2918 46.444 92.5138 46.522 92.6698 46.678C92.8258 46.834 92.9038 47.062 92.9038 47.362V49.216H95.0098C95.2498 49.216 95.4358 49.276 95.5678 49.396C95.6998 49.516 95.7658 49.69 95.7658 49.918C95.7658 50.134 95.6998 50.308 95.5678 50.44C95.4358 50.56 95.2498 50.62 95.0098 50.62H92.9038V54.724C92.9038 55.36 93.0358 55.84 93.2998 56.164C93.5758 56.488 94.0198 56.65 94.6318 56.65C94.8478 56.65 95.0338 56.632 95.1898 56.596C95.3578 56.548 95.4958 56.518 95.6038 56.506C95.7358 56.506 95.8438 56.554 95.9278 56.65C96.0118 56.734 96.0538 56.902 96.0538 57.154C96.0538 57.334 96.0178 57.502 95.9458 57.658C95.8858 57.814 95.7718 57.916 95.6038 57.964C95.4598 58.012 95.2618 58.054 95.0098 58.09C94.7698 58.138 94.5538 58.162 94.3618 58.162ZM100 58.162C99.3881 58.162 98.8361 58.042 98.3441 57.802C97.8641 57.562 97.4861 57.238 97.2101 56.83C96.9341 56.422 96.7961 55.96 96.7961 55.444C96.7961 54.796 96.9581 54.286 97.2821 53.914C97.6181 53.53 98.1641 53.26 98.9201 53.104C99.6881 52.936 100.72 52.852 102.016 52.852H102.862V53.968H102.034C101.17 53.968 100.486 54.01 99.9821 54.094C99.4781 54.178 99.1181 54.322 98.9021 54.526C98.6981 54.718 98.5961 54.988 98.5961 55.336C98.5961 55.792 98.7521 56.164 99.0641 56.452C99.3761 56.728 99.8081 56.866 100.36 56.866C100.804 56.866 101.194 56.764 101.53 56.56C101.866 56.344 102.13 56.056 102.322 55.696C102.526 55.336 102.628 54.922 102.628 54.454V52.384C102.628 51.7 102.484 51.208 102.196 50.908C101.908 50.608 101.434 50.458 100.774 50.458C100.39 50.458 99.9881 50.506 99.5681 50.602C99.1601 50.698 98.7341 50.86 98.2901 51.088C98.0861 51.184 97.9121 51.214 97.7681 51.178C97.6241 51.142 97.5101 51.064 97.4261 50.944C97.3421 50.812 97.2941 50.674 97.2821 50.53C97.2821 50.374 97.3181 50.224 97.3901 50.08C97.4741 49.936 97.6121 49.828 97.8041 49.756C98.3321 49.504 98.8541 49.324 99.3701 49.216C99.8861 49.108 100.372 49.054 100.828 49.054C101.632 49.054 102.292 49.18 102.808 49.432C103.336 49.684 103.726 50.068 103.978 50.584C104.23 51.1 104.356 51.766 104.356 52.582V57.208C104.356 57.496 104.284 57.724 104.14 57.892C103.996 58.048 103.786 58.126 103.51 58.126C103.246 58.126 103.036 58.048 102.88 57.892C102.724 57.724 102.646 57.496 102.646 57.208V56.038H102.808C102.712 56.482 102.532 56.866 102.268 57.19C102.016 57.502 101.698 57.742 101.314 57.91C100.93 58.078 100.492 58.162 100 58.162ZM107.778 58.126C107.478 58.126 107.25 58.048 107.094 57.892C106.938 57.724 106.86 57.496 106.86 57.208V50.008C106.86 49.708 106.938 49.48 107.094 49.324C107.25 49.168 107.466 49.09 107.742 49.09C108.03 49.09 108.246 49.168 108.39 49.324C108.546 49.48 108.624 49.708 108.624 50.008V51.322H108.444C108.636 50.602 108.99 50.056 109.506 49.684C110.022 49.312 110.682 49.096 111.486 49.036C111.702 49.024 111.87 49.078 111.99 49.198C112.122 49.318 112.194 49.504 112.206 49.756C112.23 50.008 112.176 50.212 112.044 50.368C111.912 50.512 111.708 50.596 111.432 50.62L111.09 50.656C110.31 50.728 109.716 50.974 109.308 51.394C108.9 51.814 108.696 52.39 108.696 53.122V57.208C108.696 57.496 108.618 57.724 108.462 57.892C108.318 58.048 108.09 58.126 107.778 58.126ZM114.475 58.108C114.187 58.108 113.965 58.024 113.809 57.856C113.653 57.676 113.575 57.43 113.575 57.118V50.098C113.575 49.786 113.653 49.546 113.809 49.378C113.965 49.21 114.187 49.126 114.475 49.126C114.763 49.126 114.985 49.21 115.141 49.378C115.309 49.546 115.393 49.786 115.393 50.098V57.118C115.393 57.43 115.315 57.676 115.159 57.856C115.003 58.024 114.775 58.108 114.475 58.108ZM114.475 47.254C114.115 47.254 113.833 47.164 113.629 46.984C113.437 46.804 113.341 46.552 113.341 46.228C113.341 45.892 113.437 45.64 113.629 45.472C113.833 45.292 114.115 45.202 114.475 45.202C114.835 45.202 115.111 45.292 115.303 45.472C115.507 45.64 115.609 45.892 115.609 46.228C115.609 46.552 115.507 46.804 115.303 46.984C115.111 47.164 114.835 47.254 114.475 47.254ZM121.768 58.162C120.88 58.162 120.112 57.976 119.464 57.604C118.828 57.232 118.33 56.704 117.97 56.02C117.61 55.336 117.43 54.532 117.43 53.608C117.43 52.9 117.532 52.27 117.736 51.718C117.94 51.166 118.228 50.692 118.6 50.296C118.984 49.888 119.44 49.582 119.968 49.378C120.508 49.162 121.108 49.054 121.768 49.054C122.644 49.054 123.4 49.24 124.036 49.612C124.684 49.984 125.188 50.512 125.548 51.196C125.908 51.868 126.088 52.672 126.088 53.608C126.088 54.304 125.986 54.934 125.782 55.498C125.578 56.062 125.284 56.542 124.9 56.938C124.528 57.334 124.072 57.64 123.532 57.856C123.004 58.06 122.416 58.162 121.768 58.162ZM121.768 56.758C122.26 56.758 122.692 56.638 123.064 56.398C123.436 56.158 123.724 55.804 123.928 55.336C124.144 54.868 124.252 54.292 124.252 53.608C124.252 52.576 124.024 51.796 123.568 51.268C123.112 50.74 122.512 50.476 121.768 50.476C121.264 50.476 120.826 50.596 120.454 50.836C120.082 51.064 119.788 51.412 119.572 51.88C119.368 52.348 119.266 52.924 119.266 53.608C119.266 54.628 119.494 55.408 119.95 55.948C120.406 56.488 121.012 56.758 121.768 56.758ZM131.208 58.162C130.68 58.162 130.134 58.102 129.57 57.982C129.018 57.862 128.508 57.658 128.04 57.37C127.884 57.262 127.776 57.142 127.716 57.01C127.656 56.878 127.632 56.746 127.644 56.614C127.668 56.47 127.722 56.35 127.806 56.254C127.902 56.146 128.016 56.08 128.148 56.056C128.292 56.032 128.442 56.062 128.598 56.146C129.066 56.41 129.516 56.596 129.948 56.704C130.38 56.8 130.806 56.848 131.226 56.848C131.862 56.848 132.342 56.734 132.666 56.506C132.99 56.278 133.152 55.972 133.152 55.588C133.152 55.276 133.044 55.036 132.828 54.868C132.612 54.688 132.288 54.55 131.856 54.454L130.146 54.112C129.402 53.956 128.838 53.68 128.454 53.284C128.07 52.888 127.878 52.384 127.878 51.772C127.878 51.22 128.028 50.74 128.328 50.332C128.628 49.924 129.048 49.612 129.588 49.396C130.128 49.168 130.752 49.054 131.46 49.054C131.988 49.054 132.486 49.12 132.954 49.252C133.422 49.384 133.854 49.582 134.25 49.846C134.406 49.93 134.508 50.044 134.556 50.188C134.604 50.32 134.61 50.452 134.574 50.584C134.55 50.716 134.49 50.836 134.394 50.944C134.298 51.04 134.178 51.1 134.034 51.124C133.902 51.136 133.752 51.1 133.584 51.016C133.224 50.788 132.864 50.626 132.504 50.53C132.156 50.434 131.808 50.386 131.46 50.386C130.824 50.386 130.344 50.506 130.02 50.746C129.708 50.974 129.552 51.286 129.552 51.682C129.552 51.982 129.648 52.228 129.84 52.42C130.032 52.612 130.332 52.75 130.74 52.834L132.45 53.176C133.23 53.332 133.818 53.596 134.214 53.968C134.622 54.34 134.826 54.844 134.826 55.48C134.826 56.308 134.496 56.962 133.836 57.442C133.176 57.922 132.3 58.162 131.208 58.162ZM144.402 58.162C143.79 58.162 143.238 58.042 142.746 57.802C142.266 57.562 141.888 57.238 141.612 56.83C141.336 56.422 141.198 55.96 141.198 55.444C141.198 54.796 141.36 54.286 141.684 53.914C142.02 53.53 142.566 53.26 143.322 53.104C144.09 52.936 145.122 52.852 146.418 52.852H147.264V53.968H146.436C145.572 53.968 144.888 54.01 144.384 54.094C143.88 54.178 143.52 54.322 143.304 54.526C143.1 54.718 142.998 54.988 142.998 55.336C142.998 55.792 143.154 56.164 143.466 56.452C143.778 56.728 144.21 56.866 144.762 56.866C145.206 56.866 145.596 56.764 145.932 56.56C146.268 56.344 146.532 56.056 146.724 55.696C146.928 55.336 147.03 54.922 147.03 54.454V52.384C147.03 51.7 146.886 51.208 146.598 50.908C146.31 50.608 145.836 50.458 145.176 50.458C144.792 50.458 144.39 50.506 143.97 50.602C143.562 50.698 143.136 50.86 142.692 51.088C142.488 51.184 142.314 51.214 142.17 51.178C142.026 51.142 141.912 51.064 141.828 50.944C141.744 50.812 141.696 50.674 141.684 50.53C141.684 50.374 141.72 50.224 141.792 50.08C141.876 49.936 142.014 49.828 142.206 49.756C142.734 49.504 143.256 49.324 143.772 49.216C144.288 49.108 144.774 49.054 145.23 49.054C146.034 49.054 146.694 49.18 147.21 49.432C147.738 49.684 148.128 50.068 148.38 50.584C148.632 51.1 148.758 51.766 148.758 52.582V57.208C148.758 57.496 148.686 57.724 148.542 57.892C148.398 58.048 148.188 58.126 147.912 58.126C147.648 58.126 147.438 58.048 147.282 57.892C147.126 57.724 147.048 57.496 147.048 57.208V56.038H147.21C147.114 56.482 146.934 56.866 146.67 57.19C146.418 57.502 146.1 57.742 145.716 57.91C145.332 58.078 144.894 58.162 144.402 58.162ZM154.61 58.162C153.842 58.162 153.164 57.982 152.576 57.622C152 57.25 151.55 56.722 151.226 56.038C150.902 55.342 150.74 54.532 150.74 53.608C150.74 52.66 150.902 51.85 151.226 51.178C151.55 50.506 152 49.984 152.576 49.612C153.164 49.24 153.842 49.054 154.61 49.054C155.378 49.054 156.038 49.246 156.59 49.63C157.154 50.002 157.532 50.506 157.724 51.142H157.526V46.102C157.526 45.802 157.604 45.574 157.76 45.418C157.916 45.262 158.138 45.184 158.426 45.184C158.714 45.184 158.936 45.262 159.092 45.418C159.26 45.574 159.344 45.802 159.344 46.102V57.208C159.344 57.496 159.266 57.724 159.11 57.892C158.954 58.048 158.732 58.126 158.444 58.126C158.156 58.126 157.934 58.048 157.778 57.892C157.622 57.724 157.544 57.496 157.544 57.208V55.624L157.742 56.02C157.55 56.668 157.172 57.19 156.608 57.586C156.056 57.97 155.39 58.162 154.61 58.162ZM155.078 56.758C155.57 56.758 156.002 56.638 156.374 56.398C156.746 56.158 157.034 55.804 157.238 55.336C157.454 54.868 157.562 54.292 157.562 53.608C157.562 52.576 157.334 51.796 156.878 51.268C156.422 50.74 155.822 50.476 155.078 50.476C154.574 50.476 154.136 50.596 153.764 50.836C153.392 51.064 153.098 51.412 152.882 51.88C152.678 52.348 152.576 52.924 152.576 53.608C152.576 54.628 152.804 55.408 153.26 55.948C153.716 56.488 154.322 56.758 155.078 56.758ZM162.797 58.108C162.509 58.108 162.287 58.024 162.131 57.856C161.975 57.676 161.897 57.43 161.897 57.118V50.098C161.897 49.786 161.975 49.546 162.131 49.378C162.287 49.21 162.509 49.126 162.797 49.126C163.085 49.126 163.307 49.21 163.463 49.378C163.631 49.546 163.715 49.786 163.715 50.098V57.118C163.715 57.43 163.637 57.676 163.481 57.856C163.325 58.024 163.097 58.108 162.797 58.108ZM162.797 47.254C162.437 47.254 162.155 47.164 161.951 46.984C161.759 46.804 161.663 46.552 161.663 46.228C161.663 45.892 161.759 45.64 161.951 45.472C162.155 45.292 162.437 45.202 162.797 45.202C163.157 45.202 163.433 45.292 163.625 45.472C163.829 45.64 163.931 45.892 163.931 46.228C163.931 46.552 163.829 46.804 163.625 46.984C163.433 47.164 163.157 47.254 162.797 47.254ZM170.144 58.162C169.244 58.162 168.464 57.976 167.804 57.604C167.156 57.22 166.652 56.686 166.292 56.002C165.932 55.306 165.752 54.49 165.752 53.554C165.752 52.858 165.854 52.234 166.058 51.682C166.262 51.118 166.55 50.644 166.922 50.26C167.306 49.876 167.768 49.582 168.308 49.378C168.86 49.162 169.472 49.054 170.144 49.054C170.564 49.054 171.002 49.12 171.458 49.252C171.926 49.372 172.358 49.576 172.754 49.864C172.91 49.96 173.006 50.08 173.042 50.224C173.09 50.356 173.096 50.494 173.06 50.638C173.036 50.782 172.97 50.908 172.862 51.016C172.766 51.112 172.646 51.172 172.502 51.196C172.358 51.208 172.202 51.166 172.034 51.07C171.746 50.866 171.452 50.722 171.152 50.638C170.852 50.542 170.564 50.494 170.288 50.494C169.856 50.494 169.472 50.566 169.136 50.71C168.812 50.842 168.536 51.04 168.308 51.304C168.08 51.556 167.906 51.874 167.786 52.258C167.678 52.642 167.624 53.08 167.624 53.572C167.624 54.556 167.852 55.33 168.308 55.894C168.776 56.446 169.436 56.722 170.288 56.722C170.564 56.722 170.852 56.68 171.152 56.596C171.452 56.512 171.746 56.368 172.034 56.164C172.202 56.068 172.358 56.032 172.502 56.056C172.646 56.08 172.76 56.146 172.844 56.254C172.94 56.35 173 56.47 173.024 56.614C173.06 56.746 173.054 56.884 173.006 57.028C172.958 57.172 172.856 57.292 172.7 57.388C172.316 57.664 171.896 57.862 171.44 57.982C170.996 58.102 170.564 58.162 170.144 58.162ZM175.576 58.108C175.288 58.108 175.066 58.024 174.91 57.856C174.754 57.676 174.676 57.43 174.676 57.118V50.098C174.676 49.786 174.754 49.546 174.91 49.378C175.066 49.21 175.288 49.126 175.576 49.126C175.864 49.126 176.086 49.21 176.242 49.378C176.41 49.546 176.494 49.786 176.494 50.098V57.118C176.494 57.43 176.416 57.676 176.26 57.856C176.104 58.024 175.876 58.108 175.576 58.108ZM175.576 47.254C175.216 47.254 174.934 47.164 174.73 46.984C174.538 46.804 174.442 46.552 174.442 46.228C174.442 45.892 174.538 45.64 174.73 45.472C174.934 45.292 175.216 45.202 175.576 45.202C175.936 45.202 176.212 45.292 176.404 45.472C176.608 45.64 176.71 45.892 176.71 46.228C176.71 46.552 176.608 46.804 176.404 46.984C176.212 47.164 175.936 47.254 175.576 47.254ZM182.869 58.162C181.981 58.162 181.213 57.976 180.565 57.604C179.929 57.232 179.431 56.704 179.071 56.02C178.711 55.336 178.531 54.532 178.531 53.608C178.531 52.9 178.633 52.27 178.837 51.718C179.041 51.166 179.329 50.692 179.701 50.296C180.085 49.888 180.541 49.582 181.069 49.378C181.609 49.162 182.209 49.054 182.869 49.054C183.745 49.054 184.501 49.24 185.137 49.612C185.785 49.984 186.289 50.512 186.649 51.196C187.009 51.868 187.189 52.672 187.189 53.608C187.189 54.304 187.087 54.934 186.883 55.498C186.679 56.062 186.385 56.542 186.001 56.938C185.629 57.334 185.173 57.64 184.633 57.856C184.105 58.06 183.517 58.162 182.869 58.162ZM182.869 56.758C183.361 56.758 183.793 56.638 184.165 56.398C184.537 56.158 184.825 55.804 185.029 55.336C185.245 54.868 185.353 54.292 185.353 53.608C185.353 52.576 185.125 51.796 184.669 51.268C184.213 50.74 183.613 50.476 182.869 50.476C182.365 50.476 181.927 50.596 181.555 50.836C181.183 51.064 180.889 51.412 180.673 51.88C180.469 52.348 180.367 52.924 180.367 53.608C180.367 54.628 180.595 55.408 181.051 55.948C181.507 56.488 182.113 56.758 182.869 56.758ZM190.131 58.126C189.843 58.126 189.621 58.048 189.465 57.892C189.309 57.724 189.231 57.496 189.231 57.208V50.008C189.231 49.708 189.309 49.48 189.465 49.324C189.621 49.168 189.837 49.09 190.113 49.09C190.401 49.09 190.617 49.168 190.761 49.324C190.917 49.48 190.995 49.708 190.995 50.008V51.412L190.797 51.088C191.061 50.416 191.475 49.912 192.039 49.576C192.603 49.228 193.251 49.054 193.983 49.054C194.679 49.054 195.255 49.186 195.711 49.45C196.179 49.702 196.527 50.092 196.755 50.62C196.983 51.136 197.097 51.79 197.097 52.582V57.208C197.097 57.496 197.019 57.724 196.863 57.892C196.707 58.048 196.485 58.126 196.197 58.126C195.897 58.126 195.669 58.048 195.513 57.892C195.357 57.724 195.279 57.496 195.279 57.208V52.69C195.279 51.934 195.129 51.382 194.829 51.034C194.541 50.686 194.085 50.512 193.461 50.512C192.729 50.512 192.141 50.74 191.697 51.196C191.265 51.652 191.049 52.264 191.049 53.032V57.208C191.049 57.82 190.743 58.126 190.131 58.126ZM202.41 58.162C201.798 58.162 201.246 58.042 200.754 57.802C200.274 57.562 199.896 57.238 199.62 56.83C199.344 56.422 199.206 55.96 199.206 55.444C199.206 54.796 199.368 54.286 199.692 53.914C200.028 53.53 200.574 53.26 201.33 53.104C202.098 52.936 203.13 52.852 204.426 52.852H205.272V53.968H204.444C203.58 53.968 202.896 54.01 202.392 54.094C201.888 54.178 201.528 54.322 201.312 54.526C201.108 54.718 201.006 54.988 201.006 55.336C201.006 55.792 201.162 56.164 201.474 56.452C201.786 56.728 202.218 56.866 202.77 56.866C203.214 56.866 203.604 56.764 203.94 56.56C204.276 56.344 204.54 56.056 204.732 55.696C204.936 55.336 205.038 54.922 205.038 54.454V52.384C205.038 51.7 204.894 51.208 204.606 50.908C204.318 50.608 203.844 50.458 203.184 50.458C202.8 50.458 202.398 50.506 201.978 50.602C201.57 50.698 201.144 50.86 200.7 51.088C200.496 51.184 200.322 51.214 200.178 51.178C200.034 51.142 199.92 51.064 199.836 50.944C199.752 50.812 199.704 50.674 199.692 50.53C199.692 50.374 199.728 50.224 199.8 50.08C199.884 49.936 200.022 49.828 200.214 49.756C200.742 49.504 201.264 49.324 201.78 49.216C202.296 49.108 202.782 49.054 203.238 49.054C204.042 49.054 204.702 49.18 205.218 49.432C205.746 49.684 206.136 50.068 206.388 50.584C206.64 51.1 206.766 51.766 206.766 52.582V57.208C206.766 57.496 206.694 57.724 206.55 57.892C206.406 58.048 206.196 58.126 205.92 58.126C205.656 58.126 205.446 58.048 205.29 57.892C205.134 57.724 205.056 57.496 205.056 57.208V56.038H205.218C205.122 56.482 204.942 56.866 204.678 57.19C204.426 57.502 204.108 57.742 203.724 57.91C203.34 58.078 202.902 58.162 202.41 58.162ZM212.096 58.162C211.16 58.162 210.452 57.892 209.972 57.352C209.504 56.8 209.27 56.008 209.27 54.976V46.102C209.27 45.802 209.348 45.574 209.504 45.418C209.66 45.262 209.882 45.184 210.17 45.184C210.458 45.184 210.68 45.262 210.836 45.418C211.004 45.574 211.088 45.802 211.088 46.102V54.868C211.088 55.468 211.208 55.918 211.448 56.218C211.7 56.506 212.06 56.65 212.528 56.65C212.636 56.65 212.732 56.65 212.816 56.65C212.9 56.638 212.984 56.626 213.068 56.614C213.212 56.602 213.314 56.644 213.374 56.74C213.434 56.824 213.464 57.004 213.464 57.28C213.464 57.532 213.41 57.73 213.302 57.874C213.194 58.006 213.02 58.09 212.78 58.126C212.672 58.138 212.558 58.144 212.438 58.144C212.318 58.156 212.204 58.162 212.096 58.162ZM218.806 58.162C217.846 58.162 217.018 57.982 216.322 57.622C215.638 57.25 215.104 56.728 214.72 56.056C214.348 55.372 214.162 54.562 214.162 53.626C214.162 52.714 214.348 51.916 214.72 51.232C215.092 50.548 215.602 50.014 216.25 49.63C216.898 49.246 217.636 49.054 218.464 49.054C219.076 49.054 219.622 49.156 220.102 49.36C220.582 49.552 220.99 49.84 221.326 50.224C221.674 50.596 221.932 51.052 222.1 51.592C222.28 52.132 222.37 52.738 222.37 53.41C222.37 53.614 222.31 53.77 222.19 53.878C222.07 53.974 221.89 54.022 221.65 54.022H215.602V52.906H221.146L220.84 53.158C220.84 52.558 220.75 52.048 220.57 51.628C220.402 51.208 220.144 50.89 219.796 50.674C219.46 50.446 219.04 50.332 218.536 50.332C217.972 50.332 217.492 50.464 217.096 50.728C216.712 50.992 216.418 51.358 216.214 51.826C216.01 52.294 215.908 52.84 215.908 53.464V53.572C215.908 54.628 216.154 55.426 216.646 55.966C217.15 56.494 217.876 56.758 218.824 56.758C219.184 56.758 219.562 56.71 219.958 56.614C220.366 56.518 220.75 56.356 221.11 56.128C221.314 56.008 221.494 55.954 221.65 55.966C221.818 55.978 221.95 56.032 222.046 56.128C222.154 56.224 222.22 56.344 222.244 56.488C222.268 56.632 222.244 56.782 222.172 56.938C222.1 57.082 221.974 57.214 221.794 57.334C221.386 57.61 220.912 57.82 220.372 57.964C219.832 58.096 219.31 58.162 218.806 58.162ZM227.43 58.162C226.902 58.162 226.356 58.102 225.792 57.982C225.24 57.862 224.73 57.658 224.262 57.37C224.106 57.262 223.998 57.142 223.938 57.01C223.878 56.878 223.854 56.746 223.866 56.614C223.89 56.47 223.944 56.35 224.028 56.254C224.124 56.146 224.238 56.08 224.37 56.056C224.514 56.032 224.664 56.062 224.82 56.146C225.288 56.41 225.738 56.596 226.17 56.704C226.602 56.8 227.028 56.848 227.448 56.848C228.084 56.848 228.564 56.734 228.888 56.506C229.212 56.278 229.374 55.972 229.374 55.588C229.374 55.276 229.266 55.036 229.05 54.868C228.834 54.688 228.51 54.55 228.078 54.454L226.368 54.112C225.624 53.956 225.06 53.68 224.676 53.284C224.292 52.888 224.1 52.384 224.1 51.772C224.1 51.22 224.25 50.74 224.55 50.332C224.85 49.924 225.27 49.612 225.81 49.396C226.35 49.168 226.974 49.054 227.682 49.054C228.21 49.054 228.708 49.12 229.176 49.252C229.644 49.384 230.076 49.582 230.472 49.846C230.628 49.93 230.73 50.044 230.778 50.188C230.826 50.32 230.832 50.452 230.796 50.584C230.772 50.716 230.712 50.836 230.616 50.944C230.52 51.04 230.4 51.1 230.256 51.124C230.124 51.136 229.974 51.1 229.806 51.016C229.446 50.788 229.086 50.626 228.726 50.53C228.378 50.434 228.03 50.386 227.682 50.386C227.046 50.386 226.566 50.506 226.242 50.746C225.93 50.974 225.774 51.286 225.774 51.682C225.774 51.982 225.87 52.228 226.062 52.42C226.254 52.612 226.554 52.75 226.962 52.834L228.672 53.176C229.452 53.332 230.04 53.596 230.436 53.968C230.844 54.34 231.048 54.844 231.048 55.48C231.048 56.308 230.718 56.962 230.058 57.442C229.398 57.922 228.522 58.162 227.43 58.162Z" fill="#101E37"/>
<g clip-path="url(#clip0_2269_21920)">
<rect x="32" y="72" width="379" height="144" rx="8" fill="white"/>
<path d="M55.9219 98H49.5625V86.5781H55.9219V87.75H50.8906V91.4453H55.6328V92.6016H50.8906V96.8281H55.9219V98ZM63.7969 95.6562C63.7969 96.2031 63.6589 96.6641 63.3828 97.0391C63.112 97.4089 62.7214 97.6875 62.2109 97.875C61.7057 98.0625 61.1016 98.1562 60.3984 98.1562C59.7995 98.1562 59.2812 98.1094 58.8438 98.0156C58.4062 97.9219 58.0234 97.7891 57.6953 97.6172V96.4219C58.0443 96.5938 58.4609 96.75 58.9453 96.8906C59.4297 97.0312 59.9245 97.1016 60.4297 97.1016C61.1693 97.1016 61.7057 96.9818 62.0391 96.7422C62.3724 96.5026 62.5391 96.1771 62.5391 95.7656C62.5391 95.5312 62.4714 95.3255 62.3359 95.1484C62.2057 94.9661 61.9844 94.7917 61.6719 94.625C61.3594 94.4531 60.9271 94.2656 60.375 94.0625C59.8281 93.8542 59.3542 93.6484 58.9531 93.4453C58.5573 93.237 58.25 92.9844 58.0312 92.6875C57.8177 92.3906 57.7109 92.0052 57.7109 91.5312C57.7109 90.8073 58.0026 90.2526 58.5859 89.8672C59.1745 89.4766 59.9453 89.2812 60.8984 89.2812C61.4141 89.2812 61.8958 89.3333 62.3438 89.4375C62.7969 89.5365 63.2188 89.6719 63.6094 89.8438L63.1719 90.8828C62.8177 90.7318 62.4401 90.6042 62.0391 90.5C61.638 90.3958 61.2292 90.3438 60.8125 90.3438C60.2135 90.3438 59.7526 90.4427 59.4297 90.6406C59.112 90.8385 58.9531 91.1094 58.9531 91.4531C58.9531 91.7188 59.026 91.9375 59.1719 92.1094C59.3229 92.2812 59.5625 92.4427 59.8906 92.5938C60.2188 92.7448 60.651 92.9219 61.1875 93.125C61.724 93.3229 62.1875 93.5286 62.5781 93.7422C62.9688 93.9505 63.2682 94.2057 63.4766 94.5078C63.6901 94.8047 63.7969 95.1875 63.7969 95.6562ZM69.3125 98.1562C68.5417 98.1562 67.862 97.9974 67.2734 97.6797C66.6849 97.362 66.2266 96.8776 65.8984 96.2266C65.5703 95.5755 65.4062 94.7552 65.4062 93.7656C65.4062 92.7292 65.5781 91.8828 65.9219 91.2266C66.2708 90.5651 66.75 90.0755 67.3594 89.7578C67.9688 89.4401 68.6615 89.2812 69.4375 89.2812C69.8646 89.2812 70.276 89.3255 70.6719 89.4141C71.0729 89.4974 71.401 89.6042 71.6562 89.7344L71.2656 90.8203C71.0052 90.7161 70.7031 90.6224 70.3594 90.5391C70.0208 90.4557 69.7031 90.4141 69.4062 90.4141C68.8125 90.4141 68.3177 90.5417 67.9219 90.7969C67.5312 91.0521 67.237 91.4271 67.0391 91.9219C66.8464 92.4167 66.75 93.026 66.75 93.75C66.75 94.4427 66.8438 95.0339 67.0312 95.5234C67.224 96.013 67.5078 96.388 67.8828 96.6484C68.263 96.9036 68.737 97.0312 69.3047 97.0312C69.7578 97.0312 70.1667 96.9844 70.5312 96.8906C70.8958 96.7917 71.2266 96.6771 71.5234 96.5469V97.7031C71.237 97.849 70.9167 97.9609 70.5625 98.0391C70.2135 98.1172 69.7969 98.1562 69.3125 98.1562ZM77.4453 89.2812C77.6172 89.2812 77.7969 89.2917 77.9844 89.3125C78.1719 89.3281 78.3385 89.3516 78.4844 89.3828L78.3203 90.5859C78.1797 90.5495 78.0234 90.5208 77.8516 90.5C77.6797 90.4792 77.5182 90.4688 77.3672 90.4688C77.0234 90.4688 76.6979 90.5391 76.3906 90.6797C76.0885 90.8151 75.8229 91.013 75.5938 91.2734C75.3646 91.5286 75.1849 91.8385 75.0547 92.2031C74.9245 92.5625 74.8594 92.9635 74.8594 93.4062V98H73.5547V89.4375H74.6328L74.7734 91.0156H74.8281C75.0052 90.6979 75.2188 90.4089 75.4688 90.1484C75.7188 89.8828 76.0078 89.6719 76.3359 89.5156C76.6693 89.3594 77.0391 89.2812 77.4453 89.2812ZM81.3984 89.4375V98H80.1016V89.4375H81.3984ZM80.7656 86.2344C80.9792 86.2344 81.1615 86.3047 81.3125 86.4453C81.4688 86.5807 81.5469 86.7943 81.5469 87.0859C81.5469 87.3724 81.4688 87.5859 81.3125 87.7266C81.1615 87.8672 80.9792 87.9375 80.7656 87.9375C80.5417 87.9375 80.3542 87.8672 80.2031 87.7266C80.0573 87.5859 79.9844 87.3724 79.9844 87.0859C79.9844 86.7943 80.0573 86.5807 80.2031 86.4453C80.3542 86.3047 80.5417 86.2344 80.7656 86.2344ZM85.4453 85.8438V88.8828C85.4453 89.2318 85.4349 89.5703 85.4141 89.8984C85.3984 90.2266 85.3854 90.4818 85.375 90.6641H85.4453C85.6797 90.2786 86.0182 89.9531 86.4609 89.6875C86.9036 89.4219 87.4688 89.2891 88.1562 89.2891C89.2292 89.2891 90.0833 89.6615 90.7188 90.4062C91.3594 91.1458 91.6797 92.2474 91.6797 93.7109C91.6797 94.6745 91.5339 95.487 91.2422 96.1484C90.9505 96.8099 90.5391 97.3099 90.0078 97.6484C89.4766 97.987 88.849 98.1562 88.125 98.1562C87.4479 98.1562 86.8906 98.0312 86.4531 97.7812C86.0208 97.526 85.6875 97.2161 85.4531 96.8516H85.3516L85.0859 98H84.1484V85.8438H85.4453ZM87.9453 90.375C87.3255 90.375 86.8333 90.4974 86.4688 90.7422C86.1042 90.9818 85.8411 91.3464 85.6797 91.8359C85.5234 92.3203 85.4453 92.9349 85.4453 93.6797V93.75C85.4453 94.8281 85.625 95.6536 85.9844 96.2266C86.3438 96.7943 86.9974 97.0781 87.9453 97.0781C88.7422 97.0781 89.3385 96.7865 89.7344 96.2031C90.1354 95.6198 90.3359 94.7865 90.3359 93.7031C90.3359 92.599 90.138 91.7682 89.7422 91.2109C89.3516 90.6536 88.7526 90.375 87.9453 90.375ZM95.2422 98H93.9453V89.4375H95.2422V98ZM96.8594 85.7422V85.8984C96.7552 86.0495 96.612 86.2318 96.4297 86.4453C96.2526 86.6536 96.0547 86.875 95.8359 87.1094C95.6172 87.3385 95.3958 87.5573 95.1719 87.7656C94.9531 87.974 94.75 88.1536 94.5625 88.3047H93.6953V88.1172C93.862 87.9193 94.0443 87.6823 94.2422 87.4062C94.4401 87.125 94.6328 86.8385 94.8203 86.5469C95.0078 86.25 95.1641 85.9818 95.2891 85.7422H96.8594ZM104.914 97.0938C105.128 97.0938 105.346 97.0755 105.57 97.0391C105.794 97.0026 105.977 96.9583 106.117 96.9062V97.9141C105.966 97.9818 105.755 98.0391 105.484 98.0859C105.219 98.1328 104.958 98.1562 104.703 98.1562C104.25 98.1562 103.839 98.0781 103.469 97.9219C103.099 97.7604 102.802 97.4896 102.578 97.1094C102.359 96.7292 102.25 96.2031 102.25 95.5312V90.4531H101.031V89.8203L102.258 89.3125L102.773 87.4531H103.555V89.4375H106.062V90.4531H103.555V95.4922C103.555 96.0286 103.677 96.4297 103.922 96.6953C104.172 96.9609 104.503 97.0938 104.914 97.0938ZM114.922 89.4375V98H113.859L113.672 96.7969H113.602C113.424 97.0938 113.195 97.3438 112.914 97.5469C112.633 97.75 112.315 97.901 111.961 98C111.612 98.1042 111.24 98.1562 110.844 98.1562C110.167 98.1562 109.599 98.0469 109.141 97.8281C108.682 97.6094 108.336 97.2708 108.102 96.8125C107.872 96.3542 107.758 95.7656 107.758 95.0469V89.4375H109.07V94.9531C109.07 95.6667 109.232 96.2005 109.555 96.5547C109.878 96.9036 110.37 97.0781 111.031 97.0781C111.667 97.0781 112.172 96.9583 112.547 96.7188C112.927 96.4792 113.201 96.1276 113.367 95.6641C113.534 95.1953 113.617 94.6224 113.617 93.9453V89.4375H114.922ZM123.203 95.6562C123.203 96.2031 123.065 96.6641 122.789 97.0391C122.518 97.4089 122.128 97.6875 121.617 97.875C121.112 98.0625 120.508 98.1562 119.805 98.1562C119.206 98.1562 118.688 98.1094 118.25 98.0156C117.812 97.9219 117.43 97.7891 117.102 97.6172V96.4219C117.451 96.5938 117.867 96.75 118.352 96.8906C118.836 97.0312 119.331 97.1016 119.836 97.1016C120.576 97.1016 121.112 96.9818 121.445 96.7422C121.779 96.5026 121.945 96.1771 121.945 95.7656C121.945 95.5312 121.878 95.3255 121.742 95.1484C121.612 94.9661 121.391 94.7917 121.078 94.625C120.766 94.4531 120.333 94.2656 119.781 94.0625C119.234 93.8542 118.76 93.6484 118.359 93.4453C117.964 93.237 117.656 92.9844 117.438 92.6875C117.224 92.3906 117.117 92.0052 117.117 91.5312C117.117 90.8073 117.409 90.2526 117.992 89.8672C118.581 89.4766 119.352 89.2812 120.305 89.2812C120.82 89.2812 121.302 89.3333 121.75 89.4375C122.203 89.5365 122.625 89.6719 123.016 89.8438L122.578 90.8828C122.224 90.7318 121.846 90.6042 121.445 90.5C121.044 90.3958 120.635 90.3438 120.219 90.3438C119.62 90.3438 119.159 90.4427 118.836 90.6406C118.518 90.8385 118.359 91.1094 118.359 91.4531C118.359 91.7188 118.432 91.9375 118.578 92.1094C118.729 92.2812 118.969 92.4427 119.297 92.5938C119.625 92.7448 120.057 92.9219 120.594 93.125C121.13 93.3229 121.594 93.5286 121.984 93.7422C122.375 93.9505 122.674 94.2057 122.883 94.5078C123.096 94.8047 123.203 95.1875 123.203 95.6562ZM132.875 98.1562C132.104 98.1562 131.424 97.9974 130.836 97.6797C130.247 97.362 129.789 96.8776 129.461 96.2266C129.133 95.5755 128.969 94.7552 128.969 93.7656C128.969 92.7292 129.141 91.8828 129.484 91.2266C129.833 90.5651 130.312 90.0755 130.922 89.7578C131.531 89.4401 132.224 89.2812 133 89.2812C133.427 89.2812 133.839 89.3255 134.234 89.4141C134.635 89.4974 134.964 89.6042 135.219 89.7344L134.828 90.8203C134.568 90.7161 134.266 90.6224 133.922 90.5391C133.583 90.4557 133.266 90.4141 132.969 90.4141C132.375 90.4141 131.88 90.5417 131.484 90.7969C131.094 91.0521 130.799 91.4271 130.602 91.9219C130.409 92.4167 130.312 93.026 130.312 93.75C130.312 94.4427 130.406 95.0339 130.594 95.5234C130.786 96.013 131.07 96.388 131.445 96.6484C131.826 96.9036 132.299 97.0312 132.867 97.0312C133.32 97.0312 133.729 96.9844 134.094 96.8906C134.458 96.7917 134.789 96.6771 135.086 96.5469V97.7031C134.799 97.849 134.479 97.9609 134.125 98.0391C133.776 98.1172 133.359 98.1562 132.875 98.1562ZM144.5 93.7031C144.5 94.4062 144.409 95.0339 144.227 95.5859C144.044 96.138 143.781 96.6042 143.438 96.9844C143.094 97.3646 142.677 97.6562 142.188 97.8594C141.703 98.0573 141.154 98.1562 140.539 98.1562C139.966 98.1562 139.44 98.0573 138.961 97.8594C138.487 97.6562 138.076 97.3646 137.727 96.9844C137.383 96.6042 137.115 96.138 136.922 95.5859C136.734 95.0339 136.641 94.4062 136.641 93.7031C136.641 92.7656 136.799 91.9688 137.117 91.3125C137.435 90.651 137.888 90.1484 138.477 89.8047C139.07 89.4557 139.776 89.2812 140.594 89.2812C141.375 89.2812 142.057 89.4557 142.641 89.8047C143.229 90.1536 143.685 90.6589 144.008 91.3203C144.336 91.9766 144.5 92.7708 144.5 93.7031ZM137.984 93.7031C137.984 94.3906 138.076 94.987 138.258 95.4922C138.44 95.9974 138.721 96.388 139.102 96.6641C139.482 96.9401 139.971 97.0781 140.57 97.0781C141.164 97.0781 141.651 96.9401 142.031 96.6641C142.417 96.388 142.701 95.9974 142.883 95.4922C143.065 94.987 143.156 94.3906 143.156 93.7031C143.156 93.0208 143.065 92.4323 142.883 91.9375C142.701 91.4375 142.419 91.0521 142.039 90.7812C141.659 90.5104 141.167 90.375 140.562 90.375C139.672 90.375 139.018 90.6693 138.602 91.2578C138.19 91.8464 137.984 92.6615 137.984 93.7031ZM156.039 89.2812C156.982 89.2812 157.693 89.5286 158.172 90.0234C158.651 90.513 158.891 91.3021 158.891 92.3906V98H157.609V92.4531C157.609 91.7604 157.458 91.2422 157.156 90.8984C156.859 90.5495 156.417 90.375 155.828 90.375C155 90.375 154.398 90.6146 154.023 91.0938C153.648 91.5729 153.461 92.2786 153.461 93.2109V98H152.172V92.4531C152.172 91.9896 152.104 91.6042 151.969 91.2969C151.839 90.9896 151.641 90.7604 151.375 90.6094C151.115 90.4531 150.784 90.375 150.383 90.375C149.815 90.375 149.359 90.4922 149.016 90.7266C148.672 90.9609 148.422 91.3099 148.266 91.7734C148.115 92.2318 148.039 92.7969 148.039 93.4688V98H146.742V89.4375H147.789L147.984 90.6484H148.055C148.227 90.3516 148.443 90.1016 148.703 89.8984C148.964 89.6953 149.255 89.5417 149.578 89.4375C149.901 89.3333 150.245 89.2812 150.609 89.2812C151.26 89.2812 151.805 89.4036 152.242 89.6484C152.685 89.888 153.005 90.2552 153.203 90.75H153.273C153.555 90.2552 153.94 89.888 154.43 89.6484C154.919 89.4036 155.456 89.2812 156.039 89.2812ZM164.852 89.2812C165.581 89.2812 166.206 89.4427 166.727 89.7656C167.247 90.0885 167.646 90.5417 167.922 91.125C168.198 91.7031 168.336 92.3802 168.336 93.1562V93.9609H162.422C162.438 94.9661 162.688 95.7318 163.172 96.2578C163.656 96.7839 164.339 97.0469 165.219 97.0469C165.76 97.0469 166.24 96.9974 166.656 96.8984C167.073 96.7995 167.505 96.6536 167.953 96.4609V97.6016C167.521 97.7943 167.091 97.9349 166.664 98.0234C166.242 98.112 165.742 98.1562 165.164 98.1562C164.341 98.1562 163.622 97.9896 163.008 97.6562C162.398 97.3177 161.924 96.8229 161.586 96.1719C161.247 95.5208 161.078 94.724 161.078 93.7812C161.078 92.8594 161.232 92.0625 161.539 91.3906C161.852 90.7135 162.289 90.1927 162.852 89.8281C163.419 89.4635 164.086 89.2812 164.852 89.2812ZM164.836 90.3438C164.143 90.3438 163.591 90.5703 163.18 91.0234C162.768 91.4766 162.523 92.1094 162.445 92.9219H166.977C166.971 92.4115 166.891 91.9635 166.734 91.5781C166.583 91.1875 166.352 90.8854 166.039 90.6719C165.727 90.4531 165.326 90.3438 164.836 90.3438ZM174.594 89.2812C175.609 89.2812 176.378 89.5312 176.898 90.0312C177.419 90.526 177.68 91.3229 177.68 92.4219V98H176.398V92.5078C176.398 91.7943 176.234 91.2604 175.906 90.9062C175.583 90.5521 175.086 90.375 174.414 90.375C173.466 90.375 172.799 90.6432 172.414 91.1797C172.029 91.7161 171.836 92.4948 171.836 93.5156V98H170.539V89.4375H171.586L171.781 90.6719H171.852C172.034 90.3698 172.266 90.1172 172.547 89.9141C172.828 89.7057 173.143 89.5495 173.492 89.4453C173.841 89.3359 174.208 89.2812 174.594 89.2812ZM183.117 97.0938C183.331 97.0938 183.549 97.0755 183.773 97.0391C183.997 97.0026 184.18 96.9583 184.32 96.9062V97.9141C184.169 97.9818 183.958 98.0391 183.688 98.0859C183.422 98.1328 183.161 98.1562 182.906 98.1562C182.453 98.1562 182.042 98.0781 181.672 97.9219C181.302 97.7604 181.005 97.4896 180.781 97.1094C180.562 96.7292 180.453 96.2031 180.453 95.5312V90.4531H179.234V89.8203L180.461 89.3125L180.977 87.4531H181.758V89.4375H184.266V90.4531H181.758V95.4922C181.758 96.0286 181.88 96.4297 182.125 96.6953C182.375 96.9609 182.706 97.0938 183.117 97.0938ZM189.258 89.2969C190.279 89.2969 191.036 89.526 191.531 89.9844C192.026 90.4427 192.273 91.1745 192.273 92.1797V98H191.328L191.078 96.7344H191.016C190.776 97.0469 190.526 97.3099 190.266 97.5234C190.005 97.7318 189.703 97.8906 189.359 98C189.021 98.1042 188.604 98.1562 188.109 98.1562C187.589 98.1562 187.125 98.0651 186.719 97.8828C186.318 97.7005 186 97.4245 185.766 97.0547C185.536 96.6849 185.422 96.2161 185.422 95.6484C185.422 94.7943 185.76 94.138 186.438 93.6797C187.115 93.2214 188.146 92.9714 189.531 92.9297L191.008 92.8672V92.3438C191.008 91.6042 190.849 91.0859 190.531 90.7891C190.214 90.4922 189.766 90.3438 189.188 90.3438C188.74 90.3438 188.312 90.4089 187.906 90.5391C187.5 90.6693 187.115 90.8229 186.75 91L186.352 90.0156C186.737 89.8177 187.18 89.6484 187.68 89.5078C188.18 89.3672 188.706 89.2969 189.258 89.2969ZM190.992 93.7812L189.688 93.8359C188.62 93.8776 187.867 94.0521 187.43 94.3594C186.992 94.6667 186.773 95.1016 186.773 95.6641C186.773 96.1536 186.922 96.5156 187.219 96.75C187.516 96.9844 187.909 97.1016 188.398 97.1016C189.159 97.1016 189.781 96.8906 190.266 96.4688C190.75 96.0469 190.992 95.4141 190.992 94.5703V93.7812ZM198.836 89.2812C199.008 89.2812 199.188 89.2917 199.375 89.3125C199.562 89.3281 199.729 89.3516 199.875 89.3828L199.711 90.5859C199.57 90.5495 199.414 90.5208 199.242 90.5C199.07 90.4792 198.909 90.4688 198.758 90.4688C198.414 90.4688 198.089 90.5391 197.781 90.6797C197.479 90.8151 197.214 91.013 196.984 91.2734C196.755 91.5286 196.576 91.8385 196.445 92.2031C196.315 92.5625 196.25 92.9635 196.25 93.4062V98H194.945V89.4375H196.023L196.164 91.0156H196.219C196.396 90.6979 196.609 90.4089 196.859 90.1484C197.109 89.8828 197.398 89.6719 197.727 89.5156C198.06 89.3594 198.43 89.2812 198.836 89.2812ZM202.789 89.4375V98H201.492V89.4375H202.789ZM202.156 86.2344C202.37 86.2344 202.552 86.3047 202.703 86.4453C202.859 86.5807 202.938 86.7943 202.938 87.0859C202.938 87.3724 202.859 87.5859 202.703 87.7266C202.552 87.8672 202.37 87.9375 202.156 87.9375C201.932 87.9375 201.745 87.8672 201.594 87.7266C201.448 87.5859 201.375 87.3724 201.375 87.0859C201.375 86.7943 201.448 86.5807 201.594 86.4453C201.745 86.3047 201.932 86.2344 202.156 86.2344ZM212.922 93.7031C212.922 94.4062 212.831 95.0339 212.648 95.5859C212.466 96.138 212.203 96.6042 211.859 96.9844C211.516 97.3646 211.099 97.6562 210.609 97.8594C210.125 98.0573 209.576 98.1562 208.961 98.1562C208.388 98.1562 207.862 98.0573 207.383 97.8594C206.909 97.6562 206.497 97.3646 206.148 96.9844C205.805 96.6042 205.536 96.138 205.344 95.5859C205.156 95.0339 205.062 94.4062 205.062 93.7031C205.062 92.7656 205.221 91.9688 205.539 91.3125C205.857 90.651 206.31 90.1484 206.898 89.8047C207.492 89.4557 208.198 89.2812 209.016 89.2812C209.797 89.2812 210.479 89.4557 211.062 89.8047C211.651 90.1536 212.107 90.6589 212.43 91.3203C212.758 91.9766 212.922 92.7708 212.922 93.7031ZM206.406 93.7031C206.406 94.3906 206.497 94.987 206.68 95.4922C206.862 95.9974 207.143 96.388 207.523 96.6641C207.904 96.9401 208.393 97.0781 208.992 97.0781C209.586 97.0781 210.073 96.9401 210.453 96.6641C210.839 96.388 211.122 95.9974 211.305 95.4922C211.487 94.987 211.578 94.3906 211.578 93.7031C211.578 93.0208 211.487 92.4323 211.305 91.9375C211.122 91.4375 210.841 91.0521 210.461 90.7812C210.081 90.5104 209.589 90.375 208.984 90.375C208.094 90.375 207.44 90.6693 207.023 91.2578C206.612 91.8464 206.406 92.6615 206.406 93.7031ZM220.703 95.6562C220.703 96.2031 220.565 96.6641 220.289 97.0391C220.018 97.4089 219.628 97.6875 219.117 97.875C218.612 98.0625 218.008 98.1562 217.305 98.1562C216.706 98.1562 216.188 98.1094 215.75 98.0156C215.312 97.9219 214.93 97.7891 214.602 97.6172V96.4219C214.951 96.5938 215.367 96.75 215.852 96.8906C216.336 97.0312 216.831 97.1016 217.336 97.1016C218.076 97.1016 218.612 96.9818 218.945 96.7422C219.279 96.5026 219.445 96.1771 219.445 95.7656C219.445 95.5312 219.378 95.3255 219.242 95.1484C219.112 94.9661 218.891 94.7917 218.578 94.625C218.266 94.4531 217.833 94.2656 217.281 94.0625C216.734 93.8542 216.26 93.6484 215.859 93.4453C215.464 93.237 215.156 92.9844 214.938 92.6875C214.724 92.3906 214.617 92.0052 214.617 91.5312C214.617 90.8073 214.909 90.2526 215.492 89.8672C216.081 89.4766 216.852 89.2812 217.805 89.2812C218.32 89.2812 218.802 89.3333 219.25 89.4375C219.703 89.5365 220.125 89.6719 220.516 89.8438L220.078 90.8828C219.724 90.7318 219.346 90.6042 218.945 90.5C218.544 90.3958 218.135 90.3438 217.719 90.3438C217.12 90.3438 216.659 90.4427 216.336 90.6406C216.018 90.8385 215.859 91.1094 215.859 91.4531C215.859 91.7188 215.932 91.9375 216.078 92.1094C216.229 92.2812 216.469 92.4427 216.797 92.5938C217.125 92.7448 217.557 92.9219 218.094 93.125C218.63 93.3229 219.094 93.5286 219.484 93.7422C219.875 93.9505 220.174 94.2057 220.383 94.5078C220.596 94.8047 220.703 95.1875 220.703 95.6562ZM230.148 89.2969C231.169 89.2969 231.927 89.526 232.422 89.9844C232.917 90.4427 233.164 91.1745 233.164 92.1797V98H232.219L231.969 96.7344H231.906C231.667 97.0469 231.417 97.3099 231.156 97.5234C230.896 97.7318 230.594 97.8906 230.25 98C229.911 98.1042 229.495 98.1562 229 98.1562C228.479 98.1562 228.016 98.0651 227.609 97.8828C227.208 97.7005 226.891 97.4245 226.656 97.0547C226.427 96.6849 226.312 96.2161 226.312 95.6484C226.312 94.7943 226.651 94.138 227.328 93.6797C228.005 93.2214 229.036 92.9714 230.422 92.9297L231.898 92.8672V92.3438C231.898 91.6042 231.74 91.0859 231.422 90.7891C231.104 90.4922 230.656 90.3438 230.078 90.3438C229.63 90.3438 229.203 90.4089 228.797 90.5391C228.391 90.6693 228.005 90.8229 227.641 91L227.242 90.0156C227.628 89.8177 228.07 89.6484 228.57 89.5078C229.07 89.3672 229.596 89.2969 230.148 89.2969ZM231.883 93.7812L230.578 93.8359C229.51 93.8776 228.758 94.0521 228.32 94.3594C227.883 94.6667 227.664 95.1016 227.664 95.6641C227.664 96.1536 227.812 96.5156 228.109 96.75C228.406 96.9844 228.799 97.1016 229.289 97.1016C230.049 97.1016 230.672 96.8906 231.156 96.4688C231.641 96.0469 231.883 95.4141 231.883 94.5703V93.7812ZM238.883 98.1562C237.799 98.1562 236.94 97.7865 236.305 97.0469C235.674 96.3073 235.359 95.2083 235.359 93.75C235.359 92.276 235.682 91.1641 236.328 90.4141C236.974 89.6589 237.833 89.2812 238.906 89.2812C239.359 89.2812 239.755 89.3411 240.094 89.4609C240.432 89.5807 240.724 89.7422 240.969 89.9453C241.214 90.1432 241.419 90.3698 241.586 90.625H241.68C241.659 90.4635 241.638 90.2422 241.617 89.9609C241.596 89.6797 241.586 89.4505 241.586 89.2734V85.8438H242.883V98H241.836L241.641 96.7812H241.586C241.424 97.0365 241.219 97.2682 240.969 97.4766C240.724 97.6849 240.43 97.8516 240.086 97.9766C239.747 98.0964 239.346 98.1562 238.883 98.1562ZM239.086 97.0781C240.003 97.0781 240.651 96.8177 241.031 96.2969C241.411 95.776 241.602 95.0026 241.602 93.9766V93.7422C241.602 92.6536 241.419 91.8177 241.055 91.2344C240.695 90.651 240.039 90.3594 239.086 90.3594C238.289 90.3594 237.693 90.6667 237.297 91.2812C236.901 91.8906 236.703 92.724 236.703 93.7812C236.703 94.8333 236.898 95.6458 237.289 96.2188C237.685 96.7917 238.284 97.0781 239.086 97.0781ZM246.93 89.4375V98H245.633V89.4375H246.93ZM246.297 86.2344C246.51 86.2344 246.693 86.3047 246.844 86.4453C247 86.5807 247.078 86.7943 247.078 87.0859C247.078 87.3724 247 87.5859 246.844 87.7266C246.693 87.8672 246.51 87.9375 246.297 87.9375C246.073 87.9375 245.885 87.8672 245.734 87.7266C245.589 87.5859 245.516 87.3724 245.516 87.0859C245.516 86.7943 245.589 86.5807 245.734 86.4453C245.885 86.3047 246.073 86.2344 246.297 86.2344ZM253.109 98.1562C252.339 98.1562 251.659 97.9974 251.07 97.6797C250.482 97.362 250.023 96.8776 249.695 96.2266C249.367 95.5755 249.203 94.7552 249.203 93.7656C249.203 92.7292 249.375 91.8828 249.719 91.2266C250.068 90.5651 250.547 90.0755 251.156 89.7578C251.766 89.4401 252.458 89.2812 253.234 89.2812C253.661 89.2812 254.073 89.3255 254.469 89.4141C254.87 89.4974 255.198 89.6042 255.453 89.7344L255.062 90.8203C254.802 90.7161 254.5 90.6224 254.156 90.5391C253.818 90.4557 253.5 90.4141 253.203 90.4141C252.609 90.4141 252.115 90.5417 251.719 90.7969C251.328 91.0521 251.034 91.4271 250.836 91.9219C250.643 92.4167 250.547 93.026 250.547 93.75C250.547 94.4427 250.641 95.0339 250.828 95.5234C251.021 96.013 251.305 96.388 251.68 96.6484C252.06 96.9036 252.534 97.0312 253.102 97.0312C253.555 97.0312 253.964 96.9844 254.328 96.8906C254.693 96.7917 255.023 96.6771 255.32 96.5469V97.7031C255.034 97.849 254.714 97.9609 254.359 98.0391C254.01 98.1172 253.594 98.1562 253.109 98.1562ZM258.648 89.4375V98H257.352V89.4375H258.648ZM258.016 86.2344C258.229 86.2344 258.411 86.3047 258.562 86.4453C258.719 86.5807 258.797 86.7943 258.797 87.0859C258.797 87.3724 258.719 87.5859 258.562 87.7266C258.411 87.8672 258.229 87.9375 258.016 87.9375C257.792 87.9375 257.604 87.8672 257.453 87.7266C257.307 87.5859 257.234 87.3724 257.234 87.0859C257.234 86.7943 257.307 86.5807 257.453 86.4453C257.604 86.3047 257.792 86.2344 258.016 86.2344ZM268.781 93.7031C268.781 94.4062 268.69 95.0339 268.508 95.5859C268.326 96.138 268.062 96.6042 267.719 96.9844C267.375 97.3646 266.958 97.6562 266.469 97.8594C265.984 98.0573 265.435 98.1562 264.82 98.1562C264.247 98.1562 263.721 98.0573 263.242 97.8594C262.768 97.6562 262.357 97.3646 262.008 96.9844C261.664 96.6042 261.396 96.138 261.203 95.5859C261.016 95.0339 260.922 94.4062 260.922 93.7031C260.922 92.7656 261.081 91.9688 261.398 91.3125C261.716 90.651 262.169 90.1484 262.758 89.8047C263.352 89.4557 264.057 89.2812 264.875 89.2812C265.656 89.2812 266.339 89.4557 266.922 89.8047C267.51 90.1536 267.966 90.6589 268.289 91.3203C268.617 91.9766 268.781 92.7708 268.781 93.7031ZM262.266 93.7031C262.266 94.3906 262.357 94.987 262.539 95.4922C262.721 95.9974 263.003 96.388 263.383 96.6641C263.763 96.9401 264.253 97.0781 264.852 97.0781C265.445 97.0781 265.932 96.9401 266.312 96.6641C266.698 96.388 266.982 95.9974 267.164 95.4922C267.346 94.987 267.438 94.3906 267.438 93.7031C267.438 93.0208 267.346 92.4323 267.164 91.9375C266.982 91.4375 266.701 91.0521 266.32 90.7812C265.94 90.5104 265.448 90.375 264.844 90.375C263.953 90.375 263.299 90.6693 262.883 91.2578C262.471 91.8464 262.266 92.6615 262.266 93.7031ZM275.078 89.2812C276.094 89.2812 276.862 89.5312 277.383 90.0312C277.904 90.526 278.164 91.3229 278.164 92.4219V98H276.883V92.5078C276.883 91.7943 276.719 91.2604 276.391 90.9062C276.068 90.5521 275.57 90.375 274.898 90.375C273.951 90.375 273.284 90.6432 272.898 91.1797C272.513 91.7161 272.32 92.4948 272.32 93.5156V98H271.023V89.4375H272.07L272.266 90.6719H272.336C272.518 90.3698 272.75 90.1172 273.031 89.9141C273.312 89.7057 273.628 89.5495 273.977 89.4453C274.326 89.3359 274.693 89.2812 275.078 89.2812ZM284.039 89.2969C285.06 89.2969 285.818 89.526 286.312 89.9844C286.807 90.4427 287.055 91.1745 287.055 92.1797V98H286.109L285.859 96.7344H285.797C285.557 97.0469 285.307 97.3099 285.047 97.5234C284.786 97.7318 284.484 97.8906 284.141 98C283.802 98.1042 283.385 98.1562 282.891 98.1562C282.37 98.1562 281.906 98.0651 281.5 97.8828C281.099 97.7005 280.781 97.4245 280.547 97.0547C280.318 96.6849 280.203 96.2161 280.203 95.6484C280.203 94.7943 280.542 94.138 281.219 93.6797C281.896 93.2214 282.927 92.9714 284.312 92.9297L285.789 92.8672V92.3438C285.789 91.6042 285.63 91.0859 285.312 90.7891C284.995 90.4922 284.547 90.3438 283.969 90.3438C283.521 90.3438 283.094 90.4089 282.688 90.5391C282.281 90.6693 281.896 90.8229 281.531 91L281.133 90.0156C281.518 89.8177 281.961 89.6484 282.461 89.5078C282.961 89.3672 283.487 89.2969 284.039 89.2969ZM285.773 93.7812L284.469 93.8359C283.401 93.8776 282.648 94.0521 282.211 94.3594C281.773 94.6667 281.555 95.1016 281.555 95.6641C281.555 96.1536 281.703 96.5156 282 96.75C282.297 96.9844 282.69 97.1016 283.18 97.1016C283.94 97.1016 284.562 96.8906 285.047 96.4688C285.531 96.0469 285.773 95.4141 285.773 94.5703V93.7812ZM291.031 98H289.727V85.8438H291.031V98ZM297.07 89.2812C297.799 89.2812 298.424 89.4427 298.945 89.7656C299.466 90.0885 299.865 90.5417 300.141 91.125C300.417 91.7031 300.555 92.3802 300.555 93.1562V93.9609H294.641C294.656 94.9661 294.906 95.7318 295.391 96.2578C295.875 96.7839 296.557 97.0469 297.438 97.0469C297.979 97.0469 298.458 96.9974 298.875 96.8984C299.292 96.7995 299.724 96.6536 300.172 96.4609V97.6016C299.74 97.7943 299.31 97.9349 298.883 98.0234C298.461 98.112 297.961 98.1562 297.383 98.1562C296.56 98.1562 295.841 97.9896 295.227 97.6562C294.617 97.3177 294.143 96.8229 293.805 96.1719C293.466 95.5208 293.297 94.724 293.297 93.7812C293.297 92.8594 293.451 92.0625 293.758 91.3906C294.07 90.7135 294.508 90.1927 295.07 89.8281C295.638 89.4635 296.305 89.2812 297.07 89.2812ZM297.055 90.3438C296.362 90.3438 295.81 90.5703 295.398 91.0234C294.987 91.4766 294.742 92.1094 294.664 92.9219H299.195C299.19 92.4115 299.109 91.9635 298.953 91.5781C298.802 91.1875 298.57 90.8854 298.258 90.6719C297.945 90.4531 297.544 90.3438 297.055 90.3438ZM308.297 95.6562C308.297 96.2031 308.159 96.6641 307.883 97.0391C307.612 97.4089 307.221 97.6875 306.711 97.875C306.206 98.0625 305.602 98.1562 304.898 98.1562C304.299 98.1562 303.781 98.1094 303.344 98.0156C302.906 97.9219 302.523 97.7891 302.195 97.6172V96.4219C302.544 96.5938 302.961 96.75 303.445 96.8906C303.93 97.0312 304.424 97.1016 304.93 97.1016C305.669 97.1016 306.206 96.9818 306.539 96.7422C306.872 96.5026 307.039 96.1771 307.039 95.7656C307.039 95.5312 306.971 95.3255 306.836 95.1484C306.706 94.9661 306.484 94.7917 306.172 94.625C305.859 94.4531 305.427 94.2656 304.875 94.0625C304.328 93.8542 303.854 93.6484 303.453 93.4453C303.057 93.237 302.75 92.9844 302.531 92.6875C302.318 92.3906 302.211 92.0052 302.211 91.5312C302.211 90.8073 302.503 90.2526 303.086 89.8672C303.674 89.4766 304.445 89.2812 305.398 89.2812C305.914 89.2812 306.396 89.3333 306.844 89.4375C307.297 89.5365 307.719 89.6719 308.109 89.8438L307.672 90.8828C307.318 90.7318 306.94 90.6042 306.539 90.5C306.138 90.3958 305.729 90.3438 305.312 90.3438C304.714 90.3438 304.253 90.4427 303.93 90.6406C303.612 90.8385 303.453 91.1094 303.453 91.4531C303.453 91.7188 303.526 91.9375 303.672 92.1094C303.823 92.2812 304.062 92.4427 304.391 92.5938C304.719 92.7448 305.151 92.9219 305.688 93.125C306.224 93.3229 306.688 93.5286 307.078 93.7422C307.469 93.9505 307.768 94.2057 307.977 94.5078C308.19 94.8047 308.297 95.1875 308.297 95.6562ZM317.742 89.2969C318.763 89.2969 319.521 89.526 320.016 89.9844C320.51 90.4427 320.758 91.1745 320.758 92.1797V98H319.812L319.562 96.7344H319.5C319.26 97.0469 319.01 97.3099 318.75 97.5234C318.49 97.7318 318.188 97.8906 317.844 98C317.505 98.1042 317.089 98.1562 316.594 98.1562C316.073 98.1562 315.609 98.0651 315.203 97.8828C314.802 97.7005 314.484 97.4245 314.25 97.0547C314.021 96.6849 313.906 96.2161 313.906 95.6484C313.906 94.7943 314.245 94.138 314.922 93.6797C315.599 93.2214 316.63 92.9714 318.016 92.9297L319.492 92.8672V92.3438C319.492 91.6042 319.333 91.0859 319.016 90.7891C318.698 90.4922 318.25 90.3438 317.672 90.3438C317.224 90.3438 316.797 90.4089 316.391 90.5391C315.984 90.6693 315.599 90.8229 315.234 91L314.836 90.0156C315.221 89.8177 315.664 89.6484 316.164 89.5078C316.664 89.3672 317.19 89.2969 317.742 89.2969ZM319.477 93.7812L318.172 93.8359C317.104 93.8776 316.352 94.0521 315.914 94.3594C315.477 94.6667 315.258 95.1016 315.258 95.6641C315.258 96.1536 315.406 96.5156 315.703 96.75C316 96.9844 316.393 97.1016 316.883 97.1016C317.643 97.1016 318.266 96.8906 318.75 96.4688C319.234 96.0469 319.477 95.4141 319.477 94.5703V93.7812ZM326.859 98.1562C326.089 98.1562 325.409 97.9974 324.82 97.6797C324.232 97.362 323.773 96.8776 323.445 96.2266C323.117 95.5755 322.953 94.7552 322.953 93.7656C322.953 92.7292 323.125 91.8828 323.469 91.2266C323.818 90.5651 324.297 90.0755 324.906 89.7578C325.516 89.4401 326.208 89.2812 326.984 89.2812C327.411 89.2812 327.823 89.3255 328.219 89.4141C328.62 89.4974 328.948 89.6042 329.203 89.7344L328.812 90.8203C328.552 90.7161 328.25 90.6224 327.906 90.5391C327.568 90.4557 327.25 90.4141 326.953 90.4141C326.359 90.4141 325.865 90.5417 325.469 90.7969C325.078 91.0521 324.784 91.4271 324.586 91.9219C324.393 92.4167 324.297 93.026 324.297 93.75C324.297 94.4427 324.391 95.0339 324.578 95.5234C324.771 96.013 325.055 96.388 325.43 96.6484C325.81 96.9036 326.284 97.0312 326.852 97.0312C327.305 97.0312 327.714 96.9844 328.078 96.8906C328.443 96.7917 328.773 96.6771 329.07 96.5469V97.7031C328.784 97.849 328.464 97.9609 328.109 98.0391C327.76 98.1172 327.344 98.1562 326.859 98.1562ZM334.305 89.2969C335.326 89.2969 336.083 89.526 336.578 89.9844C337.073 90.4427 337.32 91.1745 337.32 92.1797V98H336.375L336.125 96.7344H336.062C335.823 97.0469 335.573 97.3099 335.312 97.5234C335.052 97.7318 334.75 97.8906 334.406 98C334.068 98.1042 333.651 98.1562 333.156 98.1562C332.635 98.1562 332.172 98.0651 331.766 97.8828C331.365 97.7005 331.047 97.4245 330.812 97.0547C330.583 96.6849 330.469 96.2161 330.469 95.6484C330.469 94.7943 330.807 94.138 331.484 93.6797C332.161 93.2214 333.193 92.9714 334.578 92.9297L336.055 92.8672V92.3438C336.055 91.6042 335.896 91.0859 335.578 90.7891C335.26 90.4922 334.812 90.3438 334.234 90.3438C333.786 90.3438 333.359 90.4089 332.953 90.5391C332.547 90.6693 332.161 90.8229 331.797 91L331.398 90.0156C331.784 89.8177 332.227 89.6484 332.727 89.5078C333.227 89.3672 333.753 89.2969 334.305 89.2969ZM336.039 93.7812L334.734 93.8359C333.667 93.8776 332.914 94.0521 332.477 94.3594C332.039 94.6667 331.82 95.1016 331.82 95.6641C331.82 96.1536 331.969 96.5156 332.266 96.75C332.562 96.9844 332.956 97.1016 333.445 97.1016C334.206 97.1016 334.828 96.8906 335.312 96.4688C335.797 96.0469 336.039 95.4141 336.039 94.5703V93.7812ZM336.445 85.7422V85.8984C336.341 86.0495 336.198 86.2318 336.016 86.4453C335.839 86.6536 335.641 86.875 335.422 87.1094C335.203 87.3385 334.982 87.5573 334.758 87.7656C334.539 87.974 334.336 88.1536 334.148 88.3047H333.281V88.1172C333.448 87.9193 333.63 87.6823 333.828 87.4062C334.026 87.125 334.219 86.8385 334.406 86.5469C334.594 86.25 334.75 85.9818 334.875 85.7422H336.445Z" fill="#5C6A7A"/>
<g clip-path="url(#clip1_2269_21920)">
<path d="M404.253 210.475L404.96 209.768C405.155 209.573 405.155 209.255 404.96 209.061C404.766 208.866 404.448 208.866 404.253 209.061L403.546 209.768C403.352 209.962 403.352 210.28 403.546 210.475C403.741 210.669 404.059 210.669 404.253 210.475ZM397.536 209.414C397.73 209.609 398.048 209.609 398.243 209.414L403.9 203.757C404.094 203.563 404.094 203.245 403.9 203.05C403.705 202.856 403.387 202.856 403.193 203.05L397.536 208.707C397.341 208.901 397.341 209.22 397.536 209.414ZM401.071 210.121L404.607 206.586C404.801 206.391 404.801 206.073 404.607 205.879C404.412 205.684 404.094 205.684 403.9 205.879L400.364 209.414C400.17 209.609 400.17 209.927 400.364 210.121C400.559 210.316 400.877 210.316 401.071 210.121Z" fill="#101E37"/>
</g>
</g>
<rect x="33" y="73" width="377" height="142" rx="7" stroke="#101E37" stroke-width="2"/>
<path d="M381.106 53.9893C381.106 54.8005 381.045 55.5251 380.922 56.1631C380.799 56.8011 380.605 57.3411 380.341 57.7832C380.076 58.2253 379.735 58.5625 379.315 58.7949C378.896 59.0228 378.393 59.1367 377.805 59.1367C377.062 59.1367 376.447 58.9339 375.959 58.5283C375.476 58.1227 375.114 57.5371 374.872 56.7715C374.635 56.0013 374.517 55.0739 374.517 53.9893C374.517 52.9229 374.624 52.0068 374.838 51.2412C375.057 50.471 375.408 49.8809 375.891 49.4707C376.374 49.056 377.012 48.8486 377.805 48.8486C378.557 48.8486 379.176 49.0537 379.664 49.4639C380.152 49.8695 380.514 50.4574 380.751 51.2275C380.988 51.9932 381.106 52.9137 381.106 53.9893ZM375.658 53.9893C375.658 54.9189 375.729 55.6937 375.87 56.3135C376.011 56.9333 376.239 57.3981 376.554 57.708C376.873 58.0133 377.29 58.166 377.805 58.166C378.32 58.166 378.734 58.0133 379.049 57.708C379.368 57.4027 379.598 56.9401 379.739 56.3203C379.885 55.7005 379.958 54.9235 379.958 53.9893C379.958 53.0732 379.887 52.3076 379.746 51.6924C379.605 51.0726 379.377 50.6077 379.062 50.2979C378.748 49.9834 378.329 49.8262 377.805 49.8262C377.281 49.8262 376.861 49.9834 376.547 50.2979C376.232 50.6077 376.005 51.0726 375.863 51.6924C375.727 52.3076 375.658 53.0732 375.658 53.9893ZM386.808 49.0059L383.089 59H381.968L385.693 49.0059H386.808ZM391.88 59H390.772V51.918C390.772 51.6491 390.772 51.4189 390.772 51.2275C390.777 51.0316 390.782 50.8538 390.786 50.6943C390.795 50.5303 390.807 50.3639 390.82 50.1953C390.679 50.3411 390.547 50.4665 390.424 50.5713C390.301 50.6715 390.148 50.7969 389.966 50.9473L388.824 51.8633L388.229 51.0908L390.937 49.0059H391.88V59ZM402.271 53.9893C402.271 54.8005 402.209 55.5251 402.086 56.1631C401.963 56.8011 401.769 57.3411 401.505 57.7832C401.241 58.2253 400.899 58.5625 400.479 58.7949C400.06 59.0228 399.557 59.1367 398.969 59.1367C398.226 59.1367 397.611 58.9339 397.123 58.5283C396.64 58.1227 396.278 57.5371 396.036 56.7715C395.799 56.0013 395.681 55.0739 395.681 53.9893C395.681 52.9229 395.788 52.0068 396.002 51.2412C396.221 50.471 396.572 49.8809 397.055 49.4707C397.538 49.056 398.176 48.8486 398.969 48.8486C399.721 48.8486 400.34 49.0537 400.828 49.4639C401.316 49.8695 401.678 50.4574 401.915 51.2275C402.152 51.9932 402.271 52.9137 402.271 53.9893ZM396.822 53.9893C396.822 54.9189 396.893 55.6937 397.034 56.3135C397.175 56.9333 397.403 57.3981 397.718 57.708C398.037 58.0133 398.454 58.166 398.969 58.166C399.484 58.166 399.898 58.0133 400.213 57.708C400.532 57.4027 400.762 56.9401 400.903 56.3203C401.049 55.7005 401.122 54.9235 401.122 53.9893C401.122 53.0732 401.051 52.3076 400.91 51.6924C400.769 51.0726 400.541 50.6077 400.227 50.2979C399.912 49.9834 399.493 49.8262 398.969 49.8262C398.445 49.8262 398.025 49.9834 397.711 50.2979C397.396 50.6077 397.169 51.0726 397.027 51.6924C396.891 52.3076 396.822 53.0732 396.822 53.9893ZM410.282 53.9893C410.282 54.8005 410.221 55.5251 410.098 56.1631C409.975 56.8011 409.781 57.3411 409.517 57.7832C409.252 58.2253 408.91 58.5625 408.491 58.7949C408.072 59.0228 407.568 59.1367 406.98 59.1367C406.238 59.1367 405.622 58.9339 405.135 58.5283C404.652 58.1227 404.289 57.5371 404.048 56.7715C403.811 56.0013 403.692 55.0739 403.692 53.9893C403.692 52.9229 403.799 52.0068 404.014 51.2412C404.232 50.471 404.583 49.8809 405.066 49.4707C405.549 49.056 406.188 48.8486 406.98 48.8486C407.732 48.8486 408.352 49.0537 408.84 49.4639C409.327 49.8695 409.69 50.4574 409.927 51.2275C410.164 51.9932 410.282 52.9137 410.282 53.9893ZM404.834 53.9893C404.834 54.9189 404.905 55.6937 405.046 56.3135C405.187 56.9333 405.415 57.3981 405.729 57.708C406.049 58.0133 406.465 58.166 406.98 58.166C407.495 58.166 407.91 58.0133 408.225 57.708C408.544 57.4027 408.774 56.9401 408.915 56.3203C409.061 55.7005 409.134 54.9235 409.134 53.9893C409.134 53.0732 409.063 52.3076 408.922 51.6924C408.781 51.0726 408.553 50.6077 408.238 50.2979C407.924 49.9834 407.505 49.8262 406.98 49.8262C406.456 49.8262 406.037 49.9834 405.723 50.2979C405.408 50.6077 405.18 51.0726 405.039 51.6924C404.902 52.3076 404.834 53.0732 404.834 53.9893Z" fill="#5C6A7A"/>
<defs>
<clipPath id="clip0_2269_21920">
<rect x="32" y="72" width="379" height="144" rx="8" fill="white"/>
</clipPath>
<clipPath id="clip1_2269_21920">
<rect width="12" height="12" fill="white" transform="translate(394 208) rotate(-45)"/>
</clipPath>
</defs>
</svg>
