<svg width="443" height="120" viewBox="0 0 443 120" fill="none" xmlns="http://www.w3.org/2000/svg">
<rect x="1" y="1" width="441" height="118" rx="7" fill="#F3F6F9"/>
<rect x="1" y="1" width="441" height="118" rx="7" stroke="#E6EBF0" stroke-width="2"/>
<rect x="155.5" y="49" width="22" height="22" rx="11" fill="white"/>
<rect x="155.5" y="49" width="22" height="22" rx="11" stroke="#274986" stroke-width="2"/>
<rect x="160.5" y="54" width="12" height="12" rx="6" fill="#274986"/>
<path d="M191.57 66H190.234V55.75H186.641V54.5781H195.148V55.75H191.57V66ZM203.75 57.4375V66H202.688L202.5 64.7969H202.43C202.253 65.0938 202.023 65.3438 201.742 65.5469C201.461 65.75 201.143 65.901 200.789 66C200.44 66.1042 200.068 66.1562 199.672 66.1562C198.995 66.1562 198.427 66.0469 197.969 65.8281C197.51 65.6094 197.164 65.2708 196.93 64.8125C196.701 64.3542 196.586 63.7656 196.586 63.0469V57.4375H197.898V62.9531C197.898 63.6667 198.06 64.2005 198.383 64.5547C198.706 64.9036 199.198 65.0781 199.859 65.0781C200.495 65.0781 201 64.9583 201.375 64.7188C201.755 64.4792 202.029 64.1276 202.195 63.6641C202.362 63.1953 202.445 62.6224 202.445 61.9453V57.4375H203.75ZM210.383 57.2812C210.555 57.2812 210.734 57.2917 210.922 57.3125C211.109 57.3281 211.276 57.3516 211.422 57.3828L211.258 58.5859C211.117 58.5495 210.961 58.5208 210.789 58.5C210.617 58.4792 210.456 58.4688 210.305 58.4688C209.961 58.4688 209.635 58.5391 209.328 58.6797C209.026 58.8151 208.76 59.013 208.531 59.2734C208.302 59.5286 208.122 59.8385 207.992 60.2031C207.862 60.5625 207.797 60.9635 207.797 61.4062V66H206.492V57.4375H207.57L207.711 59.0156H207.766C207.943 58.6979 208.156 58.4089 208.406 58.1484C208.656 57.8828 208.945 57.6719 209.273 57.5156C209.607 57.3594 209.977 57.2812 210.383 57.2812ZM217.094 57.2812C218.109 57.2812 218.878 57.5312 219.398 58.0312C219.919 58.526 220.18 59.3229 220.18 60.4219V66H218.898V60.5078C218.898 59.7943 218.734 59.2604 218.406 58.9062C218.083 58.5521 217.586 58.375 216.914 58.375C215.966 58.375 215.299 58.6432 214.914 59.1797C214.529 59.7161 214.336 60.4948 214.336 61.5156V66H213.039V57.4375H214.086L214.281 58.6719H214.352C214.534 58.3698 214.766 58.1172 215.047 57.9141C215.328 57.7057 215.643 57.5495 215.992 57.4453C216.341 57.3359 216.708 57.2812 217.094 57.2812ZM230.234 61.7031C230.234 62.4062 230.143 63.0339 229.961 63.5859C229.779 64.138 229.516 64.6042 229.172 64.9844C228.828 65.3646 228.411 65.6562 227.922 65.8594C227.438 66.0573 226.888 66.1562 226.273 66.1562C225.701 66.1562 225.174 66.0573 224.695 65.8594C224.221 65.6562 223.81 65.3646 223.461 64.9844C223.117 64.6042 222.849 64.138 222.656 63.5859C222.469 63.0339 222.375 62.4062 222.375 61.7031C222.375 60.7656 222.534 59.9688 222.852 59.3125C223.169 58.651 223.622 58.1484 224.211 57.8047C224.805 57.4557 225.51 57.2812 226.328 57.2812C227.109 57.2812 227.792 57.4557 228.375 57.8047C228.964 58.1536 229.419 58.6589 229.742 59.3203C230.07 59.9766 230.234 60.7708 230.234 61.7031ZM223.719 61.7031C223.719 62.3906 223.81 62.987 223.992 63.4922C224.174 63.9974 224.456 64.388 224.836 64.6641C225.216 64.9401 225.706 65.0781 226.305 65.0781C226.898 65.0781 227.385 64.9401 227.766 64.6641C228.151 64.388 228.435 63.9974 228.617 63.4922C228.799 62.987 228.891 62.3906 228.891 61.7031C228.891 61.0208 228.799 60.4323 228.617 59.9375C228.435 59.4375 228.154 59.0521 227.773 58.7812C227.393 58.5104 226.901 58.375 226.297 58.375C225.406 58.375 224.753 58.6693 224.336 59.2578C223.924 59.8464 223.719 60.6615 223.719 61.7031ZM245.93 57.2812C246.872 57.2812 247.583 57.5286 248.062 58.0234C248.542 58.513 248.781 59.3021 248.781 60.3906V66H247.5V60.4531C247.5 59.7604 247.349 59.2422 247.047 58.8984C246.75 58.5495 246.307 58.375 245.719 58.375C244.891 58.375 244.289 58.6146 243.914 59.0938C243.539 59.5729 243.352 60.2786 243.352 61.2109V66H242.062V60.4531C242.062 59.9896 241.995 59.6042 241.859 59.2969C241.729 58.9896 241.531 58.7604 241.266 58.6094C241.005 58.4531 240.674 58.375 240.273 58.375C239.706 58.375 239.25 58.4922 238.906 58.7266C238.562 58.9609 238.312 59.3099 238.156 59.7734C238.005 60.2318 237.93 60.7969 237.93 61.4688V66H236.633V57.4375H237.68L237.875 58.6484H237.945C238.117 58.3516 238.333 58.1016 238.594 57.8984C238.854 57.6953 239.146 57.5417 239.469 57.4375C239.792 57.3333 240.135 57.2812 240.5 57.2812C241.151 57.2812 241.695 57.4036 242.133 57.6484C242.576 57.888 242.896 58.2552 243.094 58.75H243.164C243.445 58.2552 243.831 57.888 244.32 57.6484C244.81 57.4036 245.346 57.2812 245.93 57.2812ZM254.648 57.2969C255.669 57.2969 256.427 57.526 256.922 57.9844C257.417 58.4427 257.664 59.1745 257.664 60.1797V66H256.719L256.469 64.7344H256.406C256.167 65.0469 255.917 65.3099 255.656 65.5234C255.396 65.7318 255.094 65.8906 254.75 66C254.411 66.1042 253.995 66.1562 253.5 66.1562C252.979 66.1562 252.516 66.0651 252.109 65.8828C251.708 65.7005 251.391 65.4245 251.156 65.0547C250.927 64.6849 250.812 64.2161 250.812 63.6484C250.812 62.7943 251.151 62.138 251.828 61.6797C252.505 61.2214 253.536 60.9714 254.922 60.9297L256.398 60.8672V60.3438C256.398 59.6042 256.24 59.0859 255.922 58.7891C255.604 58.4922 255.156 58.3438 254.578 58.3438C254.13 58.3438 253.703 58.4089 253.297 58.5391C252.891 58.6693 252.505 58.8229 252.141 59L251.742 58.0156C252.128 57.8177 252.57 57.6484 253.07 57.5078C253.57 57.3672 254.096 57.2969 254.648 57.2969ZM256.383 61.7812L255.078 61.8359C254.01 61.8776 253.258 62.0521 252.82 62.3594C252.383 62.6667 252.164 63.1016 252.164 63.6641C252.164 64.1536 252.312 64.5156 252.609 64.75C252.906 64.9844 253.299 65.1016 253.789 65.1016C254.549 65.1016 255.172 64.8906 255.656 64.4688C256.141 64.0469 256.383 63.4141 256.383 62.5703V61.7812ZM264.391 57.2812C265.406 57.2812 266.174 57.5312 266.695 58.0312C267.216 58.526 267.477 59.3229 267.477 60.4219V66H266.195V60.5078C266.195 59.7943 266.031 59.2604 265.703 58.9062C265.38 58.5521 264.883 58.375 264.211 58.375C263.263 58.375 262.596 58.6432 262.211 59.1797C261.826 59.7161 261.633 60.4948 261.633 61.5156V66H260.336V57.4375H261.383L261.578 58.6719H261.648C261.831 58.3698 262.062 58.1172 262.344 57.9141C262.625 57.7057 262.94 57.5495 263.289 57.4453C263.638 57.3359 264.005 57.2812 264.391 57.2812ZM260.953 56.2812C260.984 55.9688 261.044 55.6901 261.133 55.4453C261.221 55.2005 261.339 54.9922 261.484 54.8203C261.63 54.6484 261.802 54.5182 262 54.4297C262.203 54.3359 262.427 54.2891 262.672 54.2891C262.911 54.2891 263.141 54.3385 263.359 54.4375C263.578 54.5312 263.786 54.6406 263.984 54.7656C264.182 54.8854 264.372 54.9948 264.555 55.0938C264.742 55.1875 264.922 55.2344 265.094 55.2344C265.344 55.2344 265.536 55.1589 265.672 55.0078C265.812 54.8516 265.919 54.6068 265.992 54.2734H266.758C266.69 54.8828 266.51 55.3698 266.219 55.7344C265.927 56.0938 265.534 56.2734 265.039 56.2734C264.81 56.2734 264.589 56.2266 264.375 56.1328C264.161 56.0339 263.956 55.9245 263.758 55.8047C263.56 55.6797 263.365 55.5703 263.172 55.4766C262.984 55.3776 262.799 55.3281 262.617 55.3281C262.362 55.3281 262.167 55.4062 262.031 55.5625C261.896 55.7135 261.792 55.9531 261.719 56.2812H260.953ZM273.352 57.2969C274.372 57.2969 275.13 57.526 275.625 57.9844C276.12 58.4427 276.367 59.1745 276.367 60.1797V66H275.422L275.172 64.7344H275.109C274.87 65.0469 274.62 65.3099 274.359 65.5234C274.099 65.7318 273.797 65.8906 273.453 66C273.115 66.1042 272.698 66.1562 272.203 66.1562C271.682 66.1562 271.219 66.0651 270.812 65.8828C270.411 65.7005 270.094 65.4245 269.859 65.0547C269.63 64.6849 269.516 64.2161 269.516 63.6484C269.516 62.7943 269.854 62.138 270.531 61.6797C271.208 61.2214 272.24 60.9714 273.625 60.9297L275.102 60.8672V60.3438C275.102 59.6042 274.943 59.0859 274.625 58.7891C274.307 58.4922 273.859 58.3438 273.281 58.3438C272.833 58.3438 272.406 58.4089 272 58.5391C271.594 58.6693 271.208 58.8229 270.844 59L270.445 58.0156C270.831 57.8177 271.273 57.6484 271.773 57.5078C272.273 57.3672 272.799 57.2969 273.352 57.2969ZM275.086 61.7812L273.781 61.8359C272.714 61.8776 271.961 62.0521 271.523 62.3594C271.086 62.6667 270.867 63.1016 270.867 63.6641C270.867 64.1536 271.016 64.5156 271.312 64.75C271.609 64.9844 272.003 65.1016 272.492 65.1016C273.253 65.1016 273.875 64.8906 274.359 64.4688C274.844 64.0469 275.086 63.4141 275.086 62.5703V61.7812ZM283.094 57.2812C284.109 57.2812 284.878 57.5312 285.398 58.0312C285.919 58.526 286.18 59.3229 286.18 60.4219V66H284.898V60.5078C284.898 59.7943 284.734 59.2604 284.406 58.9062C284.083 58.5521 283.586 58.375 282.914 58.375C281.966 58.375 281.299 58.6432 280.914 59.1797C280.529 59.7161 280.336 60.4948 280.336 61.5156V66H279.039V57.4375H280.086L280.281 58.6719H280.352C280.534 58.3698 280.766 58.1172 281.047 57.9141C281.328 57.7057 281.643 57.5495 281.992 57.4453C282.341 57.3359 282.708 57.2812 283.094 57.2812ZM292.055 57.2969C293.076 57.2969 293.833 57.526 294.328 57.9844C294.823 58.4427 295.07 59.1745 295.07 60.1797V66H294.125L293.875 64.7344H293.812C293.573 65.0469 293.323 65.3099 293.062 65.5234C292.802 65.7318 292.5 65.8906 292.156 66C291.818 66.1042 291.401 66.1562 290.906 66.1562C290.385 66.1562 289.922 66.0651 289.516 65.8828C289.115 65.7005 288.797 65.4245 288.562 65.0547C288.333 64.6849 288.219 64.2161 288.219 63.6484C288.219 62.7943 288.557 62.138 289.234 61.6797C289.911 61.2214 290.943 60.9714 292.328 60.9297L293.805 60.8672V60.3438C293.805 59.6042 293.646 59.0859 293.328 58.7891C293.01 58.4922 292.562 58.3438 291.984 58.3438C291.536 58.3438 291.109 58.4089 290.703 58.5391C290.297 58.6693 289.911 58.8229 289.547 59L289.148 58.0156C289.534 57.8177 289.977 57.6484 290.477 57.5078C290.977 57.3672 291.503 57.2969 292.055 57.2969ZM293.789 61.7812L292.484 61.8359C291.417 61.8776 290.664 62.0521 290.227 62.3594C289.789 62.6667 289.57 63.1016 289.57 63.6641C289.57 64.1536 289.719 64.5156 290.016 64.75C290.312 64.9844 290.706 65.1016 291.195 65.1016C291.956 65.1016 292.578 64.8906 293.062 64.4688C293.547 64.0469 293.789 63.4141 293.789 62.5703V61.7812Z" fill="#101E37"/>
</svg>
