<svg width="443" height="120" viewBox="0 0 443 120" fill="none" xmlns="http://www.w3.org/2000/svg">
<rect x="1" y="1" width="441" height="118" rx="7" fill="#F3F6F9"/>
<rect x="1" y="1" width="441" height="118" rx="7" stroke="#E6EBF0" stroke-width="2"/>
<rect x="79.5" y="48" width="24" height="24" rx="4" fill="#274986"/>
<path d="M89.0962 62.9061L86.4937 60.3036C86.2012 60.0111 85.7287 60.0111 85.4362 60.3036C85.1437 60.5961 85.1437 61.0686 85.4362 61.3611L88.5712 64.4961C88.8637 64.7886 89.3362 64.7886 89.6287 64.4961L97.5637 56.5611C97.8562 56.2686 97.8562 55.7961 97.5637 55.5036C97.2712 55.2111 96.7987 55.2111 96.5062 55.5036L89.0962 62.9061Z" fill="white"/>
<path d="M119.227 66L117.82 62.375H113.242L111.844 66H110.5L114.969 54.5312H116.164L120.602 66H119.227ZM117.422 61.1953L116.086 57.5938C116.055 57.5 116.003 57.3464 115.93 57.1328C115.862 56.9193 115.792 56.6979 115.719 56.4688C115.646 56.2396 115.586 56.0547 115.539 55.9141C115.487 56.1276 115.43 56.3411 115.367 56.5547C115.31 56.763 115.253 56.9583 115.195 57.1406C115.138 57.3177 115.089 57.4688 115.047 57.5938L113.688 61.1953H117.422ZM125.422 66.1562C124.651 66.1562 123.971 65.9974 123.383 65.6797C122.794 65.362 122.336 64.8776 122.008 64.2266C121.68 63.5755 121.516 62.7552 121.516 61.7656C121.516 60.7292 121.688 59.8828 122.031 59.2266C122.38 58.5651 122.859 58.0755 123.469 57.7578C124.078 57.4401 124.771 57.2812 125.547 57.2812C125.974 57.2812 126.385 57.3255 126.781 57.4141C127.182 57.4974 127.51 57.6042 127.766 57.7344L127.375 58.8203C127.115 58.7161 126.812 58.6224 126.469 58.5391C126.13 58.4557 125.812 58.4141 125.516 58.4141C124.922 58.4141 124.427 58.5417 124.031 58.7969C123.641 59.0521 123.346 59.4271 123.148 59.9219C122.956 60.4167 122.859 61.026 122.859 61.75C122.859 62.4427 122.953 63.0339 123.141 63.5234C123.333 64.013 123.617 64.388 123.992 64.6484C124.372 64.9036 124.846 65.0312 125.414 65.0312C125.867 65.0312 126.276 64.9844 126.641 64.8906C127.005 64.7917 127.336 64.6771 127.633 64.5469V65.7031C127.346 65.849 127.026 65.9609 126.672 66.0391C126.323 66.1172 125.906 66.1562 125.422 66.1562ZM132.961 57.2812C133.69 57.2812 134.315 57.4427 134.836 57.7656C135.357 58.0885 135.755 58.5417 136.031 59.125C136.307 59.7031 136.445 60.3802 136.445 61.1562V61.9609H130.531C130.547 62.9661 130.797 63.7318 131.281 64.2578C131.766 64.7839 132.448 65.0469 133.328 65.0469C133.87 65.0469 134.349 64.9974 134.766 64.8984C135.182 64.7995 135.615 64.6536 136.062 64.4609V65.6016C135.63 65.7943 135.201 65.9349 134.773 66.0234C134.352 66.112 133.852 66.1562 133.273 66.1562C132.451 66.1562 131.732 65.9896 131.117 65.6562C130.508 65.3177 130.034 64.8229 129.695 64.1719C129.357 63.5208 129.188 62.724 129.188 61.7812C129.188 60.8594 129.341 60.0625 129.648 59.3906C129.961 58.7135 130.398 58.1927 130.961 57.8281C131.529 57.4635 132.195 57.2812 132.961 57.2812ZM132.945 58.3438C132.253 58.3438 131.701 58.5703 131.289 59.0234C130.878 59.4766 130.633 60.1094 130.555 60.9219H135.086C135.081 60.4115 135 59.9635 134.844 59.5781C134.693 59.1875 134.461 58.8854 134.148 58.6719C133.836 58.4531 133.435 58.3438 132.945 58.3438ZM142.672 57.2812C143.74 57.2812 144.591 57.6484 145.227 58.3828C145.862 59.1172 146.18 60.2214 146.18 61.6953C146.18 62.6693 146.034 63.487 145.742 64.1484C145.451 64.8099 145.039 65.3099 144.508 65.6484C143.982 65.987 143.359 66.1562 142.641 66.1562C142.188 66.1562 141.789 66.0964 141.445 65.9766C141.102 65.8568 140.807 65.6953 140.562 65.4922C140.318 65.2891 140.115 65.0677 139.953 64.8281H139.859C139.875 65.0312 139.893 65.276 139.914 65.5625C139.94 65.849 139.953 66.099 139.953 66.3125V69.8281H138.648V57.4375H139.719L139.891 58.7031H139.953C140.12 58.4427 140.323 58.2057 140.562 57.9922C140.802 57.7734 141.094 57.6016 141.438 57.4766C141.786 57.3464 142.198 57.2812 142.672 57.2812ZM142.445 58.375C141.852 58.375 141.372 58.4896 141.008 58.7188C140.648 58.9479 140.385 59.2917 140.219 59.75C140.052 60.2031 139.964 60.7734 139.953 61.4609V61.7109C139.953 62.4349 140.031 63.0469 140.188 63.5469C140.349 64.0469 140.612 64.4271 140.977 64.6875C141.346 64.9479 141.841 65.0781 142.461 65.0781C142.992 65.0781 143.435 64.9349 143.789 64.6484C144.143 64.362 144.406 63.9635 144.578 63.4531C144.755 62.9375 144.844 62.3464 144.844 61.6797C144.844 60.6693 144.646 59.8672 144.25 59.2734C143.859 58.6745 143.258 58.375 142.445 58.375ZM151.211 65.0938C151.424 65.0938 151.643 65.0755 151.867 65.0391C152.091 65.0026 152.273 64.9583 152.414 64.9062V65.9141C152.263 65.9818 152.052 66.0391 151.781 66.0859C151.516 66.1328 151.255 66.1562 151 66.1562C150.547 66.1562 150.135 66.0781 149.766 65.9219C149.396 65.7604 149.099 65.4896 148.875 65.1094C148.656 64.7292 148.547 64.2031 148.547 63.5312V58.4531H147.328V57.8203L148.555 57.3125L149.07 55.4531H149.852V57.4375H152.359V58.4531H149.852V63.4922C149.852 64.0286 149.974 64.4297 150.219 64.6953C150.469 64.9609 150.799 65.0938 151.211 65.0938ZM161.531 61.7031C161.531 62.4062 161.44 63.0339 161.258 63.5859C161.076 64.138 160.812 64.6042 160.469 64.9844C160.125 65.3646 159.708 65.6562 159.219 65.8594C158.734 66.0573 158.185 66.1562 157.57 66.1562C156.997 66.1562 156.471 66.0573 155.992 65.8594C155.518 65.6562 155.107 65.3646 154.758 64.9844C154.414 64.6042 154.146 64.138 153.953 63.5859C153.766 63.0339 153.672 62.4062 153.672 61.7031C153.672 60.7656 153.831 59.9688 154.148 59.3125C154.466 58.651 154.919 58.1484 155.508 57.8047C156.102 57.4557 156.807 57.2812 157.625 57.2812C158.406 57.2812 159.089 57.4557 159.672 57.8047C160.26 58.1536 160.716 58.6589 161.039 59.3203C161.367 59.9766 161.531 60.7708 161.531 61.7031ZM155.016 61.7031C155.016 62.3906 155.107 62.987 155.289 63.4922C155.471 63.9974 155.753 64.388 156.133 64.6641C156.513 64.9401 157.003 65.0781 157.602 65.0781C158.195 65.0781 158.682 64.9401 159.062 64.6641C159.448 64.388 159.732 63.9974 159.914 63.4922C160.096 62.987 160.188 62.3906 160.188 61.7031C160.188 61.0208 160.096 60.4323 159.914 59.9375C159.732 59.4375 159.451 59.0521 159.07 58.7812C158.69 58.5104 158.198 58.375 157.594 58.375C156.703 58.375 156.049 58.6693 155.633 59.2578C155.221 59.8464 155.016 60.6615 155.016 61.7031ZM169.234 66H167.93V53.8438H169.234V66ZM179.359 61.7031C179.359 62.4062 179.268 63.0339 179.086 63.5859C178.904 64.138 178.641 64.6042 178.297 64.9844C177.953 65.3646 177.536 65.6562 177.047 65.8594C176.562 66.0573 176.013 66.1562 175.398 66.1562C174.826 66.1562 174.299 66.0573 173.82 65.8594C173.346 65.6562 172.935 65.3646 172.586 64.9844C172.242 64.6042 171.974 64.138 171.781 63.5859C171.594 63.0339 171.5 62.4062 171.5 61.7031C171.5 60.7656 171.659 59.9688 171.977 59.3125C172.294 58.651 172.747 58.1484 173.336 57.8047C173.93 57.4557 174.635 57.2812 175.453 57.2812C176.234 57.2812 176.917 57.4557 177.5 57.8047C178.089 58.1536 178.544 58.6589 178.867 59.3203C179.195 59.9766 179.359 60.7708 179.359 61.7031ZM172.844 61.7031C172.844 62.3906 172.935 62.987 173.117 63.4922C173.299 63.9974 173.581 64.388 173.961 64.6641C174.341 64.9401 174.831 65.0781 175.43 65.0781C176.023 65.0781 176.51 64.9401 176.891 64.6641C177.276 64.388 177.56 63.9974 177.742 63.4922C177.924 62.987 178.016 62.3906 178.016 61.7031C178.016 61.0208 177.924 60.4323 177.742 59.9375C177.56 59.4375 177.279 59.0521 176.898 58.7812C176.518 58.5104 176.026 58.375 175.422 58.375C174.531 58.375 173.878 58.6693 173.461 59.2578C173.049 59.8464 172.844 60.6615 172.844 61.7031ZM187.141 63.6562C187.141 64.2031 187.003 64.6641 186.727 65.0391C186.456 65.4089 186.065 65.6875 185.555 65.875C185.049 66.0625 184.445 66.1562 183.742 66.1562C183.143 66.1562 182.625 66.1094 182.188 66.0156C181.75 65.9219 181.367 65.7891 181.039 65.6172V64.4219C181.388 64.5938 181.805 64.75 182.289 64.8906C182.773 65.0312 183.268 65.1016 183.773 65.1016C184.513 65.1016 185.049 64.9818 185.383 64.7422C185.716 64.5026 185.883 64.1771 185.883 63.7656C185.883 63.5312 185.815 63.3255 185.68 63.1484C185.549 62.9661 185.328 62.7917 185.016 62.625C184.703 62.4531 184.271 62.2656 183.719 62.0625C183.172 61.8542 182.698 61.6484 182.297 61.4453C181.901 61.237 181.594 60.9844 181.375 60.6875C181.161 60.3906 181.055 60.0052 181.055 59.5312C181.055 58.8073 181.346 58.2526 181.93 57.8672C182.518 57.4766 183.289 57.2812 184.242 57.2812C184.758 57.2812 185.24 57.3333 185.688 57.4375C186.141 57.5365 186.562 57.6719 186.953 57.8438L186.516 58.8828C186.161 58.7318 185.784 58.6042 185.383 58.5C184.982 58.3958 184.573 58.3438 184.156 58.3438C183.557 58.3438 183.096 58.4427 182.773 58.6406C182.456 58.8385 182.297 59.1094 182.297 59.4531C182.297 59.7188 182.37 59.9375 182.516 60.1094C182.667 60.2812 182.906 60.4427 183.234 60.5938C183.562 60.7448 183.995 60.9219 184.531 61.125C185.068 61.3229 185.531 61.5286 185.922 61.7422C186.312 61.9505 186.612 62.2057 186.82 62.5078C187.034 62.8047 187.141 63.1875 187.141 63.6562ZM197.086 66H195.75V55.75H192.156V54.5781H200.664V55.75H197.086V66ZM205.492 57.2812C206.221 57.2812 206.846 57.4427 207.367 57.7656C207.888 58.0885 208.286 58.5417 208.562 59.125C208.839 59.7031 208.977 60.3802 208.977 61.1562V61.9609H203.062C203.078 62.9661 203.328 63.7318 203.812 64.2578C204.297 64.7839 204.979 65.0469 205.859 65.0469C206.401 65.0469 206.88 64.9974 207.297 64.8984C207.714 64.7995 208.146 64.6536 208.594 64.4609V65.6016C208.161 65.7943 207.732 65.9349 207.305 66.0234C206.883 66.112 206.383 66.1562 205.805 66.1562C204.982 66.1562 204.263 65.9896 203.648 65.6562C203.039 65.3177 202.565 64.8229 202.227 64.1719C201.888 63.5208 201.719 62.724 201.719 61.7812C201.719 60.8594 201.872 60.0625 202.18 59.3906C202.492 58.7135 202.93 58.1927 203.492 57.8281C204.06 57.4635 204.727 57.2812 205.492 57.2812ZM205.477 58.3438C204.784 58.3438 204.232 58.5703 203.82 59.0234C203.409 59.4766 203.164 60.1094 203.086 60.9219H207.617C207.612 60.4115 207.531 59.9635 207.375 59.5781C207.224 59.1875 206.992 58.8854 206.68 58.6719C206.367 58.4531 205.966 58.3438 205.477 58.3438ZM207.641 53.7422V53.8984C207.536 54.0495 207.393 54.2318 207.211 54.4453C207.034 54.6536 206.836 54.875 206.617 55.1094C206.398 55.3385 206.177 55.5573 205.953 55.7656C205.734 55.974 205.531 56.1536 205.344 56.3047H204.477V56.1172C204.643 55.9193 204.826 55.6823 205.023 55.4062C205.221 55.125 205.414 54.8385 205.602 54.5469C205.789 54.25 205.945 53.9818 206.07 53.7422H207.641ZM215.07 57.2812C215.242 57.2812 215.422 57.2917 215.609 57.3125C215.797 57.3281 215.964 57.3516 216.109 57.3828L215.945 58.5859C215.805 58.5495 215.648 58.5208 215.477 58.5C215.305 58.4792 215.143 58.4688 214.992 58.4688C214.648 58.4688 214.323 58.5391 214.016 58.6797C213.714 58.8151 213.448 59.013 213.219 59.2734C212.99 59.5286 212.81 59.8385 212.68 60.2031C212.549 60.5625 212.484 60.9635 212.484 61.4062V66H211.18V57.4375H212.258L212.398 59.0156H212.453C212.63 58.6979 212.844 58.4089 213.094 58.1484C213.344 57.8828 213.633 57.6719 213.961 57.5156C214.294 57.3594 214.664 57.2812 215.07 57.2812ZM227.023 57.2812C227.966 57.2812 228.677 57.5286 229.156 58.0234C229.635 58.513 229.875 59.3021 229.875 60.3906V66H228.594V60.4531C228.594 59.7604 228.443 59.2422 228.141 58.8984C227.844 58.5495 227.401 58.375 226.812 58.375C225.984 58.375 225.383 58.6146 225.008 59.0938C224.633 59.5729 224.445 60.2786 224.445 61.2109V66H223.156V60.4531C223.156 59.9896 223.089 59.6042 222.953 59.2969C222.823 58.9896 222.625 58.7604 222.359 58.6094C222.099 58.4531 221.768 58.375 221.367 58.375C220.799 58.375 220.344 58.4922 220 58.7266C219.656 58.9609 219.406 59.3099 219.25 59.7734C219.099 60.2318 219.023 60.7969 219.023 61.4688V66H217.727V57.4375H218.773L218.969 58.6484H219.039C219.211 58.3516 219.427 58.1016 219.688 57.8984C219.948 57.6953 220.24 57.5417 220.562 57.4375C220.885 57.3333 221.229 57.2812 221.594 57.2812C222.245 57.2812 222.789 57.4036 223.227 57.6484C223.669 57.888 223.99 58.2552 224.188 58.75H224.258C224.539 58.2552 224.924 57.888 225.414 57.6484C225.904 57.4036 226.44 57.2812 227.023 57.2812ZM233.836 57.4375V66H232.539V57.4375H233.836ZM233.203 54.2344C233.417 54.2344 233.599 54.3047 233.75 54.4453C233.906 54.5807 233.984 54.7943 233.984 55.0859C233.984 55.3724 233.906 55.5859 233.75 55.7266C233.599 55.8672 233.417 55.9375 233.203 55.9375C232.979 55.9375 232.792 55.8672 232.641 55.7266C232.495 55.5859 232.422 55.3724 232.422 55.0859C232.422 54.7943 232.495 54.5807 232.641 54.4453C232.792 54.3047 232.979 54.2344 233.203 54.2344ZM240.641 57.2812C241.656 57.2812 242.424 57.5312 242.945 58.0312C243.466 58.526 243.727 59.3229 243.727 60.4219V66H242.445V60.5078C242.445 59.7943 242.281 59.2604 241.953 58.9062C241.63 58.5521 241.133 58.375 240.461 58.375C239.513 58.375 238.846 58.6432 238.461 59.1797C238.076 59.7161 237.883 60.4948 237.883 61.5156V66H236.586V57.4375H237.633L237.828 58.6719H237.898C238.081 58.3698 238.312 58.1172 238.594 57.9141C238.875 57.7057 239.19 57.5495 239.539 57.4453C239.888 57.3359 240.255 57.2812 240.641 57.2812ZM253.781 61.7031C253.781 62.4062 253.69 63.0339 253.508 63.5859C253.326 64.138 253.062 64.6042 252.719 64.9844C252.375 65.3646 251.958 65.6562 251.469 65.8594C250.984 66.0573 250.435 66.1562 249.82 66.1562C249.247 66.1562 248.721 66.0573 248.242 65.8594C247.768 65.6562 247.357 65.3646 247.008 64.9844C246.664 64.6042 246.396 64.138 246.203 63.5859C246.016 63.0339 245.922 62.4062 245.922 61.7031C245.922 60.7656 246.081 59.9688 246.398 59.3125C246.716 58.651 247.169 58.1484 247.758 57.8047C248.352 57.4557 249.057 57.2812 249.875 57.2812C250.656 57.2812 251.339 57.4557 251.922 57.8047C252.51 58.1536 252.966 58.6589 253.289 59.3203C253.617 59.9766 253.781 60.7708 253.781 61.7031ZM247.266 61.7031C247.266 62.3906 247.357 62.987 247.539 63.4922C247.721 63.9974 248.003 64.388 248.383 64.6641C248.763 64.9401 249.253 65.0781 249.852 65.0781C250.445 65.0781 250.932 64.9401 251.312 64.6641C251.698 64.388 251.982 63.9974 252.164 63.4922C252.346 62.987 252.438 62.3906 252.438 61.7031C252.438 61.0208 252.346 60.4323 252.164 59.9375C251.982 59.4375 251.701 59.0521 251.32 58.7812C250.94 58.5104 250.448 58.375 249.844 58.375C248.953 58.375 248.299 58.6693 247.883 59.2578C247.471 59.8464 247.266 60.6615 247.266 61.7031ZM261.562 63.6562C261.562 64.2031 261.424 64.6641 261.148 65.0391C260.878 65.4089 260.487 65.6875 259.977 65.875C259.471 66.0625 258.867 66.1562 258.164 66.1562C257.565 66.1562 257.047 66.1094 256.609 66.0156C256.172 65.9219 255.789 65.7891 255.461 65.6172V64.4219C255.81 64.5938 256.227 64.75 256.711 64.8906C257.195 65.0312 257.69 65.1016 258.195 65.1016C258.935 65.1016 259.471 64.9818 259.805 64.7422C260.138 64.5026 260.305 64.1771 260.305 63.7656C260.305 63.5312 260.237 63.3255 260.102 63.1484C259.971 62.9661 259.75 62.7917 259.438 62.625C259.125 62.4531 258.693 62.2656 258.141 62.0625C257.594 61.8542 257.12 61.6484 256.719 61.4453C256.323 61.237 256.016 60.9844 255.797 60.6875C255.583 60.3906 255.477 60.0052 255.477 59.5312C255.477 58.8073 255.768 58.2526 256.352 57.8672C256.94 57.4766 257.711 57.2812 258.664 57.2812C259.18 57.2812 259.661 57.3333 260.109 57.4375C260.562 57.5365 260.984 57.6719 261.375 57.8438L260.938 58.8828C260.583 58.7318 260.206 58.6042 259.805 58.5C259.404 58.3958 258.995 58.3438 258.578 58.3438C257.979 58.3438 257.518 58.4427 257.195 58.6406C256.878 58.8385 256.719 59.1094 256.719 59.4531C256.719 59.7188 256.792 59.9375 256.938 60.1094C257.089 60.2812 257.328 60.4427 257.656 60.5938C257.984 60.7448 258.417 60.9219 258.953 61.125C259.49 61.3229 259.953 61.5286 260.344 61.7422C260.734 61.9505 261.034 62.2057 261.242 62.5078C261.456 62.8047 261.562 63.1875 261.562 63.6562ZM266.453 57.4375H267.844L269.734 62.4062C269.844 62.6979 269.945 62.9792 270.039 63.25C270.133 63.5156 270.216 63.7708 270.289 64.0156C270.362 64.2604 270.419 64.4974 270.461 64.7266H270.516C270.589 64.4661 270.693 64.125 270.828 63.7031C270.964 63.276 271.109 62.8411 271.266 62.3984L273.055 57.4375H274.453L270.727 67.2578C270.529 67.7839 270.297 68.2422 270.031 68.6328C269.771 69.0234 269.453 69.3229 269.078 69.5312C268.703 69.7448 268.25 69.8516 267.719 69.8516C267.474 69.8516 267.258 69.8359 267.07 69.8047C266.883 69.7786 266.721 69.7474 266.586 69.7109V68.6719C266.701 68.6979 266.839 68.7214 267 68.7422C267.167 68.763 267.339 68.7734 267.516 68.7734C267.839 68.7734 268.117 68.7109 268.352 68.5859C268.591 68.4661 268.797 68.2891 268.969 68.0547C269.141 67.8203 269.289 67.5417 269.414 67.2188L269.883 66.0156L266.453 57.4375ZM285.055 55.5859C284.424 55.5859 283.857 55.6953 283.352 55.9141C282.852 56.1276 282.424 56.4401 282.07 56.8516C281.721 57.2578 281.453 57.75 281.266 58.3281C281.078 58.9062 280.984 59.5573 280.984 60.2812C280.984 61.2396 281.133 62.0729 281.43 62.7812C281.732 63.4844 282.18 64.0286 282.773 64.4141C283.372 64.7995 284.12 64.9922 285.016 64.9922C285.526 64.9922 286.005 64.9505 286.453 64.8672C286.906 64.7786 287.346 64.6693 287.773 64.5391V65.6953C287.357 65.8516 286.919 65.9661 286.461 66.0391C286.003 66.1172 285.458 66.1562 284.828 66.1562C283.667 66.1562 282.695 65.9167 281.914 65.4375C281.138 64.9531 280.555 64.2708 280.164 63.3906C279.779 62.5104 279.586 61.4714 279.586 60.2734C279.586 59.4089 279.706 58.6198 279.945 57.9062C280.19 57.1875 280.544 56.5677 281.008 56.0469C281.477 55.526 282.049 55.125 282.727 54.8438C283.409 54.5573 284.19 54.4141 285.07 54.4141C285.648 54.4141 286.206 54.4714 286.742 54.5859C287.279 54.7005 287.763 54.8646 288.195 55.0781L287.664 56.2031C287.299 56.0365 286.898 55.8932 286.461 55.7734C286.029 55.6484 285.56 55.5859 285.055 55.5859ZM297.438 61.7031C297.438 62.4062 297.346 63.0339 297.164 63.5859C296.982 64.138 296.719 64.6042 296.375 64.9844C296.031 65.3646 295.615 65.6562 295.125 65.8594C294.641 66.0573 294.091 66.1562 293.477 66.1562C292.904 66.1562 292.378 66.0573 291.898 65.8594C291.424 65.6562 291.013 65.3646 290.664 64.9844C290.32 64.6042 290.052 64.138 289.859 63.5859C289.672 63.0339 289.578 62.4062 289.578 61.7031C289.578 60.7656 289.737 59.9688 290.055 59.3125C290.372 58.651 290.826 58.1484 291.414 57.8047C292.008 57.4557 292.714 57.2812 293.531 57.2812C294.312 57.2812 294.995 57.4557 295.578 57.8047C296.167 58.1536 296.622 58.6589 296.945 59.3203C297.273 59.9766 297.438 60.7708 297.438 61.7031ZM290.922 61.7031C290.922 62.3906 291.013 62.987 291.195 63.4922C291.378 63.9974 291.659 64.388 292.039 64.6641C292.419 64.9401 292.909 65.0781 293.508 65.0781C294.102 65.0781 294.589 64.9401 294.969 64.6641C295.354 64.388 295.638 63.9974 295.82 63.4922C296.003 62.987 296.094 62.3906 296.094 61.7031C296.094 61.0208 296.003 60.4323 295.82 59.9375C295.638 59.4375 295.357 59.0521 294.977 58.7812C294.596 58.5104 294.104 58.375 293.5 58.375C292.609 58.375 291.956 58.6693 291.539 59.2578C291.128 59.8464 290.922 60.6615 290.922 61.7031ZM303.734 57.2812C304.75 57.2812 305.518 57.5312 306.039 58.0312C306.56 58.526 306.82 59.3229 306.82 60.4219V66H305.539V60.5078C305.539 59.7943 305.375 59.2604 305.047 58.9062C304.724 58.5521 304.227 58.375 303.555 58.375C302.607 58.375 301.94 58.6432 301.555 59.1797C301.169 59.7161 300.977 60.4948 300.977 61.5156V66H299.68V57.4375H300.727L300.922 58.6719H300.992C301.174 58.3698 301.406 58.1172 301.688 57.9141C301.969 57.7057 302.284 57.5495 302.633 57.4453C302.982 57.3359 303.349 57.2812 303.734 57.2812ZM312.539 66.1562C311.456 66.1562 310.596 65.7865 309.961 65.0469C309.331 64.3073 309.016 63.2083 309.016 61.75C309.016 60.276 309.339 59.1641 309.984 58.4141C310.63 57.6589 311.49 57.2812 312.562 57.2812C313.016 57.2812 313.411 57.3411 313.75 57.4609C314.089 57.5807 314.38 57.7422 314.625 57.9453C314.87 58.1432 315.076 58.3698 315.242 58.625H315.336C315.315 58.4635 315.294 58.2422 315.273 57.9609C315.253 57.6797 315.242 57.4505 315.242 57.2734V53.8438H316.539V66H315.492L315.297 64.7812H315.242C315.081 65.0365 314.875 65.2682 314.625 65.4766C314.38 65.6849 314.086 65.8516 313.742 65.9766C313.404 66.0964 313.003 66.1562 312.539 66.1562ZM312.742 65.0781C313.659 65.0781 314.307 64.8177 314.688 64.2969C315.068 63.776 315.258 63.0026 315.258 61.9766V61.7422C315.258 60.6536 315.076 59.8177 314.711 59.2344C314.352 58.651 313.695 58.3594 312.742 58.3594C311.945 58.3594 311.349 58.6667 310.953 59.2812C310.557 59.8906 310.359 60.724 310.359 61.7812C310.359 62.8333 310.555 63.6458 310.945 64.2188C311.341 64.7917 311.94 65.0781 312.742 65.0781ZM320.586 57.4375V66H319.289V57.4375H320.586ZM319.953 54.2344C320.167 54.2344 320.349 54.3047 320.5 54.4453C320.656 54.5807 320.734 54.7943 320.734 55.0859C320.734 55.3724 320.656 55.5859 320.5 55.7266C320.349 55.8672 320.167 55.9375 319.953 55.9375C319.729 55.9375 319.542 55.8672 319.391 55.7266C319.245 55.5859 319.172 55.3724 319.172 55.0859C319.172 54.7943 319.245 54.5807 319.391 54.4453C319.542 54.3047 319.729 54.2344 319.953 54.2344ZM326.766 66.1562C325.995 66.1562 325.315 65.9974 324.727 65.6797C324.138 65.362 323.68 64.8776 323.352 64.2266C323.023 63.5755 322.859 62.7552 322.859 61.7656C322.859 60.7292 323.031 59.8828 323.375 59.2266C323.724 58.5651 324.203 58.0755 324.812 57.7578C325.422 57.4401 326.115 57.2812 326.891 57.2812C327.318 57.2812 327.729 57.3255 328.125 57.4141C328.526 57.4974 328.854 57.6042 329.109 57.7344L328.719 58.8203C328.458 58.7161 328.156 58.6224 327.812 58.5391C327.474 58.4557 327.156 58.4141 326.859 58.4141C326.266 58.4141 325.771 58.5417 325.375 58.7969C324.984 59.0521 324.69 59.4271 324.492 59.9219C324.299 60.4167 324.203 61.026 324.203 61.75C324.203 62.4427 324.297 63.0339 324.484 63.5234C324.677 64.013 324.961 64.388 325.336 64.6484C325.716 64.9036 326.19 65.0312 326.758 65.0312C327.211 65.0312 327.62 64.9844 327.984 64.8906C328.349 64.7917 328.68 64.6771 328.977 64.5469V65.7031C328.69 65.849 328.37 65.9609 328.016 66.0391C327.667 66.1172 327.25 66.1562 326.766 66.1562ZM332.305 57.4375V66H331.008V57.4375H332.305ZM331.672 54.2344C331.885 54.2344 332.068 54.3047 332.219 54.4453C332.375 54.5807 332.453 54.7943 332.453 55.0859C332.453 55.3724 332.375 55.5859 332.219 55.7266C332.068 55.8672 331.885 55.9375 331.672 55.9375C331.448 55.9375 331.26 55.8672 331.109 55.7266C330.964 55.5859 330.891 55.3724 330.891 55.0859C330.891 54.7943 330.964 54.5807 331.109 54.4453C331.26 54.3047 331.448 54.2344 331.672 54.2344ZM342.438 61.7031C342.438 62.4062 342.346 63.0339 342.164 63.5859C341.982 64.138 341.719 64.6042 341.375 64.9844C341.031 65.3646 340.615 65.6562 340.125 65.8594C339.641 66.0573 339.091 66.1562 338.477 66.1562C337.904 66.1562 337.378 66.0573 336.898 65.8594C336.424 65.6562 336.013 65.3646 335.664 64.9844C335.32 64.6042 335.052 64.138 334.859 63.5859C334.672 63.0339 334.578 62.4062 334.578 61.7031C334.578 60.7656 334.737 59.9688 335.055 59.3125C335.372 58.651 335.826 58.1484 336.414 57.8047C337.008 57.4557 337.714 57.2812 338.531 57.2812C339.312 57.2812 339.995 57.4557 340.578 57.8047C341.167 58.1536 341.622 58.6589 341.945 59.3203C342.273 59.9766 342.438 60.7708 342.438 61.7031ZM335.922 61.7031C335.922 62.3906 336.013 62.987 336.195 63.4922C336.378 63.9974 336.659 64.388 337.039 64.6641C337.419 64.9401 337.909 65.0781 338.508 65.0781C339.102 65.0781 339.589 64.9401 339.969 64.6641C340.354 64.388 340.638 63.9974 340.82 63.4922C341.003 62.987 341.094 62.3906 341.094 61.7031C341.094 61.0208 341.003 60.4323 340.82 59.9375C340.638 59.4375 340.357 59.0521 339.977 58.7812C339.596 58.5104 339.104 58.375 338.5 58.375C337.609 58.375 336.956 58.6693 336.539 59.2578C336.128 59.8464 335.922 60.6615 335.922 61.7031ZM348.734 57.2812C349.75 57.2812 350.518 57.5312 351.039 58.0312C351.56 58.526 351.82 59.3229 351.82 60.4219V66H350.539V60.5078C350.539 59.7943 350.375 59.2604 350.047 58.9062C349.724 58.5521 349.227 58.375 348.555 58.375C347.607 58.375 346.94 58.6432 346.555 59.1797C346.169 59.7161 345.977 60.4948 345.977 61.5156V66H344.68V57.4375H345.727L345.922 58.6719H345.992C346.174 58.3698 346.406 58.1172 346.688 57.9141C346.969 57.7057 347.284 57.5495 347.633 57.4453C347.982 57.3359 348.349 57.2812 348.734 57.2812ZM357.789 57.2812C358.518 57.2812 359.143 57.4427 359.664 57.7656C360.185 58.0885 360.583 58.5417 360.859 59.125C361.135 59.7031 361.273 60.3802 361.273 61.1562V61.9609H355.359C355.375 62.9661 355.625 63.7318 356.109 64.2578C356.594 64.7839 357.276 65.0469 358.156 65.0469C358.698 65.0469 359.177 64.9974 359.594 64.8984C360.01 64.7995 360.443 64.6536 360.891 64.4609V65.6016C360.458 65.7943 360.029 65.9349 359.602 66.0234C359.18 66.112 358.68 66.1562 358.102 66.1562C357.279 66.1562 356.56 65.9896 355.945 65.6562C355.336 65.3177 354.862 64.8229 354.523 64.1719C354.185 63.5208 354.016 62.724 354.016 61.7812C354.016 60.8594 354.169 60.0625 354.477 59.3906C354.789 58.7135 355.227 58.1927 355.789 57.8281C356.357 57.4635 357.023 57.2812 357.789 57.2812ZM357.773 58.3438C357.081 58.3438 356.529 58.5703 356.117 59.0234C355.706 59.4766 355.461 60.1094 355.383 60.9219H359.914C359.909 60.4115 359.828 59.9635 359.672 59.5781C359.521 59.1875 359.289 58.8854 358.977 58.6719C358.664 58.4531 358.263 58.3438 357.773 58.3438ZM369.016 63.6562C369.016 64.2031 368.878 64.6641 368.602 65.0391C368.331 65.4089 367.94 65.6875 367.43 65.875C366.924 66.0625 366.32 66.1562 365.617 66.1562C365.018 66.1562 364.5 66.1094 364.062 66.0156C363.625 65.9219 363.242 65.7891 362.914 65.6172V64.4219C363.263 64.5938 363.68 64.75 364.164 64.8906C364.648 65.0312 365.143 65.1016 365.648 65.1016C366.388 65.1016 366.924 64.9818 367.258 64.7422C367.591 64.5026 367.758 64.1771 367.758 63.7656C367.758 63.5312 367.69 63.3255 367.555 63.1484C367.424 62.9661 367.203 62.7917 366.891 62.625C366.578 62.4531 366.146 62.2656 365.594 62.0625C365.047 61.8542 364.573 61.6484 364.172 61.4453C363.776 61.237 363.469 60.9844 363.25 60.6875C363.036 60.3906 362.93 60.0052 362.93 59.5312C362.93 58.8073 363.221 58.2526 363.805 57.8672C364.393 57.4766 365.164 57.2812 366.117 57.2812C366.633 57.2812 367.115 57.3333 367.562 57.4375C368.016 57.5365 368.438 57.6719 368.828 57.8438L368.391 58.8828C368.036 58.7318 367.659 58.6042 367.258 58.5C366.857 58.3958 366.448 58.3438 366.031 58.3438C365.432 58.3438 364.971 58.4427 364.648 58.6406C364.331 58.8385 364.172 59.1094 364.172 59.4531C364.172 59.7188 364.245 59.9375 364.391 60.1094C364.542 60.2812 364.781 60.4427 365.109 60.5938C365.438 60.7448 365.87 60.9219 366.406 61.125C366.943 61.3229 367.406 61.5286 367.797 61.7422C368.188 61.9505 368.487 62.2057 368.695 62.5078C368.909 62.8047 369.016 63.1875 369.016 63.6562Z" fill="#101E37"/>
</svg>
