<svg width="443" height="160" viewBox="0 0 443 160" fill="none" xmlns="http://www.w3.org/2000/svg">
<rect x="1" y="1" width="441" height="158" rx="7" fill="#F3F6F9"/>
<rect x="1" y="1" width="441" height="158" rx="7" stroke="#E6EBF0" stroke-width="2"/>
<path d="M123.858 58.126C123.582 58.126 123.366 58.048 123.21 57.892C123.054 57.736 122.976 57.514 122.976 57.226V46.12C122.976 45.82 123.048 45.592 123.192 45.436C123.348 45.268 123.552 45.184 123.804 45.184C124.02 45.184 124.182 45.226 124.29 45.31C124.41 45.382 124.548 45.52 124.704 45.724L132.12 55.498H131.67V46.066C131.67 45.79 131.742 45.574 131.886 45.418C132.042 45.262 132.258 45.184 132.534 45.184C132.822 45.184 133.038 45.262 133.182 45.418C133.326 45.574 133.398 45.79 133.398 46.066V57.244C133.398 57.52 133.326 57.736 133.182 57.892C133.05 58.048 132.87 58.126 132.642 58.126C132.426 58.126 132.246 58.084 132.102 58C131.97 57.916 131.826 57.772 131.67 57.568L124.29 47.812H124.704V57.226C124.704 57.514 124.632 57.736 124.488 57.892C124.344 58.048 124.134 58.126 123.858 58.126ZM139.287 58.162C138.579 58.162 137.985 58.03 137.505 57.766C137.037 57.502 136.683 57.112 136.443 56.596C136.215 56.068 136.101 55.408 136.101 54.616V50.008C136.101 49.696 136.179 49.468 136.335 49.324C136.491 49.168 136.713 49.09 137.001 49.09C137.289 49.09 137.511 49.168 137.667 49.324C137.835 49.468 137.919 49.696 137.919 50.008V54.634C137.919 55.342 138.063 55.864 138.351 56.2C138.639 56.536 139.095 56.704 139.719 56.704C140.403 56.704 140.955 56.476 141.375 56.02C141.807 55.552 142.023 54.94 142.023 54.184V50.008C142.023 49.696 142.101 49.468 142.257 49.324C142.413 49.168 142.641 49.09 142.941 49.09C143.229 49.09 143.451 49.168 143.607 49.324C143.763 49.468 143.841 49.696 143.841 50.008V57.208C143.841 57.82 143.547 58.126 142.959 58.126C142.683 58.126 142.467 58.048 142.311 57.892C142.155 57.724 142.077 57.496 142.077 57.208V55.678L142.311 56.074C142.071 56.746 141.687 57.262 141.159 57.622C140.631 57.982 140.007 58.162 139.287 58.162ZM140.691 47.938C140.595 48.082 140.475 48.166 140.331 48.19C140.199 48.214 140.067 48.19 139.935 48.118C139.803 48.046 139.707 47.944 139.647 47.812C139.599 47.68 139.611 47.536 139.683 47.38L141.141 44.554C141.237 44.362 141.357 44.236 141.501 44.176C141.657 44.116 141.813 44.11 141.969 44.158C142.137 44.194 142.275 44.266 142.383 44.374C142.503 44.482 142.575 44.62 142.599 44.788C142.623 44.944 142.581 45.1 142.473 45.256L140.691 47.938ZM147.339 58.126C147.051 58.126 146.829 58.048 146.673 57.892C146.517 57.724 146.439 57.496 146.439 57.208V50.008C146.439 49.708 146.517 49.48 146.673 49.324C146.829 49.168 147.045 49.09 147.321 49.09C147.609 49.09 147.825 49.168 147.969 49.324C148.125 49.48 148.203 49.708 148.203 50.008V51.484L148.005 51.088C148.245 50.452 148.617 49.954 149.121 49.594C149.625 49.234 150.231 49.054 150.939 49.054C151.671 49.054 152.265 49.228 152.721 49.576C153.177 49.924 153.489 50.458 153.657 51.178H153.405C153.633 50.518 154.023 50.002 154.575 49.63C155.127 49.246 155.769 49.054 156.501 49.054C157.173 49.054 157.725 49.186 158.157 49.45C158.589 49.702 158.913 50.092 159.129 50.62C159.345 51.136 159.453 51.79 159.453 52.582V57.208C159.453 57.496 159.369 57.724 159.201 57.892C159.045 58.048 158.823 58.126 158.535 58.126C158.247 58.126 158.025 58.048 157.869 57.892C157.713 57.724 157.635 57.496 157.635 57.208V52.672C157.635 51.928 157.503 51.382 157.239 51.034C156.987 50.686 156.567 50.512 155.979 50.512C155.319 50.512 154.797 50.74 154.413 51.196C154.029 51.652 153.837 52.282 153.837 53.086V57.208C153.837 57.496 153.759 57.724 153.603 57.892C153.447 58.048 153.225 58.126 152.937 58.126C152.649 58.126 152.421 58.048 152.253 57.892C152.097 57.724 152.019 57.496 152.019 57.208V52.672C152.019 51.928 151.893 51.382 151.641 51.034C151.389 50.686 150.969 50.512 150.381 50.512C149.721 50.512 149.199 50.74 148.815 51.196C148.443 51.652 148.257 52.282 148.257 53.086V57.208C148.257 57.82 147.951 58.126 147.339 58.126ZM166.117 58.162C165.157 58.162 164.329 57.982 163.633 57.622C162.949 57.25 162.415 56.728 162.031 56.056C161.659 55.372 161.473 54.562 161.473 53.626C161.473 52.714 161.659 51.916 162.031 51.232C162.403 50.548 162.913 50.014 163.561 49.63C164.209 49.246 164.947 49.054 165.775 49.054C166.387 49.054 166.933 49.156 167.413 49.36C167.893 49.552 168.301 49.84 168.637 50.224C168.985 50.596 169.243 51.052 169.411 51.592C169.591 52.132 169.681 52.738 169.681 53.41C169.681 53.614 169.621 53.77 169.501 53.878C169.381 53.974 169.201 54.022 168.961 54.022H162.913V52.906H168.457L168.151 53.158C168.151 52.558 168.061 52.048 167.881 51.628C167.713 51.208 167.455 50.89 167.107 50.674C166.771 50.446 166.351 50.332 165.847 50.332C165.283 50.332 164.803 50.464 164.407 50.728C164.023 50.992 163.729 51.358 163.525 51.826C163.321 52.294 163.219 52.84 163.219 53.464V53.572C163.219 54.628 163.465 55.426 163.957 55.966C164.461 56.494 165.187 56.758 166.135 56.758C166.495 56.758 166.873 56.71 167.269 56.614C167.677 56.518 168.061 56.356 168.421 56.128C168.625 56.008 168.805 55.954 168.961 55.966C169.129 55.978 169.261 56.032 169.357 56.128C169.465 56.224 169.531 56.344 169.555 56.488C169.579 56.632 169.555 56.782 169.483 56.938C169.411 57.082 169.285 57.214 169.105 57.334C168.697 57.61 168.223 57.82 167.683 57.964C167.143 58.096 166.621 58.162 166.117 58.162ZM172.581 58.126C172.281 58.126 172.053 58.048 171.897 57.892C171.741 57.724 171.663 57.496 171.663 57.208V50.008C171.663 49.708 171.741 49.48 171.897 49.324C172.053 49.168 172.269 49.09 172.545 49.09C172.833 49.09 173.049 49.168 173.193 49.324C173.349 49.48 173.427 49.708 173.427 50.008V51.322H173.247C173.439 50.602 173.793 50.056 174.309 49.684C174.825 49.312 175.485 49.096 176.289 49.036C176.505 49.024 176.673 49.078 176.793 49.198C176.925 49.318 176.997 49.504 177.009 49.756C177.033 50.008 176.979 50.212 176.847 50.368C176.715 50.512 176.511 50.596 176.235 50.62L175.893 50.656C175.113 50.728 174.519 50.974 174.111 51.394C173.703 51.814 173.499 52.39 173.499 53.122V57.208C173.499 57.496 173.421 57.724 173.265 57.892C173.121 58.048 172.893 58.126 172.581 58.126ZM182.071 58.162C181.183 58.162 180.415 57.976 179.767 57.604C179.131 57.232 178.633 56.704 178.273 56.02C177.913 55.336 177.733 54.532 177.733 53.608C177.733 52.9 177.835 52.27 178.039 51.718C178.243 51.166 178.531 50.692 178.903 50.296C179.287 49.888 179.743 49.582 180.271 49.378C180.811 49.162 181.411 49.054 182.071 49.054C182.947 49.054 183.703 49.24 184.339 49.612C184.987 49.984 185.491 50.512 185.851 51.196C186.211 51.868 186.391 52.672 186.391 53.608C186.391 54.304 186.289 54.934 186.085 55.498C185.881 56.062 185.587 56.542 185.203 56.938C184.831 57.334 184.375 57.64 183.835 57.856C183.307 58.06 182.719 58.162 182.071 58.162ZM182.071 56.758C182.563 56.758 182.995 56.638 183.367 56.398C183.739 56.158 184.027 55.804 184.231 55.336C184.447 54.868 184.555 54.292 184.555 53.608C184.555 52.576 184.327 51.796 183.871 51.268C183.415 50.74 182.815 50.476 182.071 50.476C181.567 50.476 181.129 50.596 180.757 50.836C180.385 51.064 180.091 51.412 179.875 51.88C179.671 52.348 179.569 52.924 179.569 53.608C179.569 54.628 179.797 55.408 180.253 55.948C180.709 56.488 181.315 56.758 182.071 56.758ZM196.526 58.162C195.758 58.162 195.08 57.982 194.492 57.622C193.916 57.25 193.466 56.722 193.142 56.038C192.818 55.342 192.656 54.532 192.656 53.608C192.656 52.66 192.818 51.85 193.142 51.178C193.466 50.506 193.916 49.984 194.492 49.612C195.08 49.24 195.758 49.054 196.526 49.054C197.294 49.054 197.954 49.246 198.506 49.63C199.07 50.002 199.448 50.506 199.64 51.142H199.442V46.102C199.442 45.802 199.52 45.574 199.676 45.418C199.832 45.262 200.054 45.184 200.342 45.184C200.63 45.184 200.852 45.262 201.008 45.418C201.176 45.574 201.26 45.802 201.26 46.102V57.208C201.26 57.496 201.182 57.724 201.026 57.892C200.87 58.048 200.648 58.126 200.36 58.126C200.072 58.126 199.85 58.048 199.694 57.892C199.538 57.724 199.46 57.496 199.46 57.208V55.624L199.658 56.02C199.466 56.668 199.088 57.19 198.524 57.586C197.972 57.97 197.306 58.162 196.526 58.162ZM196.994 56.758C197.486 56.758 197.918 56.638 198.29 56.398C198.662 56.158 198.95 55.804 199.154 55.336C199.37 54.868 199.478 54.292 199.478 53.608C199.478 52.576 199.25 51.796 198.794 51.268C198.338 50.74 197.738 50.476 196.994 50.476C196.49 50.476 196.052 50.596 195.68 50.836C195.308 51.064 195.014 51.412 194.798 51.88C194.594 52.348 194.492 52.924 194.492 53.608C194.492 54.628 194.72 55.408 195.176 55.948C195.632 56.488 196.238 56.758 196.994 56.758ZM207.935 58.162C206.975 58.162 206.147 57.982 205.451 57.622C204.767 57.25 204.233 56.728 203.849 56.056C203.477 55.372 203.291 54.562 203.291 53.626C203.291 52.714 203.477 51.916 203.849 51.232C204.221 50.548 204.731 50.014 205.379 49.63C206.027 49.246 206.765 49.054 207.593 49.054C208.205 49.054 208.751 49.156 209.231 49.36C209.711 49.552 210.119 49.84 210.455 50.224C210.803 50.596 211.061 51.052 211.229 51.592C211.409 52.132 211.499 52.738 211.499 53.41C211.499 53.614 211.439 53.77 211.319 53.878C211.199 53.974 211.019 54.022 210.779 54.022H204.731V52.906H210.275L209.969 53.158C209.969 52.558 209.879 52.048 209.699 51.628C209.531 51.208 209.273 50.89 208.925 50.674C208.589 50.446 208.169 50.332 207.665 50.332C207.101 50.332 206.621 50.464 206.225 50.728C205.841 50.992 205.547 51.358 205.343 51.826C205.139 52.294 205.037 52.84 205.037 53.464V53.572C205.037 54.628 205.283 55.426 205.775 55.966C206.279 56.494 207.005 56.758 207.953 56.758C208.313 56.758 208.691 56.71 209.087 56.614C209.495 56.518 209.879 56.356 210.239 56.128C210.443 56.008 210.623 55.954 210.779 55.966C210.947 55.978 211.079 56.032 211.175 56.128C211.283 56.224 211.349 56.344 211.373 56.488C211.397 56.632 211.373 56.782 211.301 56.938C211.229 57.082 211.103 57.214 210.923 57.334C210.515 57.61 210.041 57.82 209.501 57.964C208.961 58.096 208.439 58.162 207.935 58.162ZM221.971 58.162C221.251 58.162 220.645 58.036 220.153 57.784C219.661 57.532 219.295 57.16 219.055 56.668C218.815 56.176 218.695 55.576 218.695 54.868V50.62H217.615C217.375 50.62 217.189 50.56 217.057 50.44C216.925 50.308 216.859 50.134 216.859 49.918C216.859 49.69 216.925 49.516 217.057 49.396C217.189 49.276 217.375 49.216 217.615 49.216H218.695V47.362C218.695 47.062 218.773 46.834 218.929 46.678C219.097 46.522 219.325 46.444 219.613 46.444C219.901 46.444 220.123 46.522 220.279 46.678C220.435 46.834 220.513 47.062 220.513 47.362V49.216H222.619C222.859 49.216 223.045 49.276 223.177 49.396C223.309 49.516 223.375 49.69 223.375 49.918C223.375 50.134 223.309 50.308 223.177 50.44C223.045 50.56 222.859 50.62 222.619 50.62H220.513V54.724C220.513 55.36 220.645 55.84 220.909 56.164C221.185 56.488 221.629 56.65 222.241 56.65C222.457 56.65 222.643 56.632 222.799 56.596C222.967 56.548 223.105 56.518 223.213 56.506C223.345 56.506 223.453 56.554 223.537 56.65C223.621 56.734 223.663 56.902 223.663 57.154C223.663 57.334 223.627 57.502 223.555 57.658C223.495 57.814 223.381 57.916 223.213 57.964C223.069 58.012 222.871 58.054 222.619 58.09C222.379 58.138 222.163 58.162 221.971 58.162ZM228.836 58.162C227.876 58.162 227.048 57.982 226.352 57.622C225.668 57.25 225.134 56.728 224.75 56.056C224.378 55.372 224.192 54.562 224.192 53.626C224.192 52.714 224.378 51.916 224.75 51.232C225.122 50.548 225.632 50.014 226.28 49.63C226.928 49.246 227.666 49.054 228.494 49.054C229.106 49.054 229.652 49.156 230.132 49.36C230.612 49.552 231.02 49.84 231.356 50.224C231.704 50.596 231.962 51.052 232.13 51.592C232.31 52.132 232.4 52.738 232.4 53.41C232.4 53.614 232.34 53.77 232.22 53.878C232.1 53.974 231.92 54.022 231.68 54.022H225.632V52.906H231.176L230.87 53.158C230.87 52.558 230.78 52.048 230.6 51.628C230.432 51.208 230.174 50.89 229.826 50.674C229.49 50.446 229.07 50.332 228.566 50.332C228.002 50.332 227.522 50.464 227.126 50.728C226.742 50.992 226.448 51.358 226.244 51.826C226.04 52.294 225.938 52.84 225.938 53.464V53.572C225.938 54.628 226.184 55.426 226.676 55.966C227.18 56.494 227.906 56.758 228.854 56.758C229.214 56.758 229.592 56.71 229.988 56.614C230.396 56.518 230.78 56.356 231.14 56.128C231.344 56.008 231.524 55.954 231.68 55.966C231.848 55.978 231.98 56.032 232.076 56.128C232.184 56.224 232.25 56.344 232.274 56.488C232.298 56.632 232.274 56.782 232.202 56.938C232.13 57.082 232.004 57.214 231.824 57.334C231.416 57.61 230.942 57.82 230.402 57.964C229.862 58.096 229.34 58.162 228.836 58.162ZM237.208 58.162C236.272 58.162 235.564 57.892 235.084 57.352C234.616 56.8 234.382 56.008 234.382 54.976V46.102C234.382 45.802 234.46 45.574 234.616 45.418C234.772 45.262 234.994 45.184 235.282 45.184C235.57 45.184 235.792 45.262 235.948 45.418C236.116 45.574 236.2 45.802 236.2 46.102V54.868C236.2 55.468 236.32 55.918 236.56 56.218C236.812 56.506 237.172 56.65 237.64 56.65C237.748 56.65 237.844 56.65 237.928 56.65C238.012 56.638 238.096 56.626 238.18 56.614C238.324 56.602 238.426 56.644 238.486 56.74C238.546 56.824 238.576 57.004 238.576 57.28C238.576 57.532 238.522 57.73 238.414 57.874C238.306 58.006 238.132 58.09 237.892 58.126C237.784 58.138 237.67 58.144 237.55 58.144C237.43 58.156 237.316 58.162 237.208 58.162ZM243.918 58.162C242.958 58.162 242.13 57.982 241.434 57.622C240.75 57.25 240.216 56.728 239.832 56.056C239.46 55.372 239.274 54.562 239.274 53.626C239.274 52.714 239.46 51.916 239.832 51.232C240.204 50.548 240.714 50.014 241.362 49.63C242.01 49.246 242.748 49.054 243.576 49.054C244.188 49.054 244.734 49.156 245.214 49.36C245.694 49.552 246.102 49.84 246.438 50.224C246.786 50.596 247.044 51.052 247.212 51.592C247.392 52.132 247.482 52.738 247.482 53.41C247.482 53.614 247.422 53.77 247.302 53.878C247.182 53.974 247.002 54.022 246.762 54.022H240.714V52.906H246.258L245.952 53.158C245.952 52.558 245.862 52.048 245.682 51.628C245.514 51.208 245.256 50.89 244.908 50.674C244.572 50.446 244.152 50.332 243.648 50.332C243.084 50.332 242.604 50.464 242.208 50.728C241.824 50.992 241.53 51.358 241.326 51.826C241.122 52.294 241.02 52.84 241.02 53.464V53.572C241.02 54.628 241.266 55.426 241.758 55.966C242.262 56.494 242.988 56.758 243.936 56.758C244.296 56.758 244.674 56.71 245.07 56.614C245.478 56.518 245.862 56.356 246.222 56.128C246.426 56.008 246.606 55.954 246.762 55.966C246.93 55.978 247.062 56.032 247.158 56.128C247.266 56.224 247.332 56.344 247.356 56.488C247.38 56.632 247.356 56.782 247.284 56.938C247.212 57.082 247.086 57.214 246.906 57.334C246.498 57.61 246.024 57.82 245.484 57.964C244.944 58.096 244.422 58.162 243.918 58.162ZM244.296 47.956C244.2 48.1 244.08 48.184 243.936 48.208C243.804 48.232 243.672 48.208 243.54 48.136C243.408 48.064 243.312 47.962 243.252 47.83C243.204 47.698 243.216 47.554 243.288 47.398L244.746 44.572C244.842 44.38 244.962 44.254 245.106 44.194C245.262 44.134 245.418 44.128 245.574 44.176C245.742 44.212 245.88 44.284 245.988 44.392C246.108 44.5 246.18 44.638 246.204 44.806C246.228 44.962 246.186 45.118 246.078 45.274L244.296 47.956ZM250.886 58.126C250.598 58.126 250.37 58.048 250.202 57.892C250.046 57.724 249.968 57.496 249.968 57.208V50.62H248.96C248.732 50.62 248.552 50.56 248.42 50.44C248.288 50.308 248.222 50.134 248.222 49.918C248.222 49.69 248.288 49.516 248.42 49.396C248.552 49.276 248.732 49.216 248.96 49.216H250.49L249.968 49.702V49.054C249.968 47.866 250.262 46.972 250.85 46.372C251.438 45.76 252.296 45.4 253.424 45.292L253.982 45.256C254.186 45.232 254.348 45.262 254.468 45.346C254.588 45.43 254.666 45.538 254.702 45.67C254.738 45.802 254.738 45.94 254.702 46.084C254.678 46.216 254.618 46.336 254.522 46.444C254.426 46.552 254.306 46.612 254.162 46.624L253.82 46.642C253.112 46.702 252.596 46.906 252.272 47.254C251.948 47.59 251.786 48.106 251.786 48.802V49.504L251.534 49.216H253.532C253.784 49.216 253.97 49.276 254.09 49.396C254.222 49.516 254.288 49.69 254.288 49.918C254.288 50.134 254.222 50.308 254.09 50.44C253.97 50.56 253.784 50.62 253.532 50.62H251.786V57.208C251.786 57.82 251.486 58.126 250.886 58.126ZM259.256 58.162C258.368 58.162 257.6 57.976 256.952 57.604C256.316 57.232 255.818 56.704 255.458 56.02C255.098 55.336 254.918 54.532 254.918 53.608C254.918 52.9 255.02 52.27 255.224 51.718C255.428 51.166 255.716 50.692 256.088 50.296C256.472 49.888 256.928 49.582 257.456 49.378C257.996 49.162 258.596 49.054 259.256 49.054C260.132 49.054 260.888 49.24 261.524 49.612C262.172 49.984 262.676 50.512 263.036 51.196C263.396 51.868 263.576 52.672 263.576 53.608C263.576 54.304 263.474 54.934 263.27 55.498C263.066 56.062 262.772 56.542 262.388 56.938C262.016 57.334 261.56 57.64 261.02 57.856C260.492 58.06 259.904 58.162 259.256 58.162ZM259.256 56.758C259.748 56.758 260.18 56.638 260.552 56.398C260.924 56.158 261.212 55.804 261.416 55.336C261.632 54.868 261.74 54.292 261.74 53.608C261.74 52.576 261.512 51.796 261.056 51.268C260.6 50.74 260 50.476 259.256 50.476C258.752 50.476 258.314 50.596 257.942 50.836C257.57 51.064 257.276 51.412 257.06 51.88C256.856 52.348 256.754 52.924 256.754 53.608C256.754 54.628 256.982 55.408 257.438 55.948C257.894 56.488 258.5 56.758 259.256 56.758ZM266.518 58.126C266.23 58.126 266.008 58.048 265.852 57.892C265.696 57.724 265.618 57.496 265.618 57.208V50.008C265.618 49.708 265.696 49.48 265.852 49.324C266.008 49.168 266.224 49.09 266.5 49.09C266.788 49.09 267.004 49.168 267.148 49.324C267.304 49.48 267.382 49.708 267.382 50.008V51.412L267.184 51.088C267.448 50.416 267.862 49.912 268.426 49.576C268.99 49.228 269.638 49.054 270.37 49.054C271.066 49.054 271.642 49.186 272.098 49.45C272.566 49.702 272.914 50.092 273.142 50.62C273.37 51.136 273.484 51.79 273.484 52.582V57.208C273.484 57.496 273.406 57.724 273.25 57.892C273.094 58.048 272.872 58.126 272.584 58.126C272.284 58.126 272.056 58.048 271.9 57.892C271.744 57.724 271.666 57.496 271.666 57.208V52.69C271.666 51.934 271.516 51.382 271.216 51.034C270.928 50.686 270.472 50.512 269.848 50.512C269.116 50.512 268.528 50.74 268.084 51.196C267.652 51.652 267.436 52.264 267.436 53.032V57.208C267.436 57.82 267.13 58.126 266.518 58.126ZM279.805 58.162C278.917 58.162 278.149 57.976 277.501 57.604C276.865 57.232 276.367 56.704 276.007 56.02C275.647 55.336 275.467 54.532 275.467 53.608C275.467 52.9 275.569 52.27 275.773 51.718C275.977 51.166 276.265 50.692 276.637 50.296C277.021 49.888 277.477 49.582 278.005 49.378C278.545 49.162 279.145 49.054 279.805 49.054C280.681 49.054 281.437 49.24 282.073 49.612C282.721 49.984 283.225 50.512 283.585 51.196C283.945 51.868 284.125 52.672 284.125 53.608C284.125 54.304 284.023 54.934 283.819 55.498C283.615 56.062 283.321 56.542 282.937 56.938C282.565 57.334 282.109 57.64 281.569 57.856C281.041 58.06 280.453 58.162 279.805 58.162ZM279.805 56.758C280.297 56.758 280.729 56.638 281.101 56.398C281.473 56.158 281.761 55.804 281.965 55.336C282.181 54.868 282.289 54.292 282.289 53.608C282.289 52.576 282.061 51.796 281.605 51.268C281.149 50.74 280.549 50.476 279.805 50.476C279.301 50.476 278.863 50.596 278.491 50.836C278.119 51.064 277.825 51.412 277.609 51.88C277.405 52.348 277.303 52.924 277.303 53.608C277.303 54.628 277.531 55.408 277.987 55.948C278.443 56.488 279.049 56.758 279.805 56.758Z" fill="#101E37"/>
<rect x="122.5" y="73" width="198" height="46" rx="7" fill="white"/>
<rect x="122.5" y="73" width="198" height="46" rx="7" stroke="#101E37" stroke-width="2"/>
<path d="M145.836 96.2734C145.836 97.2005 145.766 98.0286 145.625 98.7578C145.484 99.487 145.263 100.104 144.961 100.609C144.659 101.115 144.268 101.5 143.789 101.766C143.31 102.026 142.734 102.156 142.062 102.156C141.214 102.156 140.51 101.924 139.953 101.461C139.401 100.997 138.987 100.328 138.711 99.4531C138.44 98.5729 138.305 97.513 138.305 96.2734C138.305 95.0547 138.427 94.0078 138.672 93.1328C138.922 92.2526 139.323 91.5781 139.875 91.1094C140.427 90.6354 141.156 90.3984 142.062 90.3984C142.922 90.3984 143.63 90.6328 144.188 91.1016C144.745 91.5651 145.159 92.237 145.43 93.1172C145.701 93.9922 145.836 95.0443 145.836 96.2734ZM139.609 96.2734C139.609 97.3359 139.69 98.2214 139.852 98.9297C140.013 99.638 140.273 100.169 140.633 100.523C140.997 100.872 141.474 101.047 142.062 101.047C142.651 101.047 143.125 100.872 143.484 100.523C143.849 100.174 144.112 99.6458 144.273 98.9375C144.44 98.2292 144.523 97.3411 144.523 96.2734C144.523 95.2266 144.443 94.3516 144.281 93.6484C144.12 92.9401 143.859 92.4089 143.5 92.0547C143.141 91.6953 142.661 91.5156 142.062 91.5156C141.464 91.5156 140.984 91.6953 140.625 92.0547C140.266 92.4089 140.005 92.9401 139.844 93.6484C139.688 94.3516 139.609 95.2266 139.609 96.2734ZM154.992 96.2734C154.992 97.2005 154.922 98.0286 154.781 98.7578C154.641 99.487 154.419 100.104 154.117 100.609C153.815 101.115 153.424 101.5 152.945 101.766C152.466 102.026 151.891 102.156 151.219 102.156C150.37 102.156 149.667 101.924 149.109 101.461C148.557 100.997 148.143 100.328 147.867 99.4531C147.596 98.5729 147.461 97.513 147.461 96.2734C147.461 95.0547 147.583 94.0078 147.828 93.1328C148.078 92.2526 148.479 91.5781 149.031 91.1094C149.583 90.6354 150.312 90.3984 151.219 90.3984C152.078 90.3984 152.786 90.6328 153.344 91.1016C153.901 91.5651 154.315 92.237 154.586 93.1172C154.857 93.9922 154.992 95.0443 154.992 96.2734ZM148.766 96.2734C148.766 97.3359 148.846 98.2214 149.008 98.9297C149.169 99.638 149.43 100.169 149.789 100.523C150.154 100.872 150.63 101.047 151.219 101.047C151.807 101.047 152.281 100.872 152.641 100.523C153.005 100.174 153.268 99.6458 153.43 98.9375C153.596 98.2292 153.68 97.3411 153.68 96.2734C153.68 95.2266 153.599 94.3516 153.438 93.6484C153.276 92.9401 153.016 92.4089 152.656 92.0547C152.297 91.6953 151.818 91.5156 151.219 91.5156C150.62 91.5156 150.141 91.6953 149.781 92.0547C149.422 92.4089 149.161 92.9401 149 93.6484C148.844 94.3516 148.766 95.2266 148.766 96.2734ZM156.453 98.2812V97.125H160.328V98.2812H156.453ZM169.305 96.2734C169.305 97.2005 169.234 98.0286 169.094 98.7578C168.953 99.487 168.732 100.104 168.43 100.609C168.128 101.115 167.737 101.5 167.258 101.766C166.779 102.026 166.203 102.156 165.531 102.156C164.682 102.156 163.979 101.924 163.422 101.461C162.87 100.997 162.456 100.328 162.18 99.4531C161.909 98.5729 161.773 97.513 161.773 96.2734C161.773 95.0547 161.896 94.0078 162.141 93.1328C162.391 92.2526 162.792 91.5781 163.344 91.1094C163.896 90.6354 164.625 90.3984 165.531 90.3984C166.391 90.3984 167.099 90.6328 167.656 91.1016C168.214 91.5651 168.628 92.237 168.898 93.1172C169.169 93.9922 169.305 95.0443 169.305 96.2734ZM163.078 96.2734C163.078 97.3359 163.159 98.2214 163.32 98.9297C163.482 99.638 163.742 100.169 164.102 100.523C164.466 100.872 164.943 101.047 165.531 101.047C166.12 101.047 166.594 100.872 166.953 100.523C167.318 100.174 167.581 99.6458 167.742 98.9375C167.909 98.2292 167.992 97.3411 167.992 96.2734C167.992 95.2266 167.911 94.3516 167.75 93.6484C167.589 92.9401 167.328 92.4089 166.969 92.0547C166.609 91.6953 166.13 91.5156 165.531 91.5156C164.932 91.5156 164.453 91.6953 164.094 92.0547C163.734 92.4089 163.474 92.9401 163.312 93.6484C163.156 94.3516 163.078 95.2266 163.078 96.2734ZM178.461 96.2734C178.461 97.2005 178.391 98.0286 178.25 98.7578C178.109 99.487 177.888 100.104 177.586 100.609C177.284 101.115 176.893 101.5 176.414 101.766C175.935 102.026 175.359 102.156 174.688 102.156C173.839 102.156 173.135 101.924 172.578 101.461C172.026 100.997 171.612 100.328 171.336 99.4531C171.065 98.5729 170.93 97.513 170.93 96.2734C170.93 95.0547 171.052 94.0078 171.297 93.1328C171.547 92.2526 171.948 91.5781 172.5 91.1094C173.052 90.6354 173.781 90.3984 174.688 90.3984C175.547 90.3984 176.255 90.6328 176.812 91.1016C177.37 91.5651 177.784 92.237 178.055 93.1172C178.326 93.9922 178.461 95.0443 178.461 96.2734ZM172.234 96.2734C172.234 97.3359 172.315 98.2214 172.477 98.9297C172.638 99.638 172.898 100.169 173.258 100.523C173.622 100.872 174.099 101.047 174.688 101.047C175.276 101.047 175.75 100.872 176.109 100.523C176.474 100.174 176.737 99.6458 176.898 98.9375C177.065 98.2292 177.148 97.3411 177.148 96.2734C177.148 95.2266 177.068 94.3516 176.906 93.6484C176.745 92.9401 176.484 92.4089 176.125 92.0547C175.766 91.6953 175.286 91.5156 174.688 91.5156C174.089 91.5156 173.609 91.6953 173.25 92.0547C172.891 92.4089 172.63 92.9401 172.469 93.6484C172.312 94.3516 172.234 95.2266 172.234 96.2734ZM187.617 96.2734C187.617 97.2005 187.547 98.0286 187.406 98.7578C187.266 99.487 187.044 100.104 186.742 100.609C186.44 101.115 186.049 101.5 185.57 101.766C185.091 102.026 184.516 102.156 183.844 102.156C182.995 102.156 182.292 101.924 181.734 101.461C181.182 100.997 180.768 100.328 180.492 99.4531C180.221 98.5729 180.086 97.513 180.086 96.2734C180.086 95.0547 180.208 94.0078 180.453 93.1328C180.703 92.2526 181.104 91.5781 181.656 91.1094C182.208 90.6354 182.938 90.3984 183.844 90.3984C184.703 90.3984 185.411 90.6328 185.969 91.1016C186.526 91.5651 186.94 92.237 187.211 93.1172C187.482 93.9922 187.617 95.0443 187.617 96.2734ZM181.391 96.2734C181.391 97.3359 181.471 98.2214 181.633 98.9297C181.794 99.638 182.055 100.169 182.414 100.523C182.779 100.872 183.255 101.047 183.844 101.047C184.432 101.047 184.906 100.872 185.266 100.523C185.63 100.174 185.893 99.6458 186.055 98.9375C186.221 98.2292 186.305 97.3411 186.305 96.2734C186.305 95.2266 186.224 94.3516 186.062 93.6484C185.901 92.9401 185.641 92.4089 185.281 92.0547C184.922 91.6953 184.443 91.5156 183.844 91.5156C183.245 91.5156 182.766 91.6953 182.406 92.0547C182.047 92.4089 181.786 92.9401 181.625 93.6484C181.469 94.3516 181.391 95.2266 181.391 96.2734ZM196.773 96.2734C196.773 97.2005 196.703 98.0286 196.562 98.7578C196.422 99.487 196.201 100.104 195.898 100.609C195.596 101.115 195.206 101.5 194.727 101.766C194.247 102.026 193.672 102.156 193 102.156C192.151 102.156 191.448 101.924 190.891 101.461C190.339 100.997 189.924 100.328 189.648 99.4531C189.378 98.5729 189.242 97.513 189.242 96.2734C189.242 95.0547 189.365 94.0078 189.609 93.1328C189.859 92.2526 190.26 91.5781 190.812 91.1094C191.365 90.6354 192.094 90.3984 193 90.3984C193.859 90.3984 194.568 90.6328 195.125 91.1016C195.682 91.5651 196.096 92.237 196.367 93.1172C196.638 93.9922 196.773 95.0443 196.773 96.2734ZM190.547 96.2734C190.547 97.3359 190.628 98.2214 190.789 98.9297C190.951 99.638 191.211 100.169 191.57 100.523C191.935 100.872 192.411 101.047 193 101.047C193.589 101.047 194.062 100.872 194.422 100.523C194.786 100.174 195.049 99.6458 195.211 98.9375C195.378 98.2292 195.461 97.3411 195.461 96.2734C195.461 95.2266 195.38 94.3516 195.219 93.6484C195.057 92.9401 194.797 92.4089 194.438 92.0547C194.078 91.6953 193.599 91.5156 193 91.5156C192.401 91.5156 191.922 91.6953 191.562 92.0547C191.203 92.4089 190.943 92.9401 190.781 93.6484C190.625 94.3516 190.547 95.2266 190.547 96.2734ZM198.234 98.2812V97.125H202.109V98.2812H198.234ZM211.086 96.2734C211.086 97.2005 211.016 98.0286 210.875 98.7578C210.734 99.487 210.513 100.104 210.211 100.609C209.909 101.115 209.518 101.5 209.039 101.766C208.56 102.026 207.984 102.156 207.312 102.156C206.464 102.156 205.76 101.924 205.203 101.461C204.651 100.997 204.237 100.328 203.961 99.4531C203.69 98.5729 203.555 97.513 203.555 96.2734C203.555 95.0547 203.677 94.0078 203.922 93.1328C204.172 92.2526 204.573 91.5781 205.125 91.1094C205.677 90.6354 206.406 90.3984 207.312 90.3984C208.172 90.3984 208.88 90.6328 209.438 91.1016C209.995 91.5651 210.409 92.237 210.68 93.1172C210.951 93.9922 211.086 95.0443 211.086 96.2734ZM204.859 96.2734C204.859 97.3359 204.94 98.2214 205.102 98.9297C205.263 99.638 205.523 100.169 205.883 100.523C206.247 100.872 206.724 101.047 207.312 101.047C207.901 101.047 208.375 100.872 208.734 100.523C209.099 100.174 209.362 99.6458 209.523 98.9375C209.69 98.2292 209.773 97.3411 209.773 96.2734C209.773 95.2266 209.693 94.3516 209.531 93.6484C209.37 92.9401 209.109 92.4089 208.75 92.0547C208.391 91.6953 207.911 91.5156 207.312 91.5156C206.714 91.5156 206.234 91.6953 205.875 92.0547C205.516 92.4089 205.255 92.9401 205.094 93.6484C204.938 94.3516 204.859 95.2266 204.859 96.2734ZM220.242 96.2734C220.242 97.2005 220.172 98.0286 220.031 98.7578C219.891 99.487 219.669 100.104 219.367 100.609C219.065 101.115 218.674 101.5 218.195 101.766C217.716 102.026 217.141 102.156 216.469 102.156C215.62 102.156 214.917 101.924 214.359 101.461C213.807 100.997 213.393 100.328 213.117 99.4531C212.846 98.5729 212.711 97.513 212.711 96.2734C212.711 95.0547 212.833 94.0078 213.078 93.1328C213.328 92.2526 213.729 91.5781 214.281 91.1094C214.833 90.6354 215.562 90.3984 216.469 90.3984C217.328 90.3984 218.036 90.6328 218.594 91.1016C219.151 91.5651 219.565 92.237 219.836 93.1172C220.107 93.9922 220.242 95.0443 220.242 96.2734ZM214.016 96.2734C214.016 97.3359 214.096 98.2214 214.258 98.9297C214.419 99.638 214.68 100.169 215.039 100.523C215.404 100.872 215.88 101.047 216.469 101.047C217.057 101.047 217.531 100.872 217.891 100.523C218.255 100.174 218.518 99.6458 218.68 98.9375C218.846 98.2292 218.93 97.3411 218.93 96.2734C218.93 95.2266 218.849 94.3516 218.688 93.6484C218.526 92.9401 218.266 92.4089 217.906 92.0547C217.547 91.6953 217.068 91.5156 216.469 91.5156C215.87 91.5156 215.391 91.6953 215.031 92.0547C214.672 92.4089 214.411 92.9401 214.25 93.6484C214.094 94.3516 214.016 95.2266 214.016 96.2734ZM229.398 96.2734C229.398 97.2005 229.328 98.0286 229.188 98.7578C229.047 99.487 228.826 100.104 228.523 100.609C228.221 101.115 227.831 101.5 227.352 101.766C226.872 102.026 226.297 102.156 225.625 102.156C224.776 102.156 224.073 101.924 223.516 101.461C222.964 100.997 222.549 100.328 222.273 99.4531C222.003 98.5729 221.867 97.513 221.867 96.2734C221.867 95.0547 221.99 94.0078 222.234 93.1328C222.484 92.2526 222.885 91.5781 223.438 91.1094C223.99 90.6354 224.719 90.3984 225.625 90.3984C226.484 90.3984 227.193 90.6328 227.75 91.1016C228.307 91.5651 228.721 92.237 228.992 93.1172C229.263 93.9922 229.398 95.0443 229.398 96.2734ZM223.172 96.2734C223.172 97.3359 223.253 98.2214 223.414 98.9297C223.576 99.638 223.836 100.169 224.195 100.523C224.56 100.872 225.036 101.047 225.625 101.047C226.214 101.047 226.688 100.872 227.047 100.523C227.411 100.174 227.674 99.6458 227.836 98.9375C228.003 98.2292 228.086 97.3411 228.086 96.2734C228.086 95.2266 228.005 94.3516 227.844 93.6484C227.682 92.9401 227.422 92.4089 227.062 92.0547C226.703 91.6953 226.224 91.5156 225.625 91.5156C225.026 91.5156 224.547 91.6953 224.188 92.0547C223.828 92.4089 223.568 92.9401 223.406 93.6484C223.25 94.3516 223.172 95.2266 223.172 96.2734ZM238.555 96.2734C238.555 97.2005 238.484 98.0286 238.344 98.7578C238.203 99.487 237.982 100.104 237.68 100.609C237.378 101.115 236.987 101.5 236.508 101.766C236.029 102.026 235.453 102.156 234.781 102.156C233.932 102.156 233.229 101.924 232.672 101.461C232.12 100.997 231.706 100.328 231.43 99.4531C231.159 98.5729 231.023 97.513 231.023 96.2734C231.023 95.0547 231.146 94.0078 231.391 93.1328C231.641 92.2526 232.042 91.5781 232.594 91.1094C233.146 90.6354 233.875 90.3984 234.781 90.3984C235.641 90.3984 236.349 90.6328 236.906 91.1016C237.464 91.5651 237.878 92.237 238.148 93.1172C238.419 93.9922 238.555 95.0443 238.555 96.2734ZM232.328 96.2734C232.328 97.3359 232.409 98.2214 232.57 98.9297C232.732 99.638 232.992 100.169 233.352 100.523C233.716 100.872 234.193 101.047 234.781 101.047C235.37 101.047 235.844 100.872 236.203 100.523C236.568 100.174 236.831 99.6458 236.992 98.9375C237.159 98.2292 237.242 97.3411 237.242 96.2734C237.242 95.2266 237.161 94.3516 237 93.6484C236.839 92.9401 236.578 92.4089 236.219 92.0547C235.859 91.6953 235.38 91.5156 234.781 91.5156C234.182 91.5156 233.703 91.6953 233.344 92.0547C232.984 92.4089 232.724 92.9401 232.562 93.6484C232.406 94.3516 232.328 95.2266 232.328 96.2734Z" fill="#5C6A7A"/>
</svg>
