<svg width="728" height="148" viewBox="0 0 728 148" fill="none" xmlns="http://www.w3.org/2000/svg">
<rect x="1" y="1" width="726" height="146" rx="7" fill="#F3F6F9"/>
<rect x="1" y="1" width="726" height="146" rx="7" stroke="#E6EBF0" stroke-width="2"/>
<path fill-rule="evenodd" clip-rule="evenodd" d="M233.5 84C237.918 84 241.5 80.4183 241.5 76C241.5 71.5817 237.918 68 233.5 68C229.082 68 225.5 71.5817 225.5 76C225.5 80.4183 229.082 84 233.5 84ZM233.5 82C236.814 82 239.5 79.3137 239.5 76C239.5 72.6863 236.814 70 233.5 70C230.186 70 227.5 72.6863 227.5 76C227.5 79.3137 230.186 82 233.5 82Z" fill="#D1D8E0"/>
<path fill-rule="evenodd" clip-rule="evenodd" d="M240.152 71.5554C241.031 72.871 241.5 74.4178 241.5 76C241.5 76.5523 241.052 77 240.5 77C239.948 77 239.5 76.5523 239.5 76C239.5 75.9996 239.5 75.9991 239.5 75.9987C239.499 72.6856 236.813 70 233.5 70C230.186 70 227.5 72.6863 227.5 76C227.5 79.3137 230.186 82 233.5 82C234.052 82 234.5 82.4477 234.5 83C234.5 83.5523 234.052 84 233.5 84C231.918 84 230.371 83.5308 229.055 82.6518C227.74 81.7727 226.714 80.5233 226.109 79.0615C225.503 77.5997 225.345 75.9911 225.654 74.4393C225.962 72.8874 226.724 71.462 227.843 70.3431C228.962 69.2243 230.387 68.4624 231.939 68.1537C233.491 67.845 235.1 68.0035 236.561 68.609C238.023 69.2145 239.273 70.2398 240.152 71.5554Z" fill="#101E37"/>
<path d="M221.717 105.822C221.369 105.822 221.061 105.891 220.791 106.027C220.525 106.16 220.301 106.354 220.117 106.607C219.938 106.861 219.801 107.168 219.707 107.527C219.613 107.887 219.566 108.291 219.566 108.74C219.566 109.346 219.641 109.863 219.789 110.293C219.941 110.719 220.176 111.045 220.492 111.271C220.809 111.494 221.217 111.605 221.717 111.605C222.064 111.605 222.412 111.566 222.76 111.488C223.111 111.41 223.492 111.299 223.902 111.154V112.678C223.523 112.834 223.15 112.945 222.783 113.012C222.416 113.082 222.004 113.117 221.547 113.117C220.664 113.117 219.938 112.936 219.367 112.572C218.801 112.205 218.381 111.693 218.107 111.037C217.834 110.377 217.697 109.607 217.697 108.729C217.697 108.08 217.785 107.486 217.961 106.947C218.137 106.408 218.395 105.941 218.734 105.547C219.074 105.152 219.494 104.848 219.994 104.633C220.494 104.418 221.068 104.311 221.717 104.311C222.143 104.311 222.568 104.365 222.994 104.475C223.424 104.58 223.834 104.727 224.225 104.914L223.639 106.391C223.318 106.238 222.996 106.105 222.672 105.992C222.348 105.879 222.029 105.822 221.717 105.822ZM227.377 103.883V105.74C227.377 106.064 227.365 106.373 227.342 106.666C227.322 106.959 227.307 107.166 227.295 107.287H227.389C227.529 107.061 227.695 106.877 227.887 106.736C228.082 106.596 228.297 106.492 228.531 106.426C228.766 106.359 229.018 106.326 229.287 106.326C229.76 106.326 230.172 106.41 230.523 106.578C230.875 106.742 231.148 107.002 231.344 107.357C231.539 107.709 231.637 108.166 231.637 108.729V113H229.85V109.174C229.85 108.705 229.764 108.352 229.592 108.113C229.42 107.875 229.154 107.756 228.795 107.756C228.436 107.756 228.152 107.84 227.945 108.008C227.738 108.172 227.592 108.416 227.506 108.74C227.42 109.061 227.377 109.453 227.377 109.918V113H225.59V103.883H227.377ZM235.264 106.449V113H233.477V106.449H235.264ZM234.373 103.883C234.639 103.883 234.867 103.945 235.059 104.07C235.25 104.191 235.346 104.42 235.346 104.756C235.346 105.088 235.25 105.318 235.059 105.447C234.867 105.572 234.639 105.635 234.373 105.635C234.104 105.635 233.873 105.572 233.682 105.447C233.494 105.318 233.4 105.088 233.4 104.756C233.4 104.42 233.494 104.191 233.682 104.07C233.873 103.945 234.104 103.883 234.373 103.883ZM239.805 113.117C239.156 113.117 238.604 113 238.146 112.766C237.689 112.527 237.342 112.16 237.104 111.664C236.865 111.168 236.746 110.533 236.746 109.76C236.746 108.959 236.881 108.307 237.15 107.803C237.424 107.295 237.801 106.922 238.281 106.684C238.766 106.445 239.326 106.326 239.963 106.326C240.416 106.326 240.807 106.371 241.135 106.461C241.467 106.547 241.756 106.65 242.002 106.771L241.475 108.154C241.193 108.041 240.932 107.949 240.689 107.879C240.447 107.805 240.205 107.768 239.963 107.768C239.65 107.768 239.391 107.842 239.184 107.99C238.977 108.135 238.822 108.354 238.721 108.646C238.619 108.939 238.568 109.307 238.568 109.748C238.568 110.182 238.623 110.541 238.732 110.826C238.842 111.111 239 111.324 239.207 111.465C239.414 111.602 239.666 111.67 239.963 111.67C240.334 111.67 240.664 111.621 240.953 111.523C241.242 111.422 241.523 111.281 241.797 111.102V112.631C241.523 112.803 241.236 112.926 240.936 113C240.639 113.078 240.262 113.117 239.805 113.117ZM249.273 109.713C249.273 110.26 249.199 110.744 249.051 111.166C248.906 111.588 248.693 111.945 248.412 112.238C248.135 112.527 247.799 112.746 247.404 112.895C247.014 113.043 246.572 113.117 246.08 113.117C245.619 113.117 245.195 113.043 244.809 112.895C244.426 112.746 244.092 112.527 243.807 112.238C243.525 111.945 243.307 111.588 243.15 111.166C242.998 110.744 242.922 110.26 242.922 109.713C242.922 108.986 243.051 108.371 243.309 107.867C243.566 107.363 243.934 106.98 244.41 106.719C244.887 106.457 245.455 106.326 246.115 106.326C246.729 106.326 247.271 106.457 247.744 106.719C248.221 106.98 248.594 107.363 248.863 107.867C249.137 108.371 249.273 108.986 249.273 109.713ZM244.744 109.713C244.744 110.143 244.791 110.504 244.885 110.797C244.979 111.09 245.125 111.311 245.324 111.459C245.523 111.607 245.783 111.682 246.104 111.682C246.42 111.682 246.676 111.607 246.871 111.459C247.07 111.311 247.215 111.09 247.305 110.797C247.398 110.504 247.445 110.143 247.445 109.713C247.445 109.279 247.398 108.92 247.305 108.635C247.215 108.346 247.07 108.129 246.871 107.984C246.672 107.84 246.412 107.768 246.092 107.768C245.619 107.768 245.275 107.93 245.061 108.254C244.85 108.578 244.744 109.064 244.744 109.713Z" fill="#101E37"/>
<path fill-rule="evenodd" clip-rule="evenodd" d="M356.5 84C365.337 84 372.5 76.8365 372.5 68C372.5 59.1634 365.337 52 356.5 52C347.663 52 340.5 59.1634 340.5 68C340.5 76.8365 347.663 84 356.5 84ZM356.5 80C363.127 80 368.5 74.6274 368.5 68C368.5 61.3726 363.127 56 356.5 56C349.873 56 344.5 61.3726 344.5 68C344.5 74.6274 349.873 80 356.5 80Z" fill="#D1D8E0"/>
<path fill-rule="evenodd" clip-rule="evenodd" d="M369.804 59.1109C371.562 61.7421 372.5 64.8355 372.5 68C372.5 69.1046 371.605 70 370.5 70C369.395 70 368.5 69.1046 368.5 68C368.5 61.3726 363.127 56 356.5 56C349.873 56 344.5 61.3726 344.5 68C344.5 74.6274 349.873 80 356.5 80C357.605 80 358.5 80.8954 358.5 82C358.5 83.1046 357.605 84 356.5 84C353.336 84 350.242 83.0616 347.611 81.3035C344.98 79.5454 342.929 77.0466 341.718 74.1229C340.507 71.1993 340.19 67.9823 340.807 64.8786C341.425 61.7749 342.949 58.9239 345.186 56.6863C347.424 54.4487 350.275 52.9248 353.379 52.3074C356.482 51.6901 359.699 52.0069 362.623 53.2179C365.547 54.4289 368.045 56.4797 369.804 59.1109Z" fill="#101E37"/>
<path d="M334.705 113L332.643 106.279H332.59C332.598 106.439 332.609 106.682 332.625 107.006C332.645 107.326 332.662 107.668 332.678 108.031C332.693 108.395 332.701 108.723 332.701 109.016V113H331.078V104.434H333.551L335.578 110.984H335.613L337.764 104.434H340.236V113H338.543V108.945C338.543 108.676 338.547 108.365 338.555 108.014C338.566 107.662 338.58 107.328 338.596 107.012C338.611 106.691 338.623 106.451 338.631 106.291H338.578L336.369 113H334.705ZM344.959 106.326C345.564 106.326 346.086 106.443 346.523 106.678C346.961 106.908 347.299 107.244 347.537 107.686C347.775 108.127 347.895 108.666 347.895 109.303V110.17H343.67C343.689 110.674 343.84 111.07 344.121 111.359C344.406 111.645 344.801 111.787 345.305 111.787C345.723 111.787 346.105 111.744 346.453 111.658C346.801 111.572 347.158 111.443 347.525 111.271V112.654C347.201 112.814 346.861 112.932 346.506 113.006C346.154 113.08 345.727 113.117 345.223 113.117C344.566 113.117 343.984 112.996 343.477 112.754C342.973 112.512 342.576 112.143 342.287 111.646C342.002 111.15 341.859 110.525 341.859 109.771C341.859 109.006 341.988 108.369 342.246 107.861C342.508 107.35 342.871 106.967 343.336 106.713C343.801 106.455 344.342 106.326 344.959 106.326ZM344.971 107.598C344.623 107.598 344.334 107.709 344.104 107.932C343.877 108.154 343.746 108.504 343.711 108.98H346.219C346.215 108.715 346.166 108.479 346.072 108.271C345.982 108.064 345.846 107.9 345.662 107.779C345.482 107.658 345.252 107.598 344.971 107.598ZM351.422 113.117C350.691 113.117 350.096 112.832 349.635 112.262C349.178 111.688 348.949 110.846 348.949 109.736C348.949 108.615 349.182 107.768 349.646 107.193C350.111 106.615 350.719 106.326 351.469 106.326C351.781 106.326 352.057 106.369 352.295 106.455C352.533 106.541 352.738 106.656 352.91 106.801C353.086 106.945 353.234 107.107 353.355 107.287H353.414C353.391 107.162 353.361 106.979 353.326 106.736C353.295 106.49 353.279 106.238 353.279 105.98V103.883H355.072V113H353.701L353.355 112.15H353.279C353.166 112.33 353.023 112.494 352.852 112.643C352.684 112.787 352.482 112.902 352.248 112.988C352.014 113.074 351.738 113.117 351.422 113.117ZM352.049 111.693C352.537 111.693 352.881 111.549 353.08 111.26C353.283 110.967 353.391 110.527 353.402 109.941V109.748C353.402 109.111 353.305 108.625 353.109 108.289C352.914 107.949 352.551 107.779 352.02 107.779C351.625 107.779 351.316 107.949 351.094 108.289C350.871 108.629 350.76 109.119 350.76 109.76C350.76 110.4 350.871 110.883 351.094 111.207C351.32 111.531 351.639 111.693 352.049 111.693ZM358.729 106.449V113H356.941V106.449H358.729ZM357.838 103.883C358.104 103.883 358.332 103.945 358.523 104.07C358.715 104.191 358.811 104.42 358.811 104.756C358.811 105.088 358.715 105.318 358.523 105.447C358.332 105.572 358.104 105.635 357.838 105.635C357.568 105.635 357.338 105.572 357.146 105.447C356.959 105.318 356.865 105.088 356.865 104.756C356.865 104.42 356.959 104.191 357.146 104.07C357.338 103.945 357.568 103.883 357.838 103.883ZM363.293 106.314C364.172 106.314 364.846 106.506 365.314 106.889C365.783 107.271 366.018 107.854 366.018 108.635V113H364.77L364.424 112.109H364.377C364.189 112.344 363.998 112.535 363.803 112.684C363.607 112.832 363.383 112.941 363.129 113.012C362.875 113.082 362.566 113.117 362.203 113.117C361.816 113.117 361.469 113.043 361.16 112.895C360.855 112.746 360.615 112.52 360.439 112.215C360.264 111.906 360.176 111.516 360.176 111.043C360.176 110.348 360.42 109.836 360.908 109.508C361.396 109.176 362.129 108.992 363.105 108.957L364.242 108.922V108.635C364.242 108.291 364.152 108.039 363.973 107.879C363.793 107.719 363.543 107.639 363.223 107.639C362.906 107.639 362.596 107.684 362.291 107.773C361.986 107.863 361.682 107.977 361.377 108.113L360.785 106.906C361.133 106.723 361.521 106.578 361.951 106.473C362.385 106.367 362.832 106.314 363.293 106.314ZM364.242 109.965L363.551 109.988C362.973 110.004 362.57 110.107 362.344 110.299C362.121 110.49 362.01 110.742 362.01 111.055C362.01 111.328 362.09 111.523 362.25 111.641C362.41 111.754 362.619 111.811 362.877 111.811C363.26 111.811 363.582 111.697 363.844 111.471C364.109 111.244 364.242 110.922 364.242 110.504V109.965ZM371.584 106.326C372.283 106.326 372.846 106.518 373.271 106.9C373.697 107.279 373.91 107.889 373.91 108.729V113H372.123V109.174C372.123 108.705 372.037 108.352 371.865 108.113C371.697 107.875 371.432 107.756 371.068 107.756C370.521 107.756 370.148 107.941 369.949 108.312C369.75 108.684 369.65 109.219 369.65 109.918V113H367.863V106.449H369.229L369.469 107.287H369.568C369.709 107.061 369.883 106.877 370.09 106.736C370.301 106.596 370.533 106.492 370.787 106.426C371.045 106.359 371.311 106.326 371.584 106.326ZM381.703 109.713C381.703 110.26 381.629 110.744 381.48 111.166C381.336 111.588 381.123 111.945 380.842 112.238C380.564 112.527 380.229 112.746 379.834 112.895C379.443 113.043 379.002 113.117 378.51 113.117C378.049 113.117 377.625 113.043 377.238 112.895C376.855 112.746 376.521 112.527 376.236 112.238C375.955 111.945 375.736 111.588 375.58 111.166C375.428 110.744 375.352 110.26 375.352 109.713C375.352 108.986 375.48 108.371 375.738 107.867C375.996 107.363 376.363 106.98 376.84 106.719C377.316 106.457 377.885 106.326 378.545 106.326C379.158 106.326 379.701 106.457 380.174 106.719C380.65 106.98 381.023 107.363 381.293 107.867C381.566 108.371 381.703 108.986 381.703 109.713ZM377.174 109.713C377.174 110.143 377.221 110.504 377.314 110.797C377.408 111.09 377.555 111.311 377.754 111.459C377.953 111.607 378.213 111.682 378.533 111.682C378.85 111.682 379.105 111.607 379.301 111.459C379.5 111.311 379.645 111.09 379.734 110.797C379.828 110.504 379.875 110.143 379.875 109.713C379.875 109.279 379.828 108.92 379.734 108.635C379.645 108.346 379.5 108.129 379.301 107.984C379.102 107.84 378.842 107.768 378.521 107.768C378.049 107.768 377.705 107.93 377.49 108.254C377.279 108.578 377.174 109.064 377.174 109.713Z" fill="#101E37"/>
<path fill-rule="evenodd" clip-rule="evenodd" d="M487 84C500.255 84 511 73.2548 511 60C511 46.7452 500.255 36 487 36C473.745 36 463 46.7452 463 60C463 73.2548 473.745 84 487 84ZM487 78C496.941 78 505 69.9411 505 60C505 50.0589 496.941 42 487 42C477.059 42 469 50.0589 469 60C469 69.9411 477.059 78 487 78Z" fill="#D1D8E0"/>
<path fill-rule="evenodd" clip-rule="evenodd" d="M487 84C500.255 84 511 73.2548 511 60C511 46.7452 500.255 36 487 36C473.745 36 463 46.7452 463 60C463 73.2548 473.745 84 487 84ZM487 78C496.941 78 505 69.9411 505 60C505 50.0589 496.941 42 487 42C477.059 42 469 50.0589 469 60C469 69.9411 477.059 78 487 78Z" fill="#D1D8E0"/>
<path fill-rule="evenodd" clip-rule="evenodd" d="M506.955 46.6663C509.592 50.6131 511 55.2533 511 60C511 61.6569 509.657 63 508 63C506.343 63 505 61.6569 505 60C505 59.9985 505 59.997 505 59.9955C504.998 50.0565 496.94 42 487 42C477.059 42 469 50.0589 469 60C469 69.9378 477.053 77.9946 486.99 78L487 78C488.657 78 490 79.3431 490 81C490 82.6568 488.657 84 487 84C482.253 84 477.613 82.5924 473.666 79.9553C469.72 77.3181 466.643 73.5698 464.827 69.1844C463.01 64.799 462.535 59.9734 463.461 55.3178C464.387 50.6623 466.673 46.3859 470.029 43.0294C473.386 39.673 477.662 37.3872 482.318 36.4612C486.973 35.5351 491.799 36.0104 496.184 37.8269C500.57 39.6434 504.318 42.7195 506.955 46.6663Z" fill="#101E37"/>
<path fill-rule="evenodd" clip-rule="evenodd" d="M506.955 46.6663C509.592 50.6131 511 55.2533 511 60C511 61.6569 509.657 63 508 63C506.343 63 505 61.6569 505 60C505 59.9985 505 59.997 505 59.9955C504.998 50.0565 496.94 42 487 42C477.059 42 469 50.0589 469 60C469 69.9378 477.053 77.9946 486.99 78L487 78C488.657 78 490 79.3431 490 81C490 82.6568 488.657 84 487 84C482.253 84 477.613 82.5924 473.666 79.9553C469.72 77.3181 466.643 73.5698 464.827 69.1844C463.01 64.799 462.535 59.9734 463.461 55.3178C464.387 50.6623 466.673 46.3859 470.029 43.0294C473.386 39.673 477.662 37.3872 482.318 36.4612C486.973 35.5351 491.799 36.0104 496.184 37.8269C500.57 39.6434 504.318 42.7195 506.955 46.6663Z" fill="#101E37"/>
<path d="M469.33 108.189H472.729V112.631C472.279 112.779 471.812 112.898 471.328 112.988C470.844 113.074 470.295 113.117 469.682 113.117C468.83 113.117 468.107 112.949 467.514 112.613C466.92 112.277 466.469 111.781 466.16 111.125C465.852 110.469 465.697 109.662 465.697 108.705C465.697 107.807 465.869 107.029 466.213 106.373C466.561 105.717 467.066 105.209 467.73 104.85C468.398 104.49 469.213 104.311 470.174 104.311C470.627 104.311 471.074 104.359 471.516 104.457C471.957 104.555 472.357 104.682 472.717 104.838L472.113 106.291C471.852 106.158 471.553 106.047 471.217 105.957C470.881 105.867 470.529 105.822 470.162 105.822C469.635 105.822 469.176 105.943 468.785 106.186C468.398 106.428 468.098 106.768 467.883 107.205C467.672 107.639 467.566 108.15 467.566 108.74C467.566 109.299 467.643 109.795 467.795 110.229C467.947 110.658 468.188 110.996 468.516 111.242C468.844 111.484 469.271 111.605 469.799 111.605C470.057 111.605 470.273 111.594 470.449 111.57C470.629 111.543 470.797 111.516 470.953 111.488V109.701H469.33V108.189ZM478.289 106.326C478.379 106.326 478.482 106.332 478.6 106.344C478.721 106.352 478.818 106.363 478.893 106.379L478.758 108.055C478.699 108.035 478.615 108.021 478.506 108.014C478.4 108.002 478.309 107.996 478.23 107.996C478 107.996 477.775 108.025 477.557 108.084C477.342 108.143 477.148 108.238 476.977 108.371C476.805 108.5 476.668 108.672 476.566 108.887C476.469 109.098 476.42 109.357 476.42 109.666V113H474.633V106.449H475.986L476.25 107.551H476.338C476.467 107.328 476.627 107.125 476.818 106.941C477.014 106.754 477.234 106.605 477.48 106.496C477.73 106.383 478 106.326 478.289 106.326ZM482.766 106.314C483.645 106.314 484.318 106.506 484.787 106.889C485.256 107.271 485.49 107.854 485.49 108.635V113H484.242L483.896 112.109H483.85C483.662 112.344 483.471 112.535 483.275 112.684C483.08 112.832 482.855 112.941 482.602 113.012C482.348 113.082 482.039 113.117 481.676 113.117C481.289 113.117 480.941 113.043 480.633 112.895C480.328 112.746 480.088 112.52 479.912 112.215C479.736 111.906 479.648 111.516 479.648 111.043C479.648 110.348 479.893 109.836 480.381 109.508C480.869 109.176 481.602 108.992 482.578 108.957L483.715 108.922V108.635C483.715 108.291 483.625 108.039 483.445 107.879C483.266 107.719 483.016 107.639 482.695 107.639C482.379 107.639 482.068 107.684 481.764 107.773C481.459 107.863 481.154 107.977 480.85 108.113L480.258 106.906C480.605 106.723 480.994 106.578 481.424 106.473C481.857 106.367 482.305 106.314 482.766 106.314ZM483.715 109.965L483.023 109.988C482.445 110.004 482.043 110.107 481.816 110.299C481.594 110.49 481.482 110.742 481.482 111.055C481.482 111.328 481.562 111.523 481.723 111.641C481.883 111.754 482.092 111.811 482.35 111.811C482.732 111.811 483.055 111.697 483.316 111.471C483.582 111.244 483.715 110.922 483.715 110.504V109.965ZM491.057 106.326C491.756 106.326 492.318 106.518 492.744 106.9C493.17 107.279 493.383 107.889 493.383 108.729V113H491.596V109.174C491.596 108.705 491.51 108.352 491.338 108.113C491.17 107.875 490.904 107.756 490.541 107.756C489.994 107.756 489.621 107.941 489.422 108.312C489.223 108.684 489.123 109.219 489.123 109.918V113H487.336V106.449H488.701L488.941 107.287H489.041C489.182 107.061 489.355 106.877 489.562 106.736C489.773 106.596 490.006 106.492 490.26 106.426C490.518 106.359 490.783 106.326 491.057 106.326ZM497.297 113.117C496.566 113.117 495.971 112.832 495.51 112.262C495.053 111.688 494.824 110.846 494.824 109.736C494.824 108.615 495.057 107.768 495.521 107.193C495.986 106.615 496.594 106.326 497.344 106.326C497.656 106.326 497.932 106.369 498.17 106.455C498.408 106.541 498.613 106.656 498.785 106.801C498.961 106.945 499.109 107.107 499.23 107.287H499.289C499.266 107.162 499.236 106.979 499.201 106.736C499.17 106.49 499.154 106.238 499.154 105.98V103.883H500.947V113H499.576L499.23 112.15H499.154C499.041 112.33 498.898 112.494 498.727 112.643C498.559 112.787 498.357 112.902 498.123 112.988C497.889 113.074 497.613 113.117 497.297 113.117ZM497.924 111.693C498.412 111.693 498.756 111.549 498.955 111.26C499.158 110.967 499.266 110.527 499.277 109.941V109.748C499.277 109.111 499.18 108.625 498.984 108.289C498.789 107.949 498.426 107.779 497.895 107.779C497.5 107.779 497.191 107.949 496.969 108.289C496.746 108.629 496.635 109.119 496.635 109.76C496.635 110.4 496.746 110.883 496.969 111.207C497.195 111.531 497.514 111.693 497.924 111.693ZM505.518 106.326C506.123 106.326 506.645 106.443 507.082 106.678C507.52 106.908 507.857 107.244 508.096 107.686C508.334 108.127 508.453 108.666 508.453 109.303V110.17H504.229C504.248 110.674 504.398 111.07 504.68 111.359C504.965 111.645 505.359 111.787 505.863 111.787C506.281 111.787 506.664 111.744 507.012 111.658C507.359 111.572 507.717 111.443 508.084 111.271V112.654C507.76 112.814 507.42 112.932 507.064 113.006C506.713 113.08 506.285 113.117 505.781 113.117C505.125 113.117 504.543 112.996 504.035 112.754C503.531 112.512 503.135 112.143 502.846 111.646C502.561 111.15 502.418 110.525 502.418 109.771C502.418 109.006 502.547 108.369 502.805 107.861C503.066 107.35 503.43 106.967 503.895 106.713C504.359 106.455 504.9 106.326 505.518 106.326ZM505.529 107.598C505.182 107.598 504.893 107.709 504.662 107.932C504.436 108.154 504.305 108.504 504.27 108.98H506.777C506.773 108.715 506.725 108.479 506.631 108.271C506.541 108.064 506.404 107.9 506.221 107.779C506.041 107.658 505.811 107.598 505.529 107.598Z" fill="#101E37"/>
<path d="M519 60L527 60" stroke="#C433FF" stroke-width="0.881406" stroke-linecap="round"/>
<path d="M511 84L518.119 84C518.605 84 519 83.6054 519 83.1186L519 36.8814C519 36.3946 518.605 36 518.119 36L511 36" stroke="#C433FF" stroke-width="0.881406" stroke-linecap="round"/>
<path d="M537.893 63.0137H536.609V65H535.66V63.0137H531.518V62.1934L535.596 56.3867H536.609V62.1348H537.893V63.0137ZM535.66 62.1348V59.334C535.66 59.1191 535.662 58.9258 535.666 58.7539C535.67 58.5781 535.676 58.416 535.684 58.2676C535.691 58.1152 535.697 57.9707 535.701 57.834C535.709 57.6973 535.715 57.5625 535.719 57.4297H535.672C535.598 57.5859 535.512 57.752 535.414 57.9277C535.32 58.0996 535.225 58.2539 535.127 58.3906L532.484 62.1348H535.66ZM541.549 56.3105C542.045 56.3105 542.484 56.3887 542.867 56.5449C543.25 56.7012 543.549 56.9316 543.764 57.2363C543.982 57.5371 544.092 57.9082 544.092 58.3496C544.092 58.6973 544.016 59.002 543.863 59.2637C543.715 59.5215 543.514 59.748 543.26 59.9434C543.006 60.1348 542.725 60.3066 542.416 60.459C542.783 60.627 543.113 60.8164 543.406 61.0273C543.703 61.2383 543.938 61.4863 544.109 61.7715C544.281 62.0566 544.367 62.3945 544.367 62.7852C544.367 63.2656 544.25 63.6816 544.016 64.0332C543.785 64.3809 543.461 64.6484 543.043 64.8359C542.625 65.0234 542.135 65.1172 541.572 65.1172C540.967 65.1172 540.451 65.0273 540.025 64.8477C539.604 64.6641 539.281 64.4023 539.059 64.0625C538.84 63.7188 538.73 63.3066 538.73 62.8262C538.73 62.4316 538.814 62.0898 538.982 61.8008C539.15 61.5078 539.373 61.2559 539.65 61.0449C539.928 60.834 540.23 60.6562 540.559 60.5117C540.273 60.3555 540.012 60.1777 539.773 59.9785C539.539 59.7793 539.352 59.5469 539.211 59.2812C539.074 59.0117 539.006 58.6992 539.006 58.3438C539.006 57.9102 539.115 57.543 539.334 57.2422C539.557 56.9375 539.859 56.707 540.242 56.5508C540.629 56.3906 541.064 56.3105 541.549 56.3105ZM539.686 62.832C539.686 63.2695 539.84 63.6309 540.148 63.916C540.457 64.1973 540.924 64.3379 541.549 64.3379C542.143 64.3379 542.602 64.1973 542.926 63.916C543.25 63.6309 543.412 63.2578 543.412 62.7969C543.412 62.5117 543.338 62.2617 543.189 62.0469C543.041 61.8281 542.83 61.6328 542.557 61.4609C542.283 61.2891 541.961 61.1328 541.59 60.9922L541.379 60.916C541.02 61.0645 540.713 61.2305 540.459 61.4141C540.209 61.5938 540.018 61.7988 539.885 62.0293C539.752 62.2598 539.686 62.5273 539.686 62.832ZM541.537 57.1074C541.076 57.1074 540.699 57.2188 540.406 57.4414C540.113 57.6602 539.967 57.9766 539.967 58.3906C539.967 58.6875 540.037 58.9395 540.178 59.1465C540.322 59.3496 540.518 59.5254 540.764 59.6738C541.01 59.8184 541.285 59.9531 541.59 60.0781C541.887 59.9531 542.15 59.8164 542.381 59.668C542.611 59.5156 542.793 59.3359 542.926 59.1289C543.059 58.9219 543.125 58.6738 543.125 58.3848C543.125 57.9707 542.979 57.6543 542.686 57.4355C542.396 57.2168 542.014 57.1074 541.537 57.1074ZM552.154 58.4609C552.955 58.4609 553.594 58.7363 554.07 59.2871C554.547 59.8379 554.785 60.666 554.785 61.7715C554.785 62.502 554.676 63.1152 554.457 63.6113C554.238 64.1074 553.93 64.4824 553.531 64.7363C553.137 64.9902 552.67 65.1172 552.131 65.1172C551.791 65.1172 551.492 65.0723 551.234 64.9824C550.977 64.8926 550.756 64.7715 550.572 64.6191C550.389 64.4668 550.236 64.3008 550.115 64.1211H550.045C550.057 64.2734 550.07 64.457 550.086 64.6719C550.105 64.8867 550.115 65.0742 550.115 65.2344V67.8711H549.137V58.5781H549.939L550.068 59.5273H550.115C550.24 59.332 550.393 59.1543 550.572 58.9941C550.752 58.8301 550.971 58.7012 551.229 58.6074C551.49 58.5098 551.799 58.4609 552.154 58.4609ZM551.984 59.2812C551.539 59.2812 551.18 59.3672 550.906 59.5391C550.637 59.7109 550.439 59.9688 550.314 60.3125C550.189 60.6523 550.123 61.0801 550.115 61.5957V61.7832C550.115 62.3262 550.174 62.7852 550.291 63.1602C550.412 63.5352 550.609 63.8203 550.883 64.0156C551.16 64.2109 551.531 64.3086 551.996 64.3086C552.395 64.3086 552.727 64.2012 552.992 63.9863C553.258 63.7715 553.455 63.4727 553.584 63.0898C553.717 62.7031 553.783 62.2598 553.783 61.7598C553.783 61.002 553.635 60.4004 553.338 59.9551C553.045 59.5059 552.594 59.2812 551.984 59.2812ZM558.014 61.7129L555.793 58.5781H556.906L558.6 61.0508L560.287 58.5781H561.389L559.168 61.7129L561.512 65H560.398L558.6 62.3809L556.789 65H555.688L558.014 61.7129Z" fill="#9100CC"/>
<path d="M381 68L389 68" stroke="#C433FF" stroke-width="0.881406" stroke-linecap="round"/>
<path d="M373 84L380.119 84C380.605 84 381 83.6054 381 83.1186L381 52.8814C381 52.3946 380.605 52 380.119 52L373 52" stroke="#C433FF" stroke-width="0.881406" stroke-linecap="round"/>
<path d="M399.148 66.4316C399.148 66.8145 399.074 67.1465 398.926 67.4277C398.777 67.709 398.57 67.9395 398.305 68.1191C398.039 68.2949 397.727 68.418 397.367 68.4883V68.5352C398.047 68.6211 398.557 68.8398 398.896 69.1914C399.24 69.543 399.412 70.0039 399.412 70.5742C399.412 71.0703 399.295 71.5098 399.061 71.8926C398.83 72.2754 398.475 72.5762 397.994 72.7949C397.518 73.0098 396.906 73.1172 396.16 73.1172C395.707 73.1172 395.287 73.0801 394.9 73.0059C394.518 72.9355 394.15 72.8164 393.799 72.6484V71.7344C394.154 71.9102 394.541 72.0488 394.959 72.1504C395.377 72.248 395.781 72.2969 396.172 72.2969C396.953 72.2969 397.518 72.1426 397.865 71.834C398.213 71.5215 398.387 71.0957 398.387 70.5566C398.387 70.1855 398.289 69.8867 398.094 69.6602C397.902 69.4297 397.625 69.2617 397.262 69.1562C396.902 69.0469 396.469 68.9922 395.961 68.9922H395.105V68.1602H395.967C396.432 68.1602 396.826 68.0918 397.15 67.9551C397.475 67.8184 397.721 67.627 397.889 67.3809C398.061 67.1309 398.146 66.8359 398.146 66.4961C398.146 66.0625 398.002 65.7285 397.713 65.4941C397.424 65.2559 397.031 65.1367 396.535 65.1367C396.23 65.1367 395.953 65.168 395.703 65.2305C395.453 65.293 395.219 65.3789 395 65.4883C394.781 65.5977 394.562 65.7246 394.344 65.8691L393.852 65.2012C394.164 64.959 394.545 64.75 394.994 64.5742C395.443 64.3984 395.953 64.3105 396.523 64.3105C397.398 64.3105 398.055 64.5098 398.492 64.9082C398.93 65.3066 399.148 65.8145 399.148 66.4316ZM406.332 73H400.719V72.1855L403.01 69.8594C403.436 69.4297 403.793 69.0469 404.082 68.7109C404.375 68.375 404.598 68.0449 404.75 67.7207C404.902 67.3926 404.979 67.0332 404.979 66.6426C404.979 66.1582 404.834 65.7891 404.545 65.5352C404.26 65.2773 403.883 65.1484 403.414 65.1484C403.004 65.1484 402.641 65.2188 402.324 65.3594C402.008 65.5 401.684 65.6992 401.352 65.957L400.83 65.3008C401.057 65.1094 401.303 64.9395 401.568 64.791C401.838 64.6426 402.125 64.5254 402.43 64.4395C402.738 64.3535 403.066 64.3105 403.414 64.3105C403.941 64.3105 404.396 64.4023 404.779 64.5859C405.162 64.7695 405.457 65.0312 405.664 65.3711C405.875 65.7109 405.98 66.1152 405.98 66.584C405.98 67.0371 405.891 67.459 405.711 67.8496C405.531 68.2363 405.279 68.6211 404.955 69.0039C404.631 69.3828 404.252 69.7852 403.818 70.2109L401.955 72.0684V72.1094H406.332V73ZM414.154 66.4609C414.955 66.4609 415.594 66.7363 416.07 67.2871C416.547 67.8379 416.785 68.666 416.785 69.7715C416.785 70.502 416.676 71.1152 416.457 71.6113C416.238 72.1074 415.93 72.4824 415.531 72.7363C415.137 72.9902 414.67 73.1172 414.131 73.1172C413.791 73.1172 413.492 73.0723 413.234 72.9824C412.977 72.8926 412.756 72.7715 412.572 72.6191C412.389 72.4668 412.236 72.3008 412.115 72.1211H412.045C412.057 72.2734 412.07 72.457 412.086 72.6719C412.105 72.8867 412.115 73.0742 412.115 73.2344V75.8711H411.137V66.5781H411.939L412.068 67.5273H412.115C412.24 67.332 412.393 67.1543 412.572 66.9941C412.752 66.8301 412.971 66.7012 413.229 66.6074C413.49 66.5098 413.799 66.4609 414.154 66.4609ZM413.984 67.2812C413.539 67.2812 413.18 67.3672 412.906 67.5391C412.637 67.7109 412.439 67.9688 412.314 68.3125C412.189 68.6523 412.123 69.0801 412.115 69.5957V69.7832C412.115 70.3262 412.174 70.7852 412.291 71.1602C412.412 71.5352 412.609 71.8203 412.883 72.0156C413.16 72.2109 413.531 72.3086 413.996 72.3086C414.395 72.3086 414.727 72.2012 414.992 71.9863C415.258 71.7715 415.455 71.4727 415.584 71.0898C415.717 70.7031 415.783 70.2598 415.783 69.7598C415.783 69.002 415.635 68.4004 415.338 67.9551C415.045 67.5059 414.594 67.2812 413.984 67.2812ZM420.014 69.7129L417.793 66.5781H418.906L420.6 69.0508L422.287 66.5781H423.389L421.168 69.7129L423.512 73H422.398L420.6 70.3809L418.789 73H417.688L420.014 69.7129Z" fill="#9100CC"/>
<path d="M250 76L258 76" stroke="#C433FF" stroke-width="0.881406" stroke-linecap="round"/>
<path d="M242 84L249.119 84C249.605 84 250 83.6054 250 83.1186L250 68.8814C250 68.3946 249.605 68 249.119 68L242 68" stroke="#C433FF" stroke-width="0.881406" stroke-linecap="round"/>
<path d="M266.473 81H265.523V74.9297C265.523 74.6992 265.523 74.502 265.523 74.3379C265.527 74.1699 265.531 74.0176 265.535 73.8809C265.543 73.7402 265.553 73.5977 265.564 73.4531C265.443 73.5781 265.33 73.6855 265.225 73.7754C265.119 73.8613 264.988 73.9688 264.832 74.0977L263.854 74.8828L263.344 74.2207L265.664 72.4336H266.473V81ZM269.807 77.3379C269.807 76.8223 269.842 76.3184 269.912 75.8262C269.986 75.334 270.109 74.877 270.281 74.4551C270.453 74.0293 270.688 73.6562 270.984 73.3359C271.281 73.0156 271.65 72.7656 272.092 72.5859C272.537 72.4023 273.07 72.3105 273.691 72.3105C273.867 72.3105 274.057 72.3203 274.26 72.3398C274.463 72.3555 274.631 72.3828 274.764 72.4219V73.2598C274.619 73.209 274.453 73.1719 274.266 73.1484C274.082 73.125 273.896 73.1133 273.709 73.1133C272.982 73.1133 272.41 73.2715 271.992 73.5879C271.578 73.9043 271.279 74.334 271.096 74.877C270.912 75.416 270.807 76.0234 270.779 76.6992H270.844C270.965 76.5039 271.119 76.3281 271.307 76.1719C271.494 76.0117 271.721 75.8848 271.986 75.791C272.256 75.6973 272.568 75.6504 272.924 75.6504C273.424 75.6504 273.859 75.752 274.23 75.9551C274.605 76.1582 274.895 76.4531 275.098 76.8398C275.305 77.2266 275.408 77.6953 275.408 78.2461C275.408 78.8359 275.299 79.3457 275.08 79.7754C274.861 80.2051 274.549 80.5371 274.143 80.7715C273.74 81.002 273.26 81.1172 272.701 81.1172C272.283 81.1172 271.898 81.0371 271.547 80.877C271.195 80.7168 270.889 80.4785 270.627 80.1621C270.369 79.8457 270.168 79.4531 270.023 78.9844C269.879 78.5117 269.807 77.9629 269.807 77.3379ZM272.689 80.2969C273.221 80.2969 273.646 80.127 273.967 79.7871C274.287 79.4473 274.447 78.9336 274.447 78.2461C274.447 77.6836 274.305 77.2383 274.02 76.9102C273.734 76.582 273.305 76.418 272.73 76.418C272.34 76.418 272 76.5 271.711 76.6641C271.422 76.8242 271.197 77.0273 271.037 77.2734C270.877 77.5195 270.797 77.7695 270.797 78.0234C270.797 78.2812 270.834 78.543 270.908 78.8086C270.986 79.0742 271.104 79.3203 271.26 79.5469C271.416 79.7734 271.613 79.9551 271.852 80.0918C272.09 80.2285 272.369 80.2969 272.689 80.2969ZM283.154 74.4609C283.955 74.4609 284.594 74.7363 285.07 75.2871C285.547 75.8379 285.785 76.666 285.785 77.7715C285.785 78.502 285.676 79.1152 285.457 79.6113C285.238 80.1074 284.93 80.4824 284.531 80.7363C284.137 80.9902 283.67 81.1172 283.131 81.1172C282.791 81.1172 282.492 81.0723 282.234 80.9824C281.977 80.8926 281.756 80.7715 281.572 80.6191C281.389 80.4668 281.236 80.3008 281.115 80.1211H281.045C281.057 80.2734 281.07 80.457 281.086 80.6719C281.105 80.8867 281.115 81.0742 281.115 81.2344V83.8711H280.137V74.5781H280.939L281.068 75.5273H281.115C281.24 75.332 281.393 75.1543 281.572 74.9941C281.752 74.8301 281.971 74.7012 282.229 74.6074C282.49 74.5098 282.799 74.4609 283.154 74.4609ZM282.984 75.2812C282.539 75.2812 282.18 75.3672 281.906 75.5391C281.637 75.7109 281.439 75.9688 281.314 76.3125C281.189 76.6523 281.123 77.0801 281.115 77.5957V77.7832C281.115 78.3262 281.174 78.7852 281.291 79.1602C281.412 79.5352 281.609 79.8203 281.883 80.0156C282.16 80.2109 282.531 80.3086 282.996 80.3086C283.395 80.3086 283.727 80.2012 283.992 79.9863C284.258 79.7715 284.455 79.4727 284.584 79.0898C284.717 78.7031 284.783 78.2598 284.783 77.7598C284.783 77.002 284.635 76.4004 284.338 75.9551C284.045 75.5059 283.594 75.2812 282.984 75.2812ZM289.014 77.7129L286.793 74.5781H287.906L289.6 77.0508L291.287 74.5781H292.389L290.168 77.7129L292.512 81H291.398L289.6 78.3809L287.789 81H286.688L289.014 77.7129Z" fill="#9100CC"/>
</svg>
