<svg width="728" height="271" viewBox="0 0 728 271" fill="none" xmlns="http://www.w3.org/2000/svg">
<g clip-path="url(#clip0_1466_11069)">
<rect width="728" height="271" rx="8" fill="#F3F6F9"/>
<g clip-path="url(#clip1_1466_11069)">
<rect x="50" y="-27" width="629.205" height="312.719" fill="white"/>
<rect width="629.179" height="84.0063" transform="translate(50 -67.678)" fill="#F3F6F9"/>
<rect x="109.732" y="-11.5466" width="284.723" height="11.9464" rx="5.97321" fill="#D1D8E0"/>
<path fill-rule="evenodd" clip-rule="evenodd" d="M364.603 155.29C377.857 155.29 388.603 144.544 388.603 131.29C388.603 118.035 377.857 107.29 364.603 107.29C351.348 107.29 340.603 118.035 340.603 131.29C340.603 144.544 351.348 155.29 364.603 155.29ZM364.603 149.29C374.544 149.29 382.603 141.231 382.603 131.29C382.603 121.348 374.544 113.29 364.603 113.29C354.661 113.29 346.603 121.348 346.603 131.29C346.603 141.231 354.661 149.29 364.603 149.29Z" fill="#D1D8E0"/>
<path fill-rule="evenodd" clip-rule="evenodd" d="M364.603 155.29C377.857 155.29 388.603 144.544 388.603 131.29C388.603 118.035 377.857 107.29 364.603 107.29C351.348 107.29 340.603 118.035 340.603 131.29C340.603 144.544 351.348 155.29 364.603 155.29ZM364.603 149.29C374.544 149.29 382.603 141.231 382.603 131.29C382.603 121.348 374.544 113.29 364.603 113.29C354.661 113.29 346.603 121.348 346.603 131.29C346.603 141.231 354.661 149.29 364.603 149.29Z" fill="#D1D8E0"/>
<path fill-rule="evenodd" clip-rule="evenodd" d="M384.558 117.956C387.195 121.903 388.603 126.543 388.603 131.29C388.603 132.946 387.259 134.29 385.603 134.29C383.946 134.29 382.603 132.946 382.603 131.29C382.603 131.288 382.603 131.287 382.603 131.285C382.6 121.346 374.542 113.29 364.603 113.29C354.661 113.29 346.603 121.348 346.603 131.29C346.603 141.227 354.656 149.284 364.593 149.29L364.603 149.29C366.259 149.29 367.603 150.633 367.603 152.29C367.603 153.946 366.259 155.29 364.603 155.29C359.856 155.29 355.216 153.882 351.269 151.245C347.322 148.608 344.246 144.859 342.429 140.474C340.613 136.089 340.138 131.263 341.064 126.607C341.99 121.952 344.276 117.675 347.632 114.319C350.988 110.963 355.265 108.677 359.92 107.751C364.576 106.825 369.402 107.3 373.787 109.116C378.172 110.933 381.921 114.009 384.558 117.956Z" fill="#336ACC"/>
<path fill-rule="evenodd" clip-rule="evenodd" d="M384.558 117.956C387.195 121.903 388.603 126.543 388.603 131.29C388.603 132.946 387.259 134.29 385.603 134.29C383.946 134.29 382.603 132.946 382.603 131.29C382.603 131.288 382.603 131.287 382.603 131.285C382.6 121.346 374.542 113.29 364.603 113.29C354.661 113.29 346.603 121.348 346.603 131.29C346.603 141.227 354.656 149.284 364.593 149.29L364.603 149.29C366.259 149.29 367.603 150.633 367.603 152.29C367.603 153.946 366.259 155.29 364.603 155.29C359.856 155.29 355.216 153.882 351.269 151.245C347.322 148.608 344.246 144.859 342.429 140.474C340.613 136.089 340.138 131.263 341.064 126.607C341.99 121.952 344.276 117.675 347.632 114.319C350.988 110.963 355.265 108.677 359.92 107.751C364.576 106.825 369.402 107.3 373.787 109.116C378.172 110.933 381.921 114.009 384.558 117.956Z" fill="#336ACC"/>
<path d="M295.048 170.875C294.418 170.875 293.85 170.985 293.345 171.204C292.845 171.417 292.418 171.73 292.063 172.141C291.715 172.547 291.446 173.04 291.259 173.618C291.071 174.196 290.978 174.847 290.978 175.571C290.978 176.529 291.126 177.362 291.423 178.071C291.725 178.774 292.173 179.318 292.767 179.704C293.366 180.089 294.113 180.282 295.009 180.282C295.519 180.282 295.998 180.24 296.446 180.157C296.899 180.068 297.34 179.959 297.767 179.829V180.985C297.35 181.141 296.912 181.256 296.454 181.329C295.996 181.407 295.451 181.446 294.821 181.446C293.66 181.446 292.688 181.206 291.907 180.727C291.131 180.243 290.548 179.56 290.157 178.68C289.772 177.8 289.579 176.761 289.579 175.563C289.579 174.698 289.699 173.909 289.938 173.196C290.183 172.477 290.537 171.857 291.001 171.336C291.47 170.816 292.043 170.415 292.72 170.133C293.402 169.847 294.183 169.704 295.063 169.704C295.642 169.704 296.199 169.761 296.735 169.875C297.272 169.99 297.756 170.154 298.188 170.368L297.657 171.493C297.293 171.326 296.892 171.183 296.454 171.063C296.022 170.938 295.553 170.875 295.048 170.875ZM303.251 172.586C304.272 172.586 305.03 172.816 305.524 173.274C306.019 173.732 306.267 174.464 306.267 175.469V181.29H305.321L305.071 180.024H305.009C304.769 180.336 304.519 180.599 304.259 180.813C303.998 181.021 303.696 181.18 303.353 181.29C303.014 181.394 302.597 181.446 302.103 181.446C301.582 181.446 301.118 181.355 300.712 181.172C300.311 180.99 299.993 180.714 299.759 180.344C299.53 179.974 299.415 179.506 299.415 178.938C299.415 178.084 299.754 177.428 300.431 176.969C301.108 176.511 302.139 176.261 303.524 176.219L305.001 176.157V175.633C305.001 174.894 304.842 174.375 304.524 174.079C304.207 173.782 303.759 173.633 303.181 173.633C302.733 173.633 302.306 173.698 301.899 173.829C301.493 173.959 301.108 174.112 300.743 174.29L300.345 173.305C300.73 173.107 301.173 172.938 301.673 172.797C302.173 172.657 302.699 172.586 303.251 172.586ZM304.985 177.071L303.681 177.125C302.613 177.167 301.86 177.342 301.423 177.649C300.985 177.956 300.767 178.391 300.767 178.954C300.767 179.443 300.915 179.805 301.212 180.04C301.509 180.274 301.902 180.391 302.392 180.391C303.152 180.391 303.774 180.18 304.259 179.758C304.743 179.336 304.985 178.704 304.985 177.86V177.071ZM312.829 172.571C313.001 172.571 313.181 172.581 313.368 172.602C313.556 172.618 313.722 172.641 313.868 172.672L313.704 173.875C313.563 173.839 313.407 173.81 313.235 173.79C313.063 173.769 312.902 173.758 312.751 173.758C312.407 173.758 312.082 173.829 311.774 173.969C311.472 174.105 311.207 174.303 310.978 174.563C310.748 174.818 310.569 175.128 310.438 175.493C310.308 175.852 310.243 176.253 310.243 176.696V181.29H308.938V172.727H310.017L310.157 174.305H310.212C310.389 173.987 310.603 173.698 310.853 173.438C311.103 173.172 311.392 172.961 311.72 172.805C312.053 172.649 312.423 172.571 312.829 172.571ZM317.876 185.133C316.751 185.133 315.884 184.922 315.274 184.5C314.665 184.084 314.36 183.498 314.36 182.743C314.36 182.206 314.53 181.748 314.868 181.368C315.212 180.987 315.686 180.735 316.29 180.61C316.066 180.506 315.873 180.349 315.712 180.141C315.556 179.933 315.478 179.693 315.478 179.422C315.478 179.11 315.563 178.836 315.735 178.602C315.912 178.362 316.181 178.133 316.54 177.915C316.092 177.732 315.728 177.425 315.446 176.993C315.17 176.555 315.032 176.047 315.032 175.469C315.032 174.855 315.16 174.331 315.415 173.899C315.67 173.461 316.04 173.128 316.524 172.899C317.009 172.67 317.595 172.555 318.282 172.555C318.433 172.555 318.584 172.563 318.735 172.579C318.892 172.589 319.04 172.607 319.181 172.633C319.321 172.654 319.444 172.68 319.548 172.711H322.485V173.547L320.907 173.743C321.063 173.946 321.194 174.191 321.298 174.477C321.402 174.764 321.454 175.081 321.454 175.43C321.454 176.284 321.165 176.964 320.587 177.469C320.009 177.969 319.215 178.219 318.204 178.219C317.965 178.219 317.72 178.198 317.47 178.157C317.215 178.297 317.019 178.454 316.884 178.625C316.754 178.797 316.688 178.995 316.688 179.219C316.688 179.386 316.738 179.519 316.837 179.618C316.941 179.717 317.09 179.79 317.282 179.836C317.475 179.878 317.707 179.899 317.978 179.899H319.485C320.418 179.899 321.131 180.094 321.626 180.485C322.126 180.875 322.376 181.446 322.376 182.196C322.376 183.144 321.991 183.87 321.22 184.375C320.449 184.881 319.334 185.133 317.876 185.133ZM317.915 184.118C318.623 184.118 319.209 184.045 319.673 183.899C320.142 183.758 320.491 183.553 320.72 183.282C320.954 183.016 321.071 182.698 321.071 182.329C321.071 181.985 320.993 181.724 320.837 181.547C320.681 181.375 320.451 181.261 320.149 181.204C319.847 181.141 319.478 181.11 319.04 181.11H317.556C317.17 181.11 316.834 181.17 316.548 181.29C316.261 181.409 316.04 181.586 315.884 181.821C315.733 182.055 315.657 182.347 315.657 182.696C315.657 183.159 315.853 183.511 316.243 183.75C316.634 183.995 317.191 184.118 317.915 184.118ZM318.251 177.274C318.871 177.274 319.337 177.118 319.649 176.805C319.962 176.493 320.118 176.037 320.118 175.438C320.118 174.797 319.959 174.318 319.642 174C319.324 173.678 318.855 173.516 318.235 173.516C317.642 173.516 317.183 173.683 316.86 174.016C316.543 174.344 316.384 174.826 316.384 175.461C316.384 176.045 316.545 176.493 316.868 176.805C317.191 177.118 317.652 177.274 318.251 177.274ZM327.376 172.586C328.397 172.586 329.155 172.816 329.649 173.274C330.144 173.732 330.392 174.464 330.392 175.469V181.29H329.446L329.196 180.024H329.134C328.894 180.336 328.644 180.599 328.384 180.813C328.123 181.021 327.821 181.18 327.478 181.29C327.139 181.394 326.722 181.446 326.228 181.446C325.707 181.446 325.243 181.355 324.837 181.172C324.436 180.99 324.118 180.714 323.884 180.344C323.655 179.974 323.54 179.506 323.54 178.938C323.54 178.084 323.879 177.428 324.556 176.969C325.233 176.511 326.264 176.261 327.649 176.219L329.126 176.157V175.633C329.126 174.894 328.967 174.375 328.649 174.079C328.332 173.782 327.884 173.633 327.306 173.633C326.858 173.633 326.431 173.698 326.024 173.829C325.618 173.959 325.233 174.112 324.868 174.29L324.47 173.305C324.855 173.107 325.298 172.938 325.798 172.797C326.298 172.657 326.824 172.586 327.376 172.586ZM329.11 177.071L327.806 177.125C326.738 177.167 325.985 177.342 325.548 177.649C325.11 177.956 324.892 178.391 324.892 178.954C324.892 179.443 325.04 179.805 325.337 180.04C325.634 180.274 326.027 180.391 326.517 180.391C327.277 180.391 327.899 180.18 328.384 179.758C328.868 179.336 329.11 178.704 329.11 177.86V177.071ZM337.118 172.571C338.134 172.571 338.902 172.821 339.423 173.321C339.944 173.816 340.204 174.612 340.204 175.711V181.29H338.923V175.797C338.923 175.084 338.759 174.55 338.431 174.196C338.108 173.842 337.61 173.665 336.938 173.665C335.991 173.665 335.324 173.933 334.938 174.469C334.553 175.006 334.36 175.784 334.36 176.805V181.29H333.063V172.727H334.11L334.306 173.961H334.376C334.558 173.659 334.79 173.407 335.071 173.204C335.353 172.995 335.668 172.839 336.017 172.735C336.366 172.625 336.733 172.571 337.118 172.571ZM345.923 181.446C344.84 181.446 343.98 181.076 343.345 180.336C342.715 179.597 342.399 178.498 342.399 177.04C342.399 175.566 342.722 174.454 343.368 173.704C344.014 172.948 344.873 172.571 345.946 172.571C346.399 172.571 346.795 172.631 347.134 172.75C347.472 172.87 347.764 173.032 348.009 173.235C348.254 173.433 348.459 173.659 348.626 173.915H348.72C348.699 173.753 348.678 173.532 348.657 173.25C348.636 172.969 348.626 172.74 348.626 172.563V169.133H349.923V181.29H348.876L348.681 180.071H348.626C348.465 180.326 348.259 180.558 348.009 180.766C347.764 180.974 347.47 181.141 347.126 181.266C346.787 181.386 346.386 181.446 345.923 181.446ZM346.126 180.368C347.043 180.368 347.691 180.107 348.071 179.586C348.451 179.066 348.642 178.292 348.642 177.266V177.032C348.642 175.943 348.459 175.107 348.095 174.524C347.735 173.941 347.079 173.649 346.126 173.649C345.329 173.649 344.733 173.956 344.337 174.571C343.941 175.18 343.743 176.014 343.743 177.071C343.743 178.123 343.938 178.935 344.329 179.508C344.725 180.081 345.324 180.368 346.126 180.368ZM360.056 176.993C360.056 177.696 359.965 178.323 359.782 178.875C359.6 179.428 359.337 179.894 358.993 180.274C358.649 180.654 358.233 180.946 357.743 181.149C357.259 181.347 356.709 181.446 356.095 181.446C355.522 181.446 354.996 181.347 354.517 181.149C354.043 180.946 353.631 180.654 353.282 180.274C352.938 179.894 352.67 179.428 352.478 178.875C352.29 178.323 352.196 177.696 352.196 176.993C352.196 176.055 352.355 175.258 352.673 174.602C352.991 173.941 353.444 173.438 354.032 173.094C354.626 172.745 355.332 172.571 356.149 172.571C356.931 172.571 357.613 172.745 358.196 173.094C358.785 173.443 359.241 173.948 359.563 174.61C359.892 175.266 360.056 176.06 360.056 176.993ZM353.54 176.993C353.54 177.68 353.631 178.277 353.813 178.782C353.996 179.287 354.277 179.678 354.657 179.954C355.037 180.23 355.527 180.368 356.126 180.368C356.72 180.368 357.207 180.23 357.587 179.954C357.972 179.678 358.256 179.287 358.438 178.782C358.621 178.277 358.712 177.68 358.712 176.993C358.712 176.31 358.621 175.722 358.438 175.227C358.256 174.727 357.975 174.342 357.595 174.071C357.215 173.8 356.722 173.665 356.118 173.665C355.228 173.665 354.574 173.959 354.157 174.547C353.746 175.136 353.54 175.951 353.54 176.993ZM371.993 178.946C371.993 179.493 371.855 179.954 371.579 180.329C371.308 180.698 370.918 180.977 370.407 181.165C369.902 181.352 369.298 181.446 368.595 181.446C367.996 181.446 367.478 181.399 367.04 181.305C366.603 181.211 366.22 181.079 365.892 180.907V179.711C366.241 179.883 366.657 180.04 367.142 180.18C367.626 180.321 368.121 180.391 368.626 180.391C369.366 180.391 369.902 180.271 370.235 180.032C370.569 179.792 370.735 179.467 370.735 179.055C370.735 178.821 370.668 178.615 370.532 178.438C370.402 178.256 370.181 178.081 369.868 177.915C369.556 177.743 369.123 177.555 368.571 177.352C368.024 177.144 367.55 176.938 367.149 176.735C366.754 176.527 366.446 176.274 366.228 175.977C366.014 175.68 365.907 175.295 365.907 174.821C365.907 174.097 366.199 173.542 366.782 173.157C367.371 172.766 368.142 172.571 369.095 172.571C369.61 172.571 370.092 172.623 370.54 172.727C370.993 172.826 371.415 172.961 371.806 173.133L371.368 174.172C371.014 174.021 370.636 173.894 370.235 173.79C369.834 173.685 369.425 173.633 369.009 173.633C368.41 173.633 367.949 173.732 367.626 173.93C367.308 174.128 367.149 174.399 367.149 174.743C367.149 175.008 367.222 175.227 367.368 175.399C367.519 175.571 367.759 175.732 368.087 175.883C368.415 176.034 368.847 176.211 369.384 176.415C369.92 176.612 370.384 176.818 370.774 177.032C371.165 177.24 371.465 177.495 371.673 177.797C371.886 178.094 371.993 178.477 371.993 178.946ZM381.462 176.993C381.462 177.696 381.371 178.323 381.188 178.875C381.006 179.428 380.743 179.894 380.399 180.274C380.056 180.654 379.639 180.946 379.149 181.149C378.665 181.347 378.116 181.446 377.501 181.446C376.928 181.446 376.402 181.347 375.923 181.149C375.449 180.946 375.037 180.654 374.688 180.274C374.345 179.894 374.076 179.428 373.884 178.875C373.696 178.323 373.603 177.696 373.603 176.993C373.603 176.055 373.761 175.258 374.079 174.602C374.397 173.941 374.85 173.438 375.438 173.094C376.032 172.745 376.738 172.571 377.556 172.571C378.337 172.571 379.019 172.745 379.603 173.094C380.191 173.443 380.647 173.948 380.97 174.61C381.298 175.266 381.462 176.06 381.462 176.993ZM374.946 176.993C374.946 177.68 375.037 178.277 375.22 178.782C375.402 179.287 375.683 179.678 376.063 179.954C376.444 180.23 376.933 180.368 377.532 180.368C378.126 180.368 378.613 180.23 378.993 179.954C379.379 179.678 379.662 179.287 379.845 178.782C380.027 178.277 380.118 177.68 380.118 176.993C380.118 176.31 380.027 175.722 379.845 175.227C379.662 174.727 379.381 174.342 379.001 174.071C378.621 173.8 378.129 173.665 377.524 173.665C376.634 173.665 375.98 173.959 375.563 174.547C375.152 175.136 374.946 175.951 374.946 176.993ZM385.009 181.29H383.704V169.133H385.009V181.29ZM389.048 172.727V181.29H387.751V172.727H389.048ZM388.415 169.524C388.629 169.524 388.811 169.594 388.962 169.735C389.118 169.87 389.196 170.084 389.196 170.375C389.196 170.662 389.118 170.875 388.962 171.016C388.811 171.157 388.629 171.227 388.415 171.227C388.191 171.227 388.004 171.157 387.853 171.016C387.707 170.875 387.634 170.662 387.634 170.375C387.634 170.084 387.707 169.87 387.853 169.735C388.004 169.594 388.191 169.524 388.415 169.524ZM395.228 181.446C394.457 181.446 393.777 181.287 393.188 180.969C392.6 180.652 392.142 180.167 391.813 179.516C391.485 178.865 391.321 178.045 391.321 177.055C391.321 176.019 391.493 175.172 391.837 174.516C392.186 173.855 392.665 173.365 393.274 173.047C393.884 172.73 394.576 172.571 395.353 172.571C395.78 172.571 396.191 172.615 396.587 172.704C396.988 172.787 397.316 172.894 397.571 173.024L397.181 174.11C396.92 174.006 396.618 173.912 396.274 173.829C395.936 173.745 395.618 173.704 395.321 173.704C394.728 173.704 394.233 173.831 393.837 174.086C393.446 174.342 393.152 174.717 392.954 175.211C392.761 175.706 392.665 176.316 392.665 177.04C392.665 177.732 392.759 178.323 392.946 178.813C393.139 179.303 393.423 179.678 393.798 179.938C394.178 180.193 394.652 180.321 395.22 180.321C395.673 180.321 396.082 180.274 396.446 180.18C396.811 180.081 397.142 179.967 397.438 179.836V180.993C397.152 181.139 396.832 181.25 396.478 181.329C396.129 181.407 395.712 181.446 395.228 181.446ZM400.767 172.727V181.29H399.47V172.727H400.767ZM400.134 169.524C400.347 169.524 400.53 169.594 400.681 169.735C400.837 169.87 400.915 170.084 400.915 170.375C400.915 170.662 400.837 170.875 400.681 171.016C400.53 171.157 400.347 171.227 400.134 171.227C399.91 171.227 399.722 171.157 399.571 171.016C399.425 170.875 399.353 170.662 399.353 170.375C399.353 170.084 399.425 169.87 399.571 169.735C399.722 169.594 399.91 169.524 400.134 169.524ZM406.282 180.383C406.496 180.383 406.715 180.365 406.938 180.329C407.162 180.292 407.345 180.248 407.485 180.196V181.204C407.334 181.271 407.123 181.329 406.853 181.375C406.587 181.422 406.326 181.446 406.071 181.446C405.618 181.446 405.207 181.368 404.837 181.211C404.467 181.05 404.17 180.779 403.946 180.399C403.728 180.019 403.618 179.493 403.618 178.821V173.743H402.399V173.11L403.626 172.602L404.142 170.743H404.923V172.727H407.431V173.743H404.923V178.782C404.923 179.318 405.045 179.719 405.29 179.985C405.54 180.25 405.871 180.383 406.282 180.383ZM416.29 172.727V181.29H415.228L415.04 180.086H414.97C414.793 180.383 414.563 180.633 414.282 180.836C414.001 181.04 413.683 181.191 413.329 181.29C412.98 181.394 412.608 181.446 412.212 181.446C411.535 181.446 410.967 181.336 410.509 181.118C410.05 180.899 409.704 180.56 409.47 180.102C409.241 179.644 409.126 179.055 409.126 178.336V172.727H410.438V178.243C410.438 178.956 410.6 179.49 410.923 179.844C411.246 180.193 411.738 180.368 412.399 180.368C413.035 180.368 413.54 180.248 413.915 180.008C414.295 179.769 414.569 179.417 414.735 178.954C414.902 178.485 414.985 177.912 414.985 177.235V172.727H416.29ZM422.079 181.446C420.996 181.446 420.136 181.076 419.501 180.336C418.871 179.597 418.556 178.498 418.556 177.04C418.556 175.566 418.879 174.454 419.524 173.704C420.17 172.948 421.03 172.571 422.103 172.571C422.556 172.571 422.951 172.631 423.29 172.75C423.629 172.87 423.92 173.032 424.165 173.235C424.41 173.433 424.616 173.659 424.782 173.915H424.876C424.855 173.753 424.834 173.532 424.813 173.25C424.793 172.969 424.782 172.74 424.782 172.563V169.133H426.079V181.29H425.032L424.837 180.071H424.782C424.621 180.326 424.415 180.558 424.165 180.766C423.92 180.974 423.626 181.141 423.282 181.266C422.944 181.386 422.543 181.446 422.079 181.446ZM422.282 180.368C423.199 180.368 423.847 180.107 424.228 179.586C424.608 179.066 424.798 178.292 424.798 177.266V177.032C424.798 175.943 424.616 175.107 424.251 174.524C423.892 173.941 423.235 173.649 422.282 173.649C421.485 173.649 420.889 173.956 420.493 174.571C420.097 175.18 419.899 176.014 419.899 177.071C419.899 178.123 420.095 178.935 420.485 179.508C420.881 180.081 421.48 180.368 422.282 180.368ZM428.634 180.477C428.634 180.112 428.722 179.855 428.899 179.704C429.076 179.547 429.293 179.469 429.548 179.469C429.813 179.469 430.037 179.547 430.22 179.704C430.402 179.855 430.493 180.112 430.493 180.477C430.493 180.836 430.402 181.099 430.22 181.266C430.037 181.428 429.813 181.508 429.548 181.508C429.293 181.508 429.076 181.428 428.899 181.266C428.722 181.099 428.634 180.836 428.634 180.477ZM432.837 180.477C432.837 180.112 432.925 179.855 433.103 179.704C433.28 179.547 433.496 179.469 433.751 179.469C434.017 179.469 434.241 179.547 434.423 179.704C434.605 179.855 434.696 180.112 434.696 180.477C434.696 180.836 434.605 181.099 434.423 181.266C434.241 181.428 434.017 181.508 433.751 181.508C433.496 181.508 433.28 181.428 433.103 181.266C432.925 181.099 432.837 180.836 432.837 180.477ZM437.04 180.477C437.04 180.112 437.129 179.855 437.306 179.704C437.483 179.547 437.699 179.469 437.954 179.469C438.22 179.469 438.444 179.547 438.626 179.704C438.808 179.855 438.899 180.112 438.899 180.477C438.899 180.836 438.808 181.099 438.626 181.266C438.444 181.428 438.22 181.508 437.954 181.508C437.699 181.508 437.483 181.428 437.306 181.266C437.129 181.099 437.04 180.836 437.04 180.477Z" fill="#101E37"/>
</g>
<rect x="49.0045" y="-27.9955" width="631.196" height="314.71" stroke="#B8C1CC" stroke-width="1.99107"/>
</g>
<rect x="1" y="1" width="726" height="269" rx="7" stroke="#E6EBF0" stroke-width="2"/>
<defs>
<clipPath id="clip0_1466_11069">
<rect width="728" height="271" rx="8" fill="white"/>
</clipPath>
<clipPath id="clip1_1466_11069">
<rect x="50" y="-27" width="629.205" height="312.719" fill="white"/>
</clipPath>
</defs>
</svg>
