<svg width="728" height="427" viewBox="0 0 728 427" fill="none" xmlns="http://www.w3.org/2000/svg">
<rect x="1" y="1" width="726" height="425" rx="7" fill="#F3F6F9"/>
<rect x="1" y="1" width="726" height="425" rx="7" stroke="#E6EBF0" stroke-width="2"/>
<rect x="143.799" y="36" width="440.401" height="355" rx="6.69811" fill="white"/>
<rect x="163.894" y="56.0942" width="316.486" height="15.908" rx="6.69811" fill="#B8C1CC"/>
<path d="M553.495 58.3215C553.384 58.3216 553.275 58.3547 553.183 58.4167C553.091 58.4787 553.02 58.5668 552.978 58.6697C552.936 58.7726 552.926 58.8856 552.949 58.9943C552.971 59.1029 553.026 59.2024 553.106 59.2798L556.618 62.7924L553.106 66.305C553.052 66.3564 553.009 66.418 552.98 66.4862C552.95 66.5544 552.935 66.6277 552.934 66.702C552.933 66.7762 552.947 66.8499 552.975 66.9187C553.004 66.9874 553.045 67.0499 553.098 67.1024C553.15 67.1549 553.213 67.1964 553.281 67.2245C553.35 67.2525 553.424 67.2666 553.498 67.2659C553.572 67.2651 553.646 67.2495 553.714 67.2201C553.782 67.1906 553.844 67.1478 553.895 67.0943L557.408 63.5817L560.92 67.0943C560.972 67.1478 561.033 67.1906 561.101 67.2201C561.17 67.2495 561.243 67.2651 561.317 67.2659C561.391 67.2666 561.465 67.2525 561.534 67.2245C561.603 67.1964 561.665 67.1549 561.718 67.1024C561.77 67.0499 561.812 66.9874 561.84 66.9187C561.868 66.8499 561.882 66.7762 561.881 66.702C561.88 66.6277 561.865 66.5544 561.835 66.4862C561.806 66.418 561.763 66.3564 561.709 66.305L558.197 62.7924L561.709 59.2798C561.79 59.2014 561.845 59.1005 561.868 58.9902C561.89 58.88 561.878 58.7655 561.834 58.662C561.791 58.5584 561.717 58.4704 561.622 58.4097C561.527 58.3489 561.416 58.3182 561.304 58.3215C561.159 58.3259 561.021 58.3865 560.92 58.4905L557.408 62.0031L553.895 58.4905C553.843 58.437 553.781 58.3945 553.712 58.3655C553.643 58.3365 553.569 58.3215 553.495 58.3215Z" fill="#505E70"/>
<path d="M163.894 78.7004L564.106 78.7004" stroke="#D1D8E0" stroke-width="0.837264" stroke-linecap="round"/>
<rect x="163.894" y="85.3986" width="316.486" height="15.908" rx="6.69811" fill="#E6EBF0"/>
<rect x="163.894" y="104.656" width="274.623" height="15.908" rx="6.69811" fill="#E6EBF0"/>
<rect x="163.894" y="133.96" width="296.392" height="15.908" rx="6.69811" fill="#B8C1CC"/>
<g clip-path="url(#clip0_1484_8840)">
<path d="M163.894 169.962C163.894 166.263 166.892 163.264 170.592 163.264H557.408C561.107 163.264 564.106 166.263 564.106 169.962V196.755H163.894V169.962Z" fill="#E6EBF0"/>
<path d="M184.714 180.55C184.714 181.425 184.546 182.157 184.209 182.745C183.876 183.33 183.393 183.771 182.758 184.068C182.124 184.362 181.361 184.509 180.468 184.509H178.267V176.739H180.707C181.522 176.739 182.229 176.885 182.827 177.175C183.426 177.462 183.89 177.889 184.22 178.456C184.549 179.019 184.714 179.717 184.714 180.55ZM183.003 180.592C183.003 180.019 182.918 179.547 182.748 179.179C182.581 178.807 182.333 178.532 182.004 178.355C181.678 178.178 181.274 178.089 180.792 178.089H179.915V183.149H180.622C181.426 183.149 182.023 182.934 182.413 182.506C182.806 182.077 183.003 181.439 183.003 180.592ZM191.597 181.528C191.597 182.024 191.529 182.463 191.395 182.846C191.264 183.229 191.07 183.553 190.815 183.818C190.564 184.081 190.259 184.279 189.901 184.414C189.547 184.548 189.147 184.616 188.7 184.616C188.282 184.616 187.898 184.548 187.547 184.414C187.2 184.279 186.897 184.081 186.638 183.818C186.383 183.553 186.185 183.229 186.043 182.846C185.905 182.463 185.836 182.024 185.836 181.528C185.836 180.869 185.952 180.311 186.186 179.854C186.42 179.397 186.753 179.049 187.185 178.812C187.618 178.575 188.133 178.456 188.732 178.456C189.288 178.456 189.781 178.575 190.21 178.812C190.642 179.049 190.98 179.397 191.225 179.854C191.473 180.311 191.597 180.869 191.597 181.528ZM187.488 181.528C187.488 181.918 187.531 182.245 187.616 182.511C187.701 182.777 187.834 182.977 188.015 183.112C188.195 183.246 188.431 183.314 188.721 183.314C189.008 183.314 189.24 183.246 189.418 183.112C189.598 182.977 189.729 182.777 189.811 182.511C189.896 182.245 189.938 181.918 189.938 181.528C189.938 181.135 189.896 180.809 189.811 180.55C189.729 180.288 189.598 180.091 189.418 179.96C189.237 179.829 189.001 179.763 188.711 179.763C188.282 179.763 187.97 179.91 187.775 180.205C187.584 180.499 187.488 180.94 187.488 181.528ZM195.349 184.616C194.761 184.616 194.259 184.509 193.845 184.297C193.43 184.081 193.115 183.748 192.899 183.298C192.683 182.848 192.575 182.272 192.575 181.57C192.575 180.844 192.697 180.252 192.941 179.795C193.189 179.335 193.531 178.996 193.967 178.78C194.406 178.564 194.915 178.456 195.492 178.456C195.903 178.456 196.258 178.497 196.555 178.578C196.856 178.656 197.119 178.75 197.342 178.86L196.863 180.114C196.608 180.011 196.371 179.928 196.151 179.864C195.932 179.797 195.712 179.763 195.492 179.763C195.209 179.763 194.973 179.831 194.785 179.965C194.598 180.096 194.458 180.295 194.366 180.561C194.273 180.826 194.227 181.159 194.227 181.56C194.227 181.953 194.277 182.279 194.376 182.538C194.475 182.796 194.619 182.989 194.807 183.117C194.994 183.241 195.223 183.303 195.492 183.303C195.829 183.303 196.128 183.259 196.39 183.17C196.653 183.078 196.908 182.95 197.156 182.787V184.175C196.908 184.33 196.647 184.442 196.375 184.509C196.105 184.58 195.763 184.616 195.349 184.616ZM203.99 178.568V184.509H202.747L202.529 183.749H202.444C202.316 183.951 202.157 184.116 201.966 184.244C201.774 184.371 201.563 184.465 201.333 184.525C201.103 184.586 200.864 184.616 200.616 184.616C200.19 184.616 199.82 184.541 199.505 184.392C199.19 184.24 198.943 184.005 198.766 183.686C198.593 183.367 198.506 182.952 198.506 182.442V178.568H200.127V182.038C200.127 182.463 200.203 182.784 200.355 183C200.508 183.216 200.75 183.324 201.083 183.324C201.413 183.324 201.671 183.25 201.859 183.101C202.047 182.949 202.178 182.727 202.253 182.437C202.33 182.143 202.369 181.785 202.369 181.363V178.568H203.99ZM212.669 178.456C213.342 178.456 213.851 178.63 214.195 178.977C214.542 179.321 214.715 179.873 214.715 180.635V184.509H213.089V181.039C213.089 180.614 213.017 180.293 212.871 180.077C212.726 179.861 212.501 179.753 212.196 179.753C211.768 179.753 211.463 179.907 211.282 180.215C211.101 180.52 211.011 180.957 211.011 181.528V184.509H209.39V181.039C209.39 180.755 209.358 180.518 209.294 180.327C209.231 180.135 209.133 179.992 209.002 179.896C208.871 179.801 208.703 179.753 208.497 179.753C208.196 179.753 207.959 179.829 207.785 179.981C207.615 180.13 207.493 180.352 207.418 180.646C207.348 180.936 207.312 181.292 207.312 181.714V184.509H205.691V178.568H206.929L207.147 179.328H207.238C207.358 179.122 207.509 178.956 207.689 178.828C207.874 178.7 208.076 178.607 208.295 178.546C208.515 178.486 208.738 178.456 208.965 178.456C209.401 178.456 209.769 178.527 210.07 178.669C210.375 178.81 210.609 179.03 210.772 179.328H210.915C211.093 179.023 211.342 178.801 211.665 178.663C211.991 178.525 212.326 178.456 212.669 178.456ZM218.834 178.456C219.383 178.456 219.856 178.562 220.253 178.775C220.65 178.984 220.957 179.289 221.173 179.689C221.389 180.089 221.497 180.578 221.497 181.156V181.942H217.665C217.683 182.399 217.819 182.759 218.074 183.021C218.333 183.28 218.691 183.409 219.148 183.409C219.527 183.409 219.874 183.37 220.19 183.292C220.505 183.214 220.829 183.097 221.162 182.942V184.196C220.868 184.341 220.56 184.447 220.237 184.515C219.918 184.582 219.531 184.616 219.073 184.616C218.478 184.616 217.95 184.506 217.49 184.286C217.033 184.067 216.673 183.732 216.411 183.282C216.152 182.832 216.023 182.265 216.023 181.581C216.023 180.887 216.14 180.309 216.374 179.848C216.611 179.384 216.94 179.037 217.362 178.807C217.784 178.573 218.274 178.456 218.834 178.456ZM218.845 179.609C218.53 179.609 218.267 179.71 218.058 179.912C217.853 180.114 217.734 180.431 217.702 180.864H219.977C219.973 180.623 219.929 180.408 219.844 180.22C219.763 180.033 219.639 179.884 219.472 179.774C219.309 179.664 219.1 179.609 218.845 179.609ZM226.19 178.456C226.824 178.456 227.334 178.63 227.72 178.977C228.107 179.321 228.3 179.873 228.3 180.635V184.509H226.679V181.039C226.679 180.614 226.601 180.293 226.445 180.077C226.293 179.861 226.052 179.753 225.722 179.753C225.226 179.753 224.888 179.921 224.707 180.258C224.526 180.594 224.436 181.08 224.436 181.714V184.509H222.815V178.568H224.053L224.271 179.328H224.362C224.489 179.122 224.647 178.956 224.835 178.828C225.026 178.7 225.237 178.607 225.467 178.546C225.701 178.486 225.942 178.456 226.19 178.456ZM232.472 183.324C232.649 183.324 232.821 183.307 232.987 183.271C233.157 183.236 233.326 183.191 233.492 183.138V184.345C233.319 184.423 233.102 184.486 232.844 184.536C232.589 184.589 232.309 184.616 232.004 184.616C231.65 184.616 231.331 184.559 231.047 184.446C230.767 184.329 230.546 184.129 230.383 183.845C230.224 183.558 230.144 183.159 230.144 182.649V179.785H229.368V179.099L230.261 178.557L230.729 177.303H231.765V178.568H233.428V179.785H231.765V182.649C231.765 182.876 231.829 183.046 231.956 183.159C232.087 183.269 232.259 183.324 232.472 183.324ZM240.098 181.528C240.098 182.024 240.031 182.463 239.896 182.846C239.765 183.229 239.572 183.553 239.317 183.818C239.065 184.081 238.761 184.279 238.403 184.414C238.049 184.548 237.648 184.616 237.202 184.616C236.784 184.616 236.399 184.548 236.048 184.414C235.701 184.279 235.398 184.081 235.14 183.818C234.885 183.553 234.686 183.229 234.544 182.846C234.406 182.463 234.337 182.024 234.337 181.528C234.337 180.869 234.454 180.311 234.688 179.854C234.922 179.397 235.255 179.049 235.687 178.812C236.119 178.575 236.635 178.456 237.234 178.456C237.79 178.456 238.282 178.575 238.711 178.812C239.143 179.049 239.482 179.397 239.726 179.854C239.974 180.311 240.098 180.869 240.098 181.528ZM235.99 181.528C235.99 181.918 236.033 182.245 236.118 182.511C236.203 182.777 236.335 182.977 236.516 183.112C236.697 183.246 236.932 183.314 237.223 183.314C237.51 183.314 237.742 183.246 237.919 183.112C238.1 182.977 238.231 182.777 238.313 182.511C238.398 182.245 238.44 181.918 238.44 181.528C238.44 181.135 238.398 180.809 238.313 180.55C238.231 180.288 238.1 180.091 237.919 179.96C237.739 179.829 237.503 179.763 237.212 179.763C236.784 179.763 236.472 179.91 236.277 180.205C236.086 180.499 235.99 180.94 235.99 181.528Z" fill="#38485C"/>
<path d="M385.856 184.509H384.235V176.739H388.688V178.089H385.856V180.093H388.492V181.438H385.856V184.509ZM392.531 178.456C393.08 178.456 393.553 178.562 393.95 178.775C394.347 178.984 394.653 179.289 394.869 179.689C395.086 180.089 395.194 180.578 395.194 181.156V181.942H391.362C391.379 182.399 391.516 182.759 391.771 183.021C392.03 183.28 392.387 183.409 392.844 183.409C393.224 183.409 393.571 183.37 393.886 183.292C394.202 183.214 394.526 183.097 394.859 182.942V184.196C394.565 184.341 394.256 184.447 393.934 184.515C393.615 184.582 393.227 184.616 392.77 184.616C392.175 184.616 391.647 184.506 391.186 184.286C390.729 184.067 390.37 183.732 390.107 183.282C389.849 182.832 389.719 182.265 389.719 181.581C389.719 180.887 389.836 180.309 390.07 179.848C390.308 179.384 390.637 179.037 391.059 178.807C391.48 178.573 391.971 178.456 392.531 178.456ZM392.542 179.609C392.226 179.609 391.964 179.71 391.755 179.912C391.549 180.114 391.431 180.431 391.399 180.864H393.674C393.67 180.623 393.626 180.408 393.541 180.22C393.459 180.033 393.335 179.884 393.169 179.774C393.006 179.664 392.797 179.609 392.542 179.609ZM398.924 184.616C398.336 184.616 397.835 184.509 397.42 184.297C397.006 184.081 396.691 183.748 396.474 183.298C396.258 182.848 396.15 182.272 396.15 181.57C396.15 180.844 396.272 180.252 396.517 179.795C396.765 179.335 397.107 178.996 397.543 178.78C397.982 178.564 398.49 178.456 399.068 178.456C399.479 178.456 399.833 178.497 400.131 178.578C400.432 178.656 400.694 178.75 400.917 178.86L400.439 180.114C400.184 180.011 399.947 179.928 399.727 179.864C399.507 179.797 399.288 179.763 399.068 179.763C398.785 179.763 398.549 179.831 398.361 179.965C398.173 180.096 398.033 180.295 397.941 180.561C397.849 180.826 397.803 181.159 397.803 181.56C397.803 181.953 397.853 182.279 397.952 182.538C398.051 182.796 398.195 182.989 398.382 183.117C398.57 183.241 398.799 183.303 399.068 183.303C399.405 183.303 399.704 183.259 399.966 183.17C400.228 183.078 400.483 182.95 400.731 182.787V184.175C400.483 184.33 400.223 184.442 399.95 184.509C399.681 184.58 399.339 184.616 398.924 184.616ZM403.734 176.24V177.925C403.734 178.219 403.724 178.499 403.702 178.764C403.685 179.03 403.67 179.218 403.66 179.328H403.745C403.872 179.122 404.023 178.956 404.197 178.828C404.374 178.7 404.569 178.607 404.781 178.546C404.994 178.486 405.222 178.456 405.467 178.456C405.896 178.456 406.269 178.532 406.588 178.685C406.907 178.833 407.155 179.069 407.332 179.391C407.509 179.71 407.598 180.125 407.598 180.635V184.509H405.977V181.039C405.977 180.614 405.899 180.293 405.743 180.077C405.587 179.861 405.346 179.753 405.02 179.753C404.694 179.753 404.438 179.829 404.25 179.981C404.062 180.13 403.929 180.352 403.851 180.646C403.773 180.936 403.734 181.292 403.734 181.714V184.509H402.113V176.24H403.734ZM411.701 178.445C412.498 178.445 413.109 178.619 413.534 178.966C413.96 179.313 414.172 179.841 414.172 180.55V184.509H413.04L412.727 183.702H412.684C412.514 183.914 412.34 184.088 412.163 184.222C411.986 184.357 411.782 184.456 411.552 184.52C411.322 184.584 411.042 184.616 410.712 184.616C410.362 184.616 410.046 184.548 409.766 184.414C409.49 184.279 409.272 184.074 409.113 183.797C408.953 183.517 408.874 183.163 408.874 182.734C408.874 182.104 409.095 181.639 409.538 181.342C409.981 181.041 410.645 180.874 411.531 180.842L412.562 180.81V180.55C412.562 180.238 412.48 180.01 412.317 179.864C412.154 179.719 411.928 179.646 411.637 179.646C411.35 179.646 411.068 179.687 410.792 179.769C410.516 179.85 410.239 179.953 409.963 180.077L409.426 178.982C409.742 178.816 410.094 178.685 410.484 178.589C410.877 178.493 411.283 178.445 411.701 178.445ZM412.562 181.756L411.935 181.778C411.41 181.792 411.045 181.886 410.84 182.059C410.638 182.233 410.537 182.461 410.537 182.745C410.537 182.993 410.61 183.17 410.755 183.276C410.9 183.379 411.09 183.431 411.324 183.431C411.671 183.431 411.963 183.328 412.201 183.122C412.441 182.917 412.562 182.624 412.562 182.245V181.756ZM420.555 184.616C419.893 184.616 419.352 184.357 418.934 183.84C418.52 183.319 418.312 182.555 418.312 181.549C418.312 180.532 418.523 179.763 418.945 179.243C419.366 178.718 419.917 178.456 420.598 178.456C420.881 178.456 421.131 178.495 421.347 178.573C421.563 178.651 421.749 178.755 421.905 178.886C422.065 179.018 422.199 179.165 422.309 179.328H422.362C422.341 179.214 422.314 179.048 422.282 178.828C422.254 178.605 422.24 178.376 422.24 178.142V176.24H423.866V184.509H422.623L422.309 183.739H422.24C422.137 183.902 422.008 184.051 421.852 184.185C421.7 184.316 421.517 184.421 421.305 184.499C421.092 184.577 420.842 184.616 420.555 184.616ZM421.124 183.324C421.567 183.324 421.879 183.193 422.059 182.931C422.243 182.665 422.341 182.267 422.352 181.735V181.56C422.352 180.982 422.263 180.541 422.086 180.236C421.909 179.928 421.579 179.774 421.097 179.774C420.739 179.774 420.459 179.928 420.258 180.236C420.056 180.545 419.955 180.989 419.955 181.57C419.955 182.151 420.056 182.589 420.258 182.883C420.463 183.177 420.752 183.324 421.124 183.324ZM428.012 178.456C428.561 178.456 429.034 178.562 429.431 178.775C429.827 178.984 430.134 179.289 430.35 179.689C430.566 180.089 430.674 180.578 430.674 181.156V181.942H426.842C426.86 182.399 426.997 182.759 427.252 183.021C427.51 183.28 427.868 183.409 428.325 183.409C428.704 183.409 429.052 183.37 429.367 183.292C429.682 183.214 430.006 183.097 430.339 182.942V184.196C430.045 184.341 429.737 184.447 429.415 184.515C429.096 184.582 428.708 184.616 428.251 184.616C427.656 184.616 427.128 184.506 426.667 184.286C426.21 184.067 425.85 183.732 425.588 183.282C425.33 182.832 425.2 182.265 425.2 181.581C425.2 180.887 425.317 180.309 425.551 179.848C425.788 179.384 426.118 179.037 426.539 178.807C426.961 178.573 427.452 178.456 428.012 178.456ZM428.022 179.609C427.707 179.609 427.445 179.71 427.236 179.912C427.03 180.114 426.911 180.431 426.88 180.864H429.154C429.151 180.623 429.106 180.408 429.021 180.22C428.94 180.033 428.816 179.884 428.649 179.774C428.486 179.664 428.277 179.609 428.022 179.609ZM437.233 184.616C436.644 184.616 436.143 184.509 435.729 184.297C435.314 184.081 434.999 183.748 434.783 183.298C434.566 182.848 434.458 182.272 434.458 181.57C434.458 180.844 434.581 180.252 434.825 179.795C435.073 179.335 435.415 178.996 435.851 178.78C436.29 178.564 436.799 178.456 437.376 178.456C437.787 178.456 438.141 178.497 438.439 178.578C438.74 178.656 439.002 178.75 439.226 178.86L438.747 180.114C438.492 180.011 438.255 179.928 438.035 179.864C437.815 179.797 437.596 179.763 437.376 179.763C437.093 179.763 436.857 179.831 436.669 179.965C436.481 180.096 436.341 180.295 436.249 180.561C436.157 180.826 436.111 181.159 436.111 181.56C436.111 181.953 436.161 182.279 436.26 182.538C436.359 182.796 436.503 182.989 436.69 183.117C436.878 183.241 437.107 183.303 437.376 183.303C437.713 183.303 438.012 183.259 438.274 183.17C438.536 183.078 438.792 182.95 439.04 182.787V184.175C438.792 184.33 438.531 184.442 438.258 184.509C437.989 184.58 437.647 184.616 437.233 184.616ZM443.738 178.456C443.819 178.456 443.913 178.461 444.019 178.472C444.129 178.479 444.218 178.49 444.285 178.504L444.163 180.024C444.11 180.006 444.034 179.994 443.934 179.987C443.839 179.976 443.755 179.971 443.685 179.971C443.476 179.971 443.272 179.997 443.073 180.05C442.879 180.104 442.703 180.19 442.547 180.311C442.391 180.428 442.267 180.584 442.175 180.779C442.087 180.97 442.042 181.205 442.042 181.485V184.509H440.421V178.568H441.649L441.888 179.567H441.968C442.085 179.365 442.23 179.181 442.404 179.014C442.581 178.844 442.781 178.709 443.004 178.61C443.231 178.507 443.476 178.456 443.738 178.456ZM447.814 178.456C448.363 178.456 448.836 178.562 449.233 178.775C449.63 178.984 449.936 179.289 450.153 179.689C450.369 180.089 450.477 180.578 450.477 181.156V181.942H446.645C446.663 182.399 446.799 182.759 447.054 183.021C447.313 183.28 447.671 183.409 448.128 183.409C448.507 183.409 448.854 183.37 449.169 183.292C449.485 183.214 449.809 183.097 450.142 182.942V184.196C449.848 184.341 449.54 184.447 449.217 184.515C448.898 184.582 448.51 184.616 448.053 184.616C447.458 184.616 446.93 184.506 446.469 184.286C446.012 184.067 445.653 183.732 445.391 183.282C445.132 182.832 445.003 182.265 445.003 181.581C445.003 180.887 445.12 180.309 445.353 179.848C445.591 179.384 445.92 179.037 446.342 178.807C446.764 178.573 447.254 178.456 447.814 178.456ZM447.825 179.609C447.509 179.609 447.247 179.71 447.038 179.912C446.833 180.114 446.714 180.431 446.682 180.864H448.957C448.953 180.623 448.909 180.408 448.824 180.22C448.742 180.033 448.618 179.884 448.452 179.774C448.289 179.664 448.08 179.609 447.825 179.609ZM454.229 178.445C455.026 178.445 455.637 178.619 456.062 178.966C456.488 179.313 456.7 179.841 456.7 180.55V184.509H455.568L455.255 183.702H455.212C455.042 183.914 454.868 184.088 454.691 184.222C454.514 184.357 454.31 184.456 454.08 184.52C453.85 184.584 453.57 184.616 453.24 184.616C452.89 184.616 452.574 184.548 452.294 184.414C452.018 184.279 451.8 184.074 451.641 183.797C451.481 183.517 451.401 183.163 451.401 182.734C451.401 182.104 451.623 181.639 452.066 181.342C452.509 181.041 453.173 180.874 454.059 180.842L455.09 180.81V180.55C455.09 180.238 455.008 180.01 454.845 179.864C454.682 179.719 454.456 179.646 454.165 179.646C453.878 179.646 453.596 179.687 453.32 179.769C453.044 179.85 452.767 179.953 452.491 180.077L451.954 178.982C452.27 178.816 452.622 178.685 453.012 178.589C453.405 178.493 453.811 178.445 454.229 178.445ZM455.09 181.756L454.463 181.778C453.938 181.792 453.573 181.886 453.368 182.059C453.166 182.233 453.065 182.461 453.065 182.745C453.065 182.993 453.138 183.17 453.283 183.276C453.428 183.379 453.618 183.431 453.852 183.431C454.199 183.431 454.491 183.328 454.728 183.122C454.969 182.917 455.09 182.624 455.09 182.245V181.756ZM460.787 184.616C460.199 184.616 459.698 184.509 459.283 184.297C458.869 184.081 458.553 183.748 458.337 183.298C458.121 182.848 458.013 182.272 458.013 181.57C458.013 180.844 458.135 180.252 458.38 179.795C458.628 179.335 458.97 178.996 459.405 178.78C459.845 178.564 460.353 178.456 460.931 178.456C461.342 178.456 461.696 178.497 461.994 178.578C462.295 178.656 462.557 178.75 462.78 178.86L462.302 180.114C462.047 180.011 461.809 179.928 461.59 179.864C461.37 179.797 461.15 179.763 460.931 179.763C460.647 179.763 460.412 179.831 460.224 179.965C460.036 180.096 459.896 180.295 459.804 180.561C459.712 180.826 459.666 181.159 459.666 181.56C459.666 181.953 459.715 182.279 459.815 182.538C459.914 182.796 460.057 182.989 460.245 183.117C460.433 183.241 460.661 183.303 460.931 183.303C461.267 183.303 461.567 183.259 461.829 183.17C462.091 183.078 462.346 182.95 462.594 182.787V184.175C462.346 184.33 462.086 184.442 461.813 184.509C461.544 184.58 461.202 184.616 460.787 184.616ZM465.597 178.568V184.509H463.976V178.568H465.597ZM464.789 176.24C465.03 176.24 465.237 176.296 465.411 176.41C465.585 176.52 465.671 176.727 465.671 177.032C465.671 177.333 465.585 177.542 465.411 177.659C465.237 177.772 465.03 177.829 464.789 177.829C464.545 177.829 464.336 177.772 464.162 177.659C463.992 177.542 463.907 177.333 463.907 177.032C463.907 176.727 463.992 176.52 464.162 176.41C464.336 176.296 464.545 176.24 464.789 176.24ZM472.703 181.528C472.703 182.024 472.635 182.463 472.501 182.846C472.37 183.229 472.177 183.553 471.921 183.818C471.67 184.081 471.365 184.279 471.007 184.414C470.653 184.548 470.253 184.616 469.806 184.616C469.388 184.616 469.004 184.548 468.653 184.414C468.306 184.279 468.003 184.081 467.744 183.818C467.489 183.553 467.291 183.229 467.149 182.846C467.011 182.463 466.942 182.024 466.942 181.528C466.942 180.869 467.058 180.311 467.292 179.854C467.526 179.397 467.859 179.049 468.291 178.812C468.724 178.575 469.239 178.456 469.838 178.456C470.394 178.456 470.887 178.575 471.316 178.812C471.748 179.049 472.086 179.397 472.331 179.854C472.579 180.311 472.703 180.869 472.703 181.528ZM468.594 181.528C468.594 181.918 468.637 182.245 468.722 182.511C468.807 182.777 468.94 182.977 469.121 183.112C469.301 183.246 469.537 183.314 469.827 183.314C470.114 183.314 470.346 183.246 470.524 183.112C470.704 182.977 470.835 182.777 470.917 182.511C471.002 182.245 471.044 181.918 471.044 181.528C471.044 181.135 471.002 180.809 470.917 180.55C470.835 180.288 470.704 180.091 470.524 179.96C470.343 179.829 470.107 179.763 469.817 179.763C469.388 179.763 469.076 179.91 468.881 180.205C468.69 180.499 468.594 180.94 468.594 181.528ZM471.916 176.171V176.282C471.813 176.382 471.679 176.504 471.512 176.649C471.346 176.794 471.167 176.947 470.975 177.106C470.784 177.262 470.596 177.413 470.412 177.558C470.228 177.7 470.067 177.818 469.928 177.914H468.85V177.77C468.966 177.636 469.101 177.476 469.253 177.292C469.409 177.104 469.563 176.911 469.716 176.713C469.868 176.514 469.996 176.334 470.098 176.171H471.916ZM477.417 178.456C478.051 178.456 478.561 178.63 478.947 178.977C479.334 179.321 479.527 179.873 479.527 180.635V184.509H477.906V181.039C477.906 180.614 477.828 180.293 477.672 180.077C477.52 179.861 477.279 179.753 476.949 179.753C476.453 179.753 476.115 179.921 475.934 180.258C475.753 180.594 475.663 181.08 475.663 181.714V184.509H474.042V178.568H475.28L475.498 179.328H475.589C475.716 179.122 475.874 178.956 476.062 178.828C476.253 178.7 476.464 178.607 476.694 178.546C476.928 178.486 477.169 178.456 477.417 178.456Z" fill="#38485C"/>
<path d="M487.939 177.022L489.927 175.035C490.226 174.735 490.71 174.735 491.009 175.035L492.997 177.022C493.48 177.506 493.135 178.335 492.452 178.335H488.476C487.793 178.335 487.455 177.506 487.939 177.022Z" fill="#505E70"/>
<path d="M492.995 182.996L491.007 184.984C490.707 185.284 490.224 185.284 489.925 184.984L487.937 182.996C487.453 182.513 487.799 181.684 488.482 181.684L492.457 181.684C493.14 181.684 493.478 182.513 492.995 182.996Z" fill="#505E70"/>
<g clip-path="url(#clip1_1484_8840)">
<mask id="path-16-inside-1_1484_8840" fill="white">
<path d="M163.894 196.755H564.106V230.245H163.894V196.755Z"/>
</mask>
<rect width="205.967" height="33.4906" transform="translate(163.894 196.755)" fill="white"/>
<rect x="177.29" y="205.546" width="182.524" height="15.908" rx="6.69811" fill="#E6EBF0"/>
<rect width="127.264" height="33.4906" transform="translate(369.861 196.755)" fill="white"/>
<rect x="383.257" y="205.546" width="60.283" height="15.908" rx="6.69811" fill="#E6EBF0"/>
<rect width="33.4906" height="33.4906" transform="translate(497.125 196.755)" fill="white"/>
<path d="M517.219 209.102L517.219 217.961C517.219 219.71 515.938 221.268 514.197 221.435C512.196 221.628 510.521 220.062 510.521 218.103L510.521 207.754C510.521 206.657 511.308 205.661 512.397 205.552C513.652 205.427 514.707 206.406 514.707 207.637L514.707 216.428C514.707 216.889 514.331 217.266 513.87 217.266C513.41 217.266 513.033 216.889 513.033 216.428L513.033 209.102C513.033 208.759 512.748 208.474 512.405 208.474C512.062 208.474 511.777 208.759 511.777 209.102L511.777 216.311C511.777 217.408 512.564 218.404 513.652 218.513C514.908 218.639 515.963 217.659 515.963 216.428L515.963 207.779C515.963 206.03 514.682 204.472 512.941 204.305C510.948 204.112 509.265 205.678 509.265 207.637L509.265 217.91C509.265 220.313 511.023 222.465 513.418 222.691C516.173 222.942 518.475 220.799 518.475 218.103L518.475 209.102C518.475 208.759 518.19 208.474 517.847 208.474C517.504 208.474 517.219 208.759 517.219 209.102Z" fill="#505E70"/>
<rect width="33.4906" height="33.4906" transform="translate(530.615 196.755)" fill="white"/>
<path d="M551.204 211.407H549.873V207.22C549.873 206.76 549.496 206.383 549.035 206.383H545.686C545.226 206.383 544.849 206.76 544.849 207.22V211.407H543.518C542.773 211.407 542.396 212.311 542.923 212.838L546.766 216.682C547.093 217.008 547.62 217.008 547.947 216.682L551.79 212.838C552.317 212.311 551.949 211.407 551.204 211.407ZM541.5 219.779C541.5 220.24 541.877 220.617 542.337 220.617H552.384C552.845 220.617 553.222 220.24 553.222 219.779C553.222 219.319 552.845 218.942 552.384 218.942H542.337C541.877 218.942 541.5 219.319 541.5 219.779Z" fill="#505E70"/>
</g>
<path d="M564.106 229.408H163.894V231.082H564.106V229.408Z" fill="#D1D8E0" mask="url(#path-16-inside-1_1484_8840)"/>
<path d="M163.894 230.245H369.861V263.736H170.592C166.892 263.736 163.894 260.737 163.894 257.038V230.245Z" fill="white"/>
<rect x="177.29" y="239.036" width="182.524" height="15.908" rx="6.69811" fill="#E6EBF0"/>
<rect width="127.264" height="33.4906" transform="translate(369.861 230.245)" fill="white"/>
<rect x="383.257" y="239.036" width="60.283" height="15.908" rx="6.69811" fill="#E6EBF0"/>
<rect width="33.4906" height="33.4906" transform="translate(497.125 230.245)" fill="white"/>
<path d="M517.219 242.593L517.219 251.451C517.219 253.201 515.938 254.758 514.197 254.926C512.196 255.118 510.521 253.553 510.521 251.594L510.521 241.245C510.521 240.148 511.308 239.152 512.397 239.043C513.652 238.917 514.707 239.897 514.707 241.128L514.707 249.919C514.707 250.38 514.331 250.756 513.87 250.756C513.41 250.756 513.033 250.38 513.033 249.919L513.033 242.593C513.033 242.25 512.748 241.965 512.405 241.965C512.062 241.965 511.777 242.25 511.777 242.593L511.777 249.802C511.777 250.899 512.564 251.895 513.652 252.004C514.908 252.129 515.963 251.15 515.963 249.919L515.963 241.27C515.963 239.52 514.682 237.963 512.941 237.795C510.948 237.603 509.265 239.169 509.265 241.128L509.265 251.401C509.265 253.804 511.023 255.956 513.418 256.182C516.173 256.433 518.475 254.29 518.475 251.594L518.475 242.593C518.475 242.25 518.19 241.965 517.847 241.965C517.504 241.965 517.219 242.25 517.219 242.593Z" fill="#505E70"/>
<path d="M530.615 230.245H564.106V257.038C564.106 260.737 561.107 263.736 557.408 263.736H530.615V230.245Z" fill="white"/>
<path d="M551.204 244.897H549.873V240.711C549.873 240.251 549.496 239.874 549.035 239.874H545.686C545.226 239.874 544.849 240.251 544.849 240.711V244.897H543.518C542.773 244.897 542.396 245.802 542.923 246.329L546.766 250.172C547.093 250.499 547.62 250.499 547.947 250.172L551.79 246.329C552.317 245.802 551.949 244.897 551.204 244.897ZM541.5 253.27C541.5 253.731 541.877 254.107 542.337 254.107H552.384C552.845 254.107 553.222 253.731 553.222 253.27C553.222 252.81 552.845 252.433 552.384 252.433H542.337C541.877 252.433 541.5 252.81 541.5 253.27Z" fill="#505E70"/>
</g>
<rect x="164.312" y="163.683" width="399.375" height="99.6344" rx="6.27948" stroke="#D1D8E0" stroke-width="0.837264"/>
<rect x="163.894" y="277.132" width="400.212" height="40.1887" rx="6.69811" fill="#F3F6F9"/>
<path d="M182.313 288.854C181.392 288.854 180.647 289.607 180.647 290.528L180.639 303.925C180.639 304.846 181.384 305.599 182.305 305.599H192.36C193.281 305.599 194.035 304.846 194.035 303.925V294.572C194.035 294.129 193.859 293.702 193.541 293.392L189.497 289.348C189.187 289.03 188.76 288.854 188.316 288.854H182.313ZM188.174 293.877V290.11L192.779 294.715H189.011C188.551 294.715 188.174 294.338 188.174 293.877Z" fill="#505E70"/>
<rect x="204.082" y="289.272" width="182.524" height="15.908" rx="6.69811" fill="#B8C1CC"/>
<path d="M393.74 298.745C393.74 298.146 393.796 297.563 393.91 296.996C394.027 296.429 394.204 295.889 394.441 295.375C394.678 294.862 394.978 294.389 395.339 293.956H396.184C395.671 294.63 395.284 295.377 395.026 296.199C394.767 297.021 394.638 297.866 394.638 298.734C394.638 299.301 394.694 299.861 394.808 300.414C394.925 300.963 395.097 301.493 395.323 302.003C395.554 302.513 395.837 302.995 396.174 303.448H395.339C394.978 303.023 394.678 302.559 394.441 302.056C394.204 301.556 394.027 301.027 393.91 300.467C393.796 299.907 393.74 299.333 393.74 298.745ZM400.335 301.726H399.474V296.22C399.474 296.011 399.474 295.832 399.474 295.684C399.478 295.531 399.481 295.393 399.485 295.269C399.492 295.142 399.501 295.012 399.511 294.881C399.401 294.995 399.299 295.092 399.203 295.173C399.107 295.251 398.989 295.349 398.847 295.466L397.959 296.178L397.497 295.577L399.602 293.956H400.335V301.726ZM407.223 301.726L404.613 294.849H404.571C404.585 294.995 404.597 295.172 404.608 295.381C404.619 295.59 404.627 295.818 404.635 296.066C404.642 296.311 404.645 296.561 404.645 296.816V301.726H403.805V293.956H405.145L407.605 300.419H407.643L410.141 293.956H411.469V301.726H410.576V296.752C410.576 296.522 410.58 296.291 410.587 296.061C410.594 295.827 410.603 295.607 410.614 295.402C410.624 295.193 410.635 295.012 410.645 294.86H410.603L407.962 301.726H407.223ZM413.595 293.956H415.795C416.766 293.956 417.496 294.102 417.985 294.392C418.474 294.683 418.718 295.177 418.718 295.875C418.718 296.176 418.66 296.447 418.543 296.688C418.43 296.926 418.263 297.122 418.043 297.278C417.824 297.434 417.553 297.542 417.23 297.602V297.655C417.57 297.709 417.872 297.806 418.134 297.948C418.396 298.089 418.602 298.288 418.75 298.543C418.899 298.798 418.974 299.122 418.974 299.516C418.974 299.994 418.862 300.398 418.639 300.727C418.419 301.057 418.107 301.307 417.703 301.477C417.299 301.643 416.821 301.726 416.268 301.726H413.595V293.956ZM414.499 297.289H415.987C416.663 297.289 417.131 297.177 417.39 296.954C417.652 296.731 417.783 296.405 417.783 295.976C417.783 295.533 417.627 295.214 417.315 295.019C417.007 294.824 416.515 294.727 415.838 294.727H414.499V297.289ZM414.499 298.049V300.956H416.114C416.805 300.956 417.294 300.821 417.581 300.552C417.868 300.279 418.012 299.912 418.012 299.452C418.012 299.158 417.946 298.906 417.815 298.697C417.687 298.488 417.478 298.329 417.188 298.219C416.901 298.105 416.516 298.049 416.035 298.049H414.499ZM422.343 298.734C422.343 299.326 422.285 299.904 422.168 300.467C422.054 301.027 421.879 301.558 421.642 302.061C421.408 302.564 421.108 303.027 420.743 303.448H419.909C420.249 302.998 420.533 302.517 420.759 302.003C420.99 301.489 421.161 300.958 421.275 300.408C421.392 299.856 421.45 299.296 421.45 298.729C421.45 298.151 421.392 297.583 421.275 297.023C421.158 296.463 420.984 295.925 420.754 295.407C420.527 294.89 420.242 294.406 419.898 293.956H420.743C421.108 294.392 421.408 294.867 421.642 295.381C421.879 295.891 422.054 296.429 422.168 296.996C422.285 297.56 422.343 298.139 422.343 298.734Z" fill="#505E70"/>
<path fill-rule="evenodd" clip-rule="evenodd" d="M545.313 306.528C549.731 306.528 553.313 302.947 553.313 298.528C553.313 294.11 549.731 290.528 545.313 290.528C540.895 290.528 537.313 294.11 537.313 298.528C537.313 302.947 540.895 306.528 545.313 306.528ZM545.313 304.528C548.627 304.528 551.313 301.842 551.313 298.528C551.313 295.215 548.627 292.528 545.313 292.528C541.999 292.528 539.313 295.215 539.313 298.528C539.313 301.842 541.999 304.528 545.313 304.528Z" fill="#D1D8E0"/>
<path fill-rule="evenodd" clip-rule="evenodd" d="M551.965 294.084C552.844 295.399 553.313 296.946 553.313 298.528C553.313 299.081 552.865 299.528 552.313 299.528C551.761 299.528 551.313 299.081 551.313 298.528C551.313 298.528 551.313 298.527 551.313 298.527C551.312 295.214 548.626 292.528 545.313 292.528C541.999 292.528 539.313 295.215 539.313 298.528C539.313 301.842 541.999 304.528 545.313 304.528C545.865 304.528 546.313 304.976 546.313 305.528C546.313 306.081 545.865 306.528 545.313 306.528C543.731 306.528 542.184 306.059 540.868 305.18C539.553 304.301 538.527 303.052 537.922 301.59C537.316 300.128 537.158 298.519 537.467 296.968C537.775 295.416 538.537 293.99 539.656 292.871C540.775 291.753 542.2 290.991 543.752 290.682C545.304 290.373 546.913 290.532 548.374 291.137C549.836 291.743 551.086 292.768 551.965 294.084Z" fill="#336ACC"/>
<rect x="475.313" y="337.415" width="88.7924" height="33.4906" rx="6.69811" fill="#E6EBF0"/>
<path d="M489.975 358.781C489.734 358.781 489.538 358.726 489.388 358.615C489.247 358.505 489.162 358.359 489.131 358.178C489.101 357.987 489.136 357.776 489.237 357.545L493.216 348.729C493.346 348.437 493.502 348.231 493.683 348.111C493.874 347.98 494.09 347.915 494.331 347.915C494.562 347.915 494.768 347.98 494.949 348.111C495.14 348.231 495.3 348.437 495.431 348.729L499.425 357.545C499.535 357.776 499.575 357.987 499.545 358.178C499.515 358.369 499.43 358.52 499.289 358.63C499.148 358.731 498.963 358.781 498.732 358.781C498.45 358.781 498.229 358.716 498.068 358.585C497.918 358.444 497.782 358.233 497.662 357.952L496.682 355.676L497.496 356.204H491.136L491.95 355.676L490.985 357.952C490.855 358.243 490.719 358.454 490.578 358.585C490.438 358.716 490.237 358.781 489.975 358.781ZM494.301 350.13L492.191 355.149L491.799 354.667H496.833L496.456 355.149L494.331 350.13H494.301ZM503.664 358.811C503.021 358.811 502.453 358.655 501.961 358.344C501.478 358.032 501.102 357.59 500.83 357.018C500.559 356.435 500.423 355.752 500.423 354.968C500.423 354.174 500.559 353.496 500.83 352.934C501.102 352.361 501.478 351.919 501.961 351.607C502.453 351.296 503.021 351.14 503.664 351.14C504.276 351.14 504.809 351.291 505.261 351.592C505.723 351.894 506.035 352.29 506.195 352.783H506.03V348.864C506.03 348.553 506.11 348.317 506.271 348.156C506.432 347.995 506.663 347.915 506.964 347.915C507.265 347.915 507.497 347.995 507.657 348.156C507.828 348.317 507.914 348.553 507.914 348.864V357.816C507.914 358.128 507.833 358.369 507.672 358.54C507.512 358.701 507.281 358.781 506.979 358.781C506.678 358.781 506.447 358.701 506.286 358.54C506.125 358.369 506.045 358.128 506.045 357.816V356.641L506.211 357.093C506.06 357.615 505.753 358.032 505.291 358.344C504.829 358.655 504.286 358.811 503.664 358.811ZM504.191 357.379C504.563 357.379 504.889 357.289 505.171 357.108C505.452 356.927 505.668 356.661 505.819 356.309C505.979 355.948 506.06 355.501 506.06 354.968C506.06 354.164 505.889 353.566 505.547 353.175C505.206 352.773 504.754 352.572 504.191 352.572C503.819 352.572 503.493 352.662 503.211 352.843C502.93 353.014 502.709 353.28 502.548 353.642C502.398 353.993 502.322 354.436 502.322 354.968C502.322 355.762 502.493 356.365 502.835 356.777C503.176 357.178 503.628 357.379 504.191 357.379ZM508.963 361.509C508.742 361.529 508.561 361.494 508.42 361.403C508.279 361.323 508.184 361.217 508.134 361.087C508.073 360.956 508.053 360.821 508.073 360.68C508.093 360.539 508.154 360.414 508.254 360.303C508.345 360.203 508.47 360.147 508.631 360.137C509.083 360.097 509.41 359.967 509.611 359.745C509.822 359.535 509.927 359.208 509.927 358.766V352.12C509.927 351.808 510.007 351.572 510.168 351.411C510.339 351.251 510.575 351.17 510.877 351.17C511.178 351.17 511.409 351.251 511.57 351.411C511.731 351.572 511.811 351.808 511.811 352.12V358.6C511.811 359.243 511.705 359.771 511.494 360.183C511.294 360.594 510.982 360.906 510.56 361.117C510.148 361.328 509.616 361.459 508.963 361.509ZM510.861 349.784C510.51 349.784 510.234 349.698 510.033 349.528C509.842 349.347 509.746 349.101 509.746 348.789C509.746 348.468 509.842 348.221 510.033 348.051C510.234 347.88 510.51 347.794 510.861 347.794C511.223 347.794 511.499 347.88 511.69 348.051C511.881 348.221 511.977 348.468 511.977 348.789C511.977 349.101 511.881 349.347 511.69 349.528C511.499 349.698 511.223 349.784 510.861 349.784ZM516.434 358.811C515.822 358.811 515.314 358.701 514.912 358.48C514.51 358.248 514.209 357.907 514.008 357.455C513.817 357.003 513.722 356.44 513.722 355.767V352.12C513.722 351.798 513.802 351.562 513.963 351.411C514.124 351.251 514.355 351.17 514.656 351.17C514.958 351.17 515.189 351.251 515.349 351.411C515.52 351.562 515.606 351.798 515.606 352.12V355.797C515.606 356.319 515.711 356.706 515.922 356.957C516.133 357.209 516.47 357.334 516.932 357.334C517.434 357.334 517.846 357.163 518.168 356.822C518.489 356.47 518.65 356.008 518.65 355.435V352.12C518.65 351.798 518.73 351.562 518.891 351.411C519.052 351.251 519.283 351.17 519.584 351.17C519.886 351.17 520.117 351.251 520.278 351.411C520.448 351.562 520.534 351.798 520.534 352.12V357.816C520.534 358.459 520.227 358.781 519.614 358.781C519.323 358.781 519.097 358.701 518.936 358.54C518.775 358.369 518.695 358.128 518.695 357.816V356.671L518.906 357.123C518.695 357.666 518.374 358.083 517.942 358.374C517.52 358.665 517.017 358.811 516.434 358.811ZM523.429 358.781C523.127 358.781 522.896 358.701 522.736 358.54C522.575 358.369 522.494 358.128 522.494 357.816V352.12C522.494 351.808 522.575 351.572 522.736 351.411C522.896 351.251 523.122 351.17 523.414 351.17C523.705 351.17 523.931 351.251 524.092 351.411C524.253 351.572 524.333 351.808 524.333 352.12V353.145L524.167 352.768C524.388 352.235 524.73 351.833 525.192 351.562C525.664 351.281 526.197 351.14 526.79 351.14C527.382 351.14 527.87 351.251 528.251 351.472C528.633 351.693 528.92 352.029 529.111 352.481C529.301 352.923 529.397 353.486 529.397 354.169V357.816C529.397 358.128 529.316 358.369 529.156 358.54C528.995 358.701 528.764 358.781 528.462 358.781C528.161 358.781 527.925 358.701 527.754 358.54C527.593 358.369 527.513 358.128 527.513 357.816V354.26C527.513 353.687 527.402 353.27 527.181 353.009C526.97 352.748 526.639 352.617 526.187 352.617C525.634 352.617 525.192 352.793 524.861 353.145C524.539 353.486 524.378 353.943 524.378 354.516V357.816C524.378 358.459 524.062 358.781 523.429 358.781ZM534.686 358.811C534.033 358.811 533.485 358.701 533.043 358.48C532.611 358.259 532.29 357.937 532.079 357.515C531.868 357.083 531.762 356.55 531.762 355.918V352.707H530.979C530.738 352.707 530.552 352.647 530.421 352.527C530.29 352.396 530.225 352.22 530.225 351.999C530.225 351.768 530.29 351.592 530.421 351.472C530.552 351.351 530.738 351.291 530.979 351.291H531.762V349.919C531.762 349.608 531.843 349.372 532.004 349.211C532.174 349.05 532.41 348.97 532.712 348.97C533.013 348.97 533.244 349.05 533.405 349.211C533.566 349.372 533.646 349.608 533.646 349.919V351.291H535.244C535.485 351.291 535.671 351.351 535.801 351.472C535.932 351.592 535.997 351.768 535.997 351.999C535.997 352.22 535.932 352.396 535.801 352.527C535.671 352.647 535.485 352.707 535.244 352.707H533.646V355.812C533.646 356.294 533.752 356.656 533.963 356.897C534.174 357.138 534.515 357.259 534.988 357.259C535.158 357.259 535.309 357.244 535.44 357.214C535.57 357.183 535.686 357.163 535.786 357.153C535.907 357.143 536.007 357.183 536.088 357.274C536.168 357.354 536.208 357.525 536.208 357.786C536.208 357.987 536.173 358.168 536.103 358.329C536.042 358.48 535.927 358.585 535.756 358.645C535.626 358.686 535.455 358.721 535.244 358.751C535.033 358.791 534.847 358.811 534.686 358.811ZM539.521 358.811C538.988 358.811 538.511 358.711 538.089 358.51C537.677 358.299 537.35 358.017 537.109 357.666C536.878 357.314 536.763 356.917 536.763 356.475C536.763 355.933 536.903 355.506 537.185 355.194C537.466 354.873 537.923 354.642 538.556 354.501C539.189 354.36 540.038 354.29 541.103 354.29H541.857V355.375H541.118C540.495 355.375 539.998 355.405 539.626 355.465C539.254 355.526 538.988 355.631 538.827 355.782C538.677 355.923 538.601 356.123 538.601 356.385C538.601 356.716 538.717 356.988 538.948 357.199C539.179 357.41 539.501 357.515 539.912 357.515C540.244 357.515 540.535 357.44 540.787 357.289C541.048 357.128 541.254 356.912 541.404 356.641C541.555 356.37 541.631 356.058 541.631 355.707V353.973C541.631 353.471 541.52 353.109 541.299 352.888C541.078 352.667 540.706 352.557 540.184 352.557C539.892 352.557 539.576 352.592 539.234 352.662C538.903 352.733 538.551 352.853 538.179 353.024C537.988 353.114 537.818 353.139 537.667 353.099C537.526 353.059 537.416 352.979 537.335 352.858C537.255 352.728 537.215 352.587 537.215 352.436C537.215 352.285 537.255 352.14 537.335 351.999C537.416 351.848 537.551 351.738 537.742 351.668C538.204 351.477 538.647 351.341 539.069 351.261C539.501 351.18 539.892 351.14 540.244 351.14C540.967 351.14 541.56 351.251 542.022 351.472C542.495 351.693 542.846 352.029 543.077 352.481C543.308 352.923 543.424 353.496 543.424 354.199V357.816C543.424 358.128 543.349 358.369 543.198 358.54C543.047 358.701 542.831 358.781 542.55 358.781C542.269 358.781 542.048 358.701 541.887 358.54C541.736 358.369 541.661 358.128 541.661 357.816V357.093H541.781C541.711 357.445 541.57 357.751 541.359 358.012C541.158 358.264 540.902 358.459 540.591 358.6C540.279 358.741 539.923 358.811 539.521 358.811ZM546.301 358.781C545.989 358.781 545.748 358.701 545.577 358.54C545.416 358.369 545.336 358.128 545.336 357.816V352.12C545.336 351.808 545.416 351.572 545.577 351.411C545.738 351.251 545.964 351.17 546.255 351.17C546.547 351.17 546.773 351.251 546.934 351.411C547.094 351.572 547.175 351.808 547.175 352.12V353.069H547.024C547.165 352.466 547.441 352.009 547.853 351.698C548.265 351.386 548.812 351.2 549.496 351.14C549.707 351.12 549.872 351.175 549.993 351.306C550.124 351.426 550.199 351.617 550.219 351.879C550.239 352.13 550.179 352.336 550.038 352.496C549.908 352.647 549.707 352.738 549.435 352.768L549.104 352.798C548.491 352.858 548.029 353.049 547.717 353.371C547.406 353.682 547.25 354.124 547.25 354.697V357.816C547.25 358.128 547.17 358.369 547.009 358.54C546.848 358.701 546.612 358.781 546.301 358.781Z" fill="#9EAAB8"/>
<defs>
<clipPath id="clip0_1484_8840">
<rect x="163.894" y="163.264" width="400.212" height="100.472" rx="6.69811" fill="white"/>
</clipPath>
<clipPath id="clip1_1484_8840">
<path d="M163.894 196.755H564.106V230.245H163.894V196.755Z" fill="white"/>
</clipPath>
</defs>
</svg>
