<svg width="728" height="299" viewBox="0 0 728 299" fill="none" xmlns="http://www.w3.org/2000/svg">
<g clip-path="url(#clip0_1493_2084)">
<rect width="728" height="299" rx="8" fill="#F3F6F9"/>
<g clip-path="url(#clip1_1493_2084)">
<rect x="50" y="-4" width="629.205" height="312.719" fill="white"/>
<rect width="629.179" height="84.0063" transform="translate(50 -44.678)" fill="#F3F6F9"/>
<rect x="109.732" y="-4.4751" width="341.972" height="11.9464" rx="5.97321" fill="#D1D8E0"/>
<rect x="109.732" y="11.4534" width="284.723" height="11.9464" rx="5.97321" fill="#D1D8E0"/>
<rect x="110.597" y="64.1939" width="160.936" height="85.6457" rx="6.05677" fill="white"/>
<rect x="110.597" y="64.1939" width="160.936" height="85.6457" rx="6.05677" stroke="#E6EBF0" stroke-width="1.73051"/>
<rect x="120.115" y="73.7117" width="32" height="32" rx="3.97648" fill="#F3F6F9"/>
<path fill-rule="evenodd" clip-rule="evenodd" d="M135.425 94.8496C138.421 94.8496 140.85 92.4208 140.85 89.4248C140.85 86.4288 138.421 84 135.425 84C132.429 84 130 86.4288 130 89.4248C130 92.4208 132.429 94.8496 135.425 94.8496ZM135.425 93.4934C137.672 93.4934 139.493 91.6718 139.493 89.4248C139.493 87.1778 137.672 85.3562 135.425 85.3562C133.178 85.3562 131.356 87.1778 131.356 89.4248C131.356 91.6718 133.178 93.4934 135.425 93.4934Z" fill="#D1D8E0"/>
<path fill-rule="evenodd" clip-rule="evenodd" d="M139.935 86.4109C140.531 87.303 140.85 88.3519 140.85 89.4248C140.85 89.7993 140.546 90.1029 140.172 90.1029C139.797 90.1029 139.493 89.7993 139.493 89.4248C139.493 87.1778 137.672 85.3562 135.425 85.3562C133.178 85.3562 131.356 87.1778 131.356 89.4248C131.356 91.6718 133.178 93.4934 135.425 93.4934C135.799 93.4934 136.103 93.797 136.103 94.1715C136.103 94.546 135.799 94.8496 135.425 94.8496C134.352 94.8496 133.303 94.5314 132.411 93.9354C131.519 93.3393 130.824 92.492 130.413 91.5008C130.002 90.5095 129.895 89.4188 130.104 88.3665C130.314 87.3142 130.83 86.3476 131.589 85.5889C132.348 84.8302 133.314 84.3136 134.366 84.1042C135.419 83.8949 136.51 84.0024 137.501 84.4129C138.492 84.8235 139.339 85.5188 139.935 86.4109Z" fill="#336ACC"/>
<rect x="120.115" y="116.095" width="68.3458" height="10.383" rx="5.19152" fill="#B8C1CC"/>
<rect x="120.115" y="129.939" width="140.171" height="10.383" rx="5.19152" fill="#D1D8E0"/>
<rect x="284.264" y="64.1939" width="160.936" height="85.6457" rx="6.05677" fill="white"/>
<rect x="284.264" y="64.1939" width="160.936" height="85.6457" rx="6.05677" stroke="#E6EBF0" stroke-width="1.73051"/>
<rect x="293.781" y="73.7117" width="32" height="32" rx="3.97648" fill="#F3F6F9"/>
<rect x="293.781" y="116.095" width="68.3458" height="10.383" rx="5.19152" fill="#B8C1CC"/>
<rect x="293.781" y="129.939" width="140.171" height="10.383" rx="5.19152" fill="#D1D8E0"/>
<path fill-rule="evenodd" clip-rule="evenodd" d="M309.425 94.8496C312.421 94.8496 314.85 92.4208 314.85 89.4248C314.85 86.4288 312.421 84 309.425 84C306.429 84 304 86.4288 304 89.4248C304 92.4208 306.429 94.8496 309.425 94.8496ZM309.425 93.4934C311.672 93.4934 313.493 91.6718 313.493 89.4248C313.493 87.1778 311.672 85.3562 309.425 85.3562C307.178 85.3562 305.356 87.1778 305.356 89.4248C305.356 91.6718 307.178 93.4934 309.425 93.4934Z" fill="#D1D8E0"/>
<path fill-rule="evenodd" clip-rule="evenodd" d="M313.935 86.4109C314.531 87.303 314.85 88.3519 314.85 89.4248C314.85 89.7993 314.546 90.1029 314.172 90.1029C313.797 90.1029 313.493 89.7993 313.493 89.4248C313.493 87.1778 311.672 85.3562 309.425 85.3562C307.178 85.3562 305.356 87.1778 305.356 89.4248C305.356 91.6718 307.178 93.4934 309.425 93.4934C309.799 93.4934 310.103 93.797 310.103 94.1715C310.103 94.546 309.799 94.8496 309.425 94.8496C308.352 94.8496 307.303 94.5314 306.411 93.9354C305.519 93.3393 304.824 92.492 304.413 91.5008C304.002 90.5095 303.895 89.4188 304.104 88.3665C304.314 87.3142 304.83 86.3476 305.589 85.5889C306.348 84.8302 307.314 84.3136 308.366 84.1042C309.419 83.8949 310.51 84.0024 311.501 84.4129C312.492 84.8235 313.339 85.5188 313.935 86.4109Z" fill="#336ACC"/>
<rect x="457.931" y="64.1939" width="160.936" height="85.6457" rx="6.05677" fill="white"/>
<rect x="457.931" y="64.1939" width="160.936" height="85.6457" rx="6.05677" stroke="#E6EBF0" stroke-width="1.73051"/>
<rect x="467.448" y="73.7117" width="32" height="32" rx="3.97648" fill="#F3F6F9"/>
<path fill-rule="evenodd" clip-rule="evenodd" d="M483.425 94.8496C486.421 94.8496 488.85 92.4208 488.85 89.4248C488.85 86.4288 486.421 84 483.425 84C480.429 84 478 86.4288 478 89.4248C478 92.4208 480.429 94.8496 483.425 94.8496ZM483.425 93.4934C485.672 93.4934 487.493 91.6718 487.493 89.4248C487.493 87.1778 485.672 85.3562 483.425 85.3562C481.178 85.3562 479.356 87.1778 479.356 89.4248C479.356 91.6718 481.178 93.4934 483.425 93.4934Z" fill="#D1D8E0"/>
<path fill-rule="evenodd" clip-rule="evenodd" d="M487.935 86.4109C488.531 87.303 488.85 88.3519 488.85 89.4248C488.85 89.7993 488.546 90.1029 488.172 90.1029C487.797 90.1029 487.493 89.7993 487.493 89.4248C487.493 87.1778 485.672 85.3562 483.425 85.3562C481.178 85.3562 479.356 87.1778 479.356 89.4248C479.356 91.6718 481.178 93.4934 483.425 93.4934C483.799 93.4934 484.103 93.797 484.103 94.1715C484.103 94.546 483.799 94.8496 483.425 94.8496C482.352 94.8496 481.303 94.5314 480.411 93.9354C479.519 93.3393 478.824 92.492 478.413 91.5008C478.002 90.5095 477.895 89.4188 478.104 88.3665C478.314 87.3142 478.83 86.3476 479.589 85.5889C480.348 84.8302 481.314 84.3136 482.366 84.1042C483.419 83.8949 484.51 84.0024 485.501 84.4129C486.492 84.8235 487.339 85.5188 487.935 86.4109Z" fill="#336ACC"/>
<rect x="467.448" y="116.095" width="68.3458" height="10.383" rx="5.19152" fill="#B8C1CC"/>
<rect x="467.448" y="129.939" width="140.171" height="10.383" rx="5.19152" fill="#D1D8E0"/>
<rect x="109.232" y="174.205" width="163.333" height="151" rx="8.5" fill="#F3F6F9" stroke="#E6EBF0"/>
<path d="M109.732 274.705H272.065V316.705C272.065 321.123 268.484 324.705 264.065 324.705H117.732C113.314 324.705 109.732 321.123 109.732 316.705V274.705Z" fill="white"/>
<rect x="282.565" y="174.205" width="163.333" height="151" rx="8.5" fill="#F3F6F9" stroke="#E6EBF0"/>
<path d="M283.065 274.705H445.399V316.705C445.399 321.123 441.817 324.705 437.399 324.705H291.065C286.647 324.705 283.065 321.123 283.065 316.705V274.705Z" fill="white"/>
<rect x="455.898" y="174.205" width="163.333" height="151" rx="8.5" fill="#F3F6F9" stroke="#E6EBF0"/>
<path d="M456.398 274.705H618.732V316.705C618.732 321.123 615.15 324.705 610.732 324.705H464.398C459.98 324.705 456.398 321.123 456.398 316.705V274.705Z" fill="white"/>
<path fill-rule="evenodd" clip-rule="evenodd" d="M201.699 226.639C201.699 220.647 196.842 215.79 190.85 215.79C184.858 215.79 180 220.647 180 226.639C180 232.631 184.858 237.489 190.85 237.489C196.842 237.489 201.699 232.631 201.699 226.639ZM198.987 226.639C198.987 222.145 195.344 218.502 190.85 218.502C186.356 218.502 182.712 222.145 182.712 226.639C182.712 231.133 186.356 234.777 190.85 234.777C195.344 234.777 198.987 231.133 198.987 226.639Z" fill="#D1D8E0"/>
<path fill-rule="evenodd" clip-rule="evenodd" d="M184.822 217.618C186.606 216.426 188.704 215.79 190.85 215.79C191.599 215.79 192.206 216.397 192.206 217.146C192.206 217.895 191.599 218.502 190.85 218.502C186.356 218.502 182.712 222.145 182.712 226.639C182.712 231.133 186.356 234.777 190.85 234.777C195.344 234.777 198.987 231.133 198.987 226.639C198.987 225.89 199.594 225.283 200.343 225.283C201.092 225.283 201.699 225.89 201.699 226.639L201.699 226.644C201.698 228.788 201.062 230.884 199.871 232.667C198.679 234.451 196.984 235.842 195.002 236.663C193.019 237.484 190.838 237.699 188.733 237.281C186.628 236.862 184.695 235.829 183.178 234.311C181.66 232.794 180.627 230.861 180.208 228.756C179.79 226.651 180.005 224.47 180.826 222.487C181.647 220.505 183.038 218.81 184.822 217.618Z" fill="#336ACC"/>
<path fill-rule="evenodd" clip-rule="evenodd" d="M363.85 237.489C369.842 237.489 374.699 232.631 374.699 226.639C374.699 220.647 369.842 215.79 363.85 215.79C357.858 215.79 353 220.647 353 226.639C353 232.631 357.858 237.489 363.85 237.489ZM363.85 234.777C368.344 234.777 371.987 231.133 371.987 226.639C371.987 222.145 368.344 218.502 363.85 218.502C359.356 218.502 355.712 222.145 355.712 226.639C355.712 231.133 359.356 234.777 363.85 234.777Z" fill="#D1D8E0"/>
<path fill-rule="evenodd" clip-rule="evenodd" d="M372.871 220.612C374.063 222.396 374.699 224.494 374.699 226.639C374.699 227.388 374.092 227.996 373.343 227.996C372.594 227.996 371.987 227.388 371.987 226.639C371.987 222.145 368.344 218.502 363.85 218.502C359.356 218.502 355.712 222.145 355.712 226.639C355.712 231.133 359.356 234.777 363.85 234.777C364.599 234.777 365.206 235.384 365.206 236.133C365.206 236.882 364.599 237.489 363.85 237.489H363.845C361.701 237.488 359.605 236.852 357.822 235.661C356.038 234.468 354.647 232.774 353.826 230.791C353.005 228.809 352.79 226.627 353.208 224.523C353.627 222.418 354.66 220.485 356.178 218.968C357.695 217.45 359.628 216.417 361.733 215.998C363.838 215.58 366.019 215.794 368.002 216.616C369.984 217.437 371.679 218.827 372.871 220.612Z" fill="#336ACC"/>
<path fill-rule="evenodd" clip-rule="evenodd" d="M527 226.639C527 232.631 531.858 237.489 537.85 237.489C543.842 237.489 548.699 232.631 548.699 226.639C548.699 220.647 543.842 215.79 537.85 215.79C531.858 215.79 527 220.647 527 226.639ZM529.712 226.639C529.712 231.133 533.356 234.777 537.85 234.777C542.344 234.777 545.987 231.133 545.987 226.639C545.987 222.145 542.344 218.502 537.85 218.502C533.356 218.502 529.712 222.145 529.712 226.639Z" fill="#D1D8E0"/>
<path fill-rule="evenodd" clip-rule="evenodd" d="M543.877 235.661C542.093 236.853 539.995 237.489 537.85 237.489C537.101 237.489 536.493 236.882 536.493 236.133C536.493 235.384 537.101 234.777 537.85 234.777C542.344 234.777 545.987 231.133 545.987 226.639C545.987 222.145 542.344 218.502 537.85 218.502C533.356 218.502 529.712 222.145 529.712 226.639C529.712 227.388 529.105 227.996 528.356 227.996C527.607 227.996 527 227.388 527 226.639L527 226.635C527.001 224.491 527.637 222.395 528.828 220.612C530.021 218.827 531.715 217.437 533.698 216.616C535.68 215.794 537.862 215.58 539.966 215.998C542.071 216.417 544.004 217.45 545.521 218.968C547.039 220.485 548.072 222.418 548.491 224.523C548.909 226.627 548.695 228.809 547.873 230.791C547.052 232.774 545.662 234.468 543.877 235.661Z" fill="#336ACC"/>
</g>
<rect x="49.0045" y="-4.99554" width="631.196" height="314.71" stroke="#B8C1CC" stroke-width="1.99107"/>
</g>
<rect x="1" y="1" width="726" height="297" rx="7" stroke="#E6EBF0" stroke-width="2"/>
<defs>
<clipPath id="clip0_1493_2084">
<rect width="728" height="299" rx="8" fill="white"/>
</clipPath>
<clipPath id="clip1_1493_2084">
<rect x="50" y="-4" width="629.205" height="312.719" fill="white"/>
</clipPath>
</defs>
</svg>
