<svg width="728" height="347" viewBox="0 0 728 347" fill="none" xmlns="http://www.w3.org/2000/svg">
<g clip-path="url(#clip0_4533_10859)">
<rect width="728" height="347" rx="8" fill="#F3F6F9"/>
<g clip-path="url(#clip1_4533_10859)">
<rect width="945.467" height="2554.85" transform="translate(52.5 -1212)" fill="white"/>
<path d="M148.675 43.197C148.217 43.197 147.862 43.0715 147.611 42.8204C147.375 42.5547 147.257 42.1929 147.257 41.7352V29.7749H142.938C142.554 29.7749 142.251 29.6716 142.03 29.4649C141.823 29.2434 141.72 28.9481 141.72 28.5789C141.72 28.195 141.823 27.9071 142.03 27.7151C142.251 27.5084 142.554 27.405 142.938 27.405H154.411C154.795 27.405 155.09 27.5084 155.297 27.7151C155.518 27.9071 155.629 28.195 155.629 28.5789C155.629 28.9481 155.518 29.2434 155.297 29.4649C155.09 29.6716 154.795 29.7749 154.411 29.7749H150.092V41.7352C150.092 42.1929 149.974 42.5547 149.738 42.8204C149.501 43.0715 149.147 43.197 148.675 43.197ZM159.567 43.1748C159.124 43.1748 158.784 43.0419 158.548 42.7761C158.312 42.5104 158.194 42.1412 158.194 41.6687V33.5402C158.194 33.0529 158.312 32.6838 158.548 32.4328C158.784 32.167 159.124 32.0341 159.567 32.0341C160.01 32.0341 160.349 32.167 160.586 32.4328C160.837 32.6838 160.962 33.0529 160.962 33.5402V41.6687C160.962 42.1412 160.844 42.5104 160.608 42.7761C160.372 43.0419 160.025 43.1748 159.567 43.1748ZM160.608 30.6166C160.46 30.8233 160.283 30.9414 160.076 30.971C159.87 31.0005 159.67 30.9636 159.478 30.8602C159.286 30.7569 159.146 30.6092 159.057 30.4172C158.984 30.2253 159.006 30.0112 159.124 29.7749L160.807 26.4748C160.94 26.1943 161.117 26.0171 161.339 25.9432C161.56 25.8546 161.789 25.8399 162.025 25.8989C162.262 25.958 162.461 26.0687 162.623 26.2312C162.801 26.3936 162.904 26.5929 162.933 26.8292C162.978 27.0507 162.919 27.2795 162.756 27.5158L160.608 30.6166ZM168.8 43.2413C167.84 43.2413 167.036 43.0788 166.386 42.754C165.751 42.4291 165.279 41.9566 164.968 41.3365C164.658 40.7016 164.503 39.919 164.503 38.9887V34.2711H163.352C162.997 34.2711 162.724 34.1825 162.532 34.0053C162.34 33.8134 162.244 33.555 162.244 33.2301C162.244 32.8905 162.34 32.6321 162.532 32.4549C162.724 32.2777 162.997 32.1891 163.352 32.1891H164.503V30.1736C164.503 29.7159 164.621 29.3689 164.858 29.1326C165.109 28.8964 165.456 28.7783 165.899 28.7783C166.342 28.7783 166.681 28.8964 166.918 29.1326C167.154 29.3689 167.272 29.7159 167.272 30.1736V32.1891H169.62C169.974 32.1891 170.247 32.2777 170.439 32.4549C170.631 32.6321 170.727 32.8905 170.727 33.2301C170.727 33.555 170.631 33.8134 170.439 34.0053C170.247 34.1825 169.974 34.2711 169.62 34.2711H167.272V38.8337C167.272 39.5425 167.427 40.074 167.737 40.4284C168.047 40.7828 168.549 40.96 169.243 40.96C169.494 40.96 169.716 40.9378 169.908 40.8935C170.1 40.8492 170.269 40.8197 170.417 40.8049C170.594 40.7902 170.742 40.8492 170.86 40.9821C170.978 41.1002 171.037 41.3513 171.037 41.7352C171.037 42.0305 170.986 42.2963 170.882 42.5325C170.794 42.754 170.624 42.909 170.373 42.9976C170.181 43.0567 169.93 43.1084 169.62 43.1527C169.31 43.2117 169.036 43.2413 168.8 43.2413ZM176.26 43.2413C175.359 43.2413 174.613 43.0788 174.023 42.754C173.432 42.4144 172.989 41.9123 172.694 41.2479C172.413 40.5834 172.273 39.7566 172.273 38.7673V33.4073C172.273 32.9348 172.391 32.5878 172.627 32.3663C172.863 32.1301 173.203 32.0119 173.646 32.0119C174.089 32.0119 174.429 32.1301 174.665 32.3663C174.916 32.5878 175.041 32.9348 175.041 33.4073V38.8115C175.041 39.5794 175.196 40.1478 175.507 40.517C175.817 40.8861 176.311 41.0707 176.99 41.0707C177.729 41.0707 178.334 40.8197 178.807 40.3177C179.279 39.8009 179.515 39.1216 179.515 38.28V33.4073C179.515 32.9348 179.634 32.5878 179.87 32.3663C180.106 32.1301 180.446 32.0119 180.889 32.0119C181.332 32.0119 181.671 32.1301 181.907 32.3663C182.158 32.5878 182.284 32.9348 182.284 33.4073V41.7795C182.284 42.7245 181.834 43.197 180.933 43.197C180.505 43.197 180.172 43.0788 179.936 42.8426C179.7 42.5916 179.582 42.2372 179.582 41.7795V40.0962L179.892 40.7606C179.582 41.558 179.109 42.1707 178.474 42.599C177.854 43.0272 177.116 43.2413 176.26 43.2413ZM188.864 43.2413C187.639 43.2413 186.716 42.8943 186.096 42.2003C185.476 41.4915 185.166 40.4579 185.166 39.0995V28.6232C185.166 28.1655 185.284 27.8185 185.52 27.5822C185.756 27.346 186.096 27.2278 186.539 27.2278C186.982 27.2278 187.321 27.346 187.558 27.5822C187.809 27.8185 187.934 28.1655 187.934 28.6232V38.9666C187.934 39.6458 188.074 40.1478 188.355 40.4727C188.65 40.7975 189.064 40.96 189.595 40.96C189.713 40.96 189.824 40.96 189.927 40.96C190.031 40.9452 190.134 40.9304 190.238 40.9157C190.444 40.8861 190.585 40.9452 190.658 41.0929C190.732 41.2257 190.769 41.5063 190.769 41.9345C190.769 42.3036 190.695 42.5916 190.548 42.7983C190.4 43.005 190.156 43.1305 189.817 43.1748C189.669 43.1896 189.514 43.2043 189.352 43.2191C189.189 43.2339 189.027 43.2413 188.864 43.2413ZM197.069 43.2413C195.947 43.2413 194.973 43.0124 194.146 42.5547C193.319 42.0969 192.677 41.4472 192.219 40.6056C191.761 39.7492 191.532 38.7451 191.532 37.5934C191.532 36.7222 191.658 35.947 191.909 35.2678C192.175 34.5738 192.551 33.9832 193.038 33.4959C193.526 32.9939 194.109 32.6173 194.788 32.3663C195.467 32.1005 196.228 31.9676 197.069 31.9676C198.192 31.9676 199.166 32.1965 199.993 32.6542C200.82 33.112 201.462 33.7617 201.92 34.6033C202.378 35.445 202.607 36.4417 202.607 37.5934C202.607 38.4646 202.474 39.2471 202.208 39.9411C201.957 40.6351 201.588 41.2331 201.1 41.7352C200.613 42.2224 200.03 42.599 199.351 42.8647C198.671 43.1158 197.911 43.2413 197.069 43.2413ZM197.069 41.1371C197.616 41.1371 198.096 41.0043 198.509 40.7385C198.922 40.4727 199.24 40.0814 199.461 39.5646C199.698 39.033 199.816 38.376 199.816 37.5934C199.816 36.4121 199.565 35.5336 199.063 34.9577C198.561 34.3671 197.896 34.0718 197.069 34.0718C196.523 34.0718 196.043 34.2046 195.63 34.4704C195.216 34.7214 194.891 35.1127 194.655 35.6443C194.434 36.1611 194.323 36.8108 194.323 37.5934C194.323 38.7599 194.574 39.6458 195.076 40.2512C195.578 40.8418 196.242 41.1371 197.069 41.1371ZM212.322 43.197C211.864 43.197 211.51 43.0788 211.259 42.8426C211.023 42.5916 210.905 42.2372 210.905 41.7795V33.4073C210.905 32.9496 211.023 32.6026 211.259 32.3663C211.495 32.1301 211.827 32.0119 212.256 32.0119C212.684 32.0119 213.016 32.1301 213.252 32.3663C213.489 32.6026 213.607 32.9496 213.607 33.4073V34.8027H213.385C213.592 33.9167 213.998 33.2449 214.603 32.7871C215.209 32.3294 216.014 32.0562 217.018 31.9676C217.328 31.9381 217.571 32.0193 217.749 32.2113C217.94 32.3885 218.051 32.669 218.081 33.0529C218.11 33.4221 218.022 33.7248 217.815 33.961C217.623 34.1825 217.328 34.3154 216.929 34.3597L216.442 34.404C215.541 34.4926 214.862 34.7731 214.404 35.2456C213.946 35.7034 213.717 36.3531 213.717 37.1947V41.7795C213.717 42.2372 213.599 42.5916 213.363 42.8426C213.127 43.0788 212.78 43.197 212.322 43.197ZM224.743 43.2413C223.517 43.2413 222.461 43.0124 221.576 42.5547C220.69 42.0969 220.003 41.4472 219.516 40.6056C219.043 39.7639 218.807 38.7673 218.807 37.6155C218.807 36.4933 219.036 35.5114 219.494 34.6698C219.966 33.8281 220.608 33.171 221.42 32.6985C222.247 32.2113 223.185 31.9676 224.233 31.9676C225.001 31.9676 225.688 32.0932 226.293 32.3442C226.913 32.5952 227.438 32.9569 227.866 33.4294C228.309 33.902 228.641 34.4778 228.862 35.157C229.099 35.8215 229.217 36.5745 229.217 37.4162C229.217 37.682 229.121 37.8887 228.929 38.0363C228.752 38.1692 228.493 38.2357 228.154 38.2357H221.044V36.641H227.268L226.913 36.9732C226.913 36.294 226.81 35.7255 226.603 35.2678C226.411 34.81 226.123 34.463 225.739 34.2268C225.37 33.9758 224.905 33.8503 224.344 33.8503C223.724 33.8503 223.192 33.9979 222.749 34.2932C222.321 34.5738 221.989 34.9798 221.753 35.5114C221.531 36.0282 221.42 36.6484 221.42 37.3719V37.5269C221.42 38.7377 221.701 39.6458 222.262 40.2512C222.838 40.8418 223.68 41.1371 224.787 41.1371C225.171 41.1371 225.599 41.0929 226.072 41.0043C226.559 40.9009 227.017 40.7311 227.445 40.4948C227.755 40.3177 228.028 40.2438 228.264 40.2734C228.501 40.2881 228.685 40.3693 228.818 40.517C228.966 40.6646 229.054 40.8492 229.084 41.0707C229.113 41.2774 229.069 41.4915 228.951 41.713C228.848 41.9345 228.663 42.1265 228.397 42.2889C227.88 42.6137 227.282 42.8574 226.603 43.0198C225.939 43.1674 225.319 43.2413 224.743 43.2413ZM233.492 43.197C233.049 43.197 232.702 43.0788 232.451 42.8426C232.215 42.5916 232.097 42.2372 232.097 41.7795V34.2711H231.078C230.724 34.2711 230.451 34.1825 230.259 34.0053C230.067 33.8134 229.971 33.555 229.971 33.2301C229.971 32.8905 230.067 32.6321 230.259 32.4549C230.451 32.2777 230.724 32.1891 231.078 32.1891H232.894L232.097 32.92V32.167C232.097 30.6461 232.481 29.5092 233.249 28.7561C234.017 27.9883 235.124 27.5379 236.571 27.405L237.324 27.3386C237.619 27.3091 237.856 27.3607 238.033 27.4936C238.21 27.6118 238.328 27.7742 238.387 27.9809C238.446 28.1729 238.454 28.3722 238.409 28.5789C238.365 28.7856 238.269 28.9702 238.121 29.1326C237.988 29.2803 237.811 29.3615 237.59 29.3763L237.28 29.3984C236.438 29.4575 235.825 29.6716 235.441 30.0407C235.057 30.4099 234.866 30.971 234.866 31.724V32.5435L234.511 32.1891H236.748C237.103 32.1891 237.376 32.2777 237.568 32.4549C237.76 32.6321 237.856 32.8905 237.856 33.2301C237.856 33.555 237.76 33.8134 237.568 34.0053C237.376 34.1825 237.103 34.2711 236.748 34.2711H234.866V41.7795C234.866 42.7245 234.408 43.197 233.492 43.197ZM244.49 43.2413C243.265 43.2413 242.209 43.0124 241.323 42.5547C240.437 42.0969 239.751 41.4472 239.263 40.6056C238.791 39.7639 238.555 38.7673 238.555 37.6155C238.555 36.4933 238.784 35.5114 239.241 34.6698C239.714 33.8281 240.356 33.171 241.168 32.6985C241.995 32.2113 242.933 31.9676 243.981 31.9676C244.749 31.9676 245.435 32.0932 246.041 32.3442C246.661 32.5952 247.185 32.9569 247.613 33.4294C248.056 33.902 248.389 34.4778 248.61 35.157C248.846 35.8215 248.964 36.5745 248.964 37.4162C248.964 37.682 248.868 37.8887 248.677 38.0363C248.499 38.1692 248.241 38.2357 247.901 38.2357H240.792V36.641H247.015L246.661 36.9732C246.661 36.294 246.558 35.7255 246.351 35.2678C246.159 34.81 245.871 34.463 245.487 34.2268C245.118 33.9758 244.653 33.8503 244.092 33.8503C243.472 33.8503 242.94 33.9979 242.497 34.2932C242.069 34.5738 241.737 34.9798 241.5 35.5114C241.279 36.0282 241.168 36.6484 241.168 37.3719V37.5269C241.168 38.7377 241.449 39.6458 242.01 40.2512C242.586 40.8418 243.427 41.1371 244.535 41.1371C244.919 41.1371 245.347 41.0929 245.819 41.0043C246.307 40.9009 246.764 40.7311 247.193 40.4948C247.503 40.3177 247.776 40.2438 248.012 40.2734C248.248 40.2881 248.433 40.3693 248.566 40.517C248.713 40.6646 248.802 40.8492 248.832 41.0707C248.861 41.2774 248.817 41.4915 248.699 41.713C248.595 41.9345 248.411 42.1265 248.145 42.2889C247.628 42.6137 247.03 42.8574 246.351 43.0198C245.686 43.1674 245.066 43.2413 244.49 43.2413ZM252.575 43.197C252.117 43.197 251.762 43.0788 251.511 42.8426C251.275 42.5916 251.157 42.2372 251.157 41.7795V33.4073C251.157 32.9496 251.275 32.6026 251.511 32.3663C251.748 32.1301 252.08 32.0119 252.508 32.0119C252.936 32.0119 253.269 32.1301 253.505 32.3663C253.741 32.6026 253.859 32.9496 253.859 33.4073V34.8027H253.638C253.844 33.9167 254.25 33.2449 254.856 32.7871C255.461 32.3294 256.266 32.0562 257.27 31.9676C257.58 31.9381 257.824 32.0193 258.001 32.2113C258.193 32.3885 258.304 32.669 258.333 33.0529C258.363 33.4221 258.274 33.7248 258.067 33.961C257.875 34.1825 257.58 34.3154 257.181 34.3597L256.694 34.404C255.793 34.4926 255.114 34.7731 254.656 35.2456C254.199 35.7034 253.97 36.3531 253.97 37.1947V41.7795C253.97 42.2372 253.852 42.5916 253.616 42.8426C253.379 43.0788 253.032 43.197 252.575 43.197ZM261.204 43.1748C260.761 43.1748 260.421 43.0419 260.185 42.7761C259.949 42.5104 259.83 42.1412 259.83 41.6687V33.5402C259.83 33.0529 259.949 32.6838 260.185 32.4328C260.421 32.167 260.761 32.0341 261.204 32.0341C261.647 32.0341 261.986 32.167 262.222 32.4328C262.473 32.6838 262.599 33.0529 262.599 33.5402V41.6687C262.599 42.1412 262.481 42.5104 262.245 42.7761C262.008 43.0419 261.661 43.1748 261.204 43.1748ZM261.204 29.9743C260.687 29.9743 260.281 29.8488 259.985 29.5977C259.705 29.332 259.565 28.9702 259.565 28.5125C259.565 28.04 259.705 27.6782 259.985 27.4272C260.281 27.1762 260.687 27.0507 261.204 27.0507C261.735 27.0507 262.141 27.1762 262.422 27.4272C262.702 27.6782 262.843 28.04 262.843 28.5125C262.843 28.9702 262.702 29.332 262.422 29.5977C262.141 29.8488 261.735 29.9743 261.204 29.9743ZM269.64 43.2413C268.695 43.2413 267.86 43.0124 267.137 42.5547C266.428 42.0969 265.874 41.4472 265.476 40.6056C265.077 39.7492 264.878 38.7451 264.878 37.5934C264.878 36.4269 265.077 35.4302 265.476 34.6033C265.874 33.7617 266.428 33.112 267.137 32.6542C267.86 32.1965 268.695 31.9676 269.64 31.9676C270.54 31.9676 271.323 32.1891 271.987 32.6321C272.667 33.0751 273.124 33.6583 273.361 34.3818H273.117V28.6232C273.117 28.1655 273.235 27.8185 273.471 27.5822C273.708 27.346 274.047 27.2278 274.49 27.2278C274.933 27.2278 275.273 27.346 275.509 27.5822C275.76 27.8185 275.886 28.1655 275.886 28.6232V41.7795C275.886 42.2372 275.767 42.5916 275.531 42.8426C275.295 43.0788 274.955 43.197 274.512 43.197C274.069 43.197 273.73 43.0788 273.493 42.8426C273.257 42.5916 273.139 42.2372 273.139 41.7795V40.0519L273.383 40.7163C273.161 41.4841 272.711 42.0969 272.032 42.5547C271.352 43.0124 270.555 43.2413 269.64 43.2413ZM270.415 41.1371C270.961 41.1371 271.441 41.0043 271.854 40.7385C272.268 40.4727 272.585 40.0814 272.807 39.5646C273.043 39.033 273.161 38.376 273.161 37.5934C273.161 36.4121 272.91 35.5336 272.408 34.9577C271.906 34.3671 271.242 34.0718 270.415 34.0718C269.869 34.0718 269.389 34.2046 268.975 34.4704C268.562 34.7214 268.237 35.1127 268.001 35.6443C267.779 36.1611 267.668 36.8108 267.668 37.5934C267.668 38.7599 267.919 39.6458 268.421 40.2512C268.924 40.8418 269.588 41.1371 270.415 41.1371ZM283.695 43.2413C282.573 43.2413 281.599 43.0124 280.772 42.5547C279.945 42.0969 279.303 41.4472 278.845 40.6056C278.387 39.7492 278.158 38.7451 278.158 37.5934C278.158 36.7222 278.284 35.947 278.535 35.2678C278.8 34.5738 279.177 33.9832 279.664 33.4959C280.152 32.9939 280.735 32.6173 281.414 32.3663C282.093 32.1005 282.854 31.9676 283.695 31.9676C284.818 31.9676 285.792 32.1965 286.619 32.6542C287.446 33.112 288.088 33.7617 288.546 34.6033C289.004 35.445 289.232 36.4417 289.232 37.5934C289.232 38.4646 289.1 39.2471 288.834 39.9411C288.583 40.6351 288.214 41.2331 287.726 41.7352C287.239 42.2224 286.656 42.599 285.977 42.8647C285.297 43.1158 284.537 43.2413 283.695 43.2413ZM283.695 41.1371C284.242 41.1371 284.722 41.0043 285.135 40.7385C285.548 40.4727 285.866 40.0814 286.087 39.5646C286.324 39.033 286.442 38.376 286.442 37.5934C286.442 36.4121 286.191 35.5336 285.689 34.9577C285.187 34.3671 284.522 34.0718 283.695 34.0718C283.149 34.0718 282.669 34.2046 282.256 34.4704C281.842 34.7214 281.517 35.1127 281.281 35.6443C281.06 36.1611 280.949 36.8108 280.949 37.5934C280.949 38.7599 281.2 39.6458 281.702 40.2512C282.204 40.8418 282.868 41.1371 283.695 41.1371ZM301.096 43.2413C300.314 43.2413 299.613 43.0936 298.992 42.7983C298.387 42.4882 297.907 42.0748 297.553 41.558C297.213 41.0412 297.043 40.4579 297.043 39.8082C297.043 39.0109 297.25 38.3833 297.663 37.9256C298.077 37.4531 298.749 37.1135 299.679 36.9068C300.609 36.7001 301.857 36.5967 303.422 36.5967H304.53V38.1914H303.444C302.529 38.1914 301.798 38.2357 301.252 38.3243C300.705 38.4129 300.314 38.5679 300.078 38.7894C299.856 38.9961 299.745 39.2914 299.745 39.6753C299.745 40.1626 299.915 40.5613 300.255 40.8714C300.594 41.1814 301.067 41.3365 301.672 41.3365C302.16 41.3365 302.588 41.2257 302.957 41.0043C303.341 40.768 303.644 40.4505 303.865 40.0519C304.087 39.6532 304.197 39.1955 304.197 38.6787V36.1316C304.197 35.3933 304.035 34.8617 303.71 34.5369C303.385 34.212 302.839 34.0496 302.071 34.0496C301.643 34.0496 301.178 34.1013 300.676 34.2046C300.188 34.308 299.672 34.4852 299.125 34.7362C298.845 34.8691 298.594 34.906 298.372 34.847C298.165 34.7879 298.003 34.6698 297.885 34.4926C297.767 34.3006 297.708 34.0939 297.708 33.8724C297.708 33.6509 297.767 33.4368 297.885 33.2301C298.003 33.0086 298.202 32.8462 298.483 32.7428C299.162 32.4623 299.812 32.263 300.432 32.1448C301.067 32.0267 301.643 31.9676 302.16 31.9676C303.223 31.9676 304.094 32.1301 304.773 32.4549C305.467 32.7798 305.984 33.2744 306.324 33.9389C306.663 34.5886 306.833 35.4302 306.833 36.4638V41.7795C306.833 42.2372 306.722 42.5916 306.501 42.8426C306.279 43.0788 305.962 43.197 305.548 43.197C305.135 43.197 304.81 43.0788 304.574 42.8426C304.352 42.5916 304.242 42.2372 304.242 41.7795V40.7163H304.419C304.315 41.2331 304.109 41.6835 303.799 42.0674C303.503 42.4365 303.127 42.7245 302.669 42.9312C302.211 43.1379 301.687 43.2413 301.096 43.2413ZM320.662 43.2413C319.525 43.2413 318.535 43.0124 317.694 42.5547C316.852 42.0822 316.202 41.4177 315.745 40.5613C315.287 39.7049 315.058 38.7008 315.058 37.5491C315.058 36.6779 315.184 35.9027 315.435 35.2235C315.7 34.5295 316.077 33.9462 316.564 33.4737C317.051 32.9865 317.642 32.6173 318.336 32.3663C319.03 32.1005 319.805 31.9676 320.662 31.9676C321.149 31.9676 321.673 32.0341 322.234 32.167C322.81 32.2999 323.349 32.5214 323.851 32.8314C324.087 32.9791 324.242 33.1563 324.316 33.363C324.39 33.5697 324.405 33.7838 324.36 34.0053C324.316 34.212 324.22 34.3966 324.072 34.559C323.94 34.7067 323.77 34.8027 323.563 34.847C323.356 34.8765 323.127 34.8248 322.876 34.6919C322.552 34.5 322.219 34.3597 321.88 34.2711C321.54 34.1677 321.215 34.1161 320.905 34.1161C320.418 34.1161 319.99 34.1973 319.621 34.3597C319.251 34.5073 318.934 34.7288 318.668 35.0241C318.417 35.3047 318.225 35.6591 318.092 36.0873C317.959 36.5155 317.893 37.0101 317.893 37.5712C317.893 38.6639 318.151 39.5277 318.668 40.1626C319.2 40.7828 319.945 41.0929 320.905 41.0929C321.215 41.0929 321.533 41.0486 321.858 40.96C322.197 40.8714 322.537 40.7311 322.876 40.5391C323.127 40.4062 323.349 40.3619 323.541 40.4062C323.748 40.4505 323.917 40.5539 324.05 40.7163C324.183 40.864 324.264 41.0486 324.294 41.27C324.324 41.4768 324.294 41.6835 324.205 41.8902C324.132 42.0969 323.984 42.2667 323.762 42.3996C323.275 42.6949 322.758 42.909 322.212 43.0419C321.666 43.1748 321.149 43.2413 320.662 43.2413ZM330.826 43.2413C329.704 43.2413 328.729 43.0124 327.902 42.5547C327.075 42.0969 326.433 41.4472 325.975 40.6056C325.518 39.7492 325.289 38.7451 325.289 37.5934C325.289 36.7222 325.414 35.947 325.665 35.2678C325.931 34.5738 326.308 33.9832 326.795 33.4959C327.282 32.9939 327.865 32.6173 328.545 32.3663C329.224 32.1005 329.984 31.9676 330.826 31.9676C331.948 31.9676 332.923 32.1965 333.75 32.6542C334.576 33.112 335.219 33.7617 335.676 34.6033C336.134 35.445 336.363 36.4417 336.363 37.5934C336.363 38.4646 336.23 39.2471 335.964 39.9411C335.713 40.6351 335.344 41.2331 334.857 41.7352C334.37 42.2224 333.786 42.599 333.107 42.8647C332.428 43.1158 331.668 43.2413 330.826 43.2413ZM330.826 41.1371C331.372 41.1371 331.852 41.0043 332.266 40.7385C332.679 40.4727 332.996 40.0814 333.218 39.5646C333.454 39.033 333.572 38.376 333.572 37.5934C333.572 36.4121 333.321 35.5336 332.819 34.9577C332.317 34.3671 331.653 34.0718 330.826 34.0718C330.28 34.0718 329.8 34.2046 329.386 34.4704C328.973 34.7214 328.648 35.1127 328.412 35.6443C328.19 36.1611 328.079 36.8108 328.079 37.5934C328.079 38.7599 328.33 39.6458 328.833 40.2512C329.335 40.8418 329.999 41.1371 330.826 41.1371ZM342.347 43.2413C341.121 43.2413 340.199 42.8943 339.578 42.2003C338.958 41.4915 338.648 40.4579 338.648 39.0995V28.6232C338.648 28.1655 338.766 27.8185 339.003 27.5822C339.239 27.346 339.578 27.2278 340.021 27.2278C340.464 27.2278 340.804 27.346 341.04 27.5822C341.291 27.8185 341.417 28.1655 341.417 28.6232V38.9666C341.417 39.6458 341.557 40.1478 341.838 40.4727C342.133 40.7975 342.546 40.96 343.078 40.96C343.196 40.96 343.307 40.96 343.41 40.96C343.513 40.9452 343.617 40.9304 343.72 40.9157C343.927 40.8861 344.067 40.9452 344.141 41.0929C344.215 41.2257 344.252 41.5063 344.252 41.9345C344.252 42.3036 344.178 42.5916 344.03 42.7983C343.883 43.005 343.639 43.1305 343.299 43.1748C343.152 43.1896 342.997 43.2043 342.834 43.2191C342.672 43.2339 342.509 43.2413 342.347 43.2413ZM349.287 43.2413C348.504 43.2413 347.803 43.0936 347.183 42.7983C346.577 42.4882 346.098 42.0748 345.743 41.558C345.404 41.0412 345.234 40.4579 345.234 39.8082C345.234 39.0109 345.44 38.3833 345.854 37.9256C346.267 37.4531 346.939 37.1135 347.869 36.9068C348.8 36.7001 350.047 36.5967 351.613 36.5967H352.72V38.1914H351.635C350.719 38.1914 349.988 38.2357 349.442 38.3243C348.896 38.4129 348.504 38.5679 348.268 38.7894C348.047 38.9961 347.936 39.2914 347.936 39.6753C347.936 40.1626 348.106 40.5613 348.445 40.8714C348.785 41.1814 349.257 41.3365 349.863 41.3365C350.35 41.3365 350.778 41.2257 351.147 41.0043C351.531 40.768 351.834 40.4505 352.055 40.0519C352.277 39.6532 352.388 39.1955 352.388 38.6787V36.1316C352.388 35.3933 352.225 34.8617 351.9 34.5369C351.576 34.212 351.029 34.0496 350.261 34.0496C349.833 34.0496 349.368 34.1013 348.866 34.2046C348.379 34.308 347.862 34.4852 347.316 34.7362C347.035 34.8691 346.784 34.906 346.563 34.847C346.356 34.7879 346.193 34.6698 346.075 34.4926C345.957 34.3006 345.898 34.0939 345.898 33.8724C345.898 33.6509 345.957 33.4368 346.075 33.2301C346.193 33.0086 346.393 32.8462 346.673 32.7428C347.353 32.4623 348.002 32.263 348.622 32.1448C349.257 32.0267 349.833 31.9676 350.35 31.9676C351.413 31.9676 352.284 32.1301 352.964 32.4549C353.658 32.7798 354.174 33.2744 354.514 33.9389C354.854 34.5886 355.023 35.4302 355.023 36.4638V41.7795C355.023 42.2372 354.913 42.5916 354.691 42.8426C354.47 43.0788 354.152 43.197 353.739 43.197C353.325 43.197 353 43.0788 352.764 42.8426C352.543 42.5916 352.432 42.2372 352.432 41.7795V40.7163H352.609C352.506 41.2331 352.299 41.6835 351.989 42.0674C351.694 42.4365 351.317 42.7245 350.859 42.9312C350.402 43.1379 349.878 43.2413 349.287 43.2413ZM359.207 47.1837C358.764 47.1837 358.424 47.0656 358.188 46.8293C357.952 46.5931 357.833 46.2461 357.833 45.7883V33.4073C357.833 32.9496 357.952 32.6026 358.188 32.3663C358.424 32.1301 358.756 32.0119 359.185 32.0119C359.628 32.0119 359.967 32.1301 360.203 32.3663C360.44 32.6026 360.558 32.9496 360.558 33.4073V35.1349L360.314 34.4704C360.536 33.7174 360.986 33.112 361.665 32.6542C362.359 32.1965 363.164 31.9676 364.079 31.9676C365.024 31.9676 365.851 32.1965 366.56 32.6542C367.284 33.112 367.845 33.7617 368.243 34.6033C368.642 35.4302 368.841 36.4269 368.841 37.5934C368.841 38.7451 368.642 39.7492 368.243 40.6056C367.845 41.4472 367.291 42.0969 366.582 42.5547C365.873 43.0124 365.039 43.2413 364.079 43.2413C363.179 43.2413 362.389 43.0198 361.709 42.5768C361.03 42.1191 360.573 41.5284 360.336 40.8049H360.602V45.7883C360.602 46.2461 360.477 46.5931 360.226 46.8293C359.989 47.0656 359.65 47.1837 359.207 47.1837ZM363.304 41.1371C363.851 41.1371 364.33 41.0043 364.744 40.7385C365.157 40.4727 365.475 40.0814 365.696 39.5646C365.932 39.033 366.051 38.376 366.051 37.5934C366.051 36.4121 365.8 35.5336 365.298 34.9577C364.796 34.3671 364.131 34.0718 363.304 34.0718C362.758 34.0718 362.278 34.2046 361.865 34.4704C361.451 34.7214 361.126 35.1127 360.89 35.6443C360.669 36.1611 360.558 36.8108 360.558 37.5934C360.558 38.7599 360.809 39.6458 361.311 40.2512C361.813 40.8418 362.477 41.1371 363.304 41.1371ZM375.079 43.2413C374.444 43.2413 373.772 43.1748 373.063 43.0419C372.354 42.909 371.719 42.6802 371.158 42.3553C370.922 42.2077 370.752 42.0379 370.649 41.8459C370.56 41.6392 370.523 41.4398 370.538 41.2479C370.568 41.0412 370.641 40.864 370.76 40.7163C370.892 40.5687 371.055 40.4727 371.247 40.4284C371.454 40.3841 371.675 40.421 371.911 40.5391C372.502 40.8197 373.056 41.019 373.572 41.1371C374.089 41.2405 374.599 41.2922 375.101 41.2922C375.809 41.2922 376.334 41.1741 376.673 40.9378C377.028 40.6868 377.205 40.3619 377.205 39.9633C377.205 39.6237 377.087 39.3653 376.85 39.1881C376.629 38.9961 376.289 38.8558 375.832 38.7673L373.617 38.3464C372.701 38.1692 372 37.837 371.513 37.3497C371.04 36.8477 370.804 36.2054 370.804 35.4228C370.804 34.7141 370.996 34.1013 371.38 33.5845C371.778 33.0677 372.325 32.669 373.019 32.3885C373.713 32.1079 374.51 31.9676 375.411 31.9676C376.06 31.9676 376.666 32.0415 377.227 32.1891C377.803 32.322 378.357 32.5361 378.888 32.8314C379.11 32.9496 379.257 33.1046 379.331 33.2966C379.42 33.4885 379.442 33.6878 379.398 33.8946C379.353 34.0865 379.265 34.2637 379.132 34.4261C378.999 34.5738 378.829 34.6698 378.622 34.7141C378.43 34.7436 378.209 34.6993 377.958 34.5812C377.5 34.3449 377.057 34.1751 376.629 34.0718C376.216 33.9684 375.817 33.9167 375.433 33.9167C374.709 33.9167 374.17 34.0422 373.816 34.2932C373.476 34.5443 373.307 34.8765 373.307 35.2899C373.307 35.6 373.41 35.8584 373.617 36.0651C373.823 36.2718 374.141 36.4121 374.569 36.4859L376.784 36.9068C377.744 37.084 378.467 37.4088 378.955 37.8813C379.457 38.3538 379.708 38.9887 379.708 39.7861C379.708 40.864 379.287 41.713 378.445 42.3332C377.604 42.9386 376.481 43.2413 375.079 43.2413ZM385.495 43.2413C384.712 43.2413 384.011 43.0936 383.391 42.7983C382.785 42.4882 382.305 42.0748 381.951 41.558C381.611 41.0412 381.441 40.4579 381.441 39.8082C381.441 39.0109 381.648 38.3833 382.062 37.9256C382.475 37.4531 383.147 37.1135 384.077 36.9068C385.007 36.7001 386.255 36.5967 387.82 36.5967H388.928V38.1914H387.842C386.927 38.1914 386.196 38.2357 385.65 38.3243C385.103 38.4129 384.712 38.5679 384.476 38.7894C384.254 38.9961 384.144 39.2914 384.144 39.6753C384.144 40.1626 384.313 40.5613 384.653 40.8714C384.993 41.1814 385.465 41.3365 386.07 41.3365C386.558 41.3365 386.986 41.2257 387.355 41.0043C387.739 40.768 388.042 40.4505 388.263 40.0519C388.485 39.6532 388.595 39.1955 388.595 38.6787V36.1316C388.595 35.3933 388.433 34.8617 388.108 34.5369C387.783 34.212 387.237 34.0496 386.469 34.0496C386.041 34.0496 385.576 34.1013 385.074 34.2046C384.587 34.308 384.07 34.4852 383.523 34.7362C383.243 34.8691 382.992 34.906 382.77 34.847C382.564 34.7879 382.401 34.6698 382.283 34.4926C382.165 34.3006 382.106 34.0939 382.106 33.8724C382.106 33.6509 382.165 33.4368 382.283 33.2301C382.401 33.0086 382.601 32.8462 382.881 32.7428C383.56 32.4623 384.21 32.263 384.83 32.1448C385.465 32.0267 386.041 31.9676 386.558 31.9676C387.621 31.9676 388.492 32.1301 389.171 32.4549C389.865 32.7798 390.382 33.2744 390.722 33.9389C391.061 34.5886 391.231 35.4302 391.231 36.4638V41.7795C391.231 42.2372 391.12 42.5916 390.899 42.8426C390.677 43.0788 390.36 43.197 389.946 43.197C389.533 43.197 389.208 43.0788 388.972 42.8426C388.75 42.5916 388.64 42.2372 388.64 41.7795V40.7163H388.817C388.714 41.2331 388.507 41.6835 388.197 42.0674C387.901 42.4365 387.525 42.7245 387.067 42.9312C386.609 43.1379 386.085 43.2413 385.495 43.2413ZM400.287 43.2413C399.372 43.2413 398.567 43.0124 397.873 42.5547C397.194 42.0969 396.743 41.4841 396.522 40.7163L396.765 40.1626V41.7795C396.765 42.2372 396.647 42.5916 396.411 42.8426C396.175 43.0788 395.843 43.197 395.414 43.197C394.971 43.197 394.632 43.0788 394.396 42.8426C394.159 42.5916 394.041 42.2372 394.041 41.7795V28.6232C394.041 28.1655 394.159 27.8185 394.396 27.5822C394.632 27.346 394.971 27.2278 395.414 27.2278C395.857 27.2278 396.197 27.346 396.433 27.5822C396.684 27.8185 396.81 28.1655 396.81 28.6232V34.3818H396.544C396.78 33.6583 397.238 33.0751 397.917 32.6321C398.596 32.1891 399.386 31.9676 400.287 31.9676C401.247 31.9676 402.081 32.1965 402.79 32.6542C403.499 33.112 404.052 33.7617 404.451 34.6033C404.85 35.4302 405.049 36.4269 405.049 37.5934C405.049 38.7451 404.85 39.7492 404.451 40.6056C404.052 41.4472 403.491 42.0969 402.768 42.5547C402.059 43.0124 401.232 43.2413 400.287 43.2413ZM399.512 41.1371C400.058 41.1371 400.538 41.0043 400.952 40.7385C401.365 40.4727 401.682 40.0814 401.904 39.5646C402.14 39.033 402.258 38.376 402.258 37.5934C402.258 36.4121 402.007 35.5336 401.505 34.9577C401.003 34.3671 400.339 34.0718 399.512 34.0718C398.966 34.0718 398.486 34.2046 398.072 34.4704C397.659 34.7214 397.334 35.1127 397.098 35.6443C396.876 36.1611 396.765 36.8108 396.765 37.5934C396.765 38.7599 397.016 39.6458 397.519 40.2512C398.021 40.8418 398.685 41.1371 399.512 41.1371ZM411.02 43.2413C409.795 43.2413 408.872 42.8943 408.252 42.2003C407.632 41.4915 407.322 40.4579 407.322 39.0995V28.6232C407.322 28.1655 407.44 27.8185 407.676 27.5822C407.912 27.346 408.252 27.2278 408.695 27.2278C409.138 27.2278 409.477 27.346 409.714 27.5822C409.965 27.8185 410.09 28.1655 410.09 28.6232V38.9666C410.09 39.6458 410.231 40.1478 410.511 40.4727C410.806 40.7975 411.22 40.96 411.751 40.96C411.87 40.96 411.98 40.96 412.084 40.96C412.187 40.9452 412.29 40.9304 412.394 40.9157C412.6 40.8861 412.741 40.9452 412.815 41.0929C412.888 41.2257 412.925 41.5063 412.925 41.9345C412.925 42.3036 412.851 42.5916 412.704 42.7983C412.556 43.005 412.312 43.1305 411.973 43.1748C411.825 43.1896 411.67 43.2043 411.508 43.2191C411.345 43.2339 411.183 43.2413 411.02 43.2413ZM419.624 43.2413C418.399 43.2413 417.343 43.0124 416.457 42.5547C415.571 42.0969 414.884 41.4472 414.397 40.6056C413.925 39.7639 413.688 38.7673 413.688 37.6155C413.688 36.4933 413.917 35.5114 414.375 34.6698C414.847 33.8281 415.49 33.171 416.302 32.6985C417.129 32.2113 418.066 31.9676 419.115 31.9676C419.883 31.9676 420.569 32.0932 421.175 32.3442C421.795 32.5952 422.319 32.9569 422.747 33.4294C423.19 33.902 423.522 34.4778 423.744 35.157C423.98 35.8215 424.098 36.5745 424.098 37.4162C424.098 37.682 424.002 37.8887 423.81 38.0363C423.633 38.1692 423.375 38.2357 423.035 38.2357H415.925V36.641H422.149L421.795 36.9732C421.795 36.294 421.691 35.7255 421.485 35.2678C421.293 34.81 421.005 34.463 420.621 34.2268C420.252 33.9758 419.787 33.8503 419.225 33.8503C418.605 33.8503 418.074 33.9979 417.631 34.2932C417.203 34.5738 416.87 34.9798 416.634 35.5114C416.413 36.0282 416.302 36.6484 416.302 37.3719V37.5269C416.302 38.7377 416.582 39.6458 417.144 40.2512C417.719 40.8418 418.561 41.1371 419.668 41.1371C420.052 41.1371 420.481 41.0929 420.953 41.0043C421.44 40.9009 421.898 40.7311 422.326 40.4948C422.636 40.3177 422.91 40.2438 423.146 40.2734C423.382 40.2881 423.567 40.3693 423.7 40.517C423.847 40.6646 423.936 40.8492 423.965 41.0707C423.995 41.2774 423.951 41.4915 423.832 41.713C423.729 41.9345 423.544 42.1265 423.279 42.2889C422.762 42.6137 422.164 42.8574 421.485 43.0198C420.82 43.1674 420.2 43.2413 419.624 43.2413ZM430.255 43.2413C429.62 43.2413 428.949 43.1748 428.24 43.0419C427.531 42.909 426.896 42.6802 426.335 42.3553C426.099 42.2077 425.929 42.0379 425.826 41.8459C425.737 41.6392 425.7 41.4398 425.715 41.2479C425.744 41.0412 425.818 40.864 425.936 40.7163C426.069 40.5687 426.232 40.4727 426.424 40.4284C426.63 40.3841 426.852 40.421 427.088 40.5391C427.679 40.8197 428.232 41.019 428.749 41.1371C429.266 41.2405 429.775 41.2922 430.277 41.2922C430.986 41.2922 431.51 41.1741 431.85 40.9378C432.204 40.6868 432.382 40.3619 432.382 39.9633C432.382 39.6237 432.263 39.3653 432.027 39.1881C431.806 38.9961 431.466 38.8558 431.008 38.7673L428.793 38.3464C427.878 38.1692 427.177 37.837 426.689 37.3497C426.217 36.8477 425.981 36.2054 425.981 35.4228C425.981 34.7141 426.173 34.1013 426.556 33.5845C426.955 33.0677 427.501 32.669 428.195 32.3885C428.889 32.1079 429.687 31.9676 430.588 31.9676C431.237 31.9676 431.843 32.0415 432.404 32.1891C432.98 32.322 433.533 32.5361 434.065 32.8314C434.286 32.9496 434.434 33.1046 434.508 33.2966C434.596 33.4885 434.619 33.6878 434.574 33.8946C434.53 34.0865 434.441 34.2637 434.308 34.4261C434.176 34.5738 434.006 34.6698 433.799 34.7141C433.607 34.7436 433.386 34.6993 433.135 34.5812C432.677 34.3449 432.234 34.1751 431.806 34.0718C431.392 33.9684 430.994 33.9167 430.61 33.9167C429.886 33.9167 429.347 34.0422 428.993 34.2932C428.653 34.5443 428.483 34.8765 428.483 35.2899C428.483 35.6 428.587 35.8584 428.793 36.0651C429 36.2718 429.318 36.4121 429.746 36.4859L431.961 36.9068C432.921 37.084 433.644 37.4088 434.131 37.8813C434.633 38.3538 434.884 38.9887 434.884 39.7861C434.884 40.864 434.464 41.713 433.622 42.3332C432.78 42.9386 431.658 43.2413 430.255 43.2413Z" fill="#101E37"/>
<rect x="141.094" y="61.4019" width="505.264" height="42.9128" rx="6.22928" fill="#F3F6F9"/>
<rect x="141.094" y="61.4019" width="505.264" height="42.9128" rx="6.22928" stroke="#E6EBF0" stroke-width="1.38429"/>
<path d="M162.703 87.4691C162.417 87.4691 162.195 87.3906 162.038 87.2337C161.891 87.0676 161.817 86.8415 161.817 86.5554V79.0803H159.118C158.878 79.0803 158.689 79.0157 158.55 78.8865C158.421 78.7481 158.356 78.5635 158.356 78.3328C158.356 78.0928 158.421 77.9129 158.55 77.7929C158.689 77.6637 158.878 77.5991 159.118 77.5991H166.288C166.528 77.5991 166.713 77.6637 166.842 77.7929C166.98 77.9129 167.05 78.0928 167.05 78.3328C167.05 78.5635 166.98 78.7481 166.842 78.8865C166.713 79.0157 166.528 79.0803 166.288 79.0803H163.589V86.5554C163.589 86.8415 163.515 87.0676 163.367 87.2337C163.22 87.3906 162.998 87.4691 162.703 87.4691ZM169.511 87.4552C169.234 87.4552 169.021 87.3722 168.874 87.2061C168.726 87.0399 168.652 86.8092 168.652 86.5139V81.4336C168.652 81.129 168.726 80.8983 168.874 80.7414C169.021 80.5753 169.234 80.4923 169.511 80.4923C169.787 80.4923 170 80.5753 170.147 80.7414C170.304 80.8983 170.383 81.129 170.383 81.4336V86.5139C170.383 86.8092 170.309 87.0399 170.161 87.2061C170.014 87.3722 169.797 87.4552 169.511 87.4552ZM170.161 79.6063C170.069 79.7355 169.958 79.8094 169.829 79.8278C169.7 79.8463 169.575 79.8232 169.455 79.7586C169.335 79.694 169.248 79.6017 169.192 79.4817C169.146 79.3618 169.16 79.228 169.234 79.0803L170.286 77.0177C170.369 76.8424 170.48 76.7316 170.618 76.6855C170.756 76.6301 170.9 76.6209 171.047 76.6578C171.195 76.6947 171.319 76.7639 171.421 76.8654C171.532 76.967 171.596 77.0915 171.615 77.2392C171.642 77.3776 171.605 77.5207 171.504 77.6683L170.161 79.6063ZM175.281 87.4968C174.682 87.4968 174.179 87.3952 173.773 87.1922C173.376 86.9892 173.08 86.6939 172.887 86.3063C172.693 85.9094 172.596 85.4203 172.596 84.8389V81.8904H171.876C171.655 81.8904 171.484 81.835 171.364 81.7243C171.244 81.6043 171.184 81.4428 171.184 81.2398C171.184 81.0275 171.244 80.866 171.364 80.7553C171.484 80.6445 171.655 80.5892 171.876 80.5892H172.596V79.3295C172.596 79.0434 172.67 78.8265 172.817 78.6789C172.974 78.5312 173.191 78.4574 173.468 78.4574C173.745 78.4574 173.957 78.5312 174.105 78.6789C174.252 78.8265 174.326 79.0434 174.326 79.3295V80.5892H175.794C176.015 80.5892 176.186 80.6445 176.306 80.7553C176.426 80.866 176.486 81.0275 176.486 81.2398C176.486 81.4428 176.426 81.6043 176.306 81.7243C176.186 81.835 176.015 81.8904 175.794 81.8904H174.326V84.742C174.326 85.185 174.423 85.5172 174.617 85.7387C174.811 85.9602 175.125 86.0709 175.558 86.0709C175.715 86.0709 175.854 86.0571 175.974 86.0294C176.094 86.0017 176.2 85.9833 176.292 85.974C176.403 85.9648 176.495 86.0017 176.569 86.0848C176.643 86.1586 176.68 86.3155 176.68 86.5554C176.68 86.74 176.647 86.9061 176.583 87.0538C176.527 87.1922 176.421 87.2891 176.264 87.3445C176.144 87.3814 175.987 87.4137 175.794 87.4414C175.6 87.4783 175.429 87.4968 175.281 87.4968ZM179.944 87.4968C179.381 87.4968 178.915 87.3952 178.545 87.1922C178.176 86.98 177.899 86.6662 177.715 86.2509C177.54 85.8356 177.452 85.3188 177.452 84.7005V81.3505C177.452 81.0552 177.526 80.8383 177.673 80.6999C177.821 80.5523 178.033 80.4784 178.31 80.4784C178.587 80.4784 178.799 80.5523 178.947 80.6999C179.104 80.8383 179.182 81.0552 179.182 81.3505V84.7282C179.182 85.2081 179.279 85.5634 179.473 85.7941C179.667 86.0248 179.976 86.1402 180.4 86.1402C180.862 86.1402 181.24 85.9833 181.536 85.6695C181.831 85.3465 181.978 84.922 181.978 84.396V81.3505C181.978 81.0552 182.052 80.8383 182.2 80.6999C182.348 80.5523 182.56 80.4784 182.837 80.4784C183.114 80.4784 183.326 80.5523 183.474 80.6999C183.63 80.8383 183.709 81.0552 183.709 81.3505V86.5831C183.709 87.1738 183.427 87.4691 182.864 87.4691C182.597 87.4691 182.389 87.3952 182.241 87.2476C182.094 87.0907 182.02 86.8692 182.02 86.5831V85.5311L182.214 85.9464C182.02 86.4447 181.725 86.8277 181.328 87.0953C180.94 87.3629 180.479 87.4968 179.944 87.4968ZM187.822 87.4968C187.056 87.4968 186.479 87.2799 186.091 86.8461C185.704 86.4032 185.51 85.7572 185.51 84.9081V78.3605C185.51 78.0744 185.584 77.8575 185.731 77.7099C185.879 77.5622 186.091 77.4884 186.368 77.4884C186.645 77.4884 186.857 77.5622 187.005 77.7099C187.162 77.8575 187.24 78.0744 187.24 78.3605V84.8251C187.24 85.2496 187.328 85.5634 187.503 85.7664C187.688 85.9694 187.946 86.0709 188.278 86.0709C188.352 86.0709 188.421 86.0709 188.486 86.0709C188.551 86.0617 188.615 86.0525 188.68 86.0433C188.809 86.0248 188.897 86.0617 188.943 86.154C188.989 86.2371 189.012 86.4124 189.012 86.68C189.012 86.9107 188.966 87.0907 188.874 87.2199C188.781 87.3491 188.629 87.4275 188.417 87.4552C188.325 87.4645 188.228 87.4737 188.126 87.4829C188.025 87.4921 187.923 87.4968 187.822 87.4968ZM192.95 87.4968C192.248 87.4968 191.639 87.3537 191.122 87.0676C190.606 86.7815 190.204 86.3755 189.918 85.8495C189.632 85.3142 189.489 84.6867 189.489 83.9668C189.489 83.4223 189.567 82.9378 189.724 82.5133C189.89 82.0796 190.126 81.7104 190.43 81.4059C190.735 81.0921 191.099 80.8568 191.524 80.6999C191.948 80.5338 192.424 80.4507 192.95 80.4507C193.651 80.4507 194.26 80.5938 194.777 80.8799C195.294 81.166 195.695 81.572 195.981 82.098C196.267 82.6241 196.41 83.247 196.41 83.9668C196.41 84.5113 196.327 85.0004 196.161 85.4342C196.004 85.8679 195.774 86.2417 195.469 86.5554C195.165 86.86 194.8 87.0953 194.376 87.2614C193.951 87.4183 193.476 87.4968 192.95 87.4968ZM192.95 86.1817C193.291 86.1817 193.591 86.0986 193.849 85.9325C194.108 85.7664 194.306 85.5218 194.445 85.1988C194.592 84.8666 194.666 84.4559 194.666 83.9668C194.666 83.2285 194.509 82.6794 194.196 82.3195C193.882 81.9504 193.466 81.7658 192.95 81.7658C192.608 81.7658 192.308 81.8489 192.05 82.015C191.792 82.1719 191.588 82.4164 191.441 82.7487C191.302 83.0717 191.233 83.4777 191.233 83.9668C191.233 84.6959 191.39 85.2496 191.704 85.628C192.018 85.9971 192.433 86.1817 192.95 86.1817Z" fill="#101E37"/>
<g clip-path="url(#clip2_4533_10859)">
<path d="M624.21 83.6657H620.173V87.7032C620.173 88.1473 619.809 88.5107 619.365 88.5107C618.921 88.5107 618.558 88.1473 618.558 87.7032V83.6657H614.52C614.076 83.6657 613.713 83.3023 613.713 82.8582C613.713 82.4141 614.076 82.0507 614.52 82.0507H618.558V78.0132C618.558 77.5691 618.921 77.2057 619.365 77.2057C619.809 77.2057 620.173 77.5691 620.173 78.0132V82.0507H624.21C624.654 82.0507 625.018 82.4141 625.018 82.8582C625.018 83.3023 624.654 83.6657 624.21 83.6657Z" fill="#101E37"/>
</g>
<rect x="141.094" y="114.005" width="505.264" height="42.9128" rx="6.22928" fill="#F3F6F9"/>
<rect x="141.094" y="114.005" width="505.264" height="42.9128" rx="6.22928" stroke="#E6EBF0" stroke-width="1.38429"/>
<path d="M162.703 140.072C162.417 140.072 162.195 139.993 162.038 139.837C161.891 139.67 161.817 139.444 161.817 139.158V131.683H159.118C158.878 131.683 158.689 131.619 158.55 131.489C158.421 131.351 158.356 131.166 158.356 130.936C158.356 130.696 158.421 130.516 158.55 130.396C158.689 130.267 158.878 130.202 159.118 130.202H166.288C166.528 130.202 166.713 130.267 166.842 130.396C166.98 130.516 167.05 130.696 167.05 130.936C167.05 131.166 166.98 131.351 166.842 131.489C166.713 131.619 166.528 131.683 166.288 131.683H163.589V139.158C163.589 139.444 163.515 139.67 163.367 139.837C163.22 139.993 162.998 140.072 162.703 140.072ZM169.511 140.058C169.234 140.058 169.021 139.975 168.874 139.809C168.726 139.643 168.652 139.412 168.652 139.117V134.036C168.652 133.732 168.726 133.501 168.874 133.344C169.021 133.178 169.234 133.095 169.511 133.095C169.787 133.095 170 133.178 170.147 133.344C170.304 133.501 170.383 133.732 170.383 134.036V139.117C170.383 139.412 170.309 139.643 170.161 139.809C170.014 139.975 169.797 140.058 169.511 140.058ZM170.161 132.209C170.069 132.338 169.958 132.412 169.829 132.431C169.7 132.449 169.575 132.426 169.455 132.361C169.335 132.297 169.248 132.205 169.192 132.085C169.146 131.965 169.16 131.831 169.234 131.683L170.286 129.621C170.369 129.445 170.48 129.334 170.618 129.288C170.756 129.233 170.9 129.224 171.047 129.261C171.195 129.298 171.319 129.367 171.421 129.468C171.532 129.57 171.596 129.694 171.615 129.842C171.642 129.98 171.605 130.124 171.504 130.271L170.161 132.209ZM175.281 140.1C174.682 140.1 174.179 139.998 173.773 139.795C173.376 139.592 173.08 139.297 172.887 138.909C172.693 138.512 172.596 138.023 172.596 137.442V134.493H171.876C171.655 134.493 171.484 134.438 171.364 134.327C171.244 134.207 171.184 134.046 171.184 133.843C171.184 133.63 171.244 133.469 171.364 133.358C171.484 133.247 171.655 133.192 171.876 133.192H172.596V131.932C172.596 131.646 172.67 131.429 172.817 131.282C172.974 131.134 173.191 131.06 173.468 131.06C173.745 131.06 173.957 131.134 174.105 131.282C174.252 131.429 174.326 131.646 174.326 131.932V133.192H175.794C176.015 133.192 176.186 133.247 176.306 133.358C176.426 133.469 176.486 133.63 176.486 133.843C176.486 134.046 176.426 134.207 176.306 134.327C176.186 134.438 176.015 134.493 175.794 134.493H174.326V137.345C174.326 137.788 174.423 138.12 174.617 138.342C174.811 138.563 175.125 138.674 175.558 138.674C175.715 138.674 175.854 138.66 175.974 138.632C176.094 138.605 176.2 138.586 176.292 138.577C176.403 138.568 176.495 138.605 176.569 138.688C176.643 138.761 176.68 138.918 176.68 139.158C176.68 139.343 176.647 139.509 176.583 139.657C176.527 139.795 176.421 139.892 176.264 139.947C176.144 139.984 175.987 140.017 175.794 140.044C175.6 140.081 175.429 140.1 175.281 140.1ZM179.944 140.1C179.381 140.1 178.915 139.998 178.545 139.795C178.176 139.583 177.899 139.269 177.715 138.854C177.54 138.438 177.452 137.922 177.452 137.303V133.953C177.452 133.658 177.526 133.441 177.673 133.303C177.821 133.155 178.033 133.081 178.31 133.081C178.587 133.081 178.799 133.155 178.947 133.303C179.104 133.441 179.182 133.658 179.182 133.953V137.331C179.182 137.811 179.279 138.166 179.473 138.397C179.667 138.628 179.976 138.743 180.4 138.743C180.862 138.743 181.24 138.586 181.536 138.272C181.831 137.949 181.978 137.525 181.978 136.999V133.953C181.978 133.658 182.052 133.441 182.2 133.303C182.348 133.155 182.56 133.081 182.837 133.081C183.114 133.081 183.326 133.155 183.474 133.303C183.63 133.441 183.709 133.658 183.709 133.953V139.186C183.709 139.777 183.427 140.072 182.864 140.072C182.597 140.072 182.389 139.998 182.241 139.85C182.094 139.694 182.02 139.472 182.02 139.186V138.134L182.214 138.549C182.02 139.048 181.725 139.431 181.328 139.698C180.94 139.966 180.479 140.1 179.944 140.1ZM187.822 140.1C187.056 140.1 186.479 139.883 186.091 139.449C185.704 139.006 185.51 138.36 185.51 137.511V130.963C185.51 130.677 185.584 130.46 185.731 130.313C185.879 130.165 186.091 130.091 186.368 130.091C186.645 130.091 186.857 130.165 187.005 130.313C187.162 130.46 187.24 130.677 187.24 130.963V137.428C187.24 137.852 187.328 138.166 187.503 138.369C187.688 138.572 187.946 138.674 188.278 138.674C188.352 138.674 188.421 138.674 188.486 138.674C188.551 138.665 188.615 138.655 188.68 138.646C188.809 138.628 188.897 138.665 188.943 138.757C188.989 138.84 189.012 139.015 189.012 139.283C189.012 139.514 188.966 139.694 188.874 139.823C188.781 139.952 188.629 140.03 188.417 140.058C188.325 140.067 188.228 140.077 188.126 140.086C188.025 140.095 187.923 140.1 187.822 140.1ZM192.95 140.1C192.248 140.1 191.639 139.957 191.122 139.67C190.606 139.384 190.204 138.978 189.918 138.452C189.632 137.917 189.489 137.289 189.489 136.57C189.489 136.025 189.567 135.541 189.724 135.116C189.89 134.682 190.126 134.313 190.43 134.009C190.735 133.695 191.099 133.46 191.524 133.303C191.948 133.137 192.424 133.054 192.95 133.054C193.651 133.054 194.26 133.197 194.777 133.483C195.294 133.769 195.695 134.175 195.981 134.701C196.267 135.227 196.41 135.85 196.41 136.57C196.41 137.114 196.327 137.603 196.161 138.037C196.004 138.471 195.774 138.845 195.469 139.158C195.165 139.463 194.8 139.698 194.376 139.864C193.951 140.021 193.476 140.1 192.95 140.1ZM192.95 138.785C193.291 138.785 193.591 138.701 193.849 138.535C194.108 138.369 194.306 138.125 194.445 137.802C194.592 137.469 194.666 137.059 194.666 136.57C194.666 135.831 194.509 135.282 194.196 134.922C193.882 134.553 193.466 134.369 192.95 134.369C192.608 134.369 192.308 134.452 192.05 134.618C191.792 134.775 191.588 135.019 191.441 135.351C191.302 135.674 191.233 136.081 191.233 136.57C191.233 137.299 191.39 137.852 191.704 138.231C192.018 138.6 192.433 138.785 192.95 138.785Z" fill="#101E37"/>
<g clip-path="url(#clip3_4533_10859)">
<path d="M624.21 136.269H620.173V140.306C620.173 140.75 619.809 141.114 619.365 141.114C618.921 141.114 618.558 140.75 618.558 140.306V136.269H614.52C614.076 136.269 613.713 135.905 613.713 135.461C613.713 135.017 614.076 134.654 614.52 134.654H618.558V130.616C618.558 130.172 618.921 129.809 619.365 129.809C619.809 129.809 620.173 130.172 620.173 130.616V134.654H624.21C624.654 134.654 625.018 135.017 625.018 135.461C625.018 135.905 624.654 136.269 624.21 136.269Z" fill="#101E37"/>
</g>
<rect x="141.094" y="166.608" width="505.264" height="42.9128" rx="6.22928" fill="#F3F6F9"/>
<rect x="141.094" y="166.608" width="505.264" height="42.9128" rx="6.22928" stroke="#E6EBF0" stroke-width="1.38429"/>
<path d="M162.703 192.675C162.417 192.675 162.195 192.596 162.038 192.439C161.891 192.273 161.817 192.047 161.817 191.761V184.286H159.118C158.878 184.286 158.689 184.221 158.55 184.092C158.421 183.954 158.356 183.769 158.356 183.538C158.356 183.299 158.421 183.119 158.55 182.999C158.689 182.869 158.878 182.805 159.118 182.805H166.288C166.528 182.805 166.713 182.869 166.842 182.999C166.98 183.119 167.05 183.299 167.05 183.538C167.05 183.769 166.98 183.954 166.842 184.092C166.713 184.221 166.528 184.286 166.288 184.286H163.589V191.761C163.589 192.047 163.515 192.273 163.367 192.439C163.22 192.596 162.998 192.675 162.703 192.675ZM169.511 192.661C169.234 192.661 169.021 192.578 168.874 192.412C168.726 192.246 168.652 192.015 168.652 191.72V186.639C168.652 186.335 168.726 186.104 168.874 185.947C169.021 185.781 169.234 185.698 169.511 185.698C169.787 185.698 170 185.781 170.147 185.947C170.304 186.104 170.383 186.335 170.383 186.639V191.72C170.383 192.015 170.309 192.246 170.161 192.412C170.014 192.578 169.797 192.661 169.511 192.661ZM170.161 184.812C170.069 184.941 169.958 185.015 169.829 185.033C169.7 185.052 169.575 185.029 169.455 184.964C169.335 184.9 169.248 184.807 169.192 184.687C169.146 184.567 169.16 184.434 169.234 184.286L170.286 182.223C170.369 182.048 170.48 181.937 170.618 181.891C170.756 181.836 170.9 181.827 171.047 181.863C171.195 181.9 171.319 181.97 171.421 182.071C171.532 182.173 171.596 182.297 171.615 182.445C171.642 182.583 171.605 182.726 171.504 182.874L170.161 184.812ZM175.281 192.702C174.682 192.702 174.179 192.601 173.773 192.398C173.376 192.195 173.08 191.9 172.887 191.512C172.693 191.115 172.596 190.626 172.596 190.045V187.096H171.876C171.655 187.096 171.484 187.041 171.364 186.93C171.244 186.81 171.184 186.648 171.184 186.445C171.184 186.233 171.244 186.072 171.364 185.961C171.484 185.85 171.655 185.795 171.876 185.795H172.596V184.535C172.596 184.249 172.67 184.032 172.817 183.885C172.974 183.737 173.191 183.663 173.468 183.663C173.745 183.663 173.957 183.737 174.105 183.885C174.252 184.032 174.326 184.249 174.326 184.535V185.795H175.794C176.015 185.795 176.186 185.85 176.306 185.961C176.426 186.072 176.486 186.233 176.486 186.445C176.486 186.648 176.426 186.81 176.306 186.93C176.186 187.041 176.015 187.096 175.794 187.096H174.326V189.948C174.326 190.391 174.423 190.723 174.617 190.944C174.811 191.166 175.125 191.277 175.558 191.277C175.715 191.277 175.854 191.263 175.974 191.235C176.094 191.207 176.2 191.189 176.292 191.18C176.403 191.17 176.495 191.207 176.569 191.29C176.643 191.364 176.68 191.521 176.68 191.761C176.68 191.946 176.647 192.112 176.583 192.259C176.527 192.398 176.421 192.495 176.264 192.55C176.144 192.587 175.987 192.619 175.794 192.647C175.6 192.684 175.429 192.702 175.281 192.702ZM179.944 192.702C179.381 192.702 178.915 192.601 178.545 192.398C178.176 192.186 177.899 191.872 177.715 191.457C177.54 191.041 177.452 190.524 177.452 189.906V186.556C177.452 186.261 177.526 186.044 177.673 185.906C177.821 185.758 178.033 185.684 178.31 185.684C178.587 185.684 178.799 185.758 178.947 185.906C179.104 186.044 179.182 186.261 179.182 186.556V189.934C179.182 190.414 179.279 190.769 179.473 191C179.667 191.23 179.976 191.346 180.4 191.346C180.862 191.346 181.24 191.189 181.536 190.875C181.831 190.552 181.978 190.128 181.978 189.602V186.556C181.978 186.261 182.052 186.044 182.2 185.906C182.348 185.758 182.56 185.684 182.837 185.684C183.114 185.684 183.326 185.758 183.474 185.906C183.63 186.044 183.709 186.261 183.709 186.556V191.789C183.709 192.379 183.427 192.675 182.864 192.675C182.597 192.675 182.389 192.601 182.241 192.453C182.094 192.296 182.02 192.075 182.02 191.789V190.737L182.214 191.152C182.02 191.65 181.725 192.033 181.328 192.301C180.94 192.569 180.479 192.702 179.944 192.702ZM187.822 192.702C187.056 192.702 186.479 192.486 186.091 192.052C185.704 191.609 185.51 190.963 185.51 190.114V183.566C185.51 183.28 185.584 183.063 185.731 182.916C185.879 182.768 186.091 182.694 186.368 182.694C186.645 182.694 186.857 182.768 187.005 182.916C187.162 183.063 187.24 183.28 187.24 183.566V190.031C187.24 190.455 187.328 190.769 187.503 190.972C187.688 191.175 187.946 191.277 188.278 191.277C188.352 191.277 188.421 191.277 188.486 191.277C188.551 191.267 188.615 191.258 188.68 191.249C188.809 191.23 188.897 191.267 188.943 191.36C188.989 191.443 189.012 191.618 189.012 191.886C189.012 192.116 188.966 192.296 188.874 192.426C188.781 192.555 188.629 192.633 188.417 192.661C188.325 192.67 188.228 192.679 188.126 192.689C188.025 192.698 187.923 192.702 187.822 192.702ZM192.95 192.702C192.248 192.702 191.639 192.559 191.122 192.273C190.606 191.987 190.204 191.581 189.918 191.055C189.632 190.52 189.489 189.892 189.489 189.172C189.489 188.628 189.567 188.144 189.724 187.719C189.89 187.285 190.126 186.916 190.43 186.612C190.735 186.298 191.099 186.062 191.524 185.906C191.948 185.739 192.424 185.656 192.95 185.656C193.651 185.656 194.26 185.799 194.777 186.086C195.294 186.372 195.695 186.778 195.981 187.304C196.267 187.83 196.41 188.453 196.41 189.172C196.41 189.717 196.327 190.206 196.161 190.64C196.004 191.074 195.774 191.447 195.469 191.761C195.165 192.066 194.8 192.301 194.376 192.467C193.951 192.624 193.476 192.702 192.95 192.702ZM192.95 191.387C193.291 191.387 193.591 191.304 193.849 191.138C194.108 190.972 194.306 190.728 194.445 190.405C194.592 190.072 194.666 189.662 194.666 189.172C194.666 188.434 194.509 187.885 194.196 187.525C193.882 187.156 193.466 186.971 192.95 186.971C192.608 186.971 192.308 187.055 192.05 187.221C191.792 187.378 191.588 187.622 191.441 187.954C191.302 188.277 191.233 188.683 191.233 189.172C191.233 189.902 191.39 190.455 191.704 190.834C192.018 191.203 192.433 191.387 192.95 191.387Z" fill="#101E37"/>
<g clip-path="url(#clip4_4533_10859)">
<path d="M624.21 188.871H620.173V192.909C620.173 193.353 619.809 193.716 619.365 193.716C618.921 193.716 618.558 193.353 618.558 192.909V188.871H614.52C614.076 188.871 613.713 188.508 613.713 188.064C613.713 187.62 614.076 187.256 614.52 187.256H618.558V183.219C618.558 182.775 618.921 182.411 619.365 182.411C619.809 182.411 620.173 182.775 620.173 183.219V187.256H624.21C624.654 187.256 625.018 187.62 625.018 188.064C625.018 188.508 624.654 188.871 624.21 188.871Z" fill="#101E37"/>
</g>
<rect x="141.094" y="219.21" width="505.264" height="42.9128" rx="6.22928" fill="#F3F6F9"/>
<rect x="141.094" y="219.21" width="505.264" height="42.9128" rx="6.22928" stroke="#E6EBF0" stroke-width="1.38429"/>
<path d="M162.703 245.278C162.417 245.278 162.195 245.199 162.038 245.042C161.891 244.876 161.817 244.65 161.817 244.364V236.889H159.118C158.878 236.889 158.689 236.824 158.55 236.695C158.421 236.557 158.356 236.372 158.356 236.141C158.356 235.901 158.421 235.721 158.55 235.601C158.689 235.472 158.878 235.408 159.118 235.408H166.288C166.528 235.408 166.713 235.472 166.842 235.601C166.98 235.721 167.05 235.901 167.05 236.141C167.05 236.372 166.98 236.557 166.842 236.695C166.713 236.824 166.528 236.889 166.288 236.889H163.589V244.364C163.589 244.65 163.515 244.876 163.367 245.042C163.22 245.199 162.998 245.278 162.703 245.278ZM169.511 245.264C169.234 245.264 169.021 245.181 168.874 245.015C168.726 244.848 168.652 244.618 168.652 244.322V239.242C168.652 238.938 168.726 238.707 168.874 238.55C169.021 238.384 169.234 238.301 169.511 238.301C169.787 238.301 170 238.384 170.147 238.55C170.304 238.707 170.383 238.938 170.383 239.242V244.322C170.383 244.618 170.309 244.848 170.161 245.015C170.014 245.181 169.797 245.264 169.511 245.264ZM170.161 237.415C170.069 237.544 169.958 237.618 169.829 237.636C169.7 237.655 169.575 237.632 169.455 237.567C169.335 237.503 169.248 237.41 169.192 237.29C169.146 237.17 169.16 237.036 169.234 236.889L170.286 234.826C170.369 234.651 170.48 234.54 170.618 234.494C170.756 234.439 170.9 234.429 171.047 234.466C171.195 234.503 171.319 234.572 171.421 234.674C171.532 234.775 171.596 234.9 171.615 235.048C171.642 235.186 171.605 235.329 171.504 235.477L170.161 237.415ZM175.281 245.305C174.682 245.305 174.179 245.204 173.773 245.001C173.376 244.798 173.08 244.502 172.887 244.115C172.693 243.718 172.596 243.229 172.596 242.647V239.699H171.876C171.655 239.699 171.484 239.644 171.364 239.533C171.244 239.413 171.184 239.251 171.184 239.048C171.184 238.836 171.244 238.675 171.364 238.564C171.484 238.453 171.655 238.398 171.876 238.398H172.596V237.138C172.596 236.852 172.67 236.635 172.817 236.487C172.974 236.34 173.191 236.266 173.468 236.266C173.745 236.266 173.957 236.34 174.105 236.487C174.252 236.635 174.326 236.852 174.326 237.138V238.398H175.794C176.015 238.398 176.186 238.453 176.306 238.564C176.426 238.675 176.486 238.836 176.486 239.048C176.486 239.251 176.426 239.413 176.306 239.533C176.186 239.644 176.015 239.699 175.794 239.699H174.326V242.551C174.326 242.994 174.423 243.326 174.617 243.547C174.811 243.769 175.125 243.879 175.558 243.879C175.715 243.879 175.854 243.866 175.974 243.838C176.094 243.81 176.2 243.792 176.292 243.783C176.403 243.773 176.495 243.81 176.569 243.893C176.643 243.967 176.68 244.124 176.68 244.364C176.68 244.549 176.647 244.715 176.583 244.862C176.527 245.001 176.421 245.098 176.264 245.153C176.144 245.19 175.987 245.222 175.794 245.25C175.6 245.287 175.429 245.305 175.281 245.305ZM179.944 245.305C179.381 245.305 178.915 245.204 178.545 245.001C178.176 244.788 177.899 244.475 177.715 244.059C177.54 243.644 177.452 243.127 177.452 242.509V239.159C177.452 238.864 177.526 238.647 177.673 238.508C177.821 238.361 178.033 238.287 178.31 238.287C178.587 238.287 178.799 238.361 178.947 238.508C179.104 238.647 179.182 238.864 179.182 239.159V242.537C179.182 243.017 179.279 243.372 179.473 243.603C179.667 243.833 179.976 243.949 180.4 243.949C180.862 243.949 181.24 243.792 181.536 243.478C181.831 243.155 181.978 242.73 181.978 242.204V239.159C181.978 238.864 182.052 238.647 182.2 238.508C182.348 238.361 182.56 238.287 182.837 238.287C183.114 238.287 183.326 238.361 183.474 238.508C183.63 238.647 183.709 238.864 183.709 239.159V244.392C183.709 244.982 183.427 245.278 182.864 245.278C182.597 245.278 182.389 245.204 182.241 245.056C182.094 244.899 182.02 244.678 182.02 244.392V243.34L182.214 243.755C182.02 244.253 181.725 244.636 181.328 244.904C180.94 245.171 180.479 245.305 179.944 245.305ZM187.822 245.305C187.056 245.305 186.479 245.088 186.091 244.655C185.704 244.212 185.51 243.566 185.51 242.717V236.169C185.51 235.883 185.584 235.666 185.731 235.518C185.879 235.371 186.091 235.297 186.368 235.297C186.645 235.297 186.857 235.371 187.005 235.518C187.162 235.666 187.24 235.883 187.24 236.169V242.634C187.24 243.058 187.328 243.372 187.503 243.575C187.688 243.778 187.946 243.879 188.278 243.879C188.352 243.879 188.421 243.879 188.486 243.879C188.551 243.87 188.615 243.861 188.68 243.852C188.809 243.833 188.897 243.87 188.943 243.963C188.989 244.046 189.012 244.221 189.012 244.489C189.012 244.719 188.966 244.899 188.874 245.028C188.781 245.158 188.629 245.236 188.417 245.264C188.325 245.273 188.228 245.282 188.126 245.291C188.025 245.301 187.923 245.305 187.822 245.305ZM192.95 245.305C192.248 245.305 191.639 245.162 191.122 244.876C190.606 244.59 190.204 244.184 189.918 243.658C189.632 243.123 189.489 242.495 189.489 241.775C189.489 241.231 189.567 240.746 189.724 240.322C189.89 239.888 190.126 239.519 190.43 239.214C190.735 238.901 191.099 238.665 191.524 238.508C191.948 238.342 192.424 238.259 192.95 238.259C193.651 238.259 194.26 238.402 194.777 238.688C195.294 238.974 195.695 239.381 195.981 239.907C196.267 240.433 196.41 241.056 196.41 241.775C196.41 242.32 196.327 242.809 196.161 243.243C196.004 243.676 195.774 244.05 195.469 244.364C195.165 244.668 194.8 244.904 194.376 245.07C193.951 245.227 193.476 245.305 192.95 245.305ZM192.95 243.99C193.291 243.99 193.591 243.907 193.849 243.741C194.108 243.575 194.306 243.33 194.445 243.007C194.592 242.675 194.666 242.264 194.666 241.775C194.666 241.037 194.509 240.488 194.196 240.128C193.882 239.759 193.466 239.574 192.95 239.574C192.608 239.574 192.308 239.657 192.05 239.823C191.792 239.98 191.588 240.225 191.441 240.557C191.302 240.88 191.233 241.286 191.233 241.775C191.233 242.504 191.39 243.058 191.704 243.436C192.018 243.806 192.433 243.99 192.95 243.99Z" fill="#101E37"/>
<g clip-path="url(#clip5_4533_10859)">
<path d="M624.21 241.474H620.173V245.512C620.173 245.956 619.809 246.319 619.365 246.319C618.921 246.319 618.558 245.956 618.558 245.512V241.474H614.52C614.076 241.474 613.713 241.111 613.713 240.667C613.713 240.223 614.076 239.859 614.52 239.859H618.558V235.822C618.558 235.378 618.921 235.014 619.365 235.014C619.809 235.014 620.173 235.378 620.173 235.822V239.859H624.21C624.654 239.859 625.018 240.223 625.018 240.667C625.018 241.111 624.654 241.474 624.21 241.474Z" fill="#101E37"/>
</g>
<rect x="141.094" y="271.813" width="505.264" height="42.9128" rx="6.22928" fill="#F3F6F9"/>
<rect x="141.094" y="271.813" width="505.264" height="42.9128" rx="6.22928" stroke="#E6EBF0" stroke-width="1.38429"/>
<path d="M162.703 297.88C162.417 297.88 162.195 297.802 162.038 297.645C161.891 297.479 161.817 297.253 161.817 296.967V289.492H159.118C158.878 289.492 158.689 289.427 158.55 289.298C158.421 289.159 158.356 288.975 158.356 288.744C158.356 288.504 158.421 288.324 158.55 288.204C158.689 288.075 158.878 288.01 159.118 288.01H166.288C166.528 288.01 166.713 288.075 166.842 288.204C166.98 288.324 167.05 288.504 167.05 288.744C167.05 288.975 166.98 289.159 166.842 289.298C166.713 289.427 166.528 289.492 166.288 289.492H163.589V296.967C163.589 297.253 163.515 297.479 163.367 297.645C163.22 297.802 162.998 297.88 162.703 297.88ZM169.511 297.867C169.234 297.867 169.021 297.784 168.874 297.617C168.726 297.451 168.652 297.221 168.652 296.925V291.845C168.652 291.54 168.726 291.31 168.874 291.153C169.021 290.987 169.234 290.904 169.511 290.904C169.787 290.904 170 290.987 170.147 291.153C170.304 291.31 170.383 291.54 170.383 291.845V296.925C170.383 297.221 170.309 297.451 170.161 297.617C170.014 297.784 169.797 297.867 169.511 297.867ZM170.161 290.018C170.069 290.147 169.958 290.221 169.829 290.239C169.7 290.258 169.575 290.235 169.455 290.17C169.335 290.105 169.248 290.013 169.192 289.893C169.146 289.773 169.16 289.639 169.234 289.492L170.286 287.429C170.369 287.254 170.48 287.143 170.618 287.097C170.756 287.041 170.9 287.032 171.047 287.069C171.195 287.106 171.319 287.175 171.421 287.277C171.532 287.378 171.596 287.503 171.615 287.651C171.642 287.789 171.605 287.932 171.504 288.08L170.161 290.018ZM175.281 297.908C174.682 297.908 174.179 297.807 173.773 297.604C173.376 297.401 173.08 297.105 172.887 296.718C172.693 296.321 172.596 295.832 172.596 295.25V292.302H171.876C171.655 292.302 171.484 292.246 171.364 292.136C171.244 292.016 171.184 291.854 171.184 291.651C171.184 291.439 171.244 291.277 171.364 291.167C171.484 291.056 171.655 291.001 171.876 291.001H172.596V289.741C172.596 289.455 172.67 289.238 172.817 289.09C172.974 288.943 173.191 288.869 173.468 288.869C173.745 288.869 173.957 288.943 174.105 289.09C174.252 289.238 174.326 289.455 174.326 289.741V291.001H175.794C176.015 291.001 176.186 291.056 176.306 291.167C176.426 291.277 176.486 291.439 176.486 291.651C176.486 291.854 176.426 292.016 176.306 292.136C176.186 292.246 176.015 292.302 175.794 292.302H174.326V295.153C174.326 295.596 174.423 295.929 174.617 296.15C174.811 296.372 175.125 296.482 175.558 296.482C175.715 296.482 175.854 296.468 175.974 296.441C176.094 296.413 176.2 296.395 176.292 296.385C176.403 296.376 176.495 296.413 176.569 296.496C176.643 296.57 176.68 296.727 176.68 296.967C176.68 297.151 176.647 297.317 176.583 297.465C176.527 297.604 176.421 297.7 176.264 297.756C176.144 297.793 175.987 297.825 175.794 297.853C175.6 297.89 175.429 297.908 175.281 297.908ZM179.944 297.908C179.381 297.908 178.915 297.807 178.545 297.604C178.176 297.391 177.899 297.078 177.715 296.662C177.54 296.247 177.452 295.73 177.452 295.112V291.762C177.452 291.467 177.526 291.25 177.673 291.111C177.821 290.964 178.033 290.89 178.31 290.89C178.587 290.89 178.799 290.964 178.947 291.111C179.104 291.25 179.182 291.467 179.182 291.762V295.14C179.182 295.619 179.279 295.975 179.473 296.205C179.667 296.436 179.976 296.551 180.4 296.551C180.862 296.551 181.24 296.395 181.536 296.081C181.831 295.758 181.978 295.333 181.978 294.807V291.762C181.978 291.467 182.052 291.25 182.2 291.111C182.348 290.964 182.56 290.89 182.837 290.89C183.114 290.89 183.326 290.964 183.474 291.111C183.63 291.25 183.709 291.467 183.709 291.762V296.994C183.709 297.585 183.427 297.88 182.864 297.88C182.597 297.88 182.389 297.807 182.241 297.659C182.094 297.502 182.02 297.281 182.02 296.994V295.942L182.214 296.358C182.02 296.856 181.725 297.239 181.328 297.507C180.94 297.774 180.479 297.908 179.944 297.908ZM187.822 297.908C187.056 297.908 186.479 297.691 186.091 297.257C185.704 296.815 185.51 296.169 185.51 295.319V288.772C185.51 288.486 185.584 288.269 185.731 288.121C185.879 287.974 186.091 287.9 186.368 287.9C186.645 287.9 186.857 287.974 187.005 288.121C187.162 288.269 187.24 288.486 187.24 288.772V295.236C187.24 295.661 187.328 295.975 187.503 296.178C187.688 296.381 187.946 296.482 188.278 296.482C188.352 296.482 188.421 296.482 188.486 296.482C188.551 296.473 188.615 296.464 188.68 296.455C188.809 296.436 188.897 296.473 188.943 296.565C188.989 296.648 189.012 296.824 189.012 297.091C189.012 297.322 188.966 297.502 188.874 297.631C188.781 297.76 188.629 297.839 188.417 297.867C188.325 297.876 188.228 297.885 188.126 297.894C188.025 297.903 187.923 297.908 187.822 297.908ZM192.95 297.908C192.248 297.908 191.639 297.765 191.122 297.479C190.606 297.193 190.204 296.787 189.918 296.261C189.632 295.726 189.489 295.098 189.489 294.378C189.489 293.834 189.567 293.349 189.724 292.925C189.89 292.491 190.126 292.122 190.43 291.817C190.735 291.503 191.099 291.268 191.524 291.111C191.948 290.945 192.424 290.862 192.95 290.862C193.651 290.862 194.26 291.005 194.777 291.291C195.294 291.577 195.695 291.983 195.981 292.509C196.267 293.035 196.41 293.658 196.41 294.378C196.41 294.923 196.327 295.412 196.161 295.846C196.004 296.279 195.774 296.653 195.469 296.967C195.165 297.271 194.8 297.507 194.376 297.673C193.951 297.83 193.476 297.908 192.95 297.908ZM192.95 296.593C193.291 296.593 193.591 296.51 193.849 296.344C194.108 296.178 194.306 295.933 194.445 295.61C194.592 295.278 194.666 294.867 194.666 294.378C194.666 293.64 194.509 293.091 194.196 292.731C193.882 292.362 193.466 292.177 192.95 292.177C192.608 292.177 192.308 292.26 192.05 292.426C191.792 292.583 191.588 292.828 191.441 293.16C191.302 293.483 191.233 293.889 191.233 294.378C191.233 295.107 191.39 295.661 191.704 296.039C192.018 296.408 192.433 296.593 192.95 296.593Z" fill="#101E37"/>
<g clip-path="url(#clip6_4533_10859)">
<path d="M624.21 294.077H620.173V298.115C620.173 298.559 619.809 298.922 619.365 298.922C618.921 298.922 618.558 298.559 618.558 298.115V294.077H614.52C614.076 294.077 613.713 293.714 613.713 293.27C613.713 292.825 614.076 292.462 614.52 292.462H618.558V288.425C618.558 287.98 618.921 287.617 619.365 287.617C619.809 287.617 620.173 287.98 620.173 288.425V292.462H624.21C624.654 292.462 625.018 292.825 625.018 293.27C625.018 293.714 624.654 294.077 624.21 294.077Z" fill="#101E37"/>
</g>
</g>
</g>
<rect x="1" y="1" width="726" height="345" rx="7" stroke="#E6EBF0" stroke-width="2"/>
<defs>
<clipPath id="clip0_4533_10859">
<rect width="728" height="347" rx="8" fill="white"/>
</clipPath>
<clipPath id="clip1_4533_10859">
<rect width="945" height="552" fill="white" transform="translate(52.5 -20)"/>
</clipPath>
<clipPath id="clip2_4533_10859">
<rect width="19.38" height="19.38" fill="white" transform="translate(609.675 73.1683)"/>
</clipPath>
<clipPath id="clip3_4533_10859">
<rect width="19.38" height="19.38" fill="white" transform="translate(609.675 125.771)"/>
</clipPath>
<clipPath id="clip4_4533_10859">
<rect width="19.38" height="19.38" fill="white" transform="translate(609.675 178.374)"/>
</clipPath>
<clipPath id="clip5_4533_10859">
<rect width="19.38" height="19.38" fill="white" transform="translate(609.675 230.977)"/>
</clipPath>
<clipPath id="clip6_4533_10859">
<rect width="19.38" height="19.38" fill="white" transform="translate(609.675 283.58)"/>
</clipPath>
</defs>
</svg>
