<svg width="728" height="166" viewBox="0 0 728 166" fill="none" xmlns="http://www.w3.org/2000/svg">
<rect x="0.5" y="0.5" width="727" height="165" rx="7.5" fill="white"/>
<rect x="0.5" y="0.5" width="727" height="165" rx="7.5" stroke="#E6EBF0"/>
<rect x="140.5" y="33" width="447" height="52" rx="10" fill="white"/>
<rect x="140.5" y="33" width="447" height="52" rx="10" stroke="#218274" stroke-width="4"/>
<path d="M166.422 65H160.062V53.5781H166.422V54.75H161.391V58.4453H166.133V59.6016H161.391V63.8281H166.422V65ZM174.297 62.6562C174.297 63.2031 174.159 63.6641 173.883 64.0391C173.612 64.4089 173.221 64.6875 172.711 64.875C172.206 65.0625 171.602 65.1562 170.898 65.1562C170.299 65.1562 169.781 65.1094 169.344 65.0156C168.906 64.9219 168.523 64.7891 168.195 64.6172V63.4219C168.544 63.5938 168.961 63.75 169.445 63.8906C169.93 64.0312 170.424 64.1016 170.93 64.1016C171.669 64.1016 172.206 63.9818 172.539 63.7422C172.872 63.5026 173.039 63.1771 173.039 62.7656C173.039 62.5312 172.971 62.3255 172.836 62.1484C172.706 61.9661 172.484 61.7917 172.172 61.625C171.859 61.4531 171.427 61.2656 170.875 61.0625C170.328 60.8542 169.854 60.6484 169.453 60.4453C169.057 60.237 168.75 59.9844 168.531 59.6875C168.318 59.3906 168.211 59.0052 168.211 58.5312C168.211 57.8073 168.503 57.2526 169.086 56.8672C169.674 56.4766 170.445 56.2812 171.398 56.2812C171.914 56.2812 172.396 56.3333 172.844 56.4375C173.297 56.5365 173.719 56.6719 174.109 56.8438L173.672 57.8828C173.318 57.7318 172.94 57.6042 172.539 57.5C172.138 57.3958 171.729 57.3438 171.312 57.3438C170.714 57.3438 170.253 57.4427 169.93 57.6406C169.612 57.8385 169.453 58.1094 169.453 58.4531C169.453 58.7188 169.526 58.9375 169.672 59.1094C169.823 59.2812 170.062 59.4427 170.391 59.5938C170.719 59.7448 171.151 59.9219 171.688 60.125C172.224 60.3229 172.688 60.5286 173.078 60.7422C173.469 60.9505 173.768 61.2057 173.977 61.5078C174.19 61.8047 174.297 62.1875 174.297 62.6562ZM179.812 65.1562C179.042 65.1562 178.362 64.9974 177.773 64.6797C177.185 64.362 176.727 63.8776 176.398 63.2266C176.07 62.5755 175.906 61.7552 175.906 60.7656C175.906 59.7292 176.078 58.8828 176.422 58.2266C176.771 57.5651 177.25 57.0755 177.859 56.7578C178.469 56.4401 179.161 56.2812 179.938 56.2812C180.365 56.2812 180.776 56.3255 181.172 56.4141C181.573 56.4974 181.901 56.6042 182.156 56.7344L181.766 57.8203C181.505 57.7161 181.203 57.6224 180.859 57.5391C180.521 57.4557 180.203 57.4141 179.906 57.4141C179.312 57.4141 178.818 57.5417 178.422 57.7969C178.031 58.0521 177.737 58.4271 177.539 58.9219C177.346 59.4167 177.25 60.026 177.25 60.75C177.25 61.4427 177.344 62.0339 177.531 62.5234C177.724 63.013 178.008 63.388 178.383 63.6484C178.763 63.9036 179.237 64.0312 179.805 64.0312C180.258 64.0312 180.667 63.9844 181.031 63.8906C181.396 63.7917 181.727 63.6771 182.023 63.5469V64.7031C181.737 64.849 181.417 64.9609 181.062 65.0391C180.714 65.1172 180.297 65.1562 179.812 65.1562ZM187.945 56.2812C188.117 56.2812 188.297 56.2917 188.484 56.3125C188.672 56.3281 188.839 56.3516 188.984 56.3828L188.82 57.5859C188.68 57.5495 188.523 57.5208 188.352 57.5C188.18 57.4792 188.018 57.4688 187.867 57.4688C187.523 57.4688 187.198 57.5391 186.891 57.6797C186.589 57.8151 186.323 58.013 186.094 58.2734C185.865 58.5286 185.685 58.8385 185.555 59.2031C185.424 59.5625 185.359 59.9635 185.359 60.4062V65H184.055V56.4375H185.133L185.273 58.0156H185.328C185.505 57.6979 185.719 57.4089 185.969 57.1484C186.219 56.8828 186.508 56.6719 186.836 56.5156C187.169 56.3594 187.539 56.2812 187.945 56.2812ZM191.898 56.4375V65H190.602V56.4375H191.898ZM191.266 53.2344C191.479 53.2344 191.661 53.3047 191.812 53.4453C191.969 53.5807 192.047 53.7943 192.047 54.0859C192.047 54.3724 191.969 54.5859 191.812 54.7266C191.661 54.8672 191.479 54.9375 191.266 54.9375C191.042 54.9375 190.854 54.8672 190.703 54.7266C190.557 54.5859 190.484 54.3724 190.484 54.0859C190.484 53.7943 190.557 53.5807 190.703 53.4453C190.854 53.3047 191.042 53.2344 191.266 53.2344ZM195.945 52.8438V55.8828C195.945 56.2318 195.935 56.5703 195.914 56.8984C195.898 57.2266 195.885 57.4818 195.875 57.6641H195.945C196.18 57.2786 196.518 56.9531 196.961 56.6875C197.404 56.4219 197.969 56.2891 198.656 56.2891C199.729 56.2891 200.583 56.6615 201.219 57.4062C201.859 58.1458 202.18 59.2474 202.18 60.7109C202.18 61.6745 202.034 62.487 201.742 63.1484C201.451 63.8099 201.039 64.3099 200.508 64.6484C199.977 64.987 199.349 65.1562 198.625 65.1562C197.948 65.1562 197.391 65.0312 196.953 64.7812C196.521 64.526 196.188 64.2161 195.953 63.8516H195.852L195.586 65H194.648V52.8438H195.945ZM198.445 57.375C197.826 57.375 197.333 57.4974 196.969 57.7422C196.604 57.9818 196.341 58.3464 196.18 58.8359C196.023 59.3203 195.945 59.9349 195.945 60.6797V60.75C195.945 61.8281 196.125 62.6536 196.484 63.2266C196.844 63.7943 197.497 64.0781 198.445 64.0781C199.242 64.0781 199.839 63.7865 200.234 63.2031C200.635 62.6198 200.836 61.7865 200.836 60.7031C200.836 59.599 200.638 58.7682 200.242 58.2109C199.852 57.6536 199.253 57.375 198.445 57.375ZM205.742 56.4375V65H204.445V56.4375H205.742ZM205.109 53.2344C205.323 53.2344 205.505 53.3047 205.656 53.4453C205.812 53.5807 205.891 53.7943 205.891 54.0859C205.891 54.3724 205.812 54.5859 205.656 54.7266C205.505 54.8672 205.323 54.9375 205.109 54.9375C204.885 54.9375 204.698 54.8672 204.547 54.7266C204.401 54.5859 204.328 54.3724 204.328 54.0859C204.328 53.7943 204.401 53.5807 204.547 53.4453C204.698 53.3047 204.885 53.2344 205.109 53.2344ZM211.789 56.2812C212.518 56.2812 213.143 56.4427 213.664 56.7656C214.185 57.0885 214.583 57.5417 214.859 58.125C215.135 58.7031 215.273 59.3802 215.273 60.1562V60.9609H209.359C209.375 61.9661 209.625 62.7318 210.109 63.2578C210.594 63.7839 211.276 64.0469 212.156 64.0469C212.698 64.0469 213.177 63.9974 213.594 63.8984C214.01 63.7995 214.443 63.6536 214.891 63.4609V64.6016C214.458 64.7943 214.029 64.9349 213.602 65.0234C213.18 65.112 212.68 65.1562 212.102 65.1562C211.279 65.1562 210.56 64.9896 209.945 64.6562C209.336 64.3177 208.862 63.8229 208.523 63.1719C208.185 62.5208 208.016 61.724 208.016 60.7812C208.016 59.8594 208.169 59.0625 208.477 58.3906C208.789 57.7135 209.227 57.1927 209.789 56.8281C210.357 56.4635 211.023 56.2812 211.789 56.2812ZM211.773 57.3438C211.081 57.3438 210.529 57.5703 210.117 58.0234C209.706 58.4766 209.461 59.1094 209.383 59.9219H213.914C213.909 59.4115 213.828 58.9635 213.672 58.5781C213.521 58.1875 213.289 57.8854 212.977 57.6719C212.664 57.4531 212.263 57.3438 211.773 57.3438ZM221.531 56.2812C222.547 56.2812 223.315 56.5312 223.836 57.0312C224.357 57.526 224.617 58.3229 224.617 59.4219V65H223.336V59.5078C223.336 58.7943 223.172 58.2604 222.844 57.9062C222.521 57.5521 222.023 57.375 221.352 57.375C220.404 57.375 219.737 57.6432 219.352 58.1797C218.966 58.7161 218.773 59.4948 218.773 60.5156V65H217.477V56.4375H218.523L218.719 57.6719H218.789C218.971 57.3698 219.203 57.1172 219.484 56.9141C219.766 56.7057 220.081 56.5495 220.43 56.4453C220.779 56.3359 221.146 56.2812 221.531 56.2812ZM229.766 52.8359H230.852V68.875H229.766V52.8359Z" fill="#101E37"/>
<mask id="path-4-inside-1_3593_4217" fill="white">
<path d="M505.5 47H537.5V71H505.5V47Z"/>
</mask>
<path d="M537.5 47H536.5V71H537.5H538.5V47H537.5Z" fill="#101E37" mask="url(#path-4-inside-1_3593_4217)"/>
<path d="M523.8 52.71C523.41 52.32 522.78 52.32 522.39 52.71L517.5 57.59L512.61 52.7C512.22 52.31 511.59 52.31 511.2 52.7C510.81 53.09 510.81 53.72 511.2 54.11L516.09 59L511.2 63.89C510.81 64.28 510.81 64.91 511.2 65.3C511.59 65.69 512.22 65.69 512.61 65.3L517.5 60.41L522.39 65.3C522.78 65.69 523.41 65.69 523.8 65.3C524.19 64.91 524.19 64.28 523.8 63.89L518.91 59L523.8 54.11C524.18 53.73 524.18 53.09 523.8 52.71Z" fill="#101E37"/>
<path d="M561.477 61.4716H560.687L560.407 61.2016C561.607 59.8016 562.227 57.8916 561.887 55.8616C561.417 53.0816 559.097 50.8616 556.297 50.5216C552.067 50.0016 548.507 53.5616 549.027 57.7916C549.367 60.5916 551.587 62.9116 554.367 63.3816C556.397 63.7216 558.307 63.1016 559.707 61.9016L559.977 62.1816V62.9716L564.227 67.2216C564.637 67.6316 565.307 67.6316 565.717 67.2216C566.127 66.8116 566.127 66.1416 565.717 65.7316L561.477 61.4716ZM555.477 61.4716C552.987 61.4716 550.977 59.4616 550.977 56.9716C550.977 54.4816 552.987 52.4716 555.477 52.4716C557.967 52.4716 559.977 54.4816 559.977 56.9716C559.977 59.4616 557.967 61.4716 555.477 61.4716Z" fill="#101E37"/>
<path d="M149.432 106H143.867V96.0059H149.432V97.0312H145.029V100.265H149.179V101.276H145.029V104.975H149.432V106ZM156.322 103.949C156.322 104.428 156.201 104.831 155.96 105.159C155.723 105.483 155.381 105.727 154.935 105.891C154.493 106.055 153.964 106.137 153.349 106.137C152.825 106.137 152.371 106.096 151.988 106.014C151.605 105.932 151.271 105.815 150.983 105.665V104.619C151.289 104.77 151.653 104.906 152.077 105.029C152.501 105.152 152.934 105.214 153.376 105.214C154.023 105.214 154.493 105.109 154.784 104.899C155.076 104.69 155.222 104.405 155.222 104.045C155.222 103.84 155.162 103.66 155.044 103.505C154.93 103.345 154.736 103.193 154.463 103.047C154.189 102.896 153.811 102.732 153.328 102.555C152.85 102.372 152.435 102.192 152.084 102.015C151.738 101.832 151.469 101.611 151.277 101.352C151.09 101.092 150.997 100.755 150.997 100.34C150.997 99.7064 151.252 99.221 151.763 98.8838C152.278 98.542 152.952 98.3711 153.786 98.3711C154.237 98.3711 154.659 98.4167 155.051 98.5078C155.447 98.5944 155.816 98.7129 156.158 98.8633L155.775 99.7725C155.465 99.6403 155.135 99.5286 154.784 99.4375C154.433 99.3464 154.076 99.3008 153.711 99.3008C153.187 99.3008 152.784 99.3874 152.501 99.5605C152.223 99.7337 152.084 99.9707 152.084 100.271C152.084 100.504 152.148 100.695 152.275 100.846C152.408 100.996 152.617 101.137 152.904 101.27C153.191 101.402 153.57 101.557 154.039 101.734C154.508 101.908 154.914 102.088 155.256 102.274C155.598 102.457 155.86 102.68 156.042 102.944C156.229 103.204 156.322 103.539 156.322 103.949ZM160.567 105.207C160.754 105.207 160.946 105.191 161.142 105.159C161.338 105.127 161.497 105.089 161.62 105.043V105.925C161.488 105.984 161.303 106.034 161.066 106.075C160.834 106.116 160.606 106.137 160.383 106.137C159.986 106.137 159.626 106.068 159.303 105.932C158.979 105.79 158.719 105.553 158.523 105.221C158.332 104.888 158.236 104.428 158.236 103.84V99.3965H157.17V98.8428L158.243 98.3984L158.694 96.7715H159.378V98.5078H161.572V99.3965H159.378V103.806C159.378 104.275 159.485 104.626 159.699 104.858C159.918 105.091 160.207 105.207 160.567 105.207ZM166.022 98.3711C166.66 98.3711 167.207 98.5124 167.663 98.7949C168.119 99.0775 168.467 99.474 168.709 99.9844C168.951 100.49 169.071 101.083 169.071 101.762V102.466H163.896C163.91 103.345 164.129 104.015 164.553 104.476C164.977 104.936 165.574 105.166 166.344 105.166C166.818 105.166 167.237 105.123 167.602 105.036C167.966 104.95 168.344 104.822 168.736 104.653V105.651C168.358 105.82 167.982 105.943 167.608 106.021C167.239 106.098 166.802 106.137 166.296 106.137C165.576 106.137 164.947 105.991 164.409 105.699C163.876 105.403 163.461 104.97 163.165 104.4C162.869 103.831 162.721 103.133 162.721 102.309C162.721 101.502 162.855 100.805 163.124 100.217C163.397 99.6243 163.78 99.1686 164.272 98.8496C164.769 98.5306 165.353 98.3711 166.022 98.3711ZM166.009 99.3008C165.403 99.3008 164.92 99.499 164.56 99.8955C164.2 100.292 163.985 100.846 163.917 101.557H167.882C167.877 101.11 167.807 100.718 167.67 100.381C167.538 100.039 167.335 99.7747 167.062 99.5879C166.788 99.3965 166.437 99.3008 166.009 99.3008ZM177.521 98.3711C178.159 98.3711 178.705 98.5124 179.161 98.7949C179.617 99.0775 179.965 99.474 180.207 99.9844C180.449 100.49 180.569 101.083 180.569 101.762V102.466H175.395C175.408 103.345 175.627 104.015 176.051 104.476C176.475 104.936 177.072 105.166 177.842 105.166C178.316 105.166 178.735 105.123 179.1 105.036C179.464 104.95 179.842 104.822 180.234 104.653V105.651C179.856 105.82 179.48 105.943 179.106 106.021C178.737 106.098 178.3 106.137 177.794 106.137C177.074 106.137 176.445 105.991 175.907 105.699C175.374 105.403 174.959 104.97 174.663 104.4C174.367 103.831 174.219 103.133 174.219 102.309C174.219 101.502 174.353 100.805 174.622 100.217C174.896 99.6243 175.278 99.1686 175.771 98.8496C176.267 98.5306 176.851 98.3711 177.521 98.3711ZM177.507 99.3008C176.901 99.3008 176.418 99.499 176.058 99.8955C175.698 100.292 175.483 100.846 175.415 101.557H179.38C179.375 101.11 179.305 100.718 179.168 100.381C179.036 100.039 178.833 99.7747 178.56 99.5879C178.286 99.3965 177.935 99.3008 177.507 99.3008ZM187.344 103.949C187.344 104.428 187.223 104.831 186.981 105.159C186.744 105.483 186.403 105.727 185.956 105.891C185.514 106.055 184.985 106.137 184.37 106.137C183.846 106.137 183.393 106.096 183.01 106.014C182.627 105.932 182.292 105.815 182.005 105.665V104.619C182.31 104.77 182.675 104.906 183.099 105.029C183.522 105.152 183.955 105.214 184.397 105.214C185.045 105.214 185.514 105.109 185.806 104.899C186.097 104.69 186.243 104.405 186.243 104.045C186.243 103.84 186.184 103.66 186.065 103.505C185.951 103.345 185.758 103.193 185.484 103.047C185.211 102.896 184.833 102.732 184.35 102.555C183.871 102.372 183.456 102.192 183.105 102.015C182.759 101.832 182.49 101.611 182.299 101.352C182.112 101.092 182.019 100.755 182.019 100.34C182.019 99.7064 182.274 99.221 182.784 98.8838C183.299 98.542 183.974 98.3711 184.808 98.3711C185.259 98.3711 185.68 98.4167 186.072 98.5078C186.469 98.5944 186.838 98.7129 187.18 98.8633L186.797 99.7725C186.487 99.6403 186.157 99.5286 185.806 99.4375C185.455 99.3464 185.097 99.3008 184.732 99.3008C184.208 99.3008 183.805 99.3874 183.522 99.5605C183.244 99.7337 183.105 99.9707 183.105 100.271C183.105 100.504 183.169 100.695 183.297 100.846C183.429 100.996 183.639 101.137 183.926 101.27C184.213 101.402 184.591 101.557 185.061 101.734C185.53 101.908 185.936 102.088 186.277 102.274C186.619 102.457 186.881 102.68 187.063 102.944C187.25 103.204 187.344 103.539 187.344 103.949ZM198.992 98.5078V106H198.062L197.898 104.947H197.837C197.682 105.207 197.481 105.426 197.235 105.604C196.989 105.781 196.711 105.913 196.401 106C196.096 106.091 195.77 106.137 195.424 106.137C194.831 106.137 194.335 106.041 193.934 105.85C193.533 105.658 193.229 105.362 193.024 104.961C192.824 104.56 192.724 104.045 192.724 103.416V98.5078H193.872V103.334C193.872 103.958 194.013 104.425 194.296 104.735C194.578 105.041 195.009 105.193 195.588 105.193C196.144 105.193 196.586 105.089 196.914 104.879C197.247 104.669 197.486 104.362 197.632 103.956C197.778 103.546 197.851 103.045 197.851 102.452V98.5078H198.992ZM204.939 98.3711C205.828 98.3711 206.5 98.5898 206.956 99.0273C207.412 99.4603 207.64 100.158 207.64 101.119V106H206.519V101.194C206.519 100.57 206.375 100.103 206.088 99.793C205.805 99.4831 205.37 99.3281 204.782 99.3281C203.953 99.3281 203.369 99.5628 203.032 100.032C202.695 100.502 202.526 101.183 202.526 102.076V106H201.392V98.5078H202.308L202.479 99.5879H202.54C202.7 99.3236 202.902 99.1025 203.148 98.9248C203.395 98.7425 203.67 98.6058 203.976 98.5146C204.281 98.4189 204.602 98.3711 204.939 98.3711ZM216.034 105.207C216.221 105.207 216.412 105.191 216.608 105.159C216.804 105.127 216.964 105.089 217.087 105.043V105.925C216.955 105.984 216.77 106.034 216.533 106.075C216.301 106.116 216.073 106.137 215.85 106.137C215.453 106.137 215.093 106.068 214.77 105.932C214.446 105.79 214.186 105.553 213.99 105.221C213.799 104.888 213.703 104.428 213.703 103.84V99.3965H212.637V98.8428L213.71 98.3984L214.161 96.7715H214.845V98.5078H217.039V99.3965H214.845V103.806C214.845 104.275 214.952 104.626 215.166 104.858C215.385 105.091 215.674 105.207 216.034 105.207ZM221.489 98.3711C222.127 98.3711 222.674 98.5124 223.13 98.7949C223.586 99.0775 223.934 99.474 224.176 99.9844C224.417 100.49 224.538 101.083 224.538 101.762V102.466H219.363C219.377 103.345 219.596 104.015 220.02 104.476C220.443 104.936 221.04 105.166 221.811 105.166C222.285 105.166 222.704 105.123 223.068 105.036C223.433 104.95 223.811 104.822 224.203 104.653V105.651C223.825 105.82 223.449 105.943 223.075 106.021C222.706 106.098 222.269 106.137 221.763 106.137C221.043 106.137 220.414 105.991 219.876 105.699C219.343 105.403 218.928 104.97 218.632 104.4C218.336 103.831 218.188 103.133 218.188 102.309C218.188 101.502 218.322 100.805 218.591 100.217C218.864 99.6243 219.247 99.1686 219.739 98.8496C220.236 98.5306 220.819 98.3711 221.489 98.3711ZM221.476 99.3008C220.869 99.3008 220.386 99.499 220.026 99.8955C219.666 100.292 219.452 100.846 219.384 101.557H223.349C223.344 101.11 223.273 100.718 223.137 100.381C223.005 100.039 222.802 99.7747 222.528 99.5879C222.255 99.3965 221.904 99.3008 221.476 99.3008ZM228.25 102.165L225.659 98.5078H226.958L228.934 101.393L230.902 98.5078H232.188L229.597 102.165L232.331 106H231.032L228.934 102.944L226.821 106H225.536L228.25 102.165ZM236.214 105.207C236.401 105.207 236.592 105.191 236.788 105.159C236.984 105.127 237.144 105.089 237.267 105.043V105.925C237.134 105.984 236.95 106.034 236.713 106.075C236.48 106.116 236.253 106.137 236.029 106.137C235.633 106.137 235.273 106.068 234.949 105.932C234.626 105.79 234.366 105.553 234.17 105.221C233.979 104.888 233.883 104.428 233.883 103.84V99.3965H232.816V98.8428L233.89 98.3984L234.341 96.7715H235.024V98.5078H237.219V99.3965H235.024V103.806C235.024 104.275 235.132 104.626 235.346 104.858C235.564 105.091 235.854 105.207 236.214 105.207ZM245.244 102.24C245.244 102.855 245.164 103.405 245.005 103.888C244.845 104.371 244.615 104.779 244.314 105.111C244.014 105.444 243.649 105.699 243.221 105.877C242.797 106.05 242.316 106.137 241.778 106.137C241.277 106.137 240.817 106.05 240.397 105.877C239.983 105.699 239.623 105.444 239.317 105.111C239.017 104.779 238.782 104.371 238.613 103.888C238.449 103.405 238.367 102.855 238.367 102.24C238.367 101.42 238.506 100.723 238.784 100.148C239.062 99.5697 239.459 99.1299 239.974 98.8291C240.493 98.5238 241.111 98.3711 241.826 98.3711C242.51 98.3711 243.107 98.5238 243.617 98.8291C244.132 99.1344 244.531 99.5765 244.813 100.155C245.101 100.729 245.244 101.424 245.244 102.24ZM239.543 102.24C239.543 102.842 239.623 103.364 239.782 103.806C239.942 104.248 240.188 104.59 240.521 104.831C240.853 105.073 241.282 105.193 241.806 105.193C242.325 105.193 242.751 105.073 243.084 104.831C243.421 104.59 243.67 104.248 243.829 103.806C243.989 103.364 244.068 102.842 244.068 102.24C244.068 101.643 243.989 101.128 243.829 100.695C243.67 100.258 243.424 99.9206 243.091 99.6836C242.758 99.4466 242.327 99.3281 241.799 99.3281C241.02 99.3281 240.448 99.5856 240.083 100.101C239.723 100.616 239.543 101.329 239.543 102.24ZM253.509 106.137C252.561 106.137 251.809 105.813 251.253 105.166C250.701 104.519 250.426 103.557 250.426 102.281C250.426 100.992 250.708 100.019 251.273 99.3623C251.839 98.7015 252.59 98.3711 253.529 98.3711C253.926 98.3711 254.272 98.4235 254.568 98.5283C254.865 98.6331 255.12 98.7744 255.334 98.9521C255.548 99.1253 255.728 99.3236 255.874 99.5469H255.956C255.938 99.4056 255.92 99.2119 255.901 98.9658C255.883 98.7197 255.874 98.5192 255.874 98.3643V95.3633H257.009V106H256.093L255.922 104.934H255.874C255.733 105.157 255.553 105.36 255.334 105.542C255.12 105.724 254.862 105.87 254.562 105.979C254.265 106.084 253.914 106.137 253.509 106.137ZM253.687 105.193C254.489 105.193 255.056 104.965 255.389 104.51C255.721 104.054 255.888 103.377 255.888 102.479V102.274C255.888 101.322 255.728 100.59 255.409 100.08C255.095 99.5697 254.521 99.3145 253.687 99.3145C252.989 99.3145 252.467 99.5833 252.121 100.121C251.775 100.654 251.602 101.383 251.602 102.309C251.602 103.229 251.772 103.94 252.114 104.441C252.461 104.943 252.985 105.193 253.687 105.193ZM262.3 98.3711C262.938 98.3711 263.485 98.5124 263.94 98.7949C264.396 99.0775 264.745 99.474 264.986 99.9844C265.228 100.49 265.349 101.083 265.349 101.762V102.466H260.174C260.188 103.345 260.406 104.015 260.83 104.476C261.254 104.936 261.851 105.166 262.621 105.166C263.095 105.166 263.514 105.123 263.879 105.036C264.243 104.95 264.622 104.822 265.014 104.653V105.651C264.635 105.82 264.259 105.943 263.886 106.021C263.517 106.098 263.079 106.137 262.573 106.137C261.853 106.137 261.224 105.991 260.687 105.699C260.153 105.403 259.739 104.97 259.442 104.4C259.146 103.831 258.998 103.133 258.998 102.309C258.998 101.502 259.132 100.805 259.401 100.217C259.675 99.6243 260.058 99.1686 260.55 98.8496C261.047 98.5306 261.63 98.3711 262.3 98.3711ZM262.286 99.3008C261.68 99.3008 261.197 99.499 260.837 99.8955C260.477 100.292 260.263 100.846 260.194 101.557H264.159C264.155 101.11 264.084 100.718 263.947 100.381C263.815 100.039 263.612 99.7747 263.339 99.5879C263.065 99.3965 262.715 99.3008 262.286 99.3008ZM273.716 98.3848C274.609 98.3848 275.272 98.5853 275.705 98.9863C276.138 99.3874 276.354 100.028 276.354 100.907V106H275.527L275.309 104.893H275.254C275.044 105.166 274.826 105.396 274.598 105.583C274.37 105.765 274.105 105.904 273.805 106C273.508 106.091 273.144 106.137 272.711 106.137C272.255 106.137 271.85 106.057 271.494 105.897C271.143 105.738 270.865 105.496 270.66 105.173C270.46 104.849 270.359 104.439 270.359 103.942C270.359 103.195 270.656 102.621 271.248 102.22C271.84 101.819 272.743 101.6 273.955 101.563L275.247 101.509V101.051C275.247 100.404 275.108 99.9502 274.83 99.6904C274.552 99.4307 274.16 99.3008 273.654 99.3008C273.262 99.3008 272.889 99.3577 272.533 99.4717C272.178 99.5856 271.84 99.7201 271.521 99.875L271.173 99.0137C271.51 98.8405 271.897 98.6924 272.335 98.5693C272.772 98.4463 273.233 98.3848 273.716 98.3848ZM275.233 102.309L274.092 102.356C273.158 102.393 272.499 102.546 272.116 102.814C271.733 103.083 271.542 103.464 271.542 103.956C271.542 104.384 271.672 104.701 271.932 104.906C272.191 105.111 272.535 105.214 272.964 105.214C273.629 105.214 274.174 105.029 274.598 104.66C275.021 104.291 275.233 103.737 275.233 102.999V102.309ZM277.51 98.5078H278.727L280.381 102.855C280.477 103.111 280.565 103.357 280.647 103.594C280.729 103.826 280.802 104.049 280.866 104.264C280.93 104.478 280.98 104.685 281.017 104.886H281.064C281.128 104.658 281.219 104.359 281.338 103.99C281.456 103.617 281.584 103.236 281.721 102.849L283.286 98.5078H284.51L281.249 107.101C281.076 107.561 280.873 107.962 280.641 108.304C280.413 108.646 280.135 108.908 279.807 109.09C279.479 109.277 279.082 109.37 278.617 109.37C278.403 109.37 278.214 109.356 278.05 109.329C277.886 109.306 277.744 109.279 277.626 109.247V108.338C277.726 108.361 277.847 108.381 277.988 108.399C278.134 108.418 278.285 108.427 278.439 108.427C278.722 108.427 278.966 108.372 279.171 108.263C279.381 108.158 279.561 108.003 279.711 107.798C279.861 107.593 279.991 107.349 280.101 107.066L280.511 106.014L277.51 98.5078ZM291.893 98.5078V106H290.963L290.799 104.947H290.737C290.582 105.207 290.382 105.426 290.136 105.604C289.89 105.781 289.612 105.913 289.302 106C288.996 106.091 288.671 106.137 288.324 106.137C287.732 106.137 287.235 106.041 286.834 105.85C286.433 105.658 286.13 105.362 285.925 104.961C285.724 104.56 285.624 104.045 285.624 103.416V98.5078H286.772V103.334C286.772 103.958 286.914 104.425 287.196 104.735C287.479 105.041 287.91 105.193 288.488 105.193C289.044 105.193 289.486 105.089 289.814 104.879C290.147 104.669 290.386 104.362 290.532 103.956C290.678 103.546 290.751 103.045 290.751 102.452V98.5078H291.893ZM296.958 106.137C296.01 106.137 295.258 105.813 294.702 105.166C294.151 104.519 293.875 103.557 293.875 102.281C293.875 100.992 294.158 100.019 294.723 99.3623C295.288 98.7015 296.04 98.3711 296.979 98.3711C297.375 98.3711 297.721 98.4235 298.018 98.5283C298.314 98.6331 298.569 98.7744 298.783 98.9521C298.997 99.1253 299.177 99.3236 299.323 99.5469H299.405C299.387 99.4056 299.369 99.2119 299.351 98.9658C299.332 98.7197 299.323 98.5192 299.323 98.3643V95.3633H300.458V106H299.542L299.371 104.934H299.323C299.182 105.157 299.002 105.36 298.783 105.542C298.569 105.724 298.312 105.87 298.011 105.979C297.715 106.084 297.364 106.137 296.958 106.137ZM297.136 105.193C297.938 105.193 298.505 104.965 298.838 104.51C299.171 104.054 299.337 103.377 299.337 102.479V102.274C299.337 101.322 299.177 100.59 298.858 100.08C298.544 99.5697 297.97 99.3145 297.136 99.3145C296.438 99.3145 295.917 99.5833 295.57 100.121C295.224 100.654 295.051 101.383 295.051 102.309C295.051 103.229 295.222 103.94 295.563 104.441C295.91 104.943 296.434 105.193 297.136 105.193ZM305.667 98.3848C306.56 98.3848 307.223 98.5853 307.656 98.9863C308.089 99.3874 308.306 100.028 308.306 100.907V106H307.479L307.26 104.893H307.205C306.995 105.166 306.777 105.396 306.549 105.583C306.321 105.765 306.057 105.904 305.756 106C305.46 106.091 305.095 106.137 304.662 106.137C304.206 106.137 303.801 106.057 303.445 105.897C303.094 105.738 302.816 105.496 302.611 105.173C302.411 104.849 302.311 104.439 302.311 103.942C302.311 103.195 302.607 102.621 303.199 102.22C303.792 101.819 304.694 101.6 305.906 101.563L307.198 101.509V101.051C307.198 100.404 307.059 99.9502 306.781 99.6904C306.503 99.4307 306.111 99.3008 305.605 99.3008C305.214 99.3008 304.84 99.3577 304.484 99.4717C304.129 99.5856 303.792 99.7201 303.473 99.875L303.124 99.0137C303.461 98.8405 303.849 98.6924 304.286 98.5693C304.724 98.4463 305.184 98.3848 305.667 98.3848ZM307.185 102.309L306.043 102.356C305.109 102.393 304.45 102.546 304.067 102.814C303.685 103.083 303.493 103.464 303.493 103.956C303.493 104.384 303.623 104.701 303.883 104.906C304.143 105.111 304.487 105.214 304.915 105.214C305.58 105.214 306.125 105.029 306.549 104.66C306.973 104.291 307.185 103.737 307.185 102.999V102.309ZM319.305 109.35V106.137C319.305 105.959 319.309 105.754 319.318 105.521C319.327 105.289 319.343 105.089 319.366 104.92H319.291C319.081 105.266 318.783 105.556 318.396 105.788C318.008 106.021 317.509 106.137 316.898 106.137C315.982 106.137 315.246 105.813 314.69 105.166C314.134 104.519 313.856 103.553 313.856 102.268C313.856 101.424 313.984 100.714 314.239 100.135C314.494 99.556 314.854 99.1185 315.319 98.8223C315.789 98.5215 316.336 98.3711 316.96 98.3711C317.557 98.3711 318.045 98.4896 318.423 98.7266C318.801 98.959 319.097 99.2438 319.312 99.5811H319.366L319.537 98.5078H320.439V109.35H319.305ZM317.11 105.193C317.639 105.193 318.063 105.095 318.382 104.899C318.701 104.699 318.933 104.398 319.079 103.997C319.229 103.596 319.309 103.097 319.318 102.5V102.261C319.318 101.295 319.154 100.563 318.826 100.066C318.498 99.5651 317.926 99.3145 317.11 99.3145C316.409 99.3145 315.887 99.5833 315.545 100.121C315.203 100.654 315.032 101.379 315.032 102.295C315.032 103.211 315.203 103.924 315.545 104.435C315.887 104.94 316.409 105.193 317.11 105.193ZM329.039 98.5078V106H328.109L327.945 104.947H327.884C327.729 105.207 327.528 105.426 327.282 105.604C327.036 105.781 326.758 105.913 326.448 106C326.143 106.091 325.817 106.137 325.471 106.137C324.878 106.137 324.382 106.041 323.98 105.85C323.579 105.658 323.276 105.362 323.071 104.961C322.871 104.56 322.771 104.045 322.771 103.416V98.5078H323.919V103.334C323.919 103.958 324.06 104.425 324.343 104.735C324.625 105.041 325.056 105.193 325.635 105.193C326.191 105.193 326.633 105.089 326.961 104.879C327.294 104.669 327.533 104.362 327.679 103.956C327.825 103.546 327.897 103.045 327.897 102.452V98.5078H329.039ZM334.323 98.3711C334.961 98.3711 335.508 98.5124 335.964 98.7949C336.42 99.0775 336.768 99.474 337.01 99.9844C337.251 100.49 337.372 101.083 337.372 101.762V102.466H332.197C332.211 103.345 332.43 104.015 332.854 104.476C333.277 104.936 333.874 105.166 334.645 105.166C335.118 105.166 335.538 105.123 335.902 105.036C336.267 104.95 336.645 104.822 337.037 104.653V105.651C336.659 105.82 336.283 105.943 335.909 106.021C335.54 106.098 335.103 106.137 334.597 106.137C333.877 106.137 333.248 105.991 332.71 105.699C332.177 105.403 331.762 104.97 331.466 104.4C331.17 103.831 331.021 103.133 331.021 102.309C331.021 101.502 331.156 100.805 331.425 100.217C331.698 99.6243 332.081 99.1686 332.573 98.8496C333.07 98.5306 333.653 98.3711 334.323 98.3711ZM334.31 99.3008C333.703 99.3008 333.22 99.499 332.86 99.8955C332.5 100.292 332.286 100.846 332.218 101.557H336.183C336.178 101.11 336.107 100.718 335.971 100.381C335.839 100.039 335.636 99.7747 335.362 99.5879C335.089 99.3965 334.738 99.3008 334.31 99.3008ZM345.603 106.137C344.655 106.137 343.903 105.813 343.347 105.166C342.795 104.519 342.52 103.557 342.52 102.281C342.52 100.992 342.802 100.019 343.367 99.3623C343.932 98.7015 344.684 98.3711 345.623 98.3711C346.02 98.3711 346.366 98.4235 346.662 98.5283C346.958 98.6331 347.214 98.7744 347.428 98.9521C347.642 99.1253 347.822 99.3236 347.968 99.5469H348.05C348.032 99.4056 348.013 99.2119 347.995 98.9658C347.977 98.7197 347.968 98.5192 347.968 98.3643V95.3633H349.103V106H348.187L348.016 104.934H347.968C347.826 105.157 347.646 105.36 347.428 105.542C347.214 105.724 346.956 105.87 346.655 105.979C346.359 106.084 346.008 106.137 345.603 106.137ZM345.78 105.193C346.582 105.193 347.15 104.965 347.482 104.51C347.815 104.054 347.981 103.377 347.981 102.479V102.274C347.981 101.322 347.822 100.59 347.503 100.08C347.188 99.5697 346.614 99.3145 345.78 99.3145C345.083 99.3145 344.561 99.5833 344.215 100.121C343.868 100.654 343.695 101.383 343.695 102.309C343.695 103.229 343.866 103.94 344.208 104.441C344.554 104.943 345.078 105.193 345.78 105.193ZM354.312 98.3848C355.205 98.3848 355.868 98.5853 356.301 98.9863C356.734 99.3874 356.95 100.028 356.95 100.907V106H356.123L355.904 104.893H355.85C355.64 105.166 355.421 105.396 355.193 105.583C354.965 105.765 354.701 105.904 354.4 106C354.104 106.091 353.74 106.137 353.307 106.137C352.851 106.137 352.445 106.057 352.09 105.897C351.739 105.738 351.461 105.496 351.256 105.173C351.055 104.849 350.955 104.439 350.955 103.942C350.955 103.195 351.251 102.621 351.844 102.22C352.436 101.819 353.339 101.6 354.551 101.563L355.843 101.509V101.051C355.843 100.404 355.704 99.9502 355.426 99.6904C355.148 99.4307 354.756 99.3008 354.25 99.3008C353.858 99.3008 353.484 99.3577 353.129 99.4717C352.773 99.5856 352.436 99.7201 352.117 99.875L351.769 99.0137C352.106 98.8405 352.493 98.6924 352.931 98.5693C353.368 98.4463 353.828 98.3848 354.312 98.3848ZM355.829 102.309L354.688 102.356C353.753 102.393 353.095 102.546 352.712 102.814C352.329 103.083 352.138 103.464 352.138 103.956C352.138 104.384 352.268 104.701 352.527 104.906C352.787 105.111 353.131 105.214 353.56 105.214C354.225 105.214 354.77 105.029 355.193 104.66C355.617 104.291 355.829 103.737 355.829 102.999V102.309ZM371.06 98.3711C371.884 98.3711 372.507 98.5876 372.926 99.0205C373.345 99.4489 373.555 100.139 373.555 101.092V106H372.434V101.146C372.434 100.54 372.301 100.087 372.037 99.7861C371.777 99.4808 371.39 99.3281 370.875 99.3281C370.15 99.3281 369.624 99.5378 369.296 99.957C368.968 100.376 368.804 100.994 368.804 101.81V106H367.676V101.146C367.676 100.741 367.617 100.404 367.498 100.135C367.384 99.8659 367.211 99.6654 366.979 99.5332C366.751 99.3965 366.461 99.3281 366.11 99.3281C365.614 99.3281 365.215 99.4307 364.914 99.6357C364.613 99.8408 364.395 100.146 364.258 100.552C364.126 100.953 364.06 101.447 364.06 102.035V106H362.925V98.5078H363.841L364.012 99.5674H364.073C364.224 99.3076 364.413 99.0889 364.641 98.9111C364.868 98.7334 365.124 98.599 365.406 98.5078C365.689 98.4167 365.99 98.3711 366.309 98.3711C366.878 98.3711 367.354 98.4782 367.737 98.6924C368.125 98.902 368.405 99.2233 368.578 99.6562H368.64C368.886 99.2233 369.223 98.902 369.651 98.6924C370.08 98.4782 370.549 98.3711 371.06 98.3711ZM378.688 98.3848C379.582 98.3848 380.245 98.5853 380.678 98.9863C381.111 99.3874 381.327 100.028 381.327 100.907V106H380.5L380.281 104.893H380.227C380.017 105.166 379.798 105.396 379.57 105.583C379.342 105.765 379.078 105.904 378.777 106C378.481 106.091 378.117 106.137 377.684 106.137C377.228 106.137 376.822 106.057 376.467 105.897C376.116 105.738 375.838 105.496 375.633 105.173C375.432 104.849 375.332 104.439 375.332 103.942C375.332 103.195 375.628 102.621 376.221 102.22C376.813 101.819 377.715 101.6 378.928 101.563L380.22 101.509V101.051C380.22 100.404 380.081 99.9502 379.803 99.6904C379.525 99.4307 379.133 99.3008 378.627 99.3008C378.235 99.3008 377.861 99.3577 377.506 99.4717C377.15 99.5856 376.813 99.7201 376.494 99.875L376.146 99.0137C376.483 98.8405 376.87 98.6924 377.308 98.5693C377.745 98.4463 378.205 98.3848 378.688 98.3848ZM380.206 102.309L379.064 102.356C378.13 102.393 377.472 102.546 377.089 102.814C376.706 103.083 376.515 103.464 376.515 103.956C376.515 104.384 376.645 104.701 376.904 104.906C377.164 105.111 377.508 105.214 377.937 105.214C378.602 105.214 379.146 105.029 379.57 104.66C379.994 104.291 380.206 103.737 380.206 102.999V102.309ZM388.512 103.949C388.512 104.428 388.391 104.831 388.149 105.159C387.912 105.483 387.571 105.727 387.124 105.891C386.682 106.055 386.153 106.137 385.538 106.137C385.014 106.137 384.561 106.096 384.178 106.014C383.795 105.932 383.46 105.815 383.173 105.665V104.619C383.478 104.77 383.843 104.906 384.267 105.029C384.69 105.152 385.123 105.214 385.565 105.214C386.213 105.214 386.682 105.109 386.974 104.899C387.265 104.69 387.411 104.405 387.411 104.045C387.411 103.84 387.352 103.66 387.233 103.505C387.119 103.345 386.926 103.193 386.652 103.047C386.379 102.896 386.001 102.732 385.518 102.555C385.039 102.372 384.624 102.192 384.273 102.015C383.927 101.832 383.658 101.611 383.467 101.352C383.28 101.092 383.187 100.755 383.187 100.34C383.187 99.7064 383.442 99.221 383.952 98.8838C384.467 98.542 385.142 98.3711 385.976 98.3711C386.427 98.3711 386.848 98.4167 387.24 98.5078C387.637 98.5944 388.006 98.7129 388.348 98.8633L387.965 99.7725C387.655 99.6403 387.325 99.5286 386.974 99.4375C386.623 99.3464 386.265 99.3008 385.9 99.3008C385.376 99.3008 384.973 99.3874 384.69 99.5605C384.412 99.7337 384.273 99.9707 384.273 100.271C384.273 100.504 384.337 100.695 384.465 100.846C384.597 100.996 384.807 101.137 385.094 101.27C385.381 101.402 385.759 101.557 386.229 101.734C386.698 101.908 387.104 102.088 387.445 102.274C387.787 102.457 388.049 102.68 388.231 102.944C388.418 103.204 388.512 103.539 388.512 103.949ZM395.108 98.5078V106H393.974V98.5078H395.108ZM394.555 95.7051C394.742 95.7051 394.901 95.7666 395.033 95.8896C395.17 96.0081 395.238 96.195 395.238 96.4502C395.238 96.7008 395.17 96.8877 395.033 97.0107C394.901 97.1338 394.742 97.1953 394.555 97.1953C394.359 97.1953 394.195 97.1338 394.062 97.0107C393.935 96.8877 393.871 96.7008 393.871 96.4502C393.871 96.195 393.935 96.0081 394.062 95.8896C394.195 95.7666 394.359 95.7051 394.555 95.7051ZM401.062 98.3711C401.951 98.3711 402.623 98.5898 403.079 99.0273C403.535 99.4603 403.763 100.158 403.763 101.119V106H402.642V101.194C402.642 100.57 402.498 100.103 402.211 99.793C401.928 99.4831 401.493 99.3281 400.905 99.3281C400.076 99.3281 399.493 99.5628 399.155 100.032C398.818 100.502 398.649 101.183 398.649 102.076V106H397.515V98.5078H398.431L398.602 99.5879H398.663C398.823 99.3236 399.025 99.1025 399.271 98.9248C399.518 98.7425 399.793 98.6058 400.099 98.5146C400.404 98.4189 400.725 98.3711 401.062 98.3711ZM409.437 99.3965H407.57V106H406.436V99.3965H405.109V98.8496L406.436 98.4736V97.9746C406.436 97.3457 406.529 96.8353 406.716 96.4434C406.903 96.0469 407.174 95.7552 407.529 95.5684C407.885 95.3815 408.318 95.2881 408.828 95.2881C409.115 95.2881 409.377 95.3132 409.614 95.3633C409.856 95.4134 410.068 95.4704 410.25 95.5342L409.956 96.4297C409.801 96.3796 409.626 96.334 409.43 96.293C409.238 96.2474 409.042 96.2246 408.842 96.2246C408.409 96.2246 408.088 96.3659 407.878 96.6484C407.673 96.9264 407.57 97.3639 407.57 97.9609V98.5078H409.437V99.3965ZM417.277 102.24C417.277 102.855 417.198 103.405 417.038 103.888C416.879 104.371 416.648 104.779 416.348 105.111C416.047 105.444 415.682 105.699 415.254 105.877C414.83 106.05 414.349 106.137 413.812 106.137C413.31 106.137 412.85 106.05 412.431 105.877C412.016 105.699 411.656 105.444 411.351 105.111C411.05 104.779 410.815 104.371 410.646 103.888C410.482 103.405 410.4 102.855 410.4 102.24C410.4 101.42 410.539 100.723 410.817 100.148C411.095 99.5697 411.492 99.1299 412.007 98.8291C412.526 98.5238 413.144 98.3711 413.859 98.3711C414.543 98.3711 415.14 98.5238 415.65 98.8291C416.165 99.1344 416.564 99.5765 416.847 100.155C417.134 100.729 417.277 101.424 417.277 102.24ZM411.576 102.24C411.576 102.842 411.656 103.364 411.815 103.806C411.975 104.248 412.221 104.59 412.554 104.831C412.886 105.073 413.315 105.193 413.839 105.193C414.358 105.193 414.785 105.073 415.117 104.831C415.454 104.59 415.703 104.248 415.862 103.806C416.022 103.364 416.102 102.842 416.102 102.24C416.102 101.643 416.022 101.128 415.862 100.695C415.703 100.258 415.457 99.9206 415.124 99.6836C414.791 99.4466 414.361 99.3281 413.832 99.3281C413.053 99.3281 412.481 99.5856 412.116 100.101C411.756 100.616 411.576 101.329 411.576 102.24ZM422.644 98.3711C422.794 98.3711 422.951 98.3802 423.115 98.3984C423.279 98.4121 423.425 98.4326 423.553 98.46L423.409 99.5127C423.286 99.4808 423.149 99.4557 422.999 99.4375C422.849 99.4193 422.707 99.4102 422.575 99.4102C422.274 99.4102 421.99 99.4717 421.721 99.5947C421.456 99.7132 421.224 99.8864 421.023 100.114C420.823 100.338 420.666 100.609 420.552 100.928C420.438 101.242 420.381 101.593 420.381 101.98V106H419.239V98.5078H420.183L420.306 99.8887H420.354C420.508 99.6107 420.695 99.3577 420.914 99.1299C421.133 98.8975 421.386 98.7129 421.673 98.5762C421.965 98.4395 422.288 98.3711 422.644 98.3711ZM433.103 98.3711C433.927 98.3711 434.549 98.5876 434.969 99.0205C435.388 99.4489 435.598 100.139 435.598 101.092V106H434.477V101.146C434.477 100.54 434.344 100.087 434.08 99.7861C433.82 99.4808 433.433 99.3281 432.918 99.3281C432.193 99.3281 431.667 99.5378 431.339 99.957C431.011 100.376 430.847 100.994 430.847 101.81V106H429.719V101.146C429.719 100.741 429.66 100.404 429.541 100.135C429.427 99.8659 429.254 99.6654 429.021 99.5332C428.794 99.3965 428.504 99.3281 428.153 99.3281C427.657 99.3281 427.258 99.4307 426.957 99.6357C426.656 99.8408 426.438 100.146 426.301 100.552C426.169 100.953 426.103 101.447 426.103 102.035V106H424.968V98.5078H425.884L426.055 99.5674H426.116C426.267 99.3076 426.456 99.0889 426.684 98.9111C426.911 98.7334 427.167 98.599 427.449 98.5078C427.732 98.4167 428.033 98.3711 428.352 98.3711C428.921 98.3711 429.397 98.4782 429.78 98.6924C430.168 98.902 430.448 99.2233 430.621 99.6562H430.683C430.929 99.2233 431.266 98.902 431.694 98.6924C432.123 98.4782 432.592 98.3711 433.103 98.3711ZM440.731 98.3848C441.625 98.3848 442.288 98.5853 442.721 98.9863C443.154 99.3874 443.37 100.028 443.37 100.907V106H442.543L442.324 104.893H442.27C442.06 105.166 441.841 105.396 441.613 105.583C441.385 105.765 441.121 105.904 440.82 106C440.524 106.091 440.16 106.137 439.727 106.137C439.271 106.137 438.865 106.057 438.51 105.897C438.159 105.738 437.881 105.496 437.676 105.173C437.475 104.849 437.375 104.439 437.375 103.942C437.375 103.195 437.671 102.621 438.264 102.22C438.856 101.819 439.758 101.6 440.971 101.563L442.263 101.509V101.051C442.263 100.404 442.124 99.9502 441.846 99.6904C441.568 99.4307 441.176 99.3008 440.67 99.3008C440.278 99.3008 439.904 99.3577 439.549 99.4717C439.193 99.5856 438.856 99.7201 438.537 99.875L438.188 99.0137C438.526 98.8405 438.913 98.6924 439.351 98.5693C439.788 98.4463 440.248 98.3848 440.731 98.3848ZM442.249 102.309L441.107 102.356C440.173 102.393 439.515 102.546 439.132 102.814C438.749 103.083 438.558 103.464 438.558 103.956C438.558 104.384 438.688 104.701 438.947 104.906C439.207 105.111 439.551 105.214 439.979 105.214C440.645 105.214 441.189 105.029 441.613 104.66C442.037 104.291 442.249 103.737 442.249 102.999V102.309ZM448.709 106.137C448.035 106.137 447.44 105.998 446.925 105.72C446.41 105.442 446.009 105.018 445.722 104.448C445.435 103.879 445.291 103.161 445.291 102.295C445.291 101.388 445.441 100.647 445.742 100.073C446.048 99.4945 446.467 99.0661 447 98.7881C447.533 98.5101 448.139 98.3711 448.818 98.3711C449.192 98.3711 449.552 98.4098 449.898 98.4873C450.249 98.5602 450.536 98.6536 450.76 98.7676L450.418 99.7178C450.19 99.6266 449.926 99.5446 449.625 99.4717C449.329 99.3988 449.051 99.3623 448.791 99.3623C448.271 99.3623 447.839 99.474 447.492 99.6973C447.15 99.9206 446.893 100.249 446.72 100.682C446.551 101.115 446.467 101.648 446.467 102.281C446.467 102.887 446.549 103.405 446.713 103.833C446.882 104.261 447.13 104.59 447.458 104.817C447.791 105.041 448.205 105.152 448.702 105.152C449.099 105.152 449.456 105.111 449.775 105.029C450.094 104.943 450.384 104.842 450.644 104.729V105.74C450.393 105.868 450.113 105.966 449.803 106.034C449.497 106.103 449.133 106.137 448.709 106.137ZM453.556 98.5078V106H452.421V98.5078H453.556ZM453.002 95.7051C453.189 95.7051 453.348 95.7666 453.48 95.8896C453.617 96.0081 453.686 96.195 453.686 96.4502C453.686 96.7008 453.617 96.8877 453.48 97.0107C453.348 97.1338 453.189 97.1953 453.002 97.1953C452.806 97.1953 452.642 97.1338 452.51 97.0107C452.382 96.8877 452.318 96.7008 452.318 96.4502C452.318 96.195 452.382 96.0081 452.51 95.8896C452.642 95.7666 452.806 95.7051 453.002 95.7051ZM462.422 102.24C462.422 102.855 462.342 103.405 462.183 103.888C462.023 104.371 461.793 104.779 461.492 105.111C461.191 105.444 460.827 105.699 460.398 105.877C459.975 106.05 459.494 106.137 458.956 106.137C458.455 106.137 457.994 106.05 457.575 105.877C457.16 105.699 456.8 105.444 456.495 105.111C456.194 104.779 455.96 104.371 455.791 103.888C455.627 103.405 455.545 102.855 455.545 102.24C455.545 101.42 455.684 100.723 455.962 100.148C456.24 99.5697 456.636 99.1299 457.151 98.8291C457.671 98.5238 458.288 98.3711 459.004 98.3711C459.688 98.3711 460.285 98.5238 460.795 98.8291C461.31 99.1344 461.709 99.5765 461.991 100.155C462.278 100.729 462.422 101.424 462.422 102.24ZM456.721 102.24C456.721 102.842 456.8 103.364 456.96 103.806C457.119 104.248 457.366 104.59 457.698 104.831C458.031 105.073 458.459 105.193 458.983 105.193C459.503 105.193 459.929 105.073 460.262 104.831C460.599 104.59 460.847 104.248 461.007 103.806C461.166 103.364 461.246 102.842 461.246 102.24C461.246 101.643 461.166 101.128 461.007 100.695C460.847 100.258 460.601 99.9206 460.269 99.6836C459.936 99.4466 459.505 99.3281 458.977 99.3281C458.197 99.3281 457.625 99.5856 457.261 100.101C456.901 100.616 456.721 101.329 456.721 102.24ZM460.966 95.2744V95.4111C460.875 95.5433 460.749 95.7028 460.59 95.8896C460.435 96.0719 460.262 96.2656 460.07 96.4707C459.879 96.6712 459.685 96.8626 459.489 97.0449C459.298 97.2272 459.12 97.3844 458.956 97.5166H458.197V97.3525C458.343 97.1794 458.503 96.972 458.676 96.7305C458.849 96.4844 459.018 96.2337 459.182 95.9785C459.346 95.7188 459.482 95.484 459.592 95.2744H460.966ZM467.932 98.3711C468.82 98.3711 469.493 98.5898 469.948 99.0273C470.404 99.4603 470.632 100.158 470.632 101.119V106H469.511V101.194C469.511 100.57 469.367 100.103 469.08 99.793C468.798 99.4831 468.362 99.3281 467.774 99.3281C466.945 99.3281 466.362 99.5628 466.024 100.032C465.687 100.502 465.519 101.183 465.519 102.076V106H464.384V98.5078H465.3L465.471 99.5879H465.532C465.692 99.3236 465.895 99.1025 466.141 98.9248C466.387 98.7425 466.662 98.6058 466.968 98.5146C467.273 98.4189 467.594 98.3711 467.932 98.3711ZM481.453 103.949C481.453 104.428 481.332 104.831 481.091 105.159C480.854 105.483 480.512 105.727 480.065 105.891C479.623 106.055 479.095 106.137 478.479 106.137C477.955 106.137 477.502 106.096 477.119 106.014C476.736 105.932 476.401 105.815 476.114 105.665V104.619C476.42 104.77 476.784 104.906 477.208 105.029C477.632 105.152 478.065 105.214 478.507 105.214C479.154 105.214 479.623 105.109 479.915 104.899C480.207 104.69 480.353 104.405 480.353 104.045C480.353 103.84 480.293 103.66 480.175 103.505C480.061 103.345 479.867 103.193 479.594 103.047C479.32 102.896 478.942 102.732 478.459 102.555C477.98 102.372 477.566 102.192 477.215 102.015C476.868 101.832 476.6 101.611 476.408 101.352C476.221 101.092 476.128 100.755 476.128 100.34C476.128 99.7064 476.383 99.221 476.894 98.8838C477.409 98.542 478.083 98.3711 478.917 98.3711C479.368 98.3711 479.79 98.4167 480.182 98.5078C480.578 98.5944 480.947 98.7129 481.289 98.8633L480.906 99.7725C480.596 99.6403 480.266 99.5286 479.915 99.4375C479.564 99.3464 479.206 99.3008 478.842 99.3008C478.318 99.3008 477.914 99.3874 477.632 99.5605C477.354 99.7337 477.215 99.9707 477.215 100.271C477.215 100.504 477.279 100.695 477.406 100.846C477.538 100.996 477.748 101.137 478.035 101.27C478.322 101.402 478.701 101.557 479.17 101.734C479.639 101.908 480.045 102.088 480.387 102.274C480.729 102.457 480.991 102.68 481.173 102.944C481.36 103.204 481.453 103.539 481.453 103.949ZM489.738 102.24C489.738 102.855 489.659 103.405 489.499 103.888C489.34 104.371 489.109 104.779 488.809 105.111C488.508 105.444 488.143 105.699 487.715 105.877C487.291 106.05 486.81 106.137 486.272 106.137C485.771 106.137 485.311 106.05 484.892 105.877C484.477 105.699 484.117 105.444 483.812 105.111C483.511 104.779 483.276 104.371 483.107 103.888C482.943 103.405 482.861 102.855 482.861 102.24C482.861 101.42 483 100.723 483.278 100.148C483.556 99.5697 483.953 99.1299 484.468 98.8291C484.987 98.5238 485.605 98.3711 486.32 98.3711C487.004 98.3711 487.601 98.5238 488.111 98.8291C488.626 99.1344 489.025 99.5765 489.308 100.155C489.595 100.729 489.738 101.424 489.738 102.24ZM484.037 102.24C484.037 102.842 484.117 103.364 484.276 103.806C484.436 104.248 484.682 104.59 485.015 104.831C485.347 105.073 485.776 105.193 486.3 105.193C486.819 105.193 487.245 105.073 487.578 104.831C487.915 104.59 488.164 104.248 488.323 103.806C488.483 103.364 488.562 102.842 488.562 102.24C488.562 101.643 488.483 101.128 488.323 100.695C488.164 100.258 487.918 99.9206 487.585 99.6836C487.252 99.4466 486.822 99.3281 486.293 99.3281C485.514 99.3281 484.942 99.5856 484.577 100.101C484.217 100.616 484.037 101.329 484.037 102.24ZM492.835 95.3633V98.0225C492.835 98.3278 492.826 98.624 492.808 98.9111C492.794 99.1982 492.783 99.4215 492.773 99.5811H492.835C493.04 99.2438 493.336 98.959 493.724 98.7266C494.111 98.4941 494.605 98.3779 495.207 98.3779C496.146 98.3779 496.893 98.7038 497.449 99.3555C498.01 100.003 498.29 100.966 498.29 102.247C498.29 103.09 498.162 103.801 497.907 104.38C497.652 104.959 497.292 105.396 496.827 105.692C496.362 105.989 495.813 106.137 495.18 106.137C494.587 106.137 494.1 106.027 493.717 105.809C493.339 105.585 493.047 105.314 492.842 104.995H492.753L492.521 106H491.7V95.3633H492.835ZM495.022 99.3281C494.48 99.3281 494.049 99.4352 493.73 99.6494C493.411 99.859 493.181 100.178 493.04 100.606C492.903 101.03 492.835 101.568 492.835 102.22V102.281C492.835 103.225 492.992 103.947 493.307 104.448C493.621 104.945 494.193 105.193 495.022 105.193C495.72 105.193 496.242 104.938 496.588 104.428C496.939 103.917 497.114 103.188 497.114 102.24C497.114 101.274 496.941 100.547 496.595 100.06C496.253 99.5719 495.729 99.3281 495.022 99.3281ZM503.677 98.3711C503.827 98.3711 503.984 98.3802 504.148 98.3984C504.312 98.4121 504.458 98.4326 504.586 98.46L504.442 99.5127C504.319 99.4808 504.183 99.4557 504.032 99.4375C503.882 99.4193 503.741 99.4102 503.608 99.4102C503.308 99.4102 503.023 99.4717 502.754 99.5947C502.49 99.7132 502.257 99.8864 502.057 100.114C501.856 100.338 501.699 100.609 501.585 100.928C501.471 101.242 501.414 101.593 501.414 101.98V106H500.272V98.5078H501.216L501.339 99.8887H501.387C501.542 99.6107 501.729 99.3577 501.947 99.1299C502.166 98.8975 502.419 98.7129 502.706 98.5762C502.998 98.4395 503.321 98.3711 503.677 98.3711ZM508.886 98.3711C509.524 98.3711 510.071 98.5124 510.526 98.7949C510.982 99.0775 511.331 99.474 511.572 99.9844C511.814 100.49 511.935 101.083 511.935 101.762V102.466H506.76C506.773 103.345 506.992 104.015 507.416 104.476C507.84 104.936 508.437 105.166 509.207 105.166C509.681 105.166 510.1 105.123 510.465 105.036C510.829 104.95 511.208 104.822 511.6 104.653V105.651C511.221 105.82 510.845 105.943 510.472 106.021C510.103 106.098 509.665 106.137 509.159 106.137C508.439 106.137 507.81 105.991 507.272 105.699C506.739 105.403 506.325 104.97 506.028 104.4C505.732 103.831 505.584 103.133 505.584 102.309C505.584 101.502 505.718 100.805 505.987 100.217C506.261 99.6243 506.644 99.1686 507.136 98.8496C507.632 98.5306 508.216 98.3711 508.886 98.3711ZM508.872 99.3008C508.266 99.3008 507.783 99.499 507.423 99.8955C507.063 100.292 506.849 100.846 506.78 101.557H510.745C510.741 101.11 510.67 100.718 510.533 100.381C510.401 100.039 510.198 99.7747 509.925 99.5879C509.651 99.3965 509.3 99.3008 508.872 99.3008ZM520.384 98.3711C521.022 98.3711 521.569 98.5124 522.024 98.7949C522.48 99.0775 522.829 99.474 523.07 99.9844C523.312 100.49 523.433 101.083 523.433 101.762V102.466H518.258C518.271 103.345 518.49 104.015 518.914 104.476C519.338 104.936 519.935 105.166 520.705 105.166C521.179 105.166 521.598 105.123 521.963 105.036C522.327 104.95 522.706 104.822 523.098 104.653V105.651C522.719 105.82 522.343 105.943 521.97 106.021C521.601 106.098 521.163 106.137 520.657 106.137C519.937 106.137 519.308 105.991 518.771 105.699C518.237 105.403 517.823 104.97 517.526 104.4C517.23 103.831 517.082 103.133 517.082 102.309C517.082 101.502 517.216 100.805 517.485 100.217C517.759 99.6243 518.142 99.1686 518.634 98.8496C519.131 98.5306 519.714 98.3711 520.384 98.3711ZM520.37 99.3008C519.764 99.3008 519.281 99.499 518.921 99.8955C518.561 100.292 518.347 100.846 518.278 101.557H522.243C522.239 101.11 522.168 100.718 522.031 100.381C521.899 100.039 521.696 99.7747 521.423 99.5879C521.149 99.3965 520.799 99.3008 520.37 99.3008ZM526.502 106H525.36V95.3633H526.502V106ZM532.709 106V96.0059H533.871V106H532.709ZM539.996 98.3711C540.885 98.3711 541.557 98.5898 542.013 99.0273C542.468 99.4603 542.696 100.158 542.696 101.119V106H541.575V101.194C541.575 100.57 541.432 100.103 541.145 99.793C540.862 99.4831 540.427 99.3281 539.839 99.3281C539.009 99.3281 538.426 99.5628 538.089 100.032C537.752 100.502 537.583 101.183 537.583 102.076V106H536.448V98.5078H537.364L537.535 99.5879H537.597C537.756 99.3236 537.959 99.1025 538.205 98.9248C538.451 98.7425 538.727 98.6058 539.032 98.5146C539.338 98.4189 539.659 98.3711 539.996 98.3711ZM548.555 98.3711C549.489 98.3711 550.234 98.6924 550.79 99.335C551.346 99.9775 551.624 100.944 551.624 102.233C551.624 103.086 551.496 103.801 551.241 104.38C550.986 104.959 550.626 105.396 550.161 105.692C549.701 105.989 549.156 106.137 548.527 106.137C548.131 106.137 547.782 106.084 547.481 105.979C547.181 105.875 546.923 105.733 546.709 105.556C546.495 105.378 546.317 105.184 546.176 104.975H546.094C546.107 105.152 546.123 105.367 546.142 105.617C546.164 105.868 546.176 106.087 546.176 106.273V109.35H545.034V98.5078H545.971L546.121 99.6152H546.176C546.322 99.3874 546.499 99.18 546.709 98.9932C546.919 98.8018 547.174 98.6514 547.475 98.542C547.78 98.4281 548.14 98.3711 548.555 98.3711ZM548.356 99.3281C547.837 99.3281 547.418 99.4284 547.099 99.6289C546.784 99.8294 546.554 100.13 546.408 100.531C546.262 100.928 546.185 101.427 546.176 102.028V102.247C546.176 102.881 546.244 103.416 546.381 103.854C546.522 104.291 546.752 104.624 547.071 104.852C547.395 105.079 547.828 105.193 548.37 105.193C548.835 105.193 549.222 105.068 549.532 104.817C549.842 104.567 550.072 104.218 550.223 103.771C550.378 103.32 550.455 102.803 550.455 102.22C550.455 101.336 550.282 100.634 549.936 100.114C549.594 99.5902 549.067 99.3281 548.356 99.3281ZM559.793 98.5078V106H558.863L558.699 104.947H558.638C558.483 105.207 558.282 105.426 558.036 105.604C557.79 105.781 557.512 105.913 557.202 106C556.897 106.091 556.571 106.137 556.225 106.137C555.632 106.137 555.135 106.041 554.734 105.85C554.333 105.658 554.03 105.362 553.825 104.961C553.625 104.56 553.524 104.045 553.524 103.416V98.5078H554.673V103.334C554.673 103.958 554.814 104.425 555.097 104.735C555.379 105.041 555.81 105.193 556.389 105.193C556.945 105.193 557.387 105.089 557.715 104.879C558.048 104.669 558.287 104.362 558.433 103.956C558.578 103.546 558.651 103.045 558.651 102.452V98.5078H559.793ZM564.612 105.207C564.799 105.207 564.991 105.191 565.187 105.159C565.382 105.127 565.542 105.089 565.665 105.043V105.925C565.533 105.984 565.348 106.034 565.111 106.075C564.879 106.116 564.651 106.137 564.428 106.137C564.031 106.137 563.671 106.068 563.348 105.932C563.024 105.79 562.764 105.553 562.568 105.221C562.377 104.888 562.281 104.428 562.281 103.84V99.3965H561.215V98.8428L562.288 98.3984L562.739 96.7715H563.423V98.5078H565.617V99.3965H563.423V103.806C563.423 104.275 563.53 104.626 563.744 104.858C563.963 105.091 564.252 105.207 564.612 105.207ZM567.012 105.289C567.012 104.97 567.089 104.744 567.244 104.612C567.399 104.476 567.588 104.407 567.812 104.407C568.044 104.407 568.24 104.476 568.399 104.612C568.559 104.744 568.639 104.97 568.639 105.289C568.639 105.604 568.559 105.834 568.399 105.979C568.24 106.121 568.044 106.191 567.812 106.191C567.588 106.191 567.399 106.121 567.244 105.979C567.089 105.834 567.012 105.604 567.012 105.289ZM149.432 126H143.867V116.006H149.432V117.031H145.029V120.265H149.179V121.276H145.029V124.975H149.432V126ZM156.322 123.949C156.322 124.428 156.201 124.831 155.96 125.159C155.723 125.483 155.381 125.727 154.935 125.891C154.493 126.055 153.964 126.137 153.349 126.137C152.825 126.137 152.371 126.096 151.988 126.014C151.605 125.932 151.271 125.815 150.983 125.665V124.619C151.289 124.77 151.653 124.906 152.077 125.029C152.501 125.152 152.934 125.214 153.376 125.214C154.023 125.214 154.493 125.109 154.784 124.899C155.076 124.69 155.222 124.405 155.222 124.045C155.222 123.84 155.162 123.66 155.044 123.505C154.93 123.345 154.736 123.193 154.463 123.047C154.189 122.896 153.811 122.732 153.328 122.555C152.85 122.372 152.435 122.192 152.084 122.015C151.738 121.832 151.469 121.611 151.277 121.352C151.09 121.092 150.997 120.755 150.997 120.34C150.997 119.706 151.252 119.221 151.763 118.884C152.278 118.542 152.952 118.371 153.786 118.371C154.237 118.371 154.659 118.417 155.051 118.508C155.447 118.594 155.816 118.713 156.158 118.863L155.775 119.772C155.465 119.64 155.135 119.529 154.784 119.438C154.433 119.346 154.076 119.301 153.711 119.301C153.187 119.301 152.784 119.387 152.501 119.561C152.223 119.734 152.084 119.971 152.084 120.271C152.084 120.504 152.148 120.695 152.275 120.846C152.408 120.996 152.617 121.137 152.904 121.27C153.191 121.402 153.57 121.557 154.039 121.734C154.508 121.908 154.914 122.088 155.256 122.274C155.598 122.457 155.86 122.68 156.042 122.944C156.229 123.204 156.322 123.539 156.322 123.949ZM168.244 122.24C168.244 122.855 168.164 123.405 168.005 123.888C167.845 124.371 167.615 124.779 167.314 125.111C167.014 125.444 166.649 125.699 166.221 125.877C165.797 126.05 165.316 126.137 164.778 126.137C164.277 126.137 163.817 126.05 163.397 125.877C162.983 125.699 162.623 125.444 162.317 125.111C162.017 124.779 161.782 124.371 161.613 123.888C161.449 123.405 161.367 122.855 161.367 122.24C161.367 121.42 161.506 120.723 161.784 120.148C162.062 119.57 162.459 119.13 162.974 118.829C163.493 118.524 164.111 118.371 164.826 118.371C165.51 118.371 166.107 118.524 166.617 118.829C167.132 119.134 167.531 119.576 167.813 120.155C168.101 120.729 168.244 121.424 168.244 122.24ZM162.543 122.24C162.543 122.842 162.623 123.364 162.782 123.806C162.942 124.248 163.188 124.59 163.521 124.831C163.853 125.073 164.282 125.193 164.806 125.193C165.325 125.193 165.751 125.073 166.084 124.831C166.421 124.59 166.67 124.248 166.829 123.806C166.989 123.364 167.068 122.842 167.068 122.24C167.068 121.643 166.989 121.128 166.829 120.695C166.67 120.258 166.424 119.921 166.091 119.684C165.758 119.447 165.327 119.328 164.799 119.328C164.02 119.328 163.448 119.586 163.083 120.101C162.723 120.616 162.543 121.329 162.543 122.24ZM173.727 118.371C174.661 118.371 175.406 118.692 175.962 119.335C176.518 119.978 176.796 120.944 176.796 122.233C176.796 123.086 176.668 123.801 176.413 124.38C176.158 124.959 175.798 125.396 175.333 125.692C174.873 125.989 174.328 126.137 173.699 126.137C173.303 126.137 172.954 126.084 172.653 125.979C172.353 125.875 172.095 125.733 171.881 125.556C171.667 125.378 171.489 125.184 171.348 124.975H171.266C171.279 125.152 171.295 125.367 171.313 125.617C171.336 125.868 171.348 126.087 171.348 126.273V129.35H170.206V118.508H171.143L171.293 119.615H171.348C171.493 119.387 171.671 119.18 171.881 118.993C172.09 118.802 172.346 118.651 172.646 118.542C172.952 118.428 173.312 118.371 173.727 118.371ZM173.528 119.328C173.009 119.328 172.59 119.428 172.271 119.629C171.956 119.829 171.726 120.13 171.58 120.531C171.434 120.928 171.357 121.427 171.348 122.028V122.247C171.348 122.881 171.416 123.416 171.553 123.854C171.694 124.291 171.924 124.624 172.243 124.852C172.567 125.079 173 125.193 173.542 125.193C174.007 125.193 174.394 125.068 174.704 124.817C175.014 124.567 175.244 124.218 175.395 123.771C175.549 123.32 175.627 122.803 175.627 122.22C175.627 121.336 175.454 120.634 175.107 120.114C174.766 119.59 174.239 119.328 173.528 119.328ZM181.779 126.137C181.105 126.137 180.51 125.998 179.995 125.72C179.48 125.442 179.079 125.018 178.792 124.448C178.505 123.879 178.361 123.161 178.361 122.295C178.361 121.388 178.512 120.647 178.812 120.073C179.118 119.494 179.537 119.066 180.07 118.788C180.604 118.51 181.21 118.371 181.889 118.371C182.262 118.371 182.622 118.41 182.969 118.487C183.32 118.56 183.607 118.654 183.83 118.768L183.488 119.718C183.26 119.627 182.996 119.545 182.695 119.472C182.399 119.399 182.121 119.362 181.861 119.362C181.342 119.362 180.909 119.474 180.562 119.697C180.221 119.921 179.963 120.249 179.79 120.682C179.621 121.115 179.537 121.648 179.537 122.281C179.537 122.887 179.619 123.405 179.783 123.833C179.952 124.261 180.2 124.59 180.528 124.817C180.861 125.041 181.276 125.152 181.772 125.152C182.169 125.152 182.527 125.111 182.846 125.029C183.165 124.943 183.454 124.842 183.714 124.729V125.74C183.463 125.868 183.183 125.966 182.873 126.034C182.568 126.103 182.203 126.137 181.779 126.137ZM186.626 118.508V126H185.491V118.508H186.626ZM186.072 115.705C186.259 115.705 186.419 115.767 186.551 115.89C186.688 116.008 186.756 116.195 186.756 116.45C186.756 116.701 186.688 116.888 186.551 117.011C186.419 117.134 186.259 117.195 186.072 117.195C185.876 117.195 185.712 117.134 185.58 117.011C185.452 116.888 185.389 116.701 185.389 116.45C185.389 116.195 185.452 116.008 185.58 115.89C185.712 115.767 185.876 115.705 186.072 115.705ZM195.492 122.24C195.492 122.855 195.412 123.405 195.253 123.888C195.093 124.371 194.863 124.779 194.562 125.111C194.262 125.444 193.897 125.699 193.469 125.877C193.045 126.05 192.564 126.137 192.026 126.137C191.525 126.137 191.065 126.05 190.646 125.877C190.231 125.699 189.871 125.444 189.565 125.111C189.265 124.779 189.03 124.371 188.861 123.888C188.697 123.405 188.615 122.855 188.615 122.24C188.615 121.42 188.754 120.723 189.032 120.148C189.31 119.57 189.707 119.13 190.222 118.829C190.741 118.524 191.359 118.371 192.074 118.371C192.758 118.371 193.355 118.524 193.865 118.829C194.38 119.134 194.779 119.576 195.062 120.155C195.349 120.729 195.492 121.424 195.492 122.24ZM189.791 122.24C189.791 122.842 189.871 123.364 190.03 123.806C190.19 124.248 190.436 124.59 190.769 124.831C191.101 125.073 191.53 125.193 192.054 125.193C192.573 125.193 192.999 125.073 193.332 124.831C193.669 124.59 193.918 124.248 194.077 123.806C194.237 123.364 194.316 122.842 194.316 122.24C194.316 121.643 194.237 121.128 194.077 120.695C193.918 120.258 193.672 119.921 193.339 119.684C193.006 119.447 192.576 119.328 192.047 119.328C191.268 119.328 190.696 119.586 190.331 120.101C189.971 120.616 189.791 121.329 189.791 122.24ZM201.002 118.371C201.891 118.371 202.563 118.59 203.019 119.027C203.474 119.46 203.702 120.158 203.702 121.119V126H202.581V121.194C202.581 120.57 202.438 120.103 202.15 119.793C201.868 119.483 201.433 119.328 200.845 119.328C200.015 119.328 199.432 119.563 199.095 120.032C198.757 120.502 198.589 121.183 198.589 122.076V126H197.454V118.508H198.37L198.541 119.588H198.603C198.762 119.324 198.965 119.103 199.211 118.925C199.457 118.743 199.733 118.606 200.038 118.515C200.343 118.419 200.665 118.371 201.002 118.371ZM208.843 118.385C209.736 118.385 210.399 118.585 210.832 118.986C211.265 119.387 211.481 120.028 211.481 120.907V126H210.654L210.436 124.893H210.381C210.171 125.166 209.952 125.396 209.725 125.583C209.497 125.765 209.232 125.904 208.932 126C208.635 126.091 208.271 126.137 207.838 126.137C207.382 126.137 206.977 126.057 206.621 125.897C206.27 125.738 205.992 125.496 205.787 125.173C205.587 124.849 205.486 124.439 205.486 123.942C205.486 123.195 205.783 122.621 206.375 122.22C206.967 121.819 207.87 121.6 209.082 121.563L210.374 121.509V121.051C210.374 120.404 210.235 119.95 209.957 119.69C209.679 119.431 209.287 119.301 208.781 119.301C208.389 119.301 208.016 119.358 207.66 119.472C207.305 119.586 206.967 119.72 206.648 119.875L206.3 119.014C206.637 118.84 207.024 118.692 207.462 118.569C207.899 118.446 208.36 118.385 208.843 118.385ZM210.36 122.309L209.219 122.356C208.285 122.393 207.626 122.546 207.243 122.814C206.86 123.083 206.669 123.464 206.669 123.956C206.669 124.384 206.799 124.701 207.059 124.906C207.318 125.111 207.662 125.214 208.091 125.214C208.756 125.214 209.301 125.029 209.725 124.66C210.148 124.291 210.36 123.737 210.36 122.999V122.309ZM214.961 126H213.819V115.363H214.961V126ZM218.659 124.373L218.748 124.53C218.666 124.863 218.561 125.218 218.434 125.597C218.311 125.975 218.174 126.353 218.023 126.731C217.878 127.114 217.729 127.472 217.579 127.805H216.731C216.827 127.44 216.921 127.055 217.012 126.649C217.103 126.248 217.185 125.852 217.258 125.46C217.335 125.063 217.397 124.701 217.442 124.373H218.659ZM228.141 118.371C229.075 118.371 229.82 118.692 230.376 119.335C230.932 119.978 231.21 120.944 231.21 122.233C231.21 123.086 231.082 123.801 230.827 124.38C230.572 124.959 230.212 125.396 229.747 125.692C229.287 125.989 228.742 126.137 228.113 126.137C227.717 126.137 227.368 126.084 227.067 125.979C226.767 125.875 226.509 125.733 226.295 125.556C226.081 125.378 225.903 125.184 225.762 124.975H225.68C225.693 125.152 225.709 125.367 225.728 125.617C225.75 125.868 225.762 126.087 225.762 126.273V129.35H224.62V118.508H225.557L225.707 119.615H225.762C225.908 119.387 226.085 119.18 226.295 118.993C226.505 118.802 226.76 118.651 227.061 118.542C227.366 118.428 227.726 118.371 228.141 118.371ZM227.942 119.328C227.423 119.328 227.004 119.428 226.685 119.629C226.37 119.829 226.14 120.13 225.994 120.531C225.848 120.928 225.771 121.427 225.762 122.028V122.247C225.762 122.881 225.83 123.416 225.967 123.854C226.108 124.291 226.338 124.624 226.657 124.852C226.981 125.079 227.414 125.193 227.956 125.193C228.421 125.193 228.808 125.068 229.118 124.817C229.428 124.567 229.658 124.218 229.809 123.771C229.964 123.32 230.041 122.803 230.041 122.22C230.041 121.336 229.868 120.634 229.521 120.114C229.18 119.59 228.653 119.328 227.942 119.328ZM236.077 118.371C236.715 118.371 237.262 118.512 237.718 118.795C238.174 119.077 238.522 119.474 238.764 119.984C239.005 120.49 239.126 121.083 239.126 121.762V122.466H233.951C233.965 123.345 234.184 124.015 234.607 124.476C235.031 124.936 235.628 125.166 236.398 125.166C236.872 125.166 237.292 125.123 237.656 125.036C238.021 124.95 238.399 124.822 238.791 124.653V125.651C238.413 125.82 238.037 125.943 237.663 126.021C237.294 126.098 236.856 126.137 236.351 126.137C235.631 126.137 235.002 125.991 234.464 125.699C233.931 125.403 233.516 124.97 233.22 124.4C232.924 123.831 232.775 123.133 232.775 122.309C232.775 121.502 232.91 120.805 233.179 120.217C233.452 119.624 233.835 119.169 234.327 118.85C234.824 118.531 235.407 118.371 236.077 118.371ZM236.063 119.301C235.457 119.301 234.974 119.499 234.614 119.896C234.254 120.292 234.04 120.846 233.972 121.557H237.937C237.932 121.11 237.861 120.718 237.725 120.381C237.592 120.039 237.39 119.775 237.116 119.588C236.843 119.396 236.492 119.301 236.063 119.301ZM244.458 118.371C244.608 118.371 244.766 118.38 244.93 118.398C245.094 118.412 245.24 118.433 245.367 118.46L245.224 119.513C245.101 119.481 244.964 119.456 244.813 119.438C244.663 119.419 244.522 119.41 244.39 119.41C244.089 119.41 243.804 119.472 243.535 119.595C243.271 119.713 243.038 119.886 242.838 120.114C242.637 120.338 242.48 120.609 242.366 120.928C242.252 121.242 242.195 121.593 242.195 121.98V126H241.054V118.508H241.997L242.12 119.889H242.168C242.323 119.611 242.51 119.358 242.729 119.13C242.947 118.897 243.2 118.713 243.487 118.576C243.779 118.439 244.103 118.371 244.458 118.371ZM253.242 122.24C253.242 122.855 253.162 123.405 253.003 123.888C252.843 124.371 252.613 124.779 252.312 125.111C252.012 125.444 251.647 125.699 251.219 125.877C250.795 126.05 250.314 126.137 249.776 126.137C249.275 126.137 248.815 126.05 248.396 125.877C247.981 125.699 247.621 125.444 247.315 125.111C247.015 124.779 246.78 124.371 246.611 123.888C246.447 123.405 246.365 122.855 246.365 122.24C246.365 121.42 246.504 120.723 246.782 120.148C247.06 119.57 247.457 119.13 247.972 118.829C248.491 118.524 249.109 118.371 249.824 118.371C250.508 118.371 251.105 118.524 251.615 118.829C252.13 119.134 252.529 119.576 252.812 120.155C253.099 120.729 253.242 121.424 253.242 122.24ZM247.541 122.24C247.541 122.842 247.621 123.364 247.78 123.806C247.94 124.248 248.186 124.59 248.519 124.831C248.851 125.073 249.28 125.193 249.804 125.193C250.323 125.193 250.749 125.073 251.082 124.831C251.419 124.59 251.668 124.248 251.827 123.806C251.987 123.364 252.066 122.842 252.066 122.24C252.066 121.643 251.987 121.128 251.827 120.695C251.668 120.258 251.422 119.921 251.089 119.684C250.756 119.447 250.326 119.328 249.797 119.328C249.018 119.328 248.446 119.586 248.081 120.101C247.721 120.616 247.541 121.329 247.541 122.24ZM262.245 118.371C262.396 118.371 262.553 118.38 262.717 118.398C262.881 118.412 263.027 118.433 263.154 118.46L263.011 119.513C262.888 119.481 262.751 119.456 262.601 119.438C262.45 119.419 262.309 119.41 262.177 119.41C261.876 119.41 261.591 119.472 261.322 119.595C261.058 119.713 260.826 119.886 260.625 120.114C260.424 120.338 260.267 120.609 260.153 120.928C260.039 121.242 259.982 121.593 259.982 121.98V126H258.841V118.508H259.784L259.907 119.889H259.955C260.11 119.611 260.297 119.358 260.516 119.13C260.734 118.897 260.987 118.713 261.274 118.576C261.566 118.439 261.89 118.371 262.245 118.371ZM267.454 118.371C268.092 118.371 268.639 118.512 269.095 118.795C269.55 119.077 269.899 119.474 270.141 119.984C270.382 120.49 270.503 121.083 270.503 121.762V122.466H265.328C265.342 123.345 265.561 124.015 265.984 124.476C266.408 124.936 267.005 125.166 267.775 125.166C268.249 125.166 268.669 125.123 269.033 125.036C269.398 124.95 269.776 124.822 270.168 124.653V125.651C269.79 125.82 269.414 125.943 269.04 126.021C268.671 126.098 268.233 126.137 267.728 126.137C267.007 126.137 266.379 125.991 265.841 125.699C265.308 125.403 264.893 124.97 264.597 124.4C264.3 123.831 264.152 123.133 264.152 122.309C264.152 121.502 264.287 120.805 264.556 120.217C264.829 119.624 265.212 119.169 265.704 118.85C266.201 118.531 266.784 118.371 267.454 118.371ZM267.44 119.301C266.834 119.301 266.351 119.499 265.991 119.896C265.631 120.292 265.417 120.846 265.349 121.557H269.313C269.309 121.11 269.238 120.718 269.102 120.381C268.969 120.039 268.767 119.775 268.493 119.588C268.22 119.396 267.869 119.301 267.44 119.301ZM275.432 126.137C274.757 126.137 274.162 125.998 273.647 125.72C273.132 125.442 272.731 125.018 272.444 124.448C272.157 123.879 272.014 123.161 272.014 122.295C272.014 121.388 272.164 120.647 272.465 120.073C272.77 119.494 273.189 119.066 273.723 118.788C274.256 118.51 274.862 118.371 275.541 118.371C275.915 118.371 276.275 118.41 276.621 118.487C276.972 118.56 277.259 118.654 277.482 118.768L277.141 119.718C276.913 119.627 276.648 119.545 276.348 119.472C276.051 119.399 275.773 119.362 275.514 119.362C274.994 119.362 274.561 119.474 274.215 119.697C273.873 119.921 273.616 120.249 273.442 120.682C273.274 121.115 273.189 121.648 273.189 122.281C273.189 122.887 273.271 123.405 273.436 123.833C273.604 124.261 273.853 124.59 274.181 124.817C274.513 125.041 274.928 125.152 275.425 125.152C275.821 125.152 276.179 125.111 276.498 125.029C276.817 124.943 277.106 124.842 277.366 124.729V125.74C277.116 125.868 276.835 125.966 276.525 126.034C276.22 126.103 275.855 126.137 275.432 126.137ZM285.604 122.24C285.604 122.855 285.524 123.405 285.364 123.888C285.205 124.371 284.975 124.779 284.674 125.111C284.373 125.444 284.008 125.699 283.58 125.877C283.156 126.05 282.675 126.137 282.138 126.137C281.636 126.137 281.176 126.05 280.757 125.877C280.342 125.699 279.982 125.444 279.677 125.111C279.376 124.779 279.141 124.371 278.973 123.888C278.809 123.405 278.727 122.855 278.727 122.24C278.727 121.42 278.866 120.723 279.144 120.148C279.422 119.57 279.818 119.13 280.333 118.829C280.853 118.524 281.47 118.371 282.186 118.371C282.869 118.371 283.466 118.524 283.977 118.829C284.492 119.134 284.89 119.576 285.173 120.155C285.46 120.729 285.604 121.424 285.604 122.24ZM279.902 122.24C279.902 122.842 279.982 123.364 280.142 123.806C280.301 124.248 280.547 124.59 280.88 124.831C281.213 125.073 281.641 125.193 282.165 125.193C282.685 125.193 283.111 125.073 283.443 124.831C283.781 124.59 284.029 124.248 284.188 123.806C284.348 123.364 284.428 122.842 284.428 122.24C284.428 121.643 284.348 121.128 284.188 120.695C284.029 120.258 283.783 119.921 283.45 119.684C283.118 119.447 282.687 119.328 282.158 119.328C281.379 119.328 280.807 119.586 280.442 120.101C280.082 120.616 279.902 121.329 279.902 122.24ZM295.7 118.371C296.525 118.371 297.147 118.588 297.566 119.021C297.986 119.449 298.195 120.139 298.195 121.092V126H297.074V121.146C297.074 120.54 296.942 120.087 296.678 119.786C296.418 119.481 296.031 119.328 295.516 119.328C294.791 119.328 294.265 119.538 293.937 119.957C293.608 120.376 293.444 120.994 293.444 121.81V126H292.316V121.146C292.316 120.741 292.257 120.404 292.139 120.135C292.025 119.866 291.852 119.665 291.619 119.533C291.391 119.396 291.102 119.328 290.751 119.328C290.254 119.328 289.855 119.431 289.555 119.636C289.254 119.841 289.035 120.146 288.898 120.552C288.766 120.953 288.7 121.447 288.7 122.035V126H287.565V118.508H288.481L288.652 119.567H288.714C288.864 119.308 289.053 119.089 289.281 118.911C289.509 118.733 289.764 118.599 290.047 118.508C290.329 118.417 290.63 118.371 290.949 118.371C291.519 118.371 291.995 118.478 292.378 118.692C292.765 118.902 293.046 119.223 293.219 119.656H293.28C293.526 119.223 293.864 118.902 294.292 118.692C294.72 118.478 295.19 118.371 295.7 118.371ZM303.411 118.371C304.049 118.371 304.596 118.512 305.052 118.795C305.507 119.077 305.856 119.474 306.098 119.984C306.339 120.49 306.46 121.083 306.46 121.762V122.466H301.285C301.299 123.345 301.518 124.015 301.941 124.476C302.365 124.936 302.962 125.166 303.732 125.166C304.206 125.166 304.626 125.123 304.99 125.036C305.355 124.95 305.733 124.822 306.125 124.653V125.651C305.747 125.82 305.371 125.943 304.997 126.021C304.628 126.098 304.19 126.137 303.685 126.137C302.965 126.137 302.336 125.991 301.798 125.699C301.265 125.403 300.85 124.97 300.554 124.4C300.257 123.831 300.109 123.133 300.109 122.309C300.109 121.502 300.244 120.805 300.513 120.217C300.786 119.624 301.169 119.169 301.661 118.85C302.158 118.531 302.741 118.371 303.411 118.371ZM303.397 119.301C302.791 119.301 302.308 119.499 301.948 119.896C301.588 120.292 301.374 120.846 301.306 121.557H305.271C305.266 121.11 305.195 120.718 305.059 120.381C304.926 120.039 304.724 119.775 304.45 119.588C304.177 119.396 303.826 119.301 303.397 119.301ZM311.936 118.371C312.824 118.371 313.496 118.59 313.952 119.027C314.408 119.46 314.636 120.158 314.636 121.119V126H313.515V121.194C313.515 120.57 313.371 120.103 313.084 119.793C312.801 119.483 312.366 119.328 311.778 119.328C310.949 119.328 310.366 119.563 310.028 120.032C309.691 120.502 309.522 121.183 309.522 122.076V126H308.388V118.508H309.304L309.475 119.588H309.536C309.696 119.324 309.898 119.103 310.145 118.925C310.391 118.743 310.666 118.606 310.972 118.515C311.277 118.419 311.598 118.371 311.936 118.371ZM319.64 126.137C318.692 126.137 317.94 125.813 317.384 125.166C316.832 124.519 316.557 123.557 316.557 122.281C316.557 120.992 316.839 120.019 317.404 119.362C317.969 118.701 318.721 118.371 319.66 118.371C320.057 118.371 320.403 118.424 320.699 118.528C320.995 118.633 321.251 118.774 321.465 118.952C321.679 119.125 321.859 119.324 322.005 119.547H322.087C322.069 119.406 322.05 119.212 322.032 118.966C322.014 118.72 322.005 118.519 322.005 118.364V115.363H323.14V126H322.224L322.053 124.934H322.005C321.864 125.157 321.684 125.36 321.465 125.542C321.251 125.724 320.993 125.87 320.692 125.979C320.396 126.084 320.045 126.137 319.64 126.137ZM319.817 125.193C320.619 125.193 321.187 124.965 321.52 124.51C321.852 124.054 322.019 123.377 322.019 122.479V122.274C322.019 121.322 321.859 120.59 321.54 120.08C321.226 119.57 320.651 119.314 319.817 119.314C319.12 119.314 318.598 119.583 318.252 120.121C317.906 120.654 317.732 121.383 317.732 122.309C317.732 123.229 317.903 123.94 318.245 124.441C318.591 124.943 319.116 125.193 319.817 125.193ZM328.349 118.385C329.242 118.385 329.905 118.585 330.338 118.986C330.771 119.387 330.987 120.028 330.987 120.907V126H330.16L329.941 124.893H329.887C329.677 125.166 329.458 125.396 329.23 125.583C329.003 125.765 328.738 125.904 328.438 126C328.141 126.091 327.777 126.137 327.344 126.137C326.888 126.137 326.482 126.057 326.127 125.897C325.776 125.738 325.498 125.496 325.293 125.173C325.092 124.849 324.992 124.439 324.992 123.942C324.992 123.195 325.288 122.621 325.881 122.22C326.473 121.819 327.376 121.6 328.588 121.563L329.88 121.509V121.051C329.88 120.404 329.741 119.95 329.463 119.69C329.185 119.431 328.793 119.301 328.287 119.301C327.895 119.301 327.521 119.358 327.166 119.472C326.811 119.586 326.473 119.72 326.154 119.875L325.806 119.014C326.143 118.84 326.53 118.692 326.968 118.569C327.405 118.446 327.866 118.385 328.349 118.385ZM329.866 122.309L328.725 122.356C327.79 122.393 327.132 122.546 326.749 122.814C326.366 123.083 326.175 123.464 326.175 123.956C326.175 124.384 326.305 124.701 326.564 124.906C326.824 125.111 327.168 125.214 327.597 125.214C328.262 125.214 328.807 125.029 329.23 124.66C329.654 124.291 329.866 123.737 329.866 122.999V122.309ZM335.991 126.137C335.043 126.137 334.291 125.813 333.735 125.166C333.184 124.519 332.908 123.557 332.908 122.281C332.908 120.992 333.191 120.019 333.756 119.362C334.321 118.701 335.073 118.371 336.012 118.371C336.408 118.371 336.755 118.424 337.051 118.528C337.347 118.633 337.602 118.774 337.816 118.952C338.031 119.125 338.211 119.324 338.356 119.547H338.438C338.42 119.406 338.402 119.212 338.384 118.966C338.366 118.72 338.356 118.519 338.356 118.364V115.363H339.491V126H338.575L338.404 124.934H338.356C338.215 125.157 338.035 125.36 337.816 125.542C337.602 125.724 337.345 125.87 337.044 125.979C336.748 126.084 336.397 126.137 335.991 126.137ZM336.169 125.193C336.971 125.193 337.538 124.965 337.871 124.51C338.204 124.054 338.37 123.377 338.37 122.479V122.274C338.37 121.322 338.211 120.59 337.892 120.08C337.577 119.57 337.003 119.314 336.169 119.314C335.472 119.314 334.95 119.583 334.604 120.121C334.257 120.654 334.084 121.383 334.084 122.309C334.084 123.229 334.255 123.94 334.597 124.441C334.943 124.943 335.467 125.193 336.169 125.193ZM348.357 122.24C348.357 122.855 348.278 123.405 348.118 123.888C347.959 124.371 347.729 124.779 347.428 125.111C347.127 125.444 346.762 125.699 346.334 125.877C345.91 126.05 345.429 126.137 344.892 126.137C344.39 126.137 343.93 126.05 343.511 125.877C343.096 125.699 342.736 125.444 342.431 125.111C342.13 124.779 341.895 124.371 341.727 123.888C341.562 123.405 341.48 122.855 341.48 122.24C341.48 121.42 341.619 120.723 341.897 120.148C342.175 119.57 342.572 119.13 343.087 118.829C343.606 118.524 344.224 118.371 344.939 118.371C345.623 118.371 346.22 118.524 346.73 118.829C347.245 119.134 347.644 119.576 347.927 120.155C348.214 120.729 348.357 121.424 348.357 122.24ZM342.656 122.24C342.656 122.842 342.736 123.364 342.896 123.806C343.055 124.248 343.301 124.59 343.634 124.831C343.966 125.073 344.395 125.193 344.919 125.193C345.438 125.193 345.865 125.073 346.197 124.831C346.535 124.59 346.783 124.248 346.942 123.806C347.102 123.364 347.182 122.842 347.182 122.24C347.182 121.643 347.102 121.128 346.942 120.695C346.783 120.258 346.537 119.921 346.204 119.684C345.871 119.447 345.441 119.328 344.912 119.328C344.133 119.328 343.561 119.586 343.196 120.101C342.836 120.616 342.656 121.329 342.656 122.24ZM351.618 124.373L351.707 124.53C351.625 124.863 351.52 125.218 351.393 125.597C351.27 125.975 351.133 126.353 350.982 126.731C350.837 127.114 350.688 127.472 350.538 127.805H349.69C349.786 127.44 349.88 127.055 349.971 126.649C350.062 126.248 350.144 125.852 350.217 125.46C350.294 125.063 350.356 124.701 350.401 124.373H351.618ZM356.396 118.508H357.613L359.268 122.855C359.363 123.111 359.452 123.357 359.534 123.594C359.616 123.826 359.689 124.049 359.753 124.264C359.817 124.478 359.867 124.685 359.903 124.886H359.951C360.015 124.658 360.106 124.359 360.225 123.99C360.343 123.617 360.471 123.236 360.607 122.849L362.173 118.508H363.396L360.136 127.101C359.963 127.561 359.76 127.962 359.527 128.304C359.299 128.646 359.021 128.908 358.693 129.09C358.365 129.277 357.969 129.37 357.504 129.37C357.29 129.37 357.101 129.356 356.937 129.329C356.772 129.306 356.631 129.279 356.513 129.247V128.338C356.613 128.361 356.734 128.381 356.875 128.399C357.021 128.418 357.171 128.427 357.326 128.427C357.609 128.427 357.853 128.372 358.058 128.263C358.267 128.158 358.447 128.003 358.598 127.798C358.748 127.593 358.878 127.349 358.987 127.066L359.397 126.014L356.396 118.508ZM370.896 126.137C369.948 126.137 369.196 125.813 368.64 125.166C368.088 124.519 367.812 123.557 367.812 122.281C367.812 120.992 368.095 120.019 368.66 119.362C369.225 118.701 369.977 118.371 370.916 118.371C371.312 118.371 371.659 118.424 371.955 118.528C372.251 118.633 372.507 118.774 372.721 118.952C372.935 119.125 373.115 119.324 373.261 119.547H373.343C373.325 119.406 373.306 119.212 373.288 118.966C373.27 118.72 373.261 118.519 373.261 118.364V115.363H374.396V126H373.479L373.309 124.934H373.261C373.119 125.157 372.939 125.36 372.721 125.542C372.507 125.724 372.249 125.87 371.948 125.979C371.652 126.084 371.301 126.137 370.896 126.137ZM371.073 125.193C371.875 125.193 372.443 124.965 372.775 124.51C373.108 124.054 373.274 123.377 373.274 122.479V122.274C373.274 121.322 373.115 120.59 372.796 120.08C372.481 119.57 371.907 119.314 371.073 119.314C370.376 119.314 369.854 119.583 369.508 120.121C369.161 120.654 368.988 121.383 368.988 122.309C368.988 123.229 369.159 123.94 369.501 124.441C369.847 124.943 370.371 125.193 371.073 125.193ZM379.687 118.371C380.325 118.371 380.871 118.512 381.327 118.795C381.783 119.077 382.132 119.474 382.373 119.984C382.615 120.49 382.735 121.083 382.735 121.762V122.466H377.561C377.574 123.345 377.793 124.015 378.217 124.476C378.641 124.936 379.238 125.166 380.008 125.166C380.482 125.166 380.901 125.123 381.266 125.036C381.63 124.95 382.008 124.822 382.4 124.653V125.651C382.022 125.82 381.646 125.943 381.272 126.021C380.903 126.098 380.466 126.137 379.96 126.137C379.24 126.137 378.611 125.991 378.073 125.699C377.54 125.403 377.125 124.97 376.829 124.4C376.533 123.831 376.385 123.133 376.385 122.309C376.385 121.502 376.519 120.805 376.788 120.217C377.062 119.624 377.444 119.169 377.937 118.85C378.433 118.531 379.017 118.371 379.687 118.371ZM379.673 119.301C379.067 119.301 378.584 119.499 378.224 119.896C377.864 120.292 377.649 120.846 377.581 121.557H381.546C381.541 121.11 381.471 120.718 381.334 120.381C381.202 120.039 380.999 119.775 380.726 119.588C380.452 119.396 380.101 119.301 379.673 119.301ZM391.848 118.371C392.736 118.371 393.409 118.59 393.864 119.027C394.32 119.46 394.548 120.158 394.548 121.119V126H393.427V121.194C393.427 120.57 393.283 120.103 392.996 119.793C392.714 119.483 392.278 119.328 391.69 119.328C390.861 119.328 390.278 119.563 389.94 120.032C389.603 120.502 389.435 121.183 389.435 122.076V126H388.3V118.508H389.216L389.387 119.588H389.448C389.608 119.324 389.811 119.103 390.057 118.925C390.303 118.743 390.578 118.606 390.884 118.515C391.189 118.419 391.51 118.371 391.848 118.371ZM403.346 122.24C403.346 122.855 403.266 123.405 403.106 123.888C402.947 124.371 402.717 124.779 402.416 125.111C402.115 125.444 401.751 125.699 401.322 125.877C400.898 126.05 400.418 126.137 399.88 126.137C399.379 126.137 398.918 126.05 398.499 125.877C398.084 125.699 397.724 125.444 397.419 125.111C397.118 124.779 396.883 124.371 396.715 123.888C396.551 123.405 396.469 122.855 396.469 122.24C396.469 121.42 396.608 120.723 396.886 120.148C397.164 119.57 397.56 119.13 398.075 118.829C398.595 118.524 399.212 118.371 399.928 118.371C400.611 118.371 401.208 118.524 401.719 118.829C402.234 119.134 402.632 119.576 402.915 120.155C403.202 120.729 403.346 121.424 403.346 122.24ZM397.645 122.24C397.645 122.842 397.724 123.364 397.884 123.806C398.043 124.248 398.289 124.59 398.622 124.831C398.955 125.073 399.383 125.193 399.907 125.193C400.427 125.193 400.853 125.073 401.186 124.831C401.523 124.59 401.771 124.248 401.931 123.806C402.09 123.364 402.17 122.842 402.17 122.24C402.17 121.643 402.09 121.128 401.931 120.695C401.771 120.258 401.525 119.921 401.192 119.684C400.86 119.447 400.429 119.328 399.9 119.328C399.121 119.328 398.549 119.586 398.185 120.101C397.825 120.616 397.645 121.329 397.645 122.24ZM417.079 118.371C417.904 118.371 418.526 118.588 418.945 119.021C419.365 119.449 419.574 120.139 419.574 121.092V126H418.453V121.146C418.453 120.54 418.321 120.087 418.057 119.786C417.797 119.481 417.41 119.328 416.895 119.328C416.17 119.328 415.644 119.538 415.315 119.957C414.987 120.376 414.823 120.994 414.823 121.81V126H413.695V121.146C413.695 120.741 413.636 120.404 413.518 120.135C413.404 119.866 413.23 119.665 412.998 119.533C412.77 119.396 412.481 119.328 412.13 119.328C411.633 119.328 411.234 119.431 410.934 119.636C410.633 119.841 410.414 120.146 410.277 120.552C410.145 120.953 410.079 121.447 410.079 122.035V126H408.944V118.508H409.86L410.031 119.567H410.093C410.243 119.308 410.432 119.089 410.66 118.911C410.888 118.733 411.143 118.599 411.426 118.508C411.708 118.417 412.009 118.371 412.328 118.371C412.898 118.371 413.374 118.478 413.757 118.692C414.144 118.902 414.424 119.223 414.598 119.656H414.659C414.905 119.223 415.243 118.902 415.671 118.692C416.099 118.478 416.569 118.371 417.079 118.371ZM424.708 118.385C425.601 118.385 426.264 118.585 426.697 118.986C427.13 119.387 427.347 120.028 427.347 120.907V126H426.52L426.301 124.893H426.246C426.036 125.166 425.818 125.396 425.59 125.583C425.362 125.765 425.098 125.904 424.797 126C424.501 126.091 424.136 126.137 423.703 126.137C423.247 126.137 422.842 126.057 422.486 125.897C422.135 125.738 421.857 125.496 421.652 125.173C421.452 124.849 421.352 124.439 421.352 123.942C421.352 123.195 421.648 122.621 422.24 122.22C422.833 121.819 423.735 121.6 424.947 121.563L426.239 121.509V121.051C426.239 120.404 426.1 119.95 425.822 119.69C425.544 119.431 425.152 119.301 424.646 119.301C424.255 119.301 423.881 119.358 423.525 119.472C423.17 119.586 422.833 119.72 422.514 119.875L422.165 119.014C422.502 118.84 422.89 118.692 423.327 118.569C423.765 118.446 424.225 118.385 424.708 118.385ZM426.226 122.309L425.084 122.356C424.15 122.393 423.491 122.546 423.108 122.814C422.726 123.083 422.534 123.464 422.534 123.956C422.534 124.384 422.664 124.701 422.924 124.906C423.184 125.111 423.528 125.214 423.956 125.214C424.621 125.214 425.166 125.029 425.59 124.66C426.014 124.291 426.226 123.737 426.226 122.999V122.309ZM426.581 115.274V115.411C426.49 115.543 426.365 115.703 426.205 115.89C426.05 116.072 425.877 116.266 425.686 116.471C425.494 116.671 425.3 116.863 425.104 117.045C424.913 117.227 424.735 117.384 424.571 117.517H423.812V117.353C423.958 117.179 424.118 116.972 424.291 116.73C424.464 116.484 424.633 116.234 424.797 115.979C424.961 115.719 425.098 115.484 425.207 115.274H426.581ZM434.531 123.949C434.531 124.428 434.41 124.831 434.169 125.159C433.932 125.483 433.59 125.727 433.144 125.891C432.701 126.055 432.173 126.137 431.558 126.137C431.034 126.137 430.58 126.096 430.197 126.014C429.814 125.932 429.479 125.815 429.192 125.665V124.619C429.498 124.77 429.862 124.906 430.286 125.029C430.71 125.152 431.143 125.214 431.585 125.214C432.232 125.214 432.701 125.109 432.993 124.899C433.285 124.69 433.431 124.405 433.431 124.045C433.431 123.84 433.371 123.66 433.253 123.505C433.139 123.345 432.945 123.193 432.672 123.047C432.398 122.896 432.02 122.732 431.537 122.555C431.059 122.372 430.644 122.192 430.293 122.015C429.947 121.832 429.678 121.611 429.486 121.352C429.299 121.092 429.206 120.755 429.206 120.34C429.206 119.706 429.461 119.221 429.972 118.884C430.487 118.542 431.161 118.371 431.995 118.371C432.446 118.371 432.868 118.417 433.26 118.508C433.656 118.594 434.025 118.713 434.367 118.863L433.984 119.772C433.674 119.64 433.344 119.529 432.993 119.438C432.642 119.346 432.285 119.301 431.92 119.301C431.396 119.301 430.993 119.387 430.71 119.561C430.432 119.734 430.293 119.971 430.293 120.271C430.293 120.504 430.357 120.695 430.484 120.846C430.617 120.996 430.826 121.137 431.113 121.27C431.4 121.402 431.779 121.557 432.248 121.734C432.717 121.908 433.123 122.088 433.465 122.274C433.807 122.457 434.069 122.68 434.251 122.944C434.438 123.204 434.531 123.539 434.531 123.949ZM442.659 126.137C441.711 126.137 440.959 125.813 440.403 125.166C439.852 124.519 439.576 123.557 439.576 122.281C439.576 120.992 439.859 120.019 440.424 119.362C440.989 118.701 441.741 118.371 442.68 118.371C443.076 118.371 443.423 118.424 443.719 118.528C444.015 118.633 444.27 118.774 444.484 118.952C444.699 119.125 444.879 119.324 445.024 119.547H445.106C445.088 119.406 445.07 119.212 445.052 118.966C445.034 118.72 445.024 118.519 445.024 118.364V115.363H446.159V126H445.243L445.072 124.934H445.024C444.883 125.157 444.703 125.36 444.484 125.542C444.27 125.724 444.013 125.87 443.712 125.979C443.416 126.084 443.065 126.137 442.659 126.137ZM442.837 125.193C443.639 125.193 444.206 124.965 444.539 124.51C444.872 124.054 445.038 123.377 445.038 122.479V122.274C445.038 121.322 444.879 120.59 444.56 120.08C444.245 119.57 443.671 119.314 442.837 119.314C442.14 119.314 441.618 119.583 441.271 120.121C440.925 120.654 440.752 121.383 440.752 122.309C440.752 123.229 440.923 123.94 441.265 124.441C441.611 124.943 442.135 125.193 442.837 125.193ZM451.45 118.371C452.088 118.371 452.635 118.512 453.091 118.795C453.547 119.077 453.895 119.474 454.137 119.984C454.378 120.49 454.499 121.083 454.499 121.762V122.466H449.324C449.338 123.345 449.557 124.015 449.98 124.476C450.404 124.936 451.001 125.166 451.771 125.166C452.245 125.166 452.665 125.123 453.029 125.036C453.394 124.95 453.772 124.822 454.164 124.653V125.651C453.786 125.82 453.41 125.943 453.036 126.021C452.667 126.098 452.229 126.137 451.724 126.137C451.004 126.137 450.375 125.991 449.837 125.699C449.304 125.403 448.889 124.97 448.593 124.4C448.297 123.831 448.148 123.133 448.148 122.309C448.148 121.502 448.283 120.805 448.552 120.217C448.825 119.624 449.208 119.169 449.7 118.85C450.197 118.531 450.78 118.371 451.45 118.371ZM451.437 119.301C450.83 119.301 450.347 119.499 449.987 119.896C449.627 120.292 449.413 120.846 449.345 121.557H453.31C453.305 121.11 453.234 120.718 453.098 120.381C452.965 120.039 452.763 119.775 452.489 119.588C452.216 119.396 451.865 119.301 451.437 119.301ZM465.737 118.337C465.737 118.784 465.651 119.171 465.478 119.499C465.304 119.827 465.063 120.096 464.753 120.306C464.443 120.511 464.078 120.654 463.659 120.736V120.791C464.452 120.891 465.047 121.146 465.443 121.557C465.844 121.967 466.045 122.505 466.045 123.17C466.045 123.749 465.908 124.261 465.635 124.708C465.366 125.155 464.951 125.506 464.391 125.761C463.835 126.011 463.121 126.137 462.251 126.137C461.722 126.137 461.232 126.093 460.781 126.007C460.335 125.925 459.906 125.786 459.496 125.59V124.523C459.911 124.729 460.362 124.89 460.85 125.009C461.337 125.123 461.809 125.18 462.265 125.18C463.176 125.18 463.835 125 464.24 124.64C464.646 124.275 464.849 123.778 464.849 123.149C464.849 122.716 464.735 122.368 464.507 122.104C464.284 121.835 463.96 121.639 463.536 121.516C463.117 121.388 462.611 121.324 462.019 121.324H461.021V120.354H462.025C462.568 120.354 463.028 120.274 463.406 120.114C463.785 119.955 464.072 119.731 464.268 119.444C464.468 119.153 464.568 118.809 464.568 118.412C464.568 117.906 464.4 117.517 464.062 117.243C463.725 116.965 463.267 116.826 462.688 116.826C462.333 116.826 462.009 116.863 461.718 116.936C461.426 117.008 461.153 117.109 460.897 117.236C460.642 117.364 460.387 117.512 460.132 117.681L459.558 116.901C459.922 116.619 460.367 116.375 460.891 116.17C461.415 115.965 462.009 115.862 462.675 115.862C463.696 115.862 464.461 116.095 464.972 116.56C465.482 117.024 465.737 117.617 465.737 118.337ZM472.854 126H471.712V115.363H472.854V126ZM476.388 126H475.253V118.508H476.388V126ZM477.803 115.274V115.411C477.712 115.543 477.586 115.703 477.427 115.89C477.272 116.072 477.099 116.266 476.907 116.471C476.716 116.671 476.522 116.863 476.326 117.045C476.135 117.227 475.957 117.384 475.793 117.517H475.034V117.353C475.18 117.179 475.34 116.972 475.513 116.73C475.686 116.484 475.854 116.234 476.019 115.979C476.183 115.719 476.319 115.484 476.429 115.274H477.803ZM482.342 118.371C483.23 118.371 483.903 118.59 484.358 119.027C484.814 119.46 485.042 120.158 485.042 121.119V126H483.921V121.194C483.921 120.57 483.777 120.103 483.49 119.793C483.208 119.483 482.772 119.328 482.185 119.328C481.355 119.328 480.772 119.563 480.435 120.032C480.097 120.502 479.929 121.183 479.929 122.076V126H478.794V118.508H479.71L479.881 119.588H479.942C480.102 119.324 480.305 119.103 480.551 118.925C480.797 118.743 481.073 118.606 481.378 118.515C481.683 118.419 482.005 118.371 482.342 118.371ZM490.265 118.371C490.903 118.371 491.45 118.512 491.905 118.795C492.361 119.077 492.71 119.474 492.951 119.984C493.193 120.49 493.313 121.083 493.313 121.762V122.466H488.139C488.152 123.345 488.371 124.015 488.795 124.476C489.219 124.936 489.816 125.166 490.586 125.166C491.06 125.166 491.479 125.123 491.844 125.036C492.208 124.95 492.587 124.822 492.979 124.653V125.651C492.6 125.82 492.224 125.943 491.851 126.021C491.481 126.098 491.044 126.137 490.538 126.137C489.818 126.137 489.189 125.991 488.651 125.699C488.118 125.403 487.703 124.97 487.407 124.4C487.111 123.831 486.963 123.133 486.963 122.309C486.963 121.502 487.097 120.805 487.366 120.217C487.64 119.624 488.022 119.169 488.515 118.85C489.011 118.531 489.595 118.371 490.265 118.371ZM490.251 119.301C489.645 119.301 489.162 119.499 488.802 119.896C488.442 120.292 488.228 120.846 488.159 121.557H492.124C492.119 121.11 492.049 120.718 491.912 120.381C491.78 120.039 491.577 119.775 491.304 119.588C491.03 119.396 490.679 119.301 490.251 119.301ZM498.044 118.385C498.937 118.385 499.6 118.585 500.033 118.986C500.466 119.387 500.683 120.028 500.683 120.907V126H499.855L499.637 124.893H499.582C499.372 125.166 499.154 125.396 498.926 125.583C498.698 125.765 498.434 125.904 498.133 126C497.837 126.091 497.472 126.137 497.039 126.137C496.583 126.137 496.178 126.057 495.822 125.897C495.471 125.738 495.193 125.496 494.988 125.173C494.788 124.849 494.688 124.439 494.688 123.942C494.688 123.195 494.984 122.621 495.576 122.22C496.169 121.819 497.071 121.6 498.283 121.563L499.575 121.509V121.051C499.575 120.404 499.436 119.95 499.158 119.69C498.88 119.431 498.488 119.301 497.982 119.301C497.59 119.301 497.217 119.358 496.861 119.472C496.506 119.586 496.169 119.72 495.85 119.875L495.501 119.014C495.838 118.84 496.226 118.692 496.663 118.569C497.101 118.446 497.561 118.385 498.044 118.385ZM499.562 122.309L498.42 122.356C497.486 122.393 496.827 122.546 496.444 122.814C496.062 123.083 495.87 123.464 495.87 123.956C495.87 124.384 496 124.701 496.26 124.906C496.52 125.111 496.864 125.214 497.292 125.214C497.957 125.214 498.502 125.029 498.926 124.66C499.35 124.291 499.562 123.737 499.562 122.999V122.309ZM507.867 123.949C507.867 124.428 507.746 124.831 507.505 125.159C507.268 125.483 506.926 125.727 506.479 125.891C506.037 126.055 505.509 126.137 504.894 126.137C504.369 126.137 503.916 126.096 503.533 126.014C503.15 125.932 502.815 125.815 502.528 125.665V124.619C502.834 124.77 503.198 124.906 503.622 125.029C504.046 125.152 504.479 125.214 504.921 125.214C505.568 125.214 506.037 125.109 506.329 124.899C506.621 124.69 506.767 124.405 506.767 124.045C506.767 123.84 506.707 123.66 506.589 123.505C506.475 123.345 506.281 123.193 506.008 123.047C505.734 122.896 505.356 122.732 504.873 122.555C504.395 122.372 503.98 122.192 503.629 122.015C503.283 121.832 503.014 121.611 502.822 121.352C502.635 121.092 502.542 120.755 502.542 120.34C502.542 119.706 502.797 119.221 503.308 118.884C503.823 118.542 504.497 118.371 505.331 118.371C505.782 118.371 506.204 118.417 506.596 118.508C506.992 118.594 507.361 118.713 507.703 118.863L507.32 119.772C507.01 119.64 506.68 119.529 506.329 119.438C505.978 119.346 505.62 119.301 505.256 119.301C504.732 119.301 504.328 119.387 504.046 119.561C503.768 119.734 503.629 119.971 503.629 120.271C503.629 120.504 503.693 120.695 503.82 120.846C503.952 120.996 504.162 121.137 504.449 121.27C504.736 121.402 505.115 121.557 505.584 121.734C506.053 121.908 506.459 122.088 506.801 122.274C507.143 122.457 507.405 122.68 507.587 122.944C507.774 123.204 507.867 123.539 507.867 123.949ZM509.521 125.289C509.521 124.97 509.599 124.744 509.754 124.612C509.909 124.476 510.098 124.407 510.321 124.407C510.554 124.407 510.75 124.476 510.909 124.612C511.069 124.744 511.148 124.97 511.148 125.289C511.148 125.604 511.069 125.834 510.909 125.979C510.75 126.121 510.554 126.191 510.321 126.191C510.098 126.191 509.909 126.121 509.754 125.979C509.599 125.834 509.521 125.604 509.521 125.289Z" fill="#101E37"/>
</svg>
