<svg width="728" height="192" viewBox="0 0 728 192" fill="none" xmlns="http://www.w3.org/2000/svg">
<rect x="1" y="1" width="726" height="190" rx="7" fill="#F3F6F9"/>
<rect x="1" y="1" width="726" height="190" rx="7" stroke="#E6EBF0" stroke-width="2"/>
<rect x="143.5" y="49" width="441" height="46" rx="7" fill="white"/>
<rect x="143.5" y="49" width="441" height="46" rx="7" stroke="#101E37" stroke-width="2"/>
<path d="M160.062 66.5781H163.297C164.724 66.5781 165.797 66.7917 166.516 67.2188C167.234 67.6458 167.594 68.3724 167.594 69.3984C167.594 69.8411 167.508 70.2396 167.336 70.5938C167.169 70.9427 166.924 71.2318 166.602 71.4609C166.279 71.6901 165.88 71.849 165.406 71.9375V72.0156C165.906 72.0938 166.349 72.237 166.734 72.4453C167.12 72.6536 167.422 72.9453 167.641 73.3203C167.859 73.6953 167.969 74.1719 167.969 74.75C167.969 75.4531 167.805 76.0469 167.477 76.5312C167.154 77.0156 166.695 77.3828 166.102 77.6328C165.508 77.8776 164.805 78 163.992 78H160.062V66.5781ZM161.391 71.4766H163.578C164.573 71.4766 165.26 71.3125 165.641 70.9844C166.026 70.6562 166.219 70.1771 166.219 69.5469C166.219 68.8958 165.99 68.4271 165.531 68.1406C165.078 67.8542 164.354 67.7109 163.359 67.7109H161.391V71.4766ZM161.391 72.5938V76.8672H163.766C164.781 76.8672 165.5 76.6693 165.922 76.2734C166.344 75.8724 166.555 75.3333 166.555 74.6562C166.555 74.224 166.458 73.8542 166.266 73.5469C166.078 73.2396 165.771 73.0052 165.344 72.8438C164.922 72.6771 164.357 72.5938 163.648 72.5938H161.391ZM177.281 69.4375V78H176.219L176.031 76.7969H175.961C175.784 77.0938 175.555 77.3438 175.273 77.5469C174.992 77.75 174.674 77.901 174.32 78C173.971 78.1042 173.599 78.1562 173.203 78.1562C172.526 78.1562 171.958 78.0469 171.5 77.8281C171.042 77.6094 170.695 77.2708 170.461 76.8125C170.232 76.3542 170.117 75.7656 170.117 75.0469V69.4375H171.43V74.9531C171.43 75.6667 171.591 76.2005 171.914 76.5547C172.237 76.9036 172.729 77.0781 173.391 77.0781C174.026 77.0781 174.531 76.9583 174.906 76.7188C175.286 76.4792 175.56 76.1276 175.727 75.6641C175.893 75.1953 175.977 74.6224 175.977 73.9453V69.4375H177.281ZM185.562 75.6562C185.562 76.2031 185.424 76.6641 185.148 77.0391C184.878 77.4089 184.487 77.6875 183.977 77.875C183.471 78.0625 182.867 78.1562 182.164 78.1562C181.565 78.1562 181.047 78.1094 180.609 78.0156C180.172 77.9219 179.789 77.7891 179.461 77.6172V76.4219C179.81 76.5938 180.227 76.75 180.711 76.8906C181.195 77.0312 181.69 77.1016 182.195 77.1016C182.935 77.1016 183.471 76.9818 183.805 76.7422C184.138 76.5026 184.305 76.1771 184.305 75.7656C184.305 75.5312 184.237 75.3255 184.102 75.1484C183.971 74.9661 183.75 74.7917 183.438 74.625C183.125 74.4531 182.693 74.2656 182.141 74.0625C181.594 73.8542 181.12 73.6484 180.719 73.4453C180.323 73.237 180.016 72.9844 179.797 72.6875C179.583 72.3906 179.477 72.0052 179.477 71.5312C179.477 70.8073 179.768 70.2526 180.352 69.8672C180.94 69.4766 181.711 69.2812 182.664 69.2812C183.18 69.2812 183.661 69.3333 184.109 69.4375C184.562 69.5365 184.984 69.6719 185.375 69.8438L184.938 70.8828C184.583 70.7318 184.206 70.6042 183.805 70.5C183.404 70.3958 182.995 70.3438 182.578 70.3438C181.979 70.3438 181.518 70.4427 181.195 70.6406C180.878 70.8385 180.719 71.1094 180.719 71.4531C180.719 71.7188 180.792 71.9375 180.938 72.1094C181.089 72.2812 181.328 72.4427 181.656 72.5938C181.984 72.7448 182.417 72.9219 182.953 73.125C183.49 73.3229 183.953 73.5286 184.344 73.7422C184.734 73.9505 185.034 74.2057 185.242 74.5078C185.456 74.8047 185.562 75.1875 185.562 75.6562ZM191.078 78.1562C190.307 78.1562 189.628 77.9974 189.039 77.6797C188.451 77.362 187.992 76.8776 187.664 76.2266C187.336 75.5755 187.172 74.7552 187.172 73.7656C187.172 72.7292 187.344 71.8828 187.688 71.2266C188.036 70.5651 188.516 70.0755 189.125 69.7578C189.734 69.4401 190.427 69.2812 191.203 69.2812C191.63 69.2812 192.042 69.3255 192.438 69.4141C192.839 69.4974 193.167 69.6042 193.422 69.7344L193.031 70.8203C192.771 70.7161 192.469 70.6224 192.125 70.5391C191.786 70.4557 191.469 70.4141 191.172 70.4141C190.578 70.4141 190.083 70.5417 189.688 70.7969C189.297 71.0521 189.003 71.4271 188.805 71.9219C188.612 72.4167 188.516 73.026 188.516 73.75C188.516 74.4427 188.609 75.0339 188.797 75.5234C188.99 76.013 189.273 76.388 189.648 76.6484C190.029 76.9036 190.503 77.0312 191.07 77.0312C191.523 77.0312 191.932 76.9844 192.297 76.8906C192.661 76.7917 192.992 76.6771 193.289 76.5469V77.7031C193.003 77.849 192.682 77.9609 192.328 78.0391C191.979 78.1172 191.562 78.1562 191.078 78.1562ZM198.523 69.2969C199.544 69.2969 200.302 69.526 200.797 69.9844C201.292 70.4427 201.539 71.1745 201.539 72.1797V78H200.594L200.344 76.7344H200.281C200.042 77.0469 199.792 77.3099 199.531 77.5234C199.271 77.7318 198.969 77.8906 198.625 78C198.286 78.1042 197.87 78.1562 197.375 78.1562C196.854 78.1562 196.391 78.0651 195.984 77.8828C195.583 77.7005 195.266 77.4245 195.031 77.0547C194.802 76.6849 194.688 76.2161 194.688 75.6484C194.688 74.7943 195.026 74.138 195.703 73.6797C196.38 73.2214 197.411 72.9714 198.797 72.9297L200.273 72.8672V72.3438C200.273 71.6042 200.115 71.0859 199.797 70.7891C199.479 70.4922 199.031 70.3438 198.453 70.3438C198.005 70.3438 197.578 70.4089 197.172 70.5391C196.766 70.6693 196.38 70.8229 196.016 71L195.617 70.0156C196.003 69.8177 196.445 69.6484 196.945 69.5078C197.445 69.3672 197.971 69.2969 198.523 69.2969ZM200.258 73.7812L198.953 73.8359C197.885 73.8776 197.133 74.0521 196.695 74.3594C196.258 74.6667 196.039 75.1016 196.039 75.6641C196.039 76.1536 196.188 76.5156 196.484 76.75C196.781 76.9844 197.174 77.1016 197.664 77.1016C198.424 77.1016 199.047 76.8906 199.531 76.4688C200.016 76.0469 200.258 75.4141 200.258 74.5703V73.7812ZM208.102 69.2812C208.273 69.2812 208.453 69.2917 208.641 69.3125C208.828 69.3281 208.995 69.3516 209.141 69.3828L208.977 70.5859C208.836 70.5495 208.68 70.5208 208.508 70.5C208.336 70.4792 208.174 70.4688 208.023 70.4688C207.68 70.4688 207.354 70.5391 207.047 70.6797C206.745 70.8151 206.479 71.013 206.25 71.2734C206.021 71.5286 205.841 71.8385 205.711 72.2031C205.581 72.5625 205.516 72.9635 205.516 73.4062V78H204.211V69.4375H205.289L205.43 71.0156H205.484C205.661 70.6979 205.875 70.4089 206.125 70.1484C206.375 69.8828 206.664 69.6719 206.992 69.5156C207.326 69.3594 207.695 69.2812 208.102 69.2812ZM210.562 77.1875C210.562 76.8229 210.651 76.5651 210.828 76.4141C211.005 76.2578 211.221 76.1797 211.477 76.1797C211.742 76.1797 211.966 76.2578 212.148 76.4141C212.331 76.5651 212.422 76.8229 212.422 77.1875C212.422 77.5469 212.331 77.8099 212.148 77.9766C211.966 78.138 211.742 78.2188 211.477 78.2188C211.221 78.2188 211.005 78.138 210.828 77.9766C210.651 77.8099 210.562 77.5469 210.562 77.1875ZM214.766 77.1875C214.766 76.8229 214.854 76.5651 215.031 76.4141C215.208 76.2578 215.424 76.1797 215.68 76.1797C215.945 76.1797 216.169 76.2578 216.352 76.4141C216.534 76.5651 216.625 76.8229 216.625 77.1875C216.625 77.5469 216.534 77.8099 216.352 77.9766C216.169 78.138 215.945 78.2188 215.68 78.2188C215.424 78.2188 215.208 78.138 215.031 77.9766C214.854 77.8099 214.766 77.5469 214.766 77.1875ZM218.969 77.1875C218.969 76.8229 219.057 76.5651 219.234 76.4141C219.411 76.2578 219.628 76.1797 219.883 76.1797C220.148 76.1797 220.372 76.2578 220.555 76.4141C220.737 76.5651 220.828 76.8229 220.828 77.1875C220.828 77.5469 220.737 77.8099 220.555 77.9766C220.372 78.138 220.148 78.2188 219.883 78.2188C219.628 78.2188 219.411 78.138 219.234 77.9766C219.057 77.8099 218.969 77.5469 218.969 77.1875Z" fill="#5C6A7A"/>
<path d="M561.477 74.4716H560.687L560.407 74.2016C561.607 72.8016 562.227 70.8916 561.887 68.8616C561.417 66.0816 559.097 63.8616 556.297 63.5216C552.067 63.0016 548.507 66.5616 549.027 70.7916C549.367 73.5916 551.587 75.9116 554.367 76.3816C556.397 76.7216 558.307 76.1016 559.707 74.9016L559.977 75.1816V75.9716L564.227 80.2216C564.637 80.6316 565.307 80.6316 565.717 80.2216C566.127 79.8116 566.127 79.1416 565.717 78.7316L561.477 74.4716ZM555.477 74.4716C552.987 74.4716 550.977 72.4616 550.977 69.9716C550.977 67.4816 552.987 65.4716 555.477 65.4716C557.967 65.4716 559.977 67.4816 559.977 69.9716C559.977 72.4616 557.967 74.4716 555.477 74.4716Z" fill="#101E37"/>
<path d="M149.432 119H143.867V109.006H149.432V110.031H145.029V113.265H149.179V114.276H145.029V117.975H149.432V119ZM156.322 116.949C156.322 117.428 156.201 117.831 155.96 118.159C155.723 118.483 155.381 118.727 154.935 118.891C154.493 119.055 153.964 119.137 153.349 119.137C152.825 119.137 152.371 119.096 151.988 119.014C151.605 118.932 151.271 118.815 150.983 118.665V117.619C151.289 117.77 151.653 117.906 152.077 118.029C152.501 118.152 152.934 118.214 153.376 118.214C154.023 118.214 154.493 118.109 154.784 117.899C155.076 117.69 155.222 117.405 155.222 117.045C155.222 116.84 155.162 116.66 155.044 116.505C154.93 116.345 154.736 116.193 154.463 116.047C154.189 115.896 153.811 115.732 153.328 115.555C152.85 115.372 152.435 115.192 152.084 115.015C151.738 114.832 151.469 114.611 151.277 114.352C151.09 114.092 150.997 113.755 150.997 113.34C150.997 112.706 151.252 112.221 151.763 111.884C152.278 111.542 152.952 111.371 153.786 111.371C154.237 111.371 154.659 111.417 155.051 111.508C155.447 111.594 155.816 111.713 156.158 111.863L155.775 112.772C155.465 112.64 155.135 112.529 154.784 112.438C154.433 112.346 154.076 112.301 153.711 112.301C153.187 112.301 152.784 112.387 152.501 112.561C152.223 112.734 152.084 112.971 152.084 113.271C152.084 113.504 152.148 113.695 152.275 113.846C152.408 113.996 152.617 114.137 152.904 114.27C153.191 114.402 153.57 114.557 154.039 114.734C154.508 114.908 154.914 115.088 155.256 115.274C155.598 115.457 155.86 115.68 156.042 115.944C156.229 116.204 156.322 116.539 156.322 116.949ZM160.567 118.207C160.754 118.207 160.946 118.191 161.142 118.159C161.338 118.127 161.497 118.089 161.62 118.043V118.925C161.488 118.984 161.303 119.034 161.066 119.075C160.834 119.116 160.606 119.137 160.383 119.137C159.986 119.137 159.626 119.068 159.303 118.932C158.979 118.79 158.719 118.553 158.523 118.221C158.332 117.888 158.236 117.428 158.236 116.84V112.396H157.17V111.843L158.243 111.398L158.694 109.771H159.378V111.508H161.572V112.396H159.378V116.806C159.378 117.275 159.485 117.626 159.699 117.858C159.918 118.091 160.207 118.207 160.567 118.207ZM166.022 111.371C166.66 111.371 167.207 111.512 167.663 111.795C168.119 112.077 168.467 112.474 168.709 112.984C168.951 113.49 169.071 114.083 169.071 114.762V115.466H163.896C163.91 116.345 164.129 117.015 164.553 117.476C164.977 117.936 165.574 118.166 166.344 118.166C166.818 118.166 167.237 118.123 167.602 118.036C167.966 117.95 168.344 117.822 168.736 117.653V118.651C168.358 118.82 167.982 118.943 167.608 119.021C167.239 119.098 166.802 119.137 166.296 119.137C165.576 119.137 164.947 118.991 164.409 118.699C163.876 118.403 163.461 117.97 163.165 117.4C162.869 116.831 162.721 116.133 162.721 115.309C162.721 114.502 162.855 113.805 163.124 113.217C163.397 112.624 163.78 112.169 164.272 111.85C164.769 111.531 165.353 111.371 166.022 111.371ZM166.009 112.301C165.403 112.301 164.92 112.499 164.56 112.896C164.2 113.292 163.985 113.846 163.917 114.557H167.882C167.877 114.11 167.807 113.718 167.67 113.381C167.538 113.039 167.335 112.775 167.062 112.588C166.788 112.396 166.437 112.301 166.009 112.301ZM177.521 111.371C178.159 111.371 178.705 111.512 179.161 111.795C179.617 112.077 179.965 112.474 180.207 112.984C180.449 113.49 180.569 114.083 180.569 114.762V115.466H175.395C175.408 116.345 175.627 117.015 176.051 117.476C176.475 117.936 177.072 118.166 177.842 118.166C178.316 118.166 178.735 118.123 179.1 118.036C179.464 117.95 179.842 117.822 180.234 117.653V118.651C179.856 118.82 179.48 118.943 179.106 119.021C178.737 119.098 178.3 119.137 177.794 119.137C177.074 119.137 176.445 118.991 175.907 118.699C175.374 118.403 174.959 117.97 174.663 117.4C174.367 116.831 174.219 116.133 174.219 115.309C174.219 114.502 174.353 113.805 174.622 113.217C174.896 112.624 175.278 112.169 175.771 111.85C176.267 111.531 176.851 111.371 177.521 111.371ZM177.507 112.301C176.901 112.301 176.418 112.499 176.058 112.896C175.698 113.292 175.483 113.846 175.415 114.557H179.38C179.375 114.11 179.305 113.718 179.168 113.381C179.036 113.039 178.833 112.775 178.56 112.588C178.286 112.396 177.935 112.301 177.507 112.301ZM187.344 116.949C187.344 117.428 187.223 117.831 186.981 118.159C186.744 118.483 186.403 118.727 185.956 118.891C185.514 119.055 184.985 119.137 184.37 119.137C183.846 119.137 183.393 119.096 183.01 119.014C182.627 118.932 182.292 118.815 182.005 118.665V117.619C182.31 117.77 182.675 117.906 183.099 118.029C183.522 118.152 183.955 118.214 184.397 118.214C185.045 118.214 185.514 118.109 185.806 117.899C186.097 117.69 186.243 117.405 186.243 117.045C186.243 116.84 186.184 116.66 186.065 116.505C185.951 116.345 185.758 116.193 185.484 116.047C185.211 115.896 184.833 115.732 184.35 115.555C183.871 115.372 183.456 115.192 183.105 115.015C182.759 114.832 182.49 114.611 182.299 114.352C182.112 114.092 182.019 113.755 182.019 113.34C182.019 112.706 182.274 112.221 182.784 111.884C183.299 111.542 183.974 111.371 184.808 111.371C185.259 111.371 185.68 111.417 186.072 111.508C186.469 111.594 186.838 111.713 187.18 111.863L186.797 112.772C186.487 112.64 186.157 112.529 185.806 112.438C185.455 112.346 185.097 112.301 184.732 112.301C184.208 112.301 183.805 112.387 183.522 112.561C183.244 112.734 183.105 112.971 183.105 113.271C183.105 113.504 183.169 113.695 183.297 113.846C183.429 113.996 183.639 114.137 183.926 114.27C184.213 114.402 184.591 114.557 185.061 114.734C185.53 114.908 185.936 115.088 186.277 115.274C186.619 115.457 186.881 115.68 187.063 115.944C187.25 116.204 187.344 116.539 187.344 116.949ZM198.992 111.508V119H198.062L197.898 117.947H197.837C197.682 118.207 197.481 118.426 197.235 118.604C196.989 118.781 196.711 118.913 196.401 119C196.096 119.091 195.77 119.137 195.424 119.137C194.831 119.137 194.335 119.041 193.934 118.85C193.533 118.658 193.229 118.362 193.024 117.961C192.824 117.56 192.724 117.045 192.724 116.416V111.508H193.872V116.334C193.872 116.958 194.013 117.425 194.296 117.735C194.578 118.041 195.009 118.193 195.588 118.193C196.144 118.193 196.586 118.089 196.914 117.879C197.247 117.669 197.486 117.362 197.632 116.956C197.778 116.546 197.851 116.045 197.851 115.452V111.508H198.992ZM204.939 111.371C205.828 111.371 206.5 111.59 206.956 112.027C207.412 112.46 207.64 113.158 207.64 114.119V119H206.519V114.194C206.519 113.57 206.375 113.103 206.088 112.793C205.805 112.483 205.37 112.328 204.782 112.328C203.953 112.328 203.369 112.563 203.032 113.032C202.695 113.502 202.526 114.183 202.526 115.076V119H201.392V111.508H202.308L202.479 112.588H202.54C202.7 112.324 202.902 112.103 203.148 111.925C203.395 111.743 203.67 111.606 203.976 111.515C204.281 111.419 204.602 111.371 204.939 111.371ZM216.034 118.207C216.221 118.207 216.412 118.191 216.608 118.159C216.804 118.127 216.964 118.089 217.087 118.043V118.925C216.955 118.984 216.77 119.034 216.533 119.075C216.301 119.116 216.073 119.137 215.85 119.137C215.453 119.137 215.093 119.068 214.77 118.932C214.446 118.79 214.186 118.553 213.99 118.221C213.799 117.888 213.703 117.428 213.703 116.84V112.396H212.637V111.843L213.71 111.398L214.161 109.771H214.845V111.508H217.039V112.396H214.845V116.806C214.845 117.275 214.952 117.626 215.166 117.858C215.385 118.091 215.674 118.207 216.034 118.207ZM221.489 111.371C222.127 111.371 222.674 111.512 223.13 111.795C223.586 112.077 223.934 112.474 224.176 112.984C224.417 113.49 224.538 114.083 224.538 114.762V115.466H219.363C219.377 116.345 219.596 117.015 220.02 117.476C220.443 117.936 221.04 118.166 221.811 118.166C222.285 118.166 222.704 118.123 223.068 118.036C223.433 117.95 223.811 117.822 224.203 117.653V118.651C223.825 118.82 223.449 118.943 223.075 119.021C222.706 119.098 222.269 119.137 221.763 119.137C221.043 119.137 220.414 118.991 219.876 118.699C219.343 118.403 218.928 117.97 218.632 117.4C218.336 116.831 218.188 116.133 218.188 115.309C218.188 114.502 218.322 113.805 218.591 113.217C218.864 112.624 219.247 112.169 219.739 111.85C220.236 111.531 220.819 111.371 221.489 111.371ZM221.476 112.301C220.869 112.301 220.386 112.499 220.026 112.896C219.666 113.292 219.452 113.846 219.384 114.557H223.349C223.344 114.11 223.273 113.718 223.137 113.381C223.005 113.039 222.802 112.775 222.528 112.588C222.255 112.396 221.904 112.301 221.476 112.301ZM228.25 115.165L225.659 111.508H226.958L228.934 114.393L230.902 111.508H232.188L229.597 115.165L232.331 119H231.032L228.934 115.944L226.821 119H225.536L228.25 115.165ZM236.214 118.207C236.401 118.207 236.592 118.191 236.788 118.159C236.984 118.127 237.144 118.089 237.267 118.043V118.925C237.134 118.984 236.95 119.034 236.713 119.075C236.48 119.116 236.253 119.137 236.029 119.137C235.633 119.137 235.273 119.068 234.949 118.932C234.626 118.79 234.366 118.553 234.17 118.221C233.979 117.888 233.883 117.428 233.883 116.84V112.396H232.816V111.843L233.89 111.398L234.341 109.771H235.024V111.508H237.219V112.396H235.024V116.806C235.024 117.275 235.132 117.626 235.346 117.858C235.564 118.091 235.854 118.207 236.214 118.207ZM245.244 115.24C245.244 115.855 245.164 116.405 245.005 116.888C244.845 117.371 244.615 117.779 244.314 118.111C244.014 118.444 243.649 118.699 243.221 118.877C242.797 119.05 242.316 119.137 241.778 119.137C241.277 119.137 240.817 119.05 240.397 118.877C239.983 118.699 239.623 118.444 239.317 118.111C239.017 117.779 238.782 117.371 238.613 116.888C238.449 116.405 238.367 115.855 238.367 115.24C238.367 114.42 238.506 113.723 238.784 113.148C239.062 112.57 239.459 112.13 239.974 111.829C240.493 111.524 241.111 111.371 241.826 111.371C242.51 111.371 243.107 111.524 243.617 111.829C244.132 112.134 244.531 112.576 244.813 113.155C245.101 113.729 245.244 114.424 245.244 115.24ZM239.543 115.24C239.543 115.842 239.623 116.364 239.782 116.806C239.942 117.248 240.188 117.59 240.521 117.831C240.853 118.073 241.282 118.193 241.806 118.193C242.325 118.193 242.751 118.073 243.084 117.831C243.421 117.59 243.67 117.248 243.829 116.806C243.989 116.364 244.068 115.842 244.068 115.24C244.068 114.643 243.989 114.128 243.829 113.695C243.67 113.258 243.424 112.921 243.091 112.684C242.758 112.447 242.327 112.328 241.799 112.328C241.02 112.328 240.448 112.586 240.083 113.101C239.723 113.616 239.543 114.329 239.543 115.24ZM253.509 119.137C252.561 119.137 251.809 118.813 251.253 118.166C250.701 117.519 250.426 116.557 250.426 115.281C250.426 113.992 250.708 113.019 251.273 112.362C251.839 111.701 252.59 111.371 253.529 111.371C253.926 111.371 254.272 111.424 254.568 111.528C254.865 111.633 255.12 111.774 255.334 111.952C255.548 112.125 255.728 112.324 255.874 112.547H255.956C255.938 112.406 255.92 112.212 255.901 111.966C255.883 111.72 255.874 111.519 255.874 111.364V108.363H257.009V119H256.093L255.922 117.934H255.874C255.733 118.157 255.553 118.36 255.334 118.542C255.12 118.724 254.862 118.87 254.562 118.979C254.265 119.084 253.914 119.137 253.509 119.137ZM253.687 118.193C254.489 118.193 255.056 117.965 255.389 117.51C255.721 117.054 255.888 116.377 255.888 115.479V115.274C255.888 114.322 255.728 113.59 255.409 113.08C255.095 112.57 254.521 112.314 253.687 112.314C252.989 112.314 252.467 112.583 252.121 113.121C251.775 113.654 251.602 114.383 251.602 115.309C251.602 116.229 251.772 116.94 252.114 117.441C252.461 117.943 252.985 118.193 253.687 118.193ZM262.3 111.371C262.938 111.371 263.485 111.512 263.94 111.795C264.396 112.077 264.745 112.474 264.986 112.984C265.228 113.49 265.349 114.083 265.349 114.762V115.466H260.174C260.188 116.345 260.406 117.015 260.83 117.476C261.254 117.936 261.851 118.166 262.621 118.166C263.095 118.166 263.514 118.123 263.879 118.036C264.243 117.95 264.622 117.822 265.014 117.653V118.651C264.635 118.82 264.259 118.943 263.886 119.021C263.517 119.098 263.079 119.137 262.573 119.137C261.853 119.137 261.224 118.991 260.687 118.699C260.153 118.403 259.739 117.97 259.442 117.4C259.146 116.831 258.998 116.133 258.998 115.309C258.998 114.502 259.132 113.805 259.401 113.217C259.675 112.624 260.058 112.169 260.55 111.85C261.047 111.531 261.63 111.371 262.3 111.371ZM262.286 112.301C261.68 112.301 261.197 112.499 260.837 112.896C260.477 113.292 260.263 113.846 260.194 114.557H264.159C264.155 114.11 264.084 113.718 263.947 113.381C263.815 113.039 263.612 112.775 263.339 112.588C263.065 112.396 262.715 112.301 262.286 112.301ZM273.716 111.385C274.609 111.385 275.272 111.585 275.705 111.986C276.138 112.387 276.354 113.028 276.354 113.907V119H275.527L275.309 117.893H275.254C275.044 118.166 274.826 118.396 274.598 118.583C274.37 118.765 274.105 118.904 273.805 119C273.508 119.091 273.144 119.137 272.711 119.137C272.255 119.137 271.85 119.057 271.494 118.897C271.143 118.738 270.865 118.496 270.66 118.173C270.46 117.849 270.359 117.439 270.359 116.942C270.359 116.195 270.656 115.621 271.248 115.22C271.84 114.819 272.743 114.6 273.955 114.563L275.247 114.509V114.051C275.247 113.404 275.108 112.95 274.83 112.69C274.552 112.431 274.16 112.301 273.654 112.301C273.262 112.301 272.889 112.358 272.533 112.472C272.178 112.586 271.84 112.72 271.521 112.875L271.173 112.014C271.51 111.84 271.897 111.692 272.335 111.569C272.772 111.446 273.233 111.385 273.716 111.385ZM275.233 115.309L274.092 115.356C273.158 115.393 272.499 115.546 272.116 115.814C271.733 116.083 271.542 116.464 271.542 116.956C271.542 117.384 271.672 117.701 271.932 117.906C272.191 118.111 272.535 118.214 272.964 118.214C273.629 118.214 274.174 118.029 274.598 117.66C275.021 117.291 275.233 116.737 275.233 115.999V115.309ZM277.51 111.508H278.727L280.381 115.855C280.477 116.111 280.565 116.357 280.647 116.594C280.729 116.826 280.802 117.049 280.866 117.264C280.93 117.478 280.98 117.685 281.017 117.886H281.064C281.128 117.658 281.219 117.359 281.338 116.99C281.456 116.617 281.584 116.236 281.721 115.849L283.286 111.508H284.51L281.249 120.101C281.076 120.561 280.873 120.962 280.641 121.304C280.413 121.646 280.135 121.908 279.807 122.09C279.479 122.277 279.082 122.37 278.617 122.37C278.403 122.37 278.214 122.356 278.05 122.329C277.886 122.306 277.744 122.279 277.626 122.247V121.338C277.726 121.361 277.847 121.381 277.988 121.399C278.134 121.418 278.285 121.427 278.439 121.427C278.722 121.427 278.966 121.372 279.171 121.263C279.381 121.158 279.561 121.003 279.711 120.798C279.861 120.593 279.991 120.349 280.101 120.066L280.511 119.014L277.51 111.508ZM291.893 111.508V119H290.963L290.799 117.947H290.737C290.582 118.207 290.382 118.426 290.136 118.604C289.89 118.781 289.612 118.913 289.302 119C288.996 119.091 288.671 119.137 288.324 119.137C287.732 119.137 287.235 119.041 286.834 118.85C286.433 118.658 286.13 118.362 285.925 117.961C285.724 117.56 285.624 117.045 285.624 116.416V111.508H286.772V116.334C286.772 116.958 286.914 117.425 287.196 117.735C287.479 118.041 287.91 118.193 288.488 118.193C289.044 118.193 289.486 118.089 289.814 117.879C290.147 117.669 290.386 117.362 290.532 116.956C290.678 116.546 290.751 116.045 290.751 115.452V111.508H291.893ZM296.958 119.137C296.01 119.137 295.258 118.813 294.702 118.166C294.151 117.519 293.875 116.557 293.875 115.281C293.875 113.992 294.158 113.019 294.723 112.362C295.288 111.701 296.04 111.371 296.979 111.371C297.375 111.371 297.721 111.424 298.018 111.528C298.314 111.633 298.569 111.774 298.783 111.952C298.997 112.125 299.177 112.324 299.323 112.547H299.405C299.387 112.406 299.369 112.212 299.351 111.966C299.332 111.72 299.323 111.519 299.323 111.364V108.363H300.458V119H299.542L299.371 117.934H299.323C299.182 118.157 299.002 118.36 298.783 118.542C298.569 118.724 298.312 118.87 298.011 118.979C297.715 119.084 297.364 119.137 296.958 119.137ZM297.136 118.193C297.938 118.193 298.505 117.965 298.838 117.51C299.171 117.054 299.337 116.377 299.337 115.479V115.274C299.337 114.322 299.177 113.59 298.858 113.08C298.544 112.57 297.97 112.314 297.136 112.314C296.438 112.314 295.917 112.583 295.57 113.121C295.224 113.654 295.051 114.383 295.051 115.309C295.051 116.229 295.222 116.94 295.563 117.441C295.91 117.943 296.434 118.193 297.136 118.193ZM305.667 111.385C306.56 111.385 307.223 111.585 307.656 111.986C308.089 112.387 308.306 113.028 308.306 113.907V119H307.479L307.26 117.893H307.205C306.995 118.166 306.777 118.396 306.549 118.583C306.321 118.765 306.057 118.904 305.756 119C305.46 119.091 305.095 119.137 304.662 119.137C304.206 119.137 303.801 119.057 303.445 118.897C303.094 118.738 302.816 118.496 302.611 118.173C302.411 117.849 302.311 117.439 302.311 116.942C302.311 116.195 302.607 115.621 303.199 115.22C303.792 114.819 304.694 114.6 305.906 114.563L307.198 114.509V114.051C307.198 113.404 307.059 112.95 306.781 112.69C306.503 112.431 306.111 112.301 305.605 112.301C305.214 112.301 304.84 112.358 304.484 112.472C304.129 112.586 303.792 112.72 303.473 112.875L303.124 112.014C303.461 111.84 303.849 111.692 304.286 111.569C304.724 111.446 305.184 111.385 305.667 111.385ZM307.185 115.309L306.043 115.356C305.109 115.393 304.45 115.546 304.067 115.814C303.685 116.083 303.493 116.464 303.493 116.956C303.493 117.384 303.623 117.701 303.883 117.906C304.143 118.111 304.487 118.214 304.915 118.214C305.58 118.214 306.125 118.029 306.549 117.66C306.973 117.291 307.185 116.737 307.185 115.999V115.309ZM319.305 122.35V119.137C319.305 118.959 319.309 118.754 319.318 118.521C319.327 118.289 319.343 118.089 319.366 117.92H319.291C319.081 118.266 318.783 118.556 318.396 118.788C318.008 119.021 317.509 119.137 316.898 119.137C315.982 119.137 315.246 118.813 314.69 118.166C314.134 117.519 313.856 116.553 313.856 115.268C313.856 114.424 313.984 113.714 314.239 113.135C314.494 112.556 314.854 112.118 315.319 111.822C315.789 111.521 316.336 111.371 316.96 111.371C317.557 111.371 318.045 111.49 318.423 111.727C318.801 111.959 319.097 112.244 319.312 112.581H319.366L319.537 111.508H320.439V122.35H319.305ZM317.11 118.193C317.639 118.193 318.063 118.095 318.382 117.899C318.701 117.699 318.933 117.398 319.079 116.997C319.229 116.596 319.309 116.097 319.318 115.5V115.261C319.318 114.295 319.154 113.563 318.826 113.066C318.498 112.565 317.926 112.314 317.11 112.314C316.409 112.314 315.887 112.583 315.545 113.121C315.203 113.654 315.032 114.379 315.032 115.295C315.032 116.211 315.203 116.924 315.545 117.435C315.887 117.94 316.409 118.193 317.11 118.193ZM329.039 111.508V119H328.109L327.945 117.947H327.884C327.729 118.207 327.528 118.426 327.282 118.604C327.036 118.781 326.758 118.913 326.448 119C326.143 119.091 325.817 119.137 325.471 119.137C324.878 119.137 324.382 119.041 323.98 118.85C323.579 118.658 323.276 118.362 323.071 117.961C322.871 117.56 322.771 117.045 322.771 116.416V111.508H323.919V116.334C323.919 116.958 324.06 117.425 324.343 117.735C324.625 118.041 325.056 118.193 325.635 118.193C326.191 118.193 326.633 118.089 326.961 117.879C327.294 117.669 327.533 117.362 327.679 116.956C327.825 116.546 327.897 116.045 327.897 115.452V111.508H329.039ZM334.323 111.371C334.961 111.371 335.508 111.512 335.964 111.795C336.42 112.077 336.768 112.474 337.01 112.984C337.251 113.49 337.372 114.083 337.372 114.762V115.466H332.197C332.211 116.345 332.43 117.015 332.854 117.476C333.277 117.936 333.874 118.166 334.645 118.166C335.118 118.166 335.538 118.123 335.902 118.036C336.267 117.95 336.645 117.822 337.037 117.653V118.651C336.659 118.82 336.283 118.943 335.909 119.021C335.54 119.098 335.103 119.137 334.597 119.137C333.877 119.137 333.248 118.991 332.71 118.699C332.177 118.403 331.762 117.97 331.466 117.4C331.17 116.831 331.021 116.133 331.021 115.309C331.021 114.502 331.156 113.805 331.425 113.217C331.698 112.624 332.081 112.169 332.573 111.85C333.07 111.531 333.653 111.371 334.323 111.371ZM334.31 112.301C333.703 112.301 333.22 112.499 332.86 112.896C332.5 113.292 332.286 113.846 332.218 114.557H336.183C336.178 114.11 336.107 113.718 335.971 113.381C335.839 113.039 335.636 112.775 335.362 112.588C335.089 112.396 334.738 112.301 334.31 112.301ZM345.603 119.137C344.655 119.137 343.903 118.813 343.347 118.166C342.795 117.519 342.52 116.557 342.52 115.281C342.52 113.992 342.802 113.019 343.367 112.362C343.932 111.701 344.684 111.371 345.623 111.371C346.02 111.371 346.366 111.424 346.662 111.528C346.958 111.633 347.214 111.774 347.428 111.952C347.642 112.125 347.822 112.324 347.968 112.547H348.05C348.032 112.406 348.013 112.212 347.995 111.966C347.977 111.72 347.968 111.519 347.968 111.364V108.363H349.103V119H348.187L348.016 117.934H347.968C347.826 118.157 347.646 118.36 347.428 118.542C347.214 118.724 346.956 118.87 346.655 118.979C346.359 119.084 346.008 119.137 345.603 119.137ZM345.78 118.193C346.582 118.193 347.15 117.965 347.482 117.51C347.815 117.054 347.981 116.377 347.981 115.479V115.274C347.981 114.322 347.822 113.59 347.503 113.08C347.188 112.57 346.614 112.314 345.78 112.314C345.083 112.314 344.561 112.583 344.215 113.121C343.868 113.654 343.695 114.383 343.695 115.309C343.695 116.229 343.866 116.94 344.208 117.441C344.554 117.943 345.078 118.193 345.78 118.193ZM354.312 111.385C355.205 111.385 355.868 111.585 356.301 111.986C356.734 112.387 356.95 113.028 356.95 113.907V119H356.123L355.904 117.893H355.85C355.64 118.166 355.421 118.396 355.193 118.583C354.965 118.765 354.701 118.904 354.4 119C354.104 119.091 353.74 119.137 353.307 119.137C352.851 119.137 352.445 119.057 352.09 118.897C351.739 118.738 351.461 118.496 351.256 118.173C351.055 117.849 350.955 117.439 350.955 116.942C350.955 116.195 351.251 115.621 351.844 115.22C352.436 114.819 353.339 114.6 354.551 114.563L355.843 114.509V114.051C355.843 113.404 355.704 112.95 355.426 112.69C355.148 112.431 354.756 112.301 354.25 112.301C353.858 112.301 353.484 112.358 353.129 112.472C352.773 112.586 352.436 112.72 352.117 112.875L351.769 112.014C352.106 111.84 352.493 111.692 352.931 111.569C353.368 111.446 353.828 111.385 354.312 111.385ZM355.829 115.309L354.688 115.356C353.753 115.393 353.095 115.546 352.712 115.814C352.329 116.083 352.138 116.464 352.138 116.956C352.138 117.384 352.268 117.701 352.527 117.906C352.787 118.111 353.131 118.214 353.56 118.214C354.225 118.214 354.77 118.029 355.193 117.66C355.617 117.291 355.829 116.737 355.829 115.999V115.309ZM371.06 111.371C371.884 111.371 372.507 111.588 372.926 112.021C373.345 112.449 373.555 113.139 373.555 114.092V119H372.434V114.146C372.434 113.54 372.301 113.087 372.037 112.786C371.777 112.481 371.39 112.328 370.875 112.328C370.15 112.328 369.624 112.538 369.296 112.957C368.968 113.376 368.804 113.994 368.804 114.81V119H367.676V114.146C367.676 113.741 367.617 113.404 367.498 113.135C367.384 112.866 367.211 112.665 366.979 112.533C366.751 112.396 366.461 112.328 366.11 112.328C365.614 112.328 365.215 112.431 364.914 112.636C364.613 112.841 364.395 113.146 364.258 113.552C364.126 113.953 364.06 114.447 364.06 115.035V119H362.925V111.508H363.841L364.012 112.567H364.073C364.224 112.308 364.413 112.089 364.641 111.911C364.868 111.733 365.124 111.599 365.406 111.508C365.689 111.417 365.99 111.371 366.309 111.371C366.878 111.371 367.354 111.478 367.737 111.692C368.125 111.902 368.405 112.223 368.578 112.656H368.64C368.886 112.223 369.223 111.902 369.651 111.692C370.08 111.478 370.549 111.371 371.06 111.371ZM378.688 111.385C379.582 111.385 380.245 111.585 380.678 111.986C381.111 112.387 381.327 113.028 381.327 113.907V119H380.5L380.281 117.893H380.227C380.017 118.166 379.798 118.396 379.57 118.583C379.342 118.765 379.078 118.904 378.777 119C378.481 119.091 378.117 119.137 377.684 119.137C377.228 119.137 376.822 119.057 376.467 118.897C376.116 118.738 375.838 118.496 375.633 118.173C375.432 117.849 375.332 117.439 375.332 116.942C375.332 116.195 375.628 115.621 376.221 115.22C376.813 114.819 377.715 114.6 378.928 114.563L380.22 114.509V114.051C380.22 113.404 380.081 112.95 379.803 112.69C379.525 112.431 379.133 112.301 378.627 112.301C378.235 112.301 377.861 112.358 377.506 112.472C377.15 112.586 376.813 112.72 376.494 112.875L376.146 112.014C376.483 111.84 376.87 111.692 377.308 111.569C377.745 111.446 378.205 111.385 378.688 111.385ZM380.206 115.309L379.064 115.356C378.13 115.393 377.472 115.546 377.089 115.814C376.706 116.083 376.515 116.464 376.515 116.956C376.515 117.384 376.645 117.701 376.904 117.906C377.164 118.111 377.508 118.214 377.937 118.214C378.602 118.214 379.146 118.029 379.57 117.66C379.994 117.291 380.206 116.737 380.206 115.999V115.309ZM388.512 116.949C388.512 117.428 388.391 117.831 388.149 118.159C387.912 118.483 387.571 118.727 387.124 118.891C386.682 119.055 386.153 119.137 385.538 119.137C385.014 119.137 384.561 119.096 384.178 119.014C383.795 118.932 383.46 118.815 383.173 118.665V117.619C383.478 117.77 383.843 117.906 384.267 118.029C384.69 118.152 385.123 118.214 385.565 118.214C386.213 118.214 386.682 118.109 386.974 117.899C387.265 117.69 387.411 117.405 387.411 117.045C387.411 116.84 387.352 116.66 387.233 116.505C387.119 116.345 386.926 116.193 386.652 116.047C386.379 115.896 386.001 115.732 385.518 115.555C385.039 115.372 384.624 115.192 384.273 115.015C383.927 114.832 383.658 114.611 383.467 114.352C383.28 114.092 383.187 113.755 383.187 113.34C383.187 112.706 383.442 112.221 383.952 111.884C384.467 111.542 385.142 111.371 385.976 111.371C386.427 111.371 386.848 111.417 387.24 111.508C387.637 111.594 388.006 111.713 388.348 111.863L387.965 112.772C387.655 112.64 387.325 112.529 386.974 112.438C386.623 112.346 386.265 112.301 385.9 112.301C385.376 112.301 384.973 112.387 384.69 112.561C384.412 112.734 384.273 112.971 384.273 113.271C384.273 113.504 384.337 113.695 384.465 113.846C384.597 113.996 384.807 114.137 385.094 114.27C385.381 114.402 385.759 114.557 386.229 114.734C386.698 114.908 387.104 115.088 387.445 115.274C387.787 115.457 388.049 115.68 388.231 115.944C388.418 116.204 388.512 116.539 388.512 116.949ZM395.108 111.508V119H393.974V111.508H395.108ZM394.555 108.705C394.742 108.705 394.901 108.767 395.033 108.89C395.17 109.008 395.238 109.195 395.238 109.45C395.238 109.701 395.17 109.888 395.033 110.011C394.901 110.134 394.742 110.195 394.555 110.195C394.359 110.195 394.195 110.134 394.062 110.011C393.935 109.888 393.871 109.701 393.871 109.45C393.871 109.195 393.935 109.008 394.062 108.89C394.195 108.767 394.359 108.705 394.555 108.705ZM401.062 111.371C401.951 111.371 402.623 111.59 403.079 112.027C403.535 112.46 403.763 113.158 403.763 114.119V119H402.642V114.194C402.642 113.57 402.498 113.103 402.211 112.793C401.928 112.483 401.493 112.328 400.905 112.328C400.076 112.328 399.493 112.563 399.155 113.032C398.818 113.502 398.649 114.183 398.649 115.076V119H397.515V111.508H398.431L398.602 112.588H398.663C398.823 112.324 399.025 112.103 399.271 111.925C399.518 111.743 399.793 111.606 400.099 111.515C400.404 111.419 400.725 111.371 401.062 111.371ZM409.437 112.396H407.57V119H406.436V112.396H405.109V111.85L406.436 111.474V110.975C406.436 110.346 406.529 109.835 406.716 109.443C406.903 109.047 407.174 108.755 407.529 108.568C407.885 108.382 408.318 108.288 408.828 108.288C409.115 108.288 409.377 108.313 409.614 108.363C409.856 108.413 410.068 108.47 410.25 108.534L409.956 109.43C409.801 109.38 409.626 109.334 409.43 109.293C409.238 109.247 409.042 109.225 408.842 109.225C408.409 109.225 408.088 109.366 407.878 109.648C407.673 109.926 407.57 110.364 407.57 110.961V111.508H409.437V112.396ZM417.277 115.24C417.277 115.855 417.198 116.405 417.038 116.888C416.879 117.371 416.648 117.779 416.348 118.111C416.047 118.444 415.682 118.699 415.254 118.877C414.83 119.05 414.349 119.137 413.812 119.137C413.31 119.137 412.85 119.05 412.431 118.877C412.016 118.699 411.656 118.444 411.351 118.111C411.05 117.779 410.815 117.371 410.646 116.888C410.482 116.405 410.4 115.855 410.4 115.24C410.4 114.42 410.539 113.723 410.817 113.148C411.095 112.57 411.492 112.13 412.007 111.829C412.526 111.524 413.144 111.371 413.859 111.371C414.543 111.371 415.14 111.524 415.65 111.829C416.165 112.134 416.564 112.576 416.847 113.155C417.134 113.729 417.277 114.424 417.277 115.24ZM411.576 115.24C411.576 115.842 411.656 116.364 411.815 116.806C411.975 117.248 412.221 117.59 412.554 117.831C412.886 118.073 413.315 118.193 413.839 118.193C414.358 118.193 414.785 118.073 415.117 117.831C415.454 117.59 415.703 117.248 415.862 116.806C416.022 116.364 416.102 115.842 416.102 115.24C416.102 114.643 416.022 114.128 415.862 113.695C415.703 113.258 415.457 112.921 415.124 112.684C414.791 112.447 414.361 112.328 413.832 112.328C413.053 112.328 412.481 112.586 412.116 113.101C411.756 113.616 411.576 114.329 411.576 115.24ZM422.644 111.371C422.794 111.371 422.951 111.38 423.115 111.398C423.279 111.412 423.425 111.433 423.553 111.46L423.409 112.513C423.286 112.481 423.149 112.456 422.999 112.438C422.849 112.419 422.707 112.41 422.575 112.41C422.274 112.41 421.99 112.472 421.721 112.595C421.456 112.713 421.224 112.886 421.023 113.114C420.823 113.338 420.666 113.609 420.552 113.928C420.438 114.242 420.381 114.593 420.381 114.98V119H419.239V111.508H420.183L420.306 112.889H420.354C420.508 112.611 420.695 112.358 420.914 112.13C421.133 111.897 421.386 111.713 421.673 111.576C421.965 111.439 422.288 111.371 422.644 111.371ZM433.103 111.371C433.927 111.371 434.549 111.588 434.969 112.021C435.388 112.449 435.598 113.139 435.598 114.092V119H434.477V114.146C434.477 113.54 434.344 113.087 434.08 112.786C433.82 112.481 433.433 112.328 432.918 112.328C432.193 112.328 431.667 112.538 431.339 112.957C431.011 113.376 430.847 113.994 430.847 114.81V119H429.719V114.146C429.719 113.741 429.66 113.404 429.541 113.135C429.427 112.866 429.254 112.665 429.021 112.533C428.794 112.396 428.504 112.328 428.153 112.328C427.657 112.328 427.258 112.431 426.957 112.636C426.656 112.841 426.438 113.146 426.301 113.552C426.169 113.953 426.103 114.447 426.103 115.035V119H424.968V111.508H425.884L426.055 112.567H426.116C426.267 112.308 426.456 112.089 426.684 111.911C426.911 111.733 427.167 111.599 427.449 111.508C427.732 111.417 428.033 111.371 428.352 111.371C428.921 111.371 429.397 111.478 429.78 111.692C430.168 111.902 430.448 112.223 430.621 112.656H430.683C430.929 112.223 431.266 111.902 431.694 111.692C432.123 111.478 432.592 111.371 433.103 111.371ZM440.731 111.385C441.625 111.385 442.288 111.585 442.721 111.986C443.154 112.387 443.37 113.028 443.37 113.907V119H442.543L442.324 117.893H442.27C442.06 118.166 441.841 118.396 441.613 118.583C441.385 118.765 441.121 118.904 440.82 119C440.524 119.091 440.16 119.137 439.727 119.137C439.271 119.137 438.865 119.057 438.51 118.897C438.159 118.738 437.881 118.496 437.676 118.173C437.475 117.849 437.375 117.439 437.375 116.942C437.375 116.195 437.671 115.621 438.264 115.22C438.856 114.819 439.758 114.6 440.971 114.563L442.263 114.509V114.051C442.263 113.404 442.124 112.95 441.846 112.69C441.568 112.431 441.176 112.301 440.67 112.301C440.278 112.301 439.904 112.358 439.549 112.472C439.193 112.586 438.856 112.72 438.537 112.875L438.188 112.014C438.526 111.84 438.913 111.692 439.351 111.569C439.788 111.446 440.248 111.385 440.731 111.385ZM442.249 115.309L441.107 115.356C440.173 115.393 439.515 115.546 439.132 115.814C438.749 116.083 438.558 116.464 438.558 116.956C438.558 117.384 438.688 117.701 438.947 117.906C439.207 118.111 439.551 118.214 439.979 118.214C440.645 118.214 441.189 118.029 441.613 117.66C442.037 117.291 442.249 116.737 442.249 115.999V115.309ZM448.709 119.137C448.035 119.137 447.44 118.998 446.925 118.72C446.41 118.442 446.009 118.018 445.722 117.448C445.435 116.879 445.291 116.161 445.291 115.295C445.291 114.388 445.441 113.647 445.742 113.073C446.048 112.494 446.467 112.066 447 111.788C447.533 111.51 448.139 111.371 448.818 111.371C449.192 111.371 449.552 111.41 449.898 111.487C450.249 111.56 450.536 111.654 450.76 111.768L450.418 112.718C450.19 112.627 449.926 112.545 449.625 112.472C449.329 112.399 449.051 112.362 448.791 112.362C448.271 112.362 447.839 112.474 447.492 112.697C447.15 112.921 446.893 113.249 446.72 113.682C446.551 114.115 446.467 114.648 446.467 115.281C446.467 115.887 446.549 116.405 446.713 116.833C446.882 117.261 447.13 117.59 447.458 117.817C447.791 118.041 448.205 118.152 448.702 118.152C449.099 118.152 449.456 118.111 449.775 118.029C450.094 117.943 450.384 117.842 450.644 117.729V118.74C450.393 118.868 450.113 118.966 449.803 119.034C449.497 119.103 449.133 119.137 448.709 119.137ZM453.556 111.508V119H452.421V111.508H453.556ZM453.002 108.705C453.189 108.705 453.348 108.767 453.48 108.89C453.617 109.008 453.686 109.195 453.686 109.45C453.686 109.701 453.617 109.888 453.48 110.011C453.348 110.134 453.189 110.195 453.002 110.195C452.806 110.195 452.642 110.134 452.51 110.011C452.382 109.888 452.318 109.701 452.318 109.45C452.318 109.195 452.382 109.008 452.51 108.89C452.642 108.767 452.806 108.705 453.002 108.705ZM462.422 115.24C462.422 115.855 462.342 116.405 462.183 116.888C462.023 117.371 461.793 117.779 461.492 118.111C461.191 118.444 460.827 118.699 460.398 118.877C459.975 119.05 459.494 119.137 458.956 119.137C458.455 119.137 457.994 119.05 457.575 118.877C457.16 118.699 456.8 118.444 456.495 118.111C456.194 117.779 455.96 117.371 455.791 116.888C455.627 116.405 455.545 115.855 455.545 115.24C455.545 114.42 455.684 113.723 455.962 113.148C456.24 112.57 456.636 112.13 457.151 111.829C457.671 111.524 458.288 111.371 459.004 111.371C459.688 111.371 460.285 111.524 460.795 111.829C461.31 112.134 461.709 112.576 461.991 113.155C462.278 113.729 462.422 114.424 462.422 115.24ZM456.721 115.24C456.721 115.842 456.8 116.364 456.96 116.806C457.119 117.248 457.366 117.59 457.698 117.831C458.031 118.073 458.459 118.193 458.983 118.193C459.503 118.193 459.929 118.073 460.262 117.831C460.599 117.59 460.847 117.248 461.007 116.806C461.166 116.364 461.246 115.842 461.246 115.24C461.246 114.643 461.166 114.128 461.007 113.695C460.847 113.258 460.601 112.921 460.269 112.684C459.936 112.447 459.505 112.328 458.977 112.328C458.197 112.328 457.625 112.586 457.261 113.101C456.901 113.616 456.721 114.329 456.721 115.24ZM460.966 108.274V108.411C460.875 108.543 460.749 108.703 460.59 108.89C460.435 109.072 460.262 109.266 460.07 109.471C459.879 109.671 459.685 109.863 459.489 110.045C459.298 110.227 459.12 110.384 458.956 110.517H458.197V110.353C458.343 110.179 458.503 109.972 458.676 109.73C458.849 109.484 459.018 109.234 459.182 108.979C459.346 108.719 459.482 108.484 459.592 108.274H460.966ZM467.932 111.371C468.82 111.371 469.493 111.59 469.948 112.027C470.404 112.46 470.632 113.158 470.632 114.119V119H469.511V114.194C469.511 113.57 469.367 113.103 469.08 112.793C468.798 112.483 468.362 112.328 467.774 112.328C466.945 112.328 466.362 112.563 466.024 113.032C465.687 113.502 465.519 114.183 465.519 115.076V119H464.384V111.508H465.3L465.471 112.588H465.532C465.692 112.324 465.895 112.103 466.141 111.925C466.387 111.743 466.662 111.606 466.968 111.515C467.273 111.419 467.594 111.371 467.932 111.371ZM481.453 116.949C481.453 117.428 481.332 117.831 481.091 118.159C480.854 118.483 480.512 118.727 480.065 118.891C479.623 119.055 479.095 119.137 478.479 119.137C477.955 119.137 477.502 119.096 477.119 119.014C476.736 118.932 476.401 118.815 476.114 118.665V117.619C476.42 117.77 476.784 117.906 477.208 118.029C477.632 118.152 478.065 118.214 478.507 118.214C479.154 118.214 479.623 118.109 479.915 117.899C480.207 117.69 480.353 117.405 480.353 117.045C480.353 116.84 480.293 116.66 480.175 116.505C480.061 116.345 479.867 116.193 479.594 116.047C479.32 115.896 478.942 115.732 478.459 115.555C477.98 115.372 477.566 115.192 477.215 115.015C476.868 114.832 476.6 114.611 476.408 114.352C476.221 114.092 476.128 113.755 476.128 113.34C476.128 112.706 476.383 112.221 476.894 111.884C477.409 111.542 478.083 111.371 478.917 111.371C479.368 111.371 479.79 111.417 480.182 111.508C480.578 111.594 480.947 111.713 481.289 111.863L480.906 112.772C480.596 112.64 480.266 112.529 479.915 112.438C479.564 112.346 479.206 112.301 478.842 112.301C478.318 112.301 477.914 112.387 477.632 112.561C477.354 112.734 477.215 112.971 477.215 113.271C477.215 113.504 477.279 113.695 477.406 113.846C477.538 113.996 477.748 114.137 478.035 114.27C478.322 114.402 478.701 114.557 479.17 114.734C479.639 114.908 480.045 115.088 480.387 115.274C480.729 115.457 480.991 115.68 481.173 115.944C481.36 116.204 481.453 116.539 481.453 116.949ZM489.738 115.24C489.738 115.855 489.659 116.405 489.499 116.888C489.34 117.371 489.109 117.779 488.809 118.111C488.508 118.444 488.143 118.699 487.715 118.877C487.291 119.05 486.81 119.137 486.272 119.137C485.771 119.137 485.311 119.05 484.892 118.877C484.477 118.699 484.117 118.444 483.812 118.111C483.511 117.779 483.276 117.371 483.107 116.888C482.943 116.405 482.861 115.855 482.861 115.24C482.861 114.42 483 113.723 483.278 113.148C483.556 112.57 483.953 112.13 484.468 111.829C484.987 111.524 485.605 111.371 486.32 111.371C487.004 111.371 487.601 111.524 488.111 111.829C488.626 112.134 489.025 112.576 489.308 113.155C489.595 113.729 489.738 114.424 489.738 115.24ZM484.037 115.24C484.037 115.842 484.117 116.364 484.276 116.806C484.436 117.248 484.682 117.59 485.015 117.831C485.347 118.073 485.776 118.193 486.3 118.193C486.819 118.193 487.245 118.073 487.578 117.831C487.915 117.59 488.164 117.248 488.323 116.806C488.483 116.364 488.562 115.842 488.562 115.24C488.562 114.643 488.483 114.128 488.323 113.695C488.164 113.258 487.918 112.921 487.585 112.684C487.252 112.447 486.822 112.328 486.293 112.328C485.514 112.328 484.942 112.586 484.577 113.101C484.217 113.616 484.037 114.329 484.037 115.24ZM492.835 108.363V111.022C492.835 111.328 492.826 111.624 492.808 111.911C492.794 112.198 492.783 112.422 492.773 112.581H492.835C493.04 112.244 493.336 111.959 493.724 111.727C494.111 111.494 494.605 111.378 495.207 111.378C496.146 111.378 496.893 111.704 497.449 112.355C498.01 113.003 498.29 113.966 498.29 115.247C498.29 116.09 498.162 116.801 497.907 117.38C497.652 117.959 497.292 118.396 496.827 118.692C496.362 118.989 495.813 119.137 495.18 119.137C494.587 119.137 494.1 119.027 493.717 118.809C493.339 118.585 493.047 118.314 492.842 117.995H492.753L492.521 119H491.7V108.363H492.835ZM495.022 112.328C494.48 112.328 494.049 112.435 493.73 112.649C493.411 112.859 493.181 113.178 493.04 113.606C492.903 114.03 492.835 114.568 492.835 115.22V115.281C492.835 116.225 492.992 116.947 493.307 117.448C493.621 117.945 494.193 118.193 495.022 118.193C495.72 118.193 496.242 117.938 496.588 117.428C496.939 116.917 497.114 116.188 497.114 115.24C497.114 114.274 496.941 113.547 496.595 113.06C496.253 112.572 495.729 112.328 495.022 112.328ZM503.677 111.371C503.827 111.371 503.984 111.38 504.148 111.398C504.312 111.412 504.458 111.433 504.586 111.46L504.442 112.513C504.319 112.481 504.183 112.456 504.032 112.438C503.882 112.419 503.741 112.41 503.608 112.41C503.308 112.41 503.023 112.472 502.754 112.595C502.49 112.713 502.257 112.886 502.057 113.114C501.856 113.338 501.699 113.609 501.585 113.928C501.471 114.242 501.414 114.593 501.414 114.98V119H500.272V111.508H501.216L501.339 112.889H501.387C501.542 112.611 501.729 112.358 501.947 112.13C502.166 111.897 502.419 111.713 502.706 111.576C502.998 111.439 503.321 111.371 503.677 111.371ZM508.886 111.371C509.524 111.371 510.071 111.512 510.526 111.795C510.982 112.077 511.331 112.474 511.572 112.984C511.814 113.49 511.935 114.083 511.935 114.762V115.466H506.76C506.773 116.345 506.992 117.015 507.416 117.476C507.84 117.936 508.437 118.166 509.207 118.166C509.681 118.166 510.1 118.123 510.465 118.036C510.829 117.95 511.208 117.822 511.6 117.653V118.651C511.221 118.82 510.845 118.943 510.472 119.021C510.103 119.098 509.665 119.137 509.159 119.137C508.439 119.137 507.81 118.991 507.272 118.699C506.739 118.403 506.325 117.97 506.028 117.4C505.732 116.831 505.584 116.133 505.584 115.309C505.584 114.502 505.718 113.805 505.987 113.217C506.261 112.624 506.644 112.169 507.136 111.85C507.632 111.531 508.216 111.371 508.886 111.371ZM508.872 112.301C508.266 112.301 507.783 112.499 507.423 112.896C507.063 113.292 506.849 113.846 506.78 114.557H510.745C510.741 114.11 510.67 113.718 510.533 113.381C510.401 113.039 510.198 112.775 509.925 112.588C509.651 112.396 509.3 112.301 508.872 112.301ZM520.384 111.371C521.022 111.371 521.569 111.512 522.024 111.795C522.48 112.077 522.829 112.474 523.07 112.984C523.312 113.49 523.433 114.083 523.433 114.762V115.466H518.258C518.271 116.345 518.49 117.015 518.914 117.476C519.338 117.936 519.935 118.166 520.705 118.166C521.179 118.166 521.598 118.123 521.963 118.036C522.327 117.95 522.706 117.822 523.098 117.653V118.651C522.719 118.82 522.343 118.943 521.97 119.021C521.601 119.098 521.163 119.137 520.657 119.137C519.937 119.137 519.308 118.991 518.771 118.699C518.237 118.403 517.823 117.97 517.526 117.4C517.23 116.831 517.082 116.133 517.082 115.309C517.082 114.502 517.216 113.805 517.485 113.217C517.759 112.624 518.142 112.169 518.634 111.85C519.131 111.531 519.714 111.371 520.384 111.371ZM520.37 112.301C519.764 112.301 519.281 112.499 518.921 112.896C518.561 113.292 518.347 113.846 518.278 114.557H522.243C522.239 114.11 522.168 113.718 522.031 113.381C521.899 113.039 521.696 112.775 521.423 112.588C521.149 112.396 520.799 112.301 520.37 112.301ZM526.502 119H525.36V108.363H526.502V119ZM532.709 119V109.006H533.871V119H532.709ZM539.996 111.371C540.885 111.371 541.557 111.59 542.013 112.027C542.468 112.46 542.696 113.158 542.696 114.119V119H541.575V114.194C541.575 113.57 541.432 113.103 541.145 112.793C540.862 112.483 540.427 112.328 539.839 112.328C539.009 112.328 538.426 112.563 538.089 113.032C537.752 113.502 537.583 114.183 537.583 115.076V119H536.448V111.508H537.364L537.535 112.588H537.597C537.756 112.324 537.959 112.103 538.205 111.925C538.451 111.743 538.727 111.606 539.032 111.515C539.338 111.419 539.659 111.371 539.996 111.371ZM548.555 111.371C549.489 111.371 550.234 111.692 550.79 112.335C551.346 112.978 551.624 113.944 551.624 115.233C551.624 116.086 551.496 116.801 551.241 117.38C550.986 117.959 550.626 118.396 550.161 118.692C549.701 118.989 549.156 119.137 548.527 119.137C548.131 119.137 547.782 119.084 547.481 118.979C547.181 118.875 546.923 118.733 546.709 118.556C546.495 118.378 546.317 118.184 546.176 117.975H546.094C546.107 118.152 546.123 118.367 546.142 118.617C546.164 118.868 546.176 119.087 546.176 119.273V122.35H545.034V111.508H545.971L546.121 112.615H546.176C546.322 112.387 546.499 112.18 546.709 111.993C546.919 111.802 547.174 111.651 547.475 111.542C547.78 111.428 548.14 111.371 548.555 111.371ZM548.356 112.328C547.837 112.328 547.418 112.428 547.099 112.629C546.784 112.829 546.554 113.13 546.408 113.531C546.262 113.928 546.185 114.427 546.176 115.028V115.247C546.176 115.881 546.244 116.416 546.381 116.854C546.522 117.291 546.752 117.624 547.071 117.852C547.395 118.079 547.828 118.193 548.37 118.193C548.835 118.193 549.222 118.068 549.532 117.817C549.842 117.567 550.072 117.218 550.223 116.771C550.378 116.32 550.455 115.803 550.455 115.22C550.455 114.336 550.282 113.634 549.936 113.114C549.594 112.59 549.067 112.328 548.356 112.328ZM559.793 111.508V119H558.863L558.699 117.947H558.638C558.483 118.207 558.282 118.426 558.036 118.604C557.79 118.781 557.512 118.913 557.202 119C556.897 119.091 556.571 119.137 556.225 119.137C555.632 119.137 555.135 119.041 554.734 118.85C554.333 118.658 554.03 118.362 553.825 117.961C553.625 117.56 553.524 117.045 553.524 116.416V111.508H554.673V116.334C554.673 116.958 554.814 117.425 555.097 117.735C555.379 118.041 555.81 118.193 556.389 118.193C556.945 118.193 557.387 118.089 557.715 117.879C558.048 117.669 558.287 117.362 558.433 116.956C558.578 116.546 558.651 116.045 558.651 115.452V111.508H559.793ZM564.612 118.207C564.799 118.207 564.991 118.191 565.187 118.159C565.382 118.127 565.542 118.089 565.665 118.043V118.925C565.533 118.984 565.348 119.034 565.111 119.075C564.879 119.116 564.651 119.137 564.428 119.137C564.031 119.137 563.671 119.068 563.348 118.932C563.024 118.79 562.764 118.553 562.568 118.221C562.377 117.888 562.281 117.428 562.281 116.84V112.396H561.215V111.843L562.288 111.398L562.739 109.771H563.423V111.508H565.617V112.396H563.423V116.806C563.423 117.275 563.53 117.626 563.744 117.858C563.963 118.091 564.252 118.207 564.612 118.207ZM567.012 118.289C567.012 117.97 567.089 117.744 567.244 117.612C567.399 117.476 567.588 117.407 567.812 117.407C568.044 117.407 568.24 117.476 568.399 117.612C568.559 117.744 568.639 117.97 568.639 118.289C568.639 118.604 568.559 118.834 568.399 118.979C568.24 119.121 568.044 119.191 567.812 119.191C567.588 119.191 567.399 119.121 567.244 118.979C567.089 118.834 567.012 118.604 567.012 118.289ZM149.432 139H143.867V129.006H149.432V130.031H145.029V133.265H149.179V134.276H145.029V137.975H149.432V139ZM156.322 136.949C156.322 137.428 156.201 137.831 155.96 138.159C155.723 138.483 155.381 138.727 154.935 138.891C154.493 139.055 153.964 139.137 153.349 139.137C152.825 139.137 152.371 139.096 151.988 139.014C151.605 138.932 151.271 138.815 150.983 138.665V137.619C151.289 137.77 151.653 137.906 152.077 138.029C152.501 138.152 152.934 138.214 153.376 138.214C154.023 138.214 154.493 138.109 154.784 137.899C155.076 137.69 155.222 137.405 155.222 137.045C155.222 136.84 155.162 136.66 155.044 136.505C154.93 136.345 154.736 136.193 154.463 136.047C154.189 135.896 153.811 135.732 153.328 135.555C152.85 135.372 152.435 135.192 152.084 135.015C151.738 134.832 151.469 134.611 151.277 134.352C151.09 134.092 150.997 133.755 150.997 133.34C150.997 132.706 151.252 132.221 151.763 131.884C152.278 131.542 152.952 131.371 153.786 131.371C154.237 131.371 154.659 131.417 155.051 131.508C155.447 131.594 155.816 131.713 156.158 131.863L155.775 132.772C155.465 132.64 155.135 132.529 154.784 132.438C154.433 132.346 154.076 132.301 153.711 132.301C153.187 132.301 152.784 132.387 152.501 132.561C152.223 132.734 152.084 132.971 152.084 133.271C152.084 133.504 152.148 133.695 152.275 133.846C152.408 133.996 152.617 134.137 152.904 134.27C153.191 134.402 153.57 134.557 154.039 134.734C154.508 134.908 154.914 135.088 155.256 135.274C155.598 135.457 155.86 135.68 156.042 135.944C156.229 136.204 156.322 136.539 156.322 136.949ZM168.244 135.24C168.244 135.855 168.164 136.405 168.005 136.888C167.845 137.371 167.615 137.779 167.314 138.111C167.014 138.444 166.649 138.699 166.221 138.877C165.797 139.05 165.316 139.137 164.778 139.137C164.277 139.137 163.817 139.05 163.397 138.877C162.983 138.699 162.623 138.444 162.317 138.111C162.017 137.779 161.782 137.371 161.613 136.888C161.449 136.405 161.367 135.855 161.367 135.24C161.367 134.42 161.506 133.723 161.784 133.148C162.062 132.57 162.459 132.13 162.974 131.829C163.493 131.524 164.111 131.371 164.826 131.371C165.51 131.371 166.107 131.524 166.617 131.829C167.132 132.134 167.531 132.576 167.813 133.155C168.101 133.729 168.244 134.424 168.244 135.24ZM162.543 135.24C162.543 135.842 162.623 136.364 162.782 136.806C162.942 137.248 163.188 137.59 163.521 137.831C163.853 138.073 164.282 138.193 164.806 138.193C165.325 138.193 165.751 138.073 166.084 137.831C166.421 137.59 166.67 137.248 166.829 136.806C166.989 136.364 167.068 135.842 167.068 135.24C167.068 134.643 166.989 134.128 166.829 133.695C166.67 133.258 166.424 132.921 166.091 132.684C165.758 132.447 165.327 132.328 164.799 132.328C164.02 132.328 163.448 132.586 163.083 133.101C162.723 133.616 162.543 134.329 162.543 135.24ZM173.727 131.371C174.661 131.371 175.406 131.692 175.962 132.335C176.518 132.978 176.796 133.944 176.796 135.233C176.796 136.086 176.668 136.801 176.413 137.38C176.158 137.959 175.798 138.396 175.333 138.692C174.873 138.989 174.328 139.137 173.699 139.137C173.303 139.137 172.954 139.084 172.653 138.979C172.353 138.875 172.095 138.733 171.881 138.556C171.667 138.378 171.489 138.184 171.348 137.975H171.266C171.279 138.152 171.295 138.367 171.313 138.617C171.336 138.868 171.348 139.087 171.348 139.273V142.35H170.206V131.508H171.143L171.293 132.615H171.348C171.493 132.387 171.671 132.18 171.881 131.993C172.09 131.802 172.346 131.651 172.646 131.542C172.952 131.428 173.312 131.371 173.727 131.371ZM173.528 132.328C173.009 132.328 172.59 132.428 172.271 132.629C171.956 132.829 171.726 133.13 171.58 133.531C171.434 133.928 171.357 134.427 171.348 135.028V135.247C171.348 135.881 171.416 136.416 171.553 136.854C171.694 137.291 171.924 137.624 172.243 137.852C172.567 138.079 173 138.193 173.542 138.193C174.007 138.193 174.394 138.068 174.704 137.817C175.014 137.567 175.244 137.218 175.395 136.771C175.549 136.32 175.627 135.803 175.627 135.22C175.627 134.336 175.454 133.634 175.107 133.114C174.766 132.59 174.239 132.328 173.528 132.328ZM181.779 139.137C181.105 139.137 180.51 138.998 179.995 138.72C179.48 138.442 179.079 138.018 178.792 137.448C178.505 136.879 178.361 136.161 178.361 135.295C178.361 134.388 178.512 133.647 178.812 133.073C179.118 132.494 179.537 132.066 180.07 131.788C180.604 131.51 181.21 131.371 181.889 131.371C182.262 131.371 182.622 131.41 182.969 131.487C183.32 131.56 183.607 131.654 183.83 131.768L183.488 132.718C183.26 132.627 182.996 132.545 182.695 132.472C182.399 132.399 182.121 132.362 181.861 132.362C181.342 132.362 180.909 132.474 180.562 132.697C180.221 132.921 179.963 133.249 179.79 133.682C179.621 134.115 179.537 134.648 179.537 135.281C179.537 135.887 179.619 136.405 179.783 136.833C179.952 137.261 180.2 137.59 180.528 137.817C180.861 138.041 181.276 138.152 181.772 138.152C182.169 138.152 182.527 138.111 182.846 138.029C183.165 137.943 183.454 137.842 183.714 137.729V138.74C183.463 138.868 183.183 138.966 182.873 139.034C182.568 139.103 182.203 139.137 181.779 139.137ZM186.626 131.508V139H185.491V131.508H186.626ZM186.072 128.705C186.259 128.705 186.419 128.767 186.551 128.89C186.688 129.008 186.756 129.195 186.756 129.45C186.756 129.701 186.688 129.888 186.551 130.011C186.419 130.134 186.259 130.195 186.072 130.195C185.876 130.195 185.712 130.134 185.58 130.011C185.452 129.888 185.389 129.701 185.389 129.45C185.389 129.195 185.452 129.008 185.58 128.89C185.712 128.767 185.876 128.705 186.072 128.705ZM195.492 135.24C195.492 135.855 195.412 136.405 195.253 136.888C195.093 137.371 194.863 137.779 194.562 138.111C194.262 138.444 193.897 138.699 193.469 138.877C193.045 139.05 192.564 139.137 192.026 139.137C191.525 139.137 191.065 139.05 190.646 138.877C190.231 138.699 189.871 138.444 189.565 138.111C189.265 137.779 189.03 137.371 188.861 136.888C188.697 136.405 188.615 135.855 188.615 135.24C188.615 134.42 188.754 133.723 189.032 133.148C189.31 132.57 189.707 132.13 190.222 131.829C190.741 131.524 191.359 131.371 192.074 131.371C192.758 131.371 193.355 131.524 193.865 131.829C194.38 132.134 194.779 132.576 195.062 133.155C195.349 133.729 195.492 134.424 195.492 135.24ZM189.791 135.24C189.791 135.842 189.871 136.364 190.03 136.806C190.19 137.248 190.436 137.59 190.769 137.831C191.101 138.073 191.53 138.193 192.054 138.193C192.573 138.193 192.999 138.073 193.332 137.831C193.669 137.59 193.918 137.248 194.077 136.806C194.237 136.364 194.316 135.842 194.316 135.24C194.316 134.643 194.237 134.128 194.077 133.695C193.918 133.258 193.672 132.921 193.339 132.684C193.006 132.447 192.576 132.328 192.047 132.328C191.268 132.328 190.696 132.586 190.331 133.101C189.971 133.616 189.791 134.329 189.791 135.24ZM201.002 131.371C201.891 131.371 202.563 131.59 203.019 132.027C203.474 132.46 203.702 133.158 203.702 134.119V139H202.581V134.194C202.581 133.57 202.438 133.103 202.15 132.793C201.868 132.483 201.433 132.328 200.845 132.328C200.015 132.328 199.432 132.563 199.095 133.032C198.757 133.502 198.589 134.183 198.589 135.076V139H197.454V131.508H198.37L198.541 132.588H198.603C198.762 132.324 198.965 132.103 199.211 131.925C199.457 131.743 199.733 131.606 200.038 131.515C200.343 131.419 200.665 131.371 201.002 131.371ZM208.843 131.385C209.736 131.385 210.399 131.585 210.832 131.986C211.265 132.387 211.481 133.028 211.481 133.907V139H210.654L210.436 137.893H210.381C210.171 138.166 209.952 138.396 209.725 138.583C209.497 138.765 209.232 138.904 208.932 139C208.635 139.091 208.271 139.137 207.838 139.137C207.382 139.137 206.977 139.057 206.621 138.897C206.27 138.738 205.992 138.496 205.787 138.173C205.587 137.849 205.486 137.439 205.486 136.942C205.486 136.195 205.783 135.621 206.375 135.22C206.967 134.819 207.87 134.6 209.082 134.563L210.374 134.509V134.051C210.374 133.404 210.235 132.95 209.957 132.69C209.679 132.431 209.287 132.301 208.781 132.301C208.389 132.301 208.016 132.358 207.66 132.472C207.305 132.586 206.967 132.72 206.648 132.875L206.3 132.014C206.637 131.84 207.024 131.692 207.462 131.569C207.899 131.446 208.36 131.385 208.843 131.385ZM210.36 135.309L209.219 135.356C208.285 135.393 207.626 135.546 207.243 135.814C206.86 136.083 206.669 136.464 206.669 136.956C206.669 137.384 206.799 137.701 207.059 137.906C207.318 138.111 207.662 138.214 208.091 138.214C208.756 138.214 209.301 138.029 209.725 137.66C210.148 137.291 210.36 136.737 210.36 135.999V135.309ZM214.961 139H213.819V128.363H214.961V139ZM218.659 137.373L218.748 137.53C218.666 137.863 218.561 138.218 218.434 138.597C218.311 138.975 218.174 139.353 218.023 139.731C217.878 140.114 217.729 140.472 217.579 140.805H216.731C216.827 140.44 216.921 140.055 217.012 139.649C217.103 139.248 217.185 138.852 217.258 138.46C217.335 138.063 217.397 137.701 217.442 137.373H218.659ZM228.141 131.371C229.075 131.371 229.82 131.692 230.376 132.335C230.932 132.978 231.21 133.944 231.21 135.233C231.21 136.086 231.082 136.801 230.827 137.38C230.572 137.959 230.212 138.396 229.747 138.692C229.287 138.989 228.742 139.137 228.113 139.137C227.717 139.137 227.368 139.084 227.067 138.979C226.767 138.875 226.509 138.733 226.295 138.556C226.081 138.378 225.903 138.184 225.762 137.975H225.68C225.693 138.152 225.709 138.367 225.728 138.617C225.75 138.868 225.762 139.087 225.762 139.273V142.35H224.62V131.508H225.557L225.707 132.615H225.762C225.908 132.387 226.085 132.18 226.295 131.993C226.505 131.802 226.76 131.651 227.061 131.542C227.366 131.428 227.726 131.371 228.141 131.371ZM227.942 132.328C227.423 132.328 227.004 132.428 226.685 132.629C226.37 132.829 226.14 133.13 225.994 133.531C225.848 133.928 225.771 134.427 225.762 135.028V135.247C225.762 135.881 225.83 136.416 225.967 136.854C226.108 137.291 226.338 137.624 226.657 137.852C226.981 138.079 227.414 138.193 227.956 138.193C228.421 138.193 228.808 138.068 229.118 137.817C229.428 137.567 229.658 137.218 229.809 136.771C229.964 136.32 230.041 135.803 230.041 135.22C230.041 134.336 229.868 133.634 229.521 133.114C229.18 132.59 228.653 132.328 227.942 132.328ZM236.077 131.371C236.715 131.371 237.262 131.512 237.718 131.795C238.174 132.077 238.522 132.474 238.764 132.984C239.005 133.49 239.126 134.083 239.126 134.762V135.466H233.951C233.965 136.345 234.184 137.015 234.607 137.476C235.031 137.936 235.628 138.166 236.398 138.166C236.872 138.166 237.292 138.123 237.656 138.036C238.021 137.95 238.399 137.822 238.791 137.653V138.651C238.413 138.82 238.037 138.943 237.663 139.021C237.294 139.098 236.856 139.137 236.351 139.137C235.631 139.137 235.002 138.991 234.464 138.699C233.931 138.403 233.516 137.97 233.22 137.4C232.924 136.831 232.775 136.133 232.775 135.309C232.775 134.502 232.91 133.805 233.179 133.217C233.452 132.624 233.835 132.169 234.327 131.85C234.824 131.531 235.407 131.371 236.077 131.371ZM236.063 132.301C235.457 132.301 234.974 132.499 234.614 132.896C234.254 133.292 234.04 133.846 233.972 134.557H237.937C237.932 134.11 237.861 133.718 237.725 133.381C237.592 133.039 237.39 132.775 237.116 132.588C236.843 132.396 236.492 132.301 236.063 132.301ZM244.458 131.371C244.608 131.371 244.766 131.38 244.93 131.398C245.094 131.412 245.24 131.433 245.367 131.46L245.224 132.513C245.101 132.481 244.964 132.456 244.813 132.438C244.663 132.419 244.522 132.41 244.39 132.41C244.089 132.41 243.804 132.472 243.535 132.595C243.271 132.713 243.038 132.886 242.838 133.114C242.637 133.338 242.48 133.609 242.366 133.928C242.252 134.242 242.195 134.593 242.195 134.98V139H241.054V131.508H241.997L242.12 132.889H242.168C242.323 132.611 242.51 132.358 242.729 132.13C242.947 131.897 243.2 131.713 243.487 131.576C243.779 131.439 244.103 131.371 244.458 131.371ZM253.242 135.24C253.242 135.855 253.162 136.405 253.003 136.888C252.843 137.371 252.613 137.779 252.312 138.111C252.012 138.444 251.647 138.699 251.219 138.877C250.795 139.05 250.314 139.137 249.776 139.137C249.275 139.137 248.815 139.05 248.396 138.877C247.981 138.699 247.621 138.444 247.315 138.111C247.015 137.779 246.78 137.371 246.611 136.888C246.447 136.405 246.365 135.855 246.365 135.24C246.365 134.42 246.504 133.723 246.782 133.148C247.06 132.57 247.457 132.13 247.972 131.829C248.491 131.524 249.109 131.371 249.824 131.371C250.508 131.371 251.105 131.524 251.615 131.829C252.13 132.134 252.529 132.576 252.812 133.155C253.099 133.729 253.242 134.424 253.242 135.24ZM247.541 135.24C247.541 135.842 247.621 136.364 247.78 136.806C247.94 137.248 248.186 137.59 248.519 137.831C248.851 138.073 249.28 138.193 249.804 138.193C250.323 138.193 250.749 138.073 251.082 137.831C251.419 137.59 251.668 137.248 251.827 136.806C251.987 136.364 252.066 135.842 252.066 135.24C252.066 134.643 251.987 134.128 251.827 133.695C251.668 133.258 251.422 132.921 251.089 132.684C250.756 132.447 250.326 132.328 249.797 132.328C249.018 132.328 248.446 132.586 248.081 133.101C247.721 133.616 247.541 134.329 247.541 135.24ZM262.245 131.371C262.396 131.371 262.553 131.38 262.717 131.398C262.881 131.412 263.027 131.433 263.154 131.46L263.011 132.513C262.888 132.481 262.751 132.456 262.601 132.438C262.45 132.419 262.309 132.41 262.177 132.41C261.876 132.41 261.591 132.472 261.322 132.595C261.058 132.713 260.826 132.886 260.625 133.114C260.424 133.338 260.267 133.609 260.153 133.928C260.039 134.242 259.982 134.593 259.982 134.98V139H258.841V131.508H259.784L259.907 132.889H259.955C260.11 132.611 260.297 132.358 260.516 132.13C260.734 131.897 260.987 131.713 261.274 131.576C261.566 131.439 261.89 131.371 262.245 131.371ZM267.454 131.371C268.092 131.371 268.639 131.512 269.095 131.795C269.55 132.077 269.899 132.474 270.141 132.984C270.382 133.49 270.503 134.083 270.503 134.762V135.466H265.328C265.342 136.345 265.561 137.015 265.984 137.476C266.408 137.936 267.005 138.166 267.775 138.166C268.249 138.166 268.669 138.123 269.033 138.036C269.398 137.95 269.776 137.822 270.168 137.653V138.651C269.79 138.82 269.414 138.943 269.04 139.021C268.671 139.098 268.233 139.137 267.728 139.137C267.007 139.137 266.379 138.991 265.841 138.699C265.308 138.403 264.893 137.97 264.597 137.4C264.3 136.831 264.152 136.133 264.152 135.309C264.152 134.502 264.287 133.805 264.556 133.217C264.829 132.624 265.212 132.169 265.704 131.85C266.201 131.531 266.784 131.371 267.454 131.371ZM267.44 132.301C266.834 132.301 266.351 132.499 265.991 132.896C265.631 133.292 265.417 133.846 265.349 134.557H269.313C269.309 134.11 269.238 133.718 269.102 133.381C268.969 133.039 268.767 132.775 268.493 132.588C268.22 132.396 267.869 132.301 267.44 132.301ZM275.432 139.137C274.757 139.137 274.162 138.998 273.647 138.72C273.132 138.442 272.731 138.018 272.444 137.448C272.157 136.879 272.014 136.161 272.014 135.295C272.014 134.388 272.164 133.647 272.465 133.073C272.77 132.494 273.189 132.066 273.723 131.788C274.256 131.51 274.862 131.371 275.541 131.371C275.915 131.371 276.275 131.41 276.621 131.487C276.972 131.56 277.259 131.654 277.482 131.768L277.141 132.718C276.913 132.627 276.648 132.545 276.348 132.472C276.051 132.399 275.773 132.362 275.514 132.362C274.994 132.362 274.561 132.474 274.215 132.697C273.873 132.921 273.616 133.249 273.442 133.682C273.274 134.115 273.189 134.648 273.189 135.281C273.189 135.887 273.271 136.405 273.436 136.833C273.604 137.261 273.853 137.59 274.181 137.817C274.513 138.041 274.928 138.152 275.425 138.152C275.821 138.152 276.179 138.111 276.498 138.029C276.817 137.943 277.106 137.842 277.366 137.729V138.74C277.116 138.868 276.835 138.966 276.525 139.034C276.22 139.103 275.855 139.137 275.432 139.137ZM285.604 135.24C285.604 135.855 285.524 136.405 285.364 136.888C285.205 137.371 284.975 137.779 284.674 138.111C284.373 138.444 284.008 138.699 283.58 138.877C283.156 139.05 282.675 139.137 282.138 139.137C281.636 139.137 281.176 139.05 280.757 138.877C280.342 138.699 279.982 138.444 279.677 138.111C279.376 137.779 279.141 137.371 278.973 136.888C278.809 136.405 278.727 135.855 278.727 135.24C278.727 134.42 278.866 133.723 279.144 133.148C279.422 132.57 279.818 132.13 280.333 131.829C280.853 131.524 281.47 131.371 282.186 131.371C282.869 131.371 283.466 131.524 283.977 131.829C284.492 132.134 284.89 132.576 285.173 133.155C285.46 133.729 285.604 134.424 285.604 135.24ZM279.902 135.24C279.902 135.842 279.982 136.364 280.142 136.806C280.301 137.248 280.547 137.59 280.88 137.831C281.213 138.073 281.641 138.193 282.165 138.193C282.685 138.193 283.111 138.073 283.443 137.831C283.781 137.59 284.029 137.248 284.188 136.806C284.348 136.364 284.428 135.842 284.428 135.24C284.428 134.643 284.348 134.128 284.188 133.695C284.029 133.258 283.783 132.921 283.45 132.684C283.118 132.447 282.687 132.328 282.158 132.328C281.379 132.328 280.807 132.586 280.442 133.101C280.082 133.616 279.902 134.329 279.902 135.24ZM295.7 131.371C296.525 131.371 297.147 131.588 297.566 132.021C297.986 132.449 298.195 133.139 298.195 134.092V139H297.074V134.146C297.074 133.54 296.942 133.087 296.678 132.786C296.418 132.481 296.031 132.328 295.516 132.328C294.791 132.328 294.265 132.538 293.937 132.957C293.608 133.376 293.444 133.994 293.444 134.81V139H292.316V134.146C292.316 133.741 292.257 133.404 292.139 133.135C292.025 132.866 291.852 132.665 291.619 132.533C291.391 132.396 291.102 132.328 290.751 132.328C290.254 132.328 289.855 132.431 289.555 132.636C289.254 132.841 289.035 133.146 288.898 133.552C288.766 133.953 288.7 134.447 288.7 135.035V139H287.565V131.508H288.481L288.652 132.567H288.714C288.864 132.308 289.053 132.089 289.281 131.911C289.509 131.733 289.764 131.599 290.047 131.508C290.329 131.417 290.63 131.371 290.949 131.371C291.519 131.371 291.995 131.478 292.378 131.692C292.765 131.902 293.046 132.223 293.219 132.656H293.28C293.526 132.223 293.864 131.902 294.292 131.692C294.72 131.478 295.19 131.371 295.7 131.371ZM303.411 131.371C304.049 131.371 304.596 131.512 305.052 131.795C305.507 132.077 305.856 132.474 306.098 132.984C306.339 133.49 306.46 134.083 306.46 134.762V135.466H301.285C301.299 136.345 301.518 137.015 301.941 137.476C302.365 137.936 302.962 138.166 303.732 138.166C304.206 138.166 304.626 138.123 304.99 138.036C305.355 137.95 305.733 137.822 306.125 137.653V138.651C305.747 138.82 305.371 138.943 304.997 139.021C304.628 139.098 304.19 139.137 303.685 139.137C302.965 139.137 302.336 138.991 301.798 138.699C301.265 138.403 300.85 137.97 300.554 137.4C300.257 136.831 300.109 136.133 300.109 135.309C300.109 134.502 300.244 133.805 300.513 133.217C300.786 132.624 301.169 132.169 301.661 131.85C302.158 131.531 302.741 131.371 303.411 131.371ZM303.397 132.301C302.791 132.301 302.308 132.499 301.948 132.896C301.588 133.292 301.374 133.846 301.306 134.557H305.271C305.266 134.11 305.195 133.718 305.059 133.381C304.926 133.039 304.724 132.775 304.45 132.588C304.177 132.396 303.826 132.301 303.397 132.301ZM311.936 131.371C312.824 131.371 313.496 131.59 313.952 132.027C314.408 132.46 314.636 133.158 314.636 134.119V139H313.515V134.194C313.515 133.57 313.371 133.103 313.084 132.793C312.801 132.483 312.366 132.328 311.778 132.328C310.949 132.328 310.366 132.563 310.028 133.032C309.691 133.502 309.522 134.183 309.522 135.076V139H308.388V131.508H309.304L309.475 132.588H309.536C309.696 132.324 309.898 132.103 310.145 131.925C310.391 131.743 310.666 131.606 310.972 131.515C311.277 131.419 311.598 131.371 311.936 131.371ZM319.64 139.137C318.692 139.137 317.94 138.813 317.384 138.166C316.832 137.519 316.557 136.557 316.557 135.281C316.557 133.992 316.839 133.019 317.404 132.362C317.969 131.701 318.721 131.371 319.66 131.371C320.057 131.371 320.403 131.424 320.699 131.528C320.995 131.633 321.251 131.774 321.465 131.952C321.679 132.125 321.859 132.324 322.005 132.547H322.087C322.069 132.406 322.05 132.212 322.032 131.966C322.014 131.72 322.005 131.519 322.005 131.364V128.363H323.14V139H322.224L322.053 137.934H322.005C321.864 138.157 321.684 138.36 321.465 138.542C321.251 138.724 320.993 138.87 320.692 138.979C320.396 139.084 320.045 139.137 319.64 139.137ZM319.817 138.193C320.619 138.193 321.187 137.965 321.52 137.51C321.852 137.054 322.019 136.377 322.019 135.479V135.274C322.019 134.322 321.859 133.59 321.54 133.08C321.226 132.57 320.651 132.314 319.817 132.314C319.12 132.314 318.598 132.583 318.252 133.121C317.906 133.654 317.732 134.383 317.732 135.309C317.732 136.229 317.903 136.94 318.245 137.441C318.591 137.943 319.116 138.193 319.817 138.193ZM328.349 131.385C329.242 131.385 329.905 131.585 330.338 131.986C330.771 132.387 330.987 133.028 330.987 133.907V139H330.16L329.941 137.893H329.887C329.677 138.166 329.458 138.396 329.23 138.583C329.003 138.765 328.738 138.904 328.438 139C328.141 139.091 327.777 139.137 327.344 139.137C326.888 139.137 326.482 139.057 326.127 138.897C325.776 138.738 325.498 138.496 325.293 138.173C325.092 137.849 324.992 137.439 324.992 136.942C324.992 136.195 325.288 135.621 325.881 135.22C326.473 134.819 327.376 134.6 328.588 134.563L329.88 134.509V134.051C329.88 133.404 329.741 132.95 329.463 132.69C329.185 132.431 328.793 132.301 328.287 132.301C327.895 132.301 327.521 132.358 327.166 132.472C326.811 132.586 326.473 132.72 326.154 132.875L325.806 132.014C326.143 131.84 326.53 131.692 326.968 131.569C327.405 131.446 327.866 131.385 328.349 131.385ZM329.866 135.309L328.725 135.356C327.79 135.393 327.132 135.546 326.749 135.814C326.366 136.083 326.175 136.464 326.175 136.956C326.175 137.384 326.305 137.701 326.564 137.906C326.824 138.111 327.168 138.214 327.597 138.214C328.262 138.214 328.807 138.029 329.23 137.66C329.654 137.291 329.866 136.737 329.866 135.999V135.309ZM335.991 139.137C335.043 139.137 334.291 138.813 333.735 138.166C333.184 137.519 332.908 136.557 332.908 135.281C332.908 133.992 333.191 133.019 333.756 132.362C334.321 131.701 335.073 131.371 336.012 131.371C336.408 131.371 336.755 131.424 337.051 131.528C337.347 131.633 337.602 131.774 337.816 131.952C338.031 132.125 338.211 132.324 338.356 132.547H338.438C338.42 132.406 338.402 132.212 338.384 131.966C338.366 131.72 338.356 131.519 338.356 131.364V128.363H339.491V139H338.575L338.404 137.934H338.356C338.215 138.157 338.035 138.36 337.816 138.542C337.602 138.724 337.345 138.87 337.044 138.979C336.748 139.084 336.397 139.137 335.991 139.137ZM336.169 138.193C336.971 138.193 337.538 137.965 337.871 137.51C338.204 137.054 338.37 136.377 338.37 135.479V135.274C338.37 134.322 338.211 133.59 337.892 133.08C337.577 132.57 337.003 132.314 336.169 132.314C335.472 132.314 334.95 132.583 334.604 133.121C334.257 133.654 334.084 134.383 334.084 135.309C334.084 136.229 334.255 136.94 334.597 137.441C334.943 137.943 335.467 138.193 336.169 138.193ZM348.357 135.24C348.357 135.855 348.278 136.405 348.118 136.888C347.959 137.371 347.729 137.779 347.428 138.111C347.127 138.444 346.762 138.699 346.334 138.877C345.91 139.05 345.429 139.137 344.892 139.137C344.39 139.137 343.93 139.05 343.511 138.877C343.096 138.699 342.736 138.444 342.431 138.111C342.13 137.779 341.895 137.371 341.727 136.888C341.562 136.405 341.48 135.855 341.48 135.24C341.48 134.42 341.619 133.723 341.897 133.148C342.175 132.57 342.572 132.13 343.087 131.829C343.606 131.524 344.224 131.371 344.939 131.371C345.623 131.371 346.22 131.524 346.73 131.829C347.245 132.134 347.644 132.576 347.927 133.155C348.214 133.729 348.357 134.424 348.357 135.24ZM342.656 135.24C342.656 135.842 342.736 136.364 342.896 136.806C343.055 137.248 343.301 137.59 343.634 137.831C343.966 138.073 344.395 138.193 344.919 138.193C345.438 138.193 345.865 138.073 346.197 137.831C346.535 137.59 346.783 137.248 346.942 136.806C347.102 136.364 347.182 135.842 347.182 135.24C347.182 134.643 347.102 134.128 346.942 133.695C346.783 133.258 346.537 132.921 346.204 132.684C345.871 132.447 345.441 132.328 344.912 132.328C344.133 132.328 343.561 132.586 343.196 133.101C342.836 133.616 342.656 134.329 342.656 135.24ZM351.618 137.373L351.707 137.53C351.625 137.863 351.52 138.218 351.393 138.597C351.27 138.975 351.133 139.353 350.982 139.731C350.837 140.114 350.688 140.472 350.538 140.805H349.69C349.786 140.44 349.88 140.055 349.971 139.649C350.062 139.248 350.144 138.852 350.217 138.46C350.294 138.063 350.356 137.701 350.401 137.373H351.618ZM356.396 131.508H357.613L359.268 135.855C359.363 136.111 359.452 136.357 359.534 136.594C359.616 136.826 359.689 137.049 359.753 137.264C359.817 137.478 359.867 137.685 359.903 137.886H359.951C360.015 137.658 360.106 137.359 360.225 136.99C360.343 136.617 360.471 136.236 360.607 135.849L362.173 131.508H363.396L360.136 140.101C359.963 140.561 359.76 140.962 359.527 141.304C359.299 141.646 359.021 141.908 358.693 142.09C358.365 142.277 357.969 142.37 357.504 142.37C357.29 142.37 357.101 142.356 356.937 142.329C356.772 142.306 356.631 142.279 356.513 142.247V141.338C356.613 141.361 356.734 141.381 356.875 141.399C357.021 141.418 357.171 141.427 357.326 141.427C357.609 141.427 357.853 141.372 358.058 141.263C358.267 141.158 358.447 141.003 358.598 140.798C358.748 140.593 358.878 140.349 358.987 140.066L359.397 139.014L356.396 131.508ZM370.896 139.137C369.948 139.137 369.196 138.813 368.64 138.166C368.088 137.519 367.812 136.557 367.812 135.281C367.812 133.992 368.095 133.019 368.66 132.362C369.225 131.701 369.977 131.371 370.916 131.371C371.312 131.371 371.659 131.424 371.955 131.528C372.251 131.633 372.507 131.774 372.721 131.952C372.935 132.125 373.115 132.324 373.261 132.547H373.343C373.325 132.406 373.306 132.212 373.288 131.966C373.27 131.72 373.261 131.519 373.261 131.364V128.363H374.396V139H373.479L373.309 137.934H373.261C373.119 138.157 372.939 138.36 372.721 138.542C372.507 138.724 372.249 138.87 371.948 138.979C371.652 139.084 371.301 139.137 370.896 139.137ZM371.073 138.193C371.875 138.193 372.443 137.965 372.775 137.51C373.108 137.054 373.274 136.377 373.274 135.479V135.274C373.274 134.322 373.115 133.59 372.796 133.08C372.481 132.57 371.907 132.314 371.073 132.314C370.376 132.314 369.854 132.583 369.508 133.121C369.161 133.654 368.988 134.383 368.988 135.309C368.988 136.229 369.159 136.94 369.501 137.441C369.847 137.943 370.371 138.193 371.073 138.193ZM379.687 131.371C380.325 131.371 380.871 131.512 381.327 131.795C381.783 132.077 382.132 132.474 382.373 132.984C382.615 133.49 382.735 134.083 382.735 134.762V135.466H377.561C377.574 136.345 377.793 137.015 378.217 137.476C378.641 137.936 379.238 138.166 380.008 138.166C380.482 138.166 380.901 138.123 381.266 138.036C381.63 137.95 382.008 137.822 382.4 137.653V138.651C382.022 138.82 381.646 138.943 381.272 139.021C380.903 139.098 380.466 139.137 379.96 139.137C379.24 139.137 378.611 138.991 378.073 138.699C377.54 138.403 377.125 137.97 376.829 137.4C376.533 136.831 376.385 136.133 376.385 135.309C376.385 134.502 376.519 133.805 376.788 133.217C377.062 132.624 377.444 132.169 377.937 131.85C378.433 131.531 379.017 131.371 379.687 131.371ZM379.673 132.301C379.067 132.301 378.584 132.499 378.224 132.896C377.864 133.292 377.649 133.846 377.581 134.557H381.546C381.541 134.11 381.471 133.718 381.334 133.381C381.202 133.039 380.999 132.775 380.726 132.588C380.452 132.396 380.101 132.301 379.673 132.301ZM391.848 131.371C392.736 131.371 393.409 131.59 393.864 132.027C394.32 132.46 394.548 133.158 394.548 134.119V139H393.427V134.194C393.427 133.57 393.283 133.103 392.996 132.793C392.714 132.483 392.278 132.328 391.69 132.328C390.861 132.328 390.278 132.563 389.94 133.032C389.603 133.502 389.435 134.183 389.435 135.076V139H388.3V131.508H389.216L389.387 132.588H389.448C389.608 132.324 389.811 132.103 390.057 131.925C390.303 131.743 390.578 131.606 390.884 131.515C391.189 131.419 391.51 131.371 391.848 131.371ZM403.346 135.24C403.346 135.855 403.266 136.405 403.106 136.888C402.947 137.371 402.717 137.779 402.416 138.111C402.115 138.444 401.751 138.699 401.322 138.877C400.898 139.05 400.418 139.137 399.88 139.137C399.379 139.137 398.918 139.05 398.499 138.877C398.084 138.699 397.724 138.444 397.419 138.111C397.118 137.779 396.883 137.371 396.715 136.888C396.551 136.405 396.469 135.855 396.469 135.24C396.469 134.42 396.608 133.723 396.886 133.148C397.164 132.57 397.56 132.13 398.075 131.829C398.595 131.524 399.212 131.371 399.928 131.371C400.611 131.371 401.208 131.524 401.719 131.829C402.234 132.134 402.632 132.576 402.915 133.155C403.202 133.729 403.346 134.424 403.346 135.24ZM397.645 135.24C397.645 135.842 397.724 136.364 397.884 136.806C398.043 137.248 398.289 137.59 398.622 137.831C398.955 138.073 399.383 138.193 399.907 138.193C400.427 138.193 400.853 138.073 401.186 137.831C401.523 137.59 401.771 137.248 401.931 136.806C402.09 136.364 402.17 135.842 402.17 135.24C402.17 134.643 402.09 134.128 401.931 133.695C401.771 133.258 401.525 132.921 401.192 132.684C400.86 132.447 400.429 132.328 399.9 132.328C399.121 132.328 398.549 132.586 398.185 133.101C397.825 133.616 397.645 134.329 397.645 135.24ZM417.079 131.371C417.904 131.371 418.526 131.588 418.945 132.021C419.365 132.449 419.574 133.139 419.574 134.092V139H418.453V134.146C418.453 133.54 418.321 133.087 418.057 132.786C417.797 132.481 417.41 132.328 416.895 132.328C416.17 132.328 415.644 132.538 415.315 132.957C414.987 133.376 414.823 133.994 414.823 134.81V139H413.695V134.146C413.695 133.741 413.636 133.404 413.518 133.135C413.404 132.866 413.23 132.665 412.998 132.533C412.77 132.396 412.481 132.328 412.13 132.328C411.633 132.328 411.234 132.431 410.934 132.636C410.633 132.841 410.414 133.146 410.277 133.552C410.145 133.953 410.079 134.447 410.079 135.035V139H408.944V131.508H409.86L410.031 132.567H410.093C410.243 132.308 410.432 132.089 410.66 131.911C410.888 131.733 411.143 131.599 411.426 131.508C411.708 131.417 412.009 131.371 412.328 131.371C412.898 131.371 413.374 131.478 413.757 131.692C414.144 131.902 414.424 132.223 414.598 132.656H414.659C414.905 132.223 415.243 131.902 415.671 131.692C416.099 131.478 416.569 131.371 417.079 131.371ZM424.708 131.385C425.601 131.385 426.264 131.585 426.697 131.986C427.13 132.387 427.347 133.028 427.347 133.907V139H426.52L426.301 137.893H426.246C426.036 138.166 425.818 138.396 425.59 138.583C425.362 138.765 425.098 138.904 424.797 139C424.501 139.091 424.136 139.137 423.703 139.137C423.247 139.137 422.842 139.057 422.486 138.897C422.135 138.738 421.857 138.496 421.652 138.173C421.452 137.849 421.352 137.439 421.352 136.942C421.352 136.195 421.648 135.621 422.24 135.22C422.833 134.819 423.735 134.6 424.947 134.563L426.239 134.509V134.051C426.239 133.404 426.1 132.95 425.822 132.69C425.544 132.431 425.152 132.301 424.646 132.301C424.255 132.301 423.881 132.358 423.525 132.472C423.17 132.586 422.833 132.72 422.514 132.875L422.165 132.014C422.502 131.84 422.89 131.692 423.327 131.569C423.765 131.446 424.225 131.385 424.708 131.385ZM426.226 135.309L425.084 135.356C424.15 135.393 423.491 135.546 423.108 135.814C422.726 136.083 422.534 136.464 422.534 136.956C422.534 137.384 422.664 137.701 422.924 137.906C423.184 138.111 423.528 138.214 423.956 138.214C424.621 138.214 425.166 138.029 425.59 137.66C426.014 137.291 426.226 136.737 426.226 135.999V135.309ZM426.581 128.274V128.411C426.49 128.543 426.365 128.703 426.205 128.89C426.05 129.072 425.877 129.266 425.686 129.471C425.494 129.671 425.3 129.863 425.104 130.045C424.913 130.227 424.735 130.384 424.571 130.517H423.812V130.353C423.958 130.179 424.118 129.972 424.291 129.73C424.464 129.484 424.633 129.234 424.797 128.979C424.961 128.719 425.098 128.484 425.207 128.274H426.581ZM434.531 136.949C434.531 137.428 434.41 137.831 434.169 138.159C433.932 138.483 433.59 138.727 433.144 138.891C432.701 139.055 432.173 139.137 431.558 139.137C431.034 139.137 430.58 139.096 430.197 139.014C429.814 138.932 429.479 138.815 429.192 138.665V137.619C429.498 137.77 429.862 137.906 430.286 138.029C430.71 138.152 431.143 138.214 431.585 138.214C432.232 138.214 432.701 138.109 432.993 137.899C433.285 137.69 433.431 137.405 433.431 137.045C433.431 136.84 433.371 136.66 433.253 136.505C433.139 136.345 432.945 136.193 432.672 136.047C432.398 135.896 432.02 135.732 431.537 135.555C431.059 135.372 430.644 135.192 430.293 135.015C429.947 134.832 429.678 134.611 429.486 134.352C429.299 134.092 429.206 133.755 429.206 133.34C429.206 132.706 429.461 132.221 429.972 131.884C430.487 131.542 431.161 131.371 431.995 131.371C432.446 131.371 432.868 131.417 433.26 131.508C433.656 131.594 434.025 131.713 434.367 131.863L433.984 132.772C433.674 132.64 433.344 132.529 432.993 132.438C432.642 132.346 432.285 132.301 431.92 132.301C431.396 132.301 430.993 132.387 430.71 132.561C430.432 132.734 430.293 132.971 430.293 133.271C430.293 133.504 430.357 133.695 430.484 133.846C430.617 133.996 430.826 134.137 431.113 134.27C431.4 134.402 431.779 134.557 432.248 134.734C432.717 134.908 433.123 135.088 433.465 135.274C433.807 135.457 434.069 135.68 434.251 135.944C434.438 136.204 434.531 136.539 434.531 136.949ZM442.659 139.137C441.711 139.137 440.959 138.813 440.403 138.166C439.852 137.519 439.576 136.557 439.576 135.281C439.576 133.992 439.859 133.019 440.424 132.362C440.989 131.701 441.741 131.371 442.68 131.371C443.076 131.371 443.423 131.424 443.719 131.528C444.015 131.633 444.27 131.774 444.484 131.952C444.699 132.125 444.879 132.324 445.024 132.547H445.106C445.088 132.406 445.07 132.212 445.052 131.966C445.034 131.72 445.024 131.519 445.024 131.364V128.363H446.159V139H445.243L445.072 137.934H445.024C444.883 138.157 444.703 138.36 444.484 138.542C444.27 138.724 444.013 138.87 443.712 138.979C443.416 139.084 443.065 139.137 442.659 139.137ZM442.837 138.193C443.639 138.193 444.206 137.965 444.539 137.51C444.872 137.054 445.038 136.377 445.038 135.479V135.274C445.038 134.322 444.879 133.59 444.56 133.08C444.245 132.57 443.671 132.314 442.837 132.314C442.14 132.314 441.618 132.583 441.271 133.121C440.925 133.654 440.752 134.383 440.752 135.309C440.752 136.229 440.923 136.94 441.265 137.441C441.611 137.943 442.135 138.193 442.837 138.193ZM451.45 131.371C452.088 131.371 452.635 131.512 453.091 131.795C453.547 132.077 453.895 132.474 454.137 132.984C454.378 133.49 454.499 134.083 454.499 134.762V135.466H449.324C449.338 136.345 449.557 137.015 449.98 137.476C450.404 137.936 451.001 138.166 451.771 138.166C452.245 138.166 452.665 138.123 453.029 138.036C453.394 137.95 453.772 137.822 454.164 137.653V138.651C453.786 138.82 453.41 138.943 453.036 139.021C452.667 139.098 452.229 139.137 451.724 139.137C451.004 139.137 450.375 138.991 449.837 138.699C449.304 138.403 448.889 137.97 448.593 137.4C448.297 136.831 448.148 136.133 448.148 135.309C448.148 134.502 448.283 133.805 448.552 133.217C448.825 132.624 449.208 132.169 449.7 131.85C450.197 131.531 450.78 131.371 451.45 131.371ZM451.437 132.301C450.83 132.301 450.347 132.499 449.987 132.896C449.627 133.292 449.413 133.846 449.345 134.557H453.31C453.305 134.11 453.234 133.718 453.098 133.381C452.965 133.039 452.763 132.775 452.489 132.588C452.216 132.396 451.865 132.301 451.437 132.301ZM465.737 131.337C465.737 131.784 465.651 132.171 465.478 132.499C465.304 132.827 465.063 133.096 464.753 133.306C464.443 133.511 464.078 133.654 463.659 133.736V133.791C464.452 133.891 465.047 134.146 465.443 134.557C465.844 134.967 466.045 135.505 466.045 136.17C466.045 136.749 465.908 137.261 465.635 137.708C465.366 138.155 464.951 138.506 464.391 138.761C463.835 139.011 463.121 139.137 462.251 139.137C461.722 139.137 461.232 139.093 460.781 139.007C460.335 138.925 459.906 138.786 459.496 138.59V137.523C459.911 137.729 460.362 137.89 460.85 138.009C461.337 138.123 461.809 138.18 462.265 138.18C463.176 138.18 463.835 138 464.24 137.64C464.646 137.275 464.849 136.778 464.849 136.149C464.849 135.716 464.735 135.368 464.507 135.104C464.284 134.835 463.96 134.639 463.536 134.516C463.117 134.388 462.611 134.324 462.019 134.324H461.021V133.354H462.025C462.568 133.354 463.028 133.274 463.406 133.114C463.785 132.955 464.072 132.731 464.268 132.444C464.468 132.153 464.568 131.809 464.568 131.412C464.568 130.906 464.4 130.517 464.062 130.243C463.725 129.965 463.267 129.826 462.688 129.826C462.333 129.826 462.009 129.863 461.718 129.936C461.426 130.008 461.153 130.109 460.897 130.236C460.642 130.364 460.387 130.512 460.132 130.681L459.558 129.901C459.922 129.619 460.367 129.375 460.891 129.17C461.415 128.965 462.009 128.862 462.675 128.862C463.696 128.862 464.461 129.095 464.972 129.56C465.482 130.024 465.737 130.617 465.737 131.337ZM472.854 139H471.712V128.363H472.854V139ZM476.388 139H475.253V131.508H476.388V139ZM477.803 128.274V128.411C477.712 128.543 477.586 128.703 477.427 128.89C477.272 129.072 477.099 129.266 476.907 129.471C476.716 129.671 476.522 129.863 476.326 130.045C476.135 130.227 475.957 130.384 475.793 130.517H475.034V130.353C475.18 130.179 475.34 129.972 475.513 129.73C475.686 129.484 475.854 129.234 476.019 128.979C476.183 128.719 476.319 128.484 476.429 128.274H477.803ZM482.342 131.371C483.23 131.371 483.903 131.59 484.358 132.027C484.814 132.46 485.042 133.158 485.042 134.119V139H483.921V134.194C483.921 133.57 483.777 133.103 483.49 132.793C483.208 132.483 482.772 132.328 482.185 132.328C481.355 132.328 480.772 132.563 480.435 133.032C480.097 133.502 479.929 134.183 479.929 135.076V139H478.794V131.508H479.71L479.881 132.588H479.942C480.102 132.324 480.305 132.103 480.551 131.925C480.797 131.743 481.073 131.606 481.378 131.515C481.683 131.419 482.005 131.371 482.342 131.371ZM490.265 131.371C490.903 131.371 491.45 131.512 491.905 131.795C492.361 132.077 492.71 132.474 492.951 132.984C493.193 133.49 493.313 134.083 493.313 134.762V135.466H488.139C488.152 136.345 488.371 137.015 488.795 137.476C489.219 137.936 489.816 138.166 490.586 138.166C491.06 138.166 491.479 138.123 491.844 138.036C492.208 137.95 492.587 137.822 492.979 137.653V138.651C492.6 138.82 492.224 138.943 491.851 139.021C491.481 139.098 491.044 139.137 490.538 139.137C489.818 139.137 489.189 138.991 488.651 138.699C488.118 138.403 487.703 137.97 487.407 137.4C487.111 136.831 486.963 136.133 486.963 135.309C486.963 134.502 487.097 133.805 487.366 133.217C487.64 132.624 488.022 132.169 488.515 131.85C489.011 131.531 489.595 131.371 490.265 131.371ZM490.251 132.301C489.645 132.301 489.162 132.499 488.802 132.896C488.442 133.292 488.228 133.846 488.159 134.557H492.124C492.119 134.11 492.049 133.718 491.912 133.381C491.78 133.039 491.577 132.775 491.304 132.588C491.03 132.396 490.679 132.301 490.251 132.301ZM498.044 131.385C498.937 131.385 499.6 131.585 500.033 131.986C500.466 132.387 500.683 133.028 500.683 133.907V139H499.855L499.637 137.893H499.582C499.372 138.166 499.154 138.396 498.926 138.583C498.698 138.765 498.434 138.904 498.133 139C497.837 139.091 497.472 139.137 497.039 139.137C496.583 139.137 496.178 139.057 495.822 138.897C495.471 138.738 495.193 138.496 494.988 138.173C494.788 137.849 494.688 137.439 494.688 136.942C494.688 136.195 494.984 135.621 495.576 135.22C496.169 134.819 497.071 134.6 498.283 134.563L499.575 134.509V134.051C499.575 133.404 499.436 132.95 499.158 132.69C498.88 132.431 498.488 132.301 497.982 132.301C497.59 132.301 497.217 132.358 496.861 132.472C496.506 132.586 496.169 132.72 495.85 132.875L495.501 132.014C495.838 131.84 496.226 131.692 496.663 131.569C497.101 131.446 497.561 131.385 498.044 131.385ZM499.562 135.309L498.42 135.356C497.486 135.393 496.827 135.546 496.444 135.814C496.062 136.083 495.87 136.464 495.87 136.956C495.87 137.384 496 137.701 496.26 137.906C496.52 138.111 496.864 138.214 497.292 138.214C497.957 138.214 498.502 138.029 498.926 137.66C499.35 137.291 499.562 136.737 499.562 135.999V135.309ZM507.867 136.949C507.867 137.428 507.746 137.831 507.505 138.159C507.268 138.483 506.926 138.727 506.479 138.891C506.037 139.055 505.509 139.137 504.894 139.137C504.369 139.137 503.916 139.096 503.533 139.014C503.15 138.932 502.815 138.815 502.528 138.665V137.619C502.834 137.77 503.198 137.906 503.622 138.029C504.046 138.152 504.479 138.214 504.921 138.214C505.568 138.214 506.037 138.109 506.329 137.899C506.621 137.69 506.767 137.405 506.767 137.045C506.767 136.84 506.707 136.66 506.589 136.505C506.475 136.345 506.281 136.193 506.008 136.047C505.734 135.896 505.356 135.732 504.873 135.555C504.395 135.372 503.98 135.192 503.629 135.015C503.283 134.832 503.014 134.611 502.822 134.352C502.635 134.092 502.542 133.755 502.542 133.34C502.542 132.706 502.797 132.221 503.308 131.884C503.823 131.542 504.497 131.371 505.331 131.371C505.782 131.371 506.204 131.417 506.596 131.508C506.992 131.594 507.361 131.713 507.703 131.863L507.32 132.772C507.01 132.64 506.68 132.529 506.329 132.438C505.978 132.346 505.62 132.301 505.256 132.301C504.732 132.301 504.328 132.387 504.046 132.561C503.768 132.734 503.629 132.971 503.629 133.271C503.629 133.504 503.693 133.695 503.82 133.846C503.952 133.996 504.162 134.137 504.449 134.27C504.736 134.402 505.115 134.557 505.584 134.734C506.053 134.908 506.459 135.088 506.801 135.274C507.143 135.457 507.405 135.68 507.587 135.944C507.774 136.204 507.867 136.539 507.867 136.949ZM509.521 138.289C509.521 137.97 509.599 137.744 509.754 137.612C509.909 137.476 510.098 137.407 510.321 137.407C510.554 137.407 510.75 137.476 510.909 137.612C511.069 137.744 511.148 137.97 511.148 138.289C511.148 138.604 511.069 138.834 510.909 138.979C510.75 139.121 510.554 139.191 510.321 139.191C510.098 139.191 509.909 139.121 509.754 138.979C509.599 138.834 509.521 138.604 509.521 138.289Z" fill="#101E37"/>
</svg>
