<svg width="356" height="274" viewBox="0 0 356 274" fill="none" xmlns="http://www.w3.org/2000/svg">
<rect x="1" y="1" width="354" height="272" rx="7" fill="white"/>
<rect x="1" y="1" width="354" height="272" rx="7" stroke="#E6EBF0" stroke-width="2"/>
<rect width="176" height="4" transform="translate(90 40)" fill="#E6EBF0"/>
<rect width="51" height="4" transform="translate(90 40)" fill="#007BC7"/>
<rect width="49" height="5" transform="translate(90 54)" fill="#E6EBF0"/>
<rect width="176" height="19" transform="translate(90 62)" fill="#E6EBF0"/>
<rect width="49" height="5" transform="translate(90 91)" fill="#E6EBF0"/>
<rect width="176" height="19" transform="translate(90 99)" fill="#E6EBF0"/>
<rect width="49" height="5" transform="translate(90 128)" fill="#E6EBF0"/>
<rect width="84" height="19" transform="translate(90 136)" fill="#E6EBF0"/>
<rect width="49" height="5" transform="translate(182 128)" fill="#E6EBF0"/>
<rect width="84" height="19" transform="translate(182 136)" fill="#E6EBF0"/>
<rect width="49" height="5" transform="translate(90 165)" fill="#E6EBF0"/>
<rect width="176" height="33" transform="translate(90 173)" fill="#E6EBF0"/>
<rect width="55" height="13" transform="translate(147 221)" fill="#E6EBF0"/>
<rect width="55" height="13" transform="translate(211 221)" fill="#E6EBF0"/>
</svg>
