<svg width="728" height="252" viewBox="0 0 728 252" fill="none" xmlns="http://www.w3.org/2000/svg">
<rect x="1" y="1" width="726" height="250" rx="7" fill="#F3F6F9"/>
<rect x="1" y="1" width="726" height="250" rx="7" stroke="#E6EBF0" stroke-width="2"/>
<path d="M197.922 124H191.562V112.578H197.922V113.75H192.891V117.445H197.633V118.602H192.891V122.828H197.922V124ZM203.023 123.094C203.237 123.094 203.456 123.076 203.68 123.039C203.904 123.003 204.086 122.958 204.227 122.906V123.914C204.076 123.982 203.865 124.039 203.594 124.086C203.328 124.133 203.068 124.156 202.812 124.156C202.359 124.156 201.948 124.078 201.578 123.922C201.208 123.76 200.911 123.49 200.688 123.109C200.469 122.729 200.359 122.203 200.359 121.531V116.453H199.141V115.82L200.367 115.312L200.883 113.453H201.664V115.438H204.172V116.453H201.664V121.492C201.664 122.029 201.786 122.43 202.031 122.695C202.281 122.961 202.612 123.094 203.023 123.094ZM207.258 115.438V124H205.961V115.438H207.258ZM206.625 112.234C206.839 112.234 207.021 112.305 207.172 112.445C207.328 112.581 207.406 112.794 207.406 113.086C207.406 113.372 207.328 113.586 207.172 113.727C207.021 113.867 206.839 113.938 206.625 113.938C206.401 113.938 206.214 113.867 206.062 113.727C205.917 113.586 205.844 113.372 205.844 113.086C205.844 112.794 205.917 112.581 206.062 112.445C206.214 112.305 206.401 112.234 206.625 112.234ZM215.75 127.828V124.156C215.75 123.953 215.755 123.719 215.766 123.453C215.776 123.188 215.794 122.958 215.82 122.766H215.734C215.495 123.161 215.154 123.492 214.711 123.758C214.268 124.023 213.698 124.156 213 124.156C211.953 124.156 211.112 123.786 210.477 123.047C209.841 122.307 209.523 121.203 209.523 119.734C209.523 118.771 209.669 117.958 209.961 117.297C210.253 116.635 210.664 116.135 211.195 115.797C211.732 115.453 212.357 115.281 213.07 115.281C213.753 115.281 214.31 115.417 214.742 115.688C215.174 115.953 215.513 116.279 215.758 116.664H215.82L216.016 115.438H217.047V127.828H215.75ZM213.242 123.078C213.846 123.078 214.331 122.966 214.695 122.742C215.06 122.513 215.326 122.169 215.492 121.711C215.664 121.253 215.755 120.682 215.766 120V119.727C215.766 118.622 215.578 117.786 215.203 117.219C214.828 116.646 214.174 116.359 213.242 116.359C212.44 116.359 211.844 116.667 211.453 117.281C211.062 117.891 210.867 118.719 210.867 119.766C210.867 120.812 211.062 121.628 211.453 122.211C211.844 122.789 212.44 123.078 213.242 123.078ZM226.875 115.438V124H225.812L225.625 122.797H225.555C225.378 123.094 225.148 123.344 224.867 123.547C224.586 123.75 224.268 123.901 223.914 124C223.565 124.104 223.193 124.156 222.797 124.156C222.12 124.156 221.552 124.047 221.094 123.828C220.635 123.609 220.289 123.271 220.055 122.812C219.826 122.354 219.711 121.766 219.711 121.047V115.438H221.023V120.953C221.023 121.667 221.185 122.201 221.508 122.555C221.831 122.904 222.323 123.078 222.984 123.078C223.62 123.078 224.125 122.958 224.5 122.719C224.88 122.479 225.154 122.128 225.32 121.664C225.487 121.195 225.57 120.622 225.57 119.945V115.438H226.875ZM232.914 115.281C233.643 115.281 234.268 115.443 234.789 115.766C235.31 116.089 235.708 116.542 235.984 117.125C236.26 117.703 236.398 118.38 236.398 119.156V119.961H230.484C230.5 120.966 230.75 121.732 231.234 122.258C231.719 122.784 232.401 123.047 233.281 123.047C233.823 123.047 234.302 122.997 234.719 122.898C235.135 122.799 235.568 122.654 236.016 122.461V123.602C235.583 123.794 235.154 123.935 234.727 124.023C234.305 124.112 233.805 124.156 233.227 124.156C232.404 124.156 231.685 123.99 231.07 123.656C230.461 123.318 229.987 122.823 229.648 122.172C229.31 121.521 229.141 120.724 229.141 119.781C229.141 118.859 229.294 118.062 229.602 117.391C229.914 116.714 230.352 116.193 230.914 115.828C231.482 115.464 232.148 115.281 232.914 115.281ZM232.898 116.344C232.206 116.344 231.654 116.57 231.242 117.023C230.831 117.477 230.586 118.109 230.508 118.922H235.039C235.034 118.411 234.953 117.964 234.797 117.578C234.646 117.188 234.414 116.885 234.102 116.672C233.789 116.453 233.388 116.344 232.898 116.344ZM241.367 123.094C241.581 123.094 241.799 123.076 242.023 123.039C242.247 123.003 242.43 122.958 242.57 122.906V123.914C242.419 123.982 242.208 124.039 241.938 124.086C241.672 124.133 241.411 124.156 241.156 124.156C240.703 124.156 240.292 124.078 239.922 123.922C239.552 123.76 239.255 123.49 239.031 123.109C238.812 122.729 238.703 122.203 238.703 121.531V116.453H237.484V115.82L238.711 115.312L239.227 113.453H240.008V115.438H242.516V116.453H240.008V121.492C240.008 122.029 240.13 122.43 240.375 122.695C240.625 122.961 240.956 123.094 241.367 123.094ZM247.508 115.297C248.529 115.297 249.286 115.526 249.781 115.984C250.276 116.443 250.523 117.174 250.523 118.18V124H249.578L249.328 122.734H249.266C249.026 123.047 248.776 123.31 248.516 123.523C248.255 123.732 247.953 123.891 247.609 124C247.271 124.104 246.854 124.156 246.359 124.156C245.839 124.156 245.375 124.065 244.969 123.883C244.568 123.701 244.25 123.424 244.016 123.055C243.786 122.685 243.672 122.216 243.672 121.648C243.672 120.794 244.01 120.138 244.688 119.68C245.365 119.221 246.396 118.971 247.781 118.93L249.258 118.867V118.344C249.258 117.604 249.099 117.086 248.781 116.789C248.464 116.492 248.016 116.344 247.438 116.344C246.99 116.344 246.562 116.409 246.156 116.539C245.75 116.669 245.365 116.823 245 117L244.602 116.016C244.987 115.818 245.43 115.648 245.93 115.508C246.43 115.367 246.956 115.297 247.508 115.297ZM249.242 119.781L247.938 119.836C246.87 119.878 246.117 120.052 245.68 120.359C245.242 120.667 245.023 121.102 245.023 121.664C245.023 122.154 245.172 122.516 245.469 122.75C245.766 122.984 246.159 123.102 246.648 123.102C247.409 123.102 248.031 122.891 248.516 122.469C249 122.047 249.242 121.414 249.242 120.57V119.781Z" fill="#101E37"/>
<rect x="190" y="138" width="348" height="8" rx="4" fill="#D1D8E0"/>
<rect x="190" y="138" width="90.4637" height="8" rx="4" fill="#336ACC"/>
</svg>
