<svg width="728" height="286" viewBox="0 0 728 286" fill="none" xmlns="http://www.w3.org/2000/svg">
<g clip-path="url(#clip0_1133_11320)">
<rect width="728" height="286" rx="8" fill="#F3F6F9"/>
<g clip-path="url(#clip1_1133_11320)">
<mask id="path-5-inside-1_1133_11320" fill="white">
<path d="M87 -9.21169C87 -14.1403 90.9954 -18.1357 95.9241 -18.1357H783.076C788.005 -18.1357 792 -14.1403 792 -9.21169V36.5241H87V-9.21169Z"/>
</mask>
<path d="M87 -9.21169C87 -14.1403 90.9954 -18.1357 95.9241 -18.1357H783.076C788.005 -18.1357 792 -14.1403 792 -9.21169V36.5241H87V-9.21169Z" fill="white"/>
<path d="M87 -18.1357H792H87ZM792 39.2571H87V33.7911H792V39.2571ZM87 36.5241V-18.1357V36.5241ZM792 -18.1357V36.5241V-18.1357Z" fill="#FFCC00" mask="url(#path-5-inside-1_1133_11320)"/>
<g clip-path="url(#clip2_1133_11320)">
<path d="M184.95 17.3347L176.064 0.0441375C175.298 -1.49073 173.727 -2.54126 171.904 -2.54126H171.9C170.079 -2.54126 168.507 -1.49073 167.74 0.0441375L161.485 12.2147C160.787 10.963 159.673 9.981 158.329 9.45021C159.829 8.35766 160.807 6.5773 160.807 4.56914C160.807 2.24029 159.493 0.225492 157.574 -0.774166C155.883 -1.66988 153.952 -2.17634 151.905 -2.17634H142.549C140.625 -2.17634 139.07 -0.610505 139.07 1.32246V18.8563C139.07 20.7892 140.625 22.3551 142.549 22.3551H152.667C154.618 22.3551 156.473 21.9481 158.158 21.2227L158.799 20.9109C158.834 20.8932 158.87 20.8755 158.905 20.8578C159.513 21.8729 160.613 22.5563 161.881 22.5563C163.288 22.5563 164.501 21.7159 165.048 20.5017C165.32 19.8604 165.935 19.407 166.66 19.3716H177.142C177.869 19.407 178.482 19.8604 178.754 20.5017C179.299 21.7159 180.514 22.5563 181.921 22.5563C183.843 22.5563 185.398 20.9861 185.398 19.0597C185.398 18.4316 185.238 17.8433 184.948 17.3369" fill="#153244"/>
</g>
<rect x="646.148" y="1.16821" width="80.1112" height="17.3735" rx="4.46203" fill="#E6EBF0"/>
<rect width="705" height="91.2976" transform="translate(87 36.5244)" fill="#F3F6F9"/>
<rect x="133.851" y="54.3726" width="154.431" height="13.3861" rx="4.46203" fill="#D1D8E0"/>
<rect x="133.851" y="79.3408" width="383.183" height="13.3861" rx="4.46203" fill="#E6EBF0"/>
<rect x="133.851" y="96.5876" width="319.035" height="13.3861" rx="4.46203" fill="#E6EBF0"/>
<rect width="705" height="132.955" transform="translate(87 127.822)" fill="white"/>
<rect x="137.521" y="146.635" width="191.109" height="95.3284" rx="6.75637" fill="white"/>
<rect x="137.521" y="146.635" width="191.109" height="95.3284" rx="6.75637" stroke="#E6EBF0" stroke-width="1.93039"/>
<rect x="148.138" y="157.252" width="35.4863" height="35.4863" rx="4.43579" fill="#ADC3EB"/>
<rect x="148.138" y="204.321" width="76.2402" height="11.5823" rx="2.23101" fill="#E6EBF0"/>
<rect x="148.138" y="219.764" width="156.362" height="11.5823" rx="2.23101" fill="#E6EBF0"/>
<rect x="343.946" y="146.635" width="191.109" height="95.3284" rx="6.75637" fill="white"/>
<rect x="343.946" y="146.635" width="191.109" height="95.3284" rx="6.75637" stroke="#E6EBF0" stroke-width="1.93039"/>
<rect x="354.563" y="157.252" width="35.4863" height="35.4863" rx="4.43579" fill="#ADC3EB"/>
<rect x="354.563" y="204.321" width="76.2402" height="11.5823" rx="2.23101" fill="#E6EBF0"/>
<rect x="354.563" y="219.764" width="156.362" height="11.5823" rx="2.23101" fill="#E6EBF0"/>
<rect x="550.371" y="146.635" width="191.109" height="95.3284" rx="6.75637" fill="white"/>
<rect x="550.371" y="146.635" width="191.109" height="95.3284" rx="6.75637" stroke="#E6EBF0" stroke-width="1.93039"/>
<rect x="560.988" y="157.252" width="35.4863" height="35.4863" rx="4.43579" fill="#ADC3EB"/>
<rect x="560.988" y="204.321" width="76.2402" height="11.5823" rx="2.23101" fill="#E6EBF0"/>
<rect x="560.988" y="219.764" width="156.362" height="11.5823" rx="2.23101" fill="#E6EBF0"/>
<mask id="path-24-inside-2_1133_11320" fill="white">
<path d="M87 260.777H792V354.131C792 359.06 788.005 363.056 783.076 363.056H95.9241C90.9954 363.056 87 359.06 87 354.131V260.777Z"/>
</mask>
<path d="M87 260.777H792V354.131C792 359.06 788.005 363.056 783.076 363.056H95.9241C90.9954 363.056 87 359.06 87 354.131V260.777Z" fill="white"/>
<path d="M87 259.661H792V261.892H87V259.661ZM792 363.056H87H792ZM87 363.056V260.777V363.056ZM792 260.777V363.056V260.777Z" fill="#E6EBF0" mask="url(#path-24-inside-2_1133_11320)"/>
<rect x="133.851" y="278.625" width="154.431" height="11.1551" rx="2.23101" fill="#E6EBF0"/>
</g>
<rect x="86" y="-19.1357" width="707" height="338.883" rx="9.92405" stroke="#E6EBF0" stroke-width="2"/>
</g>
<rect x="1" y="1" width="726" height="284" rx="7" stroke="#E6EBF0" stroke-width="2"/>
<defs>
<clipPath id="clip0_1133_11320">
<rect width="728" height="286" rx="8" fill="white"/>
</clipPath>
<clipPath id="clip1_1133_11320">
<rect x="87" y="-18.1357" width="705" height="336.883" rx="8.92405" fill="white"/>
</clipPath>
<clipPath id="clip2_1133_11320">
<rect width="46.3299" height="25.0954" fill="white" transform="translate(139.07 -2.54126)"/>
</clipPath>
</defs>
</svg>
