<svg width="728" height="399" viewBox="0 0 728 399" fill="none" xmlns="http://www.w3.org/2000/svg">
<rect x="1" y="1.95068" width="726" height="396" rx="7" fill="#F3F6F9"/>
<rect x="1" y="1.95068" width="726" height="396" rx="7" stroke="#E6EBF0" stroke-width="2"/>
<g clip-path="url(#clip0_1109_3637)">
<mask id="path-4-inside-1_1109_3637" fill="white">
<path d="M48 56.9507C48 52.5324 51.5817 48.9507 56 48.9507H672C676.418 48.9507 680 52.5324 680 56.9507V97.9507H48V56.9507Z"/>
</mask>
<path d="M48 56.9507C48 52.5324 51.5817 48.9507 56 48.9507H672C676.418 48.9507 680 52.5324 680 56.9507V97.9507H48V56.9507Z" fill="white"/>
<path d="M48 48.9507H680H48ZM680 100.401H48V95.5007H680V100.401ZM48 97.9507V48.9507V97.9507ZM680 48.9507V97.9507V48.9507Z" fill="#FFCC00" mask="url(#path-4-inside-1_1109_3637)"/>
<g clip-path="url(#clip1_1109_3637)">
<path d="M135.807 80.6126L127.841 65.1126C127.154 63.7367 125.747 62.7949 124.112 62.7949H124.109C122.476 62.7949 121.067 63.7367 120.38 65.1126L114.772 76.0228C114.146 74.9007 113.148 74.0204 111.943 73.5446C113.288 72.5652 114.164 70.9692 114.164 69.169C114.164 67.0813 112.987 65.2752 111.266 64.379C109.75 63.5761 108.019 63.1221 106.184 63.1221H97.7973C96.0726 63.1221 94.6787 64.5257 94.6787 66.2585V81.9766C94.6787 83.7094 96.0726 85.1131 97.7973 85.1131H106.868C108.616 85.1131 110.28 84.7483 111.79 84.098L112.365 83.8184C112.396 83.8026 112.428 83.7867 112.459 83.7708C113.004 84.6809 113.991 85.2935 115.127 85.2935C116.389 85.2935 117.476 84.5401 117.966 83.4516C118.21 82.8767 118.761 82.4703 119.411 82.4385H128.808C129.46 82.4703 130.009 82.8767 130.253 83.4516C130.741 84.5401 131.83 85.2935 133.092 85.2935C134.815 85.2935 136.209 83.8858 136.209 82.159C136.209 81.5959 136.065 81.0686 135.805 80.6145" fill="#153244"/>
</g>
<rect x="549.25" y="66.2559" width="71.816" height="15.5746" rx="7.78728" fill="#E6EBF0"/>
<rect width="632" height="81.844" transform="translate(48 97.9512)" fill="#F3F6F9"/>
<rect x="90" y="113.951" width="138.44" height="12" rx="6" fill="#8A97A8"/>
<rect x="90" y="136.334" width="343.505" height="12" rx="6" fill="#D1D8E0"/>
<rect x="90" y="151.795" width="286" height="12" rx="6" fill="#D1D8E0"/>
<rect width="632" height="224.376" transform="translate(48 179.795)" fill="white"/>
<rect x="85.8653" y="196.66" width="172.27" height="85.4576" rx="6.05677" fill="white"/>
<rect x="85.8653" y="196.66" width="172.27" height="85.4576" rx="6.05677" stroke="#E6EBF0" stroke-width="1.73051"/>
<rect x="95.3831" y="206.178" width="31.8119" height="31.8119" rx="3.97648" fill="#ADC3EB"/>
<rect x="95.3831" y="248.373" width="68.3458" height="10.383" rx="5.19152" fill="#B8C1CC"/>
<rect x="95.3831" y="262.217" width="140.171" height="10.383" rx="5.19152" fill="#D1D8E0"/>
<rect x="277.865" y="196.66" width="172.27" height="85.4576" rx="6.05677" fill="white"/>
<rect x="277.865" y="196.66" width="172.27" height="85.4576" rx="6.05677" stroke="#E6EBF0" stroke-width="1.73051"/>
<rect x="287.383" y="206.178" width="31.8119" height="31.8119" rx="3.97648" fill="#ADC3EB"/>
<rect x="287.383" y="248.373" width="68.3458" height="10.383" rx="5.19152" fill="#B8C1CC"/>
<rect x="287.383" y="262.217" width="140.171" height="10.383" rx="5.19152" fill="#D1D8E0"/>
<rect x="469.865" y="196.66" width="172.27" height="85.4576" rx="6.05677" fill="white"/>
<rect x="469.865" y="196.66" width="172.27" height="85.4576" rx="6.05677" stroke="#E6EBF0" stroke-width="1.73051"/>
<rect x="479.383" y="206.178" width="31.8119" height="31.8119" rx="3.97648" fill="#ADC3EB"/>
<rect x="479.383" y="248.373" width="68.3458" height="10.383" rx="5.19152" fill="#B8C1CC"/>
<rect x="479.383" y="262.217" width="140.171" height="10.383" rx="5.19152" fill="#D1D8E0"/>
<rect x="85.8653" y="301.848" width="172.27" height="85.4576" rx="6.05677" fill="white"/>
<rect x="85.8653" y="301.848" width="172.27" height="85.4576" rx="6.05677" stroke="#E6EBF0" stroke-width="1.73051"/>
<rect x="95.3831" y="311.366" width="31.8119" height="31.8119" rx="3.97648" fill="#ADC3EB"/>
<rect x="277.865" y="301.848" width="172.27" height="85.4576" rx="6.05677" fill="white"/>
<rect x="277.865" y="301.848" width="172.27" height="85.4576" rx="6.05677" stroke="#E6EBF0" stroke-width="1.73051"/>
<rect x="287.383" y="311.366" width="31.8119" height="31.8119" rx="3.97648" fill="#ADC3EB"/>
<rect x="469.865" y="301.848" width="172.27" height="85.4576" rx="6.05677" fill="white"/>
<rect x="469.865" y="301.848" width="172.27" height="85.4576" rx="6.05677" stroke="#E6EBF0" stroke-width="1.73051"/>
<rect x="479.383" y="311.366" width="31.8119" height="31.8119" rx="3.97648" fill="#ADC3EB"/>
<rect x="259" y="197" width="18" height="556" fill="#F7E5FF"/>
<mask id="mask0_1109_3637" style="mask-type:alpha" maskUnits="userSpaceOnUse" x="259" y="197" width="18" height="556">
<rect x="259" y="197" width="18" height="556" fill="#F7E5FF"/>
</mask>
<g mask="url(#mask0_1109_3637)">
<line y1="-0.25" x2="82.113" y2="-0.25" transform="matrix(-0.653064 0.757303 -0.653064 -0.757303 290.125 153.105)" stroke="#C433FF" stroke-width="0.5"/>
<line y1="-0.25" x2="82.113" y2="-0.25" transform="matrix(-0.653064 0.757303 -0.653064 -0.757303 290.125 223.062)" stroke="#C433FF" stroke-width="0.5"/>
<line y1="-0.25" x2="82.113" y2="-0.25" transform="matrix(-0.653064 0.757303 -0.653064 -0.757303 290.125 316.337)" stroke="#C433FF" stroke-width="0.5"/>
<line y1="-0.25" x2="82.113" y2="-0.25" transform="matrix(-0.653064 0.757303 -0.653064 -0.757303 290.125 328)" stroke="#C433FF" stroke-width="0.5"/>
<line y1="-0.25" x2="82.113" y2="-0.25" transform="matrix(-0.653064 0.757303 -0.653064 -0.757303 290.125 269.701)" stroke="#C433FF" stroke-width="0.5"/>
<line y1="-0.25" x2="82.113" y2="-0.25" transform="matrix(-0.653064 0.757303 -0.653064 -0.757303 290.125 234.722)" stroke="#C433FF" stroke-width="0.5"/>
<line y1="-0.25" x2="82.113" y2="-0.25" transform="matrix(-0.653064 0.757303 -0.653064 -0.757303 290.125 164.764)" stroke="#C433FF" stroke-width="0.5"/>
<line y1="-0.25" x2="82.113" y2="-0.25" transform="matrix(-0.653064 0.757303 -0.653064 -0.757303 290.125 304.678)" stroke="#C433FF" stroke-width="0.5"/>
<line y1="-0.25" x2="82.113" y2="-0.25" transform="matrix(-0.653064 0.757303 -0.653064 -0.757303 290.125 293.019)" stroke="#C433FF" stroke-width="0.5"/>
<line y1="-0.25" x2="82.113" y2="-0.25" transform="matrix(-0.653064 0.757303 -0.653064 -0.757303 290.125 176.424)" stroke="#C433FF" stroke-width="0.5"/>
<line y1="-0.25" x2="82.113" y2="-0.25" transform="matrix(-0.653064 0.757303 -0.653064 -0.757303 290.125 199.742)" stroke="#C433FF" stroke-width="0.5"/>
<line y1="-0.25" x2="82.113" y2="-0.25" transform="matrix(-0.653064 0.757303 -0.653064 -0.757303 290.125 246.38)" stroke="#C433FF" stroke-width="0.5"/>
<line y1="-0.25" x2="82.113" y2="-0.25" transform="matrix(-0.653064 0.757303 -0.653064 -0.757303 290.125 281.36)" stroke="#C433FF" stroke-width="0.5"/>
<line y1="-0.25" x2="82.113" y2="-0.25" transform="matrix(-0.653064 0.757303 -0.653064 -0.757303 290.125 211.404)" stroke="#C433FF" stroke-width="0.5"/>
<line y1="-0.25" x2="82.113" y2="-0.25" transform="matrix(-0.653064 0.757303 -0.653064 -0.757303 290.125 258.04)" stroke="#C433FF" stroke-width="0.5"/>
<line y1="-0.25" x2="82.113" y2="-0.25" transform="matrix(-0.653064 0.757303 -0.653064 -0.757303 290.125 339.658)" stroke="#C433FF" stroke-width="0.5"/>
<line y1="-0.25" x2="82.113" y2="-0.25" transform="matrix(-0.653064 0.757303 -0.653064 -0.757303 290.125 188.083)" stroke="#C433FF" stroke-width="0.5"/>
</g>
<rect x="260" y="212" width="16" height="43" rx="6.88" fill="#9100CC"/>
<path d="M266.305 240.206C266.697 240.206 267.018 240.317 267.267 240.538C267.516 240.756 267.683 241.067 267.767 241.47H267.8C267.862 240.977 268.019 240.612 268.271 240.374C268.522 240.136 268.853 240.017 269.262 240.017C269.847 240.017 270.297 240.22 270.614 240.626C270.927 241.032 271.084 241.608 271.084 242.356C271.084 242.681 271.059 242.979 271.008 243.25C270.961 243.519 270.875 243.781 270.752 244.036H270.089C270.22 243.77 270.321 243.487 270.391 243.187C270.458 242.885 270.492 242.599 270.492 242.331C270.492 241.27 270.076 240.739 269.245 240.739C268.5 240.739 268.128 241.324 268.128 242.495V243.099H267.527V242.486C267.527 242.007 267.422 241.628 267.212 241.348C267 241.068 266.706 240.928 266.33 240.928C266.031 240.928 265.796 241.032 265.625 241.239C265.454 241.443 265.369 241.722 265.369 242.075C265.369 242.343 265.405 242.597 265.478 242.835C265.551 243.073 265.685 243.344 265.881 243.649L265.411 244.002C265.212 243.75 265.057 243.46 264.945 243.133C264.83 242.802 264.773 242.455 264.773 242.091C264.773 241.495 264.91 241.032 265.184 240.701C265.456 240.371 265.829 240.206 266.305 240.206ZM271 235.053V239.089H270.4L268.774 237.472C268.276 236.98 267.921 236.655 267.708 236.498C267.495 236.341 267.288 236.224 267.086 236.145C266.885 236.067 266.668 236.028 266.435 236.028C266.108 236.028 265.849 236.127 265.659 236.326C265.465 236.525 265.369 236.8 265.369 237.153C265.369 237.408 265.411 237.65 265.495 237.88C265.579 238.106 265.731 238.36 265.953 238.64L265.478 239.009C265.008 238.444 264.773 237.828 264.773 237.162C264.773 236.585 264.921 236.133 265.218 235.805C265.512 235.478 265.908 235.314 266.406 235.314C266.795 235.314 267.18 235.423 267.561 235.641C267.942 235.86 268.423 236.268 269.005 236.868L270.32 238.211H270.353V235.053H271ZM271.084 229.473C271.084 229.772 271.029 230.047 270.92 230.296C270.808 230.542 270.637 230.749 270.408 230.917V230.968C270.677 230.934 270.931 230.917 271.172 230.917H273.066V231.614H266.398V231.047L267.028 230.951V230.917C266.776 230.738 266.594 230.53 266.482 230.292C266.37 230.054 266.314 229.781 266.314 229.473C266.314 228.862 266.522 228.392 266.939 228.062C267.356 227.729 267.942 227.562 268.695 227.562C269.45 227.562 270.038 227.731 270.458 228.07C270.875 228.406 271.084 228.874 271.084 229.473ZM266.906 229.574C266.906 230.044 267.036 230.384 267.296 230.594C267.557 230.804 267.971 230.912 268.539 230.917H268.695C269.341 230.917 269.805 230.809 270.085 230.594C270.362 230.378 270.5 230.033 270.5 229.557C270.5 229.159 270.339 228.848 270.017 228.624C269.695 228.398 269.252 228.284 268.686 228.284C268.112 228.284 267.673 228.398 267.368 228.624C267.06 228.848 266.906 229.165 266.906 229.574ZM268.644 225.232L266.398 226.831V226.038L268.161 224.824L266.398 223.615V222.83L268.644 224.429L271 222.746V223.535L269.136 224.824L271 226.126V226.915L268.644 225.232Z" fill="#F7E5FF"/>
<line x1="259.5" y1="191.5" x2="259.5" y2="202.5" stroke="#C433FF" stroke-linecap="round"/>
<line x1="276.5" y1="197.5" x2="259.5" y2="197.5" stroke="#C433FF" stroke-linecap="round"/>
<line x1="276.375" y1="191.5" x2="276.375" y2="202.5" stroke="#C433FF" stroke-linecap="round"/>
<rect x="451" y="197" width="18" height="556" fill="#F7E5FF"/>
<mask id="mask1_1109_3637" style="mask-type:alpha" maskUnits="userSpaceOnUse" x="451" y="197" width="18" height="556">
<rect x="451" y="197" width="18" height="556" fill="#F7E5FF"/>
</mask>
<g mask="url(#mask1_1109_3637)">
<line y1="-0.25" x2="82.113" y2="-0.25" transform="matrix(-0.653064 0.757303 -0.653064 -0.757303 482.125 153.105)" stroke="#C433FF" stroke-width="0.5"/>
<line y1="-0.25" x2="82.113" y2="-0.25" transform="matrix(-0.653064 0.757303 -0.653064 -0.757303 482.125 223.062)" stroke="#C433FF" stroke-width="0.5"/>
<line y1="-0.25" x2="82.113" y2="-0.25" transform="matrix(-0.653064 0.757303 -0.653064 -0.757303 482.125 316.337)" stroke="#C433FF" stroke-width="0.5"/>
<line y1="-0.25" x2="82.113" y2="-0.25" transform="matrix(-0.653064 0.757303 -0.653064 -0.757303 482.125 328)" stroke="#C433FF" stroke-width="0.5"/>
<line y1="-0.25" x2="82.113" y2="-0.25" transform="matrix(-0.653064 0.757303 -0.653064 -0.757303 482.125 269.701)" stroke="#C433FF" stroke-width="0.5"/>
<line y1="-0.25" x2="82.113" y2="-0.25" transform="matrix(-0.653064 0.757303 -0.653064 -0.757303 482.125 234.722)" stroke="#C433FF" stroke-width="0.5"/>
<line y1="-0.25" x2="82.113" y2="-0.25" transform="matrix(-0.653064 0.757303 -0.653064 -0.757303 482.125 164.764)" stroke="#C433FF" stroke-width="0.5"/>
<line y1="-0.25" x2="82.113" y2="-0.25" transform="matrix(-0.653064 0.757303 -0.653064 -0.757303 482.125 304.678)" stroke="#C433FF" stroke-width="0.5"/>
<line y1="-0.25" x2="82.113" y2="-0.25" transform="matrix(-0.653064 0.757303 -0.653064 -0.757303 482.125 293.019)" stroke="#C433FF" stroke-width="0.5"/>
<line y1="-0.25" x2="82.113" y2="-0.25" transform="matrix(-0.653064 0.757303 -0.653064 -0.757303 482.125 176.424)" stroke="#C433FF" stroke-width="0.5"/>
<line y1="-0.25" x2="82.113" y2="-0.25" transform="matrix(-0.653064 0.757303 -0.653064 -0.757303 482.125 199.742)" stroke="#C433FF" stroke-width="0.5"/>
<line y1="-0.25" x2="82.113" y2="-0.25" transform="matrix(-0.653064 0.757303 -0.653064 -0.757303 482.125 246.38)" stroke="#C433FF" stroke-width="0.5"/>
<line y1="-0.25" x2="82.113" y2="-0.25" transform="matrix(-0.653064 0.757303 -0.653064 -0.757303 482.125 281.36)" stroke="#C433FF" stroke-width="0.5"/>
<line y1="-0.25" x2="82.113" y2="-0.25" transform="matrix(-0.653064 0.757303 -0.653064 -0.757303 482.125 211.404)" stroke="#C433FF" stroke-width="0.5"/>
<line y1="-0.25" x2="82.113" y2="-0.25" transform="matrix(-0.653064 0.757303 -0.653064 -0.757303 482.125 258.04)" stroke="#C433FF" stroke-width="0.5"/>
<line y1="-0.25" x2="82.113" y2="-0.25" transform="matrix(-0.653064 0.757303 -0.653064 -0.757303 482.125 339.658)" stroke="#C433FF" stroke-width="0.5"/>
<line y1="-0.25" x2="82.113" y2="-0.25" transform="matrix(-0.653064 0.757303 -0.653064 -0.757303 482.125 188.083)" stroke="#C433FF" stroke-width="0.5"/>
</g>
<rect x="452" y="212" width="16" height="43" rx="6.88" fill="#9100CC"/>
<path d="M458.305 240.206C458.697 240.206 459.018 240.317 459.267 240.538C459.516 240.756 459.683 241.067 459.767 241.47H459.8C459.862 240.977 460.019 240.612 460.271 240.374C460.522 240.136 460.853 240.017 461.262 240.017C461.847 240.017 462.297 240.22 462.614 240.626C462.927 241.032 463.084 241.608 463.084 242.356C463.084 242.681 463.059 242.979 463.008 243.25C462.961 243.519 462.875 243.781 462.752 244.036H462.089C462.22 243.77 462.321 243.487 462.391 243.187C462.458 242.885 462.492 242.599 462.492 242.331C462.492 241.27 462.076 240.739 461.245 240.739C460.5 240.739 460.128 241.324 460.128 242.495V243.099H459.527V242.486C459.527 242.007 459.422 241.628 459.212 241.348C459 241.068 458.706 240.928 458.33 240.928C458.031 240.928 457.796 241.032 457.625 241.239C457.454 241.443 457.369 241.722 457.369 242.075C457.369 242.343 457.405 242.597 457.478 242.835C457.551 243.073 457.685 243.344 457.881 243.649L457.411 244.002C457.212 243.75 457.057 243.46 456.945 243.133C456.83 242.802 456.773 242.455 456.773 242.091C456.773 241.495 456.91 241.032 457.184 240.701C457.456 240.371 457.829 240.206 458.305 240.206ZM463 235.053V239.089H462.4L460.774 237.472C460.276 236.98 459.921 236.655 459.708 236.498C459.495 236.341 459.288 236.224 459.086 236.145C458.885 236.067 458.668 236.028 458.435 236.028C458.108 236.028 457.849 236.127 457.659 236.326C457.465 236.525 457.369 236.8 457.369 237.153C457.369 237.408 457.411 237.65 457.495 237.88C457.579 238.106 457.731 238.36 457.953 238.64L457.478 239.009C457.008 238.444 456.773 237.828 456.773 237.162C456.773 236.585 456.921 236.133 457.218 235.805C457.512 235.478 457.908 235.314 458.406 235.314C458.795 235.314 459.18 235.423 459.561 235.641C459.942 235.86 460.423 236.268 461.005 236.868L462.32 238.211H462.353V235.053H463ZM463.084 229.473C463.084 229.772 463.029 230.047 462.92 230.296C462.808 230.542 462.637 230.749 462.408 230.917V230.968C462.677 230.934 462.931 230.917 463.172 230.917H465.066V231.614H458.398V231.047L459.028 230.951V230.917C458.776 230.738 458.594 230.53 458.482 230.292C458.37 230.054 458.314 229.781 458.314 229.473C458.314 228.862 458.522 228.392 458.939 228.062C459.356 227.729 459.942 227.562 460.695 227.562C461.45 227.562 462.038 227.731 462.458 228.07C462.875 228.406 463.084 228.874 463.084 229.473ZM458.906 229.574C458.906 230.044 459.036 230.384 459.296 230.594C459.557 230.804 459.971 230.912 460.539 230.917H460.695C461.341 230.917 461.805 230.809 462.085 230.594C462.362 230.378 462.5 230.033 462.5 229.557C462.5 229.159 462.339 228.848 462.017 228.624C461.695 228.398 461.252 228.284 460.686 228.284C460.112 228.284 459.673 228.398 459.368 228.624C459.06 228.848 458.906 229.165 458.906 229.574ZM460.644 225.232L458.398 226.831V226.038L460.161 224.824L458.398 223.615V222.83L460.644 224.429L463 222.746V223.535L461.136 224.824L463 226.126V226.915L460.644 225.232Z" fill="#F7E5FF"/>
<line x1="451.5" y1="191.5" x2="451.5" y2="202.5" stroke="#C433FF" stroke-linecap="round"/>
<line x1="468.5" y1="197.5" x2="451.5" y2="197.5" stroke="#C433FF" stroke-linecap="round"/>
<line x1="468.375" y1="191.5" x2="468.375" y2="202.5" stroke="#C433FF" stroke-linecap="round"/>
</g>
<rect x="47" y="47.9507" width="634" height="304" rx="9" stroke="#B8C1CC" stroke-width="2"/>
<rect x="643" y="283" width="18" height="556" transform="rotate(90 643 283)" fill="#F7E5FF"/>
<mask id="mask2_1109_3637" style="mask-type:alpha" maskUnits="userSpaceOnUse" x="87" y="283" width="556" height="18">
<rect x="643" y="283" width="18" height="556" transform="rotate(90 643 283)" fill="#F7E5FF"/>
</mask>
<g mask="url(#mask2_1109_3637)">
<line y1="-0.25" x2="82.113" y2="-0.25" transform="matrix(-0.757303 -0.653064 0.757303 -0.653064 686.895 314.125)" stroke="#C433FF" stroke-width="0.5"/>
<line y1="-0.25" x2="82.113" y2="-0.25" transform="matrix(-0.757303 -0.653064 0.757303 -0.653064 616.938 314.125)" stroke="#C433FF" stroke-width="0.5"/>
<line y1="-0.25" x2="82.113" y2="-0.25" transform="matrix(-0.757303 -0.653064 0.757303 -0.653064 523.662 314.125)" stroke="#C433FF" stroke-width="0.5"/>
<line y1="-0.25" x2="82.113" y2="-0.25" transform="matrix(-0.757303 -0.653064 0.757303 -0.653064 512.001 314.125)" stroke="#C433FF" stroke-width="0.5"/>
<line y1="-0.25" x2="82.113" y2="-0.25" transform="matrix(-0.757303 -0.653064 0.757303 -0.653064 570.299 314.125)" stroke="#C433FF" stroke-width="0.5"/>
<line y1="-0.25" x2="82.113" y2="-0.25" transform="matrix(-0.757303 -0.653064 0.757303 -0.653064 605.278 314.125)" stroke="#C433FF" stroke-width="0.5"/>
<line y1="-0.25" x2="82.113" y2="-0.25" transform="matrix(-0.757303 -0.653064 0.757303 -0.653064 675.236 314.125)" stroke="#C433FF" stroke-width="0.5"/>
<line y1="-0.25" x2="82.113" y2="-0.25" transform="matrix(-0.757303 -0.653064 0.757303 -0.653064 535.322 314.125)" stroke="#C433FF" stroke-width="0.5"/>
<line y1="-0.25" x2="82.113" y2="-0.25" transform="matrix(-0.757303 -0.653064 0.757303 -0.653064 546.981 314.125)" stroke="#C433FF" stroke-width="0.5"/>
<line y1="-0.25" x2="82.113" y2="-0.25" transform="matrix(-0.757303 -0.653064 0.757303 -0.653064 663.576 314.125)" stroke="#C433FF" stroke-width="0.5"/>
<line y1="-0.25" x2="82.113" y2="-0.25" transform="matrix(-0.757303 -0.653064 0.757303 -0.653064 640.258 314.125)" stroke="#C433FF" stroke-width="0.5"/>
<line y1="-0.25" x2="82.113" y2="-0.25" transform="matrix(-0.757303 -0.653064 0.757303 -0.653064 593.619 314.125)" stroke="#C433FF" stroke-width="0.5"/>
<line y1="-0.25" x2="82.113" y2="-0.25" transform="matrix(-0.757303 -0.653064 0.757303 -0.653064 558.64 314.125)" stroke="#C433FF" stroke-width="0.5"/>
<line y1="-0.25" x2="82.113" y2="-0.25" transform="matrix(-0.757303 -0.653064 0.757303 -0.653064 628.596 314.125)" stroke="#C433FF" stroke-width="0.5"/>
<line y1="-0.25" x2="82.113" y2="-0.25" transform="matrix(-0.757303 -0.653064 0.757303 -0.653064 581.96 314.125)" stroke="#C433FF" stroke-width="0.5"/>
<line y1="-0.25" x2="82.113" y2="-0.25" transform="matrix(-0.757303 -0.653064 0.757303 -0.653064 500.342 314.125)" stroke="#C433FF" stroke-width="0.5"/>
<line y1="-0.25" x2="82.113" y2="-0.25" transform="matrix(-0.757303 -0.653064 0.757303 -0.653064 651.917 314.125)" stroke="#C433FF" stroke-width="0.5"/>
<line y1="-0.25" x2="82.113" y2="-0.25" transform="matrix(-0.757303 -0.653064 0.757303 -0.653064 487.905 314.125)" stroke="#C433FF" stroke-width="0.5"/>
<line y1="-0.25" x2="82.113" y2="-0.25" transform="matrix(-0.757303 -0.653064 0.757303 -0.653064 371.309 314.125)" stroke="#C433FF" stroke-width="0.5"/>
<line y1="-0.25" x2="82.113" y2="-0.25" transform="matrix(-0.757303 -0.653064 0.757303 -0.653064 452.927 314.125)" stroke="#C433FF" stroke-width="0.5"/>
<line y1="-0.25" x2="82.113" y2="-0.25" transform="matrix(-0.757303 -0.653064 0.757303 -0.653064 324.673 314.125)" stroke="#C433FF" stroke-width="0.5"/>
<line y1="-0.25" x2="82.113" y2="-0.25" transform="matrix(-0.757303 -0.653064 0.757303 -0.653064 476.247 314.125)" stroke="#C433FF" stroke-width="0.5"/>
<line y1="-0.25" x2="82.113" y2="-0.25" transform="matrix(-0.757303 -0.653064 0.757303 -0.653064 347.992 314.125)" stroke="#C433FF" stroke-width="0.5"/>
<line y1="-0.25" x2="82.113" y2="-0.25" transform="matrix(-0.757303 -0.653064 0.757303 -0.653064 441.268 314.125)" stroke="#C433FF" stroke-width="0.5"/>
<line y1="-0.25" x2="82.113" y2="-0.25" transform="matrix(-0.757303 -0.653064 0.757303 -0.653064 359.65 314.125)" stroke="#C433FF" stroke-width="0.5"/>
<line y1="-0.25" x2="82.113" y2="-0.25" transform="matrix(-0.757303 -0.653064 0.757303 -0.653064 429.607 314.125)" stroke="#C433FF" stroke-width="0.5"/>
<line y1="-0.25" x2="82.113" y2="-0.25" transform="matrix(-0.757303 -0.653064 0.757303 -0.653064 301.353 314.125)" stroke="#C433FF" stroke-width="0.5"/>
<line y1="-0.25" x2="82.113" y2="-0.25" transform="matrix(-0.757303 -0.653064 0.757303 -0.653064 417.948 314.125)" stroke="#C433FF" stroke-width="0.5"/>
<line y1="-0.25" x2="82.113" y2="-0.25" transform="matrix(-0.757303 -0.653064 0.757303 -0.653064 336.332 314.125)" stroke="#C433FF" stroke-width="0.5"/>
<line y1="-0.25" x2="82.113" y2="-0.25" transform="matrix(-0.757303 -0.653064 0.757303 -0.653064 406.289 314.125)" stroke="#C433FF" stroke-width="0.5"/>
<line y1="-0.25" x2="82.113" y2="-0.25" transform="matrix(-0.757303 -0.653064 0.757303 -0.653064 394.629 314.125)" stroke="#C433FF" stroke-width="0.5"/>
<line y1="-0.25" x2="82.113" y2="-0.25" transform="matrix(-0.757303 -0.653064 0.757303 -0.653064 313.012 314.125)" stroke="#C433FF" stroke-width="0.5"/>
<line y1="-0.25" x2="82.113" y2="-0.25" transform="matrix(-0.757303 -0.653064 0.757303 -0.653064 382.971 314.125)" stroke="#C433FF" stroke-width="0.5"/>
<line y1="-0.25" x2="82.113" y2="-0.25" transform="matrix(-0.757303 -0.653064 0.757303 -0.653064 464.587 314.125)" stroke="#C433FF" stroke-width="0.5"/>
<line y1="-0.25" x2="82.113" y2="-0.25" transform="matrix(-0.757303 -0.653064 0.757303 -0.653064 288.916 314.125)" stroke="#C433FF" stroke-width="0.5"/>
<line y1="-0.25" x2="82.113" y2="-0.25" transform="matrix(-0.757303 -0.653064 0.757303 -0.653064 277.257 314.125)" stroke="#C433FF" stroke-width="0.5"/>
<line y1="-0.25" x2="82.113" y2="-0.25" transform="matrix(-0.757303 -0.653064 0.757303 -0.653064 265.598 314.125)" stroke="#C433FF" stroke-width="0.5"/>
<line y1="-0.25" x2="82.113" y2="-0.25" transform="matrix(-0.757303 -0.653064 0.757303 -0.653064 253.938 314.125)" stroke="#C433FF" stroke-width="0.5"/>
<line y1="-0.25" x2="82.113" y2="-0.25" transform="matrix(-0.757303 -0.653064 0.757303 -0.653064 242.279 314.125)" stroke="#C433FF" stroke-width="0.5"/>
<line y1="-0.25" x2="82.113" y2="-0.25" transform="matrix(-0.757303 -0.653064 0.757303 -0.653064 230.617 314.125)" stroke="#C433FF" stroke-width="0.5"/>
<line y1="-0.25" x2="82.113" y2="-0.25" transform="matrix(-0.757303 -0.653064 0.757303 -0.653064 218.959 314.125)" stroke="#C433FF" stroke-width="0.5"/>
<line y1="-0.25" x2="82.113" y2="-0.25" transform="matrix(-0.757303 -0.653064 0.757303 -0.653064 207.299 314.125)" stroke="#C433FF" stroke-width="0.5"/>
<line y1="-0.25" x2="82.113" y2="-0.25" transform="matrix(-0.757303 -0.653064 0.757303 -0.653064 195.64 314.125)" stroke="#C433FF" stroke-width="0.5"/>
<line y1="-0.25" x2="82.113" y2="-0.25" transform="matrix(-0.757303 -0.653064 0.757303 -0.653064 183.981 314.125)" stroke="#C433FF" stroke-width="0.5"/>
<line y1="-0.25" x2="82.113" y2="-0.25" transform="matrix(-0.757303 -0.653064 0.757303 -0.653064 172.32 314.125)" stroke="#C433FF" stroke-width="0.5"/>
<line y1="-0.25" x2="82.113" y2="-0.25" transform="matrix(-0.757303 -0.653064 0.757303 -0.653064 160.661 314.125)" stroke="#C433FF" stroke-width="0.5"/>
<line y1="-0.25" x2="82.113" y2="-0.25" transform="matrix(-0.757303 -0.653064 0.757303 -0.653064 149.003 314.125)" stroke="#C433FF" stroke-width="0.5"/>
<line y1="-0.25" x2="82.113" y2="-0.25" transform="matrix(-0.757303 -0.653064 0.757303 -0.653064 137.342 314.125)" stroke="#C433FF" stroke-width="0.5"/>
<line y1="-0.25" x2="82.113" y2="-0.25" transform="matrix(-0.757303 -0.653064 0.757303 -0.653064 125.684 314.125)" stroke="#C433FF" stroke-width="0.5"/>
<line y1="-0.25" x2="82.113" y2="-0.25" transform="matrix(-0.757303 -0.653064 0.757303 -0.653064 114.022 314.125)" stroke="#C433FF" stroke-width="0.5"/>
<line y1="-0.25" x2="82.113" y2="-0.25" transform="matrix(-0.757303 -0.653064 0.757303 -0.653064 102.363 314.125)" stroke="#C433FF" stroke-width="0.5"/>
</g>
<rect x="378" y="284.059" width="16.3482" height="43" rx="6.88" transform="rotate(90 378 284.059)" fill="#9100CC"/>
<path d="M349.794 290.538C349.794 290.93 349.683 291.251 349.462 291.5C349.244 291.749 348.933 291.916 348.53 292V292.033C349.023 292.095 349.388 292.251 349.626 292.503C349.864 292.755 349.983 293.086 349.983 293.494C349.983 294.08 349.78 294.53 349.374 294.847C348.968 295.16 348.391 295.317 347.644 295.317C347.319 295.317 347.021 295.292 346.749 295.241C346.481 295.194 346.219 295.108 345.964 294.985V294.322C346.23 294.453 346.513 294.554 346.812 294.624C347.115 294.691 347.4 294.725 347.669 294.725C348.73 294.725 349.261 294.309 349.261 293.478C349.261 292.733 348.675 292.361 347.505 292.361H346.901V291.76H347.514C347.992 291.76 348.372 291.655 348.652 291.445C348.932 291.232 349.072 290.939 349.072 290.563C349.072 290.264 348.968 290.029 348.761 289.858C348.556 289.687 348.278 289.602 347.925 289.602C347.656 289.602 347.403 289.638 347.165 289.711C346.927 289.784 346.656 289.918 346.35 290.114L345.998 289.644C346.25 289.445 346.539 289.29 346.867 289.178C347.197 289.063 347.544 289.005 347.908 289.005C348.505 289.005 348.968 289.143 349.298 289.417C349.629 289.689 349.794 290.062 349.794 290.538ZM354.946 295.233H350.911V294.632L352.528 293.007C353.02 292.509 353.345 292.153 353.502 291.941C353.658 291.728 353.776 291.521 353.854 291.319C353.933 291.118 353.972 290.901 353.972 290.668C353.972 290.341 353.873 290.082 353.674 289.892C353.475 289.698 353.199 289.602 352.847 289.602C352.592 289.602 352.35 289.644 352.12 289.728C351.893 289.812 351.64 289.964 351.36 290.185L350.991 289.711C351.556 289.241 352.172 289.005 352.838 289.005C353.415 289.005 353.867 289.154 354.195 289.451C354.522 289.745 354.686 290.141 354.686 290.639C354.686 291.028 354.577 291.413 354.358 291.794C354.14 292.174 353.731 292.656 353.132 293.238L351.788 294.553V294.586H354.946V295.233ZM360.527 295.317C360.227 295.317 359.953 295.262 359.704 295.153C359.458 295.041 359.25 294.87 359.082 294.641H359.032C359.066 294.91 359.082 295.164 359.082 295.405V297.299H358.385V290.631H358.952L359.049 291.26H359.082C359.262 291.008 359.47 290.827 359.708 290.715C359.946 290.603 360.219 290.547 360.527 290.547C361.137 290.547 361.608 290.755 361.938 291.172C362.271 291.589 362.438 292.174 362.438 292.928C362.438 293.683 362.268 294.271 361.93 294.691C361.594 295.108 361.126 295.317 360.527 295.317ZM360.426 291.139C359.956 291.139 359.616 291.269 359.406 291.529C359.196 291.79 359.088 292.204 359.082 292.772V292.928C359.082 293.574 359.19 294.038 359.406 294.317C359.621 294.595 359.967 294.733 360.443 294.733C360.841 294.733 361.151 294.572 361.375 294.25C361.602 293.928 361.715 293.485 361.715 292.919C361.715 292.345 361.602 291.906 361.375 291.601C361.151 291.293 360.835 291.139 360.426 291.139ZM364.768 292.877L363.168 290.631H363.962L365.176 292.394L366.385 290.631H367.17L365.57 292.877L367.254 295.233H366.465L365.176 293.368L363.874 295.233H363.084L364.768 292.877Z" fill="#F7E5FF"/>
<line x1="648.5" y1="283.5" x2="637.5" y2="283.5" stroke="#C433FF" stroke-linecap="round"/>
<line x1="642.5" y1="300.5" x2="642.5" y2="283.5" stroke="#C433FF" stroke-linecap="round"/>
<line x1="648.5" y1="300.375" x2="637.5" y2="300.375" stroke="#C433FF" stroke-linecap="round"/>
<line x1="93.5" y1="283.5" x2="82.5" y2="283.5" stroke="#C433FF" stroke-linecap="round"/>
<line x1="87.5" y1="300.5" x2="87.5" y2="283.5" stroke="#C433FF" stroke-linecap="round"/>
<line x1="93.5" y1="300.375" x2="82.5" y2="300.375" stroke="#C433FF" stroke-linecap="round"/>
<defs>
<clipPath id="clip0_1109_3637">
<rect x="48" y="48.9507" width="632" height="302" rx="8" fill="white"/>
</clipPath>
<clipPath id="clip1_1109_3637">
<rect width="41.5321" height="22.4966" fill="white" transform="translate(94.6787 62.7949)"/>
</clipPath>
</defs>
</svg>
