<svg width="728" height="286" viewBox="0 0 728 286" fill="none" xmlns="http://www.w3.org/2000/svg">
<g clip-path="url(#clip0_1350_4798)">
<rect y="0.770508" width="728" height="285" rx="8" fill="#F3F6F9"/>
<g clip-path="url(#clip1_1350_4798)">
<rect x="86" y="-12.6895" width="667.972" height="301.222" fill="white"/>
<rect width="667.972" height="89.186" transform="translate(86 -44.8425)" fill="#F3F6F9"/>
<rect x="149.415" y="-2.16089" width="363.057" height="12.683" rx="6.34151" fill="#D1D8E0"/>
<rect x="149.415" y="14.75" width="302.279" height="12.683" rx="6.34151" fill="#D1D8E0"/>
<path d="M175.226 64.5029C163.353 64.5029 153.717 74.1389 153.717 86.0118C153.717 97.8847 163.353 107.521 175.226 107.521C187.099 107.521 196.735 97.8847 196.735 86.0118C196.735 74.1389 187.099 64.5029 175.226 64.5029ZM175.226 88.1627C174.043 88.1627 173.075 87.1948 173.075 86.0118V77.4083C173.075 76.2253 174.043 75.2574 175.226 75.2574C176.409 75.2574 177.377 76.2253 177.377 77.4083V86.0118C177.377 87.1948 176.409 88.1627 175.226 88.1627ZM177.377 96.7662H173.075V92.4645H177.377V96.7662Z" fill="#CC3333"/>
<path d="M158.443 145.756C156.892 145.756 155.535 145.415 154.371 144.732C153.223 144.034 152.331 143.057 151.695 141.8C151.075 140.528 150.765 139.039 150.765 137.333C150.765 136.045 150.943 134.89 151.3 133.866C151.657 132.827 152.168 131.942 152.835 131.213C153.502 130.469 154.309 129.903 155.255 129.515C156.202 129.127 157.264 128.933 158.443 128.933C160.01 128.933 161.367 129.274 162.515 129.957C163.663 130.639 164.547 131.609 165.167 132.865C165.803 134.122 166.121 135.603 166.121 137.31C166.121 138.597 165.943 139.76 165.586 140.8C165.23 141.839 164.71 142.731 164.027 143.476C163.36 144.22 162.554 144.786 161.607 145.174C160.661 145.562 159.606 145.756 158.443 145.756ZM158.443 143.662C159.529 143.662 160.452 143.413 161.212 142.917C161.987 142.421 162.577 141.699 162.98 140.753C163.399 139.807 163.608 138.667 163.608 137.333C163.608 135.332 163.159 133.781 162.259 132.679C161.359 131.578 160.087 131.027 158.443 131.027C157.357 131.027 156.426 131.275 155.651 131.772C154.891 132.253 154.301 132.966 153.882 133.912C153.479 134.859 153.278 135.999 153.278 137.333C153.278 139.318 153.727 140.87 154.627 141.986C155.542 143.103 156.814 143.662 158.443 143.662ZM174.111 145.756C172.948 145.756 171.94 145.515 171.087 145.034C170.249 144.538 169.597 143.848 169.132 142.964C168.667 142.064 168.434 141.009 168.434 139.799C168.434 138.9 168.566 138.093 168.83 137.379C169.093 136.65 169.466 136.038 169.946 135.541C170.443 135.045 171.04 134.665 171.738 134.401C172.452 134.122 173.243 133.982 174.111 133.982C174.654 133.982 175.221 134.068 175.81 134.238C176.415 134.393 176.973 134.657 177.485 135.029C177.687 135.153 177.811 135.308 177.858 135.495C177.92 135.665 177.927 135.844 177.881 136.03C177.85 136.216 177.765 136.379 177.625 136.518C177.501 136.643 177.346 136.72 177.16 136.751C176.973 136.767 176.772 136.712 176.555 136.588C176.182 136.325 175.802 136.138 175.414 136.03C175.027 135.906 174.654 135.844 174.298 135.844C173.739 135.844 173.243 135.937 172.808 136.123C172.39 136.293 172.033 136.549 171.738 136.891C171.443 137.216 171.218 137.628 171.063 138.124C170.924 138.62 170.854 139.186 170.854 139.822C170.854 141.094 171.149 142.095 171.738 142.824C172.343 143.538 173.196 143.894 174.298 143.894C174.654 143.894 175.027 143.84 175.414 143.731C175.802 143.623 176.182 143.437 176.555 143.173C176.772 143.049 176.973 143.002 177.16 143.033C177.346 143.064 177.493 143.15 177.602 143.289C177.726 143.413 177.803 143.569 177.834 143.755C177.881 143.925 177.873 144.104 177.811 144.29C177.749 144.476 177.617 144.631 177.415 144.755C176.919 145.112 176.376 145.368 175.787 145.523C175.213 145.678 174.654 145.756 174.111 145.756ZM184.019 145.756C183.104 145.756 182.336 145.585 181.715 145.244C181.11 144.903 180.653 144.399 180.343 143.731C180.048 143.049 179.9 142.196 179.9 141.172V135.215C179.9 134.812 180.001 134.517 180.203 134.331C180.405 134.13 180.692 134.029 181.064 134.029C181.436 134.029 181.723 134.13 181.925 134.331C182.142 134.517 182.251 134.812 182.251 135.215V141.195C182.251 142.11 182.437 142.785 182.809 143.22C183.181 143.654 183.771 143.871 184.577 143.871C185.461 143.871 186.175 143.576 186.718 142.987C187.276 142.382 187.556 141.591 187.556 140.614V135.215C187.556 134.812 187.656 134.517 187.858 134.331C188.06 134.13 188.354 134.029 188.742 134.029C189.115 134.029 189.402 134.13 189.603 134.331C189.805 134.517 189.906 134.812 189.906 135.215V144.523C189.906 145.314 189.526 145.709 188.766 145.709C188.409 145.709 188.13 145.608 187.928 145.407C187.726 145.19 187.625 144.895 187.625 144.523V142.545L187.928 143.057C187.618 143.925 187.121 144.592 186.439 145.058C185.756 145.523 184.95 145.756 184.019 145.756ZM194.404 145.709C194.016 145.709 193.722 145.608 193.52 145.407C193.318 145.19 193.218 144.895 193.218 144.523V135.215C193.218 134.828 193.318 134.533 193.52 134.331C193.722 134.13 194.001 134.029 194.358 134.029C194.73 134.029 195.009 134.13 195.195 134.331C195.397 134.533 195.498 134.828 195.498 135.215V136.914H195.265C195.513 135.983 195.971 135.277 196.638 134.797C197.305 134.316 198.158 134.036 199.197 133.959C199.477 133.943 199.694 134.013 199.849 134.168C200.02 134.323 200.113 134.564 200.128 134.89C200.159 135.215 200.089 135.479 199.919 135.681C199.748 135.867 199.484 135.975 199.128 136.007L198.686 136.053C197.677 136.146 196.909 136.464 196.382 137.007C195.855 137.55 195.591 138.295 195.591 139.241V144.523C195.591 144.895 195.49 145.19 195.288 145.407C195.102 145.608 194.808 145.709 194.404 145.709ZM203.084 145.709C202.696 145.709 202.402 145.608 202.2 145.407C201.998 145.19 201.898 144.895 201.898 144.523V135.215C201.898 134.828 201.998 134.533 202.2 134.331C202.402 134.13 202.681 134.029 203.038 134.029C203.41 134.029 203.689 134.13 203.875 134.331C204.077 134.533 204.178 134.828 204.178 135.215V136.914H203.945C204.193 135.983 204.651 135.277 205.318 134.797C205.985 134.316 206.838 134.036 207.877 133.959C208.157 133.943 208.374 134.013 208.529 134.168C208.7 134.323 208.793 134.564 208.808 134.89C208.839 135.215 208.769 135.479 208.599 135.681C208.428 135.867 208.164 135.975 207.808 136.007L207.366 136.053C206.357 136.146 205.589 136.464 205.062 137.007C204.535 137.55 204.271 138.295 204.271 139.241V144.523C204.271 144.895 204.17 145.19 203.968 145.407C203.782 145.608 203.488 145.709 203.084 145.709ZM211.741 145.686C211.369 145.686 211.082 145.577 210.88 145.36C210.678 145.128 210.578 144.81 210.578 144.406V135.332C210.578 134.928 210.678 134.618 210.88 134.401C211.082 134.184 211.369 134.075 211.741 134.075C212.113 134.075 212.4 134.184 212.602 134.401C212.819 134.618 212.928 134.928 212.928 135.332V144.406C212.928 144.81 212.827 145.128 212.625 145.36C212.424 145.577 212.129 145.686 211.741 145.686ZM211.741 131.655C211.276 131.655 210.911 131.539 210.647 131.306C210.399 131.074 210.275 130.748 210.275 130.329C210.275 129.895 210.399 129.569 210.647 129.352C210.911 129.119 211.276 129.003 211.741 129.003C212.206 129.003 212.563 129.119 212.811 129.352C213.075 129.569 213.207 129.895 213.207 130.329C213.207 130.748 213.075 131.074 212.811 131.306C212.563 131.539 212.206 131.655 211.741 131.655ZM221.168 145.756C220.02 145.756 219.028 145.515 218.19 145.034C217.368 144.554 216.724 143.871 216.259 142.987C215.793 142.103 215.561 141.063 215.561 139.869C215.561 138.954 215.693 138.139 215.956 137.426C216.22 136.712 216.592 136.1 217.073 135.588C217.57 135.06 218.159 134.665 218.842 134.401C219.54 134.122 220.315 133.982 221.168 133.982C222.301 133.982 223.278 134.223 224.1 134.704C224.938 135.184 225.589 135.867 226.055 136.751C226.52 137.62 226.753 138.659 226.753 139.869C226.753 140.769 226.621 141.583 226.357 142.312C226.093 143.041 225.713 143.662 225.217 144.174C224.736 144.685 224.147 145.081 223.449 145.36C222.766 145.624 222.006 145.756 221.168 145.756ZM221.168 143.941C221.804 143.941 222.363 143.786 222.844 143.476C223.325 143.165 223.697 142.708 223.961 142.103C224.24 141.498 224.379 140.753 224.379 139.869C224.379 138.535 224.085 137.527 223.495 136.844C222.906 136.162 222.13 135.82 221.168 135.82C220.517 135.82 219.951 135.975 219.47 136.286C218.989 136.58 218.609 137.03 218.33 137.635C218.066 138.24 217.934 138.985 217.934 139.869C217.934 141.188 218.229 142.196 218.818 142.894C219.408 143.592 220.191 143.941 221.168 143.941ZM222.076 132.563C221.952 132.749 221.797 132.858 221.61 132.889C221.44 132.92 221.269 132.889 221.099 132.796C220.928 132.702 220.804 132.571 220.726 132.4C220.664 132.229 220.68 132.043 220.773 131.842L222.658 128.188C222.782 127.94 222.937 127.777 223.123 127.7C223.325 127.622 223.526 127.615 223.728 127.677C223.945 127.723 224.123 127.816 224.263 127.956C224.418 128.095 224.511 128.274 224.542 128.491C224.573 128.693 224.519 128.894 224.379 129.096L222.076 132.563ZM239.576 145.756C238.66 145.756 237.893 145.585 237.272 145.244C236.667 144.903 236.21 144.399 235.899 143.731C235.605 143.049 235.457 142.196 235.457 141.172V135.215C235.457 134.812 235.558 134.517 235.76 134.331C235.961 134.13 236.248 134.029 236.621 134.029C236.993 134.029 237.28 134.13 237.482 134.331C237.699 134.517 237.807 134.812 237.807 135.215V141.195C237.807 142.11 237.993 142.785 238.366 143.22C238.738 143.654 239.327 143.871 240.134 143.871C241.018 143.871 241.732 143.576 242.275 142.987C242.833 142.382 243.112 141.591 243.112 140.614V135.215C243.112 134.812 243.213 134.517 243.415 134.331C243.617 134.13 243.911 134.029 244.299 134.029C244.671 134.029 244.958 134.13 245.16 134.331C245.362 134.517 245.462 134.812 245.462 135.215V144.523C245.462 145.314 245.082 145.709 244.322 145.709C243.966 145.709 243.686 145.608 243.485 145.407C243.283 145.19 243.182 144.895 243.182 144.523V142.545L243.485 143.057C243.174 143.925 242.678 144.592 241.996 145.058C241.313 145.523 240.506 145.756 239.576 145.756ZM249.938 145.709C249.565 145.709 249.278 145.608 249.077 145.407C248.875 145.19 248.774 144.895 248.774 144.523V135.215C248.774 134.828 248.875 134.533 249.077 134.331C249.278 134.13 249.558 134.029 249.914 134.029C250.287 134.029 250.566 134.13 250.752 134.331C250.954 134.533 251.055 134.828 251.055 135.215V137.03L250.799 136.611C251.14 135.743 251.675 135.091 252.404 134.657C253.133 134.207 253.971 133.982 254.917 133.982C255.817 133.982 256.561 134.153 257.151 134.494C257.756 134.82 258.206 135.324 258.5 136.007C258.795 136.674 258.942 137.519 258.942 138.543V144.523C258.942 144.895 258.842 145.19 258.64 145.407C258.438 145.608 258.151 145.709 257.779 145.709C257.391 145.709 257.097 145.608 256.895 145.407C256.693 145.19 256.592 144.895 256.592 144.523V138.682C256.592 137.705 256.398 136.992 256.011 136.542C255.638 136.092 255.049 135.867 254.242 135.867C253.296 135.867 252.536 136.162 251.962 136.751C251.404 137.341 251.124 138.132 251.124 139.124V144.523C251.124 145.314 250.729 145.709 249.938 145.709ZM273.644 145.756C272.403 145.756 271.333 145.523 270.433 145.058C269.549 144.577 268.859 143.902 268.362 143.033C267.881 142.149 267.641 141.102 267.641 139.892C267.641 138.713 267.881 137.682 268.362 136.798C268.843 135.913 269.502 135.223 270.34 134.727C271.178 134.23 272.132 133.982 273.202 133.982C273.993 133.982 274.699 134.114 275.319 134.378C275.94 134.626 276.467 134.998 276.902 135.495C277.352 135.975 277.685 136.565 277.902 137.263C278.135 137.961 278.251 138.744 278.251 139.613C278.251 139.877 278.174 140.078 278.019 140.218C277.863 140.342 277.631 140.404 277.321 140.404H269.502V138.962H276.669L276.273 139.287C276.273 138.512 276.157 137.852 275.924 137.31C275.707 136.767 275.374 136.356 274.924 136.076C274.49 135.782 273.947 135.634 273.295 135.634C272.566 135.634 271.946 135.805 271.434 136.146C270.937 136.487 270.557 136.961 270.294 137.565C270.03 138.17 269.898 138.876 269.898 139.683V139.822C269.898 141.188 270.216 142.219 270.852 142.917C271.504 143.6 272.442 143.941 273.667 143.941C274.133 143.941 274.621 143.879 275.133 143.755C275.661 143.631 276.157 143.421 276.622 143.127C276.886 142.971 277.119 142.902 277.321 142.917C277.538 142.933 277.708 143.002 277.832 143.127C277.972 143.251 278.057 143.406 278.088 143.592C278.119 143.778 278.088 143.972 277.995 144.174C277.902 144.36 277.739 144.53 277.507 144.685C276.979 145.042 276.367 145.314 275.668 145.5C274.97 145.67 274.296 145.756 273.644 145.756ZM282 145.709C281.612 145.709 281.317 145.608 281.116 145.407C280.914 145.19 280.813 144.895 280.813 144.523V135.215C280.813 134.828 280.914 134.533 281.116 134.331C281.317 134.13 281.597 134.029 281.953 134.029C282.326 134.029 282.605 134.13 282.791 134.331C282.993 134.533 283.093 134.828 283.093 135.215V136.914H282.861C283.109 135.983 283.567 135.277 284.234 134.797C284.901 134.316 285.754 134.036 286.793 133.959C287.072 133.943 287.289 134.013 287.445 134.168C287.615 134.323 287.708 134.564 287.724 134.89C287.755 135.215 287.685 135.479 287.514 135.681C287.344 135.867 287.08 135.975 286.723 136.007L286.281 136.053C285.273 136.146 284.505 136.464 283.978 137.007C283.45 137.55 283.187 138.295 283.187 139.241V144.523C283.187 144.895 283.086 145.19 282.884 145.407C282.698 145.608 282.403 145.709 282 145.709ZM290.68 145.709C290.292 145.709 289.997 145.608 289.796 145.407C289.594 145.19 289.493 144.895 289.493 144.523V135.215C289.493 134.828 289.594 134.533 289.796 134.331C289.997 134.13 290.277 134.029 290.633 134.029C291.006 134.029 291.285 134.13 291.471 134.331C291.673 134.533 291.774 134.828 291.774 135.215V136.914H291.541C291.789 135.983 292.247 135.277 292.914 134.797C293.581 134.316 294.434 134.036 295.473 133.959C295.752 133.943 295.97 134.013 296.125 134.168C296.295 134.323 296.388 134.564 296.404 134.89C296.435 135.215 296.365 135.479 296.194 135.681C296.024 135.867 295.76 135.975 295.403 136.007L294.961 136.053C293.953 136.146 293.185 136.464 292.658 137.007C292.13 137.55 291.867 138.295 291.867 139.241V144.523C291.867 144.895 291.766 145.19 291.564 145.407C291.378 145.608 291.083 145.709 290.68 145.709ZM302.947 145.756C301.799 145.756 300.806 145.515 299.969 145.034C299.147 144.554 298.503 143.871 298.038 142.987C297.572 142.103 297.339 141.063 297.339 139.869C297.339 138.954 297.471 138.139 297.735 137.426C297.999 136.712 298.371 136.1 298.852 135.588C299.348 135.06 299.938 134.665 300.62 134.401C301.318 134.122 302.094 133.982 302.947 133.982C304.079 133.982 305.057 134.223 305.879 134.704C306.716 135.184 307.368 135.867 307.833 136.751C308.299 137.62 308.531 138.659 308.531 139.869C308.531 140.769 308.4 141.583 308.136 142.312C307.872 143.041 307.492 143.662 306.996 144.174C306.515 144.685 305.925 145.081 305.227 145.36C304.545 145.624 303.785 145.756 302.947 145.756ZM302.947 143.941C303.583 143.941 304.142 143.786 304.622 143.476C305.103 143.165 305.476 142.708 305.739 142.103C306.018 141.498 306.158 140.753 306.158 139.869C306.158 138.535 305.863 137.527 305.274 136.844C304.684 136.162 303.909 135.82 302.947 135.82C302.296 135.82 301.729 135.975 301.249 136.286C300.768 136.58 300.388 137.03 300.108 137.635C299.845 138.24 299.713 138.985 299.713 139.869C299.713 141.188 300.008 142.196 300.597 142.894C301.186 143.592 301.97 143.941 302.947 143.941ZM312.357 145.709C311.97 145.709 311.675 145.608 311.473 145.407C311.271 145.19 311.171 144.895 311.171 144.523V135.215C311.171 134.828 311.271 134.533 311.473 134.331C311.675 134.13 311.954 134.029 312.311 134.029C312.683 134.029 312.962 134.13 313.148 134.331C313.35 134.533 313.451 134.828 313.451 135.215V136.914H313.218C313.466 135.983 313.924 135.277 314.591 134.797C315.258 134.316 316.111 134.036 317.151 133.959C317.43 133.943 317.647 134.013 317.802 134.168C317.973 134.323 318.066 134.564 318.081 134.89C318.112 135.215 318.042 135.479 317.872 135.681C317.701 135.867 317.437 135.975 317.081 136.007L316.639 136.053C315.63 136.146 314.863 136.464 314.335 137.007C313.808 137.55 313.544 138.295 313.544 139.241V144.523C313.544 144.895 313.443 145.19 313.242 145.407C313.055 145.608 312.761 145.709 312.357 145.709ZM329.616 145.756C328.825 145.756 328.111 145.601 327.475 145.29C326.854 144.98 326.366 144.561 326.009 144.034C325.652 143.507 325.474 142.909 325.474 142.242C325.474 141.405 325.683 140.745 326.102 140.265C326.536 139.768 327.242 139.419 328.22 139.217C329.212 139 330.546 138.892 332.222 138.892H333.315V140.334H332.245C331.128 140.334 330.244 140.389 329.592 140.497C328.941 140.606 328.475 140.792 328.196 141.056C327.933 141.304 327.801 141.653 327.801 142.103C327.801 142.692 328.002 143.173 328.406 143.545C328.809 143.902 329.367 144.081 330.081 144.081C330.655 144.081 331.159 143.949 331.593 143.685C332.028 143.406 332.369 143.033 332.617 142.568C332.881 142.103 333.013 141.568 333.013 140.963V138.287C333.013 137.403 332.827 136.767 332.454 136.379C332.082 135.991 331.469 135.797 330.616 135.797C330.12 135.797 329.6 135.859 329.057 135.983C328.53 136.107 327.979 136.317 327.405 136.611C327.141 136.736 326.917 136.774 326.73 136.728C326.544 136.681 326.397 136.58 326.288 136.425C326.18 136.255 326.118 136.076 326.102 135.89C326.102 135.689 326.149 135.495 326.242 135.308C326.35 135.122 326.529 134.983 326.777 134.89C327.459 134.564 328.134 134.331 328.801 134.192C329.468 134.052 330.096 133.982 330.686 133.982C331.725 133.982 332.578 134.145 333.245 134.471C333.928 134.797 334.432 135.293 334.758 135.96C335.084 136.627 335.246 137.488 335.246 138.543V144.523C335.246 144.895 335.153 145.19 334.967 145.407C334.781 145.608 334.51 145.709 334.153 145.709C333.812 145.709 333.54 145.608 333.338 145.407C333.137 145.19 333.036 144.895 333.036 144.523V143.01H333.245C333.121 143.584 332.889 144.081 332.547 144.499C332.222 144.903 331.811 145.213 331.314 145.43C330.818 145.647 330.252 145.756 329.616 145.756ZM342.136 145.756C340.926 145.756 340.011 145.407 339.391 144.709C338.786 143.995 338.483 142.971 338.483 141.637V130.166C338.483 129.778 338.584 129.484 338.786 129.282C338.987 129.08 339.274 128.98 339.647 128.98C340.019 128.98 340.306 129.08 340.508 129.282C340.725 129.484 340.833 129.778 340.833 130.166V141.498C340.833 142.273 340.988 142.855 341.299 143.243C341.624 143.615 342.09 143.801 342.695 143.801C342.834 143.801 342.958 143.801 343.067 143.801C343.176 143.786 343.284 143.77 343.393 143.755C343.579 143.739 343.711 143.794 343.788 143.918C343.866 144.026 343.905 144.259 343.905 144.616C343.905 144.941 343.835 145.197 343.695 145.384C343.556 145.554 343.331 145.663 343.021 145.709C342.881 145.725 342.734 145.733 342.578 145.733C342.423 145.748 342.276 145.756 342.136 145.756ZM352.894 149.897C352.522 149.897 352.235 149.797 352.033 149.595C351.831 149.393 351.731 149.099 351.731 148.711V135.215C351.731 134.828 351.831 134.533 352.033 134.331C352.235 134.13 352.514 134.029 352.871 134.029C353.243 134.029 353.53 134.13 353.732 134.331C353.933 134.533 354.034 134.828 354.034 135.215V137.24L353.778 136.751C354.026 135.913 354.515 135.246 355.244 134.75C355.973 134.238 356.834 133.982 357.827 133.982C358.835 133.982 359.711 134.223 360.456 134.704C361.216 135.184 361.798 135.859 362.201 136.728C362.62 137.596 362.829 138.644 362.829 139.869C362.829 141.063 362.62 142.11 362.201 143.01C361.798 143.894 361.224 144.577 360.479 145.058C359.735 145.523 358.851 145.756 357.827 145.756C356.849 145.756 355.996 145.508 355.267 145.011C354.538 144.515 354.05 143.856 353.801 143.033H354.081V148.711C354.081 149.099 353.972 149.393 353.755 149.595C353.553 149.797 353.266 149.897 352.894 149.897ZM357.245 143.941C357.897 143.941 358.463 143.786 358.944 143.476C359.424 143.165 359.797 142.708 360.06 142.103C360.324 141.498 360.456 140.753 360.456 139.869C360.456 138.535 360.161 137.527 359.572 136.844C358.998 136.162 358.222 135.82 357.245 135.82C356.609 135.82 356.043 135.975 355.546 136.286C355.066 136.58 354.693 137.03 354.43 137.635C354.166 138.24 354.034 138.985 354.034 139.869C354.034 141.188 354.329 142.196 354.918 142.894C355.508 143.592 356.283 143.941 357.245 143.941ZM366.664 145.709C366.277 145.709 365.982 145.608 365.78 145.407C365.579 145.19 365.478 144.895 365.478 144.523V135.215C365.478 134.828 365.579 134.533 365.78 134.331C365.982 134.13 366.261 134.029 366.618 134.029C366.99 134.029 367.269 134.13 367.456 134.331C367.657 134.533 367.758 134.828 367.758 135.215V136.914H367.525C367.773 135.983 368.231 135.277 368.898 134.797C369.565 134.316 370.418 134.036 371.458 133.959C371.737 133.943 371.954 134.013 372.109 134.168C372.28 134.323 372.373 134.564 372.388 134.89C372.419 135.215 372.35 135.479 372.179 135.681C372.008 135.867 371.745 135.975 371.388 136.007L370.946 136.053C369.937 136.146 369.17 136.464 368.642 137.007C368.115 137.55 367.851 138.295 367.851 139.241V144.523C367.851 144.895 367.75 145.19 367.549 145.407C367.362 145.608 367.068 145.709 366.664 145.709ZM378.932 145.756C377.784 145.756 376.791 145.515 375.953 145.034C375.131 144.554 374.487 143.871 374.022 142.987C373.557 142.103 373.324 141.063 373.324 139.869C373.324 138.954 373.456 138.139 373.719 137.426C373.983 136.712 374.355 136.1 374.836 135.588C375.333 135.06 375.922 134.665 376.605 134.401C377.303 134.122 378.078 133.982 378.932 133.982C380.064 133.982 381.041 134.223 381.863 134.704C382.701 135.184 383.352 135.867 383.818 136.751C384.283 137.62 384.516 138.659 384.516 139.869C384.516 140.769 384.384 141.583 384.12 142.312C383.857 143.041 383.477 143.662 382.98 144.174C382.499 144.685 381.91 145.081 381.212 145.36C380.529 145.624 379.769 145.756 378.932 145.756ZM378.932 143.941C379.568 143.941 380.126 143.786 380.607 143.476C381.088 143.165 381.46 142.708 381.724 142.103C382.003 141.498 382.142 140.753 382.142 139.869C382.142 138.535 381.848 137.527 381.258 136.844C380.669 136.162 379.893 135.82 378.932 135.82C378.28 135.82 377.714 135.975 377.233 136.286C376.752 136.58 376.372 137.03 376.093 137.635C375.829 138.24 375.697 138.985 375.697 139.869C375.697 141.188 375.992 142.196 376.581 142.894C377.171 143.592 377.954 143.941 378.932 143.941ZM392.158 145.756C390.994 145.756 389.986 145.515 389.133 145.034C388.295 144.538 387.644 143.848 387.178 142.964C386.713 142.064 386.48 141.009 386.48 139.799C386.48 138.9 386.612 138.093 386.876 137.379C387.14 136.65 387.512 136.038 387.993 135.541C388.489 135.045 389.086 134.665 389.784 134.401C390.498 134.122 391.289 133.982 392.158 133.982C392.701 133.982 393.267 134.068 393.856 134.238C394.461 134.393 395.02 134.657 395.532 135.029C395.733 135.153 395.857 135.308 395.904 135.495C395.966 135.665 395.974 135.844 395.927 136.03C395.896 136.216 395.811 136.379 395.671 136.518C395.547 136.643 395.392 136.72 395.206 136.751C395.02 136.767 394.818 136.712 394.601 136.588C394.229 136.325 393.849 136.138 393.461 136.03C393.073 135.906 392.701 135.844 392.344 135.844C391.785 135.844 391.289 135.937 390.855 136.123C390.436 136.293 390.079 136.549 389.784 136.891C389.49 137.216 389.265 137.628 389.11 138.124C388.97 138.62 388.9 139.186 388.9 139.822C388.9 141.094 389.195 142.095 389.784 142.824C390.389 143.538 391.243 143.894 392.344 143.894C392.701 143.894 393.073 143.84 393.461 143.731C393.849 143.623 394.229 143.437 394.601 143.173C394.818 143.049 395.02 143.002 395.206 143.033C395.392 143.064 395.539 143.15 395.648 143.289C395.772 143.413 395.85 143.569 395.881 143.755C395.927 143.925 395.919 144.104 395.857 144.29C395.795 144.476 395.663 144.631 395.462 144.755C394.965 145.112 394.422 145.368 393.833 145.523C393.259 145.678 392.701 145.756 392.158 145.756ZM403.118 145.756C401.877 145.756 400.806 145.523 399.907 145.058C399.022 144.577 398.332 143.902 397.836 143.033C397.355 142.149 397.115 141.102 397.115 139.892C397.115 138.713 397.355 137.682 397.836 136.798C398.317 135.913 398.976 135.223 399.814 134.727C400.651 134.23 401.605 133.982 402.676 133.982C403.467 133.982 404.172 134.114 404.793 134.378C405.413 134.626 405.941 134.998 406.375 135.495C406.825 135.975 407.159 136.565 407.376 137.263C407.608 137.961 407.725 138.744 407.725 139.613C407.725 139.877 407.647 140.078 407.492 140.218C407.337 140.342 407.104 140.404 406.794 140.404H398.976V138.962H406.142L405.747 139.287C405.747 138.512 405.631 137.852 405.398 137.31C405.181 136.767 404.847 136.356 404.397 136.076C403.963 135.782 403.42 135.634 402.769 135.634C402.04 135.634 401.419 135.805 400.907 136.146C400.411 136.487 400.031 136.961 399.767 137.565C399.503 138.17 399.372 138.876 399.372 139.683V139.822C399.372 141.188 399.69 142.219 400.326 142.917C400.977 143.6 401.915 143.941 403.141 143.941C403.606 143.941 404.095 143.879 404.607 143.755C405.134 143.631 405.631 143.421 406.096 143.127C406.36 142.971 406.592 142.902 406.794 142.917C407.011 142.933 407.182 143.002 407.306 143.127C407.445 143.251 407.531 143.406 407.562 143.592C407.593 143.778 407.562 143.972 407.469 144.174C407.376 144.36 407.213 144.53 406.98 144.685C406.453 145.042 405.84 145.314 405.142 145.5C404.444 145.67 403.769 145.756 403.118 145.756ZM414.266 145.756C413.583 145.756 412.877 145.678 412.148 145.523C411.435 145.368 410.775 145.104 410.17 144.732C409.969 144.592 409.829 144.437 409.752 144.267C409.674 144.096 409.643 143.925 409.658 143.755C409.69 143.569 409.759 143.413 409.868 143.289C409.992 143.15 410.139 143.064 410.31 143.033C410.496 143.002 410.69 143.041 410.892 143.15C411.497 143.491 412.078 143.731 412.637 143.871C413.195 143.995 413.746 144.057 414.289 144.057C415.111 144.057 415.731 143.91 416.15 143.615C416.569 143.32 416.778 142.925 416.778 142.428C416.778 142.025 416.639 141.715 416.36 141.498C416.08 141.265 415.662 141.087 415.103 140.963L412.893 140.521C411.931 140.319 411.202 139.962 410.706 139.45C410.209 138.938 409.961 138.287 409.961 137.496C409.961 136.782 410.155 136.162 410.543 135.634C410.93 135.107 411.473 134.704 412.171 134.424C412.869 134.13 413.676 133.982 414.591 133.982C415.274 133.982 415.918 134.068 416.523 134.238C417.128 134.409 417.686 134.665 418.198 135.006C418.399 135.115 418.531 135.262 418.593 135.448C418.655 135.619 418.663 135.789 418.617 135.96C418.586 136.131 418.508 136.286 418.384 136.425C418.26 136.549 418.105 136.627 417.919 136.658C417.748 136.674 417.554 136.627 417.337 136.518C416.872 136.224 416.406 136.014 415.941 135.89C415.491 135.766 415.041 135.704 414.591 135.704C413.769 135.704 413.149 135.859 412.73 136.169C412.327 136.464 412.125 136.867 412.125 137.379C412.125 137.767 412.249 138.085 412.497 138.333C412.745 138.582 413.133 138.76 413.661 138.868L415.871 139.311C416.879 139.512 417.639 139.853 418.151 140.334C418.679 140.815 418.942 141.467 418.942 142.289C418.942 143.359 418.516 144.205 417.663 144.825C416.81 145.446 415.677 145.756 414.266 145.756ZM425.187 145.756C424.396 145.756 423.682 145.601 423.046 145.29C422.426 144.98 421.937 144.561 421.58 144.034C421.224 143.507 421.045 142.909 421.045 142.242C421.045 141.405 421.255 140.745 421.673 140.265C422.108 139.768 422.814 139.419 423.791 139.217C424.784 139 426.118 138.892 427.793 138.892H428.887V140.334H427.816C426.699 140.334 425.815 140.389 425.164 140.497C424.512 140.606 424.047 140.792 423.768 141.056C423.504 141.304 423.372 141.653 423.372 142.103C423.372 142.692 423.574 143.173 423.977 143.545C424.38 143.902 424.939 144.081 425.652 144.081C426.226 144.081 426.73 143.949 427.165 143.685C427.599 143.406 427.94 143.033 428.189 142.568C428.452 142.103 428.584 141.568 428.584 140.963V138.287C428.584 137.403 428.398 136.767 428.026 136.379C427.653 135.991 427.041 135.797 426.187 135.797C425.691 135.797 425.171 135.859 424.629 135.983C424.101 136.107 423.55 136.317 422.976 136.611C422.713 136.736 422.488 136.774 422.302 136.728C422.116 136.681 421.968 136.58 421.86 136.425C421.751 136.255 421.689 136.076 421.673 135.89C421.673 135.689 421.72 135.495 421.813 135.308C421.922 135.122 422.1 134.983 422.348 134.89C423.031 134.564 423.706 134.331 424.373 134.192C425.04 134.052 425.668 133.982 426.257 133.982C427.297 133.982 428.15 134.145 428.817 134.471C429.499 134.797 430.003 135.293 430.329 135.96C430.655 136.627 430.818 137.488 430.818 138.543V144.523C430.818 144.895 430.725 145.19 430.539 145.407C430.352 145.608 430.081 145.709 429.724 145.709C429.383 145.709 429.111 145.608 428.91 145.407C428.708 145.19 428.607 144.895 428.607 144.523V143.01H428.817C428.693 143.584 428.46 144.081 428.119 144.499C427.793 144.903 427.382 145.213 426.886 145.43C426.389 145.647 425.823 145.756 425.187 145.756ZM435.241 145.709C434.853 145.709 434.559 145.608 434.357 145.407C434.155 145.19 434.055 144.895 434.055 144.523V135.215C434.055 134.828 434.155 134.533 434.357 134.331C434.559 134.13 434.838 134.029 435.195 134.029C435.567 134.029 435.846 134.13 436.032 134.331C436.234 134.533 436.335 134.828 436.335 135.215V136.914H436.102C436.35 135.983 436.808 135.277 437.475 134.797C438.142 134.316 438.995 134.036 440.034 133.959C440.314 133.943 440.531 134.013 440.686 134.168C440.857 134.323 440.95 134.564 440.965 134.89C440.996 135.215 440.926 135.479 440.756 135.681C440.585 135.867 440.321 135.975 439.965 136.007L439.523 136.053C438.514 136.146 437.746 136.464 437.219 137.007C436.692 137.55 436.428 138.295 436.428 139.241V144.523C436.428 144.895 436.327 145.19 436.125 145.407C435.939 145.608 435.645 145.709 435.241 145.709ZM453.709 145.756C452.779 145.756 451.995 145.593 451.359 145.267C450.723 144.941 450.25 144.461 449.94 143.825C449.63 143.189 449.475 142.413 449.475 141.498V136.007H448.079C447.768 136.007 447.528 135.929 447.357 135.774C447.187 135.603 447.101 135.378 447.101 135.099C447.101 134.804 447.187 134.579 447.357 134.424C447.528 134.269 447.768 134.192 448.079 134.192H449.475V131.795C449.475 131.407 449.576 131.112 449.777 130.911C449.994 130.709 450.289 130.608 450.661 130.608C451.034 130.608 451.321 130.709 451.522 130.911C451.724 131.112 451.825 131.407 451.825 131.795V134.192H454.547C454.857 134.192 455.098 134.269 455.268 134.424C455.439 134.579 455.524 134.804 455.524 135.099C455.524 135.378 455.439 135.603 455.268 135.774C455.098 135.929 454.857 136.007 454.547 136.007H451.825V141.312C451.825 142.134 451.995 142.754 452.337 143.173C452.693 143.592 453.267 143.801 454.058 143.801C454.338 143.801 454.578 143.778 454.78 143.731C454.997 143.669 455.175 143.631 455.315 143.615C455.486 143.615 455.625 143.677 455.734 143.801C455.842 143.91 455.897 144.127 455.897 144.453C455.897 144.685 455.85 144.903 455.757 145.104C455.679 145.306 455.532 145.438 455.315 145.5C455.129 145.562 454.873 145.616 454.547 145.663C454.237 145.725 453.958 145.756 453.709 145.756ZM461.417 145.756C460.501 145.756 459.734 145.585 459.113 145.244C458.508 144.903 458.051 144.399 457.74 143.731C457.446 143.049 457.298 142.196 457.298 141.172V135.215C457.298 134.812 457.399 134.517 457.601 134.331C457.802 134.13 458.089 134.029 458.462 134.029C458.834 134.029 459.121 134.13 459.323 134.331C459.54 134.517 459.648 134.812 459.648 135.215V141.195C459.648 142.11 459.834 142.785 460.207 143.22C460.579 143.654 461.168 143.871 461.975 143.871C462.859 143.871 463.573 143.576 464.116 142.987C464.674 142.382 464.953 141.591 464.953 140.614V135.215C464.953 134.812 465.054 134.517 465.256 134.331C465.457 134.13 465.752 134.029 466.14 134.029C466.512 134.029 466.799 134.13 467.001 134.331C467.203 134.517 467.303 134.812 467.303 135.215V144.523C467.303 145.314 466.923 145.709 466.163 145.709C465.807 145.709 465.527 145.608 465.326 145.407C465.124 145.19 465.023 144.895 465.023 144.523V142.545L465.326 143.057C465.015 143.925 464.519 144.592 463.836 145.058C463.154 145.523 462.347 145.756 461.417 145.756ZM477.914 149.897C477.542 149.897 477.255 149.797 477.053 149.595C476.851 149.393 476.75 149.099 476.75 148.711V135.215C476.75 134.828 476.851 134.533 477.053 134.331C477.255 134.13 477.534 134.029 477.891 134.029C478.263 134.029 478.55 134.13 478.751 134.331C478.953 134.533 479.054 134.828 479.054 135.215V137.24L478.798 136.751C479.046 135.913 479.535 135.246 480.264 134.75C480.993 134.238 481.854 133.982 482.847 133.982C483.855 133.982 484.731 134.223 485.476 134.704C486.236 135.184 486.818 135.859 487.221 136.728C487.64 137.596 487.849 138.644 487.849 139.869C487.849 141.063 487.64 142.11 487.221 143.01C486.818 143.894 486.244 144.577 485.499 145.058C484.755 145.523 483.87 145.756 482.847 145.756C481.869 145.756 481.016 145.508 480.287 145.011C479.558 144.515 479.069 143.856 478.821 143.033H479.1V148.711C479.1 149.099 478.992 149.393 478.775 149.595C478.573 149.797 478.286 149.897 477.914 149.897ZM482.265 143.941C482.916 143.941 483.483 143.786 483.963 143.476C484.444 143.165 484.817 142.708 485.08 142.103C485.344 141.498 485.476 140.753 485.476 139.869C485.476 138.535 485.181 137.527 484.592 136.844C484.018 136.162 483.242 135.82 482.265 135.82C481.629 135.82 481.063 135.975 480.566 136.286C480.085 136.58 479.713 137.03 479.449 137.635C479.186 138.24 479.054 138.985 479.054 139.869C479.054 141.188 479.349 142.196 479.938 142.894C480.528 143.592 481.303 143.941 482.265 143.941ZM494.127 145.756C493.336 145.756 492.623 145.601 491.987 145.29C491.366 144.98 490.878 144.561 490.521 144.034C490.164 143.507 489.986 142.909 489.986 142.242C489.986 141.405 490.195 140.745 490.614 140.265C491.048 139.768 491.754 139.419 492.731 139.217C493.724 139 495.058 138.892 496.733 138.892H497.827V140.334H496.757C495.64 140.334 494.756 140.389 494.104 140.497C493.453 140.606 492.987 140.792 492.708 141.056C492.444 141.304 492.313 141.653 492.313 142.103C492.313 142.692 492.514 143.173 492.917 143.545C493.321 143.902 493.879 144.081 494.593 144.081C495.167 144.081 495.671 143.949 496.105 143.685C496.54 143.406 496.881 143.033 497.129 142.568C497.393 142.103 497.525 141.568 497.525 140.963V138.287C497.525 137.403 497.338 136.767 496.966 136.379C496.594 135.991 495.981 135.797 495.128 135.797C494.632 135.797 494.112 135.859 493.569 135.983C493.042 136.107 492.491 136.317 491.917 136.611C491.653 136.736 491.428 136.774 491.242 136.728C491.056 136.681 490.909 136.58 490.8 136.425C490.692 136.255 490.629 136.076 490.614 135.89C490.614 135.689 490.66 135.495 490.754 135.308C490.862 135.122 491.041 134.983 491.289 134.89C491.971 134.564 492.646 134.331 493.313 134.192C493.98 134.052 494.608 133.982 495.198 133.982C496.237 133.982 497.09 134.145 497.757 134.471C498.44 134.797 498.944 135.293 499.27 135.96C499.595 136.627 499.758 137.488 499.758 138.543V144.523C499.758 144.895 499.665 145.19 499.479 145.407C499.293 145.608 499.021 145.709 498.665 145.709C498.323 145.709 498.052 145.608 497.85 145.407C497.649 145.19 497.548 144.895 497.548 144.523V143.01H497.757C497.633 143.584 497.4 144.081 497.059 144.499C496.733 144.903 496.322 145.213 495.826 145.43C495.33 145.647 494.763 145.756 494.127 145.756ZM508.137 149.944C507.3 149.944 506.485 149.859 505.694 149.688C504.919 149.517 504.213 149.238 503.577 148.85C503.344 148.726 503.189 148.571 503.111 148.385C503.034 148.214 503.011 148.036 503.042 147.85C503.088 147.664 503.173 147.501 503.298 147.361C503.422 147.222 503.569 147.129 503.74 147.082C503.926 147.036 504.12 147.067 504.321 147.175C505.004 147.547 505.648 147.796 506.253 147.92C506.873 148.059 507.447 148.129 507.974 148.129C509.06 148.129 509.875 147.85 510.418 147.291C510.96 146.749 511.232 145.942 511.232 144.872V142.498H511.441C511.209 143.351 510.72 144.026 509.975 144.523C509.231 145.019 508.37 145.267 507.393 145.267C506.369 145.267 505.477 145.034 504.717 144.569C503.957 144.088 503.367 143.429 502.949 142.591C502.53 141.738 502.32 140.745 502.32 139.613C502.32 138.76 502.437 137.992 502.669 137.31C502.917 136.627 503.259 136.038 503.693 135.541C504.143 135.045 504.678 134.665 505.299 134.401C505.935 134.122 506.633 133.982 507.393 133.982C508.385 133.982 509.246 134.23 509.975 134.727C510.72 135.223 511.201 135.898 511.418 136.751L511.185 137.147V135.215C511.185 134.828 511.286 134.533 511.488 134.331C511.705 134.13 511.992 134.029 512.349 134.029C512.721 134.029 513.008 134.13 513.21 134.331C513.411 134.533 513.512 134.828 513.512 135.215V144.592C513.512 146.361 513.055 147.695 512.139 148.594C511.224 149.494 509.89 149.944 508.137 149.944ZM507.951 143.429C508.634 143.429 509.215 143.274 509.696 142.964C510.177 142.653 510.549 142.211 510.813 141.637C511.077 141.063 511.209 140.389 511.209 139.613C511.209 138.45 510.914 137.527 510.324 136.844C509.751 136.162 508.959 135.82 507.951 135.82C507.284 135.82 506.71 135.975 506.229 136.286C505.748 136.596 505.368 137.038 505.089 137.612C504.825 138.17 504.694 138.837 504.694 139.613C504.694 140.792 504.988 141.723 505.578 142.405C506.167 143.088 506.958 143.429 507.951 143.429ZM521.743 145.756C520.595 145.756 519.603 145.515 518.765 145.034C517.943 144.554 517.299 143.871 516.834 142.987C516.368 142.103 516.136 141.063 516.136 139.869C516.136 138.954 516.267 138.139 516.531 137.426C516.795 136.712 517.167 136.1 517.648 135.588C518.144 135.06 518.734 134.665 519.416 134.401C520.114 134.122 520.89 133.982 521.743 133.982C522.876 133.982 523.853 134.223 524.675 134.704C525.513 135.184 526.164 135.867 526.629 136.751C527.095 137.62 527.328 138.659 527.328 139.869C527.328 140.769 527.196 141.583 526.932 142.312C526.668 143.041 526.288 143.662 525.792 144.174C525.311 144.685 524.721 145.081 524.023 145.36C523.341 145.624 522.581 145.756 521.743 145.756ZM521.743 143.941C522.379 143.941 522.938 143.786 523.418 143.476C523.899 143.165 524.272 142.708 524.535 142.103C524.815 141.498 524.954 140.753 524.954 139.869C524.954 138.535 524.659 137.527 524.07 136.844C523.481 136.162 522.705 135.82 521.743 135.82C521.092 135.82 520.525 135.975 520.045 136.286C519.564 136.58 519.184 137.03 518.904 137.635C518.641 138.24 518.509 138.985 518.509 139.869C518.509 141.188 518.804 142.196 519.393 142.894C519.983 143.592 520.766 143.941 521.743 143.941Z" fill="#101E37"/>
<rect x="149.415" y="163.271" width="362.98" height="16.2876" rx="8.14379" fill="#D1D8E0"/>
<rect x="149.415" y="186.011" width="312.954" height="16.2876" rx="8.14379" fill="#D1D8E0"/>
<rect x="149.415" y="208.751" width="362.98" height="16.2876" rx="8.14379" fill="#D1D8E0"/>
<rect x="149.415" y="236.763" width="84.3861" height="27.9827" rx="5.59653" fill="#336ACC"/>
<path d="M162.384 255.355C162.123 255.355 161.922 255.283 161.779 255.141C161.645 254.989 161.578 254.784 161.578 254.524V247.195C161.578 246.926 161.649 246.725 161.792 246.59C161.935 246.448 162.136 246.376 162.396 246.376H165.431C166.405 246.376 167.156 246.611 167.685 247.082C168.214 247.543 168.478 248.194 168.478 249.033C168.478 249.579 168.357 250.049 168.113 250.444C167.878 250.838 167.534 251.14 167.081 251.35C166.627 251.56 166.077 251.665 165.431 251.665L165.544 251.476H165.96C166.304 251.476 166.602 251.56 166.854 251.728C167.114 251.896 167.341 252.16 167.534 252.521L168.478 254.272C168.579 254.448 168.625 254.62 168.617 254.788C168.608 254.956 168.545 255.094 168.428 255.204C168.31 255.304 168.138 255.355 167.912 255.355C167.685 255.355 167.5 255.308 167.358 255.216C167.215 255.115 167.089 254.964 166.98 254.763L165.708 252.421C165.557 252.135 165.376 251.946 165.167 251.854C164.965 251.753 164.705 251.703 164.386 251.703H163.19V254.524C163.19 254.784 163.122 254.989 162.988 255.141C162.854 255.283 162.652 255.355 162.384 255.355ZM163.19 250.507H165.154C165.733 250.507 166.17 250.389 166.464 250.154C166.766 249.911 166.917 249.55 166.917 249.071C166.917 248.601 166.766 248.248 166.464 248.013C166.17 247.77 165.733 247.648 165.154 247.648H163.19V250.507ZM172.934 255.38C172.237 255.38 171.637 255.25 171.133 254.989C170.63 254.729 170.239 254.36 169.962 253.881C169.694 253.403 169.559 252.836 169.559 252.181C169.559 251.543 169.689 250.985 169.95 250.507C170.218 250.028 170.584 249.655 171.045 249.386C171.515 249.109 172.048 248.97 172.644 248.97C173.081 248.97 173.471 249.042 173.816 249.184C174.168 249.327 174.466 249.533 174.71 249.801C174.961 250.07 175.15 250.398 175.276 250.784C175.411 251.161 175.478 251.59 175.478 252.068C175.478 252.219 175.423 252.337 175.314 252.421C175.213 252.496 175.066 252.534 174.873 252.534H170.831V251.627H174.37L174.168 251.816C174.168 251.43 174.109 251.107 173.992 250.847C173.883 250.586 173.719 250.389 173.501 250.255C173.291 250.112 173.026 250.041 172.707 250.041C172.355 250.041 172.053 250.125 171.801 250.293C171.557 250.452 171.368 250.683 171.234 250.985C171.108 251.279 171.045 251.632 171.045 252.043V252.131C171.045 252.819 171.205 253.336 171.524 253.68C171.851 254.016 172.33 254.184 172.959 254.184C173.177 254.184 173.421 254.158 173.69 254.108C173.967 254.049 174.227 253.953 174.47 253.818C174.647 253.718 174.802 253.676 174.936 253.692C175.071 253.701 175.175 253.747 175.251 253.831C175.335 253.915 175.385 254.02 175.402 254.146C175.419 254.263 175.394 254.385 175.327 254.511C175.268 254.637 175.163 254.746 175.012 254.838C174.718 255.023 174.378 255.162 173.992 255.254C173.614 255.338 173.261 255.38 172.934 255.38ZM177.505 255.342C177.253 255.342 177.06 255.266 176.926 255.115C176.791 254.964 176.724 254.754 176.724 254.486V249.864C176.724 249.587 176.791 249.378 176.926 249.235C177.06 249.084 177.253 249.008 177.505 249.008C177.757 249.008 177.95 249.084 178.084 249.235C178.227 249.378 178.298 249.587 178.298 249.864V254.486C178.298 254.754 178.231 254.964 178.097 255.115C177.962 255.266 177.765 255.342 177.505 255.342ZM177.505 247.837C177.211 247.837 176.98 247.766 176.812 247.623C176.653 247.472 176.573 247.266 176.573 247.006C176.573 246.737 176.653 246.532 176.812 246.389C176.98 246.246 177.211 246.175 177.505 246.175C177.807 246.175 178.038 246.246 178.197 246.389C178.357 246.532 178.437 246.737 178.437 247.006C178.437 247.266 178.357 247.472 178.197 247.623C178.038 247.766 177.807 247.837 177.505 247.837ZM180.714 255.355C180.463 255.355 180.27 255.287 180.135 255.153C180.001 255.01 179.934 254.809 179.934 254.549V249.789C179.934 249.529 180.001 249.331 180.135 249.197C180.27 249.063 180.458 248.996 180.702 248.996C180.945 248.996 181.134 249.063 181.269 249.197C181.403 249.331 181.47 249.529 181.47 249.789V250.645L181.331 250.33C181.516 249.885 181.802 249.55 182.188 249.323C182.582 249.088 183.027 248.97 183.523 248.97C184.018 248.97 184.425 249.063 184.744 249.247C185.063 249.432 185.302 249.713 185.462 250.091C185.621 250.46 185.701 250.931 185.701 251.501V254.549C185.701 254.809 185.634 255.01 185.499 255.153C185.365 255.287 185.172 255.355 184.92 255.355C184.668 255.355 184.471 255.287 184.328 255.153C184.194 255.01 184.127 254.809 184.127 254.549V251.577C184.127 251.098 184.035 250.75 183.85 250.532C183.674 250.314 183.397 250.204 183.019 250.204C182.557 250.204 182.188 250.351 181.911 250.645C181.642 250.931 181.508 251.313 181.508 251.791V254.549C181.508 255.086 181.243 255.355 180.714 255.355ZM190.12 255.38C189.575 255.38 189.117 255.287 188.748 255.103C188.387 254.918 188.118 254.649 187.942 254.297C187.766 253.936 187.677 253.491 187.677 252.962V250.28H187.023C186.821 250.28 186.666 250.23 186.557 250.129C186.448 250.02 186.393 249.873 186.393 249.688C186.393 249.495 186.448 249.348 186.557 249.247C186.666 249.147 186.821 249.096 187.023 249.096H187.677V247.95C187.677 247.69 187.745 247.493 187.879 247.359C188.022 247.224 188.219 247.157 188.471 247.157C188.723 247.157 188.916 247.224 189.05 247.359C189.184 247.493 189.251 247.69 189.251 247.95V249.096H190.586C190.788 249.096 190.943 249.147 191.052 249.247C191.161 249.348 191.216 249.495 191.216 249.688C191.216 249.873 191.161 250.02 191.052 250.129C190.943 250.23 190.788 250.28 190.586 250.28H189.251V252.874C189.251 253.277 189.34 253.579 189.516 253.781C189.692 253.982 189.978 254.083 190.372 254.083C190.515 254.083 190.641 254.07 190.75 254.045C190.859 254.02 190.956 254.003 191.04 253.995C191.14 253.986 191.224 254.02 191.291 254.095C191.359 254.163 191.392 254.305 191.392 254.524C191.392 254.691 191.363 254.843 191.304 254.977C191.254 255.103 191.157 255.191 191.014 255.241C190.905 255.275 190.763 255.304 190.586 255.329C190.41 255.363 190.255 255.38 190.12 255.38ZM195.106 255.38C194.409 255.38 193.809 255.25 193.305 254.989C192.801 254.729 192.411 254.36 192.134 253.881C191.865 253.403 191.731 252.836 191.731 252.181C191.731 251.543 191.861 250.985 192.121 250.507C192.39 250.028 192.755 249.655 193.217 249.386C193.687 249.109 194.22 248.97 194.816 248.97C195.253 248.97 195.643 249.042 195.987 249.184C196.34 249.327 196.638 249.533 196.881 249.801C197.133 250.07 197.322 250.398 197.448 250.784C197.582 251.161 197.649 251.59 197.649 252.068C197.649 252.219 197.595 252.337 197.486 252.421C197.385 252.496 197.238 252.534 197.045 252.534H193.003V251.627H196.541L196.34 251.816C196.34 251.43 196.281 251.107 196.163 250.847C196.054 250.586 195.891 250.389 195.672 250.255C195.462 250.112 195.198 250.041 194.879 250.041C194.526 250.041 194.224 250.125 193.972 250.293C193.729 250.452 193.54 250.683 193.406 250.985C193.28 251.279 193.217 251.632 193.217 252.043V252.131C193.217 252.819 193.376 253.336 193.695 253.68C194.023 254.016 194.501 254.184 195.131 254.184C195.349 254.184 195.593 254.158 195.861 254.108C196.138 254.049 196.398 253.953 196.642 253.818C196.818 253.718 196.974 253.676 197.108 253.692C197.242 253.701 197.347 253.747 197.423 253.831C197.507 253.915 197.557 254.02 197.574 254.146C197.591 254.263 197.565 254.385 197.498 254.511C197.439 254.637 197.334 254.746 197.183 254.838C196.89 255.023 196.55 255.162 196.163 255.254C195.786 255.338 195.433 255.38 195.106 255.38ZM199.677 255.355C199.425 255.355 199.232 255.287 199.097 255.153C198.963 255.01 198.896 254.809 198.896 254.549V249.789C198.896 249.529 198.963 249.331 199.097 249.197C199.232 249.063 199.42 248.996 199.664 248.996C199.907 248.996 200.096 249.063 200.231 249.197C200.365 249.331 200.432 249.529 200.432 249.789V250.645L200.294 250.33C200.478 249.885 200.764 249.55 201.15 249.323C201.544 249.088 201.989 248.97 202.485 248.97C202.98 248.97 203.387 249.063 203.706 249.247C204.025 249.432 204.264 249.713 204.424 250.091C204.583 250.46 204.663 250.931 204.663 251.501V254.549C204.663 254.809 204.596 255.01 204.462 255.153C204.327 255.287 204.134 255.355 203.882 255.355C203.63 255.355 203.433 255.287 203.29 255.153C203.156 255.01 203.089 254.809 203.089 254.549V251.577C203.089 251.098 202.997 250.75 202.812 250.532C202.636 250.314 202.359 250.204 201.981 250.204C201.519 250.204 201.15 250.351 200.873 250.645C200.604 250.931 200.47 251.313 200.47 251.791V254.549C200.47 255.086 200.205 255.355 199.677 255.355ZM209.082 255.38C208.537 255.38 208.079 255.287 207.71 255.103C207.349 254.918 207.08 254.649 206.904 254.297C206.728 253.936 206.64 253.491 206.64 252.962V250.28H205.985C205.783 250.28 205.628 250.23 205.519 250.129C205.41 250.02 205.355 249.873 205.355 249.688C205.355 249.495 205.41 249.348 205.519 249.247C205.628 249.147 205.783 249.096 205.985 249.096H206.64V247.95C206.64 247.69 206.707 247.493 206.841 247.359C206.984 247.224 207.181 247.157 207.433 247.157C207.685 247.157 207.878 247.224 208.012 247.359C208.146 247.493 208.214 247.69 208.214 247.95V249.096H209.548C209.75 249.096 209.905 249.147 210.014 249.247C210.123 249.348 210.178 249.495 210.178 249.688C210.178 249.873 210.123 250.02 210.014 250.129C209.905 250.23 209.75 250.28 209.548 250.28H208.214V252.874C208.214 253.277 208.302 253.579 208.478 253.781C208.654 253.982 208.94 254.083 209.334 254.083C209.477 254.083 209.603 254.07 209.712 254.045C209.821 254.02 209.918 254.003 210.002 253.995C210.102 253.986 210.186 254.02 210.253 254.095C210.321 254.163 210.354 254.305 210.354 254.524C210.354 254.691 210.325 254.843 210.266 254.977C210.216 255.103 210.119 255.191 209.976 255.241C209.867 255.275 209.725 255.304 209.548 255.329C209.372 255.363 209.217 255.38 209.082 255.38ZM213.122 255.38C212.677 255.38 212.278 255.296 211.926 255.128C211.581 254.952 211.309 254.717 211.107 254.423C210.914 254.129 210.817 253.797 210.817 253.428C210.817 252.975 210.935 252.618 211.17 252.358C211.405 252.089 211.787 251.896 212.316 251.778C212.845 251.661 213.554 251.602 214.444 251.602H215.074V252.509H214.457C213.936 252.509 213.521 252.534 213.21 252.584C212.899 252.635 212.677 252.723 212.543 252.849C212.417 252.966 212.354 253.134 212.354 253.352C212.354 253.63 212.45 253.856 212.643 254.032C212.836 254.209 213.105 254.297 213.449 254.297C213.726 254.297 213.97 254.234 214.18 254.108C214.398 253.974 214.57 253.793 214.696 253.567C214.822 253.34 214.885 253.08 214.885 252.786V251.338C214.885 250.918 214.792 250.616 214.608 250.431C214.423 250.246 214.112 250.154 213.676 250.154C213.432 250.154 213.168 250.183 212.883 250.242C212.606 250.301 212.312 250.402 212.001 250.544C211.842 250.62 211.699 250.641 211.573 250.607C211.455 250.574 211.363 250.507 211.296 250.406C211.229 250.297 211.195 250.179 211.195 250.053C211.195 249.927 211.229 249.806 211.296 249.688C211.363 249.562 211.476 249.47 211.636 249.411C212.022 249.252 212.392 249.138 212.744 249.071C213.105 249.004 213.432 248.97 213.726 248.97C214.331 248.97 214.826 249.063 215.212 249.247C215.607 249.432 215.901 249.713 216.094 250.091C216.287 250.46 216.383 250.939 216.383 251.527V254.549C216.383 254.809 216.32 255.01 216.194 255.153C216.068 255.287 215.888 255.355 215.653 255.355C215.418 255.355 215.233 255.287 215.099 255.153C214.973 255.01 214.91 254.809 214.91 254.549V253.944H215.011C214.952 254.238 214.834 254.494 214.658 254.712C214.49 254.922 214.276 255.086 214.016 255.204C213.756 255.321 213.458 255.38 213.122 255.38ZM218.787 255.355C218.527 255.355 218.325 255.287 218.182 255.153C218.048 255.01 217.981 254.809 217.981 254.549V249.789C217.981 249.529 218.048 249.331 218.182 249.197C218.317 249.063 218.506 248.996 218.749 248.996C218.992 248.996 219.181 249.063 219.316 249.197C219.45 249.331 219.517 249.529 219.517 249.789V250.582H219.391C219.509 250.079 219.74 249.697 220.084 249.436C220.428 249.176 220.885 249.021 221.456 248.97C221.633 248.954 221.771 249 221.872 249.109C221.981 249.21 222.044 249.369 222.061 249.587C222.078 249.797 222.027 249.969 221.91 250.104C221.801 250.23 221.633 250.305 221.406 250.33L221.129 250.356C220.617 250.406 220.231 250.565 219.97 250.834C219.71 251.094 219.58 251.464 219.58 251.942V254.549C219.58 254.809 219.513 255.01 219.379 255.153C219.244 255.287 219.047 255.355 218.787 255.355Z" fill="white"/>
<rect x="243.808" y="237.462" width="168.987" height="26.5835" rx="4.89697" stroke="#336ACC" stroke-width="1.39913"/>
<path d="M259.401 255.38C258.478 255.38 257.685 255.195 257.021 254.826C256.367 254.448 255.863 253.919 255.51 253.239C255.158 252.551 254.981 251.741 254.981 250.809C254.981 250.112 255.082 249.487 255.284 248.933C255.485 248.37 255.775 247.892 256.153 247.497C256.53 247.094 256.992 246.788 257.538 246.578C258.092 246.36 258.713 246.25 259.401 246.25C259.863 246.25 260.316 246.309 260.761 246.427C261.206 246.544 261.597 246.712 261.932 246.93C262.109 247.04 262.226 247.174 262.285 247.333C262.344 247.485 262.356 247.636 262.323 247.787C262.289 247.929 262.218 248.051 262.109 248.152C262.008 248.253 261.878 248.311 261.718 248.328C261.567 248.337 261.399 248.282 261.215 248.164C260.954 247.997 260.673 247.875 260.371 247.799C260.069 247.724 259.762 247.686 259.452 247.686C258.856 247.686 258.352 247.808 257.941 248.051C257.529 248.295 257.219 248.647 257.009 249.109C256.799 249.571 256.694 250.137 256.694 250.809C256.694 251.472 256.799 252.039 257.009 252.509C257.219 252.979 257.529 253.336 257.941 253.579C258.352 253.823 258.856 253.944 259.452 253.944C259.771 253.944 260.086 253.907 260.396 253.831C260.707 253.747 261.001 253.621 261.278 253.453C261.462 253.344 261.626 253.298 261.769 253.315C261.92 253.323 262.046 253.373 262.146 253.466C262.247 253.558 262.314 253.676 262.348 253.818C262.382 253.953 262.373 254.095 262.323 254.247C262.272 254.389 262.172 254.515 262.021 254.624C261.685 254.868 261.282 255.057 260.812 255.191C260.35 255.317 259.88 255.38 259.401 255.38ZM265.485 255.38C265.04 255.38 264.641 255.296 264.289 255.128C263.944 254.952 263.671 254.717 263.47 254.423C263.277 254.129 263.18 253.797 263.18 253.428C263.18 252.975 263.298 252.618 263.533 252.358C263.768 252.089 264.15 251.896 264.679 251.778C265.208 251.661 265.917 251.602 266.807 251.602H267.437V252.509H266.82C266.299 252.509 265.884 252.534 265.573 252.584C265.262 252.635 265.04 252.723 264.906 252.849C264.78 252.966 264.717 253.134 264.717 253.352C264.717 253.63 264.813 253.856 265.006 254.032C265.199 254.209 265.468 254.297 265.812 254.297C266.089 254.297 266.333 254.234 266.543 254.108C266.761 253.974 266.933 253.793 267.059 253.567C267.185 253.34 267.248 253.08 267.248 252.786V251.338C267.248 250.918 267.155 250.616 266.971 250.431C266.786 250.246 266.475 250.154 266.039 250.154C265.795 250.154 265.531 250.183 265.246 250.242C264.968 250.301 264.675 250.402 264.364 250.544C264.205 250.62 264.062 250.641 263.936 250.607C263.818 250.574 263.726 250.507 263.659 250.406C263.592 250.297 263.558 250.179 263.558 250.053C263.558 249.927 263.592 249.806 263.659 249.688C263.726 249.562 263.839 249.47 263.999 249.411C264.385 249.252 264.754 249.138 265.107 249.071C265.468 249.004 265.795 248.97 266.089 248.97C266.694 248.97 267.189 249.063 267.575 249.247C267.97 249.432 268.263 249.713 268.457 250.091C268.65 250.46 268.746 250.939 268.746 251.527V254.549C268.746 254.809 268.683 255.01 268.557 255.153C268.431 255.287 268.251 255.355 268.016 255.355C267.781 255.355 267.596 255.287 267.462 255.153C267.336 255.01 267.273 254.809 267.273 254.549V253.944H267.374C267.315 254.238 267.197 254.494 267.021 254.712C266.853 254.922 266.639 255.086 266.379 255.204C266.119 255.321 265.821 255.38 265.485 255.38ZM271.15 255.355C270.898 255.355 270.705 255.287 270.57 255.153C270.436 255.01 270.369 254.809 270.369 254.549V249.789C270.369 249.529 270.436 249.331 270.57 249.197C270.705 249.063 270.894 248.996 271.137 248.996C271.381 248.996 271.569 249.063 271.704 249.197C271.838 249.331 271.905 249.529 271.905 249.789V250.708L271.767 250.33C271.935 249.911 272.195 249.579 272.547 249.336C272.9 249.092 273.32 248.97 273.807 248.97C274.302 248.97 274.709 249.088 275.028 249.323C275.347 249.558 275.57 249.919 275.695 250.406H275.519C275.687 249.961 275.964 249.613 276.35 249.361C276.736 249.101 277.181 248.97 277.685 248.97C278.155 248.97 278.541 249.063 278.844 249.247C279.154 249.432 279.385 249.713 279.536 250.091C279.687 250.46 279.763 250.931 279.763 251.501V254.549C279.763 254.809 279.691 255.01 279.549 255.153C279.414 255.287 279.221 255.355 278.969 255.355C278.718 255.355 278.525 255.287 278.39 255.153C278.256 255.01 278.189 254.809 278.189 254.549V251.564C278.189 251.094 278.109 250.75 277.949 250.532C277.798 250.314 277.538 250.204 277.169 250.204C276.757 250.204 276.434 250.351 276.199 250.645C275.964 250.931 275.847 251.329 275.847 251.841V254.549C275.847 254.809 275.779 255.01 275.645 255.153C275.511 255.287 275.318 255.355 275.066 255.355C274.814 255.355 274.617 255.287 274.474 255.153C274.34 255.01 274.273 254.809 274.273 254.549V251.564C274.273 251.094 274.193 250.75 274.033 250.532C273.882 250.314 273.626 250.204 273.265 250.204C272.854 250.204 272.531 250.351 272.296 250.645C272.061 250.931 271.943 251.329 271.943 251.841V254.549C271.943 255.086 271.679 255.355 271.15 255.355ZM284.938 255.38C284.417 255.38 283.96 255.25 283.565 254.989C283.179 254.729 282.923 254.381 282.797 253.944L282.935 253.63V254.549C282.935 254.809 282.868 255.01 282.734 255.153C282.6 255.287 282.411 255.355 282.167 255.355C281.915 255.355 281.722 255.287 281.588 255.153C281.454 255.01 281.387 254.809 281.387 254.549V247.069C281.387 246.809 281.454 246.611 281.588 246.477C281.722 246.343 281.915 246.276 282.167 246.276C282.419 246.276 282.612 246.343 282.747 246.477C282.889 246.611 282.961 246.809 282.961 247.069V250.343H282.809C282.944 249.932 283.204 249.6 283.59 249.348C283.976 249.096 284.425 248.97 284.938 248.97C285.483 248.97 285.958 249.101 286.36 249.361C286.763 249.621 287.078 249.99 287.305 250.469C287.532 250.939 287.645 251.506 287.645 252.169C287.645 252.824 287.532 253.394 287.305 253.881C287.078 254.36 286.759 254.729 286.348 254.989C285.945 255.25 285.475 255.38 284.938 255.38ZM284.497 254.184C284.807 254.184 285.08 254.108 285.315 253.957C285.55 253.806 285.731 253.583 285.857 253.29C285.991 252.987 286.058 252.614 286.058 252.169C286.058 251.497 285.916 250.998 285.63 250.67C285.345 250.335 284.967 250.167 284.497 250.167C284.186 250.167 283.913 250.242 283.678 250.393C283.443 250.536 283.259 250.758 283.124 251.061C282.998 251.355 282.935 251.724 282.935 252.169C282.935 252.832 283.078 253.336 283.364 253.68C283.649 254.016 284.027 254.184 284.497 254.184ZM289.718 255.342C289.466 255.342 289.273 255.266 289.138 255.115C289.004 254.964 288.937 254.754 288.937 254.486V249.864C288.937 249.587 289.004 249.378 289.138 249.235C289.273 249.084 289.466 249.008 289.718 249.008C289.97 249.008 290.163 249.084 290.297 249.235C290.44 249.378 290.511 249.587 290.511 249.864V254.486C290.511 254.754 290.444 254.964 290.31 255.115C290.175 255.266 289.978 255.342 289.718 255.342ZM289.718 247.837C289.424 247.837 289.193 247.766 289.025 247.623C288.866 247.472 288.786 247.266 288.786 247.006C288.786 246.737 288.866 246.532 289.025 246.389C289.193 246.246 289.424 246.175 289.718 246.175C290.02 246.175 290.251 246.246 290.41 246.389C290.57 246.532 290.649 246.737 290.649 247.006C290.649 247.266 290.57 247.472 290.41 247.623C290.251 247.766 290.02 247.837 289.718 247.837ZM294.174 255.38C293.729 255.38 293.33 255.296 292.978 255.128C292.633 254.952 292.361 254.717 292.159 254.423C291.966 254.129 291.869 253.797 291.869 253.428C291.869 252.975 291.987 252.618 292.222 252.358C292.457 252.089 292.839 251.896 293.368 251.778C293.897 251.661 294.606 251.602 295.496 251.602H296.126V252.509H295.509C294.988 252.509 294.573 252.534 294.262 252.584C293.951 252.635 293.729 252.723 293.595 252.849C293.469 252.966 293.406 253.134 293.406 253.352C293.406 253.63 293.502 253.856 293.695 254.032C293.888 254.209 294.157 254.297 294.501 254.297C294.778 254.297 295.022 254.234 295.232 254.108C295.45 253.974 295.622 253.793 295.748 253.567C295.874 253.34 295.937 253.08 295.937 252.786V251.338C295.937 250.918 295.844 250.616 295.66 250.431C295.475 250.246 295.164 250.154 294.728 250.154C294.484 250.154 294.22 250.183 293.935 250.242C293.658 250.301 293.364 250.402 293.053 250.544C292.894 250.62 292.751 250.641 292.625 250.607C292.507 250.574 292.415 250.507 292.348 250.406C292.281 250.297 292.247 250.179 292.247 250.053C292.247 249.927 292.281 249.806 292.348 249.688C292.415 249.562 292.528 249.47 292.688 249.411C293.074 249.252 293.443 249.138 293.796 249.071C294.157 249.004 294.484 248.97 294.778 248.97C295.383 248.97 295.878 249.063 296.264 249.247C296.659 249.432 296.953 249.713 297.146 250.091C297.339 250.46 297.435 250.939 297.435 251.527V254.549C297.435 254.809 297.372 255.01 297.246 255.153C297.12 255.287 296.94 255.355 296.705 255.355C296.47 255.355 296.285 255.287 296.151 255.153C296.025 255.01 295.962 254.809 295.962 254.549V253.944H296.063C296.004 254.238 295.886 254.494 295.71 254.712C295.542 254.922 295.328 255.086 295.068 255.204C294.808 255.321 294.51 255.38 294.174 255.38ZM299.839 255.355C299.579 255.355 299.377 255.287 299.234 255.153C299.1 255.01 299.033 254.809 299.033 254.549V249.789C299.033 249.529 299.1 249.331 299.234 249.197C299.369 249.063 299.558 248.996 299.801 248.996C300.044 248.996 300.233 249.063 300.368 249.197C300.502 249.331 300.569 249.529 300.569 249.789V250.582H300.443C300.561 250.079 300.792 249.697 301.136 249.436C301.48 249.176 301.937 249.021 302.508 248.97C302.685 248.954 302.823 249 302.924 249.109C303.033 249.21 303.096 249.369 303.113 249.587C303.13 249.797 303.079 249.969 302.962 250.104C302.852 250.23 302.685 250.305 302.458 250.33L302.181 250.356C301.669 250.406 301.283 250.565 301.022 250.834C300.762 251.094 300.632 251.464 300.632 251.942V254.549C300.632 254.809 300.565 255.01 300.431 255.153C300.296 255.287 300.099 255.355 299.839 255.355ZM308.188 255.355C307.937 255.355 307.744 255.287 307.609 255.153C307.475 255.01 307.408 254.809 307.408 254.549V249.789C307.408 249.529 307.475 249.331 307.609 249.197C307.744 249.063 307.932 248.996 308.176 248.996C308.419 248.996 308.608 249.063 308.743 249.197C308.877 249.331 308.944 249.529 308.944 249.789V250.708L308.805 250.33C308.973 249.911 309.234 249.579 309.586 249.336C309.939 249.092 310.359 248.97 310.845 248.97C311.341 248.97 311.748 249.088 312.067 249.323C312.386 249.558 312.608 249.919 312.734 250.406H312.558C312.726 249.961 313.003 249.613 313.389 249.361C313.775 249.101 314.22 248.97 314.724 248.97C315.194 248.97 315.58 249.063 315.882 249.247C316.193 249.432 316.424 249.713 316.575 250.091C316.726 250.46 316.802 250.931 316.802 251.501V254.549C316.802 254.809 316.73 255.01 316.587 255.153C316.453 255.287 316.26 255.355 316.008 255.355C315.756 255.355 315.563 255.287 315.429 255.153C315.295 255.01 315.227 254.809 315.227 254.549V251.564C315.227 251.094 315.148 250.75 314.988 250.532C314.837 250.314 314.577 250.204 314.208 250.204C313.796 250.204 313.473 250.351 313.238 250.645C313.003 250.931 312.885 251.329 312.885 251.841V254.549C312.885 254.809 312.818 255.01 312.684 255.153C312.55 255.287 312.356 255.355 312.105 255.355C311.853 255.355 311.656 255.287 311.513 255.153C311.378 255.01 311.311 254.809 311.311 254.549V251.564C311.311 251.094 311.232 250.75 311.072 250.532C310.921 250.314 310.665 250.204 310.304 250.204C309.893 250.204 309.569 250.351 309.334 250.645C309.099 250.931 308.982 251.329 308.982 251.841V254.549C308.982 255.086 308.717 255.355 308.188 255.355ZM321.46 255.38C320.763 255.38 320.163 255.25 319.659 254.989C319.156 254.729 318.765 254.36 318.488 253.881C318.22 253.403 318.085 252.836 318.085 252.181C318.085 251.543 318.215 250.985 318.476 250.507C318.744 250.028 319.11 249.655 319.571 249.386C320.041 249.109 320.574 248.97 321.17 248.97C321.607 248.97 321.997 249.042 322.342 249.184C322.694 249.327 322.992 249.533 323.236 249.801C323.487 250.07 323.676 250.398 323.802 250.784C323.937 251.161 324.004 251.59 324.004 252.068C324.004 252.219 323.949 252.337 323.84 252.421C323.739 252.496 323.592 252.534 323.399 252.534H319.357V251.627H322.896L322.694 251.816C322.694 251.43 322.635 251.107 322.518 250.847C322.409 250.586 322.245 250.389 322.027 250.255C321.817 250.112 321.552 250.041 321.233 250.041C320.881 250.041 320.579 250.125 320.327 250.293C320.083 250.452 319.894 250.683 319.76 250.985C319.634 251.279 319.571 251.632 319.571 252.043V252.131C319.571 252.819 319.731 253.336 320.05 253.68C320.377 254.016 320.856 254.184 321.485 254.184C321.703 254.184 321.947 254.158 322.216 254.108C322.493 254.049 322.753 253.953 322.996 253.818C323.173 253.718 323.328 253.676 323.462 253.692C323.597 253.701 323.701 253.747 323.777 253.831C323.861 253.915 323.911 254.02 323.928 254.146C323.945 254.263 323.92 254.385 323.853 254.511C323.794 254.637 323.689 254.746 323.538 254.838C323.244 255.023 322.904 255.162 322.518 255.254C322.14 255.338 321.787 255.38 321.46 255.38ZM321.775 248.202C321.691 248.32 321.59 248.387 321.473 248.404C321.355 248.421 321.242 248.4 321.133 248.341C321.024 248.282 320.944 248.198 320.893 248.089C320.851 247.98 320.864 247.858 320.931 247.724L321.888 245.848C321.964 245.688 322.064 245.587 322.19 245.545C322.316 245.495 322.446 245.487 322.581 245.52C322.715 245.554 322.828 245.617 322.921 245.709C323.021 245.801 323.08 245.915 323.097 246.049C323.122 246.175 323.089 246.305 322.996 246.439L321.775 248.202ZM328.046 255.38C327.501 255.38 327.043 255.287 326.674 255.103C326.313 254.918 326.044 254.649 325.868 254.297C325.692 253.936 325.603 253.491 325.603 252.962V250.28H324.949C324.747 250.28 324.592 250.23 324.483 250.129C324.374 250.02 324.319 249.873 324.319 249.688C324.319 249.495 324.374 249.348 324.483 249.247C324.592 249.147 324.747 249.096 324.949 249.096H325.603V247.95C325.603 247.69 325.671 247.493 325.805 247.359C325.948 247.224 326.145 247.157 326.397 247.157C326.649 247.157 326.842 247.224 326.976 247.359C327.11 247.493 327.177 247.69 327.177 247.95V249.096H328.512C328.714 249.096 328.869 249.147 328.978 249.247C329.087 249.348 329.142 249.495 329.142 249.688C329.142 249.873 329.087 250.02 328.978 250.129C328.869 250.23 328.714 250.28 328.512 250.28H327.177V252.874C327.177 253.277 327.266 253.579 327.442 253.781C327.618 253.982 327.904 254.083 328.298 254.083C328.441 254.083 328.567 254.07 328.676 254.045C328.785 254.02 328.882 254.003 328.965 253.995C329.066 253.986 329.15 254.02 329.217 254.095C329.284 254.163 329.318 254.305 329.318 254.524C329.318 254.691 329.289 254.843 329.23 254.977C329.18 255.103 329.083 255.191 328.94 255.241C328.831 255.275 328.688 255.304 328.512 255.329C328.336 255.363 328.181 255.38 328.046 255.38ZM332.805 255.38C332.167 255.38 331.613 255.25 331.143 254.989C330.673 254.729 330.307 254.36 330.047 253.881C329.787 253.394 329.657 252.824 329.657 252.169C329.657 251.674 329.728 251.233 329.871 250.847C330.022 250.452 330.236 250.116 330.513 249.839C330.79 249.554 331.122 249.34 331.508 249.197C331.894 249.046 332.326 248.97 332.805 248.97C333.443 248.97 333.997 249.101 334.467 249.361C334.937 249.621 335.302 249.99 335.563 250.469C335.823 250.947 335.953 251.514 335.953 252.169C335.953 252.664 335.877 253.109 335.726 253.504C335.584 253.898 335.374 254.238 335.097 254.524C334.82 254.801 334.488 255.015 334.102 255.166C333.716 255.308 333.283 255.38 332.805 255.38ZM332.805 254.184C333.116 254.184 333.388 254.108 333.623 253.957C333.858 253.806 334.039 253.583 334.165 253.29C334.299 252.987 334.366 252.614 334.366 252.169C334.366 251.497 334.224 250.998 333.938 250.67C333.653 250.335 333.275 250.167 332.805 250.167C332.494 250.167 332.221 250.242 331.986 250.393C331.751 250.536 331.567 250.758 331.432 251.061C331.306 251.355 331.243 251.724 331.243 252.169C331.243 252.832 331.386 253.336 331.672 253.68C331.957 254.016 332.335 254.184 332.805 254.184ZM339.619 255.38C339.082 255.38 338.608 255.25 338.197 254.989C337.794 254.729 337.479 254.36 337.252 253.881C337.025 253.394 336.912 252.824 336.912 252.169C336.912 251.506 337.025 250.939 337.252 250.469C337.479 249.99 337.794 249.621 338.197 249.361C338.608 249.101 339.082 248.97 339.619 248.97C340.132 248.97 340.576 249.096 340.954 249.348C341.34 249.6 341.601 249.932 341.735 250.343H341.596V247.069C341.596 246.809 341.664 246.611 341.798 246.477C341.932 246.343 342.125 246.276 342.377 246.276C342.629 246.276 342.822 246.343 342.956 246.477C343.099 246.611 343.17 246.809 343.17 247.069V254.549C343.17 254.809 343.103 255.01 342.969 255.153C342.835 255.287 342.642 255.355 342.39 255.355C342.138 255.355 341.945 255.287 341.811 255.153C341.676 255.01 341.609 254.809 341.609 254.549V253.567L341.748 253.944C341.622 254.381 341.366 254.729 340.979 254.989C340.593 255.25 340.14 255.38 339.619 255.38ZM340.06 254.184C340.371 254.184 340.644 254.108 340.879 253.957C341.114 253.806 341.294 253.583 341.42 253.29C341.554 252.987 341.622 252.614 341.622 252.169C341.622 251.497 341.479 250.998 341.193 250.67C340.908 250.335 340.53 250.167 340.06 250.167C339.75 250.167 339.477 250.242 339.242 250.393C339.007 250.536 338.822 250.758 338.688 251.061C338.562 251.355 338.499 251.724 338.499 252.169C338.499 252.832 338.641 253.336 338.927 253.68C339.212 254.016 339.59 254.184 340.06 254.184ZM347.611 255.38C346.973 255.38 346.419 255.25 345.948 254.989C345.478 254.729 345.113 254.36 344.853 253.881C344.593 253.394 344.463 252.824 344.463 252.169C344.463 251.674 344.534 251.233 344.677 250.847C344.828 250.452 345.042 250.116 345.319 249.839C345.596 249.554 345.927 249.34 346.314 249.197C346.7 249.046 347.132 248.97 347.611 248.97C348.249 248.97 348.803 249.101 349.273 249.361C349.743 249.621 350.108 249.99 350.368 250.469C350.629 250.947 350.759 251.514 350.759 252.169C350.759 252.664 350.683 253.109 350.532 253.504C350.389 253.898 350.179 254.238 349.902 254.524C349.625 254.801 349.294 255.015 348.908 255.166C348.521 255.308 348.089 255.38 347.611 255.38ZM347.611 254.184C347.921 254.184 348.194 254.108 348.429 253.957C348.664 253.806 348.845 253.583 348.971 253.29C349.105 252.987 349.172 252.614 349.172 252.169C349.172 251.497 349.029 250.998 348.744 250.67C348.458 250.335 348.081 250.167 347.611 250.167C347.3 250.167 347.027 250.242 346.792 250.393C346.557 250.536 346.372 250.758 346.238 251.061C346.112 251.355 346.049 251.724 346.049 252.169C346.049 252.832 346.192 253.336 346.477 253.68C346.763 254.016 347.14 254.184 347.611 254.184ZM357.844 255.38C357.306 255.38 356.832 255.25 356.421 254.989C356.018 254.729 355.703 254.36 355.476 253.881C355.25 253.394 355.136 252.824 355.136 252.169C355.136 251.506 355.25 250.939 355.476 250.469C355.703 249.99 356.018 249.621 356.421 249.361C356.832 249.101 357.306 248.97 357.844 248.97C358.356 248.97 358.801 249.096 359.179 249.348C359.565 249.6 359.825 249.932 359.959 250.343H359.821V247.069C359.821 246.809 359.888 246.611 360.022 246.477C360.157 246.343 360.35 246.276 360.601 246.276C360.853 246.276 361.046 246.343 361.181 246.477C361.323 246.611 361.395 246.809 361.395 247.069V254.549C361.395 254.809 361.328 255.01 361.193 255.153C361.059 255.287 360.866 255.355 360.614 255.355C360.362 255.355 360.169 255.287 360.035 255.153C359.9 255.01 359.833 254.809 359.833 254.549V253.567L359.972 253.944C359.846 254.381 359.59 254.729 359.204 254.989C358.818 255.25 358.364 255.38 357.844 255.38ZM358.284 254.184C358.595 254.184 358.868 254.108 359.103 253.957C359.338 253.806 359.518 253.583 359.644 253.29C359.779 252.987 359.846 252.614 359.846 252.169C359.846 251.497 359.703 250.998 359.418 250.67C359.132 250.335 358.755 250.167 358.284 250.167C357.974 250.167 357.701 250.242 357.466 250.393C357.231 250.536 357.046 250.758 356.912 251.061C356.786 251.355 356.723 251.724 356.723 252.169C356.723 252.832 356.866 253.336 357.151 253.68C357.437 254.016 357.814 254.184 358.284 254.184ZM366.062 255.38C365.365 255.38 364.765 255.25 364.261 254.989C363.757 254.729 363.367 254.36 363.09 253.881C362.821 253.403 362.687 252.836 362.687 252.181C362.687 251.543 362.817 250.985 363.077 250.507C363.346 250.028 363.711 249.655 364.173 249.386C364.643 249.109 365.176 248.97 365.772 248.97C366.208 248.97 366.599 249.042 366.943 249.184C367.296 249.327 367.594 249.533 367.837 249.801C368.089 250.07 368.278 250.398 368.404 250.784C368.538 251.161 368.605 251.59 368.605 252.068C368.605 252.219 368.551 252.337 368.441 252.421C368.341 252.496 368.194 252.534 368.001 252.534H363.959V251.627H367.497L367.296 251.816C367.296 251.43 367.237 251.107 367.119 250.847C367.01 250.586 366.846 250.389 366.628 250.255C366.418 250.112 366.154 250.041 365.835 250.041C365.482 250.041 365.18 250.125 364.928 250.293C364.685 250.452 364.496 250.683 364.362 250.985C364.236 251.279 364.173 251.632 364.173 252.043V252.131C364.173 252.819 364.332 253.336 364.651 253.68C364.979 254.016 365.457 254.184 366.087 254.184C366.305 254.184 366.548 254.158 366.817 254.108C367.094 254.049 367.354 253.953 367.598 253.818C367.774 253.718 367.929 253.676 368.064 253.692C368.198 253.701 368.303 253.747 368.378 253.831C368.462 253.915 368.513 254.02 368.53 254.146C368.546 254.263 368.521 254.385 368.454 254.511C368.395 254.637 368.29 254.746 368.139 254.838C367.845 255.023 367.505 255.162 367.119 255.254C366.741 255.338 366.389 255.38 366.062 255.38ZM374.051 257.621C373.799 257.621 373.606 257.554 373.472 257.42C373.337 257.285 373.27 257.088 373.27 256.828V249.789C373.27 249.529 373.337 249.331 373.472 249.197C373.606 249.063 373.795 248.996 374.038 248.996C374.29 248.996 374.483 249.063 374.618 249.197C374.752 249.331 374.819 249.529 374.819 249.789V250.771L374.681 250.393C374.807 249.965 375.063 249.621 375.449 249.361C375.843 249.101 376.301 248.97 376.821 248.97C377.359 248.97 377.829 249.101 378.232 249.361C378.643 249.621 378.962 249.99 379.189 250.469C379.415 250.939 379.529 251.506 379.529 252.169C379.529 252.824 379.415 253.394 379.189 253.881C378.962 254.36 378.647 254.729 378.244 254.989C377.841 255.25 377.367 255.38 376.821 255.38C376.309 255.38 375.86 255.254 375.474 255.002C375.088 254.742 374.827 254.406 374.693 253.995H374.844V256.828C374.844 257.088 374.773 257.285 374.63 257.42C374.496 257.554 374.303 257.621 374.051 257.621ZM376.381 254.184C376.691 254.184 376.964 254.108 377.199 253.957C377.434 253.806 377.615 253.583 377.74 253.29C377.875 252.987 377.942 252.614 377.942 252.169C377.942 251.497 377.799 250.998 377.514 250.67C377.228 250.335 376.851 250.167 376.381 250.167C376.07 250.167 375.797 250.242 375.562 250.393C375.327 250.536 375.142 250.758 375.008 251.061C374.882 251.355 374.819 251.724 374.819 252.169C374.819 252.832 374.962 253.336 375.247 253.68C375.533 254.016 375.91 254.184 376.381 254.184ZM382.848 255.38C382.403 255.38 382.004 255.296 381.652 255.128C381.308 254.952 381.035 254.717 380.833 254.423C380.64 254.129 380.544 253.797 380.544 253.428C380.544 252.975 380.661 252.618 380.896 252.358C381.131 252.089 381.513 251.896 382.042 251.778C382.571 251.661 383.28 251.602 384.17 251.602H384.8V252.509H384.183C383.662 252.509 383.247 252.534 382.936 252.584C382.626 252.635 382.403 252.723 382.269 252.849C382.143 252.966 382.08 253.134 382.08 253.352C382.08 253.63 382.176 253.856 382.37 254.032C382.563 254.209 382.831 254.297 383.175 254.297C383.452 254.297 383.696 254.234 383.906 254.108C384.124 253.974 384.296 253.793 384.422 253.567C384.548 253.34 384.611 253.08 384.611 252.786V251.338C384.611 250.918 384.519 250.616 384.334 250.431C384.149 250.246 383.839 250.154 383.402 250.154C383.159 250.154 382.894 250.183 382.609 250.242C382.332 250.301 382.038 250.402 381.727 250.544C381.568 250.62 381.425 250.641 381.299 250.607C381.182 250.574 381.089 250.507 381.022 250.406C380.955 250.297 380.921 250.179 380.921 250.053C380.921 249.927 380.955 249.806 381.022 249.688C381.089 249.562 381.203 249.47 381.362 249.411C381.748 249.252 382.118 249.138 382.47 249.071C382.831 249.004 383.159 248.97 383.452 248.97C384.057 248.97 384.552 249.063 384.938 249.247C385.333 249.432 385.627 249.713 385.82 250.091C386.013 250.46 386.109 250.939 386.109 251.527V254.549C386.109 254.809 386.046 255.01 385.921 255.153C385.795 255.287 385.614 255.355 385.379 255.355C385.144 255.355 384.959 255.287 384.825 255.153C384.699 255.01 384.636 254.809 384.636 254.549V253.944H384.737C384.678 254.238 384.561 254.494 384.384 254.712C384.216 254.922 384.002 255.086 383.742 255.204C383.482 255.321 383.184 255.38 382.848 255.38ZM390.578 257.646C390.125 257.646 389.684 257.604 389.256 257.521C388.836 257.437 388.454 257.306 388.11 257.13C387.95 257.046 387.841 256.945 387.783 256.828C387.732 256.71 387.715 256.589 387.732 256.463C387.757 256.345 387.808 256.24 387.883 256.148C387.967 256.056 388.068 255.993 388.186 255.959C388.303 255.925 388.425 255.942 388.551 256.009C388.92 256.194 389.268 256.312 389.596 256.362C389.932 256.421 390.217 256.45 390.452 256.45C391.015 256.45 391.434 256.312 391.711 256.035C391.997 255.766 392.139 255.363 392.139 254.826V253.692H392.253C392.127 254.121 391.862 254.465 391.46 254.725C391.065 254.977 390.616 255.103 390.112 255.103C389.558 255.103 389.075 254.977 388.664 254.725C388.253 254.465 387.934 254.104 387.707 253.642C387.48 253.18 387.367 252.643 387.367 252.03C387.367 251.569 387.43 251.153 387.556 250.784C387.69 250.406 387.875 250.083 388.11 249.814C388.353 249.545 388.643 249.34 388.979 249.197C389.323 249.046 389.701 248.97 390.112 248.97C390.633 248.97 391.086 249.101 391.472 249.361C391.867 249.613 392.123 249.948 392.24 250.368L392.114 250.683V249.789C392.114 249.529 392.181 249.331 392.316 249.197C392.458 249.063 392.652 248.996 392.895 248.996C393.147 248.996 393.34 249.063 393.474 249.197C393.609 249.331 393.676 249.529 393.676 249.789V254.637C393.676 255.636 393.411 256.387 392.882 256.891C392.354 257.395 391.585 257.646 390.578 257.646ZM390.54 253.907C390.868 253.907 391.149 253.831 391.384 253.68C391.619 253.529 391.799 253.315 391.925 253.038C392.06 252.752 392.127 252.416 392.127 252.03C392.127 251.451 391.984 250.998 391.699 250.67C391.413 250.335 391.027 250.167 390.54 250.167C390.213 250.167 389.932 250.242 389.697 250.393C389.462 250.544 389.277 250.758 389.143 251.036C389.017 251.313 388.954 251.644 388.954 252.03C388.954 252.61 389.096 253.067 389.382 253.403C389.667 253.739 390.053 253.907 390.54 253.907ZM398.115 255.38C397.477 255.38 396.923 255.25 396.452 254.989C395.982 254.729 395.617 254.36 395.357 253.881C395.097 253.394 394.967 252.824 394.967 252.169C394.967 251.674 395.038 251.233 395.181 250.847C395.332 250.452 395.546 250.116 395.823 249.839C396.1 249.554 396.432 249.34 396.818 249.197C397.204 249.046 397.636 248.97 398.115 248.97C398.753 248.97 399.307 249.101 399.777 249.361C400.247 249.621 400.612 249.99 400.872 250.469C401.133 250.947 401.263 251.514 401.263 252.169C401.263 252.664 401.187 253.109 401.036 253.504C400.893 253.898 400.683 254.238 400.406 254.524C400.129 254.801 399.798 255.015 399.412 255.166C399.026 255.308 398.593 255.38 398.115 255.38ZM398.115 254.184C398.425 254.184 398.698 254.108 398.933 253.957C399.168 253.806 399.349 253.583 399.475 253.29C399.609 252.987 399.676 252.614 399.676 252.169C399.676 251.497 399.533 250.998 399.248 250.67C398.963 250.335 398.585 250.167 398.115 250.167C397.804 250.167 397.531 250.242 397.296 250.393C397.061 250.536 396.876 250.758 396.742 251.061C396.616 251.355 396.553 251.724 396.553 252.169C396.553 252.832 396.696 253.336 396.981 253.68C397.267 254.016 397.645 254.184 398.115 254.184Z" fill="#336ACC"/>
</g>
<rect x="84.9431" y="-13.7464" width="670.086" height="303.335" stroke="#B8C1CC" stroke-width="2.11384"/>
</g>
<rect x="1" y="1.77051" width="726" height="283" rx="7" stroke="#E6EBF0" stroke-width="2"/>
<defs>
<clipPath id="clip0_1350_4798">
<rect y="0.770508" width="728" height="285" rx="8" fill="white"/>
</clipPath>
<clipPath id="clip1_1350_4798">
<rect x="86" y="-12.6895" width="667.972" height="301.222" fill="white"/>
</clipPath>
</defs>
</svg>
