<svg width="728" height="285" viewBox="0 0 728 285" fill="none" xmlns="http://www.w3.org/2000/svg">
<g clip-path="url(#clip0_1290_9834)">
<rect width="728" height="285" rx="8" fill="#EDF4FF"/>
<g clip-path="url(#clip1_1290_9834)">
<rect x="86" y="-13.46" width="667.972" height="301.222" fill="white"/>
<rect width="667.972" height="89.186" transform="translate(86 -45.613)" fill="#EDF4FF"/>
<rect x="149.415" y="-2.9314" width="363.057" height="12.683" rx="6.34151" fill="#C7D4E6"/>
<rect x="149.415" y="13.9795" width="302.279" height="12.683" rx="6.34151" fill="#C7D4E6"/>
<path d="M159.03 103.532H191.422C194.735 103.532 196.799 99.9397 195.143 97.079L178.947 69.0959C177.291 66.2353 173.161 66.2353 171.505 69.0959L155.309 97.079C153.653 99.9397 155.717 103.532 159.03 103.532ZM175.226 88.4754C174.043 88.4754 173.075 87.5075 173.075 86.3246V82.0228C173.075 80.8398 174.043 79.8719 175.226 79.8719C176.409 79.8719 177.377 80.8398 177.377 82.0228V86.3246C177.377 87.5075 176.409 88.4754 175.226 88.4754ZM177.377 97.079H173.075V92.7772H177.377V97.079Z" fill="#00642F"/>
<path d="M158.21 145.055C156.582 145.055 155.185 144.768 154.022 144.194C152.874 143.62 151.99 142.729 151.37 141.519C150.765 140.293 150.462 138.719 150.462 136.795C150.462 133.988 151.145 131.909 152.51 130.559C153.875 129.21 155.775 128.535 158.21 128.535C159.529 128.535 160.716 128.76 161.77 129.21C162.841 129.66 163.686 130.342 164.307 131.257C164.943 132.157 165.261 133.305 165.261 134.701H162.166C162.166 133.925 161.995 133.274 161.654 132.747C161.328 132.204 160.871 131.793 160.281 131.513C159.692 131.234 159.017 131.095 158.257 131.095C157.202 131.095 156.326 131.304 155.628 131.723C154.93 132.126 154.41 132.731 154.069 133.538C153.743 134.344 153.58 135.345 153.58 136.539V137.051C153.58 138.261 153.743 139.269 154.069 140.076C154.41 140.883 154.922 141.488 155.604 141.891C156.302 142.294 157.187 142.496 158.257 142.496C159.063 142.496 159.769 142.364 160.374 142.1C160.979 141.821 161.445 141.418 161.77 140.89C162.112 140.347 162.282 139.688 162.282 138.913H165.261C165.261 140.309 164.95 141.464 164.33 142.38C163.709 143.279 162.864 143.954 161.794 144.404C160.739 144.838 159.544 145.055 158.21 145.055ZM172.955 145.055C171.652 145.055 170.566 144.83 169.698 144.381C168.829 143.915 168.178 143.209 167.743 142.263C167.309 141.317 167.092 140.115 167.092 138.657C167.092 137.183 167.309 135.981 167.743 135.05C168.178 134.104 168.829 133.406 169.698 132.956C170.566 132.491 171.652 132.258 172.955 132.258C174.134 132.258 175.119 132.483 175.91 132.933C176.717 133.367 177.322 134.042 177.725 134.957C178.129 135.872 178.33 137.059 178.33 138.517V139.355H170C170.031 140.115 170.148 140.759 170.349 141.286C170.551 141.798 170.861 142.186 171.28 142.449C171.714 142.698 172.281 142.822 172.979 142.822C173.335 142.822 173.669 142.775 173.979 142.682C174.289 142.589 174.561 142.449 174.793 142.263C175.026 142.062 175.205 141.813 175.329 141.519C175.468 141.224 175.538 140.883 175.538 140.495H178.33C178.33 141.27 178.191 141.945 177.911 142.519C177.648 143.093 177.268 143.566 176.771 143.938C176.29 144.311 175.724 144.59 175.073 144.776C174.421 144.962 173.715 145.055 172.955 145.055ZM170.047 137.354H175.375C175.375 136.842 175.313 136.407 175.189 136.051C175.08 135.694 174.918 135.399 174.7 135.166C174.499 134.934 174.251 134.771 173.956 134.678C173.661 134.569 173.328 134.515 172.955 134.515C172.35 134.515 171.838 134.616 171.42 134.817C171.016 135.019 170.706 135.329 170.489 135.748C170.272 136.167 170.124 136.702 170.047 137.354ZM180.74 144.776V132.537H183.113L183.346 134.468H183.508C183.664 134.081 183.85 133.724 184.067 133.398C184.3 133.057 184.594 132.785 184.951 132.584C185.308 132.367 185.742 132.258 186.254 132.258C186.502 132.258 186.727 132.281 186.929 132.328C187.146 132.374 187.309 132.421 187.417 132.467V135.143H186.557C186.076 135.143 185.649 135.213 185.277 135.353C184.905 135.477 184.587 135.678 184.323 135.958C184.075 136.237 183.888 136.586 183.764 137.005C183.64 137.423 183.578 137.912 183.578 138.471V144.776H180.74ZM189.17 144.776V132.537H191.543L191.776 134.468H191.939C192.094 134.081 192.28 133.724 192.497 133.398C192.73 133.057 193.024 132.785 193.381 132.584C193.738 132.367 194.172 132.258 194.684 132.258C194.932 132.258 195.157 132.281 195.359 132.328C195.576 132.374 195.739 132.421 195.848 132.467V135.143H194.987C194.506 135.143 194.079 135.213 193.707 135.353C193.335 135.477 193.017 135.678 192.753 135.958C192.505 136.237 192.319 136.586 192.194 137.005C192.07 137.423 192.008 137.912 192.008 138.471V144.776H189.17ZM200.514 145.055C200.172 145.055 199.777 145.009 199.327 144.916C198.893 144.838 198.466 144.683 198.047 144.45C197.644 144.218 197.31 143.876 197.047 143.427C196.783 142.961 196.651 142.356 196.651 141.612C196.651 140.774 196.837 140.084 197.21 139.541C197.582 138.982 198.102 138.548 198.769 138.238C199.451 137.912 200.258 137.687 201.188 137.563C202.135 137.423 203.166 137.354 204.283 137.354V136.353C204.283 135.996 204.229 135.678 204.12 135.399C204.012 135.12 203.81 134.903 203.515 134.748C203.236 134.577 202.809 134.492 202.235 134.492C201.662 134.492 201.212 134.561 200.886 134.701C200.56 134.841 200.335 135.011 200.211 135.213C200.087 135.415 200.025 135.624 200.025 135.841V136.167H197.279C197.264 136.089 197.256 136.012 197.256 135.934C197.256 135.857 197.256 135.764 197.256 135.655C197.256 134.957 197.466 134.352 197.884 133.84C198.303 133.328 198.885 132.94 199.629 132.677C200.374 132.398 201.235 132.258 202.212 132.258C203.329 132.258 204.244 132.413 204.958 132.723C205.687 133.034 206.23 133.476 206.587 134.05C206.943 134.624 207.122 135.322 207.122 136.144V141.914C207.122 142.209 207.207 142.418 207.378 142.542C207.548 142.666 207.734 142.729 207.936 142.729H208.681V144.683C208.526 144.745 208.301 144.815 208.006 144.892C207.711 144.986 207.347 145.032 206.912 145.032C206.509 145.032 206.145 144.962 205.819 144.823C205.509 144.699 205.245 144.512 205.028 144.264C204.81 144.016 204.655 143.721 204.562 143.38H204.423C204.159 143.706 203.841 144.001 203.469 144.264C203.112 144.512 202.685 144.706 202.189 144.846C201.708 144.986 201.15 145.055 200.514 145.055ZM201.375 142.729C201.84 142.729 202.251 142.659 202.608 142.519C202.98 142.38 203.283 142.186 203.515 141.937C203.763 141.689 203.95 141.387 204.074 141.03C204.213 140.673 204.283 140.285 204.283 139.867V139.308C203.43 139.308 202.639 139.362 201.91 139.471C201.196 139.58 200.622 139.781 200.188 140.076C199.769 140.371 199.56 140.79 199.56 141.332C199.56 141.612 199.622 141.86 199.746 142.077C199.885 142.279 200.087 142.442 200.351 142.566C200.63 142.674 200.971 142.729 201.375 142.729ZM210.302 144.776V132.537H212.675L212.908 134.166H213.071C213.334 133.794 213.637 133.468 213.978 133.189C214.319 132.894 214.707 132.669 215.141 132.514C215.591 132.343 216.08 132.258 216.607 132.258C217.321 132.258 217.957 132.405 218.515 132.7C219.074 132.995 219.508 133.483 219.818 134.166H219.981C220.245 133.794 220.555 133.468 220.912 133.189C221.269 132.894 221.68 132.669 222.145 132.514C222.61 132.343 223.115 132.258 223.657 132.258C224.387 132.258 225.03 132.39 225.589 132.654C226.147 132.917 226.589 133.352 226.915 133.957C227.241 134.561 227.404 135.368 227.404 136.376V144.776H224.565V136.958C224.565 136.539 224.518 136.19 224.425 135.911C224.332 135.616 224.2 135.391 224.03 135.236C223.875 135.066 223.673 134.942 223.425 134.864C223.192 134.786 222.936 134.748 222.657 134.748C222.207 134.748 221.804 134.872 221.447 135.12C221.09 135.368 220.803 135.709 220.586 136.144C220.384 136.578 220.284 137.082 220.284 137.656V144.776H217.445V136.958C217.445 136.539 217.398 136.19 217.305 135.911C217.212 135.616 217.08 135.391 216.91 135.236C216.755 135.066 216.553 134.942 216.305 134.864C216.072 134.786 215.816 134.748 215.537 134.748C215.087 134.748 214.676 134.872 214.304 135.12C213.947 135.368 213.66 135.709 213.443 136.144C213.241 136.578 213.14 137.082 213.14 137.656V144.776H210.302ZM235.788 145.055C234.454 145.055 233.337 144.83 232.437 144.381C231.537 143.915 230.863 143.209 230.413 142.263C229.963 141.317 229.738 140.115 229.738 138.657C229.738 137.183 229.963 135.981 230.413 135.05C230.863 134.104 231.537 133.406 232.437 132.956C233.337 132.491 234.454 132.258 235.788 132.258C237.137 132.258 238.254 132.491 239.138 132.956C240.038 133.406 240.713 134.104 241.163 135.05C241.612 135.981 241.837 137.183 241.837 138.657C241.837 140.115 241.612 141.317 241.163 142.263C240.713 143.209 240.038 143.915 239.138 144.381C238.254 144.83 237.137 145.055 235.788 145.055ZM235.788 142.729C236.532 142.729 237.13 142.589 237.579 142.31C238.045 142.015 238.378 141.581 238.58 141.007C238.797 140.417 238.906 139.688 238.906 138.82V138.494C238.906 137.625 238.797 136.904 238.58 136.33C238.378 135.74 238.045 135.306 237.579 135.027C237.13 134.732 236.532 134.585 235.788 134.585C235.043 134.585 234.438 134.732 233.973 135.027C233.523 135.306 233.189 135.74 232.972 136.33C232.771 136.904 232.67 137.625 232.67 138.494V138.82C232.67 139.688 232.771 140.417 232.972 141.007C233.189 141.581 233.523 142.015 233.973 142.31C234.438 142.589 235.043 142.729 235.788 142.729ZM249.019 145.055C248.135 145.055 247.359 144.962 246.692 144.776C246.025 144.574 245.467 144.303 245.017 143.962C244.567 143.62 244.226 143.225 243.993 142.775C243.776 142.31 243.668 141.806 243.668 141.263C243.668 141.185 243.668 141.115 243.668 141.053C243.683 140.991 243.691 140.945 243.691 140.914H246.483C246.483 140.945 246.483 140.976 246.483 141.007C246.483 141.038 246.483 141.069 246.483 141.1C246.499 141.519 246.63 141.86 246.879 142.124C247.127 142.372 247.452 142.55 247.856 142.659C248.259 142.767 248.686 142.822 249.136 142.822C249.539 142.822 249.919 142.783 250.276 142.705C250.648 142.612 250.95 142.473 251.183 142.286C251.431 142.085 251.555 141.829 251.555 141.519C251.555 141.115 251.4 140.805 251.09 140.588C250.78 140.371 250.369 140.192 249.857 140.053C249.36 139.913 248.825 139.766 248.251 139.611C247.739 139.471 247.228 139.316 246.716 139.145C246.204 138.975 245.738 138.757 245.32 138.494C244.916 138.23 244.583 137.889 244.319 137.47C244.071 137.051 243.947 136.532 243.947 135.911C243.947 135.306 244.079 134.779 244.342 134.329C244.606 133.879 244.971 133.507 245.436 133.212C245.901 132.902 246.452 132.669 247.088 132.514C247.724 132.359 248.414 132.281 249.159 132.281C249.888 132.281 250.547 132.359 251.137 132.514C251.742 132.669 252.261 132.894 252.696 133.189C253.145 133.468 253.487 133.817 253.719 134.236C253.968 134.639 254.092 135.089 254.092 135.585C254.092 135.694 254.084 135.802 254.068 135.911C254.068 136.02 254.068 136.082 254.068 136.097H251.299V135.934C251.299 135.64 251.206 135.391 251.02 135.19C250.85 134.973 250.594 134.802 250.252 134.678C249.927 134.554 249.516 134.492 249.019 134.492C248.647 134.492 248.321 134.523 248.042 134.585C247.763 134.647 247.53 134.732 247.344 134.841C247.173 134.949 247.041 135.073 246.948 135.213C246.855 135.353 246.809 135.508 246.809 135.678C246.809 135.973 246.925 136.206 247.158 136.376C247.39 136.547 247.701 136.694 248.088 136.818C248.492 136.943 248.926 137.074 249.391 137.214C249.95 137.369 250.524 137.532 251.113 137.703C251.703 137.858 252.246 138.059 252.742 138.308C253.254 138.556 253.665 138.905 253.975 139.355C254.286 139.805 254.441 140.402 254.441 141.146C254.441 141.86 254.301 142.473 254.022 142.984C253.758 143.481 253.378 143.884 252.882 144.194C252.401 144.489 251.827 144.706 251.16 144.846C250.508 144.986 249.795 145.055 249.019 145.055ZM264.73 145.055C263.97 145.055 263.373 144.908 262.938 144.613C262.504 144.303 262.194 143.915 262.008 143.45C261.837 142.969 261.752 142.48 261.752 141.984V134.864H260.286V132.537H261.821L262.333 129.117H264.59V132.537H266.708V134.864H264.59V141.705C264.59 142.031 264.676 142.286 264.846 142.473C265.017 142.643 265.273 142.729 265.614 142.729H266.708V144.683C266.553 144.745 266.359 144.799 266.126 144.846C265.909 144.908 265.676 144.955 265.428 144.986C265.18 145.032 264.947 145.055 264.73 145.055ZM272.698 145.055C271.519 145.055 270.558 144.737 269.813 144.101C269.084 143.45 268.719 142.348 268.719 140.797V132.537H271.558V140.285C271.558 140.72 271.605 141.084 271.698 141.379C271.806 141.658 271.954 141.891 272.14 142.077C272.341 142.248 272.582 142.372 272.861 142.449C273.14 142.527 273.451 142.566 273.792 142.566C274.304 142.566 274.761 142.442 275.165 142.193C275.583 141.945 275.909 141.604 276.142 141.17C276.39 140.72 276.514 140.216 276.514 139.657V132.537H279.353V144.776H277.003L276.77 143.147H276.607C276.328 143.52 275.994 143.853 275.607 144.148C275.234 144.427 274.8 144.644 274.304 144.799C273.823 144.97 273.288 145.055 272.698 145.055ZM291.806 145.055C290.922 145.055 290.146 144.962 289.479 144.776C288.812 144.574 288.254 144.303 287.804 143.962C287.354 143.62 287.013 143.225 286.78 142.775C286.563 142.31 286.454 141.806 286.454 141.263C286.454 141.185 286.454 141.115 286.454 141.053C286.47 140.991 286.478 140.945 286.478 140.914H289.27C289.27 140.945 289.27 140.976 289.27 141.007C289.27 141.038 289.27 141.069 289.27 141.1C289.285 141.519 289.417 141.86 289.665 142.124C289.913 142.372 290.239 142.55 290.642 142.659C291.046 142.767 291.472 142.822 291.922 142.822C292.326 142.822 292.706 142.783 293.062 142.705C293.435 142.612 293.737 142.473 293.97 142.286C294.218 142.085 294.342 141.829 294.342 141.519C294.342 141.115 294.187 140.805 293.877 140.588C293.567 140.371 293.155 140.192 292.644 140.053C292.147 139.913 291.612 139.766 291.038 139.611C290.526 139.471 290.014 139.316 289.502 139.145C288.99 138.975 288.525 138.757 288.106 138.494C287.703 138.23 287.369 137.889 287.106 137.47C286.858 137.051 286.733 136.532 286.733 135.911C286.733 135.306 286.865 134.779 287.129 134.329C287.393 133.879 287.757 133.507 288.223 133.212C288.688 132.902 289.239 132.669 289.875 132.514C290.511 132.359 291.201 132.281 291.946 132.281C292.675 132.281 293.334 132.359 293.923 132.514C294.528 132.669 295.048 132.894 295.482 133.189C295.932 133.468 296.273 133.817 296.506 134.236C296.754 134.639 296.878 135.089 296.878 135.585C296.878 135.694 296.871 135.802 296.855 135.911C296.855 136.02 296.855 136.082 296.855 136.097H294.086V135.934C294.086 135.64 293.993 135.391 293.807 135.19C293.636 134.973 293.38 134.802 293.039 134.678C292.713 134.554 292.302 134.492 291.806 134.492C291.434 134.492 291.108 134.523 290.829 134.585C290.549 134.647 290.317 134.732 290.131 134.841C289.96 134.949 289.828 135.073 289.735 135.213C289.642 135.353 289.595 135.508 289.595 135.678C289.595 135.973 289.712 136.206 289.944 136.376C290.177 136.547 290.487 136.694 290.875 136.818C291.278 136.943 291.713 137.074 292.178 137.214C292.737 137.369 293.311 137.532 293.9 137.703C294.489 137.858 295.032 138.059 295.529 138.308C296.041 138.556 296.452 138.905 296.762 139.355C297.072 139.805 297.227 140.402 297.227 141.146C297.227 141.86 297.088 142.473 296.809 142.984C296.545 143.481 296.165 143.884 295.668 144.194C295.188 144.489 294.614 144.706 293.947 144.846C293.295 144.986 292.581 145.055 291.806 145.055ZM304.883 145.055C303.58 145.055 302.494 144.83 301.625 144.381C300.757 143.915 300.105 143.209 299.671 142.263C299.236 141.317 299.019 140.115 299.019 138.657C299.019 137.183 299.236 135.981 299.671 135.05C300.105 134.104 300.757 133.406 301.625 132.956C302.494 132.491 303.58 132.258 304.883 132.258C306.062 132.258 307.047 132.483 307.838 132.933C308.645 133.367 309.249 134.042 309.653 134.957C310.056 135.872 310.258 137.059 310.258 138.517V139.355H301.928C301.959 140.115 302.075 140.759 302.277 141.286C302.478 141.798 302.789 142.186 303.208 142.449C303.642 142.698 304.208 142.822 304.906 142.822C305.263 142.822 305.596 142.775 305.907 142.682C306.217 142.589 306.488 142.449 306.721 142.263C306.954 142.062 307.132 141.813 307.256 141.519C307.396 141.224 307.466 140.883 307.466 140.495H310.258C310.258 141.27 310.118 141.945 309.839 142.519C309.575 143.093 309.195 143.566 308.699 143.938C308.218 144.311 307.652 144.59 307 144.776C306.349 144.962 305.643 145.055 304.883 145.055ZM301.974 137.354H307.303C307.303 136.842 307.241 136.407 307.117 136.051C307.008 135.694 306.845 135.399 306.628 135.166C306.426 134.934 306.178 134.771 305.883 134.678C305.589 134.569 305.255 134.515 304.883 134.515C304.278 134.515 303.766 134.616 303.347 134.817C302.944 135.019 302.634 135.329 302.416 135.748C302.199 136.167 302.052 136.702 301.974 137.354ZM317.437 145.055C316.553 145.055 315.777 144.962 315.11 144.776C314.443 144.574 313.885 144.303 313.435 143.962C312.985 143.62 312.644 143.225 312.411 142.775C312.194 142.31 312.085 141.806 312.085 141.263C312.085 141.185 312.085 141.115 312.085 141.053C312.101 140.991 312.109 140.945 312.109 140.914H314.901C314.901 140.945 314.901 140.976 314.901 141.007C314.901 141.038 314.901 141.069 314.901 141.1C314.916 141.519 315.048 141.86 315.296 142.124C315.545 142.372 315.87 142.55 316.274 142.659C316.677 142.767 317.104 142.822 317.553 142.822C317.957 142.822 318.337 142.783 318.693 142.705C319.066 142.612 319.368 142.473 319.601 142.286C319.849 142.085 319.973 141.829 319.973 141.519C319.973 141.115 319.818 140.805 319.508 140.588C319.198 140.371 318.787 140.192 318.275 140.053C317.778 139.913 317.243 139.766 316.669 139.611C316.157 139.471 315.645 139.316 315.133 139.145C314.622 138.975 314.156 138.757 313.737 138.494C313.334 138.23 313.001 137.889 312.737 137.47C312.489 137.051 312.365 136.532 312.365 135.911C312.365 135.306 312.496 134.779 312.76 134.329C313.024 133.879 313.388 133.507 313.854 133.212C314.319 132.902 314.87 132.669 315.506 132.514C316.142 132.359 316.832 132.281 317.577 132.281C318.306 132.281 318.965 132.359 319.554 132.514C320.159 132.669 320.679 132.894 321.113 133.189C321.563 133.468 321.904 133.817 322.137 134.236C322.385 134.639 322.509 135.089 322.509 135.585C322.509 135.694 322.502 135.802 322.486 135.911C322.486 136.02 322.486 136.082 322.486 136.097H319.717V135.934C319.717 135.64 319.624 135.391 319.438 135.19C319.267 134.973 319.011 134.802 318.67 134.678C318.344 134.554 317.933 134.492 317.437 134.492C317.065 134.492 316.739 134.523 316.46 134.585C316.181 134.647 315.948 134.732 315.762 134.841C315.591 134.949 315.459 135.073 315.366 135.213C315.273 135.353 315.227 135.508 315.227 135.678C315.227 135.973 315.343 136.206 315.576 136.376C315.808 136.547 316.118 136.694 316.506 136.818C316.91 136.943 317.344 137.074 317.809 137.214C318.368 137.369 318.942 137.532 319.531 137.703C320.121 137.858 320.664 138.059 321.16 138.308C321.672 138.556 322.083 138.905 322.393 139.355C322.703 139.805 322.858 140.402 322.858 141.146C322.858 141.86 322.719 142.473 322.44 142.984C322.176 143.481 321.796 143.884 321.299 144.194C320.819 144.489 320.245 144.706 319.578 144.846C318.926 144.986 318.213 145.055 317.437 145.055ZM325.255 130.652V127.953H328.094V130.652H325.255ZM325.255 144.776V132.537H328.094V144.776H325.255ZM336.563 145.055C335.229 145.055 334.112 144.83 333.212 144.381C332.312 143.915 331.638 143.209 331.188 142.263C330.738 141.317 330.513 140.115 330.513 138.657C330.513 137.183 330.738 135.981 331.188 135.05C331.638 134.104 332.312 133.406 333.212 132.956C334.112 132.491 335.229 132.258 336.563 132.258C337.912 132.258 339.029 132.491 339.913 132.956C340.813 133.406 341.488 134.104 341.937 135.05C342.387 135.981 342.612 137.183 342.612 138.657C342.612 140.115 342.387 141.317 341.937 142.263C341.488 143.209 340.813 143.915 339.913 144.381C339.029 144.83 337.912 145.055 336.563 145.055ZM336.563 142.729C337.307 142.729 337.904 142.589 338.354 142.31C338.82 142.015 339.153 141.581 339.355 141.007C339.572 140.417 339.68 139.688 339.68 138.82V138.494C339.68 137.625 339.572 136.904 339.355 136.33C339.153 135.74 338.82 135.306 338.354 135.027C337.904 134.732 337.307 134.585 336.563 134.585C335.818 134.585 335.213 134.732 334.748 135.027C334.298 135.306 333.964 135.74 333.747 136.33C333.545 136.904 333.445 137.625 333.445 138.494V138.82C333.445 139.688 333.545 140.417 333.747 141.007C333.964 141.581 334.298 142.015 334.748 142.31C335.213 142.589 335.818 142.729 336.563 142.729ZM335.05 131.025L336.935 127.953H339.89L339.913 128.023L337.4 131.025H335.05ZM345.024 144.776V132.537H347.397L347.63 134.166H347.793C348.072 133.794 348.398 133.468 348.77 133.189C349.158 132.894 349.592 132.669 350.073 132.514C350.57 132.343 351.113 132.258 351.702 132.258C352.478 132.258 353.16 132.398 353.75 132.677C354.355 132.956 354.828 133.406 355.169 134.026C355.51 134.647 355.681 135.477 355.681 136.516V144.776H352.819V137.028C352.819 136.594 352.765 136.237 352.656 135.958C352.563 135.663 352.416 135.43 352.214 135.26C352.028 135.073 351.795 134.942 351.516 134.864C351.237 134.786 350.926 134.748 350.585 134.748C350.073 134.748 349.608 134.872 349.189 135.12C348.786 135.368 348.46 135.709 348.212 136.144C347.979 136.578 347.863 137.082 347.863 137.656V144.776H345.024ZM363.27 148.801V132.537H365.62L365.853 134.166H366.016C366.419 133.53 366.947 133.057 367.598 132.747C368.25 132.421 368.971 132.258 369.762 132.258C370.77 132.258 371.631 132.483 372.345 132.933C373.074 133.383 373.632 134.081 374.02 135.027C374.423 135.973 374.625 137.191 374.625 138.68C374.625 140.138 374.423 141.34 374.02 142.286C373.617 143.233 373.058 143.931 372.345 144.381C371.647 144.83 370.84 145.055 369.925 145.055C369.367 145.055 368.855 144.993 368.389 144.869C367.924 144.745 367.513 144.559 367.156 144.311C366.799 144.047 366.497 143.729 366.249 143.357H366.109V148.801H363.27ZM368.878 142.612C369.576 142.612 370.127 142.48 370.53 142.217C370.949 141.937 371.244 141.519 371.414 140.96C371.6 140.402 371.693 139.696 371.693 138.843V138.517C371.693 137.648 371.6 136.935 371.414 136.376C371.244 135.802 370.949 135.384 370.53 135.12C370.127 134.841 369.576 134.701 368.878 134.701C368.242 134.701 367.715 134.848 367.296 135.143C366.892 135.438 366.59 135.872 366.388 136.446C366.202 137.005 366.109 137.695 366.109 138.517V138.796C366.109 139.401 366.163 139.944 366.272 140.425C366.381 140.89 366.543 141.286 366.761 141.612C366.993 141.937 367.28 142.186 367.621 142.356C367.978 142.527 368.397 142.612 368.878 142.612ZM382.485 145.055C381.151 145.055 380.034 144.83 379.134 144.381C378.235 143.915 377.56 143.209 377.11 142.263C376.66 141.317 376.435 140.115 376.435 138.657C376.435 137.183 376.66 135.981 377.11 135.05C377.56 134.104 378.235 133.406 379.134 132.956C380.034 132.491 381.151 132.258 382.485 132.258C383.835 132.258 384.951 132.491 385.836 132.956C386.735 133.406 387.41 134.104 387.86 135.05C388.31 135.981 388.535 137.183 388.535 138.657C388.535 140.115 388.31 141.317 387.86 142.263C387.41 143.209 386.735 143.915 385.836 144.381C384.951 144.83 383.835 145.055 382.485 145.055ZM382.485 142.729C383.23 142.729 383.827 142.589 384.277 142.31C384.742 142.015 385.075 141.581 385.277 141.007C385.494 140.417 385.603 139.688 385.603 138.82V138.494C385.603 137.625 385.494 136.904 385.277 136.33C385.075 135.74 384.742 135.306 384.277 135.027C383.827 134.732 383.23 134.585 382.485 134.585C381.74 134.585 381.135 134.732 380.67 135.027C380.22 135.306 379.887 135.74 379.67 136.33C379.468 136.904 379.367 137.625 379.367 138.494V138.82C379.367 139.688 379.468 140.417 379.67 141.007C379.887 141.581 380.22 142.015 380.67 142.31C381.135 142.589 381.74 142.729 382.485 142.729ZM390.947 144.776V132.537H393.32L393.553 134.468H393.715C393.871 134.081 394.057 133.724 394.274 133.398C394.507 133.057 394.801 132.785 395.158 132.584C395.515 132.367 395.949 132.258 396.461 132.258C396.709 132.258 396.934 132.281 397.136 132.328C397.353 132.374 397.516 132.421 397.624 132.467V135.143H396.764C396.283 135.143 395.856 135.213 395.484 135.353C395.111 135.477 394.793 135.678 394.53 135.958C394.282 136.237 394.095 136.586 393.971 137.005C393.847 137.423 393.785 137.912 393.785 138.471V144.776H390.947ZM403.58 144.776V132.537H405.954L406.186 134.468H406.349C406.504 134.081 406.69 133.724 406.908 133.398C407.14 133.057 407.435 132.785 407.792 132.584C408.149 132.367 408.583 132.258 409.095 132.258C409.343 132.258 409.568 132.281 409.77 132.328C409.987 132.374 410.15 132.421 410.258 132.467V135.143H409.397C408.916 135.143 408.49 135.213 408.118 135.353C407.745 135.477 407.427 135.678 407.164 135.958C406.915 136.237 406.729 136.586 406.605 137.005C406.481 137.423 406.419 137.912 406.419 138.471V144.776H403.58ZM414.924 145.055C414.583 145.055 414.188 145.009 413.738 144.916C413.303 144.838 412.877 144.683 412.458 144.45C412.055 144.218 411.721 143.876 411.457 143.427C411.194 142.961 411.062 142.356 411.062 141.612C411.062 140.774 411.248 140.084 411.62 139.541C411.993 138.982 412.512 138.548 413.179 138.238C413.862 137.912 414.668 137.687 415.599 137.563C416.545 137.423 417.577 137.354 418.694 137.354V136.353C418.694 135.996 418.639 135.678 418.531 135.399C418.422 135.12 418.221 134.903 417.926 134.748C417.647 134.577 417.22 134.492 416.646 134.492C416.072 134.492 415.622 134.561 415.297 134.701C414.971 134.841 414.746 135.011 414.622 135.213C414.498 135.415 414.436 135.624 414.436 135.841V136.167H411.69C411.675 136.089 411.667 136.012 411.667 135.934C411.667 135.857 411.667 135.764 411.667 135.655C411.667 134.957 411.876 134.352 412.295 133.84C412.714 133.328 413.296 132.94 414.04 132.677C414.785 132.398 415.646 132.258 416.623 132.258C417.74 132.258 418.655 132.413 419.369 132.723C420.098 133.034 420.641 133.476 420.997 134.05C421.354 134.624 421.532 135.322 421.532 136.144V141.914C421.532 142.209 421.618 142.418 421.788 142.542C421.959 142.666 422.145 142.729 422.347 142.729H423.091V144.683C422.936 144.745 422.711 144.815 422.417 144.892C422.122 144.986 421.757 145.032 421.323 145.032C420.92 145.032 420.555 144.962 420.229 144.823C419.919 144.699 419.655 144.512 419.438 144.264C419.221 144.016 419.066 143.721 418.973 143.38H418.833C418.57 143.706 418.252 144.001 417.879 144.264C417.523 144.512 417.096 144.706 416.6 144.846C416.119 144.986 415.56 145.055 414.924 145.055ZM415.785 142.729C416.251 142.729 416.662 142.659 417.018 142.519C417.391 142.38 417.693 142.186 417.926 141.937C418.174 141.689 418.36 141.387 418.484 141.03C418.624 140.673 418.694 140.285 418.694 139.867V139.308C417.841 139.308 417.049 139.362 416.32 139.471C415.607 139.58 415.033 139.781 414.599 140.076C414.18 140.371 413.97 140.79 413.97 141.332C413.97 141.612 414.032 141.86 414.157 142.077C414.296 142.279 414.498 142.442 414.761 142.566C415.041 142.674 415.382 142.729 415.785 142.729ZM423.758 144.776V143.45L429.948 134.864H424.154V132.537H434.089V133.84L427.877 142.449H434.345V144.776H423.758ZM441.541 145.055C440.207 145.055 439.09 144.83 438.19 144.381C437.291 143.915 436.616 143.209 436.166 142.263C435.716 141.317 435.491 140.115 435.491 138.657C435.491 137.183 435.716 135.981 436.166 135.05C436.616 134.104 437.291 133.406 438.19 132.956C439.09 132.491 440.207 132.258 441.541 132.258C442.891 132.258 444.007 132.491 444.892 132.956C445.791 133.406 446.466 134.104 446.916 135.05C447.366 135.981 447.591 137.183 447.591 138.657C447.591 140.115 447.366 141.317 446.916 142.263C446.466 143.209 445.791 143.915 444.892 144.381C444.007 144.83 442.891 145.055 441.541 145.055ZM441.541 142.729C442.286 142.729 442.883 142.589 443.333 142.31C443.798 142.015 444.132 141.581 444.333 141.007C444.55 140.417 444.659 139.688 444.659 138.82V138.494C444.659 137.625 444.55 136.904 444.333 136.33C444.132 135.74 443.798 135.306 443.333 135.027C442.883 134.732 442.286 134.585 441.541 134.585C440.797 134.585 440.192 134.732 439.726 135.027C439.276 135.306 438.943 135.74 438.726 136.33C438.524 136.904 438.423 137.625 438.423 138.494V138.82C438.423 139.688 438.524 140.417 438.726 141.007C438.943 141.581 439.276 142.015 439.726 142.31C440.192 142.589 440.797 142.729 441.541 142.729ZM450.003 144.776V132.537H452.376L452.609 134.166H452.772C453.051 133.794 453.376 133.468 453.749 133.189C454.137 132.894 454.571 132.669 455.052 132.514C455.548 132.343 456.091 132.258 456.681 132.258C457.456 132.258 458.139 132.398 458.728 132.677C459.333 132.956 459.806 133.406 460.147 134.026C460.489 134.647 460.659 135.477 460.659 136.516V144.776H457.797V137.028C457.797 136.594 457.743 136.237 457.635 135.958C457.541 135.663 457.394 135.43 457.192 135.26C457.006 135.073 456.774 134.942 456.494 134.864C456.215 134.786 455.905 134.748 455.564 134.748C455.052 134.748 454.586 134.872 454.168 135.12C453.764 135.368 453.439 135.709 453.19 136.144C452.958 136.578 452.841 137.082 452.841 137.656V144.776H450.003ZM468.849 145.055C467.546 145.055 466.46 144.83 465.592 144.381C464.723 143.915 464.072 143.209 463.637 142.263C463.203 141.317 462.986 140.115 462.986 138.657C462.986 137.183 463.203 135.981 463.637 135.05C464.072 134.104 464.723 133.406 465.592 132.956C466.46 132.491 467.546 132.258 468.849 132.258C470.028 132.258 471.013 132.483 471.804 132.933C472.611 133.367 473.216 134.042 473.619 134.957C474.023 135.872 474.224 137.059 474.224 138.517V139.355H465.894C465.925 140.115 466.042 140.759 466.243 141.286C466.445 141.798 466.755 142.186 467.174 142.449C467.608 142.698 468.175 142.822 468.873 142.822C469.229 142.822 469.563 142.775 469.873 142.682C470.183 142.589 470.455 142.449 470.687 142.263C470.92 142.062 471.099 141.813 471.223 141.519C471.362 141.224 471.432 140.883 471.432 140.495H474.224C474.224 141.27 474.085 141.945 473.805 142.519C473.542 143.093 473.162 143.566 472.665 143.938C472.184 144.311 471.618 144.59 470.967 144.776C470.315 144.962 469.609 145.055 468.849 145.055ZM465.941 137.354H471.269C471.269 136.842 471.207 136.407 471.083 136.051C470.974 135.694 470.812 135.399 470.594 135.166C470.393 134.934 470.145 134.771 469.85 134.678C469.555 134.569 469.222 134.515 468.849 134.515C468.244 134.515 467.732 134.616 467.314 134.817C466.91 135.019 466.6 135.329 466.383 135.748C466.166 136.167 466.018 136.702 465.941 137.354ZM481.403 145.055C480.519 145.055 479.744 144.962 479.077 144.776C478.41 144.574 477.851 144.303 477.401 143.962C476.952 143.62 476.61 143.225 476.378 142.775C476.16 142.31 476.052 141.806 476.052 141.263C476.052 141.185 476.052 141.115 476.052 141.053C476.067 140.991 476.075 140.945 476.075 140.914H478.867C478.867 140.945 478.867 140.976 478.867 141.007C478.867 141.038 478.867 141.069 478.867 141.1C478.883 141.519 479.015 141.86 479.263 142.124C479.511 142.372 479.837 142.55 480.24 142.659C480.643 142.767 481.07 142.822 481.52 142.822C481.923 142.822 482.303 142.783 482.66 142.705C483.032 142.612 483.335 142.473 483.567 142.286C483.816 142.085 483.94 141.829 483.94 141.519C483.94 141.115 483.785 140.805 483.474 140.588C483.164 140.371 482.753 140.192 482.241 140.053C481.745 139.913 481.21 139.766 480.636 139.611C480.124 139.471 479.612 139.316 479.1 139.145C478.588 138.975 478.123 138.757 477.704 138.494C477.301 138.23 476.967 137.889 476.703 137.47C476.455 137.051 476.331 136.532 476.331 135.911C476.331 135.306 476.463 134.779 476.727 134.329C476.99 133.879 477.355 133.507 477.82 133.212C478.286 132.902 478.836 132.669 479.472 132.514C480.108 132.359 480.799 132.281 481.543 132.281C482.272 132.281 482.931 132.359 483.521 132.514C484.126 132.669 484.645 132.894 485.08 133.189C485.53 133.468 485.871 133.817 486.104 134.236C486.352 134.639 486.476 135.089 486.476 135.585C486.476 135.694 486.468 135.802 486.453 135.911C486.453 136.02 486.453 136.082 486.453 136.097H483.684V135.934C483.684 135.64 483.591 135.391 483.405 135.19C483.234 134.973 482.978 134.802 482.637 134.678C482.311 134.554 481.9 134.492 481.403 134.492C481.031 134.492 480.705 134.523 480.426 134.585C480.147 134.647 479.914 134.732 479.728 134.841C479.558 134.949 479.426 135.073 479.333 135.213C479.24 135.353 479.193 135.508 479.193 135.678C479.193 135.973 479.309 136.206 479.542 136.376C479.775 136.547 480.085 136.694 480.473 136.818C480.876 136.943 481.31 137.074 481.776 137.214C482.334 137.369 482.908 137.532 483.498 137.703C484.087 137.858 484.63 138.059 485.126 138.308C485.638 138.556 486.049 138.905 486.36 139.355C486.67 139.805 486.825 140.402 486.825 141.146C486.825 141.86 486.685 142.473 486.406 142.984C486.142 143.481 485.762 143.884 485.266 144.194C484.785 144.489 484.211 144.706 483.544 144.846C482.893 144.986 482.179 145.055 481.403 145.055ZM498.138 145.055C497.145 145.055 496.284 144.83 495.555 144.381C494.826 143.931 494.26 143.233 493.857 142.286C493.469 141.34 493.275 140.123 493.275 138.633C493.275 137.16 493.477 135.958 493.88 135.027C494.283 134.081 494.842 133.383 495.555 132.933C496.269 132.483 497.075 132.258 497.975 132.258C498.534 132.258 499.045 132.32 499.511 132.444C499.976 132.568 500.387 132.762 500.744 133.026C501.101 133.274 501.403 133.584 501.652 133.957H501.791V127.953H504.63V144.776H502.28L502.047 143.147H501.884C501.496 143.783 500.969 144.264 500.302 144.59C499.65 144.9 498.929 145.055 498.138 145.055ZM499.022 142.612C499.674 142.612 500.201 142.465 500.604 142.17C501.008 141.875 501.302 141.449 501.489 140.89C501.69 140.332 501.791 139.649 501.791 138.843V138.54C501.791 137.935 501.737 137.392 501.628 136.912C501.52 136.431 501.349 136.027 501.116 135.702C500.899 135.376 500.612 135.128 500.255 134.957C499.914 134.786 499.503 134.701 499.022 134.701C498.324 134.701 497.766 134.841 497.347 135.12C496.944 135.384 496.649 135.802 496.463 136.376C496.292 136.935 496.207 137.648 496.207 138.517V138.843C496.207 139.696 496.292 140.402 496.463 140.96C496.649 141.519 496.944 141.937 497.347 142.217C497.766 142.48 498.324 142.612 499.022 142.612ZM512.908 145.055C511.605 145.055 510.52 144.83 509.651 144.381C508.782 143.915 508.131 143.209 507.696 142.263C507.262 141.317 507.045 140.115 507.045 138.657C507.045 137.183 507.262 135.981 507.696 135.05C508.131 134.104 508.782 133.406 509.651 132.956C510.52 132.491 511.605 132.258 512.908 132.258C514.087 132.258 515.072 132.483 515.863 132.933C516.67 133.367 517.275 134.042 517.678 134.957C518.082 135.872 518.283 137.059 518.283 138.517V139.355H509.953C509.984 140.115 510.101 140.759 510.302 141.286C510.504 141.798 510.814 142.186 511.233 142.449C511.668 142.698 512.234 142.822 512.932 142.822C513.289 142.822 513.622 142.775 513.932 142.682C514.242 142.589 514.514 142.449 514.747 142.263C514.979 142.062 515.158 141.813 515.282 141.519C515.421 141.224 515.491 140.883 515.491 140.495H518.283C518.283 141.27 518.144 141.945 517.865 142.519C517.601 143.093 517.221 143.566 516.724 143.938C516.244 144.311 515.677 144.59 515.026 144.776C514.374 144.962 513.669 145.055 512.908 145.055ZM510 137.354H515.328C515.328 136.842 515.266 136.407 515.142 136.051C515.034 135.694 514.871 135.399 514.654 135.166C514.452 134.934 514.204 134.771 513.909 134.678C513.614 134.569 513.281 134.515 512.908 134.515C512.303 134.515 511.792 134.616 511.373 134.817C510.969 135.019 510.659 135.329 510.442 135.748C510.225 136.167 510.078 136.702 510 137.354ZM530.121 145.055C529.237 145.055 528.461 144.962 527.794 144.776C527.127 144.574 526.569 144.303 526.119 143.962C525.669 143.62 525.328 143.225 525.095 142.775C524.878 142.31 524.769 141.806 524.769 141.263C524.769 141.185 524.769 141.115 524.769 141.053C524.785 140.991 524.792 140.945 524.792 140.914H527.585C527.585 140.945 527.585 140.976 527.585 141.007C527.585 141.038 527.585 141.069 527.585 141.1C527.6 141.519 527.732 141.86 527.98 142.124C528.228 142.372 528.554 142.55 528.957 142.659C529.361 142.767 529.787 142.822 530.237 142.822C530.64 142.822 531.02 142.783 531.377 142.705C531.75 142.612 532.052 142.473 532.285 142.286C532.533 142.085 532.657 141.829 532.657 141.519C532.657 141.115 532.502 140.805 532.192 140.588C531.881 140.371 531.47 140.192 530.958 140.053C530.462 139.913 529.927 139.766 529.353 139.611C528.841 139.471 528.329 139.316 527.817 139.145C527.305 138.975 526.84 138.757 526.421 138.494C526.018 138.23 525.684 137.889 525.421 137.47C525.172 137.051 525.048 136.532 525.048 135.911C525.048 135.306 525.18 134.779 525.444 134.329C525.708 133.879 526.072 133.507 526.537 133.212C527.003 132.902 527.554 132.669 528.19 132.514C528.826 132.359 529.516 132.281 530.26 132.281C530.989 132.281 531.649 132.359 532.238 132.514C532.843 132.669 533.363 132.894 533.797 133.189C534.247 133.468 534.588 133.817 534.821 134.236C535.069 134.639 535.193 135.089 535.193 135.585C535.193 135.694 535.185 135.802 535.17 135.911C535.17 136.02 535.17 136.082 535.17 136.097H532.401V135.934C532.401 135.64 532.308 135.391 532.122 135.19C531.951 134.973 531.695 134.802 531.354 134.678C531.028 134.554 530.617 134.492 530.121 134.492C529.748 134.492 529.423 134.523 529.144 134.585C528.864 134.647 528.632 134.732 528.445 134.841C528.275 134.949 528.143 135.073 528.05 135.213C527.957 135.353 527.91 135.508 527.91 135.678C527.91 135.973 528.027 136.206 528.259 136.376C528.492 136.547 528.802 136.694 529.19 136.818C529.593 136.943 530.028 137.074 530.493 137.214C531.051 137.369 531.625 137.532 532.215 137.703C532.804 137.858 533.347 138.059 533.844 138.308C534.356 138.556 534.767 138.905 535.077 139.355C535.387 139.805 535.542 140.402 535.542 141.146C535.542 141.86 535.403 142.473 535.123 142.984C534.86 143.481 534.48 143.884 533.983 144.194C533.502 144.489 532.928 144.706 532.261 144.846C531.61 144.986 530.896 145.055 530.121 145.055ZM543.198 145.055C541.895 145.055 540.809 144.83 539.94 144.381C539.072 143.915 538.42 143.209 537.986 142.263C537.551 141.317 537.334 140.115 537.334 138.657C537.334 137.183 537.551 135.981 537.986 135.05C538.42 134.104 539.072 133.406 539.94 132.956C540.809 132.491 541.895 132.258 543.198 132.258C544.377 132.258 545.362 132.483 546.153 132.933C546.959 133.367 547.564 134.042 547.968 134.957C548.371 135.872 548.573 137.059 548.573 138.517V139.355H540.243C540.274 140.115 540.39 140.759 540.592 141.286C540.793 141.798 541.104 142.186 541.522 142.449C541.957 142.698 542.523 142.822 543.221 142.822C543.578 142.822 543.911 142.775 544.222 142.682C544.532 142.589 544.803 142.449 545.036 142.263C545.269 142.062 545.447 141.813 545.571 141.519C545.711 141.224 545.78 140.883 545.78 140.495H548.573C548.573 141.27 548.433 141.945 548.154 142.519C547.89 143.093 547.51 143.566 547.014 143.938C546.533 144.311 545.967 144.59 545.315 144.776C544.664 144.962 543.958 145.055 543.198 145.055ZM540.289 137.354H545.618C545.618 136.842 545.556 136.407 545.431 136.051C545.323 135.694 545.16 135.399 544.943 135.166C544.741 134.934 544.493 134.771 544.198 134.678C543.904 134.569 543.57 134.515 543.198 134.515C542.593 134.515 542.081 134.616 541.662 134.817C541.259 135.019 540.948 135.329 540.731 135.748C540.514 136.167 540.367 136.702 540.289 137.354ZM553.006 149.011C552.463 149.011 551.951 148.902 551.471 148.685C550.99 148.468 550.602 148.142 550.307 147.708C550.012 147.289 549.865 146.769 549.865 146.149C549.865 145.466 550.059 144.931 550.447 144.543C550.85 144.14 551.292 143.838 551.773 143.636C551.416 143.45 551.122 143.202 550.889 142.891C550.672 142.581 550.563 142.209 550.563 141.775C550.563 141.185 550.78 140.72 551.215 140.378C551.649 140.022 552.145 139.789 552.704 139.68C552.13 139.324 551.688 138.866 551.378 138.308C551.083 137.749 550.935 137.113 550.935 136.4C550.935 135.546 551.137 134.817 551.54 134.212C551.959 133.592 552.564 133.111 553.355 132.77C554.146 132.429 555.1 132.258 556.217 132.258C556.667 132.258 557.101 132.289 557.52 132.351C557.939 132.413 558.319 132.506 558.66 132.63C559.203 132.304 559.576 131.94 559.777 131.537C559.979 131.118 560.087 130.777 560.103 130.513H562.872C562.872 131.056 562.763 131.537 562.546 131.955C562.344 132.374 562.058 132.723 561.685 133.003C561.313 133.266 560.863 133.46 560.336 133.584C560.723 133.925 561.018 134.337 561.22 134.817C561.422 135.298 561.522 135.826 561.522 136.4C561.522 137.253 561.321 137.99 560.917 138.61C560.53 139.231 559.948 139.711 559.172 140.053C558.412 140.394 557.474 140.565 556.357 140.565H554.472C554.146 140.565 553.89 140.634 553.704 140.774C553.534 140.914 553.448 141.108 553.448 141.356C553.448 141.557 553.526 141.736 553.681 141.891C553.852 142.046 554.084 142.124 554.379 142.124H559.731C560.646 142.124 561.398 142.426 561.988 143.031C562.593 143.62 562.895 144.381 562.895 145.311C562.895 146.009 562.709 146.638 562.337 147.196C561.98 147.754 561.476 148.197 560.824 148.522C560.173 148.848 559.413 149.011 558.544 149.011H553.006ZM554.03 146.963H558.521C558.816 146.963 559.071 146.909 559.289 146.8C559.521 146.707 559.7 146.568 559.824 146.382C559.963 146.195 560.033 145.986 560.033 145.753C560.033 145.35 559.901 145.048 559.638 144.846C559.389 144.644 559.079 144.543 558.707 144.543H554.03C553.658 144.543 553.348 144.652 553.099 144.869C552.851 145.102 552.727 145.397 552.727 145.753C552.727 146.11 552.843 146.397 553.076 146.614C553.324 146.847 553.642 146.963 554.03 146.963ZM556.241 138.564C557.063 138.564 557.675 138.377 558.079 138.005C558.498 137.617 558.707 137.082 558.707 136.4C558.707 135.717 558.498 135.19 558.079 134.817C557.675 134.445 557.063 134.259 556.241 134.259C555.418 134.259 554.798 134.445 554.379 134.817C553.976 135.19 553.774 135.717 553.774 136.4C553.774 136.85 553.859 137.237 554.03 137.563C554.216 137.889 554.488 138.137 554.844 138.308C555.217 138.478 555.682 138.564 556.241 138.564ZM568.615 145.055C567.436 145.055 566.474 144.737 565.73 144.101C565.001 143.45 564.636 142.348 564.636 140.797V132.537H567.475V140.285C567.475 140.72 567.521 141.084 567.614 141.379C567.723 141.658 567.87 141.891 568.056 142.077C568.258 142.248 568.499 142.372 568.778 142.449C569.057 142.527 569.367 142.566 569.708 142.566C570.22 142.566 570.678 142.442 571.081 142.193C571.5 141.945 571.826 141.604 572.059 141.17C572.307 140.72 572.431 140.216 572.431 139.657V132.537H575.27V144.776H572.919L572.687 143.147H572.524C572.245 143.52 571.911 143.853 571.523 144.148C571.151 144.427 570.717 144.644 570.22 144.799C569.74 144.97 569.204 145.055 568.615 145.055ZM578.295 144.776V132.537H580.668L580.901 134.468H581.063C581.219 134.081 581.405 133.724 581.622 133.398C581.855 133.057 582.149 132.785 582.506 132.584C582.863 132.367 583.297 132.258 583.809 132.258C584.057 132.258 584.282 132.281 584.484 132.328C584.701 132.374 584.864 132.421 584.972 132.467V135.143H584.112C583.631 135.143 583.204 135.213 582.832 135.353C582.46 135.477 582.142 135.678 581.878 135.958C581.63 136.237 581.443 136.586 581.319 137.005C581.195 137.423 581.133 137.912 581.133 138.471V144.776H578.295ZM586.725 130.652V127.953H589.563V130.652H586.725ZM586.725 144.776V132.537H589.563V144.776H586.725ZM596.845 145.055C595.852 145.055 594.991 144.83 594.262 144.381C593.533 143.931 592.967 143.233 592.564 142.286C592.176 141.34 591.982 140.123 591.982 138.633C591.982 137.16 592.184 135.958 592.587 135.027C592.99 134.081 593.549 133.383 594.262 132.933C594.976 132.483 595.783 132.258 596.682 132.258C597.241 132.258 597.753 132.32 598.218 132.444C598.683 132.568 599.094 132.762 599.451 133.026C599.808 133.274 600.11 133.584 600.359 133.957H600.498V127.953H603.337V144.776H600.987L600.754 143.147H600.591C600.203 143.783 599.676 144.264 599.009 144.59C598.358 144.9 597.636 145.055 596.845 145.055ZM597.729 142.612C598.381 142.612 598.908 142.465 599.312 142.17C599.715 141.875 600.01 141.449 600.196 140.89C600.397 140.332 600.498 139.649 600.498 138.843V138.54C600.498 137.935 600.444 137.392 600.335 136.912C600.227 136.431 600.056 136.027 599.823 135.702C599.606 135.376 599.319 135.128 598.962 134.957C598.621 134.786 598.21 134.701 597.729 134.701C597.031 134.701 596.473 134.841 596.054 135.12C595.651 135.384 595.356 135.802 595.17 136.376C594.999 136.935 594.914 137.648 594.914 138.517V138.843C594.914 139.696 594.999 140.402 595.17 140.96C595.356 141.519 595.651 141.937 596.054 142.217C596.473 142.48 597.031 142.612 597.729 142.612ZM609.498 145.055C609.157 145.055 608.761 145.009 608.312 144.916C607.877 144.838 607.451 144.683 607.032 144.45C606.628 144.218 606.295 143.876 606.031 143.427C605.768 142.961 605.636 142.356 605.636 141.612C605.636 140.774 605.822 140.084 606.194 139.541C606.566 138.982 607.086 138.548 607.753 138.238C608.436 137.912 609.242 137.687 610.173 137.563C611.119 137.423 612.151 137.354 613.268 137.354V136.353C613.268 135.996 613.213 135.678 613.105 135.399C612.996 135.12 612.794 134.903 612.5 134.748C612.221 134.577 611.794 134.492 611.22 134.492C610.646 134.492 610.196 134.561 609.87 134.701C609.545 134.841 609.32 135.011 609.196 135.213C609.072 135.415 609.01 135.624 609.01 135.841V136.167H606.264C606.248 136.089 606.241 136.012 606.241 135.934C606.241 135.857 606.241 135.764 606.241 135.655C606.241 134.957 606.45 134.352 606.869 133.84C607.288 133.328 607.869 132.94 608.614 132.677C609.359 132.398 610.219 132.258 611.197 132.258C612.314 132.258 613.229 132.413 613.942 132.723C614.671 133.034 615.214 133.476 615.571 134.05C615.928 134.624 616.106 135.322 616.106 136.144V141.914C616.106 142.209 616.192 142.418 616.362 142.542C616.533 142.666 616.719 142.729 616.921 142.729H617.665V144.683C617.51 144.745 617.285 144.815 616.99 144.892C616.696 144.986 616.331 145.032 615.897 145.032C615.494 145.032 615.129 144.962 614.803 144.823C614.493 144.699 614.229 144.512 614.012 144.264C613.795 144.016 613.64 143.721 613.547 143.38H613.407C613.143 143.706 612.825 144.001 612.453 144.264C612.096 144.512 611.67 144.706 611.173 144.846C610.693 144.986 610.134 145.055 609.498 145.055ZM610.359 142.729C610.824 142.729 611.236 142.659 611.592 142.519C611.965 142.38 612.267 142.186 612.5 141.937C612.748 141.689 612.934 141.387 613.058 141.03C613.198 140.673 613.268 140.285 613.268 139.867V139.308C612.414 139.308 611.623 139.362 610.894 139.471C610.181 139.58 609.607 139.781 609.172 140.076C608.754 140.371 608.544 140.79 608.544 141.332C608.544 141.612 608.606 141.86 608.73 142.077C608.87 142.279 609.072 142.442 609.335 142.566C609.615 142.674 609.956 142.729 610.359 142.729ZM623.544 145.055C622.551 145.055 621.691 144.83 620.961 144.381C620.232 143.931 619.666 143.233 619.263 142.286C618.875 141.34 618.681 140.123 618.681 138.633C618.681 137.16 618.883 135.958 619.286 135.027C619.689 134.081 620.248 133.383 620.961 132.933C621.675 132.483 622.482 132.258 623.381 132.258C623.94 132.258 624.452 132.32 624.917 132.444C625.382 132.568 625.793 132.762 626.15 133.026C626.507 133.274 626.809 133.584 627.058 133.957H627.197V127.953H630.036V144.776H627.686L627.453 143.147H627.29C626.903 143.783 626.375 144.264 625.708 144.59C625.057 144.9 624.335 145.055 623.544 145.055ZM624.428 142.612C625.08 142.612 625.607 142.465 626.011 142.17C626.414 141.875 626.709 141.449 626.895 140.89C627.096 140.332 627.197 139.649 627.197 138.843V138.54C627.197 137.935 627.143 137.392 627.034 136.912C626.926 136.431 626.755 136.027 626.522 135.702C626.305 135.376 626.018 135.128 625.662 134.957C625.32 134.786 624.909 134.701 624.428 134.701C623.73 134.701 623.172 134.841 622.753 135.12C622.35 135.384 622.055 135.802 621.869 136.376C621.698 136.935 621.613 137.648 621.613 138.517V138.843C621.613 139.696 621.698 140.402 621.869 140.96C622.055 141.519 622.35 141.937 622.753 142.217C623.172 142.48 623.73 142.612 624.428 142.612Z" fill="#08202F"/>
<rect x="149.415" y="162.5" width="362.98" height="16.2876" rx="8.14379" fill="#C7D4E6"/>
<rect x="149.415" y="185.24" width="312.954" height="16.2876" rx="8.14379" fill="#C7D4E6"/>
<rect x="149.415" y="207.981" width="362.98" height="16.2876" rx="8.14379" fill="#C7D4E6"/>
<path d="M149.415 249.984C149.415 242.257 155.679 235.992 163.406 235.992H194.887C202.614 235.992 208.878 242.257 208.878 249.984C208.878 257.711 202.614 263.975 194.887 263.975H163.406C155.679 263.975 149.415 257.711 149.415 249.984Z" fill="#1D3343"/>
<path d="M232.177 236.692H263.657C270.998 236.692 276.949 242.643 276.949 249.984C276.949 257.324 270.998 263.276 263.657 263.276H232.177C224.836 263.276 218.885 257.324 218.885 249.984C218.885 242.643 224.836 236.692 232.177 236.692Z" stroke="#1D3343" stroke-width="1.39913"/>
</g>
<rect x="84.9431" y="-14.5169" width="670.086" height="303.335" stroke="#ACB9CB" stroke-width="2.11384"/>
</g>
<rect x="1" y="1" width="726" height="283" rx="7" stroke="#D6E4F6" stroke-width="2"/>
<defs>
<clipPath id="clip0_1290_9834">
<rect width="728" height="285" rx="8" fill="white"/>
</clipPath>
<clipPath id="clip1_1290_9834">
<rect x="86" y="-13.46" width="667.972" height="301.222" fill="white"/>
</clipPath>
</defs>
</svg>
