<svg width="728" height="249" viewBox="0 0 728 249" fill="none" xmlns="http://www.w3.org/2000/svg">
<g clip-path="url(#clip0_1297_1741)">
<rect y="0.770508" width="728" height="248" rx="8" fill="#F3F6F9"/>
<g clip-path="url(#clip1_1297_1741)">
<rect x="86" y="-37.4932" width="667.972" height="301.222" fill="white"/>
<rect width="667.972" height="89.186" transform="translate(86 -45.4575)" fill="#F3F6F9"/>
<rect x="149.415" y="-2.77588" width="363.057" height="12.683" rx="6.34151" fill="#D1D8E0"/>
<rect x="149.415" y="14.135" width="302.279" height="12.683" rx="6.34151" fill="#D1D8E0"/>
<path d="M175.226 63.8882C163.353 63.8882 153.717 73.5242 153.717 85.3971C153.717 97.27 163.353 106.906 175.226 106.906C187.099 106.906 196.735 97.27 196.735 85.3971C196.735 73.5242 187.099 63.8882 175.226 63.8882ZM175.226 87.5479C174.043 87.5479 173.075 86.58 173.075 85.3971V76.7935C173.075 75.6105 174.043 74.6426 175.226 74.6426C176.409 74.6426 177.377 75.6105 177.377 76.7935V85.3971C177.377 86.58 176.409 87.5479 175.226 87.5479ZM177.377 96.1515H173.075V91.8497H177.377V96.1515Z" fill="#CC3333"/>
<path d="M152.626 144.932C152.207 144.932 151.881 144.823 151.649 144.606C151.432 144.373 151.323 144.047 151.323 143.629V129.831C151.323 129.412 151.432 129.094 151.649 128.877C151.881 128.644 152.207 128.528 152.626 128.528H161.119C161.445 128.528 161.693 128.613 161.863 128.784C162.034 128.939 162.119 129.171 162.119 129.482C162.119 129.807 162.034 130.056 161.863 130.226C161.693 130.397 161.445 130.482 161.119 130.482H153.65V135.624H160.607C160.948 135.624 161.196 135.71 161.352 135.88C161.522 136.051 161.607 136.291 161.607 136.602C161.607 136.927 161.522 137.176 161.352 137.346C161.196 137.501 160.948 137.579 160.607 137.579H153.65V142.977H161.119C161.445 142.977 161.693 143.062 161.863 143.233C162.034 143.404 162.119 143.644 162.119 143.954C162.119 144.28 162.034 144.528 161.863 144.699C161.693 144.854 161.445 144.932 161.119 144.932H152.626ZM165.955 145.095C165.568 145.095 165.273 144.994 165.071 144.792C164.87 144.575 164.769 144.28 164.769 143.908V134.601C164.769 134.213 164.87 133.918 165.071 133.716C165.273 133.515 165.552 133.414 165.909 133.414C166.281 133.414 166.56 133.515 166.747 133.716C166.948 133.918 167.049 134.213 167.049 134.601V136.299H166.816C167.065 135.369 167.522 134.663 168.189 134.182C168.856 133.701 169.709 133.422 170.749 133.344C171.028 133.329 171.245 133.398 171.4 133.554C171.571 133.709 171.664 133.949 171.679 134.275C171.71 134.601 171.641 134.864 171.47 135.066C171.299 135.252 171.036 135.361 170.679 135.392L170.237 135.438C169.228 135.531 168.461 135.849 167.933 136.392C167.406 136.935 167.142 137.68 167.142 138.626V143.908C167.142 144.28 167.041 144.575 166.84 144.792C166.654 144.994 166.359 145.095 165.955 145.095ZM174.636 145.095C174.248 145.095 173.953 144.994 173.751 144.792C173.55 144.575 173.449 144.28 173.449 143.908V134.601C173.449 134.213 173.55 133.918 173.751 133.716C173.953 133.515 174.232 133.414 174.589 133.414C174.961 133.414 175.24 133.515 175.427 133.716C175.628 133.918 175.729 134.213 175.729 134.601V136.299H175.496C175.745 135.369 176.202 134.663 176.869 134.182C177.536 133.701 178.389 133.422 179.429 133.344C179.708 133.329 179.925 133.398 180.08 133.554C180.251 133.709 180.344 133.949 180.359 134.275C180.39 134.601 180.321 134.864 180.15 135.066C179.979 135.252 179.716 135.361 179.359 135.392L178.917 135.438C177.909 135.531 177.141 135.849 176.613 136.392C176.086 136.935 175.822 137.68 175.822 138.626V143.908C175.822 144.28 175.721 144.575 175.52 144.792C175.334 144.994 175.039 145.095 174.636 145.095ZM186.903 145.141C185.755 145.141 184.762 144.901 183.924 144.42C183.102 143.939 182.458 143.256 181.993 142.372C181.528 141.488 181.295 140.449 181.295 139.254C181.295 138.339 181.427 137.525 181.691 136.811C181.954 136.098 182.327 135.485 182.807 134.973C183.304 134.446 183.893 134.05 184.576 133.786C185.274 133.507 186.049 133.367 186.903 133.367C188.035 133.367 189.012 133.608 189.834 134.089C190.672 134.57 191.324 135.252 191.789 136.136C192.254 137.005 192.487 138.044 192.487 139.254C192.487 140.154 192.355 140.968 192.091 141.697C191.828 142.426 191.448 143.047 190.951 143.559C190.47 144.071 189.881 144.466 189.183 144.745C188.5 145.009 187.74 145.141 186.903 145.141ZM186.903 143.326C187.539 143.326 188.097 143.171 188.578 142.861C189.059 142.551 189.431 142.093 189.695 141.488C189.974 140.883 190.114 140.138 190.114 139.254C190.114 137.92 189.819 136.912 189.229 136.229C188.64 135.547 187.864 135.206 186.903 135.206C186.251 135.206 185.685 135.361 185.204 135.671C184.723 135.966 184.343 136.416 184.064 137.021C183.8 137.625 183.668 138.37 183.668 139.254C183.668 140.573 183.963 141.581 184.553 142.279C185.142 142.977 185.925 143.326 186.903 143.326ZM196.313 145.095C195.925 145.095 195.63 144.994 195.429 144.792C195.227 144.575 195.126 144.28 195.126 143.908V134.601C195.126 134.213 195.227 133.918 195.429 133.716C195.63 133.515 195.91 133.414 196.266 133.414C196.639 133.414 196.918 133.515 197.104 133.716C197.306 133.918 197.406 134.213 197.406 134.601V136.299H197.174C197.422 135.369 197.88 134.663 198.547 134.182C199.214 133.701 200.067 133.422 201.106 133.344C201.385 133.329 201.602 133.398 201.758 133.554C201.928 133.709 202.021 133.949 202.037 134.275C202.068 134.601 201.998 134.864 201.827 135.066C201.657 135.252 201.393 135.361 201.036 135.392L200.594 135.438C199.586 135.531 198.818 135.849 198.291 136.392C197.763 136.935 197.5 137.68 197.5 138.626V143.908C197.5 144.28 197.399 144.575 197.197 144.792C197.011 144.994 196.716 145.095 196.313 145.095Z" fill="#101E37"/>
<path d="M157.641 177.656H156.572V173.323H151.742V177.656H150.673V168.462H151.742V172.38H156.572V168.462H157.641V177.656ZM165.703 170.763V177.656H164.847L164.696 176.687H164.64C164.497 176.926 164.313 177.128 164.086 177.291C163.86 177.455 163.604 177.576 163.319 177.656C163.038 177.74 162.739 177.782 162.42 177.782C161.875 177.782 161.418 177.693 161.049 177.517C160.68 177.341 160.401 177.069 160.213 176.7C160.028 176.331 159.936 175.857 159.936 175.279V170.763H160.992V175.203C160.992 175.778 161.122 176.207 161.382 176.492C161.642 176.773 162.038 176.914 162.571 176.914C163.082 176.914 163.489 176.817 163.791 176.624C164.097 176.432 164.317 176.149 164.451 175.775C164.585 175.398 164.652 174.937 164.652 174.392V170.763H165.703ZM168.954 167.871V170.317C168.954 170.598 168.945 170.87 168.929 171.134C168.916 171.399 168.906 171.604 168.897 171.751H168.954C169.142 171.44 169.415 171.178 169.771 170.965C170.128 170.751 170.583 170.644 171.136 170.644C172 170.644 172.687 170.944 173.199 171.543C173.714 172.139 173.972 173.025 173.972 174.203C173.972 174.979 173.855 175.633 173.62 176.165C173.385 176.698 173.054 177.1 172.626 177.373C172.199 177.645 171.694 177.782 171.111 177.782C170.566 177.782 170.117 177.681 169.765 177.48C169.417 177.274 169.149 177.025 168.96 176.731H168.878L168.665 177.656H167.91V167.871H168.954ZM170.966 171.518C170.467 171.518 170.071 171.617 169.778 171.814C169.484 172.006 169.272 172.3 169.142 172.694C169.017 173.084 168.954 173.579 168.954 174.178V174.235C168.954 175.103 169.098 175.767 169.388 176.228C169.677 176.685 170.203 176.914 170.966 176.914C171.608 176.914 172.088 176.679 172.406 176.209C172.729 175.74 172.891 175.069 172.891 174.197C172.891 173.308 172.731 172.64 172.413 172.191C172.098 171.742 171.616 171.518 170.966 171.518ZM181.739 174.197C181.739 174.763 181.665 175.268 181.519 175.713C181.372 176.157 181.16 176.532 180.883 176.838C180.607 177.144 180.271 177.379 179.877 177.543C179.487 177.702 179.045 177.782 178.55 177.782C178.089 177.782 177.666 177.702 177.28 177.543C176.898 177.379 176.567 177.144 176.286 176.838C176.01 176.532 175.794 176.157 175.639 175.713C175.488 175.268 175.412 174.763 175.412 174.197C175.412 173.442 175.54 172.801 175.796 172.273C176.052 171.74 176.416 171.336 176.89 171.059C177.368 170.778 177.936 170.638 178.594 170.638C179.223 170.638 179.772 170.778 180.242 171.059C180.716 171.34 181.083 171.747 181.342 172.279C181.607 172.807 181.739 173.447 181.739 174.197ZM176.494 174.197C176.494 174.75 176.567 175.23 176.714 175.637C176.861 176.044 177.087 176.358 177.393 176.58C177.699 176.803 178.093 176.914 178.575 176.914C179.053 176.914 179.445 176.803 179.751 176.58C180.062 176.358 180.29 176.044 180.437 175.637C180.584 175.23 180.657 174.75 180.657 174.197C180.657 173.648 180.584 173.174 180.437 172.776C180.29 172.373 180.064 172.063 179.758 171.845C179.452 171.627 179.055 171.518 178.569 171.518C177.852 171.518 177.326 171.755 176.991 172.229C176.659 172.702 176.494 173.359 176.494 174.197ZM192.58 170.763V177.656H191.725L191.574 176.687H191.517C191.375 176.926 191.19 177.128 190.964 177.291C190.738 177.455 190.482 177.576 190.197 177.656C189.916 177.74 189.616 177.782 189.298 177.782C188.753 177.782 188.296 177.693 187.927 177.517C187.558 177.341 187.279 177.069 187.09 176.7C186.906 176.331 186.814 175.857 186.814 175.279V170.763H187.87V175.203C187.87 175.778 188 176.207 188.26 176.492C188.52 176.773 188.916 176.914 189.448 176.914C189.96 176.914 190.367 176.817 190.668 176.624C190.975 176.432 191.195 176.149 191.329 175.775C191.463 175.398 191.53 174.937 191.53 174.392V170.763H192.58ZM198.051 170.638C198.869 170.638 199.487 170.839 199.906 171.241C200.326 171.64 200.535 172.281 200.535 173.166V177.656H199.504V173.235C199.504 172.66 199.372 172.231 199.108 171.946C198.848 171.661 198.448 171.518 197.907 171.518C197.144 171.518 196.607 171.734 196.297 172.166C195.987 172.598 195.831 173.224 195.831 174.046V177.656H194.788V170.763H195.63L195.787 171.757H195.844C195.991 171.514 196.177 171.311 196.404 171.147C196.63 170.979 196.884 170.854 197.165 170.77C197.446 170.682 197.741 170.638 198.051 170.638ZM209.27 170.638C210.13 170.638 210.815 170.933 211.327 171.524C211.838 172.115 212.094 173.004 212.094 174.191C212.094 174.975 211.976 175.633 211.742 176.165C211.507 176.698 211.176 177.1 210.748 177.373C210.325 177.645 209.824 177.782 209.245 177.782C208.88 177.782 208.56 177.733 208.283 177.637C208.006 177.54 207.769 177.411 207.572 177.247C207.375 177.083 207.212 176.905 207.082 176.712H207.006C207.019 176.876 207.034 177.073 207.05 177.304C207.071 177.534 207.082 177.735 207.082 177.907V180.737H206.032V170.763H206.893L207.031 171.782H207.082C207.216 171.573 207.379 171.382 207.572 171.21C207.765 171.034 208 170.895 208.277 170.795C208.558 170.69 208.889 170.638 209.27 170.638ZM209.088 171.518C208.61 171.518 208.224 171.61 207.931 171.795C207.641 171.979 207.43 172.256 207.296 172.625C207.161 172.99 207.09 173.449 207.082 174.002V174.203C207.082 174.786 207.145 175.279 207.27 175.681C207.4 176.084 207.612 176.39 207.906 176.599C208.203 176.809 208.602 176.914 209.1 176.914C209.528 176.914 209.884 176.798 210.17 176.568C210.455 176.337 210.666 176.017 210.805 175.606C210.947 175.191 211.018 174.715 211.018 174.178C211.018 173.365 210.859 172.719 210.541 172.241C210.226 171.759 209.742 171.518 209.088 171.518ZM217.049 170.638C217.188 170.638 217.332 170.646 217.483 170.663C217.634 170.675 217.768 170.694 217.886 170.719L217.754 171.688C217.64 171.659 217.515 171.635 217.376 171.619C217.238 171.602 217.108 171.594 216.986 171.594C216.71 171.594 216.448 171.65 216.2 171.763C215.957 171.872 215.743 172.032 215.559 172.241C215.374 172.447 215.23 172.696 215.125 172.99C215.02 173.279 214.968 173.602 214.968 173.958V177.656H213.918V170.763H214.785L214.899 172.034H214.943C215.085 171.778 215.257 171.545 215.458 171.336C215.66 171.122 215.892 170.952 216.156 170.826C216.425 170.701 216.722 170.638 217.049 170.638ZM225.13 174.197C225.13 174.763 225.057 175.268 224.91 175.713C224.763 176.157 224.552 176.532 224.275 176.838C223.998 177.144 223.663 177.379 223.269 177.543C222.879 177.702 222.437 177.782 221.942 177.782C221.481 177.782 221.057 177.702 220.672 177.543C220.29 177.379 219.959 177.144 219.678 176.838C219.401 176.532 219.185 176.157 219.03 175.713C218.879 175.268 218.804 174.763 218.804 174.197C218.804 173.442 218.932 172.801 219.187 172.273C219.443 171.74 219.808 171.336 220.282 171.059C220.76 170.778 221.328 170.638 221.986 170.638C222.615 170.638 223.164 170.778 223.633 171.059C224.107 171.34 224.474 171.747 224.734 172.279C224.998 172.807 225.13 173.447 225.13 174.197ZM219.885 174.197C219.885 174.75 219.959 175.23 220.106 175.637C220.252 176.044 220.479 176.358 220.785 176.58C221.091 176.803 221.485 176.914 221.967 176.914C222.445 176.914 222.837 176.803 223.143 176.58C223.453 176.358 223.682 176.044 223.828 175.637C223.975 175.23 224.049 174.75 224.049 174.197C224.049 173.648 223.975 173.174 223.828 172.776C223.682 172.373 223.455 172.063 223.149 171.845C222.843 171.627 222.447 171.518 221.961 171.518C221.244 171.518 220.718 171.755 220.382 172.229C220.051 172.702 219.885 173.359 219.885 174.197ZM227.979 167.871V170.317C227.979 170.598 227.971 170.87 227.954 171.134C227.941 171.399 227.931 171.604 227.922 171.751H227.979C228.168 171.44 228.44 171.178 228.796 170.965C229.153 170.751 229.608 170.644 230.161 170.644C231.025 170.644 231.712 170.944 232.224 171.543C232.739 172.139 232.997 173.025 232.997 174.203C232.997 174.979 232.88 175.633 232.645 176.165C232.41 176.698 232.079 177.1 231.651 177.373C231.224 177.645 230.719 177.782 230.136 177.782C229.591 177.782 229.142 177.681 228.79 177.48C228.442 177.274 228.174 177.025 227.985 176.731H227.903L227.69 177.656H226.935V167.871H227.979ZM229.991 171.518C229.492 171.518 229.096 171.617 228.803 171.814C228.509 172.006 228.298 172.3 228.168 172.694C228.042 173.084 227.979 173.579 227.979 174.178V174.235C227.979 175.103 228.124 175.767 228.413 176.228C228.702 176.685 229.228 176.914 229.991 176.914C230.633 176.914 231.113 176.679 231.431 176.209C231.754 175.74 231.916 175.069 231.916 174.197C231.916 173.308 231.756 172.64 231.438 172.191C231.123 171.742 230.641 171.518 229.991 171.518ZM235.871 177.656H234.821V167.871H235.871V177.656ZM240.732 170.638C241.319 170.638 241.822 170.768 242.242 171.028C242.661 171.287 242.982 171.652 243.204 172.122C243.426 172.587 243.537 173.132 243.537 173.757V174.405H238.777C238.789 175.214 238.99 175.83 239.38 176.253C239.77 176.677 240.319 176.889 241.028 176.889C241.464 176.889 241.85 176.849 242.185 176.769C242.52 176.689 242.868 176.572 243.229 176.417V177.335C242.881 177.49 242.535 177.603 242.191 177.675C241.852 177.746 241.449 177.782 240.984 177.782C240.321 177.782 239.743 177.647 239.248 177.379C238.758 177.107 238.376 176.708 238.104 176.184C237.831 175.66 237.695 175.019 237.695 174.26C237.695 173.518 237.819 172.876 238.066 172.336C238.317 171.791 238.67 171.371 239.122 171.078C239.579 170.784 240.116 170.638 240.732 170.638ZM240.72 171.493C240.162 171.493 239.718 171.675 239.387 172.04C239.055 172.405 238.858 172.914 238.795 173.568H242.443C242.439 173.157 242.374 172.797 242.248 172.487C242.126 172.172 241.94 171.929 241.688 171.757C241.437 171.581 241.114 171.493 240.72 171.493ZM252.794 170.638C253.553 170.638 254.125 170.837 254.511 171.235C254.896 171.629 255.089 172.264 255.089 173.141V177.656H254.058V173.191C254.058 172.633 253.936 172.216 253.693 171.939C253.454 171.659 253.098 171.518 252.624 171.518C251.957 171.518 251.473 171.711 251.171 172.097C250.87 172.482 250.719 173.05 250.719 173.801V177.656H249.681V173.191C249.681 172.818 249.627 172.507 249.518 172.26C249.413 172.013 249.253 171.828 249.04 171.707C248.83 171.581 248.564 171.518 248.241 171.518C247.784 171.518 247.417 171.612 247.14 171.801C246.864 171.99 246.662 172.271 246.537 172.644C246.415 173.013 246.354 173.468 246.354 174.008V177.656H245.31V170.763H246.153L246.31 171.738H246.367C246.505 171.499 246.679 171.298 246.889 171.134C247.098 170.971 247.333 170.847 247.593 170.763C247.853 170.68 248.13 170.638 248.423 170.638C248.947 170.638 249.385 170.736 249.738 170.933C250.094 171.126 250.352 171.422 250.511 171.82H250.568C250.794 171.422 251.104 171.126 251.498 170.933C251.893 170.736 252.324 170.638 252.794 170.638ZM259.812 170.65C260.634 170.65 261.244 170.835 261.642 171.204C262.04 171.573 262.239 172.162 262.239 172.971V177.656H261.478L261.277 176.637H261.227C261.034 176.889 260.833 177.1 260.623 177.272C260.414 177.44 260.17 177.568 259.894 177.656C259.621 177.74 259.286 177.782 258.888 177.782C258.468 177.782 258.095 177.708 257.768 177.561C257.445 177.415 257.19 177.192 257.001 176.895C256.817 176.597 256.724 176.22 256.724 175.763C256.724 175.075 256.997 174.547 257.542 174.178C258.087 173.809 258.917 173.608 260.032 173.574L261.221 173.524V173.103C261.221 172.507 261.093 172.09 260.837 171.851C260.581 171.612 260.221 171.493 259.755 171.493C259.395 171.493 259.051 171.545 258.724 171.65C258.397 171.755 258.087 171.879 257.793 172.021L257.473 171.229C257.783 171.069 258.139 170.933 258.542 170.82C258.944 170.707 259.368 170.65 259.812 170.65ZM261.208 174.26L260.158 174.304C259.298 174.337 258.693 174.478 258.34 174.725C257.988 174.973 257.812 175.323 257.812 175.775C257.812 176.17 257.932 176.461 258.171 176.65C258.41 176.838 258.726 176.933 259.12 176.933C259.732 176.933 260.233 176.763 260.623 176.423C261.013 176.084 261.208 175.574 261.208 174.895V174.26ZM270.389 170.638C270.976 170.638 271.48 170.768 271.899 171.028C272.318 171.287 272.639 171.652 272.861 172.122C273.083 172.587 273.194 173.132 273.194 173.757V174.405H268.434C268.446 175.214 268.648 175.83 269.037 176.253C269.427 176.677 269.977 176.889 270.685 176.889C271.121 176.889 271.507 176.849 271.842 176.769C272.178 176.689 272.526 176.572 272.886 176.417V177.335C272.538 177.49 272.192 177.603 271.848 177.675C271.509 177.746 271.106 177.782 270.641 177.782C269.979 177.782 269.4 177.647 268.905 177.379C268.415 177.107 268.033 176.708 267.761 176.184C267.488 175.66 267.352 175.019 267.352 174.26C267.352 173.518 267.476 172.876 267.723 172.336C267.975 171.791 268.327 171.371 268.78 171.078C269.237 170.784 269.773 170.638 270.389 170.638ZM270.377 171.493C269.819 171.493 269.375 171.675 269.044 172.04C268.713 172.405 268.515 172.914 268.453 173.568H272.1C272.096 173.157 272.031 172.797 271.905 172.487C271.783 172.172 271.597 171.929 271.345 171.757C271.094 171.581 270.771 171.493 270.377 171.493ZM278.231 170.638C279.049 170.638 279.667 170.839 280.087 171.241C280.506 171.64 280.715 172.281 280.715 173.166V177.656H279.684V173.235C279.684 172.66 279.552 172.231 279.288 171.946C279.028 171.661 278.628 171.518 278.087 171.518C277.324 171.518 276.787 171.734 276.477 172.166C276.167 172.598 276.012 173.224 276.012 174.046V177.656H274.968V170.763H275.81L275.967 171.757H276.024C276.171 171.514 276.357 171.311 276.584 171.147C276.81 170.979 277.064 170.854 277.345 170.77C277.626 170.682 277.921 170.638 278.231 170.638ZM288.865 170.638C289.452 170.638 289.956 170.768 290.375 171.028C290.794 171.287 291.115 171.652 291.337 172.122C291.559 172.587 291.67 173.132 291.67 173.757V174.405H286.91C286.922 175.214 287.124 175.83 287.513 176.253C287.903 176.677 288.453 176.889 289.161 176.889C289.597 176.889 289.983 176.849 290.318 176.769C290.654 176.689 291.002 176.572 291.362 176.417V177.335C291.014 177.49 290.668 177.603 290.324 177.675C289.985 177.746 289.582 177.782 289.117 177.782C288.455 177.782 287.876 177.647 287.381 177.379C286.891 177.107 286.509 176.708 286.237 176.184C285.964 175.66 285.828 175.019 285.828 174.26C285.828 173.518 285.952 172.876 286.199 172.336C286.451 171.791 286.803 171.371 287.256 171.078C287.713 170.784 288.249 170.638 288.865 170.638ZM288.853 171.493C288.295 171.493 287.851 171.675 287.52 172.04C287.189 172.405 286.991 172.914 286.929 173.568H290.576C290.572 173.157 290.507 172.797 290.381 172.487C290.259 172.172 290.073 171.929 289.821 171.757C289.57 171.581 289.247 171.493 288.853 171.493ZM294.494 177.656H293.444V167.871H294.494V177.656ZM303.285 170.638C304.145 170.638 304.83 170.933 305.342 171.524C305.853 172.115 306.109 173.004 306.109 174.191C306.109 174.975 305.992 175.633 305.757 176.165C305.522 176.698 305.191 177.1 304.763 177.373C304.34 177.645 303.839 177.782 303.26 177.782C302.895 177.782 302.575 177.733 302.298 177.637C302.021 177.54 301.784 177.411 301.587 177.247C301.39 177.083 301.227 176.905 301.097 176.712H301.021C301.034 176.876 301.049 177.073 301.065 177.304C301.086 177.534 301.097 177.735 301.097 177.907V180.737H300.047V170.763H300.908L301.047 171.782H301.097C301.231 171.573 301.395 171.382 301.587 171.21C301.78 171.034 302.015 170.895 302.292 170.795C302.573 170.69 302.904 170.638 303.285 170.638ZM303.103 171.518C302.625 171.518 302.239 171.61 301.946 171.795C301.657 171.979 301.445 172.256 301.311 172.625C301.177 172.99 301.105 173.449 301.097 174.002V174.203C301.097 174.786 301.16 175.279 301.286 175.681C301.416 176.084 301.627 176.39 301.921 176.599C302.218 176.809 302.617 176.914 303.116 176.914C303.543 176.914 303.9 176.798 304.185 176.568C304.47 176.337 304.681 176.017 304.82 175.606C304.962 175.191 305.034 174.715 305.034 174.178C305.034 173.365 304.874 172.719 304.556 172.241C304.241 171.759 303.757 171.518 303.103 171.518ZM311.064 170.638C311.203 170.638 311.347 170.646 311.498 170.663C311.649 170.675 311.783 170.694 311.901 170.719L311.769 171.688C311.655 171.659 311.53 171.635 311.391 171.619C311.253 171.602 311.123 171.594 311.001 171.594C310.725 171.594 310.463 171.65 310.215 171.763C309.972 171.872 309.758 172.032 309.574 172.241C309.389 172.447 309.245 172.696 309.14 172.99C309.035 173.279 308.983 173.602 308.983 173.958V177.656H307.933V170.763H308.8L308.914 172.034H308.958C309.1 171.778 309.272 171.545 309.473 171.336C309.675 171.122 309.907 170.952 310.171 170.826C310.44 170.701 310.737 170.638 311.064 170.638ZM319.145 174.197C319.145 174.763 319.072 175.268 318.925 175.713C318.778 176.157 318.567 176.532 318.29 176.838C318.013 177.144 317.678 177.379 317.284 177.543C316.894 177.702 316.452 177.782 315.957 177.782C315.496 177.782 315.072 177.702 314.687 177.543C314.305 177.379 313.974 177.144 313.693 176.838C313.416 176.532 313.2 176.157 313.045 175.713C312.894 175.268 312.819 174.763 312.819 174.197C312.819 173.442 312.947 172.801 313.203 172.273C313.458 171.74 313.823 171.336 314.297 171.059C314.775 170.778 315.343 170.638 316.001 170.638C316.63 170.638 317.179 170.778 317.649 171.059C318.122 171.34 318.489 171.747 318.749 172.279C319.013 172.807 319.145 173.447 319.145 174.197ZM313.901 174.197C313.901 174.75 313.974 175.23 314.121 175.637C314.267 176.044 314.494 176.358 314.8 176.58C315.106 176.803 315.5 176.914 315.982 176.914C316.46 176.914 316.852 176.803 317.158 176.58C317.468 176.358 317.697 176.044 317.844 175.637C317.99 175.23 318.064 174.75 318.064 174.197C318.064 173.648 317.99 173.174 317.844 172.776C317.697 172.373 317.47 172.063 317.164 171.845C316.858 171.627 316.462 171.518 315.976 171.518C315.259 171.518 314.733 171.755 314.397 172.229C314.066 172.702 313.901 173.359 313.901 174.197ZM323.711 177.782C323.09 177.782 322.543 177.654 322.069 177.398C321.596 177.142 321.227 176.752 320.963 176.228C320.699 175.704 320.566 175.044 320.566 174.247C320.566 173.413 320.705 172.732 320.982 172.204C321.262 171.671 321.648 171.277 322.139 171.021C322.629 170.766 323.187 170.638 323.811 170.638C324.155 170.638 324.486 170.673 324.805 170.745C325.128 170.812 325.392 170.898 325.597 171.002L325.283 171.877C325.073 171.793 324.83 171.717 324.553 171.65C324.281 171.583 324.025 171.549 323.786 171.549C323.308 171.549 322.91 171.652 322.591 171.858C322.277 172.063 322.04 172.365 321.881 172.763C321.726 173.161 321.648 173.652 321.648 174.235C321.648 174.792 321.724 175.268 321.875 175.662C322.03 176.056 322.258 176.358 322.56 176.568C322.866 176.773 323.248 176.876 323.705 176.876C324.069 176.876 324.398 176.838 324.692 176.763C324.985 176.683 325.252 176.591 325.49 176.486V177.417C325.26 177.534 325.002 177.624 324.717 177.687C324.436 177.75 324.101 177.782 323.711 177.782ZM329.779 170.638C330.366 170.638 330.869 170.768 331.289 171.028C331.708 171.287 332.029 171.652 332.251 172.122C332.473 172.587 332.584 173.132 332.584 173.757V174.405H327.824C327.836 175.214 328.037 175.83 328.427 176.253C328.817 176.677 329.366 176.889 330.075 176.889C330.511 176.889 330.897 176.849 331.232 176.769C331.567 176.689 331.915 176.572 332.276 176.417V177.335C331.928 177.49 331.582 177.603 331.238 177.675C330.899 177.746 330.496 177.782 330.031 177.782C329.368 177.782 328.79 177.647 328.295 177.379C327.805 177.107 327.423 176.708 327.151 176.184C326.878 175.66 326.742 175.019 326.742 174.26C326.742 173.518 326.866 172.876 327.113 172.336C327.364 171.791 327.717 171.371 328.169 171.078C328.626 170.784 329.163 170.638 329.779 170.638ZM329.767 171.493C329.209 171.493 328.765 171.675 328.434 172.04C328.102 172.405 327.905 172.914 327.842 173.568H331.49C331.486 173.157 331.421 172.797 331.295 172.487C331.173 172.172 330.987 171.929 330.735 171.757C330.484 171.581 330.161 171.493 329.767 171.493ZM338.816 175.769C338.816 176.209 338.705 176.58 338.483 176.882C338.265 177.18 337.95 177.404 337.54 177.555C337.133 177.706 336.647 177.782 336.081 177.782C335.598 177.782 335.181 177.744 334.829 177.668C334.477 177.593 334.169 177.486 333.905 177.348V176.385C334.186 176.524 334.521 176.65 334.911 176.763C335.301 176.876 335.699 176.933 336.106 176.933C336.701 176.933 337.133 176.836 337.401 176.643C337.669 176.45 337.804 176.188 337.804 175.857C337.804 175.669 337.749 175.503 337.64 175.36C337.535 175.214 337.357 175.073 337.106 174.939C336.854 174.801 336.506 174.65 336.062 174.486C335.621 174.319 335.24 174.153 334.917 173.989C334.599 173.822 334.351 173.618 334.175 173.379C334.003 173.141 333.917 172.83 333.917 172.449C333.917 171.866 334.152 171.42 334.622 171.109C335.095 170.795 335.716 170.638 336.483 170.638C336.898 170.638 337.286 170.68 337.646 170.763C338.011 170.843 338.351 170.952 338.665 171.09L338.313 171.927C338.028 171.805 337.724 171.703 337.401 171.619C337.078 171.535 336.749 171.493 336.414 171.493C335.932 171.493 335.561 171.573 335.301 171.732C335.045 171.891 334.917 172.109 334.917 172.386C334.917 172.6 334.976 172.776 335.093 172.914C335.215 173.052 335.408 173.182 335.672 173.304C335.936 173.426 336.284 173.568 336.716 173.732C337.148 173.891 337.521 174.057 337.835 174.228C338.149 174.396 338.391 174.602 338.558 174.845C338.73 175.084 338.816 175.392 338.816 175.769ZM346.438 174.197C346.438 174.763 346.365 175.268 346.218 175.713C346.071 176.157 345.859 176.532 345.583 176.838C345.306 177.144 344.971 177.379 344.576 177.543C344.187 177.702 343.744 177.782 343.25 177.782C342.788 177.782 342.365 177.702 341.979 177.543C341.598 177.379 341.267 177.144 340.986 176.838C340.709 176.532 340.493 176.157 340.338 175.713C340.187 175.268 340.112 174.763 340.112 174.197C340.112 173.442 340.239 172.801 340.495 172.273C340.751 171.74 341.116 171.336 341.589 171.059C342.067 170.778 342.635 170.638 343.294 170.638C343.922 170.638 344.472 170.778 344.941 171.059C345.415 171.34 345.782 171.747 346.042 172.279C346.306 172.807 346.438 173.447 346.438 174.197ZM341.193 174.197C341.193 174.75 341.267 175.23 341.413 175.637C341.56 176.044 341.786 176.358 342.092 176.58C342.399 176.803 342.793 176.914 343.275 176.914C343.753 176.914 344.145 176.803 344.451 176.58C344.761 176.358 344.989 176.044 345.136 175.637C345.283 175.23 345.356 174.75 345.356 174.197C345.356 173.648 345.283 173.174 345.136 172.776C344.989 172.373 344.763 172.063 344.457 171.845C344.151 171.627 343.755 171.518 343.268 171.518C342.552 171.518 342.025 171.755 341.69 172.229C341.359 172.702 341.193 173.359 341.193 174.197ZM348.086 177.002C348.086 176.708 348.157 176.501 348.299 176.379C348.442 176.253 348.616 176.191 348.821 176.191C349.035 176.191 349.215 176.253 349.362 176.379C349.509 176.501 349.582 176.708 349.582 177.002C349.582 177.291 349.509 177.503 349.362 177.637C349.215 177.767 349.035 177.832 348.821 177.832C348.616 177.832 348.442 177.767 348.299 177.637C348.157 177.503 348.086 177.291 348.086 177.002Z" fill="#101E37"/>
<rect x="149.415" y="194.38" width="108.386" height="27.9827" rx="5.59653" fill="#336ACC"/>
<path d="M165.104 212.972C164.877 212.972 164.688 212.922 164.537 212.821C164.394 212.712 164.277 212.553 164.184 212.343L160.898 204.964C160.805 204.754 160.78 204.569 160.822 204.41C160.864 204.25 160.952 204.124 161.087 204.032C161.221 203.94 161.38 203.893 161.565 203.893C161.809 203.893 161.989 203.948 162.107 204.057C162.233 204.158 162.337 204.313 162.421 204.523L165.406 211.436H164.864L167.836 204.51C167.928 204.309 168.038 204.158 168.163 204.057C168.289 203.948 168.466 203.893 168.692 203.893C168.877 203.893 169.028 203.94 169.146 204.032C169.272 204.124 169.351 204.25 169.385 204.41C169.418 204.569 169.389 204.754 169.297 204.964L166.01 212.343C165.918 212.553 165.8 212.712 165.658 212.821C165.523 212.922 165.339 212.972 165.104 212.972ZM172.425 212.998C171.787 212.998 171.232 212.867 170.762 212.607C170.292 212.347 169.927 211.978 169.667 211.499C169.407 211.012 169.277 210.441 169.277 209.786C169.277 209.291 169.348 208.85 169.491 208.464C169.642 208.07 169.856 207.734 170.133 207.457C170.41 207.172 170.741 206.957 171.128 206.815C171.514 206.664 171.946 206.588 172.425 206.588C173.063 206.588 173.617 206.718 174.087 206.978C174.557 207.239 174.922 207.608 175.182 208.087C175.442 208.565 175.573 209.132 175.573 209.786C175.573 210.282 175.497 210.727 175.346 211.121C175.203 211.516 174.993 211.856 174.716 212.141C174.439 212.418 174.108 212.632 173.722 212.783C173.335 212.926 172.903 212.998 172.425 212.998ZM172.425 211.801C172.735 211.801 173.008 211.726 173.243 211.575C173.478 211.423 173.659 211.201 173.785 210.907C173.919 210.605 173.986 210.231 173.986 209.786C173.986 209.115 173.843 208.615 173.558 208.288C173.272 207.952 172.895 207.784 172.425 207.784C172.114 207.784 171.841 207.86 171.606 208.011C171.371 208.154 171.186 208.376 171.052 208.678C170.926 208.972 170.863 209.342 170.863 209.786C170.863 210.45 171.006 210.953 171.291 211.298C171.577 211.633 171.954 211.801 172.425 211.801ZM178.975 212.998C178.278 212.998 177.753 212.8 177.401 212.406C177.048 212.003 176.872 211.415 176.872 210.643V204.687C176.872 204.426 176.939 204.229 177.073 204.095C177.208 203.961 177.401 203.893 177.652 203.893C177.904 203.893 178.097 203.961 178.232 204.095C178.374 204.229 178.446 204.426 178.446 204.687V210.567C178.446 210.953 178.526 211.239 178.685 211.423C178.853 211.608 179.088 211.701 179.39 211.701C179.457 211.701 179.52 211.701 179.579 211.701C179.638 211.692 179.697 211.684 179.755 211.675C179.873 211.659 179.953 211.692 179.995 211.776C180.037 211.852 180.058 212.011 180.058 212.255C180.058 212.464 180.016 212.628 179.932 212.746C179.848 212.863 179.709 212.935 179.516 212.96C179.432 212.968 179.344 212.977 179.252 212.985C179.159 212.993 179.067 212.998 178.975 212.998ZM183.226 212.972C183.016 212.972 182.832 212.918 182.672 212.809C182.521 212.699 182.395 212.532 182.294 212.305L180.292 207.658C180.217 207.474 180.187 207.302 180.204 207.142C180.229 206.983 180.305 206.857 180.431 206.764C180.565 206.664 180.746 206.613 180.972 206.613C181.165 206.613 181.321 206.659 181.438 206.752C181.556 206.836 181.661 206.999 181.753 207.243L183.453 211.486H183.075L184.826 207.23C184.918 206.995 185.023 206.836 185.14 206.752C185.266 206.659 185.434 206.613 185.644 206.613C185.829 206.613 185.976 206.664 186.085 206.764C186.194 206.857 186.261 206.983 186.286 207.142C186.311 207.293 186.282 207.461 186.198 207.646L184.158 212.305C184.066 212.532 183.94 212.699 183.78 212.809C183.629 212.918 183.445 212.972 183.226 212.972ZM190.285 212.998C189.588 212.998 188.988 212.867 188.485 212.607C187.981 212.347 187.59 211.978 187.313 211.499C187.045 211.021 186.911 210.454 186.911 209.799C186.911 209.161 187.041 208.603 187.301 208.124C187.569 207.646 187.935 207.272 188.396 207.004C188.866 206.727 189.4 206.588 189.996 206.588C190.432 206.588 190.822 206.659 191.167 206.802C191.519 206.945 191.817 207.151 192.061 207.419C192.313 207.688 192.501 208.015 192.627 208.401C192.762 208.779 192.829 209.207 192.829 209.686C192.829 209.837 192.774 209.954 192.665 210.038C192.564 210.114 192.417 210.152 192.224 210.152H188.182V209.245H191.721L191.519 209.434C191.519 209.048 191.46 208.725 191.343 208.464C191.234 208.204 191.07 208.007 190.852 207.872C190.642 207.73 190.378 207.658 190.059 207.658C189.706 207.658 189.404 207.742 189.152 207.91C188.908 208.07 188.72 208.301 188.585 208.603C188.459 208.897 188.396 209.249 188.396 209.661V209.749C188.396 210.437 188.556 210.953 188.875 211.298C189.202 211.633 189.681 211.801 190.31 211.801C190.529 211.801 190.772 211.776 191.041 211.726C191.318 211.667 191.578 211.57 191.821 211.436C191.998 211.335 192.153 211.293 192.287 211.31C192.422 211.319 192.527 211.365 192.602 211.449C192.686 211.533 192.736 211.638 192.753 211.763C192.77 211.881 192.745 212.003 192.678 212.129C192.619 212.255 192.514 212.364 192.363 212.456C192.069 212.641 191.729 212.779 191.343 212.872C190.965 212.956 190.613 212.998 190.285 212.998ZM194.881 212.972C194.621 212.972 194.42 212.905 194.277 212.771C194.143 212.628 194.075 212.427 194.075 212.166V207.407C194.075 207.146 194.143 206.949 194.277 206.815C194.411 206.68 194.6 206.613 194.843 206.613C195.087 206.613 195.276 206.68 195.41 206.815C195.544 206.949 195.612 207.146 195.612 207.407V208.2H195.486C195.603 207.696 195.834 207.314 196.178 207.054C196.522 206.794 196.98 206.638 197.551 206.588C197.727 206.571 197.866 206.617 197.966 206.727C198.075 206.827 198.138 206.987 198.155 207.205C198.172 207.415 198.122 207.587 198.004 207.721C197.895 207.847 197.727 207.923 197.5 207.948L197.223 207.973C196.711 208.024 196.325 208.183 196.065 208.452C195.805 208.712 195.675 209.081 195.675 209.56V212.166C195.675 212.427 195.607 212.628 195.473 212.771C195.339 212.905 195.142 212.972 194.881 212.972ZM204.452 212.998C204.007 212.998 203.609 212.914 203.256 212.746C202.912 212.569 202.639 212.334 202.438 212.04C202.245 211.747 202.148 211.415 202.148 211.046C202.148 210.592 202.266 210.236 202.501 209.975C202.736 209.707 203.118 209.514 203.647 209.396C204.175 209.279 204.885 209.22 205.775 209.22H206.404V210.126H205.787C205.267 210.126 204.851 210.152 204.541 210.202C204.23 210.252 204.007 210.341 203.873 210.466C203.747 210.584 203.684 210.752 203.684 210.97C203.684 211.247 203.781 211.474 203.974 211.65C204.167 211.826 204.436 211.915 204.78 211.915C205.057 211.915 205.3 211.852 205.51 211.726C205.728 211.591 205.901 211.411 206.026 211.184C206.152 210.958 206.215 210.697 206.215 210.404V208.955C206.215 208.536 206.123 208.233 205.938 208.049C205.754 207.864 205.443 207.772 205.006 207.772C204.763 207.772 204.499 207.801 204.213 207.86C203.936 207.919 203.642 208.019 203.332 208.162C203.172 208.238 203.03 208.259 202.904 208.225C202.786 208.191 202.694 208.124 202.627 208.024C202.559 207.914 202.526 207.797 202.526 207.671C202.526 207.545 202.559 207.423 202.627 207.306C202.694 207.18 202.807 207.088 202.967 207.029C203.353 206.869 203.722 206.756 204.075 206.689C204.436 206.622 204.763 206.588 205.057 206.588C205.661 206.588 206.157 206.68 206.543 206.865C206.937 207.05 207.231 207.331 207.424 207.709C207.617 208.078 207.714 208.557 207.714 209.144V212.166C207.714 212.427 207.651 212.628 207.525 212.771C207.399 212.905 207.219 212.972 206.983 212.972C206.748 212.972 206.564 212.905 206.429 212.771C206.303 212.628 206.241 212.427 206.241 212.166V211.562H206.341C206.282 211.856 206.165 212.112 205.989 212.33C205.821 212.54 205.607 212.704 205.346 212.821C205.086 212.939 204.788 212.998 204.452 212.998ZM211.414 212.998C210.718 212.998 210.193 212.8 209.84 212.406C209.488 212.003 209.311 211.415 209.311 210.643V204.687C209.311 204.426 209.379 204.229 209.513 204.095C209.647 203.961 209.84 203.893 210.092 203.893C210.344 203.893 210.537 203.961 210.671 204.095C210.814 204.229 210.885 204.426 210.885 204.687V210.567C210.885 210.953 210.965 211.239 211.125 211.423C211.293 211.608 211.528 211.701 211.83 211.701C211.897 211.701 211.96 211.701 212.019 211.701C212.078 211.692 212.136 211.684 212.195 211.675C212.313 211.659 212.392 211.692 212.434 211.776C212.476 211.852 212.497 212.011 212.497 212.255C212.497 212.464 212.455 212.628 212.371 212.746C212.287 212.863 212.149 212.935 211.956 212.96C211.872 212.968 211.784 212.977 211.691 212.985C211.599 212.993 211.507 212.998 211.414 212.998ZM217.532 212.96C217.28 212.96 217.087 212.884 216.953 212.733C216.818 212.582 216.751 212.372 216.751 212.103V207.482C216.751 207.205 216.818 206.995 216.953 206.853C217.087 206.701 217.28 206.626 217.532 206.626C217.784 206.626 217.977 206.701 218.111 206.853C218.254 206.995 218.325 207.205 218.325 207.482V212.103C218.325 212.372 218.258 212.582 218.124 212.733C217.989 212.884 217.792 212.96 217.532 212.96ZM217.532 205.455C217.238 205.455 217.007 205.383 216.839 205.241C216.68 205.09 216.6 204.884 216.6 204.624C216.6 204.355 216.68 204.149 216.839 204.007C217.007 203.864 217.238 203.793 217.532 203.793C217.834 203.793 218.065 203.864 218.224 204.007C218.384 204.149 218.464 204.355 218.464 204.624C218.464 204.884 218.384 205.09 218.224 205.241C218.065 205.383 217.834 205.455 217.532 205.455ZM220.741 212.972C220.49 212.972 220.296 212.905 220.162 212.771C220.028 212.628 219.961 212.427 219.961 212.166V207.407C219.961 207.146 220.028 206.949 220.162 206.815C220.296 206.68 220.485 206.613 220.729 206.613C220.972 206.613 221.161 206.68 221.295 206.815C221.43 206.949 221.497 207.146 221.497 207.407V208.263L221.358 207.948C221.543 207.503 221.829 207.167 222.215 206.941C222.609 206.706 223.054 206.588 223.549 206.588C224.045 206.588 224.452 206.68 224.771 206.865C225.09 207.05 225.329 207.331 225.489 207.709C225.648 208.078 225.728 208.548 225.728 209.119V212.166C225.728 212.427 225.661 212.628 225.526 212.771C225.392 212.905 225.199 212.972 224.947 212.972C224.695 212.972 224.498 212.905 224.355 212.771C224.221 212.628 224.154 212.427 224.154 212.166V209.195C224.154 208.716 224.062 208.368 223.877 208.15C223.701 207.931 223.424 207.822 223.046 207.822C222.584 207.822 222.215 207.969 221.938 208.263C221.669 208.548 221.535 208.93 221.535 209.409V212.166C221.535 212.704 221.27 212.972 220.741 212.972ZM228.107 212.96C227.856 212.96 227.662 212.884 227.528 212.733C227.394 212.582 227.327 212.372 227.327 212.103V207.482C227.327 207.205 227.394 206.995 227.528 206.853C227.662 206.701 227.856 206.626 228.107 206.626C228.359 206.626 228.552 206.701 228.687 206.853C228.829 206.995 228.901 207.205 228.901 207.482V212.103C228.901 212.372 228.834 212.582 228.699 212.733C228.565 212.884 228.368 212.96 228.107 212.96ZM228.107 205.455C227.814 205.455 227.583 205.383 227.415 205.241C227.255 205.09 227.176 204.884 227.176 204.624C227.176 204.355 227.255 204.149 227.415 204.007C227.583 203.864 227.814 203.793 228.107 203.793C228.41 203.793 228.64 203.864 228.8 204.007C228.959 204.149 229.039 204.355 229.039 204.624C229.039 204.884 228.959 205.09 228.8 205.241C228.64 205.383 228.41 205.455 228.107 205.455ZM233.382 212.998C232.736 212.998 232.173 212.867 231.695 212.607C231.216 212.339 230.847 211.961 230.587 211.474C230.326 210.987 230.196 210.416 230.196 209.761C230.196 209.266 230.268 208.825 230.41 208.439C230.561 208.045 230.775 207.713 231.052 207.444C231.329 207.167 231.665 206.957 232.06 206.815C232.454 206.664 232.895 206.588 233.382 206.588C233.659 206.588 233.957 206.626 234.276 206.701C234.603 206.777 234.91 206.903 235.195 207.079C235.33 207.163 235.418 207.264 235.46 207.381C235.502 207.499 235.51 207.621 235.485 207.747C235.46 207.864 235.405 207.969 235.321 208.061C235.246 208.145 235.149 208.2 235.032 208.225C234.914 208.242 234.784 208.212 234.641 208.137C234.457 208.028 234.268 207.948 234.075 207.898C233.882 207.839 233.697 207.81 233.521 207.81C233.244 207.81 233 207.856 232.79 207.948C232.58 208.032 232.4 208.158 232.249 208.326C232.106 208.485 231.997 208.687 231.921 208.93C231.846 209.174 231.808 209.455 231.808 209.774C231.808 210.395 231.955 210.886 232.249 211.247C232.551 211.6 232.975 211.776 233.521 211.776C233.697 211.776 233.877 211.751 234.062 211.701C234.255 211.65 234.448 211.57 234.641 211.461C234.784 211.386 234.91 211.361 235.019 211.386C235.137 211.411 235.233 211.47 235.309 211.562C235.384 211.646 235.43 211.751 235.447 211.877C235.464 211.994 235.447 212.112 235.397 212.229C235.355 212.347 235.271 212.443 235.145 212.519C234.868 212.687 234.574 212.809 234.263 212.884C233.953 212.96 233.659 212.998 233.382 212.998ZM237.256 212.96C237.005 212.96 236.811 212.884 236.677 212.733C236.543 212.582 236.476 212.372 236.476 212.103V207.482C236.476 207.205 236.543 206.995 236.677 206.853C236.811 206.701 237.005 206.626 237.256 206.626C237.508 206.626 237.701 206.701 237.836 206.853C237.978 206.995 238.05 207.205 238.05 207.482V212.103C238.05 212.372 237.983 212.582 237.848 212.733C237.714 212.884 237.517 212.96 237.256 212.96ZM237.256 205.455C236.963 205.455 236.732 205.383 236.564 205.241C236.404 205.09 236.325 204.884 236.325 204.624C236.325 204.355 236.404 204.149 236.564 204.007C236.732 203.864 236.963 203.793 237.256 203.793C237.559 203.793 237.789 203.864 237.949 204.007C238.108 204.149 238.188 204.355 238.188 204.624C238.188 204.884 238.108 205.09 237.949 205.241C237.789 205.383 237.559 205.455 237.256 205.455ZM242.493 212.998C241.855 212.998 241.301 212.867 240.831 212.607C240.361 212.347 239.996 211.978 239.736 211.499C239.475 211.012 239.345 210.441 239.345 209.786C239.345 209.291 239.417 208.85 239.559 208.464C239.71 208.07 239.924 207.734 240.201 207.457C240.479 207.172 240.81 206.957 241.196 206.815C241.582 206.664 242.015 206.588 242.493 206.588C243.131 206.588 243.685 206.718 244.155 206.978C244.626 207.239 244.991 207.608 245.251 208.087C245.511 208.565 245.641 209.132 245.641 209.786C245.641 210.282 245.566 210.727 245.415 211.121C245.272 211.516 245.062 211.856 244.785 212.141C244.508 212.418 244.176 212.632 243.79 212.783C243.404 212.926 242.972 212.998 242.493 212.998ZM242.493 211.801C242.804 211.801 243.077 211.726 243.312 211.575C243.547 211.423 243.727 211.201 243.853 210.907C243.988 210.605 244.055 210.231 244.055 209.786C244.055 209.115 243.912 208.615 243.627 208.288C243.341 207.952 242.963 207.784 242.493 207.784C242.183 207.784 241.91 207.86 241.675 208.011C241.44 208.154 241.255 208.376 241.121 208.678C240.995 208.972 240.932 209.342 240.932 209.786C240.932 210.45 241.075 210.953 241.36 211.298C241.645 211.633 242.023 211.801 242.493 211.801Z" fill="white"/>
</g>
<rect x="84.9431" y="-38.5501" width="670.086" height="303.335" stroke="#B8C1CC" stroke-width="2.11384"/>
</g>
<rect x="1" y="1.77051" width="726" height="246" rx="7" stroke="#E6EBF0" stroke-width="2"/>
<defs>
<clipPath id="clip0_1297_1741">
<rect y="0.770508" width="728" height="248" rx="8" fill="white"/>
</clipPath>
<clipPath id="clip1_1297_1741">
<rect x="86" y="-37.4932" width="667.972" height="301.222" fill="white"/>
</clipPath>
</defs>
</svg>
