<svg width="728" height="281" viewBox="0 0 728 281" fill="none" xmlns="http://www.w3.org/2000/svg">
<g clip-path="url(#clip0_1303_5957)">
<rect y="0.770508" width="728" height="280" rx="8" fill="#F3F6F9"/>
<rect x="-62" y="-105.32" width="741" height="386.182" fill="white"/>
<rect x="-62" y="-105.32" width="741" height="386.182" stroke="#B8C1CC" stroke-width="2"/>
<rect x="-61.9655" y="20.6361" width="337.922" height="48.2745" rx="8.68942" fill="#F3F6F9"/>
<rect x="-61.9655" y="20.6361" width="337.922" height="48.2745" rx="8.68942" stroke="#E6EBF0" stroke-width="1.93098"/>
<rect x="-61" y="-7.771" width="166.397" height="19.5762" rx="5.22439" fill="#E6EBF0"/>
<rect x="-43.8708" y="35.1602" width="166.397" height="19.5762" rx="5.22439" fill="#B8C1CC"/>
<rect x="298.712" y="-7.771" width="165.174" height="19.5762" rx="5.22439" fill="#E6EBF0"/>
<rect x="297.197" y="20.6361" width="337.922" height="48.2745" rx="8.68942" fill="#F3F6F9"/>
<rect x="297.197" y="20.6361" width="337.922" height="48.2745" rx="8.68942" stroke="#E6EBF0" stroke-width="1.93098"/>
<path d="M603.94 44.2071L606.44 46.7078C606.817 47.0843 607.425 47.0843 607.802 46.7078L610.302 44.2071C610.911 43.5989 610.476 42.5562 609.617 42.5562H604.616C603.756 42.5562 603.332 43.5989 603.94 44.2071Z" fill="#101E37"/>
<rect x="315.842" y="35.1602" width="165.174" height="19.5762" rx="5.22439" fill="#B8C1CC"/>
<rect x="-61.9655" y="90.1512" width="696.885" height="87.5767" rx="8.68942" fill="#F3F6F9"/>
<rect x="-61.9655" y="90.1512" width="696.885" height="87.5767" rx="8.68942" stroke="#E6EBF0" stroke-width="1.93098"/>
<g clip-path="url(#clip1_1303_5957)">
<g clip-path="url(#clip2_1303_5957)">
<path d="M620.239 166.905L624.095 163.049L624.867 163.82L621.011 167.676L620.239 166.905ZM617.54 166.52L623.71 160.349L624.482 161.121L618.311 167.291L617.54 166.52ZM622.939 167.291L624.482 165.748L625.253 166.52L623.71 168.062L622.939 167.291Z" fill="#101E37"/>
</g>
</g>
<rect x="360.445" y="208.624" width="80.9647" height="37.5169" rx="6.75844" stroke="#101E37" stroke-width="1.93098"/>
<path d="M381.132 232.521C380.819 232.521 380.558 232.452 380.35 232.313C380.153 232.162 379.991 231.942 379.863 231.652L375.327 221.468C375.2 221.179 375.165 220.924 375.223 220.704C375.281 220.484 375.403 220.31 375.588 220.182C375.774 220.055 375.994 219.991 376.249 219.991C376.585 219.991 376.834 220.067 376.996 220.217C377.17 220.356 377.314 220.571 377.43 220.86L381.549 230.401H380.802L384.903 220.843C385.031 220.565 385.181 220.356 385.355 220.217C385.529 220.067 385.772 219.991 386.085 219.991C386.34 219.991 386.548 220.055 386.711 220.182C386.884 220.31 386.994 220.484 387.041 220.704C387.087 220.924 387.047 221.179 386.919 221.468L382.383 231.652C382.256 231.942 382.094 232.162 381.897 232.313C381.711 232.452 381.456 232.521 381.132 232.521ZM391.236 232.556C390.355 232.556 389.591 232.377 388.942 232.017C388.293 231.658 387.789 231.148 387.43 230.488C387.071 229.816 386.891 229.028 386.891 228.125C386.891 227.441 386.99 226.833 387.187 226.3C387.395 225.755 387.691 225.292 388.073 224.909C388.455 224.516 388.913 224.22 389.446 224.023C389.979 223.815 390.575 223.71 391.236 223.71C392.116 223.71 392.881 223.89 393.53 224.249C394.179 224.608 394.683 225.118 395.042 225.778C395.401 226.439 395.581 227.221 395.581 228.125C395.581 228.808 395.476 229.422 395.268 229.967C395.071 230.511 394.781 230.98 394.399 231.374C394.016 231.757 393.559 232.052 393.026 232.261C392.493 232.458 391.896 232.556 391.236 232.556ZM391.236 230.905C391.665 230.905 392.041 230.801 392.365 230.592C392.69 230.384 392.939 230.077 393.113 229.671C393.298 229.254 393.391 228.739 393.391 228.125C393.391 227.198 393.194 226.508 392.8 226.056C392.406 225.593 391.885 225.361 391.236 225.361C390.807 225.361 390.431 225.466 390.106 225.674C389.782 225.871 389.527 226.178 389.342 226.595C389.168 227.001 389.081 227.51 389.081 228.125C389.081 229.04 389.278 229.735 389.672 230.21C390.066 230.673 390.587 230.905 391.236 230.905ZM400.276 232.556C399.314 232.556 398.59 232.284 398.103 231.739C397.617 231.183 397.374 230.372 397.374 229.306V221.086C397.374 220.727 397.466 220.455 397.652 220.269C397.837 220.084 398.103 219.991 398.451 219.991C398.799 219.991 399.065 220.084 399.25 220.269C399.447 220.455 399.546 220.727 399.546 221.086V229.202C399.546 229.735 399.656 230.129 399.876 230.384C400.108 230.639 400.432 230.766 400.849 230.766C400.942 230.766 401.029 230.766 401.11 230.766C401.191 230.755 401.272 230.743 401.353 230.731C401.516 230.708 401.626 230.755 401.684 230.87C401.741 230.975 401.77 231.195 401.77 231.531C401.77 231.82 401.713 232.046 401.597 232.209C401.481 232.371 401.29 232.469 401.023 232.504C400.907 232.516 400.786 232.527 400.658 232.539C400.531 232.55 400.403 232.556 400.276 232.556ZM406.144 232.521C405.854 232.521 405.599 232.446 405.379 232.295C405.17 232.145 404.997 231.913 404.858 231.6L402.094 225.187C401.99 224.933 401.95 224.695 401.973 224.475C402.007 224.255 402.112 224.081 402.286 223.954C402.471 223.815 402.72 223.745 403.033 223.745C403.299 223.745 403.514 223.809 403.676 223.936C403.838 224.052 403.983 224.278 404.11 224.614L406.456 230.471H405.935L408.351 224.597C408.478 224.272 408.623 224.052 408.785 223.936C408.959 223.809 409.191 223.745 409.48 223.745C409.735 223.745 409.938 223.815 410.089 223.954C410.239 224.081 410.332 224.255 410.367 224.475C410.401 224.684 410.361 224.915 410.245 225.17L407.43 231.6C407.302 231.913 407.128 232.145 406.908 232.295C406.7 232.446 406.445 232.521 406.144 232.521ZM415.886 232.556C414.924 232.556 414.096 232.377 413.401 232.017C412.706 231.658 412.167 231.148 411.784 230.488C411.414 229.828 411.228 229.046 411.228 228.142C411.228 227.261 411.408 226.491 411.767 225.831C412.138 225.17 412.642 224.655 413.279 224.284C413.928 223.901 414.664 223.71 415.486 223.71C416.089 223.71 416.627 223.809 417.102 224.006C417.589 224.203 418 224.487 418.336 224.857C418.684 225.228 418.945 225.68 419.118 226.213C419.304 226.734 419.396 227.325 419.396 227.985C419.396 228.194 419.321 228.356 419.17 228.472C419.031 228.576 418.829 228.628 418.562 228.628H412.984V227.377H417.867L417.589 227.638C417.589 227.105 417.508 226.659 417.346 226.3C417.195 225.941 416.969 225.668 416.668 225.483C416.378 225.286 416.013 225.187 415.573 225.187C415.086 225.187 414.669 225.303 414.322 225.535C413.986 225.755 413.725 226.074 413.54 226.491C413.366 226.896 413.279 227.383 413.279 227.951V228.072C413.279 229.022 413.499 229.735 413.939 230.21C414.391 230.673 415.052 230.905 415.921 230.905C416.222 230.905 416.558 230.87 416.929 230.801C417.311 230.72 417.67 230.587 418.006 230.401C418.249 230.262 418.464 230.204 418.649 230.227C418.834 230.239 418.979 230.303 419.084 230.419C419.199 230.534 419.269 230.679 419.292 230.853C419.315 231.015 419.281 231.183 419.188 231.357C419.107 231.531 418.962 231.681 418.753 231.809C418.348 232.064 417.879 232.255 417.346 232.382C416.824 232.498 416.338 232.556 415.886 232.556ZM422.229 232.521C421.87 232.521 421.592 232.429 421.395 232.243C421.209 232.046 421.117 231.768 421.117 231.409V224.84C421.117 224.481 421.209 224.208 421.395 224.023C421.58 223.838 421.841 223.745 422.177 223.745C422.513 223.745 422.774 223.838 422.959 224.023C423.144 224.208 423.237 224.481 423.237 224.84V225.935H423.063C423.225 225.24 423.544 224.712 424.019 224.353C424.494 223.994 425.125 223.78 425.913 223.71C426.157 223.687 426.348 223.751 426.487 223.901C426.637 224.04 426.724 224.261 426.747 224.562C426.771 224.851 426.701 225.089 426.539 225.274C426.388 225.448 426.157 225.552 425.844 225.587L425.461 225.622C424.755 225.691 424.222 225.912 423.863 226.282C423.503 226.642 423.324 227.151 423.324 227.812V231.409C423.324 231.768 423.231 232.046 423.046 232.243C422.86 232.429 422.588 232.521 422.229 232.521Z" fill="#101E37"/>
<rect x="457.058" y="207.658" width="176.896" height="39.4479" rx="7.72393" fill="#101E37"/>
<path d="M479.544 232.556C478.27 232.556 477.175 232.301 476.259 231.791C475.356 231.27 474.661 230.54 474.174 229.602C473.687 228.652 473.444 227.534 473.444 226.248C473.444 225.286 473.583 224.423 473.861 223.658C474.139 222.882 474.539 222.221 475.06 221.677C475.582 221.121 476.219 220.698 476.972 220.408C477.737 220.107 478.594 219.956 479.544 219.956C480.181 219.956 480.807 220.038 481.421 220.2C482.035 220.362 482.574 220.594 483.037 220.895C483.28 221.046 483.443 221.231 483.524 221.451C483.605 221.66 483.622 221.868 483.576 222.077C483.53 222.274 483.431 222.442 483.28 222.581C483.141 222.72 482.962 222.801 482.742 222.824C482.533 222.836 482.301 222.76 482.047 222.598C481.687 222.366 481.299 222.198 480.882 222.094C480.465 221.99 480.042 221.938 479.614 221.938C478.791 221.938 478.096 222.106 477.528 222.442C476.96 222.778 476.532 223.264 476.242 223.901C475.952 224.539 475.808 225.321 475.808 226.248C475.808 227.163 475.952 227.945 476.242 228.594C476.532 229.243 476.96 229.735 477.528 230.071C478.096 230.407 478.791 230.575 479.614 230.575C480.054 230.575 480.488 230.523 480.917 230.419C481.346 230.303 481.751 230.129 482.133 229.897C482.388 229.747 482.614 229.683 482.811 229.706C483.02 229.718 483.194 229.787 483.333 229.915C483.472 230.042 483.564 230.204 483.611 230.401C483.657 230.587 483.645 230.783 483.576 230.992C483.506 231.189 483.367 231.363 483.159 231.513C482.695 231.849 482.139 232.11 481.49 232.295C480.853 232.469 480.204 232.556 479.544 232.556ZM488.712 232.556C487.831 232.556 487.067 232.377 486.418 232.017C485.769 231.658 485.265 231.148 484.906 230.488C484.547 229.816 484.367 229.028 484.367 228.125C484.367 227.441 484.466 226.833 484.663 226.3C484.871 225.755 485.167 225.292 485.549 224.909C485.931 224.516 486.389 224.22 486.922 224.023C487.455 223.815 488.052 223.71 488.712 223.71C489.592 223.71 490.357 223.89 491.006 224.249C491.655 224.608 492.159 225.118 492.518 225.778C492.877 226.439 493.057 227.221 493.057 228.125C493.057 228.808 492.952 229.422 492.744 229.967C492.547 230.511 492.257 230.98 491.875 231.374C491.493 231.757 491.035 232.052 490.502 232.261C489.969 232.458 489.372 232.556 488.712 232.556ZM488.712 230.905C489.141 230.905 489.517 230.801 489.842 230.592C490.166 230.384 490.415 230.077 490.589 229.671C490.774 229.254 490.867 228.739 490.867 228.125C490.867 227.198 490.67 226.508 490.276 226.056C489.882 225.593 489.361 225.361 488.712 225.361C488.283 225.361 487.907 225.466 487.582 225.674C487.258 225.871 487.003 226.178 486.818 226.595C486.644 227.001 486.557 227.51 486.557 228.125C486.557 229.04 486.754 229.735 487.148 230.21C487.542 230.673 488.063 230.905 488.712 230.905ZM495.927 232.521C495.58 232.521 495.313 232.429 495.128 232.243C494.942 232.046 494.85 231.768 494.85 231.409V224.84C494.85 224.481 494.942 224.208 495.128 224.023C495.313 223.838 495.574 223.745 495.91 223.745C496.246 223.745 496.506 223.838 496.692 224.023C496.877 224.208 496.97 224.481 496.97 224.84V226.022L496.779 225.587C497.034 224.973 497.427 224.51 497.96 224.197C498.505 223.872 499.119 223.71 499.803 223.71C500.486 223.71 501.048 223.838 501.488 224.093C501.929 224.348 502.259 224.736 502.479 225.257C502.699 225.767 502.809 226.416 502.809 227.203V231.409C502.809 231.768 502.716 232.046 502.531 232.243C502.346 232.429 502.079 232.521 501.732 232.521C501.384 232.521 501.112 232.429 500.915 232.243C500.729 232.046 500.637 231.768 500.637 231.409V227.308C500.637 226.647 500.509 226.166 500.254 225.865C500.011 225.564 499.629 225.413 499.107 225.413C498.47 225.413 497.96 225.616 497.578 226.022C497.207 226.416 497.022 226.943 497.022 227.603V231.409C497.022 232.151 496.657 232.521 495.927 232.521ZM506.684 232.521C506.336 232.521 506.064 232.429 505.867 232.243C505.682 232.046 505.589 231.768 505.589 231.409V225.518H504.79C504.512 225.518 504.297 225.448 504.147 225.309C503.996 225.159 503.921 224.956 503.921 224.701C503.921 224.434 503.996 224.232 504.147 224.093C504.297 223.954 504.512 223.884 504.79 223.884H506.215L505.589 224.458V223.867C505.589 222.697 505.885 221.81 506.475 221.208C507.066 220.605 507.924 220.246 509.047 220.13L509.569 220.078C509.835 220.055 510.044 220.09 510.194 220.182C510.357 220.275 510.461 220.403 510.507 220.565C510.565 220.715 510.577 220.878 510.542 221.051C510.507 221.214 510.438 221.358 510.333 221.486C510.229 221.602 510.096 221.665 509.934 221.677L509.517 221.712C508.903 221.758 508.457 221.926 508.179 222.216C507.9 222.505 507.761 222.94 507.761 223.519V224.162L507.483 223.884H512.297C512.645 223.884 512.911 223.988 513.097 224.197C513.282 224.394 513.375 224.678 513.375 225.048V231.322C513.375 231.693 513.282 231.983 513.097 232.191C512.923 232.4 512.656 232.504 512.297 232.504C511.95 232.504 511.677 232.4 511.481 232.191C511.295 231.983 511.202 231.693 511.202 231.322V225.518H507.761V231.409C507.761 232.151 507.402 232.521 506.684 232.521ZM512.332 222.146C511.938 222.146 511.631 222.048 511.411 221.851C511.202 221.642 511.098 221.358 511.098 220.999C511.098 220.628 511.202 220.345 511.411 220.148C511.631 219.951 511.938 219.852 512.332 219.852C512.738 219.852 513.045 219.951 513.253 220.148C513.473 220.345 513.583 220.628 513.583 220.999C513.583 221.358 513.473 221.642 513.253 221.851C513.045 222.048 512.738 222.146 512.332 222.146ZM516.752 232.521C516.393 232.521 516.115 232.429 515.918 232.243C515.732 232.046 515.64 231.768 515.64 231.409V224.84C515.64 224.481 515.732 224.208 515.918 224.023C516.103 223.838 516.364 223.745 516.7 223.745C517.036 223.745 517.297 223.838 517.482 224.023C517.667 224.208 517.76 224.481 517.76 224.84V225.935H517.586C517.748 225.24 518.067 224.712 518.542 224.353C519.017 223.994 519.648 223.78 520.436 223.71C520.68 223.687 520.871 223.751 521.01 223.901C521.16 224.04 521.247 224.261 521.27 224.562C521.294 224.851 521.224 225.089 521.062 225.274C520.911 225.448 520.68 225.552 520.367 225.587L519.984 225.622C519.278 225.691 518.745 225.912 518.386 226.282C518.026 226.642 517.847 227.151 517.847 227.812V231.409C517.847 231.768 517.754 232.046 517.569 232.243C517.383 232.429 517.111 232.521 516.752 232.521ZM523.558 232.521C523.21 232.521 522.944 232.429 522.758 232.243C522.573 232.046 522.48 231.768 522.48 231.409V224.84C522.48 224.481 522.573 224.208 522.758 224.023C522.944 223.838 523.204 223.745 523.54 223.745C523.876 223.745 524.137 223.838 524.322 224.023C524.508 224.208 524.6 224.481 524.6 224.84V226.109L524.409 225.587C524.641 225.008 525 224.55 525.487 224.214C525.973 223.878 526.553 223.71 527.225 223.71C527.908 223.71 528.47 223.872 528.91 224.197C529.351 224.521 529.658 225.019 529.831 225.691H529.588C529.82 225.077 530.202 224.597 530.735 224.249C531.268 223.89 531.882 223.71 532.577 223.71C533.226 223.71 533.759 223.838 534.176 224.093C534.605 224.348 534.923 224.736 535.132 225.257C535.34 225.767 535.445 226.416 535.445 227.203V231.409C535.445 231.768 535.346 232.046 535.149 232.243C534.964 232.429 534.697 232.521 534.35 232.521C534.002 232.521 533.736 232.429 533.55 232.243C533.365 232.046 533.272 231.768 533.272 231.409V227.29C533.272 226.642 533.162 226.166 532.942 225.865C532.734 225.564 532.374 225.413 531.865 225.413C531.297 225.413 530.851 225.616 530.526 226.022C530.202 226.416 530.04 226.966 530.04 227.673V231.409C530.04 231.768 529.947 232.046 529.762 232.243C529.576 232.429 529.31 232.521 528.962 232.521C528.615 232.521 528.343 232.429 528.146 232.243C527.96 232.046 527.868 231.768 527.868 231.409V227.29C527.868 226.642 527.757 226.166 527.537 225.865C527.329 225.564 526.975 225.413 526.477 225.413C525.91 225.413 525.463 225.616 525.139 226.022C524.815 226.416 524.652 226.966 524.652 227.673V231.409C524.652 232.151 524.287 232.521 523.558 232.521ZM540.484 232.556C539.87 232.556 539.319 232.44 538.833 232.209C538.358 231.965 537.981 231.641 537.703 231.235C537.437 230.83 537.303 230.372 537.303 229.862C537.303 229.237 537.466 228.744 537.79 228.385C538.114 228.014 538.642 227.748 539.371 227.586C540.101 227.424 541.08 227.342 542.309 227.342H543.177V228.594H542.326C541.608 228.594 541.034 228.628 540.605 228.698C540.177 228.768 539.87 228.889 539.684 229.063C539.511 229.225 539.424 229.457 539.424 229.758C539.424 230.14 539.557 230.453 539.823 230.697C540.09 230.94 540.461 231.062 540.936 231.062C541.318 231.062 541.654 230.975 541.944 230.801C542.245 230.615 542.482 230.366 542.656 230.054C542.83 229.741 542.917 229.382 542.917 228.976V226.978C542.917 226.398 542.789 225.981 542.534 225.726C542.28 225.471 541.851 225.344 541.248 225.344C540.912 225.344 540.547 225.384 540.154 225.466C539.771 225.547 539.366 225.686 538.937 225.883C538.717 225.987 538.52 226.016 538.346 225.97C538.184 225.923 538.056 225.831 537.964 225.691C537.871 225.541 537.825 225.379 537.825 225.205C537.825 225.031 537.871 224.863 537.964 224.701C538.056 224.527 538.213 224.4 538.433 224.319C538.966 224.098 539.476 223.942 539.962 223.849C540.461 223.757 540.912 223.71 541.318 223.71C542.152 223.71 542.836 223.838 543.369 224.093C543.913 224.348 544.319 224.736 544.585 225.257C544.852 225.767 544.985 226.427 544.985 227.238V231.409C544.985 231.768 544.898 232.046 544.724 232.243C544.55 232.429 544.301 232.521 543.977 232.521C543.652 232.521 543.398 232.429 543.212 232.243C543.038 232.046 542.952 231.768 542.952 231.409V230.575H543.091C543.009 230.98 542.847 231.334 542.604 231.635C542.372 231.925 542.077 232.151 541.718 232.313C541.358 232.475 540.947 232.556 540.484 232.556ZM548.302 232.521C547.943 232.521 547.665 232.429 547.468 232.243C547.282 232.046 547.19 231.768 547.19 231.409V224.84C547.19 224.481 547.282 224.208 547.468 224.023C547.653 223.838 547.914 223.745 548.25 223.745C548.586 223.745 548.847 223.838 549.032 224.023C549.217 224.208 549.31 224.481 549.31 224.84V225.935H549.136C549.298 225.24 549.617 224.712 550.092 224.353C550.567 223.994 551.199 223.78 551.986 223.71C552.23 223.687 552.421 223.751 552.56 223.901C552.71 224.04 552.797 224.261 552.821 224.562C552.844 224.851 552.774 225.089 552.612 225.274C552.461 225.448 552.23 225.552 551.917 225.587L551.535 225.622C550.828 225.691 550.295 225.912 549.936 226.282C549.576 226.642 549.397 227.151 549.397 227.812V231.409C549.397 231.768 549.304 232.046 549.119 232.243C548.933 232.429 548.661 232.521 548.302 232.521ZM562.902 232.556C561.94 232.556 561.112 232.377 560.417 232.017C559.721 231.658 559.183 231.148 558.8 230.488C558.43 229.828 558.244 229.046 558.244 228.142C558.244 227.261 558.424 226.491 558.783 225.831C559.154 225.17 559.658 224.655 560.295 224.284C560.944 223.901 561.679 223.71 562.502 223.71C563.105 223.71 563.643 223.809 564.118 224.006C564.605 224.203 565.016 224.487 565.352 224.857C565.7 225.228 565.96 225.68 566.134 226.213C566.32 226.734 566.412 227.325 566.412 227.985C566.412 228.194 566.337 228.356 566.186 228.472C566.047 228.576 565.845 228.628 565.578 228.628H559.999V227.377H564.883L564.605 227.638C564.605 227.105 564.524 226.659 564.362 226.3C564.211 225.941 563.985 225.668 563.684 225.483C563.394 225.286 563.029 225.187 562.589 225.187C562.102 225.187 561.685 225.303 561.338 225.535C561.002 225.755 560.741 226.074 560.556 226.491C560.382 226.896 560.295 227.383 560.295 227.951V228.072C560.295 229.022 560.515 229.735 560.955 230.21C561.407 230.673 562.068 230.905 562.937 230.905C563.238 230.905 563.574 230.87 563.944 230.801C564.327 230.72 564.686 230.587 565.022 230.401C565.265 230.262 565.48 230.204 565.665 230.227C565.85 230.239 565.995 230.303 566.099 230.419C566.215 230.534 566.285 230.679 566.308 230.853C566.331 231.015 566.296 231.183 566.204 231.357C566.123 231.531 565.978 231.681 565.769 231.809C565.364 232.064 564.895 232.255 564.362 232.382C563.84 232.498 563.354 232.556 562.902 232.556ZM571.035 232.556C570.073 232.556 569.349 232.284 568.863 231.739C568.376 231.183 568.133 230.372 568.133 229.306V221.086C568.133 220.727 568.225 220.455 568.411 220.269C568.596 220.084 568.863 219.991 569.21 219.991C569.558 219.991 569.824 220.084 570.01 220.269C570.207 220.455 570.305 220.727 570.305 221.086V229.202C570.305 229.735 570.415 230.129 570.635 230.384C570.867 230.639 571.191 230.766 571.608 230.766C571.701 230.766 571.788 230.766 571.869 230.766C571.95 230.755 572.031 230.743 572.112 230.731C572.275 230.708 572.385 230.755 572.443 230.87C572.501 230.975 572.529 231.195 572.529 231.531C572.529 231.82 572.472 232.046 572.356 232.209C572.24 232.371 572.049 232.469 571.782 232.504C571.666 232.516 571.545 232.527 571.417 232.539C571.29 232.55 571.162 232.556 571.035 232.556ZM579.478 235.65C579.13 235.65 578.864 235.557 578.678 235.371C578.493 235.186 578.4 234.914 578.4 234.555V224.84C578.4 224.481 578.493 224.208 578.678 224.023C578.864 223.838 579.125 223.745 579.461 223.745C579.808 223.745 580.075 223.838 580.26 224.023C580.445 224.208 580.538 224.481 580.538 224.84V226.195L580.347 225.674C580.521 225.083 580.874 224.608 581.407 224.249C581.951 223.89 582.583 223.71 583.301 223.71C584.043 223.71 584.692 223.89 585.248 224.249C585.815 224.608 586.256 225.118 586.568 225.778C586.881 226.427 587.038 227.209 587.038 228.125C587.038 229.028 586.881 229.816 586.568 230.488C586.256 231.148 585.821 231.658 585.265 232.017C584.709 232.377 584.054 232.556 583.301 232.556C582.595 232.556 581.975 232.382 581.442 232.035C580.909 231.676 580.55 231.212 580.364 230.644H580.573V234.555C580.573 234.914 580.474 235.186 580.277 235.371C580.092 235.557 579.825 235.65 579.478 235.65ZM582.693 230.905C583.122 230.905 583.498 230.801 583.823 230.592C584.147 230.384 584.396 230.077 584.57 229.671C584.755 229.254 584.848 228.739 584.848 228.125C584.848 227.198 584.651 226.508 584.257 226.056C583.863 225.593 583.342 225.361 582.693 225.361C582.264 225.361 581.888 225.466 581.563 225.674C581.239 225.871 580.984 226.178 580.799 226.595C580.625 227.001 580.538 227.51 580.538 228.125C580.538 229.04 580.735 229.735 581.129 230.21C581.523 230.673 582.044 230.905 582.693 230.905ZM591.619 232.556C591.005 232.556 590.455 232.44 589.968 232.209C589.493 231.965 589.116 231.641 588.838 231.235C588.572 230.83 588.439 230.372 588.439 229.862C588.439 229.237 588.601 228.744 588.925 228.385C589.25 228.014 589.777 227.748 590.507 227.586C591.237 227.424 592.216 227.342 593.444 227.342H594.313V228.594H593.461C592.743 228.594 592.169 228.628 591.741 228.698C591.312 228.768 591.005 228.889 590.819 229.063C590.646 229.225 590.559 229.457 590.559 229.758C590.559 230.14 590.692 230.453 590.959 230.697C591.225 230.94 591.596 231.062 592.071 231.062C592.453 231.062 592.789 230.975 593.079 230.801C593.38 230.615 593.617 230.366 593.791 230.054C593.965 229.741 594.052 229.382 594.052 228.976V226.978C594.052 226.398 593.925 225.981 593.67 225.726C593.415 225.471 592.986 225.344 592.384 225.344C592.048 225.344 591.683 225.384 591.289 225.466C590.906 225.547 590.501 225.686 590.072 225.883C589.852 225.987 589.655 226.016 589.481 225.97C589.319 225.923 589.192 225.831 589.099 225.691C589.006 225.541 588.96 225.379 588.96 225.205C588.96 225.031 589.006 224.863 589.099 224.701C589.192 224.527 589.348 224.4 589.568 224.319C590.101 224.098 590.611 223.942 591.098 223.849C591.596 223.757 592.048 223.71 592.453 223.71C593.287 223.71 593.971 223.838 594.504 224.093C595.048 224.348 595.454 224.736 595.72 225.257C595.987 225.767 596.12 226.427 596.12 227.238V231.409C596.12 231.768 596.033 232.046 595.859 232.243C595.686 232.429 595.436 232.521 595.112 232.521C594.788 232.521 594.533 232.429 594.347 232.243C594.174 232.046 594.087 231.768 594.087 231.409V230.575H594.226C594.145 230.98 593.982 231.334 593.739 231.635C593.507 231.925 593.212 232.151 592.853 232.313C592.494 232.475 592.082 232.556 591.619 232.556ZM602.287 235.684C601.662 235.684 601.053 235.626 600.463 235.511C599.883 235.395 599.356 235.215 598.881 234.972C598.661 234.856 598.51 234.717 598.429 234.555C598.36 234.392 598.337 234.224 598.36 234.051C598.394 233.888 598.464 233.744 598.568 233.616C598.684 233.489 598.823 233.402 598.985 233.356C599.148 233.309 599.316 233.332 599.489 233.425C599.999 233.68 600.48 233.842 600.932 233.912C601.395 233.993 601.789 234.033 602.114 234.033C602.89 234.033 603.469 233.842 603.851 233.46C604.245 233.089 604.442 232.533 604.442 231.791V230.227H604.599C604.425 230.818 604.06 231.293 603.504 231.652C602.959 232 602.339 232.174 601.644 232.174C600.88 232.174 600.213 232 599.646 231.652C599.078 231.293 598.638 230.795 598.325 230.158C598.012 229.521 597.856 228.779 597.856 227.933C597.856 227.296 597.943 226.723 598.116 226.213C598.302 225.691 598.557 225.245 598.881 224.875C599.217 224.504 599.617 224.22 600.08 224.023C600.555 223.815 601.077 223.71 601.644 223.71C602.363 223.71 602.988 223.89 603.521 224.249C604.066 224.597 604.419 225.06 604.581 225.639L604.408 226.074V224.84C604.408 224.481 604.5 224.208 604.686 224.023C604.883 223.838 605.149 223.745 605.485 223.745C605.833 223.745 606.099 223.838 606.284 224.023C606.47 224.208 606.563 224.481 606.563 224.84V231.531C606.563 232.909 606.198 233.946 605.468 234.642C604.738 235.337 603.678 235.684 602.287 235.684ZM602.235 230.523C602.687 230.523 603.075 230.419 603.4 230.21C603.724 230.001 603.973 229.706 604.147 229.324C604.332 228.93 604.425 228.466 604.425 227.933C604.425 227.134 604.228 226.508 603.834 226.056C603.44 225.593 602.907 225.361 602.235 225.361C601.783 225.361 601.395 225.466 601.071 225.674C600.746 225.883 600.492 226.178 600.306 226.56C600.132 226.943 600.045 227.4 600.045 227.933C600.045 228.733 600.242 229.364 600.636 229.828C601.03 230.291 601.563 230.523 602.235 230.523ZM612.689 232.556C611.808 232.556 611.044 232.377 610.395 232.017C609.746 231.658 609.242 231.148 608.883 230.488C608.524 229.816 608.344 229.028 608.344 228.125C608.344 227.441 608.443 226.833 608.64 226.3C608.848 225.755 609.144 225.292 609.526 224.909C609.908 224.516 610.366 224.22 610.899 224.023C611.432 223.815 612.028 223.71 612.689 223.71C613.569 223.71 614.334 223.89 614.983 224.249C615.632 224.608 616.136 225.118 616.495 225.778C616.854 226.439 617.034 227.221 617.034 228.125C617.034 228.808 616.929 229.422 616.721 229.967C616.524 230.511 616.234 230.98 615.852 231.374C615.469 231.757 615.012 232.052 614.479 232.261C613.946 232.458 613.349 232.556 612.689 232.556ZM612.689 230.905C613.118 230.905 613.494 230.801 613.818 230.592C614.143 230.384 614.392 230.077 614.566 229.671C614.751 229.254 614.844 228.739 614.844 228.125C614.844 227.198 614.647 226.508 614.253 226.056C613.859 225.593 613.338 225.361 612.689 225.361C612.26 225.361 611.884 225.466 611.559 225.674C611.235 225.871 610.98 226.178 610.795 226.595C610.621 227.001 610.534 227.51 610.534 228.125C610.534 229.04 610.731 229.735 611.125 230.21C611.519 230.673 612.04 230.905 612.689 230.905Z" fill="white"/>
</g>
<rect x="1" y="1.77051" width="726" height="278" rx="7" stroke="#E6EBF0" stroke-width="2"/>
<defs>
<clipPath id="clip0_1303_5957">
<rect y="0.770508" width="728" height="280" rx="8" fill="white"/>
</clipPath>
<clipPath id="clip1_1303_5957">
<rect width="23.1718" height="23.1718" fill="white" transform="translate(610.782 153.591)"/>
</clipPath>
<clipPath id="clip2_1303_5957">
<rect width="10.0266" height="10.0266" fill="white" transform="translate(617.54 160.349)"/>
</clipPath>
</defs>
</svg>
