<svg width="728" height="271" viewBox="0 0 728 271" fill="none" xmlns="http://www.w3.org/2000/svg">
<g clip-path="url(#clip0_3270_18019)">
<rect width="728" height="270.491" rx="8" fill="#F3F6F9"/>
<rect x="70" y="43" width="54" height="27" rx="6.63173" fill="#005E7A"/>
<path d="M82.517 59.9366C82.6497 59.9366 82.7857 59.9252 82.925 59.9026C83.0642 59.8799 83.1776 59.8524 83.265 59.82V60.4466C83.1711 60.4887 83.0399 60.5243 82.8716 60.5534C82.7064 60.5826 82.5445 60.5971 82.3858 60.5971C82.1041 60.5971 81.8483 60.5486 81.6184 60.4514C81.3885 60.351 81.2039 60.1827 81.0647 59.9463C80.9287 59.7099 80.8607 59.3828 80.8607 58.9651V55.8079H80.1029V55.4145L80.8655 55.0988L81.1861 53.9427H81.6718V55.1765H83.231V55.8079H81.6718V58.9408C81.6718 59.2744 81.7479 59.5237 81.9001 59.6888C82.0555 59.854 82.2612 59.9366 82.517 59.9366ZM86.3348 55.0891C86.9694 55.0891 87.4406 55.2315 87.7482 55.5165C88.0558 55.8014 88.2096 56.2564 88.2096 56.8814V60.5H87.6219L87.4665 59.7131H87.4276C87.2787 59.9074 87.1232 60.0709 86.9613 60.2037C86.7994 60.3332 86.6116 60.432 86.3979 60.5C86.1874 60.5648 85.9284 60.5971 85.6207 60.5971C85.2969 60.5971 85.0087 60.5405 84.7562 60.4271C84.5068 60.3138 84.3093 60.1422 84.1636 59.9123C84.0211 59.6824 83.9499 59.3909 83.9499 59.038C83.9499 58.5069 84.1603 58.0989 84.5813 57.814C85.0023 57.529 85.6434 57.3736 86.5048 57.3477L87.4228 57.3088V56.9834C87.4228 56.5236 87.324 56.2014 87.1265 56.0168C86.929 55.8322 86.6505 55.7399 86.291 55.7399C86.0126 55.7399 85.747 55.7804 85.4945 55.8614C85.2419 55.9423 85.0023 56.0378 84.7756 56.1479L84.5279 55.5359C84.7675 55.4129 85.0427 55.3076 85.3536 55.2202C85.6645 55.1328 85.9915 55.0891 86.3348 55.0891ZM87.4131 57.8771L86.6019 57.9111C85.9381 57.937 85.4702 58.0455 85.1982 58.2365C84.9262 58.4276 84.7902 58.698 84.7902 59.0477C84.7902 59.3521 84.8824 59.5771 85.067 59.7228C85.2516 59.8686 85.4961 59.9414 85.8005 59.9414C86.2732 59.9414 86.6602 59.8103 86.9613 59.548C87.2625 59.2857 87.4131 58.8923 87.4131 58.3677V57.8771ZM90.6771 52.9422V54.8316C90.6771 55.0486 90.6706 55.2591 90.6577 55.4631C90.648 55.6671 90.6399 55.8257 90.6334 55.9391H90.6771C90.8228 55.6994 91.0333 55.4971 91.3086 55.3319C91.5838 55.1668 91.9351 55.0842 92.3626 55.0842C93.0296 55.0842 93.5607 55.3157 93.9557 55.7788C94.354 56.2386 94.5532 56.9235 94.5532 57.8334C94.5532 58.4324 94.4625 58.9376 94.2812 59.3488C94.0998 59.7601 93.844 60.0709 93.5137 60.2814C93.1834 60.4919 92.7932 60.5971 92.3431 60.5971C91.9222 60.5971 91.5757 60.5194 91.3037 60.364C91.0349 60.2053 90.8277 60.0127 90.682 59.786H90.6188L90.4537 60.5H89.8708V52.9422H90.6771ZM92.2314 55.7593C91.8461 55.7593 91.5401 55.8354 91.3134 55.9876C91.0867 56.1366 90.9232 56.3633 90.8228 56.6676C90.7257 56.9688 90.6771 57.3509 90.6771 57.814V57.8577C90.6771 58.528 90.7888 59.0412 91.0123 59.3974C91.2357 59.7504 91.6421 59.9268 92.2314 59.9268C92.7269 59.9268 93.0976 59.7455 93.3437 59.3828C93.5931 59.0202 93.7177 58.5021 93.7177 57.8285C93.7177 57.142 93.5947 56.6256 93.3486 56.2791C93.1057 55.9326 92.7333 55.7593 92.2314 55.7593Z" fill="white"/>
<rect x="456" y="100" width="53.0538" height="26.5269" rx="6.63173" fill="#005E7A"/>
<path d="M468.847 111.843C469.301 111.843 469.689 111.943 470.013 112.144C470.337 112.345 470.585 112.626 470.756 112.989C470.928 113.349 471.014 113.77 471.014 114.252V114.752H467.337C467.346 115.377 467.502 115.853 467.803 116.18C468.104 116.507 468.528 116.671 469.076 116.671C469.412 116.671 469.71 116.64 469.969 116.579C470.228 116.517 470.497 116.426 470.776 116.307V117.016C470.507 117.136 470.24 117.223 469.974 117.278C469.712 117.333 469.401 117.361 469.042 117.361C468.53 117.361 468.083 117.257 467.701 117.05C467.322 116.839 467.027 116.532 466.817 116.127C466.606 115.722 466.501 115.227 466.501 114.641C466.501 114.067 466.597 113.572 466.788 113.154C466.982 112.733 467.254 112.41 467.604 112.183C467.957 111.956 468.371 111.843 468.847 111.843ZM468.838 112.503C468.407 112.503 468.064 112.644 467.808 112.926C467.552 113.208 467.4 113.601 467.351 114.106H470.168C470.165 113.789 470.115 113.51 470.018 113.271C469.924 113.028 469.78 112.84 469.586 112.707C469.391 112.571 469.142 112.503 468.838 112.503ZM474.904 111.843C475.536 111.843 476.013 111.998 476.337 112.309C476.661 112.617 476.823 113.112 476.823 113.795V117.263H476.026V113.849C476.026 113.405 475.924 113.073 475.72 112.853C475.519 112.633 475.21 112.523 474.793 112.523C474.203 112.523 473.789 112.69 473.549 113.023C473.309 113.357 473.19 113.841 473.19 114.475V117.263H472.383V111.94H473.034L473.156 112.707H473.199C473.313 112.52 473.457 112.363 473.632 112.236C473.806 112.107 474.002 112.01 474.219 111.945C474.436 111.877 474.665 111.843 474.904 111.843ZM480.203 116.7C480.336 116.7 480.472 116.689 480.611 116.666C480.751 116.643 480.864 116.616 480.951 116.583V117.21C480.858 117.252 480.726 117.288 480.558 117.317C480.393 117.346 480.231 117.361 480.072 117.361C479.791 117.361 479.535 117.312 479.305 117.215C479.075 117.115 478.89 116.946 478.751 116.71C478.615 116.473 478.547 116.146 478.547 115.729V112.571H477.789V112.178L478.552 111.862L478.873 110.706H479.358V111.94H480.917V112.571H479.358V115.704C479.358 116.038 479.434 116.287 479.587 116.452C479.742 116.617 479.948 116.7 480.203 116.7ZM484.08 111.843C484.533 111.843 484.921 111.943 485.245 112.144C485.569 112.345 485.817 112.626 485.988 112.989C486.16 113.349 486.246 113.77 486.246 114.252V114.752H482.569C482.579 115.377 482.734 115.853 483.035 116.18C483.336 116.507 483.761 116.671 484.308 116.671C484.645 116.671 484.942 116.64 485.202 116.579C485.461 116.517 485.729 116.426 486.008 116.307V117.016C485.739 117.136 485.472 117.223 485.206 117.278C484.944 117.333 484.633 117.361 484.274 117.361C483.762 117.361 483.315 117.257 482.933 117.05C482.554 116.839 482.26 116.532 482.049 116.127C481.839 115.722 481.733 115.227 481.733 114.641C481.733 114.067 481.829 113.572 482.02 113.154C482.214 112.733 482.486 112.41 482.836 112.183C483.189 111.956 483.604 111.843 484.08 111.843ZM484.07 112.503C483.639 112.503 483.296 112.644 483.04 112.926C482.784 113.208 482.632 113.601 482.584 114.106H485.401C485.397 113.789 485.347 113.51 485.25 113.271C485.156 113.028 485.012 112.84 484.818 112.707C484.624 112.571 484.374 112.503 484.07 112.503ZM490.034 111.843C490.141 111.843 490.253 111.849 490.37 111.862C490.486 111.872 490.59 111.887 490.68 111.906L490.578 112.654C490.491 112.631 490.394 112.614 490.287 112.601C490.18 112.588 490.08 112.581 489.986 112.581C489.772 112.581 489.57 112.625 489.379 112.712C489.191 112.796 489.026 112.92 488.883 113.081C488.741 113.24 488.629 113.433 488.548 113.659C488.467 113.883 488.427 114.132 488.427 114.407V117.263H487.616V111.94H488.286L488.373 112.921H488.407C488.517 112.724 488.65 112.544 488.806 112.382C488.961 112.217 489.141 112.086 489.345 111.989C489.552 111.891 489.782 111.843 490.034 111.843Z" fill="white"/>
<path d="M143.721 102.625C144.066 102.625 144.346 102.345 144.346 102C144.346 101.655 144.066 101.375 143.721 101.375V102.625ZM156.442 193.442C156.686 193.198 156.686 192.802 156.442 192.558L152.464 188.581C152.22 188.337 151.825 188.337 151.581 188.581C151.337 188.825 151.337 189.22 151.581 189.464L155.116 193L151.581 196.536C151.337 196.78 151.337 197.175 151.581 197.419C151.825 197.663 152.22 197.663 152.464 197.419L156.442 193.442ZM143.721 102V101.375H142V102V102.625H143.721V102ZM134 110H133.375V185H134H134.625V110H134ZM142 193V193.625H156V193V192.375H142V193ZM134 185H133.375C133.375 189.763 137.237 193.625 142 193.625V193V192.375C137.927 192.375 134.625 189.073 134.625 185H134ZM142 102V101.375C137.237 101.375 133.375 105.237 133.375 110H134H134.625C134.625 105.927 137.927 102.625 142 102.625V102Z" fill="#005E7A"/>
<path d="M369.625 173C369.625 173.345 369.345 173.625 369 173.625C368.655 173.625 368.375 173.345 368.375 173H369.625ZM491.442 157.156C491.198 157.4 490.802 157.4 490.558 157.156L486.581 153.179C486.337 152.935 486.337 152.539 486.581 152.295C486.825 152.051 487.22 152.051 487.464 152.295L491 155.83L494.536 152.295C494.78 152.051 495.175 152.051 495.419 152.295C495.663 152.539 495.663 152.935 495.419 153.179L491.442 157.156ZM369 173H368.375V143H369H369.625V173H369ZM377 135V134.375H483V135V135.625H377V135ZM491 143H491.625V156.714H491H490.375V143H491ZM483 135V134.375C487.763 134.375 491.625 138.237 491.625 143H491H490.375C490.375 138.927 487.073 135.625 483 135.625V135ZM369 143H368.375C368.375 138.237 372.237 134.375 377 134.375V135V135.625C372.927 135.625 369.625 138.927 369.625 143H369Z" fill="#005E7A"/>
<path d="M132.625 -18C132.625 -18.3452 132.345 -18.625 132 -18.625C131.655 -18.625 131.375 -18.3452 131.375 -18H132.625ZM156.442 89.4419C156.686 89.1979 156.686 88.8021 156.442 88.5581L152.464 84.5806C152.22 84.3365 151.825 84.3365 151.581 84.5806C151.337 84.8247 151.337 85.2204 151.581 85.4645L155.116 89L151.581 92.5355C151.337 92.7796 151.337 93.1753 151.581 93.4194C151.825 93.6635 152.22 93.6635 152.464 93.4194L156.442 89.4419ZM132 -18H131.375V81H132H132.625V-18H132ZM140 89V89.625H156V89V88.375H140V89ZM132 81H131.375C131.375 85.7635 135.237 89.625 140 89.625V89V88.375C135.927 88.375 132.625 85.0731 132.625 81H132Z" fill="#005E7A"/>
<path d="M522.351 111.579C523.015 111.579 523.545 111.808 523.94 112.264C524.335 112.721 524.532 113.407 524.532 114.324C524.532 114.929 524.442 115.438 524.26 115.849C524.079 116.26 523.823 116.571 523.493 116.781C523.166 116.992 522.779 117.097 522.332 117.097C522.05 117.097 521.803 117.06 521.589 116.985C521.375 116.911 521.192 116.811 521.04 116.684C520.888 116.558 520.762 116.42 520.661 116.271H520.603C520.613 116.398 520.624 116.55 520.637 116.728C520.653 116.906 520.661 117.062 520.661 117.194V119.38H519.85V111.676H520.515L520.622 112.463H520.661C520.765 112.301 520.891 112.154 521.04 112.021C521.189 111.885 521.37 111.778 521.584 111.701C521.801 111.62 522.057 111.579 522.351 111.579ZM522.211 112.259C521.841 112.259 521.544 112.331 521.317 112.473C521.093 112.616 520.93 112.829 520.826 113.114C520.723 113.396 520.668 113.751 520.661 114.178V114.333C520.661 114.783 520.71 115.164 520.807 115.475C520.907 115.786 521.071 116.022 521.297 116.184C521.527 116.346 521.835 116.427 522.22 116.427C522.551 116.427 522.826 116.338 523.046 116.16C523.266 115.982 523.43 115.734 523.537 115.417C523.647 115.096 523.702 114.728 523.702 114.314C523.702 113.686 523.579 113.187 523.333 112.818C523.09 112.446 522.716 112.259 522.211 112.259ZM527.932 111.589C528.567 111.589 529.038 111.732 529.346 112.016C529.654 112.301 529.807 112.756 529.807 113.381V117H529.22L529.064 116.213H529.025C528.876 116.407 528.721 116.571 528.559 116.704C528.397 116.833 528.209 116.932 527.996 117C527.785 117.065 527.526 117.097 527.218 117.097C526.895 117.097 526.606 117.04 526.354 116.927C526.105 116.814 525.907 116.642 525.761 116.412C525.619 116.182 525.548 115.891 525.548 115.538C525.548 115.007 525.758 114.599 526.179 114.314C526.6 114.029 527.241 113.874 528.102 113.848L529.02 113.809V113.483C529.02 113.024 528.922 112.701 528.724 112.517C528.527 112.332 528.248 112.24 527.889 112.24C527.61 112.24 527.345 112.28 527.092 112.361C526.84 112.442 526.6 112.538 526.373 112.648L526.126 112.036C526.365 111.913 526.64 111.808 526.951 111.72C527.262 111.633 527.589 111.589 527.932 111.589ZM529.011 114.377L528.2 114.411C527.536 114.437 527.068 114.545 526.796 114.737C526.524 114.928 526.388 115.198 526.388 115.548C526.388 115.852 526.48 116.077 526.665 116.223C526.849 116.369 527.094 116.441 527.398 116.441C527.871 116.441 528.258 116.31 528.559 116.048C528.86 115.786 529.011 115.392 529.011 114.868V114.377ZM533.887 111.579C533.994 111.579 534.106 111.586 534.223 111.599C534.339 111.608 534.443 111.623 534.533 111.642L534.431 112.39C534.344 112.368 534.247 112.35 534.14 112.337C534.033 112.324 533.933 112.318 533.839 112.318C533.625 112.318 533.423 112.361 533.232 112.449C533.044 112.533 532.879 112.656 532.736 112.818C532.594 112.977 532.482 113.169 532.401 113.396C532.32 113.619 532.28 113.869 532.28 114.144V117H531.468V111.676H532.139L532.226 112.658H532.26C532.37 112.46 532.503 112.28 532.659 112.118C532.814 111.953 532.994 111.822 533.198 111.725C533.405 111.628 533.635 111.579 533.887 111.579ZM537.53 111.589C538.165 111.589 538.636 111.732 538.944 112.016C539.251 112.301 539.405 112.756 539.405 113.381V117H538.817L538.662 116.213H538.623C538.474 116.407 538.319 116.571 538.157 116.704C537.995 116.833 537.807 116.932 537.593 117C537.383 117.065 537.124 117.097 536.816 117.097C536.492 117.097 536.204 117.04 535.952 116.927C535.702 116.814 535.505 116.642 535.359 116.412C535.217 116.182 535.145 115.891 535.145 115.538C535.145 115.007 535.356 114.599 535.777 114.314C536.198 114.029 536.839 113.874 537.7 113.848L538.618 113.809V113.483C538.618 113.024 538.52 112.701 538.322 112.517C538.125 112.332 537.846 112.24 537.487 112.24C537.208 112.24 536.943 112.28 536.69 112.361C536.437 112.442 536.198 112.538 535.971 112.648L535.723 112.036C535.963 111.913 536.238 111.808 536.549 111.72C536.86 111.633 537.187 111.589 537.53 111.589ZM538.609 114.377L537.797 114.411C537.134 114.437 536.666 114.545 536.394 114.737C536.122 114.928 535.986 115.198 535.986 115.548C535.986 115.852 536.078 116.077 536.263 116.223C536.447 116.369 536.692 116.441 536.996 116.441C537.469 116.441 537.856 116.31 538.157 116.048C538.458 115.786 538.609 115.392 538.609 114.868V114.377ZM545.642 111.589C546.277 111.589 546.748 111.732 547.055 112.016C547.363 112.301 547.517 112.756 547.517 113.381V117H546.929L546.774 116.213H546.735C546.586 116.407 546.43 116.571 546.268 116.704C546.107 116.833 545.919 116.932 545.705 117C545.495 117.065 545.235 117.097 544.928 117.097C544.604 117.097 544.316 117.04 544.063 116.927C543.814 116.814 543.616 116.642 543.471 116.412C543.328 116.182 543.257 115.891 543.257 115.538C543.257 115.007 543.467 114.599 543.888 114.314C544.309 114.029 544.951 113.874 545.812 113.848L546.73 113.809V113.483C546.73 113.024 546.631 112.701 546.434 112.517C546.236 112.332 545.958 112.24 545.598 112.24C545.32 112.24 545.054 112.28 544.802 112.361C544.549 112.442 544.309 112.538 544.083 112.648L543.835 112.036C544.075 111.913 544.35 111.808 544.661 111.72C544.972 111.633 545.299 111.589 545.642 111.589ZM546.72 114.377L545.909 114.411C545.245 114.437 544.777 114.545 544.505 114.737C544.233 114.928 544.097 115.198 544.097 115.548C544.097 115.852 544.19 116.077 544.374 116.223C544.559 116.369 544.803 116.441 545.108 116.441C545.58 116.441 545.967 116.31 546.268 116.048C546.57 115.786 546.72 115.392 546.72 114.868V114.377ZM551.31 117.097C550.831 117.097 550.408 116.998 550.043 116.801C549.677 116.603 549.392 116.302 549.188 115.897C548.984 115.493 548.882 114.983 548.882 114.367C548.882 113.723 548.989 113.197 549.202 112.789C549.419 112.378 549.717 112.073 550.096 111.876C550.475 111.678 550.905 111.579 551.388 111.579C551.654 111.579 551.909 111.607 552.155 111.662C552.405 111.714 552.609 111.78 552.767 111.861L552.525 112.536C552.363 112.471 552.175 112.413 551.961 112.361C551.751 112.31 551.553 112.284 551.369 112.284C550.999 112.284 550.692 112.363 550.446 112.522C550.203 112.68 550.02 112.913 549.897 113.221C549.777 113.529 549.717 113.908 549.717 114.358C549.717 114.788 549.775 115.156 549.892 115.46C550.012 115.765 550.188 115.998 550.421 116.16C550.658 116.318 550.952 116.398 551.305 116.398C551.587 116.398 551.841 116.369 552.068 116.31C552.295 116.249 552.5 116.178 552.685 116.097V116.815C552.507 116.906 552.308 116.976 552.087 117.024C551.87 117.073 551.611 117.097 551.31 117.097ZM556.08 117.097C555.601 117.097 555.178 116.998 554.812 116.801C554.446 116.603 554.161 116.302 553.957 115.897C553.753 115.493 553.651 114.983 553.651 114.367C553.651 113.723 553.758 113.197 553.972 112.789C554.189 112.378 554.487 112.073 554.866 111.876C555.245 111.678 555.675 111.579 556.158 111.579C556.423 111.579 556.679 111.607 556.925 111.662C557.175 111.714 557.379 111.78 557.537 111.861L557.294 112.536C557.132 112.471 556.945 112.413 556.731 112.361C556.52 112.31 556.323 112.284 556.138 112.284C555.769 112.284 555.462 112.363 555.215 112.522C554.973 112.68 554.79 112.913 554.667 113.221C554.547 113.529 554.487 113.908 554.487 114.358C554.487 114.788 554.545 115.156 554.662 115.46C554.782 115.765 554.958 115.998 555.191 116.16C555.428 116.318 555.722 116.398 556.075 116.398C556.357 116.398 556.611 116.369 556.838 116.31C557.064 116.249 557.27 116.178 557.455 116.097V116.815C557.277 116.906 557.077 116.976 556.857 117.024C556.64 117.073 556.381 117.097 556.08 117.097ZM559.524 111.676V117H558.718V111.676H559.524ZM559.13 109.685C559.263 109.685 559.376 109.729 559.47 109.816C559.568 109.9 559.616 110.033 559.616 110.214C559.616 110.393 559.568 110.525 559.47 110.613C559.376 110.7 559.263 110.744 559.13 110.744C558.991 110.744 558.875 110.7 558.781 110.613C558.69 110.525 558.645 110.393 558.645 110.214C558.645 110.033 558.69 109.9 558.781 109.816C558.875 109.729 558.991 109.685 559.13 109.685ZM565.824 114.329C565.824 114.766 565.767 115.156 565.654 115.499C565.54 115.842 565.377 116.132 565.163 116.369C564.949 116.605 564.69 116.786 564.386 116.913C564.085 117.036 563.743 117.097 563.361 117.097C563.005 117.097 562.678 117.036 562.38 116.913C562.085 116.786 561.829 116.605 561.612 116.369C561.399 116.132 561.232 115.842 561.112 115.499C560.996 115.156 560.937 114.766 560.937 114.329C560.937 113.746 561.036 113.25 561.234 112.842C561.431 112.431 561.713 112.118 562.079 111.905C562.448 111.688 562.887 111.579 563.395 111.579C563.881 111.579 564.305 111.688 564.668 111.905C565.034 112.122 565.317 112.436 565.518 112.847C565.722 113.255 565.824 113.749 565.824 114.329ZM561.773 114.329C561.773 114.756 561.829 115.127 561.943 115.441C562.056 115.755 562.231 115.998 562.467 116.169C562.704 116.341 563.008 116.427 563.38 116.427C563.75 116.427 564.052 116.341 564.289 116.169C564.528 115.998 564.705 115.755 564.818 115.441C564.932 115.127 564.988 114.756 564.988 114.329C564.988 113.904 564.932 113.538 564.818 113.231C564.705 112.92 564.53 112.68 564.294 112.512C564.057 112.344 563.751 112.259 563.376 112.259C562.822 112.259 562.415 112.442 562.156 112.808C561.901 113.174 561.773 113.681 561.773 114.329ZM569.739 111.579C570.37 111.579 570.848 111.735 571.171 112.046C571.495 112.353 571.657 112.849 571.657 113.532V117H570.861V113.585C570.861 113.142 570.759 112.81 570.555 112.59C570.354 112.369 570.045 112.259 569.627 112.259C569.038 112.259 568.623 112.426 568.383 112.76C568.144 113.093 568.024 113.577 568.024 114.212V117H567.218V111.676H567.869L567.99 112.444H568.034C568.147 112.256 568.291 112.099 568.466 111.973C568.641 111.843 568.837 111.746 569.054 111.681C569.271 111.613 569.499 111.579 569.739 111.579ZM575.31 111.589C575.944 111.589 576.416 111.732 576.723 112.016C577.031 112.301 577.185 112.756 577.185 113.381V117H576.597L576.442 116.213H576.403C576.254 116.407 576.098 116.571 575.936 116.704C575.774 116.833 575.587 116.932 575.373 117C575.162 117.065 574.903 117.097 574.596 117.097C574.272 117.097 573.984 117.04 573.731 116.927C573.482 116.814 573.284 116.642 573.139 116.412C572.996 116.182 572.925 115.891 572.925 115.538C572.925 115.007 573.135 114.599 573.556 114.314C573.977 114.029 574.618 113.874 575.48 113.848L576.398 113.809V113.483C576.398 113.024 576.299 112.701 576.102 112.517C575.904 112.332 575.626 112.24 575.266 112.24C574.988 112.24 574.722 112.28 574.47 112.361C574.217 112.442 573.977 112.538 573.751 112.648L573.503 112.036C573.743 111.913 574.018 111.808 574.329 111.72C574.64 111.633 574.967 111.589 575.31 111.589ZM576.388 114.377L575.577 114.411C574.913 114.437 574.445 114.545 574.173 114.737C573.901 114.928 573.765 115.198 573.765 115.548C573.765 115.852 573.857 116.077 574.042 116.223C574.227 116.369 574.471 116.441 574.776 116.441C575.248 116.441 575.635 116.31 575.936 116.048C576.238 115.786 576.388 115.392 576.388 114.868V114.377ZM581.265 111.579C581.372 111.579 581.483 111.586 581.6 111.599C581.716 111.608 581.82 111.623 581.911 111.642L581.809 112.39C581.721 112.368 581.624 112.35 581.517 112.337C581.41 112.324 581.31 112.318 581.216 112.318C581.002 112.318 580.8 112.361 580.609 112.449C580.421 112.533 580.256 112.656 580.114 112.818C579.971 112.977 579.859 113.169 579.778 113.396C579.697 113.619 579.657 113.869 579.657 114.144V117H578.846V111.676H579.516L579.604 112.658H579.638C579.748 112.46 579.88 112.28 580.036 112.118C580.191 111.953 580.371 111.822 580.575 111.725C580.782 111.628 581.012 111.579 581.265 111.579ZM587.55 111.579C588.003 111.579 588.392 111.68 588.716 111.88C589.04 112.081 589.287 112.363 589.459 112.726C589.631 113.085 589.716 113.506 589.716 113.989V114.489H586.039C586.049 115.114 586.205 115.59 586.506 115.917C586.807 116.244 587.231 116.407 587.778 116.407C588.115 116.407 588.413 116.377 588.672 116.315C588.931 116.254 589.2 116.163 589.478 116.043V116.752C589.21 116.872 588.942 116.96 588.677 117.015C588.415 117.07 588.104 117.097 587.744 117.097C587.233 117.097 586.786 116.994 586.404 116.786C586.025 116.576 585.73 116.268 585.52 115.863C585.309 115.459 585.204 114.963 585.204 114.377C585.204 113.804 585.299 113.309 585.491 112.891C585.685 112.47 585.957 112.146 586.307 111.919C586.66 111.693 587.074 111.579 587.55 111.579ZM587.54 112.24C587.11 112.24 586.766 112.381 586.511 112.662C586.255 112.944 586.103 113.338 586.054 113.843H588.871C588.868 113.525 588.818 113.247 588.721 113.007C588.627 112.765 588.483 112.577 588.288 112.444C588.094 112.308 587.845 112.24 587.54 112.24ZM591.897 117H591.086V109.442H591.897V117ZM596.992 111.676V117H596.186V111.676H596.992ZM596.599 109.685C596.732 109.685 596.845 109.729 596.939 109.816C597.036 109.9 597.085 110.033 597.085 110.214C597.085 110.393 597.036 110.525 596.939 110.613C596.845 110.7 596.732 110.744 596.599 110.744C596.46 110.744 596.343 110.7 596.249 110.613C596.159 110.525 596.113 110.393 596.113 110.214C596.113 110.033 596.159 109.9 596.249 109.816C596.343 109.729 596.46 109.685 596.599 109.685ZM601.223 111.579C601.855 111.579 602.332 111.735 602.656 112.046C602.98 112.353 603.142 112.849 603.142 113.532V117H602.345V113.585C602.345 113.142 602.243 112.81 602.039 112.59C601.838 112.369 601.529 112.259 601.111 112.259C600.522 112.259 600.108 112.426 599.868 112.76C599.628 113.093 599.508 113.577 599.508 114.212V117H598.702V111.676H599.353L599.474 112.444H599.518C599.632 112.256 599.776 112.099 599.951 111.973C600.125 111.843 600.321 111.746 600.538 111.681C600.755 111.613 600.983 111.579 601.223 111.579ZM607.304 111.579C607.968 111.579 608.498 111.808 608.893 112.264C609.288 112.721 609.485 113.407 609.485 114.324C609.485 114.929 609.395 115.438 609.213 115.849C609.032 116.26 608.776 116.571 608.446 116.781C608.119 116.992 607.732 117.097 607.285 117.097C607.003 117.097 606.755 117.06 606.542 116.985C606.328 116.911 606.145 116.811 605.993 116.684C605.841 116.558 605.714 116.42 605.614 116.271H605.556C605.565 116.398 605.577 116.55 605.59 116.728C605.606 116.906 605.614 117.062 605.614 117.194V119.38H604.803V111.676H605.468L605.575 112.463H605.614C605.718 112.301 605.844 112.154 605.993 112.021C606.142 111.885 606.323 111.778 606.537 111.701C606.754 111.62 607.01 111.579 607.304 111.579ZM607.163 112.259C606.794 112.259 606.496 112.331 606.27 112.473C606.046 112.616 605.883 112.829 605.779 113.114C605.676 113.396 605.621 113.751 605.614 114.178V114.333C605.614 114.783 605.663 115.164 605.76 115.475C605.86 115.786 606.024 116.022 606.25 116.184C606.48 116.346 606.788 116.427 607.173 116.427C607.503 116.427 607.779 116.338 607.999 116.16C608.219 115.982 608.383 115.734 608.49 115.417C608.6 115.096 608.655 114.728 608.655 114.314C608.655 113.686 608.532 113.187 608.286 112.818C608.043 112.446 607.669 112.259 607.163 112.259ZM615.29 111.676V117H614.629L614.512 116.252H614.469C614.359 116.437 614.216 116.592 614.041 116.718C613.866 116.845 613.669 116.938 613.449 117C613.232 117.065 613 117.097 612.754 117.097C612.333 117.097 611.98 117.029 611.695 116.893C611.41 116.757 611.195 116.547 611.049 116.262C610.907 115.977 610.836 115.611 610.836 115.164V111.676H611.652V115.106C611.652 115.549 611.752 115.881 611.953 116.101C612.153 116.318 612.459 116.427 612.871 116.427C613.266 116.427 613.58 116.352 613.813 116.203C614.049 116.054 614.219 115.836 614.323 115.548C614.427 115.256 614.478 114.9 614.478 114.479V111.676H615.29ZM618.714 116.437C618.847 116.437 618.983 116.425 619.122 116.403C619.261 116.38 619.375 116.352 619.462 116.32V116.947C619.368 116.989 619.237 117.024 619.069 117.053C618.903 117.083 618.741 117.097 618.583 117.097C618.301 117.097 618.045 117.049 617.815 116.951C617.585 116.851 617.401 116.683 617.262 116.446C617.126 116.21 617.058 115.883 617.058 115.465V112.308H616.3V111.914L617.063 111.599L617.383 110.443H617.869V111.676H619.428V112.308H617.869V115.441C617.869 115.774 617.945 116.024 618.097 116.189C618.253 116.354 618.458 116.437 618.714 116.437Z" fill="#101E37"/>
<path d="M169.86 62.0994C169.643 62.0994 169.472 62.0379 169.349 61.9148C169.226 61.7917 169.164 61.6166 169.164 61.3894V52.6277C169.164 52.391 169.221 52.2111 169.335 52.0881C169.458 51.9555 169.619 51.8893 169.818 51.8893C169.988 51.8893 170.116 51.9224 170.201 51.9887C170.296 52.0455 170.405 52.1543 170.528 52.3153L176.378 60.0261H176.023V52.5851C176.023 52.3674 176.08 52.1969 176.194 52.0739C176.317 51.9508 176.487 51.8893 176.705 51.8893C176.932 51.8893 177.102 51.9508 177.216 52.0739C177.33 52.1969 177.387 52.3674 177.387 52.5851V61.4036C177.387 61.6213 177.33 61.7917 177.216 61.9148C177.112 62.0379 176.97 62.0994 176.79 62.0994C176.62 62.0994 176.478 62.0663 176.364 62C176.26 61.9337 176.146 61.8201 176.023 61.6592L170.201 53.9625H170.528V61.3894C170.528 61.6166 170.471 61.7917 170.357 61.9148C170.244 62.0379 170.078 62.0994 169.86 62.0994ZM182.572 62.1278C181.871 62.1278 181.266 61.9811 180.754 61.6876C180.253 61.3941 179.86 60.9776 179.576 60.4379C179.292 59.8983 179.15 59.264 179.15 58.5351C179.15 57.9765 179.23 57.4795 179.391 57.044C179.552 56.6086 179.779 56.2346 180.073 55.9222C180.376 55.6003 180.735 55.3589 181.152 55.198C181.578 55.0276 182.051 54.9424 182.572 54.9424C183.263 54.9424 183.86 55.0891 184.361 55.3826C184.872 55.6761 185.27 56.0926 185.554 56.6322C185.838 57.1624 185.98 57.7967 185.98 58.5351C185.98 59.0842 185.9 59.5812 185.739 60.0261C185.578 60.4711 185.346 60.8498 185.043 61.1622C184.749 61.4746 184.39 61.716 183.964 61.8864C183.547 62.0473 183.083 62.1278 182.572 62.1278ZM182.572 61.0202C182.96 61.0202 183.301 60.9255 183.594 60.7362C183.888 60.5468 184.115 60.2675 184.276 59.8983C184.446 59.5291 184.532 59.0747 184.532 58.5351C184.532 57.7209 184.352 57.1056 183.992 56.689C183.632 56.2725 183.159 56.0642 182.572 56.0642C182.174 56.0642 181.829 56.1589 181.535 56.3482C181.242 56.5281 181.01 56.8026 180.84 57.1718C180.679 57.5411 180.598 57.9955 180.598 58.5351C180.598 59.3398 180.778 59.9551 181.138 60.3811C181.498 60.8072 181.976 61.0202 182.572 61.0202ZM188.329 62.0994C188.102 62.0994 187.927 62.0379 187.804 61.9148C187.681 61.7823 187.619 61.6024 187.619 61.3752V55.695C187.619 55.4583 187.681 55.2784 187.804 55.1554C187.927 55.0323 188.097 54.9708 188.315 54.9708C188.542 54.9708 188.713 55.0323 188.826 55.1554C188.949 55.2784 189.011 55.4583 189.011 55.695V56.8594L188.855 56.547C189.044 56.0453 189.338 55.6524 189.735 55.3684C190.133 55.0844 190.611 54.9424 191.169 54.9424C191.747 54.9424 192.215 55.0796 192.575 55.3542C192.935 55.6287 193.181 56.05 193.314 56.618H193.115C193.295 56.0973 193.602 55.6903 194.038 55.3968C194.473 55.0938 194.98 54.9424 195.557 54.9424C196.087 54.9424 196.523 55.0465 196.864 55.2548C197.205 55.4536 197.46 55.7613 197.631 56.1778C197.801 56.5849 197.886 57.1008 197.886 57.7257V61.3752C197.886 61.6024 197.82 61.7823 197.687 61.9148C197.564 62.0379 197.389 62.0994 197.162 62.0994C196.935 62.0994 196.76 62.0379 196.637 61.9148C196.513 61.7823 196.452 61.6024 196.452 61.3752V57.7967C196.452 57.2097 196.348 56.779 196.14 56.5044C195.941 56.2299 195.609 56.0926 195.146 56.0926C194.625 56.0926 194.213 56.2725 193.91 56.6322C193.607 56.992 193.456 57.489 193.456 58.1233V61.3752C193.456 61.6024 193.394 61.7823 193.271 61.9148C193.148 62.0379 192.973 62.0994 192.746 62.0994C192.518 62.0994 192.339 62.0379 192.206 61.9148C192.083 61.7823 192.021 61.6024 192.021 61.3752V57.7967C192.021 57.2097 191.922 56.779 191.723 56.5044C191.524 56.2299 191.193 56.0926 190.729 56.0926C190.208 56.0926 189.797 56.2725 189.494 56.6322C189.2 56.992 189.054 57.489 189.054 58.1233V61.3752C189.054 61.858 188.812 62.0994 188.329 62.0994ZM203.612 62.1278C203.006 62.1278 202.481 61.9763 202.036 61.6734C201.591 61.361 201.293 60.9492 201.141 60.4379L201.297 60.1823V61.3752C201.297 61.6024 201.236 61.7823 201.113 61.9148C200.99 62.0379 200.819 62.0994 200.601 62.0994C200.374 62.0994 200.199 62.0379 200.076 61.9148C199.953 61.7823 199.891 61.6024 199.891 61.3752V52.6135C199.891 52.3768 199.953 52.1969 200.076 52.0739C200.199 51.9508 200.374 51.8893 200.601 51.8893C200.829 51.8893 201.004 51.9508 201.127 52.0739C201.259 52.1969 201.326 52.3768 201.326 52.6135V56.5896H201.155C201.307 56.0879 201.605 55.6903 202.05 55.3968C202.495 55.0938 203.016 54.9424 203.612 54.9424C204.237 54.9424 204.776 55.0891 205.231 55.3826C205.685 55.6761 206.036 56.0879 206.282 56.618C206.537 57.1482 206.665 57.7872 206.665 58.5351C206.665 59.264 206.537 59.9031 206.282 60.4521C206.036 60.9918 205.681 61.4083 205.217 61.7018C204.762 61.9858 204.227 62.1278 203.612 62.1278ZM203.257 61.0202C203.655 61.0202 204 60.9255 204.294 60.7362C204.587 60.5468 204.814 60.2675 204.975 59.8983C205.136 59.5291 205.217 59.0747 205.217 58.5351C205.217 57.7209 205.037 57.1056 204.677 56.689C204.327 56.2725 203.853 56.0642 203.257 56.0642C202.869 56.0642 202.523 56.1589 202.22 56.3482C201.927 56.5281 201.7 56.8026 201.539 57.1718C201.378 57.5411 201.297 57.9955 201.297 58.5351C201.297 59.3398 201.477 59.9551 201.837 60.3811C202.197 60.8072 202.67 61.0202 203.257 61.0202ZM209.006 62.0994C208.769 62.0994 208.589 62.0379 208.466 61.9148C208.343 61.7823 208.281 61.6024 208.281 61.3752V55.695C208.281 55.4583 208.343 55.2784 208.466 55.1554C208.589 55.0323 208.759 54.9708 208.977 54.9708C209.204 54.9708 209.375 55.0323 209.488 55.1554C209.611 55.2784 209.673 55.4583 209.673 55.695V56.7316H209.531C209.683 56.1636 209.962 55.7329 210.369 55.4394C210.776 55.1459 211.297 54.9755 211.931 54.9282C212.101 54.9187 212.234 54.9613 212.329 55.056C212.433 55.1506 212.489 55.2974 212.499 55.4962C212.518 55.695 212.475 55.8559 212.371 55.979C212.267 56.0926 212.106 56.1589 211.888 56.1778L211.618 56.2062C211.003 56.263 210.535 56.4571 210.213 56.7884C209.891 57.1198 209.73 57.5742 209.73 58.1517V61.3752C209.73 61.6024 209.668 61.7823 209.545 61.9148C209.432 62.0379 209.252 62.0994 209.006 62.0994ZM216.734 62.1278C215.976 62.1278 215.323 61.9858 214.774 61.7018C214.234 61.4083 213.813 60.9965 213.51 60.4664C213.217 59.9267 213.07 59.2877 213.07 58.5493C213.07 57.8298 213.217 57.2002 213.51 56.6606C213.804 56.121 214.206 55.6997 214.717 55.3968C215.228 55.0938 215.811 54.9424 216.464 54.9424C216.947 54.9424 217.377 55.0228 217.756 55.1838C218.135 55.3352 218.457 55.5625 218.722 55.8654C218.996 56.1589 219.2 56.5186 219.332 56.9446C219.474 57.3706 219.545 57.8487 219.545 58.3789C219.545 58.5398 219.498 58.6629 219.403 58.7481C219.309 58.8238 219.167 58.8617 218.977 58.8617H214.206V57.9813H218.58L218.338 58.1801C218.338 57.7067 218.267 57.3044 218.125 56.973C217.993 56.6417 217.789 56.3908 217.515 56.2204C217.25 56.0405 216.918 55.9506 216.521 55.9506C216.076 55.9506 215.697 56.0547 215.385 56.263C215.082 56.4713 214.85 56.76 214.689 57.1292C214.528 57.4985 214.447 57.9292 214.447 58.4215V58.5067C214.447 59.3398 214.641 59.9693 215.03 60.3953C215.427 60.8119 216 61.0202 216.748 61.0202C217.032 61.0202 217.33 60.9823 217.642 60.9066C217.964 60.8308 218.267 60.703 218.551 60.5232C218.712 60.4285 218.854 60.3859 218.977 60.3953C219.11 60.4048 219.214 60.4474 219.29 60.5232C219.375 60.5989 219.427 60.6936 219.446 60.8072C219.465 60.9208 219.446 61.0391 219.389 61.1622C219.332 61.2758 219.233 61.3799 219.091 61.4746C218.769 61.6923 218.395 61.858 217.969 61.9716C217.543 62.0757 217.131 62.1278 216.734 62.1278ZM226.486 64.6555C226.316 64.6555 226.174 64.6082 226.06 64.5135C225.956 64.4283 225.895 64.3099 225.876 64.1585C225.866 64.0165 225.895 63.8603 225.961 63.6899L226.926 61.5172V62.1278L224.271 55.9506C224.205 55.7802 224.181 55.6193 224.2 55.4678C224.219 55.3163 224.29 55.198 224.413 55.1128C224.536 55.0181 224.702 54.9708 224.91 54.9708C225.09 54.9708 225.232 55.0134 225.336 55.0986C225.44 55.1838 225.535 55.3305 225.62 55.5388L227.764 60.8356H227.367L229.539 55.5388C229.625 55.321 229.724 55.1743 229.838 55.0986C229.951 55.0134 230.107 54.9708 230.306 54.9708C230.477 54.9708 230.609 55.0181 230.704 55.1128C230.808 55.198 230.869 55.3163 230.888 55.4678C230.917 55.6098 230.893 55.766 230.817 55.9364L227.267 64.1017C227.173 64.3194 227.064 64.4661 226.941 64.5419C226.827 64.6176 226.676 64.6555 226.486 64.6555ZM238.19 62.1278C237.708 62.1278 237.272 62.0331 236.884 61.8438C236.505 61.6545 236.207 61.3988 235.989 61.077C235.772 60.7551 235.663 60.3906 235.663 59.9835C235.663 59.4723 235.79 59.07 236.046 58.7765C236.311 58.4736 236.742 58.2605 237.338 58.1375C237.944 58.0049 238.758 57.9387 239.781 57.9387H240.448V58.8191H239.795C239.113 58.8191 238.574 58.8522 238.176 58.9185C237.779 58.9848 237.495 59.0984 237.324 59.2593C237.163 59.4108 237.083 59.6238 237.083 59.8983C237.083 60.2581 237.206 60.5516 237.452 60.7788C237.698 60.9965 238.039 61.1054 238.474 61.1054C238.825 61.1054 239.132 61.0249 239.397 60.864C239.662 60.6936 239.871 60.4663 240.022 60.1823C240.183 59.8983 240.264 59.5717 240.264 59.2025V57.5695C240.264 57.0298 240.15 56.6417 239.923 56.405C239.696 56.1683 239.322 56.05 238.801 56.05C238.498 56.05 238.181 56.0879 237.85 56.1636C237.528 56.2393 237.192 56.3671 236.841 56.547C236.68 56.6228 236.543 56.6464 236.429 56.618C236.316 56.5896 236.226 56.5281 236.16 56.4334C236.093 56.3293 236.056 56.2204 236.046 56.1068C236.046 55.9837 236.074 55.8654 236.131 55.7518C236.198 55.6382 236.306 55.553 236.458 55.4962C236.874 55.2974 237.286 55.1554 237.693 55.0702C238.1 54.985 238.484 54.9424 238.844 54.9424C239.478 54.9424 239.999 55.0418 240.406 55.2406C240.822 55.4394 241.13 55.7423 241.329 56.1494C241.527 56.5565 241.627 57.0819 241.627 57.7257V61.3752C241.627 61.6024 241.57 61.7823 241.456 61.9148C241.343 62.0379 241.177 62.0994 240.959 62.0994C240.751 62.0994 240.585 62.0379 240.462 61.9148C240.339 61.7823 240.278 61.6024 240.278 61.3752V60.4521H240.406C240.33 60.8024 240.188 61.1054 239.98 61.361C239.781 61.6071 239.53 61.7965 239.227 61.929C238.924 62.0615 238.578 62.1278 238.19 62.1278ZM244.312 64.6555C244.085 64.6555 243.91 64.594 243.787 64.4709C243.664 64.3478 243.602 64.1679 243.602 63.9313V55.695C243.602 55.4583 243.664 55.2784 243.787 55.1554C243.91 55.0323 244.08 54.9708 244.298 54.9708C244.525 54.9708 244.7 55.0323 244.824 55.1554C244.947 55.2784 245.008 55.4583 245.008 55.695V56.9304L244.852 56.6322C245.003 56.121 245.302 55.7139 245.747 55.411C246.191 55.0986 246.717 54.9424 247.323 54.9424C247.938 54.9424 248.473 55.0891 248.927 55.3826C249.391 55.6761 249.746 56.0879 249.992 56.618C250.248 57.1482 250.376 57.7872 250.376 58.5351C250.376 59.264 250.248 59.9031 249.992 60.4521C249.746 60.9918 249.396 61.4083 248.942 61.7018C248.487 61.9858 247.948 62.1278 247.323 62.1278C246.726 62.1278 246.206 61.9763 245.761 61.6734C245.316 61.3704 245.018 60.9681 244.866 60.4664H245.037V63.9313C245.037 64.1679 244.97 64.3478 244.838 64.4709C244.715 64.594 244.539 64.6555 244.312 64.6555ZM246.968 61.0202C247.365 61.0202 247.711 60.9255 248.004 60.7362C248.298 60.5468 248.525 60.2675 248.686 59.8983C248.847 59.5291 248.927 59.0747 248.927 58.5351C248.927 57.7209 248.748 57.1056 248.388 56.689C248.038 56.2725 247.564 56.0642 246.968 56.0642C246.58 56.0642 246.234 56.1589 245.931 56.3482C245.638 56.5281 245.41 56.8026 245.25 57.1718C245.089 57.5411 245.008 57.9955 245.008 58.5351C245.008 59.3398 245.188 59.9551 245.548 60.3811C245.907 60.8072 246.381 61.0202 246.968 61.0202ZM255.244 62.1278C254.487 62.1278 253.834 61.9858 253.284 61.7018C252.745 61.4083 252.324 60.9965 252.021 60.4664C251.727 59.9267 251.58 59.2877 251.58 58.5493C251.58 57.8298 251.727 57.2002 252.021 56.6606C252.314 56.121 252.716 55.6997 253.228 55.3968C253.739 55.0938 254.321 54.9424 254.974 54.9424C255.457 54.9424 255.888 55.0228 256.267 55.1838C256.645 55.3352 256.967 55.5625 257.232 55.8654C257.507 56.1589 257.71 56.5186 257.843 56.9446C257.985 57.3706 258.056 57.8487 258.056 58.3789C258.056 58.5398 258.008 58.6629 257.914 58.7481C257.819 58.8238 257.677 58.8617 257.488 58.8617H252.716V57.9813H257.09L256.849 58.1801C256.849 57.7067 256.778 57.3044 256.636 56.973C256.503 56.6417 256.3 56.3908 256.025 56.2204C255.76 56.0405 255.429 55.9506 255.031 55.9506C254.586 55.9506 254.207 56.0547 253.895 56.263C253.592 56.4713 253.36 56.76 253.199 57.1292C253.038 57.4985 252.958 57.9292 252.958 58.4215V58.5067C252.958 59.3398 253.152 59.9693 253.54 60.3953C253.938 60.8119 254.51 61.0202 255.258 61.0202C255.542 61.0202 255.841 60.9823 256.153 60.9066C256.475 60.8308 256.778 60.703 257.062 60.5232C257.223 60.4285 257.365 60.3859 257.488 60.3953C257.62 60.4048 257.724 60.4474 257.8 60.5232C257.885 60.5989 257.937 60.6936 257.956 60.8072C257.975 60.9208 257.956 61.0391 257.9 61.1622C257.843 61.2758 257.743 61.3799 257.601 61.4746C257.279 61.6923 256.906 61.858 256.48 61.9716C256.054 62.0757 255.642 62.1278 255.244 62.1278ZM261.849 62.1278C261.11 62.1278 260.552 61.9148 260.173 61.4888C259.804 61.0533 259.619 60.4285 259.619 59.6143V52.6135C259.619 52.3768 259.681 52.1969 259.804 52.0739C259.927 51.9508 260.102 51.8893 260.329 51.8893C260.557 51.8893 260.732 51.9508 260.855 52.0739C260.987 52.1969 261.054 52.3768 261.054 52.6135V59.5291C261.054 60.0025 261.148 60.3575 261.338 60.5942C261.536 60.8214 261.82 60.935 262.19 60.935C262.275 60.935 262.351 60.935 262.417 60.935C262.483 60.9255 262.549 60.916 262.616 60.9066C262.729 60.8971 262.81 60.9302 262.857 61.006C262.904 61.0722 262.928 61.2142 262.928 61.432C262.928 61.6308 262.885 61.787 262.8 61.9006C262.715 62.0047 262.578 62.071 262.388 62.0994C262.303 62.1089 262.213 62.1136 262.119 62.1136C262.024 62.1231 261.934 62.1278 261.849 62.1278ZM266.189 62.1278C265.451 62.1278 264.892 61.9148 264.514 61.4888C264.145 61.0533 263.96 60.4285 263.96 59.6143V52.6135C263.96 52.3768 264.021 52.1969 264.145 52.0739C264.268 51.9508 264.443 51.8893 264.67 51.8893C264.897 51.8893 265.072 51.9508 265.195 52.0739C265.328 52.1969 265.394 52.3768 265.394 52.6135V59.5291C265.394 60.0025 265.489 60.3575 265.678 60.5942C265.877 60.8214 266.161 60.935 266.53 60.935C266.615 60.935 266.691 60.935 266.757 60.935C266.824 60.9255 266.89 60.916 266.956 60.9066C267.07 60.8971 267.15 60.9302 267.198 61.006C267.245 61.0722 267.269 61.2142 267.269 61.432C267.269 61.6308 267.226 61.787 267.141 61.9006C267.056 62.0047 266.918 62.071 266.729 62.0994C266.644 62.1089 266.554 62.1136 266.459 62.1136C266.365 62.1231 266.275 62.1278 266.189 62.1278ZM269.011 62.0852C268.783 62.0852 268.608 62.0189 268.485 61.8864C268.362 61.7444 268.301 61.5503 268.301 61.3042V55.766C268.301 55.5199 268.362 55.3305 268.485 55.198C268.608 55.0654 268.783 54.9992 269.011 54.9992C269.238 54.9992 269.413 55.0654 269.536 55.198C269.669 55.3305 269.735 55.5199 269.735 55.766V61.3042C269.735 61.5503 269.673 61.7444 269.55 61.8864C269.427 62.0189 269.247 62.0852 269.011 62.0852ZM269.011 53.5223C268.727 53.5223 268.504 53.4513 268.343 53.3093C268.192 53.1673 268.116 52.9685 268.116 52.7129C268.116 52.4478 268.192 52.249 268.343 52.1165C268.504 51.9745 268.727 51.9035 269.011 51.9035C269.295 51.9035 269.512 51.9745 269.664 52.1165C269.825 52.249 269.905 52.4478 269.905 52.7129C269.905 52.9685 269.825 53.1673 269.664 53.3093C269.512 53.4513 269.295 53.5223 269.011 53.5223ZM274.395 62.1278C273.789 62.1278 273.254 61.9858 272.79 61.7018C272.336 61.4083 271.981 60.9918 271.725 60.4521C271.47 59.9031 271.342 59.264 271.342 58.5351C271.342 57.7872 271.47 57.1482 271.725 56.618C271.981 56.0879 272.336 55.6761 272.79 55.3826C273.254 55.0891 273.789 54.9424 274.395 54.9424C275.001 54.9424 275.521 55.0938 275.957 55.3968C276.402 55.6903 276.7 56.0879 276.852 56.5896H276.695V52.6135C276.695 52.3768 276.757 52.1969 276.88 52.0739C277.003 51.9508 277.178 51.8893 277.405 51.8893C277.633 51.8893 277.808 51.9508 277.931 52.0739C278.063 52.1969 278.13 52.3768 278.13 52.6135V61.3752C278.13 61.6024 278.068 61.7823 277.945 61.9148C277.822 62.0379 277.647 62.0994 277.42 62.0994C277.192 62.0994 277.017 62.0379 276.894 61.9148C276.771 61.7823 276.71 61.6024 276.71 61.3752V60.1255L276.866 60.4379C276.714 60.9492 276.416 61.361 275.971 61.6734C275.536 61.9763 275.01 62.1278 274.395 62.1278ZM274.764 61.0202C275.152 61.0202 275.493 60.9255 275.787 60.7362C276.08 60.5468 276.307 60.2675 276.468 59.8983C276.639 59.5291 276.724 59.0747 276.724 58.5351C276.724 57.7209 276.544 57.1056 276.184 56.689C275.824 56.2725 275.351 56.0642 274.764 56.0642C274.366 56.0642 274.021 56.1589 273.727 56.3482C273.434 56.5281 273.202 56.8026 273.032 57.1718C272.871 57.5411 272.79 57.9955 272.79 58.5351C272.79 59.3398 272.97 59.9551 273.33 60.3811C273.69 60.8072 274.168 61.0202 274.764 61.0202ZM283.154 62.1278C282.453 62.1278 281.848 61.9811 281.336 61.6876C280.835 61.3941 280.442 60.9776 280.158 60.4379C279.874 59.8983 279.732 59.264 279.732 58.5351C279.732 57.9765 279.812 57.4795 279.973 57.044C280.134 56.6086 280.361 56.2346 280.655 55.9222C280.958 55.6003 281.317 55.3589 281.734 55.198C282.16 55.0276 282.633 54.9424 283.154 54.9424C283.845 54.9424 284.441 55.0891 284.943 55.3826C285.454 55.6761 285.852 56.0926 286.136 56.6322C286.42 57.1624 286.562 57.7967 286.562 58.5351C286.562 59.0842 286.482 59.5812 286.321 60.0261C286.16 60.4711 285.928 60.8498 285.625 61.1622C285.331 61.4746 284.972 61.716 284.546 61.8864C284.129 62.0473 283.665 62.1278 283.154 62.1278ZM283.154 61.0202C283.542 61.0202 283.883 60.9255 284.176 60.7362C284.47 60.5468 284.697 60.2675 284.858 59.8983C285.028 59.5291 285.114 59.0747 285.114 58.5351C285.114 57.7209 284.934 57.1056 284.574 56.689C284.214 56.2725 283.741 56.0642 283.154 56.0642C282.756 56.0642 282.411 56.1589 282.117 56.3482C281.824 56.5281 281.592 56.8026 281.422 57.1718C281.261 57.5411 281.18 57.9955 281.18 58.5351C281.18 59.3398 281.36 59.9551 281.72 60.3811C282.079 60.8072 282.558 61.0202 283.154 61.0202Z" fill="#101E37"/>
<rect x="168.789" y="74.1003" width="249.422" height="36.3561" rx="5.5224" fill="white"/>
<rect x="168.789" y="74.1003" width="249.422" height="36.3561" rx="5.5224" stroke="#101E37" stroke-width="1.57783"/>
<path d="M185.707 88.5625C185.21 88.5625 184.762 88.6488 184.364 88.8214C183.969 88.9898 183.632 89.2364 183.353 89.561C183.078 89.8815 182.866 90.2698 182.718 90.7259C182.57 91.182 182.496 91.6956 182.496 92.2667C182.496 93.0228 182.613 93.6802 182.848 94.239C183.086 94.7937 183.439 95.2231 183.908 95.5272C184.38 95.8312 184.97 95.9832 185.677 95.9832C186.079 95.9832 186.457 95.9504 186.811 95.8846C187.168 95.8148 187.515 95.7285 187.852 95.6258V96.5379C187.524 96.6612 187.178 96.7516 186.817 96.8091C186.455 96.8708 186.026 96.9016 185.529 96.9016C184.612 96.9016 183.846 96.7126 183.23 96.3346C182.617 95.9524 182.157 95.4142 181.849 94.7197C181.545 94.0253 181.393 93.2056 181.393 92.2606C181.393 91.5785 181.487 90.956 181.676 90.393C181.87 89.826 182.149 89.337 182.515 88.9262C182.885 88.5153 183.337 88.1989 183.871 87.977C184.409 87.751 185.025 87.638 185.72 87.638C186.176 87.638 186.615 87.6832 187.039 87.7736C187.462 87.864 187.844 87.9934 188.185 88.1619L187.766 89.0494C187.478 88.9179 187.162 88.8049 186.817 88.7104C186.476 88.6118 186.106 88.5625 185.707 88.5625ZM195.476 93.3885C195.476 93.9432 195.404 94.4383 195.261 94.8738C195.117 95.3094 194.909 95.6771 194.638 95.9771C194.367 96.277 194.038 96.5071 193.652 96.6674C193.27 96.8235 192.836 96.9016 192.351 96.9016C191.9 96.9016 191.485 96.8235 191.106 96.6674C190.733 96.5071 190.408 96.277 190.133 95.9771C189.861 95.6771 189.65 95.3094 189.498 94.8738C189.35 94.4383 189.276 93.9432 189.276 93.3885C189.276 92.6488 189.401 92.0202 189.652 91.5025C189.903 90.9806 190.26 90.5841 190.724 90.3129C191.193 90.0376 191.75 89.9 192.395 89.9C193.011 89.9 193.549 90.0376 194.009 90.3129C194.474 90.5882 194.833 90.9868 195.088 91.5086C195.347 92.0263 195.476 92.653 195.476 93.3885ZM190.336 93.3885C190.336 93.9308 190.408 94.4013 190.552 94.7999C190.696 95.1984 190.917 95.5066 191.217 95.7244C191.517 95.9422 191.904 96.051 192.376 96.051C192.845 96.051 193.229 95.9422 193.529 95.7244C193.833 95.5066 194.057 95.1984 194.201 94.7999C194.344 94.4013 194.416 93.9308 194.416 93.3885C194.416 92.8502 194.344 92.3859 194.201 91.9955C194.057 91.6011 193.835 91.297 193.535 91.0833C193.235 90.8697 192.847 90.7628 192.37 90.7628C191.667 90.7628 191.152 90.995 190.823 91.4593C190.498 91.9236 190.336 92.5667 190.336 93.3885ZM204.58 89.9C205.323 89.9 205.884 90.0951 206.262 90.4855C206.64 90.8717 206.829 91.4942 206.829 92.353V96.7783H205.819V92.4023C205.819 91.8558 205.699 91.447 205.461 91.1758C205.227 90.9005 204.878 90.7628 204.413 90.7628C203.76 90.7628 203.285 90.9519 202.99 91.3299C202.694 91.7079 202.546 92.2647 202.546 93.0002V96.7783H201.529V92.4023C201.529 92.0366 201.475 91.7326 201.369 91.4901C201.266 91.2477 201.11 91.0669 200.9 90.9477C200.695 90.8245 200.434 90.7628 200.117 90.7628C199.67 90.7628 199.31 90.8553 199.039 91.0402C198.768 91.2251 198.57 91.5004 198.447 91.8661C198.328 92.2277 198.268 92.6735 198.268 93.2036V96.7783H197.245V90.0232H198.071L198.225 90.9786H198.281C198.416 90.7444 198.587 90.5471 198.792 90.3869C198.998 90.2266 199.228 90.1054 199.483 90.0232C199.737 89.9411 200.008 89.9 200.296 89.9C200.81 89.9 201.239 89.9965 201.584 90.1897C201.934 90.3787 202.186 90.6683 202.342 91.0587H202.398C202.62 90.6683 202.924 90.3787 203.31 90.1897C203.696 89.9965 204.119 89.9 204.58 89.9ZM212.105 89.9C212.948 89.9 213.619 90.1897 214.121 90.769C214.622 91.3484 214.873 92.2195 214.873 93.3823C214.873 94.1507 214.757 94.7958 214.527 95.3176C214.297 95.8394 213.973 96.2339 213.554 96.501C213.139 96.768 212.648 96.9016 212.081 96.9016C211.723 96.9016 211.409 96.8543 211.138 96.7598C210.866 96.6653 210.634 96.5379 210.441 96.3777C210.248 96.2175 210.088 96.0428 209.96 95.8538H209.886C209.899 96.0141 209.913 96.2072 209.93 96.4332C209.95 96.6592 209.96 96.8564 209.96 97.0249V99.7984H208.931V90.0232H209.775L209.911 91.0217H209.96C210.092 90.8163 210.252 90.6293 210.441 90.4608C210.63 90.2883 210.86 90.1527 211.131 90.0541C211.407 89.9513 211.731 89.9 212.105 89.9ZM211.926 90.7628C211.458 90.7628 211.08 90.8532 210.792 91.034C210.509 91.2148 210.301 91.486 210.17 91.8476C210.038 92.2051 209.969 92.655 209.96 93.1974V93.3946C209.96 93.9658 210.022 94.4486 210.145 94.843C210.273 95.2375 210.48 95.5374 210.768 95.7429C211.059 95.9483 211.45 96.051 211.939 96.051C212.358 96.051 212.707 95.938 212.987 95.7121C213.266 95.4861 213.473 95.1717 213.609 94.7691C213.749 94.3623 213.819 93.8959 213.819 93.37C213.819 92.5728 213.662 91.9401 213.35 91.4716C213.042 90.9991 212.567 90.7628 211.926 90.7628ZM217.689 96.7783H216.66V87.1881H217.689V96.7783ZM222.454 89.9C223.029 89.9 223.522 90.0273 223.933 90.2821C224.344 90.5369 224.658 90.8943 224.876 91.3545C225.094 91.8106 225.202 92.3448 225.202 92.957V93.5918H220.537C220.549 94.3849 220.746 94.9889 221.128 95.4039C221.511 95.8189 222.049 96.0264 222.743 96.0264C223.171 96.0264 223.549 95.9874 223.877 95.9093C224.206 95.8312 224.547 95.7162 224.9 95.5641V96.464C224.559 96.616 224.22 96.727 223.883 96.7968C223.551 96.8667 223.156 96.9016 222.7 96.9016C222.051 96.9016 221.484 96.7701 220.999 96.5071C220.518 96.2401 220.144 95.8497 219.877 95.3361C219.61 94.8225 219.477 94.1938 219.477 93.4501C219.477 92.7228 219.598 92.0941 219.84 91.5641C220.087 91.0299 220.432 90.619 220.876 90.3314C221.324 90.0438 221.85 89.9 222.454 89.9ZM222.441 90.7382C221.895 90.7382 221.459 90.9169 221.135 91.2744C220.81 91.6319 220.617 92.1311 220.555 92.7721H224.13C224.126 92.3694 224.062 92.0161 223.939 91.712C223.82 91.4038 223.637 91.1655 223.39 90.9971C223.144 90.8245 222.827 90.7382 222.441 90.7382ZM229.122 96.0634C229.291 96.0634 229.463 96.049 229.64 96.0202C229.817 95.9915 229.961 95.9565 230.071 95.9154V96.7105C229.952 96.7639 229.786 96.8091 229.572 96.8461C229.363 96.8831 229.157 96.9016 228.956 96.9016C228.598 96.9016 228.274 96.84 227.982 96.7167C227.69 96.5893 227.456 96.3756 227.279 96.0757C227.107 95.7757 227.021 95.3607 227.021 94.8307V90.8245H226.059V90.3252L227.027 89.9246L227.434 88.4577H228.05V90.0232H230.028V90.8245H228.05V94.7999C228.05 95.2231 228.146 95.5395 228.34 95.749C228.537 95.9586 228.798 96.0634 229.122 96.0634ZM233.967 89.9123C234.772 89.9123 235.37 90.0931 235.76 90.4547C236.151 90.8163 236.346 91.3936 236.346 92.1866V96.7783H235.6L235.403 95.7799H235.354C235.164 96.0264 234.967 96.2339 234.762 96.4024C234.556 96.5667 234.318 96.692 234.047 96.7783C233.78 96.8605 233.451 96.9016 233.061 96.9016C232.65 96.9016 232.284 96.8297 231.964 96.6859C231.647 96.5421 231.397 96.3243 231.212 96.0325C231.031 95.7408 230.941 95.371 230.941 94.9231C230.941 94.2493 231.208 93.7315 231.742 93.37C232.276 93.0084 233.089 92.8111 234.182 92.7783L235.347 92.729V92.316C235.347 91.7326 235.222 91.3237 234.971 91.0895C234.721 90.8553 234.367 90.7382 233.911 90.7382C233.558 90.7382 233.221 90.7896 232.9 90.8923C232.58 90.995 232.276 91.1162 231.988 91.2559L231.674 90.4793C231.978 90.3232 232.327 90.1897 232.722 90.0787C233.116 89.9678 233.531 89.9123 233.967 89.9123ZM235.335 93.4501L234.306 93.4932C233.463 93.5261 232.87 93.6638 232.525 93.9062C232.179 94.1486 232.007 94.4917 232.007 94.9355C232.007 95.3217 232.124 95.6073 232.358 95.7922C232.592 95.9771 232.903 96.0695 233.289 96.0695C233.889 96.0695 234.38 95.9031 234.762 95.5703C235.144 95.2375 235.335 94.7382 235.335 94.0726V93.4501ZM240.857 96.9016C240.003 96.9016 239.325 96.6099 238.823 96.0264C238.326 95.4429 238.078 94.5759 238.078 93.4254C238.078 92.2626 238.332 91.3853 238.842 90.7937C239.351 90.1979 240.029 89.9 240.876 89.9C241.233 89.9 241.546 89.9472 241.813 90.0417C242.08 90.1362 242.31 90.2636 242.503 90.4239C242.696 90.58 242.858 90.7587 242.99 90.9601H243.064C243.047 90.8327 243.031 90.6581 243.015 90.4362C242.998 90.2143 242.99 90.0335 242.99 89.8938V87.1881H244.013V96.7783H243.187L243.033 95.8168H242.99C242.863 96.0182 242.7 96.201 242.503 96.3654C242.31 96.5297 242.078 96.6612 241.807 96.7598C241.539 96.8543 241.223 96.9016 240.857 96.9016ZM241.018 96.051C241.741 96.051 242.252 95.8456 242.552 95.4347C242.852 95.0238 243.002 94.4136 243.002 93.6042V93.4193C243.002 92.5605 242.858 91.901 242.571 91.4408C242.287 90.9806 241.77 90.7505 241.018 90.7505C240.389 90.7505 239.919 90.9929 239.606 91.4778C239.294 91.9585 239.138 92.616 239.138 93.4501C239.138 94.2801 239.292 94.9211 239.6 95.3731C239.912 95.825 240.385 96.051 241.018 96.051ZM252.007 93.3885C252.007 93.9432 251.935 94.4383 251.791 94.8738C251.647 95.3094 251.44 95.6771 251.169 95.9771C250.898 96.277 250.569 96.5071 250.183 96.6674C249.801 96.8235 249.367 96.9016 248.882 96.9016C248.43 96.9016 248.015 96.8235 247.637 96.6674C247.263 96.5071 246.939 96.277 246.663 95.9771C246.392 95.6771 246.181 95.3094 246.029 94.8738C245.881 94.4383 245.807 93.9432 245.807 93.3885C245.807 92.6488 245.932 92.0202 246.183 91.5025C246.433 90.9806 246.791 90.5841 247.255 90.3129C247.723 90.0376 248.28 89.9 248.925 89.9C249.542 89.9 250.08 90.0376 250.54 90.3129C251.004 90.5882 251.364 90.9868 251.619 91.5086C251.878 92.0263 252.007 92.653 252.007 93.3885ZM246.867 93.3885C246.867 93.9308 246.939 94.4013 247.082 94.7999C247.226 95.1984 247.448 95.5066 247.748 95.7244C248.048 95.9422 248.434 96.051 248.907 96.051C249.375 96.051 249.759 95.9422 250.059 95.7244C250.363 95.5066 250.587 95.1984 250.731 94.7999C250.875 94.4013 250.947 93.9308 250.947 93.3885C250.947 92.8502 250.875 92.3859 250.731 91.9955C250.587 91.6011 250.365 91.297 250.066 91.0833C249.766 90.8697 249.377 90.7628 248.901 90.7628C248.198 90.7628 247.682 90.995 247.354 91.4593C247.029 91.9236 246.867 92.5667 246.867 93.3885Z" fill="#101E37"/>
<path d="M173.652 173.373C172.639 173.373 171.773 173.165 171.053 172.748C170.334 172.332 169.78 171.74 169.392 170.973C169.013 170.197 168.824 169.283 168.824 168.232C168.824 167.447 168.932 166.741 169.15 166.117C169.368 165.482 169.68 164.943 170.087 164.498C170.504 164.043 171.01 163.698 171.607 163.461C172.213 163.224 172.894 163.106 173.652 163.106C174.21 163.106 174.745 163.182 175.256 163.333C175.777 163.485 176.227 163.703 176.605 163.987C176.766 164.091 176.871 164.218 176.918 164.37C176.975 164.512 176.984 164.649 176.946 164.782C176.918 164.914 176.856 165.028 176.762 165.123C176.667 165.208 176.544 165.255 176.392 165.265C176.25 165.274 176.094 165.222 175.924 165.108C175.611 164.872 175.266 164.697 174.887 164.583C174.509 164.469 174.111 164.413 173.694 164.413C172.975 164.413 172.369 164.564 171.877 164.867C171.384 165.16 171.01 165.591 170.755 166.159C170.499 166.727 170.371 167.418 170.371 168.232C170.371 169.047 170.499 169.742 170.755 170.32C171.01 170.888 171.384 171.323 171.877 171.626C172.369 171.92 172.975 172.067 173.694 172.067C174.111 172.067 174.509 172.01 174.887 171.896C175.275 171.773 175.64 171.593 175.981 171.357C176.151 171.252 176.303 171.205 176.435 171.215C176.577 171.224 176.695 171.271 176.79 171.357C176.885 171.442 176.946 171.551 176.975 171.683C177.013 171.806 177.008 171.939 176.96 172.081C176.923 172.213 176.833 172.327 176.691 172.422C176.303 172.734 175.843 172.971 175.313 173.132C174.783 173.293 174.229 173.373 173.652 173.373ZM179.315 173.33C179.087 173.33 178.912 173.264 178.789 173.132C178.666 172.99 178.605 172.796 178.605 172.549V167.011C178.605 166.765 178.666 166.576 178.789 166.443C178.912 166.311 179.087 166.244 179.315 166.244C179.542 166.244 179.717 166.311 179.84 166.443C179.973 166.576 180.039 166.765 180.039 167.011V172.549C180.039 172.796 179.977 172.99 179.854 173.132C179.731 173.264 179.551 173.33 179.315 173.33ZM179.315 164.768C179.031 164.768 178.808 164.697 178.647 164.555C178.496 164.413 178.42 164.214 178.42 163.958C178.42 163.693 178.496 163.494 178.647 163.362C178.808 163.22 179.031 163.149 179.315 163.149C179.599 163.149 179.816 163.22 179.968 163.362C180.129 163.494 180.209 163.693 180.209 163.958C180.209 164.214 180.129 164.413 179.968 164.555C179.816 164.697 179.599 164.768 179.315 164.768ZM184.529 173.373C183.97 173.373 183.501 173.269 183.123 173.061C182.754 172.852 182.474 172.545 182.285 172.138C182.105 171.721 182.015 171.2 182.015 170.576V166.94C182.015 166.694 182.077 166.514 182.2 166.401C182.323 166.278 182.498 166.216 182.725 166.216C182.952 166.216 183.127 166.278 183.251 166.401C183.383 166.514 183.449 166.694 183.449 166.94V170.59C183.449 171.148 183.563 171.56 183.79 171.825C184.017 172.09 184.377 172.223 184.869 172.223C185.409 172.223 185.844 172.043 186.176 171.683C186.517 171.314 186.687 170.831 186.687 170.235V166.94C186.687 166.694 186.749 166.514 186.872 166.401C186.995 166.278 187.175 166.216 187.411 166.216C187.638 166.216 187.814 166.278 187.937 166.401C188.06 166.514 188.121 166.694 188.121 166.94V172.62C188.121 173.103 187.889 173.345 187.425 173.345C187.208 173.345 187.037 173.283 186.914 173.16C186.791 173.027 186.73 172.848 186.73 172.62V171.413L186.914 171.726C186.725 172.256 186.422 172.663 186.005 172.947C185.589 173.231 185.097 173.373 184.529 173.373ZM192.784 173.373C192.178 173.373 191.643 173.231 191.179 172.947C190.725 172.654 190.37 172.237 190.114 171.697C189.859 171.148 189.731 170.509 189.731 169.78C189.731 169.032 189.859 168.393 190.114 167.863C190.37 167.333 190.725 166.921 191.179 166.628C191.643 166.334 192.178 166.188 192.784 166.188C193.39 166.188 193.91 166.339 194.346 166.642C194.791 166.936 195.089 167.333 195.24 167.835H195.084V163.859C195.084 163.622 195.146 163.442 195.269 163.319C195.392 163.196 195.567 163.135 195.794 163.135C196.022 163.135 196.197 163.196 196.32 163.319C196.452 163.442 196.519 163.622 196.519 163.859V172.62C196.519 172.848 196.457 173.027 196.334 173.16C196.211 173.283 196.036 173.345 195.808 173.345C195.581 173.345 195.406 173.283 195.283 173.16C195.16 173.027 195.098 172.848 195.098 172.62V171.371L195.255 171.683C195.103 172.194 194.805 172.606 194.36 172.919C193.925 173.222 193.399 173.373 192.784 173.373ZM193.153 172.265C193.541 172.265 193.882 172.171 194.175 171.981C194.469 171.792 194.696 171.513 194.857 171.144C195.027 170.774 195.113 170.32 195.113 169.78C195.113 168.966 194.933 168.351 194.573 167.934C194.213 167.518 193.74 167.309 193.153 167.309C192.755 167.309 192.41 167.404 192.116 167.593C191.823 167.773 191.591 168.048 191.421 168.417C191.26 168.786 191.179 169.241 191.179 169.78C191.179 170.585 191.359 171.2 191.719 171.626C192.079 172.052 192.557 172.265 193.153 172.265ZM200.748 173.373C200.265 173.373 199.829 173.278 199.441 173.089C199.063 172.9 198.764 172.644 198.547 172.322C198.329 172 198.22 171.636 198.22 171.229C198.22 170.718 198.348 170.315 198.603 170.022C198.869 169.719 199.299 169.506 199.896 169.383C200.502 169.25 201.316 169.184 202.338 169.184H203.006V170.064H202.352C201.671 170.064 201.131 170.097 200.734 170.164C200.336 170.23 200.052 170.344 199.881 170.505C199.721 170.656 199.64 170.869 199.64 171.144C199.64 171.503 199.763 171.797 200.009 172.024C200.255 172.242 200.596 172.351 201.032 172.351C201.382 172.351 201.69 172.27 201.955 172.109C202.22 171.939 202.428 171.712 202.58 171.428C202.741 171.144 202.821 170.817 202.821 170.448V168.815C202.821 168.275 202.707 167.887 202.48 167.65C202.253 167.414 201.879 167.295 201.358 167.295C201.055 167.295 200.738 167.333 200.407 167.409C200.085 167.485 199.749 167.612 199.399 167.792C199.238 167.868 199.1 167.892 198.987 167.863C198.873 167.835 198.783 167.773 198.717 167.679C198.651 167.575 198.613 167.466 198.603 167.352C198.603 167.229 198.632 167.111 198.689 166.997C198.755 166.883 198.864 166.798 199.015 166.741C199.432 166.543 199.844 166.401 200.251 166.315C200.658 166.23 201.041 166.188 201.401 166.188C202.035 166.188 202.556 166.287 202.963 166.486C203.38 166.685 203.687 166.988 203.886 167.395C204.085 167.802 204.184 168.327 204.184 168.971V172.62C204.184 172.848 204.127 173.027 204.014 173.16C203.9 173.283 203.735 173.345 203.517 173.345C203.309 173.345 203.143 173.283 203.02 173.16C202.897 173.027 202.835 172.848 202.835 172.62V171.697H202.963C202.887 172.048 202.745 172.351 202.537 172.606C202.338 172.852 202.087 173.042 201.784 173.174C201.481 173.307 201.136 173.373 200.748 173.373ZM208.801 173.373C208.195 173.373 207.66 173.231 207.196 172.947C206.742 172.654 206.387 172.237 206.131 171.697C205.876 171.148 205.748 170.509 205.748 169.78C205.748 169.032 205.876 168.393 206.131 167.863C206.387 167.333 206.742 166.921 207.196 166.628C207.66 166.334 208.195 166.188 208.801 166.188C209.407 166.188 209.927 166.339 210.363 166.642C210.808 166.936 211.106 167.333 211.258 167.835H211.101V163.859C211.101 163.622 211.163 163.442 211.286 163.319C211.409 163.196 211.584 163.135 211.811 163.135C212.039 163.135 212.214 163.196 212.337 163.319C212.469 163.442 212.536 163.622 212.536 163.859V172.62C212.536 172.848 212.474 173.027 212.351 173.16C212.228 173.283 212.053 173.345 211.826 173.345C211.598 173.345 211.423 173.283 211.3 173.16C211.177 173.027 211.116 172.848 211.116 172.62V171.371L211.272 171.683C211.12 172.194 210.822 172.606 210.377 172.919C209.942 173.222 209.416 173.373 208.801 173.373ZM209.17 172.265C209.558 172.265 209.899 172.171 210.193 171.981C210.486 171.792 210.713 171.513 210.874 171.144C211.045 170.774 211.13 170.32 211.13 169.78C211.13 168.966 210.95 168.351 210.59 167.934C210.23 167.518 209.757 167.309 209.17 167.309C208.773 167.309 208.427 167.404 208.134 167.593C207.84 167.773 207.608 168.048 207.438 168.417C207.277 168.786 207.196 169.241 207.196 169.78C207.196 170.585 207.376 171.2 207.736 171.626C208.096 172.052 208.574 172.265 209.17 172.265Z" fill="#101E37"/>
<rect x="166.422" y="182.979" width="254.156" height="41.0896" rx="7.88915" fill="white"/>
<rect x="166.422" y="182.979" width="254.156" height="41.0896" rx="7.88915" stroke="#218274" stroke-width="3.15566"/>
<path d="M186.872 208.024H181.855V199.013H186.872V199.937H182.903V202.852H186.644V203.765H182.903V207.099H186.872V208.024ZM193.085 206.175C193.085 206.606 192.976 206.97 192.758 207.265C192.545 207.557 192.236 207.777 191.834 207.925C191.435 208.073 190.959 208.147 190.404 208.147C189.931 208.147 189.523 208.11 189.177 208.036C188.832 207.962 188.53 207.857 188.271 207.722V206.779C188.547 206.914 188.875 207.037 189.257 207.148C189.64 207.259 190.03 207.315 190.429 207.315C191.012 207.315 191.435 207.22 191.698 207.031C191.961 206.842 192.093 206.585 192.093 206.261C192.093 206.076 192.039 205.914 191.932 205.774C191.83 205.63 191.655 205.492 191.409 205.361C191.162 205.225 190.821 205.077 190.385 204.917C189.954 204.753 189.58 204.591 189.264 204.43C188.951 204.266 188.709 204.067 188.536 203.832C188.368 203.598 188.284 203.294 188.284 202.92C188.284 202.349 188.514 201.912 188.974 201.607C189.438 201.299 190.046 201.145 190.798 201.145C191.205 201.145 191.585 201.186 191.939 201.268C192.296 201.347 192.629 201.453 192.937 201.589L192.592 202.409C192.312 202.29 192.015 202.189 191.698 202.107C191.382 202.025 191.059 201.983 190.731 201.983C190.258 201.983 189.894 202.062 189.64 202.218C189.389 202.374 189.264 202.587 189.264 202.859C189.264 203.068 189.321 203.241 189.436 203.376C189.555 203.512 189.744 203.639 190.003 203.758C190.262 203.878 190.603 204.017 191.026 204.178C191.45 204.334 191.815 204.496 192.123 204.665C192.432 204.829 192.668 205.03 192.832 205.269C193.001 205.503 193.085 205.805 193.085 206.175ZM197.436 208.147C196.828 208.147 196.292 208.022 195.828 207.771C195.363 207.52 195.002 207.138 194.743 206.624C194.484 206.111 194.355 205.464 194.355 204.683C194.355 203.865 194.49 203.198 194.761 202.68C195.037 202.158 195.415 201.772 195.895 201.521C196.376 201.271 196.923 201.145 197.535 201.145C197.872 201.145 198.196 201.18 198.509 201.25C198.825 201.316 199.084 201.4 199.285 201.503L198.977 202.359C198.772 202.277 198.533 202.203 198.262 202.138C197.995 202.072 197.744 202.039 197.51 202.039C197.042 202.039 196.651 202.14 196.339 202.341C196.031 202.542 195.799 202.838 195.643 203.228C195.491 203.619 195.415 204.1 195.415 204.671C195.415 205.217 195.489 205.684 195.637 206.07C195.789 206.456 196.013 206.752 196.308 206.957C196.608 207.159 196.982 207.259 197.43 207.259C197.788 207.259 198.11 207.222 198.398 207.148C198.685 207.07 198.946 206.98 199.181 206.877V207.789C198.955 207.904 198.702 207.993 198.422 208.054C198.147 208.116 197.818 208.147 197.436 208.147ZM203.852 201.145C203.988 201.145 204.13 201.153 204.278 201.17C204.426 201.182 204.557 201.201 204.672 201.225L204.543 202.174C204.432 202.146 204.308 202.123 204.173 202.107C204.037 202.09 203.91 202.082 203.791 202.082C203.52 202.082 203.263 202.138 203.02 202.248C202.782 202.355 202.572 202.511 202.392 202.717C202.211 202.918 202.069 203.163 201.966 203.45C201.864 203.734 201.812 204.05 201.812 204.399V208.024H200.783V201.268H201.634L201.745 202.513H201.788C201.927 202.263 202.096 202.035 202.293 201.829C202.49 201.62 202.718 201.453 202.977 201.33C203.24 201.207 203.532 201.145 203.852 201.145ZM206.971 201.268V208.024H205.948V201.268H206.971ZM206.472 198.741C206.64 198.741 206.784 198.797 206.903 198.908C207.027 199.015 207.088 199.183 207.088 199.413C207.088 199.639 207.027 199.808 206.903 199.919C206.784 200.03 206.64 200.085 206.472 200.085C206.295 200.085 206.147 200.03 206.028 199.919C205.913 199.808 205.855 199.639 205.855 199.413C205.855 199.183 205.913 199.015 206.028 198.908C206.147 198.797 206.295 198.741 206.472 198.741ZM210.164 198.433V200.831C210.164 201.106 210.155 201.373 210.139 201.632C210.127 201.891 210.116 202.092 210.108 202.236H210.164C210.349 201.932 210.616 201.675 210.965 201.466C211.314 201.256 211.76 201.151 212.302 201.151C213.149 201.151 213.823 201.445 214.324 202.033C214.829 202.616 215.082 203.485 215.082 204.64C215.082 205.4 214.967 206.041 214.737 206.563C214.507 207.085 214.182 207.479 213.763 207.746C213.344 208.013 212.849 208.147 212.278 208.147C211.744 208.147 211.304 208.048 210.959 207.851C210.618 207.65 210.355 207.405 210.17 207.118H210.09L209.88 208.024H209.141V198.433H210.164ZM212.136 202.008C211.647 202.008 211.259 202.105 210.971 202.298C210.683 202.487 210.476 202.774 210.349 203.161C210.225 203.543 210.164 204.028 210.164 204.615V204.671C210.164 205.521 210.305 206.172 210.589 206.624C210.873 207.072 211.388 207.296 212.136 207.296C212.765 207.296 213.235 207.066 213.547 206.606C213.864 206.146 214.022 205.488 214.022 204.634C214.022 203.763 213.866 203.107 213.554 202.668C213.245 202.228 212.773 202.008 212.136 202.008ZM217.893 201.268V208.024H216.869V201.268H217.893ZM217.393 198.741C217.562 198.741 217.706 198.797 217.825 198.908C217.948 199.015 218.01 199.183 218.01 199.413C218.01 199.639 217.948 199.808 217.825 199.919C217.706 200.03 217.562 200.085 217.393 200.085C217.217 200.085 217.069 200.03 216.95 199.919C216.835 199.808 216.777 199.639 216.777 199.413C216.777 199.183 216.835 199.015 216.95 198.908C217.069 198.797 217.217 198.741 217.393 198.741ZM222.663 201.145C223.238 201.145 223.731 201.273 224.142 201.527C224.553 201.782 224.868 202.14 225.085 202.6C225.303 203.056 225.412 203.59 225.412 204.202V204.837H220.746C220.759 205.63 220.956 206.234 221.338 206.649C221.72 207.064 222.258 207.272 222.953 207.272C223.38 207.272 223.758 207.233 224.087 207.155C224.416 207.076 224.757 206.961 225.11 206.809V207.709C224.769 207.861 224.43 207.972 224.093 208.042C223.76 208.112 223.366 208.147 222.91 208.147C222.26 208.147 221.693 208.015 221.209 207.752C220.728 207.485 220.354 207.095 220.087 206.581C219.82 206.068 219.686 205.439 219.686 204.695C219.686 203.968 219.807 203.339 220.05 202.809C220.296 202.275 220.641 201.864 221.085 201.577C221.533 201.289 222.059 201.145 222.663 201.145ZM222.651 201.983C222.104 201.983 221.669 202.162 221.344 202.52C221.02 202.877 220.826 203.376 220.765 204.017H224.34C224.335 203.615 224.272 203.261 224.148 202.957C224.029 202.649 223.846 202.411 223.6 202.242C223.353 202.07 223.037 201.983 222.651 201.983ZM230.349 201.145C231.15 201.145 231.756 201.342 232.167 201.737C232.578 202.127 232.783 202.756 232.783 203.623V208.024H231.773V203.691C231.773 203.128 231.643 202.707 231.384 202.427C231.13 202.148 230.737 202.008 230.207 202.008C229.459 202.008 228.933 202.22 228.629 202.643C228.325 203.066 228.173 203.68 228.173 204.486V208.024H227.15V201.268H227.976L228.13 202.242H228.185C228.329 202.004 228.512 201.805 228.734 201.644C228.956 201.48 229.204 201.357 229.48 201.275C229.755 201.188 230.045 201.145 230.349 201.145ZM236.845 198.427H237.702V211.081H236.845V198.427Z" fill="#101E37"/>
<path d="M440.652 173.373C439.639 173.373 438.773 173.165 438.053 172.748C437.334 172.332 436.78 171.74 436.392 170.973C436.013 170.197 435.824 169.283 435.824 168.232C435.824 167.447 435.932 166.741 436.15 166.117C436.368 165.482 436.68 164.943 437.087 164.498C437.504 164.043 438.01 163.698 438.607 163.461C439.213 163.224 439.894 163.106 440.652 163.106C441.21 163.106 441.745 163.182 442.256 163.333C442.777 163.485 443.227 163.703 443.605 163.987C443.766 164.091 443.871 164.218 443.918 164.37C443.975 164.512 443.984 164.649 443.946 164.782C443.918 164.914 443.856 165.028 443.762 165.123C443.667 165.208 443.544 165.255 443.392 165.265C443.25 165.274 443.094 165.222 442.924 165.108C442.611 164.872 442.266 164.697 441.887 164.583C441.509 164.469 441.111 164.413 440.694 164.413C439.975 164.413 439.369 164.564 438.877 164.867C438.384 165.16 438.01 165.591 437.755 166.159C437.499 166.727 437.371 167.418 437.371 168.232C437.371 169.047 437.499 169.742 437.755 170.32C438.01 170.888 438.384 171.323 438.877 171.626C439.369 171.92 439.975 172.067 440.694 172.067C441.111 172.067 441.509 172.01 441.887 171.896C442.275 171.773 442.64 171.593 442.981 171.357C443.151 171.252 443.303 171.205 443.435 171.215C443.577 171.224 443.695 171.271 443.79 171.357C443.885 171.442 443.946 171.551 443.975 171.683C444.013 171.806 444.008 171.939 443.96 172.081C443.923 172.213 443.833 172.327 443.691 172.422C443.303 172.734 442.843 172.971 442.313 173.132C441.783 173.293 441.229 173.373 440.652 173.373ZM448.116 173.373C447.415 173.373 446.809 173.226 446.298 172.933C445.796 172.639 445.404 172.223 445.12 171.683C444.836 171.144 444.694 170.509 444.694 169.78C444.694 169.222 444.774 168.725 444.935 168.289C445.096 167.854 445.323 167.48 445.617 167.167C445.92 166.846 446.279 166.604 446.696 166.443C447.122 166.273 447.595 166.188 448.116 166.188C448.807 166.188 449.403 166.334 449.905 166.628C450.416 166.921 450.814 167.338 451.098 167.877C451.382 168.408 451.524 169.042 451.524 169.78C451.524 170.329 451.444 170.826 451.283 171.271C451.122 171.716 450.89 172.095 450.587 172.407C450.293 172.72 449.934 172.961 449.508 173.132C449.091 173.293 448.627 173.373 448.116 173.373ZM448.116 172.265C448.504 172.265 448.845 172.171 449.138 171.981C449.432 171.792 449.659 171.513 449.82 171.144C449.99 170.774 450.076 170.32 450.076 169.78C450.076 168.966 449.896 168.351 449.536 167.934C449.176 167.518 448.703 167.309 448.116 167.309C447.718 167.309 447.373 167.404 447.079 167.593C446.786 167.773 446.554 168.048 446.383 168.417C446.223 168.786 446.142 169.241 446.142 169.78C446.142 170.585 446.322 171.2 446.682 171.626C447.041 172.052 447.519 172.265 448.116 172.265ZM448.67 165.321C448.594 165.435 448.499 165.501 448.386 165.52C448.282 165.539 448.177 165.52 448.073 165.463C447.969 165.407 447.893 165.326 447.846 165.222C447.808 165.118 447.818 165.004 447.874 164.881L449.025 162.652C449.1 162.5 449.195 162.401 449.309 162.353C449.432 162.306 449.555 162.301 449.678 162.339C449.81 162.368 449.919 162.424 450.005 162.51C450.099 162.595 450.156 162.704 450.175 162.836C450.194 162.959 450.161 163.082 450.076 163.206L448.67 165.321ZM455.776 173.373C455.17 173.373 454.635 173.231 454.171 172.947C453.717 172.654 453.362 172.237 453.106 171.697C452.851 171.148 452.723 170.509 452.723 169.78C452.723 169.032 452.851 168.393 453.106 167.863C453.362 167.333 453.717 166.921 454.171 166.628C454.635 166.334 455.17 166.188 455.776 166.188C456.382 166.188 456.903 166.339 457.338 166.642C457.783 166.936 458.081 167.333 458.233 167.835H458.077V163.859C458.077 163.622 458.138 163.442 458.261 163.319C458.384 163.196 458.559 163.135 458.787 163.135C459.014 163.135 459.189 163.196 459.312 163.319C459.445 163.442 459.511 163.622 459.511 163.859V172.62C459.511 172.848 459.449 173.027 459.326 173.16C459.203 173.283 459.028 173.345 458.801 173.345C458.574 173.345 458.398 173.283 458.275 173.16C458.152 173.027 458.091 172.848 458.091 172.62V171.371L458.247 171.683C458.095 172.194 457.797 172.606 457.352 172.919C456.917 173.222 456.391 173.373 455.776 173.373ZM456.145 172.265C456.533 172.265 456.874 172.171 457.168 171.981C457.461 171.792 457.688 171.513 457.849 171.144C458.02 170.774 458.105 170.32 458.105 169.78C458.105 168.966 457.925 168.351 457.565 167.934C457.206 167.518 456.732 167.309 456.145 167.309C455.748 167.309 455.402 167.404 455.109 167.593C454.815 167.773 454.583 168.048 454.413 168.417C454.252 168.786 454.171 169.241 454.171 169.78C454.171 170.585 454.351 171.2 454.711 171.626C455.071 172.052 455.549 172.265 456.145 172.265ZM462.235 173.33C462.008 173.33 461.832 173.264 461.709 173.132C461.586 172.99 461.525 172.796 461.525 172.549V167.011C461.525 166.765 461.586 166.576 461.709 166.443C461.832 166.311 462.008 166.244 462.235 166.244C462.462 166.244 462.637 166.311 462.76 166.443C462.893 166.576 462.959 166.765 462.959 167.011V172.549C462.959 172.796 462.897 172.99 462.774 173.132C462.651 173.264 462.471 173.33 462.235 173.33ZM462.235 164.768C461.951 164.768 461.728 164.697 461.567 164.555C461.416 164.413 461.34 164.214 461.34 163.958C461.34 163.693 461.416 163.494 461.567 163.362C461.728 163.22 461.951 163.149 462.235 163.149C462.519 163.149 462.736 163.22 462.888 163.362C463.049 163.494 463.129 163.693 463.129 163.958C463.129 164.214 463.049 164.413 462.888 164.555C462.736 164.697 462.519 164.768 462.235 164.768ZM468.116 175.929C467.605 175.929 467.108 175.877 466.625 175.773C466.152 175.669 465.721 175.498 465.333 175.262C465.191 175.186 465.096 175.091 465.049 174.978C465.001 174.874 464.987 174.765 465.006 174.651C465.035 174.537 465.087 174.438 465.162 174.353C465.238 174.268 465.328 174.211 465.432 174.182C465.546 174.154 465.664 174.173 465.787 174.239C466.204 174.466 466.597 174.618 466.966 174.694C467.344 174.779 467.695 174.821 468.017 174.821C468.679 174.821 469.176 174.651 469.508 174.31C469.839 173.979 470.005 173.487 470.005 172.833V171.385H470.132C469.99 171.906 469.692 172.317 469.238 172.62C468.783 172.923 468.258 173.075 467.662 173.075C467.037 173.075 466.492 172.933 466.029 172.649C465.565 172.355 465.205 171.953 464.949 171.442C464.694 170.921 464.566 170.315 464.566 169.624C464.566 169.103 464.637 168.635 464.779 168.218C464.93 167.802 465.139 167.442 465.404 167.139C465.678 166.836 466.005 166.604 466.384 166.443C466.772 166.273 467.198 166.188 467.662 166.188C468.268 166.188 468.793 166.339 469.238 166.642C469.692 166.945 469.986 167.357 470.118 167.877L469.976 168.119V166.94C469.976 166.704 470.038 166.524 470.161 166.401C470.293 166.278 470.469 166.216 470.686 166.216C470.914 166.216 471.089 166.278 471.212 166.401C471.335 166.524 471.396 166.704 471.396 166.94V172.663C471.396 173.742 471.117 174.556 470.559 175.105C470 175.655 469.186 175.929 468.116 175.929ZM468.002 171.953C468.419 171.953 468.774 171.858 469.067 171.669C469.361 171.48 469.588 171.21 469.749 170.86C469.91 170.509 469.99 170.097 469.99 169.624C469.99 168.914 469.811 168.351 469.451 167.934C469.101 167.518 468.618 167.309 468.002 167.309C467.595 167.309 467.245 167.404 466.952 167.593C466.658 167.783 466.426 168.053 466.256 168.403C466.095 168.744 466.014 169.151 466.014 169.624C466.014 170.344 466.194 170.912 466.554 171.328C466.914 171.745 467.397 171.953 468.002 171.953ZM476.42 173.373C475.719 173.373 475.113 173.226 474.602 172.933C474.1 172.639 473.707 172.223 473.423 171.683C473.139 171.144 472.997 170.509 472.997 169.78C472.997 169.222 473.078 168.725 473.239 168.289C473.4 167.854 473.627 167.48 473.92 167.167C474.223 166.846 474.583 166.604 475 166.443C475.426 166.273 475.899 166.188 476.42 166.188C477.111 166.188 477.707 166.334 478.209 166.628C478.72 166.921 479.118 167.338 479.402 167.877C479.686 168.408 479.828 169.042 479.828 169.78C479.828 170.329 479.747 170.826 479.586 171.271C479.426 171.716 479.194 172.095 478.891 172.407C478.597 172.72 478.237 172.961 477.811 173.132C477.395 173.293 476.931 173.373 476.42 173.373ZM476.42 172.265C476.808 172.265 477.149 172.171 477.442 171.981C477.736 171.792 477.963 171.513 478.124 171.144C478.294 170.774 478.379 170.32 478.379 169.78C478.379 168.966 478.2 168.351 477.84 167.934C477.48 167.518 477.007 167.309 476.42 167.309C476.022 167.309 475.677 167.404 475.383 167.593C475.09 167.773 474.858 168.048 474.687 168.417C474.526 168.786 474.446 169.241 474.446 169.78C474.446 170.585 474.626 171.2 474.986 171.626C475.345 172.052 475.823 172.265 476.42 172.265ZM485.893 175.901C485.666 175.901 485.491 175.839 485.367 175.716C485.244 175.593 485.183 175.413 485.183 175.177V166.94C485.183 166.704 485.244 166.524 485.367 166.401C485.491 166.278 485.661 166.216 485.879 166.216C486.106 166.216 486.281 166.278 486.404 166.401C486.527 166.524 486.589 166.704 486.589 166.94V168.176L486.433 167.877C486.584 167.366 486.882 166.959 487.327 166.656C487.772 166.344 488.298 166.188 488.903 166.188C489.519 166.188 490.054 166.334 490.508 166.628C490.972 166.921 491.327 167.333 491.573 167.863C491.829 168.393 491.956 169.032 491.956 169.78C491.956 170.509 491.829 171.148 491.573 171.697C491.327 172.237 490.977 172.654 490.522 172.947C490.068 173.231 489.528 173.373 488.903 173.373C488.307 173.373 487.786 173.222 487.341 172.919C486.896 172.616 486.598 172.213 486.447 171.712H486.617V175.177C486.617 175.413 486.551 175.593 486.418 175.716C486.295 175.839 486.12 175.901 485.893 175.901ZM488.548 172.265C488.946 172.265 489.292 172.171 489.585 171.981C489.878 171.792 490.106 171.513 490.267 171.144C490.428 170.774 490.508 170.32 490.508 169.78C490.508 168.966 490.328 168.351 489.968 167.934C489.618 167.518 489.145 167.309 488.548 167.309C488.16 167.309 487.815 167.404 487.512 167.593C487.218 167.773 486.991 168.048 486.83 168.417C486.669 168.786 486.589 169.241 486.589 169.78C486.589 170.585 486.769 171.2 487.128 171.626C487.488 172.052 487.961 172.265 488.548 172.265ZM496.583 173.373C495.883 173.373 495.277 173.226 494.766 172.933C494.264 172.639 493.871 172.223 493.587 171.683C493.303 171.144 493.161 170.509 493.161 169.78C493.161 169.222 493.241 168.725 493.402 168.289C493.563 167.854 493.791 167.48 494.084 167.167C494.387 166.846 494.747 166.604 495.163 166.443C495.589 166.273 496.063 166.188 496.583 166.188C497.274 166.188 497.871 166.334 498.373 166.628C498.884 166.921 499.281 167.338 499.565 167.877C499.849 168.408 499.991 169.042 499.991 169.78C499.991 170.329 499.911 170.826 499.75 171.271C499.589 171.716 499.357 172.095 499.054 172.407C498.761 172.72 498.401 172.961 497.975 173.132C497.558 173.293 497.095 173.373 496.583 173.373ZM496.583 172.265C496.971 172.265 497.312 172.171 497.606 171.981C497.899 171.792 498.126 171.513 498.287 171.144C498.458 170.774 498.543 170.32 498.543 169.78C498.543 168.966 498.363 168.351 498.003 167.934C497.644 167.518 497.17 167.309 496.583 167.309C496.186 167.309 495.84 167.404 495.547 167.593C495.253 167.773 495.021 168.048 494.851 168.417C494.69 168.786 494.609 169.241 494.609 169.78C494.609 170.585 494.789 171.2 495.149 171.626C495.509 172.052 495.987 172.265 496.583 172.265ZM504.03 173.373C503.614 173.373 503.183 173.326 502.738 173.231C502.303 173.136 501.9 172.975 501.531 172.748C501.408 172.663 501.323 172.568 501.276 172.464C501.228 172.36 501.209 172.256 501.219 172.152C501.238 172.038 501.28 171.944 501.347 171.868C501.422 171.783 501.512 171.731 501.616 171.712C501.73 171.693 501.848 171.716 501.971 171.783C502.341 171.991 502.696 172.138 503.036 172.223C503.377 172.299 503.713 172.336 504.045 172.336C504.546 172.336 504.925 172.246 505.181 172.067C505.436 171.887 505.564 171.645 505.564 171.342C505.564 171.096 505.479 170.907 505.308 170.774C505.138 170.632 504.882 170.523 504.542 170.448L503.193 170.178C502.606 170.055 502.161 169.837 501.858 169.525C501.555 169.212 501.403 168.815 501.403 168.332C501.403 167.896 501.522 167.518 501.758 167.196C501.995 166.874 502.326 166.628 502.752 166.457C503.178 166.278 503.671 166.188 504.229 166.188C504.646 166.188 505.039 166.24 505.408 166.344C505.777 166.448 506.118 166.604 506.43 166.812C506.553 166.879 506.634 166.969 506.672 167.082C506.71 167.186 506.714 167.291 506.686 167.395C506.667 167.499 506.62 167.593 506.544 167.679C506.468 167.754 506.374 167.802 506.26 167.821C506.156 167.83 506.037 167.802 505.905 167.735C505.621 167.556 505.337 167.428 505.053 167.352C504.778 167.276 504.504 167.238 504.229 167.238C503.728 167.238 503.349 167.333 503.093 167.522C502.847 167.702 502.724 167.948 502.724 168.261C502.724 168.498 502.8 168.692 502.951 168.843C503.103 168.995 503.339 169.103 503.661 169.17L505.01 169.44C505.626 169.563 506.09 169.771 506.402 170.064C506.724 170.358 506.885 170.755 506.885 171.257C506.885 171.91 506.624 172.426 506.104 172.805C505.583 173.184 504.892 173.373 504.03 173.373ZM511.365 173.373C510.797 173.373 510.319 173.274 509.931 173.075C509.542 172.876 509.254 172.583 509.064 172.194C508.875 171.806 508.78 171.333 508.78 170.774V167.423H507.928C507.739 167.423 507.592 167.376 507.488 167.281C507.384 167.177 507.332 167.04 507.332 166.869C507.332 166.689 507.384 166.552 507.488 166.457C507.592 166.363 507.739 166.315 507.928 166.315H508.78V164.853C508.78 164.616 508.842 164.436 508.965 164.313C509.098 164.19 509.277 164.129 509.505 164.129C509.732 164.129 509.907 164.19 510.03 164.313C510.153 164.436 510.215 164.616 510.215 164.853V166.315H511.876C512.065 166.315 512.212 166.363 512.316 166.457C512.42 166.552 512.473 166.689 512.473 166.869C512.473 167.04 512.42 167.177 512.316 167.281C512.212 167.376 512.065 167.423 511.876 167.423H510.215V170.661C510.215 171.163 510.319 171.541 510.527 171.797C510.745 172.052 511.095 172.18 511.578 172.18C511.748 172.18 511.895 172.166 512.018 172.138C512.151 172.1 512.259 172.076 512.345 172.067C512.449 172.067 512.534 172.104 512.6 172.18C512.667 172.246 512.7 172.379 512.7 172.578C512.7 172.72 512.671 172.852 512.615 172.975C512.567 173.099 512.477 173.179 512.345 173.217C512.231 173.255 512.075 173.288 511.876 173.316C511.687 173.354 511.516 173.373 511.365 173.373ZM515.813 173.373C515.33 173.373 514.895 173.278 514.507 173.089C514.128 172.9 513.83 172.644 513.612 172.322C513.394 172 513.285 171.636 513.285 171.229C513.285 170.718 513.413 170.315 513.669 170.022C513.934 169.719 514.364 169.506 514.961 169.383C515.567 169.25 516.381 169.184 517.403 169.184H518.071V170.064H517.418C516.736 170.064 516.196 170.097 515.799 170.164C515.401 170.23 515.117 170.344 514.947 170.505C514.786 170.656 514.705 170.869 514.705 171.144C514.705 171.503 514.828 171.797 515.075 172.024C515.321 172.242 515.661 172.351 516.097 172.351C516.447 172.351 516.755 172.27 517.02 172.109C517.285 171.939 517.493 171.712 517.645 171.428C517.806 171.144 517.886 170.817 517.886 170.448V168.815C517.886 168.275 517.773 167.887 517.545 167.65C517.318 167.414 516.944 167.295 516.424 167.295C516.121 167.295 515.803 167.333 515.472 167.409C515.15 167.485 514.814 167.612 514.464 167.792C514.303 167.868 514.166 167.892 514.052 167.863C513.938 167.835 513.849 167.773 513.782 167.679C513.716 167.575 513.678 167.466 513.669 167.352C513.669 167.229 513.697 167.111 513.754 166.997C513.82 166.883 513.929 166.798 514.08 166.741C514.497 166.543 514.909 166.401 515.316 166.315C515.723 166.23 516.106 166.188 516.466 166.188C517.1 166.188 517.621 166.287 518.028 166.486C518.445 166.685 518.752 166.988 518.951 167.395C519.15 167.802 519.249 168.327 519.249 168.971V172.62C519.249 172.848 519.193 173.027 519.079 173.16C518.965 173.283 518.8 173.345 518.582 173.345C518.374 173.345 518.208 173.283 518.085 173.16C517.962 173.027 517.9 172.848 517.9 172.62V171.697H518.028C517.952 172.048 517.81 172.351 517.602 172.606C517.403 172.852 517.153 173.042 516.85 173.174C516.547 173.307 516.201 173.373 515.813 173.373ZM523.454 173.373C522.716 173.373 522.157 173.16 521.779 172.734C521.409 172.299 521.225 171.674 521.225 170.86V163.859C521.225 163.622 521.286 163.442 521.409 163.319C521.533 163.196 521.708 163.135 521.935 163.135C522.162 163.135 522.337 163.196 522.46 163.319C522.593 163.442 522.659 163.622 522.659 163.859V170.774C522.659 171.248 522.754 171.603 522.943 171.839C523.142 172.067 523.426 172.18 523.795 172.18C523.88 172.18 523.956 172.18 524.022 172.18C524.089 172.171 524.155 172.161 524.221 172.152C524.335 172.142 524.415 172.175 524.463 172.251C524.51 172.317 524.534 172.459 524.534 172.677C524.534 172.876 524.491 173.032 524.406 173.146C524.321 173.25 524.183 173.316 523.994 173.345C523.909 173.354 523.819 173.359 523.724 173.359C523.629 173.368 523.54 173.373 523.454 173.373Z" fill="#101E37"/>
<rect x="435.789" y="185.345" width="123.422" height="36.3561" rx="5.5224" fill="white"/>
<rect x="435.789" y="185.345" width="123.422" height="36.3561" rx="5.5224" stroke="#101E37" stroke-width="1.57783"/>
<path d="M452.054 208.024H451.056V201.638C451.056 201.396 451.056 201.188 451.056 201.016C451.06 200.839 451.064 200.679 451.068 200.535C451.076 200.387 451.086 200.237 451.099 200.085C450.971 200.217 450.852 200.33 450.741 200.424C450.63 200.514 450.493 200.627 450.328 200.763L449.299 201.589L448.763 200.893L451.203 199.013H452.054V208.024ZM461.373 208.024H455.469V207.167L457.878 204.72C458.326 204.268 458.702 203.865 459.006 203.512C459.315 203.159 459.549 202.811 459.709 202.47C459.869 202.125 459.949 201.747 459.949 201.336C459.949 200.827 459.797 200.438 459.493 200.171C459.193 199.9 458.797 199.765 458.304 199.765C457.872 199.765 457.49 199.839 457.157 199.986C456.825 200.134 456.483 200.344 456.134 200.615L455.586 199.925C455.824 199.724 456.083 199.545 456.362 199.389C456.646 199.233 456.948 199.109 457.268 199.019C457.593 198.928 457.938 198.883 458.304 198.883C458.858 198.883 459.337 198.98 459.74 199.173C460.142 199.366 460.453 199.641 460.67 199.999C460.892 200.356 461.003 200.782 461.003 201.275C461.003 201.751 460.909 202.195 460.72 202.606C460.531 203.013 460.266 203.417 459.925 203.82C459.584 204.219 459.185 204.642 458.729 205.09L456.769 207.044V207.087H461.373V208.024ZM468.264 201.114C468.264 201.517 468.186 201.866 468.03 202.162C467.873 202.458 467.656 202.7 467.376 202.889C467.097 203.074 466.768 203.204 466.39 203.278V203.327C467.105 203.417 467.641 203.648 467.999 204.017C468.36 204.387 468.541 204.872 468.541 205.472C468.541 205.994 468.418 206.456 468.171 206.859C467.929 207.261 467.555 207.578 467.05 207.808C466.548 208.034 465.905 208.147 465.12 208.147C464.644 208.147 464.202 208.108 463.795 208.03C463.393 207.956 463.006 207.83 462.637 207.654V206.692C463.011 206.877 463.417 207.023 463.857 207.13C464.297 207.233 464.722 207.284 465.133 207.284C465.955 207.284 466.548 207.122 466.914 206.797C467.28 206.468 467.463 206.02 467.463 205.453C467.463 205.063 467.36 204.749 467.154 204.51C466.953 204.268 466.661 204.091 466.279 203.98C465.901 203.865 465.445 203.808 464.911 203.808H464.011V202.933H464.917C465.406 202.933 465.821 202.861 466.162 202.717C466.503 202.573 466.762 202.372 466.939 202.113C467.119 201.85 467.21 201.54 467.21 201.182C467.21 200.726 467.058 200.375 466.754 200.128C466.45 199.878 466.037 199.752 465.515 199.752C465.194 199.752 464.903 199.785 464.64 199.851C464.377 199.917 464.13 200.007 463.9 200.122C463.67 200.237 463.44 200.371 463.21 200.523L462.692 199.82C463.021 199.565 463.421 199.345 463.894 199.161C464.366 198.976 464.903 198.883 465.503 198.883C466.423 198.883 467.113 199.093 467.573 199.512C468.034 199.931 468.264 200.465 468.264 201.114ZM476.27 205.934H474.92V208.024H473.922V205.934H469.564V205.071L473.854 198.963H474.92V205.01H476.27V205.934ZM473.922 205.01V202.064C473.922 201.838 473.924 201.634 473.928 201.453C473.932 201.268 473.938 201.098 473.946 200.942C473.955 200.782 473.961 200.63 473.965 200.486C473.973 200.342 473.979 200.2 473.983 200.06H473.934C473.856 200.225 473.766 200.399 473.663 200.584C473.564 200.765 473.464 200.927 473.361 201.071L470.581 205.01H473.922Z" fill="#101E37"/>
</g>
<rect x="1" y="1" width="726" height="268.491" rx="7" stroke="#E6EBF0" stroke-width="2"/>
<defs>
<clipPath id="clip0_3270_18019">
<rect width="728" height="270.491" rx="8" fill="white"/>
</clipPath>
</defs>
</svg>
