<svg width="728" height="272" viewBox="0 0 728 272" fill="none" xmlns="http://www.w3.org/2000/svg">
<rect x="1" y="1.34082" width="726" height="268.695" rx="7" fill="#F3F6F9"/>
<rect x="1" y="1.34082" width="726" height="268.695" rx="7" stroke="#E6EBF0" stroke-width="2"/>
<path d="M131.762 59.5164C130.371 59.5164 129.181 59.2303 128.193 58.6582C127.205 58.0861 126.444 57.2735 125.911 56.2203C125.391 55.1541 125.131 53.8994 125.131 52.4561C125.131 51.3769 125.281 50.4083 125.58 49.5501C125.879 48.679 126.308 47.9378 126.867 47.3267C127.439 46.7026 128.135 46.228 128.954 45.903C129.786 45.5779 130.722 45.4154 131.762 45.4154C132.529 45.4154 133.264 45.5194 133.966 45.7275C134.681 45.9355 135.299 46.2345 135.819 46.6246C136.04 46.7676 136.183 46.9432 136.248 47.1512C136.326 47.3462 136.339 47.5348 136.287 47.7168C136.248 47.8988 136.164 48.0549 136.034 48.1849C135.904 48.3019 135.735 48.3669 135.527 48.3799C135.331 48.3929 135.117 48.3214 134.883 48.1654C134.454 47.8403 133.979 47.5998 133.459 47.4438C132.939 47.2877 132.393 47.2097 131.821 47.2097C130.833 47.2097 130.001 47.4177 129.324 47.8338C128.648 48.2369 128.135 48.8285 127.784 49.6086C127.433 50.3888 127.257 51.3379 127.257 52.4561C127.257 53.5743 127.433 54.53 127.784 55.3231C128.135 56.1033 128.648 56.7014 129.324 57.1174C130.001 57.5205 130.833 57.722 131.821 57.722C132.393 57.722 132.939 57.644 133.459 57.488C133.992 57.319 134.493 57.0719 134.961 56.7469C135.195 56.6038 135.403 56.5388 135.585 56.5518C135.78 56.5648 135.943 56.6298 136.073 56.7469C136.203 56.8639 136.287 57.0134 136.326 57.1954C136.378 57.3645 136.372 57.5465 136.307 57.7415C136.255 57.9236 136.131 58.0796 135.936 58.2096C135.403 58.6387 134.772 58.9638 134.044 59.1848C133.316 59.4058 132.555 59.5164 131.762 59.5164ZM142.014 59.5164C141.052 59.5164 140.22 59.3148 139.517 58.9117C138.828 58.5087 138.289 57.9366 137.899 57.1954C137.509 56.4543 137.314 55.5832 137.314 54.582C137.314 53.8149 137.424 53.1322 137.645 52.5341C137.866 51.936 138.178 51.4224 138.581 50.9934C138.997 50.5513 139.491 50.2197 140.063 49.9987C140.649 49.7647 141.299 49.6476 142.014 49.6476C142.963 49.6476 143.782 49.8492 144.471 50.2522C145.173 50.6553 145.719 51.2274 146.11 51.9685C146.5 52.6967 146.695 53.5678 146.695 54.582C146.695 55.3361 146.584 56.0187 146.363 56.6298C146.142 57.241 145.823 57.761 145.407 58.1901C145.004 58.6192 144.51 58.9508 143.925 59.1848C143.353 59.4058 142.716 59.5164 142.014 59.5164ZM142.014 57.9951C142.547 57.9951 143.015 57.8651 143.418 57.605C143.821 57.345 144.133 56.9614 144.354 56.4543C144.588 55.9472 144.705 55.3231 144.705 54.582C144.705 53.4638 144.458 52.6187 143.964 52.0466C143.47 51.4745 142.82 51.1884 142.014 51.1884C141.468 51.1884 140.993 51.3184 140.59 51.5785C140.187 51.8255 139.868 52.2026 139.634 52.7097C139.413 53.2168 139.303 53.8409 139.303 54.582C139.303 55.6872 139.55 56.5323 140.044 57.1174C140.538 57.7025 141.195 57.9951 142.014 57.9951ZM149.921 59.4773C149.609 59.4773 149.368 59.3928 149.199 59.2238C149.03 59.0418 148.946 58.7947 148.946 58.4827V50.6813C148.946 50.3563 149.03 50.1092 149.199 49.9402C149.368 49.7712 149.603 49.6866 149.902 49.6866C150.214 49.6866 150.448 49.7712 150.604 49.9402C150.773 50.1092 150.857 50.3563 150.857 50.6813V52.2806L150.643 51.8515C150.903 51.1624 151.306 50.6228 151.852 50.2327C152.398 49.8427 153.055 49.6476 153.822 49.6476C154.615 49.6476 155.258 49.8362 155.753 50.2132C156.247 50.5903 156.585 51.1689 156.767 51.949H156.494C156.741 51.2339 157.163 50.6748 157.761 50.2717C158.36 49.8557 159.055 49.6476 159.848 49.6476C160.576 49.6476 161.175 49.7907 161.643 50.0767C162.111 50.3498 162.462 50.7723 162.696 51.3444C162.93 51.9035 163.047 52.6122 163.047 53.4703V58.4827C163.047 58.7947 162.956 59.0418 162.774 59.2238C162.605 59.3928 162.364 59.4773 162.052 59.4773C161.74 59.4773 161.5 59.3928 161.331 59.2238C161.162 59.0418 161.077 58.7947 161.077 58.4827V53.5678C161.077 52.7617 160.934 52.1701 160.648 51.793C160.375 51.4159 159.92 51.2274 159.283 51.2274C158.568 51.2274 158.002 51.4745 157.586 51.9685C157.17 52.4626 156.962 53.1452 156.962 54.0164V58.4827C156.962 58.7947 156.877 59.0418 156.708 59.2238C156.539 59.3928 156.299 59.4773 155.987 59.4773C155.675 59.4773 155.428 59.3928 155.245 59.2238C155.076 59.0418 154.992 58.7947 154.992 58.4827V53.5678C154.992 52.7617 154.855 52.1701 154.582 51.793C154.309 51.4159 153.854 51.2274 153.217 51.2274C152.502 51.2274 151.936 51.4745 151.52 51.9685C151.117 52.4626 150.916 53.1452 150.916 54.0164V58.4827C150.916 59.1458 150.584 59.4773 149.921 59.4773ZM170.267 59.5164C169.227 59.5164 168.33 59.3213 167.576 58.9312C166.835 58.5282 166.256 57.9626 165.84 57.2345C165.437 56.4933 165.235 55.6157 165.235 54.6015C165.235 53.6133 165.437 52.7487 165.84 52.0075C166.243 51.2664 166.796 50.6878 167.498 50.2717C168.2 49.8557 168.999 49.6476 169.897 49.6476C170.56 49.6476 171.151 49.7582 171.671 49.9792C172.192 50.1872 172.634 50.4993 172.998 50.9154C173.375 51.3184 173.654 51.8125 173.836 52.3976C174.031 52.9827 174.129 53.6393 174.129 54.3675C174.129 54.5885 174.064 54.7575 173.934 54.8745C173.804 54.9786 173.609 55.0306 173.349 55.0306H166.796V53.8214H172.803L172.471 54.0944C172.471 53.4443 172.374 52.8917 172.179 52.4366C171.997 51.9815 171.717 51.637 171.34 51.4029C170.976 51.1559 170.521 51.0324 169.975 51.0324C169.364 51.0324 168.843 51.1754 168.414 51.4615C167.998 51.7475 167.68 52.1441 167.459 52.6512C167.238 53.1582 167.127 53.7498 167.127 54.426V54.543C167.127 55.6872 167.394 56.5518 167.927 57.1369C168.473 57.709 169.26 57.9951 170.287 57.9951C170.677 57.9951 171.086 57.9431 171.515 57.8391C171.958 57.735 172.374 57.5595 172.764 57.3125C172.985 57.1824 173.18 57.1239 173.349 57.1369C173.531 57.1499 173.674 57.2084 173.778 57.3125C173.895 57.4165 173.966 57.5465 173.992 57.7025C174.018 57.8586 173.992 58.0211 173.914 58.1901C173.836 58.3461 173.7 58.4892 173.505 58.6192C173.063 58.9182 172.549 59.1458 171.964 59.3018C171.379 59.4448 170.813 59.5164 170.267 59.5164ZM177.252 59.4773C176.94 59.4773 176.699 59.3928 176.53 59.2238C176.361 59.0418 176.276 58.7947 176.276 58.4827V50.6813C176.276 50.3563 176.361 50.1092 176.53 49.9402C176.699 49.7712 176.933 49.6866 177.232 49.6866C177.544 49.6866 177.778 49.7712 177.934 49.9402C178.103 50.1092 178.188 50.3563 178.188 50.6813V52.2026L177.973 51.8515C178.259 51.1234 178.708 50.5773 179.319 50.2132C179.93 49.8362 180.632 49.6476 181.425 49.6476C182.179 49.6476 182.804 49.7907 183.298 50.0767C183.805 50.3498 184.182 50.7723 184.429 51.3444C184.676 51.9035 184.799 52.6122 184.799 53.4703V58.4827C184.799 58.7947 184.715 59.0418 184.546 59.2238C184.377 59.3928 184.136 59.4773 183.824 59.4773C183.499 59.4773 183.252 59.3928 183.083 59.2238C182.914 59.0418 182.83 58.7947 182.83 58.4827V53.5873C182.83 52.7682 182.667 52.1701 182.342 51.793C182.03 51.4159 181.536 51.2274 180.86 51.2274C180.067 51.2274 179.429 51.4745 178.948 51.9685C178.48 52.4626 178.246 53.1257 178.246 53.9579V58.4827C178.246 59.1458 177.915 59.4773 177.252 59.4773ZM191.57 59.5164C190.79 59.5164 190.134 59.3798 189.601 59.1068C189.067 58.8337 188.671 58.4307 188.411 57.8976C188.151 57.3645 188.021 56.7144 188.021 55.9472V51.3444H186.851C186.591 51.3444 186.389 51.2794 186.246 51.1494C186.103 51.0064 186.031 50.8178 186.031 50.5838C186.031 50.3368 186.103 50.1482 186.246 50.0182C186.389 49.8882 186.591 49.8232 186.851 49.8232H188.021V47.8143C188.021 47.4893 188.105 47.2422 188.274 47.0732C188.456 46.9042 188.703 46.8196 189.015 46.8196C189.328 46.8196 189.568 46.9042 189.737 47.0732C189.906 47.2422 189.991 47.4893 189.991 47.8143V49.8232H192.273C192.533 49.8232 192.734 49.8882 192.877 50.0182C193.02 50.1482 193.092 50.3368 193.092 50.5838C193.092 50.8178 193.02 51.0064 192.877 51.1494C192.734 51.2794 192.533 51.3444 192.273 51.3444H189.991V55.7912C189.991 56.4803 190.134 57.0004 190.42 57.3515C190.719 57.7025 191.2 57.8781 191.863 57.8781C192.097 57.8781 192.299 57.8586 192.468 57.8196C192.65 57.7675 192.799 57.735 192.916 57.722C193.059 57.722 193.176 57.774 193.267 57.8781C193.358 57.9691 193.404 58.1511 193.404 58.4242C193.404 58.6192 193.365 58.8012 193.287 58.9703C193.222 59.1393 193.098 59.2498 192.916 59.3018C192.76 59.3538 192.546 59.3993 192.273 59.4383C192.012 59.4903 191.778 59.5164 191.57 59.5164ZM197.68 59.5164C197.016 59.5164 196.418 59.3863 195.885 59.1263C195.365 58.8662 194.956 58.5152 194.657 58.0731C194.357 57.631 194.208 57.1304 194.208 56.5713C194.208 55.8692 194.383 55.3166 194.735 54.9136C195.099 54.4975 195.69 54.2049 196.509 54.0359C197.341 53.8539 198.46 53.7629 199.864 53.7629H200.781V54.9721H199.883C198.947 54.9721 198.206 55.0176 197.66 55.1086C197.114 55.1996 196.724 55.3556 196.49 55.5767C196.269 55.7847 196.158 56.0773 196.158 56.4543C196.158 56.9484 196.327 57.3515 196.665 57.6635C197.003 57.9626 197.471 58.1121 198.07 58.1121C198.551 58.1121 198.973 58.0016 199.337 57.7805C199.701 57.5465 199.987 57.2345 200.195 56.8444C200.417 56.4543 200.527 56.0057 200.527 55.4987V53.2558C200.527 52.5146 200.371 51.9815 200.059 51.6565C199.747 51.3314 199.233 51.1689 198.518 51.1689C198.102 51.1689 197.667 51.2209 197.211 51.3249C196.769 51.4289 196.308 51.6045 195.827 51.8515C195.606 51.9555 195.417 51.988 195.261 51.949C195.105 51.91 194.982 51.8255 194.891 51.6955C194.8 51.5525 194.748 51.4029 194.735 51.2469C194.735 51.0779 194.774 50.9154 194.852 50.7593C194.943 50.6033 195.092 50.4863 195.3 50.4083C195.872 50.1352 196.438 49.9402 196.997 49.8232C197.556 49.7061 198.083 49.6476 198.577 49.6476C199.448 49.6476 200.163 49.7842 200.722 50.0572C201.294 50.3303 201.717 50.7463 201.99 51.3054C202.263 51.8645 202.399 52.5861 202.399 53.4703V58.4827C202.399 58.7947 202.321 59.0418 202.165 59.2238C202.009 59.3928 201.782 59.4773 201.483 59.4773C201.197 59.4773 200.969 59.3928 200.8 59.2238C200.631 59.0418 200.547 58.7947 200.547 58.4827V57.215H200.722C200.618 57.696 200.423 58.1121 200.137 58.4632C199.864 58.8012 199.519 59.0613 199.103 59.2433C198.687 59.4253 198.213 59.5164 197.68 59.5164ZM206.107 59.4773C205.782 59.4773 205.535 59.3928 205.366 59.2238C205.197 59.0418 205.112 58.7947 205.112 58.4827V50.6813C205.112 50.3563 205.197 50.1092 205.366 49.9402C205.535 49.7712 205.769 49.6866 206.068 49.6866C206.38 49.6866 206.614 49.7712 206.77 49.9402C206.939 50.1092 207.024 50.3563 207.024 50.6813V52.1051H206.829C207.037 51.3249 207.42 50.7333 207.979 50.3303C208.539 49.9272 209.254 49.6931 210.125 49.6281C210.359 49.6151 210.541 49.6736 210.671 49.8037C210.814 49.9337 210.892 50.1352 210.905 50.4083C210.931 50.6813 210.872 50.9024 210.729 51.0714C210.586 51.2274 210.365 51.3184 210.066 51.3444L209.696 51.3834C208.851 51.4615 208.207 51.728 207.765 52.1831C207.323 52.6382 207.102 53.2623 207.102 54.0554V58.4827C207.102 58.7947 207.017 59.0418 206.848 59.2238C206.692 59.3928 206.445 59.4773 206.107 59.4773ZM213.363 59.4578C213.051 59.4578 212.811 59.3668 212.642 59.1848C212.473 58.9898 212.388 58.7232 212.388 58.3852V50.7788C212.388 50.4408 212.473 50.1807 212.642 49.9987C212.811 49.8167 213.051 49.7256 213.363 49.7256C213.675 49.7256 213.916 49.8167 214.085 49.9987C214.267 50.1807 214.358 50.4408 214.358 50.7788V58.3852C214.358 58.7232 214.273 58.9898 214.104 59.1848C213.935 59.3668 213.688 59.4578 213.363 59.4578ZM213.363 47.6973C212.973 47.6973 212.668 47.5998 212.447 47.4047C212.239 47.2097 212.135 46.9367 212.135 46.5856C212.135 46.2215 212.239 45.9485 212.447 45.7665C212.668 45.5714 212.973 45.4739 213.363 45.4739C213.753 45.4739 214.052 45.5714 214.26 45.7665C214.481 45.9485 214.592 46.2215 214.592 46.5856C214.592 46.9367 214.481 47.2097 214.26 47.4047C214.052 47.5998 213.753 47.6973 213.363 47.6973ZM221.265 59.5164C220.303 59.5164 219.471 59.3148 218.769 58.9117C218.08 58.5087 217.54 57.9366 217.15 57.1954C216.76 56.4543 216.565 55.5832 216.565 54.582C216.565 53.8149 216.676 53.1322 216.897 52.5341C217.118 51.936 217.43 51.4224 217.833 50.9934C218.249 50.5513 218.743 50.2197 219.315 49.9987C219.9 49.7647 220.55 49.6476 221.265 49.6476C222.215 49.6476 223.034 49.8492 223.723 50.2522C224.425 50.6553 224.971 51.2274 225.361 51.9685C225.751 52.6967 225.946 53.5678 225.946 54.582C225.946 55.3361 225.836 56.0187 225.615 56.6298C225.394 57.241 225.075 57.761 224.659 58.1901C224.256 58.6192 223.762 58.9508 223.177 59.1848C222.605 59.4058 221.967 59.5164 221.265 59.5164ZM221.265 57.9951C221.798 57.9951 222.267 57.8651 222.67 57.605C223.073 57.345 223.385 56.9614 223.606 56.4543C223.84 55.9472 223.957 55.3231 223.957 54.582C223.957 53.4638 223.71 52.6187 223.216 52.0466C222.722 51.4745 222.072 51.1884 221.265 51.1884C220.719 51.1884 220.245 51.3184 219.842 51.5785C219.439 51.8255 219.12 52.2026 218.886 52.7097C218.665 53.2168 218.554 53.8409 218.554 54.582C218.554 55.6872 218.801 56.5323 219.296 57.1174C219.79 57.7025 220.446 57.9951 221.265 57.9951ZM231.494 59.5164C230.921 59.5164 230.33 59.4513 229.719 59.3213C229.121 59.1913 228.568 58.9703 228.061 58.6582C227.892 58.5412 227.775 58.4112 227.71 58.2681C227.645 58.1251 227.619 57.9821 227.632 57.8391C227.658 57.683 227.716 57.553 227.807 57.449C227.911 57.332 228.035 57.2605 228.178 57.2345C228.334 57.2084 228.497 57.241 228.666 57.332C229.173 57.618 229.66 57.8196 230.128 57.9366C230.596 58.0406 231.058 58.0926 231.513 58.0926C232.202 58.0926 232.722 57.9691 233.073 57.722C233.424 57.475 233.6 57.1434 233.6 56.7274C233.6 56.3893 233.483 56.1293 233.249 55.9472C233.015 55.7522 232.664 55.6027 232.196 55.4987L230.343 55.1281C229.537 54.9591 228.926 54.66 228.51 54.2309C228.093 53.8019 227.885 53.2558 227.885 52.5926C227.885 51.9945 228.048 51.4745 228.373 51.0324C228.698 50.5903 229.153 50.2522 229.738 50.0182C230.323 49.7712 230.999 49.6476 231.767 49.6476C232.339 49.6476 232.878 49.7191 233.385 49.8622C233.892 50.0052 234.361 50.2197 234.79 50.5058C234.959 50.5968 235.069 50.7203 235.121 50.8763C235.173 51.0194 235.18 51.1624 235.141 51.3054C235.115 51.4484 235.05 51.5785 234.946 51.6955C234.842 51.7995 234.712 51.8645 234.556 51.8905C234.413 51.9035 234.25 51.8645 234.068 51.7735C233.678 51.5265 233.288 51.3509 232.898 51.2469C232.521 51.1429 232.144 51.0909 231.767 51.0909C231.077 51.0909 230.557 51.2209 230.206 51.481C229.868 51.728 229.699 52.0661 229.699 52.4951C229.699 52.8202 229.803 53.0867 230.011 53.2948C230.219 53.5028 230.544 53.6523 230.986 53.7433L232.839 54.1139C233.684 54.2829 234.322 54.569 234.751 54.9721C235.193 55.3751 235.414 55.9212 235.414 56.6103C235.414 57.5075 235.056 58.2161 234.341 58.7362C233.626 59.2563 232.677 59.5164 231.494 59.5164ZM245.79 59.5164C245.127 59.5164 244.529 59.3863 243.996 59.1263C243.476 58.8662 243.066 58.5152 242.767 58.0731C242.468 57.631 242.319 57.1304 242.319 56.5713C242.319 55.8692 242.494 55.3166 242.845 54.9136C243.209 54.4975 243.801 54.2049 244.62 54.0359C245.452 53.8539 246.571 53.7629 247.975 53.7629H248.891V54.9721H247.994C247.058 54.9721 246.317 55.0176 245.771 55.1086C245.225 55.1996 244.835 55.3556 244.601 55.5767C244.38 55.7847 244.269 56.0773 244.269 56.4543C244.269 56.9484 244.438 57.3515 244.776 57.6635C245.114 57.9626 245.582 58.1121 246.18 58.1121C246.662 58.1121 247.084 58.0016 247.448 57.7805C247.812 57.5465 248.098 57.2345 248.306 56.8444C248.527 56.4543 248.638 56.0057 248.638 55.4987V53.2558C248.638 52.5146 248.482 51.9815 248.17 51.6565C247.858 51.3314 247.344 51.1689 246.629 51.1689C246.213 51.1689 245.777 51.2209 245.322 51.3249C244.88 51.4289 244.419 51.6045 243.938 51.8515C243.717 51.9555 243.528 51.988 243.372 51.949C243.216 51.91 243.092 51.8255 243.001 51.6955C242.91 51.5525 242.858 51.4029 242.845 51.2469C242.845 51.0779 242.884 50.9154 242.962 50.7593C243.053 50.6033 243.203 50.4863 243.411 50.4083C243.983 50.1352 244.549 49.9402 245.108 49.8232C245.667 49.7061 246.193 49.6476 246.688 49.6476C247.559 49.6476 248.274 49.7842 248.833 50.0572C249.405 50.3303 249.828 50.7463 250.101 51.3054C250.374 51.8645 250.51 52.5861 250.51 53.4703V58.4827C250.51 58.7947 250.432 59.0418 250.276 59.2238C250.12 59.3928 249.893 59.4773 249.594 59.4773C249.308 59.4773 249.08 59.3928 248.911 59.2238C248.742 59.0418 248.657 58.7947 248.657 58.4827V57.215H248.833C248.729 57.696 248.534 58.1121 248.248 58.4632C247.975 58.8012 247.63 59.0613 247.214 59.2433C246.798 59.4253 246.324 59.5164 245.79 59.5164ZM256.851 59.5164C256.019 59.5164 255.284 59.3213 254.647 58.9312C254.023 58.5282 253.535 57.9561 253.184 57.215C252.833 56.4608 252.658 55.5832 252.658 54.582C252.658 53.5548 252.833 52.6772 253.184 51.949C253.535 51.2209 254.023 50.6553 254.647 50.2522C255.284 49.8492 256.019 49.6476 256.851 49.6476C257.683 49.6476 258.398 49.8557 258.996 50.2717C259.607 50.6748 260.017 51.2209 260.225 51.91H260.011V46.4491C260.011 46.124 260.095 45.877 260.264 45.708C260.433 45.5389 260.674 45.4544 260.986 45.4544C261.298 45.4544 261.538 45.5389 261.707 45.708C261.889 45.877 261.98 46.124 261.98 46.4491V58.4827C261.98 58.7947 261.896 59.0418 261.727 59.2238C261.558 59.3928 261.317 59.4773 261.005 59.4773C260.693 59.4773 260.453 59.3928 260.284 59.2238C260.115 59.0418 260.03 58.7947 260.03 58.4827V56.7664L260.245 57.1954C260.037 57.8976 259.627 58.4632 259.016 58.8922C258.418 59.3083 257.696 59.5164 256.851 59.5164ZM257.358 57.9951C257.891 57.9951 258.359 57.8651 258.762 57.605C259.165 57.345 259.477 56.9614 259.698 56.4543C259.933 55.9472 260.05 55.3231 260.05 54.582C260.05 53.4638 259.802 52.6187 259.308 52.0466C258.814 51.4745 258.164 51.1884 257.358 51.1884C256.812 51.1884 256.337 51.3184 255.934 51.5785C255.531 51.8255 255.213 52.2026 254.979 52.7097C254.758 53.2168 254.647 53.8409 254.647 54.582C254.647 55.6872 254.894 56.5323 255.388 57.1174C255.882 57.7025 256.539 57.9951 257.358 57.9951ZM265.722 59.4578C265.409 59.4578 265.169 59.3668 265 59.1848C264.831 58.9898 264.746 58.7232 264.746 58.3852V50.7788C264.746 50.4408 264.831 50.1807 265 49.9987C265.169 49.8167 265.409 49.7256 265.722 49.7256C266.034 49.7256 266.274 49.8167 266.443 49.9987C266.625 50.1807 266.716 50.4408 266.716 50.7788V58.3852C266.716 58.7232 266.632 58.9898 266.463 59.1848C266.294 59.3668 266.047 59.4578 265.722 59.4578ZM265.722 47.6973C265.331 47.6973 265.026 47.5998 264.805 47.4047C264.597 47.2097 264.493 46.9367 264.493 46.5856C264.493 46.2215 264.597 45.9485 264.805 45.7665C265.026 45.5714 265.331 45.4739 265.722 45.4739C266.112 45.4739 266.411 45.5714 266.619 45.7665C266.84 45.9485 266.95 46.2215 266.95 46.5856C266.95 46.9367 266.84 47.2097 266.619 47.4047C266.411 47.5998 266.112 47.6973 265.722 47.6973ZM273.682 59.5164C272.707 59.5164 271.862 59.3148 271.147 58.9117C270.445 58.4957 269.898 57.9171 269.508 57.1759C269.118 56.4218 268.923 55.5377 268.923 54.5235C268.923 53.7694 269.034 53.0932 269.255 52.4951C269.476 51.884 269.788 51.3704 270.191 50.9544C270.607 50.5383 271.108 50.2197 271.693 49.9987C272.291 49.7647 272.954 49.6476 273.682 49.6476C274.137 49.6476 274.612 49.7191 275.106 49.8622C275.613 49.9922 276.081 50.2132 276.51 50.5253C276.679 50.6293 276.783 50.7593 276.822 50.9154C276.874 51.0584 276.881 51.2079 276.842 51.3639C276.816 51.52 276.744 51.6565 276.627 51.7735C276.523 51.8775 276.393 51.9425 276.237 51.9685C276.081 51.9815 275.912 51.936 275.73 51.832C275.418 51.611 275.099 51.455 274.774 51.3639C274.449 51.2599 274.137 51.2079 273.838 51.2079C273.37 51.2079 272.954 51.2859 272.59 51.4419C272.239 51.585 271.94 51.7995 271.693 52.0856C271.446 52.3586 271.257 52.7032 271.127 53.1192C271.01 53.5353 270.952 54.0099 270.952 54.543C270.952 55.6092 271.199 56.4478 271.693 57.0589C272.2 57.657 272.915 57.9561 273.838 57.9561C274.137 57.9561 274.449 57.9106 274.774 57.8196C275.099 57.7285 275.418 57.5725 275.73 57.3515C275.912 57.2475 276.081 57.2084 276.237 57.2345C276.393 57.2605 276.517 57.332 276.608 57.449C276.712 57.553 276.777 57.683 276.803 57.8391C276.842 57.9821 276.835 58.1316 276.783 58.2876C276.731 58.4437 276.621 58.5737 276.452 58.6777C276.036 58.9768 275.58 59.1913 275.086 59.3213C274.605 59.4513 274.137 59.5164 273.682 59.5164ZM279.568 59.4578C279.256 59.4578 279.016 59.3668 278.847 59.1848C278.678 58.9898 278.593 58.7232 278.593 58.3852V50.7788C278.593 50.4408 278.678 50.1807 278.847 49.9987C279.016 49.8167 279.256 49.7256 279.568 49.7256C279.88 49.7256 280.121 49.8167 280.29 49.9987C280.472 50.1807 280.563 50.4408 280.563 50.7788V58.3852C280.563 58.7232 280.478 58.9898 280.309 59.1848C280.14 59.3668 279.893 59.4578 279.568 59.4578ZM279.568 47.6973C279.178 47.6973 278.873 47.5998 278.652 47.4047C278.443 47.2097 278.339 46.9367 278.339 46.5856C278.339 46.2215 278.443 45.9485 278.652 45.7665C278.873 45.5714 279.178 45.4739 279.568 45.4739C279.958 45.4739 280.257 45.5714 280.465 45.7665C280.686 45.9485 280.797 46.2215 280.797 46.5856C280.797 46.9367 280.686 47.2097 280.465 47.4047C280.257 47.5998 279.958 47.6973 279.568 47.6973ZM287.47 59.5164C286.508 59.5164 285.676 59.3148 284.974 58.9117C284.285 58.5087 283.745 57.9366 283.355 57.1954C282.965 56.4543 282.77 55.5832 282.77 54.582C282.77 53.8149 282.88 53.1322 283.101 52.5341C283.323 51.936 283.635 51.4224 284.038 50.9934C284.454 50.5513 284.948 50.2197 285.52 49.9987C286.105 49.7647 286.755 49.6476 287.47 49.6476C288.419 49.6476 289.239 49.8492 289.928 50.2522C290.63 50.6553 291.176 51.2274 291.566 51.9685C291.956 52.6967 292.151 53.5678 292.151 54.582C292.151 55.3361 292.041 56.0187 291.819 56.6298C291.598 57.241 291.28 57.761 290.864 58.1901C290.461 58.6192 289.967 58.9508 289.382 59.1848C288.809 59.4058 288.172 59.5164 287.47 59.5164ZM287.47 57.9951C288.003 57.9951 288.471 57.8651 288.874 57.605C289.278 57.345 289.59 56.9614 289.811 56.4543C290.045 55.9472 290.162 55.3231 290.162 54.582C290.162 53.4638 289.915 52.6187 289.421 52.0466C288.926 51.4745 288.276 51.1884 287.47 51.1884C286.924 51.1884 286.45 51.3184 286.046 51.5785C285.643 51.8255 285.325 52.2026 285.091 52.7097C284.87 53.2168 284.759 53.8409 284.759 54.582C284.759 55.6872 285.006 56.5323 285.5 57.1174C285.994 57.7025 286.651 57.9951 287.47 57.9951ZM295.338 59.4773C295.026 59.4773 294.786 59.3928 294.617 59.2238C294.448 59.0418 294.363 58.7947 294.363 58.4827V50.6813C294.363 50.3563 294.448 50.1092 294.617 49.9402C294.786 49.7712 295.02 49.6866 295.319 49.6866C295.631 49.6866 295.865 49.7712 296.021 49.9402C296.19 50.1092 296.275 50.3563 296.275 50.6813V52.2026L296.06 51.8515C296.346 51.1234 296.795 50.5773 297.406 50.2132C298.017 49.8362 298.719 49.6476 299.512 49.6476C300.266 49.6476 300.89 49.7907 301.385 50.0767C301.892 50.3498 302.269 50.7723 302.516 51.3444C302.763 51.9035 302.886 52.6122 302.886 53.4703V58.4827C302.886 58.7947 302.802 59.0418 302.633 59.2238C302.464 59.3928 302.223 59.4773 301.911 59.4773C301.586 59.4773 301.339 59.3928 301.17 59.2238C301.001 59.0418 300.916 58.7947 300.916 58.4827V53.5873C300.916 52.7682 300.754 52.1701 300.429 51.793C300.117 51.4159 299.623 51.2274 298.947 51.2274C298.153 51.2274 297.516 51.4745 297.035 51.9685C296.567 52.4626 296.333 53.1257 296.333 53.9579V58.4827C296.333 59.1458 296.002 59.4773 295.338 59.4773ZM308.643 59.5164C307.98 59.5164 307.382 59.3863 306.849 59.1263C306.329 58.8662 305.919 58.5152 305.62 58.0731C305.321 57.631 305.172 57.1304 305.172 56.5713C305.172 55.8692 305.347 55.3166 305.698 54.9136C306.062 54.4975 306.654 54.2049 307.473 54.0359C308.305 53.8539 309.423 53.7629 310.828 53.7629H311.744V54.9721H310.847C309.911 54.9721 309.17 55.0176 308.624 55.1086C308.078 55.1996 307.687 55.3556 307.453 55.5767C307.232 55.7847 307.122 56.0773 307.122 56.4543C307.122 56.9484 307.291 57.3515 307.629 57.6635C307.967 57.9626 308.435 58.1121 309.033 58.1121C309.514 58.1121 309.937 58.0016 310.301 57.7805C310.665 57.5465 310.951 57.2345 311.159 56.8444C311.38 56.4543 311.491 56.0057 311.491 55.4987V53.2558C311.491 52.5146 311.335 51.9815 311.023 51.6565C310.71 51.3314 310.197 51.1689 309.482 51.1689C309.066 51.1689 308.63 51.2209 308.175 51.3249C307.733 51.4289 307.271 51.6045 306.79 51.8515C306.569 51.9555 306.381 51.988 306.225 51.949C306.069 51.91 305.945 51.8255 305.854 51.6955C305.763 51.5525 305.711 51.4029 305.698 51.2469C305.698 51.0779 305.737 50.9154 305.815 50.7593C305.906 50.6033 306.056 50.4863 306.264 50.4083C306.836 50.1352 307.401 49.9402 307.961 49.8232C308.52 49.7061 309.046 49.6476 309.54 49.6476C310.411 49.6476 311.127 49.7842 311.686 50.0572C312.258 50.3303 312.68 50.7463 312.953 51.3054C313.226 51.8645 313.363 52.5861 313.363 53.4703V58.4827C313.363 58.7947 313.285 59.0418 313.129 59.2238C312.973 59.3928 312.745 59.4773 312.446 59.4773C312.16 59.4773 311.933 59.3928 311.764 59.2238C311.595 59.0418 311.51 58.7947 311.51 58.4827V57.215H311.686C311.582 57.696 311.387 58.1121 311.101 58.4632C310.828 58.8012 310.483 59.0613 310.067 59.2433C309.651 59.4253 309.176 59.5164 308.643 59.5164ZM319.138 59.5164C318.124 59.5164 317.357 59.2238 316.837 58.6387C316.33 58.0406 316.076 57.1824 316.076 56.0643V46.4491C316.076 46.124 316.161 45.877 316.33 45.708C316.499 45.5389 316.739 45.4544 317.051 45.4544C317.363 45.4544 317.604 45.5389 317.773 45.708C317.955 45.877 318.046 46.124 318.046 46.4491V55.9472C318.046 56.5973 318.176 57.0849 318.436 57.41C318.709 57.722 319.099 57.8781 319.606 57.8781C319.723 57.8781 319.827 57.8781 319.918 57.8781C320.009 57.8651 320.1 57.8521 320.191 57.8391C320.347 57.8261 320.458 57.8716 320.523 57.9756C320.588 58.0666 320.62 58.2616 320.62 58.5607C320.62 58.8337 320.562 59.0483 320.445 59.2043C320.328 59.3473 320.139 59.4383 319.879 59.4773C319.762 59.4903 319.639 59.4968 319.509 59.4968C319.379 59.5098 319.255 59.5164 319.138 59.5164ZM326.409 59.5164C325.368 59.5164 324.471 59.3213 323.717 58.9312C322.976 58.5282 322.397 57.9626 321.981 57.2345C321.578 56.4933 321.377 55.6157 321.377 54.6015C321.377 53.6133 321.578 52.7487 321.981 52.0075C322.384 51.2664 322.937 50.6878 323.639 50.2717C324.341 49.8557 325.141 49.6476 326.038 49.6476C326.701 49.6476 327.293 49.7582 327.813 49.9792C328.333 50.1872 328.775 50.4993 329.139 50.9154C329.516 51.3184 329.796 51.8125 329.978 52.3976C330.173 52.9827 330.27 53.6393 330.27 54.3675C330.27 54.5885 330.205 54.7575 330.075 54.8745C329.945 54.9786 329.75 55.0306 329.49 55.0306H322.937V53.8214H328.944L328.612 54.0944C328.612 53.4443 328.515 52.8917 328.32 52.4366C328.138 51.9815 327.858 51.637 327.481 51.4029C327.117 51.1559 326.662 51.0324 326.116 51.0324C325.505 51.0324 324.985 51.1754 324.556 51.4615C324.14 51.7475 323.821 52.1441 323.6 52.6512C323.379 53.1582 323.269 53.7498 323.269 54.426V54.543C323.269 55.6872 323.535 56.5518 324.068 57.1369C324.614 57.709 325.401 57.9951 326.428 57.9951C326.818 57.9951 327.228 57.9431 327.657 57.8391C328.099 57.735 328.515 57.5595 328.905 57.3125C329.126 57.1824 329.321 57.1239 329.49 57.1369C329.672 57.1499 329.815 57.2084 329.919 57.3125C330.036 57.4165 330.108 57.5465 330.134 57.7025C330.16 57.8586 330.134 58.0211 330.056 58.1901C329.978 58.3461 329.841 58.4892 329.646 58.6192C329.204 58.9182 328.69 59.1458 328.105 59.3018C327.52 59.4448 326.955 59.5164 326.409 59.5164ZM335.753 59.5164C335.181 59.5164 334.589 59.4513 333.978 59.3213C333.38 59.1913 332.827 58.9703 332.32 58.6582C332.151 58.5412 332.034 58.4112 331.969 58.2681C331.904 58.1251 331.878 57.9821 331.891 57.8391C331.917 57.683 331.976 57.553 332.067 57.449C332.171 57.332 332.294 57.2605 332.437 57.2345C332.593 57.2084 332.756 57.241 332.925 57.332C333.432 57.618 333.92 57.8196 334.388 57.9366C334.856 58.0406 335.317 58.0926 335.772 58.0926C336.461 58.0926 336.982 57.9691 337.333 57.722C337.684 57.475 337.859 57.1434 337.859 56.7274C337.859 56.3893 337.742 56.1293 337.508 55.9472C337.274 55.7522 336.923 55.6027 336.455 55.4987L334.602 55.1281C333.796 54.9591 333.185 54.66 332.769 54.2309C332.353 53.8019 332.145 53.2558 332.145 52.5926C332.145 51.9945 332.307 51.4745 332.632 51.0324C332.957 50.5903 333.412 50.2522 333.998 50.0182C334.583 49.7712 335.259 49.6476 336.026 49.6476C336.598 49.6476 337.138 49.7191 337.645 49.8622C338.152 50.0052 338.62 50.2197 339.049 50.5058C339.218 50.5968 339.328 50.7203 339.38 50.8763C339.432 51.0194 339.439 51.1624 339.4 51.3054C339.374 51.4484 339.309 51.5785 339.205 51.6955C339.101 51.7995 338.971 51.8645 338.815 51.8905C338.672 51.9035 338.509 51.8645 338.327 51.7735C337.937 51.5265 337.547 51.3509 337.157 51.2469C336.78 51.1429 336.403 51.0909 336.026 51.0909C335.337 51.0909 334.817 51.2209 334.466 51.481C334.128 51.728 333.959 52.0661 333.959 52.4951C333.959 52.8202 334.063 53.0867 334.271 53.2948C334.479 53.5028 334.804 53.6523 335.246 53.7433L337.099 54.1139C337.944 54.2829 338.581 54.569 339.01 54.9721C339.452 55.3751 339.673 55.9212 339.673 56.6103C339.673 57.5075 339.315 58.2161 338.6 58.7362C337.885 59.2563 336.936 59.5164 335.753 59.5164Z" fill="#101E37"/>
<g clip-path="url(#clip0_3270_17513)">
<rect x="124" y="75.0088" width="480" height="156.027" rx="8.66817" fill="white"/>
<path d="M149.92 103.677H143.029V91.3009H149.92V92.5707H144.468V96.5746H149.607V97.8274H144.468V102.407H149.92V103.677ZM158.453 101.137C158.453 101.73 158.303 102.229 158.004 102.636C157.71 103.036 157.287 103.338 156.734 103.541C156.187 103.744 155.532 103.846 154.77 103.846C154.121 103.846 153.56 103.795 153.086 103.694C152.612 103.592 152.197 103.448 151.841 103.262V101.967C152.22 102.153 152.671 102.322 153.196 102.475C153.721 102.627 154.257 102.703 154.804 102.703C155.606 102.703 156.187 102.573 156.548 102.314C156.909 102.054 157.09 101.702 157.09 101.256C157.09 101.002 157.016 100.779 156.87 100.587C156.729 100.39 156.489 100.2 156.15 100.02C155.812 99.8336 155.343 99.6305 154.745 99.4104C154.152 99.1847 153.639 98.9617 153.204 98.7417C152.775 98.5159 152.442 98.2422 152.205 97.9205C151.974 97.5989 151.858 97.1813 151.858 96.6677C151.858 95.8833 152.174 95.2823 152.806 94.8647C153.444 94.4414 154.279 94.2298 155.312 94.2298C155.871 94.2298 156.393 94.2862 156.878 94.3991C157.369 94.5063 157.826 94.6531 158.249 94.8393L157.775 95.9651C157.392 95.8015 156.982 95.6632 156.548 95.5503C156.113 95.4375 155.67 95.381 155.219 95.381C154.57 95.381 154.071 95.4883 153.721 95.7027C153.376 95.9172 153.204 96.2106 153.204 96.5831C153.204 96.8709 153.283 97.1079 153.441 97.2941C153.605 97.4804 153.865 97.6553 154.22 97.819C154.576 97.9826 155.044 98.1745 155.625 98.3946C156.207 98.609 156.709 98.8319 157.132 99.0633C157.555 99.2891 157.88 99.5656 158.106 99.8929C158.337 100.215 158.453 100.629 158.453 101.137ZM164.429 103.846C163.594 103.846 162.857 103.674 162.22 103.33C161.582 102.985 161.085 102.461 160.73 101.755C160.374 101.05 160.196 100.161 160.196 99.0887C160.196 97.9657 160.383 97.0487 160.755 96.3376C161.133 95.6209 161.652 95.0904 162.313 94.7462C162.973 94.4019 163.723 94.2298 164.564 94.2298C165.027 94.2298 165.473 94.2778 165.902 94.3737C166.336 94.464 166.692 94.5797 166.968 94.7208L166.545 95.8974C166.263 95.7845 165.936 95.683 165.563 95.5927C165.196 95.5024 164.852 95.4572 164.53 95.4572C163.887 95.4572 163.351 95.5955 162.922 95.872C162.499 96.1485 162.18 96.5549 161.966 97.091C161.757 97.6271 161.652 98.2874 161.652 99.0718C161.652 99.8224 161.754 100.463 161.957 100.993C162.166 101.524 162.473 101.93 162.88 102.212C163.292 102.489 163.805 102.627 164.42 102.627C164.911 102.627 165.354 102.576 165.749 102.475C166.144 102.368 166.503 102.243 166.824 102.102V103.355C166.514 103.513 166.167 103.634 165.783 103.719C165.405 103.804 164.954 103.846 164.429 103.846ZM173.241 94.2298C173.427 94.2298 173.622 94.2411 173.825 94.2637C174.028 94.2806 174.209 94.306 174.367 94.3399L174.189 95.6435C174.037 95.604 173.867 95.5729 173.681 95.5503C173.495 95.5278 173.32 95.5165 173.156 95.5165C172.784 95.5165 172.431 95.5927 172.098 95.745C171.771 95.8918 171.483 96.1062 171.235 96.3884C170.986 96.6649 170.792 97.0007 170.651 97.3957C170.51 97.7851 170.439 98.2196 170.439 98.6993V103.677H169.025V94.3991H170.194L170.346 96.109H170.405C170.597 95.7648 170.828 95.4516 171.099 95.1694C171.37 94.8816 171.683 94.6531 172.039 94.4838C172.4 94.3145 172.801 94.2298 173.241 94.2298ZM177.524 94.3991V103.677H176.119V94.3991H177.524ZM176.839 90.9285C177.07 90.9285 177.267 91.0046 177.431 91.157C177.6 91.3037 177.685 91.5351 177.685 91.8511C177.685 92.1615 177.6 92.3929 177.431 92.5453C177.267 92.6976 177.07 92.7738 176.839 92.7738C176.596 92.7738 176.393 92.6976 176.229 92.5453C176.071 92.3929 175.992 92.1615 175.992 91.8511C175.992 91.5351 176.071 91.3037 176.229 91.157C176.393 91.0046 176.596 90.9285 176.839 90.9285ZM181.909 90.5052V93.7981C181.909 94.1762 181.898 94.543 181.875 94.8985C181.858 95.2541 181.844 95.5306 181.833 95.7281H181.909C182.163 95.3105 182.53 94.9578 183.01 94.67C183.489 94.3822 184.102 94.2383 184.846 94.2383C186.009 94.2383 186.935 94.6418 187.623 95.4488C188.317 96.2501 188.664 97.4437 188.664 99.0295C188.664 100.073 188.506 100.954 188.19 101.671C187.874 102.387 187.428 102.929 186.853 103.296C186.277 103.663 185.597 103.846 184.813 103.846C184.079 103.846 183.475 103.711 183.001 103.44C182.533 103.163 182.172 102.827 181.918 102.432H181.808L181.52 103.677H180.504V90.5052H181.909ZM184.618 95.4149C183.946 95.4149 183.413 95.5475 183.018 95.8128C182.623 96.0724 182.338 96.4674 182.163 96.9979C181.994 97.5227 181.909 98.1886 181.909 98.9956V99.0718C181.909 100.24 182.104 101.134 182.493 101.755C182.883 102.37 183.591 102.678 184.618 102.678C185.481 102.678 186.128 102.362 186.556 101.73C186.991 101.098 187.208 100.195 187.208 99.021C187.208 97.8246 186.994 96.9245 186.565 96.3207C186.142 95.7168 185.493 95.4149 184.618 95.4149ZM192.524 103.677H191.119V94.3991H192.524V103.677ZM194.277 90.3952V90.5645C194.164 90.7281 194.008 90.9256 193.811 91.157C193.619 91.3827 193.405 91.6226 193.168 91.8765C192.931 92.1248 192.691 92.3619 192.448 92.5876C192.211 92.8133 191.991 93.008 191.788 93.1717H190.848V92.9685C191.029 92.7541 191.226 92.4973 191.441 92.1982C191.655 91.8935 191.864 91.5831 192.067 91.2671C192.27 90.9454 192.44 90.6547 192.575 90.3952H194.277ZM203.004 102.695C203.235 102.695 203.472 102.675 203.715 102.636C203.958 102.596 204.155 102.548 204.308 102.492V103.584C204.144 103.657 203.915 103.719 203.622 103.77C203.334 103.821 203.052 103.846 202.775 103.846C202.284 103.846 201.839 103.761 201.438 103.592C201.037 103.417 200.716 103.124 200.473 102.712C200.236 102.3 200.117 101.73 200.117 101.002V95.4996H198.797V94.8139L200.126 94.2637L200.685 92.249H201.531V94.3991H204.248V95.4996H201.531V100.959C201.531 101.541 201.664 101.975 201.929 102.263C202.2 102.551 202.558 102.695 203.004 102.695ZM213.848 94.3991V103.677H212.696L212.493 102.373H212.417C212.225 102.695 211.977 102.966 211.672 103.186C211.367 103.406 211.023 103.57 210.639 103.677C210.261 103.79 209.858 103.846 209.429 103.846C208.695 103.846 208.08 103.728 207.584 103.491C207.087 103.254 206.712 102.887 206.458 102.39C206.209 101.893 206.085 101.256 206.085 100.477V94.3991H207.507V100.375C207.507 101.149 207.682 101.727 208.032 102.111C208.382 102.489 208.915 102.678 209.632 102.678C210.321 102.678 210.868 102.548 211.274 102.288C211.686 102.029 211.982 101.648 212.163 101.146C212.344 100.638 212.434 100.017 212.434 99.2834V94.3991H213.848ZM222.821 101.137C222.821 101.73 222.671 102.229 222.372 102.636C222.078 103.036 221.655 103.338 221.102 103.541C220.555 103.744 219.9 103.846 219.138 103.846C218.489 103.846 217.928 103.795 217.454 103.694C216.98 103.592 216.565 103.448 216.209 103.262V101.967C216.587 102.153 217.039 102.322 217.564 102.475C218.089 102.627 218.625 102.703 219.172 102.703C219.973 102.703 220.555 102.573 220.916 102.314C221.277 102.054 221.458 101.702 221.458 101.256C221.458 101.002 221.384 100.779 221.238 100.587C221.096 100.39 220.857 100.2 220.518 100.02C220.179 99.8336 219.711 99.6305 219.113 99.4104C218.52 99.1847 218.007 98.9617 217.572 98.7417C217.143 98.5159 216.81 98.2422 216.573 97.9205C216.342 97.5989 216.226 97.1813 216.226 96.6677C216.226 95.8833 216.542 95.2823 217.174 94.8647C217.812 94.4414 218.647 94.2298 219.68 94.2298C220.239 94.2298 220.761 94.2862 221.246 94.3991C221.737 94.5063 222.194 94.6531 222.617 94.8393L222.143 95.9651C221.76 95.8015 221.35 95.6632 220.916 95.5503C220.481 95.4375 220.038 95.381 219.587 95.381C218.938 95.381 218.438 95.4883 218.089 95.7027C217.744 95.9172 217.572 96.2106 217.572 96.5831C217.572 96.8709 217.651 97.1079 217.809 97.2941C217.973 97.4804 218.232 97.6553 218.588 97.819C218.944 97.9826 219.412 98.1745 219.993 98.3946C220.574 98.609 221.077 98.8319 221.5 99.0633C221.923 99.2891 222.248 99.5656 222.473 99.8929C222.705 100.215 222.821 100.629 222.821 101.137ZM233.3 103.846C232.465 103.846 231.729 103.674 231.091 103.33C230.453 102.985 229.957 102.461 229.601 101.755C229.245 101.05 229.068 100.161 229.068 99.0887C229.068 97.9657 229.254 97.0487 229.626 96.3376C230.005 95.6209 230.524 95.0904 231.184 94.7462C231.844 94.4019 232.595 94.2298 233.436 94.2298C233.898 94.2298 234.344 94.2778 234.773 94.3737C235.208 94.464 235.563 94.5797 235.84 94.7208L235.416 95.8974C235.134 95.7845 234.807 95.683 234.435 95.5927C234.068 95.5024 233.723 95.4572 233.402 95.4572C232.758 95.4572 232.222 95.5955 231.793 95.872C231.37 96.1485 231.051 96.5549 230.837 97.091C230.628 97.6271 230.524 98.2874 230.524 99.0718C230.524 99.8224 230.625 100.463 230.828 100.993C231.037 101.524 231.345 101.93 231.751 102.212C232.163 102.489 232.677 102.627 233.292 102.627C233.783 102.627 234.226 102.576 234.621 102.475C235.016 102.368 235.374 102.243 235.696 102.102V103.355C235.385 103.513 235.038 103.634 234.655 103.719C234.277 103.804 233.825 103.846 233.3 103.846ZM245.896 99.021C245.896 99.7829 245.797 100.463 245.6 101.061C245.402 101.659 245.117 102.164 244.745 102.576C244.372 102.988 243.921 103.304 243.391 103.524C242.866 103.739 242.27 103.846 241.604 103.846C240.984 103.846 240.414 103.739 239.894 103.524C239.381 103.304 238.935 102.988 238.557 102.576C238.185 102.164 237.894 101.659 237.685 101.061C237.482 100.463 237.38 99.7829 237.38 99.021C237.38 98.0052 237.552 97.1418 237.897 96.4307C238.241 95.714 238.732 95.1694 239.37 94.797C240.013 94.4189 240.778 94.2298 241.664 94.2298C242.51 94.2298 243.249 94.4189 243.881 94.797C244.519 95.1751 245.013 95.7225 245.363 96.4392C245.718 97.1502 245.896 98.0108 245.896 99.021ZM238.836 99.021C238.836 99.7659 238.935 100.412 239.133 100.959C239.33 101.507 239.635 101.93 240.047 102.229C240.459 102.528 240.989 102.678 241.638 102.678C242.282 102.678 242.809 102.528 243.221 102.229C243.639 101.93 243.946 101.507 244.144 100.959C244.341 100.412 244.44 99.7659 244.44 99.021C244.44 98.2817 244.341 97.644 244.144 97.1079C243.946 96.5661 243.642 96.1485 243.23 95.8551C242.818 95.5616 242.284 95.4149 241.63 95.4149C240.665 95.4149 239.957 95.7338 239.505 96.3715C239.059 97.0092 238.836 97.8923 238.836 99.021ZM258.399 94.2298C259.42 94.2298 260.191 94.4979 260.71 95.034C261.229 95.5645 261.489 96.4194 261.489 97.5989V103.677H260.1V97.6666C260.1 96.916 259.937 96.3545 259.609 95.9821C259.288 95.604 258.808 95.4149 258.17 95.4149C257.273 95.4149 256.621 95.6745 256.215 96.1937C255.809 96.7129 255.606 97.4775 255.606 98.4877V103.677H254.209V97.6666C254.209 97.1643 254.135 96.7467 253.989 96.4138C253.848 96.0808 253.633 95.8325 253.345 95.6689C253.063 95.4996 252.705 95.4149 252.27 95.4149C251.655 95.4149 251.161 95.5419 250.789 95.7958C250.416 96.0498 250.146 96.4279 249.976 96.9301C249.813 97.4268 249.731 98.0391 249.731 98.7671V103.677H248.326V94.3991H249.46L249.672 95.7112H249.748C249.934 95.3895 250.168 95.1186 250.45 94.8985C250.733 94.6785 251.049 94.512 251.398 94.3991C251.748 94.2862 252.121 94.2298 252.516 94.2298C253.221 94.2298 253.811 94.3624 254.285 94.6277C254.765 94.8873 255.112 95.2851 255.326 95.8212H255.402C255.707 95.2851 256.125 94.8873 256.655 94.6277C257.186 94.3624 257.767 94.2298 258.399 94.2298ZM267.948 94.2298C268.738 94.2298 269.415 94.4047 269.979 94.7546C270.543 95.1045 270.975 95.5955 271.274 96.2275C271.573 96.854 271.723 97.5876 271.723 98.4285V99.3003H265.315C265.332 100.39 265.603 101.219 266.128 101.789C266.652 102.359 267.392 102.644 268.345 102.644C268.932 102.644 269.451 102.59 269.903 102.483C270.354 102.376 270.823 102.218 271.308 102.009V103.245C270.84 103.454 270.374 103.606 269.911 103.702C269.454 103.798 268.913 103.846 268.286 103.846C267.394 103.846 266.616 103.665 265.95 103.304C265.289 102.937 264.776 102.401 264.409 101.696C264.042 100.991 263.859 100.127 263.859 99.1057C263.859 98.1068 264.025 97.2433 264.358 96.5154C264.697 95.7817 265.171 95.2174 265.78 94.8224C266.396 94.4273 267.118 94.2298 267.948 94.2298ZM267.931 95.381C267.18 95.381 266.582 95.6265 266.136 96.1175C265.69 96.6085 265.425 97.2941 265.34 98.1745H270.25C270.244 97.6215 270.157 97.1361 269.988 96.7185C269.824 96.2953 269.573 95.968 269.234 95.7366C268.896 95.4996 268.461 95.381 267.931 95.381ZM278.503 94.2298C279.604 94.2298 280.436 94.5007 281.001 95.0424C281.565 95.5786 281.847 96.442 281.847 97.6327V103.677H280.459V97.7259C280.459 96.9527 280.281 96.3743 279.926 95.9905C279.576 95.6068 279.037 95.4149 278.309 95.4149C277.282 95.4149 276.559 95.7055 276.142 96.2868C275.724 96.8681 275.515 97.7117 275.515 98.8178V103.677H274.11V94.3991H275.244L275.456 95.7366H275.532C275.73 95.4093 275.981 95.1356 276.286 94.9155C276.59 94.6897 276.932 94.5204 277.31 94.4076C277.688 94.2891 278.086 94.2298 278.503 94.2298ZM287.739 102.695C287.97 102.695 288.207 102.675 288.45 102.636C288.692 102.596 288.89 102.548 289.042 102.492V103.584C288.879 103.657 288.65 103.719 288.357 103.77C288.069 103.821 287.787 103.846 287.51 103.846C287.019 103.846 286.573 103.761 286.173 103.592C285.772 103.417 285.45 103.124 285.208 102.712C284.971 102.3 284.852 101.73 284.852 101.002V95.4996H283.532V94.8139L284.861 94.2637L285.419 92.249H286.266V94.3991H288.983V95.4996H286.266V100.959C286.266 101.541 286.398 101.975 286.664 102.263C286.935 102.551 287.293 102.695 287.739 102.695ZM294.392 94.2467C295.498 94.2467 296.319 94.495 296.856 94.9917C297.392 95.4883 297.66 96.2812 297.66 97.3703V103.677H296.635L296.365 102.305H296.297C296.037 102.644 295.766 102.929 295.484 103.16C295.202 103.386 294.875 103.558 294.502 103.677C294.135 103.79 293.684 103.846 293.148 103.846C292.584 103.846 292.081 103.747 291.641 103.55C291.207 103.352 290.862 103.053 290.608 102.652C290.36 102.252 290.236 101.744 290.236 101.129C290.236 100.203 290.603 99.4922 291.336 98.9956C292.07 98.499 293.187 98.2281 294.688 98.183L296.288 98.1152V97.5481C296.288 96.7467 296.116 96.1852 295.772 95.8636C295.428 95.5419 294.942 95.381 294.316 95.381C293.831 95.381 293.368 95.4516 292.928 95.5927C292.488 95.7338 292.07 95.9002 291.675 96.0921L291.243 95.0255C291.661 94.8111 292.141 94.6277 292.682 94.4753C293.224 94.3229 293.794 94.2467 294.392 94.2467ZM296.271 99.1057L294.858 99.1649C293.701 99.2101 292.885 99.3991 292.411 99.7321C291.937 100.065 291.7 100.536 291.7 101.146C291.7 101.676 291.861 102.068 292.183 102.322C292.505 102.576 292.931 102.703 293.461 102.703C294.285 102.703 294.959 102.475 295.484 102.018C296.009 101.561 296.271 100.875 296.271 99.9606V99.1057ZM304.77 94.2298C304.957 94.2298 305.151 94.2411 305.354 94.2637C305.558 94.2806 305.738 94.306 305.896 94.3399L305.718 95.6435C305.566 95.604 305.397 95.5729 305.21 95.5503C305.024 95.5278 304.849 95.5165 304.686 95.5165C304.313 95.5165 303.96 95.5927 303.628 95.745C303.3 95.8918 303.012 96.1062 302.764 96.3884C302.516 96.6649 302.321 97.0007 302.18 97.3957C302.039 97.7851 301.968 98.2196 301.968 98.6993V103.677H300.555V94.3991H301.723L301.875 96.109H301.935C302.126 95.7648 302.358 95.4516 302.629 95.1694C302.9 94.8816 303.213 94.6531 303.568 94.4838C303.929 94.3145 304.33 94.2298 304.77 94.2298ZM309.054 94.3991V103.677H307.648V94.3991H309.054ZM308.368 90.9285C308.599 90.9285 308.797 91.0046 308.96 91.157C309.13 91.3037 309.214 91.5351 309.214 91.8511C309.214 92.1615 309.13 92.3929 308.96 92.5453C308.797 92.6976 308.599 92.7738 308.368 92.7738C308.125 92.7738 307.922 92.6976 307.758 92.5453C307.6 92.3929 307.521 92.1615 307.521 91.8511C307.521 91.5351 307.6 91.3037 307.758 91.157C307.922 91.0046 308.125 90.9285 308.368 90.9285ZM320.033 99.021C320.033 99.7829 319.934 100.463 319.736 101.061C319.539 101.659 319.254 102.164 318.881 102.576C318.509 102.988 318.058 103.304 317.527 103.524C317.002 103.739 316.407 103.846 315.741 103.846C315.12 103.846 314.55 103.739 314.031 103.524C313.517 103.304 313.072 102.988 312.694 102.576C312.321 102.164 312.03 101.659 311.822 101.061C311.619 100.463 311.517 99.7829 311.517 99.021C311.517 98.0052 311.689 97.1418 312.033 96.4307C312.378 95.714 312.869 95.1694 313.506 94.797C314.15 94.4189 314.914 94.2298 315.8 94.2298C316.647 94.2298 317.386 94.4189 318.018 94.797C318.656 95.1751 319.15 95.7225 319.499 96.4392C319.855 97.1502 320.033 98.0108 320.033 99.021ZM312.973 99.021C312.973 99.7659 313.072 100.412 313.269 100.959C313.467 101.507 313.771 101.93 314.183 102.229C314.595 102.528 315.126 102.678 315.775 102.678C316.418 102.678 316.946 102.528 317.358 102.229C317.775 101.93 318.083 101.507 318.28 100.959C318.478 100.412 318.577 99.7659 318.577 99.021C318.577 98.2817 318.478 97.644 318.28 97.1079C318.083 96.5661 317.778 96.1485 317.366 95.8551C316.954 95.5616 316.421 95.4149 315.766 95.4149C314.801 95.4149 314.093 95.7338 313.642 96.3715C313.196 97.0092 312.973 97.8923 312.973 99.021ZM328.464 101.137C328.464 101.73 328.314 102.229 328.015 102.636C327.722 103.036 327.299 103.338 326.745 103.541C326.198 103.744 325.543 103.846 324.782 103.846C324.133 103.846 323.571 103.795 323.097 103.694C322.623 103.592 322.208 103.448 321.853 103.262V101.967C322.231 102.153 322.682 102.322 323.207 102.475C323.732 102.627 324.268 102.703 324.815 102.703C325.617 102.703 326.198 102.573 326.559 102.314C326.92 102.054 327.101 101.702 327.101 101.256C327.101 101.002 327.028 100.779 326.881 100.587C326.74 100.39 326.5 100.2 326.161 100.02C325.823 99.8336 325.354 99.6305 324.756 99.4104C324.164 99.1847 323.65 98.9617 323.216 98.7417C322.787 98.5159 322.454 98.2422 322.217 97.9205C321.985 97.5989 321.87 97.1813 321.87 96.6677C321.87 95.8833 322.186 95.2823 322.818 94.8647C323.455 94.4414 324.291 94.2298 325.323 94.2298C325.882 94.2298 326.404 94.2862 326.889 94.3991C327.38 94.5063 327.837 94.6531 328.261 94.8393L327.787 95.9651C327.403 95.8015 326.994 95.6632 326.559 95.5503C326.125 95.4375 325.682 95.381 325.23 95.381C324.581 95.381 324.082 95.4883 323.732 95.7027C323.388 95.9172 323.216 96.2106 323.216 96.5831C323.216 96.8709 323.295 97.1079 323.453 97.2941C323.616 97.4804 323.876 97.6553 324.231 97.819C324.587 97.9826 325.055 98.1745 325.637 98.3946C326.218 98.609 326.72 98.8319 327.143 99.0633C327.567 99.2891 327.891 99.5656 328.117 99.8929C328.348 100.215 328.464 100.629 328.464 101.137ZM338.698 94.2467C339.804 94.2467 340.625 94.495 341.161 94.9917C341.698 95.4883 341.966 96.2812 341.966 97.3703V103.677H340.941L340.67 102.305H340.603C340.343 102.644 340.072 102.929 339.79 103.16C339.508 103.386 339.181 103.558 338.808 103.677C338.441 103.79 337.99 103.846 337.454 103.846C336.889 103.846 336.387 103.747 335.947 103.55C335.512 103.352 335.168 103.053 334.914 102.652C334.666 102.252 334.542 101.744 334.542 101.129C334.542 100.203 334.909 99.4922 335.642 98.9956C336.376 98.499 337.493 98.2281 338.994 98.183L340.594 98.1152V97.5481C340.594 96.7467 340.422 96.1852 340.078 95.8636C339.734 95.5419 339.248 95.381 338.622 95.381C338.137 95.381 337.674 95.4516 337.234 95.5927C336.793 95.7338 336.376 95.9002 335.981 96.0921L335.549 95.0255C335.967 94.8111 336.446 94.6277 336.988 94.4753C337.53 94.3229 338.1 94.2467 338.698 94.2467ZM340.577 99.1057L339.164 99.1649C338.007 99.2101 337.191 99.3991 336.717 99.7321C336.243 100.065 336.006 100.536 336.006 101.146C336.006 101.676 336.167 102.068 336.489 102.322C336.81 102.576 337.236 102.703 337.767 102.703C338.591 102.703 339.265 102.475 339.79 102.018C340.315 101.561 340.577 100.875 340.577 99.9606V99.1057ZM348.162 103.846C346.988 103.846 346.057 103.445 345.369 102.644C344.686 101.843 344.344 100.652 344.344 99.0718C344.344 97.4747 344.694 96.2699 345.394 95.4572C346.094 94.6389 347.025 94.2298 348.187 94.2298C348.678 94.2298 349.107 94.2947 349.474 94.4245C349.841 94.5543 350.157 94.7292 350.422 94.9493C350.687 95.1638 350.91 95.4093 351.091 95.6858H351.192C351.17 95.5108 351.147 95.271 351.125 94.9663C351.102 94.6615 351.091 94.4132 351.091 94.2213V90.5052H352.496V103.677H351.362L351.15 102.356H351.091C350.916 102.633 350.693 102.884 350.422 103.11C350.157 103.335 349.838 103.516 349.466 103.651C349.099 103.781 348.664 103.846 348.162 103.846ZM348.382 102.678C349.375 102.678 350.078 102.396 350.49 101.831C350.902 101.267 351.108 100.429 351.108 99.3173V99.0633C351.108 97.8839 350.91 96.9781 350.515 96.3461C350.126 95.714 349.415 95.398 348.382 95.398C347.519 95.398 346.872 95.7309 346.444 96.3968C346.015 97.0571 345.8 97.9601 345.8 99.1057C345.8 100.246 346.012 101.126 346.435 101.747C346.864 102.368 347.513 102.678 348.382 102.678ZM356.881 94.3991V103.677H355.476V94.3991H356.881ZM356.195 90.9285C356.427 90.9285 356.624 91.0046 356.788 91.157C356.957 91.3037 357.042 91.5351 357.042 91.8511C357.042 92.1615 356.957 92.3929 356.788 92.5453C356.624 92.6976 356.427 92.7738 356.195 92.7738C355.953 92.7738 355.749 92.6976 355.586 92.5453C355.428 92.3929 355.349 92.1615 355.349 91.8511C355.349 91.5351 355.428 91.3037 355.586 91.157C355.749 91.0046 355.953 90.9285 356.195 90.9285ZM363.577 103.846C362.742 103.846 362.005 103.674 361.367 103.33C360.73 102.985 360.233 102.461 359.878 101.755C359.522 101.05 359.344 100.161 359.344 99.0887C359.344 97.9657 359.53 97.0487 359.903 96.3376C360.281 95.6209 360.8 95.0904 361.46 94.7462C362.121 94.4019 362.871 94.2298 363.712 94.2298C364.175 94.2298 364.621 94.2778 365.05 94.3737C365.484 94.464 365.84 94.5797 366.116 94.7208L365.693 95.8974C365.411 95.7845 365.084 95.683 364.711 95.5927C364.344 95.5024 364 95.4572 363.678 95.4572C363.035 95.4572 362.499 95.5955 362.07 95.872C361.647 96.1485 361.328 96.5549 361.113 97.091C360.905 97.6271 360.8 98.2874 360.8 99.0718C360.8 99.8224 360.902 100.463 361.105 100.993C361.314 101.524 361.621 101.93 362.028 102.212C362.44 102.489 362.953 102.627 363.568 102.627C364.059 102.627 364.502 102.576 364.897 102.475C365.292 102.368 365.651 102.243 365.972 102.102V103.355C365.662 103.513 365.315 103.634 364.931 103.719C364.553 103.804 364.102 103.846 363.577 103.846ZM369.578 94.3991V103.677H368.173V94.3991H369.578ZM368.893 90.9285C369.124 90.9285 369.322 91.0046 369.485 91.157C369.655 91.3037 369.739 91.5351 369.739 91.8511C369.739 92.1615 369.655 92.3929 369.485 92.5453C369.322 92.6976 369.124 92.7738 368.893 92.7738C368.65 92.7738 368.447 92.6976 368.283 92.5453C368.125 92.3929 368.046 92.1615 368.046 91.8511C368.046 91.5351 368.125 91.3037 368.283 91.157C368.447 91.0046 368.65 90.9285 368.893 90.9285ZM380.558 99.021C380.558 99.7829 380.459 100.463 380.261 101.061C380.064 101.659 379.779 102.164 379.406 102.576C379.034 102.988 378.582 103.304 378.052 103.524C377.527 103.739 376.932 103.846 376.266 103.846C375.645 103.846 375.075 103.739 374.556 103.524C374.042 103.304 373.597 102.988 373.218 102.576C372.846 102.164 372.555 101.659 372.347 101.061C372.143 100.463 372.042 99.7829 372.042 99.021C372.042 98.0052 372.214 97.1418 372.558 96.4307C372.902 95.714 373.393 95.1694 374.031 94.797C374.674 94.4189 375.439 94.2298 376.325 94.2298C377.172 94.2298 377.911 94.4189 378.543 94.797C379.181 95.1751 379.674 95.7225 380.024 96.4392C380.38 97.1502 380.558 98.0108 380.558 99.021ZM373.498 99.021C373.498 99.7659 373.597 100.412 373.794 100.959C373.992 101.507 374.296 101.93 374.708 102.229C375.12 102.528 375.651 102.678 376.3 102.678C376.943 102.678 377.471 102.528 377.883 102.229C378.3 101.93 378.608 101.507 378.805 100.959C379.003 100.412 379.102 99.7659 379.102 99.021C379.102 98.2817 379.003 97.644 378.805 97.1079C378.608 96.5661 378.303 96.1485 377.891 95.8551C377.479 95.5616 376.946 95.4149 376.291 95.4149C375.326 95.4149 374.618 95.7338 374.166 96.3715C373.721 97.0092 373.498 97.8923 373.498 99.021ZM387.38 94.2298C388.481 94.2298 389.313 94.5007 389.878 95.0424C390.442 95.5786 390.724 96.442 390.724 97.6327V103.677H389.336V97.7259C389.336 96.9527 389.158 96.3743 388.802 95.9905C388.453 95.6068 387.914 95.4149 387.186 95.4149C386.159 95.4149 385.436 95.7055 385.019 96.2868C384.601 96.8681 384.392 97.7117 384.392 98.8178V103.677H382.987V94.3991H384.121L384.333 95.7366H384.409C384.607 95.4093 384.858 95.1356 385.163 94.9155C385.467 94.6897 385.809 94.5204 386.187 94.4076C386.565 94.2891 386.963 94.2298 387.38 94.2298ZM397.09 94.2467C398.196 94.2467 399.017 94.495 399.553 94.9917C400.089 95.4883 400.357 96.2812 400.357 97.3703V103.677H399.333L399.062 102.305H398.994C398.735 102.644 398.464 102.929 398.182 103.16C397.9 103.386 397.572 103.558 397.2 103.677C396.833 103.79 396.381 103.846 395.845 103.846C395.281 103.846 394.779 103.747 394.339 103.55C393.904 103.352 393.56 103.053 393.306 102.652C393.058 102.252 392.933 101.744 392.933 101.129C392.933 100.203 393.3 99.4922 394.034 98.9956C394.767 98.499 395.885 98.2281 397.386 98.183L398.986 98.1152V97.5481C398.986 96.7467 398.814 96.1852 398.47 95.8636C398.125 95.5419 397.64 95.381 397.014 95.381C396.528 95.381 396.065 95.4516 395.625 95.5927C395.185 95.7338 394.767 95.9002 394.372 96.0921L393.941 95.0255C394.358 94.8111 394.838 94.6277 395.38 94.4753C395.922 94.3229 396.492 94.2467 397.09 94.2467ZM398.969 99.1057L397.555 99.1649C396.398 99.2101 395.583 99.3991 395.109 99.7321C394.635 100.065 394.398 100.536 394.398 101.146C394.398 101.676 394.559 102.068 394.88 102.322C395.202 102.576 395.628 102.703 396.159 102.703C396.983 102.703 397.657 102.475 398.182 102.018C398.707 101.561 398.969 100.875 398.969 99.9606V99.1057ZM404.666 103.677H403.252V90.5052H404.666V103.677ZM411.209 94.2298C411.999 94.2298 412.677 94.4047 413.241 94.7546C413.805 95.1045 414.237 95.5955 414.536 96.2275C414.835 96.854 414.985 97.5876 414.985 98.4285V99.3003H408.577C408.594 100.39 408.865 101.219 409.389 101.789C409.914 102.359 410.654 102.644 411.607 102.644C412.194 102.644 412.713 102.59 413.165 102.483C413.616 102.376 414.085 102.218 414.57 102.009V103.245C414.102 103.454 413.636 103.606 413.173 103.702C412.716 103.798 412.174 103.846 411.548 103.846C410.656 103.846 409.878 103.665 409.212 103.304C408.551 102.937 408.038 102.401 407.671 101.696C407.304 100.991 407.121 100.127 407.121 99.1057C407.121 98.1068 407.287 97.2433 407.62 96.5154C407.959 95.7817 408.433 95.2174 409.042 94.8224C409.657 94.4273 410.38 94.2298 411.209 94.2298ZM411.192 95.381C410.442 95.381 409.844 95.6265 409.398 96.1175C408.952 96.6085 408.687 97.2941 408.602 98.1745H413.512C413.506 97.6215 413.419 97.1361 413.249 96.7185C413.086 96.2953 412.835 95.968 412.496 95.7366C412.157 95.4996 411.723 95.381 411.192 95.381ZM423.374 101.137C423.374 101.73 423.224 102.229 422.925 102.636C422.631 103.036 422.208 103.338 421.655 103.541C421.108 103.744 420.453 103.846 419.691 103.846C419.042 103.846 418.481 103.795 418.007 103.694C417.533 103.592 417.118 103.448 416.762 103.262V101.967C417.141 102.153 417.592 102.322 418.117 102.475C418.642 102.627 419.178 102.703 419.725 102.703C420.527 102.703 421.108 102.573 421.469 102.314C421.83 102.054 422.011 101.702 422.011 101.256C422.011 101.002 421.937 100.779 421.791 100.587C421.65 100.39 421.41 100.2 421.071 100.02C420.732 99.8336 420.264 99.6305 419.666 99.4104C419.073 99.1847 418.56 98.9617 418.125 98.7417C417.696 98.5159 417.363 98.2422 417.126 97.9205C416.895 97.5989 416.779 97.1813 416.779 96.6677C416.779 95.8833 417.095 95.2823 417.727 94.8647C418.365 94.4414 419.2 94.2298 420.233 94.2298C420.792 94.2298 421.314 94.2862 421.799 94.3991C422.29 94.5063 422.747 94.6531 423.17 94.8393L422.696 95.9651C422.313 95.8015 421.903 95.6632 421.469 95.5503C421.034 95.4375 420.591 95.381 420.14 95.381C419.491 95.381 418.992 95.4883 418.642 95.7027C418.297 95.9172 418.125 96.2106 418.125 96.5831C418.125 96.8709 418.204 97.1079 418.362 97.2941C418.526 97.4804 418.786 97.6553 419.141 97.819C419.497 97.9826 419.965 98.1745 420.546 98.3946C421.128 98.609 421.63 98.8319 422.053 99.0633C422.476 99.2891 422.801 99.5656 423.027 99.8929C423.258 100.215 423.374 100.629 423.374 101.137ZM433.608 94.2467C434.714 94.2467 435.535 94.495 436.071 94.9917C436.607 95.4883 436.875 96.2812 436.875 97.3703V103.677H435.851L435.58 102.305H435.512C435.253 102.644 434.982 102.929 434.7 103.16C434.418 103.386 434.09 103.558 433.718 103.677C433.351 103.79 432.9 103.846 432.363 103.846C431.799 103.846 431.297 103.747 430.857 103.55C430.422 103.352 430.078 103.053 429.824 102.652C429.576 102.252 429.451 101.744 429.451 101.129C429.451 100.203 429.818 99.4922 430.552 98.9956C431.286 98.499 432.403 98.2281 433.904 98.183L435.504 98.1152V97.5481C435.504 96.7467 435.332 96.1852 434.988 95.8636C434.643 95.5419 434.158 95.381 433.532 95.381C433.046 95.381 432.584 95.4516 432.143 95.5927C431.703 95.7338 431.286 95.9002 430.891 96.0921L430.459 95.0255C430.876 94.8111 431.356 94.6277 431.898 94.4753C432.44 94.3229 433.01 94.2467 433.608 94.2467ZM435.487 99.1057L434.073 99.1649C432.916 99.2101 432.101 99.3991 431.627 99.7321C431.153 100.065 430.916 100.536 430.916 101.146C430.916 101.676 431.077 102.068 431.398 102.322C431.72 102.576 432.146 102.703 432.677 102.703C433.501 102.703 434.175 102.475 434.7 102.018C435.225 101.561 435.487 100.875 435.487 99.9606V99.1057ZM443.486 103.846C442.651 103.846 441.915 103.674 441.277 103.33C440.639 102.985 440.143 102.461 439.787 101.755C439.432 101.05 439.254 100.161 439.254 99.0887C439.254 97.9657 439.44 97.0487 439.813 96.3376C440.191 95.6209 440.71 95.0904 441.37 94.7462C442.03 94.4019 442.781 94.2298 443.622 94.2298C444.085 94.2298 444.53 94.2778 444.959 94.3737C445.394 94.464 445.749 94.5797 446.026 94.7208L445.603 95.8974C445.321 95.7845 444.993 95.683 444.621 95.5927C444.254 95.5024 443.91 95.4572 443.588 95.4572C442.945 95.4572 442.409 95.5955 441.98 95.872C441.556 96.1485 441.238 96.5549 441.023 97.091C440.814 97.6271 440.71 98.2874 440.71 99.0718C440.71 99.8224 440.812 100.463 441.015 100.993C441.223 101.524 441.531 101.93 441.937 102.212C442.349 102.489 442.863 102.627 443.478 102.627C443.969 102.627 444.412 102.576 444.807 102.475C445.202 102.368 445.56 102.243 445.882 102.102V103.355C445.572 103.513 445.225 103.634 444.841 103.719C444.463 103.804 444.011 103.846 443.486 103.846ZM451.554 94.2467C452.66 94.2467 453.481 94.495 454.017 94.9917C454.553 95.4883 454.821 96.2812 454.821 97.3703V103.677H453.797L453.526 102.305H453.458C453.199 102.644 452.928 102.929 452.646 103.16C452.363 103.386 452.036 103.558 451.664 103.677C451.297 103.79 450.845 103.846 450.309 103.846C449.745 103.846 449.243 103.747 448.802 103.55C448.368 103.352 448.024 103.053 447.77 102.652C447.521 102.252 447.397 101.744 447.397 101.129C447.397 100.203 447.764 99.4922 448.498 98.9956C449.231 98.499 450.349 98.2281 451.85 98.183L453.45 98.1152V97.5481C453.45 96.7467 453.278 96.1852 452.933 95.8636C452.589 95.5419 452.104 95.381 451.477 95.381C450.992 95.381 450.529 95.4516 450.089 95.5927C449.649 95.7338 449.231 95.9002 448.836 96.0921L448.405 95.0255C448.822 94.8111 449.302 94.6277 449.844 94.4753C450.385 94.3229 450.955 94.2467 451.554 94.2467ZM453.433 99.1057L452.019 99.1649C450.862 99.2101 450.047 99.3991 449.573 99.7321C449.099 100.065 448.862 100.536 448.862 101.146C448.862 101.676 449.023 102.068 449.344 102.322C449.666 102.576 450.092 102.703 450.622 102.703C451.446 102.703 452.121 102.475 452.646 102.018C453.17 101.561 453.433 100.875 453.433 99.9606V99.1057ZM453.873 90.3952V90.5645C453.76 90.7281 453.605 90.9256 453.407 91.157C453.216 91.3827 453.001 91.6226 452.764 91.8765C452.527 92.1248 452.287 92.3619 452.045 92.5876C451.808 92.8133 451.587 93.008 451.384 93.1717H450.445V92.9685C450.625 92.7541 450.823 92.4973 451.037 92.1982C451.252 91.8935 451.461 91.5831 451.664 91.2671C451.867 90.9454 452.036 90.6547 452.172 90.3952H453.873Z" fill="#5C6A7A"/>
<g clip-path="url(#clip1_3270_17513)">
<path d="M597.098 225.049L597.864 224.283C598.075 224.072 598.075 223.727 597.864 223.517C597.654 223.306 597.309 223.306 597.098 223.517L596.332 224.283C596.121 224.493 596.121 224.838 596.332 225.049C596.543 225.26 596.887 225.26 597.098 225.049ZM589.82 223.9C590.03 224.11 590.375 224.11 590.586 223.9L596.715 217.77C596.926 217.56 596.926 217.215 596.715 217.004C596.504 216.794 596.16 216.794 595.949 217.004L589.82 223.134C589.609 223.344 589.609 223.689 589.82 223.9ZM593.65 224.666L597.481 220.835C597.692 220.624 597.692 220.28 597.481 220.069C597.271 219.858 596.926 219.858 596.715 220.069L592.884 223.9C592.674 224.11 592.674 224.455 592.884 224.666C593.095 224.877 593.44 224.877 593.65 224.666Z" fill="#101E37"/>
</g>
</g>
<rect x="125.084" y="76.0923" width="477.833" height="153.86" rx="7.58465" stroke="#101E37" stroke-width="2.16704"/>
<path d="M571.844 56.2407C571.844 57.1196 571.778 57.9048 571.644 58.5961C571.511 59.2874 571.301 59.8725 571.015 60.3515C570.728 60.8305 570.358 61.1959 569.904 61.4477C569.45 61.6946 568.904 61.8181 568.267 61.8181C567.462 61.8181 566.795 61.5983 566.267 61.1588C565.744 60.7194 565.351 60.0848 565.089 59.2553C564.833 58.4208 564.704 57.4159 564.704 56.2407C564.704 55.0852 564.82 54.0927 565.052 53.2631C565.289 52.4286 565.67 51.7891 566.193 51.3447C566.716 50.8954 567.408 50.6707 568.267 50.6707C569.082 50.6707 569.753 50.8929 570.282 51.3373C570.81 51.7768 571.203 52.4138 571.459 53.2483C571.716 54.0779 571.844 55.0753 571.844 56.2407ZM565.941 56.2407C565.941 57.248 566.018 58.0875 566.171 58.759C566.324 59.4306 566.571 59.9342 566.911 60.27C567.257 60.6009 567.709 60.7663 568.267 60.7663C568.825 60.7663 569.274 60.6009 569.615 60.27C569.961 59.9392 570.21 59.438 570.363 58.7664C570.521 58.0949 570.6 57.2529 570.6 56.2407C570.6 55.2482 570.524 54.4186 570.37 53.752C570.217 53.0804 569.97 52.5767 569.63 52.241C569.289 51.9002 568.835 51.7299 568.267 51.7299C567.699 51.7299 567.245 51.9002 566.904 52.241C566.563 52.5767 566.316 53.0804 566.163 53.752C566.015 54.4186 565.941 55.2482 565.941 56.2407ZM578.022 50.8411L573.992 61.6699H572.778L576.814 50.8411H578.022ZM583.518 61.6699H582.318V53.9964C582.318 53.7051 582.318 53.4557 582.318 53.2483C582.323 53.036 582.328 52.8434 582.333 52.6706C582.342 52.4928 582.355 52.3126 582.37 52.1299C582.217 52.2879 582.073 52.4237 581.94 52.5372C581.807 52.6459 581.641 52.7817 581.444 52.9446L580.207 53.9371L579.562 53.1002L582.496 50.8411H583.518V61.6699ZM594.776 56.2407C594.776 57.1196 594.709 57.9048 594.576 58.5961C594.443 59.2874 594.233 59.8725 593.947 60.3515C593.66 60.8305 593.29 61.1959 592.836 61.4477C592.381 61.6946 591.836 61.8181 591.199 61.8181C590.394 61.8181 589.727 61.5983 589.199 61.1588C588.675 60.7194 588.283 60.0848 588.021 59.2553C587.764 58.4208 587.636 57.4159 587.636 56.2407C587.636 55.0852 587.752 54.0927 587.984 53.2631C588.221 52.4286 588.601 51.7891 589.125 51.3447C589.648 50.8954 590.339 50.6707 591.199 50.6707C592.013 50.6707 592.685 50.8929 593.213 51.3373C593.742 51.7768 594.134 52.4138 594.391 53.2483C594.648 54.0779 594.776 55.0753 594.776 56.2407ZM588.873 56.2407C588.873 57.248 588.949 58.0875 589.102 58.759C589.256 59.4306 589.502 59.9342 589.843 60.27C590.189 60.6009 590.641 60.7663 591.199 60.7663C591.757 60.7663 592.206 60.6009 592.547 60.27C592.892 59.9392 593.142 59.438 593.295 58.7664C593.453 58.0949 593.532 57.2529 593.532 56.2407C593.532 55.2482 593.455 54.4186 593.302 53.752C593.149 53.0804 592.902 52.5767 592.561 52.241C592.221 51.9002 591.766 51.7299 591.199 51.7299C590.631 51.7299 590.176 51.9002 589.836 52.241C589.495 52.5767 589.248 53.0804 589.095 53.752C588.947 54.4186 588.873 55.2482 588.873 56.2407ZM603.457 56.2407C603.457 57.1196 603.39 57.9048 603.257 58.5961C603.124 59.2874 602.914 59.8725 602.627 60.3515C602.341 60.8305 601.971 61.1959 601.516 61.4477C601.062 61.6946 600.516 61.8181 599.879 61.8181C599.075 61.8181 598.408 61.5983 597.88 61.1588C597.356 60.7194 596.964 60.0848 596.702 59.2553C596.445 58.4208 596.317 57.4159 596.317 56.2407C596.317 55.0852 596.433 54.0927 596.665 53.2631C596.902 52.4286 597.282 51.7891 597.806 51.3447C598.329 50.8954 599.02 50.6707 599.879 50.6707C600.694 50.6707 601.366 50.8929 601.894 51.3373C602.423 51.7768 602.815 52.4138 603.072 53.2483C603.329 54.0779 603.457 55.0753 603.457 56.2407ZM597.554 56.2407C597.554 57.248 597.63 58.0875 597.783 58.759C597.936 59.4306 598.183 59.9342 598.524 60.27C598.87 60.6009 599.322 60.7663 599.879 60.7663C600.437 60.7663 600.887 60.6009 601.228 60.27C601.573 59.9392 601.823 59.438 601.976 58.7664C602.134 58.0949 602.213 57.2529 602.213 56.2407C602.213 55.2482 602.136 54.4186 601.983 53.752C601.83 53.0804 601.583 52.5767 601.242 52.241C600.902 51.9002 600.447 51.7299 599.879 51.7299C599.312 51.7299 598.857 51.9002 598.517 52.241C598.176 52.5767 597.929 53.0804 597.776 53.752C597.628 54.4186 597.554 55.2482 597.554 56.2407Z" fill="#5C6A7A"/>
<defs>
<clipPath id="clip0_3270_17513">
<rect x="124" y="75.0088" width="480" height="156.027" rx="8.66817" fill="white"/>
</clipPath>
<clipPath id="clip1_3270_17513">
<rect width="13.0023" height="13.0023" fill="white" transform="translate(585.989 222.368) rotate(-45)"/>
</clipPath>
</defs>
</svg>
