<svg width="728" height="161" viewBox="0 0 728 161" fill="none" xmlns="http://www.w3.org/2000/svg">
<rect y="0.34082" width="728" height="160" rx="8" fill="#F3F6F9"/>
<path d="M262.664 58.5028C261.38 58.5028 260.282 58.2388 259.37 57.7108C258.458 57.1828 257.756 56.4328 257.264 55.4608C256.784 54.4768 256.544 53.3188 256.544 51.9868C256.544 50.9908 256.682 50.0968 256.958 49.3048C257.234 48.5008 257.63 47.8168 258.146 47.2528C258.674 46.6768 259.316 46.2388 260.072 45.9388C260.84 45.6388 261.704 45.4888 262.664 45.4888C263.372 45.4888 264.05 45.5848 264.698 45.7768C265.358 45.9688 265.928 46.2448 266.408 46.6048C266.612 46.7368 266.744 46.8988 266.804 47.0908C266.876 47.2708 266.888 47.4448 266.84 47.6128C266.804 47.7808 266.726 47.9248 266.606 48.0448C266.486 48.1528 266.33 48.2128 266.138 48.2248C265.958 48.2368 265.76 48.1708 265.544 48.0268C265.148 47.7268 264.71 47.5048 264.23 47.3608C263.75 47.2168 263.246 47.1448 262.718 47.1448C261.806 47.1448 261.038 47.3368 260.414 47.7208C259.79 48.0928 259.316 48.6388 258.992 49.3588C258.668 50.0788 258.506 50.9548 258.506 51.9868C258.506 53.0188 258.668 53.9008 258.992 54.6328C259.316 55.3528 259.79 55.9048 260.414 56.2888C261.038 56.6608 261.806 56.8468 262.718 56.8468C263.246 56.8468 263.75 56.7748 264.23 56.6308C264.722 56.4748 265.184 56.2468 265.616 55.9468C265.832 55.8148 266.024 55.7548 266.192 55.7668C266.372 55.7788 266.522 55.8388 266.642 55.9468C266.762 56.0548 266.84 56.1928 266.876 56.3608C266.924 56.5168 266.918 56.6848 266.858 56.8648C266.81 57.0328 266.696 57.1768 266.516 57.2968C266.024 57.6928 265.442 57.9928 264.77 58.1968C264.098 58.4008 263.396 58.5028 262.664 58.5028ZM271.451 58.5028C270.839 58.5028 270.287 58.3828 269.795 58.1428C269.315 57.9028 268.937 57.5788 268.661 57.1708C268.385 56.7628 268.247 56.3008 268.247 55.7848C268.247 55.1368 268.409 54.6268 268.733 54.2548C269.069 53.8708 269.615 53.6008 270.371 53.4448C271.139 53.2768 272.171 53.1928 273.467 53.1928H274.313V54.3088H273.485C272.621 54.3088 271.937 54.3508 271.433 54.4348C270.929 54.5188 270.569 54.6628 270.353 54.8668C270.149 55.0588 270.047 55.3288 270.047 55.6768C270.047 56.1328 270.203 56.5048 270.515 56.7928C270.827 57.0688 271.259 57.2068 271.811 57.2068C272.255 57.2068 272.645 57.1048 272.981 56.9008C273.317 56.6848 273.581 56.3968 273.773 56.0368C273.977 55.6768 274.079 55.2628 274.079 54.7948V52.7248C274.079 52.0408 273.935 51.5488 273.647 51.2488C273.359 50.9488 272.885 50.7988 272.225 50.7988C271.841 50.7988 271.439 50.8468 271.019 50.9428C270.611 51.0388 270.185 51.2008 269.741 51.4288C269.537 51.5248 269.363 51.5548 269.219 51.5188C269.075 51.4828 268.961 51.4048 268.877 51.2848C268.793 51.1528 268.745 51.0148 268.733 50.8708C268.733 50.7148 268.769 50.5648 268.841 50.4208C268.925 50.2768 269.063 50.1688 269.255 50.0968C269.783 49.8448 270.305 49.6648 270.821 49.5568C271.337 49.4488 271.823 49.3948 272.279 49.3948C273.083 49.3948 273.743 49.5208 274.259 49.7728C274.787 50.0248 275.177 50.4088 275.429 50.9248C275.681 51.4408 275.807 52.1068 275.807 52.9228V57.5488C275.807 57.8368 275.735 58.0648 275.591 58.2328C275.447 58.3888 275.237 58.4668 274.961 58.4668C274.697 58.4668 274.487 58.3888 274.331 58.2328C274.175 58.0648 274.097 57.8368 274.097 57.5488V56.3788H274.259C274.163 56.8228 273.983 57.2068 273.719 57.5308C273.467 57.8428 273.149 58.0828 272.765 58.2508C272.381 58.4188 271.943 58.5028 271.451 58.5028ZM279.211 58.4668C278.923 58.4668 278.701 58.3888 278.545 58.2328C278.389 58.0648 278.311 57.8368 278.311 57.5488V50.3488C278.311 50.0488 278.389 49.8208 278.545 49.6648C278.701 49.5088 278.917 49.4308 279.193 49.4308C279.481 49.4308 279.697 49.5088 279.841 49.6648C279.997 49.8208 280.075 50.0488 280.075 50.3488V51.7528L279.877 51.4288C280.141 50.7568 280.555 50.2528 281.119 49.9168C281.683 49.5688 282.331 49.3948 283.063 49.3948C283.759 49.3948 284.335 49.5268 284.791 49.7908C285.259 50.0428 285.607 50.4328 285.835 50.9608C286.063 51.4768 286.177 52.1308 286.177 52.9228V57.5488C286.177 57.8368 286.099 58.0648 285.943 58.2328C285.787 58.3888 285.565 58.4668 285.277 58.4668C284.977 58.4668 284.749 58.3888 284.593 58.2328C284.437 58.0648 284.359 57.8368 284.359 57.5488V53.0308C284.359 52.2748 284.209 51.7228 283.909 51.3748C283.621 51.0268 283.165 50.8528 282.541 50.8528C281.809 50.8528 281.221 51.0808 280.777 51.5368C280.345 51.9928 280.129 52.6048 280.129 53.3728V57.5488C280.129 58.1608 279.823 58.4668 279.211 58.4668ZM292.426 58.5028C291.706 58.5028 291.1 58.3768 290.608 58.1248C290.116 57.8728 289.75 57.5008 289.51 57.0088C289.27 56.5168 289.15 55.9168 289.15 55.2088V50.9608H288.07C287.83 50.9608 287.644 50.9008 287.512 50.7808C287.38 50.6488 287.314 50.4748 287.314 50.2588C287.314 50.0308 287.38 49.8568 287.512 49.7368C287.644 49.6168 287.83 49.5568 288.07 49.5568H289.15V47.7028C289.15 47.4028 289.228 47.1748 289.384 47.0188C289.552 46.8628 289.78 46.7848 290.068 46.7848C290.356 46.7848 290.578 46.8628 290.734 47.0188C290.89 47.1748 290.968 47.4028 290.968 47.7028V49.5568H293.074C293.314 49.5568 293.5 49.6168 293.632 49.7368C293.764 49.8568 293.83 50.0308 293.83 50.2588C293.83 50.4748 293.764 50.6488 293.632 50.7808C293.5 50.9008 293.314 50.9608 293.074 50.9608H290.968V55.0648C290.968 55.7008 291.1 56.1808 291.364 56.5048C291.64 56.8288 292.084 56.9908 292.696 56.9908C292.912 56.9908 293.098 56.9728 293.254 56.9368C293.422 56.8888 293.56 56.8588 293.668 56.8468C293.8 56.8468 293.908 56.8948 293.992 56.9908C294.076 57.0748 294.118 57.2428 294.118 57.4948C294.118 57.6748 294.082 57.8428 294.01 57.9988C293.95 58.1548 293.836 58.2568 293.668 58.3048C293.524 58.3528 293.326 58.3948 293.074 58.4308C292.834 58.4788 292.618 58.5028 292.426 58.5028ZM296.315 58.4488C296.027 58.4488 295.805 58.3648 295.649 58.1968C295.493 58.0168 295.415 57.7708 295.415 57.4588V50.4388C295.415 50.1268 295.493 49.8868 295.649 49.7188C295.805 49.5508 296.027 49.4668 296.315 49.4668C296.603 49.4668 296.825 49.5508 296.981 49.7188C297.149 49.8868 297.233 50.1268 297.233 50.4388V57.4588C297.233 57.7708 297.155 58.0168 296.999 58.1968C296.843 58.3648 296.615 58.4488 296.315 58.4488ZM296.315 47.5948C295.955 47.5948 295.673 47.5048 295.469 47.3248C295.277 47.1448 295.181 46.8928 295.181 46.5688C295.181 46.2328 295.277 45.9808 295.469 45.8128C295.673 45.6328 295.955 45.5428 296.315 45.5428C296.675 45.5428 296.951 45.6328 297.143 45.8128C297.347 45.9808 297.449 46.2328 297.449 46.5688C297.449 46.8928 297.347 47.1448 297.143 47.3248C296.951 47.5048 296.675 47.5948 296.315 47.5948ZM303.14 58.5028C302.372 58.5028 301.694 58.3228 301.106 57.9628C300.53 57.5908 300.08 57.0628 299.756 56.3788C299.432 55.6828 299.27 54.8728 299.27 53.9488C299.27 53.0008 299.432 52.1908 299.756 51.5188C300.08 50.8468 300.53 50.3248 301.106 49.9528C301.694 49.5808 302.372 49.3948 303.14 49.3948C303.908 49.3948 304.568 49.5868 305.12 49.9708C305.684 50.3428 306.062 50.8468 306.254 51.4828H306.056V46.4428C306.056 46.1428 306.134 45.9148 306.29 45.7588C306.446 45.6028 306.668 45.5248 306.956 45.5248C307.244 45.5248 307.466 45.6028 307.622 45.7588C307.79 45.9148 307.874 46.1428 307.874 46.4428V57.5488C307.874 57.8368 307.796 58.0648 307.64 58.2328C307.484 58.3888 307.262 58.4668 306.974 58.4668C306.686 58.4668 306.464 58.3888 306.308 58.2328C306.152 58.0648 306.074 57.8368 306.074 57.5488V55.9648L306.272 56.3608C306.08 57.0088 305.702 57.5308 305.138 57.9268C304.586 58.3108 303.92 58.5028 303.14 58.5028ZM303.608 57.0988C304.1 57.0988 304.532 56.9788 304.904 56.7388C305.276 56.4988 305.564 56.1448 305.768 55.6768C305.984 55.2088 306.092 54.6328 306.092 53.9488C306.092 52.9168 305.864 52.1368 305.408 51.6088C304.952 51.0808 304.352 50.8168 303.608 50.8168C303.104 50.8168 302.666 50.9368 302.294 51.1768C301.922 51.4048 301.628 51.7528 301.412 52.2208C301.208 52.6888 301.106 53.2648 301.106 53.9488C301.106 54.9688 301.334 55.7488 301.79 56.2888C302.246 56.8288 302.852 57.0988 303.608 57.0988ZM313.234 58.5028C312.622 58.5028 312.07 58.3828 311.578 58.1428C311.098 57.9028 310.72 57.5788 310.444 57.1708C310.168 56.7628 310.03 56.3008 310.03 55.7848C310.03 55.1368 310.192 54.6268 310.516 54.2548C310.852 53.8708 311.398 53.6008 312.154 53.4448C312.922 53.2768 313.954 53.1928 315.25 53.1928H316.096V54.3088H315.268C314.404 54.3088 313.72 54.3508 313.216 54.4348C312.712 54.5188 312.352 54.6628 312.136 54.8668C311.932 55.0588 311.83 55.3288 311.83 55.6768C311.83 56.1328 311.986 56.5048 312.298 56.7928C312.61 57.0688 313.042 57.2068 313.594 57.2068C314.038 57.2068 314.428 57.1048 314.764 56.9008C315.1 56.6848 315.364 56.3968 315.556 56.0368C315.76 55.6768 315.862 55.2628 315.862 54.7948V52.7248C315.862 52.0408 315.718 51.5488 315.43 51.2488C315.142 50.9488 314.668 50.7988 314.008 50.7988C313.624 50.7988 313.222 50.8468 312.802 50.9428C312.394 51.0388 311.968 51.2008 311.524 51.4288C311.32 51.5248 311.146 51.5548 311.002 51.5188C310.858 51.4828 310.744 51.4048 310.66 51.2848C310.576 51.1528 310.528 51.0148 310.516 50.8708C310.516 50.7148 310.552 50.5648 310.624 50.4208C310.708 50.2768 310.846 50.1688 311.038 50.0968C311.566 49.8448 312.088 49.6648 312.604 49.5568C313.12 49.4488 313.606 49.3948 314.062 49.3948C314.866 49.3948 315.526 49.5208 316.042 49.7728C316.57 50.0248 316.96 50.4088 317.212 50.9248C317.464 51.4408 317.59 52.1068 317.59 52.9228V57.5488C317.59 57.8368 317.518 58.0648 317.374 58.2328C317.23 58.3888 317.02 58.4668 316.744 58.4668C316.48 58.4668 316.27 58.3888 316.114 58.2328C315.958 58.0648 315.88 57.8368 315.88 57.5488V56.3788H316.042C315.946 56.8228 315.766 57.2068 315.502 57.5308C315.25 57.8428 314.932 58.0828 314.548 58.2508C314.164 58.4188 313.726 58.5028 313.234 58.5028ZM323.442 58.5028C322.674 58.5028 321.996 58.3228 321.408 57.9628C320.832 57.5908 320.382 57.0628 320.058 56.3788C319.734 55.6828 319.572 54.8728 319.572 53.9488C319.572 53.0008 319.734 52.1908 320.058 51.5188C320.382 50.8468 320.832 50.3248 321.408 49.9528C321.996 49.5808 322.674 49.3948 323.442 49.3948C324.21 49.3948 324.87 49.5868 325.422 49.9708C325.986 50.3428 326.364 50.8468 326.556 51.4828H326.358V46.4428C326.358 46.1428 326.436 45.9148 326.592 45.7588C326.748 45.6028 326.97 45.5248 327.258 45.5248C327.546 45.5248 327.768 45.6028 327.924 45.7588C328.092 45.9148 328.176 46.1428 328.176 46.4428V57.5488C328.176 57.8368 328.098 58.0648 327.942 58.2328C327.786 58.3888 327.564 58.4668 327.276 58.4668C326.988 58.4668 326.766 58.3888 326.61 58.2328C326.454 58.0648 326.376 57.8368 326.376 57.5488V55.9648L326.574 56.3608C326.382 57.0088 326.004 57.5308 325.44 57.9268C324.888 58.3108 324.222 58.5028 323.442 58.5028ZM323.91 57.0988C324.402 57.0988 324.834 56.9788 325.206 56.7388C325.578 56.4988 325.866 56.1448 326.07 55.6768C326.286 55.2088 326.394 54.6328 326.394 53.9488C326.394 52.9168 326.166 52.1368 325.71 51.6088C325.254 51.0808 324.654 50.8168 323.91 50.8168C323.406 50.8168 322.968 50.9368 322.596 51.1768C322.224 51.4048 321.93 51.7528 321.714 52.2208C321.51 52.6888 321.408 53.2648 321.408 53.9488C321.408 54.9688 321.636 55.7488 322.092 56.2888C322.548 56.8288 323.154 57.0988 323.91 57.0988Z" fill="#101E37"/>
<rect x="256.5" y="73.3408" width="215" height="46" rx="7" fill="white"/>
<rect x="256.5" y="73.3408" width="215" height="46" rx="7" stroke="#101E37" stroke-width="2"/>
<mask id="path-4-inside-1_3270_17444" fill="white">
<path d="M271.5 84.3408H313.5V108.341H271.5V84.3408Z"/>
</mask>
<path d="M313.5 84.3408H312.5V108.341H313.5H314.5V84.3408H313.5Z" fill="#101E37" mask="url(#path-4-inside-1_3270_17444)"/>
<path d="M280.227 102.341L278.82 98.7158H274.242L272.844 102.341H271.5L275.969 90.8721H277.164L281.602 102.341H280.227ZM278.422 97.5361L277.086 93.9346C277.055 93.8408 277.003 93.6872 276.93 93.4736C276.862 93.2601 276.792 93.0387 276.719 92.8096C276.646 92.5804 276.586 92.3955 276.539 92.2549C276.487 92.4684 276.43 92.682 276.367 92.8955C276.31 93.1038 276.253 93.2992 276.195 93.4814C276.138 93.6585 276.089 93.8096 276.047 93.9346L274.688 97.5361H278.422ZM286.273 90.9189C287.211 90.9189 287.984 91.0361 288.594 91.2705C289.208 91.4997 289.667 91.8512 289.969 92.3252C290.271 92.7992 290.422 93.4033 290.422 94.1377C290.422 94.7419 290.312 95.2471 290.094 95.6533C289.875 96.0544 289.589 96.3799 289.234 96.6299C288.88 96.8799 288.503 97.0726 288.102 97.208L291.234 102.341H289.688L286.891 97.5752H284.516V102.341H283.188V90.9189H286.273ZM286.195 92.0674H284.516V96.4502H286.328C287.26 96.4502 287.945 96.2601 288.383 95.8799C288.826 95.4997 289.047 94.9398 289.047 94.2002C289.047 93.4242 288.812 92.8747 288.344 92.5518C287.88 92.2288 287.164 92.0674 286.195 92.0674ZM299.703 103.271V101.63C299.104 101.619 298.531 101.567 297.984 101.474C297.443 101.38 297 101.257 296.656 101.106V99.8408C297.016 100.007 297.477 100.153 298.039 100.278C298.602 100.403 299.156 100.471 299.703 100.481V97.0439C299.016 96.8512 298.445 96.6325 297.992 96.3877C297.544 96.1377 297.208 95.833 296.984 95.4736C296.76 95.1143 296.648 94.6794 296.648 94.1689C296.648 93.6377 296.773 93.1846 297.023 92.8096C297.279 92.4294 297.635 92.1325 298.094 91.9189C298.552 91.7054 299.089 91.583 299.703 91.5518V90.2002H300.656V91.5361C301.214 91.5518 301.721 91.6143 302.18 91.7236C302.638 91.8278 303.062 91.9632 303.453 92.1299L303.047 93.2158C302.693 93.0752 302.31 92.9554 301.898 92.8564C301.487 92.7575 301.073 92.6898 300.656 92.6533V96.0674C301.354 96.2705 301.938 96.4867 302.406 96.7158C302.88 96.945 303.237 97.2288 303.477 97.5674C303.716 97.9059 303.836 98.3434 303.836 98.8799C303.836 99.6403 303.557 100.255 303 100.724C302.443 101.187 301.661 101.468 300.656 101.567V103.271H299.703ZM300.656 100.411C301.297 100.349 301.773 100.195 302.086 99.9502C302.404 99.7002 302.562 99.3721 302.562 98.9658C302.562 98.6742 302.5 98.4346 302.375 98.2471C302.255 98.0596 302.057 97.8981 301.781 97.7627C301.505 97.6221 301.13 97.4893 300.656 97.3643V100.411ZM299.703 95.7393V92.6846C299.312 92.7106 298.984 92.7835 298.719 92.9033C298.453 93.0231 298.253 93.1794 298.117 93.3721C297.987 93.5648 297.922 93.7939 297.922 94.0596C297.922 94.3669 297.979 94.6247 298.094 94.833C298.214 95.0361 298.404 95.2106 298.664 95.3564C298.93 95.4971 299.276 95.6247 299.703 95.7393Z" fill="#101E37"/>
<path d="M323.062 102.341V90.9189H324.391V102.341H323.062ZM331.391 93.6221C332.406 93.6221 333.174 93.8721 333.695 94.3721C334.216 94.8669 334.477 95.6637 334.477 96.7627V102.341H333.195V96.8486C333.195 96.1351 333.031 95.6012 332.703 95.2471C332.38 94.8929 331.883 94.7158 331.211 94.7158C330.263 94.7158 329.596 94.984 329.211 95.5205C328.826 96.057 328.633 96.8356 328.633 97.8564V102.341H327.336V93.7783H328.383L328.578 95.0127H328.648C328.831 94.7106 329.062 94.458 329.344 94.2549C329.625 94.0465 329.94 93.8903 330.289 93.7861C330.638 93.6768 331.005 93.6221 331.391 93.6221ZM339.539 106.185C338.414 106.185 337.547 105.974 336.938 105.552C336.328 105.135 336.023 104.549 336.023 103.794C336.023 103.257 336.193 102.799 336.531 102.419C336.875 102.039 337.349 101.786 337.953 101.661C337.729 101.557 337.536 101.401 337.375 101.192C337.219 100.984 337.141 100.744 337.141 100.474C337.141 100.161 337.227 99.8877 337.398 99.6533C337.576 99.4137 337.844 99.1846 338.203 98.9658C337.755 98.7835 337.391 98.4762 337.109 98.0439C336.833 97.6064 336.695 97.0986 336.695 96.5205C336.695 95.9059 336.823 95.3825 337.078 94.9502C337.333 94.5127 337.703 94.1794 338.188 93.9502C338.672 93.721 339.258 93.6064 339.945 93.6064C340.096 93.6064 340.247 93.6143 340.398 93.6299C340.555 93.6403 340.703 93.6585 340.844 93.6846C340.984 93.7054 341.107 93.7314 341.211 93.7627H344.148V94.5986L342.57 94.7939C342.727 94.9971 342.857 95.2419 342.961 95.5283C343.065 95.8148 343.117 96.1325 343.117 96.4814C343.117 97.3356 342.828 98.0153 342.25 98.5205C341.672 99.0205 340.878 99.2705 339.867 99.2705C339.628 99.2705 339.383 99.2497 339.133 99.208C338.878 99.3486 338.682 99.5049 338.547 99.6768C338.417 99.8486 338.352 100.047 338.352 100.271C338.352 100.437 338.401 100.57 338.5 100.669C338.604 100.768 338.753 100.841 338.945 100.888C339.138 100.929 339.37 100.95 339.641 100.95H341.148C342.081 100.95 342.794 101.146 343.289 101.536C343.789 101.927 344.039 102.497 344.039 103.247C344.039 104.195 343.654 104.922 342.883 105.427C342.112 105.932 340.997 106.185 339.539 106.185ZM339.578 105.169C340.286 105.169 340.872 105.096 341.336 104.95C341.805 104.81 342.154 104.604 342.383 104.333C342.617 104.067 342.734 103.75 342.734 103.38C342.734 103.036 342.656 102.776 342.5 102.599C342.344 102.427 342.115 102.312 341.812 102.255C341.51 102.192 341.141 102.161 340.703 102.161H339.219C338.833 102.161 338.497 102.221 338.211 102.341C337.924 102.461 337.703 102.638 337.547 102.872C337.396 103.106 337.32 103.398 337.32 103.747C337.32 104.211 337.516 104.562 337.906 104.802C338.297 105.047 338.854 105.169 339.578 105.169ZM339.914 98.3252C340.534 98.3252 341 98.1689 341.312 97.8564C341.625 97.5439 341.781 97.0882 341.781 96.4893C341.781 95.8486 341.622 95.3695 341.305 95.0518C340.987 94.7288 340.518 94.5674 339.898 94.5674C339.305 94.5674 338.846 94.734 338.523 95.0674C338.206 95.3955 338.047 95.8773 338.047 96.5127C338.047 97.096 338.208 97.5439 338.531 97.8564C338.854 98.1689 339.315 98.3252 339.914 98.3252ZM349.727 93.6221C349.898 93.6221 350.078 93.6325 350.266 93.6533C350.453 93.6689 350.62 93.6924 350.766 93.7236L350.602 94.9268C350.461 94.8903 350.305 94.8617 350.133 94.8408C349.961 94.82 349.799 94.8096 349.648 94.8096C349.305 94.8096 348.979 94.8799 348.672 95.0205C348.37 95.1559 348.104 95.3538 347.875 95.6143C347.646 95.8695 347.466 96.1794 347.336 96.5439C347.206 96.9033 347.141 97.3044 347.141 97.7471V102.341H345.836V93.7783H346.914L347.055 95.3564H347.109C347.286 95.0387 347.5 94.7497 347.75 94.4893C348 94.2236 348.289 94.0127 348.617 93.8564C348.951 93.7002 349.32 93.6221 349.727 93.6221ZM355.68 93.6221C356.409 93.6221 357.034 93.7835 357.555 94.1064C358.076 94.4294 358.474 94.8825 358.75 95.4658C359.026 96.0439 359.164 96.721 359.164 97.4971V98.3018H353.25C353.266 99.307 353.516 100.073 354 100.599C354.484 101.125 355.167 101.388 356.047 101.388C356.589 101.388 357.068 101.338 357.484 101.239C357.901 101.14 358.333 100.994 358.781 100.802V101.942C358.349 102.135 357.919 102.276 357.492 102.364C357.07 102.453 356.57 102.497 355.992 102.497C355.169 102.497 354.451 102.33 353.836 101.997C353.227 101.659 352.753 101.164 352.414 100.513C352.076 99.8617 351.906 99.0648 351.906 98.1221C351.906 97.2002 352.06 96.4033 352.367 95.7314C352.68 95.0544 353.117 94.5335 353.68 94.1689C354.247 93.8044 354.914 93.6221 355.68 93.6221ZM355.664 94.6846C354.971 94.6846 354.419 94.9111 354.008 95.3643C353.596 95.8174 353.352 96.4502 353.273 97.2627H357.805C357.799 96.7523 357.719 96.3044 357.562 95.9189C357.411 95.5283 357.18 95.2262 356.867 95.0127C356.555 94.7939 356.154 94.6846 355.664 94.6846ZM366.906 99.9971C366.906 100.544 366.768 101.005 366.492 101.38C366.221 101.75 365.831 102.028 365.32 102.216C364.815 102.403 364.211 102.497 363.508 102.497C362.909 102.497 362.391 102.45 361.953 102.356C361.516 102.263 361.133 102.13 360.805 101.958V100.763C361.154 100.935 361.57 101.091 362.055 101.231C362.539 101.372 363.034 101.442 363.539 101.442C364.279 101.442 364.815 101.323 365.148 101.083C365.482 100.843 365.648 100.518 365.648 100.106C365.648 99.8721 365.581 99.6663 365.445 99.4893C365.315 99.307 365.094 99.1325 364.781 98.9658C364.469 98.7939 364.036 98.6064 363.484 98.4033C362.938 98.195 362.464 97.9893 362.062 97.7861C361.667 97.5778 361.359 97.3252 361.141 97.0283C360.927 96.7314 360.82 96.346 360.82 95.8721C360.82 95.1481 361.112 94.5934 361.695 94.208C362.284 93.8174 363.055 93.6221 364.008 93.6221C364.523 93.6221 365.005 93.6742 365.453 93.7783C365.906 93.8773 366.328 94.0127 366.719 94.1846L366.281 95.2236C365.927 95.0726 365.549 94.945 365.148 94.8408C364.747 94.7367 364.339 94.6846 363.922 94.6846C363.323 94.6846 362.862 94.7835 362.539 94.9814C362.221 95.1794 362.062 95.4502 362.062 95.7939C362.062 96.0596 362.135 96.2783 362.281 96.4502C362.432 96.6221 362.672 96.7835 363 96.9346C363.328 97.0856 363.76 97.2627 364.297 97.4658C364.833 97.6637 365.297 97.8695 365.688 98.083C366.078 98.2913 366.378 98.5465 366.586 98.8486C366.799 99.1455 366.906 99.5283 366.906 99.9971ZM372.195 93.6377C373.216 93.6377 373.974 93.8669 374.469 94.3252C374.964 94.7835 375.211 95.5153 375.211 96.5205V102.341H374.266L374.016 101.075H373.953C373.714 101.388 373.464 101.651 373.203 101.864C372.943 102.073 372.641 102.231 372.297 102.341C371.958 102.445 371.542 102.497 371.047 102.497C370.526 102.497 370.062 102.406 369.656 102.224C369.255 102.041 368.938 101.765 368.703 101.396C368.474 101.026 368.359 100.557 368.359 99.9893C368.359 99.1351 368.698 98.4788 369.375 98.0205C370.052 97.5622 371.083 97.3122 372.469 97.2705L373.945 97.208V96.6846C373.945 95.945 373.786 95.4268 373.469 95.1299C373.151 94.833 372.703 94.6846 372.125 94.6846C371.677 94.6846 371.25 94.7497 370.844 94.8799C370.438 95.0101 370.052 95.1637 369.688 95.3408L369.289 94.3564C369.674 94.1585 370.117 93.9893 370.617 93.8486C371.117 93.708 371.643 93.6377 372.195 93.6377ZM373.93 98.1221L372.625 98.1768C371.557 98.2184 370.805 98.3929 370.367 98.7002C369.93 99.0075 369.711 99.4424 369.711 100.005C369.711 100.494 369.859 100.856 370.156 101.091C370.453 101.325 370.846 101.442 371.336 101.442C372.096 101.442 372.719 101.231 373.203 100.81C373.688 100.388 373.93 99.7549 373.93 98.9111V98.1221ZM374.336 90.083V90.2393C374.232 90.3903 374.089 90.5726 373.906 90.7861C373.729 90.9945 373.531 91.2158 373.312 91.4502C373.094 91.6794 372.872 91.8981 372.648 92.1064C372.43 92.3148 372.227 92.4945 372.039 92.6455H371.172V92.458C371.339 92.2601 371.521 92.0231 371.719 91.7471C371.917 91.4658 372.109 91.1794 372.297 90.8877C372.484 90.5908 372.641 90.3226 372.766 90.083H374.336ZM385.336 93.6221C386.065 93.6221 386.69 93.7835 387.211 94.1064C387.732 94.4294 388.13 94.8825 388.406 95.4658C388.682 96.0439 388.82 96.721 388.82 97.4971V98.3018H382.906C382.922 99.307 383.172 100.073 383.656 100.599C384.141 101.125 384.823 101.388 385.703 101.388C386.245 101.388 386.724 101.338 387.141 101.239C387.557 101.14 387.99 100.994 388.438 100.802V101.942C388.005 102.135 387.576 102.276 387.148 102.364C386.727 102.453 386.227 102.497 385.648 102.497C384.826 102.497 384.107 102.33 383.492 101.997C382.883 101.659 382.409 101.164 382.07 100.513C381.732 99.8617 381.562 99.0648 381.562 98.1221C381.562 97.2002 381.716 96.4033 382.023 95.7314C382.336 95.0544 382.773 94.5335 383.336 94.1689C383.904 93.8044 384.57 93.6221 385.336 93.6221ZM385.32 94.6846C384.628 94.6846 384.076 94.9111 383.664 95.3643C383.253 95.8174 383.008 96.4502 382.93 97.2627H387.461C387.456 96.7523 387.375 96.3044 387.219 95.9189C387.068 95.5283 386.836 95.2262 386.523 95.0127C386.211 94.7939 385.81 94.6846 385.32 94.6846ZM392.328 102.341H391.023V90.1846H392.328V102.341ZM408.523 93.6221C409.466 93.6221 410.177 93.8695 410.656 94.3643C411.135 94.8538 411.375 95.6429 411.375 96.7314V102.341H410.094V96.7939C410.094 96.1012 409.943 95.583 409.641 95.2393C409.344 94.8903 408.901 94.7158 408.312 94.7158C407.484 94.7158 406.883 94.9554 406.508 95.4346C406.133 95.9137 405.945 96.6195 405.945 97.5518V102.341H404.656V96.7939C404.656 96.3304 404.589 95.945 404.453 95.6377C404.323 95.3304 404.125 95.1012 403.859 94.9502C403.599 94.7939 403.268 94.7158 402.867 94.7158C402.299 94.7158 401.844 94.833 401.5 95.0674C401.156 95.3018 400.906 95.6507 400.75 96.1143C400.599 96.5726 400.523 97.1377 400.523 97.8096V102.341H399.227V93.7783H400.273L400.469 94.9893H400.539C400.711 94.6924 400.927 94.4424 401.188 94.2393C401.448 94.0361 401.74 93.8825 402.062 93.7783C402.385 93.6742 402.729 93.6221 403.094 93.6221C403.745 93.6221 404.289 93.7445 404.727 93.9893C405.169 94.2288 405.49 94.596 405.688 95.0908H405.758C406.039 94.596 406.424 94.2288 406.914 93.9893C407.404 93.7445 407.94 93.6221 408.523 93.6221ZM421.422 98.0439C421.422 98.7471 421.331 99.3747 421.148 99.9268C420.966 100.479 420.703 100.945 420.359 101.325C420.016 101.705 419.599 101.997 419.109 102.2C418.625 102.398 418.076 102.497 417.461 102.497C416.888 102.497 416.362 102.398 415.883 102.2C415.409 101.997 414.997 101.705 414.648 101.325C414.305 100.945 414.036 100.479 413.844 99.9268C413.656 99.3747 413.562 98.7471 413.562 98.0439C413.562 97.1064 413.721 96.3096 414.039 95.6533C414.357 94.9919 414.81 94.4893 415.398 94.1455C415.992 93.7965 416.698 93.6221 417.516 93.6221C418.297 93.6221 418.979 93.7965 419.562 94.1455C420.151 94.4945 420.607 94.9997 420.93 95.6611C421.258 96.3174 421.422 97.1117 421.422 98.0439ZM414.906 98.0439C414.906 98.7314 414.997 99.3278 415.18 99.833C415.362 100.338 415.643 100.729 416.023 101.005C416.404 101.281 416.893 101.419 417.492 101.419C418.086 101.419 418.573 101.281 418.953 101.005C419.339 100.729 419.622 100.338 419.805 99.833C419.987 99.3278 420.078 98.7314 420.078 98.0439C420.078 97.3617 419.987 96.7731 419.805 96.2783C419.622 95.7783 419.341 95.3929 418.961 95.1221C418.581 94.8512 418.089 94.7158 417.484 94.7158C416.594 94.7158 415.94 95.0101 415.523 95.5986C415.112 96.1872 414.906 97.0023 414.906 98.0439ZM427.719 93.6221C428.734 93.6221 429.503 93.8721 430.023 94.3721C430.544 94.8669 430.805 95.6637 430.805 96.7627V102.341H429.523V96.8486C429.523 96.1351 429.359 95.6012 429.031 95.2471C428.708 94.8929 428.211 94.7158 427.539 94.7158C426.591 94.7158 425.924 94.984 425.539 95.5205C425.154 96.057 424.961 96.8356 424.961 97.8564V102.341H423.664V93.7783H424.711L424.906 95.0127H424.977C425.159 94.7106 425.391 94.458 425.672 94.2549C425.953 94.0465 426.268 93.8903 426.617 93.7861C426.966 93.6768 427.333 93.6221 427.719 93.6221ZM436.242 101.435C436.456 101.435 436.674 101.416 436.898 101.38C437.122 101.343 437.305 101.299 437.445 101.247V102.255C437.294 102.323 437.083 102.38 436.812 102.427C436.547 102.474 436.286 102.497 436.031 102.497C435.578 102.497 435.167 102.419 434.797 102.263C434.427 102.101 434.13 101.83 433.906 101.45C433.688 101.07 433.578 100.544 433.578 99.8721V94.7939H432.359V94.1611L433.586 93.6533L434.102 91.7939H434.883V93.7783H437.391V94.7939H434.883V99.833C434.883 100.369 435.005 100.771 435.25 101.036C435.5 101.302 435.831 101.435 436.242 101.435ZM446.562 98.0439C446.562 98.7471 446.471 99.3747 446.289 99.9268C446.107 100.479 445.844 100.945 445.5 101.325C445.156 101.705 444.74 101.997 444.25 102.2C443.766 102.398 443.216 102.497 442.602 102.497C442.029 102.497 441.503 102.398 441.023 102.2C440.549 101.997 440.138 101.705 439.789 101.325C439.445 100.945 439.177 100.479 438.984 99.9268C438.797 99.3747 438.703 98.7471 438.703 98.0439C438.703 97.1064 438.862 96.3096 439.18 95.6533C439.497 94.9919 439.951 94.4893 440.539 94.1455C441.133 93.7965 441.839 93.6221 442.656 93.6221C443.438 93.6221 444.12 93.7965 444.703 94.1455C445.292 94.4945 445.747 94.9997 446.07 95.6611C446.398 96.3174 446.562 97.1117 446.562 98.0439ZM440.047 98.0439C440.047 98.7314 440.138 99.3278 440.32 99.833C440.503 100.338 440.784 100.729 441.164 101.005C441.544 101.281 442.034 101.419 442.633 101.419C443.227 101.419 443.714 101.281 444.094 101.005C444.479 100.729 444.763 100.338 444.945 99.833C445.128 99.3278 445.219 98.7314 445.219 98.0439C445.219 97.3617 445.128 96.7731 444.945 96.2783C444.763 95.7783 444.482 95.3929 444.102 95.1221C443.721 94.8512 443.229 94.7158 442.625 94.7158C441.734 94.7158 441.081 95.0101 440.664 95.5986C440.253 96.1872 440.047 97.0023 440.047 98.0439Z" fill="#5C6A7A"/>
</svg>
