<svg width="728" height="161" viewBox="0 0 728 161" fill="none" xmlns="http://www.w3.org/2000/svg">
<rect y="0.34082" width="728" height="160" rx="8" fill="#F3F6F9"/>
<path d="M262.106 58.5028C261.254 58.5028 260.504 58.3948 259.856 58.1788C259.208 57.9508 258.662 57.6148 258.218 57.1708C257.786 56.7268 257.456 56.1748 257.228 55.5148C257 54.8548 256.886 54.0928 256.886 53.2288V46.4608C256.886 46.1488 256.964 45.9148 257.12 45.7588C257.288 45.6028 257.522 45.5248 257.822 45.5248C258.122 45.5248 258.35 45.6028 258.506 45.7588C258.674 45.9148 258.758 46.1488 258.758 46.4608V53.1928C258.758 54.4288 259.04 55.3528 259.604 55.9648C260.18 56.5768 261.014 56.8828 262.106 56.8828C263.21 56.8828 264.044 56.5768 264.608 55.9648C265.172 55.3528 265.454 54.4288 265.454 53.1928V46.4608C265.454 46.1488 265.532 45.9148 265.688 45.7588C265.856 45.6028 266.084 45.5248 266.372 45.5248C266.672 45.5248 266.9 45.6028 267.056 45.7588C267.212 45.9148 267.29 46.1488 267.29 46.4608V53.2288C267.29 54.3808 267.092 55.3528 266.696 56.1448C266.312 56.9248 265.736 57.5128 264.968 57.9088C264.2 58.3048 263.246 58.5028 262.106 58.5028ZM270.879 58.4668C270.591 58.4668 270.369 58.3888 270.213 58.2328C270.057 58.0648 269.979 57.8368 269.979 57.5488V50.3488C269.979 50.0488 270.057 49.8208 270.213 49.6648C270.369 49.5088 270.585 49.4308 270.861 49.4308C271.149 49.4308 271.365 49.5088 271.509 49.6648C271.665 49.8208 271.743 50.0488 271.743 50.3488V51.7528L271.545 51.4288C271.809 50.7568 272.223 50.2528 272.787 49.9168C273.351 49.5688 273.999 49.3948 274.731 49.3948C275.427 49.3948 276.003 49.5268 276.459 49.7908C276.927 50.0428 277.275 50.4328 277.503 50.9608C277.731 51.4768 277.845 52.1308 277.845 52.9228V57.5488C277.845 57.8368 277.767 58.0648 277.611 58.2328C277.455 58.3888 277.233 58.4668 276.945 58.4668C276.645 58.4668 276.417 58.3888 276.261 58.2328C276.105 58.0648 276.027 57.8368 276.027 57.5488V53.0308C276.027 52.2748 275.877 51.7228 275.577 51.3748C275.289 51.0268 274.833 50.8528 274.209 50.8528C273.477 50.8528 272.889 51.0808 272.445 51.5368C272.013 51.9928 271.797 52.6048 271.797 53.3728V57.5488C271.797 58.1608 271.491 58.4668 270.879 58.4668ZM281.25 58.4488C280.962 58.4488 280.74 58.3648 280.584 58.1968C280.428 58.0168 280.35 57.7708 280.35 57.4588V50.4388C280.35 50.1268 280.428 49.8868 280.584 49.7188C280.74 49.5508 280.962 49.4668 281.25 49.4668C281.538 49.4668 281.76 49.5508 281.916 49.7188C282.084 49.8868 282.168 50.1268 282.168 50.4388V57.4588C282.168 57.7708 282.09 58.0168 281.934 58.1968C281.778 58.3648 281.55 58.4488 281.25 58.4488ZM281.25 47.5948C280.89 47.5948 280.608 47.5048 280.404 47.3248C280.212 47.1448 280.116 46.8928 280.116 46.5688C280.116 46.2328 280.212 45.9808 280.404 45.8128C280.608 45.6328 280.89 45.5428 281.25 45.5428C281.61 45.5428 281.886 45.6328 282.078 45.8128C282.282 45.9808 282.384 46.2328 282.384 46.5688C282.384 46.8928 282.282 47.1448 282.078 47.3248C281.886 47.5048 281.61 47.5948 281.25 47.5948ZM288.075 58.5028C287.307 58.5028 286.629 58.3228 286.041 57.9628C285.465 57.5908 285.015 57.0628 284.691 56.3788C284.367 55.6828 284.205 54.8728 284.205 53.9488C284.205 53.0008 284.367 52.1908 284.691 51.5188C285.015 50.8468 285.465 50.3248 286.041 49.9528C286.629 49.5808 287.307 49.3948 288.075 49.3948C288.843 49.3948 289.503 49.5868 290.055 49.9708C290.619 50.3428 290.997 50.8468 291.189 51.4828H290.991V46.4428C290.991 46.1428 291.069 45.9148 291.225 45.7588C291.381 45.6028 291.603 45.5248 291.891 45.5248C292.179 45.5248 292.401 45.6028 292.557 45.7588C292.725 45.9148 292.809 46.1428 292.809 46.4428V57.5488C292.809 57.8368 292.731 58.0648 292.575 58.2328C292.419 58.3888 292.197 58.4668 291.909 58.4668C291.621 58.4668 291.399 58.3888 291.243 58.2328C291.087 58.0648 291.009 57.8368 291.009 57.5488V55.9648L291.207 56.3608C291.015 57.0088 290.637 57.5308 290.073 57.9268C289.521 58.3108 288.855 58.5028 288.075 58.5028ZM288.543 57.0988C289.035 57.0988 289.467 56.9788 289.839 56.7388C290.211 56.4988 290.499 56.1448 290.703 55.6768C290.919 55.2088 291.027 54.6328 291.027 53.9488C291.027 52.9168 290.799 52.1368 290.343 51.6088C289.887 51.0808 289.287 50.8168 288.543 50.8168C288.039 50.8168 287.601 50.9368 287.229 51.1768C286.857 51.4048 286.563 51.7528 286.347 52.2208C286.143 52.6888 286.041 53.2648 286.041 53.9488C286.041 54.9688 286.269 55.7488 286.725 56.2888C287.181 56.8288 287.787 57.0988 288.543 57.0988ZM298.17 58.5028C297.558 58.5028 297.006 58.3828 296.514 58.1428C296.034 57.9028 295.656 57.5788 295.38 57.1708C295.104 56.7628 294.966 56.3008 294.966 55.7848C294.966 55.1368 295.128 54.6268 295.452 54.2548C295.788 53.8708 296.334 53.6008 297.09 53.4448C297.858 53.2768 298.89 53.1928 300.186 53.1928H301.032V54.3088H300.204C299.34 54.3088 298.656 54.3508 298.152 54.4348C297.648 54.5188 297.288 54.6628 297.072 54.8668C296.868 55.0588 296.766 55.3288 296.766 55.6768C296.766 56.1328 296.922 56.5048 297.234 56.7928C297.546 57.0688 297.978 57.2068 298.53 57.2068C298.974 57.2068 299.364 57.1048 299.7 56.9008C300.036 56.6848 300.3 56.3968 300.492 56.0368C300.696 55.6768 300.798 55.2628 300.798 54.7948V52.7248C300.798 52.0408 300.654 51.5488 300.366 51.2488C300.078 50.9488 299.604 50.7988 298.944 50.7988C298.56 50.7988 298.158 50.8468 297.738 50.9428C297.33 51.0388 296.904 51.2008 296.46 51.4288C296.256 51.5248 296.082 51.5548 295.938 51.5188C295.794 51.4828 295.68 51.4048 295.596 51.2848C295.512 51.1528 295.464 51.0148 295.452 50.8708C295.452 50.7148 295.488 50.5648 295.56 50.4208C295.644 50.2768 295.782 50.1688 295.974 50.0968C296.502 49.8448 297.024 49.6648 297.54 49.5568C298.056 49.4488 298.542 49.3948 298.998 49.3948C299.802 49.3948 300.462 49.5208 300.978 49.7728C301.506 50.0248 301.896 50.4088 302.148 50.9248C302.4 51.4408 302.526 52.1068 302.526 52.9228V57.5488C302.526 57.8368 302.454 58.0648 302.31 58.2328C302.166 58.3888 301.956 58.4668 301.68 58.4668C301.416 58.4668 301.206 58.3888 301.05 58.2328C300.894 58.0648 300.816 57.8368 300.816 57.5488V56.3788H300.978C300.882 56.8228 300.702 57.2068 300.438 57.5308C300.186 57.8428 299.868 58.0828 299.484 58.2508C299.1 58.4188 298.662 58.5028 298.17 58.5028ZM308.378 58.5028C307.61 58.5028 306.932 58.3228 306.344 57.9628C305.768 57.5908 305.318 57.0628 304.994 56.3788C304.67 55.6828 304.508 54.8728 304.508 53.9488C304.508 53.0008 304.67 52.1908 304.994 51.5188C305.318 50.8468 305.768 50.3248 306.344 49.9528C306.932 49.5808 307.61 49.3948 308.378 49.3948C309.146 49.3948 309.806 49.5868 310.358 49.9708C310.922 50.3428 311.3 50.8468 311.492 51.4828H311.294V46.4428C311.294 46.1428 311.372 45.9148 311.528 45.7588C311.684 45.6028 311.906 45.5248 312.194 45.5248C312.482 45.5248 312.704 45.6028 312.86 45.7588C313.028 45.9148 313.112 46.1428 313.112 46.4428V57.5488C313.112 57.8368 313.034 58.0648 312.878 58.2328C312.722 58.3888 312.5 58.4668 312.212 58.4668C311.924 58.4668 311.702 58.3888 311.546 58.2328C311.39 58.0648 311.312 57.8368 311.312 57.5488V55.9648L311.51 56.3608C311.318 57.0088 310.94 57.5308 310.376 57.9268C309.824 58.3108 309.158 58.5028 308.378 58.5028ZM308.846 57.0988C309.338 57.0988 309.77 56.9788 310.142 56.7388C310.514 56.4988 310.802 56.1448 311.006 55.6768C311.222 55.2088 311.33 54.6328 311.33 53.9488C311.33 52.9168 311.102 52.1368 310.646 51.6088C310.19 51.0808 309.59 50.8168 308.846 50.8168C308.342 50.8168 307.904 50.9368 307.532 51.1768C307.16 51.4048 306.866 51.7528 306.65 52.2208C306.446 52.6888 306.344 53.2648 306.344 53.9488C306.344 54.9688 306.572 55.7488 307.028 56.2888C307.484 56.8288 308.09 57.0988 308.846 57.0988ZM319.787 58.5028C318.827 58.5028 317.999 58.3228 317.303 57.9628C316.619 57.5908 316.085 57.0688 315.701 56.3968C315.329 55.7128 315.143 54.9028 315.143 53.9668C315.143 53.0548 315.329 52.2568 315.701 51.5728C316.073 50.8888 316.583 50.3548 317.231 49.9708C317.879 49.5868 318.617 49.3948 319.445 49.3948C320.057 49.3948 320.603 49.4968 321.083 49.7008C321.563 49.8928 321.971 50.1808 322.307 50.5648C322.655 50.9368 322.913 51.3928 323.081 51.9328C323.261 52.4728 323.351 53.0788 323.351 53.7508C323.351 53.9548 323.291 54.1108 323.171 54.2188C323.051 54.3148 322.871 54.3628 322.631 54.3628H316.583V53.2468H322.127L321.821 53.4988C321.821 52.8988 321.731 52.3888 321.551 51.9688C321.383 51.5488 321.125 51.2308 320.777 51.0148C320.441 50.7868 320.021 50.6728 319.517 50.6728C318.953 50.6728 318.473 50.8048 318.077 51.0688C317.693 51.3328 317.399 51.6988 317.195 52.1668C316.991 52.6348 316.889 53.1808 316.889 53.8048V53.9128C316.889 54.9688 317.135 55.7668 317.627 56.3068C318.131 56.8348 318.857 57.0988 319.805 57.0988C320.165 57.0988 320.543 57.0508 320.939 56.9548C321.347 56.8588 321.731 56.6968 322.091 56.4688C322.295 56.3488 322.475 56.2948 322.631 56.3068C322.799 56.3188 322.931 56.3728 323.027 56.4688C323.135 56.5648 323.201 56.6848 323.225 56.8288C323.249 56.9728 323.225 57.1228 323.153 57.2788C323.081 57.4228 322.955 57.5548 322.775 57.6748C322.367 57.9508 321.893 58.1608 321.353 58.3048C320.813 58.4368 320.291 58.5028 319.787 58.5028ZM328.411 58.5028C327.883 58.5028 327.337 58.4428 326.773 58.3228C326.221 58.2028 325.711 57.9988 325.243 57.7108C325.087 57.6028 324.979 57.4828 324.919 57.3508C324.859 57.2188 324.835 57.0868 324.847 56.9548C324.871 56.8108 324.925 56.6908 325.009 56.5948C325.105 56.4868 325.219 56.4208 325.351 56.3968C325.495 56.3728 325.645 56.4028 325.801 56.4868C326.269 56.7508 326.719 56.9368 327.151 57.0448C327.583 57.1408 328.009 57.1888 328.429 57.1888C329.065 57.1888 329.545 57.0748 329.869 56.8468C330.193 56.6188 330.355 56.3128 330.355 55.9288C330.355 55.6168 330.247 55.3768 330.031 55.2088C329.815 55.0288 329.491 54.8908 329.059 54.7948L327.349 54.4528C326.605 54.2968 326.041 54.0208 325.657 53.6248C325.273 53.2288 325.081 52.7248 325.081 52.1128C325.081 51.5608 325.231 51.0808 325.531 50.6728C325.831 50.2648 326.251 49.9528 326.791 49.7368C327.331 49.5088 327.955 49.3948 328.663 49.3948C329.191 49.3948 329.689 49.4608 330.157 49.5928C330.625 49.7248 331.057 49.9228 331.453 50.1868C331.609 50.2708 331.711 50.3848 331.759 50.5288C331.807 50.6608 331.813 50.7928 331.777 50.9248C331.753 51.0568 331.693 51.1768 331.597 51.2848C331.501 51.3808 331.381 51.4408 331.237 51.4648C331.105 51.4768 330.955 51.4408 330.787 51.3568C330.427 51.1288 330.067 50.9668 329.707 50.8708C329.359 50.7748 329.011 50.7268 328.663 50.7268C328.027 50.7268 327.547 50.8468 327.223 51.0868C326.911 51.3148 326.755 51.6268 326.755 52.0228C326.755 52.3228 326.851 52.5688 327.043 52.7608C327.235 52.9528 327.535 53.0908 327.943 53.1748L329.653 53.5168C330.433 53.6728 331.021 53.9368 331.417 54.3088C331.825 54.6808 332.029 55.1848 332.029 55.8208C332.029 56.6488 331.699 57.3028 331.039 57.7828C330.379 58.2628 329.503 58.5028 328.411 58.5028Z" fill="#101E37"/>
<rect x="256.5" y="73.3408" width="215" height="46" rx="7" fill="white"/>
<rect x="256.5" y="73.3408" width="215" height="46" rx="7" stroke="#101E37" stroke-width="2"/>
<mask id="path-4-inside-1_3270_17458" fill="white">
<path d="M425.5 84.3408H456.5V108.341H425.5V84.3408Z"/>
</mask>
<path d="M425.5 108.341H426.5V84.3408H425.5H424.5V108.341H425.5Z" fill="#101E37" mask="url(#path-4-inside-1_3270_17458)"/>
<path d="M443.297 102.341H441.727L437.609 96.7861L436.391 97.8799V102.341H435.062V90.9189H436.391V96.6143C436.688 96.2757 436.992 95.9398 437.305 95.6064C437.617 95.2679 437.927 94.9268 438.234 94.583L441.57 90.9189H443.125L438.578 95.8721L443.297 102.341ZM447.055 106.185C445.93 106.185 445.062 105.974 444.453 105.552C443.844 105.135 443.539 104.549 443.539 103.794C443.539 103.257 443.708 102.799 444.047 102.419C444.391 102.039 444.865 101.786 445.469 101.661C445.245 101.557 445.052 101.401 444.891 101.192C444.734 100.984 444.656 100.744 444.656 100.474C444.656 100.161 444.742 99.8877 444.914 99.6533C445.091 99.4137 445.359 99.1846 445.719 98.9658C445.271 98.7835 444.906 98.4762 444.625 98.0439C444.349 97.6064 444.211 97.0986 444.211 96.5205C444.211 95.9059 444.339 95.3825 444.594 94.9502C444.849 94.5127 445.219 94.1794 445.703 93.9502C446.188 93.721 446.773 93.6064 447.461 93.6064C447.612 93.6064 447.763 93.6143 447.914 93.6299C448.07 93.6403 448.219 93.6585 448.359 93.6846C448.5 93.7054 448.622 93.7314 448.727 93.7627H451.664V94.5986L450.086 94.7939C450.242 94.9971 450.372 95.2419 450.477 95.5283C450.581 95.8148 450.633 96.1325 450.633 96.4814C450.633 97.3356 450.344 98.0153 449.766 98.5205C449.188 99.0205 448.393 99.2705 447.383 99.2705C447.143 99.2705 446.898 99.2497 446.648 99.208C446.393 99.3486 446.198 99.5049 446.062 99.6768C445.932 99.8486 445.867 100.047 445.867 100.271C445.867 100.437 445.917 100.57 446.016 100.669C446.12 100.768 446.268 100.841 446.461 100.888C446.654 100.929 446.885 100.95 447.156 100.95H448.664C449.596 100.95 450.31 101.146 450.805 101.536C451.305 101.927 451.555 102.497 451.555 103.247C451.555 104.195 451.169 104.922 450.398 105.427C449.628 105.932 448.513 106.185 447.055 106.185ZM447.094 105.169C447.802 105.169 448.388 105.096 448.852 104.95C449.32 104.81 449.669 104.604 449.898 104.333C450.133 104.067 450.25 103.75 450.25 103.38C450.25 103.036 450.172 102.776 450.016 102.599C449.859 102.427 449.63 102.312 449.328 102.255C449.026 102.192 448.656 102.161 448.219 102.161H446.734C446.349 102.161 446.013 102.221 445.727 102.341C445.44 102.461 445.219 102.638 445.062 102.872C444.911 103.106 444.836 103.398 444.836 103.747C444.836 104.211 445.031 104.562 445.422 104.802C445.812 105.047 446.37 105.169 447.094 105.169ZM447.43 98.3252C448.049 98.3252 448.516 98.1689 448.828 97.8564C449.141 97.5439 449.297 97.0882 449.297 96.4893C449.297 95.8486 449.138 95.3695 448.82 95.0518C448.503 94.7288 448.034 94.5674 447.414 94.5674C446.82 94.5674 446.362 94.734 446.039 95.0674C445.721 95.3955 445.562 95.8773 445.562 96.5127C445.562 97.096 445.724 97.5439 446.047 97.8564C446.37 98.1689 446.831 98.3252 447.43 98.3252ZM453.156 101.528C453.156 101.164 453.245 100.906 453.422 100.755C453.599 100.599 453.815 100.521 454.07 100.521C454.336 100.521 454.56 100.599 454.742 100.755C454.924 100.906 455.016 101.164 455.016 101.528C455.016 101.888 454.924 102.151 454.742 102.317C454.56 102.479 454.336 102.56 454.07 102.56C453.815 102.56 453.599 102.479 453.422 102.317C453.245 102.151 453.156 101.888 453.156 101.528Z" fill="#101E37"/>
</svg>
