<svg width="728" height="222" viewBox="0 0 728 222" fill="none" xmlns="http://www.w3.org/2000/svg">
<rect x="1" y="1.03613" width="726" height="219.641" rx="7" fill="white"/>
<rect x="1" y="1.03613" width="726" height="219.641" rx="7" stroke="#E6EBF0" stroke-width="2"/>
<rect x="137" y="42.4102" width="168.835" height="18.2524" rx="4.56311" fill="#E6EBF0"/>
<rect x="314.961" y="40.0361" width="87.1262" height="23" rx="4.56311" fill="#F0CCFF"/>
<path d="M324.164 46.6351C325.1 46.6351 325.872 46.752 326.48 46.986C327.094 47.2147 327.551 47.5656 327.853 48.0387C328.154 48.5118 328.305 49.1149 328.305 49.8479C328.305 50.451 328.196 50.9553 327.978 51.3608C327.759 51.7611 327.473 52.086 327.12 52.3356C326.766 52.5851 326.389 52.7775 325.989 52.9127L329.116 58.0361H327.572L324.78 53.2792H322.41V58.0361H321.084V46.6351H324.164ZM324.086 47.7814H322.41V52.1562H324.219C325.149 52.1562 325.833 51.9665 326.27 51.587C326.712 51.2074 326.933 50.6486 326.933 49.9103C326.933 49.1357 326.699 48.5872 326.231 48.2649C325.768 47.9426 325.053 47.7814 324.086 47.7814ZM334.037 49.3333C334.765 49.3333 335.389 49.4944 335.908 49.8167C336.428 50.1391 336.826 50.5914 337.102 51.1736C337.377 51.7507 337.515 52.4266 337.515 53.2012V54.0044H331.612C331.627 55.0078 331.877 55.772 332.36 56.2971C332.844 56.8222 333.525 57.0847 334.403 57.0847C334.944 57.0847 335.422 57.0354 335.838 56.9366C336.254 56.8378 336.686 56.6922 337.133 56.4999V57.6384C336.701 57.8308 336.272 57.9711 335.846 58.0595C335.425 58.1479 334.926 58.1921 334.349 58.1921C333.527 58.1921 332.81 58.0257 332.196 57.693C331.588 57.3551 331.115 56.8612 330.777 56.2113C330.439 55.5615 330.27 54.7661 330.27 53.8251C330.27 52.9049 330.424 52.1094 330.73 51.4388C331.042 50.7629 331.479 50.2431 332.041 49.8791C332.607 49.5152 333.273 49.3333 334.037 49.3333ZM334.021 50.3938C333.33 50.3938 332.779 50.62 332.368 51.0723C331.957 51.5246 331.713 52.1562 331.635 52.9673H336.158C336.153 52.4578 336.072 52.0107 335.916 51.6259C335.766 51.236 335.534 50.9345 335.222 50.7213C334.91 50.503 334.51 50.3938 334.021 50.3938ZM345.446 61.8573V58.1921C345.446 57.9893 345.451 57.7554 345.461 57.4903C345.472 57.2251 345.49 56.9964 345.516 56.804H345.43C345.191 57.1991 344.85 57.5292 344.409 57.7944C343.967 58.0595 343.397 58.1921 342.701 58.1921C341.656 58.1921 340.816 57.823 340.182 57.0847C339.548 56.3465 339.231 55.2443 339.231 53.7783C339.231 52.8165 339.376 52.0055 339.667 51.3452C339.958 50.685 340.369 50.1859 340.899 49.8479C341.435 49.5048 342.059 49.3333 342.771 49.3333C343.452 49.3333 344.008 49.4684 344.44 49.7388C344.871 50.0039 345.209 50.3288 345.454 50.7135H345.516L345.711 49.4892H346.74V61.8573H345.446ZM342.943 57.1159C343.546 57.1159 344.029 57.0042 344.393 56.7806C344.757 56.5519 345.022 56.2087 345.188 55.7512C345.36 55.2937 345.451 54.7245 345.461 54.0434V53.7705C345.461 52.6683 345.274 51.8339 344.9 51.2672C344.526 50.6954 343.873 50.4094 342.943 50.4094C342.142 50.4094 341.547 50.7161 341.157 51.3296C340.767 51.9379 340.572 52.7645 340.572 53.8095C340.572 54.8544 340.767 55.6681 341.157 56.2503C341.547 56.8274 342.142 57.1159 342.943 57.1159ZM356.551 49.4892V58.0361H355.49L355.303 56.8352H355.233C355.056 57.1315 354.827 57.3811 354.546 57.5838C354.266 57.7866 353.948 57.9374 353.595 58.0361C353.247 58.1401 352.875 58.1921 352.48 58.1921C351.804 58.1921 351.237 58.0829 350.78 57.8646C350.322 57.6462 349.977 57.3083 349.743 56.8508C349.514 56.3933 349.399 55.8058 349.399 55.0884V49.4892H350.71V54.9948C350.71 55.707 350.871 56.2399 351.193 56.5935C351.515 56.9418 352.007 57.1159 352.667 57.1159C353.301 57.1159 353.806 56.9964 354.18 56.7572C354.559 56.5181 354.832 56.1671 354.999 55.7044C355.165 55.2366 355.248 54.6647 355.248 53.9888V49.4892H356.551ZM362.579 49.3333C363.306 49.3333 363.93 49.4944 364.45 49.8167C364.97 50.1391 365.368 50.5914 365.643 51.1736C365.919 51.7507 366.057 52.4266 366.057 53.2012V54.0044H360.153C360.169 55.0078 360.418 55.772 360.902 56.2971C361.385 56.8222 362.066 57.0847 362.945 57.0847C363.486 57.0847 363.964 57.0354 364.38 56.9366C364.796 56.8378 365.227 56.6922 365.674 56.4999V57.6384C365.243 57.8308 364.814 57.9711 364.388 58.0595C363.967 58.1479 363.468 58.1921 362.891 58.1921C362.069 58.1921 361.352 58.0257 360.738 57.693C360.13 57.3551 359.657 56.8612 359.319 56.2113C358.981 55.5615 358.812 54.7661 358.812 53.8251C358.812 52.9049 358.965 52.1094 359.272 51.4388C359.584 50.7629 360.021 50.2431 360.582 49.8791C361.149 49.5152 361.814 49.3333 362.579 49.3333ZM362.563 50.3938C361.872 50.3938 361.32 50.62 360.91 51.0723C360.499 51.5246 360.255 52.1562 360.177 52.9673H364.7C364.695 52.4578 364.614 52.0107 364.458 51.6259C364.307 51.236 364.076 50.9345 363.764 50.7213C363.452 50.503 363.052 50.3938 362.563 50.3938ZM372.139 49.3333C372.311 49.3333 372.49 49.3437 372.677 49.3644C372.865 49.38 373.031 49.4034 373.176 49.4346L373.013 50.6356C372.872 50.5992 372.716 50.5706 372.545 50.5498C372.373 50.529 372.212 50.5186 372.061 50.5186C371.718 50.5186 371.393 50.5888 371.087 50.7291C370.785 50.8643 370.52 51.0619 370.291 51.3218C370.062 51.5766 369.883 51.8859 369.753 52.2498C369.623 52.6085 369.558 53.0088 369.558 53.4507V58.0361H368.256V49.4892H369.332L369.472 51.0645H369.527C369.704 50.7473 369.917 50.4588 370.166 50.1989C370.416 49.9337 370.704 49.7232 371.032 49.5672C371.365 49.4112 371.734 49.3333 372.139 49.3333ZM376.085 49.4892V58.0361H374.791V49.4892H376.085ZM375.454 46.2919C375.667 46.2919 375.849 46.3621 375.999 46.5025C376.155 46.6377 376.233 46.8508 376.233 47.1419C376.233 47.4279 376.155 47.641 375.999 47.7814C375.849 47.9218 375.667 47.992 375.454 47.992C375.23 47.992 375.043 47.9218 374.892 47.7814C374.746 47.641 374.674 47.4279 374.674 47.1419C374.674 46.8508 374.746 46.6377 374.892 46.5025C375.043 46.3621 375.23 46.2919 375.454 46.2919ZM381.872 58.1921C380.79 58.1921 379.932 57.823 379.298 57.0847C378.669 56.3465 378.354 55.2495 378.354 53.7939C378.354 52.3226 378.677 51.2126 379.321 50.464C379.966 49.7102 380.824 49.3333 381.895 49.3333C382.347 49.3333 382.742 49.393 383.08 49.5126C383.418 49.6322 383.709 49.7934 383.954 49.9961C384.198 50.1937 384.403 50.4198 384.57 50.6746H384.663C384.643 50.5134 384.622 50.2924 384.601 50.0117C384.58 49.731 384.57 49.5022 384.57 49.3255V45.902H385.864V58.0361H384.819L384.624 56.8196H384.57C384.409 57.0743 384.203 57.3057 383.954 57.5136C383.709 57.7216 383.416 57.888 383.072 58.0127C382.735 58.1323 382.334 58.1921 381.872 58.1921ZM382.074 57.1159C382.989 57.1159 383.637 56.856 384.016 56.3361C384.396 55.8162 384.585 55.0442 384.585 54.02V53.7861C384.585 52.6995 384.403 51.8651 384.039 51.2828C383.681 50.7006 383.026 50.4094 382.074 50.4094C381.279 50.4094 380.684 50.7161 380.288 51.3296C379.893 51.9379 379.696 52.7697 379.696 53.8251C379.696 54.8752 379.891 55.6863 380.281 56.2581C380.676 56.83 381.274 57.1159 382.074 57.1159ZM395.979 53.7471C395.979 54.4489 395.888 55.0754 395.706 55.6265C395.524 56.1775 395.261 56.6428 394.918 57.0224C394.575 57.4019 394.159 57.693 393.67 57.8958C393.187 58.0933 392.638 58.1921 392.025 58.1921C391.453 58.1921 390.928 58.0933 390.45 57.8958C389.977 57.693 389.566 57.4019 389.218 57.0224C388.874 56.6428 388.607 56.1775 388.414 55.6265C388.227 55.0754 388.134 54.4489 388.134 53.7471C388.134 52.8113 388.292 52.0159 388.609 51.3608C388.926 50.7006 389.379 50.1989 389.966 49.8557C390.559 49.5074 391.263 49.3333 392.079 49.3333C392.859 49.3333 393.54 49.5074 394.123 49.8557C394.71 50.2041 395.165 50.7084 395.487 51.3686C395.815 52.0237 395.979 52.8165 395.979 53.7471ZM389.475 53.7471C389.475 54.4333 389.566 55.0286 389.748 55.5329C389.93 56.0372 390.21 56.4271 390.59 56.7026C390.97 56.9782 391.458 57.1159 392.056 57.1159C392.649 57.1159 393.135 56.9782 393.514 56.7026C393.899 56.4271 394.182 56.0372 394.364 55.5329C394.546 55.0286 394.637 54.4333 394.637 53.7471C394.637 53.066 394.546 52.4786 394.364 51.9847C394.182 51.4856 393.902 51.1009 393.522 50.8305C393.143 50.5602 392.651 50.425 392.048 50.425C391.159 50.425 390.507 50.7187 390.091 51.3062C389.68 51.8937 389.475 52.7073 389.475 53.7471Z" fill="#101E37"/>
<rect x="138.141" y="73.3029" width="467.718" height="52.4757" rx="7.98544" fill="white"/>
<rect x="138.141" y="73.3029" width="467.718" height="52.4757" rx="7.98544" stroke="#101E37" stroke-width="2.28155"/>
<rect x="137" y="136.046" width="470" height="18.2524" rx="4.56311" fill="#E6EBF0"/>
<rect x="137" y="163.424" width="314.854" height="18.2524" rx="4.56311" fill="#E6EBF0"/>
</svg>
