<svg width="728" height="129" viewBox="0 0 728 129" fill="none" xmlns="http://www.w3.org/2000/svg">
<rect y="0.34082" width="728" height="128" rx="8" fill="#F3F6F9"/>
<rect x="220" y="41.3408" width="288" height="46" rx="7" fill="white"/>
<rect x="220" y="41.3408" width="288" height="46" rx="7" stroke="#101E37" stroke-width="2"/>
<mask id="path-3-inside-1_3270_17438" fill="white">
<path d="M235 52.3408H305V76.3408H235V52.3408Z"/>
</mask>
<path d="M305 52.3408H304V76.3408H305H306V52.3408H305Z" fill="#101E37" mask="url(#path-3-inside-1_3270_17438)"/>
<path d="M245.492 70.3408H243.961L237.734 60.7471H237.672C237.688 61.0023 237.706 61.2939 237.727 61.6221C237.747 61.945 237.763 62.2913 237.773 62.6611C237.789 63.0257 237.797 63.3981 237.797 63.7783V70.3408H236.562V58.9189H238.086L244.289 68.4814H244.344C244.333 68.2992 244.32 68.0413 244.305 67.708C244.289 67.3695 244.273 67.0075 244.258 66.6221C244.247 66.2314 244.242 65.8695 244.242 65.5361V58.9189H245.492V70.3408ZM255.797 66.0439C255.797 66.7471 255.706 67.3747 255.523 67.9268C255.341 68.4788 255.078 68.945 254.734 69.3252C254.391 69.7054 253.974 69.9971 253.484 70.2002C253 70.3981 252.451 70.4971 251.836 70.4971C251.263 70.4971 250.737 70.3981 250.258 70.2002C249.784 69.9971 249.372 69.7054 249.023 69.3252C248.68 68.945 248.411 68.4788 248.219 67.9268C248.031 67.3747 247.938 66.7471 247.938 66.0439C247.938 65.1064 248.096 64.3096 248.414 63.6533C248.732 62.9919 249.185 62.4893 249.773 62.1455C250.367 61.7965 251.073 61.6221 251.891 61.6221C252.672 61.6221 253.354 61.7965 253.938 62.1455C254.526 62.4945 254.982 62.9997 255.305 63.6611C255.633 64.3174 255.797 65.1117 255.797 66.0439ZM249.281 66.0439C249.281 66.7314 249.372 67.3278 249.555 67.833C249.737 68.3382 250.018 68.7288 250.398 69.0049C250.779 69.2809 251.268 69.4189 251.867 69.4189C252.461 69.4189 252.948 69.2809 253.328 69.0049C253.714 68.7288 253.997 68.3382 254.18 67.833C254.362 67.3278 254.453 66.7314 254.453 66.0439C254.453 65.3617 254.362 64.7731 254.18 64.2783C253.997 63.7783 253.716 63.3929 253.336 63.1221C252.956 62.8512 252.464 62.7158 251.859 62.7158C250.969 62.7158 250.315 63.0101 249.898 63.5986C249.487 64.1872 249.281 65.0023 249.281 66.0439ZM267.336 61.6221C268.279 61.6221 268.99 61.8695 269.469 62.3643C269.948 62.8538 270.188 63.6429 270.188 64.7314V70.3408H268.906V64.7939C268.906 64.1012 268.755 63.583 268.453 63.2393C268.156 62.8903 267.714 62.7158 267.125 62.7158C266.297 62.7158 265.695 62.9554 265.32 63.4346C264.945 63.9137 264.758 64.6195 264.758 65.5518V70.3408H263.469V64.7939C263.469 64.3304 263.401 63.945 263.266 63.6377C263.135 63.3304 262.938 63.1012 262.672 62.9502C262.411 62.7939 262.081 62.7158 261.68 62.7158C261.112 62.7158 260.656 62.833 260.312 63.0674C259.969 63.3018 259.719 63.6507 259.562 64.1143C259.411 64.5726 259.336 65.1377 259.336 65.8096V70.3408H258.039V61.7783H259.086L259.281 62.9893H259.352C259.523 62.6924 259.74 62.4424 260 62.2393C260.26 62.0361 260.552 61.8825 260.875 61.7783C261.198 61.6742 261.542 61.6221 261.906 61.6221C262.557 61.6221 263.102 61.7445 263.539 61.9893C263.982 62.2288 264.302 62.596 264.5 63.0908H264.57C264.852 62.596 265.237 62.2288 265.727 61.9893C266.216 61.7445 266.753 61.6221 267.336 61.6221ZM274.148 58.1846V61.2236C274.148 61.5726 274.138 61.9111 274.117 62.2393C274.102 62.5674 274.089 62.8226 274.078 63.0049H274.148C274.383 62.6195 274.721 62.2939 275.164 62.0283C275.607 61.7627 276.172 61.6299 276.859 61.6299C277.932 61.6299 278.786 62.0023 279.422 62.7471C280.062 63.4867 280.383 64.5882 280.383 66.0518C280.383 67.0153 280.237 67.8278 279.945 68.4893C279.654 69.1507 279.242 69.6507 278.711 69.9893C278.18 70.3278 277.552 70.4971 276.828 70.4971C276.151 70.4971 275.594 70.3721 275.156 70.1221C274.724 69.8669 274.391 69.557 274.156 69.1924H274.055L273.789 70.3408H272.852V58.1846H274.148ZM276.648 62.7158C276.029 62.7158 275.536 62.8382 275.172 63.083C274.807 63.3226 274.544 63.6872 274.383 64.1768C274.227 64.6611 274.148 65.2757 274.148 66.0205V66.0908C274.148 67.1689 274.328 67.9945 274.688 68.5674C275.047 69.1351 275.701 69.4189 276.648 69.4189C277.445 69.4189 278.042 69.1273 278.438 68.5439C278.839 67.9606 279.039 67.1273 279.039 66.0439C279.039 64.9398 278.841 64.109 278.445 63.5518C278.055 62.9945 277.456 62.7158 276.648 62.7158ZM286.539 61.6221C286.711 61.6221 286.891 61.6325 287.078 61.6533C287.266 61.6689 287.432 61.6924 287.578 61.7236L287.414 62.9268C287.273 62.8903 287.117 62.8617 286.945 62.8408C286.773 62.82 286.612 62.8096 286.461 62.8096C286.117 62.8096 285.792 62.8799 285.484 63.0205C285.182 63.1559 284.917 63.3538 284.688 63.6143C284.458 63.8695 284.279 64.1794 284.148 64.5439C284.018 64.9033 283.953 65.3044 283.953 65.7471V70.3408H282.648V61.7783H283.727L283.867 63.3564H283.922C284.099 63.0387 284.312 62.7497 284.562 62.4893C284.812 62.2236 285.102 62.0127 285.43 61.8564C285.763 61.7002 286.133 61.6221 286.539 61.6221ZM292.492 61.6221C293.221 61.6221 293.846 61.7835 294.367 62.1064C294.888 62.4294 295.286 62.8825 295.562 63.4658C295.839 64.0439 295.977 64.721 295.977 65.4971V66.3018H290.062C290.078 67.307 290.328 68.0726 290.812 68.5986C291.297 69.1247 291.979 69.3877 292.859 69.3877C293.401 69.3877 293.88 69.3382 294.297 69.2393C294.714 69.1403 295.146 68.9945 295.594 68.8018V69.9424C295.161 70.1351 294.732 70.2757 294.305 70.3643C293.883 70.4528 293.383 70.4971 292.805 70.4971C291.982 70.4971 291.263 70.3304 290.648 69.9971C290.039 69.6585 289.565 69.1637 289.227 68.5127C288.888 67.8617 288.719 67.0648 288.719 66.1221C288.719 65.2002 288.872 64.4033 289.18 63.7314C289.492 63.0544 289.93 62.5335 290.492 62.1689C291.06 61.8044 291.727 61.6221 292.492 61.6221ZM292.477 62.6846C291.784 62.6846 291.232 62.9111 290.82 63.3643C290.409 63.8174 290.164 64.4502 290.086 65.2627H294.617C294.612 64.7523 294.531 64.3044 294.375 63.9189C294.224 63.5283 293.992 63.2262 293.68 63.0127C293.367 62.7939 292.966 62.6846 292.477 62.6846Z" fill="#101E37"/>
<path d="M320.922 70.3408H314.562V58.9189H320.922V60.0908H315.891V63.7861H320.633V64.9424H315.891V69.1689H320.922V70.3408ZM328.797 67.9971C328.797 68.5439 328.659 69.0049 328.383 69.3799C328.112 69.7497 327.721 70.0283 327.211 70.2158C326.706 70.4033 326.102 70.4971 325.398 70.4971C324.799 70.4971 324.281 70.4502 323.844 70.3564C323.406 70.2627 323.023 70.1299 322.695 69.958V68.7627C323.044 68.9346 323.461 69.0908 323.945 69.2314C324.43 69.3721 324.924 69.4424 325.43 69.4424C326.169 69.4424 326.706 69.3226 327.039 69.083C327.372 68.8434 327.539 68.5179 327.539 68.1064C327.539 67.8721 327.471 67.6663 327.336 67.4893C327.206 67.307 326.984 67.1325 326.672 66.9658C326.359 66.7939 325.927 66.6064 325.375 66.4033C324.828 66.195 324.354 65.9893 323.953 65.7861C323.557 65.5778 323.25 65.3252 323.031 65.0283C322.818 64.7314 322.711 64.346 322.711 63.8721C322.711 63.1481 323.003 62.5934 323.586 62.208C324.174 61.8174 324.945 61.6221 325.898 61.6221C326.414 61.6221 326.896 61.6742 327.344 61.7783C327.797 61.8773 328.219 62.0127 328.609 62.1846L328.172 63.2236C327.818 63.0726 327.44 62.945 327.039 62.8408C326.638 62.7367 326.229 62.6846 325.812 62.6846C325.214 62.6846 324.753 62.7835 324.43 62.9814C324.112 63.1794 323.953 63.4502 323.953 63.7939C323.953 64.0596 324.026 64.2783 324.172 64.4502C324.323 64.6221 324.562 64.7835 324.891 64.9346C325.219 65.0856 325.651 65.2627 326.188 65.4658C326.724 65.6637 327.188 65.8695 327.578 66.083C327.969 66.2913 328.268 66.5465 328.477 66.8486C328.69 67.1455 328.797 67.5283 328.797 67.9971ZM334.312 70.4971C333.542 70.4971 332.862 70.3382 332.273 70.0205C331.685 69.7028 331.227 69.2184 330.898 68.5674C330.57 67.9163 330.406 67.096 330.406 66.1064C330.406 65.07 330.578 64.2236 330.922 63.5674C331.271 62.9059 331.75 62.4163 332.359 62.0986C332.969 61.7809 333.661 61.6221 334.438 61.6221C334.865 61.6221 335.276 61.6663 335.672 61.7549C336.073 61.8382 336.401 61.945 336.656 62.0752L336.266 63.1611C336.005 63.057 335.703 62.9632 335.359 62.8799C335.021 62.7965 334.703 62.7549 334.406 62.7549C333.812 62.7549 333.318 62.8825 332.922 63.1377C332.531 63.3929 332.237 63.7679 332.039 64.2627C331.846 64.7575 331.75 65.3669 331.75 66.0908C331.75 66.7835 331.844 67.3747 332.031 67.8643C332.224 68.3538 332.508 68.7288 332.883 68.9893C333.263 69.2445 333.737 69.3721 334.305 69.3721C334.758 69.3721 335.167 69.3252 335.531 69.2314C335.896 69.1325 336.227 69.0179 336.523 68.8877V70.0439C336.237 70.1898 335.917 70.3018 335.562 70.3799C335.214 70.458 334.797 70.4971 334.312 70.4971ZM342.445 61.6221C342.617 61.6221 342.797 61.6325 342.984 61.6533C343.172 61.6689 343.339 61.6924 343.484 61.7236L343.32 62.9268C343.18 62.8903 343.023 62.8617 342.852 62.8408C342.68 62.82 342.518 62.8096 342.367 62.8096C342.023 62.8096 341.698 62.8799 341.391 63.0205C341.089 63.1559 340.823 63.3538 340.594 63.6143C340.365 63.8695 340.185 64.1794 340.055 64.5439C339.924 64.9033 339.859 65.3044 339.859 65.7471V70.3408H338.555V61.7783H339.633L339.773 63.3564H339.828C340.005 63.0387 340.219 62.7497 340.469 62.4893C340.719 62.2236 341.008 62.0127 341.336 61.8564C341.669 61.7002 342.039 61.6221 342.445 61.6221ZM346.398 61.7783V70.3408H345.102V61.7783H346.398ZM345.766 58.5752C345.979 58.5752 346.161 58.6455 346.312 58.7861C346.469 58.9215 346.547 59.1351 346.547 59.4268C346.547 59.7132 346.469 59.9268 346.312 60.0674C346.161 60.208 345.979 60.2783 345.766 60.2783C345.542 60.2783 345.354 60.208 345.203 60.0674C345.057 59.9268 344.984 59.7132 344.984 59.4268C344.984 59.1351 345.057 58.9215 345.203 58.7861C345.354 58.6455 345.542 58.5752 345.766 58.5752ZM350.445 58.1846V61.2236C350.445 61.5726 350.435 61.9111 350.414 62.2393C350.398 62.5674 350.385 62.8226 350.375 63.0049H350.445C350.68 62.6195 351.018 62.2939 351.461 62.0283C351.904 61.7627 352.469 61.6299 353.156 61.6299C354.229 61.6299 355.083 62.0023 355.719 62.7471C356.359 63.4867 356.68 64.5882 356.68 66.0518C356.68 67.0153 356.534 67.8278 356.242 68.4893C355.951 69.1507 355.539 69.6507 355.008 69.9893C354.477 70.3278 353.849 70.4971 353.125 70.4971C352.448 70.4971 351.891 70.3721 351.453 70.1221C351.021 69.8669 350.688 69.557 350.453 69.1924H350.352L350.086 70.3408H349.148V58.1846H350.445ZM352.945 62.7158C352.326 62.7158 351.833 62.8382 351.469 63.083C351.104 63.3226 350.841 63.6872 350.68 64.1768C350.523 64.6611 350.445 65.2757 350.445 66.0205V66.0908C350.445 67.1689 350.625 67.9945 350.984 68.5674C351.344 69.1351 351.997 69.4189 352.945 69.4189C353.742 69.4189 354.339 69.1273 354.734 68.5439C355.135 67.9606 355.336 67.1273 355.336 66.0439C355.336 64.9398 355.138 64.109 354.742 63.5518C354.352 62.9945 353.753 62.7158 352.945 62.7158ZM360.242 70.3408H358.945V61.7783H360.242V70.3408ZM361.859 58.083V58.2393C361.755 58.3903 361.612 58.5726 361.43 58.7861C361.253 58.9945 361.055 59.2158 360.836 59.4502C360.617 59.6794 360.396 59.8981 360.172 60.1064C359.953 60.3148 359.75 60.4945 359.562 60.6455H358.695V60.458C358.862 60.2601 359.044 60.0231 359.242 59.7471C359.44 59.4658 359.633 59.1794 359.82 58.8877C360.008 58.5908 360.164 58.3226 360.289 58.083H361.859ZM370.445 61.6221C371.174 61.6221 371.799 61.7835 372.32 62.1064C372.841 62.4294 373.24 62.8825 373.516 63.4658C373.792 64.0439 373.93 64.721 373.93 65.4971V66.3018H368.016C368.031 67.307 368.281 68.0726 368.766 68.5986C369.25 69.1247 369.932 69.3877 370.812 69.3877C371.354 69.3877 371.833 69.3382 372.25 69.2393C372.667 69.1403 373.099 68.9945 373.547 68.8018V69.9424C373.115 70.1351 372.685 70.2757 372.258 70.3643C371.836 70.4528 371.336 70.4971 370.758 70.4971C369.935 70.4971 369.216 70.3304 368.602 69.9971C367.992 69.6585 367.518 69.1637 367.18 68.5127C366.841 67.8617 366.672 67.0648 366.672 66.1221C366.672 65.2002 366.826 64.4033 367.133 63.7314C367.445 63.0544 367.883 62.5335 368.445 62.1689C369.013 61.8044 369.68 61.6221 370.445 61.6221ZM370.43 62.6846C369.737 62.6846 369.185 62.9111 368.773 63.3643C368.362 63.8174 368.117 64.4502 368.039 65.2627H372.57C372.565 64.7523 372.484 64.3044 372.328 63.9189C372.177 63.5283 371.945 63.2262 371.633 63.0127C371.32 62.7939 370.919 62.6846 370.43 62.6846ZM377.438 70.3408H376.133V58.1846H377.438V70.3408ZM388.391 61.6221C389.406 61.6221 390.174 61.8721 390.695 62.3721C391.216 62.8669 391.477 63.6637 391.477 64.7627V70.3408H390.195V64.8486C390.195 64.1351 390.031 63.6012 389.703 63.2471C389.38 62.8929 388.883 62.7158 388.211 62.7158C387.263 62.7158 386.596 62.984 386.211 63.5205C385.826 64.057 385.633 64.8356 385.633 65.8564V70.3408H384.336V61.7783H385.383L385.578 63.0127H385.648C385.831 62.7106 386.062 62.458 386.344 62.2549C386.625 62.0465 386.94 61.8903 387.289 61.7861C387.638 61.6768 388.005 61.6221 388.391 61.6221ZM401.531 66.0439C401.531 66.7471 401.44 67.3747 401.258 67.9268C401.076 68.4788 400.812 68.945 400.469 69.3252C400.125 69.7054 399.708 69.9971 399.219 70.2002C398.734 70.3981 398.185 70.4971 397.57 70.4971C396.997 70.4971 396.471 70.3981 395.992 70.2002C395.518 69.9971 395.107 69.7054 394.758 69.3252C394.414 68.945 394.146 68.4788 393.953 67.9268C393.766 67.3747 393.672 66.7471 393.672 66.0439C393.672 65.1064 393.831 64.3096 394.148 63.6533C394.466 62.9919 394.919 62.4893 395.508 62.1455C396.102 61.7965 396.807 61.6221 397.625 61.6221C398.406 61.6221 399.089 61.7965 399.672 62.1455C400.26 62.4945 400.716 62.9997 401.039 63.6611C401.367 64.3174 401.531 65.1117 401.531 66.0439ZM395.016 66.0439C395.016 66.7314 395.107 67.3278 395.289 67.833C395.471 68.3382 395.753 68.7288 396.133 69.0049C396.513 69.2809 397.003 69.4189 397.602 69.4189C398.195 69.4189 398.682 69.2809 399.062 69.0049C399.448 68.7288 399.732 68.3382 399.914 67.833C400.096 67.3278 400.188 66.7314 400.188 66.0439C400.188 65.3617 400.096 64.7731 399.914 64.2783C399.732 63.7783 399.451 63.3929 399.07 63.1221C398.69 62.8512 398.198 62.7158 397.594 62.7158C396.703 62.7158 396.049 63.0101 395.633 63.5986C395.221 64.1872 395.016 65.0023 395.016 66.0439ZM413.07 61.6221C414.013 61.6221 414.724 61.8695 415.203 62.3643C415.682 62.8538 415.922 63.6429 415.922 64.7314V70.3408H414.641V64.7939C414.641 64.1012 414.49 63.583 414.188 63.2393C413.891 62.8903 413.448 62.7158 412.859 62.7158C412.031 62.7158 411.43 62.9554 411.055 63.4346C410.68 63.9137 410.492 64.6195 410.492 65.5518V70.3408H409.203V64.7939C409.203 64.3304 409.135 63.945 409 63.6377C408.87 63.3304 408.672 63.1012 408.406 62.9502C408.146 62.7939 407.815 62.7158 407.414 62.7158C406.846 62.7158 406.391 62.833 406.047 63.0674C405.703 63.3018 405.453 63.6507 405.297 64.1143C405.146 64.5726 405.07 65.1377 405.07 65.8096V70.3408H403.773V61.7783H404.82L405.016 62.9893H405.086C405.258 62.6924 405.474 62.4424 405.734 62.2393C405.995 62.0361 406.286 61.8825 406.609 61.7783C406.932 61.6742 407.276 61.6221 407.641 61.6221C408.292 61.6221 408.836 61.7445 409.273 61.9893C409.716 62.2288 410.036 62.596 410.234 63.0908H410.305C410.586 62.596 410.971 62.2288 411.461 61.9893C411.951 61.7445 412.487 61.6221 413.07 61.6221ZM419.883 58.1846V61.2236C419.883 61.5726 419.872 61.9111 419.852 62.2393C419.836 62.5674 419.823 62.8226 419.812 63.0049H419.883C420.117 62.6195 420.456 62.2939 420.898 62.0283C421.341 61.7627 421.906 61.6299 422.594 61.6299C423.667 61.6299 424.521 62.0023 425.156 62.7471C425.797 63.4867 426.117 64.5882 426.117 66.0518C426.117 67.0153 425.971 67.8278 425.68 68.4893C425.388 69.1507 424.977 69.6507 424.445 69.9893C423.914 70.3278 423.286 70.4971 422.562 70.4971C421.885 70.4971 421.328 70.3721 420.891 70.1221C420.458 69.8669 420.125 69.557 419.891 69.1924H419.789L419.523 70.3408H418.586V58.1846H419.883ZM422.383 62.7158C421.763 62.7158 421.271 62.8382 420.906 63.083C420.542 63.3226 420.279 63.6872 420.117 64.1768C419.961 64.6611 419.883 65.2757 419.883 66.0205V66.0908C419.883 67.1689 420.062 67.9945 420.422 68.5674C420.781 69.1351 421.435 69.4189 422.383 69.4189C423.18 69.4189 423.776 69.1273 424.172 68.5439C424.573 67.9606 424.773 67.1273 424.773 66.0439C424.773 64.9398 424.576 64.109 424.18 63.5518C423.789 62.9945 423.19 62.7158 422.383 62.7158ZM432.273 61.6221C432.445 61.6221 432.625 61.6325 432.812 61.6533C433 61.6689 433.167 61.6924 433.312 61.7236L433.148 62.9268C433.008 62.8903 432.852 62.8617 432.68 62.8408C432.508 62.82 432.346 62.8096 432.195 62.8096C431.852 62.8096 431.526 62.8799 431.219 63.0205C430.917 63.1559 430.651 63.3538 430.422 63.6143C430.193 63.8695 430.013 64.1794 429.883 64.5439C429.753 64.9033 429.688 65.3044 429.688 65.7471V70.3408H428.383V61.7783H429.461L429.602 63.3564H429.656C429.833 63.0387 430.047 62.7497 430.297 62.4893C430.547 62.2236 430.836 62.0127 431.164 61.8564C431.497 61.7002 431.867 61.6221 432.273 61.6221ZM438.227 61.6221C438.956 61.6221 439.581 61.7835 440.102 62.1064C440.622 62.4294 441.021 62.8825 441.297 63.4658C441.573 64.0439 441.711 64.721 441.711 65.4971V66.3018H435.797C435.812 67.307 436.062 68.0726 436.547 68.5986C437.031 69.1247 437.714 69.3877 438.594 69.3877C439.135 69.3877 439.615 69.3382 440.031 69.2393C440.448 69.1403 440.88 68.9945 441.328 68.8018V69.9424C440.896 70.1351 440.466 70.2757 440.039 70.3643C439.617 70.4528 439.117 70.4971 438.539 70.4971C437.716 70.4971 436.997 70.3304 436.383 69.9971C435.773 69.6585 435.299 69.1637 434.961 68.5127C434.622 67.8617 434.453 67.0648 434.453 66.1221C434.453 65.2002 434.607 64.4033 434.914 63.7314C435.227 63.0544 435.664 62.5335 436.227 62.1689C436.794 61.8044 437.461 61.6221 438.227 61.6221ZM438.211 62.6846C437.518 62.6846 436.966 62.9111 436.555 63.3643C436.143 63.8174 435.898 64.4502 435.82 65.2627H440.352C440.346 64.7523 440.266 64.3044 440.109 63.9189C439.958 63.5283 439.727 63.2262 439.414 63.0127C439.102 62.7939 438.701 62.6846 438.211 62.6846Z" fill="#5C6A7A"/>
</svg>
