<svg width="728" height="129" viewBox="0 0 728 129" fill="none" xmlns="http://www.w3.org/2000/svg">
<rect y="0.34082" width="728" height="128" rx="8" fill="#F3F6F9"/>
<rect x="256.5" y="41.3408" width="215" height="46" rx="7" fill="white"/>
<rect x="256.5" y="41.3408" width="215" height="46" rx="7" stroke="#101E37" stroke-width="2"/>
<mask id="path-3-inside-1_3270_17452" fill="white">
<path d="M425.5 52.3408H456.5V76.3408H425.5V52.3408Z"/>
</mask>
<path d="M425.5 76.3408H426.5V52.3408H425.5H424.5V76.3408H425.5Z" fill="#101E37" mask="url(#path-3-inside-1_3270_17452)"/>
<path d="M443.297 70.3408H441.727L437.609 64.7861L436.391 65.8799V70.3408H435.062V58.9189H436.391V64.6143C436.688 64.2757 436.992 63.9398 437.305 63.6064C437.617 63.2679 437.927 62.9268 438.234 62.583L441.57 58.9189H443.125L438.578 63.8721L443.297 70.3408ZM447.055 74.1846C445.93 74.1846 445.062 73.9736 444.453 73.5518C443.844 73.1351 443.539 72.5492 443.539 71.7939C443.539 71.2575 443.708 70.7992 444.047 70.4189C444.391 70.0387 444.865 69.7861 445.469 69.6611C445.245 69.557 445.052 69.4007 444.891 69.1924C444.734 68.984 444.656 68.7445 444.656 68.4736C444.656 68.1611 444.742 67.8877 444.914 67.6533C445.091 67.4137 445.359 67.1846 445.719 66.9658C445.271 66.7835 444.906 66.4762 444.625 66.0439C444.349 65.6064 444.211 65.0986 444.211 64.5205C444.211 63.9059 444.339 63.3825 444.594 62.9502C444.849 62.5127 445.219 62.1794 445.703 61.9502C446.188 61.721 446.773 61.6064 447.461 61.6064C447.612 61.6064 447.763 61.6143 447.914 61.6299C448.07 61.6403 448.219 61.6585 448.359 61.6846C448.5 61.7054 448.622 61.7314 448.727 61.7627H451.664V62.5986L450.086 62.7939C450.242 62.9971 450.372 63.2419 450.477 63.5283C450.581 63.8148 450.633 64.1325 450.633 64.4814C450.633 65.3356 450.344 66.0153 449.766 66.5205C449.188 67.0205 448.393 67.2705 447.383 67.2705C447.143 67.2705 446.898 67.2497 446.648 67.208C446.393 67.3486 446.198 67.5049 446.062 67.6768C445.932 67.8486 445.867 68.0465 445.867 68.2705C445.867 68.4372 445.917 68.57 446.016 68.6689C446.12 68.7679 446.268 68.8408 446.461 68.8877C446.654 68.9294 446.885 68.9502 447.156 68.9502H448.664C449.596 68.9502 450.31 69.1455 450.805 69.5361C451.305 69.9268 451.555 70.4971 451.555 71.2471C451.555 72.195 451.169 72.9215 450.398 73.4268C449.628 73.932 448.513 74.1846 447.055 74.1846ZM447.094 73.1689C447.802 73.1689 448.388 73.096 448.852 72.9502C449.32 72.8096 449.669 72.6038 449.898 72.333C450.133 72.0674 450.25 71.7497 450.25 71.3799C450.25 71.0361 450.172 70.7757 450.016 70.5986C449.859 70.4268 449.63 70.3122 449.328 70.2549C449.026 70.1924 448.656 70.1611 448.219 70.1611H446.734C446.349 70.1611 446.013 70.221 445.727 70.3408C445.44 70.4606 445.219 70.6377 445.062 70.8721C444.911 71.1064 444.836 71.3981 444.836 71.7471C444.836 72.2106 445.031 72.5622 445.422 72.8018C445.812 73.0465 446.37 73.1689 447.094 73.1689ZM447.43 66.3252C448.049 66.3252 448.516 66.1689 448.828 65.8564C449.141 65.5439 449.297 65.0882 449.297 64.4893C449.297 63.8486 449.138 63.3695 448.82 63.0518C448.503 62.7288 448.034 62.5674 447.414 62.5674C446.82 62.5674 446.362 62.734 446.039 63.0674C445.721 63.3955 445.562 63.8773 445.562 64.5127C445.562 65.096 445.724 65.5439 446.047 65.8564C446.37 66.1689 446.831 66.3252 447.43 66.3252ZM453.156 69.5283C453.156 69.1637 453.245 68.9059 453.422 68.7549C453.599 68.5986 453.815 68.5205 454.07 68.5205C454.336 68.5205 454.56 68.5986 454.742 68.7549C454.924 68.9059 455.016 69.1637 455.016 69.5283C455.016 69.8877 454.924 70.1507 454.742 70.3174C454.56 70.4788 454.336 70.5596 454.07 70.5596C453.815 70.5596 453.599 70.4788 453.422 70.3174C453.245 70.1507 453.156 69.8877 453.156 69.5283Z" fill="#101E37"/>
</svg>
