<svg width="728" height="232" viewBox="0 0 728 232" fill="none" xmlns="http://www.w3.org/2000/svg">
<rect x="1" y="1" width="726" height="230" rx="7" fill="#F3F6F9"/>
<rect x="1" y="1" width="726" height="230" rx="7" stroke="#E6EBF0" stroke-width="2"/>
<path d="M305.5 110.705C305.11 110.315 304.48 110.315 304.09 110.705L299.5 115.295C299.11 115.685 299.11 116.315 299.5 116.705L304.09 121.295C304.48 121.685 305.11 121.685 305.5 121.295C305.89 120.905 305.89 120.275 305.5 119.885L301.62 115.995L305.5 112.115C305.89 111.725 305.88 111.085 305.5 110.705Z" fill="#101E37"/>
<g clip-path="url(#clip0_742_9234)">
<path d="M327.047 110.578C328.521 110.578 329.596 110.867 330.273 111.445C330.956 112.018 331.297 112.841 331.297 113.914C331.297 114.398 331.216 114.859 331.055 115.297C330.898 115.729 330.643 116.112 330.289 116.445C329.935 116.773 329.469 117.034 328.891 117.227C328.318 117.414 327.615 117.508 326.781 117.508H325.391V122H324.062V110.578H327.047ZM326.922 111.711H325.391V116.367H326.633C327.362 116.367 327.969 116.289 328.453 116.133C328.943 115.977 329.31 115.724 329.555 115.375C329.799 115.021 329.922 114.552 329.922 113.969C329.922 113.208 329.68 112.643 329.195 112.273C328.711 111.898 327.953 111.711 326.922 111.711ZM336.695 113.297C337.716 113.297 338.474 113.526 338.969 113.984C339.464 114.443 339.711 115.174 339.711 116.18V122H338.766L338.516 120.734H338.453C338.214 121.047 337.964 121.31 337.703 121.523C337.443 121.732 337.141 121.891 336.797 122C336.458 122.104 336.042 122.156 335.547 122.156C335.026 122.156 334.562 122.065 334.156 121.883C333.755 121.701 333.438 121.424 333.203 121.055C332.974 120.685 332.859 120.216 332.859 119.648C332.859 118.794 333.198 118.138 333.875 117.68C334.552 117.221 335.583 116.971 336.969 116.93L338.445 116.867V116.344C338.445 115.604 338.286 115.086 337.969 114.789C337.651 114.492 337.203 114.344 336.625 114.344C336.177 114.344 335.75 114.409 335.344 114.539C334.938 114.669 334.552 114.823 334.188 115L333.789 114.016C334.174 113.818 334.617 113.648 335.117 113.508C335.617 113.367 336.143 113.297 336.695 113.297ZM338.43 117.781L337.125 117.836C336.057 117.878 335.305 118.052 334.867 118.359C334.43 118.667 334.211 119.102 334.211 119.664C334.211 120.154 334.359 120.516 334.656 120.75C334.953 120.984 335.346 121.102 335.836 121.102C336.596 121.102 337.219 120.891 337.703 120.469C338.188 120.047 338.43 119.414 338.43 118.57V117.781ZM338.836 109.742V109.898C338.732 110.049 338.589 110.232 338.406 110.445C338.229 110.654 338.031 110.875 337.812 111.109C337.594 111.339 337.372 111.557 337.148 111.766C336.93 111.974 336.727 112.154 336.539 112.305H335.672V112.117C335.839 111.919 336.021 111.682 336.219 111.406C336.417 111.125 336.609 110.839 336.797 110.547C336.984 110.25 337.141 109.982 337.266 109.742H338.836ZM344.773 125.844C343.648 125.844 342.781 125.633 342.172 125.211C341.562 124.794 341.258 124.208 341.258 123.453C341.258 122.917 341.427 122.458 341.766 122.078C342.109 121.698 342.583 121.445 343.188 121.32C342.964 121.216 342.771 121.06 342.609 120.852C342.453 120.643 342.375 120.404 342.375 120.133C342.375 119.82 342.461 119.547 342.633 119.312C342.81 119.073 343.078 118.844 343.438 118.625C342.99 118.443 342.625 118.135 342.344 117.703C342.068 117.266 341.93 116.758 341.93 116.18C341.93 115.565 342.057 115.042 342.312 114.609C342.568 114.172 342.938 113.839 343.422 113.609C343.906 113.38 344.492 113.266 345.18 113.266C345.331 113.266 345.482 113.273 345.633 113.289C345.789 113.299 345.938 113.318 346.078 113.344C346.219 113.365 346.341 113.391 346.445 113.422H349.383V114.258L347.805 114.453C347.961 114.656 348.091 114.901 348.195 115.188C348.299 115.474 348.352 115.792 348.352 116.141C348.352 116.995 348.062 117.674 347.484 118.18C346.906 118.68 346.112 118.93 345.102 118.93C344.862 118.93 344.617 118.909 344.367 118.867C344.112 119.008 343.917 119.164 343.781 119.336C343.651 119.508 343.586 119.706 343.586 119.93C343.586 120.096 343.635 120.229 343.734 120.328C343.839 120.427 343.987 120.5 344.18 120.547C344.372 120.589 344.604 120.609 344.875 120.609H346.383C347.315 120.609 348.029 120.805 348.523 121.195C349.023 121.586 349.273 122.156 349.273 122.906C349.273 123.854 348.888 124.581 348.117 125.086C347.346 125.591 346.232 125.844 344.773 125.844ZM344.812 124.828C345.521 124.828 346.107 124.755 346.57 124.609C347.039 124.469 347.388 124.263 347.617 123.992C347.852 123.727 347.969 123.409 347.969 123.039C347.969 122.695 347.891 122.435 347.734 122.258C347.578 122.086 347.349 121.971 347.047 121.914C346.745 121.852 346.375 121.82 345.938 121.82H344.453C344.068 121.82 343.732 121.88 343.445 122C343.159 122.12 342.938 122.297 342.781 122.531C342.63 122.766 342.555 123.057 342.555 123.406C342.555 123.87 342.75 124.221 343.141 124.461C343.531 124.706 344.089 124.828 344.812 124.828ZM345.148 117.984C345.768 117.984 346.234 117.828 346.547 117.516C346.859 117.203 347.016 116.747 347.016 116.148C347.016 115.508 346.857 115.029 346.539 114.711C346.221 114.388 345.753 114.227 345.133 114.227C344.539 114.227 344.081 114.393 343.758 114.727C343.44 115.055 343.281 115.536 343.281 116.172C343.281 116.755 343.443 117.203 343.766 117.516C344.089 117.828 344.549 117.984 345.148 117.984ZM352.367 113.438V122H351.07V113.438H352.367ZM351.734 110.234C351.948 110.234 352.13 110.305 352.281 110.445C352.438 110.581 352.516 110.794 352.516 111.086C352.516 111.372 352.438 111.586 352.281 111.727C352.13 111.867 351.948 111.938 351.734 111.938C351.51 111.938 351.323 111.867 351.172 111.727C351.026 111.586 350.953 111.372 350.953 111.086C350.953 110.794 351.026 110.581 351.172 110.445C351.323 110.305 351.51 110.234 351.734 110.234ZM359.172 113.281C360.188 113.281 360.956 113.531 361.477 114.031C361.997 114.526 362.258 115.323 362.258 116.422V122H360.977V116.508C360.977 115.794 360.812 115.26 360.484 114.906C360.161 114.552 359.664 114.375 358.992 114.375C358.044 114.375 357.378 114.643 356.992 115.18C356.607 115.716 356.414 116.495 356.414 117.516V122H355.117V113.438H356.164L356.359 114.672H356.43C356.612 114.37 356.844 114.117 357.125 113.914C357.406 113.706 357.721 113.549 358.07 113.445C358.419 113.336 358.786 113.281 359.172 113.281ZM368.133 113.297C369.154 113.297 369.911 113.526 370.406 113.984C370.901 114.443 371.148 115.174 371.148 116.18V122H370.203L369.953 120.734H369.891C369.651 121.047 369.401 121.31 369.141 121.523C368.88 121.732 368.578 121.891 368.234 122C367.896 122.104 367.479 122.156 366.984 122.156C366.464 122.156 366 122.065 365.594 121.883C365.193 121.701 364.875 121.424 364.641 121.055C364.411 120.685 364.297 120.216 364.297 119.648C364.297 118.794 364.635 118.138 365.312 117.68C365.99 117.221 367.021 116.971 368.406 116.93L369.883 116.867V116.344C369.883 115.604 369.724 115.086 369.406 114.789C369.089 114.492 368.641 114.344 368.062 114.344C367.615 114.344 367.188 114.409 366.781 114.539C366.375 114.669 365.99 114.823 365.625 115L365.227 114.016C365.612 113.818 366.055 113.648 366.555 113.508C367.055 113.367 367.581 113.297 368.133 113.297ZM369.867 117.781L368.562 117.836C367.495 117.878 366.742 118.052 366.305 118.359C365.867 118.667 365.648 119.102 365.648 119.664C365.648 120.154 365.797 120.516 366.094 120.75C366.391 120.984 366.784 121.102 367.273 121.102C368.034 121.102 368.656 120.891 369.141 120.469C369.625 120.047 369.867 119.414 369.867 118.57V117.781ZM381.18 113.297C382.201 113.297 382.958 113.526 383.453 113.984C383.948 114.443 384.195 115.174 384.195 116.18V122H383.25L383 120.734H382.938C382.698 121.047 382.448 121.31 382.188 121.523C381.927 121.732 381.625 121.891 381.281 122C380.943 122.104 380.526 122.156 380.031 122.156C379.51 122.156 379.047 122.065 378.641 121.883C378.24 121.701 377.922 121.424 377.688 121.055C377.458 120.685 377.344 120.216 377.344 119.648C377.344 118.794 377.682 118.138 378.359 117.68C379.036 117.221 380.068 116.971 381.453 116.93L382.93 116.867V116.344C382.93 115.604 382.771 115.086 382.453 114.789C382.135 114.492 381.688 114.344 381.109 114.344C380.661 114.344 380.234 114.409 379.828 114.539C379.422 114.669 379.036 114.823 378.672 115L378.273 114.016C378.659 113.818 379.102 113.648 379.602 113.508C380.102 113.367 380.628 113.297 381.18 113.297ZM382.914 117.781L381.609 117.836C380.542 117.878 379.789 118.052 379.352 118.359C378.914 118.667 378.695 119.102 378.695 119.664C378.695 120.154 378.844 120.516 379.141 120.75C379.438 120.984 379.831 121.102 380.32 121.102C381.081 121.102 381.703 120.891 382.188 120.469C382.672 120.047 382.914 119.414 382.914 118.57V117.781ZM390.922 113.281C391.938 113.281 392.706 113.531 393.227 114.031C393.747 114.526 394.008 115.323 394.008 116.422V122H392.727V116.508C392.727 115.794 392.562 115.26 392.234 114.906C391.911 114.552 391.414 114.375 390.742 114.375C389.794 114.375 389.128 114.643 388.742 115.18C388.357 115.716 388.164 116.495 388.164 117.516V122H386.867V113.438H387.914L388.109 114.672H388.18C388.362 114.37 388.594 114.117 388.875 113.914C389.156 113.706 389.471 113.549 389.82 113.445C390.169 113.336 390.536 113.281 390.922 113.281ZM399.445 121.094C399.659 121.094 399.878 121.076 400.102 121.039C400.326 121.003 400.508 120.958 400.648 120.906V121.914C400.497 121.982 400.286 122.039 400.016 122.086C399.75 122.133 399.49 122.156 399.234 122.156C398.781 122.156 398.37 122.078 398 121.922C397.63 121.76 397.333 121.49 397.109 121.109C396.891 120.729 396.781 120.203 396.781 119.531V114.453H395.562V113.82L396.789 113.312L397.305 111.453H398.086V113.438H400.594V114.453H398.086V119.492C398.086 120.029 398.208 120.43 398.453 120.695C398.703 120.961 399.034 121.094 399.445 121.094ZM405.68 113.281C406.409 113.281 407.034 113.443 407.555 113.766C408.076 114.089 408.474 114.542 408.75 115.125C409.026 115.703 409.164 116.38 409.164 117.156V117.961H403.25C403.266 118.966 403.516 119.732 404 120.258C404.484 120.784 405.167 121.047 406.047 121.047C406.589 121.047 407.068 120.997 407.484 120.898C407.901 120.799 408.333 120.654 408.781 120.461V121.602C408.349 121.794 407.919 121.935 407.492 122.023C407.07 122.112 406.57 122.156 405.992 122.156C405.169 122.156 404.451 121.99 403.836 121.656C403.227 121.318 402.753 120.823 402.414 120.172C402.076 119.521 401.906 118.724 401.906 117.781C401.906 116.859 402.06 116.062 402.367 115.391C402.68 114.714 403.117 114.193 403.68 113.828C404.247 113.464 404.914 113.281 405.68 113.281ZM405.664 114.344C404.971 114.344 404.419 114.57 404.008 115.023C403.596 115.477 403.352 116.109 403.273 116.922H407.805C407.799 116.411 407.719 115.964 407.562 115.578C407.411 115.188 407.18 114.885 406.867 114.672C406.555 114.453 406.154 114.344 405.664 114.344ZM415.258 113.281C415.43 113.281 415.609 113.292 415.797 113.312C415.984 113.328 416.151 113.352 416.297 113.383L416.133 114.586C415.992 114.549 415.836 114.521 415.664 114.5C415.492 114.479 415.331 114.469 415.18 114.469C414.836 114.469 414.51 114.539 414.203 114.68C413.901 114.815 413.635 115.013 413.406 115.273C413.177 115.529 412.997 115.839 412.867 116.203C412.737 116.562 412.672 116.964 412.672 117.406V122H411.367V113.438H412.445L412.586 115.016H412.641C412.818 114.698 413.031 114.409 413.281 114.148C413.531 113.883 413.82 113.672 414.148 113.516C414.482 113.359 414.852 113.281 415.258 113.281ZM419.211 113.438V122H417.914V113.438H419.211ZM418.578 110.234C418.792 110.234 418.974 110.305 419.125 110.445C419.281 110.581 419.359 110.794 419.359 111.086C419.359 111.372 419.281 111.586 419.125 111.727C418.974 111.867 418.792 111.938 418.578 111.938C418.354 111.938 418.167 111.867 418.016 111.727C417.87 111.586 417.797 111.372 417.797 111.086C417.797 110.794 417.87 110.581 418.016 110.445C418.167 110.305 418.354 110.234 418.578 110.234ZM429.344 117.703C429.344 118.406 429.253 119.034 429.07 119.586C428.888 120.138 428.625 120.604 428.281 120.984C427.938 121.365 427.521 121.656 427.031 121.859C426.547 122.057 425.997 122.156 425.383 122.156C424.81 122.156 424.284 122.057 423.805 121.859C423.331 121.656 422.919 121.365 422.57 120.984C422.227 120.604 421.958 120.138 421.766 119.586C421.578 119.034 421.484 118.406 421.484 117.703C421.484 116.766 421.643 115.969 421.961 115.312C422.279 114.651 422.732 114.148 423.32 113.805C423.914 113.456 424.62 113.281 425.438 113.281C426.219 113.281 426.901 113.456 427.484 113.805C428.073 114.154 428.529 114.659 428.852 115.32C429.18 115.977 429.344 116.771 429.344 117.703ZM422.828 117.703C422.828 118.391 422.919 118.987 423.102 119.492C423.284 119.997 423.565 120.388 423.945 120.664C424.326 120.94 424.815 121.078 425.414 121.078C426.008 121.078 426.495 120.94 426.875 120.664C427.26 120.388 427.544 119.997 427.727 119.492C427.909 118.987 428 118.391 428 117.703C428 117.021 427.909 116.432 427.727 115.938C427.544 115.438 427.263 115.052 426.883 114.781C426.503 114.51 426.01 114.375 425.406 114.375C424.516 114.375 423.862 114.669 423.445 115.258C423.034 115.846 422.828 116.661 422.828 117.703ZM435.477 113.281C435.648 113.281 435.828 113.292 436.016 113.312C436.203 113.328 436.37 113.352 436.516 113.383L436.352 114.586C436.211 114.549 436.055 114.521 435.883 114.5C435.711 114.479 435.549 114.469 435.398 114.469C435.055 114.469 434.729 114.539 434.422 114.68C434.12 114.815 433.854 115.013 433.625 115.273C433.396 115.529 433.216 115.839 433.086 116.203C432.956 116.562 432.891 116.964 432.891 117.406V122H431.586V113.438H432.664L432.805 115.016H432.859C433.036 114.698 433.25 114.409 433.5 114.148C433.75 113.883 434.039 113.672 434.367 113.516C434.701 113.359 435.07 113.281 435.477 113.281Z" fill="#101E37"/>
<path d="M322.5 124.52H436.758V126.52H322.5V124.52Z" fill="#101E37"/>
</g>
<defs>
<clipPath id="clip0_742_9234">
<rect width="115" height="24" fill="white" transform="translate(322.5 104)"/>
</clipPath>
</defs>
</svg>
