<svg width="728" height="156" viewBox="0 0 728 156" fill="none" xmlns="http://www.w3.org/2000/svg">
<rect x="1" y="1" width="726" height="153.906" rx="7" fill="#F3F6F9"/>
<rect x="1" y="1" width="726" height="153.906" rx="7" stroke="#E6EBF0" stroke-width="2"/>
<path d="M96.6396 73.8877C96.0882 73.8877 95.5915 73.9834 95.1494 74.1748C94.7119 74.3617 94.3382 74.6351 94.0283 74.9951C93.723 75.3506 93.4883 75.7812 93.3242 76.2871C93.1602 76.793 93.0781 77.3626 93.0781 77.9961C93.0781 78.8346 93.208 79.5638 93.4678 80.1836C93.7321 80.7988 94.124 81.2751 94.6436 81.6123C95.1676 81.9495 95.8216 82.1182 96.6055 82.1182C97.0521 82.1182 97.4714 82.0817 97.8633 82.0088C98.2598 81.9313 98.6449 81.8356 99.0186 81.7217V82.7334C98.654 82.8701 98.2712 82.9704 97.8701 83.0342C97.4691 83.1025 96.9928 83.1367 96.4414 83.1367C95.4251 83.1367 94.5752 82.9271 93.8916 82.5078C93.2126 82.084 92.7021 81.487 92.3604 80.7168C92.0231 79.9466 91.8545 79.0374 91.8545 77.9893C91.8545 77.2327 91.9593 76.5423 92.1689 75.918C92.3831 75.2891 92.693 74.7467 93.0986 74.291C93.5088 73.8353 94.0101 73.4844 94.6025 73.2383C95.1995 72.9876 95.8831 72.8623 96.6533 72.8623C97.1592 72.8623 97.6468 72.9124 98.1162 73.0127C98.5856 73.113 99.0094 73.2565 99.3877 73.4434L98.9229 74.4277C98.6038 74.2819 98.2529 74.1566 97.8701 74.0518C97.4919 73.9424 97.0817 73.8877 96.6396 73.8877ZM103.817 75.3848C104.711 75.3848 105.374 75.5853 105.807 75.9863C106.24 76.3874 106.456 77.0277 106.456 77.9072V83H105.629L105.41 81.8926H105.355C105.146 82.166 104.927 82.3962 104.699 82.583C104.471 82.7653 104.207 82.9043 103.906 83C103.61 83.0911 103.245 83.1367 102.812 83.1367C102.357 83.1367 101.951 83.057 101.596 82.8975C101.245 82.738 100.967 82.4964 100.762 82.1729C100.561 81.8493 100.461 81.4391 100.461 80.9424C100.461 80.195 100.757 79.6208 101.35 79.2197C101.942 78.8187 102.844 78.5999 104.057 78.5635L105.349 78.5088V78.0508C105.349 77.4036 105.21 76.9502 104.932 76.6904C104.654 76.4307 104.262 76.3008 103.756 76.3008C103.364 76.3008 102.99 76.3577 102.635 76.4717C102.279 76.5856 101.942 76.7201 101.623 76.875L101.274 76.0137C101.612 75.8405 101.999 75.6924 102.437 75.5693C102.874 75.4463 103.334 75.3848 103.817 75.3848ZM105.335 79.3086L104.193 79.3564C103.259 79.3929 102.601 79.5456 102.218 79.8145C101.835 80.0833 101.644 80.4639 101.644 80.9561C101.644 81.3844 101.773 81.7012 102.033 81.9062C102.293 82.1113 102.637 82.2139 103.065 82.2139C103.731 82.2139 104.275 82.0293 104.699 81.6602C105.123 81.291 105.335 80.7373 105.335 79.999V79.3086ZM113.641 80.9492C113.641 81.4277 113.52 81.8311 113.278 82.1592C113.041 82.4827 112.7 82.7266 112.253 82.8906C111.811 83.0547 111.282 83.1367 110.667 83.1367C110.143 83.1367 109.689 83.0957 109.307 83.0137C108.924 82.9316 108.589 82.8154 108.302 82.665V81.6191C108.607 81.7695 108.972 81.9062 109.396 82.0293C109.819 82.1523 110.252 82.2139 110.694 82.2139C111.341 82.2139 111.811 82.109 112.103 81.8994C112.394 81.6898 112.54 81.4049 112.54 81.0449C112.54 80.8398 112.481 80.6598 112.362 80.5049C112.248 80.3454 112.055 80.1927 111.781 80.0469C111.508 79.8965 111.13 79.7324 110.646 79.5547C110.168 79.3724 109.753 79.1924 109.402 79.0146C109.056 78.8324 108.787 78.6113 108.596 78.3516C108.409 78.0918 108.315 77.7546 108.315 77.3398C108.315 76.7064 108.571 76.221 109.081 75.8838C109.596 75.542 110.271 75.3711 111.104 75.3711C111.556 75.3711 111.977 75.4167 112.369 75.5078C112.766 75.5944 113.135 75.7129 113.477 75.8633L113.094 76.7725C112.784 76.6403 112.453 76.5286 112.103 76.4375C111.752 76.3464 111.394 76.3008 111.029 76.3008C110.505 76.3008 110.102 76.3874 109.819 76.5605C109.541 76.7337 109.402 76.9707 109.402 77.2715C109.402 77.5039 109.466 77.6953 109.594 77.8457C109.726 77.9961 109.936 78.1374 110.223 78.2695C110.51 78.4017 110.888 78.5566 111.357 78.7344C111.827 78.9076 112.232 79.0876 112.574 79.2744C112.916 79.4567 113.178 79.68 113.36 79.9443C113.547 80.2041 113.641 80.5391 113.641 80.9492ZM116.601 75.5078V83H115.466V75.5078H116.601ZM116.047 72.7051C116.234 72.7051 116.393 72.7666 116.525 72.8896C116.662 73.0081 116.73 73.195 116.73 73.4502C116.73 73.7008 116.662 73.8877 116.525 74.0107C116.393 74.1338 116.234 74.1953 116.047 74.1953C115.851 74.1953 115.687 74.1338 115.555 74.0107C115.427 73.8877 115.363 73.7008 115.363 73.4502C115.363 73.195 115.427 73.0081 115.555 72.8896C115.687 72.7666 115.851 72.7051 116.047 72.7051ZM120.148 83H119.007V72.3633H120.148V83ZM123.689 83H122.548V72.3633H123.689V83ZM128.892 75.3848C129.785 75.3848 130.448 75.5853 130.881 75.9863C131.314 76.3874 131.53 77.0277 131.53 77.9072V83H130.703L130.484 81.8926H130.43C130.22 82.166 130.001 82.3962 129.773 82.583C129.546 82.7653 129.281 82.9043 128.98 83C128.684 83.0911 128.32 83.1367 127.887 83.1367C127.431 83.1367 127.025 83.057 126.67 82.8975C126.319 82.738 126.041 82.4964 125.836 82.1729C125.635 81.8493 125.535 81.4391 125.535 80.9424C125.535 80.195 125.831 79.6208 126.424 79.2197C127.016 78.8187 127.919 78.5999 129.131 78.5635L130.423 78.5088V78.0508C130.423 77.4036 130.284 76.9502 130.006 76.6904C129.728 76.4307 129.336 76.3008 128.83 76.3008C128.438 76.3008 128.064 76.3577 127.709 76.4717C127.354 76.5856 127.016 76.7201 126.697 76.875L126.349 76.0137C126.686 75.8405 127.073 75.6924 127.511 75.5693C127.948 75.4463 128.409 75.3848 128.892 75.3848ZM130.409 79.3086L129.268 79.3564C128.333 79.3929 127.675 79.5456 127.292 79.8145C126.909 80.0833 126.718 80.4639 126.718 80.9561C126.718 81.3844 126.848 81.7012 127.107 81.9062C127.367 82.1113 127.711 82.2139 128.14 82.2139C128.805 82.2139 129.35 82.0293 129.773 81.6602C130.197 81.291 130.409 80.7373 130.409 79.999V79.3086ZM140.171 83.1367C139.223 83.1367 138.471 82.8132 137.915 82.166C137.364 81.5189 137.088 80.5573 137.088 79.2812C137.088 77.9915 137.37 77.0186 137.936 76.3623C138.501 75.7015 139.253 75.3711 140.191 75.3711C140.588 75.3711 140.934 75.4235 141.23 75.5283C141.527 75.6331 141.782 75.7744 141.996 75.9521C142.21 76.1253 142.39 76.3236 142.536 76.5469H142.618C142.6 76.4056 142.582 76.2119 142.563 75.9658C142.545 75.7197 142.536 75.5192 142.536 75.3643V72.3633H143.671V83H142.755L142.584 81.9336H142.536C142.395 82.1569 142.215 82.3597 141.996 82.542C141.782 82.7243 141.524 82.8701 141.224 82.9795C140.927 83.0843 140.576 83.1367 140.171 83.1367ZM140.349 82.1934C141.151 82.1934 141.718 81.9655 142.051 81.5098C142.383 81.054 142.55 80.3773 142.55 79.4795V79.2744C142.55 78.3219 142.39 77.5905 142.071 77.0801C141.757 76.5697 141.183 76.3145 140.349 76.3145C139.651 76.3145 139.13 76.5833 138.783 77.1211C138.437 77.6543 138.264 78.3835 138.264 79.3086C138.264 80.2292 138.435 80.9401 138.776 81.4414C139.123 81.9427 139.647 82.1934 140.349 82.1934ZM148.962 75.3711C149.6 75.3711 150.147 75.5124 150.603 75.7949C151.058 76.0775 151.407 76.474 151.648 76.9844C151.89 77.4902 152.011 78.0827 152.011 78.7617V79.4658H146.836C146.85 80.3454 147.068 81.0153 147.492 81.4756C147.916 81.9359 148.513 82.166 149.283 82.166C149.757 82.166 150.176 82.1227 150.541 82.0361C150.906 81.9495 151.284 81.8219 151.676 81.6533V82.6514C151.298 82.82 150.922 82.943 150.548 83.0205C150.179 83.098 149.741 83.1367 149.235 83.1367C148.515 83.1367 147.886 82.9909 147.349 82.6992C146.815 82.403 146.401 81.9701 146.104 81.4004C145.808 80.8307 145.66 80.1335 145.66 79.3086C145.66 78.502 145.795 77.8047 146.063 77.2168C146.337 76.6243 146.72 76.1686 147.212 75.8496C147.709 75.5306 148.292 75.3711 148.962 75.3711ZM148.948 76.3008C148.342 76.3008 147.859 76.499 147.499 76.8955C147.139 77.292 146.925 77.8457 146.856 78.5566H150.821C150.817 78.11 150.746 77.7181 150.609 77.3809C150.477 77.0391 150.274 76.7747 150.001 76.5879C149.728 76.3965 149.377 76.3008 148.948 76.3008ZM162.422 80.9492C162.422 81.4277 162.301 81.8311 162.06 82.1592C161.823 82.4827 161.481 82.7266 161.034 82.8906C160.592 83.0547 160.063 83.1367 159.448 83.1367C158.924 83.1367 158.471 83.0957 158.088 83.0137C157.705 82.9316 157.37 82.8154 157.083 82.665V81.6191C157.388 81.7695 157.753 81.9062 158.177 82.0293C158.601 82.1523 159.034 82.2139 159.476 82.2139C160.123 82.2139 160.592 82.109 160.884 81.8994C161.175 81.6898 161.321 81.4049 161.321 81.0449C161.321 80.8398 161.262 80.6598 161.144 80.5049C161.03 80.3454 160.836 80.1927 160.562 80.0469C160.289 79.8965 159.911 79.7324 159.428 79.5547C158.949 79.3724 158.535 79.1924 158.184 79.0146C157.837 78.8324 157.568 78.6113 157.377 78.3516C157.19 78.0918 157.097 77.7546 157.097 77.3398C157.097 76.7064 157.352 76.221 157.862 75.8838C158.377 75.542 159.052 75.3711 159.886 75.3711C160.337 75.3711 160.758 75.4167 161.15 75.5078C161.547 75.5944 161.916 75.7129 162.258 75.8633L161.875 76.7725C161.565 76.6403 161.235 76.5286 160.884 76.4375C160.533 76.3464 160.175 76.3008 159.811 76.3008C159.286 76.3008 158.883 76.3874 158.601 76.5605C158.323 76.7337 158.184 76.9707 158.184 77.2715C158.184 77.5039 158.247 77.6953 158.375 77.8457C158.507 77.9961 158.717 78.1374 159.004 78.2695C159.291 78.4017 159.669 78.5566 160.139 78.7344C160.608 78.9076 161.014 79.0876 161.355 79.2744C161.697 79.4567 161.959 79.68 162.142 79.9443C162.328 80.2041 162.422 80.5391 162.422 80.9492ZM167.132 75.3711C167.77 75.3711 168.317 75.5124 168.772 75.7949C169.228 76.0775 169.577 76.474 169.818 76.9844C170.06 77.4902 170.181 78.0827 170.181 78.7617V79.4658H165.006C165.02 80.3454 165.238 81.0153 165.662 81.4756C166.086 81.9359 166.683 82.166 167.453 82.166C167.927 82.166 168.346 82.1227 168.711 82.0361C169.076 81.9495 169.454 81.8219 169.846 81.6533V82.6514C169.467 82.82 169.091 82.943 168.718 83.0205C168.349 83.098 167.911 83.1367 167.405 83.1367C166.685 83.1367 166.056 82.9909 165.519 82.6992C164.985 82.403 164.571 81.9701 164.274 81.4004C163.978 80.8307 163.83 80.1335 163.83 79.3086C163.83 78.502 163.965 77.8047 164.233 77.2168C164.507 76.6243 164.89 76.1686 165.382 75.8496C165.879 75.5306 166.462 75.3711 167.132 75.3711ZM167.118 76.3008C166.512 76.3008 166.029 76.499 165.669 76.8955C165.309 77.292 165.095 77.8457 165.026 78.5566H168.991C168.987 78.11 168.916 77.7181 168.779 77.3809C168.647 77.0391 168.444 76.7747 168.171 76.5879C167.897 76.3965 167.547 76.3008 167.118 76.3008ZM173.25 83H172.108V72.3633H173.25V83ZM178.534 75.3711C179.172 75.3711 179.719 75.5124 180.175 75.7949C180.631 76.0775 180.979 76.474 181.221 76.9844C181.462 77.4902 181.583 78.0827 181.583 78.7617V79.4658H176.408C176.422 80.3454 176.641 81.0153 177.064 81.4756C177.488 81.9359 178.085 82.166 178.855 82.166C179.329 82.166 179.749 82.1227 180.113 82.0361C180.478 81.9495 180.856 81.8219 181.248 81.6533V82.6514C180.87 82.82 180.494 82.943 180.12 83.0205C179.751 83.098 179.313 83.1367 178.808 83.1367C178.088 83.1367 177.459 82.9909 176.921 82.6992C176.388 82.403 175.973 81.9701 175.677 81.4004C175.381 80.8307 175.232 80.1335 175.232 79.3086C175.232 78.502 175.367 77.8047 175.636 77.2168C175.909 76.6243 176.292 76.1686 176.784 75.8496C177.281 75.5306 177.864 75.3711 178.534 75.3711ZM178.521 76.3008C177.914 76.3008 177.431 76.499 177.071 76.8955C176.711 77.292 176.497 77.8457 176.429 78.5566H180.394C180.389 78.11 180.318 77.7181 180.182 77.3809C180.049 77.0391 179.847 76.7747 179.573 76.5879C179.3 76.3965 178.949 76.3008 178.521 76.3008ZM186.512 83.1367C185.837 83.1367 185.243 82.9977 184.728 82.7197C184.213 82.4417 183.812 82.0179 183.524 81.4482C183.237 80.8786 183.094 80.1608 183.094 79.2949C183.094 78.388 183.244 77.6475 183.545 77.0732C183.85 76.4945 184.27 76.0661 184.803 75.7881C185.336 75.5101 185.942 75.3711 186.621 75.3711C186.995 75.3711 187.355 75.4098 187.701 75.4873C188.052 75.5602 188.339 75.6536 188.562 75.7676L188.221 76.7178C187.993 76.6266 187.729 76.5446 187.428 76.4717C187.132 76.3988 186.854 76.3623 186.594 76.3623C186.074 76.3623 185.641 76.474 185.295 76.6973C184.953 76.9206 184.696 77.2487 184.522 77.6816C184.354 78.1146 184.27 78.6478 184.27 79.2812C184.27 79.8874 184.352 80.4046 184.516 80.833C184.684 81.2614 184.933 81.5895 185.261 81.8174C185.593 82.0407 186.008 82.1523 186.505 82.1523C186.901 82.1523 187.259 82.1113 187.578 82.0293C187.897 81.9427 188.187 81.8424 188.446 81.7285V82.7402C188.196 82.8678 187.915 82.9658 187.605 83.0342C187.3 83.1025 186.936 83.1367 186.512 83.1367ZM193.225 83.1367C192.55 83.1367 191.955 82.9977 191.44 82.7197C190.925 82.4417 190.524 82.0179 190.237 81.4482C189.95 80.8786 189.807 80.1608 189.807 79.2949C189.807 78.388 189.957 77.6475 190.258 77.0732C190.563 76.4945 190.982 76.0661 191.516 75.7881C192.049 75.5101 192.655 75.3711 193.334 75.3711C193.708 75.3711 194.068 75.4098 194.414 75.4873C194.765 75.5602 195.052 75.6536 195.275 75.7676L194.934 76.7178C194.706 76.6266 194.441 76.5446 194.141 76.4717C193.844 76.3988 193.566 76.3623 193.307 76.3623C192.787 76.3623 192.354 76.474 192.008 76.6973C191.666 76.9206 191.409 77.2487 191.235 77.6816C191.067 78.1146 190.982 78.6478 190.982 79.2812C190.982 79.8874 191.064 80.4046 191.229 80.833C191.397 81.2614 191.646 81.5895 191.974 81.8174C192.306 82.0407 192.721 82.1523 193.218 82.1523C193.614 82.1523 193.972 82.1113 194.291 82.0293C194.61 81.9427 194.899 81.8424 195.159 81.7285V82.7402C194.909 82.8678 194.628 82.9658 194.318 83.0342C194.013 83.1025 193.648 83.1367 193.225 83.1367ZM198.071 75.5078V83H196.937V75.5078H198.071ZM197.518 72.7051C197.704 72.7051 197.864 72.7666 197.996 72.8896C198.133 73.0081 198.201 73.195 198.201 73.4502C198.201 73.7008 198.133 73.8877 197.996 74.0107C197.864 74.1338 197.704 74.1953 197.518 74.1953C197.322 74.1953 197.158 74.1338 197.025 74.0107C196.898 73.8877 196.834 73.7008 196.834 73.4502C196.834 73.195 196.898 73.0081 197.025 72.8896C197.158 72.7666 197.322 72.7051 197.518 72.7051ZM206.938 79.2402C206.938 79.8555 206.858 80.4046 206.698 80.8877C206.539 81.3708 206.309 81.7786 206.008 82.1113C205.707 82.444 205.342 82.6992 204.914 82.877C204.49 83.0501 204.009 83.1367 203.472 83.1367C202.97 83.1367 202.51 83.0501 202.091 82.877C201.676 82.6992 201.316 82.444 201.011 82.1113C200.71 81.7786 200.475 81.3708 200.307 80.8877C200.143 80.4046 200.061 79.8555 200.061 79.2402C200.061 78.4199 200.2 77.7227 200.478 77.1484C200.756 76.5697 201.152 76.1299 201.667 75.8291C202.187 75.5238 202.804 75.3711 203.52 75.3711C204.203 75.3711 204.8 75.5238 205.311 75.8291C205.826 76.1344 206.224 76.5765 206.507 77.1553C206.794 77.7295 206.938 78.4245 206.938 79.2402ZM201.236 79.2402C201.236 79.8418 201.316 80.3636 201.476 80.8057C201.635 81.2477 201.881 81.5895 202.214 81.8311C202.547 82.0726 202.975 82.1934 203.499 82.1934C204.019 82.1934 204.445 82.0726 204.777 81.8311C205.115 81.5895 205.363 81.2477 205.522 80.8057C205.682 80.3636 205.762 79.8418 205.762 79.2402C205.762 78.6432 205.682 78.1283 205.522 77.6953C205.363 77.2578 205.117 76.9206 204.784 76.6836C204.451 76.4466 204.021 76.3281 203.492 76.3281C202.713 76.3281 202.141 76.5856 201.776 77.1006C201.416 77.6156 201.236 78.3288 201.236 79.2402ZM205.481 72.2744V72.4111C205.39 72.5433 205.265 72.7028 205.105 72.8896C204.951 73.0719 204.777 73.2656 204.586 73.4707C204.395 73.6712 204.201 73.8626 204.005 74.0449C203.813 74.2272 203.636 74.3844 203.472 74.5166H202.713V74.3525C202.859 74.1794 203.018 73.972 203.191 73.7305C203.365 73.4844 203.533 73.2337 203.697 72.9785C203.861 72.7188 203.998 72.484 204.107 72.2744H205.481ZM212.447 75.3711C213.336 75.3711 214.008 75.5898 214.464 76.0273C214.92 76.4603 215.147 77.1576 215.147 78.1191V83H214.026V78.1943C214.026 77.57 213.883 77.1029 213.596 76.793C213.313 76.4831 212.878 76.3281 212.29 76.3281C211.461 76.3281 210.877 76.5628 210.54 77.0322C210.203 77.5016 210.034 78.1829 210.034 79.0762V83H208.899V75.5078H209.815L209.986 76.5879H210.048C210.207 76.3236 210.41 76.1025 210.656 75.9248C210.902 75.7425 211.178 75.6058 211.483 75.5146C211.789 75.4189 212.11 75.3711 212.447 75.3711Z" fill="#101E37"/>
<path d="M281.653 78C281.653 79.296 282.704 80.3467 284 80.3467C285.296 80.3467 286.347 79.296 286.347 78C286.347 76.704 285.296 75.6533 284 75.6533C282.704 75.6533 281.653 76.704 281.653 78ZM229 77.56C228.757 77.56 228.56 77.757 228.56 78C228.56 78.243 228.757 78.44 229 78.44L229 77.56ZM284 78L284 77.56L256.5 77.56L256.5 78L256.5 78.44L284 78.44L284 78ZM256.5 78L256.5 77.56L229 77.56L229 78L229 78.44L256.5 78.44L256.5 78Z" fill="#080F1C"/>
<path d="M456.347 78C456.347 76.704 455.296 75.6533 454 75.6533C452.704 75.6533 451.653 76.704 451.653 78C451.653 79.296 452.704 80.3467 454 80.3467C455.296 80.3467 456.347 79.296 456.347 78ZM509 78.44C509.243 78.44 509.44 78.243 509.44 78C509.44 77.757 509.243 77.56 509 77.56L509 78.44ZM454 78L454 78.44L481.5 78.44L481.5 78L481.5 77.56L454 77.56L454 78ZM481.5 78L481.5 78.44L509 78.44L509 78L509 77.56L481.5 77.56L481.5 78Z" fill="#080F1C"/>
<path d="M527.932 83H522.367V73.0059H527.932V74.0312H523.529V77.2646H527.679V78.2764H523.529V81.9746H527.932V83ZM532.396 82.207C532.582 82.207 532.774 82.1911 532.97 82.1592C533.166 82.1273 533.325 82.0885 533.448 82.043V82.9248C533.316 82.984 533.132 83.0342 532.895 83.0752C532.662 83.1162 532.434 83.1367 532.211 83.1367C531.814 83.1367 531.454 83.0684 531.131 82.9316C530.807 82.7904 530.548 82.5534 530.352 82.2207C530.16 81.888 530.064 81.4277 530.064 80.8398V76.3965H528.998V75.8428L530.071 75.3984L530.522 73.7715H531.206V75.5078H533.4V76.3965H531.206V80.8057C531.206 81.2751 531.313 81.626 531.527 81.8584C531.746 82.0908 532.035 82.207 532.396 82.207ZM536.101 75.5078V83H534.966V75.5078H536.101ZM535.547 72.7051C535.734 72.7051 535.893 72.7666 536.025 72.8896C536.162 73.0081 536.23 73.195 536.23 73.4502C536.23 73.7008 536.162 73.8877 536.025 74.0107C535.893 74.1338 535.734 74.1953 535.547 74.1953C535.351 74.1953 535.187 74.1338 535.055 74.0107C534.927 73.8877 534.863 73.7008 534.863 73.4502C534.863 73.195 534.927 73.0081 535.055 72.8896C535.187 72.7666 535.351 72.7051 535.547 72.7051ZM543.531 86.3496V83.1367C543.531 82.959 543.536 82.7539 543.545 82.5215C543.554 82.2891 543.57 82.0885 543.593 81.9199H543.518C543.308 82.2663 543.009 82.5557 542.622 82.7881C542.235 83.0205 541.736 83.1367 541.125 83.1367C540.209 83.1367 539.473 82.8132 538.917 82.166C538.361 81.5189 538.083 80.5527 538.083 79.2676C538.083 78.4245 538.211 77.7135 538.466 77.1348C538.721 76.556 539.081 76.1185 539.546 75.8223C540.015 75.5215 540.562 75.3711 541.187 75.3711C541.784 75.3711 542.271 75.4896 542.649 75.7266C543.028 75.959 543.324 76.2438 543.538 76.5811H543.593L543.764 75.5078H544.666V86.3496H543.531ZM541.337 82.1934C541.866 82.1934 542.289 82.0954 542.608 81.8994C542.927 81.6989 543.16 81.3981 543.306 80.9971C543.456 80.596 543.536 80.097 543.545 79.5V79.2607C543.545 78.2946 543.381 77.5632 543.053 77.0664C542.725 76.5651 542.153 76.3145 541.337 76.3145C540.635 76.3145 540.113 76.5833 539.771 77.1211C539.43 77.6543 539.259 78.3789 539.259 79.2949C539.259 80.2109 539.43 80.9242 539.771 81.4346C540.113 81.9404 540.635 82.1934 541.337 82.1934ZM553.266 75.5078V83H552.336L552.172 81.9473H552.11C551.955 82.207 551.755 82.4258 551.509 82.6035C551.263 82.7812 550.985 82.9134 550.675 83C550.369 83.0911 550.044 83.1367 549.697 83.1367C549.105 83.1367 548.608 83.041 548.207 82.8496C547.806 82.6582 547.503 82.362 547.298 81.9609C547.097 81.5599 546.997 81.0449 546.997 80.416V75.5078H548.146V80.334C548.146 80.9583 548.287 81.4255 548.569 81.7354C548.852 82.0407 549.283 82.1934 549.861 82.1934C550.417 82.1934 550.859 82.0885 551.188 81.8789C551.52 81.6693 551.759 81.3617 551.905 80.9561C552.051 80.5459 552.124 80.0446 552.124 79.4521V75.5078H553.266ZM558.55 75.3711C559.188 75.3711 559.735 75.5124 560.19 75.7949C560.646 76.0775 560.995 76.474 561.236 76.9844C561.478 77.4902 561.599 78.0827 561.599 78.7617V79.4658H556.424C556.438 80.3454 556.656 81.0153 557.08 81.4756C557.504 81.9359 558.101 82.166 558.871 82.166C559.345 82.166 559.764 82.1227 560.129 82.0361C560.493 81.9495 560.872 81.8219 561.264 81.6533V82.6514C560.885 82.82 560.509 82.943 560.136 83.0205C559.767 83.098 559.329 83.1367 558.823 83.1367C558.103 83.1367 557.474 82.9909 556.937 82.6992C556.403 82.403 555.989 81.9701 555.692 81.4004C555.396 80.8307 555.248 80.1335 555.248 79.3086C555.248 78.502 555.382 77.8047 555.651 77.2168C555.925 76.6243 556.308 76.1686 556.8 75.8496C557.297 75.5306 557.88 75.3711 558.55 75.3711ZM558.536 76.3008C557.93 76.3008 557.447 76.499 557.087 76.8955C556.727 77.292 556.513 77.8457 556.444 78.5566H560.409C560.405 78.11 560.334 77.7181 560.197 77.3809C560.065 77.0391 559.862 76.7747 559.589 76.5879C559.315 76.3965 558.965 76.3008 558.536 76.3008ZM565.946 82.207C566.133 82.207 566.325 82.1911 566.521 82.1592C566.716 82.1273 566.876 82.0885 566.999 82.043V82.9248C566.867 82.984 566.682 83.0342 566.445 83.0752C566.213 83.1162 565.985 83.1367 565.762 83.1367C565.365 83.1367 565.005 83.0684 564.682 82.9316C564.358 82.7904 564.098 82.5534 563.902 82.2207C563.711 81.888 563.615 81.4277 563.615 80.8398V76.3965H562.549V75.8428L563.622 75.3984L564.073 73.7715H564.757V75.5078H566.951V76.3965H564.757V80.8057C564.757 81.2751 564.864 81.626 565.078 81.8584C565.297 82.0908 565.586 82.207 565.946 82.207ZM571.319 75.3848C572.213 75.3848 572.876 75.5853 573.309 75.9863C573.742 76.3874 573.958 77.0277 573.958 77.9072V83H573.131L572.912 81.8926H572.857C572.648 82.166 572.429 82.3962 572.201 82.583C571.973 82.7653 571.709 82.9043 571.408 83C571.112 83.0911 570.747 83.1367 570.314 83.1367C569.859 83.1367 569.453 83.057 569.098 82.8975C568.747 82.738 568.469 82.4964 568.264 82.1729C568.063 81.8493 567.963 81.4391 567.963 80.9424C567.963 80.195 568.259 79.6208 568.852 79.2197C569.444 78.8187 570.346 78.5999 571.559 78.5635L572.851 78.5088V78.0508C572.851 77.4036 572.712 76.9502 572.434 76.6904C572.156 76.4307 571.764 76.3008 571.258 76.3008C570.866 76.3008 570.492 76.3577 570.137 76.4717C569.781 76.5856 569.444 76.7201 569.125 76.875L568.776 76.0137C569.114 75.8405 569.501 75.6924 569.938 75.5693C570.376 75.4463 570.836 75.3848 571.319 75.3848ZM572.837 79.3086L571.695 79.3564C570.761 79.3929 570.103 79.5456 569.72 79.8145C569.337 80.0833 569.146 80.4639 569.146 80.9561C569.146 81.3844 569.275 81.7012 569.535 81.9062C569.795 82.1113 570.139 82.2139 570.567 82.2139C571.233 82.2139 571.777 82.0293 572.201 81.6602C572.625 81.291 572.837 80.7373 572.837 79.999V79.3086Z" fill="#101E37"/>
<rect x="301.065" y="61.4469" width="32.8702" height="32.8702" rx="16.4351" fill="white"/>
<rect x="301.065" y="61.4469" width="32.8702" height="32.8702" rx="16.4351" stroke="#101E37" stroke-width="2.9882"/>
<path d="M359.218 86.9528H349.717V69.8874H359.218V71.6383H351.701V77.1594H358.786V78.887H351.701V85.2019H359.218V86.9528ZM366.84 85.5988C367.159 85.5988 367.486 85.5716 367.821 85.5171C368.156 85.4626 368.428 85.3965 368.638 85.3186V86.8244C368.412 86.9256 368.097 87.0112 367.693 87.0812C367.296 87.1513 366.907 87.1863 366.525 87.1863C365.848 87.1863 365.233 87.0695 364.681 86.8361C364.128 86.5949 363.685 86.1902 363.35 85.6221C363.023 85.0541 362.86 84.2681 362.86 83.2643V75.677H361.039V74.7315L362.872 73.9728L363.642 71.1947H364.809V74.1596H368.556V75.677H364.809V83.2059C364.809 84.0074 364.992 84.6066 365.358 85.0035C365.732 85.4004 366.226 85.5988 366.84 85.5988ZM373.167 74.1596V86.9528H371.229V74.1596H373.167ZM372.222 69.3738C372.541 69.3738 372.813 69.4788 373.039 69.6889C373.272 69.8913 373.389 70.2103 373.389 70.6461C373.389 71.0741 373.272 71.3931 373.039 71.6033C372.813 71.8134 372.541 71.9184 372.222 71.9184C371.887 71.9184 371.607 71.8134 371.381 71.6033C371.163 71.3931 371.054 71.0741 371.054 70.6461C371.054 70.2103 371.163 69.8913 371.381 69.6889C371.607 69.4788 371.887 69.3738 372.222 69.3738ZM385.855 92.6724V87.1863C385.855 86.8828 385.863 86.5326 385.879 86.1357C385.894 85.7389 385.921 85.3965 385.96 85.1085H385.832C385.474 85.7 384.964 86.1941 384.303 86.591C383.641 86.9878 382.789 87.1863 381.746 87.1863C380.182 87.1863 378.926 86.6338 377.976 85.5288C377.027 84.4237 376.552 82.774 376.552 80.5795C376.552 79.1399 376.77 77.926 377.206 76.9377C377.642 75.9494 378.256 75.2023 379.05 74.6965C379.852 74.1829 380.785 73.9261 381.851 73.9261C382.871 73.9261 383.704 74.1284 384.349 74.5331C384.995 74.93 385.501 75.4163 385.867 75.9922H385.96L386.252 74.1596H387.793V92.6724H385.855ZM382.108 85.5754C383.011 85.5754 383.735 85.4081 384.279 85.0735C384.824 84.7311 385.221 84.2175 385.47 83.5327C385.727 82.8479 385.863 81.9958 385.879 80.9764V80.5679C385.879 78.9181 385.598 77.6692 385.038 76.8209C384.478 75.9649 383.501 75.5369 382.108 75.5369C380.91 75.5369 380.019 75.9961 379.435 76.9143C378.852 77.8248 378.56 79.0621 378.56 80.6262C378.56 82.1904 378.852 83.4082 379.435 84.2798C380.019 85.1436 380.91 85.5754 382.108 85.5754ZM402.477 74.1596V86.9528H400.89L400.609 85.1552H400.504C400.24 85.5988 399.897 85.9723 399.477 86.2758C399.057 86.5793 398.582 86.805 398.053 86.9528C397.532 87.1085 396.975 87.1863 396.384 87.1863C395.372 87.1863 394.524 87.0229 393.839 86.696C393.155 86.3692 392.637 85.8634 392.287 85.1786C391.944 84.4938 391.773 83.6144 391.773 82.5406V74.1596H393.734V82.4005C393.734 83.4666 393.975 84.2642 394.458 84.7934C394.94 85.3148 395.676 85.5754 396.664 85.5754C397.613 85.5754 398.368 85.3965 398.929 85.0385C399.497 84.6805 399.905 84.1553 400.154 83.4627C400.403 82.7623 400.528 81.9063 400.528 80.8947V74.1596H402.477ZM411.5 73.9261C412.59 73.9261 413.523 74.1674 414.302 74.6498C415.08 75.1323 415.675 75.8093 416.087 76.6809C416.5 77.5446 416.706 78.5563 416.706 79.7158V80.918H407.87C407.893 82.4199 408.267 83.5639 408.99 84.3498C409.714 85.1358 410.734 85.5288 412.049 85.5288C412.858 85.5288 413.574 85.4548 414.196 85.307C414.819 85.1591 415.465 84.9412 416.134 84.6533V86.3575C415.488 86.6454 414.846 86.8555 414.208 86.9878C413.578 87.1201 412.831 87.1863 411.967 87.1863C410.737 87.1863 409.664 86.9373 408.745 86.4392C407.835 85.9334 407.127 85.1941 406.621 84.2214C406.115 83.2487 405.862 82.0581 405.862 80.6496C405.862 79.2722 406.092 78.0816 406.551 77.0777C407.018 76.0661 407.671 75.2879 408.512 74.7432C409.36 74.1985 410.356 73.9261 411.5 73.9261ZM411.477 75.5136C410.442 75.5136 409.617 75.8521 409.002 76.5291C408.387 77.2061 408.022 78.1516 407.905 79.3656H414.675C414.667 78.603 414.547 77.9337 414.313 77.3579C414.088 76.7743 413.741 76.3229 413.274 76.0039C412.807 75.677 412.208 75.5136 411.477 75.5136ZM424.13 85.5988C424.449 85.5988 424.776 85.5716 425.11 85.5171C425.445 85.4626 425.717 85.3965 425.927 85.3186V86.8244C425.702 86.9256 425.387 87.0112 424.982 87.0812C424.585 87.1513 424.196 87.1863 423.815 87.1863C423.138 87.1863 422.523 87.0695 421.97 86.8361C421.418 86.5949 420.974 86.1902 420.64 85.6221C420.313 85.0541 420.15 84.2681 420.15 83.2643V75.677H418.329V74.7315L420.161 73.9728L420.932 71.1947H422.099V74.1596H425.846V75.677H422.099V83.2059C422.099 84.0074 422.282 84.6066 422.647 85.0035C423.021 85.4004 423.515 85.5988 424.13 85.5988ZM433.305 73.9495C434.83 73.9495 435.962 74.2919 436.701 74.9767C437.441 75.6615 437.81 76.7548 437.81 78.2567V86.9528H436.398L436.024 85.0618H435.931C435.573 85.5288 435.199 85.9217 434.81 86.2408C434.421 86.5521 433.97 86.7894 433.456 86.9528C432.951 87.1085 432.328 87.1863 431.589 87.1863C430.811 87.1863 430.118 87.0501 429.511 86.7777C428.912 86.5054 428.437 86.0929 428.087 85.5404C427.745 84.9879 427.573 84.2876 427.573 83.4393C427.573 82.1631 428.079 81.1826 429.091 80.4978C430.102 79.813 431.643 79.4395 433.713 79.3773L435.919 79.2839V78.5018C435.919 77.3968 435.682 76.6225 435.207 76.1789C434.733 75.7354 434.063 75.5136 433.2 75.5136C432.53 75.5136 431.892 75.6109 431.285 75.8054C430.678 76 430.102 76.2295 429.558 76.4941L428.962 75.0234C429.538 74.7276 430.2 74.4747 430.947 74.2646C431.694 74.0545 432.48 73.9495 433.305 73.9495ZM435.896 80.6496L433.947 80.7313C432.351 80.7935 431.227 81.0542 430.573 81.5134C429.92 81.9725 429.593 82.6223 429.593 83.4627C429.593 84.1942 429.814 84.735 430.258 85.0852C430.702 85.4354 431.289 85.6105 432.021 85.6105C433.157 85.6105 434.087 85.2953 434.81 84.665C435.534 84.0347 435.896 83.0892 435.896 81.8285V80.6496Z" fill="#101E37"/>
</svg>
