<svg width="348" height="238" viewBox="0 0 348 238" fill="none" xmlns="http://www.w3.org/2000/svg">
<rect x="1" y="1" width="346" height="236.004" rx="7" fill="white"/>
<rect x="1" y="1" width="346" height="236.004" rx="7" stroke="#E6EBF0" stroke-width="2"/>
<rect x="50" y="32" width="148" height="17" rx="4.27" fill="#E6EBF0"/>
<rect x="59.5632" y="70.5632" width="23.3767" height="23.3767" rx="11.6883" fill="white"/>
<rect x="59.5632" y="70.5632" width="23.3767" height="23.3767" rx="11.6883" stroke="#101E37" stroke-width="2.12515"/>
<path d="M100.921 88.5006H94.1633V76.364H100.921V77.6092H95.5746V81.5358H100.614V82.7644H95.5746V87.2554H100.921V88.5006ZM106.341 87.5377C106.568 87.5377 106.801 87.5183 107.039 87.4795C107.277 87.4408 107.47 87.3938 107.62 87.3384V88.4093C107.459 88.4812 107.235 88.5421 106.947 88.5919C106.665 88.6417 106.388 88.6666 106.117 88.6666C105.636 88.6666 105.199 88.5836 104.806 88.4176C104.413 88.246 104.097 87.9583 103.859 87.5543C103.627 87.1503 103.511 86.5913 103.511 85.8774V80.4815H102.216V79.8091L103.519 79.2695L104.067 77.2937H104.897V79.4023H107.562V80.4815H104.897V85.8359C104.897 86.4059 105.027 86.832 105.287 87.1143C105.553 87.3965 105.904 87.5377 106.341 87.5377ZM110.841 79.4023V88.5006H109.463V79.4023H110.841ZM110.168 75.9987C110.395 75.9987 110.589 76.0734 110.749 76.2229C110.916 76.3668 110.999 76.5937 110.999 76.9036C110.999 77.208 110.916 77.4349 110.749 77.5843C110.589 77.7337 110.395 77.8084 110.168 77.8084C109.93 77.8084 109.731 77.7337 109.571 77.5843C109.416 77.4349 109.338 77.208 109.338 76.9036C109.338 76.5937 109.416 76.3668 109.571 76.2229C109.731 76.0734 109.93 75.9987 110.168 75.9987ZM119.864 92.5683V88.6666C119.864 88.4508 119.87 88.2018 119.881 87.9195C119.892 87.6373 119.911 87.3938 119.939 87.189H119.848C119.593 87.6096 119.231 87.961 118.76 88.2433C118.29 88.5255 117.684 88.6666 116.942 88.6666C115.83 88.6666 114.936 88.2737 114.261 87.4878C113.586 86.702 113.248 85.5287 113.248 83.9681C113.248 82.9442 113.403 82.0809 113.713 81.378C114.023 80.6752 114.46 80.1439 115.025 79.7842C115.595 79.4189 116.259 79.2363 117.017 79.2363C117.742 79.2363 118.334 79.3802 118.794 79.6679C119.253 79.9502 119.613 80.2961 119.873 80.7056H119.939L120.147 79.4023H121.242V92.5683H119.864ZM117.2 87.521C117.842 87.521 118.356 87.4021 118.744 87.1641C119.131 86.9206 119.413 86.5553 119.59 86.0683C119.773 85.5813 119.87 84.9753 119.881 84.2503V83.9598C119.881 82.7865 119.682 81.8982 119.283 81.295C118.885 80.6862 118.19 80.3819 117.2 80.3819C116.347 80.3819 115.714 80.7084 115.299 81.3614C114.884 82.0089 114.676 82.8889 114.676 84.0013C114.676 85.1136 114.884 85.9798 115.299 86.5996C115.714 87.2139 116.347 87.521 117.2 87.521ZM131.686 79.4023V88.5006H130.557L130.357 87.2222H130.283C130.094 87.5377 129.851 87.8033 129.552 88.0191C129.253 88.235 128.916 88.3955 128.539 88.5006C128.169 88.6113 127.773 88.6666 127.352 88.6666C126.633 88.6666 126.03 88.5504 125.543 88.318C125.056 88.0855 124.688 87.7258 124.438 87.2388C124.195 86.7518 124.073 86.1264 124.073 85.3627V79.4023H125.468V85.2631C125.468 86.0213 125.639 86.5885 125.983 86.9649C126.326 87.3357 126.849 87.521 127.551 87.521C128.227 87.521 128.763 87.3938 129.162 87.1392C129.566 86.8846 129.856 86.511 130.034 86.0185C130.211 85.5204 130.299 84.9116 130.299 84.1922V79.4023H131.686ZM138.103 79.2363C138.877 79.2363 139.541 79.4078 140.095 79.751C140.648 80.0941 141.072 80.5756 141.365 81.1954C141.658 81.8097 141.805 82.5292 141.805 83.3538V84.2088H135.521C135.537 85.2769 135.803 86.0904 136.318 86.6494C136.832 87.2084 137.557 87.4878 138.493 87.4878C139.068 87.4878 139.577 87.4353 140.02 87.3301C140.463 87.225 140.922 87.07 141.398 86.8652V88.0772C140.939 88.282 140.482 88.4314 140.028 88.5255C139.58 88.6196 139.049 88.6666 138.435 88.6666C137.56 88.6666 136.796 88.4895 136.143 88.1353C135.496 87.7756 134.992 87.2499 134.633 86.5581C134.273 85.8663 134.093 85.0196 134.093 84.0179C134.093 83.0383 134.256 82.1916 134.583 81.4776C134.915 80.7582 135.38 80.2048 135.977 79.8174C136.581 79.43 137.289 79.2363 138.103 79.2363ZM138.086 80.3653C137.35 80.3653 136.763 80.606 136.326 81.0875C135.889 81.569 135.629 82.2414 135.546 83.1047H140.361C140.355 82.5624 140.269 82.0864 140.103 81.6769C139.943 81.2618 139.696 80.9408 139.364 80.7139C139.032 80.4815 138.606 80.3653 138.086 80.3653ZM147.085 87.5377C147.312 87.5377 147.544 87.5183 147.782 87.4795C148.02 87.4408 148.214 87.3938 148.363 87.3384V88.4093C148.203 88.4812 147.978 88.5421 147.691 88.5919C147.408 88.6417 147.132 88.6666 146.86 88.6666C146.379 88.6666 145.942 88.5836 145.549 88.4176C145.156 88.246 144.84 87.9583 144.603 87.5543C144.37 87.1503 144.254 86.5913 144.254 85.8774V80.4815H142.959V79.8091L144.262 79.2695L144.81 77.2937H145.64V79.4023H148.305V80.4815H145.64V85.8359C145.64 86.4059 145.77 86.832 146.03 87.1143C146.296 87.3965 146.647 87.5377 147.085 87.5377ZM153.61 79.2529C154.694 79.2529 155.499 79.4964 156.025 79.9834C156.551 80.4704 156.814 81.248 156.814 82.3161V88.5006H155.809L155.544 87.1558H155.477C155.223 87.4878 154.957 87.7673 154.68 87.9942C154.404 88.2156 154.083 88.3844 153.717 88.5006C153.358 88.6113 152.915 88.6666 152.389 88.6666C151.836 88.6666 151.343 88.5698 150.912 88.3761C150.485 88.1824 150.148 87.8891 149.899 87.4961C149.655 87.1032 149.534 86.6051 149.534 86.0019C149.534 85.0943 149.893 84.397 150.613 83.9099C151.332 83.4229 152.428 83.1573 153.9 83.113L155.469 83.0466V82.4904C155.469 81.7045 155.3 81.1539 154.963 80.8384C154.625 80.523 154.149 80.3653 153.535 80.3653C153.059 80.3653 152.605 80.4344 152.173 80.5728C151.742 80.7111 151.332 80.8744 150.945 81.0626L150.521 80.0166C150.931 79.8063 151.401 79.6264 151.933 79.477C152.464 79.3276 153.023 79.2529 153.61 79.2529ZM155.452 84.0179L154.066 84.076C152.932 84.1202 152.132 84.3056 151.667 84.6322C151.202 84.9587 150.97 85.4208 150.97 86.0185C150.97 86.5387 151.127 86.9233 151.443 87.1724C151.758 87.4214 152.176 87.546 152.696 87.546C153.504 87.546 154.166 87.3218 154.68 86.8735C155.195 86.4253 155.452 85.7529 155.452 84.8563V84.0179Z" fill="#101E37"/>
<rect x="59.5632" y="121.564" width="23.3767" height="23.3767" rx="11.6883" fill="white"/>
<rect x="59.5632" y="121.564" width="23.3767" height="23.3767" rx="11.6883" stroke="#101E37" stroke-width="2.12515"/>
<path d="M100.921 139.502H94.1633V127.365H100.921V128.61H95.5746V132.537H100.614V133.766H95.5746V138.257H100.921V139.502ZM106.341 138.539C106.568 138.539 106.801 138.52 107.039 138.481C107.277 138.442 107.47 138.395 107.62 138.34V139.411C107.459 139.482 107.235 139.543 106.947 139.593C106.665 139.643 106.388 139.668 106.117 139.668C105.636 139.668 105.199 139.585 104.806 139.419C104.413 139.247 104.097 138.959 103.859 138.555C103.627 138.151 103.511 137.593 103.511 136.879V131.483H102.216V130.81L103.519 130.271L104.067 128.295H104.897V130.404H107.562V131.483H104.897V136.837C104.897 137.407 105.027 137.833 105.287 138.116C105.553 138.398 105.904 138.539 106.341 138.539ZM110.841 130.404V139.502H109.463V130.404H110.841ZM110.168 127C110.395 127 110.589 127.075 110.749 127.224C110.916 127.368 110.999 127.595 110.999 127.905C110.999 128.209 110.916 128.436 110.749 128.586C110.589 128.735 110.395 128.81 110.168 128.81C109.93 128.81 109.731 128.735 109.571 128.586C109.416 128.436 109.338 128.209 109.338 127.905C109.338 127.595 109.416 127.368 109.571 127.224C109.731 127.075 109.93 127 110.168 127ZM119.864 143.57V139.668C119.864 139.452 119.87 139.203 119.881 138.921C119.892 138.638 119.911 138.395 119.939 138.19H119.848C119.593 138.611 119.231 138.962 118.76 139.244C118.29 139.527 117.684 139.668 116.942 139.668C115.83 139.668 114.936 139.275 114.261 138.489C113.586 137.703 113.248 136.53 113.248 134.969C113.248 133.945 113.403 133.082 113.713 132.379C114.023 131.676 114.46 131.145 115.025 130.785C115.595 130.42 116.259 130.237 117.017 130.237C117.742 130.237 118.334 130.381 118.794 130.669C119.253 130.951 119.613 131.297 119.873 131.707H119.939L120.147 130.404H121.242V143.57H119.864ZM117.2 138.522C117.842 138.522 118.356 138.403 118.744 138.165C119.131 137.922 119.413 137.557 119.59 137.07C119.773 136.583 119.87 135.977 119.881 135.252V134.961C119.881 133.788 119.682 132.899 119.283 132.296C118.885 131.687 118.19 131.383 117.2 131.383C116.347 131.383 115.714 131.71 115.299 132.363C114.884 133.01 114.676 133.89 114.676 135.002C114.676 136.115 114.884 136.981 115.299 137.601C115.714 138.215 116.347 138.522 117.2 138.522ZM131.686 130.404V139.502H130.557L130.357 138.223H130.283C130.094 138.539 129.851 138.805 129.552 139.02C129.253 139.236 128.916 139.397 128.539 139.502C128.169 139.613 127.773 139.668 127.352 139.668C126.633 139.668 126.03 139.552 125.543 139.319C125.056 139.087 124.688 138.727 124.438 138.24C124.195 137.753 124.073 137.128 124.073 136.364V130.404H125.468V136.264C125.468 137.022 125.639 137.59 125.983 137.966C126.326 138.337 126.849 138.522 127.551 138.522C128.227 138.522 128.763 138.395 129.162 138.14C129.566 137.886 129.856 137.512 130.034 137.02C130.211 136.522 130.299 135.913 130.299 135.193V130.404H131.686ZM138.103 130.237C138.877 130.237 139.541 130.409 140.095 130.752C140.648 131.095 141.072 131.577 141.365 132.197C141.658 132.811 141.805 133.53 141.805 134.355V135.21H135.521C135.537 136.278 135.803 137.092 136.318 137.651C136.832 138.21 137.557 138.489 138.493 138.489C139.068 138.489 139.577 138.436 140.02 138.331C140.463 138.226 140.922 138.071 141.398 137.866V139.078C140.939 139.283 140.482 139.433 140.028 139.527C139.58 139.621 139.049 139.668 138.435 139.668C137.56 139.668 136.796 139.491 136.143 139.137C135.496 138.777 134.992 138.251 134.633 137.559C134.273 136.868 134.093 136.021 134.093 135.019C134.093 134.04 134.256 133.193 134.583 132.479C134.915 131.759 135.38 131.206 135.977 130.819C136.581 130.431 137.289 130.237 138.103 130.237ZM138.086 131.366C137.35 131.366 136.763 131.607 136.326 132.089C135.889 132.57 135.629 133.243 135.546 134.106H140.361C140.355 133.564 140.269 133.088 140.103 132.678C139.943 132.263 139.696 131.942 139.364 131.715C139.032 131.483 138.606 131.366 138.086 131.366ZM147.085 138.539C147.312 138.539 147.544 138.52 147.782 138.481C148.02 138.442 148.214 138.395 148.363 138.34V139.411C148.203 139.482 147.978 139.543 147.691 139.593C147.408 139.643 147.132 139.668 146.86 139.668C146.379 139.668 145.942 139.585 145.549 139.419C145.156 139.247 144.84 138.959 144.603 138.555C144.37 138.151 144.254 137.593 144.254 136.879V131.483H142.959V130.81L144.262 130.271L144.81 128.295H145.64V130.404H148.305V131.483H145.64V136.837C145.64 137.407 145.77 137.833 146.03 138.116C146.296 138.398 146.647 138.539 147.085 138.539ZM153.61 130.254C154.694 130.254 155.499 130.498 156.025 130.985C156.551 131.472 156.814 132.249 156.814 133.317V139.502H155.809L155.544 138.157H155.477C155.223 138.489 154.957 138.769 154.68 138.995C154.404 139.217 154.083 139.386 153.717 139.502C153.358 139.613 152.915 139.668 152.389 139.668C151.836 139.668 151.343 139.571 150.912 139.377C150.485 139.184 150.148 138.89 149.899 138.497C149.655 138.104 149.534 137.606 149.534 137.003C149.534 136.095 149.893 135.398 150.613 134.911C151.332 134.424 152.428 134.159 153.9 134.114L155.469 134.048V133.492C155.469 132.706 155.3 132.155 154.963 131.84C154.625 131.524 154.149 131.366 153.535 131.366C153.059 131.366 152.605 131.436 152.173 131.574C151.742 131.712 151.332 131.876 150.945 132.064L150.521 131.018C150.931 130.808 151.401 130.628 151.933 130.478C152.464 130.329 153.023 130.254 153.61 130.254ZM155.452 135.019L154.066 135.077C152.932 135.121 152.132 135.307 151.667 135.633C151.202 135.96 150.97 136.422 150.97 137.02C150.97 137.54 151.127 137.925 151.443 138.174C151.758 138.423 152.176 138.547 152.696 138.547C153.504 138.547 154.166 138.323 154.68 137.875C155.195 137.426 155.452 136.754 155.452 135.858V135.019Z" fill="#101E37"/>
<rect x="59.5632" y="172.566" width="23.3767" height="23.3767" rx="11.6883" fill="white"/>
<rect x="59.5632" y="172.566" width="23.3767" height="23.3767" rx="11.6883" stroke="#101E37" stroke-width="2.12515"/>
<path d="M100.921 190.503H94.1633V178.366H100.921V179.612H95.5746V183.538H100.614V184.767H95.5746V189.258H100.921V190.503ZM106.341 189.54C106.568 189.54 106.801 189.521 107.039 189.482C107.277 189.443 107.47 189.396 107.62 189.341V190.412C107.459 190.484 107.235 190.545 106.947 190.594C106.665 190.644 106.388 190.669 106.117 190.669C105.636 190.669 105.199 190.586 104.806 190.42C104.413 190.248 104.097 189.961 103.859 189.557C103.627 189.153 103.511 188.594 103.511 187.88V182.484H102.216V181.812L103.519 181.272L104.067 179.296H104.897V181.405H107.562V182.484H104.897V187.838C104.897 188.408 105.027 188.834 105.287 189.117C105.553 189.399 105.904 189.54 106.341 189.54ZM110.841 181.405V190.503H109.463V181.405H110.841ZM110.168 178.001C110.395 178.001 110.589 178.076 110.749 178.225C110.916 178.369 110.999 178.596 110.999 178.906C110.999 179.21 110.916 179.437 110.749 179.587C110.589 179.736 110.395 179.811 110.168 179.811C109.93 179.811 109.731 179.736 109.571 179.587C109.416 179.437 109.338 179.21 109.338 178.906C109.338 178.596 109.416 178.369 109.571 178.225C109.731 178.076 109.93 178.001 110.168 178.001ZM119.864 194.571V190.669C119.864 190.453 119.87 190.204 119.881 189.922C119.892 189.64 119.911 189.396 119.939 189.191H119.848C119.593 189.612 119.231 189.963 118.76 190.246C118.29 190.528 117.684 190.669 116.942 190.669C115.83 190.669 114.936 190.276 114.261 189.49C113.586 188.704 113.248 187.531 113.248 185.97C113.248 184.947 113.403 184.083 113.713 183.38C114.023 182.678 114.46 182.146 115.025 181.787C115.595 181.421 116.259 181.239 117.017 181.239C117.742 181.239 118.334 181.383 118.794 181.67C119.253 181.953 119.613 182.299 119.873 182.708H119.939L120.147 181.405H121.242V194.571H119.864ZM117.2 189.523C117.842 189.523 118.356 189.405 118.744 189.167C119.131 188.923 119.413 188.558 119.59 188.071C119.773 187.584 119.87 186.978 119.881 186.253V185.962C119.881 184.789 119.682 183.901 119.283 183.297C118.885 182.689 118.19 182.384 117.2 182.384C116.347 182.384 115.714 182.711 115.299 183.364C114.884 184.011 114.676 184.891 114.676 186.004C114.676 187.116 114.884 187.982 115.299 188.602C115.714 189.216 116.347 189.523 117.2 189.523ZM131.686 181.405V190.503H130.557L130.357 189.225H130.283C130.094 189.54 129.851 189.806 129.552 190.022C129.253 190.237 128.916 190.398 128.539 190.503C128.169 190.614 127.773 190.669 127.352 190.669C126.633 190.669 126.03 190.553 125.543 190.32C125.056 190.088 124.688 189.728 124.438 189.241C124.195 188.754 124.073 188.129 124.073 187.365V181.405H125.468V187.266C125.468 188.024 125.639 188.591 125.983 188.967C126.326 189.338 126.849 189.523 127.551 189.523C128.227 189.523 128.763 189.396 129.162 189.142C129.566 188.887 129.856 188.513 130.034 188.021C130.211 187.523 130.299 186.914 130.299 186.195V181.405H131.686ZM138.103 181.239C138.877 181.239 139.541 181.41 140.095 181.753C140.648 182.097 141.072 182.578 141.365 183.198C141.658 183.812 141.805 184.532 141.805 185.356V186.211H135.521C135.537 187.279 135.803 188.093 136.318 188.652C136.832 189.211 137.557 189.49 138.493 189.49C139.068 189.49 139.577 189.438 140.02 189.333C140.463 189.227 140.922 189.072 141.398 188.868V190.08C140.939 190.284 140.482 190.434 140.028 190.528C139.58 190.622 139.049 190.669 138.435 190.669C137.56 190.669 136.796 190.492 136.143 190.138C135.496 189.778 134.992 189.252 134.633 188.561C134.273 187.869 134.093 187.022 134.093 186.02C134.093 185.041 134.256 184.194 134.583 183.48C134.915 182.761 135.38 182.207 135.977 181.82C136.581 181.432 137.289 181.239 138.103 181.239ZM138.086 182.368C137.35 182.368 136.763 182.608 136.326 183.09C135.889 183.571 135.629 184.244 135.546 185.107H140.361C140.355 184.565 140.269 184.089 140.103 183.679C139.943 183.264 139.696 182.943 139.364 182.716C139.032 182.484 138.606 182.368 138.086 182.368ZM147.085 189.54C147.312 189.54 147.544 189.521 147.782 189.482C148.02 189.443 148.214 189.396 148.363 189.341V190.412C148.203 190.484 147.978 190.545 147.691 190.594C147.408 190.644 147.132 190.669 146.86 190.669C146.379 190.669 145.942 190.586 145.549 190.42C145.156 190.248 144.84 189.961 144.603 189.557C144.37 189.153 144.254 188.594 144.254 187.88V182.484H142.959V181.812L144.262 181.272L144.81 179.296H145.64V181.405H148.305V182.484H145.64V187.838C145.64 188.408 145.77 188.834 146.03 189.117C146.296 189.399 146.647 189.54 147.085 189.54ZM153.61 181.255C154.694 181.255 155.499 181.499 156.025 181.986C156.551 182.473 156.814 183.25 156.814 184.319V190.503H155.809L155.544 189.158H155.477C155.223 189.49 154.957 189.77 154.68 189.997C154.404 190.218 154.083 190.387 153.717 190.503C153.358 190.614 152.915 190.669 152.389 190.669C151.836 190.669 151.343 190.572 150.912 190.379C150.485 190.185 150.148 189.892 149.899 189.499C149.655 189.106 149.534 188.608 149.534 188.004C149.534 187.097 149.893 186.399 150.613 185.912C151.332 185.425 152.428 185.16 153.9 185.115L155.469 185.049V184.493C155.469 183.707 155.3 183.156 154.963 182.841C154.625 182.525 154.149 182.368 153.535 182.368C153.059 182.368 152.605 182.437 152.173 182.575C151.742 182.714 151.332 182.877 150.945 183.065L150.521 182.019C150.931 181.809 151.401 181.629 151.933 181.479C152.464 181.33 153.023 181.255 153.61 181.255ZM155.452 186.02L154.066 186.078C152.932 186.123 152.132 186.308 151.667 186.635C151.202 186.961 150.97 187.423 150.97 188.021C150.97 188.541 151.127 188.926 151.443 189.175C151.758 189.424 152.176 189.548 152.696 189.548C153.504 189.548 154.166 189.324 154.68 188.876C155.195 188.428 155.452 187.755 155.452 186.859V186.02Z" fill="#101E37"/>
<path d="M50 22L50 217" stroke="#D366FF" stroke-width="2" stroke-linecap="round" stroke-dasharray="4 6"/>
</svg>
