<svg width="348" height="237" viewBox="0 0 348 237" fill="none" xmlns="http://www.w3.org/2000/svg">
<rect x="1" y="1" width="346" height="235" rx="7" fill="white"/>
<rect x="1" y="1" width="346" height="235" rx="7" stroke="#E6EBF0" stroke-width="2"/>
<rect x="50" y="82.4994" width="148" height="17" rx="4.27" fill="#E6EBF0"/>
<rect x="59.5632" y="121.063" width="23.3767" height="23.3767" rx="11.6883" fill="white"/>
<rect x="59.5632" y="121.063" width="23.3767" height="23.3767" rx="11.6883" stroke="#101E37" stroke-width="2.12515"/>
<path d="M100.921 139H94.1633V126.863H100.921V128.109H95.5746V132.035H100.614V133.264H95.5746V137.755H100.921V139ZM106.341 138.037C106.568 138.037 106.801 138.018 107.039 137.979C107.277 137.94 107.47 137.893 107.62 137.838V138.909C107.459 138.981 107.235 139.042 106.947 139.091C106.665 139.141 106.388 139.166 106.117 139.166C105.636 139.166 105.199 139.083 104.806 138.917C104.413 138.745 104.097 138.458 103.859 138.054C103.627 137.65 103.511 137.091 103.511 136.377V130.981H102.216V130.308L103.519 129.769L104.067 127.793H104.897V129.902H107.562V130.981H104.897V136.335C104.897 136.905 105.027 137.331 105.287 137.614C105.553 137.896 105.904 138.037 106.341 138.037ZM110.841 129.902V139H109.463V129.902H110.841ZM110.168 126.498C110.395 126.498 110.589 126.573 110.749 126.722C110.916 126.866 110.999 127.093 110.999 127.403C110.999 127.707 110.916 127.934 110.749 128.084C110.589 128.233 110.395 128.308 110.168 128.308C109.93 128.308 109.731 128.233 109.571 128.084C109.416 127.934 109.338 127.707 109.338 127.403C109.338 127.093 109.416 126.866 109.571 126.722C109.731 126.573 109.93 126.498 110.168 126.498ZM119.864 143.068V139.166C119.864 138.95 119.87 138.701 119.881 138.419C119.892 138.137 119.911 137.893 119.939 137.688H119.848C119.593 138.109 119.231 138.46 118.76 138.743C118.29 139.025 117.684 139.166 116.942 139.166C115.83 139.166 114.936 138.773 114.261 137.987C113.586 137.201 113.248 136.028 113.248 134.467C113.248 133.444 113.403 132.58 113.713 131.877C114.023 131.175 114.46 130.643 115.025 130.284C115.595 129.918 116.259 129.736 117.017 129.736C117.742 129.736 118.334 129.88 118.794 130.167C119.253 130.45 119.613 130.795 119.873 131.205H119.939L120.147 129.902H121.242V143.068H119.864ZM117.2 138.02C117.842 138.02 118.356 137.901 118.744 137.663C119.131 137.42 119.413 137.055 119.59 136.568C119.773 136.081 119.87 135.475 119.881 134.75V134.459C119.881 133.286 119.682 132.398 119.283 131.794C118.885 131.186 118.19 130.881 117.2 130.881C116.347 130.881 115.714 131.208 115.299 131.861C114.884 132.508 114.676 133.388 114.676 134.501C114.676 135.613 114.884 136.479 115.299 137.099C115.714 137.713 116.347 138.02 117.2 138.02ZM131.686 129.902V139H130.557L130.357 137.722H130.283C130.094 138.037 129.851 138.303 129.552 138.519C129.253 138.734 128.916 138.895 128.539 139C128.169 139.111 127.773 139.166 127.352 139.166C126.633 139.166 126.03 139.05 125.543 138.817C125.056 138.585 124.688 138.225 124.438 137.738C124.195 137.251 124.073 136.626 124.073 135.862V129.902H125.468V135.762C125.468 136.521 125.639 137.088 125.983 137.464C126.326 137.835 126.849 138.02 127.551 138.02C128.227 138.02 128.763 137.893 129.162 137.639C129.566 137.384 129.856 137.01 130.034 136.518C130.211 136.02 130.299 135.411 130.299 134.692V129.902H131.686ZM138.103 129.736C138.877 129.736 139.541 129.907 140.095 130.25C140.648 130.593 141.072 131.075 141.365 131.695C141.658 132.309 141.805 133.029 141.805 133.853V134.708H135.521C135.537 135.776 135.803 136.59 136.318 137.149C136.832 137.708 137.557 137.987 138.493 137.987C139.068 137.987 139.577 137.935 140.02 137.83C140.463 137.724 140.922 137.569 141.398 137.365V138.577C140.939 138.781 140.482 138.931 140.028 139.025C139.58 139.119 139.049 139.166 138.435 139.166C137.56 139.166 136.796 138.989 136.143 138.635C135.496 138.275 134.992 137.749 134.633 137.057C134.273 136.366 134.093 135.519 134.093 134.517C134.093 133.538 134.256 132.691 134.583 131.977C134.915 131.258 135.38 130.704 135.977 130.317C136.581 129.929 137.289 129.736 138.103 129.736ZM138.086 130.865C137.35 130.865 136.763 131.105 136.326 131.587C135.889 132.068 135.629 132.741 135.546 133.604H140.361C140.355 133.062 140.269 132.586 140.103 132.176C139.943 131.761 139.696 131.44 139.364 131.213C139.032 130.981 138.606 130.865 138.086 130.865ZM147.085 138.037C147.312 138.037 147.544 138.018 147.782 137.979C148.02 137.94 148.214 137.893 148.363 137.838V138.909C148.203 138.981 147.978 139.042 147.691 139.091C147.408 139.141 147.132 139.166 146.86 139.166C146.379 139.166 145.942 139.083 145.549 138.917C145.156 138.745 144.84 138.458 144.603 138.054C144.37 137.65 144.254 137.091 144.254 136.377V130.981H142.959V130.308L144.262 129.769L144.81 127.793H145.64V129.902H148.305V130.981H145.64V136.335C145.64 136.905 145.77 137.331 146.03 137.614C146.296 137.896 146.647 138.037 147.085 138.037ZM153.61 129.752C154.694 129.752 155.499 129.996 156.025 130.483C156.551 130.97 156.814 131.747 156.814 132.815V139H155.809L155.544 137.655H155.477C155.223 137.987 154.957 138.267 154.68 138.494C154.404 138.715 154.083 138.884 153.717 139C153.358 139.111 152.915 139.166 152.389 139.166C151.836 139.166 151.343 139.069 150.912 138.875C150.485 138.682 150.148 138.388 149.899 137.996C149.655 137.603 149.534 137.105 149.534 136.501C149.534 135.594 149.893 134.896 150.613 134.409C151.332 133.922 152.428 133.657 153.9 133.612L155.469 133.546V132.99C155.469 132.204 155.3 131.653 154.963 131.338C154.625 131.022 154.149 130.865 153.535 130.865C153.059 130.865 152.605 130.934 152.173 131.072C151.742 131.211 151.332 131.374 150.945 131.562L150.521 130.516C150.931 130.306 151.401 130.126 151.933 129.976C152.464 129.827 153.023 129.752 153.61 129.752ZM155.452 134.517L154.066 134.575C152.932 134.62 152.132 134.805 151.667 135.132C151.202 135.458 150.97 135.92 150.97 136.518C150.97 137.038 151.127 137.423 151.443 137.672C151.758 137.921 152.176 138.045 152.696 138.045C153.504 138.045 154.166 137.821 154.68 137.373C155.195 136.925 155.452 136.252 155.452 135.356V134.517Z" fill="#101E37"/>
<rect x="184.066" y="121.063" width="23.3767" height="23.3767" rx="11.6883" fill="white"/>
<rect x="184.066" y="121.063" width="23.3767" height="23.3767" rx="11.6883" stroke="#101E37" stroke-width="2.12515"/>
<path d="M225.424 139H218.666V126.863H225.424V128.109H220.078V132.035H225.117V133.264H220.078V137.755H225.424V139ZM230.845 138.037C231.071 138.037 231.304 138.018 231.542 137.979C231.78 137.94 231.973 137.893 232.123 137.838V138.909C231.962 138.981 231.738 139.042 231.451 139.091C231.168 139.141 230.892 139.166 230.62 139.166C230.139 139.166 229.702 139.083 229.309 138.917C228.916 138.745 228.6 138.458 228.362 138.054C228.13 137.65 228.014 137.091 228.014 136.377V130.981H226.719V130.308L228.022 129.769L228.57 127.793H229.4V129.902H232.065V130.981H229.4V136.335C229.4 136.905 229.53 137.331 229.79 137.614C230.056 137.896 230.407 138.037 230.845 138.037ZM235.344 129.902V139H233.966V129.902H235.344ZM234.671 126.498C234.898 126.498 235.092 126.573 235.253 126.722C235.419 126.866 235.502 127.093 235.502 127.403C235.502 127.707 235.419 127.934 235.253 128.084C235.092 128.233 234.898 128.308 234.671 128.308C234.433 128.308 234.234 128.233 234.074 128.084C233.919 127.934 233.841 127.707 233.841 127.403C233.841 127.093 233.919 126.866 234.074 126.722C234.234 126.573 234.433 126.498 234.671 126.498ZM244.367 143.068V139.166C244.367 138.95 244.373 138.701 244.384 138.419C244.395 138.137 244.414 137.893 244.442 137.688H244.351C244.096 138.109 243.734 138.46 243.263 138.743C242.793 139.025 242.187 139.166 241.445 139.166C240.333 139.166 239.439 138.773 238.764 137.987C238.089 137.201 237.751 136.028 237.751 134.467C237.751 133.444 237.906 132.58 238.216 131.877C238.526 131.175 238.963 130.643 239.528 130.284C240.098 129.918 240.762 129.736 241.52 129.736C242.245 129.736 242.837 129.88 243.297 130.167C243.756 130.45 244.116 130.795 244.376 131.205H244.442L244.65 129.902H245.745V143.068H244.367ZM241.703 138.02C242.345 138.02 242.859 137.901 243.247 137.663C243.634 137.42 243.916 137.055 244.094 136.568C244.276 136.081 244.373 135.475 244.384 134.75V134.459C244.384 133.286 244.185 132.398 243.786 131.794C243.388 131.186 242.693 130.881 241.703 130.881C240.85 130.881 240.217 131.208 239.802 131.861C239.387 132.508 239.179 133.388 239.179 134.501C239.179 135.613 239.387 136.479 239.802 137.099C240.217 137.713 240.85 138.02 241.703 138.02ZM256.189 129.902V139H255.06L254.86 137.722H254.786C254.598 138.037 254.354 138.303 254.055 138.519C253.756 138.734 253.419 138.895 253.042 139C252.672 139.111 252.276 139.166 251.855 139.166C251.136 139.166 250.533 139.05 250.046 138.817C249.559 138.585 249.191 138.225 248.942 137.738C248.698 137.251 248.576 136.626 248.576 135.862V129.902H249.971V135.762C249.971 136.521 250.142 137.088 250.486 137.464C250.829 137.835 251.352 138.02 252.055 138.02C252.73 138.02 253.267 137.893 253.665 137.639C254.069 137.384 254.36 137.01 254.537 136.518C254.714 136.02 254.802 135.411 254.802 134.692V129.902H256.189ZM262.606 129.736C263.38 129.736 264.044 129.907 264.598 130.25C265.151 130.593 265.575 131.075 265.868 131.695C266.161 132.309 266.308 133.029 266.308 133.853V134.708H260.024C260.04 135.776 260.306 136.59 260.821 137.149C261.335 137.708 262.06 137.987 262.996 137.987C263.571 137.987 264.08 137.935 264.523 137.83C264.966 137.724 265.425 137.569 265.901 137.365V138.577C265.442 138.781 264.985 138.931 264.532 139.025C264.083 139.119 263.552 139.166 262.938 139.166C262.063 139.166 261.3 138.989 260.646 138.635C259.999 138.275 259.495 137.749 259.136 137.057C258.776 136.366 258.596 135.519 258.596 134.517C258.596 133.538 258.759 132.691 259.086 131.977C259.418 131.258 259.883 130.704 260.48 130.317C261.084 129.929 261.792 129.736 262.606 129.736ZM262.589 130.865C261.853 130.865 261.266 131.105 260.829 131.587C260.392 132.068 260.132 132.741 260.049 133.604H264.864C264.858 133.062 264.772 132.586 264.606 132.176C264.446 131.761 264.199 131.44 263.867 131.213C263.535 130.981 263.109 130.865 262.589 130.865ZM271.588 138.037C271.815 138.037 272.047 138.018 272.285 137.979C272.523 137.94 272.717 137.893 272.866 137.838V138.909C272.706 138.981 272.481 139.042 272.194 139.091C271.911 139.141 271.635 139.166 271.364 139.166C270.882 139.166 270.445 139.083 270.052 138.917C269.659 138.745 269.344 138.458 269.106 138.054C268.873 137.65 268.757 137.091 268.757 136.377V130.981H267.462V130.308L268.765 129.769L269.313 127.793H270.143V129.902H272.808V130.981H270.143V136.335C270.143 136.905 270.273 137.331 270.533 137.614C270.799 137.896 271.15 138.037 271.588 138.037ZM278.113 129.752C279.197 129.752 280.003 129.996 280.528 130.483C281.054 130.97 281.317 131.747 281.317 132.815V139H280.312L280.047 137.655H279.98C279.726 137.987 279.46 138.267 279.183 138.494C278.907 138.715 278.586 138.884 278.22 139C277.861 139.111 277.418 139.166 276.892 139.166C276.339 139.166 275.846 139.069 275.415 138.875C274.988 138.682 274.651 138.388 274.402 137.996C274.158 137.603 274.037 137.105 274.037 136.501C274.037 135.594 274.396 134.896 275.116 134.409C275.835 133.922 276.931 133.657 278.403 133.612L279.972 133.546V132.99C279.972 132.204 279.803 131.653 279.466 131.338C279.128 131.022 278.652 130.865 278.038 130.865C277.562 130.865 277.108 130.934 276.676 131.072C276.245 131.211 275.835 131.374 275.448 131.562L275.024 130.516C275.434 130.306 275.904 130.126 276.436 129.976C276.967 129.827 277.526 129.752 278.113 129.752ZM279.955 134.517L278.569 134.575C277.435 134.62 276.635 134.805 276.17 135.132C275.705 135.458 275.473 135.92 275.473 136.518C275.473 137.038 275.63 137.423 275.946 137.672C276.261 137.921 276.679 138.045 277.199 138.045C278.007 138.045 278.669 137.821 279.183 137.373C279.698 136.925 279.955 136.252 279.955 135.356V134.517Z" fill="#101E37"/>
<path d="M32 155H316" stroke="#D366FF" stroke-width="2" stroke-linecap="round" stroke-dasharray="4 6"/>
</svg>
