<svg width="728" height="236" viewBox="0 0 728 236" fill="none" xmlns="http://www.w3.org/2000/svg">
<g clip-path="url(#clip0_3307_2386)">
<rect width="728" height="236" rx="8" fill="#F3F6F9"/>
<mask id="path-3-inside-1_3307_2386" fill="white">
<path d="M115.5 0H612.5V236H115.5V0Z"/>
</mask>
<path d="M115.5 0H612.5V236H115.5V0Z" fill="white"/>
<path d="M115.5 0V-2H113.5V0H115.5ZM612.5 0H614.5V-2H612.5V0ZM612.5 236V238H614.5V236H612.5ZM115.5 236H113.5V238H115.5V236ZM115.5 0V2H612.5V0V-2H115.5V0ZM612.5 0H610.5V236H612.5H614.5V0H612.5ZM612.5 236V234H115.5V236V238H612.5V236ZM115.5 236H117.5V0H115.5H113.5V236H115.5Z" fill="#E6EBF0" mask="url(#path-3-inside-1_3307_2386)"/>
<rect x="175.5" y="24" width="249.42" height="16" rx="8" fill="#E6EBF0"/>
<rect x="175.5" y="48" width="333" height="16" rx="6.69811" fill="#E6EBF0"/>
<rect x="184.5" y="85" width="22" height="22" rx="11" fill="white"/>
<rect x="184.5" y="85" width="22" height="22" rx="11" stroke="#101E37" stroke-width="2"/>
<path d="M223.422 102H217.062V90.5781H223.422V91.75H218.391V95.4453H223.133V96.6016H218.391V100.828H223.422V102ZM228.523 101.094C228.737 101.094 228.956 101.076 229.18 101.039C229.404 101.003 229.586 100.958 229.727 100.906V101.914C229.576 101.982 229.365 102.039 229.094 102.086C228.828 102.133 228.568 102.156 228.312 102.156C227.859 102.156 227.448 102.078 227.078 101.922C226.708 101.76 226.411 101.49 226.188 101.109C225.969 100.729 225.859 100.203 225.859 99.5312V94.4531H224.641V93.8203L225.867 93.3125L226.383 91.4531H227.164V93.4375H229.672V94.4531H227.164V99.4922C227.164 100.029 227.286 100.43 227.531 100.695C227.781 100.961 228.112 101.094 228.523 101.094ZM232.758 93.4375V102H231.461V93.4375H232.758ZM232.125 90.2344C232.339 90.2344 232.521 90.3047 232.672 90.4453C232.828 90.5807 232.906 90.7943 232.906 91.0859C232.906 91.3724 232.828 91.5859 232.672 91.7266C232.521 91.8672 232.339 91.9375 232.125 91.9375C231.901 91.9375 231.714 91.8672 231.562 91.7266C231.417 91.5859 231.344 91.3724 231.344 91.0859C231.344 90.7943 231.417 90.5807 231.562 90.4453C231.714 90.3047 231.901 90.2344 232.125 90.2344ZM241.25 105.828V102.156C241.25 101.953 241.255 101.719 241.266 101.453C241.276 101.188 241.294 100.958 241.32 100.766H241.234C240.995 101.161 240.654 101.492 240.211 101.758C239.768 102.023 239.198 102.156 238.5 102.156C237.453 102.156 236.612 101.786 235.977 101.047C235.341 100.307 235.023 99.2031 235.023 97.7344C235.023 96.7708 235.169 95.9583 235.461 95.2969C235.753 94.6354 236.164 94.1354 236.695 93.7969C237.232 93.4531 237.857 93.2812 238.57 93.2812C239.253 93.2812 239.81 93.4167 240.242 93.6875C240.674 93.9531 241.013 94.2786 241.258 94.6641H241.32L241.516 93.4375H242.547V105.828H241.25ZM238.742 101.078C239.346 101.078 239.831 100.966 240.195 100.742C240.56 100.513 240.826 100.169 240.992 99.7109C241.164 99.2526 241.255 98.6823 241.266 98V97.7266C241.266 96.6224 241.078 95.7865 240.703 95.2188C240.328 94.6458 239.674 94.3594 238.742 94.3594C237.94 94.3594 237.344 94.6667 236.953 95.2812C236.562 95.8906 236.367 96.7188 236.367 97.7656C236.367 98.8125 236.562 99.6276 236.953 100.211C237.344 100.789 237.94 101.078 238.742 101.078ZM252.375 93.4375V102H251.312L251.125 100.797H251.055C250.878 101.094 250.648 101.344 250.367 101.547C250.086 101.75 249.768 101.901 249.414 102C249.065 102.104 248.693 102.156 248.297 102.156C247.62 102.156 247.052 102.047 246.594 101.828C246.135 101.609 245.789 101.271 245.555 100.812C245.326 100.354 245.211 99.7656 245.211 99.0469V93.4375H246.523V98.9531C246.523 99.6667 246.685 100.201 247.008 100.555C247.331 100.904 247.823 101.078 248.484 101.078C249.12 101.078 249.625 100.958 250 100.719C250.38 100.479 250.654 100.128 250.82 99.6641C250.987 99.1953 251.07 98.6224 251.07 97.9453V93.4375H252.375ZM258.414 93.2812C259.143 93.2812 259.768 93.4427 260.289 93.7656C260.81 94.0885 261.208 94.5417 261.484 95.125C261.76 95.7031 261.898 96.3802 261.898 97.1562V97.9609H255.984C256 98.9661 256.25 99.7318 256.734 100.258C257.219 100.784 257.901 101.047 258.781 101.047C259.323 101.047 259.802 100.997 260.219 100.898C260.635 100.799 261.068 100.654 261.516 100.461V101.602C261.083 101.794 260.654 101.935 260.227 102.023C259.805 102.112 259.305 102.156 258.727 102.156C257.904 102.156 257.185 101.99 256.57 101.656C255.961 101.318 255.487 100.823 255.148 100.172C254.81 99.5208 254.641 98.724 254.641 97.7812C254.641 96.8594 254.794 96.0625 255.102 95.3906C255.414 94.7135 255.852 94.1927 256.414 93.8281C256.982 93.4635 257.648 93.2812 258.414 93.2812ZM258.398 94.3438C257.706 94.3438 257.154 94.5703 256.742 95.0234C256.331 95.4766 256.086 96.1094 256.008 96.9219H260.539C260.534 96.4115 260.453 95.9635 260.297 95.5781C260.146 95.1875 259.914 94.8854 259.602 94.6719C259.289 94.4531 258.888 94.3438 258.398 94.3438ZM266.867 101.094C267.081 101.094 267.299 101.076 267.523 101.039C267.747 101.003 267.93 100.958 268.07 100.906V101.914C267.919 101.982 267.708 102.039 267.438 102.086C267.172 102.133 266.911 102.156 266.656 102.156C266.203 102.156 265.792 102.078 265.422 101.922C265.052 101.76 264.755 101.49 264.531 101.109C264.312 100.729 264.203 100.203 264.203 99.5312V94.4531H262.984V93.8203L264.211 93.3125L264.727 91.4531H265.508V93.4375H268.016V94.4531H265.508V99.4922C265.508 100.029 265.63 100.43 265.875 100.695C266.125 100.961 266.456 101.094 266.867 101.094ZM273.008 93.2969C274.029 93.2969 274.786 93.526 275.281 93.9844C275.776 94.4427 276.023 95.1745 276.023 96.1797V102H275.078L274.828 100.734H274.766C274.526 101.047 274.276 101.31 274.016 101.523C273.755 101.732 273.453 101.891 273.109 102C272.771 102.104 272.354 102.156 271.859 102.156C271.339 102.156 270.875 102.065 270.469 101.883C270.068 101.701 269.75 101.424 269.516 101.055C269.286 100.685 269.172 100.216 269.172 99.6484C269.172 98.7943 269.51 98.138 270.188 97.6797C270.865 97.2214 271.896 96.9714 273.281 96.9297L274.758 96.8672V96.3438C274.758 95.6042 274.599 95.0859 274.281 94.7891C273.964 94.4922 273.516 94.3438 272.938 94.3438C272.49 94.3438 272.062 94.4089 271.656 94.5391C271.25 94.6693 270.865 94.8229 270.5 95L270.102 94.0156C270.487 93.8177 270.93 93.6484 271.43 93.5078C271.93 93.3672 272.456 93.2969 273.008 93.2969ZM274.742 97.7812L273.438 97.8359C272.37 97.8776 271.617 98.0521 271.18 98.3594C270.742 98.6667 270.523 99.1016 270.523 99.6641C270.523 100.154 270.672 100.516 270.969 100.75C271.266 100.984 271.659 101.102 272.148 101.102C272.909 101.102 273.531 100.891 274.016 100.469C274.5 100.047 274.742 99.4141 274.742 98.5703V97.7812Z" fill="#101E37"/>
<rect x="184.5" y="133" width="22" height="22" rx="11" fill="white"/>
<rect x="184.5" y="133" width="22" height="22" rx="11" stroke="#101E37" stroke-width="2"/>
<path d="M223.422 150H217.062V138.578H223.422V139.75H218.391V143.445H223.133V144.602H218.391V148.828H223.422V150ZM228.523 149.094C228.737 149.094 228.956 149.076 229.18 149.039C229.404 149.003 229.586 148.958 229.727 148.906V149.914C229.576 149.982 229.365 150.039 229.094 150.086C228.828 150.133 228.568 150.156 228.312 150.156C227.859 150.156 227.448 150.078 227.078 149.922C226.708 149.76 226.411 149.49 226.188 149.109C225.969 148.729 225.859 148.203 225.859 147.531V142.453H224.641V141.82L225.867 141.312L226.383 139.453H227.164V141.438H229.672V142.453H227.164V147.492C227.164 148.029 227.286 148.43 227.531 148.695C227.781 148.961 228.112 149.094 228.523 149.094ZM232.758 141.438V150H231.461V141.438H232.758ZM232.125 138.234C232.339 138.234 232.521 138.305 232.672 138.445C232.828 138.581 232.906 138.794 232.906 139.086C232.906 139.372 232.828 139.586 232.672 139.727C232.521 139.867 232.339 139.938 232.125 139.938C231.901 139.938 231.714 139.867 231.562 139.727C231.417 139.586 231.344 139.372 231.344 139.086C231.344 138.794 231.417 138.581 231.562 138.445C231.714 138.305 231.901 138.234 232.125 138.234ZM241.25 153.828V150.156C241.25 149.953 241.255 149.719 241.266 149.453C241.276 149.188 241.294 148.958 241.32 148.766H241.234C240.995 149.161 240.654 149.492 240.211 149.758C239.768 150.023 239.198 150.156 238.5 150.156C237.453 150.156 236.612 149.786 235.977 149.047C235.341 148.307 235.023 147.203 235.023 145.734C235.023 144.771 235.169 143.958 235.461 143.297C235.753 142.635 236.164 142.135 236.695 141.797C237.232 141.453 237.857 141.281 238.57 141.281C239.253 141.281 239.81 141.417 240.242 141.688C240.674 141.953 241.013 142.279 241.258 142.664H241.32L241.516 141.438H242.547V153.828H241.25ZM238.742 149.078C239.346 149.078 239.831 148.966 240.195 148.742C240.56 148.513 240.826 148.169 240.992 147.711C241.164 147.253 241.255 146.682 241.266 146V145.727C241.266 144.622 241.078 143.786 240.703 143.219C240.328 142.646 239.674 142.359 238.742 142.359C237.94 142.359 237.344 142.667 236.953 143.281C236.562 143.891 236.367 144.719 236.367 145.766C236.367 146.812 236.562 147.628 236.953 148.211C237.344 148.789 237.94 149.078 238.742 149.078ZM252.375 141.438V150H251.312L251.125 148.797H251.055C250.878 149.094 250.648 149.344 250.367 149.547C250.086 149.75 249.768 149.901 249.414 150C249.065 150.104 248.693 150.156 248.297 150.156C247.62 150.156 247.052 150.047 246.594 149.828C246.135 149.609 245.789 149.271 245.555 148.812C245.326 148.354 245.211 147.766 245.211 147.047V141.438H246.523V146.953C246.523 147.667 246.685 148.201 247.008 148.555C247.331 148.904 247.823 149.078 248.484 149.078C249.12 149.078 249.625 148.958 250 148.719C250.38 148.479 250.654 148.128 250.82 147.664C250.987 147.195 251.07 146.622 251.07 145.945V141.438H252.375ZM258.414 141.281C259.143 141.281 259.768 141.443 260.289 141.766C260.81 142.089 261.208 142.542 261.484 143.125C261.76 143.703 261.898 144.38 261.898 145.156V145.961H255.984C256 146.966 256.25 147.732 256.734 148.258C257.219 148.784 257.901 149.047 258.781 149.047C259.323 149.047 259.802 148.997 260.219 148.898C260.635 148.799 261.068 148.654 261.516 148.461V149.602C261.083 149.794 260.654 149.935 260.227 150.023C259.805 150.112 259.305 150.156 258.727 150.156C257.904 150.156 257.185 149.99 256.57 149.656C255.961 149.318 255.487 148.823 255.148 148.172C254.81 147.521 254.641 146.724 254.641 145.781C254.641 144.859 254.794 144.062 255.102 143.391C255.414 142.714 255.852 142.193 256.414 141.828C256.982 141.464 257.648 141.281 258.414 141.281ZM258.398 142.344C257.706 142.344 257.154 142.57 256.742 143.023C256.331 143.477 256.086 144.109 256.008 144.922H260.539C260.534 144.411 260.453 143.964 260.297 143.578C260.146 143.188 259.914 142.885 259.602 142.672C259.289 142.453 258.888 142.344 258.398 142.344ZM266.867 149.094C267.081 149.094 267.299 149.076 267.523 149.039C267.747 149.003 267.93 148.958 268.07 148.906V149.914C267.919 149.982 267.708 150.039 267.438 150.086C267.172 150.133 266.911 150.156 266.656 150.156C266.203 150.156 265.792 150.078 265.422 149.922C265.052 149.76 264.755 149.49 264.531 149.109C264.312 148.729 264.203 148.203 264.203 147.531V142.453H262.984V141.82L264.211 141.312L264.727 139.453H265.508V141.438H268.016V142.453H265.508V147.492C265.508 148.029 265.63 148.43 265.875 148.695C266.125 148.961 266.456 149.094 266.867 149.094ZM273.008 141.297C274.029 141.297 274.786 141.526 275.281 141.984C275.776 142.443 276.023 143.174 276.023 144.18V150H275.078L274.828 148.734H274.766C274.526 149.047 274.276 149.31 274.016 149.523C273.755 149.732 273.453 149.891 273.109 150C272.771 150.104 272.354 150.156 271.859 150.156C271.339 150.156 270.875 150.065 270.469 149.883C270.068 149.701 269.75 149.424 269.516 149.055C269.286 148.685 269.172 148.216 269.172 147.648C269.172 146.794 269.51 146.138 270.188 145.68C270.865 145.221 271.896 144.971 273.281 144.93L274.758 144.867V144.344C274.758 143.604 274.599 143.086 274.281 142.789C273.964 142.492 273.516 142.344 272.938 142.344C272.49 142.344 272.062 142.409 271.656 142.539C271.25 142.669 270.865 142.823 270.5 143L270.102 142.016C270.487 141.818 270.93 141.648 271.43 141.508C271.93 141.367 272.456 141.297 273.008 141.297ZM274.742 145.781L273.438 145.836C272.37 145.878 271.617 146.052 271.18 146.359C270.742 146.667 270.523 147.102 270.523 147.664C270.523 148.154 270.672 148.516 270.969 148.75C271.266 148.984 271.659 149.102 272.148 149.102C272.909 149.102 273.531 148.891 274.016 148.469C274.5 148.047 274.742 147.414 274.742 146.57V145.781Z" fill="#101E37"/>
<rect x="173.5" y="170" width="110" height="44" rx="10" stroke="#218274" stroke-width="4"/>
<rect x="184.5" y="181" width="22" height="22" rx="11" fill="white"/>
<rect x="184.5" y="181" width="22" height="22" rx="11" stroke="#274986" stroke-width="2"/>
<rect x="189.5" y="186" width="12" height="12" rx="6" fill="#274986"/>
<path d="M223.422 198H217.062V186.578H223.422V187.75H218.391V191.445H223.133V192.602H218.391V196.828H223.422V198ZM228.523 197.094C228.737 197.094 228.956 197.076 229.18 197.039C229.404 197.003 229.586 196.958 229.727 196.906V197.914C229.576 197.982 229.365 198.039 229.094 198.086C228.828 198.133 228.568 198.156 228.312 198.156C227.859 198.156 227.448 198.078 227.078 197.922C226.708 197.76 226.411 197.49 226.188 197.109C225.969 196.729 225.859 196.203 225.859 195.531V190.453H224.641V189.82L225.867 189.312L226.383 187.453H227.164V189.438H229.672V190.453H227.164V195.492C227.164 196.029 227.286 196.43 227.531 196.695C227.781 196.961 228.112 197.094 228.523 197.094ZM232.758 189.438V198H231.461V189.438H232.758ZM232.125 186.234C232.339 186.234 232.521 186.305 232.672 186.445C232.828 186.581 232.906 186.794 232.906 187.086C232.906 187.372 232.828 187.586 232.672 187.727C232.521 187.867 232.339 187.938 232.125 187.938C231.901 187.938 231.714 187.867 231.562 187.727C231.417 187.586 231.344 187.372 231.344 187.086C231.344 186.794 231.417 186.581 231.562 186.445C231.714 186.305 231.901 186.234 232.125 186.234ZM241.25 201.828V198.156C241.25 197.953 241.255 197.719 241.266 197.453C241.276 197.188 241.294 196.958 241.32 196.766H241.234C240.995 197.161 240.654 197.492 240.211 197.758C239.768 198.023 239.198 198.156 238.5 198.156C237.453 198.156 236.612 197.786 235.977 197.047C235.341 196.307 235.023 195.203 235.023 193.734C235.023 192.771 235.169 191.958 235.461 191.297C235.753 190.635 236.164 190.135 236.695 189.797C237.232 189.453 237.857 189.281 238.57 189.281C239.253 189.281 239.81 189.417 240.242 189.688C240.674 189.953 241.013 190.279 241.258 190.664H241.32L241.516 189.438H242.547V201.828H241.25ZM238.742 197.078C239.346 197.078 239.831 196.966 240.195 196.742C240.56 196.513 240.826 196.169 240.992 195.711C241.164 195.253 241.255 194.682 241.266 194V193.727C241.266 192.622 241.078 191.786 240.703 191.219C240.328 190.646 239.674 190.359 238.742 190.359C237.94 190.359 237.344 190.667 236.953 191.281C236.562 191.891 236.367 192.719 236.367 193.766C236.367 194.812 236.562 195.628 236.953 196.211C237.344 196.789 237.94 197.078 238.742 197.078ZM252.375 189.438V198H251.312L251.125 196.797H251.055C250.878 197.094 250.648 197.344 250.367 197.547C250.086 197.75 249.768 197.901 249.414 198C249.065 198.104 248.693 198.156 248.297 198.156C247.62 198.156 247.052 198.047 246.594 197.828C246.135 197.609 245.789 197.271 245.555 196.812C245.326 196.354 245.211 195.766 245.211 195.047V189.438H246.523V194.953C246.523 195.667 246.685 196.201 247.008 196.555C247.331 196.904 247.823 197.078 248.484 197.078C249.12 197.078 249.625 196.958 250 196.719C250.38 196.479 250.654 196.128 250.82 195.664C250.987 195.195 251.07 194.622 251.07 193.945V189.438H252.375ZM258.414 189.281C259.143 189.281 259.768 189.443 260.289 189.766C260.81 190.089 261.208 190.542 261.484 191.125C261.76 191.703 261.898 192.38 261.898 193.156V193.961H255.984C256 194.966 256.25 195.732 256.734 196.258C257.219 196.784 257.901 197.047 258.781 197.047C259.323 197.047 259.802 196.997 260.219 196.898C260.635 196.799 261.068 196.654 261.516 196.461V197.602C261.083 197.794 260.654 197.935 260.227 198.023C259.805 198.112 259.305 198.156 258.727 198.156C257.904 198.156 257.185 197.99 256.57 197.656C255.961 197.318 255.487 196.823 255.148 196.172C254.81 195.521 254.641 194.724 254.641 193.781C254.641 192.859 254.794 192.062 255.102 191.391C255.414 190.714 255.852 190.193 256.414 189.828C256.982 189.464 257.648 189.281 258.414 189.281ZM258.398 190.344C257.706 190.344 257.154 190.57 256.742 191.023C256.331 191.477 256.086 192.109 256.008 192.922H260.539C260.534 192.411 260.453 191.964 260.297 191.578C260.146 191.188 259.914 190.885 259.602 190.672C259.289 190.453 258.888 190.344 258.398 190.344ZM266.867 197.094C267.081 197.094 267.299 197.076 267.523 197.039C267.747 197.003 267.93 196.958 268.07 196.906V197.914C267.919 197.982 267.708 198.039 267.438 198.086C267.172 198.133 266.911 198.156 266.656 198.156C266.203 198.156 265.792 198.078 265.422 197.922C265.052 197.76 264.755 197.49 264.531 197.109C264.312 196.729 264.203 196.203 264.203 195.531V190.453H262.984V189.82L264.211 189.312L264.727 187.453H265.508V189.438H268.016V190.453H265.508V195.492C265.508 196.029 265.63 196.43 265.875 196.695C266.125 196.961 266.456 197.094 266.867 197.094ZM273.008 189.297C274.029 189.297 274.786 189.526 275.281 189.984C275.776 190.443 276.023 191.174 276.023 192.18V198H275.078L274.828 196.734H274.766C274.526 197.047 274.276 197.31 274.016 197.523C273.755 197.732 273.453 197.891 273.109 198C272.771 198.104 272.354 198.156 271.859 198.156C271.339 198.156 270.875 198.065 270.469 197.883C270.068 197.701 269.75 197.424 269.516 197.055C269.286 196.685 269.172 196.216 269.172 195.648C269.172 194.794 269.51 194.138 270.188 193.68C270.865 193.221 271.896 192.971 273.281 192.93L274.758 192.867V192.344C274.758 191.604 274.599 191.086 274.281 190.789C273.964 190.492 273.516 190.344 272.938 190.344C272.49 190.344 272.062 190.409 271.656 190.539C271.25 190.669 270.865 190.823 270.5 191L270.102 190.016C270.487 189.818 270.93 189.648 271.43 189.508C271.93 189.367 272.456 189.297 273.008 189.297ZM274.742 193.781L273.438 193.836C272.37 193.878 271.617 194.052 271.18 194.359C270.742 194.667 270.523 195.102 270.523 195.664C270.523 196.154 270.672 196.516 270.969 196.75C271.266 196.984 271.659 197.102 272.148 197.102C272.909 197.102 273.531 196.891 274.016 196.469C274.5 196.047 274.742 195.414 274.742 194.57V193.781Z" fill="#101E37"/>
<rect x="72" y="45" width="54" height="27" rx="6.63173" fill="#005E7A"/>
<path d="M84.517 61.9366C84.6497 61.9366 84.7857 61.9252 84.925 61.9026C85.0642 61.8799 85.1776 61.8524 85.265 61.82V62.4466C85.1711 62.4887 85.0399 62.5243 84.8716 62.5534C84.7064 62.5826 84.5445 62.5971 84.3858 62.5971C84.1041 62.5971 83.8483 62.5486 83.6184 62.4514C83.3885 62.351 83.2039 62.1827 83.0647 61.9463C82.9287 61.7099 82.8607 61.3828 82.8607 60.9651V57.8079H82.1029V57.4145L82.8655 57.0988L83.1861 55.9427H83.6718V57.1765H85.231V57.8079H83.6718V60.9408C83.6718 61.2744 83.7479 61.5237 83.9001 61.6888C84.0555 61.854 84.2612 61.9366 84.517 61.9366ZM88.3348 57.0891C88.9694 57.0891 89.4406 57.2315 89.7482 57.5165C90.0558 57.8014 90.2096 58.2564 90.2096 58.8814V62.5H89.6219L89.4665 61.7131H89.4276C89.2787 61.9074 89.1232 62.0709 88.9613 62.2037C88.7994 62.3332 88.6116 62.432 88.3979 62.5C88.1874 62.5648 87.9284 62.5971 87.6207 62.5971C87.2969 62.5971 87.0087 62.5405 86.7562 62.4271C86.5068 62.3138 86.3093 62.1422 86.1636 61.9123C86.0211 61.6824 85.9499 61.3909 85.9499 61.038C85.9499 60.5069 86.1603 60.0989 86.5813 59.814C87.0023 59.529 87.6434 59.3736 88.5048 59.3477L89.4228 59.3088V58.9834C89.4228 58.5236 89.324 58.2014 89.1265 58.0168C88.929 57.8322 88.6505 57.7399 88.291 57.7399C88.0126 57.7399 87.747 57.7804 87.4945 57.8614C87.2419 57.9423 87.0023 58.0378 86.7756 58.1479L86.5279 57.5359C86.7675 57.4129 87.0427 57.3076 87.3536 57.2202C87.6645 57.1328 87.9915 57.0891 88.3348 57.0891ZM89.4131 59.8771L88.6019 59.9111C87.9381 59.937 87.4702 60.0455 87.1982 60.2365C86.9262 60.4276 86.7902 60.698 86.7902 61.0477C86.7902 61.3521 86.8824 61.5771 87.067 61.7228C87.2516 61.8686 87.4961 61.9414 87.8005 61.9414C88.2732 61.9414 88.6602 61.8103 88.9613 61.548C89.2625 61.2857 89.4131 60.8923 89.4131 60.3677V59.8771ZM92.6771 54.9422V56.8316C92.6771 57.0486 92.6706 57.2591 92.6577 57.4631C92.648 57.6671 92.6399 57.8257 92.6334 57.9391H92.6771C92.8228 57.6994 93.0333 57.4971 93.3086 57.3319C93.5838 57.1668 93.9351 57.0842 94.3626 57.0842C95.0296 57.0842 95.5607 57.3157 95.9557 57.7788C96.354 58.2386 96.5532 58.9235 96.5532 59.8334C96.5532 60.4324 96.4625 60.9376 96.2812 61.3488C96.0998 61.7601 95.844 62.0709 95.5137 62.2814C95.1834 62.4919 94.7932 62.5971 94.3431 62.5971C93.9222 62.5971 93.5757 62.5194 93.3037 62.364C93.0349 62.2053 92.8277 62.0127 92.682 61.786H92.6188L92.4537 62.5H91.8708V54.9422H92.6771ZM94.2314 57.7593C93.8461 57.7593 93.5401 57.8354 93.3134 57.9876C93.0867 58.1366 92.9232 58.3633 92.8228 58.6676C92.7257 58.9688 92.6771 59.3509 92.6771 59.814V59.8577C92.6771 60.528 92.7888 61.0412 93.0123 61.3974C93.2357 61.7504 93.6421 61.9268 94.2314 61.9268C94.7269 61.9268 95.0976 61.7455 95.3437 61.3828C95.5931 61.0202 95.7177 60.5021 95.7177 59.8285C95.7177 59.142 95.5947 58.6256 95.3486 58.2791C95.1057 57.9326 94.7333 57.7593 94.2314 57.7593Z" fill="white"/>
<rect x="306" y="180" width="53.0538" height="26.5269" rx="6.63173" fill="#005E7A"/>
<path d="M318.847 191.843C319.301 191.843 319.689 191.943 320.013 192.144C320.337 192.345 320.585 192.626 320.756 192.989C320.928 193.349 321.014 193.77 321.014 194.252V194.752H317.337C317.346 195.377 317.502 195.853 317.803 196.18C318.104 196.507 318.528 196.671 319.076 196.671C319.412 196.671 319.71 196.64 319.969 196.579C320.228 196.517 320.497 196.426 320.776 196.307V197.016C320.507 197.136 320.24 197.223 319.974 197.278C319.712 197.333 319.401 197.361 319.042 197.361C318.53 197.361 318.083 197.257 317.701 197.05C317.322 196.839 317.027 196.532 316.817 196.127C316.606 195.722 316.501 195.227 316.501 194.641C316.501 194.067 316.597 193.572 316.788 193.154C316.982 192.733 317.254 192.41 317.604 192.183C317.957 191.956 318.371 191.843 318.847 191.843ZM318.838 192.503C318.407 192.503 318.064 192.644 317.808 192.926C317.552 193.208 317.4 193.601 317.351 194.106H320.168C320.165 193.789 320.115 193.51 320.018 193.271C319.924 193.028 319.78 192.84 319.586 192.707C319.391 192.571 319.142 192.503 318.838 192.503ZM324.904 191.843C325.536 191.843 326.013 191.998 326.337 192.309C326.661 192.617 326.823 193.112 326.823 193.795V197.263H326.026V193.849C326.026 193.405 325.924 193.073 325.72 192.853C325.519 192.633 325.21 192.523 324.793 192.523C324.203 192.523 323.789 192.69 323.549 193.023C323.309 193.357 323.19 193.841 323.19 194.475V197.263H322.383V191.94H323.034L323.156 192.707H323.199C323.313 192.52 323.457 192.363 323.632 192.236C323.806 192.107 324.002 192.01 324.219 191.945C324.436 191.877 324.665 191.843 324.904 191.843ZM330.203 196.7C330.336 196.7 330.472 196.689 330.611 196.666C330.751 196.643 330.864 196.616 330.951 196.583V197.21C330.858 197.252 330.726 197.288 330.558 197.317C330.393 197.346 330.231 197.361 330.072 197.361C329.791 197.361 329.535 197.312 329.305 197.215C329.075 197.115 328.89 196.946 328.751 196.71C328.615 196.473 328.547 196.146 328.547 195.729V192.571H327.789V192.178L328.552 191.862L328.873 190.706H329.358V191.94H330.917V192.571H329.358V195.704C329.358 196.038 329.434 196.287 329.587 196.452C329.742 196.617 329.948 196.7 330.203 196.7ZM334.08 191.843C334.533 191.843 334.921 191.943 335.245 192.144C335.569 192.345 335.817 192.626 335.988 192.989C336.16 193.349 336.246 193.77 336.246 194.252V194.752H332.569C332.579 195.377 332.734 195.853 333.035 196.18C333.336 196.507 333.761 196.671 334.308 196.671C334.645 196.671 334.942 196.64 335.202 196.579C335.461 196.517 335.729 196.426 336.008 196.307V197.016C335.739 197.136 335.472 197.223 335.206 197.278C334.944 197.333 334.633 197.361 334.274 197.361C333.762 197.361 333.315 197.257 332.933 197.05C332.554 196.839 332.26 196.532 332.049 196.127C331.839 195.722 331.733 195.227 331.733 194.641C331.733 194.067 331.829 193.572 332.02 193.154C332.214 192.733 332.486 192.41 332.836 192.183C333.189 191.956 333.604 191.843 334.08 191.843ZM334.07 192.503C333.639 192.503 333.296 192.644 333.04 192.926C332.784 193.208 332.632 193.601 332.584 194.106H335.401C335.397 193.789 335.347 193.51 335.25 193.271C335.156 193.028 335.012 192.84 334.818 192.707C334.624 192.571 334.374 192.503 334.07 192.503ZM340.034 191.843C340.141 191.843 340.253 191.849 340.37 191.862C340.486 191.872 340.59 191.887 340.68 191.906L340.578 192.654C340.491 192.631 340.394 192.614 340.287 192.601C340.18 192.588 340.08 192.581 339.986 192.581C339.772 192.581 339.57 192.625 339.379 192.712C339.191 192.796 339.026 192.92 338.883 193.081C338.741 193.24 338.629 193.433 338.548 193.659C338.467 193.883 338.427 194.132 338.427 194.407V197.263H337.616V191.94H338.286L338.373 192.921H338.407C338.517 192.724 338.65 192.544 338.806 192.382C338.961 192.217 339.141 192.086 339.345 191.989C339.552 191.891 339.782 191.843 340.034 191.843Z" fill="white"/>
<path d="M152.174 106.625C152.519 106.625 152.799 106.345 152.799 106C152.799 105.655 152.519 105.375 152.174 105.375V106.625ZM166.442 146.442C166.686 146.198 166.686 145.802 166.442 145.558L162.464 141.581C162.22 141.337 161.825 141.337 161.581 141.581C161.337 141.825 161.337 142.22 161.581 142.464L165.116 146L161.581 149.536C161.337 149.78 161.337 150.175 161.581 150.419C161.825 150.663 162.22 150.663 162.464 150.419L166.442 146.442ZM152.174 106V105.375H150V106V106.625H152.174V106ZM142 114H141.375V138H142H142.625V114H142ZM150 146V146.625H166V146V145.375H150V146ZM142 138H141.375C141.375 142.763 145.237 146.625 150 146.625V146V145.375C145.927 145.375 142.625 142.073 142.625 138H142ZM150 106V105.375C145.237 105.375 141.375 109.237 141.375 114H142H142.625C142.625 109.927 145.927 106.625 150 106.625V106Z" fill="#005E7A"/>
<path d="M151.721 156.625C152.066 156.625 152.346 156.345 152.346 156C152.346 155.655 152.066 155.375 151.721 155.375V156.625ZM164.442 193.442C164.686 193.198 164.686 192.802 164.442 192.558L160.464 188.581C160.22 188.337 159.825 188.337 159.581 188.581C159.337 188.825 159.337 189.22 159.581 189.464L163.116 193L159.581 196.536C159.337 196.78 159.337 197.175 159.581 197.419C159.825 197.663 160.22 197.663 160.464 197.419L164.442 193.442ZM151.721 156V155.375H150V156V156.625H151.721V156ZM142 164H141.375V185H142H142.625V164H142ZM150 193V193.625H164V193V192.375H150V193ZM142 185H141.375C141.375 189.763 145.237 193.625 150 193.625V193V192.375C145.927 192.375 142.625 189.073 142.625 185H142ZM150 156V155.375C145.237 155.375 141.375 159.237 141.375 164H142H142.625C142.625 159.927 145.927 156.625 150 156.625V156Z" fill="#005E7A"/>
<path d="M142.625 -18C142.625 -18.3452 142.345 -18.625 142 -18.625C141.655 -18.625 141.375 -18.3452 141.375 -18H142.625ZM166.442 96.4419C166.686 96.1979 166.686 95.8021 166.442 95.5581L162.464 91.5806C162.22 91.3365 161.825 91.3365 161.581 91.5806C161.337 91.8247 161.337 92.2204 161.581 92.4645L165.116 96L161.581 99.5355C161.337 99.7796 161.337 100.175 161.581 100.419C161.825 100.663 162.22 100.663 162.464 100.419L166.442 96.4419ZM142 -18H141.375V88H142H142.625V-18H142ZM150 96V96.625H166V96V95.375H150V96ZM142 88H141.375C141.375 92.7635 145.237 96.625 150 96.625V96V95.375C145.927 95.375 142.625 92.0731 142.625 88H142Z" fill="#005E7A"/>
<path d="M374.351 190.579C375.015 190.579 375.545 190.808 375.94 191.264C376.335 191.721 376.532 192.407 376.532 193.324C376.532 193.929 376.442 194.438 376.26 194.849C376.079 195.26 375.823 195.571 375.493 195.781C375.166 195.992 374.779 196.097 374.332 196.097C374.05 196.097 373.803 196.06 373.589 195.985C373.375 195.911 373.192 195.811 373.04 195.684C372.888 195.558 372.762 195.42 372.661 195.271H372.603C372.613 195.398 372.624 195.55 372.637 195.728C372.653 195.906 372.661 196.062 372.661 196.194V198.38H371.85V190.676H372.515L372.622 191.463H372.661C372.765 191.301 372.891 191.154 373.04 191.021C373.189 190.885 373.37 190.778 373.584 190.701C373.801 190.62 374.057 190.579 374.351 190.579ZM374.211 191.259C373.841 191.259 373.544 191.331 373.317 191.473C373.093 191.616 372.93 191.829 372.826 192.114C372.723 192.396 372.668 192.751 372.661 193.178V193.333C372.661 193.783 372.71 194.164 372.807 194.475C372.907 194.786 373.071 195.022 373.297 195.184C373.527 195.346 373.835 195.427 374.22 195.427C374.551 195.427 374.826 195.338 375.046 195.16C375.266 194.982 375.43 194.734 375.537 194.417C375.647 194.096 375.702 193.728 375.702 193.314C375.702 192.686 375.579 192.187 375.333 191.818C375.09 191.446 374.716 191.259 374.211 191.259ZM379.932 190.589C380.567 190.589 381.038 190.732 381.346 191.016C381.654 191.301 381.807 191.756 381.807 192.381V196H381.22L381.064 195.213H381.025C380.876 195.407 380.721 195.571 380.559 195.704C380.397 195.833 380.209 195.932 379.996 196C379.785 196.065 379.526 196.097 379.218 196.097C378.895 196.097 378.606 196.04 378.354 195.927C378.105 195.814 377.907 195.642 377.761 195.412C377.619 195.182 377.548 194.891 377.548 194.538C377.548 194.007 377.758 193.599 378.179 193.314C378.6 193.029 379.241 192.874 380.102 192.848L381.02 192.809V192.483C381.02 192.024 380.922 191.701 380.724 191.517C380.527 191.332 380.248 191.24 379.889 191.24C379.61 191.24 379.345 191.28 379.092 191.361C378.84 191.442 378.6 191.538 378.373 191.648L378.126 191.036C378.365 190.913 378.64 190.808 378.951 190.72C379.262 190.633 379.589 190.589 379.932 190.589ZM381.011 193.377L380.2 193.411C379.536 193.437 379.068 193.545 378.796 193.737C378.524 193.928 378.388 194.198 378.388 194.548C378.388 194.852 378.48 195.077 378.665 195.223C378.849 195.369 379.094 195.441 379.398 195.441C379.871 195.441 380.258 195.31 380.559 195.048C380.86 194.786 381.011 194.392 381.011 193.868V193.377ZM385.887 190.579C385.994 190.579 386.106 190.586 386.223 190.599C386.339 190.608 386.443 190.623 386.533 190.642L386.431 191.39C386.344 191.368 386.247 191.35 386.14 191.337C386.033 191.324 385.933 191.318 385.839 191.318C385.625 191.318 385.423 191.361 385.232 191.449C385.044 191.533 384.879 191.656 384.736 191.818C384.594 191.977 384.482 192.169 384.401 192.396C384.32 192.619 384.28 192.869 384.28 193.144V196H383.468V190.676H384.139L384.226 191.658H384.26C384.37 191.46 384.503 191.28 384.659 191.118C384.814 190.953 384.994 190.822 385.198 190.725C385.405 190.628 385.635 190.579 385.887 190.579ZM389.53 190.589C390.165 190.589 390.636 190.732 390.944 191.016C391.251 191.301 391.405 191.756 391.405 192.381V196H390.817L390.662 195.213H390.623C390.474 195.407 390.319 195.571 390.157 195.704C389.995 195.833 389.807 195.932 389.593 196C389.383 196.065 389.124 196.097 388.816 196.097C388.492 196.097 388.204 196.04 387.952 195.927C387.702 195.814 387.505 195.642 387.359 195.412C387.217 195.182 387.145 194.891 387.145 194.538C387.145 194.007 387.356 193.599 387.777 193.314C388.198 193.029 388.839 192.874 389.7 192.848L390.618 192.809V192.483C390.618 192.024 390.52 191.701 390.322 191.517C390.125 191.332 389.846 191.24 389.487 191.24C389.208 191.24 388.943 191.28 388.69 191.361C388.437 191.442 388.198 191.538 387.971 191.648L387.723 191.036C387.963 190.913 388.238 190.808 388.549 190.72C388.86 190.633 389.187 190.589 389.53 190.589ZM390.609 193.377L389.797 193.411C389.134 193.437 388.666 193.545 388.394 193.737C388.122 193.928 387.986 194.198 387.986 194.548C387.986 194.852 388.078 195.077 388.263 195.223C388.447 195.369 388.692 195.441 388.996 195.441C389.469 195.441 389.856 195.31 390.157 195.048C390.458 194.786 390.609 194.392 390.609 193.868V193.377ZM399.094 194.543C399.094 194.883 399.008 195.169 398.837 195.403C398.668 195.632 398.426 195.806 398.108 195.922C397.794 196.039 397.418 196.097 396.981 196.097C396.609 196.097 396.287 196.068 396.015 196.01C395.743 195.951 395.505 195.869 395.301 195.762V195.019C395.518 195.126 395.777 195.223 396.078 195.31C396.379 195.398 396.687 195.441 397.001 195.441C397.461 195.441 397.794 195.367 398.001 195.218C398.209 195.069 398.312 194.867 398.312 194.611C398.312 194.465 398.27 194.337 398.186 194.227C398.105 194.114 397.967 194.005 397.773 193.902C397.579 193.795 397.31 193.678 396.967 193.552C396.627 193.422 396.332 193.295 396.083 193.168C395.837 193.039 395.646 192.882 395.51 192.697C395.377 192.513 395.31 192.273 395.31 191.978C395.31 191.528 395.492 191.183 395.854 190.944C396.22 190.701 396.7 190.579 397.292 190.579C397.613 190.579 397.912 190.612 398.191 190.676C398.472 190.738 398.735 190.822 398.978 190.929L398.706 191.575C398.485 191.481 398.251 191.402 398.001 191.337C397.752 191.272 397.498 191.24 397.239 191.24C396.866 191.24 396.58 191.301 396.379 191.424C396.181 191.548 396.083 191.716 396.083 191.93C396.083 192.095 396.128 192.231 396.219 192.338C396.313 192.445 396.462 192.545 396.666 192.639C396.87 192.733 397.138 192.843 397.472 192.969C397.805 193.092 398.094 193.22 398.336 193.353C398.579 193.482 398.766 193.641 398.895 193.829C399.028 194.013 399.094 194.251 399.094 194.543ZM402.441 190.579C402.894 190.579 403.283 190.68 403.607 190.88C403.93 191.081 404.178 191.363 404.35 191.726C404.521 192.085 404.607 192.506 404.607 192.989V193.489H400.93C400.94 194.114 401.095 194.59 401.397 194.917C401.698 195.244 402.122 195.407 402.669 195.407C403.006 195.407 403.304 195.377 403.563 195.315C403.822 195.254 404.091 195.163 404.369 195.043V195.752C404.1 195.872 403.833 195.96 403.568 196.015C403.305 196.07 402.995 196.097 402.635 196.097C402.123 196.097 401.677 195.994 401.295 195.786C400.916 195.576 400.621 195.268 400.41 194.863C400.2 194.459 400.095 193.963 400.095 193.377C400.095 192.804 400.19 192.309 400.381 191.891C400.576 191.47 400.848 191.146 401.197 190.919C401.55 190.693 401.965 190.579 402.441 190.579ZM402.431 191.24C402 191.24 401.657 191.381 401.401 191.662C401.146 191.944 400.993 192.338 400.945 192.843H403.762C403.759 192.525 403.709 192.247 403.611 192.007C403.517 191.765 403.373 191.577 403.179 191.444C402.985 191.308 402.735 191.24 402.431 191.24ZM406.788 196H405.977V188.442H406.788V196ZM410.543 190.579C410.996 190.579 411.385 190.68 411.708 190.88C412.032 191.081 412.28 191.363 412.452 191.726C412.623 192.085 412.709 192.506 412.709 192.989V193.489H409.032C409.042 194.114 409.197 194.59 409.498 194.917C409.8 195.244 410.224 195.407 410.771 195.407C411.108 195.407 411.406 195.377 411.665 195.315C411.924 195.254 412.193 195.163 412.471 195.043V195.752C412.202 195.872 411.935 195.96 411.67 196.015C411.407 196.07 411.096 196.097 410.737 196.097C410.225 196.097 409.778 195.994 409.396 195.786C409.017 195.576 408.723 195.268 408.512 194.863C408.302 194.459 408.197 193.963 408.197 193.377C408.197 192.804 408.292 192.309 408.483 191.891C408.677 191.47 408.949 191.146 409.299 190.919C409.652 190.693 410.067 190.579 410.543 190.579ZM410.533 191.24C410.102 191.24 409.759 191.381 409.503 191.662C409.247 191.944 409.095 192.338 409.047 192.843H411.864C411.861 192.525 411.81 192.247 411.713 192.007C411.619 191.765 411.475 191.577 411.281 191.444C411.087 191.308 410.837 191.24 410.533 191.24ZM416.211 196.097C415.732 196.097 415.309 195.998 414.943 195.801C414.577 195.603 414.292 195.302 414.088 194.897C413.884 194.493 413.782 193.983 413.782 193.367C413.782 192.723 413.889 192.197 414.103 191.789C414.32 191.378 414.618 191.073 414.997 190.876C415.376 190.678 415.806 190.579 416.289 190.579C416.554 190.579 416.81 190.607 417.056 190.662C417.306 190.714 417.51 190.78 417.668 190.861L417.425 191.536C417.263 191.471 417.076 191.413 416.862 191.361C416.651 191.31 416.454 191.284 416.269 191.284C415.9 191.284 415.593 191.363 415.346 191.522C415.104 191.68 414.921 191.913 414.798 192.221C414.678 192.529 414.618 192.908 414.618 193.358C414.618 193.788 414.676 194.156 414.793 194.46C414.913 194.765 415.089 194.998 415.322 195.16C415.559 195.318 415.853 195.398 416.206 195.398C416.488 195.398 416.742 195.369 416.969 195.31C417.195 195.249 417.401 195.178 417.586 195.097V195.815C417.408 195.906 417.208 195.976 416.988 196.024C416.771 196.073 416.512 196.097 416.211 196.097ZM420.981 196.097C420.502 196.097 420.079 195.998 419.713 195.801C419.347 195.603 419.062 195.302 418.858 194.897C418.654 194.493 418.552 193.983 418.552 193.367C418.552 192.723 418.659 192.197 418.873 191.789C419.09 191.378 419.388 191.073 419.767 190.876C420.145 190.678 420.576 190.579 421.059 190.579C421.324 190.579 421.58 190.607 421.826 190.662C422.075 190.714 422.279 190.78 422.438 190.861L422.195 191.536C422.033 191.471 421.845 191.413 421.632 191.361C421.421 191.31 421.224 191.284 421.039 191.284C420.67 191.284 420.362 191.363 420.116 191.522C419.873 191.68 419.69 191.913 419.567 192.221C419.448 192.529 419.388 192.908 419.388 193.358C419.388 193.788 419.446 194.156 419.563 194.46C419.682 194.765 419.859 194.998 420.092 195.16C420.328 195.318 420.623 195.398 420.976 195.398C421.258 195.398 421.512 195.369 421.739 195.31C421.965 195.249 422.171 195.178 422.355 195.097V195.815C422.177 195.906 421.978 195.976 421.758 196.024C421.541 196.073 421.282 196.097 420.981 196.097ZM424.425 190.676V196H423.618V190.676H424.425ZM424.031 188.685C424.164 188.685 424.277 188.729 424.371 188.816C424.468 188.9 424.517 189.033 424.517 189.214C424.517 189.393 424.468 189.525 424.371 189.613C424.277 189.7 424.164 189.744 424.031 189.744C423.892 189.744 423.775 189.7 423.681 189.613C423.591 189.525 423.545 189.393 423.545 189.214C423.545 189.033 423.591 188.9 423.681 188.816C423.775 188.729 423.892 188.685 424.031 188.685ZM430.724 193.329C430.724 193.766 430.668 194.156 430.554 194.499C430.441 194.842 430.278 195.132 430.064 195.369C429.85 195.605 429.591 195.786 429.287 195.913C428.986 196.036 428.644 196.097 428.262 196.097C427.906 196.097 427.579 196.036 427.281 195.913C426.986 195.786 426.73 195.605 426.513 195.369C426.299 195.132 426.133 194.842 426.013 194.499C425.896 194.156 425.838 193.766 425.838 193.329C425.838 192.746 425.937 192.25 426.134 191.842C426.332 191.431 426.614 191.118 426.98 190.905C427.349 190.688 427.787 190.579 428.296 190.579C428.782 190.579 429.206 190.688 429.568 190.905C429.934 191.122 430.218 191.436 430.418 191.847C430.622 192.255 430.724 192.749 430.724 193.329ZM426.674 193.329C426.674 193.756 426.73 194.127 426.844 194.441C426.957 194.755 427.132 194.998 427.368 195.169C427.604 195.341 427.909 195.427 428.281 195.427C428.65 195.427 428.953 195.341 429.19 195.169C429.429 194.998 429.606 194.755 429.719 194.441C429.832 194.127 429.889 193.756 429.889 193.329C429.889 192.904 429.832 192.538 429.719 192.231C429.606 191.92 429.431 191.68 429.194 191.512C428.958 191.344 428.652 191.259 428.276 191.259C427.723 191.259 427.316 191.442 427.057 191.808C426.801 192.174 426.674 192.681 426.674 193.329ZM434.639 190.579C435.271 190.579 435.748 190.735 436.072 191.046C436.396 191.353 436.558 191.849 436.558 192.532V196H435.761V192.585C435.761 192.142 435.659 191.81 435.455 191.59C435.255 191.369 434.945 191.259 434.528 191.259C433.938 191.259 433.524 191.426 433.284 191.76C433.045 192.093 432.925 192.577 432.925 193.212V196H432.118V190.676H432.769L432.891 191.444H432.934C433.048 191.256 433.192 191.099 433.367 190.973C433.542 190.843 433.738 190.746 433.954 190.681C434.171 190.613 434.4 190.579 434.639 190.579ZM440.211 190.589C440.845 190.589 441.316 190.732 441.624 191.016C441.932 191.301 442.085 191.756 442.085 192.381V196H441.498L441.342 195.213H441.303C441.155 195.407 440.999 195.571 440.837 195.704C440.675 195.833 440.487 195.932 440.274 196C440.063 196.065 439.804 196.097 439.497 196.097C439.173 196.097 438.885 196.04 438.632 195.927C438.383 195.814 438.185 195.642 438.039 195.412C437.897 195.182 437.826 194.891 437.826 194.538C437.826 194.007 438.036 193.599 438.457 193.314C438.878 193.029 439.519 192.874 440.381 192.848L441.299 192.809V192.483C441.299 192.024 441.2 191.701 441.002 191.517C440.805 191.332 440.526 191.24 440.167 191.24C439.888 191.24 439.623 191.28 439.37 191.361C439.118 191.442 438.878 191.538 438.651 191.648L438.404 191.036C438.643 190.913 438.919 190.808 439.229 190.72C439.54 190.633 439.867 190.589 440.211 190.589ZM441.289 193.377L440.478 193.411C439.814 193.437 439.346 193.545 439.074 193.737C438.802 193.928 438.666 194.198 438.666 194.548C438.666 194.852 438.758 195.077 438.943 195.223C439.127 195.369 439.372 195.441 439.676 195.441C440.149 195.441 440.536 195.31 440.837 195.048C441.138 194.786 441.289 194.392 441.289 193.868V193.377ZM446.166 190.579C446.272 190.579 446.384 190.586 446.501 190.599C446.617 190.608 446.721 190.623 446.812 190.642L446.71 191.39C446.622 191.368 446.525 191.35 446.418 191.337C446.311 191.324 446.211 191.318 446.117 191.318C445.903 191.318 445.701 191.361 445.51 191.449C445.322 191.533 445.157 191.656 445.014 191.818C444.872 191.977 444.76 192.169 444.679 192.396C444.598 192.619 444.558 192.869 444.558 193.144V196H443.747V190.676H444.417L444.504 191.658H444.538C444.648 191.46 444.781 191.28 444.937 191.118C445.092 190.953 445.272 190.822 445.476 190.725C445.683 190.628 445.913 190.579 446.166 190.579ZM452.451 190.579C452.904 190.579 453.293 190.68 453.617 190.88C453.94 191.081 454.188 191.363 454.36 191.726C454.531 192.085 454.617 192.506 454.617 192.989V193.489H450.94C450.95 194.114 451.105 194.59 451.406 194.917C451.708 195.244 452.132 195.407 452.679 195.407C453.016 195.407 453.314 195.377 453.573 195.315C453.832 195.254 454.101 195.163 454.379 195.043V195.752C454.11 195.872 453.843 195.96 453.578 196.015C453.315 196.07 453.005 196.097 452.645 196.097C452.133 196.097 451.687 195.994 451.304 195.786C450.926 195.576 450.631 195.268 450.42 194.863C450.21 194.459 450.105 193.963 450.105 193.377C450.105 192.804 450.2 192.309 450.391 191.891C450.586 191.47 450.858 191.146 451.207 190.919C451.56 190.693 451.975 190.579 452.451 190.579ZM452.441 191.24C452.01 191.24 451.667 191.381 451.411 191.662C451.156 191.944 451.003 192.338 450.955 192.843H453.772C453.769 192.525 453.719 192.247 453.621 192.007C453.527 191.765 453.383 191.577 453.189 191.444C452.995 191.308 452.745 191.24 452.441 191.24ZM456.798 196H455.987V188.442H456.798V196ZM461.893 188.442V190.332C461.893 190.549 461.887 190.759 461.874 190.963C461.864 191.167 461.856 191.326 461.85 191.439H461.893C462.039 191.199 462.249 190.997 462.525 190.832C462.8 190.667 463.151 190.584 463.579 190.584C464.246 190.584 464.777 190.816 465.172 191.279C465.57 191.739 465.769 192.423 465.769 193.333C465.769 193.932 465.679 194.438 465.497 194.849C465.316 195.26 465.06 195.571 464.73 195.781C464.4 195.992 464.009 196.097 463.559 196.097C463.138 196.097 462.792 196.019 462.52 195.864C462.251 195.705 462.044 195.513 461.898 195.286H461.835L461.67 196H461.087V188.442H461.893ZM463.448 191.259C463.062 191.259 462.756 191.335 462.53 191.488C462.303 191.637 462.139 191.863 462.039 192.168C461.942 192.469 461.893 192.851 461.893 193.314V193.358C461.893 194.028 462.005 194.541 462.228 194.897C462.452 195.25 462.858 195.427 463.448 195.427C463.943 195.427 464.314 195.246 464.56 194.883C464.809 194.52 464.934 194.002 464.934 193.329C464.934 192.642 464.811 192.126 464.565 191.779C464.322 191.433 463.949 191.259 463.448 191.259ZM471.768 193.329C471.768 193.766 471.711 194.156 471.598 194.499C471.485 194.842 471.321 195.132 471.107 195.369C470.894 195.605 470.635 195.786 470.33 195.913C470.029 196.036 469.687 196.097 469.305 196.097C468.949 196.097 468.622 196.036 468.324 195.913C468.03 195.786 467.774 195.605 467.557 195.369C467.343 195.132 467.176 194.842 467.056 194.499C466.94 194.156 466.882 193.766 466.882 193.329C466.882 192.746 466.98 192.25 467.178 191.842C467.375 191.431 467.657 191.118 468.023 190.905C468.392 190.688 468.831 190.579 469.339 190.579C469.825 190.579 470.249 190.688 470.612 190.905C470.978 191.122 471.261 191.436 471.462 191.847C471.666 192.255 471.768 192.749 471.768 193.329ZM467.717 193.329C467.717 193.756 467.774 194.127 467.887 194.441C468 194.755 468.175 194.998 468.412 195.169C468.648 195.341 468.952 195.427 469.325 195.427C469.694 195.427 469.997 195.341 470.233 195.169C470.473 194.998 470.649 194.755 470.763 194.441C470.876 194.127 470.933 193.756 470.933 193.329C470.933 192.904 470.876 192.538 470.763 192.231C470.649 191.92 470.474 191.68 470.238 191.512C470.002 191.344 469.696 191.259 469.32 191.259C468.766 191.259 468.36 191.442 468.101 191.808C467.845 192.174 467.717 192.681 467.717 193.329ZM474.881 195.437C475.014 195.437 475.15 195.425 475.289 195.403C475.429 195.38 475.542 195.352 475.629 195.32V195.947C475.536 195.989 475.404 196.024 475.236 196.053C475.071 196.083 474.909 196.097 474.75 196.097C474.469 196.097 474.213 196.049 473.983 195.951C473.753 195.851 473.568 195.683 473.429 195.446C473.293 195.21 473.225 194.883 473.225 194.465V191.308H472.467V190.914L473.23 190.599L473.551 189.443H474.036V190.676H475.595V191.308H474.036V194.441C474.036 194.774 474.112 195.024 474.265 195.189C474.42 195.354 474.626 195.437 474.881 195.437ZM481.298 193.329C481.298 193.766 481.241 194.156 481.128 194.499C481.015 194.842 480.851 195.132 480.637 195.369C480.424 195.605 480.165 195.786 479.86 195.913C479.559 196.036 479.217 196.097 478.835 196.097C478.479 196.097 478.152 196.036 477.854 195.913C477.559 195.786 477.304 195.605 477.087 195.369C476.873 195.132 476.706 194.842 476.586 194.499C476.47 194.156 476.411 193.766 476.411 193.329C476.411 192.746 476.51 192.25 476.708 191.842C476.905 191.431 477.187 191.118 477.553 190.905C477.922 190.688 478.361 190.579 478.869 190.579C479.355 190.579 479.779 190.688 480.142 190.905C480.508 191.122 480.791 191.436 480.992 191.847C481.196 192.255 481.298 192.749 481.298 193.329ZM477.247 193.329C477.247 193.756 477.304 194.127 477.417 194.441C477.53 194.755 477.705 194.998 477.942 195.169C478.178 195.341 478.482 195.427 478.855 195.427C479.224 195.427 479.527 195.341 479.763 195.169C480.003 194.998 480.179 194.755 480.292 194.441C480.406 194.127 480.462 193.756 480.462 193.329C480.462 192.904 480.406 192.538 480.292 192.231C480.179 191.92 480.004 191.68 479.768 191.512C479.531 191.344 479.225 191.259 478.85 191.259C478.296 191.259 477.89 191.442 477.631 191.808C477.375 192.174 477.247 192.681 477.247 193.329ZM480.263 188.379V188.476C480.199 188.57 480.109 188.683 479.996 188.816C479.886 188.946 479.763 189.083 479.627 189.229C479.491 189.372 479.353 189.508 479.214 189.637C479.078 189.767 478.952 189.878 478.835 189.972H478.296V189.856C478.4 189.733 478.513 189.585 478.636 189.414C478.759 189.239 478.879 189.061 478.996 188.879C479.112 188.695 479.209 188.528 479.287 188.379H480.263ZM485.213 190.579C485.844 190.579 486.322 190.735 486.646 191.046C486.969 191.353 487.131 191.849 487.131 192.532V196H486.335V192.585C486.335 192.142 486.233 191.81 486.029 191.59C485.828 191.369 485.519 191.259 485.101 191.259C484.512 191.259 484.097 191.426 483.858 191.76C483.618 192.093 483.498 192.577 483.498 193.212V196H482.692V190.676H483.343L483.464 191.444H483.508C483.621 191.256 483.765 191.099 483.94 190.973C484.115 190.843 484.311 190.746 484.528 190.681C484.745 190.613 484.973 190.579 485.213 190.579ZM493.271 196.097C492.597 196.097 492.063 195.867 491.668 195.407C491.276 194.948 491.08 194.264 491.08 193.358C491.08 192.441 491.281 191.75 491.683 191.284C492.084 190.814 492.618 190.579 493.285 190.579C493.567 190.579 493.813 190.617 494.024 190.691C494.234 190.766 494.416 190.866 494.568 190.992C494.72 191.115 494.848 191.256 494.952 191.415H495.01C494.997 191.314 494.984 191.177 494.971 191.002C494.958 190.827 494.952 190.685 494.952 190.574V188.442H495.758V196H495.107L494.986 195.242H494.952C494.851 195.401 494.723 195.545 494.568 195.675C494.416 195.804 494.233 195.908 494.019 195.985C493.808 196.06 493.559 196.097 493.271 196.097ZM493.397 195.427C493.967 195.427 494.37 195.265 494.607 194.941C494.843 194.617 494.961 194.136 494.961 193.499V193.353C494.961 192.676 494.848 192.156 494.621 191.794C494.398 191.431 493.99 191.25 493.397 191.25C492.902 191.25 492.531 191.441 492.285 191.823C492.039 192.202 491.916 192.72 491.916 193.377C491.916 194.031 492.037 194.536 492.28 194.893C492.526 195.249 492.899 195.427 493.397 195.427ZM499.517 190.579C499.971 190.579 500.359 190.68 500.683 190.88C501.007 191.081 501.255 191.363 501.426 191.726C501.598 192.085 501.684 192.506 501.684 192.989V193.489H498.007C498.016 194.114 498.172 194.59 498.473 194.917C498.774 195.244 499.198 195.407 499.746 195.407C500.082 195.407 500.38 195.377 500.639 195.315C500.898 195.254 501.167 195.163 501.446 195.043V195.752C501.177 195.872 500.91 195.96 500.644 196.015C500.382 196.07 500.071 196.097 499.712 196.097C499.2 196.097 498.753 195.994 498.371 195.786C497.992 195.576 497.697 195.268 497.487 194.863C497.277 194.459 497.171 193.963 497.171 193.377C497.171 192.804 497.267 192.309 497.458 191.891C497.652 191.47 497.924 191.146 498.274 190.919C498.627 190.693 499.041 190.579 499.517 190.579ZM499.508 191.24C499.077 191.24 498.734 191.381 498.478 191.662C498.222 191.944 498.07 192.338 498.021 192.843H500.838C500.835 192.525 500.785 192.247 500.688 192.007C500.594 191.765 500.45 191.577 500.256 191.444C500.061 191.308 499.812 191.24 499.508 191.24ZM508.056 190.579C508.163 190.579 508.275 190.586 508.391 190.599C508.508 190.608 508.612 190.623 508.702 190.642L508.6 191.39C508.513 191.368 508.416 191.35 508.309 191.337C508.202 191.324 508.102 191.318 508.008 191.318C507.794 191.318 507.592 191.361 507.401 191.449C507.213 191.533 507.048 191.656 506.905 191.818C506.763 191.977 506.651 192.169 506.57 192.396C506.489 192.619 506.449 192.869 506.449 193.144V196H505.637V190.676H506.308L506.395 191.658H506.429C506.539 191.46 506.672 191.28 506.827 191.118C506.983 190.953 507.163 190.822 507.367 190.725C507.574 190.628 507.804 190.579 508.056 190.579ZM511.699 190.589C512.334 190.589 512.805 190.732 513.113 191.016C513.42 191.301 513.574 191.756 513.574 192.381V196H512.986L512.831 195.213H512.792C512.643 195.407 512.488 195.571 512.326 195.704C512.164 195.833 511.976 195.932 511.762 196C511.552 196.065 511.293 196.097 510.985 196.097C510.661 196.097 510.373 196.04 510.121 195.927C509.871 195.814 509.674 195.642 509.528 195.412C509.386 195.182 509.314 194.891 509.314 194.538C509.314 194.007 509.525 193.599 509.946 193.314C510.367 193.029 511.008 192.874 511.869 192.848L512.787 192.809V192.483C512.787 192.024 512.688 191.701 512.491 191.517C512.293 191.332 512.015 191.24 511.656 191.24C511.377 191.24 511.111 191.28 510.859 191.361C510.606 191.442 510.367 191.538 510.14 191.648L509.892 191.036C510.132 190.913 510.407 190.808 510.718 190.72C511.029 190.633 511.356 190.589 511.699 190.589ZM512.778 193.377L511.966 193.411C511.303 193.437 510.835 193.545 510.563 193.737C510.291 193.928 510.155 194.198 510.155 194.548C510.155 194.852 510.247 195.077 510.431 195.223C510.616 195.369 510.861 195.441 511.165 195.441C511.638 195.441 512.025 195.31 512.326 195.048C512.627 194.786 512.778 194.392 512.778 193.868V193.377ZM517.13 196.097C516.456 196.097 515.922 195.867 515.527 195.407C515.135 194.948 514.939 194.264 514.939 193.358C514.939 192.441 515.14 191.75 515.541 191.284C515.943 190.814 516.477 190.579 517.144 190.579C517.426 190.579 517.672 190.617 517.882 190.691C518.093 190.766 518.274 190.866 518.426 190.992C518.579 191.115 518.707 191.256 518.81 191.415H518.868C518.856 191.314 518.843 191.177 518.83 191.002C518.817 190.827 518.81 190.685 518.81 190.574V188.442H519.616V196H518.966L518.844 195.242H518.81C518.71 195.401 518.582 195.545 518.426 195.675C518.274 195.804 518.091 195.908 517.878 195.985C517.667 196.06 517.418 196.097 517.13 196.097ZM517.256 195.427C517.826 195.427 518.229 195.265 518.465 194.941C518.702 194.617 518.82 194.136 518.82 193.499V193.353C518.82 192.676 518.707 192.156 518.48 191.794C518.256 191.431 517.848 191.25 517.256 191.25C516.76 191.25 516.39 191.441 516.144 191.823C515.897 192.202 515.774 192.72 515.774 193.377C515.774 194.031 515.896 194.536 516.139 194.893C516.385 195.249 516.757 195.427 517.256 195.427ZM522.133 190.676V196H521.326V190.676H522.133ZM521.739 188.685C521.872 188.685 521.985 188.729 522.079 188.816C522.176 188.9 522.225 189.033 522.225 189.214C522.225 189.393 522.176 189.525 522.079 189.613C521.985 189.7 521.872 189.744 521.739 189.744C521.6 189.744 521.483 189.7 521.389 189.613C521.299 189.525 521.253 189.393 521.253 189.214C521.253 189.033 521.299 188.9 521.389 188.816C521.483 188.729 521.6 188.685 521.739 188.685ZM528.432 193.329C528.432 193.766 528.376 194.156 528.262 194.499C528.149 194.842 527.985 195.132 527.772 195.369C527.558 195.605 527.299 195.786 526.995 195.913C526.693 196.036 526.352 196.097 525.97 196.097C525.614 196.097 525.286 196.036 524.989 195.913C524.694 195.786 524.438 195.605 524.221 195.369C524.007 195.132 523.841 194.842 523.721 194.499C523.604 194.156 523.546 193.766 523.546 193.329C523.546 192.746 523.645 192.25 523.842 191.842C524.04 191.431 524.322 191.118 524.687 190.905C525.057 190.688 525.495 190.579 526.004 190.579C526.489 190.579 526.914 190.688 527.276 190.905C527.642 191.122 527.926 191.436 528.126 191.847C528.33 192.255 528.432 192.749 528.432 193.329ZM524.381 193.329C524.381 193.756 524.438 194.127 524.551 194.441C524.665 194.755 524.84 194.998 525.076 195.169C525.312 195.341 525.617 195.427 525.989 195.427C526.358 195.427 526.661 195.341 526.897 195.169C527.137 194.998 527.314 194.755 527.427 194.441C527.54 194.127 527.597 193.756 527.597 193.329C527.597 192.904 527.54 192.538 527.427 192.231C527.314 191.92 527.139 191.68 526.902 191.512C526.666 191.344 526.36 191.259 525.984 191.259C525.431 191.259 525.024 191.442 524.765 191.808C524.509 192.174 524.381 192.681 524.381 193.329Z" fill="#101E37"/>
</g>
<rect x="1" y="1" width="726" height="234" rx="7" stroke="#E6EBF0" stroke-width="2"/>
<defs>
<clipPath id="clip0_3307_2386">
<rect width="728" height="236" rx="8" fill="white"/>
</clipPath>
</defs>
</svg>
