<svg width="728" height="157" viewBox="0 0 728 157" fill="none" xmlns="http://www.w3.org/2000/svg">
<rect x="0.5" y="1.12256" width="727" height="154.906" rx="7.5" fill="white"/>
<rect x="0.5" y="1.12256" width="727" height="154.906" rx="7.5" stroke="#E6EBF0"/>
<rect x="301.065" y="62.0695" width="32.8702" height="32.8702" rx="16.4351" fill="white"/>
<rect x="301.065" y="62.0695" width="32.8702" height="32.8702" rx="16.4351" stroke="#CC3333" stroke-width="2.9882"/>
<rect x="308.535" y="69.54" width="17.9292" height="17.9292" rx="8.96461" fill="white"/>
<path d="M359.218 87.5754H349.717V70.51H359.218V72.2609H351.701V77.7821H358.786V79.5096H351.701V85.8245H359.218V87.5754ZM366.84 86.2214C367.159 86.2214 367.486 86.1942 367.821 86.1397C368.156 86.0852 368.428 86.0191 368.638 85.9413V87.447C368.412 87.5482 368.097 87.6338 367.693 87.7038C367.296 87.7739 366.907 87.8089 366.525 87.8089C365.848 87.8089 365.233 87.6922 364.681 87.4587C364.128 87.2175 363.685 86.8128 363.35 86.2448C363.023 85.6767 362.86 84.8907 362.86 83.8869V76.2996H361.039V75.3542L362.872 74.5954L363.642 71.8173H364.809V74.7822H368.556V76.2996H364.809V83.8285C364.809 84.63 364.992 85.2292 365.358 85.6261C365.732 86.023 366.226 86.2214 366.84 86.2214ZM373.167 74.7822V87.5754H371.229V74.7822H373.167ZM372.222 69.9964C372.541 69.9964 372.813 70.1015 373.039 70.3116C373.272 70.5139 373.389 70.8329 373.389 71.2687C373.389 71.6967 373.272 72.0158 373.039 72.2259C372.813 72.436 372.541 72.541 372.222 72.541C371.887 72.541 371.607 72.436 371.381 72.2259C371.163 72.0158 371.054 71.6967 371.054 71.2687C371.054 70.8329 371.163 70.5139 371.381 70.3116C371.607 70.1015 371.887 69.9964 372.222 69.9964ZM385.855 93.295V87.8089C385.855 87.5054 385.863 87.1552 385.879 86.7584C385.894 86.3615 385.921 86.0191 385.96 85.7312H385.832C385.474 86.3226 384.964 86.8167 384.303 87.2136C383.641 87.6105 382.789 87.8089 381.746 87.8089C380.182 87.8089 378.926 87.2564 377.976 86.1514C377.027 85.0464 376.552 83.3966 376.552 81.2022C376.552 79.7625 376.77 78.5486 377.206 77.5603C377.642 76.572 378.256 75.825 379.05 75.3191C379.852 74.8055 380.785 74.5487 381.851 74.5487C382.871 74.5487 383.704 74.7511 384.349 75.1557C384.995 75.5526 385.501 76.0389 385.867 76.6148H385.96L386.252 74.7822H387.793V93.295H385.855ZM382.108 86.1981C383.011 86.1981 383.735 86.0308 384.279 85.6961C384.824 85.3537 385.221 84.8401 385.47 84.1553C385.727 83.4706 385.863 82.6184 385.879 81.599V81.1905C385.879 79.5408 385.598 78.2918 385.038 77.4436C384.478 76.5876 383.501 76.1596 382.108 76.1596C380.91 76.1596 380.019 76.6187 379.435 77.5369C378.852 78.4474 378.56 79.6847 378.56 81.2489C378.56 82.813 378.852 84.0308 379.435 84.9024C380.019 85.7662 380.91 86.1981 382.108 86.1981ZM402.477 74.7822V87.5754H400.89L400.609 85.7778H400.504C400.24 86.2214 399.897 86.5949 399.477 86.8984C399.057 87.2019 398.582 87.4276 398.053 87.5754C397.532 87.7311 396.975 87.8089 396.384 87.8089C395.372 87.8089 394.524 87.6455 393.839 87.3186C393.155 86.9918 392.637 86.486 392.287 85.8012C391.944 85.1164 391.773 84.2371 391.773 83.1632V74.7822H393.734V83.0231C393.734 84.0892 393.975 84.8868 394.458 85.416C394.94 85.9374 395.676 86.1981 396.664 86.1981C397.613 86.1981 398.368 86.0191 398.929 85.6611C399.497 85.3032 399.905 84.7779 400.154 84.0853C400.403 83.385 400.528 82.529 400.528 81.5173V74.7822H402.477ZM411.5 74.5487C412.59 74.5487 413.523 74.79 414.302 75.2724C415.08 75.7549 415.675 76.4319 416.087 77.3035C416.5 78.1673 416.706 79.1789 416.706 80.3384V81.5407H407.87C407.893 83.0426 408.267 84.1865 408.99 84.9724C409.714 85.7584 410.734 86.1514 412.049 86.1514C412.858 86.1514 413.574 86.0774 414.196 85.9296C414.819 85.7817 415.465 85.5638 416.134 85.2759V86.9801C415.488 87.2681 414.846 87.4782 414.208 87.6105C413.578 87.7427 412.831 87.8089 411.967 87.8089C410.737 87.8089 409.664 87.5599 408.745 87.0618C407.835 86.556 407.127 85.8168 406.621 84.844C406.115 83.8713 405.862 82.6807 405.862 81.2722C405.862 79.8948 406.092 78.7042 406.551 77.7004C407.018 76.6887 407.671 75.9106 408.512 75.3658C409.36 74.8211 410.356 74.5487 411.5 74.5487ZM411.477 76.1362C410.442 76.1362 409.617 76.4747 409.002 77.1517C408.387 77.8288 408.022 78.7742 407.905 79.9882H414.675C414.667 79.2256 414.547 78.5564 414.313 77.9805C414.088 77.3969 413.741 76.9455 413.274 76.6265C412.807 76.2996 412.208 76.1362 411.477 76.1362ZM424.13 86.2214C424.449 86.2214 424.776 86.1942 425.11 86.1397C425.445 86.0852 425.717 86.0191 425.927 85.9413V87.447C425.702 87.5482 425.387 87.6338 424.982 87.7038C424.585 87.7739 424.196 87.8089 423.815 87.8089C423.138 87.8089 422.523 87.6922 421.97 87.4587C421.418 87.2175 420.974 86.8128 420.64 86.2448C420.313 85.6767 420.15 84.8907 420.15 83.8869V76.2996H418.329V75.3542L420.161 74.5954L420.932 71.8173H422.099V74.7822H425.846V76.2996H422.099V83.8285C422.099 84.63 422.282 85.2292 422.647 85.6261C423.021 86.023 423.515 86.2214 424.13 86.2214ZM433.305 74.5721C434.83 74.5721 435.962 74.9145 436.701 75.5993C437.441 76.2841 437.81 77.3774 437.81 78.8793V87.5754H436.398L436.024 85.6845H435.931C435.573 86.1514 435.199 86.5444 434.81 86.8634C434.421 87.1747 433.97 87.412 433.456 87.5754C432.951 87.7311 432.328 87.8089 431.589 87.8089C430.811 87.8089 430.118 87.6727 429.511 87.4003C428.912 87.128 428.437 86.7156 428.087 86.163C427.745 85.6105 427.573 84.9102 427.573 84.062C427.573 82.7858 428.079 81.8052 429.091 81.1205C430.102 80.4357 431.643 80.0621 433.713 79.9999L435.919 79.9065V79.1244C435.919 78.0194 435.682 77.2451 435.207 76.8016C434.733 76.358 434.063 76.1362 433.2 76.1362C432.53 76.1362 431.892 76.2335 431.285 76.428C430.678 76.6226 430.102 76.8521 429.558 77.1167L428.962 75.646C429.538 75.3503 430.2 75.0974 430.947 74.8872C431.694 74.6771 432.48 74.5721 433.305 74.5721ZM435.896 81.2722L433.947 81.3539C432.351 81.4162 431.227 81.6768 430.573 82.136C429.92 82.5951 429.593 83.2449 429.593 84.0853C429.593 84.8168 429.814 85.3576 430.258 85.7078C430.702 86.058 431.289 86.2331 432.021 86.2331C433.157 86.2331 434.087 85.9179 434.81 85.2876C435.534 84.6573 435.896 83.7118 435.896 82.4511V81.2722Z" fill="#101E37"/>
</svg>
