<svg width="728" height="157" viewBox="0 0 728 157" fill="none" xmlns="http://www.w3.org/2000/svg">
<rect x="0.5" y="1.02832" width="727" height="154.906" rx="7.5" fill="white"/>
<rect x="0.5" y="1.02832" width="727" height="154.906" rx="7.5" stroke="#E6EBF0"/>
<rect x="301.065" y="61.9753" width="32.8702" height="32.8702" rx="16.4351" fill="#E6EBF0"/>
<rect x="301.065" y="61.9753" width="32.8702" height="32.8702" rx="16.4351" stroke="#9EAAB8" stroke-width="2.9882"/>
<path d="M359.218 87.4812H349.717V70.4158H359.218V72.1667H351.701V77.6878H358.786V79.4154H351.701V85.7303H359.218V87.4812ZM366.84 86.1272C367.159 86.1272 367.486 86.0999 367.821 86.0455C368.156 85.991 368.428 85.9248 368.638 85.847V87.3528C368.412 87.454 368.097 87.5396 367.693 87.6096C367.296 87.6796 366.907 87.7147 366.525 87.7147C365.848 87.7147 365.233 87.5979 364.681 87.3645C364.128 87.1232 363.685 86.7186 363.35 86.1505C363.023 85.5824 362.86 84.7965 362.86 83.7926V76.2054H361.039V75.2599L362.872 74.5012L363.642 71.7231H364.809V74.688H368.556V76.2054H364.809V83.7343C364.809 84.5358 364.992 85.135 365.358 85.5319C365.732 85.9287 366.226 86.1272 366.84 86.1272ZM373.167 74.688V87.4812H371.229V74.688H373.167ZM372.222 69.9022C372.541 69.9022 372.813 70.0072 373.039 70.2173C373.272 70.4196 373.389 70.7387 373.389 71.1745C373.389 71.6025 373.272 71.9215 373.039 72.1316C372.813 72.3417 372.541 72.4468 372.222 72.4468C371.887 72.4468 371.607 72.3417 371.381 72.1316C371.163 71.9215 371.054 71.6025 371.054 71.1745C371.054 70.7387 371.163 70.4196 371.381 70.2173C371.607 70.0072 371.887 69.9022 372.222 69.9022ZM385.855 93.2008V87.7147C385.855 87.4112 385.863 87.061 385.879 86.6641C385.894 86.2672 385.921 85.9248 385.96 85.6369H385.832C385.474 86.2283 384.964 86.7225 384.303 87.1193C383.641 87.5162 382.789 87.7147 381.746 87.7147C380.182 87.7147 378.926 87.1621 377.976 86.0571C377.027 84.9521 376.552 83.3024 376.552 81.1079C376.552 79.6683 376.77 78.4543 377.206 77.466C377.642 76.4778 378.256 75.7307 379.05 75.2249C379.852 74.7113 380.785 74.4545 381.851 74.4545C382.871 74.4545 383.704 74.6568 384.349 75.0615C384.995 75.4584 385.501 75.9447 385.867 76.5206H385.96L386.252 74.688H387.793V93.2008H385.855ZM382.108 86.1038C383.011 86.1038 383.735 85.9365 384.279 85.6019C384.824 85.2595 385.221 84.7459 385.47 84.0611C385.727 83.3763 385.863 82.5242 385.879 81.5048V81.0963C385.879 79.4465 385.598 78.1975 385.038 77.3493C384.478 76.4933 383.501 76.0653 382.108 76.0653C380.91 76.0653 380.019 76.5245 379.435 77.4427C378.852 78.3532 378.56 79.5905 378.56 81.1546C378.56 82.7188 378.852 83.9366 379.435 84.8082C380.019 85.6719 380.91 86.1038 382.108 86.1038ZM402.477 74.688V87.4812H400.89L400.609 85.6836H400.504C400.24 86.1272 399.897 86.5007 399.477 86.8042C399.057 87.1077 398.582 87.3333 398.053 87.4812C397.532 87.6368 396.975 87.7147 396.384 87.7147C395.372 87.7147 394.524 87.5512 393.839 87.2244C393.155 86.8976 392.637 86.3918 392.287 85.707C391.944 85.0222 391.773 84.1428 391.773 83.0689V74.688H393.734V82.9289C393.734 83.995 393.975 84.7926 394.458 85.3218C394.94 85.8431 395.676 86.1038 396.664 86.1038C397.613 86.1038 398.368 85.9248 398.929 85.5669C399.497 85.2089 399.905 84.6837 400.154 83.9911C400.403 83.2907 400.528 82.4347 400.528 81.4231V74.688H402.477ZM411.5 74.4545C412.59 74.4545 413.523 74.6957 414.302 75.1782C415.08 75.6607 415.675 76.3377 416.087 77.2093C416.5 78.073 416.706 79.0847 416.706 80.2441V81.4464H407.87C407.893 82.9483 408.267 84.0922 408.99 84.8782C409.714 85.6642 410.734 86.0571 412.049 86.0571C412.858 86.0571 413.574 85.9832 414.196 85.8354C414.819 85.6875 415.465 85.4696 416.134 85.1817V86.8859C415.488 87.1738 414.846 87.3839 414.208 87.5162C413.578 87.6485 412.831 87.7147 411.967 87.7147C410.737 87.7147 409.664 87.4656 408.745 86.9676C407.835 86.4618 407.127 85.7225 406.621 84.7498C406.115 83.7771 405.862 82.5865 405.862 81.178C405.862 79.8006 406.092 78.61 406.551 77.6061C407.018 76.5945 407.671 75.8163 408.512 75.2716C409.36 74.7269 410.356 74.4545 411.5 74.4545ZM411.477 76.042C410.442 76.042 409.617 76.3805 409.002 77.0575C408.387 77.7345 408.022 78.68 407.905 79.894H414.675C414.667 79.1314 414.547 78.4621 414.313 77.8863C414.088 77.3026 413.741 76.8513 413.274 76.5322C412.807 76.2054 412.208 76.042 411.477 76.042ZM424.13 86.1272C424.449 86.1272 424.776 86.0999 425.11 86.0455C425.445 85.991 425.717 85.9248 425.927 85.847V87.3528C425.702 87.454 425.387 87.5396 424.982 87.6096C424.585 87.6796 424.196 87.7147 423.815 87.7147C423.138 87.7147 422.523 87.5979 421.97 87.3645C421.418 87.1232 420.974 86.7186 420.64 86.1505C420.313 85.5824 420.15 84.7965 420.15 83.7926V76.2054H418.329V75.2599L420.161 74.5012L420.932 71.7231H422.099V74.688H425.846V76.2054H422.099V83.7343C422.099 84.5358 422.282 85.135 422.647 85.5319C423.021 85.9287 423.515 86.1272 424.13 86.1272ZM433.305 74.4778C434.83 74.4778 435.962 74.8202 436.701 75.505C437.441 76.1898 437.81 77.2832 437.81 78.7851V87.4812H436.398L436.024 85.5902H435.931C435.573 86.0571 435.199 86.4501 434.81 86.7692C434.421 87.0804 433.97 87.3178 433.456 87.4812C432.951 87.6368 432.328 87.7147 431.589 87.7147C430.811 87.7147 430.118 87.5785 429.511 87.3061C428.912 87.0337 428.437 86.6213 428.087 86.0688C427.745 85.5163 427.573 84.8159 427.573 83.9677C427.573 82.6915 428.079 81.711 429.091 81.0262C430.102 80.3414 431.643 79.9679 433.713 79.9056L435.919 79.8123V79.0302C435.919 77.9252 435.682 77.1509 435.207 76.7073C434.733 76.2638 434.063 76.042 433.2 76.042C432.53 76.042 431.892 76.1393 431.285 76.3338C430.678 76.5283 430.102 76.7579 429.558 77.0225L428.962 75.5517C429.538 75.256 430.2 75.0031 430.947 74.793C431.694 74.5829 432.48 74.4778 433.305 74.4778ZM435.896 81.178L433.947 81.2597C432.351 81.3219 431.227 81.5826 430.573 82.0417C429.92 82.5009 429.593 83.1506 429.593 83.9911C429.593 84.7226 429.814 85.2634 430.258 85.6136C430.702 85.9638 431.289 86.1388 432.021 86.1388C433.157 86.1388 434.087 85.8237 434.81 85.1934C435.534 84.563 435.896 83.6175 435.896 82.3569V81.178Z" fill="#9EAAB8"/>
</svg>
