<svg width="728" height="157" viewBox="0 0 728 157" fill="none" xmlns="http://www.w3.org/2000/svg">
<rect x="0.5" y="1.31128" width="727" height="154.906" rx="7.5" fill="white"/>
<rect x="0.5" y="1.31128" width="727" height="154.906" rx="7.5" stroke="#E6EBF0"/>
<rect x="301.065" y="62.2583" width="32.8702" height="32.8702" rx="16.4351" fill="white"/>
<rect x="301.065" y="62.2583" width="32.8702" height="32.8702" rx="16.4351" stroke="#274986" stroke-width="2.9882"/>
<rect x="308.535" y="69.7288" width="17.9292" height="17.9292" rx="8.96461" fill="white"/>
<path d="M359.218 87.7642H349.717V70.6987H359.218V72.4496H351.701V77.9708H358.786V79.6983H351.701V86.0133H359.218V87.7642ZM366.84 86.4101C367.159 86.4101 367.486 86.3829 367.821 86.3284C368.156 86.2739 368.428 86.2078 368.638 86.13V87.6358C368.412 87.7369 368.097 87.8225 367.693 87.8926C367.296 87.9626 366.907 87.9976 366.525 87.9976C365.848 87.9976 365.233 87.8809 364.681 87.6474C364.128 87.4062 363.685 87.0015 363.35 86.4335C363.023 85.8654 362.86 85.0794 362.86 84.0756V76.4884H361.039V75.5429L362.872 74.7842L363.642 72.0061H364.809V74.9709H368.556V76.4884H364.809V84.0172C364.809 84.8188 364.992 85.418 365.358 85.8148C365.732 86.2117 366.226 86.4101 366.84 86.4101ZM373.167 74.9709V87.7642H371.229V74.9709H373.167ZM372.222 70.1851C372.541 70.1851 372.813 70.2902 373.039 70.5003C373.272 70.7026 373.389 71.0217 373.389 71.4574C373.389 71.8854 373.272 72.2045 373.039 72.4146C372.813 72.6247 372.541 72.7298 372.222 72.7298C371.887 72.7298 371.607 72.6247 371.381 72.4146C371.163 72.2045 371.054 71.8854 371.054 71.4574C371.054 71.0217 371.163 70.7026 371.381 70.5003C371.607 70.2902 371.887 70.1851 372.222 70.1851ZM385.855 93.4838V87.9976C385.855 87.6941 385.863 87.3439 385.879 86.9471C385.894 86.5502 385.921 86.2078 385.96 85.9199H385.832C385.474 86.5113 384.964 87.0054 384.303 87.4023C383.641 87.7992 382.789 87.9976 381.746 87.9976C380.182 87.9976 378.926 87.4451 377.976 86.3401C377.027 85.2351 376.552 83.5853 376.552 81.3909C376.552 79.9513 376.77 78.7373 377.206 77.749C377.642 76.7607 378.256 76.0137 379.05 75.5079C379.852 74.9943 380.785 74.7375 381.851 74.7375C382.871 74.7375 383.704 74.9398 384.349 75.3444C384.995 75.7413 385.501 76.2277 385.867 76.8035H385.96L386.252 74.9709H387.793V93.4838H385.855ZM382.108 86.3868C383.011 86.3868 383.735 86.2195 384.279 85.8849C384.824 85.5425 385.221 85.0289 385.47 84.3441C385.727 83.6593 385.863 82.8072 385.879 81.7878V81.3792C385.879 79.7295 385.598 78.4805 385.038 77.6323C384.478 76.7763 383.501 76.3483 382.108 76.3483C380.91 76.3483 380.019 76.8074 379.435 77.7257C378.852 78.6361 378.56 79.8734 378.56 81.4376C378.56 83.0017 378.852 84.2196 379.435 85.0911C380.019 85.9549 380.91 86.3868 382.108 86.3868ZM402.477 74.9709V87.7642H400.89L400.609 85.9666H400.504C400.24 86.4101 399.897 86.7837 399.477 87.0871C399.057 87.3906 398.582 87.6163 398.053 87.7642C397.532 87.9198 396.975 87.9976 396.384 87.9976C395.372 87.9976 394.524 87.8342 393.839 87.5074C393.155 87.1805 392.637 86.6747 392.287 85.9899C391.944 85.3051 391.773 84.4258 391.773 83.3519V74.9709H393.734V83.2118C393.734 84.2779 393.975 85.0756 394.458 85.6047C394.94 86.1261 395.676 86.3868 396.664 86.3868C397.613 86.3868 398.368 86.2078 398.929 85.8498C399.497 85.4919 399.905 84.9666 400.154 84.274C400.403 83.5737 400.528 82.7177 400.528 81.706V74.9709H402.477ZM411.5 74.7375C412.59 74.7375 413.523 74.9787 414.302 75.4612C415.08 75.9436 415.675 76.6207 416.087 77.4922C416.5 78.356 416.706 79.3676 416.706 80.5271V81.7294H407.87C407.893 83.2313 408.267 84.3752 408.99 85.1612C409.714 85.9471 410.734 86.3401 412.049 86.3401C412.858 86.3401 413.574 86.2662 414.196 86.1183C414.819 85.9705 415.465 85.7526 416.134 85.4646V87.1689C415.488 87.4568 414.846 87.6669 414.208 87.7992C413.578 87.9315 412.831 87.9976 411.967 87.9976C410.737 87.9976 409.664 87.7486 408.745 87.2506C407.835 86.7447 407.127 86.0055 406.621 85.0328C406.115 84.06 405.862 82.8694 405.862 81.4609C405.862 80.0835 406.092 78.8929 406.551 77.8891C407.018 76.8774 407.671 76.0993 408.512 75.5545C409.36 75.0098 410.356 74.7375 411.5 74.7375ZM411.477 76.3249C410.442 76.3249 409.617 76.6635 409.002 77.3405C408.387 78.0175 408.022 78.963 407.905 80.1769H414.675C414.667 79.4143 414.547 78.7451 414.313 78.1692C414.088 77.5856 413.741 77.1342 413.274 76.8152C412.807 76.4884 412.208 76.3249 411.477 76.3249ZM424.13 86.4101C424.449 86.4101 424.776 86.3829 425.11 86.3284C425.445 86.2739 425.717 86.2078 425.927 86.13V87.6358C425.702 87.7369 425.387 87.8225 424.982 87.8926C424.585 87.9626 424.196 87.9976 423.815 87.9976C423.138 87.9976 422.523 87.8809 421.97 87.6474C421.418 87.4062 420.974 87.0015 420.64 86.4335C420.313 85.8654 420.15 85.0794 420.15 84.0756V76.4884H418.329V75.5429L420.161 74.7842L420.932 72.0061H422.099V74.9709H425.846V76.4884H422.099V84.0172C422.099 84.8188 422.282 85.418 422.647 85.8148C423.021 86.2117 423.515 86.4101 424.13 86.4101ZM433.305 74.7608C434.83 74.7608 435.962 75.1032 436.701 75.788C437.441 76.4728 437.81 77.5661 437.81 79.068V87.7642H436.398L436.024 85.8732H435.931C435.573 86.3401 435.199 86.7331 434.81 87.0521C434.421 87.3634 433.97 87.6007 433.456 87.7642C432.951 87.9198 432.328 87.9976 431.589 87.9976C430.811 87.9976 430.118 87.8614 429.511 87.5891C428.912 87.3167 428.437 86.9043 428.087 86.3518C427.745 85.7993 427.573 85.0989 427.573 84.2507C427.573 82.9745 428.079 81.994 429.091 81.3092C430.102 80.6244 431.643 80.2509 433.713 80.1886L435.919 80.0952V79.3131C435.919 78.2081 435.682 77.4338 435.207 76.9903C434.733 76.5467 434.063 76.3249 433.2 76.3249C432.53 76.3249 431.892 76.4222 431.285 76.6168C430.678 76.8113 430.102 77.0409 429.558 77.3054L428.962 75.8347C429.538 75.539 430.2 75.2861 430.947 75.076C431.694 74.8659 432.48 74.7608 433.305 74.7608ZM435.896 81.4609L433.947 81.5426C432.351 81.6049 431.227 81.8656 430.573 82.3247C429.92 82.7838 429.593 83.4336 429.593 84.274C429.593 85.0055 429.814 85.5464 430.258 85.8965C430.702 86.2467 431.289 86.4218 432.021 86.4218C433.157 86.4218 434.087 86.1066 434.81 85.4763C435.534 84.846 435.896 83.9005 435.896 82.6399V81.4609Z" fill="#274986"/>
</svg>
