<svg width="728" height="148" viewBox="0 0 728 148" fill="none" xmlns="http://www.w3.org/2000/svg">
<rect x="1" y="1" width="726" height="146" rx="7" fill="#F3F6F9"/>
<rect x="1" y="1" width="726" height="146" rx="7" stroke="#E6EBF0" stroke-width="2"/>
<rect x="184.683" y="57.4941" width="32.8702" height="32.8702" rx="16.4351" fill="white"/>
<rect x="184.683" y="57.4941" width="32.8702" height="32.8702" rx="16.4351" stroke="#101E37" stroke-width="2.9882"/>
<path d="M242.836 83H233.335V65.9346H242.836V67.6855H235.319V73.2066H242.404V74.9342H235.319V81.2491H242.836V83ZM250.458 81.646C250.777 81.646 251.104 81.6187 251.439 81.5643C251.774 81.5098 252.046 81.4436 252.256 81.3658V82.8716C252.03 82.9728 251.715 83.0584 251.311 83.1284C250.914 83.1984 250.525 83.2335 250.143 83.2335C249.466 83.2335 248.851 83.1167 248.299 82.8833C247.746 82.642 247.303 82.2374 246.968 81.6693C246.641 81.1012 246.478 80.3153 246.478 79.3114V71.7242H244.657V70.7787L246.49 70.02L247.26 67.2419H248.427V70.2068H252.174V71.7242H248.427V79.2531C248.427 80.0546 248.61 80.6538 248.976 81.0507C249.349 81.4475 249.844 81.646 250.458 81.646ZM256.785 70.2068V83H254.847V70.2068H256.785ZM255.84 65.421C256.159 65.421 256.431 65.526 256.657 65.7361C256.89 65.9384 257.007 66.2575 257.007 66.6933C257.007 67.1213 256.89 67.4403 256.657 67.6504C256.431 67.8605 256.159 67.9656 255.84 67.9656C255.505 67.9656 255.225 67.8605 254.999 67.6504C254.781 67.4403 254.672 67.1213 254.672 66.6933C254.672 66.2575 254.781 65.9384 254.999 65.7361C255.225 65.526 255.505 65.421 255.84 65.421ZM269.473 88.7196V83.2335C269.473 82.93 269.481 82.5798 269.497 82.1829C269.512 81.786 269.539 81.4436 269.578 81.1557H269.45C269.092 81.7471 268.582 82.2413 267.921 82.6381C267.259 83.035 266.407 83.2335 265.364 83.2335C263.8 83.2335 262.544 82.6809 261.594 81.5759C260.645 80.4709 260.17 78.8212 260.17 76.6267C260.17 75.1871 260.388 73.9731 260.824 72.9848C261.26 71.9966 261.874 71.2495 262.668 70.7437C263.47 70.2301 264.403 69.9733 265.469 69.9733C266.489 69.9733 267.322 70.1756 267.967 70.5803C268.613 70.9771 269.119 71.4635 269.485 72.0394H269.578L269.87 70.2068H271.411V88.7196H269.473ZM265.726 81.6226C266.629 81.6226 267.353 81.4553 267.897 81.1207C268.442 80.7783 268.839 80.2647 269.088 79.5799C269.345 78.8951 269.481 78.043 269.497 77.0236V76.615C269.497 74.9653 269.216 73.7163 268.656 72.8681C268.096 72.0121 267.119 71.5841 265.726 71.5841C264.528 71.5841 263.637 72.0433 263.053 72.9615C262.47 73.872 262.178 75.1093 262.178 76.6734C262.178 78.2376 262.47 79.4554 263.053 80.327C263.637 81.1907 264.528 81.6226 265.726 81.6226ZM286.095 70.2068V83H284.508L284.227 81.2024H284.122C283.858 81.646 283.515 82.0195 283.095 82.323C282.675 82.6265 282.2 82.8521 281.671 83C281.15 83.1556 280.593 83.2335 280.002 83.2335C278.99 83.2335 278.142 83.07 277.457 82.7432C276.772 82.4164 276.255 81.9106 275.905 81.2258C275.562 80.541 275.391 79.6616 275.391 78.5877V70.2068H277.352V78.4477C277.352 79.5138 277.593 80.3114 278.076 80.8406C278.558 81.3619 279.294 81.6226 280.282 81.6226C281.231 81.6226 281.986 81.4436 282.547 81.0857C283.115 80.7277 283.523 80.2024 283.772 79.5099C284.021 78.8095 284.146 77.9535 284.146 76.9419V70.2068H286.095ZM295.118 69.9733C296.207 69.9733 297.141 70.2145 297.919 70.697C298.698 71.1795 299.293 71.8565 299.705 72.728C300.118 73.5918 300.324 74.6035 300.324 75.7629V76.9652H291.488C291.511 78.4671 291.885 79.611 292.608 80.397C293.332 81.183 294.352 81.5759 295.667 81.5759C296.476 81.5759 297.192 81.502 297.814 81.3542C298.437 81.2063 299.083 80.9884 299.752 80.7005V82.4047C299.106 82.6926 298.464 82.9027 297.826 83.035C297.196 83.1673 296.449 83.2335 295.585 83.2335C294.355 83.2335 293.282 82.9844 292.363 82.4864C291.453 81.9806 290.745 81.2413 290.239 80.2686C289.733 79.2959 289.48 78.1053 289.48 76.6968C289.48 75.3194 289.71 74.1288 290.169 73.1249C290.636 72.1133 291.289 71.3351 292.13 70.7904C292.978 70.2457 293.974 69.9733 295.118 69.9733ZM295.095 71.5608C294.06 71.5608 293.235 71.8993 292.62 72.5763C292.005 73.2533 291.64 74.1988 291.523 75.4128H298.293C298.285 74.6501 298.165 73.9809 297.931 73.4051C297.705 72.8214 297.359 72.3701 296.892 72.051C296.425 71.7242 295.826 71.5608 295.095 71.5608ZM307.748 81.646C308.067 81.646 308.394 81.6187 308.728 81.5643C309.063 81.5098 309.335 81.4436 309.545 81.3658V82.8716C309.32 82.9728 309.005 83.0584 308.6 83.1284C308.203 83.1984 307.814 83.2335 307.433 83.2335C306.756 83.2335 306.141 83.1167 305.588 82.8833C305.036 82.642 304.592 82.2374 304.258 81.6693C303.931 81.1012 303.767 80.3153 303.767 79.3114V71.7242H301.947V70.7787L303.779 70.02L304.55 67.2419H305.717V70.2068H309.464V71.7242H305.717V79.2531C305.717 80.0546 305.9 80.6538 306.265 81.0507C306.639 81.4475 307.133 81.646 307.748 81.646ZM316.923 69.9966C318.448 69.9966 319.58 70.339 320.319 71.0238C321.059 71.7086 321.428 72.802 321.428 74.3039V83H320.016L319.642 81.109H319.549C319.191 81.5759 318.817 81.9689 318.428 82.288C318.039 82.5992 317.588 82.8366 317.074 83C316.569 83.1556 315.946 83.2335 315.207 83.2335C314.429 83.2335 313.736 83.0973 313.129 82.8249C312.53 82.5525 312.055 82.1401 311.705 81.5876C311.363 81.0351 311.191 80.3347 311.191 79.4865C311.191 78.2103 311.697 77.2298 312.709 76.545C313.72 75.8602 315.261 75.4867 317.331 75.4244L319.537 75.3311V74.549C319.537 73.444 319.3 72.6697 318.825 72.2261C318.351 71.7826 317.681 71.5608 316.818 71.5608C316.148 71.5608 315.51 71.6581 314.903 71.8526C314.296 72.0471 313.72 72.2767 313.176 72.5413L312.58 71.0705C313.156 70.7748 313.818 70.5219 314.565 70.3118C315.312 70.1017 316.098 69.9966 316.923 69.9966ZM319.514 76.6968L317.565 76.7785C315.969 76.8407 314.845 77.1014 314.191 77.5605C313.538 78.0197 313.211 78.6694 313.211 79.5099C313.211 80.2414 313.432 80.7822 313.876 81.1324C314.32 81.4826 314.907 81.6576 315.639 81.6576C316.775 81.6576 317.705 81.3425 318.428 80.7122C319.152 80.0818 319.514 79.1363 319.514 77.8757V76.6968Z" fill="#101E37"/>
<rect x="417.447" y="57.4941" width="32.8702" height="32.8702" rx="16.4351" fill="white"/>
<rect x="417.447" y="57.4941" width="32.8702" height="32.8702" rx="16.4351" stroke="#274986" stroke-width="2.9882"/>
<rect x="424.917" y="64.9646" width="17.9292" height="17.9292" rx="8.96461" fill="#274986"/>
<path d="M475.6 83H466.099V65.9346H475.6V67.6855H468.083V73.2066H475.168V74.9342H468.083V81.2491H475.6V83ZM483.222 81.646C483.541 81.646 483.868 81.6187 484.203 81.5643C484.538 81.5098 484.81 81.4436 485.02 81.3658V82.8716C484.794 82.9728 484.479 83.0584 484.075 83.1284C483.678 83.1984 483.289 83.2335 482.907 83.2335C482.23 83.2335 481.616 83.1167 481.063 82.8833C480.51 82.642 480.067 82.2374 479.732 81.6693C479.405 81.1012 479.242 80.3153 479.242 79.3114V71.7242H477.421V70.7787L479.254 70.02L480.024 67.2419H481.191V70.2068H484.938V71.7242H481.191V79.2531C481.191 80.0546 481.374 80.6538 481.74 81.0507C482.114 81.4475 482.608 81.646 483.222 81.646ZM489.549 70.2068V83H487.611V70.2068H489.549ZM488.604 65.421C488.923 65.421 489.195 65.526 489.421 65.7361C489.654 65.9384 489.771 66.2575 489.771 66.6933C489.771 67.1213 489.654 67.4403 489.421 67.6504C489.195 67.8605 488.923 67.9656 488.604 67.9656C488.269 67.9656 487.989 67.8605 487.763 67.6504C487.545 67.4403 487.436 67.1213 487.436 66.6933C487.436 66.2575 487.545 65.9384 487.763 65.7361C487.989 65.526 488.269 65.421 488.604 65.421ZM502.237 88.7196V83.2335C502.237 82.93 502.245 82.5798 502.261 82.1829C502.276 81.786 502.303 81.4436 502.342 81.1557H502.214C501.856 81.7471 501.346 82.2413 500.685 82.6381C500.023 83.035 499.171 83.2335 498.128 83.2335C496.564 83.2335 495.308 82.6809 494.358 81.5759C493.409 80.4709 492.934 78.8212 492.934 76.6267C492.934 75.1871 493.152 73.9731 493.588 72.9848C494.024 71.9966 494.638 71.2495 495.432 70.7437C496.234 70.2301 497.167 69.9733 498.233 69.9733C499.253 69.9733 500.086 70.1756 500.731 70.5803C501.377 70.9771 501.883 71.4635 502.249 72.0394H502.342L502.634 70.2068H504.175V88.7196H502.237ZM498.49 81.6226C499.393 81.6226 500.117 81.4553 500.661 81.1207C501.206 80.7783 501.603 80.2647 501.852 79.5799C502.109 78.8951 502.245 78.043 502.261 77.0236V76.615C502.261 74.9653 501.98 73.7163 501.42 72.8681C500.86 72.0121 499.883 71.5841 498.49 71.5841C497.292 71.5841 496.401 72.0433 495.817 72.9615C495.234 73.872 494.942 75.1093 494.942 76.6734C494.942 78.2376 495.234 79.4554 495.817 80.327C496.401 81.1907 497.292 81.6226 498.49 81.6226ZM518.859 70.2068V83H517.272L516.991 81.2024H516.886C516.622 81.646 516.279 82.0195 515.859 82.323C515.439 82.6265 514.964 82.8521 514.435 83C513.914 83.1556 513.357 83.2335 512.766 83.2335C511.754 83.2335 510.906 83.07 510.221 82.7432C509.537 82.4164 509.019 81.9106 508.669 81.2258C508.326 80.541 508.155 79.6616 508.155 78.5877V70.2068H510.116V78.4477C510.116 79.5138 510.358 80.3114 510.84 80.8406C511.322 81.3619 512.058 81.6226 513.046 81.6226C513.995 81.6226 514.75 81.4436 515.311 81.0857C515.879 80.7277 516.287 80.2024 516.536 79.5099C516.785 78.8095 516.91 77.9535 516.91 76.9419V70.2068H518.859ZM527.882 69.9733C528.972 69.9733 529.905 70.2145 530.684 70.697C531.462 71.1795 532.057 71.8565 532.469 72.728C532.882 73.5918 533.088 74.6035 533.088 75.7629V76.9652H524.252C524.275 78.4671 524.649 79.611 525.372 80.397C526.096 81.183 527.116 81.5759 528.431 81.5759C529.24 81.5759 529.956 81.502 530.578 81.3542C531.201 81.2063 531.847 80.9884 532.516 80.7005V82.4047C531.87 82.6926 531.228 82.9027 530.59 83.035C529.96 83.1673 529.213 83.2335 528.349 83.2335C527.119 83.2335 526.046 82.9844 525.127 82.4864C524.217 81.9806 523.509 81.2413 523.003 80.2686C522.497 79.2959 522.244 78.1053 522.244 76.6968C522.244 75.3194 522.474 74.1288 522.933 73.1249C523.4 72.1133 524.053 71.3351 524.894 70.7904C525.742 70.2457 526.738 69.9733 527.882 69.9733ZM527.859 71.5608C526.824 71.5608 525.999 71.8993 525.384 72.5763C524.769 73.2533 524.404 74.1988 524.287 75.4128H531.057C531.049 74.6501 530.929 73.9809 530.695 73.4051C530.47 72.8214 530.123 72.3701 529.656 72.051C529.189 71.7242 528.59 71.5608 527.859 71.5608ZM540.512 81.646C540.831 81.646 541.158 81.6187 541.492 81.5643C541.827 81.5098 542.099 81.4436 542.31 81.3658V82.8716C542.084 82.9728 541.769 83.0584 541.364 83.1284C540.967 83.1984 540.578 83.2335 540.197 83.2335C539.52 83.2335 538.905 83.1167 538.352 82.8833C537.8 82.642 537.356 82.2374 537.022 81.6693C536.695 81.1012 536.532 80.3153 536.532 79.3114V71.7242H534.711V70.7787L536.543 70.02L537.314 67.2419H538.481V70.2068H542.228V71.7242H538.481V79.2531C538.481 80.0546 538.664 80.6538 539.029 81.0507C539.403 81.4475 539.897 81.646 540.512 81.646ZM549.687 69.9966C551.212 69.9966 552.344 70.339 553.083 71.0238C553.823 71.7086 554.192 72.802 554.192 74.3039V83H552.78L552.406 81.109H552.313C551.955 81.5759 551.581 81.9689 551.192 82.288C550.803 82.5992 550.352 82.8366 549.838 83C549.333 83.1556 548.71 83.2335 547.971 83.2335C547.193 83.2335 546.5 83.0973 545.893 82.8249C545.294 82.5525 544.819 82.1401 544.469 81.5876C544.127 81.0351 543.955 80.3347 543.955 79.4865C543.955 78.2103 544.461 77.2298 545.473 76.545C546.484 75.8602 548.025 75.4867 550.095 75.4244L552.301 75.3311V74.549C552.301 73.444 552.064 72.6697 551.589 72.2261C551.115 71.7826 550.445 71.5608 549.582 71.5608C548.912 71.5608 548.274 71.6581 547.667 71.8526C547.06 72.0471 546.484 72.2767 545.94 72.5413L545.344 71.0705C545.92 70.7748 546.582 70.5219 547.329 70.3118C548.076 70.1017 548.862 69.9966 549.687 69.9966ZM552.278 76.6968L550.329 76.7785C548.733 76.8407 547.609 77.1014 546.955 77.5605C546.302 78.0197 545.975 78.6694 545.975 79.5099C545.975 80.2414 546.197 80.7822 546.64 81.1324C547.084 81.4826 547.671 81.6576 548.403 81.6576C549.539 81.6576 550.469 81.3425 551.192 80.7122C551.916 80.0818 552.278 79.1363 552.278 77.8757V76.6968Z" fill="#101E37"/>
</svg>
