<svg width="728" height="260" viewBox="0 0 728 260" fill="none" xmlns="http://www.w3.org/2000/svg">
<g clip-path="url(#clip0_3307_1816)">
<rect y="0.00366211" width="728" height="260" rx="8" fill="#F3F6F9"/>
<path d="M168 -24.7982C168 -28.4975 170.999 -31.4963 174.698 -31.4963H721.302C725.001 -31.4963 728 -28.4975 728 -24.7982V284.806C728 288.505 725.001 291.504 721.302 291.504H174.698C170.999 291.504 168 288.505 168 284.806V-24.7982Z" fill="white"/>
<path d="M168 -31.4963H728H168ZM728 291.504H168H728ZM174.698 291.504C170.723 291.504 167.5 288.281 167.5 284.306V-24.2982C167.5 -28.2736 170.723 -31.4963 174.698 -31.4963C171.275 -31.4963 168.5 -28.4975 168.5 -24.7982V284.806C168.5 288.505 171.275 291.504 174.698 291.504ZM721.302 -31.4963C725.277 -31.4963 728.5 -28.2736 728.5 -24.2982V284.306C728.5 288.281 725.277 291.504 721.302 291.504C724.725 291.504 727.5 288.505 727.5 284.806V-24.7982C727.5 -28.4975 724.725 -31.4963 721.302 -31.4963Z" fill="#D1D8E0"/>
<path d="M231.978 59.4057C231.258 59.4057 230.628 59.2917 230.088 59.0637C229.548 58.8357 229.128 58.5117 228.828 58.0917C228.528 57.6837 228.378 57.2097 228.378 56.6697C228.378 56.1537 228.492 55.6737 228.72 55.2297C228.96 54.7737 229.392 54.2637 230.016 53.6997C230.4 53.3637 230.7 53.0577 230.916 52.7817C231.144 52.4937 231.312 52.2237 231.42 51.9717C231.528 51.7077 231.6 51.4437 231.636 51.1797C231.648 51.0237 231.702 50.8977 231.798 50.8017C231.906 50.7057 232.05 50.6577 232.23 50.6577C232.422 50.6577 232.566 50.7177 232.662 50.8377C232.77 50.9577 232.824 51.1257 232.824 51.3417C232.824 51.6657 232.776 51.9897 232.68 52.3137C232.596 52.6257 232.446 52.9497 232.23 53.2857C232.026 53.6097 231.738 53.9637 231.366 54.3477C230.922 54.7797 230.622 55.1517 230.466 55.4637C230.31 55.7637 230.232 56.0757 230.232 56.3997C230.232 56.8317 230.394 57.1737 230.718 57.4257C231.042 57.6897 231.492 57.8217 232.068 57.8217C232.584 57.8217 233.064 57.7497 233.508 57.6057C233.952 57.4737 234.378 57.2757 234.786 57.0117C235.002 56.8797 235.2 56.8197 235.38 56.8317C235.572 56.8437 235.722 56.9037 235.83 57.0117C235.95 57.1197 236.022 57.2517 236.046 57.4077C236.082 57.5757 236.058 57.7437 235.974 57.9117C235.902 58.0797 235.758 58.2297 235.542 58.3617C235.05 58.6857 234.504 58.9377 233.904 59.1177C233.304 59.3097 232.662 59.4057 231.978 59.4057ZM232.266 49.4337C231.918 49.4337 231.636 49.3317 231.42 49.1277C231.216 48.9117 231.114 48.6357 231.114 48.2997C231.114 47.9637 231.216 47.6877 231.42 47.4717C231.636 47.2557 231.918 47.1477 232.266 47.1477C232.614 47.1477 232.89 47.2557 233.094 47.4717C233.31 47.6877 233.418 47.9637 233.418 48.2997C233.418 48.6357 233.31 48.9117 233.094 49.1277C232.89 49.3317 232.614 49.4337 232.266 49.4337ZM246.887 58.2357C247.031 58.4517 247.091 58.6497 247.067 58.8297C247.043 59.0097 246.965 59.1597 246.833 59.2797C246.713 59.4117 246.557 59.4897 246.365 59.5137C246.185 59.5497 245.999 59.5317 245.807 59.4597C245.627 59.3877 245.471 59.2437 245.339 59.0277L244.151 57.1017C243.971 56.8017 243.725 56.5677 243.413 56.3997C243.101 56.2437 242.723 56.1657 242.279 56.1657L243.755 55.5717C244.319 55.5717 244.763 55.6737 245.087 55.8777C245.423 56.0697 245.753 56.4237 246.077 56.9397L246.887 58.2357ZM242.297 56.1657C241.097 56.1657 240.047 55.9017 239.147 55.3737C238.259 54.8337 237.569 54.0777 237.077 53.1057C236.597 52.1217 236.357 50.9697 236.357 49.6497C236.357 48.6537 236.495 47.7597 236.771 46.9677C237.047 46.1637 237.443 45.4797 237.958 44.9157C238.475 44.3397 239.099 43.9017 239.831 43.6017C240.563 43.3017 241.385 43.1517 242.297 43.1517C243.509 43.1517 244.559 43.4157 245.447 43.9437C246.335 44.4717 247.019 45.2217 247.499 46.1937C247.991 47.1657 248.237 48.3117 248.237 49.6317C248.237 50.6277 248.099 51.5277 247.823 52.3317C247.547 53.1357 247.145 53.8257 246.617 54.4017C246.101 54.9777 245.477 55.4157 244.745 55.7157C244.013 56.0157 243.197 56.1657 242.297 56.1657ZM242.297 54.5457C243.137 54.5457 243.851 54.3537 244.439 53.9697C245.039 53.5857 245.495 53.0277 245.807 52.2957C246.131 51.5637 246.293 50.6817 246.293 49.6497C246.293 48.1017 245.945 46.9017 245.249 46.0497C244.553 45.1977 243.569 44.7717 242.297 44.7717C241.457 44.7717 240.737 44.9637 240.137 45.3477C239.549 45.7197 239.093 46.2717 238.769 47.0037C238.457 47.7357 238.301 48.6177 238.301 49.6497C238.301 51.1857 238.649 52.3857 239.345 53.2497C240.053 54.1137 241.037 54.5457 242.297 54.5457ZM253.68 56.1657C252.972 56.1657 252.378 56.0337 251.898 55.7697C251.43 55.5057 251.076 55.1157 250.836 54.5997C250.608 54.0717 250.494 53.4117 250.494 52.6197V48.0117C250.494 47.6997 250.572 47.4717 250.728 47.3277C250.884 47.1717 251.106 47.0937 251.394 47.0937C251.682 47.0937 251.904 47.1717 252.06 47.3277C252.228 47.4717 252.312 47.6997 252.312 48.0117V52.6377C252.312 53.3457 252.456 53.8677 252.744 54.2037C253.032 54.5397 253.488 54.7077 254.112 54.7077C254.796 54.7077 255.348 54.4797 255.768 54.0237C256.2 53.5557 256.416 52.9437 256.416 52.1877V48.0117C256.416 47.6997 256.494 47.4717 256.65 47.3277C256.806 47.1717 257.034 47.0937 257.334 47.0937C257.622 47.0937 257.844 47.1717 258 47.3277C258.156 47.4717 258.234 47.6997 258.234 48.0117V55.2117C258.234 55.8237 257.94 56.1297 257.352 56.1297C257.076 56.1297 256.86 56.0517 256.704 55.8957C256.548 55.7277 256.47 55.4997 256.47 55.2117V53.6817L256.704 54.0777C256.464 54.7497 256.08 55.2657 255.552 55.6257C255.024 55.9857 254.4 56.1657 253.68 56.1657ZM264.918 56.1657C263.958 56.1657 263.13 55.9857 262.434 55.6257C261.75 55.2537 261.216 54.7317 260.832 54.0597C260.46 53.3757 260.274 52.5657 260.274 51.6297C260.274 50.7177 260.46 49.9197 260.832 49.2357C261.204 48.5517 261.714 48.0177 262.362 47.6337C263.01 47.2497 263.748 47.0577 264.576 47.0577C265.188 47.0577 265.734 47.1597 266.214 47.3637C266.694 47.5557 267.102 47.8437 267.438 48.2277C267.786 48.5997 268.044 49.0557 268.212 49.5957C268.392 50.1357 268.482 50.7417 268.482 51.4137C268.482 51.6177 268.422 51.7737 268.302 51.8817C268.182 51.9777 268.002 52.0257 267.762 52.0257H261.714V50.9097H267.258L266.952 51.1617C266.952 50.5617 266.862 50.0517 266.682 49.6317C266.514 49.2117 266.256 48.8937 265.908 48.6777C265.572 48.4497 265.152 48.3357 264.648 48.3357C264.084 48.3357 263.604 48.4677 263.208 48.7317C262.824 48.9957 262.53 49.3617 262.326 49.8297C262.122 50.2977 262.02 50.8437 262.02 51.4677V51.5757C262.02 52.6317 262.266 53.4297 262.758 53.9697C263.262 54.4977 263.988 54.7617 264.936 54.7617C265.296 54.7617 265.674 54.7137 266.07 54.6177C266.478 54.5217 266.862 54.3597 267.222 54.1317C267.426 54.0117 267.606 53.9577 267.762 53.9697C267.93 53.9817 268.062 54.0357 268.158 54.1317C268.266 54.2277 268.332 54.3477 268.356 54.4917C268.38 54.6357 268.356 54.7857 268.284 54.9417C268.212 55.0857 268.086 55.2177 267.906 55.3377C267.498 55.6137 267.024 55.8237 266.484 55.9677C265.944 56.0997 265.422 56.1657 264.918 56.1657ZM271.382 56.1297C271.082 56.1297 270.854 56.0517 270.698 55.8957C270.542 55.7277 270.464 55.4997 270.464 55.2117V48.0117C270.464 47.7117 270.542 47.4837 270.698 47.3277C270.854 47.1717 271.07 47.0937 271.346 47.0937C271.634 47.0937 271.85 47.1717 271.994 47.3277C272.15 47.4837 272.228 47.7117 272.228 48.0117V49.3257H272.048C272.24 48.6057 272.594 48.0597 273.11 47.6877C273.626 47.3157 274.286 47.0997 275.09 47.0397C275.306 47.0277 275.474 47.0817 275.594 47.2017C275.726 47.3217 275.798 47.5077 275.81 47.7597C275.834 48.0117 275.78 48.2157 275.648 48.3717C275.516 48.5157 275.312 48.5997 275.036 48.6237L274.694 48.6597C273.914 48.7317 273.32 48.9777 272.912 49.3977C272.504 49.8177 272.3 50.3937 272.3 51.1257V55.2117C272.3 55.4997 272.222 55.7277 272.066 55.8957C271.922 56.0517 271.694 56.1297 271.382 56.1297ZM281.177 56.1657C280.217 56.1657 279.389 55.9857 278.693 55.6257C278.009 55.2537 277.475 54.7317 277.091 54.0597C276.719 53.3757 276.533 52.5657 276.533 51.6297C276.533 50.7177 276.719 49.9197 277.091 49.2357C277.463 48.5517 277.973 48.0177 278.621 47.6337C279.269 47.2497 280.007 47.0577 280.835 47.0577C281.447 47.0577 281.993 47.1597 282.473 47.3637C282.953 47.5557 283.361 47.8437 283.697 48.2277C284.045 48.5997 284.303 49.0557 284.471 49.5957C284.651 50.1357 284.741 50.7417 284.741 51.4137C284.741 51.6177 284.681 51.7737 284.561 51.8817C284.441 51.9777 284.261 52.0257 284.021 52.0257H277.973V50.9097H283.517L283.211 51.1617C283.211 50.5617 283.121 50.0517 282.941 49.6317C282.773 49.2117 282.515 48.8937 282.167 48.6777C281.831 48.4497 281.411 48.3357 280.907 48.3357C280.343 48.3357 279.863 48.4677 279.467 48.7317C279.083 48.9957 278.789 49.3617 278.585 49.8297C278.381 50.2977 278.279 50.8437 278.279 51.4677V51.5757C278.279 52.6317 278.525 53.4297 279.017 53.9697C279.521 54.4977 280.247 54.7617 281.195 54.7617C281.555 54.7617 281.933 54.7137 282.329 54.6177C282.737 54.5217 283.121 54.3597 283.481 54.1317C283.685 54.0117 283.865 53.9577 284.021 53.9697C284.189 53.9817 284.321 54.0357 284.417 54.1317C284.525 54.2277 284.591 54.3477 284.615 54.4917C284.639 54.6357 284.615 54.7857 284.543 54.9417C284.471 55.0857 284.345 55.2177 284.165 55.3377C283.757 55.6137 283.283 55.8237 282.743 55.9677C282.203 56.0997 281.681 56.1657 281.177 56.1657ZM281.555 45.9597C281.459 46.1037 281.339 46.1877 281.195 46.2117C281.063 46.2357 280.931 46.2117 280.799 46.1397C280.667 46.0677 280.571 45.9657 280.511 45.8337C280.463 45.7017 280.475 45.5577 280.547 45.4017L282.005 42.5757C282.101 42.3837 282.221 42.2577 282.365 42.1977C282.521 42.1377 282.677 42.1317 282.833 42.1797C283.001 42.2157 283.139 42.2877 283.247 42.3957C283.367 42.5037 283.439 42.6417 283.463 42.8097C283.487 42.9657 283.445 43.1217 283.337 43.2777L281.555 45.9597ZM289.801 56.1657C289.273 56.1657 288.727 56.1057 288.163 55.9857C287.611 55.8657 287.101 55.6617 286.633 55.3737C286.477 55.2657 286.369 55.1457 286.309 55.0137C286.249 54.8817 286.225 54.7497 286.237 54.6177C286.261 54.4737 286.315 54.3537 286.399 54.2577C286.495 54.1497 286.609 54.0837 286.741 54.0597C286.885 54.0357 287.035 54.0657 287.191 54.1497C287.659 54.4137 288.109 54.5997 288.541 54.7077C288.973 54.8037 289.399 54.8517 289.819 54.8517C290.455 54.8517 290.935 54.7377 291.259 54.5097C291.583 54.2817 291.745 53.9757 291.745 53.5917C291.745 53.2797 291.637 53.0397 291.421 52.8717C291.205 52.6917 290.881 52.5537 290.449 52.4577L288.739 52.1157C287.995 51.9597 287.431 51.6837 287.047 51.2877C286.663 50.8917 286.471 50.3877 286.471 49.7757C286.471 49.2237 286.621 48.7437 286.921 48.3357C287.221 47.9277 287.641 47.6157 288.181 47.3997C288.721 47.1717 289.345 47.0577 290.053 47.0577C290.581 47.0577 291.079 47.1237 291.547 47.2557C292.015 47.3877 292.447 47.5857 292.843 47.8497C292.999 47.9337 293.101 48.0477 293.149 48.1917C293.197 48.3237 293.203 48.4557 293.167 48.5877C293.143 48.7197 293.083 48.8397 292.987 48.9477C292.891 49.0437 292.771 49.1037 292.627 49.1277C292.495 49.1397 292.345 49.1037 292.177 49.0197C291.817 48.7917 291.457 48.6297 291.097 48.5337C290.749 48.4377 290.401 48.3897 290.053 48.3897C289.417 48.3897 288.937 48.5097 288.613 48.7497C288.301 48.9777 288.145 49.2897 288.145 49.6857C288.145 49.9857 288.241 50.2317 288.433 50.4237C288.625 50.6157 288.925 50.7537 289.333 50.8377L291.043 51.1797C291.823 51.3357 292.411 51.5997 292.807 51.9717C293.215 52.3437 293.419 52.8477 293.419 53.4837C293.419 54.3117 293.089 54.9657 292.429 55.4457C291.769 55.9257 290.893 56.1657 289.801 56.1657ZM301.106 56.1297C300.806 56.1297 300.578 56.0517 300.422 55.8957C300.266 55.7277 300.188 55.4997 300.188 55.2117V48.0117C300.188 47.7117 300.266 47.4837 300.422 47.3277C300.578 47.1717 300.794 47.0937 301.07 47.0937C301.358 47.0937 301.574 47.1717 301.718 47.3277C301.874 47.4837 301.952 47.7117 301.952 48.0117V49.3257H301.772C301.964 48.6057 302.318 48.0597 302.834 47.6877C303.35 47.3157 304.01 47.0997 304.814 47.0397C305.03 47.0277 305.198 47.0817 305.318 47.2017C305.45 47.3217 305.522 47.5077 305.534 47.7597C305.558 48.0117 305.504 48.2157 305.372 48.3717C305.24 48.5157 305.036 48.5997 304.76 48.6237L304.418 48.6597C303.638 48.7317 303.044 48.9777 302.636 49.3977C302.228 49.8177 302.024 50.3937 302.024 51.1257V55.2117C302.024 55.4997 301.946 55.7277 301.79 55.8957C301.646 56.0517 301.418 56.1297 301.106 56.1297ZM310.902 56.1657C309.942 56.1657 309.114 55.9857 308.418 55.6257C307.734 55.2537 307.2 54.7317 306.816 54.0597C306.444 53.3757 306.258 52.5657 306.258 51.6297C306.258 50.7177 306.444 49.9197 306.816 49.2357C307.188 48.5517 307.698 48.0177 308.346 47.6337C308.994 47.2497 309.732 47.0577 310.56 47.0577C311.172 47.0577 311.718 47.1597 312.198 47.3637C312.678 47.5557 313.086 47.8437 313.422 48.2277C313.77 48.5997 314.028 49.0557 314.196 49.5957C314.376 50.1357 314.466 50.7417 314.466 51.4137C314.466 51.6177 314.406 51.7737 314.286 51.8817C314.166 51.9777 313.986 52.0257 313.746 52.0257H307.698V50.9097H313.242L312.936 51.1617C312.936 50.5617 312.846 50.0517 312.666 49.6317C312.498 49.2117 312.24 48.8937 311.892 48.6777C311.556 48.4497 311.136 48.3357 310.632 48.3357C310.068 48.3357 309.588 48.4677 309.192 48.7317C308.808 48.9957 308.514 49.3617 308.31 49.8297C308.106 50.2977 308.004 50.8437 308.004 51.4677V51.5757C308.004 52.6317 308.25 53.4297 308.742 53.9697C309.246 54.4977 309.972 54.7617 310.92 54.7617C311.28 54.7617 311.658 54.7137 312.054 54.6177C312.462 54.5217 312.846 54.3597 313.206 54.1317C313.41 54.0117 313.59 53.9577 313.746 53.9697C313.914 53.9817 314.046 54.0357 314.142 54.1317C314.25 54.2277 314.316 54.3477 314.34 54.4917C314.364 54.6357 314.34 54.7857 314.268 54.9417C314.196 55.0857 314.07 55.2177 313.89 55.3377C313.482 55.6137 313.008 55.8237 312.468 55.9677C311.928 56.0997 311.406 56.1657 310.902 56.1657ZM320.318 56.1657C319.418 56.1657 318.638 55.9797 317.978 55.6077C317.33 55.2237 316.826 54.6897 316.466 54.0057C316.106 53.3097 315.926 52.4937 315.926 51.5577C315.926 50.8617 316.028 50.2377 316.232 49.6857C316.436 49.1217 316.724 48.6477 317.096 48.2637C317.48 47.8797 317.942 47.5857 318.482 47.3817C319.034 47.1657 319.646 47.0577 320.318 47.0577C320.738 47.0577 321.176 47.1237 321.632 47.2557C322.1 47.3757 322.532 47.5797 322.928 47.8677C323.084 47.9637 323.18 48.0837 323.216 48.2277C323.264 48.3597 323.27 48.4977 323.234 48.6417C323.21 48.7857 323.144 48.9117 323.036 49.0197C322.94 49.1157 322.82 49.1757 322.676 49.1997C322.532 49.2117 322.376 49.1697 322.208 49.0737C321.92 48.8697 321.626 48.7257 321.326 48.6417C321.026 48.5457 320.738 48.4977 320.462 48.4977C320.03 48.4977 319.646 48.5697 319.31 48.7137C318.986 48.8457 318.71 49.0437 318.482 49.3077C318.254 49.5597 318.08 49.8777 317.96 50.2617C317.852 50.6457 317.798 51.0837 317.798 51.5757C317.798 52.5597 318.026 53.3337 318.482 53.8977C318.95 54.4497 319.61 54.7257 320.462 54.7257C320.738 54.7257 321.026 54.6837 321.326 54.5997C321.626 54.5157 321.92 54.3717 322.208 54.1677C322.376 54.0717 322.532 54.0357 322.676 54.0597C322.82 54.0837 322.934 54.1497 323.018 54.2577C323.114 54.3537 323.174 54.4737 323.198 54.6177C323.234 54.7497 323.228 54.8877 323.18 55.0317C323.132 55.1757 323.03 55.2957 322.874 55.3917C322.49 55.6677 322.07 55.8657 321.614 55.9857C321.17 56.1057 320.738 56.1657 320.318 56.1657ZM325.75 56.1117C325.462 56.1117 325.24 56.0277 325.084 55.8597C324.928 55.6797 324.85 55.4337 324.85 55.1217V48.1017C324.85 47.7897 324.928 47.5497 325.084 47.3817C325.24 47.2137 325.462 47.1297 325.75 47.1297C326.038 47.1297 326.26 47.2137 326.416 47.3817C326.584 47.5497 326.668 47.7897 326.668 48.1017V55.1217C326.668 55.4337 326.59 55.6797 326.434 55.8597C326.278 56.0277 326.05 56.1117 325.75 56.1117ZM325.75 45.2577C325.39 45.2577 325.108 45.1677 324.904 44.9877C324.712 44.8077 324.616 44.5557 324.616 44.2317C324.616 43.8957 324.712 43.6437 324.904 43.4757C325.108 43.2957 325.39 43.2057 325.75 43.2057C326.11 43.2057 326.386 43.2957 326.578 43.4757C326.782 43.6437 326.884 43.8957 326.884 44.2317C326.884 44.5557 326.782 44.8077 326.578 44.9877C326.386 45.1677 326.11 45.2577 325.75 45.2577ZM333.943 56.1657C333.175 56.1657 332.509 55.9737 331.945 55.5897C331.381 55.1937 331.003 54.6717 330.811 54.0237L331.009 53.6997V55.2117C331.009 55.4997 330.931 55.7277 330.775 55.8957C330.619 56.0517 330.403 56.1297 330.127 56.1297C329.839 56.1297 329.617 56.0517 329.461 55.8957C329.305 55.7277 329.227 55.4997 329.227 55.2117V44.1057C329.227 43.8057 329.305 43.5777 329.461 43.4217C329.617 43.2657 329.839 43.1877 330.127 43.1877C330.415 43.1877 330.637 43.2657 330.793 43.4217C330.961 43.5777 331.045 43.8057 331.045 44.1057V49.1457H330.829C331.021 48.5097 331.399 48.0057 331.963 47.6337C332.527 47.2497 333.187 47.0577 333.943 47.0577C334.735 47.0577 335.419 47.2437 335.995 47.6157C336.571 47.9877 337.015 48.5097 337.327 49.1817C337.651 49.8537 337.813 50.6637 337.813 51.6117C337.813 52.5357 337.651 53.3457 337.327 54.0417C337.015 54.7257 336.565 55.2537 335.977 55.6257C335.401 55.9857 334.723 56.1657 333.943 56.1657ZM333.493 54.7617C333.997 54.7617 334.435 54.6417 334.807 54.4017C335.179 54.1617 335.467 53.8077 335.671 53.3397C335.875 52.8717 335.977 52.2957 335.977 51.6117C335.977 50.5797 335.749 49.7997 335.293 49.2717C334.849 48.7437 334.249 48.4797 333.493 48.4797C333.001 48.4797 332.563 48.5997 332.179 48.8397C331.807 49.0677 331.519 49.4157 331.315 49.8837C331.111 50.3517 331.009 50.9277 331.009 51.6117C331.009 52.6317 331.237 53.4117 331.693 53.9517C332.149 54.4917 332.749 54.7617 333.493 54.7617ZM340.762 56.1117C340.474 56.1117 340.252 56.0277 340.096 55.8597C339.94 55.6797 339.862 55.4337 339.862 55.1217V48.1017C339.862 47.7897 339.94 47.5497 340.096 47.3817C340.252 47.2137 340.474 47.1297 340.762 47.1297C341.05 47.1297 341.272 47.2137 341.428 47.3817C341.596 47.5497 341.68 47.7897 341.68 48.1017V55.1217C341.68 55.4337 341.602 55.6797 341.446 55.8597C341.29 56.0277 341.062 56.1117 340.762 56.1117ZM340.762 45.2577C340.402 45.2577 340.12 45.1677 339.916 44.9877C339.724 44.8077 339.628 44.5557 339.628 44.2317C339.628 43.8957 339.724 43.6437 339.916 43.4757C340.12 43.2957 340.402 43.2057 340.762 43.2057C341.122 43.2057 341.398 43.2957 341.59 43.4757C341.794 43.6437 341.896 43.8957 341.896 44.2317C341.896 44.5557 341.794 44.8077 341.59 44.9877C341.398 45.1677 341.122 45.2577 340.762 45.2577ZM345.157 56.1297C344.857 56.1297 344.629 56.0517 344.473 55.8957C344.317 55.7277 344.239 55.4997 344.239 55.2117V48.0117C344.239 47.7117 344.317 47.4837 344.473 47.3277C344.629 47.1717 344.845 47.0937 345.121 47.0937C345.409 47.0937 345.625 47.1717 345.769 47.3277C345.925 47.4837 346.003 47.7117 346.003 48.0117V49.3257H345.823C346.015 48.6057 346.369 48.0597 346.885 47.6877C347.401 47.3157 348.061 47.0997 348.865 47.0397C349.081 47.0277 349.249 47.0817 349.369 47.2017C349.501 47.3217 349.573 47.5077 349.585 47.7597C349.609 48.0117 349.555 48.2157 349.423 48.3717C349.291 48.5157 349.087 48.5997 348.811 48.6237L348.469 48.6597C347.689 48.7317 347.095 48.9777 346.687 49.3977C346.279 49.8177 346.075 50.3937 346.075 51.1257V55.2117C346.075 55.4997 345.997 55.7277 345.841 55.8957C345.697 56.0517 345.469 56.1297 345.157 56.1297ZM356.6 56.1297C356.312 56.1297 356.09 56.0517 355.934 55.8957C355.778 55.7277 355.7 55.4997 355.7 55.2117V48.0117C355.7 47.7117 355.778 47.4837 355.934 47.3277C356.09 47.1717 356.306 47.0937 356.582 47.0937C356.87 47.0937 357.086 47.1717 357.23 47.3277C357.386 47.4837 357.464 47.7117 357.464 48.0117V49.4157L357.266 49.0917C357.53 48.4197 357.944 47.9157 358.508 47.5797C359.072 47.2317 359.72 47.0577 360.452 47.0577C361.148 47.0577 361.724 47.1897 362.18 47.4537C362.648 47.7057 362.996 48.0957 363.224 48.6237C363.452 49.1397 363.566 49.7937 363.566 50.5857V55.2117C363.566 55.4997 363.488 55.7277 363.332 55.8957C363.176 56.0517 362.954 56.1297 362.666 56.1297C362.366 56.1297 362.138 56.0517 361.982 55.8957C361.826 55.7277 361.748 55.4997 361.748 55.2117V50.6937C361.748 49.9377 361.598 49.3857 361.298 49.0377C361.01 48.6897 360.554 48.5157 359.93 48.5157C359.198 48.5157 358.61 48.7437 358.166 49.1997C357.734 49.6557 357.518 50.2677 357.518 51.0357V55.2117C357.518 55.8237 357.212 56.1297 356.6 56.1297ZM369.887 56.1657C368.999 56.1657 368.231 55.9797 367.583 55.6077C366.947 55.2357 366.449 54.7077 366.089 54.0237C365.729 53.3397 365.549 52.5357 365.549 51.6117C365.549 50.9037 365.651 50.2737 365.855 49.7217C366.059 49.1697 366.347 48.6957 366.719 48.2997C367.103 47.8917 367.559 47.5857 368.087 47.3817C368.627 47.1657 369.227 47.0577 369.887 47.0577C370.763 47.0577 371.519 47.2437 372.155 47.6157C372.803 47.9877 373.307 48.5157 373.667 49.1997C374.027 49.8717 374.207 50.6757 374.207 51.6117C374.207 52.3077 374.105 52.9377 373.901 53.5017C373.697 54.0657 373.403 54.5457 373.019 54.9417C372.647 55.3377 372.191 55.6437 371.651 55.8597C371.123 56.0637 370.535 56.1657 369.887 56.1657ZM369.887 54.7617C370.379 54.7617 370.811 54.6417 371.183 54.4017C371.555 54.1617 371.843 53.8077 372.047 53.3397C372.263 52.8717 372.371 52.2957 372.371 51.6117C372.371 50.5797 372.143 49.7997 371.687 49.2717C371.231 48.7437 370.631 48.4797 369.887 48.4797C369.383 48.4797 368.945 48.5997 368.573 48.8397C368.201 49.0677 367.907 49.4157 367.691 49.8837C367.487 50.3517 367.385 50.9277 367.385 51.6117C367.385 52.6317 367.613 53.4117 368.069 53.9517C368.525 54.4917 369.131 54.7617 369.887 54.7617ZM379.905 56.1657C379.185 56.1657 378.579 56.0397 378.087 55.7877C377.595 55.5357 377.229 55.1637 376.989 54.6717C376.749 54.1797 376.629 53.5797 376.629 52.8717V48.6237H375.549C375.309 48.6237 375.123 48.5637 374.991 48.4437C374.859 48.3117 374.793 48.1377 374.793 47.9217C374.793 47.6937 374.859 47.5197 374.991 47.3997C375.123 47.2797 375.309 47.2197 375.549 47.2197H376.629V45.3657C376.629 45.0657 376.707 44.8377 376.863 44.6817C377.031 44.5257 377.259 44.4477 377.547 44.4477C377.835 44.4477 378.057 44.5257 378.213 44.6817C378.369 44.8377 378.447 45.0657 378.447 45.3657V47.2197H380.553C380.793 47.2197 380.979 47.2797 381.111 47.3997C381.243 47.5197 381.309 47.6937 381.309 47.9217C381.309 48.1377 381.243 48.3117 381.111 48.4437C380.979 48.5637 380.793 48.6237 380.553 48.6237H378.447V52.7277C378.447 53.3637 378.579 53.8437 378.843 54.1677C379.119 54.4917 379.563 54.6537 380.175 54.6537C380.391 54.6537 380.577 54.6357 380.733 54.5997C380.901 54.5517 381.039 54.5217 381.147 54.5097C381.279 54.5097 381.387 54.5577 381.471 54.6537C381.555 54.7377 381.597 54.9057 381.597 55.1577C381.597 55.3377 381.561 55.5057 381.489 55.6617C381.429 55.8177 381.315 55.9197 381.147 55.9677C381.003 56.0157 380.805 56.0577 380.553 56.0937C380.313 56.1417 380.097 56.1657 379.905 56.1657ZM383.793 56.1117C383.505 56.1117 383.283 56.0277 383.127 55.8597C382.971 55.6797 382.893 55.4337 382.893 55.1217V48.1017C382.893 47.7897 382.971 47.5497 383.127 47.3817C383.283 47.2137 383.505 47.1297 383.793 47.1297C384.081 47.1297 384.303 47.2137 384.459 47.3817C384.627 47.5497 384.711 47.7897 384.711 48.1017V55.1217C384.711 55.4337 384.633 55.6797 384.477 55.8597C384.321 56.0277 384.093 56.1117 383.793 56.1117ZM383.793 45.2577C383.433 45.2577 383.151 45.1677 382.947 44.9877C382.755 44.8077 382.659 44.5557 382.659 44.2317C382.659 43.8957 382.755 43.6437 382.947 43.4757C383.151 43.2957 383.433 43.2057 383.793 43.2057C384.153 43.2057 384.429 43.2957 384.621 43.4757C384.825 43.6437 384.927 43.8957 384.927 44.2317C384.927 44.5557 384.825 44.8077 384.621 44.9877C384.429 45.1677 384.153 45.2577 383.793 45.2577ZM388.71 56.1297C388.422 56.1297 388.194 56.0517 388.026 55.8957C387.87 55.7277 387.792 55.4997 387.792 55.2117V48.6237H386.784C386.556 48.6237 386.376 48.5637 386.244 48.4437C386.112 48.3117 386.046 48.1377 386.046 47.9217C386.046 47.6937 386.112 47.5197 386.244 47.3997C386.376 47.2797 386.556 47.2197 386.784 47.2197H388.314L387.792 47.7057V47.0577C387.792 45.8937 388.08 45.0057 388.656 44.3937C389.232 43.7817 390.078 43.4217 391.194 43.3137L391.734 43.2777C391.95 43.2537 392.124 43.2837 392.256 43.3677C392.388 43.4397 392.478 43.5477 392.526 43.6917C392.574 43.8237 392.58 43.9617 392.544 44.1057C392.508 44.2497 392.442 44.3757 392.346 44.4837C392.262 44.5797 392.154 44.6337 392.022 44.6457L391.536 44.6817C390.864 44.7297 390.372 44.9277 390.06 45.2757C389.76 45.6237 389.61 46.1337 389.61 46.8057V47.5077L389.358 47.2197H394.29C394.59 47.2197 394.818 47.3097 394.974 47.4897C395.13 47.6577 395.208 47.8917 395.208 48.1917V55.1217C395.208 55.4337 395.13 55.6797 394.974 55.8597C394.83 56.0277 394.602 56.1117 394.29 56.1117C394.002 56.1117 393.78 56.0277 393.624 55.8597C393.468 55.6797 393.39 55.4337 393.39 55.1217V48.6237H389.61V55.2117C389.61 55.8237 389.31 56.1297 388.71 56.1297ZM394.326 45.2577C393.978 45.2577 393.708 45.1677 393.516 44.9877C393.324 44.8077 393.228 44.5557 393.228 44.2317C393.228 43.8957 393.324 43.6437 393.516 43.4757C393.708 43.2957 393.978 43.2057 394.326 43.2057C394.686 43.2057 394.956 43.2957 395.136 43.4757C395.328 43.6437 395.424 43.8957 395.424 44.2317C395.424 44.5557 395.328 44.8077 395.136 44.9877C394.956 45.1677 394.686 45.2577 394.326 45.2577ZM401.617 56.1657C400.717 56.1657 399.937 55.9797 399.277 55.6077C398.629 55.2237 398.125 54.6897 397.765 54.0057C397.405 53.3097 397.225 52.4937 397.225 51.5577C397.225 50.8617 397.327 50.2377 397.531 49.6857C397.735 49.1217 398.023 48.6477 398.395 48.2637C398.779 47.8797 399.241 47.5857 399.781 47.3817C400.333 47.1657 400.945 47.0577 401.617 47.0577C402.037 47.0577 402.475 47.1237 402.931 47.2557C403.399 47.3757 403.831 47.5797 404.227 47.8677C404.383 47.9637 404.479 48.0837 404.515 48.2277C404.563 48.3597 404.569 48.4977 404.533 48.6417C404.509 48.7857 404.443 48.9117 404.335 49.0197C404.239 49.1157 404.119 49.1757 403.975 49.1997C403.831 49.2117 403.675 49.1697 403.507 49.0737C403.219 48.8697 402.925 48.7257 402.625 48.6417C402.325 48.5457 402.037 48.4977 401.761 48.4977C401.329 48.4977 400.945 48.5697 400.609 48.7137C400.285 48.8457 400.009 49.0437 399.781 49.3077C399.553 49.5597 399.379 49.8777 399.259 50.2617C399.151 50.6457 399.097 51.0837 399.097 51.5757C399.097 52.5597 399.325 53.3337 399.781 53.8977C400.249 54.4497 400.909 54.7257 401.761 54.7257C402.037 54.7257 402.325 54.6837 402.625 54.5997C402.925 54.5157 403.219 54.3717 403.507 54.1677C403.675 54.0717 403.831 54.0357 403.975 54.0597C404.119 54.0837 404.233 54.1497 404.317 54.2577C404.413 54.3537 404.473 54.4737 404.497 54.6177C404.533 54.7497 404.527 54.8877 404.479 55.0317C404.431 55.1757 404.329 55.2957 404.173 55.3917C403.789 55.6677 403.369 55.8657 402.913 55.9857C402.469 56.1057 402.037 56.1657 401.617 56.1657ZM408.887 56.1657C408.275 56.1657 407.723 56.0457 407.231 55.8057C406.751 55.5657 406.373 55.2417 406.097 54.8337C405.821 54.4257 405.683 53.9637 405.683 53.4477C405.683 52.7997 405.845 52.2897 406.169 51.9177C406.505 51.5337 407.051 51.2637 407.807 51.1077C408.575 50.9397 409.607 50.8557 410.903 50.8557H411.749V51.9717H410.921C410.057 51.9717 409.373 52.0137 408.869 52.0977C408.365 52.1817 408.005 52.3257 407.789 52.5297C407.585 52.7217 407.483 52.9917 407.483 53.3397C407.483 53.7957 407.639 54.1677 407.951 54.4557C408.263 54.7317 408.695 54.8697 409.247 54.8697C409.691 54.8697 410.081 54.7677 410.417 54.5637C410.753 54.3477 411.017 54.0597 411.209 53.6997C411.413 53.3397 411.515 52.9257 411.515 52.4577V50.3877C411.515 49.7037 411.371 49.2117 411.083 48.9117C410.795 48.6117 410.321 48.4617 409.661 48.4617C409.277 48.4617 408.875 48.5097 408.455 48.6057C408.047 48.7017 407.621 48.8637 407.177 49.0917C406.973 49.1877 406.799 49.2177 406.655 49.1817C406.511 49.1457 406.397 49.0677 406.313 48.9477C406.229 48.8157 406.181 48.6777 406.169 48.5337C406.169 48.3777 406.205 48.2277 406.277 48.0837C406.361 47.9397 406.499 47.8317 406.691 47.7597C407.219 47.5077 407.741 47.3277 408.257 47.2197C408.773 47.1117 409.259 47.0577 409.715 47.0577C410.519 47.0577 411.179 47.1837 411.695 47.4357C412.223 47.6877 412.613 48.0717 412.865 48.5877C413.117 49.1037 413.243 49.7697 413.243 50.5857V55.2117C413.243 55.4997 413.171 55.7277 413.027 55.8957C412.883 56.0517 412.673 56.1297 412.397 56.1297C412.133 56.1297 411.923 56.0517 411.767 55.8957C411.611 55.7277 411.533 55.4997 411.533 55.2117V54.0417H411.695C411.599 54.4857 411.419 54.8697 411.155 55.1937C410.903 55.5057 410.585 55.7457 410.201 55.9137C409.817 56.0817 409.379 56.1657 408.887 56.1657ZM419.617 56.1657C418.717 56.1657 417.937 55.9797 417.277 55.6077C416.629 55.2237 416.125 54.6897 415.765 54.0057C415.405 53.3097 415.225 52.4937 415.225 51.5577C415.225 50.8617 415.327 50.2377 415.531 49.6857C415.735 49.1217 416.023 48.6477 416.395 48.2637C416.779 47.8797 417.241 47.5857 417.781 47.3817C418.333 47.1657 418.945 47.0577 419.617 47.0577C420.037 47.0577 420.475 47.1237 420.931 47.2557C421.399 47.3757 421.831 47.5797 422.227 47.8677C422.383 47.9637 422.479 48.0837 422.515 48.2277C422.563 48.3597 422.569 48.4977 422.533 48.6417C422.509 48.7857 422.443 48.9117 422.335 49.0197C422.239 49.1157 422.119 49.1757 421.975 49.1997C421.831 49.2117 421.675 49.1697 421.507 49.0737C421.219 48.8697 420.925 48.7257 420.625 48.6417C420.325 48.5457 420.037 48.4977 419.761 48.4977C419.329 48.4977 418.945 48.5697 418.609 48.7137C418.285 48.8457 418.009 49.0437 417.781 49.3077C417.553 49.5597 417.379 49.8777 417.259 50.2617C417.151 50.6457 417.097 51.0837 417.097 51.5757C417.097 52.5597 417.325 53.3337 417.781 53.8977C418.249 54.4497 418.909 54.7257 419.761 54.7257C420.037 54.7257 420.325 54.6837 420.625 54.5997C420.925 54.5157 421.219 54.3717 421.507 54.1677C421.675 54.0717 421.831 54.0357 421.975 54.0597C422.119 54.0837 422.233 54.1497 422.317 54.2577C422.413 54.3537 422.473 54.4737 422.497 54.6177C422.533 54.7497 422.527 54.8877 422.479 55.0317C422.431 55.1757 422.329 55.2957 422.173 55.3917C421.789 55.6677 421.369 55.8657 420.913 55.9857C420.469 56.1057 420.037 56.1657 419.617 56.1657ZM425.049 56.1117C424.761 56.1117 424.539 56.0277 424.383 55.8597C424.227 55.6797 424.149 55.4337 424.149 55.1217V48.1017C424.149 47.7897 424.227 47.5497 424.383 47.3817C424.539 47.2137 424.761 47.1297 425.049 47.1297C425.337 47.1297 425.559 47.2137 425.715 47.3817C425.883 47.5497 425.967 47.7897 425.967 48.1017V55.1217C425.967 55.4337 425.889 55.6797 425.733 55.8597C425.577 56.0277 425.349 56.1117 425.049 56.1117ZM425.049 45.2577C424.689 45.2577 424.407 45.1677 424.203 44.9877C424.011 44.8077 423.915 44.5557 423.915 44.2317C423.915 43.8957 424.011 43.6437 424.203 43.4757C424.407 43.2957 424.689 43.2057 425.049 43.2057C425.409 43.2057 425.685 43.2957 425.877 43.4757C426.081 43.6437 426.183 43.8957 426.183 44.2317C426.183 44.5557 426.081 44.8077 425.877 44.9877C425.685 45.1677 425.409 45.2577 425.049 45.2577ZM432.342 56.1657C431.454 56.1657 430.686 55.9797 430.038 55.6077C429.402 55.2357 428.904 54.7077 428.544 54.0237C428.184 53.3397 428.004 52.5357 428.004 51.6117C428.004 50.9037 428.106 50.2737 428.31 49.7217C428.514 49.1697 428.802 48.6957 429.174 48.2997C429.558 47.8917 430.014 47.5857 430.542 47.3817C431.082 47.1657 431.682 47.0577 432.342 47.0577C433.218 47.0577 433.974 47.2437 434.61 47.6157C435.258 47.9877 435.762 48.5157 436.122 49.1997C436.482 49.8717 436.662 50.6757 436.662 51.6117C436.662 52.3077 436.56 52.9377 436.356 53.5017C436.152 54.0657 435.858 54.5457 435.474 54.9417C435.102 55.3377 434.646 55.6437 434.106 55.8597C433.578 56.0637 432.99 56.1657 432.342 56.1657ZM432.342 54.7617C432.834 54.7617 433.266 54.6417 433.638 54.4017C434.01 54.1617 434.298 53.8077 434.502 53.3397C434.718 52.8717 434.826 52.2957 434.826 51.6117C434.826 50.5797 434.598 49.7997 434.142 49.2717C433.686 48.7437 433.086 48.4797 432.342 48.4797C431.838 48.4797 431.4 48.5997 431.028 48.8397C430.656 49.0677 430.362 49.4157 430.146 49.8837C429.942 50.3517 429.84 50.9277 429.84 51.6117C429.84 52.6317 430.068 53.4117 430.524 53.9517C430.98 54.4917 431.586 54.7617 432.342 54.7617ZM439.604 56.1297C439.316 56.1297 439.094 56.0517 438.938 55.8957C438.782 55.7277 438.704 55.4997 438.704 55.2117V48.0117C438.704 47.7117 438.782 47.4837 438.938 47.3277C439.094 47.1717 439.31 47.0937 439.586 47.0937C439.874 47.0937 440.09 47.1717 440.234 47.3277C440.39 47.4837 440.468 47.7117 440.468 48.0117V49.4157L440.27 49.0917C440.534 48.4197 440.948 47.9157 441.512 47.5797C442.076 47.2317 442.724 47.0577 443.456 47.0577C444.152 47.0577 444.728 47.1897 445.184 47.4537C445.652 47.7057 446 48.0957 446.228 48.6237C446.456 49.1397 446.57 49.7937 446.57 50.5857V55.2117C446.57 55.4997 446.492 55.7277 446.336 55.8957C446.18 56.0517 445.958 56.1297 445.67 56.1297C445.37 56.1297 445.142 56.0517 444.986 55.8957C444.83 55.7277 444.752 55.4997 444.752 55.2117V50.6937C444.752 49.9377 444.602 49.3857 444.302 49.0377C444.014 48.6897 443.558 48.5157 442.934 48.5157C442.202 48.5157 441.614 48.7437 441.17 49.1997C440.738 49.6557 440.522 50.2677 440.522 51.0357V55.2117C440.522 55.8237 440.216 56.1297 439.604 56.1297ZM453.197 56.1657C452.237 56.1657 451.409 55.9857 450.713 55.6257C450.029 55.2537 449.495 54.7317 449.111 54.0597C448.739 53.3757 448.553 52.5657 448.553 51.6297C448.553 50.7177 448.739 49.9197 449.111 49.2357C449.483 48.5517 449.993 48.0177 450.641 47.6337C451.289 47.2497 452.027 47.0577 452.855 47.0577C453.467 47.0577 454.013 47.1597 454.493 47.3637C454.973 47.5557 455.381 47.8437 455.717 48.2277C456.065 48.5997 456.323 49.0557 456.491 49.5957C456.671 50.1357 456.761 50.7417 456.761 51.4137C456.761 51.6177 456.701 51.7737 456.581 51.8817C456.461 51.9777 456.281 52.0257 456.041 52.0257H449.993V50.9097H455.537L455.231 51.1617C455.231 50.5617 455.141 50.0517 454.961 49.6317C454.793 49.2117 454.535 48.8937 454.187 48.6777C453.851 48.4497 453.431 48.3357 452.927 48.3357C452.363 48.3357 451.883 48.4677 451.487 48.7317C451.103 48.9957 450.809 49.3617 450.605 49.8297C450.401 50.2977 450.299 50.8437 450.299 51.4677V51.5757C450.299 52.6317 450.545 53.4297 451.037 53.9697C451.541 54.4977 452.267 54.7617 453.215 54.7617C453.575 54.7617 453.953 54.7137 454.349 54.6177C454.757 54.5217 455.141 54.3597 455.501 54.1317C455.705 54.0117 455.885 53.9577 456.041 53.9697C456.209 53.9817 456.341 54.0357 456.437 54.1317C456.545 54.2277 456.611 54.3477 456.635 54.4917C456.659 54.6357 456.635 54.7857 456.563 54.9417C456.491 55.0857 456.365 55.2177 456.185 55.3377C455.777 55.6137 455.303 55.8237 454.763 55.9677C454.223 56.0997 453.701 56.1657 453.197 56.1657ZM461.821 56.1657C461.293 56.1657 460.747 56.1057 460.183 55.9857C459.631 55.8657 459.121 55.6617 458.653 55.3737C458.497 55.2657 458.389 55.1457 458.329 55.0137C458.269 54.8817 458.245 54.7497 458.257 54.6177C458.281 54.4737 458.335 54.3537 458.419 54.2577C458.515 54.1497 458.629 54.0837 458.761 54.0597C458.905 54.0357 459.055 54.0657 459.211 54.1497C459.679 54.4137 460.129 54.5997 460.561 54.7077C460.993 54.8037 461.419 54.8517 461.839 54.8517C462.475 54.8517 462.955 54.7377 463.279 54.5097C463.603 54.2817 463.765 53.9757 463.765 53.5917C463.765 53.2797 463.657 53.0397 463.441 52.8717C463.225 52.6917 462.901 52.5537 462.469 52.4577L460.759 52.1157C460.015 51.9597 459.451 51.6837 459.067 51.2877C458.683 50.8917 458.491 50.3877 458.491 49.7757C458.491 49.2237 458.641 48.7437 458.941 48.3357C459.241 47.9277 459.661 47.6157 460.201 47.3997C460.741 47.1717 461.365 47.0577 462.073 47.0577C462.601 47.0577 463.099 47.1237 463.567 47.2557C464.035 47.3877 464.467 47.5857 464.863 47.8497C465.019 47.9337 465.121 48.0477 465.169 48.1917C465.217 48.3237 465.223 48.4557 465.187 48.5877C465.163 48.7197 465.103 48.8397 465.007 48.9477C464.911 49.0437 464.791 49.1037 464.647 49.1277C464.515 49.1397 464.365 49.1037 464.197 49.0197C463.837 48.7917 463.477 48.6297 463.117 48.5337C462.769 48.4377 462.421 48.3897 462.073 48.3897C461.437 48.3897 460.957 48.5097 460.633 48.7497C460.321 48.9777 460.165 49.2897 460.165 49.6857C460.165 49.9857 460.261 50.2317 460.453 50.4237C460.645 50.6157 460.945 50.7537 461.353 50.8377L463.063 51.1797C463.843 51.3357 464.431 51.5997 464.827 51.9717C465.235 52.3437 465.439 52.8477 465.439 53.4837C465.439 54.3117 465.109 54.9657 464.449 55.4457C463.789 55.9257 462.913 56.1657 461.821 56.1657ZM469.878 52.5657C469.698 52.5657 469.554 52.5057 469.446 52.3857C469.338 52.2537 469.284 52.0857 469.284 51.8817C469.284 51.4857 469.332 51.1137 469.428 50.7657C469.524 50.4057 469.68 50.0457 469.896 49.6857C470.112 49.3257 470.4 48.9417 470.76 48.5337C471.048 48.2097 471.27 47.9217 471.426 47.6697C471.594 47.4177 471.714 47.1777 471.786 46.9497C471.858 46.7097 471.894 46.4637 471.894 46.2117C471.894 45.7557 471.732 45.3957 471.408 45.1317C471.084 44.8677 470.628 44.7357 470.04 44.7357C469.524 44.7357 469.05 44.8137 468.618 44.9697C468.186 45.1137 467.766 45.3237 467.358 45.5997C467.13 45.7437 466.926 45.8097 466.746 45.7977C466.578 45.7857 466.434 45.7317 466.314 45.6357C466.206 45.5277 466.134 45.3957 466.098 45.2397C466.074 45.0717 466.098 44.9037 466.17 44.7357C466.254 44.5557 466.398 44.3937 466.602 44.2497C467.082 43.9017 467.64 43.6317 468.276 43.4397C468.912 43.2477 469.536 43.1517 470.148 43.1517C470.868 43.1517 471.498 43.2717 472.038 43.5117C472.578 43.7517 472.998 44.0877 473.298 44.5197C473.598 44.9517 473.748 45.4617 473.748 46.0497C473.748 46.4217 473.694 46.7757 473.586 47.1117C473.478 47.4477 473.304 47.7897 473.064 48.1377C472.836 48.4737 472.512 48.8457 472.092 49.2537C471.72 49.6257 471.42 49.9677 471.192 50.2797C470.964 50.5797 470.796 50.8737 470.688 51.1617C470.592 51.4377 470.526 51.7317 470.49 52.0437C470.478 52.1997 470.418 52.3257 470.31 52.4217C470.202 52.5177 470.058 52.5657 469.878 52.5657ZM469.86 56.0757C469.512 56.0757 469.23 55.9677 469.014 55.7517C468.798 55.5357 468.69 55.2597 468.69 54.9237C468.69 54.5877 468.798 54.3177 469.014 54.1137C469.23 53.8977 469.512 53.7897 469.86 53.7897C470.22 53.7897 470.496 53.8977 470.688 54.1137C470.892 54.3177 470.994 54.5877 470.994 54.9237C470.994 55.2597 470.892 55.5357 470.688 55.7517C470.496 55.9677 470.22 56.0757 469.86 56.0757Z" fill="#101E37"/>
<rect x="237" y="79.0037" width="22" height="22" rx="11" fill="white"/>
<rect x="237" y="79.0037" width="22" height="22" rx="11" stroke="#274986" stroke-width="2"/>
<rect x="242" y="84.0037" width="12" height="12" rx="6" fill="#274986"/>
<path d="M276.008 92.9646C276.008 93.6417 275.839 94.2198 275.5 94.699C275.167 95.1729 274.698 95.5349 274.094 95.7849C273.49 96.0349 272.779 96.1599 271.961 96.1599C271.529 96.1599 271.12 96.1391 270.734 96.0974C270.349 96.0557 269.995 95.9958 269.672 95.9177C269.349 95.8396 269.065 95.7432 268.82 95.6287V94.3552C269.211 94.5167 269.688 94.6677 270.25 94.8083C270.812 94.9438 271.401 95.0115 272.016 95.0115C272.589 95.0115 273.073 94.936 273.469 94.7849C273.865 94.6287 274.164 94.4073 274.367 94.1208C274.576 93.8292 274.68 93.4802 274.68 93.074C274.68 92.6833 274.594 92.3578 274.422 92.0974C274.25 91.8318 273.964 91.5922 273.562 91.3787C273.167 91.1599 272.625 90.9281 271.938 90.6833C271.453 90.5115 271.026 90.324 270.656 90.1208C270.286 89.9125 269.977 89.6781 269.727 89.4177C269.477 89.1573 269.286 88.8552 269.156 88.5115C269.031 88.1677 268.969 87.7745 268.969 87.3318C268.969 86.7224 269.122 86.2016 269.43 85.7693C269.742 85.3318 270.172 84.9985 270.719 84.7693C271.271 84.5349 271.904 84.4177 272.617 84.4177C273.227 84.4177 273.789 84.475 274.305 84.5896C274.826 84.7042 275.302 84.8578 275.734 85.0505L275.32 86.1912C274.909 86.0193 274.471 85.8761 274.008 85.7615C273.549 85.6469 273.076 85.5896 272.586 85.5896C272.096 85.5896 271.682 85.6625 271.344 85.8083C271.01 85.949 270.755 86.1495 270.578 86.4099C270.401 86.6703 270.312 86.9802 270.312 87.3396C270.312 87.7406 270.396 88.074 270.562 88.3396C270.734 88.6052 271.005 88.8422 271.375 89.0505C271.75 89.2537 272.245 89.4672 272.859 89.6912C273.531 89.936 274.102 90.1964 274.57 90.4724C275.039 90.7432 275.396 91.0766 275.641 91.4724C275.885 91.863 276.008 92.3604 276.008 92.9646ZM279.445 96.0037H278.148V87.4412H279.445V96.0037ZM281.062 83.7458V83.9021C280.958 84.0531 280.815 84.2354 280.633 84.449C280.456 84.6573 280.258 84.8787 280.039 85.113C279.82 85.3422 279.599 85.561 279.375 85.7693C279.156 85.9776 278.953 86.1573 278.766 86.3083H277.898V86.1208C278.065 85.9229 278.247 85.686 278.445 85.4099C278.643 85.1287 278.836 84.8422 279.023 84.5505C279.211 84.2537 279.367 83.9854 279.492 83.7458H281.062ZM283.68 94.1443L283.781 94.324C283.688 94.7042 283.568 95.1104 283.422 95.5427C283.281 95.975 283.125 96.4073 282.953 96.8396C282.786 97.2771 282.617 97.686 282.445 98.0662H281.477C281.586 97.6495 281.693 97.2094 281.797 96.7458C281.901 96.2875 281.995 95.8344 282.078 95.3865C282.167 94.9333 282.237 94.5193 282.289 94.1443H283.68ZM296.234 99.8318V96.1599C296.234 95.9568 296.24 95.7224 296.25 95.4568C296.26 95.1912 296.279 94.962 296.305 94.7693H296.219C295.979 95.1651 295.638 95.4958 295.195 95.7615C294.753 96.0271 294.182 96.1599 293.484 96.1599C292.438 96.1599 291.596 95.7901 290.961 95.0505C290.326 94.311 290.008 93.2068 290.008 91.738C290.008 90.7745 290.154 89.962 290.445 89.3005C290.737 88.6391 291.148 88.1391 291.68 87.8005C292.216 87.4568 292.841 87.2849 293.555 87.2849C294.237 87.2849 294.794 87.4203 295.227 87.6912C295.659 87.9568 295.997 88.2823 296.242 88.6677H296.305L296.5 87.4412H297.531V99.8318H296.234ZM293.727 95.0818C294.331 95.0818 294.815 94.9698 295.18 94.7458C295.544 94.5167 295.81 94.1729 295.977 93.7146C296.148 93.2563 296.24 92.686 296.25 92.0037V91.7302C296.25 90.6261 296.062 89.7901 295.688 89.2224C295.312 88.6495 294.659 88.363 293.727 88.363C292.924 88.363 292.328 88.6703 291.938 89.2849C291.547 89.8943 291.352 90.7224 291.352 91.7693C291.352 92.8162 291.547 93.6313 291.938 94.2146C292.328 94.7927 292.924 95.0818 293.727 95.0818ZM307.359 87.4412V96.0037H306.297L306.109 94.8005H306.039C305.862 95.0974 305.633 95.3474 305.352 95.5505C305.07 95.7537 304.753 95.9047 304.398 96.0037C304.049 96.1078 303.677 96.1599 303.281 96.1599C302.604 96.1599 302.036 96.0505 301.578 95.8318C301.12 95.613 300.773 95.2745 300.539 94.8162C300.31 94.3578 300.195 93.7693 300.195 93.0505V87.4412H301.508V92.9568C301.508 93.6703 301.669 94.2042 301.992 94.5583C302.315 94.9073 302.807 95.0818 303.469 95.0818C304.104 95.0818 304.609 94.962 304.984 94.7224C305.365 94.4828 305.638 94.1313 305.805 93.6677C305.971 93.199 306.055 92.6261 306.055 91.949V87.4412H307.359ZM311.398 87.4412V96.0037H310.102V87.4412H311.398ZM310.766 84.238C310.979 84.238 311.161 84.3083 311.312 84.449C311.469 84.5844 311.547 84.7979 311.547 85.0896C311.547 85.3761 311.469 85.5896 311.312 85.7302C311.161 85.8708 310.979 85.9412 310.766 85.9412C310.542 85.9412 310.354 85.8708 310.203 85.7302C310.057 85.5896 309.984 85.3761 309.984 85.0896C309.984 84.7979 310.057 84.5844 310.203 84.449C310.354 84.3083 310.542 84.238 310.766 84.238ZM317.445 87.2849C318.174 87.2849 318.799 87.4464 319.32 87.7693C319.841 88.0922 320.24 88.5453 320.516 89.1287C320.792 89.7068 320.93 90.3839 320.93 91.1599V91.9646H315.016C315.031 92.9698 315.281 93.7354 315.766 94.2615C316.25 94.7875 316.932 95.0505 317.812 95.0505C318.354 95.0505 318.833 95.0011 319.25 94.9021C319.667 94.8031 320.099 94.6573 320.547 94.4646V95.6052C320.115 95.7979 319.685 95.9386 319.258 96.0271C318.836 96.1156 318.336 96.1599 317.758 96.1599C316.935 96.1599 316.216 95.9932 315.602 95.6599C314.992 95.3214 314.518 94.8266 314.18 94.1755C313.841 93.5245 313.672 92.7276 313.672 91.7849C313.672 90.863 313.826 90.0662 314.133 89.3943C314.445 88.7172 314.883 88.1964 315.445 87.8318C316.013 87.4672 316.68 87.2849 317.445 87.2849ZM317.43 88.3474C316.737 88.3474 316.185 88.574 315.773 89.0271C315.362 89.4802 315.117 90.113 315.039 90.9255H319.57C319.565 90.4151 319.484 89.9672 319.328 89.5818C319.177 89.1912 318.945 88.8891 318.633 88.6755C318.32 88.4568 317.919 88.3474 317.43 88.3474ZM327.023 87.2849C327.195 87.2849 327.375 87.2953 327.562 87.3162C327.75 87.3318 327.917 87.3552 328.062 87.3865L327.898 88.5896C327.758 88.5531 327.602 88.5245 327.43 88.5037C327.258 88.4828 327.096 88.4724 326.945 88.4724C326.602 88.4724 326.276 88.5427 325.969 88.6833C325.667 88.8188 325.401 89.0167 325.172 89.2771C324.943 89.5323 324.763 89.8422 324.633 90.2068C324.503 90.5662 324.438 90.9672 324.438 91.4099V96.0037H323.133V87.4412H324.211L324.352 89.0193H324.406C324.583 88.7016 324.797 88.4125 325.047 88.1521C325.297 87.8865 325.586 87.6755 325.914 87.5193C326.247 87.363 326.617 87.2849 327.023 87.2849ZM337.062 91.7068C337.062 92.4099 336.971 93.0375 336.789 93.5896C336.607 94.1417 336.344 94.6078 336 94.988C335.656 95.3682 335.24 95.6599 334.75 95.863C334.266 96.061 333.716 96.1599 333.102 96.1599C332.529 96.1599 332.003 96.061 331.523 95.863C331.049 95.6599 330.638 95.3682 330.289 94.988C329.945 94.6078 329.677 94.1417 329.484 93.5896C329.297 93.0375 329.203 92.4099 329.203 91.7068C329.203 90.7693 329.362 89.9724 329.68 89.3162C329.997 88.6547 330.451 88.1521 331.039 87.8083C331.633 87.4594 332.339 87.2849 333.156 87.2849C333.938 87.2849 334.62 87.4594 335.203 87.8083C335.792 88.1573 336.247 88.6625 336.57 89.324C336.898 89.9802 337.062 90.7745 337.062 91.7068ZM330.547 91.7068C330.547 92.3943 330.638 92.9906 330.82 93.4958C331.003 94.0011 331.284 94.3917 331.664 94.6677C332.044 94.9438 332.534 95.0818 333.133 95.0818C333.727 95.0818 334.214 94.9438 334.594 94.6677C334.979 94.3917 335.263 94.0011 335.445 93.4958C335.628 92.9906 335.719 92.3943 335.719 91.7068C335.719 91.0245 335.628 90.436 335.445 89.9412C335.263 89.4412 334.982 89.0557 334.602 88.7849C334.221 88.5141 333.729 88.3787 333.125 88.3787C332.234 88.3787 331.581 88.6729 331.164 89.2615C330.753 89.85 330.547 90.6651 330.547 91.7068ZM347.352 87.2849C347.523 87.2849 347.703 87.2953 347.891 87.3162C348.078 87.3318 348.245 87.3552 348.391 87.3865L348.227 88.5896C348.086 88.5531 347.93 88.5245 347.758 88.5037C347.586 88.4828 347.424 88.4724 347.273 88.4724C346.93 88.4724 346.604 88.5427 346.297 88.6833C345.995 88.8188 345.729 89.0167 345.5 89.2771C345.271 89.5323 345.091 89.8422 344.961 90.2068C344.831 90.5662 344.766 90.9672 344.766 91.4099V96.0037H343.461V87.4412H344.539L344.68 89.0193H344.734C344.911 88.7016 345.125 88.4125 345.375 88.1521C345.625 87.8865 345.914 87.6755 346.242 87.5193C346.576 87.363 346.945 87.2849 347.352 87.2849ZM353.305 87.2849C354.034 87.2849 354.659 87.4464 355.18 87.7693C355.701 88.0922 356.099 88.5453 356.375 89.1287C356.651 89.7068 356.789 90.3839 356.789 91.1599V91.9646H350.875C350.891 92.9698 351.141 93.7354 351.625 94.2615C352.109 94.7875 352.792 95.0505 353.672 95.0505C354.214 95.0505 354.693 95.0011 355.109 94.9021C355.526 94.8031 355.958 94.6573 356.406 94.4646V95.6052C355.974 95.7979 355.544 95.9386 355.117 96.0271C354.695 96.1156 354.195 96.1599 353.617 96.1599C352.794 96.1599 352.076 95.9932 351.461 95.6599C350.852 95.3214 350.378 94.8266 350.039 94.1755C349.701 93.5245 349.531 92.7276 349.531 91.7849C349.531 90.863 349.685 90.0662 349.992 89.3943C350.305 88.7172 350.742 88.1964 351.305 87.8318C351.872 87.4672 352.539 87.2849 353.305 87.2849ZM353.289 88.3474C352.596 88.3474 352.044 88.574 351.633 89.0271C351.221 89.4802 350.977 90.113 350.898 90.9255H355.43C355.424 90.4151 355.344 89.9672 355.188 89.5818C355.036 89.1912 354.805 88.8891 354.492 88.6755C354.18 88.4568 353.779 88.3474 353.289 88.3474ZM362.422 96.1599C361.651 96.1599 360.971 96.0011 360.383 95.6833C359.794 95.3656 359.336 94.8813 359.008 94.2302C358.68 93.5792 358.516 92.7589 358.516 91.7693C358.516 90.7328 358.688 89.8865 359.031 89.2302C359.38 88.5688 359.859 88.0792 360.469 87.7615C361.078 87.4438 361.771 87.2849 362.547 87.2849C362.974 87.2849 363.385 87.3292 363.781 87.4177C364.182 87.5011 364.51 87.6078 364.766 87.738L364.375 88.824C364.115 88.7198 363.812 88.6261 363.469 88.5427C363.13 88.4594 362.812 88.4177 362.516 88.4177C361.922 88.4177 361.427 88.5453 361.031 88.8005C360.641 89.0557 360.346 89.4307 360.148 89.9255C359.956 90.4203 359.859 91.0297 359.859 91.7537C359.859 92.4464 359.953 93.0375 360.141 93.5271C360.333 94.0167 360.617 94.3917 360.992 94.6521C361.372 94.9073 361.846 95.0349 362.414 95.0349C362.867 95.0349 363.276 94.988 363.641 94.8943C364.005 94.7953 364.336 94.6807 364.633 94.5505V95.7068C364.346 95.8526 364.026 95.9646 363.672 96.0427C363.323 96.1208 362.906 96.1599 362.422 96.1599ZM367.961 87.4412V96.0037H366.664V87.4412H367.961ZM367.328 84.238C367.542 84.238 367.724 84.3083 367.875 84.449C368.031 84.5844 368.109 84.7979 368.109 85.0896C368.109 85.3761 368.031 85.5896 367.875 85.7302C367.724 85.8708 367.542 85.9412 367.328 85.9412C367.104 85.9412 366.917 85.8708 366.766 85.7302C366.62 85.5896 366.547 85.3761 366.547 85.0896C366.547 84.7979 366.62 84.5844 366.766 84.449C366.917 84.3083 367.104 84.238 367.328 84.238ZM372.008 83.8474V86.8865C372.008 87.2354 371.997 87.574 371.977 87.9021C371.961 88.2302 371.948 88.4854 371.938 88.6677H372.008C372.242 88.2823 372.581 87.9568 373.023 87.6912C373.466 87.4255 374.031 87.2927 374.719 87.2927C375.792 87.2927 376.646 87.6651 377.281 88.4099C377.922 89.1495 378.242 90.2511 378.242 91.7146C378.242 92.6781 378.096 93.4906 377.805 94.1521C377.513 94.8136 377.102 95.3136 376.57 95.6521C376.039 95.9906 375.411 96.1599 374.688 96.1599C374.01 96.1599 373.453 96.0349 373.016 95.7849C372.583 95.5297 372.25 95.2198 372.016 94.8552H371.914L371.648 96.0037H370.711V83.8474H372.008ZM374.508 88.3787C373.888 88.3787 373.396 88.5011 373.031 88.7458C372.667 88.9854 372.404 89.35 372.242 89.8396C372.086 90.324 372.008 90.9386 372.008 91.6833V91.7537C372.008 92.8318 372.188 93.6573 372.547 94.2302C372.906 94.7979 373.56 95.0818 374.508 95.0818C375.305 95.0818 375.901 94.7901 376.297 94.2068C376.698 93.6235 376.898 92.7901 376.898 91.7068C376.898 90.6026 376.701 89.7719 376.305 89.2146C375.914 88.6573 375.315 88.3787 374.508 88.3787ZM381.805 87.4412V96.0037H380.508V87.4412H381.805ZM381.172 84.238C381.385 84.238 381.568 84.3083 381.719 84.449C381.875 84.5844 381.953 84.7979 381.953 85.0896C381.953 85.3761 381.875 85.5896 381.719 85.7302C381.568 85.8708 381.385 85.9412 381.172 85.9412C380.948 85.9412 380.76 85.8708 380.609 85.7302C380.464 85.5896 380.391 85.3761 380.391 85.0896C380.391 84.7979 380.464 84.5844 380.609 84.449C380.76 84.3083 380.948 84.238 381.172 84.238ZM388.445 87.2849C388.617 87.2849 388.797 87.2953 388.984 87.3162C389.172 87.3318 389.339 87.3552 389.484 87.3865L389.32 88.5896C389.18 88.5531 389.023 88.5245 388.852 88.5037C388.68 88.4828 388.518 88.4724 388.367 88.4724C388.023 88.4724 387.698 88.5427 387.391 88.6833C387.089 88.8188 386.823 89.0167 386.594 89.2771C386.365 89.5323 386.185 89.8422 386.055 90.2068C385.924 90.5662 385.859 90.9672 385.859 91.4099V96.0037H384.555V87.4412H385.633L385.773 89.0193H385.828C386.005 88.7016 386.219 88.4125 386.469 88.1521C386.719 87.8865 387.008 87.6755 387.336 87.5193C387.669 87.363 388.039 87.2849 388.445 87.2849ZM399.312 87.2849C400.328 87.2849 401.096 87.5349 401.617 88.0349C402.138 88.5297 402.398 89.3266 402.398 90.4255V96.0037H401.117V90.5115C401.117 89.7979 400.953 89.2641 400.625 88.9099C400.302 88.5557 399.805 88.3787 399.133 88.3787C398.185 88.3787 397.518 88.6469 397.133 89.1833C396.747 89.7198 396.555 90.4985 396.555 91.5193V96.0037H395.258V87.4412H396.305L396.5 88.6755H396.57C396.753 88.3735 396.984 88.1208 397.266 87.9177C397.547 87.7094 397.862 87.5531 398.211 87.449C398.56 87.3396 398.927 87.2849 399.312 87.2849ZM412.453 91.7068C412.453 92.4099 412.362 93.0375 412.18 93.5896C411.997 94.1417 411.734 94.6078 411.391 94.988C411.047 95.3682 410.63 95.6599 410.141 95.863C409.656 96.061 409.107 96.1599 408.492 96.1599C407.919 96.1599 407.393 96.061 406.914 95.863C406.44 95.6599 406.029 95.3682 405.68 94.988C405.336 94.6078 405.068 94.1417 404.875 93.5896C404.688 93.0375 404.594 92.4099 404.594 91.7068C404.594 90.7693 404.753 89.9724 405.07 89.3162C405.388 88.6547 405.841 88.1521 406.43 87.8083C407.023 87.4594 407.729 87.2849 408.547 87.2849C409.328 87.2849 410.01 87.4594 410.594 87.8083C411.182 88.1573 411.638 88.6625 411.961 89.324C412.289 89.9802 412.453 90.7745 412.453 91.7068ZM405.938 91.7068C405.938 92.3943 406.029 92.9906 406.211 93.4958C406.393 94.0011 406.674 94.3917 407.055 94.6677C407.435 94.9438 407.924 95.0818 408.523 95.0818C409.117 95.0818 409.604 94.9438 409.984 94.6677C410.37 94.3917 410.654 94.0011 410.836 93.4958C411.018 92.9906 411.109 92.3943 411.109 91.7068C411.109 91.0245 411.018 90.436 410.836 89.9412C410.654 89.4412 410.372 89.0557 409.992 88.7849C409.612 88.5141 409.12 88.3787 408.516 88.3787C407.625 88.3787 406.971 88.6729 406.555 89.2615C406.143 89.85 405.938 90.6651 405.938 91.7068ZM417.461 95.0974C417.674 95.0974 417.893 95.0792 418.117 95.0427C418.341 95.0063 418.523 94.962 418.664 94.9099V95.9177C418.513 95.9854 418.302 96.0427 418.031 96.0896C417.766 96.1365 417.505 96.1599 417.25 96.1599C416.797 96.1599 416.385 96.0818 416.016 95.9255C415.646 95.7641 415.349 95.4932 415.125 95.113C414.906 94.7328 414.797 94.2068 414.797 93.5349V88.4568H413.578V87.824L414.805 87.3162L415.32 85.4568H416.102V87.4412H418.609V88.4568H416.102V93.4958C416.102 94.0323 416.224 94.4333 416.469 94.699C416.719 94.9646 417.049 95.0974 417.461 95.0974ZM421.695 87.4412V96.0037H420.398V87.4412H421.695ZM421.062 84.238C421.276 84.238 421.458 84.3083 421.609 84.449C421.766 84.5844 421.844 84.7979 421.844 85.0896C421.844 85.3761 421.766 85.5896 421.609 85.7302C421.458 85.8708 421.276 85.9412 421.062 85.9412C420.839 85.9412 420.651 85.8708 420.5 85.7302C420.354 85.5896 420.281 85.3761 420.281 85.0896C420.281 84.7979 420.354 84.5844 420.5 84.449C420.651 84.3083 420.839 84.238 421.062 84.238ZM428.258 88.4568H426.125V96.0037H424.828V88.4568H423.312V87.8318L424.828 87.4021V86.8318C424.828 86.113 424.935 85.5297 425.148 85.0818C425.362 84.6287 425.672 84.2953 426.078 84.0818C426.484 83.8682 426.979 83.7615 427.562 83.7615C427.891 83.7615 428.19 83.7901 428.461 83.8474C428.737 83.9047 428.979 83.9698 429.188 84.0427L428.852 85.0662C428.674 85.0089 428.474 84.9568 428.25 84.9099C428.031 84.8578 427.807 84.8318 427.578 84.8318C427.083 84.8318 426.716 84.9932 426.477 85.3162C426.242 85.6339 426.125 86.1339 426.125 86.8162V87.4412H428.258V88.4568ZM431.125 87.4412V96.0037H429.828V87.4412H431.125ZM430.492 84.238C430.706 84.238 430.888 84.3083 431.039 84.449C431.195 84.5844 431.273 84.7979 431.273 85.0896C431.273 85.3761 431.195 85.5896 431.039 85.7302C430.888 85.8708 430.706 85.9412 430.492 85.9412C430.268 85.9412 430.081 85.8708 429.93 85.7302C429.784 85.5896 429.711 85.3761 429.711 85.0896C429.711 84.7979 429.784 84.5844 429.93 84.449C430.081 84.3083 430.268 84.238 430.492 84.238ZM437.297 96.1599C436.526 96.1599 435.846 96.0011 435.258 95.6833C434.669 95.3656 434.211 94.8813 433.883 94.2302C433.555 93.5792 433.391 92.7589 433.391 91.7693C433.391 90.7328 433.562 89.8865 433.906 89.2302C434.255 88.5688 434.734 88.0792 435.344 87.7615C435.953 87.4438 436.646 87.2849 437.422 87.2849C437.849 87.2849 438.26 87.3292 438.656 87.4177C439.057 87.5011 439.385 87.6078 439.641 87.738L439.25 88.824C438.99 88.7198 438.688 88.6261 438.344 88.5427C438.005 88.4594 437.688 88.4177 437.391 88.4177C436.797 88.4177 436.302 88.5453 435.906 88.8005C435.516 89.0557 435.221 89.4307 435.023 89.9255C434.831 90.4203 434.734 91.0297 434.734 91.7537C434.734 92.4464 434.828 93.0375 435.016 93.5271C435.208 94.0167 435.492 94.3917 435.867 94.6521C436.247 94.9073 436.721 95.0349 437.289 95.0349C437.742 95.0349 438.151 94.988 438.516 94.8943C438.88 94.7953 439.211 94.6807 439.508 94.5505V95.7068C439.221 95.8526 438.901 95.9646 438.547 96.0427C438.198 96.1208 437.781 96.1599 437.297 96.1599ZM444.742 87.3005C445.763 87.3005 446.521 87.5297 447.016 87.988C447.51 88.4464 447.758 89.1781 447.758 90.1833V96.0037H446.812L446.562 94.738H446.5C446.26 95.0505 446.01 95.3136 445.75 95.5271C445.49 95.7354 445.188 95.8943 444.844 96.0037C444.505 96.1078 444.089 96.1599 443.594 96.1599C443.073 96.1599 442.609 96.0688 442.203 95.8865C441.802 95.7042 441.484 95.4281 441.25 95.0583C441.021 94.6886 440.906 94.2198 440.906 93.6521C440.906 92.7979 441.245 92.1417 441.922 91.6833C442.599 91.225 443.63 90.975 445.016 90.9333L446.492 90.8708V90.3474C446.492 89.6078 446.333 89.0896 446.016 88.7927C445.698 88.4958 445.25 88.3474 444.672 88.3474C444.224 88.3474 443.797 88.4125 443.391 88.5427C442.984 88.6729 442.599 88.8266 442.234 89.0037L441.836 88.0193C442.221 87.8214 442.664 87.6521 443.164 87.5115C443.664 87.3708 444.19 87.3005 444.742 87.3005ZM446.477 91.7849L445.172 91.8396C444.104 91.8813 443.352 92.0557 442.914 92.363C442.477 92.6703 442.258 93.1052 442.258 93.6677C442.258 94.1573 442.406 94.5193 442.703 94.7537C443 94.988 443.393 95.1052 443.883 95.1052C444.643 95.1052 445.266 94.8943 445.75 94.4724C446.234 94.0505 446.477 93.4177 446.477 92.574V91.7849ZM453.859 96.1599C453.089 96.1599 452.409 96.0011 451.82 95.6833C451.232 95.3656 450.773 94.8813 450.445 94.2302C450.117 93.5792 449.953 92.7589 449.953 91.7693C449.953 90.7328 450.125 89.8865 450.469 89.2302C450.818 88.5688 451.297 88.0792 451.906 87.7615C452.516 87.4438 453.208 87.2849 453.984 87.2849C454.411 87.2849 454.823 87.3292 455.219 87.4177C455.62 87.5011 455.948 87.6078 456.203 87.738L455.812 88.824C455.552 88.7198 455.25 88.6261 454.906 88.5427C454.568 88.4594 454.25 88.4177 453.953 88.4177C453.359 88.4177 452.865 88.5453 452.469 88.8005C452.078 89.0557 451.784 89.4307 451.586 89.9255C451.393 90.4203 451.297 91.0297 451.297 91.7537C451.297 92.4464 451.391 93.0375 451.578 93.5271C451.771 94.0167 452.055 94.3917 452.43 94.6521C452.81 94.9073 453.284 95.0349 453.852 95.0349C454.305 95.0349 454.714 94.988 455.078 94.8943C455.443 94.7953 455.773 94.6807 456.07 94.5505V95.7068C455.784 95.8526 455.464 95.9646 455.109 96.0427C454.76 96.1208 454.344 96.1599 453.859 96.1599ZM459.398 87.4412V96.0037H458.102V87.4412H459.398ZM458.766 84.238C458.979 84.238 459.161 84.3083 459.312 84.449C459.469 84.5844 459.547 84.7979 459.547 85.0896C459.547 85.3761 459.469 85.5896 459.312 85.7302C459.161 85.8708 458.979 85.9412 458.766 85.9412C458.542 85.9412 458.354 85.8708 458.203 85.7302C458.057 85.5896 457.984 85.3761 457.984 85.0896C457.984 84.7979 458.057 84.5844 458.203 84.449C458.354 84.3083 458.542 84.238 458.766 84.238ZM469.531 91.7068C469.531 92.4099 469.44 93.0375 469.258 93.5896C469.076 94.1417 468.812 94.6078 468.469 94.988C468.125 95.3682 467.708 95.6599 467.219 95.863C466.734 96.061 466.185 96.1599 465.57 96.1599C464.997 96.1599 464.471 96.061 463.992 95.863C463.518 95.6599 463.107 95.3682 462.758 94.988C462.414 94.6078 462.146 94.1417 461.953 93.5896C461.766 93.0375 461.672 92.4099 461.672 91.7068C461.672 90.7693 461.831 89.9724 462.148 89.3162C462.466 88.6547 462.919 88.1521 463.508 87.8083C464.102 87.4594 464.807 87.2849 465.625 87.2849C466.406 87.2849 467.089 87.4594 467.672 87.8083C468.26 88.1573 468.716 88.6625 469.039 89.324C469.367 89.9802 469.531 90.7745 469.531 91.7068ZM463.016 91.7068C463.016 92.3943 463.107 92.9906 463.289 93.4958C463.471 94.0011 463.753 94.3917 464.133 94.6677C464.513 94.9438 465.003 95.0818 465.602 95.0818C466.195 95.0818 466.682 94.9438 467.062 94.6677C467.448 94.3917 467.732 94.0011 467.914 93.4958C468.096 92.9906 468.188 92.3943 468.188 91.7068C468.188 91.0245 468.096 90.436 467.914 89.9412C467.732 89.4412 467.451 89.0557 467.07 88.7849C466.69 88.5141 466.198 88.3787 465.594 88.3787C464.703 88.3787 464.049 88.6729 463.633 89.2615C463.221 89.85 463.016 90.6651 463.016 91.7068ZM475.828 87.2849C476.844 87.2849 477.612 87.5349 478.133 88.0349C478.654 88.5297 478.914 89.3266 478.914 90.4255V96.0037H477.633V90.5115C477.633 89.7979 477.469 89.2641 477.141 88.9099C476.818 88.5557 476.32 88.3787 475.648 88.3787C474.701 88.3787 474.034 88.6469 473.648 89.1833C473.263 89.7198 473.07 90.4985 473.07 91.5193V96.0037H471.773V87.4412H472.82L473.016 88.6755H473.086C473.268 88.3735 473.5 88.1208 473.781 87.9177C474.062 87.7094 474.378 87.5531 474.727 87.449C475.076 87.3396 475.443 87.2849 475.828 87.2849ZM484.883 87.2849C485.612 87.2849 486.237 87.4464 486.758 87.7693C487.279 88.0922 487.677 88.5453 487.953 89.1287C488.229 89.7068 488.367 90.3839 488.367 91.1599V91.9646H482.453C482.469 92.9698 482.719 93.7354 483.203 94.2615C483.688 94.7875 484.37 95.0505 485.25 95.0505C485.792 95.0505 486.271 95.0011 486.688 94.9021C487.104 94.8031 487.536 94.6573 487.984 94.4646V95.6052C487.552 95.7979 487.122 95.9386 486.695 96.0271C486.273 96.1156 485.773 96.1599 485.195 96.1599C484.372 96.1599 483.654 95.9932 483.039 95.6599C482.43 95.3214 481.956 94.8266 481.617 94.1755C481.279 93.5245 481.109 92.7276 481.109 91.7849C481.109 90.863 481.263 90.0662 481.57 89.3943C481.883 88.7172 482.32 88.1964 482.883 87.8318C483.451 87.4672 484.117 87.2849 484.883 87.2849ZM484.867 88.3474C484.174 88.3474 483.622 88.574 483.211 89.0271C482.799 89.4802 482.555 90.113 482.477 90.9255H487.008C487.003 90.4151 486.922 89.9672 486.766 89.5818C486.615 89.1912 486.383 88.8891 486.07 88.6755C485.758 88.4568 485.357 88.3474 484.867 88.3474ZM496.109 93.6599C496.109 94.2068 495.971 94.6677 495.695 95.0427C495.424 95.4125 495.034 95.6912 494.523 95.8787C494.018 96.0662 493.414 96.1599 492.711 96.1599C492.112 96.1599 491.594 96.113 491.156 96.0193C490.719 95.9255 490.336 95.7927 490.008 95.6208V94.4255C490.357 94.5974 490.773 94.7537 491.258 94.8943C491.742 95.0349 492.237 95.1052 492.742 95.1052C493.482 95.1052 494.018 94.9854 494.352 94.7458C494.685 94.5063 494.852 94.1807 494.852 93.7693C494.852 93.5349 494.784 93.3292 494.648 93.1521C494.518 92.9698 494.297 92.7953 493.984 92.6287C493.672 92.4568 493.24 92.2693 492.688 92.0662C492.141 91.8578 491.667 91.6521 491.266 91.449C490.87 91.2406 490.562 90.988 490.344 90.6912C490.13 90.3943 490.023 90.0089 490.023 89.5349C490.023 88.811 490.315 88.2563 490.898 87.8708C491.487 87.4802 492.258 87.2849 493.211 87.2849C493.727 87.2849 494.208 87.337 494.656 87.4412C495.109 87.5401 495.531 87.6755 495.922 87.8474L495.484 88.8865C495.13 88.7354 494.753 88.6078 494.352 88.5037C493.951 88.3995 493.542 88.3474 493.125 88.3474C492.526 88.3474 492.065 88.4464 491.742 88.6443C491.424 88.8422 491.266 89.113 491.266 89.4568C491.266 89.7224 491.339 89.9412 491.484 90.113C491.635 90.2849 491.875 90.4464 492.203 90.5974C492.531 90.7485 492.964 90.9255 493.5 91.1287C494.036 91.3266 494.5 91.5323 494.891 91.7458C495.281 91.9542 495.581 92.2094 495.789 92.5115C496.003 92.8083 496.109 93.1912 496.109 93.6599Z" fill="#101E37"/>
<rect x="237" y="127.004" width="22" height="22" rx="11" fill="white"/>
<rect x="237" y="127.004" width="22" height="22" rx="11" stroke="#101E37" stroke-width="2"/>
<path d="M278.492 144.004H276.961L270.734 134.41H270.672C270.688 134.665 270.706 134.957 270.727 135.285C270.747 135.608 270.763 135.954 270.773 136.324C270.789 136.689 270.797 137.061 270.797 137.441V144.004H269.562V132.582H271.086L277.289 142.144H277.344C277.333 141.962 277.32 141.704 277.305 141.371C277.289 141.032 277.273 140.67 277.258 140.285C277.247 139.894 277.242 139.532 277.242 139.199V132.582H278.492V144.004ZM288.797 139.707C288.797 140.41 288.706 141.038 288.523 141.59C288.341 142.142 288.078 142.608 287.734 142.988C287.391 143.368 286.974 143.66 286.484 143.863C286 144.061 285.451 144.16 284.836 144.16C284.263 144.16 283.737 144.061 283.258 143.863C282.784 143.66 282.372 143.368 282.023 142.988C281.68 142.608 281.411 142.142 281.219 141.59C281.031 141.038 280.938 140.41 280.938 139.707C280.938 138.769 281.096 137.972 281.414 137.316C281.732 136.655 282.185 136.152 282.773 135.808C283.367 135.459 284.073 135.285 284.891 135.285C285.672 135.285 286.354 135.459 286.938 135.808C287.526 136.157 287.982 136.663 288.305 137.324C288.633 137.98 288.797 138.774 288.797 139.707ZM282.281 139.707C282.281 140.394 282.372 140.991 282.555 141.496C282.737 142.001 283.018 142.392 283.398 142.668C283.779 142.944 284.268 143.082 284.867 143.082C285.461 143.082 285.948 142.944 286.328 142.668C286.714 142.392 286.997 142.001 287.18 141.496C287.362 140.991 287.453 140.394 287.453 139.707C287.453 139.024 287.362 138.436 287.18 137.941C286.997 137.441 286.716 137.056 286.336 136.785C285.956 136.514 285.464 136.379 284.859 136.379C283.969 136.379 283.315 136.673 282.898 137.261C282.487 137.85 282.281 138.665 282.281 139.707ZM292.523 142.144L292.625 142.324C292.531 142.704 292.411 143.11 292.266 143.543C292.125 143.975 291.969 144.407 291.797 144.84C291.63 145.277 291.461 145.686 291.289 146.066H290.32C290.43 145.649 290.536 145.209 290.641 144.746C290.745 144.288 290.839 143.834 290.922 143.386C291.01 142.933 291.081 142.519 291.133 142.144H292.523ZM303.391 135.285C304.406 135.285 305.174 135.535 305.695 136.035C306.216 136.53 306.477 137.327 306.477 138.426V144.004H305.195V138.511C305.195 137.798 305.031 137.264 304.703 136.91C304.38 136.556 303.883 136.379 303.211 136.379C302.263 136.379 301.596 136.647 301.211 137.183C300.826 137.72 300.633 138.498 300.633 139.519V144.004H299.336V135.441H300.383L300.578 136.676H300.648C300.831 136.373 301.062 136.121 301.344 135.918C301.625 135.709 301.94 135.553 302.289 135.449C302.638 135.34 303.005 135.285 303.391 135.285ZM316.531 139.707C316.531 140.41 316.44 141.038 316.258 141.59C316.076 142.142 315.812 142.608 315.469 142.988C315.125 143.368 314.708 143.66 314.219 143.863C313.734 144.061 313.185 144.16 312.57 144.16C311.997 144.16 311.471 144.061 310.992 143.863C310.518 143.66 310.107 143.368 309.758 142.988C309.414 142.608 309.146 142.142 308.953 141.59C308.766 141.038 308.672 140.41 308.672 139.707C308.672 138.769 308.831 137.972 309.148 137.316C309.466 136.655 309.919 136.152 310.508 135.808C311.102 135.459 311.807 135.285 312.625 135.285C313.406 135.285 314.089 135.459 314.672 135.808C315.26 136.157 315.716 136.663 316.039 137.324C316.367 137.98 316.531 138.774 316.531 139.707ZM310.016 139.707C310.016 140.394 310.107 140.991 310.289 141.496C310.471 142.001 310.753 142.392 311.133 142.668C311.513 142.944 312.003 143.082 312.602 143.082C313.195 143.082 313.682 142.944 314.062 142.668C314.448 142.392 314.732 142.001 314.914 141.496C315.096 140.991 315.188 140.394 315.188 139.707C315.188 139.024 315.096 138.436 314.914 137.941C314.732 137.441 314.451 137.056 314.07 136.785C313.69 136.514 313.198 136.379 312.594 136.379C311.703 136.379 311.049 136.673 310.633 137.261C310.221 137.85 310.016 138.665 310.016 139.707ZM328.672 147.832V144.16C328.672 143.957 328.677 143.722 328.688 143.457C328.698 143.191 328.716 142.962 328.742 142.769H328.656C328.417 143.165 328.076 143.496 327.633 143.761C327.19 144.027 326.62 144.16 325.922 144.16C324.875 144.16 324.034 143.79 323.398 143.051C322.763 142.311 322.445 141.207 322.445 139.738C322.445 138.774 322.591 137.962 322.883 137.301C323.174 136.639 323.586 136.139 324.117 135.801C324.654 135.457 325.279 135.285 325.992 135.285C326.674 135.285 327.232 135.42 327.664 135.691C328.096 135.957 328.435 136.282 328.68 136.668H328.742L328.938 135.441H329.969V147.832H328.672ZM326.164 143.082C326.768 143.082 327.253 142.97 327.617 142.746C327.982 142.517 328.247 142.173 328.414 141.715C328.586 141.256 328.677 140.686 328.688 140.004V139.73C328.688 138.626 328.5 137.79 328.125 137.222C327.75 136.649 327.096 136.363 326.164 136.363C325.362 136.363 324.766 136.67 324.375 137.285C323.984 137.894 323.789 138.722 323.789 139.769C323.789 140.816 323.984 141.631 324.375 142.215C324.766 142.793 325.362 143.082 326.164 143.082ZM339.797 135.441V144.004H338.734L338.547 142.801H338.477C338.299 143.097 338.07 143.347 337.789 143.551C337.508 143.754 337.19 143.905 336.836 144.004C336.487 144.108 336.115 144.16 335.719 144.16C335.042 144.16 334.474 144.051 334.016 143.832C333.557 143.613 333.211 143.274 332.977 142.816C332.747 142.358 332.633 141.769 332.633 141.051V135.441H333.945V140.957C333.945 141.67 334.107 142.204 334.43 142.558C334.753 142.907 335.245 143.082 335.906 143.082C336.542 143.082 337.047 142.962 337.422 142.722C337.802 142.483 338.076 142.131 338.242 141.668C338.409 141.199 338.492 140.626 338.492 139.949V135.441H339.797ZM343.836 135.441V144.004H342.539V135.441H343.836ZM343.203 132.238C343.417 132.238 343.599 132.308 343.75 132.449C343.906 132.584 343.984 132.798 343.984 133.09C343.984 133.376 343.906 133.59 343.75 133.73C343.599 133.871 343.417 133.941 343.203 133.941C342.979 133.941 342.792 133.871 342.641 133.73C342.495 133.59 342.422 133.376 342.422 133.09C342.422 132.798 342.495 132.584 342.641 132.449C342.792 132.308 342.979 132.238 343.203 132.238ZM349.883 135.285C350.612 135.285 351.237 135.446 351.758 135.769C352.279 136.092 352.677 136.545 352.953 137.129C353.229 137.707 353.367 138.384 353.367 139.16V139.965H347.453C347.469 140.97 347.719 141.735 348.203 142.261C348.688 142.788 349.37 143.051 350.25 143.051C350.792 143.051 351.271 143.001 351.688 142.902C352.104 142.803 352.536 142.657 352.984 142.465V143.605C352.552 143.798 352.122 143.939 351.695 144.027C351.273 144.116 350.773 144.16 350.195 144.16C349.372 144.16 348.654 143.993 348.039 143.66C347.43 143.321 346.956 142.827 346.617 142.176C346.279 141.524 346.109 140.728 346.109 139.785C346.109 138.863 346.263 138.066 346.57 137.394C346.883 136.717 347.32 136.196 347.883 135.832C348.451 135.467 349.117 135.285 349.883 135.285ZM349.867 136.347C349.174 136.347 348.622 136.574 348.211 137.027C347.799 137.48 347.555 138.113 347.477 138.926H352.008C352.003 138.415 351.922 137.967 351.766 137.582C351.615 137.191 351.383 136.889 351.07 136.676C350.758 136.457 350.357 136.347 349.867 136.347ZM359.461 135.285C359.633 135.285 359.812 135.295 360 135.316C360.188 135.332 360.354 135.355 360.5 135.386L360.336 136.59C360.195 136.553 360.039 136.524 359.867 136.504C359.695 136.483 359.534 136.472 359.383 136.472C359.039 136.472 358.714 136.543 358.406 136.683C358.104 136.819 357.839 137.017 357.609 137.277C357.38 137.532 357.201 137.842 357.07 138.207C356.94 138.566 356.875 138.967 356.875 139.41V144.004H355.57V135.441H356.648L356.789 137.019H356.844C357.021 136.702 357.234 136.413 357.484 136.152C357.734 135.886 358.023 135.676 358.352 135.519C358.685 135.363 359.055 135.285 359.461 135.285ZM369.5 139.707C369.5 140.41 369.409 141.038 369.227 141.59C369.044 142.142 368.781 142.608 368.438 142.988C368.094 143.368 367.677 143.66 367.188 143.863C366.703 144.061 366.154 144.16 365.539 144.16C364.966 144.16 364.44 144.061 363.961 143.863C363.487 143.66 363.076 143.368 362.727 142.988C362.383 142.608 362.115 142.142 361.922 141.59C361.734 141.038 361.641 140.41 361.641 139.707C361.641 138.769 361.799 137.972 362.117 137.316C362.435 136.655 362.888 136.152 363.477 135.808C364.07 135.459 364.776 135.285 365.594 135.285C366.375 135.285 367.057 135.459 367.641 135.808C368.229 136.157 368.685 136.663 369.008 137.324C369.336 137.98 369.5 138.774 369.5 139.707ZM362.984 139.707C362.984 140.394 363.076 140.991 363.258 141.496C363.44 142.001 363.721 142.392 364.102 142.668C364.482 142.944 364.971 143.082 365.57 143.082C366.164 143.082 366.651 142.944 367.031 142.668C367.417 142.392 367.701 142.001 367.883 141.496C368.065 140.991 368.156 140.394 368.156 139.707C368.156 139.024 368.065 138.436 367.883 137.941C367.701 137.441 367.419 137.056 367.039 136.785C366.659 136.514 366.167 136.379 365.562 136.379C364.672 136.379 364.018 136.673 363.602 137.261C363.19 137.85 362.984 138.665 362.984 139.707ZM379.789 135.285C379.961 135.285 380.141 135.295 380.328 135.316C380.516 135.332 380.682 135.355 380.828 135.386L380.664 136.59C380.523 136.553 380.367 136.524 380.195 136.504C380.023 136.483 379.862 136.472 379.711 136.472C379.367 136.472 379.042 136.543 378.734 136.683C378.432 136.819 378.167 137.017 377.938 137.277C377.708 137.532 377.529 137.842 377.398 138.207C377.268 138.566 377.203 138.967 377.203 139.41V144.004H375.898V135.441H376.977L377.117 137.019H377.172C377.349 136.702 377.562 136.413 377.812 136.152C378.062 135.886 378.352 135.676 378.68 135.519C379.013 135.363 379.383 135.285 379.789 135.285ZM385.742 135.285C386.471 135.285 387.096 135.446 387.617 135.769C388.138 136.092 388.536 136.545 388.812 137.129C389.089 137.707 389.227 138.384 389.227 139.16V139.965H383.312C383.328 140.97 383.578 141.735 384.062 142.261C384.547 142.788 385.229 143.051 386.109 143.051C386.651 143.051 387.13 143.001 387.547 142.902C387.964 142.803 388.396 142.657 388.844 142.465V143.605C388.411 143.798 387.982 143.939 387.555 144.027C387.133 144.116 386.633 144.16 386.055 144.16C385.232 144.16 384.513 143.993 383.898 143.66C383.289 143.321 382.815 142.827 382.477 142.176C382.138 141.524 381.969 140.728 381.969 139.785C381.969 138.863 382.122 138.066 382.43 137.394C382.742 136.717 383.18 136.196 383.742 135.832C384.31 135.467 384.977 135.285 385.742 135.285ZM385.727 136.347C385.034 136.347 384.482 136.574 384.07 137.027C383.659 137.48 383.414 138.113 383.336 138.926H387.867C387.862 138.415 387.781 137.967 387.625 137.582C387.474 137.191 387.242 136.889 386.93 136.676C386.617 136.457 386.216 136.347 385.727 136.347ZM394.859 144.16C394.089 144.16 393.409 144.001 392.82 143.683C392.232 143.366 391.773 142.881 391.445 142.23C391.117 141.579 390.953 140.759 390.953 139.769C390.953 138.733 391.125 137.886 391.469 137.23C391.818 136.569 392.297 136.079 392.906 135.761C393.516 135.444 394.208 135.285 394.984 135.285C395.411 135.285 395.823 135.329 396.219 135.418C396.62 135.501 396.948 135.608 397.203 135.738L396.812 136.824C396.552 136.72 396.25 136.626 395.906 136.543C395.568 136.459 395.25 136.418 394.953 136.418C394.359 136.418 393.865 136.545 393.469 136.801C393.078 137.056 392.784 137.431 392.586 137.926C392.393 138.42 392.297 139.03 392.297 139.754C392.297 140.446 392.391 141.038 392.578 141.527C392.771 142.017 393.055 142.392 393.43 142.652C393.81 142.907 394.284 143.035 394.852 143.035C395.305 143.035 395.714 142.988 396.078 142.894C396.443 142.795 396.773 142.681 397.07 142.551V143.707C396.784 143.853 396.464 143.965 396.109 144.043C395.76 144.121 395.344 144.16 394.859 144.16ZM400.398 135.441V144.004H399.102V135.441H400.398ZM399.766 132.238C399.979 132.238 400.161 132.308 400.312 132.449C400.469 132.584 400.547 132.798 400.547 133.09C400.547 133.376 400.469 133.59 400.312 133.73C400.161 133.871 399.979 133.941 399.766 133.941C399.542 133.941 399.354 133.871 399.203 133.73C399.057 133.59 398.984 133.376 398.984 133.09C398.984 132.798 399.057 132.584 399.203 132.449C399.354 132.308 399.542 132.238 399.766 132.238ZM404.445 131.847V134.886C404.445 135.235 404.435 135.574 404.414 135.902C404.398 136.23 404.385 136.485 404.375 136.668H404.445C404.68 136.282 405.018 135.957 405.461 135.691C405.904 135.426 406.469 135.293 407.156 135.293C408.229 135.293 409.083 135.665 409.719 136.41C410.359 137.149 410.68 138.251 410.68 139.715C410.68 140.678 410.534 141.491 410.242 142.152C409.951 142.814 409.539 143.314 409.008 143.652C408.477 143.991 407.849 144.16 407.125 144.16C406.448 144.16 405.891 144.035 405.453 143.785C405.021 143.53 404.688 143.22 404.453 142.855H404.352L404.086 144.004H403.148V131.847H404.445ZM406.945 136.379C406.326 136.379 405.833 136.501 405.469 136.746C405.104 136.985 404.841 137.35 404.68 137.84C404.523 138.324 404.445 138.939 404.445 139.683V139.754C404.445 140.832 404.625 141.657 404.984 142.23C405.344 142.798 405.997 143.082 406.945 143.082C407.742 143.082 408.339 142.79 408.734 142.207C409.135 141.623 409.336 140.79 409.336 139.707C409.336 138.603 409.138 137.772 408.742 137.215C408.352 136.657 407.753 136.379 406.945 136.379ZM414.242 135.441V144.004H412.945V135.441H414.242ZM413.609 132.238C413.823 132.238 414.005 132.308 414.156 132.449C414.312 132.584 414.391 132.798 414.391 133.09C414.391 133.376 414.312 133.59 414.156 133.73C414.005 133.871 413.823 133.941 413.609 133.941C413.385 133.941 413.198 133.871 413.047 133.73C412.901 133.59 412.828 133.376 412.828 133.09C412.828 132.798 412.901 132.584 413.047 132.449C413.198 132.308 413.385 132.238 413.609 132.238ZM420.883 135.285C421.055 135.285 421.234 135.295 421.422 135.316C421.609 135.332 421.776 135.355 421.922 135.386L421.758 136.59C421.617 136.553 421.461 136.524 421.289 136.504C421.117 136.483 420.956 136.472 420.805 136.472C420.461 136.472 420.135 136.543 419.828 136.683C419.526 136.819 419.26 137.017 419.031 137.277C418.802 137.532 418.622 137.842 418.492 138.207C418.362 138.566 418.297 138.967 418.297 139.41V144.004H416.992V135.441H418.07L418.211 137.019H418.266C418.443 136.702 418.656 136.413 418.906 136.152C419.156 135.886 419.445 135.676 419.773 135.519C420.107 135.363 420.477 135.285 420.883 135.285ZM431.75 135.285C432.766 135.285 433.534 135.535 434.055 136.035C434.576 136.53 434.836 137.327 434.836 138.426V144.004H433.555V138.511C433.555 137.798 433.391 137.264 433.062 136.91C432.74 136.556 432.242 136.379 431.57 136.379C430.622 136.379 429.956 136.647 429.57 137.183C429.185 137.72 428.992 138.498 428.992 139.519V144.004H427.695V135.441H428.742L428.938 136.676H429.008C429.19 136.373 429.422 136.121 429.703 135.918C429.984 135.709 430.299 135.553 430.648 135.449C430.997 135.34 431.365 135.285 431.75 135.285ZM444.891 139.707C444.891 140.41 444.799 141.038 444.617 141.59C444.435 142.142 444.172 142.608 443.828 142.988C443.484 143.368 443.068 143.66 442.578 143.863C442.094 144.061 441.544 144.16 440.93 144.16C440.357 144.16 439.831 144.061 439.352 143.863C438.878 143.66 438.466 143.368 438.117 142.988C437.773 142.608 437.505 142.142 437.312 141.59C437.125 141.038 437.031 140.41 437.031 139.707C437.031 138.769 437.19 137.972 437.508 137.316C437.826 136.655 438.279 136.152 438.867 135.808C439.461 135.459 440.167 135.285 440.984 135.285C441.766 135.285 442.448 135.459 443.031 135.808C443.62 136.157 444.076 136.663 444.398 137.324C444.727 137.98 444.891 138.774 444.891 139.707ZM438.375 139.707C438.375 140.394 438.466 140.991 438.648 141.496C438.831 142.001 439.112 142.392 439.492 142.668C439.872 142.944 440.362 143.082 440.961 143.082C441.555 143.082 442.042 142.944 442.422 142.668C442.807 142.392 443.091 142.001 443.273 141.496C443.456 140.991 443.547 140.394 443.547 139.707C443.547 139.024 443.456 138.436 443.273 137.941C443.091 137.441 442.81 137.056 442.43 136.785C442.049 136.514 441.557 136.379 440.953 136.379C440.062 136.379 439.409 136.673 438.992 137.261C438.581 137.85 438.375 138.665 438.375 139.707ZM449.898 143.097C450.112 143.097 450.331 143.079 450.555 143.043C450.779 143.006 450.961 142.962 451.102 142.91V143.918C450.951 143.985 450.74 144.043 450.469 144.09C450.203 144.136 449.943 144.16 449.688 144.16C449.234 144.16 448.823 144.082 448.453 143.926C448.083 143.764 447.786 143.493 447.562 143.113C447.344 142.733 447.234 142.207 447.234 141.535V136.457H446.016V135.824L447.242 135.316L447.758 133.457H448.539V135.441H451.047V136.457H448.539V141.496C448.539 142.032 448.661 142.433 448.906 142.699C449.156 142.965 449.487 143.097 449.898 143.097ZM454.133 135.441V144.004H452.836V135.441H454.133ZM453.5 132.238C453.714 132.238 453.896 132.308 454.047 132.449C454.203 132.584 454.281 132.798 454.281 133.09C454.281 133.376 454.203 133.59 454.047 133.73C453.896 133.871 453.714 133.941 453.5 133.941C453.276 133.941 453.089 133.871 452.938 133.73C452.792 133.59 452.719 133.376 452.719 133.09C452.719 132.798 452.792 132.584 452.938 132.449C453.089 132.308 453.276 132.238 453.5 132.238ZM460.695 136.457H458.562V144.004H457.266V136.457H455.75V135.832L457.266 135.402V134.832C457.266 134.113 457.372 133.53 457.586 133.082C457.799 132.629 458.109 132.295 458.516 132.082C458.922 131.868 459.417 131.761 460 131.761C460.328 131.761 460.628 131.79 460.898 131.847C461.174 131.905 461.417 131.97 461.625 132.043L461.289 133.066C461.112 133.009 460.911 132.957 460.688 132.91C460.469 132.858 460.245 132.832 460.016 132.832C459.521 132.832 459.154 132.993 458.914 133.316C458.68 133.634 458.562 134.134 458.562 134.816V135.441H460.695V136.457ZM463.562 135.441V144.004H462.266V135.441H463.562ZM462.93 132.238C463.143 132.238 463.326 132.308 463.477 132.449C463.633 132.584 463.711 132.798 463.711 133.09C463.711 133.376 463.633 133.59 463.477 133.73C463.326 133.871 463.143 133.941 462.93 133.941C462.706 133.941 462.518 133.871 462.367 133.73C462.221 133.59 462.148 133.376 462.148 133.09C462.148 132.798 462.221 132.584 462.367 132.449C462.518 132.308 462.706 132.238 462.93 132.238ZM469.734 144.16C468.964 144.16 468.284 144.001 467.695 143.683C467.107 143.366 466.648 142.881 466.32 142.23C465.992 141.579 465.828 140.759 465.828 139.769C465.828 138.733 466 137.886 466.344 137.23C466.693 136.569 467.172 136.079 467.781 135.761C468.391 135.444 469.083 135.285 469.859 135.285C470.286 135.285 470.698 135.329 471.094 135.418C471.495 135.501 471.823 135.608 472.078 135.738L471.688 136.824C471.427 136.72 471.125 136.626 470.781 136.543C470.443 136.459 470.125 136.418 469.828 136.418C469.234 136.418 468.74 136.545 468.344 136.801C467.953 137.056 467.659 137.431 467.461 137.926C467.268 138.42 467.172 139.03 467.172 139.754C467.172 140.446 467.266 141.038 467.453 141.527C467.646 142.017 467.93 142.392 468.305 142.652C468.685 142.907 469.159 143.035 469.727 143.035C470.18 143.035 470.589 142.988 470.953 142.894C471.318 142.795 471.648 142.681 471.945 142.551V143.707C471.659 143.853 471.339 143.965 470.984 144.043C470.635 144.121 470.219 144.16 469.734 144.16ZM477.18 135.301C478.201 135.301 478.958 135.53 479.453 135.988C479.948 136.446 480.195 137.178 480.195 138.183V144.004H479.25L479 142.738H478.938C478.698 143.051 478.448 143.314 478.188 143.527C477.927 143.735 477.625 143.894 477.281 144.004C476.943 144.108 476.526 144.16 476.031 144.16C475.51 144.16 475.047 144.069 474.641 143.886C474.24 143.704 473.922 143.428 473.688 143.058C473.458 142.689 473.344 142.22 473.344 141.652C473.344 140.798 473.682 140.142 474.359 139.683C475.036 139.225 476.068 138.975 477.453 138.933L478.93 138.871V138.347C478.93 137.608 478.771 137.09 478.453 136.793C478.135 136.496 477.688 136.347 477.109 136.347C476.661 136.347 476.234 136.413 475.828 136.543C475.422 136.673 475.036 136.827 474.672 137.004L474.273 136.019C474.659 135.821 475.102 135.652 475.602 135.511C476.102 135.371 476.628 135.301 477.18 135.301ZM478.914 139.785L477.609 139.84C476.542 139.881 475.789 140.056 475.352 140.363C474.914 140.67 474.695 141.105 474.695 141.668C474.695 142.157 474.844 142.519 475.141 142.754C475.438 142.988 475.831 143.105 476.32 143.105C477.081 143.105 477.703 142.894 478.188 142.472C478.672 142.051 478.914 141.418 478.914 140.574V139.785ZM486.297 144.16C485.526 144.16 484.846 144.001 484.258 143.683C483.669 143.366 483.211 142.881 482.883 142.23C482.555 141.579 482.391 140.759 482.391 139.769C482.391 138.733 482.562 137.886 482.906 137.23C483.255 136.569 483.734 136.079 484.344 135.761C484.953 135.444 485.646 135.285 486.422 135.285C486.849 135.285 487.26 135.329 487.656 135.418C488.057 135.501 488.385 135.608 488.641 135.738L488.25 136.824C487.99 136.72 487.688 136.626 487.344 136.543C487.005 136.459 486.688 136.418 486.391 136.418C485.797 136.418 485.302 136.545 484.906 136.801C484.516 137.056 484.221 137.431 484.023 137.926C483.831 138.42 483.734 139.03 483.734 139.754C483.734 140.446 483.828 141.038 484.016 141.527C484.208 142.017 484.492 142.392 484.867 142.652C485.247 142.907 485.721 143.035 486.289 143.035C486.742 143.035 487.151 142.988 487.516 142.894C487.88 142.795 488.211 142.681 488.508 142.551V143.707C488.221 143.853 487.901 143.965 487.547 144.043C487.198 144.121 486.781 144.16 486.297 144.16ZM491.836 135.441V144.004H490.539V135.441H491.836ZM491.203 132.238C491.417 132.238 491.599 132.308 491.75 132.449C491.906 132.584 491.984 132.798 491.984 133.09C491.984 133.376 491.906 133.59 491.75 133.73C491.599 133.871 491.417 133.941 491.203 133.941C490.979 133.941 490.792 133.871 490.641 133.73C490.495 133.59 490.422 133.376 490.422 133.09C490.422 132.798 490.495 132.584 490.641 132.449C490.792 132.308 490.979 132.238 491.203 132.238ZM501.969 139.707C501.969 140.41 501.878 141.038 501.695 141.59C501.513 142.142 501.25 142.608 500.906 142.988C500.562 143.368 500.146 143.66 499.656 143.863C499.172 144.061 498.622 144.16 498.008 144.16C497.435 144.16 496.909 144.061 496.43 143.863C495.956 143.66 495.544 143.368 495.195 142.988C494.852 142.608 494.583 142.142 494.391 141.59C494.203 141.038 494.109 140.41 494.109 139.707C494.109 138.769 494.268 137.972 494.586 137.316C494.904 136.655 495.357 136.152 495.945 135.808C496.539 135.459 497.245 135.285 498.062 135.285C498.844 135.285 499.526 135.459 500.109 135.808C500.698 136.157 501.154 136.663 501.477 137.324C501.805 137.98 501.969 138.774 501.969 139.707ZM495.453 139.707C495.453 140.394 495.544 140.991 495.727 141.496C495.909 142.001 496.19 142.392 496.57 142.668C496.951 142.944 497.44 143.082 498.039 143.082C498.633 143.082 499.12 142.944 499.5 142.668C499.885 142.392 500.169 142.001 500.352 141.496C500.534 140.991 500.625 140.394 500.625 139.707C500.625 139.024 500.534 138.436 500.352 137.941C500.169 137.441 499.888 137.056 499.508 136.785C499.128 136.514 498.635 136.379 498.031 136.379C497.141 136.379 496.487 136.673 496.07 137.261C495.659 137.85 495.453 138.665 495.453 139.707ZM508.266 135.285C509.281 135.285 510.049 135.535 510.57 136.035C511.091 136.53 511.352 137.327 511.352 138.426V144.004H510.07V138.511C510.07 137.798 509.906 137.264 509.578 136.91C509.255 136.556 508.758 136.379 508.086 136.379C507.138 136.379 506.471 136.647 506.086 137.183C505.701 137.72 505.508 138.498 505.508 139.519V144.004H504.211V135.441H505.258L505.453 136.676H505.523C505.706 136.373 505.938 136.121 506.219 135.918C506.5 135.709 506.815 135.553 507.164 135.449C507.513 135.34 507.88 135.285 508.266 135.285ZM517.32 135.285C518.049 135.285 518.674 135.446 519.195 135.769C519.716 136.092 520.115 136.545 520.391 137.129C520.667 137.707 520.805 138.384 520.805 139.16V139.965H514.891C514.906 140.97 515.156 141.735 515.641 142.261C516.125 142.788 516.807 143.051 517.688 143.051C518.229 143.051 518.708 143.001 519.125 142.902C519.542 142.803 519.974 142.657 520.422 142.465V143.605C519.99 143.798 519.56 143.939 519.133 144.027C518.711 144.116 518.211 144.16 517.633 144.16C516.81 144.16 516.091 143.993 515.477 143.66C514.867 143.321 514.393 142.827 514.055 142.176C513.716 141.524 513.547 140.728 513.547 139.785C513.547 138.863 513.701 138.066 514.008 137.394C514.32 136.717 514.758 136.196 515.32 135.832C515.888 135.467 516.555 135.285 517.32 135.285ZM517.305 136.347C516.612 136.347 516.06 136.574 515.648 137.027C515.237 137.48 514.992 138.113 514.914 138.926H519.445C519.44 138.415 519.359 137.967 519.203 137.582C519.052 137.191 518.82 136.889 518.508 136.676C518.195 136.457 517.794 136.347 517.305 136.347ZM528.547 141.66C528.547 142.207 528.409 142.668 528.133 143.043C527.862 143.413 527.471 143.691 526.961 143.879C526.456 144.066 525.852 144.16 525.148 144.16C524.549 144.16 524.031 144.113 523.594 144.019C523.156 143.926 522.773 143.793 522.445 143.621V142.426C522.794 142.597 523.211 142.754 523.695 142.894C524.18 143.035 524.674 143.105 525.18 143.105C525.919 143.105 526.456 142.985 526.789 142.746C527.122 142.506 527.289 142.181 527.289 141.769C527.289 141.535 527.221 141.329 527.086 141.152C526.956 140.97 526.734 140.795 526.422 140.629C526.109 140.457 525.677 140.269 525.125 140.066C524.578 139.858 524.104 139.652 523.703 139.449C523.307 139.241 523 138.988 522.781 138.691C522.568 138.394 522.461 138.009 522.461 137.535C522.461 136.811 522.753 136.256 523.336 135.871C523.924 135.48 524.695 135.285 525.648 135.285C526.164 135.285 526.646 135.337 527.094 135.441C527.547 135.54 527.969 135.676 528.359 135.847L527.922 136.886C527.568 136.735 527.19 136.608 526.789 136.504C526.388 136.399 525.979 136.347 525.562 136.347C524.964 136.347 524.503 136.446 524.18 136.644C523.862 136.842 523.703 137.113 523.703 137.457C523.703 137.722 523.776 137.941 523.922 138.113C524.073 138.285 524.312 138.446 524.641 138.597C524.969 138.748 525.401 138.926 525.938 139.129C526.474 139.327 526.938 139.532 527.328 139.746C527.719 139.954 528.018 140.209 528.227 140.511C528.44 140.808 528.547 141.191 528.547 141.66Z" fill="#101E37"/>
<rect x="228" y="190.004" width="100" height="32" rx="8" fill="#336ACC"/>
<rect x="341" y="191.004" width="98" height="30" rx="7" stroke="#336ACC" stroke-width="2"/>
</g>
<rect x="1" y="1.00366" width="726" height="258" rx="7" stroke="#E6EBF0" stroke-width="2"/>
<defs>
<clipPath id="clip0_3307_1816">
<rect y="0.00366211" width="728" height="260" rx="8" fill="white"/>
</clipPath>
</defs>
</svg>
