<svg width="728" height="278" viewBox="0 0 728 278" fill="none" xmlns="http://www.w3.org/2000/svg">
<g clip-path="url(#clip0_3307_1807)">
<rect y="0.00366211" width="728" height="278" rx="8" fill="#F3F6F9"/>
<path d="M168 -5.79822C168 -9.49749 170.999 -12.4963 174.698 -12.4963H721.302C725.001 -12.4963 728 -9.49749 728 -5.79822V283.806C728 287.505 725.001 290.504 721.302 290.504H174.698C170.999 290.504 168 287.505 168 283.806V-5.79822Z" fill="white"/>
<path d="M168 -12.4963H728H168ZM728 290.504H168H728ZM174.698 290.504C170.723 290.504 167.5 287.281 167.5 283.306V-5.29822C167.5 -9.27363 170.723 -12.4963 174.698 -12.4963C171.275 -12.4963 168.5 -9.49749 168.5 -5.79822V283.806C168.5 287.505 171.275 290.504 174.698 290.504ZM721.302 -12.4963C725.277 -12.4963 728.5 -9.27363 728.5 -5.29822V283.306C728.5 287.281 725.277 290.504 721.302 290.504C724.725 290.504 727.5 287.505 727.5 283.806V-5.79822C727.5 -9.49749 724.725 -12.4963 721.302 -12.4963Z" fill="#D1D8E0"/>
<path d="M221.508 59.1297C221.208 59.1297 220.974 59.0457 220.806 58.8777C220.65 58.7097 220.572 58.4757 220.572 58.1757V47.8797H216.756C216.504 47.8797 216.306 47.8137 216.162 47.6817C216.018 47.5377 215.946 47.3397 215.946 47.0877C215.946 46.8357 216.018 46.6437 216.162 46.5117C216.306 46.3797 216.504 46.3137 216.756 46.3137H226.242C226.506 46.3137 226.71 46.3797 226.854 46.5117C226.998 46.6437 227.07 46.8357 227.07 47.0877C227.07 47.3397 226.998 47.5377 226.854 47.6817C226.71 47.8137 226.506 47.8797 226.242 47.8797H222.426V58.1757C222.426 58.4757 222.348 58.7097 222.192 58.8777C222.048 59.0457 221.82 59.1297 221.508 59.1297ZM230.078 59.1657C229.37 59.1657 228.776 59.0337 228.296 58.7697C227.828 58.5057 227.474 58.1157 227.234 57.5997C227.006 57.0717 226.892 56.4117 226.892 55.6197V51.0117C226.892 50.6997 226.97 50.4717 227.126 50.3277C227.282 50.1717 227.504 50.0937 227.792 50.0937C228.08 50.0937 228.302 50.1717 228.458 50.3277C228.626 50.4717 228.71 50.6997 228.71 51.0117V55.6377C228.71 56.3457 228.854 56.8677 229.142 57.2037C229.43 57.5397 229.886 57.7077 230.51 57.7077C231.194 57.7077 231.746 57.4797 232.166 57.0237C232.598 56.5557 232.814 55.9437 232.814 55.1877V51.0117C232.814 50.6997 232.892 50.4717 233.048 50.3277C233.204 50.1717 233.432 50.0937 233.732 50.0937C234.02 50.0937 234.242 50.1717 234.398 50.3277C234.554 50.4717 234.632 50.6997 234.632 51.0117V58.2117C234.632 58.8237 234.338 59.1297 233.75 59.1297C233.474 59.1297 233.258 59.0517 233.102 58.8957C232.946 58.7277 232.868 58.4997 232.868 58.2117V56.6817L233.102 57.0777C232.862 57.7497 232.478 58.2657 231.95 58.6257C231.422 58.9857 230.798 59.1657 230.078 59.1657ZM238.112 59.1297C237.812 59.1297 237.584 59.0517 237.428 58.8957C237.272 58.7277 237.194 58.4997 237.194 58.2117V51.0117C237.194 50.7117 237.272 50.4837 237.428 50.3277C237.584 50.1717 237.8 50.0937 238.076 50.0937C238.364 50.0937 238.58 50.1717 238.724 50.3277C238.88 50.4837 238.958 50.7117 238.958 51.0117V52.3257H238.778C238.97 51.6057 239.324 51.0597 239.84 50.6877C240.356 50.3157 241.016 50.0997 241.82 50.0397C242.036 50.0277 242.204 50.0817 242.324 50.2017C242.456 50.3217 242.528 50.5077 242.54 50.7597C242.564 51.0117 242.51 51.2157 242.378 51.3717C242.246 51.5157 242.042 51.5997 241.766 51.6237L241.424 51.6597C240.644 51.7317 240.05 51.9777 239.642 52.3977C239.234 52.8177 239.03 53.3937 239.03 54.1257V58.2117C239.03 58.4997 238.952 58.7277 238.796 58.8957C238.652 59.0517 238.424 59.1297 238.112 59.1297ZM244.809 59.1297C244.521 59.1297 244.299 59.0517 244.143 58.8957C243.987 58.7277 243.909 58.4997 243.909 58.2117V51.0117C243.909 50.7117 243.987 50.4837 244.143 50.3277C244.299 50.1717 244.515 50.0937 244.791 50.0937C245.079 50.0937 245.295 50.1717 245.439 50.3277C245.595 50.4837 245.673 50.7117 245.673 51.0117V52.4157L245.475 52.0917C245.739 51.4197 246.153 50.9157 246.717 50.5797C247.281 50.2317 247.929 50.0577 248.661 50.0577C249.357 50.0577 249.933 50.1897 250.389 50.4537C250.857 50.7057 251.205 51.0957 251.433 51.6237C251.661 52.1397 251.775 52.7937 251.775 53.5857V58.2117C251.775 58.4997 251.697 58.7277 251.541 58.8957C251.385 59.0517 251.163 59.1297 250.875 59.1297C250.575 59.1297 250.347 59.0517 250.191 58.8957C250.035 58.7277 249.957 58.4997 249.957 58.2117V53.6937C249.957 52.9377 249.807 52.3857 249.507 52.0377C249.219 51.6897 248.763 51.5157 248.139 51.5157C247.407 51.5157 246.819 51.7437 246.375 52.1997C245.943 52.6557 245.727 53.2677 245.727 54.0357V58.2117C245.727 58.8237 245.421 59.1297 244.809 59.1297ZM258.096 59.1657C257.208 59.1657 256.44 58.9797 255.792 58.6077C255.156 58.2357 254.658 57.7077 254.298 57.0237C253.938 56.3397 253.758 55.5357 253.758 54.6117C253.758 53.9037 253.86 53.2737 254.064 52.7217C254.268 52.1697 254.556 51.6957 254.928 51.2997C255.312 50.8917 255.768 50.5857 256.296 50.3817C256.836 50.1657 257.436 50.0577 258.096 50.0577C258.972 50.0577 259.728 50.2437 260.364 50.6157C261.012 50.9877 261.516 51.5157 261.876 52.1997C262.236 52.8717 262.416 53.6757 262.416 54.6117C262.416 55.3077 262.314 55.9377 262.11 56.5017C261.906 57.0657 261.612 57.5457 261.228 57.9417C260.856 58.3377 260.4 58.6437 259.86 58.8597C259.332 59.0637 258.744 59.1657 258.096 59.1657ZM258.096 57.7617C258.588 57.7617 259.02 57.6417 259.392 57.4017C259.764 57.1617 260.052 56.8077 260.256 56.3397C260.472 55.8717 260.58 55.2957 260.58 54.6117C260.58 53.5797 260.352 52.7997 259.896 52.2717C259.44 51.7437 258.84 51.4797 258.096 51.4797C257.592 51.4797 257.154 51.5997 256.782 51.8397C256.41 52.0677 256.116 52.4157 255.9 52.8837C255.696 53.3517 255.594 53.9277 255.594 54.6117C255.594 55.6317 255.822 56.4117 256.278 56.9517C256.734 57.4917 257.34 57.7617 258.096 57.7617ZM267.536 59.1657C267.008 59.1657 266.462 59.1057 265.898 58.9857C265.346 58.8657 264.836 58.6617 264.368 58.3737C264.212 58.2657 264.104 58.1457 264.044 58.0137C263.984 57.8817 263.96 57.7497 263.972 57.6177C263.996 57.4737 264.05 57.3537 264.134 57.2577C264.23 57.1497 264.344 57.0837 264.476 57.0597C264.62 57.0357 264.77 57.0657 264.926 57.1497C265.394 57.4137 265.844 57.5997 266.276 57.7077C266.708 57.8037 267.134 57.8517 267.554 57.8517C268.19 57.8517 268.67 57.7377 268.994 57.5097C269.318 57.2817 269.48 56.9757 269.48 56.5917C269.48 56.2797 269.372 56.0397 269.156 55.8717C268.94 55.6917 268.616 55.5537 268.184 55.4577L266.474 55.1157C265.73 54.9597 265.166 54.6837 264.782 54.2877C264.398 53.8917 264.206 53.3877 264.206 52.7757C264.206 52.2237 264.356 51.7437 264.656 51.3357C264.956 50.9277 265.376 50.6157 265.916 50.3997C266.456 50.1717 267.08 50.0577 267.788 50.0577C268.316 50.0577 268.814 50.1237 269.282 50.2557C269.75 50.3877 270.182 50.5857 270.578 50.8497C270.734 50.9337 270.836 51.0477 270.884 51.1917C270.932 51.3237 270.938 51.4557 270.902 51.5877C270.878 51.7197 270.818 51.8397 270.722 51.9477C270.626 52.0437 270.506 52.1037 270.362 52.1277C270.23 52.1397 270.08 52.1037 269.912 52.0197C269.552 51.7917 269.192 51.6297 268.832 51.5337C268.484 51.4377 268.136 51.3897 267.788 51.3897C267.152 51.3897 266.672 51.5097 266.348 51.7497C266.036 51.9777 265.88 52.2897 265.88 52.6857C265.88 52.9857 265.976 53.2317 266.168 53.4237C266.36 53.6157 266.66 53.7537 267.068 53.8377L268.778 54.1797C269.558 54.3357 270.146 54.5997 270.542 54.9717C270.95 55.3437 271.154 55.8477 271.154 56.4837C271.154 57.3117 270.824 57.9657 270.164 58.4457C269.504 58.9257 268.628 59.1657 267.536 59.1657ZM281.271 59.1657C280.503 59.1657 279.825 58.9857 279.237 58.6257C278.661 58.2537 278.211 57.7257 277.887 57.0417C277.563 56.3457 277.401 55.5357 277.401 54.6117C277.401 53.6637 277.563 52.8537 277.887 52.1817C278.211 51.5097 278.661 50.9877 279.237 50.6157C279.825 50.2437 280.503 50.0577 281.271 50.0577C282.039 50.0577 282.699 50.2497 283.251 50.6337C283.815 51.0057 284.193 51.5097 284.385 52.1457H284.187V47.1057C284.187 46.8057 284.265 46.5777 284.421 46.4217C284.577 46.2657 284.799 46.1877 285.087 46.1877C285.375 46.1877 285.597 46.2657 285.753 46.4217C285.921 46.5777 286.005 46.8057 286.005 47.1057V58.2117C286.005 58.4997 285.927 58.7277 285.771 58.8957C285.615 59.0517 285.393 59.1297 285.105 59.1297C284.817 59.1297 284.595 59.0517 284.439 58.8957C284.283 58.7277 284.205 58.4997 284.205 58.2117V56.6277L284.403 57.0237C284.211 57.6717 283.833 58.1937 283.269 58.5897C282.717 58.9737 282.051 59.1657 281.271 59.1657ZM281.739 57.7617C282.231 57.7617 282.663 57.6417 283.035 57.4017C283.407 57.1617 283.695 56.8077 283.899 56.3397C284.115 55.8717 284.223 55.2957 284.223 54.6117C284.223 53.5797 283.995 52.7997 283.539 52.2717C283.083 51.7437 282.483 51.4797 281.739 51.4797C281.235 51.4797 280.797 51.5997 280.425 51.8397C280.053 52.0677 279.759 52.4157 279.543 52.8837C279.339 53.3517 279.237 53.9277 279.237 54.6117C279.237 55.6317 279.465 56.4117 279.921 56.9517C280.377 57.4917 280.983 57.7617 281.739 57.7617ZM289.457 59.1117C289.169 59.1117 288.947 59.0277 288.791 58.8597C288.635 58.6797 288.557 58.4337 288.557 58.1217V51.1017C288.557 50.7897 288.635 50.5497 288.791 50.3817C288.947 50.2137 289.169 50.1297 289.457 50.1297C289.745 50.1297 289.967 50.2137 290.123 50.3817C290.291 50.5497 290.375 50.7897 290.375 51.1017V58.1217C290.375 58.4337 290.297 58.6797 290.141 58.8597C289.985 59.0277 289.757 59.1117 289.457 59.1117ZM289.457 48.2577C289.097 48.2577 288.815 48.1677 288.611 47.9877C288.419 47.8077 288.323 47.5557 288.323 47.2317C288.323 46.8957 288.419 46.6437 288.611 46.4757C288.815 46.2957 289.097 46.2057 289.457 46.2057C289.817 46.2057 290.093 46.2957 290.285 46.4757C290.489 46.6437 290.591 46.8957 290.591 47.2317C290.591 47.5557 290.489 47.8077 290.285 47.9877C290.093 48.1677 289.817 48.2577 289.457 48.2577ZM296.012 59.1657C295.484 59.1657 294.938 59.1057 294.374 58.9857C293.822 58.8657 293.312 58.6617 292.844 58.3737C292.688 58.2657 292.58 58.1457 292.52 58.0137C292.46 57.8817 292.436 57.7497 292.448 57.6177C292.472 57.4737 292.526 57.3537 292.61 57.2577C292.706 57.1497 292.82 57.0837 292.952 57.0597C293.096 57.0357 293.246 57.0657 293.402 57.1497C293.87 57.4137 294.32 57.5997 294.752 57.7077C295.184 57.8037 295.61 57.8517 296.03 57.8517C296.666 57.8517 297.146 57.7377 297.47 57.5097C297.794 57.2817 297.956 56.9757 297.956 56.5917C297.956 56.2797 297.848 56.0397 297.632 55.8717C297.416 55.6917 297.092 55.5537 296.66 55.4577L294.95 55.1157C294.206 54.9597 293.642 54.6837 293.258 54.2877C292.874 53.8917 292.682 53.3877 292.682 52.7757C292.682 52.2237 292.832 51.7437 293.132 51.3357C293.432 50.9277 293.852 50.6157 294.392 50.3997C294.932 50.1717 295.556 50.0577 296.264 50.0577C296.792 50.0577 297.29 50.1237 297.758 50.2557C298.226 50.3877 298.658 50.5857 299.054 50.8497C299.21 50.9337 299.312 51.0477 299.36 51.1917C299.408 51.3237 299.414 51.4557 299.378 51.5877C299.354 51.7197 299.294 51.8397 299.198 51.9477C299.102 52.0437 298.982 52.1037 298.838 52.1277C298.706 52.1397 298.556 52.1037 298.388 52.0197C298.028 51.7917 297.668 51.6297 297.308 51.5337C296.96 51.4377 296.612 51.3897 296.264 51.3897C295.628 51.3897 295.148 51.5097 294.824 51.7497C294.512 51.9777 294.356 52.2897 294.356 52.6857C294.356 52.9857 294.452 53.2317 294.644 53.4237C294.836 53.6157 295.136 53.7537 295.544 53.8377L297.254 54.1797C298.034 54.3357 298.622 54.5997 299.018 54.9717C299.426 55.3437 299.63 55.8477 299.63 56.4837C299.63 57.3117 299.3 57.9657 298.64 58.4457C297.98 58.9257 297.104 59.1657 296.012 59.1657ZM302.553 62.3697C302.265 62.3697 302.043 62.2917 301.887 62.1357C301.731 61.9797 301.653 61.7517 301.653 61.4517V51.0117C301.653 50.7117 301.731 50.4837 301.887 50.3277C302.043 50.1717 302.259 50.0937 302.535 50.0937C302.823 50.0937 303.045 50.1717 303.201 50.3277C303.357 50.4837 303.435 50.7117 303.435 51.0117V52.5777L303.237 52.1997C303.429 51.5517 303.807 51.0357 304.371 50.6517C304.935 50.2557 305.601 50.0577 306.369 50.0577C307.149 50.0577 307.827 50.2437 308.403 50.6157C308.991 50.9877 309.441 51.5097 309.753 52.1817C310.077 52.8537 310.239 53.6637 310.239 54.6117C310.239 55.5357 310.077 56.3457 309.753 57.0417C309.441 57.7257 308.997 58.2537 308.421 58.6257C307.845 58.9857 307.161 59.1657 306.369 59.1657C305.613 59.1657 304.953 58.9737 304.389 58.5897C303.825 58.2057 303.447 57.6957 303.255 57.0597H303.471V61.4517C303.471 61.7517 303.387 61.9797 303.219 62.1357C303.063 62.2917 302.841 62.3697 302.553 62.3697ZM305.919 57.7617C306.423 57.7617 306.861 57.6417 307.233 57.4017C307.605 57.1617 307.893 56.8077 308.097 56.3397C308.301 55.8717 308.403 55.2957 308.403 54.6117C308.403 53.5797 308.175 52.7997 307.719 52.2717C307.275 51.7437 306.675 51.4797 305.919 51.4797C305.427 51.4797 304.989 51.5997 304.605 51.8397C304.233 52.0677 303.945 52.4157 303.741 52.8837C303.537 53.3517 303.435 53.9277 303.435 54.6117C303.435 55.6317 303.663 56.4117 304.119 56.9517C304.575 57.4917 305.175 57.7617 305.919 57.7617ZM316.104 59.1657C315.216 59.1657 314.448 58.9797 313.8 58.6077C313.164 58.2357 312.666 57.7077 312.306 57.0237C311.946 56.3397 311.766 55.5357 311.766 54.6117C311.766 53.9037 311.868 53.2737 312.072 52.7217C312.276 52.1697 312.564 51.6957 312.936 51.2997C313.32 50.8917 313.776 50.5857 314.304 50.3817C314.844 50.1657 315.444 50.0577 316.104 50.0577C316.98 50.0577 317.736 50.2437 318.372 50.6157C319.02 50.9877 319.524 51.5157 319.884 52.1997C320.244 52.8717 320.424 53.6757 320.424 54.6117C320.424 55.3077 320.322 55.9377 320.118 56.5017C319.914 57.0657 319.62 57.5457 319.236 57.9417C318.864 58.3377 318.408 58.6437 317.868 58.8597C317.34 59.0637 316.752 59.1657 316.104 59.1657ZM316.104 57.7617C316.596 57.7617 317.028 57.6417 317.4 57.4017C317.772 57.1617 318.06 56.8077 318.264 56.3397C318.48 55.8717 318.588 55.2957 318.588 54.6117C318.588 53.5797 318.36 52.7997 317.904 52.2717C317.448 51.7437 316.848 51.4797 316.104 51.4797C315.6 51.4797 315.162 51.5997 314.79 51.8397C314.418 52.0677 314.124 52.4157 313.908 52.8837C313.704 53.3517 313.602 53.9277 313.602 54.6117C313.602 55.6317 313.83 56.4117 314.286 56.9517C314.742 57.4917 315.348 57.7617 316.104 57.7617ZM323.366 59.1297C323.078 59.1297 322.856 59.0517 322.7 58.8957C322.544 58.7277 322.466 58.4997 322.466 58.2117V51.0117C322.466 50.7117 322.544 50.4837 322.7 50.3277C322.856 50.1717 323.072 50.0937 323.348 50.0937C323.636 50.0937 323.852 50.1717 323.996 50.3277C324.152 50.4837 324.23 50.7117 324.23 51.0117V52.4157L324.032 52.0917C324.296 51.4197 324.71 50.9157 325.274 50.5797C325.838 50.2317 326.486 50.0577 327.218 50.0577C327.914 50.0577 328.49 50.1897 328.946 50.4537C329.414 50.7057 329.762 51.0957 329.99 51.6237C330.218 52.1397 330.332 52.7937 330.332 53.5857V58.2117C330.332 58.4997 330.254 58.7277 330.098 58.8957C329.942 59.0517 329.72 59.1297 329.432 59.1297C329.132 59.1297 328.904 59.0517 328.748 58.8957C328.592 58.7277 328.514 58.4997 328.514 58.2117V53.6937C328.514 52.9377 328.364 52.3857 328.064 52.0377C327.776 51.6897 327.32 51.5157 326.696 51.5157C325.964 51.5157 325.376 51.7437 324.932 52.1997C324.5 52.6557 324.284 53.2677 324.284 54.0357V58.2117C324.284 58.8237 323.978 59.1297 323.366 59.1297ZM333.737 59.1117C333.449 59.1117 333.227 59.0277 333.071 58.8597C332.915 58.6797 332.837 58.4337 332.837 58.1217V51.1017C332.837 50.7897 332.915 50.5497 333.071 50.3817C333.227 50.2137 333.449 50.1297 333.737 50.1297C334.025 50.1297 334.247 50.2137 334.403 50.3817C334.571 50.5497 334.655 50.7897 334.655 51.1017V58.1217C334.655 58.4337 334.577 58.6797 334.421 58.8597C334.265 59.0277 334.037 59.1117 333.737 59.1117ZM333.737 48.2577C333.377 48.2577 333.095 48.1677 332.891 47.9877C332.699 47.8077 332.603 47.5557 332.603 47.2317C332.603 46.8957 332.699 46.6437 332.891 46.4757C333.095 46.2957 333.377 46.2057 333.737 46.2057C334.097 46.2057 334.373 46.2957 334.565 46.4757C334.769 46.6437 334.871 46.8957 334.871 47.2317C334.871 47.5557 334.769 47.8077 334.565 47.9877C334.373 48.1677 334.097 48.2577 333.737 48.2577ZM341.93 59.1657C341.162 59.1657 340.496 58.9737 339.932 58.5897C339.368 58.1937 338.99 57.6717 338.798 57.0237L338.996 56.6997V58.2117C338.996 58.4997 338.918 58.7277 338.762 58.8957C338.606 59.0517 338.39 59.1297 338.114 59.1297C337.826 59.1297 337.604 59.0517 337.448 58.8957C337.292 58.7277 337.214 58.4997 337.214 58.2117V47.1057C337.214 46.8057 337.292 46.5777 337.448 46.4217C337.604 46.2657 337.826 46.1877 338.114 46.1877C338.402 46.1877 338.624 46.2657 338.78 46.4217C338.948 46.5777 339.032 46.8057 339.032 47.1057V52.1457H338.816C339.008 51.5097 339.386 51.0057 339.95 50.6337C340.514 50.2497 341.174 50.0577 341.93 50.0577C342.722 50.0577 343.406 50.2437 343.982 50.6157C344.558 50.9877 345.002 51.5097 345.314 52.1817C345.638 52.8537 345.8 53.6637 345.8 54.6117C345.8 55.5357 345.638 56.3457 345.314 57.0417C345.002 57.7257 344.552 58.2537 343.964 58.6257C343.388 58.9857 342.71 59.1657 341.93 59.1657ZM341.48 57.7617C341.984 57.7617 342.422 57.6417 342.794 57.4017C343.166 57.1617 343.454 56.8077 343.658 56.3397C343.862 55.8717 343.964 55.2957 343.964 54.6117C343.964 53.5797 343.736 52.7997 343.28 52.2717C342.836 51.7437 342.236 51.4797 341.48 51.4797C340.988 51.4797 340.55 51.5997 340.166 51.8397C339.794 52.0677 339.506 52.4157 339.302 52.8837C339.098 53.3517 338.996 53.9277 338.996 54.6117C338.996 55.6317 339.224 56.4117 339.68 56.9517C340.136 57.4917 340.736 57.7617 341.48 57.7617ZM350.674 59.1657C349.738 59.1657 349.03 58.8957 348.55 58.3557C348.082 57.8037 347.848 57.0117 347.848 55.9797V47.1057C347.848 46.8057 347.926 46.5777 348.082 46.4217C348.238 46.2657 348.46 46.1877 348.748 46.1877C349.036 46.1877 349.258 46.2657 349.414 46.4217C349.582 46.5777 349.666 46.8057 349.666 47.1057V55.8717C349.666 56.4717 349.786 56.9217 350.026 57.2217C350.278 57.5097 350.638 57.6537 351.106 57.6537C351.214 57.6537 351.31 57.6537 351.394 57.6537C351.478 57.6417 351.562 57.6297 351.646 57.6177C351.79 57.6057 351.892 57.6477 351.952 57.7437C352.012 57.8277 352.042 58.0077 352.042 58.2837C352.042 58.5357 351.988 58.7337 351.88 58.8777C351.772 59.0097 351.598 59.0937 351.358 59.1297C351.25 59.1417 351.136 59.1477 351.016 59.1477C350.896 59.1597 350.782 59.1657 350.674 59.1657ZM357.384 59.1657C356.424 59.1657 355.596 58.9857 354.9 58.6257C354.216 58.2537 353.682 57.7317 353.298 57.0597C352.926 56.3757 352.74 55.5657 352.74 54.6297C352.74 53.7177 352.926 52.9197 353.298 52.2357C353.67 51.5517 354.18 51.0177 354.828 50.6337C355.476 50.2497 356.214 50.0577 357.042 50.0577C357.654 50.0577 358.2 50.1597 358.68 50.3637C359.16 50.5557 359.568 50.8437 359.904 51.2277C360.252 51.5997 360.51 52.0557 360.678 52.5957C360.858 53.1357 360.948 53.7417 360.948 54.4137C360.948 54.6177 360.888 54.7737 360.768 54.8817C360.648 54.9777 360.468 55.0257 360.228 55.0257H354.18V53.9097H359.724L359.418 54.1617C359.418 53.5617 359.328 53.0517 359.148 52.6317C358.98 52.2117 358.722 51.8937 358.374 51.6777C358.038 51.4497 357.618 51.3357 357.114 51.3357C356.55 51.3357 356.07 51.4677 355.674 51.7317C355.29 51.9957 354.996 52.3617 354.792 52.8297C354.588 53.2977 354.486 53.8437 354.486 54.4677V54.5757C354.486 55.6317 354.732 56.4297 355.224 56.9697C355.728 57.4977 356.454 57.7617 357.402 57.7617C357.762 57.7617 358.14 57.7137 358.536 57.6177C358.944 57.5217 359.328 57.3597 359.688 57.1317C359.892 57.0117 360.072 56.9577 360.228 56.9697C360.396 56.9817 360.528 57.0357 360.624 57.1317C360.732 57.2277 360.798 57.3477 360.822 57.4917C360.846 57.6357 360.822 57.7857 360.75 57.9417C360.678 58.0857 360.552 58.2177 360.372 58.3377C359.964 58.6137 359.49 58.8237 358.95 58.9677C358.41 59.0997 357.888 59.1657 357.384 59.1657ZM366.008 59.1657C365.48 59.1657 364.934 59.1057 364.37 58.9857C363.818 58.8657 363.308 58.6617 362.84 58.3737C362.684 58.2657 362.576 58.1457 362.516 58.0137C362.456 57.8817 362.432 57.7497 362.444 57.6177C362.468 57.4737 362.522 57.3537 362.606 57.2577C362.702 57.1497 362.816 57.0837 362.948 57.0597C363.092 57.0357 363.242 57.0657 363.398 57.1497C363.866 57.4137 364.316 57.5997 364.748 57.7077C365.18 57.8037 365.606 57.8517 366.026 57.8517C366.662 57.8517 367.142 57.7377 367.466 57.5097C367.79 57.2817 367.952 56.9757 367.952 56.5917C367.952 56.2797 367.844 56.0397 367.628 55.8717C367.412 55.6917 367.088 55.5537 366.656 55.4577L364.946 55.1157C364.202 54.9597 363.638 54.6837 363.254 54.2877C362.87 53.8917 362.678 53.3877 362.678 52.7757C362.678 52.2237 362.828 51.7437 363.128 51.3357C363.428 50.9277 363.848 50.6157 364.388 50.3997C364.928 50.1717 365.552 50.0577 366.26 50.0577C366.788 50.0577 367.286 50.1237 367.754 50.2557C368.222 50.3877 368.654 50.5857 369.05 50.8497C369.206 50.9337 369.308 51.0477 369.356 51.1917C369.404 51.3237 369.41 51.4557 369.374 51.5877C369.35 51.7197 369.29 51.8397 369.194 51.9477C369.098 52.0437 368.978 52.1037 368.834 52.1277C368.702 52.1397 368.552 52.1037 368.384 52.0197C368.024 51.7917 367.664 51.6297 367.304 51.5337C366.956 51.4377 366.608 51.3897 366.26 51.3897C365.624 51.3897 365.144 51.5097 364.82 51.7497C364.508 51.9777 364.352 52.2897 364.352 52.6857C364.352 52.9857 364.448 53.2317 364.64 53.4237C364.832 53.6157 365.132 53.7537 365.54 53.8377L367.25 54.1797C368.03 54.3357 368.618 54.5997 369.014 54.9717C369.422 55.3437 369.626 55.8477 369.626 56.4837C369.626 57.3117 369.296 57.9657 368.636 58.4457C367.976 58.9257 367.1 59.1657 366.008 59.1657Z" fill="#101E37"/>
<rect x="379" y="43.0037" width="76" height="20" rx="4" fill="#F0CCFF"/>
<path d="M387.067 48.0095C387.888 48.0095 388.564 48.1121 389.098 48.3171C389.635 48.5177 390.036 48.8253 390.301 49.24C390.565 49.6547 390.697 50.1833 390.697 50.8259C390.697 51.3546 390.602 51.7966 390.41 52.1521C390.219 52.503 389.968 52.7878 389.658 53.0066C389.348 53.2253 389.018 53.394 388.667 53.5125L391.408 58.0037H390.055L387.607 53.8337H385.529V58.0037H384.367V48.0095H387.067ZM386.999 49.0144H385.529V52.8494H387.115C387.931 52.8494 388.53 52.683 388.913 52.3503C389.3 52.0177 389.494 51.5278 389.494 50.8806C389.494 50.2016 389.289 49.7208 388.879 49.4382C388.473 49.1557 387.847 49.0144 386.999 49.0144ZM395.722 50.3748C396.36 50.3748 396.907 50.516 397.362 50.7986C397.818 51.0811 398.167 51.4776 398.408 51.988C398.65 52.4939 398.771 53.0863 398.771 53.7654V54.4695H393.596C393.609 55.349 393.828 56.019 394.252 56.4792C394.676 56.9395 395.273 57.1697 396.043 57.1697C396.517 57.1697 396.936 57.1264 397.301 57.0398C397.665 56.9532 398.044 56.8256 398.436 56.657V57.655C398.057 57.8236 397.681 57.9467 397.308 58.0242C396.938 58.1016 396.501 58.1404 395.995 58.1404C395.275 58.1404 394.646 57.9945 394.108 57.7029C393.575 57.4067 393.16 56.9737 392.864 56.4041C392.568 55.8344 392.42 55.1371 392.42 54.3123C392.42 53.5056 392.554 52.8083 392.823 52.2205C393.097 51.628 393.479 51.1723 393.972 50.8533C394.468 50.5343 395.052 50.3748 395.722 50.3748ZM395.708 51.3044C395.102 51.3044 394.619 51.5027 394.259 51.8992C393.899 52.2957 393.685 52.8494 393.616 53.5603H397.581C397.576 53.1137 397.506 52.7218 397.369 52.3845C397.237 52.0427 397.034 51.7784 396.761 51.5916C396.487 51.4001 396.136 51.3044 395.708 51.3044ZM405.723 61.3533V58.1404C405.723 57.9626 405.727 57.7576 405.736 57.5251C405.745 57.2927 405.761 57.0922 405.784 56.9236H405.709C405.499 57.2699 405.201 57.5593 404.813 57.7917C404.426 58.0242 403.927 58.1404 403.316 58.1404C402.4 58.1404 401.664 57.8168 401.108 57.1697C400.552 56.5225 400.274 55.5564 400.274 54.2712C400.274 53.4281 400.402 52.7172 400.657 52.1384C400.912 51.5597 401.272 51.1222 401.737 50.8259C402.207 50.5251 402.754 50.3748 403.378 50.3748C403.975 50.3748 404.463 50.4932 404.841 50.7302C405.219 50.9626 405.515 51.2475 405.729 51.5847H405.784L405.955 50.5115H406.857V61.3533H405.723ZM403.528 57.197C404.057 57.197 404.481 57.099 404.8 56.9031C405.119 56.7026 405.351 56.4018 405.497 56.0007C405.647 55.5997 405.727 55.1007 405.736 54.5037V54.2644C405.736 53.2983 405.572 52.5668 405.244 52.0701C404.916 51.5688 404.344 51.3181 403.528 51.3181C402.826 51.3181 402.305 51.587 401.963 52.1248C401.621 52.658 401.45 53.3826 401.45 54.2986C401.45 55.2146 401.621 55.9278 401.963 56.4382C402.305 56.9441 402.826 57.197 403.528 57.197ZM415.457 50.5115V58.0037H414.527L414.363 56.9509H414.302C414.147 57.2107 413.946 57.4294 413.7 57.6072C413.454 57.7849 413.176 57.9171 412.866 58.0037C412.561 58.0948 412.235 58.1404 411.889 58.1404C411.296 58.1404 410.799 58.0447 410.398 57.8533C409.997 57.6619 409.694 57.3656 409.489 56.9646C409.289 56.5636 409.188 56.0486 409.188 55.4197V50.5115H410.337V55.3376C410.337 55.962 410.478 56.4291 410.761 56.739C411.043 57.0444 411.474 57.197 412.053 57.197C412.609 57.197 413.051 57.0922 413.379 56.8826C413.712 56.6729 413.951 56.3653 414.097 55.9597C414.243 55.5496 414.315 55.0483 414.315 54.4558V50.5115H415.457ZM420.741 50.3748C421.379 50.3748 421.926 50.516 422.382 50.7986C422.838 51.0811 423.186 51.4776 423.428 51.988C423.669 52.4939 423.79 53.0863 423.79 53.7654V54.4695H418.615C418.629 55.349 418.848 56.019 419.271 56.4792C419.695 56.9395 420.292 57.1697 421.062 57.1697C421.536 57.1697 421.956 57.1264 422.32 57.0398C422.685 56.9532 423.063 56.8256 423.455 56.657V57.655C423.077 57.8236 422.701 57.9467 422.327 58.0242C421.958 58.1016 421.521 58.1404 421.015 58.1404C420.295 58.1404 419.666 57.9945 419.128 57.7029C418.595 57.4067 418.18 56.9737 417.884 56.4041C417.588 55.8344 417.439 55.1371 417.439 54.3123C417.439 53.5056 417.574 52.8083 417.843 52.2205C418.116 51.628 418.499 51.1723 418.991 50.8533C419.488 50.5343 420.071 50.3748 420.741 50.3748ZM420.728 51.3044C420.121 51.3044 419.638 51.5027 419.278 51.8992C418.918 52.2957 418.704 52.8494 418.636 53.5603H422.601C422.596 53.1137 422.525 52.7218 422.389 52.3845C422.257 52.0427 422.054 51.7784 421.78 51.5916C421.507 51.4001 421.156 51.3044 420.728 51.3044ZM429.122 50.3748C429.272 50.3748 429.43 50.3839 429.594 50.4021C429.758 50.4158 429.904 50.4363 430.031 50.4636L429.888 51.5164C429.765 51.4845 429.628 51.4594 429.478 51.4412C429.327 51.4229 429.186 51.4138 429.054 51.4138C428.753 51.4138 428.468 51.4753 428.199 51.5984C427.935 51.7169 427.702 51.8901 427.502 52.1179C427.301 52.3412 427.144 52.6124 427.03 52.9314C426.916 53.2458 426.859 53.5968 426.859 53.9841V58.0037H425.718V50.5115H426.661L426.784 51.8923H426.832C426.987 51.6143 427.174 51.3614 427.393 51.1335C427.611 50.9011 427.864 50.7166 428.151 50.5798C428.443 50.4431 428.767 50.3748 429.122 50.3748ZM432.581 50.5115V58.0037H431.446V50.5115H432.581ZM432.027 47.7087C432.214 47.7087 432.374 47.7703 432.506 47.8933C432.643 48.0118 432.711 48.1986 432.711 48.4539C432.711 48.7045 432.643 48.8914 432.506 49.0144C432.374 49.1375 432.214 49.199 432.027 49.199C431.831 49.199 431.667 49.1375 431.535 49.0144C431.408 48.8914 431.344 48.7045 431.344 48.4539C431.344 48.1986 431.408 48.0118 431.535 47.8933C431.667 47.7703 431.831 47.7087 432.027 47.7087ZM437.653 58.1404C436.705 58.1404 435.953 57.8168 435.397 57.1697C434.846 56.5225 434.57 55.561 434.57 54.2849C434.57 52.9952 434.853 52.0222 435.418 51.366C435.983 50.7052 436.735 50.3748 437.674 50.3748C438.07 50.3748 438.417 50.4272 438.713 50.532C439.009 50.6368 439.264 50.7781 439.479 50.9558C439.693 51.129 439.873 51.3272 440.019 51.5505H440.101C440.082 51.4093 440.064 51.2156 440.046 50.9695C440.028 50.7234 440.019 50.5229 440.019 50.3679V47.3669H441.153V58.0037H440.237L440.066 56.9373H440.019C439.877 57.1606 439.697 57.3634 439.479 57.5457C439.264 57.7279 439.007 57.8738 438.706 57.9832C438.41 58.088 438.059 58.1404 437.653 58.1404ZM437.831 57.197C438.633 57.197 439.201 56.9692 439.533 56.5134C439.866 56.0577 440.032 55.3809 440.032 54.4832V54.2781C440.032 53.3256 439.873 52.5942 439.554 52.0837C439.239 51.5733 438.665 51.3181 437.831 51.3181C437.134 51.3181 436.612 51.587 436.266 52.1248C435.919 52.658 435.746 53.3871 435.746 54.3123C435.746 55.2328 435.917 55.9438 436.259 56.4451C436.605 56.9464 437.129 57.197 437.831 57.197ZM450.02 54.2439C450.02 54.8591 449.94 55.4083 449.78 55.8914C449.621 56.3744 449.391 56.7823 449.09 57.115C448.789 57.4477 448.424 57.7029 447.996 57.8806C447.572 58.0538 447.091 58.1404 446.554 58.1404C446.052 58.1404 445.592 58.0538 445.173 57.8806C444.758 57.7029 444.398 57.4477 444.093 57.115C443.792 56.7823 443.557 56.3744 443.389 55.8914C443.225 55.4083 443.143 54.8591 443.143 54.2439C443.143 53.4236 443.282 52.7263 443.56 52.1521C443.838 51.5733 444.234 51.1335 444.749 50.8328C445.269 50.5274 445.886 50.3748 446.602 50.3748C447.285 50.3748 447.882 50.5274 448.393 50.8328C448.908 51.1381 449.306 51.5802 449.589 52.1589C449.876 52.7332 450.02 53.4281 450.02 54.2439ZM444.318 54.2439C444.318 54.8455 444.398 55.3673 444.558 55.8093C444.717 56.2514 444.963 56.5932 445.296 56.8347C445.629 57.0763 446.057 57.197 446.581 57.197C447.101 57.197 447.527 57.0763 447.859 56.8347C448.197 56.5932 448.445 56.2514 448.604 55.8093C448.764 55.3673 448.844 54.8455 448.844 54.2439C448.844 53.6469 448.764 53.1319 448.604 52.699C448.445 52.2615 448.199 51.9242 447.866 51.6873C447.534 51.4503 447.103 51.3318 446.574 51.3318C445.795 51.3318 445.223 51.5893 444.858 52.1042C444.498 52.6192 444.318 53.3324 444.318 54.2439Z" fill="#101E37"/>
<path d="M223.007 85.3445C223.007 85.9369 222.859 86.4428 222.562 86.8621C222.271 87.2768 221.861 87.5935 221.332 87.8123C220.803 88.031 220.181 88.1404 219.466 88.1404C219.088 88.1404 218.73 88.1222 218.393 88.0857C218.055 88.0492 217.745 87.9968 217.463 87.9285C217.18 87.8601 216.932 87.7758 216.718 87.6755V86.5613C217.06 86.7026 217.477 86.8347 217.969 86.9578C218.461 87.0763 218.976 87.1355 219.514 87.1355C220.015 87.1355 220.439 87.0694 220.785 86.9373C221.132 86.8005 221.394 86.6069 221.571 86.3562C221.754 86.101 221.845 85.7957 221.845 85.4402C221.845 85.0984 221.77 84.8136 221.619 84.5857C221.469 84.3533 221.218 84.1436 220.867 83.9568C220.521 83.7654 220.047 83.5626 219.445 83.3484C219.021 83.198 218.648 83.0339 218.324 82.8562C218.001 82.6739 217.729 82.4688 217.511 82.241C217.292 82.0131 217.126 81.7488 217.012 81.448C216.902 81.1472 216.848 80.8031 216.848 80.4158C216.848 79.8826 216.982 79.4268 217.251 79.0486C217.524 78.6658 217.9 78.3741 218.379 78.1736C218.862 77.9685 219.416 77.866 220.04 77.866C220.573 77.866 221.065 77.9161 221.517 78.0164C221.972 78.1166 222.389 78.2511 222.768 78.4197L222.405 79.4177C222.045 79.2673 221.662 79.142 221.257 79.0417C220.856 78.9415 220.441 78.8914 220.013 78.8914C219.584 78.8914 219.222 78.9552 218.926 79.0828C218.634 79.2058 218.411 79.3813 218.256 79.6091C218.101 79.837 218.023 80.1082 218.023 80.4226C218.023 80.7735 218.096 81.0652 218.242 81.2976C218.393 81.53 218.63 81.7374 218.953 81.9197C219.281 82.0974 219.714 82.2843 220.252 82.4802C220.84 82.6944 221.339 82.9223 221.749 83.1638C222.159 83.4008 222.471 83.6925 222.686 84.0388C222.9 84.3806 223.007 84.8158 223.007 85.3445ZM227.765 80.3748C228.403 80.3748 228.95 80.516 229.405 80.7986C229.861 81.0811 230.21 81.4776 230.451 81.988C230.693 82.4939 230.813 83.0863 230.813 83.7654V84.4695H225.639C225.652 85.349 225.871 86.019 226.295 86.4792C226.719 86.9395 227.316 87.1697 228.086 87.1697C228.56 87.1697 228.979 87.1264 229.344 87.0398C229.708 86.9532 230.087 86.8256 230.479 86.657V87.655C230.1 87.8236 229.724 87.9467 229.351 88.0242C228.981 88.1016 228.544 88.1404 228.038 88.1404C227.318 88.1404 226.689 87.9945 226.151 87.7029C225.618 87.4067 225.203 86.9737 224.907 86.4041C224.611 85.8344 224.463 85.1371 224.463 84.3123C224.463 83.5056 224.597 82.8083 224.866 82.2205C225.14 81.628 225.522 81.1723 226.015 80.8533C226.511 80.5343 227.095 80.3748 227.765 80.3748ZM227.751 81.3044C227.145 81.3044 226.662 81.5027 226.302 81.8992C225.942 82.2957 225.728 82.8494 225.659 83.5603H229.624C229.619 83.1137 229.549 82.7218 229.412 82.3845C229.28 82.0427 229.077 81.7784 228.804 81.5916C228.53 81.4001 228.179 81.3044 227.751 81.3044ZM233.883 88.0037H232.741V77.3669H233.883V88.0037ZM239.167 80.3748C239.805 80.3748 240.352 80.516 240.808 80.7986C241.263 81.0811 241.612 81.4776 241.854 81.988C242.095 82.4939 242.216 83.0863 242.216 83.7654V84.4695H237.041C237.055 85.349 237.273 86.019 237.697 86.4792C238.121 86.9395 238.718 87.1697 239.488 87.1697C239.962 87.1697 240.382 87.1264 240.746 87.0398C241.111 86.9532 241.489 86.8256 241.881 86.657V87.655C241.503 87.8236 241.127 87.9467 240.753 88.0242C240.384 88.1016 239.946 88.1404 239.44 88.1404C238.72 88.1404 238.091 87.9945 237.554 87.7029C237.021 87.4067 236.606 86.9737 236.31 86.4041C236.013 85.8344 235.865 85.1371 235.865 84.3123C235.865 83.5056 236 82.8083 236.269 82.2205C236.542 81.628 236.925 81.1723 237.417 80.8533C237.914 80.5343 238.497 80.3748 239.167 80.3748ZM239.153 81.3044C238.547 81.3044 238.064 81.5027 237.704 81.8992C237.344 82.2957 237.13 82.8494 237.062 83.5603H241.026C241.022 83.1137 240.951 82.7218 240.814 82.3845C240.682 82.0427 240.479 81.7784 240.206 81.5916C239.933 81.4001 239.582 81.3044 239.153 81.3044ZM247.145 88.1404C246.47 88.1404 245.875 88.0014 245.36 87.7234C244.845 87.4454 244.444 87.0216 244.157 86.4519C243.87 85.8822 243.727 85.1645 243.727 84.2986C243.727 83.3917 243.877 82.6511 244.178 82.0769C244.483 81.4981 244.902 81.0697 245.436 80.7917C245.969 80.5138 246.575 80.3748 247.254 80.3748C247.628 80.3748 247.988 80.4135 248.334 80.491C248.685 80.5639 248.972 80.6573 249.195 80.7712L248.854 81.7214C248.626 81.6303 248.361 81.5483 248.061 81.4753C247.764 81.4024 247.486 81.366 247.227 81.366C246.707 81.366 246.274 81.4776 245.928 81.7009C245.586 81.9242 245.328 82.2524 245.155 82.6853C244.987 83.1182 244.902 83.6514 244.902 84.2849C244.902 84.891 244.984 85.4083 245.148 85.8367C245.317 86.2651 245.565 86.5932 245.894 86.821C246.226 87.0444 246.641 87.156 247.138 87.156C247.534 87.156 247.892 87.115 248.211 87.033C248.53 86.9464 248.819 86.8461 249.079 86.7322V87.7439C248.828 87.8715 248.548 87.9695 248.238 88.0378C247.933 88.1062 247.568 88.1404 247.145 88.1404ZM253.857 88.1404C253.183 88.1404 252.588 88.0014 252.073 87.7234C251.558 87.4454 251.157 87.0216 250.87 86.4519C250.583 85.8822 250.439 85.1645 250.439 84.2986C250.439 83.3917 250.59 82.6511 250.891 82.0769C251.196 81.4981 251.615 81.0697 252.148 80.7917C252.682 80.5138 253.288 80.3748 253.967 80.3748C254.34 80.3748 254.701 80.4135 255.047 80.491C255.398 80.5639 255.685 80.6573 255.908 80.7712L255.566 81.7214C255.339 81.6303 255.074 81.5483 254.773 81.4753C254.477 81.4024 254.199 81.366 253.939 81.366C253.42 81.366 252.987 81.4776 252.641 81.7009C252.299 81.9242 252.041 82.2524 251.868 82.6853C251.7 83.1182 251.615 83.6514 251.615 84.2849C251.615 84.891 251.697 85.4083 251.861 85.8367C252.03 86.2651 252.278 86.5932 252.606 86.821C252.939 87.0444 253.354 87.156 253.851 87.156C254.247 87.156 254.605 87.115 254.924 87.033C255.243 86.9464 255.532 86.8461 255.792 86.7322V87.7439C255.541 87.8715 255.261 87.9695 254.951 88.0378C254.646 88.1062 254.281 88.1404 253.857 88.1404ZM258.704 80.5115V88.0037H257.569V80.5115H258.704ZM258.15 77.7087C258.337 77.7087 258.497 77.7703 258.629 77.8933C258.766 78.0118 258.834 78.1986 258.834 78.4539C258.834 78.7045 258.766 78.8914 258.629 79.0144C258.497 79.1375 258.337 79.199 258.15 79.199C257.954 79.199 257.79 79.1375 257.658 79.0144C257.531 78.8914 257.467 78.7045 257.467 78.4539C257.467 78.1986 257.531 78.0118 257.658 77.8933C257.79 77.7703 257.954 77.7087 258.15 77.7087ZM267.57 84.2439C267.57 84.8591 267.491 85.4083 267.331 85.8914C267.172 86.3744 266.941 86.7823 266.641 87.115C266.34 87.4477 265.975 87.7029 265.547 87.8806C265.123 88.0538 264.642 88.1404 264.104 88.1404C263.603 88.1404 263.143 88.0538 262.724 87.8806C262.309 87.7029 261.949 87.4477 261.644 87.115C261.343 86.7823 261.108 86.3744 260.939 85.8914C260.775 85.4083 260.693 84.8591 260.693 84.2439C260.693 83.4236 260.832 82.7263 261.11 82.1521C261.388 81.5733 261.785 81.1335 262.3 80.8328C262.819 80.5274 263.437 80.3748 264.152 80.3748C264.836 80.3748 265.433 80.5274 265.943 80.8328C266.458 81.1381 266.857 81.5802 267.14 82.1589C267.427 82.7332 267.57 83.4281 267.57 84.2439ZM261.869 84.2439C261.869 84.8455 261.949 85.3673 262.108 85.8093C262.268 86.2514 262.514 86.5932 262.847 86.8347C263.179 87.0763 263.608 87.197 264.132 87.197C264.651 87.197 265.077 87.0763 265.41 86.8347C265.747 86.5932 265.996 86.2514 266.155 85.8093C266.315 85.3673 266.395 84.8455 266.395 84.2439C266.395 83.6469 266.315 83.1319 266.155 82.699C265.996 82.2615 265.75 81.9242 265.417 81.6873C265.084 81.4503 264.654 81.3318 264.125 81.3318C263.346 81.3318 262.774 81.5893 262.409 82.1042C262.049 82.6192 261.869 83.3324 261.869 84.2439ZM273.08 80.3748C273.969 80.3748 274.641 80.5935 275.097 81.031C275.552 81.4639 275.78 82.1612 275.78 83.1228V88.0037H274.659V83.198C274.659 82.5736 274.516 82.1065 274.229 81.7966C273.946 81.4867 273.511 81.3318 272.923 81.3318C272.093 81.3318 271.51 81.5665 271.173 82.0359C270.836 82.5053 270.667 83.1866 270.667 84.0798V88.0037H269.532V80.5115H270.448L270.619 81.5916H270.681C270.84 81.3272 271.043 81.1062 271.289 80.9285C271.535 80.7462 271.811 80.6095 272.116 80.5183C272.422 80.4226 272.743 80.3748 273.08 80.3748ZM280.921 80.3884C281.814 80.3884 282.477 80.5889 282.91 80.99C283.343 81.391 283.56 82.0313 283.56 82.9109V88.0037H282.732L282.514 86.8962H282.459C282.249 87.1697 282.031 87.3998 281.803 87.5867C281.575 87.769 281.311 87.908 281.01 88.0037C280.714 88.0948 280.349 88.1404 279.916 88.1404C279.46 88.1404 279.055 88.0606 278.699 87.9011C278.348 87.7416 278.07 87.5001 277.865 87.1765C277.665 86.8529 277.564 86.4428 277.564 85.946C277.564 85.1986 277.861 84.6244 278.453 84.2234C279.046 83.8223 279.948 83.6036 281.16 83.5671L282.452 83.5125V83.0544C282.452 82.4073 282.313 81.9539 282.035 81.6941C281.757 81.4343 281.365 81.3044 280.859 81.3044C280.467 81.3044 280.094 81.3614 279.738 81.4753C279.383 81.5893 279.046 81.7237 278.727 81.8787L278.378 81.0173C278.715 80.8442 279.103 80.696 279.54 80.573C279.978 80.45 280.438 80.3884 280.921 80.3884ZM282.438 84.3123L281.297 84.3601C280.363 84.3966 279.704 84.5492 279.321 84.8181C278.938 85.087 278.747 85.4675 278.747 85.9597C278.747 86.3881 278.877 86.7048 279.137 86.9099C279.396 87.115 279.741 87.2175 280.169 87.2175C280.834 87.2175 281.379 87.033 281.803 86.6638C282.227 86.2947 282.438 85.741 282.438 85.0027V84.3123ZM282.794 77.2781V77.4148C282.703 77.547 282.577 77.7065 282.418 77.8933C282.263 78.0756 282.09 78.2693 281.898 78.4744C281.707 78.6749 281.513 78.8663 281.317 79.0486C281.126 79.2309 280.948 79.3881 280.784 79.5203H280.025V79.3562C280.171 79.183 280.331 78.9757 280.504 78.7341C280.677 78.488 280.846 78.2374 281.01 77.9822C281.174 77.7224 281.311 77.4877 281.42 77.2781H282.794ZM295.721 80.5115V88.0037H294.791L294.627 86.9509H294.565C294.41 87.2107 294.21 87.4294 293.964 87.6072C293.718 87.7849 293.44 87.9171 293.13 88.0037C292.825 88.0948 292.499 88.1404 292.152 88.1404C291.56 88.1404 291.063 88.0447 290.662 87.8533C290.261 87.6619 289.958 87.3656 289.753 86.9646C289.552 86.5636 289.452 86.0486 289.452 85.4197V80.5115H290.601V85.3376C290.601 85.962 290.742 86.4291 291.024 86.739C291.307 87.0444 291.738 87.197 292.316 87.197C292.872 87.197 293.314 87.0922 293.643 86.8826C293.975 86.6729 294.215 86.3653 294.36 85.9597C294.506 85.5496 294.579 85.0483 294.579 84.4558V80.5115H295.721ZM301.668 80.3748C302.557 80.3748 303.229 80.5935 303.685 81.031C304.14 81.4639 304.368 82.1612 304.368 83.1228V88.0037H303.247V83.198C303.247 82.5736 303.104 82.1065 302.816 81.7966C302.534 81.4867 302.099 81.3318 301.511 81.3318C300.681 81.3318 300.098 81.5665 299.761 82.0359C299.424 82.5053 299.255 83.1866 299.255 84.0798V88.0037H298.12V80.5115H299.036L299.207 81.5916H299.269C299.428 81.3272 299.631 81.1062 299.877 80.9285C300.123 80.7462 300.399 80.6095 300.704 80.5183C301.009 80.4226 301.331 80.3748 301.668 80.3748ZM311.478 77.3669V80.5457C311.478 80.7279 311.473 80.9125 311.464 81.0994C311.455 81.2817 311.439 81.4503 311.416 81.6052H311.491C311.646 81.3409 311.842 81.1199 312.079 80.9421C312.321 80.7598 312.594 80.6231 312.899 80.532C313.205 80.4363 313.528 80.3884 313.87 80.3884C314.472 80.3884 314.973 80.4841 315.374 80.6755C315.78 80.8669 316.083 81.1632 316.283 81.5642C316.488 81.9653 316.591 82.4848 316.591 83.1228V88.0037H315.47V83.198C315.47 82.5736 315.326 82.1065 315.039 81.7966C314.757 81.4867 314.321 81.3318 313.733 81.3318C313.177 81.3318 312.733 81.4389 312.4 81.6531C312.072 81.8627 311.835 82.1726 311.689 82.5828C311.548 82.9929 311.478 83.4942 311.478 84.0867V88.0037H310.343V77.3669H311.478ZM325.389 84.2439C325.389 84.8591 325.309 85.4083 325.149 85.8914C324.99 86.3744 324.76 86.7823 324.459 87.115C324.158 87.4477 323.794 87.7029 323.365 87.8806C322.941 88.0538 322.461 88.1404 321.923 88.1404C321.422 88.1404 320.961 88.0538 320.542 87.8806C320.127 87.7029 319.767 87.4477 319.462 87.115C319.161 86.7823 318.926 86.3744 318.758 85.8914C318.594 85.4083 318.512 84.8591 318.512 84.2439C318.512 83.4236 318.651 82.7263 318.929 82.1521C319.207 81.5733 319.603 81.1335 320.118 80.8328C320.638 80.5274 321.255 80.3748 321.971 80.3748C322.654 80.3748 323.251 80.5274 323.762 80.8328C324.277 81.1381 324.675 81.5802 324.958 82.1589C325.245 82.7332 325.389 83.4281 325.389 84.2439ZM319.688 84.2439C319.688 84.8455 319.767 85.3673 319.927 85.8093C320.086 86.2514 320.332 86.5932 320.665 86.8347C320.998 87.0763 321.426 87.197 321.95 87.197C322.47 87.197 322.896 87.0763 323.229 86.8347C323.566 86.5932 323.814 86.2514 323.974 85.8093C324.133 85.3673 324.213 84.8455 324.213 84.2439C324.213 83.6469 324.133 83.1319 323.974 82.699C323.814 82.2615 323.568 81.9242 323.235 81.6873C322.903 81.4503 322.472 81.3318 321.943 81.3318C321.164 81.3318 320.592 81.5893 320.228 82.1042C319.868 82.6192 319.688 83.3324 319.688 84.2439ZM330.755 80.3748C330.905 80.3748 331.062 80.3839 331.227 80.4021C331.391 80.4158 331.536 80.4363 331.664 80.4636L331.521 81.5164C331.397 81.4845 331.261 81.4594 331.11 81.4412C330.96 81.4229 330.819 81.4138 330.687 81.4138C330.386 81.4138 330.101 81.4753 329.832 81.5984C329.568 81.7169 329.335 81.8901 329.135 82.1179C328.934 82.3412 328.777 82.6124 328.663 82.9314C328.549 83.2458 328.492 83.5968 328.492 83.9841V88.0037H327.351V80.5115H328.294L328.417 81.8923H328.465C328.62 81.6143 328.807 81.3614 329.025 81.1335C329.244 80.9011 329.497 80.7166 329.784 80.5798C330.076 80.4431 330.399 80.3748 330.755 80.3748ZM335.882 80.3884C336.775 80.3884 337.438 80.5889 337.871 80.99C338.304 81.391 338.521 82.0313 338.521 82.9109V88.0037H337.693L337.475 86.8962H337.42C337.21 87.1697 336.992 87.3998 336.764 87.5867C336.536 87.769 336.271 87.908 335.971 88.0037C335.674 88.0948 335.31 88.1404 334.877 88.1404C334.421 88.1404 334.016 88.0606 333.66 87.9011C333.309 87.7416 333.031 87.5001 332.826 87.1765C332.626 86.8529 332.525 86.4428 332.525 85.946C332.525 85.1986 332.822 84.6244 333.414 84.2234C334.007 83.8223 334.909 83.6036 336.121 83.5671L337.413 83.5125V83.0544C337.413 82.4073 337.274 81.9539 336.996 81.6941C336.718 81.4343 336.326 81.3044 335.82 81.3044C335.428 81.3044 335.055 81.3614 334.699 81.4753C334.344 81.5893 334.007 81.7237 333.688 81.8787L333.339 81.0173C333.676 80.8442 334.063 80.696 334.501 80.573C334.938 80.45 335.399 80.3884 335.882 80.3884ZM337.399 84.3123L336.258 84.3601C335.324 84.3966 334.665 84.5492 334.282 84.8181C333.899 85.087 333.708 85.4675 333.708 85.9597C333.708 86.3881 333.838 86.7048 334.098 86.9099C334.357 87.115 334.701 87.2175 335.13 87.2175C335.795 87.2175 336.34 87.033 336.764 86.6638C337.188 86.2947 337.399 85.741 337.399 85.0027V84.3123ZM344.263 80.3748C344.413 80.3748 344.57 80.3839 344.734 80.4021C344.898 80.4158 345.044 80.4363 345.172 80.4636L345.028 81.5164C344.905 81.4845 344.769 81.4594 344.618 81.4412C344.468 81.4229 344.326 81.4138 344.194 81.4138C343.894 81.4138 343.609 81.4753 343.34 81.5984C343.076 81.7169 342.843 81.8901 342.643 82.1179C342.442 82.3412 342.285 82.6124 342.171 82.9314C342.057 83.2458 342 83.5968 342 83.9841V88.0037H340.858V80.5115H341.802L341.925 81.8923H341.973C342.128 81.6143 342.314 81.3614 342.533 81.1335C342.752 80.9011 343.005 80.7166 343.292 80.5798C343.584 80.4431 343.907 80.3748 344.263 80.3748ZM347.722 80.5115V88.0037H346.587V80.5115H347.722ZM347.168 77.7087C347.355 77.7087 347.514 77.7703 347.646 77.8933C347.783 78.0118 347.852 78.1986 347.852 78.4539C347.852 78.7045 347.783 78.8914 347.646 79.0144C347.514 79.1375 347.355 79.199 347.168 79.199C346.972 79.199 346.808 79.1375 346.676 79.0144C346.548 78.8914 346.484 78.7045 346.484 78.4539C346.484 78.1986 346.548 78.0118 346.676 77.8933C346.808 77.7703 346.972 77.7087 347.168 77.7087ZM356.588 84.2439C356.588 84.8591 356.508 85.4083 356.349 85.8914C356.189 86.3744 355.959 86.7823 355.658 87.115C355.357 87.4477 354.993 87.7029 354.564 87.8806C354.141 88.0538 353.66 88.1404 353.122 88.1404C352.621 88.1404 352.16 88.0538 351.741 87.8806C351.326 87.7029 350.966 87.4477 350.661 87.115C350.36 86.7823 350.126 86.3744 349.957 85.8914C349.793 85.4083 349.711 84.8591 349.711 84.2439C349.711 83.4236 349.85 82.7263 350.128 82.1521C350.406 81.5733 350.802 81.1335 351.317 80.8328C351.837 80.5274 352.454 80.3748 353.17 80.3748C353.854 80.3748 354.451 80.5274 354.961 80.8328C355.476 81.1381 355.875 81.5802 356.157 82.1589C356.444 82.7332 356.588 83.4281 356.588 84.2439ZM350.887 84.2439C350.887 84.8455 350.966 85.3673 351.126 85.8093C351.285 86.2514 351.532 86.5932 351.864 86.8347C352.197 87.0763 352.625 87.197 353.149 87.197C353.669 87.197 354.095 87.0763 354.428 86.8347C354.765 86.5932 355.013 86.2514 355.173 85.8093C355.332 85.3673 355.412 84.8455 355.412 84.2439C355.412 83.6469 355.332 83.1319 355.173 82.699C355.013 82.2615 354.767 81.9242 354.435 81.6873C354.102 81.4503 353.671 81.3318 353.143 81.3318C352.363 81.3318 351.791 81.5893 351.427 82.1042C351.067 82.6192 350.887 83.3324 350.887 84.2439Z" fill="#101E37"/>
<rect x="225" y="110.004" width="22" height="22" rx="11" fill="white"/>
<rect x="225" y="110.004" width="22" height="22" rx="11" stroke="#274986" stroke-width="2"/>
<rect x="230" y="115.004" width="12" height="12" rx="6" fill="#274986"/>
<path d="M261.617 127.004H260.352V118.91C260.352 118.603 260.352 118.34 260.352 118.121C260.357 117.897 260.362 117.694 260.367 117.511C260.378 117.324 260.391 117.134 260.406 116.941C260.245 117.108 260.094 117.251 259.953 117.371C259.812 117.485 259.638 117.629 259.43 117.801L258.125 118.847L257.445 117.965L260.539 115.582H261.617V127.004ZM269.555 120.019C270.331 120.019 271.005 120.152 271.578 120.418C272.151 120.678 272.594 121.058 272.906 121.558C273.224 122.058 273.383 122.665 273.383 123.379C273.383 124.16 273.214 124.834 272.875 125.402C272.536 125.965 272.049 126.399 271.414 126.707C270.779 127.009 270.018 127.16 269.133 127.16C268.539 127.16 267.987 127.108 267.477 127.004C266.966 126.899 266.536 126.743 266.188 126.535V125.301C266.568 125.53 267.029 125.712 267.57 125.847C268.112 125.983 268.638 126.051 269.148 126.051C269.727 126.051 270.232 125.959 270.664 125.777C271.102 125.59 271.44 125.308 271.68 124.933C271.924 124.553 272.047 124.077 272.047 123.504C272.047 122.743 271.812 122.157 271.344 121.746C270.88 121.329 270.146 121.121 269.141 121.121C268.818 121.121 268.464 121.147 268.078 121.199C267.693 121.251 267.375 121.308 267.125 121.371L266.469 120.941L266.906 115.582H272.586V116.769H268.016L267.727 120.215C267.924 120.173 268.18 120.131 268.492 120.09C268.805 120.043 269.159 120.019 269.555 120.019ZM275.484 126.191C275.484 125.827 275.573 125.569 275.75 125.418C275.927 125.261 276.143 125.183 276.398 125.183C276.664 125.183 276.888 125.261 277.07 125.418C277.253 125.569 277.344 125.827 277.344 126.191C277.344 126.551 277.253 126.814 277.07 126.98C276.888 127.142 276.664 127.222 276.398 127.222C276.143 127.222 275.927 127.142 275.75 126.98C275.573 126.814 275.484 126.551 275.484 126.191ZM275.484 119.261C275.484 118.886 275.573 118.623 275.75 118.472C275.927 118.316 276.143 118.238 276.398 118.238C276.664 118.238 276.888 118.316 277.07 118.472C277.253 118.623 277.344 118.886 277.344 119.261C277.344 119.616 277.253 119.873 277.07 120.035C276.888 120.196 276.664 120.277 276.398 120.277C276.143 120.277 275.927 120.196 275.75 120.035C275.573 119.873 275.484 119.616 275.484 119.261ZM286.367 118.246C286.367 118.756 286.268 119.199 286.07 119.574C285.872 119.949 285.596 120.256 285.242 120.496C284.888 120.73 284.471 120.894 283.992 120.988V121.051C284.898 121.165 285.578 121.457 286.031 121.926C286.49 122.394 286.719 123.009 286.719 123.769C286.719 124.431 286.562 125.017 286.25 125.527C285.943 126.038 285.469 126.439 284.828 126.73C284.193 127.017 283.378 127.16 282.383 127.16C281.779 127.16 281.219 127.11 280.703 127.011C280.193 126.918 279.703 126.759 279.234 126.535V125.316C279.708 125.551 280.224 125.735 280.781 125.871C281.339 126.001 281.878 126.066 282.398 126.066C283.44 126.066 284.193 125.86 284.656 125.449C285.12 125.032 285.352 124.465 285.352 123.746C285.352 123.251 285.221 122.853 284.961 122.551C284.706 122.243 284.336 122.019 283.852 121.879C283.372 121.733 282.794 121.66 282.117 121.66H280.977V120.551H282.125C282.745 120.551 283.271 120.459 283.703 120.277C284.135 120.095 284.464 119.84 284.688 119.511C284.917 119.178 285.031 118.785 285.031 118.332C285.031 117.754 284.839 117.308 284.453 116.996C284.068 116.678 283.544 116.519 282.883 116.519C282.477 116.519 282.107 116.561 281.773 116.644C281.44 116.728 281.128 116.842 280.836 116.988C280.544 117.134 280.253 117.303 279.961 117.496L279.305 116.605C279.721 116.282 280.229 116.004 280.828 115.769C281.427 115.535 282.107 115.418 282.867 115.418C284.034 115.418 284.909 115.683 285.492 116.215C286.076 116.746 286.367 117.423 286.367 118.246ZM296.008 121.277C296.008 122.204 295.938 123.032 295.797 123.761C295.656 124.491 295.435 125.108 295.133 125.613C294.831 126.118 294.44 126.504 293.961 126.769C293.482 127.03 292.906 127.16 292.234 127.16C291.385 127.16 290.682 126.928 290.125 126.465C289.573 126.001 289.159 125.332 288.883 124.457C288.612 123.577 288.477 122.517 288.477 121.277C288.477 120.058 288.599 119.011 288.844 118.136C289.094 117.256 289.495 116.582 290.047 116.113C290.599 115.639 291.328 115.402 292.234 115.402C293.094 115.402 293.802 115.636 294.359 116.105C294.917 116.569 295.331 117.241 295.602 118.121C295.872 118.996 296.008 120.048 296.008 121.277ZM289.781 121.277C289.781 122.34 289.862 123.225 290.023 123.933C290.185 124.642 290.445 125.173 290.805 125.527C291.169 125.876 291.646 126.051 292.234 126.051C292.823 126.051 293.297 125.876 293.656 125.527C294.021 125.178 294.284 124.649 294.445 123.941C294.612 123.233 294.695 122.345 294.695 121.277C294.695 120.23 294.615 119.355 294.453 118.652C294.292 117.944 294.031 117.413 293.672 117.058C293.312 116.699 292.833 116.519 292.234 116.519C291.635 116.519 291.156 116.699 290.797 117.058C290.438 117.413 290.177 117.944 290.016 118.652C289.859 119.355 289.781 120.23 289.781 121.277ZM303.648 114.847V118.48C303.648 118.689 303.643 118.899 303.633 119.113C303.622 119.321 303.604 119.514 303.578 119.691H303.664C303.841 119.389 304.065 119.136 304.336 118.933C304.612 118.725 304.924 118.569 305.273 118.465C305.622 118.355 305.992 118.301 306.383 118.301C307.07 118.301 307.643 118.41 308.102 118.629C308.565 118.847 308.911 119.186 309.141 119.644C309.375 120.103 309.492 120.696 309.492 121.426V127.004H308.211V121.511C308.211 120.798 308.047 120.264 307.719 119.91C307.396 119.556 306.898 119.379 306.227 119.379C305.591 119.379 305.083 119.501 304.703 119.746C304.328 119.985 304.057 120.34 303.891 120.808C303.729 121.277 303.648 121.85 303.648 122.527V127.004H302.352V114.847H303.648ZM317.703 124.66C317.703 125.207 317.565 125.668 317.289 126.043C317.018 126.413 316.628 126.691 316.117 126.879C315.612 127.066 315.008 127.16 314.305 127.16C313.706 127.16 313.188 127.113 312.75 127.019C312.312 126.926 311.93 126.793 311.602 126.621V125.426C311.951 125.597 312.367 125.754 312.852 125.894C313.336 126.035 313.831 126.105 314.336 126.105C315.076 126.105 315.612 125.985 315.945 125.746C316.279 125.506 316.445 125.181 316.445 124.769C316.445 124.535 316.378 124.329 316.242 124.152C316.112 123.97 315.891 123.795 315.578 123.629C315.266 123.457 314.833 123.269 314.281 123.066C313.734 122.858 313.26 122.652 312.859 122.449C312.464 122.241 312.156 121.988 311.938 121.691C311.724 121.394 311.617 121.009 311.617 120.535C311.617 119.811 311.909 119.256 312.492 118.871C313.081 118.48 313.852 118.285 314.805 118.285C315.32 118.285 315.802 118.337 316.25 118.441C316.703 118.54 317.125 118.676 317.516 118.847L317.078 119.886C316.724 119.735 316.346 119.608 315.945 119.504C315.544 119.399 315.135 119.347 314.719 119.347C314.12 119.347 313.659 119.446 313.336 119.644C313.018 119.842 312.859 120.113 312.859 120.457C312.859 120.722 312.932 120.941 313.078 121.113C313.229 121.285 313.469 121.446 313.797 121.597C314.125 121.748 314.557 121.926 315.094 122.129C315.63 122.327 316.094 122.532 316.484 122.746C316.875 122.954 317.174 123.209 317.383 123.511C317.596 123.808 317.703 124.191 317.703 124.66Z" fill="#101E37"/>
<rect x="225" y="158.004" width="22" height="22" rx="11" fill="white"/>
<rect x="225" y="158.004" width="22" height="22" rx="11" stroke="#101E37" stroke-width="2"/>
<path d="M261.617 175.004H260.352V166.91C260.352 166.603 260.352 166.34 260.352 166.121C260.357 165.897 260.362 165.694 260.367 165.511C260.378 165.324 260.391 165.134 260.406 164.941C260.245 165.108 260.094 165.251 259.953 165.371C259.812 165.485 259.638 165.629 259.43 165.801L258.125 166.847L257.445 165.965L260.539 163.582H261.617V175.004ZM269.555 168.019C270.331 168.019 271.005 168.152 271.578 168.418C272.151 168.678 272.594 169.058 272.906 169.558C273.224 170.058 273.383 170.665 273.383 171.379C273.383 172.16 273.214 172.834 272.875 173.402C272.536 173.965 272.049 174.399 271.414 174.707C270.779 175.009 270.018 175.16 269.133 175.16C268.539 175.16 267.987 175.108 267.477 175.004C266.966 174.899 266.536 174.743 266.188 174.535V173.301C266.568 173.53 267.029 173.712 267.57 173.847C268.112 173.983 268.638 174.051 269.148 174.051C269.727 174.051 270.232 173.959 270.664 173.777C271.102 173.59 271.44 173.308 271.68 172.933C271.924 172.553 272.047 172.077 272.047 171.504C272.047 170.743 271.812 170.157 271.344 169.746C270.88 169.329 270.146 169.121 269.141 169.121C268.818 169.121 268.464 169.147 268.078 169.199C267.693 169.251 267.375 169.308 267.125 169.371L266.469 168.941L266.906 163.582H272.586V164.769H268.016L267.727 168.215C267.924 168.173 268.18 168.131 268.492 168.09C268.805 168.043 269.159 168.019 269.555 168.019ZM275.484 174.191C275.484 173.827 275.573 173.569 275.75 173.418C275.927 173.261 276.143 173.183 276.398 173.183C276.664 173.183 276.888 173.261 277.07 173.418C277.253 173.569 277.344 173.827 277.344 174.191C277.344 174.551 277.253 174.814 277.07 174.98C276.888 175.142 276.664 175.222 276.398 175.222C276.143 175.222 275.927 175.142 275.75 174.98C275.573 174.814 275.484 174.551 275.484 174.191ZM275.484 167.261C275.484 166.886 275.573 166.623 275.75 166.472C275.927 166.316 276.143 166.238 276.398 166.238C276.664 166.238 276.888 166.316 277.07 166.472C277.253 166.623 277.344 166.886 277.344 167.261C277.344 167.616 277.253 167.873 277.07 168.035C276.888 168.196 276.664 168.277 276.398 168.277C276.143 168.277 275.927 168.196 275.75 168.035C275.573 167.873 275.484 167.616 275.484 167.261ZM287.359 172.355H285.648V175.004H284.383V172.355H278.859V171.261L284.297 163.519H285.648V171.183H287.359V172.355ZM284.383 171.183V167.449C284.383 167.163 284.385 166.905 284.391 166.676C284.396 166.441 284.404 166.225 284.414 166.027C284.424 165.824 284.432 165.631 284.438 165.449C284.448 165.267 284.456 165.087 284.461 164.91H284.398C284.299 165.118 284.185 165.34 284.055 165.574C283.93 165.803 283.802 166.009 283.672 166.191L280.148 171.183H284.383ZM292.07 168.019C292.846 168.019 293.521 168.152 294.094 168.418C294.667 168.678 295.109 169.058 295.422 169.558C295.74 170.058 295.898 170.665 295.898 171.379C295.898 172.16 295.729 172.834 295.391 173.402C295.052 173.965 294.565 174.399 293.93 174.707C293.294 175.009 292.534 175.16 291.648 175.16C291.055 175.16 290.503 175.108 289.992 175.004C289.482 174.899 289.052 174.743 288.703 174.535V173.301C289.083 173.53 289.544 173.712 290.086 173.847C290.628 173.983 291.154 174.051 291.664 174.051C292.242 174.051 292.747 173.959 293.18 173.777C293.617 173.59 293.956 173.308 294.195 172.933C294.44 172.553 294.562 172.077 294.562 171.504C294.562 170.743 294.328 170.157 293.859 169.746C293.396 169.329 292.661 169.121 291.656 169.121C291.333 169.121 290.979 169.147 290.594 169.199C290.208 169.251 289.891 169.308 289.641 169.371L288.984 168.941L289.422 163.582H295.102V164.769H290.531L290.242 168.215C290.44 168.173 290.695 168.131 291.008 168.09C291.32 168.043 291.674 168.019 292.07 168.019ZM303.648 162.847V166.48C303.648 166.689 303.643 166.899 303.633 167.113C303.622 167.321 303.604 167.514 303.578 167.691H303.664C303.841 167.389 304.065 167.136 304.336 166.933C304.612 166.725 304.924 166.569 305.273 166.465C305.622 166.355 305.992 166.301 306.383 166.301C307.07 166.301 307.643 166.41 308.102 166.629C308.565 166.847 308.911 167.186 309.141 167.644C309.375 168.103 309.492 168.696 309.492 169.426V175.004H308.211V169.511C308.211 168.798 308.047 168.264 307.719 167.91C307.396 167.556 306.898 167.379 306.227 167.379C305.591 167.379 305.083 167.501 304.703 167.746C304.328 167.985 304.057 168.34 303.891 168.808C303.729 169.277 303.648 169.85 303.648 170.527V175.004H302.352V162.847H303.648ZM317.703 172.66C317.703 173.207 317.565 173.668 317.289 174.043C317.018 174.413 316.628 174.691 316.117 174.879C315.612 175.066 315.008 175.16 314.305 175.16C313.706 175.16 313.188 175.113 312.75 175.019C312.312 174.926 311.93 174.793 311.602 174.621V173.426C311.951 173.597 312.367 173.754 312.852 173.894C313.336 174.035 313.831 174.105 314.336 174.105C315.076 174.105 315.612 173.985 315.945 173.746C316.279 173.506 316.445 173.181 316.445 172.769C316.445 172.535 316.378 172.329 316.242 172.152C316.112 171.97 315.891 171.795 315.578 171.629C315.266 171.457 314.833 171.269 314.281 171.066C313.734 170.858 313.26 170.652 312.859 170.449C312.464 170.241 312.156 169.988 311.938 169.691C311.724 169.394 311.617 169.009 311.617 168.535C311.617 167.811 311.909 167.256 312.492 166.871C313.081 166.48 313.852 166.285 314.805 166.285C315.32 166.285 315.802 166.337 316.25 166.441C316.703 166.54 317.125 166.676 317.516 166.847L317.078 167.886C316.724 167.735 316.346 167.608 315.945 167.504C315.544 167.399 315.135 167.347 314.719 167.347C314.12 167.347 313.659 167.446 313.336 167.644C313.018 167.842 312.859 168.113 312.859 168.457C312.859 168.722 312.932 168.941 313.078 169.113C313.229 169.285 313.469 169.446 313.797 169.597C314.125 169.748 314.557 169.926 315.094 170.129C315.63 170.327 316.094 170.532 316.484 170.746C316.875 170.954 317.174 171.209 317.383 171.511C317.596 171.808 317.703 172.191 317.703 172.66Z" fill="#101E37"/>
<rect x="225" y="206.004" width="22" height="22" rx="11" fill="white"/>
<rect x="225" y="206.004" width="22" height="22" rx="11" stroke="#101E37" stroke-width="2"/>
<path d="M261.617 223.004H260.352V214.91C260.352 214.603 260.352 214.34 260.352 214.121C260.357 213.897 260.362 213.694 260.367 213.511C260.378 213.324 260.391 213.134 260.406 212.941C260.245 213.108 260.094 213.251 259.953 213.371C259.812 213.485 259.638 213.629 259.43 213.801L258.125 214.847L257.445 213.965L260.539 211.582H261.617V223.004ZM266.062 218.121C266.062 217.433 266.109 216.761 266.203 216.105C266.302 215.449 266.466 214.84 266.695 214.277C266.924 213.709 267.237 213.212 267.633 212.785C268.029 212.358 268.521 212.024 269.109 211.785C269.703 211.54 270.414 211.418 271.242 211.418C271.477 211.418 271.729 211.431 272 211.457C272.271 211.478 272.495 211.514 272.672 211.566V212.683C272.479 212.616 272.258 212.566 272.008 212.535C271.763 212.504 271.516 212.488 271.266 212.488C270.297 212.488 269.534 212.699 268.977 213.121C268.424 213.543 268.026 214.116 267.781 214.84C267.536 215.558 267.396 216.368 267.359 217.269H267.445C267.607 217.009 267.812 216.774 268.062 216.566C268.312 216.353 268.615 216.183 268.969 216.058C269.328 215.933 269.745 215.871 270.219 215.871C270.885 215.871 271.466 216.006 271.961 216.277C272.461 216.548 272.846 216.941 273.117 217.457C273.393 217.972 273.531 218.597 273.531 219.332C273.531 220.118 273.385 220.798 273.094 221.371C272.802 221.944 272.385 222.386 271.844 222.699C271.307 223.006 270.667 223.16 269.922 223.16C269.365 223.16 268.852 223.053 268.383 222.84C267.914 222.626 267.505 222.308 267.156 221.886C266.812 221.465 266.544 220.941 266.352 220.316C266.159 219.686 266.062 218.954 266.062 218.121ZM269.906 222.066C270.615 222.066 271.182 221.84 271.609 221.386C272.036 220.933 272.25 220.248 272.25 219.332C272.25 218.582 272.06 217.988 271.68 217.551C271.299 217.113 270.727 216.894 269.961 216.894C269.44 216.894 268.987 217.004 268.602 217.222C268.216 217.436 267.917 217.707 267.703 218.035C267.49 218.363 267.383 218.696 267.383 219.035C267.383 219.379 267.432 219.728 267.531 220.082C267.635 220.436 267.792 220.764 268 221.066C268.208 221.368 268.471 221.61 268.789 221.793C269.107 221.975 269.479 222.066 269.906 222.066ZM275.484 222.191C275.484 221.827 275.573 221.569 275.75 221.418C275.927 221.261 276.143 221.183 276.398 221.183C276.664 221.183 276.888 221.261 277.07 221.418C277.253 221.569 277.344 221.827 277.344 222.191C277.344 222.551 277.253 222.814 277.07 222.98C276.888 223.142 276.664 223.222 276.398 223.222C276.143 223.222 275.927 223.142 275.75 222.98C275.573 222.814 275.484 222.551 275.484 222.191ZM275.484 215.261C275.484 214.886 275.573 214.623 275.75 214.472C275.927 214.316 276.143 214.238 276.398 214.238C276.664 214.238 276.888 214.316 277.07 214.472C277.253 214.623 277.344 214.886 277.344 215.261C277.344 215.616 277.253 215.873 277.07 216.035C276.888 216.196 276.664 216.277 276.398 216.277C276.143 216.277 275.927 216.196 275.75 216.035C275.573 215.873 275.484 215.616 275.484 215.261ZM286.852 217.277C286.852 218.204 286.781 219.032 286.641 219.761C286.5 220.491 286.279 221.108 285.977 221.613C285.674 222.118 285.284 222.504 284.805 222.769C284.326 223.03 283.75 223.16 283.078 223.16C282.229 223.16 281.526 222.928 280.969 222.465C280.417 222.001 280.003 221.332 279.727 220.457C279.456 219.577 279.32 218.517 279.32 217.277C279.32 216.058 279.443 215.011 279.688 214.136C279.938 213.256 280.339 212.582 280.891 212.113C281.443 211.639 282.172 211.402 283.078 211.402C283.938 211.402 284.646 211.636 285.203 212.105C285.76 212.569 286.174 213.241 286.445 214.121C286.716 214.996 286.852 216.048 286.852 217.277ZM280.625 217.277C280.625 218.34 280.706 219.225 280.867 219.933C281.029 220.642 281.289 221.173 281.648 221.527C282.013 221.876 282.49 222.051 283.078 222.051C283.667 222.051 284.141 221.876 284.5 221.527C284.865 221.178 285.128 220.649 285.289 219.941C285.456 219.233 285.539 218.345 285.539 217.277C285.539 216.23 285.458 215.355 285.297 214.652C285.135 213.944 284.875 213.413 284.516 213.058C284.156 212.699 283.677 212.519 283.078 212.519C282.479 212.519 282 212.699 281.641 213.058C281.281 213.413 281.021 213.944 280.859 214.652C280.703 215.355 280.625 216.23 280.625 217.277ZM296.008 217.277C296.008 218.204 295.938 219.032 295.797 219.761C295.656 220.491 295.435 221.108 295.133 221.613C294.831 222.118 294.44 222.504 293.961 222.769C293.482 223.03 292.906 223.16 292.234 223.16C291.385 223.16 290.682 222.928 290.125 222.465C289.573 222.001 289.159 221.332 288.883 220.457C288.612 219.577 288.477 218.517 288.477 217.277C288.477 216.058 288.599 215.011 288.844 214.136C289.094 213.256 289.495 212.582 290.047 212.113C290.599 211.639 291.328 211.402 292.234 211.402C293.094 211.402 293.802 211.636 294.359 212.105C294.917 212.569 295.331 213.241 295.602 214.121C295.872 214.996 296.008 216.048 296.008 217.277ZM289.781 217.277C289.781 218.34 289.862 219.225 290.023 219.933C290.185 220.642 290.445 221.173 290.805 221.527C291.169 221.876 291.646 222.051 292.234 222.051C292.823 222.051 293.297 221.876 293.656 221.527C294.021 221.178 294.284 220.649 294.445 219.941C294.612 219.233 294.695 218.345 294.695 217.277C294.695 216.23 294.615 215.355 294.453 214.652C294.292 213.944 294.031 213.413 293.672 213.058C293.312 212.699 292.833 212.519 292.234 212.519C291.635 212.519 291.156 212.699 290.797 213.058C290.438 213.413 290.177 213.944 290.016 214.652C289.859 215.355 289.781 216.23 289.781 217.277ZM303.648 210.847V214.48C303.648 214.689 303.643 214.899 303.633 215.113C303.622 215.321 303.604 215.514 303.578 215.691H303.664C303.841 215.389 304.065 215.136 304.336 214.933C304.612 214.725 304.924 214.569 305.273 214.465C305.622 214.355 305.992 214.301 306.383 214.301C307.07 214.301 307.643 214.41 308.102 214.629C308.565 214.847 308.911 215.186 309.141 215.644C309.375 216.103 309.492 216.696 309.492 217.426V223.004H308.211V217.511C308.211 216.798 308.047 216.264 307.719 215.91C307.396 215.556 306.898 215.379 306.227 215.379C305.591 215.379 305.083 215.501 304.703 215.746C304.328 215.985 304.057 216.34 303.891 216.808C303.729 217.277 303.648 217.85 303.648 218.527V223.004H302.352V210.847H303.648ZM317.703 220.66C317.703 221.207 317.565 221.668 317.289 222.043C317.018 222.413 316.628 222.691 316.117 222.879C315.612 223.066 315.008 223.16 314.305 223.16C313.706 223.16 313.188 223.113 312.75 223.019C312.312 222.926 311.93 222.793 311.602 222.621V221.426C311.951 221.597 312.367 221.754 312.852 221.894C313.336 222.035 313.831 222.105 314.336 222.105C315.076 222.105 315.612 221.985 315.945 221.746C316.279 221.506 316.445 221.181 316.445 220.769C316.445 220.535 316.378 220.329 316.242 220.152C316.112 219.97 315.891 219.795 315.578 219.629C315.266 219.457 314.833 219.269 314.281 219.066C313.734 218.858 313.26 218.652 312.859 218.449C312.464 218.241 312.156 217.988 311.938 217.691C311.724 217.394 311.617 217.009 311.617 216.535C311.617 215.811 311.909 215.256 312.492 214.871C313.081 214.48 313.852 214.285 314.805 214.285C315.32 214.285 315.802 214.337 316.25 214.441C316.703 214.54 317.125 214.676 317.516 214.847L317.078 215.886C316.724 215.735 316.346 215.608 315.945 215.504C315.544 215.399 315.135 215.347 314.719 215.347C314.12 215.347 313.659 215.446 313.336 215.644C313.018 215.842 312.859 216.113 312.859 216.457C312.859 216.722 312.932 216.941 313.078 217.113C313.229 217.285 313.469 217.446 313.797 217.597C314.125 217.748 314.557 217.926 315.094 218.129C315.63 218.327 316.094 218.532 316.484 218.746C316.875 218.954 317.174 219.209 317.383 219.511C317.596 219.808 317.703 220.191 317.703 220.66Z" fill="#101E37"/>
</g>
<rect x="1" y="1.00366" width="726" height="276" rx="7" stroke="#E6EBF0" stroke-width="2"/>
<defs>
<clipPath id="clip0_3307_1807">
<rect y="0.00366211" width="728" height="278" rx="8" fill="white"/>
</clipPath>
</defs>
</svg>
