<svg width="728" height="399" viewBox="0 0 728 399" fill="none" xmlns="http://www.w3.org/2000/svg">
<rect x="1" y="1.28564" width="726" height="396" rx="7" fill="#F3F6F9"/>
<rect x="1" y="1.28564" width="726" height="396" rx="7" stroke="#E6EBF0" stroke-width="2"/>
<g clip-path="url(#clip0_1133_11320)">
<mask id="path-4-inside-1_1133_11320" fill="white">
<path d="M48 56.2856C48 51.8674 51.5817 48.2856 56 48.2856H672C676.418 48.2856 680 51.8674 680 56.2856V97.2856H48V56.2856Z"/>
</mask>
<path d="M48 56.2856C48 51.8674 51.5817 48.2856 56 48.2856H672C676.418 48.2856 680 51.8674 680 56.2856V97.2856H48V56.2856Z" fill="white"/>
<path d="M48 48.2856H680H48ZM680 99.7357H48V94.8356H680V99.7357ZM48 97.2856V48.2856V97.2856ZM680 48.2856V97.2856V48.2856Z" fill="#FFCC00" mask="url(#path-4-inside-1_1133_11320)"/>
<g clip-path="url(#clip1_1133_11320)">
<path d="M135.807 79.9475L127.841 64.4475C127.154 63.0716 125.747 62.1299 124.112 62.1299H124.109C122.476 62.1299 121.067 63.0716 120.38 64.4475L114.772 75.3578C114.146 74.2356 113.148 73.3554 111.943 72.8795C113.288 71.9001 114.164 70.3041 114.164 68.5039C114.164 66.4163 112.987 64.6101 111.266 63.714C109.75 62.911 108.019 62.457 106.184 62.457H97.7973C96.0726 62.457 94.6787 63.8607 94.6787 65.5935V81.3116C94.6787 83.0443 96.0726 84.448 97.7973 84.448H106.868C108.616 84.448 110.28 84.0832 111.79 83.4329L112.365 83.1534C112.396 83.1375 112.428 83.1217 112.459 83.1058C113.004 84.0158 113.991 84.6284 115.127 84.6284C116.389 84.6284 117.476 83.8751 117.966 82.7866C118.21 82.2117 118.761 81.8052 119.411 81.7735H128.808C129.46 81.8052 130.009 82.2117 130.253 82.7866C130.741 83.8751 131.83 84.6284 133.092 84.6284C134.815 84.6284 136.209 83.2208 136.209 81.494C136.209 80.9309 136.065 80.4035 135.805 79.9495" fill="#153244"/>
</g>
<rect x="549.25" y="65.5908" width="71.816" height="15.5746" rx="7.78728" fill="#E6EBF0"/>
<rect width="632" height="81.844" transform="translate(48 97.2859)" fill="#F3F6F9"/>
<rect x="90" y="113.286" width="138.44" height="12" rx="6" fill="#8A97A8"/>
<rect x="90" y="135.669" width="343.505" height="12" rx="6" fill="#D1D8E0"/>
<rect x="90" y="151.13" width="286" height="12" rx="6" fill="#D1D8E0"/>
<rect width="632" height="119.188" transform="translate(48 179.13)" fill="white"/>
<rect x="93.2893" y="195.995" width="171.32" height="85.4576" rx="6.05677" fill="white"/>
<rect x="93.2893" y="195.995" width="171.32" height="85.4576" rx="6.05677" stroke="#E6EBF0" stroke-width="1.73051"/>
<rect x="102.807" y="205.513" width="31.8119" height="31.8119" rx="3.97648" fill="#ADC3EB"/>
<rect x="102.807" y="247.708" width="68.3458" height="10.383" rx="5.19152" fill="#B8C1CC"/>
<rect x="102.807" y="261.552" width="140.171" height="10.383" rx="5.19152" fill="#D1D8E0"/>
<rect x="278.34" y="195.995" width="171.32" height="85.4576" rx="6.05677" fill="white"/>
<rect x="278.34" y="195.995" width="171.32" height="85.4576" rx="6.05677" stroke="#E6EBF0" stroke-width="1.73051"/>
<rect x="287.858" y="205.513" width="31.8119" height="31.8119" rx="3.97648" fill="#ADC3EB"/>
<rect x="287.858" y="247.708" width="68.3458" height="10.383" rx="5.19152" fill="#B8C1CC"/>
<rect x="287.858" y="261.552" width="140.171" height="10.383" rx="5.19152" fill="#D1D8E0"/>
<rect x="463.391" y="195.995" width="171.32" height="85.4576" rx="6.05677" fill="white"/>
<rect x="463.391" y="195.995" width="171.32" height="85.4576" rx="6.05677" stroke="#E6EBF0" stroke-width="1.73051"/>
<rect x="472.908" y="205.513" width="31.8119" height="31.8119" rx="3.97648" fill="#ADC3EB"/>
<rect x="472.908" y="247.708" width="68.3458" height="10.383" rx="5.19152" fill="#B8C1CC"/>
<rect x="472.908" y="261.552" width="140.171" height="10.383" rx="5.19152" fill="#D1D8E0"/>
<mask id="path-23-inside-2_1133_11320" fill="white">
<path d="M48 298.318H680V382.006C680 386.424 676.418 390.006 672 390.006H56C51.5817 390.006 48 386.424 48 382.006V298.318Z"/>
</mask>
<path d="M48 298.318H680V382.006C680 386.424 676.418 390.006 672 390.006H56C51.5817 390.006 48 386.424 48 382.006V298.318Z" fill="white"/>
<path d="M48 297.318H680V299.318H48V297.318ZM680 390.006H48H680ZM48 390.006V298.318V390.006ZM680 298.318V390.006V298.318Z" fill="#E6EBF0" mask="url(#path-23-inside-2_1133_11320)"/>
<rect x="90" y="314.318" width="138.44" height="10" rx="5" fill="#B8C1CC"/>
<rect x="90" y="332.318" width="343.505" height="10" rx="5" fill="#D1D8E0"/>
<rect x="90" y="345.779" width="312" height="10" rx="5" fill="#D1D8E0"/>
</g>
<rect x="47" y="47.2856" width="634" height="304" rx="9" stroke="#B8C1CC" stroke-width="2"/>
<defs>
<clipPath id="clip0_1133_11320">
<rect x="48" y="48.2856" width="632" height="302" rx="8" fill="white"/>
</clipPath>
<clipPath id="clip1_1133_11320">
<rect width="41.5321" height="22.4966" fill="white" transform="translate(94.6787 62.1299)"/>
</clipPath>
</defs>
</svg>
