<svg width="728" height="579" viewBox="0 0 728 579" fill="none" xmlns="http://www.w3.org/2000/svg">
<rect x="1" y="1.95068" width="726" height="576" rx="7" fill="#F3F6F9"/>
<rect x="1" y="1.95068" width="726" height="576" rx="7" stroke="#E6EBF0" stroke-width="2"/>
<rect x="47.5" y="107.951" width="220" height="364" rx="10" fill="white"/>
<rect x="47.5" y="107.951" width="220" height="364" rx="10" stroke="#333333" stroke-width="4"/>
<rect x="58.5" y="124.333" width="198" height="99.7447" rx="7" fill="white"/>
<rect x="58.5" y="124.333" width="198" height="99.7447" rx="7" stroke="#E6EBF0" stroke-width="2"/>
<rect x="69.5" y="135.333" width="36.766" height="36.766" rx="4.59574" fill="#CCF3FF"/>
<rect x="69.5" y="186.1" width="78.9894" height="11.4894" rx="5.74468" fill="#B8C1CC"/>
<rect x="69.5" y="201.589" width="176" height="11.4894" rx="5.74468" fill="#D1D8E0"/>
<rect x="58.5" y="239.078" width="198" height="101.745" rx="7" fill="white"/>
<rect x="58.5" y="239.078" width="198" height="101.745" rx="7" stroke="#E6EBF0" stroke-width="2"/>
<rect x="69.5" y="250.078" width="36.766" height="36.766" rx="4.59574" fill="#E2F8F5"/>
<rect x="69.5" y="302.844" width="78.9894" height="11.4894" rx="5.74468" fill="#B8C1CC"/>
<rect x="69.5" y="318.333" width="176" height="11.4894" rx="5.74468" fill="#D1D8E0"/>
<rect x="58.5" y="355.823" width="198" height="99.7447" rx="7" fill="white"/>
<rect x="58.5" y="355.823" width="198" height="99.7447" rx="7" stroke="#E6EBF0" stroke-width="2"/>
<rect x="69.5" y="366.823" width="36.766" height="36.766" rx="4.59574" fill="#CCF3FF"/>
<rect x="69.5" y="417.589" width="78.9894" height="11.4894" rx="5.74468" fill="#B8C1CC"/>
<rect x="69.5" y="433.079" width="176" height="11.4894" rx="5.74468" fill="#D1D8E0"/>
<rect x="250" y="342" width="13.1372" height="188" transform="rotate(90 250 342)" fill="#F7E5FF"/>
<mask id="mask0_1109_5849" style="mask-type:alpha" maskUnits="userSpaceOnUse" x="62" y="342" width="188" height="14">
<rect x="250" y="342" width="13.1372" height="188" transform="rotate(90 250 342)" fill="#F7E5FF"/>
</mask>
<g mask="url(#mask0_1109_5849)">
<line y1="-0.25" x2="44.4284" y2="-0.25" transform="matrix(-0.473264 -0.880921 0.473264 -0.880921 264.842 364.716)" stroke="#C433FF" stroke-width="0.5"/>
<line y1="-0.25" x2="44.4284" y2="-0.25" transform="matrix(-0.473264 -0.880921 0.473264 -0.880921 241.188 364.716)" stroke="#C433FF" stroke-width="0.5"/>
<line y1="-0.25" x2="44.4284" y2="-0.25" transform="matrix(-0.473264 -0.880921 0.473264 -0.880921 209.649 364.716)" stroke="#C433FF" stroke-width="0.5"/>
<line y1="-0.25" x2="44.4284" y2="-0.25" transform="matrix(-0.473264 -0.880921 0.473264 -0.880921 205.705 364.716)" stroke="#C433FF" stroke-width="0.5"/>
<line y1="-0.25" x2="44.4284" y2="-0.25" transform="matrix(-0.473264 -0.880921 0.473264 -0.880921 225.417 364.716)" stroke="#C433FF" stroke-width="0.5"/>
<line y1="-0.25" x2="44.4284" y2="-0.25" transform="matrix(-0.473264 -0.880921 0.473264 -0.880921 237.245 364.716)" stroke="#C433FF" stroke-width="0.5"/>
<line y1="-0.25" x2="44.4284" y2="-0.25" transform="matrix(-0.473264 -0.880921 0.473264 -0.880921 260.9 364.716)" stroke="#C433FF" stroke-width="0.5"/>
<line y1="-0.25" x2="44.4284" y2="-0.25" transform="matrix(-0.473264 -0.880921 0.473264 -0.880921 213.591 364.716)" stroke="#C433FF" stroke-width="0.5"/>
<line y1="-0.25" x2="44.4284" y2="-0.25" transform="matrix(-0.473264 -0.880921 0.473264 -0.880921 217.533 364.716)" stroke="#C433FF" stroke-width="0.5"/>
<line y1="-0.25" x2="44.4284" y2="-0.25" transform="matrix(-0.473264 -0.880921 0.473264 -0.880921 256.958 364.716)" stroke="#C433FF" stroke-width="0.5"/>
<line y1="-0.25" x2="44.4284" y2="-0.25" transform="matrix(-0.473264 -0.880921 0.473264 -0.880921 249.073 364.716)" stroke="#C433FF" stroke-width="0.5"/>
<line y1="-0.25" x2="44.4284" y2="-0.25" transform="matrix(-0.473264 -0.880921 0.473264 -0.880921 233.303 364.716)" stroke="#C433FF" stroke-width="0.5"/>
<line y1="-0.25" x2="44.4284" y2="-0.25" transform="matrix(-0.473264 -0.880921 0.473264 -0.880921 221.475 364.716)" stroke="#C433FF" stroke-width="0.5"/>
<line y1="-0.25" x2="44.4284" y2="-0.25" transform="matrix(-0.473264 -0.880921 0.473264 -0.880921 245.13 364.716)" stroke="#C433FF" stroke-width="0.5"/>
<line y1="-0.25" x2="44.4284" y2="-0.25" transform="matrix(-0.473264 -0.880921 0.473264 -0.880921 229.361 364.716)" stroke="#C433FF" stroke-width="0.5"/>
<line y1="-0.25" x2="44.4284" y2="-0.25" transform="matrix(-0.473264 -0.880921 0.473264 -0.880921 201.763 364.716)" stroke="#C433FF" stroke-width="0.5"/>
<line y1="-0.25" x2="44.4284" y2="-0.25" transform="matrix(-0.473264 -0.880921 0.473264 -0.880921 253.015 364.716)" stroke="#C433FF" stroke-width="0.5"/>
<line y1="-0.25" x2="44.4284" y2="-0.25" transform="matrix(-0.473264 -0.880921 0.473264 -0.880921 197.558 364.716)" stroke="#C433FF" stroke-width="0.5"/>
<line y1="-0.25" x2="44.4284" y2="-0.25" transform="matrix(-0.473264 -0.880921 0.473264 -0.880921 158.133 364.716)" stroke="#C433FF" stroke-width="0.5"/>
<line y1="-0.25" x2="44.4284" y2="-0.25" transform="matrix(-0.473264 -0.880921 0.473264 -0.880921 185.731 364.716)" stroke="#C433FF" stroke-width="0.5"/>
<line y1="-0.25" x2="44.4284" y2="-0.25" transform="matrix(-0.473264 -0.880921 0.473264 -0.880921 142.364 364.716)" stroke="#C433FF" stroke-width="0.5"/>
<line y1="-0.25" x2="44.4284" y2="-0.25" transform="matrix(-0.473264 -0.880921 0.473264 -0.880921 193.616 364.716)" stroke="#C433FF" stroke-width="0.5"/>
<line y1="-0.25" x2="44.4284" y2="-0.25" transform="matrix(-0.473264 -0.880921 0.473264 -0.880921 150.249 364.716)" stroke="#C433FF" stroke-width="0.5"/>
<line y1="-0.25" x2="44.4284" y2="-0.25" transform="matrix(-0.473264 -0.880921 0.473264 -0.880921 181.789 364.716)" stroke="#C433FF" stroke-width="0.5"/>
<line y1="-0.25" x2="44.4284" y2="-0.25" transform="matrix(-0.473264 -0.880921 0.473264 -0.880921 154.191 364.716)" stroke="#C433FF" stroke-width="0.5"/>
<line y1="-0.25" x2="44.4284" y2="-0.25" transform="matrix(-0.473264 -0.880921 0.473264 -0.880921 177.845 364.716)" stroke="#C433FF" stroke-width="0.5"/>
<line y1="-0.25" x2="44.4284" y2="-0.25" transform="matrix(-0.473264 -0.880921 0.473264 -0.880921 134.479 364.716)" stroke="#C433FF" stroke-width="0.5"/>
<line y1="-0.25" x2="44.4284" y2="-0.25" transform="matrix(-0.473264 -0.880921 0.473264 -0.880921 173.903 364.716)" stroke="#C433FF" stroke-width="0.5"/>
<line y1="-0.25" x2="44.4284" y2="-0.25" transform="matrix(-0.473264 -0.880921 0.473264 -0.880921 146.307 364.716)" stroke="#C433FF" stroke-width="0.5"/>
<line y1="-0.25" x2="44.4284" y2="-0.25" transform="matrix(-0.473264 -0.880921 0.473264 -0.880921 169.961 364.716)" stroke="#C433FF" stroke-width="0.5"/>
<line y1="-0.25" x2="44.4284" y2="-0.25" transform="matrix(-0.473264 -0.880921 0.473264 -0.880921 166.019 364.716)" stroke="#C433FF" stroke-width="0.5"/>
<line y1="-0.25" x2="44.4284" y2="-0.25" transform="matrix(-0.473264 -0.880921 0.473264 -0.880921 138.421 364.716)" stroke="#C433FF" stroke-width="0.5"/>
<line y1="-0.25" x2="44.4284" y2="-0.25" transform="matrix(-0.473264 -0.880921 0.473264 -0.880921 162.076 364.716)" stroke="#C433FF" stroke-width="0.5"/>
<line y1="-0.25" x2="44.4284" y2="-0.25" transform="matrix(-0.473264 -0.880921 0.473264 -0.880921 189.673 364.716)" stroke="#C433FF" stroke-width="0.5"/>
<line y1="-0.25" x2="44.4284" y2="-0.25" transform="matrix(-0.473264 -0.880921 0.473264 -0.880921 130.274 364.716)" stroke="#C433FF" stroke-width="0.5"/>
<line y1="-0.25" x2="44.4284" y2="-0.25" transform="matrix(-0.473264 -0.880921 0.473264 -0.880921 126.332 364.716)" stroke="#C433FF" stroke-width="0.5"/>
<line y1="-0.25" x2="44.4284" y2="-0.25" transform="matrix(-0.473264 -0.880921 0.473264 -0.880921 122.389 364.716)" stroke="#C433FF" stroke-width="0.5"/>
<line y1="-0.25" x2="44.4284" y2="-0.25" transform="matrix(-0.473264 -0.880921 0.473264 -0.880921 118.447 364.716)" stroke="#C433FF" stroke-width="0.5"/>
<line y1="-0.25" x2="44.4284" y2="-0.25" transform="matrix(-0.473264 -0.880921 0.473264 -0.880921 114.504 364.716)" stroke="#C433FF" stroke-width="0.5"/>
<line y1="-0.25" x2="44.4284" y2="-0.25" transform="matrix(-0.473264 -0.880921 0.473264 -0.880921 110.561 364.716)" stroke="#C433FF" stroke-width="0.5"/>
<line y1="-0.25" x2="44.4284" y2="-0.25" transform="matrix(-0.473264 -0.880921 0.473264 -0.880921 106.619 364.716)" stroke="#C433FF" stroke-width="0.5"/>
<line y1="-0.25" x2="44.4284" y2="-0.25" transform="matrix(-0.473264 -0.880921 0.473264 -0.880921 102.677 364.716)" stroke="#C433FF" stroke-width="0.5"/>
<line y1="-0.25" x2="44.4284" y2="-0.25" transform="matrix(-0.473264 -0.880921 0.473264 -0.880921 98.7345 364.716)" stroke="#C433FF" stroke-width="0.5"/>
<line y1="-0.25" x2="44.4284" y2="-0.25" transform="matrix(-0.473264 -0.880921 0.473264 -0.880921 94.7922 364.716)" stroke="#C433FF" stroke-width="0.5"/>
<line y1="-0.25" x2="44.4284" y2="-0.25" transform="matrix(-0.473264 -0.880921 0.473264 -0.880921 90.8491 364.716)" stroke="#C433FF" stroke-width="0.5"/>
<line y1="-0.25" x2="44.4284" y2="-0.25" transform="matrix(-0.473264 -0.880921 0.473264 -0.880921 86.9069 364.716)" stroke="#C433FF" stroke-width="0.5"/>
<line y1="-0.25" x2="44.4284" y2="-0.25" transform="matrix(-0.473264 -0.880921 0.473264 -0.880921 82.9647 364.716)" stroke="#C433FF" stroke-width="0.5"/>
<line y1="-0.25" x2="44.4284" y2="-0.25" transform="matrix(-0.473264 -0.880921 0.473264 -0.880921 79.0222 364.716)" stroke="#C433FF" stroke-width="0.5"/>
<line y1="-0.25" x2="44.4284" y2="-0.25" transform="matrix(-0.473264 -0.880921 0.473264 -0.880921 75.0801 364.716)" stroke="#C433FF" stroke-width="0.5"/>
<line y1="-0.25" x2="44.4284" y2="-0.25" transform="matrix(-0.473264 -0.880921 0.473264 -0.880921 71.137 364.716)" stroke="#C433FF" stroke-width="0.5"/>
<line y1="-0.25" x2="44.4284" y2="-0.25" transform="matrix(-0.473264 -0.880921 0.473264 -0.880921 67.1947 364.716)" stroke="#C433FF" stroke-width="0.5"/>
</g>
<line x1="256.5" y1="342.637" x2="245.5" y2="342.637" stroke="#C433FF" stroke-linecap="round"/>
<line x1="250.5" y1="354.774" x2="250.5" y2="342.637" stroke="#C433FF" stroke-linecap="round"/>
<line x1="256.5" y1="354.953" x2="245.5" y2="354.953" stroke="#C433FF" stroke-linecap="round"/>
<line x1="68.5" y1="342.5" x2="57.5" y2="342.5" stroke="#C433FF" stroke-linecap="round"/>
<line x1="62.5" y1="354.637" x2="62.5" y2="342.5" stroke="#C433FF" stroke-linecap="round"/>
<line x1="68.5" y1="354.816" x2="57.5" y2="354.816" stroke="#C433FF" stroke-linecap="round"/>
<rect x="251" y="225" width="13.1372" height="188" transform="rotate(90 251 225)" fill="#F7E5FF"/>
<mask id="mask1_1109_5849" style="mask-type:alpha" maskUnits="userSpaceOnUse" x="63" y="225" width="188" height="14">
<rect x="251" y="225" width="13.1372" height="188" transform="rotate(90 251 225)" fill="#F7E5FF"/>
</mask>
<g mask="url(#mask1_1109_5849)">
<line y1="-0.25" x2="44.4284" y2="-0.25" transform="matrix(-0.473264 -0.880921 0.473264 -0.880921 265.842 247.716)" stroke="#C433FF" stroke-width="0.5"/>
<line y1="-0.25" x2="44.4284" y2="-0.25" transform="matrix(-0.473264 -0.880921 0.473264 -0.880921 242.188 247.716)" stroke="#C433FF" stroke-width="0.5"/>
<line y1="-0.25" x2="44.4284" y2="-0.25" transform="matrix(-0.473264 -0.880921 0.473264 -0.880921 210.649 247.716)" stroke="#C433FF" stroke-width="0.5"/>
<line y1="-0.25" x2="44.4284" y2="-0.25" transform="matrix(-0.473264 -0.880921 0.473264 -0.880921 206.705 247.716)" stroke="#C433FF" stroke-width="0.5"/>
<line y1="-0.25" x2="44.4284" y2="-0.25" transform="matrix(-0.473264 -0.880921 0.473264 -0.880921 226.417 247.716)" stroke="#C433FF" stroke-width="0.5"/>
<line y1="-0.25" x2="44.4284" y2="-0.25" transform="matrix(-0.473264 -0.880921 0.473264 -0.880921 238.245 247.716)" stroke="#C433FF" stroke-width="0.5"/>
<line y1="-0.25" x2="44.4284" y2="-0.25" transform="matrix(-0.473264 -0.880921 0.473264 -0.880921 261.9 247.716)" stroke="#C433FF" stroke-width="0.5"/>
<line y1="-0.25" x2="44.4284" y2="-0.25" transform="matrix(-0.473264 -0.880921 0.473264 -0.880921 214.591 247.716)" stroke="#C433FF" stroke-width="0.5"/>
<line y1="-0.25" x2="44.4284" y2="-0.25" transform="matrix(-0.473264 -0.880921 0.473264 -0.880921 218.533 247.716)" stroke="#C433FF" stroke-width="0.5"/>
<line y1="-0.25" x2="44.4284" y2="-0.25" transform="matrix(-0.473264 -0.880921 0.473264 -0.880921 257.958 247.716)" stroke="#C433FF" stroke-width="0.5"/>
<line y1="-0.25" x2="44.4284" y2="-0.25" transform="matrix(-0.473264 -0.880921 0.473264 -0.880921 250.073 247.716)" stroke="#C433FF" stroke-width="0.5"/>
<line y1="-0.25" x2="44.4284" y2="-0.25" transform="matrix(-0.473264 -0.880921 0.473264 -0.880921 234.303 247.716)" stroke="#C433FF" stroke-width="0.5"/>
<line y1="-0.25" x2="44.4284" y2="-0.25" transform="matrix(-0.473264 -0.880921 0.473264 -0.880921 222.475 247.716)" stroke="#C433FF" stroke-width="0.5"/>
<line y1="-0.25" x2="44.4284" y2="-0.25" transform="matrix(-0.473264 -0.880921 0.473264 -0.880921 246.13 247.716)" stroke="#C433FF" stroke-width="0.5"/>
<line y1="-0.25" x2="44.4284" y2="-0.25" transform="matrix(-0.473264 -0.880921 0.473264 -0.880921 230.361 247.716)" stroke="#C433FF" stroke-width="0.5"/>
<line y1="-0.25" x2="44.4284" y2="-0.25" transform="matrix(-0.473264 -0.880921 0.473264 -0.880921 202.763 247.716)" stroke="#C433FF" stroke-width="0.5"/>
<line y1="-0.25" x2="44.4284" y2="-0.25" transform="matrix(-0.473264 -0.880921 0.473264 -0.880921 254.015 247.716)" stroke="#C433FF" stroke-width="0.5"/>
<line y1="-0.25" x2="44.4284" y2="-0.25" transform="matrix(-0.473264 -0.880921 0.473264 -0.880921 198.558 247.716)" stroke="#C433FF" stroke-width="0.5"/>
<line y1="-0.25" x2="44.4284" y2="-0.25" transform="matrix(-0.473264 -0.880921 0.473264 -0.880921 159.133 247.716)" stroke="#C433FF" stroke-width="0.5"/>
<line y1="-0.25" x2="44.4284" y2="-0.25" transform="matrix(-0.473264 -0.880921 0.473264 -0.880921 186.731 247.716)" stroke="#C433FF" stroke-width="0.5"/>
<line y1="-0.25" x2="44.4284" y2="-0.25" transform="matrix(-0.473264 -0.880921 0.473264 -0.880921 143.364 247.716)" stroke="#C433FF" stroke-width="0.5"/>
<line y1="-0.25" x2="44.4284" y2="-0.25" transform="matrix(-0.473264 -0.880921 0.473264 -0.880921 194.616 247.716)" stroke="#C433FF" stroke-width="0.5"/>
<line y1="-0.25" x2="44.4284" y2="-0.25" transform="matrix(-0.473264 -0.880921 0.473264 -0.880921 151.249 247.716)" stroke="#C433FF" stroke-width="0.5"/>
<line y1="-0.25" x2="44.4284" y2="-0.25" transform="matrix(-0.473264 -0.880921 0.473264 -0.880921 182.789 247.716)" stroke="#C433FF" stroke-width="0.5"/>
<line y1="-0.25" x2="44.4284" y2="-0.25" transform="matrix(-0.473264 -0.880921 0.473264 -0.880921 155.191 247.716)" stroke="#C433FF" stroke-width="0.5"/>
<line y1="-0.25" x2="44.4284" y2="-0.25" transform="matrix(-0.473264 -0.880921 0.473264 -0.880921 178.845 247.716)" stroke="#C433FF" stroke-width="0.5"/>
<line y1="-0.25" x2="44.4284" y2="-0.25" transform="matrix(-0.473264 -0.880921 0.473264 -0.880921 135.479 247.716)" stroke="#C433FF" stroke-width="0.5"/>
<line y1="-0.25" x2="44.4284" y2="-0.25" transform="matrix(-0.473264 -0.880921 0.473264 -0.880921 174.903 247.716)" stroke="#C433FF" stroke-width="0.5"/>
<line y1="-0.25" x2="44.4284" y2="-0.25" transform="matrix(-0.473264 -0.880921 0.473264 -0.880921 147.307 247.716)" stroke="#C433FF" stroke-width="0.5"/>
<line y1="-0.25" x2="44.4284" y2="-0.25" transform="matrix(-0.473264 -0.880921 0.473264 -0.880921 170.961 247.716)" stroke="#C433FF" stroke-width="0.5"/>
<line y1="-0.25" x2="44.4284" y2="-0.25" transform="matrix(-0.473264 -0.880921 0.473264 -0.880921 167.019 247.716)" stroke="#C433FF" stroke-width="0.5"/>
<line y1="-0.25" x2="44.4284" y2="-0.25" transform="matrix(-0.473264 -0.880921 0.473264 -0.880921 139.421 247.716)" stroke="#C433FF" stroke-width="0.5"/>
<line y1="-0.25" x2="44.4284" y2="-0.25" transform="matrix(-0.473264 -0.880921 0.473264 -0.880921 163.076 247.716)" stroke="#C433FF" stroke-width="0.5"/>
<line y1="-0.25" x2="44.4284" y2="-0.25" transform="matrix(-0.473264 -0.880921 0.473264 -0.880921 190.673 247.716)" stroke="#C433FF" stroke-width="0.5"/>
<line y1="-0.25" x2="44.4284" y2="-0.25" transform="matrix(-0.473264 -0.880921 0.473264 -0.880921 131.274 247.716)" stroke="#C433FF" stroke-width="0.5"/>
<line y1="-0.25" x2="44.4284" y2="-0.25" transform="matrix(-0.473264 -0.880921 0.473264 -0.880921 127.332 247.716)" stroke="#C433FF" stroke-width="0.5"/>
<line y1="-0.25" x2="44.4284" y2="-0.25" transform="matrix(-0.473264 -0.880921 0.473264 -0.880921 123.389 247.716)" stroke="#C433FF" stroke-width="0.5"/>
<line y1="-0.25" x2="44.4284" y2="-0.25" transform="matrix(-0.473264 -0.880921 0.473264 -0.880921 119.447 247.716)" stroke="#C433FF" stroke-width="0.5"/>
<line y1="-0.25" x2="44.4284" y2="-0.25" transform="matrix(-0.473264 -0.880921 0.473264 -0.880921 115.504 247.716)" stroke="#C433FF" stroke-width="0.5"/>
<line y1="-0.25" x2="44.4284" y2="-0.25" transform="matrix(-0.473264 -0.880921 0.473264 -0.880921 111.561 247.716)" stroke="#C433FF" stroke-width="0.5"/>
<line y1="-0.25" x2="44.4284" y2="-0.25" transform="matrix(-0.473264 -0.880921 0.473264 -0.880921 107.619 247.716)" stroke="#C433FF" stroke-width="0.5"/>
<line y1="-0.25" x2="44.4284" y2="-0.25" transform="matrix(-0.473264 -0.880921 0.473264 -0.880921 103.677 247.716)" stroke="#C433FF" stroke-width="0.5"/>
<line y1="-0.25" x2="44.4284" y2="-0.25" transform="matrix(-0.473264 -0.880921 0.473264 -0.880921 99.7345 247.716)" stroke="#C433FF" stroke-width="0.5"/>
<line y1="-0.25" x2="44.4284" y2="-0.25" transform="matrix(-0.473264 -0.880921 0.473264 -0.880921 95.7922 247.716)" stroke="#C433FF" stroke-width="0.5"/>
<line y1="-0.25" x2="44.4284" y2="-0.25" transform="matrix(-0.473264 -0.880921 0.473264 -0.880921 91.8491 247.716)" stroke="#C433FF" stroke-width="0.5"/>
<line y1="-0.25" x2="44.4284" y2="-0.25" transform="matrix(-0.473264 -0.880921 0.473264 -0.880921 87.9069 247.716)" stroke="#C433FF" stroke-width="0.5"/>
<line y1="-0.25" x2="44.4284" y2="-0.25" transform="matrix(-0.473264 -0.880921 0.473264 -0.880921 83.9647 247.716)" stroke="#C433FF" stroke-width="0.5"/>
<line y1="-0.25" x2="44.4284" y2="-0.25" transform="matrix(-0.473264 -0.880921 0.473264 -0.880921 80.0222 247.716)" stroke="#C433FF" stroke-width="0.5"/>
<line y1="-0.25" x2="44.4284" y2="-0.25" transform="matrix(-0.473264 -0.880921 0.473264 -0.880921 76.0801 247.716)" stroke="#C433FF" stroke-width="0.5"/>
<line y1="-0.25" x2="44.4284" y2="-0.25" transform="matrix(-0.473264 -0.880921 0.473264 -0.880921 72.137 247.716)" stroke="#C433FF" stroke-width="0.5"/>
<line y1="-0.25" x2="44.4284" y2="-0.25" transform="matrix(-0.473264 -0.880921 0.473264 -0.880921 68.1947 247.716)" stroke="#C433FF" stroke-width="0.5"/>
</g>
<line x1="257.5" y1="225.637" x2="246.5" y2="225.637" stroke="#C433FF" stroke-linecap="round"/>
<line x1="251.5" y1="237.774" x2="251.5" y2="225.637" stroke="#C433FF" stroke-linecap="round"/>
<line x1="257.5" y1="237.953" x2="246.5" y2="237.953" stroke="#C433FF" stroke-linecap="round"/>
<line x1="69.5" y1="225.5" x2="58.5" y2="225.5" stroke="#C433FF" stroke-linecap="round"/>
<line x1="63.5" y1="237.637" x2="63.5" y2="225.5" stroke="#C433FF" stroke-linecap="round"/>
<line x1="69.5" y1="237.816" x2="58.5" y2="237.816" stroke="#C433FF" stroke-linecap="round"/>
<rect x="174" y="226" width="11.64" height="33" rx="5.28" transform="rotate(90 174 226)" fill="#9100CC"/>
<path d="M150.494 234.32H149.893V230.453C149.893 230.131 149.902 229.827 149.922 229.54C149.87 229.592 149.812 229.647 149.748 229.703C149.683 229.76 149.389 230.002 148.865 230.427L148.538 230.004L149.974 228.894H150.494V234.32ZM152.624 232C152.624 230.934 152.83 230.138 153.244 229.611C153.659 229.081 154.273 228.817 155.084 228.817C155.364 228.817 155.584 228.84 155.745 228.887V229.418C155.554 229.356 155.336 229.325 155.092 229.325C154.51 229.325 154.066 229.507 153.759 229.87C153.453 230.232 153.284 230.801 153.255 231.577H153.299C153.571 231.152 154.002 230.939 154.591 230.939C155.078 230.939 155.461 231.086 155.741 231.381C156.023 231.675 156.164 232.075 156.164 232.579C156.164 233.143 156.009 233.588 155.7 233.912C155.393 234.233 154.978 234.394 154.453 234.394C153.892 234.394 153.446 234.184 153.117 233.763C152.788 233.34 152.624 232.753 152.624 232ZM154.446 233.871C154.797 233.871 155.069 233.761 155.262 233.541C155.458 233.318 155.555 232.997 155.555 232.579C155.555 232.221 155.465 231.939 155.285 231.733C155.104 231.528 154.834 231.425 154.476 231.425C154.253 231.425 154.049 231.471 153.863 231.563C153.678 231.654 153.529 231.78 153.418 231.941C153.309 232.102 153.255 232.269 153.255 232.442C153.255 232.697 153.304 232.934 153.403 233.155C153.502 233.375 153.642 233.549 153.822 233.678C154.005 233.806 154.213 233.871 154.446 233.871ZM161.059 234.394C160.794 234.394 160.552 234.346 160.331 234.249C160.114 234.15 159.931 233.999 159.782 233.797H159.738C159.767 234.034 159.782 234.259 159.782 234.472V236.146H159.166V230.253H159.667L159.752 230.809H159.782C159.941 230.587 160.125 230.426 160.335 230.327C160.545 230.228 160.787 230.178 161.059 230.178C161.598 230.178 162.014 230.363 162.306 230.731C162.6 231.1 162.747 231.617 162.747 232.283C162.747 232.95 162.598 233.47 162.298 233.841C162.001 234.21 161.588 234.394 161.059 234.394ZM160.97 230.702C160.554 230.702 160.253 230.817 160.068 231.047C159.882 231.277 159.787 231.643 159.782 232.145V232.283C159.782 232.854 159.877 233.263 160.068 233.511C160.258 233.756 160.564 233.878 160.985 233.878C161.336 233.878 161.61 233.736 161.808 233.451C162.009 233.167 162.109 232.775 162.109 232.275C162.109 231.768 162.009 231.38 161.808 231.11C161.61 230.838 161.331 230.702 160.97 230.702ZM164.807 232.238L163.393 230.253H164.094L165.167 231.811L166.235 230.253H166.929L165.516 232.238L167.004 234.32H166.306L165.167 232.672L164.016 234.32H163.319L164.807 232.238Z" fill="#F7E5FF"/>
<g clip-path="url(#clip0_1109_5849)">
<rect x="313.5" y="48.9507" width="365" height="482" rx="8" fill="white"/>
<rect x="331.75" y="65.2007" width="328.5" height="54.266" rx="8.75" fill="white"/>
<rect x="331.75" y="65.2007" width="328.5" height="54.266" rx="8.75" stroke="#E6EBF0" stroke-width="1.5"/>
<rect x="344.5" y="73.9507" width="36.766" height="36.766" rx="4.59574" fill="#E2F8F5"/>
<rect x="391.266" y="79.3335" width="256.234" height="11" rx="5.5" fill="#B8C1CC"/>
<rect x="391.266" y="94.3335" width="91" height="11" rx="5.5" fill="#D1D8E0"/>
<rect x="331.75" y="135.967" width="328.5" height="54.266" rx="8.75" fill="white"/>
<rect x="331.75" y="135.967" width="328.5" height="54.266" rx="8.75" stroke="#E6EBF0" stroke-width="1.5"/>
<rect x="344.5" y="144.717" width="36.766" height="36.766" rx="4.59574" fill="#CCF3FF"/>
<rect x="391.266" y="150.1" width="256.234" height="11" rx="5.5" fill="#B8C1CC"/>
<rect x="391.266" y="165.1" width="91" height="11" rx="5.5" fill="#D1D8E0"/>
<rect x="331.75" y="206.732" width="328.5" height="54.266" rx="8.75" fill="white"/>
<rect x="331.75" y="206.732" width="328.5" height="54.266" rx="8.75" stroke="#E6EBF0" stroke-width="1.5"/>
<rect x="344.5" y="215.482" width="36.766" height="36.766" rx="4.59574" fill="#E2F8F5"/>
<rect x="391.266" y="220.865" width="256.234" height="11" rx="5.5" fill="#B8C1CC"/>
<rect x="391.266" y="235.865" width="91" height="11" rx="5.5" fill="#D1D8E0"/>
<rect x="331.75" y="277.499" width="328.5" height="54.266" rx="8.75" fill="white"/>
<rect x="331.75" y="277.499" width="328.5" height="54.266" rx="8.75" stroke="#E6EBF0" stroke-width="1.5"/>
<rect x="344.5" y="286.249" width="36.766" height="36.766" rx="4.59574" fill="#CCF3FF"/>
<rect x="391.266" y="291.631" width="256.234" height="11" rx="5.5" fill="#B8C1CC"/>
<rect x="391.266" y="306.631" width="91" height="11" rx="5.5" fill="#D1D8E0"/>
<rect x="331.75" y="348.265" width="328.5" height="54.266" rx="8.75" fill="white"/>
<rect x="331.75" y="348.265" width="328.5" height="54.266" rx="8.75" stroke="#E6EBF0" stroke-width="1.5"/>
<rect x="344.5" y="357.015" width="36.766" height="36.766" rx="4.59574" fill="#E2F8F5"/>
<rect x="391.266" y="362.397" width="256.234" height="11" rx="5.5" fill="#B8C1CC"/>
<rect x="391.266" y="377.397" width="91" height="11" rx="5.5" fill="#D1D8E0"/>
<rect x="331.75" y="419.03" width="328.5" height="54.266" rx="8.75" fill="white"/>
<rect x="331.75" y="419.03" width="328.5" height="54.266" rx="8.75" stroke="#E6EBF0" stroke-width="1.5"/>
<rect x="344.5" y="427.78" width="36.766" height="36.766" rx="4.59574" fill="#CCF3FF"/>
<rect x="391.266" y="433.163" width="256.234" height="11" rx="5.5" fill="#B8C1CC"/>
<rect x="391.266" y="448.163" width="91" height="11" rx="5.5" fill="#D1D8E0"/>
<rect x="331.75" y="489.796" width="328.5" height="54.266" rx="8.75" fill="white"/>
<rect x="331.75" y="489.796" width="328.5" height="54.266" rx="8.75" stroke="#E6EBF0" stroke-width="1.5"/>
<rect x="344.5" y="498.546" width="36.766" height="36.766" rx="4.59574" fill="#CCF3FF"/>
<rect x="391.266" y="503.929" width="256.234" height="11" rx="5.5" fill="#B8C1CC"/>
<rect x="391.266" y="518.929" width="91" height="11" rx="5.5" fill="#D1D8E0"/>
<rect x="654" y="120" width="17" height="316" transform="rotate(90 654 120)" fill="#F7E5FF"/>
<mask id="mask2_1109_5849" style="mask-type:alpha" maskUnits="userSpaceOnUse" x="338" y="120" width="316" height="17">
<rect x="654" y="120" width="17" height="316" transform="rotate(90 654 120)" fill="#F7E5FF"/>
</mask>
<g mask="url(#mask2_1109_5849)">
<line y1="-0.25" x2="61.7582" y2="-0.25" transform="matrix(-0.572268 -0.820067 0.572268 -0.820067 678.947 149.396)" stroke="#C433FF" stroke-width="0.5"/>
<line y1="-0.25" x2="61.7582" y2="-0.25" transform="matrix(-0.572268 -0.820067 0.572268 -0.820067 639.188 149.396)" stroke="#C433FF" stroke-width="0.5"/>
<line y1="-0.25" x2="61.7582" y2="-0.25" transform="matrix(-0.572268 -0.820067 0.572268 -0.820067 586.175 149.396)" stroke="#C433FF" stroke-width="0.5"/>
<line y1="-0.25" x2="61.7582" y2="-0.25" transform="matrix(-0.572268 -0.820067 0.572268 -0.820067 579.547 149.396)" stroke="#C433FF" stroke-width="0.5"/>
<line y1="-0.25" x2="61.7582" y2="-0.25" transform="matrix(-0.572268 -0.820067 0.572268 -0.820067 612.681 149.396)" stroke="#C433FF" stroke-width="0.5"/>
<line y1="-0.25" x2="61.7582" y2="-0.25" transform="matrix(-0.572268 -0.820067 0.572268 -0.820067 632.561 149.396)" stroke="#C433FF" stroke-width="0.5"/>
<line y1="-0.25" x2="61.7582" y2="-0.25" transform="matrix(-0.572268 -0.820067 0.572268 -0.820067 672.321 149.396)" stroke="#C433FF" stroke-width="0.5"/>
<line y1="-0.25" x2="61.7582" y2="-0.25" transform="matrix(-0.572268 -0.820067 0.572268 -0.820067 592.802 149.396)" stroke="#C433FF" stroke-width="0.5"/>
<line y1="-0.25" x2="61.7582" y2="-0.25" transform="matrix(-0.572268 -0.820067 0.572268 -0.820067 599.428 149.396)" stroke="#C433FF" stroke-width="0.5"/>
<line y1="-0.25" x2="61.7582" y2="-0.25" transform="matrix(-0.572268 -0.820067 0.572268 -0.820067 665.694 149.396)" stroke="#C433FF" stroke-width="0.5"/>
<line y1="-0.25" x2="61.7582" y2="-0.25" transform="matrix(-0.572268 -0.820067 0.572268 -0.820067 652.441 149.396)" stroke="#C433FF" stroke-width="0.5"/>
<line y1="-0.25" x2="61.7582" y2="-0.25" transform="matrix(-0.572268 -0.820067 0.572268 -0.820067 625.935 149.396)" stroke="#C433FF" stroke-width="0.5"/>
<line y1="-0.25" x2="61.7582" y2="-0.25" transform="matrix(-0.572268 -0.820067 0.572268 -0.820067 606.054 149.396)" stroke="#C433FF" stroke-width="0.5"/>
<line y1="-0.25" x2="61.7582" y2="-0.25" transform="matrix(-0.572268 -0.820067 0.572268 -0.820067 645.814 149.396)" stroke="#C433FF" stroke-width="0.5"/>
<line y1="-0.25" x2="61.7582" y2="-0.25" transform="matrix(-0.572268 -0.820067 0.572268 -0.820067 619.308 149.396)" stroke="#C433FF" stroke-width="0.5"/>
<line y1="-0.25" x2="61.7582" y2="-0.25" transform="matrix(-0.572268 -0.820067 0.572268 -0.820067 572.921 149.396)" stroke="#C433FF" stroke-width="0.5"/>
<line y1="-0.25" x2="61.7582" y2="-0.25" transform="matrix(-0.572268 -0.820067 0.572268 -0.820067 659.068 149.396)" stroke="#C433FF" stroke-width="0.5"/>
<line y1="-0.25" x2="61.7582" y2="-0.25" transform="matrix(-0.572268 -0.820067 0.572268 -0.820067 565.853 149.396)" stroke="#C433FF" stroke-width="0.5"/>
<line y1="-0.25" x2="61.7582" y2="-0.25" transform="matrix(-0.572268 -0.820067 0.572268 -0.820067 499.586 149.396)" stroke="#C433FF" stroke-width="0.5"/>
<line y1="-0.25" x2="61.7582" y2="-0.25" transform="matrix(-0.572268 -0.820067 0.572268 -0.820067 545.973 149.396)" stroke="#C433FF" stroke-width="0.5"/>
<line y1="-0.25" x2="61.7582" y2="-0.25" transform="matrix(-0.572268 -0.820067 0.572268 -0.820067 473.081 149.396)" stroke="#C433FF" stroke-width="0.5"/>
<line y1="-0.25" x2="61.7582" y2="-0.25" transform="matrix(-0.572268 -0.820067 0.572268 -0.820067 559.227 149.396)" stroke="#C433FF" stroke-width="0.5"/>
<line y1="-0.25" x2="61.7582" y2="-0.25" transform="matrix(-0.572268 -0.820067 0.572268 -0.820067 486.333 149.396)" stroke="#C433FF" stroke-width="0.5"/>
<line y1="-0.25" x2="61.7582" y2="-0.25" transform="matrix(-0.572268 -0.820067 0.572268 -0.820067 539.347 149.396)" stroke="#C433FF" stroke-width="0.5"/>
<line y1="-0.25" x2="61.7582" y2="-0.25" transform="matrix(-0.572268 -0.820067 0.572268 -0.820067 492.959 149.396)" stroke="#C433FF" stroke-width="0.5"/>
<line y1="-0.25" x2="61.7582" y2="-0.25" transform="matrix(-0.572268 -0.820067 0.572268 -0.820067 532.719 149.396)" stroke="#C433FF" stroke-width="0.5"/>
<line y1="-0.25" x2="61.7582" y2="-0.25" transform="matrix(-0.572268 -0.820067 0.572268 -0.820067 459.826 149.396)" stroke="#C433FF" stroke-width="0.5"/>
<line y1="-0.25" x2="61.7582" y2="-0.25" transform="matrix(-0.572268 -0.820067 0.572268 -0.820067 526.093 149.396)" stroke="#C433FF" stroke-width="0.5"/>
<line y1="-0.25" x2="61.7582" y2="-0.25" transform="matrix(-0.572268 -0.820067 0.572268 -0.820067 479.707 149.396)" stroke="#C433FF" stroke-width="0.5"/>
<line y1="-0.25" x2="61.7582" y2="-0.25" transform="matrix(-0.572268 -0.820067 0.572268 -0.820067 519.466 149.396)" stroke="#C433FF" stroke-width="0.5"/>
<line y1="-0.25" x2="61.7582" y2="-0.25" transform="matrix(-0.572268 -0.820067 0.572268 -0.820067 512.84 149.396)" stroke="#C433FF" stroke-width="0.5"/>
<line y1="-0.25" x2="61.7582" y2="-0.25" transform="matrix(-0.572268 -0.820067 0.572268 -0.820067 466.453 149.396)" stroke="#C433FF" stroke-width="0.5"/>
<line y1="-0.25" x2="61.7582" y2="-0.25" transform="matrix(-0.572268 -0.820067 0.572268 -0.820067 506.214 149.396)" stroke="#C433FF" stroke-width="0.5"/>
<line y1="-0.25" x2="61.7582" y2="-0.25" transform="matrix(-0.572268 -0.820067 0.572268 -0.820067 552.6 149.396)" stroke="#C433FF" stroke-width="0.5"/>
<line y1="-0.25" x2="61.7582" y2="-0.25" transform="matrix(-0.572268 -0.820067 0.572268 -0.820067 452.758 149.396)" stroke="#C433FF" stroke-width="0.5"/>
<line y1="-0.25" x2="61.7582" y2="-0.25" transform="matrix(-0.572268 -0.820067 0.572268 -0.820067 446.132 149.396)" stroke="#C433FF" stroke-width="0.5"/>
<line y1="-0.25" x2="61.7582" y2="-0.25" transform="matrix(-0.572268 -0.820067 0.572268 -0.820067 439.505 149.396)" stroke="#C433FF" stroke-width="0.5"/>
<line y1="-0.25" x2="61.7582" y2="-0.25" transform="matrix(-0.572268 -0.820067 0.572268 -0.820067 432.878 149.396)" stroke="#C433FF" stroke-width="0.5"/>
<line y1="-0.25" x2="61.7582" y2="-0.25" transform="matrix(-0.572268 -0.820067 0.572268 -0.820067 426.252 149.396)" stroke="#C433FF" stroke-width="0.5"/>
<line y1="-0.25" x2="61.7582" y2="-0.25" transform="matrix(-0.572268 -0.820067 0.572268 -0.820067 419.624 149.396)" stroke="#C433FF" stroke-width="0.5"/>
<line y1="-0.25" x2="61.7582" y2="-0.25" transform="matrix(-0.572268 -0.820067 0.572268 -0.820067 412.998 149.396)" stroke="#C433FF" stroke-width="0.5"/>
<line y1="-0.25" x2="61.7582" y2="-0.25" transform="matrix(-0.572268 -0.820067 0.572268 -0.820067 406.372 149.396)" stroke="#C433FF" stroke-width="0.5"/>
<line y1="-0.25" x2="61.7582" y2="-0.25" transform="matrix(-0.572268 -0.820067 0.572268 -0.820067 399.745 149.396)" stroke="#C433FF" stroke-width="0.5"/>
<line y1="-0.25" x2="61.7582" y2="-0.25" transform="matrix(-0.572268 -0.820067 0.572268 -0.820067 393.119 149.396)" stroke="#C433FF" stroke-width="0.5"/>
<line y1="-0.25" x2="61.7582" y2="-0.25" transform="matrix(-0.572268 -0.820067 0.572268 -0.820067 386.491 149.396)" stroke="#C433FF" stroke-width="0.5"/>
<line y1="-0.25" x2="61.7582" y2="-0.25" transform="matrix(-0.572268 -0.820067 0.572268 -0.820067 379.865 149.396)" stroke="#C433FF" stroke-width="0.5"/>
<line y1="-0.25" x2="61.7582" y2="-0.25" transform="matrix(-0.572268 -0.820067 0.572268 -0.820067 373.239 149.396)" stroke="#C433FF" stroke-width="0.5"/>
<line y1="-0.25" x2="61.7582" y2="-0.25" transform="matrix(-0.572268 -0.820067 0.572268 -0.820067 366.612 149.396)" stroke="#C433FF" stroke-width="0.5"/>
<line y1="-0.25" x2="61.7582" y2="-0.25" transform="matrix(-0.572268 -0.820067 0.572268 -0.820067 359.986 149.396)" stroke="#C433FF" stroke-width="0.5"/>
<line y1="-0.25" x2="61.7582" y2="-0.25" transform="matrix(-0.572268 -0.820067 0.572268 -0.820067 353.358 149.396)" stroke="#C433FF" stroke-width="0.5"/>
<line y1="-0.25" x2="61.7582" y2="-0.25" transform="matrix(-0.572268 -0.820067 0.572268 -0.820067 346.732 149.396)" stroke="#C433FF" stroke-width="0.5"/>
</g>
<rect x="518" y="121" width="15.44" height="43" rx="6.88" transform="rotate(90 518 121)" fill="#9100CC"/>
<path d="M490.025 131.72H485.989V131.12L487.606 129.495C488.099 128.996 488.423 128.641 488.58 128.428C488.737 128.215 488.855 128.008 488.933 127.807C489.011 127.605 489.051 127.388 489.051 127.156C489.051 126.828 488.951 126.569 488.752 126.379C488.554 126.186 488.278 126.089 487.925 126.089C487.67 126.089 487.428 126.131 487.199 126.215C486.972 126.299 486.719 126.452 486.439 126.673L486.069 126.198C486.635 125.728 487.25 125.493 487.917 125.493C488.493 125.493 488.946 125.641 489.273 125.938C489.601 126.232 489.764 126.628 489.764 127.126C489.764 127.515 489.655 127.9 489.437 128.281C489.219 128.662 488.81 129.143 488.211 129.726L486.867 131.04V131.074H490.025V131.72ZM495.236 130.309H494.325V131.72H493.657V130.309H490.671V129.7L493.586 125.547H494.325V129.675H495.236V130.309ZM493.657 129.675V127.634C493.657 127.234 493.671 126.782 493.699 126.278H493.665C493.531 126.547 493.405 126.769 493.288 126.946L491.369 129.675H493.657ZM500.527 131.804C500.227 131.804 499.953 131.75 499.704 131.64C499.458 131.528 499.25 131.358 499.082 131.128H499.032C499.066 131.397 499.082 131.652 499.082 131.892V133.786H498.385V127.118H498.952L499.049 127.748H499.082C499.262 127.496 499.47 127.314 499.708 127.202C499.946 127.09 500.219 127.034 500.527 127.034C501.137 127.034 501.608 127.242 501.938 127.66C502.271 128.077 502.438 128.662 502.438 129.415C502.438 130.171 502.268 130.759 501.93 131.179C501.594 131.596 501.126 131.804 500.527 131.804ZM500.426 127.626C499.956 127.626 499.616 127.756 499.406 128.017C499.196 128.277 499.088 128.691 499.082 129.259V129.415C499.082 130.062 499.19 130.525 499.406 130.805C499.621 131.082 499.967 131.221 500.443 131.221C500.841 131.221 501.151 131.06 501.375 130.738C501.602 130.416 501.715 129.972 501.715 129.406C501.715 128.833 501.602 128.393 501.375 128.088C501.151 127.78 500.835 127.626 500.426 127.626ZM504.768 129.364L503.168 127.118H503.962L505.176 128.882L506.385 127.118H507.17L505.57 129.364L507.254 131.72H506.465L505.176 129.856L503.874 131.72H503.084L504.768 129.364Z" fill="#F7E5FF"/>
<line x1="659.5" y1="120.5" x2="648.5" y2="120.5" stroke="#C433FF" stroke-linecap="round"/>
<line x1="653.5" y1="136.5" x2="653.5" y2="120.5" stroke="#C433FF" stroke-linecap="round"/>
<line x1="659.5" y1="136.437" x2="648.5" y2="136.438" stroke="#C433FF" stroke-linecap="round"/>
<line x1="344.5" y1="120.5" x2="333.5" y2="120.5" stroke="#C433FF" stroke-linecap="round"/>
<line x1="338.5" y1="136.5" x2="338.5" y2="120.5" stroke="#C433FF" stroke-linecap="round"/>
<line x1="344.5" y1="136.437" x2="333.5" y2="136.438" stroke="#C433FF" stroke-linecap="round"/>
<rect x="654" y="189" width="17" height="316" transform="rotate(90 654 189)" fill="#F7E5FF"/>
<mask id="mask3_1109_5849" style="mask-type:alpha" maskUnits="userSpaceOnUse" x="338" y="189" width="316" height="17">
<rect x="654" y="189" width="17" height="316" transform="rotate(90 654 189)" fill="#F7E5FF"/>
</mask>
<g mask="url(#mask3_1109_5849)">
<line y1="-0.25" x2="61.7582" y2="-0.25" transform="matrix(-0.572268 -0.820067 0.572268 -0.820067 678.947 218.396)" stroke="#C433FF" stroke-width="0.5"/>
<line y1="-0.25" x2="61.7582" y2="-0.25" transform="matrix(-0.572268 -0.820067 0.572268 -0.820067 639.188 218.396)" stroke="#C433FF" stroke-width="0.5"/>
<line y1="-0.25" x2="61.7582" y2="-0.25" transform="matrix(-0.572268 -0.820067 0.572268 -0.820067 586.175 218.396)" stroke="#C433FF" stroke-width="0.5"/>
<line y1="-0.25" x2="61.7582" y2="-0.25" transform="matrix(-0.572268 -0.820067 0.572268 -0.820067 579.547 218.396)" stroke="#C433FF" stroke-width="0.5"/>
<line y1="-0.25" x2="61.7582" y2="-0.25" transform="matrix(-0.572268 -0.820067 0.572268 -0.820067 612.681 218.396)" stroke="#C433FF" stroke-width="0.5"/>
<line y1="-0.25" x2="61.7582" y2="-0.25" transform="matrix(-0.572268 -0.820067 0.572268 -0.820067 632.561 218.396)" stroke="#C433FF" stroke-width="0.5"/>
<line y1="-0.25" x2="61.7582" y2="-0.25" transform="matrix(-0.572268 -0.820067 0.572268 -0.820067 672.321 218.396)" stroke="#C433FF" stroke-width="0.5"/>
<line y1="-0.25" x2="61.7582" y2="-0.25" transform="matrix(-0.572268 -0.820067 0.572268 -0.820067 592.802 218.396)" stroke="#C433FF" stroke-width="0.5"/>
<line y1="-0.25" x2="61.7582" y2="-0.25" transform="matrix(-0.572268 -0.820067 0.572268 -0.820067 599.428 218.396)" stroke="#C433FF" stroke-width="0.5"/>
<line y1="-0.25" x2="61.7582" y2="-0.25" transform="matrix(-0.572268 -0.820067 0.572268 -0.820067 665.694 218.396)" stroke="#C433FF" stroke-width="0.5"/>
<line y1="-0.25" x2="61.7582" y2="-0.25" transform="matrix(-0.572268 -0.820067 0.572268 -0.820067 652.441 218.396)" stroke="#C433FF" stroke-width="0.5"/>
<line y1="-0.25" x2="61.7582" y2="-0.25" transform="matrix(-0.572268 -0.820067 0.572268 -0.820067 625.935 218.396)" stroke="#C433FF" stroke-width="0.5"/>
<line y1="-0.25" x2="61.7582" y2="-0.25" transform="matrix(-0.572268 -0.820067 0.572268 -0.820067 606.054 218.396)" stroke="#C433FF" stroke-width="0.5"/>
<line y1="-0.25" x2="61.7582" y2="-0.25" transform="matrix(-0.572268 -0.820067 0.572268 -0.820067 645.814 218.396)" stroke="#C433FF" stroke-width="0.5"/>
<line y1="-0.25" x2="61.7582" y2="-0.25" transform="matrix(-0.572268 -0.820067 0.572268 -0.820067 619.308 218.396)" stroke="#C433FF" stroke-width="0.5"/>
<line y1="-0.25" x2="61.7582" y2="-0.25" transform="matrix(-0.572268 -0.820067 0.572268 -0.820067 572.921 218.396)" stroke="#C433FF" stroke-width="0.5"/>
<line y1="-0.25" x2="61.7582" y2="-0.25" transform="matrix(-0.572268 -0.820067 0.572268 -0.820067 659.068 218.396)" stroke="#C433FF" stroke-width="0.5"/>
<line y1="-0.25" x2="61.7582" y2="-0.25" transform="matrix(-0.572268 -0.820067 0.572268 -0.820067 565.853 218.396)" stroke="#C433FF" stroke-width="0.5"/>
<line y1="-0.25" x2="61.7582" y2="-0.25" transform="matrix(-0.572268 -0.820067 0.572268 -0.820067 499.586 218.396)" stroke="#C433FF" stroke-width="0.5"/>
<line y1="-0.25" x2="61.7582" y2="-0.25" transform="matrix(-0.572268 -0.820067 0.572268 -0.820067 545.973 218.396)" stroke="#C433FF" stroke-width="0.5"/>
<line y1="-0.25" x2="61.7582" y2="-0.25" transform="matrix(-0.572268 -0.820067 0.572268 -0.820067 473.081 218.396)" stroke="#C433FF" stroke-width="0.5"/>
<line y1="-0.25" x2="61.7582" y2="-0.25" transform="matrix(-0.572268 -0.820067 0.572268 -0.820067 559.227 218.396)" stroke="#C433FF" stroke-width="0.5"/>
<line y1="-0.25" x2="61.7582" y2="-0.25" transform="matrix(-0.572268 -0.820067 0.572268 -0.820067 486.333 218.396)" stroke="#C433FF" stroke-width="0.5"/>
<line y1="-0.25" x2="61.7582" y2="-0.25" transform="matrix(-0.572268 -0.820067 0.572268 -0.820067 539.347 218.396)" stroke="#C433FF" stroke-width="0.5"/>
<line y1="-0.25" x2="61.7582" y2="-0.25" transform="matrix(-0.572268 -0.820067 0.572268 -0.820067 492.959 218.396)" stroke="#C433FF" stroke-width="0.5"/>
<line y1="-0.25" x2="61.7582" y2="-0.25" transform="matrix(-0.572268 -0.820067 0.572268 -0.820067 532.719 218.396)" stroke="#C433FF" stroke-width="0.5"/>
<line y1="-0.25" x2="61.7582" y2="-0.25" transform="matrix(-0.572268 -0.820067 0.572268 -0.820067 459.826 218.396)" stroke="#C433FF" stroke-width="0.5"/>
<line y1="-0.25" x2="61.7582" y2="-0.25" transform="matrix(-0.572268 -0.820067 0.572268 -0.820067 526.093 218.396)" stroke="#C433FF" stroke-width="0.5"/>
<line y1="-0.25" x2="61.7582" y2="-0.25" transform="matrix(-0.572268 -0.820067 0.572268 -0.820067 479.707 218.396)" stroke="#C433FF" stroke-width="0.5"/>
<line y1="-0.25" x2="61.7582" y2="-0.25" transform="matrix(-0.572268 -0.820067 0.572268 -0.820067 519.466 218.396)" stroke="#C433FF" stroke-width="0.5"/>
<line y1="-0.25" x2="61.7582" y2="-0.25" transform="matrix(-0.572268 -0.820067 0.572268 -0.820067 512.84 218.396)" stroke="#C433FF" stroke-width="0.5"/>
<line y1="-0.25" x2="61.7582" y2="-0.25" transform="matrix(-0.572268 -0.820067 0.572268 -0.820067 466.453 218.396)" stroke="#C433FF" stroke-width="0.5"/>
<line y1="-0.25" x2="61.7582" y2="-0.25" transform="matrix(-0.572268 -0.820067 0.572268 -0.820067 506.214 218.396)" stroke="#C433FF" stroke-width="0.5"/>
<line y1="-0.25" x2="61.7582" y2="-0.25" transform="matrix(-0.572268 -0.820067 0.572268 -0.820067 552.6 218.396)" stroke="#C433FF" stroke-width="0.5"/>
<line y1="-0.25" x2="61.7582" y2="-0.25" transform="matrix(-0.572268 -0.820067 0.572268 -0.820067 452.758 218.396)" stroke="#C433FF" stroke-width="0.5"/>
<line y1="-0.25" x2="61.7582" y2="-0.25" transform="matrix(-0.572268 -0.820067 0.572268 -0.820067 446.132 218.396)" stroke="#C433FF" stroke-width="0.5"/>
<line y1="-0.25" x2="61.7582" y2="-0.25" transform="matrix(-0.572268 -0.820067 0.572268 -0.820067 439.505 218.396)" stroke="#C433FF" stroke-width="0.5"/>
<line y1="-0.25" x2="61.7582" y2="-0.25" transform="matrix(-0.572268 -0.820067 0.572268 -0.820067 432.878 218.396)" stroke="#C433FF" stroke-width="0.5"/>
<line y1="-0.25" x2="61.7582" y2="-0.25" transform="matrix(-0.572268 -0.820067 0.572268 -0.820067 426.252 218.396)" stroke="#C433FF" stroke-width="0.5"/>
<line y1="-0.25" x2="61.7582" y2="-0.25" transform="matrix(-0.572268 -0.820067 0.572268 -0.820067 419.624 218.396)" stroke="#C433FF" stroke-width="0.5"/>
<line y1="-0.25" x2="61.7582" y2="-0.25" transform="matrix(-0.572268 -0.820067 0.572268 -0.820067 412.998 218.396)" stroke="#C433FF" stroke-width="0.5"/>
<line y1="-0.25" x2="61.7582" y2="-0.25" transform="matrix(-0.572268 -0.820067 0.572268 -0.820067 406.372 218.396)" stroke="#C433FF" stroke-width="0.5"/>
<line y1="-0.25" x2="61.7582" y2="-0.25" transform="matrix(-0.572268 -0.820067 0.572268 -0.820067 399.745 218.396)" stroke="#C433FF" stroke-width="0.5"/>
<line y1="-0.25" x2="61.7582" y2="-0.25" transform="matrix(-0.572268 -0.820067 0.572268 -0.820067 393.119 218.396)" stroke="#C433FF" stroke-width="0.5"/>
<line y1="-0.25" x2="61.7582" y2="-0.25" transform="matrix(-0.572268 -0.820067 0.572268 -0.820067 386.491 218.396)" stroke="#C433FF" stroke-width="0.5"/>
<line y1="-0.25" x2="61.7582" y2="-0.25" transform="matrix(-0.572268 -0.820067 0.572268 -0.820067 379.865 218.396)" stroke="#C433FF" stroke-width="0.5"/>
<line y1="-0.25" x2="61.7582" y2="-0.25" transform="matrix(-0.572268 -0.820067 0.572268 -0.820067 373.239 218.396)" stroke="#C433FF" stroke-width="0.5"/>
<line y1="-0.25" x2="61.7582" y2="-0.25" transform="matrix(-0.572268 -0.820067 0.572268 -0.820067 366.612 218.396)" stroke="#C433FF" stroke-width="0.5"/>
<line y1="-0.25" x2="61.7582" y2="-0.25" transform="matrix(-0.572268 -0.820067 0.572268 -0.820067 359.986 218.396)" stroke="#C433FF" stroke-width="0.5"/>
<line y1="-0.25" x2="61.7582" y2="-0.25" transform="matrix(-0.572268 -0.820067 0.572268 -0.820067 353.358 218.396)" stroke="#C433FF" stroke-width="0.5"/>
<line y1="-0.25" x2="61.7582" y2="-0.25" transform="matrix(-0.572268 -0.820067 0.572268 -0.820067 346.732 218.396)" stroke="#C433FF" stroke-width="0.5"/>
</g>
<rect x="518" y="190" width="15.44" height="43" rx="6.88" transform="rotate(90 518 190)" fill="#9100CC"/>
<path d="M490.025 200.72H485.989V200.12L487.606 198.495C488.099 197.996 488.423 197.641 488.58 197.428C488.737 197.215 488.855 197.008 488.933 196.807C489.011 196.605 489.051 196.388 489.051 196.156C489.051 195.828 488.951 195.569 488.752 195.379C488.554 195.186 488.278 195.089 487.925 195.089C487.67 195.089 487.428 195.131 487.199 195.215C486.972 195.299 486.719 195.452 486.439 195.673L486.069 195.198C486.635 194.728 487.25 194.493 487.917 194.493C488.493 194.493 488.946 194.641 489.273 194.938C489.601 195.232 489.764 195.628 489.764 196.126C489.764 196.515 489.655 196.9 489.437 197.281C489.219 197.662 488.81 198.143 488.211 198.726L486.867 200.04V200.074H490.025V200.72ZM495.236 199.309H494.325V200.72H493.657V199.309H490.671V198.7L493.586 194.547H494.325V198.675H495.236V199.309ZM493.657 198.675V196.634C493.657 196.234 493.671 195.782 493.699 195.278H493.665C493.531 195.547 493.405 195.769 493.288 195.946L491.369 198.675H493.657ZM500.527 200.804C500.227 200.804 499.953 200.75 499.704 200.64C499.458 200.528 499.25 200.358 499.082 200.128H499.032C499.066 200.397 499.082 200.652 499.082 200.892V202.786H498.385V196.118H498.952L499.049 196.748H499.082C499.262 196.496 499.47 196.314 499.708 196.202C499.946 196.09 500.219 196.034 500.527 196.034C501.137 196.034 501.608 196.242 501.938 196.66C502.271 197.077 502.438 197.662 502.438 198.415C502.438 199.171 502.268 199.759 501.93 200.179C501.594 200.596 501.126 200.804 500.527 200.804ZM500.426 196.626C499.956 196.626 499.616 196.756 499.406 197.017C499.196 197.277 499.088 197.691 499.082 198.259V198.415C499.082 199.062 499.19 199.525 499.406 199.805C499.621 200.082 499.967 200.221 500.443 200.221C500.841 200.221 501.151 200.06 501.375 199.738C501.602 199.416 501.715 198.972 501.715 198.406C501.715 197.833 501.602 197.393 501.375 197.088C501.151 196.78 500.835 196.626 500.426 196.626ZM504.768 198.364L503.168 196.118H503.962L505.176 197.882L506.385 196.118H507.17L505.57 198.364L507.254 200.72H506.465L505.176 198.856L503.874 200.72H503.084L504.768 198.364Z" fill="#F7E5FF"/>
<line x1="659.5" y1="189.5" x2="648.5" y2="189.5" stroke="#C433FF" stroke-linecap="round"/>
<line x1="653.5" y1="205.5" x2="653.5" y2="189.5" stroke="#C433FF" stroke-linecap="round"/>
<line x1="659.5" y1="205.437" x2="648.5" y2="205.438" stroke="#C433FF" stroke-linecap="round"/>
<line x1="344.5" y1="189.5" x2="333.5" y2="189.5" stroke="#C433FF" stroke-linecap="round"/>
<line x1="338.5" y1="205.5" x2="338.5" y2="189.5" stroke="#C433FF" stroke-linecap="round"/>
<line x1="344.5" y1="205.437" x2="333.5" y2="205.438" stroke="#C433FF" stroke-linecap="round"/>
<rect x="654" y="260" width="17" height="316" transform="rotate(90 654 260)" fill="#F7E5FF"/>
<mask id="mask4_1109_5849" style="mask-type:alpha" maskUnits="userSpaceOnUse" x="338" y="260" width="316" height="17">
<rect x="654" y="260" width="17" height="316" transform="rotate(90 654 260)" fill="#F7E5FF"/>
</mask>
<g mask="url(#mask4_1109_5849)">
<line y1="-0.25" x2="61.7582" y2="-0.25" transform="matrix(-0.572268 -0.820067 0.572268 -0.820067 678.947 289.396)" stroke="#C433FF" stroke-width="0.5"/>
<line y1="-0.25" x2="61.7582" y2="-0.25" transform="matrix(-0.572268 -0.820067 0.572268 -0.820067 639.188 289.396)" stroke="#C433FF" stroke-width="0.5"/>
<line y1="-0.25" x2="61.7582" y2="-0.25" transform="matrix(-0.572268 -0.820067 0.572268 -0.820067 586.175 289.396)" stroke="#C433FF" stroke-width="0.5"/>
<line y1="-0.25" x2="61.7582" y2="-0.25" transform="matrix(-0.572268 -0.820067 0.572268 -0.820067 579.547 289.396)" stroke="#C433FF" stroke-width="0.5"/>
<line y1="-0.25" x2="61.7582" y2="-0.25" transform="matrix(-0.572268 -0.820067 0.572268 -0.820067 612.681 289.396)" stroke="#C433FF" stroke-width="0.5"/>
<line y1="-0.25" x2="61.7582" y2="-0.25" transform="matrix(-0.572268 -0.820067 0.572268 -0.820067 632.561 289.396)" stroke="#C433FF" stroke-width="0.5"/>
<line y1="-0.25" x2="61.7582" y2="-0.25" transform="matrix(-0.572268 -0.820067 0.572268 -0.820067 672.321 289.396)" stroke="#C433FF" stroke-width="0.5"/>
<line y1="-0.25" x2="61.7582" y2="-0.25" transform="matrix(-0.572268 -0.820067 0.572268 -0.820067 592.802 289.396)" stroke="#C433FF" stroke-width="0.5"/>
<line y1="-0.25" x2="61.7582" y2="-0.25" transform="matrix(-0.572268 -0.820067 0.572268 -0.820067 599.428 289.396)" stroke="#C433FF" stroke-width="0.5"/>
<line y1="-0.25" x2="61.7582" y2="-0.25" transform="matrix(-0.572268 -0.820067 0.572268 -0.820067 665.694 289.396)" stroke="#C433FF" stroke-width="0.5"/>
<line y1="-0.25" x2="61.7582" y2="-0.25" transform="matrix(-0.572268 -0.820067 0.572268 -0.820067 652.441 289.396)" stroke="#C433FF" stroke-width="0.5"/>
<line y1="-0.25" x2="61.7582" y2="-0.25" transform="matrix(-0.572268 -0.820067 0.572268 -0.820067 625.935 289.396)" stroke="#C433FF" stroke-width="0.5"/>
<line y1="-0.25" x2="61.7582" y2="-0.25" transform="matrix(-0.572268 -0.820067 0.572268 -0.820067 606.054 289.396)" stroke="#C433FF" stroke-width="0.5"/>
<line y1="-0.25" x2="61.7582" y2="-0.25" transform="matrix(-0.572268 -0.820067 0.572268 -0.820067 645.814 289.396)" stroke="#C433FF" stroke-width="0.5"/>
<line y1="-0.25" x2="61.7582" y2="-0.25" transform="matrix(-0.572268 -0.820067 0.572268 -0.820067 619.308 289.396)" stroke="#C433FF" stroke-width="0.5"/>
<line y1="-0.25" x2="61.7582" y2="-0.25" transform="matrix(-0.572268 -0.820067 0.572268 -0.820067 572.921 289.396)" stroke="#C433FF" stroke-width="0.5"/>
<line y1="-0.25" x2="61.7582" y2="-0.25" transform="matrix(-0.572268 -0.820067 0.572268 -0.820067 659.068 289.396)" stroke="#C433FF" stroke-width="0.5"/>
<line y1="-0.25" x2="61.7582" y2="-0.25" transform="matrix(-0.572268 -0.820067 0.572268 -0.820067 565.853 289.396)" stroke="#C433FF" stroke-width="0.5"/>
<line y1="-0.25" x2="61.7582" y2="-0.25" transform="matrix(-0.572268 -0.820067 0.572268 -0.820067 499.586 289.396)" stroke="#C433FF" stroke-width="0.5"/>
<line y1="-0.25" x2="61.7582" y2="-0.25" transform="matrix(-0.572268 -0.820067 0.572268 -0.820067 545.973 289.396)" stroke="#C433FF" stroke-width="0.5"/>
<line y1="-0.25" x2="61.7582" y2="-0.25" transform="matrix(-0.572268 -0.820067 0.572268 -0.820067 473.081 289.396)" stroke="#C433FF" stroke-width="0.5"/>
<line y1="-0.25" x2="61.7582" y2="-0.25" transform="matrix(-0.572268 -0.820067 0.572268 -0.820067 559.227 289.396)" stroke="#C433FF" stroke-width="0.5"/>
<line y1="-0.25" x2="61.7582" y2="-0.25" transform="matrix(-0.572268 -0.820067 0.572268 -0.820067 486.333 289.396)" stroke="#C433FF" stroke-width="0.5"/>
<line y1="-0.25" x2="61.7582" y2="-0.25" transform="matrix(-0.572268 -0.820067 0.572268 -0.820067 539.347 289.396)" stroke="#C433FF" stroke-width="0.5"/>
<line y1="-0.25" x2="61.7582" y2="-0.25" transform="matrix(-0.572268 -0.820067 0.572268 -0.820067 492.959 289.396)" stroke="#C433FF" stroke-width="0.5"/>
<line y1="-0.25" x2="61.7582" y2="-0.25" transform="matrix(-0.572268 -0.820067 0.572268 -0.820067 532.719 289.396)" stroke="#C433FF" stroke-width="0.5"/>
<line y1="-0.25" x2="61.7582" y2="-0.25" transform="matrix(-0.572268 -0.820067 0.572268 -0.820067 459.826 289.396)" stroke="#C433FF" stroke-width="0.5"/>
<line y1="-0.25" x2="61.7582" y2="-0.25" transform="matrix(-0.572268 -0.820067 0.572268 -0.820067 526.093 289.396)" stroke="#C433FF" stroke-width="0.5"/>
<line y1="-0.25" x2="61.7582" y2="-0.25" transform="matrix(-0.572268 -0.820067 0.572268 -0.820067 479.707 289.396)" stroke="#C433FF" stroke-width="0.5"/>
<line y1="-0.25" x2="61.7582" y2="-0.25" transform="matrix(-0.572268 -0.820067 0.572268 -0.820067 519.466 289.396)" stroke="#C433FF" stroke-width="0.5"/>
<line y1="-0.25" x2="61.7582" y2="-0.25" transform="matrix(-0.572268 -0.820067 0.572268 -0.820067 512.84 289.396)" stroke="#C433FF" stroke-width="0.5"/>
<line y1="-0.25" x2="61.7582" y2="-0.25" transform="matrix(-0.572268 -0.820067 0.572268 -0.820067 466.453 289.396)" stroke="#C433FF" stroke-width="0.5"/>
<line y1="-0.25" x2="61.7582" y2="-0.25" transform="matrix(-0.572268 -0.820067 0.572268 -0.820067 506.214 289.396)" stroke="#C433FF" stroke-width="0.5"/>
<line y1="-0.25" x2="61.7582" y2="-0.25" transform="matrix(-0.572268 -0.820067 0.572268 -0.820067 552.6 289.396)" stroke="#C433FF" stroke-width="0.5"/>
<line y1="-0.25" x2="61.7582" y2="-0.25" transform="matrix(-0.572268 -0.820067 0.572268 -0.820067 452.758 289.396)" stroke="#C433FF" stroke-width="0.5"/>
<line y1="-0.25" x2="61.7582" y2="-0.25" transform="matrix(-0.572268 -0.820067 0.572268 -0.820067 446.132 289.396)" stroke="#C433FF" stroke-width="0.5"/>
<line y1="-0.25" x2="61.7582" y2="-0.25" transform="matrix(-0.572268 -0.820067 0.572268 -0.820067 439.505 289.396)" stroke="#C433FF" stroke-width="0.5"/>
<line y1="-0.25" x2="61.7582" y2="-0.25" transform="matrix(-0.572268 -0.820067 0.572268 -0.820067 432.878 289.396)" stroke="#C433FF" stroke-width="0.5"/>
<line y1="-0.25" x2="61.7582" y2="-0.25" transform="matrix(-0.572268 -0.820067 0.572268 -0.820067 426.252 289.396)" stroke="#C433FF" stroke-width="0.5"/>
<line y1="-0.25" x2="61.7582" y2="-0.25" transform="matrix(-0.572268 -0.820067 0.572268 -0.820067 419.624 289.396)" stroke="#C433FF" stroke-width="0.5"/>
<line y1="-0.25" x2="61.7582" y2="-0.25" transform="matrix(-0.572268 -0.820067 0.572268 -0.820067 412.998 289.396)" stroke="#C433FF" stroke-width="0.5"/>
<line y1="-0.25" x2="61.7582" y2="-0.25" transform="matrix(-0.572268 -0.820067 0.572268 -0.820067 406.372 289.396)" stroke="#C433FF" stroke-width="0.5"/>
<line y1="-0.25" x2="61.7582" y2="-0.25" transform="matrix(-0.572268 -0.820067 0.572268 -0.820067 399.745 289.396)" stroke="#C433FF" stroke-width="0.5"/>
<line y1="-0.25" x2="61.7582" y2="-0.25" transform="matrix(-0.572268 -0.820067 0.572268 -0.820067 393.119 289.396)" stroke="#C433FF" stroke-width="0.5"/>
<line y1="-0.25" x2="61.7582" y2="-0.25" transform="matrix(-0.572268 -0.820067 0.572268 -0.820067 386.491 289.396)" stroke="#C433FF" stroke-width="0.5"/>
<line y1="-0.25" x2="61.7582" y2="-0.25" transform="matrix(-0.572268 -0.820067 0.572268 -0.820067 379.865 289.396)" stroke="#C433FF" stroke-width="0.5"/>
<line y1="-0.25" x2="61.7582" y2="-0.25" transform="matrix(-0.572268 -0.820067 0.572268 -0.820067 373.239 289.396)" stroke="#C433FF" stroke-width="0.5"/>
<line y1="-0.25" x2="61.7582" y2="-0.25" transform="matrix(-0.572268 -0.820067 0.572268 -0.820067 366.612 289.396)" stroke="#C433FF" stroke-width="0.5"/>
<line y1="-0.25" x2="61.7582" y2="-0.25" transform="matrix(-0.572268 -0.820067 0.572268 -0.820067 359.986 289.396)" stroke="#C433FF" stroke-width="0.5"/>
<line y1="-0.25" x2="61.7582" y2="-0.25" transform="matrix(-0.572268 -0.820067 0.572268 -0.820067 353.358 289.396)" stroke="#C433FF" stroke-width="0.5"/>
<line y1="-0.25" x2="61.7582" y2="-0.25" transform="matrix(-0.572268 -0.820067 0.572268 -0.820067 346.732 289.396)" stroke="#C433FF" stroke-width="0.5"/>
</g>
<rect x="518" y="261" width="15.44" height="43" rx="6.88" transform="rotate(90 518 261)" fill="#9100CC"/>
<path d="M490.025 271.72H485.989V271.12L487.606 269.495C488.099 268.996 488.423 268.641 488.58 268.428C488.737 268.215 488.855 268.008 488.933 267.807C489.011 267.605 489.051 267.388 489.051 267.156C489.051 266.828 488.951 266.569 488.752 266.379C488.554 266.186 488.278 266.089 487.925 266.089C487.67 266.089 487.428 266.131 487.199 266.215C486.972 266.299 486.719 266.452 486.439 266.673L486.069 266.198C486.635 265.728 487.25 265.493 487.917 265.493C488.493 265.493 488.946 265.641 489.273 265.938C489.601 266.232 489.764 266.628 489.764 267.126C489.764 267.515 489.655 267.9 489.437 268.281C489.219 268.662 488.81 269.143 488.211 269.726L486.867 271.04V271.074H490.025V271.72ZM495.236 270.309H494.325V271.72H493.657V270.309H490.671V269.7L493.586 265.547H494.325V269.675H495.236V270.309ZM493.657 269.675V267.634C493.657 267.234 493.671 266.782 493.699 266.278H493.665C493.531 266.547 493.405 266.769 493.288 266.946L491.369 269.675H493.657ZM500.527 271.804C500.227 271.804 499.953 271.75 499.704 271.64C499.458 271.528 499.25 271.358 499.082 271.128H499.032C499.066 271.397 499.082 271.652 499.082 271.892V273.786H498.385V267.118H498.952L499.049 267.748H499.082C499.262 267.496 499.47 267.314 499.708 267.202C499.946 267.09 500.219 267.034 500.527 267.034C501.137 267.034 501.608 267.242 501.938 267.66C502.271 268.077 502.438 268.662 502.438 269.415C502.438 270.171 502.268 270.759 501.93 271.179C501.594 271.596 501.126 271.804 500.527 271.804ZM500.426 267.626C499.956 267.626 499.616 267.756 499.406 268.017C499.196 268.277 499.088 268.691 499.082 269.259V269.415C499.082 270.062 499.19 270.525 499.406 270.805C499.621 271.082 499.967 271.221 500.443 271.221C500.841 271.221 501.151 271.06 501.375 270.738C501.602 270.416 501.715 269.972 501.715 269.406C501.715 268.833 501.602 268.393 501.375 268.088C501.151 267.78 500.835 267.626 500.426 267.626ZM504.768 269.364L503.168 267.118H503.962L505.176 268.882L506.385 267.118H507.17L505.57 269.364L507.254 271.72H506.465L505.176 269.856L503.874 271.72H503.084L504.768 269.364Z" fill="#F7E5FF"/>
<line x1="659.5" y1="260.5" x2="648.5" y2="260.5" stroke="#C433FF" stroke-linecap="round"/>
<line x1="653.5" y1="276.5" x2="653.5" y2="260.5" stroke="#C433FF" stroke-linecap="round"/>
<line x1="659.5" y1="276.437" x2="648.5" y2="276.438" stroke="#C433FF" stroke-linecap="round"/>
<line x1="344.5" y1="260.5" x2="333.5" y2="260.5" stroke="#C433FF" stroke-linecap="round"/>
<line x1="338.5" y1="276.5" x2="338.5" y2="260.5" stroke="#C433FF" stroke-linecap="round"/>
<line x1="344.5" y1="276.437" x2="333.5" y2="276.438" stroke="#C433FF" stroke-linecap="round"/>
</g>
<rect x="311.5" y="46.9507" width="369" height="486" rx="10" stroke="#333333" stroke-width="4"/>
<defs>
<clipPath id="clip0_1109_5849">
<rect x="313.5" y="48.9507" width="365" height="482" rx="8" fill="white"/>
</clipPath>
</defs>
</svg>
