<svg width="728" height="150" viewBox="0 0 728 150" fill="none" xmlns="http://www.w3.org/2000/svg">
<rect x="1" y="1.71436" width="726" height="146.571" rx="7" fill="#F3F6F9"/>
<rect x="1" y="1.71436" width="726" height="146.571" rx="7" stroke="#E6EBF0" stroke-width="2"/>
<rect x="185.607" y="32.0536" width="356.786" height="85.8929" rx="5.94643" fill="white"/>
<rect x="185.607" y="32.0536" width="356.786" height="85.8929" rx="5.94643" stroke="#E6EBF0" stroke-width="1.32143"/>
<path fill-rule="evenodd" clip-rule="evenodd" d="M260.317 106.985H196.872V106.377H260.317V106.985Z" fill="black"/>
<path d="M216.033 78.6007C216.033 76.2056 217.982 74.2565 220.377 74.2565H237.936V63.8337C237.936 61.4386 239.885 59.4895 242.28 59.4895H254.701C257.096 59.4895 259.046 61.4386 259.046 63.8337V105.558L216.033 105.64V78.6007Z" fill="#FFCC00"/>
<path d="M254.701 60.5136C256.535 60.5136 258.038 62.0002 258.038 63.8502V104.567L217.057 104.649V101.329V78.6007C217.057 76.7672 218.544 75.2641 220.394 75.2641H236.945H238.96V73.2324V63.8337C238.96 62.0002 240.446 60.4971 242.296 60.4971H254.701M254.701 58.4819H242.28C239.34 58.4819 236.928 60.8935 236.928 63.8337V73.2324H220.377C217.437 73.2324 215.025 75.644 215.025 78.5842V101.296V106.648L260.053 106.565V63.8502C260.053 60.8935 257.642 58.4819 254.701 58.4819Z" fill="white"/>
<path d="M258.021 100.173H217.074V106.714H258.021V100.173Z" fill="#FFCC00"/>
<path fill-rule="evenodd" clip-rule="evenodd" d="M242.28 58.8022C239.507 58.8022 237.232 61.0779 237.232 63.8503V73.5527H220.377C217.605 73.5527 215.329 75.8283 215.329 78.6008V106.36L259.749 106.279V63.8503C259.749 61.0779 257.474 58.8022 254.701 58.8022H242.28ZM236.624 63.8503C236.624 60.7424 239.172 58.1948 242.28 58.1948H254.701C257.809 58.1948 260.357 60.7424 260.357 63.8503V106.885L214.722 106.969V78.6008C214.722 75.4928 217.269 72.9453 220.377 72.9453H236.624V63.8503Z" fill="black"/>
<path d="M246.773 73.5465C246.046 73.5465 245.451 72.9518 245.451 72.225V67.9965C245.451 67.2697 246.046 66.675 246.773 66.675H250.638C251.365 66.675 251.959 67.2697 251.959 67.9965V72.225C251.959 72.9518 251.365 73.5465 250.638 73.5465H246.773Z" fill="white"/>
<path d="M250.638 66.9888C251.2 66.9888 251.646 67.4348 251.646 67.9964V72.225C251.646 72.7866 251.2 73.2326 250.638 73.2326H246.773C246.211 73.2326 245.765 72.7866 245.765 72.225V67.9964C245.765 67.4348 246.211 66.9888 246.773 66.9888H250.638ZM250.638 66.3777H246.773C245.881 66.3777 245.154 67.1045 245.154 67.9964V72.225C245.154 73.117 245.881 73.8438 246.773 73.8438H250.638C251.53 73.8438 252.257 73.117 252.257 72.225V67.9964C252.257 67.1045 251.53 66.3777 250.638 66.3777Z" fill="black"/>
<path d="M246.773 87.4709C246.046 87.4709 245.451 86.8762 245.451 86.1494V81.9374C245.451 81.2106 246.046 80.616 246.773 80.616H250.638C251.365 80.616 251.959 81.2106 251.959 81.9374V86.166C251.959 86.8928 251.365 87.4874 250.638 87.4874H246.773V87.4709Z" fill="white"/>
<path d="M250.638 80.9132C251.2 80.9132 251.646 81.3592 251.646 81.9208V86.1494C251.646 86.711 251.2 87.157 250.638 87.157H246.773C246.211 87.157 245.765 86.711 245.765 86.1494V81.9374C245.765 81.3757 246.211 80.9298 246.773 80.9298H250.638M250.638 80.3186H246.773C245.881 80.3186 245.154 81.0454 245.154 81.9374V86.1659C245.154 87.0579 245.881 87.7847 246.773 87.7847H250.638C251.53 87.7847 252.257 87.0579 252.257 86.1659V81.9374C252.257 81.0289 251.53 80.3186 250.638 80.3186Z" fill="black"/>
<path d="M235.937 87.4709C235.21 87.4709 234.616 86.8762 234.616 86.1494V81.9374C234.616 81.2106 235.21 80.616 235.937 80.616H239.802C240.529 80.616 241.124 81.2106 241.124 81.9374V86.166C241.124 86.8928 240.529 87.4874 239.802 87.4874H235.937V87.4709Z" fill="white"/>
<path d="M239.802 80.9132C240.364 80.9132 240.81 81.3592 240.81 81.9208V86.1494C240.81 86.711 240.364 87.157 239.802 87.157H235.937C235.375 87.157 234.929 86.711 234.929 86.1494V81.9374C234.929 81.3757 235.375 80.9298 235.937 80.9298H239.802M239.802 80.3186H235.937C235.045 80.3186 234.318 81.0454 234.318 81.9374V86.1659C234.318 87.0579 235.045 87.7847 235.937 87.7847H239.802C240.694 87.7847 241.421 87.0579 241.421 86.1659V81.9374C241.421 81.0289 240.711 80.3186 239.802 80.3186Z" fill="black"/>
<path d="M225.118 87.4709C224.391 87.4709 223.796 86.8762 223.796 86.1494V81.9374C223.796 81.2106 224.391 80.616 225.118 80.616H228.983C229.71 80.616 230.304 81.2106 230.304 81.9374V86.166C230.304 86.8928 229.71 87.4874 228.983 87.4874H225.118V87.4709Z" fill="white"/>
<path d="M228.983 80.9132C229.545 80.9132 229.991 81.3592 229.991 81.9208V86.1494C229.991 86.711 229.545 87.157 228.983 87.157H225.118C224.556 87.157 224.11 86.711 224.11 86.1494V81.9374C224.11 81.3757 224.556 80.9298 225.118 80.9298H228.983M228.983 80.3186H225.118C224.226 80.3186 223.499 81.0454 223.499 81.9374V86.1659C223.499 87.0579 224.226 87.7847 225.118 87.7847H228.983C229.875 87.7847 230.602 87.0579 230.602 86.1659V81.9374C230.602 81.0289 229.875 80.3186 228.983 80.3186Z" fill="black"/>
<path d="M235.937 101.412C235.21 101.412 234.616 100.817 234.616 100.091V95.862C234.616 95.1352 235.21 94.5405 235.937 94.5405H239.802C240.529 94.5405 241.124 95.1352 241.124 95.862V100.091C241.124 100.817 240.529 101.412 239.802 101.412H235.937Z" fill="white"/>
<path d="M239.802 94.8543C240.364 94.8543 240.81 95.3003 240.81 95.8619V100.09C240.81 100.652 240.364 101.098 239.802 101.098H235.937C235.375 101.098 234.929 100.652 234.929 100.09V95.8619C234.929 95.3003 235.375 94.8543 235.937 94.8543H239.802ZM239.802 94.2432H235.937C235.045 94.2432 234.318 94.9699 234.318 95.8619V100.09C234.318 100.982 235.045 101.709 235.937 101.709H239.802C240.694 101.709 241.421 100.982 241.421 100.09V95.8619C241.421 94.9699 240.711 94.2432 239.802 94.2432Z" fill="black"/>
<path d="M225.118 101.412C224.391 101.412 223.796 100.817 223.796 100.091V95.862C223.796 95.1352 224.391 94.5405 225.118 94.5405H228.983C229.71 94.5405 230.304 95.1352 230.304 95.862V100.091C230.304 100.817 229.71 101.412 228.983 101.412H225.118Z" fill="white"/>
<path d="M228.983 94.8543C229.545 94.8543 229.991 95.3003 229.991 95.8619V100.09C229.991 100.652 229.545 101.098 228.983 101.098H225.118C224.556 101.098 224.11 100.652 224.11 100.09V95.8619C224.11 95.3003 224.556 94.8543 225.118 94.8543H228.983ZM228.983 94.2432H225.118C224.226 94.2432 223.499 94.9699 223.499 95.8619V100.09C223.499 100.982 224.226 101.709 225.118 101.709H228.983C229.875 101.709 230.602 100.982 230.602 100.09V95.8619C230.602 94.9699 229.875 94.2432 228.983 94.2432Z" fill="black"/>
<path d="M246.773 101.412C246.046 101.412 245.451 100.817 245.451 100.091V95.862C245.451 95.1352 246.046 94.5405 246.773 94.5405H250.638C251.365 94.5405 251.959 95.1352 251.959 95.862V100.091C251.959 100.817 251.365 101.412 250.638 101.412H246.773Z" fill="white"/>
<path d="M250.638 94.8543C251.2 94.8543 251.646 95.3003 251.646 95.8619V100.09C251.646 100.652 251.2 101.098 250.638 101.098H246.773C246.211 101.098 245.765 100.652 245.765 100.09V95.8619C245.765 95.3003 246.211 94.8543 246.773 94.8543H250.638ZM250.638 94.2432H246.773C245.881 94.2432 245.154 94.9699 245.154 95.8619V100.09C245.154 100.982 245.881 101.709 246.773 101.709H250.638C251.53 101.709 252.257 100.982 252.257 100.09V95.8619C252.257 94.9699 251.53 94.2432 250.638 94.2432Z" fill="black"/>
<path d="M209.327 70.788C216.114 70.788 221.616 65.2859 221.616 58.4988C221.616 51.7116 216.114 46.2095 209.327 46.2095C202.54 46.2095 197.038 51.7116 197.038 58.4988C197.038 65.2859 202.54 70.788 209.327 70.788Z" fill="#FFCC00"/>
<path d="M209.327 46.672C215.851 46.672 221.154 51.9742 221.154 58.4987C221.154 65.0233 215.851 70.3255 209.327 70.3255C202.802 70.3255 197.5 65.0068 197.5 58.4987C197.5 51.9742 202.802 46.672 209.327 46.672ZM209.327 46.0608C202.455 46.0608 196.889 51.6273 196.889 58.4987C196.889 65.3702 202.455 70.9367 209.327 70.9367C216.198 70.9367 221.765 65.3702 221.765 58.4987C221.748 51.6273 216.182 46.0608 209.327 46.0608Z" fill="black"/>
<path fill-rule="evenodd" clip-rule="evenodd" d="M209.327 55.4695C209.495 55.4695 209.631 55.6055 209.631 55.7732V106.516C209.631 106.684 209.495 106.82 209.327 106.82C209.159 106.82 209.023 106.684 209.023 106.516V55.7732C209.023 55.6055 209.159 55.4695 209.327 55.4695Z" fill="black"/>
<path fill-rule="evenodd" clip-rule="evenodd" d="M204.589 56.0184C204.709 55.9013 204.901 55.9037 205.018 56.0238L209.495 60.6158C209.612 60.7359 209.609 60.9282 209.489 61.0453C209.369 61.1624 209.177 61.1599 209.06 61.0398L204.583 56.4478C204.466 56.3277 204.469 56.1354 204.589 56.0184Z" fill="black"/>
<path fill-rule="evenodd" clip-rule="evenodd" d="M214.288 58.043C214.412 58.1559 214.421 58.348 214.308 58.472L209.601 63.6421C209.488 63.7662 209.296 63.7752 209.172 63.6622C209.048 63.5493 209.039 63.3572 209.152 63.2332L213.859 58.0631C213.972 57.9391 214.164 57.9301 214.288 58.043Z" fill="black"/>
<path d="M290.806 69.7844C290.533 69.7844 290.322 69.7095 290.172 69.5598C290.031 69.4012 289.96 69.1854 289.96 68.9123V61.7766H287.384C287.155 61.7766 286.974 61.7149 286.842 61.5916C286.718 61.4594 286.657 61.2832 286.657 61.063C286.657 60.8339 286.718 60.6622 286.842 60.5476C286.974 60.4243 287.155 60.3626 287.384 60.3626H294.229C294.458 60.3626 294.634 60.4243 294.757 60.5476C294.889 60.6622 294.955 60.8339 294.955 61.063C294.955 61.2832 294.889 61.4594 294.757 61.5916C294.634 61.7149 294.458 61.7766 294.229 61.7766H291.652V68.9123C291.652 69.1854 291.581 69.4012 291.44 69.5598C291.299 69.7095 291.088 69.7844 290.806 69.7844ZM297.305 69.7712C297.04 69.7712 296.838 69.6919 296.697 69.5334C296.556 69.3748 296.485 69.1545 296.485 68.8726V64.023C296.485 63.7323 296.556 63.512 296.697 63.3623C296.838 63.2037 297.04 63.1244 297.305 63.1244C297.569 63.1244 297.771 63.2037 297.912 63.3623C298.062 63.512 298.137 63.7323 298.137 64.023V68.8726C298.137 69.1545 298.067 69.3748 297.926 69.5334C297.785 69.6919 297.578 69.7712 297.305 69.7712ZM297.926 62.2787C297.838 62.402 297.732 62.4725 297.609 62.4901C297.485 62.5078 297.366 62.4857 297.252 62.4241C297.137 62.3624 297.054 62.2743 297.001 62.1598C296.957 62.0453 296.97 61.9175 297.04 61.7766L298.045 59.8076C298.124 59.6403 298.23 59.5345 298.362 59.4905C298.494 59.4376 298.63 59.4288 298.771 59.4641C298.912 59.4993 299.031 59.5654 299.128 59.6623C299.234 59.7592 299.296 59.8781 299.313 60.0191C299.34 60.1512 299.304 60.2878 299.207 60.4287L297.926 62.2787ZM302.813 69.8109C302.241 69.8109 301.761 69.7139 301.373 69.5201C300.994 69.3263 300.712 69.0444 300.527 68.6744C300.342 68.2956 300.25 67.8287 300.25 67.2737V64.4591H299.563C299.351 64.4591 299.188 64.4062 299.074 64.3005C298.959 64.186 298.902 64.0318 298.902 63.838C298.902 63.6354 298.959 63.4812 299.074 63.3755C299.188 63.2698 299.351 63.2169 299.563 63.2169H300.25V62.0144C300.25 61.7413 300.32 61.5343 300.461 61.3934C300.611 61.2524 300.818 61.1819 301.082 61.1819C301.347 61.1819 301.549 61.2524 301.69 61.3934C301.831 61.5343 301.902 61.7413 301.902 62.0144V63.2169H303.302C303.514 63.2169 303.677 63.2698 303.791 63.3755C303.906 63.4812 303.963 63.6354 303.963 63.838C303.963 64.0318 303.906 64.186 303.791 64.3005C303.677 64.4062 303.514 64.4591 303.302 64.4591H301.902V67.1812C301.902 67.6041 301.994 67.9212 302.179 68.1326C302.364 68.3441 302.664 68.4498 303.078 68.4498C303.227 68.4498 303.36 68.4366 303.474 68.4101C303.589 68.3837 303.69 68.3661 303.778 68.3573C303.884 68.3485 303.972 68.3837 304.042 68.463C304.113 68.5335 304.148 68.6832 304.148 68.9123C304.148 69.0885 304.117 69.247 304.056 69.388C304.003 69.5201 303.901 69.6126 303.752 69.6655C303.637 69.7007 303.487 69.7316 303.302 69.758C303.117 69.7932 302.954 69.8109 302.813 69.8109ZM307.264 69.8109C306.726 69.8109 306.282 69.7139 305.929 69.5201C305.577 69.3175 305.313 69.018 305.136 68.6216C304.969 68.2251 304.885 67.7318 304.885 67.1416V63.9437C304.885 63.6618 304.956 63.4548 305.097 63.3226C305.238 63.1817 305.44 63.1112 305.705 63.1112C305.969 63.1112 306.171 63.1817 306.312 63.3226C306.462 63.4548 306.537 63.6618 306.537 63.9437V67.168C306.537 67.6261 306.63 67.9653 306.815 68.1855C307 68.4057 307.295 68.5159 307.7 68.5159C308.14 68.5159 308.502 68.3661 308.783 68.0666C309.065 67.7582 309.206 67.353 309.206 66.8509V63.9437C309.206 63.6618 309.277 63.4548 309.418 63.3226C309.559 63.1817 309.761 63.1112 310.026 63.1112C310.29 63.1112 310.493 63.1817 310.633 63.3226C310.783 63.4548 310.858 63.6618 310.858 63.9437V68.9387C310.858 69.5025 310.589 69.7844 310.052 69.7844C309.797 69.7844 309.598 69.7139 309.457 69.573C309.316 69.4232 309.246 69.2118 309.246 68.9387V67.9344L309.431 68.3309C309.246 68.8066 308.964 69.1722 308.585 69.4276C308.215 69.6831 307.775 69.8109 307.264 69.8109ZM314.784 69.8109C314.053 69.8109 313.502 69.6038 313.132 69.1898C312.762 68.7669 312.577 68.1503 312.577 67.3398V61.0894C312.577 60.8163 312.648 60.6093 312.789 60.4684C312.93 60.3274 313.132 60.2569 313.397 60.2569C313.661 60.2569 313.864 60.3274 314.004 60.4684C314.154 60.6093 314.229 60.8163 314.229 61.0894V67.2605C314.229 67.6657 314.313 67.9653 314.48 68.1591C314.656 68.3529 314.903 68.4498 315.22 68.4498C315.291 68.4498 315.357 68.4498 315.418 68.4498C315.48 68.441 315.542 68.4322 315.603 68.4234C315.727 68.4057 315.81 68.441 315.854 68.5291C315.899 68.6084 315.921 68.7757 315.921 69.0312C315.921 69.2514 315.876 69.4232 315.788 69.5466C315.7 69.6699 315.555 69.7448 315.352 69.7712C315.264 69.78 315.172 69.7888 315.075 69.7976C314.978 69.8064 314.881 69.8109 314.784 69.8109ZM319.679 69.8109C319.01 69.8109 318.428 69.6743 317.935 69.4012C317.442 69.1281 317.059 68.7405 316.785 68.2384C316.512 67.7274 316.376 67.1284 316.376 66.4412C316.376 65.9214 316.451 65.4589 316.6 65.0537C316.759 64.6397 316.984 64.2873 317.274 63.9966C317.565 63.697 317.913 63.4724 318.318 63.3226C318.724 63.1641 319.177 63.0848 319.679 63.0848C320.349 63.0848 320.93 63.2213 321.424 63.4944C321.917 63.7675 322.3 64.1551 322.573 64.6573C322.846 65.1594 322.983 65.7541 322.983 66.4412C322.983 66.961 322.904 67.4279 322.745 67.8419C322.595 68.256 322.375 68.6128 322.084 68.9123C321.794 69.203 321.446 69.4276 321.04 69.5862C320.635 69.736 320.182 69.8109 319.679 69.8109ZM319.679 68.5555C320.005 68.5555 320.292 68.4762 320.538 68.3176C320.785 68.1591 320.974 67.9256 321.107 67.6173C321.247 67.3001 321.318 66.9081 321.318 66.4412C321.318 65.7364 321.168 65.2123 320.869 64.8687C320.569 64.5163 320.173 64.3401 319.679 64.3401C319.353 64.3401 319.067 64.4194 318.82 64.578C318.574 64.7278 318.38 64.9612 318.239 65.2784C318.107 65.5867 318.041 65.9743 318.041 66.4412C318.041 67.1372 318.191 67.6657 318.49 68.0269C318.79 68.3793 319.186 68.5555 319.679 68.5555ZM330.418 69.8109C329.854 69.8109 329.356 69.6743 328.925 69.4012C328.502 69.1281 328.172 68.7405 327.934 68.2384C327.696 67.7274 327.577 67.1284 327.577 66.4412C327.577 65.7453 327.696 65.1506 327.934 64.6573C328.172 64.1551 328.502 63.7675 328.925 63.4944C329.356 63.2213 329.854 63.0848 330.418 63.0848C330.955 63.0848 331.422 63.2169 331.819 63.4812C332.224 63.7455 332.497 64.0935 332.638 64.5251H332.493V61.0894C332.493 60.8163 332.563 60.6093 332.704 60.4684C332.845 60.3274 333.048 60.2569 333.312 60.2569C333.576 60.2569 333.779 60.3274 333.92 60.4684C334.07 60.6093 334.144 60.8163 334.144 61.0894V68.9387C334.144 69.2118 334.074 69.4232 333.933 69.573C333.792 69.7139 333.589 69.7844 333.325 69.7844C333.061 69.7844 332.858 69.7139 332.717 69.573C332.576 69.4232 332.506 69.2118 332.506 68.9387V67.908L332.651 68.3044C332.519 68.7625 332.25 69.1281 331.845 69.4012C331.44 69.6743 330.964 69.8109 330.418 69.8109ZM330.881 68.5555C331.206 68.5555 331.493 68.4762 331.739 68.3176C331.986 68.1591 332.176 67.9256 332.308 67.6173C332.449 67.3001 332.519 66.9081 332.519 66.4412C332.519 65.7364 332.369 65.2123 332.07 64.8687C331.77 64.5163 331.374 64.3401 330.881 64.3401C330.555 64.3401 330.268 64.4194 330.022 64.578C329.775 64.7278 329.581 64.9612 329.44 65.2784C329.308 65.5867 329.242 65.9743 329.242 66.4412C329.242 67.1372 329.392 67.6657 329.691 68.0269C329.991 68.3793 330.387 68.5555 330.881 68.5555ZM339.042 69.8109C338.311 69.8109 337.681 69.6743 337.152 69.4012C336.624 69.1281 336.214 68.7405 335.923 68.2384C335.641 67.7362 335.5 67.1416 335.5 66.4544C335.5 65.7849 335.637 65.1991 335.91 64.6969C336.192 64.1948 336.575 63.8028 337.06 63.5209C337.553 63.2301 338.112 63.0848 338.738 63.0848C339.196 63.0848 339.606 63.1597 339.967 63.3094C340.337 63.4592 340.65 63.675 340.905 63.9569C341.169 64.2388 341.368 64.5824 341.5 64.9876C341.641 65.3841 341.711 65.8334 341.711 66.3355C341.711 66.4941 341.654 66.6174 341.539 66.7055C341.434 66.7848 341.279 66.8244 341.077 66.8244H336.835V65.873H340.548L340.337 66.0712C340.337 65.666 340.275 65.3268 340.152 65.0537C340.037 64.7806 339.865 64.5736 339.636 64.4326C339.416 64.2829 339.139 64.208 338.804 64.208C338.434 64.208 338.117 64.2961 337.853 64.4723C337.597 64.6397 337.399 64.8819 337.258 65.1991C337.126 65.5074 337.06 65.8774 337.06 66.3091V66.4016C337.06 67.1239 337.227 67.6657 337.562 68.0269C337.905 68.3793 338.408 68.5555 339.068 68.5555C339.297 68.5555 339.553 68.5291 339.835 68.4762C340.125 68.4145 340.398 68.3132 340.654 68.1723C340.839 68.0666 341.002 68.0225 341.143 68.0401C341.284 68.0489 341.394 68.0974 341.473 68.1855C341.561 68.2736 341.614 68.3837 341.632 68.5159C341.649 68.6392 341.623 68.7669 341.553 68.8991C341.491 69.0312 341.381 69.1457 341.222 69.2426C340.914 69.4364 340.557 69.5818 340.152 69.6787C339.755 69.7668 339.385 69.8109 339.042 69.8109ZM348.813 69.8109C348.082 69.8109 347.532 69.6038 347.162 69.1898C346.792 68.7669 346.607 68.1503 346.607 67.3398V61.0894C346.607 60.8163 346.677 60.6093 346.818 60.4684C346.959 60.3274 347.162 60.2569 347.426 60.2569C347.69 60.2569 347.893 60.3274 348.034 60.4684C348.184 60.6093 348.258 60.8163 348.258 61.0894V67.2605C348.258 67.6657 348.342 67.9653 348.51 68.1591C348.686 68.3529 348.932 68.4498 349.25 68.4498C349.32 68.4498 349.386 68.4498 349.448 68.4498C349.509 68.441 349.571 68.4322 349.633 68.4234C349.756 68.4057 349.84 68.441 349.884 68.5291C349.928 68.6084 349.95 68.7757 349.95 69.0312C349.95 69.2514 349.906 69.4232 349.818 69.5466C349.73 69.6699 349.584 69.7448 349.382 69.7712C349.294 69.78 349.201 69.7888 349.104 69.7976C349.007 69.8064 348.91 69.8109 348.813 69.8109ZM352.954 69.8109C352.487 69.8109 352.069 69.7228 351.699 69.5466C351.337 69.3616 351.051 69.1149 350.84 68.8066C350.637 68.4982 350.536 68.1503 350.536 67.7626C350.536 67.2869 350.659 66.9125 350.906 66.6394C351.152 66.3575 351.553 66.1549 352.108 66.0316C352.663 65.9082 353.408 65.8466 354.341 65.8466H355.002V66.798H354.355C353.808 66.798 353.372 66.8244 353.046 66.8773C352.721 66.9301 352.487 67.0226 352.346 67.1548C352.214 67.2781 352.148 67.4543 352.148 67.6834C352.148 67.9741 352.249 68.2119 352.452 68.3969C352.654 68.5819 352.936 68.6744 353.298 68.6744C353.588 68.6744 353.844 68.6084 354.064 68.4762C354.293 68.3353 354.474 68.1459 354.606 67.908C354.738 67.6701 354.804 67.397 354.804 67.0887V65.5691C354.804 65.1286 354.707 64.8114 354.513 64.6176C354.319 64.4238 353.993 64.3269 353.535 64.3269C353.28 64.3269 353.002 64.3578 352.703 64.4194C352.412 64.4811 352.104 64.5868 351.778 64.7366C351.611 64.8159 351.461 64.8379 351.329 64.8026C351.205 64.7674 351.108 64.6969 351.038 64.5912C350.967 64.4767 350.932 64.3534 350.932 64.2212C350.932 64.0891 350.967 63.9613 351.038 63.838C351.108 63.7059 351.227 63.6089 351.395 63.5473C351.8 63.3799 352.188 63.261 352.558 63.1905C352.936 63.12 353.28 63.0848 353.588 63.0848C354.223 63.0848 354.742 63.1817 355.148 63.3755C355.562 63.5693 355.87 63.8644 356.073 64.2609C356.275 64.6485 356.376 65.1506 356.376 65.7673V68.9387C356.376 69.2118 356.31 69.4232 356.178 69.573C356.046 69.7139 355.857 69.7844 355.61 69.7844C355.363 69.7844 355.17 69.7139 355.029 69.573C354.896 69.4232 354.83 69.2118 354.83 68.9387V68.3044H354.936C354.874 68.6128 354.751 68.8814 354.566 69.1105C354.39 69.3307 354.165 69.5025 353.892 69.6259C353.619 69.7492 353.306 69.8109 352.954 69.8109ZM364.601 69.8109C364.028 69.8109 363.548 69.7139 363.16 69.5201C362.781 69.3263 362.499 69.0444 362.314 68.6744C362.129 68.2956 362.037 67.8287 362.037 67.2737V64.4591H361.35C361.138 64.4591 360.975 64.4062 360.861 64.3005C360.746 64.186 360.689 64.0318 360.689 63.838C360.689 63.6354 360.746 63.4812 360.861 63.3755C360.975 63.2698 361.138 63.2169 361.35 63.2169H362.037V62.0144C362.037 61.7413 362.107 61.5343 362.248 61.3934C362.398 61.2524 362.605 61.1819 362.869 61.1819C363.134 61.1819 363.336 61.2524 363.477 61.3934C363.618 61.5343 363.689 61.7413 363.689 62.0144V63.2169H365.089C365.301 63.2169 365.464 63.2698 365.578 63.3755C365.693 63.4812 365.75 63.6354 365.75 63.838C365.75 64.0318 365.693 64.186 365.578 64.3005C365.464 64.4062 365.301 64.4591 365.089 64.4591H363.689V67.1812C363.689 67.6041 363.781 67.9212 363.966 68.1326C364.151 68.3441 364.451 68.4498 364.865 68.4498C365.015 68.4498 365.147 68.4366 365.261 68.4101C365.376 68.3837 365.477 68.3661 365.565 68.3573C365.671 68.3485 365.759 68.3837 365.829 68.463C365.9 68.5335 365.935 68.6832 365.935 68.9123C365.935 69.0885 365.904 69.247 365.843 69.388C365.79 69.5201 365.688 69.6126 365.539 69.6655C365.424 69.7007 365.274 69.7316 365.089 69.758C364.904 69.7932 364.741 69.8109 364.601 69.8109ZM368.84 69.8109C368.373 69.8109 367.954 69.7228 367.584 69.5466C367.223 69.3616 366.937 69.1149 366.725 68.8066C366.523 68.4982 366.421 68.1503 366.421 67.7626C366.421 67.2869 366.545 66.9125 366.791 66.6394C367.038 66.3575 367.439 66.1549 367.994 66.0316C368.549 65.9082 369.293 65.8466 370.227 65.8466H370.888V66.798H370.24C369.694 66.798 369.258 66.8244 368.932 66.8773C368.606 66.9301 368.373 67.0226 368.232 67.1548C368.1 67.2781 368.033 67.4543 368.033 67.6834C368.033 67.9741 368.135 68.2119 368.337 68.3969C368.54 68.5819 368.822 68.6744 369.183 68.6744C369.474 68.6744 369.729 68.6084 369.95 68.4762C370.179 68.3353 370.359 68.1459 370.491 67.908C370.623 67.6701 370.69 67.397 370.69 67.0887V65.5691C370.69 65.1286 370.593 64.8114 370.399 64.6176C370.205 64.4238 369.879 64.3269 369.421 64.3269C369.165 64.3269 368.888 64.3578 368.588 64.4194C368.298 64.4811 367.989 64.5868 367.663 64.7366C367.496 64.8159 367.346 64.8379 367.214 64.8026C367.091 64.7674 366.994 64.6969 366.923 64.5912C366.853 64.4767 366.818 64.3534 366.818 64.2212C366.818 64.0891 366.853 63.9613 366.923 63.838C366.994 63.7059 367.113 63.6089 367.28 63.5473C367.685 63.3799 368.073 63.261 368.443 63.1905C368.822 63.12 369.165 63.0848 369.474 63.0848C370.108 63.0848 370.628 63.1817 371.033 63.3755C371.447 63.5693 371.755 63.8644 371.958 64.2609C372.161 64.6485 372.262 65.1506 372.262 65.7673V68.9387C372.262 69.2118 372.196 69.4232 372.064 69.573C371.932 69.7139 371.742 69.7844 371.496 69.7844C371.249 69.7844 371.055 69.7139 370.914 69.573C370.782 69.4232 370.716 69.2118 370.716 68.9387V68.3044H370.822C370.76 68.6128 370.637 68.8814 370.452 69.1105C370.275 69.3307 370.051 69.5025 369.778 69.6259C369.505 69.7492 369.192 69.8109 368.84 69.8109ZM374.784 69.7844C374.511 69.7844 374.3 69.7139 374.15 69.573C374.009 69.4232 373.939 69.2118 373.939 68.9387V63.9437C373.939 63.6706 374.009 63.4636 374.15 63.3226C374.291 63.1817 374.489 63.1112 374.745 63.1112C375 63.1112 375.198 63.1817 375.339 63.3226C375.48 63.4636 375.551 63.6706 375.551 63.9437V64.7762H375.419C375.542 64.2476 375.784 63.8468 376.145 63.5737C376.507 63.3006 376.987 63.1376 377.586 63.0848C377.771 63.0672 377.916 63.1156 378.022 63.2301C378.136 63.3359 378.202 63.5032 378.22 63.7323C378.238 63.9525 378.185 64.1331 378.061 64.2741C377.947 64.4062 377.771 64.4855 377.533 64.5119L377.242 64.5384C376.705 64.5912 376.3 64.7586 376.026 65.0405C375.753 65.3136 375.617 65.7012 375.617 66.2034V68.9387C375.617 69.2118 375.546 69.4232 375.405 69.573C375.264 69.7139 375.057 69.7844 374.784 69.7844ZM378.32 72.1762C378.127 72.1938 377.968 72.163 377.845 72.0837C377.721 72.0132 377.638 71.9207 377.594 71.8062C377.541 71.6917 377.523 71.5728 377.541 71.4494C377.558 71.3261 377.611 71.216 377.699 71.1191C377.779 71.031 377.889 70.9825 378.03 70.9737C378.426 70.9385 378.712 70.8239 378.889 70.6301C379.074 70.4451 379.166 70.1588 379.166 69.7712V63.9437C379.166 63.6706 379.237 63.4636 379.378 63.3226C379.527 63.1817 379.734 63.1112 379.999 63.1112C380.263 63.1112 380.466 63.1817 380.607 63.3226C380.747 63.4636 380.818 63.6706 380.818 63.9437V69.6259C380.818 70.1897 380.725 70.6522 380.54 71.0134C380.364 71.3745 380.091 71.6476 379.721 71.8326C379.36 72.0176 378.893 72.1322 378.32 72.1762ZM379.985 61.8955C379.677 61.8955 379.435 61.8206 379.259 61.6709C379.091 61.5123 379.008 61.2964 379.008 61.0234C379.008 60.7414 379.091 60.5256 379.259 60.3759C379.435 60.2261 379.677 60.1512 379.985 60.1512C380.303 60.1512 380.545 60.2261 380.712 60.3759C380.88 60.5256 380.963 60.7414 380.963 61.0234C380.963 61.2964 380.88 61.5123 380.712 61.6709C380.545 61.8206 380.303 61.8955 379.985 61.8955ZM385.718 69.8109C384.986 69.8109 384.357 69.6743 383.828 69.4012C383.299 69.1281 382.89 68.7405 382.599 68.2384C382.317 67.7362 382.176 67.1416 382.176 66.4544C382.176 65.7849 382.313 65.1991 382.586 64.6969C382.868 64.1948 383.251 63.8028 383.736 63.5209C384.229 63.2301 384.788 63.0848 385.414 63.0848C385.872 63.0848 386.281 63.1597 386.643 63.3094C387.013 63.4592 387.325 63.675 387.581 63.9569C387.845 64.2388 388.043 64.5824 388.176 64.9876C388.316 65.3841 388.387 65.8334 388.387 66.3355C388.387 66.4941 388.33 66.6174 388.215 66.7055C388.109 66.7848 387.955 66.8244 387.753 66.8244H383.511V65.873H387.224L387.013 66.0712C387.013 65.666 386.951 65.3268 386.828 65.0537C386.713 64.7806 386.541 64.5736 386.312 64.4326C386.092 64.2829 385.815 64.208 385.48 64.208C385.11 64.208 384.793 64.2961 384.528 64.4723C384.273 64.6397 384.075 64.8819 383.934 65.1991C383.802 65.5074 383.736 65.8774 383.736 66.3091V66.4016C383.736 67.1239 383.903 67.6657 384.238 68.0269C384.581 68.3793 385.083 68.5555 385.744 68.5555C385.973 68.5555 386.229 68.5291 386.511 68.4762C386.801 68.4145 387.074 68.3132 387.33 68.1723C387.515 68.0666 387.678 68.0225 387.819 68.0401C387.96 68.0489 388.07 68.0974 388.149 68.1855C388.237 68.2736 388.29 68.3837 388.308 68.5159C388.325 68.6392 388.299 68.7669 388.228 68.8991C388.167 69.0312 388.057 69.1457 387.898 69.2426C387.59 69.4364 387.233 69.5818 386.828 69.6787C386.431 69.7668 386.061 69.8109 385.718 69.8109ZM392.629 69.8109C392.057 69.8109 391.577 69.7139 391.189 69.5201C390.81 69.3263 390.528 69.0444 390.343 68.6744C390.158 68.2956 390.066 67.8287 390.066 67.2737V64.4591H389.379C389.167 64.4591 389.004 64.4062 388.89 64.3005C388.775 64.186 388.718 64.0318 388.718 63.838C388.718 63.6354 388.775 63.4812 388.89 63.3755C389.004 63.2698 389.167 63.2169 389.379 63.2169H390.066V62.0144C390.066 61.7413 390.136 61.5343 390.277 61.3934C390.427 61.2524 390.634 61.1819 390.898 61.1819C391.162 61.1819 391.365 61.2524 391.506 61.3934C391.647 61.5343 391.717 61.7413 391.717 62.0144V63.2169H393.118C393.33 63.2169 393.493 63.2698 393.607 63.3755C393.722 63.4812 393.779 63.6354 393.779 63.838C393.779 64.0318 393.722 64.186 393.607 64.3005C393.493 64.4062 393.33 64.4591 393.118 64.4591H391.717V67.1812C391.717 67.6041 391.81 67.9212 391.995 68.1326C392.18 68.3441 392.479 68.4498 392.894 68.4498C393.043 68.4498 393.175 68.4366 393.29 68.4101C393.404 68.3837 393.506 68.3661 393.594 68.3573C393.7 68.3485 393.788 68.3837 393.858 68.463C393.929 68.5335 393.964 68.6832 393.964 68.9123C393.964 69.0885 393.933 69.247 393.871 69.388C393.819 69.5201 393.717 69.6126 393.567 69.6655C393.453 69.7007 393.303 69.7316 393.118 69.758C392.933 69.7932 392.77 69.8109 392.629 69.8109ZM396.868 69.8109C396.401 69.8109 395.983 69.7228 395.613 69.5466C395.252 69.3616 394.965 69.1149 394.754 68.8066C394.551 68.4982 394.45 68.1503 394.45 67.7626C394.45 67.2869 394.573 66.9125 394.82 66.6394C395.067 66.3575 395.468 66.1549 396.023 66.0316C396.578 65.9082 397.322 65.8466 398.256 65.8466H398.916V66.798H398.269C397.723 66.798 397.287 66.8244 396.961 66.8773C396.635 66.9301 396.401 67.0226 396.26 67.1548C396.128 67.2781 396.062 67.4543 396.062 67.6834C396.062 67.9741 396.163 68.2119 396.366 68.3969C396.569 68.5819 396.851 68.6744 397.212 68.6744C397.503 68.6744 397.758 68.6084 397.978 68.4762C398.207 68.3353 398.388 68.1459 398.52 67.908C398.652 67.6701 398.718 67.397 398.718 67.0887V65.5691C398.718 65.1286 398.621 64.8114 398.428 64.6176C398.234 64.4238 397.908 64.3269 397.45 64.3269C397.194 64.3269 396.917 64.3578 396.617 64.4194C396.326 64.4811 396.018 64.5868 395.692 64.7366C395.525 64.8159 395.375 64.8379 395.243 64.8026C395.12 64.7674 395.023 64.6969 394.952 64.5912C394.882 64.4767 394.846 64.3534 394.846 64.2212C394.846 64.0891 394.882 63.9613 394.952 63.838C395.023 63.7059 395.142 63.6089 395.309 63.5473C395.714 63.3799 396.102 63.261 396.472 63.1905C396.851 63.12 397.194 63.0848 397.503 63.0848C398.137 63.0848 398.657 63.1817 399.062 63.3755C399.476 63.5693 399.784 63.8644 399.987 64.2609C400.189 64.6485 400.291 65.1506 400.291 65.7673V68.9387C400.291 69.2118 400.225 69.4232 400.093 69.573C399.96 69.7139 399.771 69.7844 399.524 69.7844C399.278 69.7844 399.084 69.7139 398.943 69.573C398.811 69.4232 398.745 69.2118 398.745 68.9387V68.3044H398.85C398.789 68.6128 398.665 68.8814 398.48 69.1105C398.304 69.3307 398.08 69.5025 397.806 69.6259C397.533 69.7492 397.221 69.8109 396.868 69.8109Z" fill="#101E37"/>
<path d="M293.758 84.476C293.758 85.7217 293.419 86.6749 292.741 87.3356C292.066 87.9929 291.094 88.3215 289.824 88.3215H287.734V80.7749H290.046C291.22 80.7749 292.132 81.1001 292.782 81.7505C293.433 82.4009 293.758 83.3094 293.758 84.476ZM292.829 84.5069C292.829 83.5228 292.581 82.7812 292.085 82.2822C291.593 81.7832 290.86 81.5337 289.886 81.5337H288.611V87.5627H289.68C290.726 87.5627 291.512 87.3064 292.039 86.7936C292.565 86.2774 292.829 85.5152 292.829 84.5069ZM297.707 88.4248C296.87 88.4248 296.21 88.1701 295.724 87.6608C295.243 87.1515 295.002 86.4443 295.002 85.5393C295.002 84.6274 295.225 83.903 295.673 83.3662C296.124 82.8293 296.728 82.5609 297.485 82.5609C298.194 82.5609 298.754 82.7949 299.167 83.2629C299.58 83.7275 299.787 84.3418 299.787 85.1057V85.6477H295.89C295.907 86.3119 296.074 86.816 296.39 87.1601C296.71 87.5042 297.159 87.6763 297.738 87.6763C298.347 87.6763 298.949 87.549 299.544 87.2943V88.0583C299.241 88.189 298.954 88.282 298.682 88.337C298.414 88.3955 298.089 88.4248 297.707 88.4248ZM297.474 83.2784C297.02 83.2784 296.657 83.4264 296.385 83.7223C296.117 84.0183 295.958 84.4278 295.91 84.9509H298.868C298.868 84.4106 298.748 83.9976 298.507 83.712C298.266 83.423 297.922 83.2784 297.474 83.2784ZM304.902 86.7781C304.902 87.3047 304.706 87.7107 304.314 87.9963C303.921 88.282 303.371 88.4248 302.662 88.4248C301.912 88.4248 301.327 88.306 300.907 88.0686V87.2737C301.179 87.4113 301.47 87.5197 301.779 87.5989C302.092 87.678 302.394 87.7176 302.683 87.7176C303.13 87.7176 303.474 87.6471 303.715 87.506C303.956 87.3614 304.076 87.1429 304.076 86.8504C304.076 86.6302 303.98 86.4426 303.787 86.2878C303.598 86.1295 303.226 85.9437 302.672 85.7303C302.146 85.5341 301.771 85.3638 301.547 85.2193C301.327 85.0713 301.162 84.9044 301.051 84.7186C300.945 84.5327 300.891 84.3108 300.891 84.0527C300.891 83.5916 301.079 83.2285 301.454 82.9636C301.829 82.6951 302.344 82.5609 302.997 82.5609C303.607 82.5609 304.202 82.6848 304.783 82.9326L304.479 83.6294C303.911 83.3954 303.397 83.2784 302.936 83.2784C302.529 83.2784 302.223 83.3421 302.017 83.4694C301.81 83.5967 301.707 83.7722 301.707 83.9959C301.707 84.1473 301.745 84.2764 301.821 84.3831C301.9 84.4897 302.025 84.5913 302.197 84.6876C302.369 84.784 302.7 84.9233 303.188 85.1057C303.859 85.35 304.312 85.5961 304.546 85.8439C304.783 86.0916 304.902 86.4031 304.902 86.7781ZM308.562 88.4248C307.743 88.4248 307.108 88.1736 306.657 87.6711C306.21 87.1653 305.986 86.4512 305.986 85.529C305.986 84.5826 306.213 83.8514 306.668 83.3352C307.125 82.819 307.776 82.5609 308.619 82.5609C308.891 82.5609 309.162 82.5902 309.434 82.6487C309.706 82.7072 309.919 82.776 310.074 82.8552L309.811 83.583C309.622 83.5073 309.415 83.4453 309.192 83.3971C308.968 83.3455 308.77 83.3197 308.598 83.3197C307.449 83.3197 306.874 84.0527 306.874 85.5187C306.874 86.2138 307.013 86.7472 307.292 87.1188C307.574 87.4905 307.991 87.6763 308.541 87.6763C309.013 87.6763 309.496 87.5748 309.992 87.3718V88.1305C309.613 88.3267 309.137 88.4248 308.562 88.4248ZM313.92 82.5609C314.171 82.5609 314.397 82.5816 314.596 82.6229L314.477 83.4178C314.243 83.3662 314.037 83.3404 313.858 83.3404C313.4 83.3404 313.008 83.5262 312.681 83.8978C312.358 84.2695 312.196 84.7323 312.196 85.2864V88.3215H311.339V82.6642H312.046L312.144 83.712H312.186C312.395 83.3438 312.648 83.0599 312.944 82.8603C313.24 82.6607 313.565 82.5609 313.92 82.5609ZM316.511 88.3215H315.654V82.6642H316.511V88.3215ZM315.582 81.1311C315.582 80.935 315.63 80.7921 315.727 80.7027C315.823 80.6098 315.943 80.5633 316.088 80.5633C316.226 80.5633 316.344 80.6098 316.444 80.7027C316.544 80.7956 316.594 80.9384 316.594 81.1311C316.594 81.3238 316.544 81.4683 316.444 81.5647C316.344 81.6576 316.226 81.7041 316.088 81.7041C315.943 81.7041 315.823 81.6576 315.727 81.5647C315.63 81.4683 315.582 81.3238 315.582 81.1311ZM320.961 88.4248C320.592 88.4248 320.255 88.3577 319.949 88.2235C319.646 88.0858 319.391 87.8759 319.185 87.5937H319.123C319.164 87.9241 319.185 88.2372 319.185 88.5332V90.8612H318.328V82.6642H319.025L319.144 83.4384H319.185C319.405 83.1287 319.662 82.9051 319.954 82.7674C320.247 82.6298 320.582 82.5609 320.961 82.5609C321.711 82.5609 322.289 82.8173 322.695 83.33C323.105 83.8428 323.309 84.562 323.309 85.4877C323.309 86.4168 323.101 87.1395 322.685 87.6557C322.272 88.1684 321.697 88.4248 320.961 88.4248ZM320.837 83.2887C320.259 83.2887 319.841 83.4488 319.582 83.7688C319.324 84.0888 319.192 84.5981 319.185 85.2967V85.4877C319.185 86.2826 319.317 86.8521 319.582 87.1963C319.847 87.5369 320.272 87.7073 320.857 87.7073C321.346 87.7073 321.728 87.5094 322.003 87.1137C322.282 86.7179 322.421 86.1725 322.421 85.4774C322.421 84.7719 322.282 84.2316 322.003 83.8566C321.728 83.478 321.339 83.2887 320.837 83.2887ZM327.072 88.4248C326.253 88.4248 325.618 88.1736 325.168 87.6711C324.72 87.1653 324.496 86.4512 324.496 85.529C324.496 84.5826 324.724 83.8514 325.178 83.3352C325.636 82.819 326.286 82.5609 327.129 82.5609C327.401 82.5609 327.673 82.5902 327.945 82.6487C328.216 82.7072 328.43 82.776 328.585 82.8552L328.321 83.583C328.132 83.5073 327.926 83.4453 327.702 83.3971C327.478 83.3455 327.28 83.3197 327.108 83.3197C325.959 83.3197 325.384 84.0527 325.384 85.5187C325.384 86.2138 325.524 86.7472 325.802 87.1188C326.085 87.4905 326.501 87.6763 327.052 87.6763C327.523 87.6763 328.007 87.5748 328.502 87.3718V88.1305C328.124 88.3267 327.647 88.4248 327.072 88.4248ZM330.706 88.3215H329.849V82.6642H330.706V88.3215ZM329.777 81.1311C329.777 80.935 329.825 80.7921 329.922 80.7027C330.018 80.6098 330.138 80.5633 330.283 80.5633C330.421 80.5633 330.539 80.6098 330.639 80.7027C330.739 80.7956 330.789 80.9384 330.789 81.1311C330.789 81.3238 330.739 81.4683 330.639 81.5647C330.539 81.6576 330.421 81.7041 330.283 81.7041C330.138 81.7041 330.018 81.6576 329.922 81.5647C329.825 81.4683 329.777 81.3238 329.777 81.1311ZM337.406 85.4877C337.406 86.4099 337.174 87.1309 336.709 87.6505C336.245 88.1667 335.603 88.4248 334.784 88.4248C334.278 88.4248 333.829 88.306 333.437 88.0686C333.044 87.8312 332.742 87.4905 332.528 87.0466C332.315 86.6026 332.208 86.083 332.208 85.4877C332.208 84.5654 332.439 83.8479 332.9 83.3352C333.361 82.819 334.001 82.5609 334.82 82.5609C335.612 82.5609 336.24 82.8242 336.704 83.3507C337.172 83.8772 337.406 84.5895 337.406 85.4877ZM333.096 85.4877C333.096 86.2103 333.241 86.7609 333.53 87.1395C333.819 87.518 334.244 87.7073 334.805 87.7073C335.366 87.7073 335.791 87.5197 336.08 87.1446C336.372 86.7661 336.518 86.2138 336.518 85.4877C336.518 84.7685 336.372 84.223 336.08 83.8514C335.791 83.4763 335.362 83.2887 334.794 83.2887C334.233 83.2887 333.81 83.4729 333.525 83.8411C333.239 84.2093 333.096 84.7581 333.096 85.4877ZM334.087 81.7867C334.252 81.5733 334.43 81.3152 334.619 81.0124C334.812 80.7096 334.963 80.4463 335.073 80.2226H336.116V80.331C335.964 80.5547 335.739 80.83 335.44 81.1569C335.14 81.4838 334.88 81.7368 334.66 81.9157H334.087V81.7867ZM342.785 88.3215V84.6618C342.785 84.2007 342.68 83.8566 342.47 83.6294C342.26 83.4023 341.931 83.2887 341.484 83.2887C340.892 83.2887 340.459 83.4488 340.183 83.7688C339.908 84.0888 339.77 84.6171 339.77 85.3535V88.3215H338.913V82.6642H339.61L339.75 83.4384H339.791C339.967 83.1597 340.213 82.9446 340.529 82.7932C340.846 82.6384 341.198 82.5609 341.587 82.5609C342.269 82.5609 342.781 82.7261 343.126 83.0565C343.47 83.3834 343.642 83.9082 343.642 84.6308V88.3215H342.785ZM352.004 87.5627H351.957C351.562 88.1374 350.97 88.4248 350.182 88.4248C349.442 88.4248 348.865 88.1718 348.453 87.666C348.043 87.1601 347.838 86.4409 347.838 85.5083C347.838 84.5758 348.045 83.8514 348.458 83.3352C348.871 82.819 349.445 82.5609 350.182 82.5609C350.949 82.5609 351.538 82.8397 351.947 83.3971H352.014L351.978 82.9894L351.957 82.5919V80.2897H352.814V88.3215H352.117L352.004 87.5627ZM350.29 87.7073C350.875 87.7073 351.298 87.549 351.56 87.2324C351.825 86.9124 351.957 86.3979 351.957 85.689V85.5083C351.957 84.7065 351.823 84.1353 351.555 83.7946C351.29 83.4505 350.865 83.2784 350.28 83.2784C349.777 83.2784 349.392 83.4746 349.124 83.8669C348.859 84.2557 348.726 84.8063 348.726 85.5187C348.726 86.2413 348.859 86.7867 349.124 87.155C349.389 87.5232 349.777 87.7073 350.29 87.7073ZM357.026 88.4248C356.19 88.4248 355.529 88.1701 355.044 87.6608C354.562 87.1515 354.322 86.4443 354.322 85.5393C354.322 84.6274 354.545 83.903 354.993 83.3662C355.443 82.8293 356.047 82.5609 356.804 82.5609C357.513 82.5609 358.074 82.7949 358.487 83.2629C358.9 83.7275 359.107 84.3418 359.107 85.1057V85.6477H355.209C355.227 86.3119 355.393 86.816 355.71 87.1601C356.03 87.5042 356.479 87.6763 357.057 87.6763C357.666 87.6763 358.269 87.549 358.864 87.2943V88.0583C358.561 88.189 358.274 88.282 358.002 88.337C357.734 88.3955 357.408 88.4248 357.026 88.4248ZM356.794 83.2784C356.34 83.2784 355.977 83.4264 355.705 83.7223C355.437 84.0183 355.278 84.4278 355.23 84.9509H358.188C358.188 84.4106 358.067 83.9976 357.826 83.712C357.586 83.423 357.241 83.2784 356.794 83.2784ZM364.175 88.3215H363.319V80.2897H364.175V88.3215ZM369.472 88.3215L369.301 87.5163H369.26C368.978 87.8707 368.696 88.1116 368.413 88.2389C368.135 88.3628 367.785 88.4248 367.365 88.4248C366.805 88.4248 366.364 88.2802 366.044 87.9912C365.727 87.7021 365.569 87.2909 365.569 86.7575C365.569 85.615 366.483 85.0162 368.31 84.9612L369.27 84.9302V84.5792C369.27 84.1353 369.174 83.8084 368.981 83.5985C368.792 83.3851 368.487 83.2784 368.067 83.2784C367.596 83.2784 367.063 83.423 366.467 83.712L366.204 83.0565C366.483 82.9051 366.787 82.7863 367.118 82.7003C367.452 82.6143 367.785 82.5713 368.119 82.5713C368.794 82.5713 369.293 82.7209 369.616 83.0203C369.943 83.3197 370.106 83.7998 370.106 84.4605V88.3215H369.472ZM367.536 87.7176C368.069 87.7176 368.487 87.5713 368.79 87.2788C369.096 86.9863 369.25 86.5768 369.25 86.0503V85.5393L368.393 85.5754C367.711 85.5995 367.219 85.7062 366.916 85.8955C366.617 86.0813 366.467 86.3721 366.467 86.7678C366.467 87.0775 366.56 87.3133 366.746 87.475C366.935 87.6367 367.199 87.7176 367.536 87.7176ZM376.45 87.7176C376.602 87.7176 376.748 87.7073 376.889 87.6866C377.03 87.6625 377.142 87.6385 377.225 87.6144V88.2699C377.132 88.3147 376.994 88.3508 376.812 88.3783C376.633 88.4093 376.471 88.4248 376.326 88.4248C375.232 88.4248 374.685 87.8484 374.685 86.6956V83.33H373.875V82.9171L374.685 82.5609L375.046 81.3531H375.542V82.6642H377.183V83.33H375.542V86.6594C375.542 87.0001 375.623 87.2616 375.784 87.444C375.946 87.6264 376.168 87.7176 376.45 87.7176ZM381.839 88.3215L381.669 87.5163H381.628C381.345 87.8707 381.063 88.1116 380.781 88.2389C380.502 88.3628 380.153 88.4248 379.733 88.4248C379.172 88.4248 378.732 88.2802 378.412 87.9912C378.095 87.7021 377.937 87.2909 377.937 86.7575C377.937 85.615 378.851 85.0162 380.678 84.9612L381.638 84.9302V84.5792C381.638 84.1353 381.542 83.8084 381.349 83.5985C381.16 83.3851 380.855 83.2784 380.435 83.2784C379.964 83.2784 379.43 83.423 378.835 83.712L378.572 83.0565C378.851 82.9051 379.155 82.7863 379.485 82.7003C379.819 82.6143 380.153 82.5713 380.487 82.5713C381.161 82.5713 381.66 82.7209 381.984 83.0203C382.311 83.3197 382.474 83.7998 382.474 84.4605V88.3215H381.839ZM379.904 87.7176C380.437 87.7176 380.855 87.5713 381.158 87.2788C381.464 86.9863 381.617 86.5768 381.617 86.0503V85.5393L380.76 85.5754C380.079 85.5995 379.587 85.7062 379.284 85.8955C378.985 86.0813 378.835 86.3721 378.835 86.7678C378.835 87.0775 378.928 87.3133 379.114 87.475C379.303 87.6367 379.566 87.7176 379.904 87.7176ZM386.826 82.5609C387.077 82.5609 387.302 82.5816 387.502 82.6229L387.383 83.4178C387.149 83.3662 386.943 83.3404 386.764 83.3404C386.306 83.3404 385.914 83.5262 385.587 83.8978C385.263 84.2695 385.102 84.7323 385.102 85.2864V88.3215H384.245V82.6642H384.952L385.05 83.712H385.091C385.301 83.3438 385.554 83.0599 385.85 82.8603C386.146 82.6607 386.471 82.5609 386.826 82.5609ZM387.873 90.8612C387.547 90.8612 387.282 90.8181 387.079 90.7321V90.0353C387.316 90.1041 387.55 90.1385 387.781 90.1385C388.049 90.1385 388.245 90.0645 388.369 89.9165C388.496 89.772 388.56 89.55 388.56 89.2507V82.6642H389.417V89.1887C389.417 90.3037 388.902 90.8612 387.873 90.8612ZM388.488 81.1311C388.488 80.935 388.536 80.7921 388.632 80.7027C388.729 80.6098 388.849 80.5633 388.994 80.5633C389.131 80.5633 389.25 80.6098 389.35 80.7027C389.45 80.7956 389.499 80.9384 389.499 81.1311C389.499 81.3238 389.45 81.4683 389.35 81.5647C389.25 81.6576 389.131 81.7041 388.994 81.7041C388.849 81.7041 388.729 81.6576 388.632 81.5647C388.536 81.4683 388.488 81.3238 388.488 81.1311ZM393.624 88.4248C392.788 88.4248 392.127 88.1701 391.642 87.6608C391.16 87.1515 390.919 86.4443 390.919 85.5393C390.919 84.6274 391.143 83.903 391.59 83.3662C392.041 82.8293 392.645 82.5609 393.402 82.5609C394.111 82.5609 394.672 82.7949 395.085 83.2629C395.497 83.7275 395.704 84.3418 395.704 85.1057V85.6477H391.807C391.824 86.3119 391.991 86.816 392.307 87.1601C392.627 87.5042 393.077 87.6763 393.655 87.6763C394.264 87.6763 394.866 87.549 395.461 87.2943V88.0583C395.159 88.189 394.871 88.282 394.599 88.337C394.331 88.3955 394.006 88.4248 393.624 88.4248ZM393.391 83.2784C392.937 83.2784 392.574 83.4264 392.302 83.7223C392.034 84.0183 391.876 84.4278 391.827 84.9509H394.785C394.785 84.4106 394.665 83.9976 394.424 83.712C394.183 83.423 393.839 83.2784 393.391 83.2784ZM398.997 87.7176C399.149 87.7176 399.295 87.7073 399.436 87.6866C399.577 87.6625 399.689 87.6385 399.771 87.6144V88.2699C399.679 88.3147 399.541 88.3508 399.359 88.3783C399.18 88.4093 399.018 88.4248 398.873 88.4248C397.779 88.4248 397.232 87.8484 397.232 86.6956V83.33H396.421V82.9171L397.232 82.5609L397.593 81.3531H398.089V82.6642H399.73V83.33H398.089V86.6594C398.089 87.0001 398.17 87.2616 398.331 87.444C398.493 87.6264 398.715 87.7176 398.997 87.7176ZM404.386 88.3215L404.216 87.5163H404.175C403.892 87.8707 403.61 88.1116 403.328 88.2389C403.049 88.3628 402.7 88.4248 402.28 88.4248C401.719 88.4248 401.279 88.2802 400.959 87.9912C400.642 87.7021 400.484 87.2909 400.484 86.7575C400.484 85.615 401.397 85.0162 403.225 84.9612L404.185 84.9302V84.5792C404.185 84.1353 404.088 83.8084 403.896 83.5985C403.706 83.3851 403.402 83.2784 402.982 83.2784C402.511 83.2784 401.977 83.423 401.382 83.712L401.119 83.0565C401.397 82.9051 401.702 82.7863 402.032 82.7003C402.366 82.6143 402.7 82.5713 403.034 82.5713C403.708 82.5713 404.207 82.7209 404.531 83.0203C404.858 83.3197 405.021 83.7998 405.021 84.4605V88.3215H404.386ZM402.45 87.7176C402.984 87.7176 403.402 87.5713 403.705 87.2788C404.011 86.9863 404.164 86.5768 404.164 86.0503V85.5393L403.307 85.5754C402.626 85.5995 402.134 85.7062 401.831 85.8955C401.532 86.0813 401.382 86.3721 401.382 86.7678C401.382 87.0775 401.475 87.3133 401.661 87.475C401.85 87.6367 402.113 87.7176 402.45 87.7176Z" fill="#101E37"/>
</svg>
