<svg width="728" height="150" viewBox="0 0 728 150" fill="none" xmlns="http://www.w3.org/2000/svg">
<rect x="1" y="1.81787" width="726" height="146.766" rx="7" fill="#F3F6F9"/>
<rect x="1" y="1.81787" width="726" height="146.766" rx="7" stroke="#E6EBF0" stroke-width="2"/>
<rect x="47.25" y="48.0679" width="309.5" height="54.266" rx="8.75" fill="white"/>
<rect x="47.25" y="48.0679" width="309.5" height="54.266" rx="8.75" stroke="#E6EBF0" stroke-width="1.5"/>
<rect x="60" y="56.8179" width="36.766" height="36.766" rx="4.59574" fill="#E2F8F5"/>
<rect x="106.766" y="61.7007" width="237.234" height="12" rx="6" fill="#B8C1CC"/>
<rect x="106.766" y="77.7007" width="91" height="11" rx="5.5" fill="#D1D8E0"/>
<rect x="371.25" y="48.0679" width="309.5" height="54.266" rx="8.75" fill="white"/>
<rect x="371.25" y="48.0679" width="309.5" height="54.266" rx="8.75" stroke="#E6EBF0" stroke-width="1.5"/>
<rect x="384" y="56.8179" width="36.766" height="36.766" rx="4.59574" fill="#CCF3FF"/>
<rect x="430.766" y="61.7007" width="237.234" height="11" rx="5.5" fill="#B8C1CC"/>
<rect x="430.766" y="76.7007" width="91" height="12" rx="6" fill="#D1D8E0"/>
</svg>
