<svg width="728" height="286" viewBox="0 0 728 286" fill="none" xmlns="http://www.w3.org/2000/svg">
<g clip-path="url(#clip0_1133_11359)">
<rect width="728" height="286" rx="8" fill="#F3F6F9"/>
<g clip-path="url(#clip1_1133_11359)">
<rect width="728" height="94.276" transform="translate(87 -49.4773)" fill="#F3F6F9"/>
<rect x="135.38" y="-5.26416" width="395.684" height="13.8228" rx="4.60759" fill="#E6EBF0"/>
<rect x="135.38" y="12.5454" width="329.443" height="13.8228" rx="4.60759" fill="#E6EBF0"/>
<rect width="728" height="213.274" transform="translate(87 44.7986)" fill="white"/>
<rect x="136.376" y="64.2257" width="197.343" height="98.4384" rx="6.97679" fill="white"/>
<rect x="136.376" y="64.2257" width="197.343" height="98.4384" rx="6.97679" stroke="#E6EBF0" stroke-width="1.99337"/>
<rect x="147.34" y="75.1895" width="36.644" height="36.644" rx="4.5805" fill="#ADC3EB"/>
<rect x="147.34" y="123.794" width="78.7274" height="11.9602" rx="2.3038" fill="#E6EBF0"/>
<rect x="147.34" y="139.74" width="161.463" height="11.9602" rx="2.3038" fill="#E6EBF0"/>
<rect x="349.536" y="64.2257" width="177.41" height="174.42" rx="6.97679" fill="white"/>
<rect x="349.536" y="64.2257" width="177.41" height="174.42" rx="6.97679" stroke="#E6EBF0" stroke-width="1.99337"/>
<rect x="360.5" y="75.1895" width="155.483" height="87.7082" rx="4.5805" fill="#CAF2EC"/>
<rect x="361.247" y="175.605" width="46.3458" height="10.4652" rx="1.24585" fill="white" stroke="#E6EBF0" stroke-width="1.49503"/>
<rect x="417.061" y="175.605" width="46.3458" height="10.4652" rx="1.24585" fill="white" stroke="#E6EBF0" stroke-width="1.49503"/>
<rect x="360.5" y="198.778" width="78.7274" height="11.9602" rx="2.3038" fill="#E6EBF0"/>
<rect x="360.5" y="215.721" width="155.483" height="11.9602" rx="2.3038" fill="#E6EBF0"/>
<rect x="541.018" y="62.4815" width="200.832" height="54.086" rx="8.72098" fill="white"/>
<rect x="541.018" y="62.4815" width="200.832" height="54.086" rx="8.72098" stroke="#E6EBF0" stroke-width="1.49503"/>
<rect x="553.725" y="71.2026" width="36.644" height="36.644" rx="4.5805" fill="#99E8FF"/>
<rect x="600.336" y="76.0696" width="128.805" height="10.9635" rx="2.3038" fill="#E6EBF0"/>
<rect x="600.336" y="91.0198" width="90.6982" height="11.9602" rx="2.3038" fill="#E6EBF0"/>
<mask id="path-21-inside-1_1133_11359" fill="white">
<path d="M87 258.073H815V354.473C815 359.562 810.874 363.688 805.785 363.688H96.2152C91.1258 363.688 87 359.562 87 354.473V258.073Z"/>
</mask>
<path d="M87 258.073H815V354.473C815 359.562 810.874 363.688 805.785 363.688H96.2152C91.1258 363.688 87 359.562 87 354.473V258.073Z" fill="white"/>
<path d="M87 256.921H815V259.225H87V256.921ZM815 363.688H87H815ZM87 363.688V258.073V363.688ZM815 258.073V363.688V258.073Z" fill="#E6EBF0" mask="url(#path-21-inside-1_1133_11359)"/>
<rect x="135.38" y="276.503" width="159.469" height="11.519" rx="2.3038" fill="#E6EBF0"/>
</g>
<rect x="85.963" y="-106.958" width="730.074" height="438.644" rx="10.2522" stroke="#E6EBF0" stroke-width="2.07396"/>
</g>
<rect x="1" y="1" width="726" height="284" rx="7" stroke="#E6EBF0" stroke-width="2"/>
<defs>
<clipPath id="clip0_1133_11359">
<rect width="728" height="286" rx="8" fill="white"/>
</clipPath>
<clipPath id="clip1_1133_11359">
<rect x="87" y="-105.921" width="728" height="436.57" rx="9.21519" fill="white"/>
</clipPath>
</defs>
</svg>
