<svg width="728" height="400" viewBox="0 0 728 400" fill="none" xmlns="http://www.w3.org/2000/svg">
<g clip-path="url(#clip0_1339_3992)">
<rect width="728" height="400" rx="7.67386" fill="#F3F6F9"/>
<mask id="path-3-inside-1_1339_3992" fill="white">
<path d="M104 0H625V400H104V0Z"/>
</mask>
<path d="M104 0H625V400H104V0Z" fill="white"/>
<path d="M623 0V400H627V0H623ZM106 400V0H102V400H106Z" fill="#D1D8E0" mask="url(#path-3-inside-1_1339_3992)"/>
<rect x="136" y="32" width="45.7982" height="45.7982" rx="22.8991" fill="#8A97A8"/>
<g opacity="0.2">
<rect x="136" y="92.1101" width="373.541" height="20.0367" rx="10.0183" fill="#101E37"/>
</g>
<g opacity="0.2" clip-path="url(#clip1_1339_3992)">
<rect x="136" y="126.459" width="457" height="12" rx="6" fill="#101E37"/>
<rect x="136" y="149.358" width="320.587" height="11.4495" rx="5.72477" fill="#101E37"/>
</g>
<path d="M144.587 183.706C146.168 183.706 147.45 182.425 147.45 180.844C147.45 179.263 146.168 177.982 144.587 177.982C143.007 177.982 141.725 179.263 141.725 180.844C141.725 182.425 143.007 183.706 144.587 183.706Z" fill="#101E37"/>
<g opacity="0.2">
<rect x="158.899" y="175.119" width="422.917" height="11.4495" rx="5.72477" fill="#101E37"/>
</g>
<path d="M144.587 212.33C146.168 212.33 147.45 211.049 147.45 209.468C147.45 207.887 146.168 206.605 144.587 206.605C143.007 206.605 141.725 207.887 141.725 209.468C141.725 211.049 143.007 212.33 144.587 212.33Z" fill="#101E37"/>
<rect opacity="0.2" x="158.899" y="203.968" width="376" height="11" rx="5.5" fill="#101E37"/>
<path d="M541.099 207.642C541.621 207.642 542.068 207.757 542.441 207.988C542.813 208.219 543.098 208.544 543.296 208.961C543.493 209.375 543.592 209.859 543.592 210.415V210.99H539.36C539.371 211.71 539.55 212.258 539.897 212.634C540.243 213.01 540.732 213.199 541.362 213.199C541.749 213.199 542.092 213.163 542.39 213.092C542.688 213.022 542.998 212.917 543.318 212.779V213.596C543.009 213.734 542.701 213.834 542.396 213.898C542.094 213.961 541.736 213.993 541.322 213.993C540.734 213.993 540.219 213.873 539.779 213.635C539.343 213.392 539.004 213.038 538.762 212.573C538.52 212.107 538.399 211.536 538.399 210.862C538.399 210.202 538.509 209.632 538.728 209.151C538.952 208.667 539.265 208.294 539.668 208.033C540.074 207.772 540.551 207.642 541.099 207.642ZM541.088 208.402C540.592 208.402 540.197 208.564 539.902 208.888C539.608 209.213 539.433 209.665 539.377 210.247H542.619C542.616 209.882 542.558 209.561 542.446 209.285C542.338 209.006 542.172 208.79 541.949 208.637C541.725 208.48 541.438 208.402 541.088 208.402ZM548.07 207.642C548.797 207.642 549.347 207.821 549.72 208.178C550.092 208.532 550.279 209.103 550.279 209.889V213.881H549.362V209.951C549.362 209.44 549.244 209.058 549.01 208.804C548.778 208.551 548.422 208.424 547.942 208.424C547.263 208.424 546.786 208.616 546.511 209C546.235 209.384 546.097 209.941 546.097 210.672V213.881H545.169V207.753H545.918L546.058 208.637H546.108C546.238 208.421 546.404 208.24 546.606 208.094C546.807 207.945 547.032 207.834 547.282 207.759C547.532 207.681 547.794 207.642 548.07 207.642ZM553.124 213.881H552.191V205.182H553.124V213.881ZM557.379 207.653C558.109 207.653 558.651 207.817 559.005 208.145C559.36 208.473 559.537 208.996 559.537 209.716V213.881H558.86L558.681 212.975H558.637C558.465 213.199 558.286 213.387 558.1 213.54C557.913 213.689 557.697 213.802 557.451 213.881C557.209 213.955 556.911 213.993 556.557 213.993C556.184 213.993 555.852 213.927 555.562 213.797C555.275 213.666 555.047 213.469 554.88 213.204C554.716 212.94 554.634 212.604 554.634 212.198C554.634 211.587 554.876 211.117 555.36 210.789C555.845 210.461 556.583 210.282 557.574 210.252L558.631 210.208V209.833C558.631 209.304 558.517 208.933 558.29 208.721C558.063 208.508 557.742 208.402 557.328 208.402C557.008 208.402 556.702 208.449 556.411 208.542C556.121 208.635 555.845 208.745 555.584 208.872L555.299 208.167C555.575 208.026 555.892 207.904 556.249 207.804C556.607 207.703 556.984 207.653 557.379 207.653ZM558.62 210.862L557.686 210.901C556.922 210.931 556.384 211.056 556.07 211.276C555.757 211.495 555.601 211.807 555.601 212.209C555.601 212.559 555.707 212.819 555.919 212.986C556.132 213.154 556.413 213.238 556.764 213.238C557.308 213.238 557.753 213.087 558.1 212.785C558.446 212.483 558.62 212.03 558.62 211.426V210.862ZM563.903 213.993C563.351 213.993 562.865 213.879 562.444 213.652C562.023 213.424 561.695 213.078 561.46 212.612C561.225 212.146 561.108 211.559 561.108 210.851C561.108 210.109 561.231 209.503 561.477 209.034C561.726 208.56 562.069 208.21 562.505 207.983C562.941 207.755 563.437 207.642 563.992 207.642C564.298 207.642 564.592 207.673 564.876 207.737C565.163 207.796 565.397 207.873 565.58 207.966L565.301 208.743C565.114 208.668 564.898 208.601 564.652 208.542C564.41 208.482 564.182 208.452 563.97 208.452C563.545 208.452 563.191 208.544 562.908 208.726C562.628 208.909 562.418 209.177 562.276 209.531C562.138 209.885 562.069 210.321 562.069 210.839C562.069 211.335 562.136 211.758 562.27 212.109C562.408 212.459 562.611 212.727 562.88 212.914C563.152 213.096 563.491 213.188 563.897 213.188C564.222 213.188 564.514 213.154 564.775 213.087C565.036 213.016 565.273 212.934 565.485 212.841V213.668C565.28 213.773 565.051 213.853 564.797 213.909C564.548 213.965 564.249 213.993 563.903 213.993ZM569.298 207.642C569.82 207.642 570.267 207.757 570.64 207.988C571.012 208.219 571.297 208.544 571.495 208.961C571.692 209.375 571.791 209.859 571.791 210.415V210.99H567.559C567.57 211.71 567.749 212.258 568.096 212.634C568.442 213.01 568.931 213.199 569.561 213.199C569.948 213.199 570.291 213.163 570.589 213.092C570.887 213.022 571.197 212.917 571.517 212.779V213.596C571.208 213.734 570.9 213.834 570.595 213.898C570.293 213.961 569.935 213.993 569.521 213.993C568.933 213.993 568.418 213.873 567.978 213.635C567.542 213.392 567.203 213.038 566.961 212.573C566.719 212.107 566.598 211.536 566.598 210.862C566.598 210.202 566.707 209.632 566.927 209.151C567.151 208.667 567.464 208.294 567.867 208.033C568.273 207.772 568.75 207.642 569.298 207.642ZM569.287 208.402C568.791 208.402 568.396 208.564 568.101 208.888C567.807 209.213 567.632 209.665 567.576 210.247H570.818C570.815 209.882 570.757 209.561 570.645 209.285C570.537 209.006 570.371 208.79 570.148 208.637C569.924 208.48 569.637 208.402 569.287 208.402ZM573.228 213.299C573.228 213.038 573.291 212.854 573.418 212.746C573.545 212.634 573.699 212.578 573.882 212.578C574.072 212.578 574.232 212.634 574.363 212.746C574.493 212.854 574.559 213.038 574.559 213.299C574.559 213.556 574.493 213.745 574.363 213.864C574.232 213.98 574.072 214.037 573.882 214.037C573.699 214.037 573.545 213.98 573.418 213.864C573.291 213.745 573.228 213.556 573.228 213.299Z" fill="#336ACC"/>
<path d="M537.761 216.401H575.397V218.401H537.761V216.401Z" fill="#336ACC"/>
<path d="M144.587 240.954C146.168 240.954 147.45 239.672 147.45 238.092C147.45 236.511 146.168 235.229 144.587 235.229C143.007 235.229 141.725 236.511 141.725 238.092C141.725 239.672 143.007 240.954 144.587 240.954Z" fill="#101E37"/>
<rect opacity="0.2" x="158.899" y="232.092" width="376" height="12" rx="6" fill="#101E37"/>
<rect x="536.761" y="228.092" width="40" height="20" rx="5" stroke="#218274" stroke-width="2"/>
<path d="M541.099 235.853C541.621 235.853 542.068 235.968 542.441 236.199C542.813 236.43 543.098 236.755 543.296 237.172C543.493 237.586 543.592 238.07 543.592 238.626V239.201H539.36C539.371 239.921 539.55 240.469 539.897 240.845C540.243 241.221 540.732 241.41 541.362 241.41C541.749 241.41 542.092 241.374 542.39 241.303C542.688 241.233 542.998 241.128 543.318 240.99V241.807C543.009 241.944 542.701 242.045 542.396 242.108C542.094 242.172 541.736 242.203 541.322 242.203C540.734 242.203 540.219 242.084 539.779 241.846C539.343 241.603 539.004 241.249 538.762 240.783C538.52 240.318 538.399 239.747 538.399 239.073C538.399 238.413 538.509 237.843 538.728 237.362C538.952 236.878 539.265 236.505 539.668 236.244C540.074 235.983 540.551 235.853 541.099 235.853ZM541.088 236.613C540.592 236.613 540.197 236.775 539.902 237.099C539.608 237.424 539.433 237.876 539.377 238.458H542.619C542.616 238.093 542.558 237.772 542.446 237.496C542.338 237.217 542.172 237.001 541.949 236.848C541.725 236.691 541.438 236.613 541.088 236.613ZM548.07 235.853C548.797 235.853 549.347 236.031 549.72 236.389C550.092 236.743 550.279 237.314 550.279 238.1V242.092H549.362V238.161C549.362 237.651 549.244 237.269 549.01 237.015C548.778 236.762 548.422 236.635 547.942 236.635C547.263 236.635 546.786 236.827 546.511 237.211C546.235 237.595 546.097 238.152 546.097 238.883V242.092H545.169V235.964H545.918L546.058 236.848H546.108C546.238 236.632 546.404 236.451 546.606 236.305C546.807 236.156 547.032 236.045 547.282 235.97C547.532 235.892 547.794 235.853 548.07 235.853ZM553.124 242.092H552.191V233.393H553.124V242.092ZM557.379 235.864C558.109 235.864 558.651 236.028 559.005 236.356C559.36 236.684 559.537 237.207 559.537 237.927V242.092H558.86L558.681 241.186H558.637C558.465 241.41 558.286 241.598 558.1 241.751C557.913 241.9 557.697 242.013 557.451 242.092C557.209 242.166 556.911 242.203 556.557 242.203C556.184 242.203 555.852 242.138 555.562 242.008C555.275 241.877 555.047 241.68 554.88 241.415C554.716 241.151 554.634 240.815 554.634 240.409C554.634 239.798 554.876 239.328 555.36 239C555.845 238.672 556.583 238.493 557.574 238.463L558.631 238.419V238.044C558.631 237.515 558.517 237.144 558.29 236.932C558.063 236.719 557.742 236.613 557.328 236.613C557.008 236.613 556.702 236.659 556.411 236.753C556.121 236.846 555.845 236.956 555.584 237.083L555.299 236.378C555.575 236.236 555.892 236.115 556.249 236.015C556.607 235.914 556.984 235.864 557.379 235.864ZM558.62 239.073L557.686 239.112C556.922 239.142 556.384 239.267 556.07 239.486C555.757 239.706 555.601 240.018 555.601 240.42C555.601 240.77 555.707 241.029 555.919 241.197C556.132 241.365 556.413 241.449 556.764 241.449C557.308 241.449 557.753 241.298 558.1 240.996C558.446 240.694 558.62 240.241 558.62 239.637V239.073ZM563.903 242.203C563.351 242.203 562.865 242.09 562.444 241.862C562.023 241.635 561.695 241.288 561.46 240.823C561.225 240.357 561.108 239.77 561.108 239.062C561.108 238.32 561.231 237.714 561.477 237.245C561.726 236.771 562.069 236.421 562.505 236.194C562.941 235.966 563.437 235.853 563.992 235.853C564.298 235.853 564.592 235.884 564.876 235.948C565.163 236.007 565.397 236.084 565.58 236.177L565.301 236.954C565.114 236.879 564.898 236.812 564.652 236.753C564.41 236.693 564.182 236.663 563.97 236.663C563.545 236.663 563.191 236.755 562.908 236.937C562.628 237.12 562.418 237.388 562.276 237.742C562.138 238.096 562.069 238.532 562.069 239.05C562.069 239.546 562.136 239.969 562.27 240.319C562.408 240.67 562.611 240.938 562.88 241.125C563.152 241.307 563.491 241.398 563.897 241.398C564.222 241.398 564.514 241.365 564.775 241.298C565.036 241.227 565.273 241.145 565.485 241.052V241.879C565.28 241.984 565.051 242.064 564.797 242.12C564.548 242.176 564.249 242.203 563.903 242.203ZM569.298 235.853C569.82 235.853 570.267 235.968 570.64 236.199C571.012 236.43 571.297 236.755 571.495 237.172C571.692 237.586 571.791 238.07 571.791 238.626V239.201H567.559C567.57 239.921 567.749 240.469 568.096 240.845C568.442 241.221 568.931 241.41 569.561 241.41C569.948 241.41 570.291 241.374 570.589 241.303C570.887 241.233 571.197 241.128 571.517 240.99V241.807C571.208 241.944 570.9 242.045 570.595 242.108C570.293 242.172 569.935 242.203 569.521 242.203C568.933 242.203 568.418 242.084 567.978 241.846C567.542 241.603 567.203 241.249 566.961 240.783C566.719 240.318 566.598 239.747 566.598 239.073C566.598 238.413 566.707 237.843 566.927 237.362C567.151 236.878 567.464 236.505 567.867 236.244C568.273 235.983 568.75 235.853 569.298 235.853ZM569.287 236.613C568.791 236.613 568.396 236.775 568.101 237.099C567.807 237.424 567.632 237.876 567.576 238.458H570.818C570.815 238.093 570.757 237.772 570.645 237.496C570.537 237.217 570.371 237.001 570.148 236.848C569.924 236.691 569.637 236.613 569.287 236.613ZM573.228 241.51C573.228 241.249 573.291 241.065 573.418 240.957C573.545 240.845 573.699 240.789 573.882 240.789C574.072 240.789 574.232 240.845 574.363 240.957C574.493 241.065 574.559 241.249 574.559 241.51C574.559 241.767 574.493 241.956 574.363 242.075C574.232 242.19 574.072 242.248 573.882 242.248C573.699 242.248 573.545 242.19 573.418 242.075C573.291 241.956 573.228 241.767 573.228 241.51Z" fill="#336ACC"/>
<path d="M537.761 244.612H575.397V246.612H537.761V244.612Z" fill="#336ACC"/>
<path d="M144.587 269.578C146.168 269.578 147.45 268.297 147.45 266.716C147.45 265.135 146.168 263.853 144.587 263.853C143.007 263.853 141.725 265.135 141.725 266.716C141.725 268.297 143.007 269.578 144.587 269.578Z" fill="#101E37"/>
<g opacity="0.2">
<rect x="158.899" y="260.991" width="422.917" height="11.4495" rx="5.72477" fill="#101E37"/>
</g>
<rect x="134.569" y="308.22" width="83.4862" height="37.211" rx="7.15596" fill="#2E569E"/>
<rect x="134.569" y="308.22" width="83.4862" height="37.211" rx="7.15596" stroke="#218274" stroke-width="2.86239"/>
<path d="M151.394 330.929C151.188 330.929 151.02 330.882 150.892 330.787C150.771 330.693 150.698 330.568 150.673 330.414C150.647 330.25 150.677 330.07 150.763 329.873L154.163 322.337C154.275 322.088 154.408 321.912 154.563 321.809C154.726 321.698 154.91 321.642 155.117 321.642C155.314 321.642 155.49 321.698 155.645 321.809C155.808 321.912 155.945 322.088 156.057 322.337L159.47 329.873C159.565 330.07 159.599 330.25 159.573 330.414C159.547 330.577 159.475 330.705 159.354 330.8C159.234 330.886 159.075 330.929 158.878 330.929C158.637 330.929 158.448 330.873 158.311 330.761C158.182 330.641 158.066 330.461 157.963 330.22L157.126 328.275L157.821 328.726H152.386L153.081 328.275L152.257 330.22C152.145 330.469 152.029 330.65 151.909 330.761C151.789 330.873 151.617 330.929 151.394 330.929ZM155.091 323.535L153.287 327.824L152.953 327.412H157.255L156.933 327.824L155.117 323.535H155.091ZM163.582 330.954C162.921 330.954 162.346 330.821 161.856 330.555C161.367 330.28 160.989 329.894 160.723 329.396C160.457 328.898 160.324 328.314 160.324 327.644C160.324 327.137 160.397 326.687 160.543 326.292C160.697 325.888 160.916 325.549 161.2 325.274C161.483 324.991 161.826 324.776 162.23 324.63C162.634 324.475 163.084 324.398 163.582 324.398C163.866 324.398 164.171 324.437 164.497 324.514C164.832 324.591 165.145 324.72 165.437 324.901C165.575 324.986 165.665 325.089 165.708 325.21C165.751 325.33 165.759 325.454 165.734 325.583C165.708 325.703 165.652 325.811 165.566 325.905C165.489 325.991 165.39 326.047 165.27 326.073C165.15 326.09 165.017 326.06 164.871 325.983C164.682 325.871 164.488 325.789 164.291 325.738C164.093 325.678 163.905 325.648 163.724 325.648C163.441 325.648 163.192 325.695 162.977 325.789C162.762 325.875 162.578 326.004 162.423 326.176C162.277 326.339 162.166 326.545 162.088 326.794C162.011 327.043 161.972 327.331 161.972 327.657C161.972 328.292 162.123 328.795 162.423 329.164C162.732 329.525 163.166 329.705 163.724 329.705C163.905 329.705 164.089 329.679 164.278 329.628C164.476 329.576 164.673 329.495 164.871 329.383C165.017 329.306 165.145 329.28 165.257 329.306C165.377 329.332 165.476 329.392 165.553 329.486C165.631 329.572 165.678 329.679 165.695 329.808C165.712 329.928 165.695 330.049 165.643 330.169C165.6 330.289 165.515 330.388 165.386 330.465C165.102 330.637 164.802 330.761 164.484 330.839C164.166 330.916 163.866 330.954 163.582 330.954ZM169.532 330.954C168.871 330.954 168.296 330.821 167.806 330.555C167.317 330.28 166.939 329.894 166.673 329.396C166.407 328.898 166.273 328.314 166.273 327.644C166.273 327.137 166.346 326.687 166.492 326.292C166.647 325.888 166.866 325.549 167.149 325.274C167.433 324.991 167.776 324.776 168.18 324.63C168.583 324.475 169.034 324.398 169.532 324.398C169.816 324.398 170.12 324.437 170.447 324.514C170.782 324.591 171.095 324.72 171.387 324.901C171.525 324.986 171.615 325.089 171.658 325.21C171.701 325.33 171.709 325.454 171.683 325.583C171.658 325.703 171.602 325.811 171.516 325.905C171.439 325.991 171.34 326.047 171.22 326.073C171.099 326.09 170.966 326.06 170.82 325.983C170.631 325.871 170.438 325.789 170.241 325.738C170.043 325.678 169.854 325.648 169.674 325.648C169.391 325.648 169.142 325.695 168.927 325.789C168.712 325.875 168.528 326.004 168.373 326.176C168.227 326.339 168.115 326.545 168.038 326.794C167.961 327.043 167.922 327.331 167.922 327.657C167.922 328.292 168.072 328.795 168.373 329.164C168.682 329.525 169.116 329.705 169.674 329.705C169.854 329.705 170.039 329.679 170.228 329.628C170.425 329.576 170.623 329.495 170.82 329.383C170.966 329.306 171.095 329.28 171.207 329.306C171.327 329.332 171.426 329.392 171.503 329.486C171.58 329.572 171.628 329.679 171.645 329.808C171.662 329.928 171.645 330.049 171.593 330.169C171.55 330.289 171.464 330.388 171.336 330.465C171.052 330.637 170.752 330.761 170.434 330.839C170.116 330.916 169.816 330.954 169.532 330.954ZM173.495 330.916C173.238 330.916 173.04 330.839 172.903 330.684C172.766 330.529 172.697 330.315 172.697 330.04V325.313C172.697 325.029 172.766 324.815 172.903 324.669C173.04 324.514 173.238 324.437 173.495 324.437C173.753 324.437 173.951 324.514 174.088 324.669C174.234 324.815 174.307 325.029 174.307 325.313V330.04C174.307 330.315 174.238 330.529 174.101 330.684C173.963 330.839 173.762 330.916 173.495 330.916ZM173.495 323.239C173.195 323.239 172.959 323.166 172.787 323.02C172.624 322.865 172.542 322.655 172.542 322.389C172.542 322.114 172.624 321.904 172.787 321.758C172.959 321.612 173.195 321.539 173.495 321.539C173.805 321.539 174.041 321.612 174.204 321.758C174.367 321.904 174.449 322.114 174.449 322.389C174.449 322.655 174.367 322.865 174.204 323.02C174.041 323.166 173.805 323.239 173.495 323.239ZM178.852 330.954C178.2 330.954 177.633 330.821 177.152 330.555C176.671 330.289 176.298 329.911 176.031 329.422C175.765 328.924 175.632 328.34 175.632 327.67C175.632 327.163 175.705 326.712 175.851 326.317C176.006 325.914 176.225 325.57 176.508 325.287C176.791 324.995 177.131 324.776 177.526 324.63C177.921 324.475 178.363 324.398 178.852 324.398C179.505 324.398 180.072 324.531 180.553 324.798C181.033 325.064 181.407 325.442 181.673 325.931C181.939 326.42 182.072 327 182.072 327.67C182.072 328.177 181.995 328.632 181.841 329.035C181.695 329.439 181.48 329.787 181.197 330.079C180.913 330.362 180.574 330.581 180.179 330.736C179.784 330.882 179.342 330.954 178.852 330.954ZM178.852 329.731C179.17 329.731 179.449 329.654 179.69 329.499C179.93 329.344 180.115 329.117 180.243 328.816C180.381 328.507 180.45 328.125 180.45 327.67C180.45 326.983 180.304 326.472 180.012 326.137C179.72 325.794 179.333 325.622 178.852 325.622C178.535 325.622 178.255 325.699 178.015 325.854C177.775 326 177.586 326.227 177.448 326.536C177.319 326.837 177.255 327.215 177.255 327.67C177.255 328.348 177.401 328.864 177.693 329.216C177.985 329.559 178.371 329.731 178.852 329.731ZM179.458 323.612C179.372 323.733 179.269 323.801 179.149 323.819C179.028 323.836 178.912 323.814 178.801 323.754C178.689 323.694 178.608 323.608 178.556 323.497C178.513 323.385 178.526 323.26 178.595 323.123L179.574 321.204C179.651 321.041 179.754 320.938 179.883 320.895C180.012 320.843 180.145 320.835 180.282 320.869C180.419 320.903 180.535 320.968 180.63 321.062C180.733 321.157 180.793 321.272 180.81 321.41C180.836 321.539 180.802 321.672 180.707 321.809L179.458 323.612ZM184.2 330.929C183.942 330.929 183.745 330.86 183.607 330.723C183.47 330.577 183.401 330.371 183.401 330.104V325.235C183.401 324.969 183.47 324.767 183.607 324.63C183.745 324.493 183.938 324.424 184.187 324.424C184.436 324.424 184.629 324.493 184.767 324.63C184.904 324.767 184.973 324.969 184.973 325.235V326.111L184.831 325.789C185.02 325.334 185.312 324.991 185.707 324.759C186.111 324.518 186.566 324.398 187.072 324.398C187.579 324.398 187.996 324.493 188.322 324.682C188.648 324.87 188.893 325.158 189.056 325.545C189.219 325.922 189.301 326.403 189.301 326.987V330.104C189.301 330.371 189.232 330.577 189.095 330.723C188.957 330.86 188.76 330.929 188.502 330.929C188.245 330.929 188.043 330.86 187.897 330.723C187.759 330.577 187.691 330.371 187.691 330.104V327.065C187.691 326.575 187.596 326.219 187.407 325.995C187.227 325.772 186.944 325.661 186.557 325.661C186.085 325.661 185.707 325.811 185.424 326.111C185.149 326.403 185.011 326.794 185.011 327.283V330.104C185.011 330.654 184.741 330.929 184.2 330.929ZM195.605 330.826C195.382 330.826 195.206 330.766 195.077 330.645C194.957 330.517 194.897 330.345 194.897 330.13C194.897 329.907 194.957 329.739 195.077 329.628C195.206 329.516 195.382 329.46 195.605 329.46H197.048V323.136H197.846L195.953 324.282C195.79 324.377 195.635 324.415 195.489 324.398C195.352 324.372 195.232 324.312 195.129 324.218C195.034 324.115 194.97 323.995 194.935 323.857C194.901 323.72 194.91 323.582 194.961 323.445C195.021 323.299 195.133 323.179 195.296 323.084L197.074 322.015C197.245 321.912 197.417 321.826 197.589 321.758C197.761 321.68 197.919 321.642 198.065 321.642C198.246 321.642 198.396 321.693 198.516 321.796C198.636 321.891 198.697 322.05 198.697 322.273V329.46H200.01C200.234 329.46 200.405 329.516 200.526 329.628C200.654 329.739 200.719 329.907 200.719 330.13C200.719 330.353 200.654 330.525 200.526 330.645C200.405 330.766 200.234 330.826 200.01 330.826H195.605Z" fill="white"/>
<rect x="228.789" y="310.367" width="79.1927" height="32.9174" rx="5.00917" stroke="#336ACC" stroke-width="1.43119"/>
<path d="M243.467 330.929C243.261 330.929 243.094 330.882 242.965 330.787C242.845 330.693 242.772 330.568 242.746 330.414C242.72 330.25 242.75 330.07 242.836 329.873L246.237 322.337C246.348 322.088 246.481 321.912 246.636 321.809C246.799 321.698 246.984 321.642 247.19 321.642C247.387 321.642 247.563 321.698 247.718 321.809C247.881 321.912 248.018 322.088 248.13 322.337L251.543 329.873C251.638 330.07 251.672 330.25 251.647 330.414C251.621 330.577 251.548 330.705 251.428 330.8C251.307 330.886 251.148 330.929 250.951 330.929C250.711 330.929 250.522 330.873 250.384 330.761C250.255 330.641 250.139 330.461 250.036 330.22L249.199 328.275L249.895 328.726H244.459L245.155 328.275L244.33 330.22C244.219 330.469 244.103 330.65 243.982 330.761C243.862 330.873 243.691 330.929 243.467 330.929ZM247.164 323.535L245.361 327.824L245.026 327.412H249.328L249.006 327.824L247.19 323.535H247.164ZM255.656 330.954C254.995 330.954 254.419 330.821 253.93 330.555C253.44 330.28 253.062 329.894 252.796 329.396C252.53 328.898 252.397 328.314 252.397 327.644C252.397 327.137 252.47 326.687 252.616 326.292C252.77 325.888 252.989 325.549 253.273 325.274C253.556 324.991 253.9 324.776 254.303 324.63C254.707 324.475 255.158 324.398 255.656 324.398C255.939 324.398 256.244 324.437 256.57 324.514C256.905 324.591 257.219 324.72 257.511 324.901C257.648 324.986 257.738 325.089 257.781 325.21C257.824 325.33 257.833 325.454 257.807 325.583C257.781 325.703 257.725 325.811 257.639 325.905C257.562 325.991 257.463 326.047 257.343 326.073C257.223 326.09 257.09 326.06 256.944 325.983C256.755 325.871 256.562 325.789 256.364 325.738C256.167 325.678 255.978 325.648 255.797 325.648C255.514 325.648 255.265 325.695 255.05 325.789C254.836 325.875 254.651 326.004 254.496 326.176C254.35 326.339 254.239 326.545 254.162 326.794C254.084 327.043 254.046 327.331 254.046 327.657C254.046 328.292 254.196 328.795 254.496 329.164C254.806 329.525 255.239 329.705 255.797 329.705C255.978 329.705 256.162 329.679 256.351 329.628C256.549 329.576 256.746 329.495 256.944 329.383C257.09 329.306 257.219 329.28 257.33 329.306C257.45 329.332 257.549 329.392 257.626 329.486C257.704 329.572 257.751 329.679 257.768 329.808C257.785 329.928 257.768 330.049 257.717 330.169C257.674 330.289 257.588 330.388 257.459 330.465C257.176 330.637 256.875 330.761 256.557 330.839C256.24 330.916 255.939 330.954 255.656 330.954ZM261.606 330.954C260.944 330.954 260.369 330.821 259.88 330.555C259.39 330.28 259.012 329.894 258.746 329.396C258.48 328.898 258.347 328.314 258.347 327.644C258.347 327.137 258.42 326.687 258.566 326.292C258.72 325.888 258.939 325.549 259.223 325.274C259.506 324.991 259.849 324.776 260.253 324.63C260.657 324.475 261.107 324.398 261.606 324.398C261.889 324.398 262.194 324.437 262.52 324.514C262.855 324.591 263.168 324.72 263.46 324.901C263.598 324.986 263.688 325.089 263.731 325.21C263.774 325.33 263.782 325.454 263.757 325.583C263.731 325.703 263.675 325.811 263.589 325.905C263.512 325.991 263.413 326.047 263.293 326.073C263.173 326.09 263.04 326.06 262.894 325.983C262.705 325.871 262.511 325.789 262.314 325.738C262.116 325.678 261.928 325.648 261.747 325.648C261.464 325.648 261.215 325.695 261 325.789C260.785 325.875 260.601 326.004 260.446 326.176C260.3 326.339 260.189 326.545 260.111 326.794C260.034 327.043 259.995 327.331 259.995 327.657C259.995 328.292 260.146 328.795 260.446 329.164C260.755 329.525 261.189 329.705 261.747 329.705C261.928 329.705 262.112 329.679 262.301 329.628C262.499 329.576 262.696 329.495 262.894 329.383C263.04 329.306 263.168 329.28 263.28 329.306C263.4 329.332 263.499 329.392 263.576 329.486C263.654 329.572 263.701 329.679 263.718 329.808C263.735 329.928 263.718 330.049 263.666 330.169C263.624 330.289 263.538 330.388 263.409 330.465C263.125 330.637 262.825 330.761 262.507 330.839C262.189 330.916 261.889 330.954 261.606 330.954ZM265.569 330.916C265.311 330.916 265.114 330.839 264.976 330.684C264.839 330.529 264.77 330.315 264.77 330.04V325.313C264.77 325.029 264.839 324.815 264.976 324.669C265.114 324.514 265.311 324.437 265.569 324.437C265.826 324.437 266.024 324.514 266.161 324.669C266.307 324.815 266.38 325.029 266.38 325.313V330.04C266.38 330.315 266.311 330.529 266.174 330.684C266.037 330.839 265.835 330.916 265.569 330.916ZM265.569 323.239C265.268 323.239 265.032 323.166 264.86 323.02C264.697 322.865 264.615 322.655 264.615 322.389C264.615 322.114 264.697 321.904 264.86 321.758C265.032 321.612 265.268 321.539 265.569 321.539C265.878 321.539 266.114 321.612 266.277 321.758C266.44 321.904 266.522 322.114 266.522 322.389C266.522 322.655 266.44 322.865 266.277 323.02C266.114 323.166 265.878 323.239 265.569 323.239ZM270.926 330.954C270.273 330.954 269.706 330.821 269.225 330.555C268.744 330.289 268.371 329.911 268.105 329.422C267.838 328.924 267.705 328.34 267.705 327.67C267.705 327.163 267.778 326.712 267.924 326.317C268.079 325.914 268.298 325.57 268.581 325.287C268.865 324.995 269.204 324.776 269.599 324.63C269.994 324.475 270.436 324.398 270.926 324.398C271.578 324.398 272.145 324.531 272.626 324.798C273.107 325.064 273.48 325.442 273.746 325.931C274.013 326.42 274.146 327 274.146 327.67C274.146 328.177 274.068 328.632 273.914 329.035C273.768 329.439 273.553 329.787 273.27 330.079C272.986 330.362 272.647 330.581 272.252 330.736C271.857 330.882 271.415 330.954 270.926 330.954ZM270.926 329.731C271.243 329.731 271.522 329.654 271.763 329.499C272.003 329.344 272.188 329.117 272.317 328.816C272.454 328.507 272.523 328.125 272.523 327.67C272.523 326.983 272.377 326.472 272.085 326.137C271.793 325.794 271.406 325.622 270.926 325.622C270.608 325.622 270.329 325.699 270.088 325.854C269.848 326 269.659 326.227 269.522 326.536C269.393 326.837 269.328 327.215 269.328 327.67C269.328 328.348 269.474 328.864 269.766 329.216C270.058 329.559 270.445 329.731 270.926 329.731ZM271.531 323.612C271.445 323.733 271.342 323.801 271.222 323.819C271.102 323.836 270.986 323.814 270.874 323.754C270.762 323.694 270.681 323.608 270.629 323.497C270.586 323.385 270.599 323.26 270.668 323.123L271.647 321.204C271.724 321.041 271.827 320.938 271.956 320.895C272.085 320.843 272.218 320.835 272.355 320.869C272.493 320.903 272.609 320.968 272.703 321.062C272.806 321.157 272.866 321.272 272.883 321.41C272.909 321.539 272.875 321.672 272.78 321.809L271.531 323.612ZM276.273 330.929C276.016 330.929 275.818 330.86 275.681 330.723C275.543 330.577 275.475 330.371 275.475 330.104V325.235C275.475 324.969 275.543 324.767 275.681 324.63C275.818 324.493 276.011 324.424 276.26 324.424C276.509 324.424 276.703 324.493 276.84 324.63C276.977 324.767 277.046 324.969 277.046 325.235V326.111L276.904 325.789C277.093 325.334 277.385 324.991 277.78 324.759C278.184 324.518 278.639 324.398 279.146 324.398C279.652 324.398 280.069 324.493 280.395 324.682C280.721 324.87 280.966 325.158 281.129 325.545C281.292 325.922 281.374 326.403 281.374 326.987V330.104C281.374 330.371 281.305 330.577 281.168 330.723C281.031 330.86 280.833 330.929 280.575 330.929C280.318 330.929 280.116 330.86 279.97 330.723C279.833 330.577 279.764 330.371 279.764 330.104V327.065C279.764 326.575 279.669 326.219 279.481 325.995C279.3 325.772 279.017 325.661 278.63 325.661C278.158 325.661 277.78 325.811 277.497 326.111C277.222 326.403 277.085 326.794 277.085 327.283V330.104C277.085 330.654 276.814 330.929 276.273 330.929ZM287.382 330.826C287.107 330.826 286.906 330.766 286.777 330.645C286.657 330.517 286.596 330.332 286.596 330.091C286.596 329.946 286.635 329.804 286.712 329.666C286.79 329.529 286.901 329.383 287.047 329.228L289.636 326.472C290.031 326.06 290.315 325.686 290.486 325.351C290.658 325.008 290.744 324.664 290.744 324.321C290.744 323.892 290.607 323.565 290.332 323.342C290.066 323.119 289.675 323.007 289.16 323.007C288.868 323.007 288.576 323.05 288.284 323.136C287.992 323.213 287.696 323.351 287.395 323.548C287.24 323.651 287.095 323.694 286.957 323.677C286.828 323.66 286.712 323.604 286.609 323.509C286.515 323.415 286.45 323.299 286.416 323.162C286.382 323.024 286.386 322.887 286.429 322.749C286.481 322.603 286.584 322.479 286.738 322.376C287.107 322.127 287.52 321.938 287.975 321.809C288.438 321.68 288.902 321.616 289.366 321.616C290.018 321.616 290.568 321.715 291.015 321.912C291.461 322.11 291.8 322.397 292.032 322.775C292.264 323.153 292.38 323.612 292.38 324.153C292.38 324.514 292.32 324.866 292.2 325.21C292.088 325.553 291.912 325.901 291.671 326.253C291.44 326.605 291.135 326.979 290.757 327.374L288.335 329.898V329.46H292.122C292.354 329.46 292.53 329.516 292.65 329.628C292.771 329.739 292.831 329.907 292.831 330.13C292.831 330.353 292.771 330.525 292.65 330.645C292.53 330.766 292.354 330.826 292.122 330.826H287.382Z" fill="#336ACC"/>
<rect x="361" y="298" width="53.0538" height="26.5269" rx="6.63173" fill="#005E7A"/>
<path d="M373.848 309.843C374.301 309.843 374.689 309.943 375.013 310.144C375.337 310.345 375.585 310.626 375.756 310.989C375.928 311.349 376.014 311.769 376.014 312.252V312.752H372.337C372.347 313.377 372.502 313.853 372.803 314.18C373.104 314.507 373.529 314.671 374.076 314.671C374.413 314.671 374.71 314.64 374.97 314.579C375.229 314.517 375.497 314.426 375.776 314.307V315.016C375.507 315.136 375.24 315.223 374.974 315.278C374.712 315.333 374.401 315.361 374.042 315.361C373.53 315.361 373.083 315.257 372.701 315.05C372.322 314.839 372.028 314.532 371.817 314.127C371.607 313.722 371.501 313.227 371.501 312.641C371.501 312.067 371.597 311.572 371.788 311.154C371.982 310.733 372.254 310.409 372.604 310.183C372.957 309.956 373.372 309.843 373.848 309.843ZM373.838 310.503C373.407 310.503 373.064 310.644 372.808 310.926C372.552 311.208 372.4 311.601 372.351 312.106H375.169C375.165 311.789 375.115 311.51 375.018 311.271C374.924 311.028 374.78 310.84 374.586 310.707C374.392 310.571 374.142 310.503 373.838 310.503ZM379.904 309.843C380.536 309.843 381.014 309.998 381.337 310.309C381.661 310.617 381.823 311.112 381.823 311.795V315.263H381.026V311.849C381.026 311.405 380.924 311.073 380.72 310.853C380.52 310.633 380.21 310.523 379.793 310.523C379.203 310.523 378.789 310.69 378.549 311.023C378.31 311.357 378.19 311.841 378.19 312.475V315.263H377.384V309.94H378.034L378.156 310.707H378.2C378.313 310.52 378.457 310.362 378.632 310.236C378.807 310.107 379.003 310.01 379.22 309.945C379.437 309.877 379.665 309.843 379.904 309.843ZM385.204 314.7C385.336 314.7 385.472 314.689 385.612 314.666C385.751 314.643 385.864 314.616 385.952 314.583V315.21C385.858 315.252 385.727 315.288 385.558 315.317C385.393 315.346 385.231 315.361 385.073 315.361C384.791 315.361 384.535 315.312 384.305 315.215C384.075 315.114 383.891 314.946 383.751 314.71C383.615 314.473 383.547 314.146 383.547 313.729V310.571H382.79V310.178L383.552 309.862L383.873 308.706H384.359V309.94H385.918V310.571H384.359V313.704C384.359 314.038 384.435 314.287 384.587 314.452C384.742 314.617 384.948 314.7 385.204 314.7ZM389.08 309.843C389.533 309.843 389.922 309.943 390.246 310.144C390.569 310.345 390.817 310.626 390.989 310.989C391.16 311.349 391.246 311.769 391.246 312.252V312.752H387.569C387.579 313.377 387.734 313.853 388.035 314.18C388.337 314.507 388.761 314.671 389.308 314.671C389.645 314.671 389.943 314.64 390.202 314.579C390.461 314.517 390.73 314.426 391.008 314.307V315.016C390.739 315.136 390.472 315.223 390.207 315.278C389.944 315.333 389.633 315.361 389.274 315.361C388.762 315.361 388.316 315.257 387.933 315.05C387.555 314.839 387.26 314.532 387.049 314.127C386.839 313.722 386.734 313.227 386.734 312.641C386.734 312.067 386.829 311.572 387.02 311.154C387.215 310.733 387.487 310.409 387.836 310.183C388.189 309.956 388.604 309.843 389.08 309.843ZM389.07 310.503C388.639 310.503 388.296 310.644 388.04 310.926C387.785 311.208 387.632 311.601 387.584 312.106H390.401C390.398 311.789 390.348 311.51 390.25 311.271C390.156 311.028 390.012 310.84 389.818 310.707C389.624 310.571 389.374 310.503 389.07 310.503ZM395.035 309.843C395.142 309.843 395.253 309.849 395.37 309.862C395.486 309.872 395.59 309.886 395.681 309.906L395.579 310.654C395.491 310.631 395.394 310.613 395.287 310.6C395.18 310.588 395.08 310.581 394.986 310.581C394.772 310.581 394.57 310.625 394.379 310.712C394.191 310.796 394.026 310.919 393.884 311.081C393.741 311.24 393.629 311.433 393.548 311.659C393.467 311.883 393.427 312.132 393.427 312.407V315.263H392.616V309.94H393.286L393.374 310.921H393.408C393.518 310.724 393.65 310.544 393.806 310.382C393.961 310.217 394.141 310.086 394.345 309.988C394.552 309.891 394.782 309.843 395.035 309.843Z" fill="white"/>
<path d="M421.905 310.128C422.569 310.128 423.098 310.356 423.494 310.813C423.889 311.27 424.086 311.956 424.086 312.872C424.086 313.478 423.995 313.986 423.814 314.398C423.633 314.809 423.377 315.12 423.047 315.33C422.72 315.541 422.333 315.646 421.886 315.646C421.604 315.646 421.356 315.609 421.143 315.534C420.929 315.46 420.746 315.359 420.594 315.233C420.442 315.107 420.315 314.969 420.215 314.82H420.157C420.166 314.947 420.178 315.099 420.191 315.277C420.207 315.455 420.215 315.61 420.215 315.743V317.929H419.404V310.225H420.069L420.176 311.012H420.215C420.319 310.85 420.445 310.703 420.594 310.57C420.743 310.434 420.924 310.327 421.138 310.25C421.355 310.169 421.611 310.128 421.905 310.128ZM421.764 310.808C421.395 310.808 421.097 310.879 420.871 311.022C420.647 311.164 420.484 311.378 420.38 311.663C420.276 311.945 420.221 312.299 420.215 312.727V312.882C420.215 313.332 420.263 313.713 420.361 314.024C420.461 314.335 420.625 314.571 420.851 314.733C421.081 314.895 421.389 314.976 421.774 314.976C422.104 314.976 422.38 314.887 422.6 314.709C422.82 314.53 422.983 314.283 423.09 313.965C423.2 313.645 423.256 313.277 423.256 312.863C423.256 312.235 423.132 311.736 422.886 311.367C422.643 310.994 422.269 310.808 421.764 310.808ZM427.486 310.138C428.121 310.138 428.592 310.28 428.9 310.565C429.207 310.85 429.361 311.305 429.361 311.93V315.549H428.773L428.618 314.762H428.579C428.43 314.956 428.275 315.12 428.113 315.253C427.951 315.382 427.763 315.481 427.549 315.549C427.339 315.614 427.08 315.646 426.772 315.646C426.448 315.646 426.16 315.589 425.908 315.476C425.658 315.363 425.461 315.191 425.315 314.961C425.172 314.731 425.101 314.44 425.101 314.087C425.101 313.556 425.312 313.148 425.733 312.863C426.154 312.578 426.795 312.422 427.656 312.396L428.574 312.358V312.032C428.574 311.572 428.475 311.25 428.278 311.066C428.08 310.881 427.802 310.789 427.442 310.789C427.164 310.789 426.898 310.829 426.646 310.91C426.393 310.991 426.154 311.087 425.927 311.197L425.679 310.585C425.919 310.462 426.194 310.356 426.505 310.269C426.816 310.182 427.143 310.138 427.486 310.138ZM428.564 312.926L427.753 312.96C427.089 312.986 426.622 313.094 426.35 313.285C426.078 313.476 425.942 313.747 425.942 314.097C425.942 314.401 426.034 314.626 426.218 314.772C426.403 314.917 426.647 314.99 426.952 314.99C427.425 314.99 427.812 314.859 428.113 314.597C428.414 314.335 428.564 313.941 428.564 313.417V312.926ZM433.441 310.128C433.548 310.128 433.66 310.135 433.776 310.148C433.893 310.157 433.996 310.172 434.087 310.191L433.985 310.939C433.898 310.917 433.801 310.899 433.694 310.886C433.587 310.873 433.486 310.866 433.393 310.866C433.179 310.866 432.976 310.91 432.785 310.998C432.598 311.082 432.432 311.205 432.29 311.367C432.147 311.525 432.036 311.718 431.955 311.945C431.874 312.168 431.833 312.418 431.833 312.693V315.549H431.022V310.225H431.693L431.78 311.206H431.814C431.924 311.009 432.057 310.829 432.212 310.667C432.368 310.502 432.547 310.371 432.751 310.274C432.959 310.177 433.189 310.128 433.441 310.128ZM437.084 310.138C437.719 310.138 438.19 310.28 438.497 310.565C438.805 310.85 438.959 311.305 438.959 311.93V315.549H438.371L438.216 314.762H438.177C438.028 314.956 437.873 315.12 437.711 315.253C437.549 315.382 437.361 315.481 437.147 315.549C436.937 315.614 436.678 315.646 436.37 315.646C436.046 315.646 435.758 315.589 435.505 315.476C435.256 315.363 435.059 315.191 434.913 314.961C434.77 314.731 434.699 314.44 434.699 314.087C434.699 313.556 434.91 313.148 435.331 312.863C435.752 312.578 436.393 312.422 437.254 312.396L438.172 312.358V312.032C438.172 311.572 438.073 311.25 437.876 311.066C437.678 310.881 437.4 310.789 437.04 310.789C436.762 310.789 436.496 310.829 436.244 310.91C435.991 310.991 435.752 311.087 435.525 311.197L435.277 310.585C435.517 310.462 435.792 310.356 436.103 310.269C436.414 310.182 436.741 310.138 437.084 310.138ZM438.162 312.926L437.351 312.96C436.687 312.986 436.219 313.094 435.947 313.285C435.675 313.476 435.539 313.747 435.539 314.097C435.539 314.401 435.632 314.626 435.816 314.772C436.001 314.917 436.245 314.99 436.55 314.99C437.022 314.99 437.409 314.859 437.711 314.597C438.012 314.335 438.162 313.941 438.162 313.417V312.926ZM445.196 310.138C445.83 310.138 446.301 310.28 446.609 310.565C446.917 310.85 447.07 311.305 447.07 311.93V315.549H446.483L446.327 314.762H446.288C446.14 314.956 445.984 315.12 445.822 315.253C445.66 315.382 445.472 315.481 445.259 315.549C445.048 315.614 444.789 315.646 444.482 315.646C444.158 315.646 443.87 315.589 443.617 315.476C443.368 315.363 443.17 315.191 443.024 314.961C442.882 314.731 442.811 314.44 442.811 314.087C442.811 313.556 443.021 313.148 443.442 312.863C443.863 312.578 444.504 312.422 445.366 312.396L446.284 312.358V312.032C446.284 311.572 446.185 311.25 445.987 311.066C445.79 310.881 445.511 310.789 445.152 310.789C444.873 310.789 444.608 310.829 444.355 310.91C444.103 310.991 443.863 311.087 443.636 311.197L443.389 310.585C443.628 310.462 443.904 310.356 444.214 310.269C444.525 310.182 444.852 310.138 445.196 310.138ZM446.274 312.926L445.463 312.96C444.799 312.986 444.331 313.094 444.059 313.285C443.787 313.476 443.651 313.747 443.651 314.097C443.651 314.401 443.743 314.626 443.928 314.772C444.112 314.917 444.357 314.99 444.661 314.99C445.134 314.99 445.521 314.859 445.822 314.597C446.123 314.335 446.274 313.941 446.274 313.417V312.926ZM450.864 315.646C450.385 315.646 449.962 315.547 449.596 315.35C449.23 315.152 448.945 314.851 448.741 314.446C448.537 314.041 448.435 313.531 448.435 312.916C448.435 312.272 448.542 311.746 448.756 311.338C448.973 310.926 449.271 310.622 449.65 310.424C450.029 310.227 450.459 310.128 450.942 310.128C451.207 310.128 451.463 310.156 451.709 310.211C451.958 310.263 452.162 310.329 452.321 310.41L452.078 311.085C451.916 311.02 451.729 310.962 451.515 310.91C451.304 310.858 451.107 310.832 450.922 310.832C450.553 310.832 450.245 310.912 449.999 311.07C449.757 311.229 449.574 311.462 449.451 311.77C449.331 312.078 449.271 312.456 449.271 312.906C449.271 313.337 449.329 313.705 449.446 314.009C449.565 314.313 449.742 314.547 449.975 314.709C450.211 314.867 450.506 314.947 450.859 314.947C451.141 314.947 451.395 314.917 451.622 314.859C451.848 314.798 452.054 314.726 452.239 314.645V315.364C452.06 315.455 451.861 315.525 451.641 315.573C451.424 315.622 451.165 315.646 450.864 315.646ZM455.634 315.646C455.155 315.646 454.732 315.547 454.366 315.35C454 315.152 453.715 314.851 453.511 314.446C453.307 314.041 453.205 313.531 453.205 312.916C453.205 312.272 453.312 311.746 453.526 311.338C453.743 310.926 454.041 310.622 454.419 310.424C454.798 310.227 455.229 310.128 455.711 310.128C455.977 310.128 456.233 310.156 456.479 310.211C456.728 310.263 456.932 310.329 457.091 310.41L456.848 311.085C456.686 311.02 456.498 310.962 456.285 310.91C456.074 310.858 455.877 310.832 455.692 310.832C455.323 310.832 455.015 310.912 454.769 311.07C454.526 311.229 454.343 311.462 454.22 311.77C454.101 312.078 454.041 312.456 454.041 312.906C454.041 313.337 454.099 313.705 454.215 314.009C454.335 314.313 454.512 314.547 454.745 314.709C454.981 314.867 455.276 314.947 455.629 314.947C455.911 314.947 456.165 314.917 456.391 314.859C456.618 314.798 456.824 314.726 457.008 314.645V315.364C456.83 315.455 456.631 315.525 456.411 315.573C456.194 315.622 455.935 315.646 455.634 315.646ZM459.078 310.225V315.549H458.271V310.225H459.078ZM458.684 308.234C458.817 308.234 458.93 308.278 459.024 308.365C459.121 308.449 459.17 308.582 459.17 308.763C459.17 308.941 459.121 309.074 459.024 309.162C458.93 309.249 458.817 309.293 458.684 309.293C458.545 309.293 458.428 309.249 458.334 309.162C458.244 309.074 458.198 308.941 458.198 308.763C458.198 308.582 458.244 308.449 458.334 308.365C458.428 308.278 458.545 308.234 458.684 308.234ZM465.377 312.877C465.377 313.315 465.321 313.705 465.207 314.048C465.094 314.391 464.93 314.681 464.717 314.917C464.503 315.154 464.244 315.335 463.94 315.461C463.638 315.584 463.297 315.646 462.915 315.646C462.559 315.646 462.231 315.584 461.934 315.461C461.639 315.335 461.383 315.154 461.166 314.917C460.952 314.681 460.786 314.391 460.666 314.048C460.549 313.705 460.491 313.315 460.491 312.877C460.491 312.294 460.59 311.799 460.787 311.391C460.985 310.98 461.267 310.667 461.632 310.454C462.002 310.237 462.44 310.128 462.949 310.128C463.434 310.128 463.859 310.237 464.221 310.454C464.587 310.671 464.871 310.985 465.071 311.396C465.275 311.804 465.377 312.298 465.377 312.877ZM461.326 312.877C461.326 313.305 461.383 313.676 461.496 313.99C461.61 314.304 461.785 314.547 462.021 314.718C462.257 314.89 462.562 314.976 462.934 314.976C463.303 314.976 463.606 314.89 463.842 314.718C464.082 314.547 464.259 314.304 464.372 313.99C464.485 313.676 464.542 313.305 464.542 312.877C464.542 312.453 464.485 312.087 464.372 311.78C464.259 311.469 464.084 311.229 463.847 311.061C463.611 310.892 463.305 310.808 462.929 310.808C462.376 310.808 461.969 310.991 461.71 311.357C461.454 311.723 461.326 312.23 461.326 312.877ZM469.292 310.128C469.924 310.128 470.401 310.284 470.725 310.594C471.049 310.902 471.211 311.398 471.211 312.081V315.549H470.414V312.134C470.414 311.691 470.312 311.359 470.108 311.138C469.908 310.918 469.598 310.808 469.181 310.808C468.591 310.808 468.177 310.975 467.937 311.308C467.697 311.642 467.578 312.126 467.578 312.761V315.549H466.771V310.225H467.422L467.544 310.993H467.587C467.701 310.805 467.845 310.648 468.02 310.522C468.195 310.392 468.39 310.295 468.607 310.23C468.824 310.162 469.053 310.128 469.292 310.128ZM474.864 310.138C475.498 310.138 475.969 310.28 476.277 310.565C476.585 310.85 476.738 311.305 476.738 311.93V315.549H476.151L475.995 314.762H475.956C475.807 314.956 475.652 315.12 475.49 315.253C475.328 315.382 475.14 315.481 474.927 315.549C474.716 315.614 474.457 315.646 474.15 315.646C473.826 315.646 473.537 315.589 473.285 315.476C473.036 315.363 472.838 315.191 472.692 314.961C472.55 314.731 472.479 314.44 472.479 314.087C472.479 313.556 472.689 313.148 473.11 312.863C473.531 312.578 474.172 312.422 475.034 312.396L475.952 312.358V312.032C475.952 311.572 475.853 311.25 475.655 311.066C475.458 310.881 475.179 310.789 474.82 310.789C474.541 310.789 474.276 310.829 474.023 310.91C473.771 310.991 473.531 311.087 473.304 311.197L473.057 310.585C473.296 310.462 473.571 310.356 473.882 310.269C474.193 310.182 474.52 310.138 474.864 310.138ZM475.942 312.926L475.131 312.96C474.467 312.986 473.999 313.094 473.727 313.285C473.455 313.476 473.319 313.747 473.319 314.097C473.319 314.401 473.411 314.626 473.596 314.772C473.78 314.917 474.025 314.99 474.329 314.99C474.802 314.99 475.189 314.859 475.49 314.597C475.791 314.335 475.942 313.941 475.942 313.417V312.926ZM480.818 310.128C480.925 310.128 481.037 310.135 481.154 310.148C481.27 310.157 481.374 310.172 481.464 310.191L481.362 310.939C481.275 310.917 481.178 310.899 481.071 310.886C480.964 310.873 480.864 310.866 480.77 310.866C480.556 310.866 480.354 310.91 480.163 310.998C479.975 311.082 479.81 311.205 479.667 311.367C479.525 311.525 479.413 311.718 479.332 311.945C479.251 312.168 479.211 312.418 479.211 312.693V315.549H478.4V310.225H479.07L479.157 311.206H479.191C479.301 311.009 479.434 310.829 479.59 310.667C479.745 310.502 479.925 310.371 480.129 310.274C480.336 310.177 480.566 310.128 480.818 310.128ZM489.45 310.225V315.549H488.789L488.673 314.801H488.629C488.519 314.985 488.376 315.141 488.201 315.267C488.027 315.393 487.829 315.487 487.609 315.549C487.392 315.614 487.16 315.646 486.914 315.646C486.493 315.646 486.14 315.578 485.855 315.442C485.57 315.306 485.355 315.095 485.209 314.811C485.067 314.526 484.996 314.16 484.996 313.713V310.225H485.812V313.655C485.812 314.098 485.912 314.43 486.113 314.65C486.314 314.867 486.62 314.976 487.031 314.976C487.426 314.976 487.74 314.901 487.973 314.752C488.21 314.603 488.38 314.385 488.483 314.097C488.587 313.805 488.639 313.449 488.639 313.028V310.225H489.45ZM493.676 310.128C494.307 310.128 494.785 310.284 495.108 310.594C495.432 310.902 495.594 311.398 495.594 312.081V315.549H494.798V312.134C494.798 311.691 494.696 311.359 494.492 311.138C494.291 310.918 493.982 310.808 493.564 310.808C492.974 310.808 492.56 310.975 492.32 311.308C492.081 311.642 491.961 312.126 491.961 312.761V315.549H491.155V310.225H491.806L491.927 310.993H491.971C492.084 310.805 492.228 310.648 492.403 310.522C492.578 310.392 492.774 310.295 492.991 310.23C493.208 310.162 493.436 310.128 493.676 310.128ZM501.889 310.128C502.342 310.128 502.731 310.229 503.055 310.429C503.379 310.63 503.626 310.912 503.798 311.274C503.97 311.634 504.055 312.055 504.055 312.537V313.038H500.379C500.388 313.663 500.544 314.139 500.845 314.466C501.146 314.793 501.57 314.956 502.117 314.956C502.454 314.956 502.752 314.925 503.011 314.864C503.27 314.802 503.539 314.712 503.817 314.592V315.301C503.549 315.421 503.282 315.508 503.016 315.563C502.754 315.618 502.443 315.646 502.083 315.646C501.572 315.646 501.125 315.542 500.743 315.335C500.364 315.125 500.069 314.817 499.859 314.412C499.648 314.007 499.543 313.512 499.543 312.926C499.543 312.353 499.639 311.857 499.83 311.44C500.024 311.019 500.296 310.695 500.646 310.468C500.999 310.242 501.413 310.128 501.889 310.128ZM501.879 310.789C501.449 310.789 501.105 310.93 500.85 311.211C500.594 311.493 500.442 311.886 500.393 312.392H503.21C503.207 312.074 503.157 311.796 503.06 311.556C502.966 311.313 502.822 311.126 502.627 310.993C502.433 310.857 502.184 310.789 501.879 310.789ZM506.236 315.549H505.425V307.991H506.236V315.549ZM509.991 310.128C510.444 310.128 510.833 310.229 511.157 310.429C511.481 310.63 511.728 310.912 511.9 311.274C512.071 311.634 512.157 312.055 512.157 312.537V313.038H508.48C508.49 313.663 508.646 314.139 508.947 314.466C509.248 314.793 509.672 314.956 510.219 314.956C510.556 314.956 510.854 314.925 511.113 314.864C511.372 314.802 511.641 314.712 511.919 314.592V315.301C511.651 315.421 511.383 315.508 511.118 315.563C510.856 315.618 510.545 315.646 510.185 315.646C509.674 315.646 509.227 315.542 508.845 315.335C508.466 315.125 508.171 314.817 507.961 314.412C507.75 314.007 507.645 313.512 507.645 312.926C507.645 312.353 507.74 311.857 507.932 311.44C508.126 311.019 508.398 310.695 508.748 310.468C509.1 310.242 509.515 310.128 509.991 310.128ZM509.981 310.789C509.551 310.789 509.207 310.93 508.952 311.211C508.696 311.493 508.544 311.886 508.495 312.392H511.312C511.309 312.074 511.259 311.796 511.162 311.556C511.068 311.313 510.924 311.126 510.729 310.993C510.535 310.857 510.286 310.789 509.981 310.789ZM519.307 310.128C519.893 310.128 520.335 310.282 520.633 310.59C520.931 310.894 521.08 311.385 521.08 312.061V315.549H520.283V312.1C520.283 311.67 520.19 311.347 520.002 311.134C519.817 310.917 519.542 310.808 519.176 310.808C518.661 310.808 518.287 310.957 518.054 311.255C517.821 311.553 517.704 311.992 517.704 312.571V315.549H516.903V312.1C516.903 311.812 516.861 311.572 516.777 311.381C516.696 311.19 516.573 311.048 516.407 310.954C516.245 310.857 516.04 310.808 515.79 310.808C515.438 310.808 515.154 310.881 514.94 311.027C514.727 311.172 514.571 311.389 514.474 311.678C514.38 311.963 514.333 312.314 514.333 312.732V315.549H513.527V310.225H514.178L514.299 310.978H514.343C514.45 310.794 514.584 310.638 514.746 310.512C514.908 310.386 515.089 310.29 515.29 310.225C515.491 310.161 515.705 310.128 515.931 310.128C516.336 310.128 516.675 310.204 516.947 310.356C517.222 310.505 517.421 310.734 517.544 311.041H517.588C517.763 310.734 518.002 310.505 518.307 310.356C518.611 310.204 518.944 310.128 519.307 310.128ZM524.786 310.128C525.239 310.128 525.628 310.229 525.952 310.429C526.276 310.63 526.523 310.912 526.695 311.274C526.867 311.634 526.952 312.055 526.952 312.537V313.038H523.275C523.285 313.663 523.441 314.139 523.742 314.466C524.043 314.793 524.467 314.956 525.014 314.956C525.351 314.956 525.649 314.925 525.908 314.864C526.167 314.802 526.436 314.712 526.714 314.592V315.301C526.446 315.421 526.178 315.508 525.913 315.563C525.651 315.618 525.34 315.646 524.98 315.646C524.469 315.646 524.022 315.542 523.64 315.335C523.261 315.125 522.966 314.817 522.756 314.412C522.545 314.007 522.44 313.512 522.44 312.926C522.44 312.353 522.536 311.857 522.727 311.44C522.921 311.019 523.193 310.695 523.543 310.468C523.896 310.242 524.31 310.128 524.786 310.128ZM524.776 310.789C524.346 310.789 524.002 310.93 523.747 311.211C523.491 311.493 523.339 311.886 523.29 312.392H526.107C526.104 312.074 526.054 311.796 525.957 311.556C525.863 311.313 525.719 311.126 525.524 310.993C525.33 310.857 525.081 310.789 524.776 310.789ZM530.843 310.128C531.474 310.128 531.952 310.284 532.276 310.594C532.6 310.902 532.762 311.398 532.762 312.081V315.549H531.965V312.134C531.965 311.691 531.863 311.359 531.659 311.138C531.458 310.918 531.149 310.808 530.731 310.808C530.142 310.808 529.727 310.975 529.488 311.308C529.248 311.642 529.128 312.126 529.128 312.761V315.549H528.322V310.225H528.973L529.094 310.993H529.138C529.251 310.805 529.396 310.648 529.57 310.522C529.745 310.392 529.941 310.295 530.158 310.23C530.375 310.162 530.603 310.128 530.843 310.128ZM536.142 314.985C536.275 314.985 536.411 314.974 536.55 314.951C536.69 314.929 536.803 314.901 536.89 314.869V315.495C536.796 315.537 536.665 315.573 536.497 315.602C536.332 315.631 536.17 315.646 536.011 315.646C535.729 315.646 535.474 315.597 535.244 315.5C535.014 315.4 534.829 315.231 534.69 314.995C534.554 314.759 534.486 314.432 534.486 314.014V310.857H533.728V310.463L534.491 310.148L534.811 308.992H535.297V310.225H536.856V310.857H535.297V313.99C535.297 314.323 535.373 314.573 535.525 314.738C535.681 314.903 535.886 314.985 536.142 314.985ZM542.559 312.877C542.559 313.315 542.502 313.705 542.389 314.048C542.275 314.391 542.112 314.681 541.898 314.917C541.684 315.154 541.425 315.335 541.121 315.461C540.82 315.584 540.478 315.646 540.096 315.646C539.74 315.646 539.413 315.584 539.115 315.461C538.82 315.335 538.564 315.154 538.347 314.917C538.134 314.681 537.967 314.391 537.847 314.048C537.731 313.705 537.672 313.315 537.672 312.877C537.672 312.294 537.771 311.799 537.969 311.391C538.166 310.98 538.448 310.667 538.814 310.454C539.183 310.237 539.622 310.128 540.13 310.128C540.616 310.128 541.04 310.237 541.403 310.454C541.769 310.671 542.052 310.985 542.253 311.396C542.457 311.804 542.559 312.298 542.559 312.877ZM538.508 312.877C538.508 313.305 538.564 313.676 538.678 313.99C538.791 314.304 538.966 314.547 539.202 314.718C539.439 314.89 539.743 314.976 540.115 314.976C540.485 314.976 540.787 314.89 541.024 314.718C541.263 314.547 541.44 314.304 541.553 313.99C541.667 313.676 541.723 313.305 541.723 312.877C541.723 312.453 541.667 312.087 541.553 311.78C541.44 311.469 541.265 311.229 541.029 311.061C540.792 310.892 540.486 310.808 540.111 310.808C539.557 310.808 539.15 310.991 538.891 311.357C538.636 311.723 538.508 312.23 538.508 312.877ZM547.343 310.225V315.549H546.537V310.225H547.343ZM546.95 308.234C547.082 308.234 547.196 308.278 547.29 308.365C547.387 308.449 547.435 308.582 547.435 308.763C547.435 308.941 547.387 309.074 547.29 309.162C547.196 309.249 547.082 309.293 546.95 309.293C546.81 309.293 546.694 309.249 546.6 309.162C546.509 309.074 546.464 308.941 546.464 308.763C546.464 308.582 546.509 308.449 546.6 308.365C546.694 308.278 546.81 308.234 546.95 308.234ZM551.574 310.128C552.205 310.128 552.683 310.284 553.007 310.594C553.33 310.902 553.492 311.398 553.492 312.081V315.549H552.696V312.134C552.696 311.691 552.594 311.359 552.39 311.138C552.189 310.918 551.88 310.808 551.462 310.808C550.873 310.808 550.458 310.975 550.218 311.308C549.979 311.642 549.859 312.126 549.859 312.761V315.549H549.053V310.225H549.704L549.825 310.993H549.869C549.982 310.805 550.126 310.648 550.301 310.522C550.476 310.392 550.672 310.295 550.889 310.23C551.106 310.162 551.334 310.128 551.574 310.128ZM556.873 314.985C557.006 314.985 557.142 314.974 557.281 314.951C557.42 314.929 557.533 314.901 557.621 314.869V315.495C557.527 315.537 557.396 315.573 557.227 315.602C557.062 315.631 556.9 315.646 556.742 315.646C556.46 315.646 556.204 315.597 555.974 315.5C555.744 315.4 555.56 315.231 555.421 314.995C555.285 314.759 555.217 314.432 555.217 314.014V310.857H554.459V310.463L555.221 310.148L555.542 308.992H556.028V310.225H557.587V310.857H556.028V313.99C556.028 314.323 556.104 314.573 556.256 314.738C556.411 314.903 556.617 314.985 556.873 314.985ZM560.749 310.128C561.202 310.128 561.591 310.229 561.915 310.429C562.239 310.63 562.486 310.912 562.658 311.274C562.829 311.634 562.915 312.055 562.915 312.537V313.038H559.238C559.248 313.663 559.404 314.139 559.705 314.466C560.006 314.793 560.43 314.956 560.977 314.956C561.314 314.956 561.612 314.925 561.871 314.864C562.13 314.802 562.399 314.712 562.677 314.592V315.301C562.409 315.421 562.141 315.508 561.876 315.563C561.614 315.618 561.303 315.646 560.943 315.646C560.432 315.646 559.985 315.542 559.603 315.335C559.224 315.125 558.929 314.817 558.719 314.412C558.508 314.007 558.403 313.512 558.403 312.926C558.403 312.353 558.498 311.857 558.689 311.44C558.884 311.019 559.156 310.695 559.506 310.468C559.858 310.242 560.273 310.128 560.749 310.128ZM560.739 310.789C560.309 310.789 559.965 310.93 559.71 311.211C559.454 311.493 559.302 311.886 559.253 312.392H562.07C562.067 312.074 562.017 311.796 561.92 311.556C561.826 311.313 561.682 311.126 561.487 310.993C561.293 310.857 561.044 310.789 560.739 310.789ZM566.704 310.128C566.811 310.128 566.922 310.135 567.039 310.148C567.156 310.157 567.259 310.172 567.35 310.191L567.248 310.939C567.16 310.917 567.063 310.899 566.956 310.886C566.85 310.873 566.749 310.866 566.655 310.866C566.442 310.866 566.239 310.91 566.048 310.998C565.86 311.082 565.695 311.205 565.553 311.367C565.41 311.525 565.299 311.718 565.218 311.945C565.137 312.168 565.096 312.418 565.096 312.693V315.549H564.285V310.225H564.955L565.043 311.206H565.077C565.187 311.009 565.32 310.829 565.475 310.667C565.63 310.502 565.81 310.371 566.014 310.274C566.221 310.177 566.451 310.128 566.704 310.128ZM570.347 310.138C570.982 310.138 571.453 310.28 571.76 310.565C572.068 310.85 572.222 311.305 572.222 311.93V315.549H571.634L571.479 314.762H571.44C571.291 314.956 571.135 315.12 570.973 315.253C570.812 315.382 570.624 315.481 570.41 315.549C570.199 315.614 569.94 315.646 569.633 315.646C569.309 315.646 569.021 315.589 568.768 315.476C568.519 315.363 568.321 315.191 568.176 314.961C568.033 314.731 567.962 314.44 567.962 314.087C567.962 313.556 568.172 313.148 568.593 312.863C569.014 312.578 569.655 312.422 570.517 312.396L571.435 312.358V312.032C571.435 311.572 571.336 311.25 571.139 311.066C570.941 310.881 570.663 310.789 570.303 310.789C570.025 310.789 569.759 310.829 569.507 310.91C569.254 310.991 569.014 311.087 568.788 311.197L568.54 310.585C568.78 310.462 569.055 310.356 569.366 310.269C569.677 310.182 570.004 310.138 570.347 310.138ZM571.425 312.926L570.614 312.96C569.95 312.986 569.482 313.094 569.21 313.285C568.938 313.476 568.802 313.747 568.802 314.097C568.802 314.401 568.895 314.626 569.079 314.772C569.264 314.917 569.508 314.99 569.813 314.99C570.285 314.99 570.672 314.859 570.973 314.597C571.275 314.335 571.425 313.941 571.425 313.417V312.926ZM576.015 315.646C575.536 315.646 575.113 315.547 574.747 315.35C574.382 315.152 574.097 314.851 573.893 314.446C573.689 314.041 573.587 313.531 573.587 312.916C573.587 312.272 573.693 311.746 573.907 311.338C574.124 310.926 574.422 310.622 574.801 310.424C575.18 310.227 575.61 310.128 576.093 310.128C576.358 310.128 576.614 310.156 576.86 310.211C577.11 310.263 577.314 310.329 577.472 310.41L577.23 311.085C577.068 311.02 576.88 310.962 576.666 310.91C576.456 310.858 576.258 310.832 576.074 310.832C575.704 310.832 575.397 310.912 575.151 311.07C574.908 311.229 574.725 311.462 574.602 311.77C574.482 312.078 574.422 312.456 574.422 312.906C574.422 313.337 574.48 313.705 574.597 314.009C574.717 314.313 574.893 314.547 575.126 314.709C575.363 314.867 575.657 314.947 576.01 314.947C576.292 314.947 576.546 314.917 576.773 314.859C577 314.798 577.205 314.726 577.39 314.645V315.364C577.212 315.455 577.013 315.525 576.792 315.573C576.575 315.622 576.316 315.646 576.015 315.646ZM580.372 314.985C580.505 314.985 580.641 314.974 580.78 314.951C580.919 314.929 581.033 314.901 581.12 314.869V315.495C581.026 315.537 580.895 315.573 580.727 315.602C580.562 315.631 580.4 315.646 580.241 315.646C579.959 315.646 579.703 315.597 579.474 315.5C579.244 315.4 579.059 315.231 578.92 314.995C578.784 314.759 578.716 314.432 578.716 314.014V310.857H577.958V310.463L578.721 310.148L579.041 308.992H579.527V310.225H581.086V310.857H579.527V313.99C579.527 314.323 579.603 314.573 579.755 314.738C579.911 314.903 580.116 314.985 580.372 314.985ZM583.005 310.225V315.549H582.198V310.225H583.005ZM582.611 308.234C582.744 308.234 582.857 308.278 582.951 308.365C583.048 308.449 583.097 308.582 583.097 308.763C583.097 308.941 583.048 309.074 582.951 309.162C582.857 309.249 582.744 309.293 582.611 309.293C582.472 309.293 582.356 309.249 582.262 309.162C582.171 309.074 582.126 308.941 582.126 308.763C582.126 308.582 582.171 308.449 582.262 308.365C582.356 308.278 582.472 308.234 582.611 308.234ZM585.885 315.549L583.864 310.225H584.729L585.9 313.446C585.981 313.666 586.063 313.909 586.147 314.174C586.232 314.44 586.29 314.653 586.322 314.815H586.356C586.395 314.653 586.46 314.44 586.551 314.174C586.641 313.905 586.724 313.663 586.798 313.446L587.969 310.225H588.833L586.808 315.549H585.885ZM594.278 312.877C594.278 313.315 594.222 313.705 594.108 314.048C593.995 314.391 593.832 314.681 593.618 314.917C593.404 315.154 593.145 315.335 592.841 315.461C592.539 315.584 592.198 315.646 591.816 315.646C591.46 315.646 591.133 315.584 590.835 315.461C590.54 315.335 590.284 315.154 590.067 314.917C589.853 314.681 589.687 314.391 589.567 314.048C589.45 313.705 589.392 313.315 589.392 312.877C589.392 312.294 589.491 311.799 589.688 311.391C589.886 310.98 590.168 310.667 590.533 310.454C590.903 310.237 591.341 310.128 591.85 310.128C592.335 310.128 592.76 310.237 593.122 310.454C593.488 310.671 593.772 310.985 593.972 311.396C594.176 311.804 594.278 312.298 594.278 312.877ZM590.227 312.877C590.227 313.305 590.284 313.676 590.397 313.99C590.511 314.304 590.686 314.547 590.922 314.718C591.158 314.89 591.463 314.976 591.835 314.976C592.204 314.976 592.507 314.89 592.743 314.718C592.983 314.547 593.16 314.304 593.273 313.99C593.386 313.676 593.443 313.305 593.443 312.877C593.443 312.453 593.386 312.087 593.273 311.78C593.16 311.469 592.985 311.229 592.748 311.061C592.512 310.892 592.206 310.808 591.83 310.808C591.277 310.808 590.87 310.991 590.611 311.357C590.355 311.723 590.227 312.23 590.227 312.877Z" fill="#101E37"/>
<path d="M604.5 288.586V289.21C604.844 289.21 605.124 288.931 605.124 288.586H604.5ZM175 288.586V287.963C174.656 287.963 174.376 288.242 174.376 288.586H175ZM174.559 305.441C174.803 305.684 175.197 305.684 175.441 305.441L179.409 301.473C179.652 301.229 179.652 300.835 179.409 300.591C179.165 300.348 178.771 300.348 178.527 300.591L175 304.118L171.473 300.591C171.229 300.348 170.835 300.348 170.591 300.591C170.348 300.835 170.348 301.229 170.591 301.473L174.559 305.441ZM578 237.376C577.656 237.376 577.376 237.656 577.376 238C577.376 238.344 577.656 238.624 578 238.624V237.376ZM604.5 238H605.124C605.124 237.656 604.844 237.376 604.5 237.376V238ZM604.5 287.963H175V289.21H604.5V287.963ZM174.376 288.586V305H175.624V288.586H174.376ZM578 238.624H604.5V237.376H578V238.624ZM603.876 238V288.586H605.124V238H603.876Z" fill="#005E7A"/>
<path d="M556 66V0" stroke="#005E7A" stroke-width="1.247" stroke-linecap="round" stroke-linejoin="round"/>
<path d="M582 80H604.5V210.5H582" stroke="#005E7A" stroke-width="1.247" stroke-linecap="round" stroke-linejoin="round"/>
<path d="M556 228L556 220" stroke="#005E7A" stroke-width="1.247" stroke-linecap="round" stroke-linejoin="round"/>
<rect x="529" y="66" width="53.0538" height="26.5269" rx="6.63173" fill="#005E7A"/>
<path d="M541.517 82.7C541.65 82.7 541.786 82.6887 541.925 82.666C542.064 82.6433 542.178 82.6158 542.265 82.5834V83.21C542.171 83.2521 542.04 83.2877 541.872 83.3169C541.707 83.346 541.545 83.3606 541.386 83.3606C541.104 83.3606 540.849 83.312 540.619 83.2149C540.389 83.1145 540.204 82.9461 540.065 82.7097C539.929 82.4733 539.861 82.1463 539.861 81.7285V78.5713H539.103V78.1779L539.866 77.8622L540.186 76.7062H540.672V77.9399H542.231V78.5713H540.672V81.7043C540.672 82.0378 540.748 82.2871 540.9 82.4523C541.056 82.6174 541.261 82.7 541.517 82.7ZM545.335 77.8525C545.97 77.8525 546.441 77.995 546.748 78.2799C547.056 78.5649 547.21 79.0198 547.21 79.6448V83.2634H546.622L546.467 82.4766H546.428C546.279 82.6708 546.123 82.8344 545.962 82.9671C545.8 83.0967 545.612 83.1954 545.398 83.2634C545.188 83.3282 544.929 83.3606 544.621 83.3606C544.297 83.3606 544.009 83.3039 543.756 83.1906C543.507 83.0772 543.31 82.9056 543.164 82.6757C543.021 82.4458 542.95 82.1544 542.95 81.8014C542.95 81.2703 543.161 80.8623 543.582 80.5774C544.003 80.2924 544.644 80.137 545.505 80.1111L546.423 80.0722V79.7468C546.423 79.287 546.324 78.9648 546.127 78.7802C545.929 78.5956 545.651 78.5033 545.291 78.5033C545.013 78.5033 544.747 78.5438 544.495 78.6248C544.242 78.7057 544.003 78.8013 543.776 78.9114L543.528 78.2993C543.768 78.1763 544.043 78.0711 544.354 77.9836C544.665 77.8962 544.992 77.8525 545.335 77.8525ZM546.413 80.6405L545.602 80.6745C544.938 80.7004 544.47 80.8089 544.198 81C543.926 81.191 543.79 81.4614 543.79 81.8111C543.79 82.1155 543.883 82.3406 544.067 82.4863C544.252 82.632 544.496 82.7048 544.801 82.7048C545.273 82.7048 545.66 82.5737 545.962 82.3114C546.263 82.0491 546.413 81.6557 546.413 81.1311V80.6405ZM549.677 75.7056V77.595C549.677 77.812 549.671 78.0225 549.658 78.2265C549.648 78.4305 549.64 78.5892 549.634 78.7025H549.677C549.823 78.4629 550.034 78.2605 550.309 78.0953C550.584 77.9302 550.935 77.8476 551.363 77.8476C552.03 77.8476 552.561 78.0792 552.956 78.5422C553.354 79.002 553.553 79.6869 553.553 80.5968C553.553 81.1959 553.463 81.701 553.281 82.1123C553.1 82.5235 552.844 82.8344 552.514 83.0449C552.184 83.2553 551.793 83.3606 551.343 83.3606C550.922 83.3606 550.576 83.2829 550.304 83.1274C550.035 82.9688 549.828 82.7761 549.682 82.5494H549.619L549.454 83.2634H548.871V75.7056H549.677ZM551.232 78.5228C550.846 78.5228 550.54 78.5989 550.314 78.7511C550.087 78.9 549.923 79.1267 549.823 79.4311C549.726 79.7322 549.677 80.1143 549.677 80.5774V80.6211C549.677 81.2914 549.789 81.8046 550.013 82.1608C550.236 82.5138 550.642 82.6903 551.232 82.6903C551.727 82.6903 552.098 82.5089 552.344 82.1463C552.593 81.7836 552.718 81.2655 552.718 80.592C552.718 79.9055 552.595 79.389 552.349 79.0425C552.106 78.696 551.734 78.5228 551.232 78.5228Z" fill="white"/>
</g>
<rect x="0.959232" y="0.959232" width="726.082" height="398.082" rx="6.71463" stroke="#E6EBF0" stroke-width="1.91846"/>
<defs>
<clipPath id="clip0_1339_3992">
<rect width="728" height="400" rx="7.67386" fill="white"/>
</clipPath>
<clipPath id="clip1_1339_3992">
<rect width="457" height="34.3486" fill="white" transform="translate(136 126.459)"/>
</clipPath>
</defs>
</svg>
