<svg width="728" height="300" viewBox="0 0 728 300" fill="none" xmlns="http://www.w3.org/2000/svg">
<g clip-path="url(#clip0_1303_5983)">
<rect y="0.770508" width="728" height="299" rx="8" fill="#F3F6F9"/>
<g clip-path="url(#clip1_1303_5983)">
<rect x="50" y="-3.22949" width="629.205" height="312.719" fill="white"/>
<rect width="629.179" height="84.0063" transform="translate(50 -43.9072)" fill="#F3F6F9"/>
<rect x="109.732" y="-3.70459" width="341.972" height="11.9464" rx="5.97321" fill="#D1D8E0"/>
<rect x="109.732" y="12.2241" width="284.723" height="11.9464" rx="5.97321" fill="#D1D8E0"/>
<rect x="216.981" y="92.1523" width="295.33" height="165.38" rx="6.88833" fill="white"/>
<path d="M291.096 130.98C289.709 130.98 288.54 130.721 287.588 130.203C286.636 129.672 285.912 128.919 285.418 127.942C284.936 126.966 284.695 125.803 284.695 124.453C284.695 123.44 284.833 122.536 285.111 121.74C285.4 120.933 285.81 120.246 286.34 119.679C286.883 119.1 287.54 118.66 288.311 118.359C289.095 118.058 289.981 117.907 290.969 117.907C291.692 117.907 292.404 118.003 293.103 118.196C293.802 118.377 294.441 118.678 295.019 119.1C295.188 119.221 295.297 119.359 295.345 119.516C295.393 119.673 295.393 119.836 295.345 120.004C295.309 120.161 295.23 120.3 295.11 120.42C295.001 120.541 294.863 120.613 294.694 120.637C294.537 120.661 294.363 120.613 294.17 120.493C293.7 120.167 293.205 119.932 292.687 119.787C292.169 119.631 291.596 119.552 290.969 119.552C290.029 119.552 289.233 119.745 288.582 120.131C287.943 120.517 287.461 121.077 287.136 121.813C286.81 122.536 286.648 123.416 286.648 124.453C286.648 126.056 287.027 127.273 287.787 128.105C288.546 128.937 289.673 129.353 291.168 129.353C291.711 129.353 292.241 129.305 292.759 129.208C293.29 129.1 293.796 128.949 294.278 128.756L293.898 129.696V125.483H291.566C291.325 125.483 291.132 125.423 290.987 125.302C290.855 125.17 290.788 124.989 290.788 124.76C290.788 124.531 290.855 124.362 290.987 124.254C291.132 124.133 291.325 124.073 291.566 124.073H294.694C294.947 124.073 295.14 124.139 295.273 124.272C295.405 124.404 295.472 124.597 295.472 124.85V129.407C295.472 129.624 295.429 129.811 295.345 129.968C295.273 130.112 295.146 130.221 294.965 130.293C294.447 130.498 293.838 130.667 293.139 130.799C292.44 130.92 291.759 130.98 291.096 130.98ZM302.116 130.98C301.151 130.98 300.32 130.799 299.62 130.438C298.933 130.064 298.397 129.54 298.011 128.865C297.637 128.177 297.451 127.364 297.451 126.423C297.451 125.507 297.637 124.706 298.011 124.019C298.385 123.331 298.897 122.795 299.548 122.409C300.199 122.024 300.94 121.831 301.772 121.831C302.387 121.831 302.935 121.933 303.418 122.138C303.9 122.331 304.31 122.62 304.647 123.006C304.997 123.38 305.256 123.838 305.425 124.38C305.605 124.923 305.696 125.531 305.696 126.207C305.696 126.411 305.636 126.568 305.515 126.677C305.394 126.773 305.214 126.821 304.973 126.821H298.897V125.7H304.466L304.159 125.953C304.159 125.351 304.068 124.838 303.888 124.416C303.719 123.994 303.46 123.675 303.11 123.458C302.773 123.229 302.351 123.115 301.844 123.115C301.278 123.115 300.796 123.247 300.398 123.512C300.012 123.778 299.717 124.145 299.512 124.615C299.307 125.085 299.204 125.634 299.204 126.261V126.369C299.204 127.43 299.452 128.232 299.946 128.774C300.452 129.305 301.181 129.57 302.134 129.57C302.495 129.57 302.875 129.522 303.273 129.425C303.683 129.329 304.068 129.166 304.43 128.937C304.635 128.816 304.816 128.762 304.973 128.774C305.141 128.786 305.274 128.84 305.37 128.937C305.479 129.033 305.545 129.154 305.569 129.299C305.593 129.443 305.569 129.594 305.497 129.751C305.425 129.895 305.298 130.028 305.117 130.148C304.707 130.426 304.231 130.637 303.689 130.781C303.146 130.914 302.622 130.98 302.116 130.98ZM308.41 130.944C308.121 130.944 307.898 130.866 307.741 130.709C307.584 130.54 307.506 130.311 307.506 130.022V122.789C307.506 122.488 307.584 122.259 307.741 122.102C307.898 121.945 308.115 121.867 308.392 121.867C308.681 121.867 308.898 121.945 309.043 122.102C309.2 122.259 309.278 122.488 309.278 122.789V124.199L309.079 123.874C309.344 123.199 309.76 122.693 310.327 122.355C310.893 122.005 311.544 121.831 312.28 121.831C312.979 121.831 313.557 121.963 314.016 122.228C314.486 122.482 314.835 122.873 315.064 123.404C315.293 123.922 315.408 124.579 315.408 125.375V130.022C315.408 130.311 315.329 130.54 315.173 130.709C315.016 130.866 314.793 130.944 314.504 130.944C314.202 130.944 313.973 130.866 313.817 130.709C313.66 130.54 313.582 130.311 313.582 130.022V125.483C313.582 124.724 313.431 124.169 313.129 123.82C312.84 123.47 312.382 123.295 311.755 123.295C311.02 123.295 310.429 123.524 309.983 123.982C309.549 124.441 309.332 125.055 309.332 125.827V130.022C309.332 130.637 309.025 130.944 308.41 130.944ZM321.884 130.98C320.92 130.98 320.088 130.799 319.389 130.438C318.702 130.064 318.165 129.54 317.78 128.865C317.406 128.177 317.219 127.364 317.219 126.423C317.219 125.507 317.406 124.706 317.78 124.019C318.153 123.331 318.666 122.795 319.317 122.409C319.968 122.024 320.709 121.831 321.541 121.831C322.155 121.831 322.704 121.933 323.186 122.138C323.668 122.331 324.078 122.62 324.416 123.006C324.765 123.38 325.024 123.838 325.193 124.38C325.374 124.923 325.464 125.531 325.464 126.207C325.464 126.411 325.404 126.568 325.284 126.677C325.163 126.773 324.982 126.821 324.741 126.821H318.666V125.7H324.235L323.927 125.953C323.927 125.351 323.837 124.838 323.656 124.416C323.487 123.994 323.228 123.675 322.879 123.458C322.541 123.229 322.119 123.115 321.613 123.115C321.046 123.115 320.564 123.247 320.166 123.512C319.781 123.778 319.485 124.145 319.28 124.615C319.076 125.085 318.973 125.634 318.973 126.261V126.369C318.973 127.43 319.22 128.232 319.714 128.774C320.221 129.305 320.95 129.57 321.902 129.57C322.264 129.57 322.644 129.522 323.041 129.425C323.451 129.329 323.837 129.166 324.199 128.937C324.404 128.816 324.584 128.762 324.741 128.774C324.91 128.786 325.043 128.84 325.139 128.937C325.247 129.033 325.314 129.154 325.338 129.299C325.362 129.443 325.338 129.594 325.266 129.751C325.193 129.895 325.067 130.028 324.886 130.148C324.476 130.426 324 130.637 323.457 130.781C322.915 130.914 322.391 130.98 321.884 130.98ZM328.197 130.944C327.895 130.944 327.666 130.866 327.51 130.709C327.353 130.54 327.275 130.311 327.275 130.022V122.789C327.275 122.488 327.353 122.259 327.51 122.102C327.666 121.945 327.883 121.867 328.161 121.867C328.45 121.867 328.667 121.945 328.812 122.102C328.968 122.259 329.047 122.488 329.047 122.789V124.109H328.866C329.059 123.386 329.414 122.837 329.933 122.464C330.451 122.09 331.114 121.873 331.922 121.813C332.139 121.801 332.307 121.855 332.428 121.975C332.561 122.096 332.633 122.283 332.645 122.536C332.669 122.789 332.615 122.994 332.482 123.151C332.35 123.295 332.145 123.38 331.867 123.404L331.524 123.44C330.74 123.512 330.144 123.759 329.734 124.181C329.324 124.603 329.119 125.182 329.119 125.917V130.022C329.119 130.311 329.041 130.54 328.884 130.709C328.739 130.866 328.51 130.944 328.197 130.944ZM336.572 130.98C335.957 130.98 335.402 130.86 334.908 130.618C334.426 130.377 334.046 130.052 333.769 129.642C333.492 129.232 333.353 128.768 333.353 128.25C333.353 127.599 333.516 127.086 333.841 126.713C334.179 126.327 334.727 126.056 335.487 125.899C336.258 125.73 337.295 125.646 338.597 125.646H339.447V126.767H338.615C337.747 126.767 337.06 126.809 336.554 126.894C336.047 126.978 335.686 127.123 335.469 127.328C335.264 127.52 335.161 127.792 335.161 128.141C335.161 128.599 335.318 128.973 335.631 129.262C335.945 129.54 336.379 129.678 336.933 129.678C337.379 129.678 337.771 129.576 338.109 129.371C338.446 129.154 338.711 128.865 338.904 128.503C339.109 128.141 339.212 127.725 339.212 127.255V125.176C339.212 124.489 339.067 123.994 338.778 123.693C338.488 123.392 338.012 123.241 337.349 123.241C336.963 123.241 336.56 123.289 336.138 123.386C335.728 123.482 335.3 123.645 334.854 123.874C334.649 123.97 334.474 124.001 334.33 123.964C334.185 123.928 334.07 123.85 333.986 123.729C333.902 123.597 333.853 123.458 333.841 123.313C333.841 123.157 333.877 123.006 333.95 122.861C334.034 122.717 334.173 122.608 334.366 122.536C334.896 122.283 335.42 122.102 335.939 121.993C336.457 121.885 336.945 121.831 337.403 121.831C338.211 121.831 338.874 121.957 339.392 122.21C339.923 122.464 340.315 122.849 340.568 123.368C340.821 123.886 340.947 124.555 340.947 125.375V130.022C340.947 130.311 340.875 130.54 340.73 130.709C340.586 130.866 340.375 130.944 340.098 130.944C339.832 130.944 339.621 130.866 339.465 130.709C339.308 130.54 339.23 130.311 339.23 130.022V128.846H339.392C339.296 129.292 339.115 129.678 338.85 130.004C338.597 130.317 338.277 130.558 337.892 130.727C337.506 130.896 337.066 130.98 336.572 130.98ZM344.186 130.944C343.897 130.944 343.674 130.866 343.517 130.709C343.36 130.54 343.282 130.311 343.282 130.022V122.789C343.282 122.488 343.36 122.259 343.517 122.102C343.674 121.945 343.891 121.867 344.168 121.867C344.457 121.867 344.674 121.945 344.819 122.102C344.976 122.259 345.054 122.488 345.054 122.789V124.199L344.855 123.874C345.12 123.199 345.536 122.693 346.103 122.355C346.669 122.005 347.32 121.831 348.056 121.831C348.755 121.831 349.333 121.963 349.791 122.228C350.262 122.482 350.611 122.873 350.84 123.404C351.069 123.922 351.184 124.579 351.184 125.375V130.022C351.184 130.311 351.105 130.54 350.949 130.709C350.792 130.866 350.569 130.944 350.28 130.944C349.978 130.944 349.749 130.866 349.593 130.709C349.436 130.54 349.358 130.311 349.358 130.022V125.483C349.358 124.724 349.207 124.169 348.905 123.82C348.616 123.47 348.158 123.295 347.531 123.295C346.796 123.295 346.205 123.524 345.759 123.982C345.325 124.441 345.108 125.055 345.108 125.827V130.022C345.108 130.637 344.801 130.944 344.186 130.944ZM356.883 130.98C356.111 130.98 355.43 130.799 354.839 130.438C354.261 130.064 353.809 129.534 353.483 128.846C353.158 128.147 352.995 127.334 352.995 126.405C352.995 125.453 353.158 124.639 353.483 123.964C353.809 123.289 354.261 122.765 354.839 122.391C355.43 122.018 356.111 121.831 356.883 121.831C357.654 121.831 358.317 122.024 358.872 122.409C359.438 122.783 359.818 123.289 360.011 123.928H359.812V118.865C359.812 118.564 359.89 118.335 360.047 118.178C360.204 118.021 360.427 117.943 360.716 117.943C361.005 117.943 361.228 118.021 361.385 118.178C361.554 118.335 361.638 118.564 361.638 118.865V130.022C361.638 130.311 361.56 130.54 361.403 130.709C361.246 130.866 361.023 130.944 360.734 130.944C360.445 130.944 360.222 130.866 360.065 130.709C359.908 130.54 359.83 130.311 359.83 130.022V128.431L360.029 128.828C359.836 129.479 359.456 130.004 358.89 130.401C358.335 130.787 357.666 130.98 356.883 130.98ZM357.353 129.57C357.847 129.57 358.281 129.449 358.655 129.208C359.028 128.967 359.318 128.611 359.523 128.141C359.74 127.671 359.848 127.093 359.848 126.405C359.848 125.369 359.619 124.585 359.161 124.055C358.703 123.524 358.1 123.259 357.353 123.259C356.847 123.259 356.407 123.38 356.033 123.621C355.659 123.85 355.364 124.199 355.147 124.67C354.942 125.14 354.839 125.718 354.839 126.405C354.839 127.43 355.068 128.214 355.527 128.756C355.985 129.299 356.593 129.57 357.353 129.57ZM367.855 130.98C366.963 130.98 366.192 130.793 365.541 130.42C364.902 130.046 364.402 129.515 364.04 128.828C363.678 128.141 363.497 127.334 363.497 126.405C363.497 125.694 363.6 125.061 363.805 124.507C364.01 123.952 364.299 123.476 364.673 123.078C365.058 122.668 365.517 122.361 366.047 122.156C366.589 121.939 367.192 121.831 367.855 121.831C368.735 121.831 369.495 122.018 370.133 122.391C370.784 122.765 371.291 123.295 371.652 123.982C372.014 124.657 372.195 125.465 372.195 126.405C372.195 127.105 372.092 127.737 371.887 128.304C371.682 128.871 371.387 129.353 371.001 129.751C370.628 130.148 370.17 130.456 369.627 130.673C369.097 130.878 368.506 130.98 367.855 130.98ZM367.855 129.57C368.349 129.57 368.783 129.449 369.157 129.208C369.531 128.967 369.82 128.611 370.025 128.141C370.242 127.671 370.35 127.093 370.35 126.405C370.35 125.369 370.121 124.585 369.663 124.055C369.205 123.524 368.603 123.259 367.855 123.259C367.349 123.259 366.909 123.38 366.535 123.621C366.161 123.85 365.866 124.199 365.649 124.67C365.444 125.14 365.342 125.718 365.342 126.405C365.342 127.43 365.571 128.214 366.029 128.756C366.487 129.299 367.096 129.57 367.855 129.57ZM381.744 130.98C381.213 130.98 380.665 130.92 380.098 130.799C379.544 130.679 379.032 130.474 378.561 130.185C378.405 130.076 378.296 129.955 378.236 129.823C378.176 129.69 378.152 129.558 378.164 129.425C378.188 129.28 378.242 129.16 378.326 129.063C378.423 128.955 378.537 128.889 378.67 128.865C378.815 128.84 378.965 128.871 379.122 128.955C379.592 129.22 380.044 129.407 380.478 129.515C380.912 129.612 381.34 129.66 381.762 129.66C382.401 129.66 382.883 129.546 383.208 129.317C383.534 129.088 383.697 128.78 383.697 128.394C383.697 128.081 383.588 127.84 383.371 127.671C383.154 127.49 382.829 127.352 382.395 127.255L380.677 126.912C379.93 126.755 379.363 126.478 378.977 126.08C378.592 125.682 378.399 125.176 378.399 124.561C378.399 124.007 378.549 123.524 378.851 123.115C379.152 122.705 379.574 122.391 380.116 122.174C380.659 121.945 381.286 121.831 381.997 121.831C382.527 121.831 383.028 121.897 383.498 122.03C383.968 122.162 384.402 122.361 384.8 122.626C384.956 122.711 385.059 122.825 385.107 122.97C385.155 123.102 385.161 123.235 385.125 123.368C385.101 123.5 385.041 123.621 384.944 123.729C384.848 123.826 384.727 123.886 384.583 123.91C384.45 123.922 384.299 123.886 384.131 123.802C383.769 123.573 383.407 123.41 383.046 123.313C382.696 123.217 382.347 123.169 381.997 123.169C381.358 123.169 380.876 123.289 380.55 123.53C380.237 123.759 380.08 124.073 380.08 124.471C380.08 124.772 380.177 125.019 380.37 125.212C380.563 125.405 380.864 125.544 381.274 125.628L382.992 125.971C383.775 126.128 384.366 126.393 384.764 126.767C385.173 127.141 385.378 127.647 385.378 128.286C385.378 129.118 385.047 129.775 384.384 130.257C383.721 130.739 382.841 130.98 381.744 130.98ZM391.063 130.98C390.171 130.98 389.399 130.793 388.748 130.42C388.109 130.046 387.609 129.515 387.248 128.828C386.886 128.141 386.705 127.334 386.705 126.405C386.705 125.694 386.808 125.061 387.012 124.507C387.217 123.952 387.507 123.476 387.88 123.078C388.266 122.668 388.724 122.361 389.255 122.156C389.797 121.939 390.4 121.831 391.063 121.831C391.943 121.831 392.702 122.018 393.341 122.391C393.992 122.765 394.498 123.295 394.86 123.982C395.222 124.657 395.402 125.465 395.402 126.405C395.402 127.105 395.3 127.737 395.095 128.304C394.89 128.871 394.595 129.353 394.209 129.751C393.835 130.148 393.377 130.456 392.835 130.673C392.304 130.878 391.714 130.98 391.063 130.98ZM391.063 129.57C391.557 129.57 391.991 129.449 392.365 129.208C392.738 128.967 393.028 128.611 393.233 128.141C393.45 127.671 393.558 127.093 393.558 126.405C393.558 125.369 393.329 124.585 392.871 124.055C392.413 123.524 391.81 123.259 391.063 123.259C390.557 123.259 390.117 123.38 389.743 123.621C389.369 123.85 389.074 124.199 388.857 124.67C388.652 125.14 388.549 125.718 388.549 126.405C388.549 127.43 388.778 128.214 389.237 128.756C389.695 129.299 390.303 129.57 391.063 129.57ZM400.112 130.98C399.171 130.98 398.46 130.709 397.978 130.166C397.508 129.612 397.273 128.816 397.273 127.78V118.865C397.273 118.564 397.351 118.335 397.508 118.178C397.664 118.021 397.887 117.943 398.177 117.943C398.466 117.943 398.689 118.021 398.846 118.178C399.015 118.335 399.099 118.564 399.099 118.865V127.671C399.099 128.274 399.219 128.726 399.461 129.027C399.714 129.317 400.075 129.461 400.545 129.461C400.654 129.461 400.75 129.461 400.835 129.461C400.919 129.449 401.004 129.437 401.088 129.425C401.233 129.413 401.335 129.455 401.395 129.552C401.456 129.636 401.486 129.817 401.486 130.094C401.486 130.347 401.431 130.546 401.323 130.691C401.215 130.823 401.04 130.908 400.799 130.944C400.69 130.956 400.576 130.962 400.455 130.962C400.335 130.974 400.22 130.98 400.112 130.98ZM403.523 130.926C403.234 130.926 403.011 130.841 402.854 130.673C402.697 130.492 402.619 130.245 402.619 129.931V122.879C402.619 122.566 402.697 122.325 402.854 122.156C403.011 121.987 403.234 121.903 403.523 121.903C403.812 121.903 404.035 121.987 404.192 122.156C404.361 122.325 404.445 122.566 404.445 122.879V129.931C404.445 130.245 404.367 130.492 404.21 130.673C404.053 130.841 403.824 130.926 403.523 130.926ZM403.523 120.023C403.161 120.023 402.878 119.932 402.673 119.751C402.48 119.57 402.384 119.317 402.384 118.992C402.384 118.654 402.48 118.401 402.673 118.232C402.878 118.052 403.161 117.961 403.523 117.961C403.885 117.961 404.162 118.052 404.355 118.232C404.56 118.401 404.662 118.654 404.662 118.992C404.662 119.317 404.56 119.57 404.355 119.751C404.162 119.932 403.885 120.023 403.523 120.023ZM410.722 130.98C409.818 130.98 409.035 130.793 408.372 130.42C407.721 130.034 407.215 129.497 406.853 128.81C406.491 128.111 406.31 127.291 406.31 126.351C406.31 125.652 406.413 125.025 406.618 124.471C406.823 123.904 407.112 123.428 407.486 123.042C407.872 122.656 408.336 122.361 408.878 122.156C409.433 121.939 410.047 121.831 410.722 121.831C411.144 121.831 411.584 121.897 412.042 122.03C412.513 122.15 412.947 122.355 413.344 122.644C413.501 122.741 413.597 122.861 413.634 123.006C413.682 123.139 413.688 123.277 413.652 123.422C413.628 123.567 413.561 123.693 413.453 123.802C413.356 123.898 413.236 123.958 413.091 123.982C412.947 123.994 412.79 123.952 412.621 123.856C412.332 123.651 412.036 123.506 411.735 123.422C411.434 123.325 411.144 123.277 410.867 123.277C410.433 123.277 410.047 123.35 409.71 123.494C409.384 123.627 409.107 123.826 408.878 124.091C408.649 124.344 408.474 124.664 408.354 125.049C408.245 125.435 408.191 125.875 408.191 126.369C408.191 127.358 408.42 128.135 408.878 128.702C409.348 129.256 410.011 129.534 410.867 129.534C411.144 129.534 411.434 129.491 411.735 129.407C412.036 129.323 412.332 129.178 412.621 128.973C412.79 128.877 412.947 128.84 413.091 128.865C413.236 128.889 413.35 128.955 413.435 129.063C413.531 129.16 413.591 129.28 413.616 129.425C413.652 129.558 413.646 129.696 413.597 129.841C413.549 129.986 413.447 130.106 413.29 130.203C412.904 130.48 412.482 130.679 412.024 130.799C411.578 130.92 411.144 130.98 410.722 130.98ZM415.999 130.926C415.709 130.926 415.486 130.841 415.33 130.673C415.173 130.492 415.095 130.245 415.095 129.931V122.879C415.095 122.566 415.173 122.325 415.33 122.156C415.486 121.987 415.709 121.903 415.999 121.903C416.288 121.903 416.511 121.987 416.668 122.156C416.837 122.325 416.921 122.566 416.921 122.879V129.931C416.921 130.245 416.843 130.492 416.686 130.673C416.529 130.841 416.3 130.926 415.999 130.926ZM415.999 120.023C415.637 120.023 415.354 119.932 415.149 119.751C414.956 119.57 414.86 119.317 414.86 118.992C414.86 118.654 414.956 118.401 415.149 118.232C415.354 118.052 415.637 117.961 415.999 117.961C416.36 117.961 416.638 118.052 416.83 118.232C417.035 118.401 417.138 118.654 417.138 118.992C417.138 119.317 417.035 119.57 416.83 119.751C416.638 119.932 416.36 120.023 415.999 120.023ZM423.072 130.98C422.348 130.98 421.74 130.854 421.245 130.6C420.751 130.347 420.384 129.974 420.142 129.479C419.901 128.985 419.781 128.382 419.781 127.671V123.404H418.696C418.455 123.404 418.268 123.344 418.135 123.223C418.003 123.09 417.936 122.916 417.936 122.699C417.936 122.47 418.003 122.295 418.135 122.174C418.268 122.054 418.455 121.993 418.696 121.993H419.781V120.131C419.781 119.83 419.859 119.601 420.016 119.444C420.185 119.287 420.414 119.209 420.703 119.209C420.992 119.209 421.215 119.287 421.372 119.444C421.529 119.601 421.607 119.83 421.607 120.131V121.993H423.723C423.964 121.993 424.151 122.054 424.283 122.174C424.416 122.295 424.482 122.47 424.482 122.699C424.482 122.916 424.416 123.09 424.283 123.223C424.151 123.344 423.964 123.404 423.723 123.404H421.607V127.526C421.607 128.165 421.74 128.648 422.005 128.973C422.282 129.299 422.728 129.461 423.343 129.461C423.56 129.461 423.747 129.443 423.903 129.407C424.072 129.359 424.211 129.329 424.319 129.317C424.452 129.317 424.56 129.365 424.645 129.461C424.729 129.546 424.771 129.714 424.771 129.968C424.771 130.148 424.735 130.317 424.663 130.474C424.603 130.631 424.488 130.733 424.319 130.781C424.175 130.829 423.976 130.872 423.723 130.908C423.482 130.956 423.265 130.98 423.072 130.98ZM428.88 130.98C428.169 130.98 427.572 130.848 427.09 130.582C426.62 130.317 426.264 129.925 426.023 129.407C425.794 128.877 425.68 128.214 425.68 127.418V122.789C425.68 122.476 425.758 122.247 425.915 122.102C426.071 121.945 426.295 121.867 426.584 121.867C426.873 121.867 427.096 121.945 427.253 122.102C427.422 122.247 427.506 122.476 427.506 122.789V127.436C427.506 128.147 427.651 128.672 427.94 129.009C428.229 129.347 428.687 129.515 429.314 129.515C430.001 129.515 430.556 129.286 430.978 128.828C431.412 128.358 431.629 127.743 431.629 126.984V122.789C431.629 122.476 431.707 122.247 431.864 122.102C432.02 121.945 432.249 121.867 432.551 121.867C432.84 121.867 433.063 121.945 433.22 122.102C433.377 122.247 433.455 122.476 433.455 122.789V130.022C433.455 130.637 433.16 130.944 432.569 130.944C432.292 130.944 432.075 130.866 431.918 130.709C431.761 130.54 431.683 130.311 431.683 130.022V128.485L431.918 128.883C431.677 129.558 431.291 130.076 430.761 130.438C430.23 130.799 429.603 130.98 428.88 130.98ZM439.211 130.98C438.44 130.98 437.758 130.799 437.168 130.438C436.589 130.064 436.137 129.534 435.812 128.846C435.486 128.147 435.323 127.334 435.323 126.405C435.323 125.453 435.486 124.639 435.812 123.964C436.137 123.289 436.589 122.765 437.168 122.391C437.758 122.018 438.44 121.831 439.211 121.831C439.983 121.831 440.646 122.024 441.2 122.409C441.767 122.783 442.146 123.289 442.339 123.928H442.14V118.865C442.14 118.564 442.219 118.335 442.375 118.178C442.532 118.021 442.755 117.943 443.044 117.943C443.334 117.943 443.557 118.021 443.713 118.178C443.882 118.335 443.967 118.564 443.967 118.865V130.022C443.967 130.311 443.888 130.54 443.732 130.709C443.575 130.866 443.352 130.944 443.062 130.944C442.773 130.944 442.55 130.866 442.393 130.709C442.237 130.54 442.158 130.311 442.158 130.022V128.431L442.357 128.828C442.164 129.479 441.785 130.004 441.218 130.401C440.664 130.787 439.995 130.98 439.211 130.98ZM439.681 129.57C440.175 129.57 440.609 129.449 440.983 129.208C441.357 128.967 441.646 128.611 441.851 128.141C442.068 127.671 442.176 127.093 442.176 126.405C442.176 125.369 441.947 124.585 441.489 124.055C441.031 123.524 440.429 123.259 439.681 123.259C439.175 123.259 438.735 123.38 438.361 123.621C437.987 123.85 437.692 124.199 437.475 124.67C437.27 125.14 437.168 125.718 437.168 126.405C437.168 127.43 437.397 128.214 437.855 128.756C438.313 129.299 438.922 129.57 439.681 129.57Z" fill="#101E37"/>
<path d="M242.295 155.332C243.802 155.332 244.902 155.628 245.594 156.219C246.292 156.805 246.641 157.646 246.641 158.743C246.641 159.238 246.558 159.71 246.393 160.157C246.233 160.599 245.972 160.99 245.61 161.331C245.248 161.667 244.771 161.933 244.18 162.13C243.595 162.322 242.876 162.418 242.024 162.418H240.602V167.011H239.244V155.332H242.295ZM242.167 156.49H240.602V161.251H241.872C242.617 161.251 243.238 161.171 243.733 161.012C244.234 160.852 244.609 160.594 244.859 160.237C245.11 159.875 245.235 159.395 245.235 158.799C245.235 158.021 244.987 157.444 244.492 157.065C243.997 156.682 243.222 156.49 242.167 156.49ZM256.271 162.617C256.271 163.336 256.177 163.978 255.991 164.542C255.805 165.107 255.536 165.584 255.184 165.972C254.833 166.361 254.407 166.659 253.906 166.867C253.411 167.069 252.849 167.171 252.221 167.171C251.635 167.171 251.097 167.069 250.607 166.867C250.122 166.659 249.702 166.361 249.345 165.972C248.993 165.584 248.719 165.107 248.522 164.542C248.33 163.978 248.234 163.336 248.234 162.617C248.234 161.659 248.397 160.844 248.722 160.173C249.047 159.497 249.51 158.983 250.112 158.631C250.719 158.274 251.44 158.096 252.277 158.096C253.075 158.096 253.773 158.274 254.369 158.631C254.971 158.988 255.437 159.505 255.767 160.181C256.103 160.852 256.271 161.664 256.271 162.617ZM249.608 162.617C249.608 163.32 249.702 163.93 249.888 164.447C250.074 164.963 250.362 165.363 250.751 165.645C251.14 165.927 251.64 166.068 252.253 166.068C252.86 166.068 253.358 165.927 253.746 165.645C254.14 165.363 254.431 164.963 254.617 164.447C254.803 163.93 254.897 163.32 254.897 162.617C254.897 161.92 254.803 161.318 254.617 160.812C254.431 160.301 254.143 159.907 253.754 159.63C253.366 159.353 252.862 159.214 252.245 159.214C251.334 159.214 250.666 159.515 250.24 160.117C249.819 160.719 249.608 161.552 249.608 162.617ZM262.378 158.096C262.553 158.096 262.737 158.107 262.929 158.128C263.121 158.144 263.291 158.168 263.44 158.2L263.272 159.43C263.129 159.393 262.969 159.363 262.793 159.342C262.617 159.321 262.452 159.31 262.298 159.31C261.946 159.31 261.614 159.382 261.299 159.526C260.99 159.664 260.719 159.867 260.485 160.133C260.25 160.394 260.066 160.711 259.933 161.084C259.8 161.451 259.734 161.861 259.734 162.314V167.011H258.4V158.256H259.502L259.646 159.869H259.702C259.883 159.544 260.101 159.249 260.357 158.983C260.612 158.711 260.908 158.495 261.243 158.336C261.584 158.176 261.962 158.096 262.378 158.096ZM272.914 159.294H270.734V167.011H269.408V159.294H267.858V158.655L269.408 158.216V157.633C269.408 156.898 269.517 156.301 269.735 155.843C269.954 155.38 270.27 155.039 270.686 154.821C271.101 154.602 271.607 154.493 272.204 154.493C272.539 154.493 272.845 154.523 273.122 154.581C273.404 154.64 273.652 154.706 273.865 154.781L273.522 155.827C273.34 155.769 273.135 155.715 272.906 155.668C272.683 155.614 272.454 155.588 272.219 155.588C271.714 155.588 271.338 155.753 271.093 156.083C270.854 156.408 270.734 156.919 270.734 157.617V158.256H272.914V159.294ZM277.64 158.112C278.683 158.112 279.458 158.346 279.964 158.815C280.47 159.284 280.723 160.032 280.723 161.06V167.011H279.756L279.501 165.717H279.437C279.192 166.036 278.936 166.305 278.67 166.523C278.404 166.736 278.095 166.899 277.743 167.011C277.397 167.117 276.971 167.171 276.465 167.171C275.933 167.171 275.459 167.077 275.043 166.891C274.633 166.705 274.309 166.422 274.069 166.044C273.835 165.666 273.717 165.187 273.717 164.606C273.717 163.733 274.064 163.062 274.756 162.593C275.448 162.125 276.503 161.869 277.919 161.826L279.429 161.763V161.227C279.429 160.471 279.267 159.941 278.942 159.638C278.617 159.334 278.159 159.182 277.568 159.182C277.11 159.182 276.673 159.249 276.258 159.382C275.842 159.515 275.448 159.672 275.075 159.853L274.668 158.847C275.062 158.644 275.515 158.471 276.026 158.328C276.537 158.184 277.075 158.112 277.64 158.112ZM279.413 162.697L278.079 162.753C276.987 162.796 276.218 162.974 275.77 163.288C275.323 163.602 275.099 164.047 275.099 164.622C275.099 165.123 275.251 165.493 275.555 165.733C275.858 165.972 276.26 166.092 276.761 166.092C277.538 166.092 278.175 165.876 278.67 165.445C279.165 165.014 279.413 164.367 279.413 163.504V162.697ZM285.217 167.011L281.893 158.256H283.315L285.241 163.552C285.374 163.914 285.509 164.313 285.648 164.75C285.786 165.187 285.882 165.538 285.936 165.805H285.991C286.055 165.538 286.162 165.187 286.311 164.75C286.46 164.308 286.596 163.909 286.718 163.552L288.644 158.256H290.065L286.734 167.011H285.217ZM298.857 162.617C298.857 163.336 298.763 163.978 298.577 164.542C298.391 165.107 298.122 165.584 297.77 165.972C297.419 166.361 296.993 166.659 296.492 166.867C295.997 167.069 295.435 167.171 294.807 167.171C294.221 167.171 293.683 167.069 293.193 166.867C292.708 166.659 292.288 166.361 291.931 165.972C291.579 165.584 291.305 165.107 291.108 164.542C290.916 163.978 290.82 163.336 290.82 162.617C290.82 161.659 290.983 160.844 291.308 160.173C291.633 159.497 292.096 158.983 292.698 158.631C293.305 158.274 294.026 158.096 294.862 158.096C295.661 158.096 296.359 158.274 296.955 158.631C297.557 158.988 298.023 159.505 298.353 160.181C298.689 160.852 298.857 161.664 298.857 162.617ZM292.194 162.617C292.194 163.32 292.288 163.93 292.474 164.447C292.66 164.963 292.948 165.363 293.337 165.645C293.725 165.927 294.226 166.068 294.838 166.068C295.446 166.068 295.944 165.927 296.332 165.645C296.726 165.363 297.017 164.963 297.203 164.447C297.389 163.93 297.483 163.32 297.483 162.617C297.483 161.92 297.389 161.318 297.203 160.812C297.017 160.301 296.729 159.907 296.34 159.63C295.952 159.353 295.448 159.214 294.831 159.214C293.92 159.214 293.252 159.515 292.825 160.117C292.405 160.719 292.194 161.552 292.194 162.617ZM304.964 158.096C305.139 158.096 305.323 158.107 305.515 158.128C305.707 158.144 305.877 158.168 306.026 158.2L305.858 159.43C305.715 159.393 305.555 159.363 305.379 159.342C305.203 159.321 305.038 159.31 304.884 159.31C304.532 159.31 304.199 159.382 303.885 159.526C303.576 159.664 303.305 159.867 303.07 160.133C302.836 160.394 302.652 160.711 302.519 161.084C302.386 161.451 302.32 161.861 302.32 162.314V167.011H300.986V158.256H302.088L302.232 159.869H302.288C302.469 159.544 302.687 159.249 302.943 158.983C303.198 158.711 303.494 158.495 303.829 158.336C304.17 158.176 304.548 158.096 304.964 158.096ZM314.973 158.096C315.719 158.096 316.358 158.261 316.89 158.591C317.423 158.921 317.83 159.385 318.113 159.981C318.395 160.572 318.536 161.265 318.536 162.058V162.881H312.489C312.505 163.909 312.76 164.692 313.256 165.229C313.751 165.767 314.449 166.036 315.349 166.036C315.902 166.036 316.392 165.986 316.818 165.884C317.244 165.783 317.687 165.634 318.144 165.437V166.603C317.702 166.8 317.263 166.944 316.826 167.035C316.395 167.125 315.884 167.171 315.293 167.171C314.451 167.171 313.716 167 313.088 166.659C312.465 166.313 311.98 165.807 311.634 165.142C311.288 164.476 311.115 163.661 311.115 162.697C311.115 161.755 311.272 160.94 311.586 160.253C311.906 159.56 312.353 159.028 312.928 158.655C313.509 158.282 314.19 158.096 314.973 158.096ZM314.957 159.182C314.249 159.182 313.684 159.414 313.264 159.877C312.843 160.341 312.593 160.988 312.513 161.818H317.146C317.141 161.297 317.058 160.839 316.898 160.444C316.744 160.045 316.507 159.736 316.187 159.518C315.868 159.294 315.458 159.182 314.957 159.182ZM326.289 164.614C326.289 165.173 326.147 165.645 325.865 166.028C325.588 166.406 325.189 166.691 324.667 166.883C324.15 167.075 323.533 167.171 322.814 167.171C322.201 167.171 321.671 167.123 321.224 167.027C320.777 166.931 320.385 166.795 320.05 166.619V165.397C320.407 165.573 320.833 165.733 321.328 165.876C321.823 166.02 322.329 166.092 322.846 166.092C323.602 166.092 324.15 165.97 324.491 165.725C324.832 165.48 325.003 165.147 325.003 164.726C325.003 164.486 324.933 164.276 324.795 164.095C324.662 163.909 324.435 163.73 324.116 163.56C323.796 163.384 323.354 163.192 322.79 162.985C322.231 162.772 321.746 162.561 321.336 162.354C320.931 162.141 320.617 161.882 320.393 161.579C320.175 161.275 320.066 160.881 320.066 160.397C320.066 159.656 320.364 159.089 320.96 158.695C321.562 158.296 322.35 158.096 323.325 158.096C323.852 158.096 324.345 158.149 324.803 158.256C325.266 158.357 325.697 158.495 326.097 158.671L325.65 159.734C325.287 159.579 324.901 159.449 324.491 159.342C324.081 159.236 323.663 159.182 323.237 159.182C322.625 159.182 322.153 159.284 321.823 159.486C321.498 159.688 321.336 159.965 321.336 160.317C321.336 160.588 321.41 160.812 321.56 160.988C321.714 161.163 321.959 161.328 322.295 161.483C322.63 161.637 323.072 161.818 323.621 162.026C324.169 162.228 324.643 162.439 325.042 162.657C325.442 162.87 325.748 163.131 325.961 163.44C326.179 163.744 326.289 164.135 326.289 164.614ZM332.372 158.096C333.463 158.096 334.334 158.471 334.984 159.222C335.634 159.973 335.958 161.102 335.958 162.609C335.958 163.605 335.809 164.441 335.511 165.118C335.213 165.794 334.792 166.305 334.249 166.651C333.711 166.997 333.075 167.171 332.34 167.171C331.876 167.171 331.469 167.109 331.118 166.987C330.766 166.864 330.465 166.699 330.215 166.492C329.965 166.284 329.757 166.057 329.592 165.813H329.496C329.512 166.02 329.531 166.271 329.552 166.563C329.579 166.856 329.592 167.112 329.592 167.33V170.925H328.258V158.256H329.352L329.528 159.55H329.592C329.762 159.284 329.97 159.041 330.215 158.823C330.46 158.599 330.758 158.423 331.11 158.296C331.466 158.163 331.887 158.096 332.372 158.096ZM332.14 159.214C331.533 159.214 331.043 159.331 330.67 159.566C330.303 159.8 330.034 160.152 329.863 160.62C329.693 161.084 329.603 161.667 329.592 162.37V162.625C329.592 163.365 329.672 163.991 329.832 164.502C329.997 165.014 330.266 165.402 330.638 165.669C331.016 165.935 331.522 166.068 332.156 166.068C332.699 166.068 333.152 165.922 333.514 165.629C333.876 165.336 334.145 164.928 334.321 164.407C334.502 163.879 334.592 163.275 334.592 162.593C334.592 161.56 334.39 160.74 333.985 160.133C333.586 159.52 332.971 159.214 332.14 159.214ZM341.482 158.096C342.228 158.096 342.867 158.261 343.4 158.591C343.932 158.921 344.34 159.385 344.622 159.981C344.904 160.572 345.045 161.265 345.045 162.058V162.881H338.998C339.014 163.909 339.27 164.692 339.765 165.229C340.26 165.767 340.958 166.036 341.858 166.036C342.412 166.036 342.902 165.986 343.328 165.884C343.754 165.783 344.196 165.634 344.654 165.437V166.603C344.212 166.8 343.772 166.944 343.336 167.035C342.904 167.125 342.393 167.171 341.802 167.171C340.961 167.171 340.226 167 339.597 166.659C338.974 166.313 338.49 165.807 338.143 165.142C337.797 164.476 337.624 163.661 337.624 162.697C337.624 161.755 337.781 160.94 338.095 160.253C338.415 159.56 338.862 159.028 339.437 158.655C340.018 158.282 340.7 158.096 341.482 158.096ZM341.466 159.182C340.758 159.182 340.194 159.414 339.773 159.877C339.352 160.341 339.102 160.988 339.022 161.818H343.655C343.65 161.297 343.567 160.839 343.408 160.444C343.253 160.045 343.016 159.736 342.697 159.518C342.377 159.294 341.967 159.182 341.466 159.182ZM351.112 158.096C351.288 158.096 351.472 158.107 351.664 158.128C351.855 158.144 352.026 158.168 352.175 158.2L352.007 159.43C351.863 159.393 351.703 159.363 351.528 159.342C351.352 159.321 351.187 159.31 351.032 159.31C350.681 159.31 350.348 159.382 350.034 159.526C349.725 159.664 349.453 159.867 349.219 160.133C348.985 160.394 348.801 160.711 348.668 161.084C348.535 161.451 348.468 161.861 348.468 162.314V167.011H347.134V158.256H348.237L348.38 159.869H348.436C348.617 159.544 348.836 159.249 349.091 158.983C349.347 158.711 349.643 158.495 349.978 158.336C350.319 158.176 350.697 158.096 351.112 158.096ZM356.94 158.112C357.984 158.112 358.759 158.346 359.264 158.815C359.77 159.284 360.023 160.032 360.023 161.06V167.011H359.057L358.801 165.717H358.737C358.492 166.036 358.237 166.305 357.97 166.523C357.704 166.736 357.395 166.899 357.044 167.011C356.698 167.117 356.272 167.171 355.766 167.171C355.233 167.171 354.759 167.077 354.344 166.891C353.934 166.705 353.609 166.422 353.369 166.044C353.135 165.666 353.018 165.187 353.018 164.606C353.018 163.733 353.364 163.062 354.056 162.593C354.748 162.125 355.803 161.869 357.219 161.826L358.729 161.763V161.227C358.729 160.471 358.567 159.941 358.242 159.638C357.917 159.334 357.459 159.182 356.868 159.182C356.41 159.182 355.973 159.249 355.558 159.382C355.143 159.515 354.748 159.672 354.376 159.853L353.968 158.847C354.362 158.644 354.815 158.471 355.326 158.328C355.838 158.184 356.375 158.112 356.94 158.112ZM358.713 162.697L357.379 162.753C356.288 162.796 355.518 162.974 355.071 163.288C354.623 163.602 354.4 164.047 354.4 164.622C354.4 165.123 354.551 165.493 354.855 165.733C355.159 165.972 355.561 166.092 356.061 166.092C356.839 166.092 357.475 165.876 357.97 165.445C358.466 165.014 358.713 164.367 358.713 163.504V162.697ZM359.129 154.477V154.637C359.022 154.791 358.876 154.978 358.689 155.196C358.508 155.409 358.306 155.636 358.082 155.875C357.859 156.11 357.632 156.333 357.403 156.546C357.18 156.759 356.972 156.943 356.78 157.097H355.893V156.906C356.064 156.703 356.25 156.461 356.453 156.179C356.655 155.891 356.852 155.598 357.044 155.3C357.235 154.997 357.395 154.722 357.523 154.477H359.129ZM373.907 158.256V167.011H372.821L372.629 165.781H372.557C372.376 166.084 372.142 166.34 371.854 166.547C371.567 166.755 371.242 166.91 370.88 167.011C370.523 167.117 370.142 167.171 369.737 167.171C369.045 167.171 368.464 167.059 367.996 166.835C367.527 166.611 367.173 166.265 366.933 165.797C366.699 165.328 366.582 164.726 366.582 163.991V158.256H367.924V163.895C367.924 164.625 368.089 165.171 368.419 165.533C368.749 165.89 369.253 166.068 369.929 166.068C370.579 166.068 371.095 165.946 371.479 165.701C371.867 165.456 372.147 165.096 372.317 164.622C372.488 164.143 372.573 163.557 372.573 162.865V158.256H373.907ZM380.693 158.096C381.732 158.096 382.517 158.352 383.05 158.863C383.582 159.369 383.849 160.184 383.849 161.307V167.011H382.538V161.395C382.538 160.665 382.371 160.12 382.035 159.757C381.705 159.395 381.196 159.214 380.509 159.214C379.54 159.214 378.859 159.489 378.465 160.037C378.07 160.586 377.873 161.382 377.873 162.426V167.011H376.547V158.256H377.618L377.817 159.518H377.889C378.076 159.209 378.313 158.951 378.6 158.743C378.888 158.53 379.21 158.37 379.567 158.264C379.924 158.152 380.299 158.096 380.693 158.096ZM393.966 162.617C393.966 163.336 393.873 163.978 393.686 164.542C393.5 165.107 393.231 165.584 392.879 165.972C392.528 166.361 392.102 166.659 391.601 166.867C391.106 167.069 390.544 167.171 389.916 167.171C389.33 167.171 388.792 167.069 388.302 166.867C387.818 166.659 387.397 166.361 387.04 165.972C386.689 165.584 386.414 165.107 386.217 164.542C386.025 163.978 385.93 163.336 385.93 162.617C385.93 161.659 386.092 160.844 386.417 160.173C386.742 159.497 387.205 158.983 387.807 158.631C388.414 158.274 389.136 158.096 389.972 158.096C390.77 158.096 391.468 158.274 392.065 158.631C392.666 158.988 393.132 159.505 393.462 160.181C393.798 160.852 393.966 161.664 393.966 162.617ZM387.304 162.617C387.304 163.32 387.397 163.93 387.583 164.447C387.77 164.963 388.057 165.363 388.446 165.645C388.835 165.927 389.335 166.068 389.948 166.068C390.555 166.068 391.053 165.927 391.441 165.645C391.836 165.363 392.126 164.963 392.312 164.447C392.499 163.93 392.592 163.32 392.592 162.617C392.592 161.92 392.499 161.318 392.312 160.812C392.126 160.301 391.838 159.907 391.449 159.63C391.061 159.353 390.557 159.214 389.94 159.214C389.029 159.214 388.361 159.515 387.935 160.117C387.514 160.719 387.304 161.552 387.304 162.617ZM401.758 164.614C401.758 165.173 401.617 165.645 401.335 166.028C401.058 166.406 400.659 166.691 400.137 166.883C399.62 167.075 399.002 167.171 398.284 167.171C397.671 167.171 397.141 167.123 396.694 167.027C396.247 166.931 395.855 166.795 395.52 166.619V165.397C395.876 165.573 396.302 165.733 396.798 165.876C397.293 166.02 397.799 166.092 398.315 166.092C399.072 166.092 399.62 165.97 399.961 165.725C400.302 165.48 400.472 165.147 400.472 164.726C400.472 164.486 400.403 164.276 400.265 164.095C400.131 163.909 399.905 163.73 399.586 163.56C399.266 163.384 398.824 163.192 398.26 162.985C397.7 162.772 397.216 162.561 396.806 162.354C396.401 162.141 396.087 161.882 395.863 161.579C395.645 161.275 395.536 160.881 395.536 160.397C395.536 159.656 395.834 159.089 396.43 158.695C397.032 158.296 397.82 158.096 398.795 158.096C399.322 158.096 399.815 158.149 400.273 158.256C400.736 158.357 401.167 158.495 401.567 158.671L401.119 159.734C400.757 159.579 400.371 159.449 399.961 159.342C399.551 159.236 399.133 159.182 398.707 159.182C398.094 159.182 397.623 159.284 397.293 159.486C396.968 159.688 396.806 159.965 396.806 160.317C396.806 160.588 396.88 160.812 397.029 160.988C397.184 161.163 397.429 161.328 397.764 161.483C398.1 161.637 398.542 161.818 399.09 162.026C399.639 162.228 400.113 162.439 400.512 162.657C400.912 162.87 401.218 163.131 401.431 163.44C401.649 163.744 401.758 164.135 401.758 164.614ZM413.477 164.614C413.477 165.173 413.336 165.645 413.054 166.028C412.777 166.406 412.378 166.691 411.856 166.883C411.339 167.075 410.721 167.171 410.003 167.171C409.39 167.171 408.86 167.123 408.413 167.027C407.966 166.931 407.574 166.795 407.239 166.619V165.397C407.595 165.573 408.021 165.733 408.517 165.876C409.012 166.02 409.518 166.092 410.034 166.092C410.791 166.092 411.339 165.97 411.68 165.725C412.021 165.48 412.191 165.147 412.191 164.726C412.191 164.486 412.122 164.276 411.984 164.095C411.85 163.909 411.624 163.73 411.305 163.56C410.985 163.384 410.543 163.192 409.979 162.985C409.419 162.772 408.935 162.561 408.525 162.354C408.12 162.141 407.806 161.882 407.582 161.579C407.364 161.275 407.255 160.881 407.255 160.397C407.255 159.656 407.553 159.089 408.149 158.695C408.751 158.296 409.539 158.096 410.514 158.096C411.041 158.096 411.534 158.149 411.992 158.256C412.455 158.357 412.886 158.495 413.286 158.671L412.838 159.734C412.476 159.579 412.09 159.449 411.68 159.342C411.27 159.236 410.852 159.182 410.426 159.182C409.813 159.182 409.342 159.284 409.012 159.486C408.687 159.688 408.525 159.965 408.525 160.317C408.525 160.588 408.599 160.812 408.748 160.988C408.903 161.163 409.148 161.328 409.483 161.483C409.819 161.637 410.261 161.818 410.809 162.026C411.358 162.228 411.832 162.439 412.231 162.657C412.631 162.87 412.937 163.131 413.15 163.44C413.368 163.744 413.477 164.135 413.477 164.614ZM418.818 158.096C419.563 158.096 420.202 158.261 420.735 158.591C421.267 158.921 421.675 159.385 421.957 159.981C422.239 160.572 422.38 161.265 422.38 162.058V162.881H416.333C416.349 163.909 416.605 164.692 417.1 165.229C417.595 165.767 418.293 166.036 419.193 166.036C419.747 166.036 420.237 165.986 420.663 165.884C421.089 165.783 421.531 165.634 421.989 165.437V166.603C421.547 166.8 421.108 166.944 420.671 167.035C420.24 167.125 419.728 167.171 419.137 167.171C418.296 167.171 417.561 167 416.932 166.659C416.309 166.313 415.825 165.807 415.479 165.142C415.132 164.476 414.959 163.661 414.959 162.697C414.959 161.755 415.116 160.94 415.431 160.253C415.75 159.56 416.197 159.028 416.773 158.655C417.353 158.282 418.035 158.096 418.818 158.096ZM418.802 159.182C418.093 159.182 417.529 159.414 417.108 159.877C416.687 160.341 416.437 160.988 416.357 161.818H420.99C420.985 161.297 420.903 160.839 420.743 160.444C420.588 160.045 420.351 159.736 420.032 159.518C419.712 159.294 419.302 159.182 418.802 159.182ZM426.914 170.941C425.764 170.941 424.877 170.725 424.254 170.294C423.631 169.868 423.319 169.269 423.319 168.497C423.319 167.948 423.492 167.479 423.838 167.091C424.19 166.702 424.674 166.444 425.292 166.316C425.063 166.209 424.866 166.049 424.701 165.836C424.541 165.623 424.461 165.378 424.461 165.102C424.461 164.782 424.549 164.502 424.725 164.263C424.906 164.018 425.18 163.784 425.548 163.56C425.09 163.373 424.717 163.059 424.429 162.617C424.147 162.17 424.006 161.651 424.006 161.06C424.006 160.431 424.137 159.896 424.398 159.454C424.658 159.007 425.037 158.666 425.532 158.431C426.027 158.197 426.626 158.08 427.329 158.08C427.484 158.08 427.638 158.088 427.793 158.104C427.952 158.115 428.104 158.133 428.248 158.16C428.392 158.181 428.517 158.208 428.623 158.24H431.627V159.094L430.013 159.294C430.173 159.502 430.306 159.752 430.413 160.045C430.519 160.338 430.572 160.663 430.572 161.02C430.572 161.893 430.277 162.588 429.686 163.105C429.095 163.616 428.282 163.871 427.249 163.871C427.004 163.871 426.754 163.85 426.498 163.807C426.237 163.951 426.038 164.111 425.899 164.287C425.766 164.463 425.7 164.665 425.7 164.894C425.7 165.064 425.75 165.2 425.851 165.301C425.958 165.402 426.11 165.477 426.307 165.525C426.504 165.568 426.741 165.589 427.018 165.589H428.559C429.513 165.589 430.242 165.789 430.748 166.188C431.259 166.587 431.515 167.171 431.515 167.937C431.515 168.907 431.121 169.65 430.333 170.166C429.545 170.683 428.405 170.941 426.914 170.941ZM426.954 169.902C427.678 169.902 428.277 169.828 428.751 169.679C429.23 169.535 429.587 169.325 429.822 169.048C430.061 168.776 430.181 168.451 430.181 168.073C430.181 167.722 430.101 167.455 429.941 167.274C429.782 167.099 429.547 166.981 429.238 166.923C428.929 166.859 428.551 166.827 428.104 166.827H426.586C426.192 166.827 425.849 166.888 425.556 167.011C425.263 167.133 425.037 167.314 424.877 167.554C424.722 167.794 424.645 168.092 424.645 168.449C424.645 168.923 424.845 169.282 425.244 169.527C425.644 169.777 426.214 169.902 426.954 169.902ZM427.297 162.905C427.931 162.905 428.408 162.745 428.727 162.426C429.047 162.106 429.206 161.64 429.206 161.028C429.206 160.373 429.044 159.883 428.719 159.558C428.394 159.228 427.915 159.063 427.281 159.063C426.674 159.063 426.206 159.233 425.875 159.574C425.55 159.909 425.388 160.402 425.388 161.052C425.388 161.648 425.553 162.106 425.883 162.426C426.214 162.745 426.685 162.905 427.297 162.905ZM440.418 158.256V167.011H439.332L439.14 165.781H439.068C438.887 166.084 438.653 166.34 438.365 166.547C438.077 166.755 437.753 166.91 437.39 167.011C437.034 167.117 436.653 167.171 436.248 167.171C435.556 167.171 434.975 167.059 434.507 166.835C434.038 166.611 433.684 166.265 433.444 165.797C433.21 165.328 433.093 164.726 433.093 163.991V158.256H434.435V163.895C434.435 164.625 434.6 165.171 434.93 165.533C435.26 165.89 435.764 166.068 436.44 166.068C437.09 166.068 437.606 165.946 437.99 165.701C438.378 165.456 438.658 165.096 438.828 164.622C438.999 164.143 439.084 163.557 439.084 162.865V158.256H440.418ZM447.204 158.096C448.243 158.096 449.028 158.352 449.561 158.863C450.093 159.369 450.359 160.184 450.359 161.307V167.011H449.049V161.395C449.049 160.665 448.882 160.12 448.546 159.757C448.216 159.395 447.707 159.214 447.02 159.214C446.051 159.214 445.369 159.489 444.975 160.037C444.581 160.586 444.384 161.382 444.384 162.426V167.011H443.058V158.256H444.129L444.328 159.518H444.4C444.587 159.209 444.824 158.951 445.111 158.743C445.399 158.53 445.721 158.37 446.078 158.264C446.435 158.152 446.81 158.096 447.204 158.096ZM456.043 167.171C454.935 167.171 454.057 166.792 453.407 166.036C452.763 165.28 452.441 164.156 452.441 162.665C452.441 161.158 452.771 160.021 453.431 159.254C454.091 158.482 454.97 158.096 456.067 158.096C456.53 158.096 456.935 158.157 457.281 158.28C457.628 158.402 457.926 158.567 458.176 158.775C458.426 158.977 458.637 159.209 458.807 159.47H458.903C458.882 159.305 458.86 159.078 458.839 158.791C458.818 158.503 458.807 158.269 458.807 158.088V154.581H460.133V167.011H459.063L458.863 165.765H458.807C458.642 166.026 458.432 166.263 458.176 166.476C457.926 166.689 457.625 166.859 457.273 166.987C456.927 167.109 456.517 167.171 456.043 167.171ZM456.251 166.068C457.188 166.068 457.851 165.802 458.24 165.269C458.629 164.737 458.823 163.946 458.823 162.897V162.657C458.823 161.544 458.637 160.689 458.264 160.093C457.896 159.497 457.225 159.198 456.251 159.198C455.436 159.198 454.826 159.513 454.422 160.141C454.017 160.764 453.814 161.616 453.814 162.697C453.814 163.773 454.014 164.604 454.414 165.189C454.818 165.775 455.431 166.068 456.251 166.068ZM470.33 162.617C470.33 163.336 470.237 163.978 470.051 164.542C469.864 165.107 469.595 165.584 469.244 165.972C468.892 166.361 468.466 166.659 467.966 166.867C467.47 167.069 466.909 167.171 466.28 167.171C465.694 167.171 465.157 167.069 464.667 166.867C464.182 166.659 463.761 166.361 463.404 165.972C463.053 165.584 462.779 165.107 462.582 164.542C462.39 163.978 462.294 163.336 462.294 162.617C462.294 161.659 462.457 160.844 462.781 160.173C463.106 159.497 463.57 158.983 464.171 158.631C464.778 158.274 465.5 158.096 466.336 158.096C467.135 158.096 467.833 158.274 468.429 158.631C469.031 158.988 469.497 159.505 469.827 160.181C470.162 160.852 470.33 161.664 470.33 162.617ZM463.668 162.617C463.668 163.32 463.761 163.93 463.948 164.447C464.134 164.963 464.422 165.363 464.81 165.645C465.199 165.927 465.7 166.068 466.312 166.068C466.919 166.068 467.417 165.927 467.806 165.645C468.2 165.363 468.49 164.963 468.677 164.447C468.863 163.93 468.956 163.32 468.956 162.617C468.956 161.92 468.863 161.318 468.677 160.812C468.49 160.301 468.203 159.907 467.814 159.63C467.425 159.353 466.922 159.214 466.304 159.214C465.394 159.214 464.725 159.515 464.299 160.117C463.878 160.719 463.668 161.552 463.668 162.617ZM478.123 164.614C478.123 165.173 477.982 165.645 477.699 166.028C477.423 166.406 477.023 166.691 476.501 166.883C475.985 167.075 475.367 167.171 474.648 167.171C474.036 167.171 473.506 167.123 473.058 167.027C472.611 166.931 472.22 166.795 471.884 166.619V165.397C472.241 165.573 472.667 165.733 473.162 165.876C473.657 166.02 474.163 166.092 474.68 166.092C475.436 166.092 475.985 165.97 476.325 165.725C476.666 165.48 476.837 165.147 476.837 164.726C476.837 164.486 476.768 164.276 476.629 164.095C476.496 163.909 476.27 163.73 475.95 163.56C475.631 163.384 475.189 163.192 474.624 162.985C474.065 162.772 473.58 162.561 473.17 162.354C472.765 162.141 472.451 161.882 472.228 161.579C472.009 161.275 471.9 160.881 471.9 160.397C471.9 159.656 472.198 159.089 472.795 158.695C473.396 158.296 474.185 158.096 475.159 158.096C475.686 158.096 476.179 158.149 476.637 158.256C477.1 158.357 477.532 158.495 477.931 158.671L477.484 159.734C477.122 159.579 476.736 159.449 476.325 159.342C475.915 159.236 475.497 159.182 475.071 159.182C474.459 159.182 473.988 159.284 473.657 159.486C473.333 159.688 473.17 159.965 473.17 160.317C473.17 160.588 473.245 160.812 473.394 160.988C473.548 161.163 473.793 161.328 474.129 161.483C474.464 161.637 474.906 161.818 475.455 162.026C476.003 162.228 476.477 162.439 476.877 162.657C477.276 162.87 477.582 163.131 477.795 163.44C478.014 163.744 478.123 164.135 478.123 164.614ZM479.892 166.18C479.892 165.807 479.983 165.544 480.164 165.389C480.345 165.229 480.566 165.149 480.827 165.149C481.099 165.149 481.328 165.229 481.514 165.389C481.7 165.544 481.794 165.807 481.794 166.18C481.794 166.547 481.7 166.816 481.514 166.987C481.328 167.152 481.099 167.234 480.827 167.234C480.566 167.234 480.345 167.152 480.164 166.987C479.983 166.816 479.892 166.547 479.892 166.18ZM484.026 166.18C484.026 165.807 484.117 165.544 484.298 165.389C484.479 165.229 484.7 165.149 484.961 165.149C485.233 165.149 485.462 165.229 485.648 165.389C485.834 165.544 485.928 165.807 485.928 166.18C485.928 166.547 485.834 166.816 485.648 166.987C485.462 167.152 485.233 167.234 484.961 167.234C484.7 167.234 484.479 167.152 484.298 166.987C484.117 166.816 484.026 166.547 484.026 166.18ZM488.16 166.18C488.16 165.807 488.251 165.544 488.432 165.389C488.613 165.229 488.834 165.149 489.095 165.149C489.367 165.149 489.596 165.229 489.782 165.389C489.968 165.544 490.062 165.807 490.062 166.18C490.062 166.547 489.968 166.816 489.782 166.987C489.596 167.152 489.367 167.234 489.095 167.234C488.834 167.234 488.613 167.152 488.432 166.987C488.251 166.816 488.16 166.547 488.16 166.18Z" fill="#101E37"/>
<path d="M366.539 236.798C365.493 236.875 364.643 236.018 364.643 234.969C364.643 233.921 365.494 233.079 366.539 232.989C370.228 232.67 373.788 231.426 376.883 229.358C380.507 226.937 383.331 223.496 384.998 219.47C386.666 215.445 387.102 211.015 386.252 206.741C385.402 202.467 383.304 198.541 380.223 195.46C377.141 192.379 373.215 190.281 368.942 189.431C364.668 188.581 360.238 189.017 356.212 190.685C352.186 192.352 348.745 195.176 346.324 198.799C344.256 201.895 343.012 205.455 342.693 209.143C342.603 210.188 341.761 211.04 340.713 211.04C339.664 211.04 338.807 210.189 338.883 209.144C339.208 204.702 340.678 200.408 343.163 196.686C346.001 192.437 350.035 189.125 354.756 187.17C359.476 185.215 364.671 184.704 369.682 185.702C374.693 186.7 379.295 189.162 382.906 192.777C386.521 196.389 388.982 200.991 389.98 206.001C390.978 211.012 390.467 216.206 388.511 220.926C386.556 225.647 383.244 229.681 378.996 232.518C375.274 235.004 370.981 236.473 366.539 236.798Z" fill="#336ACC"/>
</g>
<rect x="49.0045" y="-4.22503" width="631.196" height="314.71" stroke="#B8C1CC" stroke-width="1.99107"/>
</g>
<rect x="1" y="1.77051" width="726" height="297" rx="7" stroke="#E6EBF0" stroke-width="2"/>
<defs>
<clipPath id="clip0_1303_5983">
<rect y="0.770508" width="728" height="299" rx="8" fill="white"/>
</clipPath>
<clipPath id="clip1_1303_5983">
<rect x="50" y="-3.22949" width="629.205" height="312.719" fill="white"/>
</clipPath>
</defs>
</svg>
