<svg width="728" height="286" viewBox="0 0 728 286" fill="none" xmlns="http://www.w3.org/2000/svg">
<g clip-path="url(#clip0_1290_9834)">
<rect y="0.770508" width="728" height="285" rx="8" fill="#F3F6F9"/>
<g clip-path="url(#clip1_1290_9834)">
<rect x="86" y="-12.6895" width="667.972" height="301.222" fill="white"/>
<rect width="667.972" height="89.186" transform="translate(86 -44.8425)" fill="#F3F6F9"/>
<rect x="149.415" y="-2.16089" width="363.057" height="12.683" rx="6.34151" fill="#D1D8E0"/>
<rect x="149.415" y="14.75" width="302.279" height="12.683" rx="6.34151" fill="#D1D8E0"/>
<path d="M159.03 104.302H191.422C194.735 104.302 196.799 100.71 195.143 97.8495L178.947 69.8665C177.291 67.0058 173.161 67.0058 171.505 69.8665L155.309 97.8495C153.653 100.71 155.717 104.302 159.03 104.302ZM175.226 89.246C174.043 89.246 173.075 88.2781 173.075 87.0951V82.7933C173.075 81.6103 174.043 80.6424 175.226 80.6424C176.409 80.6424 177.377 81.6103 177.377 82.7933V87.0951C177.377 88.2781 176.409 89.246 175.226 89.246ZM177.377 97.8495H173.075V93.5477H177.377V97.8495Z" fill="#26874A"/>
<path d="M158.676 145.756C157.016 145.756 155.597 145.415 154.418 144.732C153.239 144.049 152.331 143.08 151.695 141.824C151.075 140.552 150.765 139.055 150.765 137.333C150.765 136.045 150.943 134.89 151.3 133.866C151.657 132.827 152.168 131.942 152.835 131.213C153.518 130.469 154.348 129.903 155.325 129.515C156.318 129.127 157.435 128.933 158.676 128.933C159.591 128.933 160.467 129.057 161.305 129.305C162.158 129.554 162.895 129.91 163.515 130.376C163.779 130.546 163.95 130.756 164.027 131.004C164.12 131.237 164.136 131.462 164.074 131.679C164.027 131.896 163.926 132.082 163.771 132.237C163.616 132.377 163.415 132.454 163.166 132.47C162.934 132.485 162.678 132.4 162.399 132.214C161.887 131.826 161.32 131.539 160.7 131.353C160.08 131.167 159.428 131.074 158.745 131.074C157.567 131.074 156.574 131.322 155.767 131.818C154.961 132.299 154.348 133.005 153.929 133.936C153.51 134.866 153.301 135.999 153.301 137.333C153.301 138.667 153.51 139.807 153.929 140.753C154.348 141.684 154.961 142.397 155.767 142.894C156.574 143.375 157.567 143.615 158.745 143.615C159.428 143.615 160.08 143.522 160.7 143.336C161.336 143.134 161.933 142.84 162.492 142.452C162.771 142.281 163.019 142.204 163.236 142.219C163.469 142.235 163.663 142.312 163.818 142.452C163.973 142.591 164.074 142.77 164.12 142.987C164.182 143.189 164.175 143.406 164.097 143.638C164.035 143.856 163.888 144.042 163.655 144.197C163.019 144.709 162.267 145.097 161.398 145.36C160.529 145.624 159.622 145.756 158.676 145.756ZM171.301 145.756C170.061 145.756 168.99 145.523 168.09 145.058C167.206 144.577 166.516 143.902 166.02 143.033C165.539 142.149 165.298 141.102 165.298 139.892C165.298 138.713 165.539 137.682 166.02 136.798C166.501 135.913 167.16 135.223 167.997 134.727C168.835 134.23 169.789 133.982 170.859 133.982C171.65 133.982 172.356 134.114 172.977 134.378C173.597 134.626 174.125 134.998 174.559 135.495C175.009 135.975 175.342 136.565 175.56 137.263C175.792 137.961 175.909 138.744 175.909 139.613C175.909 139.877 175.831 140.078 175.676 140.218C175.521 140.342 175.288 140.404 174.978 140.404H167.16V138.962H174.326L173.931 139.287C173.931 138.512 173.814 137.852 173.582 137.31C173.365 136.767 173.031 136.356 172.581 136.076C172.147 135.782 171.604 135.634 170.952 135.634C170.223 135.634 169.603 135.805 169.091 136.146C168.595 136.487 168.215 136.961 167.951 137.565C167.687 138.17 167.555 138.876 167.555 139.683V139.822C167.555 141.188 167.873 142.219 168.509 142.917C169.161 143.6 170.099 143.941 171.325 143.941C171.79 143.941 172.279 143.879 172.791 143.755C173.318 143.631 173.814 143.421 174.28 143.127C174.543 142.971 174.776 142.902 174.978 142.917C175.195 142.933 175.366 143.002 175.49 143.127C175.629 143.251 175.715 143.406 175.746 143.592C175.777 143.778 175.746 143.972 175.653 144.174C175.56 144.36 175.397 144.53 175.164 144.685C174.637 145.042 174.024 145.314 173.326 145.5C172.628 145.67 171.953 145.756 171.301 145.756ZM179.657 145.709C179.269 145.709 178.975 145.608 178.773 145.407C178.571 145.19 178.471 144.895 178.471 144.523V135.215C178.471 134.828 178.571 134.533 178.773 134.331C178.975 134.13 179.254 134.029 179.611 134.029C179.983 134.029 180.262 134.13 180.448 134.331C180.65 134.533 180.751 134.828 180.751 135.215V136.914H180.518C180.766 135.983 181.224 135.277 181.891 134.797C182.558 134.316 183.411 134.036 184.45 133.959C184.73 133.943 184.947 134.013 185.102 134.168C185.273 134.323 185.366 134.564 185.381 134.89C185.412 135.215 185.342 135.479 185.172 135.681C185.001 135.867 184.737 135.975 184.381 136.007L183.939 136.053C182.93 136.146 182.162 136.464 181.635 137.007C181.108 137.55 180.844 138.295 180.844 139.241V144.523C180.844 144.895 180.743 145.19 180.541 145.407C180.355 145.608 180.061 145.709 179.657 145.709ZM188.337 145.709C187.949 145.709 187.655 145.608 187.453 145.407C187.251 145.19 187.151 144.895 187.151 144.523V135.215C187.151 134.828 187.251 134.533 187.453 134.331C187.655 134.13 187.934 134.029 188.291 134.029C188.663 134.029 188.942 134.13 189.128 134.331C189.33 134.533 189.431 134.828 189.431 135.215V136.914H189.198C189.446 135.983 189.904 135.277 190.571 134.797C191.238 134.316 192.091 134.036 193.13 133.959C193.41 133.943 193.627 134.013 193.782 134.168C193.953 134.323 194.046 134.564 194.061 134.89C194.092 135.215 194.022 135.479 193.852 135.681C193.681 135.867 193.417 135.975 193.061 136.007L192.619 136.053C191.61 136.146 190.842 136.464 190.315 137.007C189.788 137.55 189.524 138.295 189.524 139.241V144.523C189.524 144.895 189.423 145.19 189.221 145.407C189.035 145.608 188.741 145.709 188.337 145.709ZM199.347 145.756C198.556 145.756 197.842 145.601 197.206 145.29C196.586 144.98 196.097 144.561 195.74 144.034C195.384 143.507 195.205 142.909 195.205 142.242C195.205 141.405 195.415 140.745 195.833 140.265C196.268 139.768 196.973 139.419 197.951 139.217C198.944 139 200.278 138.892 201.953 138.892H203.046V140.334H201.976C200.859 140.334 199.975 140.389 199.324 140.497C198.672 140.606 198.207 140.792 197.927 141.056C197.664 141.304 197.532 141.653 197.532 142.103C197.532 142.692 197.734 143.173 198.137 143.545C198.54 143.902 199.099 144.081 199.812 144.081C200.386 144.081 200.89 143.949 201.325 143.685C201.759 143.406 202.1 143.033 202.348 142.568C202.612 142.103 202.744 141.568 202.744 140.963V138.287C202.744 137.403 202.558 136.767 202.186 136.379C201.813 135.991 201.201 135.797 200.347 135.797C199.851 135.797 199.331 135.859 198.788 135.983C198.261 136.107 197.71 136.317 197.136 136.611C196.873 136.736 196.648 136.774 196.462 136.728C196.275 136.681 196.128 136.58 196.02 136.425C195.911 136.255 195.849 136.076 195.833 135.89C195.833 135.689 195.88 135.495 195.973 135.308C196.082 135.122 196.26 134.983 196.508 134.89C197.191 134.564 197.865 134.331 198.532 134.192C199.199 134.052 199.828 133.982 200.417 133.982C201.456 133.982 202.31 134.145 202.977 134.471C203.659 134.797 204.163 135.293 204.489 135.96C204.815 136.627 204.978 137.488 204.978 138.543V144.523C204.978 144.895 204.885 145.19 204.698 145.407C204.512 145.608 204.241 145.709 203.884 145.709C203.543 145.709 203.271 145.608 203.07 145.407C202.868 145.19 202.767 144.895 202.767 144.523V143.01H202.977C202.853 143.584 202.62 144.081 202.279 144.499C201.953 144.903 201.542 145.213 201.045 145.43C200.549 145.647 199.983 145.756 199.347 145.756ZM209.424 145.709C209.052 145.709 208.765 145.608 208.563 145.407C208.362 145.19 208.261 144.895 208.261 144.523V135.215C208.261 134.828 208.362 134.533 208.563 134.331C208.765 134.13 209.044 134.029 209.401 134.029C209.773 134.029 210.053 134.13 210.239 134.331C210.44 134.533 210.541 134.828 210.541 135.215V137.123L210.285 136.611C210.596 135.789 211.076 135.146 211.728 134.68C212.379 134.215 213.163 133.982 214.078 133.982C215.024 133.982 215.792 134.207 216.382 134.657C216.971 135.107 217.374 135.797 217.591 136.728H217.266C217.56 135.875 218.065 135.208 218.778 134.727C219.492 134.23 220.322 133.982 221.268 133.982C222.136 133.982 222.85 134.153 223.408 134.494C223.967 134.82 224.386 135.324 224.665 136.007C224.944 136.674 225.084 137.519 225.084 138.543V144.523C225.084 144.895 224.975 145.19 224.758 145.407C224.556 145.608 224.269 145.709 223.897 145.709C223.525 145.709 223.238 145.608 223.036 145.407C222.834 145.19 222.734 144.895 222.734 144.523V138.659C222.734 137.697 222.563 136.992 222.222 136.542C221.896 136.092 221.353 135.867 220.593 135.867C219.74 135.867 219.065 136.162 218.569 136.751C218.072 137.341 217.824 138.155 217.824 139.194V144.523C217.824 144.895 217.723 145.19 217.522 145.407C217.32 145.608 217.033 145.709 216.661 145.709C216.288 145.709 215.994 145.608 215.777 145.407C215.575 145.19 215.474 144.895 215.474 144.523V138.659C215.474 137.697 215.311 136.992 214.985 136.542C214.66 136.092 214.117 135.867 213.357 135.867C212.504 135.867 211.829 136.162 211.332 136.751C210.851 137.341 210.611 138.155 210.611 139.194V144.523C210.611 145.314 210.216 145.709 209.424 145.709ZM233.302 145.756C232.154 145.756 231.162 145.515 230.324 145.034C229.502 144.554 228.858 143.871 228.393 142.987C227.927 142.103 227.695 141.063 227.695 139.869C227.695 138.954 227.827 138.139 228.09 137.426C228.354 136.712 228.726 136.1 229.207 135.588C229.703 135.06 230.293 134.665 230.975 134.401C231.673 134.122 232.449 133.982 233.302 133.982C234.435 133.982 235.412 134.223 236.234 134.704C237.072 135.184 237.723 135.867 238.189 136.751C238.654 137.62 238.887 138.659 238.887 139.869C238.887 140.769 238.755 141.583 238.491 142.312C238.227 143.041 237.847 143.662 237.351 144.174C236.87 144.685 236.281 145.081 235.582 145.36C234.9 145.624 234.14 145.756 233.302 145.756ZM233.302 143.941C233.938 143.941 234.497 143.786 234.978 143.476C235.458 143.165 235.831 142.708 236.094 142.103C236.374 141.498 236.513 140.753 236.513 139.869C236.513 138.535 236.218 137.527 235.629 136.844C235.04 136.162 234.264 135.82 233.302 135.82C232.651 135.82 232.085 135.975 231.604 136.286C231.123 136.58 230.743 137.03 230.464 137.635C230.2 138.24 230.068 138.985 230.068 139.869C230.068 141.188 230.363 142.196 230.952 142.894C231.542 143.592 232.325 143.941 233.302 143.941ZM245.505 145.756C244.822 145.756 244.116 145.678 243.387 145.523C242.674 145.368 242.014 145.104 241.409 144.732C241.208 144.592 241.068 144.437 240.991 144.267C240.913 144.096 240.882 143.925 240.898 143.755C240.929 143.569 240.998 143.413 241.107 143.289C241.231 143.15 241.378 143.064 241.549 143.033C241.735 143.002 241.929 143.041 242.131 143.15C242.736 143.491 243.317 143.731 243.876 143.871C244.434 143.995 244.985 144.057 245.528 144.057C246.35 144.057 246.971 143.91 247.389 143.615C247.808 143.32 248.018 142.925 248.018 142.428C248.018 142.025 247.878 141.715 247.599 141.498C247.32 141.265 246.901 141.087 246.342 140.963L244.132 140.521C243.17 140.319 242.441 139.962 241.945 139.45C241.448 138.938 241.2 138.287 241.2 137.496C241.2 136.782 241.394 136.162 241.782 135.634C242.17 135.107 242.712 134.704 243.411 134.424C244.109 134.13 244.915 133.982 245.83 133.982C246.513 133.982 247.157 134.068 247.762 134.238C248.367 134.409 248.925 134.665 249.437 135.006C249.639 135.115 249.77 135.262 249.832 135.448C249.895 135.619 249.902 135.789 249.856 135.96C249.825 136.131 249.747 136.286 249.623 136.425C249.499 136.549 249.344 136.627 249.158 136.658C248.987 136.674 248.793 136.627 248.576 136.518C248.111 136.224 247.645 136.014 247.18 135.89C246.73 135.766 246.28 135.704 245.83 135.704C245.008 135.704 244.388 135.859 243.969 136.169C243.566 136.464 243.364 136.867 243.364 137.379C243.364 137.767 243.488 138.085 243.736 138.333C243.984 138.582 244.372 138.76 244.9 138.868L247.11 139.311C248.118 139.512 248.878 139.853 249.39 140.334C249.918 140.815 250.182 141.467 250.182 142.289C250.182 143.359 249.755 144.205 248.902 144.825C248.049 145.446 246.916 145.756 245.505 145.756ZM263.771 145.756C262.84 145.756 262.057 145.593 261.421 145.267C260.785 144.941 260.312 144.461 260.002 143.825C259.691 143.189 259.536 142.413 259.536 141.498V136.007H258.14C257.83 136.007 257.59 135.929 257.419 135.774C257.248 135.603 257.163 135.378 257.163 135.099C257.163 134.804 257.248 134.579 257.419 134.424C257.59 134.269 257.83 134.192 258.14 134.192H259.536V131.795C259.536 131.407 259.637 131.112 259.839 130.911C260.056 130.709 260.351 130.608 260.723 130.608C261.095 130.608 261.382 130.709 261.584 130.911C261.786 131.112 261.886 131.407 261.886 131.795V134.192H264.609C264.919 134.192 265.159 134.269 265.33 134.424C265.501 134.579 265.586 134.804 265.586 135.099C265.586 135.378 265.501 135.603 265.33 135.774C265.159 135.929 264.919 136.007 264.609 136.007H261.886V141.312C261.886 142.134 262.057 142.754 262.398 143.173C262.755 143.592 263.329 143.801 264.12 143.801C264.399 143.801 264.64 143.778 264.841 143.731C265.059 143.669 265.237 143.631 265.377 143.615C265.547 143.615 265.687 143.677 265.795 143.801C265.904 143.91 265.958 144.127 265.958 144.453C265.958 144.685 265.912 144.903 265.819 145.104C265.741 145.306 265.594 145.438 265.377 145.5C265.19 145.562 264.934 145.616 264.609 145.663C264.298 145.725 264.019 145.756 263.771 145.756ZM271.478 145.756C270.563 145.756 269.795 145.585 269.175 145.244C268.57 144.903 268.112 144.399 267.802 143.731C267.507 143.049 267.36 142.196 267.36 141.172V135.215C267.36 134.812 267.461 134.517 267.662 134.331C267.864 134.13 268.151 134.029 268.523 134.029C268.895 134.029 269.182 134.13 269.384 134.331C269.601 134.517 269.71 134.812 269.71 135.215V141.195C269.71 142.11 269.896 142.785 270.268 143.22C270.641 143.654 271.23 143.871 272.037 143.871C272.921 143.871 273.634 143.576 274.177 142.987C274.736 142.382 275.015 141.591 275.015 140.614V135.215C275.015 134.812 275.116 134.517 275.317 134.331C275.519 134.13 275.814 134.029 276.202 134.029C276.574 134.029 276.861 134.13 277.063 134.331C277.264 134.517 277.365 134.812 277.365 135.215V144.523C277.365 145.314 276.985 145.709 276.225 145.709C275.868 145.709 275.589 145.608 275.387 145.407C275.186 145.19 275.085 144.895 275.085 144.523V142.545L275.387 143.057C275.077 143.925 274.581 144.592 273.898 145.058C273.216 145.523 272.409 145.756 271.478 145.756ZM290.791 145.756C290.108 145.756 289.403 145.678 288.673 145.523C287.96 145.368 287.301 145.104 286.696 144.732C286.494 144.592 286.354 144.437 286.277 144.267C286.199 144.096 286.168 143.925 286.184 143.755C286.215 143.569 286.285 143.413 286.393 143.289C286.517 143.15 286.665 143.064 286.835 143.033C287.021 143.002 287.215 143.041 287.417 143.15C288.022 143.491 288.604 143.731 289.162 143.871C289.721 143.995 290.271 144.057 290.814 144.057C291.636 144.057 292.257 143.91 292.676 143.615C293.094 143.32 293.304 142.925 293.304 142.428C293.304 142.025 293.164 141.715 292.885 141.498C292.606 141.265 292.187 141.087 291.628 140.963L289.418 140.521C288.456 140.319 287.727 139.962 287.231 139.45C286.734 138.938 286.486 138.287 286.486 137.496C286.486 136.782 286.68 136.162 287.068 135.634C287.456 135.107 287.999 134.704 288.697 134.424C289.395 134.13 290.201 133.982 291.117 133.982C291.799 133.982 292.443 134.068 293.048 134.238C293.653 134.409 294.211 134.665 294.723 135.006C294.925 135.115 295.057 135.262 295.119 135.448C295.181 135.619 295.188 135.789 295.142 135.96C295.111 136.131 295.033 136.286 294.909 136.425C294.785 136.549 294.63 136.627 294.444 136.658C294.273 136.674 294.079 136.627 293.862 136.518C293.397 136.224 292.931 136.014 292.466 135.89C292.016 135.766 291.566 135.704 291.117 135.704C290.294 135.704 289.674 135.859 289.255 136.169C288.852 136.464 288.65 136.867 288.65 137.379C288.65 137.767 288.774 138.085 289.022 138.333C289.271 138.582 289.658 138.76 290.186 138.868L292.396 139.311C293.405 139.512 294.165 139.853 294.677 140.334C295.204 140.815 295.468 141.467 295.468 142.289C295.468 143.359 295.041 144.205 294.188 144.825C293.335 145.446 292.202 145.756 290.791 145.756ZM303.411 145.756C302.17 145.756 301.1 145.523 300.2 145.058C299.316 144.577 298.625 143.902 298.129 143.033C297.648 142.149 297.408 141.102 297.408 139.892C297.408 138.713 297.648 137.682 298.129 136.798C298.61 135.913 299.269 135.223 300.107 134.727C300.944 134.23 301.898 133.982 302.969 133.982C303.76 133.982 304.466 134.114 305.086 134.378C305.707 134.626 306.234 134.998 306.668 135.495C307.118 135.975 307.452 136.565 307.669 137.263C307.902 137.961 308.018 138.744 308.018 139.613C308.018 139.877 307.94 140.078 307.785 140.218C307.63 140.342 307.397 140.404 307.087 140.404H299.269V138.962H306.436L306.04 139.287C306.04 138.512 305.924 137.852 305.691 137.31C305.474 136.767 305.14 136.356 304.691 136.076C304.256 135.782 303.713 135.634 303.062 135.634C302.333 135.634 301.712 135.805 301.2 136.146C300.704 136.487 300.324 136.961 300.06 137.565C299.797 138.17 299.665 138.876 299.665 139.683V139.822C299.665 141.188 299.983 142.219 300.619 142.917C301.27 143.6 302.209 143.941 303.434 143.941C303.899 143.941 304.388 143.879 304.9 143.755C305.427 143.631 305.924 143.421 306.389 143.127C306.653 142.971 306.885 142.902 307.087 142.917C307.304 142.933 307.475 143.002 307.599 143.127C307.739 143.251 307.824 143.406 307.855 143.592C307.886 143.778 307.855 143.972 307.762 144.174C307.669 144.36 307.506 144.53 307.273 144.685C306.746 145.042 306.133 145.314 305.435 145.5C304.737 145.67 304.062 145.756 303.411 145.756ZM314.559 145.756C313.876 145.756 313.17 145.678 312.441 145.523C311.728 145.368 311.068 145.104 310.464 144.732C310.262 144.592 310.122 144.437 310.045 144.267C309.967 144.096 309.936 143.925 309.952 143.755C309.983 143.569 310.052 143.413 310.161 143.289C310.285 143.15 310.433 143.064 310.603 143.033C310.789 143.002 310.983 143.041 311.185 143.15C311.79 143.491 312.372 143.731 312.93 143.871C313.488 143.995 314.039 144.057 314.582 144.057C315.404 144.057 316.025 143.91 316.443 143.615C316.862 143.32 317.072 142.925 317.072 142.428C317.072 142.025 316.932 141.715 316.653 141.498C316.374 141.265 315.955 141.087 315.396 140.963L313.186 140.521C312.224 140.319 311.495 139.962 310.999 139.45C310.502 138.938 310.254 138.287 310.254 137.496C310.254 136.782 310.448 136.162 310.836 135.634C311.224 135.107 311.767 134.704 312.465 134.424C313.163 134.13 313.969 133.982 314.884 133.982C315.567 133.982 316.211 134.068 316.816 134.238C317.421 134.409 317.979 134.665 318.491 135.006C318.693 135.115 318.824 135.262 318.887 135.448C318.949 135.619 318.956 135.789 318.91 135.96C318.879 136.131 318.801 136.286 318.677 136.425C318.553 136.549 318.398 136.627 318.212 136.658C318.041 136.674 317.847 136.627 317.63 136.518C317.165 136.224 316.699 136.014 316.234 135.89C315.784 135.766 315.334 135.704 314.884 135.704C314.062 135.704 313.442 135.859 313.023 136.169C312.62 136.464 312.418 136.867 312.418 137.379C312.418 137.767 312.542 138.085 312.79 138.333C313.039 138.582 313.426 138.76 313.954 138.868L316.164 139.311C317.172 139.512 317.933 139.853 318.444 140.334C318.972 140.815 319.236 141.467 319.236 142.289C319.236 143.359 318.809 144.205 317.956 144.825C317.103 145.446 315.97 145.756 314.559 145.756ZM323.014 145.686C322.641 145.686 322.354 145.577 322.153 145.36C321.951 145.128 321.85 144.81 321.85 144.406V135.332C321.85 134.928 321.951 134.618 322.153 134.401C322.354 134.184 322.641 134.075 323.014 134.075C323.386 134.075 323.673 134.184 323.875 134.401C324.092 134.618 324.2 134.928 324.2 135.332V144.406C324.2 144.81 324.1 145.128 323.898 145.36C323.696 145.577 323.401 145.686 323.014 145.686ZM323.014 131.655C322.548 131.655 322.184 131.539 321.92 131.306C321.672 131.074 321.548 130.748 321.548 130.329C321.548 129.895 321.672 129.569 321.92 129.352C322.184 129.119 322.548 129.003 323.014 129.003C323.479 129.003 323.836 129.119 324.084 129.352C324.348 129.569 324.48 129.895 324.48 130.329C324.48 130.748 324.348 131.074 324.084 131.306C323.836 131.539 323.479 131.655 323.014 131.655ZM332.441 145.756C331.293 145.756 330.3 145.515 329.463 145.034C328.641 144.554 327.997 143.871 327.531 142.987C327.066 142.103 326.833 141.063 326.833 139.869C326.833 138.954 326.965 138.139 327.229 137.426C327.493 136.712 327.865 136.1 328.346 135.588C328.842 135.06 329.432 134.665 330.114 134.401C330.812 134.122 331.588 133.982 332.441 133.982C333.573 133.982 334.551 134.223 335.373 134.704C336.21 135.184 336.862 135.867 337.327 136.751C337.793 137.62 338.025 138.659 338.025 139.869C338.025 140.769 337.893 141.583 337.63 142.312C337.366 143.041 336.986 143.662 336.49 144.174C336.009 144.685 335.419 145.081 334.721 145.36C334.039 145.624 333.279 145.756 332.441 145.756ZM332.441 143.941C333.077 143.941 333.635 143.786 334.116 143.476C334.597 143.165 334.969 142.708 335.233 142.103C335.512 141.498 335.652 140.753 335.652 139.869C335.652 138.535 335.357 137.527 334.768 136.844C334.178 136.162 333.403 135.82 332.441 135.82C331.79 135.82 331.223 135.975 330.742 136.286C330.262 136.58 329.882 137.03 329.602 137.635C329.339 138.24 329.207 138.985 329.207 139.869C329.207 141.188 329.502 142.196 330.091 142.894C330.68 143.592 331.464 143.941 332.441 143.941ZM333.348 132.563C333.224 132.749 333.069 132.858 332.883 132.889C332.712 132.92 332.542 132.889 332.371 132.796C332.201 132.702 332.077 132.571 331.999 132.4C331.937 132.229 331.952 132.043 332.045 131.842L333.93 128.188C334.054 127.94 334.209 127.777 334.396 127.7C334.597 127.622 334.799 127.615 335.001 127.677C335.218 127.723 335.396 127.816 335.536 127.956C335.691 128.095 335.784 128.274 335.815 128.491C335.846 128.693 335.792 128.894 335.652 129.096L333.348 132.563ZM341.828 145.709C341.456 145.709 341.169 145.608 340.967 145.407C340.765 145.19 340.665 144.895 340.665 144.523V135.215C340.665 134.828 340.765 134.533 340.967 134.331C341.169 134.13 341.448 134.029 341.805 134.029C342.177 134.029 342.456 134.13 342.642 134.331C342.844 134.533 342.945 134.828 342.945 135.215V137.03L342.689 136.611C343.03 135.743 343.565 135.091 344.294 134.657C345.023 134.207 345.861 133.982 346.807 133.982C347.707 133.982 348.452 134.153 349.041 134.494C349.646 134.82 350.096 135.324 350.391 136.007C350.685 136.674 350.833 137.519 350.833 138.543V144.523C350.833 144.895 350.732 145.19 350.53 145.407C350.329 145.608 350.042 145.709 349.669 145.709C349.282 145.709 348.987 145.608 348.785 145.407C348.583 145.19 348.483 144.895 348.483 144.523V138.682C348.483 137.705 348.289 136.992 347.901 136.542C347.529 136.092 346.939 135.867 346.133 135.867C345.186 135.867 344.426 136.162 343.852 136.751C343.294 137.341 343.015 138.132 343.015 139.124V144.523C343.015 145.314 342.619 145.709 341.828 145.709ZM361.369 149.897C360.997 149.897 360.71 149.797 360.509 149.595C360.307 149.393 360.206 149.099 360.206 148.711V135.215C360.206 134.828 360.307 134.533 360.509 134.331C360.71 134.13 360.989 134.029 361.346 134.029C361.719 134.029 362.005 134.13 362.207 134.331C362.409 134.533 362.51 134.828 362.51 135.215V137.24L362.254 136.751C362.502 135.913 362.99 135.246 363.72 134.75C364.449 134.238 365.31 133.982 366.302 133.982C367.311 133.982 368.187 134.223 368.932 134.704C369.692 135.184 370.273 135.859 370.677 136.728C371.095 137.596 371.305 138.644 371.305 139.869C371.305 141.063 371.095 142.11 370.677 143.01C370.273 143.894 369.699 144.577 368.955 145.058C368.21 145.523 367.326 145.756 366.302 145.756C365.325 145.756 364.472 145.508 363.743 145.011C363.014 144.515 362.525 143.856 362.277 143.033H362.556V148.711C362.556 149.099 362.448 149.393 362.23 149.595C362.029 149.797 361.742 149.897 361.369 149.897ZM365.721 143.941C366.372 143.941 366.938 143.786 367.419 143.476C367.9 143.165 368.272 142.708 368.536 142.103C368.8 141.498 368.932 140.753 368.932 139.869C368.932 138.535 368.637 137.527 368.047 136.844C367.473 136.162 366.698 135.82 365.721 135.82C365.085 135.82 364.518 135.975 364.022 136.286C363.541 136.58 363.169 137.03 362.905 137.635C362.641 138.24 362.51 138.985 362.51 139.869C362.51 141.188 362.804 142.196 363.394 142.894C363.983 143.592 364.759 143.941 365.721 143.941ZM378.886 145.756C377.738 145.756 376.745 145.515 375.908 145.034C375.086 144.554 374.442 143.871 373.977 142.987C373.511 142.103 373.278 141.063 373.278 139.869C373.278 138.954 373.41 138.139 373.674 137.426C373.938 136.712 374.31 136.1 374.791 135.588C375.287 135.06 375.877 134.665 376.559 134.401C377.257 134.122 378.033 133.982 378.886 133.982C380.018 133.982 380.996 134.223 381.818 134.704C382.655 135.184 383.307 135.867 383.772 136.751C384.238 137.62 384.47 138.659 384.47 139.869C384.47 140.769 384.339 141.583 384.075 142.312C383.811 143.041 383.431 143.662 382.935 144.174C382.454 144.685 381.864 145.081 381.166 145.36C380.484 145.624 379.724 145.756 378.886 145.756ZM378.886 143.941C379.522 143.941 380.08 143.786 380.561 143.476C381.042 143.165 381.415 142.708 381.678 142.103C381.957 141.498 382.097 140.753 382.097 139.869C382.097 138.535 381.802 137.527 381.213 136.844C380.623 136.162 379.848 135.82 378.886 135.82C378.235 135.82 377.668 135.975 377.188 136.286C376.707 136.58 376.327 137.03 376.047 137.635C375.784 138.24 375.652 138.985 375.652 139.869C375.652 141.188 375.947 142.196 376.536 142.894C377.125 143.592 377.909 143.941 378.886 143.941ZM388.296 145.709C387.909 145.709 387.614 145.608 387.412 145.407C387.21 145.19 387.11 144.895 387.11 144.523V135.215C387.11 134.828 387.21 134.533 387.412 134.331C387.614 134.13 387.893 134.029 388.25 134.029C388.622 134.029 388.901 134.13 389.087 134.331C389.289 134.533 389.39 134.828 389.39 135.215V136.914H389.157C389.405 135.983 389.863 135.277 390.53 134.797C391.197 134.316 392.05 134.036 393.09 133.959C393.369 133.943 393.586 134.013 393.741 134.168C393.912 134.323 394.005 134.564 394.02 134.89C394.051 135.215 393.981 135.479 393.811 135.681C393.64 135.867 393.377 135.975 393.02 136.007L392.578 136.053C391.569 136.146 390.802 136.464 390.274 137.007C389.747 137.55 389.483 138.295 389.483 139.241V144.523C389.483 144.895 389.382 145.19 389.181 145.407C388.994 145.608 388.7 145.709 388.296 145.709ZM403.111 145.709C402.724 145.709 402.429 145.608 402.227 145.407C402.026 145.19 401.925 144.895 401.925 144.523V135.215C401.925 134.828 402.026 134.533 402.227 134.331C402.429 134.13 402.708 134.029 403.065 134.029C403.437 134.029 403.716 134.13 403.903 134.331C404.104 134.533 404.205 134.828 404.205 135.215V136.914H403.972C404.221 135.983 404.678 135.277 405.345 134.797C406.012 134.316 406.865 134.036 407.905 133.959C408.184 133.943 408.401 134.013 408.556 134.168C408.727 134.323 408.82 134.564 408.835 134.89C408.866 135.215 408.797 135.479 408.626 135.681C408.455 135.867 408.192 135.975 407.835 136.007L407.393 136.053C406.385 136.146 405.617 136.464 405.089 137.007C404.562 137.55 404.298 138.295 404.298 139.241V144.523C404.298 144.895 404.197 145.19 403.996 145.407C403.81 145.608 403.515 145.709 403.111 145.709ZM414.121 145.756C413.33 145.756 412.616 145.601 411.98 145.29C411.36 144.98 410.871 144.561 410.515 144.034C410.158 143.507 409.979 142.909 409.979 142.242C409.979 141.405 410.189 140.745 410.608 140.265C411.042 139.768 411.748 139.419 412.725 139.217C413.718 139 415.052 138.892 416.727 138.892H417.821V140.334H416.75C415.633 140.334 414.749 140.389 414.098 140.497C413.446 140.606 412.981 140.792 412.702 141.056C412.438 141.304 412.306 141.653 412.306 142.103C412.306 142.692 412.508 143.173 412.911 143.545C413.314 143.902 413.873 144.081 414.586 144.081C415.16 144.081 415.665 143.949 416.099 143.685C416.533 143.406 416.874 143.033 417.123 142.568C417.386 142.103 417.518 141.568 417.518 140.963V138.287C417.518 137.403 417.332 136.767 416.96 136.379C416.587 135.991 415.975 135.797 415.122 135.797C414.625 135.797 414.106 135.859 413.563 135.983C413.035 136.107 412.485 136.317 411.911 136.611C411.647 136.736 411.422 136.774 411.236 136.728C411.05 136.681 410.902 136.58 410.794 136.425C410.685 136.255 410.623 136.076 410.608 135.89C410.608 135.689 410.654 135.495 410.747 135.308C410.856 135.122 411.034 134.983 411.282 134.89C411.965 134.564 412.64 134.331 413.307 134.192C413.974 134.052 414.602 133.982 415.191 133.982C416.231 133.982 417.084 134.145 417.751 134.471C418.433 134.797 418.938 135.293 419.263 135.96C419.589 136.627 419.752 137.488 419.752 138.543V144.523C419.752 144.895 419.659 145.19 419.473 145.407C419.287 145.608 419.015 145.709 418.658 145.709C418.317 145.709 418.046 145.608 417.844 145.407C417.642 145.19 417.541 144.895 417.541 144.523V143.01H417.751C417.627 143.584 417.394 144.081 417.053 144.499C416.727 144.903 416.316 145.213 415.82 145.43C415.323 145.647 414.757 145.756 414.121 145.756ZM423.431 145.546C423.183 145.546 422.981 145.492 422.826 145.384C422.671 145.259 422.562 145.104 422.5 144.918C422.454 144.716 422.454 144.507 422.5 144.29C422.562 144.057 422.686 143.84 422.872 143.638L429.201 135.425V136.007H423.291C422.996 136.007 422.772 135.929 422.616 135.774C422.461 135.603 422.384 135.378 422.384 135.099C422.384 134.804 422.461 134.579 422.616 134.424C422.772 134.269 422.996 134.192 423.291 134.192H430.318C430.613 134.192 430.846 134.254 431.016 134.378C431.202 134.502 431.319 134.657 431.365 134.843C431.427 135.029 431.435 135.231 431.388 135.448C431.342 135.665 431.226 135.875 431.039 136.076L424.617 144.383V143.755H430.83C431.45 143.755 431.761 144.049 431.761 144.639C431.761 144.918 431.675 145.143 431.505 145.314C431.35 145.469 431.125 145.546 430.83 145.546H423.431ZM438.578 145.756C437.431 145.756 436.438 145.515 435.6 145.034C434.778 144.554 434.134 143.871 433.669 142.987C433.203 142.103 432.971 141.063 432.971 139.869C432.971 138.954 433.103 138.139 433.366 137.426C433.63 136.712 434.002 136.1 434.483 135.588C434.98 135.06 435.569 134.665 436.252 134.401C436.95 134.122 437.725 133.982 438.578 133.982C439.711 133.982 440.688 134.223 441.51 134.704C442.348 135.184 442.999 135.867 443.465 136.751C443.93 137.62 444.163 138.659 444.163 139.869C444.163 140.769 444.031 141.583 443.767 142.312C443.503 143.041 443.123 143.662 442.627 144.174C442.146 144.685 441.557 145.081 440.859 145.36C440.176 145.624 439.416 145.756 438.578 145.756ZM438.578 143.941C439.214 143.941 439.773 143.786 440.254 143.476C440.735 143.165 441.107 142.708 441.371 142.103C441.65 141.498 441.789 140.753 441.789 139.869C441.789 138.535 441.495 137.527 440.905 136.844C440.316 136.162 439.54 135.82 438.578 135.82C437.927 135.82 437.361 135.975 436.88 136.286C436.399 136.58 436.019 137.03 435.74 137.635C435.476 138.24 435.344 138.985 435.344 139.869C435.344 141.188 435.639 142.196 436.228 142.894C436.818 143.592 437.601 143.941 438.578 143.941ZM447.965 145.709C447.593 145.709 447.306 145.608 447.104 145.407C446.903 145.19 446.802 144.895 446.802 144.523V135.215C446.802 134.828 446.903 134.533 447.104 134.331C447.306 134.13 447.585 134.029 447.942 134.029C448.314 134.029 448.594 134.13 448.78 134.331C448.981 134.533 449.082 134.828 449.082 135.215V137.03L448.826 136.611C449.168 135.743 449.703 135.091 450.432 134.657C451.161 134.207 451.999 133.982 452.945 133.982C453.844 133.982 454.589 134.153 455.178 134.494C455.783 134.82 456.233 135.324 456.528 136.007C456.823 136.674 456.97 137.519 456.97 138.543V144.523C456.97 144.895 456.869 145.19 456.668 145.407C456.466 145.608 456.179 145.709 455.807 145.709C455.419 145.709 455.124 145.608 454.923 145.407C454.721 145.19 454.62 144.895 454.62 144.523V138.682C454.62 137.705 454.426 136.992 454.038 136.542C453.666 136.092 453.077 135.867 452.27 135.867C451.324 135.867 450.564 136.162 449.99 136.751C449.431 137.341 449.152 138.132 449.152 139.124V144.523C449.152 145.314 448.756 145.709 447.965 145.709ZM465.537 145.756C464.296 145.756 463.225 145.523 462.326 145.058C461.442 144.577 460.751 143.902 460.255 143.033C459.774 142.149 459.534 141.102 459.534 139.892C459.534 138.713 459.774 137.682 460.255 136.798C460.736 135.913 461.395 135.223 462.233 134.727C463.07 134.23 464.024 133.982 465.095 133.982C465.886 133.982 466.592 134.114 467.212 134.378C467.832 134.626 468.36 134.998 468.794 135.495C469.244 135.975 469.578 136.565 469.795 137.263C470.027 137.961 470.144 138.744 470.144 139.613C470.144 139.877 470.066 140.078 469.911 140.218C469.756 140.342 469.523 140.404 469.213 140.404H461.395V138.962H468.562L468.166 139.287C468.166 138.512 468.05 137.852 467.817 137.31C467.6 136.767 467.266 136.356 466.816 136.076C466.382 135.782 465.839 135.634 465.188 135.634C464.459 135.634 463.838 135.805 463.326 136.146C462.83 136.487 462.45 136.961 462.186 137.565C461.922 138.17 461.791 138.876 461.791 139.683V139.822C461.791 141.188 462.109 142.219 462.745 142.917C463.396 143.6 464.335 143.941 465.56 143.941C466.025 143.941 466.514 143.879 467.026 143.755C467.553 143.631 468.05 143.421 468.515 143.127C468.779 142.971 469.011 142.902 469.213 142.917C469.43 142.933 469.601 143.002 469.725 143.127C469.865 143.251 469.95 143.406 469.981 143.592C470.012 143.778 469.981 143.972 469.888 144.174C469.795 144.36 469.632 144.53 469.399 144.685C468.872 145.042 468.259 145.314 467.561 145.5C466.863 145.67 466.188 145.756 465.537 145.756ZM476.685 145.756C476.002 145.756 475.296 145.678 474.567 145.523C473.854 145.368 473.194 145.104 472.589 144.732C472.388 144.592 472.248 144.437 472.171 144.267C472.093 144.096 472.062 143.925 472.078 143.755C472.109 143.569 472.178 143.413 472.287 143.289C472.411 143.15 472.558 143.064 472.729 143.033C472.915 143.002 473.109 143.041 473.311 143.15C473.916 143.491 474.497 143.731 475.056 143.871C475.614 143.995 476.165 144.057 476.708 144.057C477.53 144.057 478.151 143.91 478.569 143.615C478.988 143.32 479.198 142.925 479.198 142.428C479.198 142.025 479.058 141.715 478.779 141.498C478.5 141.265 478.081 141.087 477.522 140.963L475.312 140.521C474.35 140.319 473.621 139.962 473.125 139.45C472.628 138.938 472.38 138.287 472.38 137.496C472.38 136.782 472.574 136.162 472.962 135.634C473.35 135.107 473.892 134.704 474.591 134.424C475.289 134.13 476.095 133.982 477.01 133.982C477.693 133.982 478.337 134.068 478.942 134.238C479.547 134.409 480.105 134.665 480.617 135.006C480.819 135.115 480.95 135.262 481.012 135.448C481.075 135.619 481.082 135.789 481.036 135.96C481.005 136.131 480.927 136.286 480.803 136.425C480.679 136.549 480.524 136.627 480.338 136.658C480.167 136.674 479.973 136.627 479.756 136.518C479.291 136.224 478.825 136.014 478.36 135.89C477.91 135.766 477.46 135.704 477.01 135.704C476.188 135.704 475.568 135.859 475.149 136.169C474.746 136.464 474.544 136.867 474.544 137.379C474.544 137.767 474.668 138.085 474.916 138.333C475.164 138.582 475.552 138.76 476.08 138.868L478.29 139.311C479.298 139.512 480.058 139.853 480.57 140.334C481.098 140.815 481.361 141.467 481.361 142.289C481.361 143.359 480.935 144.205 480.082 144.825C479.229 145.446 478.096 145.756 476.685 145.756ZM494.439 145.756C493.446 145.756 492.57 145.523 491.81 145.058C491.065 144.577 490.484 143.894 490.065 143.01C489.646 142.11 489.437 141.063 489.437 139.869C489.437 138.644 489.646 137.596 490.065 136.728C490.484 135.859 491.065 135.184 491.81 134.704C492.57 134.223 493.446 133.982 494.439 133.982C495.432 133.982 496.285 134.23 496.999 134.727C497.728 135.208 498.216 135.859 498.465 136.681H498.209V130.166C498.209 129.778 498.309 129.484 498.511 129.282C498.713 129.08 499 128.98 499.372 128.98C499.744 128.98 500.031 129.08 500.233 129.282C500.45 129.484 500.559 129.778 500.559 130.166V144.523C500.559 144.895 500.458 145.19 500.256 145.407C500.054 145.608 499.768 145.709 499.395 145.709C499.023 145.709 498.736 145.608 498.534 145.407C498.333 145.19 498.232 144.895 498.232 144.523V142.475L498.488 142.987C498.24 143.825 497.751 144.499 497.022 145.011C496.308 145.508 495.447 145.756 494.439 145.756ZM495.044 143.941C495.68 143.941 496.239 143.786 496.719 143.476C497.2 143.165 497.573 142.708 497.836 142.103C498.115 141.498 498.255 140.753 498.255 139.869C498.255 138.535 497.96 137.527 497.371 136.844C496.781 136.162 496.006 135.82 495.044 135.82C494.393 135.82 493.826 135.975 493.346 136.286C492.865 136.58 492.485 137.03 492.205 137.635C491.942 138.24 491.81 138.985 491.81 139.869C491.81 141.188 492.105 142.196 492.694 142.894C493.284 143.592 494.067 143.941 495.044 143.941ZM509.187 145.756C507.946 145.756 506.876 145.523 505.976 145.058C505.092 144.577 504.401 143.902 503.905 143.033C503.424 142.149 503.184 141.102 503.184 139.892C503.184 138.713 503.424 137.682 503.905 136.798C504.386 135.913 505.045 135.223 505.883 134.727C506.72 134.23 507.674 133.982 508.745 133.982C509.536 133.982 510.242 134.114 510.862 134.378C511.483 134.626 512.01 134.998 512.444 135.495C512.894 135.975 513.228 136.565 513.445 137.263C513.678 137.961 513.794 138.744 513.794 139.613C513.794 139.877 513.716 140.078 513.561 140.218C513.406 140.342 513.173 140.404 512.863 140.404H505.045V138.962H512.212L511.816 139.287C511.816 138.512 511.7 137.852 511.467 137.31C511.25 136.767 510.916 136.356 510.467 136.076C510.032 135.782 509.489 135.634 508.838 135.634C508.109 135.634 507.488 135.805 506.976 136.146C506.48 136.487 506.1 136.961 505.836 137.565C505.573 138.17 505.441 138.876 505.441 139.683V139.822C505.441 141.188 505.759 142.219 506.395 142.917C507.046 143.6 507.985 143.941 509.21 143.941C509.675 143.941 510.164 143.879 510.676 143.755C511.203 143.631 511.7 143.421 512.165 143.127C512.429 142.971 512.662 142.902 512.863 142.917C513.08 142.933 513.251 143.002 513.375 143.127C513.515 143.251 513.6 143.406 513.631 143.592C513.662 143.778 513.631 143.972 513.538 144.174C513.445 144.36 513.282 144.53 513.049 144.685C512.522 145.042 511.909 145.314 511.211 145.5C510.513 145.67 509.838 145.756 509.187 145.756ZM526.47 145.756C525.787 145.756 525.082 145.678 524.352 145.523C523.639 145.368 522.98 145.104 522.375 144.732C522.173 144.592 522.033 144.437 521.956 144.267C521.878 144.096 521.847 143.925 521.863 143.755C521.894 143.569 521.964 143.413 522.072 143.289C522.196 143.15 522.344 143.064 522.514 143.033C522.7 143.002 522.894 143.041 523.096 143.15C523.701 143.491 524.283 143.731 524.841 143.871C525.4 143.995 525.95 144.057 526.493 144.057C527.315 144.057 527.936 143.91 528.355 143.615C528.773 143.32 528.983 142.925 528.983 142.428C528.983 142.025 528.843 141.715 528.564 141.498C528.285 141.265 527.866 141.087 527.308 140.963L525.097 140.521C524.135 140.319 523.406 139.962 522.91 139.45C522.413 138.938 522.165 138.287 522.165 137.496C522.165 136.782 522.359 136.162 522.747 135.634C523.135 135.107 523.678 134.704 524.376 134.424C525.074 134.13 525.88 133.982 526.796 133.982C527.478 133.982 528.122 134.068 528.727 134.238C529.332 134.409 529.89 134.665 530.402 135.006C530.604 135.115 530.736 135.262 530.798 135.448C530.86 135.619 530.868 135.789 530.821 135.96C530.79 136.131 530.712 136.286 530.588 136.425C530.464 136.549 530.309 136.627 530.123 136.658C529.952 136.674 529.758 136.627 529.541 136.518C529.076 136.224 528.611 136.014 528.145 135.89C527.695 135.766 527.245 135.704 526.796 135.704C525.973 135.704 525.353 135.859 524.934 136.169C524.531 136.464 524.329 136.867 524.329 137.379C524.329 137.767 524.453 138.085 524.702 138.333C524.95 138.582 525.337 138.76 525.865 138.868L528.075 139.311C529.084 139.512 529.844 139.853 530.356 140.334C530.883 140.815 531.147 141.467 531.147 142.289C531.147 143.359 530.72 144.205 529.867 144.825C529.014 145.446 527.881 145.756 526.47 145.756ZM539.09 145.756C537.849 145.756 536.779 145.523 535.879 145.058C534.995 144.577 534.304 143.902 533.808 143.033C533.327 142.149 533.087 141.102 533.087 139.892C533.087 138.713 533.327 137.682 533.808 136.798C534.289 135.913 534.948 135.223 535.786 134.727C536.623 134.23 537.577 133.982 538.648 133.982C539.439 133.982 540.145 134.114 540.765 134.378C541.386 134.626 541.913 134.998 542.347 135.495C542.797 135.975 543.131 136.565 543.348 137.263C543.581 137.961 543.697 138.744 543.697 139.613C543.697 139.877 543.619 140.078 543.464 140.218C543.309 140.342 543.076 140.404 542.766 140.404H534.948V138.962H542.115L541.719 139.287C541.719 138.512 541.603 137.852 541.37 137.31C541.153 136.767 540.819 136.356 540.37 136.076C539.935 135.782 539.392 135.634 538.741 135.634C538.012 135.634 537.391 135.805 536.879 136.146C536.383 136.487 536.003 136.961 535.739 137.565C535.476 138.17 535.344 138.876 535.344 139.683V139.822C535.344 141.188 535.662 142.219 536.298 142.917C536.949 143.6 537.888 143.941 539.113 143.941C539.578 143.941 540.067 143.879 540.579 143.755C541.106 143.631 541.603 143.421 542.068 143.127C542.332 142.971 542.565 142.902 542.766 142.917C542.983 142.933 543.154 143.002 543.278 143.127C543.418 143.251 543.503 143.406 543.534 143.592C543.565 143.778 543.534 143.972 543.441 144.174C543.348 144.36 543.185 144.53 542.952 144.685C542.425 145.042 541.812 145.314 541.114 145.5C540.416 145.67 539.741 145.756 539.09 145.756ZM551.401 149.944C550.564 149.944 549.749 149.859 548.958 149.688C548.182 149.517 547.477 149.238 546.841 148.85C546.608 148.726 546.453 148.571 546.375 148.385C546.298 148.214 546.274 148.036 546.305 147.85C546.352 147.664 546.437 147.501 546.561 147.361C546.686 147.222 546.833 147.129 547.004 147.082C547.19 147.036 547.384 147.067 547.585 147.175C548.268 147.547 548.911 147.796 549.516 147.92C550.137 148.059 550.711 148.129 551.238 148.129C552.324 148.129 553.138 147.85 553.681 147.291C554.224 146.749 554.496 145.942 554.496 144.872V142.498H554.705C554.473 143.351 553.984 144.026 553.239 144.523C552.495 145.019 551.634 145.267 550.657 145.267C549.633 145.267 548.741 145.034 547.981 144.569C547.221 144.088 546.631 143.429 546.212 142.591C545.794 141.738 545.584 140.745 545.584 139.613C545.584 138.76 545.7 137.992 545.933 137.31C546.181 136.627 546.523 136.038 546.957 135.541C547.407 135.045 547.942 134.665 548.562 134.401C549.198 134.122 549.896 133.982 550.657 133.982C551.649 133.982 552.51 134.23 553.239 134.727C553.984 135.223 554.465 135.898 554.682 136.751L554.449 137.147V135.215C554.449 134.828 554.55 134.533 554.752 134.331C554.969 134.13 555.256 134.029 555.613 134.029C555.985 134.029 556.272 134.13 556.474 134.331C556.675 134.533 556.776 134.828 556.776 135.215V144.592C556.776 146.361 556.318 147.695 555.403 148.594C554.488 149.494 553.154 149.944 551.401 149.944ZM551.215 143.429C551.898 143.429 552.479 143.274 552.96 142.964C553.441 142.653 553.813 142.211 554.077 141.637C554.341 141.063 554.473 140.389 554.473 139.613C554.473 138.45 554.178 137.527 553.588 136.844C553.014 136.162 552.223 135.82 551.215 135.82C550.548 135.82 549.974 135.975 549.493 136.286C549.012 136.596 548.632 137.038 548.353 137.612C548.089 138.17 547.957 138.837 547.957 139.613C547.957 140.792 548.252 141.723 548.842 142.405C549.431 143.088 550.222 143.429 551.215 143.429ZM564.123 145.756C563.208 145.756 562.44 145.585 561.819 145.244C561.214 144.903 560.757 144.399 560.447 143.731C560.152 143.049 560.004 142.196 560.004 141.172V135.215C560.004 134.812 560.105 134.517 560.307 134.331C560.509 134.13 560.796 134.029 561.168 134.029C561.54 134.029 561.827 134.13 562.029 134.331C562.246 134.517 562.355 134.812 562.355 135.215V141.195C562.355 142.11 562.541 142.785 562.913 143.22C563.285 143.654 563.875 143.871 564.681 143.871C565.566 143.871 566.279 143.576 566.822 142.987C567.38 142.382 567.66 141.591 567.66 140.614V135.215C567.66 134.812 567.76 134.517 567.962 134.331C568.164 134.13 568.458 134.029 568.846 134.029C569.219 134.029 569.506 134.13 569.707 134.331C569.909 134.517 570.01 134.812 570.01 135.215V144.523C570.01 145.314 569.63 145.709 568.87 145.709C568.513 145.709 568.234 145.608 568.032 145.407C567.83 145.19 567.729 144.895 567.729 144.523V142.545L568.032 143.057C567.722 143.925 567.225 144.592 566.543 145.058C565.86 145.523 565.054 145.756 564.123 145.756ZM574.508 145.709C574.12 145.709 573.826 145.608 573.624 145.407C573.422 145.19 573.322 144.895 573.322 144.523V135.215C573.322 134.828 573.422 134.533 573.624 134.331C573.826 134.13 574.105 134.029 574.462 134.029C574.834 134.029 575.113 134.13 575.299 134.331C575.501 134.533 575.602 134.828 575.602 135.215V136.914H575.369C575.617 135.983 576.075 135.277 576.742 134.797C577.409 134.316 578.262 134.036 579.301 133.959C579.581 133.943 579.798 134.013 579.953 134.168C580.124 134.323 580.217 134.564 580.232 134.89C580.263 135.215 580.193 135.479 580.023 135.681C579.852 135.867 579.588 135.975 579.232 136.007L578.79 136.053C577.781 136.146 577.013 136.464 576.486 137.007C575.959 137.55 575.695 138.295 575.695 139.241V144.523C575.695 144.895 575.594 145.19 575.392 145.407C575.206 145.608 574.912 145.709 574.508 145.709ZM583.165 145.686C582.793 145.686 582.506 145.577 582.304 145.36C582.102 145.128 582.002 144.81 582.002 144.406V135.332C582.002 134.928 582.102 134.618 582.304 134.401C582.506 134.184 582.793 134.075 583.165 134.075C583.537 134.075 583.824 134.184 584.026 134.401C584.243 134.618 584.352 134.928 584.352 135.332V144.406C584.352 144.81 584.251 145.128 584.049 145.36C583.848 145.577 583.553 145.686 583.165 145.686ZM583.165 131.655C582.7 131.655 582.335 131.539 582.071 131.306C581.823 131.074 581.699 130.748 581.699 130.329C581.699 129.895 581.823 129.569 582.071 129.352C582.335 129.119 582.7 129.003 583.165 129.003C583.63 129.003 583.987 129.119 584.235 129.352C584.499 129.569 584.631 129.895 584.631 130.329C584.631 130.748 584.499 131.074 584.235 131.306C583.987 131.539 583.63 131.655 583.165 131.655ZM591.987 145.756C590.995 145.756 590.118 145.523 589.358 145.058C588.614 144.577 588.032 143.894 587.613 143.01C587.194 142.11 586.985 141.063 586.985 139.869C586.985 138.644 587.194 137.596 587.613 136.728C588.032 135.859 588.614 135.184 589.358 134.704C590.118 134.223 590.995 133.982 591.987 133.982C592.98 133.982 593.833 134.23 594.547 134.727C595.276 135.208 595.765 135.859 596.013 136.681H595.757V130.166C595.757 129.778 595.858 129.484 596.059 129.282C596.261 129.08 596.548 128.98 596.92 128.98C597.292 128.98 597.579 129.08 597.781 129.282C597.998 129.484 598.107 129.778 598.107 130.166V144.523C598.107 144.895 598.006 145.19 597.804 145.407C597.603 145.608 597.316 145.709 596.943 145.709C596.571 145.709 596.284 145.608 596.083 145.407C595.881 145.19 595.78 144.895 595.78 144.523V142.475L596.036 142.987C595.788 143.825 595.299 144.499 594.57 145.011C593.857 145.508 592.996 145.756 591.987 145.756ZM592.592 143.941C593.228 143.941 593.787 143.786 594.268 143.476C594.749 143.165 595.121 142.708 595.384 142.103C595.664 141.498 595.803 140.753 595.803 139.869C595.803 138.535 595.509 137.527 594.919 136.844C594.33 136.162 593.554 135.82 592.592 135.82C591.941 135.82 591.375 135.975 590.894 136.286C590.413 136.58 590.033 137.03 589.754 137.635C589.49 138.24 589.358 138.985 589.358 139.869C589.358 141.188 589.653 142.196 590.242 142.894C590.832 143.592 591.615 143.941 592.592 143.941ZM605.037 145.756C604.245 145.756 603.532 145.601 602.896 145.29C602.275 144.98 601.787 144.561 601.43 144.034C601.073 143.507 600.895 142.909 600.895 142.242C600.895 141.405 601.104 140.745 601.523 140.265C601.957 139.768 602.663 139.419 603.64 139.217C604.633 139 605.967 138.892 607.643 138.892H608.736V140.334H607.666C606.549 140.334 605.665 140.389 605.013 140.497C604.362 140.606 603.896 140.792 603.617 141.056C603.353 141.304 603.222 141.653 603.222 142.103C603.222 142.692 603.423 143.173 603.827 143.545C604.23 143.902 604.788 144.081 605.502 144.081C606.076 144.081 606.58 143.949 607.014 143.685C607.449 143.406 607.79 143.033 608.038 142.568C608.302 142.103 608.434 141.568 608.434 140.963V138.287C608.434 137.403 608.248 136.767 607.875 136.379C607.503 135.991 606.89 135.797 606.037 135.797C605.541 135.797 605.021 135.859 604.478 135.983C603.951 136.107 603.4 136.317 602.826 136.611C602.562 136.736 602.337 136.774 602.151 136.728C601.965 136.681 601.818 136.58 601.709 136.425C601.601 136.255 601.539 136.076 601.523 135.89C601.523 135.689 601.57 135.495 601.663 135.308C601.771 135.122 601.95 134.983 602.198 134.89C602.88 134.564 603.555 134.331 604.222 134.192C604.889 134.052 605.517 133.982 606.107 133.982C607.146 133.982 607.999 134.145 608.666 134.471C609.349 134.797 609.853 135.293 610.179 135.96C610.504 136.627 610.667 137.488 610.667 138.543V144.523C610.667 144.895 610.574 145.19 610.388 145.407C610.202 145.608 609.931 145.709 609.574 145.709C609.233 145.709 608.961 145.608 608.759 145.407C608.558 145.19 608.457 144.895 608.457 144.523V143.01H608.666C608.542 143.584 608.31 144.081 607.968 144.499C607.643 144.903 607.231 145.213 606.735 145.43C606.239 145.647 605.673 145.756 605.037 145.756ZM618.232 145.756C617.239 145.756 616.363 145.523 615.603 145.058C614.858 144.577 614.276 143.894 613.858 143.01C613.439 142.11 613.229 141.063 613.229 139.869C613.229 138.644 613.439 137.596 613.858 136.728C614.276 135.859 614.858 135.184 615.603 134.704C616.363 134.223 617.239 133.982 618.232 133.982C619.225 133.982 620.078 134.23 620.791 134.727C621.521 135.208 622.009 135.859 622.257 136.681H622.001V130.166C622.001 129.778 622.102 129.484 622.304 129.282C622.506 129.08 622.793 128.98 623.165 128.98C623.537 128.98 623.824 129.08 624.026 129.282C624.243 129.484 624.351 129.778 624.351 130.166V144.523C624.351 144.895 624.251 145.19 624.049 145.407C623.847 145.608 623.56 145.709 623.188 145.709C622.816 145.709 622.529 145.608 622.327 145.407C622.126 145.19 622.025 144.895 622.025 144.523V142.475L622.281 142.987C622.032 143.825 621.544 144.499 620.815 145.011C620.101 145.508 619.24 145.756 618.232 145.756ZM618.837 143.941C619.473 143.941 620.031 143.786 620.512 143.476C620.993 143.165 621.365 142.708 621.629 142.103C621.908 141.498 622.048 140.753 622.048 139.869C622.048 138.535 621.753 137.527 621.164 136.844C620.574 136.162 619.799 135.82 618.837 135.82C618.185 135.82 617.619 135.975 617.138 136.286C616.658 136.58 616.277 137.03 615.998 137.635C615.735 138.24 615.603 138.985 615.603 139.869C615.603 141.188 615.897 142.196 616.487 142.894C617.076 143.592 617.86 143.941 618.837 143.941Z" fill="#101E37"/>
<rect x="149.415" y="163.271" width="362.98" height="16.2876" rx="8.14379" fill="#D1D8E0"/>
<rect x="149.415" y="186.011" width="312.954" height="16.2876" rx="8.14379" fill="#D1D8E0"/>
<rect x="149.415" y="208.751" width="362.98" height="16.2876" rx="8.14379" fill="#D1D8E0"/>
<rect x="149.415" y="236.763" width="58.064" height="27.9827" rx="5.59653" fill="#336ACC"/>
<rect x="217.486" y="237.462" width="56.6649" height="26.5835" rx="4.89697" stroke="#336ACC" stroke-width="1.39913"/>
</g>
<rect x="84.9431" y="-13.7464" width="670.086" height="303.335" stroke="#B8C1CC" stroke-width="2.11384"/>
</g>
<rect x="1" y="1.77051" width="726" height="283" rx="7" stroke="#E6EBF0" stroke-width="2"/>
<defs>
<clipPath id="clip0_1290_9834">
<rect y="0.770508" width="728" height="285" rx="8" fill="white"/>
</clipPath>
<clipPath id="clip1_1290_9834">
<rect x="86" y="-12.6895" width="667.972" height="301.222" fill="white"/>
</clipPath>
</defs>
</svg>
