<svg width="728" height="274" viewBox="0 0 728 274" fill="none" xmlns="http://www.w3.org/2000/svg">
<g clip-path="url(#clip0_5283_939)">
<rect width="728" height="274" rx="8" fill="#F3F6F9"/>
<g clip-path="url(#clip1_5283_939)">
<rect x="108" y="24" width="511.349" height="316.578" rx="5.5602" fill="white"/>
<rect width="514.666" height="30.1415" transform="translate(108 24)" fill="white"/>
<line x1="108" y1="53.2465" x2="623" y2="53.2465" stroke="#FFCC00" stroke-width="1.50707"/>
<g clip-path="url(#clip2_5283_939)">
<path d="M160.455 43.8052L154.674 32.6345C154.175 31.6429 153.153 30.9642 151.967 30.9642H151.964C150.78 30.9642 149.757 31.6429 149.258 32.6345L145.189 40.4974C144.735 39.6887 144.01 39.0543 143.136 38.7114C144.112 38.0055 144.747 36.8553 144.747 35.5579C144.747 34.0533 143.893 32.7517 142.644 32.1058C141.544 31.5271 140.288 31.1999 138.956 31.1999H132.869C131.618 31.1999 130.606 32.2116 130.606 33.4604V44.7883C130.606 46.0371 131.618 47.0487 132.869 47.0487H139.452C140.721 47.0487 141.928 46.7858 143.024 46.3171L143.441 46.1156C143.464 46.1042 143.487 46.0928 143.51 46.0814C143.906 46.7372 144.622 47.1787 145.446 47.1787C146.362 47.1787 147.151 46.6357 147.506 45.8513C147.684 45.4369 148.084 45.144 148.555 45.1212H155.375C155.848 45.144 156.247 45.4369 156.424 45.8513C156.778 46.6357 157.568 47.1787 158.484 47.1787C159.735 47.1787 160.746 46.1642 160.746 44.9197C160.746 44.5139 160.642 44.1338 160.453 43.8066" fill="#153244"/>
</g>
<rect width="511.259" height="20.9594" transform="translate(108 54.1415)" fill="#002733"/>
<g clip-path="url(#clip3_5283_939)">
<path d="M162.772 60.5521C161.672 60.3462 160.665 60.8328 160.107 61.6449C160.111 61.6412 160.111 61.6375 160.115 61.6337C159.965 61.6262 159.808 61.6262 159.651 61.6262C157.996 61.6262 156.656 61.8134 156.656 63.1233V66.8661C156.656 67.1954 156.802 67.4911 157.031 67.697V68.176C157.031 68.4867 157.281 68.7375 157.592 68.7375C157.903 68.7375 158.153 68.4867 158.153 68.176V67.9889H161.148V68.176C161.148 68.4829 161.398 68.7375 161.709 68.7375C162.016 68.7375 162.27 68.4867 162.27 68.176V67.697C162.499 67.4911 162.645 67.1954 162.645 66.8661V65.7133C164.037 65.5112 165.078 64.2237 164.86 62.7303C164.703 61.6449 163.85 60.7504 162.772 60.5521ZM157.966 67.2404C157.656 67.2404 157.405 66.9896 157.405 66.6789C157.405 66.3683 157.656 66.1175 157.966 66.1175C158.277 66.1175 158.528 66.3683 158.528 66.6789C158.528 66.9896 158.277 67.2404 157.966 67.2404ZM157.405 64.9947V63.1233H159.651C159.651 63.8569 159.954 64.5194 160.44 64.9947H157.405ZM161.335 67.2404C161.024 67.2404 160.773 66.9896 160.773 66.6789C160.773 66.3683 161.024 66.1175 161.335 66.1175C161.645 66.1175 161.896 66.3683 161.896 66.6789C161.896 66.9896 161.645 67.2404 161.335 67.2404ZM162.27 64.9947C161.237 64.9947 160.399 64.1563 160.399 63.1233C160.399 62.0903 161.237 61.252 162.27 61.252C163.303 61.252 164.142 62.0903 164.142 63.1233C164.142 64.1563 163.303 64.9947 162.27 64.9947ZM162.177 61.6262C162.023 61.6262 161.896 61.7535 161.896 61.9069V63.2843C161.896 63.4153 161.967 63.5388 162.08 63.6061L163.023 64.1713C163.15 64.2462 163.315 64.205 163.39 64.0815C163.468 63.9542 163.427 63.7858 163.296 63.7109L162.458 63.2169V61.9069C162.458 61.7535 162.33 61.6262 162.177 61.6262Z" fill="white"/>
</g>
<path d="M172.719 66.6212H170.34V62.3488H172.719V62.7871H170.837V64.1694H172.61V64.6019H170.837V66.1828H172.719V66.6212ZM175.664 65.7445C175.664 65.949 175.613 66.1214 175.509 66.2617C175.408 66.4 175.262 66.5043 175.071 66.5744C174.882 66.6445 174.656 66.6796 174.393 66.6796C174.169 66.6796 173.975 66.6621 173.811 66.627C173.648 66.5919 173.505 66.5423 173.382 66.478V66.0309C173.512 66.0951 173.668 66.1536 173.849 66.2062C174.031 66.2588 174.216 66.2851 174.405 66.2851C174.681 66.2851 174.882 66.2403 175.007 66.1507C175.131 66.0611 175.194 65.9393 175.194 65.7854C175.194 65.6977 175.168 65.6208 175.118 65.5545C175.069 65.4863 174.986 65.4211 174.869 65.3587C174.752 65.2944 174.591 65.2243 174.384 65.1483C174.18 65.0704 174.002 64.9935 173.852 64.9175C173.704 64.8395 173.589 64.7451 173.508 64.634C173.428 64.523 173.388 64.3788 173.388 64.2015C173.388 63.9307 173.497 63.7232 173.715 63.5791C173.935 63.433 174.224 63.3599 174.58 63.3599C174.773 63.3599 174.953 63.3794 175.121 63.4183C175.29 63.4554 175.448 63.506 175.594 63.5703L175.43 63.959C175.298 63.9025 175.157 63.8547 175.007 63.8158C174.857 63.7768 174.704 63.7573 174.548 63.7573C174.324 63.7573 174.151 63.7943 174.031 63.8684C173.912 63.9424 173.852 64.0437 173.852 64.1723C173.852 64.2717 173.88 64.3535 173.934 64.4178C173.991 64.4821 174.08 64.5424 174.203 64.5989C174.326 64.6554 174.487 64.7217 174.688 64.7977C174.889 64.8717 175.062 64.9486 175.208 65.0285C175.354 65.1064 175.466 65.2019 175.544 65.3149C175.624 65.4259 175.664 65.5691 175.664 65.7445ZM177.479 66.2822C177.559 66.2822 177.641 66.2754 177.724 66.2617C177.808 66.2481 177.876 66.2315 177.929 66.212V66.589C177.872 66.6143 177.794 66.6358 177.692 66.6533C177.593 66.6708 177.495 66.6796 177.4 66.6796C177.231 66.6796 177.077 66.6504 176.938 66.5919C176.8 66.5315 176.689 66.4302 176.605 66.288C176.523 66.1458 176.482 65.949 176.482 65.6977V63.7982H176.027V63.5615L176.485 63.3716L176.678 62.6761H176.97V63.4183H177.909V63.7982H176.97V65.6831C176.97 65.8838 177.016 66.0338 177.108 66.1331C177.201 66.2325 177.325 66.2822 177.479 66.2822ZM179.776 63.3657C180.158 63.3657 180.441 63.4515 180.626 63.6229C180.811 63.7943 180.904 64.0681 180.904 64.4441V66.6212H180.55L180.457 66.1477H180.433C180.344 66.2646 180.25 66.363 180.153 66.4429C180.055 66.5208 179.942 66.5802 179.814 66.6212C179.687 66.6601 179.531 66.6796 179.346 66.6796C179.151 66.6796 178.978 66.6455 178.826 66.5773C178.676 66.5091 178.557 66.4059 178.47 66.2676C178.384 66.1292 178.341 65.9539 178.341 65.7416C178.341 65.4221 178.468 65.1766 178.721 65.0051C178.974 64.8337 179.36 64.7402 179.878 64.7246L180.43 64.7012V64.5054C180.43 64.2288 180.371 64.0349 180.252 63.9239C180.133 63.8129 179.966 63.7573 179.75 63.7573C179.582 63.7573 179.422 63.7817 179.27 63.8304C179.118 63.8791 178.974 63.9366 178.838 64.0028L178.689 63.6346C178.833 63.5606 178.999 63.4972 179.186 63.4446C179.373 63.392 179.569 63.3657 179.776 63.3657ZM180.425 65.0431L179.937 65.0636C179.537 65.0792 179.256 65.1444 179.092 65.2594C178.928 65.3743 178.847 65.537 178.847 65.7474C178.847 65.9305 178.902 66.0659 179.013 66.1536C179.124 66.2413 179.271 66.2851 179.454 66.2851C179.739 66.2851 179.972 66.2062 180.153 66.0484C180.334 65.8906 180.425 65.6539 180.425 65.3383V65.0431ZM184.598 66.6796C184.192 66.6796 183.871 66.5413 183.633 66.2646C183.397 65.988 183.28 65.5769 183.28 65.0314C183.28 64.4801 183.4 64.0642 183.642 63.7836C183.884 63.5011 184.205 63.3599 184.606 63.3599C184.776 63.3599 184.924 63.3823 185.051 63.4271C185.177 63.4719 185.286 63.5323 185.378 63.6083C185.469 63.6823 185.546 63.7671 185.609 63.8625H185.644C185.636 63.8021 185.628 63.7193 185.62 63.6141C185.613 63.5089 185.609 63.4232 185.609 63.357V62.0741H186.094V66.6212H185.702L185.629 66.1653H185.609C185.548 66.2607 185.471 66.3474 185.378 66.4254C185.286 66.5033 185.176 66.5656 185.048 66.6124C184.921 66.6572 184.771 66.6796 184.598 66.6796ZM184.674 66.2763C185.016 66.2763 185.259 66.1789 185.401 65.9841C185.543 65.7893 185.615 65.5 185.615 65.1162V65.0285C185.615 64.6213 185.546 64.3087 185.41 64.0905C185.276 63.8723 185.03 63.7632 184.674 63.7632C184.375 63.7632 184.152 63.8781 184.004 64.108C183.856 64.3359 183.782 64.6476 183.782 65.0431C183.782 65.4367 183.855 65.7406 184.001 65.9549C184.149 66.1692 184.374 66.2763 184.674 66.2763ZM188.356 63.3599C188.628 63.3599 188.862 63.4203 189.057 63.5411C189.252 63.6619 189.401 63.8314 189.504 64.0496C189.607 64.2658 189.659 64.5191 189.659 64.8093V65.1103H187.447C187.453 65.4863 187.546 65.7727 187.727 65.9695C187.909 66.1663 188.164 66.2646 188.493 66.2646C188.696 66.2646 188.875 66.2461 189.031 66.2091C189.187 66.1721 189.348 66.1176 189.516 66.0455V66.4721C189.354 66.5442 189.193 66.5968 189.034 66.6299C188.876 66.663 188.689 66.6796 188.473 66.6796C188.165 66.6796 187.896 66.6173 187.666 66.4926C187.438 66.3659 187.261 66.1809 187.134 65.9373C187.007 65.6938 186.944 65.3957 186.944 65.0431C186.944 64.6983 187.002 64.4002 187.117 64.1489C187.233 63.8957 187.397 63.7008 187.608 63.5645C187.82 63.4281 188.069 63.3599 188.356 63.3599ZM188.35 63.7573C188.091 63.7573 187.884 63.8421 187.73 64.0116C187.576 64.1811 187.485 64.4178 187.456 64.7217H189.15C189.149 64.5308 189.118 64.3632 189.06 64.219C189.003 64.0729 188.917 63.9599 188.8 63.8801C188.683 63.7982 188.533 63.7573 188.35 63.7573ZM192.555 65.7445C192.555 65.949 192.503 66.1214 192.4 66.2617C192.299 66.4 192.153 66.5043 191.962 66.5744C191.773 66.6445 191.547 66.6796 191.284 66.6796C191.06 66.6796 190.866 66.6621 190.702 66.627C190.539 66.5919 190.395 66.5423 190.273 66.478V66.0309C190.403 66.0951 190.559 66.1536 190.74 66.2062C190.921 66.2588 191.106 66.2851 191.295 66.2851C191.572 66.2851 191.773 66.2403 191.897 66.1507C192.022 66.0611 192.084 65.9393 192.084 65.7854C192.084 65.6977 192.059 65.6208 192.008 65.5545C191.96 65.4863 191.877 65.4211 191.76 65.3587C191.643 65.2944 191.481 65.2243 191.275 65.1483C191.07 65.0704 190.893 64.9935 190.743 64.9175C190.595 64.8395 190.48 64.7451 190.398 64.634C190.318 64.523 190.278 64.3788 190.278 64.2015C190.278 63.9307 190.388 63.7232 190.606 63.5791C190.826 63.433 191.114 63.3599 191.471 63.3599C191.664 63.3599 191.844 63.3794 192.011 63.4183C192.181 63.4554 192.339 63.506 192.485 63.5703L192.321 63.959C192.189 63.9025 192.047 63.8547 191.897 63.8158C191.747 63.7768 191.594 63.7573 191.439 63.7573C191.215 63.7573 191.042 63.7943 190.921 63.8684C190.803 63.9424 190.743 64.0437 190.743 64.1723C190.743 64.2717 190.77 64.3535 190.825 64.4178C190.881 64.4821 190.971 64.5424 191.094 64.5989C191.217 64.6554 191.378 64.7217 191.579 64.7977C191.78 64.8717 191.953 64.9486 192.099 65.0285C192.245 65.1064 192.357 65.2019 192.435 65.3149C192.515 65.4259 192.555 65.5691 192.555 65.7445ZM194.618 66.6796C194.33 66.6796 194.075 66.6202 193.855 66.5013C193.635 66.3825 193.464 66.2013 193.341 65.9578C193.218 65.7143 193.157 65.4074 193.157 65.0373C193.157 64.6496 193.221 64.333 193.35 64.0875C193.48 63.8401 193.66 63.657 193.887 63.5382C194.115 63.4193 194.375 63.3599 194.665 63.3599C194.825 63.3599 194.978 63.3765 195.127 63.4096C195.277 63.4408 195.399 63.4807 195.495 63.5294L195.349 63.9356C195.251 63.8966 195.138 63.8616 195.01 63.8304C194.883 63.7992 194.764 63.7836 194.653 63.7836C194.431 63.7836 194.246 63.8314 194.098 63.9268C193.952 64.0223 193.842 64.1626 193.768 64.3476C193.696 64.5327 193.66 64.7606 193.66 65.0314C193.66 65.2905 193.695 65.5117 193.765 65.6948C193.837 65.8779 193.943 66.0182 194.083 66.1156C194.225 66.2111 194.403 66.2588 194.615 66.2588C194.785 66.2588 194.938 66.2413 195.074 66.2062C195.21 66.1692 195.334 66.1263 195.445 66.0776V66.5101C195.338 66.5647 195.218 66.6065 195.086 66.6358C194.955 66.665 194.799 66.6796 194.618 66.6796ZM197.66 63.3599C197.724 63.3599 197.792 63.3638 197.862 63.3716C197.932 63.3774 197.994 63.3862 198.049 63.3979L197.987 63.8479C197.935 63.8343 197.876 63.8236 197.812 63.8158C197.748 63.808 197.687 63.8041 197.631 63.8041C197.502 63.8041 197.381 63.8304 197.266 63.883C197.153 63.9336 197.053 64.0077 196.968 64.1051C196.882 64.2005 196.815 64.3165 196.766 64.4528C196.717 64.5873 196.693 64.7373 196.693 64.9029V66.6212H196.205V63.4183H196.608L196.661 64.0086H196.681C196.747 63.8898 196.827 63.7817 196.921 63.6843C197.014 63.5849 197.122 63.506 197.245 63.4476C197.37 63.3891 197.508 63.3599 197.66 63.3599ZM199.139 63.4183V66.6212H198.654V63.4183H199.139ZM198.902 62.2202C198.982 62.2202 199.05 62.2465 199.107 62.2991C199.165 62.3498 199.194 62.4296 199.194 62.5387C199.194 62.6459 199.165 62.7258 199.107 62.7784C199.05 62.831 198.982 62.8573 198.902 62.8573C198.818 62.8573 198.748 62.831 198.692 62.7784C198.637 62.7258 198.61 62.6459 198.61 62.5387C198.61 62.4296 198.637 62.3498 198.692 62.2991C198.748 62.2465 198.818 62.2202 198.902 62.2202ZM201.672 63.3599C202.072 63.3599 202.39 63.4972 202.628 63.7719C202.866 64.0466 202.984 64.4596 202.984 65.011C202.984 65.3753 202.93 65.6812 202.821 65.9286C202.712 66.176 202.558 66.363 202.359 66.4897C202.162 66.6163 201.93 66.6796 201.661 66.6796C201.491 66.6796 201.342 66.6572 201.214 66.6124C201.085 66.5676 200.975 66.5072 200.883 66.4312C200.792 66.3552 200.716 66.2724 200.655 66.1828H200.62C200.626 66.2588 200.633 66.3504 200.641 66.4575C200.651 66.5647 200.655 66.6582 200.655 66.738V68.0531H200.167V63.4183H200.568L200.632 63.8918H200.655C200.718 63.7943 200.794 63.7057 200.883 63.6258C200.973 63.544 201.082 63.4797 201.211 63.433C201.341 63.3843 201.495 63.3599 201.672 63.3599ZM201.588 63.769C201.366 63.769 201.186 63.8119 201.05 63.8976C200.916 63.9833 200.817 64.1119 200.755 64.2833C200.692 64.4528 200.659 64.6662 200.655 64.9233V65.0168C200.655 65.2876 200.685 65.5165 200.743 65.7036C200.804 65.8906 200.902 66.0328 201.038 66.1302C201.177 66.2276 201.362 66.2763 201.593 66.2763C201.792 66.2763 201.958 66.2228 202.09 66.1156C202.223 66.0085 202.321 65.8594 202.385 65.6685C202.452 65.4756 202.485 65.2545 202.485 65.0051C202.485 64.6272 202.411 64.3272 202.263 64.1051C202.117 63.881 201.892 63.769 201.588 63.769ZM205.115 66.6796C204.826 66.6796 204.572 66.6202 204.352 66.5013C204.132 66.3825 203.961 66.2013 203.838 65.9578C203.715 65.7143 203.654 65.4074 203.654 65.0373C203.654 64.6496 203.718 64.333 203.847 64.0875C203.977 63.8401 204.156 63.657 204.384 63.5382C204.612 63.4193 204.871 63.3599 205.162 63.3599C205.321 63.3599 205.475 63.3765 205.623 63.4096C205.773 63.4408 205.896 63.4807 205.992 63.5294L205.845 63.9356C205.748 63.8966 205.635 63.8616 205.506 63.8304C205.38 63.7992 205.261 63.7836 205.15 63.7836C204.928 63.7836 204.743 63.8314 204.595 63.9268C204.449 64.0223 204.338 64.1626 204.264 64.3476C204.192 64.5327 204.156 64.7606 204.156 65.0314C204.156 65.2905 204.191 65.5117 204.262 65.6948C204.334 65.8779 204.44 66.0182 204.58 66.1156C204.722 66.2111 204.9 66.2588 205.112 66.2588C205.281 66.2588 205.434 66.2413 205.571 66.2062C205.707 66.1692 205.831 66.1263 205.942 66.0776V66.5101C205.835 66.5647 205.715 66.6065 205.582 66.6358C205.452 66.665 205.296 66.6796 205.115 66.6796ZM207.187 63.4183V66.6212H206.702V63.4183H207.187ZM206.95 62.2202C207.03 62.2202 207.098 62.2465 207.155 62.2991C207.213 62.3498 207.242 62.4296 207.242 62.5387C207.242 62.6459 207.213 62.7258 207.155 62.7784C207.098 62.831 207.03 62.8573 206.95 62.8573C206.866 62.8573 206.796 62.831 206.74 62.7784C206.685 62.7258 206.658 62.6459 206.658 62.5387C206.658 62.4296 206.685 62.3498 206.74 62.2991C206.796 62.2465 206.866 62.2202 206.95 62.2202ZM210.977 65.0139C210.977 65.2769 210.943 65.5117 210.875 65.7182C210.806 65.9247 210.708 66.099 210.579 66.2413C210.451 66.3835 210.295 66.4926 210.112 66.5686C209.931 66.6426 209.725 66.6796 209.495 66.6796C209.281 66.6796 209.084 66.6426 208.905 66.5686C208.728 66.4926 208.574 66.3835 208.443 66.2413C208.315 66.099 208.214 65.9247 208.142 65.7182C208.072 65.5117 208.037 65.2769 208.037 65.0139C208.037 64.6632 208.097 64.3652 208.215 64.1197C208.334 63.8723 208.504 63.6843 208.724 63.5557C208.946 63.4252 209.21 63.3599 209.516 63.3599C209.808 63.3599 210.063 63.4252 210.281 63.5557C210.502 63.6862 210.672 63.8752 210.793 64.1226C210.916 64.3681 210.977 64.6652 210.977 65.0139ZM208.54 65.0139C208.54 65.2711 208.574 65.4941 208.642 65.6831C208.71 65.8721 208.815 66.0182 208.958 66.1214C209.1 66.2247 209.283 66.2763 209.507 66.2763C209.729 66.2763 209.911 66.2247 210.053 66.1214C210.198 66.0182 210.304 65.8721 210.372 65.6831C210.44 65.4941 210.474 65.2711 210.474 65.0139C210.474 64.7587 210.44 64.5386 210.372 64.3535C210.304 64.1664 210.199 64.0223 210.056 63.921C209.914 63.8197 209.73 63.769 209.504 63.769C209.171 63.769 208.926 63.8791 208.771 64.0992C208.617 64.3194 208.54 64.6243 208.54 65.0139ZM210.354 62.0361V62.0946C210.315 62.1511 210.262 62.2192 210.194 62.2991C210.127 62.377 210.053 62.4598 209.972 62.5475C209.89 62.6332 209.807 62.7151 209.723 62.793C209.641 62.8709 209.565 62.9381 209.495 62.9946H209.171V62.9245C209.233 62.8505 209.301 62.7618 209.375 62.6586C209.45 62.5534 209.522 62.4462 209.592 62.3371C209.662 62.2261 209.72 62.1257 209.767 62.0361H210.354ZM213.332 63.3599C213.712 63.3599 214 63.4534 214.194 63.6404C214.389 63.8255 214.487 64.1236 214.487 64.5347V66.6212H214.007V64.5668C214.007 64.2999 213.946 64.1002 213.823 63.9677C213.702 63.8353 213.516 63.769 213.265 63.769C212.91 63.769 212.661 63.8694 212.517 64.07C212.373 64.2707 212.301 64.5619 212.301 64.9438V66.6212H211.816V63.4183H212.207L212.28 63.8801H212.307C212.375 63.7671 212.461 63.6726 212.567 63.5966C212.672 63.5187 212.79 63.4602 212.92 63.4213C213.051 63.3804 213.188 63.3599 213.332 63.3599ZM218.18 66.6796C217.775 66.6796 217.454 66.5413 217.216 66.2646C216.98 65.988 216.862 65.5769 216.862 65.0314C216.862 64.4801 216.983 64.0642 217.225 63.7836C217.466 63.5011 217.788 63.3599 218.189 63.3599C218.359 63.3599 218.507 63.3823 218.633 63.4271C218.76 63.4719 218.869 63.5323 218.961 63.6083C219.052 63.6823 219.129 63.7671 219.191 63.8625H219.226C219.219 63.8021 219.211 63.7193 219.203 63.6141C219.195 63.5089 219.191 63.4232 219.191 63.357V62.0741H219.676V66.6212H219.285L219.212 66.1653H219.191C219.131 66.2607 219.054 66.3474 218.961 66.4254C218.869 66.5033 218.759 66.5656 218.63 66.6124C218.504 66.6572 218.354 66.6796 218.18 66.6796ZM218.256 66.2763C218.599 66.2763 218.842 66.1789 218.984 65.9841C219.126 65.7893 219.197 65.5 219.197 65.1162V65.0285C219.197 64.6213 219.129 64.3087 218.993 64.0905C218.858 63.8723 218.613 63.7632 218.256 63.7632C217.958 63.7632 217.735 63.8781 217.587 64.108C217.439 64.3359 217.365 64.6476 217.365 65.0431C217.365 65.4367 217.438 65.7406 217.584 65.9549C217.732 66.1692 217.956 66.2763 218.256 66.2763ZM221.938 63.3599C222.211 63.3599 222.445 63.4203 222.64 63.5411C222.834 63.6619 222.984 63.8314 223.087 64.0496C223.19 64.2658 223.242 64.5191 223.242 64.8093V65.1103H221.03C221.035 65.4863 221.129 65.7727 221.31 65.9695C221.491 66.1663 221.746 66.2646 222.076 66.2646C222.278 66.2646 222.458 66.2461 222.613 66.2091C222.769 66.1721 222.931 66.1176 223.098 66.0455V66.4721C222.937 66.5442 222.776 66.5968 222.616 66.6299C222.458 66.663 222.271 66.6796 222.055 66.6796C221.747 66.6796 221.479 66.6173 221.249 66.4926C221.021 66.3659 220.843 66.1809 220.717 65.9373C220.59 65.6938 220.527 65.3957 220.527 65.0431C220.527 64.6983 220.584 64.4002 220.699 64.1489C220.816 63.8957 220.98 63.7008 221.19 63.5645C221.403 63.4281 221.652 63.3599 221.938 63.3599ZM221.932 63.7573C221.673 63.7573 221.467 63.8421 221.313 64.0116C221.159 64.1811 221.067 64.4178 221.038 64.7217H222.733C222.731 64.5308 222.701 64.3632 222.643 64.219C222.586 64.0729 222.499 63.9599 222.383 63.8801C222.266 63.7982 222.116 63.7573 221.932 63.7573ZM226.105 62.0741V63.2109C226.105 63.3414 226.102 63.468 226.094 63.5908C226.088 63.7135 226.083 63.809 226.079 63.8771H226.105C226.193 63.733 226.32 63.6112 226.485 63.5119C226.651 63.4125 226.862 63.3628 227.12 63.3628C227.521 63.3628 227.84 63.5021 228.078 63.7807C228.318 64.0574 228.437 64.4694 228.437 65.0168C228.437 65.3772 228.383 65.6812 228.274 65.9286C228.165 66.176 228.011 66.363 227.812 66.4897C227.613 66.6163 227.379 66.6796 227.108 66.6796C226.855 66.6796 226.646 66.6328 226.482 66.5393C226.321 66.4439 226.196 66.328 226.108 66.1916H226.07L225.971 66.6212H225.62V62.0741H226.105ZM227.041 63.769C226.809 63.769 226.625 63.8148 226.488 63.9064C226.352 63.996 226.254 64.1324 226.193 64.3155C226.135 64.4967 226.105 64.7266 226.105 65.0051V65.0314C226.105 65.4347 226.173 65.7435 226.307 65.9578C226.442 66.1702 226.686 66.2763 227.041 66.2763C227.339 66.2763 227.562 66.1672 227.71 65.949C227.86 65.7308 227.935 65.4191 227.935 65.0139C227.935 64.6009 227.861 64.2902 227.713 64.0817C227.567 63.8732 227.343 63.769 227.041 63.769ZM230.483 63.3657C230.865 63.3657 231.148 63.4515 231.333 63.6229C231.519 63.7943 231.611 64.0681 231.611 64.4441V66.6212H231.257L231.164 66.1477H231.141C231.051 66.2646 230.957 66.363 230.86 66.4429C230.763 66.5208 230.65 66.5802 230.521 66.6212C230.394 66.6601 230.239 66.6796 230.053 66.6796C229.859 66.6796 229.685 66.6455 229.533 66.5773C229.383 66.5091 229.264 66.4059 229.177 66.2676C229.091 66.1292 229.048 65.9539 229.048 65.7416C229.048 65.4221 229.175 65.1766 229.428 65.0051C229.681 64.8337 230.067 64.7402 230.585 64.7246L231.138 64.7012V64.5054C231.138 64.2288 231.078 64.0349 230.959 63.9239C230.841 63.8129 230.673 63.7573 230.457 63.7573C230.289 63.7573 230.129 63.7817 229.977 63.8304C229.826 63.8791 229.681 63.9366 229.545 64.0028L229.396 63.6346C229.54 63.5606 229.706 63.4972 229.893 63.4446C230.08 63.392 230.277 63.3657 230.483 63.3657ZM231.132 65.0431L230.644 65.0636C230.244 65.0792 229.963 65.1444 229.799 65.2594C229.636 65.3743 229.554 65.537 229.554 65.7474C229.554 65.9305 229.609 66.0659 229.72 66.1536C229.831 66.2413 229.978 66.2851 230.162 66.2851C230.446 66.2851 230.679 66.2062 230.86 66.0484C231.041 65.8906 231.132 65.6539 231.132 65.3383V65.0431ZM234.127 63.3599C234.507 63.3599 234.794 63.4534 234.989 63.6404C235.184 63.8255 235.281 64.1236 235.281 64.5347V66.6212H234.802V64.5668C234.802 64.2999 234.741 64.1002 234.618 63.9677C234.497 63.8353 234.311 63.769 234.06 63.769C233.705 63.769 233.456 63.8694 233.312 64.07C233.168 64.2707 233.096 64.5619 233.096 64.9438V66.6212H232.61V63.4183H233.002L233.075 63.8801H233.101C233.17 63.7671 233.256 63.6726 233.361 63.5966C233.467 63.5187 233.585 63.4602 233.715 63.4213C233.846 63.3804 233.983 63.3599 234.127 63.3599ZM237.797 63.3599C238.177 63.3599 238.465 63.4534 238.66 63.6404C238.854 63.8255 238.952 64.1236 238.952 64.5347V66.6212H238.473V64.5668C238.473 64.2999 238.411 64.1002 238.288 63.9677C238.168 63.8353 237.982 63.769 237.73 63.769C237.376 63.769 237.126 63.8694 236.982 64.07C236.838 64.2707 236.766 64.5619 236.766 64.9438V66.6212H236.281V63.4183H236.672L236.745 63.8801H236.772C236.84 63.7671 236.927 63.6726 237.032 63.5966C237.137 63.5187 237.255 63.4602 237.385 63.4213C237.516 63.3804 237.653 63.3599 237.797 63.3599ZM241.184 63.3599C241.457 63.3599 241.691 63.4203 241.886 63.5411C242.081 63.6619 242.23 63.8314 242.333 64.0496C242.436 64.2658 242.488 64.5191 242.488 64.8093V65.1103H240.276C240.281 65.4863 240.375 65.7727 240.556 65.9695C240.737 66.1663 240.993 66.2646 241.322 66.2646C241.524 66.2646 241.704 66.2461 241.859 66.2091C242.015 66.1721 242.177 66.1176 242.345 66.0455V66.4721C242.183 66.5442 242.022 66.5968 241.862 66.6299C241.705 66.663 241.518 66.6796 241.301 66.6796C240.993 66.6796 240.725 66.6173 240.495 66.4926C240.267 66.3659 240.09 66.1809 239.963 65.9373C239.836 65.6938 239.773 65.3957 239.773 65.0431C239.773 64.6983 239.83 64.4002 239.945 64.1489C240.062 63.8957 240.226 63.7008 240.436 63.5645C240.649 63.4281 240.898 63.3599 241.184 63.3599ZM241.179 63.7573C240.919 63.7573 240.713 63.8421 240.559 64.0116C240.405 64.1811 240.314 64.4178 240.284 64.7217H241.979C241.977 64.5308 241.947 64.3632 241.889 64.219C241.832 64.0729 241.745 63.9599 241.629 63.8801C241.512 63.7982 241.362 63.7573 241.179 63.7573ZM244.767 63.3599C244.831 63.3599 244.899 63.3638 244.969 63.3716C245.039 63.3774 245.101 63.3862 245.156 63.3979L245.094 63.8479C245.042 63.8343 244.983 63.8236 244.919 63.8158C244.855 63.808 244.794 63.8041 244.738 63.8041C244.609 63.8041 244.488 63.8304 244.373 63.883C244.26 63.9336 244.16 64.0077 244.075 64.1051C243.989 64.2005 243.922 64.3165 243.873 64.4528C243.824 64.5873 243.8 64.7373 243.8 64.9029V66.6212H243.312V63.4183H243.715L243.768 64.0086H243.788C243.854 63.8898 243.934 63.7817 244.028 63.6843C244.121 63.5849 244.229 63.506 244.352 63.4476C244.477 63.3891 244.615 63.3599 244.767 63.3599ZM249.089 63.2927C249.457 63.2927 249.754 63.4359 249.98 63.7223C250.208 64.0086 250.322 64.4285 250.322 64.9818C250.322 65.3519 250.269 65.6636 250.162 65.9169C250.054 66.1682 249.906 66.3582 249.717 66.4867C249.528 66.6153 249.311 66.6796 249.066 66.6796C248.908 66.6796 248.773 66.6601 248.66 66.6212C248.547 66.5802 248.45 66.5286 248.37 66.4663C248.29 66.402 248.221 66.3338 248.163 66.2617H248.116C248.132 66.3396 248.143 66.4195 248.151 66.5013C248.159 66.5832 248.163 66.663 248.163 66.741V68.0589H247.271V63.3541H247.996L248.122 63.7778H248.163C248.221 63.6901 248.292 63.6093 248.376 63.5352C248.46 63.4612 248.56 63.4028 248.677 63.3599C248.796 63.3151 248.933 63.2927 249.089 63.2927ZM248.803 64.0057C248.647 64.0057 248.523 64.0379 248.432 64.1022C248.34 64.1664 248.273 64.2629 248.23 64.3915C248.189 64.52 248.167 64.6827 248.163 64.8795V64.9759C248.163 65.1863 248.182 65.3646 248.221 65.5107C248.262 65.6568 248.329 65.7679 248.423 65.8438C248.518 65.9198 248.649 65.9578 248.814 65.9578C248.951 65.9578 249.063 65.9198 249.151 65.8438C249.238 65.7679 249.303 65.6568 249.346 65.5107C249.391 65.3626 249.414 65.1824 249.414 64.9701C249.414 64.6506 249.364 64.41 249.264 64.2483C249.165 64.0866 249.011 64.0057 248.803 64.0057ZM254.057 63.3541V66.6212H253.373L253.253 66.2033H253.207C253.136 66.3143 253.049 66.4049 252.944 66.475C252.838 66.5452 252.722 66.5968 252.596 66.6299C252.469 66.663 252.338 66.6796 252.201 66.6796C251.968 66.6796 251.764 66.6387 251.591 66.5569C251.417 66.4731 251.282 66.3435 251.184 66.1682C251.089 65.9929 251.041 65.7649 251.041 65.4844V63.3541H251.933V65.2623C251.933 65.4961 251.974 65.6724 252.058 65.7912C252.142 65.9101 252.275 65.9695 252.459 65.9695C252.64 65.9695 252.782 65.9286 252.885 65.8468C252.988 65.763 253.061 65.6412 253.101 65.4815C253.144 65.3198 253.166 65.123 253.166 64.8912V63.3541H254.057ZM256.339 63.2927C256.641 63.2927 256.901 63.3511 257.12 63.468C257.338 63.583 257.506 63.7505 257.625 63.9707C257.744 64.1908 257.803 64.4596 257.803 64.7772V65.2097H255.696C255.706 65.461 255.781 65.6588 255.921 65.8029C256.064 65.9451 256.26 66.0162 256.512 66.0162C256.72 66.0162 256.911 65.9948 257.084 65.952C257.258 65.9091 257.436 65.8448 257.619 65.7591V66.4487C257.458 66.5286 257.288 66.5871 257.111 66.6241C256.935 66.6611 256.722 66.6796 256.471 66.6796C256.143 66.6796 255.853 66.6192 255.6 66.4984C255.349 66.3776 255.151 66.1935 255.007 65.9461C254.865 65.6987 254.793 65.387 254.793 65.011C254.793 64.6291 254.858 64.3116 254.986 64.0583C255.117 63.8031 255.298 63.6122 255.53 63.4856C255.762 63.357 256.031 63.2927 256.339 63.2927ZM256.345 63.9268C256.172 63.9268 256.028 63.9823 255.913 64.0934C255.8 64.2044 255.734 64.3788 255.717 64.6165H256.968C256.966 64.484 256.941 64.3661 256.895 64.2629C256.85 64.1596 256.782 64.0778 256.69 64.0174C256.6 63.957 256.485 63.9268 256.345 63.9268ZM259.563 66.6796C259.198 66.6796 258.901 66.5374 258.671 66.2529C258.443 65.9666 258.329 65.5467 258.329 64.9935C258.329 64.4343 258.445 64.0116 258.677 63.7252C258.909 63.4369 259.212 63.2927 259.586 63.2927C259.742 63.2927 259.879 63.3141 259.998 63.357C260.117 63.3998 260.219 63.4573 260.305 63.5294C260.392 63.6015 260.467 63.6823 260.527 63.7719H260.556C260.544 63.7096 260.53 63.618 260.512 63.4972C260.497 63.3745 260.489 63.2489 260.489 63.1203V62.0741H261.383V66.6212H260.699L260.527 66.1974H260.489C260.432 66.287 260.361 66.3689 260.276 66.4429C260.192 66.515 260.091 66.5725 259.975 66.6153C259.858 66.6582 259.72 66.6796 259.563 66.6796ZM259.875 65.9695C260.119 65.9695 260.29 65.8974 260.39 65.7532C260.491 65.6071 260.544 65.388 260.55 65.0957V64.9993C260.55 64.6817 260.502 64.4392 260.404 64.2717C260.307 64.1022 260.126 64.0174 259.861 64.0174C259.664 64.0174 259.51 64.1022 259.399 64.2717C259.288 64.4411 259.232 64.6856 259.232 65.0051C259.232 65.3246 259.288 65.5652 259.399 65.7269C259.512 65.8886 259.671 65.9695 259.875 65.9695ZM263.662 63.2927C263.964 63.2927 264.225 63.3511 264.443 63.468C264.661 63.583 264.829 63.7505 264.948 63.9707C265.067 64.1908 265.127 64.4596 265.127 64.7772V65.2097H263.02C263.029 65.461 263.104 65.6588 263.245 65.8029C263.387 65.9451 263.584 66.0162 263.835 66.0162C264.043 66.0162 264.234 65.9948 264.408 65.952C264.581 65.9091 264.759 65.8448 264.942 65.7591V66.4487C264.781 66.5286 264.611 66.5871 264.434 66.6241C264.259 66.6611 264.045 66.6796 263.794 66.6796C263.467 66.6796 263.176 66.6192 262.923 66.4984C262.672 66.3776 262.474 66.1935 262.33 65.9461C262.188 65.6987 262.117 65.387 262.117 65.011C262.117 64.6291 262.181 64.3116 262.309 64.0583C262.44 63.8031 262.621 63.6122 262.853 63.4856C263.085 63.357 263.355 63.2927 263.662 63.2927ZM263.668 63.9268C263.495 63.9268 263.351 63.9823 263.236 64.0934C263.123 64.2044 263.058 64.3788 263.04 64.6165H264.291C264.289 64.484 264.264 64.3661 264.218 64.2629C264.173 64.1596 264.105 64.0778 264.013 64.0174C263.924 63.957 263.809 63.9268 263.668 63.9268ZM268.782 65.9695C268.88 65.9695 268.974 65.9597 269.066 65.9403C269.159 65.9208 269.252 65.8964 269.343 65.8672V66.5306C269.248 66.5734 269.129 66.6085 268.987 66.6358C268.847 66.665 268.693 66.6796 268.525 66.6796C268.33 66.6796 268.155 66.6484 267.999 66.5861C267.845 66.5218 267.723 66.4117 267.634 66.2559C267.546 66.0981 267.502 65.8789 267.502 65.5984V64.0233H267.076V63.6463L267.567 63.3482L267.824 62.6586H268.394V63.3541H269.308V64.0233H268.394V65.5984C268.394 65.723 268.429 65.8166 268.499 65.8789C268.571 65.9393 268.665 65.9695 268.782 65.9695ZM271.354 63.2927C271.656 63.2927 271.916 63.3511 272.134 63.468C272.352 63.583 272.521 63.7505 272.64 63.9707C272.759 64.1908 272.818 64.4596 272.818 64.7772V65.2097H270.711C270.721 65.461 270.796 65.6588 270.936 65.8029C271.078 65.9451 271.275 66.0162 271.526 66.0162C271.735 66.0162 271.926 65.9948 272.099 65.952C272.272 65.9091 272.451 65.8448 272.634 65.7591V66.4487C272.472 66.5286 272.303 66.5871 272.125 66.6241C271.95 66.6611 271.737 66.6796 271.485 66.6796C271.158 66.6796 270.868 66.6192 270.615 66.4984C270.363 66.3776 270.166 66.1935 270.021 65.9461C269.879 65.6987 269.808 65.387 269.808 65.011C269.808 64.6291 269.872 64.3116 270.001 64.0583C270.131 63.8031 270.313 63.6122 270.544 63.4856C270.776 63.357 271.046 63.2927 271.354 63.2927ZM271.36 63.9268C271.186 63.9268 271.042 63.9823 270.927 64.0934C270.814 64.2044 270.749 64.3788 270.731 64.6165H271.982C271.98 64.484 271.956 64.3661 271.909 64.2629C271.864 64.1596 271.796 64.0778 271.705 64.0174C271.615 63.957 271.5 63.9268 271.36 63.9268ZM275.398 63.2927C275.747 63.2927 276.028 63.3882 276.24 63.5791C276.452 63.768 276.558 64.072 276.558 64.4908V66.6212H275.667V64.7129C275.667 64.4791 275.624 64.3028 275.539 64.184C275.455 64.0651 275.322 64.0057 275.141 64.0057C274.868 64.0057 274.682 64.0983 274.583 64.2833C274.484 64.4684 274.434 64.7353 274.434 65.084V66.6212H273.543V63.3541H274.224L274.343 63.7719H274.393C274.463 63.6589 274.55 63.5674 274.653 63.4972C274.758 63.4271 274.874 63.3755 275.001 63.3424C275.129 63.3092 275.262 63.2927 275.398 63.2927ZM278.823 63.2927C279.125 63.2927 279.385 63.3511 279.603 63.468C279.822 63.583 279.99 63.7505 280.109 63.9707C280.228 64.1908 280.287 64.4596 280.287 64.7772V65.2097H278.18C278.19 65.461 278.265 65.6588 278.405 65.8029C278.548 65.9451 278.744 66.0162 278.996 66.0162C279.204 66.0162 279.395 65.9948 279.568 65.952C279.742 65.9091 279.92 65.8448 280.103 65.7591V66.4487C279.941 66.5286 279.772 66.5871 279.595 66.6241C279.419 66.6611 279.206 66.6796 278.955 66.6796C278.627 66.6796 278.337 66.6192 278.084 66.4984C277.833 66.3776 277.635 66.1935 277.491 65.9461C277.348 65.6987 277.277 65.387 277.277 65.011C277.277 64.6291 277.342 64.3116 277.47 64.0583C277.601 63.8031 277.782 63.6122 278.014 63.4856C278.246 63.357 278.515 63.2927 278.823 63.2927ZM278.829 63.9268C278.656 63.9268 278.512 63.9823 278.397 64.0934C278.284 64.2044 278.218 64.3788 278.201 64.6165H279.452C279.45 64.484 279.425 64.3661 279.378 64.2629C279.334 64.1596 279.265 64.0778 279.174 64.0174C279.084 63.957 278.969 63.9268 278.829 63.9268ZM282.836 63.2927C282.88 63.2927 282.932 63.2956 282.99 63.3015C283.051 63.3054 283.099 63.3112 283.136 63.319L283.069 64.1548C283.04 64.145 282.998 64.1382 282.944 64.1343C282.891 64.1285 282.845 64.1255 282.806 64.1255C282.691 64.1255 282.579 64.1401 282.47 64.1694C282.363 64.1986 282.267 64.2463 282.181 64.3126C282.095 64.3769 282.027 64.4626 281.976 64.5697C281.928 64.6749 281.903 64.8045 281.903 64.9584V66.6212H281.012V63.3541H281.687L281.819 63.9034H281.862C281.927 63.7924 282.007 63.6911 282.102 63.5995C282.199 63.506 282.309 63.432 282.432 63.3774C282.557 63.3209 282.691 63.2927 282.836 63.2927ZM286.632 63.2927C286.934 63.2927 287.194 63.3511 287.412 63.468C287.63 63.583 287.798 63.7505 287.917 63.9707C288.036 64.1908 288.096 64.4596 288.096 64.7772V65.2097H285.989C285.998 65.461 286.073 65.6588 286.214 65.8029C286.356 65.9451 286.553 66.0162 286.804 66.0162C287.012 66.0162 287.203 65.9948 287.377 65.952C287.55 65.9091 287.728 65.8448 287.911 65.7591V66.4487C287.75 66.5286 287.58 66.5871 287.403 66.6241C287.228 66.6611 287.014 66.6796 286.763 66.6796C286.436 66.6796 286.145 66.6192 285.892 66.4984C285.641 66.3776 285.443 66.1935 285.299 65.9461C285.157 65.6987 285.086 65.387 285.086 65.011C285.086 64.6291 285.15 64.3116 285.279 64.0583C285.409 63.8031 285.59 63.6122 285.822 63.4856C286.054 63.357 286.324 63.2927 286.632 63.2927ZM286.637 63.9268C286.464 63.9268 286.32 63.9823 286.205 64.0934C286.092 64.2044 286.027 64.3788 286.009 64.6165H287.26C287.258 64.484 287.234 64.3661 287.187 64.2629C287.142 64.1596 287.074 64.0778 286.982 64.0174C286.893 63.957 286.778 63.9268 286.637 63.9268ZM287.736 62.0361V62.0975C287.68 62.152 287.606 62.2192 287.514 62.2991C287.422 62.379 287.324 62.4628 287.219 62.5504C287.114 62.6362 287.01 62.719 286.909 62.7988C286.808 62.8768 286.719 62.942 286.643 62.9946H286.05V62.9157C286.114 62.8417 286.188 62.754 286.272 62.6527C286.358 62.5495 286.443 62.4433 286.526 62.3342C286.61 62.2251 286.68 62.1257 286.737 62.0361H287.736ZM290.676 63.2927C291.025 63.2927 291.305 63.3882 291.518 63.5791C291.73 63.768 291.836 64.072 291.836 64.4908V66.6212H290.945V64.7129C290.945 64.4791 290.902 64.3028 290.816 64.184C290.732 64.0651 290.6 64.0057 290.419 64.0057C290.146 64.0057 289.96 64.0983 289.861 64.2833C289.761 64.4684 289.712 64.7353 289.712 65.084V66.6212H288.82V63.3541H289.501L289.621 63.7719H289.671C289.741 63.6589 289.828 63.5674 289.931 63.4972C290.036 63.4271 290.152 63.3755 290.279 63.3424C290.407 63.3092 290.54 63.2927 290.676 63.2927ZM294.56 64.0233H293.788V66.6212H292.897V64.0233H292.406V63.5937L292.897 63.3541V63.1144C292.897 62.8358 292.944 62.6196 293.037 62.4657C293.133 62.3098 293.266 62.2007 293.437 62.1384C293.611 62.0741 293.815 62.042 294.051 62.042C294.225 62.042 294.382 62.0566 294.525 62.0858C294.667 62.1131 294.783 62.1442 294.872 62.1793L294.644 62.8339C294.576 62.8125 294.502 62.793 294.422 62.7754C294.342 62.7579 294.251 62.7491 294.148 62.7491C294.023 62.7491 293.931 62.7871 293.873 62.8631C293.816 62.9371 293.788 63.0326 293.788 63.1495V63.3541H294.56V64.0233ZM296.412 63.2868C296.851 63.2868 297.187 63.3823 297.421 63.5732C297.654 63.7641 297.771 64.0544 297.771 64.4441V66.6212H297.149L296.976 66.177H296.953C296.859 66.2939 296.764 66.3893 296.667 66.4634C296.569 66.5374 296.457 66.5919 296.331 66.627C296.204 66.6621 296.05 66.6796 295.869 66.6796C295.676 66.6796 295.503 66.6426 295.349 66.5686C295.197 66.4945 295.077 66.3815 294.989 66.2296C294.902 66.0757 294.858 65.8808 294.858 65.6451C294.858 65.2983 294.979 65.0431 295.223 64.8795C295.467 64.7139 295.832 64.6223 296.319 64.6048L296.886 64.5873V64.4441C296.886 64.2726 296.841 64.147 296.751 64.0671C296.662 63.9872 296.537 63.9473 296.377 63.9473C296.219 63.9473 296.065 63.9697 295.913 64.0145C295.761 64.0593 295.609 64.1158 295.457 64.184L295.162 63.582C295.335 63.4904 295.529 63.4183 295.743 63.3657C295.959 63.3131 296.182 63.2868 296.412 63.2868ZM296.886 65.1074L296.541 65.1191C296.253 65.1269 296.052 65.1785 295.939 65.274C295.828 65.3694 295.772 65.4951 295.772 65.651C295.772 65.7873 295.812 65.8847 295.892 65.9432C295.972 65.9997 296.076 66.0279 296.205 66.0279C296.396 66.0279 296.557 65.9714 296.687 65.8584C296.82 65.7454 296.886 65.5847 296.886 65.3763V65.1074ZM300.971 65.651C300.971 65.8731 300.918 66.0611 300.813 66.215C300.71 66.3669 300.555 66.4828 300.349 66.5627C300.142 66.6406 299.885 66.6796 299.577 66.6796C299.349 66.6796 299.153 66.665 298.99 66.6358C298.828 66.6065 298.664 66.5578 298.499 66.4897V65.7532C298.676 65.8331 298.866 65.8994 299.069 65.952C299.273 66.0026 299.452 66.0279 299.606 66.0279C299.78 66.0279 299.903 66.0026 299.978 65.952C300.054 65.8994 300.091 65.8312 300.091 65.7474C300.091 65.6928 300.076 65.6441 300.045 65.6013C300.016 65.5565 299.951 65.5068 299.852 65.4522C299.753 65.3957 299.597 65.3227 299.384 65.2331C299.18 65.1474 299.011 65.0607 298.879 64.973C298.748 64.8853 298.651 64.7821 298.587 64.6632C298.524 64.5424 298.493 64.3895 298.493 64.2044C298.493 63.9025 298.61 63.6755 298.844 63.5235C299.079 63.3696 299.394 63.2927 299.788 63.2927C299.99 63.2927 300.183 63.3131 300.366 63.3541C300.551 63.395 300.741 63.4602 300.936 63.5498L300.667 64.1927C300.505 64.1226 300.353 64.0651 300.208 64.0203C300.066 63.9755 299.921 63.9531 299.773 63.9531C299.642 63.9531 299.544 63.9707 299.478 64.0057C299.412 64.0408 299.378 64.0944 299.378 64.1664C299.378 64.219 299.395 64.2658 299.428 64.3067C299.463 64.3476 299.529 64.3934 299.627 64.4441C299.726 64.4928 299.871 64.5561 300.062 64.634C300.247 64.71 300.408 64.7899 300.544 64.8736C300.681 64.9555 300.786 65.0577 300.86 65.1805C300.934 65.3013 300.971 65.4581 300.971 65.651ZM302.558 63.3541V66.6212H301.667V63.3541H302.558ZM302.114 62.0741C302.246 62.0741 302.36 62.1053 302.456 62.1676C302.551 62.228 302.599 62.342 302.599 62.5095C302.599 62.6751 302.551 62.7901 302.456 62.8543C302.36 62.9167 302.246 62.9479 302.114 62.9479C301.979 62.9479 301.864 62.9167 301.769 62.8543C301.675 62.7901 301.629 62.6751 301.629 62.5095C301.629 62.342 301.675 62.228 301.769 62.1676C301.864 62.1053 301.979 62.0741 302.114 62.0741ZM305.775 65.651C305.775 65.8731 305.723 66.0611 305.618 66.215C305.514 66.3669 305.359 66.4828 305.153 66.5627C304.946 66.6406 304.689 66.6796 304.381 66.6796C304.153 66.6796 303.958 66.665 303.794 66.6358C303.632 66.6065 303.469 66.5578 303.303 66.4897V65.7532C303.48 65.8331 303.67 65.8994 303.873 65.952C304.077 66.0026 304.257 66.0279 304.411 66.0279C304.584 66.0279 304.708 66.0026 304.782 65.952C304.858 65.8994 304.896 65.8312 304.896 65.7474C304.896 65.6928 304.88 65.6441 304.849 65.6013C304.82 65.5565 304.755 65.5068 304.656 65.4522C304.557 65.3957 304.401 65.3227 304.189 65.2331C303.984 65.1474 303.815 65.0607 303.683 64.973C303.552 64.8853 303.455 64.7821 303.391 64.6632C303.328 64.5424 303.297 64.3895 303.297 64.2044C303.297 63.9025 303.414 63.6755 303.648 63.5235C303.884 63.3696 304.198 63.2927 304.592 63.2927C304.794 63.2927 304.987 63.3131 305.17 63.3541C305.355 63.395 305.545 63.4602 305.74 63.5498L305.471 64.1927C305.31 64.1226 305.157 64.0651 305.013 64.0203C304.87 63.9755 304.725 63.9531 304.577 63.9531C304.447 63.9531 304.348 63.9707 304.282 64.0057C304.216 64.0408 304.183 64.0944 304.183 64.1664C304.183 64.219 304.199 64.2658 304.232 64.3067C304.267 64.3476 304.334 64.3934 304.431 64.4441C304.53 64.4928 304.676 64.5561 304.866 64.634C305.052 64.71 305.212 64.7899 305.349 64.8736C305.485 64.9555 305.59 65.0577 305.664 65.1805C305.738 65.3013 305.775 65.4581 305.775 65.651ZM307.564 63.4183H308.084L308.791 65.2769C308.832 65.386 308.87 65.4912 308.905 65.5925C308.94 65.6919 308.971 65.7873 308.999 65.8789C309.026 65.9705 309.047 66.0591 309.063 66.1448H309.083C309.111 66.0474 309.15 65.9198 309.2 65.762C309.251 65.6023 309.305 65.4396 309.364 65.274L310.033 63.4183H310.556L309.162 67.0916C309.088 67.2884 309.002 67.4598 308.902 67.606C308.805 67.7521 308.686 67.8641 308.546 67.942C308.405 68.0219 308.236 68.0618 308.037 68.0618C307.946 68.0618 307.865 68.056 307.795 68.0443C307.724 68.0346 307.664 68.0229 307.613 68.0092V67.6206C307.656 67.6303 307.708 67.6391 307.768 67.6469C307.831 67.6547 307.895 67.6586 307.961 67.6586C308.082 67.6586 308.186 67.6352 308.274 67.5884C308.363 67.5436 308.44 67.4774 308.505 67.3897C308.569 67.302 308.625 67.1978 308.671 67.077L308.847 66.627L307.564 63.4183Z" fill="white"/>
<path d="M313.855 63.3599C314.128 63.3599 314.362 63.4203 314.557 63.5411C314.752 63.6619 314.901 63.8314 315.004 64.0496C315.107 64.2658 315.159 64.5191 315.159 64.8093V65.1103H312.947C312.952 65.4863 313.046 65.7727 313.227 65.9695C313.408 66.1663 313.663 66.2646 313.993 66.2646C314.195 66.2646 314.375 66.2461 314.53 66.2091C314.686 66.1721 314.848 66.1176 315.016 66.0455V66.4721C314.854 66.5442 314.693 66.5968 314.533 66.6299C314.376 66.663 314.189 66.6796 313.972 66.6796C313.664 66.6796 313.396 66.6173 313.166 66.4926C312.938 66.3659 312.761 66.1809 312.634 65.9373C312.507 65.6938 312.444 65.3957 312.444 65.0431C312.444 64.6983 312.501 64.4002 312.616 64.1489C312.733 63.8957 312.897 63.7008 313.107 63.5645C313.32 63.4281 313.569 63.3599 313.855 63.3599ZM313.85 63.7573C313.59 63.7573 313.384 63.8421 313.23 64.0116C313.076 64.1811 312.985 64.4178 312.955 64.7217H314.65C314.648 64.5308 314.618 64.3632 314.56 64.219C314.503 64.0729 314.416 63.9599 314.3 63.8801C314.183 63.7982 314.033 63.7573 313.85 63.7573ZM317.499 63.3599C317.879 63.3599 318.167 63.4534 318.362 63.6404C318.556 63.8255 318.654 64.1236 318.654 64.5347V66.6212H318.175V64.5668C318.175 64.2999 318.113 64.1002 317.99 63.9677C317.87 63.8353 317.684 63.769 317.432 63.769C317.078 63.769 316.828 63.8694 316.684 64.07C316.54 64.2707 316.468 64.5619 316.468 64.9438V66.6212H315.983V63.4183H316.374L316.447 63.8801H316.474C316.542 63.7671 316.629 63.6726 316.734 63.5966C316.839 63.5187 316.957 63.4602 317.087 63.4213C317.218 63.3804 317.355 63.3599 317.499 63.3599ZM320.141 66.6212H319.653V62.0741H320.141V66.6212ZM322.365 63.3657C322.747 63.3657 323.03 63.4515 323.215 63.6229C323.401 63.7943 323.493 64.0681 323.493 64.4441V66.6212H323.139L323.046 66.1477H323.023C322.933 66.2646 322.839 66.363 322.742 66.4429C322.645 66.5208 322.532 66.5802 322.403 66.6212C322.276 66.6601 322.121 66.6796 321.935 66.6796C321.741 66.6796 321.567 66.6455 321.415 66.5773C321.265 66.5091 321.146 66.4059 321.059 66.2676C320.973 66.1292 320.93 65.9539 320.93 65.7416C320.93 65.4221 321.057 65.1766 321.31 65.0051C321.563 64.8337 321.949 64.7402 322.467 64.7246L323.02 64.7012V64.5054C323.02 64.2288 322.96 64.0349 322.841 63.9239C322.723 63.8129 322.555 63.7573 322.339 63.7573C322.171 63.7573 322.011 63.7817 321.859 63.8304C321.708 63.8791 321.563 63.9366 321.427 64.0028L321.278 63.6346C321.422 63.5606 321.588 63.4972 321.775 63.4446C321.962 63.392 322.159 63.3657 322.365 63.3657ZM323.014 65.0431L322.526 65.0636C322.126 65.0792 321.845 65.1444 321.681 65.2594C321.518 65.3743 321.436 65.537 321.436 65.7474C321.436 65.9305 321.491 66.0659 321.602 66.1536C321.713 66.2413 321.86 66.2851 322.044 66.2851C322.328 66.2851 322.561 66.2062 322.742 66.0484C322.923 65.8906 323.014 65.6539 323.014 65.3383V65.0431ZM325.775 66.6796C325.487 66.6796 325.233 66.6202 325.013 66.5013C324.792 66.3825 324.621 66.2013 324.498 65.9578C324.376 65.7143 324.314 65.4074 324.314 65.0373C324.314 64.6496 324.378 64.333 324.507 64.0875C324.638 63.8401 324.817 63.657 325.045 63.5382C325.273 63.4193 325.532 63.3599 325.822 63.3599C325.982 63.3599 326.136 63.3765 326.284 63.4096C326.434 63.4408 326.557 63.4807 326.652 63.5294L326.506 63.9356C326.408 63.8966 326.295 63.8616 326.167 63.8304C326.04 63.7992 325.921 63.7836 325.81 63.7836C325.588 63.7836 325.403 63.8314 325.255 63.9268C325.109 64.0223 324.999 64.1626 324.925 64.3476C324.853 64.5327 324.817 64.7606 324.817 65.0314C324.817 65.2905 324.852 65.5117 324.922 65.6948C324.994 65.8779 325.1 66.0182 325.241 66.1156C325.383 66.2111 325.56 66.2588 325.772 66.2588C325.942 66.2588 326.095 66.2413 326.231 66.2062C326.368 66.1692 326.491 66.1263 326.602 66.0776V66.5101C326.495 66.5647 326.375 66.6065 326.243 66.6358C326.112 66.665 325.957 66.6796 325.775 66.6796ZM328.595 63.3599C328.868 63.3599 329.102 63.4203 329.297 63.5411C329.491 63.6619 329.641 63.8314 329.744 64.0496C329.847 64.2658 329.899 64.5191 329.899 64.8093V65.1103H327.686C327.692 65.4863 327.786 65.7727 327.967 65.9695C328.148 66.1663 328.403 66.2646 328.733 66.2646C328.935 66.2646 329.115 66.2461 329.27 66.2091C329.426 66.1721 329.588 66.1176 329.755 66.0455V66.4721C329.594 66.5442 329.433 66.5968 329.273 66.6299C329.115 66.663 328.928 66.6796 328.712 66.6796C328.404 66.6796 328.136 66.6173 327.906 66.4926C327.678 66.3659 327.5 66.1809 327.374 65.9373C327.247 65.6938 327.184 65.3957 327.184 65.0431C327.184 64.6983 327.241 64.4002 327.356 64.1489C327.473 63.8957 327.637 63.7008 327.847 63.5645C328.06 63.4281 328.309 63.3599 328.595 63.3599ZM328.589 63.7573C328.33 63.7573 328.124 63.8421 327.97 64.0116C327.816 64.1811 327.724 64.4178 327.695 64.7217H329.39C329.388 64.5308 329.358 64.3632 329.3 64.219C329.243 64.0729 329.156 63.9599 329.04 63.8801C328.923 63.7982 328.773 63.7573 328.589 63.7573ZM330.65 66.3172C330.65 66.1809 330.683 66.0844 330.749 66.0279C330.815 65.9695 330.896 65.9403 330.992 65.9403C331.091 65.9403 331.175 65.9695 331.243 66.0279C331.311 66.0844 331.345 66.1809 331.345 66.3172C331.345 66.4517 331.311 66.55 331.243 66.6124C331.175 66.6728 331.091 66.703 330.992 66.703C330.896 66.703 330.815 66.6728 330.749 66.6124C330.683 66.55 330.65 66.4517 330.65 66.3172Z" fill="white"/>
<path d="M330.211 69.1412H331.784V71.1412H330.211V69.1412Z" fill="white"/>
<rect x="545.989" y="58.6328" width="24.9884" height="11.9768" rx="2.9942" fill="#336ACC"/>
<path d="M549.96 67.1212C549.812 67.1212 549.698 67.083 549.617 67.0066C549.541 66.9258 549.502 66.8113 549.502 66.663V62.8297C549.502 62.6815 549.541 62.5692 549.617 62.4929C549.698 62.412 549.812 62.3716 549.96 62.3716H551.577C551.91 62.3716 552.193 62.421 552.426 62.5198C552.66 62.6186 552.837 62.7601 552.958 62.9442C553.084 63.1284 553.147 63.3485 553.147 63.6045C553.147 63.8919 553.064 64.1344 552.898 64.3321C552.732 64.5297 552.505 64.6622 552.217 64.7295V64.6285C552.55 64.6779 552.808 64.8036 552.992 65.0058C553.176 65.2079 553.268 65.4706 553.268 65.794C553.268 66.2162 553.125 66.544 552.837 66.7776C552.554 67.0066 552.159 67.1212 551.651 67.1212H549.96ZM550.331 66.4677H551.544C551.849 66.4677 552.074 66.4093 552.217 66.2925C552.361 66.1712 552.433 65.9916 552.433 65.7536C552.433 65.511 552.361 65.3314 552.217 65.2146C552.074 65.0978 551.849 65.0394 551.544 65.0394H550.331V66.4677ZM550.331 64.386H551.429C551.726 64.386 551.946 64.3298 552.089 64.2175C552.238 64.1008 552.312 63.9301 552.312 63.7055C552.312 63.481 552.238 63.3125 552.089 63.2003C551.946 63.0835 551.726 63.0251 551.429 63.0251H550.331V64.386ZM555.562 67.1885C555.221 67.1885 554.924 67.1189 554.673 66.9797C554.421 66.8404 554.226 66.6428 554.087 66.3868C553.947 66.1263 553.878 65.8209 553.878 65.4706C553.878 65.2056 553.916 64.9698 553.992 64.7632C554.073 64.5521 554.188 64.3725 554.336 64.2243C554.484 64.0716 554.662 63.957 554.868 63.8807C555.075 63.7998 555.306 63.7594 555.562 63.7594C555.903 63.7594 556.2 63.829 556.451 63.9683C556.703 64.1075 556.898 64.3051 557.038 64.5611C557.177 64.8171 557.246 65.1203 557.246 65.4706C557.246 65.7356 557.206 65.9736 557.125 66.1847C557.049 66.3958 556.936 66.5777 556.788 66.7304C556.64 66.8786 556.463 66.9932 556.256 67.074C556.049 67.1503 555.818 67.1885 555.562 67.1885ZM555.562 66.5485C555.728 66.5485 555.874 66.5081 556 66.4272C556.126 66.3464 556.222 66.2274 556.29 66.0702C556.362 65.9085 556.397 65.7086 556.397 65.4706C556.397 65.1113 556.321 64.8441 556.168 64.6689C556.016 64.4893 555.814 64.3994 555.562 64.3994C555.396 64.3994 555.25 64.4399 555.124 64.5207C554.998 64.597 554.9 64.7161 554.828 64.8778C554.76 65.0349 554.727 65.2326 554.727 65.4706C554.727 65.8254 554.803 66.0949 554.956 66.279C555.108 66.4587 555.311 66.5485 555.562 66.5485ZM559.418 67.1885C559.126 67.1885 558.881 67.1391 558.683 67.0403C558.49 66.9415 558.346 66.7978 558.252 66.6091C558.158 66.416 558.111 66.178 558.111 65.895V64.4601H557.76C557.653 64.4601 557.569 64.4331 557.511 64.3792C557.453 64.3208 557.423 64.2422 557.423 64.1434C557.423 64.0401 557.453 63.9615 557.511 63.9076C557.569 63.8537 557.653 63.8268 557.76 63.8268H558.111V63.2137C558.111 63.0745 558.147 62.969 558.218 62.8971C558.295 62.8252 558.4 62.7893 558.535 62.7893C558.67 62.7893 558.773 62.8252 558.845 62.8971C558.917 62.969 558.953 63.0745 558.953 63.2137V63.8268H559.667C559.775 63.8268 559.858 63.8537 559.916 63.9076C559.975 63.9615 560.004 64.0401 560.004 64.1434C560.004 64.2422 559.975 64.3208 559.916 64.3792C559.858 64.4331 559.775 64.4601 559.667 64.4601H558.953V65.8479C558.953 66.0635 559 66.2251 559.094 66.3329C559.189 66.4407 559.341 66.4946 559.552 66.4946C559.629 66.4946 559.696 66.4879 559.754 66.4744C559.813 66.4609 559.864 66.452 559.909 66.4475C559.963 66.443 560.008 66.4609 560.044 66.5014C560.08 66.5373 560.098 66.6136 560.098 66.7304C560.098 66.8202 560.082 66.9011 560.051 66.9729C560.024 67.0403 559.972 67.0875 559.896 67.1144C559.838 67.1324 559.761 67.1481 559.667 67.1616C559.573 67.1795 559.489 67.1885 559.418 67.1885ZM561.964 67.1885C561.622 67.1885 561.326 67.1189 561.074 66.9797C560.823 66.8404 560.627 66.6428 560.488 66.3868C560.349 66.1263 560.279 65.8209 560.279 65.4706C560.279 65.2056 560.317 64.9698 560.394 64.7632C560.475 64.5521 560.589 64.3725 560.737 64.2243C560.886 64.0716 561.063 63.957 561.27 63.8807C561.476 63.7998 561.708 63.7594 561.964 63.7594C562.305 63.7594 562.601 63.829 562.853 63.9683C563.104 64.1075 563.3 64.3051 563.439 64.5611C563.578 64.8171 563.648 65.1203 563.648 65.4706C563.648 65.7356 563.607 65.9736 563.526 66.1847C563.45 66.3958 563.338 66.5777 563.19 66.7304C563.041 66.8786 562.864 66.9932 562.657 67.074C562.451 67.1503 562.22 67.1885 561.964 67.1885ZM561.964 66.5485C562.13 66.5485 562.276 66.5081 562.401 66.4272C562.527 66.3464 562.624 66.2274 562.691 66.0702C562.763 65.9085 562.799 65.7086 562.799 65.4706C562.799 65.1113 562.723 64.8441 562.57 64.6689C562.417 64.4893 562.215 64.3994 561.964 64.3994C561.797 64.3994 561.651 64.4399 561.526 64.5207C561.4 64.597 561.301 64.7161 561.229 64.8778C561.162 65.0349 561.128 65.2326 561.128 65.4706C561.128 65.8254 561.204 66.0949 561.357 66.279C561.51 66.4587 561.712 66.5485 561.964 66.5485ZM562.28 63.3485C562.235 63.4113 562.181 63.4473 562.118 63.4563C562.056 63.4652 561.995 63.454 561.937 63.4226C561.878 63.3911 561.836 63.3462 561.809 63.2878C561.786 63.2294 561.793 63.1643 561.829 63.0925L562.341 62.0887C562.381 62.0033 562.435 61.9494 562.502 61.927C562.57 61.9 562.639 61.8955 562.711 61.9135C562.783 61.9315 562.844 61.9651 562.893 62.0146C562.947 62.064 562.979 62.1246 562.988 62.1964C563.001 62.2638 562.983 62.3334 562.934 62.4053L562.28 63.3485ZM564.761 67.1751C564.626 67.1751 564.522 67.1391 564.451 67.0673C564.379 66.9909 564.343 66.8831 564.343 66.7439V64.1973C564.343 64.0581 564.379 63.9525 564.451 63.8807C564.522 63.8088 564.624 63.7729 564.754 63.7729C564.884 63.7729 564.985 63.8088 565.057 63.8807C565.129 63.9525 565.165 64.0581 565.165 64.1973V64.6554L565.091 64.487C565.189 64.249 565.342 64.0693 565.549 63.9481C565.76 63.8223 565.998 63.7594 566.263 63.7594C566.528 63.7594 566.746 63.8088 566.916 63.9076C567.087 64.0064 567.215 64.1569 567.3 64.359C567.386 64.5566 567.428 64.8081 567.428 65.1135V66.7439C567.428 66.8831 567.392 66.9909 567.321 67.0673C567.249 67.1391 567.145 67.1751 567.011 67.1751C566.876 67.1751 566.77 67.1391 566.694 67.0673C566.622 66.9909 566.586 66.8831 566.586 66.7439V65.154C566.586 64.898 566.537 64.7116 566.438 64.5948C566.344 64.478 566.195 64.4196 565.993 64.4196C565.746 64.4196 565.549 64.4982 565.401 64.6554C565.257 64.8081 565.185 65.0125 565.185 65.2685V66.7439C565.185 67.0313 565.043 67.1751 564.761 67.1751Z" fill="white"/>
<g clip-path="url(#clip4_5283_939)">
<rect width="511.349" height="110.35" transform="translate(108 75.1009)" fill="#E6EBF0"/>
<path d="M108.115 74.8586H462.589H479.961C479.961 80.5954 482.593 83.4638 485.225 86.3322C487.858 89.2006 490.49 92.0691 490.49 97.8059C490.49 103.543 487.858 106.411 485.225 109.28C482.593 112.148 479.961 115.016 479.961 120.753C479.961 126.49 482.593 129.358 485.225 132.227C487.858 135.095 490.49 137.964 490.49 143.7C490.49 149.437 487.858 152.306 485.225 155.174C482.593 158.043 479.961 160.911 479.961 166.648C479.961 172.385 482.593 175.253 485.225 178.121C487.858 180.99 490.49 183.858 490.49 189.595C490.49 195.332 487.858 198.2 485.225 201.069C482.593 203.937 479.961 206.806 479.961 212.542C479.961 218.279 482.593 221.148 485.225 224.016C487.858 226.884 490.49 229.753 490.49 235.49C490.49 241.227 487.858 244.095 485.225 246.963C482.593 249.832 479.961 252.7 479.961 258.437H462.589H462.214H108.115V74.8586Z" fill="#F3F6F9"/>
<g clip-path="url(#clip5_5283_939)">
<path d="M131.064 100.084V95.805H131.562V100.084H131.064ZM134.184 96.8178C134.565 96.8178 134.853 96.9114 135.048 97.0987C135.243 97.2841 135.341 97.5827 135.341 97.9944V100.084H134.861V98.0266C134.861 97.7593 134.799 97.5592 134.676 97.4266C134.555 97.2939 134.369 97.2275 134.117 97.2275C133.762 97.2275 133.512 97.328 133.368 97.529C133.223 97.73 133.151 98.0217 133.151 98.4042V100.084H132.665V96.8763H133.058L133.131 97.3387H133.157C133.225 97.2256 133.312 97.1309 133.418 97.0548C133.523 96.9768 133.641 96.9182 133.772 96.8792C133.902 96.8382 134.04 96.8178 134.184 96.8178ZM136.827 96.8763V100.084H136.342V96.8763H136.827ZM136.59 95.6762C136.67 95.6762 136.739 95.7026 136.795 95.7553C136.854 95.806 136.883 95.886 136.883 95.9953C136.883 96.1026 136.854 96.1826 136.795 96.2353C136.739 96.288 136.67 96.3143 136.59 96.3143C136.506 96.3143 136.436 96.288 136.38 96.2353C136.325 96.1826 136.298 96.1026 136.298 95.9953C136.298 95.886 136.325 95.806 136.38 95.7553C136.436 95.7026 136.506 95.6762 136.59 95.6762ZM139.143 100.143C138.854 100.143 138.599 100.083 138.379 99.9642C138.158 99.8452 137.987 99.6637 137.864 99.4198C137.741 99.1759 137.679 98.8686 137.679 98.4978C137.679 98.1095 137.744 97.7924 137.872 97.5466C138.003 97.2987 138.183 97.1153 138.411 96.9963C138.639 96.8773 138.899 96.8178 139.189 96.8178C139.349 96.8178 139.504 96.8343 139.652 96.8675C139.802 96.8987 139.925 96.9387 140.021 96.9875L139.874 97.3944C139.777 97.3553 139.664 97.3202 139.535 97.289C139.408 97.2578 139.289 97.2422 139.178 97.2422C138.955 97.2422 138.77 97.29 138.622 97.3856C138.475 97.4812 138.365 97.6217 138.291 97.8071C138.219 97.9924 138.183 98.2207 138.183 98.492C138.183 98.7515 138.218 98.973 138.288 99.1564C138.36 99.3398 138.467 99.4803 138.607 99.5779C138.749 99.6735 138.927 99.7213 139.14 99.7213C139.309 99.7213 139.463 99.7037 139.599 99.6686C139.736 99.6315 139.86 99.5886 139.971 99.5398V99.973C139.864 100.028 139.744 100.07 139.611 100.099C139.48 100.128 139.324 100.143 139.143 100.143ZM141.218 96.8763V100.084H140.732V96.8763H141.218ZM140.981 95.6762C141.061 95.6762 141.129 95.7026 141.186 95.7553C141.244 95.806 141.273 95.886 141.273 95.9953C141.273 96.1026 141.244 96.1826 141.186 96.2353C141.129 96.288 141.061 96.3143 140.981 96.3143C140.897 96.3143 140.827 96.288 140.77 96.2353C140.715 96.1826 140.688 96.1026 140.688 95.9953C140.688 95.886 140.715 95.806 140.77 95.7553C140.827 95.7026 140.897 95.6762 140.981 95.6762ZM145.014 98.4744C145.014 98.7378 144.98 98.973 144.912 99.1798C144.843 99.3866 144.745 99.5613 144.616 99.7037C144.487 99.8462 144.331 99.9554 144.148 100.032C143.966 100.106 143.76 100.143 143.53 100.143C143.316 100.143 143.118 100.106 142.939 100.032C142.761 99.9554 142.607 99.8462 142.476 99.7037C142.348 99.5613 142.247 99.3866 142.175 99.1798C142.105 98.973 142.07 98.7378 142.07 98.4744C142.07 98.1232 142.129 97.8246 142.248 97.5788C142.367 97.3309 142.537 97.1426 142.757 97.0139C142.98 96.8831 143.244 96.8178 143.551 96.8178C143.843 96.8178 144.099 96.8831 144.318 97.0139C144.538 97.1446 144.709 97.3339 144.83 97.5817C144.953 97.8275 145.014 98.1251 145.014 98.4744ZM142.573 98.4744C142.573 98.732 142.607 98.9554 142.675 99.1447C142.744 99.334 142.849 99.4803 142.992 99.5837C143.134 99.6871 143.317 99.7388 143.542 99.7388C143.764 99.7388 143.947 99.6871 144.089 99.5837C144.234 99.4803 144.34 99.334 144.408 99.1447C144.477 98.9554 144.511 98.732 144.511 98.4744C144.511 98.2188 144.477 97.9983 144.408 97.8129C144.34 97.6256 144.235 97.4812 144.092 97.3797C143.95 97.2783 143.765 97.2275 143.539 97.2275C143.205 97.2275 142.96 97.3378 142.804 97.5583C142.65 97.7788 142.573 98.0841 142.573 98.4744Z" fill="#101E37"/>
<path d="M130.479 102.604H145.342V104.604H130.479V102.604Z" fill="#101E37"/>
</g>
<rect x="130.479" y="114.073" width="271.033" height="8.88632" rx="2.96211" fill="#D1D8E0"/>
<rect x="130.479" y="126.577" width="271.033" height="8.88632" rx="2.96211" fill="#D1D8E0"/>
<rect x="130.479" y="139.082" width="148.846" height="8.88632" rx="2.96211" fill="#D1D8E0"/>
</g>
<rect x="156.603" y="201.326" width="106.878" height="7.91687" rx="1.52496" fill="#E6EBF0"/>
<rect width="414.143" height="66.4792" transform="translate(156.603 218.768)" fill="white"/>
<rect x="157.263" y="219.427" width="130.628" height="65.1597" rx="4.61817" fill="white"/>
<rect x="157.263" y="219.427" width="130.628" height="65.1597" rx="4.61817" stroke="#E6EBF0" stroke-width="1.31948"/>
<rect x="164.52" y="226.685" width="24.2559" height="24.2559" rx="3.03199" fill="#ADC3EB"/>
<rect x="164.52" y="258.857" width="52.1124" height="7.91687" rx="1.52496" fill="#E6EBF0"/>
<rect x="164.52" y="269.413" width="106.878" height="7.91687" rx="1.52496" fill="#E6EBF0"/>
<rect x="298.36" y="219.427" width="130.628" height="65.1597" rx="4.61817" fill="white"/>
<rect x="298.36" y="219.427" width="130.628" height="65.1597" rx="4.61817" stroke="#E6EBF0" stroke-width="1.31948"/>
<rect x="305.617" y="226.685" width="24.2559" height="24.2559" rx="3.03199" fill="#ADC3EB"/>
<rect x="305.617" y="258.857" width="52.1124" height="7.91687" rx="1.52496" fill="#E6EBF0"/>
<rect x="305.617" y="269.413" width="106.878" height="7.91687" rx="1.52496" fill="#E6EBF0"/>
<rect x="439.458" y="219.427" width="130.628" height="65.1597" rx="4.61817" fill="white"/>
<rect x="439.458" y="219.427" width="130.628" height="65.1597" rx="4.61817" stroke="#E6EBF0" stroke-width="1.31948"/>
<rect x="446.715" y="226.685" width="24.2559" height="24.2559" rx="3.03199" fill="#ADC3EB"/>
<rect x="446.715" y="258.857" width="52.1124" height="7.91687" rx="1.52496" fill="#E6EBF0"/>
<rect x="446.715" y="269.413" width="106.878" height="7.91687" rx="1.52496" fill="#E6EBF0"/>
</g>
<rect x="107.305" y="23.305" width="512.74" height="317.968" rx="6.25522" stroke="#E6EBF0" stroke-width="1.39005"/>
</g>
<rect x="0.5" y="0.5" width="727" height="273" rx="7.5" stroke="#E6EBF0"/>
<defs>
<clipPath id="clip0_5283_939">
<rect width="728" height="274" rx="8" fill="white"/>
</clipPath>
<clipPath id="clip1_5283_939">
<rect x="108" y="24" width="511.349" height="316.578" rx="5.5602" fill="white"/>
</clipPath>
<clipPath id="clip2_5283_939">
<rect width="30.1415" height="16.2131" fill="white" transform="translate(130.606 30.9642)"/>
</clipPath>
<clipPath id="clip3_5283_939">
<rect width="8.98259" height="8.98259" fill="white" transform="translate(156.281 60.1299)"/>
</clipPath>
<clipPath id="clip4_5283_939">
<rect width="511.349" height="110.35" fill="white" transform="translate(108 75.1009)"/>
</clipPath>
<clipPath id="clip5_5283_939">
<rect width="15" height="9" fill="white" transform="translate(130.479 93.0842)"/>
</clipPath>
</defs>
</svg>
