<svg width="728" height="274" viewBox="0 0 728 274" fill="none" xmlns="http://www.w3.org/2000/svg">
<g clip-path="url(#clip0_5283_939)">
<rect width="728" height="274" rx="8" fill="#F3F6F9"/>
<g clip-path="url(#clip1_5283_939)">
<rect x="108" y="24" width="511.349" height="316.578" rx="5.5602" fill="white"/>
<rect width="511.259" height="20.9594" transform="translate(108 24)" fill="#002733"/>
<g clip-path="url(#clip2_5283_939)">
<path d="M162.772 30.4106C161.672 30.2047 160.665 30.6913 160.107 31.5035C160.111 31.4997 160.111 31.496 160.115 31.4922C159.965 31.4848 159.808 31.4848 159.651 31.4848C157.996 31.4848 156.656 31.6719 156.656 32.9819V36.7246C156.656 37.054 156.802 37.3496 157.031 37.5555V38.0346C157.031 38.3452 157.281 38.596 157.592 38.596C157.903 38.596 158.153 38.3452 158.153 38.0346V37.8474H161.148V38.0346C161.148 38.3415 161.398 38.596 161.709 38.596C162.016 38.596 162.27 38.3452 162.27 38.0346V37.5555C162.499 37.3496 162.645 37.054 162.645 36.7246V35.5718C164.037 35.3697 165.078 34.0822 164.86 32.5889C164.703 31.5035 163.85 30.609 162.772 30.4106ZM157.966 37.0989C157.656 37.0989 157.405 36.8481 157.405 36.5375C157.405 36.2268 157.656 35.976 157.966 35.976C158.277 35.976 158.528 36.2268 158.528 36.5375C158.528 36.8481 158.277 37.0989 157.966 37.0989ZM157.405 34.8532V32.9819H159.651C159.651 33.7154 159.954 34.3779 160.44 34.8532H157.405ZM161.335 37.0989C161.024 37.0989 160.773 36.8481 160.773 36.5375C160.773 36.2268 161.024 35.976 161.335 35.976C161.645 35.976 161.896 36.2268 161.896 36.5375C161.896 36.8481 161.645 37.0989 161.335 37.0989ZM162.27 34.8532C161.237 34.8532 160.399 34.0149 160.399 32.9819C160.399 31.9489 161.237 31.1105 162.27 31.1105C163.303 31.1105 164.142 31.9489 164.142 32.9819C164.142 34.0149 163.303 34.8532 162.27 34.8532ZM162.177 31.4848C162.023 31.4848 161.896 31.612 161.896 31.7655V33.1428C161.896 33.2738 161.967 33.3973 162.08 33.4647L163.023 34.0298C163.15 34.1047 163.315 34.0635 163.39 33.94C163.468 33.8127 163.427 33.6443 163.296 33.5695L162.458 33.0754V31.7655C162.458 31.612 162.33 31.4848 162.177 31.4848Z" fill="white"/>
</g>
<path d="M172.719 36.4797H170.34V32.2073H172.719V32.6457H170.837V34.0279H172.61V34.4604H170.837V36.0413H172.719V36.4797ZM175.664 35.603C175.664 35.8076 175.613 35.98 175.509 36.1202C175.408 36.2586 175.262 36.3628 175.071 36.4329C174.882 36.5031 174.656 36.5381 174.393 36.5381C174.169 36.5381 173.975 36.5206 173.811 36.4855C173.648 36.4505 173.505 36.4008 173.382 36.3365V35.8894C173.512 35.9537 173.668 36.0121 173.849 36.0647C174.031 36.1173 174.216 36.1436 174.405 36.1436C174.681 36.1436 174.882 36.0988 175.007 36.0092C175.131 35.9196 175.194 35.7978 175.194 35.6439C175.194 35.5562 175.168 35.4793 175.118 35.413C175.069 35.3449 174.986 35.2796 174.869 35.2173C174.752 35.153 174.591 35.0828 174.384 35.0069C174.18 34.9289 174.002 34.852 173.852 34.776C173.704 34.6981 173.589 34.6036 173.508 34.4925C173.428 34.3815 173.388 34.2373 173.388 34.06C173.388 33.7892 173.497 33.5818 173.715 33.4376C173.935 33.2915 174.224 33.2184 174.58 33.2184C174.773 33.2184 174.953 33.2379 175.121 33.2769C175.29 33.3139 175.448 33.3645 175.594 33.4288L175.43 33.8175C175.298 33.761 175.157 33.7133 175.007 33.6743C174.857 33.6353 174.704 33.6159 174.548 33.6159C174.324 33.6159 174.151 33.6529 174.031 33.7269C173.912 33.8009 173.852 33.9022 173.852 34.0308C173.852 34.1302 173.88 34.212 173.934 34.2763C173.991 34.3406 174.08 34.401 174.203 34.4575C174.326 34.514 174.487 34.5802 174.688 34.6562C174.889 34.7302 175.062 34.8072 175.208 34.887C175.354 34.965 175.466 35.0604 175.544 35.1734C175.624 35.2845 175.664 35.4277 175.664 35.603ZM177.479 36.1407C177.559 36.1407 177.641 36.1339 177.724 36.1202C177.808 36.1066 177.876 36.09 177.929 36.0706V36.4475C177.872 36.4729 177.794 36.4943 177.692 36.5118C177.593 36.5294 177.495 36.5381 177.4 36.5381C177.231 36.5381 177.077 36.5089 176.938 36.4505C176.8 36.3901 176.689 36.2888 176.605 36.1465C176.523 36.0043 176.482 35.8076 176.482 35.5562V33.6568H176.027V33.4201L176.485 33.2301L176.678 32.5346H176.97V33.2769H177.909V33.6568H176.97V35.5416C176.97 35.7423 177.016 35.8923 177.108 35.9917C177.201 36.091 177.325 36.1407 177.479 36.1407ZM179.776 33.2243C180.158 33.2243 180.441 33.31 180.626 33.4814C180.811 33.6529 180.904 33.9266 180.904 34.3026V36.4797H180.55L180.457 36.0063H180.433C180.344 36.1232 180.25 36.2215 180.153 36.3014C180.055 36.3793 179.942 36.4388 179.814 36.4797C179.687 36.5186 179.531 36.5381 179.346 36.5381C179.151 36.5381 178.978 36.504 178.826 36.4358C178.676 36.3677 178.557 36.2644 178.47 36.1261C178.384 35.9878 178.341 35.8124 178.341 35.6001C178.341 35.2806 178.468 35.0351 178.721 34.8637C178.974 34.6922 179.36 34.5987 179.878 34.5831L180.43 34.5597V34.364C180.43 34.0873 180.371 33.8935 180.252 33.7824C180.133 33.6714 179.966 33.6159 179.75 33.6159C179.582 33.6159 179.422 33.6402 179.27 33.6889C179.118 33.7376 178.974 33.7951 178.838 33.8613L178.689 33.4931C178.833 33.4191 178.999 33.3558 179.186 33.3032C179.373 33.2506 179.569 33.2243 179.776 33.2243ZM180.425 34.9016L179.937 34.9221C179.537 34.9377 179.256 35.003 179.092 35.1179C178.928 35.2328 178.847 35.3955 178.847 35.6059C178.847 35.789 178.902 35.9244 179.013 36.0121C179.124 36.0998 179.271 36.1436 179.454 36.1436C179.739 36.1436 179.972 36.0647 180.153 35.9069C180.334 35.7491 180.425 35.5124 180.425 35.1968V34.9016ZM184.598 36.5381C184.192 36.5381 183.871 36.3998 183.633 36.1232C183.397 35.8465 183.28 35.4355 183.28 34.89C183.28 34.3386 183.4 33.9227 183.642 33.6422C183.884 33.3597 184.205 33.2184 184.606 33.2184C184.776 33.2184 184.924 33.2408 185.051 33.2856C185.177 33.3304 185.286 33.3908 185.378 33.4668C185.469 33.5408 185.546 33.6256 185.609 33.7211H185.644C185.636 33.6607 185.628 33.5779 185.62 33.4727C185.613 33.3675 185.609 33.2817 185.609 33.2155V31.9326H186.094V36.4797H185.702L185.629 36.0238H185.609C185.548 36.1193 185.471 36.206 185.378 36.2839C185.286 36.3618 185.176 36.4242 185.048 36.4709C184.921 36.5157 184.771 36.5381 184.598 36.5381ZM184.674 36.1348C185.016 36.1348 185.259 36.0374 185.401 35.8426C185.543 35.6478 185.615 35.3585 185.615 34.9747V34.887C185.615 34.4799 185.546 34.1672 185.41 33.949C185.276 33.7308 185.03 33.6217 184.674 33.6217C184.375 33.6217 184.152 33.7366 184.004 33.9665C183.856 34.1945 183.782 34.5062 183.782 34.9016C183.782 35.2952 183.855 35.5991 184.001 35.8134C184.149 36.0277 184.374 36.1348 184.674 36.1348ZM188.356 33.2184C188.628 33.2184 188.862 33.2788 189.057 33.3996C189.252 33.5204 189.401 33.6899 189.504 33.9081C189.607 34.1243 189.659 34.3776 189.659 34.6679V34.9689H187.447C187.453 35.3449 187.546 35.6312 187.727 35.828C187.909 36.0248 188.164 36.1232 188.493 36.1232C188.696 36.1232 188.875 36.1047 189.031 36.0676C189.187 36.0306 189.348 35.9761 189.516 35.904V36.3306C189.354 36.4027 189.193 36.4553 189.034 36.4884C188.876 36.5216 188.689 36.5381 188.473 36.5381C188.165 36.5381 187.896 36.4758 187.666 36.3511C187.438 36.2245 187.261 36.0394 187.134 35.7959C187.007 35.5523 186.944 35.2543 186.944 34.9016C186.944 34.5568 187.002 34.2588 187.117 34.0074C187.233 33.7542 187.397 33.5594 187.608 33.423C187.82 33.2866 188.069 33.2184 188.356 33.2184ZM188.35 33.6159C188.091 33.6159 187.884 33.7006 187.73 33.8701C187.576 34.0396 187.485 34.2763 187.456 34.5802H189.15C189.149 34.3893 189.118 34.2217 189.06 34.0776C189.003 33.9315 188.917 33.8185 188.8 33.7386C188.683 33.6568 188.533 33.6159 188.35 33.6159ZM192.555 35.603C192.555 35.8076 192.503 35.98 192.4 36.1202C192.299 36.2586 192.153 36.3628 191.962 36.4329C191.773 36.5031 191.547 36.5381 191.284 36.5381C191.06 36.5381 190.866 36.5206 190.702 36.4855C190.539 36.4505 190.395 36.4008 190.273 36.3365V35.8894C190.403 35.9537 190.559 36.0121 190.74 36.0647C190.921 36.1173 191.106 36.1436 191.295 36.1436C191.572 36.1436 191.773 36.0988 191.897 36.0092C192.022 35.9196 192.084 35.7978 192.084 35.6439C192.084 35.5562 192.059 35.4793 192.008 35.413C191.96 35.3449 191.877 35.2796 191.76 35.2173C191.643 35.153 191.481 35.0828 191.275 35.0069C191.07 34.9289 190.893 34.852 190.743 34.776C190.595 34.6981 190.48 34.6036 190.398 34.4925C190.318 34.3815 190.278 34.2373 190.278 34.06C190.278 33.7892 190.388 33.5818 190.606 33.4376C190.826 33.2915 191.114 33.2184 191.471 33.2184C191.664 33.2184 191.844 33.2379 192.011 33.2769C192.181 33.3139 192.339 33.3645 192.485 33.4288L192.321 33.8175C192.189 33.761 192.047 33.7133 191.897 33.6743C191.747 33.6353 191.594 33.6159 191.439 33.6159C191.215 33.6159 191.042 33.6529 190.921 33.7269C190.803 33.8009 190.743 33.9022 190.743 34.0308C190.743 34.1302 190.77 34.212 190.825 34.2763C190.881 34.3406 190.971 34.401 191.094 34.4575C191.217 34.514 191.378 34.5802 191.579 34.6562C191.78 34.7302 191.953 34.8072 192.099 34.887C192.245 34.965 192.357 35.0604 192.435 35.1734C192.515 35.2845 192.555 35.4277 192.555 35.603ZM194.618 36.5381C194.33 36.5381 194.075 36.4787 193.855 36.3599C193.635 36.241 193.464 36.0598 193.341 35.8163C193.218 35.5728 193.157 35.266 193.157 34.8958C193.157 34.5081 193.221 34.1915 193.35 33.9461C193.48 33.6986 193.66 33.5155 193.887 33.3967C194.115 33.2778 194.375 33.2184 194.665 33.2184C194.825 33.2184 194.978 33.235 195.127 33.2681C195.277 33.2993 195.399 33.3392 195.495 33.3879L195.349 33.7941C195.251 33.7551 195.138 33.7201 195.01 33.6889C194.883 33.6577 194.764 33.6422 194.653 33.6422C194.431 33.6422 194.246 33.6899 194.098 33.7853C193.952 33.8808 193.842 34.0211 193.768 34.2061C193.696 34.3912 193.66 34.6192 193.66 34.89C193.66 35.1491 193.695 35.3702 193.765 35.5533C193.837 35.7364 193.943 35.8767 194.083 35.9741C194.225 36.0696 194.403 36.1173 194.615 36.1173C194.785 36.1173 194.938 36.0998 195.074 36.0647C195.21 36.0277 195.334 35.9848 195.445 35.9361V36.3686C195.338 36.4232 195.218 36.4651 195.086 36.4943C194.955 36.5235 194.799 36.5381 194.618 36.5381ZM197.66 33.2184C197.724 33.2184 197.792 33.2223 197.862 33.2301C197.932 33.236 197.994 33.2447 198.049 33.2564L197.987 33.7064C197.935 33.6928 197.876 33.6821 197.812 33.6743C197.748 33.6665 197.687 33.6626 197.631 33.6626C197.502 33.6626 197.381 33.6889 197.266 33.7415C197.153 33.7922 197.053 33.8662 196.968 33.9636C196.882 34.0591 196.815 34.175 196.766 34.3114C196.717 34.4458 196.693 34.5958 196.693 34.7614V36.4797H196.205V33.2769H196.608L196.661 33.8672H196.681C196.747 33.7483 196.827 33.6402 196.921 33.5428C197.014 33.4434 197.122 33.3645 197.245 33.3061C197.37 33.2476 197.508 33.2184 197.66 33.2184ZM199.139 33.2769V36.4797H198.654V33.2769H199.139ZM198.902 32.0787C198.982 32.0787 199.05 32.105 199.107 32.1576C199.165 32.2083 199.194 32.2882 199.194 32.3973C199.194 32.5044 199.165 32.5843 199.107 32.6369C199.05 32.6895 198.982 32.7158 198.902 32.7158C198.818 32.7158 198.748 32.6895 198.692 32.6369C198.637 32.5843 198.61 32.5044 198.61 32.3973C198.61 32.2882 198.637 32.2083 198.692 32.1576C198.748 32.105 198.818 32.0787 198.902 32.0787ZM201.672 33.2184C202.072 33.2184 202.39 33.3558 202.628 33.6305C202.866 33.9052 202.984 34.3182 202.984 34.8695C202.984 35.2338 202.93 35.5397 202.821 35.7871C202.712 36.0345 202.558 36.2215 202.359 36.3482C202.162 36.4748 201.93 36.5381 201.661 36.5381C201.491 36.5381 201.342 36.5157 201.214 36.4709C201.085 36.4261 200.975 36.3657 200.883 36.2897C200.792 36.2137 200.716 36.131 200.655 36.0413H200.62C200.626 36.1173 200.633 36.2089 200.641 36.316C200.651 36.4232 200.655 36.5167 200.655 36.5966V37.9116H200.167V33.2769H200.568L200.632 33.7503H200.655C200.718 33.6529 200.794 33.5642 200.883 33.4843C200.973 33.4025 201.082 33.3382 201.211 33.2915C201.341 33.2428 201.495 33.2184 201.672 33.2184ZM201.588 33.6275C201.366 33.6275 201.186 33.6704 201.05 33.7561C200.916 33.8418 200.817 33.9704 200.755 34.1419C200.692 34.3114 200.659 34.5247 200.655 34.7818V34.8753C200.655 35.1461 200.685 35.3751 200.743 35.5621C200.804 35.7491 200.902 35.8913 201.038 35.9887C201.177 36.0861 201.362 36.1348 201.593 36.1348C201.792 36.1348 201.958 36.0813 202.09 35.9741C202.223 35.867 202.321 35.7179 202.385 35.527C202.452 35.3341 202.485 35.113 202.485 34.8637C202.485 34.4857 202.411 34.1857 202.263 33.9636C202.117 33.7396 201.892 33.6275 201.588 33.6275ZM205.115 36.5381C204.826 36.5381 204.572 36.4787 204.352 36.3599C204.132 36.241 203.961 36.0598 203.838 35.8163C203.715 35.5728 203.654 35.266 203.654 34.8958C203.654 34.5081 203.718 34.1915 203.847 33.9461C203.977 33.6986 204.156 33.5155 204.384 33.3967C204.612 33.2778 204.871 33.2184 205.162 33.2184C205.321 33.2184 205.475 33.235 205.623 33.2681C205.773 33.2993 205.896 33.3392 205.992 33.3879L205.845 33.7941C205.748 33.7551 205.635 33.7201 205.506 33.6889C205.38 33.6577 205.261 33.6422 205.15 33.6422C204.928 33.6422 204.743 33.6899 204.595 33.7853C204.449 33.8808 204.338 34.0211 204.264 34.2061C204.192 34.3912 204.156 34.6192 204.156 34.89C204.156 35.1491 204.191 35.3702 204.262 35.5533C204.334 35.7364 204.44 35.8767 204.58 35.9741C204.722 36.0696 204.9 36.1173 205.112 36.1173C205.281 36.1173 205.434 36.0998 205.571 36.0647C205.707 36.0277 205.831 35.9848 205.942 35.9361V36.3686C205.835 36.4232 205.715 36.4651 205.582 36.4943C205.452 36.5235 205.296 36.5381 205.115 36.5381ZM207.187 33.2769V36.4797H206.702V33.2769H207.187ZM206.95 32.0787C207.03 32.0787 207.098 32.105 207.155 32.1576C207.213 32.2083 207.242 32.2882 207.242 32.3973C207.242 32.5044 207.213 32.5843 207.155 32.6369C207.098 32.6895 207.03 32.7158 206.95 32.7158C206.866 32.7158 206.796 32.6895 206.74 32.6369C206.685 32.5843 206.658 32.5044 206.658 32.3973C206.658 32.2882 206.685 32.2083 206.74 32.1576C206.796 32.105 206.866 32.0787 206.95 32.0787ZM210.977 34.8724C210.977 35.1354 210.943 35.3702 210.875 35.5767C210.806 35.7832 210.708 35.9576 210.579 36.0998C210.451 36.242 210.295 36.3511 210.112 36.4271C209.931 36.5011 209.725 36.5381 209.495 36.5381C209.281 36.5381 209.084 36.5011 208.905 36.4271C208.728 36.3511 208.574 36.242 208.443 36.0998C208.315 35.9576 208.214 35.7832 208.142 35.5767C208.072 35.3702 208.037 35.1354 208.037 34.8724C208.037 34.5218 208.097 34.2237 208.215 33.9782C208.334 33.7308 208.504 33.5428 208.724 33.4142C208.946 33.2837 209.21 33.2184 209.516 33.2184C209.808 33.2184 210.063 33.2837 210.281 33.4142C210.502 33.5447 210.672 33.7337 210.793 33.9811C210.916 34.2266 210.977 34.5237 210.977 34.8724ZM208.54 34.8724C208.54 35.1296 208.574 35.3527 208.642 35.5416C208.71 35.7306 208.815 35.8767 208.958 35.98C209.1 36.0832 209.283 36.1348 209.507 36.1348C209.729 36.1348 209.911 36.0832 210.053 35.98C210.198 35.8767 210.304 35.7306 210.372 35.5416C210.44 35.3527 210.474 35.1296 210.474 34.8724C210.474 34.6172 210.44 34.3971 210.372 34.212C210.304 34.025 210.199 33.8808 210.056 33.7795C209.914 33.6782 209.73 33.6275 209.504 33.6275C209.171 33.6275 208.926 33.7376 208.771 33.9578C208.617 34.1779 208.54 34.4828 208.54 34.8724ZM210.354 31.8946V31.9531C210.315 32.0096 210.262 32.0778 210.194 32.1576C210.127 32.2356 210.053 32.3184 209.972 32.406C209.89 32.4918 209.807 32.5736 209.723 32.6515C209.641 32.7294 209.565 32.7966 209.495 32.8531H209.171V32.783C209.233 32.709 209.301 32.6203 209.375 32.5171C209.45 32.4119 209.522 32.3047 209.592 32.1956C209.662 32.0846 209.72 31.9843 209.767 31.8946H210.354ZM213.332 33.2184C213.712 33.2184 214 33.3119 214.194 33.499C214.389 33.684 214.487 33.9821 214.487 34.3932V36.4797H214.007V34.4253C214.007 34.1584 213.946 33.9587 213.823 33.8263C213.702 33.6938 213.516 33.6275 213.265 33.6275C212.91 33.6275 212.661 33.7279 212.517 33.9285C212.373 34.1292 212.301 34.4204 212.301 34.8023V36.4797H211.816V33.2769H212.207L212.28 33.7386H212.307C212.375 33.6256 212.461 33.5311 212.567 33.4551C212.672 33.3772 212.79 33.3188 212.92 33.2798C213.051 33.2389 213.188 33.2184 213.332 33.2184ZM218.18 36.5381C217.775 36.5381 217.454 36.3998 217.216 36.1232C216.98 35.8465 216.862 35.4355 216.862 34.89C216.862 34.3386 216.983 33.9227 217.225 33.6422C217.466 33.3597 217.788 33.2184 218.189 33.2184C218.359 33.2184 218.507 33.2408 218.633 33.2856C218.76 33.3304 218.869 33.3908 218.961 33.4668C219.052 33.5408 219.129 33.6256 219.191 33.7211H219.226C219.219 33.6607 219.211 33.5779 219.203 33.4727C219.195 33.3675 219.191 33.2817 219.191 33.2155V31.9326H219.676V36.4797H219.285L219.212 36.0238H219.191C219.131 36.1193 219.054 36.206 218.961 36.2839C218.869 36.3618 218.759 36.4242 218.63 36.4709C218.504 36.5157 218.354 36.5381 218.18 36.5381ZM218.256 36.1348C218.599 36.1348 218.842 36.0374 218.984 35.8426C219.126 35.6478 219.197 35.3585 219.197 34.9747V34.887C219.197 34.4799 219.129 34.1672 218.993 33.949C218.858 33.7308 218.613 33.6217 218.256 33.6217C217.958 33.6217 217.735 33.7366 217.587 33.9665C217.439 34.1945 217.365 34.5062 217.365 34.9016C217.365 35.2952 217.438 35.5991 217.584 35.8134C217.732 36.0277 217.956 36.1348 218.256 36.1348ZM221.938 33.2184C222.211 33.2184 222.445 33.2788 222.64 33.3996C222.834 33.5204 222.984 33.6899 223.087 33.9081C223.19 34.1243 223.242 34.3776 223.242 34.6679V34.9689H221.03C221.035 35.3449 221.129 35.6312 221.31 35.828C221.491 36.0248 221.746 36.1232 222.076 36.1232C222.278 36.1232 222.458 36.1047 222.613 36.0676C222.769 36.0306 222.931 35.9761 223.098 35.904V36.3306C222.937 36.4027 222.776 36.4553 222.616 36.4884C222.458 36.5216 222.271 36.5381 222.055 36.5381C221.747 36.5381 221.479 36.4758 221.249 36.3511C221.021 36.2245 220.843 36.0394 220.717 35.7959C220.59 35.5523 220.527 35.2543 220.527 34.9016C220.527 34.5568 220.584 34.2588 220.699 34.0074C220.816 33.7542 220.98 33.5594 221.19 33.423C221.403 33.2866 221.652 33.2184 221.938 33.2184ZM221.932 33.6159C221.673 33.6159 221.467 33.7006 221.313 33.8701C221.159 34.0396 221.067 34.2763 221.038 34.5802H222.733C222.731 34.3893 222.701 34.2217 222.643 34.0776C222.586 33.9315 222.499 33.8185 222.383 33.7386C222.266 33.6568 222.116 33.6159 221.932 33.6159ZM226.105 31.9326V33.0694C226.105 33.1999 226.102 33.3265 226.094 33.4493C226.088 33.572 226.083 33.6675 226.079 33.7357H226.105C226.193 33.5915 226.32 33.4697 226.485 33.3704C226.651 33.271 226.862 33.2213 227.12 33.2213C227.521 33.2213 227.84 33.3606 228.078 33.6392C228.318 33.9159 228.437 34.3279 228.437 34.8753C228.437 35.2358 228.383 35.5397 228.274 35.7871C228.165 36.0345 228.011 36.2215 227.812 36.3482C227.613 36.4748 227.379 36.5381 227.108 36.5381C226.855 36.5381 226.646 36.4914 226.482 36.3979C226.321 36.3024 226.196 36.1865 226.108 36.0501H226.07L225.971 36.4797H225.62V31.9326H226.105ZM227.041 33.6275C226.809 33.6275 226.625 33.6733 226.488 33.7649C226.352 33.8545 226.254 33.9909 226.193 34.174C226.135 34.3552 226.105 34.5851 226.105 34.8637V34.89C226.105 35.2932 226.173 35.602 226.307 35.8163C226.442 36.0287 226.686 36.1348 227.041 36.1348C227.339 36.1348 227.562 36.0257 227.71 35.8076C227.86 35.5894 227.935 35.2776 227.935 34.8724C227.935 34.4594 227.861 34.1487 227.713 33.9402C227.567 33.7318 227.343 33.6275 227.041 33.6275ZM230.483 33.2243C230.865 33.2243 231.148 33.31 231.333 33.4814C231.519 33.6529 231.611 33.9266 231.611 34.3026V36.4797H231.257L231.164 36.0063H231.141C231.051 36.1232 230.957 36.2215 230.86 36.3014C230.763 36.3793 230.65 36.4388 230.521 36.4797C230.394 36.5186 230.239 36.5381 230.053 36.5381C229.859 36.5381 229.685 36.504 229.533 36.4358C229.383 36.3677 229.264 36.2644 229.177 36.1261C229.091 35.9878 229.048 35.8124 229.048 35.6001C229.048 35.2806 229.175 35.0351 229.428 34.8637C229.681 34.6922 230.067 34.5987 230.585 34.5831L231.138 34.5597V34.364C231.138 34.0873 231.078 33.8935 230.959 33.7824C230.841 33.6714 230.673 33.6159 230.457 33.6159C230.289 33.6159 230.129 33.6402 229.977 33.6889C229.826 33.7376 229.681 33.7951 229.545 33.8613L229.396 33.4931C229.54 33.4191 229.706 33.3558 229.893 33.3032C230.08 33.2506 230.277 33.2243 230.483 33.2243ZM231.132 34.9016L230.644 34.9221C230.244 34.9377 229.963 35.003 229.799 35.1179C229.636 35.2328 229.554 35.3955 229.554 35.6059C229.554 35.789 229.609 35.9244 229.72 36.0121C229.831 36.0998 229.978 36.1436 230.162 36.1436C230.446 36.1436 230.679 36.0647 230.86 35.9069C231.041 35.7491 231.132 35.5124 231.132 35.1968V34.9016ZM234.127 33.2184C234.507 33.2184 234.794 33.3119 234.989 33.499C235.184 33.684 235.281 33.9821 235.281 34.3932V36.4797H234.802V34.4253C234.802 34.1584 234.741 33.9587 234.618 33.8263C234.497 33.6938 234.311 33.6275 234.06 33.6275C233.705 33.6275 233.456 33.7279 233.312 33.9285C233.168 34.1292 233.096 34.4204 233.096 34.8023V36.4797H232.61V33.2769H233.002L233.075 33.7386H233.101C233.17 33.6256 233.256 33.5311 233.361 33.4551C233.467 33.3772 233.585 33.3188 233.715 33.2798C233.846 33.2389 233.983 33.2184 234.127 33.2184ZM237.797 33.2184C238.177 33.2184 238.465 33.3119 238.66 33.499C238.854 33.684 238.952 33.9821 238.952 34.3932V36.4797H238.473V34.4253C238.473 34.1584 238.411 33.9587 238.288 33.8263C238.168 33.6938 237.982 33.6275 237.73 33.6275C237.376 33.6275 237.126 33.7279 236.982 33.9285C236.838 34.1292 236.766 34.4204 236.766 34.8023V36.4797H236.281V33.2769H236.672L236.745 33.7386H236.772C236.84 33.6256 236.927 33.5311 237.032 33.4551C237.137 33.3772 237.255 33.3188 237.385 33.2798C237.516 33.2389 237.653 33.2184 237.797 33.2184ZM241.184 33.2184C241.457 33.2184 241.691 33.2788 241.886 33.3996C242.081 33.5204 242.23 33.6899 242.333 33.9081C242.436 34.1243 242.488 34.3776 242.488 34.6679V34.9689H240.276C240.281 35.3449 240.375 35.6312 240.556 35.828C240.737 36.0248 240.993 36.1232 241.322 36.1232C241.524 36.1232 241.704 36.1047 241.859 36.0676C242.015 36.0306 242.177 35.9761 242.345 35.904V36.3306C242.183 36.4027 242.022 36.4553 241.862 36.4884C241.705 36.5216 241.518 36.5381 241.301 36.5381C240.993 36.5381 240.725 36.4758 240.495 36.3511C240.267 36.2245 240.09 36.0394 239.963 35.7959C239.836 35.5523 239.773 35.2543 239.773 34.9016C239.773 34.5568 239.83 34.2588 239.945 34.0074C240.062 33.7542 240.226 33.5594 240.436 33.423C240.649 33.2866 240.898 33.2184 241.184 33.2184ZM241.179 33.6159C240.919 33.6159 240.713 33.7006 240.559 33.8701C240.405 34.0396 240.314 34.2763 240.284 34.5802H241.979C241.977 34.3893 241.947 34.2217 241.889 34.0776C241.832 33.9315 241.745 33.8185 241.629 33.7386C241.512 33.6568 241.362 33.6159 241.179 33.6159ZM244.767 33.2184C244.831 33.2184 244.899 33.2223 244.969 33.2301C245.039 33.236 245.101 33.2447 245.156 33.2564L245.094 33.7064C245.042 33.6928 244.983 33.6821 244.919 33.6743C244.855 33.6665 244.794 33.6626 244.738 33.6626C244.609 33.6626 244.488 33.6889 244.373 33.7415C244.26 33.7922 244.16 33.8662 244.075 33.9636C243.989 34.0591 243.922 34.175 243.873 34.3114C243.824 34.4458 243.8 34.5958 243.8 34.7614V36.4797H243.312V33.2769H243.715L243.768 33.8672H243.788C243.854 33.7483 243.934 33.6402 244.028 33.5428C244.121 33.4434 244.229 33.3645 244.352 33.3061C244.477 33.2476 244.615 33.2184 244.767 33.2184ZM249.089 33.1512C249.457 33.1512 249.754 33.2944 249.98 33.5808C250.208 33.8672 250.322 34.287 250.322 34.8403C250.322 35.2104 250.269 35.5221 250.162 35.7754C250.054 36.0267 249.906 36.2167 249.717 36.3453C249.528 36.4738 249.311 36.5381 249.066 36.5381C248.908 36.5381 248.773 36.5186 248.66 36.4797C248.547 36.4388 248.45 36.3871 248.37 36.3248C248.29 36.2605 248.221 36.1923 248.163 36.1202H248.116C248.132 36.1982 248.143 36.278 248.151 36.3599C248.159 36.4417 248.163 36.5216 248.163 36.5995V37.9174H247.271V33.2126H247.996L248.122 33.6363H248.163C248.221 33.5486 248.292 33.4678 248.376 33.3938C248.46 33.3197 248.56 33.2613 248.677 33.2184C248.796 33.1736 248.933 33.1512 249.089 33.1512ZM248.803 33.8642C248.647 33.8642 248.523 33.8964 248.432 33.9607C248.34 34.025 248.273 34.1214 248.23 34.25C248.189 34.3786 248.167 34.5412 248.163 34.738V34.8344C248.163 35.0448 248.182 35.2231 248.221 35.3692C248.262 35.5153 248.329 35.6264 248.423 35.7024C248.518 35.7783 248.649 35.8163 248.814 35.8163C248.951 35.8163 249.063 35.7783 249.151 35.7024C249.238 35.6264 249.303 35.5153 249.346 35.3692C249.391 35.2212 249.414 35.0409 249.414 34.8286C249.414 34.5091 249.364 34.2685 249.264 34.1068C249.165 33.9451 249.011 33.8642 248.803 33.8642ZM254.057 33.2126V36.4797H253.373L253.253 36.0618H253.207C253.136 36.1728 253.049 36.2634 252.944 36.3336C252.838 36.4037 252.722 36.4553 252.596 36.4884C252.469 36.5216 252.338 36.5381 252.201 36.5381C251.968 36.5381 251.764 36.4972 251.591 36.4154C251.417 36.3316 251.282 36.2021 251.184 36.0267C251.089 35.8514 251.041 35.6235 251.041 35.3429V33.2126H251.933V35.1208C251.933 35.3546 251.974 35.5309 252.058 35.6498C252.142 35.7686 252.275 35.828 252.459 35.828C252.64 35.828 252.782 35.7871 252.885 35.7053C252.988 35.6215 253.061 35.4997 253.101 35.34C253.144 35.1783 253.166 34.9815 253.166 34.7497V33.2126H254.057ZM256.339 33.1512C256.641 33.1512 256.901 33.2097 257.12 33.3265C257.338 33.4415 257.506 33.609 257.625 33.8292C257.744 34.0493 257.803 34.3182 257.803 34.6357V35.0682H255.696C255.706 35.3195 255.781 35.5173 255.921 35.6614C256.064 35.8037 256.26 35.8748 256.512 35.8748C256.72 35.8748 256.911 35.8533 257.084 35.8105C257.258 35.7676 257.436 35.7033 257.619 35.6176V36.3073C257.458 36.3871 257.288 36.4456 257.111 36.4826C256.935 36.5196 256.722 36.5381 256.471 36.5381C256.143 36.5381 255.853 36.4777 255.6 36.3569C255.349 36.2362 255.151 36.052 255.007 35.8046C254.865 35.5572 254.793 35.2455 254.793 34.8695C254.793 34.4877 254.858 34.1701 254.986 33.9168C255.117 33.6616 255.298 33.4707 255.53 33.3441C255.762 33.2155 256.031 33.1512 256.339 33.1512ZM256.345 33.7853C256.172 33.7853 256.028 33.8409 255.913 33.9519C255.8 34.063 255.734 34.2373 255.717 34.475H256.968C256.966 34.3425 256.941 34.2247 256.895 34.1214C256.85 34.0182 256.782 33.9363 256.69 33.8759C256.6 33.8155 256.485 33.7853 256.345 33.7853ZM259.563 36.5381C259.198 36.5381 258.901 36.3959 258.671 36.1115C258.443 35.8251 258.329 35.4053 258.329 34.852C258.329 34.2928 258.445 33.8701 258.677 33.5837C258.909 33.2954 259.212 33.1512 259.586 33.1512C259.742 33.1512 259.879 33.1726 259.998 33.2155C260.117 33.2584 260.219 33.3158 260.305 33.3879C260.392 33.46 260.467 33.5408 260.527 33.6305H260.556C260.544 33.5681 260.53 33.4766 260.512 33.3558C260.497 33.233 260.489 33.1074 260.489 32.9788V31.9326H261.383V36.4797H260.699L260.527 36.0559H260.489C260.432 36.1456 260.361 36.2274 260.276 36.3014C260.192 36.3735 260.091 36.431 259.975 36.4738C259.858 36.5167 259.72 36.5381 259.563 36.5381ZM259.875 35.828C260.119 35.828 260.29 35.7559 260.39 35.6118C260.491 35.4656 260.544 35.2465 260.55 34.9543V34.8578C260.55 34.5403 260.502 34.2977 260.404 34.1302C260.307 33.9607 260.126 33.8759 259.861 33.8759C259.664 33.8759 259.51 33.9607 259.399 34.1302C259.288 34.2997 259.232 34.5442 259.232 34.8637C259.232 35.1832 259.288 35.4238 259.399 35.5855C259.512 35.7472 259.671 35.828 259.875 35.828ZM263.662 33.1512C263.964 33.1512 264.225 33.2097 264.443 33.3265C264.661 33.4415 264.829 33.609 264.948 33.8292C265.067 34.0493 265.127 34.3182 265.127 34.6357V35.0682H263.02C263.029 35.3195 263.104 35.5173 263.245 35.6614C263.387 35.8037 263.584 35.8748 263.835 35.8748C264.043 35.8748 264.234 35.8533 264.408 35.8105C264.581 35.7676 264.759 35.7033 264.942 35.6176V36.3073C264.781 36.3871 264.611 36.4456 264.434 36.4826C264.259 36.5196 264.045 36.5381 263.794 36.5381C263.467 36.5381 263.176 36.4777 262.923 36.3569C262.672 36.2362 262.474 36.052 262.33 35.8046C262.188 35.5572 262.117 35.2455 262.117 34.8695C262.117 34.4877 262.181 34.1701 262.309 33.9168C262.44 33.6616 262.621 33.4707 262.853 33.3441C263.085 33.2155 263.355 33.1512 263.662 33.1512ZM263.668 33.7853C263.495 33.7853 263.351 33.8409 263.236 33.9519C263.123 34.063 263.058 34.2373 263.04 34.475H264.291C264.289 34.3425 264.264 34.2247 264.218 34.1214C264.173 34.0182 264.105 33.9363 264.013 33.8759C263.924 33.8155 263.809 33.7853 263.668 33.7853ZM268.782 35.828C268.88 35.828 268.974 35.8183 269.066 35.7988C269.159 35.7793 269.252 35.755 269.343 35.7257V36.3891C269.248 36.4319 269.129 36.467 268.987 36.4943C268.847 36.5235 268.693 36.5381 268.525 36.5381C268.33 36.5381 268.155 36.5069 267.999 36.4446C267.845 36.3803 267.723 36.2702 267.634 36.1144C267.546 35.9566 267.502 35.7374 267.502 35.4569V33.8818H267.076V33.5048L267.567 33.2067L267.824 32.5171H268.394V33.2126H269.308V33.8818H268.394V35.4569C268.394 35.5816 268.429 35.6751 268.499 35.7374C268.571 35.7978 268.665 35.828 268.782 35.828ZM271.354 33.1512C271.656 33.1512 271.916 33.2097 272.134 33.3265C272.352 33.4415 272.521 33.609 272.64 33.8292C272.759 34.0493 272.818 34.3182 272.818 34.6357V35.0682H270.711C270.721 35.3195 270.796 35.5173 270.936 35.6614C271.078 35.8037 271.275 35.8748 271.526 35.8748C271.735 35.8748 271.926 35.8533 272.099 35.8105C272.272 35.7676 272.451 35.7033 272.634 35.6176V36.3073C272.472 36.3871 272.303 36.4456 272.125 36.4826C271.95 36.5196 271.737 36.5381 271.485 36.5381C271.158 36.5381 270.868 36.4777 270.615 36.3569C270.363 36.2362 270.166 36.052 270.021 35.8046C269.879 35.5572 269.808 35.2455 269.808 34.8695C269.808 34.4877 269.872 34.1701 270.001 33.9168C270.131 33.6616 270.313 33.4707 270.544 33.3441C270.776 33.2155 271.046 33.1512 271.354 33.1512ZM271.36 33.7853C271.186 33.7853 271.042 33.8409 270.927 33.9519C270.814 34.063 270.749 34.2373 270.731 34.475H271.982C271.98 34.3425 271.956 34.2247 271.909 34.1214C271.864 34.0182 271.796 33.9363 271.705 33.8759C271.615 33.8155 271.5 33.7853 271.36 33.7853ZM275.398 33.1512C275.747 33.1512 276.028 33.2467 276.24 33.4376C276.452 33.6266 276.558 33.9305 276.558 34.3493V36.4797H275.667V34.5714C275.667 34.3377 275.624 34.1613 275.539 34.0425C275.455 33.9237 275.322 33.8642 275.141 33.8642C274.868 33.8642 274.682 33.9568 274.583 34.1419C274.484 34.3269 274.434 34.5938 274.434 34.9426V36.4797H273.543V33.2126H274.224L274.343 33.6305H274.393C274.463 33.5175 274.55 33.4259 274.653 33.3558C274.758 33.2856 274.874 33.234 275.001 33.2009C275.129 33.1678 275.262 33.1512 275.398 33.1512ZM278.823 33.1512C279.125 33.1512 279.385 33.2097 279.603 33.3265C279.822 33.4415 279.99 33.609 280.109 33.8292C280.228 34.0493 280.287 34.3182 280.287 34.6357V35.0682H278.18C278.19 35.3195 278.265 35.5173 278.405 35.6614C278.548 35.8037 278.744 35.8748 278.996 35.8748C279.204 35.8748 279.395 35.8533 279.568 35.8105C279.742 35.7676 279.92 35.7033 280.103 35.6176V36.3073C279.941 36.3871 279.772 36.4456 279.595 36.4826C279.419 36.5196 279.206 36.5381 278.955 36.5381C278.627 36.5381 278.337 36.4777 278.084 36.3569C277.833 36.2362 277.635 36.052 277.491 35.8046C277.348 35.5572 277.277 35.2455 277.277 34.8695C277.277 34.4877 277.342 34.1701 277.47 33.9168C277.601 33.6616 277.782 33.4707 278.014 33.3441C278.246 33.2155 278.515 33.1512 278.823 33.1512ZM278.829 33.7853C278.656 33.7853 278.512 33.8409 278.397 33.9519C278.284 34.063 278.218 34.2373 278.201 34.475H279.452C279.45 34.3425 279.425 34.2247 279.378 34.1214C279.334 34.0182 279.265 33.9363 279.174 33.8759C279.084 33.8155 278.969 33.7853 278.829 33.7853ZM282.836 33.1512C282.88 33.1512 282.932 33.1541 282.99 33.16C283.051 33.1639 283.099 33.1697 283.136 33.1775L283.069 34.0133C283.04 34.0035 282.998 33.9967 282.944 33.9928C282.891 33.987 282.845 33.9841 282.806 33.9841C282.691 33.9841 282.579 33.9987 282.47 34.0279C282.363 34.0571 282.267 34.1048 282.181 34.1711C282.095 34.2354 282.027 34.3211 281.976 34.4282C281.928 34.5334 281.903 34.663 281.903 34.8169V36.4797H281.012V33.2126H281.687L281.819 33.762H281.862C281.927 33.6509 282.007 33.5496 282.102 33.458C282.199 33.3645 282.309 33.2905 282.432 33.236C282.557 33.1795 282.691 33.1512 282.836 33.1512ZM286.632 33.1512C286.934 33.1512 287.194 33.2097 287.412 33.3265C287.63 33.4415 287.798 33.609 287.917 33.8292C288.036 34.0493 288.096 34.3182 288.096 34.6357V35.0682H285.989C285.998 35.3195 286.073 35.5173 286.214 35.6614C286.356 35.8037 286.553 35.8748 286.804 35.8748C287.012 35.8748 287.203 35.8533 287.377 35.8105C287.55 35.7676 287.728 35.7033 287.911 35.6176V36.3073C287.75 36.3871 287.58 36.4456 287.403 36.4826C287.228 36.5196 287.014 36.5381 286.763 36.5381C286.436 36.5381 286.145 36.4777 285.892 36.3569C285.641 36.2362 285.443 36.052 285.299 35.8046C285.157 35.5572 285.086 35.2455 285.086 34.8695C285.086 34.4877 285.15 34.1701 285.279 33.9168C285.409 33.6616 285.59 33.4707 285.822 33.3441C286.054 33.2155 286.324 33.1512 286.632 33.1512ZM286.637 33.7853C286.464 33.7853 286.32 33.8409 286.205 33.9519C286.092 34.063 286.027 34.2373 286.009 34.475H287.26C287.258 34.3425 287.234 34.2247 287.187 34.1214C287.142 34.0182 287.074 33.9363 286.982 33.8759C286.893 33.8155 286.778 33.7853 286.637 33.7853ZM287.736 31.8946V31.956C287.68 32.0106 287.606 32.0778 287.514 32.1576C287.422 32.2375 287.324 32.3213 287.219 32.409C287.114 32.4947 287.01 32.5775 286.909 32.6573C286.808 32.7353 286.719 32.8005 286.643 32.8531H286.05V32.7742C286.114 32.7002 286.188 32.6125 286.272 32.5112C286.358 32.408 286.443 32.3018 286.526 32.1927C286.61 32.0836 286.68 31.9843 286.737 31.8946H287.736ZM290.676 33.1512C291.025 33.1512 291.305 33.2467 291.518 33.4376C291.73 33.6266 291.836 33.9305 291.836 34.3493V36.4797H290.945V34.5714C290.945 34.3377 290.902 34.1613 290.816 34.0425C290.732 33.9237 290.6 33.8642 290.419 33.8642C290.146 33.8642 289.96 33.9568 289.861 34.1419C289.761 34.3269 289.712 34.5938 289.712 34.9426V36.4797H288.82V33.2126H289.501L289.621 33.6305H289.671C289.741 33.5175 289.828 33.4259 289.931 33.3558C290.036 33.2856 290.152 33.234 290.279 33.2009C290.407 33.1678 290.54 33.1512 290.676 33.1512ZM294.56 33.8818H293.788V36.4797H292.897V33.8818H292.406V33.4522L292.897 33.2126V32.973C292.897 32.6944 292.944 32.4781 293.037 32.3242C293.133 32.1684 293.266 32.0593 293.437 31.9969C293.611 31.9326 293.815 31.9005 294.051 31.9005C294.225 31.9005 294.382 31.9151 294.525 31.9443C294.667 31.9716 294.783 32.0028 294.872 32.0378L294.644 32.6924C294.576 32.671 294.502 32.6515 294.422 32.634C294.342 32.6164 294.251 32.6077 294.148 32.6077C294.023 32.6077 293.931 32.6457 293.873 32.7216C293.816 32.7957 293.788 32.8911 293.788 33.008V33.2126H294.56V33.8818ZM296.412 33.1454C296.851 33.1454 297.187 33.2408 297.421 33.4317C297.654 33.6227 297.771 33.9129 297.771 34.3026V36.4797H297.149L296.976 36.0355H296.953C296.859 36.1524 296.764 36.2478 296.667 36.3219C296.569 36.3959 296.457 36.4505 296.331 36.4855C296.204 36.5206 296.05 36.5381 295.869 36.5381C295.676 36.5381 295.503 36.5011 295.349 36.4271C295.197 36.353 295.077 36.24 294.989 36.0881C294.902 35.9342 294.858 35.7394 294.858 35.5036C294.858 35.1569 294.979 34.9016 295.223 34.738C295.467 34.5724 295.832 34.4808 296.319 34.4633L296.886 34.4458V34.3026C296.886 34.1311 296.841 34.0055 296.751 33.9256C296.662 33.8457 296.537 33.8058 296.377 33.8058C296.219 33.8058 296.065 33.8282 295.913 33.873C295.761 33.9178 295.609 33.9743 295.457 34.0425L295.162 33.4405C295.335 33.349 295.529 33.2769 295.743 33.2243C295.959 33.1717 296.182 33.1454 296.412 33.1454ZM296.886 34.9659L296.541 34.9776C296.253 34.9854 296.052 35.037 295.939 35.1325C295.828 35.228 295.772 35.3536 295.772 35.5095C295.772 35.6459 295.812 35.7433 295.892 35.8017C295.972 35.8582 296.076 35.8865 296.205 35.8865C296.396 35.8865 296.557 35.83 296.687 35.717C296.82 35.604 296.886 35.4432 296.886 35.2348V34.9659ZM300.971 35.5095C300.971 35.7316 300.918 35.9196 300.813 36.0735C300.71 36.2254 300.555 36.3414 300.349 36.4212C300.142 36.4992 299.885 36.5381 299.577 36.5381C299.349 36.5381 299.153 36.5235 298.99 36.4943C298.828 36.4651 298.664 36.4164 298.499 36.3482V35.6118C298.676 35.6916 298.866 35.7579 299.069 35.8105C299.273 35.8611 299.452 35.8865 299.606 35.8865C299.78 35.8865 299.903 35.8611 299.978 35.8105C300.054 35.7579 300.091 35.6897 300.091 35.6059C300.091 35.5514 300.076 35.5027 300.045 35.4598C300.016 35.415 299.951 35.3653 299.852 35.3108C299.753 35.2543 299.597 35.1812 299.384 35.0916C299.18 35.0059 299.011 34.9192 298.879 34.8315C298.748 34.7438 298.651 34.6406 298.587 34.5218C298.524 34.401 298.493 34.248 298.493 34.063C298.493 33.761 298.61 33.534 298.844 33.3821C299.079 33.2282 299.394 33.1512 299.788 33.1512C299.99 33.1512 300.183 33.1717 300.366 33.2126C300.551 33.2535 300.741 33.3188 300.936 33.4084L300.667 34.0513C300.505 33.9811 300.353 33.9237 300.208 33.8789C300.066 33.834 299.921 33.8116 299.773 33.8116C299.642 33.8116 299.544 33.8292 299.478 33.8642C299.412 33.8993 299.378 33.9529 299.378 34.025C299.378 34.0776 299.395 34.1243 299.428 34.1652C299.463 34.2061 299.529 34.2519 299.627 34.3026C299.726 34.3513 299.871 34.4146 300.062 34.4925C300.247 34.5685 300.408 34.6484 300.544 34.7322C300.681 34.814 300.786 34.9163 300.86 35.039C300.934 35.1598 300.971 35.3166 300.971 35.5095ZM302.558 33.2126V36.4797H301.667V33.2126H302.558ZM302.114 31.9326C302.246 31.9326 302.36 31.9638 302.456 32.0261C302.551 32.0865 302.599 32.2005 302.599 32.368C302.599 32.5336 302.551 32.6486 302.456 32.7129C302.36 32.7752 302.246 32.8064 302.114 32.8064C301.979 32.8064 301.864 32.7752 301.769 32.7129C301.675 32.6486 301.629 32.5336 301.629 32.368C301.629 32.2005 301.675 32.0865 301.769 32.0261C301.864 31.9638 301.979 31.9326 302.114 31.9326ZM305.775 35.5095C305.775 35.7316 305.723 35.9196 305.618 36.0735C305.514 36.2254 305.359 36.3414 305.153 36.4212C304.946 36.4992 304.689 36.5381 304.381 36.5381C304.153 36.5381 303.958 36.5235 303.794 36.4943C303.632 36.4651 303.469 36.4164 303.303 36.3482V35.6118C303.48 35.6916 303.67 35.7579 303.873 35.8105C304.077 35.8611 304.257 35.8865 304.411 35.8865C304.584 35.8865 304.708 35.8611 304.782 35.8105C304.858 35.7579 304.896 35.6897 304.896 35.6059C304.896 35.5514 304.88 35.5027 304.849 35.4598C304.82 35.415 304.755 35.3653 304.656 35.3108C304.557 35.2543 304.401 35.1812 304.189 35.0916C303.984 35.0059 303.815 34.9192 303.683 34.8315C303.552 34.7438 303.455 34.6406 303.391 34.5218C303.328 34.401 303.297 34.248 303.297 34.063C303.297 33.761 303.414 33.534 303.648 33.3821C303.884 33.2282 304.198 33.1512 304.592 33.1512C304.794 33.1512 304.987 33.1717 305.17 33.2126C305.355 33.2535 305.545 33.3188 305.74 33.4084L305.471 34.0513C305.31 33.9811 305.157 33.9237 305.013 33.8789C304.87 33.834 304.725 33.8116 304.577 33.8116C304.447 33.8116 304.348 33.8292 304.282 33.8642C304.216 33.8993 304.183 33.9529 304.183 34.025C304.183 34.0776 304.199 34.1243 304.232 34.1652C304.267 34.2061 304.334 34.2519 304.431 34.3026C304.53 34.3513 304.676 34.4146 304.866 34.4925C305.052 34.5685 305.212 34.6484 305.349 34.7322C305.485 34.814 305.59 34.9163 305.664 35.039C305.738 35.1598 305.775 35.3166 305.775 35.5095ZM307.564 33.2769H308.084L308.791 35.1354C308.832 35.2445 308.87 35.3497 308.905 35.451C308.94 35.5504 308.971 35.6459 308.999 35.7374C309.026 35.829 309.047 35.9176 309.063 36.0033H309.083C309.111 35.9059 309.15 35.7783 309.2 35.6205C309.251 35.4608 309.305 35.2981 309.364 35.1325L310.033 33.2769H310.556L309.162 36.9502C309.088 37.1469 309.002 37.3184 308.902 37.4645C308.805 37.6106 308.686 37.7226 308.546 37.8005C308.405 37.8804 308.236 37.9204 308.037 37.9204C307.946 37.9204 307.865 37.9145 307.795 37.9028C307.724 37.8931 307.664 37.8814 307.613 37.8678V37.4791C307.656 37.4888 307.708 37.4976 307.768 37.5054C307.831 37.5132 307.895 37.5171 307.961 37.5171C308.082 37.5171 308.186 37.4937 308.274 37.4469C308.363 37.4021 308.44 37.3359 308.505 37.2482C308.569 37.1606 308.625 37.0563 308.671 36.9355L308.847 36.4855L307.564 33.2769Z" fill="white"/>
<path d="M313.855 33.2184C314.128 33.2184 314.362 33.2788 314.557 33.3996C314.752 33.5204 314.901 33.6899 315.004 33.9081C315.107 34.1243 315.159 34.3776 315.159 34.6679V34.9689H312.947C312.952 35.3449 313.046 35.6312 313.227 35.828C313.408 36.0248 313.663 36.1232 313.993 36.1232C314.195 36.1232 314.375 36.1047 314.53 36.0676C314.686 36.0306 314.848 35.9761 315.016 35.904V36.3306C314.854 36.4027 314.693 36.4553 314.533 36.4884C314.376 36.5216 314.189 36.5381 313.972 36.5381C313.664 36.5381 313.396 36.4758 313.166 36.3511C312.938 36.2245 312.761 36.0394 312.634 35.7959C312.507 35.5523 312.444 35.2543 312.444 34.9016C312.444 34.5568 312.501 34.2588 312.616 34.0074C312.733 33.7542 312.897 33.5594 313.107 33.423C313.32 33.2866 313.569 33.2184 313.855 33.2184ZM313.85 33.6159C313.59 33.6159 313.384 33.7006 313.23 33.8701C313.076 34.0396 312.985 34.2763 312.955 34.5802H314.65C314.648 34.3893 314.618 34.2217 314.56 34.0776C314.503 33.9315 314.416 33.8185 314.3 33.7386C314.183 33.6568 314.033 33.6159 313.85 33.6159ZM317.499 33.2184C317.879 33.2184 318.167 33.3119 318.362 33.499C318.556 33.684 318.654 33.9821 318.654 34.3932V36.4797H318.175V34.4253C318.175 34.1584 318.113 33.9587 317.99 33.8263C317.87 33.6938 317.684 33.6275 317.432 33.6275C317.078 33.6275 316.828 33.7279 316.684 33.9285C316.54 34.1292 316.468 34.4204 316.468 34.8023V36.4797H315.983V33.2769H316.374L316.447 33.7386H316.474C316.542 33.6256 316.629 33.5311 316.734 33.4551C316.839 33.3772 316.957 33.3188 317.087 33.2798C317.218 33.2389 317.355 33.2184 317.499 33.2184ZM320.141 36.4797H319.653V31.9326H320.141V36.4797ZM322.365 33.2243C322.747 33.2243 323.03 33.31 323.215 33.4814C323.401 33.6529 323.493 33.9266 323.493 34.3026V36.4797H323.139L323.046 36.0063H323.023C322.933 36.1232 322.839 36.2215 322.742 36.3014C322.645 36.3793 322.532 36.4388 322.403 36.4797C322.276 36.5186 322.121 36.5381 321.935 36.5381C321.741 36.5381 321.567 36.504 321.415 36.4358C321.265 36.3677 321.146 36.2644 321.059 36.1261C320.973 35.9878 320.93 35.8124 320.93 35.6001C320.93 35.2806 321.057 35.0351 321.31 34.8637C321.563 34.6922 321.949 34.5987 322.467 34.5831L323.02 34.5597V34.364C323.02 34.0873 322.96 33.8935 322.841 33.7824C322.723 33.6714 322.555 33.6159 322.339 33.6159C322.171 33.6159 322.011 33.6402 321.859 33.6889C321.708 33.7376 321.563 33.7951 321.427 33.8613L321.278 33.4931C321.422 33.4191 321.588 33.3558 321.775 33.3032C321.962 33.2506 322.159 33.2243 322.365 33.2243ZM323.014 34.9016L322.526 34.9221C322.126 34.9377 321.845 35.003 321.681 35.1179C321.518 35.2328 321.436 35.3955 321.436 35.6059C321.436 35.789 321.491 35.9244 321.602 36.0121C321.713 36.0998 321.86 36.1436 322.044 36.1436C322.328 36.1436 322.561 36.0647 322.742 35.9069C322.923 35.7491 323.014 35.5124 323.014 35.1968V34.9016ZM325.775 36.5381C325.487 36.5381 325.233 36.4787 325.013 36.3599C324.792 36.241 324.621 36.0598 324.498 35.8163C324.376 35.5728 324.314 35.266 324.314 34.8958C324.314 34.5081 324.378 34.1915 324.507 33.9461C324.638 33.6986 324.817 33.5155 325.045 33.3967C325.273 33.2778 325.532 33.2184 325.822 33.2184C325.982 33.2184 326.136 33.235 326.284 33.2681C326.434 33.2993 326.557 33.3392 326.652 33.3879L326.506 33.7941C326.408 33.7551 326.295 33.7201 326.167 33.6889C326.04 33.6577 325.921 33.6422 325.81 33.6422C325.588 33.6422 325.403 33.6899 325.255 33.7853C325.109 33.8808 324.999 34.0211 324.925 34.2061C324.853 34.3912 324.817 34.6192 324.817 34.89C324.817 35.1491 324.852 35.3702 324.922 35.5533C324.994 35.7364 325.1 35.8767 325.241 35.9741C325.383 36.0696 325.56 36.1173 325.772 36.1173C325.942 36.1173 326.095 36.0998 326.231 36.0647C326.368 36.0277 326.491 35.9848 326.602 35.9361V36.3686C326.495 36.4232 326.375 36.4651 326.243 36.4943C326.112 36.5235 325.957 36.5381 325.775 36.5381ZM328.595 33.2184C328.868 33.2184 329.102 33.2788 329.297 33.3996C329.491 33.5204 329.641 33.6899 329.744 33.9081C329.847 34.1243 329.899 34.3776 329.899 34.6679V34.9689H327.686C327.692 35.3449 327.786 35.6312 327.967 35.828C328.148 36.0248 328.403 36.1232 328.733 36.1232C328.935 36.1232 329.115 36.1047 329.27 36.0676C329.426 36.0306 329.588 35.9761 329.755 35.904V36.3306C329.594 36.4027 329.433 36.4553 329.273 36.4884C329.115 36.5216 328.928 36.5381 328.712 36.5381C328.404 36.5381 328.136 36.4758 327.906 36.3511C327.678 36.2245 327.5 36.0394 327.374 35.7959C327.247 35.5523 327.184 35.2543 327.184 34.9016C327.184 34.5568 327.241 34.2588 327.356 34.0074C327.473 33.7542 327.637 33.5594 327.847 33.423C328.06 33.2866 328.309 33.2184 328.595 33.2184ZM328.589 33.6159C328.33 33.6159 328.124 33.7006 327.97 33.8701C327.816 34.0396 327.724 34.2763 327.695 34.5802H329.39C329.388 34.3893 329.358 34.2217 329.3 34.0776C329.243 33.9315 329.156 33.8185 329.04 33.7386C328.923 33.6568 328.773 33.6159 328.589 33.6159ZM330.65 36.1758C330.65 36.0394 330.683 35.943 330.749 35.8865C330.815 35.828 330.896 35.7988 330.992 35.7988C331.091 35.7988 331.175 35.828 331.243 35.8865C331.311 35.943 331.345 36.0394 331.345 36.1758C331.345 36.3102 331.311 36.4086 331.243 36.4709C331.175 36.5313 331.091 36.5615 330.992 36.5615C330.896 36.5615 330.815 36.5313 330.749 36.4709C330.683 36.4086 330.65 36.3102 330.65 36.1758Z" fill="white"/>
<path d="M330.211 38.9997H331.784V40.9997H330.211V38.9997Z" fill="white"/>
<rect x="545.989" y="28.4913" width="24.9884" height="11.9768" rx="2.9942" fill="#336ACC"/>
<path d="M549.96 36.9797C549.812 36.9797 549.698 36.9415 549.617 36.8651C549.541 36.7843 549.502 36.6698 549.502 36.5216V32.6882C549.502 32.54 549.541 32.4277 549.617 32.3514C549.698 32.2706 549.812 32.2301 549.96 32.2301H551.577C551.91 32.2301 552.193 32.2795 552.426 32.3783C552.66 32.4772 552.837 32.6186 552.958 32.8028C553.084 32.9869 553.147 33.207 553.147 33.463C553.147 33.7504 553.064 33.993 552.898 34.1906C552.732 34.3882 552.505 34.5207 552.217 34.5881V34.487C552.55 34.5364 552.808 34.6622 552.992 34.8643C553.176 35.0664 553.268 35.3291 553.268 35.6525C553.268 36.0747 553.125 36.4025 552.837 36.6361C552.554 36.8651 552.159 36.9797 551.651 36.9797H549.96ZM550.331 36.3262H551.544C551.849 36.3262 552.074 36.2678 552.217 36.151C552.361 36.0298 552.433 35.8501 552.433 35.6121C552.433 35.3695 552.361 35.1899 552.217 35.0731C552.074 34.9563 551.849 34.898 551.544 34.898H550.331V36.3262ZM550.331 34.2445H551.429C551.726 34.2445 551.946 34.1883 552.089 34.0761C552.238 33.9593 552.312 33.7886 552.312 33.564C552.312 33.3395 552.238 33.1711 552.089 33.0588C551.946 32.942 551.726 32.8836 551.429 32.8836H550.331V34.2445ZM555.562 37.047C555.221 37.047 554.924 36.9774 554.673 36.8382C554.421 36.699 554.226 36.5014 554.087 36.2453C553.947 35.9849 553.878 35.6794 553.878 35.3291C553.878 35.0641 553.916 34.8283 553.992 34.6217C554.073 34.4107 554.188 34.231 554.336 34.0828C554.484 33.9301 554.662 33.8156 554.868 33.7392C555.075 33.6584 555.306 33.6179 555.562 33.6179C555.903 33.6179 556.2 33.6876 556.451 33.8268C556.703 33.966 556.898 34.1636 557.038 34.4196C557.177 34.6756 557.246 34.9788 557.246 35.3291C557.246 35.5941 557.206 35.8321 557.125 36.0432C557.049 36.2543 556.936 36.4362 556.788 36.5889C556.64 36.7371 556.463 36.8517 556.256 36.9325C556.049 37.0089 555.818 37.047 555.562 37.047ZM555.562 36.407C555.728 36.407 555.874 36.3666 556 36.2858C556.126 36.2049 556.222 36.0859 556.29 35.9287C556.362 35.767 556.397 35.5672 556.397 35.3291C556.397 34.9698 556.321 34.7026 556.168 34.5274C556.016 34.3478 555.814 34.2579 555.562 34.2579C555.396 34.2579 555.25 34.2984 555.124 34.3792C554.998 34.4556 554.9 34.5746 554.828 34.7363C554.76 34.8935 554.727 35.0911 554.727 35.3291C554.727 35.6839 554.803 35.9534 554.956 36.1376C555.108 36.3172 555.311 36.407 555.562 36.407ZM559.418 37.047C559.126 37.047 558.881 36.9976 558.683 36.8988C558.49 36.8 558.346 36.6563 558.252 36.4677C558.158 36.2745 558.111 36.0365 558.111 35.7536V34.3186H557.76C557.653 34.3186 557.569 34.2916 557.511 34.2377C557.453 34.1794 557.423 34.1008 557.423 34.0019C557.423 33.8986 557.453 33.82 557.511 33.7662C557.569 33.7123 557.653 33.6853 557.76 33.6853H558.111V33.0722C558.111 32.933 558.147 32.8275 558.218 32.7556C558.295 32.6837 558.4 32.6478 558.535 32.6478C558.67 32.6478 558.773 32.6837 558.845 32.7556C558.917 32.8275 558.953 32.933 558.953 33.0722V33.6853H559.667C559.775 33.6853 559.858 33.7123 559.916 33.7662C559.975 33.82 560.004 33.8986 560.004 34.0019C560.004 34.1008 559.975 34.1794 559.916 34.2377C559.858 34.2916 559.775 34.3186 559.667 34.3186H558.953V35.7064C558.953 35.922 559 36.0837 559.094 36.1915C559.189 36.2992 559.341 36.3531 559.552 36.3531C559.629 36.3531 559.696 36.3464 559.754 36.3329C559.813 36.3195 559.864 36.3105 559.909 36.306C559.963 36.3015 560.008 36.3195 560.044 36.3599C560.08 36.3958 560.098 36.4722 560.098 36.5889C560.098 36.6788 560.082 36.7596 560.051 36.8315C560.024 36.8988 559.972 36.946 559.896 36.9729C559.838 36.9909 559.761 37.0066 559.667 37.0201C559.573 37.0381 559.489 37.047 559.418 37.047ZM561.964 37.047C561.622 37.047 561.326 36.9774 561.074 36.8382C560.823 36.699 560.627 36.5014 560.488 36.2453C560.349 35.9849 560.279 35.6794 560.279 35.3291C560.279 35.0641 560.317 34.8283 560.394 34.6217C560.475 34.4107 560.589 34.231 560.737 34.0828C560.886 33.9301 561.063 33.8156 561.27 33.7392C561.476 33.6584 561.708 33.6179 561.964 33.6179C562.305 33.6179 562.601 33.6876 562.853 33.8268C563.104 33.966 563.3 34.1636 563.439 34.4196C563.578 34.6756 563.648 34.9788 563.648 35.3291C563.648 35.5941 563.607 35.8321 563.526 36.0432C563.45 36.2543 563.338 36.4362 563.19 36.5889C563.041 36.7371 562.864 36.8517 562.657 36.9325C562.451 37.0089 562.22 37.047 561.964 37.047ZM561.964 36.407C562.13 36.407 562.276 36.3666 562.401 36.2858C562.527 36.2049 562.624 36.0859 562.691 35.9287C562.763 35.767 562.799 35.5672 562.799 35.3291C562.799 34.9698 562.723 34.7026 562.57 34.5274C562.417 34.3478 562.215 34.2579 561.964 34.2579C561.797 34.2579 561.651 34.2984 561.526 34.3792C561.4 34.4556 561.301 34.5746 561.229 34.7363C561.162 34.8935 561.128 35.0911 561.128 35.3291C561.128 35.6839 561.204 35.9534 561.357 36.1376C561.51 36.3172 561.712 36.407 561.964 36.407ZM562.28 33.207C562.235 33.2699 562.181 33.3058 562.118 33.3148C562.056 33.3238 561.995 33.3125 561.937 33.2811C561.878 33.2497 561.836 33.2047 561.809 33.1464C561.786 33.088 561.793 33.0228 561.829 32.951L562.341 31.9472C562.381 31.8618 562.435 31.8079 562.502 31.7855C562.57 31.7585 562.639 31.7541 562.711 31.772C562.783 31.79 562.844 31.8237 562.893 31.8731C562.947 31.9225 562.979 31.9831 562.988 32.055C563.001 32.1223 562.983 32.192 562.934 32.2638L562.28 33.207ZM564.761 37.0336C564.626 37.0336 564.522 36.9976 564.451 36.9258C564.379 36.8494 564.343 36.7416 564.343 36.6024V34.0558C564.343 33.9166 564.379 33.8111 564.451 33.7392C564.522 33.6673 564.624 33.6314 564.754 33.6314C564.884 33.6314 564.985 33.6673 565.057 33.7392C565.129 33.8111 565.165 33.9166 565.165 34.0558V34.514L565.091 34.3455C565.189 34.1075 565.342 33.9278 565.549 33.8066C565.76 33.6808 565.998 33.6179 566.263 33.6179C566.528 33.6179 566.746 33.6673 566.916 33.7662C567.087 33.865 567.215 34.0154 567.3 34.2175C567.386 34.4151 567.428 34.6667 567.428 34.9721V36.6024C567.428 36.7416 567.392 36.8494 567.321 36.9258C567.249 36.9976 567.145 37.0336 567.011 37.0336C566.876 37.0336 566.77 36.9976 566.694 36.9258C566.622 36.8494 566.586 36.7416 566.586 36.6024V35.0125C566.586 34.7565 566.537 34.5701 566.438 34.4533C566.344 34.3365 566.195 34.2782 565.993 34.2782C565.746 34.2782 565.549 34.3568 565.401 34.514C565.257 34.6667 565.185 34.871 565.185 35.127V36.6024C565.185 36.8898 565.043 37.0336 564.761 37.0336Z" fill="white"/>
<rect width="511" height="29.9268" transform="translate(108 44.9594)" fill="white"/>
<line x1="108" y1="74.5853" x2="619" y2="74.5853" stroke="#E6EBF0" stroke-width="0.74817"/>
<g clip-path="url(#clip3_5283_939)">
<path d="M160.081 64.6236L154.341 53.5324C153.846 52.5479 152.832 51.874 151.654 51.874H151.651C150.475 51.874 149.459 52.5479 148.964 53.5324L144.924 61.3394C144.473 60.5364 143.754 59.9065 142.885 59.566C143.854 58.8652 144.486 57.7232 144.486 56.435C144.486 54.9412 143.637 53.6488 142.397 53.0075C141.305 52.433 140.058 52.1081 138.736 52.1081H132.692C131.449 52.1081 130.445 53.1125 130.445 54.3524V65.5996C130.445 66.8395 131.449 67.844 132.692 67.844H139.228C140.488 67.844 141.687 67.5829 142.775 67.1176L143.189 66.9176C143.212 66.9062 143.234 66.8949 143.257 66.8835C143.65 67.5347 144.361 67.9731 145.179 67.9731C146.089 67.9731 146.872 67.434 147.225 66.6551C147.401 66.2437 147.798 65.9529 148.266 65.9302H155.038C155.507 65.9529 155.903 66.2437 156.079 66.6551C156.431 67.434 157.215 67.9731 158.125 67.9731C159.366 67.9731 160.37 66.9658 160.37 65.7301C160.37 65.3272 160.267 64.9499 160.08 64.625" fill="#153244"/>
</g>
<g clip-path="url(#clip4_5283_939)">
<rect width="511.349" height="110.35" transform="translate(108 74.8862)" fill="#E6EBF0"/>
<path d="M108.115 74.6439H462.589H479.961C479.961 80.3807 482.593 83.2491 485.225 86.1175C487.858 88.9859 490.49 91.8543 490.49 97.5912C490.49 103.328 487.858 106.196 485.225 109.065C482.593 111.933 479.961 114.802 479.961 120.538C479.961 126.275 482.593 129.144 485.225 132.012C487.858 134.881 490.49 137.749 490.49 143.486C490.49 149.223 487.858 152.091 485.225 154.959C482.593 157.828 479.961 160.696 479.961 166.433C479.961 172.17 482.593 175.038 485.225 177.907C487.858 180.775 490.49 183.644 490.49 189.38C490.49 195.117 487.858 197.986 485.225 200.854C482.593 203.722 479.961 206.591 479.961 212.328C479.961 218.064 482.593 220.933 485.225 223.801C487.858 226.67 490.49 229.538 490.49 235.275C490.49 241.012 487.858 243.88 485.225 246.749C482.593 249.617 479.961 252.485 479.961 258.222H462.589H462.214H108.115V74.6439Z" fill="#F3F6F9"/>
<g clip-path="url(#clip5_5283_939)">
<path d="M131.064 99.8695V95.5903H131.562V99.8695H131.064ZM134.184 96.603C134.565 96.603 134.853 96.6967 135.048 96.884C135.243 97.0694 135.341 97.3679 135.341 97.7797V99.8695H134.861V97.8119C134.861 97.5445 134.799 97.3445 134.676 97.2118C134.555 97.0791 134.369 97.0128 134.117 97.0128C133.762 97.0128 133.512 97.1133 133.368 97.3143C133.223 97.5153 133.151 97.807 133.151 98.1894V99.8695H132.665V96.6616H133.058L133.131 97.124H133.157C133.225 97.0109 133.312 96.9162 133.418 96.8401C133.523 96.7621 133.641 96.7035 133.772 96.6645C133.902 96.6235 134.04 96.603 134.184 96.603ZM136.827 96.6616V99.8695H136.342V96.6616H136.827ZM136.59 95.4615C136.67 95.4615 136.739 95.4879 136.795 95.5405C136.854 95.5913 136.883 95.6713 136.883 95.7806C136.883 95.8879 136.854 95.9679 136.795 96.0206C136.739 96.0733 136.67 96.0996 136.59 96.0996C136.506 96.0996 136.436 96.0733 136.38 96.0206C136.325 95.9679 136.298 95.8879 136.298 95.7806C136.298 95.6713 136.325 95.5913 136.38 95.5405C136.436 95.4879 136.506 95.4615 136.59 95.4615ZM139.143 99.928C138.854 99.928 138.599 99.8685 138.379 99.7495C138.158 99.6305 137.987 99.449 137.864 99.2051C137.741 98.9612 137.679 98.6538 137.679 98.2831C137.679 97.8948 137.744 97.5777 137.872 97.3318C138.003 97.084 138.183 96.9006 138.411 96.7816C138.639 96.6625 138.899 96.603 139.189 96.603C139.349 96.603 139.504 96.6196 139.652 96.6528C139.802 96.684 139.925 96.724 140.021 96.7728L139.874 97.1796C139.777 97.1406 139.664 97.1055 139.535 97.0743C139.408 97.043 139.289 97.0274 139.178 97.0274C138.955 97.0274 138.77 97.0752 138.622 97.1709C138.475 97.2665 138.365 97.407 138.291 97.5923C138.219 97.7777 138.183 98.006 138.183 98.2772C138.183 98.5368 138.218 98.7582 138.288 98.9417C138.36 99.1251 138.467 99.2656 138.607 99.3631C138.749 99.4588 138.927 99.5066 139.14 99.5066C139.309 99.5066 139.463 99.489 139.599 99.4539C139.736 99.4168 139.86 99.3739 139.971 99.3251V99.7583C139.864 99.8129 139.744 99.8549 139.611 99.8841C139.48 99.9134 139.324 99.928 139.143 99.928ZM141.218 96.6616V99.8695H140.732V96.6616H141.218ZM140.981 95.4615C141.061 95.4615 141.129 95.4879 141.186 95.5405C141.244 95.5913 141.273 95.6713 141.273 95.7806C141.273 95.8879 141.244 95.9679 141.186 96.0206C141.129 96.0733 141.061 96.0996 140.981 96.0996C140.897 96.0996 140.827 96.0733 140.77 96.0206C140.715 95.9679 140.688 95.8879 140.688 95.7806C140.688 95.6713 140.715 95.5913 140.77 95.5405C140.827 95.4879 140.897 95.4615 140.981 95.4615ZM145.014 98.2597C145.014 98.5231 144.98 98.7582 144.912 98.9651C144.843 99.1719 144.745 99.3466 144.616 99.489C144.487 99.6314 144.331 99.7407 144.148 99.8168C143.966 99.891 143.76 99.928 143.53 99.928C143.316 99.928 143.118 99.891 142.939 99.8168C142.761 99.7407 142.607 99.6314 142.476 99.489C142.348 99.3466 142.247 99.1719 142.175 98.9651C142.105 98.7582 142.07 98.5231 142.07 98.2597C142.07 97.9084 142.129 97.6099 142.248 97.364C142.367 97.1162 142.537 96.9279 142.757 96.7991C142.98 96.6684 143.244 96.603 143.551 96.603C143.843 96.603 144.099 96.6684 144.318 96.7991C144.538 96.9299 144.709 97.1191 144.83 97.367C144.953 97.6128 145.014 97.9104 145.014 98.2597ZM142.573 98.2597C142.573 98.5173 142.607 98.7407 142.675 98.93C142.744 99.1192 142.849 99.2656 142.992 99.369C143.134 99.4724 143.317 99.5241 143.542 99.5241C143.764 99.5241 143.947 99.4724 144.089 99.369C144.234 99.2656 144.34 99.1192 144.408 98.93C144.477 98.7407 144.511 98.5173 144.511 98.2597C144.511 98.0041 144.477 97.7836 144.408 97.5982C144.34 97.4109 144.235 97.2665 144.092 97.165C143.95 97.0635 143.765 97.0128 143.539 97.0128C143.205 97.0128 142.96 97.1231 142.804 97.3435C142.65 97.564 142.573 97.8694 142.573 98.2597Z" fill="#101E37"/>
<path d="M130.479 102.39H145.342V104.39H130.479V102.39Z" fill="#101E37"/>
</g>
<rect x="130.479" y="113.858" width="271.033" height="8.88632" rx="2.96211" fill="#D1D8E0"/>
<rect x="130.479" y="126.362" width="271.033" height="8.88632" rx="2.96211" fill="#D1D8E0"/>
<rect x="130.479" y="138.867" width="148.846" height="8.88632" rx="2.96211" fill="#D1D8E0"/>
</g>
<rect x="156.603" y="201.111" width="106.878" height="7.91687" rx="1.52496" fill="#E6EBF0"/>
<rect width="414.143" height="66.4792" transform="translate(156.603 218.553)" fill="white"/>
<rect x="157.263" y="219.213" width="130.628" height="65.1597" rx="4.61817" fill="white"/>
<rect x="157.263" y="219.213" width="130.628" height="65.1597" rx="4.61817" stroke="#E6EBF0" stroke-width="1.31948"/>
<rect x="164.52" y="226.47" width="24.2559" height="24.2559" rx="3.03199" fill="#ADC3EB"/>
<rect x="164.52" y="258.643" width="52.1124" height="7.91687" rx="1.52496" fill="#E6EBF0"/>
<rect x="164.52" y="269.199" width="106.878" height="7.91687" rx="1.52496" fill="#E6EBF0"/>
<rect x="298.36" y="219.213" width="130.628" height="65.1597" rx="4.61817" fill="white"/>
<rect x="298.36" y="219.213" width="130.628" height="65.1597" rx="4.61817" stroke="#E6EBF0" stroke-width="1.31948"/>
<rect x="305.617" y="226.47" width="24.2559" height="24.2559" rx="3.03199" fill="#ADC3EB"/>
<rect x="305.617" y="258.643" width="52.1124" height="7.91687" rx="1.52496" fill="#E6EBF0"/>
<rect x="305.617" y="269.198" width="106.878" height="7.91687" rx="1.52496" fill="#E6EBF0"/>
<rect x="439.458" y="219.213" width="130.628" height="65.1597" rx="4.61817" fill="white"/>
<rect x="439.458" y="219.213" width="130.628" height="65.1597" rx="4.61817" stroke="#E6EBF0" stroke-width="1.31948"/>
<rect x="446.715" y="226.47" width="24.2559" height="24.2559" rx="3.03199" fill="#ADC3EB"/>
<rect x="446.715" y="258.643" width="52.1124" height="7.91687" rx="1.52496" fill="#E6EBF0"/>
<rect x="446.715" y="269.198" width="106.878" height="7.91687" rx="1.52496" fill="#E6EBF0"/>
</g>
<rect x="107.305" y="23.305" width="512.74" height="317.968" rx="6.25522" stroke="#E6EBF0" stroke-width="1.39005"/>
</g>
<rect x="0.5" y="0.5" width="727" height="273" rx="7.5" stroke="#E6EBF0"/>
<defs>
<clipPath id="clip0_5283_939">
<rect width="728" height="274" rx="8" fill="white"/>
</clipPath>
<clipPath id="clip1_5283_939">
<rect x="108" y="24" width="511.349" height="316.578" rx="5.5602" fill="white"/>
</clipPath>
<clipPath id="clip2_5283_939">
<rect width="8.98259" height="8.98259" fill="white" transform="translate(156.281 29.9884)"/>
</clipPath>
<clipPath id="clip3_5283_939">
<rect width="29.9268" height="16.0976" fill="white" transform="translate(130.445 51.874)"/>
</clipPath>
<clipPath id="clip4_5283_939">
<rect width="511.349" height="110.35" fill="white" transform="translate(108 74.8862)"/>
</clipPath>
<clipPath id="clip5_5283_939">
<rect width="15" height="9" fill="white" transform="translate(130.479 92.8695)"/>
</clipPath>
</defs>
</svg>
