<svg width="728" height="266" viewBox="0 0 728 266" fill="none" xmlns="http://www.w3.org/2000/svg">
<rect x="1" y="1" width="726" height="264" rx="7" fill="#F3F6F9"/>
<rect x="1" y="1" width="726" height="264" rx="7" stroke="#E6EBF0" stroke-width="2"/>
<rect width="680" height="64" transform="translate(24 91)" fill="#E6EBF0"/>
<path d="M61.269 121.912C60.059 121.582 58.959 120.452 58.979 119.022C58.989 118.462 58.579 118.002 58.019 118.012C55.829 118.042 53.999 116.232 53.999 114.032C53.999 113.542 53.649 113.132 53.159 113.072C46.529 112.232 41.999 117.822 41.999 123.012C41.999 128.532 46.479 133.012 51.999 133.012C57.609 133.012 62.109 128.392 61.999 122.832C61.989 122.392 61.689 122.022 61.269 121.912ZM48.499 126.012C47.669 126.012 46.999 125.342 46.999 124.512C46.999 123.682 47.669 123.012 48.499 123.012C49.329 123.012 49.999 123.682 49.999 124.512C49.999 125.342 49.329 126.012 48.499 126.012ZM50.499 121.012C49.669 121.012 48.999 120.342 48.999 119.512C48.999 118.682 49.669 118.012 50.499 118.012C51.329 118.012 51.999 118.682 51.999 119.512C51.999 120.342 51.329 121.012 50.499 121.012ZM54.999 127.012C54.449 127.012 53.999 126.562 53.999 126.012C53.999 125.462 54.449 125.012 54.999 125.012C55.549 125.012 55.999 125.462 55.999 126.012C55.999 126.562 55.549 127.012 54.999 127.012Z" fill="#101E37"/>
<path d="M83.9219 129H77.5625V117.578H83.9219V118.75H78.8906V122.445H83.6328V123.602H78.8906V127.828H83.9219V129ZM91.7969 126.656C91.7969 127.203 91.6589 127.664 91.3828 128.039C91.112 128.409 90.7214 128.688 90.2109 128.875C89.7057 129.062 89.1016 129.156 88.3984 129.156C87.7995 129.156 87.2812 129.109 86.8438 129.016C86.4062 128.922 86.0234 128.789 85.6953 128.617V127.422C86.0443 127.594 86.4609 127.75 86.9453 127.891C87.4297 128.031 87.9245 128.102 88.4297 128.102C89.1693 128.102 89.7057 127.982 90.0391 127.742C90.3724 127.503 90.5391 127.177 90.5391 126.766C90.5391 126.531 90.4714 126.326 90.3359 126.148C90.2057 125.966 89.9844 125.792 89.6719 125.625C89.3594 125.453 88.9271 125.266 88.375 125.062C87.8281 124.854 87.3542 124.648 86.9531 124.445C86.5573 124.237 86.25 123.984 86.0312 123.688C85.8177 123.391 85.7109 123.005 85.7109 122.531C85.7109 121.807 86.0026 121.253 86.5859 120.867C87.1745 120.477 87.9453 120.281 88.8984 120.281C89.4141 120.281 89.8958 120.333 90.3438 120.438C90.7969 120.536 91.2188 120.672 91.6094 120.844L91.1719 121.883C90.8177 121.732 90.4401 121.604 90.0391 121.5C89.638 121.396 89.2292 121.344 88.8125 121.344C88.2135 121.344 87.7526 121.443 87.4297 121.641C87.112 121.839 86.9531 122.109 86.9531 122.453C86.9531 122.719 87.026 122.938 87.1719 123.109C87.3229 123.281 87.5625 123.443 87.8906 123.594C88.2188 123.745 88.651 123.922 89.1875 124.125C89.724 124.323 90.1875 124.529 90.5781 124.742C90.9688 124.951 91.2682 125.206 91.4766 125.508C91.6901 125.805 91.7969 126.188 91.7969 126.656ZM96.6484 128.094C96.862 128.094 97.0807 128.076 97.3047 128.039C97.5286 128.003 97.7109 127.958 97.8516 127.906V128.914C97.7005 128.982 97.4896 129.039 97.2188 129.086C96.9531 129.133 96.6927 129.156 96.4375 129.156C95.9844 129.156 95.5729 129.078 95.2031 128.922C94.8333 128.76 94.5365 128.49 94.3125 128.109C94.0938 127.729 93.9844 127.203 93.9844 126.531V121.453H92.7656V120.82L93.9922 120.312L94.5078 118.453H95.2891V120.438H97.7969V121.453H95.2891V126.492C95.2891 127.029 95.4115 127.43 95.6562 127.695C95.9062 127.961 96.237 128.094 96.6484 128.094ZM102.789 120.297C103.81 120.297 104.568 120.526 105.062 120.984C105.557 121.443 105.805 122.174 105.805 123.18V129H104.859L104.609 127.734H104.547C104.307 128.047 104.057 128.31 103.797 128.523C103.536 128.732 103.234 128.891 102.891 129C102.552 129.104 102.135 129.156 101.641 129.156C101.12 129.156 100.656 129.065 100.25 128.883C99.849 128.701 99.5312 128.424 99.2969 128.055C99.0677 127.685 98.9531 127.216 98.9531 126.648C98.9531 125.794 99.2917 125.138 99.9688 124.68C100.646 124.221 101.677 123.971 103.062 123.93L104.539 123.867V123.344C104.539 122.604 104.38 122.086 104.062 121.789C103.745 121.492 103.297 121.344 102.719 121.344C102.271 121.344 101.844 121.409 101.438 121.539C101.031 121.669 100.646 121.823 100.281 122L99.8828 121.016C100.268 120.818 100.711 120.648 101.211 120.508C101.711 120.367 102.237 120.297 102.789 120.297ZM104.523 124.781L103.219 124.836C102.151 124.878 101.398 125.052 100.961 125.359C100.523 125.667 100.305 126.102 100.305 126.664C100.305 127.154 100.453 127.516 100.75 127.75C101.047 127.984 101.44 128.102 101.93 128.102C102.69 128.102 103.312 127.891 103.797 127.469C104.281 127.047 104.523 126.414 104.523 125.57V124.781ZM115.68 129.156C114.596 129.156 113.737 128.786 113.102 128.047C112.471 127.307 112.156 126.208 112.156 124.75C112.156 123.276 112.479 122.164 113.125 121.414C113.771 120.659 114.63 120.281 115.703 120.281C116.156 120.281 116.552 120.341 116.891 120.461C117.229 120.581 117.521 120.742 117.766 120.945C118.01 121.143 118.216 121.37 118.383 121.625H118.477C118.456 121.464 118.435 121.242 118.414 120.961C118.393 120.68 118.383 120.451 118.383 120.273V116.844H119.68V129H118.633L118.438 127.781H118.383C118.221 128.036 118.016 128.268 117.766 128.477C117.521 128.685 117.227 128.852 116.883 128.977C116.544 129.096 116.143 129.156 115.68 129.156ZM115.883 128.078C116.799 128.078 117.448 127.818 117.828 127.297C118.208 126.776 118.398 126.003 118.398 124.977V124.742C118.398 123.654 118.216 122.818 117.852 122.234C117.492 121.651 116.836 121.359 115.883 121.359C115.086 121.359 114.49 121.667 114.094 122.281C113.698 122.891 113.5 123.724 113.5 124.781C113.5 125.833 113.695 126.646 114.086 127.219C114.482 127.792 115.081 128.078 115.883 128.078ZM125.727 120.281C126.456 120.281 127.081 120.443 127.602 120.766C128.122 121.089 128.521 121.542 128.797 122.125C129.073 122.703 129.211 123.38 129.211 124.156V124.961H123.297C123.312 125.966 123.562 126.732 124.047 127.258C124.531 127.784 125.214 128.047 126.094 128.047C126.635 128.047 127.115 127.997 127.531 127.898C127.948 127.799 128.38 127.654 128.828 127.461V128.602C128.396 128.794 127.966 128.935 127.539 129.023C127.117 129.112 126.617 129.156 126.039 129.156C125.216 129.156 124.497 128.99 123.883 128.656C123.273 128.318 122.799 127.823 122.461 127.172C122.122 126.521 121.953 125.724 121.953 124.781C121.953 123.859 122.107 123.062 122.414 122.391C122.727 121.714 123.164 121.193 123.727 120.828C124.294 120.464 124.961 120.281 125.727 120.281ZM125.711 121.344C125.018 121.344 124.466 121.57 124.055 122.023C123.643 122.477 123.398 123.109 123.32 123.922H127.852C127.846 123.411 127.766 122.964 127.609 122.578C127.458 122.188 127.227 121.885 126.914 121.672C126.602 121.453 126.201 121.344 125.711 121.344ZM136.953 126.656C136.953 127.203 136.815 127.664 136.539 128.039C136.268 128.409 135.878 128.688 135.367 128.875C134.862 129.062 134.258 129.156 133.555 129.156C132.956 129.156 132.438 129.109 132 129.016C131.562 128.922 131.18 128.789 130.852 128.617V127.422C131.201 127.594 131.617 127.75 132.102 127.891C132.586 128.031 133.081 128.102 133.586 128.102C134.326 128.102 134.862 127.982 135.195 127.742C135.529 127.503 135.695 127.177 135.695 126.766C135.695 126.531 135.628 126.326 135.492 126.148C135.362 125.966 135.141 125.792 134.828 125.625C134.516 125.453 134.083 125.266 133.531 125.062C132.984 124.854 132.51 124.648 132.109 124.445C131.714 124.237 131.406 123.984 131.188 123.688C130.974 123.391 130.867 123.005 130.867 122.531C130.867 121.807 131.159 121.253 131.742 120.867C132.331 120.477 133.102 120.281 134.055 120.281C134.57 120.281 135.052 120.333 135.5 120.438C135.953 120.536 136.375 120.672 136.766 120.844L136.328 121.883C135.974 121.732 135.596 121.604 135.195 121.5C134.794 121.396 134.385 121.344 133.969 121.344C133.37 121.344 132.909 121.443 132.586 121.641C132.268 121.839 132.109 122.109 132.109 122.453C132.109 122.719 132.182 122.938 132.328 123.109C132.479 123.281 132.719 123.443 133.047 123.594C133.375 123.745 133.807 123.922 134.344 124.125C134.88 124.323 135.344 124.529 135.734 124.742C136.125 124.951 136.424 125.206 136.633 125.508C136.846 125.805 136.953 126.188 136.953 126.656ZM142.469 129.156C141.698 129.156 141.018 128.997 140.43 128.68C139.841 128.362 139.383 127.878 139.055 127.227C138.727 126.576 138.562 125.755 138.562 124.766C138.562 123.729 138.734 122.883 139.078 122.227C139.427 121.565 139.906 121.076 140.516 120.758C141.125 120.44 141.818 120.281 142.594 120.281C143.021 120.281 143.432 120.326 143.828 120.414C144.229 120.497 144.557 120.604 144.812 120.734L144.422 121.82C144.161 121.716 143.859 121.622 143.516 121.539C143.177 121.456 142.859 121.414 142.562 121.414C141.969 121.414 141.474 121.542 141.078 121.797C140.688 122.052 140.393 122.427 140.195 122.922C140.003 123.417 139.906 124.026 139.906 124.75C139.906 125.443 140 126.034 140.188 126.523C140.38 127.013 140.664 127.388 141.039 127.648C141.419 127.904 141.893 128.031 142.461 128.031C142.914 128.031 143.323 127.984 143.688 127.891C144.052 127.792 144.383 127.677 144.68 127.547V128.703C144.393 128.849 144.073 128.961 143.719 129.039C143.37 129.117 142.953 129.156 142.469 129.156ZM150.602 120.281C150.773 120.281 150.953 120.292 151.141 120.312C151.328 120.328 151.495 120.352 151.641 120.383L151.477 121.586C151.336 121.549 151.18 121.521 151.008 121.5C150.836 121.479 150.674 121.469 150.523 121.469C150.18 121.469 149.854 121.539 149.547 121.68C149.245 121.815 148.979 122.013 148.75 122.273C148.521 122.529 148.341 122.839 148.211 123.203C148.081 123.562 148.016 123.964 148.016 124.406V129H146.711V120.438H147.789L147.93 122.016H147.984C148.161 121.698 148.375 121.409 148.625 121.148C148.875 120.883 149.164 120.672 149.492 120.516C149.826 120.359 150.195 120.281 150.602 120.281ZM154.555 120.438V129H153.258V120.438H154.555ZM153.922 117.234C154.135 117.234 154.318 117.305 154.469 117.445C154.625 117.581 154.703 117.794 154.703 118.086C154.703 118.372 154.625 118.586 154.469 118.727C154.318 118.867 154.135 118.938 153.922 118.938C153.698 118.938 153.51 118.867 153.359 118.727C153.214 118.586 153.141 118.372 153.141 118.086C153.141 117.794 153.214 117.581 153.359 117.445C153.51 117.305 153.698 117.234 153.922 117.234ZM161.328 120.281C162.396 120.281 163.247 120.648 163.883 121.383C164.518 122.117 164.836 123.221 164.836 124.695C164.836 125.669 164.69 126.487 164.398 127.148C164.107 127.81 163.695 128.31 163.164 128.648C162.638 128.987 162.016 129.156 161.297 129.156C160.844 129.156 160.445 129.096 160.102 128.977C159.758 128.857 159.464 128.695 159.219 128.492C158.974 128.289 158.771 128.068 158.609 127.828H158.516C158.531 128.031 158.549 128.276 158.57 128.562C158.596 128.849 158.609 129.099 158.609 129.312V132.828H157.305V120.438H158.375L158.547 121.703H158.609C158.776 121.443 158.979 121.206 159.219 120.992C159.458 120.773 159.75 120.602 160.094 120.477C160.443 120.346 160.854 120.281 161.328 120.281ZM161.102 121.375C160.508 121.375 160.029 121.49 159.664 121.719C159.305 121.948 159.042 122.292 158.875 122.75C158.708 123.203 158.62 123.773 158.609 124.461V124.711C158.609 125.435 158.688 126.047 158.844 126.547C159.005 127.047 159.268 127.427 159.633 127.688C160.003 127.948 160.497 128.078 161.117 128.078C161.648 128.078 162.091 127.935 162.445 127.648C162.799 127.362 163.062 126.964 163.234 126.453C163.411 125.938 163.5 125.346 163.5 124.68C163.5 123.669 163.302 122.867 162.906 122.273C162.516 121.674 161.914 121.375 161.102 121.375ZM170.531 129.156C169.76 129.156 169.081 128.997 168.492 128.68C167.904 128.362 167.445 127.878 167.117 127.227C166.789 126.576 166.625 125.755 166.625 124.766C166.625 123.729 166.797 122.883 167.141 122.227C167.49 121.565 167.969 121.076 168.578 120.758C169.188 120.44 169.88 120.281 170.656 120.281C171.083 120.281 171.495 120.326 171.891 120.414C172.292 120.497 172.62 120.604 172.875 120.734L172.484 121.82C172.224 121.716 171.922 121.622 171.578 121.539C171.24 121.456 170.922 121.414 170.625 121.414C170.031 121.414 169.536 121.542 169.141 121.797C168.75 122.052 168.456 122.427 168.258 122.922C168.065 123.417 167.969 124.026 167.969 124.75C167.969 125.443 168.062 126.034 168.25 126.523C168.443 127.013 168.727 127.388 169.102 127.648C169.482 127.904 169.956 128.031 170.523 128.031C170.977 128.031 171.385 127.984 171.75 127.891C172.115 127.792 172.445 127.677 172.742 127.547V128.703C172.456 128.849 172.135 128.961 171.781 129.039C171.432 129.117 171.016 129.156 170.531 129.156ZM176.07 120.438V129H174.773V120.438H176.07ZM175.438 117.234C175.651 117.234 175.833 117.305 175.984 117.445C176.141 117.581 176.219 117.794 176.219 118.086C176.219 118.372 176.141 118.586 175.984 118.727C175.833 118.867 175.651 118.938 175.438 118.938C175.214 118.938 175.026 118.867 174.875 118.727C174.729 118.586 174.656 118.372 174.656 118.086C174.656 117.794 174.729 117.581 174.875 117.445C175.026 117.305 175.214 117.234 175.438 117.234ZM186.203 124.703C186.203 125.406 186.112 126.034 185.93 126.586C185.747 127.138 185.484 127.604 185.141 127.984C184.797 128.365 184.38 128.656 183.891 128.859C183.406 129.057 182.857 129.156 182.242 129.156C181.669 129.156 181.143 129.057 180.664 128.859C180.19 128.656 179.779 128.365 179.43 127.984C179.086 127.604 178.818 127.138 178.625 126.586C178.438 126.034 178.344 125.406 178.344 124.703C178.344 123.766 178.503 122.969 178.82 122.312C179.138 121.651 179.591 121.148 180.18 120.805C180.773 120.456 181.479 120.281 182.297 120.281C183.078 120.281 183.76 120.456 184.344 120.805C184.932 121.154 185.388 121.659 185.711 122.32C186.039 122.977 186.203 123.771 186.203 124.703ZM179.688 124.703C179.688 125.391 179.779 125.987 179.961 126.492C180.143 126.997 180.424 127.388 180.805 127.664C181.185 127.94 181.674 128.078 182.273 128.078C182.867 128.078 183.354 127.94 183.734 127.664C184.12 127.388 184.404 126.997 184.586 126.492C184.768 125.987 184.859 125.391 184.859 124.703C184.859 124.021 184.768 123.432 184.586 122.938C184.404 122.438 184.122 122.052 183.742 121.781C183.362 121.51 182.87 121.375 182.266 121.375C181.375 121.375 180.721 121.669 180.305 122.258C179.893 122.846 179.688 123.661 179.688 124.703ZM184.539 116.742V116.898C184.435 117.049 184.292 117.232 184.109 117.445C183.932 117.654 183.734 117.875 183.516 118.109C183.297 118.339 183.076 118.557 182.852 118.766C182.633 118.974 182.43 119.154 182.242 119.305H181.375V119.117C181.542 118.919 181.724 118.682 181.922 118.406C182.12 118.125 182.312 117.839 182.5 117.547C182.688 117.25 182.844 116.982 182.969 116.742H184.539ZM192.5 120.281C193.516 120.281 194.284 120.531 194.805 121.031C195.326 121.526 195.586 122.323 195.586 123.422V129H194.305V123.508C194.305 122.794 194.141 122.26 193.812 121.906C193.49 121.552 192.992 121.375 192.32 121.375C191.372 121.375 190.706 121.643 190.32 122.18C189.935 122.716 189.742 123.495 189.742 124.516V129H188.445V120.438H189.492L189.688 121.672H189.758C189.94 121.37 190.172 121.117 190.453 120.914C190.734 120.706 191.049 120.549 191.398 120.445C191.747 120.336 192.115 120.281 192.5 120.281ZM205.461 129.156C204.378 129.156 203.518 128.786 202.883 128.047C202.253 127.307 201.938 126.208 201.938 124.75C201.938 123.276 202.26 122.164 202.906 121.414C203.552 120.659 204.411 120.281 205.484 120.281C205.938 120.281 206.333 120.341 206.672 120.461C207.01 120.581 207.302 120.742 207.547 120.945C207.792 121.143 207.997 121.37 208.164 121.625H208.258C208.237 121.464 208.216 121.242 208.195 120.961C208.174 120.68 208.164 120.451 208.164 120.273V116.844H209.461V129H208.414L208.219 127.781H208.164C208.003 128.036 207.797 128.268 207.547 128.477C207.302 128.685 207.008 128.852 206.664 128.977C206.326 129.096 205.924 129.156 205.461 129.156ZM205.664 128.078C206.581 128.078 207.229 127.818 207.609 127.297C207.99 126.776 208.18 126.003 208.18 124.977V124.742C208.18 123.654 207.997 122.818 207.633 122.234C207.273 121.651 206.617 121.359 205.664 121.359C204.867 121.359 204.271 121.667 203.875 122.281C203.479 122.891 203.281 123.724 203.281 124.781C203.281 125.833 203.477 126.646 203.867 127.219C204.263 127.792 204.862 128.078 205.664 128.078ZM215.508 120.281C216.237 120.281 216.862 120.443 217.383 120.766C217.904 121.089 218.302 121.542 218.578 122.125C218.854 122.703 218.992 123.38 218.992 124.156V124.961H213.078C213.094 125.966 213.344 126.732 213.828 127.258C214.312 127.784 214.995 128.047 215.875 128.047C216.417 128.047 216.896 127.997 217.312 127.898C217.729 127.799 218.161 127.654 218.609 127.461V128.602C218.177 128.794 217.747 128.935 217.32 129.023C216.898 129.112 216.398 129.156 215.82 129.156C214.997 129.156 214.279 128.99 213.664 128.656C213.055 128.318 212.581 127.823 212.242 127.172C211.904 126.521 211.734 125.724 211.734 124.781C211.734 123.859 211.888 123.062 212.195 122.391C212.508 121.714 212.945 121.193 213.508 120.828C214.076 120.464 214.742 120.281 215.508 120.281ZM215.492 121.344C214.799 121.344 214.247 121.57 213.836 122.023C213.424 122.477 213.18 123.109 213.102 123.922H217.633C217.628 123.411 217.547 122.964 217.391 122.578C217.24 122.188 217.008 121.885 216.695 121.672C216.383 121.453 215.982 121.344 215.492 121.344ZM226.648 116.844V119.883C226.648 120.232 226.638 120.57 226.617 120.898C226.602 121.227 226.589 121.482 226.578 121.664H226.648C226.883 121.279 227.221 120.953 227.664 120.688C228.107 120.422 228.672 120.289 229.359 120.289C230.432 120.289 231.286 120.661 231.922 121.406C232.562 122.146 232.883 123.247 232.883 124.711C232.883 125.674 232.737 126.487 232.445 127.148C232.154 127.81 231.742 128.31 231.211 128.648C230.68 128.987 230.052 129.156 229.328 129.156C228.651 129.156 228.094 129.031 227.656 128.781C227.224 128.526 226.891 128.216 226.656 127.852H226.555L226.289 129H225.352V116.844H226.648ZM229.148 121.375C228.529 121.375 228.036 121.497 227.672 121.742C227.307 121.982 227.044 122.346 226.883 122.836C226.727 123.32 226.648 123.935 226.648 124.68V124.75C226.648 125.828 226.828 126.654 227.188 127.227C227.547 127.794 228.201 128.078 229.148 128.078C229.945 128.078 230.542 127.786 230.938 127.203C231.339 126.62 231.539 125.786 231.539 124.703C231.539 123.599 231.341 122.768 230.945 122.211C230.555 121.654 229.956 121.375 229.148 121.375ZM238.352 120.297C239.372 120.297 240.13 120.526 240.625 120.984C241.12 121.443 241.367 122.174 241.367 123.18V129H240.422L240.172 127.734H240.109C239.87 128.047 239.62 128.31 239.359 128.523C239.099 128.732 238.797 128.891 238.453 129C238.115 129.104 237.698 129.156 237.203 129.156C236.682 129.156 236.219 129.065 235.812 128.883C235.411 128.701 235.094 128.424 234.859 128.055C234.63 127.685 234.516 127.216 234.516 126.648C234.516 125.794 234.854 125.138 235.531 124.68C236.208 124.221 237.24 123.971 238.625 123.93L240.102 123.867V123.344C240.102 122.604 239.943 122.086 239.625 121.789C239.307 121.492 238.859 121.344 238.281 121.344C237.833 121.344 237.406 121.409 237 121.539C236.594 121.669 236.208 121.823 235.844 122L235.445 121.016C235.831 120.818 236.273 120.648 236.773 120.508C237.273 120.367 237.799 120.297 238.352 120.297ZM240.086 124.781L238.781 124.836C237.714 124.878 236.961 125.052 236.523 125.359C236.086 125.667 235.867 126.102 235.867 126.664C235.867 127.154 236.016 127.516 236.312 127.75C236.609 127.984 237.003 128.102 237.492 128.102C238.253 128.102 238.875 127.891 239.359 127.469C239.844 127.047 240.086 126.414 240.086 125.57V124.781ZM248.094 120.281C249.109 120.281 249.878 120.531 250.398 121.031C250.919 121.526 251.18 122.323 251.18 123.422V129H249.898V123.508C249.898 122.794 249.734 122.26 249.406 121.906C249.083 121.552 248.586 121.375 247.914 121.375C246.966 121.375 246.299 121.643 245.914 122.18C245.529 122.716 245.336 123.495 245.336 124.516V129H244.039V120.438H245.086L245.281 121.672H245.352C245.534 121.37 245.766 121.117 246.047 120.914C246.328 120.706 246.643 120.549 246.992 120.445C247.341 120.336 247.708 120.281 248.094 120.281ZM257.906 120.281C258.922 120.281 259.69 120.531 260.211 121.031C260.732 121.526 260.992 122.323 260.992 123.422V129H259.711V123.508C259.711 122.794 259.547 122.26 259.219 121.906C258.896 121.552 258.398 121.375 257.727 121.375C256.779 121.375 256.112 121.643 255.727 122.18C255.341 122.716 255.148 123.495 255.148 124.516V129H253.852V120.438H254.898L255.094 121.672H255.164C255.346 121.37 255.578 121.117 255.859 120.914C256.141 120.706 256.456 120.549 256.805 120.445C257.154 120.336 257.521 120.281 257.906 120.281ZM266.961 120.281C267.69 120.281 268.315 120.443 268.836 120.766C269.357 121.089 269.755 121.542 270.031 122.125C270.307 122.703 270.445 123.38 270.445 124.156V124.961H264.531C264.547 125.966 264.797 126.732 265.281 127.258C265.766 127.784 266.448 128.047 267.328 128.047C267.87 128.047 268.349 127.997 268.766 127.898C269.182 127.799 269.615 127.654 270.062 127.461V128.602C269.63 128.794 269.201 128.935 268.773 129.023C268.352 129.112 267.852 129.156 267.273 129.156C266.451 129.156 265.732 128.99 265.117 128.656C264.508 128.318 264.034 127.823 263.695 127.172C263.357 126.521 263.188 125.724 263.188 124.781C263.188 123.859 263.341 123.062 263.648 122.391C263.961 121.714 264.398 121.193 264.961 120.828C265.529 120.464 266.195 120.281 266.961 120.281ZM266.945 121.344C266.253 121.344 265.701 121.57 265.289 122.023C264.878 122.477 264.633 123.109 264.555 123.922H269.086C269.081 123.411 269 122.964 268.844 122.578C268.693 122.188 268.461 121.885 268.148 121.672C267.836 121.453 267.435 121.344 266.945 121.344ZM276.539 120.281C276.711 120.281 276.891 120.292 277.078 120.312C277.266 120.328 277.432 120.352 277.578 120.383L277.414 121.586C277.273 121.549 277.117 121.521 276.945 121.5C276.773 121.479 276.612 121.469 276.461 121.469C276.117 121.469 275.792 121.539 275.484 121.68C275.182 121.815 274.917 122.013 274.688 122.273C274.458 122.529 274.279 122.839 274.148 123.203C274.018 123.562 273.953 123.964 273.953 124.406V129H272.648V120.438H273.727L273.867 122.016H273.922C274.099 121.698 274.312 121.409 274.562 121.148C274.812 120.883 275.102 120.672 275.43 120.516C275.763 120.359 276.133 120.281 276.539 120.281ZM288.094 120.102C289.078 120.102 289.872 120.484 290.477 121.25C291.086 122.016 291.391 123.138 291.391 124.617C291.391 125.607 291.247 126.44 290.961 127.117C290.674 127.789 290.279 128.297 289.773 128.641C289.268 128.984 288.688 129.156 288.031 129.156C287.609 129.156 287.247 129.104 286.945 129C286.643 128.891 286.385 128.753 286.172 128.586C285.958 128.414 285.773 128.232 285.617 128.039H285.492C285.534 128.247 285.565 128.461 285.586 128.68C285.607 128.898 285.617 129.112 285.617 129.32V132.844H283.234V120.266H285.172L285.508 121.398H285.617C285.773 121.164 285.964 120.948 286.188 120.75C286.411 120.552 286.68 120.396 286.992 120.281C287.31 120.161 287.677 120.102 288.094 120.102ZM287.328 122.008C286.911 122.008 286.581 122.094 286.336 122.266C286.091 122.438 285.911 122.695 285.797 123.039C285.688 123.383 285.628 123.818 285.617 124.344V124.602C285.617 125.164 285.669 125.641 285.773 126.031C285.883 126.422 286.062 126.719 286.312 126.922C286.568 127.125 286.917 127.227 287.359 127.227C287.724 127.227 288.023 127.125 288.258 126.922C288.492 126.719 288.667 126.422 288.781 126.031C288.901 125.635 288.961 125.154 288.961 124.586C288.961 123.732 288.828 123.089 288.562 122.656C288.297 122.224 287.885 122.008 287.328 122.008ZM301.375 120.266V129H299.547L299.227 127.883H299.102C298.914 128.18 298.68 128.422 298.398 128.609C298.117 128.797 297.807 128.935 297.469 129.023C297.13 129.112 296.779 129.156 296.414 129.156C295.789 129.156 295.245 129.047 294.781 128.828C294.318 128.604 293.956 128.258 293.695 127.789C293.44 127.32 293.312 126.711 293.312 125.961V120.266H295.695V125.367C295.695 125.992 295.807 126.464 296.031 126.781C296.255 127.099 296.612 127.258 297.102 127.258C297.586 127.258 297.966 127.148 298.242 126.93C298.518 126.706 298.711 126.38 298.82 125.953C298.935 125.521 298.992 124.995 298.992 124.375V120.266H301.375ZM307.477 120.102C308.284 120.102 308.979 120.258 309.562 120.57C310.146 120.878 310.596 121.326 310.914 121.914C311.232 122.503 311.391 123.221 311.391 124.07V125.227H305.758C305.784 125.898 305.984 126.427 306.359 126.812C306.74 127.193 307.266 127.383 307.938 127.383C308.495 127.383 309.005 127.326 309.469 127.211C309.932 127.096 310.409 126.924 310.898 126.695V128.539C310.466 128.753 310.013 128.909 309.539 129.008C309.07 129.107 308.5 129.156 307.828 129.156C306.953 129.156 306.177 128.995 305.5 128.672C304.828 128.349 304.299 127.857 303.914 127.195C303.534 126.534 303.344 125.701 303.344 124.695C303.344 123.674 303.516 122.826 303.859 122.148C304.208 121.466 304.693 120.956 305.312 120.617C305.932 120.273 306.654 120.102 307.477 120.102ZM307.492 121.797C307.029 121.797 306.643 121.945 306.336 122.242C306.034 122.539 305.859 123.005 305.812 123.641H309.156C309.151 123.286 309.086 122.971 308.961 122.695C308.841 122.419 308.659 122.201 308.414 122.039C308.174 121.878 307.867 121.797 307.492 121.797ZM316.094 129.156C315.12 129.156 314.326 128.776 313.711 128.016C313.102 127.25 312.797 126.128 312.797 124.648C312.797 123.154 313.107 122.023 313.727 121.258C314.346 120.487 315.156 120.102 316.156 120.102C316.573 120.102 316.94 120.159 317.258 120.273C317.576 120.388 317.849 120.542 318.078 120.734C318.312 120.927 318.51 121.143 318.672 121.383H318.75C318.719 121.216 318.68 120.971 318.633 120.648C318.591 120.32 318.57 119.984 318.57 119.641V116.844H320.961V129H319.133L318.672 127.867H318.57C318.419 128.107 318.229 128.326 318 128.523C317.776 128.716 317.508 128.87 317.195 128.984C316.883 129.099 316.516 129.156 316.094 129.156ZM316.93 127.258C317.581 127.258 318.039 127.065 318.305 126.68C318.576 126.289 318.719 125.703 318.734 124.922V124.664C318.734 123.815 318.604 123.167 318.344 122.719C318.083 122.266 317.599 122.039 316.891 122.039C316.365 122.039 315.953 122.266 315.656 122.719C315.359 123.172 315.211 123.826 315.211 124.68C315.211 125.534 315.359 126.177 315.656 126.609C315.958 127.042 316.383 127.258 316.93 127.258ZM327.055 120.102C327.862 120.102 328.557 120.258 329.141 120.57C329.724 120.878 330.174 121.326 330.492 121.914C330.81 122.503 330.969 123.221 330.969 124.07V125.227H325.336C325.362 125.898 325.562 126.427 325.938 126.812C326.318 127.193 326.844 127.383 327.516 127.383C328.073 127.383 328.583 127.326 329.047 127.211C329.51 127.096 329.987 126.924 330.477 126.695V128.539C330.044 128.753 329.591 128.909 329.117 129.008C328.648 129.107 328.078 129.156 327.406 129.156C326.531 129.156 325.755 128.995 325.078 128.672C324.406 128.349 323.878 127.857 323.492 127.195C323.112 126.534 322.922 125.701 322.922 124.695C322.922 123.674 323.094 122.826 323.438 122.148C323.786 121.466 324.271 120.956 324.891 120.617C325.51 120.273 326.232 120.102 327.055 120.102ZM327.07 121.797C326.607 121.797 326.221 121.945 325.914 122.242C325.612 122.539 325.438 123.005 325.391 123.641H328.734C328.729 123.286 328.664 122.971 328.539 122.695C328.419 122.419 328.237 122.201 327.992 122.039C327.753 121.878 327.445 121.797 327.07 121.797ZM340.742 127.258C341.003 127.258 341.255 127.232 341.5 127.18C341.75 127.128 341.997 127.062 342.242 126.984V128.758C341.987 128.872 341.669 128.966 341.289 129.039C340.914 129.117 340.503 129.156 340.055 129.156C339.534 129.156 339.065 129.073 338.648 128.906C338.237 128.734 337.911 128.44 337.672 128.023C337.438 127.602 337.32 127.016 337.32 126.266V122.055H336.18V121.047L337.492 120.25L338.18 118.406H339.703V120.266H342.148V122.055H339.703V126.266C339.703 126.599 339.797 126.849 339.984 127.016C340.177 127.177 340.43 127.258 340.742 127.258ZM347.617 120.102C348.424 120.102 349.12 120.258 349.703 120.57C350.286 120.878 350.737 121.326 351.055 121.914C351.372 122.503 351.531 123.221 351.531 124.07V125.227H345.898C345.924 125.898 346.125 126.427 346.5 126.812C346.88 127.193 347.406 127.383 348.078 127.383C348.635 127.383 349.146 127.326 349.609 127.211C350.073 127.096 350.549 126.924 351.039 126.695V128.539C350.607 128.753 350.154 128.909 349.68 129.008C349.211 129.107 348.641 129.156 347.969 129.156C347.094 129.156 346.318 128.995 345.641 128.672C344.969 128.349 344.44 127.857 344.055 127.195C343.674 126.534 343.484 125.701 343.484 124.695C343.484 123.674 343.656 122.826 344 122.148C344.349 121.466 344.833 120.956 345.453 120.617C346.073 120.273 346.794 120.102 347.617 120.102ZM347.633 121.797C347.169 121.797 346.784 121.945 346.477 122.242C346.174 122.539 346 123.005 345.953 123.641H349.297C349.292 123.286 349.227 122.971 349.102 122.695C348.982 122.419 348.799 122.201 348.555 122.039C348.315 121.878 348.008 121.797 347.633 121.797ZM358.43 120.102C359.362 120.102 360.112 120.357 360.68 120.867C361.247 121.372 361.531 122.185 361.531 123.305V129H359.148V123.898C359.148 123.273 359.034 122.802 358.805 122.484C358.581 122.167 358.227 122.008 357.742 122.008C357.013 122.008 356.516 122.255 356.25 122.75C355.984 123.245 355.852 123.958 355.852 124.891V129H353.469V120.266H355.289L355.609 121.383H355.742C355.93 121.081 356.161 120.836 356.438 120.648C356.719 120.461 357.029 120.323 357.367 120.234C357.711 120.146 358.065 120.102 358.43 120.102ZM367.586 120.102C368.393 120.102 369.089 120.258 369.672 120.57C370.255 120.878 370.706 121.326 371.023 121.914C371.341 122.503 371.5 123.221 371.5 124.07V125.227H365.867C365.893 125.898 366.094 126.427 366.469 126.812C366.849 127.193 367.375 127.383 368.047 127.383C368.604 127.383 369.115 127.326 369.578 127.211C370.042 127.096 370.518 126.924 371.008 126.695V128.539C370.576 128.753 370.122 128.909 369.648 129.008C369.18 129.107 368.609 129.156 367.938 129.156C367.062 129.156 366.286 128.995 365.609 128.672C364.938 128.349 364.409 127.857 364.023 127.195C363.643 126.534 363.453 125.701 363.453 124.695C363.453 123.674 363.625 122.826 363.969 122.148C364.318 121.466 364.802 120.956 365.422 120.617C366.042 120.273 366.763 120.102 367.586 120.102ZM367.602 121.797C367.138 121.797 366.753 121.945 366.445 122.242C366.143 122.539 365.969 123.005 365.922 123.641H369.266C369.26 123.286 369.195 122.971 369.07 122.695C368.951 122.419 368.768 122.201 368.523 122.039C368.284 121.878 367.977 121.797 367.602 121.797ZM378.312 120.102C378.432 120.102 378.57 120.109 378.727 120.125C378.888 120.135 379.018 120.151 379.117 120.172L378.938 122.406C378.859 122.38 378.747 122.362 378.602 122.352C378.461 122.336 378.339 122.328 378.234 122.328C377.927 122.328 377.628 122.367 377.336 122.445C377.049 122.523 376.792 122.651 376.562 122.828C376.333 123 376.151 123.229 376.016 123.516C375.885 123.797 375.82 124.143 375.82 124.555V129H373.438V120.266H375.242L375.594 121.734H375.711C375.883 121.438 376.096 121.167 376.352 120.922C376.612 120.672 376.906 120.474 377.234 120.328C377.568 120.177 377.927 120.102 378.312 120.102ZM388.461 120.102C389.268 120.102 389.964 120.258 390.547 120.57C391.13 120.878 391.581 121.326 391.898 121.914C392.216 122.503 392.375 123.221 392.375 124.07V125.227H386.742C386.768 125.898 386.969 126.427 387.344 126.812C387.724 127.193 388.25 127.383 388.922 127.383C389.479 127.383 389.99 127.326 390.453 127.211C390.917 127.096 391.393 126.924 391.883 126.695V128.539C391.451 128.753 390.997 128.909 390.523 129.008C390.055 129.107 389.484 129.156 388.812 129.156C387.938 129.156 387.161 128.995 386.484 128.672C385.812 128.349 385.284 127.857 384.898 127.195C384.518 126.534 384.328 125.701 384.328 124.695C384.328 123.674 384.5 122.826 384.844 122.148C385.193 121.466 385.677 120.956 386.297 120.617C386.917 120.273 387.638 120.102 388.461 120.102ZM388.477 121.797C388.013 121.797 387.628 121.945 387.32 122.242C387.018 122.539 386.844 123.005 386.797 123.641H390.141C390.135 123.286 390.07 122.971 389.945 122.695C389.826 122.419 389.643 122.201 389.398 122.039C389.159 121.878 388.852 121.797 388.477 121.797ZM391.414 116.742V116.906C391.263 117.052 391.065 117.232 390.82 117.445C390.576 117.659 390.312 117.883 390.031 118.117C389.75 118.346 389.474 118.568 389.203 118.781C388.932 118.99 388.695 119.164 388.492 119.305H386.906V119.094C387.078 118.896 387.276 118.661 387.5 118.391C387.729 118.115 387.956 117.831 388.18 117.539C388.404 117.247 388.591 116.982 388.742 116.742H391.414ZM399.273 120.102C400.206 120.102 400.956 120.357 401.523 120.867C402.091 121.372 402.375 122.185 402.375 123.305V129H399.992V123.898C399.992 123.273 399.878 122.802 399.648 122.484C399.424 122.167 399.07 122.008 398.586 122.008C397.857 122.008 397.359 122.255 397.094 122.75C396.828 123.245 396.695 123.958 396.695 124.891V129H394.312V120.266H396.133L396.453 121.383H396.586C396.773 121.081 397.005 120.836 397.281 120.648C397.562 120.461 397.872 120.323 398.211 120.234C398.555 120.146 398.909 120.102 399.273 120.102ZM409.656 122.055H407.594V129H405.211V122.055H403.898V120.906L405.211 120.266V119.625C405.211 118.88 405.336 118.302 405.586 117.891C405.841 117.474 406.198 117.182 406.656 117.016C407.12 116.844 407.667 116.758 408.297 116.758C408.76 116.758 409.182 116.797 409.562 116.875C409.943 116.948 410.253 117.031 410.492 117.125L409.883 118.875C409.701 118.818 409.503 118.766 409.289 118.719C409.076 118.672 408.831 118.648 408.555 118.648C408.221 118.648 407.977 118.75 407.82 118.953C407.669 119.151 407.594 119.406 407.594 119.719V120.266H409.656V122.055ZM414.609 120.086C415.781 120.086 416.68 120.341 417.305 120.852C417.93 121.362 418.242 122.138 418.242 123.18V129H416.578L416.117 127.812H416.055C415.805 128.125 415.549 128.38 415.289 128.578C415.029 128.776 414.729 128.922 414.391 129.016C414.052 129.109 413.641 129.156 413.156 129.156C412.641 129.156 412.177 129.057 411.766 128.859C411.359 128.661 411.039 128.359 410.805 127.953C410.57 127.542 410.453 127.021 410.453 126.391C410.453 125.464 410.779 124.781 411.43 124.344C412.081 123.901 413.057 123.656 414.359 123.609L415.875 123.562V123.18C415.875 122.721 415.755 122.385 415.516 122.172C415.276 121.958 414.943 121.852 414.516 121.852C414.094 121.852 413.68 121.911 413.273 122.031C412.867 122.151 412.461 122.302 412.055 122.484L411.266 120.875C411.729 120.63 412.247 120.438 412.82 120.297C413.398 120.156 413.995 120.086 414.609 120.086ZM415.875 124.953L414.953 124.984C414.182 125.005 413.646 125.143 413.344 125.398C413.047 125.654 412.898 125.99 412.898 126.406C412.898 126.771 413.005 127.031 413.219 127.188C413.432 127.339 413.711 127.414 414.055 127.414C414.565 127.414 414.995 127.263 415.344 126.961C415.698 126.659 415.875 126.229 415.875 125.672V124.953ZM426.797 126.406C426.797 127 426.656 127.503 426.375 127.914C426.099 128.32 425.685 128.63 425.133 128.844C424.581 129.052 423.893 129.156 423.07 129.156C422.461 129.156 421.938 129.117 421.5 129.039C421.068 128.961 420.63 128.831 420.188 128.648V126.68C420.661 126.893 421.169 127.07 421.711 127.211C422.258 127.346 422.737 127.414 423.148 127.414C423.612 127.414 423.943 127.346 424.141 127.211C424.344 127.07 424.445 126.888 424.445 126.664C424.445 126.518 424.404 126.388 424.32 126.273C424.242 126.154 424.07 126.021 423.805 125.875C423.539 125.724 423.122 125.529 422.555 125.289C422.008 125.06 421.557 124.828 421.203 124.594C420.854 124.359 420.594 124.083 420.422 123.766C420.255 123.443 420.172 123.034 420.172 122.539C420.172 121.732 420.484 121.125 421.109 120.719C421.74 120.307 422.581 120.102 423.633 120.102C424.174 120.102 424.69 120.156 425.18 120.266C425.674 120.375 426.182 120.549 426.703 120.789L425.984 122.508C425.552 122.32 425.143 122.167 424.758 122.047C424.378 121.927 423.99 121.867 423.594 121.867C423.245 121.867 422.982 121.914 422.805 122.008C422.628 122.102 422.539 122.245 422.539 122.438C422.539 122.578 422.583 122.703 422.672 122.812C422.766 122.922 422.943 123.044 423.203 123.18C423.469 123.31 423.857 123.479 424.367 123.688C424.862 123.891 425.292 124.104 425.656 124.328C426.021 124.547 426.302 124.82 426.5 125.148C426.698 125.471 426.797 125.891 426.797 126.406ZM431.039 120.266V129H428.656V120.266H431.039ZM429.852 116.844C430.206 116.844 430.51 116.927 430.766 117.094C431.021 117.255 431.148 117.56 431.148 118.008C431.148 118.451 431.021 118.758 430.766 118.93C430.51 119.096 430.206 119.18 429.852 119.18C429.492 119.18 429.185 119.096 428.93 118.93C428.68 118.758 428.555 118.451 428.555 118.008C428.555 117.56 428.68 117.255 428.93 117.094C429.185 116.927 429.492 116.844 429.852 116.844ZM439.641 126.406C439.641 127 439.5 127.503 439.219 127.914C438.943 128.32 438.529 128.63 437.977 128.844C437.424 129.052 436.737 129.156 435.914 129.156C435.305 129.156 434.781 129.117 434.344 129.039C433.911 128.961 433.474 128.831 433.031 128.648V126.68C433.505 126.893 434.013 127.07 434.555 127.211C435.102 127.346 435.581 127.414 435.992 127.414C436.456 127.414 436.786 127.346 436.984 127.211C437.188 127.07 437.289 126.888 437.289 126.664C437.289 126.518 437.247 126.388 437.164 126.273C437.086 126.154 436.914 126.021 436.648 125.875C436.383 125.724 435.966 125.529 435.398 125.289C434.852 125.06 434.401 124.828 434.047 124.594C433.698 124.359 433.438 124.083 433.266 123.766C433.099 123.443 433.016 123.034 433.016 122.539C433.016 121.732 433.328 121.125 433.953 120.719C434.583 120.307 435.424 120.102 436.477 120.102C437.018 120.102 437.534 120.156 438.023 120.266C438.518 120.375 439.026 120.549 439.547 120.789L438.828 122.508C438.396 122.32 437.987 122.167 437.602 122.047C437.221 121.927 436.833 121.867 436.438 121.867C436.089 121.867 435.826 121.914 435.648 122.008C435.471 122.102 435.383 122.245 435.383 122.438C435.383 122.578 435.427 122.703 435.516 122.812C435.609 122.922 435.786 123.044 436.047 123.18C436.312 123.31 436.701 123.479 437.211 123.688C437.706 123.891 438.135 124.104 438.5 124.328C438.865 124.547 439.146 124.82 439.344 125.148C439.542 125.471 439.641 125.891 439.641 126.406ZM444.422 120.438H445.812L447.703 125.406C447.812 125.698 447.914 125.979 448.008 126.25C448.102 126.516 448.185 126.771 448.258 127.016C448.331 127.26 448.388 127.497 448.43 127.727H448.484C448.557 127.466 448.661 127.125 448.797 126.703C448.932 126.276 449.078 125.841 449.234 125.398L451.023 120.438H452.422L448.695 130.258C448.497 130.784 448.266 131.242 448 131.633C447.74 132.023 447.422 132.323 447.047 132.531C446.672 132.745 446.219 132.852 445.688 132.852C445.443 132.852 445.227 132.836 445.039 132.805C444.852 132.779 444.69 132.747 444.555 132.711V131.672C444.669 131.698 444.807 131.721 444.969 131.742C445.135 131.763 445.307 131.773 445.484 131.773C445.807 131.773 446.086 131.711 446.32 131.586C446.56 131.466 446.766 131.289 446.938 131.055C447.109 130.82 447.258 130.542 447.383 130.219L447.852 129.016L444.422 120.438Z" fill="#101E37"/>
<path d="M461.242 120.281C461.971 120.281 462.596 120.443 463.117 120.766C463.638 121.089 464.036 121.542 464.312 122.125C464.589 122.703 464.727 123.38 464.727 124.156V124.961H458.812C458.828 125.966 459.078 126.732 459.562 127.258C460.047 127.784 460.729 128.047 461.609 128.047C462.151 128.047 462.63 127.997 463.047 127.898C463.464 127.799 463.896 127.654 464.344 127.461V128.602C463.911 128.794 463.482 128.935 463.055 129.023C462.633 129.112 462.133 129.156 461.555 129.156C460.732 129.156 460.013 128.99 459.398 128.656C458.789 128.318 458.315 127.823 457.977 127.172C457.638 126.521 457.469 125.724 457.469 124.781C457.469 123.859 457.622 123.062 457.93 122.391C458.242 121.714 458.68 121.193 459.242 120.828C459.81 120.464 460.477 120.281 461.242 120.281ZM461.227 121.344C460.534 121.344 459.982 121.57 459.57 122.023C459.159 122.477 458.914 123.109 458.836 123.922H463.367C463.362 123.411 463.281 122.964 463.125 122.578C462.974 122.188 462.742 121.885 462.43 121.672C462.117 121.453 461.716 121.344 461.227 121.344ZM470.984 120.281C472 120.281 472.768 120.531 473.289 121.031C473.81 121.526 474.07 122.323 474.07 123.422V129H472.789V123.508C472.789 122.794 472.625 122.26 472.297 121.906C471.974 121.552 471.477 121.375 470.805 121.375C469.857 121.375 469.19 121.643 468.805 122.18C468.419 122.716 468.227 123.495 468.227 124.516V129H466.93V120.438H467.977L468.172 121.672H468.242C468.424 121.37 468.656 121.117 468.938 120.914C469.219 120.706 469.534 120.549 469.883 120.445C470.232 120.336 470.599 120.281 470.984 120.281ZM478.047 129H476.742V116.844H478.047V129ZM483.992 120.297C485.013 120.297 485.771 120.526 486.266 120.984C486.76 121.443 487.008 122.174 487.008 123.18V129H486.062L485.812 127.734H485.75C485.51 128.047 485.26 128.31 485 128.523C484.74 128.732 484.438 128.891 484.094 129C483.755 129.104 483.339 129.156 482.844 129.156C482.323 129.156 481.859 129.065 481.453 128.883C481.052 128.701 480.734 128.424 480.5 128.055C480.271 127.685 480.156 127.216 480.156 126.648C480.156 125.794 480.495 125.138 481.172 124.68C481.849 124.221 482.88 123.971 484.266 123.93L485.742 123.867V123.344C485.742 122.604 485.583 122.086 485.266 121.789C484.948 121.492 484.5 121.344 483.922 121.344C483.474 121.344 483.047 121.409 482.641 121.539C482.234 121.669 481.849 121.823 481.484 122L481.086 121.016C481.471 120.818 481.914 120.648 482.414 120.508C482.914 120.367 483.44 120.297 483.992 120.297ZM485.727 124.781L484.422 124.836C483.354 124.878 482.602 125.052 482.164 125.359C481.727 125.667 481.508 126.102 481.508 126.664C481.508 127.154 481.656 127.516 481.953 127.75C482.25 127.984 482.643 128.102 483.133 128.102C483.893 128.102 484.516 127.891 485 127.469C485.484 127.047 485.727 126.414 485.727 125.57V124.781ZM493.109 129.156C492.339 129.156 491.659 128.997 491.07 128.68C490.482 128.362 490.023 127.878 489.695 127.227C489.367 126.576 489.203 125.755 489.203 124.766C489.203 123.729 489.375 122.883 489.719 122.227C490.068 121.565 490.547 121.076 491.156 120.758C491.766 120.44 492.458 120.281 493.234 120.281C493.661 120.281 494.073 120.326 494.469 120.414C494.87 120.497 495.198 120.604 495.453 120.734L495.062 121.82C494.802 121.716 494.5 121.622 494.156 121.539C493.818 121.456 493.5 121.414 493.203 121.414C492.609 121.414 492.115 121.542 491.719 121.797C491.328 122.052 491.034 122.427 490.836 122.922C490.643 123.417 490.547 124.026 490.547 124.75C490.547 125.443 490.641 126.034 490.828 126.523C491.021 127.013 491.305 127.388 491.68 127.648C492.06 127.904 492.534 128.031 493.102 128.031C493.555 128.031 493.964 127.984 494.328 127.891C494.693 127.792 495.023 127.677 495.32 127.547V128.703C495.034 128.849 494.714 128.961 494.359 129.039C494.01 129.117 493.594 129.156 493.109 129.156ZM500.648 120.281C501.378 120.281 502.003 120.443 502.523 120.766C503.044 121.089 503.443 121.542 503.719 122.125C503.995 122.703 504.133 123.38 504.133 124.156V124.961H498.219C498.234 125.966 498.484 126.732 498.969 127.258C499.453 127.784 500.135 128.047 501.016 128.047C501.557 128.047 502.036 127.997 502.453 127.898C502.87 127.799 503.302 127.654 503.75 127.461V128.602C503.318 128.794 502.888 128.935 502.461 129.023C502.039 129.112 501.539 129.156 500.961 129.156C500.138 129.156 499.419 128.99 498.805 128.656C498.195 128.318 497.721 127.823 497.383 127.172C497.044 126.521 496.875 125.724 496.875 124.781C496.875 123.859 497.029 123.062 497.336 122.391C497.648 121.714 498.086 121.193 498.648 120.828C499.216 120.464 499.883 120.281 500.648 120.281ZM500.633 121.344C499.94 121.344 499.388 121.57 498.977 122.023C498.565 122.477 498.32 123.109 498.242 123.922H502.773C502.768 123.411 502.688 122.964 502.531 122.578C502.38 122.188 502.148 121.885 501.836 121.672C501.523 121.453 501.122 121.344 500.633 121.344ZM506.141 128.188C506.141 127.823 506.229 127.565 506.406 127.414C506.583 127.258 506.799 127.18 507.055 127.18C507.32 127.18 507.544 127.258 507.727 127.414C507.909 127.565 508 127.823 508 128.188C508 128.547 507.909 128.81 507.727 128.977C507.544 129.138 507.32 129.219 507.055 129.219C506.799 129.219 506.583 129.138 506.406 128.977C506.229 128.81 506.141 128.547 506.141 128.188Z" fill="#336ACC"/>
<path d="M456.578 131.52H509.172V133.52H456.578V131.52Z" fill="#336ACC"/>
<rect x="542" y="107" width="67" height="32" rx="8" fill="#336ACC"/>
<path d="M552.61 129C552.214 129 551.908 128.898 551.692 128.694C551.488 128.478 551.386 128.172 551.386 127.776V117.534C551.386 117.138 551.488 116.838 551.692 116.634C551.908 116.418 552.214 116.31 552.61 116.31H556.93C557.818 116.31 558.574 116.442 559.198 116.706C559.822 116.97 560.296 117.348 560.62 117.84C560.956 118.332 561.124 118.92 561.124 119.604C561.124 120.372 560.902 121.02 560.458 121.548C560.014 122.076 559.408 122.43 558.64 122.61V122.34C559.528 122.472 560.218 122.808 560.71 123.348C561.202 123.888 561.448 124.59 561.448 125.454C561.448 126.582 561.064 127.458 560.296 128.082C559.54 128.694 558.484 129 557.128 129H552.61ZM553.6 127.254H556.84C557.656 127.254 558.256 127.098 558.64 126.786C559.024 126.462 559.216 125.982 559.216 125.346C559.216 124.698 559.024 124.218 558.64 123.906C558.256 123.594 557.656 123.438 556.84 123.438H553.6V127.254ZM553.6 121.692H556.534C557.326 121.692 557.914 121.542 558.298 121.242C558.694 120.93 558.892 120.474 558.892 119.874C558.892 119.274 558.694 118.824 558.298 118.524C557.914 118.212 557.326 118.056 556.534 118.056H553.6V121.692ZM567.577 129.18C566.665 129.18 565.873 128.994 565.201 128.622C564.529 128.25 564.007 127.722 563.635 127.038C563.263 126.342 563.077 125.526 563.077 124.59C563.077 123.882 563.179 123.252 563.383 122.7C563.599 122.136 563.905 121.656 564.301 121.26C564.697 120.852 565.171 120.546 565.723 120.342C566.275 120.126 566.893 120.018 567.577 120.018C568.489 120.018 569.281 120.204 569.953 120.576C570.625 120.948 571.147 121.476 571.519 122.16C571.891 122.844 572.077 123.654 572.077 124.59C572.077 125.298 571.969 125.934 571.753 126.498C571.549 127.062 571.249 127.548 570.853 127.956C570.457 128.352 569.983 128.658 569.431 128.874C568.879 129.078 568.261 129.18 567.577 129.18ZM567.577 127.47C568.021 127.47 568.411 127.362 568.747 127.146C569.083 126.93 569.341 126.612 569.521 126.192C569.713 125.76 569.809 125.226 569.809 124.59C569.809 123.63 569.605 122.916 569.197 122.448C568.789 121.968 568.249 121.728 567.577 121.728C567.133 121.728 566.743 121.836 566.407 122.052C566.071 122.256 565.807 122.574 565.615 123.006C565.435 123.426 565.345 123.954 565.345 124.59C565.345 125.538 565.549 126.258 565.957 126.75C566.365 127.23 566.905 127.47 567.577 127.47ZM577.878 129.18C577.098 129.18 576.444 129.048 575.916 128.784C575.4 128.52 575.016 128.136 574.764 127.632C574.512 127.116 574.386 126.48 574.386 125.724V121.89H573.45C573.162 121.89 572.94 121.818 572.784 121.674C572.628 121.518 572.55 121.308 572.55 121.044C572.55 120.768 572.628 120.558 572.784 120.414C572.94 120.27 573.162 120.198 573.45 120.198H574.386V118.56C574.386 118.188 574.482 117.906 574.674 117.714C574.878 117.522 575.16 117.426 575.52 117.426C575.88 117.426 576.156 117.522 576.348 117.714C576.54 117.906 576.636 118.188 576.636 118.56V120.198H578.544C578.832 120.198 579.054 120.27 579.21 120.414C579.366 120.558 579.444 120.768 579.444 121.044C579.444 121.308 579.366 121.518 579.21 121.674C579.054 121.818 578.832 121.89 578.544 121.89H576.636V125.598C576.636 126.174 576.762 126.606 577.014 126.894C577.266 127.182 577.674 127.326 578.238 127.326C578.442 127.326 578.622 127.308 578.778 127.272C578.934 127.236 579.072 127.212 579.192 127.2C579.336 127.188 579.456 127.236 579.552 127.344C579.648 127.44 579.696 127.644 579.696 127.956C579.696 128.196 579.654 128.412 579.57 128.604C579.498 128.784 579.36 128.91 579.156 128.982C579 129.03 578.796 129.072 578.544 129.108C578.292 129.156 578.07 129.18 577.878 129.18ZM584.68 129.18C583.768 129.18 582.976 128.994 582.304 128.622C581.632 128.25 581.11 127.722 580.738 127.038C580.366 126.342 580.18 125.526 580.18 124.59C580.18 123.882 580.282 123.252 580.486 122.7C580.702 122.136 581.008 121.656 581.404 121.26C581.8 120.852 582.274 120.546 582.826 120.342C583.378 120.126 583.996 120.018 584.68 120.018C585.592 120.018 586.384 120.204 587.056 120.576C587.728 120.948 588.25 121.476 588.622 122.16C588.994 122.844 589.18 123.654 589.18 124.59C589.18 125.298 589.072 125.934 588.856 126.498C588.652 127.062 588.352 127.548 587.956 127.956C587.56 128.352 587.086 128.658 586.534 128.874C585.982 129.078 585.364 129.18 584.68 129.18ZM584.68 127.47C585.124 127.47 585.514 127.362 585.85 127.146C586.186 126.93 586.444 126.612 586.624 126.192C586.816 125.76 586.912 125.226 586.912 124.59C586.912 123.63 586.708 122.916 586.3 122.448C585.892 121.968 585.352 121.728 584.68 121.728C584.236 121.728 583.846 121.836 583.51 122.052C583.174 122.256 582.91 122.574 582.718 123.006C582.538 123.426 582.448 123.954 582.448 124.59C582.448 125.538 582.652 126.258 583.06 126.75C583.468 127.23 584.008 127.47 584.68 127.47ZM585.526 118.92C585.406 119.088 585.262 119.184 585.094 119.208C584.926 119.232 584.764 119.202 584.608 119.118C584.452 119.034 584.338 118.914 584.266 118.758C584.206 118.602 584.224 118.428 584.32 118.236L585.688 115.554C585.796 115.326 585.94 115.182 586.12 115.122C586.3 115.05 586.486 115.038 586.678 115.086C586.87 115.134 587.032 115.224 587.164 115.356C587.308 115.488 587.392 115.65 587.416 115.842C587.452 116.022 587.404 116.208 587.272 116.4L585.526 118.92ZM592.153 129.144C591.793 129.144 591.517 129.048 591.325 128.856C591.133 128.652 591.037 128.364 591.037 127.992V121.188C591.037 120.816 591.133 120.534 591.325 120.342C591.517 120.15 591.787 120.054 592.135 120.054C592.483 120.054 592.753 120.15 592.945 120.342C593.137 120.534 593.233 120.816 593.233 121.188V122.412L593.035 121.962C593.299 121.326 593.707 120.846 594.259 120.522C594.823 120.186 595.459 120.018 596.167 120.018C596.875 120.018 597.457 120.15 597.913 120.414C598.369 120.678 598.711 121.08 598.939 121.62C599.167 122.148 599.281 122.82 599.281 123.636V127.992C599.281 128.364 599.185 128.652 598.993 128.856C598.801 129.048 598.525 129.144 598.165 129.144C597.805 129.144 597.523 129.048 597.319 128.856C597.127 128.652 597.031 128.364 597.031 127.992V123.744C597.031 123.06 596.899 122.562 596.635 122.25C596.383 121.938 595.987 121.782 595.447 121.782C594.787 121.782 594.259 121.992 593.863 122.412C593.479 122.82 593.287 123.366 593.287 124.05V127.992C593.287 128.76 592.909 129.144 592.153 129.144Z" fill="white"/>
<rect x="622" y="108" width="65" height="30" rx="7" stroke="#336ACC" stroke-width="2"/>
<path d="M631.61 129C631.214 129 630.908 128.898 630.692 128.694C630.488 128.478 630.386 128.172 630.386 127.776V117.534C630.386 117.138 630.488 116.838 630.692 116.634C630.908 116.418 631.214 116.31 631.61 116.31H635.93C636.818 116.31 637.574 116.442 638.198 116.706C638.822 116.97 639.296 117.348 639.62 117.84C639.956 118.332 640.124 118.92 640.124 119.604C640.124 120.372 639.902 121.02 639.458 121.548C639.014 122.076 638.408 122.43 637.64 122.61V122.34C638.528 122.472 639.218 122.808 639.71 123.348C640.202 123.888 640.448 124.59 640.448 125.454C640.448 126.582 640.064 127.458 639.296 128.082C638.54 128.694 637.484 129 636.128 129H631.61ZM632.6 127.254H635.84C636.656 127.254 637.256 127.098 637.64 126.786C638.024 126.462 638.216 125.982 638.216 125.346C638.216 124.698 638.024 124.218 637.64 123.906C637.256 123.594 636.656 123.438 635.84 123.438H632.6V127.254ZM632.6 121.692H635.534C636.326 121.692 636.914 121.542 637.298 121.242C637.694 120.93 637.892 120.474 637.892 119.874C637.892 119.274 637.694 118.824 637.298 118.524C636.914 118.212 636.326 118.056 635.534 118.056H632.6V121.692ZM646.577 129.18C645.665 129.18 644.873 128.994 644.201 128.622C643.529 128.25 643.007 127.722 642.635 127.038C642.263 126.342 642.077 125.526 642.077 124.59C642.077 123.882 642.179 123.252 642.383 122.7C642.599 122.136 642.905 121.656 643.301 121.26C643.697 120.852 644.171 120.546 644.723 120.342C645.275 120.126 645.893 120.018 646.577 120.018C647.489 120.018 648.281 120.204 648.953 120.576C649.625 120.948 650.147 121.476 650.519 122.16C650.891 122.844 651.077 123.654 651.077 124.59C651.077 125.298 650.969 125.934 650.753 126.498C650.549 127.062 650.249 127.548 649.853 127.956C649.457 128.352 648.983 128.658 648.431 128.874C647.879 129.078 647.261 129.18 646.577 129.18ZM646.577 127.47C647.021 127.47 647.411 127.362 647.747 127.146C648.083 126.93 648.341 126.612 648.521 126.192C648.713 125.76 648.809 125.226 648.809 124.59C648.809 123.63 648.605 122.916 648.197 122.448C647.789 121.968 647.249 121.728 646.577 121.728C646.133 121.728 645.743 121.836 645.407 122.052C645.071 122.256 644.807 122.574 644.615 123.006C644.435 123.426 644.345 123.954 644.345 124.59C644.345 125.538 644.549 126.258 644.957 126.75C645.365 127.23 645.905 127.47 646.577 127.47ZM656.878 129.18C656.098 129.18 655.444 129.048 654.916 128.784C654.4 128.52 654.016 128.136 653.764 127.632C653.512 127.116 653.386 126.48 653.386 125.724V121.89H652.45C652.162 121.89 651.94 121.818 651.784 121.674C651.628 121.518 651.55 121.308 651.55 121.044C651.55 120.768 651.628 120.558 651.784 120.414C651.94 120.27 652.162 120.198 652.45 120.198H653.386V118.56C653.386 118.188 653.482 117.906 653.674 117.714C653.878 117.522 654.16 117.426 654.52 117.426C654.88 117.426 655.156 117.522 655.348 117.714C655.54 117.906 655.636 118.188 655.636 118.56V120.198H657.544C657.832 120.198 658.054 120.27 658.21 120.414C658.366 120.558 658.444 120.768 658.444 121.044C658.444 121.308 658.366 121.518 658.21 121.674C658.054 121.818 657.832 121.89 657.544 121.89H655.636V125.598C655.636 126.174 655.762 126.606 656.014 126.894C656.266 127.182 656.674 127.326 657.238 127.326C657.442 127.326 657.622 127.308 657.778 127.272C657.934 127.236 658.072 127.212 658.192 127.2C658.336 127.188 658.456 127.236 658.552 127.344C658.648 127.44 658.696 127.644 658.696 127.956C658.696 128.196 658.654 128.412 658.57 128.604C658.498 128.784 658.36 128.91 658.156 128.982C658 129.03 657.796 129.072 657.544 129.108C657.292 129.156 657.07 129.18 656.878 129.18ZM663.68 129.18C662.768 129.18 661.976 128.994 661.304 128.622C660.632 128.25 660.11 127.722 659.738 127.038C659.366 126.342 659.18 125.526 659.18 124.59C659.18 123.882 659.282 123.252 659.486 122.7C659.702 122.136 660.008 121.656 660.404 121.26C660.8 120.852 661.274 120.546 661.826 120.342C662.378 120.126 662.996 120.018 663.68 120.018C664.592 120.018 665.384 120.204 666.056 120.576C666.728 120.948 667.25 121.476 667.622 122.16C667.994 122.844 668.18 123.654 668.18 124.59C668.18 125.298 668.072 125.934 667.856 126.498C667.652 127.062 667.352 127.548 666.956 127.956C666.56 128.352 666.086 128.658 665.534 128.874C664.982 129.078 664.364 129.18 663.68 129.18ZM663.68 127.47C664.124 127.47 664.514 127.362 664.85 127.146C665.186 126.93 665.444 126.612 665.624 126.192C665.816 125.76 665.912 125.226 665.912 124.59C665.912 123.63 665.708 122.916 665.3 122.448C664.892 121.968 664.352 121.728 663.68 121.728C663.236 121.728 662.846 121.836 662.51 122.052C662.174 122.256 661.91 122.574 661.718 123.006C661.538 123.426 661.448 123.954 661.448 124.59C661.448 125.538 661.652 126.258 662.06 126.75C662.468 127.23 663.008 127.47 663.68 127.47ZM664.526 118.92C664.406 119.088 664.262 119.184 664.094 119.208C663.926 119.232 663.764 119.202 663.608 119.118C663.452 119.034 663.338 118.914 663.266 118.758C663.206 118.602 663.224 118.428 663.32 118.236L664.688 115.554C664.796 115.326 664.94 115.182 665.12 115.122C665.3 115.05 665.486 115.038 665.678 115.086C665.87 115.134 666.032 115.224 666.164 115.356C666.308 115.488 666.392 115.65 666.416 115.842C666.452 116.022 666.404 116.208 666.272 116.4L664.526 118.92ZM671.153 129.144C670.793 129.144 670.517 129.048 670.325 128.856C670.133 128.652 670.037 128.364 670.037 127.992V121.188C670.037 120.816 670.133 120.534 670.325 120.342C670.517 120.15 670.787 120.054 671.135 120.054C671.483 120.054 671.753 120.15 671.945 120.342C672.137 120.534 672.233 120.816 672.233 121.188V122.412L672.035 121.962C672.299 121.326 672.707 120.846 673.259 120.522C673.823 120.186 674.459 120.018 675.167 120.018C675.875 120.018 676.457 120.15 676.913 120.414C677.369 120.678 677.711 121.08 677.939 121.62C678.167 122.148 678.281 122.82 678.281 123.636V127.992C678.281 128.364 678.185 128.652 677.993 128.856C677.801 129.048 677.525 129.144 677.165 129.144C676.805 129.144 676.523 129.048 676.319 128.856C676.127 128.652 676.031 128.364 676.031 127.992V123.744C676.031 123.06 675.899 122.562 675.635 122.25C675.383 121.938 674.987 121.782 674.447 121.782C673.787 121.782 673.259 121.992 672.863 122.412C672.479 122.82 672.287 123.366 672.287 124.05V127.992C672.287 128.76 671.909 129.144 671.153 129.144Z" fill="#336ACC"/>
<rect x="420" y="160" width="54" height="27" rx="6.63173" fill="#005E7A"/>
<path d="M432.517 176.937C432.65 176.937 432.786 176.925 432.925 176.903C433.064 176.88 433.178 176.852 433.265 176.82V177.447C433.171 177.489 433.04 177.524 432.872 177.553C432.707 177.583 432.545 177.597 432.386 177.597C432.104 177.597 431.848 177.549 431.619 177.451C431.389 177.351 431.204 177.183 431.065 176.946C430.929 176.71 430.861 176.383 430.861 175.965V172.808H430.103V172.414L430.866 172.099L431.186 170.943H431.672V172.176H433.231V172.808H431.672V175.941C431.672 176.274 431.748 176.524 431.9 176.689C432.056 176.854 432.261 176.937 432.517 176.937ZM436.335 172.089C436.97 172.089 437.441 172.232 437.748 172.516C438.056 172.801 438.21 173.256 438.21 173.881V177.5H437.622L437.467 176.713H437.428C437.279 176.907 437.123 177.071 436.961 177.204C436.8 177.333 436.612 177.432 436.398 177.5C436.188 177.565 435.928 177.597 435.621 177.597C435.297 177.597 435.009 177.54 434.756 177.427C434.507 177.314 434.309 177.142 434.164 176.912C434.021 176.682 433.95 176.391 433.95 176.038C433.95 175.507 434.16 175.099 434.581 174.814C435.002 174.529 435.644 174.374 436.505 174.348L437.423 174.309V173.983C437.423 173.524 437.324 173.201 437.127 173.017C436.929 172.832 436.651 172.74 436.291 172.74C436.013 172.74 435.747 172.78 435.495 172.861C435.242 172.942 435.002 173.038 434.776 173.148L434.528 172.536C434.768 172.413 435.043 172.308 435.354 172.22C435.665 172.133 435.992 172.089 436.335 172.089ZM437.413 174.877L436.602 174.911C435.938 174.937 435.47 175.045 435.198 175.237C434.926 175.428 434.79 175.698 434.79 176.048C434.79 176.352 434.883 176.577 435.067 176.723C435.252 176.869 435.496 176.941 435.801 176.941C436.273 176.941 436.66 176.81 436.961 176.548C437.263 176.286 437.413 175.892 437.413 175.368V174.877ZM440.677 169.942V171.832C440.677 172.049 440.671 172.259 440.658 172.463C440.648 172.667 440.64 172.826 440.634 172.939H440.677C440.823 172.699 441.033 172.497 441.309 172.332C441.584 172.167 441.935 172.084 442.363 172.084C443.03 172.084 443.561 172.316 443.956 172.779C444.354 173.239 444.553 173.923 444.553 174.833C444.553 175.432 444.463 175.938 444.281 176.349C444.1 176.76 443.844 177.071 443.514 177.281C443.184 177.492 442.793 177.597 442.343 177.597C441.922 177.597 441.576 177.519 441.304 177.364C441.035 177.205 440.828 177.013 440.682 176.786H440.619L440.454 177.5H439.871V169.942H440.677ZM442.232 172.759C441.846 172.759 441.54 172.835 441.314 172.988C441.087 173.137 440.923 173.363 440.823 173.668C440.726 173.969 440.677 174.351 440.677 174.814V174.858C440.677 175.528 440.789 176.041 441.012 176.397C441.236 176.75 441.642 176.927 442.232 176.927C442.727 176.927 443.098 176.746 443.344 176.383C443.593 176.02 443.718 175.502 443.718 174.829C443.718 174.142 443.595 173.626 443.349 173.279C443.106 172.933 442.733 172.759 442.232 172.759Z" fill="white"/>
<rect x="542" y="36" width="54" height="27" rx="6.63173" fill="#005E7A"/>
<path d="M554.517 52.9366C554.65 52.9366 554.786 52.9252 554.925 52.9026C555.064 52.8799 555.178 52.8524 555.265 52.82V53.4466C555.171 53.4887 555.04 53.5243 554.872 53.5534C554.707 53.5826 554.545 53.5971 554.386 53.5971C554.104 53.5971 553.848 53.5486 553.619 53.4514C553.389 53.351 553.204 53.1827 553.065 52.9463C552.929 52.7099 552.861 52.3828 552.861 51.9651V48.8079H552.103V48.4145L552.866 48.0988L553.186 46.9427H553.672V48.1765H555.231V48.8079H553.672V51.9408C553.672 52.2744 553.748 52.5237 553.9 52.6888C554.056 52.854 554.261 52.9366 554.517 52.9366ZM558.335 48.0891C558.97 48.0891 559.441 48.2315 559.748 48.5165C560.056 48.8014 560.21 49.2564 560.21 49.8814V53.5H559.622L559.467 52.7131H559.428C559.279 52.9074 559.123 53.0709 558.961 53.2037C558.8 53.3332 558.612 53.432 558.398 53.5C558.188 53.5648 557.928 53.5971 557.621 53.5971C557.297 53.5971 557.009 53.5405 556.756 53.4271C556.507 53.3138 556.309 53.1422 556.164 52.9123C556.021 52.6824 555.95 52.3909 555.95 52.038C555.95 51.5069 556.16 51.0989 556.581 50.814C557.002 50.529 557.644 50.3736 558.505 50.3477L559.423 50.3088V49.9834C559.423 49.5236 559.324 49.2014 559.127 49.0168C558.929 48.8322 558.651 48.7399 558.291 48.7399C558.013 48.7399 557.747 48.7804 557.495 48.8614C557.242 48.9423 557.002 49.0378 556.776 49.1479L556.528 48.5359C556.768 48.4129 557.043 48.3076 557.354 48.2202C557.665 48.1328 557.992 48.0891 558.335 48.0891ZM559.413 50.8771L558.602 50.9111C557.938 50.937 557.47 51.0455 557.198 51.2365C556.926 51.4276 556.79 51.698 556.79 52.0477C556.79 52.3521 556.883 52.5771 557.067 52.7228C557.252 52.8686 557.496 52.9414 557.801 52.9414C558.273 52.9414 558.66 52.8103 558.961 52.548C559.263 52.2857 559.413 51.8923 559.413 51.3677V50.8771ZM562.677 45.9422V47.8316C562.677 48.0486 562.671 48.2591 562.658 48.4631C562.648 48.6671 562.64 48.8257 562.634 48.9391H562.677C562.823 48.6994 563.033 48.4971 563.309 48.3319C563.584 48.1668 563.935 48.0842 564.363 48.0842C565.03 48.0842 565.561 48.3157 565.956 48.7788C566.354 49.2386 566.553 49.9235 566.553 50.8334C566.553 51.4324 566.463 51.9376 566.281 52.3488C566.1 52.7601 565.844 53.0709 565.514 53.2814C565.184 53.4919 564.793 53.5971 564.343 53.5971C563.922 53.5971 563.576 53.5194 563.304 53.364C563.035 53.2053 562.828 53.0127 562.682 52.786H562.619L562.454 53.5H561.871V45.9422H562.677ZM564.232 48.7593C563.846 48.7593 563.54 48.8354 563.314 48.9876C563.087 49.1366 562.923 49.3633 562.823 49.6676C562.726 49.9688 562.677 50.3509 562.677 50.814V50.8577C562.677 51.528 562.789 52.0412 563.012 52.3974C563.236 52.7504 563.642 52.9268 564.232 52.9268C564.727 52.9268 565.098 52.7455 565.344 52.3828C565.593 52.0202 565.718 51.5021 565.718 50.8285C565.718 50.142 565.595 49.6256 565.349 49.2791C565.106 48.9326 564.733 48.7593 564.232 48.7593Z" fill="white"/>
<rect x="429" y="205" width="44.8952" height="26.5269" rx="6.63173" fill="#005E7A"/>
<path d="M443.873 222.263H439.919V215.162H443.873V215.891H440.745V218.188H443.693V218.907H440.745V221.535H443.873V222.263ZM447.846 216.843C448.478 216.843 448.955 216.998 449.279 217.309C449.603 217.617 449.765 218.112 449.765 218.795V222.263H448.968V218.849C448.968 218.405 448.866 218.073 448.662 217.853C448.461 217.633 448.152 217.523 447.734 217.523C447.145 217.523 446.731 217.69 446.491 218.023C446.251 218.357 446.131 218.841 446.131 219.475V222.263H445.325V216.94H445.976L446.097 217.707H446.141C446.255 217.52 446.399 217.362 446.573 217.236C446.748 217.107 446.944 217.01 447.161 216.945C447.378 216.877 447.606 216.843 447.846 216.843ZM453.145 221.7C453.278 221.7 453.414 221.689 453.553 221.666C453.693 221.643 453.806 221.616 453.893 221.583V222.21C453.799 222.252 453.668 222.288 453.5 222.317C453.335 222.346 453.173 222.361 453.014 222.361C452.732 222.361 452.477 222.312 452.247 222.215C452.017 222.114 451.832 221.946 451.693 221.71C451.557 221.473 451.489 221.146 451.489 220.729V217.571H450.731V217.178L451.494 216.862L451.814 215.706H452.3V216.94H453.859V217.571H452.3V220.704C452.3 221.038 452.376 221.287 452.528 221.452C452.684 221.617 452.889 221.7 453.145 221.7ZM457.021 216.843C457.475 216.843 457.863 216.943 458.187 217.144C458.511 217.345 458.759 217.626 458.93 217.989C459.102 218.349 459.188 218.769 459.188 219.252V219.752H455.511C455.52 220.377 455.676 220.853 455.977 221.18C456.278 221.507 456.702 221.671 457.25 221.671C457.586 221.671 457.884 221.64 458.143 221.579C458.402 221.517 458.671 221.426 458.95 221.307V222.016C458.681 222.136 458.414 222.223 458.148 222.278C457.886 222.333 457.575 222.361 457.216 222.361C456.704 222.361 456.257 222.257 455.875 222.05C455.496 221.839 455.202 221.532 454.991 221.127C454.781 220.722 454.675 220.227 454.675 219.641C454.675 219.067 454.771 218.572 454.962 218.154C455.156 217.733 455.428 217.409 455.778 217.183C456.131 216.956 456.545 216.843 457.021 216.843ZM457.012 217.503C456.581 217.503 456.238 217.644 455.982 217.926C455.726 218.208 455.574 218.601 455.525 219.106H458.343C458.339 218.789 458.289 218.51 458.192 218.271C458.098 218.028 457.954 217.84 457.76 217.707C457.565 217.571 457.316 217.503 457.012 217.503ZM462.976 216.843C463.083 216.843 463.195 216.849 463.311 216.862C463.428 216.872 463.532 216.886 463.622 216.906L463.52 217.654C463.433 217.631 463.336 217.613 463.229 217.6C463.122 217.588 463.022 217.581 462.928 217.581C462.714 217.581 462.512 217.625 462.321 217.712C462.133 217.796 461.968 217.919 461.825 218.081C461.683 218.24 461.571 218.433 461.49 218.659C461.409 218.883 461.369 219.132 461.369 219.407V222.263H460.557V216.94H461.228L461.315 217.921H461.349C461.459 217.724 461.592 217.544 461.747 217.382C461.903 217.217 462.083 217.086 462.287 216.988C462.494 216.891 462.724 216.843 462.976 216.843Z" fill="white"/>
<path d="M529.375 2C529.375 1.65482 529.655 1.375 530 1.375C530.345 1.375 530.625 1.65482 530.625 2H530H529.375ZM516.558 124.442C516.314 124.198 516.314 123.802 516.558 123.558L520.536 119.581C520.78 119.337 521.175 119.337 521.419 119.581C521.663 119.825 521.663 120.22 521.419 120.464L517.884 124L521.419 127.536C521.663 127.78 521.663 128.175 521.419 128.419C521.175 128.663 520.78 128.663 520.536 128.419L516.558 124.442ZM530 2H530.625V116H530H529.375V2H530ZM522 124V124.625H517V124V123.375H522V124ZM530 116H530.625C530.625 120.763 526.763 124.625 522 124.625V124V123.375C526.073 123.375 529.375 120.073 529.375 116H530Z" fill="#005E7A"/>
<path d="M567.558 145.725C567.802 145.481 568.198 145.481 568.442 145.725L572.419 149.702C572.663 149.946 572.663 150.342 572.419 150.586C572.175 150.83 571.78 150.83 571.536 150.586L568 147.051L564.464 150.586C564.22 150.83 563.825 150.83 563.581 150.586C563.337 150.342 563.337 149.946 563.581 149.702L567.558 145.725ZM486 145H486.625V179H486H485.375V145H486ZM494 187V186.375H560V187V187.625H494V187ZM568 179H567.375V146.167H568H568.625V179H568ZM560 187V186.375C564.073 186.375 567.375 183.073 567.375 179H568H568.625C568.625 183.763 564.763 187.625 560 187.625V187ZM486 179H486.625C486.625 183.073 489.927 186.375 494 186.375V187V187.625C489.237 187.625 485.375 183.763 485.375 179H486Z" fill="#005E7A"/>
<path d="M661.558 145.725C661.802 145.481 662.198 145.481 662.442 145.725L666.419 149.702C666.663 149.946 666.663 150.342 666.419 150.586C666.175 150.83 665.78 150.83 665.536 150.586L662 147.051L658.464 150.586C658.22 150.83 657.825 150.83 657.581 150.586C657.337 150.342 657.337 149.946 657.581 149.702L661.558 145.725ZM580 145H580.625V179H580H579.375V145H580ZM588 187V186.375H654V187V187.625H588V187ZM662 179H661.375V146.167H662H662.625V179H662ZM654 187V186.375C658.073 186.375 661.375 183.073 661.375 179H662H662.625C662.625 183.763 658.763 187.625 654 187.625V187ZM580 179H580.625C580.625 183.073 583.927 186.375 588 186.375V187V187.625C583.237 187.625 579.375 183.763 579.375 179H580Z" fill="#005E7A"/>
<path d="M489.032 210.096C489.633 210.096 490.112 210.302 490.469 210.715C490.827 211.128 491.005 211.75 491.005 212.579C491.005 213.126 490.923 213.586 490.759 213.958C490.595 214.331 490.364 214.612 490.065 214.802C489.769 214.993 489.419 215.088 489.015 215.088C488.76 215.088 488.536 215.054 488.342 214.987C488.149 214.919 487.983 214.829 487.846 214.714C487.708 214.6 487.594 214.476 487.503 214.341H487.45C487.459 214.455 487.469 214.593 487.481 214.754C487.496 214.915 487.503 215.056 487.503 215.176V217.153H486.769V210.184H487.371L487.468 210.896H487.503C487.597 210.749 487.711 210.616 487.846 210.496C487.98 210.373 488.145 210.276 488.338 210.206C488.534 210.132 488.766 210.096 489.032 210.096ZM488.905 210.711C488.571 210.711 488.301 210.775 488.096 210.904C487.894 211.033 487.746 211.227 487.652 211.484C487.559 211.739 487.509 212.06 487.503 212.447V212.587C487.503 212.995 487.547 213.339 487.635 213.62C487.726 213.901 487.874 214.115 488.079 214.262C488.287 214.408 488.565 214.481 488.914 214.481C489.212 214.481 489.461 214.401 489.661 214.24C489.86 214.079 490.008 213.854 490.104 213.567C490.204 213.277 490.254 212.945 490.254 212.57C490.254 212.001 490.143 211.55 489.92 211.216C489.7 210.879 489.362 210.711 488.905 210.711ZM494.082 210.104C494.656 210.104 495.082 210.233 495.36 210.491C495.639 210.749 495.778 211.161 495.778 211.726V215H495.246L495.105 214.288H495.07C494.936 214.464 494.795 214.612 494.648 214.732C494.502 214.849 494.332 214.938 494.139 215C493.948 215.059 493.714 215.088 493.436 215.088C493.143 215.088 492.882 215.037 492.653 214.934C492.428 214.832 492.249 214.676 492.117 214.468C491.988 214.26 491.924 213.997 491.924 213.677C491.924 213.197 492.114 212.828 492.495 212.57C492.876 212.312 493.456 212.171 494.235 212.148L495.066 212.113V211.818C495.066 211.402 494.977 211.111 494.798 210.944C494.619 210.777 494.367 210.693 494.042 210.693C493.79 210.693 493.55 210.73 493.321 210.803C493.093 210.876 492.876 210.963 492.671 211.062L492.447 210.509C492.664 210.397 492.913 210.302 493.194 210.223C493.475 210.144 493.771 210.104 494.082 210.104ZM495.057 212.627L494.323 212.658C493.723 212.681 493.299 212.779 493.053 212.952C492.807 213.125 492.684 213.37 492.684 213.686C492.684 213.961 492.768 214.165 492.935 214.297C493.102 214.429 493.323 214.495 493.598 214.495C494.026 214.495 494.376 214.376 494.648 214.139C494.921 213.901 495.057 213.545 495.057 213.071V212.627ZM499.469 210.096C499.566 210.096 499.667 210.102 499.772 210.113C499.878 210.122 499.972 210.135 500.054 210.153L499.961 210.83C499.882 210.809 499.794 210.793 499.698 210.781C499.601 210.77 499.51 210.764 499.425 210.764C499.232 210.764 499.049 210.803 498.876 210.882C498.706 210.958 498.557 211.07 498.428 211.216C498.299 211.36 498.198 211.534 498.125 211.739C498.051 211.941 498.015 212.167 498.015 212.416V215H497.281V210.184H497.887L497.966 211.071H497.997C498.097 210.893 498.217 210.73 498.357 210.583C498.498 210.434 498.661 210.315 498.845 210.228C499.033 210.14 499.241 210.096 499.469 210.096ZM502.765 210.104C503.339 210.104 503.766 210.233 504.044 210.491C504.322 210.749 504.461 211.161 504.461 211.726V215H503.93L503.789 214.288H503.754C503.619 214.464 503.479 214.612 503.332 214.732C503.186 214.849 503.016 214.938 502.822 215C502.632 215.059 502.397 215.088 502.119 215.088C501.826 215.088 501.565 215.037 501.337 214.934C501.111 214.832 500.933 214.676 500.801 214.468C500.672 214.26 500.607 213.997 500.607 213.677C500.607 213.197 500.798 212.828 501.179 212.57C501.56 212.312 502.14 212.171 502.919 212.148L503.75 212.113V211.818C503.75 211.402 503.66 211.111 503.481 210.944C503.303 210.777 503.051 210.693 502.726 210.693C502.474 210.693 502.233 210.73 502.005 210.803C501.776 210.876 501.56 210.963 501.354 211.062L501.13 210.509C501.347 210.397 501.596 210.302 501.877 210.223C502.159 210.144 502.455 210.104 502.765 210.104ZM503.741 212.627L503.007 212.658C502.406 212.681 501.983 212.779 501.737 212.952C501.491 213.125 501.368 213.37 501.368 213.686C501.368 213.961 501.451 214.165 501.618 214.297C501.785 214.429 502.006 214.495 502.282 214.495C502.709 214.495 503.06 214.376 503.332 214.139C503.604 213.901 503.741 213.545 503.741 213.071V212.627ZM510.104 210.104C510.678 210.104 511.104 210.233 511.383 210.491C511.661 210.749 511.8 211.161 511.8 211.726V215H511.269L511.128 214.288H511.093C510.958 214.464 510.817 214.612 510.671 214.732C510.524 214.849 510.354 214.938 510.161 215C509.971 215.059 509.736 215.088 509.458 215.088C509.165 215.088 508.904 215.037 508.676 214.934C508.45 214.832 508.271 214.676 508.14 214.468C508.011 214.26 507.946 213.997 507.946 213.677C507.946 213.197 508.137 212.828 508.518 212.57C508.898 212.312 509.479 212.171 510.258 212.148L511.088 212.113V211.818C511.088 211.402 510.999 211.111 510.82 210.944C510.642 210.777 510.39 210.693 510.064 210.693C509.812 210.693 509.572 210.73 509.344 210.803C509.115 210.876 508.898 210.963 508.693 211.062L508.469 210.509C508.686 210.397 508.935 210.302 509.216 210.223C509.498 210.144 509.793 210.104 510.104 210.104ZM511.08 212.627L510.346 212.658C509.745 212.681 509.322 212.779 509.076 212.952C508.83 213.125 508.707 213.37 508.707 213.686C508.707 213.961 508.79 214.165 508.957 214.297C509.124 214.429 509.345 214.495 509.621 214.495C510.048 214.495 510.398 214.376 510.671 214.139C510.943 213.901 511.08 213.545 511.08 213.071V212.627ZM515.232 215.088C514.799 215.088 514.417 214.999 514.085 214.82C513.754 214.641 513.497 214.369 513.312 214.002C513.127 213.636 513.035 213.175 513.035 212.618C513.035 212.035 513.132 211.559 513.325 211.19C513.521 210.818 513.791 210.542 514.134 210.364C514.477 210.185 514.866 210.096 515.303 210.096C515.543 210.096 515.774 210.121 515.997 210.17C516.223 210.217 516.407 210.277 516.551 210.351L516.331 210.961C516.185 210.903 516.015 210.85 515.821 210.803C515.631 210.756 515.452 210.733 515.285 210.733C514.951 210.733 514.673 210.805 514.45 210.948C514.23 211.092 514.065 211.303 513.954 211.581C513.845 211.859 513.791 212.202 513.791 212.609C513.791 212.999 513.844 213.332 513.949 213.607C514.058 213.882 514.217 214.093 514.428 214.24C514.642 214.383 514.909 214.455 515.228 214.455C515.483 214.455 515.713 214.429 515.918 214.376C516.123 214.32 516.309 214.256 516.476 214.183V214.833C516.315 214.915 516.135 214.978 515.936 215.022C515.739 215.066 515.505 215.088 515.232 215.088ZM519.548 215.088C519.114 215.088 518.732 214.999 518.401 214.82C518.07 214.641 517.812 214.369 517.627 214.002C517.443 213.636 517.351 213.175 517.351 212.618C517.351 212.035 517.447 211.559 517.641 211.19C517.837 210.818 518.106 210.542 518.449 210.364C518.792 210.185 519.182 210.096 519.618 210.096C519.858 210.096 520.09 210.121 520.312 210.17C520.538 210.217 520.723 210.277 520.866 210.351L520.646 210.961C520.5 210.903 520.33 210.85 520.137 210.803C519.946 210.756 519.768 210.733 519.601 210.733C519.267 210.733 518.988 210.805 518.766 210.948C518.546 211.092 518.38 211.303 518.269 211.581C518.161 211.859 518.106 212.202 518.106 212.609C518.106 212.999 518.159 213.332 518.265 213.607C518.373 213.882 518.533 214.093 518.744 214.24C518.958 214.383 519.224 214.455 519.543 214.455C519.798 214.455 520.028 214.429 520.233 214.376C520.438 214.32 520.625 214.256 520.792 214.183V214.833C520.63 214.915 520.45 214.978 520.251 215.022C520.055 215.066 519.82 215.088 519.548 215.088ZM522.664 210.184V215H521.934V210.184H522.664ZM522.308 208.382C522.428 208.382 522.53 208.421 522.615 208.5C522.703 208.577 522.747 208.697 522.747 208.861C522.747 209.022 522.703 209.142 522.615 209.221C522.53 209.3 522.428 209.34 522.308 209.34C522.182 209.34 522.076 209.3 521.991 209.221C521.909 209.142 521.868 209.022 521.868 208.861C521.868 208.697 521.909 208.577 521.991 208.5C522.076 208.421 522.182 208.382 522.308 208.382ZM528.363 212.583C528.363 212.979 528.312 213.332 528.209 213.642C528.107 213.953 527.959 214.215 527.766 214.429C527.572 214.643 527.338 214.807 527.062 214.921C526.79 215.032 526.481 215.088 526.135 215.088C525.813 215.088 525.517 215.032 525.248 214.921C524.981 214.807 524.75 214.643 524.553 214.429C524.36 214.215 524.209 213.953 524.101 213.642C523.995 213.332 523.942 212.979 523.942 212.583C523.942 212.056 524.032 211.607 524.21 211.238C524.389 210.866 524.644 210.583 524.975 210.39C525.309 210.194 525.706 210.096 526.166 210.096C526.605 210.096 526.989 210.194 527.317 210.39C527.648 210.586 527.905 210.871 528.086 211.243C528.271 211.612 528.363 212.059 528.363 212.583ZM524.698 212.583C524.698 212.97 524.75 213.305 524.852 213.589C524.955 213.874 525.113 214.093 525.327 214.249C525.541 214.404 525.816 214.481 526.153 214.481C526.487 214.481 526.761 214.404 526.975 214.249C527.191 214.093 527.351 213.874 527.454 213.589C527.556 213.305 527.607 212.97 527.607 212.583C527.607 212.199 527.556 211.868 527.454 211.59C527.351 211.309 527.193 211.092 526.979 210.939C526.765 210.787 526.488 210.711 526.148 210.711C525.647 210.711 525.28 210.876 525.045 211.208C524.814 211.539 524.698 211.997 524.698 212.583ZM531.905 210.096C532.477 210.096 532.909 210.236 533.202 210.518C533.495 210.796 533.641 211.244 533.641 211.862V215H532.92V211.911C532.92 211.509 532.828 211.209 532.644 211.01C532.462 210.811 532.182 210.711 531.804 210.711C531.271 210.711 530.896 210.862 530.679 211.164C530.462 211.465 530.354 211.903 530.354 212.478V215H529.625V210.184H530.213L530.323 210.878H530.363C530.465 210.708 530.596 210.566 530.754 210.452C530.912 210.334 531.089 210.247 531.286 210.188C531.482 210.126 531.688 210.096 531.905 210.096ZM536.946 210.104C537.52 210.104 537.946 210.233 538.225 210.491C538.503 210.749 538.642 211.161 538.642 211.726V215H538.11L537.97 214.288H537.935C537.8 214.464 537.659 214.612 537.513 214.732C537.366 214.849 537.196 214.938 537.003 215C536.812 215.059 536.578 215.088 536.3 215.088C536.007 215.088 535.746 215.037 535.518 214.934C535.292 214.832 535.113 214.676 534.981 214.468C534.853 214.26 534.788 213.997 534.788 213.677C534.788 213.197 534.979 212.828 535.359 212.57C535.74 212.312 536.32 212.171 537.1 212.148L537.93 212.113V211.818C537.93 211.402 537.841 211.111 537.662 210.944C537.483 210.777 537.231 210.693 536.906 210.693C536.654 210.693 536.414 210.73 536.186 210.803C535.957 210.876 535.74 210.963 535.535 211.062L535.311 210.509C535.528 210.397 535.777 210.302 536.058 210.223C536.339 210.144 536.635 210.104 536.946 210.104ZM537.921 212.627L537.188 212.658C536.587 212.681 536.164 212.779 535.917 212.952C535.671 213.125 535.548 213.37 535.548 213.686C535.548 213.961 535.632 214.165 535.799 214.297C535.966 214.429 536.187 214.495 536.462 214.495C536.89 214.495 537.24 214.376 537.513 214.139C537.785 213.901 537.921 213.545 537.921 213.071V212.627ZM542.333 210.096C542.43 210.096 542.531 210.102 542.637 210.113C542.742 210.122 542.836 210.135 542.918 210.153L542.826 210.83C542.747 210.809 542.659 210.793 542.562 210.781C542.465 210.77 542.375 210.764 542.29 210.764C542.096 210.764 541.913 210.803 541.74 210.882C541.57 210.958 541.421 211.07 541.292 211.216C541.163 211.36 541.062 211.534 540.989 211.739C540.916 211.941 540.879 212.167 540.879 212.416V215H540.145V210.184H540.751L540.831 211.071H540.861C540.961 210.893 541.081 210.73 541.222 210.583C541.362 210.434 541.525 210.315 541.709 210.228C541.897 210.14 542.105 210.096 542.333 210.096ZM550.143 210.184V215H549.545L549.439 214.323H549.4C549.3 214.49 549.171 214.631 549.013 214.745C548.855 214.859 548.676 214.944 548.477 215C548.281 215.059 548.071 215.088 547.849 215.088C547.468 215.088 547.148 215.026 546.891 214.903C546.633 214.78 546.438 214.59 546.306 214.332C546.177 214.074 546.113 213.743 546.113 213.339V210.184H546.851V213.286C546.851 213.688 546.942 213.988 547.124 214.187C547.305 214.383 547.582 214.481 547.954 214.481C548.312 214.481 548.596 214.414 548.807 214.279C549.021 214.145 549.174 213.947 549.268 213.686C549.362 213.422 549.409 213.1 549.409 212.719V210.184H550.143ZM553.966 210.096C554.537 210.096 554.969 210.236 555.262 210.518C555.555 210.796 555.702 211.244 555.702 211.862V215H554.981V211.911C554.981 211.509 554.889 211.209 554.704 211.01C554.522 210.811 554.243 210.711 553.865 210.711C553.332 210.711 552.957 210.862 552.74 211.164C552.523 211.465 552.415 211.903 552.415 212.478V215H551.685V210.184H552.274L552.384 210.878H552.423C552.526 210.708 552.656 210.566 552.814 210.452C552.973 210.334 553.15 210.247 553.346 210.188C553.542 210.126 553.749 210.096 553.966 210.096ZM488.624 222.096C489.034 222.096 489.385 222.187 489.678 222.368C489.971 222.55 490.195 222.805 490.351 223.133C490.506 223.458 490.583 223.839 490.583 224.275V224.728H487.257C487.266 225.293 487.406 225.724 487.679 226.02C487.951 226.316 488.335 226.464 488.83 226.464C489.135 226.464 489.404 226.436 489.639 226.38C489.873 226.325 490.116 226.243 490.368 226.134V226.776C490.125 226.884 489.883 226.963 489.643 227.013C489.406 227.063 489.125 227.088 488.799 227.088C488.336 227.088 487.932 226.994 487.586 226.807C487.244 226.616 486.977 226.338 486.787 225.972C486.596 225.605 486.501 225.157 486.501 224.627C486.501 224.108 486.587 223.66 486.76 223.282C486.936 222.901 487.182 222.608 487.499 222.403C487.818 222.198 488.193 222.096 488.624 222.096ZM488.615 222.693C488.225 222.693 487.915 222.821 487.683 223.076C487.452 223.331 487.314 223.687 487.27 224.144H489.819C489.816 223.856 489.771 223.604 489.683 223.388C489.598 223.168 489.467 222.998 489.292 222.878C489.116 222.755 488.89 222.693 488.615 222.693ZM492.557 227H491.823V220.162H492.557V227ZM495.954 222.096C496.364 222.096 496.715 222.187 497.008 222.368C497.301 222.55 497.525 222.805 497.681 223.133C497.836 223.458 497.914 223.839 497.914 224.275V224.728H494.587C494.596 225.293 494.736 225.724 495.009 226.02C495.281 226.316 495.665 226.464 496.16 226.464C496.465 226.464 496.734 226.436 496.969 226.38C497.203 226.325 497.446 226.243 497.698 226.134V226.776C497.455 226.884 497.213 226.963 496.973 227.013C496.736 227.063 496.455 227.088 496.129 227.088C495.667 227.088 495.262 226.994 494.917 226.807C494.574 226.616 494.307 226.338 494.117 225.972C493.926 225.605 493.831 225.157 493.831 224.627C493.831 224.108 493.917 223.66 494.09 223.282C494.266 222.901 494.512 222.608 494.829 222.403C495.148 222.198 495.523 222.096 495.954 222.096ZM495.945 222.693C495.555 222.693 495.245 222.821 495.013 223.076C494.782 223.331 494.644 223.687 494.6 224.144H497.149C497.146 223.856 497.101 223.604 497.013 223.388C496.928 223.168 496.797 222.998 496.622 222.878C496.446 222.755 496.22 222.693 495.945 222.693ZM504.382 222.096C504.913 222.096 505.312 222.235 505.582 222.513C505.852 222.789 505.986 223.232 505.986 223.845V227H505.266V223.88C505.266 223.49 505.181 223.199 505.011 223.005C504.844 222.809 504.595 222.711 504.264 222.711C503.798 222.711 503.459 222.846 503.249 223.115C503.038 223.385 502.932 223.782 502.932 224.306V227H502.207V223.88C502.207 223.619 502.169 223.402 502.093 223.229C502.02 223.057 501.908 222.928 501.759 222.843C501.612 222.755 501.426 222.711 501.201 222.711C500.881 222.711 500.625 222.777 500.432 222.909C500.238 223.041 500.098 223.237 500.01 223.498C499.925 223.755 499.882 224.073 499.882 224.451V227H499.153V222.184H499.742L499.852 222.865H499.891C499.988 222.698 500.109 222.557 500.256 222.443C500.402 222.329 500.566 222.242 500.748 222.184C500.93 222.125 501.123 222.096 501.328 222.096C501.694 222.096 502 222.165 502.247 222.302C502.496 222.437 502.676 222.644 502.787 222.922H502.827C502.985 222.644 503.202 222.437 503.477 222.302C503.752 222.165 504.054 222.096 504.382 222.096ZM509.339 222.096C509.75 222.096 510.101 222.187 510.394 222.368C510.687 222.55 510.911 222.805 511.066 223.133C511.222 223.458 511.299 223.839 511.299 224.275V224.728H507.973C507.981 225.293 508.122 225.724 508.395 226.02C508.667 226.316 509.051 226.464 509.546 226.464C509.851 226.464 510.12 226.436 510.354 226.38C510.589 226.325 510.832 226.243 511.084 226.134V226.776C510.841 226.884 510.599 226.963 510.359 227.013C510.122 227.063 509.84 227.088 509.515 227.088C509.052 227.088 508.648 226.994 508.302 226.807C507.959 226.616 507.693 226.338 507.502 225.972C507.312 225.605 507.217 225.157 507.217 224.627C507.217 224.108 507.303 223.66 507.476 223.282C507.652 222.901 507.898 222.608 508.214 222.403C508.534 222.198 508.909 222.096 509.339 222.096ZM509.331 222.693C508.941 222.693 508.63 222.821 508.399 223.076C508.167 223.331 508.03 223.687 507.986 224.144H510.535C510.532 223.856 510.486 223.604 510.398 223.388C510.313 223.168 510.183 222.998 510.007 222.878C509.832 222.755 509.606 222.693 509.331 222.693ZM514.819 222.096C515.391 222.096 515.823 222.236 516.116 222.518C516.409 222.796 516.555 223.244 516.555 223.862V227H515.834V223.911C515.834 223.509 515.742 223.209 515.558 223.01C515.376 222.811 515.096 222.711 514.718 222.711C514.185 222.711 513.81 222.862 513.593 223.164C513.376 223.465 513.268 223.903 513.268 224.478V227H512.539V222.184H513.127L513.237 222.878H513.277C513.379 222.708 513.51 222.566 513.668 222.452C513.826 222.334 514.003 222.247 514.2 222.188C514.396 222.126 514.603 222.096 514.819 222.096ZM519.614 226.49C519.734 226.49 519.857 226.48 519.983 226.459C520.109 226.439 520.211 226.414 520.291 226.385V226.952C520.206 226.99 520.087 227.022 519.935 227.048C519.785 227.075 519.639 227.088 519.495 227.088C519.24 227.088 519.009 227.044 518.801 226.956C518.593 226.865 518.426 226.713 518.3 226.499C518.177 226.285 518.115 225.989 518.115 225.611V222.755H517.43V222.399L518.12 222.113L518.41 221.067H518.849V222.184H520.26V222.755H518.849V225.589C518.849 225.891 518.918 226.117 519.056 226.266C519.196 226.416 519.382 226.49 519.614 226.49ZM525.419 224.583C525.419 224.979 525.368 225.332 525.265 225.642C525.163 225.953 525.015 226.215 524.821 226.429C524.628 226.643 524.394 226.807 524.118 226.921C523.846 227.032 523.537 227.088 523.191 227.088C522.869 227.088 522.573 227.032 522.303 226.921C522.037 226.807 521.805 226.643 521.609 226.429C521.416 226.215 521.265 225.953 521.156 225.642C521.051 225.332 520.998 224.979 520.998 224.583C520.998 224.056 521.087 223.607 521.266 223.238C521.445 222.866 521.7 222.583 522.031 222.39C522.365 222.194 522.762 222.096 523.222 222.096C523.661 222.096 524.045 222.194 524.373 222.39C524.704 222.586 524.96 222.871 525.142 223.243C525.327 223.612 525.419 224.059 525.419 224.583ZM521.754 224.583C521.754 224.97 521.805 225.305 521.908 225.589C522.01 225.874 522.168 226.093 522.382 226.249C522.596 226.404 522.872 226.481 523.208 226.481C523.542 226.481 523.816 226.404 524.03 226.249C524.247 226.093 524.407 225.874 524.509 225.589C524.612 225.305 524.663 224.97 524.663 224.583C524.663 224.199 524.612 223.868 524.509 223.59C524.407 223.309 524.249 223.092 524.035 222.939C523.821 222.787 523.544 222.711 523.204 222.711C522.703 222.711 522.335 222.876 522.101 223.208C521.87 223.539 521.754 223.997 521.754 224.583ZM529.748 222.184V227H529.018V222.184H529.748ZM529.392 220.382C529.512 220.382 529.614 220.421 529.699 220.5C529.787 220.577 529.831 220.697 529.831 220.861C529.831 221.022 529.787 221.142 529.699 221.221C529.614 221.3 529.512 221.34 529.392 221.34C529.266 221.34 529.16 221.3 529.075 221.221C528.993 221.142 528.952 221.022 528.952 220.861C528.952 220.697 528.993 220.577 529.075 220.5C529.16 220.421 529.266 220.382 529.392 220.382ZM533.575 222.096C534.146 222.096 534.579 222.236 534.872 222.518C535.165 222.796 535.311 223.244 535.311 223.862V227H534.59V223.911C534.59 223.509 534.498 223.209 534.313 223.01C534.132 222.811 533.852 222.711 533.474 222.711C532.941 222.711 532.566 222.862 532.349 223.164C532.132 223.465 532.024 223.903 532.024 224.478V227H531.294V222.184H531.883L531.993 222.878H532.033C532.135 222.708 532.266 222.566 532.424 222.452C532.582 222.334 532.759 222.247 532.956 222.188C533.152 222.126 533.358 222.096 533.575 222.096ZM538.37 226.49C538.49 226.49 538.613 226.48 538.739 226.459C538.865 226.439 538.967 226.414 539.046 226.385V226.952C538.961 226.99 538.843 227.022 538.69 227.048C538.541 227.075 538.395 227.088 538.251 227.088C537.996 227.088 537.765 227.044 537.557 226.956C537.349 226.865 537.182 226.713 537.056 226.499C536.933 226.285 536.871 225.989 536.871 225.611V222.755H536.186V222.399L536.875 222.113L537.166 221.067H537.605V222.184H539.016V222.755H537.605V225.589C537.605 225.891 537.674 226.117 537.812 226.266C537.952 226.416 538.138 226.49 538.37 226.49ZM541.876 222.096C542.287 222.096 542.638 222.187 542.931 222.368C543.224 222.55 543.448 222.805 543.604 223.133C543.759 223.458 543.836 223.839 543.836 224.275V224.728H540.51C540.519 225.293 540.659 225.724 540.932 226.02C541.204 226.316 541.588 226.464 542.083 226.464C542.388 226.464 542.657 226.436 542.892 226.38C543.126 226.325 543.369 226.243 543.621 226.134V226.776C543.378 226.884 543.136 226.963 542.896 227.013C542.659 227.063 542.377 227.088 542.052 227.088C541.589 227.088 541.185 226.994 540.839 226.807C540.497 226.616 540.23 226.338 540.04 225.972C539.849 225.605 539.754 225.157 539.754 224.627C539.754 224.108 539.84 223.66 540.013 223.282C540.189 222.901 540.435 222.608 540.751 222.403C541.071 222.198 541.446 222.096 541.876 222.096ZM541.868 222.693C541.478 222.693 541.167 222.821 540.936 223.076C540.705 223.331 540.567 223.687 540.523 224.144H543.072C543.069 223.856 543.023 223.604 542.936 223.388C542.851 223.168 542.72 222.998 542.544 222.878C542.369 222.755 542.143 222.693 541.868 222.693ZM547.264 222.096C547.361 222.096 547.462 222.102 547.567 222.113C547.673 222.122 547.767 222.135 547.849 222.153L547.756 222.83C547.677 222.809 547.589 222.793 547.493 222.781C547.396 222.77 547.305 222.764 547.22 222.764C547.027 222.764 546.844 222.803 546.671 222.882C546.501 222.958 546.352 223.07 546.223 223.216C546.094 223.36 545.993 223.534 545.919 223.739C545.846 223.941 545.81 224.167 545.81 224.416V227H545.076V222.184H545.682L545.761 223.071H545.792C545.892 222.893 546.012 222.73 546.152 222.583C546.293 222.434 546.456 222.315 546.64 222.228C546.828 222.14 547.036 222.096 547.264 222.096ZM550.56 222.104C551.134 222.104 551.561 222.233 551.839 222.491C552.117 222.749 552.256 223.161 552.256 223.726V227H551.725L551.584 226.288H551.549C551.414 226.464 551.273 226.612 551.127 226.732C550.98 226.849 550.811 226.938 550.617 227C550.427 227.059 550.192 227.088 549.914 227.088C549.621 227.088 549.36 227.037 549.132 226.934C548.906 226.832 548.728 226.676 548.596 226.468C548.467 226.26 548.402 225.997 548.402 225.677C548.402 225.197 548.593 224.828 548.974 224.57C549.354 224.312 549.935 224.171 550.714 224.148L551.544 224.113V223.818C551.544 223.402 551.455 223.111 551.276 222.944C551.098 222.777 550.846 222.693 550.521 222.693C550.269 222.693 550.028 222.73 549.8 222.803C549.571 222.876 549.354 222.963 549.149 223.062L548.925 222.509C549.142 222.397 549.391 222.302 549.672 222.223C549.954 222.144 550.25 222.104 550.56 222.104ZM551.536 224.627L550.802 224.658C550.201 224.681 549.778 224.779 549.532 224.952C549.286 225.125 549.163 225.37 549.163 225.686C549.163 225.961 549.246 226.165 549.413 226.297C549.58 226.429 549.801 226.495 550.077 226.495C550.504 226.495 550.854 226.376 551.127 226.139C551.399 225.901 551.536 225.545 551.536 225.071V224.627ZM555.688 227.088C555.255 227.088 554.873 226.999 554.542 226.82C554.21 226.641 553.953 226.369 553.768 226.002C553.583 225.636 553.491 225.175 553.491 224.618C553.491 224.035 553.588 223.559 553.781 223.19C553.978 222.818 554.247 222.542 554.59 222.364C554.933 222.185 555.322 222.096 555.759 222.096C555.999 222.096 556.23 222.121 556.453 222.17C556.679 222.217 556.863 222.277 557.007 222.351L556.787 222.961C556.641 222.903 556.471 222.85 556.277 222.803C556.087 222.756 555.908 222.733 555.741 222.733C555.407 222.733 555.129 222.805 554.906 222.948C554.687 223.092 554.521 223.303 554.41 223.581C554.301 223.859 554.247 224.202 554.247 224.609C554.247 224.999 554.3 225.332 554.405 225.607C554.514 225.882 554.673 226.093 554.884 226.24C555.098 226.383 555.365 226.455 555.684 226.455C555.939 226.455 556.169 226.429 556.374 226.376C556.579 226.32 556.765 226.256 556.932 226.183V226.833C556.771 226.915 556.591 226.978 556.392 227.022C556.195 227.066 555.961 227.088 555.688 227.088ZM559.63 226.49C559.75 226.49 559.874 226.48 560 226.459C560.125 226.439 560.228 226.414 560.307 226.385V226.952C560.222 226.99 560.104 227.022 559.951 227.048C559.802 227.075 559.655 227.088 559.512 227.088C559.257 227.088 559.025 227.044 558.817 226.956C558.609 226.865 558.442 226.713 558.316 226.499C558.193 226.285 558.132 225.989 558.132 225.611V222.755H557.446V222.399L558.136 222.113L558.426 221.067H558.866V222.184H560.276V222.755H558.866V225.589C558.866 225.891 558.935 226.117 559.072 226.266C559.213 226.416 559.399 226.49 559.63 226.49ZM562.012 222.184V227H561.283V222.184H562.012ZM561.656 220.382C561.776 220.382 561.879 220.421 561.964 220.5C562.052 220.577 562.096 220.697 562.096 220.861C562.096 221.022 562.052 221.142 561.964 221.221C561.879 221.3 561.776 221.34 561.656 221.34C561.53 221.34 561.425 221.3 561.34 221.221C561.258 221.142 561.217 221.022 561.217 220.861C561.217 220.697 561.258 220.577 561.34 220.5C561.425 220.421 561.53 220.382 561.656 220.382ZM564.618 227L562.79 222.184H563.572L564.631 225.097C564.705 225.296 564.779 225.516 564.855 225.756C564.932 225.997 564.984 226.19 565.014 226.336H565.044C565.08 226.19 565.138 225.997 565.22 225.756C565.302 225.513 565.377 225.293 565.444 225.097L566.503 222.184H567.286L565.453 227H564.618ZM572.212 224.583C572.212 224.979 572.161 225.332 572.058 225.642C571.956 225.953 571.808 226.215 571.614 226.429C571.421 226.643 571.187 226.807 570.911 226.921C570.639 227.032 570.33 227.088 569.984 227.088C569.662 227.088 569.366 227.032 569.096 226.921C568.83 226.807 568.598 226.643 568.402 226.429C568.208 226.215 568.058 225.953 567.949 225.642C567.844 225.332 567.791 224.979 567.791 224.583C567.791 224.056 567.88 223.607 568.059 223.238C568.238 222.866 568.493 222.583 568.824 222.39C569.158 222.194 569.555 222.096 570.015 222.096C570.454 222.096 570.838 222.194 571.166 222.39C571.497 222.586 571.753 222.871 571.935 223.243C572.12 223.612 572.212 224.059 572.212 224.583ZM568.547 224.583C568.547 224.97 568.598 225.305 568.701 225.589C568.803 225.874 568.961 226.093 569.175 226.249C569.389 226.404 569.665 226.481 570.001 226.481C570.335 226.481 570.609 226.404 570.823 226.249C571.04 226.093 571.2 225.874 571.302 225.589C571.405 225.305 571.456 224.97 571.456 224.583C571.456 224.199 571.405 223.868 571.302 223.59C571.2 223.309 571.042 223.092 570.828 222.939C570.614 222.787 570.337 222.711 569.997 222.711C569.496 222.711 569.128 222.876 568.894 223.208C568.663 223.539 568.547 223.997 568.547 224.583Z" fill="#101E37"/>
<rect x="453.75" y="113.75" width="58.5" height="21.5" rx="5.25" stroke="#218274" stroke-width="1.5"/>
</svg>
