<svg width="728" height="256" viewBox="0 0 728 256" fill="none" xmlns="http://www.w3.org/2000/svg">
<rect x="1" y="1" width="726" height="254" rx="7" fill="#F3F6F9"/>
<rect x="1" y="1" width="726" height="254" rx="7" stroke="#E6EBF0" stroke-width="2"/>
<rect x="189" y="47" width="350" height="162" rx="9" fill="white"/>
<rect x="189" y="47" width="350" height="162" rx="9" stroke="#E6EBF0" stroke-width="2"/>
<path d="M216.76 91C216.4 91 216.12 90.9067 215.92 90.72C215.733 90.52 215.64 90.24 215.64 89.88V78.02C215.64 77.66 215.733 77.3867 215.92 77.2C216.12 77 216.4 76.9 216.76 76.9H224.06C224.34 76.9 224.553 76.9733 224.7 77.12C224.847 77.2533 224.92 77.4533 224.92 77.72C224.92 78 224.847 78.2133 224.7 78.36C224.553 78.5067 224.34 78.58 224.06 78.58H217.64V83H223.62C223.913 83 224.127 83.0733 224.26 83.22C224.407 83.3667 224.48 83.5733 224.48 83.84C224.48 84.12 224.407 84.3333 224.26 84.48C224.127 84.6133 223.913 84.68 223.62 84.68H217.64V89.32H224.06C224.34 89.32 224.553 89.3933 224.7 89.54C224.847 89.6867 224.92 89.8933 224.92 90.16C224.92 90.44 224.847 90.6533 224.7 90.8C224.553 90.9333 224.34 91 224.06 91H216.76ZM230.5 91.18C229.913 91.18 229.307 91.1133 228.68 90.98C228.067 90.8467 227.5 90.62 226.98 90.3C226.807 90.18 226.687 90.0467 226.62 89.9C226.553 89.7533 226.527 89.6067 226.54 89.46C226.567 89.3 226.627 89.1667 226.72 89.06C226.827 88.94 226.953 88.8667 227.1 88.84C227.26 88.8133 227.427 88.8467 227.6 88.94C228.12 89.2333 228.62 89.44 229.1 89.56C229.58 89.6667 230.053 89.72 230.52 89.72C231.227 89.72 231.76 89.5933 232.12 89.34C232.48 89.0867 232.66 88.7467 232.66 88.32C232.66 87.9733 232.54 87.7067 232.3 87.52C232.06 87.32 231.7 87.1667 231.22 87.06L229.32 86.68C228.493 86.5067 227.867 86.2 227.44 85.76C227.013 85.32 226.8 84.76 226.8 84.08C226.8 83.4667 226.967 82.9333 227.3 82.48C227.633 82.0267 228.1 81.68 228.7 81.44C229.3 81.1867 229.993 81.06 230.78 81.06C231.367 81.06 231.92 81.1333 232.44 81.28C232.96 81.4267 233.44 81.6467 233.88 81.94C234.053 82.0333 234.167 82.16 234.22 82.32C234.273 82.4667 234.28 82.6133 234.24 82.76C234.213 82.9067 234.147 83.04 234.04 83.16C233.933 83.2667 233.8 83.3333 233.64 83.36C233.493 83.3733 233.327 83.3333 233.14 83.24C232.74 82.9867 232.34 82.8067 231.94 82.7C231.553 82.5933 231.167 82.54 230.78 82.54C230.073 82.54 229.54 82.6733 229.18 82.94C228.833 83.1933 228.66 83.54 228.66 83.98C228.66 84.3133 228.767 84.5867 228.98 84.8C229.193 85.0133 229.527 85.1667 229.98 85.26L231.88 85.64C232.747 85.8133 233.4 86.1067 233.84 86.52C234.293 86.9333 234.52 87.4933 234.52 88.2C234.52 89.12 234.153 89.8467 233.42 90.38C232.687 90.9133 231.713 91.18 230.5 91.18ZM240.83 91.18C240.03 91.18 239.357 91.04 238.81 90.76C238.263 90.48 237.857 90.0667 237.59 89.52C237.323 88.9733 237.19 88.3067 237.19 87.52V82.8H235.99C235.723 82.8 235.517 82.7333 235.37 82.6C235.223 82.4533 235.15 82.26 235.15 82.02C235.15 81.7667 235.223 81.5733 235.37 81.44C235.517 81.3067 235.723 81.24 235.99 81.24H237.19V79.18C237.19 78.8467 237.277 78.5933 237.45 78.42C237.637 78.2467 237.89 78.16 238.21 78.16C238.53 78.16 238.777 78.2467 238.95 78.42C239.123 78.5933 239.21 78.8467 239.21 79.18V81.24H241.55C241.817 81.24 242.023 81.3067 242.17 81.44C242.317 81.5733 242.39 81.7667 242.39 82.02C242.39 82.26 242.317 82.4533 242.17 82.6C242.023 82.7333 241.817 82.8 241.55 82.8H239.21V87.36C239.21 88.0667 239.357 88.6 239.65 88.96C239.957 89.32 240.45 89.5 241.13 89.5C241.37 89.5 241.577 89.48 241.75 89.44C241.937 89.3867 242.09 89.3533 242.21 89.34C242.357 89.34 242.477 89.3933 242.57 89.5C242.663 89.5933 242.71 89.78 242.71 90.06C242.71 90.26 242.67 90.4467 242.59 90.62C242.523 90.7933 242.397 90.9067 242.21 90.96C242.05 91.0133 241.83 91.06 241.55 91.1C241.283 91.1533 241.043 91.18 240.83 91.18ZM248.457 91.18C247.39 91.18 246.47 90.98 245.697 90.58C244.937 90.1667 244.344 89.5867 243.917 88.84C243.504 88.08 243.297 87.18 243.297 86.14C243.297 85.1267 243.504 84.24 243.917 83.48C244.33 82.72 244.897 82.1267 245.617 81.7C246.337 81.2733 247.157 81.06 248.077 81.06C248.757 81.06 249.364 81.1733 249.897 81.4C250.43 81.6133 250.884 81.9333 251.257 82.36C251.644 82.7733 251.93 83.28 252.117 83.88C252.317 84.48 252.417 85.1533 252.417 85.9C252.417 86.1267 252.35 86.3 252.217 86.42C252.084 86.5267 251.884 86.58 251.617 86.58H244.897V85.34H251.057L250.717 85.62C250.717 84.9533 250.617 84.3867 250.417 83.92C250.23 83.4533 249.944 83.1 249.557 82.86C249.184 82.6067 248.717 82.48 248.157 82.48C247.53 82.48 246.997 82.6267 246.557 82.92C246.13 83.2133 245.804 83.62 245.577 84.14C245.35 84.66 245.237 85.2667 245.237 85.96V86.08C245.237 87.2533 245.51 88.14 246.057 88.74C246.617 89.3267 247.424 89.62 248.477 89.62C248.877 89.62 249.297 89.5667 249.737 89.46C250.19 89.3533 250.617 89.1733 251.017 88.92C251.244 88.7867 251.444 88.7267 251.617 88.74C251.804 88.7533 251.95 88.8133 252.057 88.92C252.177 89.0267 252.25 89.16 252.277 89.32C252.304 89.48 252.277 89.6467 252.197 89.82C252.117 89.98 251.977 90.1267 251.777 90.26C251.324 90.5667 250.797 90.8 250.197 90.96C249.597 91.1067 249.017 91.18 248.457 91.18ZM264.473 91.18C263.406 91.18 262.486 90.98 261.713 90.58C260.953 90.1667 260.359 89.5867 259.933 88.84C259.519 88.08 259.313 87.18 259.313 86.14C259.313 85.1267 259.519 84.24 259.933 83.48C260.346 82.72 260.913 82.1267 261.633 81.7C262.353 81.2733 263.173 81.06 264.093 81.06C264.773 81.06 265.379 81.1733 265.913 81.4C266.446 81.6133 266.899 81.9333 267.273 82.36C267.659 82.7733 267.946 83.28 268.133 83.88C268.333 84.48 268.433 85.1533 268.433 85.9C268.433 86.1267 268.366 86.3 268.233 86.42C268.099 86.5267 267.899 86.58 267.633 86.58H260.913V85.34H267.073L266.733 85.62C266.733 84.9533 266.633 84.3867 266.433 83.92C266.246 83.4533 265.959 83.1 265.573 82.86C265.199 82.6067 264.733 82.48 264.173 82.48C263.546 82.48 263.013 82.6267 262.573 82.92C262.146 83.2133 261.819 83.62 261.593 84.14C261.366 84.66 261.253 85.2667 261.253 85.96V86.08C261.253 87.2533 261.526 88.14 262.073 88.74C262.633 89.3267 263.439 89.62 264.493 89.62C264.893 89.62 265.313 89.5667 265.753 89.46C266.206 89.3533 266.633 89.1733 267.033 88.92C267.259 88.7867 267.459 88.7267 267.633 88.74C267.819 88.7533 267.966 88.8133 268.073 88.92C268.193 89.0267 268.266 89.16 268.293 89.32C268.319 89.48 268.293 89.6467 268.213 89.82C268.133 89.98 267.993 90.1267 267.793 90.26C267.339 90.5667 266.813 90.8 266.213 90.96C265.613 91.1067 265.033 91.18 264.473 91.18ZM274.055 91.18C273.468 91.18 272.862 91.1133 272.235 90.98C271.622 90.8467 271.055 90.62 270.535 90.3C270.362 90.18 270.242 90.0467 270.175 89.9C270.108 89.7533 270.082 89.6067 270.095 89.46C270.122 89.3 270.182 89.1667 270.275 89.06C270.382 88.94 270.508 88.8667 270.655 88.84C270.815 88.8133 270.982 88.8467 271.155 88.94C271.675 89.2333 272.175 89.44 272.655 89.56C273.135 89.6667 273.608 89.72 274.075 89.72C274.782 89.72 275.315 89.5933 275.675 89.34C276.035 89.0867 276.215 88.7467 276.215 88.32C276.215 87.9733 276.095 87.7067 275.855 87.52C275.615 87.32 275.255 87.1667 274.775 87.06L272.875 86.68C272.048 86.5067 271.422 86.2 270.995 85.76C270.568 85.32 270.355 84.76 270.355 84.08C270.355 83.4667 270.522 82.9333 270.855 82.48C271.188 82.0267 271.655 81.68 272.255 81.44C272.855 81.1867 273.548 81.06 274.335 81.06C274.922 81.06 275.475 81.1333 275.995 81.28C276.515 81.4267 276.995 81.6467 277.435 81.94C277.608 82.0333 277.722 82.16 277.775 82.32C277.828 82.4667 277.835 82.6133 277.795 82.76C277.768 82.9067 277.702 83.04 277.595 83.16C277.488 83.2667 277.355 83.3333 277.195 83.36C277.048 83.3733 276.882 83.3333 276.695 83.24C276.295 82.9867 275.895 82.8067 275.495 82.7C275.108 82.5933 274.722 82.54 274.335 82.54C273.628 82.54 273.095 82.6733 272.735 82.94C272.388 83.1933 272.215 83.54 272.215 83.98C272.215 84.3133 272.322 84.5867 272.535 84.8C272.748 85.0133 273.082 85.1667 273.535 85.26L275.435 85.64C276.302 85.8133 276.955 86.1067 277.395 86.52C277.848 86.9333 278.075 87.4933 278.075 88.2C278.075 89.12 277.708 89.8467 276.975 90.38C276.242 90.9133 275.268 91.18 274.055 91.18ZM289.076 91.18C288.289 91.18 287.629 91.0333 287.096 90.74C286.576 90.4467 286.182 90.0133 285.916 89.44C285.662 88.8533 285.536 88.12 285.536 87.24V82.12C285.536 81.7733 285.622 81.52 285.796 81.36C285.969 81.1867 286.216 81.1 286.536 81.1C286.856 81.1 287.102 81.1867 287.276 81.36C287.462 81.52 287.556 81.7733 287.556 82.12V87.26C287.556 88.0467 287.716 88.6267 288.036 89C288.356 89.3733 288.862 89.56 289.556 89.56C290.316 89.56 290.929 89.3067 291.396 88.8C291.876 88.28 292.116 87.6 292.116 86.76V82.12C292.116 81.7733 292.202 81.52 292.376 81.36C292.549 81.1867 292.802 81.1 293.136 81.1C293.456 81.1 293.702 81.1867 293.876 81.36C294.049 81.52 294.136 81.7733 294.136 82.12V90.12C294.136 90.8 293.809 91.14 293.156 91.14C292.849 91.14 292.609 91.0533 292.436 90.88C292.262 90.6933 292.176 90.44 292.176 90.12V88.42L292.436 88.86C292.169 89.6067 291.742 90.18 291.156 90.58C290.569 90.98 289.876 91.18 289.076 91.18ZM297.983 91.14C297.663 91.14 297.416 91.0533 297.243 90.88C297.069 90.6933 296.983 90.44 296.983 90.12V82.12C296.983 81.7867 297.069 81.5333 297.243 81.36C297.416 81.1867 297.656 81.1 297.963 81.1C298.283 81.1 298.523 81.1867 298.683 81.36C298.856 81.5333 298.943 81.7867 298.943 82.12V83.68L298.723 83.32C299.016 82.5733 299.476 82.0133 300.103 81.64C300.729 81.2533 301.449 81.06 302.263 81.06C303.036 81.06 303.676 81.2067 304.183 81.5C304.703 81.78 305.089 82.2133 305.343 82.8C305.596 83.3733 305.723 84.1 305.723 84.98V90.12C305.723 90.44 305.636 90.6933 305.463 90.88C305.289 91.0533 305.043 91.14 304.723 91.14C304.389 91.14 304.136 91.0533 303.963 90.88C303.789 90.6933 303.703 90.44 303.703 90.12V85.1C303.703 84.26 303.536 83.6467 303.203 83.26C302.883 82.8733 302.376 82.68 301.683 82.68C300.869 82.68 300.216 82.9333 299.723 83.44C299.243 83.9467 299.003 84.6267 299.003 85.48V90.12C299.003 90.8 298.663 91.14 297.983 91.14ZM317.939 91.18C317.139 91.18 316.466 91.04 315.919 90.76C315.373 90.48 314.966 90.0667 314.699 89.52C314.433 88.9733 314.299 88.3067 314.299 87.52V82.8H313.099C312.833 82.8 312.626 82.7333 312.479 82.6C312.333 82.4533 312.259 82.26 312.259 82.02C312.259 81.7667 312.333 81.5733 312.479 81.44C312.626 81.3067 312.833 81.24 313.099 81.24H314.299V79.18C314.299 78.8467 314.386 78.5933 314.559 78.42C314.746 78.2467 314.999 78.16 315.319 78.16C315.639 78.16 315.886 78.2467 316.059 78.42C316.233 78.5933 316.319 78.8467 316.319 79.18V81.24H318.659C318.926 81.24 319.133 81.3067 319.279 81.44C319.426 81.5733 319.499 81.7667 319.499 82.02C319.499 82.26 319.426 82.4533 319.279 82.6C319.133 82.7333 318.926 82.8 318.659 82.8H316.319V87.36C316.319 88.0667 316.466 88.6 316.759 88.96C317.066 89.32 317.559 89.5 318.239 89.5C318.479 89.5 318.686 89.48 318.859 89.44C319.046 89.3867 319.199 89.3533 319.319 89.34C319.466 89.34 319.586 89.3933 319.679 89.5C319.773 89.5933 319.819 89.78 319.819 90.06C319.819 90.26 319.779 90.4467 319.699 90.62C319.633 90.7933 319.506 90.9067 319.319 90.96C319.159 91.0133 318.939 91.06 318.659 91.1C318.393 91.1533 318.153 91.18 317.939 91.18ZM322.26 91.12C321.94 91.12 321.693 91.0267 321.52 90.84C321.347 90.64 321.26 90.3667 321.26 90.02V82.22C321.26 81.8733 321.347 81.6067 321.52 81.42C321.693 81.2333 321.94 81.14 322.26 81.14C322.58 81.14 322.827 81.2333 323 81.42C323.187 81.6067 323.28 81.8733 323.28 82.22V90.02C323.28 90.3667 323.193 90.64 323.02 90.84C322.847 91.0267 322.593 91.12 322.26 91.12ZM323.04 79.84C322.933 80 322.8 80.0933 322.64 80.12C322.493 80.1467 322.347 80.12 322.2 80.04C322.053 79.96 321.947 79.8467 321.88 79.7C321.827 79.5533 321.84 79.3933 321.92 79.22L323.54 76.08C323.647 75.8667 323.78 75.7267 323.94 75.66C324.113 75.5933 324.287 75.5867 324.46 75.64C324.647 75.68 324.8 75.76 324.92 75.88C325.053 76 325.133 76.1533 325.16 76.34C325.187 76.5133 325.14 76.6867 325.02 76.86L323.04 79.84ZM330.283 91.18C329.483 91.18 328.81 91.04 328.263 90.76C327.716 90.48 327.31 90.0667 327.043 89.52C326.776 88.9733 326.643 88.3067 326.643 87.52V82.8H325.443C325.176 82.8 324.97 82.7333 324.823 82.6C324.676 82.4533 324.603 82.26 324.603 82.02C324.603 81.7667 324.676 81.5733 324.823 81.44C324.97 81.3067 325.176 81.24 325.443 81.24H326.643V79.18C326.643 78.8467 326.73 78.5933 326.903 78.42C327.09 78.2467 327.343 78.16 327.663 78.16C327.983 78.16 328.23 78.2467 328.403 78.42C328.576 78.5933 328.663 78.8467 328.663 79.18V81.24H331.003C331.27 81.24 331.476 81.3067 331.623 81.44C331.77 81.5733 331.843 81.7667 331.843 82.02C331.843 82.26 331.77 82.4533 331.623 82.6C331.476 82.7333 331.27 82.8 331.003 82.8H328.663V87.36C328.663 88.0667 328.81 88.6 329.103 88.96C329.41 89.32 329.903 89.5 330.583 89.5C330.823 89.5 331.03 89.48 331.203 89.44C331.39 89.3867 331.543 89.3533 331.663 89.34C331.81 89.34 331.93 89.3933 332.023 89.5C332.116 89.5933 332.163 89.78 332.163 90.06C332.163 90.26 332.123 90.4467 332.043 90.62C331.976 90.7933 331.85 90.9067 331.663 90.96C331.503 91.0133 331.283 91.06 331.003 91.1C330.736 91.1533 330.496 91.18 330.283 91.18ZM336.908 91.18C336.121 91.18 335.461 91.0333 334.928 90.74C334.408 90.4467 334.014 90.0133 333.748 89.44C333.494 88.8533 333.368 88.12 333.368 87.24V82.12C333.368 81.7733 333.454 81.52 333.628 81.36C333.801 81.1867 334.048 81.1 334.368 81.1C334.688 81.1 334.934 81.1867 335.108 81.36C335.294 81.52 335.388 81.7733 335.388 82.12V87.26C335.388 88.0467 335.548 88.6267 335.868 89C336.188 89.3733 336.694 89.56 337.388 89.56C338.148 89.56 338.761 89.3067 339.228 88.8C339.708 88.28 339.948 87.6 339.948 86.76V82.12C339.948 81.7733 340.034 81.52 340.208 81.36C340.381 81.1867 340.634 81.1 340.968 81.1C341.288 81.1 341.534 81.1867 341.708 81.36C341.881 81.52 341.968 81.7733 341.968 82.12V90.12C341.968 90.8 341.641 91.14 340.988 91.14C340.681 91.14 340.441 91.0533 340.268 90.88C340.094 90.6933 340.008 90.44 340.008 90.12V88.42L340.268 88.86C340.001 89.6067 339.574 90.18 338.988 90.58C338.401 90.98 337.708 91.18 336.908 91.18ZM347.955 91.18C346.915 91.18 346.128 90.88 345.595 90.28C345.075 89.6667 344.815 88.7867 344.815 87.64V77.78C344.815 77.4467 344.901 77.1933 345.075 77.02C345.248 76.8467 345.495 76.76 345.815 76.76C346.135 76.76 346.381 76.8467 346.555 77.02C346.741 77.1933 346.835 77.4467 346.835 77.78V87.52C346.835 88.1867 346.968 88.6867 347.235 89.02C347.515 89.34 347.915 89.5 348.435 89.5C348.555 89.5 348.661 89.5 348.755 89.5C348.848 89.4867 348.941 89.4733 349.035 89.46C349.195 89.4467 349.308 89.4933 349.375 89.6C349.441 89.6933 349.475 89.8933 349.475 90.2C349.475 90.48 349.415 90.7 349.295 90.86C349.175 91.0067 348.981 91.1 348.715 91.14C348.595 91.1533 348.468 91.16 348.335 91.16C348.201 91.1733 348.075 91.18 347.955 91.18ZM355.07 91.18C354.083 91.18 353.23 90.9733 352.51 90.56C351.803 90.1467 351.25 89.56 350.85 88.8C350.45 88.04 350.25 87.1467 350.25 86.12C350.25 85.3333 350.363 84.6333 350.59 84.02C350.817 83.4067 351.137 82.88 351.55 82.44C351.977 81.9867 352.483 81.6467 353.07 81.42C353.67 81.18 354.337 81.06 355.07 81.06C356.043 81.06 356.883 81.2667 357.59 81.68C358.31 82.0933 358.87 82.68 359.27 83.44C359.67 84.1867 359.87 85.08 359.87 86.12C359.87 86.8933 359.757 87.5933 359.53 88.22C359.303 88.8467 358.977 89.38 358.55 89.82C358.137 90.26 357.63 90.6 357.03 90.84C356.443 91.0667 355.79 91.18 355.07 91.18ZM355.07 89.62C355.617 89.62 356.097 89.4867 356.51 89.22C356.923 88.9533 357.243 88.56 357.47 88.04C357.71 87.52 357.83 86.88 357.83 86.12C357.83 84.9733 357.577 84.1067 357.07 83.52C356.563 82.9333 355.897 82.64 355.07 82.64C354.51 82.64 354.023 82.7733 353.61 83.04C353.197 83.2933 352.87 83.68 352.63 84.2C352.403 84.72 352.29 85.36 352.29 86.12C352.29 87.2533 352.543 88.12 353.05 88.72C353.557 89.32 354.23 89.62 355.07 89.62ZM371.132 91.18C370.279 91.18 369.526 90.98 368.872 90.58C368.232 90.1667 367.732 89.58 367.372 88.82C367.012 88.0467 366.832 87.1467 366.832 86.12C366.832 85.0667 367.012 84.1667 367.372 83.42C367.732 82.6733 368.232 82.0933 368.872 81.68C369.526 81.2667 370.279 81.06 371.132 81.06C371.986 81.06 372.719 81.2733 373.332 81.7C373.959 82.1133 374.379 82.6733 374.592 83.38H374.372V77.78C374.372 77.4467 374.459 77.1933 374.632 77.02C374.806 76.8467 375.052 76.76 375.372 76.76C375.692 76.76 375.939 76.8467 376.112 77.02C376.299 77.1933 376.392 77.4467 376.392 77.78V90.12C376.392 90.44 376.306 90.6933 376.132 90.88C375.959 91.0533 375.712 91.14 375.392 91.14C375.072 91.14 374.826 91.0533 374.652 90.88C374.479 90.6933 374.392 90.44 374.392 90.12V88.36L374.612 88.8C374.399 89.52 373.979 90.1 373.352 90.54C372.739 90.9667 371.999 91.18 371.132 91.18ZM371.652 89.62C372.199 89.62 372.679 89.4867 373.092 89.22C373.506 88.9533 373.826 88.56 374.052 88.04C374.292 87.52 374.412 86.88 374.412 86.12C374.412 84.9733 374.159 84.1067 373.652 83.52C373.146 82.9333 372.479 82.64 371.652 82.64C371.092 82.64 370.606 82.7733 370.192 83.04C369.779 83.2933 369.452 83.68 369.212 84.2C368.986 84.72 368.872 85.36 368.872 86.12C368.872 87.2533 369.126 88.12 369.632 88.72C370.139 89.32 370.812 89.62 371.652 89.62ZM383.809 91.18C382.742 91.18 381.822 90.98 381.049 90.58C380.289 90.1667 379.695 89.5867 379.269 88.84C378.855 88.08 378.649 87.18 378.649 86.14C378.649 85.1267 378.855 84.24 379.269 83.48C379.682 82.72 380.249 82.1267 380.969 81.7C381.689 81.2733 382.509 81.06 383.429 81.06C384.109 81.06 384.715 81.1733 385.249 81.4C385.782 81.6133 386.235 81.9333 386.609 82.36C386.995 82.7733 387.282 83.28 387.469 83.88C387.669 84.48 387.769 85.1533 387.769 85.9C387.769 86.1267 387.702 86.3 387.569 86.42C387.435 86.5267 387.235 86.58 386.969 86.58H380.249V85.34H386.409L386.069 85.62C386.069 84.9533 385.969 84.3867 385.769 83.92C385.582 83.4533 385.295 83.1 384.909 82.86C384.535 82.6067 384.069 82.48 383.509 82.48C382.882 82.48 382.349 82.6267 381.909 82.92C381.482 83.2133 381.155 83.62 380.929 84.14C380.702 84.66 380.589 85.2667 380.589 85.96V86.08C380.589 87.2533 380.862 88.14 381.409 88.74C381.969 89.3267 382.775 89.62 383.829 89.62C384.229 89.62 384.649 89.5667 385.089 89.46C385.542 89.3533 385.969 89.1733 386.369 88.92C386.595 88.7867 386.795 88.7267 386.969 88.74C387.155 88.7533 387.302 88.8133 387.409 88.92C387.529 89.0267 387.602 89.16 387.629 89.32C387.655 89.48 387.629 89.6467 387.549 89.82C387.469 89.98 387.329 90.1267 387.129 90.26C386.675 90.5667 386.149 90.8 385.549 90.96C384.949 91.1067 384.369 91.18 383.809 91.18ZM398.724 91.18C397.938 91.18 397.278 91.0333 396.744 90.74C396.224 90.4467 395.831 90.0133 395.564 89.44C395.311 88.8533 395.184 88.12 395.184 87.24V82.12C395.184 81.7733 395.271 81.52 395.444 81.36C395.618 81.1867 395.864 81.1 396.184 81.1C396.504 81.1 396.751 81.1867 396.924 81.36C397.111 81.52 397.204 81.7733 397.204 82.12V87.26C397.204 88.0467 397.364 88.6267 397.684 89C398.004 89.3733 398.511 89.56 399.204 89.56C399.964 89.56 400.578 89.3067 401.044 88.8C401.524 88.28 401.764 87.6 401.764 86.76V82.12C401.764 81.7733 401.851 81.52 402.024 81.36C402.198 81.1867 402.451 81.1 402.784 81.1C403.104 81.1 403.351 81.1867 403.524 81.36C403.698 81.52 403.784 81.7733 403.784 82.12V90.12C403.784 90.8 403.458 91.14 402.804 91.14C402.498 91.14 402.258 91.0533 402.084 90.88C401.911 90.6933 401.824 90.44 401.824 90.12V88.42L402.084 88.86C401.818 89.6067 401.391 90.18 400.804 90.58C400.218 90.98 399.524 91.18 398.724 91.18ZM407.631 91.14C407.311 91.14 407.064 91.0533 406.891 90.88C406.718 90.6933 406.631 90.44 406.631 90.12V82.12C406.631 81.7867 406.718 81.5333 406.891 81.36C407.064 81.1867 407.304 81.1 407.611 81.1C407.931 81.1 408.171 81.1867 408.331 81.36C408.504 81.5333 408.591 81.7867 408.591 82.12V83.68L408.371 83.32C408.664 82.5733 409.124 82.0133 409.751 81.64C410.378 81.2533 411.098 81.06 411.911 81.06C412.684 81.06 413.324 81.2067 413.831 81.5C414.351 81.78 414.738 82.2133 414.991 82.8C415.244 83.3733 415.371 84.1 415.371 84.98V90.12C415.371 90.44 415.284 90.6933 415.111 90.88C414.938 91.0533 414.691 91.14 414.371 91.14C414.038 91.14 413.784 91.0533 413.611 90.88C413.438 90.6933 413.351 90.44 413.351 90.12V85.1C413.351 84.26 413.184 83.6467 412.851 83.26C412.531 82.8733 412.024 82.68 411.331 82.68C410.518 82.68 409.864 82.9333 409.371 83.44C408.891 83.9467 408.651 84.6267 408.651 85.48V90.12C408.651 90.8 408.311 91.14 407.631 91.14ZM424.468 91.14C424.148 91.14 423.901 91.0533 423.728 90.88C423.554 90.6933 423.468 90.44 423.468 90.12V82.12C423.468 81.7867 423.554 81.5333 423.728 81.36C423.901 81.1867 424.141 81.1 424.448 81.1C424.768 81.1 425.008 81.1867 425.168 81.36C425.341 81.5333 425.428 81.7867 425.428 82.12V83.76L425.208 83.32C425.474 82.6133 425.888 82.06 426.448 81.66C427.008 81.26 427.681 81.06 428.468 81.06C429.281 81.06 429.941 81.2533 430.448 81.64C430.954 82.0267 431.301 82.62 431.488 83.42H431.208C431.461 82.6867 431.894 82.1133 432.508 81.7C433.121 81.2733 433.834 81.06 434.648 81.06C435.394 81.06 436.008 81.2067 436.488 81.5C436.968 81.78 437.328 82.2133 437.568 82.8C437.808 83.3733 437.928 84.1 437.928 84.98V90.12C437.928 90.44 437.834 90.6933 437.648 90.88C437.474 91.0533 437.228 91.14 436.908 91.14C436.588 91.14 436.341 91.0533 436.168 90.88C435.994 90.6933 435.908 90.44 435.908 90.12V85.08C435.908 84.2533 435.761 83.6467 435.468 83.26C435.188 82.8733 434.721 82.68 434.068 82.68C433.334 82.68 432.754 82.9333 432.328 83.44C431.901 83.9467 431.688 84.6467 431.688 85.54V90.12C431.688 90.44 431.601 90.6933 431.428 90.88C431.254 91.0533 431.008 91.14 430.688 91.14C430.368 91.14 430.114 91.0533 429.928 90.88C429.754 90.6933 429.668 90.44 429.668 90.12V85.08C429.668 84.2533 429.528 83.6467 429.248 83.26C428.968 82.8733 428.501 82.68 427.848 82.68C427.114 82.68 426.534 82.9333 426.108 83.44C425.694 83.9467 425.488 84.6467 425.488 85.54V90.12C425.488 90.8 425.148 91.14 424.468 91.14ZM444.992 91.18C444.005 91.18 443.152 90.9733 442.432 90.56C441.725 90.1467 441.172 89.56 440.772 88.8C440.372 88.04 440.172 87.1467 440.172 86.12C440.172 85.3333 440.285 84.6333 440.512 84.02C440.739 83.4067 441.059 82.88 441.472 82.44C441.899 81.9867 442.405 81.6467 442.992 81.42C443.592 81.18 444.259 81.06 444.992 81.06C445.965 81.06 446.805 81.2667 447.512 81.68C448.232 82.0933 448.792 82.68 449.192 83.44C449.592 84.1867 449.792 85.08 449.792 86.12C449.792 86.8933 449.679 87.5933 449.452 88.22C449.225 88.8467 448.899 89.38 448.472 89.82C448.059 90.26 447.552 90.6 446.952 90.84C446.365 91.0667 445.712 91.18 444.992 91.18ZM444.992 89.62C445.539 89.62 446.019 89.4867 446.432 89.22C446.845 88.9533 447.165 88.56 447.392 88.04C447.632 87.52 447.752 86.88 447.752 86.12C447.752 84.9733 447.499 84.1067 446.992 83.52C446.485 82.9333 445.819 82.64 444.992 82.64C444.432 82.64 443.945 82.7733 443.532 83.04C443.119 83.2933 442.792 83.68 442.552 84.2C442.325 84.72 442.212 85.36 442.212 86.12C442.212 87.2533 442.465 88.12 442.972 88.72C443.479 89.32 444.152 89.62 444.992 89.62ZM455.781 91.18C454.927 91.18 454.174 90.98 453.521 90.58C452.881 90.1667 452.381 89.58 452.021 88.82C451.661 88.0467 451.481 87.1467 451.481 86.12C451.481 85.0667 451.661 84.1667 452.021 83.42C452.381 82.6733 452.881 82.0933 453.521 81.68C454.174 81.2667 454.927 81.06 455.781 81.06C456.634 81.06 457.367 81.2733 457.981 81.7C458.607 82.1133 459.027 82.6733 459.241 83.38H459.021V77.78C459.021 77.4467 459.107 77.1933 459.281 77.02C459.454 76.8467 459.701 76.76 460.021 76.76C460.341 76.76 460.587 76.8467 460.761 77.02C460.947 77.1933 461.041 77.4467 461.041 77.78V90.12C461.041 90.44 460.954 90.6933 460.781 90.88C460.607 91.0533 460.361 91.14 460.041 91.14C459.721 91.14 459.474 91.0533 459.301 90.88C459.127 90.6933 459.041 90.44 459.041 90.12V88.36L459.261 88.8C459.047 89.52 458.627 90.1 458.001 90.54C457.387 90.9667 456.647 91.18 455.781 91.18ZM456.301 89.62C456.847 89.62 457.327 89.4867 457.741 89.22C458.154 88.9533 458.474 88.56 458.701 88.04C458.941 87.52 459.061 86.88 459.061 86.12C459.061 84.9733 458.807 84.1067 458.301 83.52C457.794 82.9333 457.127 82.64 456.301 82.64C455.741 82.64 455.254 82.7733 454.841 83.04C454.427 83.2933 454.101 83.68 453.861 84.2C453.634 84.72 453.521 85.36 453.521 86.12C453.521 87.2533 453.774 88.12 454.281 88.72C454.787 89.32 455.461 89.62 456.301 89.62ZM466.997 91.18C466.317 91.18 465.704 91.0467 465.157 90.78C464.624 90.5133 464.204 90.1533 463.897 89.7C463.59 89.2467 463.437 88.7333 463.437 88.16C463.437 87.44 463.617 86.8733 463.977 86.46C464.35 86.0333 464.957 85.7333 465.797 85.56C466.65 85.3733 467.797 85.28 469.237 85.28H470.177V86.52H469.257C468.297 86.52 467.537 86.5667 466.977 86.66C466.417 86.7533 466.017 86.9133 465.777 87.14C465.55 87.3533 465.437 87.6533 465.437 88.04C465.437 88.5467 465.61 88.96 465.957 89.28C466.304 89.5867 466.784 89.74 467.397 89.74C467.89 89.74 468.324 89.6267 468.697 89.4C469.07 89.16 469.364 88.84 469.577 88.44C469.804 88.04 469.917 87.58 469.917 87.06V84.76C469.917 84 469.757 83.4533 469.437 83.12C469.117 82.7867 468.59 82.62 467.857 82.62C467.43 82.62 466.984 82.6733 466.517 82.78C466.064 82.8867 465.59 83.0667 465.097 83.32C464.87 83.4267 464.677 83.46 464.517 83.42C464.357 83.38 464.23 83.2933 464.137 83.16C464.044 83.0133 463.99 82.86 463.977 82.7C463.977 82.5267 464.017 82.36 464.097 82.2C464.19 82.04 464.344 81.92 464.557 81.84C465.144 81.56 465.724 81.36 466.297 81.24C466.87 81.12 467.41 81.06 467.917 81.06C468.81 81.06 469.544 81.2 470.117 81.48C470.704 81.76 471.137 82.1867 471.417 82.76C471.697 83.3333 471.837 84.0733 471.837 84.98V90.12C471.837 90.44 471.757 90.6933 471.597 90.88C471.437 91.0533 471.204 91.14 470.897 91.14C470.604 91.14 470.37 91.0533 470.197 90.88C470.024 90.6933 469.937 90.44 469.937 90.12V88.82H470.117C470.01 89.3133 469.81 89.74 469.517 90.1C469.237 90.4467 468.884 90.7133 468.457 90.9C468.03 91.0867 467.544 91.18 466.997 91.18ZM477.759 91.18C476.719 91.18 475.933 90.88 475.399 90.28C474.879 89.6667 474.619 88.7867 474.619 87.64V77.78C474.619 77.4467 474.706 77.1933 474.879 77.02C475.053 76.8467 475.299 76.76 475.619 76.76C475.939 76.76 476.186 76.8467 476.359 77.02C476.546 77.1933 476.639 77.4467 476.639 77.78V87.52C476.639 88.1867 476.773 88.6867 477.039 89.02C477.319 89.34 477.719 89.5 478.239 89.5C478.359 89.5 478.466 89.5 478.559 89.5C478.653 89.4867 478.746 89.4733 478.839 89.46C478.999 89.4467 479.113 89.4933 479.179 89.6C479.246 89.6933 479.279 89.8933 479.279 90.2C479.279 90.48 479.219 90.7 479.099 90.86C478.979 91.0067 478.786 91.1 478.519 91.14C478.399 91.1533 478.273 91.16 478.139 91.16C478.006 91.1733 477.879 91.18 477.759 91.18ZM219.72 115.18C218.72 115.18 217.853 114.973 217.12 114.56C216.4 114.133 215.84 113.54 215.44 112.78C215.04 112.007 214.84 111.1 214.84 110.06C214.84 109.287 214.953 108.593 215.18 107.98C215.407 107.353 215.727 106.827 216.14 106.4C216.567 105.973 217.08 105.647 217.68 105.42C218.293 105.18 218.973 105.06 219.72 105.06C220.187 105.06 220.673 105.133 221.18 105.28C221.7 105.413 222.18 105.64 222.62 105.96C222.793 106.067 222.9 106.2 222.94 106.36C222.993 106.507 223 106.66 222.96 106.82C222.933 106.98 222.86 107.12 222.74 107.24C222.633 107.347 222.5 107.413 222.34 107.44C222.18 107.453 222.007 107.407 221.82 107.3C221.5 107.073 221.173 106.913 220.84 106.82C220.507 106.713 220.187 106.66 219.88 106.66C219.4 106.66 218.973 106.74 218.6 106.9C218.24 107.047 217.933 107.267 217.68 107.56C217.427 107.84 217.233 108.193 217.1 108.62C216.98 109.047 216.92 109.533 216.92 110.08C216.92 111.173 217.173 112.033 217.68 112.66C218.2 113.273 218.933 113.58 219.88 113.58C220.187 113.58 220.507 113.533 220.84 113.44C221.173 113.347 221.5 113.187 221.82 112.96C222.007 112.853 222.18 112.813 222.34 112.84C222.5 112.867 222.627 112.94 222.72 113.06C222.827 113.167 222.893 113.3 222.92 113.46C222.96 113.607 222.953 113.76 222.9 113.92C222.847 114.08 222.733 114.213 222.56 114.32C222.133 114.627 221.667 114.847 221.16 114.98C220.667 115.113 220.187 115.18 219.72 115.18ZM228.801 115.18C227.814 115.18 226.961 114.973 226.241 114.56C225.534 114.147 224.981 113.56 224.581 112.8C224.181 112.04 223.981 111.147 223.981 110.12C223.981 109.333 224.094 108.633 224.321 108.02C224.547 107.407 224.867 106.88 225.281 106.44C225.707 105.987 226.214 105.647 226.801 105.42C227.401 105.18 228.067 105.06 228.801 105.06C229.774 105.06 230.614 105.267 231.321 105.68C232.041 106.093 232.601 106.68 233.001 107.44C233.401 108.187 233.601 109.08 233.601 110.12C233.601 110.893 233.487 111.593 233.261 112.22C233.034 112.847 232.707 113.38 232.281 113.82C231.867 114.26 231.361 114.6 230.761 114.84C230.174 115.067 229.521 115.18 228.801 115.18ZM228.801 113.62C229.347 113.62 229.827 113.487 230.241 113.22C230.654 112.953 230.974 112.56 231.201 112.04C231.441 111.52 231.561 110.88 231.561 110.12C231.561 108.973 231.307 108.107 230.801 107.52C230.294 106.933 229.627 106.64 228.801 106.64C228.241 106.64 227.754 106.773 227.341 107.04C226.927 107.293 226.601 107.68 226.361 108.2C226.134 108.72 226.021 109.36 226.021 110.12C226.021 111.253 226.274 112.12 226.781 112.72C227.287 113.32 227.961 113.62 228.801 113.62ZM236.869 115.14C236.549 115.14 236.303 115.053 236.129 114.88C235.956 114.693 235.869 114.44 235.869 114.12V106.12C235.869 105.787 235.956 105.533 236.129 105.36C236.303 105.187 236.543 105.1 236.849 105.1C237.169 105.1 237.409 105.187 237.569 105.36C237.743 105.533 237.829 105.787 237.829 106.12V107.68L237.609 107.32C237.903 106.573 238.363 106.013 238.989 105.64C239.616 105.253 240.336 105.06 241.149 105.06C241.923 105.06 242.563 105.207 243.069 105.5C243.589 105.78 243.976 106.213 244.229 106.8C244.483 107.373 244.609 108.1 244.609 108.98V114.12C244.609 114.44 244.523 114.693 244.349 114.88C244.176 115.053 243.929 115.14 243.609 115.14C243.276 115.14 243.023 115.053 242.849 114.88C242.676 114.693 242.589 114.44 242.589 114.12V109.1C242.589 108.26 242.423 107.647 242.089 107.26C241.769 106.873 241.263 106.68 240.569 106.68C239.756 106.68 239.103 106.933 238.609 107.44C238.129 107.947 237.889 108.627 237.889 109.48V114.12C237.889 114.8 237.549 115.14 236.869 115.14ZM256.386 115.18C255.533 115.18 254.779 114.98 254.126 114.58C253.486 114.167 252.986 113.58 252.626 112.82C252.266 112.047 252.086 111.147 252.086 110.12C252.086 109.067 252.266 108.167 252.626 107.42C252.986 106.673 253.486 106.093 254.126 105.68C254.779 105.267 255.533 105.06 256.386 105.06C257.239 105.06 257.973 105.273 258.586 105.7C259.213 106.113 259.633 106.673 259.846 107.38H259.626V101.78C259.626 101.447 259.713 101.193 259.886 101.02C260.059 100.847 260.306 100.76 260.626 100.76C260.946 100.76 261.193 100.847 261.366 101.02C261.553 101.193 261.646 101.447 261.646 101.78V114.12C261.646 114.44 261.559 114.693 261.386 114.88C261.213 115.053 260.966 115.14 260.646 115.14C260.326 115.14 260.079 115.053 259.906 114.88C259.733 114.693 259.646 114.44 259.646 114.12V112.36L259.866 112.8C259.653 113.52 259.233 114.1 258.606 114.54C257.993 114.967 257.253 115.18 256.386 115.18ZM256.906 113.62C257.453 113.62 257.933 113.487 258.346 113.22C258.759 112.953 259.079 112.56 259.306 112.04C259.546 111.52 259.666 110.88 259.666 110.12C259.666 108.973 259.413 108.107 258.906 107.52C258.399 106.933 257.733 106.64 256.906 106.64C256.346 106.64 255.859 106.773 255.446 107.04C255.033 107.293 254.706 107.68 254.466 108.2C254.239 108.72 254.126 109.36 254.126 110.12C254.126 111.253 254.379 112.12 254.886 112.72C255.393 113.32 256.066 113.62 256.906 113.62ZM268.723 115.18C267.736 115.18 266.883 114.973 266.163 114.56C265.456 114.147 264.903 113.56 264.503 112.8C264.103 112.04 263.903 111.147 263.903 110.12C263.903 109.333 264.016 108.633 264.243 108.02C264.469 107.407 264.789 106.88 265.203 106.44C265.629 105.987 266.136 105.647 266.723 105.42C267.323 105.18 267.989 105.06 268.723 105.06C269.696 105.06 270.536 105.267 271.243 105.68C271.963 106.093 272.523 106.68 272.923 107.44C273.323 108.187 273.523 109.08 273.523 110.12C273.523 110.893 273.409 111.593 273.183 112.22C272.956 112.847 272.629 113.38 272.203 113.82C271.789 114.26 271.283 114.6 270.683 114.84C270.096 115.067 269.443 115.18 268.723 115.18ZM268.723 113.62C269.269 113.62 269.749 113.487 270.163 113.22C270.576 112.953 270.896 112.56 271.123 112.04C271.363 111.52 271.483 110.88 271.483 110.12C271.483 108.973 271.229 108.107 270.723 107.52C270.216 106.933 269.549 106.64 268.723 106.64C268.163 106.64 267.676 106.773 267.263 107.04C266.849 107.293 266.523 107.68 266.283 108.2C266.056 108.72 265.943 109.36 265.943 110.12C265.943 111.253 266.196 112.12 266.703 112.72C267.209 113.32 267.883 113.62 268.723 113.62ZM279.211 115.18C278.624 115.18 278.018 115.113 277.391 114.98C276.778 114.847 276.211 114.62 275.691 114.3C275.518 114.18 275.398 114.047 275.331 113.9C275.264 113.753 275.238 113.607 275.251 113.46C275.278 113.3 275.338 113.167 275.431 113.06C275.538 112.94 275.664 112.867 275.811 112.84C275.971 112.813 276.138 112.847 276.311 112.94C276.831 113.233 277.331 113.44 277.811 113.56C278.291 113.667 278.764 113.72 279.231 113.72C279.938 113.72 280.471 113.593 280.831 113.34C281.191 113.087 281.371 112.747 281.371 112.32C281.371 111.973 281.251 111.707 281.011 111.52C280.771 111.32 280.411 111.167 279.931 111.06L278.031 110.68C277.204 110.507 276.578 110.2 276.151 109.76C275.724 109.32 275.511 108.76 275.511 108.08C275.511 107.467 275.678 106.933 276.011 106.48C276.344 106.027 276.811 105.68 277.411 105.44C278.011 105.187 278.704 105.06 279.491 105.06C280.078 105.06 280.631 105.133 281.151 105.28C281.671 105.427 282.151 105.647 282.591 105.94C282.764 106.033 282.878 106.16 282.931 106.32C282.984 106.467 282.991 106.613 282.951 106.76C282.924 106.907 282.858 107.04 282.751 107.16C282.644 107.267 282.511 107.333 282.351 107.36C282.204 107.373 282.038 107.333 281.851 107.24C281.451 106.987 281.051 106.807 280.651 106.7C280.264 106.593 279.878 106.54 279.491 106.54C278.784 106.54 278.251 106.673 277.891 106.94C277.544 107.193 277.371 107.54 277.371 107.98C277.371 108.313 277.478 108.587 277.691 108.8C277.904 109.013 278.238 109.167 278.691 109.26L280.591 109.64C281.458 109.813 282.111 110.107 282.551 110.52C283.004 110.933 283.231 111.493 283.231 112.2C283.231 113.12 282.864 113.847 282.131 114.38C281.398 114.913 280.424 115.18 279.211 115.18ZM293.892 115.18C292.852 115.18 292.065 114.88 291.532 114.28C291.012 113.667 290.752 112.787 290.752 111.64V101.78C290.752 101.447 290.839 101.193 291.012 101.02C291.185 100.847 291.432 100.76 291.752 100.76C292.072 100.76 292.319 100.847 292.492 101.02C292.679 101.193 292.772 101.447 292.772 101.78V111.52C292.772 112.187 292.905 112.687 293.172 113.02C293.452 113.34 293.852 113.5 294.372 113.5C294.492 113.5 294.599 113.5 294.692 113.5C294.785 113.487 294.879 113.473 294.972 113.46C295.132 113.447 295.245 113.493 295.312 113.6C295.379 113.693 295.412 113.893 295.412 114.2C295.412 114.48 295.352 114.7 295.232 114.86C295.112 115.007 294.919 115.1 294.652 115.14C294.532 115.153 294.405 115.16 294.272 115.16C294.139 115.173 294.012 115.18 293.892 115.18ZM297.865 115.12C297.545 115.12 297.299 115.027 297.125 114.84C296.952 114.64 296.865 114.367 296.865 114.02V106.22C296.865 105.873 296.952 105.607 297.125 105.42C297.299 105.233 297.545 105.14 297.865 105.14C298.185 105.14 298.432 105.233 298.605 105.42C298.792 105.607 298.885 105.873 298.885 106.22V114.02C298.885 114.367 298.799 114.64 298.625 114.84C298.452 115.027 298.199 115.12 297.865 115.12ZM298.645 103.84C298.539 104 298.405 104.093 298.245 104.12C298.099 104.147 297.952 104.12 297.805 104.04C297.659 103.96 297.552 103.847 297.485 103.7C297.432 103.553 297.445 103.393 297.525 103.22L299.145 100.08C299.252 99.8667 299.385 99.7267 299.545 99.66C299.719 99.5933 299.892 99.5867 300.065 99.64C300.252 99.68 300.405 99.76 300.525 99.88C300.659 100 300.739 100.153 300.765 100.34C300.792 100.513 300.745 100.687 300.625 100.86L298.645 103.84ZM302.729 115.14C302.409 115.14 302.162 115.053 301.989 114.88C301.815 114.693 301.729 114.44 301.729 114.12V106.12C301.729 105.787 301.815 105.533 301.989 105.36C302.162 105.187 302.402 105.1 302.709 105.1C303.029 105.1 303.269 105.187 303.429 105.36C303.602 105.533 303.689 105.787 303.689 106.12V107.68L303.469 107.32C303.762 106.573 304.222 106.013 304.849 105.64C305.475 105.253 306.195 105.06 307.009 105.06C307.782 105.06 308.422 105.207 308.929 105.5C309.449 105.78 309.835 106.213 310.089 106.8C310.342 107.373 310.469 108.1 310.469 108.98V114.12C310.469 114.44 310.382 114.693 310.209 114.88C310.035 115.053 309.789 115.14 309.469 115.14C309.135 115.14 308.882 115.053 308.709 114.88C308.535 114.693 308.449 114.44 308.449 114.12V109.1C308.449 108.26 308.282 107.647 307.949 107.26C307.629 106.873 307.122 106.68 306.429 106.68C305.615 106.68 304.962 106.933 304.469 107.44C303.989 107.947 303.749 108.627 303.749 109.48V114.12C303.749 114.8 303.409 115.14 302.729 115.14ZM317.832 115.18C316.765 115.18 315.845 114.98 315.072 114.58C314.312 114.167 313.719 113.587 313.292 112.84C312.879 112.08 312.672 111.18 312.672 110.14C312.672 109.127 312.879 108.24 313.292 107.48C313.705 106.72 314.272 106.127 314.992 105.7C315.712 105.273 316.532 105.06 317.452 105.06C318.132 105.06 318.739 105.173 319.272 105.4C319.805 105.613 320.259 105.933 320.632 106.36C321.019 106.773 321.305 107.28 321.492 107.88C321.692 108.48 321.792 109.153 321.792 109.9C321.792 110.127 321.725 110.3 321.592 110.42C321.459 110.527 321.259 110.58 320.992 110.58H314.272V109.34H320.432L320.092 109.62C320.092 108.953 319.992 108.387 319.792 107.92C319.605 107.453 319.319 107.1 318.932 106.86C318.559 106.607 318.092 106.48 317.532 106.48C316.905 106.48 316.372 106.627 315.932 106.92C315.505 107.213 315.179 107.62 314.952 108.14C314.725 108.66 314.612 109.267 314.612 109.96V110.08C314.612 111.253 314.885 112.14 315.432 112.74C315.992 113.327 316.799 113.62 317.852 113.62C318.252 113.62 318.672 113.567 319.112 113.46C319.565 113.353 319.992 113.173 320.392 112.92C320.619 112.787 320.819 112.727 320.992 112.74C321.179 112.753 321.325 112.813 321.432 112.92C321.552 113.027 321.625 113.16 321.652 113.32C321.679 113.48 321.652 113.647 321.572 113.82C321.492 113.98 321.352 114.127 321.152 114.26C320.699 114.567 320.172 114.8 319.572 114.96C318.972 115.107 318.392 115.18 317.832 115.18ZM327.114 115.18C326.434 115.18 325.821 115.047 325.274 114.78C324.741 114.513 324.321 114.153 324.014 113.7C323.708 113.247 323.554 112.733 323.554 112.16C323.554 111.44 323.734 110.873 324.094 110.46C324.468 110.033 325.074 109.733 325.914 109.56C326.768 109.373 327.914 109.28 329.354 109.28H330.294V110.52H329.374C328.414 110.52 327.654 110.567 327.094 110.66C326.534 110.753 326.134 110.913 325.894 111.14C325.668 111.353 325.554 111.653 325.554 112.04C325.554 112.547 325.728 112.96 326.074 113.28C326.421 113.587 326.901 113.74 327.514 113.74C328.008 113.74 328.441 113.627 328.814 113.4C329.188 113.16 329.481 112.84 329.694 112.44C329.921 112.04 330.034 111.58 330.034 111.06V108.76C330.034 108 329.874 107.453 329.554 107.12C329.234 106.787 328.708 106.62 327.974 106.62C327.548 106.62 327.101 106.673 326.634 106.78C326.181 106.887 325.708 107.067 325.214 107.32C324.988 107.427 324.794 107.46 324.634 107.42C324.474 107.38 324.348 107.293 324.254 107.16C324.161 107.013 324.108 106.86 324.094 106.7C324.094 106.527 324.134 106.36 324.214 106.2C324.308 106.04 324.461 105.92 324.674 105.84C325.261 105.56 325.841 105.36 326.414 105.24C326.988 105.12 327.528 105.06 328.034 105.06C328.928 105.06 329.661 105.2 330.234 105.48C330.821 105.76 331.254 106.187 331.534 106.76C331.814 107.333 331.954 108.073 331.954 108.98V114.12C331.954 114.44 331.874 114.693 331.714 114.88C331.554 115.053 331.321 115.14 331.014 115.14C330.721 115.14 330.488 115.053 330.314 114.88C330.141 114.693 330.054 114.44 330.054 114.12V112.82H330.234C330.128 113.313 329.928 113.74 329.634 114.1C329.354 114.447 329.001 114.713 328.574 114.9C328.148 115.087 327.661 115.18 327.114 115.18ZM338.156 115.18C337.57 115.18 336.963 115.113 336.336 114.98C335.723 114.847 335.156 114.62 334.636 114.3C334.463 114.18 334.343 114.047 334.276 113.9C334.21 113.753 334.183 113.607 334.196 113.46C334.223 113.3 334.283 113.167 334.376 113.06C334.483 112.94 334.61 112.867 334.756 112.84C334.916 112.813 335.083 112.847 335.256 112.94C335.776 113.233 336.276 113.44 336.756 113.56C337.236 113.667 337.71 113.72 338.176 113.72C338.883 113.72 339.416 113.593 339.776 113.34C340.136 113.087 340.316 112.747 340.316 112.32C340.316 111.973 340.196 111.707 339.956 111.52C339.716 111.32 339.356 111.167 338.876 111.06L336.976 110.68C336.15 110.507 335.523 110.2 335.096 109.76C334.67 109.32 334.456 108.76 334.456 108.08C334.456 107.467 334.623 106.933 334.956 106.48C335.29 106.027 335.756 105.68 336.356 105.44C336.956 105.187 337.65 105.06 338.436 105.06C339.023 105.06 339.576 105.133 340.096 105.28C340.616 105.427 341.096 105.647 341.536 105.94C341.71 106.033 341.823 106.16 341.876 106.32C341.93 106.467 341.936 106.613 341.896 106.76C341.87 106.907 341.803 107.04 341.696 107.16C341.59 107.267 341.456 107.333 341.296 107.36C341.15 107.373 340.983 107.333 340.796 107.24C340.396 106.987 339.996 106.807 339.596 106.7C339.21 106.593 338.823 106.54 338.436 106.54C337.73 106.54 337.196 106.673 336.836 106.94C336.49 107.193 336.316 107.54 336.316 107.98C336.316 108.313 336.423 108.587 336.636 108.8C336.85 109.013 337.183 109.167 337.636 109.26L339.536 109.64C340.403 109.813 341.056 110.107 341.496 110.52C341.95 110.933 342.176 111.493 342.176 112.2C342.176 113.12 341.81 113.847 341.076 114.38C340.343 114.913 339.37 115.18 338.156 115.18ZM353.417 115.18C352.564 115.18 351.811 114.98 351.157 114.58C350.517 114.167 350.017 113.58 349.657 112.82C349.297 112.047 349.117 111.147 349.117 110.12C349.117 109.067 349.297 108.167 349.657 107.42C350.017 106.673 350.517 106.093 351.157 105.68C351.811 105.267 352.564 105.06 353.417 105.06C354.271 105.06 355.004 105.273 355.617 105.7C356.244 106.113 356.664 106.673 356.877 107.38H356.657V101.78C356.657 101.447 356.744 101.193 356.917 101.02C357.091 100.847 357.337 100.76 357.657 100.76C357.977 100.76 358.224 100.847 358.397 101.02C358.584 101.193 358.677 101.447 358.677 101.78V114.12C358.677 114.44 358.591 114.693 358.417 114.88C358.244 115.053 357.997 115.14 357.677 115.14C357.357 115.14 357.111 115.053 356.937 114.88C356.764 114.693 356.677 114.44 356.677 114.12V112.36L356.897 112.8C356.684 113.52 356.264 114.1 355.637 114.54C355.024 114.967 354.284 115.18 353.417 115.18ZM353.937 113.62C354.484 113.62 354.964 113.487 355.377 113.22C355.791 112.953 356.111 112.56 356.337 112.04C356.577 111.52 356.697 110.88 356.697 110.12C356.697 108.973 356.444 108.107 355.937 107.52C355.431 106.933 354.764 106.64 353.937 106.64C353.377 106.64 352.891 106.773 352.477 107.04C352.064 107.293 351.737 107.68 351.497 108.2C351.271 108.72 351.157 109.36 351.157 110.12C351.157 111.253 351.411 112.12 351.917 112.72C352.424 113.32 353.097 113.62 353.937 113.62ZM366.094 115.18C365.027 115.18 364.107 114.98 363.334 114.58C362.574 114.167 361.98 113.587 361.554 112.84C361.14 112.08 360.934 111.18 360.934 110.14C360.934 109.127 361.14 108.24 361.554 107.48C361.967 106.72 362.534 106.127 363.254 105.7C363.974 105.273 364.794 105.06 365.714 105.06C366.394 105.06 367 105.173 367.534 105.4C368.067 105.613 368.52 105.933 368.894 106.36C369.28 106.773 369.567 107.28 369.754 107.88C369.954 108.48 370.054 109.153 370.054 109.9C370.054 110.127 369.987 110.3 369.854 110.42C369.72 110.527 369.52 110.58 369.254 110.58H362.534V109.34H368.694L368.354 109.62C368.354 108.953 368.254 108.387 368.054 107.92C367.867 107.453 367.58 107.1 367.194 106.86C366.82 106.607 366.354 106.48 365.794 106.48C365.167 106.48 364.634 106.627 364.194 106.92C363.767 107.213 363.44 107.62 363.214 108.14C362.987 108.66 362.874 109.267 362.874 109.96V110.08C362.874 111.253 363.147 112.14 363.694 112.74C364.254 113.327 365.06 113.62 366.114 113.62C366.514 113.62 366.934 113.567 367.374 113.46C367.827 113.353 368.254 113.173 368.654 112.92C368.88 112.787 369.08 112.727 369.254 112.74C369.44 112.753 369.587 112.813 369.694 112.92C369.814 113.027 369.887 113.16 369.914 113.32C369.94 113.48 369.914 113.647 369.834 113.82C369.754 113.98 369.614 114.127 369.414 114.26C368.96 114.567 368.434 114.8 367.834 114.96C367.234 115.107 366.654 115.18 366.094 115.18ZM382.109 115.18C381.043 115.18 380.123 114.98 379.349 114.58C378.589 114.167 377.996 113.587 377.569 112.84C377.156 112.08 376.949 111.18 376.949 110.14C376.949 109.127 377.156 108.24 377.569 107.48C377.983 106.72 378.549 106.127 379.269 105.7C379.989 105.273 380.809 105.06 381.729 105.06C382.409 105.06 383.016 105.173 383.549 105.4C384.083 105.613 384.536 105.933 384.909 106.36C385.296 106.773 385.583 107.28 385.769 107.88C385.969 108.48 386.069 109.153 386.069 109.9C386.069 110.127 386.003 110.3 385.869 110.42C385.736 110.527 385.536 110.58 385.269 110.58H378.549V109.34H384.709L384.369 109.62C384.369 108.953 384.269 108.387 384.069 107.92C383.883 107.453 383.596 107.1 383.209 106.86C382.836 106.607 382.369 106.48 381.809 106.48C381.183 106.48 380.649 106.627 380.209 106.92C379.783 107.213 379.456 107.62 379.229 108.14C379.003 108.66 378.889 109.267 378.889 109.96V110.08C378.889 111.253 379.163 112.14 379.709 112.74C380.269 113.327 381.076 113.62 382.129 113.62C382.529 113.62 382.949 113.567 383.389 113.46C383.843 113.353 384.269 113.173 384.669 112.92C384.896 112.787 385.096 112.727 385.269 112.74C385.456 112.753 385.603 112.813 385.709 112.92C385.829 113.027 385.903 113.16 385.929 113.32C385.956 113.48 385.929 113.647 385.849 113.82C385.769 113.98 385.629 114.127 385.429 114.26C384.976 114.567 384.449 114.8 383.849 114.96C383.249 115.107 382.669 115.18 382.109 115.18ZM386.712 118.8C386.472 118.813 386.278 118.773 386.132 118.68C385.972 118.587 385.865 118.467 385.812 118.32C385.745 118.173 385.725 118.02 385.752 117.86C385.765 117.713 385.832 117.58 385.952 117.46C386.058 117.353 386.205 117.293 386.392 117.28C387.058 117.24 387.545 117.06 387.852 116.74C388.172 116.42 388.332 115.913 388.332 115.22V106.12C388.332 105.787 388.418 105.533 388.592 105.36C388.778 105.187 389.032 105.1 389.352 105.1C389.685 105.1 389.932 105.187 390.092 105.36C390.265 105.533 390.352 105.787 390.352 106.12V115.06C390.352 115.887 390.212 116.567 389.932 117.1C389.665 117.647 389.265 118.053 388.732 118.32C388.198 118.587 387.525 118.747 386.712 118.8ZM389.352 103.06C388.952 103.06 388.638 102.96 388.412 102.76C388.198 102.56 388.092 102.28 388.092 101.92C388.092 101.547 388.198 101.267 388.412 101.08C388.638 100.88 388.952 100.78 389.352 100.78C389.752 100.78 390.058 100.88 390.272 101.08C390.485 101.267 390.592 101.547 390.592 101.92C390.592 102.28 390.485 102.56 390.272 102.76C390.058 102.96 389.752 103.06 389.352 103.06ZM397.773 115.18C396.707 115.18 395.787 114.98 395.013 114.58C394.253 114.167 393.66 113.587 393.233 112.84C392.82 112.08 392.613 111.18 392.613 110.14C392.613 109.127 392.82 108.24 393.233 107.48C393.647 106.72 394.213 106.127 394.933 105.7C395.653 105.273 396.473 105.06 397.393 105.06C398.073 105.06 398.68 105.173 399.213 105.4C399.747 105.613 400.2 105.933 400.573 106.36C400.96 106.773 401.247 107.28 401.433 107.88C401.633 108.48 401.733 109.153 401.733 109.9C401.733 110.127 401.667 110.3 401.533 110.42C401.4 110.527 401.2 110.58 400.933 110.58H394.213V109.34H400.373L400.033 109.62C400.033 108.953 399.933 108.387 399.733 107.92C399.547 107.453 399.26 107.1 398.873 106.86C398.5 106.607 398.033 106.48 397.473 106.48C396.847 106.48 396.313 106.627 395.873 106.92C395.447 107.213 395.12 107.62 394.893 108.14C394.667 108.66 394.553 109.267 394.553 109.96V110.08C394.553 111.253 394.827 112.14 395.373 112.74C395.933 113.327 396.74 113.62 397.793 113.62C398.193 113.62 398.613 113.567 399.053 113.46C399.507 113.353 399.933 113.173 400.333 112.92C400.56 112.787 400.76 112.727 400.933 112.74C401.12 112.753 401.267 112.813 401.373 112.92C401.493 113.027 401.567 113.16 401.593 113.32C401.62 113.48 401.593 113.647 401.513 113.82C401.433 113.98 401.293 114.127 401.093 114.26C400.64 114.567 400.113 114.8 399.513 114.96C398.913 115.107 398.333 115.18 397.773 115.18ZM404.976 115.14C404.656 115.14 404.409 115.053 404.236 114.88C404.062 114.693 403.976 114.44 403.976 114.12V106.12C403.976 105.787 404.062 105.533 404.236 105.36C404.409 105.187 404.649 105.1 404.956 105.1C405.276 105.1 405.516 105.187 405.676 105.36C405.849 105.533 405.936 105.787 405.936 106.12V107.76L405.716 107.32C405.982 106.613 406.396 106.06 406.956 105.66C407.516 105.26 408.189 105.06 408.976 105.06C409.789 105.06 410.449 105.253 410.956 105.64C411.462 106.027 411.809 106.62 411.996 107.42H411.716C411.969 106.687 412.402 106.113 413.016 105.7C413.629 105.273 414.342 105.06 415.156 105.06C415.902 105.06 416.516 105.207 416.996 105.5C417.476 105.78 417.836 106.213 418.076 106.8C418.316 107.373 418.436 108.1 418.436 108.98V114.12C418.436 114.44 418.342 114.693 418.156 114.88C417.982 115.053 417.736 115.14 417.416 115.14C417.096 115.14 416.849 115.053 416.676 114.88C416.502 114.693 416.416 114.44 416.416 114.12V109.08C416.416 108.253 416.269 107.647 415.976 107.26C415.696 106.873 415.229 106.68 414.576 106.68C413.842 106.68 413.262 106.933 412.836 107.44C412.409 107.947 412.196 108.647 412.196 109.54V114.12C412.196 114.44 412.109 114.693 411.936 114.88C411.762 115.053 411.516 115.14 411.196 115.14C410.876 115.14 410.622 115.053 410.436 114.88C410.262 114.693 410.176 114.44 410.176 114.12V109.08C410.176 108.253 410.036 107.647 409.756 107.26C409.476 106.873 409.009 106.68 408.356 106.68C407.622 106.68 407.042 106.933 406.616 107.44C406.202 107.947 405.996 108.647 405.996 109.54V114.12C405.996 114.8 405.656 115.14 404.976 115.14ZM422.26 118.74C421.94 118.74 421.693 118.653 421.52 118.48C421.347 118.307 421.26 118.053 421.26 117.72V106.12C421.26 105.787 421.347 105.533 421.52 105.36C421.693 105.187 421.933 105.1 422.24 105.1C422.56 105.1 422.807 105.187 422.98 105.36C423.153 105.533 423.24 105.787 423.24 106.12V107.86L423.02 107.44C423.233 106.72 423.653 106.147 424.28 105.72C424.907 105.28 425.647 105.06 426.5 105.06C427.367 105.06 428.12 105.267 428.76 105.68C429.413 106.093 429.913 106.673 430.26 107.42C430.62 108.167 430.8 109.067 430.8 110.12C430.8 111.147 430.62 112.047 430.26 112.82C429.913 113.58 429.42 114.167 428.78 114.58C428.14 114.98 427.38 115.18 426.5 115.18C425.66 115.18 424.927 114.967 424.3 114.54C423.673 114.113 423.253 113.547 423.04 112.84H423.28V117.72C423.28 118.053 423.187 118.307 423 118.48C422.827 118.653 422.58 118.74 422.26 118.74ZM426 113.62C426.56 113.62 427.047 113.487 427.46 113.22C427.873 112.953 428.193 112.56 428.42 112.04C428.647 111.52 428.76 110.88 428.76 110.12C428.76 108.973 428.507 108.107 428 107.52C427.507 106.933 426.84 106.64 426 106.64C425.453 106.64 424.967 106.773 424.54 107.04C424.127 107.293 423.807 107.68 423.58 108.2C423.353 108.72 423.24 109.36 423.24 110.12C423.24 111.253 423.493 112.12 424 112.72C424.507 113.32 425.173 113.62 426 113.62ZM436.216 115.18C435.176 115.18 434.39 114.88 433.856 114.28C433.336 113.667 433.076 112.787 433.076 111.64V101.78C433.076 101.447 433.163 101.193 433.336 101.02C433.51 100.847 433.756 100.76 434.076 100.76C434.396 100.76 434.643 100.847 434.816 101.02C435.003 101.193 435.096 101.447 435.096 101.78V111.52C435.096 112.187 435.23 112.687 435.496 113.02C435.776 113.34 436.176 113.5 436.696 113.5C436.816 113.5 436.923 113.5 437.016 113.5C437.11 113.487 437.203 113.473 437.296 113.46C437.456 113.447 437.57 113.493 437.636 113.6C437.703 113.693 437.736 113.893 437.736 114.2C437.736 114.48 437.676 114.7 437.556 114.86C437.436 115.007 437.243 115.1 436.976 115.14C436.856 115.153 436.73 115.16 436.596 115.16C436.463 115.173 436.336 115.18 436.216 115.18ZM443.332 115.18C442.345 115.18 441.492 114.973 440.772 114.56C440.065 114.147 439.512 113.56 439.112 112.8C438.712 112.04 438.512 111.147 438.512 110.12C438.512 109.333 438.625 108.633 438.852 108.02C439.079 107.407 439.399 106.88 439.812 106.44C440.239 105.987 440.745 105.647 441.332 105.42C441.932 105.18 442.599 105.06 443.332 105.06C444.305 105.06 445.145 105.267 445.852 105.68C446.572 106.093 447.132 106.68 447.532 107.44C447.932 108.187 448.132 109.08 448.132 110.12C448.132 110.893 448.019 111.593 447.792 112.22C447.565 112.847 447.239 113.38 446.812 113.82C446.399 114.26 445.892 114.6 445.292 114.84C444.705 115.067 444.052 115.18 443.332 115.18ZM443.332 113.62C443.879 113.62 444.359 113.487 444.772 113.22C445.185 112.953 445.505 112.56 445.732 112.04C445.972 111.52 446.092 110.88 446.092 110.12C446.092 108.973 445.839 108.107 445.332 107.52C444.825 106.933 444.159 106.64 443.332 106.64C442.772 106.64 442.285 106.773 441.872 107.04C441.459 107.293 441.132 107.68 440.892 108.2C440.665 108.72 440.552 109.36 440.552 110.12C440.552 111.253 440.805 112.12 441.312 112.72C441.819 113.32 442.492 113.62 443.332 113.62Z" fill="#101E37"/>
<rect x="410" y="144" width="104" height="40" rx="8" fill="#336ACC"/>
<path d="M427.512 170.144C427.224 170.144 426.99 170.078 426.81 169.946C426.642 169.814 426.54 169.64 426.504 169.424C426.468 169.196 426.51 168.944 426.63 168.668L431.382 158.138C431.538 157.79 431.724 157.544 431.94 157.4C432.168 157.244 432.426 157.166 432.714 157.166C432.99 157.166 433.236 157.244 433.452 157.4C433.68 157.544 433.872 157.79 434.028 158.138L438.798 168.668C438.93 168.944 438.978 169.196 438.942 169.424C438.906 169.652 438.804 169.832 438.636 169.964C438.468 170.084 438.246 170.144 437.97 170.144C437.634 170.144 437.37 170.066 437.178 169.91C436.998 169.742 436.836 169.49 436.692 169.154L435.522 166.436L436.494 167.066H428.898L429.87 166.436L428.718 169.154C428.562 169.502 428.4 169.754 428.232 169.91C428.064 170.066 427.824 170.144 427.512 170.144ZM432.678 159.812L430.158 165.806L429.69 165.23H435.702L435.252 165.806L432.714 159.812H432.678ZM444.545 170.18C443.621 170.18 442.817 169.994 442.133 169.622C441.449 169.238 440.921 168.698 440.549 168.002C440.177 167.306 439.991 166.49 439.991 165.554C439.991 164.846 440.093 164.216 440.297 163.664C440.513 163.1 440.819 162.626 441.215 162.242C441.611 161.846 442.091 161.546 442.655 161.342C443.219 161.126 443.849 161.018 444.545 161.018C444.941 161.018 445.367 161.072 445.823 161.18C446.291 161.288 446.729 161.468 447.137 161.72C447.329 161.84 447.455 161.984 447.515 162.152C447.575 162.32 447.587 162.494 447.551 162.674C447.515 162.842 447.437 162.992 447.317 163.124C447.209 163.244 447.071 163.322 446.903 163.358C446.735 163.382 446.549 163.34 446.345 163.232C446.081 163.076 445.811 162.962 445.535 162.89C445.259 162.806 444.995 162.764 444.743 162.764C444.347 162.764 443.999 162.83 443.699 162.962C443.399 163.082 443.141 163.262 442.925 163.502C442.721 163.73 442.565 164.018 442.457 164.366C442.349 164.714 442.295 165.116 442.295 165.572C442.295 166.46 442.505 167.162 442.925 167.678C443.357 168.182 443.963 168.434 444.743 168.434C444.995 168.434 445.253 168.398 445.517 168.326C445.793 168.254 446.069 168.14 446.345 167.984C446.549 167.876 446.729 167.84 446.885 167.876C447.053 167.912 447.191 167.996 447.299 168.128C447.407 168.248 447.473 168.398 447.497 168.578C447.521 168.746 447.497 168.914 447.425 169.082C447.365 169.25 447.245 169.388 447.065 169.496C446.669 169.736 446.249 169.91 445.805 170.018C445.361 170.126 444.941 170.18 444.545 170.18ZM452.859 170.18C451.935 170.18 451.131 169.994 450.447 169.622C449.763 169.238 449.235 168.698 448.863 168.002C448.491 167.306 448.305 166.49 448.305 165.554C448.305 164.846 448.407 164.216 448.611 163.664C448.827 163.1 449.133 162.626 449.529 162.242C449.925 161.846 450.405 161.546 450.969 161.342C451.533 161.126 452.163 161.018 452.859 161.018C453.255 161.018 453.681 161.072 454.137 161.18C454.605 161.288 455.043 161.468 455.451 161.72C455.643 161.84 455.769 161.984 455.829 162.152C455.889 162.32 455.901 162.494 455.865 162.674C455.829 162.842 455.751 162.992 455.631 163.124C455.523 163.244 455.385 163.322 455.217 163.358C455.049 163.382 454.863 163.34 454.659 163.232C454.395 163.076 454.125 162.962 453.849 162.89C453.573 162.806 453.309 162.764 453.057 162.764C452.661 162.764 452.313 162.83 452.013 162.962C451.713 163.082 451.455 163.262 451.239 163.502C451.035 163.73 450.879 164.018 450.771 164.366C450.663 164.714 450.609 165.116 450.609 165.572C450.609 166.46 450.819 167.162 451.239 167.678C451.671 168.182 452.277 168.434 453.057 168.434C453.309 168.434 453.567 168.398 453.831 168.326C454.107 168.254 454.383 168.14 454.659 167.984C454.863 167.876 455.043 167.84 455.199 167.876C455.367 167.912 455.505 167.996 455.613 168.128C455.721 168.248 455.787 168.398 455.811 168.578C455.835 168.746 455.811 168.914 455.739 169.082C455.679 169.25 455.559 169.388 455.379 169.496C454.983 169.736 454.563 169.91 454.119 170.018C453.675 170.126 453.255 170.18 452.859 170.18ZM458.397 170.126C458.037 170.126 457.761 170.018 457.569 169.802C457.377 169.586 457.281 169.286 457.281 168.902V162.296C457.281 161.9 457.377 161.6 457.569 161.396C457.761 161.18 458.037 161.072 458.397 161.072C458.757 161.072 459.033 161.18 459.225 161.396C459.429 161.6 459.531 161.9 459.531 162.296V168.902C459.531 169.286 459.435 169.586 459.243 169.802C459.051 170.018 458.769 170.126 458.397 170.126ZM458.397 159.398C457.977 159.398 457.647 159.296 457.407 159.092C457.179 158.876 457.065 158.582 457.065 158.21C457.065 157.826 457.179 157.532 457.407 157.328C457.647 157.124 457.977 157.022 458.397 157.022C458.829 157.022 459.159 157.124 459.387 157.328C459.615 157.532 459.729 157.826 459.729 158.21C459.729 158.582 459.615 158.876 459.387 159.092C459.159 159.296 458.829 159.398 458.397 159.398ZM465.883 170.18C464.971 170.18 464.179 169.994 463.507 169.622C462.835 169.25 462.313 168.722 461.941 168.038C461.569 167.342 461.383 166.526 461.383 165.59C461.383 164.882 461.485 164.252 461.689 163.7C461.905 163.136 462.211 162.656 462.607 162.26C463.003 161.852 463.477 161.546 464.029 161.342C464.581 161.126 465.199 161.018 465.883 161.018C466.795 161.018 467.587 161.204 468.259 161.576C468.931 161.948 469.453 162.476 469.825 163.16C470.197 163.844 470.383 164.654 470.383 165.59C470.383 166.298 470.275 166.934 470.059 167.498C469.855 168.062 469.555 168.548 469.159 168.956C468.763 169.352 468.289 169.658 467.737 169.874C467.185 170.078 466.567 170.18 465.883 170.18ZM465.883 168.47C466.327 168.47 466.717 168.362 467.053 168.146C467.389 167.93 467.647 167.612 467.827 167.192C468.019 166.76 468.115 166.226 468.115 165.59C468.115 164.63 467.911 163.916 467.503 163.448C467.095 162.968 466.555 162.728 465.883 162.728C465.439 162.728 465.049 162.836 464.713 163.052C464.377 163.256 464.113 163.574 463.921 164.006C463.741 164.426 463.651 164.954 463.651 165.59C463.651 166.538 463.855 167.258 464.263 167.75C464.671 168.23 465.211 168.47 465.883 168.47ZM466.729 159.92C466.609 160.088 466.465 160.184 466.297 160.208C466.129 160.232 465.967 160.202 465.811 160.118C465.655 160.034 465.541 159.914 465.469 159.758C465.409 159.602 465.427 159.428 465.523 159.236L466.891 156.554C466.999 156.326 467.143 156.182 467.323 156.122C467.503 156.05 467.689 156.038 467.881 156.086C468.073 156.134 468.235 156.224 468.367 156.356C468.511 156.488 468.595 156.65 468.619 156.842C468.655 157.022 468.607 157.208 468.475 157.4L466.729 159.92ZM473.356 170.144C472.996 170.144 472.72 170.048 472.528 169.856C472.336 169.652 472.24 169.364 472.24 168.992V162.188C472.24 161.816 472.336 161.534 472.528 161.342C472.72 161.15 472.99 161.054 473.338 161.054C473.686 161.054 473.956 161.15 474.148 161.342C474.34 161.534 474.436 161.816 474.436 162.188V163.412L474.238 162.962C474.502 162.326 474.91 161.846 475.462 161.522C476.026 161.186 476.662 161.018 477.37 161.018C478.078 161.018 478.66 161.15 479.116 161.414C479.572 161.678 479.914 162.08 480.142 162.62C480.37 163.148 480.484 163.82 480.484 164.636V168.992C480.484 169.364 480.388 169.652 480.196 169.856C480.004 170.048 479.728 170.144 479.368 170.144C479.008 170.144 478.726 170.048 478.522 169.856C478.33 169.652 478.234 169.364 478.234 168.992V164.744C478.234 164.06 478.102 163.562 477.838 163.25C477.586 162.938 477.19 162.782 476.65 162.782C475.99 162.782 475.462 162.992 475.066 163.412C474.682 163.82 474.49 164.366 474.49 165.05V168.992C474.49 169.76 474.112 170.144 473.356 170.144ZM489.294 170C488.982 170 488.736 169.916 488.556 169.748C488.388 169.568 488.304 169.328 488.304 169.028C488.304 168.716 488.388 168.482 488.556 168.326C488.736 168.17 488.982 168.092 489.294 168.092H491.31V159.254H492.426L489.78 160.856C489.552 160.988 489.336 161.042 489.132 161.018C488.94 160.982 488.772 160.898 488.628 160.766C488.496 160.622 488.406 160.454 488.358 160.262C488.31 160.07 488.322 159.878 488.394 159.686C488.478 159.482 488.634 159.314 488.862 159.182L491.346 157.688C491.586 157.544 491.826 157.424 492.066 157.328C492.306 157.22 492.528 157.166 492.732 157.166C492.984 157.166 493.194 157.238 493.362 157.382C493.53 157.514 493.614 157.736 493.614 158.048V168.092H495.45C495.762 168.092 496.002 168.17 496.17 168.326C496.35 168.482 496.44 168.716 496.44 169.028C496.44 169.34 496.35 169.58 496.17 169.748C496.002 169.916 495.762 170 495.45 170H489.294Z" fill="white"/>
</svg>
