<svg width="728" height="284" viewBox="0 0 728 284" fill="none" xmlns="http://www.w3.org/2000/svg">
<rect x="0.5" y="0.5" width="727" height="283" rx="7.5" fill="#F3F6F9"/>
<rect x="0.5" y="0.5" width="727" height="283" rx="7.5" stroke="#E6EBF0"/>
<rect x="189" y="47" width="350" height="190" rx="9" fill="white"/>
<rect x="189" y="47" width="350" height="190" rx="9" stroke="#E6EBF0" stroke-width="2"/>
<path d="M219.64 77.8877C219.088 77.8877 218.591 77.9834 218.149 78.1748C217.712 78.3617 217.338 78.6351 217.028 78.9951C216.723 79.3506 216.488 79.7812 216.324 80.2871C216.16 80.793 216.078 81.3626 216.078 81.9961C216.078 82.8346 216.208 83.5638 216.468 84.1836C216.732 84.7988 217.124 85.2751 217.644 85.6123C218.168 85.9495 218.822 86.1182 219.605 86.1182C220.052 86.1182 220.471 86.0817 220.863 86.0088C221.26 85.9313 221.645 85.8356 222.019 85.7217V86.7334C221.654 86.8701 221.271 86.9704 220.87 87.0342C220.469 87.1025 219.993 87.1367 219.441 87.1367C218.425 87.1367 217.575 86.9271 216.892 86.5078C216.213 86.084 215.702 85.487 215.36 84.7168C215.023 83.9466 214.854 83.0374 214.854 81.9893C214.854 81.2327 214.959 80.5423 215.169 79.918C215.383 79.2891 215.693 78.7467 216.099 78.291C216.509 77.8353 217.01 77.4844 217.603 77.2383C218.2 76.9876 218.883 76.8623 219.653 76.8623C220.159 76.8623 220.647 76.9124 221.116 77.0127C221.586 77.113 222.009 77.2565 222.388 77.4434L221.923 78.4277C221.604 78.2819 221.253 78.1566 220.87 78.0518C220.492 77.9424 220.082 77.8877 219.64 77.8877ZM230.454 87L229.224 83.8281H225.218L223.994 87H222.818L226.729 76.9648H227.774L231.657 87H230.454ZM228.875 82.7959L227.706 79.6445C227.679 79.5625 227.633 79.4281 227.569 79.2412C227.51 79.0544 227.449 78.8607 227.385 78.6602C227.321 78.4596 227.269 78.2979 227.228 78.1748C227.182 78.3617 227.132 78.5485 227.077 78.7354C227.027 78.9176 226.977 79.0885 226.927 79.248C226.877 79.403 226.833 79.5352 226.797 79.6445L225.607 82.7959H228.875ZM235.745 77.0059C236.565 77.0059 237.242 77.1084 237.775 77.3135C238.313 77.514 238.714 77.8216 238.979 78.2363C239.243 78.651 239.375 79.1797 239.375 79.8223C239.375 80.3509 239.279 80.793 239.088 81.1484C238.896 81.4993 238.646 81.7842 238.336 82.0029C238.026 82.2217 237.696 82.3903 237.345 82.5088L240.086 87H238.732L236.285 82.8301H234.207V87H233.045V77.0059H235.745ZM235.677 78.0107H234.207V81.8457H235.793C236.609 81.8457 237.208 81.6794 237.591 81.3467C237.978 81.014 238.172 80.5241 238.172 79.877C238.172 79.1979 237.967 78.7171 237.557 78.4346C237.151 78.152 236.524 78.0107 235.677 78.0107ZM245.958 81.7637H249.451V86.6104C248.927 86.7881 248.387 86.9202 247.831 87.0068C247.28 87.0934 246.662 87.1367 245.979 87.1367C244.939 87.1367 244.062 86.9294 243.347 86.5146C242.636 86.0999 242.096 85.5098 241.727 84.7441C241.357 83.974 241.173 83.0602 241.173 82.0029C241.173 80.9684 241.376 80.0661 241.781 79.2959C242.191 78.5257 242.782 77.9287 243.552 77.5049C244.326 77.0765 245.256 76.8623 246.341 76.8623C246.897 76.8623 247.423 76.9147 247.92 77.0195C248.421 77.1198 248.886 77.2633 249.314 77.4502L248.87 78.4619C248.501 78.3024 248.093 78.1657 247.646 78.0518C247.204 77.9378 246.746 77.8809 246.272 77.8809C245.457 77.8809 244.757 78.0495 244.174 78.3867C243.595 78.724 243.151 79.2002 242.841 79.8154C242.535 80.4307 242.383 81.1598 242.383 82.0029C242.383 82.8369 242.517 83.5638 242.786 84.1836C243.055 84.7988 243.474 85.2773 244.044 85.6191C244.614 85.9609 245.347 86.1318 246.245 86.1318C246.696 86.1318 247.084 86.1068 247.407 86.0566C247.731 86.002 248.025 85.9382 248.289 85.8652V82.8027H245.958V81.7637ZM258.14 87L256.909 83.8281H252.903L251.68 87H250.504L254.414 76.9648H255.46L259.343 87H258.14ZM256.561 82.7959L255.392 79.6445C255.364 79.5625 255.319 79.4281 255.255 79.2412C255.196 79.0544 255.134 78.8607 255.07 78.6602C255.007 78.4596 254.954 78.2979 254.913 78.1748C254.868 78.3617 254.817 78.5485 254.763 78.7354C254.713 78.9176 254.662 79.0885 254.612 79.248C254.562 79.403 254.519 79.5352 254.482 79.6445L253.293 82.7959H256.561ZM269.932 87H264.367V77.0059H269.932V78.0312H265.529V81.2646H269.679V82.2764H265.529V85.9746H269.932V87ZM278.818 87H277.499L274.799 82.5977L272.058 87H270.82L274.149 81.791L271.053 77.0059H272.345L274.84 80.9912L277.349 77.0059H278.579L275.489 81.7705L278.818 87ZM280.24 87V77.0059H281.402V87H280.24ZM287.22 87H286.051V78.0312H282.906V77.0059H290.351V78.0312H287.22V87ZM300.529 81.9893C300.529 82.7594 300.431 83.4613 300.235 84.0947C300.039 84.7236 299.748 85.266 299.36 85.7217C298.978 86.1729 298.501 86.5215 297.932 86.7676C297.362 87.0137 296.701 87.1367 295.949 87.1367C295.174 87.1367 294.498 87.0137 293.919 86.7676C293.345 86.5215 292.866 86.1706 292.483 85.7148C292.105 85.2591 291.82 84.7145 291.629 84.0811C291.442 83.4476 291.349 82.7458 291.349 81.9756C291.349 80.9548 291.517 80.0592 291.854 79.2891C292.192 78.5189 292.702 77.9196 293.386 77.4912C294.074 77.0628 294.935 76.8486 295.97 76.8486C296.959 76.8486 297.79 77.0605 298.465 77.4844C299.144 77.9082 299.657 78.5052 300.003 79.2754C300.354 80.041 300.529 80.9456 300.529 81.9893ZM292.572 81.9893C292.572 82.8369 292.693 83.5706 292.935 84.1904C293.176 84.8102 293.545 85.2887 294.042 85.626C294.543 85.9632 295.179 86.1318 295.949 86.1318C296.724 86.1318 297.357 85.9632 297.85 85.626C298.346 85.2887 298.713 84.8102 298.95 84.1904C299.187 83.5706 299.306 82.8369 299.306 81.9893C299.306 80.6995 299.035 79.6924 298.492 78.9678C297.954 78.2386 297.114 77.874 295.97 77.874C295.195 77.874 294.557 78.0404 294.056 78.373C293.554 78.7057 293.181 79.1797 292.935 79.7949C292.693 80.4056 292.572 81.137 292.572 81.9893ZM308.397 84.3408C308.397 84.9333 308.249 85.4391 307.953 85.8584C307.661 86.2731 307.251 86.5898 306.723 86.8086C306.194 87.0273 305.572 87.1367 304.856 87.1367C304.478 87.1367 304.12 87.1185 303.783 87.082C303.446 87.0456 303.136 86.9932 302.854 86.9248C302.571 86.8564 302.323 86.7721 302.108 86.6719V85.5576C302.45 85.6989 302.867 85.8311 303.359 85.9541C303.852 86.0726 304.367 86.1318 304.904 86.1318C305.406 86.1318 305.829 86.0658 306.176 85.9336C306.522 85.7969 306.784 85.6032 306.962 85.3525C307.144 85.0973 307.235 84.792 307.235 84.4365C307.235 84.0947 307.16 83.8099 307.01 83.582C306.859 83.3496 306.609 83.14 306.258 82.9531C305.911 82.7617 305.438 82.5589 304.836 82.3447C304.412 82.1943 304.038 82.0303 303.715 81.8525C303.391 81.6702 303.12 81.4652 302.901 81.2373C302.683 81.0094 302.516 80.7451 302.402 80.4443C302.293 80.1436 302.238 79.7995 302.238 79.4121C302.238 78.8789 302.373 78.4232 302.642 78.0449C302.915 77.6621 303.291 77.3704 303.77 77.1699C304.253 76.9648 304.806 76.8623 305.431 76.8623C305.964 76.8623 306.456 76.9124 306.907 77.0127C307.363 77.113 307.78 77.2474 308.158 77.416L307.796 78.4141C307.436 78.2637 307.053 78.1383 306.647 78.0381C306.246 77.9378 305.832 77.8877 305.403 77.8877C304.975 77.8877 304.613 77.9515 304.316 78.0791C304.025 78.2021 303.801 78.3776 303.646 78.6055C303.492 78.8333 303.414 79.1045 303.414 79.4189C303.414 79.7699 303.487 80.0615 303.633 80.2939C303.783 80.5264 304.02 80.7337 304.344 80.916C304.672 81.0938 305.105 81.2806 305.643 81.4766C306.23 81.6908 306.729 81.9186 307.14 82.1602C307.55 82.3971 307.862 82.6888 308.076 83.0352C308.29 83.377 308.397 83.8122 308.397 84.3408ZM316.71 87L315.479 83.8281H311.474L310.25 87H309.074L312.984 76.9648H314.03L317.913 87H316.71ZM315.131 82.7959L313.962 79.6445C313.935 79.5625 313.889 79.4281 313.825 79.2412C313.766 79.0544 313.704 78.8607 313.641 78.6602C313.577 78.4596 313.524 78.2979 313.483 78.1748C313.438 78.3617 313.388 78.5485 313.333 78.7354C313.283 78.9176 313.233 79.0885 313.183 79.248C313.132 79.403 313.089 79.5352 313.053 79.6445L311.863 82.7959H315.131Z" fill="#38485C"/>
<path d="M216.7 119C216.367 119 216.107 118.907 215.92 118.72C215.733 118.533 215.64 118.273 215.64 117.94V105.88C215.64 105.533 215.727 105.273 215.9 105.1C216.087 104.913 216.347 104.82 216.68 104.82C217.013 104.82 217.267 104.913 217.44 105.1C217.627 105.273 217.72 105.533 217.72 105.88V117.22H223.92C224.213 117.22 224.44 117.3 224.6 117.46C224.76 117.607 224.84 117.82 224.84 118.1C224.84 118.38 224.76 118.6 224.6 118.76C224.44 118.92 224.213 119 223.92 119H216.7ZM230.598 119.18C229.611 119.18 228.758 118.973 228.038 118.56C227.331 118.147 226.778 117.56 226.378 116.8C225.978 116.04 225.778 115.147 225.778 114.12C225.778 113.333 225.891 112.633 226.118 112.02C226.344 111.407 226.664 110.88 227.078 110.44C227.504 109.987 228.011 109.647 228.598 109.42C229.198 109.18 229.864 109.06 230.598 109.06C231.571 109.06 232.411 109.267 233.118 109.68C233.838 110.093 234.398 110.68 234.798 111.44C235.198 112.187 235.398 113.08 235.398 114.12C235.398 114.893 235.284 115.593 235.058 116.22C234.831 116.847 234.504 117.38 234.078 117.82C233.664 118.26 233.158 118.6 232.558 118.84C231.971 119.067 231.318 119.18 230.598 119.18ZM230.598 117.62C231.144 117.62 231.624 117.487 232.038 117.22C232.451 116.953 232.771 116.56 232.998 116.04C233.238 115.52 233.358 114.88 233.358 114.12C233.358 112.973 233.104 112.107 232.598 111.52C232.091 110.933 231.424 110.64 230.598 110.64C230.038 110.64 229.551 110.773 229.138 111.04C228.724 111.293 228.398 111.68 228.158 112.2C227.931 112.72 227.818 113.36 227.818 114.12C227.818 115.253 228.071 116.12 228.578 116.72C229.084 117.32 229.758 117.62 230.598 117.62ZM241.086 119.18C240.499 119.18 239.893 119.113 239.266 118.98C238.653 118.847 238.086 118.62 237.566 118.3C237.393 118.18 237.273 118.047 237.206 117.9C237.139 117.753 237.113 117.607 237.126 117.46C237.153 117.3 237.213 117.167 237.306 117.06C237.413 116.94 237.539 116.867 237.686 116.84C237.846 116.813 238.013 116.847 238.186 116.94C238.706 117.233 239.206 117.44 239.686 117.56C240.166 117.667 240.639 117.72 241.106 117.72C241.813 117.72 242.346 117.593 242.706 117.34C243.066 117.087 243.246 116.747 243.246 116.32C243.246 115.973 243.126 115.707 242.886 115.52C242.646 115.32 242.286 115.167 241.806 115.06L239.906 114.68C239.079 114.507 238.453 114.2 238.026 113.76C237.599 113.32 237.386 112.76 237.386 112.08C237.386 111.467 237.553 110.933 237.886 110.48C238.219 110.027 238.686 109.68 239.286 109.44C239.886 109.187 240.579 109.06 241.366 109.06C241.953 109.06 242.506 109.133 243.026 109.28C243.546 109.427 244.026 109.647 244.466 109.94C244.639 110.033 244.753 110.16 244.806 110.32C244.859 110.467 244.866 110.613 244.826 110.76C244.799 110.907 244.733 111.04 244.626 111.16C244.519 111.267 244.386 111.333 244.226 111.36C244.079 111.373 243.913 111.333 243.726 111.24C243.326 110.987 242.926 110.807 242.526 110.7C242.139 110.593 241.753 110.54 241.366 110.54C240.659 110.54 240.126 110.673 239.766 110.94C239.419 111.193 239.246 111.54 239.246 111.98C239.246 112.313 239.353 112.587 239.566 112.8C239.779 113.013 240.113 113.167 240.566 113.26L242.466 113.64C243.333 113.813 243.986 114.107 244.426 114.52C244.879 114.933 245.106 115.493 245.106 116.2C245.106 117.12 244.739 117.847 244.006 118.38C243.273 118.913 242.299 119.18 241.086 119.18ZM255.747 119.18C255.067 119.18 254.454 119.047 253.907 118.78C253.374 118.513 252.954 118.153 252.647 117.7C252.34 117.247 252.187 116.733 252.187 116.16C252.187 115.44 252.367 114.873 252.727 114.46C253.1 114.033 253.707 113.733 254.547 113.56C255.4 113.373 256.547 113.28 257.987 113.28H258.927V114.52H258.007C257.047 114.52 256.287 114.567 255.727 114.66C255.167 114.753 254.767 114.913 254.527 115.14C254.3 115.353 254.187 115.653 254.187 116.04C254.187 116.547 254.36 116.96 254.707 117.28C255.054 117.587 255.534 117.74 256.147 117.74C256.64 117.74 257.074 117.627 257.447 117.4C257.82 117.16 258.114 116.84 258.327 116.44C258.554 116.04 258.667 115.58 258.667 115.06V112.76C258.667 112 258.507 111.453 258.187 111.12C257.867 110.787 257.34 110.62 256.607 110.62C256.18 110.62 255.734 110.673 255.267 110.78C254.814 110.887 254.34 111.067 253.847 111.32C253.62 111.427 253.427 111.46 253.267 111.42C253.107 111.38 252.98 111.293 252.887 111.16C252.794 111.013 252.74 110.86 252.727 110.7C252.727 110.527 252.767 110.36 252.847 110.2C252.94 110.04 253.094 109.92 253.307 109.84C253.894 109.56 254.474 109.36 255.047 109.24C255.62 109.12 256.16 109.06 256.667 109.06C257.56 109.06 258.294 109.2 258.867 109.48C259.454 109.76 259.887 110.187 260.167 110.76C260.447 111.333 260.587 112.073 260.587 112.98V118.12C260.587 118.44 260.507 118.693 260.347 118.88C260.187 119.053 259.954 119.14 259.647 119.14C259.354 119.14 259.12 119.053 258.947 118.88C258.774 118.693 258.687 118.44 258.687 118.12V116.82H258.867C258.76 117.313 258.56 117.74 258.267 118.1C257.987 118.447 257.634 118.713 257.207 118.9C256.78 119.087 256.294 119.18 255.747 119.18ZM264.389 119.14C264.056 119.14 263.803 119.053 263.629 118.88C263.456 118.693 263.369 118.44 263.369 118.12V110.12C263.369 109.787 263.456 109.533 263.629 109.36C263.803 109.187 264.043 109.1 264.349 109.1C264.669 109.1 264.909 109.187 265.069 109.36C265.243 109.533 265.329 109.787 265.329 110.12V111.58H265.129C265.343 110.78 265.736 110.173 266.309 109.76C266.883 109.347 267.616 109.107 268.509 109.04C268.749 109.027 268.936 109.087 269.069 109.22C269.216 109.353 269.296 109.56 269.309 109.84C269.336 110.12 269.276 110.347 269.129 110.52C268.983 110.68 268.756 110.773 268.449 110.8L268.069 110.84C267.203 110.92 266.543 111.193 266.089 111.66C265.636 112.127 265.409 112.767 265.409 113.58V118.12C265.409 118.44 265.323 118.693 265.149 118.88C264.989 119.053 264.736 119.14 264.389 119.14ZM274.993 119.18C273.993 119.18 273.127 118.973 272.393 118.56C271.673 118.133 271.113 117.54 270.713 116.78C270.313 116.007 270.113 115.1 270.113 114.06C270.113 113.287 270.227 112.593 270.453 111.98C270.68 111.353 271 110.827 271.413 110.4C271.84 109.973 272.353 109.647 272.953 109.42C273.567 109.18 274.247 109.06 274.993 109.06C275.46 109.06 275.947 109.133 276.453 109.28C276.973 109.413 277.453 109.64 277.893 109.96C278.067 110.067 278.173 110.2 278.213 110.36C278.267 110.507 278.273 110.66 278.233 110.82C278.207 110.98 278.133 111.12 278.013 111.24C277.907 111.347 277.773 111.413 277.613 111.44C277.453 111.453 277.28 111.407 277.093 111.3C276.773 111.073 276.447 110.913 276.113 110.82C275.78 110.713 275.46 110.66 275.153 110.66C274.673 110.66 274.247 110.74 273.873 110.9C273.513 111.047 273.207 111.267 272.953 111.56C272.7 111.84 272.507 112.193 272.373 112.62C272.253 113.047 272.193 113.533 272.193 114.08C272.193 115.173 272.447 116.033 272.953 116.66C273.473 117.273 274.207 117.58 275.153 117.58C275.46 117.58 275.78 117.533 276.113 117.44C276.447 117.347 276.773 117.187 277.093 116.96C277.28 116.853 277.453 116.813 277.613 116.84C277.773 116.867 277.9 116.94 277.993 117.06C278.1 117.167 278.167 117.3 278.193 117.46C278.233 117.607 278.227 117.76 278.173 117.92C278.12 118.08 278.007 118.213 277.833 118.32C277.407 118.627 276.94 118.847 276.433 118.98C275.94 119.113 275.46 119.18 274.993 119.18ZM281.029 119.14C280.709 119.14 280.463 119.053 280.289 118.88C280.116 118.693 280.029 118.44 280.029 118.12V105.78C280.029 105.447 280.116 105.193 280.289 105.02C280.463 104.847 280.709 104.76 281.029 104.76C281.349 104.76 281.596 104.847 281.769 105.02C281.956 105.193 282.049 105.447 282.049 105.78V111.32H281.769C282.063 110.573 282.523 110.013 283.149 109.64C283.776 109.253 284.496 109.06 285.309 109.06C286.083 109.06 286.723 109.207 287.229 109.5C287.749 109.78 288.136 110.213 288.389 110.8C288.643 111.373 288.769 112.1 288.769 112.98V118.12C288.769 118.44 288.683 118.693 288.509 118.88C288.336 119.053 288.089 119.14 287.769 119.14C287.436 119.14 287.183 119.053 287.009 118.88C286.836 118.693 286.749 118.44 286.749 118.12V113.1C286.749 112.26 286.583 111.647 286.249 111.26C285.929 110.873 285.423 110.68 284.729 110.68C283.916 110.68 283.263 110.933 282.769 111.44C282.289 111.947 282.049 112.627 282.049 113.48V118.12C282.049 118.8 281.709 119.14 281.029 119.14ZM292.553 119.12C292.233 119.12 291.986 119.027 291.813 118.84C291.639 118.64 291.553 118.367 291.553 118.02V110.22C291.553 109.873 291.639 109.607 291.813 109.42C291.986 109.233 292.233 109.14 292.553 109.14C292.873 109.14 293.119 109.233 293.293 109.42C293.479 109.607 293.573 109.873 293.573 110.22V118.02C293.573 118.367 293.486 118.64 293.313 118.84C293.139 119.027 292.886 119.12 292.553 119.12ZM292.553 107.06C292.153 107.06 291.839 106.96 291.613 106.76C291.399 106.56 291.293 106.28 291.293 105.92C291.293 105.547 291.399 105.267 291.613 105.08C291.839 104.88 292.153 104.78 292.553 104.78C292.953 104.78 293.259 104.88 293.473 105.08C293.699 105.267 293.813 105.547 293.813 105.92C293.813 106.28 293.699 106.56 293.473 106.76C293.259 106.96 292.953 107.06 292.553 107.06ZM300.196 119.14C299.916 119.14 299.669 119.067 299.456 118.92C299.256 118.773 299.089 118.547 298.956 118.24L295.616 110.48C295.509 110.24 295.469 110.013 295.496 109.8C295.523 109.587 295.623 109.42 295.796 109.3C295.969 109.167 296.203 109.1 296.496 109.1C296.749 109.1 296.949 109.16 297.096 109.28C297.243 109.4 297.376 109.607 297.496 109.9L300.516 117.34H299.956L303.036 109.9C303.156 109.607 303.289 109.4 303.436 109.28C303.596 109.16 303.816 109.1 304.096 109.1C304.336 109.1 304.523 109.167 304.656 109.3C304.803 109.42 304.889 109.587 304.916 109.8C304.956 110 304.923 110.22 304.816 110.46L301.436 118.24C301.316 118.547 301.149 118.773 300.936 118.92C300.723 119.067 300.476 119.14 300.196 119.14ZM310.871 119.18C309.884 119.18 309.031 118.973 308.311 118.56C307.604 118.147 307.051 117.56 306.651 116.8C306.251 116.04 306.051 115.147 306.051 114.12C306.051 113.333 306.164 112.633 306.391 112.02C306.618 111.407 306.938 110.88 307.351 110.44C307.778 109.987 308.284 109.647 308.871 109.42C309.471 109.18 310.138 109.06 310.871 109.06C311.844 109.06 312.684 109.267 313.391 109.68C314.111 110.093 314.671 110.68 315.071 111.44C315.471 112.187 315.671 113.08 315.671 114.12C315.671 114.893 315.558 115.593 315.331 116.22C315.104 116.847 314.778 117.38 314.351 117.82C313.938 118.26 313.431 118.6 312.831 118.84C312.244 119.067 311.591 119.18 310.871 119.18ZM310.871 117.62C311.418 117.62 311.898 117.487 312.311 117.22C312.724 116.953 313.044 116.56 313.271 116.04C313.511 115.52 313.631 114.88 313.631 114.12C313.631 112.973 313.378 112.107 312.871 111.52C312.364 110.933 311.698 110.64 310.871 110.64C310.311 110.64 309.824 110.773 309.411 111.04C308.998 111.293 308.671 111.68 308.431 112.2C308.204 112.72 308.091 113.36 308.091 114.12C308.091 115.253 308.344 116.12 308.851 116.72C309.358 117.32 310.031 117.62 310.871 117.62ZM321.36 119.18C320.773 119.18 320.166 119.113 319.54 118.98C318.926 118.847 318.36 118.62 317.84 118.3C317.666 118.18 317.546 118.047 317.48 117.9C317.413 117.753 317.386 117.607 317.4 117.46C317.426 117.3 317.486 117.167 317.58 117.06C317.686 116.94 317.813 116.867 317.96 116.84C318.12 116.813 318.286 116.847 318.46 116.94C318.98 117.233 319.48 117.44 319.96 117.56C320.44 117.667 320.913 117.72 321.38 117.72C322.086 117.72 322.62 117.593 322.98 117.34C323.34 117.087 323.52 116.747 323.52 116.32C323.52 115.973 323.4 115.707 323.16 115.52C322.92 115.32 322.56 115.167 322.08 115.06L320.18 114.68C319.353 114.507 318.726 114.2 318.3 113.76C317.873 113.32 317.66 112.76 317.66 112.08C317.66 111.467 317.826 110.933 318.16 110.48C318.493 110.027 318.96 109.68 319.56 109.44C320.16 109.187 320.853 109.06 321.64 109.06C322.226 109.06 322.78 109.133 323.3 109.28C323.82 109.427 324.3 109.647 324.74 109.94C324.913 110.033 325.026 110.16 325.08 110.32C325.133 110.467 325.14 110.613 325.1 110.76C325.073 110.907 325.006 111.04 324.9 111.16C324.793 111.267 324.66 111.333 324.5 111.36C324.353 111.373 324.186 111.333 324 111.24C323.6 110.987 323.2 110.807 322.8 110.7C322.413 110.593 322.026 110.54 321.64 110.54C320.933 110.54 320.4 110.673 320.04 110.94C319.693 111.193 319.52 111.54 319.52 111.98C319.52 112.313 319.626 112.587 319.84 112.8C320.053 113.013 320.386 113.167 320.84 113.26L322.74 113.64C323.606 113.813 324.26 114.107 324.7 114.52C325.153 114.933 325.38 115.493 325.38 116.2C325.38 117.12 325.013 117.847 324.28 118.38C323.546 118.913 322.573 119.18 321.36 119.18ZM336.32 119.18C335.734 119.18 335.127 119.113 334.5 118.98C333.887 118.847 333.32 118.62 332.8 118.3C332.627 118.18 332.507 118.047 332.44 117.9C332.374 117.753 332.347 117.607 332.36 117.46C332.387 117.3 332.447 117.167 332.54 117.06C332.647 116.94 332.774 116.867 332.92 116.84C333.08 116.813 333.247 116.847 333.42 116.94C333.94 117.233 334.44 117.44 334.92 117.56C335.4 117.667 335.874 117.72 336.34 117.72C337.047 117.72 337.58 117.593 337.94 117.34C338.3 117.087 338.48 116.747 338.48 116.32C338.48 115.973 338.36 115.707 338.12 115.52C337.88 115.32 337.52 115.167 337.04 115.06L335.14 114.68C334.314 114.507 333.687 114.2 333.26 113.76C332.834 113.32 332.62 112.76 332.62 112.08C332.62 111.467 332.787 110.933 333.12 110.48C333.454 110.027 333.92 109.68 334.52 109.44C335.12 109.187 335.814 109.06 336.6 109.06C337.187 109.06 337.74 109.133 338.26 109.28C338.78 109.427 339.26 109.647 339.7 109.94C339.874 110.033 339.987 110.16 340.04 110.32C340.094 110.467 340.1 110.613 340.06 110.76C340.034 110.907 339.967 111.04 339.86 111.16C339.754 111.267 339.62 111.333 339.46 111.36C339.314 111.373 339.147 111.333 338.96 111.24C338.56 110.987 338.16 110.807 337.76 110.7C337.374 110.593 336.987 110.54 336.6 110.54C335.894 110.54 335.36 110.673 335 110.94C334.654 111.193 334.48 111.54 334.48 111.98C334.48 112.313 334.587 112.587 334.8 112.8C335.014 113.013 335.347 113.167 335.8 113.26L337.7 113.64C338.567 113.813 339.22 114.107 339.66 114.52C340.114 114.933 340.34 115.493 340.34 116.2C340.34 117.12 339.974 117.847 339.24 118.38C338.507 118.913 337.534 119.18 336.32 119.18ZM347.168 119.18C346.101 119.18 345.181 118.98 344.408 118.58C343.648 118.167 343.055 117.587 342.628 116.84C342.215 116.08 342.008 115.18 342.008 114.14C342.008 113.127 342.215 112.24 342.628 111.48C343.041 110.72 343.608 110.127 344.328 109.7C345.048 109.273 345.868 109.06 346.788 109.06C347.468 109.06 348.075 109.173 348.608 109.4C349.141 109.613 349.595 109.933 349.968 110.36C350.355 110.773 350.641 111.28 350.828 111.88C351.028 112.48 351.128 113.153 351.128 113.9C351.128 114.127 351.061 114.3 350.928 114.42C350.795 114.527 350.595 114.58 350.328 114.58H343.608V113.34H349.768L349.428 113.62C349.428 112.953 349.328 112.387 349.128 111.92C348.941 111.453 348.655 111.1 348.268 110.86C347.895 110.607 347.428 110.48 346.868 110.48C346.241 110.48 345.708 110.627 345.268 110.92C344.841 111.213 344.515 111.62 344.288 112.14C344.061 112.66 343.948 113.267 343.948 113.96V114.08C343.948 115.253 344.221 116.14 344.768 116.74C345.328 117.327 346.135 117.62 347.188 117.62C347.588 117.62 348.008 117.567 348.448 117.46C348.901 117.353 349.328 117.173 349.728 116.92C349.955 116.787 350.155 116.727 350.328 116.74C350.515 116.753 350.661 116.813 350.768 116.92C350.888 117.027 350.961 117.16 350.988 117.32C351.015 117.48 350.988 117.647 350.908 117.82C350.828 117.98 350.688 118.127 350.488 118.26C350.035 118.567 349.508 118.8 348.908 118.96C348.308 119.107 347.728 119.18 347.168 119.18ZM362.904 119.18C361.904 119.18 361.037 118.973 360.304 118.56C359.584 118.133 359.024 117.54 358.624 116.78C358.224 116.007 358.024 115.1 358.024 114.06C358.024 113.287 358.137 112.593 358.364 111.98C358.59 111.353 358.91 110.827 359.324 110.4C359.75 109.973 360.264 109.647 360.864 109.42C361.477 109.18 362.157 109.06 362.904 109.06C363.37 109.06 363.857 109.133 364.364 109.28C364.884 109.413 365.364 109.64 365.804 109.96C365.977 110.067 366.084 110.2 366.124 110.36C366.177 110.507 366.184 110.66 366.144 110.82C366.117 110.98 366.044 111.12 365.924 111.24C365.817 111.347 365.684 111.413 365.524 111.44C365.364 111.453 365.19 111.407 365.004 111.3C364.684 111.073 364.357 110.913 364.024 110.82C363.69 110.713 363.37 110.66 363.064 110.66C362.584 110.66 362.157 110.74 361.784 110.9C361.424 111.047 361.117 111.267 360.864 111.56C360.61 111.84 360.417 112.193 360.284 112.62C360.164 113.047 360.104 113.533 360.104 114.08C360.104 115.173 360.357 116.033 360.864 116.66C361.384 117.273 362.117 117.58 363.064 117.58C363.37 117.58 363.69 117.533 364.024 117.44C364.357 117.347 364.684 117.187 365.004 116.96C365.19 116.853 365.364 116.813 365.524 116.84C365.684 116.867 365.81 116.94 365.904 117.06C366.01 117.167 366.077 117.3 366.104 117.46C366.144 117.607 366.137 117.76 366.084 117.92C366.03 118.08 365.917 118.213 365.744 118.32C365.317 118.627 364.85 118.847 364.344 118.98C363.85 119.113 363.37 119.18 362.904 119.18ZM370.981 119.18C370.301 119.18 369.688 119.047 369.141 118.78C368.608 118.513 368.188 118.153 367.881 117.7C367.575 117.247 367.421 116.733 367.421 116.16C367.421 115.44 367.601 114.873 367.961 114.46C368.335 114.033 368.941 113.733 369.781 113.56C370.635 113.373 371.781 113.28 373.221 113.28H374.161V114.52H373.241C372.281 114.52 371.521 114.567 370.961 114.66C370.401 114.753 370.001 114.913 369.761 115.14C369.535 115.353 369.421 115.653 369.421 116.04C369.421 116.547 369.595 116.96 369.941 117.28C370.288 117.587 370.768 117.74 371.381 117.74C371.875 117.74 372.308 117.627 372.681 117.4C373.055 117.16 373.348 116.84 373.561 116.44C373.788 116.04 373.901 115.58 373.901 115.06V112.76C373.901 112 373.741 111.453 373.421 111.12C373.101 110.787 372.575 110.62 371.841 110.62C371.415 110.62 370.968 110.673 370.501 110.78C370.048 110.887 369.575 111.067 369.081 111.32C368.855 111.427 368.661 111.46 368.501 111.42C368.341 111.38 368.215 111.293 368.121 111.16C368.028 111.013 367.975 110.86 367.961 110.7C367.961 110.527 368.001 110.36 368.081 110.2C368.175 110.04 368.328 109.92 368.541 109.84C369.128 109.56 369.708 109.36 370.281 109.24C370.855 109.12 371.395 109.06 371.901 109.06C372.795 109.06 373.528 109.2 374.101 109.48C374.688 109.76 375.121 110.187 375.401 110.76C375.681 111.333 375.821 112.073 375.821 112.98V118.12C375.821 118.44 375.741 118.693 375.581 118.88C375.421 119.053 375.188 119.14 374.881 119.14C374.588 119.14 374.355 119.053 374.181 118.88C374.008 118.693 373.921 118.44 373.921 118.12V116.82H374.101C373.995 117.313 373.795 117.74 373.501 118.1C373.221 118.447 372.868 118.713 372.441 118.9C372.015 119.087 371.528 119.18 370.981 119.18ZM379.624 119.14C379.29 119.14 379.037 119.053 378.864 118.88C378.69 118.693 378.604 118.44 378.604 118.12V110.12C378.604 109.787 378.69 109.533 378.864 109.36C379.037 109.187 379.277 109.1 379.584 109.1C379.904 109.1 380.144 109.187 380.304 109.36C380.477 109.533 380.564 109.787 380.564 110.12V111.58H380.364C380.577 110.78 380.97 110.173 381.544 109.76C382.117 109.347 382.85 109.107 383.744 109.04C383.984 109.027 384.17 109.087 384.304 109.22C384.45 109.353 384.53 109.56 384.544 109.84C384.57 110.12 384.51 110.347 384.364 110.52C384.217 110.68 383.99 110.773 383.684 110.8L383.304 110.84C382.437 110.92 381.777 111.193 381.324 111.66C380.87 112.127 380.644 112.767 380.644 113.58V118.12C380.644 118.44 380.557 118.693 380.384 118.88C380.224 119.053 379.97 119.14 379.624 119.14ZM390.348 122.78C389.628 122.78 388.928 122.707 388.248 122.56C387.581 122.413 386.974 122.173 386.428 121.84C386.228 121.733 386.094 121.6 386.028 121.44C385.961 121.293 385.941 121.14 385.968 120.98C386.008 120.82 386.081 120.68 386.188 120.56C386.294 120.44 386.421 120.36 386.568 120.32C386.728 120.28 386.894 120.307 387.068 120.4C387.654 120.72 388.208 120.933 388.728 121.04C389.261 121.16 389.754 121.22 390.208 121.22C391.141 121.22 391.841 120.98 392.308 120.5C392.774 120.033 393.008 119.34 393.008 118.42V116.38H393.188C392.988 117.113 392.568 117.693 391.928 118.12C391.288 118.547 390.548 118.76 389.708 118.76C388.828 118.76 388.061 118.56 387.408 118.16C386.754 117.747 386.248 117.18 385.888 116.46C385.528 115.727 385.348 114.873 385.348 113.9C385.348 113.167 385.448 112.507 385.648 111.92C385.861 111.333 386.154 110.827 386.528 110.4C386.914 109.973 387.374 109.647 387.908 109.42C388.454 109.18 389.054 109.06 389.708 109.06C390.561 109.06 391.301 109.273 391.928 109.7C392.568 110.127 392.981 110.707 393.168 111.44L392.968 111.78V110.12C392.968 109.787 393.054 109.533 393.228 109.36C393.414 109.187 393.661 109.1 393.968 109.1C394.288 109.1 394.534 109.187 394.708 109.36C394.881 109.533 394.968 109.787 394.968 110.12V118.18C394.968 119.7 394.574 120.847 393.788 121.62C393.001 122.393 391.854 122.78 390.348 122.78ZM390.188 117.18C390.774 117.18 391.274 117.047 391.688 116.78C392.101 116.513 392.421 116.133 392.648 115.64C392.874 115.147 392.988 114.567 392.988 113.9C392.988 112.9 392.734 112.107 392.228 111.52C391.734 110.933 391.054 110.64 390.188 110.64C389.614 110.64 389.121 110.773 388.708 111.04C388.294 111.307 387.968 111.687 387.728 112.18C387.501 112.66 387.388 113.233 387.388 113.9C387.388 114.913 387.641 115.713 388.148 116.3C388.654 116.887 389.334 117.18 390.188 117.18ZM400.923 119.18C400.243 119.18 399.629 119.047 399.083 118.78C398.549 118.513 398.129 118.153 397.823 117.7C397.516 117.247 397.363 116.733 397.363 116.16C397.363 115.44 397.543 114.873 397.903 114.46C398.276 114.033 398.883 113.733 399.723 113.56C400.576 113.373 401.723 113.28 403.163 113.28H404.103V114.52H403.183C402.223 114.52 401.463 114.567 400.903 114.66C400.343 114.753 399.943 114.913 399.703 115.14C399.476 115.353 399.363 115.653 399.363 116.04C399.363 116.547 399.536 116.96 399.883 117.28C400.229 117.587 400.709 117.74 401.323 117.74C401.816 117.74 402.249 117.627 402.623 117.4C402.996 117.16 403.289 116.84 403.503 116.44C403.729 116.04 403.843 115.58 403.843 115.06V112.76C403.843 112 403.683 111.453 403.363 111.12C403.043 110.787 402.516 110.62 401.783 110.62C401.356 110.62 400.909 110.673 400.443 110.78C399.989 110.887 399.516 111.067 399.023 111.32C398.796 111.427 398.603 111.46 398.443 111.42C398.283 111.38 398.156 111.293 398.063 111.16C397.969 111.013 397.916 110.86 397.903 110.7C397.903 110.527 397.943 110.36 398.023 110.2C398.116 110.04 398.269 109.92 398.483 109.84C399.069 109.56 399.649 109.36 400.223 109.24C400.796 109.12 401.336 109.06 401.843 109.06C402.736 109.06 403.469 109.2 404.043 109.48C404.629 109.76 405.063 110.187 405.343 110.76C405.623 111.333 405.763 112.073 405.763 112.98V118.12C405.763 118.44 405.683 118.693 405.523 118.88C405.363 119.053 405.129 119.14 404.823 119.14C404.529 119.14 404.296 119.053 404.123 118.88C403.949 118.693 403.863 118.44 403.863 118.12V116.82H404.043C403.936 117.313 403.736 117.74 403.443 118.1C403.163 118.447 402.809 118.713 402.383 118.9C401.956 119.087 401.469 119.18 400.923 119.18ZM409.565 119.14C409.232 119.14 408.978 119.053 408.805 118.88C408.632 118.693 408.545 118.44 408.545 118.12V110.12C408.545 109.787 408.632 109.533 408.805 109.36C408.978 109.187 409.218 109.1 409.525 109.1C409.845 109.1 410.085 109.187 410.245 109.36C410.418 109.533 410.505 109.787 410.505 110.12V111.58H410.305C410.518 110.78 410.912 110.173 411.485 109.76C412.058 109.347 412.792 109.107 413.685 109.04C413.925 109.027 414.112 109.087 414.245 109.22C414.392 109.353 414.472 109.56 414.485 109.84C414.512 110.12 414.452 110.347 414.305 110.52C414.158 110.68 413.932 110.773 413.625 110.8L413.245 110.84C412.378 110.92 411.718 111.193 411.265 111.66C410.812 112.127 410.585 112.767 410.585 113.58V118.12C410.585 118.44 410.498 118.693 410.325 118.88C410.165 119.053 409.912 119.14 409.565 119.14ZM420.109 119.18C419.123 119.18 418.269 118.973 417.549 118.56C416.843 118.147 416.289 117.56 415.889 116.8C415.489 116.04 415.289 115.147 415.289 114.12C415.289 113.333 415.403 112.633 415.629 112.02C415.856 111.407 416.176 110.88 416.589 110.44C417.016 109.987 417.523 109.647 418.109 109.42C418.709 109.18 419.376 109.06 420.109 109.06C421.083 109.06 421.923 109.267 422.629 109.68C423.349 110.093 423.909 110.68 424.309 111.44C424.709 112.187 424.909 113.08 424.909 114.12C424.909 114.893 424.796 115.593 424.569 116.22C424.343 116.847 424.016 117.38 423.589 117.82C423.176 118.26 422.669 118.6 422.069 118.84C421.483 119.067 420.829 119.18 420.109 119.18ZM420.109 117.62C420.656 117.62 421.136 117.487 421.549 117.22C421.963 116.953 422.283 116.56 422.509 116.04C422.749 115.52 422.869 114.88 422.869 114.12C422.869 112.973 422.616 112.107 422.109 111.52C421.603 110.933 420.936 110.64 420.109 110.64C419.549 110.64 419.063 110.773 418.649 111.04C418.236 111.293 417.909 111.68 417.669 112.2C417.443 112.72 417.329 113.36 417.329 114.12C417.329 115.253 417.583 116.12 418.089 116.72C418.596 117.32 419.269 117.62 420.109 117.62ZM428.178 119.14C427.858 119.14 427.611 119.053 427.438 118.88C427.264 118.693 427.178 118.44 427.178 118.12V110.12C427.178 109.787 427.264 109.533 427.438 109.36C427.611 109.187 427.851 109.1 428.158 109.1C428.478 109.1 428.718 109.187 428.878 109.36C429.051 109.533 429.138 109.787 429.138 110.12V111.68L428.918 111.32C429.211 110.573 429.671 110.013 430.298 109.64C430.924 109.253 431.644 109.06 432.458 109.06C433.231 109.06 433.871 109.207 434.378 109.5C434.898 109.78 435.284 110.213 435.538 110.8C435.791 111.373 435.918 112.1 435.918 112.98V118.12C435.918 118.44 435.831 118.693 435.658 118.88C435.484 119.053 435.238 119.14 434.918 119.14C434.584 119.14 434.331 119.053 434.158 118.88C433.984 118.693 433.898 118.44 433.898 118.12V113.1C433.898 112.26 433.731 111.647 433.398 111.26C433.078 110.873 432.571 110.68 431.878 110.68C431.064 110.68 430.411 110.933 429.918 111.44C429.438 111.947 429.198 112.627 429.198 113.48V118.12C429.198 118.8 428.858 119.14 428.178 119.14ZM219.72 143.18C218.72 143.18 217.853 142.973 217.12 142.56C216.4 142.133 215.84 141.54 215.44 140.78C215.04 140.007 214.84 139.1 214.84 138.06C214.84 137.287 214.953 136.593 215.18 135.98C215.407 135.353 215.727 134.827 216.14 134.4C216.567 133.973 217.08 133.647 217.68 133.42C218.293 133.18 218.973 133.06 219.72 133.06C220.187 133.06 220.673 133.133 221.18 133.28C221.7 133.413 222.18 133.64 222.62 133.96C222.793 134.067 222.9 134.2 222.94 134.36C222.993 134.507 223 134.66 222.96 134.82C222.933 134.98 222.86 135.12 222.74 135.24C222.633 135.347 222.5 135.413 222.34 135.44C222.18 135.453 222.007 135.407 221.82 135.3C221.5 135.073 221.173 134.913 220.84 134.82C220.507 134.713 220.187 134.66 219.88 134.66C219.4 134.66 218.973 134.74 218.6 134.9C218.24 135.047 217.933 135.267 217.68 135.56C217.427 135.84 217.233 136.193 217.1 136.62C216.98 137.047 216.92 137.533 216.92 138.08C216.92 139.173 217.173 140.033 217.68 140.66C218.2 141.273 218.933 141.58 219.88 141.58C220.187 141.58 220.507 141.533 220.84 141.44C221.173 141.347 221.5 141.187 221.82 140.96C222.007 140.853 222.18 140.813 222.34 140.84C222.5 140.867 222.627 140.94 222.72 141.06C222.827 141.167 222.893 141.3 222.92 141.46C222.96 141.607 222.953 141.76 222.9 141.92C222.847 142.08 222.733 142.213 222.56 142.32C222.133 142.627 221.667 142.847 221.16 142.98C220.667 143.113 220.187 143.18 219.72 143.18ZM228.801 143.18C227.814 143.18 226.961 142.973 226.241 142.56C225.534 142.147 224.981 141.56 224.581 140.8C224.181 140.04 223.981 139.147 223.981 138.12C223.981 137.333 224.094 136.633 224.321 136.02C224.547 135.407 224.867 134.88 225.281 134.44C225.707 133.987 226.214 133.647 226.801 133.42C227.401 133.18 228.067 133.06 228.801 133.06C229.774 133.06 230.614 133.267 231.321 133.68C232.041 134.093 232.601 134.68 233.001 135.44C233.401 136.187 233.601 137.08 233.601 138.12C233.601 138.893 233.487 139.593 233.261 140.22C233.034 140.847 232.707 141.38 232.281 141.82C231.867 142.26 231.361 142.6 230.761 142.84C230.174 143.067 229.521 143.18 228.801 143.18ZM228.801 141.62C229.347 141.62 229.827 141.487 230.241 141.22C230.654 140.953 230.974 140.56 231.201 140.04C231.441 139.52 231.561 138.88 231.561 138.12C231.561 136.973 231.307 136.107 230.801 135.52C230.294 134.933 229.627 134.64 228.801 134.64C228.241 134.64 227.754 134.773 227.341 135.04C226.927 135.293 226.601 135.68 226.361 136.2C226.134 136.72 226.021 137.36 226.021 138.12C226.021 139.253 226.274 140.12 226.781 140.72C227.287 141.32 227.961 141.62 228.801 141.62ZM236.889 143.14C236.556 143.14 236.303 143.053 236.129 142.88C235.956 142.693 235.869 142.44 235.869 142.12V134.12C235.869 133.787 235.956 133.533 236.129 133.36C236.303 133.187 236.543 133.1 236.849 133.1C237.169 133.1 237.409 133.187 237.569 133.36C237.743 133.533 237.829 133.787 237.829 134.12V135.58H237.629C237.843 134.78 238.236 134.173 238.809 133.76C239.383 133.347 240.116 133.107 241.009 133.04C241.249 133.027 241.436 133.087 241.569 133.22C241.716 133.353 241.796 133.56 241.809 133.84C241.836 134.12 241.776 134.347 241.629 134.52C241.483 134.68 241.256 134.773 240.949 134.8L240.569 134.84C239.703 134.92 239.043 135.193 238.589 135.66C238.136 136.127 237.909 136.767 237.909 137.58V142.12C237.909 142.44 237.823 142.693 237.649 142.88C237.489 143.053 237.236 143.14 236.889 143.14ZM244.35 143.14C244.017 143.14 243.763 143.053 243.59 142.88C243.417 142.693 243.33 142.44 243.33 142.12V134.12C243.33 133.787 243.417 133.533 243.59 133.36C243.763 133.187 244.003 133.1 244.31 133.1C244.63 133.1 244.87 133.187 245.03 133.36C245.203 133.533 245.29 133.787 245.29 134.12V135.58H245.09C245.303 134.78 245.697 134.173 246.27 133.76C246.843 133.347 247.577 133.107 248.47 133.04C248.71 133.027 248.897 133.087 249.03 133.22C249.177 133.353 249.257 133.56 249.27 133.84C249.297 134.12 249.237 134.347 249.09 134.52C248.943 134.68 248.717 134.773 248.41 134.8L248.03 134.84C247.163 134.92 246.503 135.193 246.05 135.66C245.597 136.127 245.37 136.767 245.37 137.58V142.12C245.37 142.44 245.283 142.693 245.11 142.88C244.95 143.053 244.697 143.14 244.35 143.14ZM255.234 143.18C254.168 143.18 253.248 142.98 252.474 142.58C251.714 142.167 251.121 141.587 250.694 140.84C250.281 140.08 250.074 139.18 250.074 138.14C250.074 137.127 250.281 136.24 250.694 135.48C251.108 134.72 251.674 134.127 252.394 133.7C253.114 133.273 253.934 133.06 254.854 133.06C255.534 133.06 256.141 133.173 256.674 133.4C257.208 133.613 257.661 133.933 258.034 134.36C258.421 134.773 258.708 135.28 258.894 135.88C259.094 136.48 259.194 137.153 259.194 137.9C259.194 138.127 259.128 138.3 258.994 138.42C258.861 138.527 258.661 138.58 258.394 138.58H251.674V137.34H257.834L257.494 137.62C257.494 136.953 257.394 136.387 257.194 135.92C257.008 135.453 256.721 135.1 256.334 134.86C255.961 134.607 255.494 134.48 254.934 134.48C254.308 134.48 253.774 134.627 253.334 134.92C252.908 135.213 252.581 135.62 252.354 136.14C252.128 136.66 252.014 137.267 252.014 137.96V138.08C252.014 139.253 252.288 140.14 252.834 140.74C253.394 141.327 254.201 141.62 255.254 141.62C255.654 141.62 256.074 141.567 256.514 141.46C256.968 141.353 257.394 141.173 257.794 140.92C258.021 140.787 258.221 140.727 258.394 140.74C258.581 140.753 258.728 140.813 258.834 140.92C258.954 141.027 259.028 141.16 259.054 141.32C259.081 141.48 259.054 141.647 258.974 141.82C258.894 141.98 258.754 142.127 258.554 142.26C258.101 142.567 257.574 142.8 256.974 142.96C256.374 143.107 255.794 143.18 255.234 143.18ZM265.697 143.18C264.697 143.18 263.83 142.973 263.097 142.56C262.377 142.133 261.817 141.54 261.417 140.78C261.017 140.007 260.817 139.1 260.817 138.06C260.817 137.287 260.93 136.593 261.157 135.98C261.383 135.353 261.703 134.827 262.117 134.4C262.543 133.973 263.057 133.647 263.657 133.42C264.27 133.18 264.95 133.06 265.697 133.06C266.163 133.06 266.65 133.133 267.157 133.28C267.677 133.413 268.157 133.64 268.597 133.96C268.77 134.067 268.877 134.2 268.917 134.36C268.97 134.507 268.977 134.66 268.937 134.82C268.91 134.98 268.837 135.12 268.717 135.24C268.61 135.347 268.477 135.413 268.317 135.44C268.157 135.453 267.983 135.407 267.797 135.3C267.477 135.073 267.15 134.913 266.817 134.82C266.483 134.713 266.163 134.66 265.857 134.66C265.377 134.66 264.95 134.74 264.577 134.9C264.217 135.047 263.91 135.267 263.657 135.56C263.403 135.84 263.21 136.193 263.077 136.62C262.957 137.047 262.897 137.533 262.897 138.08C262.897 139.173 263.15 140.033 263.657 140.66C264.177 141.273 264.91 141.58 265.857 141.58C266.163 141.58 266.483 141.533 266.817 141.44C267.15 141.347 267.477 141.187 267.797 140.96C267.983 140.853 268.157 140.813 268.317 140.84C268.477 140.867 268.603 140.94 268.697 141.06C268.803 141.167 268.87 141.3 268.897 141.46C268.937 141.607 268.93 141.76 268.877 141.92C268.823 142.08 268.71 142.213 268.537 142.32C268.11 142.627 267.643 142.847 267.137 142.98C266.643 143.113 266.163 143.18 265.697 143.18ZM274.912 143.18C274.112 143.18 273.439 143.04 272.892 142.76C272.345 142.48 271.939 142.067 271.672 141.52C271.405 140.973 271.272 140.307 271.272 139.52V134.8H270.072C269.805 134.8 269.599 134.733 269.452 134.6C269.305 134.453 269.232 134.26 269.232 134.02C269.232 133.767 269.305 133.573 269.452 133.44C269.599 133.307 269.805 133.24 270.072 133.24H271.272V131.18C271.272 130.847 271.359 130.593 271.532 130.42C271.719 130.247 271.972 130.16 272.292 130.16C272.612 130.16 272.859 130.247 273.032 130.42C273.205 130.593 273.292 130.847 273.292 131.18V133.24H275.632C275.899 133.24 276.105 133.307 276.252 133.44C276.399 133.573 276.472 133.767 276.472 134.02C276.472 134.26 276.399 134.453 276.252 134.6C276.105 134.733 275.899 134.8 275.632 134.8H273.292V139.36C273.292 140.067 273.439 140.6 273.732 140.96C274.039 141.32 274.532 141.5 275.212 141.5C275.452 141.5 275.659 141.48 275.832 141.44C276.019 141.387 276.172 141.353 276.292 141.34C276.439 141.34 276.559 141.393 276.652 141.5C276.745 141.593 276.792 141.78 276.792 142.06C276.792 142.26 276.752 142.447 276.672 142.62C276.605 142.793 276.479 142.907 276.292 142.96C276.132 143.013 275.912 143.06 275.632 143.1C275.365 143.153 275.125 143.18 274.912 143.18ZM281.177 143.18C280.497 143.18 279.883 143.047 279.337 142.78C278.803 142.513 278.383 142.153 278.077 141.7C277.77 141.247 277.617 140.733 277.617 140.16C277.617 139.44 277.797 138.873 278.157 138.46C278.53 138.033 279.137 137.733 279.977 137.56C280.83 137.373 281.977 137.28 283.417 137.28H284.357V138.52H283.437C282.477 138.52 281.717 138.567 281.157 138.66C280.597 138.753 280.197 138.913 279.957 139.14C279.73 139.353 279.617 139.653 279.617 140.04C279.617 140.547 279.79 140.96 280.137 141.28C280.483 141.587 280.963 141.74 281.577 141.74C282.07 141.74 282.503 141.627 282.877 141.4C283.25 141.16 283.543 140.84 283.757 140.44C283.983 140.04 284.097 139.58 284.097 139.06V136.76C284.097 136 283.937 135.453 283.617 135.12C283.297 134.787 282.77 134.62 282.037 134.62C281.61 134.62 281.163 134.673 280.697 134.78C280.243 134.887 279.77 135.067 279.277 135.32C279.05 135.427 278.857 135.46 278.697 135.42C278.537 135.38 278.41 135.293 278.317 135.16C278.223 135.013 278.17 134.86 278.157 134.7C278.157 134.527 278.197 134.36 278.277 134.2C278.37 134.04 278.523 133.92 278.737 133.84C279.323 133.56 279.903 133.36 280.477 133.24C281.05 133.12 281.59 133.06 282.097 133.06C282.99 133.06 283.723 133.2 284.297 133.48C284.883 133.76 285.317 134.187 285.597 134.76C285.877 135.333 286.017 136.073 286.017 136.98V142.12C286.017 142.44 285.937 142.693 285.777 142.88C285.617 143.053 285.383 143.14 285.077 143.14C284.783 143.14 284.55 143.053 284.377 142.88C284.203 142.693 284.117 142.44 284.117 142.12V140.82H284.297C284.19 141.313 283.99 141.74 283.697 142.1C283.417 142.447 283.063 142.713 282.637 142.9C282.21 143.087 281.723 143.18 281.177 143.18ZM289.839 143.14C289.519 143.14 289.272 143.053 289.099 142.88C288.926 142.693 288.839 142.44 288.839 142.12V134.12C288.839 133.787 288.926 133.533 289.099 133.36C289.272 133.187 289.512 133.1 289.819 133.1C290.139 133.1 290.379 133.187 290.539 133.36C290.712 133.533 290.799 133.787 290.799 134.12V135.76L290.579 135.32C290.846 134.613 291.259 134.06 291.819 133.66C292.379 133.26 293.052 133.06 293.839 133.06C294.652 133.06 295.312 133.253 295.819 133.64C296.326 134.027 296.672 134.62 296.859 135.42H296.579C296.832 134.687 297.266 134.113 297.879 133.7C298.492 133.273 299.206 133.06 300.019 133.06C300.766 133.06 301.379 133.207 301.859 133.5C302.339 133.78 302.699 134.213 302.939 134.8C303.179 135.373 303.299 136.1 303.299 136.98V142.12C303.299 142.44 303.206 142.693 303.019 142.88C302.846 143.053 302.599 143.14 302.279 143.14C301.959 143.14 301.712 143.053 301.539 142.88C301.366 142.693 301.279 142.44 301.279 142.12V137.08C301.279 136.253 301.132 135.647 300.839 135.26C300.559 134.873 300.092 134.68 299.439 134.68C298.706 134.68 298.126 134.933 297.699 135.44C297.272 135.947 297.059 136.647 297.059 137.54V142.12C297.059 142.44 296.972 142.693 296.799 142.88C296.626 143.053 296.379 143.14 296.059 143.14C295.739 143.14 295.486 143.053 295.299 142.88C295.126 142.693 295.039 142.44 295.039 142.12V137.08C295.039 136.253 294.899 135.647 294.619 135.26C294.339 134.873 293.872 134.68 293.219 134.68C292.486 134.68 291.906 134.933 291.479 135.44C291.066 135.947 290.859 136.647 290.859 137.54V142.12C290.859 142.8 290.519 143.14 289.839 143.14ZM310.703 143.18C309.636 143.18 308.716 142.98 307.943 142.58C307.183 142.167 306.59 141.587 306.163 140.84C305.75 140.08 305.543 139.18 305.543 138.14C305.543 137.127 305.75 136.24 306.163 135.48C306.576 134.72 307.143 134.127 307.863 133.7C308.583 133.273 309.403 133.06 310.323 133.06C311.003 133.06 311.61 133.173 312.143 133.4C312.676 133.613 313.13 133.933 313.503 134.36C313.89 134.773 314.176 135.28 314.363 135.88C314.563 136.48 314.663 137.153 314.663 137.9C314.663 138.127 314.596 138.3 314.463 138.42C314.33 138.527 314.13 138.58 313.863 138.58H307.143V137.34H313.303L312.963 137.62C312.963 136.953 312.863 136.387 312.663 135.92C312.476 135.453 312.19 135.1 311.803 134.86C311.43 134.607 310.963 134.48 310.403 134.48C309.776 134.48 309.243 134.627 308.803 134.92C308.376 135.213 308.05 135.62 307.823 136.14C307.596 136.66 307.483 137.267 307.483 137.96V138.08C307.483 139.253 307.756 140.14 308.303 140.74C308.863 141.327 309.67 141.62 310.723 141.62C311.123 141.62 311.543 141.567 311.983 141.46C312.436 141.353 312.863 141.173 313.263 140.92C313.49 140.787 313.69 140.727 313.863 140.74C314.05 140.753 314.196 140.813 314.303 140.92C314.423 141.027 314.496 141.16 314.523 141.32C314.55 141.48 314.523 141.647 314.443 141.82C314.363 141.98 314.223 142.127 314.023 142.26C313.57 142.567 313.043 142.8 312.443 142.96C311.843 143.107 311.263 143.18 310.703 143.18ZM317.865 143.14C317.545 143.14 317.299 143.053 317.125 142.88C316.952 142.693 316.865 142.44 316.865 142.12V134.12C316.865 133.787 316.952 133.533 317.125 133.36C317.299 133.187 317.539 133.1 317.845 133.1C318.165 133.1 318.405 133.187 318.565 133.36C318.739 133.533 318.825 133.787 318.825 134.12V135.68L318.605 135.32C318.899 134.573 319.359 134.013 319.985 133.64C320.612 133.253 321.332 133.06 322.145 133.06C322.919 133.06 323.559 133.207 324.065 133.5C324.585 133.78 324.972 134.213 325.225 134.8C325.479 135.373 325.605 136.1 325.605 136.98V142.12C325.605 142.44 325.519 142.693 325.345 142.88C325.172 143.053 324.925 143.14 324.605 143.14C324.272 143.14 324.019 143.053 323.845 142.88C323.672 142.693 323.585 142.44 323.585 142.12V137.1C323.585 136.26 323.419 135.647 323.085 135.26C322.765 134.873 322.259 134.68 321.565 134.68C320.752 134.68 320.099 134.933 319.605 135.44C319.125 135.947 318.885 136.627 318.885 137.48V142.12C318.885 142.8 318.545 143.14 317.865 143.14ZM332.549 143.18C331.749 143.18 331.075 143.04 330.529 142.76C329.982 142.48 329.575 142.067 329.309 141.52C329.042 140.973 328.909 140.307 328.909 139.52V134.8H327.709C327.442 134.8 327.235 134.733 327.089 134.6C326.942 134.453 326.869 134.26 326.869 134.02C326.869 133.767 326.942 133.573 327.089 133.44C327.235 133.307 327.442 133.24 327.709 133.24H328.909V131.18C328.909 130.847 328.995 130.593 329.169 130.42C329.355 130.247 329.609 130.16 329.929 130.16C330.249 130.16 330.495 130.247 330.669 130.42C330.842 130.593 330.929 130.847 330.929 131.18V133.24H333.269C333.535 133.24 333.742 133.307 333.889 133.44C334.035 133.573 334.109 133.767 334.109 134.02C334.109 134.26 334.035 134.453 333.889 134.6C333.742 134.733 333.535 134.8 333.269 134.8H330.929V139.36C330.929 140.067 331.075 140.6 331.369 140.96C331.675 141.32 332.169 141.5 332.849 141.5C333.089 141.5 333.295 141.48 333.469 141.44C333.655 141.387 333.809 141.353 333.929 141.34C334.075 141.34 334.195 141.393 334.289 141.5C334.382 141.593 334.429 141.78 334.429 142.06C334.429 142.26 334.389 142.447 334.309 142.62C334.242 142.793 334.115 142.907 333.929 142.96C333.769 143.013 333.549 143.06 333.269 143.1C333.002 143.153 332.762 143.18 332.549 143.18ZM340.176 143.18C339.109 143.18 338.189 142.98 337.416 142.58C336.656 142.167 336.062 141.587 335.636 140.84C335.222 140.08 335.016 139.18 335.016 138.14C335.016 137.127 335.222 136.24 335.636 135.48C336.049 134.72 336.616 134.127 337.336 133.7C338.056 133.273 338.876 133.06 339.796 133.06C340.476 133.06 341.082 133.173 341.616 133.4C342.149 133.613 342.602 133.933 342.976 134.36C343.362 134.773 343.649 135.28 343.836 135.88C344.036 136.48 344.136 137.153 344.136 137.9C344.136 138.127 344.069 138.3 343.936 138.42C343.802 138.527 343.602 138.58 343.336 138.58H336.616V137.34H342.776L342.436 137.62C342.436 136.953 342.336 136.387 342.136 135.92C341.949 135.453 341.662 135.1 341.276 134.86C340.902 134.607 340.436 134.48 339.876 134.48C339.249 134.48 338.716 134.627 338.276 134.92C337.849 135.213 337.522 135.62 337.296 136.14C337.069 136.66 336.956 137.267 336.956 137.96V138.08C336.956 139.253 337.229 140.14 337.776 140.74C338.336 141.327 339.142 141.62 340.196 141.62C340.596 141.62 341.016 141.567 341.456 141.46C341.909 141.353 342.336 141.173 342.736 140.92C342.962 140.787 343.162 140.727 343.336 140.74C343.522 140.753 343.669 140.813 343.776 140.92C343.896 141.027 343.969 141.16 343.996 141.32C344.022 141.48 343.996 141.647 343.916 141.82C343.836 141.98 343.696 142.127 343.496 142.26C343.042 142.567 342.516 142.8 341.916 142.96C341.316 143.107 340.736 143.18 340.176 143.18Z" fill="#101E37"/>
<rect x="416" y="172" width="98" height="40" rx="8" fill="#336ACC"/>
<path d="M433.512 198.144C433.224 198.144 432.99 198.078 432.81 197.946C432.642 197.814 432.54 197.64 432.504 197.424C432.468 197.196 432.51 196.944 432.63 196.668L437.382 186.138C437.538 185.79 437.724 185.544 437.94 185.4C438.168 185.244 438.426 185.166 438.714 185.166C438.99 185.166 439.236 185.244 439.452 185.4C439.68 185.544 439.872 185.79 440.028 186.138L444.798 196.668C444.93 196.944 444.978 197.196 444.942 197.424C444.906 197.652 444.804 197.832 444.636 197.964C444.468 198.084 444.246 198.144 443.97 198.144C443.634 198.144 443.37 198.066 443.178 197.91C442.998 197.742 442.836 197.49 442.692 197.154L441.522 194.436L442.494 195.066H434.898L435.87 194.436L434.718 197.154C434.562 197.502 434.4 197.754 434.232 197.91C434.064 198.066 433.824 198.144 433.512 198.144ZM438.678 187.812L436.158 193.806L435.69 193.23H441.702L441.252 193.806L438.714 187.812H438.678ZM450.545 198.18C449.621 198.18 448.817 197.994 448.133 197.622C447.449 197.238 446.921 196.698 446.549 196.002C446.177 195.306 445.991 194.49 445.991 193.554C445.991 192.846 446.093 192.216 446.297 191.664C446.513 191.1 446.819 190.626 447.215 190.242C447.611 189.846 448.091 189.546 448.655 189.342C449.219 189.126 449.849 189.018 450.545 189.018C450.941 189.018 451.367 189.072 451.823 189.18C452.291 189.288 452.729 189.468 453.137 189.72C453.329 189.84 453.455 189.984 453.515 190.152C453.575 190.32 453.587 190.494 453.551 190.674C453.515 190.842 453.437 190.992 453.317 191.124C453.209 191.244 453.071 191.322 452.903 191.358C452.735 191.382 452.549 191.34 452.345 191.232C452.081 191.076 451.811 190.962 451.535 190.89C451.259 190.806 450.995 190.764 450.743 190.764C450.347 190.764 449.999 190.83 449.699 190.962C449.399 191.082 449.141 191.262 448.925 191.502C448.721 191.73 448.565 192.018 448.457 192.366C448.349 192.714 448.295 193.116 448.295 193.572C448.295 194.46 448.505 195.162 448.925 195.678C449.357 196.182 449.963 196.434 450.743 196.434C450.995 196.434 451.253 196.398 451.517 196.326C451.793 196.254 452.069 196.14 452.345 195.984C452.549 195.876 452.729 195.84 452.885 195.876C453.053 195.912 453.191 195.996 453.299 196.128C453.407 196.248 453.473 196.398 453.497 196.578C453.521 196.746 453.497 196.914 453.425 197.082C453.365 197.25 453.245 197.388 453.065 197.496C452.669 197.736 452.249 197.91 451.805 198.018C451.361 198.126 450.941 198.18 450.545 198.18ZM459.129 198.18C458.133 198.18 457.275 197.994 456.555 197.622C455.835 197.25 455.277 196.722 454.881 196.038C454.497 195.354 454.305 194.544 454.305 193.608C454.305 192.696 454.491 191.898 454.863 191.214C455.247 190.53 455.769 189.996 456.429 189.612C457.101 189.216 457.863 189.018 458.715 189.018C459.339 189.018 459.897 189.12 460.389 189.324C460.893 189.528 461.319 189.822 461.667 190.206C462.027 190.59 462.297 191.058 462.477 191.61C462.669 192.15 462.765 192.762 462.765 193.446C462.765 193.662 462.687 193.83 462.531 193.95C462.387 194.058 462.177 194.112 461.901 194.112H456.123V192.816H461.181L460.893 193.086C460.893 192.534 460.809 192.072 460.641 191.7C460.485 191.328 460.251 191.046 459.939 190.854C459.639 190.65 459.261 190.548 458.805 190.548C458.301 190.548 457.869 190.668 457.509 190.908C457.161 191.136 456.891 191.466 456.699 191.898C456.519 192.318 456.429 192.822 456.429 193.41V193.536C456.429 194.52 456.657 195.258 457.113 195.75C457.581 196.23 458.265 196.47 459.165 196.47C459.477 196.47 459.825 196.434 460.209 196.362C460.605 196.278 460.977 196.14 461.325 195.948C461.577 195.804 461.799 195.744 461.991 195.768C462.183 195.78 462.333 195.846 462.441 195.966C462.561 196.086 462.633 196.236 462.657 196.416C462.681 196.584 462.645 196.758 462.549 196.938C462.465 197.118 462.315 197.274 462.099 197.406C461.679 197.67 461.193 197.868 460.641 198C460.101 198.12 459.597 198.18 459.129 198.18ZM465.663 201.384C465.303 201.384 465.027 201.288 464.835 201.096C464.643 200.904 464.547 200.622 464.547 200.25V190.188C464.547 189.816 464.643 189.534 464.835 189.342C465.027 189.15 465.297 189.054 465.645 189.054C466.005 189.054 466.281 189.15 466.473 189.342C466.665 189.534 466.761 189.816 466.761 190.188V191.592L466.563 191.052C466.743 190.44 467.109 189.948 467.661 189.576C468.225 189.204 468.879 189.018 469.623 189.018C470.391 189.018 471.063 189.204 471.639 189.576C472.227 189.948 472.683 190.476 473.007 191.16C473.331 191.832 473.493 192.642 473.493 193.59C473.493 194.526 473.331 195.342 473.007 196.038C472.683 196.722 472.233 197.25 471.657 197.622C471.081 197.994 470.403 198.18 469.623 198.18C468.891 198.18 468.249 198 467.697 197.64C467.145 197.268 466.773 196.788 466.581 196.2H466.797V200.25C466.797 200.622 466.695 200.904 466.491 201.096C466.299 201.288 466.023 201.384 465.663 201.384ZM468.993 196.47C469.437 196.47 469.827 196.362 470.163 196.146C470.499 195.93 470.757 195.612 470.937 195.192C471.129 194.76 471.225 194.226 471.225 193.59C471.225 192.63 471.021 191.916 470.613 191.448C470.205 190.968 469.665 190.728 468.993 190.728C468.549 190.728 468.159 190.836 467.823 191.052C467.487 191.256 467.223 191.574 467.031 192.006C466.851 192.426 466.761 192.954 466.761 193.59C466.761 194.538 466.965 195.258 467.373 195.75C467.781 196.23 468.321 196.47 468.993 196.47ZM479.284 198.18C478.504 198.18 477.85 198.048 477.322 197.784C476.806 197.52 476.422 197.136 476.17 196.632C475.918 196.116 475.792 195.48 475.792 194.724V190.89H474.856C474.568 190.89 474.346 190.818 474.19 190.674C474.034 190.518 473.956 190.308 473.956 190.044C473.956 189.768 474.034 189.558 474.19 189.414C474.346 189.27 474.568 189.198 474.856 189.198H475.792V187.56C475.792 187.188 475.888 186.906 476.08 186.714C476.284 186.522 476.566 186.426 476.926 186.426C477.286 186.426 477.562 186.522 477.754 186.714C477.946 186.906 478.042 187.188 478.042 187.56V189.198H479.95C480.238 189.198 480.46 189.27 480.616 189.414C480.772 189.558 480.85 189.768 480.85 190.044C480.85 190.308 480.772 190.518 480.616 190.674C480.46 190.818 480.238 190.89 479.95 190.89H478.042V194.598C478.042 195.174 478.168 195.606 478.42 195.894C478.672 196.182 479.08 196.326 479.644 196.326C479.848 196.326 480.028 196.308 480.184 196.272C480.34 196.236 480.478 196.212 480.598 196.2C480.742 196.188 480.862 196.236 480.958 196.344C481.054 196.44 481.102 196.644 481.102 196.956C481.102 197.196 481.06 197.412 480.976 197.604C480.904 197.784 480.766 197.91 480.562 197.982C480.406 198.03 480.202 198.072 479.95 198.108C479.698 198.156 479.476 198.18 479.284 198.18ZM485.058 198.18C484.422 198.18 483.852 198.06 483.348 197.82C482.856 197.568 482.466 197.232 482.178 196.812C481.902 196.392 481.764 195.918 481.764 195.39C481.764 194.742 481.932 194.232 482.268 193.86C482.604 193.476 483.15 193.2 483.906 193.032C484.662 192.864 485.676 192.78 486.948 192.78H487.848V194.076H486.966C486.222 194.076 485.628 194.112 485.184 194.184C484.74 194.256 484.422 194.382 484.23 194.562C484.05 194.73 483.96 194.97 483.96 195.282C483.96 195.678 484.098 196.002 484.374 196.254C484.65 196.506 485.034 196.632 485.526 196.632C485.922 196.632 486.27 196.542 486.57 196.362C486.882 196.17 487.128 195.912 487.308 195.588C487.488 195.264 487.578 194.892 487.578 194.472V192.402C487.578 191.802 487.446 191.37 487.182 191.106C486.918 190.842 486.474 190.71 485.85 190.71C485.502 190.71 485.124 190.752 484.716 190.836C484.32 190.92 483.9 191.064 483.456 191.268C483.228 191.376 483.024 191.406 482.844 191.358C482.676 191.31 482.544 191.214 482.448 191.07C482.352 190.914 482.304 190.746 482.304 190.566C482.304 190.386 482.352 190.212 482.448 190.044C482.544 189.864 482.706 189.732 482.934 189.648C483.486 189.42 484.014 189.258 484.518 189.162C485.034 189.066 485.502 189.018 485.922 189.018C486.786 189.018 487.494 189.15 488.046 189.414C488.61 189.678 489.03 190.08 489.306 190.62C489.582 191.148 489.72 191.832 489.72 192.672V196.992C489.72 197.364 489.63 197.652 489.45 197.856C489.27 198.048 489.012 198.144 488.676 198.144C488.34 198.144 488.076 198.048 487.884 197.856C487.704 197.652 487.614 197.364 487.614 196.992V196.128H487.758C487.674 196.548 487.506 196.914 487.254 197.226C487.014 197.526 486.708 197.76 486.336 197.928C485.964 198.096 485.538 198.18 485.058 198.18ZM493.156 198.144C492.784 198.144 492.496 198.048 492.292 197.856C492.1 197.652 492.004 197.364 492.004 196.992V190.188C492.004 189.816 492.1 189.534 492.292 189.342C492.484 189.15 492.754 189.054 493.102 189.054C493.45 189.054 493.72 189.15 493.912 189.342C494.104 189.534 494.2 189.816 494.2 190.188V191.322H494.02C494.188 190.602 494.518 190.056 495.01 189.684C495.502 189.312 496.156 189.09 496.972 189.018C497.224 188.994 497.422 189.06 497.566 189.216C497.722 189.36 497.812 189.588 497.836 189.9C497.86 190.2 497.788 190.446 497.62 190.638C497.464 190.818 497.224 190.926 496.9 190.962L496.504 190.998C495.772 191.07 495.22 191.298 494.848 191.682C494.476 192.054 494.29 192.582 494.29 193.266V196.992C494.29 197.364 494.194 197.652 494.002 197.856C493.81 198.048 493.528 198.144 493.156 198.144Z" fill="white"/>
</svg>
