<svg width="728" height="349" viewBox="0 0 728 349" fill="none" xmlns="http://www.w3.org/2000/svg">
<g clip-path="url(#clip0_3493_3572)">
<rect width="728" height="349" rx="8" fill="#F3F6F9"/>
<mask id="path-3-inside-1_3493_3572" fill="white">
<path d="M176 -28H737V420.626H176V-28Z"/>
</mask>
<path d="M176 -28H737V420.626H176V-28Z" fill="white"/>
<path d="M176 420.626H179.484V-28H176H172.516V420.626H176Z" fill="#E6EBF0" mask="url(#path-3-inside-1_3493_3572)"/>
<path d="M247.791 50.9976C247.529 50.9976 247.325 50.9244 247.179 50.7781C247.043 50.6317 246.975 50.4279 246.975 50.1665V40.6644C246.975 40.3926 247.048 40.1887 247.195 40.0529C247.341 39.9065 247.545 39.8333 247.806 39.8333H251.554C252.746 39.8333 253.665 40.1313 254.314 40.7271C254.962 41.3125 255.286 42.1383 255.286 43.2046C255.286 44.2813 254.962 45.1175 254.314 45.7134C253.665 46.2988 252.746 46.5915 251.554 46.5915H248.606V50.1665C248.606 50.4279 248.538 50.6317 248.402 50.7781C248.266 50.9244 248.062 50.9976 247.791 50.9976ZM248.606 45.29H251.319C252.103 45.29 252.693 45.1175 253.09 44.7726C253.498 44.4172 253.702 43.8945 253.702 43.2046C253.702 42.5251 253.498 42.0129 253.09 41.6679C252.693 41.3125 252.103 41.1348 251.319 41.1348H248.606V45.29ZM258.926 51.0289C258.393 51.0289 257.912 50.9244 257.484 50.7153C257.066 50.5063 256.736 50.224 256.496 49.8686C256.256 49.5132 256.135 49.1107 256.135 48.6612C256.135 48.0968 256.276 47.6525 256.559 47.3284C256.851 46.9939 257.327 46.7587 257.986 46.6228C258.655 46.4765 259.554 46.4033 260.683 46.4033H261.42V47.3755H260.698C259.946 47.3755 259.35 47.4121 258.911 47.4852C258.472 47.5584 258.158 47.6838 257.97 47.8616C257.792 48.0288 257.703 48.264 257.703 48.5672C257.703 48.9644 257.839 49.2884 258.111 49.5393C258.383 49.7798 258.759 49.9 259.24 49.9C259.627 49.9 259.967 49.8111 260.259 49.6334C260.552 49.4452 260.782 49.1944 260.949 48.8808C261.127 48.5672 261.216 48.2065 261.216 47.7988V45.9956C261.216 45.3998 261.09 44.9712 260.839 44.7098C260.589 44.4485 260.176 44.3178 259.601 44.3178C259.266 44.3178 258.916 44.3597 258.55 44.4433C258.195 44.5269 257.824 44.668 257.437 44.8666C257.259 44.9503 257.108 44.9764 256.982 44.9451C256.857 44.9137 256.757 44.8457 256.684 44.7412C256.611 44.6262 256.569 44.506 256.559 44.3806C256.559 44.2447 256.59 44.114 256.653 43.9886C256.726 43.8631 256.846 43.769 257.013 43.7063C257.473 43.4868 257.928 43.33 258.378 43.2359C258.827 43.1418 259.25 43.0948 259.648 43.0948C260.348 43.0948 260.923 43.2046 261.373 43.4241C261.832 43.6436 262.172 43.9781 262.392 44.4276C262.611 44.8771 262.721 45.4573 262.721 46.1681V50.1979C262.721 50.4488 262.658 50.6474 262.533 50.7937C262.407 50.9296 262.224 50.9976 261.984 50.9976C261.754 50.9976 261.571 50.9296 261.435 50.7937C261.299 50.6474 261.231 50.4488 261.231 50.1979V49.1787H261.373C261.289 49.5655 261.132 49.9 260.902 50.1822C260.683 50.454 260.406 50.6631 260.071 50.8094C259.737 50.9558 259.355 51.0289 258.926 51.0289ZM265.686 50.9819C265.435 50.9819 265.242 50.9087 265.106 50.7624C264.97 50.6056 264.902 50.3913 264.902 50.1195V44.0042C264.902 43.7325 264.97 43.5234 265.106 43.377C265.242 43.2307 265.435 43.1575 265.686 43.1575C265.937 43.1575 266.131 43.2307 266.266 43.377C266.413 43.5234 266.486 43.7325 266.486 44.0042V50.1195C266.486 50.3913 266.418 50.6056 266.282 50.7624C266.146 50.9087 265.948 50.9819 265.686 50.9819ZM266.298 42.1383C266.214 42.2637 266.11 42.3369 265.984 42.3578C265.869 42.3787 265.754 42.3578 265.639 42.2951C265.524 42.2324 265.441 42.1435 265.388 42.0285C265.347 41.9136 265.357 41.7881 265.42 41.6522L266.69 39.1904C266.773 39.0232 266.878 38.9134 267.003 38.8612C267.139 38.8089 267.275 38.8037 267.411 38.8455C267.557 38.8768 267.678 38.9396 267.772 39.0336C267.876 39.1277 267.939 39.2479 267.96 39.3943C267.981 39.5302 267.944 39.6661 267.85 39.802L266.298 42.1383ZM271.396 51.0289C270.936 51.0289 270.461 50.9767 269.97 50.8721C269.489 50.7676 269.044 50.5899 268.637 50.339C268.501 50.2449 268.407 50.1404 268.354 50.0254C268.302 49.9104 268.281 49.7954 268.292 49.6804C268.313 49.555 268.36 49.4505 268.433 49.3668C268.516 49.2728 268.616 49.2153 268.731 49.1944C268.856 49.1735 268.987 49.1996 269.123 49.2728C269.53 49.5027 269.922 49.6648 270.299 49.7588C270.675 49.8425 271.046 49.8843 271.412 49.8843C271.966 49.8843 272.384 49.785 272.666 49.5864C272.949 49.3878 273.09 49.1212 273.09 48.7867C273.09 48.5149 272.996 48.3058 272.808 48.1595C272.619 48.0027 272.337 47.8825 271.961 47.7988L270.471 47.5009C269.823 47.365 269.332 47.1246 268.997 46.7796C268.663 46.4347 268.496 45.9956 268.496 45.4625C268.496 44.9816 268.626 44.5635 268.888 44.2081C269.149 43.8527 269.515 43.5809 269.985 43.3927C270.456 43.1941 270.999 43.0948 271.616 43.0948C272.076 43.0948 272.51 43.1523 272.917 43.2673C273.325 43.3823 273.701 43.5547 274.046 43.7847C274.182 43.8579 274.271 43.9572 274.313 44.0826C274.355 44.1976 274.36 44.3126 274.329 44.4276C274.308 44.5426 274.255 44.6471 274.172 44.7412C274.088 44.8248 273.984 44.8771 273.858 44.898C273.743 44.9085 273.613 44.8771 273.466 44.8039C273.153 44.6053 272.839 44.4642 272.525 44.3806C272.222 44.2969 271.919 44.2551 271.616 44.2551C271.062 44.2551 270.644 44.3597 270.362 44.5687C270.09 44.7673 269.954 45.0391 269.954 45.3841C269.954 45.6454 270.037 45.8597 270.205 46.027C270.372 46.1942 270.633 46.3144 270.989 46.3876L272.478 46.6855C273.158 46.8214 273.67 47.0514 274.015 47.3755C274.37 47.6995 274.548 48.1386 274.548 48.6926C274.548 49.4139 274.261 49.9836 273.686 50.4017C273.111 50.8199 272.348 51.0289 271.396 51.0289Z" fill="#101E37"/>
<rect x="246.561" y="63.7279" width="320.571" height="40.1646" rx="6.09783" fill="white"/>
<rect x="246.561" y="63.7279" width="320.571" height="40.1646" rx="6.09783" stroke="#101E37" stroke-width="1.74224"/>
<path d="M267.229 89.3101L266.004 86.1523H262.016L260.798 89.3101H259.627L263.52 79.3195H264.561L268.427 89.3101H267.229ZM265.657 85.1247L264.493 81.9873C264.466 81.9056 264.421 81.7718 264.357 81.5858C264.298 81.3997 264.237 81.2069 264.173 81.0073C264.11 80.8076 264.058 80.6466 264.017 80.5241C263.972 80.7101 263.922 80.8961 263.867 81.0821C263.817 81.2636 263.767 81.4338 263.717 81.5926C263.668 81.7468 263.624 81.8784 263.588 81.9873L262.404 85.1247H265.657ZM273.028 81.7151C273.177 81.7151 273.334 81.7241 273.497 81.7423C273.66 81.7559 273.806 81.7763 273.933 81.8035L273.79 82.8516C273.667 82.8198 273.531 82.7949 273.381 82.7767C273.232 82.7586 273.091 82.7495 272.96 82.7495C272.66 82.7495 272.376 82.8108 272.109 82.9333C271.846 83.0512 271.614 83.2236 271.415 83.4505C271.215 83.6728 271.058 83.9428 270.945 84.2604C270.832 84.5734 270.775 84.9228 270.775 85.3084V89.3101H269.638V81.8512H270.578L270.7 83.2259H270.748C270.902 82.9491 271.088 82.6973 271.306 82.4705C271.524 82.2391 271.775 82.0553 272.061 81.9192C272.352 81.7831 272.674 81.7151 273.028 81.7151ZM277.424 92.6585C276.444 92.6585 275.689 92.4747 275.158 92.1072C274.627 91.7443 274.361 91.2338 274.361 90.576C274.361 90.1086 274.509 89.7094 274.804 89.3782C275.103 89.047 275.516 88.8269 276.042 88.718C275.847 88.6273 275.679 88.4912 275.539 88.3097C275.403 88.1282 275.335 87.9195 275.335 87.6836C275.335 87.4114 275.41 87.1732 275.559 86.969C275.714 86.7603 275.947 86.5607 276.26 86.3701C275.87 86.2113 275.552 85.9436 275.307 85.567C275.067 85.1859 274.947 84.7436 274.947 84.2399C274.947 83.7046 275.058 83.2486 275.28 82.872C275.503 82.4909 275.825 82.2005 276.247 82.0009C276.669 81.8013 277.179 81.7014 277.778 81.7014C277.909 81.7014 278.041 81.7083 278.173 81.7219C278.309 81.7309 278.438 81.7468 278.561 81.7695C278.683 81.7877 278.79 81.8103 278.88 81.8376H281.439V82.5658L280.065 82.7359C280.201 82.9128 280.314 83.1261 280.405 83.3756C280.496 83.6252 280.541 83.9019 280.541 84.2059C280.541 84.95 280.289 85.5421 279.786 85.9822C279.282 86.4177 278.59 86.6355 277.71 86.6355C277.501 86.6355 277.288 86.6174 277.07 86.5811C276.848 86.7036 276.678 86.8397 276.56 86.9894C276.446 87.1391 276.39 87.3115 276.39 87.5066C276.39 87.6518 276.433 87.7675 276.519 87.8537C276.61 87.9399 276.739 88.0034 276.907 88.0443C277.075 88.0806 277.277 88.0987 277.512 88.0987H278.826C279.638 88.0987 280.26 88.2689 280.691 88.6091C281.126 88.9494 281.344 89.4462 281.344 90.0996C281.344 90.9253 281.008 91.5582 280.337 91.9983C279.665 92.4384 278.694 92.6585 277.424 92.6585ZM277.458 91.7738C278.075 91.7738 278.585 91.7102 278.989 91.5832C279.398 91.4607 279.702 91.2815 279.901 91.0456C280.105 90.8142 280.207 90.5374 280.207 90.2153C280.207 89.9158 280.139 89.689 280.003 89.5347C279.867 89.385 279.668 89.2852 279.404 89.2353C279.141 89.1808 278.819 89.1536 278.438 89.1536H277.145C276.809 89.1536 276.517 89.2058 276.267 89.3101C276.017 89.4145 275.825 89.5687 275.689 89.7729C275.557 89.9771 275.491 90.2311 275.491 90.5351C275.491 90.9389 275.661 91.2452 276.002 91.4539C276.342 91.6671 276.827 91.7738 277.458 91.7738ZM277.751 85.812C278.291 85.812 278.697 85.6759 278.969 85.4037C279.241 85.1315 279.377 84.7345 279.377 84.2127C279.377 83.6547 279.239 83.2372 278.962 82.9605C278.685 82.6792 278.277 82.5385 277.737 82.5385C277.22 82.5385 276.821 82.6837 276.539 82.9741C276.262 83.2599 276.124 83.6796 276.124 84.2331C276.124 84.7413 276.265 85.1315 276.546 85.4037C276.827 85.6759 277.229 85.812 277.751 85.812ZM285.781 81.7151C286.416 81.7151 286.961 81.8557 287.415 82.137C287.868 82.4183 288.215 82.813 288.456 83.3212C288.696 83.8248 288.817 84.4146 288.817 85.0906V85.7916H283.665C283.678 86.6673 283.896 87.3342 284.318 87.7925C284.74 88.2507 285.334 88.4798 286.101 88.4798C286.573 88.4798 286.99 88.4367 287.353 88.3505C287.716 88.2643 288.093 88.1373 288.483 87.9694V88.963C288.107 89.1309 287.732 89.2534 287.36 89.3305C286.993 89.4077 286.557 89.4462 286.054 89.4462C285.337 89.4462 284.711 89.301 284.175 89.0107C283.644 88.7158 283.231 88.2847 282.937 87.7176C282.642 87.1505 282.494 86.4563 282.494 85.6351C282.494 84.832 282.628 84.1379 282.896 83.5526C283.168 82.9628 283.549 82.509 284.039 82.1915C284.534 81.8739 285.114 81.7151 285.781 81.7151ZM285.768 82.6406C285.164 82.6406 284.683 82.838 284.325 83.2327C283.966 83.6274 283.753 84.1787 283.685 84.8865H287.632C287.628 84.4418 287.558 84.0517 287.421 83.7159C287.29 83.3756 287.088 83.1125 286.816 82.9265C286.544 82.7359 286.194 82.6406 285.768 82.6406ZM294.268 81.7151C295.153 81.7151 295.822 81.9328 296.276 82.3684C296.729 82.7994 296.956 83.4936 296.956 84.4509V89.3101H295.84V84.5258C295.84 83.9042 295.697 83.4391 295.411 83.1306C295.13 82.8221 294.697 82.6678 294.111 82.6678C293.286 82.6678 292.705 82.9015 292.369 83.3688C292.033 83.8361 291.865 84.5144 291.865 85.4037V89.3101H290.736V81.8512H291.648L291.818 82.9265H291.879C292.038 82.6633 292.24 82.4433 292.485 82.2663C292.73 82.0848 293.004 81.9487 293.308 81.858C293.612 81.7627 293.932 81.7151 294.268 81.7151ZM301.693 88.5207C301.879 88.5207 302.069 88.5048 302.264 88.473C302.46 88.4413 302.618 88.4027 302.741 88.3573V89.2353C302.609 89.2942 302.426 89.3441 302.19 89.385C301.958 89.4258 301.731 89.4462 301.509 89.4462C301.114 89.4462 300.756 89.3782 300.434 89.2421C300.112 89.1014 299.853 88.8655 299.658 88.5343C299.467 88.2031 299.372 87.7448 299.372 87.1595V82.7359H298.31V82.1846L299.379 81.7423L299.828 80.1225H300.509V81.8512H302.693V82.7359H300.509V87.1255C300.509 87.5928 300.615 87.9422 300.828 88.1736C301.046 88.405 301.334 88.5207 301.693 88.5207ZM305.381 81.8512V89.3101H304.252V81.8512H305.381ZM304.83 79.0609C305.016 79.0609 305.175 79.1221 305.307 79.2446C305.443 79.3626 305.511 79.5486 305.511 79.8027C305.511 80.0522 305.443 80.2382 305.307 80.3607C305.175 80.4832 305.016 80.5445 304.83 80.5445C304.635 80.5445 304.472 80.4832 304.34 80.3607C304.213 80.2382 304.15 80.0522 304.15 79.8027C304.15 79.5486 304.213 79.3626 304.34 79.2446C304.472 79.1221 304.635 79.0609 304.83 79.0609ZM311.309 81.7151C312.194 81.7151 312.863 81.9328 313.317 82.3684C313.77 82.7994 313.997 83.4936 313.997 84.4509V89.3101H312.881V84.5258C312.881 83.9042 312.738 83.4391 312.452 83.1306C312.171 82.8221 311.738 82.6678 311.153 82.6678C310.327 82.6678 309.746 82.9015 309.41 83.3688C309.075 83.8361 308.907 84.5144 308.907 85.4037V89.3101H307.777V81.8512H308.689L308.859 82.9265H308.92C309.079 82.6633 309.281 82.4433 309.526 82.2663C309.771 82.0848 310.046 81.9487 310.35 81.858C310.654 81.7627 310.973 81.7151 311.309 81.7151ZM319.115 81.7287C320.004 81.7287 320.665 81.9283 321.096 82.3276C321.527 82.7268 321.742 83.3643 321.742 84.2399V89.3101H320.919L320.701 88.2076H320.646C320.438 88.4798 320.22 88.709 319.993 88.895C319.766 89.0765 319.503 89.2148 319.204 89.3101C318.909 89.4009 318.546 89.4462 318.115 89.4462C317.661 89.4462 317.257 89.3668 316.903 89.208C316.554 89.0492 316.277 88.8088 316.073 88.4866C315.873 88.1645 315.774 87.7562 315.774 87.2616C315.774 86.5176 316.069 85.9459 316.658 85.5466C317.248 85.1474 318.146 84.9296 319.353 84.8933L320.64 84.8388V84.3829C320.64 83.7386 320.501 83.2872 320.224 83.0285C319.948 82.7699 319.558 82.6406 319.054 82.6406C318.664 82.6406 318.292 82.6973 317.938 82.8108C317.584 82.9242 317.248 83.058 316.931 83.2123L316.583 82.3548C316.919 82.1824 317.305 82.0349 317.74 81.9124C318.176 81.7899 318.634 81.7287 319.115 81.7287ZM320.626 85.6351L319.489 85.6827C318.559 85.719 317.904 85.871 317.523 86.1387C317.142 86.4064 316.951 86.7852 316.951 87.2752C316.951 87.7017 317.08 88.0171 317.339 88.2212C317.598 88.4254 317.94 88.5275 318.367 88.5275C319.029 88.5275 319.571 88.3437 319.993 87.9762C320.415 87.6087 320.626 87.0575 320.626 86.3225V85.6351Z" fill="#101E37"/>
<path d="M546.987 81.1969L543.607 84.5768L540.228 81.1969C539.888 80.8571 539.339 80.8571 538.999 81.1969C538.66 81.5366 538.66 82.0854 538.999 82.4252L542.998 86.4236C543.337 86.7633 543.886 86.7633 544.226 86.4236L548.224 82.4252C548.564 82.0854 548.564 81.5366 548.224 81.1969C547.885 80.8659 547.327 80.8571 546.987 81.1969Z" fill="#101E37"/>
<path d="M247.791 141.873C247.529 141.873 247.325 141.8 247.179 141.654C247.043 141.508 246.975 141.304 246.975 141.042V131.54C246.975 131.268 247.048 131.065 247.195 130.929C247.341 130.782 247.545 130.709 247.806 130.709H251.554C252.746 130.709 253.665 131.007 254.314 131.603C254.962 132.188 255.286 133.014 255.286 134.08C255.286 135.157 254.962 135.993 254.314 136.589C253.665 137.175 252.746 137.467 251.554 137.467H248.606V141.042C248.606 141.304 248.538 141.508 248.402 141.654C248.266 141.8 248.062 141.873 247.791 141.873ZM248.606 136.166H251.319C252.103 136.166 252.693 135.993 253.09 135.648C253.498 135.293 253.702 134.77 253.702 134.08C253.702 133.401 253.498 132.889 253.09 132.544C252.693 132.188 252.103 132.011 251.319 132.011H248.606V136.166ZM257.51 141.873C257.248 141.873 257.05 141.805 256.914 141.67C256.778 141.523 256.71 141.325 256.71 141.074V134.802C256.71 134.54 256.778 134.342 256.914 134.206C257.05 134.07 257.238 134.002 257.478 134.002C257.729 134.002 257.917 134.07 258.043 134.206C258.179 134.342 258.247 134.54 258.247 134.802V135.946H258.09C258.257 135.319 258.565 134.843 259.015 134.519C259.464 134.195 260.039 134.007 260.74 133.955C260.928 133.944 261.074 133.991 261.179 134.096C261.294 134.201 261.357 134.363 261.367 134.582C261.388 134.802 261.341 134.979 261.226 135.115C261.111 135.241 260.933 135.314 260.693 135.335L260.395 135.366C259.715 135.429 259.198 135.643 258.843 136.009C258.487 136.375 258.309 136.877 258.309 137.514V141.074C258.309 141.325 258.241 141.523 258.106 141.67C257.98 141.805 257.781 141.873 257.51 141.873ZM265.776 141.905C265.003 141.905 264.334 141.743 263.769 141.419C263.215 141.095 262.782 140.635 262.468 140.039C262.154 139.443 261.998 138.743 261.998 137.938C261.998 137.321 262.086 136.772 262.264 136.291C262.442 135.81 262.693 135.397 263.017 135.053C263.351 134.697 263.748 134.431 264.208 134.253C264.679 134.065 265.201 133.971 265.776 133.971C266.54 133.971 267.198 134.133 267.752 134.457C268.317 134.781 268.756 135.241 269.069 135.837C269.383 136.422 269.54 137.122 269.54 137.938C269.54 138.544 269.451 139.093 269.273 139.584C269.095 140.075 268.839 140.494 268.505 140.838C268.181 141.183 267.783 141.45 267.313 141.638C266.853 141.816 266.341 141.905 265.776 141.905ZM265.776 140.682C266.205 140.682 266.581 140.577 266.905 140.368C267.229 140.159 267.48 139.851 267.658 139.443C267.846 139.035 267.94 138.534 267.94 137.938C267.94 137.039 267.742 136.359 267.344 135.899C266.947 135.439 266.425 135.209 265.776 135.209C265.337 135.209 264.956 135.314 264.632 135.523C264.308 135.722 264.052 136.025 263.863 136.432C263.686 136.84 263.597 137.342 263.597 137.938C263.597 138.826 263.796 139.506 264.193 139.976C264.59 140.446 265.118 140.682 265.776 140.682ZM274.144 141.873C273.924 141.873 273.731 141.816 273.564 141.701C273.407 141.586 273.276 141.408 273.172 141.168L270.553 135.084C270.47 134.896 270.438 134.718 270.459 134.551C270.48 134.383 270.558 134.253 270.694 134.159C270.83 134.054 271.013 134.002 271.243 134.002C271.442 134.002 271.599 134.049 271.714 134.143C271.829 134.237 271.933 134.399 272.027 134.629L274.395 140.462H273.956L276.371 134.629C276.465 134.399 276.569 134.237 276.684 134.143C276.81 134.049 276.982 134.002 277.202 134.002C277.39 134.002 277.536 134.054 277.641 134.159C277.756 134.253 277.824 134.383 277.844 134.551C277.876 134.708 277.85 134.88 277.766 135.068L275.116 141.168C275.022 141.408 274.891 141.586 274.724 141.701C274.557 141.816 274.364 141.873 274.144 141.873ZM280.111 141.858C279.86 141.858 279.666 141.785 279.531 141.638C279.395 141.481 279.327 141.267 279.327 140.995V134.88C279.327 134.608 279.395 134.399 279.531 134.253C279.666 134.106 279.86 134.033 280.111 134.033C280.362 134.033 280.555 134.106 280.691 134.253C280.837 134.399 280.91 134.608 280.91 134.88V140.995C280.91 141.267 280.842 141.481 280.707 141.638C280.571 141.785 280.372 141.858 280.111 141.858ZM280.111 132.403C279.797 132.403 279.551 132.324 279.374 132.167C279.207 132.011 279.123 131.791 279.123 131.509C279.123 131.216 279.207 130.997 279.374 130.85C279.551 130.693 279.797 130.615 280.111 130.615C280.424 130.615 280.665 130.693 280.832 130.85C281.01 130.997 281.099 131.216 281.099 131.509C281.099 131.791 281.01 132.011 280.832 132.167C280.665 132.324 280.424 132.403 280.111 132.403ZM283.924 141.873C283.673 141.873 283.479 141.805 283.343 141.67C283.208 141.523 283.14 141.325 283.14 141.074V134.802C283.14 134.54 283.208 134.342 283.343 134.206C283.479 134.07 283.667 134.002 283.908 134.002C284.159 134.002 284.347 134.07 284.472 134.206C284.608 134.342 284.676 134.54 284.676 134.802V136.025L284.504 135.742C284.734 135.157 285.094 134.718 285.586 134.425C286.077 134.122 286.641 133.971 287.279 133.971C287.885 133.971 288.387 134.086 288.784 134.316C289.192 134.535 289.495 134.875 289.694 135.335C289.892 135.784 289.992 136.354 289.992 137.044V141.074C289.992 141.325 289.924 141.523 289.788 141.67C289.652 141.805 289.459 141.873 289.208 141.873C288.946 141.873 288.748 141.805 288.612 141.67C288.476 141.523 288.408 141.325 288.408 141.074V137.138C288.408 136.479 288.277 135.999 288.016 135.695C287.765 135.392 287.368 135.241 286.824 135.241C286.187 135.241 285.675 135.439 285.288 135.837C284.911 136.234 284.723 136.767 284.723 137.436V141.074C284.723 141.607 284.457 141.873 283.924 141.873ZM295.545 141.905C294.761 141.905 294.082 141.743 293.507 141.419C292.942 141.084 292.503 140.619 292.19 140.023C291.876 139.417 291.719 138.706 291.719 137.891C291.719 137.284 291.808 136.741 291.986 136.26C292.164 135.769 292.414 135.356 292.739 135.021C293.073 134.687 293.475 134.431 293.946 134.253C294.427 134.065 294.96 133.971 295.545 133.971C295.911 133.971 296.293 134.028 296.69 134.143C297.098 134.248 297.474 134.425 297.819 134.676C297.955 134.76 298.038 134.864 298.07 134.99C298.112 135.105 298.117 135.225 298.085 135.35C298.065 135.476 298.007 135.586 297.913 135.68C297.829 135.763 297.725 135.816 297.599 135.837C297.474 135.847 297.338 135.81 297.192 135.727C296.941 135.549 296.685 135.424 296.423 135.35C296.162 135.267 295.911 135.225 295.671 135.225C295.294 135.225 294.96 135.288 294.667 135.413C294.385 135.528 294.145 135.701 293.946 135.931C293.747 136.15 293.596 136.427 293.491 136.762C293.397 137.096 293.35 137.478 293.35 137.906C293.35 138.763 293.549 139.438 293.946 139.929C294.354 140.41 294.929 140.65 295.671 140.65C295.911 140.65 296.162 140.614 296.423 140.541C296.685 140.467 296.941 140.342 297.192 140.164C297.338 140.081 297.474 140.049 297.599 140.07C297.725 140.091 297.824 140.149 297.897 140.243C297.981 140.326 298.033 140.431 298.054 140.556C298.085 140.671 298.08 140.791 298.038 140.917C297.997 141.042 297.908 141.147 297.772 141.23C297.437 141.471 297.071 141.643 296.674 141.748C296.287 141.852 295.911 141.905 295.545 141.905ZM300.277 141.858C300.027 141.858 299.833 141.785 299.697 141.638C299.561 141.481 299.493 141.267 299.493 140.995V134.88C299.493 134.608 299.561 134.399 299.697 134.253C299.833 134.106 300.027 134.033 300.277 134.033C300.528 134.033 300.722 134.106 300.858 134.253C301.004 134.399 301.077 134.608 301.077 134.88V140.995C301.077 141.267 301.009 141.481 300.873 141.638C300.737 141.785 300.539 141.858 300.277 141.858ZM300.277 132.403C299.964 132.403 299.718 132.324 299.541 132.167C299.373 132.011 299.29 131.791 299.29 131.509C299.29 131.216 299.373 130.997 299.541 130.85C299.718 130.693 299.964 130.615 300.277 130.615C300.591 130.615 300.832 130.693 300.999 130.85C301.176 130.997 301.265 131.216 301.265 131.509C301.265 131.791 301.176 132.011 300.999 132.167C300.832 132.324 300.591 132.403 300.277 132.403ZM305.752 141.905C305.219 141.905 304.738 141.8 304.31 141.591C303.892 141.382 303.562 141.1 303.322 140.744C303.082 140.389 302.961 139.987 302.961 139.537C302.961 138.973 303.102 138.528 303.385 138.204C303.677 137.87 304.153 137.635 304.812 137.499C305.481 137.352 306.38 137.279 307.509 137.279H308.246V138.251H307.524C306.772 138.251 306.176 138.288 305.737 138.361C305.298 138.434 304.984 138.56 304.796 138.737C304.618 138.905 304.529 139.14 304.529 139.443C304.529 139.84 304.665 140.164 304.937 140.415C305.209 140.656 305.585 140.776 306.066 140.776C306.453 140.776 306.793 140.687 307.085 140.509C307.378 140.321 307.608 140.07 307.775 139.757C307.953 139.443 308.042 139.082 308.042 138.675V136.871C308.042 136.276 307.916 135.847 307.665 135.586C307.415 135.324 307.002 135.194 306.427 135.194C306.092 135.194 305.742 135.235 305.376 135.319C305.021 135.403 304.65 135.544 304.263 135.742C304.085 135.826 303.934 135.852 303.808 135.821C303.683 135.789 303.583 135.722 303.51 135.617C303.437 135.502 303.395 135.382 303.385 135.256C303.385 135.12 303.416 134.99 303.479 134.864C303.552 134.739 303.672 134.645 303.839 134.582C304.299 134.363 304.754 134.206 305.204 134.112C305.653 134.018 306.076 133.971 306.474 133.971C307.174 133.971 307.749 134.08 308.199 134.3C308.658 134.519 308.998 134.854 309.218 135.303C309.437 135.753 309.547 136.333 309.547 137.044V141.074C309.547 141.325 309.484 141.523 309.359 141.67C309.233 141.805 309.05 141.873 308.81 141.873C308.58 141.873 308.397 141.805 308.261 141.67C308.125 141.523 308.057 141.325 308.057 141.074V140.054H308.199C308.115 140.441 307.958 140.776 307.728 141.058C307.509 141.33 307.232 141.539 306.897 141.685C306.563 141.832 306.181 141.905 305.752 141.905Z" fill="#101E37"/>
<rect x="246.561" y="154.604" width="320.571" height="40.1646" rx="6.09783" fill="white"/>
<rect x="246.561" y="154.604" width="320.571" height="40.1646" rx="6.09783" stroke="#101E37" stroke-width="1.74224"/>
<path d="M260.988 170.236H263.806C265.049 170.236 265.984 170.422 266.61 170.794C267.236 171.166 267.549 171.799 267.549 172.693C267.549 173.079 267.474 173.426 267.324 173.734C267.179 174.038 266.966 174.29 266.685 174.49C266.403 174.689 266.056 174.828 265.643 174.905V174.973C266.079 175.041 266.465 175.166 266.8 175.347C267.136 175.529 267.399 175.783 267.59 176.109C267.78 176.436 267.876 176.851 267.876 177.355C267.876 177.967 267.733 178.485 267.447 178.906C267.166 179.328 266.766 179.648 266.249 179.866C265.732 180.079 265.119 180.186 264.412 180.186H260.988V170.236ZM262.145 174.503H264.051C264.918 174.503 265.516 174.36 265.848 174.074C266.183 173.789 266.351 173.371 266.351 172.822C266.351 172.255 266.152 171.847 265.752 171.597C265.358 171.348 264.727 171.223 263.86 171.223H262.145V174.503ZM262.145 175.476V179.199H264.214C265.099 179.199 265.725 179.027 266.093 178.682C266.46 178.333 266.644 177.863 266.644 177.273C266.644 176.897 266.56 176.574 266.392 176.307C266.229 176.039 265.961 175.835 265.589 175.694C265.222 175.549 264.729 175.476 264.112 175.476H262.145ZM275.988 172.727V180.186H275.062L274.899 179.138H274.838C274.684 179.396 274.484 179.614 274.239 179.791C273.994 179.968 273.717 180.1 273.409 180.186C273.105 180.277 272.78 180.322 272.435 180.322C271.846 180.322 271.351 180.227 270.952 180.036C270.553 179.846 270.251 179.551 270.047 179.151C269.847 178.752 269.747 178.24 269.747 177.613V172.727H270.891V177.532C270.891 178.153 271.031 178.618 271.313 178.927C271.594 179.231 272.023 179.383 272.599 179.383C273.152 179.383 273.592 179.278 273.919 179.07C274.25 178.861 274.489 178.555 274.634 178.151C274.779 177.743 274.851 177.244 274.851 176.654V172.727H275.988ZM281.249 172.591C281.884 172.591 282.428 172.732 282.882 173.013C283.336 173.294 283.683 173.689 283.923 174.197C284.164 174.701 284.284 175.29 284.284 175.966V176.667H279.132C279.146 177.543 279.364 178.21 279.786 178.668C280.207 179.127 280.802 179.356 281.569 179.356C282.04 179.356 282.458 179.313 282.821 179.226C283.184 179.14 283.56 179.013 283.951 178.845V179.839C283.574 180.007 283.2 180.129 282.828 180.206C282.46 180.283 282.025 180.322 281.521 180.322C280.804 180.322 280.178 180.177 279.643 179.886C279.112 179.592 278.699 179.161 278.404 178.593C278.109 178.026 277.962 177.332 277.962 176.511C277.962 175.708 278.095 175.014 278.363 174.428C278.635 173.839 279.016 173.385 279.507 173.067C280.001 172.75 280.582 172.591 281.249 172.591ZM281.235 173.516C280.632 173.516 280.151 173.714 279.792 174.109C279.434 174.503 279.221 175.054 279.153 175.762H283.1C283.095 175.318 283.025 174.927 282.889 174.592C282.757 174.251 282.555 173.988 282.283 173.802C282.011 173.612 281.662 173.516 281.235 173.516ZM289.735 172.591C290.62 172.591 291.289 172.809 291.743 173.244C292.197 173.675 292.424 174.369 292.424 175.327V180.186H291.307V175.402C291.307 174.78 291.165 174.315 290.879 174.006C290.597 173.698 290.164 173.544 289.579 173.544C288.753 173.544 288.172 173.777 287.837 174.245C287.501 174.712 287.333 175.39 287.333 176.279V180.186H286.203V172.727H287.115L287.285 173.802H287.347C287.505 173.539 287.707 173.319 287.952 173.142C288.197 172.961 288.472 172.825 288.776 172.734C289.08 172.638 289.4 172.591 289.735 172.591ZM301.182 176.443C301.182 177.055 301.103 177.602 300.944 178.083C300.785 178.564 300.556 178.97 300.257 179.301C299.957 179.632 299.594 179.886 299.168 180.063C298.746 180.236 298.267 180.322 297.732 180.322C297.233 180.322 296.775 180.236 296.357 180.063C295.944 179.886 295.586 179.632 295.282 179.301C294.982 178.97 294.749 178.564 294.581 178.083C294.418 177.602 294.336 177.055 294.336 176.443C294.336 175.626 294.474 174.932 294.751 174.36C295.028 173.784 295.423 173.346 295.935 173.047C296.452 172.743 297.067 172.591 297.78 172.591C298.46 172.591 299.054 172.743 299.563 173.047C300.075 173.351 300.472 173.791 300.754 174.367C301.039 174.939 301.182 175.631 301.182 176.443ZM295.506 176.443C295.506 177.042 295.586 177.561 295.745 178.001C295.903 178.441 296.148 178.782 296.48 179.022C296.811 179.263 297.237 179.383 297.759 179.383C298.276 179.383 298.701 179.263 299.032 179.022C299.368 178.782 299.615 178.441 299.774 178.001C299.932 177.561 300.012 177.042 300.012 176.443C300.012 175.848 299.932 175.336 299.774 174.905C299.615 174.469 299.37 174.133 299.039 173.898C298.707 173.662 298.279 173.544 297.752 173.544C296.977 173.544 296.407 173.8 296.044 174.313C295.686 174.825 295.506 175.535 295.506 176.443ZM307.961 178.144C307.961 178.621 307.841 179.022 307.6 179.349C307.364 179.671 307.024 179.914 306.579 180.077C306.139 180.24 305.613 180.322 305 180.322C304.479 180.322 304.027 180.281 303.646 180.2C303.265 180.118 302.931 180.002 302.646 179.852V178.811C302.95 178.961 303.313 179.097 303.734 179.22C304.156 179.342 304.587 179.403 305.028 179.403C305.672 179.403 306.139 179.299 306.429 179.09C306.72 178.882 306.865 178.598 306.865 178.24C306.865 178.035 306.806 177.856 306.688 177.702C306.575 177.543 306.382 177.391 306.11 177.246C305.837 177.096 305.461 176.933 304.98 176.756C304.504 176.574 304.091 176.395 303.741 176.218C303.396 176.037 303.129 175.817 302.938 175.558C302.752 175.299 302.659 174.964 302.659 174.551C302.659 173.92 302.913 173.437 303.421 173.101C303.934 172.761 304.606 172.591 305.436 172.591C305.885 172.591 306.305 172.636 306.695 172.727C307.09 172.813 307.457 172.931 307.797 173.081L307.416 173.986C307.108 173.854 306.779 173.743 306.429 173.653C306.08 173.562 305.724 173.516 305.361 173.516C304.839 173.516 304.438 173.603 304.156 173.775C303.88 173.947 303.741 174.183 303.741 174.483C303.741 174.714 303.805 174.905 303.932 175.054C304.063 175.204 304.272 175.345 304.558 175.476C304.844 175.608 305.22 175.762 305.688 175.939C306.155 176.112 306.559 176.291 306.899 176.477C307.239 176.658 307.5 176.881 307.682 177.144C307.868 177.402 307.961 177.736 307.961 178.144ZM319.809 180.186L318.584 177.028H314.596L313.378 180.186H312.207L316.1 170.195H317.142L321.007 180.186H319.809ZM318.237 176L317.073 172.863C317.046 172.781 317.001 172.648 316.937 172.462C316.878 172.276 316.817 172.083 316.754 171.883C316.69 171.683 316.638 171.522 316.597 171.4C316.552 171.586 316.502 171.772 316.447 171.958C316.397 172.139 316.348 172.31 316.298 172.468C316.248 172.623 316.205 172.754 316.168 172.863L314.984 176H318.237ZM323.348 172.727V180.186H322.219V172.727H323.348ZM322.797 169.937C322.983 169.937 323.142 169.998 323.273 170.12C323.409 170.238 323.478 170.424 323.478 170.678C323.478 170.928 323.409 171.114 323.273 171.237C323.142 171.359 322.983 171.42 322.797 171.42C322.602 171.42 322.439 171.359 322.307 171.237C322.18 171.114 322.116 170.928 322.116 170.678C322.116 170.424 322.18 170.238 322.307 170.12C322.439 169.998 322.602 169.937 322.797 169.937ZM329.133 172.591C329.283 172.591 329.439 172.6 329.603 172.618C329.766 172.632 329.911 172.652 330.038 172.679L329.895 173.727C329.773 173.696 329.637 173.671 329.487 173.653C329.337 173.634 329.197 173.625 329.065 173.625C328.766 173.625 328.482 173.687 328.214 173.809C327.951 173.927 327.72 174.099 327.52 174.326C327.32 174.549 327.164 174.819 327.05 175.136C326.937 175.449 326.88 175.799 326.88 176.184V180.186H325.744V172.727H326.683L326.805 174.102H326.853C327.007 173.825 327.193 173.573 327.411 173.346C327.629 173.115 327.881 172.931 328.167 172.795C328.457 172.659 328.779 172.591 329.133 172.591ZM334.319 172.591C334.954 172.591 335.499 172.732 335.952 173.013C336.406 173.294 336.753 173.689 336.993 174.197C337.234 174.701 337.354 175.29 337.354 175.966V176.667H332.202C332.216 177.543 332.434 178.21 332.856 178.668C333.278 179.127 333.872 179.356 334.639 179.356C335.111 179.356 335.528 179.313 335.891 179.226C336.254 179.14 336.631 179.013 337.021 178.845V179.839C336.644 180.007 336.27 180.129 335.898 180.206C335.53 180.283 335.095 180.322 334.591 180.322C333.874 180.322 333.248 180.177 332.713 179.886C332.182 179.592 331.769 179.161 331.474 178.593C331.179 178.026 331.032 177.332 331.032 176.511C331.032 175.708 331.166 175.014 331.433 174.428C331.706 173.839 332.087 173.385 332.577 173.067C333.071 172.75 333.652 172.591 334.319 172.591ZM334.305 173.516C333.702 173.516 333.221 173.714 332.862 174.109C332.504 174.503 332.291 175.054 332.223 175.762H336.17C336.165 175.318 336.095 174.927 335.959 174.592C335.827 174.251 335.626 173.988 335.353 173.802C335.081 173.612 334.732 173.516 334.305 173.516ZM344.099 178.144C344.099 178.621 343.978 179.022 343.738 179.349C343.502 179.671 343.162 179.914 342.717 180.077C342.277 180.24 341.751 180.322 341.138 180.322C340.616 180.322 340.165 180.281 339.784 180.2C339.403 180.118 339.069 180.002 338.783 179.852V178.811C339.087 178.961 339.45 179.097 339.872 179.22C340.294 179.342 340.725 179.403 341.165 179.403C341.81 179.403 342.277 179.299 342.567 179.09C342.858 178.882 343.003 178.598 343.003 178.24C343.003 178.035 342.944 177.856 342.826 177.702C342.712 177.543 342.52 177.391 342.247 177.246C341.975 177.096 341.599 176.933 341.118 176.756C340.641 176.574 340.228 176.395 339.879 176.218C339.534 176.037 339.267 175.817 339.076 175.558C338.89 175.299 338.797 174.964 338.797 174.551C338.797 173.92 339.051 173.437 339.559 173.101C340.072 172.761 340.743 172.591 341.574 172.591C342.023 172.591 342.443 172.636 342.833 172.727C343.227 172.813 343.595 172.931 343.935 173.081L343.554 173.986C343.246 173.854 342.917 173.743 342.567 173.653C342.218 173.562 341.862 173.516 341.499 173.516C340.977 173.516 340.576 173.603 340.294 173.775C340.017 173.947 339.879 174.183 339.879 174.483C339.879 174.714 339.943 174.905 340.07 175.054C340.201 175.204 340.41 175.345 340.696 175.476C340.982 175.608 341.358 175.762 341.825 175.939C342.293 176.112 342.697 176.291 343.037 176.477C343.377 176.658 343.638 176.881 343.82 177.144C344.006 177.402 344.099 177.736 344.099 178.144Z" fill="#101E37"/>
<path d="M546.987 172.073L543.607 175.453L540.228 172.073C539.888 171.733 539.339 171.733 538.999 172.073C538.66 172.412 538.66 172.961 538.999 173.301L542.998 177.299C543.337 177.639 543.886 177.639 544.226 177.299L548.224 173.301C548.564 172.961 548.564 172.412 548.224 172.073C547.885 171.742 547.327 171.733 546.987 172.073Z" fill="#101E37"/>
<path d="M251.756 231.777C250.669 231.777 249.739 231.553 248.967 231.106C248.194 230.659 247.6 230.024 247.183 229.2C246.777 228.367 246.574 227.387 246.574 226.259C246.574 225.415 246.69 224.658 246.924 223.987C247.158 223.307 247.493 222.727 247.93 222.25C248.377 221.762 248.921 221.391 249.561 221.137C250.212 220.883 250.943 220.756 251.756 220.756C252.356 220.756 252.93 220.837 253.479 221C254.038 221.162 254.52 221.396 254.927 221.701C255.099 221.813 255.211 221.95 255.262 222.112C255.323 222.265 255.333 222.412 255.293 222.555C255.262 222.697 255.196 222.819 255.094 222.92C254.993 223.012 254.861 223.063 254.698 223.073C254.546 223.083 254.378 223.027 254.195 222.905C253.86 222.651 253.489 222.463 253.082 222.341C252.676 222.219 252.249 222.158 251.802 222.158C251.03 222.158 250.379 222.321 249.851 222.646C249.322 222.961 248.921 223.423 248.647 224.033C248.372 224.643 248.235 225.385 248.235 226.259C248.235 227.133 248.372 227.879 248.647 228.499C248.921 229.109 249.322 229.576 249.851 229.902C250.379 230.217 251.03 230.374 251.802 230.374C252.249 230.374 252.676 230.313 253.082 230.191C253.499 230.059 253.89 229.866 254.256 229.612C254.439 229.5 254.602 229.449 254.744 229.46C254.896 229.47 255.023 229.521 255.125 229.612C255.226 229.703 255.293 229.82 255.323 229.963C255.364 230.095 255.359 230.237 255.308 230.389C255.267 230.532 255.171 230.654 255.018 230.755C254.602 231.091 254.109 231.345 253.54 231.517C252.971 231.69 252.376 231.777 251.756 231.777ZM257.835 231.731C257.591 231.731 257.403 231.66 257.271 231.517C257.139 231.365 257.073 231.157 257.073 230.892V224.948C257.073 224.683 257.139 224.48 257.271 224.338C257.403 224.196 257.591 224.125 257.835 224.125C258.079 224.125 258.267 224.196 258.399 224.338C258.541 224.48 258.612 224.683 258.612 224.948V230.892C258.612 231.157 258.546 231.365 258.414 231.517C258.282 231.66 258.089 231.731 257.835 231.731ZM257.835 222.539C257.53 222.539 257.291 222.463 257.118 222.311C256.956 222.158 256.874 221.945 256.874 221.67C256.874 221.386 256.956 221.173 257.118 221.03C257.291 220.878 257.53 220.802 257.835 220.802C258.14 220.802 258.373 220.878 258.536 221.03C258.709 221.173 258.795 221.386 258.795 221.67C258.795 221.945 258.709 222.158 258.536 222.311C258.373 222.463 258.14 222.539 257.835 222.539ZM263.431 231.777C262.832 231.777 262.329 231.665 261.922 231.441C261.526 231.218 261.226 230.887 261.023 230.45C260.83 230.003 260.733 229.444 260.733 228.774V224.871C260.733 224.607 260.799 224.414 260.932 224.292C261.064 224.16 261.252 224.094 261.496 224.094C261.739 224.094 261.927 224.16 262.06 224.292C262.202 224.414 262.273 224.607 262.273 224.871V228.789C262.273 229.388 262.395 229.831 262.639 230.115C262.883 230.4 263.269 230.542 263.797 230.542C264.376 230.542 264.844 230.349 265.2 229.963C265.565 229.566 265.748 229.048 265.748 228.408V224.871C265.748 224.607 265.814 224.414 265.947 224.292C266.079 224.16 266.272 224.094 266.526 224.094C266.77 224.094 266.958 224.16 267.09 224.292C267.222 224.414 267.288 224.607 267.288 224.871V230.969C267.288 231.487 267.039 231.746 266.541 231.746C266.307 231.746 266.124 231.68 265.992 231.548C265.86 231.406 265.794 231.213 265.794 230.969V229.673L265.992 230.008C265.789 230.577 265.464 231.014 265.017 231.319C264.57 231.624 264.041 231.777 263.431 231.777ZM272.293 231.777C271.642 231.777 271.068 231.624 270.57 231.319C270.082 231.004 269.701 230.557 269.427 229.978C269.153 229.388 269.015 228.703 269.015 227.92C269.015 227.117 269.153 226.431 269.427 225.862C269.701 225.293 270.082 224.851 270.57 224.536C271.068 224.221 271.642 224.064 272.293 224.064C272.943 224.064 273.502 224.226 273.969 224.551C274.447 224.866 274.767 225.293 274.93 225.832H274.762V221.564C274.762 221.31 274.828 221.117 274.96 220.985C275.092 220.852 275.28 220.786 275.524 220.786C275.768 220.786 275.956 220.852 276.088 220.985C276.23 221.117 276.302 221.31 276.302 221.564V230.969C276.302 231.213 276.236 231.406 276.103 231.548C275.971 231.68 275.783 231.746 275.539 231.746C275.296 231.746 275.108 231.68 274.975 231.548C274.843 231.406 274.777 231.213 274.777 230.969V229.627L274.945 229.963C274.782 230.511 274.462 230.953 273.985 231.289C273.517 231.614 272.953 231.777 272.293 231.777ZM272.689 230.588C273.106 230.588 273.471 230.486 273.787 230.283C274.102 230.079 274.345 229.78 274.518 229.383C274.701 228.987 274.793 228.499 274.793 227.92C274.793 227.046 274.599 226.386 274.213 225.938C273.827 225.491 273.319 225.268 272.689 225.268C272.262 225.268 271.891 225.369 271.576 225.573C271.261 225.766 271.012 226.06 270.829 226.457C270.657 226.853 270.57 227.341 270.57 227.92C270.57 228.784 270.763 229.444 271.149 229.902C271.536 230.359 272.049 230.588 272.689 230.588ZM280.841 231.777C280.323 231.777 279.856 231.675 279.439 231.472C279.032 231.268 278.712 230.994 278.479 230.649C278.245 230.303 278.128 229.912 278.128 229.475C278.128 228.926 278.265 228.494 278.54 228.179C278.824 227.854 279.286 227.625 279.927 227.493C280.577 227.351 281.451 227.28 282.548 227.28H283.265V228.225H282.564C281.832 228.225 281.253 228.26 280.826 228.332C280.399 228.403 280.094 228.525 279.911 228.697C279.739 228.86 279.652 229.089 279.652 229.383C279.652 229.77 279.784 230.085 280.049 230.328C280.313 230.562 280.679 230.679 281.146 230.679C281.522 230.679 281.852 230.593 282.137 230.42C282.421 230.237 282.645 229.993 282.808 229.688C282.98 229.383 283.067 229.033 283.067 228.636V226.884C283.067 226.304 282.945 225.888 282.701 225.634C282.457 225.38 282.056 225.253 281.497 225.253C281.172 225.253 280.831 225.293 280.475 225.374C280.13 225.456 279.769 225.593 279.393 225.786C279.22 225.867 279.073 225.893 278.951 225.862C278.829 225.832 278.733 225.766 278.662 225.664C278.59 225.552 278.55 225.435 278.54 225.314C278.54 225.181 278.57 225.054 278.631 224.932C278.702 224.81 278.819 224.719 278.982 224.658C279.429 224.445 279.871 224.292 280.308 224.201C280.745 224.109 281.156 224.064 281.542 224.064C282.223 224.064 282.782 224.17 283.219 224.384C283.666 224.597 283.997 224.922 284.21 225.359C284.423 225.796 284.53 226.36 284.53 227.051V230.969C284.53 231.213 284.469 231.406 284.347 231.548C284.225 231.68 284.047 231.746 283.814 231.746C283.59 231.746 283.412 231.68 283.28 231.548C283.148 231.406 283.082 231.213 283.082 230.969V229.978H283.219C283.138 230.354 282.985 230.679 282.762 230.953C282.548 231.218 282.279 231.421 281.954 231.563C281.629 231.705 281.258 231.777 280.841 231.777ZM289.486 231.777C288.835 231.777 288.261 231.624 287.763 231.319C287.275 231.004 286.894 230.557 286.62 229.978C286.346 229.388 286.208 228.703 286.208 227.92C286.208 227.117 286.346 226.431 286.62 225.862C286.894 225.293 287.275 224.851 287.763 224.536C288.261 224.221 288.835 224.064 289.486 224.064C290.136 224.064 290.695 224.226 291.162 224.551C291.64 224.866 291.96 225.293 292.123 225.832H291.955V221.564C291.955 221.31 292.021 221.117 292.153 220.985C292.285 220.852 292.473 220.786 292.717 220.786C292.961 220.786 293.149 220.852 293.281 220.985C293.423 221.117 293.495 221.31 293.495 221.564V230.969C293.495 231.213 293.429 231.406 293.296 231.548C293.164 231.68 292.976 231.746 292.732 231.746C292.489 231.746 292.301 231.68 292.168 231.548C292.036 231.406 291.97 231.213 291.97 230.969V229.627L292.138 229.963C291.975 230.511 291.655 230.953 291.178 231.289C290.71 231.614 290.146 231.777 289.486 231.777ZM289.882 230.588C290.299 230.588 290.664 230.486 290.98 230.283C291.295 230.079 291.538 229.78 291.711 229.383C291.894 228.987 291.986 228.499 291.986 227.92C291.986 227.046 291.792 226.386 291.406 225.938C291.02 225.491 290.512 225.268 289.882 225.268C289.455 225.268 289.084 225.369 288.769 225.573C288.454 225.766 288.205 226.06 288.022 226.457C287.85 226.853 287.763 227.341 287.763 227.92C287.763 228.784 287.956 229.444 288.342 229.902C288.729 230.359 289.242 230.588 289.882 230.588Z" fill="#101E37"/>
<rect x="246.536" y="245.261" width="320.306" height="39.6303" rx="5.92782" fill="white"/>
<rect x="246.536" y="245.261" width="320.306" height="39.6303" rx="5.92782" stroke="#101E37" stroke-width="1.69366"/>
<path d="M264.697 260.757C264.163 260.757 263.682 260.85 263.255 261.035C262.831 261.216 262.47 261.48 262.17 261.829C261.874 262.173 261.647 262.59 261.488 263.079C261.329 263.569 261.25 264.12 261.25 264.733C261.25 265.545 261.376 266.25 261.627 266.85C261.883 267.446 262.262 267.907 262.765 268.233C263.272 268.559 263.905 268.723 264.664 268.723C265.096 268.723 265.502 268.687 265.881 268.617C266.265 268.542 266.638 268.449 266.999 268.339V269.318C266.646 269.45 266.276 269.547 265.888 269.609C265.5 269.675 265.039 269.708 264.505 269.708C263.521 269.708 262.699 269.505 262.037 269.1C261.38 268.69 260.886 268.112 260.555 267.366C260.229 266.621 260.066 265.741 260.066 264.727C260.066 263.994 260.167 263.326 260.37 262.722C260.577 262.113 260.877 261.588 261.27 261.147C261.667 260.706 262.152 260.367 262.725 260.129C263.303 259.886 263.965 259.765 264.71 259.765C265.2 259.765 265.672 259.813 266.126 259.91C266.58 260.007 266.99 260.146 267.356 260.327L266.907 261.28C266.598 261.139 266.258 261.017 265.888 260.916C265.522 260.81 265.125 260.757 264.697 260.757ZM270.029 262.325V269.576H268.931V262.325H270.029ZM269.493 259.613C269.674 259.613 269.829 259.672 269.956 259.791C270.089 259.906 270.155 260.087 270.155 260.334C270.155 260.576 270.089 260.757 269.956 260.876C269.829 260.995 269.674 261.055 269.493 261.055C269.304 261.055 269.145 260.995 269.017 260.876C268.894 260.757 268.832 260.576 268.832 260.334C268.832 260.087 268.894 259.906 269.017 259.791C269.145 259.672 269.304 259.613 269.493 259.613ZM278.345 262.325V269.576H277.446L277.287 268.557H277.227C277.077 268.809 276.883 269.02 276.645 269.192C276.407 269.364 276.138 269.492 275.838 269.576C275.542 269.664 275.227 269.708 274.892 269.708C274.319 269.708 273.838 269.616 273.45 269.431C273.062 269.245 272.768 268.959 272.57 268.57C272.376 268.182 272.279 267.684 272.279 267.075V262.325H273.39V266.996C273.39 267.6 273.527 268.052 273.8 268.352C274.074 268.648 274.491 268.795 275.051 268.795C275.589 268.795 276.017 268.694 276.334 268.491C276.656 268.288 276.888 267.99 277.029 267.598C277.17 267.201 277.241 266.716 277.241 266.142V262.325H278.345ZM283.248 269.708C282.33 269.708 281.603 269.395 281.065 268.769C280.531 268.143 280.264 267.212 280.264 265.977C280.264 264.729 280.537 263.787 281.084 263.152C281.631 262.513 282.359 262.193 283.268 262.193C283.651 262.193 283.987 262.243 284.273 262.345C284.56 262.446 284.807 262.583 285.014 262.755C285.221 262.923 285.396 263.115 285.537 263.331H285.616C285.599 263.194 285.581 263.006 285.563 262.768C285.546 262.53 285.537 262.336 285.537 262.186V259.282H286.635V269.576H285.749L285.583 268.544H285.537C285.4 268.76 285.226 268.956 285.014 269.133C284.807 269.309 284.558 269.45 284.267 269.556C283.98 269.658 283.64 269.708 283.248 269.708ZM283.42 268.795C284.196 268.795 284.745 268.575 285.067 268.134C285.389 267.693 285.55 267.038 285.55 266.169V265.97C285.55 265.049 285.396 264.341 285.087 263.847C284.783 263.353 284.227 263.106 283.42 263.106C282.745 263.106 282.24 263.366 281.905 263.886C281.57 264.402 281.402 265.108 281.402 266.003C281.402 266.894 281.567 267.582 281.898 268.068C282.233 268.553 282.741 268.795 283.42 268.795ZM291.676 262.206C292.541 262.206 293.183 262.4 293.602 262.788C294.021 263.176 294.23 263.796 294.23 264.647V269.576H293.43L293.218 268.504H293.165C292.962 268.769 292.75 268.992 292.53 269.172C292.309 269.349 292.053 269.483 291.762 269.576C291.476 269.664 291.123 269.708 290.704 269.708C290.263 269.708 289.87 269.631 289.526 269.477C289.187 269.322 288.918 269.089 288.719 268.776C288.525 268.462 288.428 268.065 288.428 267.585C288.428 266.861 288.715 266.306 289.288 265.917C289.861 265.529 290.735 265.318 291.908 265.282L293.158 265.229V264.786C293.158 264.16 293.024 263.721 292.755 263.47C292.486 263.218 292.106 263.092 291.617 263.092C291.238 263.092 290.876 263.148 290.532 263.258C290.188 263.368 289.861 263.498 289.553 263.648L289.215 262.815C289.542 262.647 289.917 262.504 290.34 262.385C290.763 262.266 291.209 262.206 291.676 262.206ZM293.145 266.003L292.04 266.05C291.136 266.085 290.499 266.233 290.128 266.493C289.758 266.753 289.573 267.122 289.573 267.598C289.573 268.012 289.698 268.319 289.95 268.518C290.201 268.716 290.534 268.815 290.949 268.815C291.593 268.815 292.12 268.637 292.53 268.279C292.94 267.922 293.145 267.386 293.145 266.672V266.003ZM299.073 269.708C298.156 269.708 297.428 269.395 296.89 268.769C296.356 268.143 296.089 267.212 296.089 265.977C296.089 264.729 296.363 263.787 296.91 263.152C297.456 262.513 298.184 262.193 299.093 262.193C299.476 262.193 299.812 262.243 300.098 262.345C300.385 262.446 300.632 262.583 300.839 262.755C301.047 262.923 301.221 263.115 301.362 263.331H301.441C301.424 263.194 301.406 263.006 301.388 262.768C301.371 262.53 301.362 262.336 301.362 262.186V259.282H302.46V269.576H301.574L301.408 268.544H301.362C301.225 268.76 301.051 268.956 300.839 269.133C300.632 269.309 300.383 269.45 300.092 269.556C299.805 269.658 299.465 269.708 299.073 269.708ZM299.245 268.795C300.021 268.795 300.57 268.575 300.892 268.134C301.214 267.693 301.375 267.038 301.375 266.169V265.97C301.375 265.049 301.221 264.341 300.912 263.847C300.608 263.353 300.052 263.106 299.245 263.106C298.57 263.106 298.065 263.366 297.73 263.886C297.395 264.402 297.227 265.108 297.227 266.003C297.227 266.894 297.392 267.582 297.723 268.068C298.058 268.553 298.566 268.795 299.245 268.795ZM311.021 262.206C311.886 262.206 312.527 262.4 312.946 262.788C313.365 263.176 313.575 263.796 313.575 264.647V269.576H312.774L312.563 268.504H312.51C312.307 268.769 312.095 268.992 311.875 269.172C311.654 269.349 311.398 269.483 311.107 269.576C310.82 269.664 310.468 269.708 310.049 269.708C309.608 269.708 309.215 269.631 308.871 269.477C308.531 269.322 308.262 269.089 308.064 268.776C307.87 268.462 307.773 268.065 307.773 267.585C307.773 266.861 308.059 266.306 308.633 265.917C309.206 265.529 310.08 265.318 311.253 265.282L312.503 265.229V264.786C312.503 264.16 312.369 263.721 312.1 263.47C311.831 263.218 311.451 263.092 310.962 263.092C310.582 263.092 310.221 263.148 309.877 263.258C309.533 263.368 309.206 263.498 308.897 263.648L308.56 262.815C308.886 262.647 309.261 262.504 309.685 262.385C310.108 262.266 310.554 262.206 311.021 262.206ZM312.49 266.003L311.385 266.05C310.481 266.085 309.844 266.233 309.473 266.493C309.103 266.753 308.917 267.122 308.917 267.598C308.917 268.012 309.043 268.319 309.294 268.518C309.546 268.716 309.879 268.815 310.293 268.815C310.937 268.815 311.464 268.637 311.875 268.279C312.285 267.922 312.49 267.386 312.49 266.672V266.003ZM321.825 262.325V269.576H320.925L320.766 268.557H320.707C320.557 268.809 320.363 269.02 320.125 269.192C319.886 269.364 319.617 269.492 319.317 269.576C319.022 269.664 318.707 269.708 318.371 269.708C317.798 269.708 317.317 269.616 316.929 269.431C316.541 269.245 316.248 268.959 316.049 268.57C315.855 268.182 315.758 267.684 315.758 267.075V262.325H316.87V266.996C316.87 267.6 317.006 268.052 317.28 268.352C317.553 268.648 317.97 268.795 318.53 268.795C319.068 268.795 319.496 268.694 319.814 268.491C320.136 268.288 320.367 267.99 320.508 267.598C320.649 267.201 320.72 266.716 320.72 266.142V262.325H321.825ZM326.489 268.809C326.67 268.809 326.855 268.793 327.045 268.762C327.234 268.731 327.389 268.694 327.508 268.65V269.503C327.38 269.561 327.201 269.609 326.972 269.649C326.747 269.689 326.527 269.708 326.31 269.708C325.927 269.708 325.578 269.642 325.265 269.51C324.952 269.373 324.701 269.144 324.511 268.822C324.326 268.5 324.233 268.054 324.233 267.485V263.185H323.201V262.649L324.24 262.219L324.676 260.645H325.338V262.325H327.462V263.185H325.338V267.452C325.338 267.907 325.442 268.246 325.649 268.471C325.861 268.696 326.141 268.809 326.489 268.809ZM335.229 265.937C335.229 266.533 335.151 267.064 334.997 267.532C334.843 267.999 334.62 268.394 334.329 268.716C334.038 269.038 333.685 269.285 333.27 269.457C332.86 269.625 332.395 269.708 331.874 269.708C331.389 269.708 330.944 269.625 330.538 269.457C330.137 269.285 329.788 269.038 329.493 268.716C329.202 268.394 328.974 267.999 328.811 267.532C328.652 267.064 328.573 266.533 328.573 265.937C328.573 265.143 328.708 264.469 328.977 263.913C329.246 263.353 329.629 262.927 330.128 262.636C330.631 262.34 331.228 262.193 331.921 262.193C332.582 262.193 333.16 262.34 333.654 262.636C334.152 262.932 334.538 263.359 334.812 263.919C335.09 264.475 335.229 265.148 335.229 265.937ZM329.711 265.937C329.711 266.52 329.788 267.025 329.943 267.452C330.097 267.88 330.335 268.211 330.657 268.445C330.979 268.678 331.394 268.795 331.901 268.795C332.404 268.795 332.816 268.678 333.138 268.445C333.464 268.211 333.705 267.88 333.859 267.452C334.014 267.025 334.091 266.52 334.091 265.937C334.091 265.36 334.014 264.861 333.859 264.442C333.705 264.019 333.467 263.692 333.145 263.463C332.823 263.234 332.406 263.119 331.894 263.119C331.14 263.119 330.587 263.368 330.234 263.867C329.885 264.365 329.711 265.055 329.711 265.937ZM333.819 259.196V259.328C333.731 259.456 333.61 259.61 333.456 259.791C333.306 259.968 333.138 260.155 332.953 260.354C332.768 260.548 332.58 260.733 332.39 260.909C332.205 261.086 332.033 261.238 331.874 261.366H331.14V261.207C331.281 261.039 331.436 260.839 331.603 260.605C331.771 260.367 331.934 260.124 332.093 259.877C332.252 259.626 332.384 259.399 332.49 259.196H333.819ZM340.561 262.193C341.421 262.193 342.072 262.404 342.513 262.828C342.954 263.247 343.174 263.922 343.174 264.852V269.576H342.089V264.925C342.089 264.321 341.95 263.869 341.672 263.569C341.399 263.269 340.978 263.119 340.409 263.119C339.606 263.119 339.042 263.346 338.715 263.8C338.389 264.255 338.226 264.914 338.226 265.779V269.576H337.127V262.325H338.014L338.179 263.37H338.239C338.393 263.115 338.59 262.901 338.828 262.729C339.066 262.552 339.333 262.42 339.628 262.332C339.924 262.239 340.235 262.193 340.561 262.193ZM351.689 265.937C351.689 266.533 351.612 267.064 351.457 267.532C351.303 267.999 351.08 268.394 350.789 268.716C350.498 269.038 350.145 269.285 349.731 269.457C349.32 269.625 348.855 269.708 348.335 269.708C347.85 269.708 347.404 269.625 346.998 269.457C346.597 269.285 346.248 269.038 345.953 268.716C345.662 268.394 345.435 267.999 345.272 267.532C345.113 267.064 345.033 266.533 345.033 265.937C345.033 265.143 345.168 264.469 345.437 263.913C345.706 263.353 346.09 262.927 346.588 262.636C347.091 262.34 347.689 262.193 348.381 262.193C349.043 262.193 349.62 262.34 350.114 262.636C350.613 262.932 350.999 263.359 351.272 263.919C351.55 264.475 351.689 265.148 351.689 265.937ZM346.171 265.937C346.171 266.52 346.248 267.025 346.403 267.452C346.557 267.88 346.795 268.211 347.117 268.445C347.439 268.678 347.854 268.795 348.361 268.795C348.864 268.795 349.276 268.678 349.598 268.445C349.925 268.211 350.165 267.88 350.319 267.452C350.474 267.025 350.551 266.52 350.551 265.937C350.551 265.36 350.474 264.861 350.319 264.442C350.165 264.019 349.927 263.692 349.605 263.463C349.283 263.234 348.866 263.119 348.355 263.119C347.6 263.119 347.047 263.368 346.694 263.867C346.346 264.365 346.171 265.055 346.171 265.937ZM361.461 262.193C362.259 262.193 362.861 262.402 363.267 262.821C363.672 263.236 363.875 263.904 363.875 264.826V269.576H362.79V264.879C362.79 264.292 362.662 263.853 362.407 263.562C362.155 263.267 361.78 263.119 361.282 263.119C360.581 263.119 360.071 263.322 359.754 263.728C359.436 264.133 359.277 264.731 359.277 265.521V269.576H358.186V264.879C358.186 264.486 358.128 264.16 358.014 263.9C357.903 263.639 357.736 263.445 357.511 263.317C357.29 263.185 357.01 263.119 356.671 263.119C356.19 263.119 355.804 263.218 355.513 263.417C355.222 263.615 355.01 263.911 354.878 264.303C354.75 264.691 354.686 265.17 354.686 265.739V269.576H353.588V262.325H354.474L354.64 263.351H354.699C354.845 263.099 355.028 262.887 355.248 262.715C355.469 262.543 355.716 262.413 355.989 262.325C356.263 262.237 356.554 262.193 356.863 262.193C357.414 262.193 357.875 262.296 358.245 262.504C358.62 262.707 358.891 263.018 359.059 263.437H359.119C359.357 263.018 359.683 262.707 360.098 262.504C360.512 262.296 360.967 262.193 361.461 262.193ZM368.844 262.206C369.708 262.206 370.35 262.4 370.769 262.788C371.188 263.176 371.398 263.796 371.398 264.647V269.576H370.597L370.385 268.504H370.332C370.13 268.769 369.918 268.992 369.697 269.172C369.477 269.349 369.221 269.483 368.93 269.576C368.643 269.664 368.29 269.708 367.871 269.708C367.43 269.708 367.038 269.631 366.694 269.477C366.354 269.322 366.085 269.089 365.887 268.776C365.693 268.462 365.595 268.065 365.595 267.585C365.595 266.861 365.882 266.306 366.456 265.917C367.029 265.529 367.902 265.318 369.075 265.282L370.326 265.229V264.786C370.326 264.16 370.191 263.721 369.922 263.47C369.653 263.218 369.274 263.092 368.784 263.092C368.405 263.092 368.043 263.148 367.699 263.258C367.355 263.368 367.029 263.498 366.72 263.648L366.383 262.815C366.709 262.647 367.084 262.504 367.507 262.385C367.931 262.266 368.376 262.206 368.844 262.206ZM370.313 266.003L369.208 266.05C368.304 266.085 367.666 266.233 367.296 266.493C366.925 266.753 366.74 267.122 366.74 267.598C366.74 268.012 366.866 268.319 367.117 268.518C367.369 268.716 367.702 268.815 368.116 268.815C368.76 268.815 369.287 268.637 369.697 268.279C370.108 267.922 370.313 267.386 370.313 266.672V266.003ZM379.76 269.708C378.843 269.708 378.115 269.395 377.577 268.769C377.043 268.143 376.776 267.212 376.776 265.977C376.776 264.729 377.05 263.787 377.597 263.152C378.144 262.513 378.871 262.193 379.78 262.193C380.164 262.193 380.499 262.243 380.786 262.345C381.072 262.446 381.319 262.583 381.526 262.755C381.734 262.923 381.908 263.115 382.049 263.331H382.129C382.111 263.194 382.093 263.006 382.076 262.768C382.058 262.53 382.049 262.336 382.049 262.186V259.282H383.147V269.576H382.261L382.095 268.544H382.049C381.912 268.76 381.738 268.956 381.526 269.133C381.319 269.309 381.07 269.45 380.779 269.556C380.492 269.658 380.153 269.708 379.76 269.708ZM379.932 268.795C380.708 268.795 381.257 268.575 381.579 268.134C381.901 267.693 382.062 267.038 382.062 266.169V265.97C382.062 265.049 381.908 264.341 381.599 263.847C381.295 263.353 380.739 263.106 379.932 263.106C379.257 263.106 378.752 263.366 378.417 263.886C378.082 264.402 377.914 265.108 377.914 266.003C377.914 266.894 378.08 267.582 378.41 268.068C378.746 268.553 379.253 268.795 379.932 268.795ZM388.268 262.193C388.886 262.193 389.415 262.329 389.856 262.603C390.297 262.876 390.634 263.26 390.868 263.754C391.102 264.244 391.219 264.817 391.219 265.474V266.156H386.211C386.224 267.007 386.435 267.655 386.846 268.101C387.256 268.546 387.834 268.769 388.579 268.769C389.038 268.769 389.443 268.727 389.796 268.643C390.149 268.559 390.515 268.436 390.895 268.273V269.239C390.528 269.402 390.165 269.521 389.803 269.596C389.446 269.671 389.022 269.708 388.533 269.708C387.836 269.708 387.227 269.567 386.707 269.285C386.191 268.998 385.789 268.579 385.503 268.028C385.216 267.477 385.073 266.802 385.073 266.003C385.073 265.223 385.203 264.548 385.463 263.979C385.728 263.406 386.098 262.965 386.574 262.656C387.055 262.347 387.62 262.193 388.268 262.193ZM388.255 263.092C387.668 263.092 387.201 263.284 386.852 263.668C386.504 264.052 386.297 264.588 386.23 265.276H390.068C390.063 264.843 389.995 264.464 389.862 264.138C389.735 263.807 389.538 263.551 389.274 263.37C389.009 263.185 388.669 263.092 388.255 263.092ZM396.769 259.904H399.508C400.717 259.904 401.626 260.084 402.234 260.446C402.843 260.808 403.147 261.423 403.147 262.292C403.147 262.667 403.074 263.004 402.929 263.304C402.788 263.6 402.58 263.845 402.307 264.039C402.033 264.233 401.696 264.367 401.295 264.442V264.508C401.718 264.574 402.093 264.696 402.419 264.872C402.746 265.049 403.002 265.296 403.187 265.613C403.372 265.931 403.465 266.334 403.465 266.824C403.465 267.419 403.326 267.922 403.048 268.332C402.774 268.742 402.386 269.053 401.884 269.265C401.381 269.472 400.785 269.576 400.097 269.576H396.769V259.904ZM397.894 264.052H399.747C400.589 264.052 401.171 263.913 401.493 263.635C401.82 263.357 401.983 262.951 401.983 262.418C401.983 261.866 401.789 261.469 401.401 261.227C401.017 260.984 400.404 260.863 399.561 260.863H397.894V264.052ZM397.894 264.998V268.617H399.905C400.765 268.617 401.374 268.449 401.731 268.114C402.089 267.774 402.267 267.318 402.267 266.744C402.267 266.378 402.186 266.065 402.022 265.805C401.864 265.545 401.603 265.346 401.242 265.21C400.885 265.068 400.406 264.998 399.806 264.998H397.894ZM411.351 262.325V269.576H410.451L410.292 268.557H410.233C410.083 268.809 409.889 269.02 409.651 269.192C409.412 269.364 409.143 269.492 408.843 269.576C408.548 269.664 408.233 269.708 407.897 269.708C407.324 269.708 406.843 269.616 406.455 269.431C406.067 269.245 405.774 268.959 405.575 268.57C405.381 268.182 405.284 267.684 405.284 267.075V262.325H406.396V266.996C406.396 267.6 406.532 268.052 406.806 268.352C407.079 268.648 407.496 268.795 408.056 268.795C408.594 268.795 409.022 268.694 409.34 268.491C409.662 268.288 409.893 267.99 410.034 267.598C410.175 267.201 410.246 266.716 410.246 266.142V262.325H411.351ZM416.465 262.193C417.082 262.193 417.612 262.329 418.053 262.603C418.494 262.876 418.831 263.26 419.065 263.754C419.299 264.244 419.416 264.817 419.416 265.474V266.156H414.407C414.421 267.007 414.632 267.655 415.042 268.101C415.453 268.546 416.03 268.769 416.776 268.769C417.235 268.769 417.64 268.727 417.993 268.643C418.346 268.559 418.712 268.436 419.091 268.273V269.239C418.725 269.402 418.361 269.521 418 269.596C417.643 269.671 417.219 269.708 416.73 269.708C416.033 269.708 415.424 269.567 414.904 269.285C414.388 268.998 413.986 268.579 413.699 268.028C413.413 267.477 413.269 266.802 413.269 266.003C413.269 265.223 413.4 264.548 413.66 263.979C413.924 263.406 414.295 262.965 414.771 262.656C415.252 262.347 415.817 262.193 416.465 262.193ZM416.452 263.092C415.865 263.092 415.398 263.284 415.049 263.668C414.701 264.052 414.493 264.588 414.427 265.276H418.264C418.26 264.843 418.192 264.464 418.059 264.138C417.931 263.807 417.735 263.551 417.471 263.37C417.206 263.185 416.866 263.092 416.452 263.092ZM424.715 262.193C425.575 262.193 426.226 262.404 426.667 262.828C427.108 263.247 427.328 263.922 427.328 264.852V269.576H426.243V264.925C426.243 264.321 426.104 263.869 425.826 263.569C425.553 263.269 425.132 263.119 424.563 263.119C423.76 263.119 423.195 263.346 422.869 263.8C422.543 264.255 422.379 264.914 422.379 265.779V269.576H421.281V262.325H422.168L422.333 263.37H422.393C422.547 263.115 422.743 262.901 422.982 262.729C423.22 262.552 423.487 262.42 423.782 262.332C424.078 262.239 424.389 262.193 424.715 262.193ZM435.843 265.937C435.843 266.533 435.766 267.064 435.611 267.532C435.457 267.999 435.234 268.394 434.943 268.716C434.652 269.038 434.299 269.285 433.884 269.457C433.474 269.625 433.009 269.708 432.489 269.708C432.003 269.708 431.558 269.625 431.152 269.457C430.751 269.285 430.402 269.038 430.107 268.716C429.816 268.394 429.589 267.999 429.425 267.532C429.267 267.064 429.187 266.533 429.187 265.937C429.187 265.143 429.322 264.469 429.591 263.913C429.86 263.353 430.244 262.927 430.742 262.636C431.245 262.34 431.842 262.193 432.535 262.193C433.196 262.193 433.774 262.34 434.268 262.636C434.767 262.932 435.153 263.359 435.426 263.919C435.704 264.475 435.843 265.148 435.843 265.937ZM430.325 265.937C430.325 266.52 430.402 267.025 430.557 267.452C430.711 267.88 430.949 268.211 431.271 268.445C431.593 268.678 432.008 268.795 432.515 268.795C433.018 268.795 433.43 268.678 433.752 268.445C434.079 268.211 434.319 267.88 434.473 267.452C434.628 267.025 434.705 266.52 434.705 265.937C434.705 265.36 434.628 264.861 434.473 264.442C434.319 264.019 434.081 263.692 433.759 263.463C433.437 263.234 433.02 263.119 432.508 263.119C431.754 263.119 431.201 263.368 430.848 263.867C430.499 264.365 430.325 265.055 430.325 265.937ZM442.432 267.591C442.432 268.054 442.315 268.445 442.082 268.762C441.852 269.075 441.521 269.311 441.089 269.47C440.661 269.629 440.15 269.708 439.554 269.708C439.047 269.708 438.608 269.669 438.238 269.589C437.867 269.51 437.543 269.397 437.265 269.252V268.24C437.561 268.385 437.914 268.518 438.324 268.637C438.734 268.756 439.153 268.815 439.581 268.815C440.207 268.815 440.661 268.714 440.944 268.511C441.226 268.308 441.367 268.032 441.367 267.684C441.367 267.485 441.31 267.311 441.195 267.161C441.085 267.007 440.897 266.859 440.633 266.718C440.368 266.572 440.002 266.414 439.534 266.242C439.071 266.065 438.67 265.891 438.33 265.719C437.995 265.543 437.735 265.329 437.55 265.077C437.369 264.826 437.278 264.499 437.278 264.098C437.278 263.485 437.525 263.015 438.019 262.689C438.518 262.358 439.171 262.193 439.978 262.193C440.414 262.193 440.822 262.237 441.202 262.325C441.585 262.409 441.943 262.524 442.273 262.669L441.903 263.549C441.603 263.421 441.283 263.313 440.944 263.225C440.604 263.137 440.258 263.092 439.905 263.092C439.398 263.092 439.007 263.176 438.734 263.344C438.465 263.512 438.33 263.741 438.33 264.032C438.33 264.257 438.392 264.442 438.516 264.588C438.643 264.733 438.846 264.87 439.124 264.998C439.402 265.126 439.768 265.276 440.222 265.448C440.677 265.615 441.069 265.79 441.4 265.97C441.731 266.147 441.985 266.363 442.161 266.619C442.342 266.87 442.432 267.194 442.432 267.591ZM453.95 269.576L452.76 266.506H448.883L447.698 269.576H446.56L450.345 259.864H451.357L455.115 269.576H453.95ZM452.422 265.507L451.291 262.457C451.264 262.378 451.22 262.248 451.159 262.067C451.101 261.886 451.042 261.699 450.98 261.505C450.918 261.311 450.867 261.154 450.828 261.035C450.784 261.216 450.735 261.397 450.682 261.577C450.634 261.754 450.585 261.919 450.537 262.074C450.488 262.224 450.446 262.352 450.411 262.457L449.26 265.507H452.422ZM457.391 262.325V269.576H456.292V262.325H457.391ZM456.855 259.613C457.036 259.613 457.19 259.672 457.318 259.791C457.45 259.906 457.516 260.087 457.516 260.334C457.516 260.576 457.45 260.757 457.318 260.876C457.19 260.995 457.036 261.055 456.855 261.055C456.665 261.055 456.506 260.995 456.378 260.876C456.255 260.757 456.193 260.576 456.193 260.334C456.193 260.087 456.255 259.906 456.378 259.791C456.506 259.672 456.665 259.613 456.855 259.613ZM463.014 262.193C463.16 262.193 463.312 262.202 463.471 262.219C463.629 262.232 463.771 262.252 463.894 262.279L463.755 263.298C463.636 263.267 463.504 263.242 463.358 263.225C463.213 263.207 463.076 263.198 462.948 263.198C462.657 263.198 462.381 263.258 462.121 263.377C461.865 263.492 461.64 263.659 461.446 263.88C461.252 264.096 461.1 264.358 460.99 264.667C460.879 264.971 460.824 265.311 460.824 265.686V269.576H459.719V262.325H460.632L460.752 263.661H460.798C460.948 263.392 461.129 263.148 461.34 262.927C461.552 262.702 461.797 262.524 462.075 262.391C462.357 262.259 462.67 262.193 463.014 262.193ZM468.055 262.193C468.673 262.193 469.202 262.329 469.643 262.603C470.084 262.876 470.422 263.26 470.655 263.754C470.889 264.244 471.006 264.817 471.006 265.474V266.156H465.998C466.011 267.007 466.223 267.655 466.633 268.101C467.043 268.546 467.621 268.769 468.366 268.769C468.825 268.769 469.231 268.727 469.584 268.643C469.937 268.559 470.303 268.436 470.682 268.273V269.239C470.316 269.402 469.952 269.521 469.59 269.596C469.233 269.671 468.81 269.708 468.32 269.708C467.623 269.708 467.015 269.567 466.494 269.285C465.978 268.998 465.577 268.579 465.29 268.028C465.003 267.477 464.86 266.802 464.86 266.003C464.86 265.223 464.99 264.548 465.25 263.979C465.515 263.406 465.885 262.965 466.362 262.656C466.843 262.347 467.407 262.193 468.055 262.193ZM468.042 263.092C467.456 263.092 466.988 263.284 466.64 263.668C466.291 264.052 466.084 264.588 466.018 265.276H469.855C469.851 264.843 469.782 264.464 469.65 264.138C469.522 263.807 469.326 263.551 469.061 263.37C468.796 263.185 468.457 263.092 468.042 263.092ZM477.562 267.591C477.562 268.054 477.446 268.445 477.212 268.762C476.982 269.075 476.652 269.311 476.219 269.47C475.792 269.629 475.28 269.708 474.685 269.708C474.177 269.708 473.738 269.669 473.368 269.589C472.998 269.51 472.673 269.397 472.395 269.252V268.24C472.691 268.385 473.044 268.518 473.454 268.637C473.864 268.756 474.283 268.815 474.711 268.815C475.337 268.815 475.792 268.714 476.074 268.511C476.356 268.308 476.497 268.032 476.497 267.684C476.497 267.485 476.44 267.311 476.325 267.161C476.215 267.007 476.028 266.859 475.763 266.718C475.498 266.572 475.132 266.414 474.665 266.242C474.202 266.065 473.8 265.891 473.461 265.719C473.125 265.543 472.865 265.329 472.68 265.077C472.499 264.826 472.409 264.499 472.409 264.098C472.409 263.485 472.656 263.015 473.15 262.689C473.648 262.358 474.301 262.193 475.108 262.193C475.545 262.193 475.953 262.237 476.332 262.325C476.716 262.409 477.073 262.524 477.404 262.669L477.033 263.549C476.733 263.421 476.414 263.313 476.074 263.225C475.734 263.137 475.388 263.092 475.035 263.092C474.528 263.092 474.138 263.176 473.864 263.344C473.595 263.512 473.461 263.741 473.461 264.032C473.461 264.257 473.522 264.442 473.646 264.588C473.774 264.733 473.977 264.87 474.255 264.998C474.532 265.126 474.898 265.276 475.353 265.448C475.807 265.615 476.2 265.79 476.53 265.97C476.861 266.147 477.115 266.363 477.291 266.619C477.472 266.87 477.562 267.194 477.562 267.591Z" fill="#101E37"/>
<rect x="245.689" y="317.738" width="121" height="40" rx="8" fill="#336ACC"/>
</g>
<rect x="1" y="1" width="726" height="347" rx="7" stroke="#E6EBF0" stroke-width="2"/>
<defs>
<clipPath id="clip0_3493_3572">
<rect width="728" height="349" rx="8" fill="white"/>
</clipPath>
</defs>
</svg>
