<svg width="728" height="158" viewBox="0 0 728 158" fill="none" xmlns="http://www.w3.org/2000/svg">
<rect x="1" y="1" width="726" height="155.246" rx="7" fill="#F3F6F9"/>
<rect x="1" y="1" width="726" height="155.246" rx="7" stroke="#E6EBF0" stroke-width="2"/>
<path d="M151.653 77.9014C150.555 77.9014 149.687 78.2682 149.049 79.002C148.415 79.7311 148.099 80.7314 148.099 82.0029C148.099 83.3109 148.404 84.3226 149.015 85.0381C149.63 85.749 150.505 86.1045 151.64 86.1045C152.337 86.1045 153.132 85.9792 154.025 85.7285V86.7471C153.333 87.0068 152.478 87.1367 151.462 87.1367C149.99 87.1367 148.853 86.6901 148.051 85.7969C147.253 84.9036 146.854 83.6344 146.854 81.9893C146.854 80.9593 147.046 80.057 147.429 79.2822C147.816 78.5075 148.372 77.9105 149.097 77.4912C149.826 77.0719 150.683 76.8623 151.667 76.8623C152.715 76.8623 153.631 77.0537 154.415 77.4365L153.923 78.4346C153.166 78.0791 152.41 77.9014 151.653 77.9014ZM161.162 87V82.1533C161.162 81.5426 161.023 81.0869 160.745 80.7861C160.467 80.4854 160.032 80.335 159.439 80.335C158.651 80.335 158.075 80.5492 157.71 80.9775C157.35 81.4059 157.17 82.1077 157.17 83.083V87H156.035V76.3633H157.17V79.583C157.17 79.9704 157.152 80.2917 157.115 80.5469H157.184C157.407 80.1868 157.724 79.9043 158.134 79.6992C158.549 79.4896 159.02 79.3848 159.549 79.3848C160.465 79.3848 161.151 79.6035 161.606 80.041C162.067 80.474 162.297 81.1644 162.297 82.1123V87H161.162ZM167.8 87.1367C166.692 87.1367 165.817 86.7995 165.175 86.125C164.537 85.4505 164.218 84.514 164.218 83.3154C164.218 82.1077 164.514 81.1484 165.106 80.4375C165.703 79.7266 166.503 79.3711 167.506 79.3711C168.445 79.3711 169.188 79.681 169.734 80.3008C170.281 80.916 170.555 81.7295 170.555 82.7412V83.459H165.394C165.416 84.3385 165.637 85.0062 166.057 85.4619C166.48 85.9176 167.075 86.1455 167.841 86.1455C168.647 86.1455 169.445 85.9769 170.233 85.6396V86.6514C169.832 86.8245 169.452 86.9476 169.092 87.0205C168.736 87.098 168.306 87.1367 167.8 87.1367ZM167.492 80.3213C166.891 80.3213 166.41 80.5173 166.05 80.9092C165.694 81.3011 165.485 81.8434 165.421 82.5361H169.338C169.338 81.8206 169.178 81.2738 168.859 80.8955C168.54 80.5127 168.085 80.3213 167.492 80.3213ZM175.49 87.1367C174.406 87.1367 173.565 86.804 172.968 86.1387C172.375 85.4688 172.079 84.5231 172.079 83.3018C172.079 82.0485 172.38 81.0801 172.981 80.3965C173.588 79.7129 174.449 79.3711 175.565 79.3711C175.925 79.3711 176.285 79.4098 176.646 79.4873C177.006 79.5648 177.288 79.6559 177.493 79.7607L177.145 80.7246C176.894 80.6243 176.62 80.5423 176.324 80.4785C176.028 80.4102 175.766 80.376 175.538 80.376C174.016 80.376 173.255 81.3467 173.255 83.2881C173.255 84.2087 173.439 84.915 173.809 85.4072C174.182 85.8994 174.734 86.1455 175.463 86.1455C176.087 86.1455 176.728 86.0111 177.384 85.7422V86.7471C176.882 87.0068 176.251 87.1367 175.49 87.1367ZM180.289 83.165C180.485 82.887 180.784 82.5225 181.185 82.0713L183.604 79.5078H184.951L181.916 82.7002L185.163 87H183.789L181.144 83.459L180.289 84.1973V87H179.168V76.3633H180.289V82.0029C180.289 82.2536 180.271 82.641 180.234 83.165H180.289ZM190.01 79.3848C190.994 79.3848 191.757 79.722 192.3 80.3965C192.847 81.0664 193.12 82.0166 193.12 83.2471C193.12 84.4775 192.844 85.4346 192.293 86.1182C191.746 86.7972 190.985 87.1367 190.01 87.1367C189.522 87.1367 189.076 87.0479 188.67 86.8701C188.269 86.6878 187.932 86.4098 187.658 86.0361H187.576L187.337 87H186.523V76.3633H187.658V78.9473C187.658 79.526 187.64 80.0456 187.604 80.5059H187.658C188.187 79.7585 188.971 79.3848 190.01 79.3848ZM189.846 80.335C189.071 80.335 188.513 80.5583 188.171 81.0049C187.829 81.4469 187.658 82.1943 187.658 83.2471C187.658 84.2998 187.834 85.054 188.185 85.5098C188.535 85.9609 189.098 86.1865 189.873 86.1865C190.57 86.1865 191.09 85.9336 191.432 85.4277C191.773 84.9173 191.944 84.1859 191.944 83.2334C191.944 82.2581 191.773 81.5312 191.432 81.0527C191.09 80.5742 190.561 80.335 189.846 80.335ZM201.576 83.2471C201.576 84.4684 201.269 85.4232 200.653 86.1113C200.038 86.7949 199.188 87.1367 198.104 87.1367C197.434 87.1367 196.839 86.9795 196.319 86.665C195.8 86.3506 195.399 85.8994 195.116 85.3115C194.834 84.7236 194.692 84.0355 194.692 83.2471C194.692 82.0257 194.998 81.0755 195.608 80.3965C196.219 79.7129 197.067 79.3711 198.151 79.3711C199.2 79.3711 200.031 79.7197 200.646 80.417C201.266 81.1143 201.576 82.0576 201.576 83.2471ZM195.868 83.2471C195.868 84.2041 196.06 84.9333 196.442 85.4346C196.825 85.9359 197.388 86.1865 198.131 86.1865C198.874 86.1865 199.437 85.9382 199.819 85.4414C200.207 84.9401 200.4 84.2087 200.4 83.2471C200.4 82.2946 200.207 81.5723 199.819 81.0801C199.437 80.5833 198.869 80.335 198.117 80.335C197.374 80.335 196.814 80.5788 196.436 81.0664C196.057 81.554 195.868 82.2809 195.868 83.2471ZM205.377 83.165L202.772 79.5078H204.064L206.04 82.3789L208.009 79.5078H209.287L206.683 83.165L209.424 87H208.139L206.04 83.9648L203.921 87H202.636L205.377 83.165Z" fill="#101E37"/>
<path d="M274.653 82C274.653 83.296 275.704 84.3467 277 84.3467C278.296 84.3467 279.347 83.296 279.347 82C279.347 80.704 278.296 79.6533 277 79.6533C275.704 79.6533 274.653 80.704 274.653 82ZM222 81.56C221.757 81.56 221.56 81.757 221.56 82C221.56 82.243 221.757 82.44 222 82.44L222 81.56ZM277 82L277 81.56L249.5 81.56L249.5 82L249.5 82.44L277 82.44L277 82ZM249.5 82L249.5 81.56L222 81.56L222 82L222 82.44L249.5 82.44L249.5 82Z" fill="#080F1C"/>
<path d="M461.347 82C461.347 80.704 460.296 79.6533 459 79.6533C457.704 79.6533 456.653 80.704 456.653 82C456.653 83.296 457.704 84.3467 459 84.3467C460.296 84.3467 461.347 83.296 461.347 82ZM514 82.44C514.243 82.44 514.44 82.243 514.44 82C514.44 81.757 514.243 81.56 514 81.56L514 82.44ZM459 82L459 82.44L486.5 82.44L486.5 82L486.5 81.56L459 81.56L459 82ZM486.5 82L486.5 82.44L514 82.44L514 82L514 81.56L486.5 81.56L486.5 82Z" fill="#080F1C"/>
<path d="M532.945 87H527.374V77.0059H532.945V78.0381H528.536V81.2578H532.679V82.2832H528.536V85.9609H532.945V87ZM537.416 86.2002C537.617 86.2002 537.81 86.1865 537.997 86.1592C538.184 86.1273 538.332 86.0954 538.441 86.0635V86.9316C538.318 86.9909 538.136 87.0387 537.895 87.0752C537.658 87.1162 537.443 87.1367 537.252 87.1367C535.803 87.1367 535.078 86.3734 535.078 84.8467V80.3896H534.005V79.8428L535.078 79.3711L535.557 77.7715H536.213V79.5078H538.387V80.3896H536.213V84.7988C536.213 85.25 536.32 85.5964 536.534 85.8379C536.748 86.0794 537.042 86.2002 537.416 86.2002ZM541.08 87H539.945V79.5078H541.08V87ZM539.85 77.4775C539.85 77.2178 539.913 77.0286 540.041 76.9102C540.169 76.7871 540.328 76.7256 540.52 76.7256C540.702 76.7256 540.859 76.7871 540.991 76.9102C541.123 77.0332 541.189 77.2223 541.189 77.4775C541.189 77.7327 541.123 77.9242 540.991 78.0518C540.859 78.1748 540.702 78.2363 540.52 78.2363C540.328 78.2363 540.169 78.1748 540.041 78.0518C539.913 77.9242 539.85 77.7327 539.85 77.4775ZM546.316 86.1865C547.073 86.1865 547.624 85.9837 547.971 85.5781C548.317 85.1725 548.502 84.4889 548.524 83.5273V83.2744C548.524 82.2262 548.347 81.472 547.991 81.0117C547.636 80.5514 547.073 80.3213 546.303 80.3213C545.637 80.3213 545.127 80.5811 544.771 81.1006C544.421 81.6156 544.245 82.3447 544.245 83.2881C544.245 84.2314 544.418 84.9515 544.765 85.4482C545.116 85.9404 545.633 86.1865 546.316 86.1865ZM546.146 87.1367C545.179 87.1367 544.425 86.7972 543.883 86.1182C543.34 85.4391 543.069 84.4912 543.069 83.2744C543.069 82.0485 543.343 81.0915 543.89 80.4033C544.437 79.7152 545.198 79.3711 546.173 79.3711C547.198 79.3711 547.987 79.7585 548.538 80.5332H548.6L548.764 79.5078H549.659V90.3633H548.524V87.1572C548.524 86.7015 548.549 86.3141 548.6 85.9951H548.511C547.987 86.7562 547.198 87.1367 546.146 87.1367ZM553.139 79.5078V84.3682C553.139 84.9788 553.278 85.4346 553.556 85.7354C553.834 86.0361 554.269 86.1865 554.861 86.1865C555.645 86.1865 556.217 85.9723 556.577 85.5439C556.942 85.1156 557.124 84.416 557.124 83.4453V79.5078H558.259V87H557.322L557.158 85.9951H557.097C556.864 86.3643 556.541 86.6468 556.126 86.8428C555.716 87.0387 555.246 87.1367 554.718 87.1367C553.806 87.1367 553.123 86.9202 552.667 86.4873C552.216 86.0544 551.99 85.3617 551.99 84.4092V79.5078H553.139ZM563.837 87.1367C562.729 87.1367 561.854 86.7995 561.212 86.125C560.574 85.4505 560.255 84.514 560.255 83.3154C560.255 82.1077 560.551 81.1484 561.144 80.4375C561.741 79.7266 562.54 79.3711 563.543 79.3711C564.482 79.3711 565.225 79.681 565.771 80.3008C566.318 80.916 566.592 81.7295 566.592 82.7412V83.459H561.431C561.453 84.3385 561.674 85.0062 562.094 85.4619C562.518 85.9176 563.112 86.1455 563.878 86.1455C564.685 86.1455 565.482 85.9769 566.271 85.6396V86.6514C565.869 86.8245 565.489 86.9476 565.129 87.0205C564.773 87.098 564.343 87.1367 563.837 87.1367ZM563.529 80.3213C562.928 80.3213 562.447 80.5173 562.087 80.9092C561.731 81.3011 561.522 81.8434 561.458 82.5361H565.375C565.375 81.8206 565.215 81.2738 564.896 80.8955C564.577 80.5127 564.122 80.3213 563.529 80.3213ZM570.953 86.2002C571.154 86.2002 571.347 86.1865 571.534 86.1592C571.721 86.1273 571.869 86.0954 571.979 86.0635V86.9316C571.855 86.9909 571.673 87.0387 571.432 87.0752C571.195 87.1162 570.98 87.1367 570.789 87.1367C569.34 87.1367 568.615 86.3734 568.615 84.8467V80.3896H567.542V79.8428L568.615 79.3711L569.094 77.7715H569.75V79.5078H571.924V80.3896H569.75V84.7988C569.75 85.25 569.857 85.5964 570.071 85.8379C570.285 86.0794 570.579 86.2002 570.953 86.2002ZM578.09 87L577.864 85.9336H577.81C577.436 86.403 577.062 86.722 576.688 86.8906C576.319 87.0547 575.857 87.1367 575.301 87.1367C574.558 87.1367 573.975 86.9453 573.551 86.5625C573.132 86.1797 572.922 85.6351 572.922 84.9287C572.922 83.4157 574.132 82.6227 576.552 82.5498L577.823 82.5088V82.0439C577.823 81.4561 577.696 81.0231 577.44 80.7451C577.19 80.4626 576.786 80.3213 576.23 80.3213C575.606 80.3213 574.9 80.5127 574.111 80.8955L573.763 80.0273C574.132 79.8268 574.535 79.6696 574.973 79.5557C575.415 79.4417 575.857 79.3848 576.299 79.3848C577.192 79.3848 577.853 79.583 578.281 79.9795C578.714 80.376 578.931 81.0117 578.931 81.8867V87H578.09ZM575.526 86.2002C576.233 86.2002 576.786 86.0065 577.188 85.6191C577.593 85.2318 577.796 84.6895 577.796 83.9922V83.3154L576.661 83.3633C575.759 83.3952 575.107 83.5365 574.706 83.7871C574.31 84.0332 574.111 84.4183 574.111 84.9424C574.111 85.3525 574.234 85.6647 574.48 85.8789C574.731 86.0931 575.08 86.2002 575.526 86.2002Z" fill="#101E37"/>
<rect x="296.331" y="61.6385" width="33.3385" height="33.3385" rx="4.54615" fill="white"/>
<rect x="296.331" y="61.6385" width="33.3385" height="33.3385" rx="4.54615" stroke="#101E37" stroke-width="3.03077"/>
<path d="M359.172 79.4451C359.172 80.779 359.002 81.9945 358.663 83.0915C358.324 84.1807 357.818 85.1199 357.148 85.9092C356.485 86.6906 355.66 87.2944 354.673 87.7206C353.687 88.1468 352.542 88.3599 351.24 88.3599C349.898 88.3599 348.726 88.1468 347.724 87.7206C346.729 87.2944 345.901 86.6866 345.238 85.8974C344.583 85.1081 344.089 84.1649 343.758 83.0678C343.434 81.9708 343.272 80.7553 343.272 79.4215C343.272 77.6535 343.564 76.1026 344.148 74.7687C344.732 73.4349 345.616 72.397 346.8 71.6551C347.992 70.9132 349.484 70.5422 351.275 70.5422C352.988 70.5422 354.429 70.9093 355.597 71.6433C356.773 72.3773 357.661 73.4112 358.26 74.7451C358.868 76.071 359.172 77.6377 359.172 79.4451ZM345.392 79.4451C345.392 80.9132 345.601 82.1839 346.019 83.2573C346.437 84.3307 347.077 85.1594 347.937 85.7434C348.805 86.3275 349.906 86.6195 351.24 86.6195C352.582 86.6195 353.679 86.3275 354.531 85.7434C355.391 85.1594 356.027 84.3307 356.437 83.2573C356.848 82.1839 357.053 80.9132 357.053 79.4451C357.053 77.2115 356.583 75.4672 355.644 74.2123C354.713 72.9495 353.257 72.3181 351.275 72.3181C349.934 72.3181 348.829 72.6062 347.961 73.1823C347.092 73.7585 346.445 74.5793 346.019 75.6448C345.601 76.7024 345.392 77.9692 345.392 79.4451ZM368.833 74.9108C370.451 74.9108 371.741 75.4672 372.704 76.5801C373.667 77.693 374.148 79.3662 374.148 81.5998C374.148 83.0757 373.927 84.3149 373.485 85.3172C373.043 86.3196 372.42 87.0773 371.615 87.5903C370.818 88.1033 369.874 88.3599 368.785 88.3599C368.099 88.3599 367.495 88.2691 366.974 88.0876C366.453 87.906 366.007 87.6614 365.636 87.3535C365.265 87.0457 364.957 86.7103 364.713 86.3472H364.571C364.594 86.655 364.622 87.026 364.653 87.4601C364.693 87.8942 364.713 88.273 364.713 88.5966V93.9242H362.736V75.1476H364.358L364.618 77.0655H364.713C364.965 76.6709 365.273 76.3118 365.636 75.9882C365.999 75.6567 366.441 75.3962 366.962 75.2068C367.491 75.0095 368.114 74.9108 368.833 74.9108ZM368.489 76.5683C367.59 76.5683 366.863 76.7419 366.311 77.0892C365.766 77.4365 365.368 77.9574 365.115 78.6519C364.863 79.3386 364.728 80.2028 364.713 81.2447V81.6235C364.713 82.7206 364.831 83.648 365.068 84.4056C365.313 85.1633 365.711 85.7395 366.264 86.1341C366.824 86.5288 367.574 86.7261 368.513 86.7261C369.318 86.7261 369.989 86.509 370.526 86.0749C371.062 85.6408 371.461 85.0371 371.721 84.2636C371.99 83.4822 372.124 82.5864 372.124 81.5761C372.124 80.045 371.824 78.8295 371.224 77.9297C370.632 77.0221 369.721 76.5683 368.489 76.5683ZM382.779 88.3599C381.611 88.3599 380.581 88.1191 379.689 87.6377C378.797 87.1562 378.103 86.4222 377.605 85.4356C377.108 84.4491 376.859 83.206 376.859 81.7064C376.859 80.1357 377.12 78.8532 377.641 77.8587C378.17 76.8564 378.896 76.1144 379.819 75.633C380.743 75.1515 381.792 74.9108 382.968 74.9108C383.616 74.9108 384.239 74.9779 384.839 75.1121C385.447 75.2384 385.944 75.4002 386.331 75.5975L385.739 77.2431C385.344 77.0852 384.886 76.9432 384.365 76.8169C383.852 76.6906 383.371 76.6275 382.921 76.6275C382.021 76.6275 381.271 76.8208 380.672 77.2076C380.08 77.5943 379.634 78.1626 379.334 78.9124C379.042 79.6622 378.896 80.5856 378.896 81.6827C378.896 82.7324 379.038 83.6282 379.322 84.3701C379.614 85.112 380.044 85.6803 380.612 86.0749C381.189 86.4617 381.907 86.655 382.767 86.655C383.454 86.655 384.073 86.584 384.626 86.4419C385.178 86.292 385.679 86.1183 386.129 85.921V87.6732C385.695 87.8942 385.21 88.0639 384.673 88.1823C384.144 88.3007 383.513 88.3599 382.779 88.3599ZM391.173 75.1476V88.1231H389.207V75.1476H391.173ZM390.214 70.2936C390.537 70.2936 390.814 70.4002 391.042 70.6133C391.279 70.8185 391.398 71.1421 391.398 71.5841C391.398 72.0182 391.279 72.3418 391.042 72.5549C390.814 72.768 390.537 72.8745 390.214 72.8745C389.874 72.8745 389.59 72.768 389.361 72.5549C389.14 72.3418 389.03 72.0182 389.03 71.5841C389.03 71.1421 389.14 70.8185 389.361 70.6133C389.59 70.4002 389.874 70.2936 390.214 70.2936ZM406.528 81.6117C406.528 82.6772 406.39 83.6282 406.113 84.4648C405.837 85.3015 405.439 86.0079 404.918 86.584C404.397 87.1602 403.765 87.6022 403.023 87.91C402.289 88.2099 401.457 88.3599 400.525 88.3599C399.657 88.3599 398.86 88.2099 398.134 87.91C397.416 87.6022 396.792 87.1602 396.263 86.584C395.743 86.0079 395.336 85.3015 395.044 84.4648C394.76 83.6282 394.618 82.6772 394.618 81.6117C394.618 80.191 394.859 78.9834 395.34 77.9889C395.821 76.9866 396.508 76.2249 397.4 75.704C398.3 75.1752 399.369 74.9108 400.608 74.9108C401.792 74.9108 402.826 75.1752 403.71 75.704C404.602 76.2328 405.293 76.9984 405.782 78.0008C406.279 78.9953 406.528 80.1989 406.528 81.6117ZM396.654 81.6117C396.654 82.6535 396.792 83.5572 397.069 84.3228C397.345 85.0884 397.771 85.6803 398.347 86.0986C398.923 86.5169 399.665 86.7261 400.573 86.7261C401.473 86.7261 402.211 86.5169 402.787 86.0986C403.371 85.6803 403.801 85.0884 404.077 84.3228C404.353 83.5572 404.492 82.6535 404.492 81.6117C404.492 80.5777 404.353 79.6859 404.077 78.9361C403.801 78.1784 403.375 77.5943 402.799 77.1839C402.222 76.7735 401.477 76.5683 400.561 76.5683C399.211 76.5683 398.221 77.0142 397.589 77.9061C396.966 78.7979 396.654 80.0331 396.654 81.6117ZM416.07 74.9108C417.609 74.9108 418.773 75.2897 419.562 76.0474C420.352 76.7972 420.746 78.0047 420.746 79.6701V88.1231H418.805V79.8003C418.805 78.719 418.556 77.91 418.059 77.3733C417.57 76.8366 416.816 76.5683 415.798 76.5683C414.361 76.5683 413.351 76.9747 412.767 77.7877C412.183 78.6006 411.891 79.7806 411.891 81.3275V88.1231H409.926V75.1476H411.512L411.808 77.0181H411.915C412.191 76.5604 412.542 76.1776 412.968 75.8698C413.394 75.5541 413.872 75.3173 414.401 75.1594C414.93 74.9937 415.486 74.9108 416.07 74.9108ZM437.534 88.1231H435.616V75.8579C435.616 75.3923 435.616 74.9937 435.616 74.6622C435.624 74.3228 435.632 74.015 435.64 73.7388C435.656 73.4546 435.675 73.1665 435.699 72.8745C435.454 73.1271 435.225 73.3441 435.012 73.5257C434.799 73.6993 434.535 73.9163 434.219 74.1768L432.242 75.7632L431.212 74.4254L435.9 70.8145H437.534V88.1231Z" fill="#101E37"/>
</svg>
