<svg width="348" height="177" viewBox="0 0 348 177" fill="none" xmlns="http://www.w3.org/2000/svg">
<rect x="1" y="1" width="346" height="175" rx="7" fill="white"/>
<rect x="1" y="1" width="346" height="175" rx="7" stroke="#E6EBF0" stroke-width="2"/>
<rect x="66" y="56.5" width="148" height="16" rx="4.27" fill="#E6EBF0"/>
<rect x="74" y="89.5" width="22" height="22" rx="3" fill="white"/>
<rect x="74" y="89.5" width="22" height="22" rx="3" stroke="#101E37" stroke-width="2"/>
<path d="M111.922 106.5H105.562V95.0781H111.922V96.25H106.891V99.9453H111.633V101.102H106.891V105.328H111.922V106.5ZM117.023 105.594C117.237 105.594 117.456 105.576 117.68 105.539C117.904 105.503 118.086 105.458 118.227 105.406V106.414C118.076 106.482 117.865 106.539 117.594 106.586C117.328 106.633 117.068 106.656 116.812 106.656C116.359 106.656 115.948 106.578 115.578 106.422C115.208 106.26 114.911 105.99 114.688 105.609C114.469 105.229 114.359 104.703 114.359 104.031V98.9531H113.141V98.3203L114.367 97.8125L114.883 95.9531H115.664V97.9375H118.172V98.9531H115.664V103.992C115.664 104.529 115.786 104.93 116.031 105.195C116.281 105.461 116.612 105.594 117.023 105.594ZM121.258 97.9375V106.5H119.961V97.9375H121.258ZM120.625 94.7344C120.839 94.7344 121.021 94.8047 121.172 94.9453C121.328 95.0807 121.406 95.2943 121.406 95.5859C121.406 95.8724 121.328 96.0859 121.172 96.2266C121.021 96.3672 120.839 96.4375 120.625 96.4375C120.401 96.4375 120.214 96.3672 120.062 96.2266C119.917 96.0859 119.844 95.8724 119.844 95.5859C119.844 95.2943 119.917 95.0807 120.062 94.9453C120.214 94.8047 120.401 94.7344 120.625 94.7344ZM129.75 110.328V106.656C129.75 106.453 129.755 106.219 129.766 105.953C129.776 105.688 129.794 105.458 129.82 105.266H129.734C129.495 105.661 129.154 105.992 128.711 106.258C128.268 106.523 127.698 106.656 127 106.656C125.953 106.656 125.112 106.286 124.477 105.547C123.841 104.807 123.523 103.703 123.523 102.234C123.523 101.271 123.669 100.458 123.961 99.7969C124.253 99.1354 124.664 98.6354 125.195 98.2969C125.732 97.9531 126.357 97.7812 127.07 97.7812C127.753 97.7812 128.31 97.9167 128.742 98.1875C129.174 98.4531 129.513 98.7786 129.758 99.1641H129.82L130.016 97.9375H131.047V110.328H129.75ZM127.242 105.578C127.846 105.578 128.331 105.466 128.695 105.242C129.06 105.013 129.326 104.669 129.492 104.211C129.664 103.753 129.755 103.182 129.766 102.5V102.227C129.766 101.122 129.578 100.286 129.203 99.7188C128.828 99.1458 128.174 98.8594 127.242 98.8594C126.44 98.8594 125.844 99.1667 125.453 99.7812C125.062 100.391 124.867 101.219 124.867 102.266C124.867 103.312 125.062 104.128 125.453 104.711C125.844 105.289 126.44 105.578 127.242 105.578ZM140.875 97.9375V106.5H139.812L139.625 105.297H139.555C139.378 105.594 139.148 105.844 138.867 106.047C138.586 106.25 138.268 106.401 137.914 106.5C137.565 106.604 137.193 106.656 136.797 106.656C136.12 106.656 135.552 106.547 135.094 106.328C134.635 106.109 134.289 105.771 134.055 105.312C133.826 104.854 133.711 104.266 133.711 103.547V97.9375H135.023V103.453C135.023 104.167 135.185 104.701 135.508 105.055C135.831 105.404 136.323 105.578 136.984 105.578C137.62 105.578 138.125 105.458 138.5 105.219C138.88 104.979 139.154 104.628 139.32 104.164C139.487 103.695 139.57 103.122 139.57 102.445V97.9375H140.875ZM146.914 97.7812C147.643 97.7812 148.268 97.9427 148.789 98.2656C149.31 98.5885 149.708 99.0417 149.984 99.625C150.26 100.203 150.398 100.88 150.398 101.656V102.461H144.484C144.5 103.466 144.75 104.232 145.234 104.758C145.719 105.284 146.401 105.547 147.281 105.547C147.823 105.547 148.302 105.497 148.719 105.398C149.135 105.299 149.568 105.154 150.016 104.961V106.102C149.583 106.294 149.154 106.435 148.727 106.523C148.305 106.612 147.805 106.656 147.227 106.656C146.404 106.656 145.685 106.49 145.07 106.156C144.461 105.818 143.987 105.323 143.648 104.672C143.31 104.021 143.141 103.224 143.141 102.281C143.141 101.359 143.294 100.562 143.602 99.8906C143.914 99.2135 144.352 98.6927 144.914 98.3281C145.482 97.9635 146.148 97.7812 146.914 97.7812ZM146.898 98.8438C146.206 98.8438 145.654 99.0703 145.242 99.5234C144.831 99.9766 144.586 100.609 144.508 101.422H149.039C149.034 100.911 148.953 100.464 148.797 100.078C148.646 99.6875 148.414 99.3854 148.102 99.1719C147.789 98.9531 147.388 98.8438 146.898 98.8438ZM155.367 105.594C155.581 105.594 155.799 105.576 156.023 105.539C156.247 105.503 156.43 105.458 156.57 105.406V106.414C156.419 106.482 156.208 106.539 155.938 106.586C155.672 106.633 155.411 106.656 155.156 106.656C154.703 106.656 154.292 106.578 153.922 106.422C153.552 106.26 153.255 105.99 153.031 105.609C152.812 105.229 152.703 104.703 152.703 104.031V98.9531H151.484V98.3203L152.711 97.8125L153.227 95.9531H154.008V97.9375H156.516V98.9531H154.008V103.992C154.008 104.529 154.13 104.93 154.375 105.195C154.625 105.461 154.956 105.594 155.367 105.594ZM161.508 97.7969C162.529 97.7969 163.286 98.026 163.781 98.4844C164.276 98.9427 164.523 99.6745 164.523 100.68V106.5H163.578L163.328 105.234H163.266C163.026 105.547 162.776 105.81 162.516 106.023C162.255 106.232 161.953 106.391 161.609 106.5C161.271 106.604 160.854 106.656 160.359 106.656C159.839 106.656 159.375 106.565 158.969 106.383C158.568 106.201 158.25 105.924 158.016 105.555C157.786 105.185 157.672 104.716 157.672 104.148C157.672 103.294 158.01 102.638 158.688 102.18C159.365 101.721 160.396 101.471 161.781 101.43L163.258 101.367V100.844C163.258 100.104 163.099 99.5859 162.781 99.2891C162.464 98.9922 162.016 98.8438 161.438 98.8438C160.99 98.8438 160.562 98.9089 160.156 99.0391C159.75 99.1693 159.365 99.3229 159 99.5L158.602 98.5156C158.987 98.3177 159.43 98.1484 159.93 98.0078C160.43 97.8672 160.956 97.7969 161.508 97.7969ZM163.242 102.281L161.938 102.336C160.87 102.378 160.117 102.552 159.68 102.859C159.242 103.167 159.023 103.602 159.023 104.164C159.023 104.654 159.172 105.016 159.469 105.25C159.766 105.484 160.159 105.602 160.648 105.602C161.409 105.602 162.031 105.391 162.516 104.969C163 104.547 163.242 103.914 163.242 103.07V102.281Z" fill="#101E37"/>
<rect x="182" y="89.5" width="22" height="22" rx="3" fill="white"/>
<rect x="182" y="89.5" width="22" height="22" rx="3" stroke="#101E37" stroke-width="2"/>
<path d="M219.922 106.5H213.562V95.0781H219.922V96.25H214.891V99.9453H219.633V101.102H214.891V105.328H219.922V106.5ZM225.023 105.594C225.237 105.594 225.456 105.576 225.68 105.539C225.904 105.503 226.086 105.458 226.227 105.406V106.414C226.076 106.482 225.865 106.539 225.594 106.586C225.328 106.633 225.068 106.656 224.812 106.656C224.359 106.656 223.948 106.578 223.578 106.422C223.208 106.26 222.911 105.99 222.688 105.609C222.469 105.229 222.359 104.703 222.359 104.031V98.9531H221.141V98.3203L222.367 97.8125L222.883 95.9531H223.664V97.9375H226.172V98.9531H223.664V103.992C223.664 104.529 223.786 104.93 224.031 105.195C224.281 105.461 224.612 105.594 225.023 105.594ZM229.258 97.9375V106.5H227.961V97.9375H229.258ZM228.625 94.7344C228.839 94.7344 229.021 94.8047 229.172 94.9453C229.328 95.0807 229.406 95.2943 229.406 95.5859C229.406 95.8724 229.328 96.0859 229.172 96.2266C229.021 96.3672 228.839 96.4375 228.625 96.4375C228.401 96.4375 228.214 96.3672 228.062 96.2266C227.917 96.0859 227.844 95.8724 227.844 95.5859C227.844 95.2943 227.917 95.0807 228.062 94.9453C228.214 94.8047 228.401 94.7344 228.625 94.7344ZM237.75 110.328V106.656C237.75 106.453 237.755 106.219 237.766 105.953C237.776 105.688 237.794 105.458 237.82 105.266H237.734C237.495 105.661 237.154 105.992 236.711 106.258C236.268 106.523 235.698 106.656 235 106.656C233.953 106.656 233.112 106.286 232.477 105.547C231.841 104.807 231.523 103.703 231.523 102.234C231.523 101.271 231.669 100.458 231.961 99.7969C232.253 99.1354 232.664 98.6354 233.195 98.2969C233.732 97.9531 234.357 97.7812 235.07 97.7812C235.753 97.7812 236.31 97.9167 236.742 98.1875C237.174 98.4531 237.513 98.7786 237.758 99.1641H237.82L238.016 97.9375H239.047V110.328H237.75ZM235.242 105.578C235.846 105.578 236.331 105.466 236.695 105.242C237.06 105.013 237.326 104.669 237.492 104.211C237.664 103.753 237.755 103.182 237.766 102.5V102.227C237.766 101.122 237.578 100.286 237.203 99.7188C236.828 99.1458 236.174 98.8594 235.242 98.8594C234.44 98.8594 233.844 99.1667 233.453 99.7812C233.062 100.391 232.867 101.219 232.867 102.266C232.867 103.312 233.062 104.128 233.453 104.711C233.844 105.289 234.44 105.578 235.242 105.578ZM248.875 97.9375V106.5H247.812L247.625 105.297H247.555C247.378 105.594 247.148 105.844 246.867 106.047C246.586 106.25 246.268 106.401 245.914 106.5C245.565 106.604 245.193 106.656 244.797 106.656C244.12 106.656 243.552 106.547 243.094 106.328C242.635 106.109 242.289 105.771 242.055 105.312C241.826 104.854 241.711 104.266 241.711 103.547V97.9375H243.023V103.453C243.023 104.167 243.185 104.701 243.508 105.055C243.831 105.404 244.323 105.578 244.984 105.578C245.62 105.578 246.125 105.458 246.5 105.219C246.88 104.979 247.154 104.628 247.32 104.164C247.487 103.695 247.57 103.122 247.57 102.445V97.9375H248.875ZM254.914 97.7812C255.643 97.7812 256.268 97.9427 256.789 98.2656C257.31 98.5885 257.708 99.0417 257.984 99.625C258.26 100.203 258.398 100.88 258.398 101.656V102.461H252.484C252.5 103.466 252.75 104.232 253.234 104.758C253.719 105.284 254.401 105.547 255.281 105.547C255.823 105.547 256.302 105.497 256.719 105.398C257.135 105.299 257.568 105.154 258.016 104.961V106.102C257.583 106.294 257.154 106.435 256.727 106.523C256.305 106.612 255.805 106.656 255.227 106.656C254.404 106.656 253.685 106.49 253.07 106.156C252.461 105.818 251.987 105.323 251.648 104.672C251.31 104.021 251.141 103.224 251.141 102.281C251.141 101.359 251.294 100.562 251.602 99.8906C251.914 99.2135 252.352 98.6927 252.914 98.3281C253.482 97.9635 254.148 97.7812 254.914 97.7812ZM254.898 98.8438C254.206 98.8438 253.654 99.0703 253.242 99.5234C252.831 99.9766 252.586 100.609 252.508 101.422H257.039C257.034 100.911 256.953 100.464 256.797 100.078C256.646 99.6875 256.414 99.3854 256.102 99.1719C255.789 98.9531 255.388 98.8438 254.898 98.8438ZM263.367 105.594C263.581 105.594 263.799 105.576 264.023 105.539C264.247 105.503 264.43 105.458 264.57 105.406V106.414C264.419 106.482 264.208 106.539 263.938 106.586C263.672 106.633 263.411 106.656 263.156 106.656C262.703 106.656 262.292 106.578 261.922 106.422C261.552 106.26 261.255 105.99 261.031 105.609C260.812 105.229 260.703 104.703 260.703 104.031V98.9531H259.484V98.3203L260.711 97.8125L261.227 95.9531H262.008V97.9375H264.516V98.9531H262.008V103.992C262.008 104.529 262.13 104.93 262.375 105.195C262.625 105.461 262.956 105.594 263.367 105.594ZM269.508 97.7969C270.529 97.7969 271.286 98.026 271.781 98.4844C272.276 98.9427 272.523 99.6745 272.523 100.68V106.5H271.578L271.328 105.234H271.266C271.026 105.547 270.776 105.81 270.516 106.023C270.255 106.232 269.953 106.391 269.609 106.5C269.271 106.604 268.854 106.656 268.359 106.656C267.839 106.656 267.375 106.565 266.969 106.383C266.568 106.201 266.25 105.924 266.016 105.555C265.786 105.185 265.672 104.716 265.672 104.148C265.672 103.294 266.01 102.638 266.688 102.18C267.365 101.721 268.396 101.471 269.781 101.43L271.258 101.367V100.844C271.258 100.104 271.099 99.5859 270.781 99.2891C270.464 98.9922 270.016 98.8438 269.438 98.8438C268.99 98.8438 268.562 98.9089 268.156 99.0391C267.75 99.1693 267.365 99.3229 267 99.5L266.602 98.5156C266.987 98.3177 267.43 98.1484 267.93 98.0078C268.43 97.8672 268.956 97.7969 269.508 97.7969ZM271.242 102.281L269.938 102.336C268.87 102.378 268.117 102.552 267.68 102.859C267.242 103.167 267.023 103.602 267.023 104.164C267.023 104.654 267.172 105.016 267.469 105.25C267.766 105.484 268.159 105.602 268.648 105.602C269.409 105.602 270.031 105.391 270.516 104.969C271 104.547 271.242 103.914 271.242 103.07V102.281Z" fill="#101E37"/>
<path d="M54 122H294" stroke="#D366FF" stroke-width="2" stroke-linecap="round" stroke-dasharray="4 6"/>
</svg>
