<svg width="728" height="236" viewBox="0 0 728 236" fill="none" xmlns="http://www.w3.org/2000/svg">
<g clip-path="url(#clip0_3238_7097)">
<rect width="728" height="236" rx="8" fill="#F3F6F9"/>
<mask id="path-3-inside-1_3238_7097" fill="white">
<path d="M115.5 0H612.5V236H115.5V0Z"/>
</mask>
<path d="M115.5 0H612.5V236H115.5V0Z" fill="white"/>
<path d="M115.5 0V-2H113.5V0H115.5ZM612.5 0H614.5V-2H612.5V0ZM612.5 236V238H614.5V236H612.5ZM115.5 236H113.5V238H115.5V236ZM115.5 0V2H612.5V0V-2H115.5V0ZM612.5 0H610.5V236H612.5H614.5V0H612.5ZM612.5 236V234H115.5V236V238H612.5V236ZM115.5 236H117.5V0H115.5H113.5V236H115.5Z" fill="#E6EBF0" mask="url(#path-3-inside-1_3238_7097)"/>
<rect x="175.5" y="24" width="249.42" height="16" rx="8" fill="#E6EBF0"/>
<rect x="175.5" y="48" width="333" height="16" rx="6.69811" fill="#E6EBF0"/>
<rect x="183.5" y="85" width="22" height="22" rx="3" fill="white"/>
<rect x="183.5" y="85" width="22" height="22" rx="3" stroke="#101E37" stroke-width="2"/>
<path d="M221.422 102H215.062V90.5781H221.422V91.75H216.391V95.4453H221.133V96.6016H216.391V100.828H221.422V102ZM226.523 101.094C226.737 101.094 226.956 101.076 227.18 101.039C227.404 101.003 227.586 100.958 227.727 100.906V101.914C227.576 101.982 227.365 102.039 227.094 102.086C226.828 102.133 226.568 102.156 226.312 102.156C225.859 102.156 225.448 102.078 225.078 101.922C224.708 101.76 224.411 101.49 224.188 101.109C223.969 100.729 223.859 100.203 223.859 99.5312V94.4531H222.641V93.8203L223.867 93.3125L224.383 91.4531H225.164V93.4375H227.672V94.4531H225.164V99.4922C225.164 100.029 225.286 100.43 225.531 100.695C225.781 100.961 226.112 101.094 226.523 101.094ZM230.758 93.4375V102H229.461V93.4375H230.758ZM230.125 90.2344C230.339 90.2344 230.521 90.3047 230.672 90.4453C230.828 90.5807 230.906 90.7943 230.906 91.0859C230.906 91.3724 230.828 91.5859 230.672 91.7266C230.521 91.8672 230.339 91.9375 230.125 91.9375C229.901 91.9375 229.714 91.8672 229.562 91.7266C229.417 91.5859 229.344 91.3724 229.344 91.0859C229.344 90.7943 229.417 90.5807 229.562 90.4453C229.714 90.3047 229.901 90.2344 230.125 90.2344ZM239.25 105.828V102.156C239.25 101.953 239.255 101.719 239.266 101.453C239.276 101.188 239.294 100.958 239.32 100.766H239.234C238.995 101.161 238.654 101.492 238.211 101.758C237.768 102.023 237.198 102.156 236.5 102.156C235.453 102.156 234.612 101.786 233.977 101.047C233.341 100.307 233.023 99.2031 233.023 97.7344C233.023 96.7708 233.169 95.9583 233.461 95.2969C233.753 94.6354 234.164 94.1354 234.695 93.7969C235.232 93.4531 235.857 93.2812 236.57 93.2812C237.253 93.2812 237.81 93.4167 238.242 93.6875C238.674 93.9531 239.013 94.2786 239.258 94.6641H239.32L239.516 93.4375H240.547V105.828H239.25ZM236.742 101.078C237.346 101.078 237.831 100.966 238.195 100.742C238.56 100.513 238.826 100.169 238.992 99.7109C239.164 99.2526 239.255 98.6823 239.266 98V97.7266C239.266 96.6224 239.078 95.7865 238.703 95.2188C238.328 94.6458 237.674 94.3594 236.742 94.3594C235.94 94.3594 235.344 94.6667 234.953 95.2812C234.562 95.8906 234.367 96.7188 234.367 97.7656C234.367 98.8125 234.562 99.6276 234.953 100.211C235.344 100.789 235.94 101.078 236.742 101.078ZM250.375 93.4375V102H249.312L249.125 100.797H249.055C248.878 101.094 248.648 101.344 248.367 101.547C248.086 101.75 247.768 101.901 247.414 102C247.065 102.104 246.693 102.156 246.297 102.156C245.62 102.156 245.052 102.047 244.594 101.828C244.135 101.609 243.789 101.271 243.555 100.812C243.326 100.354 243.211 99.7656 243.211 99.0469V93.4375H244.523V98.9531C244.523 99.6667 244.685 100.201 245.008 100.555C245.331 100.904 245.823 101.078 246.484 101.078C247.12 101.078 247.625 100.958 248 100.719C248.38 100.479 248.654 100.128 248.82 99.6641C248.987 99.1953 249.07 98.6224 249.07 97.9453V93.4375H250.375ZM256.414 93.2812C257.143 93.2812 257.768 93.4427 258.289 93.7656C258.81 94.0885 259.208 94.5417 259.484 95.125C259.76 95.7031 259.898 96.3802 259.898 97.1562V97.9609H253.984C254 98.9661 254.25 99.7318 254.734 100.258C255.219 100.784 255.901 101.047 256.781 101.047C257.323 101.047 257.802 100.997 258.219 100.898C258.635 100.799 259.068 100.654 259.516 100.461V101.602C259.083 101.794 258.654 101.935 258.227 102.023C257.805 102.112 257.305 102.156 256.727 102.156C255.904 102.156 255.185 101.99 254.57 101.656C253.961 101.318 253.487 100.823 253.148 100.172C252.81 99.5208 252.641 98.724 252.641 97.7812C252.641 96.8594 252.794 96.0625 253.102 95.3906C253.414 94.7135 253.852 94.1927 254.414 93.8281C254.982 93.4635 255.648 93.2812 256.414 93.2812ZM256.398 94.3438C255.706 94.3438 255.154 94.5703 254.742 95.0234C254.331 95.4766 254.086 96.1094 254.008 96.9219H258.539C258.534 96.4115 258.453 95.9635 258.297 95.5781C258.146 95.1875 257.914 94.8854 257.602 94.6719C257.289 94.4531 256.888 94.3438 256.398 94.3438ZM264.867 101.094C265.081 101.094 265.299 101.076 265.523 101.039C265.747 101.003 265.93 100.958 266.07 100.906V101.914C265.919 101.982 265.708 102.039 265.438 102.086C265.172 102.133 264.911 102.156 264.656 102.156C264.203 102.156 263.792 102.078 263.422 101.922C263.052 101.76 262.755 101.49 262.531 101.109C262.312 100.729 262.203 100.203 262.203 99.5312V94.4531H260.984V93.8203L262.211 93.3125L262.727 91.4531H263.508V93.4375H266.016V94.4531H263.508V99.4922C263.508 100.029 263.63 100.43 263.875 100.695C264.125 100.961 264.456 101.094 264.867 101.094ZM271.008 93.2969C272.029 93.2969 272.786 93.526 273.281 93.9844C273.776 94.4427 274.023 95.1745 274.023 96.1797V102H273.078L272.828 100.734H272.766C272.526 101.047 272.276 101.31 272.016 101.523C271.755 101.732 271.453 101.891 271.109 102C270.771 102.104 270.354 102.156 269.859 102.156C269.339 102.156 268.875 102.065 268.469 101.883C268.068 101.701 267.75 101.424 267.516 101.055C267.286 100.685 267.172 100.216 267.172 99.6484C267.172 98.7943 267.51 98.138 268.188 97.6797C268.865 97.2214 269.896 96.9714 271.281 96.9297L272.758 96.8672V96.3438C272.758 95.6042 272.599 95.0859 272.281 94.7891C271.964 94.4922 271.516 94.3438 270.938 94.3438C270.49 94.3438 270.062 94.4089 269.656 94.5391C269.25 94.6693 268.865 94.8229 268.5 95L268.102 94.0156C268.487 93.8177 268.93 93.6484 269.43 93.5078C269.93 93.3672 270.456 93.2969 271.008 93.2969ZM272.742 97.7812L271.438 97.8359C270.37 97.8776 269.617 98.0521 269.18 98.3594C268.742 98.6667 268.523 99.1016 268.523 99.6641C268.523 100.154 268.672 100.516 268.969 100.75C269.266 100.984 269.659 101.102 270.148 101.102C270.909 101.102 271.531 100.891 272.016 100.469C272.5 100.047 272.742 99.4141 272.742 98.5703V97.7812Z" fill="#101E37"/>
<rect x="183.5" y="133" width="22" height="22" rx="3" fill="white"/>
<rect x="183.5" y="133" width="22" height="22" rx="3" stroke="#101E37" stroke-width="2"/>
<path d="M221.422 150H215.062V138.578H221.422V139.75H216.391V143.445H221.133V144.602H216.391V148.828H221.422V150ZM226.523 149.094C226.737 149.094 226.956 149.076 227.18 149.039C227.404 149.003 227.586 148.958 227.727 148.906V149.914C227.576 149.982 227.365 150.039 227.094 150.086C226.828 150.133 226.568 150.156 226.312 150.156C225.859 150.156 225.448 150.078 225.078 149.922C224.708 149.76 224.411 149.49 224.188 149.109C223.969 148.729 223.859 148.203 223.859 147.531V142.453H222.641V141.82L223.867 141.312L224.383 139.453H225.164V141.438H227.672V142.453H225.164V147.492C225.164 148.029 225.286 148.43 225.531 148.695C225.781 148.961 226.112 149.094 226.523 149.094ZM230.758 141.438V150H229.461V141.438H230.758ZM230.125 138.234C230.339 138.234 230.521 138.305 230.672 138.445C230.828 138.581 230.906 138.794 230.906 139.086C230.906 139.372 230.828 139.586 230.672 139.727C230.521 139.867 230.339 139.938 230.125 139.938C229.901 139.938 229.714 139.867 229.562 139.727C229.417 139.586 229.344 139.372 229.344 139.086C229.344 138.794 229.417 138.581 229.562 138.445C229.714 138.305 229.901 138.234 230.125 138.234ZM239.25 153.828V150.156C239.25 149.953 239.255 149.719 239.266 149.453C239.276 149.188 239.294 148.958 239.32 148.766H239.234C238.995 149.161 238.654 149.492 238.211 149.758C237.768 150.023 237.198 150.156 236.5 150.156C235.453 150.156 234.612 149.786 233.977 149.047C233.341 148.307 233.023 147.203 233.023 145.734C233.023 144.771 233.169 143.958 233.461 143.297C233.753 142.635 234.164 142.135 234.695 141.797C235.232 141.453 235.857 141.281 236.57 141.281C237.253 141.281 237.81 141.417 238.242 141.688C238.674 141.953 239.013 142.279 239.258 142.664H239.32L239.516 141.438H240.547V153.828H239.25ZM236.742 149.078C237.346 149.078 237.831 148.966 238.195 148.742C238.56 148.513 238.826 148.169 238.992 147.711C239.164 147.253 239.255 146.682 239.266 146V145.727C239.266 144.622 239.078 143.786 238.703 143.219C238.328 142.646 237.674 142.359 236.742 142.359C235.94 142.359 235.344 142.667 234.953 143.281C234.562 143.891 234.367 144.719 234.367 145.766C234.367 146.812 234.562 147.628 234.953 148.211C235.344 148.789 235.94 149.078 236.742 149.078ZM250.375 141.438V150H249.312L249.125 148.797H249.055C248.878 149.094 248.648 149.344 248.367 149.547C248.086 149.75 247.768 149.901 247.414 150C247.065 150.104 246.693 150.156 246.297 150.156C245.62 150.156 245.052 150.047 244.594 149.828C244.135 149.609 243.789 149.271 243.555 148.812C243.326 148.354 243.211 147.766 243.211 147.047V141.438H244.523V146.953C244.523 147.667 244.685 148.201 245.008 148.555C245.331 148.904 245.823 149.078 246.484 149.078C247.12 149.078 247.625 148.958 248 148.719C248.38 148.479 248.654 148.128 248.82 147.664C248.987 147.195 249.07 146.622 249.07 145.945V141.438H250.375ZM256.414 141.281C257.143 141.281 257.768 141.443 258.289 141.766C258.81 142.089 259.208 142.542 259.484 143.125C259.76 143.703 259.898 144.38 259.898 145.156V145.961H253.984C254 146.966 254.25 147.732 254.734 148.258C255.219 148.784 255.901 149.047 256.781 149.047C257.323 149.047 257.802 148.997 258.219 148.898C258.635 148.799 259.068 148.654 259.516 148.461V149.602C259.083 149.794 258.654 149.935 258.227 150.023C257.805 150.112 257.305 150.156 256.727 150.156C255.904 150.156 255.185 149.99 254.57 149.656C253.961 149.318 253.487 148.823 253.148 148.172C252.81 147.521 252.641 146.724 252.641 145.781C252.641 144.859 252.794 144.062 253.102 143.391C253.414 142.714 253.852 142.193 254.414 141.828C254.982 141.464 255.648 141.281 256.414 141.281ZM256.398 142.344C255.706 142.344 255.154 142.57 254.742 143.023C254.331 143.477 254.086 144.109 254.008 144.922H258.539C258.534 144.411 258.453 143.964 258.297 143.578C258.146 143.188 257.914 142.885 257.602 142.672C257.289 142.453 256.888 142.344 256.398 142.344ZM264.867 149.094C265.081 149.094 265.299 149.076 265.523 149.039C265.747 149.003 265.93 148.958 266.07 148.906V149.914C265.919 149.982 265.708 150.039 265.438 150.086C265.172 150.133 264.911 150.156 264.656 150.156C264.203 150.156 263.792 150.078 263.422 149.922C263.052 149.76 262.755 149.49 262.531 149.109C262.312 148.729 262.203 148.203 262.203 147.531V142.453H260.984V141.82L262.211 141.312L262.727 139.453H263.508V141.438H266.016V142.453H263.508V147.492C263.508 148.029 263.63 148.43 263.875 148.695C264.125 148.961 264.456 149.094 264.867 149.094ZM271.008 141.297C272.029 141.297 272.786 141.526 273.281 141.984C273.776 142.443 274.023 143.174 274.023 144.18V150H273.078L272.828 148.734H272.766C272.526 149.047 272.276 149.31 272.016 149.523C271.755 149.732 271.453 149.891 271.109 150C270.771 150.104 270.354 150.156 269.859 150.156C269.339 150.156 268.875 150.065 268.469 149.883C268.068 149.701 267.75 149.424 267.516 149.055C267.286 148.685 267.172 148.216 267.172 147.648C267.172 146.794 267.51 146.138 268.188 145.68C268.865 145.221 269.896 144.971 271.281 144.93L272.758 144.867V144.344C272.758 143.604 272.599 143.086 272.281 142.789C271.964 142.492 271.516 142.344 270.938 142.344C270.49 142.344 270.062 142.409 269.656 142.539C269.25 142.669 268.865 142.823 268.5 143L268.102 142.016C268.487 141.818 268.93 141.648 269.43 141.508C269.93 141.367 270.456 141.297 271.008 141.297ZM272.742 145.781L271.438 145.836C270.37 145.878 269.617 146.052 269.18 146.359C268.742 146.667 268.523 147.102 268.523 147.664C268.523 148.154 268.672 148.516 268.969 148.75C269.266 148.984 269.659 149.102 270.148 149.102C270.909 149.102 271.531 148.891 272.016 148.469C272.5 148.047 272.742 147.414 272.742 146.57V145.781Z" fill="#101E37"/>
<rect x="173.5" y="170" width="108" height="44" rx="10" stroke="#218274" stroke-width="4"/>
<rect x="182.5" y="180" width="24" height="24" rx="4" fill="#274986"/>
<path d="M192.096 194.906L189.494 192.304C189.201 192.011 188.729 192.011 188.436 192.304C188.144 192.596 188.144 193.069 188.436 193.361L191.571 196.496C191.864 196.789 192.336 196.789 192.629 196.496L200.564 188.561C200.856 188.269 200.856 187.796 200.564 187.504C200.271 187.211 199.799 187.211 199.506 187.504L192.096 194.906Z" fill="white"/>
<path d="M221.422 198H215.062V186.578H221.422V187.75H216.391V191.445H221.133V192.602H216.391V196.828H221.422V198ZM226.523 197.094C226.737 197.094 226.956 197.076 227.18 197.039C227.404 197.003 227.586 196.958 227.727 196.906V197.914C227.576 197.982 227.365 198.039 227.094 198.086C226.828 198.133 226.568 198.156 226.312 198.156C225.859 198.156 225.448 198.078 225.078 197.922C224.708 197.76 224.411 197.49 224.188 197.109C223.969 196.729 223.859 196.203 223.859 195.531V190.453H222.641V189.82L223.867 189.312L224.383 187.453H225.164V189.438H227.672V190.453H225.164V195.492C225.164 196.029 225.286 196.43 225.531 196.695C225.781 196.961 226.112 197.094 226.523 197.094ZM230.758 189.438V198H229.461V189.438H230.758ZM230.125 186.234C230.339 186.234 230.521 186.305 230.672 186.445C230.828 186.581 230.906 186.794 230.906 187.086C230.906 187.372 230.828 187.586 230.672 187.727C230.521 187.867 230.339 187.938 230.125 187.938C229.901 187.938 229.714 187.867 229.562 187.727C229.417 187.586 229.344 187.372 229.344 187.086C229.344 186.794 229.417 186.581 229.562 186.445C229.714 186.305 229.901 186.234 230.125 186.234ZM239.25 201.828V198.156C239.25 197.953 239.255 197.719 239.266 197.453C239.276 197.188 239.294 196.958 239.32 196.766H239.234C238.995 197.161 238.654 197.492 238.211 197.758C237.768 198.023 237.198 198.156 236.5 198.156C235.453 198.156 234.612 197.786 233.977 197.047C233.341 196.307 233.023 195.203 233.023 193.734C233.023 192.771 233.169 191.958 233.461 191.297C233.753 190.635 234.164 190.135 234.695 189.797C235.232 189.453 235.857 189.281 236.57 189.281C237.253 189.281 237.81 189.417 238.242 189.688C238.674 189.953 239.013 190.279 239.258 190.664H239.32L239.516 189.438H240.547V201.828H239.25ZM236.742 197.078C237.346 197.078 237.831 196.966 238.195 196.742C238.56 196.513 238.826 196.169 238.992 195.711C239.164 195.253 239.255 194.682 239.266 194V193.727C239.266 192.622 239.078 191.786 238.703 191.219C238.328 190.646 237.674 190.359 236.742 190.359C235.94 190.359 235.344 190.667 234.953 191.281C234.562 191.891 234.367 192.719 234.367 193.766C234.367 194.812 234.562 195.628 234.953 196.211C235.344 196.789 235.94 197.078 236.742 197.078ZM250.375 189.438V198H249.312L249.125 196.797H249.055C248.878 197.094 248.648 197.344 248.367 197.547C248.086 197.75 247.768 197.901 247.414 198C247.065 198.104 246.693 198.156 246.297 198.156C245.62 198.156 245.052 198.047 244.594 197.828C244.135 197.609 243.789 197.271 243.555 196.812C243.326 196.354 243.211 195.766 243.211 195.047V189.438H244.523V194.953C244.523 195.667 244.685 196.201 245.008 196.555C245.331 196.904 245.823 197.078 246.484 197.078C247.12 197.078 247.625 196.958 248 196.719C248.38 196.479 248.654 196.128 248.82 195.664C248.987 195.195 249.07 194.622 249.07 193.945V189.438H250.375ZM256.414 189.281C257.143 189.281 257.768 189.443 258.289 189.766C258.81 190.089 259.208 190.542 259.484 191.125C259.76 191.703 259.898 192.38 259.898 193.156V193.961H253.984C254 194.966 254.25 195.732 254.734 196.258C255.219 196.784 255.901 197.047 256.781 197.047C257.323 197.047 257.802 196.997 258.219 196.898C258.635 196.799 259.068 196.654 259.516 196.461V197.602C259.083 197.794 258.654 197.935 258.227 198.023C257.805 198.112 257.305 198.156 256.727 198.156C255.904 198.156 255.185 197.99 254.57 197.656C253.961 197.318 253.487 196.823 253.148 196.172C252.81 195.521 252.641 194.724 252.641 193.781C252.641 192.859 252.794 192.062 253.102 191.391C253.414 190.714 253.852 190.193 254.414 189.828C254.982 189.464 255.648 189.281 256.414 189.281ZM256.398 190.344C255.706 190.344 255.154 190.57 254.742 191.023C254.331 191.477 254.086 192.109 254.008 192.922H258.539C258.534 192.411 258.453 191.964 258.297 191.578C258.146 191.188 257.914 190.885 257.602 190.672C257.289 190.453 256.888 190.344 256.398 190.344ZM264.867 197.094C265.081 197.094 265.299 197.076 265.523 197.039C265.747 197.003 265.93 196.958 266.07 196.906V197.914C265.919 197.982 265.708 198.039 265.438 198.086C265.172 198.133 264.911 198.156 264.656 198.156C264.203 198.156 263.792 198.078 263.422 197.922C263.052 197.76 262.755 197.49 262.531 197.109C262.312 196.729 262.203 196.203 262.203 195.531V190.453H260.984V189.82L262.211 189.312L262.727 187.453H263.508V189.438H266.016V190.453H263.508V195.492C263.508 196.029 263.63 196.43 263.875 196.695C264.125 196.961 264.456 197.094 264.867 197.094ZM271.008 189.297C272.029 189.297 272.786 189.526 273.281 189.984C273.776 190.443 274.023 191.174 274.023 192.18V198H273.078L272.828 196.734H272.766C272.526 197.047 272.276 197.31 272.016 197.523C271.755 197.732 271.453 197.891 271.109 198C270.771 198.104 270.354 198.156 269.859 198.156C269.339 198.156 268.875 198.065 268.469 197.883C268.068 197.701 267.75 197.424 267.516 197.055C267.286 196.685 267.172 196.216 267.172 195.648C267.172 194.794 267.51 194.138 268.188 193.68C268.865 193.221 269.896 192.971 271.281 192.93L272.758 192.867V192.344C272.758 191.604 272.599 191.086 272.281 190.789C271.964 190.492 271.516 190.344 270.938 190.344C270.49 190.344 270.062 190.409 269.656 190.539C269.25 190.669 268.865 190.823 268.5 191L268.102 190.016C268.487 189.818 268.93 189.648 269.43 189.508C269.93 189.367 270.456 189.297 271.008 189.297ZM272.742 193.781L271.438 193.836C270.37 193.878 269.617 194.052 269.18 194.359C268.742 194.667 268.523 195.102 268.523 195.664C268.523 196.154 268.672 196.516 268.969 196.75C269.266 196.984 269.659 197.102 270.148 197.102C270.909 197.102 271.531 196.891 272.016 196.469C272.5 196.047 272.742 195.414 272.742 194.57V193.781Z" fill="#101E37"/>
<rect x="72" y="45" width="54" height="27" rx="6.63173" fill="#005E7A"/>
<path d="M84.517 61.9366C84.6497 61.9366 84.7857 61.9252 84.925 61.9026C85.0642 61.8799 85.1776 61.8524 85.265 61.82V62.4466C85.1711 62.4887 85.0399 62.5243 84.8716 62.5534C84.7064 62.5826 84.5445 62.5971 84.3858 62.5971C84.1041 62.5971 83.8483 62.5486 83.6184 62.4514C83.3885 62.351 83.2039 62.1827 83.0647 61.9463C82.9287 61.7099 82.8607 61.3828 82.8607 60.9651V57.8079H82.1029V57.4145L82.8655 57.0988L83.1861 55.9427H83.6718V57.1765H85.231V57.8079H83.6718V60.9408C83.6718 61.2744 83.7479 61.5237 83.9001 61.6888C84.0555 61.854 84.2612 61.9366 84.517 61.9366ZM88.3348 57.0891C88.9694 57.0891 89.4406 57.2315 89.7482 57.5165C90.0558 57.8014 90.2096 58.2564 90.2096 58.8814V62.5H89.6219L89.4665 61.7131H89.4276C89.2787 61.9074 89.1232 62.0709 88.9613 62.2037C88.7994 62.3332 88.6116 62.432 88.3979 62.5C88.1874 62.5648 87.9284 62.5971 87.6207 62.5971C87.2969 62.5971 87.0087 62.5405 86.7562 62.4271C86.5068 62.3138 86.3093 62.1422 86.1636 61.9123C86.0211 61.6824 85.9499 61.3909 85.9499 61.038C85.9499 60.5069 86.1603 60.0989 86.5813 59.814C87.0023 59.529 87.6434 59.3736 88.5048 59.3477L89.4228 59.3088V58.9834C89.4228 58.5236 89.324 58.2014 89.1265 58.0168C88.929 57.8322 88.6505 57.7399 88.291 57.7399C88.0126 57.7399 87.747 57.7804 87.4945 57.8614C87.2419 57.9423 87.0023 58.0378 86.7756 58.1479L86.5279 57.5359C86.7675 57.4129 87.0427 57.3076 87.3536 57.2202C87.6645 57.1328 87.9915 57.0891 88.3348 57.0891ZM89.4131 59.8771L88.6019 59.9111C87.9381 59.937 87.4702 60.0455 87.1982 60.2365C86.9262 60.4276 86.7902 60.698 86.7902 61.0477C86.7902 61.3521 86.8824 61.5771 87.067 61.7228C87.2516 61.8686 87.4961 61.9414 87.8005 61.9414C88.2732 61.9414 88.6602 61.8103 88.9613 61.548C89.2625 61.2857 89.4131 60.8923 89.4131 60.3677V59.8771ZM92.6771 54.9422V56.8316C92.6771 57.0486 92.6706 57.2591 92.6577 57.4631C92.648 57.6671 92.6399 57.8257 92.6334 57.9391H92.6771C92.8228 57.6994 93.0333 57.4971 93.3086 57.3319C93.5838 57.1668 93.9351 57.0842 94.3626 57.0842C95.0296 57.0842 95.5607 57.3157 95.9557 57.7788C96.354 58.2386 96.5532 58.9235 96.5532 59.8334C96.5532 60.4324 96.4625 60.9376 96.2812 61.3488C96.0998 61.7601 95.844 62.0709 95.5137 62.2814C95.1834 62.4919 94.7932 62.5971 94.3431 62.5971C93.9222 62.5971 93.5757 62.5194 93.3037 62.364C93.0349 62.2053 92.8277 62.0127 92.682 61.786H92.6188L92.4537 62.5H91.8708V54.9422H92.6771ZM94.2314 57.7593C93.8461 57.7593 93.5401 57.8354 93.3134 57.9876C93.0867 58.1366 92.9232 58.3633 92.8228 58.6676C92.7257 58.9688 92.6771 59.3509 92.6771 59.814V59.8577C92.6771 60.528 92.7888 61.0412 93.0123 61.3974C93.2357 61.7504 93.6421 61.9268 94.2314 61.9268C94.7269 61.9268 95.0976 61.7455 95.3437 61.3828C95.5931 61.0202 95.7177 60.5021 95.7177 59.8285C95.7177 59.142 95.5947 58.6256 95.3486 58.2791C95.1057 57.9326 94.7333 57.7593 94.2314 57.7593Z" fill="white"/>
<rect x="306" y="180" width="53.0538" height="26.5269" rx="6.63173" fill="#005E7A"/>
<path d="M318.847 191.843C319.301 191.843 319.689 191.943 320.013 192.144C320.337 192.345 320.585 192.626 320.756 192.989C320.928 193.349 321.014 193.77 321.014 194.252V194.752H317.337C317.346 195.377 317.502 195.853 317.803 196.18C318.104 196.507 318.528 196.671 319.076 196.671C319.412 196.671 319.71 196.64 319.969 196.579C320.228 196.517 320.497 196.426 320.776 196.307V197.016C320.507 197.136 320.24 197.223 319.974 197.278C319.712 197.333 319.401 197.361 319.042 197.361C318.53 197.361 318.083 197.257 317.701 197.05C317.322 196.839 317.027 196.532 316.817 196.127C316.606 195.722 316.501 195.227 316.501 194.641C316.501 194.067 316.597 193.572 316.788 193.154C316.982 192.733 317.254 192.41 317.604 192.183C317.957 191.956 318.371 191.843 318.847 191.843ZM318.838 192.503C318.407 192.503 318.064 192.644 317.808 192.926C317.552 193.208 317.4 193.601 317.351 194.106H320.168C320.165 193.789 320.115 193.51 320.018 193.271C319.924 193.028 319.78 192.84 319.586 192.707C319.391 192.571 319.142 192.503 318.838 192.503ZM324.904 191.843C325.536 191.843 326.013 191.998 326.337 192.309C326.661 192.617 326.823 193.112 326.823 193.795V197.263H326.026V193.849C326.026 193.405 325.924 193.073 325.72 192.853C325.519 192.633 325.21 192.523 324.793 192.523C324.203 192.523 323.789 192.69 323.549 193.023C323.309 193.357 323.19 193.841 323.19 194.475V197.263H322.383V191.94H323.034L323.156 192.707H323.199C323.313 192.52 323.457 192.363 323.632 192.236C323.806 192.107 324.002 192.01 324.219 191.945C324.436 191.877 324.665 191.843 324.904 191.843ZM330.203 196.7C330.336 196.7 330.472 196.689 330.611 196.666C330.751 196.643 330.864 196.616 330.951 196.583V197.21C330.858 197.252 330.726 197.288 330.558 197.317C330.393 197.346 330.231 197.361 330.072 197.361C329.791 197.361 329.535 197.312 329.305 197.215C329.075 197.115 328.89 196.946 328.751 196.71C328.615 196.473 328.547 196.146 328.547 195.729V192.571H327.789V192.178L328.552 191.862L328.873 190.706H329.358V191.94H330.917V192.571H329.358V195.704C329.358 196.038 329.434 196.287 329.587 196.452C329.742 196.617 329.948 196.7 330.203 196.7ZM334.08 191.843C334.533 191.843 334.921 191.943 335.245 192.144C335.569 192.345 335.817 192.626 335.988 192.989C336.16 193.349 336.246 193.77 336.246 194.252V194.752H332.569C332.579 195.377 332.734 195.853 333.035 196.18C333.336 196.507 333.761 196.671 334.308 196.671C334.645 196.671 334.942 196.64 335.202 196.579C335.461 196.517 335.729 196.426 336.008 196.307V197.016C335.739 197.136 335.472 197.223 335.206 197.278C334.944 197.333 334.633 197.361 334.274 197.361C333.762 197.361 333.315 197.257 332.933 197.05C332.554 196.839 332.26 196.532 332.049 196.127C331.839 195.722 331.733 195.227 331.733 194.641C331.733 194.067 331.829 193.572 332.02 193.154C332.214 192.733 332.486 192.41 332.836 192.183C333.189 191.956 333.604 191.843 334.08 191.843ZM334.07 192.503C333.639 192.503 333.296 192.644 333.04 192.926C332.784 193.208 332.632 193.601 332.584 194.106H335.401C335.397 193.789 335.347 193.51 335.25 193.271C335.156 193.028 335.012 192.84 334.818 192.707C334.624 192.571 334.374 192.503 334.07 192.503ZM340.034 191.843C340.141 191.843 340.253 191.849 340.37 191.862C340.486 191.872 340.59 191.887 340.68 191.906L340.578 192.654C340.491 192.631 340.394 192.614 340.287 192.601C340.18 192.588 340.08 192.581 339.986 192.581C339.772 192.581 339.57 192.625 339.379 192.712C339.191 192.796 339.026 192.92 338.883 193.081C338.741 193.24 338.629 193.433 338.548 193.659C338.467 193.883 338.427 194.132 338.427 194.407V197.263H337.616V191.94H338.286L338.373 192.921H338.407C338.517 192.724 338.65 192.544 338.806 192.382C338.961 192.217 339.141 192.086 339.345 191.989C339.552 191.891 339.782 191.843 340.034 191.843Z" fill="white"/>
<path d="M152.174 106.625C152.519 106.625 152.799 106.345 152.799 106C152.799 105.655 152.519 105.375 152.174 105.375V106.625ZM166.442 146.442C166.686 146.198 166.686 145.802 166.442 145.558L162.464 141.581C162.22 141.337 161.825 141.337 161.581 141.581C161.337 141.825 161.337 142.22 161.581 142.464L165.116 146L161.581 149.536C161.337 149.78 161.337 150.175 161.581 150.419C161.825 150.663 162.22 150.663 162.464 150.419L166.442 146.442ZM152.174 106V105.375H150V106V106.625H152.174V106ZM142 114H141.375V138H142H142.625V114H142ZM150 146V146.625H166V146V145.375H150V146ZM142 138H141.375C141.375 142.763 145.237 146.625 150 146.625V146V145.375C145.927 145.375 142.625 142.073 142.625 138H142ZM150 106V105.375C145.237 105.375 141.375 109.237 141.375 114H142H142.625C142.625 109.927 145.927 106.625 150 106.625V106Z" fill="#005E7A"/>
<path d="M151.721 156.625C152.066 156.625 152.346 156.345 152.346 156C152.346 155.655 152.066 155.375 151.721 155.375V156.625ZM164.442 193.442C164.686 193.198 164.686 192.802 164.442 192.558L160.464 188.581C160.22 188.337 159.825 188.337 159.581 188.581C159.337 188.825 159.337 189.22 159.581 189.464L163.116 193L159.581 196.536C159.337 196.78 159.337 197.175 159.581 197.419C159.825 197.663 160.22 197.663 160.464 197.419L164.442 193.442ZM151.721 156V155.375H150V156V156.625H151.721V156ZM142 164H141.375V185H142H142.625V164H142ZM150 193V193.625H164V193V192.375H150V193ZM142 185H141.375C141.375 189.763 145.237 193.625 150 193.625V193V192.375C145.927 192.375 142.625 189.073 142.625 185H142ZM150 156V155.375C145.237 155.375 141.375 159.237 141.375 164H142H142.625C142.625 159.927 145.927 156.625 150 156.625V156Z" fill="#005E7A"/>
<path d="M142.625 -18C142.625 -18.3452 142.345 -18.625 142 -18.625C141.655 -18.625 141.375 -18.3452 141.375 -18H142.625ZM166.442 96.4419C166.686 96.1979 166.686 95.8021 166.442 95.5581L162.464 91.5806C162.22 91.3365 161.825 91.3365 161.581 91.5806C161.337 91.8247 161.337 92.2204 161.581 92.4645L165.116 96L161.581 99.5355C161.337 99.7796 161.337 100.175 161.581 100.419C161.825 100.663 162.22 100.663 162.464 100.419L166.442 96.4419ZM142 -18H141.375V88H142H142.625V-18H142ZM150 96V96.625H166V96V95.375H150V96ZM142 88H141.375C141.375 92.7635 145.237 96.625 150 96.625V96V95.375C145.927 95.375 142.625 92.0731 142.625 88H142Z" fill="#005E7A"/>
<path d="M374.351 190.579C375.015 190.579 375.545 190.808 375.94 191.264C376.335 191.721 376.532 192.407 376.532 193.324C376.532 193.929 376.442 194.438 376.26 194.849C376.079 195.26 375.823 195.571 375.493 195.781C375.166 195.992 374.779 196.097 374.332 196.097C374.05 196.097 373.803 196.06 373.589 195.985C373.375 195.911 373.192 195.811 373.04 195.684C372.888 195.558 372.762 195.42 372.661 195.271H372.603C372.613 195.398 372.624 195.55 372.637 195.728C372.653 195.906 372.661 196.062 372.661 196.194V198.38H371.85V190.676H372.515L372.622 191.463H372.661C372.765 191.301 372.891 191.154 373.04 191.021C373.189 190.885 373.37 190.778 373.584 190.701C373.801 190.62 374.057 190.579 374.351 190.579ZM374.211 191.259C373.841 191.259 373.544 191.331 373.317 191.473C373.093 191.616 372.93 191.829 372.826 192.114C372.723 192.396 372.668 192.751 372.661 193.178V193.333C372.661 193.783 372.71 194.164 372.807 194.475C372.907 194.786 373.071 195.022 373.297 195.184C373.527 195.346 373.835 195.427 374.22 195.427C374.551 195.427 374.826 195.338 375.046 195.16C375.266 194.982 375.43 194.734 375.537 194.417C375.647 194.096 375.702 193.728 375.702 193.314C375.702 192.686 375.579 192.187 375.333 191.818C375.09 191.446 374.716 191.259 374.211 191.259ZM379.932 190.589C380.567 190.589 381.038 190.732 381.346 191.016C381.654 191.301 381.807 191.756 381.807 192.381V196H381.22L381.064 195.213H381.025C380.876 195.407 380.721 195.571 380.559 195.704C380.397 195.833 380.209 195.932 379.996 196C379.785 196.065 379.526 196.097 379.218 196.097C378.895 196.097 378.606 196.04 378.354 195.927C378.105 195.814 377.907 195.642 377.761 195.412C377.619 195.182 377.548 194.891 377.548 194.538C377.548 194.007 377.758 193.599 378.179 193.314C378.6 193.029 379.241 192.874 380.102 192.848L381.02 192.809V192.483C381.02 192.024 380.922 191.701 380.724 191.517C380.527 191.332 380.248 191.24 379.889 191.24C379.61 191.24 379.345 191.28 379.092 191.361C378.84 191.442 378.6 191.538 378.373 191.648L378.126 191.036C378.365 190.913 378.64 190.808 378.951 190.72C379.262 190.633 379.589 190.589 379.932 190.589ZM381.011 193.377L380.2 193.411C379.536 193.437 379.068 193.545 378.796 193.737C378.524 193.928 378.388 194.198 378.388 194.548C378.388 194.852 378.48 195.077 378.665 195.223C378.849 195.369 379.094 195.441 379.398 195.441C379.871 195.441 380.258 195.31 380.559 195.048C380.86 194.786 381.011 194.392 381.011 193.868V193.377ZM385.887 190.579C385.994 190.579 386.106 190.586 386.223 190.599C386.339 190.608 386.443 190.623 386.533 190.642L386.431 191.39C386.344 191.368 386.247 191.35 386.14 191.337C386.033 191.324 385.933 191.318 385.839 191.318C385.625 191.318 385.423 191.361 385.232 191.449C385.044 191.533 384.879 191.656 384.736 191.818C384.594 191.977 384.482 192.169 384.401 192.396C384.32 192.619 384.28 192.869 384.28 193.144V196H383.468V190.676H384.139L384.226 191.658H384.26C384.37 191.46 384.503 191.28 384.659 191.118C384.814 190.953 384.994 190.822 385.198 190.725C385.405 190.628 385.635 190.579 385.887 190.579ZM389.53 190.589C390.165 190.589 390.636 190.732 390.944 191.016C391.251 191.301 391.405 191.756 391.405 192.381V196H390.817L390.662 195.213H390.623C390.474 195.407 390.319 195.571 390.157 195.704C389.995 195.833 389.807 195.932 389.593 196C389.383 196.065 389.124 196.097 388.816 196.097C388.492 196.097 388.204 196.04 387.952 195.927C387.702 195.814 387.505 195.642 387.359 195.412C387.217 195.182 387.145 194.891 387.145 194.538C387.145 194.007 387.356 193.599 387.777 193.314C388.198 193.029 388.839 192.874 389.7 192.848L390.618 192.809V192.483C390.618 192.024 390.52 191.701 390.322 191.517C390.125 191.332 389.846 191.24 389.487 191.24C389.208 191.24 388.943 191.28 388.69 191.361C388.437 191.442 388.198 191.538 387.971 191.648L387.723 191.036C387.963 190.913 388.238 190.808 388.549 190.72C388.86 190.633 389.187 190.589 389.53 190.589ZM390.609 193.377L389.797 193.411C389.134 193.437 388.666 193.545 388.394 193.737C388.122 193.928 387.986 194.198 387.986 194.548C387.986 194.852 388.078 195.077 388.263 195.223C388.447 195.369 388.692 195.441 388.996 195.441C389.469 195.441 389.856 195.31 390.157 195.048C390.458 194.786 390.609 194.392 390.609 193.868V193.377ZM399.094 194.543C399.094 194.883 399.008 195.169 398.837 195.403C398.668 195.632 398.426 195.806 398.108 195.922C397.794 196.039 397.418 196.097 396.981 196.097C396.609 196.097 396.287 196.068 396.015 196.01C395.743 195.951 395.505 195.869 395.301 195.762V195.019C395.518 195.126 395.777 195.223 396.078 195.31C396.379 195.398 396.687 195.441 397.001 195.441C397.461 195.441 397.794 195.367 398.001 195.218C398.209 195.069 398.312 194.867 398.312 194.611C398.312 194.465 398.27 194.337 398.186 194.227C398.105 194.114 397.967 194.005 397.773 193.902C397.579 193.795 397.31 193.678 396.967 193.552C396.627 193.422 396.332 193.295 396.083 193.168C395.837 193.039 395.646 192.882 395.51 192.697C395.377 192.513 395.31 192.273 395.31 191.978C395.31 191.528 395.492 191.183 395.854 190.944C396.22 190.701 396.7 190.579 397.292 190.579C397.613 190.579 397.912 190.612 398.191 190.676C398.472 190.738 398.735 190.822 398.978 190.929L398.706 191.575C398.485 191.481 398.251 191.402 398.001 191.337C397.752 191.272 397.498 191.24 397.239 191.24C396.866 191.24 396.58 191.301 396.379 191.424C396.181 191.548 396.083 191.716 396.083 191.93C396.083 192.095 396.128 192.231 396.219 192.338C396.313 192.445 396.462 192.545 396.666 192.639C396.87 192.733 397.138 192.843 397.472 192.969C397.805 193.092 398.094 193.22 398.336 193.353C398.579 193.482 398.766 193.641 398.895 193.829C399.028 194.013 399.094 194.251 399.094 194.543ZM402.441 190.579C402.894 190.579 403.283 190.68 403.607 190.88C403.93 191.081 404.178 191.363 404.35 191.726C404.521 192.085 404.607 192.506 404.607 192.989V193.489H400.93C400.94 194.114 401.095 194.59 401.397 194.917C401.698 195.244 402.122 195.407 402.669 195.407C403.006 195.407 403.304 195.377 403.563 195.315C403.822 195.254 404.091 195.163 404.369 195.043V195.752C404.1 195.872 403.833 195.96 403.568 196.015C403.305 196.07 402.995 196.097 402.635 196.097C402.123 196.097 401.677 195.994 401.295 195.786C400.916 195.576 400.621 195.268 400.41 194.863C400.2 194.459 400.095 193.963 400.095 193.377C400.095 192.804 400.19 192.309 400.381 191.891C400.576 191.47 400.848 191.146 401.197 190.919C401.55 190.693 401.965 190.579 402.441 190.579ZM402.431 191.24C402 191.24 401.657 191.381 401.401 191.662C401.146 191.944 400.993 192.338 400.945 192.843H403.762C403.759 192.525 403.709 192.247 403.611 192.007C403.517 191.765 403.373 191.577 403.179 191.444C402.985 191.308 402.735 191.24 402.431 191.24ZM406.788 196H405.977V188.442H406.788V196ZM410.543 190.579C410.996 190.579 411.385 190.68 411.708 190.88C412.032 191.081 412.28 191.363 412.452 191.726C412.623 192.085 412.709 192.506 412.709 192.989V193.489H409.032C409.042 194.114 409.197 194.59 409.498 194.917C409.8 195.244 410.224 195.407 410.771 195.407C411.108 195.407 411.406 195.377 411.665 195.315C411.924 195.254 412.193 195.163 412.471 195.043V195.752C412.202 195.872 411.935 195.96 411.67 196.015C411.407 196.07 411.096 196.097 410.737 196.097C410.225 196.097 409.778 195.994 409.396 195.786C409.017 195.576 408.723 195.268 408.512 194.863C408.302 194.459 408.197 193.963 408.197 193.377C408.197 192.804 408.292 192.309 408.483 191.891C408.677 191.47 408.949 191.146 409.299 190.919C409.652 190.693 410.067 190.579 410.543 190.579ZM410.533 191.24C410.102 191.24 409.759 191.381 409.503 191.662C409.247 191.944 409.095 192.338 409.047 192.843H411.864C411.861 192.525 411.81 192.247 411.713 192.007C411.619 191.765 411.475 191.577 411.281 191.444C411.087 191.308 410.837 191.24 410.533 191.24ZM416.211 196.097C415.732 196.097 415.309 195.998 414.943 195.801C414.577 195.603 414.292 195.302 414.088 194.897C413.884 194.493 413.782 193.983 413.782 193.367C413.782 192.723 413.889 192.197 414.103 191.789C414.32 191.378 414.618 191.073 414.997 190.876C415.376 190.678 415.806 190.579 416.289 190.579C416.554 190.579 416.81 190.607 417.056 190.662C417.306 190.714 417.51 190.78 417.668 190.861L417.425 191.536C417.263 191.471 417.076 191.413 416.862 191.361C416.651 191.31 416.454 191.284 416.269 191.284C415.9 191.284 415.593 191.363 415.346 191.522C415.104 191.68 414.921 191.913 414.798 192.221C414.678 192.529 414.618 192.908 414.618 193.358C414.618 193.788 414.676 194.156 414.793 194.46C414.913 194.765 415.089 194.998 415.322 195.16C415.559 195.318 415.853 195.398 416.206 195.398C416.488 195.398 416.742 195.369 416.969 195.31C417.195 195.249 417.401 195.178 417.586 195.097V195.815C417.408 195.906 417.208 195.976 416.988 196.024C416.771 196.073 416.512 196.097 416.211 196.097ZM420.981 196.097C420.502 196.097 420.079 195.998 419.713 195.801C419.347 195.603 419.062 195.302 418.858 194.897C418.654 194.493 418.552 193.983 418.552 193.367C418.552 192.723 418.659 192.197 418.873 191.789C419.09 191.378 419.388 191.073 419.767 190.876C420.145 190.678 420.576 190.579 421.059 190.579C421.324 190.579 421.58 190.607 421.826 190.662C422.075 190.714 422.279 190.78 422.438 190.861L422.195 191.536C422.033 191.471 421.845 191.413 421.632 191.361C421.421 191.31 421.224 191.284 421.039 191.284C420.67 191.284 420.362 191.363 420.116 191.522C419.873 191.68 419.69 191.913 419.567 192.221C419.448 192.529 419.388 192.908 419.388 193.358C419.388 193.788 419.446 194.156 419.563 194.46C419.682 194.765 419.859 194.998 420.092 195.16C420.328 195.318 420.623 195.398 420.976 195.398C421.258 195.398 421.512 195.369 421.739 195.31C421.965 195.249 422.171 195.178 422.355 195.097V195.815C422.177 195.906 421.978 195.976 421.758 196.024C421.541 196.073 421.282 196.097 420.981 196.097ZM424.425 190.676V196H423.618V190.676H424.425ZM424.031 188.685C424.164 188.685 424.277 188.729 424.371 188.816C424.468 188.9 424.517 189.033 424.517 189.214C424.517 189.393 424.468 189.525 424.371 189.613C424.277 189.7 424.164 189.744 424.031 189.744C423.892 189.744 423.775 189.7 423.681 189.613C423.591 189.525 423.545 189.393 423.545 189.214C423.545 189.033 423.591 188.9 423.681 188.816C423.775 188.729 423.892 188.685 424.031 188.685ZM430.724 193.329C430.724 193.766 430.668 194.156 430.554 194.499C430.441 194.842 430.278 195.132 430.064 195.369C429.85 195.605 429.591 195.786 429.287 195.913C428.986 196.036 428.644 196.097 428.262 196.097C427.906 196.097 427.579 196.036 427.281 195.913C426.986 195.786 426.73 195.605 426.513 195.369C426.299 195.132 426.133 194.842 426.013 194.499C425.896 194.156 425.838 193.766 425.838 193.329C425.838 192.746 425.937 192.25 426.134 191.842C426.332 191.431 426.614 191.118 426.98 190.905C427.349 190.688 427.787 190.579 428.296 190.579C428.782 190.579 429.206 190.688 429.568 190.905C429.934 191.122 430.218 191.436 430.418 191.847C430.622 192.255 430.724 192.749 430.724 193.329ZM426.674 193.329C426.674 193.756 426.73 194.127 426.844 194.441C426.957 194.755 427.132 194.998 427.368 195.169C427.604 195.341 427.909 195.427 428.281 195.427C428.65 195.427 428.953 195.341 429.19 195.169C429.429 194.998 429.606 194.755 429.719 194.441C429.832 194.127 429.889 193.756 429.889 193.329C429.889 192.904 429.832 192.538 429.719 192.231C429.606 191.92 429.431 191.68 429.194 191.512C428.958 191.344 428.652 191.259 428.276 191.259C427.723 191.259 427.316 191.442 427.057 191.808C426.801 192.174 426.674 192.681 426.674 193.329ZM434.639 190.579C435.271 190.579 435.748 190.735 436.072 191.046C436.396 191.353 436.558 191.849 436.558 192.532V196H435.761V192.585C435.761 192.142 435.659 191.81 435.455 191.59C435.255 191.369 434.945 191.259 434.528 191.259C433.938 191.259 433.524 191.426 433.284 191.76C433.045 192.093 432.925 192.577 432.925 193.212V196H432.118V190.676H432.769L432.891 191.444H432.934C433.048 191.256 433.192 191.099 433.367 190.973C433.542 190.843 433.738 190.746 433.954 190.681C434.171 190.613 434.4 190.579 434.639 190.579ZM440.211 190.589C440.845 190.589 441.316 190.732 441.624 191.016C441.932 191.301 442.085 191.756 442.085 192.381V196H441.498L441.342 195.213H441.303C441.155 195.407 440.999 195.571 440.837 195.704C440.675 195.833 440.487 195.932 440.274 196C440.063 196.065 439.804 196.097 439.497 196.097C439.173 196.097 438.885 196.04 438.632 195.927C438.383 195.814 438.185 195.642 438.039 195.412C437.897 195.182 437.826 194.891 437.826 194.538C437.826 194.007 438.036 193.599 438.457 193.314C438.878 193.029 439.519 192.874 440.381 192.848L441.299 192.809V192.483C441.299 192.024 441.2 191.701 441.002 191.517C440.805 191.332 440.526 191.24 440.167 191.24C439.888 191.24 439.623 191.28 439.37 191.361C439.118 191.442 438.878 191.538 438.651 191.648L438.404 191.036C438.643 190.913 438.919 190.808 439.229 190.72C439.54 190.633 439.867 190.589 440.211 190.589ZM441.289 193.377L440.478 193.411C439.814 193.437 439.346 193.545 439.074 193.737C438.802 193.928 438.666 194.198 438.666 194.548C438.666 194.852 438.758 195.077 438.943 195.223C439.127 195.369 439.372 195.441 439.676 195.441C440.149 195.441 440.536 195.31 440.837 195.048C441.138 194.786 441.289 194.392 441.289 193.868V193.377ZM446.166 190.579C446.272 190.579 446.384 190.586 446.501 190.599C446.617 190.608 446.721 190.623 446.812 190.642L446.71 191.39C446.622 191.368 446.525 191.35 446.418 191.337C446.311 191.324 446.211 191.318 446.117 191.318C445.903 191.318 445.701 191.361 445.51 191.449C445.322 191.533 445.157 191.656 445.014 191.818C444.872 191.977 444.76 192.169 444.679 192.396C444.598 192.619 444.558 192.869 444.558 193.144V196H443.747V190.676H444.417L444.504 191.658H444.538C444.648 191.46 444.781 191.28 444.937 191.118C445.092 190.953 445.272 190.822 445.476 190.725C445.683 190.628 445.913 190.579 446.166 190.579ZM452.451 190.579C452.904 190.579 453.293 190.68 453.617 190.88C453.94 191.081 454.188 191.363 454.36 191.726C454.531 192.085 454.617 192.506 454.617 192.989V193.489H450.94C450.95 194.114 451.105 194.59 451.406 194.917C451.708 195.244 452.132 195.407 452.679 195.407C453.016 195.407 453.314 195.377 453.573 195.315C453.832 195.254 454.101 195.163 454.379 195.043V195.752C454.11 195.872 453.843 195.96 453.578 196.015C453.315 196.07 453.005 196.097 452.645 196.097C452.133 196.097 451.687 195.994 451.304 195.786C450.926 195.576 450.631 195.268 450.42 194.863C450.21 194.459 450.105 193.963 450.105 193.377C450.105 192.804 450.2 192.309 450.391 191.891C450.586 191.47 450.858 191.146 451.207 190.919C451.56 190.693 451.975 190.579 452.451 190.579ZM452.441 191.24C452.01 191.24 451.667 191.381 451.411 191.662C451.156 191.944 451.003 192.338 450.955 192.843H453.772C453.769 192.525 453.719 192.247 453.621 192.007C453.527 191.765 453.383 191.577 453.189 191.444C452.995 191.308 452.745 191.24 452.441 191.24ZM456.798 196H455.987V188.442H456.798V196ZM462.695 196.097C462.3 196.097 461.953 196.023 461.655 195.874C461.361 195.722 461.131 195.498 460.966 195.203C460.804 194.909 460.723 194.543 460.723 194.106C460.723 193.727 460.763 193.363 460.844 193.013C460.928 192.663 461.05 192.341 461.208 192.046C461.367 191.752 461.56 191.494 461.786 191.274C462.013 191.054 462.27 190.884 462.559 190.764C462.85 190.641 463.167 190.579 463.511 190.579C463.741 190.579 463.969 190.602 464.196 190.647C464.425 190.689 464.633 190.751 464.817 190.832L464.589 191.512C464.453 191.447 464.293 191.389 464.108 191.337C463.924 191.285 463.726 191.259 463.516 191.259C463.221 191.259 462.952 191.334 462.709 191.483C462.47 191.632 462.262 191.839 462.088 192.105C461.916 192.367 461.783 192.668 461.689 193.008C461.595 193.348 461.548 193.711 461.548 194.096C461.548 194.371 461.597 194.609 461.694 194.81C461.791 195.008 461.93 195.16 462.112 195.267C462.296 195.373 462.517 195.427 462.772 195.427C463.009 195.427 463.231 195.394 463.438 195.33C463.648 195.265 463.854 195.187 464.055 195.097V195.786C463.877 195.877 463.673 195.951 463.443 196.01C463.216 196.068 462.967 196.097 462.695 196.097ZM465.026 196L466.629 188.442H467.435L467.008 190.404C466.982 190.544 466.95 190.688 466.911 190.837C466.875 190.982 466.838 191.13 466.799 191.279C466.76 191.424 466.721 191.569 466.682 191.711H466.731C466.857 191.539 467.006 191.368 467.178 191.196C467.353 191.025 467.555 190.88 467.785 190.764C468.018 190.647 468.28 190.589 468.572 190.589C468.85 190.589 469.088 190.639 469.286 190.74C469.487 190.84 469.641 190.991 469.747 191.191C469.857 191.389 469.913 191.638 469.913 191.939C469.913 192.066 469.903 192.195 469.883 192.328C469.864 192.457 469.84 192.593 469.811 192.736L469.111 196H468.3L469.009 192.649C469.041 192.503 469.064 192.378 469.077 192.275C469.09 192.171 469.097 192.08 469.097 192.003C469.097 191.766 469.037 191.583 468.917 191.454C468.8 191.324 468.612 191.259 468.353 191.259C468.11 191.259 467.855 191.342 467.586 191.507C467.32 191.669 467.074 191.926 466.848 192.279C466.624 192.629 466.453 193.087 466.333 193.654L465.837 196H465.026ZM472.89 196.097C472.492 196.097 472.148 196.018 471.86 195.859C471.572 195.697 471.35 195.467 471.195 195.169C471.043 194.868 470.967 194.509 470.967 194.091C470.967 193.66 471.028 193.238 471.151 192.823C471.277 192.406 471.457 192.028 471.69 191.692C471.923 191.352 472.204 191.081 472.531 190.88C472.861 190.68 473.23 190.579 473.638 190.579C474.127 190.579 474.498 190.689 474.75 190.91C475.003 191.127 475.129 191.426 475.129 191.808C475.129 192.077 475.066 192.325 474.94 192.551C474.817 192.778 474.626 192.976 474.367 193.144C474.111 193.309 473.785 193.439 473.39 193.533C472.998 193.623 472.534 193.669 471.996 193.669H471.812C471.805 193.727 471.799 193.792 471.792 193.863C471.789 193.934 471.787 194 471.787 194.062C471.787 194.489 471.891 194.825 472.098 195.067C472.306 195.307 472.616 195.427 473.031 195.427C473.287 195.427 473.528 195.391 473.755 195.32C473.984 195.246 474.224 195.148 474.473 195.029V195.723C474.234 195.833 473.993 195.924 473.75 195.995C473.507 196.063 473.22 196.097 472.89 196.097ZM471.928 193.008H472.045C472.459 193.008 472.84 192.972 473.186 192.901C473.533 192.827 473.811 192.707 474.022 192.542C474.232 192.373 474.337 192.15 474.337 191.871C474.337 191.69 474.276 191.541 474.153 191.424C474.03 191.308 473.842 191.25 473.589 191.25C473.366 191.25 473.146 191.319 472.929 191.458C472.712 191.594 472.514 191.794 472.336 192.056C472.161 192.318 472.025 192.636 471.928 193.008ZM477.888 196.097C477.493 196.097 477.147 196.023 476.849 195.874C476.554 195.722 476.324 195.498 476.159 195.203C475.997 194.909 475.916 194.543 475.916 194.106C475.916 193.727 475.957 193.363 476.037 193.013C476.122 192.663 476.243 192.341 476.402 192.046C476.56 191.752 476.753 191.494 476.98 191.274C477.206 191.054 477.464 190.884 477.752 190.764C478.044 190.641 478.361 190.579 478.704 190.579C478.934 190.579 479.162 190.602 479.389 190.647C479.619 190.689 479.826 190.751 480.011 190.832L479.782 191.512C479.646 191.447 479.486 191.389 479.302 191.337C479.117 191.285 478.919 191.259 478.709 191.259C478.414 191.259 478.146 191.334 477.903 191.483C477.663 191.632 477.456 191.839 477.281 192.105C477.109 192.367 476.977 192.668 476.883 193.008C476.789 193.348 476.742 193.711 476.742 194.096C476.742 194.371 476.79 194.609 476.887 194.81C476.985 195.008 477.124 195.16 477.305 195.267C477.49 195.373 477.71 195.427 477.966 195.427C478.202 195.427 478.424 195.394 478.631 195.33C478.842 195.265 479.047 195.187 479.248 195.097V195.786C479.07 195.877 478.866 195.951 478.636 196.01C478.409 196.068 478.16 196.097 477.888 196.097ZM480.21 196L481.813 188.442H482.629L481.968 191.526C481.897 191.863 481.831 192.151 481.769 192.391C481.707 192.631 481.654 192.827 481.609 192.979C481.563 193.128 481.529 193.243 481.507 193.324H481.526L484.149 190.676H485.106L482.804 192.964L484.236 196H483.343L482.192 193.469L481.419 194.096L481.031 196H480.21ZM487.447 196.097C487.198 196.097 486.981 196.053 486.796 195.966C486.615 195.875 486.464 195.757 486.345 195.611C486.225 195.466 486.131 195.309 486.063 195.14H486.019L485.699 196H485.086L486.689 188.442H487.496L487.107 190.268C487.062 190.485 487.013 190.701 486.961 190.914C486.91 191.125 486.863 191.305 486.821 191.454C486.782 191.599 486.756 191.685 486.743 191.711H486.782C486.937 191.514 487.104 191.331 487.282 191.162C487.463 190.991 487.661 190.853 487.875 190.749C488.091 190.642 488.328 190.589 488.584 190.589C488.882 190.589 489.141 190.659 489.361 190.798C489.581 190.934 489.751 191.136 489.871 191.405C489.994 191.674 490.055 192.007 490.055 192.406C490.055 192.788 490.017 193.16 489.939 193.523C489.864 193.882 489.754 194.217 489.609 194.528C489.463 194.839 489.285 195.113 489.074 195.349C488.864 195.582 488.621 195.765 488.346 195.898C488.074 196.031 487.774 196.097 487.447 196.097ZM487.389 195.427C487.615 195.427 487.823 195.37 488.011 195.257C488.202 195.144 488.372 194.99 488.521 194.795C488.673 194.598 488.801 194.37 488.904 194.111C489.011 193.851 489.092 193.576 489.147 193.285C489.202 192.993 489.23 192.697 489.23 192.396C489.23 192.02 489.154 191.737 489.001 191.546C488.852 191.355 488.629 191.259 488.331 191.259C488.176 191.259 488.017 191.298 487.855 191.376C487.696 191.45 487.543 191.557 487.394 191.696C487.245 191.836 487.105 191.999 486.976 192.187C486.85 192.375 486.738 192.582 486.641 192.809C486.547 193.035 486.472 193.275 486.417 193.528C486.362 193.78 486.335 194.038 486.335 194.3C486.335 194.64 486.421 194.914 486.592 195.121C486.767 195.325 487.033 195.427 487.389 195.427ZM493.009 196.078C492.601 196.078 492.249 195.995 491.955 195.83C491.66 195.662 491.433 195.425 491.275 195.121C491.119 194.813 491.041 194.451 491.041 194.033C491.041 193.696 491.079 193.364 491.153 193.037C491.228 192.707 491.338 192.396 491.483 192.105C491.629 191.81 491.809 191.551 492.023 191.327C492.24 191.101 492.489 190.924 492.771 190.798C493.052 190.668 493.366 190.604 493.713 190.604C494.127 190.604 494.48 190.688 494.772 190.856C495.066 191.021 495.292 191.258 495.447 191.565C495.606 191.873 495.685 192.237 495.685 192.658C495.685 192.989 495.648 193.317 495.573 193.644C495.502 193.971 495.394 194.282 495.248 194.577C495.105 194.868 494.926 195.127 494.709 195.354C494.495 195.577 494.246 195.754 493.961 195.883C493.679 196.013 493.362 196.078 493.009 196.078ZM493.057 195.407C493.258 195.407 493.449 195.365 493.63 195.281C493.812 195.197 493.977 195.076 494.126 194.917C494.275 194.755 494.403 194.559 494.51 194.329C494.62 194.096 494.704 193.832 494.762 193.537C494.824 193.243 494.854 192.919 494.854 192.566C494.854 192.355 494.817 192.151 494.743 191.954C494.668 191.756 494.548 191.594 494.383 191.468C494.218 191.339 493.998 191.274 493.723 191.274C493.496 191.274 493.285 191.321 493.091 191.415C492.9 191.509 492.729 191.641 492.576 191.813C492.424 191.985 492.295 192.187 492.188 192.42C492.084 192.653 492.003 192.909 491.945 193.188C491.89 193.466 491.862 193.759 491.862 194.067C491.862 194.491 491.966 194.821 492.173 195.058C492.38 195.291 492.675 195.407 493.057 195.407ZM495.797 196L498.114 193.261L496.958 190.676H497.774L498.628 192.687L500.251 190.676H501.188L498.964 193.295L500.197 196H499.372L498.439 193.882L496.734 196H495.797Z" fill="#101E37"/>
</g>
<rect x="1" y="1" width="726" height="234" rx="7" stroke="#E6EBF0" stroke-width="2"/>
<defs>
<clipPath id="clip0_3238_7097">
<rect width="728" height="236" rx="8" fill="white"/>
</clipPath>
</defs>
</svg>
