<svg width="728" height="155" viewBox="0 0 728 155" fill="none" xmlns="http://www.w3.org/2000/svg">
<rect x="0.5" y="0.746094" width="727" height="153.077" rx="7.5" fill="white"/>
<rect x="0.5" y="0.746094" width="727" height="153.077" rx="7.5" stroke="#E6EBF0"/>
<rect x="285.827" y="45.3615" width="156.346" height="63.8462" rx="14.4231" stroke="#218274" stroke-width="5.76923"/>
<rect x="300.25" y="61.227" width="31.7308" height="31.7308" rx="4.32692" fill="white"/>
<rect x="300.25" y="61.227" width="31.7308" height="31.7308" rx="4.32692" stroke="#101E37" stroke-width="2.88462"/>
<path d="M354.945 85.7847H345.773V69.3108H354.945V71.001H347.688V76.3308H354.528V77.9985H347.688V84.0945H354.945V85.7847ZM362.303 84.4776C362.611 84.4776 362.926 84.4513 363.249 84.3987C363.572 84.3461 363.835 84.2823 364.038 84.2071V85.6607C363.82 85.7584 363.516 85.841 363.125 85.9086C362.742 85.9762 362.367 86.01 361.999 86.01C361.345 86.01 360.752 85.8973 360.218 85.672C359.685 85.4391 359.257 85.0485 358.934 84.5001C358.618 83.9517 358.46 83.193 358.46 82.224V74.8998H356.703V73.987L358.472 73.2546L359.215 70.5728H360.342V73.4349H363.959V74.8998H360.342V82.1676C360.342 82.9414 360.519 83.5198 360.872 83.9029C361.232 84.286 361.709 84.4776 362.303 84.4776ZM368.41 73.4349V85.7847H366.54V73.4349H368.41ZM367.497 68.815C367.805 68.815 368.068 68.9164 368.286 69.1193C368.512 69.3146 368.624 69.6226 368.624 70.0432C368.624 70.4564 368.512 70.7644 368.286 70.9672C368.068 71.17 367.805 71.2714 367.497 71.2714C367.174 71.2714 366.904 71.17 366.686 70.9672C366.476 70.7644 366.371 70.4564 366.371 70.0432C366.371 69.6226 366.476 69.3146 366.686 69.1193C366.904 68.9164 367.174 68.815 367.497 68.815ZM380.658 91.306V86.01C380.658 85.7171 380.666 85.379 380.681 84.9959C380.696 84.6128 380.722 84.2823 380.76 84.0043H380.636C380.29 84.5752 379.798 85.0522 379.16 85.4354C378.521 85.8185 377.699 86.01 376.692 86.01C375.182 86.01 373.969 85.4767 373.053 84.41C372.136 83.3433 371.678 81.7507 371.678 79.6323C371.678 78.2426 371.888 77.0707 372.309 76.1167C372.73 75.1627 373.323 74.4415 374.089 73.9532C374.863 73.4574 375.764 73.2095 376.794 73.2095C377.778 73.2095 378.581 73.4049 379.205 73.7955C379.828 74.1786 380.317 74.6481 380.67 75.204H380.76L381.042 73.4349H382.529V91.306H380.658ZM377.041 84.455C377.913 84.455 378.611 84.2935 379.137 83.9705C379.663 83.64 380.046 83.1442 380.287 82.4831C380.535 81.8221 380.666 80.9995 380.681 80.0154V79.6211C380.681 78.0285 380.411 76.8228 379.87 76.004C379.329 75.1777 378.386 74.7645 377.041 74.7645C375.885 74.7645 375.024 75.2077 374.461 76.0942C373.898 76.9731 373.616 78.1675 373.616 79.6774C373.616 81.1873 373.898 82.3629 374.461 83.2043C375.024 84.0381 375.885 84.455 377.041 84.455ZM396.704 73.4349V85.7847H395.172L394.901 84.0494H394.8C394.544 84.4776 394.214 84.8382 393.808 85.1311C393.403 85.4241 392.944 85.6419 392.434 85.7847C391.93 85.9349 391.393 86.01 390.822 86.01C389.846 86.01 389.027 85.8523 388.366 85.5368C387.705 85.2213 387.205 84.733 386.867 84.0719C386.537 83.4109 386.371 82.562 386.371 81.5254V73.4349H388.264V81.3901C388.264 82.4193 388.497 83.1893 388.963 83.7001C389.429 84.2034 390.139 84.455 391.093 84.455C392.009 84.455 392.738 84.2823 393.279 83.9367C393.827 83.5912 394.221 83.0841 394.462 82.4155C394.702 81.7394 394.822 80.9131 394.822 79.9366V73.4349H396.704ZM405.414 73.2095C406.466 73.2095 407.367 73.4424 408.119 73.9082C408.87 74.3739 409.445 75.0275 409.843 75.8688C410.241 76.7026 410.44 77.6792 410.44 78.7985V79.9591H401.91C401.933 81.4089 402.293 82.5132 402.992 83.2719C403.69 84.0306 404.674 84.41 405.944 84.41C406.725 84.41 407.416 84.3386 408.017 84.1959C408.618 84.0531 409.242 83.8428 409.888 83.5649V85.21C409.264 85.4879 408.644 85.6908 408.029 85.8185C407.42 85.9462 406.699 86.01 405.865 86.01C404.678 86.01 403.641 85.7696 402.755 85.2889C401.876 84.8006 401.193 84.087 400.704 83.1479C400.216 82.2089 399.972 81.0596 399.972 79.6999C399.972 78.3703 400.193 77.221 400.637 76.2519C401.087 75.2754 401.718 74.5242 402.53 73.9983C403.349 73.4725 404.31 73.2095 405.414 73.2095ZM405.392 74.742C404.393 74.742 403.596 75.0688 403.003 75.7223C402.41 76.3759 402.056 77.2886 401.944 78.4604H408.479C408.472 77.7243 408.355 77.0782 408.13 76.5223C407.912 75.9589 407.578 75.5232 407.127 75.2153C406.676 74.8998 406.098 74.742 405.392 74.742ZM417.606 84.4776C417.914 84.4776 418.23 84.4513 418.553 84.3987C418.876 84.3461 419.139 84.2823 419.342 84.2071V85.6607C419.124 85.7584 418.82 85.841 418.429 85.9086C418.046 85.9762 417.67 86.01 417.302 86.01C416.649 86.01 416.055 85.8973 415.522 85.672C414.988 85.4391 414.56 85.0485 414.237 84.5001C413.922 83.9517 413.764 83.193 413.764 82.224V74.8998H412.006V73.987L413.775 73.2546L414.519 70.5728H415.646V73.4349H419.263V74.8998H415.646V82.1676C415.646 82.9414 415.822 83.5198 416.175 83.9029C416.536 84.286 417.013 84.4776 417.606 84.4776ZM426.463 73.2321C427.935 73.2321 429.028 73.5626 429.742 74.2237C430.456 74.8847 430.812 75.9402 430.812 77.39V85.7847H429.449L429.088 83.9592H428.998C428.653 84.41 428.292 84.7893 427.917 85.0973C427.541 85.3978 427.105 85.6269 426.609 85.7847C426.121 85.9349 425.52 86.01 424.807 86.01C424.055 86.01 423.387 85.8786 422.801 85.6156C422.222 85.3527 421.764 84.9546 421.426 84.4212C421.096 83.8879 420.93 83.2118 420.93 82.393C420.93 81.161 421.419 80.2145 422.395 79.5534C423.372 78.8924 424.859 78.5318 426.857 78.4717L428.987 78.3816V77.6266C428.987 76.5599 428.758 75.8125 428.3 75.3843C427.841 74.9561 427.195 74.742 426.362 74.742C425.716 74.742 425.1 74.8359 424.514 75.0237C423.928 75.2115 423.372 75.4331 422.846 75.6885L422.271 74.2687C422.827 73.9833 423.466 73.7391 424.187 73.5363C424.908 73.3335 425.667 73.2321 426.463 73.2321ZM428.965 79.6999L427.083 79.7788C425.543 79.8389 424.457 80.0906 423.826 80.5338C423.195 80.977 422.88 81.6042 422.88 82.4155C422.88 83.1217 423.094 83.6437 423.522 83.9818C423.95 84.3198 424.517 84.4888 425.224 84.4888C426.32 84.4888 427.218 84.1846 427.917 83.5761C428.615 82.9677 428.965 82.055 428.965 80.838V79.6999Z" fill="#101E37"/>
</svg>
