<svg width="728" height="148" viewBox="0 0 728 148" fill="none" xmlns="http://www.w3.org/2000/svg">
<rect x="1" y="1" width="726" height="146" rx="7" fill="#F3F6F9"/>
<rect x="1" y="1" width="726" height="146" rx="7" stroke="#E6EBF0" stroke-width="2"/>
<rect x="184.538" y="57.0154" width="33.3385" height="33.3385" rx="4.54615" fill="white"/>
<rect x="184.538" y="57.0154" width="33.3385" height="33.3385" rx="4.54615" stroke="#101E37" stroke-width="3.03077"/>
<path d="M242.005 83.5H232.368V66.1915H242.005V67.9673H234.38V73.5671H241.567V75.3193H234.38V81.7242H242.005V83.5ZM249.736 82.1267C250.059 82.1267 250.391 82.0991 250.73 82.0438C251.069 81.9886 251.346 81.9215 251.559 81.8425V83.3698C251.33 83.4724 251.01 83.5592 250.6 83.6302C250.197 83.7013 249.803 83.7368 249.416 83.7368C248.729 83.7368 248.106 83.6184 247.545 83.3816C246.985 83.1369 246.535 82.7265 246.196 82.1504C245.864 81.5742 245.698 80.777 245.698 79.7589V72.0636H243.852V71.1046L245.71 70.3351L246.492 67.5174H247.676V70.5245H251.476V72.0636H247.676V79.6997C247.676 80.5126 247.861 81.1204 248.232 81.5229C248.611 81.9254 249.112 82.1267 249.736 82.1267ZM256.152 70.5245V83.5H254.187V70.5245H256.152ZM255.193 65.6706C255.517 65.6706 255.793 65.7771 256.022 65.9902C256.259 66.1954 256.377 66.519 256.377 66.961C256.377 67.3951 256.259 67.7187 256.022 67.9318C255.793 68.1449 255.517 68.2514 255.193 68.2514C254.854 68.2514 254.57 68.1449 254.341 67.9318C254.12 67.7187 254.009 67.3951 254.009 66.961C254.009 66.519 254.12 66.1954 254.341 65.9902C254.57 65.7771 254.854 65.6706 255.193 65.6706ZM269.021 89.3011V83.7368C269.021 83.429 269.029 83.0738 269.045 82.6713C269.061 82.2687 269.088 81.9215 269.128 81.6294H268.998C268.634 82.2293 268.118 82.7305 267.447 83.133C266.776 83.5355 265.912 83.7368 264.854 83.7368C263.267 83.7368 261.993 83.1764 261.03 82.0556C260.067 80.9349 259.586 79.2617 259.586 77.0359C259.586 75.5758 259.807 74.3446 260.249 73.3422C260.691 72.3398 261.314 71.5821 262.119 71.0691C262.932 70.5482 263.879 70.2877 264.96 70.2877C265.994 70.2877 266.839 70.4929 267.494 70.9034C268.149 71.3059 268.662 71.7992 269.033 72.3832H269.128L269.424 70.5245H270.986V89.3011H269.021ZM265.221 82.103C266.136 82.103 266.87 81.9333 267.423 81.5939C267.975 81.2467 268.378 80.7257 268.631 80.0312C268.891 79.3366 269.029 78.4724 269.045 77.4385V77.0241C269.045 75.3509 268.761 74.0841 268.192 73.2238C267.624 72.3556 266.634 71.9215 265.221 71.9215C264.005 71.9215 263.102 72.3872 262.51 73.3185C261.918 74.2419 261.622 75.4969 261.622 77.0833C261.622 78.6697 261.918 79.9049 262.51 80.7889C263.102 81.665 264.005 82.103 265.221 82.103ZM285.88 70.5245V83.5H284.27L283.986 81.6768H283.879C283.611 82.1267 283.263 82.5055 282.837 82.8133C282.411 83.1212 281.93 83.35 281.393 83.5C280.864 83.6579 280.3 83.7368 279.7 83.7368C278.674 83.7368 277.814 83.571 277.119 83.2395C276.425 82.9081 275.9 82.395 275.544 81.7005C275.197 81.0059 275.024 80.1141 275.024 79.0249V70.5245H277.013V78.8828C277.013 79.9641 277.257 80.7731 277.747 81.3098C278.236 81.8386 278.982 82.103 279.984 82.103C280.947 82.103 281.713 81.9215 282.281 81.5584C282.857 81.1954 283.271 80.6626 283.524 79.9602C283.776 79.2498 283.903 78.3816 283.903 77.3556V70.5245H285.88ZM295.031 70.2877C296.136 70.2877 297.083 70.5324 297.873 71.0218C298.662 71.5111 299.266 72.1978 299.684 73.0817C300.102 73.9578 300.312 74.9839 300.312 76.1599V77.3793H291.349C291.373 78.9025 291.752 80.0628 292.486 80.8599C293.22 81.6571 294.254 82.0556 295.588 82.0556C296.409 82.0556 297.135 81.9807 297.766 81.8307C298.398 81.6807 299.053 81.4598 299.731 81.1677V82.8962C299.076 83.1882 298.425 83.4013 297.778 83.5355C297.139 83.6697 296.381 83.7368 295.505 83.7368C294.258 83.7368 293.169 83.4842 292.237 82.9791C291.314 82.4661 290.596 81.7163 290.083 80.7297C289.57 79.7431 289.313 78.5355 289.313 77.107C289.313 75.71 289.546 74.5024 290.012 73.4843C290.485 72.4582 291.148 71.6689 292.001 71.1165C292.861 70.564 293.871 70.2877 295.031 70.2877ZM295.008 71.8978C293.958 71.8978 293.121 72.2412 292.498 72.9278C291.874 73.6145 291.503 74.5734 291.385 75.8047H298.252C298.244 75.0312 298.121 74.3524 297.885 73.7684C297.656 73.1764 297.304 72.7187 296.831 72.3951C296.357 72.0636 295.75 71.8978 295.008 71.8978ZM307.841 82.1267C308.165 82.1267 308.496 82.0991 308.836 82.0438C309.175 81.9886 309.451 81.9215 309.664 81.8425V83.3698C309.435 83.4724 309.116 83.5592 308.705 83.6302C308.303 83.7013 307.908 83.7368 307.521 83.7368C306.835 83.7368 306.211 83.6184 305.651 83.3816C305.091 83.1369 304.641 82.7265 304.301 82.1504C303.97 81.5742 303.804 80.777 303.804 79.7589V72.0636H301.957V71.1046L303.816 70.3351L304.597 67.5174H305.781V70.5245H309.581V72.0636H305.781V79.6997C305.781 80.5126 305.967 81.1204 306.338 81.5229C306.716 81.9254 307.218 82.1267 307.841 82.1267ZM317.147 70.3114C318.693 70.3114 319.842 70.6587 320.592 71.3532C321.341 72.0478 321.716 73.1567 321.716 74.68V83.5H320.284L319.905 81.5821H319.81C319.447 82.0556 319.068 82.4542 318.674 82.7778C318.279 83.0935 317.821 83.3343 317.3 83.5C316.787 83.6579 316.156 83.7368 315.406 83.7368C314.617 83.7368 313.914 83.5987 313.299 83.3224C312.691 83.0462 312.21 82.6279 311.855 82.0675C311.507 81.5071 311.334 80.7968 311.334 79.9365C311.334 78.6421 311.847 77.6476 312.873 76.9531C313.899 76.2585 315.461 75.8797 317.561 75.8165L319.798 75.7218V74.9286C319.798 73.8079 319.558 73.0225 319.076 72.5727C318.595 72.1228 317.916 71.8978 317.04 71.8978C316.361 71.8978 315.714 71.9965 315.098 72.1938C314.483 72.3911 313.899 72.624 313.346 72.8923L312.742 71.4006C313.326 71.1007 313.997 70.8442 314.755 70.6311C315.513 70.418 316.31 70.3114 317.147 70.3114ZM319.775 77.107L317.798 77.1898C316.18 77.253 315.039 77.5174 314.376 77.9831C313.713 78.4487 313.382 79.1078 313.382 79.9602C313.382 80.7021 313.607 81.2506 314.057 81.6058C314.506 81.9609 315.102 82.1385 315.844 82.1385C316.997 82.1385 317.94 81.8189 318.674 81.1796C319.408 80.5403 319.775 79.5813 319.775 78.3027V77.107Z" fill="#101E37"/>
<rect x="414.608" y="55.5" width="36.3692" height="36.3692" rx="6.06154" fill="#274986"/>
<path d="M429.15 78.0887L425.206 74.1449C424.763 73.7017 424.047 73.7017 423.603 74.1449C423.16 74.5882 423.16 75.3042 423.603 75.7474L428.354 80.4982C428.797 80.9414 429.513 80.9414 429.957 80.4982L441.981 68.4736C442.424 68.0303 442.424 67.3143 441.981 66.8711C441.538 66.4278 440.822 66.4278 440.379 66.8711L429.15 78.0887Z" fill="white"/>
<path d="M473.589 83.5H463.952V66.1915H473.589V67.9673H465.965V73.5671H473.151V75.3193H465.965V81.7242H473.589V83.5ZM481.32 82.1267C481.644 82.1267 481.975 82.0991 482.315 82.0438C482.654 81.9886 482.93 81.9215 483.143 81.8425V83.3698C482.914 83.4724 482.595 83.5592 482.184 83.6302C481.782 83.7013 481.387 83.7368 481 83.7368C480.314 83.7368 479.69 83.6184 479.13 83.3816C478.57 83.1369 478.12 82.7265 477.78 82.1504C477.449 81.5742 477.283 80.777 477.283 79.7589V72.0636H475.436V71.1046L477.295 70.3351L478.076 67.5174H479.26V70.5245H483.06V72.0636H479.26V79.6997C479.26 80.5126 479.446 81.1204 479.817 81.5229C480.195 81.9254 480.697 82.1267 481.32 82.1267ZM487.737 70.5245V83.5H485.772V70.5245H487.737ZM486.778 65.6706C487.101 65.6706 487.378 65.7771 487.607 65.9902C487.843 66.1954 487.962 66.519 487.962 66.961C487.962 67.3951 487.843 67.7187 487.607 67.9318C487.378 68.1449 487.101 68.2514 486.778 68.2514C486.438 68.2514 486.154 68.1449 485.925 67.9318C485.704 67.7187 485.594 67.3951 485.594 66.961C485.594 66.519 485.704 66.1954 485.925 65.9902C486.154 65.7771 486.438 65.6706 486.778 65.6706ZM500.606 89.3011V83.7368C500.606 83.429 500.614 83.0738 500.629 82.6713C500.645 82.2687 500.673 81.9215 500.712 81.6294H500.582C500.219 82.2293 499.702 82.7305 499.031 83.133C498.36 83.5355 497.496 83.7368 496.438 83.7368C494.852 83.7368 493.577 83.1764 492.614 82.0556C491.652 80.9349 491.17 79.2617 491.17 77.0359C491.17 75.5758 491.391 74.3446 491.833 73.3422C492.275 72.3398 492.899 71.5821 493.704 71.0691C494.517 70.5482 495.464 70.2877 496.545 70.2877C497.579 70.2877 498.423 70.4929 499.079 70.9034C499.734 71.3059 500.247 71.7992 500.618 72.3832H500.712L501.008 70.5245H502.571V89.3011H500.606ZM496.805 82.103C497.721 82.103 498.455 81.9333 499.007 81.5939C499.56 81.2467 499.963 80.7257 500.215 80.0312C500.476 79.3366 500.614 78.4724 500.629 77.4385V77.0241C500.629 75.3509 500.345 74.0841 499.777 73.2238C499.209 72.3556 498.218 71.9215 496.805 71.9215C495.59 71.9215 494.686 72.3872 494.094 73.3185C493.502 74.2419 493.206 75.4969 493.206 77.0833C493.206 78.6697 493.502 79.9049 494.094 80.7889C494.686 81.665 495.59 82.103 496.805 82.103ZM517.464 70.5245V83.5H515.854L515.57 81.6768H515.464C515.195 82.1267 514.848 82.5055 514.422 82.8133C513.996 83.1212 513.514 83.35 512.977 83.5C512.449 83.6579 511.884 83.7368 511.284 83.7368C510.258 83.7368 509.398 83.571 508.704 83.2395C508.009 82.9081 507.484 82.395 507.129 81.7005C506.782 81.0059 506.608 80.1141 506.608 79.0249V70.5245H508.597V78.8828C508.597 79.9641 508.842 80.7731 509.331 81.3098C509.82 81.8386 510.566 82.103 511.569 82.103C512.532 82.103 513.297 81.9215 513.865 81.5584C514.442 81.1954 514.856 80.6626 515.108 79.9602C515.361 79.2498 515.487 78.3816 515.487 77.3556V70.5245H517.464ZM526.616 70.2877C527.721 70.2877 528.668 70.5324 529.457 71.0218C530.247 71.5111 530.85 72.1978 531.269 73.0817C531.687 73.9578 531.896 74.9839 531.896 76.1599V77.3793H522.934C522.958 78.9025 523.337 80.0628 524.071 80.8599C524.805 81.6571 525.838 82.0556 527.172 82.0556C527.993 82.0556 528.719 81.9807 529.351 81.8307C529.982 81.6807 530.637 81.4598 531.316 81.1677V82.8962C530.661 83.1882 530.01 83.4013 529.363 83.5355C528.723 83.6697 527.966 83.7368 527.089 83.7368C525.842 83.7368 524.753 83.4842 523.822 82.9791C522.898 82.4661 522.18 81.7163 521.667 80.7297C521.154 79.7431 520.898 78.5355 520.898 77.107C520.898 75.71 521.131 74.5024 521.596 73.4843C522.07 72.4582 522.733 71.6689 523.585 71.1165C524.445 70.564 525.456 70.2877 526.616 70.2877ZM526.592 71.8978C525.543 71.8978 524.706 72.2412 524.082 72.9278C523.459 73.6145 523.088 74.5734 522.97 75.8047H529.836C529.828 75.0312 529.706 74.3524 529.469 73.7684C529.24 73.1764 528.889 72.7187 528.415 72.3951C527.942 72.0636 527.334 71.8978 526.592 71.8978ZM539.426 82.1267C539.749 82.1267 540.081 82.0991 540.42 82.0438C540.759 81.9886 541.036 81.9215 541.249 81.8425V83.3698C541.02 83.4724 540.7 83.5592 540.29 83.6302C539.887 83.7013 539.493 83.7368 539.106 83.7368C538.419 83.7368 537.796 83.6184 537.235 83.3816C536.675 83.1369 536.225 82.7265 535.886 82.1504C535.554 81.5742 535.389 80.777 535.389 79.7589V72.0636H533.542V71.1046L535.4 70.3351L536.182 67.5174H537.366V70.5245H541.166V72.0636H537.366V79.6997C537.366 80.5126 537.551 81.1204 537.922 81.5229C538.301 81.9254 538.802 82.1267 539.426 82.1267ZM548.731 70.3114C550.278 70.3114 551.426 70.6587 552.176 71.3532C552.926 72.0478 553.301 73.1567 553.301 74.68V83.5H551.868L551.49 81.5821H551.395C551.032 82.0556 550.653 82.4542 550.258 82.7778C549.864 83.0935 549.406 83.3343 548.885 83.5C548.372 83.6579 547.741 83.7368 546.991 83.7368C546.201 83.7368 545.499 83.5987 544.883 83.3224C544.276 83.0462 543.794 82.6279 543.439 82.0675C543.092 81.5071 542.918 80.7968 542.918 79.9365C542.918 78.6421 543.431 77.6476 544.457 76.9531C545.483 76.2585 547.046 75.8797 549.145 75.8165L551.383 75.7218V74.9286C551.383 73.8079 551.142 73.0225 550.661 72.5727C550.179 72.1228 549.501 71.8978 548.624 71.8978C547.946 71.8978 547.299 71.9965 546.683 72.1938C546.067 72.3911 545.483 72.624 544.931 72.8923L544.327 71.4006C544.911 71.1007 545.582 70.8442 546.34 70.6311C547.097 70.418 547.894 70.3114 548.731 70.3114ZM551.359 77.107L549.382 77.1898C547.764 77.253 546.624 77.5174 545.961 77.9831C545.298 78.4487 544.966 79.1078 544.966 79.9602C544.966 80.7021 545.191 81.2506 545.641 81.6058C546.091 81.9609 546.687 82.1385 547.429 82.1385C548.581 82.1385 549.524 81.8189 550.258 81.1796C550.992 80.5403 551.359 79.5813 551.359 78.3027V77.107Z" fill="#101E37"/>
</svg>
