<svg width="728" height="438" viewBox="0 0 728 438" fill="none" xmlns="http://www.w3.org/2000/svg">
<rect x="1" y="1" width="726" height="436" rx="7" fill="#F3F6F9"/>
<rect x="1" y="1" width="726" height="436" rx="7" stroke="#E6EBF0" stroke-width="2"/>
<rect x="254" y="37" width="220" height="364" rx="10" fill="white"/>
<rect x="254" y="37" width="220" height="364" rx="10" stroke="#333333" stroke-width="4"/>
<rect x="264" y="104.301" width="78.9894" height="11.4894" rx="2" fill="#E6EBF0"/>
<rect x="264" y="119.79" width="200" height="11.4894" rx="2" fill="#E6EBF0"/>
<rect x="264" y="135.279" width="194" height="11" rx="2" fill="#E6EBF0"/>
<rect x="264" y="150.279" width="200" height="11.4894" rx="2" fill="#E6EBF0"/>
<rect x="264" y="165.769" width="194" height="11" rx="2" fill="#E6EBF0"/>
<rect x="264" y="200.769" width="200" height="66.9512" rx="4.87805" fill="#336ACC"/>
<path d="M281.073 211.745C277.707 211.745 274.976 214.476 274.976 217.842C274.976 221.208 277.707 223.94 281.073 223.94C284.439 223.94 287.171 221.208 287.171 217.842C287.171 214.476 284.439 211.745 281.073 211.745ZM281.073 220.891C280.738 220.891 280.463 220.617 280.463 220.281V217.842C280.463 217.507 280.738 217.232 281.073 217.232C281.409 217.232 281.683 217.507 281.683 217.842V220.281C281.683 220.617 281.409 220.891 281.073 220.891ZM281.683 216.013H280.463V214.793H281.683V216.013Z" fill="white"/>
<path d="M300.847 221.525L300.342 219.867H297.803L297.298 221.525H295.707L298.165 214.532H299.971L302.438 221.525H300.847ZM299.99 218.629L299.485 217.009C299.453 216.901 299.41 216.763 299.356 216.594C299.306 216.423 299.253 216.25 299.199 216.075C299.148 215.897 299.107 215.743 299.075 215.613C299.044 215.743 298.999 215.905 298.942 216.099C298.888 216.29 298.836 216.471 298.785 216.642C298.734 216.814 298.697 216.936 298.675 217.009L298.175 218.629H299.99ZM305.368 221.62C304.841 221.62 304.392 221.525 304.02 221.334C303.648 221.141 303.366 220.842 303.172 220.439C302.978 220.035 302.881 219.519 302.881 218.891C302.881 218.24 302.991 217.709 303.21 217.299C303.433 216.887 303.739 216.583 304.13 216.39C304.523 216.196 304.979 216.099 305.497 216.099C305.865 216.099 306.183 216.136 306.45 216.209C306.719 216.278 306.954 216.363 307.155 216.461L306.726 217.585C306.497 217.493 306.284 217.419 306.087 217.361C305.891 217.301 305.694 217.271 305.497 217.271C305.243 217.271 305.032 217.331 304.863 217.452C304.695 217.569 304.569 217.747 304.487 217.985C304.404 218.224 304.363 218.522 304.363 218.881C304.363 219.234 304.407 219.526 304.496 219.758C304.585 219.989 304.714 220.162 304.882 220.277C305.051 220.388 305.255 220.444 305.497 220.444C305.798 220.444 306.067 220.404 306.302 220.324C306.537 220.242 306.766 220.128 306.988 219.981V221.225C306.766 221.365 306.532 221.465 306.288 221.525C306.046 221.588 305.74 221.62 305.368 221.62ZM310.47 220.463C310.629 220.463 310.783 220.447 310.932 220.415C311.085 220.383 311.235 220.343 311.385 220.296V221.377C311.229 221.447 311.035 221.504 310.804 221.549C310.575 221.596 310.324 221.62 310.051 221.62C309.733 221.62 309.447 221.569 309.193 221.468C308.943 221.363 308.744 221.184 308.598 220.929C308.455 220.672 308.384 220.315 308.384 219.858V217.29H307.688V216.675L308.488 216.19L308.908 215.065H309.837V216.199H311.328V217.29H309.837V219.858C309.837 220.061 309.894 220.213 310.008 220.315C310.126 220.413 310.28 220.463 310.47 220.463ZM317.354 216.199V221.525H316.239L316.044 220.844H315.967C315.853 221.025 315.71 221.172 315.539 221.287C315.367 221.401 315.178 221.485 314.972 221.539C314.765 221.593 314.551 221.62 314.329 221.62C313.948 221.62 313.616 221.553 313.333 221.42C313.05 221.284 312.83 221.072 312.671 220.787C312.515 220.501 312.438 220.129 312.438 219.672V216.199H313.89V219.31C313.89 219.691 313.959 219.978 314.095 220.172C314.232 220.366 314.449 220.463 314.748 220.463C315.043 220.463 315.275 220.396 315.443 220.263C315.612 220.126 315.729 219.927 315.796 219.667C315.866 219.403 315.901 219.083 315.901 218.705V216.199H317.354ZM321.06 216.089C321.774 216.089 322.322 216.245 322.703 216.556C323.084 216.868 323.275 217.341 323.275 217.976V221.525H322.26L321.979 220.801H321.941C321.789 220.991 321.633 221.147 321.474 221.268C321.316 221.388 321.133 221.477 320.926 221.534C320.72 221.592 320.469 221.62 320.174 221.62C319.859 221.62 319.577 221.56 319.326 221.439C319.078 221.318 318.883 221.134 318.74 220.887C318.597 220.636 318.526 220.318 318.526 219.934C318.526 219.369 318.724 218.952 319.121 218.686C319.518 218.416 320.113 218.267 320.907 218.238L321.832 218.209V217.976C321.832 217.696 321.759 217.492 321.612 217.361C321.466 217.231 321.263 217.166 321.003 217.166C320.745 217.166 320.493 217.203 320.245 217.276C319.998 217.349 319.75 217.441 319.502 217.552L319.021 216.571C319.304 216.421 319.62 216.304 319.969 216.218C320.321 216.132 320.685 216.089 321.06 216.089ZM321.832 219.057L321.269 219.076C320.799 219.089 320.472 219.173 320.288 219.329C320.107 219.484 320.017 219.689 320.017 219.943C320.017 220.166 320.082 220.324 320.212 220.42C320.342 220.512 320.512 220.558 320.722 220.558C321.033 220.558 321.295 220.466 321.508 220.282C321.724 220.097 321.832 219.835 321.832 219.496V219.057ZM326.228 221.525H324.776V214.113H326.228V221.525ZM329.211 216.199V221.525H327.758V216.199H329.211ZM328.486 214.113C328.702 214.113 328.888 214.163 329.044 214.265C329.199 214.363 329.277 214.549 329.277 214.822C329.277 215.092 329.199 215.28 329.044 215.384C328.888 215.486 328.702 215.537 328.486 215.537C328.267 215.537 328.08 215.486 327.924 215.384C327.772 215.28 327.696 215.092 327.696 214.822C327.696 214.549 327.772 214.363 327.924 214.265C328.08 214.163 328.267 214.113 328.486 214.113ZM334.446 221.525H330.24V220.667L332.707 217.309H330.387V216.199H334.36V217.142L331.959 220.415H334.446V221.525ZM337.685 216.089C338.4 216.089 338.948 216.245 339.329 216.556C339.71 216.868 339.9 217.341 339.9 217.976V221.525H338.886L338.605 220.801H338.567C338.414 220.991 338.258 221.147 338.1 221.268C337.941 221.388 337.758 221.477 337.552 221.534C337.345 221.592 337.095 221.62 336.799 221.62C336.485 221.62 336.202 221.56 335.951 221.439C335.704 221.318 335.508 221.134 335.365 220.887C335.222 220.636 335.151 220.318 335.151 219.934C335.151 219.369 335.349 218.952 335.746 218.686C336.143 218.416 336.739 218.267 337.533 218.238L338.457 218.209V217.976C338.457 217.696 338.384 217.492 338.238 217.361C338.092 217.231 337.888 217.166 337.628 217.166C337.371 217.166 337.118 217.203 336.871 217.276C336.623 217.349 336.375 217.441 336.127 217.552L335.646 216.571C335.929 216.421 336.245 216.304 336.594 216.218C336.947 216.132 337.31 216.089 337.685 216.089ZM338.457 219.057L337.895 219.076C337.425 219.089 337.098 219.173 336.914 219.329C336.732 219.484 336.642 219.689 336.642 219.943C336.642 220.166 336.707 220.324 336.837 220.42C336.968 220.512 337.137 220.558 337.347 220.558C337.658 220.558 337.92 220.466 338.133 220.282C338.349 220.097 338.457 219.835 338.457 219.496V219.057ZM343.564 221.62C343.036 221.62 342.587 221.525 342.216 221.334C341.844 221.141 341.561 220.842 341.368 220.439C341.174 220.035 341.077 219.519 341.077 218.891C341.077 218.24 341.187 217.709 341.406 217.299C341.628 216.887 341.934 216.583 342.325 216.39C342.719 216.196 343.175 216.099 343.692 216.099C344.061 216.099 344.378 216.136 344.645 216.209C344.915 216.278 345.15 216.363 345.35 216.461L344.921 217.585C344.693 217.493 344.48 217.419 344.283 217.361C344.086 217.301 343.889 217.271 343.692 217.271C343.438 217.271 343.227 217.331 343.059 217.452C342.89 217.569 342.765 217.747 342.682 217.985C342.6 218.224 342.559 218.522 342.559 218.881C342.559 219.234 342.603 219.526 342.692 219.758C342.781 219.989 342.909 220.162 343.078 220.277C343.246 220.388 343.451 220.444 343.692 220.444C343.994 220.444 344.262 220.404 344.497 220.324C344.732 220.242 344.961 220.128 345.183 219.981V221.225C344.961 221.365 344.728 221.465 344.483 221.525C344.242 221.588 343.935 221.62 343.564 221.62ZM347.875 216.199V221.525H346.422V216.199H347.875ZM347.151 214.113C347.367 214.113 347.552 214.163 347.708 214.265C347.864 214.363 347.942 214.549 347.942 214.822C347.942 215.092 347.864 215.28 347.708 215.384C347.552 215.486 347.367 215.537 347.151 215.537C346.932 215.537 346.744 215.486 346.589 215.384C346.436 215.28 346.36 215.092 346.36 214.822C346.36 214.549 346.436 214.363 346.589 214.265C346.744 214.163 346.932 214.113 347.151 214.113ZM354.244 218.852C354.244 219.297 354.184 219.691 354.063 220.034C353.945 220.377 353.772 220.667 353.544 220.906C353.318 221.141 353.045 221.318 352.724 221.439C352.407 221.56 352.048 221.62 351.648 221.62C351.273 221.62 350.928 221.56 350.614 221.439C350.303 221.318 350.031 221.141 349.799 220.906C349.571 220.667 349.393 220.377 349.266 220.034C349.142 219.691 349.08 219.297 349.08 218.852C349.08 218.262 349.185 217.762 349.394 217.352C349.604 216.942 349.903 216.631 350.29 216.418C350.677 216.205 351.14 216.099 351.676 216.099C352.175 216.099 352.616 216.205 353.001 216.418C353.388 216.631 353.691 216.942 353.91 217.352C354.133 217.762 354.244 218.262 354.244 218.852ZM350.562 218.852C350.562 219.202 350.6 219.496 350.676 219.734C350.752 219.972 350.871 220.151 351.033 220.272C351.195 220.393 351.406 220.453 351.667 220.453C351.924 220.453 352.132 220.393 352.291 220.272C352.453 220.151 352.57 219.972 352.643 219.734C352.72 219.496 352.758 219.202 352.758 218.852C352.758 218.5 352.72 218.208 352.643 217.976C352.57 217.741 352.453 217.565 352.291 217.447C352.129 217.33 351.918 217.271 351.657 217.271C351.273 217.271 350.993 217.403 350.819 217.666C350.647 217.93 350.562 218.325 350.562 218.852ZM353.539 214.051V214.151C353.447 214.24 353.326 214.349 353.177 214.479C353.028 214.61 352.867 214.746 352.696 214.889C352.524 215.029 352.356 215.164 352.191 215.294C352.026 215.421 351.881 215.527 351.757 215.613H350.79V215.485C350.895 215.364 351.016 215.221 351.152 215.056C351.292 214.887 351.43 214.714 351.567 214.537C351.703 214.359 351.818 214.197 351.91 214.051H353.539ZM358.469 216.099C359.038 216.099 359.495 216.255 359.841 216.566C360.187 216.874 360.361 217.369 360.361 218.052V221.525H358.908V218.414C358.908 218.033 358.838 217.746 358.698 217.552C358.561 217.358 358.345 217.261 358.05 217.261C357.606 217.261 357.302 217.412 357.14 217.714C356.978 218.016 356.897 218.451 356.897 219.019V221.525H355.444V216.199H356.554L356.75 216.88H356.831C356.945 216.696 357.086 216.547 357.255 216.432C357.426 216.318 357.615 216.234 357.821 216.18C358.031 216.126 358.247 216.099 358.469 216.099ZM366.077 221.62C365.483 221.62 364.999 221.388 364.624 220.925C364.252 220.458 364.067 219.773 364.067 218.872C364.067 217.96 364.256 217.271 364.634 216.804C365.012 216.334 365.505 216.099 366.115 216.099C366.369 216.099 366.593 216.134 366.787 216.204C366.981 216.274 367.147 216.367 367.287 216.485C367.43 216.602 367.551 216.734 367.649 216.88H367.697C367.678 216.779 367.654 216.629 367.625 216.432C367.6 216.232 367.587 216.028 367.587 215.818V214.113H369.045V221.525H367.93L367.649 220.834H367.587C367.495 220.98 367.379 221.114 367.239 221.234C367.103 221.352 366.939 221.446 366.749 221.515C366.558 221.585 366.334 221.62 366.077 221.62ZM366.587 220.463C366.984 220.463 367.263 220.345 367.425 220.11C367.59 219.872 367.678 219.515 367.687 219.038V218.881C367.687 218.363 367.608 217.968 367.449 217.695C367.29 217.419 366.995 217.28 366.563 217.28C366.242 217.28 365.991 217.419 365.81 217.695C365.629 217.971 365.539 218.37 365.539 218.891C365.539 219.411 365.629 219.804 365.81 220.067C365.994 220.331 366.253 220.463 366.587 220.463ZM372.761 216.099C373.253 216.099 373.677 216.194 374.032 216.385C374.388 216.572 374.663 216.845 374.857 217.204C375.05 217.563 375.147 218.001 375.147 218.519V219.224H371.712C371.728 219.634 371.851 219.956 372.079 220.191C372.311 220.423 372.632 220.539 373.042 220.539C373.381 220.539 373.693 220.504 373.975 220.434C374.258 220.364 374.548 220.259 374.847 220.12V221.244C374.583 221.374 374.307 221.469 374.018 221.53C373.732 221.59 373.385 221.62 372.975 221.62C372.441 221.62 371.968 221.522 371.555 221.325C371.146 221.128 370.823 220.828 370.588 220.424C370.356 220.021 370.24 219.513 370.24 218.9C370.24 218.278 370.345 217.76 370.555 217.347C370.768 216.931 371.063 216.62 371.441 216.413C371.819 216.204 372.259 216.099 372.761 216.099ZM372.77 217.133C372.487 217.133 372.252 217.223 372.065 217.404C371.881 217.585 371.774 217.87 371.746 218.257H373.785C373.782 218.041 373.742 217.849 373.666 217.681C373.593 217.512 373.481 217.379 373.332 217.28C373.186 217.182 372.999 217.133 372.77 217.133ZM377.781 221.525H376.329V214.113H377.781V221.525ZM385.561 219.943C385.561 220.305 385.475 220.612 385.303 220.863C385.135 221.11 384.883 221.299 384.546 221.43C384.209 221.557 383.79 221.62 383.288 221.62C382.917 221.62 382.598 221.596 382.331 221.549C382.067 221.501 381.8 221.422 381.531 221.311V220.11C381.82 220.24 382.129 220.348 382.459 220.434C382.793 220.517 383.085 220.558 383.336 220.558C383.619 220.558 383.82 220.517 383.941 220.434C384.065 220.348 384.127 220.237 384.127 220.101C384.127 220.012 384.101 219.932 384.051 219.862C384.003 219.789 383.898 219.708 383.736 219.619C383.574 219.527 383.32 219.408 382.974 219.262C382.64 219.122 382.366 218.981 382.15 218.838C381.937 218.695 381.778 218.527 381.673 218.333C381.572 218.136 381.521 217.887 381.521 217.585C381.521 217.093 381.712 216.723 382.093 216.475C382.477 216.224 382.99 216.099 383.631 216.099C383.962 216.099 384.276 216.132 384.575 216.199C384.876 216.266 385.186 216.372 385.503 216.518L385.065 217.566C384.802 217.452 384.552 217.358 384.317 217.285C384.085 217.212 383.849 217.176 383.607 217.176C383.395 217.176 383.234 217.204 383.126 217.261C383.018 217.319 382.964 217.406 382.964 217.523C382.964 217.609 382.991 217.685 383.045 217.752C383.103 217.819 383.211 217.893 383.369 217.976C383.531 218.055 383.768 218.159 384.079 218.286C384.381 218.409 384.643 218.54 384.865 218.676C385.087 218.81 385.259 218.976 385.38 219.176C385.5 219.373 385.561 219.629 385.561 219.943ZM388.147 216.199V221.525H386.694V216.199H388.147ZM387.423 214.113C387.639 214.113 387.825 214.163 387.981 214.265C388.136 214.363 388.214 214.549 388.214 214.822C388.214 215.092 388.136 215.28 387.981 215.384C387.825 215.486 387.639 215.537 387.423 215.537C387.204 215.537 387.017 215.486 386.861 215.384C386.709 215.28 386.632 215.092 386.632 214.822C386.632 214.549 386.709 214.363 386.861 214.265C387.017 214.163 387.204 214.113 387.423 214.113ZM393.392 219.943C393.392 220.305 393.306 220.612 393.135 220.863C392.967 221.11 392.714 221.299 392.378 221.43C392.041 221.557 391.622 221.62 391.12 221.62C390.748 221.62 390.429 221.596 390.162 221.549C389.899 221.501 389.632 221.422 389.362 221.311V220.11C389.651 220.24 389.961 220.348 390.291 220.434C390.624 220.517 390.917 220.558 391.168 220.558C391.45 220.558 391.652 220.517 391.773 220.434C391.896 220.348 391.958 220.237 391.958 220.101C391.958 220.012 391.933 219.932 391.882 219.862C391.834 219.789 391.73 219.708 391.568 219.619C391.406 219.527 391.152 219.408 390.805 219.262C390.472 219.122 390.197 218.981 389.981 218.838C389.769 218.695 389.61 218.527 389.505 218.333C389.403 218.136 389.353 217.887 389.353 217.585C389.353 217.093 389.543 216.723 389.924 216.475C390.308 216.224 390.821 216.099 391.463 216.099C391.793 216.099 392.108 216.132 392.406 216.199C392.708 216.266 393.017 216.372 393.335 216.518L392.897 217.566C392.633 217.452 392.384 217.358 392.149 217.285C391.917 217.212 391.68 217.176 391.439 217.176C391.226 217.176 391.066 217.204 390.958 217.261C390.85 217.319 390.796 217.406 390.796 217.523C390.796 217.609 390.823 217.685 390.877 217.752C390.934 217.819 391.042 217.893 391.201 217.976C391.363 218.055 391.599 218.159 391.911 218.286C392.212 218.409 392.474 218.54 392.697 218.676C392.919 218.81 393.09 218.976 393.211 219.176C393.332 219.373 393.392 219.629 393.392 219.943ZM396.77 220.463C396.928 220.463 397.082 220.447 397.232 220.415C397.384 220.383 397.535 220.343 397.684 220.296V221.377C397.529 221.447 397.335 221.504 397.103 221.549C396.874 221.596 396.624 221.62 396.35 221.62C396.033 221.62 395.747 221.569 395.493 221.468C395.242 221.363 395.044 221.184 394.898 220.929C394.755 220.672 394.683 220.315 394.683 219.858V217.29H393.988V216.675L394.788 216.19L395.207 215.065H396.136V216.199H397.627V217.29H396.136V219.858C396.136 220.061 396.193 220.213 396.308 220.315C396.425 220.413 396.579 220.463 396.77 220.463ZM400.962 216.099C401.454 216.099 401.878 216.194 402.234 216.385C402.589 216.572 402.864 216.845 403.058 217.204C403.251 217.563 403.348 218.001 403.348 218.519V219.224H399.914C399.93 219.634 400.052 219.956 400.281 220.191C400.512 220.423 400.833 220.539 401.243 220.539C401.583 220.539 401.894 220.504 402.176 220.434C402.459 220.364 402.75 220.259 403.048 220.12V221.244C402.785 221.374 402.508 221.469 402.219 221.53C401.934 221.59 401.586 221.62 401.176 221.62C400.643 221.62 400.169 221.522 399.756 221.325C399.347 221.128 399.024 220.828 398.789 220.424C398.558 220.021 398.442 219.513 398.442 218.9C398.442 218.278 398.547 217.76 398.756 217.347C398.969 216.931 399.264 216.62 399.642 216.413C400.02 216.204 400.46 216.099 400.962 216.099ZM400.971 217.133C400.689 217.133 400.454 217.223 400.266 217.404C400.082 217.585 399.976 217.87 399.947 218.257H401.986C401.983 218.041 401.943 217.849 401.867 217.681C401.794 217.512 401.683 217.379 401.533 217.28C401.387 217.182 401.2 217.133 400.971 217.133ZM410.785 216.099C411.388 216.099 411.844 216.255 412.152 216.566C412.463 216.874 412.619 217.369 412.619 218.052V221.525H411.161V218.414C411.161 218.033 411.096 217.746 410.966 217.552C410.835 217.358 410.634 217.261 410.361 217.261C409.976 217.261 409.703 217.4 409.541 217.676C409.379 217.949 409.298 218.341 409.298 218.852V221.525H407.845V218.414C407.845 218.16 407.817 217.947 407.76 217.776C407.702 217.604 407.615 217.476 407.498 217.39C407.38 217.304 407.229 217.261 407.045 217.261C406.775 217.261 406.562 217.33 406.407 217.466C406.254 217.6 406.145 217.798 406.078 218.062C406.014 218.322 405.983 218.641 405.983 219.019V221.525H404.53V216.199H405.64L405.835 216.88H405.916C406.024 216.696 406.159 216.547 406.321 216.432C406.486 216.318 406.667 216.234 406.864 216.18C407.061 216.126 407.261 216.099 407.464 216.099C407.855 216.099 408.185 216.163 408.455 216.29C408.728 216.417 408.938 216.614 409.084 216.88H409.212C409.371 216.607 409.595 216.409 409.884 216.285C410.176 216.161 410.476 216.099 410.785 216.099ZM416.296 216.089C417.011 216.089 417.559 216.245 417.94 216.556C418.321 216.868 418.511 217.341 418.511 217.976V221.525H417.497L417.216 220.801H417.177C417.025 220.991 416.869 221.147 416.711 221.268C416.552 221.388 416.369 221.477 416.163 221.534C415.956 221.592 415.705 221.62 415.41 221.62C415.096 221.62 414.813 221.56 414.562 221.439C414.314 221.318 414.119 221.134 413.976 220.887C413.833 220.636 413.762 220.318 413.762 219.934C413.762 219.369 413.96 218.952 414.357 218.686C414.754 218.416 415.35 218.267 416.144 218.238L417.068 218.209V217.976C417.068 217.696 416.995 217.492 416.849 217.361C416.703 217.231 416.499 217.166 416.239 217.166C415.982 217.166 415.729 217.203 415.482 217.276C415.234 217.349 414.986 217.441 414.738 217.552L414.257 216.571C414.54 216.421 414.856 216.304 415.205 216.218C415.558 216.132 415.921 216.089 416.296 216.089ZM417.068 219.057L416.506 219.076C416.036 219.089 415.709 219.173 415.524 219.329C415.343 219.484 415.253 219.689 415.253 219.943C415.253 220.166 415.318 220.324 415.448 220.42C415.578 220.512 415.748 220.558 415.958 220.558C416.269 220.558 416.531 220.466 416.744 220.282C416.96 220.097 417.068 219.835 417.068 219.496V219.057Z" fill="white"/>
<path d="M300.538 238.964H296.66V231.999H300.538V232.714H297.47V234.967H300.361V235.672H297.47V238.249H300.538V238.964ZM302.758 238.964H301.962V231.552H302.758V238.964ZM310.341 237.535C310.341 237.868 310.257 238.149 310.089 238.378C309.924 238.603 309.686 238.773 309.374 238.888C309.066 239.002 308.698 239.059 308.269 239.059C307.904 239.059 307.588 239.031 307.321 238.973C307.055 238.916 306.821 238.835 306.621 238.73V238.002C306.834 238.106 307.088 238.202 307.383 238.287C307.679 238.373 307.98 238.416 308.288 238.416C308.739 238.416 309.066 238.343 309.27 238.197C309.473 238.051 309.575 237.852 309.575 237.601C309.575 237.459 309.533 237.333 309.451 237.225C309.371 237.114 309.236 237.008 309.046 236.906C308.855 236.801 308.592 236.687 308.255 236.563C307.922 236.436 307.633 236.31 307.388 236.187C307.147 236.06 306.959 235.906 306.826 235.725C306.696 235.544 306.631 235.309 306.631 235.02C306.631 234.578 306.808 234.24 307.164 234.005C307.523 233.767 307.993 233.648 308.574 233.648C308.889 233.648 309.182 233.679 309.455 233.743C309.732 233.803 309.989 233.886 310.227 233.991L309.96 234.624C309.744 234.532 309.514 234.454 309.27 234.391C309.025 234.327 308.776 234.295 308.522 234.295C308.157 234.295 307.875 234.356 307.679 234.476C307.485 234.597 307.388 234.762 307.388 234.972C307.388 235.134 307.432 235.267 307.521 235.372C307.613 235.477 307.76 235.575 307.96 235.667C308.16 235.759 308.423 235.867 308.75 235.991C309.078 236.112 309.36 236.237 309.598 236.368C309.837 236.495 310.019 236.65 310.146 236.834C310.276 237.016 310.341 237.249 310.341 237.535ZM313.624 233.648C314.068 233.648 314.449 233.746 314.767 233.943C315.085 234.14 315.328 234.416 315.496 234.772C315.664 235.124 315.748 235.537 315.748 236.01V236.501H312.142C312.152 237.114 312.304 237.581 312.599 237.902C312.895 238.222 313.311 238.383 313.848 238.383C314.178 238.383 314.47 238.353 314.724 238.292C314.978 238.232 315.242 238.143 315.515 238.025V238.721C315.251 238.838 314.989 238.924 314.729 238.978C314.472 239.032 314.167 239.059 313.814 239.059C313.312 239.059 312.874 238.958 312.499 238.754C312.128 238.548 311.839 238.246 311.632 237.849C311.426 237.452 311.323 236.966 311.323 236.391C311.323 235.829 311.416 235.343 311.604 234.934C311.794 234.521 312.061 234.203 312.404 233.981C312.75 233.759 313.157 233.648 313.624 233.648ZM313.614 234.295C313.192 234.295 312.855 234.434 312.604 234.71C312.353 234.986 312.204 235.372 312.156 235.867H314.919C314.916 235.556 314.867 235.283 314.772 235.048C314.68 234.81 314.538 234.626 314.348 234.495C314.157 234.362 313.913 234.295 313.614 234.295ZM319.464 233.648C319.569 233.648 319.678 233.654 319.793 233.667C319.907 233.676 320.009 233.69 320.098 233.709L319.998 234.443C319.912 234.421 319.817 234.403 319.712 234.391C319.607 234.378 319.508 234.372 319.416 234.372C319.207 234.372 319.008 234.415 318.821 234.5C318.637 234.583 318.475 234.704 318.335 234.862C318.195 235.018 318.086 235.207 318.006 235.429C317.927 235.648 317.887 235.893 317.887 236.163V238.964H317.092V233.743H317.749L317.835 234.705H317.868C317.976 234.511 318.106 234.335 318.259 234.176C318.411 234.014 318.587 233.886 318.788 233.79C318.991 233.695 319.216 233.648 319.464 233.648ZM322.232 238.964L320.25 233.743H321.098L322.246 236.901C322.325 237.117 322.406 237.355 322.489 237.616C322.572 237.876 322.629 238.086 322.66 238.245H322.694C322.732 238.086 322.795 237.876 322.884 237.616C322.973 237.352 323.054 237.114 323.127 236.901L324.275 233.743H325.123L323.137 238.964H322.232ZM326.752 233.743V238.964H325.962V233.743H326.752ZM326.367 231.79C326.497 231.79 326.608 231.833 326.7 231.918C326.795 232.001 326.843 232.131 326.843 232.309C326.843 232.484 326.795 232.614 326.7 232.7C326.608 232.785 326.497 232.828 326.367 232.828C326.23 232.828 326.116 232.785 326.024 232.7C325.935 232.614 325.89 232.484 325.89 232.309C325.89 232.131 325.935 232.001 326.024 231.918C326.116 231.833 326.23 231.79 326.367 231.79ZM330.521 239.059C330.051 239.059 329.636 238.962 329.277 238.769C328.918 238.575 328.639 238.279 328.439 237.883C328.239 237.486 328.139 236.985 328.139 236.382C328.139 235.75 328.244 235.234 328.453 234.834C328.666 234.43 328.958 234.132 329.33 233.938C329.701 233.744 330.124 233.648 330.597 233.648C330.857 233.648 331.108 233.675 331.349 233.729C331.594 233.779 331.794 233.844 331.95 233.924L331.712 234.586C331.553 234.522 331.369 234.465 331.159 234.415C330.953 234.364 330.759 234.338 330.578 234.338C330.216 234.338 329.914 234.416 329.673 234.572C329.434 234.727 329.255 234.956 329.134 235.258C329.017 235.559 328.958 235.931 328.958 236.372C328.958 236.795 329.015 237.155 329.13 237.454C329.247 237.752 329.42 237.981 329.649 238.14C329.881 238.295 330.17 238.373 330.516 238.373C330.792 238.373 331.041 238.345 331.264 238.287C331.486 238.227 331.688 238.157 331.869 238.078V238.783C331.694 238.872 331.499 238.94 331.283 238.988C331.07 239.035 330.816 239.059 330.521 239.059ZM333.898 233.743V238.964H333.107V233.743H333.898ZM333.512 231.79C333.642 231.79 333.754 231.833 333.846 231.918C333.941 232.001 333.989 232.131 333.989 232.309C333.989 232.484 333.941 232.614 333.846 232.7C333.754 232.785 333.642 232.828 333.512 232.828C333.376 232.828 333.261 232.785 333.169 232.7C333.08 232.614 333.036 232.484 333.036 232.309C333.036 232.131 333.08 232.001 333.169 231.918C333.261 231.833 333.376 231.79 333.512 231.79ZM340.077 236.344C340.077 236.773 340.021 237.155 339.91 237.492C339.799 237.829 339.638 238.113 339.429 238.345C339.219 238.576 338.965 238.754 338.667 238.878C338.371 238.999 338.036 239.059 337.661 239.059C337.312 239.059 336.991 238.999 336.699 238.878C336.41 238.754 336.159 238.576 335.946 238.345C335.737 238.113 335.573 237.829 335.456 237.492C335.341 237.155 335.284 236.773 335.284 236.344C335.284 235.772 335.381 235.286 335.575 234.886C335.769 234.483 336.045 234.176 336.404 233.967C336.766 233.754 337.196 233.648 337.695 233.648C338.171 233.648 338.587 233.754 338.943 233.967C339.302 234.18 339.58 234.488 339.777 234.891C339.977 235.291 340.077 235.775 340.077 236.344ZM336.104 236.344C336.104 236.763 336.159 237.127 336.27 237.435C336.382 237.743 336.553 237.981 336.785 238.149C337.017 238.318 337.315 238.402 337.68 238.402C338.043 238.402 338.339 238.318 338.571 238.149C338.806 237.981 338.979 237.743 339.091 237.435C339.202 237.127 339.257 236.763 339.257 236.344C339.257 235.928 339.202 235.569 339.091 235.267C338.979 234.962 338.808 234.727 338.576 234.562C338.344 234.397 338.044 234.314 337.676 234.314C337.133 234.314 336.734 234.494 336.48 234.853C336.229 235.212 336.104 235.709 336.104 236.344ZM345.988 233.648C346.433 233.648 346.814 233.746 347.132 233.943C347.449 234.14 347.692 234.416 347.861 234.772C348.029 235.124 348.113 235.537 348.113 236.01V236.501H344.507C344.516 237.114 344.669 237.581 344.964 237.902C345.26 238.222 345.676 238.383 346.212 238.383C346.543 238.383 346.835 238.353 347.089 238.292C347.343 238.232 347.606 238.143 347.88 238.025V238.721C347.616 238.838 347.354 238.924 347.094 238.978C346.836 239.032 346.531 239.059 346.179 239.059C345.677 239.059 345.239 238.958 344.864 238.754C344.493 238.548 344.204 238.246 343.997 237.849C343.791 237.452 343.688 236.966 343.688 236.391C343.688 235.829 343.781 235.343 343.969 234.934C344.159 234.521 344.426 234.203 344.769 233.981C345.115 233.759 345.522 233.648 345.988 233.648ZM345.979 234.295C345.556 234.295 345.22 234.434 344.969 234.71C344.718 234.986 344.569 235.372 344.521 235.867H347.284C347.281 235.556 347.232 235.283 347.136 235.048C347.044 234.81 346.903 234.626 346.712 234.495C346.522 234.362 346.277 234.295 345.979 234.295ZM352.834 237.535C352.834 237.868 352.75 238.149 352.581 238.378C352.416 238.603 352.178 238.773 351.867 238.888C351.559 239.002 351.19 239.059 350.762 239.059C350.396 239.059 350.08 239.031 349.814 238.973C349.547 238.916 349.313 238.835 349.113 238.73V238.002C349.326 238.106 349.58 238.202 349.876 238.287C350.171 238.373 350.473 238.416 350.781 238.416C351.232 238.416 351.559 238.343 351.762 238.197C351.965 238.051 352.067 237.852 352.067 237.601C352.067 237.459 352.026 237.333 351.943 237.225C351.864 237.114 351.729 237.008 351.538 236.906C351.348 236.801 351.084 236.687 350.747 236.563C350.414 236.436 350.125 236.31 349.88 236.187C349.639 236.06 349.452 235.906 349.318 235.725C349.188 235.544 349.123 235.309 349.123 235.02C349.123 234.578 349.301 234.24 349.656 234.005C350.015 233.767 350.485 233.648 351.067 233.648C351.381 233.648 351.675 233.679 351.948 233.743C352.224 233.803 352.481 233.886 352.72 233.991L352.453 234.624C352.237 234.532 352.007 234.454 351.762 234.391C351.517 234.327 351.268 234.295 351.014 234.295C350.649 234.295 350.368 234.356 350.171 234.476C349.977 234.597 349.88 234.762 349.88 234.972C349.88 235.134 349.925 235.267 350.014 235.372C350.106 235.477 350.252 235.575 350.452 235.667C350.652 235.759 350.916 235.867 351.243 235.991C351.57 236.112 351.853 236.237 352.091 236.368C352.329 236.495 352.512 236.65 352.639 236.834C352.769 237.016 352.834 237.249 352.834 237.535ZM355.792 238.411C355.922 238.411 356.056 238.4 356.192 238.378C356.329 238.356 356.44 238.329 356.526 238.297V238.911C356.434 238.953 356.305 238.988 356.14 239.016C355.978 239.045 355.819 239.059 355.664 239.059C355.387 239.059 355.136 239.012 354.911 238.916C354.685 238.818 354.504 238.653 354.368 238.421C354.234 238.189 354.168 237.868 354.168 237.459V234.362H353.425V233.976L354.172 233.667L354.487 232.533H354.963V233.743H356.492V234.362H354.963V237.435C354.963 237.762 355.038 238.006 355.187 238.168C355.34 238.33 355.541 238.411 355.792 238.411ZM359.536 233.657C360.159 233.657 360.621 233.797 360.923 234.076C361.224 234.356 361.375 234.802 361.375 235.415V238.964H360.799L360.646 238.192H360.608C360.462 238.383 360.31 238.543 360.151 238.673C359.992 238.8 359.808 238.897 359.598 238.964C359.392 239.027 359.138 239.059 358.836 239.059C358.519 239.059 358.236 239.004 357.988 238.892C357.744 238.781 357.55 238.613 357.407 238.387C357.267 238.162 357.197 237.876 357.197 237.53C357.197 237.009 357.404 236.609 357.817 236.33C358.23 236.05 358.858 235.898 359.703 235.872L360.603 235.834V235.515C360.603 235.064 360.507 234.748 360.313 234.567C360.119 234.386 359.846 234.295 359.494 234.295C359.22 234.295 358.96 234.335 358.712 234.415C358.465 234.494 358.23 234.588 358.007 234.696L357.764 234.095C357.999 233.975 358.269 233.871 358.574 233.786C358.879 233.7 359.2 233.657 359.536 233.657ZM360.594 236.391L359.798 236.425C359.147 236.45 358.688 236.557 358.422 236.744C358.155 236.931 358.022 237.197 358.022 237.54C358.022 237.838 358.112 238.059 358.293 238.202C358.474 238.345 358.714 238.416 359.012 238.416C359.476 238.416 359.856 238.287 360.151 238.03C360.446 237.773 360.594 237.387 360.594 236.873V236.391ZM365.377 233.648C365.482 233.648 365.591 233.654 365.705 233.667C365.82 233.676 365.921 233.69 366.01 233.709L365.91 234.443C365.825 234.421 365.729 234.403 365.624 234.391C365.52 234.378 365.421 234.372 365.329 234.372C365.119 234.372 364.921 234.415 364.734 234.5C364.549 234.583 364.387 234.704 364.248 234.862C364.108 235.018 363.998 235.207 363.919 235.429C363.84 235.648 363.8 235.893 363.8 236.163V238.964H363.004V233.743H363.662L363.748 234.705H363.781C363.889 234.511 364.019 234.335 364.172 234.176C364.324 234.014 364.5 233.886 364.7 233.79C364.904 233.695 365.129 233.648 365.377 233.648ZM368.95 233.657C369.572 233.657 370.034 233.797 370.336 234.076C370.637 234.356 370.788 234.802 370.788 235.415V238.964H370.212L370.059 238.192H370.021C369.875 238.383 369.723 238.543 369.564 238.673C369.405 238.8 369.221 238.897 369.011 238.964C368.805 239.027 368.551 239.059 368.249 239.059C367.932 239.059 367.649 239.004 367.401 238.892C367.157 238.781 366.963 238.613 366.82 238.387C366.68 238.162 366.611 237.876 366.611 237.53C366.611 237.009 366.817 236.609 367.23 236.33C367.643 236.05 368.271 235.898 369.116 235.872L370.017 235.834V235.515C370.017 235.064 369.92 234.748 369.726 234.567C369.532 234.386 369.259 234.295 368.907 234.295C368.634 234.295 368.373 234.335 368.125 234.415C367.878 234.494 367.643 234.588 367.42 234.696L367.177 234.095C367.412 233.975 367.682 233.871 367.987 233.786C368.292 233.7 368.613 233.657 368.95 233.657ZM370.007 236.391L369.212 236.425C368.56 236.45 368.102 236.557 367.835 236.744C367.568 236.931 367.435 237.197 367.435 237.54C367.435 237.838 367.525 238.059 367.706 238.202C367.887 238.345 368.127 238.416 368.426 238.416C368.889 238.416 369.269 238.287 369.564 238.03C369.859 237.773 370.007 237.387 370.007 236.873V236.391ZM370.255 231.49V231.585C370.191 231.677 370.104 231.788 369.993 231.918C369.885 232.045 369.764 232.18 369.631 232.323C369.497 232.463 369.362 232.596 369.226 232.723C369.092 232.85 368.969 232.96 368.854 233.052H368.325V232.938C368.427 232.817 368.538 232.673 368.659 232.504C368.78 232.333 368.897 232.158 369.011 231.98C369.126 231.799 369.221 231.636 369.297 231.49H370.255ZM376.81 239.059C376.149 239.059 375.625 238.834 375.238 238.383C374.853 237.932 374.661 237.262 374.661 236.372C374.661 235.474 374.858 234.796 375.252 234.338C375.646 233.878 376.17 233.648 376.824 233.648C377.1 233.648 377.342 233.684 377.548 233.757C377.754 233.83 377.932 233.929 378.082 234.052C378.231 234.173 378.356 234.311 378.458 234.467H378.515C378.502 234.368 378.49 234.233 378.477 234.062C378.464 233.891 378.458 233.751 378.458 233.643V231.552H379.249V238.964H378.61L378.491 238.221H378.458C378.359 238.376 378.234 238.518 378.082 238.645C377.932 238.772 377.753 238.873 377.543 238.95C377.337 239.023 377.092 239.059 376.81 239.059ZM376.934 238.402C377.492 238.402 377.888 238.243 378.12 237.925C378.352 237.608 378.467 237.136 378.467 236.511V236.368C378.467 235.704 378.356 235.194 378.134 234.838C377.915 234.483 377.515 234.305 376.934 234.305C376.448 234.305 376.084 234.492 375.843 234.867C375.601 235.239 375.481 235.747 375.481 236.391C375.481 237.033 375.6 237.528 375.838 237.878C376.079 238.227 376.444 238.402 376.934 238.402ZM381.716 233.743V238.964H380.926V233.743H381.716ZM381.33 231.79C381.461 231.79 381.572 231.833 381.664 231.918C381.759 232.001 381.807 232.131 381.807 232.309C381.807 232.484 381.759 232.614 381.664 232.7C381.572 232.785 381.461 232.828 381.33 232.828C381.194 232.828 381.08 232.785 380.987 232.7C380.899 232.614 380.854 232.484 380.854 232.309C380.854 232.131 380.899 232.001 380.987 231.918C381.08 231.833 381.194 231.79 381.33 231.79ZM386.771 237.535C386.771 237.868 386.686 238.149 386.518 238.378C386.353 238.603 386.115 238.773 385.804 238.888C385.496 239.002 385.127 239.059 384.698 239.059C384.333 239.059 384.017 239.031 383.75 238.973C383.484 238.916 383.25 238.835 383.05 238.73V238.002C383.263 238.106 383.517 238.202 383.812 238.287C384.108 238.373 384.409 238.416 384.717 238.416C385.168 238.416 385.496 238.343 385.699 238.197C385.902 238.051 386.004 237.852 386.004 237.601C386.004 237.459 385.962 237.333 385.88 237.225C385.8 237.114 385.665 237.008 385.475 236.906C385.284 236.801 385.021 236.687 384.684 236.563C384.351 236.436 384.062 236.31 383.817 236.187C383.576 236.06 383.388 235.906 383.255 235.725C383.125 235.544 383.06 235.309 383.06 235.02C383.06 234.578 383.238 234.24 383.593 234.005C383.952 233.767 384.422 233.648 385.003 233.648C385.318 233.648 385.611 233.679 385.885 233.743C386.161 233.803 386.418 233.886 386.656 233.991L386.39 234.624C386.174 234.532 385.943 234.454 385.699 234.391C385.454 234.327 385.205 234.295 384.951 234.295C384.586 234.295 384.305 234.356 384.108 234.476C383.914 234.597 383.817 234.762 383.817 234.972C383.817 235.134 383.862 235.267 383.95 235.372C384.043 235.477 384.189 235.575 384.389 235.667C384.589 235.759 384.852 235.867 385.18 235.991C385.507 236.112 385.789 236.237 386.027 236.368C386.266 236.495 386.448 236.65 386.575 236.834C386.705 237.016 386.771 237.249 386.771 237.535ZM390.496 233.648C391.147 233.648 391.666 233.871 392.054 234.319C392.441 234.767 392.635 235.44 392.635 236.339C392.635 236.933 392.546 237.432 392.368 237.835C392.19 238.238 391.939 238.543 391.615 238.749C391.295 238.956 390.915 239.059 390.477 239.059C390.2 239.059 389.958 239.023 389.748 238.95C389.538 238.877 389.359 238.778 389.21 238.654C389.06 238.53 388.937 238.395 388.838 238.249H388.781C388.79 238.373 388.802 238.522 388.814 238.697C388.83 238.872 388.838 239.024 388.838 239.154V241.298H388.043V233.743H388.695L388.8 234.515H388.838C388.94 234.356 389.064 234.211 389.21 234.081C389.356 233.948 389.534 233.843 389.743 233.767C389.956 233.687 390.207 233.648 390.496 233.648ZM390.358 234.314C389.996 234.314 389.703 234.384 389.481 234.524C389.262 234.664 389.102 234.873 389 235.153C388.898 235.429 388.844 235.777 388.838 236.196V236.349C388.838 236.79 388.886 237.163 388.981 237.468C389.079 237.773 389.24 238.005 389.462 238.164C389.688 238.322 389.989 238.402 390.367 238.402C390.691 238.402 390.961 238.314 391.177 238.14C391.393 237.965 391.553 237.722 391.658 237.411C391.766 237.096 391.82 236.736 391.82 236.33C391.82 235.713 391.699 235.224 391.458 234.862C391.22 234.497 390.853 234.314 390.358 234.314ZM398.518 236.344C398.518 236.773 398.462 237.155 398.351 237.492C398.24 237.829 398.08 238.113 397.87 238.345C397.66 238.576 397.406 238.754 397.108 238.878C396.813 238.999 396.477 239.059 396.103 239.059C395.753 239.059 395.433 238.999 395.14 238.878C394.851 238.754 394.601 238.576 394.388 238.345C394.178 238.113 394.015 237.829 393.897 237.492C393.783 237.155 393.726 236.773 393.726 236.344C393.726 235.772 393.822 235.286 394.016 234.886C394.21 234.483 394.486 234.176 394.845 233.967C395.207 233.754 395.637 233.648 396.136 233.648C396.612 233.648 397.028 233.754 397.384 233.967C397.743 234.18 398.021 234.488 398.218 234.891C398.418 235.291 398.518 235.775 398.518 236.344ZM394.545 236.344C394.545 236.763 394.601 237.127 394.712 237.435C394.823 237.743 394.994 237.981 395.226 238.149C395.458 238.318 395.757 238.402 396.122 238.402C396.484 238.402 396.781 238.318 397.013 238.149C397.248 237.981 397.421 237.743 397.532 237.435C397.643 237.127 397.699 236.763 397.699 236.344C397.699 235.928 397.643 235.569 397.532 235.267C397.421 234.962 397.249 234.727 397.017 234.562C396.786 234.397 396.485 234.314 396.117 234.314C395.574 234.314 395.175 234.494 394.921 234.853C394.67 235.212 394.545 235.709 394.545 236.344ZM402.357 233.648C402.977 233.648 403.445 233.8 403.763 234.105C404.08 234.407 404.239 234.892 404.239 235.563V238.964H403.458V235.615C403.458 235.18 403.358 234.854 403.158 234.638C402.961 234.422 402.658 234.314 402.248 234.314C401.67 234.314 401.263 234.478 401.028 234.805C400.793 235.132 400.676 235.607 400.676 236.229V238.964H399.885V233.743H400.523L400.643 234.495H400.685C400.797 234.311 400.938 234.157 401.109 234.033C401.281 233.906 401.473 233.811 401.686 233.748C401.899 233.681 402.122 233.648 402.357 233.648ZM406.659 233.743V238.964H405.868V233.743H406.659ZM406.273 231.79C406.403 231.79 406.515 231.833 406.607 231.918C406.702 232.001 406.75 232.131 406.75 232.309C406.75 232.484 406.702 232.614 406.607 232.7C406.515 232.785 406.403 232.828 406.273 232.828C406.137 232.828 406.022 232.785 405.93 232.7C405.841 232.614 405.797 232.484 405.797 232.309C405.797 232.131 405.841 232.001 405.93 231.918C406.022 231.833 406.137 231.79 406.273 231.79ZM409.127 231.552V233.405C409.127 233.617 409.12 233.824 409.108 234.024C409.098 234.224 409.09 234.38 409.084 234.491H409.127C409.27 234.256 409.476 234.057 409.746 233.895C410.016 233.733 410.361 233.652 410.78 233.652C411.434 233.652 411.955 233.879 412.342 234.334C412.733 234.784 412.928 235.456 412.928 236.349C412.928 236.936 412.839 237.432 412.661 237.835C412.484 238.238 412.233 238.543 411.909 238.749C411.585 238.956 411.202 239.059 410.761 239.059C410.348 239.059 410.008 238.983 409.741 238.83C409.478 238.675 409.274 238.486 409.132 238.264H409.07L408.908 238.964H408.336V231.552H409.127ZM410.651 234.314C410.273 234.314 409.973 234.389 409.751 234.538C409.528 234.684 409.368 234.907 409.27 235.205C409.174 235.501 409.127 235.875 409.127 236.33V236.372C409.127 237.03 409.236 237.533 409.455 237.883C409.675 238.229 410.073 238.402 410.651 238.402C411.137 238.402 411.501 238.224 411.742 237.868C411.987 237.513 412.109 237.004 412.109 236.344C412.109 235.671 411.988 235.164 411.747 234.824C411.509 234.484 411.143 234.314 410.651 234.314ZM415.105 238.964H414.31V231.552H415.105V238.964ZM418.788 233.648C419.232 233.648 419.613 233.746 419.931 233.943C420.248 234.14 420.491 234.416 420.66 234.772C420.828 235.124 420.912 235.537 420.912 236.01V236.501H417.306C417.316 237.114 417.468 237.581 417.763 237.902C418.059 238.222 418.475 238.383 419.011 238.383C419.342 238.383 419.634 238.353 419.888 238.292C420.142 238.232 420.406 238.143 420.679 238.025V238.721C420.415 238.838 420.153 238.924 419.893 238.978C419.636 239.032 419.331 239.059 418.978 239.059C418.476 239.059 418.038 238.958 417.663 238.754C417.292 238.548 417.003 238.246 416.796 237.849C416.59 237.452 416.487 236.966 416.487 236.391C416.487 235.829 416.58 235.343 416.768 234.934C416.958 234.521 417.225 234.203 417.568 233.981C417.914 233.759 418.321 233.648 418.788 233.648ZM418.778 234.295C418.356 234.295 418.019 234.434 417.768 234.71C417.517 234.986 417.368 235.372 417.32 235.867H420.083C420.08 235.556 420.031 235.283 419.936 235.048C419.844 234.81 419.702 234.626 419.512 234.495C419.321 234.362 419.077 234.295 418.778 234.295ZM299.013 248.648C299.633 248.648 300.101 248.8 300.419 249.105C300.736 249.407 300.895 249.892 300.895 250.563V253.964H300.114V250.615C300.114 250.18 300.014 249.854 299.814 249.638C299.617 249.422 299.313 249.314 298.904 249.314C298.326 249.314 297.919 249.478 297.684 249.805C297.449 250.132 297.332 250.607 297.332 251.229V253.964H296.541V248.743H297.179L297.298 249.495H297.341C297.452 249.311 297.594 249.157 297.765 249.033C297.937 248.906 298.129 248.811 298.342 248.748C298.554 248.681 298.778 248.648 299.013 248.648ZM306.835 248.743V253.964H306.188L306.073 253.23H306.03C305.922 253.411 305.783 253.564 305.611 253.688C305.44 253.811 305.246 253.904 305.03 253.964C304.817 254.027 304.59 254.059 304.349 254.059C303.936 254.059 303.59 253.992 303.31 253.859C303.031 253.726 302.82 253.519 302.677 253.24C302.537 252.96 302.467 252.601 302.467 252.163V248.743H303.267V252.106C303.267 252.541 303.366 252.867 303.563 253.083C303.76 253.295 304.06 253.402 304.463 253.402C304.851 253.402 305.159 253.329 305.387 253.183C305.619 253.037 305.786 252.822 305.887 252.54C305.989 252.254 306.04 251.904 306.04 251.491V248.743H306.835ZM310.518 248.648C310.962 248.648 311.343 248.746 311.661 248.943C311.979 249.14 312.222 249.416 312.39 249.772C312.558 250.124 312.642 250.537 312.642 251.01V251.501H309.036C309.046 252.114 309.198 252.581 309.494 252.902C309.789 253.222 310.205 253.383 310.742 253.383C311.072 253.383 311.364 253.353 311.618 253.292C311.872 253.232 312.136 253.143 312.409 253.025V253.721C312.145 253.838 311.883 253.924 311.623 253.978C311.366 254.032 311.061 254.059 310.708 254.059C310.207 254.059 309.768 253.958 309.394 253.754C309.022 253.548 308.733 253.246 308.527 252.849C308.32 252.452 308.217 251.966 308.217 251.391C308.217 250.829 308.311 250.343 308.498 249.934C308.688 249.521 308.955 249.203 309.298 248.981C309.644 248.759 310.051 248.648 310.518 248.648ZM310.508 249.295C310.086 249.295 309.749 249.434 309.498 249.71C309.247 249.986 309.098 250.372 309.051 250.867H311.813C311.81 250.556 311.761 250.283 311.666 250.048C311.574 249.81 311.432 249.626 311.242 249.495C311.051 249.362 310.807 249.295 310.508 249.295ZM315.134 253.964L313.152 248.743H314L315.148 251.901C315.227 252.117 315.308 252.355 315.391 252.616C315.474 252.876 315.531 253.086 315.563 253.245H315.596C315.634 253.086 315.697 252.876 315.786 252.616C315.875 252.352 315.956 252.114 316.029 251.901L317.177 248.743H318.025L316.039 253.964H315.134ZM320.817 248.657C321.439 248.657 321.901 248.797 322.203 249.076C322.505 249.356 322.656 249.802 322.656 250.415V253.964H322.079L321.927 253.192H321.889C321.743 253.383 321.59 253.543 321.431 253.673C321.273 253.8 321.088 253.897 320.879 253.964C320.672 254.027 320.418 254.059 320.117 254.059C319.799 254.059 319.516 254.004 319.269 253.892C319.024 253.781 318.83 253.613 318.688 253.387C318.548 253.162 318.478 252.876 318.478 252.53C318.478 252.009 318.684 251.609 319.097 251.33C319.51 251.05 320.139 250.898 320.984 250.872L321.884 250.834V250.515C321.884 250.064 321.787 249.748 321.593 249.567C321.4 249.386 321.127 249.295 320.774 249.295C320.501 249.295 320.24 249.335 319.993 249.415C319.745 249.494 319.51 249.588 319.288 249.696L319.045 249.095C319.28 248.975 319.55 248.871 319.855 248.786C320.16 248.7 320.48 248.657 320.817 248.657ZM321.874 251.391L321.079 251.425C320.428 251.45 319.969 251.557 319.702 251.744C319.435 251.931 319.302 252.197 319.302 252.54C319.302 252.838 319.393 253.059 319.574 253.202C319.755 253.345 319.994 253.416 320.293 253.416C320.757 253.416 321.136 253.287 321.431 253.03C321.727 252.773 321.874 252.387 321.874 251.873V251.391ZM329.954 248.648C330.529 248.648 330.962 248.798 331.254 249.1C331.546 249.399 331.692 249.88 331.692 250.544V253.964H330.911V250.582C330.911 250.159 330.819 249.843 330.635 249.634C330.454 249.421 330.184 249.314 329.825 249.314C329.32 249.314 328.953 249.461 328.725 249.753C328.496 250.045 328.382 250.475 328.382 251.044V253.964H327.596V250.582C327.596 250.299 327.554 250.064 327.472 249.877C327.392 249.689 327.272 249.549 327.11 249.457C326.951 249.362 326.749 249.314 326.505 249.314C326.159 249.314 325.881 249.386 325.671 249.529C325.462 249.672 325.309 249.885 325.214 250.167C325.122 250.447 325.076 250.791 325.076 251.201V253.964H324.285V248.743H324.923L325.042 249.481H325.085C325.19 249.3 325.322 249.148 325.481 249.024C325.639 248.9 325.817 248.806 326.014 248.743C326.211 248.679 326.421 248.648 326.643 248.648C327.04 248.648 327.372 248.722 327.639 248.871C327.908 249.018 328.104 249.241 328.224 249.543H328.267C328.439 249.241 328.674 249.018 328.972 248.871C329.271 248.722 329.598 248.648 329.954 248.648ZM335.327 248.648C335.772 248.648 336.153 248.746 336.47 248.943C336.788 249.14 337.031 249.416 337.199 249.772C337.368 250.124 337.452 250.537 337.452 251.01V251.501H333.846C333.855 252.114 334.008 252.581 334.303 252.902C334.598 253.222 335.014 253.383 335.551 253.383C335.881 253.383 336.174 253.353 336.428 253.292C336.682 253.232 336.945 253.143 337.218 253.025V253.721C336.955 253.838 336.693 253.924 336.432 253.978C336.175 254.032 335.87 254.059 335.518 254.059C335.016 254.059 334.578 253.958 334.203 253.754C333.831 253.548 333.542 253.246 333.336 252.849C333.13 252.452 333.026 251.966 333.026 251.391C333.026 250.829 333.12 250.343 333.307 249.934C333.498 249.521 333.765 249.203 334.108 248.981C334.454 248.759 334.86 248.648 335.327 248.648ZM335.318 249.295C334.895 249.295 334.559 249.434 334.308 249.71C334.057 249.986 333.908 250.372 333.86 250.867H336.623C336.62 250.556 336.571 250.283 336.475 250.048C336.383 249.81 336.242 249.626 336.051 249.495C335.861 249.362 335.616 249.295 335.318 249.295ZM341.268 248.648C341.887 248.648 342.355 248.8 342.673 249.105C342.99 249.407 343.149 249.892 343.149 250.563V253.964H342.368V250.615C342.368 250.18 342.268 249.854 342.068 249.638C341.871 249.422 341.568 249.314 341.158 249.314C340.58 249.314 340.173 249.478 339.938 249.805C339.703 250.132 339.586 250.607 339.586 251.229V253.964H338.795V248.743H339.434L339.553 249.495H339.595C339.707 249.311 339.848 249.157 340.019 249.033C340.191 248.906 340.383 248.811 340.596 248.748C340.809 248.681 341.033 248.648 341.268 248.648ZM346.465 253.411C346.595 253.411 346.728 253.4 346.865 253.378C347.001 253.356 347.113 253.329 347.198 253.297V253.911C347.106 253.953 346.978 253.988 346.813 254.016C346.651 254.045 346.492 254.059 346.336 254.059C346.06 254.059 345.809 254.012 345.583 253.916C345.358 253.818 345.177 253.653 345.04 253.421C344.907 253.189 344.84 252.868 344.84 252.459V249.362H344.097V248.976L344.845 248.667L345.16 247.533H345.636V248.743H347.165V249.362H345.636V252.435C345.636 252.762 345.711 253.006 345.86 253.168C346.012 253.33 346.214 253.411 346.465 253.411ZM350.266 248.648C350.711 248.648 351.092 248.746 351.41 248.943C351.727 249.14 351.97 249.416 352.138 249.772C352.307 250.124 352.391 250.537 352.391 251.01V251.501H348.785C348.794 252.114 348.947 252.581 349.242 252.902C349.537 253.222 349.953 253.383 350.49 253.383C350.82 253.383 351.113 253.353 351.367 253.292C351.621 253.232 351.884 253.143 352.157 253.025V253.721C351.894 253.838 351.632 253.924 351.371 253.978C351.114 254.032 350.809 254.059 350.457 254.059C349.955 254.059 349.517 253.958 349.142 253.754C348.77 253.548 348.481 253.246 348.275 252.849C348.069 252.452 347.965 251.966 347.965 251.391C347.965 250.829 348.059 250.343 348.246 249.934C348.437 249.521 348.704 249.203 349.047 248.981C349.393 248.759 349.799 248.648 350.266 248.648ZM350.257 249.295C349.834 249.295 349.498 249.434 349.247 249.71C348.996 249.986 348.847 250.372 348.799 250.867H351.562C351.559 250.556 351.51 250.283 351.414 250.048C351.322 249.81 351.181 249.626 350.99 249.495C350.8 249.362 350.555 249.295 350.257 249.295ZM358.222 248.657C358.844 248.657 359.306 248.797 359.608 249.076C359.91 249.356 360.06 249.802 360.06 250.415V253.964H359.484L359.332 253.192H359.293C359.147 253.383 358.995 253.543 358.836 253.673C358.677 253.8 358.493 253.897 358.284 253.964C358.077 254.027 357.823 254.059 357.521 254.059C357.204 254.059 356.921 254.004 356.673 253.892C356.429 253.781 356.235 253.613 356.092 253.387C355.953 253.162 355.883 252.876 355.883 252.53C355.883 252.009 356.089 251.609 356.502 251.33C356.915 251.05 357.544 250.898 358.388 250.872L359.289 250.834V250.515C359.289 250.064 359.192 249.748 358.998 249.567C358.804 249.386 358.531 249.295 358.179 249.295C357.906 249.295 357.645 249.335 357.398 249.415C357.15 249.494 356.915 249.588 356.692 249.696L356.45 249.095C356.685 248.975 356.954 248.871 357.259 248.786C357.564 248.7 357.885 248.657 358.222 248.657ZM359.279 251.391L358.484 251.425C357.833 251.45 357.374 251.557 357.107 251.744C356.84 251.931 356.707 252.197 356.707 252.54C356.707 252.838 356.797 253.059 356.978 253.202C357.159 253.345 357.399 253.416 357.698 253.416C358.161 253.416 358.541 253.287 358.836 253.03C359.131 252.773 359.279 252.387 359.279 251.873V251.391ZM365.019 253.964H364.224V246.552H365.019V253.964ZM368.645 248.657C369.267 248.657 369.729 248.797 370.031 249.076C370.333 249.356 370.483 249.802 370.483 250.415V253.964H369.907L369.755 253.192H369.716C369.57 253.383 369.418 253.543 369.259 253.673C369.1 253.8 368.916 253.897 368.707 253.964C368.5 254.027 368.246 254.059 367.944 254.059C367.627 254.059 367.344 254.004 367.096 253.892C366.852 253.781 366.658 253.613 366.515 253.387C366.376 253.162 366.306 252.876 366.306 252.53C366.306 252.009 366.512 251.609 366.925 251.33C367.338 251.05 367.967 250.898 368.811 250.872L369.712 250.834V250.515C369.712 250.064 369.615 249.748 369.421 249.567C369.227 249.386 368.954 249.295 368.602 249.295C368.329 249.295 368.068 249.335 367.821 249.415C367.573 249.494 367.338 249.588 367.115 249.696L366.873 249.095C367.108 248.975 367.377 248.871 367.682 248.786C367.987 248.7 368.308 248.657 368.645 248.657ZM369.702 251.391L368.907 251.425C368.256 251.45 367.797 251.557 367.53 251.744C367.263 251.931 367.13 252.197 367.13 252.54C367.13 252.838 367.22 253.059 367.401 253.202C367.582 253.345 367.822 253.416 368.121 253.416C368.584 253.416 368.964 253.287 369.259 253.03C369.555 252.773 369.702 252.387 369.702 251.873V251.391ZM375.49 252.535C375.49 252.868 375.406 253.149 375.238 253.378C375.072 253.603 374.834 253.773 374.523 253.888C374.215 254.002 373.847 254.059 373.418 254.059C373.053 254.059 372.737 254.031 372.47 253.973C372.203 253.916 371.97 253.835 371.77 253.73V253.002C371.982 253.106 372.236 253.202 372.532 253.287C372.827 253.373 373.129 253.416 373.437 253.416C373.888 253.416 374.215 253.343 374.418 253.197C374.622 253.051 374.723 252.852 374.723 252.601C374.723 252.459 374.682 252.333 374.599 252.225C374.52 252.114 374.385 252.008 374.194 251.906C374.004 251.801 373.74 251.687 373.404 251.563C373.07 251.436 372.781 251.31 372.537 251.187C372.295 251.06 372.108 250.906 371.974 250.725C371.844 250.544 371.779 250.309 371.779 250.02C371.779 249.578 371.957 249.24 372.313 249.005C372.672 248.767 373.142 248.648 373.723 248.648C374.037 248.648 374.331 248.679 374.604 248.743C374.88 248.803 375.138 248.886 375.376 248.991L375.109 249.624C374.893 249.532 374.663 249.454 374.418 249.391C374.174 249.327 373.924 249.295 373.67 249.295C373.305 249.295 373.024 249.356 372.827 249.476C372.633 249.597 372.537 249.762 372.537 249.972C372.537 250.134 372.581 250.267 372.67 250.372C372.762 250.477 372.908 250.575 373.108 250.667C373.308 250.759 373.572 250.867 373.899 250.991C374.226 251.112 374.509 251.237 374.747 251.368C374.985 251.495 375.168 251.65 375.295 251.834C375.425 252.016 375.49 252.249 375.49 252.535ZM381.888 253.964H381.116V249.029C381.116 248.841 381.116 248.681 381.116 248.548C381.119 248.411 381.122 248.287 381.126 248.176C381.132 248.062 381.14 247.946 381.149 247.828C381.051 247.93 380.959 248.017 380.873 248.09C380.787 248.16 380.681 248.247 380.554 248.352L379.758 248.991L379.344 248.452L381.23 246.999H381.888V253.964ZM389.438 252.349H388.395V253.964H387.623V252.349H384.255V251.682L387.571 246.961H388.395V251.634H389.438V252.349ZM387.623 251.634V249.357C387.623 249.183 387.625 249.025 387.628 248.886C387.631 248.743 387.636 248.611 387.642 248.49C387.649 248.366 387.653 248.249 387.657 248.138C387.663 248.027 387.668 247.917 387.671 247.809H387.633C387.572 247.936 387.503 248.071 387.423 248.214C387.347 248.354 387.269 248.479 387.19 248.59L385.041 251.634H387.623ZM390.343 253.468C390.343 253.246 390.397 253.089 390.505 252.997C390.613 252.902 390.745 252.854 390.901 252.854C391.063 252.854 391.199 252.902 391.31 252.997C391.422 253.089 391.477 253.246 391.477 253.468C391.477 253.688 391.422 253.848 391.31 253.95C391.199 254.048 391.063 254.097 390.901 254.097C390.745 254.097 390.613 254.048 390.505 253.95C390.397 253.848 390.343 253.688 390.343 253.468ZM390.343 249.243C390.343 249.014 390.397 248.854 390.505 248.762C390.613 248.667 390.745 248.619 390.901 248.619C391.063 248.619 391.199 248.667 391.31 248.762C391.422 248.854 391.477 249.014 391.477 249.243C391.477 249.459 391.422 249.616 391.31 249.715C391.199 249.813 391.063 249.862 390.901 249.862C390.745 249.862 390.613 249.813 390.505 249.715C390.397 249.616 390.343 249.459 390.343 249.243ZM397.275 250.472C397.275 251.037 397.232 251.542 397.146 251.987C397.06 252.432 396.925 252.808 396.741 253.116C396.557 253.424 396.319 253.659 396.027 253.821C395.734 253.98 395.383 254.059 394.974 254.059C394.456 254.059 394.027 253.918 393.688 253.635C393.351 253.353 393.098 252.944 392.93 252.411C392.765 251.874 392.682 251.228 392.682 250.472C392.682 249.729 392.757 249.091 392.906 248.557C393.059 248.02 393.303 247.609 393.64 247.323C393.977 247.034 394.421 246.89 394.974 246.89C395.498 246.89 395.93 247.033 396.269 247.318C396.609 247.601 396.862 248.011 397.027 248.548C397.192 249.081 397.275 249.723 397.275 250.472ZM393.478 250.472C393.478 251.12 393.527 251.66 393.626 252.092C393.724 252.524 393.883 252.848 394.102 253.064C394.324 253.276 394.615 253.383 394.974 253.383C395.333 253.383 395.622 253.276 395.841 253.064C396.063 252.851 396.223 252.528 396.322 252.096C396.423 251.665 396.474 251.123 396.474 250.472C396.474 249.834 396.425 249.3 396.327 248.871C396.228 248.44 396.069 248.116 395.85 247.9C395.631 247.681 395.339 247.571 394.974 247.571C394.609 247.571 394.316 247.681 394.097 247.9C393.878 248.116 393.719 248.44 393.621 248.871C393.526 249.3 393.478 249.834 393.478 250.472ZM402.858 250.472C402.858 251.037 402.815 251.542 402.729 251.987C402.643 252.432 402.508 252.808 402.324 253.116C402.14 253.424 401.902 253.659 401.61 253.821C401.317 253.98 400.966 254.059 400.557 254.059C400.039 254.059 399.61 253.918 399.271 253.635C398.934 253.353 398.681 252.944 398.513 252.411C398.348 251.874 398.265 251.228 398.265 250.472C398.265 249.729 398.34 249.091 398.489 248.557C398.642 248.02 398.886 247.609 399.223 247.323C399.56 247.034 400.004 246.89 400.557 246.89C401.081 246.89 401.513 247.033 401.853 247.318C402.192 247.601 402.445 248.011 402.61 248.548C402.775 249.081 402.858 249.723 402.858 250.472ZM399.061 250.472C399.061 251.12 399.11 251.66 399.209 252.092C399.307 252.524 399.466 252.848 399.685 253.064C399.907 253.276 400.198 253.383 400.557 253.383C400.916 253.383 401.205 253.276 401.424 253.064C401.646 252.851 401.806 252.528 401.905 252.096C402.007 251.665 402.057 251.123 402.057 250.472C402.057 249.834 402.008 249.3 401.91 248.871C401.811 248.44 401.652 248.116 401.433 247.9C401.214 247.681 400.922 247.571 400.557 247.571C400.192 247.571 399.899 247.681 399.68 247.9C399.461 248.116 399.302 248.44 399.204 248.871C399.109 249.3 399.061 249.834 399.061 250.472ZM407.517 246.552V248.767C407.517 248.894 407.513 249.022 407.507 249.153C407.501 249.28 407.49 249.397 407.474 249.505H407.526C407.634 249.321 407.771 249.167 407.936 249.043C408.104 248.916 408.295 248.821 408.507 248.757C408.72 248.69 408.946 248.657 409.184 248.657C409.603 248.657 409.952 248.724 410.232 248.857C410.515 248.991 410.726 249.197 410.865 249.476C411.008 249.756 411.08 250.118 411.08 250.563V253.964H410.299V250.615C410.299 250.18 410.199 249.854 409.999 249.638C409.802 249.422 409.498 249.314 409.089 249.314C408.701 249.314 408.392 249.389 408.16 249.538C407.931 249.684 407.766 249.9 407.664 250.186C407.566 250.472 407.517 250.821 407.517 251.234V253.964H406.726V246.552H407.517ZM412.59 253.468C412.59 253.246 412.644 253.089 412.752 252.997C412.86 252.902 412.992 252.854 413.147 252.854C413.309 252.854 413.446 252.902 413.557 252.997C413.668 253.089 413.724 253.246 413.724 253.468C413.724 253.688 413.668 253.848 413.557 253.95C413.446 254.048 413.309 254.097 413.147 254.097C412.992 254.097 412.86 254.048 412.752 253.95C412.644 253.848 412.59 253.688 412.59 253.468Z" fill="white"/>
<rect x="264" y="291.72" width="78.9894" height="11.4894" rx="2" fill="#E6EBF0"/>
<rect x="264" y="307.209" width="200" height="11.4894" rx="2" fill="#E6EBF0"/>
<rect x="264" y="322.699" width="194" height="11" rx="2" fill="#E6EBF0"/>
</svg>
