<svg width="728" height="184" viewBox="0 0 728 184" fill="none" xmlns="http://www.w3.org/2000/svg">
<rect x="1" y="1" width="726" height="181.8" rx="7" fill="white"/>
<rect x="1" y="1" width="726" height="181.8" rx="7" stroke="#E6EBF0" stroke-width="2"/>
<rect x="72.8" y="48" width="582.4" height="87.8" rx="6.4" fill="#FF9500"/>
<path d="M95.576 77.2029H107.624C108.856 77.2029 109.624 75.8669 109.008 74.8029L102.984 64.3949C102.368 63.3309 100.832 63.3309 100.216 64.3949L94.192 74.8029C93.576 75.8669 94.344 77.2029 95.576 77.2029ZM101.6 71.6029C101.16 71.6029 100.8 71.2429 100.8 70.8029V69.2029C100.8 68.7629 101.16 68.4029 101.6 68.4029C102.04 68.4029 102.4 68.7629 102.4 69.2029V70.8029C102.4 71.2429 102.04 71.6029 101.6 71.6029ZM102.4 74.8029H100.8V73.2029H102.4V74.8029Z" fill="#101E37"/>
<path d="M125.475 75.8H123.537V68.275H121.056V66.6625H127.956V68.275H125.475V75.8ZM131.119 68.8125V75.8H129.212V68.8125H131.119ZM130.169 66.075C130.452 66.075 130.696 66.1417 130.9 66.275C131.104 66.4042 131.206 66.648 131.206 67.0063C131.206 67.3605 131.104 67.6063 130.9 67.7438C130.696 67.8771 130.452 67.9438 130.169 67.9438C129.881 67.9438 129.635 67.8771 129.431 67.7438C129.231 67.6063 129.131 67.3605 129.131 67.0063C129.131 66.648 129.231 66.4042 129.431 66.275C129.635 66.1417 129.881 66.075 130.169 66.075ZM136.069 74.4063C136.277 74.4063 136.479 74.3855 136.675 74.3438C136.875 74.3021 137.073 74.25 137.269 74.1875V75.6063C137.065 75.698 136.81 75.773 136.506 75.8313C136.206 75.8938 135.877 75.925 135.519 75.925C135.102 75.925 134.727 75.8584 134.394 75.725C134.065 75.5875 133.804 75.3521 133.612 75.0188C133.425 74.6813 133.331 74.2125 133.331 73.6125V70.2438H132.419V69.4375L133.469 68.8L134.019 67.325H135.237V68.8125H137.194V70.2438H135.237V73.6125C135.237 73.8792 135.312 74.0792 135.462 74.2125C135.617 74.3417 135.819 74.4063 136.069 74.4063ZM145.1 68.8125V75.8H143.637L143.381 74.9063H143.281C143.131 75.1438 142.944 75.3375 142.719 75.4875C142.494 75.6375 142.246 75.748 141.975 75.8188C141.704 75.8896 141.423 75.925 141.131 75.925C140.631 75.925 140.196 75.8375 139.825 75.6625C139.454 75.4834 139.165 75.2063 138.956 74.8313C138.752 74.4563 138.65 73.9688 138.65 73.3688V68.8125H140.556V72.8938C140.556 73.3938 140.646 73.7709 140.825 74.025C141.004 74.2792 141.29 74.4063 141.681 74.4063C142.069 74.4063 142.373 74.3188 142.594 74.1438C142.815 73.9646 142.969 73.7042 143.056 73.3625C143.148 73.0167 143.194 72.5959 143.194 72.1V68.8125H145.1ZM149.006 75.8H147.1V66.075H149.006V75.8ZM157.362 72.2938C157.362 72.8771 157.283 73.3938 157.125 73.8438C156.971 74.2938 156.744 74.675 156.444 74.9875C156.148 75.2959 155.79 75.5292 155.369 75.6875C154.952 75.8459 154.481 75.925 153.956 75.925C153.465 75.925 153.012 75.8459 152.6 75.6875C152.192 75.5292 151.835 75.2959 151.531 74.9875C151.231 74.675 150.998 74.2938 150.831 73.8438C150.669 73.3938 150.587 72.8771 150.587 72.2938C150.587 71.5188 150.725 70.8625 151 70.325C151.275 69.7875 151.667 69.3792 152.175 69.1C152.683 68.8209 153.29 68.6813 153.994 68.6813C154.648 68.6813 155.227 68.8209 155.731 69.1C156.24 69.3792 156.637 69.7875 156.925 70.325C157.217 70.8625 157.362 71.5188 157.362 72.2938ZM152.531 72.2938C152.531 72.7521 152.581 73.1375 152.681 73.45C152.781 73.7625 152.937 73.998 153.15 74.1563C153.362 74.3146 153.64 74.3938 153.981 74.3938C154.319 74.3938 154.592 74.3146 154.8 74.1563C155.012 73.998 155.167 73.7625 155.262 73.45C155.362 73.1375 155.412 72.7521 155.412 72.2938C155.412 71.8313 155.362 71.448 155.262 71.1438C155.167 70.8355 155.012 70.6042 154.8 70.45C154.587 70.2959 154.31 70.2188 153.969 70.2188C153.465 70.2188 153.098 70.3917 152.869 70.7375C152.644 71.0834 152.531 71.6021 152.531 72.2938ZM164.475 75.925C163.696 75.925 163.06 75.6209 162.569 75.0125C162.081 74.4 161.837 73.5021 161.837 72.3188C161.837 71.123 162.085 70.2188 162.581 69.6063C163.077 68.9896 163.725 68.6813 164.525 68.6813C164.858 68.6813 165.152 68.7271 165.406 68.8188C165.66 68.9105 165.879 69.0334 166.062 69.1875C166.25 69.3417 166.408 69.5146 166.537 69.7063H166.6C166.575 69.573 166.544 69.3771 166.506 69.1188C166.473 68.8563 166.456 68.5875 166.456 68.3125V66.075H168.369V75.8H166.906L166.537 74.8938H166.456C166.335 75.0855 166.183 75.2605 166 75.4188C165.821 75.573 165.606 75.6959 165.356 75.7875C165.106 75.8792 164.812 75.925 164.475 75.925ZM165.144 74.4063C165.665 74.4063 166.031 74.2521 166.244 73.9438C166.46 73.6313 166.575 73.1625 166.587 72.5375V72.3313C166.587 71.6521 166.483 71.1334 166.275 70.775C166.067 70.4125 165.679 70.2313 165.112 70.2313C164.692 70.2313 164.362 70.4125 164.125 70.775C163.887 71.1375 163.769 71.6605 163.769 72.3438C163.769 73.0271 163.887 73.5417 164.125 73.8875C164.367 74.2334 164.706 74.4063 165.144 74.4063ZM173.244 68.6813C173.89 68.6813 174.446 68.8063 174.912 69.0563C175.379 69.3021 175.74 69.6605 175.994 70.1313C176.248 70.6021 176.375 71.1771 176.375 71.8563V72.7813H171.869C171.89 73.3188 172.05 73.7417 172.35 74.05C172.654 74.3542 173.075 74.5063 173.612 74.5063C174.058 74.5063 174.467 74.4605 174.837 74.3688C175.208 74.2771 175.59 74.1396 175.981 73.9563V75.4313C175.635 75.6021 175.273 75.7271 174.894 75.8063C174.519 75.8855 174.062 75.925 173.525 75.925C172.825 75.925 172.204 75.7959 171.662 75.5375C171.125 75.2792 170.702 74.8855 170.394 74.3563C170.09 73.8271 169.937 73.1605 169.937 72.3563C169.937 71.5396 170.075 70.8605 170.35 70.3188C170.629 69.773 171.017 69.3646 171.512 69.0938C172.008 68.8188 172.585 68.6813 173.244 68.6813ZM173.256 70.0375C172.885 70.0375 172.577 70.1563 172.331 70.3938C172.09 70.6313 171.95 71.0042 171.912 71.5125H174.587C174.583 71.2292 174.531 70.9771 174.431 70.7563C174.335 70.5355 174.19 70.3605 173.994 70.2313C173.802 70.1021 173.556 70.0375 173.256 70.0375ZM183.156 75.8H181.25V66.075H183.156V75.8ZM188.025 68.6688C188.962 68.6688 189.681 68.873 190.181 69.2813C190.681 69.6896 190.931 70.3105 190.931 71.1438V75.8H189.6L189.231 74.85H189.181C188.981 75.1 188.777 75.3042 188.569 75.4625C188.36 75.6209 188.121 75.7375 187.85 75.8125C187.579 75.8875 187.25 75.925 186.862 75.925C186.45 75.925 186.079 75.8459 185.75 75.6875C185.425 75.5292 185.169 75.2875 184.981 74.9625C184.794 74.6334 184.7 74.2167 184.7 73.7125C184.7 72.9709 184.96 72.425 185.481 72.075C186.002 71.7209 186.783 71.525 187.825 71.4875L189.037 71.45V71.1438C189.037 70.7771 188.942 70.5084 188.75 70.3375C188.558 70.1667 188.292 70.0813 187.95 70.0813C187.612 70.0813 187.281 70.1292 186.956 70.225C186.631 70.3209 186.306 70.4417 185.981 70.5875L185.35 69.3C185.721 69.1042 186.135 68.95 186.594 68.8375C187.056 68.725 187.533 68.6688 188.025 68.6688ZM189.037 72.5625L188.3 72.5875C187.683 72.6042 187.254 72.7146 187.012 72.9188C186.775 73.123 186.656 73.3917 186.656 73.725C186.656 74.0167 186.742 74.225 186.912 74.35C187.083 74.4709 187.306 74.5313 187.581 74.5313C187.99 74.5313 188.333 74.4105 188.612 74.1688C188.896 73.9271 189.037 73.5834 189.037 73.1375V72.5625ZM199.087 68.6688C200.025 68.6688 200.744 68.873 201.244 69.2813C201.744 69.6896 201.994 70.3105 201.994 71.1438V75.8H200.662L200.294 74.85H200.244C200.044 75.1 199.84 75.3042 199.631 75.4625C199.423 75.6209 199.183 75.7375 198.912 75.8125C198.642 75.8875 198.312 75.925 197.925 75.925C197.512 75.925 197.142 75.8459 196.812 75.6875C196.487 75.5292 196.231 75.2875 196.044 74.9625C195.856 74.6334 195.762 74.2167 195.762 73.7125C195.762 72.9709 196.023 72.425 196.544 72.075C197.065 71.7209 197.846 71.525 198.887 71.4875L200.1 71.45V71.1438C200.1 70.7771 200.004 70.5084 199.812 70.3375C199.621 70.1667 199.354 70.0813 199.012 70.0813C198.675 70.0813 198.344 70.1292 198.019 70.225C197.694 70.3209 197.369 70.4417 197.044 70.5875L196.412 69.3C196.783 69.1042 197.198 68.95 197.656 68.8375C198.119 68.725 198.596 68.6688 199.087 68.6688ZM200.1 72.5625L199.362 72.5875C198.746 72.6042 198.317 72.7146 198.075 72.9188C197.837 73.123 197.719 73.3917 197.719 73.725C197.719 74.0167 197.804 74.225 197.975 74.35C198.146 74.4709 198.369 74.5313 198.644 74.5313C199.052 74.5313 199.396 74.4105 199.675 74.1688C199.958 73.9271 200.1 73.5834 200.1 73.1375V72.5625ZM205.869 75.8H203.962V66.075H205.869V75.8ZM210.756 68.6813C211.402 68.6813 211.958 68.8063 212.425 69.0563C212.892 69.3021 213.252 69.6605 213.506 70.1313C213.76 70.6021 213.887 71.1771 213.887 71.8563V72.7813H209.381C209.402 73.3188 209.562 73.7417 209.862 74.05C210.167 74.3542 210.587 74.5063 211.125 74.5063C211.571 74.5063 211.979 74.4605 212.35 74.3688C212.721 74.2771 213.102 74.1396 213.494 73.9563V75.4313C213.148 75.6021 212.785 75.7271 212.406 75.8063C212.031 75.8855 211.575 75.925 211.037 75.925C210.337 75.925 209.717 75.7959 209.175 75.5375C208.637 75.2792 208.215 74.8855 207.906 74.3563C207.602 73.8271 207.45 73.1605 207.45 72.3563C207.45 71.5396 207.587 70.8605 207.862 70.3188C208.142 69.773 208.529 69.3646 209.025 69.0938C209.521 68.8188 210.098 68.6813 210.756 68.6813ZM210.769 70.0375C210.398 70.0375 210.09 70.1563 209.844 70.3938C209.602 70.6313 209.462 71.0042 209.425 71.5125H212.1C212.096 71.2292 212.044 70.9771 211.944 70.7563C211.848 70.5355 211.702 70.3605 211.506 70.2313C211.315 70.1021 211.069 70.0375 210.769 70.0375ZM219.337 68.6813C219.433 68.6813 219.544 68.6875 219.669 68.7C219.798 68.7084 219.902 68.7209 219.981 68.7375L219.837 70.525C219.775 70.5042 219.685 70.4896 219.569 70.4813C219.456 70.4688 219.358 70.4625 219.275 70.4625C219.029 70.4625 218.79 70.4938 218.556 70.5563C218.327 70.6188 218.121 70.7209 217.937 70.8625C217.754 71 217.608 71.1834 217.5 71.4125C217.396 71.6375 217.344 71.9146 217.344 72.2438V75.8H215.437V68.8125H216.881L217.162 69.9875H217.256C217.394 69.75 217.565 69.5334 217.769 69.3375C217.977 69.1375 218.212 68.9792 218.475 68.8625C218.742 68.7417 219.029 68.6813 219.337 68.6813ZM224.194 74.4063C224.402 74.4063 224.604 74.3855 224.8 74.3438C225 74.3021 225.198 74.25 225.394 74.1875V75.6063C225.19 75.698 224.935 75.773 224.631 75.8313C224.331 75.8938 224.002 75.925 223.644 75.925C223.227 75.925 222.852 75.8584 222.519 75.725C222.19 75.5875 221.929 75.3521 221.737 75.0188C221.55 74.6813 221.456 74.2125 221.456 73.6125V70.2438H220.544V69.4375L221.594 68.8L222.144 67.325H223.362V68.8125H225.319V70.2438H223.362V73.6125C223.362 73.8792 223.437 74.0792 223.587 74.2125C223.742 74.3417 223.944 74.4063 224.194 74.4063ZM229.675 68.6688C230.612 68.6688 231.331 68.873 231.831 69.2813C232.331 69.6896 232.581 70.3105 232.581 71.1438V75.8H231.25L230.881 74.85H230.831C230.631 75.1 230.427 75.3042 230.219 75.4625C230.01 75.6209 229.771 75.7375 229.5 75.8125C229.229 75.8875 228.9 75.925 228.512 75.925C228.1 75.925 227.729 75.8459 227.4 75.6875C227.075 75.5292 226.819 75.2875 226.631 74.9625C226.444 74.6334 226.35 74.2167 226.35 73.7125C226.35 72.9709 226.61 72.425 227.131 72.075C227.652 71.7209 228.433 71.525 229.475 71.4875L230.687 71.45V71.1438C230.687 70.7771 230.592 70.5084 230.4 70.3375C230.208 70.1667 229.942 70.0813 229.6 70.0813C229.262 70.0813 228.931 70.1292 228.606 70.225C228.281 70.3209 227.956 70.4417 227.631 70.5875L227 69.3C227.371 69.1042 227.785 68.95 228.244 68.8375C228.706 68.725 229.183 68.6688 229.675 68.6688ZM230.687 72.5625L229.95 72.5875C229.333 72.6042 228.904 72.7146 228.662 72.9188C228.425 73.123 228.306 73.3917 228.306 73.725C228.306 74.0167 228.392 74.225 228.562 74.35C228.733 74.4709 228.956 74.5313 229.231 74.5313C229.64 74.5313 229.983 74.4105 230.262 74.1688C230.546 73.9271 230.687 73.5834 230.687 73.1375V72.5625Z" fill="#101E37"/>
<path d="M127.137 99H122.05V89.8625H127.137V90.8H123.112V93.7562H126.906V94.6812H123.112V98.0625H127.137V99ZM133.437 97.125C133.437 97.5625 133.327 97.9312 133.106 98.2312C132.89 98.5271 132.577 98.75 132.169 98.9C131.765 99.05 131.281 99.125 130.719 99.125C130.24 99.125 129.825 99.0875 129.475 99.0125C129.125 98.9375 128.819 98.8312 128.556 98.6937V97.7375C128.835 97.875 129.169 98 129.556 98.1125C129.944 98.225 130.34 98.2812 130.744 98.2812C131.335 98.2812 131.765 98.1854 132.031 97.9937C132.298 97.8021 132.431 97.5417 132.431 97.2125C132.431 97.025 132.377 96.8604 132.269 96.7187C132.165 96.5729 131.987 96.4333 131.737 96.3C131.487 96.1625 131.142 96.0125 130.7 95.85C130.262 95.6833 129.883 95.5187 129.562 95.3562C129.246 95.1896 129 94.9875 128.825 94.75C128.654 94.5125 128.569 94.2042 128.569 93.825C128.569 93.2458 128.802 92.8021 129.269 92.4937C129.74 92.1812 130.356 92.025 131.119 92.025C131.531 92.025 131.917 92.0667 132.275 92.15C132.637 92.2292 132.975 92.3375 133.287 92.475L132.937 93.3062C132.654 93.1854 132.352 93.0833 132.031 93C131.71 92.9167 131.383 92.875 131.05 92.875C130.571 92.875 130.202 92.9542 129.944 93.1125C129.69 93.2708 129.562 93.4875 129.562 93.7625C129.562 93.975 129.621 94.15 129.737 94.2875C129.858 94.425 130.05 94.5542 130.312 94.675C130.575 94.7958 130.921 94.9375 131.35 95.1C131.779 95.2583 132.15 95.4229 132.462 95.5937C132.775 95.7604 133.015 95.9646 133.181 96.2062C133.352 96.4437 133.437 96.75 133.437 97.125ZM137.319 98.275C137.49 98.275 137.665 98.2604 137.844 98.2312C138.023 98.2021 138.169 98.1667 138.281 98.125V98.9312C138.16 98.9854 137.992 99.0313 137.775 99.0688C137.562 99.1063 137.354 99.125 137.15 99.125C136.787 99.125 136.458 99.0625 136.162 98.9375C135.867 98.8083 135.629 98.5917 135.45 98.2875C135.275 97.9833 135.187 97.5625 135.187 97.025V92.9625H134.212V92.4562L135.194 92.05L135.606 90.5625H136.231V92.15H138.237V92.9625H136.231V96.9937C136.231 97.4229 136.329 97.7437 136.525 97.9562C136.725 98.1687 136.99 98.275 137.319 98.275ZM142.231 92.0375C143.048 92.0375 143.654 92.2208 144.05 92.5875C144.446 92.9542 144.644 93.5396 144.644 94.3437V99H143.887L143.687 97.9875H143.637C143.446 98.2375 143.246 98.4479 143.037 98.6187C142.829 98.7854 142.587 98.9125 142.312 99C142.042 99.0833 141.708 99.125 141.312 99.125C140.896 99.125 140.525 99.0521 140.2 98.9062C139.879 98.7604 139.625 98.5396 139.437 98.2437C139.254 97.9479 139.162 97.5729 139.162 97.1187C139.162 96.4354 139.433 95.9104 139.975 95.5437C140.517 95.1771 141.342 94.9771 142.45 94.9437L143.631 94.8937V94.475C143.631 93.8833 143.504 93.4687 143.25 93.2312C142.996 92.9937 142.637 92.875 142.175 92.875C141.817 92.875 141.475 92.9271 141.15 93.0312C140.825 93.1354 140.517 93.2583 140.225 93.4L139.906 92.6125C140.215 92.4542 140.569 92.3187 140.969 92.2062C141.369 92.0937 141.79 92.0375 142.231 92.0375ZM143.619 95.625L142.575 95.6687C141.721 95.7021 141.119 95.8417 140.769 96.0875C140.419 96.3333 140.244 96.6812 140.244 97.1312C140.244 97.5229 140.362 97.8125 140.6 98C140.837 98.1875 141.152 98.2812 141.544 98.2812C142.152 98.2812 142.65 98.1125 143.037 97.775C143.425 97.4375 143.619 96.9312 143.619 96.2562V95.625ZM152.744 92.025C153.327 92.025 153.827 92.1542 154.244 92.4125C154.66 92.6708 154.979 93.0333 155.2 93.5C155.421 93.9625 155.531 94.5042 155.531 95.125V95.7687H150.8C150.812 96.5729 151.012 97.1854 151.4 97.6062C151.787 98.0271 152.333 98.2375 153.037 98.2375C153.471 98.2375 153.854 98.1979 154.187 98.1187C154.521 98.0396 154.867 97.9229 155.225 97.7687V98.6812C154.879 98.8354 154.535 98.9479 154.194 99.0188C153.856 99.0896 153.456 99.125 152.994 99.125C152.335 99.125 151.76 98.9917 151.269 98.725C150.781 98.4542 150.402 98.0583 150.131 97.5375C149.86 97.0167 149.725 96.3792 149.725 95.625C149.725 94.8875 149.848 94.25 150.094 93.7125C150.344 93.1708 150.694 92.7542 151.144 92.4625C151.598 92.1708 152.131 92.025 152.744 92.025ZM152.731 92.875C152.177 92.875 151.735 93.0562 151.406 93.4187C151.077 93.7812 150.881 94.2875 150.819 94.9375H154.444C154.44 94.5292 154.375 94.1708 154.25 93.8625C154.129 93.55 153.944 93.3083 153.694 93.1375C153.444 92.9625 153.123 92.875 152.731 92.875ZM161.725 97.125C161.725 97.5625 161.615 97.9312 161.394 98.2312C161.177 98.5271 160.865 98.75 160.456 98.9C160.052 99.05 159.569 99.125 159.006 99.125C158.527 99.125 158.112 99.0875 157.762 99.0125C157.412 98.9375 157.106 98.8312 156.844 98.6937V97.7375C157.123 97.875 157.456 98 157.844 98.1125C158.231 98.225 158.627 98.2812 159.031 98.2812C159.623 98.2812 160.052 98.1854 160.319 97.9937C160.585 97.8021 160.719 97.5417 160.719 97.2125C160.719 97.025 160.665 96.8604 160.556 96.7187C160.452 96.5729 160.275 96.4333 160.025 96.3C159.775 96.1625 159.429 96.0125 158.987 95.85C158.55 95.6833 158.171 95.5187 157.85 95.3562C157.533 95.1896 157.287 94.9875 157.112 94.75C156.942 94.5125 156.856 94.2042 156.856 93.825C156.856 93.2458 157.09 92.8021 157.556 92.4937C158.027 92.1812 158.644 92.025 159.406 92.025C159.819 92.025 160.204 92.0667 160.562 92.15C160.925 92.2292 161.262 92.3375 161.575 92.475L161.225 93.3062C160.942 93.1854 160.64 93.0833 160.319 93C159.998 92.9167 159.671 92.875 159.337 92.875C158.858 92.875 158.49 92.9542 158.231 93.1125C157.977 93.2708 157.85 93.4875 157.85 93.7625C157.85 93.975 157.908 94.15 158.025 94.2875C158.146 94.425 158.337 94.5542 158.6 94.675C158.862 94.7958 159.208 94.9375 159.637 95.1C160.067 95.2583 160.437 95.4229 160.75 95.5937C161.062 95.7604 161.302 95.9646 161.469 96.2062C161.64 96.4437 161.725 96.75 161.725 97.125ZM167.762 99H166.719V89.275H167.762V99ZM172.519 92.0375C173.335 92.0375 173.942 92.2208 174.337 92.5875C174.733 92.9542 174.931 93.5396 174.931 94.3437V99H174.175L173.975 97.9875H173.925C173.733 98.2375 173.533 98.4479 173.325 98.6187C173.117 98.7854 172.875 98.9125 172.6 99C172.329 99.0833 171.996 99.125 171.6 99.125C171.183 99.125 170.812 99.0521 170.487 98.9062C170.167 98.7604 169.912 98.5396 169.725 98.2437C169.542 97.9479 169.45 97.5729 169.45 97.1187C169.45 96.4354 169.721 95.9104 170.262 95.5437C170.804 95.1771 171.629 94.9771 172.737 94.9437L173.919 94.8937V94.475C173.919 93.8833 173.792 93.4687 173.537 93.2312C173.283 92.9937 172.925 92.875 172.462 92.875C172.104 92.875 171.762 92.9271 171.437 93.0312C171.112 93.1354 170.804 93.2583 170.512 93.4L170.194 92.6125C170.502 92.4542 170.856 92.3187 171.256 92.2062C171.656 92.0937 172.077 92.0375 172.519 92.0375ZM173.906 95.625L172.862 95.6687C172.008 95.7021 171.406 95.8417 171.056 96.0875C170.706 96.3333 170.531 96.6812 170.531 97.1312C170.531 97.5229 170.65 97.8125 170.887 98C171.125 98.1875 171.44 98.2812 171.831 98.2812C172.44 98.2812 172.937 98.1125 173.325 97.775C173.712 97.4375 173.906 96.9312 173.906 96.2562V95.625ZM182.831 99.125C181.965 99.125 181.277 98.8292 180.769 98.2375C180.265 97.6458 180.012 96.7667 180.012 95.6C180.012 94.4208 180.271 93.5312 180.787 92.9312C181.304 92.3271 181.992 92.025 182.85 92.025C183.212 92.025 183.529 92.0729 183.8 92.1687C184.071 92.2646 184.304 92.3937 184.5 92.5562C184.696 92.7146 184.86 92.8958 184.994 93.1H185.069C185.052 92.9708 185.035 92.7937 185.019 92.5687C185.002 92.3437 184.994 92.1604 184.994 92.0187V89.275H186.031V99H185.194L185.037 98.025H184.994C184.865 98.2292 184.7 98.4146 184.5 98.5812C184.304 98.7479 184.069 98.8812 183.794 98.9812C183.523 99.0771 183.202 99.125 182.831 99.125ZM182.994 98.2625C183.727 98.2625 184.246 98.0542 184.55 97.6375C184.854 97.2208 185.006 96.6021 185.006 95.7812V95.5937C185.006 94.7229 184.86 94.0542 184.569 93.5875C184.281 93.1208 183.756 92.8875 182.994 92.8875C182.356 92.8875 181.879 93.1333 181.562 93.625C181.246 94.1125 181.087 94.7792 181.087 95.625C181.087 96.4667 181.244 97.1167 181.556 97.575C181.873 98.0333 182.352 98.2625 182.994 98.2625ZM190.869 92.025C191.452 92.025 191.952 92.1542 192.369 92.4125C192.785 92.6708 193.104 93.0333 193.325 93.5C193.546 93.9625 193.656 94.5042 193.656 95.125V95.7687H188.925C188.937 96.5729 189.137 97.1854 189.525 97.6062C189.912 98.0271 190.458 98.2375 191.162 98.2375C191.596 98.2375 191.979 98.1979 192.312 98.1187C192.646 98.0396 192.992 97.9229 193.35 97.7687V98.6812C193.004 98.8354 192.66 98.9479 192.319 99.0188C191.981 99.0896 191.581 99.125 191.119 99.125C190.46 99.125 189.885 98.9917 189.394 98.725C188.906 98.4542 188.527 98.0583 188.256 97.5375C187.985 97.0167 187.85 96.3792 187.85 95.625C187.85 94.8875 187.973 94.25 188.219 93.7125C188.469 93.1708 188.819 92.7542 189.269 92.4625C189.723 92.1708 190.256 92.025 190.869 92.025ZM190.856 92.875C190.302 92.875 189.86 93.0562 189.531 93.4187C189.202 93.7812 189.006 94.2875 188.944 94.9375H192.569C192.565 94.5292 192.5 94.1708 192.375 93.8625C192.254 93.55 192.069 93.3083 191.819 93.1375C191.569 92.9625 191.248 92.875 190.856 92.875ZM199.85 97.125C199.85 97.5625 199.74 97.9312 199.519 98.2312C199.302 98.5271 198.99 98.75 198.581 98.9C198.177 99.05 197.694 99.125 197.131 99.125C196.652 99.125 196.237 99.0875 195.887 99.0125C195.537 98.9375 195.231 98.8312 194.969 98.6937V97.7375C195.248 97.875 195.581 98 195.969 98.1125C196.356 98.225 196.752 98.2812 197.156 98.2812C197.748 98.2812 198.177 98.1854 198.444 97.9937C198.71 97.8021 198.844 97.5417 198.844 97.2125C198.844 97.025 198.79 96.8604 198.681 96.7187C198.577 96.5729 198.4 96.4333 198.15 96.3C197.9 96.1625 197.554 96.0125 197.112 95.85C196.675 95.6833 196.296 95.5187 195.975 95.3562C195.658 95.1896 195.412 94.9875 195.237 94.75C195.067 94.5125 194.981 94.2042 194.981 93.825C194.981 93.2458 195.215 92.8021 195.681 92.4937C196.152 92.1812 196.769 92.025 197.531 92.025C197.944 92.025 198.329 92.0667 198.687 92.15C199.05 92.2292 199.387 92.3375 199.7 92.475L199.35 93.3062C199.067 93.1854 198.765 93.0833 198.444 93C198.123 92.9167 197.796 92.875 197.462 92.875C196.983 92.875 196.615 92.9542 196.356 93.1125C196.102 93.2708 195.975 93.4875 195.975 93.7625C195.975 93.975 196.033 94.15 196.15 94.2875C196.271 94.425 196.462 94.5542 196.725 94.675C196.987 94.7958 197.333 94.9375 197.762 95.1C198.192 95.2583 198.562 95.4229 198.875 95.5937C199.187 95.7604 199.427 95.9646 199.594 96.2062C199.765 96.4437 199.85 96.75 199.85 97.125ZM204.262 99.125C203.646 99.125 203.102 98.9979 202.631 98.7437C202.16 98.4896 201.794 98.1021 201.531 97.5812C201.269 97.0604 201.137 96.4042 201.137 95.6125C201.137 94.7833 201.275 94.1062 201.55 93.5812C201.829 93.0521 202.212 92.6604 202.7 92.4062C203.187 92.1521 203.742 92.025 204.362 92.025C204.704 92.025 205.033 92.0604 205.35 92.1312C205.671 92.1979 205.933 92.2833 206.137 92.3875L205.825 93.2562C205.617 93.1729 205.375 93.0979 205.1 93.0312C204.829 92.9646 204.575 92.9312 204.337 92.9312C203.862 92.9312 203.467 93.0333 203.15 93.2375C202.837 93.4417 202.602 93.7417 202.444 94.1375C202.29 94.5333 202.212 95.0208 202.212 95.6C202.212 96.1542 202.287 96.6271 202.437 97.0187C202.592 97.4104 202.819 97.7104 203.119 97.9187C203.423 98.1229 203.802 98.225 204.256 98.225C204.619 98.225 204.946 98.1875 205.237 98.1125C205.529 98.0333 205.794 97.9417 206.031 97.8375V98.7625C205.802 98.8792 205.546 98.9687 205.262 99.0313C204.983 99.0938 204.65 99.125 204.262 99.125ZM210.769 92.025C210.906 92.025 211.05 92.0333 211.2 92.05C211.35 92.0625 211.483 92.0812 211.6 92.1062L211.469 93.0687C211.356 93.0396 211.231 93.0167 211.094 93C210.956 92.9833 210.827 92.975 210.706 92.975C210.431 92.975 210.171 93.0312 209.925 93.1437C209.683 93.2521 209.471 93.4104 209.287 93.6187C209.104 93.8229 208.96 94.0708 208.856 94.3625C208.752 94.65 208.7 94.9708 208.7 95.325V99H207.656V92.15H208.519L208.631 93.4125H208.675C208.817 93.1583 208.987 92.9271 209.187 92.7187C209.387 92.5062 209.619 92.3375 209.881 92.2125C210.148 92.0875 210.444 92.025 210.769 92.025ZM213.931 92.15V99H212.894V92.15H213.931ZM213.425 89.5875C213.596 89.5875 213.742 89.6437 213.862 89.7562C213.987 89.8646 214.05 90.0354 214.05 90.2687C214.05 90.4979 213.987 90.6687 213.862 90.7812C213.742 90.8937 213.596 90.95 213.425 90.95C213.246 90.95 213.096 90.8937 212.975 90.7812C212.858 90.6687 212.8 90.4979 212.8 90.2687C212.8 90.0354 212.858 89.8646 212.975 89.7562C213.096 89.6437 213.246 89.5875 213.425 89.5875ZM219.35 92.025C220.204 92.025 220.885 92.3187 221.394 92.9062C221.902 93.4937 222.156 94.3771 222.156 95.5562C222.156 96.3354 222.04 96.9896 221.806 97.5187C221.573 98.0479 221.244 98.4479 220.819 98.7187C220.398 98.9896 219.9 99.125 219.325 99.125C218.962 99.125 218.644 99.0771 218.369 98.9812C218.094 98.8854 217.858 98.7562 217.662 98.5937C217.467 98.4312 217.304 98.2542 217.175 98.0625H217.1C217.112 98.225 217.127 98.4208 217.144 98.65C217.165 98.8792 217.175 99.0792 217.175 99.25V102.063H216.131V92.15H216.987L217.125 93.1625H217.175C217.308 92.9542 217.471 92.7646 217.662 92.5937C217.854 92.4187 218.087 92.2812 218.362 92.1812C218.642 92.0771 218.971 92.025 219.35 92.025ZM219.169 92.9C218.694 92.9 218.31 92.9917 218.019 93.175C217.731 93.3583 217.521 93.6333 217.387 94C217.254 94.3625 217.183 94.8187 217.175 95.3687V95.5687C217.175 96.1479 217.237 96.6375 217.362 97.0375C217.492 97.4375 217.702 97.7417 217.994 97.95C218.29 98.1583 218.685 98.2625 219.181 98.2625C219.606 98.2625 219.96 98.1479 220.244 97.9187C220.527 97.6896 220.737 97.3708 220.875 96.9625C221.017 96.55 221.087 96.0771 221.087 95.5437C221.087 94.7354 220.929 94.0937 220.612 93.6187C220.3 93.1396 219.819 92.9 219.169 92.9ZM226.712 99.125C226.096 99.125 225.552 98.9979 225.081 98.7437C224.61 98.4896 224.244 98.1021 223.981 97.5812C223.719 97.0604 223.587 96.4042 223.587 95.6125C223.587 94.7833 223.725 94.1062 224 93.5812C224.279 93.0521 224.662 92.6604 225.15 92.4062C225.637 92.1521 226.192 92.025 226.812 92.025C227.154 92.025 227.483 92.0604 227.8 92.1312C228.121 92.1979 228.383 92.2833 228.587 92.3875L228.275 93.2562C228.067 93.1729 227.825 93.0979 227.55 93.0312C227.279 92.9646 227.025 92.9312 226.787 92.9312C226.312 92.9312 225.917 93.0333 225.6 93.2375C225.287 93.4417 225.052 93.7417 224.894 94.1375C224.74 94.5333 224.662 95.0208 224.662 95.6C224.662 96.1542 224.737 96.6271 224.887 97.0187C225.042 97.4104 225.269 97.7104 225.569 97.9187C225.873 98.1229 226.252 98.225 226.706 98.225C227.069 98.225 227.396 98.1875 227.687 98.1125C227.979 98.0333 228.244 97.9417 228.481 97.8375V98.7625C228.252 98.8792 227.996 98.9687 227.712 99.0313C227.433 99.0938 227.1 99.125 226.712 99.125ZM231.144 92.15V99H230.106V92.15H231.144ZM230.637 89.5875C230.808 89.5875 230.954 89.6437 231.075 89.7562C231.2 89.8646 231.262 90.0354 231.262 90.2687C231.262 90.4979 231.2 90.6687 231.075 90.7812C230.954 90.8937 230.808 90.95 230.637 90.95C230.458 90.95 230.308 90.8937 230.187 90.7812C230.071 90.6687 230.012 90.4979 230.012 90.2687C230.012 90.0354 230.071 89.8646 230.187 89.7562C230.308 89.6437 230.458 89.5875 230.637 89.5875ZM239.25 95.5625C239.25 96.125 239.177 96.6271 239.031 97.0687C238.885 97.5104 238.675 97.8833 238.4 98.1875C238.125 98.4917 237.792 98.725 237.4 98.8875C237.012 99.0458 236.573 99.125 236.081 99.125C235.623 99.125 235.202 99.0458 234.819 98.8875C234.44 98.725 234.11 98.4917 233.831 98.1875C233.556 97.8833 233.342 97.5104 233.187 97.0687C233.037 96.6271 232.962 96.125 232.962 95.5625C232.962 94.8125 233.09 94.175 233.344 93.65C233.598 93.1208 233.96 92.7187 234.431 92.4437C234.906 92.1646 235.471 92.025 236.125 92.025C236.75 92.025 237.296 92.1646 237.762 92.4437C238.233 92.7229 238.598 93.1271 238.856 93.6562C239.119 94.1812 239.25 94.8167 239.25 95.5625ZM234.037 95.5625C234.037 96.1125 234.11 96.5896 234.256 96.9937C234.402 97.3979 234.627 97.7104 234.931 97.9312C235.235 98.1521 235.627 98.2625 236.106 98.2625C236.581 98.2625 236.971 98.1521 237.275 97.9312C237.583 97.7104 237.81 97.3979 237.956 96.9937C238.102 96.5896 238.175 96.1125 238.175 95.5625C238.175 95.0167 238.102 94.5458 237.956 94.15C237.81 93.75 237.585 93.4417 237.281 93.225C236.977 93.0083 236.583 92.9 236.1 92.9C235.387 92.9 234.865 93.1354 234.531 93.6062C234.202 94.0771 234.037 94.7292 234.037 95.5625ZM237.919 89.1937V89.3187C237.835 89.4396 237.721 89.5854 237.575 89.7562C237.433 89.9229 237.275 90.1 237.1 90.2875C236.925 90.4708 236.748 90.6458 236.569 90.8125C236.394 90.9792 236.231 91.1229 236.081 91.2437H235.387V91.0937C235.521 90.9354 235.667 90.7458 235.825 90.525C235.983 90.3 236.137 90.0708 236.287 89.8375C236.437 89.6 236.562 89.3854 236.662 89.1937H237.919ZM244.287 92.025C245.1 92.025 245.715 92.225 246.131 92.625C246.548 93.0208 246.756 93.6583 246.756 94.5375V99H245.731V94.6062C245.731 94.0354 245.6 93.6083 245.337 93.325C245.079 93.0417 244.681 92.9 244.144 92.9C243.385 92.9 242.852 93.1146 242.544 93.5437C242.235 93.9729 242.081 94.5958 242.081 95.4125V99H241.044V92.15H241.881L242.037 93.1375H242.094C242.24 92.8958 242.425 92.6937 242.65 92.5312C242.875 92.3646 243.127 92.2396 243.406 92.1562C243.685 92.0687 243.979 92.025 244.287 92.025ZM254.656 99.125C253.79 99.125 253.102 98.8292 252.594 98.2375C252.09 97.6458 251.837 96.7667 251.837 95.6C251.837 94.4208 252.096 93.5312 252.612 92.9312C253.129 92.3271 253.817 92.025 254.675 92.025C255.037 92.025 255.354 92.0729 255.625 92.1687C255.896 92.2646 256.129 92.3937 256.325 92.5562C256.521 92.7146 256.685 92.8958 256.819 93.1H256.894C256.877 92.9708 256.86 92.7937 256.844 92.5687C256.827 92.3437 256.819 92.1604 256.819 92.0187V89.275H257.856V99H257.019L256.862 98.025H256.819C256.69 98.2292 256.525 98.4146 256.325 98.5812C256.129 98.7479 255.894 98.8812 255.619 98.9812C255.348 99.0771 255.027 99.125 254.656 99.125ZM254.819 98.2625C255.552 98.2625 256.071 98.0542 256.375 97.6375C256.679 97.2208 256.831 96.6021 256.831 95.7812V95.5937C256.831 94.7229 256.685 94.0542 256.394 93.5875C256.106 93.1208 255.581 92.8875 254.819 92.8875C254.181 92.8875 253.704 93.1333 253.387 93.625C253.071 94.1125 252.912 94.7792 252.912 95.625C252.912 96.4667 253.069 97.1167 253.381 97.575C253.698 98.0333 254.177 98.2625 254.819 98.2625ZM262.694 92.025C263.277 92.025 263.777 92.1542 264.194 92.4125C264.61 92.6708 264.929 93.0333 265.15 93.5C265.371 93.9625 265.481 94.5042 265.481 95.125V95.7687H260.75C260.762 96.5729 260.962 97.1854 261.35 97.6062C261.737 98.0271 262.283 98.2375 262.987 98.2375C263.421 98.2375 263.804 98.1979 264.137 98.1187C264.471 98.0396 264.817 97.9229 265.175 97.7687V98.6812C264.829 98.8354 264.485 98.9479 264.144 99.0188C263.806 99.0896 263.406 99.125 262.944 99.125C262.285 99.125 261.71 98.9917 261.219 98.725C260.731 98.4542 260.352 98.0583 260.081 97.5375C259.81 97.0167 259.675 96.3792 259.675 95.625C259.675 94.8875 259.798 94.25 260.044 93.7125C260.294 93.1708 260.644 92.7542 261.094 92.4625C261.548 92.1708 262.081 92.025 262.694 92.025ZM262.681 92.875C262.127 92.875 261.685 93.0562 261.356 93.4187C261.027 93.7812 260.831 94.2875 260.769 94.9375H264.394C264.39 94.5292 264.325 94.1708 264.2 93.8625C264.079 93.55 263.894 93.3083 263.644 93.1375C263.394 92.9625 263.073 92.875 262.681 92.875ZM276.225 92.15V99H275.375L275.225 98.0375H275.169C275.027 98.275 274.844 98.475 274.619 98.6375C274.394 98.8 274.14 98.9208 273.856 99C273.577 99.0833 273.279 99.125 272.962 99.125C272.421 99.125 271.967 99.0375 271.6 98.8625C271.233 98.6875 270.956 98.4167 270.769 98.05C270.585 97.6833 270.494 97.2125 270.494 96.6375V92.15H271.544V96.5625C271.544 97.1333 271.673 97.5604 271.931 97.8437C272.19 98.1229 272.583 98.2625 273.112 98.2625C273.621 98.2625 274.025 98.1667 274.325 97.975C274.629 97.7833 274.848 97.5021 274.981 97.1312C275.115 96.7562 275.181 96.2979 275.181 95.7562V92.15H276.225ZM281.662 92.025C282.475 92.025 283.09 92.225 283.506 92.625C283.923 93.0208 284.131 93.6583 284.131 94.5375V99H283.106V94.6062C283.106 94.0354 282.975 93.6083 282.712 93.325C282.454 93.0417 282.056 92.9 281.519 92.9C280.76 92.9 280.227 93.1146 279.919 93.5437C279.61 93.9729 279.456 94.5958 279.456 95.4125V99H278.419V92.15H279.256L279.412 93.1375H279.469C279.615 92.8958 279.8 92.6937 280.025 92.5312C280.25 92.3646 280.502 92.2396 280.781 92.1562C281.06 92.0687 281.354 92.025 281.662 92.025ZM288.831 92.0375C289.648 92.0375 290.254 92.2208 290.65 92.5875C291.046 92.9542 291.244 93.5396 291.244 94.3437V99H290.487L290.287 97.9875H290.237C290.046 98.2375 289.846 98.4479 289.637 98.6187C289.429 98.7854 289.187 98.9125 288.912 99C288.642 99.0833 288.308 99.125 287.912 99.125C287.496 99.125 287.125 99.0521 286.8 98.9062C286.479 98.7604 286.225 98.5396 286.037 98.2437C285.854 97.9479 285.762 97.5729 285.762 97.1187C285.762 96.4354 286.033 95.9104 286.575 95.5437C287.117 95.1771 287.942 94.9771 289.05 94.9437L290.231 94.8937V94.475C290.231 93.8833 290.104 93.4687 289.85 93.2312C289.596 92.9937 289.237 92.875 288.775 92.875C288.417 92.875 288.075 92.9271 287.75 93.0312C287.425 93.1354 287.117 93.2583 286.825 93.4L286.506 92.6125C286.815 92.4542 287.169 92.3187 287.569 92.2062C287.969 92.0937 288.39 92.0375 288.831 92.0375ZM290.219 95.625L289.175 95.6687C288.321 95.7021 287.719 95.8417 287.369 96.0875C287.019 96.3333 286.844 96.6812 286.844 97.1312C286.844 97.5229 286.962 97.8125 287.2 98C287.437 98.1875 287.752 98.2812 288.144 98.2812C288.752 98.2812 289.25 98.1125 289.637 97.775C290.025 97.4375 290.219 96.9312 290.219 96.2562V95.625ZM299.269 92.0375C300.085 92.0375 300.692 92.2208 301.087 92.5875C301.483 92.9542 301.681 93.5396 301.681 94.3437V99H300.925L300.725 97.9875H300.675C300.483 98.2375 300.283 98.4479 300.075 98.6187C299.867 98.7854 299.625 98.9125 299.35 99C299.079 99.0833 298.746 99.125 298.35 99.125C297.933 99.125 297.562 99.0521 297.237 98.9062C296.917 98.7604 296.662 98.5396 296.475 98.2437C296.292 97.9479 296.2 97.5729 296.2 97.1187C296.2 96.4354 296.471 95.9104 297.012 95.5437C297.554 95.1771 298.379 94.9771 299.487 94.9437L300.669 94.8937V94.475C300.669 93.8833 300.542 93.4687 300.287 93.2312C300.033 92.9937 299.675 92.875 299.212 92.875C298.854 92.875 298.512 92.9271 298.187 93.0312C297.862 93.1354 297.554 93.2583 297.262 93.4L296.944 92.6125C297.252 92.4542 297.606 92.3187 298.006 92.2062C298.406 92.0937 298.827 92.0375 299.269 92.0375ZM300.656 95.625L299.612 95.6687C298.758 95.7021 298.156 95.8417 297.806 96.0875C297.456 96.3333 297.281 96.6812 297.281 97.1312C297.281 97.5229 297.4 97.8125 297.637 98C297.875 98.1875 298.19 98.2812 298.581 98.2812C299.19 98.2812 299.687 98.1125 300.075 97.775C300.462 97.4375 300.656 96.9312 300.656 96.2562V95.625ZM304.862 99H303.819V89.275H304.862V99ZM309.694 92.025C310.277 92.025 310.777 92.1542 311.194 92.4125C311.61 92.6708 311.929 93.0333 312.15 93.5C312.371 93.9625 312.481 94.5042 312.481 95.125V95.7687H307.75C307.762 96.5729 307.962 97.1854 308.35 97.6062C308.737 98.0271 309.283 98.2375 309.987 98.2375C310.421 98.2375 310.804 98.1979 311.137 98.1187C311.471 98.0396 311.817 97.9229 312.175 97.7687V98.6812C311.829 98.8354 311.485 98.9479 311.144 99.0188C310.806 99.0896 310.406 99.125 309.944 99.125C309.285 99.125 308.71 98.9917 308.219 98.725C307.731 98.4542 307.352 98.0583 307.081 97.5375C306.81 97.0167 306.675 96.3792 306.675 95.625C306.675 94.8875 306.798 94.25 307.044 93.7125C307.294 93.1708 307.644 92.7542 308.094 92.4625C308.548 92.1708 309.081 92.025 309.694 92.025ZM309.681 92.875C309.127 92.875 308.685 93.0562 308.356 93.4187C308.027 93.7812 307.831 94.2875 307.769 94.9375H311.394C311.39 94.5292 311.325 94.1708 311.2 93.8625C311.079 93.55 310.894 93.3083 310.644 93.1375C310.394 92.9625 310.073 92.875 309.681 92.875ZM317.356 92.025C317.494 92.025 317.637 92.0333 317.787 92.05C317.937 92.0625 318.071 92.0812 318.187 92.1062L318.056 93.0687C317.944 93.0396 317.819 93.0167 317.681 93C317.544 92.9833 317.415 92.975 317.294 92.975C317.019 92.975 316.758 93.0312 316.512 93.1437C316.271 93.2521 316.058 93.4104 315.875 93.6187C315.692 93.8229 315.548 94.0708 315.444 94.3625C315.34 94.65 315.287 94.9708 315.287 95.325V99H314.244V92.15H315.106L315.219 93.4125H315.262C315.404 93.1583 315.575 92.9271 315.775 92.7187C315.975 92.5062 316.206 92.3375 316.469 92.2125C316.735 92.0875 317.031 92.025 317.356 92.025ZM321.694 98.275C321.865 98.275 322.04 98.2604 322.219 98.2312C322.398 98.2021 322.544 98.1667 322.656 98.125V98.9312C322.535 98.9854 322.367 99.0313 322.15 99.0688C321.937 99.1063 321.729 99.125 321.525 99.125C321.162 99.125 320.833 99.0625 320.537 98.9375C320.242 98.8083 320.004 98.5917 319.825 98.2875C319.65 97.9833 319.562 97.5625 319.562 97.025V92.9625H318.587V92.4562L319.569 92.05L319.981 90.5625H320.606V92.15H322.612V92.9625H320.606V96.9937C320.606 97.4229 320.704 97.7437 320.9 97.9562C321.1 98.1687 321.365 98.275 321.694 98.275ZM326.606 92.0375C327.423 92.0375 328.029 92.2208 328.425 92.5875C328.821 92.9542 329.019 93.5396 329.019 94.3437V99H328.262L328.062 97.9875H328.012C327.821 98.2375 327.621 98.4479 327.412 98.6187C327.204 98.7854 326.962 98.9125 326.687 99C326.417 99.0833 326.083 99.125 325.687 99.125C325.271 99.125 324.9 99.0521 324.575 98.9062C324.254 98.7604 324 98.5396 323.812 98.2437C323.629 97.9479 323.537 97.5729 323.537 97.1187C323.537 96.4354 323.808 95.9104 324.35 95.5437C324.892 95.1771 325.717 94.9771 326.825 94.9437L328.006 94.8937V94.475C328.006 93.8833 327.879 93.4687 327.625 93.2312C327.371 92.9937 327.012 92.875 326.55 92.875C326.192 92.875 325.85 92.9271 325.525 93.0312C325.2 93.1354 324.892 93.2583 324.6 93.4L324.281 92.6125C324.59 92.4542 324.944 92.3187 325.344 92.2062C325.744 92.0937 326.165 92.0375 326.606 92.0375ZM327.994 95.625L326.95 95.6687C326.096 95.7021 325.494 95.8417 325.144 96.0875C324.794 96.3333 324.619 96.6812 324.619 97.1312C324.619 97.5229 324.737 97.8125 324.975 98C325.212 98.1875 325.527 98.2812 325.919 98.2812C326.527 98.2812 327.025 98.1125 327.412 97.775C327.8 97.4375 327.994 96.9312 327.994 96.2562V95.625ZM336.919 99.125C336.052 99.125 335.365 98.8292 334.856 98.2375C334.352 97.6458 334.1 96.7667 334.1 95.6C334.1 94.4208 334.358 93.5312 334.875 92.9312C335.392 92.3271 336.079 92.025 336.937 92.025C337.3 92.025 337.617 92.0729 337.887 92.1687C338.158 92.2646 338.392 92.3937 338.587 92.5562C338.783 92.7146 338.948 92.8958 339.081 93.1H339.156C339.14 92.9708 339.123 92.7937 339.106 92.5687C339.09 92.3437 339.081 92.1604 339.081 92.0187V89.275H340.119V99H339.281L339.125 98.025H339.081C338.952 98.2292 338.787 98.4146 338.587 98.5812C338.392 98.7479 338.156 98.8812 337.881 98.9812C337.61 99.0771 337.29 99.125 336.919 99.125ZM337.081 98.2625C337.815 98.2625 338.333 98.0542 338.637 97.6375C338.942 97.2208 339.094 96.6021 339.094 95.7812V95.5937C339.094 94.7229 338.948 94.0542 338.656 93.5875C338.369 93.1208 337.844 92.8875 337.081 92.8875C336.444 92.8875 335.967 93.1333 335.65 93.625C335.333 94.1125 335.175 94.7792 335.175 95.625C335.175 96.4667 335.331 97.1167 335.644 97.575C335.96 98.0333 336.44 98.2625 337.081 98.2625ZM344.956 92.025C345.54 92.025 346.04 92.1542 346.456 92.4125C346.873 92.6708 347.192 93.0333 347.412 93.5C347.633 93.9625 347.744 94.5042 347.744 95.125V95.7687H343.012C343.025 96.5729 343.225 97.1854 343.612 97.6062C344 98.0271 344.546 98.2375 345.25 98.2375C345.683 98.2375 346.067 98.1979 346.4 98.1187C346.733 98.0396 347.079 97.9229 347.437 97.7687V98.6812C347.092 98.8354 346.748 98.9479 346.406 99.0188C346.069 99.0896 345.669 99.125 345.206 99.125C344.548 99.125 343.973 98.9917 343.481 98.725C342.994 98.4542 342.615 98.0583 342.344 97.5375C342.073 97.0167 341.937 96.3792 341.937 95.625C341.937 94.8875 342.06 94.25 342.306 93.7125C342.556 93.1708 342.906 92.7542 343.356 92.4625C343.81 92.1708 344.344 92.025 344.956 92.025ZM344.944 92.875C344.39 92.875 343.948 93.0562 343.619 93.4187C343.29 93.7812 343.094 94.2875 343.031 94.9375H346.656C346.652 94.5292 346.587 94.1708 346.462 93.8625C346.342 93.55 346.156 93.3083 345.906 93.1375C345.656 92.9625 345.335 92.875 344.944 92.875ZM355.394 92.0375C356.21 92.0375 356.817 92.2208 357.212 92.5875C357.608 92.9542 357.806 93.5396 357.806 94.3437V99H357.05L356.85 97.9875H356.8C356.608 98.2375 356.408 98.4479 356.2 98.6187C355.992 98.7854 355.75 98.9125 355.475 99C355.204 99.0833 354.871 99.125 354.475 99.125C354.058 99.125 353.687 99.0521 353.362 98.9062C353.042 98.7604 352.787 98.5396 352.6 98.2437C352.417 97.9479 352.325 97.5729 352.325 97.1187C352.325 96.4354 352.596 95.9104 353.137 95.5437C353.679 95.1771 354.504 94.9771 355.612 94.9437L356.794 94.8937V94.475C356.794 93.8833 356.667 93.4687 356.412 93.2312C356.158 92.9937 355.8 92.875 355.337 92.875C354.979 92.875 354.637 92.9271 354.312 93.0312C353.987 93.1354 353.679 93.2583 353.387 93.4L353.069 92.6125C353.377 92.4542 353.731 92.3187 354.131 92.2062C354.531 92.0937 354.952 92.0375 355.394 92.0375ZM356.781 95.625L355.737 95.6687C354.883 95.7021 354.281 95.8417 353.931 96.0875C353.581 96.3333 353.406 96.6812 353.406 97.1312C353.406 97.5229 353.525 97.8125 353.762 98C354 98.1875 354.315 98.2812 354.706 98.2812C355.315 98.2812 355.812 98.1125 356.2 97.775C356.587 97.4375 356.781 96.9312 356.781 96.2562V95.625ZM362.381 99.125C361.515 99.125 360.827 98.8292 360.319 98.2375C359.815 97.6458 359.562 96.7667 359.562 95.6C359.562 94.4208 359.821 93.5312 360.337 92.9312C360.854 92.3271 361.542 92.025 362.4 92.025C362.762 92.025 363.079 92.0729 363.35 92.1687C363.621 92.2646 363.854 92.3937 364.05 92.5562C364.246 92.7146 364.41 92.8958 364.544 93.1H364.619C364.602 92.9708 364.585 92.7937 364.569 92.5687C364.552 92.3437 364.544 92.1604 364.544 92.0187V89.275H365.581V99H364.744L364.587 98.025H364.544C364.415 98.2292 364.25 98.4146 364.05 98.5812C363.854 98.7479 363.619 98.8812 363.344 98.9812C363.073 99.0771 362.752 99.125 362.381 99.125ZM362.544 98.2625C363.277 98.2625 363.796 98.0542 364.1 97.6375C364.404 97.2208 364.556 96.6021 364.556 95.7812V95.5937C364.556 94.7229 364.41 94.0542 364.119 93.5875C363.831 93.1208 363.306 92.8875 362.544 92.8875C361.906 92.8875 361.429 93.1333 361.112 93.625C360.796 94.1125 360.637 94.7792 360.637 95.625C360.637 96.4667 360.794 97.1167 361.106 97.575C361.423 98.0333 361.902 98.2625 362.544 98.2625ZM369.287 99L366.687 92.15H367.8L369.306 96.2937C369.41 96.5771 369.517 96.8896 369.625 97.2312C369.733 97.5729 369.808 97.8479 369.85 98.0562H369.894C369.944 97.8479 370.027 97.5729 370.144 97.2312C370.26 96.8854 370.367 96.5729 370.462 96.2937L371.969 92.15H373.081L370.475 99H369.287ZM376.819 92.025C377.402 92.025 377.902 92.1542 378.319 92.4125C378.735 92.6708 379.054 93.0333 379.275 93.5C379.496 93.9625 379.606 94.5042 379.606 95.125V95.7687H374.875C374.887 96.5729 375.087 97.1854 375.475 97.6062C375.862 98.0271 376.408 98.2375 377.112 98.2375C377.546 98.2375 377.929 98.1979 378.262 98.1187C378.596 98.0396 378.942 97.9229 379.3 97.7687V98.6812C378.954 98.8354 378.61 98.9479 378.269 99.0188C377.931 99.0896 377.531 99.125 377.069 99.125C376.41 99.125 375.835 98.9917 375.344 98.725C374.856 98.4542 374.477 98.0583 374.206 97.5375C373.935 97.0167 373.8 96.3792 373.8 95.625C373.8 94.8875 373.923 94.25 374.169 93.7125C374.419 93.1708 374.769 92.7542 375.219 92.4625C375.673 92.1708 376.206 92.025 376.819 92.025ZM376.806 92.875C376.252 92.875 375.81 93.0562 375.481 93.4187C375.152 93.7812 374.956 94.2875 374.894 94.9375H378.519C378.515 94.5292 378.45 94.1708 378.325 93.8625C378.204 93.55 378.019 93.3083 377.769 93.1375C377.519 92.9625 377.198 92.875 376.806 92.875ZM384.481 92.025C384.619 92.025 384.762 92.0333 384.912 92.05C385.062 92.0625 385.196 92.0812 385.312 92.1062L385.181 93.0687C385.069 93.0396 384.944 93.0167 384.806 93C384.669 92.9833 384.54 92.975 384.419 92.975C384.144 92.975 383.883 93.0312 383.637 93.1437C383.396 93.2521 383.183 93.4104 383 93.6187C382.817 93.8229 382.673 94.0708 382.569 94.3625C382.465 94.65 382.412 94.9708 382.412 95.325V99H381.369V92.15H382.231L382.344 93.4125H382.387C382.529 93.1583 382.7 92.9271 382.9 92.7187C383.1 92.5062 383.331 92.3375 383.594 92.2125C383.86 92.0875 384.156 92.025 384.481 92.025ZM388.819 98.275C388.99 98.275 389.165 98.2604 389.344 98.2312C389.523 98.2021 389.669 98.1667 389.781 98.125V98.9312C389.66 98.9854 389.492 99.0313 389.275 99.0688C389.062 99.1063 388.854 99.125 388.65 99.125C388.287 99.125 387.958 99.0625 387.662 98.9375C387.367 98.8083 387.129 98.5917 386.95 98.2875C386.775 97.9833 386.687 97.5625 386.687 97.025V92.9625H385.712V92.4562L386.694 92.05L387.106 90.5625H387.731V92.15H389.737V92.9625H387.731V96.9937C387.731 97.4229 387.829 97.7437 388.025 97.9562C388.225 98.1687 388.49 98.275 388.819 98.275ZM393.806 92.025C394.39 92.025 394.89 92.1542 395.306 92.4125C395.723 92.6708 396.042 93.0333 396.262 93.5C396.483 93.9625 396.594 94.5042 396.594 95.125V95.7687H391.862C391.875 96.5729 392.075 97.1854 392.462 97.6062C392.85 98.0271 393.396 98.2375 394.1 98.2375C394.533 98.2375 394.917 98.1979 395.25 98.1187C395.583 98.0396 395.929 97.9229 396.287 97.7687V98.6812C395.942 98.8354 395.598 98.9479 395.256 99.0188C394.919 99.0896 394.519 99.125 394.056 99.125C393.398 99.125 392.823 98.9917 392.331 98.725C391.844 98.4542 391.465 98.0583 391.194 97.5375C390.923 97.0167 390.787 96.3792 390.787 95.625C390.787 94.8875 390.91 94.25 391.156 93.7125C391.406 93.1708 391.756 92.7542 392.206 92.4625C392.66 92.1708 393.194 92.025 393.806 92.025ZM393.794 92.875C393.24 92.875 392.798 93.0562 392.469 93.4187C392.14 93.7812 391.944 94.2875 391.881 94.9375H395.506C395.502 94.5292 395.437 94.1708 395.312 93.8625C395.192 93.55 395.006 93.3083 394.756 93.1375C394.506 92.9625 394.185 92.875 393.794 92.875ZM401.6 92.025C402.412 92.025 403.027 92.225 403.444 92.625C403.86 93.0208 404.069 93.6583 404.069 94.5375V99H403.044V94.6062C403.044 94.0354 402.912 93.6083 402.65 93.325C402.392 93.0417 401.994 92.9 401.456 92.9C400.698 92.9 400.165 93.1146 399.856 93.5437C399.548 93.9729 399.394 94.5958 399.394 95.4125V99H398.356V92.15H399.194L399.35 93.1375H399.406C399.552 92.8958 399.737 92.6937 399.962 92.5312C400.187 92.3646 400.44 92.2396 400.719 92.1562C400.998 92.0687 401.292 92.025 401.6 92.025ZM408.95 99.125C408.333 99.125 407.79 98.9979 407.319 98.7437C406.848 98.4896 406.481 98.1021 406.219 97.5812C405.956 97.0604 405.825 96.4042 405.825 95.6125C405.825 94.7833 405.962 94.1062 406.237 93.5812C406.517 93.0521 406.9 92.6604 407.387 92.4062C407.875 92.1521 408.429 92.025 409.05 92.025C409.392 92.025 409.721 92.0604 410.037 92.1312C410.358 92.1979 410.621 92.2833 410.825 92.3875L410.512 93.2562C410.304 93.1729 410.062 93.0979 409.787 93.0312C409.517 92.9646 409.262 92.9312 409.025 92.9312C408.55 92.9312 408.154 93.0333 407.837 93.2375C407.525 93.4417 407.29 93.7417 407.131 94.1375C406.977 94.5333 406.9 95.0208 406.9 95.6C406.9 96.1542 406.975 96.6271 407.125 97.0187C407.279 97.4104 407.506 97.7104 407.806 97.9187C408.11 98.1229 408.49 98.225 408.944 98.225C409.306 98.225 409.633 98.1875 409.925 98.1125C410.217 98.0333 410.481 97.9417 410.719 97.8375V98.7625C410.49 98.8792 410.233 98.9687 409.95 99.0313C409.671 99.0938 409.337 99.125 408.95 99.125ZM413.381 92.15V99H412.344V92.15H413.381ZM412.875 89.5875C413.046 89.5875 413.192 89.6437 413.313 89.7562C413.438 89.8646 413.5 90.0354 413.5 90.2687C413.5 90.4979 413.438 90.6687 413.313 90.7812C413.192 90.8937 413.046 90.95 412.875 90.95C412.696 90.95 412.546 90.8937 412.425 90.7812C412.308 90.6687 412.25 90.4979 412.25 90.2687C412.25 90.0354 412.308 89.8646 412.425 89.7562C412.546 89.6437 412.696 89.5875 412.875 89.5875ZM418.144 92.0375C418.96 92.0375 419.567 92.2208 419.962 92.5875C420.358 92.9542 420.556 93.5396 420.556 94.3437V99H419.8L419.6 97.9875H419.55C419.358 98.2375 419.158 98.4479 418.95 98.6187C418.742 98.7854 418.5 98.9125 418.225 99C417.954 99.0833 417.621 99.125 417.225 99.125C416.808 99.125 416.437 99.0521 416.112 98.9062C415.792 98.7604 415.537 98.5396 415.35 98.2437C415.167 97.9479 415.075 97.5729 415.075 97.1187C415.075 96.4354 415.346 95.9104 415.887 95.5437C416.429 95.1771 417.254 94.9771 418.362 94.9437L419.544 94.8937V94.475C419.544 93.8833 419.417 93.4687 419.162 93.2312C418.908 92.9937 418.55 92.875 418.087 92.875C417.729 92.875 417.387 92.9271 417.062 93.0312C416.737 93.1354 416.429 93.2583 416.137 93.4L415.819 92.6125C416.127 92.4542 416.481 92.3187 416.881 92.2062C417.281 92.0937 417.702 92.0375 418.144 92.0375ZM419.531 95.625L418.487 95.6687C417.633 95.7021 417.031 95.8417 416.681 96.0875C416.331 96.3333 416.156 96.6812 416.156 97.1312C416.156 97.5229 416.275 97.8125 416.512 98C416.75 98.1875 417.065 98.2812 417.456 98.2812C418.065 98.2812 418.562 98.1125 418.95 97.775C419.337 97.4375 419.531 96.9312 419.531 96.2562V95.625ZM430.612 102.063V99.125C430.612 98.9625 430.617 98.775 430.625 98.5625C430.633 98.35 430.648 98.1667 430.669 98.0125H430.6C430.408 98.3292 430.135 98.5937 429.781 98.8062C429.427 99.0188 428.971 99.125 428.412 99.125C427.575 99.125 426.902 98.8292 426.394 98.2375C425.885 97.6458 425.631 96.7625 425.631 95.5875C425.631 94.8167 425.748 94.1667 425.981 93.6375C426.215 93.1083 426.544 92.7083 426.969 92.4375C427.398 92.1625 427.898 92.025 428.469 92.025C429.015 92.025 429.46 92.1333 429.806 92.35C430.152 92.5625 430.423 92.8229 430.619 93.1312H430.669L430.825 92.15H431.65V102.063H430.612ZM428.606 98.2625C429.09 98.2625 429.477 98.1729 429.769 97.9937C430.06 97.8104 430.273 97.5354 430.406 97.1687C430.544 96.8021 430.617 96.3458 430.625 95.8V95.5812C430.625 94.6979 430.475 94.0292 430.175 93.575C429.875 93.1167 429.352 92.8875 428.606 92.8875C427.965 92.8875 427.487 93.1333 427.175 93.625C426.862 94.1125 426.706 94.775 426.706 95.6125C426.706 96.45 426.862 97.1021 427.175 97.5687C427.487 98.0312 427.965 98.2625 428.606 98.2625ZM439.512 92.15V99H438.662L438.512 98.0375H438.456C438.315 98.275 438.131 98.475 437.906 98.6375C437.681 98.8 437.427 98.9208 437.144 99C436.865 99.0833 436.567 99.125 436.25 99.125C435.708 99.125 435.254 99.0375 434.887 98.8625C434.521 98.6875 434.244 98.4167 434.056 98.05C433.873 97.6833 433.781 97.2125 433.781 96.6375V92.15H434.831V96.5625C434.831 97.1333 434.96 97.5604 435.219 97.8437C435.477 98.1229 435.871 98.2625 436.4 98.2625C436.908 98.2625 437.312 98.1667 437.612 97.975C437.917 97.7833 438.135 97.5021 438.269 97.1312C438.402 96.7562 438.469 96.2979 438.469 95.7562V92.15H439.512ZM444.344 92.025C444.927 92.025 445.427 92.1542 445.844 92.4125C446.26 92.6708 446.579 93.0333 446.8 93.5C447.021 93.9625 447.131 94.5042 447.131 95.125V95.7687H442.4C442.412 96.5729 442.612 97.1854 443 97.6062C443.387 98.0271 443.933 98.2375 444.637 98.2375C445.071 98.2375 445.454 98.1979 445.787 98.1187C446.121 98.0396 446.467 97.9229 446.825 97.7687V98.6812C446.479 98.8354 446.135 98.9479 445.794 99.0188C445.456 99.0896 445.056 99.125 444.594 99.125C443.935 99.125 443.36 98.9917 442.869 98.725C442.381 98.4542 442.002 98.0583 441.731 97.5375C441.46 97.0167 441.325 96.3792 441.325 95.625C441.325 94.8875 441.448 94.25 441.694 93.7125C441.944 93.1708 442.294 92.7542 442.744 92.4625C443.198 92.1708 443.731 92.025 444.344 92.025ZM444.331 92.875C443.777 92.875 443.335 93.0562 443.006 93.4187C442.677 93.7812 442.481 94.2875 442.419 94.9375H446.044C446.04 94.5292 445.975 94.1708 445.85 93.8625C445.729 93.55 445.544 93.3083 445.294 93.1375C445.044 92.9625 444.723 92.875 444.331 92.875ZM455.438 92.025C456.292 92.025 456.973 92.3187 457.481 92.9062C457.99 93.4937 458.244 94.3771 458.244 95.5562C458.244 96.3354 458.127 96.9896 457.894 97.5187C457.66 98.0479 457.331 98.4479 456.906 98.7187C456.485 98.9896 455.988 99.125 455.413 99.125C455.05 99.125 454.731 99.0771 454.456 98.9812C454.181 98.8854 453.946 98.7562 453.75 98.5937C453.554 98.4312 453.392 98.2542 453.263 98.0625H453.188C453.2 98.225 453.215 98.4208 453.231 98.65C453.252 98.8792 453.263 99.0792 453.263 99.25V102.063H452.219V92.15H453.075L453.213 93.1625H453.263C453.396 92.9542 453.558 92.7646 453.75 92.5937C453.942 92.4187 454.175 92.2812 454.45 92.1812C454.729 92.0771 455.058 92.025 455.438 92.025ZM455.256 92.9C454.781 92.9 454.398 92.9917 454.106 93.175C453.819 93.3583 453.608 93.6333 453.475 94C453.342 94.3625 453.271 94.8187 453.263 95.3687V95.5687C453.263 96.1479 453.325 96.6375 453.45 97.0375C453.579 97.4375 453.79 97.7417 454.081 97.95C454.377 98.1583 454.773 98.2625 455.269 98.2625C455.694 98.2625 456.048 98.1479 456.331 97.9187C456.615 97.6896 456.825 97.3708 456.963 96.9625C457.104 96.55 457.175 96.0771 457.175 95.5437C457.175 94.7354 457.017 94.0937 456.7 93.6187C456.388 93.1396 455.906 92.9 455.256 92.9ZM465.712 92.15V99H464.862L464.712 98.0375H464.656C464.515 98.275 464.331 98.475 464.106 98.6375C463.881 98.8 463.627 98.9208 463.344 99C463.065 99.0833 462.767 99.125 462.45 99.125C461.908 99.125 461.454 99.0375 461.087 98.8625C460.721 98.6875 460.444 98.4167 460.256 98.05C460.073 97.6833 459.981 97.2125 459.981 96.6375V92.15H461.031V96.5625C461.031 97.1333 461.16 97.5604 461.419 97.8437C461.677 98.1229 462.071 98.2625 462.6 98.2625C463.108 98.2625 463.512 98.1667 463.812 97.975C464.117 97.7833 464.335 97.5021 464.469 97.1312C464.602 96.7562 464.669 96.2979 464.669 95.7562V92.15H465.712ZM470.544 92.025C471.127 92.025 471.627 92.1542 472.044 92.4125C472.46 92.6708 472.779 93.0333 473 93.5C473.221 93.9625 473.331 94.5042 473.331 95.125V95.7687H468.6C468.613 96.5729 468.813 97.1854 469.2 97.6062C469.588 98.0271 470.133 98.2375 470.838 98.2375C471.271 98.2375 471.654 98.1979 471.988 98.1187C472.321 98.0396 472.667 97.9229 473.025 97.7687V98.6812C472.679 98.8354 472.335 98.9479 471.994 99.0188C471.656 99.0896 471.256 99.125 470.794 99.125C470.135 99.125 469.56 98.9917 469.069 98.725C468.581 98.4542 468.202 98.0583 467.931 97.5375C467.66 97.0167 467.525 96.3792 467.525 95.625C467.525 94.8875 467.648 94.25 467.894 93.7125C468.144 93.1708 468.494 92.7542 468.944 92.4625C469.398 92.1708 469.931 92.025 470.544 92.025ZM470.531 92.875C469.977 92.875 469.535 93.0562 469.206 93.4187C468.877 93.7812 468.681 94.2875 468.619 94.9375H472.244C472.24 94.5292 472.175 94.1708 472.05 93.8625C471.929 93.55 471.744 93.3083 471.494 93.1375C471.244 92.9625 470.923 92.875 470.531 92.875ZM477.531 99.125C476.665 99.125 475.977 98.8292 475.469 98.2375C474.965 97.6458 474.713 96.7667 474.713 95.6C474.713 94.4208 474.971 93.5312 475.488 92.9312C476.004 92.3271 476.692 92.025 477.55 92.025C477.913 92.025 478.229 92.0729 478.5 92.1687C478.771 92.2646 479.004 92.3937 479.2 92.5562C479.396 92.7146 479.56 92.8958 479.694 93.1H479.769C479.752 92.9708 479.735 92.7937 479.719 92.5687C479.702 92.3437 479.694 92.1604 479.694 92.0187V89.275H480.731V99H479.894L479.738 98.025H479.694C479.565 98.2292 479.4 98.4146 479.2 98.5812C479.004 98.7479 478.769 98.8812 478.494 98.9812C478.223 99.0771 477.902 99.125 477.531 99.125ZM477.694 98.2625C478.427 98.2625 478.946 98.0542 479.25 97.6375C479.554 97.2208 479.706 96.6021 479.706 95.7812V95.5937C479.706 94.7229 479.56 94.0542 479.269 93.5875C478.981 93.1208 478.456 92.8875 477.694 92.8875C477.056 92.8875 476.579 93.1333 476.263 93.625C475.946 94.1125 475.788 94.7792 475.788 95.625C475.788 96.4667 475.944 97.1167 476.256 97.575C476.573 98.0333 477.052 98.2625 477.694 98.2625ZM485.569 92.025C486.152 92.025 486.652 92.1542 487.069 92.4125C487.485 92.6708 487.804 93.0333 488.025 93.5C488.246 93.9625 488.356 94.5042 488.356 95.125V95.7687H483.625C483.637 96.5729 483.837 97.1854 484.225 97.6062C484.612 98.0271 485.158 98.2375 485.862 98.2375C486.296 98.2375 486.679 98.1979 487.012 98.1187C487.346 98.0396 487.692 97.9229 488.05 97.7687V98.6812C487.704 98.8354 487.36 98.9479 487.019 99.0188C486.681 99.0896 486.281 99.125 485.819 99.125C485.16 99.125 484.585 98.9917 484.094 98.725C483.606 98.4542 483.227 98.0583 482.956 97.5375C482.685 97.0167 482.55 96.3792 482.55 95.625C482.55 94.8875 482.673 94.25 482.919 93.7125C483.169 93.1708 483.519 92.7542 483.969 92.4625C484.423 92.1708 484.956 92.025 485.569 92.025ZM485.556 92.875C485.002 92.875 484.56 93.0562 484.231 93.4187C483.902 93.7812 483.706 94.2875 483.644 94.9375H487.269C487.265 94.5292 487.2 94.1708 487.075 93.8625C486.954 93.55 486.769 93.3083 486.519 93.1375C486.269 92.9625 485.948 92.875 485.556 92.875ZM496.188 99.125C495.571 99.125 495.027 98.9979 494.556 98.7437C494.085 98.4896 493.719 98.1021 493.456 97.5812C493.194 97.0604 493.063 96.4042 493.063 95.6125C493.063 94.7833 493.2 94.1062 493.475 93.5812C493.754 93.0521 494.138 92.6604 494.625 92.4062C495.113 92.1521 495.667 92.025 496.288 92.025C496.629 92.025 496.958 92.0604 497.275 92.1312C497.596 92.1979 497.858 92.2833 498.063 92.3875L497.75 93.2562C497.542 93.1729 497.3 93.0979 497.025 93.0312C496.754 92.9646 496.5 92.9312 496.263 92.9312C495.788 92.9312 495.392 93.0333 495.075 93.2375C494.763 93.4417 494.527 93.7417 494.369 94.1375C494.215 94.5333 494.138 95.0208 494.138 95.6C494.138 96.1542 494.213 96.6271 494.363 97.0187C494.517 97.4104 494.744 97.7104 495.044 97.9187C495.348 98.1229 495.727 98.225 496.181 98.225C496.544 98.225 496.871 98.1875 497.163 98.1125C497.454 98.0333 497.719 97.9417 497.956 97.8375V98.7625C497.727 98.8792 497.471 98.9687 497.188 99.0313C496.908 99.0938 496.575 99.125 496.188 99.125ZM505.487 95.5625C505.487 96.125 505.415 96.6271 505.269 97.0687C505.123 97.5104 504.912 97.8833 504.637 98.1875C504.362 98.4917 504.029 98.725 503.637 98.8875C503.25 99.0458 502.81 99.125 502.319 99.125C501.86 99.125 501.44 99.0458 501.056 98.8875C500.677 98.725 500.348 98.4917 500.069 98.1875C499.794 97.8833 499.579 97.5104 499.425 97.0687C499.275 96.6271 499.2 96.125 499.2 95.5625C499.2 94.8125 499.327 94.175 499.581 93.65C499.835 93.1208 500.198 92.7187 500.669 92.4437C501.144 92.1646 501.708 92.025 502.362 92.025C502.987 92.025 503.533 92.1646 504 92.4437C504.471 92.7229 504.835 93.1271 505.094 93.6562C505.356 94.1812 505.487 94.8167 505.487 95.5625ZM500.275 95.5625C500.275 96.1125 500.348 96.5896 500.494 96.9937C500.64 97.3979 500.865 97.7104 501.169 97.9312C501.473 98.1521 501.865 98.2625 502.344 98.2625C502.819 98.2625 503.208 98.1521 503.512 97.9312C503.821 97.7104 504.048 97.3979 504.194 96.9937C504.34 96.5896 504.412 96.1125 504.412 95.5625C504.412 95.0167 504.34 94.5458 504.194 94.15C504.048 93.75 503.823 93.4417 503.519 93.225C503.215 93.0083 502.821 92.9 502.337 92.9C501.625 92.9 501.102 93.1354 500.769 93.6062C500.44 94.0771 500.275 94.7292 500.275 95.5625ZM510.525 92.025C511.338 92.025 511.952 92.225 512.369 92.625C512.785 93.0208 512.994 93.6583 512.994 94.5375V99H511.969V94.6062C511.969 94.0354 511.838 93.6083 511.575 93.325C511.317 93.0417 510.919 92.9 510.381 92.9C509.623 92.9 509.09 93.1146 508.781 93.5437C508.473 93.9729 508.319 94.5958 508.319 95.4125V99H507.281V92.15H508.119L508.275 93.1375H508.331C508.477 92.8958 508.663 92.6937 508.888 92.5312C509.113 92.3646 509.365 92.2396 509.644 92.1562C509.923 92.0687 510.217 92.025 510.525 92.025ZM517.344 98.275C517.515 98.275 517.69 98.2604 517.869 98.2312C518.048 98.2021 518.194 98.1667 518.306 98.125V98.9312C518.185 98.9854 518.017 99.0313 517.8 99.0688C517.588 99.1063 517.379 99.125 517.175 99.125C516.813 99.125 516.483 99.0625 516.188 98.9375C515.892 98.8083 515.654 98.5917 515.475 98.2875C515.3 97.9833 515.213 97.5625 515.213 97.025V92.9625H514.238V92.4562L515.219 92.05L515.631 90.5625H516.256V92.15H518.263V92.9625H516.256V96.9937C516.256 97.4229 516.354 97.7437 516.55 97.9562C516.75 98.1687 517.015 98.275 517.344 98.275ZM522.331 92.025C522.915 92.025 523.415 92.1542 523.831 92.4125C524.248 92.6708 524.567 93.0333 524.788 93.5C525.008 93.9625 525.119 94.5042 525.119 95.125V95.7687H520.388C520.4 96.5729 520.6 97.1854 520.988 97.6062C521.375 98.0271 521.921 98.2375 522.625 98.2375C523.058 98.2375 523.442 98.1979 523.775 98.1187C524.108 98.0396 524.454 97.9229 524.813 97.7687V98.6812C524.467 98.8354 524.123 98.9479 523.781 99.0188C523.444 99.0896 523.044 99.125 522.581 99.125C521.923 99.125 521.348 98.9917 520.856 98.725C520.369 98.4542 519.99 98.0583 519.719 97.5375C519.448 97.0167 519.313 96.3792 519.313 95.625C519.313 94.8875 519.435 94.25 519.681 93.7125C519.931 93.1708 520.281 92.7542 520.731 92.4625C521.185 92.1708 521.719 92.025 522.331 92.025ZM522.319 92.875C521.765 92.875 521.323 93.0562 520.994 93.4187C520.665 93.7812 520.469 94.2875 520.406 94.9375H524.031C524.027 94.5292 523.963 94.1708 523.838 93.8625C523.717 93.55 523.531 93.3083 523.281 93.1375C523.031 92.9625 522.71 92.875 522.319 92.875ZM530.125 92.025C530.938 92.025 531.552 92.225 531.969 92.625C532.385 93.0208 532.594 93.6583 532.594 94.5375V99H531.569V94.6062C531.569 94.0354 531.438 93.6083 531.175 93.325C530.917 93.0417 530.519 92.9 529.981 92.9C529.223 92.9 528.69 93.1146 528.381 93.5437C528.073 93.9729 527.919 94.5958 527.919 95.4125V99H526.881V92.15H527.719L527.875 93.1375H527.931C528.077 92.8958 528.263 92.6937 528.488 92.5312C528.713 92.3646 528.965 92.2396 529.244 92.1562C529.523 92.0687 529.817 92.025 530.125 92.025ZM537.369 92.025C537.952 92.025 538.452 92.1542 538.869 92.4125C539.285 92.6708 539.604 93.0333 539.825 93.5C540.046 93.9625 540.156 94.5042 540.156 95.125V95.7687H535.425C535.437 96.5729 535.637 97.1854 536.025 97.6062C536.412 98.0271 536.958 98.2375 537.662 98.2375C538.096 98.2375 538.479 98.1979 538.812 98.1187C539.146 98.0396 539.492 97.9229 539.85 97.7687V98.6812C539.504 98.8354 539.16 98.9479 538.819 99.0188C538.481 99.0896 538.081 99.125 537.619 99.125C536.96 99.125 536.385 98.9917 535.894 98.725C535.406 98.4542 535.027 98.0583 534.756 97.5375C534.485 97.0167 534.35 96.3792 534.35 95.625C534.35 94.8875 534.473 94.25 534.719 93.7125C534.969 93.1708 535.319 92.7542 535.769 92.4625C536.223 92.1708 536.756 92.025 537.369 92.025ZM537.356 92.875C536.802 92.875 536.36 93.0562 536.031 93.4187C535.702 93.7812 535.506 94.2875 535.444 94.9375H539.069C539.065 94.5292 539 94.1708 538.875 93.8625C538.754 93.55 538.569 93.3083 538.319 93.1375C538.069 92.9625 537.748 92.875 537.356 92.875ZM545.031 92.025C545.169 92.025 545.312 92.0333 545.462 92.05C545.612 92.0625 545.746 92.0812 545.862 92.1062L545.731 93.0687C545.619 93.0396 545.494 93.0167 545.356 93C545.219 92.9833 545.09 92.975 544.969 92.975C544.694 92.975 544.433 93.0312 544.187 93.1437C543.946 93.2521 543.733 93.4104 543.55 93.6187C543.367 93.8229 543.223 94.0708 543.119 94.3625C543.015 94.65 542.962 94.9708 542.962 95.325V99H541.919V92.15H542.781L542.894 93.4125H542.937C543.079 93.1583 543.25 92.9271 543.45 92.7187C543.65 92.5062 543.881 92.3375 544.144 92.2125C544.41 92.0875 544.706 92.025 545.031 92.025ZM551.519 89.275V92.1812C551.519 92.3479 551.515 92.5167 551.506 92.6875C551.498 92.8542 551.483 93.0083 551.462 93.15H551.531C551.673 92.9083 551.852 92.7062 552.069 92.5437C552.29 92.3771 552.54 92.2521 552.819 92.1687C553.098 92.0812 553.394 92.0375 553.706 92.0375C554.256 92.0375 554.715 92.125 555.081 92.3C555.452 92.475 555.729 92.7458 555.912 93.1125C556.1 93.4792 556.194 93.9542 556.194 94.5375V99H555.169V94.6062C555.169 94.0354 555.037 93.6083 554.775 93.325C554.517 93.0417 554.119 92.9 553.581 92.9C553.073 92.9 552.667 92.9979 552.362 93.1937C552.062 93.3854 551.846 93.6687 551.712 94.0437C551.583 94.4187 551.519 94.8771 551.519 95.4187V99H550.481V89.275H551.519ZM560.894 92.0375C561.71 92.0375 562.317 92.2208 562.712 92.5875C563.108 92.9542 563.306 93.5396 563.306 94.3437V99H562.55L562.35 97.9875H562.3C562.108 98.2375 561.908 98.4479 561.7 98.6187C561.492 98.7854 561.25 98.9125 560.975 99C560.704 99.0833 560.371 99.125 559.975 99.125C559.558 99.125 559.187 99.0521 558.862 98.9062C558.542 98.7604 558.287 98.5396 558.1 98.2437C557.917 97.9479 557.825 97.5729 557.825 97.1187C557.825 96.4354 558.096 95.9104 558.637 95.5437C559.179 95.1771 560.004 94.9771 561.112 94.9437L562.294 94.8937V94.475C562.294 93.8833 562.167 93.4687 561.912 93.2312C561.658 92.9937 561.3 92.875 560.837 92.875C560.479 92.875 560.137 92.9271 559.812 93.0312C559.487 93.1354 559.179 93.2583 558.887 93.4L558.569 92.6125C558.877 92.4542 559.231 92.3187 559.631 92.2062C560.031 92.0937 560.452 92.0375 560.894 92.0375ZM562.281 95.625L561.237 95.6687C560.383 95.7021 559.781 95.8417 559.431 96.0875C559.081 96.3333 558.906 96.6812 558.906 97.1312C558.906 97.5229 559.025 97.8125 559.262 98C559.5 98.1875 559.815 98.2812 560.206 98.2812C560.815 98.2812 561.312 98.1125 561.7 97.775C562.087 97.4375 562.281 96.9312 562.281 96.2562V95.625ZM569.875 97.125C569.875 97.5625 569.765 97.9312 569.544 98.2312C569.327 98.5271 569.015 98.75 568.606 98.9C568.202 99.05 567.719 99.125 567.156 99.125C566.677 99.125 566.263 99.0875 565.913 99.0125C565.563 98.9375 565.256 98.8312 564.994 98.6937V97.7375C565.273 97.875 565.606 98 565.994 98.1125C566.381 98.225 566.777 98.2812 567.181 98.2812C567.773 98.2812 568.202 98.1854 568.469 97.9937C568.735 97.8021 568.869 97.5417 568.869 97.2125C568.869 97.025 568.815 96.8604 568.706 96.7187C568.602 96.5729 568.425 96.4333 568.175 96.3C567.925 96.1625 567.579 96.0125 567.138 95.85C566.7 95.6833 566.321 95.5187 566 95.3562C565.683 95.1896 565.438 94.9875 565.263 94.75C565.092 94.5125 565.006 94.2042 565.006 93.825C565.006 93.2458 565.24 92.8021 565.706 92.4937C566.177 92.1812 566.794 92.025 567.556 92.025C567.969 92.025 568.354 92.0667 568.713 92.15C569.075 92.2292 569.413 92.3375 569.725 92.475L569.375 93.3062C569.092 93.1854 568.79 93.0833 568.469 93C568.148 92.9167 567.821 92.875 567.488 92.875C567.008 92.875 566.64 92.9542 566.381 93.1125C566.127 93.2708 566 93.4875 566 93.7625C566 93.975 566.058 94.15 566.175 94.2875C566.296 94.425 566.488 94.5542 566.75 94.675C567.013 94.7958 567.358 94.9375 567.788 95.1C568.217 95.2583 568.588 95.4229 568.9 95.5937C569.213 95.7604 569.452 95.9646 569.619 96.2062C569.79 96.4437 569.875 96.75 569.875 97.125ZM573.756 98.275C573.927 98.275 574.102 98.2604 574.281 98.2312C574.46 98.2021 574.606 98.1667 574.719 98.125V98.9312C574.598 98.9854 574.429 99.0313 574.212 99.0688C574 99.1063 573.792 99.125 573.587 99.125C573.225 99.125 572.896 99.0625 572.6 98.9375C572.304 98.8083 572.067 98.5917 571.887 98.2875C571.712 97.9833 571.625 97.5625 571.625 97.025V92.9625H570.65V92.4562L571.631 92.05L572.044 90.5625H572.669V92.15H574.675V92.9625H572.669V96.9937C572.669 97.4229 572.767 97.7437 572.962 97.9562C573.162 98.1687 573.427 98.275 573.756 98.275ZM578.669 92.0375C579.485 92.0375 580.092 92.2208 580.487 92.5875C580.883 92.9542 581.081 93.5396 581.081 94.3437V99H580.325L580.125 97.9875H580.075C579.883 98.2375 579.683 98.4479 579.475 98.6187C579.267 98.7854 579.025 98.9125 578.75 99C578.479 99.0833 578.146 99.125 577.75 99.125C577.333 99.125 576.962 99.0521 576.637 98.9062C576.317 98.7604 576.062 98.5396 575.875 98.2437C575.692 97.9479 575.6 97.5729 575.6 97.1187C575.6 96.4354 575.871 95.9104 576.412 95.5437C576.954 95.1771 577.779 94.9771 578.887 94.9437L580.069 94.8937V94.475C580.069 93.8833 579.942 93.4687 579.687 93.2312C579.433 92.9937 579.075 92.875 578.612 92.875C578.254 92.875 577.912 92.9271 577.587 93.0312C577.262 93.1354 576.954 93.2583 576.662 93.4L576.344 92.6125C576.652 92.4542 577.006 92.3187 577.406 92.2062C577.806 92.0937 578.227 92.0375 578.669 92.0375ZM580.056 95.625L579.012 95.6687C578.158 95.7021 577.556 95.8417 577.206 96.0875C576.856 96.3333 576.681 96.6812 576.681 97.1312C576.681 97.5229 576.8 97.8125 577.037 98C577.275 98.1875 577.59 98.2812 577.981 98.2812C578.59 98.2812 579.087 98.1125 579.475 97.775C579.862 97.4375 580.056 96.9312 580.056 96.2562V95.625ZM592.525 96.8812H591.156V99H590.144V96.8812H585.725V96.0062L590.075 89.8125H591.156V95.9437H592.525V96.8812ZM590.144 95.9437V92.9562C590.144 92.7271 590.146 92.5208 590.15 92.3375C590.154 92.15 590.16 91.9771 590.169 91.8187C590.177 91.6562 590.183 91.5021 590.187 91.3562C590.196 91.2104 590.202 91.0667 590.206 90.925H590.156C590.077 91.0917 589.985 91.2687 589.881 91.4562C589.781 91.6396 589.679 91.8042 589.575 91.95L586.756 95.9437H590.144ZM598.238 99H597.194V89.275H598.238V99ZM601.469 99H600.431V92.15H601.469V99ZM602.762 89.1937V89.3187C602.679 89.4396 602.565 89.5854 602.419 89.7562C602.277 89.9229 602.119 90.1 601.944 90.2875C601.769 90.4708 601.592 90.6458 601.412 90.8125C601.237 90.9792 601.075 91.1229 600.925 91.2437H600.231V91.0937C600.365 90.9354 600.51 90.7458 600.669 90.525C600.827 90.3 600.981 90.0708 601.131 89.8375C601.281 89.6 601.406 89.3854 601.506 89.1937H602.762ZM606.912 92.025C607.725 92.025 608.34 92.225 608.756 92.625C609.173 93.0208 609.381 93.6583 609.381 94.5375V99H608.356V94.6062C608.356 94.0354 608.225 93.6083 607.962 93.325C607.704 93.0417 607.306 92.9 606.769 92.9C606.01 92.9 605.477 93.1146 605.169 93.5437C604.86 93.9729 604.706 94.5958 604.706 95.4125V99H603.669V92.15H604.506L604.662 93.1375H604.719C604.865 92.8958 605.05 92.6937 605.275 92.5312C605.5 92.3646 605.752 92.2396 606.031 92.1562C606.31 92.0687 606.604 92.025 606.912 92.025ZM614.156 92.025C614.74 92.025 615.24 92.1542 615.656 92.4125C616.073 92.6708 616.392 93.0333 616.612 93.5C616.833 93.9625 616.944 94.5042 616.944 95.125V95.7687H612.212C612.225 96.5729 612.425 97.1854 612.812 97.6062C613.2 98.0271 613.746 98.2375 614.45 98.2375C614.883 98.2375 615.267 98.1979 615.6 98.1187C615.933 98.0396 616.279 97.9229 616.637 97.7687V98.6812C616.292 98.8354 615.948 98.9479 615.606 99.0188C615.269 99.0896 614.869 99.125 614.406 99.125C613.748 99.125 613.173 98.9917 612.681 98.725C612.194 98.4542 611.815 98.0583 611.544 97.5375C611.273 97.0167 611.137 96.3792 611.137 95.625C611.137 94.8875 611.26 94.25 611.506 93.7125C611.756 93.1708 612.106 92.7542 612.556 92.4625C613.01 92.1708 613.544 92.025 614.156 92.025ZM614.144 92.875C613.59 92.875 613.148 93.0562 612.819 93.4187C612.49 93.7812 612.294 94.2875 612.231 94.9375H615.856C615.852 94.5292 615.787 94.1708 615.662 93.8625C615.542 93.55 615.356 93.3083 615.106 93.1375C614.856 92.9625 614.535 92.875 614.144 92.875ZM621.269 92.0375C622.085 92.0375 622.692 92.2208 623.087 92.5875C623.483 92.9542 623.681 93.5396 623.681 94.3437V99H622.925L622.725 97.9875H622.675C622.483 98.2375 622.283 98.4479 622.075 98.6187C621.867 98.7854 621.625 98.9125 621.35 99C621.079 99.0833 620.746 99.125 620.35 99.125C619.933 99.125 619.562 99.0521 619.237 98.9062C618.917 98.7604 618.662 98.5396 618.475 98.2437C618.292 97.9479 618.2 97.5729 618.2 97.1187C618.2 96.4354 618.471 95.9104 619.012 95.5437C619.554 95.1771 620.379 94.9771 621.487 94.9437L622.669 94.8937V94.475C622.669 93.8833 622.542 93.4687 622.287 93.2312C622.033 92.9937 621.675 92.875 621.212 92.875C620.854 92.875 620.512 92.9271 620.187 93.0312C619.862 93.1354 619.554 93.2583 619.262 93.4L618.944 92.6125C619.252 92.4542 619.606 92.3187 620.006 92.2062C620.406 92.0937 620.827 92.0375 621.269 92.0375ZM622.656 95.625L621.612 95.6687C620.758 95.7021 620.156 95.8417 619.806 96.0875C619.456 96.3333 619.281 96.6812 619.281 97.1312C619.281 97.5229 619.4 97.8125 619.637 98C619.875 98.1875 620.19 98.2812 620.581 98.2812C621.19 98.2812 621.687 98.1125 622.075 97.775C622.462 97.4375 622.656 96.9312 622.656 96.2562V95.625ZM630.25 97.125C630.25 97.5625 630.14 97.9312 629.919 98.2312C629.702 98.5271 629.39 98.75 628.981 98.9C628.577 99.05 628.094 99.125 627.531 99.125C627.052 99.125 626.638 99.0875 626.288 99.0125C625.938 98.9375 625.631 98.8312 625.369 98.6937V97.7375C625.648 97.875 625.981 98 626.369 98.1125C626.756 98.225 627.152 98.2812 627.556 98.2812C628.148 98.2812 628.577 98.1854 628.844 97.9937C629.11 97.8021 629.244 97.5417 629.244 97.2125C629.244 97.025 629.19 96.8604 629.081 96.7187C628.977 96.5729 628.8 96.4333 628.55 96.3C628.3 96.1625 627.954 96.0125 627.513 95.85C627.075 95.6833 626.696 95.5187 626.375 95.3562C626.058 95.1896 625.813 94.9875 625.638 94.75C625.467 94.5125 625.381 94.2042 625.381 93.825C625.381 93.2458 625.615 92.8021 626.081 92.4937C626.552 92.1812 627.169 92.025 627.931 92.025C628.344 92.025 628.729 92.0667 629.088 92.15C629.45 92.2292 629.788 92.3375 630.1 92.475L629.75 93.3062C629.467 93.1854 629.165 93.0833 628.844 93C628.523 92.9167 628.196 92.875 627.863 92.875C627.383 92.875 627.015 92.9542 626.756 93.1125C626.502 93.2708 626.375 93.4875 626.375 93.7625C626.375 93.975 626.433 94.15 626.55 94.2875C626.671 94.425 626.863 94.5542 627.125 94.675C627.388 94.7958 627.733 94.9375 628.163 95.1C628.592 95.2583 628.963 95.4229 629.275 95.5937C629.588 95.7604 629.827 95.9646 629.994 96.2062C630.165 96.4437 630.25 96.75 630.25 97.125ZM124.331 118.125C123.465 118.125 122.777 117.829 122.269 117.237C121.765 116.646 121.512 115.767 121.512 114.6C121.512 113.421 121.771 112.531 122.287 111.931C122.804 111.327 123.492 111.025 124.35 111.025C124.712 111.025 125.029 111.073 125.3 111.169C125.571 111.265 125.804 111.394 126 111.556C126.196 111.715 126.36 111.896 126.494 112.1H126.569C126.552 111.971 126.535 111.794 126.519 111.569C126.502 111.344 126.494 111.16 126.494 111.019V108.275H127.531V118H126.694L126.537 117.025H126.494C126.365 117.229 126.2 117.415 126 117.581C125.804 117.748 125.569 117.881 125.294 117.981C125.023 118.077 124.702 118.125 124.331 118.125ZM124.494 117.262C125.227 117.262 125.746 117.054 126.05 116.637C126.354 116.221 126.506 115.602 126.506 114.781V114.594C126.506 113.723 126.36 113.054 126.069 112.587C125.781 112.121 125.256 111.887 124.494 111.887C123.856 111.887 123.379 112.133 123.062 112.625C122.746 113.112 122.587 113.779 122.587 114.625C122.587 115.467 122.744 116.117 123.056 116.575C123.373 117.033 123.852 117.262 124.494 117.262ZM132.369 111.025C132.952 111.025 133.452 111.154 133.869 111.412C134.285 111.671 134.604 112.033 134.825 112.5C135.046 112.962 135.156 113.504 135.156 114.125V114.769H130.425C130.437 115.573 130.637 116.185 131.025 116.606C131.412 117.027 131.958 117.237 132.662 117.237C133.096 117.237 133.479 117.198 133.812 117.119C134.146 117.04 134.492 116.923 134.85 116.769V117.681C134.504 117.835 134.16 117.948 133.819 118.019C133.481 118.09 133.081 118.125 132.619 118.125C131.96 118.125 131.385 117.992 130.894 117.725C130.406 117.454 130.027 117.058 129.756 116.537C129.485 116.017 129.35 115.379 129.35 114.625C129.35 113.887 129.473 113.25 129.719 112.712C129.969 112.171 130.319 111.754 130.769 111.462C131.223 111.171 131.756 111.025 132.369 111.025ZM132.356 111.875C131.802 111.875 131.36 112.056 131.031 112.419C130.702 112.781 130.506 113.287 130.444 113.937H134.069C134.065 113.529 134 113.171 133.875 112.862C133.754 112.55 133.569 112.308 133.319 112.137C133.069 111.962 132.748 111.875 132.356 111.875ZM142.456 117.275C142.627 117.275 142.802 117.26 142.981 117.231C143.16 117.202 143.306 117.167 143.419 117.125V117.931C143.298 117.985 143.129 118.031 142.912 118.069C142.7 118.106 142.492 118.125 142.287 118.125C141.925 118.125 141.596 118.063 141.3 117.937C141.004 117.808 140.767 117.592 140.587 117.287C140.412 116.983 140.325 116.562 140.325 116.025V111.962H139.35V111.456L140.331 111.05L140.744 109.562H141.369V111.15H143.375V111.962H141.369V115.994C141.369 116.423 141.467 116.744 141.662 116.956C141.862 117.169 142.127 117.275 142.456 117.275ZM147.444 111.025C148.027 111.025 148.527 111.154 148.944 111.412C149.36 111.671 149.679 112.033 149.9 112.5C150.121 112.962 150.231 113.504 150.231 114.125V114.769H145.5C145.512 115.573 145.712 116.185 146.1 116.606C146.487 117.027 147.033 117.237 147.737 117.237C148.171 117.237 148.554 117.198 148.887 117.119C149.221 117.04 149.567 116.923 149.925 116.769V117.681C149.579 117.835 149.235 117.948 148.894 118.019C148.556 118.09 148.156 118.125 147.694 118.125C147.035 118.125 146.46 117.992 145.969 117.725C145.481 117.454 145.102 117.058 144.831 116.537C144.56 116.017 144.425 115.379 144.425 114.625C144.425 113.887 144.548 113.25 144.794 112.712C145.044 112.171 145.394 111.754 145.844 111.462C146.298 111.171 146.831 111.025 147.444 111.025ZM147.431 111.875C146.877 111.875 146.435 112.056 146.106 112.419C145.777 112.781 145.581 113.287 145.519 113.937H149.144C149.14 113.529 149.075 113.171 148.95 112.862C148.829 112.55 148.644 112.308 148.394 112.137C148.144 111.962 147.823 111.875 147.431 111.875ZM153.625 114.494L151.256 111.15H152.444L154.25 113.787L156.05 111.15H157.225L154.856 114.494L157.356 118H156.169L154.25 115.206L152.319 118H151.144L153.625 114.494ZM160.906 117.275C161.077 117.275 161.252 117.26 161.431 117.231C161.61 117.202 161.756 117.167 161.869 117.125V117.931C161.748 117.985 161.579 118.031 161.362 118.069C161.15 118.106 160.942 118.125 160.737 118.125C160.375 118.125 160.046 118.063 159.75 117.937C159.454 117.808 159.217 117.592 159.037 117.287C158.862 116.983 158.775 116.562 158.775 116.025V111.962H157.8V111.456L158.781 111.05L159.194 109.562H159.819V111.15H161.825V111.962H159.819V115.994C159.819 116.423 159.917 116.744 160.112 116.956C160.312 117.169 160.577 117.275 160.906 117.275ZM169.162 114.562C169.162 115.125 169.09 115.627 168.944 116.069C168.798 116.51 168.587 116.883 168.312 117.187C168.037 117.492 167.704 117.725 167.312 117.887C166.925 118.046 166.485 118.125 165.994 118.125C165.535 118.125 165.115 118.046 164.731 117.887C164.352 117.725 164.023 117.492 163.744 117.187C163.469 116.883 163.254 116.51 163.1 116.069C162.95 115.627 162.875 115.125 162.875 114.562C162.875 113.812 163.002 113.175 163.256 112.65C163.51 112.121 163.873 111.719 164.344 111.444C164.819 111.165 165.383 111.025 166.037 111.025C166.662 111.025 167.208 111.165 167.675 111.444C168.146 111.723 168.51 112.127 168.769 112.656C169.031 113.181 169.162 113.817 169.162 114.562ZM163.95 114.562C163.95 115.112 164.023 115.59 164.169 115.994C164.315 116.398 164.54 116.71 164.844 116.931C165.148 117.152 165.54 117.262 166.019 117.262C166.494 117.262 166.883 117.152 167.187 116.931C167.496 116.71 167.723 116.398 167.869 115.994C168.015 115.59 168.087 115.112 168.087 114.562C168.087 114.017 168.015 113.546 167.869 113.15C167.723 112.75 167.498 112.442 167.194 112.225C166.89 112.008 166.496 111.9 166.012 111.9C165.3 111.9 164.777 112.135 164.444 112.606C164.115 113.077 163.95 113.729 163.95 114.562ZM172.144 116.512L172.225 116.656C172.15 116.96 172.054 117.285 171.937 117.631C171.825 117.977 171.7 118.323 171.562 118.669C171.429 119.019 171.294 119.346 171.156 119.65H170.381C170.469 119.317 170.554 118.965 170.637 118.594C170.721 118.227 170.796 117.865 170.862 117.506C170.933 117.144 170.99 116.812 171.031 116.512H172.144ZM176.512 111.15H177.625L179.137 115.125C179.225 115.358 179.306 115.583 179.381 115.8C179.456 116.012 179.523 116.217 179.581 116.412C179.64 116.608 179.685 116.798 179.719 116.981H179.762C179.821 116.773 179.904 116.5 180.012 116.162C180.121 115.821 180.237 115.473 180.362 115.119L181.794 111.15H182.912L179.931 119.006C179.773 119.427 179.587 119.794 179.375 120.106C179.167 120.419 178.912 120.658 178.612 120.825C178.312 120.996 177.95 121.081 177.525 121.081C177.329 121.081 177.156 121.069 177.006 121.044C176.856 121.023 176.727 120.998 176.619 120.969V120.138C176.71 120.158 176.821 120.177 176.95 120.194C177.083 120.21 177.221 120.219 177.362 120.219C177.621 120.219 177.844 120.169 178.031 120.069C178.223 119.973 178.387 119.831 178.525 119.644C178.662 119.456 178.781 119.233 178.881 118.975L179.256 118.013L176.512 111.15ZM190.55 111.025C191.404 111.025 192.085 111.319 192.594 111.906C193.102 112.494 193.356 113.377 193.356 114.556C193.356 115.335 193.24 115.99 193.006 116.519C192.773 117.048 192.444 117.448 192.019 117.719C191.598 117.99 191.1 118.125 190.525 118.125C190.162 118.125 189.844 118.077 189.569 117.981C189.294 117.885 189.058 117.756 188.862 117.594C188.667 117.431 188.504 117.254 188.375 117.062H188.3C188.312 117.225 188.327 117.421 188.344 117.65C188.365 117.879 188.375 118.079 188.375 118.25V121.063H187.331V111.15H188.187L188.325 112.162H188.375C188.508 111.954 188.671 111.765 188.862 111.594C189.054 111.419 189.287 111.281 189.562 111.181C189.842 111.077 190.171 111.025 190.55 111.025ZM190.369 111.9C189.894 111.9 189.51 111.992 189.219 112.175C188.931 112.358 188.721 112.633 188.587 113C188.454 113.362 188.383 113.819 188.375 114.369V114.569C188.375 115.148 188.437 115.637 188.562 116.037C188.692 116.437 188.902 116.742 189.194 116.95C189.49 117.158 189.885 117.262 190.381 117.262C190.806 117.262 191.16 117.148 191.444 116.919C191.727 116.69 191.937 116.371 192.075 115.962C192.217 115.55 192.287 115.077 192.287 114.544C192.287 113.735 192.129 113.094 191.812 112.619C191.5 112.14 191.019 111.9 190.369 111.9ZM200.825 111.15V118H199.975L199.825 117.037H199.769C199.627 117.275 199.444 117.475 199.219 117.637C198.994 117.8 198.74 117.921 198.456 118C198.177 118.083 197.879 118.125 197.562 118.125C197.021 118.125 196.567 118.038 196.2 117.862C195.833 117.687 195.556 117.417 195.369 117.05C195.185 116.683 195.094 116.212 195.094 115.637V111.15H196.144V115.562C196.144 116.133 196.273 116.56 196.531 116.844C196.79 117.123 197.183 117.262 197.712 117.262C198.221 117.262 198.625 117.167 198.925 116.975C199.229 116.783 199.448 116.502 199.581 116.131C199.715 115.756 199.781 115.298 199.781 114.756V111.15H200.825ZM205.656 111.025C206.24 111.025 206.74 111.154 207.156 111.412C207.573 111.671 207.892 112.033 208.112 112.5C208.333 112.962 208.444 113.504 208.444 114.125V114.769H203.712C203.725 115.573 203.925 116.185 204.312 116.606C204.7 117.027 205.246 117.237 205.95 117.237C206.383 117.237 206.767 117.198 207.1 117.119C207.433 117.04 207.779 116.923 208.137 116.769V117.681C207.792 117.835 207.448 117.948 207.106 118.019C206.769 118.09 206.369 118.125 205.906 118.125C205.248 118.125 204.673 117.992 204.181 117.725C203.694 117.454 203.315 117.058 203.044 116.537C202.773 116.017 202.637 115.379 202.637 114.625C202.637 113.887 202.76 113.25 203.006 112.712C203.256 112.171 203.606 111.754 204.056 111.462C204.51 111.171 205.044 111.025 205.656 111.025ZM205.644 111.875C205.09 111.875 204.648 112.056 204.319 112.419C203.99 112.781 203.794 113.287 203.731 113.937H207.356C207.352 113.529 207.287 113.171 207.162 112.862C207.042 112.55 206.856 112.308 206.606 112.137C206.356 111.962 206.035 111.875 205.644 111.875ZM212.644 118.125C211.777 118.125 211.09 117.829 210.581 117.237C210.077 116.646 209.825 115.767 209.825 114.6C209.825 113.421 210.083 112.531 210.6 111.931C211.117 111.327 211.804 111.025 212.662 111.025C213.025 111.025 213.342 111.073 213.612 111.169C213.883 111.265 214.117 111.394 214.312 111.556C214.508 111.715 214.673 111.896 214.806 112.1H214.881C214.865 111.971 214.848 111.794 214.831 111.569C214.815 111.344 214.806 111.16 214.806 111.019V108.275H215.844V118H215.006L214.85 117.025H214.806C214.677 117.229 214.512 117.415 214.312 117.581C214.117 117.748 213.881 117.881 213.606 117.981C213.335 118.077 213.015 118.125 212.644 118.125ZM212.806 117.262C213.54 117.262 214.058 117.054 214.362 116.637C214.667 116.221 214.819 115.602 214.819 114.781V114.594C214.819 113.723 214.673 113.054 214.381 112.587C214.094 112.121 213.569 111.887 212.806 111.887C212.169 111.887 211.692 112.133 211.375 112.625C211.058 113.112 210.9 113.779 210.9 114.625C210.9 115.467 211.056 116.117 211.369 116.575C211.685 117.033 212.165 117.262 212.806 117.262ZM220.681 111.025C221.265 111.025 221.765 111.154 222.181 111.412C222.598 111.671 222.917 112.033 223.137 112.5C223.358 112.962 223.469 113.504 223.469 114.125V114.769H218.737C218.75 115.573 218.95 116.185 219.337 116.606C219.725 117.027 220.271 117.237 220.975 117.237C221.408 117.237 221.792 117.198 222.125 117.119C222.458 117.04 222.804 116.923 223.162 116.769V117.681C222.817 117.835 222.473 117.948 222.131 118.019C221.794 118.09 221.394 118.125 220.931 118.125C220.273 118.125 219.698 117.992 219.206 117.725C218.719 117.454 218.34 117.058 218.069 116.537C217.798 116.017 217.662 115.379 217.662 114.625C217.662 113.887 217.785 113.25 218.031 112.712C218.281 112.171 218.631 111.754 219.081 111.462C219.535 111.171 220.069 111.025 220.681 111.025ZM220.669 111.875C220.115 111.875 219.673 112.056 219.344 112.419C219.015 112.781 218.819 113.287 218.756 113.937H222.381C222.377 113.529 222.312 113.171 222.187 112.862C222.067 112.55 221.881 112.308 221.631 112.137C221.381 111.962 221.06 111.875 220.669 111.875ZM229.594 111.15V118H228.556V111.15H229.594ZM229.087 108.587C229.258 108.587 229.404 108.644 229.525 108.756C229.65 108.865 229.712 109.035 229.712 109.269C229.712 109.498 229.65 109.669 229.525 109.781C229.404 109.894 229.258 109.95 229.087 109.95C228.908 109.95 228.758 109.894 228.637 109.781C228.521 109.669 228.462 109.498 228.462 109.269C228.462 109.035 228.521 108.865 228.637 108.756C228.758 108.644 228.908 108.587 229.087 108.587ZM235.037 111.025C235.85 111.025 236.465 111.225 236.881 111.625C237.298 112.021 237.506 112.658 237.506 113.537V118H236.481V113.606C236.481 113.035 236.35 112.608 236.087 112.325C235.829 112.042 235.431 111.9 234.894 111.9C234.135 111.9 233.602 112.115 233.294 112.544C232.985 112.973 232.831 113.596 232.831 114.412V118H231.794V111.15H232.631L232.787 112.137H232.844C232.99 111.896 233.175 111.694 233.4 111.531C233.625 111.365 233.877 111.24 234.156 111.156C234.435 111.069 234.729 111.025 235.037 111.025ZM242.387 118.125C241.771 118.125 241.227 117.998 240.756 117.744C240.285 117.49 239.919 117.102 239.656 116.581C239.394 116.06 239.262 115.404 239.262 114.612C239.262 113.783 239.4 113.106 239.675 112.581C239.954 112.052 240.337 111.66 240.825 111.406C241.312 111.152 241.867 111.025 242.487 111.025C242.829 111.025 243.158 111.06 243.475 111.131C243.796 111.198 244.058 111.283 244.262 111.387L243.95 112.256C243.742 112.173 243.5 112.098 243.225 112.031C242.954 111.965 242.7 111.931 242.462 111.931C241.987 111.931 241.592 112.033 241.275 112.237C240.962 112.442 240.727 112.742 240.569 113.137C240.415 113.533 240.337 114.021 240.337 114.6C240.337 115.154 240.412 115.627 240.562 116.019C240.717 116.41 240.944 116.71 241.244 116.919C241.548 117.123 241.927 117.225 242.381 117.225C242.744 117.225 243.071 117.187 243.362 117.112C243.654 117.033 243.919 116.942 244.156 116.837V117.762C243.927 117.879 243.671 117.969 243.387 118.031C243.108 118.094 242.775 118.125 242.387 118.125ZM246.825 118H245.781V108.275H246.825V118ZM254.675 111.15V118H253.825L253.675 117.037H253.619C253.477 117.275 253.294 117.475 253.069 117.637C252.844 117.8 252.59 117.921 252.306 118C252.027 118.083 251.729 118.125 251.412 118.125C250.871 118.125 250.417 118.038 250.05 117.862C249.683 117.687 249.406 117.417 249.219 117.05C249.035 116.683 248.944 116.212 248.944 115.637V111.15H249.994V115.562C249.994 116.133 250.123 116.56 250.381 116.844C250.64 117.123 251.033 117.262 251.562 117.262C252.071 117.262 252.475 117.167 252.775 116.975C253.079 116.783 253.298 116.502 253.431 116.131C253.565 115.756 253.631 115.298 253.631 114.756V111.15H254.675ZM257.906 111.15V118H256.869V111.15H257.906ZM257.4 108.587C257.571 108.587 257.717 108.644 257.837 108.756C257.962 108.865 258.025 109.035 258.025 109.269C258.025 109.498 257.962 109.669 257.837 109.781C257.717 109.894 257.571 109.95 257.4 109.95C257.221 109.95 257.071 109.894 256.95 109.781C256.833 109.669 256.775 109.498 256.775 109.269C256.775 109.035 256.833 108.865 256.95 108.756C257.071 108.644 257.221 108.587 257.4 108.587ZM263.219 111.025C263.356 111.025 263.5 111.033 263.65 111.05C263.8 111.062 263.933 111.081 264.05 111.106L263.919 112.069C263.806 112.04 263.681 112.017 263.544 112C263.406 111.983 263.277 111.975 263.156 111.975C262.881 111.975 262.621 112.031 262.375 112.144C262.133 112.252 261.921 112.41 261.737 112.619C261.554 112.823 261.41 113.071 261.306 113.362C261.202 113.65 261.15 113.971 261.15 114.325V118H260.106V111.15H260.969L261.081 112.412H261.125C261.267 112.158 261.437 111.927 261.637 111.719C261.837 111.506 262.069 111.337 262.331 111.212C262.598 111.087 262.894 111.025 263.219 111.025ZM271.306 111.025C271.89 111.025 272.39 111.154 272.806 111.412C273.223 111.671 273.542 112.033 273.762 112.5C273.983 112.962 274.094 113.504 274.094 114.125V114.769H269.362C269.375 115.573 269.575 116.185 269.962 116.606C270.35 117.027 270.896 117.237 271.6 117.237C272.033 117.237 272.417 117.198 272.75 117.119C273.083 117.04 273.429 116.923 273.787 116.769V117.681C273.442 117.835 273.098 117.948 272.756 118.019C272.419 118.09 272.019 118.125 271.556 118.125C270.898 118.125 270.323 117.992 269.831 117.725C269.344 117.454 268.965 117.058 268.694 116.537C268.423 116.017 268.287 115.379 268.287 114.625C268.287 113.887 268.41 113.25 268.656 112.712C268.906 112.171 269.256 111.754 269.706 111.462C270.16 111.171 270.694 111.025 271.306 111.025ZM271.294 111.875C270.74 111.875 270.298 112.056 269.969 112.419C269.64 112.781 269.444 113.287 269.381 113.937H273.006C273.002 113.529 272.937 113.171 272.812 112.862C272.692 112.55 272.506 112.308 272.256 112.137C272.006 111.962 271.685 111.875 271.294 111.875ZM279.1 111.025C279.912 111.025 280.527 111.225 280.944 111.625C281.36 112.021 281.569 112.658 281.569 113.537V118H280.544V113.606C280.544 113.035 280.412 112.608 280.15 112.325C279.892 112.042 279.494 111.9 278.956 111.9C278.198 111.9 277.665 112.115 277.356 112.544C277.048 112.973 276.894 113.596 276.894 114.412V118H275.856V111.15H276.694L276.85 112.137H276.906C277.052 111.896 277.237 111.694 277.462 111.531C277.687 111.365 277.94 111.24 278.219 111.156C278.498 111.069 278.792 111.025 279.1 111.025ZM284.75 118H283.706V108.275H284.75V118ZM289.506 111.037C290.323 111.037 290.929 111.221 291.325 111.587C291.721 111.954 291.919 112.54 291.919 113.344V118H291.162L290.962 116.987H290.912C290.721 117.237 290.521 117.448 290.312 117.619C290.104 117.785 289.862 117.912 289.587 118C289.317 118.083 288.983 118.125 288.587 118.125C288.171 118.125 287.8 118.052 287.475 117.906C287.154 117.76 286.9 117.54 286.712 117.244C286.529 116.948 286.437 116.573 286.437 116.119C286.437 115.435 286.708 114.91 287.25 114.544C287.792 114.177 288.617 113.977 289.725 113.944L290.906 113.894V113.475C290.906 112.883 290.779 112.469 290.525 112.231C290.271 111.994 289.912 111.875 289.45 111.875C289.092 111.875 288.75 111.927 288.425 112.031C288.1 112.135 287.792 112.258 287.5 112.4L287.181 111.612C287.49 111.454 287.844 111.319 288.244 111.206C288.644 111.094 289.065 111.037 289.506 111.037ZM290.894 114.625L289.85 114.669C288.996 114.702 288.394 114.842 288.044 115.087C287.694 115.333 287.519 115.681 287.519 116.131C287.519 116.523 287.637 116.812 287.875 117C288.112 117.187 288.427 117.281 288.819 117.281C289.427 117.281 289.925 117.112 290.312 116.775C290.7 116.437 290.894 115.931 290.894 115.256V114.625ZM296.8 118.125C296.183 118.125 295.64 117.998 295.169 117.744C294.698 117.49 294.331 117.102 294.069 116.581C293.806 116.06 293.675 115.404 293.675 114.612C293.675 113.783 293.812 113.106 294.087 112.581C294.367 112.052 294.75 111.66 295.237 111.406C295.725 111.152 296.279 111.025 296.9 111.025C297.242 111.025 297.571 111.06 297.887 111.131C298.208 111.198 298.471 111.283 298.675 111.387L298.362 112.256C298.154 112.173 297.912 112.098 297.637 112.031C297.367 111.965 297.112 111.931 296.875 111.931C296.4 111.931 296.004 112.033 295.687 112.237C295.375 112.442 295.14 112.742 294.981 113.137C294.827 113.533 294.75 114.021 294.75 114.6C294.75 115.154 294.825 115.627 294.975 116.019C295.129 116.41 295.356 116.71 295.656 116.919C295.96 117.123 296.34 117.225 296.794 117.225C297.156 117.225 297.483 117.187 297.775 117.112C298.067 117.033 298.331 116.942 298.569 116.837V117.762C298.34 117.879 298.083 117.969 297.8 118.031C297.521 118.094 297.187 118.125 296.8 118.125ZM302.831 111.025C303.415 111.025 303.915 111.154 304.331 111.412C304.748 111.671 305.067 112.033 305.287 112.5C305.508 112.962 305.619 113.504 305.619 114.125V114.769H300.887C300.9 115.573 301.1 116.185 301.487 116.606C301.875 117.027 302.421 117.237 303.125 117.237C303.558 117.237 303.942 117.198 304.275 117.119C304.608 117.04 304.954 116.923 305.312 116.769V117.681C304.967 117.835 304.623 117.948 304.281 118.019C303.944 118.09 303.544 118.125 303.081 118.125C302.423 118.125 301.848 117.992 301.356 117.725C300.869 117.454 300.49 117.058 300.219 116.537C299.948 116.017 299.812 115.379 299.812 114.625C299.812 113.887 299.935 113.25 300.181 112.712C300.431 112.171 300.781 111.754 301.231 111.462C301.685 111.171 302.219 111.025 302.831 111.025ZM302.819 111.875C302.265 111.875 301.823 112.056 301.494 112.419C301.165 112.781 300.969 113.287 300.906 113.937H304.531C304.527 113.529 304.462 113.171 304.337 112.862C304.217 112.55 304.031 112.308 303.781 112.137C303.531 111.962 303.21 111.875 302.819 111.875ZM311.812 116.125C311.812 116.562 311.702 116.931 311.481 117.231C311.265 117.527 310.952 117.75 310.544 117.9C310.14 118.05 309.656 118.125 309.094 118.125C308.615 118.125 308.2 118.088 307.85 118.013C307.5 117.937 307.194 117.831 306.931 117.694V116.737C307.21 116.875 307.544 117 307.931 117.112C308.319 117.225 308.715 117.281 309.119 117.281C309.71 117.281 310.14 117.185 310.406 116.994C310.673 116.802 310.806 116.542 310.806 116.212C310.806 116.025 310.752 115.86 310.644 115.719C310.54 115.573 310.362 115.433 310.112 115.3C309.862 115.162 309.517 115.012 309.075 114.85C308.637 114.683 308.258 114.519 307.937 114.356C307.621 114.19 307.375 113.987 307.2 113.75C307.029 113.512 306.944 113.204 306.944 112.825C306.944 112.246 307.177 111.802 307.644 111.494C308.115 111.181 308.731 111.025 309.494 111.025C309.906 111.025 310.292 111.067 310.65 111.15C311.012 111.229 311.35 111.337 311.662 111.475L311.312 112.306C311.029 112.185 310.727 112.083 310.406 112C310.085 111.917 309.758 111.875 309.425 111.875C308.946 111.875 308.577 111.954 308.319 112.112C308.065 112.271 307.937 112.487 307.937 112.762C307.937 112.975 307.996 113.15 308.112 113.287C308.233 113.425 308.425 113.554 308.687 113.675C308.95 113.796 309.296 113.937 309.725 114.1C310.154 114.258 310.525 114.423 310.837 114.594C311.15 114.76 311.39 114.965 311.556 115.206C311.727 115.444 311.812 115.75 311.812 116.125Z" fill="#101E37"/>
<path d="M267.575 120.52H312.387V122.52H267.575V120.52Z" fill="#101E37"/>
</svg>
