<svg width="712" height="196" viewBox="0 0 712 196" fill="none" xmlns="http://www.w3.org/2000/svg">
<rect x="117" y="16" width="49" height="16" rx="3.66557" fill="#007BC7"/>
<path d="M124.95 27.09C124.25 27.09 123.65 26.9433 123.15 26.65C122.65 26.3567 122.263 25.94 121.99 25.4C121.723 24.8533 121.59 24.21 121.59 23.47C121.59 22.9167 121.667 22.42 121.82 21.98C121.973 21.5333 122.193 21.1533 122.48 20.84C122.767 20.52 123.117 20.2767 123.53 20.11C123.95 19.9433 124.423 19.86 124.95 19.86C125.35 19.86 125.733 19.9167 126.1 20.03C126.473 20.1433 126.793 20.3033 127.06 20.51C127.167 20.5833 127.237 20.6667 127.27 20.76C127.303 20.8533 127.307 20.9433 127.28 21.03C127.26 21.11 127.217 21.18 127.15 21.24C127.09 21.2933 127.013 21.3233 126.92 21.33C126.827 21.33 126.727 21.2933 126.62 21.22C126.387 21.04 126.13 20.91 125.85 20.83C125.577 20.7433 125.283 20.7 124.97 20.7C124.457 20.7 124.02 20.81 123.66 21.03C123.307 21.2433 123.037 21.5567 122.85 21.97C122.67 22.3767 122.58 22.8767 122.58 23.47C122.58 24.0567 122.67 24.56 122.85 24.98C123.037 25.3933 123.307 25.71 123.66 25.93C124.02 26.1433 124.457 26.25 124.97 26.25C125.283 26.25 125.58 26.2067 125.86 26.12C126.147 26.0333 126.41 25.9 126.65 25.72C126.757 25.6467 126.853 25.6133 126.94 25.62C127.033 25.6267 127.11 25.6567 127.17 25.71C127.23 25.7567 127.27 25.8233 127.29 25.91C127.317 25.99 127.317 26.0733 127.29 26.16C127.263 26.2467 127.203 26.3233 127.11 26.39C126.837 26.6233 126.51 26.8 126.13 26.92C125.757 27.0333 125.363 27.09 124.95 27.09ZM130.196 27.09C129.716 27.09 129.3 26.9867 128.946 26.78C128.593 26.5733 128.32 26.28 128.126 25.9C127.933 25.52 127.836 25.0733 127.836 24.56C127.836 24.1733 127.89 23.8267 127.996 23.52C128.11 23.2067 128.27 22.94 128.476 22.72C128.683 22.5 128.93 22.3333 129.216 22.22C129.51 22.1 129.836 22.04 130.196 22.04C130.676 22.04 131.093 22.1433 131.446 22.35C131.8 22.5567 132.073 22.85 132.266 23.23C132.46 23.6033 132.556 24.0467 132.556 24.56C132.556 24.9467 132.5 25.2967 132.386 25.61C132.28 25.9233 132.123 26.19 131.916 26.41C131.71 26.63 131.46 26.8 131.166 26.92C130.88 27.0333 130.556 27.09 130.196 27.09ZM130.196 26.37C130.49 26.37 130.743 26.3 130.956 26.16C131.176 26.02 131.343 25.8167 131.456 25.55C131.576 25.2833 131.636 24.9533 131.636 24.56C131.636 23.9733 131.506 23.5267 131.246 23.22C130.986 22.9133 130.636 22.76 130.196 22.76C129.91 22.76 129.656 22.83 129.436 22.97C129.223 23.1033 129.056 23.3033 128.936 23.57C128.816 23.8367 128.756 24.1667 128.756 24.56C128.756 25.1467 128.886 25.5967 129.146 25.91C129.413 26.2167 129.763 26.37 130.196 26.37ZM135.252 27.09C134.752 27.09 134.372 26.9433 134.112 26.65C133.852 26.35 133.722 25.92 133.722 25.36V20.34C133.722 20.1867 133.762 20.0733 133.842 20C133.922 19.92 134.032 19.88 134.172 19.88C134.319 19.88 134.432 19.92 134.512 20C134.592 20.0733 134.632 20.1867 134.632 20.34V25.29C134.632 25.6367 134.702 25.8967 134.842 26.07C134.989 26.2367 135.196 26.32 135.462 26.32C135.522 26.32 135.576 26.32 135.622 26.32C135.669 26.3133 135.716 26.3067 135.762 26.3C135.836 26.2933 135.889 26.3133 135.922 26.36C135.956 26.4067 135.972 26.5 135.972 26.64C135.972 26.7667 135.942 26.8667 135.882 26.94C135.829 27.0067 135.739 27.05 135.612 27.07C135.552 27.0767 135.492 27.08 135.432 27.08C135.372 27.0867 135.312 27.09 135.252 27.09ZM138.47 27.09C138.077 27.09 137.747 27.0167 137.48 26.87C137.22 26.7233 137.027 26.5067 136.9 26.22C136.773 25.9333 136.71 25.5733 136.71 25.14V22.52C136.71 22.3667 136.747 22.2533 136.82 22.18C136.9 22.1 137.013 22.06 137.16 22.06C137.307 22.06 137.42 22.1 137.5 22.18C137.58 22.2533 137.62 22.3667 137.62 22.52V25.14C137.62 25.5533 137.703 25.86 137.87 26.06C138.037 26.2533 138.3 26.35 138.66 26.35C139.06 26.35 139.383 26.2167 139.63 25.95C139.883 25.6833 140.01 25.33 140.01 24.89V22.52C140.01 22.3667 140.047 22.2533 140.12 22.18C140.2 22.1 140.313 22.06 140.46 22.06C140.607 22.06 140.72 22.1 140.8 22.18C140.88 22.2533 140.92 22.3667 140.92 22.52V26.6C140.92 26.9133 140.773 27.07 140.48 27.07C140.333 27.07 140.22 27.03 140.14 26.95C140.067 26.87 140.03 26.7533 140.03 26.6V25.73L140.16 25.9C140.027 26.2867 139.81 26.5833 139.51 26.79C139.217 26.99 138.87 27.09 138.47 27.09ZM142.854 27.07C142.714 27.07 142.604 27.03 142.524 26.95C142.444 26.87 142.404 26.7533 142.404 26.6V22.52C142.404 22.3667 142.444 22.2533 142.524 22.18C142.604 22.1 142.714 22.06 142.854 22.06C142.994 22.06 143.101 22.1 143.174 22.18C143.254 22.2533 143.294 22.3667 143.294 22.52V23.37L143.184 23.19C143.311 22.8233 143.514 22.54 143.794 22.34C144.081 22.14 144.421 22.04 144.814 22.04C145.228 22.04 145.561 22.14 145.814 22.34C146.068 22.5333 146.238 22.83 146.324 23.23H146.184C146.304 22.8633 146.518 22.5733 146.824 22.36C147.138 22.1467 147.501 22.04 147.914 22.04C148.281 22.04 148.581 22.1133 148.814 22.26C149.054 22.4 149.234 22.6133 149.354 22.9C149.474 23.18 149.534 23.54 149.534 23.98V26.6C149.534 26.7533 149.494 26.87 149.414 26.95C149.334 27.03 149.224 27.07 149.084 27.07C148.938 27.07 148.824 27.03 148.744 26.95C148.664 26.87 148.624 26.7533 148.624 26.6V24.02C148.624 23.5933 148.551 23.28 148.404 23.08C148.258 22.88 148.011 22.78 147.664 22.78C147.284 22.78 146.981 22.9133 146.754 23.18C146.534 23.44 146.424 23.8 146.424 24.26V26.6C146.424 26.7533 146.384 26.87 146.304 26.95C146.231 27.03 146.121 27.07 145.974 27.07C145.828 27.07 145.714 27.03 145.634 26.95C145.554 26.87 145.514 26.7533 145.514 26.6V24.02C145.514 23.5933 145.441 23.28 145.294 23.08C145.148 22.88 144.901 22.78 144.554 22.78C144.174 22.78 143.871 22.9133 143.644 23.18C143.424 23.44 143.314 23.8 143.314 24.26V26.6C143.314 26.9133 143.161 27.07 142.854 27.07ZM151.448 27.07C151.308 27.07 151.198 27.03 151.118 26.95C151.038 26.87 150.998 26.7533 150.998 26.6V22.52C150.998 22.3667 151.038 22.2533 151.118 22.18C151.198 22.1 151.308 22.06 151.448 22.06C151.588 22.06 151.694 22.1 151.768 22.18C151.848 22.2533 151.888 22.3667 151.888 22.52V23.34L151.778 23.19C151.918 22.81 152.144 22.5233 152.458 22.33C152.778 22.1367 153.141 22.04 153.548 22.04C153.941 22.04 154.264 22.11 154.518 22.25C154.771 22.39 154.961 22.6033 155.088 22.89C155.214 23.1767 155.278 23.54 155.278 23.98V26.6C155.278 26.7533 155.238 26.87 155.158 26.95C155.084 27.03 154.974 27.07 154.828 27.07C154.681 27.07 154.568 27.03 154.488 26.95C154.408 26.87 154.368 26.7533 154.368 26.6V24.03C154.368 23.5967 154.284 23.28 154.118 23.08C153.951 22.88 153.684 22.78 153.318 22.78C152.891 22.78 152.548 22.9133 152.288 23.18C152.034 23.44 151.908 23.7933 151.908 24.24V26.6C151.908 26.9133 151.754 27.07 151.448 27.07ZM158.27 27.09C157.937 27.09 157.634 27.0233 157.36 26.89C157.094 26.7567 156.884 26.5767 156.73 26.35C156.584 26.1233 156.51 25.87 156.51 25.59C156.51 25.23 156.6 24.9467 156.78 24.74C156.96 24.5333 157.264 24.3867 157.69 24.3C158.117 24.2067 158.69 24.16 159.41 24.16H159.88V24.74H159.43C158.917 24.74 158.51 24.7633 158.21 24.81C157.917 24.8567 157.71 24.94 157.59 25.06C157.47 25.1733 157.41 25.3333 157.41 25.54C157.41 25.8 157.5 26.0133 157.68 26.18C157.867 26.3467 158.12 26.43 158.44 26.43C158.694 26.43 158.917 26.37 159.11 26.25C159.304 26.1233 159.457 25.9567 159.57 25.75C159.684 25.5367 159.74 25.2933 159.74 25.02V23.87C159.74 23.4767 159.66 23.1933 159.5 23.02C159.34 22.84 159.07 22.75 158.69 22.75C158.47 22.75 158.244 22.78 158.01 22.84C157.777 22.9 157.534 22.9933 157.28 23.12C157.18 23.1667 157.094 23.1833 157.02 23.17C156.947 23.15 156.887 23.11 156.84 23.05C156.8 22.9833 156.777 22.9133 156.77 22.84C156.77 22.76 156.787 22.6833 156.82 22.61C156.86 22.5367 156.927 22.4833 157.02 22.45C157.314 22.3033 157.604 22.2 157.89 22.14C158.184 22.0733 158.457 22.04 158.71 22.04C159.144 22.04 159.5 22.11 159.78 22.25C160.06 22.3833 160.27 22.5933 160.41 22.88C160.55 23.16 160.62 23.52 160.62 23.96V26.6C160.62 26.7533 160.584 26.87 160.51 26.95C160.437 27.03 160.33 27.07 160.19 27.07C160.057 27.07 159.95 27.03 159.87 26.95C159.797 26.87 159.76 26.7533 159.76 26.6V25.89H159.85C159.797 26.1367 159.697 26.35 159.55 26.53C159.404 26.71 159.22 26.85 159 26.95C158.787 27.0433 158.544 27.09 158.27 27.09Z" fill="white"/>
<mask id="path-3-inside-1_6840_695" fill="white">
<path d="M108 38H175V42H108V38Z"/>
</mask>
<path d="M108 38V37C107.448 37 107 37.4477 107 38H108ZM175 38H176C176 37.4477 175.552 37 175 37V38ZM108 39H175V37H108V39ZM174 38V42H176V38H174ZM109 42V38H107V42H109Z" fill="#007BC7" mask="url(#path-3-inside-1_6840_695)"/>
<rect x="321" y="16" width="70" height="16" rx="3.66557" fill="#007BC7"/>
<path d="M328.95 27.09C328.25 27.09 327.65 26.9433 327.15 26.65C326.65 26.3567 326.263 25.94 325.99 25.4C325.723 24.8533 325.59 24.21 325.59 23.47C325.59 22.9167 325.667 22.42 325.82 21.98C325.973 21.5333 326.193 21.1533 326.48 20.84C326.767 20.52 327.117 20.2767 327.53 20.11C327.95 19.9433 328.423 19.86 328.95 19.86C329.35 19.86 329.733 19.9167 330.1 20.03C330.473 20.1433 330.793 20.3033 331.06 20.51C331.167 20.5833 331.237 20.6667 331.27 20.76C331.303 20.8533 331.307 20.9433 331.28 21.03C331.26 21.11 331.217 21.18 331.15 21.24C331.09 21.2933 331.013 21.3233 330.92 21.33C330.827 21.33 330.727 21.2933 330.62 21.22C330.387 21.04 330.13 20.91 329.85 20.83C329.577 20.7433 329.283 20.7 328.97 20.7C328.457 20.7 328.02 20.81 327.66 21.03C327.307 21.2433 327.037 21.5567 326.85 21.97C326.67 22.3767 326.58 22.8767 326.58 23.47C326.58 24.0567 326.67 24.56 326.85 24.98C327.037 25.3933 327.307 25.71 327.66 25.93C328.02 26.1433 328.457 26.25 328.97 26.25C329.283 26.25 329.58 26.2067 329.86 26.12C330.147 26.0333 330.41 25.9 330.65 25.72C330.757 25.6467 330.853 25.6133 330.94 25.62C331.033 25.6267 331.11 25.6567 331.17 25.71C331.23 25.7567 331.27 25.8233 331.29 25.91C331.317 25.99 331.317 26.0733 331.29 26.16C331.263 26.2467 331.203 26.3233 331.11 26.39C330.837 26.6233 330.51 26.8 330.13 26.92C329.757 27.0333 329.363 27.09 328.95 27.09ZM333.862 27.09C333.529 27.09 333.225 27.0233 332.952 26.89C332.685 26.7567 332.475 26.5767 332.322 26.35C332.175 26.1233 332.102 25.87 332.102 25.59C332.102 25.23 332.192 24.9467 332.372 24.74C332.552 24.5333 332.855 24.3867 333.282 24.3C333.709 24.2067 334.282 24.16 335.002 24.16H335.472V24.74H335.022C334.509 24.74 334.102 24.7633 333.802 24.81C333.509 24.8567 333.302 24.94 333.182 25.06C333.062 25.1733 333.002 25.3333 333.002 25.54C333.002 25.8 333.092 26.0133 333.272 26.18C333.459 26.3467 333.712 26.43 334.032 26.43C334.285 26.43 334.509 26.37 334.702 26.25C334.895 26.1233 335.049 25.9567 335.162 25.75C335.275 25.5367 335.332 25.2933 335.332 25.02V23.87C335.332 23.4767 335.252 23.1933 335.092 23.02C334.932 22.84 334.662 22.75 334.282 22.75C334.062 22.75 333.835 22.78 333.602 22.84C333.369 22.9 333.125 22.9933 332.872 23.12C332.772 23.1667 332.685 23.1833 332.612 23.17C332.539 23.15 332.479 23.11 332.432 23.05C332.392 22.9833 332.369 22.9133 332.362 22.84C332.362 22.76 332.379 22.6833 332.412 22.61C332.452 22.5367 332.519 22.4833 332.612 22.45C332.905 22.3033 333.195 22.2 333.482 22.14C333.775 22.0733 334.049 22.04 334.302 22.04C334.735 22.04 335.092 22.11 335.372 22.25C335.652 22.3833 335.862 22.5933 336.002 22.88C336.142 23.16 336.212 23.52 336.212 23.96V26.6C336.212 26.7533 336.175 26.87 336.102 26.95C336.029 27.03 335.922 27.07 335.782 27.07C335.649 27.07 335.542 27.03 335.462 26.95C335.389 26.87 335.352 26.7533 335.352 26.6V25.89H335.442C335.389 26.1367 335.289 26.35 335.142 26.53C334.995 26.71 334.812 26.85 334.592 26.95C334.379 27.0433 334.135 27.09 333.862 27.09ZM339.174 27.09C338.674 27.09 338.294 26.9433 338.034 26.65C337.774 26.35 337.644 25.92 337.644 25.36V20.34C337.644 20.1867 337.684 20.0733 337.764 20C337.844 19.92 337.954 19.88 338.094 19.88C338.241 19.88 338.354 19.92 338.434 20C338.514 20.0733 338.554 20.1867 338.554 20.34V25.29C338.554 25.6367 338.624 25.8967 338.764 26.07C338.911 26.2367 339.117 26.32 339.384 26.32C339.444 26.32 339.497 26.32 339.544 26.32C339.591 26.3133 339.637 26.3067 339.684 26.3C339.757 26.2933 339.811 26.3133 339.844 26.36C339.877 26.4067 339.894 26.5 339.894 26.64C339.894 26.7667 339.864 26.8667 339.804 26.94C339.751 27.0067 339.661 27.05 339.534 27.07C339.474 27.0767 339.414 27.08 339.354 27.08C339.294 27.0867 339.234 27.09 339.174 27.09ZM342.182 27.09C341.682 27.09 341.302 26.9433 341.042 26.65C340.782 26.35 340.652 25.92 340.652 25.36V20.34C340.652 20.1867 340.692 20.0733 340.772 20C340.852 19.92 340.962 19.88 341.102 19.88C341.249 19.88 341.362 19.92 341.442 20C341.522 20.0733 341.562 20.1867 341.562 20.34V25.29C341.562 25.6367 341.632 25.8967 341.772 26.07C341.919 26.2367 342.125 26.32 342.392 26.32C342.452 26.32 342.505 26.32 342.552 26.32C342.599 26.3133 342.645 26.3067 342.692 26.3C342.765 26.2933 342.819 26.3133 342.852 26.36C342.885 26.4067 342.902 26.5 342.902 26.64C342.902 26.7667 342.872 26.8667 342.812 26.94C342.759 27.0067 342.669 27.05 342.542 27.07C342.482 27.0767 342.422 27.08 342.362 27.08C342.302 27.0867 342.242 27.09 342.182 27.09ZM345.861 27.09C345.334 27.09 344.881 26.99 344.501 26.79C344.128 26.5833 343.838 26.2933 343.631 25.92C343.424 25.54 343.321 25.0933 343.321 24.58C343.321 24.0733 343.421 23.63 343.621 23.25C343.828 22.87 344.108 22.5733 344.461 22.36C344.821 22.1467 345.231 22.04 345.691 22.04C346.018 22.04 346.311 22.0967 346.571 22.21C346.838 22.3167 347.064 22.4733 347.251 22.68C347.438 22.8867 347.578 23.14 347.671 23.44C347.771 23.7333 347.821 24.0667 347.821 24.44C347.821 24.5467 347.788 24.63 347.721 24.69C347.661 24.7433 347.571 24.77 347.451 24.77H344.031V24.19H347.221L347.051 24.33C347.051 23.9833 346.998 23.69 346.891 23.45C346.791 23.2033 346.641 23.0167 346.441 22.89C346.248 22.7633 346.004 22.7 345.711 22.7C345.391 22.7 345.118 22.7767 344.891 22.93C344.664 23.0767 344.491 23.2867 344.371 23.56C344.251 23.8267 344.191 24.1367 344.191 24.49V24.55C344.191 25.15 344.334 25.6033 344.621 25.91C344.908 26.2167 345.321 26.37 345.861 26.37C346.074 26.37 346.291 26.3433 346.511 26.29C346.738 26.2367 346.954 26.14 347.161 26C347.261 25.94 347.351 25.9133 347.431 25.92C347.518 25.92 347.588 25.9467 347.641 26C347.694 26.0467 347.728 26.1067 347.741 26.18C347.754 26.2467 347.744 26.32 347.711 26.4C347.678 26.48 347.614 26.55 347.521 26.61C347.301 26.7633 347.038 26.8833 346.731 26.97C346.431 27.05 346.141 27.09 345.861 27.09ZM352.94 28.68C352.567 27.9933 352.29 27.29 352.11 26.57C351.937 25.8433 351.85 25.11 351.85 24.37C351.85 23.8767 351.887 23.3867 351.96 22.9C352.04 22.4133 352.16 21.9333 352.32 21.46C352.487 20.98 352.693 20.5133 352.94 20.06C352.993 19.9667 353.067 19.91 353.16 19.89C353.253 19.8633 353.34 19.87 353.42 19.91C353.507 19.9433 353.57 20.0067 353.61 20.1C353.65 20.1933 353.647 20.3067 353.6 20.44C353.427 20.88 353.28 21.3167 353.16 21.75C353.047 22.1833 352.96 22.6167 352.9 23.05C352.847 23.4833 352.82 23.9233 352.82 24.37C352.82 24.8167 352.847 25.2567 352.9 25.69C352.96 26.1233 353.05 26.5567 353.17 26.99C353.29 27.4167 353.433 27.8533 353.6 28.3C353.653 28.4333 353.657 28.5467 353.61 28.64C353.57 28.7333 353.507 28.7967 353.42 28.83C353.34 28.8633 353.253 28.8667 353.16 28.84C353.067 28.82 352.993 28.7667 352.94 28.68ZM358.104 27.09C357.351 27.09 356.711 26.9467 356.184 26.66C355.664 26.3667 355.267 25.95 354.994 25.41C354.727 24.87 354.594 24.2267 354.594 23.48C354.594 22.92 354.671 22.42 354.824 21.98C354.977 21.5333 355.201 21.1533 355.494 20.84C355.794 20.52 356.154 20.2767 356.574 20.11C357.001 19.9433 357.481 19.86 358.014 19.86C358.427 19.86 358.827 19.9167 359.214 20.03C359.601 20.1367 359.954 20.3133 360.274 20.56C360.354 20.62 360.404 20.69 360.424 20.77C360.451 20.85 360.454 20.93 360.434 21.01C360.414 21.09 360.374 21.16 360.314 21.22C360.261 21.28 360.191 21.3167 360.104 21.33C360.024 21.3367 359.937 21.31 359.844 21.25C359.571 21.05 359.284 20.9067 358.984 20.82C358.691 20.7333 358.367 20.69 358.014 20.69C357.487 20.69 357.041 20.8 356.674 21.02C356.307 21.2333 356.031 21.55 355.844 21.97C355.664 22.3833 355.574 22.8867 355.574 23.48C355.574 24.3933 355.787 25.0867 356.214 25.56C356.647 26.0333 357.287 26.27 358.134 26.27C358.447 26.27 358.751 26.24 359.044 26.18C359.344 26.12 359.631 26.0367 359.904 25.93L359.704 26.43V24.02H358.344C358.224 24.02 358.127 23.9867 358.054 23.92C357.987 23.8533 357.954 23.7633 357.954 23.65C357.954 23.5367 357.987 23.45 358.054 23.39C358.127 23.33 358.224 23.3 358.344 23.3H360.114C360.234 23.3 360.327 23.3333 360.394 23.4C360.467 23.4667 360.504 23.5633 360.504 23.69V26.26C360.504 26.3667 360.484 26.46 360.444 26.54C360.404 26.6133 360.337 26.6667 360.244 26.7C359.964 26.8133 359.631 26.9067 359.244 26.98C358.857 27.0533 358.477 27.09 358.104 27.09ZM363.759 27.09C363.366 27.09 363.036 27.0167 362.769 26.87C362.509 26.7233 362.316 26.5067 362.189 26.22C362.062 25.9333 361.999 25.5733 361.999 25.14V22.52C361.999 22.3667 362.036 22.2533 362.109 22.18C362.189 22.1 362.302 22.06 362.449 22.06C362.596 22.06 362.709 22.1 362.789 22.18C362.869 22.2533 362.909 22.3667 362.909 22.52V25.14C362.909 25.5533 362.992 25.86 363.159 26.06C363.326 26.2533 363.589 26.35 363.949 26.35C364.349 26.35 364.672 26.2167 364.919 25.95C365.172 25.6833 365.299 25.33 365.299 24.89V22.52C365.299 22.3667 365.336 22.2533 365.409 22.18C365.489 22.1 365.602 22.06 365.749 22.06C365.896 22.06 366.009 22.1 366.089 22.18C366.169 22.2533 366.209 22.3667 366.209 22.52V26.6C366.209 26.9133 366.062 27.07 365.769 27.07C365.622 27.07 365.509 27.03 365.429 26.95C365.356 26.87 365.319 26.7533 365.319 26.6V25.73L365.449 25.9C365.316 26.2867 365.099 26.5833 364.799 26.79C364.506 26.99 364.159 27.09 363.759 27.09ZM369.693 27.09C369.3 27.09 368.97 27.02 368.703 26.88C368.443 26.74 368.247 26.5367 368.113 26.27C367.987 26.0033 367.923 25.6767 367.923 25.29V22.83H367.283C367.163 22.83 367.07 22.8 367.003 22.74C366.937 22.6733 366.903 22.5867 366.903 22.48C366.903 22.3667 366.937 22.28 367.003 22.22C367.07 22.16 367.163 22.13 367.283 22.13H367.923V21.04C367.923 20.8867 367.963 20.7733 368.043 20.7C368.123 20.62 368.237 20.58 368.383 20.58C368.53 20.58 368.64 20.62 368.713 20.7C368.793 20.7733 368.833 20.8867 368.833 21.04V22.13H370.043C370.17 22.13 370.267 22.16 370.333 22.22C370.4 22.28 370.433 22.3667 370.433 22.48C370.433 22.5867 370.4 22.6733 370.333 22.74C370.267 22.8 370.17 22.83 370.043 22.83H368.833V25.21C368.833 25.5767 368.91 25.8533 369.063 26.04C369.217 26.2267 369.47 26.32 369.823 26.32C369.95 26.32 370.057 26.31 370.143 26.29C370.23 26.2633 370.307 26.25 370.373 26.25C370.433 26.2433 370.483 26.2633 370.523 26.31C370.57 26.3567 370.593 26.4433 370.593 26.57C370.593 26.6633 370.577 26.75 370.543 26.83C370.517 26.9033 370.46 26.9533 370.373 26.98C370.293 27.0067 370.187 27.03 370.053 27.05C369.92 27.0767 369.8 27.09 369.693 27.09ZM373.111 27.09C372.718 27.09 372.388 27.02 372.121 26.88C371.861 26.74 371.665 26.5367 371.531 26.27C371.405 26.0033 371.341 25.6767 371.341 25.29V22.83H370.701C370.581 22.83 370.488 22.8 370.421 22.74C370.355 22.6733 370.321 22.5867 370.321 22.48C370.321 22.3667 370.355 22.28 370.421 22.22C370.488 22.16 370.581 22.13 370.701 22.13H371.341V21.04C371.341 20.8867 371.381 20.7733 371.461 20.7C371.541 20.62 371.655 20.58 371.801 20.58C371.948 20.58 372.058 20.62 372.131 20.7C372.211 20.7733 372.251 20.8867 372.251 21.04V22.13H373.461C373.588 22.13 373.685 22.16 373.751 22.22C373.818 22.28 373.851 22.3667 373.851 22.48C373.851 22.5867 373.818 22.6733 373.751 22.74C373.685 22.8 373.588 22.83 373.461 22.83H372.251V25.21C372.251 25.5767 372.328 25.8533 372.481 26.04C372.635 26.2267 372.888 26.32 373.241 26.32C373.368 26.32 373.475 26.31 373.561 26.29C373.648 26.2633 373.725 26.25 373.791 26.25C373.851 26.2433 373.901 26.2633 373.941 26.31C373.988 26.3567 374.011 26.4433 374.011 26.57C374.011 26.6633 373.995 26.75 373.961 26.83C373.935 26.9033 373.878 26.9533 373.791 26.98C373.711 27.0067 373.605 27.03 373.471 27.05C373.338 27.0767 373.218 27.09 373.111 27.09ZM376.876 27.09C376.35 27.09 375.896 26.99 375.516 26.79C375.143 26.5833 374.853 26.2933 374.646 25.92C374.44 25.54 374.336 25.0933 374.336 24.58C374.336 24.0733 374.436 23.63 374.636 23.25C374.843 22.87 375.123 22.5733 375.476 22.36C375.836 22.1467 376.246 22.04 376.706 22.04C377.033 22.04 377.326 22.0967 377.586 22.21C377.853 22.3167 378.08 22.4733 378.266 22.68C378.453 22.8867 378.593 23.14 378.686 23.44C378.786 23.7333 378.836 24.0667 378.836 24.44C378.836 24.5467 378.803 24.63 378.736 24.69C378.676 24.7433 378.586 24.77 378.466 24.77H375.046V24.19H378.236L378.066 24.33C378.066 23.9833 378.013 23.69 377.906 23.45C377.806 23.2033 377.656 23.0167 377.456 22.89C377.263 22.7633 377.02 22.7 376.726 22.7C376.406 22.7 376.133 22.7767 375.906 22.93C375.68 23.0767 375.506 23.2867 375.386 23.56C375.266 23.8267 375.206 24.1367 375.206 24.49V24.55C375.206 25.15 375.35 25.6033 375.636 25.91C375.923 26.2167 376.336 26.37 376.876 26.37C377.09 26.37 377.306 26.3433 377.526 26.29C377.753 26.2367 377.97 26.14 378.176 26C378.276 25.94 378.366 25.9133 378.446 25.92C378.533 25.92 378.603 25.9467 378.656 26C378.71 26.0467 378.743 26.1067 378.756 26.18C378.77 26.2467 378.76 26.32 378.726 26.4C378.693 26.48 378.63 26.55 378.536 26.61C378.316 26.7633 378.053 26.8833 377.746 26.97C377.446 27.05 377.156 27.09 376.876 27.09ZM380.438 27.07C380.285 27.07 380.168 27.03 380.088 26.95C380.008 26.87 379.968 26.7533 379.968 26.6V22.52C379.968 22.3667 380.008 22.2533 380.088 22.18C380.168 22.1 380.278 22.06 380.418 22.06C380.558 22.06 380.665 22.1 380.738 22.18C380.818 22.2533 380.858 22.3667 380.858 22.52V23.29H380.758C380.865 22.89 381.065 22.5867 381.358 22.38C381.652 22.1733 382.022 22.0567 382.468 22.03C382.575 22.0233 382.662 22.05 382.728 22.11C382.795 22.1633 382.832 22.2567 382.838 22.39C382.845 22.5167 382.815 22.62 382.748 22.7C382.682 22.7733 382.578 22.8167 382.438 22.83L382.258 22.84C381.818 22.8867 381.478 23.03 381.238 23.27C381.005 23.51 380.888 23.84 380.888 24.26V26.6C380.888 26.7533 380.848 26.87 380.768 26.95C380.695 27.03 380.585 27.07 380.438 27.07ZM384.207 28.68C384.153 28.7667 384.08 28.82 383.987 28.84C383.893 28.8667 383.803 28.86 383.717 28.82C383.637 28.7867 383.577 28.7233 383.537 28.63C383.497 28.5433 383.503 28.4333 383.557 28.3C383.737 27.8533 383.883 27.4167 383.997 26.99C384.11 26.5567 384.193 26.1233 384.247 25.69C384.307 25.2567 384.337 24.8167 384.337 24.37C384.337 23.9233 384.307 23.4833 384.247 23.05C384.187 22.6167 384.097 22.1867 383.977 21.76C383.863 21.3267 383.723 20.8867 383.557 20.44C383.503 20.3067 383.497 20.1933 383.537 20.1C383.577 20.0067 383.64 19.9433 383.727 19.91C383.813 19.87 383.9 19.8633 383.987 19.89C384.08 19.91 384.153 19.9667 384.207 20.06C384.587 20.74 384.863 21.4433 385.037 22.17C385.217 22.89 385.307 23.6233 385.307 24.37C385.307 24.8633 385.267 25.3567 385.187 25.85C385.107 26.3367 384.987 26.8167 384.827 27.29C384.667 27.7633 384.46 28.2267 384.207 28.68Z" fill="white"/>
<mask id="path-7-inside-2_6840_695" fill="white">
<path d="M350.5 38H361.5V42H350.5V38Z"/>
</mask>
<path d="M350.5 38V37C349.948 37 349.5 37.4477 349.5 38H350.5ZM361.5 38H362.5C362.5 37.4477 362.052 37 361.5 37V38ZM350.5 39H361.5V37H350.5V39ZM360.5 38V42H362.5V38H360.5ZM351.5 42V38H349.5V42H351.5Z" fill="#007BC7" mask="url(#path-7-inside-2_6840_695)"/>
<rect x="637" y="16" width="43" height="16" rx="3.66557" fill="#007BC7"/>
<path d="M642.29 27.07C642.157 27.07 642.053 27.03 641.98 26.95C641.907 26.87 641.87 26.7633 641.87 26.63V20.32C641.87 20.18 641.907 20.0733 641.98 20C642.06 19.92 642.167 19.88 642.3 19.88C642.42 19.88 642.513 19.9033 642.58 19.95C642.653 19.9967 642.72 20.0767 642.78 20.19L645.46 25.22H645.15L647.83 20.19C647.89 20.0767 647.953 19.9967 648.02 19.95C648.087 19.9033 648.18 19.88 648.3 19.88C648.433 19.88 648.537 19.92 648.61 20C648.683 20.0733 648.72 20.18 648.72 20.32V26.63C648.72 26.7633 648.683 26.87 648.61 26.95C648.543 27.03 648.44 27.07 648.3 27.07C648.16 27.07 648.053 27.03 647.98 26.95C647.913 26.87 647.88 26.7633 647.88 26.63V21.24H648.1L645.7 25.73C645.647 25.8167 645.59 25.8833 645.53 25.93C645.477 25.97 645.4 25.99 645.3 25.99C645.207 25.99 645.127 25.9667 645.06 25.92C645 25.8733 644.947 25.81 644.9 25.73L642.47 21.23H642.71V26.63C642.71 26.7633 642.673 26.87 642.6 26.95C642.533 27.03 642.43 27.07 642.29 27.07ZM651.864 27.09C651.531 27.09 651.227 27.0233 650.954 26.89C650.687 26.7567 650.477 26.5767 650.324 26.35C650.177 26.1233 650.104 25.87 650.104 25.59C650.104 25.23 650.194 24.9467 650.374 24.74C650.554 24.5333 650.857 24.3867 651.284 24.3C651.711 24.2067 652.284 24.16 653.004 24.16H653.474V24.74H653.024C652.511 24.74 652.104 24.7633 651.804 24.81C651.511 24.8567 651.304 24.94 651.184 25.06C651.064 25.1733 651.004 25.3333 651.004 25.54C651.004 25.8 651.094 26.0133 651.274 26.18C651.461 26.3467 651.714 26.43 652.034 26.43C652.287 26.43 652.511 26.37 652.704 26.25C652.897 26.1233 653.051 25.9567 653.164 25.75C653.277 25.5367 653.334 25.2933 653.334 25.02V23.87C653.334 23.4767 653.254 23.1933 653.094 23.02C652.934 22.84 652.664 22.75 652.284 22.75C652.064 22.75 651.837 22.78 651.604 22.84C651.371 22.9 651.127 22.9933 650.874 23.12C650.774 23.1667 650.687 23.1833 650.614 23.17C650.541 23.15 650.481 23.11 650.434 23.05C650.394 22.9833 650.371 22.9133 650.364 22.84C650.364 22.76 650.381 22.6833 650.414 22.61C650.454 22.5367 650.521 22.4833 650.614 22.45C650.907 22.3033 651.197 22.2 651.484 22.14C651.777 22.0733 652.051 22.04 652.304 22.04C652.737 22.04 653.094 22.11 653.374 22.25C653.654 22.3833 653.864 22.5933 654.004 22.88C654.144 23.16 654.214 23.52 654.214 23.96V26.6C654.214 26.7533 654.177 26.87 654.104 26.95C654.031 27.03 653.924 27.07 653.784 27.07C653.651 27.07 653.544 27.03 653.464 26.95C653.391 26.87 653.354 26.7533 653.354 26.6V25.89H653.444C653.391 26.1367 653.291 26.35 653.144 26.53C652.997 26.71 652.814 26.85 652.594 26.95C652.381 27.0433 652.137 27.09 651.864 27.09ZM656.116 27.07C655.963 27.07 655.846 27.03 655.766 26.95C655.686 26.87 655.646 26.7533 655.646 26.6V22.52C655.646 22.3667 655.686 22.2533 655.766 22.18C655.846 22.1 655.956 22.06 656.096 22.06C656.236 22.06 656.343 22.1 656.416 22.18C656.496 22.2533 656.536 22.3667 656.536 22.52V23.29H656.436C656.543 22.89 656.743 22.5867 657.036 22.38C657.329 22.1733 657.699 22.0567 658.146 22.03C658.253 22.0233 658.339 22.05 658.406 22.11C658.473 22.1633 658.509 22.2567 658.516 22.39C658.523 22.5167 658.493 22.62 658.426 22.7C658.359 22.7733 658.256 22.8167 658.116 22.83L657.936 22.84C657.496 22.8867 657.156 23.03 656.916 23.27C656.683 23.51 656.566 23.84 656.566 24.26V26.6C656.566 26.7533 656.526 26.87 656.446 26.95C656.373 27.03 656.263 27.07 656.116 27.07ZM661.42 28.89C661.06 28.89 660.71 28.85 660.37 28.77C660.037 28.69 659.733 28.5667 659.46 28.4C659.373 28.3467 659.313 28.2833 659.28 28.21C659.253 28.1433 659.247 28.0733 659.26 28C659.28 27.9267 659.313 27.86 659.36 27.8C659.413 27.7467 659.473 27.71 659.54 27.69C659.613 27.6767 659.687 27.6933 659.76 27.74C660.053 27.9067 660.333 28.02 660.6 28.08C660.867 28.14 661.12 28.17 661.36 28.17C661.833 28.17 662.187 28.0467 662.42 27.8C662.66 27.56 662.78 27.2067 662.78 26.74V25.66H662.87C662.777 26.0333 662.567 26.33 662.24 26.55C661.92 26.77 661.547 26.88 661.12 26.88C660.68 26.88 660.297 26.78 659.97 26.58C659.643 26.3733 659.39 26.09 659.21 25.73C659.03 25.3633 658.94 24.94 658.94 24.46C658.94 24.0933 658.99 23.7633 659.09 23.47C659.197 23.17 659.343 22.9167 659.53 22.71C659.723 22.4967 659.953 22.3333 660.22 22.22C660.487 22.1 660.787 22.04 661.12 22.04C661.553 22.04 661.93 22.15 662.25 22.37C662.57 22.59 662.777 22.8867 662.87 23.26L662.76 23.4V22.52C662.76 22.3667 662.8 22.2533 662.88 22.18C662.96 22.1 663.073 22.06 663.22 22.06C663.36 22.06 663.47 22.1 663.55 22.18C663.63 22.2533 663.67 22.3667 663.67 22.52V26.62C663.67 27.3733 663.477 27.94 663.09 28.32C662.71 28.7 662.153 28.89 661.42 28.89ZM661.32 26.16C661.62 26.16 661.877 26.0933 662.09 25.96C662.31 25.82 662.477 25.6233 662.59 25.37C662.71 25.11 662.77 24.8067 662.77 24.46C662.77 23.9333 662.64 23.52 662.38 23.22C662.12 22.9133 661.767 22.76 661.32 22.76C661.02 22.76 660.76 22.83 660.54 22.97C660.327 23.1033 660.16 23.2967 660.04 23.55C659.92 23.8033 659.86 24.1067 659.86 24.46C659.86 24.98 659.99 25.3933 660.25 25.7C660.517 26.0067 660.873 26.16 661.32 26.16ZM667.378 27.09C666.852 27.09 666.398 26.99 666.018 26.79C665.645 26.5833 665.355 26.2933 665.148 25.92C664.942 25.54 664.838 25.0933 664.838 24.58C664.838 24.0733 664.938 23.63 665.138 23.25C665.345 22.87 665.625 22.5733 665.978 22.36C666.338 22.1467 666.748 22.04 667.208 22.04C667.535 22.04 667.828 22.0967 668.088 22.21C668.355 22.3167 668.582 22.4733 668.768 22.68C668.955 22.8867 669.095 23.14 669.188 23.44C669.288 23.7333 669.338 24.0667 669.338 24.44C669.338 24.5467 669.305 24.63 669.238 24.69C669.178 24.7433 669.088 24.77 668.968 24.77H665.548V24.19H668.738L668.568 24.33C668.568 23.9833 668.515 23.69 668.408 23.45C668.308 23.2033 668.158 23.0167 667.958 22.89C667.765 22.7633 667.522 22.7 667.228 22.7C666.908 22.7 666.635 22.7767 666.408 22.93C666.182 23.0767 666.008 23.2867 665.888 23.56C665.768 23.8267 665.708 24.1367 665.708 24.49V24.55C665.708 25.15 665.852 25.6033 666.138 25.91C666.425 26.2167 666.838 26.37 667.378 26.37C667.592 26.37 667.808 26.3433 668.028 26.29C668.255 26.2367 668.472 26.14 668.678 26C668.778 25.94 668.868 25.9133 668.948 25.92C669.035 25.92 669.105 25.9467 669.158 26C669.212 26.0467 669.245 26.1067 669.258 26.18C669.272 26.2467 669.262 26.32 669.228 26.4C669.195 26.48 669.132 26.55 669.038 26.61C668.818 26.7633 668.555 26.8833 668.248 26.97C667.948 27.05 667.658 27.09 667.378 27.09ZM670.92 27.07C670.78 27.07 670.67 27.03 670.59 26.95C670.51 26.87 670.47 26.7533 670.47 26.6V22.52C670.47 22.3667 670.51 22.2533 670.59 22.18C670.67 22.1 670.78 22.06 670.92 22.06C671.06 22.06 671.167 22.1 671.24 22.18C671.32 22.2533 671.36 22.3667 671.36 22.52V23.34L671.25 23.19C671.39 22.81 671.617 22.5233 671.93 22.33C672.25 22.1367 672.614 22.04 673.02 22.04C673.414 22.04 673.737 22.11 673.99 22.25C674.244 22.39 674.434 22.6033 674.56 22.89C674.687 23.1767 674.75 23.54 674.75 23.98V26.6C674.75 26.7533 674.71 26.87 674.63 26.95C674.557 27.03 674.447 27.07 674.3 27.07C674.154 27.07 674.04 27.03 673.96 26.95C673.88 26.87 673.84 26.7533 673.84 26.6V24.03C673.84 23.5967 673.757 23.28 673.59 23.08C673.424 22.88 673.157 22.78 672.79 22.78C672.364 22.78 672.02 22.9133 671.76 23.18C671.507 23.44 671.38 23.7933 671.38 24.24V26.6C671.38 26.9133 671.227 27.07 670.92 27.07Z" fill="white"/>
<mask id="path-11-inside-3_6840_695" fill="white">
<path d="M605 38H712V42H605V38Z"/>
</mask>
<path d="M605 38V37C604.448 37 604 37.4477 604 38H605ZM712 38H713C713 37.4477 712.552 37 712 37V38ZM605 39H712V37H605V39ZM711 38V42H713V38H711ZM606 42V38H604V42H606Z" fill="#007BC7" mask="url(#path-11-inside-3_6840_695)"/>
<rect y="50" width="712" height="130" rx="8" fill="#E6EBF0"/>
<rect x="106.689" y="50" width="72" height="130" fill="#D1D8E0"/>
<rect x="188.813" y="50" width="76" height="130" fill="#D1D8E0"/>
<rect x="274.938" y="50" width="76" height="130" fill="#D1D8E0"/>
<rect x="361.062" y="50" width="78" height="130" fill="#D1D8E0"/>
<rect x="449.187" y="50" width="73" height="130" fill="#D1D8E0"/>
<rect x="532.311" y="50" width="73" height="130" fill="#D1D8E0"/>
</svg>
