<svg width="341" height="145" viewBox="0 0 341 145" fill="none" xmlns="http://www.w3.org/2000/svg">
<rect x="0.403992" width="339.622" height="145" rx="8" fill="#E6EBF0"/>
<rect x="42.4733" width="28.648" height="145" fill="#9EAAB8"/>
<rect x="87.8403" width="28.648" height="145" fill="#9EAAB8"/>
<rect x="133.207" width="28.648" height="145" fill="#9EAAB8"/>
<rect x="178.574" width="28.648" height="145" fill="#9EAAB8"/>
<rect x="223.942" width="28.648" height="145" fill="#9EAAB8"/>
<rect x="269.309" width="28.648" height="145" fill="#9EAAB8"/>
<rect x="71.5275" y="26.477" width="165.278" height="92.2777" rx="4.25" fill="white"/>
<rect x="71.5275" y="26.477" width="165.278" height="92.2777" rx="4.25" stroke="#E6EBF0" stroke-width="0.944444"/>
<mask id="path-9-inside-1_6840_734" fill="white">
<path d="M71.9998 30.727C71.9998 28.6406 73.6911 26.9492 75.7775 26.9492H232.555C234.642 26.9492 236.333 28.6406 236.333 30.727V79.8381H71.9998V30.727Z"/>
</mask>
<path d="M71.9998 30.727C71.9998 28.6406 73.6911 26.9492 75.7775 26.9492H232.555C234.642 26.9492 236.333 28.6406 236.333 30.727V79.8381H71.9998V30.727Z" fill="white"/>
<path d="M71.9998 26.9492H236.333H71.9998ZM236.333 80.7825H71.9998V78.8936H236.333V80.7825ZM71.9998 79.8381V26.9492V79.8381ZM236.333 26.9492V79.8381V26.9492Z" fill="#E6EBF0" mask="url(#path-9-inside-1_6840_734)"/>
<rect x="83.3331" y="38.2825" width="30.2222" height="30.2222" rx="3.77777" fill="#E6EBF0"/>
<path d="M98.4441 47.0974C94.9686 47.0974 92.1478 49.9181 92.1478 53.3936C92.1478 56.8692 94.9686 59.6899 98.4441 59.6899C101.92 59.6899 104.74 56.8692 104.74 53.3936C104.74 49.9181 101.92 47.0974 98.4441 47.0974ZM98.4441 56.5418C98.0978 56.5418 97.8145 56.2585 97.8145 55.9122V53.3936C97.8145 53.0473 98.0978 52.764 98.4441 52.764C98.7904 52.764 99.0737 53.0473 99.0737 53.3936V55.9122C99.0737 56.2585 98.7904 56.5418 98.4441 56.5418ZM99.0737 51.5048H97.8145V50.2455H99.0737V51.5048Z" fill="#38485C"/>
<path d="M122.159 49.5247C121.964 49.5247 121.813 49.4712 121.706 49.3642C121.605 49.2508 121.555 49.0966 121.555 48.9014V43.8014H119.713C119.549 43.8014 119.42 43.7573 119.326 43.6692C119.238 43.5747 119.194 43.4488 119.194 43.2914C119.194 43.1277 119.238 43.0049 119.326 42.9231C119.42 42.8349 119.549 42.7908 119.713 42.7908H124.605C124.769 42.7908 124.895 42.8349 124.983 42.9231C125.077 43.0049 125.125 43.1277 125.125 43.2914C125.125 43.4488 125.077 43.5747 124.983 43.6692C124.895 43.7573 124.769 43.8014 124.605 43.8014H122.764V48.9014C122.764 49.0966 122.713 49.2508 122.612 49.3642C122.512 49.4712 122.361 49.5247 122.159 49.5247ZM126.804 49.5153C126.615 49.5153 126.47 49.4586 126.369 49.3453C126.269 49.2319 126.218 49.0745 126.218 48.873V45.4069C126.218 45.1992 126.269 45.0418 126.369 44.9347C126.47 44.8214 126.615 44.7647 126.804 44.7647C126.993 44.7647 127.137 44.8214 127.238 44.9347C127.345 45.0418 127.399 45.1992 127.399 45.4069V48.873C127.399 49.0745 127.348 49.2319 127.248 49.3453C127.147 49.4586 126.999 49.5153 126.804 49.5153ZM127.248 44.1603C127.185 44.2484 127.109 44.2988 127.021 44.3114C126.933 44.324 126.848 44.3082 126.766 44.2642C126.684 44.2201 126.624 44.1571 126.587 44.0753C126.555 43.9934 126.564 43.9021 126.615 43.8014L127.333 42.3942C127.389 42.2745 127.465 42.199 127.559 42.1675C127.654 42.1297 127.751 42.1234 127.852 42.1486C127.953 42.1738 128.038 42.221 128.107 42.2903C128.183 42.3595 128.227 42.4445 128.239 42.5453C128.258 42.6397 128.233 42.7373 128.164 42.8381L127.248 44.1603ZM130.741 49.5436C130.332 49.5436 129.989 49.4743 129.712 49.3358C129.441 49.1973 129.239 48.9958 129.107 48.7314C128.975 48.4606 128.909 48.1269 128.909 47.7303V45.7186H128.418C128.267 45.7186 128.15 45.6808 128.068 45.6053C127.986 45.5234 127.945 45.4132 127.945 45.2747C127.945 45.1299 127.986 45.0197 128.068 44.9442C128.15 44.8686 128.267 44.8308 128.418 44.8308H128.909V43.9714C128.909 43.7762 128.959 43.6282 129.06 43.5275C129.167 43.4268 129.315 43.3764 129.504 43.3764C129.693 43.3764 129.837 43.4268 129.938 43.5275C130.039 43.6282 130.089 43.7762 130.089 43.9714V44.8308H131.09C131.242 44.8308 131.358 44.8686 131.44 44.9442C131.522 45.0197 131.563 45.1299 131.563 45.2747C131.563 45.4132 131.522 45.5234 131.44 45.6053C131.358 45.6808 131.242 45.7186 131.09 45.7186H130.089V47.6642C130.089 47.9664 130.155 48.193 130.288 48.3442C130.42 48.4953 130.634 48.5708 130.93 48.5708C131.037 48.5708 131.131 48.5614 131.213 48.5425C131.295 48.5236 131.367 48.511 131.43 48.5047C131.506 48.4984 131.569 48.5236 131.619 48.5803C131.67 48.6306 131.695 48.7377 131.695 48.9014C131.695 49.0273 131.673 49.1406 131.629 49.2414C131.591 49.3358 131.519 49.4019 131.412 49.4397C131.33 49.4649 131.223 49.4869 131.09 49.5058C130.958 49.531 130.842 49.5436 130.741 49.5436ZM133.922 49.5436C133.538 49.5436 133.22 49.4743 132.968 49.3358C132.716 49.191 132.527 48.9769 132.401 48.6936C132.282 48.4103 132.222 48.0577 132.222 47.6358V45.3503C132.222 45.1488 132.272 45.0008 132.373 44.9064C132.474 44.8056 132.618 44.7553 132.807 44.7553C132.996 44.7553 133.141 44.8056 133.242 44.9064C133.349 45.0008 133.402 45.1488 133.402 45.3503V47.6547C133.402 47.9821 133.468 48.2245 133.601 48.3819C133.733 48.5393 133.944 48.618 134.233 48.618C134.548 48.618 134.806 48.511 135.008 48.2969C135.209 48.0766 135.31 47.7869 135.31 47.428V45.3503C135.31 45.1488 135.36 45.0008 135.461 44.9064C135.562 44.8056 135.707 44.7553 135.896 44.7553C136.085 44.7553 136.229 44.8056 136.33 44.9064C136.437 45.0008 136.491 45.1488 136.491 45.3503V48.9203C136.491 49.3232 136.299 49.5247 135.915 49.5247C135.732 49.5247 135.59 49.4743 135.49 49.3736C135.389 49.2666 135.338 49.1155 135.338 48.9203V48.2025L135.471 48.4858C135.338 48.8258 135.137 49.0871 134.866 49.2697C134.602 49.4523 134.287 49.5436 133.922 49.5436ZM139.297 49.5436C138.774 49.5436 138.38 49.3956 138.116 49.0997C137.852 48.7975 137.719 48.3568 137.719 47.7775V43.3103C137.719 43.1151 137.77 42.9671 137.87 42.8664C137.971 42.7656 138.116 42.7153 138.305 42.7153C138.494 42.7153 138.639 42.7656 138.739 42.8664C138.846 42.9671 138.9 43.1151 138.9 43.3103V47.7208C138.9 48.0105 138.96 48.2245 139.079 48.363C139.205 48.5016 139.382 48.5708 139.608 48.5708C139.659 48.5708 139.706 48.5708 139.75 48.5708C139.794 48.5645 139.838 48.5582 139.882 48.5519C139.97 48.5393 140.03 48.5645 140.062 48.6275C140.093 48.6842 140.109 48.8038 140.109 48.9864C140.109 49.1438 140.077 49.2666 140.014 49.3547C139.951 49.4429 139.848 49.4964 139.703 49.5153C139.64 49.5216 139.574 49.5279 139.504 49.5342C139.435 49.5405 139.366 49.5436 139.297 49.5436ZM142.795 49.5436C142.317 49.5436 141.901 49.446 141.549 49.2508C141.196 49.0556 140.922 48.7786 140.727 48.4197C140.532 48.0545 140.434 47.6264 140.434 47.1353C140.434 46.7638 140.488 46.4332 140.595 46.1436C140.708 45.8477 140.869 45.5958 141.076 45.3881C141.284 45.174 141.533 45.0134 141.823 44.9064C142.112 44.7931 142.436 44.7364 142.795 44.7364C143.274 44.7364 143.689 44.834 144.042 45.0292C144.395 45.2243 144.668 45.5014 144.864 45.8603C145.059 46.2192 145.156 46.6442 145.156 47.1353C145.156 47.5068 145.1 47.8405 144.986 48.1364C144.879 48.4323 144.722 48.6873 144.514 48.9014C144.306 49.1092 144.058 49.2697 143.768 49.383C143.478 49.4901 143.154 49.5436 142.795 49.5436ZM142.795 48.6464C143.028 48.6464 143.233 48.5897 143.409 48.4764C143.585 48.363 143.721 48.1962 143.815 47.9758C143.916 47.7492 143.966 47.469 143.966 47.1353C143.966 46.6316 143.859 46.2569 143.645 46.0114C143.431 45.7595 143.148 45.6336 142.795 45.6336C142.562 45.6336 142.358 45.6903 142.181 45.8036C142.005 45.9106 141.867 46.0775 141.766 46.3042C141.671 46.5245 141.624 46.8016 141.624 47.1353C141.624 47.6327 141.731 48.0105 141.945 48.2686C142.159 48.5205 142.443 48.6464 142.795 48.6464ZM150.47 49.5436C150.067 49.5436 149.712 49.446 149.403 49.2508C149.101 49.0556 148.865 48.7786 148.695 48.4197C148.525 48.0545 148.44 47.6264 148.44 47.1353C148.44 46.6379 148.525 46.2129 148.695 45.8603C148.865 45.5014 149.101 45.2243 149.403 45.0292C149.712 44.834 150.067 44.7364 150.47 44.7364C150.854 44.7364 151.188 44.8308 151.472 45.0197C151.761 45.2086 151.956 45.4573 152.057 45.7658H151.953V43.3103C151.953 43.1151 152.004 42.9671 152.104 42.8664C152.205 42.7656 152.35 42.7153 152.539 42.7153C152.728 42.7153 152.872 42.7656 152.973 42.8664C153.08 42.9671 153.134 43.1151 153.134 43.3103V48.9203C153.134 49.1155 153.083 49.2666 152.983 49.3736C152.882 49.4743 152.737 49.5247 152.548 49.5247C152.359 49.5247 152.214 49.4743 152.114 49.3736C152.013 49.2666 151.963 49.1155 151.963 48.9203V48.1836L152.067 48.4669C151.972 48.7943 151.78 49.0556 151.49 49.2508C151.201 49.446 150.861 49.5436 150.47 49.5436ZM150.801 48.6464C151.034 48.6464 151.239 48.5897 151.415 48.4764C151.591 48.363 151.727 48.1962 151.821 47.9758C151.922 47.7492 151.972 47.469 151.972 47.1353C151.972 46.6316 151.865 46.2569 151.651 46.0114C151.437 45.7595 151.154 45.6336 150.801 45.6336C150.568 45.6336 150.363 45.6903 150.187 45.8036C150.011 45.9106 149.872 46.0775 149.772 46.3042C149.677 46.5245 149.63 46.8016 149.63 47.1353C149.63 47.6327 149.737 48.0105 149.951 48.2686C150.165 48.5205 150.448 48.6464 150.801 48.6464ZM156.634 49.5436C156.111 49.5436 155.661 49.446 155.283 49.2508C154.906 49.0556 154.613 48.7786 154.405 48.4197C154.204 48.0608 154.103 47.6358 154.103 47.1447C154.103 46.6662 154.2 46.2475 154.396 45.8886C154.597 45.5297 154.871 45.2495 155.217 45.0481C155.57 44.8403 155.97 44.7364 156.417 44.7364C156.744 44.7364 157.037 44.7899 157.295 44.8969C157.559 45.004 157.783 45.1582 157.966 45.3597C158.154 45.5612 158.296 45.8068 158.391 46.0964C158.491 46.3797 158.542 46.7008 158.542 47.0597C158.542 47.173 158.501 47.2612 158.419 47.3242C158.343 47.3808 158.233 47.4092 158.088 47.4092H155.057V46.7292H157.711L157.559 46.8708C157.559 46.5812 157.515 46.3388 157.427 46.1436C157.345 45.9484 157.223 45.8005 157.059 45.6997C156.902 45.5927 156.703 45.5392 156.464 45.5392C156.199 45.5392 155.973 45.6021 155.784 45.728C155.601 45.8477 155.46 46.0208 155.359 46.2475C155.264 46.4679 155.217 46.7323 155.217 47.0408V47.1069C155.217 47.6232 155.337 48.0105 155.576 48.2686C155.822 48.5205 156.181 48.6464 156.653 48.6464C156.817 48.6464 156.999 48.6275 157.201 48.5897C157.408 48.5456 157.604 48.4732 157.786 48.3725C157.918 48.2969 158.035 48.2655 158.136 48.278C158.236 48.2843 158.315 48.319 158.372 48.3819C158.435 48.4449 158.472 48.5236 158.485 48.618C158.498 48.7062 158.479 48.7975 158.428 48.8919C158.384 48.9864 158.306 49.0682 158.192 49.1375C157.972 49.276 157.717 49.3799 157.427 49.4492C157.144 49.5121 156.879 49.5436 156.634 49.5436ZM161.054 49.5436C160.531 49.5436 160.138 49.3956 159.873 49.0997C159.609 48.7975 159.477 48.3568 159.477 47.7775V43.3103C159.477 43.1151 159.527 42.9671 159.628 42.8664C159.728 42.7656 159.873 42.7153 160.062 42.7153C160.251 42.7153 160.396 42.7656 160.497 42.8664C160.604 42.9671 160.657 43.1151 160.657 43.3103V47.7208C160.657 48.0105 160.717 48.2245 160.837 48.363C160.963 48.5016 161.139 48.5708 161.366 48.5708C161.416 48.5708 161.463 48.5708 161.507 48.5708C161.551 48.5645 161.595 48.5582 161.639 48.5519C161.728 48.5393 161.787 48.5645 161.819 48.6275C161.85 48.6842 161.866 48.8038 161.866 48.9864C161.866 49.1438 161.835 49.2666 161.772 49.3547C161.709 49.4429 161.605 49.4964 161.46 49.5153C161.397 49.5216 161.331 49.5279 161.262 49.5342C161.192 49.5405 161.123 49.5436 161.054 49.5436ZM166.577 49.5436C166.243 49.5436 165.944 49.4806 165.68 49.3547C165.422 49.2225 165.217 49.0462 165.066 48.8258C164.921 48.6055 164.849 48.3568 164.849 48.0797C164.849 47.7397 164.937 47.4721 165.113 47.2769C165.29 47.0755 165.576 46.9306 165.973 46.8425C166.369 46.7543 166.901 46.7103 167.569 46.7103H168.041V47.3903H167.578C167.188 47.3903 166.876 47.4092 166.643 47.4469C166.41 47.4847 166.243 47.5508 166.143 47.6453C166.048 47.7334 166.001 47.8593 166.001 48.023C166.001 48.2308 166.073 48.4008 166.218 48.533C166.363 48.6653 166.565 48.7314 166.823 48.7314C167.03 48.7314 167.213 48.6842 167.37 48.5897C167.534 48.489 167.663 48.3536 167.758 48.1836C167.852 48.0136 167.899 47.8184 167.899 47.598V46.5119C167.899 46.1971 167.83 45.9705 167.692 45.8319C167.553 45.6934 167.32 45.6242 166.993 45.6242C166.81 45.6242 166.612 45.6462 166.398 45.6903C166.19 45.7343 165.97 45.8099 165.737 45.9169C165.617 45.9736 165.51 45.9893 165.415 45.9642C165.327 45.939 165.258 45.8886 165.208 45.813C165.157 45.7312 165.132 45.643 165.132 45.5486C165.132 45.4542 165.157 45.3629 165.208 45.2747C165.258 45.1803 165.343 45.111 165.463 45.0669C165.752 44.9473 166.029 44.8623 166.294 44.8119C166.565 44.7616 166.81 44.7364 167.03 44.7364C167.484 44.7364 167.855 44.8056 168.145 44.9442C168.441 45.0827 168.661 45.2936 168.806 45.5769C168.951 45.854 169.023 46.2129 169.023 46.6536V48.9203C169.023 49.1155 168.976 49.2666 168.882 49.3736C168.787 49.4743 168.652 49.5247 168.475 49.5247C168.299 49.5247 168.161 49.4743 168.06 49.3736C167.965 49.2666 167.918 49.1155 167.918 48.9203V48.4669H167.994C167.95 48.6873 167.862 48.8793 167.729 49.043C167.603 49.2005 167.443 49.3232 167.248 49.4114C167.053 49.4995 166.829 49.5436 166.577 49.5436ZM172.356 49.5436C171.871 49.5436 171.449 49.446 171.09 49.2508C170.732 49.0493 170.454 48.766 170.259 48.4008C170.064 48.0356 169.967 47.6075 169.967 47.1164C169.967 46.7449 170.02 46.4143 170.127 46.1247C170.24 45.8288 170.401 45.5801 170.609 45.3786C170.817 45.1708 171.068 45.0134 171.364 44.9064C171.66 44.7931 171.991 44.7364 172.356 44.7364C172.564 44.7364 172.787 44.7647 173.027 44.8214C173.272 44.8781 173.502 44.9725 173.716 45.1047C173.817 45.1677 173.883 45.2432 173.914 45.3314C173.946 45.4195 173.952 45.5108 173.933 45.6053C173.914 45.6934 173.873 45.7721 173.81 45.8414C173.754 45.9043 173.681 45.9453 173.593 45.9642C173.505 45.9768 173.407 45.9547 173.3 45.898C173.162 45.8162 173.02 45.7564 172.875 45.7186C172.731 45.6745 172.592 45.6525 172.46 45.6525C172.252 45.6525 172.069 45.6871 171.912 45.7564C171.755 45.8193 171.619 45.9138 171.506 46.0397C171.399 46.1593 171.317 46.3105 171.26 46.493C171.204 46.6756 171.175 46.8866 171.175 47.1258C171.175 47.5918 171.286 47.9601 171.506 48.2308C171.733 48.4953 172.051 48.6275 172.46 48.6275C172.592 48.6275 172.727 48.6086 172.866 48.5708C173.011 48.533 173.156 48.4732 173.3 48.3914C173.407 48.3347 173.502 48.3158 173.584 48.3347C173.672 48.3536 173.744 48.3977 173.801 48.4669C173.858 48.5299 173.892 48.6086 173.905 48.703C173.917 48.7912 173.905 48.8793 173.867 48.9675C173.836 49.0556 173.773 49.128 173.678 49.1847C173.47 49.3106 173.25 49.4019 173.017 49.4586C172.784 49.5153 172.564 49.5436 172.356 49.5436ZM176.718 49.5436C176.234 49.5436 175.812 49.446 175.453 49.2508C175.094 49.0493 174.817 48.766 174.622 48.4008C174.427 48.0356 174.329 47.6075 174.329 47.1164C174.329 46.7449 174.383 46.4143 174.49 46.1247C174.603 45.8288 174.763 45.5801 174.971 45.3786C175.179 45.1708 175.431 45.0134 175.727 44.9064C176.023 44.7931 176.353 44.7364 176.718 44.7364C176.926 44.7364 177.15 44.7647 177.389 44.8214C177.635 44.8781 177.864 44.9725 178.078 45.1047C178.179 45.1677 178.245 45.2432 178.277 45.3314C178.308 45.4195 178.315 45.5108 178.296 45.6053C178.277 45.6934 178.236 45.7721 178.173 45.8414C178.116 45.9043 178.044 45.9453 177.956 45.9642C177.868 45.9768 177.77 45.9547 177.663 45.898C177.524 45.8162 177.383 45.7564 177.238 45.7186C177.093 45.6745 176.955 45.6525 176.822 45.6525C176.615 45.6525 176.432 45.6871 176.275 45.7564C176.117 45.8193 175.982 45.9138 175.868 46.0397C175.761 46.1593 175.68 46.3105 175.623 46.493C175.566 46.6756 175.538 46.8866 175.538 47.1258C175.538 47.5918 175.648 47.9601 175.868 48.2308C176.095 48.4953 176.413 48.6275 176.822 48.6275C176.955 48.6275 177.09 48.6086 177.228 48.5708C177.373 48.533 177.518 48.4732 177.663 48.3914C177.77 48.3347 177.864 48.3158 177.946 48.3347C178.034 48.3536 178.107 48.3977 178.163 48.4669C178.22 48.5299 178.255 48.6086 178.267 48.703C178.28 48.7912 178.267 48.8793 178.23 48.9675C178.198 49.0556 178.135 49.128 178.041 49.1847C177.833 49.3106 177.613 49.4019 177.38 49.4586C177.147 49.5153 176.926 49.5436 176.718 49.5436ZM181.223 49.5436C180.7 49.5436 180.25 49.446 179.872 49.2508C179.494 49.0556 179.202 48.7786 178.994 48.4197C178.792 48.0608 178.692 47.6358 178.692 47.1447C178.692 46.6662 178.789 46.2475 178.984 45.8886C179.186 45.5297 179.46 45.2495 179.806 45.0481C180.159 44.8403 180.558 44.7364 181.005 44.7364C181.333 44.7364 181.626 44.7899 181.884 44.8969C182.148 45.004 182.372 45.1582 182.554 45.3597C182.743 45.5612 182.885 45.8068 182.979 46.0964C183.08 46.3797 183.13 46.7008 183.13 47.0597C183.13 47.173 183.09 47.2612 183.008 47.3242C182.932 47.3808 182.822 47.4092 182.677 47.4092H179.645V46.7292H182.299L182.148 46.8708C182.148 46.5812 182.104 46.3388 182.016 46.1436C181.934 45.9484 181.811 45.8005 181.648 45.6997C181.49 45.5927 181.292 45.5392 181.053 45.5392C180.788 45.5392 180.562 45.6021 180.373 45.728C180.19 45.8477 180.048 46.0208 179.948 46.2475C179.853 46.4679 179.806 46.7323 179.806 47.0408V47.1069C179.806 47.6232 179.926 48.0105 180.165 48.2686C180.41 48.5205 180.769 48.6464 181.242 48.6464C181.405 48.6464 181.588 48.6275 181.789 48.5897C181.997 48.5456 182.192 48.4732 182.375 48.3725C182.507 48.2969 182.624 48.2655 182.724 48.278C182.825 48.2843 182.904 48.319 182.96 48.3819C183.023 48.4449 183.061 48.5236 183.074 48.618C183.086 48.7062 183.067 48.7975 183.017 48.8919C182.973 48.9864 182.894 49.0682 182.781 49.1375C182.561 49.276 182.306 49.3799 182.016 49.4492C181.733 49.5121 181.468 49.5436 181.223 49.5436ZM185.756 49.5436C185.485 49.5436 185.199 49.5153 184.896 49.4586C184.594 49.4019 184.324 49.3043 184.084 49.1658C183.984 49.1029 183.911 49.0305 183.867 48.9486C183.829 48.8605 183.814 48.7755 183.82 48.6936C183.832 48.6055 183.864 48.5299 183.914 48.4669C183.971 48.404 184.04 48.363 184.122 48.3442C184.21 48.3253 184.305 48.341 184.405 48.3914C184.657 48.511 184.893 48.596 185.114 48.6464C185.334 48.6905 185.551 48.7125 185.765 48.7125C186.068 48.7125 186.291 48.6621 186.436 48.5614C186.587 48.4543 186.663 48.3158 186.663 48.1458C186.663 48.001 186.612 47.8908 186.511 47.8153C186.417 47.7334 186.272 47.6736 186.077 47.6358L185.133 47.4564C184.742 47.3808 184.443 47.2392 184.235 47.0314C184.034 46.8173 183.933 46.5434 183.933 46.2097C183.933 45.9075 184.015 45.6462 184.179 45.4258C184.349 45.2055 184.582 45.0355 184.878 44.9158C185.174 44.7962 185.514 44.7364 185.898 44.7364C186.175 44.7364 186.433 44.7679 186.672 44.8308C186.918 44.8875 187.154 44.9788 187.38 45.1047C187.475 45.1551 187.538 45.2212 187.569 45.3031C187.607 45.3849 187.616 45.4699 187.598 45.558C187.579 45.6399 187.541 45.7155 187.484 45.7847C187.428 45.8477 187.355 45.8886 187.267 45.9075C187.185 45.9201 187.091 45.9012 186.984 45.8508C186.789 45.7501 186.6 45.6777 186.417 45.6336C186.241 45.5895 186.071 45.5675 185.907 45.5675C185.599 45.5675 185.369 45.621 185.218 45.728C185.073 45.8351 185 45.9768 185 46.153C185 46.2853 185.044 46.3955 185.133 46.4836C185.221 46.5718 185.356 46.6316 185.539 46.663L186.483 46.8425C186.892 46.918 187.201 47.0566 187.409 47.258C187.623 47.4595 187.73 47.7303 187.73 48.0703C187.73 48.5299 187.55 48.8919 187.191 49.1564C186.833 49.4145 186.354 49.5436 185.756 49.5436ZM190.783 49.5436C190.304 49.5436 189.889 49.446 189.536 49.2508C189.184 49.0556 188.91 48.7786 188.715 48.4197C188.519 48.0545 188.422 47.6264 188.422 47.1353C188.422 46.7638 188.475 46.4332 188.582 46.1436C188.696 45.8477 188.856 45.5958 189.064 45.3881C189.272 45.174 189.521 45.0134 189.81 44.9064C190.1 44.7931 190.424 44.7364 190.783 44.7364C191.262 44.7364 191.677 44.834 192.03 45.0292C192.382 45.2243 192.656 45.5014 192.851 45.8603C193.047 46.2192 193.144 46.6442 193.144 47.1353C193.144 47.5068 193.087 47.8405 192.974 48.1364C192.867 48.4323 192.71 48.6873 192.502 48.9014C192.294 49.1092 192.045 49.2697 191.756 49.383C191.466 49.4901 191.142 49.5436 190.783 49.5436ZM190.783 48.6464C191.016 48.6464 191.221 48.5897 191.397 48.4764C191.573 48.363 191.709 48.1962 191.803 47.9758C191.904 47.7492 191.954 47.469 191.954 47.1353C191.954 46.6316 191.847 46.2569 191.633 46.0114C191.419 45.7595 191.136 45.6336 190.783 45.6336C190.55 45.6336 190.345 45.6903 190.169 45.8036C189.993 45.9106 189.854 46.0775 189.754 46.3042C189.659 46.5245 189.612 46.8016 189.612 47.1353C189.612 47.6327 189.719 48.0105 189.933 48.2686C190.147 48.5205 190.43 48.6464 190.783 48.6464Z" fill="#38485C"/>
<path d="M124.243 60.5896C124.243 61.1971 124.132 61.705 123.911 62.1132C123.69 62.5191 123.369 62.8253 122.948 63.0319C122.53 63.236 122.022 63.3381 121.424 63.3381H119.96V57.9444H121.587C122.135 57.9444 122.607 58.0453 123.003 58.2469C123.399 58.4462 123.704 58.7425 123.918 59.136C124.135 59.5271 124.243 60.0116 124.243 60.5896ZM123.583 60.6117C123.583 60.1272 123.501 59.7275 123.339 59.4127C123.179 59.0979 122.943 58.8643 122.631 58.7118C122.321 58.5568 121.941 58.4794 121.491 58.4794H120.587V62.7994H121.351C122.093 62.7994 122.65 62.6162 123.022 62.2498C123.396 61.8833 123.583 61.3373 123.583 60.6117ZM126.907 59.2209C127.251 59.2209 127.546 59.2971 127.792 59.4496C128.038 59.6021 128.226 59.8161 128.356 60.0915C128.487 60.3646 128.552 60.6843 128.552 61.0507V61.4307H125.759C125.767 61.9054 125.885 62.267 126.113 62.5154C126.342 62.7638 126.664 62.888 127.08 62.888C127.336 62.888 127.562 62.8646 127.759 62.8179C127.956 62.7712 128.16 62.7023 128.371 62.6113V63.1499C128.167 63.2409 127.964 63.3073 127.762 63.3491C127.563 63.391 127.327 63.4119 127.054 63.4119C126.666 63.4119 126.326 63.3332 126.036 63.1757C125.748 63.0159 125.524 62.7822 125.364 62.4748C125.205 62.1674 125.125 61.7911 125.125 61.3459C125.125 60.9106 125.197 60.5343 125.342 60.217C125.49 59.8972 125.697 59.6513 125.962 59.4791C126.23 59.307 126.545 59.2209 126.907 59.2209ZM126.899 59.7226C126.572 59.7226 126.311 59.8296 126.117 60.0436C125.923 60.2576 125.807 60.5564 125.77 60.9401H127.91C127.908 60.699 127.869 60.4875 127.796 60.3055C127.724 60.1211 127.615 59.9784 127.467 59.8776C127.32 59.7743 127.13 59.7226 126.899 59.7226ZM132.208 62.2313C132.208 62.4896 132.143 62.7072 132.012 62.8843C131.885 63.0589 131.7 63.1905 131.459 63.279C131.221 63.3676 130.935 63.4119 130.603 63.4119C130.32 63.4119 130.076 63.3897 129.869 63.3455C129.662 63.3012 129.482 63.2385 129.327 63.1573V62.5928C129.492 62.674 129.688 62.7478 129.917 62.8142C130.146 62.8806 130.379 62.9138 130.618 62.9138C130.967 62.9138 131.221 62.8572 131.378 62.7441C131.535 62.631 131.614 62.4773 131.614 62.283C131.614 62.1723 131.582 62.0751 131.518 61.9915C131.457 61.9054 131.352 61.823 131.205 61.7443C131.057 61.6632 130.853 61.5746 130.592 61.4787C130.334 61.3803 130.11 61.2832 129.921 61.1873C129.734 61.0889 129.589 60.9696 129.485 60.8294C129.385 60.6892 129.334 60.5072 129.334 60.2834C129.334 59.9415 129.472 59.6796 129.747 59.4976C130.025 59.3131 130.389 59.2209 130.839 59.2209C131.083 59.2209 131.31 59.2455 131.522 59.2947C131.736 59.3414 131.935 59.4054 132.119 59.4865L131.913 59.9772C131.746 59.9059 131.567 59.8456 131.378 59.7964C131.189 59.7472 130.995 59.7226 130.799 59.7226C130.516 59.7226 130.298 59.7694 130.146 59.8628C129.996 59.9563 129.921 60.0842 129.921 60.2465C129.921 60.3719 129.955 60.4752 130.024 60.5564C130.095 60.6376 130.208 60.7138 130.363 60.7851C130.518 60.8564 130.722 60.9401 130.976 61.036C131.229 61.1295 131.448 61.2266 131.633 61.3274C131.817 61.4258 131.958 61.5463 132.057 61.689C132.158 61.8292 132.208 62.0099 132.208 62.2313ZM134.813 63.4119C134.449 63.4119 134.128 63.3368 133.85 63.1868C133.572 63.0368 133.355 62.8081 133.2 62.5006C133.045 62.1932 132.968 61.8058 132.968 61.3385C132.968 60.8491 133.049 60.4494 133.211 60.1395C133.376 59.8272 133.603 59.596 133.89 59.4459C134.178 59.2959 134.505 59.2209 134.872 59.2209C135.073 59.2209 135.268 59.2418 135.455 59.2836C135.644 59.323 135.799 59.3734 135.919 59.4349L135.735 59.9477C135.612 59.8985 135.469 59.8542 135.307 59.8149C135.147 59.7755 134.997 59.7558 134.857 59.7558C134.577 59.7558 134.343 59.8161 134.156 59.9366C133.971 60.0571 133.833 60.2342 133.739 60.4679C133.648 60.7015 133.603 60.9893 133.603 61.3311C133.603 61.6582 133.647 61.9374 133.735 62.1686C133.826 62.3998 133.96 62.5769 134.137 62.6998C134.317 62.8204 134.541 62.8806 134.809 62.8806C135.023 62.8806 135.216 62.8585 135.388 62.8142C135.56 62.7675 135.716 62.7134 135.857 62.6519V63.1979C135.721 63.2667 135.57 63.3196 135.403 63.3565C135.238 63.3934 135.041 63.4119 134.813 63.4119ZM138.653 59.2209C138.734 59.2209 138.819 59.2258 138.908 59.2356C138.996 59.243 139.075 59.2541 139.144 59.2689L139.066 59.837C139 59.8198 138.926 59.8062 138.845 59.7964C138.764 59.7866 138.688 59.7817 138.616 59.7817C138.454 59.7817 138.3 59.8149 138.155 59.8813C138.012 59.9452 137.887 60.0387 137.779 60.1616C137.671 60.2822 137.586 60.4285 137.524 60.6007C137.463 60.7704 137.432 60.9597 137.432 61.1688V63.3381H136.816V59.2947H137.325L137.391 60.0399H137.417C137.501 59.8899 137.602 59.7534 137.72 59.6304C137.838 59.505 137.974 59.4054 138.129 59.3316C138.287 59.2578 138.461 59.2209 138.653 59.2209ZM140.52 59.2947V63.3381H139.907V59.2947H140.52ZM140.221 57.7821C140.322 57.7821 140.408 57.8153 140.479 57.8817C140.553 57.9456 140.59 58.0465 140.59 58.1842C140.59 58.3195 140.553 58.4203 140.479 58.4867C140.408 58.5531 140.322 58.5863 140.221 58.5863C140.115 58.5863 140.027 58.5531 139.955 58.4867C139.887 58.4203 139.852 58.3195 139.852 58.1842C139.852 58.0465 139.887 57.9456 139.955 57.8817C140.027 57.8153 140.115 57.7821 140.221 57.7821ZM143.718 59.2209C144.223 59.2209 144.625 59.3943 144.925 59.7411C145.225 60.0879 145.375 60.6093 145.375 61.3053C145.375 61.7652 145.306 62.1514 145.168 62.4637C145.031 62.7761 144.836 63.0122 144.585 63.1721C144.337 63.3319 144.043 63.4119 143.704 63.4119C143.49 63.4119 143.302 63.3836 143.139 63.327C142.977 63.2704 142.838 63.1942 142.722 63.0983C142.607 63.0024 142.511 62.8978 142.435 62.7847H142.39C142.398 62.8806 142.406 62.9962 142.416 63.1315C142.428 63.2667 142.435 63.3848 142.435 63.4856V65.1458H141.818V59.2947H142.324L142.405 59.8923H142.435C142.513 59.7694 142.609 59.6574 142.722 59.5566C142.835 59.4533 142.973 59.3721 143.136 59.3131C143.3 59.2516 143.495 59.2209 143.718 59.2209ZM143.611 59.7374C143.331 59.7374 143.105 59.7915 142.933 59.8997C142.763 60.0079 142.639 60.1703 142.56 60.3867C142.481 60.6007 142.439 60.87 142.435 61.1946V61.3127C142.435 61.6546 142.471 61.9435 142.545 62.1797C142.621 62.4158 142.746 62.5953 142.918 62.7183C143.092 62.8413 143.326 62.9027 143.619 62.9027C143.87 62.9027 144.079 62.8351 144.246 62.6998C144.413 62.5646 144.537 62.3764 144.619 62.1354C144.702 61.8919 144.744 61.6127 144.744 61.2979C144.744 60.8208 144.651 60.442 144.464 60.1616C144.279 59.8788 143.995 59.7374 143.611 59.7374ZM148.064 63.4119C147.7 63.4119 147.379 63.3368 147.101 63.1868C146.824 63.0368 146.607 62.8081 146.452 62.5006C146.297 62.1932 146.22 61.8058 146.22 61.3385C146.22 60.8491 146.301 60.4494 146.463 60.1395C146.628 59.8272 146.854 59.596 147.142 59.4459C147.43 59.2959 147.757 59.2209 148.123 59.2209C148.325 59.2209 148.519 59.2418 148.706 59.2836C148.896 59.323 149.051 59.3734 149.171 59.4349L148.987 59.9477C148.864 59.8985 148.721 59.8542 148.559 59.8149C148.399 59.7755 148.249 59.7558 148.109 59.7558C147.828 59.7558 147.595 59.8161 147.408 59.9366C147.223 60.0571 147.084 60.2342 146.991 60.4679C146.9 60.7015 146.854 60.9893 146.854 61.3311C146.854 61.6582 146.899 61.9374 146.987 62.1686C147.078 62.3998 147.212 62.5769 147.389 62.6998C147.569 62.8204 147.793 62.8806 148.061 62.8806C148.275 62.8806 148.468 62.8585 148.64 62.8142C148.812 62.7675 148.968 62.7134 149.108 62.6519V63.1979C148.973 63.2667 148.822 63.3196 148.655 63.3565C148.49 63.3934 148.293 63.4119 148.064 63.4119ZM150.68 59.2947V63.3381H150.068V59.2947H150.68ZM150.381 57.7821C150.482 57.7821 150.568 57.8153 150.639 57.8817C150.713 57.9456 150.75 58.0465 150.75 58.1842C150.75 58.3195 150.713 58.4203 150.639 58.4867C150.568 58.5531 150.482 58.5863 150.381 58.5863C150.275 58.5863 150.187 58.5531 150.116 58.4867C150.047 58.4203 150.012 58.3195 150.012 58.1842C150.012 58.0465 150.047 57.9456 150.116 57.8817C150.187 57.8153 150.275 57.7821 150.381 57.7821ZM155.465 61.309C155.465 61.641 155.422 61.9374 155.336 62.1981C155.25 62.4588 155.126 62.6789 154.963 62.8585C154.801 63.038 154.604 63.1757 154.373 63.2717C154.144 63.3651 153.885 63.4119 153.595 63.4119C153.324 63.4119 153.076 63.3651 152.849 63.2717C152.625 63.1757 152.431 63.038 152.266 62.8585C152.104 62.6789 151.977 62.4588 151.886 62.1981C151.798 61.9374 151.754 61.641 151.754 61.309C151.754 60.8663 151.829 60.49 151.979 60.1801C152.129 59.8677 152.343 59.6304 152.621 59.4681C152.901 59.3033 153.234 59.2209 153.62 59.2209C153.989 59.2209 154.311 59.3033 154.587 59.4681C154.865 59.6329 155.08 59.8714 155.233 60.1838C155.387 60.4937 155.465 60.8687 155.465 61.309ZM152.388 61.309C152.388 61.6336 152.431 61.9153 152.517 62.1538C152.603 62.3924 152.736 62.5769 152.916 62.7072C153.095 62.8376 153.326 62.9027 153.609 62.9027C153.89 62.9027 154.12 62.8376 154.299 62.7072C154.481 62.5769 154.615 62.3924 154.701 62.1538C154.787 61.9153 154.83 61.6336 154.83 61.309C154.83 60.9868 154.787 60.7089 154.701 60.4752C154.615 60.2391 154.482 60.0571 154.303 59.9292C154.123 59.8013 153.891 59.7374 153.606 59.7374C153.185 59.7374 152.876 59.8763 152.68 60.1543C152.485 60.4322 152.388 60.8171 152.388 61.309ZM154.679 57.5497V57.6235C154.63 57.6948 154.562 57.7809 154.476 57.8817C154.393 57.9801 154.299 58.0846 154.196 58.1953C154.093 58.3035 153.988 58.4068 153.882 58.5052C153.779 58.6036 153.683 58.6884 153.595 58.7597H153.185V58.6712C153.264 58.5777 153.35 58.4658 153.443 58.3355C153.537 58.2027 153.628 58.0674 153.716 57.9297C153.805 57.7895 153.879 57.6628 153.938 57.5497H154.679ZM158.438 59.2209C158.918 59.2209 159.281 59.3389 159.527 59.5751C159.773 59.8087 159.896 60.185 159.896 60.704V63.3381H159.291V60.7445C159.291 60.4076 159.213 60.1555 159.058 59.9883C158.906 59.821 158.671 59.7374 158.354 59.7374C157.906 59.7374 157.591 59.864 157.409 60.1174C157.227 60.3707 157.136 60.7384 157.136 61.2205V63.3381H156.524V59.2947H157.018L157.11 59.8776H157.144C157.23 59.7349 157.339 59.6156 157.472 59.5197C157.605 59.4213 157.753 59.3476 157.918 59.2984C158.083 59.2467 158.256 59.2209 158.438 59.2209ZM164.559 63.4119C164.047 63.4119 163.642 63.2372 163.341 62.888C163.044 62.5387 162.895 62.0198 162.895 61.3311C162.895 60.6351 163.048 60.11 163.353 59.7558C163.658 59.3992 164.063 59.2209 164.57 59.2209C164.784 59.2209 164.971 59.2492 165.131 59.3057C165.291 59.3623 165.428 59.4386 165.544 59.5345C165.66 59.6279 165.757 59.7349 165.835 59.8554H165.88C165.87 59.7792 165.86 59.6747 165.85 59.5419C165.84 59.409 165.835 59.3008 165.835 59.2172V57.5976H166.448V63.3381H165.953L165.861 62.7626H165.835C165.759 62.8831 165.662 62.9925 165.544 63.0909C165.428 63.1893 165.289 63.268 165.127 63.327C164.967 63.3836 164.778 63.4119 164.559 63.4119ZM164.655 62.9027C165.088 62.9027 165.394 62.7798 165.573 62.5338C165.753 62.2879 165.843 61.9226 165.843 61.4381V61.3274C165.843 60.8134 165.757 60.4187 165.585 60.1432C165.415 59.8677 165.105 59.73 164.655 59.73C164.279 59.73 163.997 59.8751 163.81 60.1653C163.623 60.4531 163.53 60.8466 163.53 61.3459C163.53 61.8427 163.622 62.2264 163.806 62.4969C163.993 62.7675 164.276 62.9027 164.655 62.9027ZM169.303 59.2209C169.648 59.2209 169.943 59.2971 170.189 59.4496C170.435 59.6021 170.623 59.8161 170.753 60.0915C170.883 60.3646 170.949 60.6843 170.949 61.0507V61.4307H168.156C168.163 61.9054 168.281 62.267 168.51 62.5154C168.739 62.7638 169.061 62.888 169.477 62.888C169.732 62.888 169.959 62.8646 170.155 62.8179C170.352 62.7712 170.556 62.7023 170.768 62.6113V63.1499C170.564 63.2409 170.361 63.3073 170.159 63.3491C169.96 63.391 169.724 63.4119 169.451 63.4119C169.062 63.4119 168.723 63.3332 168.433 63.1757C168.145 63.0159 167.921 62.7822 167.761 62.4748C167.601 62.1674 167.521 61.7911 167.521 61.3459C167.521 60.9106 167.594 60.5343 167.739 60.217C167.887 59.8972 168.093 59.6513 168.359 59.4791C168.627 59.307 168.942 59.2209 169.303 59.2209ZM169.296 59.7226C168.969 59.7226 168.708 59.8296 168.514 60.0436C168.319 60.2576 168.204 60.5564 168.167 60.9401H170.307C170.304 60.699 170.266 60.4875 170.192 60.3055C170.121 60.1211 170.012 59.9784 169.864 59.8776C169.716 59.7743 169.527 59.7226 169.296 59.7226ZM172.605 63.3381H171.989V57.5976H172.605V63.3381ZM177.375 59.2283C177.857 59.2283 178.215 59.3365 178.449 59.5529C178.683 59.7694 178.799 60.1149 178.799 60.5896V63.3381H178.353L178.235 62.7404H178.205C178.092 62.888 177.974 63.0122 177.851 63.113C177.728 63.2114 177.586 63.2864 177.423 63.3381C177.263 63.3873 177.067 63.4119 176.833 63.4119C176.587 63.4119 176.368 63.3688 176.176 63.2827C175.987 63.1967 175.837 63.0663 175.726 62.8917C175.618 62.7171 175.564 62.4957 175.564 62.2276C175.564 61.8243 175.724 61.5144 176.043 61.2979C176.363 61.0815 176.85 60.9634 177.504 60.9438L178.202 60.9142V60.6671C178.202 60.3178 178.127 60.0731 177.977 59.9329C177.827 59.7927 177.615 59.7226 177.342 59.7226C177.131 59.7226 176.929 59.7534 176.737 59.8149C176.545 59.8763 176.363 59.9489 176.191 60.0325L176.003 59.5677C176.185 59.4742 176.394 59.3943 176.63 59.3279C176.866 59.2615 177.115 59.2283 177.375 59.2283ZM178.194 61.3459L177.578 61.3717C177.074 61.3914 176.719 61.4738 176.512 61.6189C176.305 61.764 176.202 61.9694 176.202 62.235C176.202 62.4662 176.272 62.6371 176.412 62.7478C176.553 62.8585 176.738 62.9138 176.969 62.9138C177.329 62.9138 177.622 62.8142 177.851 62.615C178.08 62.4158 178.194 62.1169 178.194 61.7185V61.3459ZM181.681 63.4119C181.317 63.4119 180.996 63.3368 180.718 63.1868C180.44 63.0368 180.223 62.8081 180.068 62.5006C179.913 62.1932 179.836 61.8058 179.836 61.3385C179.836 60.8491 179.917 60.4494 180.08 60.1395C180.244 59.8272 180.471 59.596 180.758 59.4459C181.046 59.2959 181.373 59.2209 181.74 59.2209C181.941 59.2209 182.136 59.2418 182.323 59.2836C182.512 59.323 182.667 59.3734 182.787 59.4349L182.603 59.9477C182.48 59.8985 182.337 59.8542 182.175 59.8149C182.015 59.7755 181.865 59.7558 181.725 59.7558C181.445 59.7558 181.211 59.8161 181.024 59.9366C180.839 60.0571 180.701 60.2342 180.607 60.4679C180.516 60.7015 180.471 60.9893 180.471 61.3311C180.471 61.6582 180.515 61.9374 180.603 62.1686C180.694 62.3998 180.828 62.5769 181.006 62.6998C181.185 62.8204 181.409 62.8806 181.677 62.8806C181.891 62.8806 182.084 62.8585 182.256 62.8142C182.428 62.7675 182.584 62.7134 182.725 62.6519V63.1979C182.589 63.2667 182.438 63.3196 182.271 63.3565C182.106 63.3934 181.909 63.4119 181.681 63.4119ZM185.303 63.4119C184.939 63.4119 184.618 63.3368 184.341 63.1868C184.063 63.0368 183.846 62.8081 183.691 62.5006C183.536 62.1932 183.459 61.8058 183.459 61.3385C183.459 60.8491 183.54 60.4494 183.702 60.1395C183.867 59.8272 184.093 59.596 184.381 59.4459C184.669 59.2959 184.996 59.2209 185.362 59.2209C185.564 59.2209 185.758 59.2418 185.945 59.2836C186.135 59.323 186.29 59.3734 186.41 59.4349L186.226 59.9477C186.103 59.8985 185.96 59.8542 185.798 59.8149C185.638 59.7755 185.488 59.7558 185.348 59.7558C185.067 59.7558 184.834 59.8161 184.647 59.9366C184.462 60.0571 184.323 60.2342 184.23 60.4679C184.139 60.7015 184.093 60.9893 184.093 61.3311C184.093 61.6582 184.138 61.9374 184.226 62.1686C184.317 62.3998 184.451 62.5769 184.628 62.6998C184.808 62.8204 185.032 62.8806 185.3 62.8806C185.514 62.8806 185.707 62.8585 185.879 62.8142C186.051 62.7675 186.207 62.7134 186.348 62.6519V63.1979C186.212 63.2667 186.061 63.3196 185.894 63.3565C185.729 63.3934 185.532 63.4119 185.303 63.4119ZM188.864 59.2209C189.208 59.2209 189.503 59.2971 189.749 59.4496C189.995 59.6021 190.183 59.8161 190.313 60.0915C190.444 60.3646 190.509 60.6843 190.509 61.0507V61.4307H187.716C187.724 61.9054 187.842 62.267 188.07 62.5154C188.299 62.7638 188.621 62.888 189.037 62.888C189.293 62.888 189.519 62.8646 189.716 62.8179C189.913 62.7712 190.117 62.7023 190.328 62.6113V63.1499C190.124 63.2409 189.921 63.3073 189.719 63.3491C189.52 63.391 189.284 63.4119 189.011 63.4119C188.623 63.4119 188.283 63.3332 187.993 63.1757C187.705 63.0159 187.481 62.7822 187.321 62.4748C187.162 62.1674 187.082 61.7911 187.082 61.3459C187.082 60.9106 187.154 60.5343 187.299 60.217C187.447 59.8972 187.654 59.6513 187.919 59.4791C188.187 59.307 188.502 59.2209 188.864 59.2209ZM188.856 59.7226C188.529 59.7226 188.268 59.8296 188.074 60.0436C187.88 60.2576 187.764 60.5564 187.727 60.9401H189.867C189.865 60.699 189.826 60.4875 189.753 60.3055C189.681 60.1211 189.572 59.9784 189.424 59.8776C189.277 59.7743 189.087 59.7226 188.856 59.7226ZM194.165 62.2313C194.165 62.4896 194.1 62.7072 193.969 62.8843C193.842 63.0589 193.657 63.1905 193.416 63.279C193.178 63.3676 192.892 63.4119 192.56 63.4119C192.277 63.4119 192.033 63.3897 191.826 63.3455C191.619 63.3012 191.439 63.2385 191.284 63.1573V62.5928C191.448 62.674 191.645 62.7478 191.874 62.8142C192.103 62.8806 192.336 62.9138 192.575 62.9138C192.924 62.9138 193.178 62.8572 193.335 62.7441C193.492 62.631 193.571 62.4773 193.571 62.283C193.571 62.1723 193.539 62.0751 193.475 61.9915C193.414 61.9054 193.309 61.823 193.162 61.7443C193.014 61.6632 192.81 61.5746 192.549 61.4787C192.291 61.3803 192.067 61.2832 191.878 61.1873C191.691 61.0889 191.546 60.9696 191.442 60.8294C191.342 60.6892 191.291 60.5072 191.291 60.2834C191.291 59.9415 191.429 59.6796 191.704 59.4976C191.982 59.3131 192.346 59.2209 192.796 59.2209C193.04 59.2209 193.267 59.2455 193.479 59.2947C193.693 59.3414 193.892 59.4054 194.076 59.4865L193.87 59.9772C193.703 59.9059 193.524 59.8456 193.335 59.7964C193.146 59.7472 192.952 59.7226 192.756 59.7226C192.473 59.7226 192.255 59.7694 192.103 59.8628C191.953 59.9563 191.878 60.0842 191.878 60.2465C191.878 60.3719 191.912 60.4752 191.981 60.5564C192.052 60.6376 192.165 60.7138 192.32 60.7851C192.475 60.8564 192.679 60.9401 192.933 61.036C193.186 61.1295 193.405 61.2266 193.589 61.3274C193.774 61.4258 193.915 61.5463 194.014 61.689C194.115 61.8292 194.165 62.0099 194.165 62.2313ZM198.636 61.309C198.636 61.641 198.593 61.9374 198.507 62.1981C198.421 62.4588 198.297 62.6789 198.135 62.8585C197.972 63.038 197.776 63.1757 197.544 63.2717C197.316 63.3651 197.056 63.4119 196.766 63.4119C196.495 63.4119 196.247 63.3651 196.021 63.2717C195.797 63.1757 195.603 63.038 195.438 62.8585C195.275 62.6789 195.149 62.4588 195.058 62.1981C194.969 61.9374 194.925 61.641 194.925 61.309C194.925 60.8663 195 60.49 195.15 60.1801C195.3 59.8677 195.514 59.6304 195.792 59.4681C196.072 59.3033 196.406 59.2209 196.792 59.2209C197.161 59.2209 197.483 59.3033 197.758 59.4681C198.036 59.6329 198.251 59.8714 198.404 60.1838C198.559 60.4937 198.636 60.8687 198.636 61.309ZM195.56 61.309C195.56 61.6336 195.603 61.9153 195.689 62.1538C195.775 62.3924 195.908 62.5769 196.087 62.7072C196.267 62.8376 196.498 62.9027 196.781 62.9027C197.061 62.9027 197.291 62.8376 197.471 62.7072C197.653 62.5769 197.787 62.3924 197.873 62.1538C197.959 61.9153 198.002 61.6336 198.002 61.309C198.002 60.9868 197.959 60.7089 197.873 60.4752C197.787 60.2391 197.654 60.0571 197.474 59.9292C197.295 59.8013 197.062 59.7374 196.777 59.7374C196.356 59.7374 196.048 59.8763 195.851 60.1543C195.657 60.4322 195.56 60.8171 195.56 61.309Z" fill="#38485C"/>
<path d="M71.9998 87.3936C71.9998 85.3072 73.6911 83.6158 75.7775 83.6158H232.555C234.642 83.6158 236.333 85.3072 236.333 87.3936V114.505C236.333 116.591 234.642 118.282 232.555 118.282H75.7775C73.6911 118.282 71.9998 116.591 71.9998 114.505V87.3936Z" fill="white"/>
<path d="M87.454 103.949L86.7899 102.237H84.6281L83.9677 103.949H83.3331L85.4434 98.5334H86.0078L88.1033 103.949H87.454ZM86.6018 101.68L85.9709 99.9795C85.9562 99.9353 85.9316 99.8627 85.8971 99.7619C85.8652 99.661 85.832 99.5565 85.7975 99.4483C85.7631 99.3401 85.7348 99.2528 85.7127 99.1864C85.6881 99.2872 85.661 99.388 85.6315 99.4889C85.6045 99.5873 85.5774 99.6795 85.5504 99.7656C85.5233 99.8492 85.4999 99.9205 85.4803 99.9795L84.8383 101.68H86.6018ZM90.3796 104.023C90.0156 104.023 89.6946 103.948 89.4167 103.798C89.1388 103.648 88.9223 103.419 88.7674 103.112C88.6124 102.804 88.5349 102.417 88.5349 101.95C88.5349 101.46 88.6161 101.06 88.7784 100.751C88.9432 100.438 89.1695 100.207 89.4573 100.057C89.745 99.907 90.0721 99.832 90.4386 99.832C90.6403 99.832 90.8346 99.8529 91.0215 99.8947C91.2109 99.934 91.3658 99.9845 91.4863 100.046L91.3019 100.559C91.1789 100.51 91.0362 100.465 90.8739 100.426C90.7141 100.387 90.564 100.367 90.4238 100.367C90.1435 100.367 89.9098 100.427 89.7229 100.548C89.5384 100.668 89.3995 100.845 89.306 101.079C89.215 101.313 89.1695 101.6 89.1695 101.942C89.1695 102.269 89.2138 102.548 89.3023 102.78C89.3933 103.011 89.5274 103.188 89.7044 103.311C89.884 103.431 90.1078 103.492 90.3759 103.492C90.5899 103.492 90.7829 103.47 90.9551 103.425C91.1272 103.379 91.2834 103.324 91.4236 103.263V103.809C91.2883 103.878 91.1371 103.931 90.9698 103.968C90.8051 104.004 90.6083 104.023 90.3796 104.023ZM94.0024 104.023C93.6384 104.023 93.3174 103.948 93.0395 103.798C92.7616 103.648 92.5451 103.419 92.3902 103.112C92.2352 102.804 92.1578 102.417 92.1578 101.95C92.1578 101.46 92.2389 101.06 92.4013 100.751C92.566 100.438 92.7923 100.207 93.0801 100.057C93.3678 99.907 93.695 99.832 94.0614 99.832C94.2631 99.832 94.4574 99.8529 94.6443 99.8947C94.8337 99.934 94.9886 99.9845 95.1092 100.046L94.9247 100.559C94.8017 100.51 94.6591 100.465 94.4967 100.426C94.3369 100.387 94.1869 100.367 94.0467 100.367C93.7663 100.367 93.5326 100.427 93.3457 100.548C93.1612 100.668 93.0223 100.845 92.9288 101.079C92.8378 101.313 92.7923 101.6 92.7923 101.942C92.7923 102.269 92.8366 102.548 92.9251 102.78C93.0161 103.011 93.1502 103.188 93.3273 103.311C93.5068 103.431 93.7306 103.492 93.9987 103.492C94.2127 103.492 94.4057 103.47 94.5779 103.425C94.7501 103.379 94.9063 103.324 95.0464 103.263V103.809C94.9112 103.878 94.7599 103.931 94.5927 103.968C94.4279 104.004 94.2311 104.023 94.0024 104.023ZM97.5625 99.832C97.9068 99.832 98.202 99.9082 98.4479 100.061C98.6939 100.213 98.882 100.427 99.0124 100.703C99.1427 100.976 99.2079 101.295 99.2079 101.662V102.042H96.4151C96.4225 102.517 96.5406 102.878 96.7693 103.126C96.998 103.375 97.3202 103.499 97.7359 103.499C97.9917 103.499 98.218 103.476 98.4147 103.429C98.6115 103.382 98.8156 103.313 99.0271 103.222V103.761C98.823 103.852 98.6201 103.918 98.4184 103.96C98.2192 104.002 97.9831 104.023 97.7101 104.023C97.3215 104.023 96.9821 103.944 96.6918 103.787C96.4041 103.627 96.1803 103.393 96.0204 103.086C95.8605 102.778 95.7806 102.402 95.7806 101.957C95.7806 101.522 95.8532 101.145 95.9983 100.828C96.1458 100.508 96.3524 100.262 96.6181 100.09C96.8861 99.9181 97.201 99.832 97.5625 99.832ZM97.5551 100.334C97.228 100.334 96.9673 100.441 96.773 100.655C96.5787 100.869 96.4631 101.167 96.4262 101.551H98.566C98.5635 101.31 98.5254 101.099 98.4516 100.917C98.3803 100.732 98.2708 100.589 98.1233 100.489C97.9757 100.385 97.7863 100.334 97.5551 100.334ZM102.864 102.842C102.864 103.101 102.799 103.318 102.668 103.495C102.541 103.67 102.356 103.802 102.115 103.89C101.876 103.979 101.591 104.023 101.259 104.023C100.976 104.023 100.732 104.001 100.525 103.957C100.318 103.912 100.138 103.85 99.9826 103.768V103.204C100.147 103.285 100.344 103.359 100.573 103.425C100.802 103.492 101.035 103.525 101.274 103.525C101.623 103.525 101.876 103.468 102.034 103.355C102.191 103.242 102.27 103.088 102.27 102.894C102.27 102.783 102.238 102.686 102.174 102.603C102.113 102.517 102.008 102.434 101.86 102.355C101.713 102.274 101.509 102.186 101.248 102.09C100.99 101.991 100.766 101.894 100.577 101.798C100.39 101.7 100.245 101.581 100.141 101.44C100.04 101.3 99.99 101.118 99.99 100.894C99.99 100.553 100.128 100.291 100.403 100.109C100.681 99.9242 101.045 99.832 101.495 99.832C101.739 99.832 101.966 99.8566 102.178 99.9058C102.392 99.9525 102.591 100.016 102.775 100.098L102.569 100.588C102.402 100.517 102.223 100.457 102.034 100.407C101.844 100.358 101.651 100.334 101.455 100.334C101.172 100.334 100.954 100.38 100.802 100.474C100.652 100.567 100.577 100.695 100.577 100.858C100.577 100.983 100.611 101.086 100.68 101.167C100.751 101.249 100.864 101.325 101.019 101.396C101.174 101.468 101.378 101.551 101.632 101.647C101.885 101.741 102.104 101.838 102.288 101.939C102.473 102.037 102.614 102.157 102.713 102.3C102.814 102.44 102.864 102.621 102.864 102.842ZM107.335 101.92C107.335 102.252 107.292 102.548 107.206 102.809C107.12 103.07 106.996 103.29 106.834 103.47C106.671 103.649 106.474 103.787 106.243 103.883C106.015 103.976 105.755 104.023 105.465 104.023C105.194 104.023 104.946 103.976 104.72 103.883C104.496 103.787 104.301 103.649 104.137 103.47C103.974 103.29 103.848 103.07 103.757 102.809C103.668 102.548 103.624 102.252 103.624 101.92C103.624 101.477 103.699 101.101 103.849 100.791C103.999 100.479 104.213 100.241 104.491 100.079C104.771 99.9144 105.105 99.832 105.491 99.832C105.86 99.832 106.182 99.9144 106.457 100.079C106.735 100.244 106.95 100.483 107.103 100.795C107.258 101.105 107.335 101.48 107.335 101.92ZM104.258 101.92C104.258 102.245 104.301 102.526 104.388 102.765C104.474 103.003 104.606 103.188 104.786 103.318C104.966 103.449 105.197 103.514 105.48 103.514C105.76 103.514 105.99 103.449 106.169 103.318C106.351 103.188 106.486 103.003 106.572 102.765C106.658 102.526 106.701 102.245 106.701 101.92C106.701 101.598 106.658 101.32 106.572 101.086C106.486 100.85 106.353 100.668 106.173 100.54C105.994 100.412 105.761 100.348 105.476 100.348C105.055 100.348 104.747 100.487 104.55 100.765C104.356 101.043 104.258 101.428 104.258 101.92Z" fill="#38485C"/>
<path d="M217.916 98.118C217.732 98.3021 217.732 98.5996 217.916 98.7838L219.749 100.616L217.916 102.448C217.732 102.632 217.732 102.93 217.916 103.114C218.1 103.298 218.398 103.298 218.582 103.114L220.75 100.947C220.934 100.762 220.934 100.465 220.75 100.281L218.582 98.1132C218.403 97.9338 218.1 97.9338 217.916 98.118Z" fill="#38485C"/>
</svg>
