<svg width="344" height="145" viewBox="0 0 344 145" fill="none" xmlns="http://www.w3.org/2000/svg">
<rect x="0.973999" width="342.43" height="145" rx="8" fill="#E6EBF0"/>
<rect x="43.3911" width="28.8849" height="145" fill="#9EAAB8"/>
<rect x="89.1333" width="28.8849" height="145" fill="#9EAAB8"/>
<rect x="134.875" width="28.8849" height="145" fill="#9EAAB8"/>
<rect x="180.618" width="28.8849" height="145" fill="#9EAAB8"/>
<rect x="226.36" width="28.8849" height="145" fill="#9EAAB8"/>
<rect x="272.102" width="28.8849" height="145" fill="#9EAAB8"/>
<rect x="89.5311" y="26.4731" width="166.644" height="92.9414" rx="4.28513" fill="white"/>
<rect x="89.5311" y="26.4731" width="166.644" height="92.9414" rx="4.28513" stroke="#E6EBF0" stroke-width="0.952252"/>
<mask id="path-9-inside-1_6840_722" fill="white">
<path d="M90.0072 30.7582C90.0072 28.6546 91.7126 26.9492 93.8162 26.9492H251.89C253.994 26.9492 255.699 28.6546 255.699 30.7582V80.2753H90.0072V30.7582Z"/>
</mask>
<path d="M90.0072 30.7582C90.0072 28.6546 91.7126 26.9492 93.8162 26.9492H251.89C253.994 26.9492 255.699 28.6546 255.699 30.7582V80.2753H90.0072V30.7582Z" fill="white"/>
<path d="M90.0072 26.9492H255.699H90.0072ZM255.699 81.2276H90.0072V79.3231H255.699V81.2276ZM90.0072 80.2753V26.9492V80.2753ZM255.699 26.9492V80.2753V26.9492Z" fill="#E6EBF0" mask="url(#path-9-inside-1_6840_722)"/>
<rect x="101.434" y="38.3762" width="30.4721" height="30.4721" rx="3.80901" fill="#E6EBF0"/>
<path d="M116.67 47.2639C113.166 47.2639 110.322 50.108 110.322 53.6123C110.322 57.1166 113.166 59.9606 116.67 59.9606C120.175 59.9606 123.019 57.1166 123.019 53.6123C123.019 50.108 120.175 47.2639 116.67 47.2639ZM116.67 56.7864C116.321 56.7864 116.035 56.5008 116.035 56.1516V53.6123C116.035 53.2631 116.321 52.9774 116.67 52.9774C117.019 52.9774 117.305 53.2631 117.305 53.6123V56.1516C117.305 56.5008 117.019 56.7864 116.67 56.7864ZM117.305 51.7078H116.035V50.4381H117.305V51.7078Z" fill="#38485C"/>
<path d="M140.581 49.7362C140.385 49.7362 140.232 49.6822 140.124 49.5743C140.023 49.46 139.972 49.3045 139.972 49.1077V43.9655H138.115C137.95 43.9655 137.82 43.9211 137.725 43.8322C137.636 43.737 137.591 43.61 137.591 43.4513C137.591 43.2862 137.636 43.1624 137.725 43.0799C137.82 42.991 137.95 42.9466 138.115 42.9466H143.048C143.213 42.9466 143.34 42.991 143.429 43.0799C143.524 43.1624 143.571 43.2862 143.571 43.4513C143.571 43.61 143.524 43.737 143.429 43.8322C143.34 43.9211 143.213 43.9655 143.048 43.9655H141.191V49.1077C141.191 49.3045 141.14 49.46 141.038 49.5743C140.937 49.6822 140.784 49.7362 140.581 49.7362ZM145.264 49.7266C145.074 49.7266 144.928 49.6695 144.826 49.5552C144.725 49.441 144.674 49.2822 144.674 49.0791V45.5843C144.674 45.3748 144.725 45.2161 144.826 45.1082C144.928 44.9939 145.074 44.9368 145.264 44.9368C145.455 44.9368 145.601 44.9939 145.702 45.1082C145.81 45.2161 145.864 45.3748 145.864 45.5843V49.0791C145.864 49.2822 145.813 49.441 145.712 49.5552C145.61 49.6695 145.461 49.7266 145.264 49.7266ZM145.712 44.3274C145.648 44.4162 145.572 44.467 145.483 44.4797C145.394 44.4924 145.309 44.4765 145.226 44.4321C145.144 44.3877 145.083 44.3242 145.045 44.2417C145.014 44.1591 145.023 44.0671 145.074 43.9655L145.798 42.5466C145.855 42.426 145.931 42.3499 146.026 42.3181C146.121 42.28 146.22 42.2737 146.321 42.2991C146.423 42.3245 146.509 42.3721 146.578 42.4419C146.655 42.5117 146.699 42.5974 146.712 42.699C146.731 42.7942 146.705 42.8926 146.636 42.9942L145.712 44.3274ZM149.234 49.7552C148.821 49.7552 148.475 49.6854 148.196 49.5457C147.923 49.406 147.72 49.2029 147.587 48.9363C147.453 48.6633 147.387 48.3268 147.387 47.9269V45.8986H146.892C146.739 45.8986 146.622 45.8605 146.539 45.7843C146.457 45.7018 146.415 45.5907 146.415 45.451C146.415 45.305 146.457 45.1939 146.539 45.1177C146.622 45.0415 146.739 45.0035 146.892 45.0035H147.387V44.1369C147.387 43.9401 147.438 43.7909 147.539 43.6894C147.647 43.5878 147.796 43.537 147.987 43.537C148.177 43.537 148.323 43.5878 148.425 43.6894C148.526 43.7909 148.577 43.9401 148.577 44.1369V45.0035H149.586C149.739 45.0035 149.856 45.0415 149.939 45.1177C150.021 45.1939 150.063 45.305 150.063 45.451C150.063 45.5907 150.021 45.7018 149.939 45.7843C149.856 45.8605 149.739 45.8986 149.586 45.8986H148.577V47.8602C148.577 48.1649 148.644 48.3935 148.777 48.5458C148.91 48.6982 149.126 48.7744 149.425 48.7744C149.532 48.7744 149.628 48.7649 149.71 48.7458C149.793 48.7268 149.866 48.7141 149.929 48.7077C150.005 48.7014 150.069 48.7268 150.12 48.7839C150.17 48.8347 150.196 48.9426 150.196 49.1077C150.196 49.2346 150.174 49.3489 150.129 49.4505C150.091 49.5457 150.018 49.6124 149.91 49.6505C149.828 49.6758 149.72 49.6981 149.586 49.7171C149.453 49.7425 149.336 49.7552 149.234 49.7552ZM152.441 49.7552C152.054 49.7552 151.733 49.6854 151.479 49.5457C151.225 49.3997 151.035 49.1838 150.908 48.8982C150.787 48.6125 150.727 48.257 150.727 47.8316V45.5272C150.727 45.3241 150.778 45.1749 150.879 45.0796C150.981 44.9781 151.127 44.9273 151.318 44.9273C151.508 44.9273 151.654 44.9781 151.756 45.0796C151.863 45.1749 151.917 45.3241 151.917 45.5272V47.8507C151.917 48.1808 151.984 48.4252 152.117 48.5839C152.251 48.7426 152.463 48.822 152.755 48.822C153.073 48.822 153.333 48.7141 153.536 48.4982C153.739 48.276 153.841 47.984 153.841 47.6222V45.5272C153.841 45.3241 153.892 45.1749 153.993 45.0796C154.095 44.9781 154.241 44.9273 154.431 44.9273C154.622 44.9273 154.768 44.9781 154.869 45.0796C154.977 45.1749 155.031 45.3241 155.031 45.5272V49.1267C155.031 49.533 154.838 49.7362 154.45 49.7362C154.266 49.7362 154.123 49.6854 154.022 49.5838C153.92 49.4759 153.87 49.3235 153.87 49.1267V48.403L154.003 48.6887C153.87 49.0315 153.666 49.2949 153.393 49.479C153.127 49.6631 152.809 49.7552 152.441 49.7552ZM157.86 49.7552C157.334 49.7552 156.937 49.606 156.67 49.3076C156.404 49.0029 156.27 48.5585 156.27 47.9745V43.4703C156.27 43.2735 156.321 43.1243 156.423 43.0228C156.524 42.9212 156.67 42.8704 156.861 42.8704C157.051 42.8704 157.197 42.9212 157.299 43.0228C157.407 43.1243 157.461 43.2735 157.461 43.4703V47.9174C157.461 48.2094 157.521 48.4252 157.641 48.5649C157.768 48.7045 157.946 48.7744 158.175 48.7744C158.225 48.7744 158.273 48.7744 158.318 48.7744C158.362 48.768 158.406 48.7617 158.451 48.7553C158.54 48.7426 158.6 48.768 158.632 48.8315C158.664 48.8886 158.679 49.0093 158.679 49.1934C158.679 49.3521 158.648 49.4759 158.584 49.5647C158.521 49.6536 158.416 49.7076 158.27 49.7266C158.206 49.733 158.14 49.7393 158.07 49.7457C158 49.752 157.93 49.7552 157.86 49.7552ZM161.388 49.7552C160.906 49.7552 160.487 49.6568 160.131 49.46C159.776 49.2632 159.499 48.9839 159.303 48.622C159.106 48.2538 159.007 47.8221 159.007 47.327C159.007 46.9524 159.061 46.6191 159.169 46.3271C159.284 46.0287 159.446 45.7748 159.655 45.5653C159.864 45.3494 160.115 45.1876 160.407 45.0796C160.699 44.9654 161.026 44.9082 161.388 44.9082C161.871 44.9082 162.29 45.0066 162.645 45.2034C163.001 45.4002 163.277 45.6796 163.474 46.0414C163.67 46.4033 163.769 46.8318 163.769 47.327C163.769 47.7015 163.712 48.038 163.597 48.3363C163.489 48.6347 163.331 48.8918 163.121 49.1077C162.912 49.3172 162.661 49.479 162.369 49.5933C162.077 49.7012 161.75 49.7552 161.388 49.7552ZM161.388 48.8506C161.623 48.8506 161.829 48.7934 162.007 48.6792C162.185 48.5649 162.321 48.3967 162.417 48.1745C162.518 47.9459 162.569 47.6634 162.569 47.327C162.569 46.8191 162.461 46.4414 162.245 46.1938C162.029 45.9398 161.744 45.8129 161.388 45.8129C161.153 45.8129 160.947 45.87 160.769 45.9843C160.591 46.0922 160.452 46.2604 160.35 46.489C160.255 46.7112 160.207 46.9905 160.207 47.327C160.207 47.8285 160.315 48.2094 160.531 48.4697C160.747 48.7236 161.033 48.8506 161.388 48.8506ZM169.127 49.7552C168.72 49.7552 168.362 49.6568 168.051 49.46C167.746 49.2632 167.508 48.9839 167.336 48.622C167.165 48.2538 167.079 47.8221 167.079 47.327C167.079 46.8254 167.165 46.3969 167.336 46.0414C167.508 45.6796 167.746 45.4002 168.051 45.2034C168.362 45.0066 168.72 44.9082 169.127 44.9082C169.514 44.9082 169.85 45.0035 170.136 45.1939C170.428 45.3844 170.625 45.6351 170.726 45.9462H170.622V43.4703C170.622 43.2735 170.672 43.1243 170.774 43.0228C170.876 42.9212 171.022 42.8704 171.212 42.8704C171.403 42.8704 171.549 42.9212 171.65 43.0228C171.758 43.1243 171.812 43.2735 171.812 43.4703V49.1267C171.812 49.3235 171.761 49.4759 171.66 49.5838C171.558 49.6854 171.412 49.7362 171.222 49.7362C171.031 49.7362 170.885 49.6854 170.784 49.5838C170.682 49.4759 170.631 49.3235 170.631 49.1267V48.384L170.736 48.6696C170.641 48.9997 170.447 49.2632 170.155 49.46C169.863 49.6568 169.52 49.7552 169.127 49.7552ZM169.46 48.8506C169.695 48.8506 169.901 48.7934 170.079 48.6792C170.257 48.5649 170.393 48.3967 170.488 48.1745C170.59 47.9459 170.641 47.6634 170.641 47.327C170.641 46.8191 170.533 46.4414 170.317 46.1938C170.101 45.9398 169.815 45.8129 169.46 45.8129C169.225 45.8129 169.019 45.87 168.841 45.9843C168.663 46.0922 168.524 46.2604 168.422 46.489C168.327 46.7112 168.279 46.9905 168.279 47.327C168.279 47.8285 168.387 48.2094 168.603 48.4697C168.819 48.7236 169.104 48.8506 169.46 48.8506ZM175.341 49.7552C174.814 49.7552 174.36 49.6568 173.979 49.46C173.599 49.2632 173.303 48.9839 173.094 48.622C172.891 48.2602 172.789 47.8316 172.789 47.3365C172.789 46.854 172.887 46.4318 173.084 46.07C173.287 45.7081 173.564 45.4256 173.913 45.2225C174.268 45.013 174.671 44.9082 175.122 44.9082C175.452 44.9082 175.747 44.9622 176.008 45.0701C176.274 45.178 176.5 45.3336 176.684 45.5367C176.874 45.7399 177.017 45.9875 177.112 46.2795C177.214 46.5652 177.265 46.8889 177.265 47.2508C177.265 47.365 177.223 47.4539 177.141 47.5174C177.065 47.5745 176.954 47.6031 176.808 47.6031H173.751V46.9175H176.427L176.274 47.0603C176.274 46.7683 176.23 46.5239 176.141 46.3271C176.058 46.1303 175.935 45.9811 175.77 45.8795C175.611 45.7716 175.411 45.7176 175.17 45.7176C174.903 45.7176 174.675 45.7811 174.484 45.9081C174.3 46.0287 174.157 46.2033 174.056 46.4318C173.96 46.654 173.913 46.9207 173.913 47.2317V47.2984C173.913 47.819 174.033 48.2094 174.275 48.4697C174.522 48.7236 174.884 48.8506 175.36 48.8506C175.525 48.8506 175.709 48.8315 175.912 48.7934C176.122 48.749 176.319 48.676 176.503 48.5744C176.636 48.4982 176.754 48.4665 176.855 48.4792C176.957 48.4855 177.036 48.5204 177.093 48.5839C177.157 48.6474 177.195 48.7268 177.208 48.822C177.22 48.9109 177.201 49.0029 177.15 49.0981C177.106 49.1934 177.027 49.2759 176.912 49.3457C176.69 49.4854 176.433 49.5901 176.141 49.66C175.855 49.7235 175.589 49.7552 175.341 49.7552ZM179.798 49.7552C179.271 49.7552 178.874 49.606 178.607 49.3076C178.341 49.0029 178.207 48.5585 178.207 47.9745V43.4703C178.207 43.2735 178.258 43.1243 178.36 43.0228C178.461 42.9212 178.607 42.8704 178.798 42.8704C178.988 42.8704 179.134 42.9212 179.236 43.0228C179.344 43.1243 179.398 43.2735 179.398 43.4703V47.9174C179.398 48.2094 179.458 48.4252 179.579 48.5649C179.706 48.7045 179.883 48.7744 180.112 48.7744C180.163 48.7744 180.21 48.7744 180.255 48.7744C180.299 48.768 180.344 48.7617 180.388 48.7553C180.477 48.7426 180.537 48.768 180.569 48.8315C180.601 48.8886 180.617 49.0093 180.617 49.1934C180.617 49.3521 180.585 49.4759 180.521 49.5647C180.458 49.6536 180.353 49.7076 180.207 49.7266C180.144 49.733 180.077 49.7393 180.007 49.7457C179.937 49.752 179.867 49.7552 179.798 49.7552ZM185.367 49.7552C185.03 49.7552 184.729 49.6917 184.462 49.5647C184.202 49.4314 183.995 49.2537 183.843 49.0315C183.697 48.8093 183.624 48.5585 183.624 48.2792C183.624 47.9364 183.713 47.6666 183.891 47.4698C184.068 47.2666 184.357 47.1206 184.757 47.0318C185.157 46.9429 185.693 46.8984 186.366 46.8984H186.843V47.5841H186.376C185.982 47.5841 185.668 47.6031 185.433 47.6412C185.198 47.6793 185.03 47.7459 184.929 47.8412C184.833 47.93 184.786 48.057 184.786 48.2221C184.786 48.4316 184.859 48.603 185.005 48.7363C185.151 48.8696 185.354 48.9363 185.614 48.9363C185.824 48.9363 186.008 48.8886 186.166 48.7934C186.332 48.6919 186.462 48.5554 186.557 48.384C186.652 48.2125 186.7 48.0158 186.7 47.7936V46.6985C186.7 46.3811 186.63 46.1525 186.49 46.0128C186.351 45.8732 186.116 45.8034 185.786 45.8034C185.601 45.8034 185.401 45.8256 185.186 45.87C184.976 45.9144 184.754 45.9906 184.519 46.0985C184.398 46.1557 184.291 46.1716 184.195 46.1462C184.106 46.1208 184.037 46.07 183.986 45.9938C183.935 45.9113 183.91 45.8224 183.91 45.7272C183.91 45.6319 183.935 45.5399 183.986 45.451C184.037 45.3558 184.122 45.286 184.243 45.2415C184.535 45.1209 184.814 45.0352 185.081 44.9844C185.354 44.9336 185.601 44.9082 185.824 44.9082C186.281 44.9082 186.655 44.9781 186.947 45.1177C187.246 45.2574 187.468 45.4701 187.614 45.7557C187.76 46.0351 187.833 46.3969 187.833 46.8413V49.1267C187.833 49.3235 187.785 49.4759 187.69 49.5838C187.595 49.6854 187.458 49.7362 187.281 49.7362C187.103 49.7362 186.963 49.6854 186.862 49.5838C186.766 49.4759 186.719 49.3235 186.719 49.1267V48.6696H186.795C186.75 48.8918 186.662 49.0854 186.528 49.2505C186.401 49.4092 186.239 49.533 186.043 49.6219C185.846 49.7108 185.62 49.7552 185.367 49.7552ZM191.193 49.7552C190.704 49.7552 190.279 49.6568 189.917 49.46C189.555 49.2569 189.276 48.9712 189.079 48.603C188.882 48.2348 188.784 47.8031 188.784 47.3079C188.784 46.9334 188.838 46.6001 188.946 46.308C189.06 46.0097 189.222 45.7589 189.431 45.5558C189.641 45.3463 189.895 45.1876 190.193 45.0796C190.492 44.9654 190.825 44.9082 191.193 44.9082C191.403 44.9082 191.628 44.9368 191.869 44.9939C192.117 45.0511 192.349 45.1463 192.564 45.2796C192.666 45.3431 192.733 45.4193 192.764 45.5082C192.796 45.597 192.802 45.6891 192.783 45.7843C192.764 45.8732 192.723 45.9525 192.66 46.0224C192.602 46.0859 192.529 46.1271 192.441 46.1462C192.352 46.1589 192.253 46.1366 192.145 46.0795C192.006 45.997 191.863 45.9367 191.717 45.8986C191.571 45.8541 191.431 45.8319 191.298 45.8319C191.088 45.8319 190.904 45.8668 190.746 45.9367C190.587 46.0002 190.45 46.0954 190.336 46.2223C190.228 46.343 190.146 46.4953 190.089 46.6794C190.031 46.8635 190.003 47.0762 190.003 47.3174C190.003 47.7872 190.114 48.1586 190.336 48.4316C190.565 48.6982 190.885 48.8315 191.298 48.8315C191.431 48.8315 191.568 48.8125 191.707 48.7744C191.853 48.7363 191.999 48.676 192.145 48.5935C192.253 48.5363 192.349 48.5173 192.431 48.5363C192.52 48.5554 192.593 48.5998 192.65 48.6696C192.707 48.7331 192.742 48.8125 192.755 48.9077C192.768 48.9966 192.755 49.0854 192.717 49.1743C192.685 49.2632 192.622 49.3362 192.526 49.3933C192.317 49.5203 192.095 49.6124 191.86 49.6695C191.625 49.7266 191.403 49.7552 191.193 49.7552ZM195.592 49.7552C195.103 49.7552 194.678 49.6568 194.316 49.46C193.954 49.2569 193.675 48.9712 193.478 48.603C193.281 48.2348 193.183 47.8031 193.183 47.3079C193.183 46.9334 193.236 46.6001 193.344 46.308C193.459 46.0097 193.621 45.7589 193.83 45.5558C194.04 45.3463 194.293 45.1876 194.592 45.0796C194.89 44.9654 195.224 44.9082 195.592 44.9082C195.801 44.9082 196.027 44.9368 196.268 44.9939C196.515 45.0511 196.747 45.1463 196.963 45.2796C197.065 45.3431 197.131 45.4193 197.163 45.5082C197.195 45.597 197.201 45.6891 197.182 45.7843C197.163 45.8732 197.122 45.9525 197.058 46.0224C197.001 46.0859 196.928 46.1271 196.839 46.1462C196.75 46.1589 196.652 46.1366 196.544 46.0795C196.404 45.997 196.261 45.9367 196.115 45.8986C195.969 45.8541 195.83 45.8319 195.696 45.8319C195.487 45.8319 195.303 45.8668 195.144 45.9367C194.985 46.0002 194.849 46.0954 194.735 46.2223C194.627 46.343 194.544 46.4953 194.487 46.6794C194.43 46.8635 194.401 47.0762 194.401 47.3174C194.401 47.7872 194.513 48.1586 194.735 48.4316C194.963 48.6982 195.284 48.8315 195.696 48.8315C195.83 48.8315 195.966 48.8125 196.106 48.7744C196.252 48.7363 196.398 48.676 196.544 48.5935C196.652 48.5363 196.747 48.5173 196.83 48.5363C196.919 48.5554 196.992 48.5998 197.049 48.6696C197.106 48.7331 197.141 48.8125 197.153 48.9077C197.166 48.9966 197.153 49.0854 197.115 49.1743C197.084 49.2632 197.02 49.3362 196.925 49.3933C196.715 49.5203 196.493 49.6124 196.258 49.6695C196.023 49.7266 195.801 49.7552 195.592 49.7552ZM200.133 49.7552C199.606 49.7552 199.152 49.6568 198.771 49.46C198.391 49.2632 198.095 48.9839 197.886 48.622C197.683 48.2602 197.581 47.8316 197.581 47.3365C197.581 46.854 197.68 46.4318 197.876 46.07C198.079 45.7081 198.356 45.4256 198.705 45.2225C199.06 45.013 199.463 44.9082 199.914 44.9082C200.244 44.9082 200.539 44.9622 200.8 45.0701C201.066 45.178 201.292 45.3336 201.476 45.5367C201.666 45.7399 201.809 45.9875 201.904 46.2795C202.006 46.5652 202.057 46.8889 202.057 47.2508C202.057 47.365 202.015 47.4539 201.933 47.5174C201.857 47.5745 201.746 47.6031 201.6 47.6031H198.543V46.9175H201.219L201.066 47.0603C201.066 46.7683 201.022 46.5239 200.933 46.3271C200.851 46.1303 200.727 45.9811 200.562 45.8795C200.403 45.7716 200.203 45.7176 199.962 45.7176C199.695 45.7176 199.467 45.7811 199.276 45.9081C199.092 46.0287 198.949 46.2033 198.848 46.4318C198.752 46.654 198.705 46.9207 198.705 47.2317V47.2984C198.705 47.819 198.825 48.2094 199.067 48.4697C199.314 48.7236 199.676 48.8506 200.152 48.8506C200.317 48.8506 200.501 48.8315 200.705 48.7934C200.914 48.749 201.111 48.676 201.295 48.5744C201.428 48.4982 201.546 48.4665 201.647 48.4792C201.749 48.4855 201.828 48.5204 201.885 48.5839C201.949 48.6474 201.987 48.7268 202 48.822C202.012 48.9109 201.993 49.0029 201.942 49.0981C201.898 49.1934 201.819 49.2759 201.704 49.3457C201.482 49.4854 201.225 49.5901 200.933 49.66C200.647 49.7235 200.381 49.7552 200.133 49.7552ZM204.704 49.7552C204.431 49.7552 204.142 49.7266 203.837 49.6695C203.533 49.6124 203.26 49.514 203.018 49.3743C202.917 49.3108 202.844 49.2378 202.799 49.1553C202.761 49.0664 202.745 48.9807 202.752 48.8982C202.764 48.8093 202.796 48.7331 202.847 48.6696C202.904 48.6061 202.974 48.5649 203.057 48.5458C203.145 48.5268 203.241 48.5427 203.342 48.5935C203.596 48.7141 203.834 48.7998 204.056 48.8506C204.279 48.895 204.498 48.9172 204.713 48.9172C205.018 48.9172 205.244 48.8664 205.39 48.7649C205.542 48.6569 205.618 48.5173 205.618 48.3459C205.618 48.1999 205.567 48.0888 205.466 48.0126C205.37 47.93 205.224 47.8697 205.028 47.8316L204.075 47.6507C203.682 47.5745 203.38 47.4317 203.171 47.2222C202.968 47.0064 202.866 46.7302 202.866 46.3937C202.866 46.089 202.949 45.8256 203.114 45.6034C203.285 45.3812 203.52 45.2098 203.818 45.0892C204.117 44.9685 204.459 44.9082 204.847 44.9082C205.126 44.9082 205.386 44.94 205.628 45.0035C205.875 45.0606 206.113 45.1526 206.342 45.2796C206.437 45.3304 206.5 45.3971 206.532 45.4796C206.57 45.5621 206.58 45.6478 206.561 45.7367C206.542 45.8192 206.504 45.8954 206.447 45.9652C206.389 46.0287 206.316 46.07 206.228 46.089C206.145 46.1017 206.05 46.0827 205.942 46.0319C205.745 45.9303 205.555 45.8573 205.37 45.8129C205.193 45.7684 205.021 45.7462 204.856 45.7462C204.545 45.7462 204.313 45.8002 204.161 45.9081C204.015 46.016 203.942 46.1589 203.942 46.3366C203.942 46.4699 203.987 46.581 204.075 46.6699C204.164 46.7588 204.301 46.8191 204.485 46.8508L205.437 47.0318C205.85 47.1079 206.161 47.2476 206.37 47.4507C206.586 47.6539 206.694 47.9269 206.694 48.2697C206.694 48.7331 206.513 49.0981 206.151 49.3648C205.789 49.6251 205.307 49.7552 204.704 49.7552ZM209.773 49.7552C209.29 49.7552 208.871 49.6568 208.516 49.46C208.16 49.2632 207.884 48.9839 207.687 48.622C207.49 48.2538 207.392 47.8221 207.392 47.327C207.392 46.9524 207.446 46.6191 207.554 46.3271C207.668 46.0287 207.83 45.7748 208.039 45.5653C208.249 45.3494 208.5 45.1876 208.792 45.0796C209.084 44.9654 209.411 44.9082 209.773 44.9082C210.255 44.9082 210.674 45.0066 211.03 45.2034C211.385 45.4002 211.661 45.6796 211.858 46.0414C212.055 46.4033 212.153 46.8318 212.153 47.327C212.153 47.7015 212.096 48.038 211.982 48.3363C211.874 48.6347 211.715 48.8918 211.506 49.1077C211.296 49.3172 211.045 49.479 210.753 49.5933C210.461 49.7012 210.134 49.7552 209.773 49.7552ZM209.773 48.8506C210.007 48.8506 210.214 48.7934 210.392 48.6792C210.569 48.5649 210.706 48.3967 210.801 48.1745C210.903 47.9459 210.953 47.6634 210.953 47.327C210.953 46.8191 210.845 46.4414 210.63 46.1938C210.414 45.9398 210.128 45.8129 209.773 45.8129C209.538 45.8129 209.331 45.87 209.154 45.9843C208.976 46.0922 208.836 46.2604 208.735 46.489C208.639 46.7112 208.592 46.9905 208.592 47.327C208.592 47.8285 208.7 48.2094 208.916 48.4697C209.131 48.7236 209.417 48.8506 209.773 48.8506Z" fill="#38485C"/>
<path d="M142.682 60.7933C142.682 61.4058 142.571 61.9179 142.348 62.3296C142.124 62.7387 141.801 63.0475 141.377 63.2558C140.955 63.4616 140.443 63.5645 139.84 63.5645H138.364V58.1263H140.004C140.557 58.1263 141.033 58.2279 141.433 58.4313C141.832 58.6321 142.139 58.931 142.355 59.3277C142.573 59.722 142.682 60.2106 142.682 60.7933ZM142.017 60.8156C142.017 60.3271 141.935 59.9241 141.771 59.6067C141.61 59.2893 141.372 59.0537 141.057 58.9C140.744 58.7437 140.361 58.6656 139.907 58.6656H138.996V63.0214H139.766C140.515 63.0214 141.077 62.8367 141.451 62.4672C141.828 62.0977 142.017 61.5472 142.017 60.8156ZM145.368 59.4133C145.715 59.4133 146.013 59.4902 146.261 59.6439C146.509 59.7977 146.698 60.0134 146.83 60.2911C146.961 60.5664 147.027 60.8888 147.027 61.2583V61.6414H144.211C144.219 62.12 144.338 62.4846 144.568 62.735C144.799 62.9855 145.124 63.1107 145.543 63.1107C145.801 63.1107 146.029 63.0871 146.227 63.04C146.426 62.9929 146.631 62.9235 146.845 62.8317V63.3748C146.639 63.4666 146.434 63.5335 146.231 63.5757C146.03 63.6178 145.792 63.6389 145.517 63.6389C145.125 63.6389 144.783 63.5596 144.49 63.4008C144.2 63.2397 143.974 63.0041 143.813 62.6941C143.652 62.3841 143.571 62.0047 143.571 61.5559C143.571 61.1169 143.645 60.7375 143.791 60.4176C143.94 60.0952 144.148 59.8473 144.416 59.6737C144.686 59.5001 145.003 59.4133 145.368 59.4133ZM145.361 59.9192C145.031 59.9192 144.768 60.027 144.572 60.2428C144.376 60.4585 144.26 60.7598 144.222 61.1467H146.38C146.377 60.9037 146.339 60.6904 146.264 60.5069C146.193 60.3209 146.082 60.1771 145.933 60.0754C145.785 59.9713 145.594 59.9192 145.361 59.9192ZM150.713 62.4486C150.713 62.709 150.648 62.9284 150.516 63.107C150.387 63.2831 150.201 63.4157 149.958 63.505C149.718 63.5943 149.43 63.6389 149.095 63.6389C148.81 63.6389 148.563 63.6166 148.355 63.572C148.147 63.5273 147.964 63.4641 147.808 63.3822V62.8131C147.974 62.895 148.173 62.9694 148.403 63.0363C148.634 63.1033 148.87 63.1367 149.11 63.1367C149.462 63.1367 149.718 63.0797 149.876 62.9656C150.035 62.8516 150.114 62.6966 150.114 62.5007C150.114 62.3891 150.082 62.2911 150.018 62.2068C149.956 62.12 149.85 62.0369 149.702 61.9576C149.553 61.8758 149.347 61.7865 149.084 61.6898C148.824 61.5906 148.598 61.4926 148.407 61.3959C148.219 61.2967 148.072 61.1764 147.968 61.0351C147.866 60.8937 147.816 60.7102 147.816 60.4846C147.816 60.1399 147.954 59.8758 148.232 59.6923C148.512 59.5063 148.879 59.4133 149.333 59.4133C149.579 59.4133 149.808 59.4381 150.021 59.4877C150.237 59.5348 150.438 59.5993 150.624 59.6811L150.416 60.1758C150.247 60.1039 150.067 60.0432 149.876 59.9936C149.685 59.944 149.491 59.9192 149.292 59.9192C149.007 59.9192 148.788 59.9663 148.634 60.0605C148.483 60.1548 148.407 60.2837 148.407 60.4474C148.407 60.5738 148.442 60.678 148.511 60.7598C148.583 60.8417 148.697 60.9185 148.853 60.9905C149.01 61.0624 149.215 61.1467 149.471 61.2434C149.726 61.3376 149.947 61.4356 150.133 61.5373C150.319 61.6365 150.462 61.758 150.561 61.9018C150.662 62.0431 150.713 62.2254 150.713 62.4486ZM153.339 63.6389C152.972 63.6389 152.649 63.5633 152.369 63.412C152.088 63.2607 151.87 63.0301 151.714 62.7201C151.558 62.4102 151.48 62.0196 151.48 61.5484C151.48 61.0549 151.561 60.652 151.725 60.3395C151.891 60.0246 152.119 59.7915 152.409 59.6402C152.7 59.4889 153.029 59.4133 153.399 59.4133C153.602 59.4133 153.798 59.4344 153.987 59.4765C154.178 59.5162 154.334 59.567 154.455 59.629L154.269 60.1461C154.145 60.0965 154.002 60.0518 153.838 60.0122C153.677 59.9725 153.525 59.9527 153.384 59.9527C153.101 59.9527 152.866 60.0134 152.677 60.1349C152.491 60.2564 152.351 60.435 152.257 60.6706C152.165 60.9061 152.119 61.1963 152.119 61.541C152.119 61.8708 152.164 62.1523 152.253 62.3854C152.345 62.6185 152.48 62.797 152.659 62.921C152.84 63.0425 153.065 63.1033 153.336 63.1033C153.551 63.1033 153.746 63.0809 153.92 63.0363C154.093 62.9892 154.251 62.9346 154.392 62.8726V63.4232C154.256 63.4926 154.103 63.5459 153.935 63.5831C153.768 63.6203 153.57 63.6389 153.339 63.6389ZM157.212 59.4133C157.293 59.4133 157.379 59.4182 157.468 59.4282C157.558 59.4356 157.637 59.4468 157.706 59.4616L157.628 60.0345C157.561 60.0171 157.487 60.0035 157.405 59.9936C157.323 59.9836 157.246 59.9787 157.174 59.9787C157.011 59.9787 156.856 60.0122 156.709 60.0791C156.566 60.1436 156.439 60.2378 156.33 60.3618C156.221 60.4833 156.135 60.6309 156.073 60.8045C156.011 60.9756 155.98 61.1665 155.98 61.3773V63.5645H155.359V59.4877H155.873L155.94 60.2391H155.966C156.05 60.0878 156.152 59.9502 156.271 59.8262C156.39 59.6997 156.527 59.5993 156.683 59.5249C156.842 59.4505 157.018 59.4133 157.212 59.4133ZM159.094 59.4877V63.5645H158.476V59.4877H159.094ZM158.793 57.9626C158.894 57.9626 158.981 57.9961 159.053 58.063C159.127 58.1275 159.165 58.2292 159.165 58.368C159.165 58.5044 159.127 58.6061 159.053 58.6731C158.981 58.74 158.894 58.7735 158.793 58.7735C158.686 58.7735 158.597 58.74 158.525 58.6731C158.455 58.6061 158.421 58.5044 158.421 58.368C158.421 58.2292 158.455 58.1275 158.525 58.063C158.597 57.9961 158.686 57.9626 158.793 57.9626ZM162.319 59.4133C162.827 59.4133 163.233 59.5881 163.535 59.9378C163.838 60.2874 163.989 60.8132 163.989 61.5149C163.989 61.9787 163.92 62.368 163.781 62.6829C163.642 62.9979 163.446 63.2359 163.193 63.3971C162.943 63.5583 162.646 63.6389 162.304 63.6389C162.088 63.6389 161.899 63.6104 161.735 63.5534C161.571 63.4963 161.431 63.4194 161.315 63.3227C161.198 63.226 161.101 63.1206 161.024 63.0066H160.98C160.987 63.1033 160.996 63.2198 161.006 63.3562C161.018 63.4926 161.024 63.6116 161.024 63.7133V65.3872H160.403V59.4877H160.913L160.995 60.0903H161.024C161.104 59.9663 161.2 59.8535 161.315 59.7518C161.429 59.6476 161.567 59.5658 161.731 59.5063C161.897 59.4443 162.093 59.4133 162.319 59.4133ZM162.211 59.9341C161.928 59.9341 161.7 59.9886 161.527 60.0977C161.355 60.2068 161.23 60.3705 161.151 60.5887C161.072 60.8045 161.029 61.076 161.024 61.4033V61.5224C161.024 61.8671 161.062 62.1585 161.136 62.3965C161.213 62.6346 161.338 62.8156 161.512 62.9396C161.688 63.0636 161.923 63.1256 162.218 63.1256C162.471 63.1256 162.682 63.0574 162.851 62.921C163.019 62.7846 163.145 62.5949 163.226 62.3519C163.311 62.1064 163.353 61.8249 163.353 61.5075C163.353 61.0264 163.259 60.6445 163.07 60.3618C162.884 60.0766 162.598 59.9341 162.211 59.9341ZM166.701 63.6389C166.334 63.6389 166.01 63.5633 165.73 63.412C165.45 63.2607 165.231 63.0301 165.075 62.7201C164.919 62.4102 164.841 62.0196 164.841 61.5484C164.841 61.0549 164.923 60.652 165.086 60.3395C165.252 60.0246 165.481 59.7915 165.771 59.6402C166.061 59.4889 166.391 59.4133 166.76 59.4133C166.964 59.4133 167.159 59.4344 167.348 59.4765C167.539 59.5162 167.695 59.567 167.817 59.629L167.631 60.1461C167.507 60.0965 167.363 60.0518 167.199 60.0122C167.038 59.9725 166.887 59.9527 166.745 59.9527C166.463 59.9527 166.227 60.0134 166.039 60.1349C165.853 60.2564 165.712 60.435 165.618 60.6706C165.527 60.9061 165.481 61.1963 165.481 61.541C165.481 61.8708 165.525 62.1523 165.615 62.3854C165.706 62.6185 165.841 62.797 166.02 62.921C166.201 63.0425 166.427 63.1033 166.697 63.1033C166.913 63.1033 167.107 63.0809 167.281 63.0363C167.455 62.9892 167.612 62.9346 167.753 62.8726V63.4232C167.617 63.4926 167.464 63.5459 167.296 63.5831C167.13 63.6203 166.931 63.6389 166.701 63.6389ZM169.338 59.4877V63.5645H168.721V59.4877H169.338ZM169.037 57.9626C169.138 57.9626 169.225 57.9961 169.297 58.063C169.371 58.1275 169.409 58.2292 169.409 58.368C169.409 58.5044 169.371 58.6061 169.297 58.6731C169.225 58.74 169.138 58.7735 169.037 58.7735C168.93 58.7735 168.841 58.74 168.769 58.6731C168.699 58.6061 168.665 58.5044 168.665 58.368C168.665 58.2292 168.699 58.1275 168.769 58.063C168.841 57.9961 168.93 57.9626 169.037 57.9626ZM174.162 61.5187C174.162 61.8534 174.119 62.1523 174.032 62.4151C173.946 62.678 173.82 62.8999 173.657 63.0809C173.493 63.262 173.295 63.4008 173.061 63.4976C172.831 63.5918 172.569 63.6389 172.277 63.6389C172.004 63.6389 171.753 63.5918 171.525 63.4976C171.3 63.4008 171.104 63.262 170.937 63.0809C170.774 62.8999 170.646 62.678 170.554 62.4151C170.465 62.1523 170.42 61.8534 170.42 61.5187C170.42 61.0723 170.496 60.6929 170.647 60.3804C170.799 60.0655 171.014 59.8262 171.295 59.6625C171.577 59.4964 171.913 59.4133 172.303 59.4133C172.675 59.4133 172.999 59.4964 173.277 59.6625C173.557 59.8287 173.774 60.0692 173.928 60.3841C174.084 60.6966 174.162 61.0748 174.162 61.5187ZM171.06 61.5187C171.06 61.846 171.104 62.1299 171.19 62.3705C171.277 62.611 171.411 62.797 171.592 62.9284C171.773 63.0599 172.006 63.1256 172.291 63.1256C172.574 63.1256 172.806 63.0599 172.987 62.9284C173.171 62.797 173.306 62.611 173.393 62.3705C173.479 62.1299 173.523 61.846 173.523 61.5187C173.523 61.1938 173.479 60.9136 173.393 60.678C173.306 60.4399 173.172 60.2564 172.991 60.1275C172.81 59.9985 172.575 59.9341 172.288 59.9341C171.864 59.9341 171.552 60.0742 171.354 60.3544C171.158 60.6346 171.06 61.0227 171.06 61.5187ZM173.37 57.7283V57.8026C173.321 57.8746 173.252 57.9614 173.166 58.063C173.081 58.1622 172.987 58.2676 172.883 58.3792C172.779 58.4883 172.673 58.5925 172.567 58.6917C172.463 58.7909 172.366 58.8764 172.277 58.9483H171.864V58.859C171.943 58.7648 172.03 58.652 172.124 58.5206C172.218 58.3866 172.31 58.2503 172.399 58.1114C172.489 57.97 172.563 57.8423 172.623 57.7283H173.37ZM177.161 59.4133C177.644 59.4133 178.01 59.5323 178.258 59.7704C178.506 60.006 178.63 60.3854 178.63 60.9086V63.5645H178.02V60.9495C178.02 60.6098 177.942 60.3556 177.786 60.187C177.632 60.0184 177.395 59.9341 177.075 59.9341C176.624 59.9341 176.306 60.0618 176.123 60.3172C175.939 60.5726 175.848 60.9433 175.848 61.4294V63.5645H175.23V59.4877H175.728L175.821 60.0754H175.855C175.942 59.9316 176.052 59.8113 176.186 59.7146C176.32 59.6154 176.47 59.541 176.636 59.4914C176.802 59.4393 176.977 59.4133 177.161 59.4133ZM183.332 63.6389C182.816 63.6389 182.407 63.4628 182.104 63.1107C181.804 62.7586 181.654 62.2353 181.654 61.541C181.654 60.8392 181.808 60.3097 182.115 59.9527C182.423 59.5931 182.832 59.4133 183.343 59.4133C183.559 59.4133 183.747 59.4418 183.908 59.4988C184.069 59.5559 184.208 59.6328 184.325 59.7295C184.441 59.8237 184.539 59.9316 184.619 60.0531H184.663C184.653 59.9762 184.643 59.8708 184.634 59.7369C184.624 59.603 184.619 59.4939 184.619 59.4096V57.7766H185.236V63.5645H184.738L184.645 62.9842H184.619C184.542 63.1057 184.444 63.2161 184.325 63.3153C184.208 63.4145 184.068 63.4938 183.904 63.5534C183.743 63.6104 183.552 63.6389 183.332 63.6389ZM183.428 63.1256C183.865 63.1256 184.174 63.0016 184.355 62.7536C184.536 62.5056 184.626 62.1374 184.626 61.6489V61.5373C184.626 61.019 184.539 60.621 184.366 60.3432C184.195 60.0655 183.882 59.9266 183.428 59.9266C183.049 59.9266 182.765 60.0729 182.577 60.3655C182.388 60.6557 182.294 61.0525 182.294 61.5559C182.294 62.0568 182.387 62.4436 182.573 62.7164C182.761 62.9892 183.046 63.1256 183.428 63.1256ZM188.115 59.4133C188.462 59.4133 188.76 59.4902 189.008 59.6439C189.256 59.7977 189.446 60.0134 189.577 60.2911C189.708 60.5664 189.774 60.8888 189.774 61.2583V61.6414H186.958C186.966 62.12 187.085 62.4846 187.315 62.735C187.546 62.9855 187.871 63.1107 188.29 63.1107C188.548 63.1107 188.776 63.0871 188.974 63.04C189.173 62.9929 189.379 62.9235 189.592 62.8317V63.3748C189.386 63.4666 189.182 63.5335 188.978 63.5757C188.777 63.6178 188.539 63.6389 188.264 63.6389C187.872 63.6389 187.53 63.5596 187.237 63.4008C186.947 63.2397 186.722 63.0041 186.56 62.6941C186.399 62.3841 186.319 62.0047 186.319 61.5559C186.319 61.1169 186.392 60.7375 186.538 60.4176C186.687 60.0952 186.895 59.8473 187.163 59.6737C187.433 59.5001 187.751 59.4133 188.115 59.4133ZM188.108 59.9192C187.778 59.9192 187.515 60.027 187.319 60.2428C187.123 60.4585 187.007 60.7598 186.97 61.1467H189.127C189.125 60.9037 189.086 60.6904 189.012 60.5069C188.94 60.3209 188.829 60.1771 188.681 60.0754C188.532 59.9713 188.341 59.9192 188.108 59.9192ZM191.444 63.5645H190.823V57.7766H191.444V63.5645ZM196.254 59.4207C196.74 59.4207 197.101 59.5298 197.336 59.7481C197.572 59.9663 197.69 60.3147 197.69 60.7933V63.5645H197.24L197.121 62.9619H197.091C196.977 63.1107 196.858 63.2359 196.734 63.3376C196.61 63.4368 196.466 63.5124 196.302 63.5645C196.141 63.6141 195.943 63.6389 195.707 63.6389C195.459 63.6389 195.239 63.5955 195.045 63.5087C194.854 63.4219 194.703 63.2905 194.591 63.1144C194.482 62.9384 194.428 62.7152 194.428 62.4449C194.428 62.0382 194.589 61.7257 194.911 61.5075C195.234 61.2893 195.725 61.1702 196.384 61.1504L197.087 61.1206V60.8714C197.087 60.5193 197.012 60.2725 196.86 60.1312C196.709 59.9898 196.496 59.9192 196.221 59.9192C196.007 59.9192 195.804 59.9502 195.61 60.0122C195.417 60.0742 195.234 60.1473 195.06 60.2316L194.87 59.7629C195.054 59.6687 195.265 59.5881 195.503 59.5212C195.741 59.4542 195.991 59.4207 196.254 59.4207ZM197.08 61.5559L196.459 61.5819C195.95 61.6017 195.592 61.6848 195.384 61.8311C195.175 61.9774 195.071 62.1845 195.071 62.4523C195.071 62.6854 195.142 62.8578 195.283 62.9694C195.424 63.0809 195.612 63.1367 195.845 63.1367C196.207 63.1367 196.503 63.0363 196.734 62.8354C196.964 62.6346 197.08 62.3333 197.08 61.9316V61.5559ZM200.595 63.6389C200.228 63.6389 199.904 63.5633 199.624 63.412C199.344 63.2607 199.126 63.0301 198.969 62.7201C198.813 62.4102 198.735 62.0196 198.735 61.5484C198.735 61.0549 198.817 60.652 198.981 60.3395C199.147 60.0246 199.375 59.7915 199.665 59.6402C199.955 59.4889 200.285 59.4133 200.654 59.4133C200.858 59.4133 201.054 59.4344 201.242 59.4765C201.433 59.5162 201.589 59.567 201.711 59.629L201.525 60.1461C201.401 60.0965 201.257 60.0518 201.093 60.0122C200.932 59.9725 200.781 59.9527 200.64 59.9527C200.357 59.9527 200.121 60.0134 199.933 60.1349C199.747 60.2564 199.607 60.435 199.512 60.6706C199.421 60.9061 199.375 61.1963 199.375 61.541C199.375 61.8708 199.419 62.1523 199.509 62.3854C199.601 62.6185 199.736 62.797 199.914 62.921C200.095 63.0425 200.321 63.1033 200.591 63.1033C200.807 63.1033 201.002 63.0809 201.175 63.0363C201.349 62.9892 201.506 62.9346 201.648 62.8726V63.4232C201.511 63.4926 201.359 63.5459 201.19 63.5831C201.024 63.6203 200.826 63.6389 200.595 63.6389ZM204.248 63.6389C203.881 63.6389 203.557 63.5633 203.277 63.412C202.997 63.2607 202.778 63.0301 202.622 62.7201C202.466 62.4102 202.388 62.0196 202.388 61.5484C202.388 61.0549 202.47 60.652 202.633 60.3395C202.799 60.0246 203.028 59.7915 203.318 59.6402C203.608 59.4889 203.938 59.4133 204.307 59.4133C204.511 59.4133 204.706 59.4344 204.895 59.4765C205.086 59.5162 205.242 59.567 205.364 59.629L205.178 60.1461C205.054 60.0965 204.91 60.0518 204.746 60.0122C204.585 59.9725 204.434 59.9527 204.292 59.9527C204.01 59.9527 203.774 60.0134 203.586 60.1349C203.4 60.2564 203.259 60.435 203.165 60.6706C203.074 60.9061 203.028 61.1963 203.028 61.541C203.028 61.8708 203.072 62.1523 203.162 62.3854C203.253 62.6185 203.388 62.797 203.567 62.921C203.748 63.0425 203.974 63.1033 204.244 63.1033C204.46 63.1033 204.654 63.0809 204.828 63.0363C205.002 62.9892 205.159 62.9346 205.3 62.8726V63.4232C205.164 63.4926 205.011 63.5459 204.843 63.5831C204.677 63.6203 204.478 63.6389 204.248 63.6389ZM207.837 59.4133C208.184 59.4133 208.482 59.4902 208.73 59.6439C208.978 59.7977 209.168 60.0134 209.299 60.2911C209.431 60.5664 209.496 60.8888 209.496 61.2583V61.6414H206.68C206.688 62.12 206.807 62.4846 207.038 62.735C207.268 62.9855 207.593 63.1107 208.012 63.1107C208.27 63.1107 208.498 63.0871 208.697 63.04C208.895 62.9929 209.101 62.9235 209.314 62.8317V63.3748C209.108 63.4666 208.904 63.5335 208.7 63.5757C208.499 63.6178 208.261 63.6389 207.986 63.6389C207.594 63.6389 207.252 63.5596 206.959 63.4008C206.669 63.2397 206.444 63.0041 206.282 62.6941C206.121 62.3841 206.041 62.0047 206.041 61.5559C206.041 61.1169 206.114 60.7375 206.26 60.4176C206.409 60.0952 206.617 59.8473 206.885 59.6737C207.155 59.5001 207.473 59.4133 207.837 59.4133ZM207.83 59.9192C207.5 59.9192 207.237 60.027 207.041 60.2428C206.845 60.4585 206.729 60.7598 206.692 61.1467H208.849C208.847 60.9037 208.808 60.6904 208.734 60.5069C208.662 60.3209 208.551 60.1771 208.403 60.0754C208.254 59.9713 208.063 59.9192 207.83 59.9192ZM213.183 62.4486C213.183 62.709 213.117 62.9284 212.985 63.107C212.856 63.2831 212.67 63.4157 212.427 63.505C212.187 63.5943 211.899 63.6389 211.564 63.6389C211.279 63.6389 211.033 63.6166 210.824 63.572C210.616 63.5273 210.434 63.4641 210.277 63.3822V62.8131C210.444 62.895 210.642 62.9694 210.873 63.0363C211.103 63.1033 211.339 63.1367 211.579 63.1367C211.931 63.1367 212.187 63.0797 212.346 62.9656C212.504 62.8516 212.584 62.6966 212.584 62.5007C212.584 62.3891 212.551 62.2911 212.487 62.2068C212.425 62.12 212.32 62.0369 212.171 61.9576C212.022 61.8758 211.816 61.7865 211.553 61.6898C211.293 61.5906 211.067 61.4926 210.876 61.3959C210.688 61.2967 210.541 61.1764 210.437 61.0351C210.336 60.8937 210.285 60.7102 210.285 60.4846C210.285 60.1399 210.424 59.8758 210.701 59.6923C210.982 59.5063 211.349 59.4133 211.802 59.4133C212.048 59.4133 212.277 59.4381 212.491 59.4877C212.706 59.5348 212.907 59.5993 213.093 59.6811L212.885 60.1758C212.716 60.1039 212.537 60.0432 212.346 59.9936C212.155 59.944 211.96 59.9192 211.762 59.9192C211.476 59.9192 211.257 59.9663 211.103 60.0605C210.952 60.1548 210.876 60.2837 210.876 60.4474C210.876 60.5738 210.911 60.678 210.98 60.7598C211.052 60.8417 211.166 60.9185 211.323 60.9905C211.479 61.0624 211.685 61.1467 211.94 61.2434C212.196 61.3376 212.416 61.4356 212.602 61.5373C212.788 61.6365 212.931 61.758 213.03 61.9018C213.132 62.0431 213.183 62.2254 213.183 62.4486ZM217.691 61.5187C217.691 61.8534 217.647 62.1523 217.561 62.4151C217.474 62.678 217.349 62.8999 217.185 63.0809C217.021 63.262 216.823 63.4008 216.59 63.4976C216.359 63.5918 216.098 63.6389 215.805 63.6389C215.532 63.6389 215.282 63.5918 215.054 63.4976C214.828 63.4008 214.632 63.262 214.466 63.0809C214.302 62.8999 214.174 62.678 214.083 62.4151C213.993 62.1523 213.949 61.8534 213.949 61.5187C213.949 61.0723 214.024 60.6929 214.176 60.3804C214.327 60.0655 214.543 59.8262 214.823 59.6625C215.106 59.4964 215.442 59.4133 215.831 59.4133C216.203 59.4133 216.528 59.4964 216.806 59.6625C217.086 59.8287 217.303 60.0692 217.456 60.3841C217.613 60.6966 217.691 61.0748 217.691 61.5187ZM214.589 61.5187C214.589 61.846 214.632 62.1299 214.719 62.3705C214.806 62.611 214.939 62.797 215.12 62.9284C215.302 63.0599 215.535 63.1256 215.82 63.1256C216.103 63.1256 216.334 63.0599 216.515 62.9284C216.699 62.797 216.834 62.611 216.921 62.3705C217.008 62.1299 217.051 61.846 217.051 61.5187C217.051 61.1938 217.008 60.9136 216.921 60.678C216.834 60.4399 216.7 60.2564 216.519 60.1275C216.338 59.9985 216.104 59.9341 215.816 59.9341C215.392 59.9341 215.081 60.0742 214.882 60.3544C214.687 60.6346 214.589 61.0227 214.589 61.5187Z" fill="#38485C"/>
<path d="M90.0072 87.8934C90.0072 85.7897 91.7126 84.0844 93.8162 84.0844H251.89C253.994 84.0844 255.699 85.7897 255.699 87.8934V115.129C255.699 117.233 253.994 118.938 251.89 118.938H93.8162C91.7126 118.938 90.0072 117.233 90.0072 115.129V87.8934Z" fill="white"/>
<path d="M105.589 104.511L104.92 102.785H102.74L102.074 104.511H101.434L103.562 99.0508H104.131L106.244 104.511H105.589ZM104.73 102.224L104.094 100.509C104.079 100.464 104.054 100.391 104.019 100.29C103.987 100.188 103.954 100.082 103.919 99.9733C103.884 99.8642 103.856 99.7762 103.833 99.7092C103.809 99.8109 103.781 99.9126 103.752 100.014C103.724 100.113 103.697 100.206 103.67 100.293C103.642 100.378 103.619 100.449 103.599 100.509L102.952 102.224H104.73ZM108.539 104.586C108.172 104.586 107.848 104.51 107.568 104.359C107.288 104.208 107.07 103.977 106.913 103.667C106.757 103.357 106.679 102.966 106.679 102.495C106.679 102.002 106.761 101.599 106.925 101.286C107.091 100.971 107.319 100.738 107.609 100.587C107.899 100.436 108.229 100.36 108.598 100.36C108.802 100.36 108.998 100.381 109.186 100.423C109.377 100.463 109.533 100.514 109.655 100.576L109.469 101.093C109.345 101.043 109.201 100.999 109.037 100.959C108.876 100.919 108.725 100.9 108.584 100.9C108.301 100.9 108.065 100.96 107.877 101.082C107.691 101.203 107.551 101.382 107.456 101.617C107.365 101.853 107.319 102.143 107.319 102.488C107.319 102.818 107.363 103.099 107.453 103.332C107.544 103.565 107.68 103.744 107.858 103.868C108.039 103.989 108.265 104.05 108.535 104.05C108.751 104.05 108.946 104.028 109.119 103.983C109.293 103.936 109.45 103.882 109.592 103.82V104.37C109.455 104.439 109.303 104.493 109.134 104.53C108.968 104.567 108.77 104.586 108.539 104.586ZM112.192 104.586C111.825 104.586 111.501 104.51 111.221 104.359C110.941 104.208 110.722 103.977 110.566 103.667C110.41 103.357 110.332 102.966 110.332 102.495C110.332 102.002 110.414 101.599 110.577 101.286C110.743 100.971 110.972 100.738 111.262 100.587C111.552 100.436 111.882 100.36 112.251 100.36C112.455 100.36 112.65 100.381 112.839 100.423C113.03 100.463 113.186 100.514 113.308 100.576L113.122 101.093C112.998 101.043 112.854 100.999 112.69 100.959C112.529 100.919 112.378 100.9 112.236 100.9C111.954 100.9 111.718 100.96 111.53 101.082C111.344 101.203 111.203 101.382 111.109 101.617C111.017 101.853 110.972 102.143 110.972 102.488C110.972 102.818 111.016 103.099 111.106 103.332C111.197 103.565 111.332 103.744 111.511 103.868C111.692 103.989 111.918 104.05 112.188 104.05C112.404 104.05 112.598 104.028 112.772 103.983C112.946 103.936 113.103 103.882 113.244 103.82V104.37C113.108 104.439 112.955 104.493 112.787 104.53C112.621 104.567 112.422 104.586 112.192 104.586ZM115.781 100.36C116.128 100.36 116.426 100.437 116.674 100.591C116.922 100.745 117.112 100.96 117.243 101.238C117.375 101.513 117.44 101.836 117.44 102.205V102.588H114.624C114.632 103.067 114.751 103.431 114.981 103.682C115.212 103.932 115.537 104.058 115.956 104.058C116.214 104.058 116.442 104.034 116.64 103.987C116.839 103.94 117.045 103.87 117.258 103.779V104.322C117.052 104.413 116.848 104.48 116.644 104.523C116.443 104.565 116.205 104.586 115.93 104.586C115.538 104.586 115.196 104.506 114.903 104.348C114.613 104.187 114.388 103.951 114.226 103.641C114.065 103.331 113.985 102.952 113.985 102.503C113.985 102.064 114.058 101.684 114.204 101.365C114.353 101.042 114.561 100.794 114.829 100.621C115.099 100.447 115.417 100.36 115.781 100.36ZM115.774 100.866C115.444 100.866 115.181 100.974 114.985 101.19C114.789 101.405 114.673 101.707 114.636 102.094H116.793C116.791 101.851 116.752 101.637 116.678 101.454C116.606 101.268 116.495 101.124 116.347 101.022C116.198 100.918 116.007 100.866 115.774 100.866ZM121.126 103.395C121.126 103.656 121.061 103.875 120.929 104.054C120.8 104.23 120.614 104.363 120.371 104.452C120.131 104.541 119.843 104.586 119.508 104.586C119.223 104.586 118.976 104.563 118.768 104.519C118.56 104.474 118.378 104.411 118.221 104.329V103.76C118.388 103.842 118.586 103.916 118.817 103.983C119.047 104.05 119.283 104.084 119.523 104.084C119.875 104.084 120.131 104.027 120.29 103.913C120.448 103.798 120.528 103.643 120.528 103.448C120.528 103.336 120.495 103.238 120.431 103.154C120.369 103.067 120.264 102.984 120.115 102.904C119.966 102.823 119.76 102.733 119.497 102.637C119.237 102.537 119.011 102.44 118.82 102.343C118.632 102.244 118.485 102.123 118.381 101.982C118.28 101.841 118.229 101.657 118.229 101.431C118.229 101.087 118.368 100.823 118.645 100.639C118.926 100.453 119.293 100.36 119.746 100.36C119.992 100.36 120.221 100.385 120.435 100.435C120.65 100.482 120.851 100.546 121.037 100.628L120.829 101.123C120.66 101.051 120.48 100.99 120.29 100.94C120.099 100.891 119.904 100.866 119.706 100.866C119.42 100.866 119.201 100.913 119.047 101.007C118.896 101.102 118.82 101.231 118.82 101.394C118.82 101.521 118.855 101.625 118.924 101.707C118.996 101.789 119.11 101.865 119.267 101.937C119.423 102.009 119.629 102.094 119.884 102.19C120.14 102.285 120.36 102.382 120.546 102.484C120.732 102.583 120.875 102.705 120.974 102.849C121.076 102.99 121.126 103.172 121.126 103.395ZM125.635 102.466C125.635 102.8 125.591 103.099 125.505 103.362C125.418 103.625 125.293 103.847 125.129 104.028C124.965 104.209 124.767 104.348 124.534 104.444C124.303 104.539 124.042 104.586 123.749 104.586C123.476 104.586 123.226 104.539 122.998 104.444C122.772 104.348 122.576 104.209 122.41 104.028C122.246 103.847 122.118 103.625 122.027 103.362C121.937 103.099 121.893 102.8 121.893 102.466C121.893 102.019 121.968 101.64 122.12 101.327C122.271 101.012 122.487 100.773 122.767 100.609C123.05 100.443 123.386 100.36 123.775 100.36C124.147 100.36 124.472 100.443 124.75 100.609C125.03 100.776 125.247 101.016 125.4 101.331C125.557 101.643 125.635 102.022 125.635 102.466ZM122.533 102.466C122.533 102.793 122.576 103.077 122.663 103.317C122.75 103.558 122.883 103.744 123.064 103.875C123.245 104.007 123.479 104.072 123.764 104.072C124.046 104.072 124.278 104.007 124.459 103.875C124.643 103.744 124.778 103.558 124.865 103.317C124.952 103.077 124.995 102.793 124.995 102.466C124.995 102.141 124.952 101.86 124.865 101.625C124.778 101.387 124.644 101.203 124.463 101.074C124.282 100.945 124.048 100.881 123.76 100.881C123.336 100.881 123.025 101.021 122.826 101.301C122.63 101.582 122.533 101.97 122.533 102.466Z" fill="#38485C"/>
<path d="M237.13 98.7064C236.944 98.8921 236.944 99.192 237.13 99.3777L238.978 101.225L237.13 103.072C236.944 103.258 236.944 103.558 237.13 103.744C237.316 103.929 237.616 103.929 237.802 103.744L239.987 101.558C240.173 101.373 240.173 101.073 239.987 100.887L237.802 98.7016C237.621 98.5207 237.316 98.5207 237.13 98.7064Z" fill="#38485C"/>
</svg>
