<svg width="771" height="527" viewBox="0 0 771 527" fill="none" xmlns="http://www.w3.org/2000/svg">
<rect x="1" y="1.85742" width="726" height="523.495" rx="7" fill="#F3F6F9"/>
<rect x="1" y="1.85742" width="726" height="523.495" rx="7" stroke="#E6EBF0" stroke-width="2"/>
<rect width="632" height="429.495" transform="translate(48 48.8574)" fill="white"/>
<mask id="path-2-inside-1_4149_8294" fill="white">
<path d="M90 68.7911C90 66.6186 91.7612 64.8574 93.9337 64.8574H624.066C626.239 64.8574 628 66.6186 628 68.7911V100.659H90V68.7911Z"/>
</mask>
<path d="M90 68.7911C90 66.6186 91.7612 64.8574 93.9337 64.8574H624.066C626.239 64.8574 628 66.6186 628 68.7911V100.659H90V68.7911Z" fill="white"/>
<path d="M90 64.8574H628H90ZM628 101.15H90V100.167H628V101.15ZM90 100.659V64.8574V100.659ZM628 64.8574V100.659V64.8574Z" fill="#E6EBF0" mask="url(#path-2-inside-1_4149_8294)"/>
<path d="M95.598 88.9018C95.226 88.9018 94.938 88.7998 94.734 88.5958C94.542 88.3798 94.446 88.0858 94.446 87.7138V77.9938H90.936C90.624 77.9938 90.378 77.9098 90.198 77.7418C90.03 77.5618 89.946 77.3218 89.946 77.0218C89.946 76.7098 90.03 76.4758 90.198 76.3198C90.378 76.1518 90.624 76.0678 90.936 76.0678H100.26C100.572 76.0678 100.812 76.1518 100.98 76.3198C101.16 76.4758 101.25 76.7098 101.25 77.0218C101.25 77.3218 101.16 77.5618 100.98 77.7418C100.812 77.9098 100.572 77.9938 100.26 77.9938H96.75V87.7138C96.75 88.0858 96.654 88.3798 96.462 88.5958C96.27 88.7998 95.982 88.9018 95.598 88.9018ZM104.45 88.8838C104.09 88.8838 103.814 88.7758 103.622 88.5598C103.43 88.3438 103.334 88.0438 103.334 87.6598V81.0538C103.334 80.6578 103.43 80.3578 103.622 80.1538C103.814 79.9378 104.09 79.8298 104.45 79.8298C104.81 79.8298 105.086 79.9378 105.278 80.1538C105.482 80.3578 105.584 80.6578 105.584 81.0538V87.6598C105.584 88.0438 105.488 88.3438 105.296 88.5598C105.104 88.7758 104.822 88.8838 104.45 88.8838ZM105.296 78.6778C105.176 78.8458 105.032 78.9418 104.864 78.9658C104.696 78.9898 104.534 78.9598 104.378 78.8758C104.222 78.7918 104.108 78.6718 104.036 78.5158C103.976 78.3598 103.994 78.1858 104.09 77.9938L105.458 75.3118C105.566 75.0838 105.71 74.9398 105.89 74.8798C106.07 74.8078 106.256 74.7958 106.448 74.8438C106.64 74.8918 106.802 74.9818 106.934 75.1138C107.078 75.2458 107.162 75.4078 107.186 75.5998C107.222 75.7798 107.174 75.9658 107.042 76.1578L105.296 78.6778ZM111.954 88.9378C111.174 88.9378 110.52 88.8058 109.992 88.5418C109.476 88.2778 109.092 87.8938 108.84 87.3898C108.588 86.8738 108.462 86.2378 108.462 85.4818V81.6478H107.526C107.238 81.6478 107.016 81.5758 106.86 81.4318C106.704 81.2758 106.626 81.0658 106.626 80.8018C106.626 80.5258 106.704 80.3158 106.86 80.1718C107.016 80.0278 107.238 79.9558 107.526 79.9558H108.462V78.3178C108.462 77.9458 108.558 77.6638 108.75 77.4718C108.954 77.2798 109.236 77.1838 109.596 77.1838C109.956 77.1838 110.232 77.2798 110.424 77.4718C110.616 77.6638 110.712 77.9458 110.712 78.3178V79.9558H112.62C112.908 79.9558 113.13 80.0278 113.286 80.1718C113.442 80.3158 113.52 80.5258 113.52 80.8018C113.52 81.0658 113.442 81.2758 113.286 81.4318C113.13 81.5758 112.908 81.6478 112.62 81.6478H110.712V85.3558C110.712 85.9318 110.838 86.3638 111.09 86.6518C111.342 86.9398 111.75 87.0838 112.314 87.0838C112.518 87.0838 112.698 87.0658 112.854 87.0298C113.01 86.9938 113.148 86.9698 113.268 86.9578C113.412 86.9458 113.532 86.9938 113.628 87.1018C113.724 87.1978 113.772 87.4018 113.772 87.7138C113.772 87.9538 113.73 88.1698 113.646 88.3618C113.574 88.5418 113.436 88.6678 113.232 88.7398C113.076 88.7878 112.872 88.8298 112.62 88.8658C112.368 88.9138 112.146 88.9378 111.954 88.9378ZM118.016 88.9378C117.284 88.9378 116.678 88.8058 116.198 88.5418C115.718 88.2658 115.358 87.8578 115.118 87.3178C114.89 86.7778 114.776 86.1058 114.776 85.3018V80.9458C114.776 80.5618 114.872 80.2798 115.064 80.0998C115.256 79.9078 115.532 79.8118 115.892 79.8118C116.252 79.8118 116.528 79.9078 116.72 80.0998C116.924 80.2798 117.026 80.5618 117.026 80.9458V85.3378C117.026 85.9618 117.152 86.4238 117.404 86.7238C117.656 87.0238 118.058 87.1738 118.61 87.1738C119.21 87.1738 119.702 86.9698 120.086 86.5618C120.47 86.1418 120.662 85.5898 120.662 84.9058V80.9458C120.662 80.5618 120.758 80.2798 120.95 80.0998C121.142 79.9078 121.418 79.8118 121.778 79.8118C122.138 79.8118 122.414 79.9078 122.606 80.0998C122.81 80.2798 122.912 80.5618 122.912 80.9458V87.7498C122.912 88.5178 122.546 88.9018 121.814 88.9018C121.466 88.9018 121.196 88.8058 121.004 88.6138C120.812 88.4098 120.716 88.1218 120.716 87.7498V86.3818L120.968 86.9218C120.716 87.5698 120.332 88.0678 119.816 88.4158C119.312 88.7638 118.712 88.9378 118.016 88.9378ZM128.26 88.9378C127.264 88.9378 126.514 88.6558 126.01 88.0918C125.506 87.5158 125.254 86.6758 125.254 85.5718V77.0578C125.254 76.6858 125.35 76.4038 125.542 76.2118C125.734 76.0198 126.01 75.9238 126.37 75.9238C126.73 75.9238 127.006 76.0198 127.198 76.2118C127.402 76.4038 127.504 76.6858 127.504 77.0578V85.4638C127.504 86.0158 127.618 86.4238 127.846 86.6878C128.086 86.9518 128.422 87.0838 128.854 87.0838C128.95 87.0838 129.04 87.0838 129.124 87.0838C129.208 87.0718 129.292 87.0598 129.376 87.0478C129.544 87.0238 129.658 87.0718 129.718 87.1918C129.778 87.2998 129.808 87.5278 129.808 87.8758C129.808 88.1758 129.748 88.4098 129.628 88.5778C129.508 88.7458 129.31 88.8478 129.034 88.8838C128.914 88.8958 128.788 88.9078 128.656 88.9198C128.524 88.9318 128.392 88.9378 128.26 88.9378ZM134.928 88.9378C134.016 88.9378 133.224 88.7518 132.552 88.3798C131.88 88.0078 131.358 87.4798 130.986 86.7958C130.614 86.0998 130.428 85.2838 130.428 84.3478C130.428 83.6398 130.53 83.0098 130.734 82.4578C130.95 81.8938 131.256 81.4138 131.652 81.0178C132.048 80.6098 132.522 80.3038 133.074 80.0998C133.626 79.8838 134.244 79.7758 134.928 79.7758C135.84 79.7758 136.632 79.9618 137.304 80.3338C137.976 80.7058 138.498 81.2338 138.87 81.9178C139.242 82.6018 139.428 83.4118 139.428 84.3478C139.428 85.0558 139.32 85.6918 139.104 86.2558C138.9 86.8198 138.6 87.3058 138.204 87.7138C137.808 88.1098 137.334 88.4158 136.782 88.6318C136.23 88.8358 135.612 88.9378 134.928 88.9378ZM134.928 87.2278C135.372 87.2278 135.762 87.1198 136.098 86.9038C136.434 86.6878 136.692 86.3698 136.872 85.9498C137.064 85.5178 137.16 84.9838 137.16 84.3478C137.16 83.3878 136.956 82.6738 136.548 82.2058C136.14 81.7258 135.6 81.4858 134.928 81.4858C134.484 81.4858 134.094 81.5938 133.758 81.8098C133.422 82.0138 133.158 82.3318 132.966 82.7638C132.786 83.1838 132.696 83.7118 132.696 84.3478C132.696 85.2958 132.9 86.0158 133.308 86.5078C133.716 86.9878 134.256 87.2278 134.928 87.2278ZM149.556 88.9378C148.788 88.9378 148.11 88.7518 147.522 88.3798C146.946 88.0078 146.496 87.4798 146.172 86.7958C145.848 86.0998 145.686 85.2838 145.686 84.3478C145.686 83.3998 145.848 82.5898 146.172 81.9178C146.496 81.2338 146.946 80.7058 147.522 80.3338C148.11 79.9618 148.788 79.7758 149.556 79.7758C150.288 79.7758 150.924 79.9558 151.464 80.3158C152.016 80.6758 152.388 81.1498 152.58 81.7378H152.382V77.0578C152.382 76.6858 152.478 76.4038 152.67 76.2118C152.862 76.0198 153.138 75.9238 153.498 75.9238C153.858 75.9238 154.134 76.0198 154.326 76.2118C154.53 76.4038 154.632 76.6858 154.632 77.0578V87.7498C154.632 88.1218 154.536 88.4098 154.344 88.6138C154.152 88.8058 153.876 88.9018 153.516 88.9018C153.156 88.9018 152.88 88.8058 152.688 88.6138C152.496 88.4098 152.4 88.1218 152.4 87.7498V86.3458L152.598 86.8858C152.418 87.5098 152.052 88.0078 151.5 88.3798C150.948 88.7518 150.3 88.9378 149.556 88.9378ZM150.186 87.2278C150.63 87.2278 151.02 87.1198 151.356 86.9038C151.692 86.6878 151.95 86.3698 152.13 85.9498C152.322 85.5178 152.418 84.9838 152.418 84.3478C152.418 83.3878 152.214 82.6738 151.806 82.2058C151.398 81.7258 150.858 81.4858 150.186 81.4858C149.742 81.4858 149.352 81.5938 149.016 81.8098C148.68 82.0138 148.416 82.3318 148.224 82.7638C148.044 83.1838 147.954 83.7118 147.954 84.3478C147.954 85.2958 148.158 86.0158 148.566 86.5078C148.974 86.9878 149.514 87.2278 150.186 87.2278ZM161.303 88.9378C160.307 88.9378 159.449 88.7518 158.729 88.3798C158.009 88.0078 157.451 87.4798 157.055 86.7958C156.671 86.1118 156.479 85.3018 156.479 84.3658C156.479 83.4538 156.665 82.6558 157.037 81.9718C157.421 81.2878 157.943 80.7538 158.603 80.3698C159.275 79.9738 160.037 79.7758 160.889 79.7758C161.513 79.7758 162.071 79.8778 162.563 80.0818C163.067 80.2858 163.493 80.5798 163.841 80.9638C164.201 81.3478 164.471 81.8158 164.651 82.3678C164.843 82.9078 164.939 83.5198 164.939 84.2038C164.939 84.4198 164.861 84.5878 164.705 84.7078C164.561 84.8158 164.351 84.8698 164.075 84.8698H158.297V83.5738H163.355L163.067 83.8438C163.067 83.2918 162.983 82.8298 162.815 82.4578C162.659 82.0858 162.425 81.8038 162.113 81.6118C161.813 81.4078 161.435 81.3058 160.979 81.3058C160.475 81.3058 160.043 81.4258 159.683 81.6658C159.335 81.8938 159.065 82.2238 158.873 82.6558C158.693 83.0758 158.603 83.5798 158.603 84.1678V84.2938C158.603 85.2778 158.831 86.0158 159.287 86.5078C159.755 86.9878 160.439 87.2278 161.339 87.2278C161.651 87.2278 161.999 87.1918 162.383 87.1198C162.779 87.0358 163.151 86.8978 163.499 86.7058C163.751 86.5618 163.973 86.5018 164.165 86.5258C164.357 86.5378 164.507 86.6038 164.615 86.7238C164.735 86.8438 164.807 86.9938 164.831 87.1738C164.855 87.3418 164.819 87.5158 164.723 87.6958C164.639 87.8758 164.489 88.0318 164.273 88.1638C163.853 88.4278 163.367 88.6258 162.815 88.7578C162.275 88.8778 161.771 88.9378 161.303 88.9378ZM175.64 88.9378C174.86 88.9378 174.206 88.8058 173.678 88.5418C173.162 88.2778 172.778 87.8938 172.526 87.3898C172.274 86.8738 172.148 86.2378 172.148 85.4818V81.6478H171.212C170.924 81.6478 170.702 81.5758 170.546 81.4318C170.389 81.2758 170.311 81.0658 170.311 80.8018C170.311 80.5258 170.389 80.3158 170.546 80.1718C170.702 80.0278 170.924 79.9558 171.212 79.9558H172.148V78.3178C172.148 77.9458 172.244 77.6638 172.436 77.4718C172.64 77.2798 172.922 77.1838 173.282 77.1838C173.642 77.1838 173.918 77.2798 174.11 77.4718C174.302 77.6638 174.398 77.9458 174.398 78.3178V79.9558H176.306C176.594 79.9558 176.816 80.0278 176.972 80.1718C177.128 80.3158 177.206 80.5258 177.206 80.8018C177.206 81.0658 177.128 81.2758 176.972 81.4318C176.816 81.5758 176.594 81.6478 176.306 81.6478H174.398V85.3558C174.398 85.9318 174.524 86.3638 174.776 86.6518C175.028 86.9398 175.436 87.0838 176 87.0838C176.204 87.0838 176.384 87.0658 176.54 87.0298C176.696 86.9938 176.834 86.9698 176.954 86.9578C177.098 86.9458 177.218 86.9938 177.314 87.1018C177.41 87.1978 177.458 87.4018 177.458 87.7138C177.458 87.9538 177.416 88.1698 177.332 88.3618C177.26 88.5418 177.122 88.6678 176.918 88.7398C176.762 88.7878 176.558 88.8298 176.306 88.8658C176.054 88.9138 175.832 88.9378 175.64 88.9378ZM181.414 88.9378C180.778 88.9378 180.208 88.8178 179.704 88.5778C179.212 88.3258 178.822 87.9898 178.534 87.5698C178.258 87.1498 178.12 86.6758 178.12 86.1478C178.12 85.4998 178.288 84.9898 178.624 84.6178C178.96 84.2338 179.506 83.9578 180.262 83.7898C181.018 83.6218 182.032 83.5378 183.304 83.5378H184.204V84.8338H183.322C182.578 84.8338 181.984 84.8698 181.54 84.9418C181.096 85.0138 180.778 85.1398 180.586 85.3198C180.406 85.4878 180.316 85.7278 180.316 86.0398C180.316 86.4358 180.454 86.7598 180.73 87.0118C181.006 87.2638 181.39 87.3898 181.882 87.3898C182.278 87.3898 182.626 87.2998 182.926 87.1198C183.238 86.9278 183.484 86.6698 183.664 86.3458C183.844 86.0218 183.934 85.6498 183.934 85.2298V83.1598C183.934 82.5598 183.802 82.1278 183.538 81.8638C183.274 81.5998 182.83 81.4678 182.206 81.4678C181.858 81.4678 181.48 81.5098 181.072 81.5938C180.676 81.6778 180.256 81.8218 179.812 82.0258C179.584 82.1338 179.38 82.1638 179.2 82.1158C179.032 82.0678 178.9 81.9718 178.804 81.8278C178.708 81.6718 178.66 81.5038 178.66 81.3238C178.66 81.1438 178.708 80.9698 178.804 80.8018C178.9 80.6218 179.062 80.4898 179.29 80.4058C179.842 80.1778 180.37 80.0158 180.874 79.9198C181.39 79.8238 181.858 79.7758 182.278 79.7758C183.142 79.7758 183.85 79.9078 184.402 80.1718C184.966 80.4358 185.386 80.8378 185.662 81.3778C185.938 81.9058 186.076 82.5898 186.076 83.4298V87.7498C186.076 88.1218 185.986 88.4098 185.806 88.6138C185.626 88.8058 185.368 88.9018 185.032 88.9018C184.696 88.9018 184.432 88.8058 184.24 88.6138C184.06 88.4098 183.97 88.1218 183.97 87.7498V86.8858H184.114C184.03 87.3058 183.862 87.6718 183.61 87.9838C183.37 88.2838 183.064 88.5178 182.692 88.6858C182.32 88.8538 181.894 88.9378 181.414 88.9378ZM193.435 88.9378C192.691 88.9378 192.037 88.7518 191.473 88.3798C190.921 88.0078 190.555 87.5098 190.375 86.8858L190.573 86.4358V87.7498C190.573 88.1218 190.477 88.4098 190.285 88.6138C190.093 88.8058 189.823 88.9018 189.475 88.9018C189.115 88.9018 188.839 88.8058 188.647 88.6138C188.455 88.4098 188.359 88.1218 188.359 87.7498V77.0578C188.359 76.6858 188.455 76.4038 188.647 76.2118C188.839 76.0198 189.115 75.9238 189.475 75.9238C189.835 75.9238 190.111 76.0198 190.303 76.2118C190.507 76.4038 190.609 76.6858 190.609 77.0578V81.7378H190.393C190.585 81.1498 190.957 80.6758 191.509 80.3158C192.061 79.9558 192.703 79.7758 193.435 79.7758C194.215 79.7758 194.893 79.9618 195.469 80.3338C196.045 80.7058 196.495 81.2338 196.819 81.9178C197.143 82.5898 197.305 83.3998 197.305 84.3478C197.305 85.2838 197.143 86.0998 196.819 86.7958C196.495 87.4798 196.039 88.0078 195.451 88.3798C194.875 88.7518 194.203 88.9378 193.435 88.9378ZM192.805 87.2278C193.249 87.2278 193.639 87.1198 193.975 86.9038C194.311 86.6878 194.569 86.3698 194.749 85.9498C194.941 85.5178 195.037 84.9838 195.037 84.3478C195.037 83.3878 194.833 82.6738 194.425 82.2058C194.017 81.7258 193.477 81.4858 192.805 81.4858C192.361 81.4858 191.971 81.5938 191.635 81.8098C191.299 82.0138 191.035 82.3318 190.843 82.7638C190.663 83.1838 190.573 83.7118 190.573 84.3478C190.573 85.2958 190.777 86.0158 191.185 86.5078C191.593 86.9878 192.133 87.2278 192.805 87.2278ZM202.158 88.9378C201.162 88.9378 200.412 88.6558 199.908 88.0918C199.404 87.5158 199.152 86.6758 199.152 85.5718V77.0578C199.152 76.6858 199.248 76.4038 199.44 76.2118C199.632 76.0198 199.908 75.9238 200.268 75.9238C200.628 75.9238 200.904 76.0198 201.096 76.2118C201.3 76.4038 201.402 76.6858 201.402 77.0578V85.4638C201.402 86.0158 201.516 86.4238 201.744 86.6878C201.984 86.9518 202.32 87.0838 202.752 87.0838C202.848 87.0838 202.938 87.0838 203.022 87.0838C203.106 87.0718 203.19 87.0598 203.274 87.0478C203.442 87.0238 203.556 87.0718 203.616 87.1918C203.676 87.2998 203.706 87.5278 203.706 87.8758C203.706 88.1758 203.646 88.4098 203.526 88.5778C203.406 88.7458 203.208 88.8478 202.932 88.8838C202.812 88.8958 202.686 88.9078 202.554 88.9198C202.422 88.9318 202.29 88.9378 202.158 88.9378ZM207.798 88.9378C207.162 88.9378 206.592 88.8178 206.088 88.5778C205.596 88.3258 205.206 87.9898 204.918 87.5698C204.642 87.1498 204.504 86.6758 204.504 86.1478C204.504 85.4998 204.672 84.9898 205.008 84.6178C205.344 84.2338 205.89 83.9578 206.646 83.7898C207.402 83.6218 208.416 83.5378 209.688 83.5378H210.588V84.8338H209.706C208.962 84.8338 208.368 84.8698 207.924 84.9418C207.48 85.0138 207.162 85.1398 206.97 85.3198C206.79 85.4878 206.7 85.7278 206.7 86.0398C206.7 86.4358 206.838 86.7598 207.114 87.0118C207.39 87.2638 207.774 87.3898 208.266 87.3898C208.662 87.3898 209.01 87.2998 209.31 87.1198C209.622 86.9278 209.868 86.6698 210.048 86.3458C210.228 86.0218 210.318 85.6498 210.318 85.2298V83.1598C210.318 82.5598 210.186 82.1278 209.922 81.8638C209.658 81.5998 209.214 81.4678 208.59 81.4678C208.242 81.4678 207.864 81.5098 207.456 81.5938C207.06 81.6778 206.64 81.8218 206.196 82.0258C205.968 82.1338 205.764 82.1638 205.584 82.1158C205.416 82.0678 205.284 81.9718 205.188 81.8278C205.092 81.6718 205.044 81.5038 205.044 81.3238C205.044 81.1438 205.092 80.9698 205.188 80.8018C205.284 80.6218 205.446 80.4898 205.674 80.4058C206.226 80.1778 206.754 80.0158 207.258 79.9198C207.774 79.8238 208.242 79.7758 208.662 79.7758C209.526 79.7758 210.234 79.9078 210.786 80.1718C211.35 80.4358 211.77 80.8378 212.046 81.3778C212.322 81.9058 212.46 82.5898 212.46 83.4298V87.7498C212.46 88.1218 212.37 88.4098 212.19 88.6138C212.01 88.8058 211.752 88.9018 211.416 88.9018C211.08 88.9018 210.816 88.8058 210.624 88.6138C210.444 88.4098 210.354 88.1218 210.354 87.7498V86.8858H210.498C210.414 87.3058 210.246 87.6718 209.994 87.9838C209.754 88.2838 209.448 88.5178 209.076 88.6858C208.704 88.8538 208.278 88.9378 207.798 88.9378Z" fill="#101E37"/>
<rect x="90" y="112.659" width="310" height="31.4696" rx="5.24494" fill="#F3F6F9"/>
<g clip-path="url(#clip0_4149_8294)">
<path d="M107.691 132.962C108.852 132.961 109.98 132.573 110.895 131.858L113.772 134.733L114.697 133.809L111.821 130.932C112.543 129.998 112.927 128.846 112.911 127.664C112.895 126.483 112.479 125.342 111.731 124.428C110.984 123.513 109.949 122.878 108.794 122.627C107.64 122.376 106.435 122.523 105.375 123.045C104.315 123.567 103.463 124.432 102.957 125.499C102.452 126.567 102.323 127.775 102.591 128.925C102.86 130.075 103.51 131.101 104.436 131.835C105.362 132.568 106.509 132.967 107.691 132.965L107.691 132.962ZM107.691 123.804C108.468 123.803 109.227 124.033 109.873 124.464C110.519 124.896 111.023 125.509 111.32 126.226C111.618 126.944 111.696 127.733 111.544 128.495C111.393 129.257 111.019 129.957 110.47 130.506C109.921 131.055 109.221 131.429 108.459 131.58C107.697 131.732 106.908 131.654 106.19 131.356C105.473 131.059 104.86 130.555 104.429 129.909C103.997 129.263 103.767 128.504 103.768 127.727C103.77 126.687 104.184 125.69 104.919 124.955C105.654 124.22 106.651 123.806 107.691 123.804Z" fill="#38485C"/>
</g>
<rect x="89.3444" y="154.618" width="74.4033" height="29.2449" rx="5.90055" fill="white"/>
<rect x="89.3444" y="154.618" width="74.4033" height="29.2449" rx="5.90055" stroke="#E6EBF0" stroke-width="1.31123"/>
<g clip-path="url(#clip1_4149_8294)">
<path d="M144.813 167.464L147.357 170.008L149.901 167.464C150.157 167.209 150.57 167.209 150.825 167.464C151.081 167.72 151.081 168.133 150.825 168.389L147.816 171.398C147.56 171.654 147.147 171.654 146.892 171.398L143.882 168.389C143.627 168.133 143.627 167.72 143.882 167.464C144.138 167.215 144.558 167.209 144.813 167.464Z" fill="#38485C"/>
</g>
<rect x="172.926" y="154.618" width="74.4033" height="29.2449" rx="5.90055" fill="white"/>
<rect x="172.926" y="154.618" width="74.4033" height="29.2449" rx="5.90055" stroke="#E6EBF0" stroke-width="1.31123"/>
<g clip-path="url(#clip2_4149_8294)">
<path d="M228.395 167.464L230.939 170.008L233.483 167.464C233.739 167.209 234.152 167.209 234.407 167.464C234.663 167.72 234.663 168.133 234.407 168.389L231.398 171.398C231.142 171.654 230.729 171.654 230.474 171.398L227.464 168.389C227.209 168.133 227.209 167.72 227.464 167.464C227.72 167.215 228.14 167.209 228.395 167.464Z" fill="#38485C"/>
</g>
<rect x="256.508" y="154.618" width="74.4033" height="29.2449" rx="5.90055" fill="white"/>
<rect x="256.508" y="154.618" width="74.4033" height="29.2449" rx="5.90055" stroke="#E6EBF0" stroke-width="1.31123"/>
<g clip-path="url(#clip3_4149_8294)">
<path d="M311.977 167.464L314.521 170.008L317.065 167.464C317.321 167.209 317.734 167.209 317.989 167.464C318.245 167.72 318.245 168.133 317.989 168.389L314.98 171.398C314.725 171.654 314.311 171.654 314.056 171.398L311.047 168.389C310.791 168.133 310.791 167.72 311.047 167.464C311.302 167.215 311.722 167.209 311.977 167.464Z" fill="#38485C"/>
</g>
<rect x="340.746" y="154.618" width="56.4899" height="29.2449" rx="5.24494" fill="#336ACC"/>
<g clip-path="url(#clip4_4149_8294)">
<g clip-path="url(#clip5_4149_8294)">
<rect width="30.3249" height="48" transform="translate(90 195.863)" fill="#E6EBF0"/>
<rect width="119.404" height="48" transform="translate(120.325 195.863)" fill="#E6EBF0"/>
<rect x="127.906" y="213.471" width="37.4273" height="5.44397" rx="2" fill="#D1D8E0"/>
<rect x="127.906" y="220.811" width="104.242" height="5.44397" rx="2" fill="#D1D8E0"/>
<rect width="99.5677" height="48" transform="translate(239.729 195.863)" fill="#E6EBF0"/>
<rect x="247.31" y="213.471" width="37.4273" height="5.44397" rx="2" fill="#D1D8E0"/>
<rect x="247.31" y="220.811" width="84.4053" height="5.44397" rx="2" fill="#D1D8E0"/>
<rect width="99.5677" height="48" transform="translate(339.297 195.863)" fill="#E6EBF0"/>
<rect x="346.878" y="213.471" width="37.4273" height="5.44397" rx="2" fill="#D1D8E0"/>
<rect x="346.878" y="220.811" width="84.4052" height="5.44397" rx="2" fill="#D1D8E0"/>
<rect width="99.5677" height="48" transform="translate(438.865 195.863)" fill="#E6EBF0"/>
<rect x="446.446" y="213.471" width="37.4273" height="5.44397" rx="2" fill="#D1D8E0"/>
<rect x="446.446" y="220.811" width="84.4052" height="5.44397" rx="2" fill="#D1D8E0"/>
<rect width="99.5677" height="48" transform="translate(538.432 195.863)" fill="#E6EBF0"/>
<rect x="546.014" y="213.471" width="37.4273" height="5.44397" rx="2" fill="#D1D8E0"/>
<rect x="546.014" y="220.811" width="84.4053" height="5.44397" rx="2" fill="#D1D8E0"/>
</g>
<rect width="548" height="36" transform="translate(90 243.863)" fill="white"/>
<rect x="99.9505" y="256.651" width="10.4242" height="10.4242" rx="1.42148" fill="white"/>
<rect x="99.9505" y="256.651" width="10.4242" height="10.4242" rx="1.42148" stroke="#9EAAB8" stroke-width="0.947653"/>
<rect x="127.906" y="254.525" width="104.242" height="5.44397" rx="2" fill="#E6EBF0"/>
<rect x="127.906" y="263.76" width="45.2376" height="5.44" rx="2" fill="#E6EBF0"/>
<g clip-path="url(#clip6_4149_8294)">
<rect opacity="0.5" x="247.31" y="259.141" width="84.4053" height="5.44397" rx="2" fill="#CCF3FF"/>
</g>
<rect x="346.878" y="259.141" width="84.4052" height="5.44397" rx="2" fill="#E6EBF0"/>
<rect x="446.692" y="257.192" width="51.6298" height="9.34254" rx="3.75414" fill="#F3F6F9" stroke="#9EAAB8" stroke-width="0.491713"/>
<rect x="546.415" y="252.787" width="38.5255" height="18.151" rx="1.62219" fill="#F3F6F9" stroke="#005E7A" stroke-width="0.802109"/>
<line x1="90" y1="279.484" x2="638" y2="279.484" stroke="#E6EBF0" stroke-width="0.473827"/>
<rect width="548" height="36" transform="translate(90 279.863)" fill="white"/>
<rect x="99.9505" y="292.651" width="10.4242" height="10.4242" rx="1.42148" fill="white"/>
<rect x="99.9505" y="292.651" width="10.4242" height="10.4242" rx="1.42148" stroke="#9EAAB8" stroke-width="0.947653"/>
<rect x="127.906" y="290.525" width="104.242" height="5.44397" rx="2" fill="#E6EBF0"/>
<rect x="127.906" y="299.76" width="45.2376" height="5.44" rx="2" fill="#E6EBF0"/>
<g clip-path="url(#clip7_4149_8294)">
<rect opacity="0.5" x="247.31" y="295.141" width="84.4053" height="5.44397" rx="2" fill="#CCF3FF"/>
</g>
<rect x="346.878" y="295.141" width="84.4052" height="5.44397" rx="2" fill="#E6EBF0"/>
<rect x="446.692" y="293.192" width="51.6298" height="9.34254" rx="3.75414" fill="#F3F6F9" stroke="#9EAAB8" stroke-width="0.491713"/>
<rect x="546.415" y="288.787" width="38.5255" height="18.151" rx="1.62219" fill="#F3F6F9" stroke="#005E7A" stroke-width="0.802109"/>
<line x1="90" y1="315.483" x2="638" y2="315.483" stroke="#E6EBF0" stroke-width="0.473827"/>
<rect width="548" height="36" transform="translate(90 315.863)" fill="white"/>
<rect x="99.9505" y="328.651" width="10.4242" height="10.4242" rx="1.42148" fill="white"/>
<rect x="99.9505" y="328.651" width="10.4242" height="10.4242" rx="1.42148" stroke="#9EAAB8" stroke-width="0.947653"/>
<rect x="127.906" y="326.525" width="104.242" height="5.44397" rx="2" fill="#E6EBF0"/>
<rect x="127.906" y="335.76" width="45.2376" height="5.44" rx="2" fill="#E6EBF0"/>
<g clip-path="url(#clip8_4149_8294)">
<rect opacity="0.5" x="247.31" y="331.141" width="84.4053" height="5.44397" rx="2" fill="#CCF3FF"/>
</g>
<rect x="346.878" y="331.141" width="84.4052" height="5.44397" rx="2" fill="#E6EBF0"/>
<rect x="446.692" y="329.192" width="51.6298" height="9.34254" rx="3.75414" fill="#F3F6F9" stroke="#9EAAB8" stroke-width="0.491713"/>
<rect x="546.415" y="324.787" width="38.5255" height="18.151" rx="1.62219" fill="#F3F6F9" stroke="#005E7A" stroke-width="0.802109"/>
<line x1="90" y1="351.483" x2="638" y2="351.483" stroke="#E6EBF0" stroke-width="0.473827"/>
<rect width="548" height="36" transform="translate(90 351.863)" fill="white"/>
<rect x="99.9505" y="364.651" width="10.4242" height="10.4242" rx="1.42148" fill="white"/>
<rect x="99.9505" y="364.651" width="10.4242" height="10.4242" rx="1.42148" stroke="#9EAAB8" stroke-width="0.947653"/>
<rect x="127.906" y="362.525" width="104.242" height="5.44397" rx="2" fill="#E6EBF0"/>
<rect x="127.906" y="371.76" width="45.2376" height="5.44" rx="2" fill="#E6EBF0"/>
<g clip-path="url(#clip9_4149_8294)">
<rect opacity="0.5" x="247.31" y="367.141" width="84.4053" height="5.44397" rx="2" fill="#CCF3FF"/>
</g>
<rect x="346.878" y="367.141" width="84.4052" height="5.44397" rx="2" fill="#E6EBF0"/>
<rect x="446.692" y="365.192" width="51.6298" height="9.34254" rx="3.75414" fill="#F3F6F9" stroke="#9EAAB8" stroke-width="0.491713"/>
<rect x="546.415" y="360.787" width="38.5255" height="18.151" rx="1.62219" fill="#F3F6F9" stroke="#005E7A" stroke-width="0.802109"/>
<line x1="90" y1="387.484" x2="638" y2="387.484" stroke="#E6EBF0" stroke-width="0.473827"/>
<rect width="548" height="36" transform="translate(90 387.863)" fill="white"/>
<rect x="99.9505" y="400.651" width="10.4242" height="10.4242" rx="1.42148" fill="white"/>
<rect x="99.9505" y="400.651" width="10.4242" height="10.4242" rx="1.42148" stroke="#9EAAB8" stroke-width="0.947653"/>
<rect x="127.906" y="398.525" width="104.242" height="5.44397" rx="2" fill="#E6EBF0"/>
<rect x="127.906" y="407.76" width="45.2376" height="5.44" rx="2" fill="#E6EBF0"/>
<g clip-path="url(#clip10_4149_8294)">
<rect opacity="0.5" x="247.31" y="403.141" width="84.4053" height="5.44397" rx="2" fill="#CCF3FF"/>
</g>
<rect x="346.878" y="403.141" width="84.4052" height="5.44397" rx="2" fill="#E6EBF0"/>
<rect x="446.692" y="401.192" width="51.6298" height="9.34254" rx="3.75414" fill="#F3F6F9" stroke="#9EAAB8" stroke-width="0.491713"/>
<rect x="546.415" y="396.787" width="38.5255" height="18.151" rx="1.62219" fill="#F3F6F9" stroke="#005E7A" stroke-width="0.802109"/>
<line x1="90" y1="423.484" x2="638" y2="423.484" stroke="#E6EBF0" stroke-width="0.473827"/>
</g>
<rect x="90.2369" y="196.1" width="547.526" height="227.526" rx="3.5537" stroke="#E6EBF0" stroke-width="0.473827"/>
<rect x="90" y="445.108" width="99" height="8" rx="2" fill="#E6EBF0"/>
<rect x="199.162" y="437.635" width="35.6556" height="22.9466" rx="5.57274" fill="white"/>
<rect x="199.162" y="437.635" width="35.6556" height="22.9466" rx="5.57274" stroke="#E6E6E6" stroke-width="0.655617"/>
<g clip-path="url(#clip11_4149_8294)">
<path d="M218.834 447.331L221.377 449.875L223.921 447.331C224.177 447.076 224.59 447.076 224.846 447.331C225.101 447.587 225.101 448 224.846 448.256L221.836 451.265C221.581 451.521 221.168 451.521 220.912 451.265L217.903 448.256C217.647 448 217.647 447.587 217.903 447.331C218.158 447.082 218.578 447.076 218.834 447.331Z" fill="#38485C"/>
</g>
<rect x="405.976" y="435.207" width="24.046" height="27.8011" rx="5.90055" fill="#274986"/>
<rect x="405.976" y="435.207" width="24.046" height="27.8011" rx="5.90055" stroke="#D1D8E0" stroke-width="1.31123"/>
<rect x="433.956" y="435.207" width="24.046" height="27.8011" rx="5.90055" fill="white"/>
<rect x="433.956" y="435.207" width="24.046" height="27.8011" rx="5.90055" stroke="#D1D8E0" stroke-width="1.31123"/>
<rect x="461.935" y="435.207" width="26.046" height="27.8011" rx="5.90055" fill="white"/>
<rect x="461.935" y="435.207" width="26.046" height="27.8011" rx="5.90055" stroke="#D1D8E0" stroke-width="1.31123"/>
<rect x="491.915" y="435.207" width="30.046" height="27.8011" rx="5.90055" fill="white"/>
<rect x="491.915" y="435.207" width="30.046" height="27.8011" rx="5.90055" stroke="#D1D8E0" stroke-width="1.31123"/>
<rect x="525.895" y="435.207" width="30.046" height="27.8011" rx="5.90055" fill="white"/>
<rect x="525.895" y="435.207" width="30.046" height="27.8011" rx="5.90055" stroke="#D1D8E0" stroke-width="1.31123"/>
<rect x="559.875" y="435.207" width="78.7808" height="27.8011" rx="5.90055" fill="white"/>
<rect x="559.875" y="435.207" width="78.7808" height="27.8011" rx="5.90055" stroke="#D1D8E0" stroke-width="1.31123"/>
<g clip-path="url(#clip12_4149_8294)">
<path d="M623.111 451.651L625.655 449.107L623.111 446.563C622.855 446.308 622.855 445.895 623.111 445.639C623.367 445.383 623.78 445.383 624.035 445.639L627.045 448.648C627.3 448.904 627.3 449.317 627.045 449.573L624.035 452.582C623.78 452.838 623.367 452.838 623.111 452.582C622.862 452.326 622.855 451.907 623.111 451.651Z" fill="#505E70"/>
</g>
<rect x="48.4158" y="112.698" width="12.0001" height="631.953" transform="rotate(-90 48.4158 112.698)" fill="#F7E5FF"/>
<mask id="mask0_4149_8294" style="mask-type:alpha" maskUnits="userSpaceOnUse" x="48" y="100" width="633" height="13">
<rect x="48.4158" y="112.698" width="12.0001" height="631.953" transform="rotate(-90 48.4158 112.698)" fill="#F7E5FF"/>
</mask>
<g mask="url(#mask0_4149_8294)">
<line y1="-0.2" x2="114.768" y2="-0.2" transform="matrix(0.970603 0.240685 -0.970603 0.240685 27.4268 90.7983)" stroke="#C433FF" stroke-width="0.4"/>
<line y1="-0.2" x2="114.768" y2="-0.2" transform="matrix(0.970603 0.240685 -0.970603 0.240685 48.3234 90.7983)" stroke="#C433FF" stroke-width="0.4"/>
<line y1="-0.2" x2="114.768" y2="-0.2" transform="matrix(0.970603 0.240685 -0.970603 0.240685 -56.1201 90.7983)" stroke="#C433FF" stroke-width="0.4"/>
<line y1="-0.2" x2="114.768" y2="-0.2" transform="matrix(0.970603 0.240685 -0.970603 0.240685 6.53345 90.7983)" stroke="#C433FF" stroke-width="0.4"/>
<line y1="-0.2" x2="114.768" y2="-0.2" transform="matrix(0.970603 0.240685 -0.970603 0.240685 -14.3549 90.7983)" stroke="#C433FF" stroke-width="0.4"/>
<line y1="-0.2" x2="114.768" y2="-0.2" transform="matrix(0.970603 0.240685 -0.970603 0.240685 -35.2306 90.7983)" stroke="#C433FF" stroke-width="0.4"/>
<line y1="-0.2" x2="114.768" y2="-0.2" transform="matrix(0.970603 0.240685 -0.970603 0.240685 69.1963 90.7983)" stroke="#C433FF" stroke-width="0.4"/>
<line y1="-0.2" x2="114.768" y2="-0.2" transform="matrix(0.970603 0.240685 -0.970603 0.240685 91.4753 90.7983)" stroke="#C433FF" stroke-width="0.4"/>
<line y1="-0.2" x2="114.768" y2="-0.2" transform="matrix(0.970603 0.240685 -0.970603 0.240685 300.346 90.7983)" stroke="#C433FF" stroke-width="0.4"/>
<line y1="-0.2" x2="114.768" y2="-0.2" transform="matrix(0.970603 0.240685 -0.970603 0.240685 154.134 90.7983)" stroke="#C433FF" stroke-width="0.4"/>
<line y1="-0.2" x2="114.768" y2="-0.2" transform="matrix(0.970603 0.240685 -0.970603 0.240685 383.889 90.7983)" stroke="#C433FF" stroke-width="0.4"/>
<line y1="-0.2" x2="114.768" y2="-0.2" transform="matrix(0.970603 0.240685 -0.970603 0.240685 112.365 90.7983)" stroke="#C433FF" stroke-width="0.4"/>
<line y1="-0.2" x2="114.768" y2="-0.2" transform="matrix(0.970603 0.240685 -0.970603 0.240685 342.111 90.7983)" stroke="#C433FF" stroke-width="0.4"/>
<line y1="-0.2" x2="114.768" y2="-0.2" transform="matrix(0.970603 0.240685 -0.970603 0.240685 175.024 90.7983)" stroke="#C433FF" stroke-width="0.4"/>
<line y1="-0.2" x2="114.768" y2="-0.2" transform="matrix(0.970603 0.240685 -0.970603 0.240685 321.236 90.7983)" stroke="#C433FF" stroke-width="0.4"/>
<line y1="-0.2" x2="114.768" y2="-0.2" transform="matrix(0.970603 0.240685 -0.970603 0.240685 195.919 90.7983)" stroke="#C433FF" stroke-width="0.4"/>
<line y1="-0.2" x2="114.768" y2="-0.2" transform="matrix(0.970603 0.240685 -0.970603 0.240685 425.663 90.7983)" stroke="#C433FF" stroke-width="0.4"/>
<line y1="-0.2" x2="114.768" y2="-0.2" transform="matrix(0.970603 0.240685 -0.970603 0.240685 216.792 90.7983)" stroke="#C433FF" stroke-width="0.4"/>
<line y1="-0.2" x2="114.768" y2="-0.2" transform="matrix(0.970603 0.240685 -0.970603 0.240685 363.001 90.7983)" stroke="#C433FF" stroke-width="0.4"/>
<line y1="-0.2" x2="114.768" y2="-0.2" transform="matrix(0.970603 0.240685 -0.970603 0.240685 237.682 90.7983)" stroke="#C433FF" stroke-width="0.4"/>
<line y1="-0.2" x2="114.768" y2="-0.2" transform="matrix(0.970603 0.240685 -0.970603 0.240685 258.577 90.7983)" stroke="#C433FF" stroke-width="0.4"/>
<line y1="-0.2" x2="114.768" y2="-0.2" transform="matrix(0.970603 0.240685 -0.970603 0.240685 404.773 90.7983)" stroke="#C433FF" stroke-width="0.4"/>
<line y1="-0.2" x2="114.768" y2="-0.2" transform="matrix(0.970603 0.240685 -0.970603 0.240685 279.451 90.7983)" stroke="#C433FF" stroke-width="0.4"/>
<line y1="-0.2" x2="114.768" y2="-0.2" transform="matrix(0.970603 0.240685 -0.970603 0.240685 133.252 90.7983)" stroke="#C433FF" stroke-width="0.4"/>
<line y1="-0.2" x2="114.768" y2="-0.2" transform="matrix(0.970603 0.240685 -0.970603 0.240685 447.939 90.7983)" stroke="#C433FF" stroke-width="0.4"/>
<line y1="-0.2" x2="114.768" y2="-0.2" transform="matrix(0.970603 0.240685 -0.970603 0.240685 468.827 90.7983)" stroke="#C433FF" stroke-width="0.4"/>
<line y1="-0.2" x2="114.768" y2="-0.2" transform="matrix(0.970603 0.240685 -0.970603 0.240685 489.708 90.7983)" stroke="#C433FF" stroke-width="0.4"/>
<line y1="-0.2" x2="114.768" y2="-0.2" transform="matrix(0.970603 0.240685 -0.970603 0.240685 510.593 90.7983)" stroke="#C433FF" stroke-width="0.4"/>
<line y1="-0.2" x2="114.768" y2="-0.2" transform="matrix(0.970603 0.240685 -0.970603 0.240685 531.486 90.7983)" stroke="#C433FF" stroke-width="0.4"/>
<line y1="-0.2" x2="114.768" y2="-0.2" transform="matrix(0.970603 0.240685 -0.970603 0.240685 552.366 90.7983)" stroke="#C433FF" stroke-width="0.4"/>
<line y1="-0.2" x2="114.768" y2="-0.2" transform="matrix(0.970603 0.240685 -0.970603 0.240685 573.263 90.7983)" stroke="#C433FF" stroke-width="0.4"/>
<line y1="-0.2" x2="114.768" y2="-0.2" transform="matrix(0.970603 0.240685 -0.970603 0.240685 594.145 90.7983)" stroke="#C433FF" stroke-width="0.4"/>
<line y1="-0.2" x2="114.768" y2="-0.2" transform="matrix(0.970603 0.240685 -0.970603 0.240685 615.021 90.7983)" stroke="#C433FF" stroke-width="0.4"/>
<line y1="-0.2" x2="114.768" y2="-0.2" transform="matrix(0.970603 0.240685 -0.970603 0.240685 635.913 90.7983)" stroke="#C433FF" stroke-width="0.4"/>
<line y1="-0.2" x2="114.768" y2="-0.2" transform="matrix(0.970603 0.240685 -0.970603 0.240685 656.81 90.7983)" stroke="#C433FF" stroke-width="0.4"/>
<line y1="-0.2" x2="114.768" y2="-0.2" transform="matrix(0.970603 0.240685 -0.970603 0.240685 677.681 90.7983)" stroke="#C433FF" stroke-width="0.4"/>
</g>
<path d="M47.6311 112.698L42.9999 112.698M47.6311 112.698L52.2622 112.698M47.6311 112.698L47.6311 100.698M47.6311 100.698L42.9999 100.698M47.6311 100.698L52.2622 100.698" stroke="#9100CC" stroke-linecap="round"/>
<path d="M680.369 112.698L675.738 112.698M680.369 112.698L685 112.698M680.369 112.698L680.369 100.698M680.369 100.698L675.738 100.698M680.369 100.698L685 100.698" stroke="#9100CC" stroke-linecap="round"/>
<rect x="48.4158" y="196" width="12.3287" height="631.953" transform="rotate(-90 48.4158 196)" fill="#F7E5FF"/>
<mask id="mask1_4149_8294" style="mask-type:alpha" maskUnits="userSpaceOnUse" x="48" y="183" width="633" height="13">
<rect x="48.4158" y="196" width="12.3287" height="631.953" transform="rotate(-90 48.4158 196)" fill="#F7E5FF"/>
</mask>
<g mask="url(#mask1_4149_8294)">
<line y1="-0.2" x2="114.953" y2="-0.2" transform="matrix(0.969046 0.24688 -0.969046 0.24688 27.4268 173.501)" stroke="#C433FF" stroke-width="0.4"/>
<line y1="-0.2" x2="114.953" y2="-0.2" transform="matrix(0.969046 0.24688 -0.969046 0.24688 48.3234 173.501)" stroke="#C433FF" stroke-width="0.4"/>
<line y1="-0.2" x2="114.953" y2="-0.2" transform="matrix(0.969046 0.24688 -0.969046 0.24688 -56.1201 173.501)" stroke="#C433FF" stroke-width="0.4"/>
<line y1="-0.2" x2="114.953" y2="-0.2" transform="matrix(0.969046 0.24688 -0.969046 0.24688 6.53345 173.501)" stroke="#C433FF" stroke-width="0.4"/>
<line y1="-0.2" x2="114.953" y2="-0.2" transform="matrix(0.969046 0.24688 -0.969046 0.24688 -14.3549 173.501)" stroke="#C433FF" stroke-width="0.4"/>
<line y1="-0.2" x2="114.953" y2="-0.2" transform="matrix(0.969046 0.24688 -0.969046 0.24688 -35.2306 173.501)" stroke="#C433FF" stroke-width="0.4"/>
<line y1="-0.2" x2="114.953" y2="-0.2" transform="matrix(0.969046 0.24688 -0.969046 0.24688 69.1963 173.501)" stroke="#C433FF" stroke-width="0.4"/>
<line y1="-0.2" x2="114.953" y2="-0.2" transform="matrix(0.969046 0.24688 -0.969046 0.24688 91.4753 173.501)" stroke="#C433FF" stroke-width="0.4"/>
<line y1="-0.2" x2="114.953" y2="-0.2" transform="matrix(0.969046 0.24688 -0.969046 0.24688 300.346 173.501)" stroke="#C433FF" stroke-width="0.4"/>
<line y1="-0.2" x2="114.953" y2="-0.2" transform="matrix(0.969046 0.24688 -0.969046 0.24688 154.134 173.501)" stroke="#C433FF" stroke-width="0.4"/>
<line y1="-0.2" x2="114.953" y2="-0.2" transform="matrix(0.969046 0.24688 -0.969046 0.24688 383.889 173.501)" stroke="#C433FF" stroke-width="0.4"/>
<line y1="-0.2" x2="114.953" y2="-0.2" transform="matrix(0.969046 0.24688 -0.969046 0.24688 112.365 173.501)" stroke="#C433FF" stroke-width="0.4"/>
<line y1="-0.2" x2="114.953" y2="-0.2" transform="matrix(0.969046 0.24688 -0.969046 0.24688 342.111 173.501)" stroke="#C433FF" stroke-width="0.4"/>
<line y1="-0.2" x2="114.953" y2="-0.2" transform="matrix(0.969046 0.24688 -0.969046 0.24688 175.024 173.501)" stroke="#C433FF" stroke-width="0.4"/>
<line y1="-0.2" x2="114.953" y2="-0.2" transform="matrix(0.969046 0.24688 -0.969046 0.24688 321.236 173.501)" stroke="#C433FF" stroke-width="0.4"/>
<line y1="-0.2" x2="114.953" y2="-0.2" transform="matrix(0.969046 0.24688 -0.969046 0.24688 195.919 173.501)" stroke="#C433FF" stroke-width="0.4"/>
<line y1="-0.2" x2="114.953" y2="-0.2" transform="matrix(0.969046 0.24688 -0.969046 0.24688 425.663 173.501)" stroke="#C433FF" stroke-width="0.4"/>
<line y1="-0.2" x2="114.953" y2="-0.2" transform="matrix(0.969046 0.24688 -0.969046 0.24688 216.792 173.501)" stroke="#C433FF" stroke-width="0.4"/>
<line y1="-0.2" x2="114.953" y2="-0.2" transform="matrix(0.969046 0.24688 -0.969046 0.24688 363.001 173.501)" stroke="#C433FF" stroke-width="0.4"/>
<line y1="-0.2" x2="114.953" y2="-0.2" transform="matrix(0.969046 0.24688 -0.969046 0.24688 237.682 173.501)" stroke="#C433FF" stroke-width="0.4"/>
<line y1="-0.2" x2="114.953" y2="-0.2" transform="matrix(0.969046 0.24688 -0.969046 0.24688 258.577 173.501)" stroke="#C433FF" stroke-width="0.4"/>
<line y1="-0.2" x2="114.953" y2="-0.2" transform="matrix(0.969046 0.24688 -0.969046 0.24688 404.773 173.501)" stroke="#C433FF" stroke-width="0.4"/>
<line y1="-0.2" x2="114.953" y2="-0.2" transform="matrix(0.969046 0.24688 -0.969046 0.24688 279.451 173.501)" stroke="#C433FF" stroke-width="0.4"/>
<line y1="-0.2" x2="114.953" y2="-0.2" transform="matrix(0.969046 0.24688 -0.969046 0.24688 133.252 173.501)" stroke="#C433FF" stroke-width="0.4"/>
<line y1="-0.2" x2="114.953" y2="-0.2" transform="matrix(0.969046 0.24688 -0.969046 0.24688 447.939 173.501)" stroke="#C433FF" stroke-width="0.4"/>
<line y1="-0.2" x2="114.953" y2="-0.2" transform="matrix(0.969046 0.24688 -0.969046 0.24688 468.827 173.501)" stroke="#C433FF" stroke-width="0.4"/>
<line y1="-0.2" x2="114.953" y2="-0.2" transform="matrix(0.969046 0.24688 -0.969046 0.24688 489.708 173.501)" stroke="#C433FF" stroke-width="0.4"/>
<line y1="-0.2" x2="114.953" y2="-0.2" transform="matrix(0.969046 0.24688 -0.969046 0.24688 510.593 173.501)" stroke="#C433FF" stroke-width="0.4"/>
<line y1="-0.2" x2="114.953" y2="-0.2" transform="matrix(0.969046 0.24688 -0.969046 0.24688 531.486 173.501)" stroke="#C433FF" stroke-width="0.4"/>
<line y1="-0.2" x2="114.953" y2="-0.2" transform="matrix(0.969046 0.24688 -0.969046 0.24688 552.366 173.501)" stroke="#C433FF" stroke-width="0.4"/>
<line y1="-0.2" x2="114.953" y2="-0.2" transform="matrix(0.969046 0.24688 -0.969046 0.24688 573.263 173.501)" stroke="#C433FF" stroke-width="0.4"/>
<line y1="-0.2" x2="114.953" y2="-0.2" transform="matrix(0.969046 0.24688 -0.969046 0.24688 594.145 173.501)" stroke="#C433FF" stroke-width="0.4"/>
<line y1="-0.2" x2="114.953" y2="-0.2" transform="matrix(0.969046 0.24688 -0.969046 0.24688 615.021 173.501)" stroke="#C433FF" stroke-width="0.4"/>
<line y1="-0.2" x2="114.953" y2="-0.2" transform="matrix(0.969046 0.24688 -0.969046 0.24688 635.913 173.501)" stroke="#C433FF" stroke-width="0.4"/>
<line y1="-0.2" x2="114.953" y2="-0.2" transform="matrix(0.969046 0.24688 -0.969046 0.24688 656.81 173.501)" stroke="#C433FF" stroke-width="0.4"/>
<line y1="-0.2" x2="114.953" y2="-0.2" transform="matrix(0.969046 0.24688 -0.969046 0.24688 677.681 173.501)" stroke="#C433FF" stroke-width="0.4"/>
</g>
<path d="M47.6312 196L43 196M47.6312 196L52.2623 196M47.6312 196L47.6312 183.671M47.6312 183.671L43 183.671M47.6312 183.671L52.2623 183.671" stroke="#9100CC" stroke-linecap="round"/>
<path d="M680.369 196L675.738 196M680.369 196L685 196M680.369 196L680.369 183.671M680.369 183.671L675.738 183.671M680.369 183.671L685 183.671" stroke="#9100CC" stroke-linecap="round"/>
<rect x="48.4158" y="435.698" width="12.0001" height="631.953" transform="rotate(-90 48.4158 435.698)" fill="#F7E5FF"/>
<mask id="mask2_4149_8294" style="mask-type:alpha" maskUnits="userSpaceOnUse" x="48" y="423" width="633" height="13">
<rect x="48.4158" y="435.698" width="12.0001" height="631.953" transform="rotate(-90 48.4158 435.698)" fill="#F7E5FF"/>
</mask>
<g mask="url(#mask2_4149_8294)">
<line y1="-0.2" x2="114.768" y2="-0.2" transform="matrix(0.970603 0.240685 -0.970603 0.240685 27.4268 413.798)" stroke="#C433FF" stroke-width="0.4"/>
<line y1="-0.2" x2="114.768" y2="-0.2" transform="matrix(0.970603 0.240685 -0.970603 0.240685 48.3234 413.798)" stroke="#C433FF" stroke-width="0.4"/>
<line y1="-0.2" x2="114.768" y2="-0.2" transform="matrix(0.970603 0.240685 -0.970603 0.240685 -56.1201 413.798)" stroke="#C433FF" stroke-width="0.4"/>
<line y1="-0.2" x2="114.768" y2="-0.2" transform="matrix(0.970603 0.240685 -0.970603 0.240685 6.53345 413.798)" stroke="#C433FF" stroke-width="0.4"/>
<line y1="-0.2" x2="114.768" y2="-0.2" transform="matrix(0.970603 0.240685 -0.970603 0.240685 -14.3549 413.798)" stroke="#C433FF" stroke-width="0.4"/>
<line y1="-0.2" x2="114.768" y2="-0.2" transform="matrix(0.970603 0.240685 -0.970603 0.240685 -35.2306 413.798)" stroke="#C433FF" stroke-width="0.4"/>
<line y1="-0.2" x2="114.768" y2="-0.2" transform="matrix(0.970603 0.240685 -0.970603 0.240685 69.1963 413.798)" stroke="#C433FF" stroke-width="0.4"/>
<line y1="-0.2" x2="114.768" y2="-0.2" transform="matrix(0.970603 0.240685 -0.970603 0.240685 91.4753 413.798)" stroke="#C433FF" stroke-width="0.4"/>
<line y1="-0.2" x2="114.768" y2="-0.2" transform="matrix(0.970603 0.240685 -0.970603 0.240685 300.346 413.798)" stroke="#C433FF" stroke-width="0.4"/>
<line y1="-0.2" x2="114.768" y2="-0.2" transform="matrix(0.970603 0.240685 -0.970603 0.240685 154.134 413.798)" stroke="#C433FF" stroke-width="0.4"/>
<line y1="-0.2" x2="114.768" y2="-0.2" transform="matrix(0.970603 0.240685 -0.970603 0.240685 383.889 413.798)" stroke="#C433FF" stroke-width="0.4"/>
<line y1="-0.2" x2="114.768" y2="-0.2" transform="matrix(0.970603 0.240685 -0.970603 0.240685 112.365 413.798)" stroke="#C433FF" stroke-width="0.4"/>
<line y1="-0.2" x2="114.768" y2="-0.2" transform="matrix(0.970603 0.240685 -0.970603 0.240685 342.111 413.798)" stroke="#C433FF" stroke-width="0.4"/>
<line y1="-0.2" x2="114.768" y2="-0.2" transform="matrix(0.970603 0.240685 -0.970603 0.240685 175.024 413.798)" stroke="#C433FF" stroke-width="0.4"/>
<line y1="-0.2" x2="114.768" y2="-0.2" transform="matrix(0.970603 0.240685 -0.970603 0.240685 321.236 413.798)" stroke="#C433FF" stroke-width="0.4"/>
<line y1="-0.2" x2="114.768" y2="-0.2" transform="matrix(0.970603 0.240685 -0.970603 0.240685 195.919 413.798)" stroke="#C433FF" stroke-width="0.4"/>
<line y1="-0.2" x2="114.768" y2="-0.2" transform="matrix(0.970603 0.240685 -0.970603 0.240685 425.663 413.798)" stroke="#C433FF" stroke-width="0.4"/>
<line y1="-0.2" x2="114.768" y2="-0.2" transform="matrix(0.970603 0.240685 -0.970603 0.240685 216.792 413.798)" stroke="#C433FF" stroke-width="0.4"/>
<line y1="-0.2" x2="114.768" y2="-0.2" transform="matrix(0.970603 0.240685 -0.970603 0.240685 363.001 413.798)" stroke="#C433FF" stroke-width="0.4"/>
<line y1="-0.2" x2="114.768" y2="-0.2" transform="matrix(0.970603 0.240685 -0.970603 0.240685 237.682 413.798)" stroke="#C433FF" stroke-width="0.4"/>
<line y1="-0.2" x2="114.768" y2="-0.2" transform="matrix(0.970603 0.240685 -0.970603 0.240685 258.577 413.798)" stroke="#C433FF" stroke-width="0.4"/>
<line y1="-0.2" x2="114.768" y2="-0.2" transform="matrix(0.970603 0.240685 -0.970603 0.240685 404.773 413.798)" stroke="#C433FF" stroke-width="0.4"/>
<line y1="-0.2" x2="114.768" y2="-0.2" transform="matrix(0.970603 0.240685 -0.970603 0.240685 279.451 413.798)" stroke="#C433FF" stroke-width="0.4"/>
<line y1="-0.2" x2="114.768" y2="-0.2" transform="matrix(0.970603 0.240685 -0.970603 0.240685 133.252 413.798)" stroke="#C433FF" stroke-width="0.4"/>
<line y1="-0.2" x2="114.768" y2="-0.2" transform="matrix(0.970603 0.240685 -0.970603 0.240685 447.939 413.798)" stroke="#C433FF" stroke-width="0.4"/>
<line y1="-0.2" x2="114.768" y2="-0.2" transform="matrix(0.970603 0.240685 -0.970603 0.240685 468.827 413.798)" stroke="#C433FF" stroke-width="0.4"/>
<line y1="-0.2" x2="114.768" y2="-0.2" transform="matrix(0.970603 0.240685 -0.970603 0.240685 489.708 413.798)" stroke="#C433FF" stroke-width="0.4"/>
<line y1="-0.2" x2="114.768" y2="-0.2" transform="matrix(0.970603 0.240685 -0.970603 0.240685 510.593 413.798)" stroke="#C433FF" stroke-width="0.4"/>
<line y1="-0.2" x2="114.768" y2="-0.2" transform="matrix(0.970603 0.240685 -0.970603 0.240685 531.486 413.798)" stroke="#C433FF" stroke-width="0.4"/>
<line y1="-0.2" x2="114.768" y2="-0.2" transform="matrix(0.970603 0.240685 -0.970603 0.240685 552.366 413.798)" stroke="#C433FF" stroke-width="0.4"/>
<line y1="-0.2" x2="114.768" y2="-0.2" transform="matrix(0.970603 0.240685 -0.970603 0.240685 573.263 413.798)" stroke="#C433FF" stroke-width="0.4"/>
<line y1="-0.2" x2="114.768" y2="-0.2" transform="matrix(0.970603 0.240685 -0.970603 0.240685 594.145 413.798)" stroke="#C433FF" stroke-width="0.4"/>
<line y1="-0.2" x2="114.768" y2="-0.2" transform="matrix(0.970603 0.240685 -0.970603 0.240685 615.021 413.798)" stroke="#C433FF" stroke-width="0.4"/>
<line y1="-0.2" x2="114.768" y2="-0.2" transform="matrix(0.970603 0.240685 -0.970603 0.240685 635.913 413.798)" stroke="#C433FF" stroke-width="0.4"/>
<line y1="-0.2" x2="114.768" y2="-0.2" transform="matrix(0.970603 0.240685 -0.970603 0.240685 656.81 413.798)" stroke="#C433FF" stroke-width="0.4"/>
<line y1="-0.2" x2="114.768" y2="-0.2" transform="matrix(0.970603 0.240685 -0.970603 0.240685 677.681 413.798)" stroke="#C433FF" stroke-width="0.4"/>
</g>
<path d="M47.6311 435.698L42.9999 435.698M47.6311 435.698L52.2622 435.698M47.6311 435.698L47.6311 423.698M47.6311 423.698L42.9999 423.698M47.6311 423.698L52.2622 423.698" stroke="#9100CC" stroke-linecap="round"/>
<path d="M680.369 435.698L675.738 435.698M680.369 435.698L685 435.698M680.369 435.698L680.369 423.698M680.369 423.698L675.738 423.698M680.369 423.698L685 423.698" stroke="#9100CC" stroke-linecap="round"/>
<rect x="48.4158" y="154" width="10.3025" height="631.953" transform="rotate(-90 48.4158 154)" fill="#F7E5FF"/>
<mask id="mask3_4149_8294" style="mask-type:alpha" maskUnits="userSpaceOnUse" x="48" y="143" width="633" height="11">
<rect x="48.4158" y="154" width="10.3025" height="631.953" transform="rotate(-90 48.4158 154)" fill="#F7E5FF"/>
</mask>
<g mask="url(#mask3_4149_8294)">
<line y1="-0.2" x2="113.891" y2="-0.2" transform="matrix(0.97808 0.208228 -0.97808 0.208228 27.4268 135.198)" stroke="#C433FF" stroke-width="0.4"/>
<line y1="-0.2" x2="113.891" y2="-0.2" transform="matrix(0.97808 0.208228 -0.97808 0.208228 48.3234 135.198)" stroke="#C433FF" stroke-width="0.4"/>
<line y1="-0.2" x2="113.891" y2="-0.2" transform="matrix(0.97808 0.208228 -0.97808 0.208228 -56.1201 135.198)" stroke="#C433FF" stroke-width="0.4"/>
<line y1="-0.2" x2="113.891" y2="-0.2" transform="matrix(0.97808 0.208228 -0.97808 0.208228 6.53345 135.198)" stroke="#C433FF" stroke-width="0.4"/>
<line y1="-0.2" x2="113.891" y2="-0.2" transform="matrix(0.97808 0.208228 -0.97808 0.208228 -14.3549 135.198)" stroke="#C433FF" stroke-width="0.4"/>
<line y1="-0.2" x2="113.891" y2="-0.2" transform="matrix(0.97808 0.208228 -0.97808 0.208228 -35.2306 135.198)" stroke="#C433FF" stroke-width="0.4"/>
<line y1="-0.2" x2="113.891" y2="-0.2" transform="matrix(0.97808 0.208228 -0.97808 0.208228 69.1963 135.198)" stroke="#C433FF" stroke-width="0.4"/>
<line y1="-0.2" x2="113.891" y2="-0.2" transform="matrix(0.97808 0.208228 -0.97808 0.208228 91.4753 135.198)" stroke="#C433FF" stroke-width="0.4"/>
<line y1="-0.2" x2="113.891" y2="-0.2" transform="matrix(0.97808 0.208228 -0.97808 0.208228 300.346 135.198)" stroke="#C433FF" stroke-width="0.4"/>
<line y1="-0.2" x2="113.891" y2="-0.2" transform="matrix(0.97808 0.208228 -0.97808 0.208228 154.134 135.198)" stroke="#C433FF" stroke-width="0.4"/>
<line y1="-0.2" x2="113.891" y2="-0.2" transform="matrix(0.97808 0.208228 -0.97808 0.208228 383.889 135.198)" stroke="#C433FF" stroke-width="0.4"/>
<line y1="-0.2" x2="113.891" y2="-0.2" transform="matrix(0.97808 0.208228 -0.97808 0.208228 112.365 135.198)" stroke="#C433FF" stroke-width="0.4"/>
<line y1="-0.2" x2="113.891" y2="-0.2" transform="matrix(0.97808 0.208228 -0.97808 0.208228 342.111 135.198)" stroke="#C433FF" stroke-width="0.4"/>
<line y1="-0.2" x2="113.891" y2="-0.2" transform="matrix(0.97808 0.208228 -0.97808 0.208228 175.024 135.198)" stroke="#C433FF" stroke-width="0.4"/>
<line y1="-0.2" x2="113.891" y2="-0.2" transform="matrix(0.97808 0.208228 -0.97808 0.208228 321.236 135.198)" stroke="#C433FF" stroke-width="0.4"/>
<line y1="-0.2" x2="113.891" y2="-0.2" transform="matrix(0.97808 0.208228 -0.97808 0.208228 195.919 135.198)" stroke="#C433FF" stroke-width="0.4"/>
<line y1="-0.2" x2="113.891" y2="-0.2" transform="matrix(0.97808 0.208228 -0.97808 0.208228 425.663 135.198)" stroke="#C433FF" stroke-width="0.4"/>
<line y1="-0.2" x2="113.891" y2="-0.2" transform="matrix(0.97808 0.208228 -0.97808 0.208228 216.792 135.198)" stroke="#C433FF" stroke-width="0.4"/>
<line y1="-0.2" x2="113.891" y2="-0.2" transform="matrix(0.97808 0.208228 -0.97808 0.208228 363.001 135.198)" stroke="#C433FF" stroke-width="0.4"/>
<line y1="-0.2" x2="113.891" y2="-0.2" transform="matrix(0.97808 0.208228 -0.97808 0.208228 237.682 135.198)" stroke="#C433FF" stroke-width="0.4"/>
<line y1="-0.2" x2="113.891" y2="-0.2" transform="matrix(0.97808 0.208228 -0.97808 0.208228 258.577 135.198)" stroke="#C433FF" stroke-width="0.4"/>
<line y1="-0.2" x2="113.891" y2="-0.2" transform="matrix(0.97808 0.208228 -0.97808 0.208228 404.773 135.198)" stroke="#C433FF" stroke-width="0.4"/>
<line y1="-0.2" x2="113.891" y2="-0.2" transform="matrix(0.97808 0.208228 -0.97808 0.208228 279.451 135.198)" stroke="#C433FF" stroke-width="0.4"/>
<line y1="-0.2" x2="113.891" y2="-0.2" transform="matrix(0.97808 0.208228 -0.97808 0.208228 133.252 135.198)" stroke="#C433FF" stroke-width="0.4"/>
<line y1="-0.2" x2="113.891" y2="-0.2" transform="matrix(0.97808 0.208228 -0.97808 0.208228 447.939 135.198)" stroke="#C433FF" stroke-width="0.4"/>
<line y1="-0.2" x2="113.891" y2="-0.2" transform="matrix(0.97808 0.208228 -0.97808 0.208228 468.827 135.198)" stroke="#C433FF" stroke-width="0.4"/>
<line y1="-0.2" x2="113.891" y2="-0.2" transform="matrix(0.97808 0.208228 -0.97808 0.208228 489.708 135.198)" stroke="#C433FF" stroke-width="0.4"/>
<line y1="-0.2" x2="113.891" y2="-0.2" transform="matrix(0.97808 0.208228 -0.97808 0.208228 510.593 135.198)" stroke="#C433FF" stroke-width="0.4"/>
<line y1="-0.2" x2="113.891" y2="-0.2" transform="matrix(0.97808 0.208228 -0.97808 0.208228 531.486 135.198)" stroke="#C433FF" stroke-width="0.4"/>
<line y1="-0.2" x2="113.891" y2="-0.2" transform="matrix(0.97808 0.208228 -0.97808 0.208228 552.366 135.198)" stroke="#C433FF" stroke-width="0.4"/>
<line y1="-0.2" x2="113.891" y2="-0.2" transform="matrix(0.97808 0.208228 -0.97808 0.208228 573.263 135.198)" stroke="#C433FF" stroke-width="0.4"/>
<line y1="-0.2" x2="113.891" y2="-0.2" transform="matrix(0.97808 0.208228 -0.97808 0.208228 594.145 135.198)" stroke="#C433FF" stroke-width="0.4"/>
<line y1="-0.2" x2="113.891" y2="-0.2" transform="matrix(0.97808 0.208228 -0.97808 0.208228 615.021 135.198)" stroke="#C433FF" stroke-width="0.4"/>
<line y1="-0.2" x2="113.891" y2="-0.2" transform="matrix(0.97808 0.208228 -0.97808 0.208228 635.913 135.198)" stroke="#C433FF" stroke-width="0.4"/>
<line y1="-0.2" x2="113.891" y2="-0.2" transform="matrix(0.97808 0.208228 -0.97808 0.208228 656.81 135.198)" stroke="#C433FF" stroke-width="0.4"/>
<line y1="-0.2" x2="113.891" y2="-0.2" transform="matrix(0.97808 0.208228 -0.97808 0.208228 677.681 135.198)" stroke="#C433FF" stroke-width="0.4"/>
</g>
<path d="M47.6311 154L42.9999 154M47.6311 154L52.2622 154M47.6311 154L47.6311 143.698M47.6311 143.698L42.9999 143.698M47.6311 143.698L52.2622 143.698" stroke="#9100CC" stroke-linecap="round"/>
<path d="M680.369 154L675.738 154M680.369 154L685 154M680.369 154L680.369 143.698M680.369 143.698L675.738 143.698M680.369 143.698L685 143.698" stroke="#9100CC" stroke-linecap="round"/>
<rect x="718" y="98.6978" width="15" height="30" rx="7.5" transform="rotate(90 718 98.6978)" fill="#9100CC"/>
<path d="M696.525 109.198H692.502V108.614L694.144 106.947C694.449 106.639 694.705 106.365 694.912 106.124C695.122 105.883 695.282 105.647 695.391 105.414C695.5 105.179 695.555 104.922 695.555 104.642C695.555 104.294 695.451 104.03 695.244 103.848C695.04 103.663 694.77 103.571 694.434 103.571C694.14 103.571 693.879 103.621 693.653 103.722C693.426 103.823 693.193 103.966 692.955 104.15L692.582 103.68C692.744 103.543 692.92 103.421 693.111 103.315C693.304 103.208 693.51 103.124 693.728 103.063C693.949 103.001 694.184 102.97 694.434 102.97C694.812 102.97 695.138 103.036 695.412 103.168C695.686 103.299 695.898 103.487 696.046 103.73C696.197 103.974 696.273 104.264 696.273 104.6C696.273 104.924 696.208 105.227 696.08 105.507C695.951 105.784 695.77 106.06 695.538 106.334C695.306 106.605 695.034 106.894 694.723 107.199L693.388 108.53V108.559H696.525V109.198ZM701.753 107.774H700.833V109.198H700.153V107.774H697.184V107.186L700.107 103.025H700.833V107.144H701.753V107.774ZM700.153 107.144V105.137C700.153 104.983 700.154 104.845 700.157 104.721C700.16 104.595 700.164 104.479 700.17 104.373C700.175 104.264 700.18 104.16 700.182 104.062C700.188 103.964 700.192 103.868 700.195 103.772H700.161C700.108 103.884 700.047 104.003 699.977 104.129C699.909 104.252 699.841 104.363 699.771 104.461L697.877 107.144H700.153ZM707.052 104.511C707.626 104.511 708.084 104.709 708.425 105.104C708.767 105.498 708.938 106.092 708.938 106.884C708.938 107.407 708.859 107.847 708.703 108.203C708.546 108.558 708.325 108.827 708.039 109.009C707.756 109.191 707.422 109.282 707.035 109.282C706.792 109.282 706.578 109.25 706.393 109.185C706.208 109.121 706.05 109.034 705.918 108.925C705.787 108.816 705.678 108.697 705.591 108.568H705.541C705.549 108.677 705.559 108.809 705.57 108.963C705.584 109.117 705.591 109.251 705.591 109.366V111.255H704.89V104.595H705.465L705.557 105.276H705.591C705.681 105.136 705.79 105.008 705.918 104.894C706.047 104.776 706.204 104.684 706.389 104.616C706.576 104.546 706.797 104.511 707.052 104.511ZM706.93 105.099C706.611 105.099 706.354 105.161 706.158 105.284C705.965 105.407 705.823 105.592 705.734 105.838C705.644 106.082 705.597 106.388 705.591 106.758V106.892C705.591 107.282 705.633 107.61 705.717 107.879C705.804 108.148 705.945 108.352 706.141 108.492C706.34 108.632 706.606 108.702 706.939 108.702C707.224 108.702 707.462 108.625 707.653 108.471C707.843 108.317 707.984 108.103 708.077 107.829C708.172 107.552 708.22 107.234 708.22 106.876C708.22 106.332 708.113 105.901 707.9 105.582C707.691 105.26 707.367 105.099 706.93 105.099ZM711.251 106.842L709.66 104.595H710.458L711.671 106.367L712.881 104.595H713.67L712.079 106.842L713.758 109.198H712.961L711.671 107.321L710.374 109.198H709.584L711.251 106.842Z" fill="#F7E5FF"/>
<rect x="718" y="181.698" width="15" height="30" rx="7.5" transform="rotate(90 718 181.698)" fill="#9100CC"/>
<path d="M696.525 192.198H692.502V191.614L694.144 189.947C694.449 189.639 694.705 189.365 694.912 189.124C695.122 188.883 695.282 188.647 695.391 188.414C695.5 188.179 695.555 187.922 695.555 187.642C695.555 187.294 695.451 187.03 695.244 186.848C695.04 186.663 694.77 186.571 694.434 186.571C694.14 186.571 693.879 186.621 693.653 186.722C693.426 186.823 693.193 186.966 692.955 187.15L692.582 186.68C692.744 186.543 692.92 186.421 693.111 186.315C693.304 186.208 693.51 186.124 693.728 186.063C693.949 186.001 694.184 185.97 694.434 185.97C694.812 185.97 695.138 186.036 695.412 186.168C695.686 186.299 695.898 186.487 696.046 186.73C696.197 186.974 696.273 187.264 696.273 187.6C696.273 187.924 696.208 188.227 696.08 188.507C695.951 188.784 695.77 189.06 695.538 189.334C695.306 189.605 695.034 189.894 694.723 190.199L693.388 191.53V191.559H696.525V192.198ZM701.753 190.774H700.833V192.198H700.153V190.774H697.184V190.186L700.107 186.025H700.833V190.144H701.753V190.774ZM700.153 190.144V188.137C700.153 187.983 700.154 187.845 700.157 187.721C700.16 187.595 700.164 187.479 700.17 187.373C700.175 187.264 700.18 187.16 700.182 187.062C700.188 186.964 700.192 186.868 700.195 186.772H700.161C700.108 186.884 700.047 187.003 699.977 187.129C699.909 187.252 699.841 187.363 699.771 187.461L697.877 190.144H700.153ZM707.052 187.511C707.626 187.511 708.084 187.709 708.425 188.104C708.767 188.498 708.938 189.092 708.938 189.884C708.938 190.407 708.859 190.847 708.703 191.203C708.546 191.558 708.325 191.827 708.039 192.009C707.756 192.191 707.422 192.282 707.035 192.282C706.792 192.282 706.578 192.25 706.393 192.185C706.208 192.121 706.05 192.034 705.918 191.925C705.787 191.816 705.678 191.697 705.591 191.568H705.541C705.549 191.677 705.559 191.809 705.57 191.963C705.584 192.117 705.591 192.251 705.591 192.366V194.255H704.89V187.595H705.465L705.557 188.276H705.591C705.681 188.136 705.79 188.008 705.918 187.894C706.047 187.776 706.204 187.684 706.389 187.616C706.576 187.546 706.797 187.511 707.052 187.511ZM706.93 188.099C706.611 188.099 706.354 188.161 706.158 188.284C705.965 188.407 705.823 188.592 705.734 188.838C705.644 189.082 705.597 189.388 705.591 189.758V189.892C705.591 190.282 705.633 190.61 705.717 190.879C705.804 191.148 705.945 191.352 706.141 191.492C706.34 191.632 706.606 191.702 706.939 191.702C707.224 191.702 707.462 191.625 707.653 191.471C707.843 191.317 707.984 191.103 708.077 190.829C708.172 190.552 708.22 190.234 708.22 189.876C708.22 189.332 708.113 188.901 707.9 188.582C707.691 188.26 707.367 188.099 706.93 188.099ZM711.251 189.842L709.66 187.595H710.458L711.671 189.367L712.881 187.595H713.67L712.079 189.842L713.758 192.198H712.961L711.671 190.321L710.374 192.198H709.584L711.251 189.842Z" fill="#F7E5FF"/>
<rect x="718" y="422" width="15" height="30" rx="7.5" transform="rotate(90 718 422)" fill="#9100CC"/>
<path d="M696.525 432.5H692.502V431.916L694.144 430.249C694.449 429.941 694.705 429.667 694.912 429.426C695.122 429.185 695.282 428.949 695.391 428.717C695.5 428.481 695.555 428.224 695.555 427.944C695.555 427.597 695.451 427.332 695.244 427.15C695.04 426.965 694.77 426.873 694.434 426.873C694.14 426.873 693.879 426.923 693.653 427.024C693.426 427.125 693.193 427.268 692.955 427.453L692.582 426.982C692.744 426.845 692.92 426.723 693.111 426.617C693.304 426.511 693.51 426.427 693.728 426.365C693.949 426.303 694.184 426.273 694.434 426.273C694.812 426.273 695.138 426.338 695.412 426.47C695.686 426.601 695.898 426.789 696.046 427.033C696.197 427.276 696.273 427.566 696.273 427.902C696.273 428.227 696.208 428.529 696.08 428.809C695.951 429.086 695.77 429.362 695.538 429.636C695.306 429.908 695.034 430.196 694.723 430.501L693.388 431.832V431.862H696.525V432.5ZM701.753 431.076H700.833V432.5H700.153V431.076H697.184V430.489L700.107 426.327H700.833V430.447H701.753V431.076ZM700.153 430.447V428.439C700.153 428.285 700.154 428.147 700.157 428.024C700.16 427.898 700.164 427.781 700.17 427.675C700.175 427.566 700.18 427.462 700.182 427.364C700.188 427.266 700.192 427.17 700.195 427.075H700.161C700.108 427.187 700.047 427.306 699.977 427.432C699.909 427.555 699.841 427.665 699.771 427.763L697.877 430.447H700.153ZM707.052 427.814C707.626 427.814 708.084 428.011 708.425 428.406C708.767 428.8 708.938 429.394 708.938 430.186C708.938 430.71 708.859 431.149 708.703 431.505C708.546 431.86 708.325 432.129 708.039 432.311C707.756 432.493 707.422 432.584 707.035 432.584C706.792 432.584 706.578 432.552 706.393 432.487C706.208 432.423 706.05 432.336 705.918 432.227C705.787 432.118 705.678 431.999 705.591 431.87H705.541C705.549 431.979 705.559 432.111 705.57 432.265C705.584 432.419 705.591 432.553 705.591 432.668V434.558H704.89V427.898H705.465L705.557 428.578H705.591C705.681 428.438 705.79 428.311 705.918 428.196C706.047 428.078 706.204 427.986 706.389 427.919C706.576 427.849 706.797 427.814 707.052 427.814ZM706.93 428.402C706.611 428.402 706.354 428.463 706.158 428.586C705.965 428.71 705.823 428.894 705.734 429.141C705.644 429.384 705.597 429.691 705.591 430.06V430.195C705.591 430.584 705.633 430.913 705.717 431.181C705.804 431.45 705.945 431.655 706.141 431.795C706.34 431.935 706.606 432.004 706.939 432.004C707.224 432.004 707.462 431.928 707.653 431.774C707.843 431.62 707.984 431.405 708.077 431.131C708.172 430.854 708.22 430.536 708.22 430.178C708.22 429.635 708.113 429.204 707.9 428.884C707.691 428.563 707.367 428.402 706.93 428.402ZM711.251 430.144L709.66 427.898H710.458L711.671 429.67L712.881 427.898H713.67L712.079 430.144L713.758 432.5H712.961L711.671 430.623L710.374 432.5H709.584L711.251 430.144Z" fill="#F7E5FF"/>
<rect x="718" y="140.698" width="15" height="30" rx="7.5" transform="rotate(90 718 140.698)" fill="#9100CC"/>
<path d="M695.097 151.198H694.417V146.847C694.417 146.682 694.417 146.541 694.417 146.423C694.42 146.303 694.422 146.194 694.425 146.096C694.431 145.995 694.438 145.893 694.446 145.789C694.359 145.879 694.278 145.956 694.203 146.02C694.127 146.082 694.033 146.159 693.921 146.251L693.22 146.814L692.855 146.339L694.518 145.058H695.097V151.198ZM697.486 148.573C697.486 148.204 697.512 147.843 697.562 147.49C697.615 147.137 697.703 146.81 697.827 146.507C697.95 146.202 698.118 145.935 698.33 145.705C698.543 145.476 698.808 145.296 699.124 145.168C699.443 145.036 699.825 144.97 700.271 144.97C700.396 144.97 700.532 144.977 700.678 144.991C700.823 145.003 700.944 145.022 701.039 145.05V145.651C700.935 145.614 700.816 145.588 700.682 145.571C700.55 145.554 700.417 145.546 700.283 145.546C699.762 145.546 699.352 145.659 699.053 145.886C698.756 146.112 698.542 146.42 698.41 146.81C698.279 147.196 698.203 147.631 698.183 148.116H698.23C698.316 147.976 698.427 147.85 698.561 147.738C698.696 147.623 698.858 147.532 699.049 147.465C699.242 147.397 699.466 147.364 699.72 147.364C700.079 147.364 700.391 147.437 700.657 147.582C700.926 147.728 701.133 147.939 701.278 148.216C701.427 148.493 701.501 148.829 701.501 149.224C701.501 149.647 701.422 150.012 701.266 150.32C701.109 150.628 700.885 150.866 700.594 151.034C700.306 151.199 699.961 151.282 699.561 151.282C699.261 151.282 698.986 151.224 698.734 151.11C698.482 150.995 698.262 150.824 698.074 150.597C697.89 150.371 697.745 150.089 697.642 149.753C697.538 149.414 697.486 149.021 697.486 148.573ZM699.552 150.694C699.933 150.694 700.238 150.572 700.468 150.329C700.697 150.085 700.812 149.717 700.812 149.224C700.812 148.821 700.71 148.502 700.506 148.267C700.301 148.032 699.993 147.914 699.582 147.914C699.302 147.914 699.058 147.973 698.851 148.09C698.644 148.205 698.483 148.351 698.368 148.527C698.253 148.703 698.196 148.883 698.196 149.065C698.196 149.249 698.223 149.437 698.276 149.627C698.332 149.818 698.416 149.994 698.528 150.156C698.64 150.319 698.781 150.449 698.952 150.547C699.123 150.645 699.323 150.694 699.552 150.694ZM707.052 146.511C707.626 146.511 708.084 146.709 708.425 147.104C708.767 147.498 708.938 148.092 708.938 148.884C708.938 149.407 708.859 149.847 708.703 150.203C708.546 150.558 708.325 150.827 708.039 151.009C707.756 151.191 707.422 151.282 707.035 151.282C706.792 151.282 706.578 151.25 706.393 151.185C706.208 151.121 706.05 151.034 705.918 150.925C705.787 150.816 705.678 150.697 705.591 150.568H705.541C705.549 150.677 705.559 150.809 705.57 150.963C705.584 151.117 705.591 151.251 705.591 151.366V153.255H704.89V146.595H705.465L705.557 147.276H705.591C705.681 147.136 705.79 147.008 705.918 146.894C706.047 146.776 706.204 146.684 706.389 146.616C706.576 146.546 706.797 146.511 707.052 146.511ZM706.93 147.099C706.611 147.099 706.354 147.161 706.158 147.284C705.965 147.407 705.823 147.592 705.734 147.838C705.644 148.082 705.597 148.388 705.591 148.758V148.892C705.591 149.282 705.633 149.61 705.717 149.879C705.804 150.148 705.945 150.352 706.141 150.492C706.34 150.632 706.606 150.702 706.939 150.702C707.224 150.702 707.462 150.625 707.653 150.471C707.843 150.317 707.984 150.103 708.077 149.829C708.172 149.552 708.22 149.234 708.22 148.876C708.22 148.332 708.113 147.901 707.9 147.582C707.691 147.26 707.367 147.099 706.93 147.099ZM711.251 148.842L709.66 146.595H710.458L711.671 148.367L712.881 146.595H713.67L712.079 148.842L713.758 151.198H712.961L711.671 149.321L710.374 151.198H709.584L711.251 148.842Z" fill="#F7E5FF"/>
<rect x="183" y="191.671" width="15" height="30" rx="7.5" transform="rotate(90 183 191.671)" fill="#9100CC"/>
<path d="M160.097 202.171H159.417V197.821C159.417 197.656 159.417 197.514 159.417 197.397C159.42 197.276 159.422 197.167 159.425 197.069C159.431 196.969 159.438 196.866 159.446 196.763C159.359 196.852 159.278 196.929 159.203 196.994C159.127 197.055 159.033 197.132 158.921 197.225L158.22 197.787L157.855 197.313L159.518 196.032H160.097V202.171ZM162.486 199.547C162.486 199.177 162.512 198.816 162.562 198.463C162.615 198.111 162.703 197.783 162.827 197.481C162.95 197.176 163.118 196.908 163.33 196.679C163.543 196.449 163.808 196.27 164.124 196.141C164.443 196.01 164.825 195.944 165.271 195.944C165.396 195.944 165.532 195.951 165.678 195.965C165.823 195.976 165.944 195.996 166.039 196.024V196.624C165.935 196.588 165.816 196.561 165.682 196.544C165.55 196.528 165.417 196.519 165.283 196.519C164.762 196.519 164.352 196.633 164.053 196.859C163.756 197.086 163.542 197.394 163.41 197.783C163.279 198.17 163.203 198.605 163.183 199.089H163.23C163.316 198.949 163.427 198.823 163.561 198.711C163.696 198.596 163.858 198.505 164.049 198.438C164.242 198.371 164.466 198.337 164.72 198.337C165.079 198.337 165.391 198.41 165.657 198.556C165.926 198.701 166.133 198.913 166.278 199.19C166.427 199.467 166.501 199.803 166.501 200.198C166.501 200.62 166.422 200.986 166.266 201.294C166.109 201.602 165.885 201.84 165.594 202.008C165.306 202.173 164.961 202.255 164.561 202.255C164.261 202.255 163.986 202.198 163.734 202.083C163.482 201.968 163.262 201.798 163.074 201.571C162.89 201.344 162.745 201.063 162.642 200.727C162.538 200.388 162.486 199.995 162.486 199.547ZM164.552 201.667C164.933 201.667 165.238 201.546 165.468 201.302C165.697 201.059 165.812 200.69 165.812 200.198C165.812 199.795 165.71 199.475 165.506 199.24C165.301 199.005 164.993 198.888 164.582 198.888C164.302 198.888 164.058 198.946 163.851 199.064C163.644 199.179 163.483 199.324 163.368 199.501C163.253 199.677 163.196 199.856 163.196 200.038C163.196 200.223 163.223 200.411 163.276 200.601C163.332 200.791 163.416 200.968 163.528 201.13C163.64 201.292 163.781 201.423 163.952 201.521C164.123 201.618 164.323 201.667 164.552 201.667ZM172.052 197.485C172.626 197.485 173.084 197.682 173.425 198.077C173.767 198.472 173.938 199.065 173.938 199.858C173.938 200.381 173.859 200.821 173.703 201.176C173.546 201.532 173.325 201.8 173.039 201.982C172.756 202.164 172.422 202.255 172.035 202.255C171.792 202.255 171.578 202.223 171.393 202.159C171.208 202.094 171.05 202.008 170.918 201.898C170.787 201.789 170.678 201.67 170.591 201.542H170.541C170.549 201.651 170.559 201.782 170.57 201.936C170.584 202.09 170.591 202.225 170.591 202.339V204.229H169.89V197.569H170.465L170.557 198.249H170.591C170.681 198.109 170.79 197.982 170.918 197.867C171.047 197.75 171.204 197.657 171.389 197.59C171.576 197.52 171.797 197.485 172.052 197.485ZM171.93 198.073C171.611 198.073 171.354 198.135 171.158 198.258C170.965 198.381 170.823 198.566 170.734 198.812C170.644 199.056 170.597 199.362 170.591 199.732V199.866C170.591 200.255 170.633 200.584 170.717 200.853C170.804 201.122 170.945 201.326 171.141 201.466C171.34 201.606 171.606 201.676 171.939 201.676C172.224 201.676 172.462 201.599 172.653 201.445C172.843 201.291 172.984 201.077 173.077 200.802C173.172 200.525 173.22 200.208 173.22 199.849C173.22 199.306 173.113 198.875 172.9 198.556C172.691 198.234 172.367 198.073 171.93 198.073ZM176.251 199.816L174.66 197.569H175.458L176.671 199.341L177.881 197.569H178.67L177.079 199.816L178.758 202.171H177.961L176.671 200.294L175.374 202.171H174.584L176.251 199.816Z" fill="#F7E5FF"/>
<rect x="267" y="191.671" width="15" height="30" rx="7.5" transform="rotate(90 267 191.671)" fill="#9100CC"/>
<path d="M244.097 202.171H243.417V197.821C243.417 197.656 243.417 197.514 243.417 197.397C243.42 197.276 243.422 197.167 243.425 197.069C243.431 196.969 243.438 196.866 243.446 196.763C243.359 196.852 243.278 196.929 243.203 196.994C243.127 197.055 243.033 197.132 242.921 197.225L242.22 197.787L241.855 197.313L243.518 196.032H244.097V202.171ZM246.486 199.547C246.486 199.177 246.512 198.816 246.562 198.463C246.615 198.111 246.703 197.783 246.827 197.481C246.95 197.176 247.118 196.908 247.33 196.679C247.543 196.449 247.808 196.27 248.124 196.141C248.443 196.01 248.825 195.944 249.271 195.944C249.396 195.944 249.532 195.951 249.678 195.965C249.823 195.976 249.944 195.996 250.039 196.024V196.624C249.935 196.588 249.816 196.561 249.682 196.544C249.55 196.528 249.417 196.519 249.283 196.519C248.762 196.519 248.352 196.633 248.053 196.859C247.756 197.086 247.542 197.394 247.41 197.783C247.279 198.17 247.203 198.605 247.183 199.089H247.23C247.316 198.949 247.427 198.823 247.561 198.711C247.696 198.596 247.858 198.505 248.049 198.438C248.242 198.371 248.466 198.337 248.72 198.337C249.079 198.337 249.391 198.41 249.657 198.556C249.926 198.701 250.133 198.913 250.278 199.19C250.427 199.467 250.501 199.803 250.501 200.198C250.501 200.62 250.422 200.986 250.266 201.294C250.109 201.602 249.885 201.84 249.594 202.008C249.306 202.173 248.961 202.255 248.561 202.255C248.261 202.255 247.986 202.198 247.734 202.083C247.482 201.968 247.262 201.798 247.074 201.571C246.89 201.344 246.745 201.063 246.642 200.727C246.538 200.388 246.486 199.995 246.486 199.547ZM248.552 201.667C248.933 201.667 249.238 201.546 249.468 201.302C249.697 201.059 249.812 200.69 249.812 200.198C249.812 199.795 249.71 199.475 249.506 199.24C249.301 199.005 248.993 198.888 248.582 198.888C248.302 198.888 248.058 198.946 247.851 199.064C247.644 199.179 247.483 199.324 247.368 199.501C247.253 199.677 247.196 199.856 247.196 200.038C247.196 200.223 247.223 200.411 247.276 200.601C247.332 200.791 247.416 200.968 247.528 201.13C247.64 201.292 247.781 201.423 247.952 201.521C248.123 201.618 248.323 201.667 248.552 201.667ZM256.052 197.485C256.626 197.485 257.084 197.682 257.425 198.077C257.767 198.472 257.938 199.065 257.938 199.858C257.938 200.381 257.859 200.821 257.703 201.176C257.546 201.532 257.325 201.8 257.039 201.982C256.756 202.164 256.422 202.255 256.035 202.255C255.792 202.255 255.578 202.223 255.393 202.159C255.208 202.094 255.05 202.008 254.918 201.898C254.787 201.789 254.678 201.67 254.591 201.542H254.541C254.549 201.651 254.559 201.782 254.57 201.936C254.584 202.09 254.591 202.225 254.591 202.339V204.229H253.89V197.569H254.465L254.557 198.249H254.591C254.681 198.109 254.79 197.982 254.918 197.867C255.047 197.75 255.204 197.657 255.389 197.59C255.576 197.52 255.797 197.485 256.052 197.485ZM255.93 198.073C255.611 198.073 255.354 198.135 255.158 198.258C254.965 198.381 254.823 198.566 254.734 198.812C254.644 199.056 254.597 199.362 254.591 199.732V199.866C254.591 200.255 254.633 200.584 254.717 200.853C254.804 201.122 254.945 201.326 255.141 201.466C255.34 201.606 255.606 201.676 255.939 201.676C256.224 201.676 256.462 201.599 256.653 201.445C256.843 201.291 256.984 201.077 257.077 200.802C257.172 200.525 257.22 200.208 257.22 199.849C257.22 199.306 257.113 198.875 256.9 198.556C256.691 198.234 256.367 198.073 255.93 198.073ZM260.251 199.816L258.66 197.569H259.458L260.671 199.341L261.881 197.569H262.67L261.079 199.816L262.758 202.171H261.961L260.671 200.294L259.374 202.171H258.584L260.251 199.816Z" fill="#F7E5FF"/>
<rect x="351" y="191.671" width="15" height="30" rx="7.5" transform="rotate(90 351 191.671)" fill="#9100CC"/>
<path d="M328.097 202.171H327.417V197.821C327.417 197.656 327.417 197.514 327.417 197.397C327.42 197.276 327.422 197.167 327.425 197.069C327.431 196.969 327.438 196.866 327.446 196.763C327.359 196.852 327.278 196.929 327.203 196.994C327.127 197.055 327.033 197.132 326.921 197.225L326.22 197.787L325.855 197.313L327.518 196.032H328.097V202.171ZM330.486 199.547C330.486 199.177 330.512 198.816 330.562 198.463C330.615 198.111 330.703 197.783 330.827 197.481C330.95 197.176 331.118 196.908 331.33 196.679C331.543 196.449 331.808 196.27 332.124 196.141C332.443 196.01 332.825 195.944 333.271 195.944C333.396 195.944 333.532 195.951 333.678 195.965C333.823 195.976 333.944 195.996 334.039 196.024V196.624C333.935 196.588 333.816 196.561 333.682 196.544C333.55 196.528 333.417 196.519 333.283 196.519C332.762 196.519 332.352 196.633 332.053 196.859C331.756 197.086 331.542 197.394 331.41 197.783C331.279 198.17 331.203 198.605 331.183 199.089H331.23C331.316 198.949 331.427 198.823 331.561 198.711C331.696 198.596 331.858 198.505 332.049 198.438C332.242 198.371 332.466 198.337 332.72 198.337C333.079 198.337 333.391 198.41 333.657 198.556C333.926 198.701 334.133 198.913 334.278 199.19C334.427 199.467 334.501 199.803 334.501 200.198C334.501 200.62 334.422 200.986 334.266 201.294C334.109 201.602 333.885 201.84 333.594 202.008C333.306 202.173 332.961 202.255 332.561 202.255C332.261 202.255 331.986 202.198 331.734 202.083C331.482 201.968 331.262 201.798 331.074 201.571C330.89 201.344 330.745 201.063 330.642 200.727C330.538 200.388 330.486 199.995 330.486 199.547ZM332.552 201.667C332.933 201.667 333.238 201.546 333.468 201.302C333.697 201.059 333.812 200.69 333.812 200.198C333.812 199.795 333.71 199.475 333.506 199.24C333.301 199.005 332.993 198.888 332.582 198.888C332.302 198.888 332.058 198.946 331.851 199.064C331.644 199.179 331.483 199.324 331.368 199.501C331.253 199.677 331.196 199.856 331.196 200.038C331.196 200.223 331.223 200.411 331.276 200.601C331.332 200.791 331.416 200.968 331.528 201.13C331.64 201.292 331.781 201.423 331.952 201.521C332.123 201.618 332.323 201.667 332.552 201.667ZM340.052 197.485C340.626 197.485 341.084 197.682 341.425 198.077C341.767 198.472 341.938 199.065 341.938 199.858C341.938 200.381 341.859 200.821 341.703 201.176C341.546 201.532 341.325 201.8 341.039 201.982C340.756 202.164 340.422 202.255 340.035 202.255C339.792 202.255 339.578 202.223 339.393 202.159C339.208 202.094 339.05 202.008 338.918 201.898C338.787 201.789 338.678 201.67 338.591 201.542H338.541C338.549 201.651 338.559 201.782 338.57 201.936C338.584 202.09 338.591 202.225 338.591 202.339V204.229H337.89V197.569H338.465L338.557 198.249H338.591C338.681 198.109 338.79 197.982 338.918 197.867C339.047 197.75 339.204 197.657 339.389 197.59C339.576 197.52 339.797 197.485 340.052 197.485ZM339.93 198.073C339.611 198.073 339.354 198.135 339.158 198.258C338.965 198.381 338.823 198.566 338.734 198.812C338.644 199.056 338.597 199.362 338.591 199.732V199.866C338.591 200.255 338.633 200.584 338.717 200.853C338.804 201.122 338.945 201.326 339.141 201.466C339.34 201.606 339.606 201.676 339.939 201.676C340.224 201.676 340.462 201.599 340.653 201.445C340.843 201.291 340.984 201.077 341.077 200.802C341.172 200.525 341.22 200.208 341.22 199.849C341.22 199.306 341.113 198.875 340.9 198.556C340.691 198.234 340.367 198.073 339.93 198.073ZM344.251 199.816L342.66 197.569H343.458L344.671 199.341L345.881 197.569H346.67L345.079 199.816L346.758 202.171H345.961L344.671 200.294L343.374 202.171H342.584L344.251 199.816Z" fill="#F7E5FF"/>
<path d="M172.5 183.605L172.5 188.105M172.5 183.605L172.5 179.105M172.5 183.605L163.5 183.605M163.5 183.605L163.5 188.105M163.5 183.605L163.5 179.105" stroke="#9100CC" stroke-linecap="round"/>
<path d="M256.5 183.605L256.5 188.105M256.5 183.605L256.5 179.105M256.5 183.605L247.5 183.605M247.5 183.605L247.5 188.105M247.5 183.605L247.5 179.105" stroke="#9100CC" stroke-linecap="round"/>
<path d="M340.5 183.605L340.5 188.105M340.5 183.605L340.5 179.105M340.5 183.605L331.5 183.605M331.5 183.605L331.5 188.105M331.5 183.605L331.5 179.105" stroke="#9100CC" stroke-linecap="round"/>
<defs>
<clipPath id="clip0_4149_8294">
<rect width="15.7348" height="15.7348" fill="white" transform="translate(100.49 120.526)"/>
</clipPath>
<clipPath id="clip1_4149_8294">
<rect width="15.7348" height="15.7348" fill="white" transform="translate(139.49 161.374)"/>
</clipPath>
<clipPath id="clip2_4149_8294">
<rect width="15.7348" height="15.7348" fill="white" transform="translate(223.072 161.374)"/>
</clipPath>
<clipPath id="clip3_4149_8294">
<rect width="15.7348" height="15.7348" fill="white" transform="translate(306.654 161.374)"/>
</clipPath>
<clipPath id="clip4_4149_8294">
<rect x="90" y="195.863" width="548" height="228" rx="3.79061" fill="white"/>
</clipPath>
<clipPath id="clip5_4149_8294">
<rect width="548" height="48" fill="white" transform="translate(90 195.863)"/>
</clipPath>
<clipPath id="clip6_4149_8294">
<rect width="84.4053" height="5.44397" fill="white" transform="translate(247.31 259.141)"/>
</clipPath>
<clipPath id="clip7_4149_8294">
<rect width="84.4053" height="5.44397" fill="white" transform="translate(247.31 295.141)"/>
</clipPath>
<clipPath id="clip8_4149_8294">
<rect width="84.4053" height="5.44397" fill="white" transform="translate(247.31 331.141)"/>
</clipPath>
<clipPath id="clip9_4149_8294">
<rect width="84.4053" height="5.44397" fill="white" transform="translate(247.31 367.141)"/>
</clipPath>
<clipPath id="clip10_4149_8294">
<rect width="84.4053" height="5.44397" fill="white" transform="translate(247.31 403.141)"/>
</clipPath>
<clipPath id="clip11_4149_8294">
<rect width="15.7348" height="15.7348" fill="white" transform="translate(213.51 441.241)"/>
</clipPath>
<clipPath id="clip12_4149_8294">
<rect width="15.7348" height="15.7348" fill="white" transform="translate(617.02 441.24)"/>
</clipPath>
</defs>
</svg>
