<svg width="348" height="265" viewBox="0 0 348 265" fill="none" xmlns="http://www.w3.org/2000/svg">
<rect x="1" y="1.85742" width="346" height="262" rx="7" fill="#F3F6F9"/>
<rect x="1" y="1.85742" width="346" height="262" rx="7" stroke="#E6EBF0" stroke-width="2"/>
<rect width="252" height="120" transform="translate(48 72.8574)" fill="white"/>
<path d="M71.9219 102.857H65.5625V91.4355H71.9219V92.6074H66.8906V96.3027H71.6328V97.459H66.8906V101.686H71.9219V102.857ZM79.7969 100.514C79.7969 101.061 79.6589 101.521 79.3828 101.896C79.112 102.266 78.7214 102.545 78.2109 102.732C77.7057 102.92 77.1016 103.014 76.3984 103.014C75.7995 103.014 75.2812 102.967 74.8438 102.873C74.4062 102.779 74.0234 102.646 73.6953 102.475V101.279C74.0443 101.451 74.4609 101.607 74.9453 101.748C75.4297 101.889 75.9245 101.959 76.4297 101.959C77.1693 101.959 77.7057 101.839 78.0391 101.6C78.3724 101.36 78.5391 101.035 78.5391 100.623C78.5391 100.389 78.4714 100.183 78.3359 100.006C78.2057 99.8236 77.9844 99.6491 77.6719 99.4824C77.3594 99.3105 76.9271 99.123 76.375 98.9199C75.8281 98.7116 75.3542 98.5059 74.9531 98.3027C74.5573 98.0944 74.25 97.8418 74.0312 97.5449C73.8177 97.248 73.7109 96.8626 73.7109 96.3887C73.7109 95.6647 74.0026 95.11 74.5859 94.7246C75.1745 94.334 75.9453 94.1387 76.8984 94.1387C77.4141 94.1387 77.8958 94.1908 78.3438 94.2949C78.7969 94.3939 79.2188 94.5293 79.6094 94.7012L79.1719 95.7402C78.8177 95.5892 78.4401 95.4616 78.0391 95.3574C77.638 95.2533 77.2292 95.2012 76.8125 95.2012C76.2135 95.2012 75.7526 95.3001 75.4297 95.498C75.112 95.696 74.9531 95.9668 74.9531 96.3105C74.9531 96.5762 75.026 96.7949 75.1719 96.9668C75.3229 97.1387 75.5625 97.3001 75.8906 97.4512C76.2188 97.6022 76.651 97.7793 77.1875 97.9824C77.724 98.1803 78.1875 98.3861 78.5781 98.5996C78.9688 98.8079 79.2682 99.0632 79.4766 99.3652C79.6901 99.6621 79.7969 100.045 79.7969 100.514ZM84.6484 101.951C84.862 101.951 85.0807 101.933 85.3047 101.896C85.5286 101.86 85.7109 101.816 85.8516 101.764V102.771C85.7005 102.839 85.4896 102.896 85.2188 102.943C84.9531 102.99 84.6927 103.014 84.4375 103.014C83.9844 103.014 83.5729 102.936 83.2031 102.779C82.8333 102.618 82.5365 102.347 82.3125 101.967C82.0938 101.587 81.9844 101.061 81.9844 100.389V95.3105H80.7656V94.6777L81.9922 94.1699L82.5078 92.3105H83.2891V94.2949H85.7969V95.3105H83.2891V100.35C83.2891 100.886 83.4115 101.287 83.6562 101.553C83.9062 101.818 84.237 101.951 84.6484 101.951ZM90.8828 94.1387C91.612 94.1387 92.237 94.3001 92.7578 94.623C93.2786 94.946 93.6771 95.3991 93.9531 95.9824C94.2292 96.5605 94.3672 97.2376 94.3672 98.0137V98.8184H88.4531C88.4688 99.8236 88.7188 100.589 89.2031 101.115C89.6875 101.641 90.3698 101.904 91.25 101.904C91.7917 101.904 92.2708 101.855 92.6875 101.756C93.1042 101.657 93.5365 101.511 93.9844 101.318V102.459C93.5521 102.652 93.1224 102.792 92.6953 102.881C92.2734 102.969 91.7734 103.014 91.1953 103.014C90.3724 103.014 89.6536 102.847 89.0391 102.514C88.4297 102.175 87.9557 101.68 87.6172 101.029C87.2786 100.378 87.1094 99.5814 87.1094 98.6387C87.1094 97.7168 87.263 96.9199 87.5703 96.248C87.8828 95.571 88.3203 95.0501 88.8828 94.6855C89.4505 94.321 90.1172 94.1387 90.8828 94.1387ZM90.8672 95.2012C90.1745 95.2012 89.6224 95.4277 89.2109 95.8809C88.7995 96.334 88.5547 96.9668 88.4766 97.7793H93.0078C93.0026 97.2689 92.9219 96.821 92.7656 96.4355C92.6146 96.0449 92.3828 95.7428 92.0703 95.5293C91.7578 95.3105 91.3568 95.2012 90.8672 95.2012ZM107.797 94.2949V102.857H106.734L106.547 101.654H106.477C106.299 101.951 106.07 102.201 105.789 102.404C105.508 102.607 105.19 102.758 104.836 102.857C104.487 102.962 104.115 103.014 103.719 103.014C103.042 103.014 102.474 102.904 102.016 102.686C101.557 102.467 101.211 102.128 100.977 101.67C100.747 101.212 100.633 100.623 100.633 99.9043V94.2949H101.945V99.8105C101.945 100.524 102.107 101.058 102.43 101.412C102.753 101.761 103.245 101.936 103.906 101.936C104.542 101.936 105.047 101.816 105.422 101.576C105.802 101.337 106.076 100.985 106.242 100.521C106.409 100.053 106.492 99.4798 106.492 98.8027V94.2949H107.797ZM114.594 94.1387C115.609 94.1387 116.378 94.3887 116.898 94.8887C117.419 95.3835 117.68 96.1803 117.68 97.2793V102.857H116.398V97.3652C116.398 96.6517 116.234 96.1178 115.906 95.7637C115.583 95.4095 115.086 95.2324 114.414 95.2324C113.466 95.2324 112.799 95.5007 112.414 96.0371C112.029 96.5736 111.836 97.3522 111.836 98.373V102.857H110.539V94.2949H111.586L111.781 95.5293H111.852C112.034 95.2272 112.266 94.9746 112.547 94.7715C112.828 94.5632 113.143 94.4069 113.492 94.3027C113.841 94.1934 114.208 94.1387 114.594 94.1387ZM127.273 101.951C127.487 101.951 127.706 101.933 127.93 101.896C128.154 101.86 128.336 101.816 128.477 101.764V102.771C128.326 102.839 128.115 102.896 127.844 102.943C127.578 102.99 127.318 103.014 127.062 103.014C126.609 103.014 126.198 102.936 125.828 102.779C125.458 102.618 125.161 102.347 124.938 101.967C124.719 101.587 124.609 101.061 124.609 100.389V95.3105H123.391V94.6777L124.617 94.1699L125.133 92.3105H125.914V94.2949H128.422V95.3105H125.914V100.35C125.914 100.886 126.036 101.287 126.281 101.553C126.531 101.818 126.862 101.951 127.273 101.951ZM133.508 94.1387C134.237 94.1387 134.862 94.3001 135.383 94.623C135.904 94.946 136.302 95.3991 136.578 95.9824C136.854 96.5605 136.992 97.2376 136.992 98.0137V98.8184H131.078C131.094 99.8236 131.344 100.589 131.828 101.115C132.312 101.641 132.995 101.904 133.875 101.904C134.417 101.904 134.896 101.855 135.312 101.756C135.729 101.657 136.161 101.511 136.609 101.318V102.459C136.177 102.652 135.747 102.792 135.32 102.881C134.898 102.969 134.398 103.014 133.82 103.014C132.997 103.014 132.279 102.847 131.664 102.514C131.055 102.175 130.581 101.68 130.242 101.029C129.904 100.378 129.734 99.5814 129.734 98.6387C129.734 97.7168 129.888 96.9199 130.195 96.248C130.508 95.571 130.945 95.0501 131.508 94.6855C132.076 94.321 132.742 94.1387 133.508 94.1387ZM133.492 95.2012C132.799 95.2012 132.247 95.4277 131.836 95.8809C131.424 96.334 131.18 96.9668 131.102 97.7793H135.633C135.628 97.2689 135.547 96.821 135.391 96.4355C135.24 96.0449 135.008 95.7428 134.695 95.5293C134.383 95.3105 133.982 95.2012 133.492 95.2012ZM141.234 98.4746L138.273 94.2949H139.758L142.016 97.5918L144.266 94.2949H145.734L142.773 98.4746L145.898 102.857H144.414L142.016 99.3652L139.602 102.857H138.133L141.234 98.4746ZM150.336 101.951C150.549 101.951 150.768 101.933 150.992 101.896C151.216 101.86 151.398 101.816 151.539 101.764V102.771C151.388 102.839 151.177 102.896 150.906 102.943C150.641 102.99 150.38 103.014 150.125 103.014C149.672 103.014 149.26 102.936 148.891 102.779C148.521 102.618 148.224 102.347 148 101.967C147.781 101.587 147.672 101.061 147.672 100.389V95.3105H146.453V94.6777L147.68 94.1699L148.195 92.3105H148.977V94.2949H151.484V95.3105H148.977V100.35C148.977 100.886 149.099 101.287 149.344 101.553C149.594 101.818 149.924 101.951 150.336 101.951ZM160.656 98.5605C160.656 99.2637 160.565 99.8913 160.383 100.443C160.201 100.995 159.938 101.462 159.594 101.842C159.25 102.222 158.833 102.514 158.344 102.717C157.859 102.915 157.31 103.014 156.695 103.014C156.122 103.014 155.596 102.915 155.117 102.717C154.643 102.514 154.232 102.222 153.883 101.842C153.539 101.462 153.271 100.995 153.078 100.443C152.891 99.8913 152.797 99.2637 152.797 98.5605C152.797 97.623 152.956 96.8262 153.273 96.1699C153.591 95.5085 154.044 95.0059 154.633 94.6621C155.227 94.3132 155.932 94.1387 156.75 94.1387C157.531 94.1387 158.214 94.3132 158.797 94.6621C159.385 95.0111 159.841 95.5163 160.164 96.1777C160.492 96.834 160.656 97.6283 160.656 98.5605ZM154.141 98.5605C154.141 99.248 154.232 99.8444 154.414 100.35C154.596 100.855 154.878 101.245 155.258 101.521C155.638 101.798 156.128 101.936 156.727 101.936C157.32 101.936 157.807 101.798 158.188 101.521C158.573 101.245 158.857 100.855 159.039 100.35C159.221 99.8444 159.312 99.248 159.312 98.5605C159.312 97.8783 159.221 97.2897 159.039 96.7949C158.857 96.2949 158.576 95.9095 158.195 95.6387C157.815 95.3678 157.323 95.2324 156.719 95.2324C155.828 95.2324 155.174 95.5267 154.758 96.1152C154.346 96.7038 154.141 97.5189 154.141 98.5605ZM170.102 103.014C169.018 103.014 168.159 102.644 167.523 101.904C166.893 101.165 166.578 100.066 166.578 98.6074C166.578 97.1335 166.901 96.0215 167.547 95.2715C168.193 94.5163 169.052 94.1387 170.125 94.1387C170.578 94.1387 170.974 94.1986 171.312 94.3184C171.651 94.4382 171.943 94.5996 172.188 94.8027C172.432 95.0007 172.638 95.2272 172.805 95.4824H172.898C172.878 95.321 172.857 95.0996 172.836 94.8184C172.815 94.5371 172.805 94.3079 172.805 94.1309V90.7012H174.102V102.857H173.055L172.859 101.639H172.805C172.643 101.894 172.438 102.126 172.188 102.334C171.943 102.542 171.648 102.709 171.305 102.834C170.966 102.954 170.565 103.014 170.102 103.014ZM170.305 101.936C171.221 101.936 171.87 101.675 172.25 101.154C172.63 100.633 172.82 99.86 172.82 98.834V98.5996C172.82 97.5111 172.638 96.6751 172.273 96.0918C171.914 95.5085 171.258 95.2168 170.305 95.2168C169.508 95.2168 168.911 95.5241 168.516 96.1387C168.12 96.748 167.922 97.5814 167.922 98.6387C167.922 99.6908 168.117 100.503 168.508 101.076C168.904 101.649 169.503 101.936 170.305 101.936ZM180.148 94.1387C180.878 94.1387 181.503 94.3001 182.023 94.623C182.544 94.946 182.943 95.3991 183.219 95.9824C183.495 96.5605 183.633 97.2376 183.633 98.0137V98.8184H177.719C177.734 99.8236 177.984 100.589 178.469 101.115C178.953 101.641 179.635 101.904 180.516 101.904C181.057 101.904 181.536 101.855 181.953 101.756C182.37 101.657 182.802 101.511 183.25 101.318V102.459C182.818 102.652 182.388 102.792 181.961 102.881C181.539 102.969 181.039 103.014 180.461 103.014C179.638 103.014 178.919 102.847 178.305 102.514C177.695 102.175 177.221 101.68 176.883 101.029C176.544 100.378 176.375 99.5814 176.375 98.6387C176.375 97.7168 176.529 96.9199 176.836 96.248C177.148 95.571 177.586 95.0501 178.148 94.6855C178.716 94.321 179.383 94.1387 180.148 94.1387ZM180.133 95.2012C179.44 95.2012 178.888 95.4277 178.477 95.8809C178.065 96.334 177.82 96.9668 177.742 97.7793H182.273C182.268 97.2689 182.188 96.821 182.031 96.4355C181.88 96.0449 181.648 95.7428 181.336 95.5293C181.023 95.3105 180.622 95.2012 180.133 95.2012ZM194.016 94.1387C195.083 94.1387 195.935 94.5059 196.57 95.2402C197.206 95.9746 197.523 97.0788 197.523 98.5527C197.523 99.5267 197.378 100.344 197.086 101.006C196.794 101.667 196.383 102.167 195.852 102.506C195.326 102.844 194.703 103.014 193.984 103.014C193.531 103.014 193.133 102.954 192.789 102.834C192.445 102.714 192.151 102.553 191.906 102.35C191.661 102.146 191.458 101.925 191.297 101.686H191.203C191.219 101.889 191.237 102.133 191.258 102.42C191.284 102.706 191.297 102.956 191.297 103.17V106.686H189.992V94.2949H191.062L191.234 95.5605H191.297C191.464 95.3001 191.667 95.0632 191.906 94.8496C192.146 94.6309 192.438 94.459 192.781 94.334C193.13 94.2038 193.542 94.1387 194.016 94.1387ZM193.789 95.2324C193.195 95.2324 192.716 95.347 192.352 95.5762C191.992 95.8053 191.729 96.1491 191.562 96.6074C191.396 97.0605 191.307 97.6309 191.297 98.3184V98.5684C191.297 99.2923 191.375 99.9043 191.531 100.404C191.693 100.904 191.956 101.285 192.32 101.545C192.69 101.805 193.185 101.936 193.805 101.936C194.336 101.936 194.779 101.792 195.133 101.506C195.487 101.219 195.75 100.821 195.922 100.311C196.099 99.7949 196.188 99.2038 196.188 98.5371C196.188 97.5267 195.99 96.7246 195.594 96.1309C195.203 95.5319 194.602 95.2324 193.789 95.2324ZM203.68 94.1387C203.852 94.1387 204.031 94.1491 204.219 94.1699C204.406 94.1855 204.573 94.209 204.719 94.2402L204.555 95.4434C204.414 95.4069 204.258 95.3783 204.086 95.3574C203.914 95.3366 203.753 95.3262 203.602 95.3262C203.258 95.3262 202.932 95.3965 202.625 95.5371C202.323 95.6725 202.057 95.8704 201.828 96.1309C201.599 96.3861 201.419 96.696 201.289 97.0605C201.159 97.4199 201.094 97.821 201.094 98.2637V102.857H199.789V94.2949H200.867L201.008 95.873H201.062C201.24 95.5553 201.453 95.2663 201.703 95.0059C201.953 94.7402 202.242 94.5293 202.57 94.373C202.904 94.2168 203.273 94.1387 203.68 94.1387ZM213.406 94.2949V102.857H212.344L212.156 101.654H212.086C211.909 101.951 211.68 102.201 211.398 102.404C211.117 102.607 210.799 102.758 210.445 102.857C210.096 102.962 209.724 103.014 209.328 103.014C208.651 103.014 208.083 102.904 207.625 102.686C207.167 102.467 206.82 102.128 206.586 101.67C206.357 101.212 206.242 100.623 206.242 99.9043V94.2949H207.555V99.8105C207.555 100.524 207.716 101.058 208.039 101.412C208.362 101.761 208.854 101.936 209.516 101.936C210.151 101.936 210.656 101.816 211.031 101.576C211.411 101.337 211.685 100.985 211.852 100.521C212.018 100.053 212.102 99.4798 212.102 98.8027V94.2949H213.406ZM219.445 94.1387C220.174 94.1387 220.799 94.3001 221.32 94.623C221.841 94.946 222.24 95.3991 222.516 95.9824C222.792 96.5605 222.93 97.2376 222.93 98.0137V98.8184H217.016C217.031 99.8236 217.281 100.589 217.766 101.115C218.25 101.641 218.932 101.904 219.812 101.904C220.354 101.904 220.833 101.855 221.25 101.756C221.667 101.657 222.099 101.511 222.547 101.318V102.459C222.115 102.652 221.685 102.792 221.258 102.881C220.836 102.969 220.336 103.014 219.758 103.014C218.935 103.014 218.216 102.847 217.602 102.514C216.992 102.175 216.518 101.68 216.18 101.029C215.841 100.378 215.672 99.5814 215.672 98.6387C215.672 97.7168 215.826 96.9199 216.133 96.248C216.445 95.571 216.883 95.0501 217.445 94.6855C218.013 94.321 218.68 94.1387 219.445 94.1387ZM219.43 95.2012C218.737 95.2012 218.185 95.4277 217.773 95.8809C217.362 96.334 217.117 96.9668 217.039 97.7793H221.57C221.565 97.2689 221.484 96.821 221.328 96.4355C221.177 96.0449 220.945 95.7428 220.633 95.5293C220.32 95.3105 219.919 95.2012 219.43 95.2012ZM226.43 90.7012V93.7402C226.43 94.0892 226.419 94.4277 226.398 94.7559C226.383 95.084 226.37 95.3392 226.359 95.5215H226.43C226.664 95.1361 227.003 94.8105 227.445 94.5449C227.888 94.2793 228.453 94.1465 229.141 94.1465C230.214 94.1465 231.068 94.5189 231.703 95.2637C232.344 96.0033 232.664 97.1048 232.664 98.5684C232.664 99.5319 232.518 100.344 232.227 101.006C231.935 101.667 231.523 102.167 230.992 102.506C230.461 102.844 229.833 103.014 229.109 103.014C228.432 103.014 227.875 102.889 227.438 102.639C227.005 102.383 226.672 102.074 226.438 101.709H226.336L226.07 102.857H225.133V90.7012H226.43ZM228.93 95.2324C228.31 95.2324 227.818 95.3548 227.453 95.5996C227.089 95.8392 226.826 96.2038 226.664 96.6934C226.508 97.1777 226.43 97.7923 226.43 98.5371V98.6074C226.43 99.6855 226.609 100.511 226.969 101.084C227.328 101.652 227.982 101.936 228.93 101.936C229.727 101.936 230.323 101.644 230.719 101.061C231.12 100.477 231.32 99.6439 231.32 98.5605C231.32 97.4564 231.122 96.6257 230.727 96.0684C230.336 95.5111 229.737 95.2324 228.93 95.2324ZM238.133 94.1543C239.154 94.1543 239.911 94.3835 240.406 94.8418C240.901 95.3001 241.148 96.0319 241.148 97.0371V102.857H240.203L239.953 101.592H239.891C239.651 101.904 239.401 102.167 239.141 102.381C238.88 102.589 238.578 102.748 238.234 102.857C237.896 102.962 237.479 103.014 236.984 103.014C236.464 103.014 236 102.923 235.594 102.74C235.193 102.558 234.875 102.282 234.641 101.912C234.411 101.542 234.297 101.074 234.297 100.506C234.297 99.6517 234.635 98.9954 235.312 98.5371C235.99 98.0788 237.021 97.8288 238.406 97.7871L239.883 97.7246V97.2012C239.883 96.4616 239.724 95.9434 239.406 95.6465C239.089 95.3496 238.641 95.2012 238.062 95.2012C237.615 95.2012 237.188 95.2663 236.781 95.3965C236.375 95.5267 235.99 95.6803 235.625 95.8574L235.227 94.873C235.612 94.6751 236.055 94.5059 236.555 94.3652C237.055 94.2246 237.581 94.1543 238.133 94.1543ZM239.867 98.6387L238.562 98.6934C237.495 98.735 236.742 98.9095 236.305 99.2168C235.867 99.5241 235.648 99.959 235.648 100.521C235.648 101.011 235.797 101.373 236.094 101.607C236.391 101.842 236.784 101.959 237.273 101.959C238.034 101.959 238.656 101.748 239.141 101.326C239.625 100.904 239.867 100.271 239.867 99.4277V98.6387ZM252 94.1387C253.068 94.1387 253.919 94.5059 254.555 95.2402C255.19 95.9746 255.508 97.0788 255.508 98.5527C255.508 99.5267 255.362 100.344 255.07 101.006C254.779 101.667 254.367 102.167 253.836 102.506C253.31 102.844 252.688 103.014 251.969 103.014C251.516 103.014 251.117 102.954 250.773 102.834C250.43 102.714 250.135 102.553 249.891 102.35C249.646 102.146 249.443 101.925 249.281 101.686H249.188C249.203 101.889 249.221 102.133 249.242 102.42C249.268 102.706 249.281 102.956 249.281 103.17V106.686H247.977V94.2949H249.047L249.219 95.5605H249.281C249.448 95.3001 249.651 95.0632 249.891 94.8496C250.13 94.6309 250.422 94.459 250.766 94.334C251.115 94.2038 251.526 94.1387 252 94.1387ZM251.773 95.2324C251.18 95.2324 250.701 95.347 250.336 95.5762C249.977 95.8053 249.714 96.1491 249.547 96.6074C249.38 97.0605 249.292 97.6309 249.281 98.3184V98.5684C249.281 99.2923 249.359 99.9043 249.516 100.404C249.677 100.904 249.94 101.285 250.305 101.545C250.674 101.805 251.169 101.936 251.789 101.936C252.32 101.936 252.763 101.792 253.117 101.506C253.471 101.219 253.734 100.821 253.906 100.311C254.083 99.7949 254.172 99.2038 254.172 98.5371C254.172 97.5267 253.974 96.7246 253.578 96.1309C253.188 95.5319 252.586 95.2324 251.773 95.2324ZM260.977 94.1543C261.997 94.1543 262.755 94.3835 263.25 94.8418C263.745 95.3001 263.992 96.0319 263.992 97.0371V102.857H263.047L262.797 101.592H262.734C262.495 101.904 262.245 102.167 261.984 102.381C261.724 102.589 261.422 102.748 261.078 102.857C260.74 102.962 260.323 103.014 259.828 103.014C259.307 103.014 258.844 102.923 258.438 102.74C258.036 102.558 257.719 102.282 257.484 101.912C257.255 101.542 257.141 101.074 257.141 100.506C257.141 99.6517 257.479 98.9954 258.156 98.5371C258.833 98.0788 259.865 97.8288 261.25 97.7871L262.727 97.7246V97.2012C262.727 96.4616 262.568 95.9434 262.25 95.6465C261.932 95.3496 261.484 95.2012 260.906 95.2012C260.458 95.2012 260.031 95.2663 259.625 95.3965C259.219 95.5267 258.833 95.6803 258.469 95.8574L258.07 94.873C258.456 94.6751 258.898 94.5059 259.398 94.3652C259.898 94.2246 260.424 94.1543 260.977 94.1543ZM262.711 98.6387L261.406 98.6934C260.339 98.735 259.586 98.9095 259.148 99.2168C258.711 99.5241 258.492 99.959 258.492 100.521C258.492 101.011 258.641 101.373 258.938 101.607C259.234 101.842 259.628 101.959 260.117 101.959C260.878 101.959 261.5 101.748 261.984 101.326C262.469 100.904 262.711 100.271 262.711 99.4277V98.6387ZM270.555 94.1387C270.727 94.1387 270.906 94.1491 271.094 94.1699C271.281 94.1855 271.448 94.209 271.594 94.2402L271.43 95.4434C271.289 95.4069 271.133 95.3783 270.961 95.3574C270.789 95.3366 270.628 95.3262 270.477 95.3262C270.133 95.3262 269.807 95.3965 269.5 95.5371C269.198 95.6725 268.932 95.8704 268.703 96.1309C268.474 96.3861 268.294 96.696 268.164 97.0605C268.034 97.4199 267.969 97.821 267.969 98.2637V102.857H266.664V94.2949H267.742L267.883 95.873H267.938C268.115 95.5553 268.328 95.2663 268.578 95.0059C268.828 94.7402 269.117 94.5293 269.445 94.373C269.779 94.2168 270.148 94.1387 270.555 94.1387ZM276.414 94.1543C277.435 94.1543 278.193 94.3835 278.688 94.8418C279.182 95.3001 279.43 96.0319 279.43 97.0371V102.857H278.484L278.234 101.592H278.172C277.932 101.904 277.682 102.167 277.422 102.381C277.161 102.589 276.859 102.748 276.516 102.857C276.177 102.962 275.76 103.014 275.266 103.014C274.745 103.014 274.281 102.923 273.875 102.74C273.474 102.558 273.156 102.282 272.922 101.912C272.693 101.542 272.578 101.074 272.578 100.506C272.578 99.6517 272.917 98.9954 273.594 98.5371C274.271 98.0788 275.302 97.8288 276.688 97.7871L278.164 97.7246V97.2012C278.164 96.4616 278.005 95.9434 277.688 95.6465C277.37 95.3496 276.922 95.2012 276.344 95.2012C275.896 95.2012 275.469 95.2663 275.062 95.3965C274.656 95.5267 274.271 95.6803 273.906 95.8574L273.508 94.873C273.893 94.6751 274.336 94.5059 274.836 94.3652C275.336 94.2246 275.862 94.1543 276.414 94.1543ZM278.148 98.6387L276.844 98.6934C275.776 98.735 275.023 98.9095 274.586 99.2168C274.148 99.5241 273.93 99.959 273.93 100.521C273.93 101.011 274.078 101.373 274.375 101.607C274.672 101.842 275.065 101.959 275.555 101.959C276.315 101.959 276.938 101.748 277.422 101.326C277.906 100.904 278.148 100.271 278.148 99.4277V98.6387ZM69.2578 118.139C69.4297 118.139 69.6094 118.149 69.7969 118.17C69.9844 118.186 70.151 118.209 70.2969 118.24L70.1328 119.443C69.9922 119.407 69.8359 119.378 69.6641 119.357C69.4922 119.337 69.3307 119.326 69.1797 119.326C68.8359 119.326 68.5104 119.396 68.2031 119.537C67.901 119.673 67.6354 119.87 67.4062 120.131C67.1771 120.386 66.9974 120.696 66.8672 121.061C66.737 121.42 66.6719 121.821 66.6719 122.264V126.857H65.3672V118.295H66.4453L66.5859 119.873H66.6406C66.8177 119.555 67.0312 119.266 67.2812 119.006C67.5312 118.74 67.8203 118.529 68.1484 118.373C68.4818 118.217 68.8516 118.139 69.2578 118.139ZM75.2109 118.139C75.9401 118.139 76.5651 118.3 77.0859 118.623C77.6068 118.946 78.0052 119.399 78.2812 119.982C78.5573 120.561 78.6953 121.238 78.6953 122.014V122.818H72.7812C72.7969 123.824 73.0469 124.589 73.5312 125.115C74.0156 125.641 74.6979 125.904 75.5781 125.904C76.1198 125.904 76.599 125.855 77.0156 125.756C77.4323 125.657 77.8646 125.511 78.3125 125.318V126.459C77.8802 126.652 77.4505 126.792 77.0234 126.881C76.6016 126.969 76.1016 127.014 75.5234 127.014C74.7005 127.014 73.9818 126.847 73.3672 126.514C72.7578 126.175 72.2839 125.68 71.9453 125.029C71.6068 124.378 71.4375 123.581 71.4375 122.639C71.4375 121.717 71.5911 120.92 71.8984 120.248C72.2109 119.571 72.6484 119.05 73.2109 118.686C73.7786 118.321 74.4453 118.139 75.2109 118.139ZM75.1953 119.201C74.5026 119.201 73.9505 119.428 73.5391 119.881C73.1276 120.334 72.8828 120.967 72.8047 121.779H77.3359C77.3307 121.269 77.25 120.821 77.0938 120.436C76.9427 120.045 76.7109 119.743 76.3984 119.529C76.0859 119.311 75.6849 119.201 75.1953 119.201ZM83.2891 130.701C82.1641 130.701 81.2969 130.49 80.6875 130.068C80.0781 129.652 79.7734 129.066 79.7734 128.311C79.7734 127.774 79.9427 127.316 80.2812 126.936C80.625 126.555 81.099 126.303 81.7031 126.178C81.4792 126.074 81.2865 125.917 81.125 125.709C80.9688 125.501 80.8906 125.261 80.8906 124.99C80.8906 124.678 80.9766 124.404 81.1484 124.17C81.3255 123.93 81.5938 123.701 81.9531 123.482C81.5052 123.3 81.1406 122.993 80.8594 122.561C80.5833 122.123 80.4453 121.615 80.4453 121.037C80.4453 120.423 80.5729 119.899 80.8281 119.467C81.0833 119.029 81.4531 118.696 81.9375 118.467C82.4219 118.238 83.0078 118.123 83.6953 118.123C83.8464 118.123 83.9974 118.131 84.1484 118.146C84.3047 118.157 84.4531 118.175 84.5938 118.201C84.7344 118.222 84.8568 118.248 84.9609 118.279H87.8984V119.115L86.3203 119.311C86.4766 119.514 86.6068 119.758 86.7109 120.045C86.8151 120.331 86.8672 120.649 86.8672 120.998C86.8672 121.852 86.5781 122.532 86 123.037C85.4219 123.537 84.6276 123.787 83.6172 123.787C83.3776 123.787 83.1328 123.766 82.8828 123.725C82.6276 123.865 82.4323 124.021 82.2969 124.193C82.1667 124.365 82.1016 124.563 82.1016 124.787C82.1016 124.954 82.151 125.087 82.25 125.186C82.3542 125.285 82.5026 125.357 82.6953 125.404C82.888 125.446 83.1198 125.467 83.3906 125.467H84.8984C85.8307 125.467 86.5443 125.662 87.0391 126.053C87.5391 126.443 87.7891 127.014 87.7891 127.764C87.7891 128.712 87.4036 129.438 86.6328 129.943C85.862 130.449 84.7474 130.701 83.2891 130.701ZM83.3281 129.686C84.0365 129.686 84.6224 129.613 85.0859 129.467C85.5547 129.326 85.9036 129.12 86.1328 128.85C86.3672 128.584 86.4844 128.266 86.4844 127.896C86.4844 127.553 86.4062 127.292 86.25 127.115C86.0938 126.943 85.8646 126.829 85.5625 126.771C85.2604 126.709 84.8906 126.678 84.4531 126.678H82.9688C82.5833 126.678 82.2474 126.738 81.9609 126.857C81.6745 126.977 81.4531 127.154 81.2969 127.389C81.1458 127.623 81.0703 127.915 81.0703 128.264C81.0703 128.727 81.2656 129.079 81.6562 129.318C82.0469 129.563 82.6042 129.686 83.3281 129.686ZM83.6641 122.842C84.2839 122.842 84.75 122.686 85.0625 122.373C85.375 122.061 85.5312 121.605 85.5312 121.006C85.5312 120.365 85.3724 119.886 85.0547 119.568C84.737 119.245 84.2682 119.084 83.6484 119.084C83.0547 119.084 82.5964 119.251 82.2734 119.584C81.9557 119.912 81.7969 120.394 81.7969 121.029C81.7969 121.613 81.9583 122.061 82.2812 122.373C82.6042 122.686 83.0651 122.842 83.6641 122.842ZM90.8828 118.295V126.857H89.5859V118.295H90.8828ZM90.25 115.092C90.4635 115.092 90.6458 115.162 90.7969 115.303C90.9531 115.438 91.0312 115.652 91.0312 115.943C91.0312 116.23 90.9531 116.443 90.7969 116.584C90.6458 116.725 90.4635 116.795 90.25 116.795C90.026 116.795 89.8385 116.725 89.6875 116.584C89.5417 116.443 89.4688 116.23 89.4688 115.943C89.4688 115.652 89.5417 115.438 89.6875 115.303C89.8385 115.162 90.026 115.092 90.25 115.092ZM99.1719 124.514C99.1719 125.061 99.0339 125.521 98.7578 125.896C98.487 126.266 98.0964 126.545 97.5859 126.732C97.0807 126.92 96.4766 127.014 95.7734 127.014C95.1745 127.014 94.6562 126.967 94.2188 126.873C93.7812 126.779 93.3984 126.646 93.0703 126.475V125.279C93.4193 125.451 93.8359 125.607 94.3203 125.748C94.8047 125.889 95.2995 125.959 95.8047 125.959C96.5443 125.959 97.0807 125.839 97.4141 125.6C97.7474 125.36 97.9141 125.035 97.9141 124.623C97.9141 124.389 97.8464 124.183 97.7109 124.006C97.5807 123.824 97.3594 123.649 97.0469 123.482C96.7344 123.311 96.3021 123.123 95.75 122.92C95.2031 122.712 94.7292 122.506 94.3281 122.303C93.9323 122.094 93.625 121.842 93.4062 121.545C93.1927 121.248 93.0859 120.863 93.0859 120.389C93.0859 119.665 93.3776 119.11 93.9609 118.725C94.5495 118.334 95.3203 118.139 96.2734 118.139C96.7891 118.139 97.2708 118.191 97.7188 118.295C98.1719 118.394 98.5938 118.529 98.9844 118.701L98.5469 119.74C98.1927 119.589 97.8151 119.462 97.4141 119.357C97.013 119.253 96.6042 119.201 96.1875 119.201C95.5885 119.201 95.1276 119.3 94.8047 119.498C94.487 119.696 94.3281 119.967 94.3281 120.311C94.3281 120.576 94.401 120.795 94.5469 120.967C94.6979 121.139 94.9375 121.3 95.2656 121.451C95.5938 121.602 96.026 121.779 96.5625 121.982C97.099 122.18 97.5625 122.386 97.9531 122.6C98.3438 122.808 98.6432 123.063 98.8516 123.365C99.0651 123.662 99.1719 124.045 99.1719 124.514ZM104.023 125.951C104.237 125.951 104.456 125.933 104.68 125.896C104.904 125.86 105.086 125.816 105.227 125.764V126.771C105.076 126.839 104.865 126.896 104.594 126.943C104.328 126.99 104.068 127.014 103.812 127.014C103.359 127.014 102.948 126.936 102.578 126.779C102.208 126.618 101.911 126.347 101.688 125.967C101.469 125.587 101.359 125.061 101.359 124.389V119.311H100.141V118.678L101.367 118.17L101.883 116.311H102.664V118.295H105.172V119.311H102.664V124.35C102.664 124.886 102.786 125.287 103.031 125.553C103.281 125.818 103.612 125.951 104.023 125.951ZM110.852 118.139C111.023 118.139 111.203 118.149 111.391 118.17C111.578 118.186 111.745 118.209 111.891 118.24L111.727 119.443C111.586 119.407 111.43 119.378 111.258 119.357C111.086 119.337 110.924 119.326 110.773 119.326C110.43 119.326 110.104 119.396 109.797 119.537C109.495 119.673 109.229 119.87 109 120.131C108.771 120.386 108.591 120.696 108.461 121.061C108.331 121.42 108.266 121.821 108.266 122.264V126.857H106.961V118.295H108.039L108.18 119.873H108.234C108.411 119.555 108.625 119.266 108.875 119.006C109.125 118.74 109.414 118.529 109.742 118.373C110.076 118.217 110.445 118.139 110.852 118.139ZM116.711 118.154C117.732 118.154 118.49 118.383 118.984 118.842C119.479 119.3 119.727 120.032 119.727 121.037V126.857H118.781L118.531 125.592H118.469C118.229 125.904 117.979 126.167 117.719 126.381C117.458 126.589 117.156 126.748 116.812 126.857C116.474 126.962 116.057 127.014 115.562 127.014C115.042 127.014 114.578 126.923 114.172 126.74C113.771 126.558 113.453 126.282 113.219 125.912C112.99 125.542 112.875 125.074 112.875 124.506C112.875 123.652 113.214 122.995 113.891 122.537C114.568 122.079 115.599 121.829 116.984 121.787L118.461 121.725V121.201C118.461 120.462 118.302 119.943 117.984 119.646C117.667 119.35 117.219 119.201 116.641 119.201C116.193 119.201 115.766 119.266 115.359 119.396C114.953 119.527 114.568 119.68 114.203 119.857L113.805 118.873C114.19 118.675 114.633 118.506 115.133 118.365C115.633 118.225 116.159 118.154 116.711 118.154ZM118.445 122.639L117.141 122.693C116.073 122.735 115.32 122.91 114.883 123.217C114.445 123.524 114.227 123.959 114.227 124.521C114.227 125.011 114.375 125.373 114.672 125.607C114.969 125.842 115.362 125.959 115.852 125.959C116.612 125.959 117.234 125.748 117.719 125.326C118.203 124.904 118.445 124.271 118.445 123.428V122.639ZM126.289 118.139C126.461 118.139 126.641 118.149 126.828 118.17C127.016 118.186 127.182 118.209 127.328 118.24L127.164 119.443C127.023 119.407 126.867 119.378 126.695 119.357C126.523 119.337 126.362 119.326 126.211 119.326C125.867 119.326 125.542 119.396 125.234 119.537C124.932 119.673 124.667 119.87 124.438 120.131C124.208 120.386 124.029 120.696 123.898 121.061C123.768 121.42 123.703 121.821 123.703 122.264V126.857H122.398V118.295H123.477L123.617 119.873H123.672C123.849 119.555 124.062 119.266 124.312 119.006C124.562 118.74 124.852 118.529 125.18 118.373C125.513 118.217 125.883 118.139 126.289 118.139ZM136.398 118.139C137.128 118.139 137.753 118.3 138.273 118.623C138.794 118.946 139.193 119.399 139.469 119.982C139.745 120.561 139.883 121.238 139.883 122.014V122.818H133.969C133.984 123.824 134.234 124.589 134.719 125.115C135.203 125.641 135.885 125.904 136.766 125.904C137.307 125.904 137.786 125.855 138.203 125.756C138.62 125.657 139.052 125.511 139.5 125.318V126.459C139.068 126.652 138.638 126.792 138.211 126.881C137.789 126.969 137.289 127.014 136.711 127.014C135.888 127.014 135.169 126.847 134.555 126.514C133.945 126.175 133.471 125.68 133.133 125.029C132.794 124.378 132.625 123.581 132.625 122.639C132.625 121.717 132.779 120.92 133.086 120.248C133.398 119.571 133.836 119.05 134.398 118.686C134.966 118.321 135.633 118.139 136.398 118.139ZM136.383 119.201C135.69 119.201 135.138 119.428 134.727 119.881C134.315 120.334 134.07 120.967 133.992 121.779H138.523C138.518 121.269 138.438 120.821 138.281 120.436C138.13 120.045 137.898 119.743 137.586 119.529C137.273 119.311 136.872 119.201 136.383 119.201ZM143.391 126.857H142.086V114.701H143.391V126.857ZM153.492 118.154C154.513 118.154 155.271 118.383 155.766 118.842C156.26 119.3 156.508 120.032 156.508 121.037V126.857H155.562L155.312 125.592H155.25C155.01 125.904 154.76 126.167 154.5 126.381C154.24 126.589 153.938 126.748 153.594 126.857C153.255 126.962 152.839 127.014 152.344 127.014C151.823 127.014 151.359 126.923 150.953 126.74C150.552 126.558 150.234 126.282 150 125.912C149.771 125.542 149.656 125.074 149.656 124.506C149.656 123.652 149.995 122.995 150.672 122.537C151.349 122.079 152.38 121.829 153.766 121.787L155.242 121.725V121.201C155.242 120.462 155.083 119.943 154.766 119.646C154.448 119.35 154 119.201 153.422 119.201C152.974 119.201 152.547 119.266 152.141 119.396C151.734 119.527 151.349 119.68 150.984 119.857L150.586 118.873C150.971 118.675 151.414 118.506 151.914 118.365C152.414 118.225 152.94 118.154 153.492 118.154ZM155.227 122.639L153.922 122.693C152.854 122.735 152.102 122.91 151.664 123.217C151.227 123.524 151.008 123.959 151.008 124.521C151.008 125.011 151.156 125.373 151.453 125.607C151.75 125.842 152.143 125.959 152.633 125.959C153.393 125.959 154.016 125.748 154.5 125.326C154.984 124.904 155.227 124.271 155.227 123.428V122.639ZM160.484 126.857H159.18V114.701H160.484V126.857ZM165.992 125.951C166.206 125.951 166.424 125.933 166.648 125.896C166.872 125.86 167.055 125.816 167.195 125.764V126.771C167.044 126.839 166.833 126.896 166.562 126.943C166.297 126.99 166.036 127.014 165.781 127.014C165.328 127.014 164.917 126.936 164.547 126.779C164.177 126.618 163.88 126.347 163.656 125.967C163.438 125.587 163.328 125.061 163.328 124.389V119.311H162.109V118.678L163.336 118.17L163.852 116.311H164.633V118.295H167.141V119.311H164.633V124.35C164.633 124.886 164.755 125.287 165 125.553C165.25 125.818 165.581 125.951 165.992 125.951ZM176.312 122.561C176.312 123.264 176.221 123.891 176.039 124.443C175.857 124.995 175.594 125.462 175.25 125.842C174.906 126.222 174.49 126.514 174 126.717C173.516 126.915 172.966 127.014 172.352 127.014C171.779 127.014 171.253 126.915 170.773 126.717C170.299 126.514 169.888 126.222 169.539 125.842C169.195 125.462 168.927 124.995 168.734 124.443C168.547 123.891 168.453 123.264 168.453 122.561C168.453 121.623 168.612 120.826 168.93 120.17C169.247 119.508 169.701 119.006 170.289 118.662C170.883 118.313 171.589 118.139 172.406 118.139C173.188 118.139 173.87 118.313 174.453 118.662C175.042 119.011 175.497 119.516 175.82 120.178C176.148 120.834 176.312 121.628 176.312 122.561ZM169.797 122.561C169.797 123.248 169.888 123.844 170.07 124.35C170.253 124.855 170.534 125.245 170.914 125.521C171.294 125.798 171.784 125.936 172.383 125.936C172.977 125.936 173.464 125.798 173.844 125.521C174.229 125.245 174.513 124.855 174.695 124.35C174.878 123.844 174.969 123.248 174.969 122.561C174.969 121.878 174.878 121.29 174.695 120.795C174.513 120.295 174.232 119.91 173.852 119.639C173.471 119.368 172.979 119.232 172.375 119.232C171.484 119.232 170.831 119.527 170.414 120.115C170.003 120.704 169.797 121.519 169.797 122.561ZM192.008 118.139C192.951 118.139 193.661 118.386 194.141 118.881C194.62 119.37 194.859 120.16 194.859 121.248V126.857H193.578V121.311C193.578 120.618 193.427 120.1 193.125 119.756C192.828 119.407 192.385 119.232 191.797 119.232C190.969 119.232 190.367 119.472 189.992 119.951C189.617 120.43 189.43 121.136 189.43 122.068V126.857H188.141V121.311C188.141 120.847 188.073 120.462 187.938 120.154C187.807 119.847 187.609 119.618 187.344 119.467C187.083 119.311 186.753 119.232 186.352 119.232C185.784 119.232 185.328 119.35 184.984 119.584C184.641 119.818 184.391 120.167 184.234 120.631C184.083 121.089 184.008 121.654 184.008 122.326V126.857H182.711V118.295H183.758L183.953 119.506H184.023C184.195 119.209 184.411 118.959 184.672 118.756C184.932 118.553 185.224 118.399 185.547 118.295C185.87 118.191 186.214 118.139 186.578 118.139C187.229 118.139 187.773 118.261 188.211 118.506C188.654 118.745 188.974 119.113 189.172 119.607H189.242C189.523 119.113 189.909 118.745 190.398 118.506C190.888 118.261 191.424 118.139 192.008 118.139ZM200.727 118.154C201.747 118.154 202.505 118.383 203 118.842C203.495 119.3 203.742 120.032 203.742 121.037V126.857H202.797L202.547 125.592H202.484C202.245 125.904 201.995 126.167 201.734 126.381C201.474 126.589 201.172 126.748 200.828 126.857C200.49 126.962 200.073 127.014 199.578 127.014C199.057 127.014 198.594 126.923 198.188 126.74C197.786 126.558 197.469 126.282 197.234 125.912C197.005 125.542 196.891 125.074 196.891 124.506C196.891 123.652 197.229 122.995 197.906 122.537C198.583 122.079 199.615 121.829 201 121.787L202.477 121.725V121.201C202.477 120.462 202.318 119.943 202 119.646C201.682 119.35 201.234 119.201 200.656 119.201C200.208 119.201 199.781 119.266 199.375 119.396C198.969 119.527 198.583 119.68 198.219 119.857L197.82 118.873C198.206 118.675 198.648 118.506 199.148 118.365C199.648 118.225 200.174 118.154 200.727 118.154ZM202.461 122.639L201.156 122.693C200.089 122.735 199.336 122.91 198.898 123.217C198.461 123.524 198.242 123.959 198.242 124.521C198.242 125.011 198.391 125.373 198.688 125.607C198.984 125.842 199.378 125.959 199.867 125.959C200.628 125.959 201.25 125.748 201.734 125.326C202.219 124.904 202.461 124.271 202.461 123.428V122.639ZM202.867 114.6V114.756C202.763 114.907 202.62 115.089 202.438 115.303C202.26 115.511 202.062 115.732 201.844 115.967C201.625 116.196 201.404 116.415 201.18 116.623C200.961 116.831 200.758 117.011 200.57 117.162H199.703V116.975C199.87 116.777 200.052 116.54 200.25 116.264C200.448 115.982 200.641 115.696 200.828 115.404C201.016 115.107 201.172 114.839 201.297 114.6H202.867ZM208.453 122.475L205.492 118.295H206.977L209.234 121.592L211.484 118.295H212.953L209.992 122.475L213.117 126.857H211.633L209.234 123.365L206.82 126.857H205.352L208.453 122.475ZM216.086 118.295V126.857H214.789V118.295H216.086ZM215.453 115.092C215.667 115.092 215.849 115.162 216 115.303C216.156 115.438 216.234 115.652 216.234 115.943C216.234 116.23 216.156 116.443 216 116.584C215.849 116.725 215.667 116.795 215.453 116.795C215.229 116.795 215.042 116.725 214.891 116.584C214.745 116.443 214.672 116.23 214.672 115.943C214.672 115.652 214.745 115.438 214.891 115.303C215.042 115.162 215.229 115.092 215.453 115.092ZM228.133 118.139C229.076 118.139 229.786 118.386 230.266 118.881C230.745 119.37 230.984 120.16 230.984 121.248V126.857H229.703V121.311C229.703 120.618 229.552 120.1 229.25 119.756C228.953 119.407 228.51 119.232 227.922 119.232C227.094 119.232 226.492 119.472 226.117 119.951C225.742 120.43 225.555 121.136 225.555 122.068V126.857H224.266V121.311C224.266 120.847 224.198 120.462 224.062 120.154C223.932 119.847 223.734 119.618 223.469 119.467C223.208 119.311 222.878 119.232 222.477 119.232C221.909 119.232 221.453 119.35 221.109 119.584C220.766 119.818 220.516 120.167 220.359 120.631C220.208 121.089 220.133 121.654 220.133 122.326V126.857H218.836V118.295H219.883L220.078 119.506H220.148C220.32 119.209 220.536 118.959 220.797 118.756C221.057 118.553 221.349 118.399 221.672 118.295C221.995 118.191 222.339 118.139 222.703 118.139C223.354 118.139 223.898 118.261 224.336 118.506C224.779 118.745 225.099 119.113 225.297 119.607H225.367C225.648 119.113 226.034 118.745 226.523 118.506C227.013 118.261 227.549 118.139 228.133 118.139ZM241.031 122.561C241.031 123.264 240.94 123.891 240.758 124.443C240.576 124.995 240.312 125.462 239.969 125.842C239.625 126.222 239.208 126.514 238.719 126.717C238.234 126.915 237.685 127.014 237.07 127.014C236.497 127.014 235.971 126.915 235.492 126.717C235.018 126.514 234.607 126.222 234.258 125.842C233.914 125.462 233.646 124.995 233.453 124.443C233.266 123.891 233.172 123.264 233.172 122.561C233.172 121.623 233.331 120.826 233.648 120.17C233.966 119.508 234.419 119.006 235.008 118.662C235.602 118.313 236.307 118.139 237.125 118.139C237.906 118.139 238.589 118.313 239.172 118.662C239.76 119.011 240.216 119.516 240.539 120.178C240.867 120.834 241.031 121.628 241.031 122.561ZM234.516 122.561C234.516 123.248 234.607 123.844 234.789 124.35C234.971 124.855 235.253 125.245 235.633 125.521C236.013 125.798 236.503 125.936 237.102 125.936C237.695 125.936 238.182 125.798 238.562 125.521C238.948 125.245 239.232 124.855 239.414 124.35C239.596 123.844 239.688 123.248 239.688 122.561C239.688 121.878 239.596 121.29 239.414 120.795C239.232 120.295 238.951 119.91 238.57 119.639C238.19 119.368 237.698 119.232 237.094 119.232C236.203 119.232 235.549 119.527 235.133 120.115C234.721 120.704 234.516 121.519 234.516 122.561ZM250.477 127.014C249.393 127.014 248.534 126.644 247.898 125.904C247.268 125.165 246.953 124.066 246.953 122.607C246.953 121.133 247.276 120.021 247.922 119.271C248.568 118.516 249.427 118.139 250.5 118.139C250.953 118.139 251.349 118.199 251.688 118.318C252.026 118.438 252.318 118.6 252.562 118.803C252.807 119.001 253.013 119.227 253.18 119.482H253.273C253.253 119.321 253.232 119.1 253.211 118.818C253.19 118.537 253.18 118.308 253.18 118.131V114.701H254.477V126.857H253.43L253.234 125.639H253.18C253.018 125.894 252.812 126.126 252.562 126.334C252.318 126.542 252.023 126.709 251.68 126.834C251.341 126.954 250.94 127.014 250.477 127.014ZM250.68 125.936C251.596 125.936 252.245 125.675 252.625 125.154C253.005 124.633 253.195 123.86 253.195 122.834V122.6C253.195 121.511 253.013 120.675 252.648 120.092C252.289 119.508 251.633 119.217 250.68 119.217C249.883 119.217 249.286 119.524 248.891 120.139C248.495 120.748 248.297 121.581 248.297 122.639C248.297 123.691 248.492 124.503 248.883 125.076C249.279 125.649 249.878 125.936 250.68 125.936ZM260.523 118.139C261.253 118.139 261.878 118.3 262.398 118.623C262.919 118.946 263.318 119.399 263.594 119.982C263.87 120.561 264.008 121.238 264.008 122.014V122.818H258.094C258.109 123.824 258.359 124.589 258.844 125.115C259.328 125.641 260.01 125.904 260.891 125.904C261.432 125.904 261.911 125.855 262.328 125.756C262.745 125.657 263.177 125.511 263.625 125.318V126.459C263.193 126.652 262.763 126.792 262.336 126.881C261.914 126.969 261.414 127.014 260.836 127.014C260.013 127.014 259.294 126.847 258.68 126.514C258.07 126.175 257.596 125.68 257.258 125.029C256.919 124.378 256.75 123.581 256.75 122.639C256.75 121.717 256.904 120.92 257.211 120.248C257.523 119.571 257.961 119.05 258.523 118.686C259.091 118.321 259.758 118.139 260.523 118.139ZM260.508 119.201C259.815 119.201 259.263 119.428 258.852 119.881C258.44 120.334 258.195 120.967 258.117 121.779H262.648C262.643 121.269 262.562 120.821 262.406 120.436C262.255 120.045 262.023 119.743 261.711 119.529C261.398 119.311 260.997 119.201 260.508 119.201ZM271.672 126.857H270.367V114.701H271.672V126.857ZM277.617 118.154C278.638 118.154 279.396 118.383 279.891 118.842C280.385 119.3 280.633 120.032 280.633 121.037V126.857H279.688L279.438 125.592H279.375C279.135 125.904 278.885 126.167 278.625 126.381C278.365 126.589 278.062 126.748 277.719 126.857C277.38 126.962 276.964 127.014 276.469 127.014C275.948 127.014 275.484 126.923 275.078 126.74C274.677 126.558 274.359 126.282 274.125 125.912C273.896 125.542 273.781 125.074 273.781 124.506C273.781 123.652 274.12 122.995 274.797 122.537C275.474 122.079 276.505 121.829 277.891 121.787L279.367 121.725V121.201C279.367 120.462 279.208 119.943 278.891 119.646C278.573 119.35 278.125 119.201 277.547 119.201C277.099 119.201 276.672 119.266 276.266 119.396C275.859 119.527 275.474 119.68 275.109 119.857L274.711 118.873C275.096 118.675 275.539 118.506 276.039 118.365C276.539 118.225 277.065 118.154 277.617 118.154ZM279.352 122.639L278.047 122.693C276.979 122.735 276.227 122.91 275.789 123.217C275.352 123.524 275.133 123.959 275.133 124.521C275.133 125.011 275.281 125.373 275.578 125.607C275.875 125.842 276.268 125.959 276.758 125.959C277.518 125.959 278.141 125.748 278.625 125.326C279.109 124.904 279.352 124.271 279.352 123.428V122.639ZM68.7969 151.014C68.026 151.014 67.3464 150.855 66.7578 150.537C66.1693 150.219 65.7109 149.735 65.3828 149.084C65.0547 148.433 64.8906 147.613 64.8906 146.623C64.8906 145.587 65.0625 144.74 65.4062 144.084C65.7552 143.423 66.2344 142.933 66.8438 142.615C67.4531 142.298 68.1458 142.139 68.9219 142.139C69.349 142.139 69.7604 142.183 70.1562 142.271C70.5573 142.355 70.8854 142.462 71.1406 142.592L70.75 143.678C70.4896 143.574 70.1875 143.48 69.8438 143.396C69.5052 143.313 69.1875 143.271 68.8906 143.271C68.2969 143.271 67.8021 143.399 67.4062 143.654C67.0156 143.91 66.7214 144.285 66.5234 144.779C66.3307 145.274 66.2344 145.883 66.2344 146.607C66.2344 147.3 66.3281 147.891 66.5156 148.381C66.7083 148.87 66.9922 149.245 67.3672 149.506C67.7474 149.761 68.2214 149.889 68.7891 149.889C69.2422 149.889 69.651 149.842 70.0156 149.748C70.3802 149.649 70.7109 149.535 71.0078 149.404V150.561C70.7214 150.706 70.401 150.818 70.0469 150.896C69.6979 150.975 69.2812 151.014 68.7969 151.014ZM76.3359 142.139C77.0651 142.139 77.6901 142.3 78.2109 142.623C78.7318 142.946 79.1302 143.399 79.4062 143.982C79.6823 144.561 79.8203 145.238 79.8203 146.014V146.818H73.9062C73.9219 147.824 74.1719 148.589 74.6562 149.115C75.1406 149.641 75.8229 149.904 76.7031 149.904C77.2448 149.904 77.724 149.855 78.1406 149.756C78.5573 149.657 78.9896 149.511 79.4375 149.318V150.459C79.0052 150.652 78.5755 150.792 78.1484 150.881C77.7266 150.969 77.2266 151.014 76.6484 151.014C75.8255 151.014 75.1068 150.847 74.4922 150.514C73.8828 150.175 73.4089 149.68 73.0703 149.029C72.7318 148.378 72.5625 147.581 72.5625 146.639C72.5625 145.717 72.7161 144.92 73.0234 144.248C73.3359 143.571 73.7734 143.05 74.3359 142.686C74.9036 142.321 75.5703 142.139 76.3359 142.139ZM76.3203 143.201C75.6276 143.201 75.0755 143.428 74.6641 143.881C74.2526 144.334 74.0078 144.967 73.9297 145.779H78.4609C78.4557 145.269 78.375 144.821 78.2188 144.436C78.0677 144.045 77.8359 143.743 77.5234 143.529C77.2109 143.311 76.8099 143.201 76.3203 143.201ZM83.3281 150.857H82.0234V138.701H83.3281V150.857ZM89.1172 151.014C88.0339 151.014 87.1745 150.644 86.5391 149.904C85.9089 149.165 85.5938 148.066 85.5938 146.607C85.5938 145.133 85.9167 144.021 86.5625 143.271C87.2083 142.516 88.0677 142.139 89.1406 142.139C89.5938 142.139 89.9896 142.199 90.3281 142.318C90.6667 142.438 90.9583 142.6 91.2031 142.803C91.4479 143.001 91.6536 143.227 91.8203 143.482H91.9141C91.8932 143.321 91.8724 143.1 91.8516 142.818C91.8307 142.537 91.8203 142.308 91.8203 142.131V138.701H93.1172V150.857H92.0703L91.875 149.639H91.8203C91.6589 149.894 91.4531 150.126 91.2031 150.334C90.9583 150.542 90.6641 150.709 90.3203 150.834C89.9818 150.954 89.5807 151.014 89.1172 151.014ZM89.3203 149.936C90.237 149.936 90.8854 149.675 91.2656 149.154C91.6458 148.633 91.8359 147.86 91.8359 146.834V146.6C91.8359 145.511 91.6536 144.675 91.2891 144.092C90.9297 143.508 90.2734 143.217 89.3203 143.217C88.5234 143.217 87.9271 143.524 87.5312 144.139C87.1354 144.748 86.9375 145.581 86.9375 146.639C86.9375 147.691 87.1328 148.503 87.5234 149.076C87.9193 149.649 88.5182 149.936 89.3203 149.936ZM99.0703 142.154C100.091 142.154 100.849 142.383 101.344 142.842C101.839 143.3 102.086 144.032 102.086 145.037V150.857H101.141L100.891 149.592H100.828C100.589 149.904 100.339 150.167 100.078 150.381C99.8177 150.589 99.5156 150.748 99.1719 150.857C98.8333 150.962 98.4167 151.014 97.9219 151.014C97.401 151.014 96.9375 150.923 96.5312 150.74C96.1302 150.558 95.8125 150.282 95.5781 149.912C95.349 149.542 95.2344 149.074 95.2344 148.506C95.2344 147.652 95.5729 146.995 96.25 146.537C96.9271 146.079 97.9583 145.829 99.3438 145.787L100.82 145.725V145.201C100.82 144.462 100.661 143.943 100.344 143.646C100.026 143.35 99.5781 143.201 99 143.201C98.5521 143.201 98.125 143.266 97.7188 143.396C97.3125 143.527 96.9271 143.68 96.5625 143.857L96.1641 142.873C96.5495 142.675 96.9922 142.506 97.4922 142.365C97.9922 142.225 98.5182 142.154 99.0703 142.154ZM100.805 146.639L99.5 146.693C98.4323 146.735 97.6797 146.91 97.2422 147.217C96.8047 147.524 96.5859 147.959 96.5859 148.521C96.5859 149.011 96.7344 149.373 97.0312 149.607C97.3281 149.842 97.7214 149.959 98.2109 149.959C98.9714 149.959 99.5938 149.748 100.078 149.326C100.562 148.904 100.805 148.271 100.805 147.428V146.639ZM107.562 142.295H108.953L110.844 147.264C110.953 147.555 111.055 147.837 111.148 148.107C111.242 148.373 111.326 148.628 111.398 148.873C111.471 149.118 111.529 149.355 111.57 149.584H111.625C111.698 149.324 111.802 148.982 111.938 148.561C112.073 148.133 112.219 147.699 112.375 147.256L114.164 142.295H115.562L111.836 152.115C111.638 152.641 111.406 153.1 111.141 153.49C110.88 153.881 110.562 154.18 110.188 154.389C109.812 154.602 109.359 154.709 108.828 154.709C108.583 154.709 108.367 154.693 108.18 154.662C107.992 154.636 107.831 154.605 107.695 154.568V153.529C107.81 153.555 107.948 153.579 108.109 153.6C108.276 153.62 108.448 153.631 108.625 153.631C108.948 153.631 109.227 153.568 109.461 153.443C109.701 153.324 109.906 153.146 110.078 152.912C110.25 152.678 110.398 152.399 110.523 152.076L110.992 150.873L107.562 142.295ZM122.391 150.857H121.086V138.701H122.391V150.857ZM128.336 142.154C129.357 142.154 130.115 142.383 130.609 142.842C131.104 143.3 131.352 144.032 131.352 145.037V150.857H130.406L130.156 149.592H130.094C129.854 149.904 129.604 150.167 129.344 150.381C129.083 150.589 128.781 150.748 128.438 150.857C128.099 150.962 127.682 151.014 127.188 151.014C126.667 151.014 126.203 150.923 125.797 150.74C125.396 150.558 125.078 150.282 124.844 149.912C124.615 149.542 124.5 149.074 124.5 148.506C124.5 147.652 124.839 146.995 125.516 146.537C126.193 146.079 127.224 145.829 128.609 145.787L130.086 145.725V145.201C130.086 144.462 129.927 143.943 129.609 143.646C129.292 143.35 128.844 143.201 128.266 143.201C127.818 143.201 127.391 143.266 126.984 143.396C126.578 143.527 126.193 143.68 125.828 143.857L125.43 142.873C125.815 142.675 126.258 142.506 126.758 142.365C127.258 142.225 127.784 142.154 128.336 142.154ZM130.07 146.639L128.766 146.693C127.698 146.735 126.945 146.91 126.508 147.217C126.07 147.524 125.852 147.959 125.852 148.521C125.852 149.011 126 149.373 126.297 149.607C126.594 149.842 126.987 149.959 127.477 149.959C128.237 149.959 128.859 149.748 129.344 149.326C129.828 148.904 130.07 148.271 130.07 147.428V146.639ZM141.609 151.014C140.839 151.014 140.159 150.855 139.57 150.537C138.982 150.219 138.523 149.735 138.195 149.084C137.867 148.433 137.703 147.613 137.703 146.623C137.703 145.587 137.875 144.74 138.219 144.084C138.568 143.423 139.047 142.933 139.656 142.615C140.266 142.298 140.958 142.139 141.734 142.139C142.161 142.139 142.573 142.183 142.969 142.271C143.37 142.355 143.698 142.462 143.953 142.592L143.562 143.678C143.302 143.574 143 143.48 142.656 143.396C142.318 143.313 142 143.271 141.703 143.271C141.109 143.271 140.615 143.399 140.219 143.654C139.828 143.91 139.534 144.285 139.336 144.779C139.143 145.274 139.047 145.883 139.047 146.607C139.047 147.3 139.141 147.891 139.328 148.381C139.521 148.87 139.805 149.245 140.18 149.506C140.56 149.761 141.034 149.889 141.602 149.889C142.055 149.889 142.464 149.842 142.828 149.748C143.193 149.649 143.523 149.535 143.82 149.404V150.561C143.534 150.706 143.214 150.818 142.859 150.896C142.51 150.975 142.094 151.014 141.609 151.014ZM149.055 142.154C150.076 142.154 150.833 142.383 151.328 142.842C151.823 143.3 152.07 144.032 152.07 145.037V150.857H151.125L150.875 149.592H150.812C150.573 149.904 150.323 150.167 150.062 150.381C149.802 150.589 149.5 150.748 149.156 150.857C148.818 150.962 148.401 151.014 147.906 151.014C147.385 151.014 146.922 150.923 146.516 150.74C146.115 150.558 145.797 150.282 145.562 149.912C145.333 149.542 145.219 149.074 145.219 148.506C145.219 147.652 145.557 146.995 146.234 146.537C146.911 146.079 147.943 145.829 149.328 145.787L150.805 145.725V145.201C150.805 144.462 150.646 143.943 150.328 143.646C150.01 143.35 149.562 143.201 148.984 143.201C148.536 143.201 148.109 143.266 147.703 143.396C147.297 143.527 146.911 143.68 146.547 143.857L146.148 142.873C146.534 142.675 146.977 142.506 147.477 142.365C147.977 142.225 148.503 142.154 149.055 142.154ZM150.789 146.639L149.484 146.693C148.417 146.735 147.664 146.91 147.227 147.217C146.789 147.524 146.57 147.959 146.57 148.521C146.57 149.011 146.719 149.373 147.016 149.607C147.312 149.842 147.706 149.959 148.195 149.959C148.956 149.959 149.578 149.748 150.062 149.326C150.547 148.904 150.789 148.271 150.789 147.428V146.639ZM158.797 142.139C159.812 142.139 160.581 142.389 161.102 142.889C161.622 143.383 161.883 144.18 161.883 145.279V150.857H160.602V145.365C160.602 144.652 160.438 144.118 160.109 143.764C159.786 143.41 159.289 143.232 158.617 143.232C157.669 143.232 157.003 143.501 156.617 144.037C156.232 144.574 156.039 145.352 156.039 146.373V150.857H154.742V142.295H155.789L155.984 143.529H156.055C156.237 143.227 156.469 142.975 156.75 142.771C157.031 142.563 157.346 142.407 157.695 142.303C158.044 142.193 158.411 142.139 158.797 142.139ZM167.32 149.951C167.534 149.951 167.753 149.933 167.977 149.896C168.201 149.86 168.383 149.816 168.523 149.764V150.771C168.372 150.839 168.161 150.896 167.891 150.943C167.625 150.99 167.365 151.014 167.109 151.014C166.656 151.014 166.245 150.936 165.875 150.779C165.505 150.618 165.208 150.347 164.984 149.967C164.766 149.587 164.656 149.061 164.656 148.389V143.311H163.438V142.678L164.664 142.17L165.18 140.311H165.961V142.295H168.469V143.311H165.961V148.35C165.961 148.886 166.083 149.287 166.328 149.553C166.578 149.818 166.909 149.951 167.32 149.951ZM171.555 142.295V150.857H170.258V142.295H171.555ZM170.922 139.092C171.135 139.092 171.318 139.162 171.469 139.303C171.625 139.438 171.703 139.652 171.703 139.943C171.703 140.23 171.625 140.443 171.469 140.584C171.318 140.725 171.135 140.795 170.922 140.795C170.698 140.795 170.51 140.725 170.359 140.584C170.214 140.443 170.141 140.23 170.141 139.943C170.141 139.652 170.214 139.438 170.359 139.303C170.51 139.162 170.698 139.092 170.922 139.092ZM177.352 151.014C176.268 151.014 175.409 150.644 174.773 149.904C174.143 149.165 173.828 148.066 173.828 146.607C173.828 145.133 174.151 144.021 174.797 143.271C175.443 142.516 176.302 142.139 177.375 142.139C177.828 142.139 178.224 142.199 178.562 142.318C178.901 142.438 179.193 142.6 179.438 142.803C179.682 143.001 179.888 143.227 180.055 143.482H180.148C180.128 143.321 180.107 143.1 180.086 142.818C180.065 142.537 180.055 142.308 180.055 142.131V138.701H181.352V150.857H180.305L180.109 149.639H180.055C179.893 149.894 179.688 150.126 179.438 150.334C179.193 150.542 178.898 150.709 178.555 150.834C178.216 150.954 177.815 151.014 177.352 151.014ZM177.555 149.936C178.471 149.936 179.12 149.675 179.5 149.154C179.88 148.633 180.07 147.86 180.07 146.834V146.6C180.07 145.511 179.888 144.675 179.523 144.092C179.164 143.508 178.508 143.217 177.555 143.217C176.758 143.217 176.161 143.524 175.766 144.139C175.37 144.748 175.172 145.581 175.172 146.639C175.172 147.691 175.367 148.503 175.758 149.076C176.154 149.649 176.753 149.936 177.555 149.936ZM187.305 142.154C188.326 142.154 189.083 142.383 189.578 142.842C190.073 143.3 190.32 144.032 190.32 145.037V150.857H189.375L189.125 149.592H189.062C188.823 149.904 188.573 150.167 188.312 150.381C188.052 150.589 187.75 150.748 187.406 150.857C187.068 150.962 186.651 151.014 186.156 151.014C185.635 151.014 185.172 150.923 184.766 150.74C184.365 150.558 184.047 150.282 183.812 149.912C183.583 149.542 183.469 149.074 183.469 148.506C183.469 147.652 183.807 146.995 184.484 146.537C185.161 146.079 186.193 145.829 187.578 145.787L189.055 145.725V145.201C189.055 144.462 188.896 143.943 188.578 143.646C188.26 143.35 187.812 143.201 187.234 143.201C186.786 143.201 186.359 143.266 185.953 143.396C185.547 143.527 185.161 143.68 184.797 143.857L184.398 142.873C184.784 142.675 185.227 142.506 185.727 142.365C186.227 142.225 186.753 142.154 187.305 142.154ZM189.039 146.639L187.734 146.693C186.667 146.735 185.914 146.91 185.477 147.217C185.039 147.524 184.82 147.959 184.82 148.521C184.82 149.011 184.969 149.373 185.266 149.607C185.562 149.842 185.956 149.959 186.445 149.959C187.206 149.959 187.828 149.748 188.312 149.326C188.797 148.904 189.039 148.271 189.039 147.428V146.639ZM196.039 151.014C194.956 151.014 194.096 150.644 193.461 149.904C192.831 149.165 192.516 148.066 192.516 146.607C192.516 145.133 192.839 144.021 193.484 143.271C194.13 142.516 194.99 142.139 196.062 142.139C196.516 142.139 196.911 142.199 197.25 142.318C197.589 142.438 197.88 142.6 198.125 142.803C198.37 143.001 198.576 143.227 198.742 143.482H198.836C198.815 143.321 198.794 143.1 198.773 142.818C198.753 142.537 198.742 142.308 198.742 142.131V138.701H200.039V150.857H198.992L198.797 149.639H198.742C198.581 149.894 198.375 150.126 198.125 150.334C197.88 150.542 197.586 150.709 197.242 150.834C196.904 150.954 196.503 151.014 196.039 151.014ZM196.242 149.936C197.159 149.936 197.807 149.675 198.188 149.154C198.568 148.633 198.758 147.86 198.758 146.834V146.6C198.758 145.511 198.576 144.675 198.211 144.092C197.852 143.508 197.195 143.217 196.242 143.217C195.445 143.217 194.849 143.524 194.453 144.139C194.057 144.748 193.859 145.581 193.859 146.639C193.859 147.691 194.055 148.503 194.445 149.076C194.841 149.649 195.44 149.936 196.242 149.936ZM209.992 151.014C208.909 151.014 208.049 150.644 207.414 149.904C206.784 149.165 206.469 148.066 206.469 146.607C206.469 145.133 206.792 144.021 207.438 143.271C208.083 142.516 208.943 142.139 210.016 142.139C210.469 142.139 210.865 142.199 211.203 142.318C211.542 142.438 211.833 142.6 212.078 142.803C212.323 143.001 212.529 143.227 212.695 143.482H212.789C212.768 143.321 212.747 143.1 212.727 142.818C212.706 142.537 212.695 142.308 212.695 142.131V138.701H213.992V150.857H212.945L212.75 149.639H212.695C212.534 149.894 212.328 150.126 212.078 150.334C211.833 150.542 211.539 150.709 211.195 150.834C210.857 150.954 210.456 151.014 209.992 151.014ZM210.195 149.936C211.112 149.936 211.76 149.675 212.141 149.154C212.521 148.633 212.711 147.86 212.711 146.834V146.6C212.711 145.511 212.529 144.675 212.164 144.092C211.805 143.508 211.148 143.217 210.195 143.217C209.398 143.217 208.802 143.524 208.406 144.139C208.01 144.748 207.812 145.581 207.812 146.639C207.812 147.691 208.008 148.503 208.398 149.076C208.794 149.649 209.393 149.936 210.195 149.936ZM220.039 142.139C220.768 142.139 221.393 142.3 221.914 142.623C222.435 142.946 222.833 143.399 223.109 143.982C223.385 144.561 223.523 145.238 223.523 146.014V146.818H217.609C217.625 147.824 217.875 148.589 218.359 149.115C218.844 149.641 219.526 149.904 220.406 149.904C220.948 149.904 221.427 149.855 221.844 149.756C222.26 149.657 222.693 149.511 223.141 149.318V150.459C222.708 150.652 222.279 150.792 221.852 150.881C221.43 150.969 220.93 151.014 220.352 151.014C219.529 151.014 218.81 150.847 218.195 150.514C217.586 150.175 217.112 149.68 216.773 149.029C216.435 148.378 216.266 147.581 216.266 146.639C216.266 145.717 216.419 144.92 216.727 144.248C217.039 143.571 217.477 143.05 218.039 142.686C218.607 142.321 219.273 142.139 220.039 142.139ZM220.023 143.201C219.331 143.201 218.779 143.428 218.367 143.881C217.956 144.334 217.711 144.967 217.633 145.779H222.164C222.159 145.269 222.078 144.821 221.922 144.436C221.771 144.045 221.539 143.743 221.227 143.529C220.914 143.311 220.513 143.201 220.023 143.201ZM68.7969 175.014C68.026 175.014 67.3464 174.855 66.7578 174.537C66.1693 174.219 65.7109 173.735 65.3828 173.084C65.0547 172.433 64.8906 171.613 64.8906 170.623C64.8906 169.587 65.0625 168.74 65.4062 168.084C65.7552 167.423 66.2344 166.933 66.8438 166.615C67.4531 166.298 68.1458 166.139 68.9219 166.139C69.349 166.139 69.7604 166.183 70.1562 166.271C70.5573 166.355 70.8854 166.462 71.1406 166.592L70.75 167.678C70.4896 167.574 70.1875 167.48 69.8438 167.396C69.5052 167.313 69.1875 167.271 68.8906 167.271C68.2969 167.271 67.8021 167.399 67.4062 167.654C67.0156 167.91 66.7214 168.285 66.5234 168.779C66.3307 169.274 66.2344 169.883 66.2344 170.607C66.2344 171.3 66.3281 171.891 66.5156 172.381C66.7083 172.87 66.9922 173.245 67.3672 173.506C67.7474 173.761 68.2214 173.889 68.7891 173.889C69.2422 173.889 69.651 173.842 70.0156 173.748C70.3802 173.649 70.7109 173.535 71.0078 173.404V174.561C70.7214 174.706 70.401 174.818 70.0469 174.896C69.6979 174.975 69.2812 175.014 68.7969 175.014ZM76.2422 166.154C77.263 166.154 78.0208 166.383 78.5156 166.842C79.0104 167.3 79.2578 168.032 79.2578 169.037V174.857H78.3125L78.0625 173.592H78C77.7604 173.904 77.5104 174.167 77.25 174.381C76.9896 174.589 76.6875 174.748 76.3438 174.857C76.0052 174.962 75.5885 175.014 75.0938 175.014C74.5729 175.014 74.1094 174.923 73.7031 174.74C73.3021 174.558 72.9844 174.282 72.75 173.912C72.5208 173.542 72.4062 173.074 72.4062 172.506C72.4062 171.652 72.7448 170.995 73.4219 170.537C74.099 170.079 75.1302 169.829 76.5156 169.787L77.9922 169.725V169.201C77.9922 168.462 77.8333 167.943 77.5156 167.646C77.1979 167.35 76.75 167.201 76.1719 167.201C75.724 167.201 75.2969 167.266 74.8906 167.396C74.4844 167.527 74.099 167.68 73.7344 167.857L73.3359 166.873C73.7214 166.675 74.1641 166.506 74.6641 166.365C75.1641 166.225 75.6901 166.154 76.2422 166.154ZM77.9766 170.639L76.6719 170.693C75.6042 170.735 74.8516 170.91 74.4141 171.217C73.9766 171.524 73.7578 171.959 73.7578 172.521C73.7578 173.011 73.9062 173.373 74.2031 173.607C74.5 173.842 74.8932 173.959 75.3828 173.959C76.1432 173.959 76.7656 173.748 77.25 173.326C77.7344 172.904 77.9766 172.271 77.9766 171.428V170.639ZM85.8203 166.139C85.9922 166.139 86.1719 166.149 86.3594 166.17C86.5469 166.186 86.7135 166.209 86.8594 166.24L86.6953 167.443C86.5547 167.407 86.3984 167.378 86.2266 167.357C86.0547 167.337 85.8932 167.326 85.7422 167.326C85.3984 167.326 85.0729 167.396 84.7656 167.537C84.4635 167.673 84.1979 167.87 83.9688 168.131C83.7396 168.386 83.5599 168.696 83.4297 169.061C83.2995 169.42 83.2344 169.821 83.2344 170.264V174.857H81.9297V166.295H83.0078L83.1484 167.873H83.2031C83.3802 167.555 83.5938 167.266 83.8438 167.006C84.0938 166.74 84.3828 166.529 84.7109 166.373C85.0443 166.217 85.4141 166.139 85.8203 166.139ZM91.6797 166.154C92.7005 166.154 93.4583 166.383 93.9531 166.842C94.4479 167.3 94.6953 168.032 94.6953 169.037V174.857H93.75L93.5 173.592H93.4375C93.1979 173.904 92.9479 174.167 92.6875 174.381C92.4271 174.589 92.125 174.748 91.7812 174.857C91.4427 174.962 91.026 175.014 90.5312 175.014C90.0104 175.014 89.5469 174.923 89.1406 174.74C88.7396 174.558 88.4219 174.282 88.1875 173.912C87.9583 173.542 87.8438 173.074 87.8438 172.506C87.8438 171.652 88.1823 170.995 88.8594 170.537C89.5365 170.079 90.5677 169.829 91.9531 169.787L93.4297 169.725V169.201C93.4297 168.462 93.2708 167.943 92.9531 167.646C92.6354 167.35 92.1875 167.201 91.6094 167.201C91.1615 167.201 90.7344 167.266 90.3281 167.396C89.9219 167.527 89.5365 167.68 89.1719 167.857L88.7734 166.873C89.1589 166.675 89.6016 166.506 90.1016 166.365C90.6016 166.225 91.1276 166.154 91.6797 166.154ZM93.4141 170.639L92.1094 170.693C91.0417 170.735 90.2891 170.91 89.8516 171.217C89.4141 171.524 89.1953 171.959 89.1953 172.521C89.1953 173.011 89.3438 173.373 89.6406 173.607C89.9375 173.842 90.3307 173.959 90.8203 173.959C91.5807 173.959 92.2031 173.748 92.6875 173.326C93.1719 172.904 93.4141 172.271 93.4141 171.428V170.639ZM100.797 175.014C100.026 175.014 99.3464 174.855 98.7578 174.537C98.1693 174.219 97.7109 173.735 97.3828 173.084C97.0547 172.433 96.8906 171.613 96.8906 170.623C96.8906 169.587 97.0625 168.74 97.4062 168.084C97.7552 167.423 98.2344 166.933 98.8438 166.615C99.4531 166.298 100.146 166.139 100.922 166.139C101.349 166.139 101.76 166.183 102.156 166.271C102.557 166.355 102.885 166.462 103.141 166.592L102.75 167.678C102.49 167.574 102.188 167.48 101.844 167.396C101.505 167.313 101.188 167.271 100.891 167.271C100.297 167.271 99.8021 167.399 99.4062 167.654C99.0156 167.91 98.7214 168.285 98.5234 168.779C98.3307 169.274 98.2344 169.883 98.2344 170.607C98.2344 171.3 98.3281 171.891 98.5156 172.381C98.7083 172.87 98.9922 173.245 99.3672 173.506C99.7474 173.761 100.221 173.889 100.789 173.889C101.242 173.889 101.651 173.842 102.016 173.748C102.38 173.649 102.711 173.535 103.008 173.404V174.561C102.721 174.706 102.401 174.818 102.047 174.896C101.698 174.975 101.281 175.014 100.797 175.014ZM107.805 173.951C108.018 173.951 108.237 173.933 108.461 173.896C108.685 173.86 108.867 173.816 109.008 173.764V174.771C108.857 174.839 108.646 174.896 108.375 174.943C108.109 174.99 107.849 175.014 107.594 175.014C107.141 175.014 106.729 174.936 106.359 174.779C105.99 174.618 105.693 174.347 105.469 173.967C105.25 173.587 105.141 173.061 105.141 172.389V167.311H103.922V166.678L105.148 166.17L105.664 164.311H106.445V166.295H108.953V167.311H106.445V172.35C106.445 172.886 106.568 173.287 106.812 173.553C107.062 173.818 107.393 173.951 107.805 173.951ZM114.039 166.139C114.768 166.139 115.393 166.3 115.914 166.623C116.435 166.946 116.833 167.399 117.109 167.982C117.385 168.561 117.523 169.238 117.523 170.014V170.818H111.609C111.625 171.824 111.875 172.589 112.359 173.115C112.844 173.641 113.526 173.904 114.406 173.904C114.948 173.904 115.427 173.855 115.844 173.756C116.26 173.657 116.693 173.511 117.141 173.318V174.459C116.708 174.652 116.279 174.792 115.852 174.881C115.43 174.969 114.93 175.014 114.352 175.014C113.529 175.014 112.81 174.847 112.195 174.514C111.586 174.175 111.112 173.68 110.773 173.029C110.435 172.378 110.266 171.581 110.266 170.639C110.266 169.717 110.419 168.92 110.727 168.248C111.039 167.571 111.477 167.05 112.039 166.686C112.607 166.321 113.273 166.139 114.039 166.139ZM114.023 167.201C113.331 167.201 112.779 167.428 112.367 167.881C111.956 168.334 111.711 168.967 111.633 169.779H116.164C116.159 169.269 116.078 168.821 115.922 168.436C115.771 168.045 115.539 167.743 115.227 167.529C114.914 167.311 114.513 167.201 114.023 167.201ZM123.617 166.139C123.789 166.139 123.969 166.149 124.156 166.17C124.344 166.186 124.51 166.209 124.656 166.24L124.492 167.443C124.352 167.407 124.195 167.378 124.023 167.357C123.852 167.337 123.69 167.326 123.539 167.326C123.195 167.326 122.87 167.396 122.562 167.537C122.26 167.673 121.995 167.87 121.766 168.131C121.536 168.386 121.357 168.696 121.227 169.061C121.096 169.42 121.031 169.821 121.031 170.264V174.857H119.727V166.295H120.805L120.945 167.873H121C121.177 167.555 121.391 167.266 121.641 167.006C121.891 166.74 122.18 166.529 122.508 166.373C122.841 166.217 123.211 166.139 123.617 166.139ZM129.57 166.139C130.299 166.139 130.924 166.3 131.445 166.623C131.966 166.946 132.365 167.399 132.641 167.982C132.917 168.561 133.055 169.238 133.055 170.014V170.818H127.141C127.156 171.824 127.406 172.589 127.891 173.115C128.375 173.641 129.057 173.904 129.938 173.904C130.479 173.904 130.958 173.855 131.375 173.756C131.792 173.657 132.224 173.511 132.672 173.318V174.459C132.24 174.652 131.81 174.792 131.383 174.881C130.961 174.969 130.461 175.014 129.883 175.014C129.06 175.014 128.341 174.847 127.727 174.514C127.117 174.175 126.643 173.68 126.305 173.029C125.966 172.378 125.797 171.581 125.797 170.639C125.797 169.717 125.951 168.92 126.258 168.248C126.57 167.571 127.008 167.05 127.57 166.686C128.138 166.321 128.805 166.139 129.57 166.139ZM129.555 167.201C128.862 167.201 128.31 167.428 127.898 167.881C127.487 168.334 127.242 168.967 127.164 169.779H131.695C131.69 169.269 131.609 168.821 131.453 168.436C131.302 168.045 131.07 167.743 130.758 167.529C130.445 167.311 130.044 167.201 129.555 167.201ZM140.797 172.514C140.797 173.061 140.659 173.521 140.383 173.896C140.112 174.266 139.721 174.545 139.211 174.732C138.706 174.92 138.102 175.014 137.398 175.014C136.799 175.014 136.281 174.967 135.844 174.873C135.406 174.779 135.023 174.646 134.695 174.475V173.279C135.044 173.451 135.461 173.607 135.945 173.748C136.43 173.889 136.924 173.959 137.43 173.959C138.169 173.959 138.706 173.839 139.039 173.6C139.372 173.36 139.539 173.035 139.539 172.623C139.539 172.389 139.471 172.183 139.336 172.006C139.206 171.824 138.984 171.649 138.672 171.482C138.359 171.311 137.927 171.123 137.375 170.92C136.828 170.712 136.354 170.506 135.953 170.303C135.557 170.094 135.25 169.842 135.031 169.545C134.818 169.248 134.711 168.863 134.711 168.389C134.711 167.665 135.003 167.11 135.586 166.725C136.174 166.334 136.945 166.139 137.898 166.139C138.414 166.139 138.896 166.191 139.344 166.295C139.797 166.394 140.219 166.529 140.609 166.701L140.172 167.74C139.818 167.589 139.44 167.462 139.039 167.357C138.638 167.253 138.229 167.201 137.812 167.201C137.214 167.201 136.753 167.3 136.43 167.498C136.112 167.696 135.953 167.967 135.953 168.311C135.953 168.576 136.026 168.795 136.172 168.967C136.323 169.139 136.562 169.3 136.891 169.451C137.219 169.602 137.651 169.779 138.188 169.982C138.724 170.18 139.188 170.386 139.578 170.6C139.969 170.808 140.268 171.063 140.477 171.365C140.69 171.662 140.797 172.045 140.797 172.514ZM151.062 166.139C152.13 166.139 152.982 166.506 153.617 167.24C154.253 167.975 154.57 169.079 154.57 170.553C154.57 171.527 154.424 172.344 154.133 173.006C153.841 173.667 153.43 174.167 152.898 174.506C152.372 174.844 151.75 175.014 151.031 175.014C150.578 175.014 150.18 174.954 149.836 174.834C149.492 174.714 149.198 174.553 148.953 174.35C148.708 174.146 148.505 173.925 148.344 173.686H148.25C148.266 173.889 148.284 174.133 148.305 174.42C148.331 174.706 148.344 174.956 148.344 175.17V178.686H147.039V166.295H148.109L148.281 167.561H148.344C148.51 167.3 148.714 167.063 148.953 166.85C149.193 166.631 149.484 166.459 149.828 166.334C150.177 166.204 150.589 166.139 151.062 166.139ZM150.836 167.232C150.242 167.232 149.763 167.347 149.398 167.576C149.039 167.805 148.776 168.149 148.609 168.607C148.443 169.061 148.354 169.631 148.344 170.318V170.568C148.344 171.292 148.422 171.904 148.578 172.404C148.74 172.904 149.003 173.285 149.367 173.545C149.737 173.805 150.232 173.936 150.852 173.936C151.383 173.936 151.826 173.792 152.18 173.506C152.534 173.219 152.797 172.821 152.969 172.311C153.146 171.795 153.234 171.204 153.234 170.537C153.234 169.527 153.036 168.725 152.641 168.131C152.25 167.532 151.648 167.232 150.836 167.232ZM160.133 166.139C160.862 166.139 161.487 166.3 162.008 166.623C162.529 166.946 162.927 167.399 163.203 167.982C163.479 168.561 163.617 169.238 163.617 170.014V170.818H157.703C157.719 171.824 157.969 172.589 158.453 173.115C158.938 173.641 159.62 173.904 160.5 173.904C161.042 173.904 161.521 173.855 161.938 173.756C162.354 173.657 162.786 173.511 163.234 173.318V174.459C162.802 174.652 162.372 174.792 161.945 174.881C161.523 174.969 161.023 175.014 160.445 175.014C159.622 175.014 158.904 174.847 158.289 174.514C157.68 174.175 157.206 173.68 156.867 173.029C156.529 172.378 156.359 171.581 156.359 170.639C156.359 169.717 156.513 168.92 156.82 168.248C157.133 167.571 157.57 167.05 158.133 166.686C158.701 166.321 159.367 166.139 160.133 166.139ZM160.117 167.201C159.424 167.201 158.872 167.428 158.461 167.881C158.049 168.334 157.805 168.967 157.727 169.779H162.258C162.253 169.269 162.172 168.821 162.016 168.436C161.865 168.045 161.633 167.743 161.32 167.529C161.008 167.311 160.607 167.201 160.117 167.201ZM169.711 166.139C169.883 166.139 170.062 166.149 170.25 166.17C170.438 166.186 170.604 166.209 170.75 166.24L170.586 167.443C170.445 167.407 170.289 167.378 170.117 167.357C169.945 167.337 169.784 167.326 169.633 167.326C169.289 167.326 168.964 167.396 168.656 167.537C168.354 167.673 168.089 167.87 167.859 168.131C167.63 168.386 167.451 168.696 167.32 169.061C167.19 169.42 167.125 169.821 167.125 170.264V174.857H165.82V166.295H166.898L167.039 167.873H167.094C167.271 167.555 167.484 167.266 167.734 167.006C167.984 166.74 168.273 166.529 168.602 166.373C168.935 166.217 169.305 166.139 169.711 166.139ZM181.664 166.139C182.607 166.139 183.318 166.386 183.797 166.881C184.276 167.37 184.516 168.16 184.516 169.248V174.857H183.234V169.311C183.234 168.618 183.083 168.1 182.781 167.756C182.484 167.407 182.042 167.232 181.453 167.232C180.625 167.232 180.023 167.472 179.648 167.951C179.273 168.43 179.086 169.136 179.086 170.068V174.857H177.797V169.311C177.797 168.847 177.729 168.462 177.594 168.154C177.464 167.847 177.266 167.618 177 167.467C176.74 167.311 176.409 167.232 176.008 167.232C175.44 167.232 174.984 167.35 174.641 167.584C174.297 167.818 174.047 168.167 173.891 168.631C173.74 169.089 173.664 169.654 173.664 170.326V174.857H172.367V166.295H173.414L173.609 167.506H173.68C173.852 167.209 174.068 166.959 174.328 166.756C174.589 166.553 174.88 166.399 175.203 166.295C175.526 166.191 175.87 166.139 176.234 166.139C176.885 166.139 177.43 166.261 177.867 166.506C178.31 166.745 178.63 167.113 178.828 167.607H178.898C179.18 167.113 179.565 166.745 180.055 166.506C180.544 166.261 181.081 166.139 181.664 166.139ZM188.477 166.295V174.857H187.18V166.295H188.477ZM187.844 163.092C188.057 163.092 188.24 163.162 188.391 163.303C188.547 163.438 188.625 163.652 188.625 163.943C188.625 164.23 188.547 164.443 188.391 164.584C188.24 164.725 188.057 164.795 187.844 164.795C187.62 164.795 187.432 164.725 187.281 164.584C187.135 164.443 187.062 164.23 187.062 163.943C187.062 163.652 187.135 163.438 187.281 163.303C187.432 163.162 187.62 163.092 187.844 163.092ZM193.992 173.951C194.206 173.951 194.424 173.933 194.648 173.896C194.872 173.86 195.055 173.816 195.195 173.764V174.771C195.044 174.839 194.833 174.896 194.562 174.943C194.297 174.99 194.036 175.014 193.781 175.014C193.328 175.014 192.917 174.936 192.547 174.779C192.177 174.618 191.88 174.347 191.656 173.967C191.438 173.587 191.328 173.061 191.328 172.389V167.311H190.109V166.678L191.336 166.17L191.852 164.311H192.633V166.295H195.141V167.311H192.633V172.35C192.633 172.886 192.755 173.287 193 173.553C193.25 173.818 193.581 173.951 193.992 173.951ZM198.227 166.295V174.857H196.93V166.295H198.227ZM197.594 163.092C197.807 163.092 197.99 163.162 198.141 163.303C198.297 163.438 198.375 163.652 198.375 163.943C198.375 164.23 198.297 164.443 198.141 164.584C197.99 164.725 197.807 164.795 197.594 164.795C197.37 164.795 197.182 164.725 197.031 164.584C196.885 164.443 196.812 164.23 196.812 163.943C196.812 163.652 196.885 163.438 197.031 163.303C197.182 163.162 197.37 163.092 197.594 163.092ZM204.023 175.014C202.94 175.014 202.081 174.644 201.445 173.904C200.815 173.165 200.5 172.066 200.5 170.607C200.5 169.133 200.823 168.021 201.469 167.271C202.115 166.516 202.974 166.139 204.047 166.139C204.5 166.139 204.896 166.199 205.234 166.318C205.573 166.438 205.865 166.6 206.109 166.803C206.354 167.001 206.56 167.227 206.727 167.482H206.82C206.799 167.321 206.779 167.1 206.758 166.818C206.737 166.537 206.727 166.308 206.727 166.131V162.701H208.023V174.857H206.977L206.781 173.639H206.727C206.565 173.894 206.359 174.126 206.109 174.334C205.865 174.542 205.57 174.709 205.227 174.834C204.888 174.954 204.487 175.014 204.023 175.014ZM204.227 173.936C205.143 173.936 205.792 173.675 206.172 173.154C206.552 172.633 206.742 171.86 206.742 170.834V170.6C206.742 169.511 206.56 168.675 206.195 168.092C205.836 167.508 205.18 167.217 204.227 167.217C203.43 167.217 202.833 167.524 202.438 168.139C202.042 168.748 201.844 169.581 201.844 170.639C201.844 171.691 202.039 172.503 202.43 173.076C202.826 173.649 203.424 173.936 204.227 173.936ZM218.156 170.561C218.156 171.264 218.065 171.891 217.883 172.443C217.701 172.995 217.438 173.462 217.094 173.842C216.75 174.222 216.333 174.514 215.844 174.717C215.359 174.915 214.81 175.014 214.195 175.014C213.622 175.014 213.096 174.915 212.617 174.717C212.143 174.514 211.732 174.222 211.383 173.842C211.039 173.462 210.771 172.995 210.578 172.443C210.391 171.891 210.297 171.264 210.297 170.561C210.297 169.623 210.456 168.826 210.773 168.17C211.091 167.508 211.544 167.006 212.133 166.662C212.727 166.313 213.432 166.139 214.25 166.139C215.031 166.139 215.714 166.313 216.297 166.662C216.885 167.011 217.341 167.516 217.664 168.178C217.992 168.834 218.156 169.628 218.156 170.561ZM211.641 170.561C211.641 171.248 211.732 171.844 211.914 172.35C212.096 172.855 212.378 173.245 212.758 173.521C213.138 173.798 213.628 173.936 214.227 173.936C214.82 173.936 215.307 173.798 215.688 173.521C216.073 173.245 216.357 172.855 216.539 172.35C216.721 171.844 216.812 171.248 216.812 170.561C216.812 169.878 216.721 169.29 216.539 168.795C216.357 168.295 216.076 167.91 215.695 167.639C215.315 167.368 214.823 167.232 214.219 167.232C213.328 167.232 212.674 167.527 212.258 168.115C211.846 168.704 211.641 169.519 211.641 170.561ZM225.938 172.514C225.938 173.061 225.799 173.521 225.523 173.896C225.253 174.266 224.862 174.545 224.352 174.732C223.846 174.92 223.242 175.014 222.539 175.014C221.94 175.014 221.422 174.967 220.984 174.873C220.547 174.779 220.164 174.646 219.836 174.475V173.279C220.185 173.451 220.602 173.607 221.086 173.748C221.57 173.889 222.065 173.959 222.57 173.959C223.31 173.959 223.846 173.839 224.18 173.6C224.513 173.36 224.68 173.035 224.68 172.623C224.68 172.389 224.612 172.183 224.477 172.006C224.346 171.824 224.125 171.649 223.812 171.482C223.5 171.311 223.068 171.123 222.516 170.92C221.969 170.712 221.495 170.506 221.094 170.303C220.698 170.094 220.391 169.842 220.172 169.545C219.958 169.248 219.852 168.863 219.852 168.389C219.852 167.665 220.143 167.11 220.727 166.725C221.315 166.334 222.086 166.139 223.039 166.139C223.555 166.139 224.036 166.191 224.484 166.295C224.938 166.394 225.359 166.529 225.75 166.701L225.312 167.74C224.958 167.589 224.581 167.462 224.18 167.357C223.779 167.253 223.37 167.201 222.953 167.201C222.354 167.201 221.893 167.3 221.57 167.498C221.253 167.696 221.094 167.967 221.094 168.311C221.094 168.576 221.167 168.795 221.312 168.967C221.464 169.139 221.703 169.3 222.031 169.451C222.359 169.602 222.792 169.779 223.328 169.982C223.865 170.18 224.328 170.386 224.719 170.6C225.109 170.808 225.409 171.063 225.617 171.365C225.831 171.662 225.938 172.045 225.938 172.514Z" fill="#101E37"/>
</svg>
