<svg width="728" height="446" viewBox="0 0 728 446" fill="none" xmlns="http://www.w3.org/2000/svg">
<rect x="1" y="1" width="726" height="444" rx="7" fill="#F3F6F9"/>
<rect x="1" y="1" width="726" height="444" rx="7" stroke="#E6EBF0" stroke-width="2"/>
<rect x="46" y="46" width="636" height="354" rx="10" fill="white"/>
<rect x="46" y="46" width="636" height="354" rx="10" stroke="#333333" stroke-width="4"/>
<rect width="632" height="333" transform="translate(48 56.5)" fill="white"/>
<path d="M94.4784 86.6152C94.1808 86.6152 93.9504 86.5336 93.7872 86.3704C93.6336 86.1976 93.5568 85.9624 93.5568 85.6648V77.8888H90.7488C90.4992 77.8888 90.3024 77.8216 90.1584 77.6872C90.024 77.5432 89.9568 77.3512 89.9568 77.1112C89.9568 76.8616 90.024 76.6744 90.1584 76.5496C90.3024 76.4152 90.4992 76.348 90.7488 76.348H98.208C98.4576 76.348 98.6496 76.4152 98.784 76.5496C98.928 76.6744 99 76.8616 99 77.1112C99 77.3512 98.928 77.5432 98.784 77.6872C98.6496 77.8216 98.4576 77.8888 98.208 77.8888H95.4V85.6648C95.4 85.9624 95.3232 86.1976 95.1696 86.3704C95.016 86.5336 94.7856 86.6152 94.4784 86.6152ZM101.56 86.6008C101.272 86.6008 101.051 86.5144 100.898 86.3416C100.744 86.1688 100.667 85.9288 100.667 85.6216V80.3368C100.667 80.02 100.744 79.78 100.898 79.6168C101.051 79.444 101.272 79.3576 101.56 79.3576C101.848 79.3576 102.069 79.444 102.222 79.6168C102.386 79.78 102.467 80.02 102.467 80.3368V85.6216C102.467 85.9288 102.39 86.1688 102.237 86.3416C102.083 86.5144 101.858 86.6008 101.56 86.6008ZM102.237 78.436C102.141 78.5704 102.026 78.6472 101.891 78.6664C101.757 78.6856 101.627 78.6616 101.502 78.5944C101.378 78.5272 101.286 78.4312 101.229 78.3064C101.181 78.1816 101.195 78.0424 101.272 77.8888L102.366 75.7432C102.453 75.5608 102.568 75.4456 102.712 75.3976C102.856 75.34 103.005 75.3304 103.158 75.3688C103.312 75.4072 103.442 75.4792 103.547 75.5848C103.662 75.6904 103.73 75.82 103.749 75.9736C103.778 76.1176 103.739 76.2664 103.634 76.42L102.237 78.436ZM107.563 86.644C106.939 86.644 106.416 86.5384 105.994 86.3272C105.581 86.116 105.274 85.8088 105.072 85.4056C104.87 84.9928 104.77 84.484 104.77 83.8792V80.812H104.021C103.79 80.812 103.613 80.7544 103.488 80.6392C103.363 80.5144 103.301 80.3464 103.301 80.1352C103.301 79.9144 103.363 79.7464 103.488 79.6312C103.613 79.516 103.79 79.4584 104.021 79.4584H104.77V78.148C104.77 77.8504 104.846 77.6248 105 77.4712C105.163 77.3176 105.389 77.2408 105.677 77.2408C105.965 77.2408 106.186 77.3176 106.339 77.4712C106.493 77.6248 106.57 77.8504 106.57 78.148V79.4584H108.096C108.326 79.4584 108.504 79.516 108.629 79.6312C108.754 79.7464 108.816 79.9144 108.816 80.1352C108.816 80.3464 108.754 80.5144 108.629 80.6392C108.504 80.7544 108.326 80.812 108.096 80.812H106.57V83.7784C106.57 84.2392 106.67 84.5848 106.872 84.8152C107.074 85.0456 107.4 85.1608 107.851 85.1608C108.014 85.1608 108.158 85.1464 108.283 85.1176C108.408 85.0888 108.518 85.0696 108.614 85.06C108.73 85.0504 108.826 85.0888 108.902 85.1752C108.979 85.252 109.018 85.4152 109.018 85.6648C109.018 85.8568 108.984 86.0296 108.917 86.1832C108.859 86.3272 108.749 86.428 108.586 86.4856C108.461 86.524 108.298 86.5576 108.096 86.5864C107.894 86.6248 107.717 86.644 107.563 86.644ZM112.413 86.644C111.827 86.644 111.343 86.5384 110.959 86.3272C110.575 86.1064 110.287 85.78 110.095 85.348C109.912 84.916 109.821 84.3784 109.821 83.7352V80.2504C109.821 79.9432 109.898 79.7176 110.051 79.5736C110.205 79.42 110.426 79.3432 110.714 79.3432C111.002 79.3432 111.223 79.42 111.376 79.5736C111.539 79.7176 111.621 79.9432 111.621 80.2504V83.764C111.621 84.2632 111.722 84.6328 111.923 84.8728C112.125 85.1128 112.447 85.2328 112.888 85.2328C113.368 85.2328 113.762 85.0696 114.069 84.7432C114.376 84.4072 114.53 83.9656 114.53 83.4184V80.2504C114.53 79.9432 114.607 79.7176 114.76 79.5736C114.914 79.42 115.135 79.3432 115.423 79.3432C115.711 79.3432 115.931 79.42 116.085 79.5736C116.248 79.7176 116.33 79.9432 116.33 80.2504V85.6936C116.33 86.308 116.037 86.6152 115.451 86.6152C115.173 86.6152 114.957 86.5384 114.803 86.3848C114.65 86.2216 114.573 85.9912 114.573 85.6936V84.5992L114.775 85.0312C114.573 85.5496 114.266 85.948 113.853 86.2264C113.45 86.5048 112.97 86.644 112.413 86.644ZM120.608 86.644C119.811 86.644 119.211 86.4184 118.808 85.9672C118.405 85.5064 118.203 84.8344 118.203 83.9512V77.14C118.203 76.8424 118.28 76.6168 118.434 76.4632C118.587 76.3096 118.808 76.2328 119.096 76.2328C119.384 76.2328 119.605 76.3096 119.758 76.4632C119.922 76.6168 120.003 76.8424 120.003 77.14V83.8648C120.003 84.3064 120.094 84.6328 120.277 84.844C120.469 85.0552 120.738 85.1608 121.083 85.1608C121.16 85.1608 121.232 85.1608 121.299 85.1608C121.366 85.1512 121.434 85.1416 121.501 85.132C121.635 85.1128 121.726 85.1512 121.774 85.2472C121.822 85.3336 121.846 85.516 121.846 85.7944C121.846 86.0344 121.798 86.2216 121.702 86.356C121.606 86.4904 121.448 86.572 121.227 86.6008C121.131 86.6104 121.03 86.62 120.925 86.6296C120.819 86.6392 120.714 86.644 120.608 86.644ZM125.943 86.644C125.213 86.644 124.579 86.4952 124.042 86.1976C123.504 85.9 123.087 85.4776 122.789 84.9304C122.491 84.3736 122.343 83.7208 122.343 82.972C122.343 82.4056 122.424 81.9016 122.587 81.46C122.76 81.0088 123.005 80.6248 123.322 80.308C123.639 79.9816 124.018 79.7368 124.459 79.5736C124.901 79.4008 125.395 79.3144 125.943 79.3144C126.672 79.3144 127.306 79.4632 127.843 79.7608C128.381 80.0584 128.799 80.4808 129.096 81.028C129.394 81.5752 129.543 82.2232 129.543 82.972C129.543 83.5384 129.456 84.0472 129.283 84.4984C129.12 84.9496 128.88 85.3384 128.563 85.6648C128.247 85.9816 127.867 86.2264 127.426 86.3992C126.984 86.5624 126.49 86.644 125.943 86.644ZM125.943 85.276C126.298 85.276 126.61 85.1896 126.879 85.0168C127.147 84.844 127.354 84.5896 127.498 84.2536C127.651 83.908 127.728 83.4808 127.728 82.972C127.728 82.204 127.565 81.6328 127.239 81.2584C126.912 80.8744 126.48 80.6824 125.943 80.6824C125.587 80.6824 125.275 80.7688 125.007 80.9416C124.738 81.1048 124.527 81.3592 124.373 81.7048C124.229 82.0408 124.157 82.4632 124.157 82.972C124.157 83.7304 124.32 84.3064 124.647 84.7C124.973 85.084 125.405 85.276 125.943 85.276ZM137.645 86.644C137.03 86.644 136.488 86.4952 136.018 86.1976C135.557 85.9 135.197 85.4776 134.938 84.9304C134.678 84.3736 134.549 83.7208 134.549 82.972C134.549 82.2136 134.678 81.5656 134.938 81.028C135.197 80.4808 135.557 80.0584 136.018 79.7608C136.488 79.4632 137.03 79.3144 137.645 79.3144C138.23 79.3144 138.739 79.4584 139.171 79.7464C139.613 80.0344 139.91 80.4136 140.064 80.884H139.906V77.14C139.906 76.8424 139.982 76.6168 140.136 76.4632C140.29 76.3096 140.51 76.2328 140.798 76.2328C141.086 76.2328 141.307 76.3096 141.461 76.4632C141.624 76.6168 141.706 76.8424 141.706 77.14V85.6936C141.706 85.9912 141.629 86.2216 141.475 86.3848C141.322 86.5384 141.101 86.6152 140.813 86.6152C140.525 86.6152 140.304 86.5384 140.15 86.3848C139.997 86.2216 139.92 85.9912 139.92 85.6936V84.5704L140.078 85.0024C139.934 85.5016 139.642 85.9 139.2 86.1976C138.758 86.4952 138.24 86.644 137.645 86.644ZM138.149 85.276C138.504 85.276 138.816 85.1896 139.085 85.0168C139.354 84.844 139.56 84.5896 139.704 84.2536C139.858 83.908 139.934 83.4808 139.934 82.972C139.934 82.204 139.771 81.6328 139.445 81.2584C139.118 80.8744 138.686 80.6824 138.149 80.6824C137.794 80.6824 137.482 80.7688 137.213 80.9416C136.944 81.1048 136.733 81.3592 136.579 81.7048C136.435 82.0408 136.363 82.4632 136.363 82.972C136.363 83.7304 136.526 84.3064 136.853 84.7C137.179 85.084 137.611 85.276 138.149 85.276ZM147.042 86.644C146.246 86.644 145.559 86.4952 144.983 86.1976C144.407 85.9 143.961 85.4776 143.644 84.9304C143.337 84.3832 143.183 83.7352 143.183 82.9864C143.183 82.2568 143.332 81.6184 143.63 81.0712C143.937 80.524 144.354 80.0968 144.882 79.7896C145.42 79.4728 146.03 79.3144 146.711 79.3144C147.21 79.3144 147.657 79.396 148.05 79.5592C148.454 79.7224 148.794 79.9576 149.073 80.2648C149.361 80.572 149.577 80.9464 149.721 81.388C149.874 81.82 149.951 82.3096 149.951 82.8568C149.951 83.0296 149.889 83.164 149.764 83.26C149.649 83.3464 149.481 83.3896 149.26 83.3896H144.638V82.3528H148.684L148.454 82.5688C148.454 82.1272 148.386 81.7576 148.252 81.46C148.127 81.1624 147.94 80.9368 147.69 80.7832C147.45 80.62 147.148 80.5384 146.783 80.5384C146.38 80.5384 146.034 80.6344 145.746 80.8264C145.468 81.0088 145.252 81.2728 145.098 81.6184C144.954 81.9544 144.882 82.3576 144.882 82.828V82.9288C144.882 83.716 145.065 84.3064 145.43 84.7C145.804 85.084 146.351 85.276 147.071 85.276C147.321 85.276 147.599 85.2472 147.906 85.1896C148.223 85.1224 148.521 85.012 148.799 84.8584C149.001 84.7432 149.178 84.6952 149.332 84.7144C149.486 84.724 149.606 84.7768 149.692 84.8728C149.788 84.9688 149.846 85.0888 149.865 85.2328C149.884 85.3672 149.855 85.5064 149.778 85.6504C149.711 85.7944 149.591 85.9192 149.418 86.0248C149.082 86.236 148.694 86.3944 148.252 86.5C147.82 86.596 147.417 86.644 147.042 86.644ZM158.512 86.644C157.888 86.644 157.364 86.5384 156.942 86.3272C156.529 86.116 156.222 85.8088 156.02 85.4056C155.819 84.9928 155.718 84.484 155.718 83.8792V80.812H154.969C154.739 80.812 154.561 80.7544 154.436 80.6392C154.312 80.5144 154.249 80.3464 154.249 80.1352C154.249 79.9144 154.312 79.7464 154.436 79.6312C154.561 79.516 154.739 79.4584 154.969 79.4584H155.718V78.148C155.718 77.8504 155.795 77.6248 155.948 77.4712C156.112 77.3176 156.337 77.2408 156.625 77.2408C156.913 77.2408 157.134 77.3176 157.288 77.4712C157.441 77.6248 157.518 77.8504 157.518 78.148V79.4584H159.044C159.275 79.4584 159.452 79.516 159.577 79.6312C159.702 79.7464 159.764 79.9144 159.764 80.1352C159.764 80.3464 159.702 80.5144 159.577 80.6392C159.452 80.7544 159.275 80.812 159.044 80.812H157.518V83.7784C157.518 84.2392 157.619 84.5848 157.82 84.8152C158.022 85.0456 158.348 85.1608 158.8 85.1608C158.963 85.1608 159.107 85.1464 159.232 85.1176C159.356 85.0888 159.467 85.0696 159.563 85.06C159.678 85.0504 159.774 85.0888 159.851 85.1752C159.928 85.252 159.966 85.4152 159.966 85.6648C159.966 85.8568 159.932 86.0296 159.865 86.1832C159.808 86.3272 159.697 86.428 159.534 86.4856C159.409 86.524 159.246 86.5576 159.044 86.5864C158.843 86.6248 158.665 86.644 158.512 86.644ZM163.131 86.644C162.622 86.644 162.166 86.548 161.763 86.356C161.369 86.1544 161.057 85.8856 160.827 85.5496C160.606 85.2136 160.496 84.8344 160.496 84.412C160.496 83.8936 160.63 83.4856 160.899 83.188C161.168 82.8808 161.605 82.66 162.209 82.5256C162.814 82.3912 163.625 82.324 164.643 82.324H165.363V83.3608H164.657C164.062 83.3608 163.587 83.3896 163.232 83.4472C162.877 83.5048 162.622 83.6056 162.469 83.7496C162.325 83.884 162.253 84.076 162.253 84.3256C162.253 84.6424 162.363 84.9016 162.584 85.1032C162.805 85.3048 163.112 85.4056 163.505 85.4056C163.822 85.4056 164.101 85.3336 164.341 85.1896C164.59 85.036 164.787 84.8296 164.931 84.5704C165.075 84.3112 165.147 84.0136 165.147 83.6776V82.0216C165.147 81.5416 165.041 81.196 164.83 80.9848C164.619 80.7736 164.264 80.668 163.765 80.668C163.486 80.668 163.184 80.7016 162.857 80.7688C162.541 80.836 162.205 80.9512 161.849 81.1144C161.667 81.2008 161.504 81.2248 161.36 81.1864C161.225 81.148 161.12 81.0712 161.043 80.956C160.966 80.8312 160.928 80.6968 160.928 80.5528C160.928 80.4088 160.966 80.2696 161.043 80.1352C161.12 79.9912 161.249 79.8856 161.432 79.8184C161.873 79.636 162.296 79.5064 162.699 79.4296C163.112 79.3528 163.486 79.3144 163.822 79.3144C164.513 79.3144 165.08 79.42 165.521 79.6312C165.973 79.8424 166.309 80.164 166.529 80.596C166.75 81.0184 166.861 81.5656 166.861 82.2376V85.6936C166.861 85.9912 166.789 86.2216 166.645 86.3848C166.501 86.5384 166.294 86.6152 166.025 86.6152C165.757 86.6152 165.545 86.5384 165.392 86.3848C165.248 86.2216 165.176 85.9912 165.176 85.6936V85.0024H165.291C165.224 85.3384 165.089 85.6312 164.888 85.8808C164.696 86.1208 164.451 86.308 164.153 86.4424C163.856 86.5768 163.515 86.644 163.131 86.644ZM172.748 86.644C172.153 86.644 171.63 86.4952 171.179 86.1976C170.737 85.9 170.444 85.5016 170.3 85.0024L170.459 84.6424V85.6936C170.459 85.9912 170.382 86.2216 170.228 86.3848C170.075 86.5384 169.859 86.6152 169.58 86.6152C169.292 86.6152 169.072 86.5384 168.918 86.3848C168.764 86.2216 168.688 85.9912 168.688 85.6936V77.14C168.688 76.8424 168.764 76.6168 168.918 76.4632C169.072 76.3096 169.292 76.2328 169.58 76.2328C169.868 76.2328 170.089 76.3096 170.243 76.4632C170.406 76.6168 170.488 76.8424 170.488 77.14V80.884H170.315C170.468 80.4136 170.766 80.0344 171.208 79.7464C171.649 79.4584 172.163 79.3144 172.748 79.3144C173.372 79.3144 173.915 79.4632 174.376 79.7608C174.836 80.0584 175.196 80.4808 175.456 81.028C175.715 81.5656 175.844 82.2136 175.844 82.972C175.844 83.7208 175.715 84.3736 175.456 84.9304C175.196 85.4776 174.832 85.9 174.361 86.1976C173.9 86.4952 173.363 86.644 172.748 86.644ZM172.244 85.276C172.6 85.276 172.912 85.1896 173.18 85.0168C173.449 84.844 173.656 84.5896 173.8 84.2536C173.953 83.908 174.03 83.4808 174.03 82.972C174.03 82.204 173.867 81.6328 173.54 81.2584C173.214 80.8744 172.782 80.6824 172.244 80.6824C171.889 80.6824 171.577 80.7688 171.308 80.9416C171.04 81.1048 170.828 81.3592 170.675 81.7048C170.531 82.0408 170.459 82.4632 170.459 82.972C170.459 83.7304 170.622 84.3064 170.948 84.7C171.275 85.084 171.707 85.276 172.244 85.276ZM179.727 86.644C178.93 86.644 178.33 86.4184 177.927 85.9672C177.524 85.5064 177.322 84.8344 177.322 83.9512V77.14C177.322 76.8424 177.399 76.6168 177.552 76.4632C177.706 76.3096 177.927 76.2328 178.215 76.2328C178.503 76.2328 178.724 76.3096 178.877 76.4632C179.04 76.6168 179.122 76.8424 179.122 77.14V83.8648C179.122 84.3064 179.213 84.6328 179.396 84.844C179.588 85.0552 179.856 85.1608 180.202 85.1608C180.279 85.1608 180.351 85.1608 180.418 85.1608C180.485 85.1512 180.552 85.1416 180.62 85.132C180.754 85.1128 180.845 85.1512 180.893 85.2472C180.941 85.3336 180.965 85.516 180.965 85.7944C180.965 86.0344 180.917 86.2216 180.821 86.356C180.725 86.4904 180.567 86.572 180.346 86.6008C180.25 86.6104 180.149 86.62 180.044 86.6296C179.938 86.6392 179.832 86.644 179.727 86.644ZM184.239 86.644C183.73 86.644 183.274 86.548 182.871 86.356C182.477 86.1544 182.165 85.8856 181.935 85.5496C181.714 85.2136 181.604 84.8344 181.604 84.412C181.604 83.8936 181.738 83.4856 182.007 83.188C182.276 82.8808 182.712 82.66 183.317 82.5256C183.922 82.3912 184.733 82.324 185.751 82.324H186.471V83.3608H185.765C185.17 83.3608 184.695 83.3896 184.34 83.4472C183.984 83.5048 183.73 83.6056 183.576 83.7496C183.432 83.884 183.36 84.076 183.36 84.3256C183.36 84.6424 183.471 84.9016 183.692 85.1032C183.912 85.3048 184.22 85.4056 184.613 85.4056C184.93 85.4056 185.208 85.3336 185.448 85.1896C185.698 85.036 185.895 84.8296 186.039 84.5704C186.183 84.3112 186.255 84.0136 186.255 83.6776V82.0216C186.255 81.5416 186.149 81.196 185.938 80.9848C185.727 80.7736 185.372 80.668 184.872 80.668C184.594 80.668 184.292 80.7016 183.965 80.7688C183.648 80.836 183.312 80.9512 182.957 81.1144C182.775 81.2008 182.612 81.2248 182.468 81.1864C182.333 81.148 182.228 81.0712 182.151 80.956C182.074 80.8312 182.036 80.6968 182.036 80.5528C182.036 80.4088 182.074 80.2696 182.151 80.1352C182.228 79.9912 182.357 79.8856 182.54 79.8184C182.981 79.636 183.404 79.5064 183.807 79.4296C184.22 79.3528 184.594 79.3144 184.93 79.3144C185.621 79.3144 186.188 79.42 186.629 79.6312C187.08 79.8424 187.416 80.164 187.637 80.596C187.858 81.0184 187.968 81.5656 187.968 82.2376V85.6936C187.968 85.9912 187.896 86.2216 187.752 86.3848C187.608 86.5384 187.402 86.6152 187.133 86.6152C186.864 86.6152 186.653 86.5384 186.5 86.3848C186.356 86.2216 186.284 85.9912 186.284 85.6936V85.0024H186.399C186.332 85.3384 186.197 85.6312 185.996 85.8808C185.804 86.1208 185.559 86.308 185.261 86.4424C184.964 86.5768 184.623 86.644 184.239 86.644Z" fill="#101E37"/>
<g clip-path="url(#clip0_4149_6860)">
<g clip-path="url(#clip1_4149_6860)">
<rect width="35.4459" height="48.7381" transform="translate(90 104.131)" fill="#E6EBF0"/>
<rect width="139.568" height="48.7381" transform="translate(125.446 104.131)" fill="#E6EBF0"/>
<rect x="134.307" y="121.952" width="43.7476" height="5.44" rx="2" fill="#D1D8E0"/>
<rect x="134.307" y="129.608" width="121.845" height="5.44" rx="2" fill="#D1D8E0"/>
<rect width="112.984" height="48.7381" transform="translate(265.014 104.131)" fill="#E6EBF0"/>
<rect x="273.875" y="121.952" width="43.7476" height="5.44" rx="2" fill="#D1D8E0"/>
<rect x="273.875" y="129.608" width="95.2607" height="5.44" rx="2" fill="#D1D8E0"/>
<rect width="108.553" height="48.7381" transform="translate(377.998 104.131)" fill="#E6EBF0"/>
<rect x="386.859" y="121.952" width="43.7476" height="5.44" rx="2" fill="#D1D8E0"/>
<rect x="386.859" y="129.608" width="90.83" height="5.44" rx="2" fill="#D1D8E0"/>
<rect width="108.725" height="48" transform="translate(486.551 104.5)" fill="#E6EBF0"/>
<rect x="495.412" y="121.952" width="43.7476" height="5.44" rx="2" fill="#D1D8E0"/>
<rect x="495.412" y="129.608" width="91.0018" height="5.44" rx="2" fill="#D1D8E0"/>
</g>
<rect width="614" height="36" transform="translate(90 152.5)" fill="white"/>
<rect x="101.631" y="164.408" width="12.1845" height="12.1845" rx="1.66152" fill="white"/>
<rect x="101.631" y="164.408" width="12.1845" height="12.1845" rx="1.66152" stroke="#9EAAB8" stroke-width="1.10768"/>
<rect x="134.307" y="162.845" width="121.845" height="5.44" rx="2" fill="#E6EBF0"/>
<rect x="134.307" y="172.715" width="45.2376" height="5.44" rx="2" fill="#E6EBF0"/>
<g clip-path="url(#clip2_4149_6860)">
<rect opacity="0.5" x="273.875" y="167.78" width="95.2607" height="5.44" rx="2" fill="#CCF3FF"/>
</g>
<rect x="386.859" y="167.78" width="90.9445" height="5.44" rx="2" fill="#E6EBF0"/>
<rect x="495.772" y="165.829" width="51.6298" height="9.34254" rx="3.75414" fill="#F3F6F9" stroke="#9EAAB8" stroke-width="0.491713"/>
<line x1="85.2632" y1="188.284" x2="698.92" y2="188.284" stroke="#E6EBF0" stroke-width="0.553842"/>
<rect width="614" height="36" transform="translate(90 188.5)" fill="white"/>
<rect x="101.631" y="200.408" width="12.1845" height="12.1845" rx="1.66152" fill="white"/>
<rect x="101.631" y="200.408" width="12.1845" height="12.1845" rx="1.66152" stroke="#9EAAB8" stroke-width="1.10768"/>
<rect x="134.307" y="198.845" width="121.845" height="5.44" rx="2" fill="#E6EBF0"/>
<rect x="134.307" y="208.715" width="45.2376" height="5.44" rx="2" fill="#E6EBF0"/>
<g clip-path="url(#clip3_4149_6860)">
<rect opacity="0.5" x="273.875" y="203.78" width="95.2607" height="5.44" rx="2" fill="#CCF3FF"/>
</g>
<rect x="386.859" y="203.78" width="90.9445" height="5.44" rx="2" fill="#E6EBF0"/>
<rect x="495.772" y="201.829" width="51.6298" height="9.34254" rx="3.75414" fill="#F3F6F9" stroke="#9EAAB8" stroke-width="0.491713"/>
<line x1="85.2632" y1="224.284" x2="698.92" y2="224.284" stroke="#E6EBF0" stroke-width="0.553842"/>
<rect width="614" height="36" transform="translate(90 224.5)" fill="white"/>
<rect x="101.631" y="236.408" width="12.1845" height="12.1845" rx="1.66152" fill="white"/>
<rect x="101.631" y="236.408" width="12.1845" height="12.1845" rx="1.66152" stroke="#9EAAB8" stroke-width="1.10768"/>
<rect x="134.307" y="234.845" width="121.845" height="5.44" rx="2" fill="#E6EBF0"/>
<rect x="134.307" y="244.715" width="45.2376" height="5.44" rx="2" fill="#E6EBF0"/>
<g clip-path="url(#clip4_4149_6860)">
<rect opacity="0.5" x="273.875" y="239.78" width="95.2607" height="5.44" rx="2" fill="#CCF3FF"/>
</g>
<rect x="386.859" y="239.78" width="90.9445" height="5.44" rx="2" fill="#E6EBF0"/>
<rect x="495.772" y="237.829" width="51.6298" height="9.34254" rx="3.75414" fill="#F3F6F9" stroke="#9EAAB8" stroke-width="0.491713"/>
<line x1="85.2632" y1="260.284" x2="698.92" y2="260.284" stroke="#E6EBF0" stroke-width="0.553842"/>
<rect width="614" height="36" transform="translate(90 260.5)" fill="white"/>
<rect x="101.631" y="272.408" width="12.1845" height="12.1845" rx="1.66152" fill="white"/>
<rect x="101.631" y="272.408" width="12.1845" height="12.1845" rx="1.66152" stroke="#9EAAB8" stroke-width="1.10768"/>
<rect x="134.307" y="270.845" width="121.845" height="5.44" rx="2" fill="#E6EBF0"/>
<rect x="134.307" y="280.715" width="45.2376" height="5.44" rx="2" fill="#E6EBF0"/>
<g clip-path="url(#clip5_4149_6860)">
<rect opacity="0.5" x="273.875" y="275.78" width="95.2607" height="5.44" rx="2" fill="#CCF3FF"/>
</g>
<rect x="386.859" y="275.78" width="90.9445" height="5.44" rx="2" fill="#E6EBF0"/>
<rect x="495.772" y="273.829" width="51.6298" height="9.34254" rx="3.75414" fill="#F3F6F9" stroke="#9EAAB8" stroke-width="0.491713"/>
<line x1="85.2632" y1="296.284" x2="698.92" y2="296.284" stroke="#E6EBF0" stroke-width="0.553842"/>
<rect width="614" height="36" transform="translate(90 296.5)" fill="white"/>
<rect x="101.631" y="308.408" width="12.1845" height="12.1845" rx="1.66152" fill="white"/>
<rect x="101.631" y="308.408" width="12.1845" height="12.1845" rx="1.66152" stroke="#9EAAB8" stroke-width="1.10768"/>
<rect x="134.307" y="306.845" width="121.845" height="5.44" rx="2" fill="#E6EBF0"/>
<rect x="134.307" y="316.715" width="45.2376" height="5.44" rx="2" fill="#E6EBF0"/>
<g clip-path="url(#clip6_4149_6860)">
<rect opacity="0.5" x="273.875" y="311.78" width="95.2607" height="5.44" rx="2" fill="#CCF3FF"/>
</g>
<rect x="386.859" y="311.78" width="90.9445" height="5.44" rx="2" fill="#E6EBF0"/>
<rect x="495.772" y="309.829" width="51.6298" height="9.34254" rx="3.75414" fill="#F3F6F9" stroke="#9EAAB8" stroke-width="0.491713"/>
<line x1="85.2632" y1="332.284" x2="698.92" y2="332.284" stroke="#E6EBF0" stroke-width="0.553842"/>
<g clip-path="url(#clip7_4149_6860)">
<rect x="90" y="332.5" width="449" height="8.86147" rx="4.43073" fill="#F3F6F9"/>
<rect x="90" y="332.5" width="68.6764" height="8.86147" rx="4.43073" fill="#9EAAB8"/>
</g>
</g>
<rect x="90.25" y="104.75" width="448.5" height="234.5" rx="4.18073" stroke="#E6EBF0" stroke-width="0.5"/>
<path d="M90 359.5L95 362.387L95 356.613L90 359.5ZM539 359.5L534 356.613L534 362.387L539 359.5ZM94.5 359.5L94.5 360L534.5 360L534.5 359.5L534.5 359L94.5 359L94.5 359.5Z" fill="#9100CC"/>
<path d="M277.308 370.5L278.605 364.361H281.717L281.591 364.991H279.18L278.706 367.25H280.961L280.826 367.88H278.567L278.013 370.5H277.308ZM281.305 370.5L282.284 365.898H282.985L282.006 370.5H281.305ZM282.871 365.091C282.76 365.091 282.666 365.059 282.59 364.995C282.517 364.928 282.481 364.834 282.481 364.713C282.481 364.621 282.499 364.534 282.536 364.453C282.575 364.372 282.629 364.308 282.699 364.26C282.772 364.21 282.86 364.184 282.964 364.184C283.087 364.184 283.179 364.217 283.241 364.281C283.303 364.345 283.333 364.435 283.333 364.55C283.333 364.715 283.286 364.846 283.191 364.944C283.095 365.042 282.989 365.091 282.871 365.091ZM282.922 370.5L284.925 368.132L283.925 365.898H284.631L285.37 367.636L286.773 365.898H287.583L285.66 368.161L286.726 370.5H286.012L285.206 368.669L283.732 370.5H282.922ZM289.456 370.584C289.112 370.584 288.815 370.515 288.566 370.378C288.316 370.238 288.125 370.039 287.99 369.782C287.859 369.522 287.793 369.211 287.793 368.85C287.793 368.477 287.846 368.112 287.953 367.754C288.062 367.393 288.217 367.066 288.419 366.775C288.62 366.481 288.862 366.248 289.145 366.074C289.431 365.9 289.75 365.814 290.103 365.814C290.525 365.814 290.846 365.909 291.064 366.099C291.283 366.287 291.392 366.546 291.392 366.876C291.392 367.108 291.337 367.323 291.228 367.519C291.122 367.715 290.956 367.885 290.732 368.031C290.511 368.174 290.23 368.286 289.888 368.367C289.55 368.445 289.148 368.484 288.683 368.484H288.524C288.518 368.535 288.512 368.591 288.507 368.652C288.504 368.714 288.503 368.771 288.503 368.825C288.503 369.194 288.592 369.484 288.771 369.694C288.951 369.901 289.219 370.004 289.578 370.004C289.799 370.004 290.007 369.974 290.203 369.912C290.402 369.848 290.609 369.764 290.825 369.66V370.261C290.618 370.356 290.409 370.434 290.199 370.496C289.989 370.555 289.741 370.584 289.456 370.584ZM288.624 367.913H288.725C289.084 367.913 289.412 367.882 289.712 367.821C290.012 367.757 290.252 367.653 290.434 367.51C290.616 367.365 290.707 367.171 290.707 366.931C290.707 366.774 290.654 366.645 290.548 366.544C290.441 366.444 290.279 366.393 290.061 366.393C289.867 366.393 289.677 366.453 289.489 366.574C289.302 366.691 289.131 366.863 288.977 367.09C288.826 367.317 288.708 367.591 288.624 367.913ZM293.319 370.584C293.067 370.584 292.847 370.525 292.66 370.408C292.472 370.29 292.327 370.115 292.223 369.883C292.12 369.648 292.068 369.356 292.068 369.009C292.068 368.679 292.101 368.358 292.169 368.048C292.236 367.734 292.332 367.443 292.458 367.174C292.587 366.905 292.744 366.67 292.929 366.469C293.113 366.264 293.323 366.106 293.558 365.994C293.796 365.879 294.057 365.822 294.34 365.822C294.555 365.822 294.74 365.861 294.894 365.94C295.048 366.018 295.175 366.12 295.276 366.246C295.38 366.369 295.461 366.502 295.52 366.645H295.562C295.578 366.516 295.595 366.392 295.612 366.271C295.629 366.148 295.648 366.024 295.671 365.898C295.696 365.772 295.724 365.642 295.755 365.507L296.078 363.966H296.771L295.385 370.5H294.81L294.923 369.61H294.894C294.759 369.783 294.612 369.944 294.453 370.093C294.296 370.241 294.124 370.36 293.936 370.45C293.749 370.539 293.543 370.584 293.319 370.584ZM293.554 370.004C293.686 370.004 293.819 369.972 293.953 369.908C294.09 369.844 294.223 369.753 294.352 369.635C294.481 369.515 294.601 369.373 294.713 369.211C294.825 369.048 294.923 368.869 295.007 368.673C295.094 368.477 295.161 368.27 295.209 368.052C295.256 367.833 295.28 367.608 295.28 367.376C295.28 367.079 295.209 366.842 295.066 366.666C294.923 366.49 294.695 366.402 294.382 366.402C294.188 366.402 294.009 366.451 293.844 366.549C293.682 366.647 293.535 366.781 293.403 366.952C293.272 367.122 293.16 367.32 293.067 367.544C292.978 367.765 292.908 368.003 292.857 368.258C292.81 368.51 292.786 368.764 292.786 369.022C292.786 369.344 292.85 369.589 292.979 369.757C293.108 369.922 293.3 370.004 293.554 370.004ZM299.547 370.5L299.345 365.898H300.029L300.109 368.438C300.118 368.743 300.118 369.018 300.109 369.261C300.104 369.505 300.095 369.708 300.084 369.87H300.113C300.158 369.753 300.211 369.617 300.273 369.463C300.337 369.306 300.403 369.149 300.47 368.992C300.54 368.836 300.605 368.694 300.664 368.568L301.928 365.898H302.675L302.843 368.447C302.849 368.657 302.854 368.894 302.86 369.16C302.865 369.424 302.865 369.66 302.86 369.87H302.889C302.937 369.73 302.993 369.575 303.057 369.404C303.122 369.23 303.193 369.047 303.271 368.854C303.352 368.661 303.436 368.463 303.523 368.262L304.59 365.898H305.329L303.192 370.5H302.36L302.205 367.913C302.196 367.768 302.191 367.626 302.188 367.489C302.188 367.352 302.188 367.211 302.188 367.065C302.191 366.919 302.192 366.761 302.192 366.591H302.158C302.108 366.728 302.058 366.856 302.007 366.977C301.96 367.097 301.905 367.225 301.844 367.359C301.785 367.493 301.712 367.653 301.625 367.838L300.365 370.5H299.547ZM305.258 370.5L306.236 365.898H306.937L305.959 370.5H305.258ZM306.824 365.091C306.712 365.091 306.618 365.059 306.542 364.995C306.47 364.928 306.433 364.834 306.433 364.713C306.433 364.621 306.451 364.534 306.488 364.453C306.527 364.372 306.582 364.308 306.652 364.26C306.724 364.21 306.813 364.184 306.916 364.184C307.039 364.184 307.132 364.217 307.193 364.281C307.255 364.345 307.286 364.435 307.286 364.55C307.286 364.715 307.238 364.846 307.143 364.944C307.048 365.042 306.941 365.091 306.824 365.091ZM308.856 370.584C308.604 370.584 308.385 370.525 308.197 370.408C308.009 370.29 307.864 370.115 307.76 369.883C307.657 369.648 307.605 369.356 307.605 369.009C307.605 368.679 307.638 368.358 307.706 368.048C307.773 367.734 307.869 367.443 307.995 367.174C308.124 366.905 308.281 366.67 308.466 366.469C308.65 366.264 308.86 366.106 309.096 365.994C309.334 365.879 309.594 365.822 309.877 365.822C310.092 365.822 310.277 365.861 310.431 365.94C310.585 366.018 310.712 366.12 310.813 366.246C310.917 366.369 310.998 366.502 311.057 366.645H311.099C311.115 366.516 311.132 366.392 311.149 366.271C311.166 366.148 311.185 366.024 311.208 365.898C311.233 365.772 311.261 365.642 311.292 365.507L311.615 363.966H312.308L310.922 370.5H310.347L310.46 369.61H310.431C310.297 369.783 310.15 369.944 309.99 370.093C309.833 370.241 309.661 370.36 309.474 370.45C309.286 370.539 309.08 370.584 308.856 370.584ZM309.091 370.004C309.223 370.004 309.356 369.972 309.49 369.908C309.628 369.844 309.76 369.753 309.889 369.635C310.018 369.515 310.138 369.373 310.25 369.211C310.362 369.048 310.46 368.869 310.544 368.673C310.631 368.477 310.698 368.27 310.746 368.052C310.793 367.833 310.817 367.608 310.817 367.376C310.817 367.079 310.746 366.842 310.603 366.666C310.46 366.49 310.232 366.402 309.919 366.402C309.725 366.402 309.546 366.451 309.381 366.549C309.219 366.647 309.072 366.781 308.94 366.952C308.809 367.122 308.697 367.32 308.604 367.544C308.515 367.765 308.445 368.003 308.394 368.258C308.347 368.51 308.323 368.764 308.323 369.022C308.323 369.344 308.387 369.589 308.516 369.757C308.645 369.922 308.837 370.004 309.091 370.004ZM313.715 370.584C313.41 370.584 313.155 370.511 312.95 370.366C312.749 370.217 312.648 369.964 312.648 369.606C312.648 369.519 312.654 369.425 312.665 369.324C312.676 369.221 312.694 369.114 312.72 369.005L313.261 366.431H312.552L312.619 366.108L313.383 365.814L313.887 364.839H314.303L314.072 365.898H315.256L315.147 366.431H313.967L313.421 369.013C313.401 369.092 313.383 369.176 313.366 369.265C313.352 369.355 313.345 369.44 313.345 369.522C313.345 369.662 313.382 369.779 313.454 369.874C313.527 369.967 313.649 370.013 313.82 370.013C313.926 370.013 314.027 370.003 314.122 369.983C314.22 369.964 314.324 369.936 314.433 369.9V370.437C314.363 370.471 314.256 370.503 314.114 370.534C313.974 370.567 313.841 370.584 313.715 370.584ZM315.243 370.5L316.629 363.966H317.326L316.957 365.662C316.934 365.783 316.906 365.907 316.873 366.036C316.842 366.162 316.81 366.29 316.776 366.418C316.742 366.544 316.709 366.669 316.675 366.792H316.717C316.826 366.644 316.955 366.495 317.104 366.347C317.255 366.199 317.43 366.074 317.628 365.973C317.83 365.872 318.057 365.822 318.309 365.822C318.549 365.822 318.755 365.865 318.926 365.952C319.1 366.039 319.233 366.169 319.325 366.343C319.42 366.514 319.468 366.729 319.468 366.989C319.468 367.099 319.459 367.211 319.442 367.325C319.426 367.437 319.405 367.555 319.379 367.678L318.775 370.5H318.074L318.687 367.603C318.715 367.477 318.734 367.369 318.745 367.279C318.757 367.19 318.762 367.111 318.762 367.044C318.762 366.84 318.71 366.682 318.607 366.57C318.506 366.458 318.344 366.402 318.12 366.402C317.91 366.402 317.689 366.473 317.456 366.616C317.227 366.756 317.014 366.978 316.818 367.283C316.625 367.586 316.476 367.982 316.373 368.472L315.945 370.5H315.243ZM321.257 366.88C321.128 366.88 321.026 366.844 320.95 366.771C320.877 366.698 320.841 366.598 320.841 366.469C320.841 366.346 320.862 366.234 320.904 366.133C320.949 366.029 321.016 365.947 321.105 365.885C321.198 365.821 321.314 365.788 321.454 365.788C321.574 365.788 321.671 365.823 321.744 365.893C321.816 365.963 321.853 366.07 321.853 366.213C321.853 366.383 321.804 366.537 321.706 366.675C321.608 366.812 321.458 366.88 321.257 366.88ZM320.555 370.618C320.424 370.618 320.322 370.58 320.249 370.504C320.176 370.431 320.14 370.328 320.14 370.193C320.14 370.017 320.189 369.862 320.287 369.727C320.387 369.59 320.544 369.522 320.757 369.522C320.874 369.522 320.97 369.558 321.042 369.631C321.115 369.704 321.152 369.81 321.152 369.95C321.152 370.115 321.103 370.268 321.005 370.408C320.907 370.548 320.757 370.618 320.555 370.618ZM325.074 370.5L328.32 364.978H325.288L325.414 364.361H329.18L329.075 364.911L325.829 370.5H325.074ZM329.117 370.5L329.243 369.904L331.23 368.111C331.504 367.861 331.743 367.639 331.948 367.443C332.155 367.247 332.327 367.062 332.464 366.889C332.601 366.712 332.704 366.535 332.771 366.355C332.841 366.176 332.876 365.98 332.876 365.767C332.876 365.502 332.795 365.286 332.632 365.121C332.47 364.956 332.24 364.873 331.944 364.873C331.776 364.873 331.616 364.897 331.465 364.944C331.314 364.989 331.167 365.052 331.024 365.133C330.884 365.212 330.744 365.303 330.604 365.406L330.272 364.928C330.516 364.737 330.779 364.581 331.062 364.457C331.344 364.334 331.664 364.273 332.019 364.273C332.358 364.273 332.645 364.331 332.88 364.449C333.115 364.567 333.294 364.729 333.417 364.936C333.541 365.143 333.602 365.384 333.602 365.658C333.602 365.994 333.536 366.304 333.405 366.586C333.273 366.866 333.066 367.156 332.783 367.456C332.501 367.755 332.131 368.105 331.675 368.505L330.159 369.832V369.862H333.006L332.884 370.5H329.117ZM335.929 370.584C335.542 370.584 335.222 370.515 334.967 370.378C334.712 370.238 334.522 370.053 334.396 369.824C334.27 369.592 334.207 369.335 334.207 369.055C334.207 368.753 334.274 368.487 334.408 368.258C334.543 368.025 334.735 367.824 334.984 367.653C335.233 367.482 335.528 367.334 335.87 367.208C335.721 367.101 335.59 366.987 335.475 366.863C335.363 366.737 335.275 366.595 335.211 366.435C335.146 366.276 335.114 366.089 335.114 365.877C335.114 365.544 335.194 365.257 335.353 365.016C335.516 364.775 335.733 364.59 336.004 364.462C336.279 364.33 336.585 364.264 336.924 364.264C337.291 364.264 337.587 364.329 337.814 364.457C338.044 364.583 338.212 364.748 338.318 364.953C338.424 365.157 338.478 365.377 338.478 365.612C338.478 365.914 338.409 366.172 338.272 366.385C338.137 366.595 337.958 366.772 337.734 366.918C337.513 367.064 337.272 367.191 337.012 367.3C337.214 367.418 337.389 367.548 337.537 367.691C337.685 367.833 337.8 367.999 337.881 368.186C337.965 368.371 338.007 368.591 338.007 368.846C338.007 369.159 337.932 369.447 337.78 369.711C337.629 369.974 337.4 370.185 337.092 370.345C336.784 370.504 336.396 370.584 335.929 370.584ZM335.996 370.004C336.287 370.004 336.528 369.951 336.718 369.845C336.911 369.736 337.055 369.594 337.151 369.421C337.249 369.244 337.298 369.057 337.298 368.858C337.298 368.665 337.263 368.493 337.193 368.342C337.125 368.188 337.023 368.048 336.886 367.922C336.749 367.796 336.578 367.677 336.374 367.565C336.102 367.649 335.857 367.751 335.639 367.871C335.423 367.989 335.251 368.14 335.122 368.325C334.996 368.507 334.933 368.738 334.933 369.018C334.933 369.328 335.033 369.571 335.232 369.744C335.43 369.918 335.685 370.004 335.996 370.004ZM336.521 366.981C336.789 366.88 337.016 366.771 337.201 366.654C337.389 366.533 337.53 366.395 337.625 366.238C337.723 366.078 337.772 365.892 337.772 365.679C337.772 365.425 337.689 365.224 337.524 365.079C337.362 364.93 337.144 364.856 336.869 364.856C336.659 364.856 336.473 364.898 336.311 364.982C336.151 365.063 336.027 365.18 335.937 365.331C335.847 365.482 335.803 365.664 335.803 365.877C335.803 366.14 335.868 366.357 336 366.528C336.134 366.698 336.308 366.849 336.521 366.981ZM340.607 372.558L342.013 365.898H342.584L342.471 366.792H342.5C342.632 366.619 342.776 366.459 342.933 366.313C343.092 366.165 343.266 366.046 343.454 365.956C343.644 365.867 343.851 365.822 344.075 365.822C344.327 365.822 344.547 365.882 344.734 366.003C344.922 366.12 345.068 366.297 345.171 366.532C345.277 366.764 345.331 367.054 345.331 367.401C345.331 367.731 345.297 368.053 345.23 368.367C345.165 368.678 345.07 368.967 344.944 369.236C344.818 369.502 344.663 369.737 344.478 369.942C344.296 370.143 344.088 370.301 343.853 370.416C343.617 370.528 343.358 370.584 343.076 370.584C342.86 370.584 342.674 370.546 342.517 370.471C342.363 370.392 342.233 370.29 342.127 370.164C342.023 370.038 341.94 369.902 341.879 369.757H341.841C341.83 369.86 341.812 369.996 341.787 370.164C341.764 370.329 341.74 370.468 341.715 370.58L341.295 372.558H340.607ZM343.025 370.004C343.221 370.004 343.4 369.956 343.563 369.858C343.728 369.76 343.875 369.627 344.004 369.459C344.135 369.288 344.246 369.09 344.335 368.867C344.428 368.643 344.498 368.405 344.545 368.153C344.593 367.901 344.617 367.645 344.617 367.384C344.617 367.059 344.551 366.814 344.419 366.649C344.291 366.484 344.097 366.402 343.84 366.402C343.706 366.402 343.57 366.435 343.433 366.502C343.295 366.567 343.162 366.659 343.034 366.779C342.905 366.897 342.785 367.037 342.673 367.199C342.561 367.362 342.463 367.541 342.379 367.737C342.297 367.933 342.233 368.14 342.185 368.358C342.138 368.577 342.114 368.801 342.114 369.03C342.114 369.324 342.188 369.561 342.337 369.74C342.488 369.916 342.717 370.004 343.025 370.004ZM345.448 370.5L347.451 368.132L346.452 365.898H347.157L347.896 367.636L349.299 365.898H350.109L348.186 368.161L349.253 370.5H348.539L347.733 368.669L346.259 370.5H345.448ZM350.496 370.618C350.364 370.618 350.262 370.58 350.189 370.504C350.116 370.431 350.08 370.328 350.08 370.193C350.08 370.017 350.129 369.862 350.227 369.727C350.328 369.59 350.485 369.522 350.697 369.522C350.815 369.522 350.91 369.558 350.983 369.631C351.056 369.704 351.092 369.81 351.092 369.95C351.092 370.115 351.043 370.268 350.945 370.408C350.847 370.548 350.697 370.618 350.496 370.618Z" fill="#101E37"/>
<defs>
<clipPath id="clip0_4149_6860">
<rect x="90" y="104.5" width="449" height="235" rx="4.43073" fill="white"/>
</clipPath>
<clipPath id="clip1_4149_6860">
<rect width="614" height="48" fill="white" transform="translate(90 104.5)"/>
</clipPath>
<clipPath id="clip2_4149_6860">
<rect width="95.2607" height="5.44" fill="white" transform="translate(273.875 167.78)"/>
</clipPath>
<clipPath id="clip3_4149_6860">
<rect width="95.2607" height="5.44" fill="white" transform="translate(273.875 203.78)"/>
</clipPath>
<clipPath id="clip4_4149_6860">
<rect width="95.2607" height="5.44" fill="white" transform="translate(273.875 239.78)"/>
</clipPath>
<clipPath id="clip5_4149_6860">
<rect width="95.2607" height="5.44" fill="white" transform="translate(273.875 275.78)"/>
</clipPath>
<clipPath id="clip6_4149_6860">
<rect width="95.2607" height="5.44" fill="white" transform="translate(273.875 311.78)"/>
</clipPath>
<clipPath id="clip7_4149_6860">
<rect x="90" y="332.5" width="449" height="8.86147" rx="4.43073" fill="white"/>
</clipPath>
</defs>
</svg>
